<?xml version="1.0" encoding="utf-8" standalone="no"?>
<!DOCTYPE svg PUBLIC "-//W3C//DTD SVG 1.1//EN"
  "http://www.w3.org/Graphics/SVG/1.1/DTD/svg11.dtd">
<svg xmlns:xlink="http://www.w3.org/1999/xlink" width="247.636725pt" height="179.048317pt" viewBox="0 0 247.636725 179.048317" xmlns="http://www.w3.org/2000/svg" version="1.1">
 <metadata>
  <rdf:RDF xmlns:dc="http://purl.org/dc/elements/1.1/" xmlns:cc="http://creativecommons.org/ns#" xmlns:rdf="http://www.w3.org/1999/02/22-rdf-syntax-ns#">
   <cc:Work>
    <dc:type rdf:resource="http://purl.org/dc/dcmitype/StillImage"/>
    <dc:date>2025-04-01T15:49:36.765263</dc:date>
    <dc:format>image/svg+xml</dc:format>
    <dc:creator>
     <cc:Agent>
      <dc:title>Matplotlib v3.9.2, https://matplotlib.org/</dc:title>
     </cc:Agent>
    </dc:creator>
   </cc:Work>
  </rdf:RDF>
 </metadata>
 <defs>
  <style type="text/css">*{stroke-linejoin: round; stroke-linecap: butt}</style>
 </defs>
 <g id="figure_1">
  <g id="patch_1">
   <path d="M 0 179.048317 
L 247.636725 179.048317 
L 247.636725 0 
L 0 0 
L 0 179.048317 
z
" style="fill: none"/>
  </g>
  <g id="axes_1">
   <g id="patch_2">
    <path d="M 38.774054 149.13 
L 234.074054 149.13 
L 234.074054 3.6 
L 38.774054 3.6 
L 38.774054 149.13 
z
" style="fill: none"/>
   </g>
   <g id="matplotlib.axis_1">
    <g id="xtick_1">
     <g id="line2d_1">
      <path d="M 38.774054 149.13 
L 38.774054 3.6 
" clip-path="url(#p9144e6c149)" style="fill: none; stroke-dasharray: 1.85,0.8; stroke-dashoffset: 0; stroke: #000000; stroke-opacity: 0.5; stroke-width: 0.5"/>
     </g>
     <g id="line2d_2">
      <defs>
       <path id="mce7454e774" d="M 0 0 
L 0 -3 
" style="stroke: #000000; stroke-width: 0.5"/>
      </defs>
      <g>
       <use xlink:href="#mce7454e774" x="38.774054" y="149.13" style="stroke: #000000; stroke-width: 0.5"/>
      </g>
     </g>
     <g id="line2d_3">
      <defs>
       <path id="m01f4af0dbc" d="M 0 0 
L 0 3 
" style="stroke: #000000; stroke-width: 0.5"/>
      </defs>
      <g>
       <use xlink:href="#m01f4af0dbc" x="38.774054" y="3.6" style="stroke: #000000; stroke-width: 0.5"/>
      </g>
     </g>
     <g id="text_1">
      <!-- $\mathdefault{0}$ -->
      <g transform="translate(36.283387 159.548498) scale(0.1 -0.1)">
       <defs>
        <path id="CMR17-30" d="M 2688 2025 
C 2688 2416 2682 3080 2413 3591 
C 2176 4039 1798 4198 1466 4198 
C 1158 4198 768 4058 525 3597 
C 269 3118 243 2524 243 2025 
C 243 1661 250 1106 448 619 
C 723 -39 1216 -128 1466 -128 
C 1760 -128 2208 -7 2470 600 
C 2662 1042 2688 1559 2688 2025 
z
M 1466 -26 
C 1056 -26 813 325 723 812 
C 653 1188 653 1738 653 2096 
C 653 2588 653 2997 736 3387 
C 858 3929 1216 4096 1466 4096 
C 1728 4096 2067 3923 2189 3400 
C 2272 3036 2278 2607 2278 2096 
C 2278 1680 2278 1169 2202 792 
C 2067 95 1690 -26 1466 -26 
z
" transform="scale(0.015625)"/>
       </defs>
       <use xlink:href="#CMR17-30" transform="scale(0.996264)"/>
      </g>
     </g>
    </g>
    <g id="xtick_2">
     <g id="line2d_4">
      <path d="M 77.834054 149.13 
L 77.834054 3.6 
" clip-path="url(#p9144e6c149)" style="fill: none; stroke-dasharray: 1.85,0.8; stroke-dashoffset: 0; stroke: #000000; stroke-opacity: 0.5; stroke-width: 0.5"/>
     </g>
     <g id="line2d_5">
      <g>
       <use xlink:href="#mce7454e774" x="77.834054" y="149.13" style="stroke: #000000; stroke-width: 0.5"/>
      </g>
     </g>
     <g id="line2d_6">
      <g>
       <use xlink:href="#m01f4af0dbc" x="77.834054" y="3.6" style="stroke: #000000; stroke-width: 0.5"/>
      </g>
     </g>
     <g id="text_2">
      <!-- $\mathdefault{1000}$ -->
      <g transform="translate(67.871384 159.548498) scale(0.1 -0.1)">
       <defs>
        <path id="CMR17-31" d="M 1702 4058 
C 1702 4192 1696 4192 1606 4192 
C 1357 3916 979 3827 621 3827 
C 602 3827 570 3827 563 3808 
C 557 3795 557 3782 557 3648 
C 755 3648 1088 3686 1344 3839 
L 1344 461 
C 1344 236 1331 160 781 160 
L 589 160 
L 589 0 
C 896 0 1216 0 1523 0 
C 1830 0 2150 0 2458 0 
L 2458 160 
L 2266 160 
C 1715 160 1702 230 1702 458 
L 1702 4058 
z
" transform="scale(0.015625)"/>
       </defs>
       <use xlink:href="#CMR17-31" transform="scale(0.996264)"/>
       <use xlink:href="#CMR17-30" transform="translate(45.690477 0) scale(0.996264)"/>
       <use xlink:href="#CMR17-30" transform="translate(91.380954 0) scale(0.996264)"/>
       <use xlink:href="#CMR17-30" transform="translate(137.071431 0) scale(0.996264)"/>
      </g>
     </g>
    </g>
    <g id="xtick_3">
     <g id="line2d_7">
      <path d="M 116.894054 149.13 
L 116.894054 3.6 
" clip-path="url(#p9144e6c149)" style="fill: none; stroke-dasharray: 1.85,0.8; stroke-dashoffset: 0; stroke: #000000; stroke-opacity: 0.5; stroke-width: 0.5"/>
     </g>
     <g id="line2d_8">
      <g>
       <use xlink:href="#mce7454e774" x="116.894054" y="149.13" style="stroke: #000000; stroke-width: 0.5"/>
      </g>
     </g>
     <g id="line2d_9">
      <g>
       <use xlink:href="#m01f4af0dbc" x="116.894054" y="3.6" style="stroke: #000000; stroke-width: 0.5"/>
      </g>
     </g>
     <g id="text_3">
      <!-- $\mathdefault{2000}$ -->
      <g transform="translate(106.931384 159.548498) scale(0.1 -0.1)">
       <defs>
        <path id="CMR17-32" d="M 2669 989 
L 2554 989 
C 2490 536 2438 459 2413 420 
C 2381 369 1920 369 1830 369 
L 602 369 
C 832 619 1280 1072 1824 1597 
C 2214 1967 2669 2402 2669 3035 
C 2669 3790 2067 4224 1395 4224 
C 691 4224 262 3604 262 3030 
C 262 2780 448 2748 525 2748 
C 589 2748 781 2787 781 3010 
C 781 3207 614 3264 525 3264 
C 486 3264 448 3258 422 3245 
C 544 3790 915 4058 1306 4058 
C 1862 4058 2227 3617 2227 3035 
C 2227 2479 1901 2000 1536 1584 
L 262 146 
L 262 0 
L 2515 0 
L 2669 989 
z
" transform="scale(0.015625)"/>
       </defs>
       <use xlink:href="#CMR17-32" transform="scale(0.996264)"/>
       <use xlink:href="#CMR17-30" transform="translate(45.690477 0) scale(0.996264)"/>
       <use xlink:href="#CMR17-30" transform="translate(91.380954 0) scale(0.996264)"/>
       <use xlink:href="#CMR17-30" transform="translate(137.071431 0) scale(0.996264)"/>
      </g>
     </g>
    </g>
    <g id="xtick_4">
     <g id="line2d_10">
      <path d="M 155.954054 149.13 
L 155.954054 3.6 
" clip-path="url(#p9144e6c149)" style="fill: none; stroke-dasharray: 1.85,0.8; stroke-dashoffset: 0; stroke: #000000; stroke-opacity: 0.5; stroke-width: 0.5"/>
     </g>
     <g id="line2d_11">
      <g>
       <use xlink:href="#mce7454e774" x="155.954054" y="149.13" style="stroke: #000000; stroke-width: 0.5"/>
      </g>
     </g>
     <g id="line2d_12">
      <g>
       <use xlink:href="#m01f4af0dbc" x="155.954054" y="3.6" style="stroke: #000000; stroke-width: 0.5"/>
      </g>
     </g>
     <g id="text_4">
      <!-- $\mathdefault{3000}$ -->
      <g transform="translate(145.991384 159.548498) scale(0.1 -0.1)">
       <defs>
        <path id="CMR17-33" d="M 1414 2157 
C 1984 2157 2234 1662 2234 1090 
C 2234 320 1824 25 1453 25 
C 1114 25 563 194 390 693 
C 422 680 454 680 486 680 
C 640 680 755 782 755 948 
C 755 1133 614 1216 486 1216 
C 378 1216 211 1165 211 926 
C 211 335 787 -128 1466 -128 
C 2176 -128 2720 430 2720 1085 
C 2720 1707 2208 2157 1600 2227 
C 2086 2328 2554 2756 2554 3329 
C 2554 3820 2048 4179 1472 4179 
C 890 4179 378 3829 378 3329 
C 378 3110 544 3072 627 3072 
C 762 3072 877 3155 877 3321 
C 877 3486 762 3569 627 3569 
C 602 3569 570 3569 544 3557 
C 730 3959 1235 4032 1459 4032 
C 1683 4032 2106 3925 2106 3320 
C 2106 3143 2080 2828 1862 2550 
C 1670 2304 1453 2304 1242 2284 
C 1210 2284 1062 2269 1037 2269 
C 992 2263 966 2257 966 2208 
C 966 2163 973 2157 1101 2157 
L 1414 2157 
z
" transform="scale(0.015625)"/>
       </defs>
       <use xlink:href="#CMR17-33" transform="scale(0.996264)"/>
       <use xlink:href="#CMR17-30" transform="translate(45.690477 0) scale(0.996264)"/>
       <use xlink:href="#CMR17-30" transform="translate(91.380954 0) scale(0.996264)"/>
       <use xlink:href="#CMR17-30" transform="translate(137.071431 0) scale(0.996264)"/>
      </g>
     </g>
    </g>
    <g id="xtick_5">
     <g id="line2d_13">
      <path d="M 195.014054 149.13 
L 195.014054 3.6 
" clip-path="url(#p9144e6c149)" style="fill: none; stroke-dasharray: 1.85,0.8; stroke-dashoffset: 0; stroke: #000000; stroke-opacity: 0.5; stroke-width: 0.5"/>
     </g>
     <g id="line2d_14">
      <g>
       <use xlink:href="#mce7454e774" x="195.014054" y="149.13" style="stroke: #000000; stroke-width: 0.5"/>
      </g>
     </g>
     <g id="line2d_15">
      <g>
       <use xlink:href="#m01f4af0dbc" x="195.014054" y="3.6" style="stroke: #000000; stroke-width: 0.5"/>
      </g>
     </g>
     <g id="text_5">
      <!-- $\mathdefault{4000}$ -->
      <g transform="translate(185.051384 159.548498) scale(0.1 -0.1)">
       <defs>
        <path id="CMR17-34" d="M 2150 4122 
C 2150 4256 2144 4256 2029 4256 
L 128 1254 
L 128 1088 
L 1779 1088 
L 1779 457 
C 1779 224 1766 160 1318 160 
L 1197 160 
L 1197 0 
C 1402 0 1747 0 1965 0 
C 2182 0 2528 0 2733 0 
L 2733 160 
L 2611 160 
C 2163 160 2150 224 2150 457 
L 2150 1088 
L 2803 1088 
L 2803 1254 
L 2150 1254 
L 2150 4122 
z
M 1798 3703 
L 1798 1254 
L 256 1254 
L 1798 3703 
z
" transform="scale(0.015625)"/>
       </defs>
       <use xlink:href="#CMR17-34" transform="scale(0.996264)"/>
       <use xlink:href="#CMR17-30" transform="translate(45.690477 0) scale(0.996264)"/>
       <use xlink:href="#CMR17-30" transform="translate(91.380954 0) scale(0.996264)"/>
       <use xlink:href="#CMR17-30" transform="translate(137.071431 0) scale(0.996264)"/>
      </g>
     </g>
    </g>
    <g id="xtick_6">
     <g id="line2d_16">
      <path d="M 234.074054 149.13 
L 234.074054 3.6 
" clip-path="url(#p9144e6c149)" style="fill: none; stroke-dasharray: 1.85,0.8; stroke-dashoffset: 0; stroke: #000000; stroke-opacity: 0.5; stroke-width: 0.5"/>
     </g>
     <g id="line2d_17">
      <g>
       <use xlink:href="#mce7454e774" x="234.074054" y="149.13" style="stroke: #000000; stroke-width: 0.5"/>
      </g>
     </g>
     <g id="line2d_18">
      <g>
       <use xlink:href="#m01f4af0dbc" x="234.074054" y="3.6" style="stroke: #000000; stroke-width: 0.5"/>
      </g>
     </g>
     <g id="text_6">
      <!-- $\mathdefault{5000}$ -->
      <g transform="translate(224.111384 159.548498) scale(0.1 -0.1)">
       <defs>
        <path id="CMR17-35" d="M 730 3692 
C 794 3666 1056 3584 1325 3584 
C 1920 3584 2246 3911 2432 4100 
C 2432 4157 2432 4192 2394 4192 
C 2387 4192 2374 4192 2323 4163 
C 2099 4058 1837 3973 1517 3973 
C 1325 3973 1037 3999 723 4139 
C 653 4171 640 4171 634 4171 
C 602 4171 595 4164 595 4037 
L 595 2203 
C 595 2089 595 2057 659 2057 
C 691 2057 704 2070 736 2114 
C 941 2401 1222 2522 1542 2522 
C 1766 2522 2246 2382 2246 1289 
C 2246 1085 2246 715 2054 421 
C 1894 159 1645 25 1370 25 
C 947 25 518 320 403 814 
C 429 807 480 795 506 795 
C 589 795 749 840 749 1038 
C 749 1210 627 1280 506 1280 
C 358 1280 262 1190 262 1011 
C 262 454 704 -128 1382 -128 
C 2042 -128 2669 440 2669 1264 
C 2669 2030 2170 2624 1549 2624 
C 1222 2624 947 2503 730 2274 
L 730 3692 
z
" transform="scale(0.015625)"/>
       </defs>
       <use xlink:href="#CMR17-35" transform="scale(0.996264)"/>
       <use xlink:href="#CMR17-30" transform="translate(45.690477 0) scale(0.996264)"/>
       <use xlink:href="#CMR17-30" transform="translate(91.380954 0) scale(0.996264)"/>
       <use xlink:href="#CMR17-30" transform="translate(137.071431 0) scale(0.996264)"/>
      </g>
     </g>
    </g>
    <g id="xtick_7">
     <g id="line2d_19">
      <defs>
       <path id="m6ed4a58cb6" d="M 0 0 
L 0 -1.5 
" style="stroke: #000000; stroke-width: 0.5"/>
      </defs>
      <g>
       <use xlink:href="#m6ed4a58cb6" x="46.586054" y="149.13" style="stroke: #000000; stroke-width: 0.5"/>
      </g>
     </g>
     <g id="line2d_20">
      <defs>
       <path id="m4eb8de2fa8" d="M 0 0 
L 0 1.5 
" style="stroke: #000000; stroke-width: 0.5"/>
      </defs>
      <g>
       <use xlink:href="#m4eb8de2fa8" x="46.586054" y="3.6" style="stroke: #000000; stroke-width: 0.5"/>
      </g>
     </g>
    </g>
    <g id="xtick_8">
     <g id="line2d_21">
      <g>
       <use xlink:href="#m6ed4a58cb6" x="54.398054" y="149.13" style="stroke: #000000; stroke-width: 0.5"/>
      </g>
     </g>
     <g id="line2d_22">
      <g>
       <use xlink:href="#m4eb8de2fa8" x="54.398054" y="3.6" style="stroke: #000000; stroke-width: 0.5"/>
      </g>
     </g>
    </g>
    <g id="xtick_9">
     <g id="line2d_23">
      <g>
       <use xlink:href="#m6ed4a58cb6" x="62.210054" y="149.13" style="stroke: #000000; stroke-width: 0.5"/>
      </g>
     </g>
     <g id="line2d_24">
      <g>
       <use xlink:href="#m4eb8de2fa8" x="62.210054" y="3.6" style="stroke: #000000; stroke-width: 0.5"/>
      </g>
     </g>
    </g>
    <g id="xtick_10">
     <g id="line2d_25">
      <g>
       <use xlink:href="#m6ed4a58cb6" x="70.022054" y="149.13" style="stroke: #000000; stroke-width: 0.5"/>
      </g>
     </g>
     <g id="line2d_26">
      <g>
       <use xlink:href="#m4eb8de2fa8" x="70.022054" y="3.6" style="stroke: #000000; stroke-width: 0.5"/>
      </g>
     </g>
    </g>
    <g id="xtick_11">
     <g id="line2d_27">
      <g>
       <use xlink:href="#m6ed4a58cb6" x="85.646054" y="149.13" style="stroke: #000000; stroke-width: 0.5"/>
      </g>
     </g>
     <g id="line2d_28">
      <g>
       <use xlink:href="#m4eb8de2fa8" x="85.646054" y="3.6" style="stroke: #000000; stroke-width: 0.5"/>
      </g>
     </g>
    </g>
    <g id="xtick_12">
     <g id="line2d_29">
      <g>
       <use xlink:href="#m6ed4a58cb6" x="93.458054" y="149.13" style="stroke: #000000; stroke-width: 0.5"/>
      </g>
     </g>
     <g id="line2d_30">
      <g>
       <use xlink:href="#m4eb8de2fa8" x="93.458054" y="3.6" style="stroke: #000000; stroke-width: 0.5"/>
      </g>
     </g>
    </g>
    <g id="xtick_13">
     <g id="line2d_31">
      <g>
       <use xlink:href="#m6ed4a58cb6" x="101.270054" y="149.13" style="stroke: #000000; stroke-width: 0.5"/>
      </g>
     </g>
     <g id="line2d_32">
      <g>
       <use xlink:href="#m4eb8de2fa8" x="101.270054" y="3.6" style="stroke: #000000; stroke-width: 0.5"/>
      </g>
     </g>
    </g>
    <g id="xtick_14">
     <g id="line2d_33">
      <g>
       <use xlink:href="#m6ed4a58cb6" x="109.082054" y="149.13" style="stroke: #000000; stroke-width: 0.5"/>
      </g>
     </g>
     <g id="line2d_34">
      <g>
       <use xlink:href="#m4eb8de2fa8" x="109.082054" y="3.6" style="stroke: #000000; stroke-width: 0.5"/>
      </g>
     </g>
    </g>
    <g id="xtick_15">
     <g id="line2d_35">
      <g>
       <use xlink:href="#m6ed4a58cb6" x="124.706054" y="149.13" style="stroke: #000000; stroke-width: 0.5"/>
      </g>
     </g>
     <g id="line2d_36">
      <g>
       <use xlink:href="#m4eb8de2fa8" x="124.706054" y="3.6" style="stroke: #000000; stroke-width: 0.5"/>
      </g>
     </g>
    </g>
    <g id="xtick_16">
     <g id="line2d_37">
      <g>
       <use xlink:href="#m6ed4a58cb6" x="132.518054" y="149.13" style="stroke: #000000; stroke-width: 0.5"/>
      </g>
     </g>
     <g id="line2d_38">
      <g>
       <use xlink:href="#m4eb8de2fa8" x="132.518054" y="3.6" style="stroke: #000000; stroke-width: 0.5"/>
      </g>
     </g>
    </g>
    <g id="xtick_17">
     <g id="line2d_39">
      <g>
       <use xlink:href="#m6ed4a58cb6" x="140.330054" y="149.13" style="stroke: #000000; stroke-width: 0.5"/>
      </g>
     </g>
     <g id="line2d_40">
      <g>
       <use xlink:href="#m4eb8de2fa8" x="140.330054" y="3.6" style="stroke: #000000; stroke-width: 0.5"/>
      </g>
     </g>
    </g>
    <g id="xtick_18">
     <g id="line2d_41">
      <g>
       <use xlink:href="#m6ed4a58cb6" x="148.142054" y="149.13" style="stroke: #000000; stroke-width: 0.5"/>
      </g>
     </g>
     <g id="line2d_42">
      <g>
       <use xlink:href="#m4eb8de2fa8" x="148.142054" y="3.6" style="stroke: #000000; stroke-width: 0.5"/>
      </g>
     </g>
    </g>
    <g id="xtick_19">
     <g id="line2d_43">
      <g>
       <use xlink:href="#m6ed4a58cb6" x="163.766054" y="149.13" style="stroke: #000000; stroke-width: 0.5"/>
      </g>
     </g>
     <g id="line2d_44">
      <g>
       <use xlink:href="#m4eb8de2fa8" x="163.766054" y="3.6" style="stroke: #000000; stroke-width: 0.5"/>
      </g>
     </g>
    </g>
    <g id="xtick_20">
     <g id="line2d_45">
      <g>
       <use xlink:href="#m6ed4a58cb6" x="171.578054" y="149.13" style="stroke: #000000; stroke-width: 0.5"/>
      </g>
     </g>
     <g id="line2d_46">
      <g>
       <use xlink:href="#m4eb8de2fa8" x="171.578054" y="3.6" style="stroke: #000000; stroke-width: 0.5"/>
      </g>
     </g>
    </g>
    <g id="xtick_21">
     <g id="line2d_47">
      <g>
       <use xlink:href="#m6ed4a58cb6" x="179.390054" y="149.13" style="stroke: #000000; stroke-width: 0.5"/>
      </g>
     </g>
     <g id="line2d_48">
      <g>
       <use xlink:href="#m4eb8de2fa8" x="179.390054" y="3.6" style="stroke: #000000; stroke-width: 0.5"/>
      </g>
     </g>
    </g>
    <g id="xtick_22">
     <g id="line2d_49">
      <g>
       <use xlink:href="#m6ed4a58cb6" x="187.202054" y="149.13" style="stroke: #000000; stroke-width: 0.5"/>
      </g>
     </g>
     <g id="line2d_50">
      <g>
       <use xlink:href="#m4eb8de2fa8" x="187.202054" y="3.6" style="stroke: #000000; stroke-width: 0.5"/>
      </g>
     </g>
    </g>
    <g id="xtick_23">
     <g id="line2d_51">
      <g>
       <use xlink:href="#m6ed4a58cb6" x="202.826054" y="149.13" style="stroke: #000000; stroke-width: 0.5"/>
      </g>
     </g>
     <g id="line2d_52">
      <g>
       <use xlink:href="#m4eb8de2fa8" x="202.826054" y="3.6" style="stroke: #000000; stroke-width: 0.5"/>
      </g>
     </g>
    </g>
    <g id="xtick_24">
     <g id="line2d_53">
      <g>
       <use xlink:href="#m6ed4a58cb6" x="210.638054" y="149.13" style="stroke: #000000; stroke-width: 0.5"/>
      </g>
     </g>
     <g id="line2d_54">
      <g>
       <use xlink:href="#m4eb8de2fa8" x="210.638054" y="3.6" style="stroke: #000000; stroke-width: 0.5"/>
      </g>
     </g>
    </g>
    <g id="xtick_25">
     <g id="line2d_55">
      <g>
       <use xlink:href="#m6ed4a58cb6" x="218.450054" y="149.13" style="stroke: #000000; stroke-width: 0.5"/>
      </g>
     </g>
     <g id="line2d_56">
      <g>
       <use xlink:href="#m4eb8de2fa8" x="218.450054" y="3.6" style="stroke: #000000; stroke-width: 0.5"/>
      </g>
     </g>
    </g>
    <g id="xtick_26">
     <g id="line2d_57">
      <g>
       <use xlink:href="#m6ed4a58cb6" x="226.262054" y="149.13" style="stroke: #000000; stroke-width: 0.5"/>
      </g>
     </g>
     <g id="line2d_58">
      <g>
       <use xlink:href="#m4eb8de2fa8" x="226.262054" y="3.6" style="stroke: #000000; stroke-width: 0.5"/>
      </g>
     </g>
    </g>
    <g id="text_7">
     <!-- $t$ [ns] -->
     <g transform="translate(125.465135 172.957657) scale(0.1 -0.1)">
      <defs>
       <path id="CMMI12-74" d="M 1286 2566 
L 1875 2566 
C 1997 2566 2061 2566 2061 2681 
C 2061 2752 2022 2752 1894 2752 
L 1331 2752 
L 1568 3692 
C 1594 3781 1594 3794 1594 3840 
C 1594 3943 1510 4000 1427 4000 
C 1376 4000 1229 3981 1178 3775 
L 928 2752 
L 326 2752 
C 198 2752 141 2752 141 2630 
C 141 2566 186 2566 307 2566 
L 877 2566 
L 454 881 
C 403 658 384 594 384 511 
C 384 211 595 -64 954 -64 
C 1600 -64 1946 868 1946 912 
C 1946 951 1920 970 1882 970 
C 1869 970 1843 970 1830 944 
C 1824 938 1818 931 1773 829 
C 1638 511 1344 64 973 64 
C 781 64 768 224 768 364 
C 768 370 768 492 787 568 
L 1286 2566 
z
" transform="scale(0.015625)"/>
       <path id="CMR17-5b" d="M 1504 -1600 
L 1504 -1377 
L 902 -1377 
L 902 4544 
L 1504 4544 
L 1504 4767 
L 678 4767 
L 678 -1600 
L 1504 -1600 
z
" transform="scale(0.015625)"/>
       <path id="CMR17-6e" d="M 2656 1933 
C 2656 2259 2592 2790 1837 2790 
C 1331 2790 1069 2400 973 2144 
L 966 2144 
L 966 2790 
L 211 2720 
L 211 2554 
C 589 2554 646 2515 646 2208 
L 646 428 
C 646 184 621 153 211 153 
L 211 -13 
C 365 0 646 0 813 0 
C 979 0 1267 0 1421 -13 
L 1421 153 
C 1011 153 986 178 986 428 
L 986 1658 
C 986 2247 1344 2688 1792 2688 
C 2266 2688 2317 2266 2317 1958 
L 2317 428 
C 2317 184 2291 153 1882 153 
L 1882 -13 
C 2035 0 2317 0 2483 0 
C 2650 0 2938 0 3091 -13 
L 3091 153 
C 2682 153 2656 178 2656 428 
L 2656 1933 
z
" transform="scale(0.015625)"/>
       <path id="CMR17-73" d="M 1978 2697 
C 1978 2813 1971 2819 1933 2819 
C 1907 2819 1901 2813 1824 2717 
C 1805 2691 1747 2626 1728 2601 
C 1523 2819 1235 2819 1126 2819 
C 416 2819 160 2447 160 2076 
C 160 1498 813 1365 998 1325 
C 1402 1243 1542 1217 1677 1101 
C 1760 1025 1901 884 1901 654 
C 1901 384 1747 38 1158 38 
C 602 38 403 460 288 1021 
C 269 1110 269 1117 218 1117 
C 166 1117 160 1110 160 983 
L 160 63 
C 160 -51 166 -58 205 -58 
C 237 -58 243 -51 275 0 
C 314 57 410 211 448 276 
C 576 103 800 -64 1158 -64 
C 1792 -64 2131 283 2131 784 
C 2131 1112 1958 1285 1875 1362 
C 1683 1561 1459 1606 1190 1657 
C 838 1735 390 1825 390 2217 
C 390 2383 480 2737 1126 2737 
C 1811 2737 1850 2094 1862 1888 
C 1869 1856 1901 1849 1920 1849 
C 1978 1849 1978 1869 1978 1978 
L 1978 2697 
z
" transform="scale(0.015625)"/>
       <path id="CMR17-5d" d="M 915 4767 
L 90 4767 
L 90 4544 
L 691 4544 
L 691 -1377 
L 90 -1377 
L 90 -1600 
L 915 -1600 
L 915 4767 
z
" transform="scale(0.015625)"/>
      </defs>
      <use xlink:href="#CMMI12-74" transform="scale(0.996264)"/>
      <use xlink:href="#CMR17-5b" transform="translate(65.302297 0) scale(0.996264)"/>
      <use xlink:href="#CMR17-6e" transform="translate(90.173355 0) scale(0.996264)"/>
      <use xlink:href="#CMR17-73" transform="translate(141.068725 0) scale(0.996264)"/>
      <use xlink:href="#CMR17-5d" transform="translate(176.870062 0) scale(0.996264)"/>
     </g>
    </g>
   </g>
   <g id="matplotlib.axis_2">
    <g id="ytick_1">
     <g id="line2d_59">
      <path d="M 38.774054 132.688785 
L 234.074054 132.688785 
" clip-path="url(#p9144e6c149)" style="fill: none; stroke-dasharray: 1.85,0.8; stroke-dashoffset: 0; stroke: #000000; stroke-opacity: 0.5; stroke-width: 0.5"/>
     </g>
     <g id="line2d_60">
      <defs>
       <path id="m961b0a2c62" d="M 0 0 
L 3 0 
" style="stroke: #000000; stroke-width: 0.5"/>
      </defs>
      <g>
       <use xlink:href="#m961b0a2c62" x="38.774054" y="132.688785" style="stroke: #000000; stroke-width: 0.5"/>
      </g>
     </g>
     <g id="line2d_61">
      <defs>
       <path id="m97b7f62f5e" d="M 0 0 
L -3 0 
" style="stroke: #000000; stroke-width: 0.5"/>
      </defs>
      <g>
       <use xlink:href="#m97b7f62f5e" x="234.074054" y="132.688785" style="stroke: #000000; stroke-width: 0.5"/>
      </g>
     </g>
     <g id="text_8">
      <!-- $\mathdefault{−20}$ -->
      <g transform="translate(17.56264 136.148034) scale(0.1 -0.1)">
       <defs>
        <path id="CMSY10-0" d="M 4218 1472 
C 4326 1472 4442 1472 4442 1600 
C 4442 1728 4326 1728 4218 1728 
L 755 1728 
C 646 1728 531 1728 531 1600 
C 531 1472 646 1472 755 1472 
L 4218 1472 
z
" transform="scale(0.015625)"/>
       </defs>
       <use xlink:href="#CMSY10-0" transform="scale(0.996264)"/>
       <use xlink:href="#CMR17-32" transform="translate(77.487468 0) scale(0.996264)"/>
       <use xlink:href="#CMR17-30" transform="translate(123.177945 0) scale(0.996264)"/>
      </g>
     </g>
    </g>
    <g id="ytick_2">
     <g id="line2d_62">
      <path d="M 38.774054 104.662904 
L 234.074054 104.662904 
" clip-path="url(#p9144e6c149)" style="fill: none; stroke-dasharray: 1.85,0.8; stroke-dashoffset: 0; stroke: #000000; stroke-opacity: 0.5; stroke-width: 0.5"/>
     </g>
     <g id="line2d_63">
      <g>
       <use xlink:href="#m961b0a2c62" x="38.774054" y="104.662904" style="stroke: #000000; stroke-width: 0.5"/>
      </g>
     </g>
     <g id="line2d_64">
      <g>
       <use xlink:href="#m97b7f62f5e" x="234.074054" y="104.662904" style="stroke: #000000; stroke-width: 0.5"/>
      </g>
     </g>
     <g id="text_9">
      <!-- $\mathdefault{−10}$ -->
      <g transform="translate(17.56264 108.122153) scale(0.1 -0.1)">
       <use xlink:href="#CMSY10-0" transform="scale(0.996264)"/>
       <use xlink:href="#CMR17-31" transform="translate(77.487468 0) scale(0.996264)"/>
       <use xlink:href="#CMR17-30" transform="translate(123.177945 0) scale(0.996264)"/>
      </g>
     </g>
    </g>
    <g id="ytick_3">
     <g id="line2d_65">
      <path d="M 38.774054 76.637023 
L 234.074054 76.637023 
" clip-path="url(#p9144e6c149)" style="fill: none; stroke-dasharray: 1.85,0.8; stroke-dashoffset: 0; stroke: #000000; stroke-opacity: 0.5; stroke-width: 0.5"/>
     </g>
     <g id="line2d_66">
      <g>
       <use xlink:href="#m961b0a2c62" x="38.774054" y="76.637023" style="stroke: #000000; stroke-width: 0.5"/>
      </g>
     </g>
     <g id="line2d_67">
      <g>
       <use xlink:href="#m97b7f62f5e" x="234.074054" y="76.637023" style="stroke: #000000; stroke-width: 0.5"/>
      </g>
     </g>
     <g id="text_10">
      <!-- $\mathdefault{0}$ -->
      <g transform="translate(30.292719 80.096272) scale(0.1 -0.1)">
       <use xlink:href="#CMR17-30" transform="scale(0.996264)"/>
      </g>
     </g>
    </g>
    <g id="ytick_4">
     <g id="line2d_68">
      <path d="M 38.774054 48.611142 
L 234.074054 48.611142 
" clip-path="url(#p9144e6c149)" style="fill: none; stroke-dasharray: 1.85,0.8; stroke-dashoffset: 0; stroke: #000000; stroke-opacity: 0.5; stroke-width: 0.5"/>
     </g>
     <g id="line2d_69">
      <g>
       <use xlink:href="#m961b0a2c62" x="38.774054" y="48.611142" style="stroke: #000000; stroke-width: 0.5"/>
      </g>
     </g>
     <g id="line2d_70">
      <g>
       <use xlink:href="#m97b7f62f5e" x="234.074054" y="48.611142" style="stroke: #000000; stroke-width: 0.5"/>
      </g>
     </g>
     <g id="text_11">
      <!-- $\mathdefault{10}$ -->
      <g transform="translate(25.311384 52.070391) scale(0.1 -0.1)">
       <use xlink:href="#CMR17-31" transform="scale(0.996264)"/>
       <use xlink:href="#CMR17-30" transform="translate(45.690477 0) scale(0.996264)"/>
      </g>
     </g>
    </g>
    <g id="ytick_5">
     <g id="line2d_71">
      <path d="M 38.774054 20.585261 
L 234.074054 20.585261 
" clip-path="url(#p9144e6c149)" style="fill: none; stroke-dasharray: 1.85,0.8; stroke-dashoffset: 0; stroke: #000000; stroke-opacity: 0.5; stroke-width: 0.5"/>
     </g>
     <g id="line2d_72">
      <g>
       <use xlink:href="#m961b0a2c62" x="38.774054" y="20.585261" style="stroke: #000000; stroke-width: 0.5"/>
      </g>
     </g>
     <g id="line2d_73">
      <g>
       <use xlink:href="#m97b7f62f5e" x="234.074054" y="20.585261" style="stroke: #000000; stroke-width: 0.5"/>
      </g>
     </g>
     <g id="text_12">
      <!-- $\mathdefault{20}$ -->
      <g transform="translate(25.311384 24.04451) scale(0.1 -0.1)">
       <use xlink:href="#CMR17-32" transform="scale(0.996264)"/>
       <use xlink:href="#CMR17-30" transform="translate(45.690477 0) scale(0.996264)"/>
      </g>
     </g>
    </g>
    <g id="ytick_6">
     <g id="line2d_74">
      <defs>
       <path id="m052c77ca53" d="M 0 0 
L 1.5 0 
" style="stroke: #000000; stroke-width: 0.5"/>
      </defs>
      <g>
       <use xlink:href="#m052c77ca53" x="38.774054" y="143.899137" style="stroke: #000000; stroke-width: 0.5"/>
      </g>
     </g>
     <g id="line2d_75">
      <defs>
       <path id="m1f40a5a85a" d="M 0 0 
L -1.5 0 
" style="stroke: #000000; stroke-width: 0.5"/>
      </defs>
      <g>
       <use xlink:href="#m1f40a5a85a" x="234.074054" y="143.899137" style="stroke: #000000; stroke-width: 0.5"/>
      </g>
     </g>
    </g>
    <g id="ytick_7">
     <g id="line2d_76">
      <g>
       <use xlink:href="#m052c77ca53" x="38.774054" y="138.293961" style="stroke: #000000; stroke-width: 0.5"/>
      </g>
     </g>
     <g id="line2d_77">
      <g>
       <use xlink:href="#m1f40a5a85a" x="234.074054" y="138.293961" style="stroke: #000000; stroke-width: 0.5"/>
      </g>
     </g>
    </g>
    <g id="ytick_8">
     <g id="line2d_78">
      <g>
       <use xlink:href="#m052c77ca53" x="38.774054" y="127.083608" style="stroke: #000000; stroke-width: 0.5"/>
      </g>
     </g>
     <g id="line2d_79">
      <g>
       <use xlink:href="#m1f40a5a85a" x="234.074054" y="127.083608" style="stroke: #000000; stroke-width: 0.5"/>
      </g>
     </g>
    </g>
    <g id="ytick_9">
     <g id="line2d_80">
      <g>
       <use xlink:href="#m052c77ca53" x="38.774054" y="121.478432" style="stroke: #000000; stroke-width: 0.5"/>
      </g>
     </g>
     <g id="line2d_81">
      <g>
       <use xlink:href="#m1f40a5a85a" x="234.074054" y="121.478432" style="stroke: #000000; stroke-width: 0.5"/>
      </g>
     </g>
    </g>
    <g id="ytick_10">
     <g id="line2d_82">
      <g>
       <use xlink:href="#m052c77ca53" x="38.774054" y="115.873256" style="stroke: #000000; stroke-width: 0.5"/>
      </g>
     </g>
     <g id="line2d_83">
      <g>
       <use xlink:href="#m1f40a5a85a" x="234.074054" y="115.873256" style="stroke: #000000; stroke-width: 0.5"/>
      </g>
     </g>
    </g>
    <g id="ytick_11">
     <g id="line2d_84">
      <g>
       <use xlink:href="#m052c77ca53" x="38.774054" y="110.26808" style="stroke: #000000; stroke-width: 0.5"/>
      </g>
     </g>
     <g id="line2d_85">
      <g>
       <use xlink:href="#m1f40a5a85a" x="234.074054" y="110.26808" style="stroke: #000000; stroke-width: 0.5"/>
      </g>
     </g>
    </g>
    <g id="ytick_12">
     <g id="line2d_86">
      <g>
       <use xlink:href="#m052c77ca53" x="38.774054" y="99.057727" style="stroke: #000000; stroke-width: 0.5"/>
      </g>
     </g>
     <g id="line2d_87">
      <g>
       <use xlink:href="#m1f40a5a85a" x="234.074054" y="99.057727" style="stroke: #000000; stroke-width: 0.5"/>
      </g>
     </g>
    </g>
    <g id="ytick_13">
     <g id="line2d_88">
      <g>
       <use xlink:href="#m052c77ca53" x="38.774054" y="93.452551" style="stroke: #000000; stroke-width: 0.5"/>
      </g>
     </g>
     <g id="line2d_89">
      <g>
       <use xlink:href="#m1f40a5a85a" x="234.074054" y="93.452551" style="stroke: #000000; stroke-width: 0.5"/>
      </g>
     </g>
    </g>
    <g id="ytick_14">
     <g id="line2d_90">
      <g>
       <use xlink:href="#m052c77ca53" x="38.774054" y="87.847375" style="stroke: #000000; stroke-width: 0.5"/>
      </g>
     </g>
     <g id="line2d_91">
      <g>
       <use xlink:href="#m1f40a5a85a" x="234.074054" y="87.847375" style="stroke: #000000; stroke-width: 0.5"/>
      </g>
     </g>
    </g>
    <g id="ytick_15">
     <g id="line2d_92">
      <g>
       <use xlink:href="#m052c77ca53" x="38.774054" y="82.242199" style="stroke: #000000; stroke-width: 0.5"/>
      </g>
     </g>
     <g id="line2d_93">
      <g>
       <use xlink:href="#m1f40a5a85a" x="234.074054" y="82.242199" style="stroke: #000000; stroke-width: 0.5"/>
      </g>
     </g>
    </g>
    <g id="ytick_16">
     <g id="line2d_94">
      <g>
       <use xlink:href="#m052c77ca53" x="38.774054" y="71.031846" style="stroke: #000000; stroke-width: 0.5"/>
      </g>
     </g>
     <g id="line2d_95">
      <g>
       <use xlink:href="#m1f40a5a85a" x="234.074054" y="71.031846" style="stroke: #000000; stroke-width: 0.5"/>
      </g>
     </g>
    </g>
    <g id="ytick_17">
     <g id="line2d_96">
      <g>
       <use xlink:href="#m052c77ca53" x="38.774054" y="65.42667" style="stroke: #000000; stroke-width: 0.5"/>
      </g>
     </g>
     <g id="line2d_97">
      <g>
       <use xlink:href="#m1f40a5a85a" x="234.074054" y="65.42667" style="stroke: #000000; stroke-width: 0.5"/>
      </g>
     </g>
    </g>
    <g id="ytick_18">
     <g id="line2d_98">
      <g>
       <use xlink:href="#m052c77ca53" x="38.774054" y="59.821494" style="stroke: #000000; stroke-width: 0.5"/>
      </g>
     </g>
     <g id="line2d_99">
      <g>
       <use xlink:href="#m1f40a5a85a" x="234.074054" y="59.821494" style="stroke: #000000; stroke-width: 0.5"/>
      </g>
     </g>
    </g>
    <g id="ytick_19">
     <g id="line2d_100">
      <g>
       <use xlink:href="#m052c77ca53" x="38.774054" y="54.216318" style="stroke: #000000; stroke-width: 0.5"/>
      </g>
     </g>
     <g id="line2d_101">
      <g>
       <use xlink:href="#m1f40a5a85a" x="234.074054" y="54.216318" style="stroke: #000000; stroke-width: 0.5"/>
      </g>
     </g>
    </g>
    <g id="ytick_20">
     <g id="line2d_102">
      <g>
       <use xlink:href="#m052c77ca53" x="38.774054" y="43.005965" style="stroke: #000000; stroke-width: 0.5"/>
      </g>
     </g>
     <g id="line2d_103">
      <g>
       <use xlink:href="#m1f40a5a85a" x="234.074054" y="43.005965" style="stroke: #000000; stroke-width: 0.5"/>
      </g>
     </g>
    </g>
    <g id="ytick_21">
     <g id="line2d_104">
      <g>
       <use xlink:href="#m052c77ca53" x="38.774054" y="37.400789" style="stroke: #000000; stroke-width: 0.5"/>
      </g>
     </g>
     <g id="line2d_105">
      <g>
       <use xlink:href="#m1f40a5a85a" x="234.074054" y="37.400789" style="stroke: #000000; stroke-width: 0.5"/>
      </g>
     </g>
    </g>
    <g id="ytick_22">
     <g id="line2d_106">
      <g>
       <use xlink:href="#m052c77ca53" x="38.774054" y="31.795613" style="stroke: #000000; stroke-width: 0.5"/>
      </g>
     </g>
     <g id="line2d_107">
      <g>
       <use xlink:href="#m1f40a5a85a" x="234.074054" y="31.795613" style="stroke: #000000; stroke-width: 0.5"/>
      </g>
     </g>
    </g>
    <g id="ytick_23">
     <g id="line2d_108">
      <g>
       <use xlink:href="#m052c77ca53" x="38.774054" y="26.190437" style="stroke: #000000; stroke-width: 0.5"/>
      </g>
     </g>
     <g id="line2d_109">
      <g>
       <use xlink:href="#m1f40a5a85a" x="234.074054" y="26.190437" style="stroke: #000000; stroke-width: 0.5"/>
      </g>
     </g>
    </g>
    <g id="ytick_24">
     <g id="line2d_110">
      <g>
       <use xlink:href="#m052c77ca53" x="38.774054" y="14.980084" style="stroke: #000000; stroke-width: 0.5"/>
      </g>
     </g>
     <g id="line2d_111">
      <g>
       <use xlink:href="#m1f40a5a85a" x="234.074054" y="14.980084" style="stroke: #000000; stroke-width: 0.5"/>
      </g>
     </g>
    </g>
    <g id="ytick_25">
     <g id="line2d_112">
      <g>
       <use xlink:href="#m052c77ca53" x="38.774054" y="9.374908" style="stroke: #000000; stroke-width: 0.5"/>
      </g>
     </g>
     <g id="line2d_113">
      <g>
       <use xlink:href="#m1f40a5a85a" x="234.074054" y="9.374908" style="stroke: #000000; stroke-width: 0.5"/>
      </g>
     </g>
    </g>
    <g id="ytick_26">
     <g id="line2d_114">
      <g>
       <use xlink:href="#m052c77ca53" x="38.774054" y="3.769732" style="stroke: #000000; stroke-width: 0.5"/>
      </g>
     </g>
     <g id="line2d_115">
      <g>
       <use xlink:href="#m1f40a5a85a" x="234.074054" y="3.769732" style="stroke: #000000; stroke-width: 0.5"/>
      </g>
     </g>
    </g>
    <g id="text_13">
     <!-- $\phi_{29}$ [mV] -->
     <g transform="translate(11.07198 95.868302) rotate(-90) scale(0.1 -0.1)">
      <defs>
       <path id="CMMI12-1e" d="M 2752 4390 
C 2752 4448 2707 4448 2688 4448 
C 2630 4448 2624 4435 2598 4326 
L 2253 2939 
C 2234 2856 2227 2849 2221 2843 
C 2214 2830 2170 2824 2157 2824 
C 1107 2734 301 1864 301 1057 
C 301 361 832 -64 1498 -64 
C 1446 -261 1402 -463 1350 -659 
C 1261 -995 1210 -1204 1210 -1229 
C 1210 -1241 1210 -1280 1274 -1280 
C 1293 -1280 1318 -1280 1331 -1254 
C 1344 -1241 1382 -1089 1408 -1008 
L 1645 -64 
C 2739 -64 3571 854 3571 1680 
C 3571 2343 3085 2816 2374 2816 
L 2752 4390 
z
M 2336 2701 
C 2758 2701 3181 2463 3181 1828 
C 3181 1097 2675 128 1677 50 
L 2336 2701 
z
M 1530 50 
C 1216 50 691 220 691 938 
C 691 1761 1274 2676 2195 2676 
L 1530 50 
z
" transform="scale(0.015625)"/>
       <path id="CMR17-39" d="M 2253 1864 
C 2253 464 1670 31 1190 31 
C 1043 31 685 31 538 294 
C 704 268 826 357 826 518 
C 826 692 685 749 595 749 
C 538 749 365 723 365 506 
C 365 71 742 -128 1203 -128 
C 1939 -128 2688 674 2688 2073 
C 2688 3817 1971 4179 1485 4179 
C 851 4179 243 3628 243 2778 
C 243 1991 762 1408 1414 1408 
C 1952 1408 2189 1903 2253 2112 
L 2253 1864 
z
M 1427 1510 
C 1254 1510 1011 1542 813 1922 
C 678 2169 678 2461 678 2771 
C 678 3146 678 3405 858 3684 
C 947 3817 1114 4032 1485 4032 
C 2240 4032 2240 2885 2240 2632 
C 2240 2182 2035 1510 1427 1510 
z
" transform="scale(0.015625)"/>
       <path id="CMR17-6d" d="M 4326 1933 
C 4326 2252 4269 2790 3507 2790 
C 3072 2790 2771 2496 2656 2151 
L 2650 2151 
C 2573 2676 2195 2790 1837 2790 
C 1331 2790 1069 2400 973 2144 
L 966 2144 
L 966 2790 
L 211 2720 
L 211 2554 
C 589 2554 646 2515 646 2208 
L 646 428 
C 646 184 621 153 211 153 
L 211 -13 
C 365 0 646 0 813 0 
C 979 0 1267 0 1421 -13 
L 1421 153 
C 1011 153 986 178 986 428 
L 986 1658 
C 986 2247 1344 2688 1792 2688 
C 2266 2688 2317 2266 2317 1958 
L 2317 428 
C 2317 184 2291 153 1882 153 
L 1882 -13 
C 2035 0 2317 0 2483 0 
C 2650 0 2938 0 3091 -13 
L 3091 153 
C 2682 153 2656 178 2656 428 
L 2656 1658 
C 2656 2247 3014 2688 3462 2688 
C 3936 2688 3987 2266 3987 1958 
L 3987 428 
C 3987 184 3962 153 3552 153 
L 3552 -13 
C 3706 0 3987 0 4154 0 
C 4320 0 4608 0 4762 -13 
L 4762 153 
C 4352 153 4326 178 4326 428 
L 4326 1933 
z
" transform="scale(0.015625)"/>
       <path id="CMR17-56" d="M 3776 3745 
C 3834 3886 3936 4160 4365 4160 
L 4365 4332 
C 4218 4319 4051 4319 3891 4319 
C 3738 4319 3475 4319 3328 4332 
L 3328 4160 
C 3648 4160 3661 3936 3661 3898 
C 3661 3827 3642 3783 3622 3732 
L 2362 446 
L 1043 3886 
C 1024 3931 1011 3963 1011 3994 
C 1011 4160 1267 4160 1402 4160 
L 1402 4319 
C 1197 4319 896 4319 685 4319 
C 518 4319 218 4319 64 4332 
L 64 4160 
C 435 4160 506 4135 582 3931 
L 2106 -26 
C 2138 -115 2144 -128 2214 -128 
C 2285 -128 2291 -115 2323 -26 
L 3776 3745 
z
" transform="scale(0.015625)"/>
      </defs>
      <use xlink:href="#CMMI12-1e" transform="scale(0.996264)"/>
      <use xlink:href="#CMR17-32" transform="translate(57.73418 -14.943915) scale(0.697382)"/>
      <use xlink:href="#CMR17-39" transform="translate(89.717362 -14.943915) scale(0.697382)"/>
      <use xlink:href="#CMR17-5b" transform="translate(152.274643 0) scale(0.996264)"/>
      <use xlink:href="#CMR17-6d" transform="translate(177.145701 0) scale(0.996264)"/>
      <use xlink:href="#CMR17-56" transform="translate(254.065291 0) scale(0.996264)"/>
      <use xlink:href="#CMR17-5d" transform="translate(323.137721 0) scale(0.996264)"/>
     </g>
    </g>
   </g>
   <g id="line2d_116">
    <path d="M 38.774054 135.651053 
L 38.852174 136.143571 
L 38.930294 135.356021 
L 38.969354 135.745179 
L 39.164654 138.228015 
L 39.281834 139.548003 
L 39.477134 138.458667 
L 39.516194 138.492968 
L 39.750554 139.968963 
L 39.789614 139.424401 
L 39.867734 139.87052 
L 39.906794 139.755414 
L 39.984914 140.928131 
L 40.023974 140.262087 
L 40.063034 139.732505 
L 40.102094 140.429926 
L 40.141154 139.977216 
L 40.180214 139.814924 
L 40.219274 139.998109 
L 40.297394 141.670423 
L 40.375514 141.436684 
L 40.414574 141.798891 
L 40.531754 139.840483 
L 40.570814 140.021655 
L 40.648934 140.277128 
L 40.687994 140.61376 
L 40.844234 138.522119 
L 40.883294 138.757467 
L 40.922354 139.433603 
L 40.961414 139.241383 
L 41.039534 138.648844 
L 41.156714 140.514782 
L 41.195774 139.78083 
L 41.234834 139.82059 
L 41.352014 138.999411 
L 41.430134 140.159218 
L 41.547314 139.754748 
L 41.781674 137.954958 
L 41.820734 138.359477 
L 41.859794 137.851384 
L 41.937914 137.900924 
L 41.976974 137.385456 
L 42.016034 137.52203 
L 42.094154 138.479329 
L 42.133214 137.894771 
L 42.172274 137.743587 
L 42.211334 136.99582 
L 42.289454 137.409043 
L 42.328514 137.383168 
L 42.367574 137.490417 
L 42.445694 138.306024 
L 42.484754 137.798105 
L 42.601934 136.80046 
L 42.680054 137.43157 
L 42.875354 135.730912 
L 42.953474 136.401554 
L 42.992534 136.260936 
L 43.031594 135.861922 
L 43.070654 136.232961 
L 43.109714 136.577063 
L 43.148774 136.176089 
L 43.265954 134.533672 
L 43.305014 134.831183 
L 43.344074 135.062841 
L 43.461254 133.912734 
L 43.539374 134.002975 
L 43.578434 133.828635 
L 43.617494 134.217466 
L 43.656554 134.067601 
L 43.695614 133.344998 
L 43.734674 133.550845 
L 43.812794 134.070482 
L 43.851854 133.919762 
L 43.969034 132.617663 
L 44.008094 132.743892 
L 44.047154 132.939632 
L 44.086214 132.654249 
L 44.203394 131.017116 
L 44.242454 131.451818 
L 44.281514 131.42412 
L 44.437754 129.949937 
L 44.476814 130.170916 
L 44.515874 130.41071 
L 44.554934 130.07753 
L 44.750234 129.537373 
L 44.945534 127.546086 
L 45.140834 126.153814 
L 45.297074 125.198856 
L 45.531434 121.284159 
L 45.609554 121.418636 
L 46.000154 118.207383 
L 46.117334 118.812976 
L 46.703234 113.060709 
L 47.054774 109.932584 
L 47.132894 110.5111 
L 47.367254 109.750791 
L 47.406314 108.618358 
L 47.484434 108.953336 
L 47.523494 108.786774 
L 47.757854 105.192481 
L 47.835974 104.118925 
L 47.875034 104.86901 
L 47.914094 104.888132 
L 48.031274 102.902054 
L 48.070334 103.042746 
L 48.343754 101.984902 
L 48.539054 98.858518 
L 48.578114 98.918666 
L 48.812474 95.498522 
L 48.890594 94.267112 
L 49.085894 91.819047 
L 49.359314 88.378774 
L 49.554614 84.449404 
L 49.710854 83.074504 
L 49.749914 83.253781 
L 50.023334 78.06386 
L 50.335814 72.254975 
L 50.374874 72.201176 
L 50.648294 66.210532 
L 50.804534 63.519982 
L 50.882654 62.147319 
L 51.038894 59.674817 
L 51.077954 59.755333 
L 51.117014 59.83898 
L 51.429494 54.559232 
L 51.507614 53.133601 
L 51.624794 49.586696 
L 51.663854 50.22732 
L 51.702914 50.786744 
L 51.781034 50.744546 
L 51.937274 49.338879 
L 51.976334 50.01514 
L 52.015394 49.227439 
L 52.327874 46.164026 
L 52.484114 44.537565 
L 52.679414 42.470389 
L 52.796594 40.950552 
L 52.874714 41.425051 
L 52.991894 42.14248 
L 53.538734 37.577658 
L 53.577794 38.658093 
L 53.655914 38.251827 
L 53.812154 36.452282 
L 53.851214 36.632665 
L 53.890274 36.472996 
L 54.046514 34.852339 
L 54.085574 35.440607 
L 54.319934 34.506657 
L 54.358994 34.62286 
L 54.398054 33.929244 
L 54.437114 34.128177 
L 54.554294 34.927857 
L 54.827714 32.704737 
L 54.905834 33.00377 
L 54.983954 31.96661 
L 55.023014 32.403815 
L 55.062074 32.369298 
L 55.140194 30.85793 
L 55.179254 30.921122 
L 55.335494 31.99923 
L 55.374554 32.17724 
L 55.452674 29.174172 
L 55.530794 29.196783 
L 55.687034 27.769332 
L 55.726094 27.81624 
L 55.882334 26.667542 
L 55.999514 26.277581 
L 56.116694 24.806282 
L 56.194814 25.025095 
L 56.233874 25.130341 
L 56.272934 24.993686 
L 56.311994 25.68993 
L 56.351054 24.82756 
L 56.390114 24.922814 
L 56.702594 22.270895 
L 56.741654 22.564704 
L 56.819774 21.680451 
L 56.936954 21.83484 
L 57.054134 22.057988 
L 57.171314 21.974142 
L 57.366614 19.778416 
L 57.405674 19.879989 
L 57.522854 19.230061 
L 57.679094 20.110614 
L 57.757214 19.58425 
L 57.796274 19.825719 
L 57.835334 19.663449 
L 57.952514 18.59425 
L 57.991574 18.941308 
L 58.147814 18.012708 
L 58.225934 17.191868 
L 58.343114 16.052273 
L 58.382174 16.137023 
L 58.421234 16.191697 
L 58.538414 14.379589 
L 58.577474 14.709507 
L 58.772774 16.360537 
L 58.811834 15.664393 
L 58.850894 15.235121 
L 58.889954 15.566612 
L 59.007134 16.044869 
L 59.046194 15.934649 
L 59.085254 15.077203 
L 59.163374 15.565641 
L 59.202434 15.957575 
L 59.241494 15.37155 
L 59.358674 15.776824 
L 59.514914 14.577376 
L 59.749274 15.394383 
L 59.788334 15.375943 
L 59.866454 14.837221 
L 59.944574 14.987775 
L 60.022694 13.722626 
L 60.061754 13.866986 
L 60.100814 14.454776 
L 60.139874 13.622009 
L 60.178934 12.988416 
L 60.257054 13.242717 
L 60.296114 13.307576 
L 60.413294 14.953925 
L 60.452354 14.837907 
L 60.647654 13.481603 
L 60.764834 13.887433 
L 60.999194 12.925786 
L 61.038254 13.297668 
L 61.116374 13.281341 
L 61.233554 12.82868 
L 61.311674 14.00861 
L 61.350734 13.872625 
L 61.389794 13.320473 
L 61.428854 14.086503 
L 61.506974 14.025387 
L 61.624154 14.877567 
L 61.702274 14.637776 
L 61.741334 15.170247 
L 61.819454 14.879215 
L 61.858514 14.674663 
L 61.897574 14.686956 
L 61.975694 15.991931 
L 62.014754 15.320593 
L 62.053814 15.280618 
L 62.092874 15.477999 
L 62.170994 14.299714 
L 62.210054 14.824036 
L 62.483474 16.393714 
L 62.561594 16.768876 
L 62.678774 17.86935 
L 62.795954 16.621412 
L 62.835014 16.65545 
L 63.186554 20.29316 
L 63.342794 19.387448 
L 63.459974 20.72348 
L 63.499034 20.499416 
L 63.538094 20.679312 
L 63.694334 22.649397 
L 63.733394 22.284479 
L 63.850574 23.050339 
L 63.928694 23.014163 
L 63.967754 23.069295 
L 64.006814 22.982053 
L 64.163054 24.831444 
L 64.436474 27.255417 
L 64.592714 26.607422 
L 64.631774 26.651816 
L 64.670834 26.641502 
L 64.866134 28.269644 
L 64.905194 28.26262 
L 65.061434 29.709903 
L 65.139554 29.910734 
L 65.178614 29.566987 
L 65.491094 35.106317 
L 65.530154 34.234269 
L 65.569214 35.13664 
L 65.608274 35.34647 
L 65.725454 36.697148 
L 65.764514 36.62132 
L 66.428534 43.731047 
L 66.467594 43.702189 
L 66.584774 43.432737 
L 66.701954 41.198788 
L 66.741014 41.677544 
L 66.819134 43.396889 
L 66.897254 43.180989 
L 67.053494 44.297459 
L 67.092554 45.163403 
L 67.170674 44.726842 
L 67.248794 45.214374 
L 67.483154 47.449448 
L 67.678454 49.767569 
L 68.147174 55.800985 
L 68.186234 55.67286 
L 68.381534 57.138185 
L 68.615894 61.070174 
L 68.772134 64.110855 
L 68.967434 68.049384 
L 69.318974 72.824866 
L 69.553334 76.63413 
L 69.670514 78.30479 
L 69.709574 78.169883 
L 69.787694 78.976328 
L 70.061114 87.088601 
L 70.217354 88.827586 
L 70.256414 88.489344 
L 70.373594 90.086843 
L 70.764194 96.767514 
L 71.076674 102.672147 
L 71.115734 102.008351 
L 71.193854 101.859116 
L 71.232914 101.613548 
L 71.428214 104.406458 
L 71.467274 104.475972 
L 71.584454 104.931816 
L 71.623514 104.701389 
L 71.662574 106.472084 
L 71.740694 105.819564 
L 72.131294 110.011017 
L 72.209414 108.797999 
L 72.248474 109.10104 
L 72.521894 112.894854 
L 72.678134 111.188819 
L 72.717194 111.66559 
L 72.912494 113.769703 
L 73.029674 113.552341 
L 73.068734 113.693285 
L 73.107794 113.368032 
L 73.185914 113.302896 
L 73.420274 117.53838 
L 73.459334 117.094167 
L 73.498394 117.490798 
L 73.576514 118.71601 
L 73.615574 118.234702 
L 73.732754 118.003038 
L 73.771814 118.10295 
L 73.967114 120.140234 
L 74.006174 119.913119 
L 74.045234 119.338869 
L 74.084294 119.719893 
L 74.201474 120.538421 
L 74.240534 120.117618 
L 74.279594 120.610912 
L 74.318654 120.666332 
L 74.357714 120.527136 
L 74.709254 122.915918 
L 74.748314 122.497779 
L 74.787374 123.098913 
L 74.865494 124.244519 
L 74.904554 123.905462 
L 74.943614 123.492634 
L 74.982674 124.207255 
L 75.021734 125.280678 
L 75.099854 125.023687 
L 75.177974 124.715722 
L 75.217034 124.813026 
L 75.295154 125.380791 
L 75.334214 125.277984 
L 75.373274 125.174652 
L 75.412334 125.253494 
L 75.568574 126.641449 
L 75.607634 126.457702 
L 75.763874 128.004106 
L 75.802934 127.573933 
L 75.841994 127.671063 
L 75.998234 129.634946 
L 76.076354 129.403772 
L 76.115414 129.340346 
L 76.154474 129.47249 
L 76.193534 129.909347 
L 76.271654 129.898371 
L 76.310714 129.448879 
L 76.349774 129.792671 
L 76.623194 132.842085 
L 76.662254 132.922871 
L 76.701314 132.369775 
L 76.740374 133.038576 
L 76.779434 132.555042 
L 76.818494 132.311598 
L 76.857554 132.456614 
L 77.013794 133.335234 
L 77.130974 132.709198 
L 77.170034 133.153147 
L 77.209094 133.870618 
L 77.248154 132.987151 
L 77.326274 132.879621 
L 77.404394 133.393801 
L 77.443454 132.975605 
L 77.521574 133.17837 
L 77.716874 135.96464 
L 77.755934 135.766495 
L 77.873114 136.793972 
L 77.912174 136.484023 
L 77.951234 136.410738 
L 78.107474 137.575198 
L 78.263714 136.458963 
L 78.341834 136.250978 
L 78.537134 137.351109 
L 78.576194 137.210395 
L 78.615254 137.267726 
L 78.849614 140.248102 
L 78.888674 140.033514 
L 78.966794 140.656756 
L 79.005854 140.165769 
L 79.044914 140.30017 
L 79.083974 140.852804 
L 79.162094 140.573561 
L 79.201154 140.400086 
L 79.279274 139.326085 
L 79.435514 140.899424 
L 79.474574 140.816566 
L 79.669874 139.387339 
L 79.865174 141.462152 
L 79.904234 141.020257 
L 79.943294 140.589882 
L 79.982354 141.062847 
L 80.021414 141.557248 
L 80.060474 141.471442 
L 80.255774 139.302832 
L 80.372954 140.6525 
L 80.412014 140.469674 
L 80.607314 138.532141 
L 80.646374 138.769707 
L 80.724494 138.710741 
L 80.763554 138.189906 
L 80.802614 138.432368 
L 80.919794 139.690136 
L 80.958854 139.634769 
L 80.997914 138.488916 
L 81.076034 138.649145 
L 81.193214 139.000558 
L 81.232274 138.894499 
L 81.271334 138.808468 
L 81.505694 139.845626 
L 81.818174 136.709016 
L 81.974414 137.725367 
L 82.325954 135.49684 
L 82.443134 135.937445 
L 82.521254 136.035986 
L 82.716554 134.922372 
L 82.755614 135.177962 
L 82.950914 133.595843 
L 83.107154 132.487978 
L 83.263394 132.642607 
L 83.302454 132.75882 
L 83.732114 127.35681 
L 83.810234 127.595037 
L 83.888354 127.766065 
L 83.966474 127.184799 
L 84.005534 127.291353 
L 84.278954 124.74235 
L 84.318014 124.733183 
L 84.357074 124.484139 
L 84.435194 125.637 
L 84.513314 125.364682 
L 84.708614 123.314365 
L 84.825794 123.382762 
L 85.021094 120.097969 
L 85.216394 118.497375 
L 85.255454 118.438748 
L 85.489814 115.165489 
L 85.528874 115.349241 
L 85.880414 111.51669 
L 85.919474 111.991855 
L 85.997594 112.647259 
L 86.036654 112.041587 
L 86.075714 111.869642 
L 86.231954 110.306717 
L 86.310074 110.392944 
L 86.349134 109.701381 
L 86.388194 110.153387 
L 86.427254 110.533889 
L 86.466314 110.138494 
L 86.622554 108.943957 
L 86.661614 108.97201 
L 86.895974 106.271465 
L 87.052214 104.067353 
L 87.091274 104.024338 
L 87.247514 102.675159 
L 87.286574 102.806535 
L 87.442814 100.542656 
L 87.481874 100.048548 
L 87.559994 100.36687 
L 87.599054 100.325127 
L 87.677174 100.590167 
L 88.341194 89.180439 
L 88.536494 86.69407 
L 88.848974 81.79116 
L 89.005214 78.39739 
L 89.200514 75.385093 
L 89.395814 71.542348 
L 89.669234 67.16757 
L 89.708294 66.981151 
L 90.294194 56.379826 
L 90.333254 56.608123 
L 90.372314 56.557219 
L 90.880094 48.156103 
L 90.919154 49.081012 
L 90.958214 48.057425 
L 90.997274 48.196627 
L 91.114454 45.932691 
L 91.192574 47.010998 
L 91.387874 45.728687 
L 91.544114 43.508972 
L 91.583174 44.31357 
L 91.622234 44.129143 
L 91.739414 42.558673 
L 91.778474 43.632156 
L 91.856594 43.575862 
L 91.934714 42.693574 
L 91.973774 42.715414 
L 92.169074 39.77134 
L 92.364374 38.567989 
L 92.520614 40.280924 
L 92.715914 38.380359 
L 92.794034 39.75109 
L 92.833094 38.885218 
L 93.418994 32.870889 
L 93.497114 33.357422 
L 93.614294 31.715586 
L 93.653354 31.782647 
L 93.692414 32.282583 
L 93.731474 31.807498 
L 93.770534 31.662121 
L 93.848654 32.091879 
L 93.926774 30.920321 
L 93.965834 31.103861 
L 94.083014 32.849957 
L 94.239254 32.772231 
L 94.278314 32.79478 
L 94.512674 30.238885 
L 94.747034 27.817365 
L 94.786094 27.622543 
L 94.864214 27.675536 
L 94.903274 28.053067 
L 95.098574 25.527484 
L 95.137634 25.69446 
L 95.176694 25.749292 
L 95.293874 27.299019 
L 95.332934 26.437051 
L 95.411054 25.936858 
L 95.450114 26.480228 
L 95.528234 26.32365 
L 95.801654 24.100238 
L 95.840714 24.105647 
L 95.918834 22.833132 
L 95.996954 23.230475 
L 96.036014 23.41473 
L 96.075074 23.357035 
L 96.231314 21.298213 
L 96.270374 21.790898 
L 96.309434 21.27245 
L 96.348494 21.41786 
L 96.387554 21.440568 
L 96.700034 18.804671 
L 96.778154 19.109252 
L 96.856274 18.493914 
L 96.895334 19.05137 
L 96.934394 19.528066 
L 97.012514 19.460901 
L 97.168754 17.713748 
L 97.207814 17.986077 
L 97.246874 18.321862 
L 97.285934 18.096346 
L 97.403114 16.860991 
L 97.442174 16.372614 
L 97.520294 16.698873 
L 97.559354 16.758098 
L 97.637474 17.310089 
L 97.676534 16.561066 
L 97.754654 17.133285 
L 97.793714 17.162682 
L 97.910894 16.135705 
L 97.989014 15.680271 
L 98.028074 16.066278 
L 98.067134 16.443017 
L 98.106194 16.117667 
L 98.145254 15.652519 
L 98.184314 15.904175 
L 98.418674 17.169858 
L 98.457734 16.881108 
L 98.496794 16.052576 
L 98.574914 16.561678 
L 98.613974 16.616438 
L 98.770214 15.553979 
L 98.809274 15.569948 
L 98.848334 15.49555 
L 99.004574 14.427151 
L 99.121754 14.849936 
L 99.434234 11.47025 
L 99.473294 11.744922 
L 99.551414 12.243893 
L 99.590474 11.641793 
L 99.668594 12.15062 
L 99.746714 12.112848 
L 99.785774 12.551753 
L 99.863894 12.040757 
L 99.942014 12.09005 
L 100.059194 13.301442 
L 100.098254 12.855991 
L 100.137314 12.382229 
L 100.176374 12.436804 
L 100.371674 14.029785 
L 100.449794 13.179264 
L 100.527914 13.648262 
L 100.645094 14.963325 
L 100.684154 14.623831 
L 100.723214 14.67691 
L 100.762274 14.580882 
L 100.801334 14.192491 
L 100.840394 14.79879 
L 100.996634 15.439148 
L 101.074754 15.132978 
L 101.113814 15.995334 
L 101.191934 15.686384 
L 101.230994 16.069102 
L 101.270054 15.956736 
L 101.387234 15.193414 
L 101.465354 16.245456 
L 101.504414 15.761094 
L 101.543474 15.793521 
L 101.621594 16.288518 
L 101.660654 16.165896 
L 101.699714 15.688815 
L 101.738774 16.132921 
L 102.051254 17.140649 
L 102.168434 18.344913 
L 102.207494 18.022028 
L 102.246554 18.410033 
L 102.363734 19.595042 
L 102.402794 19.219357 
L 102.637154 20.979634 
L 102.754334 21.565462 
L 102.793394 21.376461 
L 102.832454 21.356636 
L 103.105874 23.605095 
L 103.144934 23.383579 
L 103.183994 23.263623 
L 103.223054 23.412753 
L 103.379294 25.260282 
L 103.652714 28.216557 
L 103.730834 28.031013 
L 104.472974 34.860287 
L 104.512034 34.625847 
L 104.551094 34.093922 
L 104.590154 34.795823 
L 104.668274 35.141442 
L 104.707334 35.035884 
L 104.863574 37.203286 
L 104.941694 36.585352 
L 104.980754 36.636571 
L 105.176054 38.941752 
L 105.215114 38.834691 
L 105.293234 38.859016 
L 105.605714 42.213911 
L 105.644774 42.063055 
L 105.683834 42.078059 
L 105.722894 41.75509 
L 105.761954 41.849959 
L 105.918194 44.412007 
L 106.230674 48.303684 
L 106.269734 47.857437 
L 106.347854 47.951789 
L 106.386914 47.638371 
L 106.660334 51.13301 
L 106.738454 50.616366 
L 106.816574 50.375204 
L 106.933754 51.068306 
L 106.972814 50.937116 
L 107.519654 58.10123 
L 107.558714 58.183723 
L 107.871194 64.725862 
L 107.949314 66.39421 
L 108.144614 68.906147 
L 108.183674 68.744948 
L 108.418034 72.061941 
L 109.707014 96.931046 
L 109.785134 96.455332 
L 110.058554 100.878883 
L 110.253854 103.816629 
L 110.292914 103.586126 
L 110.449154 105.441517 
L 110.488214 105.454533 
L 110.644454 107.374841 
L 110.722574 106.150782 
L 110.917874 110.184809 
L 110.956934 110.184942 
L 111.074114 106.920265 
L 111.191294 107.183773 
L 111.386594 111.344047 
L 111.425654 110.829077 
L 111.464714 111.710819 
L 111.699074 114.357001 
L 111.777194 113.588484 
L 111.855314 112.723453 
L 111.933434 113.11296 
L 112.011554 115.194252 
L 112.089674 114.440862 
L 112.128734 114.377692 
L 112.167794 113.656604 
L 112.206854 114.516506 
L 112.363094 115.442803 
L 112.402154 115.479624 
L 112.480274 114.7401 
L 112.597454 117.224556 
L 112.675574 117.076498 
L 112.831814 118.398992 
L 112.870874 118.380834 
L 112.909934 117.969707 
L 112.988054 118.100765 
L 113.027114 119.123385 
L 113.105234 118.546614 
L 113.378654 121.436522 
L 113.495834 121.053824 
L 113.691134 123.701157 
L 113.808314 124.549928 
L 113.925494 123.12953 
L 113.964554 123.875734 
L 114.003614 123.678171 
L 114.042674 123.046182 
L 114.081734 123.770624 
L 114.159854 124.062158 
L 114.198914 123.743826 
L 114.237974 124.092919 
L 114.472334 126.996923 
L 114.511394 126.913747 
L 114.589514 128.105933 
L 114.628574 127.301681 
L 114.667634 126.330691 
L 114.706694 126.675373 
L 114.862934 128.798212 
L 114.901994 128.96367 
L 114.941054 128.742776 
L 114.980114 128.371462 
L 115.175414 130.029137 
L 115.605074 132.428648 
L 115.644134 131.972161 
L 115.722254 131.378276 
L 115.761314 131.778486 
L 116.034734 135.160389 
L 116.073794 134.773206 
L 116.190974 133.053716 
L 116.230034 133.560156 
L 116.386274 134.669597 
L 116.503454 134.283983 
L 116.581574 136.426544 
L 116.620634 136.287331 
L 116.659694 135.618952 
L 116.698754 136.305523 
L 116.737814 136.378632 
L 116.933114 137.59996 
L 117.128414 136.30191 
L 117.167474 136.906538 
L 117.362774 138.639655 
L 117.440894 138.321996 
L 117.558074 138.649714 
L 117.714314 137.854824 
L 117.753374 138.331424 
L 117.792434 137.831969 
L 117.831494 138.082074 
L 118.065854 139.819858 
L 118.104914 139.578335 
L 118.183034 139.322491 
L 118.222094 139.454716 
L 118.651754 141.666358 
L 118.300214 139.395086 
L 118.690814 141.605721 
L 118.807994 139.961849 
L 118.847054 140.148531 
L 118.925174 140.836692 
L 118.964234 140.237269 
L 119.003294 139.904929 
L 119.042354 140.534732 
L 119.120474 140.432954 
L 119.198594 140.229766 
L 119.237654 139.623706 
L 119.315774 140.044536 
L 119.354834 140.367279 
L 119.393894 140.124036 
L 119.432954 139.567899 
L 119.472014 140.248928 
L 119.511074 140.397714 
L 119.550134 139.7222 
L 119.628254 140.032204 
L 119.667314 140.456523 
L 119.706374 140.393018 
L 119.862614 138.71374 
L 119.940734 138.885913 
L 119.979794 138.915714 
L 120.057914 139.874188 
L 120.096974 139.58899 
L 120.214154 137.919567 
L 120.253214 138.213365 
L 120.292274 139.152785 
L 120.370394 139.045858 
L 120.448514 139.019791 
L 120.526634 138.674559 
L 120.565694 138.900374 
L 120.604754 138.967517 
L 120.682874 138.088491 
L 120.995354 136.226082 
L 121.034414 136.242905 
L 121.073474 137.074651 
L 121.151594 136.741681 
L 121.190654 137.077419 
L 121.229714 136.916505 
L 121.698434 133.999345 
L 121.737494 134.339079 
L 121.776554 134.32725 
L 122.128094 132.114258 
L 122.167154 132.334579 
L 122.362454 131.262685 
L 122.518694 130.201138 
L 122.557754 130.886883 
L 122.596814 130.827122 
L 122.674934 129.913268 
L 122.713994 130.383036 
L 122.792114 130.590341 
L 123.807674 121.827248 
L 123.846734 121.795597 
L 124.002974 120.576537 
L 124.237334 116.930622 
L 124.354514 115.461968 
L 124.432634 115.759739 
L 124.549814 115.516906 
L 124.588874 115.864692 
L 124.627934 115.413264 
L 124.940414 111.445179 
L 124.979474 112.207165 
L 125.018534 111.931876 
L 125.174774 110.928454 
L 125.370074 109.172996 
L 125.409134 108.029698 
L 125.487254 108.469013 
L 125.526314 108.323164 
L 125.565374 108.639456 
L 125.604434 108.157326 
L 125.955974 105.168624 
L 125.995034 105.206754 
L 126.112214 103.831469 
L 126.229394 102.434526 
L 126.268454 102.47772 
L 126.385634 102.297585 
L 126.502814 100.861154 
L 126.659054 99.970747 
L 126.698114 100.03934 
L 127.205894 90.854123 
L 127.284014 91.928406 
L 127.596494 86.418071 
L 127.713674 84.302947 
L 127.908974 81.137716 
L 127.987094 79.452258 
L 128.182394 76.829361 
L 128.221454 77.762613 
L 128.260514 77.06392 
L 129.002654 61.225895 
L 129.276074 58.0151 
L 129.549494 53.203477 
L 129.588554 53.719609 
L 129.627614 53.118619 
L 129.705734 51.858215 
L 129.861974 50.179764 
L 129.940094 50.405386 
L 130.096334 46.185994 
L 130.174454 46.663299 
L 130.252574 46.95967 
L 130.330694 46.07463 
L 130.369754 46.545505 
L 130.408814 46.568494 
L 130.604114 42.817937 
L 130.799414 45.724014 
L 131.150954 40.551687 
L 131.190014 41.126043 
L 131.229074 40.598212 
L 131.268134 40.631873 
L 131.307194 40.58273 
L 131.541554 38.138671 
L 131.580614 38.678879 
L 131.619674 38.921089 
L 131.658734 38.879974 
L 131.775914 37.443584 
L 131.814974 37.895325 
L 131.893094 38.667663 
L 131.932154 38.107541 
L 132.283694 34.952207 
L 132.361814 35.419675 
L 132.400874 35.387713 
L 132.635234 32.673108 
L 132.674294 32.611988 
L 132.830534 33.926656 
L 133.025834 31.439944 
L 133.064894 31.724983 
L 133.143014 31.690608 
L 133.299254 30.729434 
L 133.338314 30.829012 
L 133.455494 29.21712 
L 133.494554 29.911925 
L 133.533614 30.093244 
L 133.728914 28.888688 
L 133.807034 28.943106 
L 133.885154 27.984992 
L 133.924214 28.60925 
L 134.158574 27.309654 
L 134.275754 27.365904 
L 134.314814 27.563056 
L 134.392934 25.440923 
L 134.471054 25.647892 
L 134.510114 25.589687 
L 134.822594 22.504326 
L 134.900714 22.586045 
L 134.939774 22.962501 
L 134.978834 22.905491 
L 135.096014 21.539978 
L 135.135074 21.791476 
L 135.213194 21.299034 
L 135.408494 20.191987 
L 135.447554 20.488312 
L 135.564734 18.908164 
L 135.603794 19.994492 
L 135.681914 19.284134 
L 135.720974 18.275931 
L 135.799094 18.448362 
L 136.033454 20.080727 
L 136.111574 19.054242 
L 136.150634 19.258414 
L 136.189694 19.180313 
L 136.306874 17.733506 
L 136.345934 18.236291 
L 136.384994 18.641893 
L 136.424054 18.182289 
L 136.502174 17.519527 
L 136.541234 17.640774 
L 136.580294 17.756519 
L 136.619354 17.556714 
L 136.775594 16.566736 
L 136.892774 17.10361 
L 136.970894 16.11018 
L 137.009954 15.469226 
L 137.088074 15.567944 
L 137.127134 15.630445 
L 137.322434 14.631985 
L 137.439614 12.621366 
L 137.478674 13.360754 
L 137.595854 13.186406 
L 137.634914 13.69258 
L 137.713034 13.596863 
L 137.752094 13.535001 
L 137.791154 13.997556 
L 137.830214 13.780013 
L 137.869274 13.370749 
L 137.947394 13.637119 
L 137.986454 13.714427 
L 138.064574 13.226377 
L 138.103634 13.816701 
L 138.181754 13.505277 
L 138.220814 13.540204 
L 138.259874 14.225179 
L 138.337994 13.75846 
L 138.377054 13.163738 
L 138.455174 13.449039 
L 138.494234 13.275152 
L 138.650474 14.465665 
L 138.689534 13.714366 
L 138.728594 13.861868 
L 138.845774 14.765825 
L 138.884834 14.090749 
L 138.923894 14.291644 
L 139.080134 15.494781 
L 139.275434 14.218341 
L 139.314494 13.819194 
L 139.353554 14.070398 
L 139.470734 16.063524 
L 139.509794 15.353496 
L 139.548854 14.984885 
L 139.587914 15.364312 
L 139.705094 16.32348 
L 139.861334 14.593681 
L 139.978514 15.530783 
L 140.017574 15.198668 
L 140.212874 14.20354 
L 140.251934 14.511931 
L 140.290994 14.692919 
L 140.330054 14.467712 
L 140.369114 14.358459 
L 140.447234 15.244157 
L 140.486294 14.961484 
L 140.994074 17.856912 
L 141.033134 17.725694 
L 141.072194 18.214399 
L 141.111254 18.074546 
L 141.150314 17.764588 
L 141.189374 18.254633 
L 141.267494 19.07306 
L 141.306554 19.290586 
L 141.345614 18.964593 
L 141.384674 18.932465 
L 141.970574 22.653937 
L 142.165874 24.025855 
L 142.478354 26.840235 
L 142.517414 26.231002 
L 142.556474 26.401305 
L 142.790834 27.726922 
L 142.868954 27.648958 
L 142.986134 28.825113 
L 143.025194 28.802787 
L 143.220494 30.911651 
L 143.298614 30.706032 
L 143.337674 30.878247 
L 143.611094 34.140704 
L 143.689214 33.827689 
L 143.728274 34.015064 
L 143.962634 37.125536 
L 144.001694 36.997757 
L 144.118874 39.584824 
L 144.157934 38.88722 
L 144.704774 44.515149 
L 144.743834 44.277466 
L 144.861014 42.722132 
L 144.900074 42.813856 
L 145.134434 46.241608 
L 145.329734 48.136253 
L 145.368794 47.559057 
L 145.407854 47.237225 
L 145.446914 47.501839 
L 145.485974 47.66347 
L 145.642214 48.849556 
L 145.993754 51.27587 
L 146.032814 50.565488 
L 146.071874 51.469132 
L 147.595214 74.345728 
L 147.634274 74.458486 
L 147.712394 75.913275 
L 147.946754 81.379098 
L 148.142054 83.991054 
L 148.337354 88.621185 
L 148.493594 90.066002 
L 148.806074 95.154054 
L 149.196674 102.245165 
L 149.235734 102.347469 
L 149.548214 105.704494 
L 149.587274 105.07588 
L 149.626334 105.481144 
L 149.665394 105.689986 
L 149.821634 103.362783 
L 149.860694 103.646797 
L 150.055994 107.763622 
L 150.095054 107.224939 
L 150.134114 107.038558 
L 150.251294 109.776016 
L 150.329414 111.776973 
L 150.368474 111.013653 
L 150.407534 110.893617 
L 150.485654 109.225112 
L 150.524714 109.721318 
L 150.759074 112.437844 
L 150.837194 111.836279 
L 150.993434 113.044482 
L 151.032494 112.942624 
L 151.188734 114.799687 
L 151.227794 114.543244 
L 151.462154 116.829444 
L 151.501214 116.845784 
L 151.540274 117.574684 
L 151.618394 117.458972 
L 151.813694 115.61758 
L 152.087114 118.112119 
L 152.126174 118.05828 
L 152.321474 120.675343 
L 152.516774 121.618963 
L 152.594894 123.222917 
L 152.633954 123.130316 
L 152.673014 123.052257 
L 152.829254 121.284346 
L 152.907374 122.793529 
L 152.946434 122.216108 
L 153.024554 121.666545 
L 153.297974 125.022035 
L 153.337034 124.848174 
L 153.415154 124.901878 
L 153.571394 127.60321 
L 153.688574 127.428498 
L 153.727634 126.479438 
L 153.766694 127.047624 
L 153.844814 128.246293 
L 153.883874 127.990021 
L 154.001054 126.504523 
L 154.040114 126.890027 
L 154.118234 126.961648 
L 154.157294 126.92933 
L 154.235414 126.551917 
L 154.547894 129.87513 
L 154.626014 129.717003 
L 154.665074 129.564155 
L 154.938494 131.178413 
L 154.977554 130.588211 
L 155.016614 131.156947 
L 155.250974 133.007596 
L 155.290034 132.730228 
L 155.329094 132.500431 
L 155.368154 132.702739 
L 155.563454 133.76446 
L 155.641574 133.155397 
L 155.680634 133.563725 
L 155.719694 133.633167 
L 155.914994 135.082181 
L 155.954054 134.962126 
L 156.188414 136.359614 
L 156.227474 136.169215 
L 156.266534 136.323353 
L 156.305594 136.445139 
L 156.383714 136.392917 
L 156.461834 136.146416 
L 156.657134 138.60056 
L 156.696194 138.40944 
L 156.852434 136.97807 
L 156.969614 139.107692 
L 157.047734 138.63038 
L 157.086794 138.228538 
L 157.125854 138.774794 
L 157.164914 139.087269 
L 157.243034 138.92974 
L 157.321154 139.182593 
L 157.360214 138.937099 
L 157.399274 139.383701 
L 157.438334 140.051343 
L 157.516454 139.648132 
L 157.555514 139.610077 
L 157.633634 140.264267 
L 157.711754 140.050986 
L 157.750814 139.931758 
L 157.789874 140.89084 
L 157.867994 140.6148 
L 157.907054 140.046092 
L 157.946114 140.282801 
L 157.985174 140.546366 
L 158.024234 140.455707 
L 158.063294 139.90192 
L 158.141414 140.046387 
L 158.219534 140.554769 
L 158.258594 140.414751 
L 158.297654 140.098886 
L 158.414834 141.353658 
L 158.532014 140.386337 
L 158.610134 140.554604 
L 158.649194 141.102419 
L 158.688254 140.755861 
L 158.805434 139.772673 
L 158.844494 139.891904 
L 158.922614 140.808151 
L 158.961674 141.473979 
L 159.000734 141.221297 
L 159.117914 140.375378 
L 159.156974 140.477652 
L 159.235094 141.249163 
L 159.274154 140.84094 
L 159.313214 140.803481 
L 159.586634 139.156423 
L 159.625694 139.377674 
L 159.781934 137.746195 
L 159.820994 138.01395 
L 159.938174 137.309266 
L 160.055354 136.207402 
L 160.172534 135.935679 
L 160.328774 136.417 
L 160.367834 136.516541 
L 160.524074 135.892672 
L 160.563134 136.307178 
L 160.602194 136.140652 
L 161.422454 131.044273 
L 161.461514 131.389201 
L 161.539634 131.10249 
L 161.617754 130.409401 
L 161.891174 128.21213 
L 161.930234 128.077943 
L 161.969294 128.239249 
L 162.008354 128.37841 
L 162.320834 124.797541 
L 162.359894 125.197552 
L 162.398954 124.660229 
L 162.555194 122.545956 
L 162.594254 123.11301 
L 162.633314 123.151476 
L 162.867674 121.114279 
L 163.062974 118.176648 
L 163.180154 117.419881 
L 163.219214 117.507029 
L 163.297334 117.751152 
L 163.492634 115.465199 
L 163.531694 116.311126 
L 163.687934 115.025601 
L 163.726994 115.197599 
L 163.766054 115.340563 
L 163.961354 111.987295 
L 164.000414 112.176467 
L 164.039474 112.649508 
L 164.078534 111.985167 
L 164.273834 109.950562 
L 164.312894 110.093403 
L 164.351954 110.158553 
L 164.391014 110.73517 
L 164.430074 110.254744 
L 164.781614 105.674418 
L 164.937854 105.771802 
L 165.055034 104.710791 
L 165.133154 104.911027 
L 165.172214 104.92128 
L 165.328454 101.452892 
L 165.367514 102.726618 
L 165.406574 102.865388 
L 165.601874 99.492761 
L 165.640934 99.542042 
L 165.797174 98.045806 
L 165.836234 98.216484 
L 166.109654 93.95117 
L 166.304954 89.969198 
L 166.422134 88.253109 
L 166.461194 88.577243 
L 166.500254 88.958026 
L 167.203334 75.915446 
L 167.281454 76.619238 
L 167.476754 72.917536 
L 167.554874 70.425472 
L 167.750174 66.303155 
L 167.789234 66.136397 
L 168.414194 55.987612 
L 168.453254 55.878506 
L 168.492314 56.395824 
L 168.531374 55.60878 
L 168.648554 53.817396 
L 168.687614 54.055085 
L 168.882914 49.349606 
L 168.961034 49.576936 
L 169.000094 49.904163 
L 169.234454 44.878424 
L 169.273514 44.801526 
L 169.468814 46.943782 
L 169.625054 45.976419 
L 169.664114 46.30485 
L 169.703174 45.995981 
L 169.859414 43.637142 
L 169.937534 44.433943 
L 169.976594 44.227872 
L 170.132834 42.206535 
L 170.171894 41.991405 
L 170.289074 39.884992 
L 170.328134 40.42419 
L 170.406254 40.084136 
L 170.445314 40.997182 
L 170.484374 39.741491 
L 170.562494 38.196403 
L 170.601554 38.602878 
L 170.718734 37.15251 
L 170.757794 38.01255 
L 170.796854 38.142045 
L 170.874974 37.291496 
L 170.914034 37.905677 
L 171.031214 36.686864 
L 171.070274 36.908208 
L 171.109334 37.447705 
L 171.148394 36.546515 
L 171.499934 33.951325 
L 171.538994 33.968472 
L 171.617114 34.376775 
L 171.734294 35.721775 
L 172.124894 30.68039 
L 172.163954 31.074987 
L 172.203014 30.522679 
L 172.242074 30.341859 
L 172.281134 30.896694 
L 172.359254 30.542677 
L 172.398314 30.636086 
L 172.515494 30.075626 
L 172.554554 30.62573 
L 172.593614 30.161272 
L 172.827974 28.643004 
L 172.906094 27.29938 
L 172.984214 27.577346 
L 173.023274 27.106028 
L 173.062334 27.368136 
L 173.101394 27.775801 
L 173.140454 27.537418 
L 173.491994 25.56269 
L 173.531054 25.343632 
L 173.570114 24.485197 
L 173.648234 25.168773 
L 173.726354 26.313604 
L 173.804474 25.926225 
L 173.999774 23.521364 
L 174.077894 24.413407 
L 174.116954 24.180965 
L 174.390374 22.151096 
L 174.429434 22.387834 
L 174.546614 20.60044 
L 174.624734 20.887123 
L 174.702854 20.629244 
L 174.741914 19.658401 
L 174.820034 20.416198 
L 175.093454 18.131751 
L 175.132514 18.215481 
L 175.288754 16.261986 
L 175.327814 16.457374 
L 175.366874 16.700553 
L 175.484054 16.008125 
L 175.757474 16.861614 
L 176.030894 14.815195 
L 176.109014 14.868034 
L 176.304314 16.202504 
L 176.382434 15.976429 
L 176.421494 15.237216 
L 176.460554 15.69178 
L 176.499614 16.113622 
L 176.577734 15.87914 
L 176.616794 15.767024 
L 176.655854 15.97459 
L 176.694914 16.242269 
L 176.733974 15.760809 
L 176.773034 15.706634 
L 177.163634 12.641701 
L 177.202694 13.278404 
L 177.241754 13.437149 
L 177.437054 11.178672 
L 177.476114 11.384897 
L 177.515174 11.892014 
L 177.554234 11.526527 
L 177.593294 10.845338 
L 177.632354 11.384265 
L 177.827654 13.667509 
L 177.866714 13.312012 
L 177.983894 12.177235 
L 178.022954 12.514446 
L 178.062014 12.643583 
L 178.101074 12.615704 
L 178.179194 11.956682 
L 178.218254 12.219659 
L 178.257314 12.975365 
L 178.335434 12.727883 
L 178.374494 12.712784 
L 178.413554 12.835456 
L 178.452614 12.488092 
L 178.491674 12.668977 
L 178.569794 13.396593 
L 178.647914 12.452642 
L 178.686974 12.656271 
L 178.804154 14.661722 
L 178.843214 14.214047 
L 178.921334 13.026928 
L 178.960394 13.450192 
L 179.038514 14.626672 
L 179.077574 14.326738 
L 179.116634 13.931581 
L 179.155694 14.296687 
L 179.194754 14.290063 
L 179.311934 13.041015 
L 179.585354 16.547679 
L 179.819714 17.396778 
L 179.858774 16.717395 
L 179.897834 17.124849 
L 179.936894 17.783685 
L 179.975954 17.241618 
L 180.054074 16.61629 
L 180.132194 17.615111 
L 180.171254 17.50713 
L 180.249374 17.061372 
L 180.483734 19.923754 
L 180.522794 19.954683 
L 180.561854 19.578537 
L 180.600914 20.353053 
L 180.639974 20.048794 
L 180.679034 19.645381 
L 180.718094 19.889127 
L 180.835274 21.309944 
L 180.874334 21.283667 
L 180.952454 20.435232 
L 181.030574 20.975282 
L 181.147754 21.6155 
L 181.186814 21.428492 
L 181.303994 22.268614 
L 181.460234 24.315854 
L 181.499294 23.941692 
L 181.538354 23.794982 
L 181.577414 23.883372 
L 181.694594 24.512101 
L 181.928954 27.666357 
L 182.085194 29.574208 
L 182.163314 29.031677 
L 182.202374 28.763225 
L 182.241434 29.038234 
L 182.514854 31.945978 
L 182.592974 31.659737 
L 182.632034 31.890854 
L 182.827334 34.557946 
L 182.905454 35.263812 
L 183.022634 37.134554 
L 183.061694 37.125997 
L 183.100754 36.667021 
L 183.256994 37.948347 
L 183.569474 41.843559 
L 183.647594 42.464232 
L 183.686654 42.211447 
L 183.725714 42.254503 
L 183.803834 42.291454 
L 183.881954 41.629527 
L 183.921014 41.782781 
L 183.999134 43.441472 
L 184.038194 43.0581 
L 184.077254 42.86038 
L 184.311614 45.375588 
L 184.350674 45.355546 
L 184.702214 49.37626 
L 184.741274 49.211528 
L 184.780334 49.073946 
L 184.819394 50.070715 
L 184.858454 49.298052 
L 184.897514 48.598266 
L 184.936574 49.301185 
L 185.288114 55.655594 
L 185.327174 55.541233 
L 185.366234 55.363438 
L 185.444354 55.456738 
L 186.030254 64.597475 
L 186.498974 72.212162 
L 187.280174 86.352857 
L 187.592654 92.353948 
L 187.631714 92.257863 
L 187.670774 92.35372 
L 187.748894 94.000301 
L 188.061374 100.367895 
L 188.178554 101.536294 
L 188.217614 101.262652 
L 188.256674 101.329247 
L 188.295734 101.184069 
L 188.373854 100.252097 
L 188.412914 101.642686 
L 188.491034 101.371343 
L 188.608214 103.379997 
L 188.686334 104.569155 
L 188.725394 104.304479 
L 188.764454 103.910539 
L 188.998814 108.649266 
L 189.037874 109.005719 
L 189.076934 108.982674 
L 189.155054 107.288621 
L 189.194114 107.762915 
L 189.350354 108.754949 
L 189.428474 109.110446 
L 189.506594 112.217473 
L 189.545654 110.999943 
L 189.584714 109.78505 
L 189.623774 109.8391 
L 189.780014 111.113977 
L 189.936254 113.721937 
L 190.014374 113.340991 
L 190.170614 112.325175 
L 190.209674 112.091494 
L 190.404974 113.944103 
L 190.444034 113.925661 
L 190.600274 116.179507 
L 190.639334 115.34849 
L 190.756514 116.390048 
L 190.795574 115.977409 
L 190.834634 115.818403 
L 191.264294 120.113045 
L 191.381474 118.962715 
L 191.693954 122.371429 
L 191.811134 121.433733 
L 191.850194 121.597176 
L 191.889254 121.760168 
L 192.006434 121.392751 
L 192.201734 123.633704 
L 192.357974 121.572548 
L 192.670454 126.439617 
L 192.748574 125.573194 
L 192.787634 125.717993 
L 192.826694 126.903152 
L 192.904814 126.866486 
L 193.021994 126.444995 
L 193.061054 126.676215 
L 193.178234 127.241469 
L 193.295414 126.755503 
L 193.686014 131.279001 
L 193.842254 132.068389 
L 193.881314 131.92276 
L 194.193794 134.401615 
L 194.232854 133.988542 
L 194.310974 134.04832 
L 194.350034 133.809589 
L 194.428154 133.878163 
L 194.506274 135.055793 
L 194.545334 134.443416 
L 194.662514 133.554359 
L 194.701574 133.88342 
L 194.740634 135.372385 
L 194.818754 134.850157 
L 194.935934 135.495207 
L 195.014054 135.371111 
L 195.053114 135.391961 
L 195.248414 136.943568 
L 195.287474 136.684001 
L 195.326534 136.263156 
L 195.365594 137.235613 
L 195.443714 136.442945 
L 195.482774 136.279475 
L 195.678074 137.825822 
L 195.717134 136.783753 
L 195.795254 137.346313 
L 195.951494 138.715429 
L 195.990554 139.186014 
L 196.068674 138.80141 
L 196.224914 139.836986 
L 196.303034 139.617746 
L 196.342094 139.136861 
L 196.381154 139.344954 
L 196.498334 141.073178 
L 196.537394 140.729975 
L 196.576454 139.583847 
L 196.654574 140.149894 
L 196.693634 139.504852 
L 196.771754 139.562689 
L 196.810814 139.524118 
L 196.849874 139.717242 
L 196.888934 139.334887 
L 196.927994 139.385405 
L 196.967054 139.88295 
L 197.045174 139.474688 
L 197.279534 141.389647 
L 197.318594 140.853087 
L 197.357654 140.970725 
L 197.474834 141.499969 
L 197.592014 139.795264 
L 197.631074 140.071749 
L 197.670134 140.78885 
L 197.748254 140.279584 
L 197.904494 140.420018 
L 198.021674 138.665239 
L 198.060734 139.177174 
L 198.177914 139.715899 
L 198.216974 139.605622 
L 198.256034 139.197651 
L 198.295094 139.847682 
L 198.373214 140.191981 
L 198.412274 139.644824 
L 198.490394 139.866528 
L 198.529454 139.842401 
L 198.568514 140.132379 
L 198.646634 139.033833 
L 198.685694 139.293287 
L 198.724754 139.640402 
L 198.880994 137.651588 
L 198.920054 137.714997 
L 199.076294 139.197201 
L 199.466894 135.884604 
L 199.662194 133.334306 
L 199.857494 134.662838 
L 199.935614 134.078405 
L 199.974674 134.22901 
L 200.013734 134.265076 
L 200.521514 130.847525 
L 200.560574 130.081329 
L 200.638694 130.355688 
L 200.794934 128.865087 
L 200.873054 129.179802 
L 200.951174 129.552981 
L 200.990234 129.365051 
L 201.458954 126.197708 
L 201.537074 125.986547 
L 201.771434 123.490348 
L 201.966734 120.708224 
L 202.318274 117.862149 
L 202.357334 117.880149 
L 202.474514 116.767777 
L 202.630754 114.663012 
L 202.669814 114.739717 
L 202.826054 112.828805 
L 202.865114 113.069214 
L 202.943234 113.264023 
L 203.177594 110.637402 
L 203.216654 110.719047 
L 203.255714 110.905957 
L 203.529134 108.706571 
L 203.607254 109.140889 
L 203.802554 107.406245 
L 203.841614 107.428311 
L 204.193154 103.25563 
L 204.310334 103.359355 
L 204.388454 103.494129 
L 204.661874 99.001733 
L 204.700934 99.203069 
L 204.739994 98.367751 
L 204.779054 98.441235 
L 204.818114 99.251696 
L 204.896234 99.175495 
L 204.935294 99.00103 
L 205.247774 93.173609 
L 205.716494 85.52451 
L 205.755554 85.564091 
L 206.146154 81.006455 
L 207.239834 60.411102 
L 207.278894 60.598736 
L 208.333514 46.286556 
L 208.411634 46.387346 
L 208.724114 44.717663 
L 208.763174 43.649169 
L 208.841294 44.054572 
L 208.880354 43.492578 
L 208.919414 44.339855 
L 208.958474 45.030698 
L 208.997534 43.855669 
L 209.153774 42.929196 
L 209.192834 42.971421 
L 209.270954 40.984171 
L 209.349074 39.860919 
L 209.388134 40.431485 
L 209.427194 41.093714 
L 209.505314 41.059117 
L 209.700614 39.343281 
L 209.739674 39.422436 
L 209.778734 38.584784 
L 209.817794 38.938496 
L 209.856854 39.626328 
L 210.013094 37.685134 
L 210.091214 37.715781 
L 210.208394 36.948882 
L 210.364634 34.990347 
L 210.403694 35.059597 
L 210.638054 32.683391 
L 210.716174 33.822413 
L 210.794294 33.700428 
L 210.950534 32.160312 
L 211.028654 33.116379 
L 211.067714 33.032068 
L 211.223954 31.052003 
L 211.263014 32.504193 
L 211.341134 32.064412 
L 211.536434 30.093217 
L 211.575494 30.324259 
L 211.614554 30.125506 
L 211.653614 29.539846 
L 211.731734 29.546088 
L 211.848914 30.687213 
L 212.044214 28.421039 
L 212.434814 25.408928 
L 212.591054 23.875001 
L 212.630114 24.172671 
L 212.669174 23.898887 
L 212.708234 23.605609 
L 212.786354 24.732872 
L 212.825414 24.260843 
L 212.864474 24.250194 
L 212.903534 22.906247 
L 212.942594 23.819778 
L 212.981654 24.094306 
L 213.020714 23.818776 
L 213.059774 23.744354 
L 213.098834 23.867184 
L 213.137894 23.149395 
L 213.216014 23.66182 
L 213.333194 22.643679 
L 213.372254 21.823129 
L 213.450374 22.063661 
L 213.606614 20.560647 
L 213.723794 19.376346 
L 213.762854 19.897169 
L 213.840974 19.133954 
L 213.880034 19.580093 
L 213.958154 19.93038 
L 213.997214 19.528721 
L 214.075334 19.694141 
L 214.114394 19.848827 
L 214.192514 19.344699 
L 214.231574 19.438467 
L 214.270634 19.714142 
L 214.426874 17.744516 
L 214.465934 18.003718 
L 214.504994 18.105109 
L 214.583114 17.677798 
L 214.622174 17.842725 
L 214.700294 18.374809 
L 214.739354 18.175629 
L 215.051834 16.051421 
L 215.129954 15.887296 
L 215.169014 16.048279 
L 215.364314 12.964589 
L 215.481494 15.004781 
L 215.520554 14.732145 
L 215.559614 14.532541 
L 215.715854 12.905544 
L 215.754914 13.074866 
L 215.793974 12.82943 
L 215.833034 12.505343 
L 215.872094 13.454766 
L 215.911154 12.987903 
L 215.950214 12.459881 
L 216.028334 12.529435 
L 216.067394 12.505241 
L 216.145514 13.869375 
L 216.184574 13.248872 
L 216.223634 12.726533 
L 216.301754 12.816139 
L 216.536114 14.064321 
L 216.575174 13.543029 
L 216.614234 13.774212 
L 216.653294 15.010796 
L 216.731414 14.259607 
L 216.965774 12.470858 
L 217.082954 14.853205 
L 217.122014 14.396441 
L 217.200134 13.769054 
L 217.317314 13.80146 
L 217.356374 14.331849 
L 217.395434 13.967915 
L 217.512614 12.836872 
L 217.551674 13.5166 
L 217.590734 13.784615 
L 217.629794 13.440574 
L 217.746974 12.927415 
L 217.786034 13.131101 
L 217.825094 13.223773 
L 217.903214 13.123908 
L 217.981334 14.16602 
L 218.020394 13.603941 
L 218.098514 13.774828 
L 218.137574 13.971259 
L 218.215694 13.373711 
L 218.410994 15.506159 
L 218.450054 15.198003 
L 218.528174 15.078251 
L 218.645354 15.714583 
L 218.684414 15.692453 
L 218.801594 15.328692 
L 219.153134 18.366971 
L 219.231254 18.016256 
L 219.660914 20.503251 
L 219.895274 21.900964 
L 219.934334 21.842726 
L 220.129634 23.368322 
L 220.324934 24.804946 
L 220.559294 26.597424 
L 220.598354 26.590479 
L 220.910834 28.958494 
L 221.067074 29.901572 
L 221.106134 29.526856 
L 221.145194 30.169666 
L 221.457674 33.095378 
L 221.496734 33.013342 
L 221.731094 33.974419 
L 222.004514 37.100527 
L 222.043574 37.05815 
L 222.473234 41.417382 
L 222.512294 41.067476 
L 222.629474 40.773729 
L 222.863834 44.273204 
L 222.902894 43.909851 
L 222.941954 43.840864 
L 222.981014 43.899929 
L 223.059134 45.219661 
L 223.137254 43.664358 
L 223.176314 44.024994 
L 223.254434 43.984574 
L 223.527854 47.884074 
L 223.566914 47.688512 
L 223.762214 49.550834 
L 223.801274 49.531879 
L 223.840334 48.086476 
L 223.879394 48.908627 
L 224.191874 52.880658 
L 224.230934 52.011977 
L 224.269994 52.820931 
L 224.504354 56.482099 
L 224.582474 56.727327 
L 224.777774 59.952265 
L 224.816834 59.576623 
L 225.207434 66.169024 
L 225.285554 66.669226 
L 225.324614 66.321143 
L 225.480854 69.680145 
L 225.519914 69.370034 
L 225.558974 69.931367 
L 225.949574 78.645772 
L 227.082314 99.176025 
L 227.121374 98.452584 
L 227.160434 98.110012 
L 227.199494 98.420423 
L 227.394794 101.84194 
L 227.433854 101.78405 
L 227.668214 105.092329 
L 227.746334 104.986232 
L 227.824454 104.105536 
L 228.019754 107.782562 
L 228.058814 107.270538 
L 228.097874 107.400139 
L 228.175994 108.478028 
L 228.215054 108.407292 
L 228.293174 108.17871 
L 228.449414 110.233845 
L 228.488474 109.376146 
L 228.566594 110.096672 
L 228.761894 111.941364 
L 228.800954 111.667801 
L 228.840014 111.797267 
L 228.879074 112.625016 
L 228.957194 111.978301 
L 228.996254 111.552639 
L 229.191554 114.637388 
L 229.230614 114.915591 
L 229.269674 114.781513 
L 229.386854 114.519955 
L 229.582154 116.374952 
L 229.699334 113.85063 
L 229.738394 114.649832 
L 229.894634 117.394724 
L 229.933694 117.290412 
L 229.972754 116.775977 
L 230.011814 117.726792 
L 230.128994 119.367928 
L 230.168054 119.216631 
L 230.207114 118.552198 
L 230.246174 118.939834 
L 230.285234 119.149438 
L 230.324294 118.737017 
L 230.363354 119.077305 
L 230.441474 119.422828 
L 230.636774 122.00736 
L 230.714894 122.347746 
L 230.832074 122.991743 
L 230.949254 121.855205 
L 230.988314 122.129702 
L 231.027374 122.859574 
L 231.105494 122.57506 
L 231.144554 122.524773 
L 231.183614 123.374376 
L 231.261734 123.148311 
L 231.300794 123.226271 
L 231.574214 127.613195 
L 231.652334 126.349352 
L 231.691394 126.828091 
L 231.769514 127.612047 
L 231.808574 127.149293 
L 231.886694 126.986223 
L 231.925754 127.443161 
L 231.964814 126.875444 
L 232.003874 127.191258 
L 232.081994 126.479171 
L 232.121054 126.57361 
L 232.277294 128.230786 
L 232.472594 130.659318 
L 232.589774 131.672414 
L 232.628834 131.101342 
L 232.706954 130.333546 
L 232.746014 130.831926 
L 232.785074 130.826867 
L 232.980374 132.337028 
L 233.058494 131.976518 
L 233.097554 131.820499 
L 233.214734 132.438815 
L 233.292854 131.960361 
L 233.488154 134.082233 
L 233.527214 133.884928 
L 233.566274 133.905872 
L 233.605334 134.085366 
L 233.683454 135.613862 
L 233.722514 134.625685 
L 233.839694 133.892336 
L 233.917814 134.143384 
L 233.956874 134.519662 
L 234.034994 134.427748 
L 234.074054 134.043662 
L 234.113114 134.555264 
L 234.113114 134.555264 
" clip-path="url(#p9144e6c149)" style="fill: none; stroke: #4477aa; stroke-linecap: square"/>
   </g>
   <g id="patch_3">
    <path d="M 38.774054 149.13 
L 38.774054 3.6 
" style="fill: none; stroke: #000000; stroke-width: 0.5; stroke-linejoin: miter; stroke-linecap: square"/>
   </g>
   <g id="patch_4">
    <path d="M 234.074054 149.13 
L 234.074054 3.6 
" style="fill: none; stroke: #000000; stroke-width: 0.5; stroke-linejoin: miter; stroke-linecap: square"/>
   </g>
   <g id="patch_5">
    <path d="M 38.774054 149.13 
L 234.074054 149.13 
" style="fill: none; stroke: #000000; stroke-width: 0.5; stroke-linejoin: miter; stroke-linecap: square"/>
   </g>
   <g id="patch_6">
    <path d="M 38.774054 3.6 
L 234.074054 3.6 
" style="fill: none; stroke: #000000; stroke-width: 0.5; stroke-linejoin: miter; stroke-linecap: square"/>
   </g>
  </g>
 </g>
 <defs>
  <clipPath id="p9144e6c149">
   <rect x="38.774054" y="3.6" width="195.3" height="145.53"/>
  </clipPath>
 </defs>
</svg>
