<?xml version="1.0" encoding="utf-8" standalone="no"?>
<!DOCTYPE svg PUBLIC "-//W3C//DTD SVG 1.1//EN"
  "http://www.w3.org/Graphics/SVG/1.1/DTD/svg11.dtd">
<svg xmlns:xlink="http://www.w3.org/1999/xlink" width="237.950795pt" height="179.048317pt" viewBox="0 0 237.950795 179.048317" xmlns="http://www.w3.org/2000/svg" version="1.1">
 <metadata>
  <rdf:RDF xmlns:dc="http://purl.org/dc/elements/1.1/" xmlns:cc="http://creativecommons.org/ns#" xmlns:rdf="http://www.w3.org/1999/02/22-rdf-syntax-ns#">
   <cc:Work>
    <dc:type rdf:resource="http://purl.org/dc/dcmitype/StillImage"/>
    <dc:date>2026-01-13T12:19:00.975412</dc:date>
    <dc:format>image/svg+xml</dc:format>
    <dc:creator>
     <cc:Agent>
      <dc:title>Matplotlib v3.9.2, https://matplotlib.org/</dc:title>
     </cc:Agent>
    </dc:creator>
   </cc:Work>
  </rdf:RDF>
 </metadata>
 <defs>
  <style type="text/css">*{stroke-linejoin: round; stroke-linecap: butt}</style>
 </defs>
 <g id="figure_1">
  <g id="patch_1">
   <path d="M 0 179.048317 
L 237.950795 179.048317 
L 237.950795 0 
L 0 0 
L 0 179.048317 
z
" style="fill: none"/>
  </g>
  <g id="axes_1">
   <g id="patch_2">
    <path d="M 32.685756 149.13 
L 227.985756 149.13 
L 227.985756 3.6 
L 32.685756 3.6 
L 32.685756 149.13 
z
" style="fill: none"/>
   </g>
   <g id="matplotlib.axis_1">
    <g id="xtick_1">
     <g id="line2d_1">
      <path d="M 32.685756 149.13 
L 32.685756 3.6 
" clip-path="url(#pb6020c7451)" style="fill: none; stroke-dasharray: 1.85,0.8; stroke-dashoffset: 0; stroke: #000000; stroke-opacity: 0.5; stroke-width: 0.5"/>
     </g>
     <g id="line2d_2">
      <defs>
       <path id="m755a6357d5" d="M 0 0 
L 0 -3 
" style="stroke: #000000; stroke-width: 0.5"/>
      </defs>
      <g>
       <use xlink:href="#m755a6357d5" x="32.685756" y="149.13" style="stroke: #000000; stroke-width: 0.5"/>
      </g>
     </g>
     <g id="line2d_3">
      <defs>
       <path id="me7abc0f53b" d="M 0 0 
L 0 3 
" style="stroke: #000000; stroke-width: 0.5"/>
      </defs>
      <g>
       <use xlink:href="#me7abc0f53b" x="32.685756" y="3.6" style="stroke: #000000; stroke-width: 0.5"/>
      </g>
     </g>
     <g id="text_1">
      <!-- $\mathdefault{0.0}$ -->
      <g transform="translate(26.320716 159.548498) scale(0.1 -0.1)">
       <defs>
        <path id="CMR17-30" d="M 2688 2025 
C 2688 2416 2682 3080 2413 3591 
C 2176 4039 1798 4198 1466 4198 
C 1158 4198 768 4058 525 3597 
C 269 3118 243 2524 243 2025 
C 243 1661 250 1106 448 619 
C 723 -39 1216 -128 1466 -128 
C 1760 -128 2208 -7 2470 600 
C 2662 1042 2688 1559 2688 2025 
z
M 1466 -26 
C 1056 -26 813 325 723 812 
C 653 1188 653 1738 653 2096 
C 653 2588 653 2997 736 3387 
C 858 3929 1216 4096 1466 4096 
C 1728 4096 2067 3923 2189 3400 
C 2272 3036 2278 2607 2278 2096 
C 2278 1680 2278 1169 2202 792 
C 2067 95 1690 -26 1466 -26 
z
" transform="scale(0.015625)"/>
        <path id="CMMI12-3a" d="M 1178 307 
C 1178 492 1024 619 870 619 
C 685 619 557 466 557 313 
C 557 128 710 0 864 0 
C 1050 0 1178 153 1178 307 
z
" transform="scale(0.015625)"/>
       </defs>
       <use xlink:href="#CMR17-30" transform="scale(0.996264)"/>
       <use xlink:href="#CMMI12-3a" transform="translate(45.690477 0) scale(0.996264)"/>
       <use xlink:href="#CMR17-30" transform="translate(72.787654 0) scale(0.996264)"/>
      </g>
     </g>
    </g>
    <g id="xtick_2">
     <g id="line2d_4">
      <path d="M 71.745756 149.13 
L 71.745756 3.6 
" clip-path="url(#pb6020c7451)" style="fill: none; stroke-dasharray: 1.85,0.8; stroke-dashoffset: 0; stroke: #000000; stroke-opacity: 0.5; stroke-width: 0.5"/>
     </g>
     <g id="line2d_5">
      <g>
       <use xlink:href="#m755a6357d5" x="71.745756" y="149.13" style="stroke: #000000; stroke-width: 0.5"/>
      </g>
     </g>
     <g id="line2d_6">
      <g>
       <use xlink:href="#me7abc0f53b" x="71.745756" y="3.6" style="stroke: #000000; stroke-width: 0.5"/>
      </g>
     </g>
     <g id="text_2">
      <!-- $\mathdefault{0.2}$ -->
      <g transform="translate(65.380716 159.548498) scale(0.1 -0.1)">
       <defs>
        <path id="CMR17-32" d="M 2669 989 
L 2554 989 
C 2490 536 2438 459 2413 420 
C 2381 369 1920 369 1830 369 
L 602 369 
C 832 619 1280 1072 1824 1597 
C 2214 1967 2669 2402 2669 3035 
C 2669 3790 2067 4224 1395 4224 
C 691 4224 262 3604 262 3030 
C 262 2780 448 2748 525 2748 
C 589 2748 781 2787 781 3010 
C 781 3207 614 3264 525 3264 
C 486 3264 448 3258 422 3245 
C 544 3790 915 4058 1306 4058 
C 1862 4058 2227 3617 2227 3035 
C 2227 2479 1901 2000 1536 1584 
L 262 146 
L 262 0 
L 2515 0 
L 2669 989 
z
" transform="scale(0.015625)"/>
       </defs>
       <use xlink:href="#CMR17-30" transform="scale(0.996264)"/>
       <use xlink:href="#CMMI12-3a" transform="translate(45.690477 0) scale(0.996264)"/>
       <use xlink:href="#CMR17-32" transform="translate(72.787654 0) scale(0.996264)"/>
      </g>
     </g>
    </g>
    <g id="xtick_3">
     <g id="line2d_7">
      <path d="M 110.805756 149.13 
L 110.805756 3.6 
" clip-path="url(#pb6020c7451)" style="fill: none; stroke-dasharray: 1.85,0.8; stroke-dashoffset: 0; stroke: #000000; stroke-opacity: 0.5; stroke-width: 0.5"/>
     </g>
     <g id="line2d_8">
      <g>
       <use xlink:href="#m755a6357d5" x="110.805756" y="149.13" style="stroke: #000000; stroke-width: 0.5"/>
      </g>
     </g>
     <g id="line2d_9">
      <g>
       <use xlink:href="#me7abc0f53b" x="110.805756" y="3.6" style="stroke: #000000; stroke-width: 0.5"/>
      </g>
     </g>
     <g id="text_3">
      <!-- $\mathdefault{0.4}$ -->
      <g transform="translate(104.440716 159.548498) scale(0.1 -0.1)">
       <defs>
        <path id="CMR17-34" d="M 2150 4122 
C 2150 4256 2144 4256 2029 4256 
L 128 1254 
L 128 1088 
L 1779 1088 
L 1779 457 
C 1779 224 1766 160 1318 160 
L 1197 160 
L 1197 0 
C 1402 0 1747 0 1965 0 
C 2182 0 2528 0 2733 0 
L 2733 160 
L 2611 160 
C 2163 160 2150 224 2150 457 
L 2150 1088 
L 2803 1088 
L 2803 1254 
L 2150 1254 
L 2150 4122 
z
M 1798 3703 
L 1798 1254 
L 256 1254 
L 1798 3703 
z
" transform="scale(0.015625)"/>
       </defs>
       <use xlink:href="#CMR17-30" transform="scale(0.996264)"/>
       <use xlink:href="#CMMI12-3a" transform="translate(45.690477 0) scale(0.996264)"/>
       <use xlink:href="#CMR17-34" transform="translate(72.787654 0) scale(0.996264)"/>
      </g>
     </g>
    </g>
    <g id="xtick_4">
     <g id="line2d_10">
      <path d="M 149.865756 149.13 
L 149.865756 3.6 
" clip-path="url(#pb6020c7451)" style="fill: none; stroke-dasharray: 1.85,0.8; stroke-dashoffset: 0; stroke: #000000; stroke-opacity: 0.5; stroke-width: 0.5"/>
     </g>
     <g id="line2d_11">
      <g>
       <use xlink:href="#m755a6357d5" x="149.865756" y="149.13" style="stroke: #000000; stroke-width: 0.5"/>
      </g>
     </g>
     <g id="line2d_12">
      <g>
       <use xlink:href="#me7abc0f53b" x="149.865756" y="3.6" style="stroke: #000000; stroke-width: 0.5"/>
      </g>
     </g>
     <g id="text_4">
      <!-- $\mathdefault{0.6}$ -->
      <g transform="translate(143.500716 159.548498) scale(0.1 -0.1)">
       <defs>
        <path id="CMR17-36" d="M 678 2176 
C 678 3690 1395 4032 1811 4032 
C 1946 4032 2272 4009 2400 3776 
C 2298 3776 2106 3776 2106 3553 
C 2106 3381 2246 3323 2336 3323 
C 2394 3323 2566 3348 2566 3560 
C 2566 3954 2246 4179 1805 4179 
C 1043 4179 243 3390 243 1984 
C 243 253 966 -128 1478 -128 
C 2099 -128 2688 427 2688 1283 
C 2688 2081 2170 2662 1517 2662 
C 1126 2662 838 2407 678 1960 
L 678 2176 
z
M 1478 25 
C 691 25 691 1200 691 1436 
C 691 1896 909 2560 1504 2560 
C 1613 2560 1926 2560 2138 2120 
C 2253 1870 2253 1609 2253 1289 
C 2253 944 2253 690 2118 434 
C 1978 171 1773 25 1478 25 
z
" transform="scale(0.015625)"/>
       </defs>
       <use xlink:href="#CMR17-30" transform="scale(0.996264)"/>
       <use xlink:href="#CMMI12-3a" transform="translate(45.690477 0) scale(0.996264)"/>
       <use xlink:href="#CMR17-36" transform="translate(72.787654 0) scale(0.996264)"/>
      </g>
     </g>
    </g>
    <g id="xtick_5">
     <g id="line2d_13">
      <path d="M 188.925756 149.13 
L 188.925756 3.6 
" clip-path="url(#pb6020c7451)" style="fill: none; stroke-dasharray: 1.85,0.8; stroke-dashoffset: 0; stroke: #000000; stroke-opacity: 0.5; stroke-width: 0.5"/>
     </g>
     <g id="line2d_14">
      <g>
       <use xlink:href="#m755a6357d5" x="188.925756" y="149.13" style="stroke: #000000; stroke-width: 0.5"/>
      </g>
     </g>
     <g id="line2d_15">
      <g>
       <use xlink:href="#me7abc0f53b" x="188.925756" y="3.6" style="stroke: #000000; stroke-width: 0.5"/>
      </g>
     </g>
     <g id="text_5">
      <!-- $\mathdefault{0.8}$ -->
      <g transform="translate(182.560716 159.548498) scale(0.1 -0.1)">
       <defs>
        <path id="CMR17-38" d="M 1741 2264 
C 2144 2467 2554 2773 2554 3263 
C 2554 3841 1990 4179 1472 4179 
C 890 4179 378 3759 378 3180 
C 378 3021 416 2747 666 2505 
C 730 2442 998 2251 1171 2130 
C 883 1983 211 1634 211 934 
C 211 279 838 -128 1459 -128 
C 2144 -128 2720 362 2720 1010 
C 2720 1590 2330 1857 2074 2029 
L 1741 2264 
z
M 902 2822 
C 851 2854 595 3051 595 3351 
C 595 3739 998 4032 1459 4032 
C 1965 4032 2336 3676 2336 3262 
C 2336 2669 1670 2331 1638 2331 
C 1632 2331 1626 2331 1574 2370 
L 902 2822 
z
M 2080 1519 
C 2176 1449 2483 1240 2483 851 
C 2483 381 2010 25 1472 25 
C 890 25 448 438 448 940 
C 448 1443 838 1862 1280 2060 
L 2080 1519 
z
" transform="scale(0.015625)"/>
       </defs>
       <use xlink:href="#CMR17-30" transform="scale(0.996264)"/>
       <use xlink:href="#CMMI12-3a" transform="translate(45.690477 0) scale(0.996264)"/>
       <use xlink:href="#CMR17-38" transform="translate(72.787654 0) scale(0.996264)"/>
      </g>
     </g>
    </g>
    <g id="xtick_6">
     <g id="line2d_16">
      <path d="M 227.985756 149.13 
L 227.985756 3.6 
" clip-path="url(#pb6020c7451)" style="fill: none; stroke-dasharray: 1.85,0.8; stroke-dashoffset: 0; stroke: #000000; stroke-opacity: 0.5; stroke-width: 0.5"/>
     </g>
     <g id="line2d_17">
      <g>
       <use xlink:href="#m755a6357d5" x="227.985756" y="149.13" style="stroke: #000000; stroke-width: 0.5"/>
      </g>
     </g>
     <g id="line2d_18">
      <g>
       <use xlink:href="#me7abc0f53b" x="227.985756" y="3.6" style="stroke: #000000; stroke-width: 0.5"/>
      </g>
     </g>
     <g id="text_6">
      <!-- $\mathdefault{1.0}$ -->
      <g transform="translate(221.620716 159.548498) scale(0.1 -0.1)">
       <defs>
        <path id="CMR17-31" d="M 1702 4058 
C 1702 4192 1696 4192 1606 4192 
C 1357 3916 979 3827 621 3827 
C 602 3827 570 3827 563 3808 
C 557 3795 557 3782 557 3648 
C 755 3648 1088 3686 1344 3839 
L 1344 461 
C 1344 236 1331 160 781 160 
L 589 160 
L 589 0 
C 896 0 1216 0 1523 0 
C 1830 0 2150 0 2458 0 
L 2458 160 
L 2266 160 
C 1715 160 1702 230 1702 458 
L 1702 4058 
z
" transform="scale(0.015625)"/>
       </defs>
       <use xlink:href="#CMR17-31" transform="scale(0.996264)"/>
       <use xlink:href="#CMMI12-3a" transform="translate(45.690477 0) scale(0.996264)"/>
       <use xlink:href="#CMR17-30" transform="translate(72.787654 0) scale(0.996264)"/>
      </g>
     </g>
    </g>
    <g id="xtick_7">
     <g id="line2d_19">
      <defs>
       <path id="m9b47df498b" d="M 0 0 
L 0 -1.5 
" style="stroke: #000000; stroke-width: 0.5"/>
      </defs>
      <g>
       <use xlink:href="#m9b47df498b" x="42.450756" y="149.13" style="stroke: #000000; stroke-width: 0.5"/>
      </g>
     </g>
     <g id="line2d_20">
      <defs>
       <path id="m4a2de14681" d="M 0 0 
L 0 1.5 
" style="stroke: #000000; stroke-width: 0.5"/>
      </defs>
      <g>
       <use xlink:href="#m4a2de14681" x="42.450756" y="3.6" style="stroke: #000000; stroke-width: 0.5"/>
      </g>
     </g>
    </g>
    <g id="xtick_8">
     <g id="line2d_21">
      <g>
       <use xlink:href="#m9b47df498b" x="52.215756" y="149.13" style="stroke: #000000; stroke-width: 0.5"/>
      </g>
     </g>
     <g id="line2d_22">
      <g>
       <use xlink:href="#m4a2de14681" x="52.215756" y="3.6" style="stroke: #000000; stroke-width: 0.5"/>
      </g>
     </g>
    </g>
    <g id="xtick_9">
     <g id="line2d_23">
      <g>
       <use xlink:href="#m9b47df498b" x="61.980756" y="149.13" style="stroke: #000000; stroke-width: 0.5"/>
      </g>
     </g>
     <g id="line2d_24">
      <g>
       <use xlink:href="#m4a2de14681" x="61.980756" y="3.6" style="stroke: #000000; stroke-width: 0.5"/>
      </g>
     </g>
    </g>
    <g id="xtick_10">
     <g id="line2d_25">
      <g>
       <use xlink:href="#m9b47df498b" x="81.510756" y="149.13" style="stroke: #000000; stroke-width: 0.5"/>
      </g>
     </g>
     <g id="line2d_26">
      <g>
       <use xlink:href="#m4a2de14681" x="81.510756" y="3.6" style="stroke: #000000; stroke-width: 0.5"/>
      </g>
     </g>
    </g>
    <g id="xtick_11">
     <g id="line2d_27">
      <g>
       <use xlink:href="#m9b47df498b" x="91.275756" y="149.13" style="stroke: #000000; stroke-width: 0.5"/>
      </g>
     </g>
     <g id="line2d_28">
      <g>
       <use xlink:href="#m4a2de14681" x="91.275756" y="3.6" style="stroke: #000000; stroke-width: 0.5"/>
      </g>
     </g>
    </g>
    <g id="xtick_12">
     <g id="line2d_29">
      <g>
       <use xlink:href="#m9b47df498b" x="101.040756" y="149.13" style="stroke: #000000; stroke-width: 0.5"/>
      </g>
     </g>
     <g id="line2d_30">
      <g>
       <use xlink:href="#m4a2de14681" x="101.040756" y="3.6" style="stroke: #000000; stroke-width: 0.5"/>
      </g>
     </g>
    </g>
    <g id="xtick_13">
     <g id="line2d_31">
      <g>
       <use xlink:href="#m9b47df498b" x="120.570756" y="149.13" style="stroke: #000000; stroke-width: 0.5"/>
      </g>
     </g>
     <g id="line2d_32">
      <g>
       <use xlink:href="#m4a2de14681" x="120.570756" y="3.6" style="stroke: #000000; stroke-width: 0.5"/>
      </g>
     </g>
    </g>
    <g id="xtick_14">
     <g id="line2d_33">
      <g>
       <use xlink:href="#m9b47df498b" x="130.335756" y="149.13" style="stroke: #000000; stroke-width: 0.5"/>
      </g>
     </g>
     <g id="line2d_34">
      <g>
       <use xlink:href="#m4a2de14681" x="130.335756" y="3.6" style="stroke: #000000; stroke-width: 0.5"/>
      </g>
     </g>
    </g>
    <g id="xtick_15">
     <g id="line2d_35">
      <g>
       <use xlink:href="#m9b47df498b" x="140.100756" y="149.13" style="stroke: #000000; stroke-width: 0.5"/>
      </g>
     </g>
     <g id="line2d_36">
      <g>
       <use xlink:href="#m4a2de14681" x="140.100756" y="3.6" style="stroke: #000000; stroke-width: 0.5"/>
      </g>
     </g>
    </g>
    <g id="xtick_16">
     <g id="line2d_37">
      <g>
       <use xlink:href="#m9b47df498b" x="159.630756" y="149.13" style="stroke: #000000; stroke-width: 0.5"/>
      </g>
     </g>
     <g id="line2d_38">
      <g>
       <use xlink:href="#m4a2de14681" x="159.630756" y="3.6" style="stroke: #000000; stroke-width: 0.5"/>
      </g>
     </g>
    </g>
    <g id="xtick_17">
     <g id="line2d_39">
      <g>
       <use xlink:href="#m9b47df498b" x="169.395756" y="149.13" style="stroke: #000000; stroke-width: 0.5"/>
      </g>
     </g>
     <g id="line2d_40">
      <g>
       <use xlink:href="#m4a2de14681" x="169.395756" y="3.6" style="stroke: #000000; stroke-width: 0.5"/>
      </g>
     </g>
    </g>
    <g id="xtick_18">
     <g id="line2d_41">
      <g>
       <use xlink:href="#m9b47df498b" x="179.160756" y="149.13" style="stroke: #000000; stroke-width: 0.5"/>
      </g>
     </g>
     <g id="line2d_42">
      <g>
       <use xlink:href="#m4a2de14681" x="179.160756" y="3.6" style="stroke: #000000; stroke-width: 0.5"/>
      </g>
     </g>
    </g>
    <g id="xtick_19">
     <g id="line2d_43">
      <g>
       <use xlink:href="#m9b47df498b" x="198.690756" y="149.13" style="stroke: #000000; stroke-width: 0.5"/>
      </g>
     </g>
     <g id="line2d_44">
      <g>
       <use xlink:href="#m4a2de14681" x="198.690756" y="3.6" style="stroke: #000000; stroke-width: 0.5"/>
      </g>
     </g>
    </g>
    <g id="xtick_20">
     <g id="line2d_45">
      <g>
       <use xlink:href="#m9b47df498b" x="208.455756" y="149.13" style="stroke: #000000; stroke-width: 0.5"/>
      </g>
     </g>
     <g id="line2d_46">
      <g>
       <use xlink:href="#m4a2de14681" x="208.455756" y="3.6" style="stroke: #000000; stroke-width: 0.5"/>
      </g>
     </g>
    </g>
    <g id="xtick_21">
     <g id="line2d_47">
      <g>
       <use xlink:href="#m9b47df498b" x="218.220756" y="149.13" style="stroke: #000000; stroke-width: 0.5"/>
      </g>
     </g>
     <g id="line2d_48">
      <g>
       <use xlink:href="#m4a2de14681" x="218.220756" y="3.6" style="stroke: #000000; stroke-width: 0.5"/>
      </g>
     </g>
    </g>
    <g id="text_7">
     <!-- $|\varphi|~[\mathrm{\pi}]$ -->
     <g transform="translate(116.863678 172.957657) scale(0.1 -0.1)">
      <defs>
       <path id="CMSY10-6a" d="M 1018 4570 
C 1018 4685 1018 4800 890 4800 
C 762 4800 762 4685 762 4570 
L 762 -1370 
C 762 -1485 762 -1600 890 -1600 
C 1018 -1600 1018 -1485 1018 -1370 
L 1018 4570 
z
" transform="scale(0.015625)"/>
       <path id="CMMI12-27" d="M 1926 280 
C 1818 280 1722 280 1722 312 
C 1722 325 1830 926 1869 1067 
C 2074 1884 2560 2472 3117 2472 
C 3533 2472 3725 2159 3725 1808 
C 3725 1080 2906 280 1926 280 
z
M 1651 -51 
C 1690 -57 1754 -64 1869 -64 
C 2918 -64 3885 945 3885 1954 
C 3885 2344 3712 2816 3174 2816 
C 2253 2816 1862 1519 1504 318 
C 768 458 461 848 461 1276 
C 461 1449 595 2133 966 2592 
C 1037 2676 1037 2689 1037 2702 
C 1037 2753 986 2753 973 2753 
C 800 2753 314 1820 314 1213 
C 314 497 877 107 1395 -7 
L 1062 -1088 
C 1030 -1184 1030 -1196 1030 -1222 
C 1030 -1376 1184 -1376 1197 -1376 
C 1261 -1376 1376 -1351 1427 -1223 
C 1446 -1166 1626 -178 1651 -51 
z
" transform="scale(0.015625)"/>
       <path id="CMR17-5b" d="M 1504 -1600 
L 1504 -1377 
L 902 -1377 
L 902 4544 
L 1504 4544 
L 1504 4767 
L 678 4767 
L 678 -1600 
L 1504 -1600 
z
" transform="scale(0.015625)"/>
       <path id="CMMI12-19" d="M 1658 2408 
L 2381 2408 
C 2208 1692 2099 1226 2099 716 
C 2099 626 2099 -64 2362 -64 
C 2496 -64 2611 57 2611 166 
C 2611 197 2611 210 2566 306 
C 2394 747 2394 1296 2394 1341 
C 2394 1379 2394 1832 2528 2408 
L 3245 2408 
C 3328 2408 3539 2408 3539 2612 
C 3539 2752 3418 2752 3302 2752 
L 1197 2752 
C 1050 2752 832 2752 538 2440 
C 371 2254 166 1916 166 1878 
C 166 1840 198 1827 237 1827 
C 282 1827 288 1846 320 1884 
C 653 2408 986 2408 1146 2408 
L 1510 2408 
C 1370 1929 1210 1373 685 256 
C 634 154 634 140 634 102 
C 634 -32 749 -64 806 -64 
C 992 -64 1043 102 1120 370 
C 1222 696 1222 709 1286 964 
L 1658 2408 
z
" transform="scale(0.015625)"/>
       <path id="CMR17-5d" d="M 915 4767 
L 90 4767 
L 90 4544 
L 691 4544 
L 691 -1377 
L 90 -1377 
L 90 -1600 
L 915 -1600 
L 915 4767 
z
" transform="scale(0.015625)"/>
      </defs>
      <use xlink:href="#CMSY10-6a" transform="scale(0.996264)"/>
      <use xlink:href="#CMMI12-27" transform="translate(27.674085 0) scale(0.996264)"/>
      <use xlink:href="#CMSY10-6a" transform="translate(91.577148 0) scale(0.996264)"/>
      <use xlink:href="#CMR17-5b" transform="translate(149.3272 0) scale(0.996264)"/>
      <use xlink:href="#CMMI12-19" transform="translate(174.198258 0) scale(0.996264)"/>
      <use xlink:href="#CMR17-5d" transform="translate(233.108859 0) scale(0.996264)"/>
     </g>
    </g>
   </g>
   <g id="matplotlib.axis_2">
    <g id="ytick_1">
     <g id="line2d_49">
      <path d="M 32.685756 149.13 
L 227.985756 149.13 
" clip-path="url(#pb6020c7451)" style="fill: none; stroke-dasharray: 1.85,0.8; stroke-dashoffset: 0; stroke: #000000; stroke-opacity: 0.5; stroke-width: 0.5"/>
     </g>
     <g id="line2d_50">
      <defs>
       <path id="m02a404900d" d="M 0 0 
L 3 0 
" style="stroke: #000000; stroke-width: 0.5"/>
      </defs>
      <g>
       <use xlink:href="#m02a404900d" x="32.685756" y="149.13" style="stroke: #000000; stroke-width: 0.5"/>
      </g>
     </g>
     <g id="line2d_51">
      <defs>
       <path id="mc2f8da03cd" d="M 0 0 
L -3 0 
" style="stroke: #000000; stroke-width: 0.5"/>
      </defs>
      <g>
       <use xlink:href="#mc2f8da03cd" x="227.985756" y="149.13" style="stroke: #000000; stroke-width: 0.5"/>
      </g>
     </g>
     <g id="text_8">
      <!-- $\mathdefault{0.0}$ -->
      <g transform="translate(16.455677 152.589249) scale(0.1 -0.1)">
       <use xlink:href="#CMR17-30" transform="scale(0.996264)"/>
       <use xlink:href="#CMMI12-3a" transform="translate(45.690477 0) scale(0.996264)"/>
       <use xlink:href="#CMR17-30" transform="translate(72.787654 0) scale(0.996264)"/>
      </g>
     </g>
    </g>
    <g id="ytick_2">
     <g id="line2d_52">
      <path d="M 32.685756 127.929139 
L 227.985756 127.929139 
" clip-path="url(#pb6020c7451)" style="fill: none; stroke-dasharray: 1.85,0.8; stroke-dashoffset: 0; stroke: #000000; stroke-opacity: 0.5; stroke-width: 0.5"/>
     </g>
     <g id="line2d_53">
      <g>
       <use xlink:href="#m02a404900d" x="32.685756" y="127.929139" style="stroke: #000000; stroke-width: 0.5"/>
      </g>
     </g>
     <g id="line2d_54">
      <g>
       <use xlink:href="#mc2f8da03cd" x="227.985756" y="127.929139" style="stroke: #000000; stroke-width: 0.5"/>
      </g>
     </g>
     <g id="text_9">
      <!-- $\mathdefault{0.2}$ -->
      <g transform="translate(16.455677 131.388388) scale(0.1 -0.1)">
       <use xlink:href="#CMR17-30" transform="scale(0.996264)"/>
       <use xlink:href="#CMMI12-3a" transform="translate(45.690477 0) scale(0.996264)"/>
       <use xlink:href="#CMR17-32" transform="translate(72.787654 0) scale(0.996264)"/>
      </g>
     </g>
    </g>
    <g id="ytick_3">
     <g id="line2d_55">
      <path d="M 32.685756 106.728278 
L 227.985756 106.728278 
" clip-path="url(#pb6020c7451)" style="fill: none; stroke-dasharray: 1.85,0.8; stroke-dashoffset: 0; stroke: #000000; stroke-opacity: 0.5; stroke-width: 0.5"/>
     </g>
     <g id="line2d_56">
      <g>
       <use xlink:href="#m02a404900d" x="32.685756" y="106.728278" style="stroke: #000000; stroke-width: 0.5"/>
      </g>
     </g>
     <g id="line2d_57">
      <g>
       <use xlink:href="#mc2f8da03cd" x="227.985756" y="106.728278" style="stroke: #000000; stroke-width: 0.5"/>
      </g>
     </g>
     <g id="text_10">
      <!-- $\mathdefault{0.4}$ -->
      <g transform="translate(16.455677 110.187528) scale(0.1 -0.1)">
       <use xlink:href="#CMR17-30" transform="scale(0.996264)"/>
       <use xlink:href="#CMMI12-3a" transform="translate(45.690477 0) scale(0.996264)"/>
       <use xlink:href="#CMR17-34" transform="translate(72.787654 0) scale(0.996264)"/>
      </g>
     </g>
    </g>
    <g id="ytick_4">
     <g id="line2d_58">
      <path d="M 32.685756 85.527417 
L 227.985756 85.527417 
" clip-path="url(#pb6020c7451)" style="fill: none; stroke-dasharray: 1.85,0.8; stroke-dashoffset: 0; stroke: #000000; stroke-opacity: 0.5; stroke-width: 0.5"/>
     </g>
     <g id="line2d_59">
      <g>
       <use xlink:href="#m02a404900d" x="32.685756" y="85.527417" style="stroke: #000000; stroke-width: 0.5"/>
      </g>
     </g>
     <g id="line2d_60">
      <g>
       <use xlink:href="#mc2f8da03cd" x="227.985756" y="85.527417" style="stroke: #000000; stroke-width: 0.5"/>
      </g>
     </g>
     <g id="text_11">
      <!-- $\mathdefault{0.6}$ -->
      <g transform="translate(16.455677 88.986667) scale(0.1 -0.1)">
       <use xlink:href="#CMR17-30" transform="scale(0.996264)"/>
       <use xlink:href="#CMMI12-3a" transform="translate(45.690477 0) scale(0.996264)"/>
       <use xlink:href="#CMR17-36" transform="translate(72.787654 0) scale(0.996264)"/>
      </g>
     </g>
    </g>
    <g id="ytick_5">
     <g id="line2d_61">
      <path d="M 32.685756 64.326557 
L 227.985756 64.326557 
" clip-path="url(#pb6020c7451)" style="fill: none; stroke-dasharray: 1.85,0.8; stroke-dashoffset: 0; stroke: #000000; stroke-opacity: 0.5; stroke-width: 0.5"/>
     </g>
     <g id="line2d_62">
      <g>
       <use xlink:href="#m02a404900d" x="32.685756" y="64.326557" style="stroke: #000000; stroke-width: 0.5"/>
      </g>
     </g>
     <g id="line2d_63">
      <g>
       <use xlink:href="#mc2f8da03cd" x="227.985756" y="64.326557" style="stroke: #000000; stroke-width: 0.5"/>
      </g>
     </g>
     <g id="text_12">
      <!-- $\mathdefault{0.8}$ -->
      <g transform="translate(16.455677 67.785806) scale(0.1 -0.1)">
       <use xlink:href="#CMR17-30" transform="scale(0.996264)"/>
       <use xlink:href="#CMMI12-3a" transform="translate(45.690477 0) scale(0.996264)"/>
       <use xlink:href="#CMR17-38" transform="translate(72.787654 0) scale(0.996264)"/>
      </g>
     </g>
    </g>
    <g id="ytick_6">
     <g id="line2d_64">
      <path d="M 32.685756 43.125696 
L 227.985756 43.125696 
" clip-path="url(#pb6020c7451)" style="fill: none; stroke-dasharray: 1.85,0.8; stroke-dashoffset: 0; stroke: #000000; stroke-opacity: 0.5; stroke-width: 0.5"/>
     </g>
     <g id="line2d_65">
      <g>
       <use xlink:href="#m02a404900d" x="32.685756" y="43.125696" style="stroke: #000000; stroke-width: 0.5"/>
      </g>
     </g>
     <g id="line2d_66">
      <g>
       <use xlink:href="#mc2f8da03cd" x="227.985756" y="43.125696" style="stroke: #000000; stroke-width: 0.5"/>
      </g>
     </g>
     <g id="text_13">
      <!-- $\mathdefault{1.0}$ -->
      <g transform="translate(16.455677 46.584945) scale(0.1 -0.1)">
       <use xlink:href="#CMR17-31" transform="scale(0.996264)"/>
       <use xlink:href="#CMMI12-3a" transform="translate(45.690477 0) scale(0.996264)"/>
       <use xlink:href="#CMR17-30" transform="translate(72.787654 0) scale(0.996264)"/>
      </g>
     </g>
    </g>
    <g id="ytick_7">
     <g id="line2d_67">
      <path d="M 32.685756 21.924835 
L 227.985756 21.924835 
" clip-path="url(#pb6020c7451)" style="fill: none; stroke-dasharray: 1.85,0.8; stroke-dashoffset: 0; stroke: #000000; stroke-opacity: 0.5; stroke-width: 0.5"/>
     </g>
     <g id="line2d_68">
      <g>
       <use xlink:href="#m02a404900d" x="32.685756" y="21.924835" style="stroke: #000000; stroke-width: 0.5"/>
      </g>
     </g>
     <g id="line2d_69">
      <g>
       <use xlink:href="#mc2f8da03cd" x="227.985756" y="21.924835" style="stroke: #000000; stroke-width: 0.5"/>
      </g>
     </g>
     <g id="text_14">
      <!-- $\mathdefault{1.2}$ -->
      <g transform="translate(16.455677 25.384084) scale(0.1 -0.1)">
       <use xlink:href="#CMR17-31" transform="scale(0.996264)"/>
       <use xlink:href="#CMMI12-3a" transform="translate(45.690477 0) scale(0.996264)"/>
       <use xlink:href="#CMR17-32" transform="translate(72.787654 0) scale(0.996264)"/>
      </g>
     </g>
    </g>
    <g id="ytick_8">
     <g id="line2d_70">
      <defs>
       <path id="m5d2ba552da" d="M 0 0 
L 1.5 0 
" style="stroke: #000000; stroke-width: 0.5"/>
      </defs>
      <g>
       <use xlink:href="#m5d2ba552da" x="32.685756" y="143.829785" style="stroke: #000000; stroke-width: 0.5"/>
      </g>
     </g>
     <g id="line2d_71">
      <defs>
       <path id="m2949db5dd1" d="M 0 0 
L -1.5 0 
" style="stroke: #000000; stroke-width: 0.5"/>
      </defs>
      <g>
       <use xlink:href="#m2949db5dd1" x="227.985756" y="143.829785" style="stroke: #000000; stroke-width: 0.5"/>
      </g>
     </g>
    </g>
    <g id="ytick_9">
     <g id="line2d_72">
      <g>
       <use xlink:href="#m5d2ba552da" x="32.685756" y="138.52957" style="stroke: #000000; stroke-width: 0.5"/>
      </g>
     </g>
     <g id="line2d_73">
      <g>
       <use xlink:href="#m2949db5dd1" x="227.985756" y="138.52957" style="stroke: #000000; stroke-width: 0.5"/>
      </g>
     </g>
    </g>
    <g id="ytick_10">
     <g id="line2d_74">
      <g>
       <use xlink:href="#m5d2ba552da" x="32.685756" y="133.229354" style="stroke: #000000; stroke-width: 0.5"/>
      </g>
     </g>
     <g id="line2d_75">
      <g>
       <use xlink:href="#m2949db5dd1" x="227.985756" y="133.229354" style="stroke: #000000; stroke-width: 0.5"/>
      </g>
     </g>
    </g>
    <g id="ytick_11">
     <g id="line2d_76">
      <g>
       <use xlink:href="#m5d2ba552da" x="32.685756" y="122.628924" style="stroke: #000000; stroke-width: 0.5"/>
      </g>
     </g>
     <g id="line2d_77">
      <g>
       <use xlink:href="#m2949db5dd1" x="227.985756" y="122.628924" style="stroke: #000000; stroke-width: 0.5"/>
      </g>
     </g>
    </g>
    <g id="ytick_12">
     <g id="line2d_78">
      <g>
       <use xlink:href="#m5d2ba552da" x="32.685756" y="117.328709" style="stroke: #000000; stroke-width: 0.5"/>
      </g>
     </g>
     <g id="line2d_79">
      <g>
       <use xlink:href="#m2949db5dd1" x="227.985756" y="117.328709" style="stroke: #000000; stroke-width: 0.5"/>
      </g>
     </g>
    </g>
    <g id="ytick_13">
     <g id="line2d_80">
      <g>
       <use xlink:href="#m5d2ba552da" x="32.685756" y="112.028494" style="stroke: #000000; stroke-width: 0.5"/>
      </g>
     </g>
     <g id="line2d_81">
      <g>
       <use xlink:href="#m2949db5dd1" x="227.985756" y="112.028494" style="stroke: #000000; stroke-width: 0.5"/>
      </g>
     </g>
    </g>
    <g id="ytick_14">
     <g id="line2d_82">
      <g>
       <use xlink:href="#m5d2ba552da" x="32.685756" y="101.428063" style="stroke: #000000; stroke-width: 0.5"/>
      </g>
     </g>
     <g id="line2d_83">
      <g>
       <use xlink:href="#m2949db5dd1" x="227.985756" y="101.428063" style="stroke: #000000; stroke-width: 0.5"/>
      </g>
     </g>
    </g>
    <g id="ytick_15">
     <g id="line2d_84">
      <g>
       <use xlink:href="#m5d2ba552da" x="32.685756" y="96.127848" style="stroke: #000000; stroke-width: 0.5"/>
      </g>
     </g>
     <g id="line2d_85">
      <g>
       <use xlink:href="#m2949db5dd1" x="227.985756" y="96.127848" style="stroke: #000000; stroke-width: 0.5"/>
      </g>
     </g>
    </g>
    <g id="ytick_16">
     <g id="line2d_86">
      <g>
       <use xlink:href="#m5d2ba552da" x="32.685756" y="90.827633" style="stroke: #000000; stroke-width: 0.5"/>
      </g>
     </g>
     <g id="line2d_87">
      <g>
       <use xlink:href="#m2949db5dd1" x="227.985756" y="90.827633" style="stroke: #000000; stroke-width: 0.5"/>
      </g>
     </g>
    </g>
    <g id="ytick_17">
     <g id="line2d_88">
      <g>
       <use xlink:href="#m5d2ba552da" x="32.685756" y="80.227202" style="stroke: #000000; stroke-width: 0.5"/>
      </g>
     </g>
     <g id="line2d_89">
      <g>
       <use xlink:href="#m2949db5dd1" x="227.985756" y="80.227202" style="stroke: #000000; stroke-width: 0.5"/>
      </g>
     </g>
    </g>
    <g id="ytick_18">
     <g id="line2d_90">
      <g>
       <use xlink:href="#m5d2ba552da" x="32.685756" y="74.926987" style="stroke: #000000; stroke-width: 0.5"/>
      </g>
     </g>
     <g id="line2d_91">
      <g>
       <use xlink:href="#m2949db5dd1" x="227.985756" y="74.926987" style="stroke: #000000; stroke-width: 0.5"/>
      </g>
     </g>
    </g>
    <g id="ytick_19">
     <g id="line2d_92">
      <g>
       <use xlink:href="#m5d2ba552da" x="32.685756" y="69.626772" style="stroke: #000000; stroke-width: 0.5"/>
      </g>
     </g>
     <g id="line2d_93">
      <g>
       <use xlink:href="#m2949db5dd1" x="227.985756" y="69.626772" style="stroke: #000000; stroke-width: 0.5"/>
      </g>
     </g>
    </g>
    <g id="ytick_20">
     <g id="line2d_94">
      <g>
       <use xlink:href="#m5d2ba552da" x="32.685756" y="59.026341" style="stroke: #000000; stroke-width: 0.5"/>
      </g>
     </g>
     <g id="line2d_95">
      <g>
       <use xlink:href="#m2949db5dd1" x="227.985756" y="59.026341" style="stroke: #000000; stroke-width: 0.5"/>
      </g>
     </g>
    </g>
    <g id="ytick_21">
     <g id="line2d_96">
      <g>
       <use xlink:href="#m5d2ba552da" x="32.685756" y="53.726126" style="stroke: #000000; stroke-width: 0.5"/>
      </g>
     </g>
     <g id="line2d_97">
      <g>
       <use xlink:href="#m2949db5dd1" x="227.985756" y="53.726126" style="stroke: #000000; stroke-width: 0.5"/>
      </g>
     </g>
    </g>
    <g id="ytick_22">
     <g id="line2d_98">
      <g>
       <use xlink:href="#m5d2ba552da" x="32.685756" y="48.425911" style="stroke: #000000; stroke-width: 0.5"/>
      </g>
     </g>
     <g id="line2d_99">
      <g>
       <use xlink:href="#m2949db5dd1" x="227.985756" y="48.425911" style="stroke: #000000; stroke-width: 0.5"/>
      </g>
     </g>
    </g>
    <g id="ytick_23">
     <g id="line2d_100">
      <g>
       <use xlink:href="#m5d2ba552da" x="32.685756" y="37.825481" style="stroke: #000000; stroke-width: 0.5"/>
      </g>
     </g>
     <g id="line2d_101">
      <g>
       <use xlink:href="#m2949db5dd1" x="227.985756" y="37.825481" style="stroke: #000000; stroke-width: 0.5"/>
      </g>
     </g>
    </g>
    <g id="ytick_24">
     <g id="line2d_102">
      <g>
       <use xlink:href="#m5d2ba552da" x="32.685756" y="32.525265" style="stroke: #000000; stroke-width: 0.5"/>
      </g>
     </g>
     <g id="line2d_103">
      <g>
       <use xlink:href="#m2949db5dd1" x="227.985756" y="32.525265" style="stroke: #000000; stroke-width: 0.5"/>
      </g>
     </g>
    </g>
    <g id="ytick_25">
     <g id="line2d_104">
      <g>
       <use xlink:href="#m5d2ba552da" x="32.685756" y="27.22505" style="stroke: #000000; stroke-width: 0.5"/>
      </g>
     </g>
     <g id="line2d_105">
      <g>
       <use xlink:href="#m2949db5dd1" x="227.985756" y="27.22505" style="stroke: #000000; stroke-width: 0.5"/>
      </g>
     </g>
    </g>
    <g id="ytick_26">
     <g id="line2d_106">
      <g>
       <use xlink:href="#m5d2ba552da" x="32.685756" y="16.62462" style="stroke: #000000; stroke-width: 0.5"/>
      </g>
     </g>
     <g id="line2d_107">
      <g>
       <use xlink:href="#m2949db5dd1" x="227.985756" y="16.62462" style="stroke: #000000; stroke-width: 0.5"/>
      </g>
     </g>
    </g>
    <g id="ytick_27">
     <g id="line2d_108">
      <g>
       <use xlink:href="#m5d2ba552da" x="32.685756" y="11.324405" style="stroke: #000000; stroke-width: 0.5"/>
      </g>
     </g>
     <g id="line2d_109">
      <g>
       <use xlink:href="#m2949db5dd1" x="227.985756" y="11.324405" style="stroke: #000000; stroke-width: 0.5"/>
      </g>
     </g>
    </g>
    <g id="ytick_28">
     <g id="line2d_110">
      <g>
       <use xlink:href="#m5d2ba552da" x="32.685756" y="6.024189" style="stroke: #000000; stroke-width: 0.5"/>
      </g>
     </g>
     <g id="line2d_111">
      <g>
       <use xlink:href="#m2949db5dd1" x="227.985756" y="6.024189" style="stroke: #000000; stroke-width: 0.5"/>
      </g>
     </g>
    </g>
    <g id="text_15">
     <!-- Density -->
     <g transform="translate(10.518498 92.92792) rotate(-90) scale(0.1 -0.1)">
      <defs>
       <path id="CMR17-44" d="M 333 4352 
L 333 4186 
C 774 4186 845 4186 845 3900 
L 845 452 
C 845 166 774 166 333 166 
L 333 0 
L 2368 0 
C 3398 0 4224 943 4224 2141 
C 4224 3346 3411 4352 2368 4352 
L 333 4352 
z
M 1523 166 
C 1267 166 1254 197 1254 414 
L 1254 3938 
C 1254 4155 1267 4186 1523 4186 
L 2240 4186 
C 2771 4186 3750 3874 3750 2141 
C 3750 1242 3488 879 3366 707 
C 3213 510 2848 166 2240 166 
L 1523 166 
z
" transform="scale(0.015625)"/>
       <path id="CMR17-65" d="M 2438 1472 
C 2464 1498 2464 1511 2464 1576 
C 2464 2238 2118 2816 1389 2816 
C 710 2816 173 2169 173 1383 
C 173 551 781 -64 1459 -64 
C 2176 -64 2458 607 2458 740 
C 2458 784 2419 784 2406 784 
C 2362 784 2355 771 2330 696 
C 2189 265 1837 51 1504 51 
C 1229 51 954 203 781 480 
C 582 803 582 1176 582 1472 
L 2438 1472 
z
M 589 1568 
C 634 2505 1126 2714 1382 2714 
C 1818 2714 2112 2297 2118 1568 
L 589 1568 
z
" transform="scale(0.015625)"/>
       <path id="CMR17-6e" d="M 2656 1933 
C 2656 2259 2592 2790 1837 2790 
C 1331 2790 1069 2400 973 2144 
L 966 2144 
L 966 2790 
L 211 2720 
L 211 2554 
C 589 2554 646 2515 646 2208 
L 646 428 
C 646 184 621 153 211 153 
L 211 -13 
C 365 0 646 0 813 0 
C 979 0 1267 0 1421 -13 
L 1421 153 
C 1011 153 986 178 986 428 
L 986 1658 
C 986 2247 1344 2688 1792 2688 
C 2266 2688 2317 2266 2317 1958 
L 2317 428 
C 2317 184 2291 153 1882 153 
L 1882 -13 
C 2035 0 2317 0 2483 0 
C 2650 0 2938 0 3091 -13 
L 3091 153 
C 2682 153 2656 178 2656 428 
L 2656 1933 
z
" transform="scale(0.015625)"/>
       <path id="CMR17-73" d="M 1978 2697 
C 1978 2813 1971 2819 1933 2819 
C 1907 2819 1901 2813 1824 2717 
C 1805 2691 1747 2626 1728 2601 
C 1523 2819 1235 2819 1126 2819 
C 416 2819 160 2447 160 2076 
C 160 1498 813 1365 998 1325 
C 1402 1243 1542 1217 1677 1101 
C 1760 1025 1901 884 1901 654 
C 1901 384 1747 38 1158 38 
C 602 38 403 460 288 1021 
C 269 1110 269 1117 218 1117 
C 166 1117 160 1110 160 983 
L 160 63 
C 160 -51 166 -58 205 -58 
C 237 -58 243 -51 275 0 
C 314 57 410 211 448 276 
C 576 103 800 -64 1158 -64 
C 1792 -64 2131 283 2131 784 
C 2131 1112 1958 1285 1875 1362 
C 1683 1561 1459 1606 1190 1657 
C 838 1735 390 1825 390 2217 
C 390 2383 480 2737 1126 2737 
C 1811 2737 1850 2094 1862 1888 
C 1869 1856 1901 1849 1920 1849 
C 1978 1849 1978 1869 1978 1978 
L 1978 2697 
z
" transform="scale(0.015625)"/>
       <path id="CMR17-69" d="M 992 3909 
C 992 4049 877 4170 730 4170 
C 589 4170 467 4056 467 3909 
C 467 3769 582 3648 730 3648 
C 870 3648 992 3763 992 3909 
z
M 243 2706 
L 243 2541 
C 602 2541 653 2502 653 2197 
L 653 427 
C 653 184 627 153 218 153 
L 218 -13 
C 371 0 646 0 806 0 
C 960 0 1222 0 1370 -13 
L 1370 153 
C 992 153 979 191 979 420 
L 979 2776 
L 243 2706 
z
" transform="scale(0.015625)"/>
       <path id="CMR17-74" d="M 966 2560 
L 1862 2560 
L 1862 2725 
L 966 2725 
L 966 3904 
L 851 3904 
C 838 3245 614 2668 70 2668 
L 70 2560 
L 627 2560 
L 627 771 
C 627 650 627 -64 1370 -64 
C 1747 -64 1965 306 1965 777 
L 1965 1140 
L 1850 1140 
L 1850 783 
C 1850 344 1677 51 1408 51 
C 1222 51 966 178 966 758 
L 966 2560 
z
" transform="scale(0.015625)"/>
       <path id="CMR17-79" d="M 2496 2197 
C 2656 2586 2944 2586 3034 2586 
L 3034 2752 
C 2912 2752 2752 2752 2630 2752 
C 2496 2752 2285 2752 2157 2758 
L 2157 2592 
C 2400 2573 2406 2394 2406 2343 
C 2406 2280 2394 2248 2362 2171 
L 1664 449 
L 902 2306 
C 870 2382 870 2426 870 2433 
C 870 2573 1018 2586 1171 2586 
L 1171 2758 
C 1018 2752 742 2752 582 2752 
C 410 2752 205 2752 64 2758 
L 64 2586 
C 410 2586 448 2554 531 2350 
L 1485 15 
C 1197 -738 1030 -1178 627 -1178 
C 557 -1178 397 -1159 282 -1044 
C 429 -1031 493 -942 493 -833 
C 493 -725 416 -629 288 -629 
C 147 -629 77 -725 77 -840 
C 77 -1095 339 -1280 627 -1280 
C 998 -1280 1229 -922 1357 -604 
L 2496 2197 
z
" transform="scale(0.015625)"/>
      </defs>
      <use xlink:href="#CMR17-44" transform="scale(0.996264)"/>
      <use xlink:href="#CMR17-65" transform="translate(70.393556 0) scale(0.996264)"/>
      <use xlink:href="#CMR17-6e" transform="translate(110.879216 0) scale(0.996264)"/>
      <use xlink:href="#CMR17-73" transform="translate(161.774586 0) scale(0.996264)"/>
      <use xlink:href="#CMR17-69" transform="translate(197.575924 0) scale(0.996264)"/>
      <use xlink:href="#CMR17-74" transform="translate(222.446982 0) scale(0.996264)"/>
      <use xlink:href="#CMR17-79" transform="translate(255.125296 0) scale(0.996264)"/>
     </g>
    </g>
   </g>
   <g id="PolyCollection_1">
    <defs>
     <path id="mcbad47d7ab" d="M 32.807769 -107.009083 
L 32.807769 -29.918317 
L 33.78842 -29.918317 
L 34.769072 -29.918317 
L 35.749723 -29.918317 
L 36.730374 -29.918317 
L 37.711025 -29.918317 
L 38.691676 -29.918317 
L 39.672327 -29.918317 
L 40.652978 -29.918317 
L 41.633629 -29.918317 
L 42.61428 -29.918317 
L 43.594931 -29.918317 
L 44.575582 -29.918317 
L 45.556233 -29.918317 
L 46.536884 -29.918317 
L 47.517535 -29.918317 
L 48.498186 -29.918317 
L 49.478837 -29.918317 
L 50.459488 -29.918317 
L 51.440139 -29.918317 
L 52.42079 -29.918317 
L 53.401441 -29.918317 
L 54.382092 -29.918317 
L 55.362743 -29.918317 
L 56.343394 -29.918317 
L 57.324045 -29.918317 
L 58.304696 -29.918317 
L 59.285347 -29.918317 
L 60.265998 -29.918317 
L 61.246649 -29.918317 
L 62.2273 -29.918317 
L 63.207951 -29.918317 
L 64.188602 -29.918317 
L 65.169253 -29.918317 
L 66.149904 -29.918317 
L 67.130555 -29.918317 
L 68.111206 -29.918317 
L 69.091857 -29.918317 
L 70.072508 -29.918317 
L 71.053159 -29.918317 
L 72.03381 -29.918317 
L 73.014461 -29.918317 
L 73.995112 -29.918317 
L 74.975764 -29.918317 
L 75.956415 -29.918317 
L 76.937066 -29.918317 
L 77.917717 -29.918317 
L 78.898368 -29.918317 
L 79.879019 -29.918317 
L 80.85967 -29.918317 
L 81.840321 -29.918317 
L 82.820972 -29.918317 
L 83.801623 -29.918317 
L 84.782274 -29.918317 
L 85.762925 -29.918317 
L 86.743576 -29.918317 
L 87.724227 -29.918317 
L 88.704878 -29.918317 
L 89.685529 -29.918317 
L 90.66618 -29.918317 
L 91.646831 -29.918317 
L 92.627482 -29.918317 
L 93.608133 -29.918317 
L 94.588784 -29.918317 
L 95.569435 -29.918317 
L 96.550086 -29.918317 
L 97.530737 -29.918317 
L 98.511388 -29.918317 
L 99.492039 -29.918317 
L 100.47269 -29.918317 
L 101.453341 -29.918317 
L 102.433992 -29.918317 
L 103.414643 -29.918317 
L 104.395294 -29.918317 
L 105.375945 -29.918317 
L 106.356596 -29.918317 
L 107.337247 -29.918317 
L 108.317898 -29.918317 
L 109.298549 -29.918317 
L 110.2792 -29.918317 
L 111.259851 -29.918317 
L 112.240502 -29.918317 
L 113.221153 -29.918317 
L 114.201805 -29.918317 
L 115.182456 -29.918317 
L 116.163107 -29.918317 
L 117.143758 -29.918317 
L 118.124409 -29.918317 
L 119.10506 -29.918317 
L 120.085711 -29.918317 
L 121.066362 -29.918317 
L 122.047013 -29.918317 
L 123.027664 -29.918317 
L 124.008315 -29.918317 
L 124.988966 -29.918317 
L 125.969617 -29.918317 
L 126.950268 -29.918317 
L 127.930919 -29.918317 
L 128.91157 -29.918317 
L 129.892221 -29.918317 
L 130.872872 -29.918317 
L 131.853523 -29.918317 
L 132.834174 -29.918317 
L 133.814825 -29.918317 
L 134.795476 -29.918317 
L 135.776127 -29.918317 
L 136.756778 -29.918317 
L 137.737429 -29.918317 
L 138.71808 -29.918317 
L 139.698731 -29.918317 
L 140.679382 -29.918317 
L 141.660033 -29.918317 
L 142.640684 -29.918317 
L 143.621335 -29.918317 
L 144.601986 -29.918317 
L 145.582637 -29.918317 
L 146.563288 -29.918317 
L 147.543939 -29.918317 
L 148.52459 -29.918317 
L 149.505241 -29.918317 
L 150.485892 -29.918317 
L 151.466543 -29.918317 
L 152.447194 -29.918317 
L 153.427845 -29.918317 
L 154.408497 -29.918317 
L 155.389148 -29.918317 
L 156.369799 -29.918317 
L 157.35045 -29.918317 
L 158.331101 -29.918317 
L 159.311752 -29.918317 
L 160.292403 -29.918317 
L 161.273054 -29.918317 
L 162.253705 -29.918317 
L 163.234356 -29.918317 
L 164.215007 -29.918317 
L 165.195658 -29.918317 
L 166.176309 -29.918317 
L 167.15696 -29.918317 
L 168.137611 -29.918317 
L 169.118262 -29.918317 
L 170.098913 -29.918317 
L 171.079564 -29.918317 
L 172.060215 -29.918317 
L 173.040866 -29.918317 
L 174.021517 -29.918317 
L 175.002168 -29.918317 
L 175.982819 -29.918317 
L 176.96347 -29.918317 
L 177.944121 -29.918317 
L 178.924772 -29.918317 
L 179.905423 -29.918317 
L 180.886074 -29.918317 
L 181.866725 -29.918317 
L 182.847376 -29.918317 
L 183.828027 -29.918317 
L 184.808678 -29.918317 
L 185.789329 -29.918317 
L 186.76998 -29.918317 
L 187.750631 -29.918317 
L 188.731282 -29.918317 
L 189.711933 -29.918317 
L 190.692584 -29.918317 
L 191.673235 -29.918317 
L 192.653886 -29.918317 
L 193.634537 -29.918317 
L 194.615189 -29.918317 
L 195.59584 -29.918317 
L 196.576491 -29.918317 
L 197.557142 -29.918317 
L 198.537793 -29.918317 
L 199.518444 -29.918317 
L 200.499095 -29.918317 
L 201.479746 -29.918317 
L 202.460397 -29.918317 
L 203.441048 -29.918317 
L 204.421699 -29.918317 
L 205.40235 -29.918317 
L 206.383001 -29.918317 
L 207.363652 -29.918317 
L 208.344303 -29.918317 
L 209.324954 -29.918317 
L 210.305605 -29.918317 
L 211.286256 -29.918317 
L 212.266907 -29.918317 
L 213.247558 -29.918317 
L 214.228209 -29.918317 
L 215.20886 -29.918317 
L 216.189511 -29.918317 
L 217.170162 -29.918317 
L 218.150813 -29.918317 
L 219.131464 -29.918317 
L 220.112115 -29.918317 
L 221.092766 -29.918317 
L 222.073417 -29.918317 
L 223.054068 -29.918317 
L 224.034719 -29.918317 
L 225.01537 -29.918317 
L 225.996021 -29.918317 
L 226.976672 -29.918317 
L 227.957323 -29.918317 
L 227.957323 -102.126925 
L 227.957323 -102.126925 
L 226.976672 -106.562629 
L 225.996021 -110.997441 
L 225.01537 -115.406495 
L 224.034719 -119.764839 
L 223.054068 -124.04776 
L 222.073417 -128.231113 
L 221.092766 -132.29163 
L 220.112115 -136.207218 
L 219.131464 -139.957224 
L 218.150813 -143.522677 
L 217.170162 -146.886497 
L 216.189511 -150.033661 
L 215.20886 -152.951343 
L 214.228209 -155.629002 
L 213.247558 -158.058439 
L 212.266907 -160.233813 
L 211.286256 -162.151616 
L 210.305605 -163.810614 
L 209.324954 -165.211758 
L 208.344303 -166.35806 
L 207.363652 -167.254444 
L 206.383001 -167.907578 
L 205.40235 -168.325679 
L 204.421699 -168.518317 
L 203.441048 -168.496195 
L 202.460397 -168.270939 
L 201.479746 -167.854876 
L 200.499095 -167.260823 
L 199.518444 -166.501882 
L 198.537793 -165.591249 
L 197.557142 -164.542038 
L 196.576491 -163.367121 
L 195.59584 -162.078993 
L 194.615189 -160.689657 
L 193.634537 -159.210532 
L 192.653886 -157.652385 
L 191.673235 -156.025289 
L 190.692584 -154.338596 
L 189.711933 -152.600939 
L 188.731282 -150.82025 
L 187.750631 -149.003784 
L 186.76998 -147.158172 
L 185.789329 -145.289473 
L 184.808678 -143.403234 
L 183.828027 -141.504556 
L 182.847376 -139.598158 
L 181.866725 -137.688446 
L 180.886074 -135.779564 
L 179.905423 -133.875456 
L 178.924772 -131.979907 
L 177.944121 -130.096582 
L 176.96347 -128.229057 
L 175.982819 -126.380837 
L 175.002168 -124.555369 
L 174.021517 -122.756047 
L 173.040866 -120.986207 
L 172.060215 -119.249119 
L 171.079564 -117.547974 
L 170.098913 -115.885866 
L 169.118262 -114.265773 
L 168.137611 -112.690536 
L 167.15696 -111.162836 
L 166.176309 -109.685178 
L 165.195658 -108.259866 
L 164.215007 -106.888991 
L 163.234356 -105.57441 
L 162.253705 -104.317739 
L 161.273054 -103.120342 
L 160.292403 -101.983324 
L 159.311752 -100.907528 
L 158.331101 -99.893536 
L 157.35045 -98.941676 
L 156.369799 -98.052024 
L 155.389148 -97.224421 
L 154.408497 -96.458482 
L 153.427845 -95.753619 
L 152.447194 -95.10906 
L 151.466543 -94.52387 
L 150.485892 -93.996981 
L 149.505241 -93.527218 
L 148.52459 -93.113326 
L 147.543939 -92.754003 
L 146.563288 -92.447924 
L 145.582637 -92.193767 
L 144.601986 -91.990241 
L 143.621335 -91.836105 
L 142.640684 -91.73018 
L 141.660033 -91.671364 
L 140.679382 -91.658632 
L 139.698731 -91.691039 
L 138.71808 -91.76771 
L 137.737429 -91.887822 
L 136.756778 -92.05059 
L 135.776127 -92.255235 
L 134.795476 -92.500959 
L 133.814825 -92.786912 
L 132.834174 -93.112156 
L 131.853523 -93.47563 
L 130.872872 -93.876123 
L 129.892221 -94.312241 
L 128.91157 -94.782383 
L 127.930919 -95.284727 
L 126.950268 -95.817217 
L 125.969617 -96.377564 
L 124.988966 -96.963256 
L 124.008315 -97.571571 
L 123.027664 -98.19961 
L 122.047013 -98.844336 
L 121.066362 -99.502613 
L 120.085711 -100.171267 
L 119.10506 -100.847144 
L 118.124409 -101.527173 
L 117.143758 -102.208438 
L 116.163107 -102.888244 
L 115.182456 -103.564185 
L 114.201805 -104.234212 
L 113.221153 -104.896689 
L 112.240502 -105.550448 
L 111.259851 -106.19483 
L 110.2792 -106.829723 
L 109.298549 -107.455582 
L 108.317898 -108.073436 
L 107.337247 -108.684889 
L 106.356596 -109.292098 
L 105.375945 -109.897746 
L 104.395294 -110.504998 
L 103.414643 -111.117444 
L 102.433992 -111.739033 
L 101.453341 -112.373998 
L 100.47269 -113.026772 
L 99.492039 -113.701898 
L 98.511388 -114.403934 
L 97.530737 -115.137356 
L 96.550086 -115.90647 
L 95.569435 -116.715308 
L 94.588784 -117.56755 
L 93.608133 -118.466432 
L 92.627482 -119.41468 
L 91.646831 -120.414441 
L 90.66618 -121.467232 
L 89.685529 -122.573893 
L 88.704878 -123.734564 
L 87.724227 -124.948665 
L 86.743576 -126.214895 
L 85.762925 -127.531239 
L 84.782274 -128.894991 
L 83.801623 -130.302789 
L 82.820972 -131.750658 
L 81.840321 -133.234063 
L 80.85967 -134.747968 
L 79.879019 -136.286904 
L 78.898368 -137.845036 
L 77.917717 -139.416237 
L 76.937066 -140.994151 
L 75.956415 -142.572262 
L 74.975764 -144.143956 
L 73.995112 -145.702564 
L 73.014461 -147.241412 
L 72.03381 -148.753845 
L 71.053159 -150.233244 
L 70.072508 -151.673028 
L 69.091857 -153.066644 
L 68.111206 -154.407539 
L 67.130555 -155.689126 
L 66.149904 -156.904733 
L 65.169253 -158.047549 
L 64.188602 -159.110562 
L 63.207951 -160.086501 
L 62.2273 -160.967774 
L 61.246649 -161.746422 
L 60.265998 -162.41408 
L 59.285347 -162.961957 
L 58.304696 -163.380838 
L 57.324045 -163.661113 
L 56.343394 -163.792827 
L 55.362743 -163.765773 
L 54.382092 -163.569605 
L 53.401441 -163.193988 
L 52.42079 -162.628779 
L 51.440139 -161.864233 
L 50.459488 -160.891231 
L 49.478837 -159.701528 
L 48.498186 -158.288011 
L 47.517535 -156.644958 
L 46.536884 -154.768298 
L 45.556233 -152.655845 
L 44.575582 -150.307522 
L 43.594931 -147.725544 
L 42.61428 -144.914567 
L 41.633629 -141.881785 
L 40.652978 -138.636977 
L 39.672327 -135.192497 
L 38.691676 -131.563204 
L 37.711025 -127.766328 
L 36.730374 -123.821284 
L 35.749723 -119.749426 
L 34.769072 -115.57375 
L 33.78842 -111.318557 
L 32.807769 -107.009083 
z
" style="stroke: #4477aa"/>
    </defs>
    <g clip-path="url(#pb6020c7451)">
     <use xlink:href="#mcbad47d7ab" x="0" y="179.048317" style="fill: #4477aa; fill-opacity: 0.25; stroke: #4477aa"/>
    </g>
   </g>
   <g id="PolyCollection_2">
    <defs>
     <path id="m6803e8d065" d="M 33.063787 -79.727897 
L 33.063787 -29.918317 
L 34.042601 -29.918317 
L 35.021416 -29.918317 
L 36.000231 -29.918317 
L 36.979045 -29.918317 
L 37.95786 -29.918317 
L 38.936675 -29.918317 
L 39.915489 -29.918317 
L 40.894304 -29.918317 
L 41.873119 -29.918317 
L 42.851933 -29.918317 
L 43.830748 -29.918317 
L 44.809563 -29.918317 
L 45.788378 -29.918317 
L 46.767192 -29.918317 
L 47.746007 -29.918317 
L 48.724822 -29.918317 
L 49.703636 -29.918317 
L 50.682451 -29.918317 
L 51.661266 -29.918317 
L 52.64008 -29.918317 
L 53.618895 -29.918317 
L 54.59771 -29.918317 
L 55.576524 -29.918317 
L 56.555339 -29.918317 
L 57.534154 -29.918317 
L 58.512968 -29.918317 
L 59.491783 -29.918317 
L 60.470598 -29.918317 
L 61.449413 -29.918317 
L 62.428227 -29.918317 
L 63.407042 -29.918317 
L 64.385857 -29.918317 
L 65.364671 -29.918317 
L 66.343486 -29.918317 
L 67.322301 -29.918317 
L 68.301115 -29.918317 
L 69.27993 -29.918317 
L 70.258745 -29.918317 
L 71.237559 -29.918317 
L 72.216374 -29.918317 
L 73.195189 -29.918317 
L 74.174004 -29.918317 
L 75.152818 -29.918317 
L 76.131633 -29.918317 
L 77.110448 -29.918317 
L 78.089262 -29.918317 
L 79.068077 -29.918317 
L 80.046892 -29.918317 
L 81.025706 -29.918317 
L 82.004521 -29.918317 
L 82.983336 -29.918317 
L 83.96215 -29.918317 
L 84.940965 -29.918317 
L 85.91978 -29.918317 
L 86.898594 -29.918317 
L 87.877409 -29.918317 
L 88.856224 -29.918317 
L 89.835039 -29.918317 
L 90.813853 -29.918317 
L 91.792668 -29.918317 
L 92.771483 -29.918317 
L 93.750297 -29.918317 
L 94.729112 -29.918317 
L 95.707927 -29.918317 
L 96.686741 -29.918317 
L 97.665556 -29.918317 
L 98.644371 -29.918317 
L 99.623185 -29.918317 
L 100.602 -29.918317 
L 101.580815 -29.918317 
L 102.55963 -29.918317 
L 103.538444 -29.918317 
L 104.517259 -29.918317 
L 105.496074 -29.918317 
L 106.474888 -29.918317 
L 107.453703 -29.918317 
L 108.432518 -29.918317 
L 109.411332 -29.918317 
L 110.390147 -29.918317 
L 111.368962 -29.918317 
L 112.347776 -29.918317 
L 113.326591 -29.918317 
L 114.305406 -29.918317 
L 115.28422 -29.918317 
L 116.263035 -29.918317 
L 117.24185 -29.918317 
L 118.220665 -29.918317 
L 119.199479 -29.918317 
L 120.178294 -29.918317 
L 121.157109 -29.918317 
L 122.135923 -29.918317 
L 123.114738 -29.918317 
L 124.093553 -29.918317 
L 125.072367 -29.918317 
L 126.051182 -29.918317 
L 127.029997 -29.918317 
L 128.008811 -29.918317 
L 128.987626 -29.918317 
L 129.966441 -29.918317 
L 130.945256 -29.918317 
L 131.92407 -29.918317 
L 132.902885 -29.918317 
L 133.8817 -29.918317 
L 134.860514 -29.918317 
L 135.839329 -29.918317 
L 136.818144 -29.918317 
L 137.796958 -29.918317 
L 138.775773 -29.918317 
L 139.754588 -29.918317 
L 140.733402 -29.918317 
L 141.712217 -29.918317 
L 142.691032 -29.918317 
L 143.669846 -29.918317 
L 144.648661 -29.918317 
L 145.627476 -29.918317 
L 146.606291 -29.918317 
L 147.585105 -29.918317 
L 148.56392 -29.918317 
L 149.542735 -29.918317 
L 150.521549 -29.918317 
L 151.500364 -29.918317 
L 152.479179 -29.918317 
L 153.457993 -29.918317 
L 154.436808 -29.918317 
L 155.415623 -29.918317 
L 156.394437 -29.918317 
L 157.373252 -29.918317 
L 158.352067 -29.918317 
L 159.330881 -29.918317 
L 160.309696 -29.918317 
L 161.288511 -29.918317 
L 162.267326 -29.918317 
L 163.24614 -29.918317 
L 164.224955 -29.918317 
L 165.20377 -29.918317 
L 166.182584 -29.918317 
L 167.161399 -29.918317 
L 168.140214 -29.918317 
L 169.119028 -29.918317 
L 170.097843 -29.918317 
L 171.076658 -29.918317 
L 172.055472 -29.918317 
L 173.034287 -29.918317 
L 174.013102 -29.918317 
L 174.991917 -29.918317 
L 175.970731 -29.918317 
L 176.949546 -29.918317 
L 177.928361 -29.918317 
L 178.907175 -29.918317 
L 179.88599 -29.918317 
L 180.864805 -29.918317 
L 181.843619 -29.918317 
L 182.822434 -29.918317 
L 183.801249 -29.918317 
L 184.780063 -29.918317 
L 185.758878 -29.918317 
L 186.737693 -29.918317 
L 187.716507 -29.918317 
L 188.695322 -29.918317 
L 189.674137 -29.918317 
L 190.652952 -29.918317 
L 191.631766 -29.918317 
L 192.610581 -29.918317 
L 193.589396 -29.918317 
L 194.56821 -29.918317 
L 195.547025 -29.918317 
L 196.52584 -29.918317 
L 197.504654 -29.918317 
L 198.483469 -29.918317 
L 199.462284 -29.918317 
L 200.441098 -29.918317 
L 201.419913 -29.918317 
L 202.398728 -29.918317 
L 203.377543 -29.918317 
L 204.356357 -29.918317 
L 205.335172 -29.918317 
L 206.313987 -29.918317 
L 207.292801 -29.918317 
L 208.271616 -29.918317 
L 209.250431 -29.918317 
L 210.229245 -29.918317 
L 211.20806 -29.918317 
L 212.186875 -29.918317 
L 213.165689 -29.918317 
L 214.144504 -29.918317 
L 215.123319 -29.918317 
L 216.102133 -29.918317 
L 217.080948 -29.918317 
L 218.059763 -29.918317 
L 219.038578 -29.918317 
L 220.017392 -29.918317 
L 220.996207 -29.918317 
L 221.975022 -29.918317 
L 222.953836 -29.918317 
L 223.932651 -29.918317 
L 224.911466 -29.918317 
L 225.89028 -29.918317 
L 226.869095 -29.918317 
L 227.84791 -29.918317 
L 227.84791 -79.101319 
L 227.84791 -79.101319 
L 226.869095 -82.501713 
L 225.89028 -85.913396 
L 224.911466 -89.317916 
L 223.932651 -92.697611 
L 222.953836 -96.03594 
L 221.975022 -99.317761 
L 220.996207 -102.529559 
L 220.017392 -105.659594 
L 219.038578 -108.697994 
L 218.059763 -111.636772 
L 217.080948 -114.469775 
L 216.102133 -117.192586 
L 215.123319 -119.802358 
L 214.144504 -122.297626 
L 213.165689 -124.67808 
L 212.186875 -126.944324 
L 211.20806 -129.097642 
L 210.229245 -131.139757 
L 209.250431 -133.072622 
L 208.271616 -134.898235 
L 207.292801 -136.618479 
L 206.313987 -138.235012 
L 205.335172 -139.74919 
L 204.356357 -141.162025 
L 203.377543 -142.474188 
L 202.398728 -143.686042 
L 201.419913 -144.797696 
L 200.441098 -145.809097 
L 199.462284 -146.720121 
L 198.483469 -147.530685 
L 197.504654 -148.240863 
L 196.52584 -148.850988 
L 195.547025 -149.361765 
L 194.56821 -149.774357 
L 193.589396 -150.09046 
L 192.610581 -150.312368 
L 191.631766 -150.443007 
L 190.652952 -150.485953 
L 189.674137 -150.445431 
L 188.695322 -150.326284 
L 187.716507 -150.133937 
L 186.737693 -149.874324 
L 185.758878 -149.553812 
L 184.780063 -149.179106 
L 183.801249 -148.75714 
L 182.822434 -148.294963 
L 181.843619 -147.799621 
L 180.864805 -147.278032 
L 179.88599 -146.736868 
L 178.907175 -146.182441 
L 177.928361 -145.620599 
L 176.949546 -145.056633 
L 175.970731 -144.495203 
L 174.991917 -143.940276 
L 174.013102 -143.395088 
L 173.034287 -142.862132 
L 172.055472 -142.343156 
L 171.076658 -141.839195 
L 170.097843 -141.350618 
L 169.119028 -140.877196 
L 168.140214 -140.418186 
L 167.161399 -139.972433 
L 166.182584 -139.538475 
L 165.20377 -139.114663 
L 164.224955 -138.699274 
L 163.24614 -138.290628 
L 162.267326 -137.887193 
L 161.288511 -137.487681 
L 160.309696 -137.091124 
L 159.330881 -136.696935 
L 158.352067 -136.304945 
L 157.373252 -135.915419 
L 156.394437 -135.529043 
L 155.415623 -135.146895 
L 154.436808 -134.77039 
L 153.457993 -134.40121 
L 152.479179 -134.041213 
L 151.500364 -133.692339 
L 150.521549 -133.356508 
L 149.542735 -133.035514 
L 148.56392 -132.730931 
L 147.585105 -132.444022 
L 146.606291 -132.175671 
L 145.627476 -131.926322 
L 144.648661 -131.695952 
L 143.669846 -131.484055 
L 142.691032 -131.289655 
L 141.712217 -131.111343 
L 140.733402 -130.947326 
L 139.754588 -130.795498 
L 138.775773 -130.653528 
L 137.796958 -130.518948 
L 136.818144 -130.38925 
L 135.839329 -130.261983 
L 134.860514 -130.13484 
L 133.8817 -130.005741 
L 132.902885 -129.872899 
L 131.92407 -129.734875 
L 130.945256 -129.590612 
L 129.966441 -129.439462 
L 128.987626 -129.281186 
L 128.008811 -129.115949 
L 127.029997 -128.944302 
L 126.051182 -128.767154 
L 125.072367 -128.585739 
L 124.093553 -128.401583 
L 123.114738 -128.21647 
L 122.135923 -128.032408 
L 121.157109 -127.851608 
L 120.178294 -127.676454 
L 119.199479 -127.509492 
L 118.220665 -127.35341 
L 117.24185 -127.21103 
L 116.263035 -127.085291 
L 115.28422 -126.979239 
L 114.305406 -126.895996 
L 113.326591 -126.83874 
L 112.347776 -126.810657 
L 111.368962 -126.814898 
L 110.390147 -126.854509 
L 109.411332 -126.932365 
L 108.432518 -127.051084 
L 107.453703 -127.212944 
L 106.474888 -127.419785 
L 105.496074 -127.672931 
L 104.517259 -127.973099 
L 103.538444 -128.320334 
L 102.55963 -128.713952 
L 101.580815 -129.152504 
L 100.602 -129.633766 
L 99.623185 -130.154748 
L 98.644371 -130.711733 
L 97.665556 -131.300339 
L 96.686741 -131.915601 
L 95.707927 -132.552082 
L 94.729112 -133.203984 
L 93.750297 -133.865287 
L 92.771483 -134.529877 
L 91.792668 -135.191684 
L 90.813853 -135.844807 
L 89.835039 -136.483635 
L 88.856224 -137.10294 
L 87.877409 -137.697967 
L 86.898594 -138.264488 
L 85.91978 -138.798841 
L 84.940965 -139.297948 
L 83.96215 -139.759308 
L 82.983336 -140.180972 
L 82.004521 -140.561502 
L 81.025706 -140.899919 
L 80.046892 -141.195638 
L 79.068077 -141.448401 
L 78.089262 -141.6582 
L 77.110448 -141.825214 
L 76.131633 -141.949733 
L 75.152818 -142.032098 
L 74.174004 -142.072642 
L 73.195189 -142.07164 
L 72.216374 -142.02926 
L 71.237559 -141.94553 
L 70.258745 -141.8203 
L 69.27993 -141.65321 
L 68.301115 -141.443667 
L 67.322301 -141.190816 
L 66.343486 -140.893512 
L 65.364671 -140.550293 
L 64.385857 -140.159354 
L 63.407042 -139.718515 
L 62.428227 -139.225193 
L 61.449413 -138.676372 
L 60.470598 -138.068577 
L 59.491783 -137.397856 
L 58.512968 -136.659768 
L 57.534154 -135.849385 
L 56.555339 -134.961304 
L 55.576524 -133.989691 
L 54.59771 -132.928333 
L 53.618895 -131.770724 
L 52.64008 -130.510179 
L 51.661266 -129.139969 
L 50.682451 -127.653494 
L 49.703636 -126.044469 
L 48.724822 -124.307147 
L 47.746007 -122.436546 
L 46.767192 -120.428691 
L 45.788378 -118.280865 
L 44.809563 -115.991838 
L 43.830748 -113.56209 
L 42.851933 -110.994001 
L 41.873119 -108.292005 
L 40.894304 -105.462694 
L 39.915489 -102.514867 
L 38.936675 -99.459516 
L 37.95786 -96.30975 
L 36.979045 -93.080648 
L 36.000231 -89.789045 
L 35.021416 -86.453265 
L 34.042601 -83.09279 
L 33.063787 -79.727897 
z
" style="stroke: #ee6677"/>
    </defs>
    <g clip-path="url(#pb6020c7451)">
     <use xlink:href="#m6803e8d065" x="0" y="179.048317" style="fill: #ee6677; fill-opacity: 0.25; stroke: #ee6677"/>
    </g>
   </g>
   <g id="patch_3">
    <path d="M 32.685756 149.13 
L 32.685756 3.6 
" style="fill: none; stroke: #000000; stroke-width: 0.5; stroke-linejoin: miter; stroke-linecap: square"/>
   </g>
   <g id="patch_4">
    <path d="M 227.985756 149.13 
L 227.985756 3.6 
" style="fill: none; stroke: #000000; stroke-width: 0.5; stroke-linejoin: miter; stroke-linecap: square"/>
   </g>
   <g id="patch_5">
    <path d="M 32.685756 149.13 
L 227.985756 149.13 
" style="fill: none; stroke: #000000; stroke-width: 0.5; stroke-linejoin: miter; stroke-linecap: square"/>
   </g>
   <g id="patch_6">
    <path d="M 32.685756 3.6 
L 227.985756 3.6 
" style="fill: none; stroke: #000000; stroke-width: 0.5; stroke-linejoin: miter; stroke-linecap: square"/>
   </g>
   <g id="legend_1">
    <g id="patch_7">
     <path d="M 39.685756 144.13 
L 102.644459 144.13 
Q 104.644459 144.13 104.644459 142.13 
L 104.644459 115.255643 
Q 104.644459 113.255643 102.644459 113.255643 
L 39.685756 113.255643 
Q 37.685756 113.255643 37.685756 115.255643 
L 37.685756 142.13 
Q 37.685756 144.13 39.685756 144.13 
z
" style="fill: #ffffff; stroke: #cccccc; stroke-linejoin: miter"/>
    </g>
    <g id="patch_8">
     <path d="M 41.685756 124.255643 
L 61.685756 124.255643 
L 61.685756 117.255643 
L 41.685756 117.255643 
z
" style="fill: #4477aa; fill-opacity: 0.25; stroke: #4477aa; stroke-linejoin: miter"/>
    </g>
    <g id="text_16">
     <!-- $Max~\mathcal{G}$ -->
     <g transform="translate(69.685756 124.255643) scale(0.1 -0.1)">
      <defs>
       <path id="CMMI12-4d" d="M 5811 3886 
C 5869 4103 5882 4167 6336 4167 
C 6458 4167 6515 4167 6515 4288 
C 6515 4352 6470 4352 6349 4352 
L 5581 4352 
C 5421 4352 5414 4346 5344 4243 
L 3008 562 
L 2528 4211 
C 2509 4352 2502 4352 2336 4352 
L 1542 4352 
C 1421 4352 1363 4352 1363 4231 
C 1363 4167 1421 4167 1517 4167 
C 1907 4167 1907 4116 1907 4046 
C 1907 4034 1907 3995 1882 3899 
L 1062 634 
C 986 327 838 186 410 186 
C 390 186 314 186 314 73 
C 314 0 371 0 397 0 
C 525 0 851 0 979 0 
L 1286 0 
C 1376 0 1485 0 1574 0 
C 1619 0 1690 0 1690 122 
C 1690 180 1626 186 1600 186 
C 1389 186 1184 224 1184 454 
C 1184 518 1184 524 1210 613 
L 2093 4129 
L 2099 4129 
L 2630 172 
C 2650 19 2656 0 2714 0 
C 2784 0 2816 51 2848 109 
L 5421 4161 
L 5427 4161 
L 4499 473 
C 4442 250 4429 186 3981 186 
C 3859 186 3795 186 3795 70 
C 3795 0 3853 0 3891 0 
C 4000 0 4128 0 4237 0 
L 4992 0 
C 5101 0 5235 0 5344 0 
C 5395 0 5466 0 5466 122 
C 5466 186 5408 186 5312 186 
C 4922 186 4922 234 4922 294 
C 4922 301 4922 345 4934 396 
L 5811 3886 
z
" transform="scale(0.015625)"/>
       <path id="CMMI12-61" d="M 1926 760 
C 1894 651 1894 639 1805 517 
C 1664 338 1382 64 1082 64 
C 819 64 672 300 672 677 
C 672 1028 870 1743 992 2012 
C 1210 2459 1510 2689 1760 2689 
C 2182 2689 2266 2165 2266 2114 
C 2266 2108 2246 2024 2240 2012 
L 1926 760 
z
M 2336 2395 
C 2266 2561 2093 2816 1760 2816 
C 1037 2816 256 1884 256 939 
C 256 307 627 -64 1062 -64 
C 1414 -64 1715 211 1894 422 
C 1958 45 2259 -64 2451 -64 
C 2643 -64 2797 51 2912 281 
C 3014 498 3104 888 3104 913 
C 3104 945 3078 971 3040 971 
C 2982 971 2976 939 2950 843 
C 2854 466 2733 64 2470 64 
C 2285 64 2272 230 2272 358 
C 2272 505 2291 575 2349 824 
C 2394 984 2426 1124 2477 1309 
C 2714 2267 2771 2497 2771 2535 
C 2771 2625 2701 2695 2605 2695 
C 2400 2695 2349 2472 2336 2395 
z
" transform="scale(0.015625)"/>
       <path id="CMMI12-78" d="M 3034 2606 
C 2829 2567 2752 2414 2752 2293 
C 2752 2139 2874 2088 2963 2088 
C 3155 2088 3290 2254 3290 2427 
C 3290 2695 2982 2816 2714 2816 
C 2323 2816 2106 2433 2048 2312 
C 1901 2816 1504 2816 1389 2816 
C 736 2816 390 1980 390 1839 
C 390 1814 416 1782 461 1782 
C 512 1782 525 1820 538 1846 
C 755 2555 1184 2689 1370 2689 
C 1658 2689 1715 2420 1715 2267 
C 1715 2127 1677 1980 1600 1673 
L 1382 798 
C 1286 415 1101 64 762 64 
C 730 64 570 64 435 147 
C 666 192 717 383 717 460 
C 717 588 621 664 499 664 
C 346 664 179 530 179 326 
C 179 57 480 -64 755 -64 
C 1062 -64 1280 179 1414 441 
C 1517 64 1837 -64 2074 -64 
C 2726 -64 3072 773 3072 913 
C 3072 945 3046 971 3008 971 
C 2950 971 2944 939 2925 888 
C 2752 326 2381 64 2093 64 
C 1869 64 1747 230 1747 492 
C 1747 632 1773 734 1875 1156 
L 2099 2024 
C 2195 2408 2413 2689 2707 2689 
C 2720 2689 2899 2689 3034 2606 
z
" transform="scale(0.015625)"/>
       <path id="CMSY10-47" d="M 2790 1063 
C 2618 480 2451 179 2387 74 
C 2138 -371 2003 -384 1786 -384 
C 1677 -384 1222 -384 845 -114 
C 557 -114 333 -343 333 -416 
C 333 -474 768 -743 1363 -743 
C 1824 -743 2579 -497 3059 552 
C 3226 913 3334 1280 3354 1357 
C 3482 1801 3616 2316 3616 2343 
C 3616 2381 3603 2401 3546 2401 
C 3488 2401 3379 2369 3245 2279 
C 3098 2184 3091 2152 3046 1993 
C 2982 1775 2605 832 1811 832 
C 1190 832 826 1336 826 2056 
C 826 2547 1024 3204 1395 3650 
C 1568 3854 1882 4192 2605 4192 
C 2726 4192 2912 4173 3072 4122 
C 3142 4102 3302 4052 3302 3847 
C 3302 3631 2970 3222 2944 3185 
C 2918 3159 2899 3134 2899 3108 
C 2899 3063 2931 3063 2970 3063 
C 3155 3063 3366 3236 3539 3472 
C 3590 3542 3846 3900 3846 4116 
C 3846 4378 3648 4442 3571 4467 
C 3334 4544 3117 4544 3027 4544 
C 1581 4544 282 3281 282 1782 
C 282 1137 570 480 1395 480 
C 1875 480 2368 723 2790 1063 
z
" transform="scale(0.015625)"/>
      </defs>
      <use xlink:href="#CMMI12-4d" transform="scale(0.996264)"/>
      <use xlink:href="#CMMI12-61" transform="translate(104.780079 0) scale(0.996264)"/>
      <use xlink:href="#CMMI12-78" transform="translate(155.987936 0) scale(0.996264)"/>
      <use xlink:href="#CMSY10-47" transform="translate(241.497962 0) scale(0.996264)"/>
     </g>
    </g>
    <g id="patch_9">
     <path d="M 41.685756 138.192822 
L 61.685756 138.192822 
L 61.685756 131.192822 
L 41.685756 131.192822 
z
" style="fill: #ee6677; fill-opacity: 0.25; stroke: #ee6677; stroke-linejoin: miter"/>
    </g>
    <g id="text_17">
     <!-- $Min~\beta$ -->
     <g transform="translate(69.685756 138.192822) scale(0.1 -0.1)">
      <defs>
       <path id="CMMI12-69" d="M 1811 913 
C 1811 945 1786 971 1747 971 
C 1690 971 1683 952 1651 843 
C 1485 262 1222 64 1011 64 
C 934 64 845 83 845 275 
C 845 447 922 639 992 830 
L 1440 2018 
C 1459 2069 1504 2184 1504 2305 
C 1504 2574 1312 2816 998 2816 
C 410 2816 173 1890 173 1839 
C 173 1814 198 1782 243 1782 
C 301 1782 307 1807 333 1896 
C 486 2428 730 2682 979 2682 
C 1037 2682 1146 2682 1146 2478 
C 1146 2312 1062 2101 1011 1961 
L 563 773 
C 525 671 486 568 486 453 
C 486 166 685 -64 992 -64 
C 1581 -64 1811 869 1811 913 
z
M 1760 4013 
C 1760 4109 1683 4224 1542 4224 
C 1395 4224 1229 4083 1229 3917 
C 1229 3758 1363 3707 1440 3707 
C 1613 3707 1760 3873 1760 4013 
z
" transform="scale(0.015625)"/>
       <path id="CMMI12-6e" d="M 1318 1871 
C 1331 1910 1491 2229 1728 2433 
C 1894 2586 2112 2689 2362 2689 
C 2618 2689 2707 2497 2707 2242 
C 2707 1878 2445 1150 2317 805 
C 2259 651 2227 568 2227 453 
C 2227 166 2426 -64 2733 -64 
C 3328 -64 3552 875 3552 913 
C 3552 945 3526 971 3488 971 
C 3430 971 3424 952 3392 843 
C 3245 319 3002 64 2752 64 
C 2688 64 2586 64 2586 269 
C 2586 429 2656 621 2694 710 
C 2822 1063 3091 1780 3091 2145 
C 3091 2528 2867 2816 2381 2816 
C 1811 2816 1510 2415 1395 2255 
C 1376 2618 1114 2816 832 2816 
C 627 2816 486 2695 378 2478 
C 262 2248 173 1865 173 1839 
C 173 1814 198 1782 243 1782 
C 294 1782 301 1788 339 1935 
C 442 2325 557 2689 813 2689 
C 960 2689 1011 2586 1011 2395 
C 1011 2254 947 2005 902 1807 
L 723 1118 
C 698 996 627 709 595 594 
C 550 428 480 128 480 96 
C 480 6 550 -64 646 -64 
C 723 -64 813 -26 864 70 
C 877 102 934 326 966 453 
L 1107 1028 
L 1318 1871 
z
" transform="scale(0.015625)"/>
       <path id="CMMI12-c" d="M 3622 3701 
C 3622 4081 3296 4480 2714 4480 
C 1888 4480 1363 3477 1197 2816 
L 186 -1172 
C 173 -1223 211 -1236 243 -1236 
C 288 -1236 320 -1230 326 -1198 
L 774 586 
C 838 229 1190 -64 1568 -64 
C 2483 -64 3347 650 3347 1599 
C 3347 1841 3290 2083 3155 2287 
C 3078 2408 2982 2497 2880 2574 
C 3341 2815 3622 3200 3622 3701 
z
M 2509 2580 
C 2406 2542 2304 2529 2182 2529 
C 2093 2529 2010 2523 1894 2561 
C 1958 2606 2054 2618 2189 2618 
C 2304 2618 2419 2606 2509 2580 
z
M 3290 3758 
C 3290 3410 3117 2903 2701 2669 
C 2579 2718 2413 2752 2272 2752 
C 2138 2752 1754 2752 1754 2555 
C 1754 2389 2106 2389 2214 2389 
C 2381 2389 2528 2432 2682 2484 
C 2886 2318 2976 2101 2976 1783 
C 2976 1413 2874 1115 2752 841 
C 2541 369 2042 64 1600 64 
C 1133 64 890 432 890 864 
C 890 922 890 1005 915 1099 
L 1331 2771 
C 1542 3603 2080 4353 2701 4353 
C 3162 4353 3290 4036 3290 3758 
z
" transform="scale(0.015625)"/>
      </defs>
      <use xlink:href="#CMMI12-4d" transform="scale(0.996264)"/>
      <use xlink:href="#CMMI12-69" transform="translate(104.780079 0) scale(0.996264)"/>
      <use xlink:href="#CMMI12-6e" transform="translate(138.058681 0) scale(0.996264)"/>
      <use xlink:href="#CMMI12-c" transform="translate(226.364694 0) scale(0.996264)"/>
     </g>
    </g>
   </g>
  </g>
 </g>
 <defs>
  <clipPath id="pb6020c7451">
   <rect x="32.685756" y="3.6" width="195.3" height="145.53"/>
  </clipPath>
 </defs>
</svg>
