<?xml version="1.0" encoding="utf-8" standalone="no"?>
<!DOCTYPE svg PUBLIC "-//W3C//DTD SVG 1.1//EN"
  "http://www.w3.org/Graphics/SVG/1.1/DTD/svg11.dtd">
<svg xmlns:xlink="http://www.w3.org/1999/xlink" width="190.232759pt" height="142.361356pt" viewBox="0 0 190.232759 142.361356" xmlns="http://www.w3.org/2000/svg" version="1.1">
 <metadata>
  <rdf:RDF xmlns:dc="http://purl.org/dc/elements/1.1/" xmlns:cc="http://creativecommons.org/ns#" xmlns:rdf="http://www.w3.org/1999/02/22-rdf-syntax-ns#">
   <cc:Work>
    <dc:type rdf:resource="http://purl.org/dc/dcmitype/StillImage"/>
    <dc:date>2026-06-16T09:23:50.020988</dc:date>
    <dc:format>image/svg+xml</dc:format>
    <dc:creator>
     <cc:Agent>
      <dc:title>Matplotlib v3.7.0, https://matplotlib.org/</dc:title>
     </cc:Agent>
    </dc:creator>
   </cc:Work>
  </rdf:RDF>
 </metadata>
 <defs>
  <style type="text/css">*{stroke-linejoin: round; stroke-linecap: butt}</style>
 </defs>
 <g id="figure_1">
  <g id="patch_1">
   <path d="M 0 142.361356 
L 190.232759 142.361356 
L 190.232759 0 
L 0 0 
L 0 142.361356 
z
" style="fill: none"/>
  </g>
  <g id="axes_1">
   <g id="patch_2">
    <path d="M 37.667091 112.7475 
L 184.142091 112.7475 
L 184.142091 3.6 
L 37.667091 3.6 
L 37.667091 112.7475 
z
" style="fill: none"/>
   </g>
   <g id="matplotlib.axis_1">
    <g id="xtick_1">
     <g id="line2d_1">
      <path d="M 37.667091 112.7475 
L 37.667091 3.6 
" clip-path="url(#p3ce38cda11)" style="fill: none; stroke-dasharray: 1.85,0.8; stroke-dashoffset: 0; stroke: #000000; stroke-opacity: 0.5; stroke-width: 0.5"/>
     </g>
     <g id="line2d_2">
      <defs>
       <path id="m0df5716b83" d="M 0 0 
L 0 -3 
" style="stroke: #000000; stroke-width: 0.5"/>
      </defs>
      <g>
       <use xlink:href="#m0df5716b83" x="37.667091" y="112.7475" style="stroke: #000000; stroke-width: 0.5"/>
      </g>
     </g>
     <g id="line2d_3">
      <defs>
       <path id="m1d731a7de0" d="M 0 0 
L 0 3 
" style="stroke: #000000; stroke-width: 0.5"/>
      </defs>
      <g>
       <use xlink:href="#m1d731a7de0" x="37.667091" y="3.6" style="stroke: #000000; stroke-width: 0.5"/>
      </g>
     </g>
     <g id="text_1">
      <!-- $\mathdefault{2}$ -->
      <g transform="translate(35.176423 123.165998) scale(0.1 -0.1)">
       <defs>
        <path id="CMR17-32" d="M 2669 989 
L 2554 989 
C 2490 536 2438 459 2413 420 
C 2381 369 1920 369 1830 369 
L 602 369 
C 832 619 1280 1072 1824 1597 
C 2214 1967 2669 2402 2669 3035 
C 2669 3790 2067 4224 1395 4224 
C 691 4224 262 3604 262 3030 
C 262 2780 448 2748 525 2748 
C 589 2748 781 2787 781 3010 
C 781 3207 614 3264 525 3264 
C 486 3264 448 3258 422 3245 
C 544 3790 915 4058 1306 4058 
C 1862 4058 2227 3617 2227 3035 
C 2227 2479 1901 2000 1536 1584 
L 262 146 
L 262 0 
L 2515 0 
L 2669 989 
z
" transform="scale(0.015625)"/>
       </defs>
       <use xlink:href="#CMR17-32" transform="scale(0.996264)"/>
      </g>
     </g>
    </g>
    <g id="xtick_2">
     <g id="line2d_4">
      <path d="M 74.285841 112.7475 
L 74.285841 3.6 
" clip-path="url(#p3ce38cda11)" style="fill: none; stroke-dasharray: 1.85,0.8; stroke-dashoffset: 0; stroke: #000000; stroke-opacity: 0.5; stroke-width: 0.5"/>
     </g>
     <g id="line2d_5">
      <g>
       <use xlink:href="#m0df5716b83" x="74.285841" y="112.7475" style="stroke: #000000; stroke-width: 0.5"/>
      </g>
     </g>
     <g id="line2d_6">
      <g>
       <use xlink:href="#m1d731a7de0" x="74.285841" y="3.6" style="stroke: #000000; stroke-width: 0.5"/>
      </g>
     </g>
     <g id="text_2">
      <!-- $\mathdefault{3}$ -->
      <g transform="translate(71.795173 123.165998) scale(0.1 -0.1)">
       <defs>
        <path id="CMR17-33" d="M 1414 2157 
C 1984 2157 2234 1662 2234 1090 
C 2234 320 1824 25 1453 25 
C 1114 25 563 194 390 693 
C 422 680 454 680 486 680 
C 640 680 755 782 755 948 
C 755 1133 614 1216 486 1216 
C 378 1216 211 1165 211 926 
C 211 335 787 -128 1466 -128 
C 2176 -128 2720 430 2720 1085 
C 2720 1707 2208 2157 1600 2227 
C 2086 2328 2554 2756 2554 3329 
C 2554 3820 2048 4179 1472 4179 
C 890 4179 378 3829 378 3329 
C 378 3110 544 3072 627 3072 
C 762 3072 877 3155 877 3321 
C 877 3486 762 3569 627 3569 
C 602 3569 570 3569 544 3557 
C 730 3959 1235 4032 1459 4032 
C 1683 4032 2106 3925 2106 3320 
C 2106 3143 2080 2828 1862 2550 
C 1670 2304 1453 2304 1242 2284 
C 1210 2284 1062 2269 1037 2269 
C 992 2263 966 2257 966 2208 
C 966 2163 973 2157 1101 2157 
L 1414 2157 
z
" transform="scale(0.015625)"/>
       </defs>
       <use xlink:href="#CMR17-33" transform="scale(0.996264)"/>
      </g>
     </g>
    </g>
    <g id="xtick_3">
     <g id="line2d_7">
      <path d="M 110.904591 112.7475 
L 110.904591 3.6 
" clip-path="url(#p3ce38cda11)" style="fill: none; stroke-dasharray: 1.85,0.8; stroke-dashoffset: 0; stroke: #000000; stroke-opacity: 0.5; stroke-width: 0.5"/>
     </g>
     <g id="line2d_8">
      <g>
       <use xlink:href="#m0df5716b83" x="110.904591" y="112.7475" style="stroke: #000000; stroke-width: 0.5"/>
      </g>
     </g>
     <g id="line2d_9">
      <g>
       <use xlink:href="#m1d731a7de0" x="110.904591" y="3.6" style="stroke: #000000; stroke-width: 0.5"/>
      </g>
     </g>
     <g id="text_3">
      <!-- $\mathdefault{4}$ -->
      <g transform="translate(108.413923 123.165998) scale(0.1 -0.1)">
       <defs>
        <path id="CMR17-34" d="M 2150 4122 
C 2150 4256 2144 4256 2029 4256 
L 128 1254 
L 128 1088 
L 1779 1088 
L 1779 457 
C 1779 224 1766 160 1318 160 
L 1197 160 
L 1197 0 
C 1402 0 1747 0 1965 0 
C 2182 0 2528 0 2733 0 
L 2733 160 
L 2611 160 
C 2163 160 2150 224 2150 457 
L 2150 1088 
L 2803 1088 
L 2803 1254 
L 2150 1254 
L 2150 4122 
z
M 1798 3703 
L 1798 1254 
L 256 1254 
L 1798 3703 
z
" transform="scale(0.015625)"/>
       </defs>
       <use xlink:href="#CMR17-34" transform="scale(0.996264)"/>
      </g>
     </g>
    </g>
    <g id="xtick_4">
     <g id="line2d_10">
      <path d="M 147.523341 112.7475 
L 147.523341 3.6 
" clip-path="url(#p3ce38cda11)" style="fill: none; stroke-dasharray: 1.85,0.8; stroke-dashoffset: 0; stroke: #000000; stroke-opacity: 0.5; stroke-width: 0.5"/>
     </g>
     <g id="line2d_11">
      <g>
       <use xlink:href="#m0df5716b83" x="147.523341" y="112.7475" style="stroke: #000000; stroke-width: 0.5"/>
      </g>
     </g>
     <g id="line2d_12">
      <g>
       <use xlink:href="#m1d731a7de0" x="147.523341" y="3.6" style="stroke: #000000; stroke-width: 0.5"/>
      </g>
     </g>
     <g id="text_4">
      <!-- $\mathdefault{5}$ -->
      <g transform="translate(145.032673 123.165998) scale(0.1 -0.1)">
       <defs>
        <path id="CMR17-35" d="M 730 3692 
C 794 3666 1056 3584 1325 3584 
C 1920 3584 2246 3911 2432 4100 
C 2432 4157 2432 4192 2394 4192 
C 2387 4192 2374 4192 2323 4163 
C 2099 4058 1837 3973 1517 3973 
C 1325 3973 1037 3999 723 4139 
C 653 4171 640 4171 634 4171 
C 602 4171 595 4164 595 4037 
L 595 2203 
C 595 2089 595 2057 659 2057 
C 691 2057 704 2070 736 2114 
C 941 2401 1222 2522 1542 2522 
C 1766 2522 2246 2382 2246 1289 
C 2246 1085 2246 715 2054 421 
C 1894 159 1645 25 1370 25 
C 947 25 518 320 403 814 
C 429 807 480 795 506 795 
C 589 795 749 840 749 1038 
C 749 1210 627 1280 506 1280 
C 358 1280 262 1190 262 1011 
C 262 454 704 -128 1382 -128 
C 2042 -128 2669 440 2669 1264 
C 2669 2030 2170 2624 1549 2624 
C 1222 2624 947 2503 730 2274 
L 730 3692 
z
" transform="scale(0.015625)"/>
       </defs>
       <use xlink:href="#CMR17-35" transform="scale(0.996264)"/>
      </g>
     </g>
    </g>
    <g id="xtick_5">
     <g id="line2d_13">
      <path d="M 184.142091 112.7475 
L 184.142091 3.6 
" clip-path="url(#p3ce38cda11)" style="fill: none; stroke-dasharray: 1.85,0.8; stroke-dashoffset: 0; stroke: #000000; stroke-opacity: 0.5; stroke-width: 0.5"/>
     </g>
     <g id="line2d_14">
      <g>
       <use xlink:href="#m0df5716b83" x="184.142091" y="112.7475" style="stroke: #000000; stroke-width: 0.5"/>
      </g>
     </g>
     <g id="line2d_15">
      <g>
       <use xlink:href="#m1d731a7de0" x="184.142091" y="3.6" style="stroke: #000000; stroke-width: 0.5"/>
      </g>
     </g>
     <g id="text_5">
      <!-- $\mathdefault{6}$ -->
      <g transform="translate(181.651423 123.165998) scale(0.1 -0.1)">
       <defs>
        <path id="CMR17-36" d="M 678 2176 
C 678 3690 1395 4032 1811 4032 
C 1946 4032 2272 4009 2400 3776 
C 2298 3776 2106 3776 2106 3553 
C 2106 3381 2246 3323 2336 3323 
C 2394 3323 2566 3348 2566 3560 
C 2566 3954 2246 4179 1805 4179 
C 1043 4179 243 3390 243 1984 
C 243 253 966 -128 1478 -128 
C 2099 -128 2688 427 2688 1283 
C 2688 2081 2170 2662 1517 2662 
C 1126 2662 838 2407 678 1960 
L 678 2176 
z
M 1478 25 
C 691 25 691 1200 691 1436 
C 691 1896 909 2560 1504 2560 
C 1613 2560 1926 2560 2138 2120 
C 2253 1870 2253 1609 2253 1289 
C 2253 944 2253 690 2118 434 
C 1978 171 1773 25 1478 25 
z
" transform="scale(0.015625)"/>
       </defs>
       <use xlink:href="#CMR17-36" transform="scale(0.996264)"/>
      </g>
     </g>
    </g>
    <g id="xtick_6">
     <g id="line2d_16">
      <defs>
       <path id="mbd34e46b97" d="M 0 0 
L 0 -1.5 
" style="stroke: #000000; stroke-width: 0.5"/>
      </defs>
      <g>
       <use xlink:href="#mbd34e46b97" x="44.990841" y="112.7475" style="stroke: #000000; stroke-width: 0.5"/>
      </g>
     </g>
     <g id="line2d_17">
      <defs>
       <path id="m1d5e9ba9f9" d="M 0 0 
L 0 1.5 
" style="stroke: #000000; stroke-width: 0.5"/>
      </defs>
      <g>
       <use xlink:href="#m1d5e9ba9f9" x="44.990841" y="3.6" style="stroke: #000000; stroke-width: 0.5"/>
      </g>
     </g>
    </g>
    <g id="xtick_7">
     <g id="line2d_18">
      <g>
       <use xlink:href="#mbd34e46b97" x="52.314591" y="112.7475" style="stroke: #000000; stroke-width: 0.5"/>
      </g>
     </g>
     <g id="line2d_19">
      <g>
       <use xlink:href="#m1d5e9ba9f9" x="52.314591" y="3.6" style="stroke: #000000; stroke-width: 0.5"/>
      </g>
     </g>
    </g>
    <g id="xtick_8">
     <g id="line2d_20">
      <g>
       <use xlink:href="#mbd34e46b97" x="59.638341" y="112.7475" style="stroke: #000000; stroke-width: 0.5"/>
      </g>
     </g>
     <g id="line2d_21">
      <g>
       <use xlink:href="#m1d5e9ba9f9" x="59.638341" y="3.6" style="stroke: #000000; stroke-width: 0.5"/>
      </g>
     </g>
    </g>
    <g id="xtick_9">
     <g id="line2d_22">
      <g>
       <use xlink:href="#mbd34e46b97" x="66.962091" y="112.7475" style="stroke: #000000; stroke-width: 0.5"/>
      </g>
     </g>
     <g id="line2d_23">
      <g>
       <use xlink:href="#m1d5e9ba9f9" x="66.962091" y="3.6" style="stroke: #000000; stroke-width: 0.5"/>
      </g>
     </g>
    </g>
    <g id="xtick_10">
     <g id="line2d_24">
      <g>
       <use xlink:href="#mbd34e46b97" x="81.609591" y="112.7475" style="stroke: #000000; stroke-width: 0.5"/>
      </g>
     </g>
     <g id="line2d_25">
      <g>
       <use xlink:href="#m1d5e9ba9f9" x="81.609591" y="3.6" style="stroke: #000000; stroke-width: 0.5"/>
      </g>
     </g>
    </g>
    <g id="xtick_11">
     <g id="line2d_26">
      <g>
       <use xlink:href="#mbd34e46b97" x="88.933341" y="112.7475" style="stroke: #000000; stroke-width: 0.5"/>
      </g>
     </g>
     <g id="line2d_27">
      <g>
       <use xlink:href="#m1d5e9ba9f9" x="88.933341" y="3.6" style="stroke: #000000; stroke-width: 0.5"/>
      </g>
     </g>
    </g>
    <g id="xtick_12">
     <g id="line2d_28">
      <g>
       <use xlink:href="#mbd34e46b97" x="96.257091" y="112.7475" style="stroke: #000000; stroke-width: 0.5"/>
      </g>
     </g>
     <g id="line2d_29">
      <g>
       <use xlink:href="#m1d5e9ba9f9" x="96.257091" y="3.6" style="stroke: #000000; stroke-width: 0.5"/>
      </g>
     </g>
    </g>
    <g id="xtick_13">
     <g id="line2d_30">
      <g>
       <use xlink:href="#mbd34e46b97" x="103.580841" y="112.7475" style="stroke: #000000; stroke-width: 0.5"/>
      </g>
     </g>
     <g id="line2d_31">
      <g>
       <use xlink:href="#m1d5e9ba9f9" x="103.580841" y="3.6" style="stroke: #000000; stroke-width: 0.5"/>
      </g>
     </g>
    </g>
    <g id="xtick_14">
     <g id="line2d_32">
      <g>
       <use xlink:href="#mbd34e46b97" x="118.228341" y="112.7475" style="stroke: #000000; stroke-width: 0.5"/>
      </g>
     </g>
     <g id="line2d_33">
      <g>
       <use xlink:href="#m1d5e9ba9f9" x="118.228341" y="3.6" style="stroke: #000000; stroke-width: 0.5"/>
      </g>
     </g>
    </g>
    <g id="xtick_15">
     <g id="line2d_34">
      <g>
       <use xlink:href="#mbd34e46b97" x="125.552091" y="112.7475" style="stroke: #000000; stroke-width: 0.5"/>
      </g>
     </g>
     <g id="line2d_35">
      <g>
       <use xlink:href="#m1d5e9ba9f9" x="125.552091" y="3.6" style="stroke: #000000; stroke-width: 0.5"/>
      </g>
     </g>
    </g>
    <g id="xtick_16">
     <g id="line2d_36">
      <g>
       <use xlink:href="#mbd34e46b97" x="132.875841" y="112.7475" style="stroke: #000000; stroke-width: 0.5"/>
      </g>
     </g>
     <g id="line2d_37">
      <g>
       <use xlink:href="#m1d5e9ba9f9" x="132.875841" y="3.6" style="stroke: #000000; stroke-width: 0.5"/>
      </g>
     </g>
    </g>
    <g id="xtick_17">
     <g id="line2d_38">
      <g>
       <use xlink:href="#mbd34e46b97" x="140.199591" y="112.7475" style="stroke: #000000; stroke-width: 0.5"/>
      </g>
     </g>
     <g id="line2d_39">
      <g>
       <use xlink:href="#m1d5e9ba9f9" x="140.199591" y="3.6" style="stroke: #000000; stroke-width: 0.5"/>
      </g>
     </g>
    </g>
    <g id="xtick_18">
     <g id="line2d_40">
      <g>
       <use xlink:href="#mbd34e46b97" x="154.847091" y="112.7475" style="stroke: #000000; stroke-width: 0.5"/>
      </g>
     </g>
     <g id="line2d_41">
      <g>
       <use xlink:href="#m1d5e9ba9f9" x="154.847091" y="3.6" style="stroke: #000000; stroke-width: 0.5"/>
      </g>
     </g>
    </g>
    <g id="xtick_19">
     <g id="line2d_42">
      <g>
       <use xlink:href="#mbd34e46b97" x="162.170841" y="112.7475" style="stroke: #000000; stroke-width: 0.5"/>
      </g>
     </g>
     <g id="line2d_43">
      <g>
       <use xlink:href="#m1d5e9ba9f9" x="162.170841" y="3.6" style="stroke: #000000; stroke-width: 0.5"/>
      </g>
     </g>
    </g>
    <g id="xtick_20">
     <g id="line2d_44">
      <g>
       <use xlink:href="#mbd34e46b97" x="169.494591" y="112.7475" style="stroke: #000000; stroke-width: 0.5"/>
      </g>
     </g>
     <g id="line2d_45">
      <g>
       <use xlink:href="#m1d5e9ba9f9" x="169.494591" y="3.6" style="stroke: #000000; stroke-width: 0.5"/>
      </g>
     </g>
    </g>
    <g id="xtick_21">
     <g id="line2d_46">
      <g>
       <use xlink:href="#mbd34e46b97" x="176.818341" y="112.7475" style="stroke: #000000; stroke-width: 0.5"/>
      </g>
     </g>
     <g id="line2d_47">
      <g>
       <use xlink:href="#m1d5e9ba9f9" x="176.818341" y="3.6" style="stroke: #000000; stroke-width: 0.5"/>
      </g>
     </g>
    </g>
    <g id="text_6">
     <!-- $\mathcal{C}_f$ -->
     <g transform="translate(106.339389 135.910961) scale(0.1 -0.1)">
      <defs>
       <path id="CMSY10-43" d="M 3174 1032 
C 3174 1070 3142 1077 3110 1077 
C 3002 1077 2848 981 2842 981 
C 2714 897 2688 853 2611 744 
C 2413 442 2131 224 1715 224 
C 1139 224 621 641 621 1602 
C 621 2179 851 2942 1190 3449 
C 1472 3858 1818 4192 2477 4192 
C 2720 4192 2874 4102 2874 3865 
C 2874 3641 2637 3185 2560 3057 
C 2522 2987 2522 2974 2522 2961 
C 2522 2916 2554 2916 2592 2916 
C 2720 2916 2957 3057 3034 3160 
C 3046 3185 3418 3813 3418 4141 
C 3418 4493 3130 4544 2899 4544 
C 1971 4544 1210 3935 915 3577 
C 154 2654 77 1660 77 1327 
C 77 392 550 -128 1293 -128 
C 2323 -128 3174 872 3174 1032 
z
" transform="scale(0.015625)"/>
       <path id="CMMI12-66" d="M 2854 2566 
C 2982 2566 3034 2566 3034 2688 
C 3034 2752 2982 2752 2867 2752 
L 2349 2752 
C 2470 3429 2560 3897 2611 4107 
C 2650 4265 2784 4416 2950 4416 
C 3085 4416 3219 4358 3283 4298 
C 3034 4272 2957 4082 2957 3969 
C 2957 3837 3053 3759 3174 3759 
C 3302 3759 3494 3870 3494 4119 
C 3494 4393 3226 4544 2944 4544 
C 2669 4544 2400 4334 2272 4078 
C 2157 3848 2093 3611 1946 2752 
L 1517 2752 
C 1395 2752 1331 2752 1331 2637 
C 1331 2566 1370 2566 1498 2566 
L 1907 2566 
C 1792 1976 1530 542 1382 -137 
C 1274 -689 1178 -1152 858 -1152 
C 838 -1152 653 -1152 538 -1031 
C 864 -1005 864 -726 864 -720 
C 864 -593 768 -517 646 -517 
C 518 -517 326 -625 326 -867 
C 326 -1140 608 -1280 858 -1280 
C 1510 -1280 1779 -118 1850 199 
C 1965 688 2278 2376 2310 2566 
L 2854 2566 
z
" transform="scale(0.015625)"/>
      </defs>
      <use xlink:href="#CMSY10-43" transform="scale(0.996264)"/>
      <use xlink:href="#CMMI12-66" transform="translate(52.456213 -14.943915) scale(0.697382)"/>
     </g>
    </g>
   </g>
   <g id="matplotlib.axis_2">
    <g id="ytick_1">
     <g id="line2d_48">
      <path d="M 37.667091 112.7475 
L 184.142091 112.7475 
" clip-path="url(#p3ce38cda11)" style="fill: none; stroke-dasharray: 1.85,0.8; stroke-dashoffset: 0; stroke: #000000; stroke-opacity: 0.5; stroke-width: 0.5"/>
     </g>
     <g id="line2d_49">
      <defs>
       <path id="mc1d9c2852a" d="M 0 0 
L 3 0 
" style="stroke: #000000; stroke-width: 0.5"/>
      </defs>
      <g>
       <use xlink:href="#mc1d9c2852a" x="37.667091" y="112.7475" style="stroke: #000000; stroke-width: 0.5"/>
      </g>
     </g>
     <g id="line2d_50">
      <defs>
       <path id="mef9550bf02" d="M 0 0 
L -3 0 
" style="stroke: #000000; stroke-width: 0.5"/>
      </defs>
      <g>
       <use xlink:href="#mef9550bf02" x="184.142091" y="112.7475" style="stroke: #000000; stroke-width: 0.5"/>
      </g>
     </g>
     <g id="text_7">
      <!-- $\mathdefault{0.00}$ -->
      <g transform="translate(16.455677 116.206749) scale(0.1 -0.1)">
       <defs>
        <path id="CMR17-30" d="M 2688 2025 
C 2688 2416 2682 3080 2413 3591 
C 2176 4039 1798 4198 1466 4198 
C 1158 4198 768 4058 525 3597 
C 269 3118 243 2524 243 2025 
C 243 1661 250 1106 448 619 
C 723 -39 1216 -128 1466 -128 
C 1760 -128 2208 -7 2470 600 
C 2662 1042 2688 1559 2688 2025 
z
M 1466 -26 
C 1056 -26 813 325 723 812 
C 653 1188 653 1738 653 2096 
C 653 2588 653 2997 736 3387 
C 858 3929 1216 4096 1466 4096 
C 1728 4096 2067 3923 2189 3400 
C 2272 3036 2278 2607 2278 2096 
C 2278 1680 2278 1169 2202 792 
C 2067 95 1690 -26 1466 -26 
z
" transform="scale(0.015625)"/>
        <path id="CMMI12-3a" d="M 1178 307 
C 1178 492 1024 619 870 619 
C 685 619 557 466 557 313 
C 557 128 710 0 864 0 
C 1050 0 1178 153 1178 307 
z
" transform="scale(0.015625)"/>
       </defs>
       <use xlink:href="#CMR17-30" transform="scale(0.996264)"/>
       <use xlink:href="#CMMI12-3a" transform="translate(45.690477 0) scale(0.996264)"/>
       <use xlink:href="#CMR17-30" transform="translate(72.787654 0) scale(0.996264)"/>
       <use xlink:href="#CMR17-30" transform="translate(118.478131 0) scale(0.996264)"/>
      </g>
     </g>
    </g>
    <g id="ytick_2">
     <g id="line2d_51">
      <path d="M 37.667091 87.308549 
L 184.142091 87.308549 
" clip-path="url(#p3ce38cda11)" style="fill: none; stroke-dasharray: 1.85,0.8; stroke-dashoffset: 0; stroke: #000000; stroke-opacity: 0.5; stroke-width: 0.5"/>
     </g>
     <g id="line2d_52">
      <g>
       <use xlink:href="#mc1d9c2852a" x="37.667091" y="87.308549" style="stroke: #000000; stroke-width: 0.5"/>
      </g>
     </g>
     <g id="line2d_53">
      <g>
       <use xlink:href="#mef9550bf02" x="184.142091" y="87.308549" style="stroke: #000000; stroke-width: 0.5"/>
      </g>
     </g>
     <g id="text_8">
      <!-- $\mathdefault{0.25}$ -->
      <g transform="translate(16.455677 90.767799) scale(0.1 -0.1)">
       <use xlink:href="#CMR17-30" transform="scale(0.996264)"/>
       <use xlink:href="#CMMI12-3a" transform="translate(45.690477 0) scale(0.996264)"/>
       <use xlink:href="#CMR17-32" transform="translate(72.787654 0) scale(0.996264)"/>
       <use xlink:href="#CMR17-35" transform="translate(118.478131 0) scale(0.996264)"/>
      </g>
     </g>
    </g>
    <g id="ytick_3">
     <g id="line2d_54">
      <path d="M 37.667091 61.869599 
L 184.142091 61.869599 
" clip-path="url(#p3ce38cda11)" style="fill: none; stroke-dasharray: 1.85,0.8; stroke-dashoffset: 0; stroke: #000000; stroke-opacity: 0.5; stroke-width: 0.5"/>
     </g>
     <g id="line2d_55">
      <g>
       <use xlink:href="#mc1d9c2852a" x="37.667091" y="61.869599" style="stroke: #000000; stroke-width: 0.5"/>
      </g>
     </g>
     <g id="line2d_56">
      <g>
       <use xlink:href="#mef9550bf02" x="184.142091" y="61.869599" style="stroke: #000000; stroke-width: 0.5"/>
      </g>
     </g>
     <g id="text_9">
      <!-- $\mathdefault{0.50}$ -->
      <g transform="translate(16.455677 65.328848) scale(0.1 -0.1)">
       <use xlink:href="#CMR17-30" transform="scale(0.996264)"/>
       <use xlink:href="#CMMI12-3a" transform="translate(45.690477 0) scale(0.996264)"/>
       <use xlink:href="#CMR17-35" transform="translate(72.787654 0) scale(0.996264)"/>
       <use xlink:href="#CMR17-30" transform="translate(118.478131 0) scale(0.996264)"/>
      </g>
     </g>
    </g>
    <g id="ytick_4">
     <g id="line2d_57">
      <path d="M 37.667091 36.430648 
L 184.142091 36.430648 
" clip-path="url(#p3ce38cda11)" style="fill: none; stroke-dasharray: 1.85,0.8; stroke-dashoffset: 0; stroke: #000000; stroke-opacity: 0.5; stroke-width: 0.5"/>
     </g>
     <g id="line2d_58">
      <g>
       <use xlink:href="#mc1d9c2852a" x="37.667091" y="36.430648" style="stroke: #000000; stroke-width: 0.5"/>
      </g>
     </g>
     <g id="line2d_59">
      <g>
       <use xlink:href="#mef9550bf02" x="184.142091" y="36.430648" style="stroke: #000000; stroke-width: 0.5"/>
      </g>
     </g>
     <g id="text_10">
      <!-- $\mathdefault{0.75}$ -->
      <g transform="translate(16.455677 39.889897) scale(0.1 -0.1)">
       <defs>
        <path id="CMR17-37" d="M 2886 3941 
L 2886 4081 
L 1382 4081 
C 634 4081 621 4165 595 4288 
L 480 4288 
L 294 3094 
L 410 3094 
C 429 3215 474 3540 550 3661 
C 589 3712 1062 3712 1171 3712 
L 2579 3712 
L 1869 2661 
C 1395 1954 1069 999 1069 165 
C 1069 89 1069 -128 1299 -128 
C 1530 -128 1530 89 1530 171 
L 1530 465 
C 1530 1508 1709 2196 2003 2636 
L 2886 3941 
z
" transform="scale(0.015625)"/>
       </defs>
       <use xlink:href="#CMR17-30" transform="scale(0.996264)"/>
       <use xlink:href="#CMMI12-3a" transform="translate(45.690477 0) scale(0.996264)"/>
       <use xlink:href="#CMR17-37" transform="translate(72.787654 0) scale(0.996264)"/>
       <use xlink:href="#CMR17-35" transform="translate(118.478131 0) scale(0.996264)"/>
      </g>
     </g>
    </g>
    <g id="ytick_5">
     <g id="line2d_60">
      <path d="M 37.667091 10.991698 
L 184.142091 10.991698 
" clip-path="url(#p3ce38cda11)" style="fill: none; stroke-dasharray: 1.85,0.8; stroke-dashoffset: 0; stroke: #000000; stroke-opacity: 0.5; stroke-width: 0.5"/>
     </g>
     <g id="line2d_61">
      <g>
       <use xlink:href="#mc1d9c2852a" x="37.667091" y="10.991698" style="stroke: #000000; stroke-width: 0.5"/>
      </g>
     </g>
     <g id="line2d_62">
      <g>
       <use xlink:href="#mef9550bf02" x="184.142091" y="10.991698" style="stroke: #000000; stroke-width: 0.5"/>
      </g>
     </g>
     <g id="text_11">
      <!-- $\mathdefault{1.00}$ -->
      <g transform="translate(16.455677 14.450947) scale(0.1 -0.1)">
       <defs>
        <path id="CMR17-31" d="M 1702 4058 
C 1702 4192 1696 4192 1606 4192 
C 1357 3916 979 3827 621 3827 
C 602 3827 570 3827 563 3808 
C 557 3795 557 3782 557 3648 
C 755 3648 1088 3686 1344 3839 
L 1344 461 
C 1344 236 1331 160 781 160 
L 589 160 
L 589 0 
C 896 0 1216 0 1523 0 
C 1830 0 2150 0 2458 0 
L 2458 160 
L 2266 160 
C 1715 160 1702 230 1702 458 
L 1702 4058 
z
" transform="scale(0.015625)"/>
       </defs>
       <use xlink:href="#CMR17-31" transform="scale(0.996264)"/>
       <use xlink:href="#CMMI12-3a" transform="translate(45.690477 0) scale(0.996264)"/>
       <use xlink:href="#CMR17-30" transform="translate(72.787654 0) scale(0.996264)"/>
       <use xlink:href="#CMR17-30" transform="translate(118.478131 0) scale(0.996264)"/>
      </g>
     </g>
    </g>
    <g id="ytick_6">
     <g id="line2d_63">
      <defs>
       <path id="m3e3096d3e5" d="M 0 0 
L 1.5 0 
" style="stroke: #000000; stroke-width: 0.5"/>
      </defs>
      <g>
       <use xlink:href="#m3e3096d3e5" x="37.667091" y="107.65971" style="stroke: #000000; stroke-width: 0.5"/>
      </g>
     </g>
     <g id="line2d_64">
      <defs>
       <path id="m682c78eeb0" d="M 0 0 
L -1.5 0 
" style="stroke: #000000; stroke-width: 0.5"/>
      </defs>
      <g>
       <use xlink:href="#m682c78eeb0" x="184.142091" y="107.65971" style="stroke: #000000; stroke-width: 0.5"/>
      </g>
     </g>
    </g>
    <g id="ytick_7">
     <g id="line2d_65">
      <g>
       <use xlink:href="#m3e3096d3e5" x="37.667091" y="102.57192" style="stroke: #000000; stroke-width: 0.5"/>
      </g>
     </g>
     <g id="line2d_66">
      <g>
       <use xlink:href="#m682c78eeb0" x="184.142091" y="102.57192" style="stroke: #000000; stroke-width: 0.5"/>
      </g>
     </g>
    </g>
    <g id="ytick_8">
     <g id="line2d_67">
      <g>
       <use xlink:href="#m3e3096d3e5" x="37.667091" y="97.48413" style="stroke: #000000; stroke-width: 0.5"/>
      </g>
     </g>
     <g id="line2d_68">
      <g>
       <use xlink:href="#m682c78eeb0" x="184.142091" y="97.48413" style="stroke: #000000; stroke-width: 0.5"/>
      </g>
     </g>
    </g>
    <g id="ytick_9">
     <g id="line2d_69">
      <g>
       <use xlink:href="#m3e3096d3e5" x="37.667091" y="92.39634" style="stroke: #000000; stroke-width: 0.5"/>
      </g>
     </g>
     <g id="line2d_70">
      <g>
       <use xlink:href="#m682c78eeb0" x="184.142091" y="92.39634" style="stroke: #000000; stroke-width: 0.5"/>
      </g>
     </g>
    </g>
    <g id="ytick_10">
     <g id="line2d_71">
      <g>
       <use xlink:href="#m3e3096d3e5" x="37.667091" y="82.220759" style="stroke: #000000; stroke-width: 0.5"/>
      </g>
     </g>
     <g id="line2d_72">
      <g>
       <use xlink:href="#m682c78eeb0" x="184.142091" y="82.220759" style="stroke: #000000; stroke-width: 0.5"/>
      </g>
     </g>
    </g>
    <g id="ytick_11">
     <g id="line2d_73">
      <g>
       <use xlink:href="#m3e3096d3e5" x="37.667091" y="77.132969" style="stroke: #000000; stroke-width: 0.5"/>
      </g>
     </g>
     <g id="line2d_74">
      <g>
       <use xlink:href="#m682c78eeb0" x="184.142091" y="77.132969" style="stroke: #000000; stroke-width: 0.5"/>
      </g>
     </g>
    </g>
    <g id="ytick_12">
     <g id="line2d_75">
      <g>
       <use xlink:href="#m3e3096d3e5" x="37.667091" y="72.045179" style="stroke: #000000; stroke-width: 0.5"/>
      </g>
     </g>
     <g id="line2d_76">
      <g>
       <use xlink:href="#m682c78eeb0" x="184.142091" y="72.045179" style="stroke: #000000; stroke-width: 0.5"/>
      </g>
     </g>
    </g>
    <g id="ytick_13">
     <g id="line2d_77">
      <g>
       <use xlink:href="#m3e3096d3e5" x="37.667091" y="66.957389" style="stroke: #000000; stroke-width: 0.5"/>
      </g>
     </g>
     <g id="line2d_78">
      <g>
       <use xlink:href="#m682c78eeb0" x="184.142091" y="66.957389" style="stroke: #000000; stroke-width: 0.5"/>
      </g>
     </g>
    </g>
    <g id="ytick_14">
     <g id="line2d_79">
      <g>
       <use xlink:href="#m3e3096d3e5" x="37.667091" y="56.781809" style="stroke: #000000; stroke-width: 0.5"/>
      </g>
     </g>
     <g id="line2d_80">
      <g>
       <use xlink:href="#m682c78eeb0" x="184.142091" y="56.781809" style="stroke: #000000; stroke-width: 0.5"/>
      </g>
     </g>
    </g>
    <g id="ytick_15">
     <g id="line2d_81">
      <g>
       <use xlink:href="#m3e3096d3e5" x="37.667091" y="51.694019" style="stroke: #000000; stroke-width: 0.5"/>
      </g>
     </g>
     <g id="line2d_82">
      <g>
       <use xlink:href="#m682c78eeb0" x="184.142091" y="51.694019" style="stroke: #000000; stroke-width: 0.5"/>
      </g>
     </g>
    </g>
    <g id="ytick_16">
     <g id="line2d_83">
      <g>
       <use xlink:href="#m3e3096d3e5" x="37.667091" y="46.606228" style="stroke: #000000; stroke-width: 0.5"/>
      </g>
     </g>
     <g id="line2d_84">
      <g>
       <use xlink:href="#m682c78eeb0" x="184.142091" y="46.606228" style="stroke: #000000; stroke-width: 0.5"/>
      </g>
     </g>
    </g>
    <g id="ytick_17">
     <g id="line2d_85">
      <g>
       <use xlink:href="#m3e3096d3e5" x="37.667091" y="41.518438" style="stroke: #000000; stroke-width: 0.5"/>
      </g>
     </g>
     <g id="line2d_86">
      <g>
       <use xlink:href="#m682c78eeb0" x="184.142091" y="41.518438" style="stroke: #000000; stroke-width: 0.5"/>
      </g>
     </g>
    </g>
    <g id="ytick_18">
     <g id="line2d_87">
      <g>
       <use xlink:href="#m3e3096d3e5" x="37.667091" y="31.342858" style="stroke: #000000; stroke-width: 0.5"/>
      </g>
     </g>
     <g id="line2d_88">
      <g>
       <use xlink:href="#m682c78eeb0" x="184.142091" y="31.342858" style="stroke: #000000; stroke-width: 0.5"/>
      </g>
     </g>
    </g>
    <g id="ytick_19">
     <g id="line2d_89">
      <g>
       <use xlink:href="#m3e3096d3e5" x="37.667091" y="26.255068" style="stroke: #000000; stroke-width: 0.5"/>
      </g>
     </g>
     <g id="line2d_90">
      <g>
       <use xlink:href="#m682c78eeb0" x="184.142091" y="26.255068" style="stroke: #000000; stroke-width: 0.5"/>
      </g>
     </g>
    </g>
    <g id="ytick_20">
     <g id="line2d_91">
      <g>
       <use xlink:href="#m3e3096d3e5" x="37.667091" y="21.167278" style="stroke: #000000; stroke-width: 0.5"/>
      </g>
     </g>
     <g id="line2d_92">
      <g>
       <use xlink:href="#m682c78eeb0" x="184.142091" y="21.167278" style="stroke: #000000; stroke-width: 0.5"/>
      </g>
     </g>
    </g>
    <g id="ytick_21">
     <g id="line2d_93">
      <g>
       <use xlink:href="#m3e3096d3e5" x="37.667091" y="16.079488" style="stroke: #000000; stroke-width: 0.5"/>
      </g>
     </g>
     <g id="line2d_94">
      <g>
       <use xlink:href="#m682c78eeb0" x="184.142091" y="16.079488" style="stroke: #000000; stroke-width: 0.5"/>
      </g>
     </g>
    </g>
    <g id="ytick_22">
     <g id="line2d_95">
      <g>
       <use xlink:href="#m3e3096d3e5" x="37.667091" y="5.903907" style="stroke: #000000; stroke-width: 0.5"/>
      </g>
     </g>
     <g id="line2d_96">
      <g>
       <use xlink:href="#m682c78eeb0" x="184.142091" y="5.903907" style="stroke: #000000; stroke-width: 0.5"/>
      </g>
     </g>
    </g>
    <g id="text_12">
     <!-- Density -->
     <g transform="translate(10.518498 74.73667) rotate(-90) scale(0.1 -0.1)">
      <defs>
       <path id="CMR17-44" d="M 333 4352 
L 333 4186 
C 774 4186 845 4186 845 3900 
L 845 452 
C 845 166 774 166 333 166 
L 333 0 
L 2368 0 
C 3398 0 4224 943 4224 2141 
C 4224 3346 3411 4352 2368 4352 
L 333 4352 
z
M 1523 166 
C 1267 166 1254 197 1254 414 
L 1254 3938 
C 1254 4155 1267 4186 1523 4186 
L 2240 4186 
C 2771 4186 3750 3874 3750 2141 
C 3750 1242 3488 879 3366 707 
C 3213 510 2848 166 2240 166 
L 1523 166 
z
" transform="scale(0.015625)"/>
       <path id="CMR17-65" d="M 2438 1472 
C 2464 1498 2464 1511 2464 1576 
C 2464 2238 2118 2816 1389 2816 
C 710 2816 173 2169 173 1383 
C 173 551 781 -64 1459 -64 
C 2176 -64 2458 607 2458 740 
C 2458 784 2419 784 2406 784 
C 2362 784 2355 771 2330 696 
C 2189 265 1837 51 1504 51 
C 1229 51 954 203 781 480 
C 582 803 582 1176 582 1472 
L 2438 1472 
z
M 589 1568 
C 634 2505 1126 2714 1382 2714 
C 1818 2714 2112 2297 2118 1568 
L 589 1568 
z
" transform="scale(0.015625)"/>
       <path id="CMR17-6e" d="M 2656 1933 
C 2656 2259 2592 2790 1837 2790 
C 1331 2790 1069 2400 973 2144 
L 966 2144 
L 966 2790 
L 211 2720 
L 211 2554 
C 589 2554 646 2515 646 2208 
L 646 428 
C 646 184 621 153 211 153 
L 211 -13 
C 365 0 646 0 813 0 
C 979 0 1267 0 1421 -13 
L 1421 153 
C 1011 153 986 178 986 428 
L 986 1658 
C 986 2247 1344 2688 1792 2688 
C 2266 2688 2317 2266 2317 1958 
L 2317 428 
C 2317 184 2291 153 1882 153 
L 1882 -13 
C 2035 0 2317 0 2483 0 
C 2650 0 2938 0 3091 -13 
L 3091 153 
C 2682 153 2656 178 2656 428 
L 2656 1933 
z
" transform="scale(0.015625)"/>
       <path id="CMR17-73" d="M 1978 2697 
C 1978 2813 1971 2819 1933 2819 
C 1907 2819 1901 2813 1824 2717 
C 1805 2691 1747 2626 1728 2601 
C 1523 2819 1235 2819 1126 2819 
C 416 2819 160 2447 160 2076 
C 160 1498 813 1365 998 1325 
C 1402 1243 1542 1217 1677 1101 
C 1760 1025 1901 884 1901 654 
C 1901 384 1747 38 1158 38 
C 602 38 403 460 288 1021 
C 269 1110 269 1117 218 1117 
C 166 1117 160 1110 160 983 
L 160 63 
C 160 -51 166 -58 205 -58 
C 237 -58 243 -51 275 0 
C 314 57 410 211 448 276 
C 576 103 800 -64 1158 -64 
C 1792 -64 2131 283 2131 784 
C 2131 1112 1958 1285 1875 1362 
C 1683 1561 1459 1606 1190 1657 
C 838 1735 390 1825 390 2217 
C 390 2383 480 2737 1126 2737 
C 1811 2737 1850 2094 1862 1888 
C 1869 1856 1901 1849 1920 1849 
C 1978 1849 1978 1869 1978 1978 
L 1978 2697 
z
" transform="scale(0.015625)"/>
       <path id="CMR17-69" d="M 992 3909 
C 992 4049 877 4170 730 4170 
C 589 4170 467 4056 467 3909 
C 467 3769 582 3648 730 3648 
C 870 3648 992 3763 992 3909 
z
M 243 2706 
L 243 2541 
C 602 2541 653 2502 653 2197 
L 653 427 
C 653 184 627 153 218 153 
L 218 -13 
C 371 0 646 0 806 0 
C 960 0 1222 0 1370 -13 
L 1370 153 
C 992 153 979 191 979 420 
L 979 2776 
L 243 2706 
z
" transform="scale(0.015625)"/>
       <path id="CMR17-74" d="M 966 2560 
L 1862 2560 
L 1862 2725 
L 966 2725 
L 966 3904 
L 851 3904 
C 838 3245 614 2668 70 2668 
L 70 2560 
L 627 2560 
L 627 771 
C 627 650 627 -64 1370 -64 
C 1747 -64 1965 306 1965 777 
L 1965 1140 
L 1850 1140 
L 1850 783 
C 1850 344 1677 51 1408 51 
C 1222 51 966 178 966 758 
L 966 2560 
z
" transform="scale(0.015625)"/>
       <path id="CMR17-79" d="M 2496 2197 
C 2656 2586 2944 2586 3034 2586 
L 3034 2752 
C 2912 2752 2752 2752 2630 2752 
C 2496 2752 2285 2752 2157 2758 
L 2157 2592 
C 2400 2573 2406 2394 2406 2343 
C 2406 2280 2394 2248 2362 2171 
L 1664 449 
L 902 2306 
C 870 2382 870 2426 870 2433 
C 870 2573 1018 2586 1171 2586 
L 1171 2758 
C 1018 2752 742 2752 582 2752 
C 410 2752 205 2752 64 2758 
L 64 2586 
C 410 2586 448 2554 531 2350 
L 1485 15 
C 1197 -738 1030 -1178 627 -1178 
C 557 -1178 397 -1159 282 -1044 
C 429 -1031 493 -942 493 -833 
C 493 -725 416 -629 288 -629 
C 147 -629 77 -725 77 -840 
C 77 -1095 339 -1280 627 -1280 
C 998 -1280 1229 -922 1357 -604 
L 2496 2197 
z
" transform="scale(0.015625)"/>
      </defs>
      <use xlink:href="#CMR17-44" transform="scale(0.996264)"/>
      <use xlink:href="#CMR17-65" transform="translate(70.393556 0) scale(0.996264)"/>
      <use xlink:href="#CMR17-6e" transform="translate(110.879216 0) scale(0.996264)"/>
      <use xlink:href="#CMR17-73" transform="translate(161.774586 0) scale(0.996264)"/>
      <use xlink:href="#CMR17-69" transform="translate(197.575924 0) scale(0.996264)"/>
      <use xlink:href="#CMR17-74" transform="translate(222.446982 0) scale(0.996264)"/>
      <use xlink:href="#CMR17-79" transform="translate(255.125296 0) scale(0.996264)"/>
     </g>
    </g>
   </g>
   <g id="PolyCollection_1">
    <defs>
     <path id="m930250d2d8" d="M 31.561798 -29.618956 
L 31.561798 -29.613856 
L 32.153251 -29.613856 
L 32.744703 -29.613856 
L 33.336156 -29.613856 
L 33.927609 -29.613856 
L 34.519062 -29.613856 
L 35.110514 -29.613856 
L 35.701967 -29.613856 
L 36.29342 -29.613856 
L 36.884873 -29.613856 
L 37.476326 -29.613856 
L 38.067778 -29.613856 
L 38.659231 -29.613856 
L 39.250684 -29.613856 
L 39.842137 -29.613856 
L 40.43359 -29.613856 
L 41.025042 -29.613856 
L 41.616495 -29.613856 
L 42.207948 -29.613856 
L 42.799401 -29.613856 
L 43.390854 -29.613856 
L 43.982306 -29.613856 
L 44.573759 -29.613856 
L 45.165212 -29.613856 
L 45.756665 -29.613856 
L 46.348118 -29.613856 
L 46.93957 -29.613856 
L 47.531023 -29.613856 
L 48.122476 -29.613856 
L 48.713929 -29.613856 
L 49.305382 -29.613856 
L 49.896834 -29.613856 
L 50.488287 -29.613856 
L 51.07974 -29.613856 
L 51.671193 -29.613856 
L 52.262646 -29.613856 
L 52.854098 -29.613856 
L 53.445551 -29.613856 
L 54.037004 -29.613856 
L 54.628457 -29.613856 
L 55.21991 -29.613856 
L 55.811362 -29.613856 
L 56.402815 -29.613856 
L 56.994268 -29.613856 
L 57.585721 -29.613856 
L 58.177174 -29.613856 
L 58.768626 -29.613856 
L 59.360079 -29.613856 
L 59.951532 -29.613856 
L 60.542985 -29.613856 
L 61.134437 -29.613856 
L 61.72589 -29.613856 
L 62.317343 -29.613856 
L 62.908796 -29.613856 
L 63.500249 -29.613856 
L 64.091701 -29.613856 
L 64.683154 -29.613856 
L 65.274607 -29.613856 
L 65.86606 -29.613856 
L 66.457513 -29.613856 
L 67.048965 -29.613856 
L 67.640418 -29.613856 
L 68.231871 -29.613856 
L 68.823324 -29.613856 
L 69.414777 -29.613856 
L 70.006229 -29.613856 
L 70.597682 -29.613856 
L 71.189135 -29.613856 
L 71.780588 -29.613856 
L 72.372041 -29.613856 
L 72.963493 -29.613856 
L 73.554946 -29.613856 
L 74.146399 -29.613856 
L 74.737852 -29.613856 
L 75.329305 -29.613856 
L 75.920757 -29.613856 
L 76.51221 -29.613856 
L 77.103663 -29.613856 
L 77.695116 -29.613856 
L 78.286569 -29.613856 
L 78.878021 -29.613856 
L 79.469474 -29.613856 
L 80.060927 -29.613856 
L 80.65238 -29.613856 
L 81.243833 -29.613856 
L 81.835285 -29.613856 
L 82.426738 -29.613856 
L 83.018191 -29.613856 
L 83.609644 -29.613856 
L 84.201097 -29.613856 
L 84.792549 -29.613856 
L 85.384002 -29.613856 
L 85.975455 -29.613856 
L 86.566908 -29.613856 
L 87.15836 -29.613856 
L 87.749813 -29.613856 
L 88.341266 -29.613856 
L 88.932719 -29.613856 
L 89.524172 -29.613856 
L 90.115624 -29.613856 
L 90.707077 -29.613856 
L 91.29853 -29.613856 
L 91.889983 -29.613856 
L 92.481436 -29.613856 
L 93.072888 -29.613856 
L 93.664341 -29.613856 
L 94.255794 -29.613856 
L 94.847247 -29.613856 
L 95.4387 -29.613856 
L 96.030152 -29.613856 
L 96.621605 -29.613856 
L 97.213058 -29.613856 
L 97.804511 -29.613856 
L 98.395964 -29.613856 
L 98.987416 -29.613856 
L 99.578869 -29.613856 
L 100.170322 -29.613856 
L 100.761775 -29.613856 
L 101.353228 -29.613856 
L 101.94468 -29.613856 
L 102.536133 -29.613856 
L 103.127586 -29.613856 
L 103.719039 -29.613856 
L 104.310492 -29.613856 
L 104.901944 -29.613856 
L 105.493397 -29.613856 
L 106.08485 -29.613856 
L 106.676303 -29.613856 
L 107.267756 -29.613856 
L 107.859208 -29.613856 
L 108.450661 -29.613856 
L 109.042114 -29.613856 
L 109.633567 -29.613856 
L 110.22502 -29.613856 
L 110.816472 -29.613856 
L 111.407925 -29.613856 
L 111.999378 -29.613856 
L 112.590831 -29.613856 
L 113.182284 -29.613856 
L 113.773736 -29.613856 
L 114.365189 -29.613856 
L 114.956642 -29.613856 
L 115.548095 -29.613856 
L 116.139547 -29.613856 
L 116.731 -29.613856 
L 117.322453 -29.613856 
L 117.913906 -29.613856 
L 118.505359 -29.613856 
L 119.096811 -29.613856 
L 119.688264 -29.613856 
L 120.279717 -29.613856 
L 120.87117 -29.613856 
L 121.462623 -29.613856 
L 122.054075 -29.613856 
L 122.645528 -29.613856 
L 123.236981 -29.613856 
L 123.828434 -29.613856 
L 124.419887 -29.613856 
L 125.011339 -29.613856 
L 125.602792 -29.613856 
L 126.194245 -29.613856 
L 126.785698 -29.613856 
L 127.377151 -29.613856 
L 127.968603 -29.613856 
L 128.560056 -29.613856 
L 129.151509 -29.613856 
L 129.742962 -29.613856 
L 130.334415 -29.613856 
L 130.925867 -29.613856 
L 131.51732 -29.613856 
L 132.108773 -29.613856 
L 132.700226 -29.613856 
L 133.291679 -29.613856 
L 133.883131 -29.613856 
L 134.474584 -29.613856 
L 135.066037 -29.613856 
L 135.65749 -29.613856 
L 136.248943 -29.613856 
L 136.840395 -29.613856 
L 137.431848 -29.613856 
L 138.023301 -29.613856 
L 138.614754 -29.613856 
L 139.206207 -29.613856 
L 139.797659 -29.613856 
L 140.389112 -29.613856 
L 140.980565 -29.613856 
L 141.572018 -29.613856 
L 142.16347 -29.613856 
L 142.754923 -29.613856 
L 143.346376 -29.613856 
L 143.937829 -29.613856 
L 144.529282 -29.613856 
L 145.120734 -29.613856 
L 145.712187 -29.613856 
L 146.30364 -29.613856 
L 146.895093 -29.613856 
L 147.486546 -29.613856 
L 148.077998 -29.613856 
L 148.669451 -29.613856 
L 149.260904 -29.613856 
L 149.260904 -29.614827 
L 149.260904 -29.614827 
L 148.669451 -29.615574 
L 148.077998 -29.616807 
L 147.486546 -29.618781 
L 146.895093 -29.621847 
L 146.30364 -29.626465 
L 145.712187 -29.633222 
L 145.120734 -29.642826 
L 144.529282 -29.656101 
L 143.937829 -29.673956 
L 143.346376 -29.697348 
L 142.754923 -29.727222 
L 142.16347 -29.764444 
L 141.572018 -29.809725 
L 140.980565 -29.86354 
L 140.389112 -29.926048 
L 139.797659 -29.997017 
L 139.206207 -30.075758 
L 138.614754 -30.161083 
L 138.023301 -30.25129 
L 137.431848 -30.344186 
L 136.840395 -30.437173 
L 136.248943 -30.527393 
L 135.65749 -30.611933 
L 135.066037 -30.688093 
L 134.474584 -30.753692 
L 133.883131 -30.807377 
L 133.291679 -30.848911 
L 132.700226 -30.879392 
L 132.108773 -30.901383 
L 131.51732 -30.91891 
L 130.925867 -30.937359 
L 130.334415 -30.963243 
L 129.742962 -31.0039 
L 129.151509 -31.067141 
L 128.560056 -31.160888 
L 127.968603 -31.292836 
L 127.377151 -31.470167 
L 126.785698 -31.699321 
L 126.194245 -31.985844 
L 125.602792 -32.334321 
L 125.011339 -32.748377 
L 124.419887 -33.230772 
L 123.828434 -33.783546 
L 123.236981 -34.408187 
L 122.645528 -35.105771 
L 122.054075 -35.87701 
L 121.462623 -36.722137 
L 120.87117 -37.64061 
L 120.279717 -38.630629 
L 119.688264 -39.688544 
L 119.096811 -40.808239 
L 118.505359 -41.980652 
L 117.913906 -43.193536 
L 117.322453 -44.431602 
L 116.731 -45.677074 
L 116.139547 -46.910681 
L 115.548095 -48.113001 
L 114.956642 -49.266064 
L 114.365189 -50.355016 
L 113.773736 -51.369669 
L 113.182284 -52.305692 
L 112.590831 -53.165248 
L 111.999378 -53.956898 
L 111.407925 -54.694729 
L 110.816472 -55.396745 
L 110.22502 -56.082755 
L 109.633567 -56.772061 
L 109.042114 -57.481353 
L 108.450661 -58.22313 
L 107.859208 -59.004895 
L 107.267756 -59.829157 
L 106.676303 -60.694109 
L 106.08485 -61.594695 
L 105.493397 -62.523716 
L 104.901944 -63.472696 
L 104.310492 -64.432303 
L 103.719039 -65.39234 
L 103.127586 -66.341442 
L 102.536133 -67.266762 
L 101.94468 -68.153922 
L 101.353228 -68.987481 
L 100.761775 -69.75198 
L 100.170322 -70.433487 
L 99.578869 -71.021358 
L 98.987416 -71.509841 
L 98.395964 -71.899098 
L 97.804511 -72.195326 
L 97.213058 -72.409826 
L 96.621605 -72.5571 
L 96.030152 -72.65227 
L 95.4387 -72.708333 
L 94.847247 -72.73378 
L 94.255794 -72.731101 
L 93.664341 -72.696499 
L 93.072888 -72.620895 
L 92.481436 -72.492014 
L 91.889983 -72.297138 
L 91.29853 -72.025964 
L 90.707077 -71.673043 
L 90.115624 -71.239386 
L 89.524172 -70.733038 
L 88.932719 -70.168656 
L 88.341266 -69.566289 
L 87.749813 -68.949681 
L 87.15836 -68.344409 
L 86.566908 -67.776111 
L 85.975455 -67.268979 
L 85.384002 -66.844545 
L 84.792549 -66.520738 
L 84.201097 -66.311146 
L 83.609644 -66.224399 
L 83.018191 -66.263636 
L 82.426738 -66.426095 
L 81.835285 -66.702888 
L 81.243833 -67.079116 
L 80.65238 -67.534464 
L 80.060927 -68.044371 
L 79.469474 -68.581818 
L 78.878021 -69.119605 
L 78.286569 -69.632903 
L 77.695116 -70.101729 
L 77.103663 -70.512993 
L 76.51221 -70.861789 
L 75.920757 -71.151734 
L 75.329305 -71.394344 
L 74.737852 -71.607578 
L 74.146399 -71.813855 
L 73.554946 -72.037868 
L 72.963493 -72.304515 
L 72.372041 -72.637161 
L 71.780588 -73.056312 
L 71.189135 -73.578674 
L 70.597682 -74.216478 
L 70.006229 -74.976961 
L 69.414777 -75.861953 
L 68.823324 -76.86759 
L 68.231871 -77.984319 
L 67.640418 -79.197377 
L 67.048965 -80.487964 
L 66.457513 -81.835219 
L 65.86606 -83.218961 
L 65.274607 -84.62297 
L 64.683154 -86.038368 
L 64.091701 -87.46653 
L 63.500249 -88.920929 
L 62.908796 -90.427371 
L 62.317343 -92.02234 
L 61.72589 -93.749438 
L 61.134437 -95.654262 
L 60.542985 -97.778359 
L 59.951532 -100.153062 
L 59.360079 -102.794028 
L 58.768626 -105.697138 
L 58.177174 -108.836122 
L 57.585721 -112.161934 
L 56.994268 -115.603596 
L 56.402815 -119.070074 
L 55.811362 -122.45277 
L 55.21991 -125.628406 
L 54.628457 -128.462369 
L 54.037004 -130.812868 
L 53.445551 -132.536369 
L 52.854098 -133.494702 
L 52.262646 -133.563856 
L 51.671193 -132.643985 
L 51.07974 -130.669587 
L 50.488287 -127.618409 
L 49.896834 -123.517539 
L 49.305382 -118.445376 
L 48.713929 -112.528788 
L 48.122476 -105.935497 
L 47.531023 -98.862564 
L 46.93957 -91.522405 
L 46.348118 -84.128101 
L 45.756665 -76.879698 
L 45.165212 -69.95287 
L 44.573759 -63.490818 
L 43.982306 -57.599727 
L 43.390854 -52.347639 
L 42.799401 -47.766246 
L 42.207948 -43.854935 
L 41.616495 -40.586331 
L 41.025042 -37.912639 
L 40.43359 -35.772144 
L 39.842137 -34.095362 
L 39.250684 -32.810439 
L 38.659231 -31.847557 
L 38.067778 -31.1422 
L 37.476326 -30.637281 
L 36.884873 -30.284225 
L 36.29342 -30.043177 
L 35.701967 -29.882545 
L 35.110514 -29.778109 
L 34.519062 -29.711887 
L 33.927609 -29.670952 
L 33.336156 -29.646292 
L 32.744703 -29.631822 
L 32.153251 -29.623554 
L 31.561798 -29.618956 
z
" style="stroke: #0f3455"/>
    </defs>
    <g clip-path="url(#p3ce38cda11)">
     <use xlink:href="#m930250d2d8" x="0" y="142.361356" style="fill: #0f3455; fill-opacity: 0.25; stroke: #0f3455"/>
    </g>
   </g>
   <g id="PolyCollection_2">
    <defs>
     <path id="me688491f3c" d="M 38.236344 -29.614071 
L 38.236344 -29.613856 
L 38.770349 -29.613856 
L 39.304355 -29.613856 
L 39.83836 -29.613856 
L 40.372366 -29.613856 
L 40.906371 -29.613856 
L 41.440377 -29.613856 
L 41.974383 -29.613856 
L 42.508388 -29.613856 
L 43.042394 -29.613856 
L 43.576399 -29.613856 
L 44.110405 -29.613856 
L 44.64441 -29.613856 
L 45.178416 -29.613856 
L 45.712422 -29.613856 
L 46.246427 -29.613856 
L 46.780433 -29.613856 
L 47.314438 -29.613856 
L 47.848444 -29.613856 
L 48.38245 -29.613856 
L 48.916455 -29.613856 
L 49.450461 -29.613856 
L 49.984466 -29.613856 
L 50.518472 -29.613856 
L 51.052477 -29.613856 
L 51.586483 -29.613856 
L 52.120489 -29.613856 
L 52.654494 -29.613856 
L 53.1885 -29.613856 
L 53.722505 -29.613856 
L 54.256511 -29.613856 
L 54.790516 -29.613856 
L 55.324522 -29.613856 
L 55.858528 -29.613856 
L 56.392533 -29.613856 
L 56.926539 -29.613856 
L 57.460544 -29.613856 
L 57.99455 -29.613856 
L 58.528555 -29.613856 
L 59.062561 -29.613856 
L 59.596567 -29.613856 
L 60.130572 -29.613856 
L 60.664578 -29.613856 
L 61.198583 -29.613856 
L 61.732589 -29.613856 
L 62.266594 -29.613856 
L 62.8006 -29.613856 
L 63.334606 -29.613856 
L 63.868611 -29.613856 
L 64.402617 -29.613856 
L 64.936622 -29.613856 
L 65.470628 -29.613856 
L 66.004634 -29.613856 
L 66.538639 -29.613856 
L 67.072645 -29.613856 
L 67.60665 -29.613856 
L 68.140656 -29.613856 
L 68.674661 -29.613856 
L 69.208667 -29.613856 
L 69.742673 -29.613856 
L 70.276678 -29.613856 
L 70.810684 -29.613856 
L 71.344689 -29.613856 
L 71.878695 -29.613856 
L 72.4127 -29.613856 
L 72.946706 -29.613856 
L 73.480712 -29.613856 
L 74.014717 -29.613856 
L 74.548723 -29.613856 
L 75.082728 -29.613856 
L 75.616734 -29.613856 
L 76.150739 -29.613856 
L 76.684745 -29.613856 
L 77.218751 -29.613856 
L 77.752756 -29.613856 
L 78.286762 -29.613856 
L 78.820767 -29.613856 
L 79.354773 -29.613856 
L 79.888779 -29.613856 
L 80.422784 -29.613856 
L 80.95679 -29.613856 
L 81.490795 -29.613856 
L 82.024801 -29.613856 
L 82.558806 -29.613856 
L 83.092812 -29.613856 
L 83.626818 -29.613856 
L 84.160823 -29.613856 
L 84.694829 -29.613856 
L 85.228834 -29.613856 
L 85.76284 -29.613856 
L 86.296845 -29.613856 
L 86.830851 -29.613856 
L 87.364857 -29.613856 
L 87.898862 -29.613856 
L 88.432868 -29.613856 
L 88.966873 -29.613856 
L 89.500879 -29.613856 
L 90.034884 -29.613856 
L 90.56889 -29.613856 
L 91.102896 -29.613856 
L 91.636901 -29.613856 
L 92.170907 -29.613856 
L 92.704912 -29.613856 
L 93.238918 -29.613856 
L 93.772923 -29.613856 
L 94.306929 -29.613856 
L 94.840935 -29.613856 
L 95.37494 -29.613856 
L 95.908946 -29.613856 
L 96.442951 -29.613856 
L 96.976957 -29.613856 
L 97.510963 -29.613856 
L 98.044968 -29.613856 
L 98.578974 -29.613856 
L 99.112979 -29.613856 
L 99.646985 -29.613856 
L 100.18099 -29.613856 
L 100.714996 -29.613856 
L 101.249002 -29.613856 
L 101.783007 -29.613856 
L 102.317013 -29.613856 
L 102.851018 -29.613856 
L 103.385024 -29.613856 
L 103.919029 -29.613856 
L 104.453035 -29.613856 
L 104.987041 -29.613856 
L 105.521046 -29.613856 
L 106.055052 -29.613856 
L 106.589057 -29.613856 
L 107.123063 -29.613856 
L 107.657068 -29.613856 
L 108.191074 -29.613856 
L 108.72508 -29.613856 
L 109.259085 -29.613856 
L 109.793091 -29.613856 
L 110.327096 -29.613856 
L 110.861102 -29.613856 
L 111.395107 -29.613856 
L 111.929113 -29.613856 
L 112.463119 -29.613856 
L 112.997124 -29.613856 
L 113.53113 -29.613856 
L 114.065135 -29.613856 
L 114.599141 -29.613856 
L 115.133147 -29.613856 
L 115.667152 -29.613856 
L 116.201158 -29.613856 
L 116.735163 -29.613856 
L 117.269169 -29.613856 
L 117.803174 -29.613856 
L 118.33718 -29.613856 
L 118.871186 -29.613856 
L 119.405191 -29.613856 
L 119.939197 -29.613856 
L 120.473202 -29.613856 
L 121.007208 -29.613856 
L 121.541213 -29.613856 
L 122.075219 -29.613856 
L 122.609225 -29.613856 
L 123.14323 -29.613856 
L 123.677236 -29.613856 
L 124.211241 -29.613856 
L 124.745247 -29.613856 
L 125.279252 -29.613856 
L 125.813258 -29.613856 
L 126.347264 -29.613856 
L 126.881269 -29.613856 
L 127.415275 -29.613856 
L 127.94928 -29.613856 
L 128.483286 -29.613856 
L 129.017292 -29.613856 
L 129.551297 -29.613856 
L 130.085303 -29.613856 
L 130.619308 -29.613856 
L 131.153314 -29.613856 
L 131.687319 -29.613856 
L 132.221325 -29.613856 
L 132.755331 -29.613856 
L 133.289336 -29.613856 
L 133.823342 -29.613856 
L 134.357347 -29.613856 
L 134.891353 -29.613856 
L 135.425358 -29.613856 
L 135.959364 -29.613856 
L 136.49337 -29.613856 
L 137.027375 -29.613856 
L 137.561381 -29.613856 
L 138.095386 -29.613856 
L 138.629392 -29.613856 
L 139.163397 -29.613856 
L 139.697403 -29.613856 
L 140.231409 -29.613856 
L 140.765414 -29.613856 
L 141.29942 -29.613856 
L 141.833425 -29.613856 
L 142.367431 -29.613856 
L 142.901436 -29.613856 
L 143.435442 -29.613856 
L 143.969448 -29.613856 
L 144.503453 -29.613856 
L 144.503453 -29.614371 
L 144.503453 -29.614371 
L 143.969448 -29.61558 
L 143.435442 -29.618696 
L 142.901436 -29.625251 
L 142.367431 -29.636381 
L 141.833425 -29.651327 
L 141.29942 -29.666616 
L 140.765414 -29.67759 
L 140.231409 -29.681959 
L 139.697403 -29.682125 
L 139.163397 -29.683358 
L 138.629392 -29.689105 
L 138.095386 -29.698187 
L 137.561381 -29.70688 
L 137.027375 -29.713859 
L 136.49337 -29.723408 
L 135.959364 -29.744324 
L 135.425358 -29.785661 
L 134.891353 -29.852223 
L 134.357347 -29.942271 
L 133.823342 -30.04896 
L 133.289336 -30.165507 
L 132.755331 -30.29123 
L 132.221325 -30.433245 
L 131.687319 -30.600522 
L 131.153314 -30.793744 
L 130.619308 -30.999888 
L 130.085303 -31.197484 
L 129.551297 -31.368538 
L 129.017292 -31.507426 
L 128.483286 -31.621836 
L 127.94928 -31.728449 
L 127.415275 -31.847023 
L 126.881269 -31.993721 
L 126.347264 -32.175192 
L 125.813258 -32.387489 
L 125.279252 -32.621714 
L 124.745247 -32.8717 
L 124.211241 -33.136588 
L 123.677236 -33.418082 
L 123.14323 -33.720034 
L 122.609225 -34.053863 
L 122.075219 -34.440881 
L 121.541213 -34.902164 
L 121.007208 -35.44305 
L 120.473202 -36.050035 
L 119.939197 -36.705148 
L 119.405191 -37.402955 
L 118.871186 -38.154315 
L 118.33718 -38.9769 
L 117.803174 -39.88265 
L 117.269169 -40.868451 
L 116.735163 -41.911067 
L 116.201158 -42.969794 
L 115.667152 -44.00155 
L 115.133147 -44.983741 
L 114.599141 -45.928372 
L 114.065135 -46.873116 
L 113.53113 -47.854013 
L 112.997124 -48.882326 
L 112.463119 -49.944572 
L 111.929113 -51.021222 
L 111.395107 -52.101629 
L 110.861102 -53.180955 
L 110.327096 -54.248867 
L 109.793091 -55.291264 
L 109.259085 -56.311751 
L 108.72508 -57.353271 
L 108.191074 -58.490952 
L 107.657068 -59.789671 
L 107.123063 -61.255098 
L 106.589057 -62.819195 
L 106.055052 -64.375437 
L 105.521046 -65.837156 
L 104.987041 -67.174081 
L 104.453035 -68.406383 
L 103.919029 -69.575906 
L 103.385024 -70.725202 
L 102.851018 -71.890467 
L 102.317013 -73.095273 
L 101.783007 -74.342912 
L 101.249002 -75.619553 
L 100.714996 -76.909481 
L 100.18099 -78.205751 
L 99.646985 -79.504848 
L 99.112979 -80.793088 
L 98.578974 -82.038497 
L 98.044968 -83.195177 
L 97.510963 -84.221523 
L 96.976957 -85.105861 
L 96.442951 -85.880192 
L 95.908946 -86.603932 
L 95.37494 -87.325317 
L 94.840935 -88.052219 
L 94.306929 -88.755304 
L 93.772923 -89.394706 
L 93.238918 -89.945218 
L 92.704912 -90.408973 
L 92.170907 -90.822537 
L 91.636901 -91.25897 
L 91.102896 -91.808616 
L 90.56889 -92.533649 
L 90.034884 -93.42894 
L 89.500879 -94.430521 
L 88.966873 -95.465788 
L 88.432868 -96.49258 
L 87.898862 -97.49032 
L 87.364857 -98.425384 
L 86.830851 -99.241855 
L 86.296845 -99.895484 
L 85.76284 -100.393695 
L 85.228834 -100.793616 
L 84.694829 -101.158185 
L 84.160823 -101.516546 
L 83.626818 -101.860041 
L 83.092812 -102.157842 
L 82.558806 -102.367378 
L 82.024801 -102.44564 
L 81.490795 -102.377059 
L 80.95679 -102.203659 
L 80.422784 -102.023975 
L 79.888779 -101.953494 
L 79.354773 -102.076833 
L 78.820767 -102.423013 
L 78.286762 -102.966852 
L 77.752756 -103.642714 
L 77.218751 -104.363918 
L 76.684745 -105.048438 
L 76.150739 -105.645888 
L 75.616734 -106.155682 
L 75.082728 -106.629246 
L 74.548723 -107.150504 
L 74.014717 -107.792523 
L 73.480712 -108.568561 
L 72.946706 -109.415105 
L 72.4127 -110.226659 
L 71.878695 -110.916699 
L 71.344689 -111.45856 
L 70.810684 -111.884039 
L 70.276678 -112.251536 
L 69.742673 -112.607031 
L 69.208667 -112.955613 
L 68.674661 -113.254863 
L 68.140656 -113.432824 
L 67.60665 -113.419137 
L 67.072645 -113.171607 
L 66.538639 -112.688788 
L 66.004634 -112.006224 
L 65.470628 -111.172128 
L 64.936622 -110.207079 
L 64.402617 -109.075251 
L 63.868611 -107.697164 
L 63.334606 -105.998071 
L 62.8006 -103.95141 
L 62.266594 -101.585085 
L 61.732589 -98.953923 
L 61.198583 -96.103037 
L 60.664578 -93.044658 
L 60.130572 -89.760781 
L 59.596567 -86.232416 
L 59.062561 -82.481963 
L 58.528555 -78.603547 
L 57.99455 -74.756195 
L 57.460544 -71.112434 
L 56.926539 -67.786515 
L 56.392533 -64.789703 
L 55.858528 -62.046487 
L 55.324522 -59.457394 
L 54.790516 -56.956001 
L 54.256511 -54.520917 
L 53.722505 -52.153324 
L 53.1885 -49.859584 
L 52.654494 -47.657204 
L 52.120489 -45.584899 
L 51.586483 -43.691943 
L 51.052477 -42.009633 
L 50.518472 -40.530706 
L 49.984466 -39.216198 
L 49.450461 -38.023448 
L 48.916455 -36.930024 
L 48.38245 -35.934024 
L 47.848444 -35.036386 
L 47.314438 -34.228192 
L 46.780433 -33.495453 
L 46.246427 -32.830439 
L 45.712422 -32.233308 
L 45.178416 -31.704163 
L 44.64441 -31.238176 
L 44.110405 -30.829827 
L 43.576399 -30.479269 
L 43.042394 -30.192127 
L 42.508388 -29.973005 
L 41.974383 -29.819544 
L 41.440377 -29.721698 
L 40.906371 -29.665211 
L 40.372366 -29.635869 
L 39.83836 -29.622267 
L 39.304355 -29.616694 
L 38.770349 -29.614694 
L 38.236344 -29.614071 
z
" style="stroke: #cf695e"/>
    </defs>
    <g clip-path="url(#p3ce38cda11)">
     <use xlink:href="#me688491f3c" x="0" y="142.361356" style="fill: #cf695e; fill-opacity: 0.25; stroke: #cf695e"/>
    </g>
   </g>
   <g id="patch_3">
    <path d="M 37.667091 112.7475 
L 37.667091 3.6 
" style="fill: none; stroke: #000000; stroke-width: 0.5; stroke-linejoin: miter; stroke-linecap: square"/>
   </g>
   <g id="patch_4">
    <path d="M 184.142091 112.7475 
L 184.142091 3.6 
" style="fill: none; stroke: #000000; stroke-width: 0.5; stroke-linejoin: miter; stroke-linecap: square"/>
   </g>
   <g id="patch_5">
    <path d="M 37.667091 112.7475 
L 184.142091 112.7475 
" style="fill: none; stroke: #000000; stroke-width: 0.5; stroke-linejoin: miter; stroke-linecap: square"/>
   </g>
   <g id="patch_6">
    <path d="M 37.667091 3.6 
L 184.142091 3.6 
" style="fill: none; stroke: #000000; stroke-width: 0.5; stroke-linejoin: miter; stroke-linecap: square"/>
   </g>
   <g id="legend_1">
    <g id="patch_7">
     <path d="M 130.408244 33.483338 
L 178.311091 33.483338 
Q 179.977091 33.483338 179.977091 31.817338 
L 179.977091 9.431 
Q 179.977091 7.765 178.311091 7.765 
L 130.408244 7.765 
Q 128.742244 7.765 128.742244 9.431 
L 128.742244 31.817338 
Q 128.742244 33.483338 130.408244 33.483338 
z
" style="fill: #ffffff; stroke: #cccccc; stroke-linejoin: miter"/>
    </g>
    <g id="patch_8">
     <path d="M 132.074244 16.928 
L 148.734244 16.928 
L 148.734244 11.097 
L 132.074244 11.097 
z
" style="fill: #0f3455; fill-opacity: 0.25; stroke: #0f3455; stroke-linejoin: miter"/>
    </g>
    <g id="text_13">
     <!-- $\kappa = 1$ -->
     <g transform="translate(155.398244 16.928) scale(0.0833 -0.0833)">
      <defs>
       <path id="CMMI12-14" d="M 1363 1600 
C 1574 1714 1811 1912 1971 2046 
C 2355 2377 2496 2479 2739 2574 
C 2714 2536 2707 2485 2707 2441 
C 2707 2268 2854 2236 2918 2236 
C 3123 2236 3238 2427 3238 2548 
C 3238 2586 3226 2752 3002 2752 
C 2618 2752 2240 2431 1958 2198 
C 1587 1876 1402 1738 1139 1656 
L 1382 2656 
C 1382 2759 1299 2816 1216 2816 
C 1158 2816 1018 2797 966 2592 
L 371 224 
C 352 148 352 134 352 96 
C 352 6 422 -64 518 -64 
C 710 -64 749 106 781 244 
C 819 380 1082 1472 1094 1472 
C 1907 1472 2182 1264 2182 943 
C 2182 897 2182 878 2163 806 
C 2138 682 2138 609 2138 570 
C 2138 178 2387 -64 2701 -64 
C 2963 -64 3110 123 3206 291 
C 3341 543 3424 898 3424 923 
C 3424 956 3398 981 3360 981 
C 3302 981 3296 956 3270 852 
C 3187 542 3046 64 2720 64 
C 2579 64 2509 148 2509 374 
C 2509 498 2534 641 2560 737 
C 2573 802 2592 880 2592 951 
C 2592 1541 1786 1600 1363 1600 
z
" transform="scale(0.015625)"/>
       <path id="CMR17-3d" d="M 4115 2017 
C 4211 2017 4307 2017 4307 2125 
C 4307 2240 4198 2240 4090 2240 
L 512 2240 
C 403 2240 294 2240 294 2125 
C 294 2017 390 2017 486 2017 
L 4115 2017 
z
M 4090 896 
C 4198 896 4307 896 4307 1011 
C 4307 1119 4211 1119 4115 1119 
L 486 1119 
C 390 1119 294 1119 294 1011 
C 294 896 403 896 512 896 
L 4090 896 
z
" transform="scale(0.015625)"/>
      </defs>
      <use xlink:href="#CMMI12-14" transform="scale(0.996264)"/>
      <use xlink:href="#CMR17-3d" transform="translate(83.828633 0) scale(0.996264)"/>
      <use xlink:href="#CMR17-31" transform="translate(183.21743 0) scale(0.996264)"/>
     </g>
    </g>
    <g id="patch_9">
     <path d="M 132.074244 28.537669 
L 148.734244 28.537669 
L 148.734244 22.706669 
L 132.074244 22.706669 
z
" style="fill: #cf695e; fill-opacity: 0.25; stroke: #cf695e; stroke-linejoin: miter"/>
    </g>
    <g id="text_14">
     <!-- $\kappa = 4$ -->
     <g transform="translate(155.398244 28.537669) scale(0.0833 -0.0833)">
      <use xlink:href="#CMMI12-14" transform="scale(0.996264)"/>
      <use xlink:href="#CMR17-3d" transform="translate(83.828633 0) scale(0.996264)"/>
      <use xlink:href="#CMR17-34" transform="translate(183.21743 0) scale(0.996264)"/>
     </g>
    </g>
   </g>
  </g>
 </g>
 <defs>
  <clipPath id="p3ce38cda11">
   <rect x="37.667091" y="3.6" width="146.475" height="109.1475"/>
  </clipPath>
 </defs>
</svg>
