<?xml version="1.0" encoding="utf-8" standalone="no"?>
<!DOCTYPE svg PUBLIC "-//W3C//DTD SVG 1.1//EN"
  "http://www.w3.org/Graphics/SVG/1.1/DTD/svg11.dtd">
<svg xmlns:xlink="http://www.w3.org/1999/xlink" width="189.125795pt" height="142.665817pt" viewBox="0 0 189.125795 142.665817" xmlns="http://www.w3.org/2000/svg" version="1.1">
 <metadata>
  <rdf:RDF xmlns:dc="http://purl.org/dc/elements/1.1/" xmlns:cc="http://creativecommons.org/ns#" xmlns:rdf="http://www.w3.org/1999/02/22-rdf-syntax-ns#">
   <cc:Work>
    <dc:type rdf:resource="http://purl.org/dc/dcmitype/StillImage"/>
    <dc:date>2026-06-16T09:24:04.335031</dc:date>
    <dc:format>image/svg+xml</dc:format>
    <dc:creator>
     <cc:Agent>
      <dc:title>Matplotlib v3.7.0, https://matplotlib.org/</dc:title>
     </cc:Agent>
    </dc:creator>
   </cc:Work>
  </rdf:RDF>
 </metadata>
 <defs>
  <style type="text/css">*{stroke-linejoin: round; stroke-linecap: butt}</style>
 </defs>
 <g id="figure_1">
  <g id="patch_1">
   <path d="M 0 142.665817 
L 189.125795 142.665817 
L 189.125795 0 
L 0 0 
L 0 142.665817 
z
" style="fill: none"/>
  </g>
  <g id="axes_1">
   <g id="patch_2">
    <path d="M 32.685756 112.7475 
L 179.160756 112.7475 
L 179.160756 3.6 
L 32.685756 3.6 
L 32.685756 112.7475 
z
" style="fill: none"/>
   </g>
   <g id="matplotlib.axis_1">
    <g id="xtick_1">
     <g id="line2d_1">
      <path d="M 32.685756 112.7475 
L 32.685756 3.6 
" clip-path="url(#p8f6c5c34c8)" style="fill: none; stroke-dasharray: 1.85,0.8; stroke-dashoffset: 0; stroke: #000000; stroke-opacity: 0.5; stroke-width: 0.5"/>
     </g>
     <g id="line2d_2">
      <defs>
       <path id="me9e596a60c" d="M 0 0 
L 0 -3 
" style="stroke: #000000; stroke-width: 0.5"/>
      </defs>
      <g>
       <use xlink:href="#me9e596a60c" x="32.685756" y="112.7475" style="stroke: #000000; stroke-width: 0.5"/>
      </g>
     </g>
     <g id="line2d_3">
      <defs>
       <path id="mab1146c06f" d="M 0 0 
L 0 3 
" style="stroke: #000000; stroke-width: 0.5"/>
      </defs>
      <g>
       <use xlink:href="#mab1146c06f" x="32.685756" y="3.6" style="stroke: #000000; stroke-width: 0.5"/>
      </g>
     </g>
     <g id="text_1">
      <!-- $\mathdefault{−1.0}$ -->
      <g transform="translate(22.446344 123.165998) scale(0.1 -0.1)">
       <defs>
        <path id="CMSY10-0" d="M 4218 1472 
C 4326 1472 4442 1472 4442 1600 
C 4442 1728 4326 1728 4218 1728 
L 755 1728 
C 646 1728 531 1728 531 1600 
C 531 1472 646 1472 755 1472 
L 4218 1472 
z
" transform="scale(0.015625)"/>
        <path id="CMR17-31" d="M 1702 4058 
C 1702 4192 1696 4192 1606 4192 
C 1357 3916 979 3827 621 3827 
C 602 3827 570 3827 563 3808 
C 557 3795 557 3782 557 3648 
C 755 3648 1088 3686 1344 3839 
L 1344 461 
C 1344 236 1331 160 781 160 
L 589 160 
L 589 0 
C 896 0 1216 0 1523 0 
C 1830 0 2150 0 2458 0 
L 2458 160 
L 2266 160 
C 1715 160 1702 230 1702 458 
L 1702 4058 
z
" transform="scale(0.015625)"/>
        <path id="CMMI12-3a" d="M 1178 307 
C 1178 492 1024 619 870 619 
C 685 619 557 466 557 313 
C 557 128 710 0 864 0 
C 1050 0 1178 153 1178 307 
z
" transform="scale(0.015625)"/>
        <path id="CMR17-30" d="M 2688 2025 
C 2688 2416 2682 3080 2413 3591 
C 2176 4039 1798 4198 1466 4198 
C 1158 4198 768 4058 525 3597 
C 269 3118 243 2524 243 2025 
C 243 1661 250 1106 448 619 
C 723 -39 1216 -128 1466 -128 
C 1760 -128 2208 -7 2470 600 
C 2662 1042 2688 1559 2688 2025 
z
M 1466 -26 
C 1056 -26 813 325 723 812 
C 653 1188 653 1738 653 2096 
C 653 2588 653 2997 736 3387 
C 858 3929 1216 4096 1466 4096 
C 1728 4096 2067 3923 2189 3400 
C 2272 3036 2278 2607 2278 2096 
C 2278 1680 2278 1169 2202 792 
C 2067 95 1690 -26 1466 -26 
z
" transform="scale(0.015625)"/>
       </defs>
       <use xlink:href="#CMSY10-0" transform="scale(0.996264)"/>
       <use xlink:href="#CMR17-31" transform="translate(77.487468 0) scale(0.996264)"/>
       <use xlink:href="#CMMI12-3a" transform="translate(123.177945 0) scale(0.996264)"/>
       <use xlink:href="#CMR17-30" transform="translate(150.275122 0) scale(0.996264)"/>
      </g>
     </g>
    </g>
    <g id="xtick_2">
     <g id="line2d_4">
      <path d="M 69.304506 112.7475 
L 69.304506 3.6 
" clip-path="url(#p8f6c5c34c8)" style="fill: none; stroke-dasharray: 1.85,0.8; stroke-dashoffset: 0; stroke: #000000; stroke-opacity: 0.5; stroke-width: 0.5"/>
     </g>
     <g id="line2d_5">
      <g>
       <use xlink:href="#me9e596a60c" x="69.304506" y="112.7475" style="stroke: #000000; stroke-width: 0.5"/>
      </g>
     </g>
     <g id="line2d_6">
      <g>
       <use xlink:href="#mab1146c06f" x="69.304506" y="3.6" style="stroke: #000000; stroke-width: 0.5"/>
      </g>
     </g>
     <g id="text_2">
      <!-- $\mathdefault{−0.5}$ -->
      <g transform="translate(59.065094 123.165998) scale(0.1 -0.1)">
       <defs>
        <path id="CMR17-35" d="M 730 3692 
C 794 3666 1056 3584 1325 3584 
C 1920 3584 2246 3911 2432 4100 
C 2432 4157 2432 4192 2394 4192 
C 2387 4192 2374 4192 2323 4163 
C 2099 4058 1837 3973 1517 3973 
C 1325 3973 1037 3999 723 4139 
C 653 4171 640 4171 634 4171 
C 602 4171 595 4164 595 4037 
L 595 2203 
C 595 2089 595 2057 659 2057 
C 691 2057 704 2070 736 2114 
C 941 2401 1222 2522 1542 2522 
C 1766 2522 2246 2382 2246 1289 
C 2246 1085 2246 715 2054 421 
C 1894 159 1645 25 1370 25 
C 947 25 518 320 403 814 
C 429 807 480 795 506 795 
C 589 795 749 840 749 1038 
C 749 1210 627 1280 506 1280 
C 358 1280 262 1190 262 1011 
C 262 454 704 -128 1382 -128 
C 2042 -128 2669 440 2669 1264 
C 2669 2030 2170 2624 1549 2624 
C 1222 2624 947 2503 730 2274 
L 730 3692 
z
" transform="scale(0.015625)"/>
       </defs>
       <use xlink:href="#CMSY10-0" transform="scale(0.996264)"/>
       <use xlink:href="#CMR17-30" transform="translate(77.487468 0) scale(0.996264)"/>
       <use xlink:href="#CMMI12-3a" transform="translate(123.177945 0) scale(0.996264)"/>
       <use xlink:href="#CMR17-35" transform="translate(150.275122 0) scale(0.996264)"/>
      </g>
     </g>
    </g>
    <g id="xtick_3">
     <g id="line2d_7">
      <path d="M 105.923256 112.7475 
L 105.923256 3.6 
" clip-path="url(#p8f6c5c34c8)" style="fill: none; stroke-dasharray: 1.85,0.8; stroke-dashoffset: 0; stroke: #000000; stroke-opacity: 0.5; stroke-width: 0.5"/>
     </g>
     <g id="line2d_8">
      <g>
       <use xlink:href="#me9e596a60c" x="105.923256" y="112.7475" style="stroke: #000000; stroke-width: 0.5"/>
      </g>
     </g>
     <g id="line2d_9">
      <g>
       <use xlink:href="#mab1146c06f" x="105.923256" y="3.6" style="stroke: #000000; stroke-width: 0.5"/>
      </g>
     </g>
     <g id="text_3">
      <!-- $\mathdefault{0.0}$ -->
      <g transform="translate(99.558216 123.165998) scale(0.1 -0.1)">
       <use xlink:href="#CMR17-30" transform="scale(0.996264)"/>
       <use xlink:href="#CMMI12-3a" transform="translate(45.690477 0) scale(0.996264)"/>
       <use xlink:href="#CMR17-30" transform="translate(72.787654 0) scale(0.996264)"/>
      </g>
     </g>
    </g>
    <g id="xtick_4">
     <g id="line2d_10">
      <path d="M 142.542006 112.7475 
L 142.542006 3.6 
" clip-path="url(#p8f6c5c34c8)" style="fill: none; stroke-dasharray: 1.85,0.8; stroke-dashoffset: 0; stroke: #000000; stroke-opacity: 0.5; stroke-width: 0.5"/>
     </g>
     <g id="line2d_11">
      <g>
       <use xlink:href="#me9e596a60c" x="142.542006" y="112.7475" style="stroke: #000000; stroke-width: 0.5"/>
      </g>
     </g>
     <g id="line2d_12">
      <g>
       <use xlink:href="#mab1146c06f" x="142.542006" y="3.6" style="stroke: #000000; stroke-width: 0.5"/>
      </g>
     </g>
     <g id="text_4">
      <!-- $\mathdefault{0.5}$ -->
      <g transform="translate(136.176966 123.165998) scale(0.1 -0.1)">
       <use xlink:href="#CMR17-30" transform="scale(0.996264)"/>
       <use xlink:href="#CMMI12-3a" transform="translate(45.690477 0) scale(0.996264)"/>
       <use xlink:href="#CMR17-35" transform="translate(72.787654 0) scale(0.996264)"/>
      </g>
     </g>
    </g>
    <g id="xtick_5">
     <g id="line2d_13">
      <path d="M 179.160756 112.7475 
L 179.160756 3.6 
" clip-path="url(#p8f6c5c34c8)" style="fill: none; stroke-dasharray: 1.85,0.8; stroke-dashoffset: 0; stroke: #000000; stroke-opacity: 0.5; stroke-width: 0.5"/>
     </g>
     <g id="line2d_14">
      <g>
       <use xlink:href="#me9e596a60c" x="179.160756" y="112.7475" style="stroke: #000000; stroke-width: 0.5"/>
      </g>
     </g>
     <g id="line2d_15">
      <g>
       <use xlink:href="#mab1146c06f" x="179.160756" y="3.6" style="stroke: #000000; stroke-width: 0.5"/>
      </g>
     </g>
     <g id="text_5">
      <!-- $\mathdefault{1.0}$ -->
      <g transform="translate(172.795716 123.165998) scale(0.1 -0.1)">
       <use xlink:href="#CMR17-31" transform="scale(0.996264)"/>
       <use xlink:href="#CMMI12-3a" transform="translate(45.690477 0) scale(0.996264)"/>
       <use xlink:href="#CMR17-30" transform="translate(72.787654 0) scale(0.996264)"/>
      </g>
     </g>
    </g>
    <g id="xtick_6">
     <g id="line2d_16">
      <defs>
       <path id="m5395b8a6b8" d="M 0 0 
L 0 -1.5 
" style="stroke: #000000; stroke-width: 0.5"/>
      </defs>
      <g>
       <use xlink:href="#m5395b8a6b8" x="40.009506" y="112.7475" style="stroke: #000000; stroke-width: 0.5"/>
      </g>
     </g>
     <g id="line2d_17">
      <defs>
       <path id="m18dec0f0b2" d="M 0 0 
L 0 1.5 
" style="stroke: #000000; stroke-width: 0.5"/>
      </defs>
      <g>
       <use xlink:href="#m18dec0f0b2" x="40.009506" y="3.6" style="stroke: #000000; stroke-width: 0.5"/>
      </g>
     </g>
    </g>
    <g id="xtick_7">
     <g id="line2d_18">
      <g>
       <use xlink:href="#m5395b8a6b8" x="47.333256" y="112.7475" style="stroke: #000000; stroke-width: 0.5"/>
      </g>
     </g>
     <g id="line2d_19">
      <g>
       <use xlink:href="#m18dec0f0b2" x="47.333256" y="3.6" style="stroke: #000000; stroke-width: 0.5"/>
      </g>
     </g>
    </g>
    <g id="xtick_8">
     <g id="line2d_20">
      <g>
       <use xlink:href="#m5395b8a6b8" x="54.657006" y="112.7475" style="stroke: #000000; stroke-width: 0.5"/>
      </g>
     </g>
     <g id="line2d_21">
      <g>
       <use xlink:href="#m18dec0f0b2" x="54.657006" y="3.6" style="stroke: #000000; stroke-width: 0.5"/>
      </g>
     </g>
    </g>
    <g id="xtick_9">
     <g id="line2d_22">
      <g>
       <use xlink:href="#m5395b8a6b8" x="61.980756" y="112.7475" style="stroke: #000000; stroke-width: 0.5"/>
      </g>
     </g>
     <g id="line2d_23">
      <g>
       <use xlink:href="#m18dec0f0b2" x="61.980756" y="3.6" style="stroke: #000000; stroke-width: 0.5"/>
      </g>
     </g>
    </g>
    <g id="xtick_10">
     <g id="line2d_24">
      <g>
       <use xlink:href="#m5395b8a6b8" x="76.628256" y="112.7475" style="stroke: #000000; stroke-width: 0.5"/>
      </g>
     </g>
     <g id="line2d_25">
      <g>
       <use xlink:href="#m18dec0f0b2" x="76.628256" y="3.6" style="stroke: #000000; stroke-width: 0.5"/>
      </g>
     </g>
    </g>
    <g id="xtick_11">
     <g id="line2d_26">
      <g>
       <use xlink:href="#m5395b8a6b8" x="83.952006" y="112.7475" style="stroke: #000000; stroke-width: 0.5"/>
      </g>
     </g>
     <g id="line2d_27">
      <g>
       <use xlink:href="#m18dec0f0b2" x="83.952006" y="3.6" style="stroke: #000000; stroke-width: 0.5"/>
      </g>
     </g>
    </g>
    <g id="xtick_12">
     <g id="line2d_28">
      <g>
       <use xlink:href="#m5395b8a6b8" x="91.275756" y="112.7475" style="stroke: #000000; stroke-width: 0.5"/>
      </g>
     </g>
     <g id="line2d_29">
      <g>
       <use xlink:href="#m18dec0f0b2" x="91.275756" y="3.6" style="stroke: #000000; stroke-width: 0.5"/>
      </g>
     </g>
    </g>
    <g id="xtick_13">
     <g id="line2d_30">
      <g>
       <use xlink:href="#m5395b8a6b8" x="98.599506" y="112.7475" style="stroke: #000000; stroke-width: 0.5"/>
      </g>
     </g>
     <g id="line2d_31">
      <g>
       <use xlink:href="#m18dec0f0b2" x="98.599506" y="3.6" style="stroke: #000000; stroke-width: 0.5"/>
      </g>
     </g>
    </g>
    <g id="xtick_14">
     <g id="line2d_32">
      <g>
       <use xlink:href="#m5395b8a6b8" x="113.247006" y="112.7475" style="stroke: #000000; stroke-width: 0.5"/>
      </g>
     </g>
     <g id="line2d_33">
      <g>
       <use xlink:href="#m18dec0f0b2" x="113.247006" y="3.6" style="stroke: #000000; stroke-width: 0.5"/>
      </g>
     </g>
    </g>
    <g id="xtick_15">
     <g id="line2d_34">
      <g>
       <use xlink:href="#m5395b8a6b8" x="120.570756" y="112.7475" style="stroke: #000000; stroke-width: 0.5"/>
      </g>
     </g>
     <g id="line2d_35">
      <g>
       <use xlink:href="#m18dec0f0b2" x="120.570756" y="3.6" style="stroke: #000000; stroke-width: 0.5"/>
      </g>
     </g>
    </g>
    <g id="xtick_16">
     <g id="line2d_36">
      <g>
       <use xlink:href="#m5395b8a6b8" x="127.894506" y="112.7475" style="stroke: #000000; stroke-width: 0.5"/>
      </g>
     </g>
     <g id="line2d_37">
      <g>
       <use xlink:href="#m18dec0f0b2" x="127.894506" y="3.6" style="stroke: #000000; stroke-width: 0.5"/>
      </g>
     </g>
    </g>
    <g id="xtick_17">
     <g id="line2d_38">
      <g>
       <use xlink:href="#m5395b8a6b8" x="135.218256" y="112.7475" style="stroke: #000000; stroke-width: 0.5"/>
      </g>
     </g>
     <g id="line2d_39">
      <g>
       <use xlink:href="#m18dec0f0b2" x="135.218256" y="3.6" style="stroke: #000000; stroke-width: 0.5"/>
      </g>
     </g>
    </g>
    <g id="xtick_18">
     <g id="line2d_40">
      <g>
       <use xlink:href="#m5395b8a6b8" x="149.865756" y="112.7475" style="stroke: #000000; stroke-width: 0.5"/>
      </g>
     </g>
     <g id="line2d_41">
      <g>
       <use xlink:href="#m18dec0f0b2" x="149.865756" y="3.6" style="stroke: #000000; stroke-width: 0.5"/>
      </g>
     </g>
    </g>
    <g id="xtick_19">
     <g id="line2d_42">
      <g>
       <use xlink:href="#m5395b8a6b8" x="157.189506" y="112.7475" style="stroke: #000000; stroke-width: 0.5"/>
      </g>
     </g>
     <g id="line2d_43">
      <g>
       <use xlink:href="#m18dec0f0b2" x="157.189506" y="3.6" style="stroke: #000000; stroke-width: 0.5"/>
      </g>
     </g>
    </g>
    <g id="xtick_20">
     <g id="line2d_44">
      <g>
       <use xlink:href="#m5395b8a6b8" x="164.513256" y="112.7475" style="stroke: #000000; stroke-width: 0.5"/>
      </g>
     </g>
     <g id="line2d_45">
      <g>
       <use xlink:href="#m18dec0f0b2" x="164.513256" y="3.6" style="stroke: #000000; stroke-width: 0.5"/>
      </g>
     </g>
    </g>
    <g id="xtick_21">
     <g id="line2d_46">
      <g>
       <use xlink:href="#m5395b8a6b8" x="171.837006" y="112.7475" style="stroke: #000000; stroke-width: 0.5"/>
      </g>
     </g>
     <g id="line2d_47">
      <g>
       <use xlink:href="#m18dec0f0b2" x="171.837006" y="3.6" style="stroke: #000000; stroke-width: 0.5"/>
      </g>
     </g>
    </g>
    <g id="text_6">
     <!-- $\varphi_n~[\mathrm{\pi}]$ -->
     <g transform="translate(92.50709 136.575157) scale(0.1 -0.1)">
      <defs>
       <path id="CMMI12-27" d="M 1926 280 
C 1818 280 1722 280 1722 312 
C 1722 325 1830 926 1869 1067 
C 2074 1884 2560 2472 3117 2472 
C 3533 2472 3725 2159 3725 1808 
C 3725 1080 2906 280 1926 280 
z
M 1651 -51 
C 1690 -57 1754 -64 1869 -64 
C 2918 -64 3885 945 3885 1954 
C 3885 2344 3712 2816 3174 2816 
C 2253 2816 1862 1519 1504 318 
C 768 458 461 848 461 1276 
C 461 1449 595 2133 966 2592 
C 1037 2676 1037 2689 1037 2702 
C 1037 2753 986 2753 973 2753 
C 800 2753 314 1820 314 1213 
C 314 497 877 107 1395 -7 
L 1062 -1088 
C 1030 -1184 1030 -1196 1030 -1222 
C 1030 -1376 1184 -1376 1197 -1376 
C 1261 -1376 1376 -1351 1427 -1223 
C 1446 -1166 1626 -178 1651 -51 
z
" transform="scale(0.015625)"/>
       <path id="CMMI12-6e" d="M 1318 1871 
C 1331 1910 1491 2229 1728 2433 
C 1894 2586 2112 2689 2362 2689 
C 2618 2689 2707 2497 2707 2242 
C 2707 1878 2445 1150 2317 805 
C 2259 651 2227 568 2227 453 
C 2227 166 2426 -64 2733 -64 
C 3328 -64 3552 875 3552 913 
C 3552 945 3526 971 3488 971 
C 3430 971 3424 952 3392 843 
C 3245 319 3002 64 2752 64 
C 2688 64 2586 64 2586 269 
C 2586 429 2656 621 2694 710 
C 2822 1063 3091 1780 3091 2145 
C 3091 2528 2867 2816 2381 2816 
C 1811 2816 1510 2415 1395 2255 
C 1376 2618 1114 2816 832 2816 
C 627 2816 486 2695 378 2478 
C 262 2248 173 1865 173 1839 
C 173 1814 198 1782 243 1782 
C 294 1782 301 1788 339 1935 
C 442 2325 557 2689 813 2689 
C 960 2689 1011 2586 1011 2395 
C 1011 2254 947 2005 902 1807 
L 723 1118 
C 698 996 627 709 595 594 
C 550 428 480 128 480 96 
C 480 6 550 -64 646 -64 
C 723 -64 813 -26 864 70 
C 877 102 934 326 966 453 
L 1107 1028 
L 1318 1871 
z
" transform="scale(0.015625)"/>
       <path id="CMR17-5b" d="M 1504 -1600 
L 1504 -1377 
L 902 -1377 
L 902 4544 
L 1504 4544 
L 1504 4767 
L 678 4767 
L 678 -1600 
L 1504 -1600 
z
" transform="scale(0.015625)"/>
       <path id="CMMI12-19" d="M 1658 2408 
L 2381 2408 
C 2208 1692 2099 1226 2099 716 
C 2099 626 2099 -64 2362 -64 
C 2496 -64 2611 57 2611 166 
C 2611 197 2611 210 2566 306 
C 2394 747 2394 1296 2394 1341 
C 2394 1379 2394 1832 2528 2408 
L 3245 2408 
C 3328 2408 3539 2408 3539 2612 
C 3539 2752 3418 2752 3302 2752 
L 1197 2752 
C 1050 2752 832 2752 538 2440 
C 371 2254 166 1916 166 1878 
C 166 1840 198 1827 237 1827 
C 282 1827 288 1846 320 1884 
C 653 2408 986 2408 1146 2408 
L 1510 2408 
C 1370 1929 1210 1373 685 256 
C 634 154 634 140 634 102 
C 634 -32 749 -64 806 -64 
C 992 -64 1043 102 1120 370 
C 1222 696 1222 709 1286 964 
L 1658 2408 
z
" transform="scale(0.015625)"/>
       <path id="CMR17-5d" d="M 915 4767 
L 90 4767 
L 90 4544 
L 691 4544 
L 691 -1377 
L 90 -1377 
L 90 -1600 
L 915 -1600 
L 915 4767 
z
" transform="scale(0.015625)"/>
      </defs>
      <use xlink:href="#CMMI12-27" transform="scale(0.996264)"/>
      <use xlink:href="#CMMI12-6e" transform="translate(63.903064 -14.943915) scale(0.697382)"/>
      <use xlink:href="#CMR17-5b" transform="translate(135.238005 0) scale(0.996264)"/>
      <use xlink:href="#CMMI12-19" transform="translate(160.109064 0) scale(0.996264)"/>
      <use xlink:href="#CMR17-5d" transform="translate(219.019664 0) scale(0.996264)"/>
     </g>
    </g>
   </g>
   <g id="matplotlib.axis_2">
    <g id="ytick_1">
     <g id="line2d_48">
      <path d="M 32.685756 112.7475 
L 179.160756 112.7475 
" clip-path="url(#p8f6c5c34c8)" style="fill: none; stroke-dasharray: 1.85,0.8; stroke-dashoffset: 0; stroke: #000000; stroke-opacity: 0.5; stroke-width: 0.5"/>
     </g>
     <g id="line2d_49">
      <defs>
       <path id="mf35698b08e" d="M 0 0 
L 3 0 
" style="stroke: #000000; stroke-width: 0.5"/>
      </defs>
      <g>
       <use xlink:href="#mf35698b08e" x="32.685756" y="112.7475" style="stroke: #000000; stroke-width: 0.5"/>
      </g>
     </g>
     <g id="line2d_50">
      <defs>
       <path id="m927794d31a" d="M 0 0 
L -3 0 
" style="stroke: #000000; stroke-width: 0.5"/>
      </defs>
      <g>
       <use xlink:href="#m927794d31a" x="179.160756" y="112.7475" style="stroke: #000000; stroke-width: 0.5"/>
      </g>
     </g>
     <g id="text_7">
      <!-- $\mathdefault{0.0}$ -->
      <g transform="translate(16.455677 116.206749) scale(0.1 -0.1)">
       <use xlink:href="#CMR17-30" transform="scale(0.996264)"/>
       <use xlink:href="#CMMI12-3a" transform="translate(45.690477 0) scale(0.996264)"/>
       <use xlink:href="#CMR17-30" transform="translate(72.787654 0) scale(0.996264)"/>
      </g>
     </g>
    </g>
    <g id="ytick_2">
     <g id="line2d_51">
      <path d="M 32.685756 70.926429 
L 179.160756 70.926429 
" clip-path="url(#p8f6c5c34c8)" style="fill: none; stroke-dasharray: 1.85,0.8; stroke-dashoffset: 0; stroke: #000000; stroke-opacity: 0.5; stroke-width: 0.5"/>
     </g>
     <g id="line2d_52">
      <g>
       <use xlink:href="#mf35698b08e" x="32.685756" y="70.926429" style="stroke: #000000; stroke-width: 0.5"/>
      </g>
     </g>
     <g id="line2d_53">
      <g>
       <use xlink:href="#m927794d31a" x="179.160756" y="70.926429" style="stroke: #000000; stroke-width: 0.5"/>
      </g>
     </g>
     <g id="text_8">
      <!-- $\mathdefault{0.5}$ -->
      <g transform="translate(16.455677 74.385678) scale(0.1 -0.1)">
       <use xlink:href="#CMR17-30" transform="scale(0.996264)"/>
       <use xlink:href="#CMMI12-3a" transform="translate(45.690477 0) scale(0.996264)"/>
       <use xlink:href="#CMR17-35" transform="translate(72.787654 0) scale(0.996264)"/>
      </g>
     </g>
    </g>
    <g id="ytick_3">
     <g id="line2d_54">
      <path d="M 32.685756 29.105358 
L 179.160756 29.105358 
" clip-path="url(#p8f6c5c34c8)" style="fill: none; stroke-dasharray: 1.85,0.8; stroke-dashoffset: 0; stroke: #000000; stroke-opacity: 0.5; stroke-width: 0.5"/>
     </g>
     <g id="line2d_55">
      <g>
       <use xlink:href="#mf35698b08e" x="32.685756" y="29.105358" style="stroke: #000000; stroke-width: 0.5"/>
      </g>
     </g>
     <g id="line2d_56">
      <g>
       <use xlink:href="#m927794d31a" x="179.160756" y="29.105358" style="stroke: #000000; stroke-width: 0.5"/>
      </g>
     </g>
     <g id="text_9">
      <!-- $\mathdefault{1.0}$ -->
      <g transform="translate(16.455677 32.564607) scale(0.1 -0.1)">
       <use xlink:href="#CMR17-31" transform="scale(0.996264)"/>
       <use xlink:href="#CMMI12-3a" transform="translate(45.690477 0) scale(0.996264)"/>
       <use xlink:href="#CMR17-30" transform="translate(72.787654 0) scale(0.996264)"/>
      </g>
     </g>
    </g>
    <g id="ytick_4">
     <g id="line2d_57">
      <defs>
       <path id="m7d4035df5f" d="M 0 0 
L 1.5 0 
" style="stroke: #000000; stroke-width: 0.5"/>
      </defs>
      <g>
       <use xlink:href="#m7d4035df5f" x="32.685756" y="104.383286" style="stroke: #000000; stroke-width: 0.5"/>
      </g>
     </g>
     <g id="line2d_58">
      <defs>
       <path id="m368035dce7" d="M 0 0 
L -1.5 0 
" style="stroke: #000000; stroke-width: 0.5"/>
      </defs>
      <g>
       <use xlink:href="#m368035dce7" x="179.160756" y="104.383286" style="stroke: #000000; stroke-width: 0.5"/>
      </g>
     </g>
    </g>
    <g id="ytick_5">
     <g id="line2d_59">
      <g>
       <use xlink:href="#m7d4035df5f" x="32.685756" y="96.019072" style="stroke: #000000; stroke-width: 0.5"/>
      </g>
     </g>
     <g id="line2d_60">
      <g>
       <use xlink:href="#m368035dce7" x="179.160756" y="96.019072" style="stroke: #000000; stroke-width: 0.5"/>
      </g>
     </g>
    </g>
    <g id="ytick_6">
     <g id="line2d_61">
      <g>
       <use xlink:href="#m7d4035df5f" x="32.685756" y="87.654857" style="stroke: #000000; stroke-width: 0.5"/>
      </g>
     </g>
     <g id="line2d_62">
      <g>
       <use xlink:href="#m368035dce7" x="179.160756" y="87.654857" style="stroke: #000000; stroke-width: 0.5"/>
      </g>
     </g>
    </g>
    <g id="ytick_7">
     <g id="line2d_63">
      <g>
       <use xlink:href="#m7d4035df5f" x="32.685756" y="79.290643" style="stroke: #000000; stroke-width: 0.5"/>
      </g>
     </g>
     <g id="line2d_64">
      <g>
       <use xlink:href="#m368035dce7" x="179.160756" y="79.290643" style="stroke: #000000; stroke-width: 0.5"/>
      </g>
     </g>
    </g>
    <g id="ytick_8">
     <g id="line2d_65">
      <g>
       <use xlink:href="#m7d4035df5f" x="32.685756" y="62.562215" style="stroke: #000000; stroke-width: 0.5"/>
      </g>
     </g>
     <g id="line2d_66">
      <g>
       <use xlink:href="#m368035dce7" x="179.160756" y="62.562215" style="stroke: #000000; stroke-width: 0.5"/>
      </g>
     </g>
    </g>
    <g id="ytick_9">
     <g id="line2d_67">
      <g>
       <use xlink:href="#m7d4035df5f" x="32.685756" y="54.198001" style="stroke: #000000; stroke-width: 0.5"/>
      </g>
     </g>
     <g id="line2d_68">
      <g>
       <use xlink:href="#m368035dce7" x="179.160756" y="54.198001" style="stroke: #000000; stroke-width: 0.5"/>
      </g>
     </g>
    </g>
    <g id="ytick_10">
     <g id="line2d_69">
      <g>
       <use xlink:href="#m7d4035df5f" x="32.685756" y="45.833786" style="stroke: #000000; stroke-width: 0.5"/>
      </g>
     </g>
     <g id="line2d_70">
      <g>
       <use xlink:href="#m368035dce7" x="179.160756" y="45.833786" style="stroke: #000000; stroke-width: 0.5"/>
      </g>
     </g>
    </g>
    <g id="ytick_11">
     <g id="line2d_71">
      <g>
       <use xlink:href="#m7d4035df5f" x="32.685756" y="37.469572" style="stroke: #000000; stroke-width: 0.5"/>
      </g>
     </g>
     <g id="line2d_72">
      <g>
       <use xlink:href="#m368035dce7" x="179.160756" y="37.469572" style="stroke: #000000; stroke-width: 0.5"/>
      </g>
     </g>
    </g>
    <g id="ytick_12">
     <g id="line2d_73">
      <g>
       <use xlink:href="#m7d4035df5f" x="32.685756" y="20.741144" style="stroke: #000000; stroke-width: 0.5"/>
      </g>
     </g>
     <g id="line2d_74">
      <g>
       <use xlink:href="#m368035dce7" x="179.160756" y="20.741144" style="stroke: #000000; stroke-width: 0.5"/>
      </g>
     </g>
    </g>
    <g id="ytick_13">
     <g id="line2d_75">
      <g>
       <use xlink:href="#m7d4035df5f" x="32.685756" y="12.37693" style="stroke: #000000; stroke-width: 0.5"/>
      </g>
     </g>
     <g id="line2d_76">
      <g>
       <use xlink:href="#m368035dce7" x="179.160756" y="12.37693" style="stroke: #000000; stroke-width: 0.5"/>
      </g>
     </g>
    </g>
    <g id="ytick_14">
     <g id="line2d_77">
      <g>
       <use xlink:href="#m7d4035df5f" x="32.685756" y="4.012716" style="stroke: #000000; stroke-width: 0.5"/>
      </g>
     </g>
     <g id="line2d_78">
      <g>
       <use xlink:href="#m368035dce7" x="179.160756" y="4.012716" style="stroke: #000000; stroke-width: 0.5"/>
      </g>
     </g>
    </g>
    <g id="text_10">
     <!-- Density -->
     <g transform="translate(10.518498 74.73667) rotate(-90) scale(0.1 -0.1)">
      <defs>
       <path id="CMR17-44" d="M 333 4352 
L 333 4186 
C 774 4186 845 4186 845 3900 
L 845 452 
C 845 166 774 166 333 166 
L 333 0 
L 2368 0 
C 3398 0 4224 943 4224 2141 
C 4224 3346 3411 4352 2368 4352 
L 333 4352 
z
M 1523 166 
C 1267 166 1254 197 1254 414 
L 1254 3938 
C 1254 4155 1267 4186 1523 4186 
L 2240 4186 
C 2771 4186 3750 3874 3750 2141 
C 3750 1242 3488 879 3366 707 
C 3213 510 2848 166 2240 166 
L 1523 166 
z
" transform="scale(0.015625)"/>
       <path id="CMR17-65" d="M 2438 1472 
C 2464 1498 2464 1511 2464 1576 
C 2464 2238 2118 2816 1389 2816 
C 710 2816 173 2169 173 1383 
C 173 551 781 -64 1459 -64 
C 2176 -64 2458 607 2458 740 
C 2458 784 2419 784 2406 784 
C 2362 784 2355 771 2330 696 
C 2189 265 1837 51 1504 51 
C 1229 51 954 203 781 480 
C 582 803 582 1176 582 1472 
L 2438 1472 
z
M 589 1568 
C 634 2505 1126 2714 1382 2714 
C 1818 2714 2112 2297 2118 1568 
L 589 1568 
z
" transform="scale(0.015625)"/>
       <path id="CMR17-6e" d="M 2656 1933 
C 2656 2259 2592 2790 1837 2790 
C 1331 2790 1069 2400 973 2144 
L 966 2144 
L 966 2790 
L 211 2720 
L 211 2554 
C 589 2554 646 2515 646 2208 
L 646 428 
C 646 184 621 153 211 153 
L 211 -13 
C 365 0 646 0 813 0 
C 979 0 1267 0 1421 -13 
L 1421 153 
C 1011 153 986 178 986 428 
L 986 1658 
C 986 2247 1344 2688 1792 2688 
C 2266 2688 2317 2266 2317 1958 
L 2317 428 
C 2317 184 2291 153 1882 153 
L 1882 -13 
C 2035 0 2317 0 2483 0 
C 2650 0 2938 0 3091 -13 
L 3091 153 
C 2682 153 2656 178 2656 428 
L 2656 1933 
z
" transform="scale(0.015625)"/>
       <path id="CMR17-73" d="M 1978 2697 
C 1978 2813 1971 2819 1933 2819 
C 1907 2819 1901 2813 1824 2717 
C 1805 2691 1747 2626 1728 2601 
C 1523 2819 1235 2819 1126 2819 
C 416 2819 160 2447 160 2076 
C 160 1498 813 1365 998 1325 
C 1402 1243 1542 1217 1677 1101 
C 1760 1025 1901 884 1901 654 
C 1901 384 1747 38 1158 38 
C 602 38 403 460 288 1021 
C 269 1110 269 1117 218 1117 
C 166 1117 160 1110 160 983 
L 160 63 
C 160 -51 166 -58 205 -58 
C 237 -58 243 -51 275 0 
C 314 57 410 211 448 276 
C 576 103 800 -64 1158 -64 
C 1792 -64 2131 283 2131 784 
C 2131 1112 1958 1285 1875 1362 
C 1683 1561 1459 1606 1190 1657 
C 838 1735 390 1825 390 2217 
C 390 2383 480 2737 1126 2737 
C 1811 2737 1850 2094 1862 1888 
C 1869 1856 1901 1849 1920 1849 
C 1978 1849 1978 1869 1978 1978 
L 1978 2697 
z
" transform="scale(0.015625)"/>
       <path id="CMR17-69" d="M 992 3909 
C 992 4049 877 4170 730 4170 
C 589 4170 467 4056 467 3909 
C 467 3769 582 3648 730 3648 
C 870 3648 992 3763 992 3909 
z
M 243 2706 
L 243 2541 
C 602 2541 653 2502 653 2197 
L 653 427 
C 653 184 627 153 218 153 
L 218 -13 
C 371 0 646 0 806 0 
C 960 0 1222 0 1370 -13 
L 1370 153 
C 992 153 979 191 979 420 
L 979 2776 
L 243 2706 
z
" transform="scale(0.015625)"/>
       <path id="CMR17-74" d="M 966 2560 
L 1862 2560 
L 1862 2725 
L 966 2725 
L 966 3904 
L 851 3904 
C 838 3245 614 2668 70 2668 
L 70 2560 
L 627 2560 
L 627 771 
C 627 650 627 -64 1370 -64 
C 1747 -64 1965 306 1965 777 
L 1965 1140 
L 1850 1140 
L 1850 783 
C 1850 344 1677 51 1408 51 
C 1222 51 966 178 966 758 
L 966 2560 
z
" transform="scale(0.015625)"/>
       <path id="CMR17-79" d="M 2496 2197 
C 2656 2586 2944 2586 3034 2586 
L 3034 2752 
C 2912 2752 2752 2752 2630 2752 
C 2496 2752 2285 2752 2157 2758 
L 2157 2592 
C 2400 2573 2406 2394 2406 2343 
C 2406 2280 2394 2248 2362 2171 
L 1664 449 
L 902 2306 
C 870 2382 870 2426 870 2433 
C 870 2573 1018 2586 1171 2586 
L 1171 2758 
C 1018 2752 742 2752 582 2752 
C 410 2752 205 2752 64 2758 
L 64 2586 
C 410 2586 448 2554 531 2350 
L 1485 15 
C 1197 -738 1030 -1178 627 -1178 
C 557 -1178 397 -1159 282 -1044 
C 429 -1031 493 -942 493 -833 
C 493 -725 416 -629 288 -629 
C 147 -629 77 -725 77 -840 
C 77 -1095 339 -1280 627 -1280 
C 998 -1280 1229 -922 1357 -604 
L 2496 2197 
z
" transform="scale(0.015625)"/>
      </defs>
      <use xlink:href="#CMR17-44" transform="scale(0.996264)"/>
      <use xlink:href="#CMR17-65" transform="translate(70.393556 0) scale(0.996264)"/>
      <use xlink:href="#CMR17-6e" transform="translate(110.879216 0) scale(0.996264)"/>
      <use xlink:href="#CMR17-73" transform="translate(161.774586 0) scale(0.996264)"/>
      <use xlink:href="#CMR17-69" transform="translate(197.575924 0) scale(0.996264)"/>
      <use xlink:href="#CMR17-74" transform="translate(222.446982 0) scale(0.996264)"/>
      <use xlink:href="#CMR17-79" transform="translate(255.125296 0) scale(0.996264)"/>
     </g>
    </g>
   </g>
   <g id="PolyCollection_1">
    <defs>
     <path id="m852077b866" d="M 18.491688 -29.986317 
L 18.491688 -29.918317 
L 19.370362 -29.918317 
L 20.249036 -29.918317 
L 21.12771 -29.918317 
L 22.006384 -29.918317 
L 22.885058 -29.918317 
L 23.763732 -29.918317 
L 24.642406 -29.918317 
L 25.52108 -29.918317 
L 26.399754 -29.918317 
L 27.278428 -29.918317 
L 28.157102 -29.918317 
L 29.035776 -29.918317 
L 29.91445 -29.918317 
L 30.793124 -29.918317 
L 31.671798 -29.918317 
L 32.550472 -29.918317 
L 33.429146 -29.918317 
L 34.30782 -29.918317 
L 35.186494 -29.918317 
L 36.065167 -29.918317 
L 36.943841 -29.918317 
L 37.822515 -29.918317 
L 38.701189 -29.918317 
L 39.579863 -29.918317 
L 40.458537 -29.918317 
L 41.337211 -29.918317 
L 42.215885 -29.918317 
L 43.094559 -29.918317 
L 43.973233 -29.918317 
L 44.851907 -29.918317 
L 45.730581 -29.918317 
L 46.609255 -29.918317 
L 47.487929 -29.918317 
L 48.366603 -29.918317 
L 49.245277 -29.918317 
L 50.123951 -29.918317 
L 51.002625 -29.918317 
L 51.881299 -29.918317 
L 52.759973 -29.918317 
L 53.638647 -29.918317 
L 54.517321 -29.918317 
L 55.395995 -29.918317 
L 56.274669 -29.918317 
L 57.153343 -29.918317 
L 58.032017 -29.918317 
L 58.910691 -29.918317 
L 59.789365 -29.918317 
L 60.668039 -29.918317 
L 61.546713 -29.918317 
L 62.425387 -29.918317 
L 63.304061 -29.918317 
L 64.182735 -29.918317 
L 65.061409 -29.918317 
L 65.940083 -29.918317 
L 66.818757 -29.918317 
L 67.697431 -29.918317 
L 68.576105 -29.918317 
L 69.454779 -29.918317 
L 70.333453 -29.918317 
L 71.212127 -29.918317 
L 72.090801 -29.918317 
L 72.969475 -29.918317 
L 73.848149 -29.918317 
L 74.726823 -29.918317 
L 75.605497 -29.918317 
L 76.484171 -29.918317 
L 77.362845 -29.918317 
L 78.241519 -29.918317 
L 79.120193 -29.918317 
L 79.998867 -29.918317 
L 80.877541 -29.918317 
L 81.756215 -29.918317 
L 82.634889 -29.918317 
L 83.513563 -29.918317 
L 84.392237 -29.918317 
L 85.27091 -29.918317 
L 86.149584 -29.918317 
L 87.028258 -29.918317 
L 87.906932 -29.918317 
L 88.785606 -29.918317 
L 89.66428 -29.918317 
L 90.542954 -29.918317 
L 91.421628 -29.918317 
L 92.300302 -29.918317 
L 93.178976 -29.918317 
L 94.05765 -29.918317 
L 94.936324 -29.918317 
L 95.814998 -29.918317 
L 96.693672 -29.918317 
L 97.572346 -29.918317 
L 98.45102 -29.918317 
L 99.329694 -29.918317 
L 100.208368 -29.918317 
L 101.087042 -29.918317 
L 101.965716 -29.918317 
L 102.84439 -29.918317 
L 103.723064 -29.918317 
L 104.601738 -29.918317 
L 105.480412 -29.918317 
L 106.359086 -29.918317 
L 107.23776 -29.918317 
L 108.116434 -29.918317 
L 108.995108 -29.918317 
L 109.873782 -29.918317 
L 110.752456 -29.918317 
L 111.63113 -29.918317 
L 112.509804 -29.918317 
L 113.388478 -29.918317 
L 114.267152 -29.918317 
L 115.145826 -29.918317 
L 116.0245 -29.918317 
L 116.903174 -29.918317 
L 117.781848 -29.918317 
L 118.660522 -29.918317 
L 119.539196 -29.918317 
L 120.41787 -29.918317 
L 121.296544 -29.918317 
L 122.175218 -29.918317 
L 123.053892 -29.918317 
L 123.932566 -29.918317 
L 124.81124 -29.918317 
L 125.689914 -29.918317 
L 126.568588 -29.918317 
L 127.447262 -29.918317 
L 128.325936 -29.918317 
L 129.20461 -29.918317 
L 130.083284 -29.918317 
L 130.961958 -29.918317 
L 131.840632 -29.918317 
L 132.719306 -29.918317 
L 133.59798 -29.918317 
L 134.476653 -29.918317 
L 135.355327 -29.918317 
L 136.234001 -29.918317 
L 137.112675 -29.918317 
L 137.991349 -29.918317 
L 138.870023 -29.918317 
L 139.748697 -29.918317 
L 140.627371 -29.918317 
L 141.506045 -29.918317 
L 142.384719 -29.918317 
L 143.263393 -29.918317 
L 144.142067 -29.918317 
L 145.020741 -29.918317 
L 145.899415 -29.918317 
L 146.778089 -29.918317 
L 147.656763 -29.918317 
L 148.535437 -29.918317 
L 149.414111 -29.918317 
L 150.292785 -29.918317 
L 151.171459 -29.918317 
L 152.050133 -29.918317 
L 152.928807 -29.918317 
L 153.807481 -29.918317 
L 154.686155 -29.918317 
L 155.564829 -29.918317 
L 156.443503 -29.918317 
L 157.322177 -29.918317 
L 158.200851 -29.918317 
L 159.079525 -29.918317 
L 159.958199 -29.918317 
L 160.836873 -29.918317 
L 161.715547 -29.918317 
L 162.594221 -29.918317 
L 163.472895 -29.918317 
L 164.351569 -29.918317 
L 165.230243 -29.918317 
L 166.108917 -29.918317 
L 166.987591 -29.918317 
L 167.866265 -29.918317 
L 168.744939 -29.918317 
L 169.623613 -29.918317 
L 170.502287 -29.918317 
L 171.380961 -29.918317 
L 172.259635 -29.918317 
L 173.138309 -29.918317 
L 174.016983 -29.918317 
L 174.895657 -29.918317 
L 175.774331 -29.918317 
L 176.653005 -29.918317 
L 177.531679 -29.918317 
L 178.410353 -29.918317 
L 179.289027 -29.918317 
L 180.167701 -29.918317 
L 181.046375 -29.918317 
L 181.925049 -29.918317 
L 182.803723 -29.918317 
L 183.682396 -29.918317 
L 184.56107 -29.918317 
L 185.439744 -29.918317 
L 186.318418 -29.918317 
L 187.197092 -29.918317 
L 188.075766 -29.918317 
L 188.95444 -29.918317 
L 189.833114 -29.918317 
L 190.711788 -29.918317 
L 191.590462 -29.918317 
L 192.469136 -29.918317 
L 193.34781 -29.918317 
L 193.34781 -29.99901 
L 193.34781 -29.99901 
L 192.469136 -30.052053 
L 191.590462 -30.134235 
L 190.711788 -30.257988 
L 189.833114 -30.439122 
L 188.95444 -30.696841 
L 188.075766 -31.05332 
L 187.197092 -31.532752 
L 186.318418 -32.1598 
L 185.439744 -32.957537 
L 184.56107 -33.945045 
L 183.682396 -35.135 
L 182.803723 -36.53163 
L 181.925049 -38.129485 
L 181.046375 -39.913377 
L 180.167701 -41.859694 
L 179.289027 -43.93909 
L 178.410353 -46.120262 
L 177.531679 -48.374336 
L 176.653005 -50.679201 
L 175.774331 -53.023094 
L 174.895657 -55.40682 
L 174.016983 -57.844152 
L 173.138309 -60.360236 
L 172.259635 -62.988058 
L 171.380961 -65.76333 
L 170.502287 -68.71832 
L 169.623613 -71.87534 
L 168.744939 -75.240625 
L 167.866265 -78.799379 
L 166.987591 -82.512652 
L 166.108917 -86.316547 
L 165.230243 -90.124026 
L 164.351569 -93.829297 
L 163.472895 -97.31443 
L 162.594221 -100.457592 
L 161.715547 -103.142054 
L 160.836873 -105.265031 
L 159.958199 -106.745426 
L 159.079525 -107.529705 
L 158.200851 -107.595357 
L 157.322177 -106.95167 
L 156.443503 -105.637875 
L 155.564829 -103.71897 
L 154.686155 -101.27973 
L 153.807481 -98.417602 
L 152.928807 -95.23523 
L 152.050133 -91.833333 
L 151.171459 -88.30462 
L 150.292785 -84.729237 
L 149.414111 -81.172053 
L 148.535437 -77.681863 
L 147.656763 -74.292348 
L 146.778089 -71.024438 
L 145.899415 -67.889582 
L 145.020741 -64.893352 
L 144.142067 -62.038854 
L 143.263393 -59.329484 
L 142.384719 -56.770727 
L 141.506045 -54.370893 
L 140.627371 -52.140835 
L 139.748697 -50.092869 
L 138.870023 -48.239211 
L 137.991349 -46.590271 
L 137.112675 -45.153139 
L 136.234001 -43.930502 
L 135.355327 -42.920146 
L 134.476653 -42.115055 
L 133.59798 -41.50404 
L 132.719306 -41.072743 
L 131.840632 -40.804842 
L 130.961958 -40.68326 
L 130.083284 -40.691253 
L 129.20461 -40.813249 
L 128.325936 -41.035388 
L 127.447262 -41.345762 
L 126.568588 -41.734366 
L 125.689914 -42.19284 
L 124.81124 -42.714057 
L 123.932566 -43.291664 
L 123.053892 -43.919653 
L 122.175218 -44.592053 
L 121.296544 -45.302775 
L 120.41787 -46.045651 
L 119.539196 -46.814625 
L 118.660522 -47.604044 
L 117.781848 -48.408969 
L 116.903174 -49.225414 
L 116.0245 -50.050435 
L 115.145826 -50.88205 
L 114.267152 -51.718985 
L 113.388478 -52.56032 
L 112.509804 -53.405132 
L 111.63113 -54.252259 
L 110.752456 -55.100291 
L 109.873782 -55.947889 
L 108.995108 -56.794445 
L 108.116434 -57.64107 
L 107.23776 -58.491799 
L 106.359086 -59.354873 
L 105.480412 -60.243918 
L 104.601738 -61.178815 
L 103.723064 -62.186104 
L 102.84439 -63.298789 
L 101.965716 -64.555481 
L 101.087042 -65.998886 
L 100.208368 -67.673703 
L 99.329694 -69.624031 
L 98.45102 -71.89042 
L 97.572346 -74.506689 
L 96.693672 -77.49665 
L 95.814998 -80.870855 
L 94.936324 -84.623563 
L 94.05765 -88.73012 
L 93.178976 -93.145079 
L 92.300302 -97.801393 
L 91.421628 -102.611053 
L 90.542954 -107.467448 
L 89.66428 -112.249571 
L 88.785606 -116.827937 
L 87.906932 -121.071797 
L 87.028258 -124.856984 
L 86.149584 -128.073546 
L 85.27091 -130.63234 
L 84.392237 -132.469846 
L 83.513563 -133.550771 
L 82.634889 -133.868317 
L 81.756215 -133.44233 
L 80.877541 -132.315795 
L 79.998867 -130.550277 
L 79.120193 -128.220948 
L 78.241519 -125.411691 
L 77.362845 -122.210673 
L 76.484171 -118.706565 
L 75.605497 -114.985438 
L 74.726823 -111.128305 
L 73.848149 -107.209193 
L 72.969475 -103.293661 
L 72.090801 -99.437724 
L 71.212127 -95.687158 
L 70.333453 -92.077217 
L 69.454779 -88.63278 
L 68.576105 -85.36893 
L 67.697431 -82.291963 
L 66.818757 -79.400738 
L 65.940083 -76.688294 
L 65.061409 -74.143598 
L 64.182735 -71.753306 
L 63.304061 -69.50341 
L 62.425387 -67.380661 
L 61.546713 -65.373689 
L 60.668039 -63.473766 
L 59.789365 -61.67519 
L 58.910691 -59.975302 
L 58.032017 -58.374179 
L 57.153343 -56.874079 
L 56.274669 -55.478721 
L 55.395995 -54.192491 
L 54.517321 -53.019677 
L 53.638647 -51.963782 
L 52.759973 -51.026984 
L 51.881299 -50.209748 
L 51.002625 -49.510592 
L 50.123951 -48.925986 
L 49.245277 -48.450343 
L 48.366603 -48.076055 
L 47.487929 -47.793537 
L 46.609255 -47.591225 
L 45.730581 -47.455491 
L 44.851907 -47.370501 
L 43.973233 -47.318018 
L 43.094559 -47.277258 
L 42.215885 -47.224913 
L 41.337211 -47.135503 
L 40.458537 -46.982187 
L 39.579863 -46.738132 
L 38.701189 -46.378442 
L 37.822515 -45.882481 
L 36.943841 -45.236342 
L 36.065167 -44.43508 
L 35.186494 -43.484281 
L 34.30782 -42.400604 
L 33.429146 -41.211081 
L 32.550472 -39.951121 
L 31.671798 -38.661462 
L 30.793124 -37.384444 
L 29.91445 -36.16017 
L 29.035776 -35.023077 
L 28.157102 -33.999394 
L 27.278428 -33.105762 
L 26.399754 -32.349079 
L 25.52108 -31.72743 
L 24.642406 -31.231816 
L 23.763732 -30.848297 
L 22.885058 -30.560199 
L 22.006384 -30.350083 
L 21.12771 -30.20129 
L 20.249036 -30.098969 
L 19.370362 -30.030637 
L 18.491688 -29.986317 
z
" style="stroke: #0f3455"/>
    </defs>
    <g clip-path="url(#p8f6c5c34c8)">
     <use xlink:href="#m852077b866" x="0" y="142.665817" style="fill: #0f3455; fill-opacity: 0.25; stroke: #0f3455"/>
    </g>
   </g>
   <g id="PolyCollection_2">
    <defs>
     <path id="m4bcab1e0e2" d="M 25.816811 -29.971584 
L 25.816811 -29.918317 
L 26.621902 -29.918317 
L 27.426993 -29.918317 
L 28.232083 -29.918317 
L 29.037174 -29.918317 
L 29.842265 -29.918317 
L 30.647356 -29.918317 
L 31.452447 -29.918317 
L 32.257538 -29.918317 
L 33.062629 -29.918317 
L 33.86772 -29.918317 
L 34.672811 -29.918317 
L 35.477902 -29.918317 
L 36.282993 -29.918317 
L 37.088084 -29.918317 
L 37.893175 -29.918317 
L 38.698266 -29.918317 
L 39.503357 -29.918317 
L 40.308448 -29.918317 
L 41.113538 -29.918317 
L 41.918629 -29.918317 
L 42.72372 -29.918317 
L 43.528811 -29.918317 
L 44.333902 -29.918317 
L 45.138993 -29.918317 
L 45.944084 -29.918317 
L 46.749175 -29.918317 
L 47.554266 -29.918317 
L 48.359357 -29.918317 
L 49.164448 -29.918317 
L 49.969539 -29.918317 
L 50.77463 -29.918317 
L 51.579721 -29.918317 
L 52.384812 -29.918317 
L 53.189902 -29.918317 
L 53.994993 -29.918317 
L 54.800084 -29.918317 
L 55.605175 -29.918317 
L 56.410266 -29.918317 
L 57.215357 -29.918317 
L 58.020448 -29.918317 
L 58.825539 -29.918317 
L 59.63063 -29.918317 
L 60.435721 -29.918317 
L 61.240812 -29.918317 
L 62.045903 -29.918317 
L 62.850994 -29.918317 
L 63.656085 -29.918317 
L 64.461176 -29.918317 
L 65.266267 -29.918317 
L 66.071357 -29.918317 
L 66.876448 -29.918317 
L 67.681539 -29.918317 
L 68.48663 -29.918317 
L 69.291721 -29.918317 
L 70.096812 -29.918317 
L 70.901903 -29.918317 
L 71.706994 -29.918317 
L 72.512085 -29.918317 
L 73.317176 -29.918317 
L 74.122267 -29.918317 
L 74.927358 -29.918317 
L 75.732449 -29.918317 
L 76.53754 -29.918317 
L 77.342631 -29.918317 
L 78.147721 -29.918317 
L 78.952812 -29.918317 
L 79.757903 -29.918317 
L 80.562994 -29.918317 
L 81.368085 -29.918317 
L 82.173176 -29.918317 
L 82.978267 -29.918317 
L 83.783358 -29.918317 
L 84.588449 -29.918317 
L 85.39354 -29.918317 
L 86.198631 -29.918317 
L 87.003722 -29.918317 
L 87.808813 -29.918317 
L 88.613904 -29.918317 
L 89.418995 -29.918317 
L 90.224086 -29.918317 
L 91.029176 -29.918317 
L 91.834267 -29.918317 
L 92.639358 -29.918317 
L 93.444449 -29.918317 
L 94.24954 -29.918317 
L 95.054631 -29.918317 
L 95.859722 -29.918317 
L 96.664813 -29.918317 
L 97.469904 -29.918317 
L 98.274995 -29.918317 
L 99.080086 -29.918317 
L 99.885177 -29.918317 
L 100.690268 -29.918317 
L 101.495359 -29.918317 
L 102.30045 -29.918317 
L 103.105541 -29.918317 
L 103.910631 -29.918317 
L 104.715722 -29.918317 
L 105.520813 -29.918317 
L 106.325904 -29.918317 
L 107.130995 -29.918317 
L 107.936086 -29.918317 
L 108.741177 -29.918317 
L 109.546268 -29.918317 
L 110.351359 -29.918317 
L 111.15645 -29.918317 
L 111.961541 -29.918317 
L 112.766632 -29.918317 
L 113.571723 -29.918317 
L 114.376814 -29.918317 
L 115.181905 -29.918317 
L 115.986995 -29.918317 
L 116.792086 -29.918317 
L 117.597177 -29.918317 
L 118.402268 -29.918317 
L 119.207359 -29.918317 
L 120.01245 -29.918317 
L 120.817541 -29.918317 
L 121.622632 -29.918317 
L 122.427723 -29.918317 
L 123.232814 -29.918317 
L 124.037905 -29.918317 
L 124.842996 -29.918317 
L 125.648087 -29.918317 
L 126.453178 -29.918317 
L 127.258269 -29.918317 
L 128.06336 -29.918317 
L 128.86845 -29.918317 
L 129.673541 -29.918317 
L 130.478632 -29.918317 
L 131.283723 -29.918317 
L 132.088814 -29.918317 
L 132.893905 -29.918317 
L 133.698996 -29.918317 
L 134.504087 -29.918317 
L 135.309178 -29.918317 
L 136.114269 -29.918317 
L 136.91936 -29.918317 
L 137.724451 -29.918317 
L 138.529542 -29.918317 
L 139.334633 -29.918317 
L 140.139724 -29.918317 
L 140.944814 -29.918317 
L 141.749905 -29.918317 
L 142.554996 -29.918317 
L 143.360087 -29.918317 
L 144.165178 -29.918317 
L 144.970269 -29.918317 
L 145.77536 -29.918317 
L 146.580451 -29.918317 
L 147.385542 -29.918317 
L 148.190633 -29.918317 
L 148.995724 -29.918317 
L 149.800815 -29.918317 
L 150.605906 -29.918317 
L 151.410997 -29.918317 
L 152.216088 -29.918317 
L 153.021179 -29.918317 
L 153.826269 -29.918317 
L 154.63136 -29.918317 
L 155.436451 -29.918317 
L 156.241542 -29.918317 
L 157.046633 -29.918317 
L 157.851724 -29.918317 
L 158.656815 -29.918317 
L 159.461906 -29.918317 
L 160.266997 -29.918317 
L 161.072088 -29.918317 
L 161.877179 -29.918317 
L 162.68227 -29.918317 
L 163.487361 -29.918317 
L 164.292452 -29.918317 
L 165.097543 -29.918317 
L 165.902633 -29.918317 
L 166.707724 -29.918317 
L 167.512815 -29.918317 
L 168.317906 -29.918317 
L 169.122997 -29.918317 
L 169.928088 -29.918317 
L 170.733179 -29.918317 
L 171.53827 -29.918317 
L 172.343361 -29.918317 
L 173.148452 -29.918317 
L 173.953543 -29.918317 
L 174.758634 -29.918317 
L 175.563725 -29.918317 
L 176.368816 -29.918317 
L 177.173907 -29.918317 
L 177.978998 -29.918317 
L 178.784088 -29.918317 
L 179.589179 -29.918317 
L 180.39427 -29.918317 
L 181.199361 -29.918317 
L 182.004452 -29.918317 
L 182.809543 -29.918317 
L 183.614634 -29.918317 
L 184.419725 -29.918317 
L 185.224816 -29.918317 
L 186.029907 -29.918317 
L 186.029907 -29.968652 
L 186.029907 -29.968652 
L 185.224816 -30.053621 
L 184.419725 -30.247208 
L 183.614634 -30.642492 
L 182.809543 -31.365804 
L 182.004452 -32.551726 
L 181.199361 -34.29349 
L 180.39427 -36.583983 
L 179.589179 -39.27892 
L 178.784088 -42.112285 
L 177.978998 -44.768771 
L 177.173907 -46.982916 
L 176.368816 -48.616623 
L 175.563725 -49.680326 
L 174.758634 -50.297055 
L 173.953543 -50.637299 
L 173.148452 -50.858758 
L 172.343361 -51.071723 
L 171.53827 -51.332438 
L 170.733179 -51.654981 
L 169.928088 -52.029685 
L 169.122997 -52.439457 
L 168.317906 -52.870226 
L 167.512815 -53.315681 
L 166.707724 -53.77833 
L 165.902633 -54.268802 
L 165.097543 -54.804095 
L 164.292452 -55.404333 
L 163.487361 -56.087651 
L 162.68227 -56.864123 
L 161.877179 -57.731143 
L 161.072088 -58.672856 
L 160.266997 -59.664513 
L 159.461906 -60.680049 
L 158.656815 -61.69946 
L 157.851724 -62.713024 
L 157.046633 -63.721424 
L 156.241542 -64.73285 
L 155.436451 -65.75886 
L 154.63136 -66.810192 
L 153.826269 -67.893152 
L 153.021179 -69.007442 
L 152.216088 -70.146814 
L 151.410997 -71.303496 
L 150.605906 -72.475273 
L 149.800815 -73.671729 
L 148.995724 -74.915502 
L 148.190633 -76.23675 
L 147.385542 -77.663044 
L 146.580451 -79.20977 
L 145.77536 -80.875706 
L 144.970269 -82.645213 
L 144.165178 -84.494878 
L 143.360087 -86.400649 
L 142.554996 -88.342107 
L 141.749905 -90.302534 
L 140.944814 -92.265814 
L 140.139724 -94.21266 
L 139.334633 -96.118833 
L 138.529542 -97.956537 
L 137.724451 -99.69824 
L 136.91936 -101.321157 
L 136.114269 -102.810974 
L 135.309178 -104.163971 
L 134.504087 -105.386515 
L 133.698996 -106.490491 
L 132.893905 -107.484586 
L 132.088814 -108.364412 
L 131.283723 -109.106752 
L 130.478632 -109.671752 
L 129.673541 -110.012234 
L 128.86845 -110.08529 
L 128.06336 -109.861141 
L 127.258269 -109.327296 
L 126.453178 -108.488907 
L 125.648087 -107.366703 
L 124.842996 -105.993015 
L 124.037905 -104.406258 
L 123.232814 -102.645116 
L 122.427723 -100.744127 
L 121.622632 -98.731275 
L 120.817541 -96.626833 
L 120.01245 -94.442947 
L 119.207359 -92.185071 
L 118.402268 -89.856994 
L 117.597177 -87.469089 
L 116.792086 -85.045994 
L 115.986995 -82.628662 
L 115.181905 -80.268378 
L 114.376814 -78.015252 
L 113.571723 -75.907017 
L 112.766632 -73.963205 
L 111.961541 -72.186029 
L 111.15645 -70.565662 
L 110.351359 -69.086379 
L 109.546268 -67.731145 
L 108.741177 -66.484147 
L 107.936086 -65.332126 
L 107.130995 -64.265573 
L 106.325904 -63.279996 
L 105.520813 -62.376335 
L 104.715722 -61.559373 
L 103.910631 -60.834175 
L 103.105541 -60.202133 
L 102.30045 -59.658747 
L 101.495359 -59.194256 
L 100.690268 -58.796605 
L 99.885177 -58.455243 
L 99.080086 -58.164018 
L 98.274995 -57.921803 
L 97.469904 -57.730199 
L 96.664813 -57.589029 
L 95.859722 -57.49188 
L 95.054631 -57.424584 
L 94.24954 -57.368144 
L 93.444449 -57.304837 
L 92.639358 -57.224152 
L 91.834267 -57.125402 
L 91.029176 -57.016143 
L 90.224086 -56.908003 
L 89.418995 -56.8125 
L 88.613904 -56.738546 
L 87.808813 -56.691755 
L 87.003722 -56.674733 
L 86.198631 -56.687752 
L 85.39354 -56.729953 
L 84.588449 -56.801356 
L 83.783358 -56.905178 
L 82.978267 -57.049032 
L 82.173176 -57.24386 
L 81.368085 -57.500937 
L 80.562994 -57.828782 
L 79.757903 -58.23178 
L 78.952812 -58.710817 
L 78.147721 -59.264788 
L 77.342631 -59.89168 
L 76.53754 -60.588902 
L 75.732449 -61.353355 
L 74.927358 -62.181755 
L 74.122267 -63.071318 
L 73.317176 -64.020801 
L 72.512085 -65.031629 
L 71.706994 -66.108146 
L 70.901903 -67.255482 
L 70.096812 -68.474488 
L 69.291721 -69.755939 
L 68.48663 -71.077975 
L 67.681539 -72.409089 
L 66.876448 -73.714544 
L 66.071357 -74.961435 
L 65.266267 -76.119706 
L 64.461176 -77.161152 
L 63.656085 -78.060639 
L 62.850994 -78.801199 
L 62.045903 -79.38024 
L 61.240812 -79.812468 
L 60.435721 -80.127369 
L 59.63063 -80.36239 
L 58.825539 -80.554218 
L 58.020448 -80.729676 
L 57.215357 -80.897397 
L 56.410266 -81.042738 
L 55.605175 -81.129563 
L 54.800084 -81.110707 
L 53.994993 -80.944293 
L 53.189902 -80.609015 
L 52.384812 -80.111494 
L 51.579721 -79.482909 
L 50.77463 -78.767331 
L 49.969539 -78.007363 
L 49.164448 -77.232615 
L 48.359357 -76.453918 
L 47.554266 -75.663015 
L 46.749175 -74.83571 
L 45.944084 -73.936841 
L 45.138993 -72.926994 
L 44.333902 -71.77161 
L 43.528811 -70.451849 
L 42.72372 -68.974054 
L 41.918629 -67.372972 
L 41.113538 -65.70511 
L 40.308448 -64.032373 
L 39.503357 -62.400267 
L 38.698266 -60.816871 
L 37.893175 -59.238319 
L 37.088084 -57.56593 
L 36.282993 -55.660768 
L 35.477902 -53.380582 
L 34.672811 -50.636324 
L 33.86772 -47.450174 
L 33.062629 -43.984211 
L 32.257538 -40.514051 
L 31.452447 -37.349311 
L 30.647356 -34.736065 
L 29.842265 -32.7892 
L 29.037174 -31.483422 
L 28.232083 -30.696022 
L 27.426993 -30.269508 
L 26.621902 -30.062098 
L 25.816811 -29.971584 
z
" style="stroke: #cf695e"/>
    </defs>
    <g clip-path="url(#p8f6c5c34c8)">
     <use xlink:href="#m4bcab1e0e2" x="0" y="142.665817" style="fill: #cf695e; fill-opacity: 0.25; stroke: #cf695e"/>
    </g>
   </g>
   <g id="patch_3">
    <path d="M 32.685756 112.7475 
L 32.685756 3.6 
" style="fill: none; stroke: #000000; stroke-width: 0.5; stroke-linejoin: miter; stroke-linecap: square"/>
   </g>
   <g id="patch_4">
    <path d="M 179.160756 112.7475 
L 179.160756 3.6 
" style="fill: none; stroke: #000000; stroke-width: 0.5; stroke-linejoin: miter; stroke-linecap: square"/>
   </g>
   <g id="patch_5">
    <path d="M 32.685756 112.7475 
L 179.160756 112.7475 
" style="fill: none; stroke: #000000; stroke-width: 0.5; stroke-linejoin: miter; stroke-linecap: square"/>
   </g>
   <g id="patch_6">
    <path d="M 32.685756 3.6 
L 179.160756 3.6 
" style="fill: none; stroke: #000000; stroke-width: 0.5; stroke-linejoin: miter; stroke-linecap: square"/>
   </g>
   <g id="legend_1">
    <g id="patch_7">
     <path d="M 125.426909 33.483338 
L 173.329756 33.483338 
Q 174.995756 33.483338 174.995756 31.817338 
L 174.995756 9.431 
Q 174.995756 7.765 173.329756 7.765 
L 125.426909 7.765 
Q 123.760909 7.765 123.760909 9.431 
L 123.760909 31.817338 
Q 123.760909 33.483338 125.426909 33.483338 
z
" style="fill: #ffffff; stroke: #cccccc; stroke-linejoin: miter"/>
    </g>
    <g id="patch_8">
     <path d="M 127.092909 16.928 
L 143.752909 16.928 
L 143.752909 11.097 
L 127.092909 11.097 
z
" style="fill: #0f3455; fill-opacity: 0.25; stroke: #0f3455; stroke-linejoin: miter"/>
    </g>
    <g id="text_11">
     <!-- $\kappa = 1$ -->
     <g transform="translate(150.416909 16.928) scale(0.0833 -0.0833)">
      <defs>
       <path id="CMMI12-14" d="M 1363 1600 
C 1574 1714 1811 1912 1971 2046 
C 2355 2377 2496 2479 2739 2574 
C 2714 2536 2707 2485 2707 2441 
C 2707 2268 2854 2236 2918 2236 
C 3123 2236 3238 2427 3238 2548 
C 3238 2586 3226 2752 3002 2752 
C 2618 2752 2240 2431 1958 2198 
C 1587 1876 1402 1738 1139 1656 
L 1382 2656 
C 1382 2759 1299 2816 1216 2816 
C 1158 2816 1018 2797 966 2592 
L 371 224 
C 352 148 352 134 352 96 
C 352 6 422 -64 518 -64 
C 710 -64 749 106 781 244 
C 819 380 1082 1472 1094 1472 
C 1907 1472 2182 1264 2182 943 
C 2182 897 2182 878 2163 806 
C 2138 682 2138 609 2138 570 
C 2138 178 2387 -64 2701 -64 
C 2963 -64 3110 123 3206 291 
C 3341 543 3424 898 3424 923 
C 3424 956 3398 981 3360 981 
C 3302 981 3296 956 3270 852 
C 3187 542 3046 64 2720 64 
C 2579 64 2509 148 2509 374 
C 2509 498 2534 641 2560 737 
C 2573 802 2592 880 2592 951 
C 2592 1541 1786 1600 1363 1600 
z
" transform="scale(0.015625)"/>
       <path id="CMR17-3d" d="M 4115 2017 
C 4211 2017 4307 2017 4307 2125 
C 4307 2240 4198 2240 4090 2240 
L 512 2240 
C 403 2240 294 2240 294 2125 
C 294 2017 390 2017 486 2017 
L 4115 2017 
z
M 4090 896 
C 4198 896 4307 896 4307 1011 
C 4307 1119 4211 1119 4115 1119 
L 486 1119 
C 390 1119 294 1119 294 1011 
C 294 896 403 896 512 896 
L 4090 896 
z
" transform="scale(0.015625)"/>
      </defs>
      <use xlink:href="#CMMI12-14" transform="scale(0.996264)"/>
      <use xlink:href="#CMR17-3d" transform="translate(83.828633 0) scale(0.996264)"/>
      <use xlink:href="#CMR17-31" transform="translate(183.21743 0) scale(0.996264)"/>
     </g>
    </g>
    <g id="patch_9">
     <path d="M 127.092909 28.537669 
L 143.752909 28.537669 
L 143.752909 22.706669 
L 127.092909 22.706669 
z
" style="fill: #cf695e; fill-opacity: 0.25; stroke: #cf695e; stroke-linejoin: miter"/>
    </g>
    <g id="text_12">
     <!-- $\kappa = 4$ -->
     <g transform="translate(150.416909 28.537669) scale(0.0833 -0.0833)">
      <defs>
       <path id="CMR17-34" d="M 2150 4122 
C 2150 4256 2144 4256 2029 4256 
L 128 1254 
L 128 1088 
L 1779 1088 
L 1779 457 
C 1779 224 1766 160 1318 160 
L 1197 160 
L 1197 0 
C 1402 0 1747 0 1965 0 
C 2182 0 2528 0 2733 0 
L 2733 160 
L 2611 160 
C 2163 160 2150 224 2150 457 
L 2150 1088 
L 2803 1088 
L 2803 1254 
L 2150 1254 
L 2150 4122 
z
M 1798 3703 
L 1798 1254 
L 256 1254 
L 1798 3703 
z
" transform="scale(0.015625)"/>
      </defs>
      <use xlink:href="#CMMI12-14" transform="scale(0.996264)"/>
      <use xlink:href="#CMR17-3d" transform="translate(83.828633 0) scale(0.996264)"/>
      <use xlink:href="#CMR17-34" transform="translate(183.21743 0) scale(0.996264)"/>
     </g>
    </g>
   </g>
  </g>
 </g>
 <defs>
  <clipPath id="p8f6c5c34c8">
   <rect x="32.685756" y="3.6" width="146.475" height="109.1475"/>
  </clipPath>
 </defs>
</svg>
