<?xml version="1.0" encoding="utf-8" standalone="no"?>
<!DOCTYPE svg PUBLIC "-//W3C//DTD SVG 1.1//EN"
  "http://www.w3.org/Graphics/SVG/1.1/DTD/svg11.dtd">
<svg xmlns:xlink="http://www.w3.org/1999/xlink" width="308.796463pt" height="142.401802pt" viewBox="0 0 308.796463 142.401802" xmlns="http://www.w3.org/2000/svg" version="1.1">
 <metadata>
  <rdf:RDF xmlns:dc="http://purl.org/dc/elements/1.1/" xmlns:cc="http://creativecommons.org/ns#" xmlns:rdf="http://www.w3.org/1999/02/22-rdf-syntax-ns#">
   <cc:Work>
    <dc:type rdf:resource="http://purl.org/dc/dcmitype/StillImage"/>
    <dc:date>2026-03-18T20:36:12.583972</dc:date>
    <dc:format>image/svg+xml</dc:format>
    <dc:creator>
     <cc:Agent>
      <dc:title>Matplotlib v3.7.0, https://matplotlib.org/</dc:title>
     </cc:Agent>
    </dc:creator>
   </cc:Work>
  </rdf:RDF>
 </metadata>
 <defs>
  <style type="text/css">*{stroke-linejoin: round; stroke-linecap: butt}</style>
 </defs>
 <g id="figure_1">
  <g id="patch_1">
   <path d="M 0 142.401802 
L 308.796463 142.401802 
L 308.796463 0 
L 0 0 
L 0 142.401802 
z
" style="fill: none"/>
  </g>
  <g id="axes_1">
   <g id="patch_2">
    <path d="M 41.541463 116.206749 
L 305.196463 116.206749 
L 305.196463 7.059249 
L 41.541463 7.059249 
L 41.541463 116.206749 
z
" style="fill: none"/>
   </g>
   <g id="matplotlib.axis_1">
    <g id="xtick_1">
     <g id="line2d_1">
      <defs>
       <path id="md13da58516" d="M 0 0 
L 0 -3 
" style="stroke: #000000; stroke-width: 0.5"/>
      </defs>
      <g>
       <use xlink:href="#md13da58516" x="60.373963" y="116.206749" style="stroke: #000000; stroke-width: 0.5"/>
      </g>
     </g>
     <g id="line2d_2">
      <defs>
       <path id="m9d6cbc452d" d="M 0 0 
L 0 3 
" style="stroke: #000000; stroke-width: 0.5"/>
      </defs>
      <g>
       <use xlink:href="#m9d6cbc452d" x="60.373963" y="7.059249" style="stroke: #000000; stroke-width: 0.5"/>
      </g>
     </g>
     <g id="text_1">
      <!-- $\kappa = 1$ -->
      <g transform="translate(48.371563 126.625248) scale(0.1 -0.1)">
       <defs>
        <path id="CMMI12-14" d="M 1363 1600 
C 1574 1714 1811 1912 1971 2046 
C 2355 2377 2496 2479 2739 2574 
C 2714 2536 2707 2485 2707 2441 
C 2707 2268 2854 2236 2918 2236 
C 3123 2236 3238 2427 3238 2548 
C 3238 2586 3226 2752 3002 2752 
C 2618 2752 2240 2431 1958 2198 
C 1587 1876 1402 1738 1139 1656 
L 1382 2656 
C 1382 2759 1299 2816 1216 2816 
C 1158 2816 1018 2797 966 2592 
L 371 224 
C 352 148 352 134 352 96 
C 352 6 422 -64 518 -64 
C 710 -64 749 106 781 244 
C 819 380 1082 1472 1094 1472 
C 1907 1472 2182 1264 2182 943 
C 2182 897 2182 878 2163 806 
C 2138 682 2138 609 2138 570 
C 2138 178 2387 -64 2701 -64 
C 2963 -64 3110 123 3206 291 
C 3341 543 3424 898 3424 923 
C 3424 956 3398 981 3360 981 
C 3302 981 3296 956 3270 852 
C 3187 542 3046 64 2720 64 
C 2579 64 2509 148 2509 374 
C 2509 498 2534 641 2560 737 
C 2573 802 2592 880 2592 951 
C 2592 1541 1786 1600 1363 1600 
z
" transform="scale(0.015625)"/>
        <path id="CMR17-3d" d="M 4115 2017 
C 4211 2017 4307 2017 4307 2125 
C 4307 2240 4198 2240 4090 2240 
L 512 2240 
C 403 2240 294 2240 294 2125 
C 294 2017 390 2017 486 2017 
L 4115 2017 
z
M 4090 896 
C 4198 896 4307 896 4307 1011 
C 4307 1119 4211 1119 4115 1119 
L 486 1119 
C 390 1119 294 1119 294 1011 
C 294 896 403 896 512 896 
L 4090 896 
z
" transform="scale(0.015625)"/>
        <path id="CMR17-31" d="M 1702 4058 
C 1702 4192 1696 4192 1606 4192 
C 1357 3916 979 3827 621 3827 
C 602 3827 570 3827 563 3808 
C 557 3795 557 3782 557 3648 
C 755 3648 1088 3686 1344 3839 
L 1344 461 
C 1344 236 1331 160 781 160 
L 589 160 
L 589 0 
C 896 0 1216 0 1523 0 
C 1830 0 2150 0 2458 0 
L 2458 160 
L 2266 160 
C 1715 160 1702 230 1702 458 
L 1702 4058 
z
" transform="scale(0.015625)"/>
       </defs>
       <use xlink:href="#CMMI12-14" transform="scale(0.996264)"/>
       <use xlink:href="#CMR17-3d" transform="translate(83.828633 0) scale(0.996264)"/>
       <use xlink:href="#CMR17-31" transform="translate(183.21743 0) scale(0.996264)"/>
      </g>
     </g>
    </g>
    <g id="xtick_2">
     <g id="line2d_3">
      <g>
       <use xlink:href="#md13da58516" x="98.038963" y="116.206749" style="stroke: #000000; stroke-width: 0.5"/>
      </g>
     </g>
     <g id="line2d_4">
      <g>
       <use xlink:href="#m9d6cbc452d" x="98.038963" y="7.059249" style="stroke: #000000; stroke-width: 0.5"/>
      </g>
     </g>
     <g id="text_2">
      <!-- $\kappa = 4$ -->
      <g transform="translate(86.036563 126.625248) scale(0.1 -0.1)">
       <defs>
        <path id="CMR17-34" d="M 2150 4122 
C 2150 4256 2144 4256 2029 4256 
L 128 1254 
L 128 1088 
L 1779 1088 
L 1779 457 
C 1779 224 1766 160 1318 160 
L 1197 160 
L 1197 0 
C 1402 0 1747 0 1965 0 
C 2182 0 2528 0 2733 0 
L 2733 160 
L 2611 160 
C 2163 160 2150 224 2150 457 
L 2150 1088 
L 2803 1088 
L 2803 1254 
L 2150 1254 
L 2150 4122 
z
M 1798 3703 
L 1798 1254 
L 256 1254 
L 1798 3703 
z
" transform="scale(0.015625)"/>
       </defs>
       <use xlink:href="#CMMI12-14" transform="scale(0.996264)"/>
       <use xlink:href="#CMR17-3d" transform="translate(83.828633 0) scale(0.996264)"/>
       <use xlink:href="#CMR17-34" transform="translate(183.21743 0) scale(0.996264)"/>
      </g>
      <!-- $\beta_\text{max}$ -->
      <g transform="translate(87.87046 136.864624) scale(0.1 -0.1)">
       <defs>
        <path id="CMMI12-c" d="M 3622 3701 
C 3622 4081 3296 4480 2714 4480 
C 1888 4480 1363 3477 1197 2816 
L 186 -1172 
C 173 -1223 211 -1236 243 -1236 
C 288 -1236 320 -1230 326 -1198 
L 774 586 
C 838 229 1190 -64 1568 -64 
C 2483 -64 3347 650 3347 1599 
C 3347 1841 3290 2083 3155 2287 
C 3078 2408 2982 2497 2880 2574 
C 3341 2815 3622 3200 3622 3701 
z
M 2509 2580 
C 2406 2542 2304 2529 2182 2529 
C 2093 2529 2010 2523 1894 2561 
C 1958 2606 2054 2618 2189 2618 
C 2304 2618 2419 2606 2509 2580 
z
M 3290 3758 
C 3290 3410 3117 2903 2701 2669 
C 2579 2718 2413 2752 2272 2752 
C 2138 2752 1754 2752 1754 2555 
C 1754 2389 2106 2389 2214 2389 
C 2381 2389 2528 2432 2682 2484 
C 2886 2318 2976 2101 2976 1783 
C 2976 1413 2874 1115 2752 841 
C 2541 369 2042 64 1600 64 
C 1133 64 890 432 890 864 
C 890 922 890 1005 915 1099 
L 1331 2771 
C 1542 3603 2080 4353 2701 4353 
C 3162 4353 3290 4036 3290 3758 
z
" transform="scale(0.015625)"/>
        <path id="CMR17-6d" d="M 4326 1933 
C 4326 2252 4269 2790 3507 2790 
C 3072 2790 2771 2496 2656 2151 
L 2650 2151 
C 2573 2676 2195 2790 1837 2790 
C 1331 2790 1069 2400 973 2144 
L 966 2144 
L 966 2790 
L 211 2720 
L 211 2554 
C 589 2554 646 2515 646 2208 
L 646 428 
C 646 184 621 153 211 153 
L 211 -13 
C 365 0 646 0 813 0 
C 979 0 1267 0 1421 -13 
L 1421 153 
C 1011 153 986 178 986 428 
L 986 1658 
C 986 2247 1344 2688 1792 2688 
C 2266 2688 2317 2266 2317 1958 
L 2317 428 
C 2317 184 2291 153 1882 153 
L 1882 -13 
C 2035 0 2317 0 2483 0 
C 2650 0 2938 0 3091 -13 
L 3091 153 
C 2682 153 2656 178 2656 428 
L 2656 1658 
C 2656 2247 3014 2688 3462 2688 
C 3936 2688 3987 2266 3987 1958 
L 3987 428 
C 3987 184 3962 153 3552 153 
L 3552 -13 
C 3706 0 3987 0 4154 0 
C 4320 0 4608 0 4762 -13 
L 4762 153 
C 4352 153 4326 178 4326 428 
L 4326 1933 
z
" transform="scale(0.015625)"/>
        <path id="CMR17-61" d="M 2304 1653 
C 2304 2072 2304 2294 2035 2543 
C 1798 2752 1523 2816 1306 2816 
C 800 2816 435 2407 435 1971 
C 435 1728 627 1728 666 1728 
C 749 1728 896 1778 896 1954 
C 896 2112 774 2181 666 2181 
C 640 2181 608 2174 589 2168 
C 723 2592 1069 2714 1293 2714 
C 1613 2714 1965 2429 1965 1885 
L 1965 1600 
C 1587 1600 1133 1549 774 1357 
C 371 1133 256 813 256 570 
C 256 77 832 -64 1171 -64 
C 1523 -64 1850 139 1990 511 
C 2003 233 2182 -18 2464 -18 
C 2598 -18 2938 70 2938 567 
L 2938 920 
L 2822 920 
L 2822 562 
C 2822 178 2650 128 2566 128 
C 2304 128 2304 458 2304 738 
L 2304 1653 
z
M 1965 870 
C 1965 317 1568 38 1216 38 
C 896 38 646 275 646 570 
C 646 761 730 1100 1101 1305 
C 1408 1478 1760 1504 1965 1504 
L 1965 870 
z
" transform="scale(0.015625)"/>
        <path id="CMR17-78" d="M 1664 1477 
C 1856 1726 2074 2006 2253 2216 
C 2464 2458 2707 2560 2989 2560 
L 2989 2726 
C 2880 2726 2656 2726 2541 2726 
C 2368 2726 2170 2726 2022 2732 
L 2022 2566 
C 2112 2553 2163 2489 2163 2400 
C 2163 2285 2099 2215 2067 2171 
L 1594 1573 
L 1030 2306 
C 973 2376 973 2388 973 2420 
C 973 2497 1037 2560 1146 2560 
L 1146 2732 
C 992 2726 717 2726 557 2726 
C 384 2726 179 2726 38 2732 
L 38 2560 
C 384 2560 461 2534 614 2343 
L 1350 1395 
C 1363 1382 1395 1344 1395 1325 
C 1395 1299 838 619 768 530 
C 480 185 179 160 6 160 
L 6 0 
C 115 0 339 0 454 0 
C 582 0 864 0 979 -6 
L 979 160 
C 941 166 838 179 838 325 
C 838 440 890 510 947 586 
L 1478 1236 
L 2035 512 
C 2086 442 2163 346 2163 301 
C 2163 211 2086 160 1984 160 
L 1984 -6 
C 2138 0 2413 0 2573 0 
C 2746 0 2950 0 3091 -6 
L 3091 160 
C 2771 160 2675 172 2522 370 
L 1664 1477 
z
" transform="scale(0.015625)"/>
       </defs>
       <use xlink:href="#CMMI12-c" transform="scale(0.996264)"/>
       <use xlink:href="#CMR17-6d" transform="translate(55.070737 -14.943915) scale(0.697382)"/>
       <use xlink:href="#CMR17-61" transform="translate(108.914204 -14.943915) scale(0.697382)"/>
       <use xlink:href="#CMR17-78" transform="translate(140.897386 -14.943915) scale(0.697382)"/>
      </g>
     </g>
    </g>
    <g id="xtick_3">
     <g id="line2d_5">
      <g>
       <use xlink:href="#md13da58516" x="135.703963" y="116.206749" style="stroke: #000000; stroke-width: 0.5"/>
      </g>
     </g>
     <g id="line2d_6">
      <g>
       <use xlink:href="#m9d6cbc452d" x="135.703963" y="7.059249" style="stroke: #000000; stroke-width: 0.5"/>
      </g>
     </g>
     <g id="text_3">
      <!-- $\kappa = 4$ -->
      <g transform="translate(123.701563 126.625248) scale(0.1 -0.1)">
       <use xlink:href="#CMMI12-14" transform="scale(0.996264)"/>
       <use xlink:href="#CMR17-3d" transform="translate(83.828633 0) scale(0.996264)"/>
       <use xlink:href="#CMR17-34" transform="translate(183.21743 0) scale(0.996264)"/>
      </g>
      <!-- $\beta_{50}$ -->
      <g transform="translate(128.915166 136.864624) scale(0.1 -0.1)">
       <defs>
        <path id="CMR17-35" d="M 730 3692 
C 794 3666 1056 3584 1325 3584 
C 1920 3584 2246 3911 2432 4100 
C 2432 4157 2432 4192 2394 4192 
C 2387 4192 2374 4192 2323 4163 
C 2099 4058 1837 3973 1517 3973 
C 1325 3973 1037 3999 723 4139 
C 653 4171 640 4171 634 4171 
C 602 4171 595 4164 595 4037 
L 595 2203 
C 595 2089 595 2057 659 2057 
C 691 2057 704 2070 736 2114 
C 941 2401 1222 2522 1542 2522 
C 1766 2522 2246 2382 2246 1289 
C 2246 1085 2246 715 2054 421 
C 1894 159 1645 25 1370 25 
C 947 25 518 320 403 814 
C 429 807 480 795 506 795 
C 589 795 749 840 749 1038 
C 749 1210 627 1280 506 1280 
C 358 1280 262 1190 262 1011 
C 262 454 704 -128 1382 -128 
C 2042 -128 2669 440 2669 1264 
C 2669 2030 2170 2624 1549 2624 
C 1222 2624 947 2503 730 2274 
L 730 3692 
z
" transform="scale(0.015625)"/>
        <path id="CMR17-30" d="M 2688 2025 
C 2688 2416 2682 3080 2413 3591 
C 2176 4039 1798 4198 1466 4198 
C 1158 4198 768 4058 525 3597 
C 269 3118 243 2524 243 2025 
C 243 1661 250 1106 448 619 
C 723 -39 1216 -128 1466 -128 
C 1760 -128 2208 -7 2470 600 
C 2662 1042 2688 1559 2688 2025 
z
M 1466 -26 
C 1056 -26 813 325 723 812 
C 653 1188 653 1738 653 2096 
C 653 2588 653 2997 736 3387 
C 858 3929 1216 4096 1466 4096 
C 1728 4096 2067 3923 2189 3400 
C 2272 3036 2278 2607 2278 2096 
C 2278 1680 2278 1169 2202 792 
C 2067 95 1690 -26 1466 -26 
z
" transform="scale(0.015625)"/>
       </defs>
       <use xlink:href="#CMMI12-c" transform="scale(0.996264)"/>
       <use xlink:href="#CMR17-35" transform="translate(55.070737 -14.943915) scale(0.697382)"/>
       <use xlink:href="#CMR17-30" transform="translate(87.053919 -14.943915) scale(0.697382)"/>
      </g>
     </g>
    </g>
    <g id="xtick_4">
     <g id="line2d_7">
      <g>
       <use xlink:href="#md13da58516" x="173.368963" y="116.206749" style="stroke: #000000; stroke-width: 0.5"/>
      </g>
     </g>
     <g id="line2d_8">
      <g>
       <use xlink:href="#m9d6cbc452d" x="173.368963" y="7.059249" style="stroke: #000000; stroke-width: 0.5"/>
      </g>
     </g>
     <g id="text_4">
      <!-- $\kappa = 4$ -->
      <g transform="translate(161.366563 126.625248) scale(0.1 -0.1)">
       <use xlink:href="#CMMI12-14" transform="scale(0.996264)"/>
       <use xlink:href="#CMR17-3d" transform="translate(83.828633 0) scale(0.996264)"/>
       <use xlink:href="#CMR17-34" transform="translate(183.21743 0) scale(0.996264)"/>
      </g>
      <!-- $\beta_\text{min}$ -->
      <g transform="translate(163.951124 136.864624) scale(0.1 -0.1)">
       <defs>
        <path id="CMR17-69" d="M 992 3909 
C 992 4049 877 4170 730 4170 
C 589 4170 467 4056 467 3909 
C 467 3769 582 3648 730 3648 
C 870 3648 992 3763 992 3909 
z
M 243 2706 
L 243 2541 
C 602 2541 653 2502 653 2197 
L 653 427 
C 653 184 627 153 218 153 
L 218 -13 
C 371 0 646 0 806 0 
C 960 0 1222 0 1370 -13 
L 1370 153 
C 992 153 979 191 979 420 
L 979 2776 
L 243 2706 
z
" transform="scale(0.015625)"/>
        <path id="CMR17-6e" d="M 2656 1933 
C 2656 2259 2592 2790 1837 2790 
C 1331 2790 1069 2400 973 2144 
L 966 2144 
L 966 2790 
L 211 2720 
L 211 2554 
C 589 2554 646 2515 646 2208 
L 646 428 
C 646 184 621 153 211 153 
L 211 -13 
C 365 0 646 0 813 0 
C 979 0 1267 0 1421 -13 
L 1421 153 
C 1011 153 986 178 986 428 
L 986 1658 
C 986 2247 1344 2688 1792 2688 
C 2266 2688 2317 2266 2317 1958 
L 2317 428 
C 2317 184 2291 153 1882 153 
L 1882 -13 
C 2035 0 2317 0 2483 0 
C 2650 0 2938 0 3091 -13 
L 3091 153 
C 2682 153 2656 178 2656 428 
L 2656 1933 
z
" transform="scale(0.015625)"/>
       </defs>
       <use xlink:href="#CMMI12-c" transform="scale(0.996264)"/>
       <use xlink:href="#CMR17-6d" transform="translate(55.070737 -14.943915) scale(0.697382)"/>
       <use xlink:href="#CMR17-69" transform="translate(108.914204 -14.943915) scale(0.697382)"/>
       <use xlink:href="#CMR17-6e" transform="translate(126.323862 -14.943915) scale(0.697382)"/>
      </g>
     </g>
    </g>
    <g id="xtick_5">
     <g id="line2d_9">
      <g>
       <use xlink:href="#md13da58516" x="211.033963" y="116.206749" style="stroke: #000000; stroke-width: 0.5"/>
      </g>
     </g>
     <g id="line2d_10">
      <g>
       <use xlink:href="#m9d6cbc452d" x="211.033963" y="7.059249" style="stroke: #000000; stroke-width: 0.5"/>
      </g>
     </g>
     <g id="text_5">
      <!-- $\kappa = 64$ -->
      <g transform="translate(196.540895 126.625248) scale(0.1 -0.1)">
       <defs>
        <path id="CMR17-36" d="M 678 2176 
C 678 3690 1395 4032 1811 4032 
C 1946 4032 2272 4009 2400 3776 
C 2298 3776 2106 3776 2106 3553 
C 2106 3381 2246 3323 2336 3323 
C 2394 3323 2566 3348 2566 3560 
C 2566 3954 2246 4179 1805 4179 
C 1043 4179 243 3390 243 1984 
C 243 253 966 -128 1478 -128 
C 2099 -128 2688 427 2688 1283 
C 2688 2081 2170 2662 1517 2662 
C 1126 2662 838 2407 678 1960 
L 678 2176 
z
M 1478 25 
C 691 25 691 1200 691 1436 
C 691 1896 909 2560 1504 2560 
C 1613 2560 1926 2560 2138 2120 
C 2253 1870 2253 1609 2253 1289 
C 2253 944 2253 690 2118 434 
C 1978 171 1773 25 1478 25 
z
" transform="scale(0.015625)"/>
       </defs>
       <use xlink:href="#CMMI12-14" transform="scale(0.996264)"/>
       <use xlink:href="#CMR17-3d" transform="translate(83.828633 0) scale(0.996264)"/>
       <use xlink:href="#CMR17-36" transform="translate(183.21743 0) scale(0.996264)"/>
       <use xlink:href="#CMR17-34" transform="translate(228.907907 0) scale(0.996264)"/>
      </g>
      <!-- $\beta_\text{max}$ -->
      <g transform="translate(200.86546 136.864624) scale(0.1 -0.1)">
       <use xlink:href="#CMMI12-c" transform="scale(0.996264)"/>
       <use xlink:href="#CMR17-6d" transform="translate(55.070737 -14.943915) scale(0.697382)"/>
       <use xlink:href="#CMR17-61" transform="translate(108.914204 -14.943915) scale(0.697382)"/>
       <use xlink:href="#CMR17-78" transform="translate(140.897386 -14.943915) scale(0.697382)"/>
      </g>
     </g>
    </g>
    <g id="xtick_6">
     <g id="line2d_11">
      <g>
       <use xlink:href="#md13da58516" x="248.698963" y="116.206749" style="stroke: #000000; stroke-width: 0.5"/>
      </g>
     </g>
     <g id="line2d_12">
      <g>
       <use xlink:href="#m9d6cbc452d" x="248.698963" y="7.059249" style="stroke: #000000; stroke-width: 0.5"/>
      </g>
     </g>
     <g id="text_6">
      <!-- $\kappa = 64$ -->
      <g transform="translate(234.205895 126.625248) scale(0.1 -0.1)">
       <use xlink:href="#CMMI12-14" transform="scale(0.996264)"/>
       <use xlink:href="#CMR17-3d" transform="translate(83.828633 0) scale(0.996264)"/>
       <use xlink:href="#CMR17-36" transform="translate(183.21743 0) scale(0.996264)"/>
       <use xlink:href="#CMR17-34" transform="translate(228.907907 0) scale(0.996264)"/>
      </g>
      <!-- $\beta_{50}$ -->
      <g transform="translate(241.910166 136.864624) scale(0.1 -0.1)">
       <use xlink:href="#CMMI12-c" transform="scale(0.996264)"/>
       <use xlink:href="#CMR17-35" transform="translate(55.070737 -14.943915) scale(0.697382)"/>
       <use xlink:href="#CMR17-30" transform="translate(87.053919 -14.943915) scale(0.697382)"/>
      </g>
     </g>
    </g>
    <g id="xtick_7">
     <g id="line2d_13">
      <g>
       <use xlink:href="#md13da58516" x="286.363963" y="116.206749" style="stroke: #000000; stroke-width: 0.5"/>
      </g>
     </g>
     <g id="line2d_14">
      <g>
       <use xlink:href="#m9d6cbc452d" x="286.363963" y="7.059249" style="stroke: #000000; stroke-width: 0.5"/>
      </g>
     </g>
     <g id="text_7">
      <!-- $\kappa = 64$ -->
      <g transform="translate(271.870895 126.625248) scale(0.1 -0.1)">
       <use xlink:href="#CMMI12-14" transform="scale(0.996264)"/>
       <use xlink:href="#CMR17-3d" transform="translate(83.828633 0) scale(0.996264)"/>
       <use xlink:href="#CMR17-36" transform="translate(183.21743 0) scale(0.996264)"/>
       <use xlink:href="#CMR17-34" transform="translate(228.907907 0) scale(0.996264)"/>
      </g>
      <!-- $\beta_\text{min}$ -->
      <g transform="translate(276.946124 136.864624) scale(0.1 -0.1)">
       <use xlink:href="#CMMI12-c" transform="scale(0.996264)"/>
       <use xlink:href="#CMR17-6d" transform="translate(55.070737 -14.943915) scale(0.697382)"/>
       <use xlink:href="#CMR17-69" transform="translate(108.914204 -14.943915) scale(0.697382)"/>
       <use xlink:href="#CMR17-6e" transform="translate(126.323862 -14.943915) scale(0.697382)"/>
      </g>
     </g>
    </g>
    <g id="xtick_8">
     <g id="line2d_15">
      <defs>
       <path id="m77890b0271" d="M 0 0 
L 0 -1.5 
" style="stroke: #000000; stroke-width: 0.5"/>
      </defs>
      <g>
       <use xlink:href="#m77890b0271" x="45.307963" y="116.206749" style="stroke: #000000; stroke-width: 0.5"/>
      </g>
     </g>
     <g id="line2d_16">
      <defs>
       <path id="m0dadc09d94" d="M 0 0 
L 0 1.5 
" style="stroke: #000000; stroke-width: 0.5"/>
      </defs>
      <g>
       <use xlink:href="#m0dadc09d94" x="45.307963" y="7.059249" style="stroke: #000000; stroke-width: 0.5"/>
      </g>
     </g>
    </g>
    <g id="xtick_9">
     <g id="line2d_17">
      <g>
       <use xlink:href="#m77890b0271" x="52.840963" y="116.206749" style="stroke: #000000; stroke-width: 0.5"/>
      </g>
     </g>
     <g id="line2d_18">
      <g>
       <use xlink:href="#m0dadc09d94" x="52.840963" y="7.059249" style="stroke: #000000; stroke-width: 0.5"/>
      </g>
     </g>
    </g>
    <g id="xtick_10">
     <g id="line2d_19">
      <g>
       <use xlink:href="#m77890b0271" x="67.906963" y="116.206749" style="stroke: #000000; stroke-width: 0.5"/>
      </g>
     </g>
     <g id="line2d_20">
      <g>
       <use xlink:href="#m0dadc09d94" x="67.906963" y="7.059249" style="stroke: #000000; stroke-width: 0.5"/>
      </g>
     </g>
    </g>
    <g id="xtick_11">
     <g id="line2d_21">
      <g>
       <use xlink:href="#m77890b0271" x="75.439963" y="116.206749" style="stroke: #000000; stroke-width: 0.5"/>
      </g>
     </g>
     <g id="line2d_22">
      <g>
       <use xlink:href="#m0dadc09d94" x="75.439963" y="7.059249" style="stroke: #000000; stroke-width: 0.5"/>
      </g>
     </g>
    </g>
    <g id="xtick_12">
     <g id="line2d_23">
      <g>
       <use xlink:href="#m77890b0271" x="82.972963" y="116.206749" style="stroke: #000000; stroke-width: 0.5"/>
      </g>
     </g>
     <g id="line2d_24">
      <g>
       <use xlink:href="#m0dadc09d94" x="82.972963" y="7.059249" style="stroke: #000000; stroke-width: 0.5"/>
      </g>
     </g>
    </g>
    <g id="xtick_13">
     <g id="line2d_25">
      <g>
       <use xlink:href="#m77890b0271" x="90.505963" y="116.206749" style="stroke: #000000; stroke-width: 0.5"/>
      </g>
     </g>
     <g id="line2d_26">
      <g>
       <use xlink:href="#m0dadc09d94" x="90.505963" y="7.059249" style="stroke: #000000; stroke-width: 0.5"/>
      </g>
     </g>
    </g>
    <g id="xtick_14">
     <g id="line2d_27">
      <g>
       <use xlink:href="#m77890b0271" x="105.571963" y="116.206749" style="stroke: #000000; stroke-width: 0.5"/>
      </g>
     </g>
     <g id="line2d_28">
      <g>
       <use xlink:href="#m0dadc09d94" x="105.571963" y="7.059249" style="stroke: #000000; stroke-width: 0.5"/>
      </g>
     </g>
    </g>
    <g id="xtick_15">
     <g id="line2d_29">
      <g>
       <use xlink:href="#m77890b0271" x="113.104963" y="116.206749" style="stroke: #000000; stroke-width: 0.5"/>
      </g>
     </g>
     <g id="line2d_30">
      <g>
       <use xlink:href="#m0dadc09d94" x="113.104963" y="7.059249" style="stroke: #000000; stroke-width: 0.5"/>
      </g>
     </g>
    </g>
    <g id="xtick_16">
     <g id="line2d_31">
      <g>
       <use xlink:href="#m77890b0271" x="120.637963" y="116.206749" style="stroke: #000000; stroke-width: 0.5"/>
      </g>
     </g>
     <g id="line2d_32">
      <g>
       <use xlink:href="#m0dadc09d94" x="120.637963" y="7.059249" style="stroke: #000000; stroke-width: 0.5"/>
      </g>
     </g>
    </g>
    <g id="xtick_17">
     <g id="line2d_33">
      <g>
       <use xlink:href="#m77890b0271" x="128.170963" y="116.206749" style="stroke: #000000; stroke-width: 0.5"/>
      </g>
     </g>
     <g id="line2d_34">
      <g>
       <use xlink:href="#m0dadc09d94" x="128.170963" y="7.059249" style="stroke: #000000; stroke-width: 0.5"/>
      </g>
     </g>
    </g>
    <g id="xtick_18">
     <g id="line2d_35">
      <g>
       <use xlink:href="#m77890b0271" x="143.236963" y="116.206749" style="stroke: #000000; stroke-width: 0.5"/>
      </g>
     </g>
     <g id="line2d_36">
      <g>
       <use xlink:href="#m0dadc09d94" x="143.236963" y="7.059249" style="stroke: #000000; stroke-width: 0.5"/>
      </g>
     </g>
    </g>
    <g id="xtick_19">
     <g id="line2d_37">
      <g>
       <use xlink:href="#m77890b0271" x="150.769963" y="116.206749" style="stroke: #000000; stroke-width: 0.5"/>
      </g>
     </g>
     <g id="line2d_38">
      <g>
       <use xlink:href="#m0dadc09d94" x="150.769963" y="7.059249" style="stroke: #000000; stroke-width: 0.5"/>
      </g>
     </g>
    </g>
    <g id="xtick_20">
     <g id="line2d_39">
      <g>
       <use xlink:href="#m77890b0271" x="158.302963" y="116.206749" style="stroke: #000000; stroke-width: 0.5"/>
      </g>
     </g>
     <g id="line2d_40">
      <g>
       <use xlink:href="#m0dadc09d94" x="158.302963" y="7.059249" style="stroke: #000000; stroke-width: 0.5"/>
      </g>
     </g>
    </g>
    <g id="xtick_21">
     <g id="line2d_41">
      <g>
       <use xlink:href="#m77890b0271" x="165.835963" y="116.206749" style="stroke: #000000; stroke-width: 0.5"/>
      </g>
     </g>
     <g id="line2d_42">
      <g>
       <use xlink:href="#m0dadc09d94" x="165.835963" y="7.059249" style="stroke: #000000; stroke-width: 0.5"/>
      </g>
     </g>
    </g>
    <g id="xtick_22">
     <g id="line2d_43">
      <g>
       <use xlink:href="#m77890b0271" x="180.901963" y="116.206749" style="stroke: #000000; stroke-width: 0.5"/>
      </g>
     </g>
     <g id="line2d_44">
      <g>
       <use xlink:href="#m0dadc09d94" x="180.901963" y="7.059249" style="stroke: #000000; stroke-width: 0.5"/>
      </g>
     </g>
    </g>
    <g id="xtick_23">
     <g id="line2d_45">
      <g>
       <use xlink:href="#m77890b0271" x="188.434963" y="116.206749" style="stroke: #000000; stroke-width: 0.5"/>
      </g>
     </g>
     <g id="line2d_46">
      <g>
       <use xlink:href="#m0dadc09d94" x="188.434963" y="7.059249" style="stroke: #000000; stroke-width: 0.5"/>
      </g>
     </g>
    </g>
    <g id="xtick_24">
     <g id="line2d_47">
      <g>
       <use xlink:href="#m77890b0271" x="195.967963" y="116.206749" style="stroke: #000000; stroke-width: 0.5"/>
      </g>
     </g>
     <g id="line2d_48">
      <g>
       <use xlink:href="#m0dadc09d94" x="195.967963" y="7.059249" style="stroke: #000000; stroke-width: 0.5"/>
      </g>
     </g>
    </g>
    <g id="xtick_25">
     <g id="line2d_49">
      <g>
       <use xlink:href="#m77890b0271" x="203.500963" y="116.206749" style="stroke: #000000; stroke-width: 0.5"/>
      </g>
     </g>
     <g id="line2d_50">
      <g>
       <use xlink:href="#m0dadc09d94" x="203.500963" y="7.059249" style="stroke: #000000; stroke-width: 0.5"/>
      </g>
     </g>
    </g>
    <g id="xtick_26">
     <g id="line2d_51">
      <g>
       <use xlink:href="#m77890b0271" x="218.566963" y="116.206749" style="stroke: #000000; stroke-width: 0.5"/>
      </g>
     </g>
     <g id="line2d_52">
      <g>
       <use xlink:href="#m0dadc09d94" x="218.566963" y="7.059249" style="stroke: #000000; stroke-width: 0.5"/>
      </g>
     </g>
    </g>
    <g id="xtick_27">
     <g id="line2d_53">
      <g>
       <use xlink:href="#m77890b0271" x="226.099963" y="116.206749" style="stroke: #000000; stroke-width: 0.5"/>
      </g>
     </g>
     <g id="line2d_54">
      <g>
       <use xlink:href="#m0dadc09d94" x="226.099963" y="7.059249" style="stroke: #000000; stroke-width: 0.5"/>
      </g>
     </g>
    </g>
    <g id="xtick_28">
     <g id="line2d_55">
      <g>
       <use xlink:href="#m77890b0271" x="233.632963" y="116.206749" style="stroke: #000000; stroke-width: 0.5"/>
      </g>
     </g>
     <g id="line2d_56">
      <g>
       <use xlink:href="#m0dadc09d94" x="233.632963" y="7.059249" style="stroke: #000000; stroke-width: 0.5"/>
      </g>
     </g>
    </g>
    <g id="xtick_29">
     <g id="line2d_57">
      <g>
       <use xlink:href="#m77890b0271" x="241.165963" y="116.206749" style="stroke: #000000; stroke-width: 0.5"/>
      </g>
     </g>
     <g id="line2d_58">
      <g>
       <use xlink:href="#m0dadc09d94" x="241.165963" y="7.059249" style="stroke: #000000; stroke-width: 0.5"/>
      </g>
     </g>
    </g>
    <g id="xtick_30">
     <g id="line2d_59">
      <g>
       <use xlink:href="#m77890b0271" x="256.231963" y="116.206749" style="stroke: #000000; stroke-width: 0.5"/>
      </g>
     </g>
     <g id="line2d_60">
      <g>
       <use xlink:href="#m0dadc09d94" x="256.231963" y="7.059249" style="stroke: #000000; stroke-width: 0.5"/>
      </g>
     </g>
    </g>
    <g id="xtick_31">
     <g id="line2d_61">
      <g>
       <use xlink:href="#m77890b0271" x="263.764963" y="116.206749" style="stroke: #000000; stroke-width: 0.5"/>
      </g>
     </g>
     <g id="line2d_62">
      <g>
       <use xlink:href="#m0dadc09d94" x="263.764963" y="7.059249" style="stroke: #000000; stroke-width: 0.5"/>
      </g>
     </g>
    </g>
    <g id="xtick_32">
     <g id="line2d_63">
      <g>
       <use xlink:href="#m77890b0271" x="271.297963" y="116.206749" style="stroke: #000000; stroke-width: 0.5"/>
      </g>
     </g>
     <g id="line2d_64">
      <g>
       <use xlink:href="#m0dadc09d94" x="271.297963" y="7.059249" style="stroke: #000000; stroke-width: 0.5"/>
      </g>
     </g>
    </g>
    <g id="xtick_33">
     <g id="line2d_65">
      <g>
       <use xlink:href="#m77890b0271" x="278.830963" y="116.206749" style="stroke: #000000; stroke-width: 0.5"/>
      </g>
     </g>
     <g id="line2d_66">
      <g>
       <use xlink:href="#m0dadc09d94" x="278.830963" y="7.059249" style="stroke: #000000; stroke-width: 0.5"/>
      </g>
     </g>
    </g>
    <g id="xtick_34">
     <g id="line2d_67">
      <g>
       <use xlink:href="#m77890b0271" x="293.896963" y="116.206749" style="stroke: #000000; stroke-width: 0.5"/>
      </g>
     </g>
     <g id="line2d_68">
      <g>
       <use xlink:href="#m0dadc09d94" x="293.896963" y="7.059249" style="stroke: #000000; stroke-width: 0.5"/>
      </g>
     </g>
    </g>
    <g id="xtick_35">
     <g id="line2d_69">
      <g>
       <use xlink:href="#m77890b0271" x="301.429963" y="116.206749" style="stroke: #000000; stroke-width: 0.5"/>
      </g>
     </g>
     <g id="line2d_70">
      <g>
       <use xlink:href="#m0dadc09d94" x="301.429963" y="7.059249" style="stroke: #000000; stroke-width: 0.5"/>
      </g>
     </g>
    </g>
   </g>
   <g id="matplotlib.axis_2">
    <g id="ytick_1">
     <g id="line2d_71">
      <path d="M 41.541463 116.206749 
L 305.196463 116.206749 
" clip-path="url(#p7dbaf2d23f)" style="fill: none; stroke-dasharray: 1.85,0.8; stroke-dashoffset: 0; stroke: #000000; stroke-opacity: 0.5; stroke-width: 0.5"/>
     </g>
     <g id="line2d_72">
      <defs>
       <path id="mee66a838b3" d="M 0 0 
L 3 0 
" style="stroke: #000000; stroke-width: 0.5"/>
      </defs>
      <g>
       <use xlink:href="#mee66a838b3" x="41.541463" y="116.206749" style="stroke: #000000; stroke-width: 0.5"/>
      </g>
     </g>
     <g id="line2d_73">
      <defs>
       <path id="m361d7cb64c" d="M 0 0 
L -3 0 
" style="stroke: #000000; stroke-width: 0.5"/>
      </defs>
      <g>
       <use xlink:href="#m361d7cb64c" x="305.196463" y="116.206749" style="stroke: #000000; stroke-width: 0.5"/>
      </g>
     </g>
     <g id="text_8">
      <!-- $\mathdefault{−0.2}$ -->
      <g transform="translate(17.56264 119.665998) scale(0.1 -0.1)">
       <defs>
        <path id="CMSY10-0" d="M 4218 1472 
C 4326 1472 4442 1472 4442 1600 
C 4442 1728 4326 1728 4218 1728 
L 755 1728 
C 646 1728 531 1728 531 1600 
C 531 1472 646 1472 755 1472 
L 4218 1472 
z
" transform="scale(0.015625)"/>
        <path id="CMMI12-3a" d="M 1178 307 
C 1178 492 1024 619 870 619 
C 685 619 557 466 557 313 
C 557 128 710 0 864 0 
C 1050 0 1178 153 1178 307 
z
" transform="scale(0.015625)"/>
        <path id="CMR17-32" d="M 2669 989 
L 2554 989 
C 2490 536 2438 459 2413 420 
C 2381 369 1920 369 1830 369 
L 602 369 
C 832 619 1280 1072 1824 1597 
C 2214 1967 2669 2402 2669 3035 
C 2669 3790 2067 4224 1395 4224 
C 691 4224 262 3604 262 3030 
C 262 2780 448 2748 525 2748 
C 589 2748 781 2787 781 3010 
C 781 3207 614 3264 525 3264 
C 486 3264 448 3258 422 3245 
C 544 3790 915 4058 1306 4058 
C 1862 4058 2227 3617 2227 3035 
C 2227 2479 1901 2000 1536 1584 
L 262 146 
L 262 0 
L 2515 0 
L 2669 989 
z
" transform="scale(0.015625)"/>
       </defs>
       <use xlink:href="#CMSY10-0" transform="scale(0.996264)"/>
       <use xlink:href="#CMR17-30" transform="translate(77.487468 0) scale(0.996264)"/>
       <use xlink:href="#CMMI12-3a" transform="translate(123.177945 0) scale(0.996264)"/>
       <use xlink:href="#CMR17-32" transform="translate(150.275122 0) scale(0.996264)"/>
      </g>
     </g>
    </g>
    <g id="ytick_2">
     <g id="line2d_74">
      <path d="M 41.541463 79.824249 
L 305.196463 79.824249 
" clip-path="url(#p7dbaf2d23f)" style="fill: none; stroke-dasharray: 1.85,0.8; stroke-dashoffset: 0; stroke: #000000; stroke-opacity: 0.5; stroke-width: 0.5"/>
     </g>
     <g id="line2d_75">
      <g>
       <use xlink:href="#mee66a838b3" x="41.541463" y="79.824249" style="stroke: #000000; stroke-width: 0.5"/>
      </g>
     </g>
     <g id="line2d_76">
      <g>
       <use xlink:href="#m361d7cb64c" x="305.196463" y="79.824249" style="stroke: #000000; stroke-width: 0.5"/>
      </g>
     </g>
     <g id="text_9">
      <!-- $\mathdefault{0.0}$ -->
      <g transform="translate(25.311384 83.283498) scale(0.1 -0.1)">
       <use xlink:href="#CMR17-30" transform="scale(0.996264)"/>
       <use xlink:href="#CMMI12-3a" transform="translate(45.690477 0) scale(0.996264)"/>
       <use xlink:href="#CMR17-30" transform="translate(72.787654 0) scale(0.996264)"/>
      </g>
     </g>
    </g>
    <g id="ytick_3">
     <g id="line2d_77">
      <path d="M 41.541463 43.441749 
L 305.196463 43.441749 
" clip-path="url(#p7dbaf2d23f)" style="fill: none; stroke-dasharray: 1.85,0.8; stroke-dashoffset: 0; stroke: #000000; stroke-opacity: 0.5; stroke-width: 0.5"/>
     </g>
     <g id="line2d_78">
      <g>
       <use xlink:href="#mee66a838b3" x="41.541463" y="43.441749" style="stroke: #000000; stroke-width: 0.5"/>
      </g>
     </g>
     <g id="line2d_79">
      <g>
       <use xlink:href="#m361d7cb64c" x="305.196463" y="43.441749" style="stroke: #000000; stroke-width: 0.5"/>
      </g>
     </g>
     <g id="text_10">
      <!-- $\mathdefault{0.2}$ -->
      <g transform="translate(25.311384 46.900998) scale(0.1 -0.1)">
       <use xlink:href="#CMR17-30" transform="scale(0.996264)"/>
       <use xlink:href="#CMMI12-3a" transform="translate(45.690477 0) scale(0.996264)"/>
       <use xlink:href="#CMR17-32" transform="translate(72.787654 0) scale(0.996264)"/>
      </g>
     </g>
    </g>
    <g id="ytick_4">
     <g id="line2d_80">
      <path d="M 41.541463 7.059249 
L 305.196463 7.059249 
" clip-path="url(#p7dbaf2d23f)" style="fill: none; stroke-dasharray: 1.85,0.8; stroke-dashoffset: 0; stroke: #000000; stroke-opacity: 0.5; stroke-width: 0.5"/>
     </g>
     <g id="line2d_81">
      <g>
       <use xlink:href="#mee66a838b3" x="41.541463" y="7.059249" style="stroke: #000000; stroke-width: 0.5"/>
      </g>
     </g>
     <g id="line2d_82">
      <g>
       <use xlink:href="#m361d7cb64c" x="305.196463" y="7.059249" style="stroke: #000000; stroke-width: 0.5"/>
      </g>
     </g>
     <g id="text_11">
      <!-- $\mathdefault{0.4}$ -->
      <g transform="translate(25.311384 10.518498) scale(0.1 -0.1)">
       <use xlink:href="#CMR17-30" transform="scale(0.996264)"/>
       <use xlink:href="#CMMI12-3a" transform="translate(45.690477 0) scale(0.996264)"/>
       <use xlink:href="#CMR17-34" transform="translate(72.787654 0) scale(0.996264)"/>
      </g>
     </g>
    </g>
    <g id="ytick_5">
     <g id="line2d_83">
      <defs>
       <path id="mee4e75c4dc" d="M 0 0 
L 1.5 0 
" style="stroke: #000000; stroke-width: 0.5"/>
      </defs>
      <g>
       <use xlink:href="#mee4e75c4dc" x="41.541463" y="107.111124" style="stroke: #000000; stroke-width: 0.5"/>
      </g>
     </g>
     <g id="line2d_84">
      <defs>
       <path id="mde23b0600b" d="M 0 0 
L -1.5 0 
" style="stroke: #000000; stroke-width: 0.5"/>
      </defs>
      <g>
       <use xlink:href="#mde23b0600b" x="305.196463" y="107.111124" style="stroke: #000000; stroke-width: 0.5"/>
      </g>
     </g>
    </g>
    <g id="ytick_6">
     <g id="line2d_85">
      <g>
       <use xlink:href="#mee4e75c4dc" x="41.541463" y="98.015499" style="stroke: #000000; stroke-width: 0.5"/>
      </g>
     </g>
     <g id="line2d_86">
      <g>
       <use xlink:href="#mde23b0600b" x="305.196463" y="98.015499" style="stroke: #000000; stroke-width: 0.5"/>
      </g>
     </g>
    </g>
    <g id="ytick_7">
     <g id="line2d_87">
      <g>
       <use xlink:href="#mee4e75c4dc" x="41.541463" y="88.919874" style="stroke: #000000; stroke-width: 0.5"/>
      </g>
     </g>
     <g id="line2d_88">
      <g>
       <use xlink:href="#mde23b0600b" x="305.196463" y="88.919874" style="stroke: #000000; stroke-width: 0.5"/>
      </g>
     </g>
    </g>
    <g id="ytick_8">
     <g id="line2d_89">
      <g>
       <use xlink:href="#mee4e75c4dc" x="41.541463" y="70.728624" style="stroke: #000000; stroke-width: 0.5"/>
      </g>
     </g>
     <g id="line2d_90">
      <g>
       <use xlink:href="#mde23b0600b" x="305.196463" y="70.728624" style="stroke: #000000; stroke-width: 0.5"/>
      </g>
     </g>
    </g>
    <g id="ytick_9">
     <g id="line2d_91">
      <g>
       <use xlink:href="#mee4e75c4dc" x="41.541463" y="61.632999" style="stroke: #000000; stroke-width: 0.5"/>
      </g>
     </g>
     <g id="line2d_92">
      <g>
       <use xlink:href="#mde23b0600b" x="305.196463" y="61.632999" style="stroke: #000000; stroke-width: 0.5"/>
      </g>
     </g>
    </g>
    <g id="ytick_10">
     <g id="line2d_93">
      <g>
       <use xlink:href="#mee4e75c4dc" x="41.541463" y="52.537374" style="stroke: #000000; stroke-width: 0.5"/>
      </g>
     </g>
     <g id="line2d_94">
      <g>
       <use xlink:href="#mde23b0600b" x="305.196463" y="52.537374" style="stroke: #000000; stroke-width: 0.5"/>
      </g>
     </g>
    </g>
    <g id="ytick_11">
     <g id="line2d_95">
      <g>
       <use xlink:href="#mee4e75c4dc" x="41.541463" y="34.346124" style="stroke: #000000; stroke-width: 0.5"/>
      </g>
     </g>
     <g id="line2d_96">
      <g>
       <use xlink:href="#mde23b0600b" x="305.196463" y="34.346124" style="stroke: #000000; stroke-width: 0.5"/>
      </g>
     </g>
    </g>
    <g id="ytick_12">
     <g id="line2d_97">
      <g>
       <use xlink:href="#mee4e75c4dc" x="41.541463" y="25.250499" style="stroke: #000000; stroke-width: 0.5"/>
      </g>
     </g>
     <g id="line2d_98">
      <g>
       <use xlink:href="#mde23b0600b" x="305.196463" y="25.250499" style="stroke: #000000; stroke-width: 0.5"/>
      </g>
     </g>
    </g>
    <g id="ytick_13">
     <g id="line2d_99">
      <g>
       <use xlink:href="#mee4e75c4dc" x="41.541463" y="16.154874" style="stroke: #000000; stroke-width: 0.5"/>
      </g>
     </g>
     <g id="line2d_100">
      <g>
       <use xlink:href="#mde23b0600b" x="305.196463" y="16.154874" style="stroke: #000000; stroke-width: 0.5"/>
      </g>
     </g>
    </g>
    <g id="text_12">
     <!-- $\varphi_{I}~[\mathrm{\pi}]$ -->
     <g transform="translate(11.07198 74.623203) rotate(-90) scale(0.1 -0.1)">
      <defs>
       <path id="CMMI12-27" d="M 1926 280 
C 1818 280 1722 280 1722 312 
C 1722 325 1830 926 1869 1067 
C 2074 1884 2560 2472 3117 2472 
C 3533 2472 3725 2159 3725 1808 
C 3725 1080 2906 280 1926 280 
z
M 1651 -51 
C 1690 -57 1754 -64 1869 -64 
C 2918 -64 3885 945 3885 1954 
C 3885 2344 3712 2816 3174 2816 
C 2253 2816 1862 1519 1504 318 
C 768 458 461 848 461 1276 
C 461 1449 595 2133 966 2592 
C 1037 2676 1037 2689 1037 2702 
C 1037 2753 986 2753 973 2753 
C 800 2753 314 1820 314 1213 
C 314 497 877 107 1395 -7 
L 1062 -1088 
C 1030 -1184 1030 -1196 1030 -1222 
C 1030 -1376 1184 -1376 1197 -1376 
C 1261 -1376 1376 -1351 1427 -1223 
C 1446 -1166 1626 -178 1651 -51 
z
" transform="scale(0.015625)"/>
       <path id="CMMI12-49" d="M 2355 3880 
C 2413 4103 2426 4167 2893 4167 
C 3034 4167 3085 4167 3085 4288 
C 3085 4352 3014 4352 2995 4352 
C 2880 4352 2739 4352 2624 4352 
L 1837 4352 
C 1709 4352 1562 4352 1434 4352 
C 1382 4352 1312 4352 1312 4231 
C 1312 4167 1363 4167 1491 4167 
C 1888 4167 1888 4116 1888 4046 
C 1888 4002 1875 3963 1862 3906 
L 998 472 
C 941 249 928 185 461 185 
C 320 185 262 185 262 64 
C 262 0 326 0 358 0 
C 474 0 614 0 730 0 
L 1517 0 
C 1645 0 1786 0 1914 0 
C 1965 0 2042 0 2042 115 
C 2042 185 2003 185 1862 185 
C 1466 185 1466 236 1466 312 
C 1466 325 1466 357 1491 459 
L 2355 3880 
z
" transform="scale(0.015625)"/>
       <path id="CMR17-5b" d="M 1504 -1600 
L 1504 -1377 
L 902 -1377 
L 902 4544 
L 1504 4544 
L 1504 4767 
L 678 4767 
L 678 -1600 
L 1504 -1600 
z
" transform="scale(0.015625)"/>
       <path id="CMMI12-19" d="M 1658 2408 
L 2381 2408 
C 2208 1692 2099 1226 2099 716 
C 2099 626 2099 -64 2362 -64 
C 2496 -64 2611 57 2611 166 
C 2611 197 2611 210 2566 306 
C 2394 747 2394 1296 2394 1341 
C 2394 1379 2394 1832 2528 2408 
L 3245 2408 
C 3328 2408 3539 2408 3539 2612 
C 3539 2752 3418 2752 3302 2752 
L 1197 2752 
C 1050 2752 832 2752 538 2440 
C 371 2254 166 1916 166 1878 
C 166 1840 198 1827 237 1827 
C 282 1827 288 1846 320 1884 
C 653 2408 986 2408 1146 2408 
L 1510 2408 
C 1370 1929 1210 1373 685 256 
C 634 154 634 140 634 102 
C 634 -32 749 -64 806 -64 
C 992 -64 1043 102 1120 370 
C 1222 696 1222 709 1286 964 
L 1658 2408 
z
" transform="scale(0.015625)"/>
       <path id="CMR17-5d" d="M 915 4767 
L 90 4767 
L 90 4544 
L 691 4544 
L 691 -1377 
L 90 -1377 
L 90 -1600 
L 915 -1600 
L 915 4767 
z
" transform="scale(0.015625)"/>
      </defs>
      <use xlink:href="#CMMI12-27" transform="scale(0.996264)"/>
      <use xlink:href="#CMMI12-49" transform="translate(63.903064 -14.943915) scale(0.697382)"/>
      <use xlink:href="#CMR17-5b" transform="translate(130.076544 0) scale(0.996264)"/>
      <use xlink:href="#CMMI12-19" transform="translate(154.947602 0) scale(0.996264)"/>
      <use xlink:href="#CMR17-5d" transform="translate(213.858203 0) scale(0.996264)"/>
     </g>
    </g>
   </g>
   <g id="PatchCollection_1">
    <path d="M 60.366606 110.304147 
L 60.381319 110.304147 
L 60.381319 110.182248 
L 60.366606 110.182248 
z
" clip-path="url(#p7dbaf2d23f)" style="fill: #e3e7eb; stroke: #333333; stroke-width: 0.5"/>
    <path d="M 60.35925 110.182248 
L 60.388676 110.182248 
L 60.388676 109.971766 
L 60.35925 109.971766 
z
" clip-path="url(#p7dbaf2d23f)" style="fill: #e0e5ea; stroke: #333333; stroke-width: 0.5"/>
    <path d="M 60.344537 109.971766 
L 60.403389 109.971766 
L 60.403389 109.712601 
L 60.344537 109.712601 
z
" clip-path="url(#p7dbaf2d23f)" style="fill: #dce1e7; stroke: #333333; stroke-width: 0.5"/>
    <path d="M 60.315111 109.712601 
L 60.432814 109.712601 
L 60.432814 109.120741 
L 60.315111 109.120741 
z
" clip-path="url(#p7dbaf2d23f)" style="fill: #d7dee5; stroke: #333333; stroke-width: 0.5"/>
    <path d="M 60.25626 109.120741 
L 60.491666 109.120741 
L 60.491666 108.673954 
L 60.25626 108.673954 
z
" clip-path="url(#p7dbaf2d23f)" style="fill: #d1d9e1; stroke: #333333; stroke-width: 0.5"/>
    <path d="M 60.138557 108.673954 
L 60.609369 108.673954 
L 60.609369 108.001777 
L 60.138557 108.001777 
z
" clip-path="url(#p7dbaf2d23f)" style="fill: #c8d2dd; stroke: #333333; stroke-width: 0.5"/>
    <path d="M 59.90315 108.001777 
L 60.844775 108.001777 
L 60.844775 106.698709 
L 59.90315 106.698709 
z
" clip-path="url(#p7dbaf2d23f)" style="fill: #becbd7; stroke: #333333; stroke-width: 0.5"/>
    <path d="M 59.432338 106.698709 
L 61.315588 106.698709 
L 61.315588 105.600236 
L 59.432338 105.600236 
z
" clip-path="url(#p7dbaf2d23f)" style="fill: #b1c0d0; stroke: #333333; stroke-width: 0.5"/>
    <path d="M 58.490713 105.600236 
L 62.257213 105.600236 
L 62.257213 103.920015 
L 58.490713 103.920015 
z
" clip-path="url(#p7dbaf2d23f)" style="fill: #a0b4c7; stroke: #333333; stroke-width: 0.5"/>
    <path d="M 56.607463 103.920015 
L 64.140463 103.920015 
L 64.140463 102.454644 
L 56.607463 102.454644 
z
" clip-path="url(#p7dbaf2d23f)" style="fill: #8ba4bc; stroke: #333333; stroke-width: 0.5"/>
    <path d="M 52.840963 102.454644 
L 67.906963 102.454644 
L 67.906963 100.803666 
L 52.840963 100.803666 
z
" clip-path="url(#p7dbaf2d23f)" style="fill: #7190af; stroke: #333333; stroke-width: 0.5"/>
    <path d="M 45.307963 100.803666 
L 75.439963 100.803666 
L 75.439963 94.264166 
L 45.307963 94.264166 
z
" clip-path="url(#p7dbaf2d23f)" style="fill: #51779d; stroke: #333333; stroke-width: 0.5"/>
    <path d="M 52.840963 94.264166 
L 67.906963 94.264166 
L 67.906963 88.983537 
L 52.840963 88.983537 
z
" clip-path="url(#p7dbaf2d23f)" style="fill: #7190af; stroke: #333333; stroke-width: 0.5"/>
    <path d="M 56.607463 88.983537 
L 64.140463 88.983537 
L 64.140463 82.570309 
L 56.607463 82.570309 
z
" clip-path="url(#p7dbaf2d23f)" style="fill: #8ba4bc; stroke: #333333; stroke-width: 0.5"/>
    <path d="M 58.490713 82.570309 
L 62.257213 82.570309 
L 62.257213 73.996938 
L 58.490713 73.996938 
z
" clip-path="url(#p7dbaf2d23f)" style="fill: #a0b4c7; stroke: #333333; stroke-width: 0.5"/>
    <path d="M 59.432338 73.996938 
L 61.315588 73.996938 
L 61.315588 64.424834 
L 59.432338 64.424834 
z
" clip-path="url(#p7dbaf2d23f)" style="fill: #b1c0d0; stroke: #333333; stroke-width: 0.5"/>
    <path d="M 59.90315 64.424834 
L 60.844775 64.424834 
L 60.844775 53.588229 
L 59.90315 53.588229 
z
" clip-path="url(#p7dbaf2d23f)" style="fill: #becbd7; stroke: #333333; stroke-width: 0.5"/>
    <path d="M 60.138557 53.588229 
L 60.609369 53.588229 
L 60.609369 41.666614 
L 60.138557 41.666614 
z
" clip-path="url(#p7dbaf2d23f)" style="fill: #c8d2dd; stroke: #333333; stroke-width: 0.5"/>
    <path d="M 60.25626 41.666614 
L 60.491666 41.666614 
L 60.491666 39.940188 
L 60.25626 39.940188 
z
" clip-path="url(#p7dbaf2d23f)" style="fill: #d1d9e1; stroke: #333333; stroke-width: 0.5"/>
    <path d="M 60.315111 39.940188 
L 60.432814 39.940188 
L 60.432814 38.23238 
L 60.315111 38.23238 
z
" clip-path="url(#p7dbaf2d23f)" style="fill: #d7dee5; stroke: #333333; stroke-width: 0.5"/>
    <path d="M 60.344537 38.23238 
L 60.403389 38.23238 
L 60.403389 37.228634 
L 60.344537 37.228634 
z
" clip-path="url(#p7dbaf2d23f)" style="fill: #dce1e7; stroke: #333333; stroke-width: 0.5"/>
    <path d="M 60.35925 37.228634 
L 60.388676 37.228634 
L 60.388676 36.428078 
L 60.35925 36.428078 
z
" clip-path="url(#p7dbaf2d23f)" style="fill: #e0e5ea; stroke: #333333; stroke-width: 0.5"/>
    <path d="M 60.366606 36.428078 
L 60.381319 36.428078 
L 60.381319 35.998179 
L 60.366606 35.998179 
z
" clip-path="url(#p7dbaf2d23f)" style="fill: #e3e7eb; stroke: #333333; stroke-width: 0.5"/>
   </g>
   <g id="PatchCollection_2">
    <path d="M 98.031606 110.805102 
L 98.046319 110.805102 
L 98.046319 110.50116 
L 98.031606 110.50116 
z
" clip-path="url(#p7dbaf2d23f)" style="fill: #e3e7eb; stroke: #333333; stroke-width: 0.5"/>
    <path d="M 98.02425 110.50116 
L 98.053676 110.50116 
L 98.053676 110.384435 
L 98.02425 110.384435 
z
" clip-path="url(#p7dbaf2d23f)" style="fill: #e0e5ea; stroke: #333333; stroke-width: 0.5"/>
    <path d="M 98.009537 110.384435 
L 98.068389 110.384435 
L 98.068389 110.122645 
L 98.009537 110.122645 
z
" clip-path="url(#p7dbaf2d23f)" style="fill: #dce1e7; stroke: #333333; stroke-width: 0.5"/>
    <path d="M 97.980111 110.122645 
L 98.097814 110.122645 
L 98.097814 109.677976 
L 97.980111 109.677976 
z
" clip-path="url(#p7dbaf2d23f)" style="fill: #d7dee5; stroke: #333333; stroke-width: 0.5"/>
    <path d="M 97.92126 109.677976 
L 98.156666 109.677976 
L 98.156666 108.625584 
L 97.92126 108.625584 
z
" clip-path="url(#p7dbaf2d23f)" style="fill: #d1d9e1; stroke: #333333; stroke-width: 0.5"/>
    <path d="M 97.803557 108.625584 
L 98.274369 108.625584 
L 98.274369 107.049609 
L 97.803557 107.049609 
z
" clip-path="url(#p7dbaf2d23f)" style="fill: #c8d2dd; stroke: #333333; stroke-width: 0.5"/>
    <path d="M 97.56815 107.049609 
L 98.509775 107.049609 
L 98.509775 105.940568 
L 97.56815 105.940568 
z
" clip-path="url(#p7dbaf2d23f)" style="fill: #becbd7; stroke: #333333; stroke-width: 0.5"/>
    <path d="M 97.097338 105.940568 
L 98.980588 105.940568 
L 98.980588 103.842827 
L 97.097338 103.842827 
z
" clip-path="url(#p7dbaf2d23f)" style="fill: #b1c0d0; stroke: #333333; stroke-width: 0.5"/>
    <path d="M 96.155713 103.842827 
L 99.922213 103.842827 
L 99.922213 101.822123 
L 96.155713 101.822123 
z
" clip-path="url(#p7dbaf2d23f)" style="fill: #a0b4c7; stroke: #333333; stroke-width: 0.5"/>
    <path d="M 94.272463 101.822123 
L 101.805463 101.822123 
L 101.805463 100.351298 
L 94.272463 100.351298 
z
" clip-path="url(#p7dbaf2d23f)" style="fill: #8ba4bc; stroke: #333333; stroke-width: 0.5"/>
    <path d="M 90.505963 100.351298 
L 105.571963 100.351298 
L 105.571963 98.483577 
L 90.505963 98.483577 
z
" clip-path="url(#p7dbaf2d23f)" style="fill: #7190af; stroke: #333333; stroke-width: 0.5"/>
    <path d="M 82.972963 98.483577 
L 113.104963 98.483577 
L 113.104963 91.623509 
L 82.972963 91.623509 
z
" clip-path="url(#p7dbaf2d23f)" style="fill: #51779d; stroke: #333333; stroke-width: 0.5"/>
    <path d="M 90.505963 91.623509 
L 105.571963 91.623509 
L 105.571963 86.999308 
L 90.505963 86.999308 
z
" clip-path="url(#p7dbaf2d23f)" style="fill: #7190af; stroke: #333333; stroke-width: 0.5"/>
    <path d="M 94.272463 86.999308 
L 101.805463 86.999308 
L 101.805463 79.182923 
L 94.272463 79.182923 
z
" clip-path="url(#p7dbaf2d23f)" style="fill: #8ba4bc; stroke: #333333; stroke-width: 0.5"/>
    <path d="M 96.155713 79.182923 
L 99.922213 79.182923 
L 99.922213 72.863943 
L 96.155713 72.863943 
z
" clip-path="url(#p7dbaf2d23f)" style="fill: #a0b4c7; stroke: #333333; stroke-width: 0.5"/>
    <path d="M 97.097338 72.863943 
L 98.980588 72.863943 
L 98.980588 55.172907 
L 97.097338 55.172907 
z
" clip-path="url(#p7dbaf2d23f)" style="fill: #b1c0d0; stroke: #333333; stroke-width: 0.5"/>
    <path d="M 97.56815 55.172907 
L 98.509775 55.172907 
L 98.509775 27.362729 
L 97.56815 27.362729 
z
" clip-path="url(#p7dbaf2d23f)" style="fill: #becbd7; stroke: #333333; stroke-width: 0.5"/>
    <path d="M 97.803557 27.362729 
L 98.274369 27.362729 
L 98.274369 22.488551 
L 97.803557 22.488551 
z
" clip-path="url(#p7dbaf2d23f)" style="fill: #c8d2dd; stroke: #333333; stroke-width: 0.5"/>
    <path d="M 97.92126 22.488551 
L 98.156666 22.488551 
L 98.156666 19.068245 
L 97.92126 19.068245 
z
" clip-path="url(#p7dbaf2d23f)" style="fill: #d1d9e1; stroke: #333333; stroke-width: 0.5"/>
    <path d="M 97.980111 19.068245 
L 98.097814 19.068245 
L 98.097814 7.720216 
L 97.980111 7.720216 
z
" clip-path="url(#p7dbaf2d23f)" style="fill: #d7dee5; stroke: #333333; stroke-width: 0.5"/>
    <path d="M 98.009537 7.720216 
L 98.068389 7.720216 
L 98.068389 6.195396 
L 98.009537 6.195396 
z
" clip-path="url(#p7dbaf2d23f)" style="fill: #dce1e7; stroke: #333333; stroke-width: 0.5"/>
    <path d="M 98.02425 6.195396 
L 98.053676 6.195396 
L 98.053676 5.20124 
L 98.02425 5.20124 
z
" clip-path="url(#p7dbaf2d23f)" style="fill: #e0e5ea; stroke: #333333; stroke-width: 0.5"/>
    <path d="M 98.031606 5.20124 
L 98.046319 5.20124 
L 98.046319 4.634656 
L 98.031606 4.634656 
z
" clip-path="url(#p7dbaf2d23f)" style="fill: #e3e7eb; stroke: #333333; stroke-width: 0.5"/>
   </g>
   <g id="PatchCollection_3">
    <path d="M 135.696606 114.613205 
L 135.711319 114.613205 
L 135.711319 114.402845 
L 135.696606 114.402845 
z
" clip-path="url(#p7dbaf2d23f)" style="fill: #e3e7eb; stroke: #333333; stroke-width: 0.5"/>
    <path d="M 135.68925 114.402845 
L 135.718676 114.402845 
L 135.718676 114.112532 
L 135.68925 114.112532 
z
" clip-path="url(#p7dbaf2d23f)" style="fill: #e0e5ea; stroke: #333333; stroke-width: 0.5"/>
    <path d="M 135.674537 114.112532 
L 135.733389 114.112532 
L 135.733389 113.717929 
L 135.674537 113.717929 
z
" clip-path="url(#p7dbaf2d23f)" style="fill: #dce1e7; stroke: #333333; stroke-width: 0.5"/>
    <path d="M 135.645111 113.717929 
L 135.762814 113.717929 
L 135.762814 113.074355 
L 135.645111 113.074355 
z
" clip-path="url(#p7dbaf2d23f)" style="fill: #d7dee5; stroke: #333333; stroke-width: 0.5"/>
    <path d="M 135.58626 113.074355 
L 135.821666 113.074355 
L 135.821666 112.330087 
L 135.58626 112.330087 
z
" clip-path="url(#p7dbaf2d23f)" style="fill: #d1d9e1; stroke: #333333; stroke-width: 0.5"/>
    <path d="M 135.468557 112.330087 
L 135.939369 112.330087 
L 135.939369 110.798112 
L 135.468557 110.798112 
z
" clip-path="url(#p7dbaf2d23f)" style="fill: #c8d2dd; stroke: #333333; stroke-width: 0.5"/>
    <path d="M 135.23315 110.798112 
L 136.174775 110.798112 
L 136.174775 108.031839 
L 135.23315 108.031839 
z
" clip-path="url(#p7dbaf2d23f)" style="fill: #becbd7; stroke: #333333; stroke-width: 0.5"/>
    <path d="M 134.762338 108.031839 
L 136.645588 108.031839 
L 136.645588 106.669192 
L 134.762338 106.669192 
z
" clip-path="url(#p7dbaf2d23f)" style="fill: #b1c0d0; stroke: #333333; stroke-width: 0.5"/>
    <path d="M 133.820713 106.669192 
L 137.587213 106.669192 
L 137.587213 104.732277 
L 133.820713 104.732277 
z
" clip-path="url(#p7dbaf2d23f)" style="fill: #a0b4c7; stroke: #333333; stroke-width: 0.5"/>
    <path d="M 131.937463 104.732277 
L 139.470463 104.732277 
L 139.470463 101.933814 
L 131.937463 101.933814 
z
" clip-path="url(#p7dbaf2d23f)" style="fill: #8ba4bc; stroke: #333333; stroke-width: 0.5"/>
    <path d="M 128.170963 101.933814 
L 143.236963 101.933814 
L 143.236963 98.965346 
L 128.170963 98.965346 
z
" clip-path="url(#p7dbaf2d23f)" style="fill: #7190af; stroke: #333333; stroke-width: 0.5"/>
    <path d="M 120.637963 98.965346 
L 150.769963 98.965346 
L 150.769963 86.889636 
L 120.637963 86.889636 
z
" clip-path="url(#p7dbaf2d23f)" style="fill: #51779d; stroke: #333333; stroke-width: 0.5"/>
    <path d="M 128.170963 86.889636 
L 143.236963 86.889636 
L 143.236963 82.358846 
L 128.170963 82.358846 
z
" clip-path="url(#p7dbaf2d23f)" style="fill: #7190af; stroke: #333333; stroke-width: 0.5"/>
    <path d="M 131.937463 82.358846 
L 139.470463 82.358846 
L 139.470463 78.993548 
L 131.937463 78.993548 
z
" clip-path="url(#p7dbaf2d23f)" style="fill: #8ba4bc; stroke: #333333; stroke-width: 0.5"/>
    <path d="M 133.820713 78.993548 
L 137.587213 78.993548 
L 137.587213 75.986074 
L 133.820713 75.986074 
z
" clip-path="url(#p7dbaf2d23f)" style="fill: #a0b4c7; stroke: #333333; stroke-width: 0.5"/>
    <path d="M 134.762338 75.986074 
L 136.645588 75.986074 
L 136.645588 73.643556 
L 134.762338 73.643556 
z
" clip-path="url(#p7dbaf2d23f)" style="fill: #b1c0d0; stroke: #333333; stroke-width: 0.5"/>
    <path d="M 135.23315 73.643556 
L 136.174775 73.643556 
L 136.174775 70.664948 
L 135.23315 70.664948 
z
" clip-path="url(#p7dbaf2d23f)" style="fill: #becbd7; stroke: #333333; stroke-width: 0.5"/>
    <path d="M 135.468557 70.664948 
L 135.939369 70.664948 
L 135.939369 64.623078 
L 135.468557 64.623078 
z
" clip-path="url(#p7dbaf2d23f)" style="fill: #c8d2dd; stroke: #333333; stroke-width: 0.5"/>
    <path d="M 135.58626 64.623078 
L 135.821666 64.623078 
L 135.821666 59.4722 
L 135.58626 59.4722 
z
" clip-path="url(#p7dbaf2d23f)" style="fill: #d1d9e1; stroke: #333333; stroke-width: 0.5"/>
    <path d="M 135.645111 59.4722 
L 135.762814 59.4722 
L 135.762814 51.445255 
L 135.645111 51.445255 
z
" clip-path="url(#p7dbaf2d23f)" style="fill: #d7dee5; stroke: #333333; stroke-width: 0.5"/>
    <path d="M 135.674537 51.445255 
L 135.733389 51.445255 
L 135.733389 48.938859 
L 135.674537 48.938859 
z
" clip-path="url(#p7dbaf2d23f)" style="fill: #dce1e7; stroke: #333333; stroke-width: 0.5"/>
    <path d="M 135.68925 48.938859 
L 135.718676 48.938859 
L 135.718676 47.019387 
L 135.68925 47.019387 
z
" clip-path="url(#p7dbaf2d23f)" style="fill: #e0e5ea; stroke: #333333; stroke-width: 0.5"/>
    <path d="M 135.696606 47.019387 
L 135.711319 47.019387 
L 135.711319 45.764474 
L 135.696606 45.764474 
z
" clip-path="url(#p7dbaf2d23f)" style="fill: #e3e7eb; stroke: #333333; stroke-width: 0.5"/>
   </g>
   <g id="PatchCollection_4">
    <path d="M 173.361606 111.674089 
L 173.376319 111.674089 
L 173.376319 111.464779 
L 173.361606 111.464779 
z
" clip-path="url(#p7dbaf2d23f)" style="fill: #e3e7eb; stroke: #333333; stroke-width: 0.5"/>
    <path d="M 173.35425 111.464779 
L 173.383676 111.464779 
L 173.383676 111.196657 
L 173.35425 111.196657 
z
" clip-path="url(#p7dbaf2d23f)" style="fill: #e0e5ea; stroke: #333333; stroke-width: 0.5"/>
    <path d="M 173.339537 111.196657 
L 173.398389 111.196657 
L 173.398389 110.947628 
L 173.339537 110.947628 
z
" clip-path="url(#p7dbaf2d23f)" style="fill: #dce1e7; stroke: #333333; stroke-width: 0.5"/>
    <path d="M 173.310111 110.947628 
L 173.427814 110.947628 
L 173.427814 110.664564 
L 173.310111 110.664564 
z
" clip-path="url(#p7dbaf2d23f)" style="fill: #d7dee5; stroke: #333333; stroke-width: 0.5"/>
    <path d="M 173.25126 110.664564 
L 173.486666 110.664564 
L 173.486666 110.286113 
L 173.25126 110.286113 
z
" clip-path="url(#p7dbaf2d23f)" style="fill: #d1d9e1; stroke: #333333; stroke-width: 0.5"/>
    <path d="M 173.133557 110.286113 
L 173.604369 110.286113 
L 173.604369 109.824359 
L 173.133557 109.824359 
z
" clip-path="url(#p7dbaf2d23f)" style="fill: #c8d2dd; stroke: #333333; stroke-width: 0.5"/>
    <path d="M 172.89815 109.824359 
L 173.839775 109.824359 
L 173.839775 109.050374 
L 172.89815 109.050374 
z
" clip-path="url(#p7dbaf2d23f)" style="fill: #becbd7; stroke: #333333; stroke-width: 0.5"/>
    <path d="M 172.427338 109.050374 
L 174.310588 109.050374 
L 174.310588 107.219904 
L 172.427338 107.219904 
z
" clip-path="url(#p7dbaf2d23f)" style="fill: #b1c0d0; stroke: #333333; stroke-width: 0.5"/>
    <path d="M 171.485713 107.219904 
L 175.252213 107.219904 
L 175.252213 104.770679 
L 171.485713 104.770679 
z
" clip-path="url(#p7dbaf2d23f)" style="fill: #a0b4c7; stroke: #333333; stroke-width: 0.5"/>
    <path d="M 169.602463 104.770679 
L 177.135463 104.770679 
L 177.135463 102.497847 
L 169.602463 102.497847 
z
" clip-path="url(#p7dbaf2d23f)" style="fill: #8ba4bc; stroke: #333333; stroke-width: 0.5"/>
    <path d="M 165.835963 102.497847 
L 180.901963 102.497847 
L 180.901963 99.876047 
L 165.835963 99.876047 
z
" clip-path="url(#p7dbaf2d23f)" style="fill: #7190af; stroke: #333333; stroke-width: 0.5"/>
    <path d="M 158.302963 99.876047 
L 188.434963 99.876047 
L 188.434963 91.513577 
L 158.302963 91.513577 
z
" clip-path="url(#p7dbaf2d23f)" style="fill: #51779d; stroke: #333333; stroke-width: 0.5"/>
    <path d="M 165.835963 91.513577 
L 180.901963 91.513577 
L 180.901963 86.098827 
L 165.835963 86.098827 
z
" clip-path="url(#p7dbaf2d23f)" style="fill: #7190af; stroke: #333333; stroke-width: 0.5"/>
    <path d="M 169.602463 86.098827 
L 177.135463 86.098827 
L 177.135463 76.521371 
L 169.602463 76.521371 
z
" clip-path="url(#p7dbaf2d23f)" style="fill: #8ba4bc; stroke: #333333; stroke-width: 0.5"/>
    <path d="M 171.485713 76.521371 
L 175.252213 76.521371 
L 175.252213 65.693567 
L 171.485713 65.693567 
z
" clip-path="url(#p7dbaf2d23f)" style="fill: #a0b4c7; stroke: #333333; stroke-width: 0.5"/>
    <path d="M 172.427338 65.693567 
L 174.310588 65.693567 
L 174.310588 55.331115 
L 172.427338 55.331115 
z
" clip-path="url(#p7dbaf2d23f)" style="fill: #b1c0d0; stroke: #333333; stroke-width: 0.5"/>
    <path d="M 172.89815 55.331115 
L 173.839775 55.331115 
L 173.839775 39.440263 
L 172.89815 39.440263 
z
" clip-path="url(#p7dbaf2d23f)" style="fill: #becbd7; stroke: #333333; stroke-width: 0.5"/>
    <path d="M 173.133557 39.440263 
L 173.604369 39.440263 
L 173.604369 32.041155 
L 173.133557 32.041155 
z
" clip-path="url(#p7dbaf2d23f)" style="fill: #c8d2dd; stroke: #333333; stroke-width: 0.5"/>
    <path d="M 173.25126 32.041155 
L 173.486666 32.041155 
L 173.486666 28.277358 
L 173.25126 28.277358 
z
" clip-path="url(#p7dbaf2d23f)" style="fill: #d1d9e1; stroke: #333333; stroke-width: 0.5"/>
    <path d="M 173.310111 28.277358 
L 173.427814 28.277358 
L 173.427814 21.456326 
L 173.310111 21.456326 
z
" clip-path="url(#p7dbaf2d23f)" style="fill: #d7dee5; stroke: #333333; stroke-width: 0.5"/>
    <path d="M 173.339537 21.456326 
L 173.398389 21.456326 
L 173.398389 20.281991 
L 173.339537 20.281991 
z
" clip-path="url(#p7dbaf2d23f)" style="fill: #dce1e7; stroke: #333333; stroke-width: 0.5"/>
    <path d="M 173.35425 20.281991 
L 173.383676 20.281991 
L 173.383676 19.27801 
L 173.35425 19.27801 
z
" clip-path="url(#p7dbaf2d23f)" style="fill: #e0e5ea; stroke: #333333; stroke-width: 0.5"/>
    <path d="M 173.361606 19.27801 
L 173.376319 19.27801 
L 173.376319 18.618752 
L 173.361606 18.618752 
z
" clip-path="url(#p7dbaf2d23f)" style="fill: #e3e7eb; stroke: #333333; stroke-width: 0.5"/>
   </g>
   <g id="PatchCollection_5">
    <path d="M 211.026606 88.884416 
L 211.041319 88.884416 
L 211.041319 88.760047 
L 211.026606 88.760047 
z
" clip-path="url(#p7dbaf2d23f)" style="fill: #e3e7eb; stroke: #333333; stroke-width: 0.5"/>
    <path d="M 211.01925 88.760047 
L 211.048676 88.760047 
L 211.048676 88.656925 
L 211.01925 88.656925 
z
" clip-path="url(#p7dbaf2d23f)" style="fill: #e0e5ea; stroke: #333333; stroke-width: 0.5"/>
    <path d="M 211.004537 88.656925 
L 211.063389 88.656925 
L 211.063389 88.47875 
L 211.004537 88.47875 
z
" clip-path="url(#p7dbaf2d23f)" style="fill: #dce1e7; stroke: #333333; stroke-width: 0.5"/>
    <path d="M 210.975111 88.47875 
L 211.092814 88.47875 
L 211.092814 88.216894 
L 210.975111 88.216894 
z
" clip-path="url(#p7dbaf2d23f)" style="fill: #d7dee5; stroke: #333333; stroke-width: 0.5"/>
    <path d="M 210.91626 88.216894 
L 211.151666 88.216894 
L 211.151666 87.638361 
L 210.91626 87.638361 
z
" clip-path="url(#p7dbaf2d23f)" style="fill: #d1d9e1; stroke: #333333; stroke-width: 0.5"/>
    <path d="M 210.798557 87.638361 
L 211.269369 87.638361 
L 211.269369 86.720395 
L 210.798557 86.720395 
z
" clip-path="url(#p7dbaf2d23f)" style="fill: #c8d2dd; stroke: #333333; stroke-width: 0.5"/>
    <path d="M 210.56315 86.720395 
L 211.504775 86.720395 
L 211.504775 85.596108 
L 210.56315 85.596108 
z
" clip-path="url(#p7dbaf2d23f)" style="fill: #becbd7; stroke: #333333; stroke-width: 0.5"/>
    <path d="M 210.092338 85.596108 
L 211.975588 85.596108 
L 211.975588 84.32403 
L 210.092338 84.32403 
z
" clip-path="url(#p7dbaf2d23f)" style="fill: #b1c0d0; stroke: #333333; stroke-width: 0.5"/>
    <path d="M 209.150713 84.32403 
L 212.917213 84.32403 
L 212.917213 82.78137 
L 209.150713 82.78137 
z
" clip-path="url(#p7dbaf2d23f)" style="fill: #a0b4c7; stroke: #333333; stroke-width: 0.5"/>
    <path d="M 207.267463 82.78137 
L 214.800463 82.78137 
L 214.800463 80.847254 
L 207.267463 80.847254 
z
" clip-path="url(#p7dbaf2d23f)" style="fill: #8ba4bc; stroke: #333333; stroke-width: 0.5"/>
    <path d="M 203.500963 80.847254 
L 218.566963 80.847254 
L 218.566963 78.293219 
L 203.500963 78.293219 
z
" clip-path="url(#p7dbaf2d23f)" style="fill: #7190af; stroke: #333333; stroke-width: 0.5"/>
    <path d="M 195.967963 78.293219 
L 226.099963 78.293219 
L 226.099963 66.332893 
L 195.967963 66.332893 
z
" clip-path="url(#p7dbaf2d23f)" style="fill: #51779d; stroke: #333333; stroke-width: 0.5"/>
    <path d="M 203.500963 66.332893 
L 218.566963 66.332893 
L 218.566963 52.659243 
L 203.500963 52.659243 
z
" clip-path="url(#p7dbaf2d23f)" style="fill: #7190af; stroke: #333333; stroke-width: 0.5"/>
    <path d="M 207.267463 52.659243 
L 214.800463 52.659243 
L 214.800463 42.242156 
L 207.267463 42.242156 
z
" clip-path="url(#p7dbaf2d23f)" style="fill: #8ba4bc; stroke: #333333; stroke-width: 0.5"/>
    <path d="M 209.150713 42.242156 
L 212.917213 42.242156 
L 212.917213 36.471054 
L 209.150713 36.471054 
z
" clip-path="url(#p7dbaf2d23f)" style="fill: #a0b4c7; stroke: #333333; stroke-width: 0.5"/>
    <path d="M 210.092338 36.471054 
L 211.975588 36.471054 
L 211.975588 31.423848 
L 210.092338 31.423848 
z
" clip-path="url(#p7dbaf2d23f)" style="fill: #b1c0d0; stroke: #333333; stroke-width: 0.5"/>
    <path d="M 210.56315 31.423848 
L 211.504775 31.423848 
L 211.504775 28.040864 
L 210.56315 28.040864 
z
" clip-path="url(#p7dbaf2d23f)" style="fill: #becbd7; stroke: #333333; stroke-width: 0.5"/>
    <path d="M 210.798557 28.040864 
L 211.269369 28.040864 
L 211.269369 24.512636 
L 210.798557 24.512636 
z
" clip-path="url(#p7dbaf2d23f)" style="fill: #c8d2dd; stroke: #333333; stroke-width: 0.5"/>
    <path d="M 210.91626 24.512636 
L 211.151666 24.512636 
L 211.151666 23.147597 
L 210.91626 23.147597 
z
" clip-path="url(#p7dbaf2d23f)" style="fill: #d1d9e1; stroke: #333333; stroke-width: 0.5"/>
    <path d="M 210.975111 23.147597 
L 211.092814 23.147597 
L 211.092814 22.470258 
L 210.975111 22.470258 
z
" clip-path="url(#p7dbaf2d23f)" style="fill: #d7dee5; stroke: #333333; stroke-width: 0.5"/>
    <path d="M 211.004537 22.470258 
L 211.063389 22.470258 
L 211.063389 21.828664 
L 211.004537 21.828664 
z
" clip-path="url(#p7dbaf2d23f)" style="fill: #dce1e7; stroke: #333333; stroke-width: 0.5"/>
    <path d="M 211.01925 21.828664 
L 211.048676 21.828664 
L 211.048676 21.385886 
L 211.01925 21.385886 
z
" clip-path="url(#p7dbaf2d23f)" style="fill: #e0e5ea; stroke: #333333; stroke-width: 0.5"/>
    <path d="M 211.026606 21.385886 
L 211.041319 21.385886 
L 211.041319 21.003165 
L 211.026606 21.003165 
z
" clip-path="url(#p7dbaf2d23f)" style="fill: #e3e7eb; stroke: #333333; stroke-width: 0.5"/>
   </g>
   <g id="PatchCollection_6">
    <path d="M 248.691606 95.449725 
L 248.706319 95.449725 
L 248.706319 95.22849 
L 248.691606 95.22849 
z
" clip-path="url(#p7dbaf2d23f)" style="fill: #e3e7eb; stroke: #333333; stroke-width: 0.5"/>
    <path d="M 248.68425 95.22849 
L 248.713676 95.22849 
L 248.713676 94.8617 
L 248.68425 94.8617 
z
" clip-path="url(#p7dbaf2d23f)" style="fill: #e0e5ea; stroke: #333333; stroke-width: 0.5"/>
    <path d="M 248.669537 94.8617 
L 248.728389 94.8617 
L 248.728389 94.282456 
L 248.669537 94.282456 
z
" clip-path="url(#p7dbaf2d23f)" style="fill: #dce1e7; stroke: #333333; stroke-width: 0.5"/>
    <path d="M 248.640111 94.282456 
L 248.757814 94.282456 
L 248.757814 93.562808 
L 248.640111 93.562808 
z
" clip-path="url(#p7dbaf2d23f)" style="fill: #d7dee5; stroke: #333333; stroke-width: 0.5"/>
    <path d="M 248.58126 93.562808 
L 248.816666 93.562808 
L 248.816666 92.059233 
L 248.58126 92.059233 
z
" clip-path="url(#p7dbaf2d23f)" style="fill: #d1d9e1; stroke: #333333; stroke-width: 0.5"/>
    <path d="M 248.463557 92.059233 
L 248.934369 92.059233 
L 248.934369 90.768866 
L 248.463557 90.768866 
z
" clip-path="url(#p7dbaf2d23f)" style="fill: #c8d2dd; stroke: #333333; stroke-width: 0.5"/>
    <path d="M 248.22815 90.768866 
L 249.169775 90.768866 
L 249.169775 89.02625 
L 248.22815 89.02625 
z
" clip-path="url(#p7dbaf2d23f)" style="fill: #becbd7; stroke: #333333; stroke-width: 0.5"/>
    <path d="M 247.757338 89.02625 
L 249.640588 89.02625 
L 249.640588 87.638441 
L 247.757338 87.638441 
z
" clip-path="url(#p7dbaf2d23f)" style="fill: #b1c0d0; stroke: #333333; stroke-width: 0.5"/>
    <path d="M 246.815713 87.638441 
L 250.582213 87.638441 
L 250.582213 86.180432 
L 246.815713 86.180432 
z
" clip-path="url(#p7dbaf2d23f)" style="fill: #a0b4c7; stroke: #333333; stroke-width: 0.5"/>
    <path d="M 244.932463 86.180432 
L 252.465463 86.180432 
L 252.465463 84.692443 
L 244.932463 84.692443 
z
" clip-path="url(#p7dbaf2d23f)" style="fill: #8ba4bc; stroke: #333333; stroke-width: 0.5"/>
    <path d="M 241.165963 84.692443 
L 256.231963 84.692443 
L 256.231963 82.274177 
L 241.165963 82.274177 
z
" clip-path="url(#p7dbaf2d23f)" style="fill: #7190af; stroke: #333333; stroke-width: 0.5"/>
    <path d="M 233.632963 82.274177 
L 263.764963 82.274177 
L 263.764963 76.396262 
L 233.632963 76.396262 
z
" clip-path="url(#p7dbaf2d23f)" style="fill: #51779d; stroke: #333333; stroke-width: 0.5"/>
    <path d="M 241.165963 76.396262 
L 256.231963 76.396262 
L 256.231963 74.270086 
L 241.165963 74.270086 
z
" clip-path="url(#p7dbaf2d23f)" style="fill: #7190af; stroke: #333333; stroke-width: 0.5"/>
    <path d="M 244.932463 74.270086 
L 252.465463 74.270086 
L 252.465463 72.638057 
L 244.932463 72.638057 
z
" clip-path="url(#p7dbaf2d23f)" style="fill: #8ba4bc; stroke: #333333; stroke-width: 0.5"/>
    <path d="M 246.815713 72.638057 
L 250.582213 72.638057 
L 250.582213 71.071218 
L 246.815713 71.071218 
z
" clip-path="url(#p7dbaf2d23f)" style="fill: #a0b4c7; stroke: #333333; stroke-width: 0.5"/>
    <path d="M 247.757338 71.071218 
L 249.640588 71.071218 
L 249.640588 69.353177 
L 247.757338 69.353177 
z
" clip-path="url(#p7dbaf2d23f)" style="fill: #b1c0d0; stroke: #333333; stroke-width: 0.5"/>
    <path d="M 248.22815 69.353177 
L 249.169775 69.353177 
L 249.169775 67.862461 
L 248.22815 67.862461 
z
" clip-path="url(#p7dbaf2d23f)" style="fill: #becbd7; stroke: #333333; stroke-width: 0.5"/>
    <path d="M 248.463557 67.862461 
L 248.934369 67.862461 
L 248.934369 66.540316 
L 248.463557 66.540316 
z
" clip-path="url(#p7dbaf2d23f)" style="fill: #c8d2dd; stroke: #333333; stroke-width: 0.5"/>
    <path d="M 248.58126 66.540316 
L 248.816666 66.540316 
L 248.816666 64.504675 
L 248.58126 64.504675 
z
" clip-path="url(#p7dbaf2d23f)" style="fill: #d1d9e1; stroke: #333333; stroke-width: 0.5"/>
    <path d="M 248.640111 64.504675 
L 248.757814 64.504675 
L 248.757814 60.821659 
L 248.640111 60.821659 
z
" clip-path="url(#p7dbaf2d23f)" style="fill: #d7dee5; stroke: #333333; stroke-width: 0.5"/>
    <path d="M 248.669537 60.821659 
L 248.728389 60.821659 
L 248.728389 59.957823 
L 248.669537 59.957823 
z
" clip-path="url(#p7dbaf2d23f)" style="fill: #dce1e7; stroke: #333333; stroke-width: 0.5"/>
    <path d="M 248.68425 59.957823 
L 248.713676 59.957823 
L 248.713676 59.430292 
L 248.68425 59.430292 
z
" clip-path="url(#p7dbaf2d23f)" style="fill: #e0e5ea; stroke: #333333; stroke-width: 0.5"/>
    <path d="M 248.691606 59.430292 
L 248.706319 59.430292 
L 248.706319 59.006183 
L 248.691606 59.006183 
z
" clip-path="url(#p7dbaf2d23f)" style="fill: #e3e7eb; stroke: #333333; stroke-width: 0.5"/>
   </g>
   <g id="PatchCollection_7">
    <path d="M 286.356606 127.909872 
L 286.371319 127.909872 
L 286.371319 126.663981 
L 286.356606 126.663981 
z
" clip-path="url(#p7dbaf2d23f)" style="fill: #e3e7eb; stroke: #333333; stroke-width: 0.5"/>
    <path d="M 286.34925 126.663981 
L 286.378676 126.663981 
L 286.378676 124.99195 
L 286.34925 124.99195 
z
" clip-path="url(#p7dbaf2d23f)" style="fill: #e0e5ea; stroke: #333333; stroke-width: 0.5"/>
    <path d="M 286.334537 124.99195 
L 286.393389 124.99195 
L 286.393389 122.951415 
L 286.334537 122.951415 
z
" clip-path="url(#p7dbaf2d23f)" style="fill: #dce1e7; stroke: #333333; stroke-width: 0.5"/>
    <path d="M 286.305111 122.951415 
L 286.422814 122.951415 
L 286.422814 118.758856 
L 286.305111 118.758856 
z
" clip-path="url(#p7dbaf2d23f)" style="fill: #d7dee5; stroke: #333333; stroke-width: 0.5"/>
    <path d="M 286.24626 118.758856 
L 286.481666 118.758856 
L 286.481666 111.07442 
L 286.24626 111.07442 
z
" clip-path="url(#p7dbaf2d23f)" style="fill: #d1d9e1; stroke: #333333; stroke-width: 0.5"/>
    <path d="M 286.128557 111.07442 
L 286.599369 111.07442 
L 286.599369 104.045828 
L 286.128557 104.045828 
z
" clip-path="url(#p7dbaf2d23f)" style="fill: #c8d2dd; stroke: #333333; stroke-width: 0.5"/>
    <path d="M 285.89315 104.045828 
L 286.834775 104.045828 
L 286.834775 98.598832 
L 285.89315 98.598832 
z
" clip-path="url(#p7dbaf2d23f)" style="fill: #becbd7; stroke: #333333; stroke-width: 0.5"/>
    <path d="M 285.422338 98.598832 
L 287.305588 98.598832 
L 287.305588 94.575854 
L 285.422338 94.575854 
z
" clip-path="url(#p7dbaf2d23f)" style="fill: #b1c0d0; stroke: #333333; stroke-width: 0.5"/>
    <path d="M 284.480713 94.575854 
L 288.247213 94.575854 
L 288.247213 92.08748 
L 284.480713 92.08748 
z
" clip-path="url(#p7dbaf2d23f)" style="fill: #a0b4c7; stroke: #333333; stroke-width: 0.5"/>
    <path d="M 282.597463 92.08748 
L 290.130463 92.08748 
L 290.130463 89.820443 
L 282.597463 89.820443 
z
" clip-path="url(#p7dbaf2d23f)" style="fill: #8ba4bc; stroke: #333333; stroke-width: 0.5"/>
    <path d="M 278.830963 89.820443 
L 293.896963 89.820443 
L 293.896963 87.464683 
L 278.830963 87.464683 
z
" clip-path="url(#p7dbaf2d23f)" style="fill: #7190af; stroke: #333333; stroke-width: 0.5"/>
    <path d="M 271.297963 87.464683 
L 301.429963 87.464683 
L 301.429963 81.430428 
L 271.297963 81.430428 
z
" clip-path="url(#p7dbaf2d23f)" style="fill: #51779d; stroke: #333333; stroke-width: 0.5"/>
    <path d="M 278.830963 81.430428 
L 293.896963 81.430428 
L 293.896963 78.818267 
L 278.830963 78.818267 
z
" clip-path="url(#p7dbaf2d23f)" style="fill: #7190af; stroke: #333333; stroke-width: 0.5"/>
    <path d="M 282.597463 78.818267 
L 290.130463 78.818267 
L 290.130463 75.7108 
L 282.597463 75.7108 
z
" clip-path="url(#p7dbaf2d23f)" style="fill: #8ba4bc; stroke: #333333; stroke-width: 0.5"/>
    <path d="M 284.480713 75.7108 
L 288.247213 75.7108 
L 288.247213 72.591507 
L 284.480713 72.591507 
z
" clip-path="url(#p7dbaf2d23f)" style="fill: #a0b4c7; stroke: #333333; stroke-width: 0.5"/>
    <path d="M 285.422338 72.591507 
L 287.305588 72.591507 
L 287.305588 69.3746 
L 285.422338 69.3746 
z
" clip-path="url(#p7dbaf2d23f)" style="fill: #b1c0d0; stroke: #333333; stroke-width: 0.5"/>
    <path d="M 285.89315 69.3746 
L 286.834775 69.3746 
L 286.834775 65.461245 
L 285.89315 65.461245 
z
" clip-path="url(#p7dbaf2d23f)" style="fill: #becbd7; stroke: #333333; stroke-width: 0.5"/>
    <path d="M 286.128557 65.461245 
L 286.599369 65.461245 
L 286.599369 55.983671 
L 286.128557 55.983671 
z
" clip-path="url(#p7dbaf2d23f)" style="fill: #c8d2dd; stroke: #333333; stroke-width: 0.5"/>
    <path d="M 286.24626 55.983671 
L 286.481666 55.983671 
L 286.481666 23.554951 
L 286.24626 23.554951 
z
" clip-path="url(#p7dbaf2d23f)" style="fill: #d1d9e1; stroke: #333333; stroke-width: 0.5"/>
    <path d="M 286.305111 23.554951 
L 286.422814 23.554951 
L 286.422814 14.536794 
L 286.305111 14.536794 
z
" clip-path="url(#p7dbaf2d23f)" style="fill: #d7dee5; stroke: #333333; stroke-width: 0.5"/>
    <path d="M 286.334537 14.536794 
L 286.393389 14.536794 
L 286.393389 9.545395 
L 286.334537 9.545395 
z
" clip-path="url(#p7dbaf2d23f)" style="fill: #dce1e7; stroke: #333333; stroke-width: 0.5"/>
    <path d="M 286.34925 9.545395 
L 286.378676 9.545395 
L 286.378676 7.063956 
L 286.34925 7.063956 
z
" clip-path="url(#p7dbaf2d23f)" style="fill: #e0e5ea; stroke: #333333; stroke-width: 0.5"/>
    <path d="M 286.356606 7.063956 
L 286.371319 7.063956 
L 286.371319 5.330987 
L 286.356606 5.330987 
z
" clip-path="url(#p7dbaf2d23f)" style="fill: #e3e7eb; stroke: #333333; stroke-width: 0.5"/>
   </g>
   <g id="line2d_101">
    <path d="M 45.307963 98.033797 
L 75.439963 98.033797 
" clip-path="url(#p7dbaf2d23f)" style="fill: none; stroke: #333333; stroke-width: 0.625"/>
   </g>
   <g id="line2d_102">
    <path d="M 82.972963 95.630365 
L 113.104963 95.630365 
" clip-path="url(#p7dbaf2d23f)" style="fill: none; stroke: #333333; stroke-width: 0.625"/>
   </g>
   <g id="line2d_103">
    <path d="M 120.637963 92.816635 
L 150.769963 92.816635 
" clip-path="url(#p7dbaf2d23f)" style="fill: none; stroke: #333333; stroke-width: 0.625"/>
   </g>
   <g id="line2d_104">
    <path d="M 158.302963 96.39476 
L 188.434963 96.39476 
" clip-path="url(#p7dbaf2d23f)" style="fill: none; stroke: #333333; stroke-width: 0.625"/>
   </g>
   <g id="line2d_105">
    <path d="M 195.967963 73.281681 
L 226.099963 73.281681 
" clip-path="url(#p7dbaf2d23f)" style="fill: none; stroke: #333333; stroke-width: 0.625"/>
   </g>
   <g id="line2d_106">
    <path d="M 233.632963 79.241578 
L 263.764963 79.241578 
" clip-path="url(#p7dbaf2d23f)" style="fill: none; stroke: #333333; stroke-width: 0.625"/>
   </g>
   <g id="line2d_107">
    <path d="M 271.297963 84.337711 
L 301.429963 84.337711 
" clip-path="url(#p7dbaf2d23f)" style="fill: none; stroke: #333333; stroke-width: 0.625"/>
   </g>
   <g id="patch_3">
    <path d="M 41.541463 116.206749 
L 41.541463 7.059249 
" style="fill: none; stroke: #000000; stroke-width: 0.5; stroke-linejoin: miter; stroke-linecap: square"/>
   </g>
   <g id="patch_4">
    <path d="M 305.196463 116.206749 
L 305.196463 7.059249 
" style="fill: none; stroke: #000000; stroke-width: 0.5; stroke-linejoin: miter; stroke-linecap: square"/>
   </g>
   <g id="patch_5">
    <path d="M 41.541463 116.206749 
L 305.196463 116.206749 
" style="fill: none; stroke: #000000; stroke-width: 0.5; stroke-linejoin: miter; stroke-linecap: square"/>
   </g>
   <g id="patch_6">
    <path d="M 41.541463 7.059249 
L 305.196463 7.059249 
" style="fill: none; stroke: #000000; stroke-width: 0.5; stroke-linejoin: miter; stroke-linecap: square"/>
   </g>
  </g>
 </g>
 <defs>
  <clipPath id="p7dbaf2d23f">
   <rect x="41.541463" y="7.059249" width="263.655" height="109.1475"/>
  </clipPath>
 </defs>
</svg>
