<?xml version="1.0" encoding="utf-8" standalone="no"?>
<!DOCTYPE svg PUBLIC "-//W3C//DTD SVG 1.1//EN"
  "http://www.w3.org/Graphics/SVG/1.1/DTD/svg11.dtd">
<svg xmlns:xlink="http://www.w3.org/1999/xlink" width="188.849054pt" height="142.665817pt" viewBox="0 0 188.849054 142.665817" xmlns="http://www.w3.org/2000/svg" version="1.1">
 <metadata>
  <rdf:RDF xmlns:dc="http://purl.org/dc/elements/1.1/" xmlns:cc="http://creativecommons.org/ns#" xmlns:rdf="http://www.w3.org/1999/02/22-rdf-syntax-ns#">
   <cc:Work>
    <dc:type rdf:resource="http://purl.org/dc/dcmitype/StillImage"/>
    <dc:date>2026-04-16T13:00:55.751645</dc:date>
    <dc:format>image/svg+xml</dc:format>
    <dc:creator>
     <cc:Agent>
      <dc:title>Matplotlib v3.7.0, https://matplotlib.org/</dc:title>
     </cc:Agent>
    </dc:creator>
   </cc:Work>
  </rdf:RDF>
 </metadata>
 <defs>
  <style type="text/css">*{stroke-linejoin: round; stroke-linecap: butt}</style>
 </defs>
 <g id="figure_1">
  <g id="patch_1">
   <path d="M 0 142.665817 
L 188.849054 142.665817 
L 188.849054 0 
L 0 0 
L 0 142.665817 
z
" style="fill: none"/>
  </g>
  <g id="axes_1">
   <g id="patch_2">
    <path d="M 29.918347 112.7475 
L 176.393347 112.7475 
L 176.393347 3.6 
L 29.918347 3.6 
L 29.918347 112.7475 
z
" style="fill: none"/>
   </g>
   <g id="matplotlib.axis_1">
    <g id="xtick_1">
     <g id="line2d_1">
      <path d="M 29.918347 112.7475 
L 29.918347 3.6 
" clip-path="url(#pe81f750a51)" style="fill: none; stroke-dasharray: 1.85,0.8; stroke-dashoffset: 0; stroke: #000000; stroke-opacity: 0.5; stroke-width: 0.5"/>
     </g>
     <g id="line2d_2">
      <defs>
       <path id="m36eb389e0d" d="M 0 0 
L 0 -3 
" style="stroke: #000000; stroke-width: 0.5"/>
      </defs>
      <g>
       <use xlink:href="#m36eb389e0d" x="29.918347" y="112.7475" style="stroke: #000000; stroke-width: 0.5"/>
      </g>
     </g>
     <g id="line2d_3">
      <defs>
       <path id="mff084e290e" d="M 0 0 
L 0 3 
" style="stroke: #000000; stroke-width: 0.5"/>
      </defs>
      <g>
       <use xlink:href="#mff084e290e" x="29.918347" y="3.6" style="stroke: #000000; stroke-width: 0.5"/>
      </g>
     </g>
     <g id="text_1">
      <!-- $\mathdefault{−0.50}$ -->
      <g transform="translate(17.188268 123.165998) scale(0.1 -0.1)">
       <defs>
        <path id="CMSY10-0" d="M 4218 1472 
C 4326 1472 4442 1472 4442 1600 
C 4442 1728 4326 1728 4218 1728 
L 755 1728 
C 646 1728 531 1728 531 1600 
C 531 1472 646 1472 755 1472 
L 4218 1472 
z
" transform="scale(0.015625)"/>
        <path id="CMR17-30" d="M 2688 2025 
C 2688 2416 2682 3080 2413 3591 
C 2176 4039 1798 4198 1466 4198 
C 1158 4198 768 4058 525 3597 
C 269 3118 243 2524 243 2025 
C 243 1661 250 1106 448 619 
C 723 -39 1216 -128 1466 -128 
C 1760 -128 2208 -7 2470 600 
C 2662 1042 2688 1559 2688 2025 
z
M 1466 -26 
C 1056 -26 813 325 723 812 
C 653 1188 653 1738 653 2096 
C 653 2588 653 2997 736 3387 
C 858 3929 1216 4096 1466 4096 
C 1728 4096 2067 3923 2189 3400 
C 2272 3036 2278 2607 2278 2096 
C 2278 1680 2278 1169 2202 792 
C 2067 95 1690 -26 1466 -26 
z
" transform="scale(0.015625)"/>
        <path id="CMMI12-3a" d="M 1178 307 
C 1178 492 1024 619 870 619 
C 685 619 557 466 557 313 
C 557 128 710 0 864 0 
C 1050 0 1178 153 1178 307 
z
" transform="scale(0.015625)"/>
        <path id="CMR17-35" d="M 730 3692 
C 794 3666 1056 3584 1325 3584 
C 1920 3584 2246 3911 2432 4100 
C 2432 4157 2432 4192 2394 4192 
C 2387 4192 2374 4192 2323 4163 
C 2099 4058 1837 3973 1517 3973 
C 1325 3973 1037 3999 723 4139 
C 653 4171 640 4171 634 4171 
C 602 4171 595 4164 595 4037 
L 595 2203 
C 595 2089 595 2057 659 2057 
C 691 2057 704 2070 736 2114 
C 941 2401 1222 2522 1542 2522 
C 1766 2522 2246 2382 2246 1289 
C 2246 1085 2246 715 2054 421 
C 1894 159 1645 25 1370 25 
C 947 25 518 320 403 814 
C 429 807 480 795 506 795 
C 589 795 749 840 749 1038 
C 749 1210 627 1280 506 1280 
C 358 1280 262 1190 262 1011 
C 262 454 704 -128 1382 -128 
C 2042 -128 2669 440 2669 1264 
C 2669 2030 2170 2624 1549 2624 
C 1222 2624 947 2503 730 2274 
L 730 3692 
z
" transform="scale(0.015625)"/>
       </defs>
       <use xlink:href="#CMSY10-0" transform="scale(0.996264)"/>
       <use xlink:href="#CMR17-30" transform="translate(77.487468 0) scale(0.996264)"/>
       <use xlink:href="#CMMI12-3a" transform="translate(123.177945 0) scale(0.996264)"/>
       <use xlink:href="#CMR17-35" transform="translate(150.275122 0) scale(0.996264)"/>
       <use xlink:href="#CMR17-30" transform="translate(195.965599 0) scale(0.996264)"/>
      </g>
     </g>
    </g>
    <g id="xtick_2">
     <g id="line2d_4">
      <path d="M 66.537097 112.7475 
L 66.537097 3.6 
" clip-path="url(#pe81f750a51)" style="fill: none; stroke-dasharray: 1.85,0.8; stroke-dashoffset: 0; stroke: #000000; stroke-opacity: 0.5; stroke-width: 0.5"/>
     </g>
     <g id="line2d_5">
      <g>
       <use xlink:href="#m36eb389e0d" x="66.537097" y="112.7475" style="stroke: #000000; stroke-width: 0.5"/>
      </g>
     </g>
     <g id="line2d_6">
      <g>
       <use xlink:href="#mff084e290e" x="66.537097" y="3.6" style="stroke: #000000; stroke-width: 0.5"/>
      </g>
     </g>
     <g id="text_2">
      <!-- $\mathdefault{−0.25}$ -->
      <g transform="translate(53.807018 123.165998) scale(0.1 -0.1)">
       <defs>
        <path id="CMR17-32" d="M 2669 989 
L 2554 989 
C 2490 536 2438 459 2413 420 
C 2381 369 1920 369 1830 369 
L 602 369 
C 832 619 1280 1072 1824 1597 
C 2214 1967 2669 2402 2669 3035 
C 2669 3790 2067 4224 1395 4224 
C 691 4224 262 3604 262 3030 
C 262 2780 448 2748 525 2748 
C 589 2748 781 2787 781 3010 
C 781 3207 614 3264 525 3264 
C 486 3264 448 3258 422 3245 
C 544 3790 915 4058 1306 4058 
C 1862 4058 2227 3617 2227 3035 
C 2227 2479 1901 2000 1536 1584 
L 262 146 
L 262 0 
L 2515 0 
L 2669 989 
z
" transform="scale(0.015625)"/>
       </defs>
       <use xlink:href="#CMSY10-0" transform="scale(0.996264)"/>
       <use xlink:href="#CMR17-30" transform="translate(77.487468 0) scale(0.996264)"/>
       <use xlink:href="#CMMI12-3a" transform="translate(123.177945 0) scale(0.996264)"/>
       <use xlink:href="#CMR17-32" transform="translate(150.275122 0) scale(0.996264)"/>
       <use xlink:href="#CMR17-35" transform="translate(195.965599 0) scale(0.996264)"/>
      </g>
     </g>
    </g>
    <g id="xtick_3">
     <g id="line2d_7">
      <path d="M 103.155847 112.7475 
L 103.155847 3.6 
" clip-path="url(#pe81f750a51)" style="fill: none; stroke-dasharray: 1.85,0.8; stroke-dashoffset: 0; stroke: #000000; stroke-opacity: 0.5; stroke-width: 0.5"/>
     </g>
     <g id="line2d_8">
      <g>
       <use xlink:href="#m36eb389e0d" x="103.155847" y="112.7475" style="stroke: #000000; stroke-width: 0.5"/>
      </g>
     </g>
     <g id="line2d_9">
      <g>
       <use xlink:href="#mff084e290e" x="103.155847" y="3.6" style="stroke: #000000; stroke-width: 0.5"/>
      </g>
     </g>
     <g id="text_3">
      <!-- $\mathdefault{0.00}$ -->
      <g transform="translate(94.30014 123.165998) scale(0.1 -0.1)">
       <use xlink:href="#CMR17-30" transform="scale(0.996264)"/>
       <use xlink:href="#CMMI12-3a" transform="translate(45.690477 0) scale(0.996264)"/>
       <use xlink:href="#CMR17-30" transform="translate(72.787654 0) scale(0.996264)"/>
       <use xlink:href="#CMR17-30" transform="translate(118.478131 0) scale(0.996264)"/>
      </g>
     </g>
    </g>
    <g id="xtick_4">
     <g id="line2d_10">
      <path d="M 139.774597 112.7475 
L 139.774597 3.6 
" clip-path="url(#pe81f750a51)" style="fill: none; stroke-dasharray: 1.85,0.8; stroke-dashoffset: 0; stroke: #000000; stroke-opacity: 0.5; stroke-width: 0.5"/>
     </g>
     <g id="line2d_11">
      <g>
       <use xlink:href="#m36eb389e0d" x="139.774597" y="112.7475" style="stroke: #000000; stroke-width: 0.5"/>
      </g>
     </g>
     <g id="line2d_12">
      <g>
       <use xlink:href="#mff084e290e" x="139.774597" y="3.6" style="stroke: #000000; stroke-width: 0.5"/>
      </g>
     </g>
     <g id="text_4">
      <!-- $\mathdefault{0.25}$ -->
      <g transform="translate(130.91889 123.165998) scale(0.1 -0.1)">
       <use xlink:href="#CMR17-30" transform="scale(0.996264)"/>
       <use xlink:href="#CMMI12-3a" transform="translate(45.690477 0) scale(0.996264)"/>
       <use xlink:href="#CMR17-32" transform="translate(72.787654 0) scale(0.996264)"/>
       <use xlink:href="#CMR17-35" transform="translate(118.478131 0) scale(0.996264)"/>
      </g>
     </g>
    </g>
    <g id="xtick_5">
     <g id="line2d_13">
      <path d="M 176.393347 112.7475 
L 176.393347 3.6 
" clip-path="url(#pe81f750a51)" style="fill: none; stroke-dasharray: 1.85,0.8; stroke-dashoffset: 0; stroke: #000000; stroke-opacity: 0.5; stroke-width: 0.5"/>
     </g>
     <g id="line2d_14">
      <g>
       <use xlink:href="#m36eb389e0d" x="176.393347" y="112.7475" style="stroke: #000000; stroke-width: 0.5"/>
      </g>
     </g>
     <g id="line2d_15">
      <g>
       <use xlink:href="#mff084e290e" x="176.393347" y="3.6" style="stroke: #000000; stroke-width: 0.5"/>
      </g>
     </g>
     <g id="text_5">
      <!-- $\mathdefault{0.50}$ -->
      <g transform="translate(167.53764 123.165998) scale(0.1 -0.1)">
       <use xlink:href="#CMR17-30" transform="scale(0.996264)"/>
       <use xlink:href="#CMMI12-3a" transform="translate(45.690477 0) scale(0.996264)"/>
       <use xlink:href="#CMR17-35" transform="translate(72.787654 0) scale(0.996264)"/>
       <use xlink:href="#CMR17-30" transform="translate(118.478131 0) scale(0.996264)"/>
      </g>
     </g>
    </g>
    <g id="xtick_6">
     <g id="line2d_16">
      <defs>
       <path id="m7751e932c3" d="M 0 0 
L 0 -1.5 
" style="stroke: #000000; stroke-width: 0.5"/>
      </defs>
      <g>
       <use xlink:href="#m7751e932c3" x="37.242097" y="112.7475" style="stroke: #000000; stroke-width: 0.5"/>
      </g>
     </g>
     <g id="line2d_17">
      <defs>
       <path id="mad9a01a1a0" d="M 0 0 
L 0 1.5 
" style="stroke: #000000; stroke-width: 0.5"/>
      </defs>
      <g>
       <use xlink:href="#mad9a01a1a0" x="37.242097" y="3.6" style="stroke: #000000; stroke-width: 0.5"/>
      </g>
     </g>
    </g>
    <g id="xtick_7">
     <g id="line2d_18">
      <g>
       <use xlink:href="#m7751e932c3" x="44.565847" y="112.7475" style="stroke: #000000; stroke-width: 0.5"/>
      </g>
     </g>
     <g id="line2d_19">
      <g>
       <use xlink:href="#mad9a01a1a0" x="44.565847" y="3.6" style="stroke: #000000; stroke-width: 0.5"/>
      </g>
     </g>
    </g>
    <g id="xtick_8">
     <g id="line2d_20">
      <g>
       <use xlink:href="#m7751e932c3" x="51.889597" y="112.7475" style="stroke: #000000; stroke-width: 0.5"/>
      </g>
     </g>
     <g id="line2d_21">
      <g>
       <use xlink:href="#mad9a01a1a0" x="51.889597" y="3.6" style="stroke: #000000; stroke-width: 0.5"/>
      </g>
     </g>
    </g>
    <g id="xtick_9">
     <g id="line2d_22">
      <g>
       <use xlink:href="#m7751e932c3" x="59.213347" y="112.7475" style="stroke: #000000; stroke-width: 0.5"/>
      </g>
     </g>
     <g id="line2d_23">
      <g>
       <use xlink:href="#mad9a01a1a0" x="59.213347" y="3.6" style="stroke: #000000; stroke-width: 0.5"/>
      </g>
     </g>
    </g>
    <g id="xtick_10">
     <g id="line2d_24">
      <g>
       <use xlink:href="#m7751e932c3" x="73.860847" y="112.7475" style="stroke: #000000; stroke-width: 0.5"/>
      </g>
     </g>
     <g id="line2d_25">
      <g>
       <use xlink:href="#mad9a01a1a0" x="73.860847" y="3.6" style="stroke: #000000; stroke-width: 0.5"/>
      </g>
     </g>
    </g>
    <g id="xtick_11">
     <g id="line2d_26">
      <g>
       <use xlink:href="#m7751e932c3" x="81.184597" y="112.7475" style="stroke: #000000; stroke-width: 0.5"/>
      </g>
     </g>
     <g id="line2d_27">
      <g>
       <use xlink:href="#mad9a01a1a0" x="81.184597" y="3.6" style="stroke: #000000; stroke-width: 0.5"/>
      </g>
     </g>
    </g>
    <g id="xtick_12">
     <g id="line2d_28">
      <g>
       <use xlink:href="#m7751e932c3" x="88.508347" y="112.7475" style="stroke: #000000; stroke-width: 0.5"/>
      </g>
     </g>
     <g id="line2d_29">
      <g>
       <use xlink:href="#mad9a01a1a0" x="88.508347" y="3.6" style="stroke: #000000; stroke-width: 0.5"/>
      </g>
     </g>
    </g>
    <g id="xtick_13">
     <g id="line2d_30">
      <g>
       <use xlink:href="#m7751e932c3" x="95.832097" y="112.7475" style="stroke: #000000; stroke-width: 0.5"/>
      </g>
     </g>
     <g id="line2d_31">
      <g>
       <use xlink:href="#mad9a01a1a0" x="95.832097" y="3.6" style="stroke: #000000; stroke-width: 0.5"/>
      </g>
     </g>
    </g>
    <g id="xtick_14">
     <g id="line2d_32">
      <g>
       <use xlink:href="#m7751e932c3" x="110.479597" y="112.7475" style="stroke: #000000; stroke-width: 0.5"/>
      </g>
     </g>
     <g id="line2d_33">
      <g>
       <use xlink:href="#mad9a01a1a0" x="110.479597" y="3.6" style="stroke: #000000; stroke-width: 0.5"/>
      </g>
     </g>
    </g>
    <g id="xtick_15">
     <g id="line2d_34">
      <g>
       <use xlink:href="#m7751e932c3" x="117.803347" y="112.7475" style="stroke: #000000; stroke-width: 0.5"/>
      </g>
     </g>
     <g id="line2d_35">
      <g>
       <use xlink:href="#mad9a01a1a0" x="117.803347" y="3.6" style="stroke: #000000; stroke-width: 0.5"/>
      </g>
     </g>
    </g>
    <g id="xtick_16">
     <g id="line2d_36">
      <g>
       <use xlink:href="#m7751e932c3" x="125.127097" y="112.7475" style="stroke: #000000; stroke-width: 0.5"/>
      </g>
     </g>
     <g id="line2d_37">
      <g>
       <use xlink:href="#mad9a01a1a0" x="125.127097" y="3.6" style="stroke: #000000; stroke-width: 0.5"/>
      </g>
     </g>
    </g>
    <g id="xtick_17">
     <g id="line2d_38">
      <g>
       <use xlink:href="#m7751e932c3" x="132.450847" y="112.7475" style="stroke: #000000; stroke-width: 0.5"/>
      </g>
     </g>
     <g id="line2d_39">
      <g>
       <use xlink:href="#mad9a01a1a0" x="132.450847" y="3.6" style="stroke: #000000; stroke-width: 0.5"/>
      </g>
     </g>
    </g>
    <g id="xtick_18">
     <g id="line2d_40">
      <g>
       <use xlink:href="#m7751e932c3" x="147.098347" y="112.7475" style="stroke: #000000; stroke-width: 0.5"/>
      </g>
     </g>
     <g id="line2d_41">
      <g>
       <use xlink:href="#mad9a01a1a0" x="147.098347" y="3.6" style="stroke: #000000; stroke-width: 0.5"/>
      </g>
     </g>
    </g>
    <g id="xtick_19">
     <g id="line2d_42">
      <g>
       <use xlink:href="#m7751e932c3" x="154.422097" y="112.7475" style="stroke: #000000; stroke-width: 0.5"/>
      </g>
     </g>
     <g id="line2d_43">
      <g>
       <use xlink:href="#mad9a01a1a0" x="154.422097" y="3.6" style="stroke: #000000; stroke-width: 0.5"/>
      </g>
     </g>
    </g>
    <g id="xtick_20">
     <g id="line2d_44">
      <g>
       <use xlink:href="#m7751e932c3" x="161.745847" y="112.7475" style="stroke: #000000; stroke-width: 0.5"/>
      </g>
     </g>
     <g id="line2d_45">
      <g>
       <use xlink:href="#mad9a01a1a0" x="161.745847" y="3.6" style="stroke: #000000; stroke-width: 0.5"/>
      </g>
     </g>
    </g>
    <g id="xtick_21">
     <g id="line2d_46">
      <g>
       <use xlink:href="#m7751e932c3" x="169.069597" y="112.7475" style="stroke: #000000; stroke-width: 0.5"/>
      </g>
     </g>
     <g id="line2d_47">
      <g>
       <use xlink:href="#mad9a01a1a0" x="169.069597" y="3.6" style="stroke: #000000; stroke-width: 0.5"/>
      </g>
     </g>
    </g>
    <g id="text_6">
     <!-- $\varphi_{I}~[\mathrm{\pi}]$ -->
     <g transform="translate(90.165643 136.575157) scale(0.1 -0.1)">
      <defs>
       <path id="CMMI12-27" d="M 1926 280 
C 1818 280 1722 280 1722 312 
C 1722 325 1830 926 1869 1067 
C 2074 1884 2560 2472 3117 2472 
C 3533 2472 3725 2159 3725 1808 
C 3725 1080 2906 280 1926 280 
z
M 1651 -51 
C 1690 -57 1754 -64 1869 -64 
C 2918 -64 3885 945 3885 1954 
C 3885 2344 3712 2816 3174 2816 
C 2253 2816 1862 1519 1504 318 
C 768 458 461 848 461 1276 
C 461 1449 595 2133 966 2592 
C 1037 2676 1037 2689 1037 2702 
C 1037 2753 986 2753 973 2753 
C 800 2753 314 1820 314 1213 
C 314 497 877 107 1395 -7 
L 1062 -1088 
C 1030 -1184 1030 -1196 1030 -1222 
C 1030 -1376 1184 -1376 1197 -1376 
C 1261 -1376 1376 -1351 1427 -1223 
C 1446 -1166 1626 -178 1651 -51 
z
" transform="scale(0.015625)"/>
       <path id="CMMI12-49" d="M 2355 3880 
C 2413 4103 2426 4167 2893 4167 
C 3034 4167 3085 4167 3085 4288 
C 3085 4352 3014 4352 2995 4352 
C 2880 4352 2739 4352 2624 4352 
L 1837 4352 
C 1709 4352 1562 4352 1434 4352 
C 1382 4352 1312 4352 1312 4231 
C 1312 4167 1363 4167 1491 4167 
C 1888 4167 1888 4116 1888 4046 
C 1888 4002 1875 3963 1862 3906 
L 998 472 
C 941 249 928 185 461 185 
C 320 185 262 185 262 64 
C 262 0 326 0 358 0 
C 474 0 614 0 730 0 
L 1517 0 
C 1645 0 1786 0 1914 0 
C 1965 0 2042 0 2042 115 
C 2042 185 2003 185 1862 185 
C 1466 185 1466 236 1466 312 
C 1466 325 1466 357 1491 459 
L 2355 3880 
z
" transform="scale(0.015625)"/>
       <path id="CMR17-5b" d="M 1504 -1600 
L 1504 -1377 
L 902 -1377 
L 902 4544 
L 1504 4544 
L 1504 4767 
L 678 4767 
L 678 -1600 
L 1504 -1600 
z
" transform="scale(0.015625)"/>
       <path id="CMMI12-19" d="M 1658 2408 
L 2381 2408 
C 2208 1692 2099 1226 2099 716 
C 2099 626 2099 -64 2362 -64 
C 2496 -64 2611 57 2611 166 
C 2611 197 2611 210 2566 306 
C 2394 747 2394 1296 2394 1341 
C 2394 1379 2394 1832 2528 2408 
L 3245 2408 
C 3328 2408 3539 2408 3539 2612 
C 3539 2752 3418 2752 3302 2752 
L 1197 2752 
C 1050 2752 832 2752 538 2440 
C 371 2254 166 1916 166 1878 
C 166 1840 198 1827 237 1827 
C 282 1827 288 1846 320 1884 
C 653 2408 986 2408 1146 2408 
L 1510 2408 
C 1370 1929 1210 1373 685 256 
C 634 154 634 140 634 102 
C 634 -32 749 -64 806 -64 
C 992 -64 1043 102 1120 370 
C 1222 696 1222 709 1286 964 
L 1658 2408 
z
" transform="scale(0.015625)"/>
       <path id="CMR17-5d" d="M 915 4767 
L 90 4767 
L 90 4544 
L 691 4544 
L 691 -1377 
L 90 -1377 
L 90 -1600 
L 915 -1600 
L 915 4767 
z
" transform="scale(0.015625)"/>
      </defs>
      <use xlink:href="#CMMI12-27" transform="scale(0.996264)"/>
      <use xlink:href="#CMMI12-49" transform="translate(63.903064 -14.943915) scale(0.697382)"/>
      <use xlink:href="#CMR17-5b" transform="translate(130.076544 0) scale(0.996264)"/>
      <use xlink:href="#CMMI12-19" transform="translate(154.947602 0) scale(0.996264)"/>
      <use xlink:href="#CMR17-5d" transform="translate(213.858203 0) scale(0.996264)"/>
     </g>
    </g>
   </g>
   <g id="matplotlib.axis_2">
    <g id="ytick_1">
     <g id="line2d_48">
      <path d="M 29.918347 112.7475 
L 176.393347 112.7475 
" clip-path="url(#pe81f750a51)" style="fill: none; stroke-dasharray: 1.85,0.8; stroke-dashoffset: 0; stroke: #000000; stroke-opacity: 0.5; stroke-width: 0.5"/>
     </g>
     <g id="line2d_49">
      <defs>
       <path id="m9098b572e1" d="M 0 0 
L 3 0 
" style="stroke: #000000; stroke-width: 0.5"/>
      </defs>
      <g>
       <use xlink:href="#m9098b572e1" x="29.918347" y="112.7475" style="stroke: #000000; stroke-width: 0.5"/>
      </g>
     </g>
     <g id="line2d_50">
      <defs>
       <path id="m23cbdb0f5b" d="M 0 0 
L -3 0 
" style="stroke: #000000; stroke-width: 0.5"/>
      </defs>
      <g>
       <use xlink:href="#m23cbdb0f5b" x="176.393347" y="112.7475" style="stroke: #000000; stroke-width: 0.5"/>
      </g>
     </g>
     <g id="text_7">
      <!-- $\mathdefault{0}$ -->
      <g transform="translate(21.437012 116.206749) scale(0.1 -0.1)">
       <use xlink:href="#CMR17-30" transform="scale(0.996264)"/>
      </g>
     </g>
    </g>
    <g id="ytick_2">
     <g id="line2d_51">
      <path d="M 29.918347 81.275688 
L 176.393347 81.275688 
" clip-path="url(#pe81f750a51)" style="fill: none; stroke-dasharray: 1.85,0.8; stroke-dashoffset: 0; stroke: #000000; stroke-opacity: 0.5; stroke-width: 0.5"/>
     </g>
     <g id="line2d_52">
      <g>
       <use xlink:href="#m9098b572e1" x="29.918347" y="81.275688" style="stroke: #000000; stroke-width: 0.5"/>
      </g>
     </g>
     <g id="line2d_53">
      <g>
       <use xlink:href="#m23cbdb0f5b" x="176.393347" y="81.275688" style="stroke: #000000; stroke-width: 0.5"/>
      </g>
     </g>
     <g id="text_8">
      <!-- $\mathdefault{5}$ -->
      <g transform="translate(21.437012 84.734937) scale(0.1 -0.1)">
       <use xlink:href="#CMR17-35" transform="scale(0.996264)"/>
      </g>
     </g>
    </g>
    <g id="ytick_3">
     <g id="line2d_54">
      <path d="M 29.918347 49.803876 
L 176.393347 49.803876 
" clip-path="url(#pe81f750a51)" style="fill: none; stroke-dasharray: 1.85,0.8; stroke-dashoffset: 0; stroke: #000000; stroke-opacity: 0.5; stroke-width: 0.5"/>
     </g>
     <g id="line2d_55">
      <g>
       <use xlink:href="#m9098b572e1" x="29.918347" y="49.803876" style="stroke: #000000; stroke-width: 0.5"/>
      </g>
     </g>
     <g id="line2d_56">
      <g>
       <use xlink:href="#m23cbdb0f5b" x="176.393347" y="49.803876" style="stroke: #000000; stroke-width: 0.5"/>
      </g>
     </g>
     <g id="text_9">
      <!-- $\mathdefault{10}$ -->
      <g transform="translate(16.455677 53.263125) scale(0.1 -0.1)">
       <defs>
        <path id="CMR17-31" d="M 1702 4058 
C 1702 4192 1696 4192 1606 4192 
C 1357 3916 979 3827 621 3827 
C 602 3827 570 3827 563 3808 
C 557 3795 557 3782 557 3648 
C 755 3648 1088 3686 1344 3839 
L 1344 461 
C 1344 236 1331 160 781 160 
L 589 160 
L 589 0 
C 896 0 1216 0 1523 0 
C 1830 0 2150 0 2458 0 
L 2458 160 
L 2266 160 
C 1715 160 1702 230 1702 458 
L 1702 4058 
z
" transform="scale(0.015625)"/>
       </defs>
       <use xlink:href="#CMR17-31" transform="scale(0.996264)"/>
       <use xlink:href="#CMR17-30" transform="translate(45.690477 0) scale(0.996264)"/>
      </g>
     </g>
    </g>
    <g id="ytick_4">
     <g id="line2d_57">
      <path d="M 29.918347 18.332064 
L 176.393347 18.332064 
" clip-path="url(#pe81f750a51)" style="fill: none; stroke-dasharray: 1.85,0.8; stroke-dashoffset: 0; stroke: #000000; stroke-opacity: 0.5; stroke-width: 0.5"/>
     </g>
     <g id="line2d_58">
      <g>
       <use xlink:href="#m9098b572e1" x="29.918347" y="18.332064" style="stroke: #000000; stroke-width: 0.5"/>
      </g>
     </g>
     <g id="line2d_59">
      <g>
       <use xlink:href="#m23cbdb0f5b" x="176.393347" y="18.332064" style="stroke: #000000; stroke-width: 0.5"/>
      </g>
     </g>
     <g id="text_10">
      <!-- $\mathdefault{15}$ -->
      <g transform="translate(16.455677 21.791313) scale(0.1 -0.1)">
       <use xlink:href="#CMR17-31" transform="scale(0.996264)"/>
       <use xlink:href="#CMR17-35" transform="translate(45.690477 0) scale(0.996264)"/>
      </g>
     </g>
    </g>
    <g id="ytick_5">
     <g id="line2d_60">
      <defs>
       <path id="mf20422e273" d="M 0 0 
L 1.5 0 
" style="stroke: #000000; stroke-width: 0.5"/>
      </defs>
      <g>
       <use xlink:href="#mf20422e273" x="29.918347" y="106.453138" style="stroke: #000000; stroke-width: 0.5"/>
      </g>
     </g>
     <g id="line2d_61">
      <defs>
       <path id="m2e3cbf61d7" d="M 0 0 
L -1.5 0 
" style="stroke: #000000; stroke-width: 0.5"/>
      </defs>
      <g>
       <use xlink:href="#m2e3cbf61d7" x="176.393347" y="106.453138" style="stroke: #000000; stroke-width: 0.5"/>
      </g>
     </g>
    </g>
    <g id="ytick_6">
     <g id="line2d_62">
      <g>
       <use xlink:href="#mf20422e273" x="29.918347" y="100.158775" style="stroke: #000000; stroke-width: 0.5"/>
      </g>
     </g>
     <g id="line2d_63">
      <g>
       <use xlink:href="#m2e3cbf61d7" x="176.393347" y="100.158775" style="stroke: #000000; stroke-width: 0.5"/>
      </g>
     </g>
    </g>
    <g id="ytick_7">
     <g id="line2d_64">
      <g>
       <use xlink:href="#mf20422e273" x="29.918347" y="93.864413" style="stroke: #000000; stroke-width: 0.5"/>
      </g>
     </g>
     <g id="line2d_65">
      <g>
       <use xlink:href="#m2e3cbf61d7" x="176.393347" y="93.864413" style="stroke: #000000; stroke-width: 0.5"/>
      </g>
     </g>
    </g>
    <g id="ytick_8">
     <g id="line2d_66">
      <g>
       <use xlink:href="#mf20422e273" x="29.918347" y="87.57005" style="stroke: #000000; stroke-width: 0.5"/>
      </g>
     </g>
     <g id="line2d_67">
      <g>
       <use xlink:href="#m2e3cbf61d7" x="176.393347" y="87.57005" style="stroke: #000000; stroke-width: 0.5"/>
      </g>
     </g>
    </g>
    <g id="ytick_9">
     <g id="line2d_68">
      <g>
       <use xlink:href="#mf20422e273" x="29.918347" y="74.981325" style="stroke: #000000; stroke-width: 0.5"/>
      </g>
     </g>
     <g id="line2d_69">
      <g>
       <use xlink:href="#m2e3cbf61d7" x="176.393347" y="74.981325" style="stroke: #000000; stroke-width: 0.5"/>
      </g>
     </g>
    </g>
    <g id="ytick_10">
     <g id="line2d_70">
      <g>
       <use xlink:href="#mf20422e273" x="29.918347" y="68.686963" style="stroke: #000000; stroke-width: 0.5"/>
      </g>
     </g>
     <g id="line2d_71">
      <g>
       <use xlink:href="#m2e3cbf61d7" x="176.393347" y="68.686963" style="stroke: #000000; stroke-width: 0.5"/>
      </g>
     </g>
    </g>
    <g id="ytick_11">
     <g id="line2d_72">
      <g>
       <use xlink:href="#mf20422e273" x="29.918347" y="62.392601" style="stroke: #000000; stroke-width: 0.5"/>
      </g>
     </g>
     <g id="line2d_73">
      <g>
       <use xlink:href="#m2e3cbf61d7" x="176.393347" y="62.392601" style="stroke: #000000; stroke-width: 0.5"/>
      </g>
     </g>
    </g>
    <g id="ytick_12">
     <g id="line2d_74">
      <g>
       <use xlink:href="#mf20422e273" x="29.918347" y="56.098238" style="stroke: #000000; stroke-width: 0.5"/>
      </g>
     </g>
     <g id="line2d_75">
      <g>
       <use xlink:href="#m2e3cbf61d7" x="176.393347" y="56.098238" style="stroke: #000000; stroke-width: 0.5"/>
      </g>
     </g>
    </g>
    <g id="ytick_13">
     <g id="line2d_76">
      <g>
       <use xlink:href="#mf20422e273" x="29.918347" y="43.509513" style="stroke: #000000; stroke-width: 0.5"/>
      </g>
     </g>
     <g id="line2d_77">
      <g>
       <use xlink:href="#m2e3cbf61d7" x="176.393347" y="43.509513" style="stroke: #000000; stroke-width: 0.5"/>
      </g>
     </g>
    </g>
    <g id="ytick_14">
     <g id="line2d_78">
      <g>
       <use xlink:href="#mf20422e273" x="29.918347" y="37.215151" style="stroke: #000000; stroke-width: 0.5"/>
      </g>
     </g>
     <g id="line2d_79">
      <g>
       <use xlink:href="#m2e3cbf61d7" x="176.393347" y="37.215151" style="stroke: #000000; stroke-width: 0.5"/>
      </g>
     </g>
    </g>
    <g id="ytick_15">
     <g id="line2d_80">
      <g>
       <use xlink:href="#mf20422e273" x="29.918347" y="30.920789" style="stroke: #000000; stroke-width: 0.5"/>
      </g>
     </g>
     <g id="line2d_81">
      <g>
       <use xlink:href="#m2e3cbf61d7" x="176.393347" y="30.920789" style="stroke: #000000; stroke-width: 0.5"/>
      </g>
     </g>
    </g>
    <g id="ytick_16">
     <g id="line2d_82">
      <g>
       <use xlink:href="#mf20422e273" x="29.918347" y="24.626426" style="stroke: #000000; stroke-width: 0.5"/>
      </g>
     </g>
     <g id="line2d_83">
      <g>
       <use xlink:href="#m2e3cbf61d7" x="176.393347" y="24.626426" style="stroke: #000000; stroke-width: 0.5"/>
      </g>
     </g>
    </g>
    <g id="ytick_17">
     <g id="line2d_84">
      <g>
       <use xlink:href="#mf20422e273" x="29.918347" y="12.037701" style="stroke: #000000; stroke-width: 0.5"/>
      </g>
     </g>
     <g id="line2d_85">
      <g>
       <use xlink:href="#m2e3cbf61d7" x="176.393347" y="12.037701" style="stroke: #000000; stroke-width: 0.5"/>
      </g>
     </g>
    </g>
    <g id="ytick_18">
     <g id="line2d_86">
      <g>
       <use xlink:href="#mf20422e273" x="29.918347" y="5.743339" style="stroke: #000000; stroke-width: 0.5"/>
      </g>
     </g>
     <g id="line2d_87">
      <g>
       <use xlink:href="#m2e3cbf61d7" x="176.393347" y="5.743339" style="stroke: #000000; stroke-width: 0.5"/>
      </g>
     </g>
    </g>
    <g id="text_11">
     <!-- Density -->
     <g transform="translate(10.518498 74.73667) rotate(-90) scale(0.1 -0.1)">
      <defs>
       <path id="CMR17-44" d="M 333 4352 
L 333 4186 
C 774 4186 845 4186 845 3900 
L 845 452 
C 845 166 774 166 333 166 
L 333 0 
L 2368 0 
C 3398 0 4224 943 4224 2141 
C 4224 3346 3411 4352 2368 4352 
L 333 4352 
z
M 1523 166 
C 1267 166 1254 197 1254 414 
L 1254 3938 
C 1254 4155 1267 4186 1523 4186 
L 2240 4186 
C 2771 4186 3750 3874 3750 2141 
C 3750 1242 3488 879 3366 707 
C 3213 510 2848 166 2240 166 
L 1523 166 
z
" transform="scale(0.015625)"/>
       <path id="CMR17-65" d="M 2438 1472 
C 2464 1498 2464 1511 2464 1576 
C 2464 2238 2118 2816 1389 2816 
C 710 2816 173 2169 173 1383 
C 173 551 781 -64 1459 -64 
C 2176 -64 2458 607 2458 740 
C 2458 784 2419 784 2406 784 
C 2362 784 2355 771 2330 696 
C 2189 265 1837 51 1504 51 
C 1229 51 954 203 781 480 
C 582 803 582 1176 582 1472 
L 2438 1472 
z
M 589 1568 
C 634 2505 1126 2714 1382 2714 
C 1818 2714 2112 2297 2118 1568 
L 589 1568 
z
" transform="scale(0.015625)"/>
       <path id="CMR17-6e" d="M 2656 1933 
C 2656 2259 2592 2790 1837 2790 
C 1331 2790 1069 2400 973 2144 
L 966 2144 
L 966 2790 
L 211 2720 
L 211 2554 
C 589 2554 646 2515 646 2208 
L 646 428 
C 646 184 621 153 211 153 
L 211 -13 
C 365 0 646 0 813 0 
C 979 0 1267 0 1421 -13 
L 1421 153 
C 1011 153 986 178 986 428 
L 986 1658 
C 986 2247 1344 2688 1792 2688 
C 2266 2688 2317 2266 2317 1958 
L 2317 428 
C 2317 184 2291 153 1882 153 
L 1882 -13 
C 2035 0 2317 0 2483 0 
C 2650 0 2938 0 3091 -13 
L 3091 153 
C 2682 153 2656 178 2656 428 
L 2656 1933 
z
" transform="scale(0.015625)"/>
       <path id="CMR17-73" d="M 1978 2697 
C 1978 2813 1971 2819 1933 2819 
C 1907 2819 1901 2813 1824 2717 
C 1805 2691 1747 2626 1728 2601 
C 1523 2819 1235 2819 1126 2819 
C 416 2819 160 2447 160 2076 
C 160 1498 813 1365 998 1325 
C 1402 1243 1542 1217 1677 1101 
C 1760 1025 1901 884 1901 654 
C 1901 384 1747 38 1158 38 
C 602 38 403 460 288 1021 
C 269 1110 269 1117 218 1117 
C 166 1117 160 1110 160 983 
L 160 63 
C 160 -51 166 -58 205 -58 
C 237 -58 243 -51 275 0 
C 314 57 410 211 448 276 
C 576 103 800 -64 1158 -64 
C 1792 -64 2131 283 2131 784 
C 2131 1112 1958 1285 1875 1362 
C 1683 1561 1459 1606 1190 1657 
C 838 1735 390 1825 390 2217 
C 390 2383 480 2737 1126 2737 
C 1811 2737 1850 2094 1862 1888 
C 1869 1856 1901 1849 1920 1849 
C 1978 1849 1978 1869 1978 1978 
L 1978 2697 
z
" transform="scale(0.015625)"/>
       <path id="CMR17-69" d="M 992 3909 
C 992 4049 877 4170 730 4170 
C 589 4170 467 4056 467 3909 
C 467 3769 582 3648 730 3648 
C 870 3648 992 3763 992 3909 
z
M 243 2706 
L 243 2541 
C 602 2541 653 2502 653 2197 
L 653 427 
C 653 184 627 153 218 153 
L 218 -13 
C 371 0 646 0 806 0 
C 960 0 1222 0 1370 -13 
L 1370 153 
C 992 153 979 191 979 420 
L 979 2776 
L 243 2706 
z
" transform="scale(0.015625)"/>
       <path id="CMR17-74" d="M 966 2560 
L 1862 2560 
L 1862 2725 
L 966 2725 
L 966 3904 
L 851 3904 
C 838 3245 614 2668 70 2668 
L 70 2560 
L 627 2560 
L 627 771 
C 627 650 627 -64 1370 -64 
C 1747 -64 1965 306 1965 777 
L 1965 1140 
L 1850 1140 
L 1850 783 
C 1850 344 1677 51 1408 51 
C 1222 51 966 178 966 758 
L 966 2560 
z
" transform="scale(0.015625)"/>
       <path id="CMR17-79" d="M 2496 2197 
C 2656 2586 2944 2586 3034 2586 
L 3034 2752 
C 2912 2752 2752 2752 2630 2752 
C 2496 2752 2285 2752 2157 2758 
L 2157 2592 
C 2400 2573 2406 2394 2406 2343 
C 2406 2280 2394 2248 2362 2171 
L 1664 449 
L 902 2306 
C 870 2382 870 2426 870 2433 
C 870 2573 1018 2586 1171 2586 
L 1171 2758 
C 1018 2752 742 2752 582 2752 
C 410 2752 205 2752 64 2758 
L 64 2586 
C 410 2586 448 2554 531 2350 
L 1485 15 
C 1197 -738 1030 -1178 627 -1178 
C 557 -1178 397 -1159 282 -1044 
C 429 -1031 493 -942 493 -833 
C 493 -725 416 -629 288 -629 
C 147 -629 77 -725 77 -840 
C 77 -1095 339 -1280 627 -1280 
C 998 -1280 1229 -922 1357 -604 
L 2496 2197 
z
" transform="scale(0.015625)"/>
      </defs>
      <use xlink:href="#CMR17-44" transform="scale(0.996264)"/>
      <use xlink:href="#CMR17-65" transform="translate(70.393556 0) scale(0.996264)"/>
      <use xlink:href="#CMR17-6e" transform="translate(110.879216 0) scale(0.996264)"/>
      <use xlink:href="#CMR17-73" transform="translate(161.774586 0) scale(0.996264)"/>
      <use xlink:href="#CMR17-69" transform="translate(197.575924 0) scale(0.996264)"/>
      <use xlink:href="#CMR17-74" transform="translate(222.446982 0) scale(0.996264)"/>
      <use xlink:href="#CMR17-79" transform="translate(255.125296 0) scale(0.996264)"/>
     </g>
    </g>
   </g>
   <g id="PolyCollection_1">
    <defs>
     <path id="m93ef97d1bc" d="M 76.087102 -29.919333 
L 76.087102 -29.918317 
L 76.420311 -29.918317 
L 76.753521 -29.918317 
L 77.08673 -29.918317 
L 77.41994 -29.918317 
L 77.75315 -29.918317 
L 78.086359 -29.918317 
L 78.419569 -29.918317 
L 78.752778 -29.918317 
L 79.085988 -29.918317 
L 79.419197 -29.918317 
L 79.752407 -29.918317 
L 80.085617 -29.918317 
L 80.418826 -29.918317 
L 80.752036 -29.918317 
L 81.085245 -29.918317 
L 81.418455 -29.918317 
L 81.751664 -29.918317 
L 82.084874 -29.918317 
L 82.418084 -29.918317 
L 82.751293 -29.918317 
L 83.084503 -29.918317 
L 83.417712 -29.918317 
L 83.750922 -29.918317 
L 84.084131 -29.918317 
L 84.417341 -29.918317 
L 84.750551 -29.918317 
L 85.08376 -29.918317 
L 85.41697 -29.918317 
L 85.750179 -29.918317 
L 86.083389 -29.918317 
L 86.416598 -29.918317 
L 86.749808 -29.918317 
L 87.083017 -29.918317 
L 87.416227 -29.918317 
L 87.749437 -29.918317 
L 88.082646 -29.918317 
L 88.415856 -29.918317 
L 88.749065 -29.918317 
L 89.082275 -29.918317 
L 89.415484 -29.918317 
L 89.748694 -29.918317 
L 90.081904 -29.918317 
L 90.415113 -29.918317 
L 90.748323 -29.918317 
L 91.081532 -29.918317 
L 91.414742 -29.918317 
L 91.747951 -29.918317 
L 92.081161 -29.918317 
L 92.414371 -29.918317 
L 92.74758 -29.918317 
L 93.08079 -29.918317 
L 93.413999 -29.918317 
L 93.747209 -29.918317 
L 94.080418 -29.918317 
L 94.413628 -29.918317 
L 94.746838 -29.918317 
L 95.080047 -29.918317 
L 95.413257 -29.918317 
L 95.746466 -29.918317 
L 96.079676 -29.918317 
L 96.412885 -29.918317 
L 96.746095 -29.918317 
L 97.079305 -29.918317 
L 97.412514 -29.918317 
L 97.745724 -29.918317 
L 98.078933 -29.918317 
L 98.412143 -29.918317 
L 98.745352 -29.918317 
L 99.078562 -29.918317 
L 99.411772 -29.918317 
L 99.744981 -29.918317 
L 100.078191 -29.918317 
L 100.4114 -29.918317 
L 100.74461 -29.918317 
L 101.077819 -29.918317 
L 101.411029 -29.918317 
L 101.744238 -29.918317 
L 102.077448 -29.918317 
L 102.410658 -29.918317 
L 102.743867 -29.918317 
L 103.077077 -29.918317 
L 103.410286 -29.918317 
L 103.743496 -29.918317 
L 104.076705 -29.918317 
L 104.409915 -29.918317 
L 104.743125 -29.918317 
L 105.076334 -29.918317 
L 105.409544 -29.918317 
L 105.742753 -29.918317 
L 106.075963 -29.918317 
L 106.409172 -29.918317 
L 106.742382 -29.918317 
L 107.075592 -29.918317 
L 107.408801 -29.918317 
L 107.742011 -29.918317 
L 108.07522 -29.918317 
L 108.40843 -29.918317 
L 108.741639 -29.918317 
L 109.074849 -29.918317 
L 109.408059 -29.918317 
L 109.741268 -29.918317 
L 110.074478 -29.918317 
L 110.407687 -29.918317 
L 110.740897 -29.918317 
L 111.074106 -29.918317 
L 111.407316 -29.918317 
L 111.740526 -29.918317 
L 112.073735 -29.918317 
L 112.406945 -29.918317 
L 112.740154 -29.918317 
L 113.073364 -29.918317 
L 113.406573 -29.918317 
L 113.739783 -29.918317 
L 114.072993 -29.918317 
L 114.406202 -29.918317 
L 114.739412 -29.918317 
L 115.072621 -29.918317 
L 115.405831 -29.918317 
L 115.73904 -29.918317 
L 116.07225 -29.918317 
L 116.405459 -29.918317 
L 116.738669 -29.918317 
L 117.071879 -29.918317 
L 117.405088 -29.918317 
L 117.738298 -29.918317 
L 118.071507 -29.918317 
L 118.404717 -29.918317 
L 118.737926 -29.918317 
L 119.071136 -29.918317 
L 119.404346 -29.918317 
L 119.737555 -29.918317 
L 120.070765 -29.918317 
L 120.403974 -29.918317 
L 120.737184 -29.918317 
L 121.070393 -29.918317 
L 121.403603 -29.918317 
L 121.736813 -29.918317 
L 122.070022 -29.918317 
L 122.403232 -29.918317 
L 122.736441 -29.918317 
L 123.069651 -29.918317 
L 123.40286 -29.918317 
L 123.73607 -29.918317 
L 124.06928 -29.918317 
L 124.402489 -29.918317 
L 124.735699 -29.918317 
L 125.068908 -29.918317 
L 125.402118 -29.918317 
L 125.735327 -29.918317 
L 126.068537 -29.918317 
L 126.401747 -29.918317 
L 126.734956 -29.918317 
L 127.068166 -29.918317 
L 127.401375 -29.918317 
L 127.734585 -29.918317 
L 128.067794 -29.918317 
L 128.401004 -29.918317 
L 128.734214 -29.918317 
L 129.067423 -29.918317 
L 129.400633 -29.918317 
L 129.733842 -29.918317 
L 130.067052 -29.918317 
L 130.400261 -29.918317 
L 130.733471 -29.918317 
L 131.06668 -29.918317 
L 131.39989 -29.918317 
L 131.7331 -29.918317 
L 132.066309 -29.918317 
L 132.399519 -29.918317 
L 132.732728 -29.918317 
L 133.065938 -29.918317 
L 133.399147 -29.918317 
L 133.732357 -29.918317 
L 134.065567 -29.918317 
L 134.398776 -29.918317 
L 134.731986 -29.918317 
L 135.065195 -29.918317 
L 135.398405 -29.918317 
L 135.731614 -29.918317 
L 136.064824 -29.918317 
L 136.398034 -29.918317 
L 136.731243 -29.918317 
L 137.064453 -29.918317 
L 137.397662 -29.918317 
L 137.730872 -29.918317 
L 138.064081 -29.918317 
L 138.397291 -29.918317 
L 138.730501 -29.918317 
L 139.06371 -29.918317 
L 139.39692 -29.918317 
L 139.730129 -29.918317 
L 140.063339 -29.918317 
L 140.396548 -29.918317 
L 140.729758 -29.918317 
L 141.062968 -29.918317 
L 141.396177 -29.918317 
L 141.729387 -29.918317 
L 142.062596 -29.918317 
L 142.395806 -29.918317 
L 142.395806 -29.918405 
L 142.395806 -29.918405 
L 142.062596 -29.918611 
L 141.729387 -29.919146 
L 141.396177 -29.920319 
L 141.062968 -29.922546 
L 140.729758 -29.926431 
L 140.396548 -29.933156 
L 140.063339 -29.94516 
L 139.730129 -29.96652 
L 139.39692 -30.002095 
L 139.06371 -30.055341 
L 138.730501 -30.125996 
L 138.397291 -30.209119 
L 138.064081 -30.295827 
L 137.730872 -30.375076 
L 137.397662 -30.436437 
L 137.064453 -30.474427 
L 136.731243 -30.493276 
L 136.398034 -30.508447 
L 136.064824 -30.541572 
L 135.731614 -30.609553 
L 135.398405 -30.71324 
L 135.065195 -30.832694 
L 134.731986 -30.933059 
L 134.398776 -30.978998 
L 134.065567 -30.950244 
L 133.732357 -30.84981 
L 133.399147 -30.700564 
L 133.065938 -30.533082 
L 132.732728 -30.373199 
L 132.399519 -30.236381 
L 132.066309 -30.128915 
L 131.7331 -30.051029 
L 131.39989 -29.999002 
L 131.06668 -29.967175 
L 130.733471 -29.950737 
L 130.400261 -29.948049 
L 130.067052 -29.961037 
L 129.733842 -29.993642 
L 129.400633 -30.049259 
L 129.067423 -30.128166 
L 128.734214 -30.225729 
L 128.401004 -30.331668 
L 128.067794 -30.430577 
L 127.734585 -30.504651 
L 127.401375 -30.539655 
L 127.068166 -30.53242 
L 126.734956 -30.494664 
L 126.401747 -30.4488 
L 126.068537 -30.417832 
L 125.735327 -30.416538 
L 125.402118 -30.448677 
L 125.068908 -30.508457 
L 124.735699 -30.582564 
L 124.402489 -30.652773 
L 124.06928 -30.700907 
L 123.73607 -30.714586 
L 123.40286 -30.69011 
L 123.069651 -30.631724 
L 122.736441 -30.54972 
L 122.403232 -30.458908 
L 122.070022 -30.376806 
L 121.736813 -30.320752 
L 121.403603 -30.304385 
L 121.070393 -30.334799 
L 120.737184 -30.411219 
L 120.403974 -30.52481 
L 120.070765 -30.659372 
L 119.737555 -30.794183 
L 119.404346 -30.909588 
L 119.071136 -30.992735 
L 118.737926 -31.040007 
L 118.404717 -31.055927 
L 118.071507 -31.050489 
L 117.738298 -31.035989 
L 117.405088 -31.023548 
L 117.071879 -31.019958 
L 116.738669 -31.025897 
L 116.405459 -31.036516 
L 116.07225 -31.044599 
L 115.73904 -31.043997 
L 115.405831 -31.02956 
L 115.072621 -30.993724 
L 114.739412 -30.925721 
L 114.406202 -30.817768 
L 114.072993 -30.674003 
L 113.739783 -30.513808 
L 113.406573 -30.366737 
L 113.073364 -30.263417 
L 112.740154 -30.227942 
L 112.406945 -30.274437 
L 112.073735 -30.407958 
L 111.740526 -30.628215 
L 111.407316 -30.932859 
L 111.074106 -31.316852 
L 110.740897 -31.767563 
L 110.407687 -32.260167 
L 110.074478 -32.759256 
L 109.741268 -33.228472 
L 109.408059 -33.643867 
L 109.074849 -34.002227 
L 108.741639 -34.315721 
L 108.40843 -34.592939 
L 108.07522 -34.819522 
L 107.742011 -34.954557 
L 107.408801 -34.94647 
L 107.075592 -34.75799 
L 106.742382 -34.386595 
L 106.409172 -33.871646 
L 106.075963 -33.285472 
L 105.742753 -32.71281 
L 105.409544 -32.229525 
L 105.076334 -31.890631 
L 104.743125 -31.729275 
L 104.409915 -31.76204 
L 104.076705 -31.996406 
L 103.743496 -32.436335 
L 103.410286 -33.07818 
L 103.077077 -33.89234 
L 102.743867 -34.80358 
L 102.410658 -35.69737 
L 102.077448 -36.466156 
L 101.744238 -37.071884 
L 101.411029 -37.574691 
L 101.077819 -38.09274 
L 100.74461 -38.708423 
L 100.4114 -39.38433 
L 100.078191 -39.957289 
L 99.744981 -40.228096 
L 99.411772 -40.093368 
L 99.078562 -39.632023 
L 98.745352 -39.089354 
L 98.412143 -38.770393 
L 98.078933 -38.910193 
L 97.745724 -39.594651 
L 97.412514 -40.762243 
L 97.079305 -42.263851 
L 96.746095 -43.935315 
L 96.412885 -45.648487 
L 96.079676 -47.325824 
L 95.746466 -48.919566 
L 95.413257 -50.375861 
L 95.080047 -51.619677 
L 94.746838 -52.585199 
L 94.413628 -53.279368 
L 94.080418 -53.836869 
L 93.747209 -54.529866 
L 93.413999 -55.726586 
L 93.08079 -57.818797 
L 92.74758 -61.137447 
L 92.414371 -65.855232 
L 92.081161 -71.868466 
L 91.747951 -78.692733 
L 91.414742 -85.484595 
L 91.081532 -91.314589 
L 90.748323 -95.650317 
L 90.415113 -98.738436 
L 90.081904 -101.505832 
L 89.748694 -104.936803 
L 89.415484 -109.380637 
L 89.082275 -114.377277 
L 88.749065 -119.13703 
L 88.415856 -123.191782 
L 88.082646 -126.606683 
L 87.749437 -129.633607 
L 87.416227 -132.226955 
L 87.083017 -133.868317 
L 86.749808 -133.773772 
L 86.416598 -131.27676 
L 86.083389 -126.160115 
L 85.750179 -118.780195 
L 85.41697 -109.915622 
L 85.08376 -100.436126 
L 84.750551 -91.014458 
L 84.417341 -82.04117 
L 84.084131 -73.726181 
L 83.750922 -66.258245 
L 83.417712 -59.878459 
L 83.084503 -54.788166 
L 82.751293 -50.964144 
L 82.418084 -48.084124 
L 82.084874 -45.686549 
L 81.751664 -43.442575 
L 81.418455 -41.294302 
L 81.085245 -39.360272 
L 80.752036 -37.739661 
L 80.418826 -36.405333 
L 80.085617 -35.244969 
L 79.752407 -34.164531 
L 79.419197 -33.145456 
L 79.085988 -32.226719 
L 78.752778 -31.456838 
L 78.419569 -30.863075 
L 78.086359 -30.445441 
L 77.75315 -30.181473 
L 77.41994 -30.03418 
L 77.08673 -29.96277 
L 76.753521 -29.933045 
L 76.420311 -29.922503 
L 76.087102 -29.919333 
z
" style="stroke: #0f3455"/>
    </defs>
    <g clip-path="url(#pe81f750a51)">
     <use xlink:href="#m93ef97d1bc" x="0" y="142.665817" style="fill: #0f3455; fill-opacity: 0.25; stroke: #0f3455"/>
    </g>
   </g>
   <g id="PolyCollection_2">
    <defs>
     <path id="mfb30b05b28" d="M 60.118801 -29.918369 
L 60.118801 -29.918317 
L 60.764674 -29.918317 
L 61.410546 -29.918317 
L 62.056418 -29.918317 
L 62.70229 -29.918317 
L 63.348162 -29.918317 
L 63.994034 -29.918317 
L 64.639906 -29.918317 
L 65.285778 -29.918317 
L 65.93165 -29.918317 
L 66.577522 -29.918317 
L 67.223394 -29.918317 
L 67.869266 -29.918317 
L 68.515138 -29.918317 
L 69.16101 -29.918317 
L 69.806882 -29.918317 
L 70.452754 -29.918317 
L 71.098626 -29.918317 
L 71.744498 -29.918317 
L 72.39037 -29.918317 
L 73.036242 -29.918317 
L 73.682114 -29.918317 
L 74.327986 -29.918317 
L 74.973858 -29.918317 
L 75.61973 -29.918317 
L 76.265602 -29.918317 
L 76.911474 -29.918317 
L 77.557346 -29.918317 
L 78.203218 -29.918317 
L 78.84909 -29.918317 
L 79.494962 -29.918317 
L 80.140834 -29.918317 
L 80.786706 -29.918317 
L 81.432578 -29.918317 
L 82.07845 -29.918317 
L 82.724322 -29.918317 
L 83.370194 -29.918317 
L 84.016066 -29.918317 
L 84.661938 -29.918317 
L 85.30781 -29.918317 
L 85.953683 -29.918317 
L 86.599555 -29.918317 
L 87.245427 -29.918317 
L 87.891299 -29.918317 
L 88.537171 -29.918317 
L 89.183043 -29.918317 
L 89.828915 -29.918317 
L 90.474787 -29.918317 
L 91.120659 -29.918317 
L 91.766531 -29.918317 
L 92.412403 -29.918317 
L 93.058275 -29.918317 
L 93.704147 -29.918317 
L 94.350019 -29.918317 
L 94.995891 -29.918317 
L 95.641763 -29.918317 
L 96.287635 -29.918317 
L 96.933507 -29.918317 
L 97.579379 -29.918317 
L 98.225251 -29.918317 
L 98.871123 -29.918317 
L 99.516995 -29.918317 
L 100.162867 -29.918317 
L 100.808739 -29.918317 
L 101.454611 -29.918317 
L 102.100483 -29.918317 
L 102.746355 -29.918317 
L 103.392227 -29.918317 
L 104.038099 -29.918317 
L 104.683971 -29.918317 
L 105.329843 -29.918317 
L 105.975715 -29.918317 
L 106.621587 -29.918317 
L 107.267459 -29.918317 
L 107.913331 -29.918317 
L 108.559203 -29.918317 
L 109.205075 -29.918317 
L 109.850947 -29.918317 
L 110.496819 -29.918317 
L 111.142691 -29.918317 
L 111.788564 -29.918317 
L 112.434436 -29.918317 
L 113.080308 -29.918317 
L 113.72618 -29.918317 
L 114.372052 -29.918317 
L 115.017924 -29.918317 
L 115.663796 -29.918317 
L 116.309668 -29.918317 
L 116.95554 -29.918317 
L 117.601412 -29.918317 
L 118.247284 -29.918317 
L 118.893156 -29.918317 
L 119.539028 -29.918317 
L 120.1849 -29.918317 
L 120.830772 -29.918317 
L 121.476644 -29.918317 
L 122.122516 -29.918317 
L 122.768388 -29.918317 
L 123.41426 -29.918317 
L 124.060132 -29.918317 
L 124.706004 -29.918317 
L 125.351876 -29.918317 
L 125.997748 -29.918317 
L 126.64362 -29.918317 
L 127.289492 -29.918317 
L 127.935364 -29.918317 
L 128.581236 -29.918317 
L 129.227108 -29.918317 
L 129.87298 -29.918317 
L 130.518852 -29.918317 
L 131.164724 -29.918317 
L 131.810596 -29.918317 
L 132.456468 -29.918317 
L 133.10234 -29.918317 
L 133.748212 -29.918317 
L 134.394084 -29.918317 
L 135.039956 -29.918317 
L 135.685828 -29.918317 
L 136.3317 -29.918317 
L 136.977572 -29.918317 
L 137.623445 -29.918317 
L 138.269317 -29.918317 
L 138.915189 -29.918317 
L 139.561061 -29.918317 
L 140.206933 -29.918317 
L 140.852805 -29.918317 
L 141.498677 -29.918317 
L 142.144549 -29.918317 
L 142.790421 -29.918317 
L 143.436293 -29.918317 
L 144.082165 -29.918317 
L 144.728037 -29.918317 
L 145.373909 -29.918317 
L 146.019781 -29.918317 
L 146.665653 -29.918317 
L 147.311525 -29.918317 
L 147.957397 -29.918317 
L 148.603269 -29.918317 
L 149.249141 -29.918317 
L 149.895013 -29.918317 
L 150.540885 -29.918317 
L 151.186757 -29.918317 
L 151.832629 -29.918317 
L 152.478501 -29.918317 
L 153.124373 -29.918317 
L 153.770245 -29.918317 
L 154.416117 -29.918317 
L 155.061989 -29.918317 
L 155.707861 -29.918317 
L 156.353733 -29.918317 
L 156.999605 -29.918317 
L 157.645477 -29.918317 
L 158.291349 -29.918317 
L 158.937221 -29.918317 
L 159.583093 -29.918317 
L 160.228965 -29.918317 
L 160.874837 -29.918317 
L 161.520709 -29.918317 
L 162.166581 -29.918317 
L 162.812453 -29.918317 
L 163.458326 -29.918317 
L 164.104198 -29.918317 
L 164.75007 -29.918317 
L 165.395942 -29.918317 
L 166.041814 -29.918317 
L 166.687686 -29.918317 
L 167.333558 -29.918317 
L 167.97943 -29.918317 
L 168.625302 -29.918317 
L 169.271174 -29.918317 
L 169.917046 -29.918317 
L 170.562918 -29.918317 
L 171.20879 -29.918317 
L 171.854662 -29.918317 
L 172.500534 -29.918317 
L 173.146406 -29.918317 
L 173.792278 -29.918317 
L 174.43815 -29.918317 
L 175.084022 -29.918317 
L 175.729894 -29.918317 
L 176.375766 -29.918317 
L 177.021638 -29.918317 
L 177.66751 -29.918317 
L 178.313382 -29.918317 
L 178.959254 -29.918317 
L 179.605126 -29.918317 
L 180.250998 -29.918317 
L 180.89687 -29.918317 
L 181.542742 -29.918317 
L 182.188614 -29.918317 
L 182.834486 -29.918317 
L 183.480358 -29.918317 
L 184.12623 -29.918317 
L 184.772102 -29.918317 
L 185.417974 -29.918317 
L 186.063846 -29.918317 
L 186.709718 -29.918317 
L 187.35559 -29.918317 
L 188.001462 -29.918317 
L 188.647335 -29.918317 
L 188.647335 -29.918328 
L 188.647335 -29.918328 
L 188.001462 -29.918383 
L 187.35559 -29.918616 
L 186.709718 -29.91936 
L 186.063846 -29.921176 
L 185.417974 -29.92461 
L 184.772102 -29.929815 
L 184.12623 -29.936635 
L 183.480358 -29.945078 
L 182.834486 -29.955158 
L 182.188614 -29.966698 
L 181.542742 -29.981349 
L 180.89687 -30.004355 
L 180.250998 -30.040879 
L 179.605126 -30.09236 
L 178.959254 -30.165355 
L 178.313382 -30.286764 
L 177.66751 -30.496546 
L 177.021638 -30.809682 
L 176.375766 -31.192625 
L 175.729894 -31.591898 
L 175.084022 -31.978443 
L 174.43815 -32.356591 
L 173.792278 -32.738319 
L 173.146406 -33.109134 
L 172.500534 -33.421775 
L 171.854662 -33.640068 
L 171.20879 -33.781112 
L 170.562918 -33.889679 
L 169.917046 -33.982688 
L 169.271174 -34.04294 
L 168.625302 -34.060297 
L 167.97943 -34.069506 
L 167.333558 -34.147322 
L 166.687686 -34.351486 
L 166.041814 -34.647868 
L 165.395942 -34.918913 
L 164.75007 -35.054155 
L 164.104198 -35.023131 
L 163.458326 -34.880044 
L 162.812453 -34.722072 
L 162.166581 -34.632236 
L 161.520709 -34.646813 
L 160.874837 -34.759626 
L 160.228965 -34.933685 
L 159.583093 -35.119253 
L 158.937221 -35.28127 
L 158.291349 -35.406045 
L 157.645477 -35.498201 
L 156.999605 -35.589828 
L 156.353733 -35.718382 
L 155.707861 -35.870888 
L 155.061989 -35.987641 
L 154.416117 -36.048664 
L 153.770245 -36.122688 
L 153.124373 -36.296273 
L 152.478501 -36.577786 
L 151.832629 -36.904535 
L 151.186757 -37.219105 
L 150.540885 -37.496039 
L 149.895013 -37.71762 
L 149.249141 -37.873543 
L 148.603269 -37.974573 
L 147.957397 -38.044189 
L 147.311525 -38.114174 
L 146.665653 -38.225792 
L 146.019781 -38.40629 
L 145.373909 -38.648263 
L 144.728037 -38.929502 
L 144.082165 -39.243226 
L 143.436293 -39.594739 
L 142.790421 -39.97287 
L 142.144549 -40.339902 
L 141.498677 -40.663688 
L 140.852805 -40.954235 
L 140.206933 -41.24883 
L 139.561061 -41.563227 
L 138.915189 -41.869936 
L 138.269317 -42.113454 
L 137.623445 -42.247768 
L 136.977572 -42.286481 
L 136.3317 -42.314816 
L 135.685828 -42.42944 
L 135.039956 -42.665745 
L 134.394084 -42.982789 
L 133.748212 -43.303115 
L 133.10234 -43.566764 
L 132.456468 -43.76479 
L 131.810596 -43.936853 
L 131.164724 -44.146402 
L 130.518852 -44.449332 
L 129.87298 -44.853658 
L 129.227108 -45.297084 
L 128.581236 -45.690776 
L 127.935364 -45.996736 
L 127.289492 -46.244556 
L 126.64362 -46.476628 
L 125.997748 -46.700541 
L 125.351876 -46.885814 
L 124.706004 -46.98513 
L 124.060132 -46.972933 
L 123.41426 -46.88311 
L 122.768388 -46.802082 
L 122.122516 -46.81226 
L 121.476644 -46.938007 
L 120.830772 -47.146979 
L 120.1849 -47.393964 
L 119.539028 -47.643491 
L 118.893156 -47.859728 
L 118.247284 -48.015853 
L 117.601412 -48.123954 
L 116.95554 -48.227864 
L 116.309668 -48.35155 
L 115.663796 -48.457939 
L 115.017924 -48.46369 
L 114.372052 -48.306306 
L 113.72618 -48.007676 
L 113.080308 -47.665829 
L 112.434436 -47.372945 
L 111.788564 -47.143891 
L 111.142691 -46.922096 
L 110.496819 -46.631271 
L 109.850947 -46.219896 
L 109.205075 -45.690863 
L 108.559203 -45.103337 
L 107.913331 -44.531967 
L 107.267459 -44.022875 
L 106.621587 -43.592956 
L 105.975715 -43.253772 
L 105.329843 -43.008701 
L 104.683971 -42.822036 
L 104.038099 -42.617604 
L 103.392227 -42.330207 
L 102.746355 -41.945998 
L 102.100483 -41.47863 
L 101.454611 -40.93229 
L 100.808739 -40.32068 
L 100.162867 -39.705388 
L 99.516995 -39.170856 
L 98.871123 -38.751267 
L 98.225251 -38.406393 
L 97.579379 -38.072192 
L 96.933507 -37.708427 
L 96.287635 -37.299891 
L 95.641763 -36.852213 
L 94.995891 -36.397641 
L 94.350019 -35.976287 
L 93.704147 -35.602972 
L 93.058275 -35.266798 
L 92.412403 -34.957654 
L 91.766531 -34.675029 
L 91.120659 -34.416941 
L 90.474787 -34.1825 
L 89.828915 -33.983697 
L 89.183043 -33.827783 
L 88.537171 -33.680807 
L 87.891299 -33.47796 
L 87.245427 -33.190338 
L 86.599555 -32.862964 
L 85.953683 -32.568527 
L 85.30781 -32.335987 
L 84.661938 -32.138755 
L 84.016066 -31.942325 
L 83.370194 -31.743106 
L 82.724322 -31.557873 
L 82.07845 -31.393754 
L 81.432578 -31.241682 
L 80.786706 -31.091664 
L 80.140834 -30.94472 
L 79.494962 -30.810249 
L 78.84909 -30.694657 
L 78.203218 -30.595477 
L 77.557346 -30.507034 
L 76.911474 -30.426939 
L 76.265602 -30.356297 
L 75.61973 -30.298917 
L 74.973858 -30.259029 
L 74.327986 -30.234342 
L 73.682114 -30.213956 
L 73.036242 -30.187629 
L 72.39037 -30.154453 
L 71.744498 -30.119728 
L 71.098626 -30.086609 
L 70.452754 -30.054291 
L 69.806882 -30.022398 
L 69.16101 -29.993172 
L 68.515138 -29.969171 
L 67.869266 -29.951251 
L 67.223394 -29.939496 
L 66.577522 -29.934679 
L 65.93165 -29.937226 
L 65.285778 -29.944313 
L 64.639906 -29.949506 
L 63.994034 -29.947493 
L 63.348162 -29.939026 
L 62.70229 -29.929397 
L 62.056418 -29.922776 
L 61.410546 -29.919665 
L 60.764674 -29.918623 
L 60.118801 -29.918369 
z
" style="stroke: #cf695e"/>
    </defs>
    <g clip-path="url(#pe81f750a51)">
     <use xlink:href="#mfb30b05b28" x="0" y="142.665817" style="fill: #cf695e; fill-opacity: 0.25; stroke: #cf695e"/>
    </g>
   </g>
   <g id="patch_3">
    <path d="M 29.918347 112.7475 
L 29.918347 3.6 
" style="fill: none; stroke: #000000; stroke-width: 0.5; stroke-linejoin: miter; stroke-linecap: square"/>
   </g>
   <g id="patch_4">
    <path d="M 176.393347 112.7475 
L 176.393347 3.6 
" style="fill: none; stroke: #000000; stroke-width: 0.5; stroke-linejoin: miter; stroke-linecap: square"/>
   </g>
   <g id="patch_5">
    <path d="M 29.918347 112.7475 
L 176.393347 112.7475 
" style="fill: none; stroke: #000000; stroke-width: 0.5; stroke-linejoin: miter; stroke-linecap: square"/>
   </g>
   <g id="patch_6">
    <path d="M 29.918347 3.6 
L 176.393347 3.6 
" style="fill: none; stroke: #000000; stroke-width: 0.5; stroke-linejoin: miter; stroke-linecap: square"/>
   </g>
   <g id="legend_1">
    <g id="patch_7">
     <path d="M 122.6595 33.483338 
L 170.562347 33.483338 
Q 172.228347 33.483338 172.228347 31.817338 
L 172.228347 9.431 
Q 172.228347 7.765 170.562347 7.765 
L 122.6595 7.765 
Q 120.9935 7.765 120.9935 9.431 
L 120.9935 31.817338 
Q 120.9935 33.483338 122.6595 33.483338 
z
" style="fill: #ffffff; stroke: #cccccc; stroke-linejoin: miter"/>
    </g>
    <g id="patch_8">
     <path d="M 124.3255 16.928 
L 140.9855 16.928 
L 140.9855 11.097 
L 124.3255 11.097 
z
" style="fill: #0f3455; fill-opacity: 0.25; stroke: #0f3455; stroke-linejoin: miter"/>
    </g>
    <g id="text_12">
     <!-- $\kappa = 1$ -->
     <g transform="translate(147.6495 16.928) scale(0.0833 -0.0833)">
      <defs>
       <path id="CMMI12-14" d="M 1363 1600 
C 1574 1714 1811 1912 1971 2046 
C 2355 2377 2496 2479 2739 2574 
C 2714 2536 2707 2485 2707 2441 
C 2707 2268 2854 2236 2918 2236 
C 3123 2236 3238 2427 3238 2548 
C 3238 2586 3226 2752 3002 2752 
C 2618 2752 2240 2431 1958 2198 
C 1587 1876 1402 1738 1139 1656 
L 1382 2656 
C 1382 2759 1299 2816 1216 2816 
C 1158 2816 1018 2797 966 2592 
L 371 224 
C 352 148 352 134 352 96 
C 352 6 422 -64 518 -64 
C 710 -64 749 106 781 244 
C 819 380 1082 1472 1094 1472 
C 1907 1472 2182 1264 2182 943 
C 2182 897 2182 878 2163 806 
C 2138 682 2138 609 2138 570 
C 2138 178 2387 -64 2701 -64 
C 2963 -64 3110 123 3206 291 
C 3341 543 3424 898 3424 923 
C 3424 956 3398 981 3360 981 
C 3302 981 3296 956 3270 852 
C 3187 542 3046 64 2720 64 
C 2579 64 2509 148 2509 374 
C 2509 498 2534 641 2560 737 
C 2573 802 2592 880 2592 951 
C 2592 1541 1786 1600 1363 1600 
z
" transform="scale(0.015625)"/>
       <path id="CMR17-3d" d="M 4115 2017 
C 4211 2017 4307 2017 4307 2125 
C 4307 2240 4198 2240 4090 2240 
L 512 2240 
C 403 2240 294 2240 294 2125 
C 294 2017 390 2017 486 2017 
L 4115 2017 
z
M 4090 896 
C 4198 896 4307 896 4307 1011 
C 4307 1119 4211 1119 4115 1119 
L 486 1119 
C 390 1119 294 1119 294 1011 
C 294 896 403 896 512 896 
L 4090 896 
z
" transform="scale(0.015625)"/>
      </defs>
      <use xlink:href="#CMMI12-14" transform="scale(0.996264)"/>
      <use xlink:href="#CMR17-3d" transform="translate(83.828633 0) scale(0.996264)"/>
      <use xlink:href="#CMR17-31" transform="translate(183.21743 0) scale(0.996264)"/>
     </g>
    </g>
    <g id="patch_9">
     <path d="M 124.3255 28.537669 
L 140.9855 28.537669 
L 140.9855 22.706669 
L 124.3255 22.706669 
z
" style="fill: #cf695e; fill-opacity: 0.25; stroke: #cf695e; stroke-linejoin: miter"/>
    </g>
    <g id="text_13">
     <!-- $\kappa = 4$ -->
     <g transform="translate(147.6495 28.537669) scale(0.0833 -0.0833)">
      <defs>
       <path id="CMR17-34" d="M 2150 4122 
C 2150 4256 2144 4256 2029 4256 
L 128 1254 
L 128 1088 
L 1779 1088 
L 1779 457 
C 1779 224 1766 160 1318 160 
L 1197 160 
L 1197 0 
C 1402 0 1747 0 1965 0 
C 2182 0 2528 0 2733 0 
L 2733 160 
L 2611 160 
C 2163 160 2150 224 2150 457 
L 2150 1088 
L 2803 1088 
L 2803 1254 
L 2150 1254 
L 2150 4122 
z
M 1798 3703 
L 1798 1254 
L 256 1254 
L 1798 3703 
z
" transform="scale(0.015625)"/>
      </defs>
      <use xlink:href="#CMMI12-14" transform="scale(0.996264)"/>
      <use xlink:href="#CMR17-3d" transform="translate(83.828633 0) scale(0.996264)"/>
      <use xlink:href="#CMR17-34" transform="translate(183.21743 0) scale(0.996264)"/>
     </g>
    </g>
   </g>
  </g>
 </g>
 <defs>
  <clipPath id="pe81f750a51">
   <rect x="29.918347" y="3.6" width="146.475" height="109.1475"/>
  </clipPath>
 </defs>
</svg>
