<?xml version="1.0" encoding="utf-8" standalone="no"?>
<!DOCTYPE svg PUBLIC "-//W3C//DTD SVG 1.1//EN"
  "http://www.w3.org/Graphics/SVG/1.1/DTD/svg11.dtd">
<svg xmlns:xlink="http://www.w3.org/1999/xlink" width="191.616463pt" height="141.558853pt" viewBox="0 0 191.616463 141.558853" xmlns="http://www.w3.org/2000/svg" version="1.1">
 <metadata>
  <rdf:RDF xmlns:dc="http://purl.org/dc/elements/1.1/" xmlns:cc="http://creativecommons.org/ns#" xmlns:rdf="http://www.w3.org/1999/02/22-rdf-syntax-ns#">
   <cc:Work>
    <dc:type rdf:resource="http://purl.org/dc/dcmitype/StillImage"/>
    <dc:date>2026-03-19T10:19:48.547306</dc:date>
    <dc:format>image/svg+xml</dc:format>
    <dc:creator>
     <cc:Agent>
      <dc:title>Matplotlib v3.7.0, https://matplotlib.org/</dc:title>
     </cc:Agent>
    </dc:creator>
   </cc:Work>
  </rdf:RDF>
 </metadata>
 <defs>
  <style type="text/css">*{stroke-linejoin: round; stroke-linecap: butt}</style>
 </defs>
 <g id="figure_1">
  <g id="patch_1">
   <path d="M 0 141.558853 
L 191.616463 141.558853 
L 191.616463 0 
L 0 0 
L 0 141.558853 
z
" style="fill: none"/>
  </g>
  <g id="axes_1">
   <g id="patch_2">
    <path d="M 41.541463 112.7475 
L 188.016463 112.7475 
L 188.016463 3.6 
L 41.541463 3.6 
L 41.541463 112.7475 
z
" style="fill: none"/>
   </g>
   <g id="matplotlib.axis_1">
    <g id="xtick_1">
     <g id="line2d_1">
      <defs>
       <path id="mb8d2efea42" d="M 0 0 
L 0 -3 
" style="stroke: #000000; stroke-width: 0.5"/>
      </defs>
      <g>
       <use xlink:href="#mb8d2efea42" x="52.003963" y="112.7475" style="stroke: #000000; stroke-width: 0.5"/>
      </g>
     </g>
     <g id="line2d_2">
      <defs>
       <path id="m907206efc9" d="M 0 0 
L 0 3 
" style="stroke: #000000; stroke-width: 0.5"/>
      </defs>
      <g>
       <use xlink:href="#m907206efc9" x="52.003963" y="3.6" style="stroke: #000000; stroke-width: 0.5"/>
      </g>
     </g>
     <g id="text_1">
      <!-- 3 -->
      <g transform="translate(49.513295 123.165998) scale(0.1 -0.1)">
       <defs>
        <path id="CMR17-33" d="M 1414 2157 
C 1984 2157 2234 1662 2234 1090 
C 2234 320 1824 25 1453 25 
C 1114 25 563 194 390 693 
C 422 680 454 680 486 680 
C 640 680 755 782 755 948 
C 755 1133 614 1216 486 1216 
C 378 1216 211 1165 211 926 
C 211 335 787 -128 1466 -128 
C 2176 -128 2720 430 2720 1085 
C 2720 1707 2208 2157 1600 2227 
C 2086 2328 2554 2756 2554 3329 
C 2554 3820 2048 4179 1472 4179 
C 890 4179 378 3829 378 3329 
C 378 3110 544 3072 627 3072 
C 762 3072 877 3155 877 3321 
C 877 3486 762 3569 627 3569 
C 602 3569 570 3569 544 3557 
C 730 3959 1235 4032 1459 4032 
C 1683 4032 2106 3925 2106 3320 
C 2106 3143 2080 2828 1862 2550 
C 1670 2304 1453 2304 1242 2284 
C 1210 2284 1062 2269 1037 2269 
C 992 2263 966 2257 966 2208 
C 966 2163 973 2157 1101 2157 
L 1414 2157 
z
" transform="scale(0.015625)"/>
       </defs>
       <use xlink:href="#CMR17-33" transform="scale(0.996264)"/>
      </g>
     </g>
    </g>
    <g id="xtick_2">
     <g id="line2d_3">
      <g>
       <use xlink:href="#mb8d2efea42" x="72.928963" y="112.7475" style="stroke: #000000; stroke-width: 0.5"/>
      </g>
     </g>
     <g id="line2d_4">
      <g>
       <use xlink:href="#m907206efc9" x="72.928963" y="3.6" style="stroke: #000000; stroke-width: 0.5"/>
      </g>
     </g>
     <g id="text_2">
      <!-- 5 -->
      <g transform="translate(70.438295 123.165998) scale(0.1 -0.1)">
       <defs>
        <path id="CMR17-35" d="M 730 3692 
C 794 3666 1056 3584 1325 3584 
C 1920 3584 2246 3911 2432 4100 
C 2432 4157 2432 4192 2394 4192 
C 2387 4192 2374 4192 2323 4163 
C 2099 4058 1837 3973 1517 3973 
C 1325 3973 1037 3999 723 4139 
C 653 4171 640 4171 634 4171 
C 602 4171 595 4164 595 4037 
L 595 2203 
C 595 2089 595 2057 659 2057 
C 691 2057 704 2070 736 2114 
C 941 2401 1222 2522 1542 2522 
C 1766 2522 2246 2382 2246 1289 
C 2246 1085 2246 715 2054 421 
C 1894 159 1645 25 1370 25 
C 947 25 518 320 403 814 
C 429 807 480 795 506 795 
C 589 795 749 840 749 1038 
C 749 1210 627 1280 506 1280 
C 358 1280 262 1190 262 1011 
C 262 454 704 -128 1382 -128 
C 2042 -128 2669 440 2669 1264 
C 2669 2030 2170 2624 1549 2624 
C 1222 2624 947 2503 730 2274 
L 730 3692 
z
" transform="scale(0.015625)"/>
       </defs>
       <use xlink:href="#CMR17-35" transform="scale(0.996264)"/>
      </g>
     </g>
    </g>
    <g id="xtick_3">
     <g id="line2d_5">
      <g>
       <use xlink:href="#mb8d2efea42" x="93.853963" y="112.7475" style="stroke: #000000; stroke-width: 0.5"/>
      </g>
     </g>
     <g id="line2d_6">
      <g>
       <use xlink:href="#m907206efc9" x="93.853963" y="3.6" style="stroke: #000000; stroke-width: 0.5"/>
      </g>
     </g>
     <g id="text_3">
      <!-- 7 -->
      <g transform="translate(91.363295 123.165998) scale(0.1 -0.1)">
       <defs>
        <path id="CMR17-37" d="M 2886 3941 
L 2886 4081 
L 1382 4081 
C 634 4081 621 4165 595 4288 
L 480 4288 
L 294 3094 
L 410 3094 
C 429 3215 474 3540 550 3661 
C 589 3712 1062 3712 1171 3712 
L 2579 3712 
L 1869 2661 
C 1395 1954 1069 999 1069 165 
C 1069 89 1069 -128 1299 -128 
C 1530 -128 1530 89 1530 171 
L 1530 465 
C 1530 1508 1709 2196 2003 2636 
L 2886 3941 
z
" transform="scale(0.015625)"/>
       </defs>
       <use xlink:href="#CMR17-37" transform="scale(0.996264)"/>
      </g>
     </g>
    </g>
    <g id="xtick_4">
     <g id="line2d_7">
      <g>
       <use xlink:href="#mb8d2efea42" x="114.778963" y="112.7475" style="stroke: #000000; stroke-width: 0.5"/>
      </g>
     </g>
     <g id="line2d_8">
      <g>
       <use xlink:href="#m907206efc9" x="114.778963" y="3.6" style="stroke: #000000; stroke-width: 0.5"/>
      </g>
     </g>
     <g id="text_4">
      <!-- 9 -->
      <g transform="translate(112.288295 123.165998) scale(0.1 -0.1)">
       <defs>
        <path id="CMR17-39" d="M 2253 1864 
C 2253 464 1670 31 1190 31 
C 1043 31 685 31 538 294 
C 704 268 826 357 826 518 
C 826 692 685 749 595 749 
C 538 749 365 723 365 506 
C 365 71 742 -128 1203 -128 
C 1939 -128 2688 674 2688 2073 
C 2688 3817 1971 4179 1485 4179 
C 851 4179 243 3628 243 2778 
C 243 1991 762 1408 1414 1408 
C 1952 1408 2189 1903 2253 2112 
L 2253 1864 
z
M 1427 1510 
C 1254 1510 1011 1542 813 1922 
C 678 2169 678 2461 678 2771 
C 678 3146 678 3405 858 3684 
C 947 3817 1114 4032 1485 4032 
C 2240 4032 2240 2885 2240 2632 
C 2240 2182 2035 1510 1427 1510 
z
" transform="scale(0.015625)"/>
       </defs>
       <use xlink:href="#CMR17-39" transform="scale(0.996264)"/>
      </g>
     </g>
    </g>
    <g id="xtick_5">
     <g id="line2d_9">
      <g>
       <use xlink:href="#mb8d2efea42" x="135.703963" y="112.7475" style="stroke: #000000; stroke-width: 0.5"/>
      </g>
     </g>
     <g id="line2d_10">
      <g>
       <use xlink:href="#m907206efc9" x="135.703963" y="3.6" style="stroke: #000000; stroke-width: 0.5"/>
      </g>
     </g>
     <g id="text_5">
      <!-- 11 -->
      <g transform="translate(130.722628 123.165998) scale(0.1 -0.1)">
       <defs>
        <path id="CMR17-31" d="M 1702 4058 
C 1702 4192 1696 4192 1606 4192 
C 1357 3916 979 3827 621 3827 
C 602 3827 570 3827 563 3808 
C 557 3795 557 3782 557 3648 
C 755 3648 1088 3686 1344 3839 
L 1344 461 
C 1344 236 1331 160 781 160 
L 589 160 
L 589 0 
C 896 0 1216 0 1523 0 
C 1830 0 2150 0 2458 0 
L 2458 160 
L 2266 160 
C 1715 160 1702 230 1702 458 
L 1702 4058 
z
" transform="scale(0.015625)"/>
       </defs>
       <use xlink:href="#CMR17-31" transform="scale(0.996264)"/>
       <use xlink:href="#CMR17-31" transform="translate(45.690477 0) scale(0.996264)"/>
      </g>
     </g>
    </g>
    <g id="xtick_6">
     <g id="line2d_11">
      <g>
       <use xlink:href="#mb8d2efea42" x="156.628963" y="112.7475" style="stroke: #000000; stroke-width: 0.5"/>
      </g>
     </g>
     <g id="line2d_12">
      <g>
       <use xlink:href="#m907206efc9" x="156.628963" y="3.6" style="stroke: #000000; stroke-width: 0.5"/>
      </g>
     </g>
     <g id="text_6">
      <!-- 13 -->
      <g transform="translate(151.647628 123.165998) scale(0.1 -0.1)">
       <use xlink:href="#CMR17-31" transform="scale(0.996264)"/>
       <use xlink:href="#CMR17-33" transform="translate(45.690477 0) scale(0.996264)"/>
      </g>
     </g>
    </g>
    <g id="xtick_7">
     <g id="line2d_13">
      <g>
       <use xlink:href="#mb8d2efea42" x="177.553963" y="112.7475" style="stroke: #000000; stroke-width: 0.5"/>
      </g>
     </g>
     <g id="line2d_14">
      <g>
       <use xlink:href="#m907206efc9" x="177.553963" y="3.6" style="stroke: #000000; stroke-width: 0.5"/>
      </g>
     </g>
     <g id="text_7">
      <!-- 15 -->
      <g transform="translate(172.572628 123.165998) scale(0.1 -0.1)">
       <use xlink:href="#CMR17-31" transform="scale(0.996264)"/>
       <use xlink:href="#CMR17-35" transform="translate(45.690477 0) scale(0.996264)"/>
      </g>
     </g>
    </g>
    <g id="xtick_8">
     <g id="line2d_15">
      <defs>
       <path id="mcf2c90ab09" d="M 0 0 
L 0 -1.5 
" style="stroke: #000000; stroke-width: 0.5"/>
      </defs>
      <g>
       <use xlink:href="#mcf2c90ab09" x="43.633963" y="112.7475" style="stroke: #000000; stroke-width: 0.5"/>
      </g>
     </g>
     <g id="line2d_16">
      <defs>
       <path id="m8caf2d5748" d="M 0 0 
L 0 1.5 
" style="stroke: #000000; stroke-width: 0.5"/>
      </defs>
      <g>
       <use xlink:href="#m8caf2d5748" x="43.633963" y="3.6" style="stroke: #000000; stroke-width: 0.5"/>
      </g>
     </g>
    </g>
    <g id="xtick_9">
     <g id="line2d_17">
      <g>
       <use xlink:href="#mcf2c90ab09" x="47.818963" y="112.7475" style="stroke: #000000; stroke-width: 0.5"/>
      </g>
     </g>
     <g id="line2d_18">
      <g>
       <use xlink:href="#m8caf2d5748" x="47.818963" y="3.6" style="stroke: #000000; stroke-width: 0.5"/>
      </g>
     </g>
    </g>
    <g id="xtick_10">
     <g id="line2d_19">
      <g>
       <use xlink:href="#mcf2c90ab09" x="56.188963" y="112.7475" style="stroke: #000000; stroke-width: 0.5"/>
      </g>
     </g>
     <g id="line2d_20">
      <g>
       <use xlink:href="#m8caf2d5748" x="56.188963" y="3.6" style="stroke: #000000; stroke-width: 0.5"/>
      </g>
     </g>
    </g>
    <g id="xtick_11">
     <g id="line2d_21">
      <g>
       <use xlink:href="#mcf2c90ab09" x="60.373963" y="112.7475" style="stroke: #000000; stroke-width: 0.5"/>
      </g>
     </g>
     <g id="line2d_22">
      <g>
       <use xlink:href="#m8caf2d5748" x="60.373963" y="3.6" style="stroke: #000000; stroke-width: 0.5"/>
      </g>
     </g>
    </g>
    <g id="xtick_12">
     <g id="line2d_23">
      <g>
       <use xlink:href="#mcf2c90ab09" x="64.558963" y="112.7475" style="stroke: #000000; stroke-width: 0.5"/>
      </g>
     </g>
     <g id="line2d_24">
      <g>
       <use xlink:href="#m8caf2d5748" x="64.558963" y="3.6" style="stroke: #000000; stroke-width: 0.5"/>
      </g>
     </g>
    </g>
    <g id="xtick_13">
     <g id="line2d_25">
      <g>
       <use xlink:href="#mcf2c90ab09" x="68.743963" y="112.7475" style="stroke: #000000; stroke-width: 0.5"/>
      </g>
     </g>
     <g id="line2d_26">
      <g>
       <use xlink:href="#m8caf2d5748" x="68.743963" y="3.6" style="stroke: #000000; stroke-width: 0.5"/>
      </g>
     </g>
    </g>
    <g id="xtick_14">
     <g id="line2d_27">
      <g>
       <use xlink:href="#mcf2c90ab09" x="77.113963" y="112.7475" style="stroke: #000000; stroke-width: 0.5"/>
      </g>
     </g>
     <g id="line2d_28">
      <g>
       <use xlink:href="#m8caf2d5748" x="77.113963" y="3.6" style="stroke: #000000; stroke-width: 0.5"/>
      </g>
     </g>
    </g>
    <g id="xtick_15">
     <g id="line2d_29">
      <g>
       <use xlink:href="#mcf2c90ab09" x="81.298963" y="112.7475" style="stroke: #000000; stroke-width: 0.5"/>
      </g>
     </g>
     <g id="line2d_30">
      <g>
       <use xlink:href="#m8caf2d5748" x="81.298963" y="3.6" style="stroke: #000000; stroke-width: 0.5"/>
      </g>
     </g>
    </g>
    <g id="xtick_16">
     <g id="line2d_31">
      <g>
       <use xlink:href="#mcf2c90ab09" x="85.483963" y="112.7475" style="stroke: #000000; stroke-width: 0.5"/>
      </g>
     </g>
     <g id="line2d_32">
      <g>
       <use xlink:href="#m8caf2d5748" x="85.483963" y="3.6" style="stroke: #000000; stroke-width: 0.5"/>
      </g>
     </g>
    </g>
    <g id="xtick_17">
     <g id="line2d_33">
      <g>
       <use xlink:href="#mcf2c90ab09" x="89.668963" y="112.7475" style="stroke: #000000; stroke-width: 0.5"/>
      </g>
     </g>
     <g id="line2d_34">
      <g>
       <use xlink:href="#m8caf2d5748" x="89.668963" y="3.6" style="stroke: #000000; stroke-width: 0.5"/>
      </g>
     </g>
    </g>
    <g id="xtick_18">
     <g id="line2d_35">
      <g>
       <use xlink:href="#mcf2c90ab09" x="98.038963" y="112.7475" style="stroke: #000000; stroke-width: 0.5"/>
      </g>
     </g>
     <g id="line2d_36">
      <g>
       <use xlink:href="#m8caf2d5748" x="98.038963" y="3.6" style="stroke: #000000; stroke-width: 0.5"/>
      </g>
     </g>
    </g>
    <g id="xtick_19">
     <g id="line2d_37">
      <g>
       <use xlink:href="#mcf2c90ab09" x="102.223963" y="112.7475" style="stroke: #000000; stroke-width: 0.5"/>
      </g>
     </g>
     <g id="line2d_38">
      <g>
       <use xlink:href="#m8caf2d5748" x="102.223963" y="3.6" style="stroke: #000000; stroke-width: 0.5"/>
      </g>
     </g>
    </g>
    <g id="xtick_20">
     <g id="line2d_39">
      <g>
       <use xlink:href="#mcf2c90ab09" x="106.408963" y="112.7475" style="stroke: #000000; stroke-width: 0.5"/>
      </g>
     </g>
     <g id="line2d_40">
      <g>
       <use xlink:href="#m8caf2d5748" x="106.408963" y="3.6" style="stroke: #000000; stroke-width: 0.5"/>
      </g>
     </g>
    </g>
    <g id="xtick_21">
     <g id="line2d_41">
      <g>
       <use xlink:href="#mcf2c90ab09" x="110.593963" y="112.7475" style="stroke: #000000; stroke-width: 0.5"/>
      </g>
     </g>
     <g id="line2d_42">
      <g>
       <use xlink:href="#m8caf2d5748" x="110.593963" y="3.6" style="stroke: #000000; stroke-width: 0.5"/>
      </g>
     </g>
    </g>
    <g id="xtick_22">
     <g id="line2d_43">
      <g>
       <use xlink:href="#mcf2c90ab09" x="118.963963" y="112.7475" style="stroke: #000000; stroke-width: 0.5"/>
      </g>
     </g>
     <g id="line2d_44">
      <g>
       <use xlink:href="#m8caf2d5748" x="118.963963" y="3.6" style="stroke: #000000; stroke-width: 0.5"/>
      </g>
     </g>
    </g>
    <g id="xtick_23">
     <g id="line2d_45">
      <g>
       <use xlink:href="#mcf2c90ab09" x="123.148963" y="112.7475" style="stroke: #000000; stroke-width: 0.5"/>
      </g>
     </g>
     <g id="line2d_46">
      <g>
       <use xlink:href="#m8caf2d5748" x="123.148963" y="3.6" style="stroke: #000000; stroke-width: 0.5"/>
      </g>
     </g>
    </g>
    <g id="xtick_24">
     <g id="line2d_47">
      <g>
       <use xlink:href="#mcf2c90ab09" x="127.333963" y="112.7475" style="stroke: #000000; stroke-width: 0.5"/>
      </g>
     </g>
     <g id="line2d_48">
      <g>
       <use xlink:href="#m8caf2d5748" x="127.333963" y="3.6" style="stroke: #000000; stroke-width: 0.5"/>
      </g>
     </g>
    </g>
    <g id="xtick_25">
     <g id="line2d_49">
      <g>
       <use xlink:href="#mcf2c90ab09" x="131.518963" y="112.7475" style="stroke: #000000; stroke-width: 0.5"/>
      </g>
     </g>
     <g id="line2d_50">
      <g>
       <use xlink:href="#m8caf2d5748" x="131.518963" y="3.6" style="stroke: #000000; stroke-width: 0.5"/>
      </g>
     </g>
    </g>
    <g id="xtick_26">
     <g id="line2d_51">
      <g>
       <use xlink:href="#mcf2c90ab09" x="139.888963" y="112.7475" style="stroke: #000000; stroke-width: 0.5"/>
      </g>
     </g>
     <g id="line2d_52">
      <g>
       <use xlink:href="#m8caf2d5748" x="139.888963" y="3.6" style="stroke: #000000; stroke-width: 0.5"/>
      </g>
     </g>
    </g>
    <g id="xtick_27">
     <g id="line2d_53">
      <g>
       <use xlink:href="#mcf2c90ab09" x="144.073963" y="112.7475" style="stroke: #000000; stroke-width: 0.5"/>
      </g>
     </g>
     <g id="line2d_54">
      <g>
       <use xlink:href="#m8caf2d5748" x="144.073963" y="3.6" style="stroke: #000000; stroke-width: 0.5"/>
      </g>
     </g>
    </g>
    <g id="xtick_28">
     <g id="line2d_55">
      <g>
       <use xlink:href="#mcf2c90ab09" x="148.258963" y="112.7475" style="stroke: #000000; stroke-width: 0.5"/>
      </g>
     </g>
     <g id="line2d_56">
      <g>
       <use xlink:href="#m8caf2d5748" x="148.258963" y="3.6" style="stroke: #000000; stroke-width: 0.5"/>
      </g>
     </g>
    </g>
    <g id="xtick_29">
     <g id="line2d_57">
      <g>
       <use xlink:href="#mcf2c90ab09" x="152.443963" y="112.7475" style="stroke: #000000; stroke-width: 0.5"/>
      </g>
     </g>
     <g id="line2d_58">
      <g>
       <use xlink:href="#m8caf2d5748" x="152.443963" y="3.6" style="stroke: #000000; stroke-width: 0.5"/>
      </g>
     </g>
    </g>
    <g id="xtick_30">
     <g id="line2d_59">
      <g>
       <use xlink:href="#mcf2c90ab09" x="160.813963" y="112.7475" style="stroke: #000000; stroke-width: 0.5"/>
      </g>
     </g>
     <g id="line2d_60">
      <g>
       <use xlink:href="#m8caf2d5748" x="160.813963" y="3.6" style="stroke: #000000; stroke-width: 0.5"/>
      </g>
     </g>
    </g>
    <g id="xtick_31">
     <g id="line2d_61">
      <g>
       <use xlink:href="#mcf2c90ab09" x="164.998963" y="112.7475" style="stroke: #000000; stroke-width: 0.5"/>
      </g>
     </g>
     <g id="line2d_62">
      <g>
       <use xlink:href="#m8caf2d5748" x="164.998963" y="3.6" style="stroke: #000000; stroke-width: 0.5"/>
      </g>
     </g>
    </g>
    <g id="xtick_32">
     <g id="line2d_63">
      <g>
       <use xlink:href="#mcf2c90ab09" x="169.183963" y="112.7475" style="stroke: #000000; stroke-width: 0.5"/>
      </g>
     </g>
     <g id="line2d_64">
      <g>
       <use xlink:href="#m8caf2d5748" x="169.183963" y="3.6" style="stroke: #000000; stroke-width: 0.5"/>
      </g>
     </g>
    </g>
    <g id="xtick_33">
     <g id="line2d_65">
      <g>
       <use xlink:href="#mcf2c90ab09" x="173.368963" y="112.7475" style="stroke: #000000; stroke-width: 0.5"/>
      </g>
     </g>
     <g id="line2d_66">
      <g>
       <use xlink:href="#m8caf2d5748" x="173.368963" y="3.6" style="stroke: #000000; stroke-width: 0.5"/>
      </g>
     </g>
    </g>
    <g id="xtick_34">
     <g id="line2d_67">
      <g>
       <use xlink:href="#mcf2c90ab09" x="181.738963" y="112.7475" style="stroke: #000000; stroke-width: 0.5"/>
      </g>
     </g>
     <g id="line2d_68">
      <g>
       <use xlink:href="#m8caf2d5748" x="181.738963" y="3.6" style="stroke: #000000; stroke-width: 0.5"/>
      </g>
     </g>
    </g>
    <g id="xtick_35">
     <g id="line2d_69">
      <g>
       <use xlink:href="#mcf2c90ab09" x="185.923963" y="112.7475" style="stroke: #000000; stroke-width: 0.5"/>
      </g>
     </g>
     <g id="line2d_70">
      <g>
       <use xlink:href="#m8caf2d5748" x="185.923963" y="3.6" style="stroke: #000000; stroke-width: 0.5"/>
      </g>
     </g>
    </g>
    <g id="text_8">
     <!-- $L$ -->
     <g transform="translate(111.388889 136.021675) scale(0.1 -0.1)">
      <defs>
       <path id="CMMI12-4c" d="M 2349 3861 
C 2406 4103 2426 4167 2989 4167 
C 3162 4167 3206 4167 3206 4288 
C 3206 4352 3136 4352 3110 4352 
C 2982 4352 2835 4352 2707 4352 
L 1850 4352 
C 1728 4352 1587 4352 1466 4352 
C 1414 4352 1344 4352 1344 4231 
C 1344 4167 1402 4167 1498 4167 
C 1888 4167 1888 4116 1888 4046 
C 1888 4034 1888 3995 1862 3899 
L 998 472 
C 941 249 928 185 480 185 
C 358 185 294 185 294 70 
C 294 0 333 0 461 0 
L 3328 0 
C 3469 0 3475 6 3520 121 
L 4013 1478 
C 4026 1510 4038 1548 4038 1567 
C 4038 1605 4006 1631 3974 1631 
C 3968 1631 3936 1631 3923 1605 
C 3910 1599 3910 1586 3859 1465 
C 3654 905 3366 185 2285 185 
L 1670 185 
C 1581 185 1568 185 1530 192 
C 1459 198 1453 211 1453 262 
C 1453 307 1466 345 1478 401 
L 2349 3861 
z
" transform="scale(0.015625)"/>
      </defs>
      <use xlink:href="#CMMI12-4c" transform="scale(0.996264)"/>
     </g>
    </g>
   </g>
   <g id="matplotlib.axis_2">
    <g id="ytick_1">
     <g id="line2d_71">
      <path d="M 41.541463 94.55625 
L 188.016463 94.55625 
" clip-path="url(#p753003fb84)" style="fill: none; stroke-dasharray: 1.85,0.8; stroke-dashoffset: 0; stroke: #000000; stroke-opacity: 0.5; stroke-width: 0.5"/>
     </g>
     <g id="line2d_72">
      <defs>
       <path id="mbb030a0879" d="M 0 0 
L 3 0 
" style="stroke: #000000; stroke-width: 0.5"/>
      </defs>
      <g>
       <use xlink:href="#mbb030a0879" x="41.541463" y="94.55625" style="stroke: #000000; stroke-width: 0.5"/>
      </g>
     </g>
     <g id="line2d_73">
      <defs>
       <path id="ma235233563" d="M 0 0 
L -3 0 
" style="stroke: #000000; stroke-width: 0.5"/>
      </defs>
      <g>
       <use xlink:href="#ma235233563" x="188.016463" y="94.55625" style="stroke: #000000; stroke-width: 0.5"/>
      </g>
     </g>
     <g id="text_9">
      <!-- $\mathdefault{−0.2}$ -->
      <g transform="translate(17.56264 98.015499) scale(0.1 -0.1)">
       <defs>
        <path id="CMSY10-0" d="M 4218 1472 
C 4326 1472 4442 1472 4442 1600 
C 4442 1728 4326 1728 4218 1728 
L 755 1728 
C 646 1728 531 1728 531 1600 
C 531 1472 646 1472 755 1472 
L 4218 1472 
z
" transform="scale(0.015625)"/>
        <path id="CMR17-30" d="M 2688 2025 
C 2688 2416 2682 3080 2413 3591 
C 2176 4039 1798 4198 1466 4198 
C 1158 4198 768 4058 525 3597 
C 269 3118 243 2524 243 2025 
C 243 1661 250 1106 448 619 
C 723 -39 1216 -128 1466 -128 
C 1760 -128 2208 -7 2470 600 
C 2662 1042 2688 1559 2688 2025 
z
M 1466 -26 
C 1056 -26 813 325 723 812 
C 653 1188 653 1738 653 2096 
C 653 2588 653 2997 736 3387 
C 858 3929 1216 4096 1466 4096 
C 1728 4096 2067 3923 2189 3400 
C 2272 3036 2278 2607 2278 2096 
C 2278 1680 2278 1169 2202 792 
C 2067 95 1690 -26 1466 -26 
z
" transform="scale(0.015625)"/>
        <path id="CMMI12-3a" d="M 1178 307 
C 1178 492 1024 619 870 619 
C 685 619 557 466 557 313 
C 557 128 710 0 864 0 
C 1050 0 1178 153 1178 307 
z
" transform="scale(0.015625)"/>
        <path id="CMR17-32" d="M 2669 989 
L 2554 989 
C 2490 536 2438 459 2413 420 
C 2381 369 1920 369 1830 369 
L 602 369 
C 832 619 1280 1072 1824 1597 
C 2214 1967 2669 2402 2669 3035 
C 2669 3790 2067 4224 1395 4224 
C 691 4224 262 3604 262 3030 
C 262 2780 448 2748 525 2748 
C 589 2748 781 2787 781 3010 
C 781 3207 614 3264 525 3264 
C 486 3264 448 3258 422 3245 
C 544 3790 915 4058 1306 4058 
C 1862 4058 2227 3617 2227 3035 
C 2227 2479 1901 2000 1536 1584 
L 262 146 
L 262 0 
L 2515 0 
L 2669 989 
z
" transform="scale(0.015625)"/>
       </defs>
       <use xlink:href="#CMSY10-0" transform="scale(0.996264)"/>
       <use xlink:href="#CMR17-30" transform="translate(77.487468 0) scale(0.996264)"/>
       <use xlink:href="#CMMI12-3a" transform="translate(123.177945 0) scale(0.996264)"/>
       <use xlink:href="#CMR17-32" transform="translate(150.275122 0) scale(0.996264)"/>
      </g>
     </g>
    </g>
    <g id="ytick_2">
     <g id="line2d_74">
      <path d="M 41.541463 58.17375 
L 188.016463 58.17375 
" clip-path="url(#p753003fb84)" style="fill: none; stroke-dasharray: 1.85,0.8; stroke-dashoffset: 0; stroke: #000000; stroke-opacity: 0.5; stroke-width: 0.5"/>
     </g>
     <g id="line2d_75">
      <g>
       <use xlink:href="#mbb030a0879" x="41.541463" y="58.17375" style="stroke: #000000; stroke-width: 0.5"/>
      </g>
     </g>
     <g id="line2d_76">
      <g>
       <use xlink:href="#ma235233563" x="188.016463" y="58.17375" style="stroke: #000000; stroke-width: 0.5"/>
      </g>
     </g>
     <g id="text_10">
      <!-- $\mathdefault{0.0}$ -->
      <g transform="translate(25.311384 61.632999) scale(0.1 -0.1)">
       <use xlink:href="#CMR17-30" transform="scale(0.996264)"/>
       <use xlink:href="#CMMI12-3a" transform="translate(45.690477 0) scale(0.996264)"/>
       <use xlink:href="#CMR17-30" transform="translate(72.787654 0) scale(0.996264)"/>
      </g>
     </g>
    </g>
    <g id="ytick_3">
     <g id="line2d_77">
      <path d="M 41.541463 21.79125 
L 188.016463 21.79125 
" clip-path="url(#p753003fb84)" style="fill: none; stroke-dasharray: 1.85,0.8; stroke-dashoffset: 0; stroke: #000000; stroke-opacity: 0.5; stroke-width: 0.5"/>
     </g>
     <g id="line2d_78">
      <g>
       <use xlink:href="#mbb030a0879" x="41.541463" y="21.79125" style="stroke: #000000; stroke-width: 0.5"/>
      </g>
     </g>
     <g id="line2d_79">
      <g>
       <use xlink:href="#ma235233563" x="188.016463" y="21.79125" style="stroke: #000000; stroke-width: 0.5"/>
      </g>
     </g>
     <g id="text_11">
      <!-- $\mathdefault{0.2}$ -->
      <g transform="translate(25.311384 25.250499) scale(0.1 -0.1)">
       <use xlink:href="#CMR17-30" transform="scale(0.996264)"/>
       <use xlink:href="#CMMI12-3a" transform="translate(45.690477 0) scale(0.996264)"/>
       <use xlink:href="#CMR17-32" transform="translate(72.787654 0) scale(0.996264)"/>
      </g>
     </g>
    </g>
    <g id="ytick_4">
     <g id="line2d_80">
      <defs>
       <path id="mfef791834b" d="M 0 0 
L 1.5 0 
" style="stroke: #000000; stroke-width: 0.5"/>
      </defs>
      <g>
       <use xlink:href="#mfef791834b" x="41.541463" y="103.651875" style="stroke: #000000; stroke-width: 0.5"/>
      </g>
     </g>
     <g id="line2d_81">
      <defs>
       <path id="m1e0148125c" d="M 0 0 
L -1.5 0 
" style="stroke: #000000; stroke-width: 0.5"/>
      </defs>
      <g>
       <use xlink:href="#m1e0148125c" x="188.016463" y="103.651875" style="stroke: #000000; stroke-width: 0.5"/>
      </g>
     </g>
    </g>
    <g id="ytick_5">
     <g id="line2d_82">
      <g>
       <use xlink:href="#mfef791834b" x="41.541463" y="85.460625" style="stroke: #000000; stroke-width: 0.5"/>
      </g>
     </g>
     <g id="line2d_83">
      <g>
       <use xlink:href="#m1e0148125c" x="188.016463" y="85.460625" style="stroke: #000000; stroke-width: 0.5"/>
      </g>
     </g>
    </g>
    <g id="ytick_6">
     <g id="line2d_84">
      <g>
       <use xlink:href="#mfef791834b" x="41.541463" y="76.365" style="stroke: #000000; stroke-width: 0.5"/>
      </g>
     </g>
     <g id="line2d_85">
      <g>
       <use xlink:href="#m1e0148125c" x="188.016463" y="76.365" style="stroke: #000000; stroke-width: 0.5"/>
      </g>
     </g>
    </g>
    <g id="ytick_7">
     <g id="line2d_86">
      <g>
       <use xlink:href="#mfef791834b" x="41.541463" y="67.269375" style="stroke: #000000; stroke-width: 0.5"/>
      </g>
     </g>
     <g id="line2d_87">
      <g>
       <use xlink:href="#m1e0148125c" x="188.016463" y="67.269375" style="stroke: #000000; stroke-width: 0.5"/>
      </g>
     </g>
    </g>
    <g id="ytick_8">
     <g id="line2d_88">
      <g>
       <use xlink:href="#mfef791834b" x="41.541463" y="49.078125" style="stroke: #000000; stroke-width: 0.5"/>
      </g>
     </g>
     <g id="line2d_89">
      <g>
       <use xlink:href="#m1e0148125c" x="188.016463" y="49.078125" style="stroke: #000000; stroke-width: 0.5"/>
      </g>
     </g>
    </g>
    <g id="ytick_9">
     <g id="line2d_90">
      <g>
       <use xlink:href="#mfef791834b" x="41.541463" y="39.9825" style="stroke: #000000; stroke-width: 0.5"/>
      </g>
     </g>
     <g id="line2d_91">
      <g>
       <use xlink:href="#m1e0148125c" x="188.016463" y="39.9825" style="stroke: #000000; stroke-width: 0.5"/>
      </g>
     </g>
    </g>
    <g id="ytick_10">
     <g id="line2d_92">
      <g>
       <use xlink:href="#mfef791834b" x="41.541463" y="30.886875" style="stroke: #000000; stroke-width: 0.5"/>
      </g>
     </g>
     <g id="line2d_93">
      <g>
       <use xlink:href="#m1e0148125c" x="188.016463" y="30.886875" style="stroke: #000000; stroke-width: 0.5"/>
      </g>
     </g>
    </g>
    <g id="ytick_11">
     <g id="line2d_94">
      <g>
       <use xlink:href="#mfef791834b" x="41.541463" y="12.695625" style="stroke: #000000; stroke-width: 0.5"/>
      </g>
     </g>
     <g id="line2d_95">
      <g>
       <use xlink:href="#m1e0148125c" x="188.016463" y="12.695625" style="stroke: #000000; stroke-width: 0.5"/>
      </g>
     </g>
    </g>
    <g id="text_12">
     <!-- $\varphi_{I}~[\mathrm{\pi}]$ -->
     <g transform="translate(11.07198 71.163954) rotate(-90) scale(0.1 -0.1)">
      <defs>
       <path id="CMMI12-27" d="M 1926 280 
C 1818 280 1722 280 1722 312 
C 1722 325 1830 926 1869 1067 
C 2074 1884 2560 2472 3117 2472 
C 3533 2472 3725 2159 3725 1808 
C 3725 1080 2906 280 1926 280 
z
M 1651 -51 
C 1690 -57 1754 -64 1869 -64 
C 2918 -64 3885 945 3885 1954 
C 3885 2344 3712 2816 3174 2816 
C 2253 2816 1862 1519 1504 318 
C 768 458 461 848 461 1276 
C 461 1449 595 2133 966 2592 
C 1037 2676 1037 2689 1037 2702 
C 1037 2753 986 2753 973 2753 
C 800 2753 314 1820 314 1213 
C 314 497 877 107 1395 -7 
L 1062 -1088 
C 1030 -1184 1030 -1196 1030 -1222 
C 1030 -1376 1184 -1376 1197 -1376 
C 1261 -1376 1376 -1351 1427 -1223 
C 1446 -1166 1626 -178 1651 -51 
z
" transform="scale(0.015625)"/>
       <path id="CMMI12-49" d="M 2355 3880 
C 2413 4103 2426 4167 2893 4167 
C 3034 4167 3085 4167 3085 4288 
C 3085 4352 3014 4352 2995 4352 
C 2880 4352 2739 4352 2624 4352 
L 1837 4352 
C 1709 4352 1562 4352 1434 4352 
C 1382 4352 1312 4352 1312 4231 
C 1312 4167 1363 4167 1491 4167 
C 1888 4167 1888 4116 1888 4046 
C 1888 4002 1875 3963 1862 3906 
L 998 472 
C 941 249 928 185 461 185 
C 320 185 262 185 262 64 
C 262 0 326 0 358 0 
C 474 0 614 0 730 0 
L 1517 0 
C 1645 0 1786 0 1914 0 
C 1965 0 2042 0 2042 115 
C 2042 185 2003 185 1862 185 
C 1466 185 1466 236 1466 312 
C 1466 325 1466 357 1491 459 
L 2355 3880 
z
" transform="scale(0.015625)"/>
       <path id="CMR17-5b" d="M 1504 -1600 
L 1504 -1377 
L 902 -1377 
L 902 4544 
L 1504 4544 
L 1504 4767 
L 678 4767 
L 678 -1600 
L 1504 -1600 
z
" transform="scale(0.015625)"/>
       <path id="CMMI12-19" d="M 1658 2408 
L 2381 2408 
C 2208 1692 2099 1226 2099 716 
C 2099 626 2099 -64 2362 -64 
C 2496 -64 2611 57 2611 166 
C 2611 197 2611 210 2566 306 
C 2394 747 2394 1296 2394 1341 
C 2394 1379 2394 1832 2528 2408 
L 3245 2408 
C 3328 2408 3539 2408 3539 2612 
C 3539 2752 3418 2752 3302 2752 
L 1197 2752 
C 1050 2752 832 2752 538 2440 
C 371 2254 166 1916 166 1878 
C 166 1840 198 1827 237 1827 
C 282 1827 288 1846 320 1884 
C 653 2408 986 2408 1146 2408 
L 1510 2408 
C 1370 1929 1210 1373 685 256 
C 634 154 634 140 634 102 
C 634 -32 749 -64 806 -64 
C 992 -64 1043 102 1120 370 
C 1222 696 1222 709 1286 964 
L 1658 2408 
z
" transform="scale(0.015625)"/>
       <path id="CMR17-5d" d="M 915 4767 
L 90 4767 
L 90 4544 
L 691 4544 
L 691 -1377 
L 90 -1377 
L 90 -1600 
L 915 -1600 
L 915 4767 
z
" transform="scale(0.015625)"/>
      </defs>
      <use xlink:href="#CMMI12-27" transform="scale(0.996264)"/>
      <use xlink:href="#CMMI12-49" transform="translate(63.903064 -14.943915) scale(0.697382)"/>
      <use xlink:href="#CMR17-5b" transform="translate(130.076544 0) scale(0.996264)"/>
      <use xlink:href="#CMMI12-19" transform="translate(154.947602 0) scale(0.996264)"/>
      <use xlink:href="#CMR17-5d" transform="translate(213.858203 0) scale(0.996264)"/>
     </g>
    </g>
   </g>
   <g id="PatchCollection_1">
    <path d="M 51.999876 62.730015 
L 52.00805 62.730015 
L 52.00805 62.674233 
L 51.999876 62.674233 
z
" clip-path="url(#p753003fb84)" style="fill: #e3e7eb; stroke: #333333; stroke-width: 0.5"/>
    <path d="M 51.995789 62.674233 
L 52.012137 62.674233 
L 52.012137 62.609487 
L 51.995789 62.609487 
z
" clip-path="url(#p753003fb84)" style="fill: #e0e5ea; stroke: #333333; stroke-width: 0.5"/>
    <path d="M 51.987615 62.609487 
L 52.02031 62.609487 
L 52.02031 62.508026 
L 51.987615 62.508026 
z
" clip-path="url(#p753003fb84)" style="fill: #dce1e7; stroke: #333333; stroke-width: 0.5"/>
    <path d="M 51.971267 62.508026 
L 52.036658 62.508026 
L 52.036658 62.383459 
L 51.971267 62.383459 
z
" clip-path="url(#p753003fb84)" style="fill: #d7dee5; stroke: #333333; stroke-width: 0.5"/>
    <path d="M 51.938572 62.383459 
L 52.069353 62.383459 
L 52.069353 62.033491 
L 51.938572 62.033491 
z
" clip-path="url(#p753003fb84)" style="fill: #d1d9e1; stroke: #333333; stroke-width: 0.5"/>
    <path d="M 51.873182 62.033491 
L 52.134744 62.033491 
L 52.134744 61.459231 
L 51.873182 61.459231 
z
" clip-path="url(#p753003fb84)" style="fill: #c8d2dd; stroke: #333333; stroke-width: 0.5"/>
    <path d="M 51.7424 61.459231 
L 52.265525 61.459231 
L 52.265525 60.883039 
L 51.7424 60.883039 
z
" clip-path="url(#p753003fb84)" style="fill: #becbd7; stroke: #333333; stroke-width: 0.5"/>
    <path d="M 51.480838 60.883039 
L 52.527088 60.883039 
L 52.527088 60.421036 
L 51.480838 60.421036 
z
" clip-path="url(#p753003fb84)" style="fill: #b1c0d0; stroke: #333333; stroke-width: 0.5"/>
    <path d="M 50.957713 60.421036 
L 53.050213 60.421036 
L 53.050213 59.296228 
L 50.957713 59.296228 
z
" clip-path="url(#p753003fb84)" style="fill: #a0b4c7; stroke: #333333; stroke-width: 0.5"/>
    <path d="M 49.911463 59.296228 
L 54.096463 59.296228 
L 54.096463 57.54604 
L 49.911463 57.54604 
z
" clip-path="url(#p753003fb84)" style="fill: #8ba4bc; stroke: #333333; stroke-width: 0.5"/>
    <path d="M 47.818963 57.54604 
L 56.188963 57.54604 
L 56.188963 55.05296 
L 47.818963 55.05296 
z
" clip-path="url(#p753003fb84)" style="fill: #7190af; stroke: #333333; stroke-width: 0.5"/>
    <path d="M 43.633963 55.05296 
L 60.373963 55.05296 
L 60.373963 45.142731 
L 43.633963 45.142731 
z
" clip-path="url(#p753003fb84)" style="fill: #51779d; stroke: #333333; stroke-width: 0.5"/>
    <path d="M 47.818963 45.142731 
L 56.188963 45.142731 
L 56.188963 40.710709 
L 47.818963 40.710709 
z
" clip-path="url(#p753003fb84)" style="fill: #7190af; stroke: #333333; stroke-width: 0.5"/>
    <path d="M 49.911463 40.710709 
L 54.096463 40.710709 
L 54.096463 37.594382 
L 49.911463 37.594382 
z
" clip-path="url(#p753003fb84)" style="fill: #8ba4bc; stroke: #333333; stroke-width: 0.5"/>
    <path d="M 50.957713 37.594382 
L 53.050213 37.594382 
L 53.050213 35.63117 
L 50.957713 35.63117 
z
" clip-path="url(#p753003fb84)" style="fill: #a0b4c7; stroke: #333333; stroke-width: 0.5"/>
    <path d="M 51.480838 35.63117 
L 52.527088 35.63117 
L 52.527088 33.047037 
L 51.480838 33.047037 
z
" clip-path="url(#p753003fb84)" style="fill: #b1c0d0; stroke: #333333; stroke-width: 0.5"/>
    <path d="M 51.7424 33.047037 
L 52.265525 33.047037 
L 52.265525 30.624968 
L 51.7424 30.624968 
z
" clip-path="url(#p753003fb84)" style="fill: #becbd7; stroke: #333333; stroke-width: 0.5"/>
    <path d="M 51.873182 30.624968 
L 52.134744 30.624968 
L 52.134744 29.939354 
L 51.873182 29.939354 
z
" clip-path="url(#p753003fb84)" style="fill: #c8d2dd; stroke: #333333; stroke-width: 0.5"/>
    <path d="M 51.938572 29.939354 
L 52.069353 29.939354 
L 52.069353 29.297229 
L 51.938572 29.297229 
z
" clip-path="url(#p753003fb84)" style="fill: #d1d9e1; stroke: #333333; stroke-width: 0.5"/>
    <path d="M 51.971267 29.297229 
L 52.036658 29.297229 
L 52.036658 27.179199 
L 51.971267 27.179199 
z
" clip-path="url(#p753003fb84)" style="fill: #d7dee5; stroke: #333333; stroke-width: 0.5"/>
    <path d="M 51.987615 27.179199 
L 52.02031 27.179199 
L 52.02031 26.929188 
L 51.987615 26.929188 
z
" clip-path="url(#p753003fb84)" style="fill: #dce1e7; stroke: #333333; stroke-width: 0.5"/>
    <path d="M 51.995789 26.929188 
L 52.012137 26.929188 
L 52.012137 26.79321 
L 51.995789 26.79321 
z
" clip-path="url(#p753003fb84)" style="fill: #e0e5ea; stroke: #333333; stroke-width: 0.5"/>
    <path d="M 51.999876 26.79321 
L 52.00805 26.79321 
L 52.00805 26.682164 
L 51.999876 26.682164 
z
" clip-path="url(#p753003fb84)" style="fill: #e3e7eb; stroke: #333333; stroke-width: 0.5"/>
   </g>
   <g id="PatchCollection_2">
    <path d="M 72.924876 88.607425 
L 72.93305 88.607425 
L 72.93305 88.471563 
L 72.924876 88.471563 
z
" clip-path="url(#p753003fb84)" style="fill: #e3e7eb; stroke: #333333; stroke-width: 0.5"/>
    <path d="M 72.920789 88.471563 
L 72.937137 88.471563 
L 72.937137 88.339805 
L 72.920789 88.339805 
z
" clip-path="url(#p753003fb84)" style="fill: #e0e5ea; stroke: #333333; stroke-width: 0.5"/>
    <path d="M 72.912615 88.339805 
L 72.94531 88.339805 
L 72.94531 88.170164 
L 72.912615 88.170164 
z
" clip-path="url(#p753003fb84)" style="fill: #dce1e7; stroke: #333333; stroke-width: 0.5"/>
    <path d="M 72.896267 88.170164 
L 72.961658 88.170164 
L 72.961658 86.856843 
L 72.896267 86.856843 
z
" clip-path="url(#p753003fb84)" style="fill: #d7dee5; stroke: #333333; stroke-width: 0.5"/>
    <path d="M 72.863572 86.856843 
L 72.994353 86.856843 
L 72.994353 84.642342 
L 72.863572 84.642342 
z
" clip-path="url(#p753003fb84)" style="fill: #d1d9e1; stroke: #333333; stroke-width: 0.5"/>
    <path d="M 72.798182 84.642342 
L 73.059744 84.642342 
L 73.059744 83.968737 
L 72.798182 83.968737 
z
" clip-path="url(#p753003fb84)" style="fill: #c8d2dd; stroke: #333333; stroke-width: 0.5"/>
    <path d="M 72.6674 83.968737 
L 73.190525 83.968737 
L 73.190525 82.516447 
L 72.6674 82.516447 
z
" clip-path="url(#p753003fb84)" style="fill: #becbd7; stroke: #333333; stroke-width: 0.5"/>
    <path d="M 72.405838 82.516447 
L 73.452088 82.516447 
L 73.452088 78.63567 
L 72.405838 78.63567 
z
" clip-path="url(#p753003fb84)" style="fill: #b1c0d0; stroke: #333333; stroke-width: 0.5"/>
    <path d="M 71.882713 78.63567 
L 73.975213 78.63567 
L 73.975213 75.115659 
L 71.882713 75.115659 
z
" clip-path="url(#p753003fb84)" style="fill: #a0b4c7; stroke: #333333; stroke-width: 0.5"/>
    <path d="M 70.836463 75.115659 
L 75.021463 75.115659 
L 75.021463 71.576843 
L 70.836463 71.576843 
z
" clip-path="url(#p753003fb84)" style="fill: #8ba4bc; stroke: #333333; stroke-width: 0.5"/>
    <path d="M 68.743963 71.576843 
L 77.113963 71.576843 
L 77.113963 67.784978 
L 68.743963 67.784978 
z
" clip-path="url(#p753003fb84)" style="fill: #7190af; stroke: #333333; stroke-width: 0.5"/>
    <path d="M 64.558963 67.784978 
L 81.298963 67.784978 
L 81.298963 48.260181 
L 64.558963 48.260181 
z
" clip-path="url(#p753003fb84)" style="fill: #51779d; stroke: #333333; stroke-width: 0.5"/>
    <path d="M 68.743963 48.260181 
L 77.113963 48.260181 
L 77.113963 37.40619 
L 68.743963 37.40619 
z
" clip-path="url(#p753003fb84)" style="fill: #7190af; stroke: #333333; stroke-width: 0.5"/>
    <path d="M 70.836463 37.40619 
L 75.021463 37.40619 
L 75.021463 23.688816 
L 70.836463 23.688816 
z
" clip-path="url(#p753003fb84)" style="fill: #8ba4bc; stroke: #333333; stroke-width: 0.5"/>
    <path d="M 71.882713 23.688816 
L 73.975213 23.688816 
L 73.975213 15.650939 
L 71.882713 15.650939 
z
" clip-path="url(#p753003fb84)" style="fill: #a0b4c7; stroke: #333333; stroke-width: 0.5"/>
    <path d="M 72.405838 15.650939 
L 73.452088 15.650939 
L 73.452088 10.820266 
L 72.405838 10.820266 
z
" clip-path="url(#p753003fb84)" style="fill: #b1c0d0; stroke: #333333; stroke-width: 0.5"/>
    <path d="M 72.6674 10.820266 
L 73.190525 10.820266 
L 73.190525 9.074296 
L 72.6674 9.074296 
z
" clip-path="url(#p753003fb84)" style="fill: #becbd7; stroke: #333333; stroke-width: 0.5"/>
    <path d="M 72.798182 9.074296 
L 73.059744 9.074296 
L 73.059744 7.327711 
L 72.798182 7.327711 
z
" clip-path="url(#p753003fb84)" style="fill: #c8d2dd; stroke: #333333; stroke-width: 0.5"/>
    <path d="M 72.863572 7.327711 
L 72.994353 7.327711 
L 72.994353 6.47055 
L 72.863572 6.47055 
z
" clip-path="url(#p753003fb84)" style="fill: #d1d9e1; stroke: #333333; stroke-width: 0.5"/>
    <path d="M 72.896267 6.47055 
L 72.961658 6.47055 
L 72.961658 5.933855 
L 72.896267 5.933855 
z
" clip-path="url(#p753003fb84)" style="fill: #d7dee5; stroke: #333333; stroke-width: 0.5"/>
    <path d="M 72.912615 5.933855 
L 72.94531 5.933855 
L 72.94531 5.528759 
L 72.912615 5.528759 
z
" clip-path="url(#p753003fb84)" style="fill: #dce1e7; stroke: #333333; stroke-width: 0.5"/>
    <path d="M 72.920789 5.528759 
L 72.937137 5.528759 
L 72.937137 5.263576 
L 72.920789 5.263576 
z
" clip-path="url(#p753003fb84)" style="fill: #e0e5ea; stroke: #333333; stroke-width: 0.5"/>
    <path d="M 72.924876 5.263576 
L 72.93305 5.263576 
L 72.93305 5.114143 
L 72.924876 5.114143 
z
" clip-path="url(#p753003fb84)" style="fill: #e3e7eb; stroke: #333333; stroke-width: 0.5"/>
   </g>
   <g id="PatchCollection_3">
    <path d="M 93.849876 93.543581 
L 93.85805 93.543581 
L 93.85805 93.430916 
L 93.849876 93.430916 
z
" clip-path="url(#p753003fb84)" style="fill: #e3e7eb; stroke: #333333; stroke-width: 0.5"/>
    <path d="M 93.845789 93.430916 
L 93.862137 93.430916 
L 93.862137 93.279347 
L 93.845789 93.279347 
z
" clip-path="url(#p753003fb84)" style="fill: #e0e5ea; stroke: #333333; stroke-width: 0.5"/>
    <path d="M 93.837615 93.279347 
L 93.87031 93.279347 
L 93.87031 93.076704 
L 93.837615 93.076704 
z
" clip-path="url(#p753003fb84)" style="fill: #dce1e7; stroke: #333333; stroke-width: 0.5"/>
    <path d="M 93.821267 93.076704 
L 93.886658 93.076704 
L 93.886658 91.843629 
L 93.821267 91.843629 
z
" clip-path="url(#p753003fb84)" style="fill: #d7dee5; stroke: #333333; stroke-width: 0.5"/>
    <path d="M 93.788572 91.843629 
L 93.919353 91.843629 
L 93.919353 88.073487 
L 93.788572 88.073487 
z
" clip-path="url(#p753003fb84)" style="fill: #d1d9e1; stroke: #333333; stroke-width: 0.5"/>
    <path d="M 93.723182 88.073487 
L 93.984744 88.073487 
L 93.984744 85.740948 
L 93.723182 85.740948 
z
" clip-path="url(#p753003fb84)" style="fill: #c8d2dd; stroke: #333333; stroke-width: 0.5"/>
    <path d="M 93.5924 85.740948 
L 94.115525 85.740948 
L 94.115525 83.752154 
L 93.5924 83.752154 
z
" clip-path="url(#p753003fb84)" style="fill: #becbd7; stroke: #333333; stroke-width: 0.5"/>
    <path d="M 93.330838 83.752154 
L 94.377088 83.752154 
L 94.377088 79.906296 
L 93.330838 79.906296 
z
" clip-path="url(#p753003fb84)" style="fill: #b1c0d0; stroke: #333333; stroke-width: 0.5"/>
    <path d="M 92.807713 79.906296 
L 94.900213 79.906296 
L 94.900213 76.580883 
L 92.807713 76.580883 
z
" clip-path="url(#p753003fb84)" style="fill: #a0b4c7; stroke: #333333; stroke-width: 0.5"/>
    <path d="M 91.761463 76.580883 
L 95.946463 76.580883 
L 95.946463 73.730365 
L 91.761463 73.730365 
z
" clip-path="url(#p753003fb84)" style="fill: #8ba4bc; stroke: #333333; stroke-width: 0.5"/>
    <path d="M 89.668963 73.730365 
L 98.038963 73.730365 
L 98.038963 70.767898 
L 89.668963 70.767898 
z
" clip-path="url(#p753003fb84)" style="fill: #7190af; stroke: #333333; stroke-width: 0.5"/>
    <path d="M 85.483963 70.767898 
L 102.223963 70.767898 
L 102.223963 54.091636 
L 85.483963 54.091636 
z
" clip-path="url(#p753003fb84)" style="fill: #51779d; stroke: #333333; stroke-width: 0.5"/>
    <path d="M 89.668963 54.091636 
L 98.038963 54.091636 
L 98.038963 40.314542 
L 89.668963 40.314542 
z
" clip-path="url(#p753003fb84)" style="fill: #7190af; stroke: #333333; stroke-width: 0.5"/>
    <path d="M 91.761463 40.314542 
L 95.946463 40.314542 
L 95.946463 25.830654 
L 91.761463 25.830654 
z
" clip-path="url(#p753003fb84)" style="fill: #8ba4bc; stroke: #333333; stroke-width: 0.5"/>
    <path d="M 92.807713 25.830654 
L 94.900213 25.830654 
L 94.900213 12.054217 
L 92.807713 12.054217 
z
" clip-path="url(#p753003fb84)" style="fill: #a0b4c7; stroke: #333333; stroke-width: 0.5"/>
    <path d="M 93.330838 12.054217 
L 94.377088 12.054217 
L 94.377088 6.44583 
L 93.330838 6.44583 
z
" clip-path="url(#p753003fb84)" style="fill: #b1c0d0; stroke: #333333; stroke-width: 0.5"/>
    <path d="M 93.5924 6.44583 
L 94.115525 6.44583 
L 94.115525 -0.912488 
L 93.5924 -0.912488 
z
" clip-path="url(#p753003fb84)" style="fill: #becbd7; stroke: #333333; stroke-width: 0.5"/>
    <path d="M 93.723182 -0.912488 
L 93.984744 -0.912488 
L 93.984744 -3.953517 
L 93.723182 -3.953517 
z
" clip-path="url(#p753003fb84)" style="fill: #c8d2dd; stroke: #333333; stroke-width: 0.5"/>
    <path d="M 93.788572 -3.953517 
L 93.919353 -3.953517 
L 93.919353 -5.84069 
L 93.788572 -5.84069 
z
" clip-path="url(#p753003fb84)" style="fill: #d1d9e1; stroke: #333333; stroke-width: 0.5"/>
    <path d="M 93.821267 -5.84069 
L 93.886658 -5.84069 
L 93.886658 -6.382173 
L 93.821267 -6.382173 
z
" clip-path="url(#p753003fb84)" style="fill: #d7dee5; stroke: #333333; stroke-width: 0.5"/>
    <path d="M 93.837615 -6.382173 
L 93.87031 -6.382173 
L 93.87031 -6.766025 
L 93.837615 -6.766025 
z
" clip-path="url(#p753003fb84)" style="fill: #dce1e7; stroke: #333333; stroke-width: 0.5"/>
    <path d="M 93.845789 -6.766025 
L 93.862137 -6.766025 
L 93.862137 -7.016106 
L 93.845789 -7.016106 
z
" clip-path="url(#p753003fb84)" style="fill: #e0e5ea; stroke: #333333; stroke-width: 0.5"/>
    <path d="M 93.849876 -7.016106 
L 93.85805 -7.016106 
L 93.85805 -7.165696 
L 93.849876 -7.165696 
z
" clip-path="url(#p753003fb84)" style="fill: #e3e7eb; stroke: #333333; stroke-width: 0.5"/>
   </g>
   <g id="PatchCollection_4">
    <path d="M 114.774876 88.547856 
L 114.78305 88.547856 
L 114.78305 88.430714 
L 114.774876 88.430714 
z
" clip-path="url(#p753003fb84)" style="fill: #e3e7eb; stroke: #333333; stroke-width: 0.5"/>
    <path d="M 114.770789 88.430714 
L 114.787137 88.430714 
L 114.787137 88.253117 
L 114.770789 88.253117 
z
" clip-path="url(#p753003fb84)" style="fill: #e0e5ea; stroke: #333333; stroke-width: 0.5"/>
    <path d="M 114.762615 88.253117 
L 114.79531 88.253117 
L 114.79531 88.071373 
L 114.762615 88.071373 
z
" clip-path="url(#p753003fb84)" style="fill: #dce1e7; stroke: #333333; stroke-width: 0.5"/>
    <path d="M 114.746267 88.071373 
L 114.811658 88.071373 
L 114.811658 87.556018 
L 114.746267 87.556018 
z
" clip-path="url(#p753003fb84)" style="fill: #d7dee5; stroke: #333333; stroke-width: 0.5"/>
    <path d="M 114.713572 87.556018 
L 114.844353 87.556018 
L 114.844353 87.009547 
L 114.713572 87.009547 
z
" clip-path="url(#p753003fb84)" style="fill: #d1d9e1; stroke: #333333; stroke-width: 0.5"/>
    <path d="M 114.648182 87.009547 
L 114.909744 87.009547 
L 114.909744 86.308541 
L 114.648182 86.308541 
z
" clip-path="url(#p753003fb84)" style="fill: #c8d2dd; stroke: #333333; stroke-width: 0.5"/>
    <path d="M 114.5174 86.308541 
L 115.040525 86.308541 
L 115.040525 85.042267 
L 114.5174 85.042267 
z
" clip-path="url(#p753003fb84)" style="fill: #becbd7; stroke: #333333; stroke-width: 0.5"/>
    <path d="M 114.255838 85.042267 
L 115.302088 85.042267 
L 115.302088 83.986663 
L 114.255838 83.986663 
z
" clip-path="url(#p753003fb84)" style="fill: #b1c0d0; stroke: #333333; stroke-width: 0.5"/>
    <path d="M 113.732713 83.986663 
L 115.825213 83.986663 
L 115.825213 82.265238 
L 113.732713 82.265238 
z
" clip-path="url(#p753003fb84)" style="fill: #a0b4c7; stroke: #333333; stroke-width: 0.5"/>
    <path d="M 112.686463 82.265238 
L 116.871463 82.265238 
L 116.871463 80.822772 
L 112.686463 80.822772 
z
" clip-path="url(#p753003fb84)" style="fill: #8ba4bc; stroke: #333333; stroke-width: 0.5"/>
    <path d="M 110.593963 80.822772 
L 118.963963 80.822772 
L 118.963963 79.143891 
L 110.593963 79.143891 
z
" clip-path="url(#p753003fb84)" style="fill: #7190af; stroke: #333333; stroke-width: 0.5"/>
    <path d="M 106.408963 79.143891 
L 123.148963 79.143891 
L 123.148963 72.615205 
L 106.408963 72.615205 
z
" clip-path="url(#p753003fb84)" style="fill: #51779d; stroke: #333333; stroke-width: 0.5"/>
    <path d="M 110.593963 72.615205 
L 118.963963 72.615205 
L 118.963963 67.362978 
L 110.593963 67.362978 
z
" clip-path="url(#p753003fb84)" style="fill: #7190af; stroke: #333333; stroke-width: 0.5"/>
    <path d="M 112.686463 67.362978 
L 116.871463 67.362978 
L 116.871463 60.969027 
L 112.686463 60.969027 
z
" clip-path="url(#p753003fb84)" style="fill: #8ba4bc; stroke: #333333; stroke-width: 0.5"/>
    <path d="M 113.732713 60.969027 
L 115.825213 60.969027 
L 115.825213 52.275197 
L 113.732713 52.275197 
z
" clip-path="url(#p753003fb84)" style="fill: #a0b4c7; stroke: #333333; stroke-width: 0.5"/>
    <path d="M 114.255838 52.275197 
L 115.302088 52.275197 
L 115.302088 42.581212 
L 114.255838 42.581212 
z
" clip-path="url(#p753003fb84)" style="fill: #b1c0d0; stroke: #333333; stroke-width: 0.5"/>
    <path d="M 114.5174 42.581212 
L 115.040525 42.581212 
L 115.040525 32.080302 
L 114.5174 32.080302 
z
" clip-path="url(#p753003fb84)" style="fill: #becbd7; stroke: #333333; stroke-width: 0.5"/>
    <path d="M 114.648182 32.080302 
L 114.909744 32.080302 
L 114.909744 20.308634 
L 114.648182 20.308634 
z
" clip-path="url(#p753003fb84)" style="fill: #c8d2dd; stroke: #333333; stroke-width: 0.5"/>
    <path d="M 114.713572 20.308634 
L 114.844353 20.308634 
L 114.844353 17.97183 
L 114.713572 17.97183 
z
" clip-path="url(#p753003fb84)" style="fill: #d1d9e1; stroke: #333333; stroke-width: 0.5"/>
    <path d="M 114.746267 17.97183 
L 114.811658 17.97183 
L 114.811658 16.067055 
L 114.746267 16.067055 
z
" clip-path="url(#p753003fb84)" style="fill: #d7dee5; stroke: #333333; stroke-width: 0.5"/>
    <path d="M 114.762615 16.067055 
L 114.79531 16.067055 
L 114.79531 15.201345 
L 114.762615 15.201345 
z
" clip-path="url(#p753003fb84)" style="fill: #dce1e7; stroke: #333333; stroke-width: 0.5"/>
    <path d="M 114.770789 15.201345 
L 114.787137 15.201345 
L 114.787137 14.740566 
L 114.770789 14.740566 
z
" clip-path="url(#p753003fb84)" style="fill: #e0e5ea; stroke: #333333; stroke-width: 0.5"/>
    <path d="M 114.774876 14.740566 
L 114.78305 14.740566 
L 114.78305 14.477728 
L 114.774876 14.477728 
z
" clip-path="url(#p753003fb84)" style="fill: #e3e7eb; stroke: #333333; stroke-width: 0.5"/>
   </g>
   <g id="PatchCollection_5">
    <path d="M 135.699876 95.570789 
L 135.70805 95.570789 
L 135.70805 95.461031 
L 135.699876 95.461031 
z
" clip-path="url(#p753003fb84)" style="fill: #e3e7eb; stroke: #333333; stroke-width: 0.5"/>
    <path d="M 135.695789 95.461031 
L 135.712137 95.461031 
L 135.712137 95.289564 
L 135.695789 95.289564 
z
" clip-path="url(#p753003fb84)" style="fill: #e0e5ea; stroke: #333333; stroke-width: 0.5"/>
    <path d="M 135.687615 95.289564 
L 135.72031 95.289564 
L 135.72031 95.012762 
L 135.687615 95.012762 
z
" clip-path="url(#p753003fb84)" style="fill: #dce1e7; stroke: #333333; stroke-width: 0.5"/>
    <path d="M 135.671267 95.012762 
L 135.736658 95.012762 
L 135.736658 94.596996 
L 135.671267 94.596996 
z
" clip-path="url(#p753003fb84)" style="fill: #d7dee5; stroke: #333333; stroke-width: 0.5"/>
    <path d="M 135.638572 94.596996 
L 135.769353 94.596996 
L 135.769353 93.651441 
L 135.638572 93.651441 
z
" clip-path="url(#p753003fb84)" style="fill: #d1d9e1; stroke: #333333; stroke-width: 0.5"/>
    <path d="M 135.573182 93.651441 
L 135.834744 93.651441 
L 135.834744 92.60756 
L 135.573182 92.60756 
z
" clip-path="url(#p753003fb84)" style="fill: #c8d2dd; stroke: #333333; stroke-width: 0.5"/>
    <path d="M 135.4424 92.60756 
L 135.965525 92.60756 
L 135.965525 91.907363 
L 135.4424 91.907363 
z
" clip-path="url(#p753003fb84)" style="fill: #becbd7; stroke: #333333; stroke-width: 0.5"/>
    <path d="M 135.180838 91.907363 
L 136.227088 91.907363 
L 136.227088 91.275064 
L 135.180838 91.275064 
z
" clip-path="url(#p753003fb84)" style="fill: #b1c0d0; stroke: #333333; stroke-width: 0.5"/>
    <path d="M 134.657713 91.275064 
L 136.750213 91.275064 
L 136.750213 90.580433 
L 134.657713 90.580433 
z
" clip-path="url(#p753003fb84)" style="fill: #a0b4c7; stroke: #333333; stroke-width: 0.5"/>
    <path d="M 133.611463 90.580433 
L 137.796463 90.580433 
L 137.796463 89.377673 
L 133.611463 89.377673 
z
" clip-path="url(#p753003fb84)" style="fill: #8ba4bc; stroke: #333333; stroke-width: 0.5"/>
    <path d="M 131.518963 89.377673 
L 139.888963 89.377673 
L 139.888963 87.899909 
L 131.518963 87.899909 
z
" clip-path="url(#p753003fb84)" style="fill: #7190af; stroke: #333333; stroke-width: 0.5"/>
    <path d="M 127.333963 87.899909 
L 144.073963 87.899909 
L 144.073963 81.849348 
L 127.333963 81.849348 
z
" clip-path="url(#p753003fb84)" style="fill: #51779d; stroke: #333333; stroke-width: 0.5"/>
    <path d="M 131.518963 81.849348 
L 139.888963 81.849348 
L 139.888963 78.196445 
L 131.518963 78.196445 
z
" clip-path="url(#p753003fb84)" style="fill: #7190af; stroke: #333333; stroke-width: 0.5"/>
    <path d="M 133.611463 78.196445 
L 137.796463 78.196445 
L 137.796463 74.405275 
L 133.611463 74.405275 
z
" clip-path="url(#p753003fb84)" style="fill: #8ba4bc; stroke: #333333; stroke-width: 0.5"/>
    <path d="M 134.657713 74.405275 
L 136.750213 74.405275 
L 136.750213 69.649198 
L 134.657713 69.649198 
z
" clip-path="url(#p753003fb84)" style="fill: #a0b4c7; stroke: #333333; stroke-width: 0.5"/>
    <path d="M 135.180838 69.649198 
L 136.227088 69.649198 
L 136.227088 60.485545 
L 135.180838 60.485545 
z
" clip-path="url(#p753003fb84)" style="fill: #b1c0d0; stroke: #333333; stroke-width: 0.5"/>
    <path d="M 135.4424 60.485545 
L 135.965525 60.485545 
L 135.965525 49.675554 
L 135.4424 49.675554 
z
" clip-path="url(#p753003fb84)" style="fill: #becbd7; stroke: #333333; stroke-width: 0.5"/>
    <path d="M 135.573182 49.675554 
L 135.834744 49.675554 
L 135.834744 39.821322 
L 135.573182 39.821322 
z
" clip-path="url(#p753003fb84)" style="fill: #c8d2dd; stroke: #333333; stroke-width: 0.5"/>
    <path d="M 135.638572 39.821322 
L 135.769353 39.821322 
L 135.769353 38.524924 
L 135.638572 38.524924 
z
" clip-path="url(#p753003fb84)" style="fill: #d1d9e1; stroke: #333333; stroke-width: 0.5"/>
    <path d="M 135.671267 38.524924 
L 135.736658 38.524924 
L 135.736658 37.62885 
L 135.671267 37.62885 
z
" clip-path="url(#p753003fb84)" style="fill: #d7dee5; stroke: #333333; stroke-width: 0.5"/>
    <path d="M 135.687615 37.62885 
L 135.72031 37.62885 
L 135.72031 37.069722 
L 135.687615 37.069722 
z
" clip-path="url(#p753003fb84)" style="fill: #dce1e7; stroke: #333333; stroke-width: 0.5"/>
    <path d="M 135.695789 37.069722 
L 135.712137 37.069722 
L 135.712137 36.296754 
L 135.695789 36.296754 
z
" clip-path="url(#p753003fb84)" style="fill: #e0e5ea; stroke: #333333; stroke-width: 0.5"/>
    <path d="M 135.699876 36.296754 
L 135.70805 36.296754 
L 135.70805 35.874853 
L 135.699876 35.874853 
z
" clip-path="url(#p753003fb84)" style="fill: #e3e7eb; stroke: #333333; stroke-width: 0.5"/>
   </g>
   <g id="PatchCollection_6">
    <path d="M 156.624876 100.667395 
L 156.63305 100.667395 
L 156.63305 100.466262 
L 156.624876 100.466262 
z
" clip-path="url(#p753003fb84)" style="fill: #e3e7eb; stroke: #333333; stroke-width: 0.5"/>
    <path d="M 156.620789 100.466262 
L 156.637137 100.466262 
L 156.637137 100.030063 
L 156.620789 100.030063 
z
" clip-path="url(#p753003fb84)" style="fill: #e0e5ea; stroke: #333333; stroke-width: 0.5"/>
    <path d="M 156.612615 100.030063 
L 156.64531 100.030063 
L 156.64531 99.711462 
L 156.612615 99.711462 
z
" clip-path="url(#p753003fb84)" style="fill: #dce1e7; stroke: #333333; stroke-width: 0.5"/>
    <path d="M 156.596267 99.711462 
L 156.661658 99.711462 
L 156.661658 99.361157 
L 156.596267 99.361157 
z
" clip-path="url(#p753003fb84)" style="fill: #d7dee5; stroke: #333333; stroke-width: 0.5"/>
    <path d="M 156.563572 99.361157 
L 156.694353 99.361157 
L 156.694353 98.992687 
L 156.563572 98.992687 
z
" clip-path="url(#p753003fb84)" style="fill: #d1d9e1; stroke: #333333; stroke-width: 0.5"/>
    <path d="M 156.498182 98.992687 
L 156.759744 98.992687 
L 156.759744 98.489414 
L 156.498182 98.489414 
z
" clip-path="url(#p753003fb84)" style="fill: #c8d2dd; stroke: #333333; stroke-width: 0.5"/>
    <path d="M 156.3674 98.489414 
L 156.890525 98.489414 
L 156.890525 97.955301 
L 156.3674 97.955301 
z
" clip-path="url(#p753003fb84)" style="fill: #becbd7; stroke: #333333; stroke-width: 0.5"/>
    <path d="M 156.105838 97.955301 
L 157.152088 97.955301 
L 157.152088 97.323266 
L 156.105838 97.323266 
z
" clip-path="url(#p753003fb84)" style="fill: #b1c0d0; stroke: #333333; stroke-width: 0.5"/>
    <path d="M 155.582713 97.323266 
L 157.675213 97.323266 
L 157.675213 96.546785 
L 155.582713 96.546785 
z
" clip-path="url(#p753003fb84)" style="fill: #a0b4c7; stroke: #333333; stroke-width: 0.5"/>
    <path d="M 154.536463 96.546785 
L 158.721463 96.546785 
L 158.721463 95.539139 
L 154.536463 95.539139 
z
" clip-path="url(#p753003fb84)" style="fill: #8ba4bc; stroke: #333333; stroke-width: 0.5"/>
    <path d="M 152.443963 95.539139 
L 160.813963 95.539139 
L 160.813963 94.185392 
L 152.443963 94.185392 
z
" clip-path="url(#p753003fb84)" style="fill: #7190af; stroke: #333333; stroke-width: 0.5"/>
    <path d="M 148.258963 94.185392 
L 164.998963 94.185392 
L 164.998963 88.972569 
L 148.258963 88.972569 
z
" clip-path="url(#p753003fb84)" style="fill: #51779d; stroke: #333333; stroke-width: 0.5"/>
    <path d="M 152.443963 88.972569 
L 160.813963 88.972569 
L 160.813963 86.088354 
L 152.443963 86.088354 
z
" clip-path="url(#p753003fb84)" style="fill: #7190af; stroke: #333333; stroke-width: 0.5"/>
    <path d="M 154.536463 86.088354 
L 158.721463 86.088354 
L 158.721463 82.720264 
L 154.536463 82.720264 
z
" clip-path="url(#p753003fb84)" style="fill: #8ba4bc; stroke: #333333; stroke-width: 0.5"/>
    <path d="M 155.582713 82.720264 
L 157.675213 82.720264 
L 157.675213 77.163686 
L 155.582713 77.163686 
z
" clip-path="url(#p753003fb84)" style="fill: #a0b4c7; stroke: #333333; stroke-width: 0.5"/>
    <path d="M 156.105838 77.163686 
L 157.152088 77.163686 
L 157.152088 72.81935 
L 156.105838 72.81935 
z
" clip-path="url(#p753003fb84)" style="fill: #b1c0d0; stroke: #333333; stroke-width: 0.5"/>
    <path d="M 156.3674 72.81935 
L 156.890525 72.81935 
L 156.890525 59.335515 
L 156.3674 59.335515 
z
" clip-path="url(#p753003fb84)" style="fill: #becbd7; stroke: #333333; stroke-width: 0.5"/>
    <path d="M 156.498182 59.335515 
L 156.759744 59.335515 
L 156.759744 55.293045 
L 156.498182 55.293045 
z
" clip-path="url(#p753003fb84)" style="fill: #c8d2dd; stroke: #333333; stroke-width: 0.5"/>
    <path d="M 156.563572 55.293045 
L 156.694353 55.293045 
L 156.694353 51.922815 
L 156.563572 51.922815 
z
" clip-path="url(#p753003fb84)" style="fill: #d1d9e1; stroke: #333333; stroke-width: 0.5"/>
    <path d="M 156.596267 51.922815 
L 156.661658 51.922815 
L 156.661658 50.60058 
L 156.596267 50.60058 
z
" clip-path="url(#p753003fb84)" style="fill: #d7dee5; stroke: #333333; stroke-width: 0.5"/>
    <path d="M 156.612615 50.60058 
L 156.64531 50.60058 
L 156.64531 49.98401 
L 156.612615 49.98401 
z
" clip-path="url(#p753003fb84)" style="fill: #dce1e7; stroke: #333333; stroke-width: 0.5"/>
    <path d="M 156.620789 49.98401 
L 156.637137 49.98401 
L 156.637137 49.509266 
L 156.620789 49.509266 
z
" clip-path="url(#p753003fb84)" style="fill: #e0e5ea; stroke: #333333; stroke-width: 0.5"/>
    <path d="M 156.624876 49.509266 
L 156.63305 49.509266 
L 156.63305 49.28071 
L 156.624876 49.28071 
z
" clip-path="url(#p753003fb84)" style="fill: #e3e7eb; stroke: #333333; stroke-width: 0.5"/>
   </g>
   <g id="PatchCollection_7">
    <path d="M 177.549876 106.425154 
L 177.55805 106.425154 
L 177.55805 106.082165 
L 177.549876 106.082165 
z
" clip-path="url(#p753003fb84)" style="fill: #e3e7eb; stroke: #333333; stroke-width: 0.5"/>
    <path d="M 177.545789 106.082165 
L 177.562137 106.082165 
L 177.562137 105.780998 
L 177.545789 105.780998 
z
" clip-path="url(#p753003fb84)" style="fill: #e0e5ea; stroke: #333333; stroke-width: 0.5"/>
    <path d="M 177.537615 105.780998 
L 177.57031 105.780998 
L 177.57031 105.350602 
L 177.537615 105.350602 
z
" clip-path="url(#p753003fb84)" style="fill: #dce1e7; stroke: #333333; stroke-width: 0.5"/>
    <path d="M 177.521267 105.350602 
L 177.586658 105.350602 
L 177.586658 103.72824 
L 177.521267 103.72824 
z
" clip-path="url(#p753003fb84)" style="fill: #d7dee5; stroke: #333333; stroke-width: 0.5"/>
    <path d="M 177.488572 103.72824 
L 177.619353 103.72824 
L 177.619353 103.036231 
L 177.488572 103.036231 
z
" clip-path="url(#p753003fb84)" style="fill: #d1d9e1; stroke: #333333; stroke-width: 0.5"/>
    <path d="M 177.423182 103.036231 
L 177.684744 103.036231 
L 177.684744 102.479638 
L 177.423182 102.479638 
z
" clip-path="url(#p753003fb84)" style="fill: #c8d2dd; stroke: #333333; stroke-width: 0.5"/>
    <path d="M 177.2924 102.479638 
L 177.815525 102.479638 
L 177.815525 101.767231 
L 177.2924 101.767231 
z
" clip-path="url(#p753003fb84)" style="fill: #becbd7; stroke: #333333; stroke-width: 0.5"/>
    <path d="M 177.030838 101.767231 
L 178.077088 101.767231 
L 178.077088 100.997257 
L 177.030838 100.997257 
z
" clip-path="url(#p753003fb84)" style="fill: #b1c0d0; stroke: #333333; stroke-width: 0.5"/>
    <path d="M 176.507713 100.997257 
L 178.600213 100.997257 
L 178.600213 100.18158 
L 176.507713 100.18158 
z
" clip-path="url(#p753003fb84)" style="fill: #a0b4c7; stroke: #333333; stroke-width: 0.5"/>
    <path d="M 175.461463 100.18158 
L 179.646463 100.18158 
L 179.646463 99.190351 
L 175.461463 99.190351 
z
" clip-path="url(#p753003fb84)" style="fill: #8ba4bc; stroke: #333333; stroke-width: 0.5"/>
    <path d="M 173.368963 99.190351 
L 181.738963 99.190351 
L 181.738963 97.897428 
L 173.368963 97.897428 
z
" clip-path="url(#p753003fb84)" style="fill: #7190af; stroke: #333333; stroke-width: 0.5"/>
    <path d="M 169.183963 97.897428 
L 185.923963 97.897428 
L 185.923963 93.199186 
L 169.183963 93.199186 
z
" clip-path="url(#p753003fb84)" style="fill: #51779d; stroke: #333333; stroke-width: 0.5"/>
    <path d="M 173.368963 93.199186 
L 181.738963 93.199186 
L 181.738963 90.871557 
L 173.368963 90.871557 
z
" clip-path="url(#p753003fb84)" style="fill: #7190af; stroke: #333333; stroke-width: 0.5"/>
    <path d="M 175.461463 90.871557 
L 179.646463 90.871557 
L 179.646463 88.125503 
L 175.461463 88.125503 
z
" clip-path="url(#p753003fb84)" style="fill: #8ba4bc; stroke: #333333; stroke-width: 0.5"/>
    <path d="M 176.507713 88.125503 
L 178.600213 88.125503 
L 178.600213 83.38513 
L 176.507713 83.38513 
z
" clip-path="url(#p753003fb84)" style="fill: #a0b4c7; stroke: #333333; stroke-width: 0.5"/>
    <path d="M 177.030838 83.38513 
L 178.077088 83.38513 
L 178.077088 78.335407 
L 177.030838 78.335407 
z
" clip-path="url(#p753003fb84)" style="fill: #b1c0d0; stroke: #333333; stroke-width: 0.5"/>
    <path d="M 177.2924 78.335407 
L 177.815525 78.335407 
L 177.815525 69.962997 
L 177.2924 69.962997 
z
" clip-path="url(#p753003fb84)" style="fill: #becbd7; stroke: #333333; stroke-width: 0.5"/>
    <path d="M 177.423182 69.962997 
L 177.684744 69.962997 
L 177.684744 62.569038 
L 177.423182 62.569038 
z
" clip-path="url(#p753003fb84)" style="fill: #c8d2dd; stroke: #333333; stroke-width: 0.5"/>
    <path d="M 177.488572 62.569038 
L 177.619353 62.569038 
L 177.619353 60.057827 
L 177.488572 60.057827 
z
" clip-path="url(#p753003fb84)" style="fill: #d1d9e1; stroke: #333333; stroke-width: 0.5"/>
    <path d="M 177.521267 60.057827 
L 177.586658 60.057827 
L 177.586658 58.112514 
L 177.521267 58.112514 
z
" clip-path="url(#p753003fb84)" style="fill: #d7dee5; stroke: #333333; stroke-width: 0.5"/>
    <path d="M 177.537615 58.112514 
L 177.57031 58.112514 
L 177.57031 56.798038 
L 177.537615 56.798038 
z
" clip-path="url(#p753003fb84)" style="fill: #dce1e7; stroke: #333333; stroke-width: 0.5"/>
    <path d="M 177.545789 56.798038 
L 177.562137 56.798038 
L 177.562137 55.908402 
L 177.545789 55.908402 
z
" clip-path="url(#p753003fb84)" style="fill: #e0e5ea; stroke: #333333; stroke-width: 0.5"/>
    <path d="M 177.549876 55.908402 
L 177.55805 55.908402 
L 177.55805 55.268638 
L 177.549876 55.268638 
z
" clip-path="url(#p753003fb84)" style="fill: #e3e7eb; stroke: #333333; stroke-width: 0.5"/>
   </g>
   <g id="line2d_96">
    <path d="M 43.633963 50.572887 
L 60.373963 50.572887 
" clip-path="url(#p753003fb84)" style="fill: none; stroke: #333333; stroke-width: 0.625"/>
   </g>
   <g id="line2d_97">
    <path d="M 64.558963 59.857772 
L 81.298963 59.857772 
" clip-path="url(#p753003fb84)" style="fill: none; stroke: #333333; stroke-width: 0.625"/>
   </g>
   <g id="line2d_98">
    <path d="M 85.483963 64.564635 
L 102.223963 64.564635 
" clip-path="url(#p753003fb84)" style="fill: none; stroke: #333333; stroke-width: 0.625"/>
   </g>
   <g id="line2d_99">
    <path d="M 106.408963 76.388477 
L 123.148963 76.388477 
" clip-path="url(#p753003fb84)" style="fill: none; stroke: #333333; stroke-width: 0.625"/>
   </g>
   <g id="line2d_100">
    <path d="M 127.333963 85.283501 
L 144.073963 85.283501 
" clip-path="url(#p753003fb84)" style="fill: none; stroke: #333333; stroke-width: 0.625"/>
   </g>
   <g id="line2d_101">
    <path d="M 148.258963 91.843022 
L 164.998963 91.843022 
" clip-path="url(#p753003fb84)" style="fill: none; stroke: #333333; stroke-width: 0.625"/>
   </g>
   <g id="line2d_102">
    <path d="M 169.183963 95.769956 
L 185.923963 95.769956 
" clip-path="url(#p753003fb84)" style="fill: none; stroke: #333333; stroke-width: 0.625"/>
   </g>
   <g id="patch_3">
    <path d="M 41.541463 112.7475 
L 41.541463 3.6 
" style="fill: none; stroke: #000000; stroke-width: 0.5; stroke-linejoin: miter; stroke-linecap: square"/>
   </g>
   <g id="patch_4">
    <path d="M 188.016463 112.7475 
L 188.016463 3.6 
" style="fill: none; stroke: #000000; stroke-width: 0.5; stroke-linejoin: miter; stroke-linecap: square"/>
   </g>
   <g id="patch_5">
    <path d="M 41.541463 112.7475 
L 188.016463 112.7475 
" style="fill: none; stroke: #000000; stroke-width: 0.5; stroke-linejoin: miter; stroke-linecap: square"/>
   </g>
   <g id="patch_6">
    <path d="M 41.541463 3.6 
L 188.016463 3.6 
" style="fill: none; stroke: #000000; stroke-width: 0.5; stroke-linejoin: miter; stroke-linecap: square"/>
   </g>
  </g>
 </g>
 <defs>
  <clipPath id="p753003fb84">
   <rect x="41.541463" y="3.6" width="146.475" height="109.1475"/>
  </clipPath>
 </defs>
</svg>
