<?xml version="1.0" encoding="utf-8" standalone="no"?>
<!DOCTYPE svg PUBLIC "-//W3C//DTD SVG 1.1//EN"
  "http://www.w3.org/Graphics/SVG/1.1/DTD/svg11.dtd">
<svg xmlns:xlink="http://www.w3.org/1999/xlink" width="175.012012pt" height="141.558853pt" viewBox="0 0 175.012012 141.558853" xmlns="http://www.w3.org/2000/svg" version="1.1">
 <metadata>
  <rdf:RDF xmlns:dc="http://purl.org/dc/elements/1.1/" xmlns:cc="http://creativecommons.org/ns#" xmlns:rdf="http://www.w3.org/1999/02/22-rdf-syntax-ns#">
   <cc:Work>
    <dc:type rdf:resource="http://purl.org/dc/dcmitype/StillImage"/>
    <dc:date>2026-04-03T11:01:33.069639</dc:date>
    <dc:format>image/svg+xml</dc:format>
    <dc:creator>
     <cc:Agent>
      <dc:title>Matplotlib v3.7.0, https://matplotlib.org/</dc:title>
     </cc:Agent>
    </dc:creator>
   </cc:Work>
  </rdf:RDF>
 </metadata>
 <defs>
  <style type="text/css">*{stroke-linejoin: round; stroke-linecap: butt}</style>
 </defs>
 <g id="figure_1">
  <g id="patch_1">
   <path d="M 0 141.558853 
L 175.012012 141.558853 
L 175.012012 0 
L 0 0 
L 0 141.558853 
z
" style="fill: none"/>
  </g>
  <g id="axes_1">
   <g id="patch_2">
    <path d="M 24.937012 112.7475 
L 171.412012 112.7475 
L 171.412012 3.6 
L 24.937012 3.6 
L 24.937012 112.7475 
z
" style="fill: none"/>
   </g>
   <g id="matplotlib.axis_1">
    <g id="xtick_1">
     <g id="line2d_1">
      <path d="M 78.200648 112.7475 
L 78.200648 3.6 
" clip-path="url(#p2536558e71)" style="fill: none; stroke-dasharray: 1.85,0.8; stroke-dashoffset: 0; stroke: #000000; stroke-opacity: 0.5; stroke-width: 0.5"/>
     </g>
     <g id="line2d_2">
      <defs>
       <path id="mae11705aa6" d="M 0 0 
L 0 -3 
" style="stroke: #000000; stroke-width: 0.5"/>
      </defs>
      <g>
       <use xlink:href="#mae11705aa6" x="78.200648" y="112.7475" style="stroke: #000000; stroke-width: 0.5"/>
      </g>
     </g>
     <g id="line2d_3">
      <defs>
       <path id="m19fe997669" d="M 0 0 
L 0 3 
" style="stroke: #000000; stroke-width: 0.5"/>
      </defs>
      <g>
       <use xlink:href="#m19fe997669" x="78.200648" y="3.6" style="stroke: #000000; stroke-width: 0.5"/>
      </g>
     </g>
     <g id="text_1">
      <!-- $\mathdefault{0.5}$ -->
      <g transform="translate(71.835609 123.165998) scale(0.1 -0.1)">
       <defs>
        <path id="CMR17-30" d="M 2688 2025 
C 2688 2416 2682 3080 2413 3591 
C 2176 4039 1798 4198 1466 4198 
C 1158 4198 768 4058 525 3597 
C 269 3118 243 2524 243 2025 
C 243 1661 250 1106 448 619 
C 723 -39 1216 -128 1466 -128 
C 1760 -128 2208 -7 2470 600 
C 2662 1042 2688 1559 2688 2025 
z
M 1466 -26 
C 1056 -26 813 325 723 812 
C 653 1188 653 1738 653 2096 
C 653 2588 653 2997 736 3387 
C 858 3929 1216 4096 1466 4096 
C 1728 4096 2067 3923 2189 3400 
C 2272 3036 2278 2607 2278 2096 
C 2278 1680 2278 1169 2202 792 
C 2067 95 1690 -26 1466 -26 
z
" transform="scale(0.015625)"/>
        <path id="CMMI12-3a" d="M 1178 307 
C 1178 492 1024 619 870 619 
C 685 619 557 466 557 313 
C 557 128 710 0 864 0 
C 1050 0 1178 153 1178 307 
z
" transform="scale(0.015625)"/>
        <path id="CMR17-35" d="M 730 3692 
C 794 3666 1056 3584 1325 3584 
C 1920 3584 2246 3911 2432 4100 
C 2432 4157 2432 4192 2394 4192 
C 2387 4192 2374 4192 2323 4163 
C 2099 4058 1837 3973 1517 3973 
C 1325 3973 1037 3999 723 4139 
C 653 4171 640 4171 634 4171 
C 602 4171 595 4164 595 4037 
L 595 2203 
C 595 2089 595 2057 659 2057 
C 691 2057 704 2070 736 2114 
C 941 2401 1222 2522 1542 2522 
C 1766 2522 2246 2382 2246 1289 
C 2246 1085 2246 715 2054 421 
C 1894 159 1645 25 1370 25 
C 947 25 518 320 403 814 
C 429 807 480 795 506 795 
C 589 795 749 840 749 1038 
C 749 1210 627 1280 506 1280 
C 358 1280 262 1190 262 1011 
C 262 454 704 -128 1382 -128 
C 2042 -128 2669 440 2669 1264 
C 2669 2030 2170 2624 1549 2624 
C 1222 2624 947 2503 730 2274 
L 730 3692 
z
" transform="scale(0.015625)"/>
       </defs>
       <use xlink:href="#CMR17-30" transform="scale(0.996264)"/>
       <use xlink:href="#CMMI12-3a" transform="translate(45.690477 0) scale(0.996264)"/>
       <use xlink:href="#CMR17-35" transform="translate(72.787654 0) scale(0.996264)"/>
      </g>
     </g>
    </g>
    <g id="xtick_2">
     <g id="line2d_4">
      <path d="M 144.780194 112.7475 
L 144.780194 3.6 
" clip-path="url(#p2536558e71)" style="fill: none; stroke-dasharray: 1.85,0.8; stroke-dashoffset: 0; stroke: #000000; stroke-opacity: 0.5; stroke-width: 0.5"/>
     </g>
     <g id="line2d_5">
      <g>
       <use xlink:href="#mae11705aa6" x="144.780194" y="112.7475" style="stroke: #000000; stroke-width: 0.5"/>
      </g>
     </g>
     <g id="line2d_6">
      <g>
       <use xlink:href="#m19fe997669" x="144.780194" y="3.6" style="stroke: #000000; stroke-width: 0.5"/>
      </g>
     </g>
     <g id="text_2">
      <!-- $\mathdefault{1.0}$ -->
      <g transform="translate(138.415154 123.165998) scale(0.1 -0.1)">
       <defs>
        <path id="CMR17-31" d="M 1702 4058 
C 1702 4192 1696 4192 1606 4192 
C 1357 3916 979 3827 621 3827 
C 602 3827 570 3827 563 3808 
C 557 3795 557 3782 557 3648 
C 755 3648 1088 3686 1344 3839 
L 1344 461 
C 1344 236 1331 160 781 160 
L 589 160 
L 589 0 
C 896 0 1216 0 1523 0 
C 1830 0 2150 0 2458 0 
L 2458 160 
L 2266 160 
C 1715 160 1702 230 1702 458 
L 1702 4058 
z
" transform="scale(0.015625)"/>
       </defs>
       <use xlink:href="#CMR17-31" transform="scale(0.996264)"/>
       <use xlink:href="#CMMI12-3a" transform="translate(45.690477 0) scale(0.996264)"/>
       <use xlink:href="#CMR17-30" transform="translate(72.787654 0) scale(0.996264)"/>
      </g>
     </g>
    </g>
    <g id="xtick_3">
     <g id="line2d_7">
      <defs>
       <path id="m675c9b3ed4" d="M 0 0 
L 0 -1.5 
" style="stroke: #000000; stroke-width: 0.5"/>
      </defs>
      <g>
       <use xlink:href="#m675c9b3ed4" x="38.252921" y="112.7475" style="stroke: #000000; stroke-width: 0.5"/>
      </g>
     </g>
     <g id="line2d_8">
      <defs>
       <path id="m327b0b770e" d="M 0 0 
L 0 1.5 
" style="stroke: #000000; stroke-width: 0.5"/>
      </defs>
      <g>
       <use xlink:href="#m327b0b770e" x="38.252921" y="3.6" style="stroke: #000000; stroke-width: 0.5"/>
      </g>
     </g>
    </g>
    <g id="xtick_4">
     <g id="line2d_9">
      <g>
       <use xlink:href="#m675c9b3ed4" x="51.56883" y="112.7475" style="stroke: #000000; stroke-width: 0.5"/>
      </g>
     </g>
     <g id="line2d_10">
      <g>
       <use xlink:href="#m327b0b770e" x="51.56883" y="3.6" style="stroke: #000000; stroke-width: 0.5"/>
      </g>
     </g>
    </g>
    <g id="xtick_5">
     <g id="line2d_11">
      <g>
       <use xlink:href="#m675c9b3ed4" x="64.884739" y="112.7475" style="stroke: #000000; stroke-width: 0.5"/>
      </g>
     </g>
     <g id="line2d_12">
      <g>
       <use xlink:href="#m327b0b770e" x="64.884739" y="3.6" style="stroke: #000000; stroke-width: 0.5"/>
      </g>
     </g>
    </g>
    <g id="xtick_6">
     <g id="line2d_13">
      <g>
       <use xlink:href="#m675c9b3ed4" x="91.516557" y="112.7475" style="stroke: #000000; stroke-width: 0.5"/>
      </g>
     </g>
     <g id="line2d_14">
      <g>
       <use xlink:href="#m327b0b770e" x="91.516557" y="3.6" style="stroke: #000000; stroke-width: 0.5"/>
      </g>
     </g>
    </g>
    <g id="xtick_7">
     <g id="line2d_15">
      <g>
       <use xlink:href="#m675c9b3ed4" x="104.832467" y="112.7475" style="stroke: #000000; stroke-width: 0.5"/>
      </g>
     </g>
     <g id="line2d_16">
      <g>
       <use xlink:href="#m327b0b770e" x="104.832467" y="3.6" style="stroke: #000000; stroke-width: 0.5"/>
      </g>
     </g>
    </g>
    <g id="xtick_8">
     <g id="line2d_17">
      <g>
       <use xlink:href="#m675c9b3ed4" x="118.148376" y="112.7475" style="stroke: #000000; stroke-width: 0.5"/>
      </g>
     </g>
     <g id="line2d_18">
      <g>
       <use xlink:href="#m327b0b770e" x="118.148376" y="3.6" style="stroke: #000000; stroke-width: 0.5"/>
      </g>
     </g>
    </g>
    <g id="xtick_9">
     <g id="line2d_19">
      <g>
       <use xlink:href="#m675c9b3ed4" x="131.464285" y="112.7475" style="stroke: #000000; stroke-width: 0.5"/>
      </g>
     </g>
     <g id="line2d_20">
      <g>
       <use xlink:href="#m327b0b770e" x="131.464285" y="3.6" style="stroke: #000000; stroke-width: 0.5"/>
      </g>
     </g>
    </g>
    <g id="xtick_10">
     <g id="line2d_21">
      <g>
       <use xlink:href="#m675c9b3ed4" x="158.096103" y="112.7475" style="stroke: #000000; stroke-width: 0.5"/>
      </g>
     </g>
     <g id="line2d_22">
      <g>
       <use xlink:href="#m327b0b770e" x="158.096103" y="3.6" style="stroke: #000000; stroke-width: 0.5"/>
      </g>
     </g>
    </g>
    <g id="xtick_11">
     <g id="line2d_23">
      <g>
       <use xlink:href="#m675c9b3ed4" x="171.412012" y="112.7475" style="stroke: #000000; stroke-width: 0.5"/>
      </g>
     </g>
     <g id="line2d_24">
      <g>
       <use xlink:href="#m327b0b770e" x="171.412012" y="3.6" style="stroke: #000000; stroke-width: 0.5"/>
      </g>
     </g>
    </g>
    <g id="text_3">
     <!-- $THD$ -->
     <g transform="translate(85.902143 136.021675) scale(0.1 -0.1)">
      <defs>
       <path id="CMMI12-54" d="M 2669 3910 
C 2707 4064 2720 4121 2816 4147 
C 2867 4160 3078 4160 3213 4160 
C 3853 4160 4154 4134 4154 3634 
C 4154 3537 4128 3295 4090 3057 
L 4083 2980 
C 4083 2954 4109 2916 4147 2916 
C 4211 2916 4211 2948 4230 3050 
L 4416 4184 
C 4429 4243 4429 4256 4429 4275 
C 4429 4345 4390 4345 4262 4345 
L 762 4345 
C 614 4345 608 4339 570 4224 
L 179 3070 
C 173 3056 154 2986 154 2980 
C 154 2948 179 2916 218 2916 
C 269 2916 282 2941 307 3024 
C 576 3801 710 4160 1562 4160 
L 1990 4160 
C 2144 4160 2208 4160 2208 4089 
C 2208 4069 2208 4057 2176 3941 
L 1318 499 
C 1254 249 1242 185 563 185 
C 403 185 358 185 358 64 
C 358 0 429 0 461 0 
C 621 0 787 0 947 0 
L 1946 0 
C 2106 0 2278 0 2438 0 
C 2509 0 2573 0 2573 121 
C 2573 185 2528 185 2362 185 
C 1786 185 1786 243 1786 339 
C 1786 346 1786 391 1811 494 
L 2669 3910 
z
" transform="scale(0.015625)"/>
       <path id="CMMI12-48" d="M 4787 3887 
C 4845 4103 4858 4167 5312 4167 
C 5427 4167 5491 4167 5491 4282 
C 5491 4352 5434 4352 5395 4352 
C 5280 4352 5146 4352 5024 4352 
L 4269 4352 
C 4147 4352 4013 4352 3891 4352 
C 3846 4352 3770 4352 3770 4231 
C 3770 4167 3814 4167 3936 4167 
C 4320 4167 4320 4116 4320 4046 
C 4320 4034 4320 3995 4294 3900 
L 3904 2361 
L 1971 2361 
L 2355 3887 
C 2413 4103 2426 4167 2880 4167 
C 2995 4167 3059 4167 3059 4282 
C 3059 4352 3002 4352 2963 4352 
C 2848 4352 2714 4352 2592 4352 
L 1837 4352 
C 1715 4352 1581 4352 1459 4352 
C 1414 4352 1338 4352 1338 4231 
C 1338 4167 1382 4167 1504 4167 
C 1888 4167 1888 4116 1888 4046 
C 1888 4034 1888 3995 1862 3899 
L 998 472 
C 941 249 928 185 486 185 
C 339 185 294 185 294 64 
C 294 0 365 0 384 0 
C 499 0 634 0 755 0 
L 1510 0 
C 1632 0 1766 0 1888 0 
C 1939 0 2010 0 2010 121 
C 2010 185 1952 185 1856 185 
C 1466 185 1466 236 1466 300 
C 1466 307 1466 351 1478 402 
L 1920 2176 
L 3859 2176 
C 3750 1753 3424 416 3411 376 
C 3341 185 3238 185 2861 185 
C 2784 185 2726 185 2726 64 
C 2726 0 2797 0 2816 0 
C 2931 0 3066 0 3187 0 
L 3942 0 
C 4064 0 4198 0 4320 0 
C 4371 0 4442 0 4442 121 
C 4442 185 4384 185 4288 185 
C 3898 185 3898 236 3898 300 
C 3898 307 3898 351 3910 402 
L 4787 3887 
z
" transform="scale(0.015625)"/>
       <path id="CMMI12-44" d="M 1005 472 
C 947 249 934 185 486 185 
C 365 185 301 185 301 70 
C 301 0 339 0 467 0 
L 2496 0 
C 3789 0 5050 1332 5050 2753 
C 5050 3671 4499 4352 3584 4352 
L 1530 4352 
C 1408 4352 1350 4352 1350 4231 
C 1350 4167 1408 4167 1504 4167 
C 1894 4167 1894 4116 1894 4046 
C 1894 4034 1894 3995 1869 3899 
L 1005 472 
z
M 2355 3931 
C 2413 4167 2438 4167 2688 4167 
L 3392 4167 
C 3994 4167 4544 3842 4544 2963 
C 4544 2644 4416 1536 3795 835 
C 3616 625 3130 185 2394 185 
L 1664 185 
C 1574 185 1562 185 1523 192 
C 1453 198 1446 211 1446 262 
C 1446 307 1459 345 1472 402 
L 2355 3931 
z
" transform="scale(0.015625)"/>
      </defs>
      <use xlink:href="#CMMI12-54" transform="scale(0.996264)"/>
      <use xlink:href="#CMMI12-48" transform="translate(70.723632 0) scale(0.996264)"/>
      <use xlink:href="#CMMI12-44" transform="translate(159.245405 0) scale(0.996264)"/>
     </g>
    </g>
   </g>
   <g id="matplotlib.axis_2">
    <g id="ytick_1">
     <g id="line2d_25">
      <path d="M 24.937012 112.7475 
L 171.412012 112.7475 
" clip-path="url(#p2536558e71)" style="fill: none; stroke-dasharray: 1.85,0.8; stroke-dashoffset: 0; stroke: #000000; stroke-opacity: 0.5; stroke-width: 0.5"/>
     </g>
     <g id="line2d_26">
      <defs>
       <path id="md7995d83af" d="M 0 0 
L 3 0 
" style="stroke: #000000; stroke-width: 0.5"/>
      </defs>
      <g>
       <use xlink:href="#md7995d83af" x="24.937012" y="112.7475" style="stroke: #000000; stroke-width: 0.5"/>
      </g>
     </g>
     <g id="line2d_27">
      <defs>
       <path id="m8c9d00d9a6" d="M 0 0 
L -3 0 
" style="stroke: #000000; stroke-width: 0.5"/>
      </defs>
      <g>
       <use xlink:href="#m8c9d00d9a6" x="171.412012" y="112.7475" style="stroke: #000000; stroke-width: 0.5"/>
      </g>
     </g>
     <g id="text_4">
      <!-- $\mathdefault{0}$ -->
      <g transform="translate(16.455677 116.206749) scale(0.1 -0.1)">
       <use xlink:href="#CMR17-30" transform="scale(0.996264)"/>
      </g>
     </g>
    </g>
    <g id="ytick_2">
     <g id="line2d_28">
      <path d="M 24.937012 80.435773 
L 171.412012 80.435773 
" clip-path="url(#p2536558e71)" style="fill: none; stroke-dasharray: 1.85,0.8; stroke-dashoffset: 0; stroke: #000000; stroke-opacity: 0.5; stroke-width: 0.5"/>
     </g>
     <g id="line2d_29">
      <g>
       <use xlink:href="#md7995d83af" x="24.937012" y="80.435773" style="stroke: #000000; stroke-width: 0.5"/>
      </g>
     </g>
     <g id="line2d_30">
      <g>
       <use xlink:href="#m8c9d00d9a6" x="171.412012" y="80.435773" style="stroke: #000000; stroke-width: 0.5"/>
      </g>
     </g>
     <g id="text_5">
      <!-- $\mathdefault{1}$ -->
      <g transform="translate(16.455677 83.895022) scale(0.1 -0.1)">
       <use xlink:href="#CMR17-31" transform="scale(0.996264)"/>
      </g>
     </g>
    </g>
    <g id="ytick_3">
     <g id="line2d_31">
      <path d="M 24.937012 48.124046 
L 171.412012 48.124046 
" clip-path="url(#p2536558e71)" style="fill: none; stroke-dasharray: 1.85,0.8; stroke-dashoffset: 0; stroke: #000000; stroke-opacity: 0.5; stroke-width: 0.5"/>
     </g>
     <g id="line2d_32">
      <g>
       <use xlink:href="#md7995d83af" x="24.937012" y="48.124046" style="stroke: #000000; stroke-width: 0.5"/>
      </g>
     </g>
     <g id="line2d_33">
      <g>
       <use xlink:href="#m8c9d00d9a6" x="171.412012" y="48.124046" style="stroke: #000000; stroke-width: 0.5"/>
      </g>
     </g>
     <g id="text_6">
      <!-- $\mathdefault{2}$ -->
      <g transform="translate(16.455677 51.583295) scale(0.1 -0.1)">
       <defs>
        <path id="CMR17-32" d="M 2669 989 
L 2554 989 
C 2490 536 2438 459 2413 420 
C 2381 369 1920 369 1830 369 
L 602 369 
C 832 619 1280 1072 1824 1597 
C 2214 1967 2669 2402 2669 3035 
C 2669 3790 2067 4224 1395 4224 
C 691 4224 262 3604 262 3030 
C 262 2780 448 2748 525 2748 
C 589 2748 781 2787 781 3010 
C 781 3207 614 3264 525 3264 
C 486 3264 448 3258 422 3245 
C 544 3790 915 4058 1306 4058 
C 1862 4058 2227 3617 2227 3035 
C 2227 2479 1901 2000 1536 1584 
L 262 146 
L 262 0 
L 2515 0 
L 2669 989 
z
" transform="scale(0.015625)"/>
       </defs>
       <use xlink:href="#CMR17-32" transform="scale(0.996264)"/>
      </g>
     </g>
    </g>
    <g id="ytick_4">
     <g id="line2d_34">
      <path d="M 24.937012 15.812319 
L 171.412012 15.812319 
" clip-path="url(#p2536558e71)" style="fill: none; stroke-dasharray: 1.85,0.8; stroke-dashoffset: 0; stroke: #000000; stroke-opacity: 0.5; stroke-width: 0.5"/>
     </g>
     <g id="line2d_35">
      <g>
       <use xlink:href="#md7995d83af" x="24.937012" y="15.812319" style="stroke: #000000; stroke-width: 0.5"/>
      </g>
     </g>
     <g id="line2d_36">
      <g>
       <use xlink:href="#m8c9d00d9a6" x="171.412012" y="15.812319" style="stroke: #000000; stroke-width: 0.5"/>
      </g>
     </g>
     <g id="text_7">
      <!-- $\mathdefault{3}$ -->
      <g transform="translate(16.455677 19.271569) scale(0.1 -0.1)">
       <defs>
        <path id="CMR17-33" d="M 1414 2157 
C 1984 2157 2234 1662 2234 1090 
C 2234 320 1824 25 1453 25 
C 1114 25 563 194 390 693 
C 422 680 454 680 486 680 
C 640 680 755 782 755 948 
C 755 1133 614 1216 486 1216 
C 378 1216 211 1165 211 926 
C 211 335 787 -128 1466 -128 
C 2176 -128 2720 430 2720 1085 
C 2720 1707 2208 2157 1600 2227 
C 2086 2328 2554 2756 2554 3329 
C 2554 3820 2048 4179 1472 4179 
C 890 4179 378 3829 378 3329 
C 378 3110 544 3072 627 3072 
C 762 3072 877 3155 877 3321 
C 877 3486 762 3569 627 3569 
C 602 3569 570 3569 544 3557 
C 730 3959 1235 4032 1459 4032 
C 1683 4032 2106 3925 2106 3320 
C 2106 3143 2080 2828 1862 2550 
C 1670 2304 1453 2304 1242 2284 
C 1210 2284 1062 2269 1037 2269 
C 992 2263 966 2257 966 2208 
C 966 2163 973 2157 1101 2157 
L 1414 2157 
z
" transform="scale(0.015625)"/>
       </defs>
       <use xlink:href="#CMR17-33" transform="scale(0.996264)"/>
      </g>
     </g>
    </g>
    <g id="ytick_5">
     <g id="line2d_37">
      <defs>
       <path id="m6d8e4646f6" d="M 0 0 
L 1.5 0 
" style="stroke: #000000; stroke-width: 0.5"/>
      </defs>
      <g>
       <use xlink:href="#m6d8e4646f6" x="24.937012" y="106.285155" style="stroke: #000000; stroke-width: 0.5"/>
      </g>
     </g>
     <g id="line2d_38">
      <defs>
       <path id="m8f237a7e08" d="M 0 0 
L -1.5 0 
" style="stroke: #000000; stroke-width: 0.5"/>
      </defs>
      <g>
       <use xlink:href="#m8f237a7e08" x="171.412012" y="106.285155" style="stroke: #000000; stroke-width: 0.5"/>
      </g>
     </g>
    </g>
    <g id="ytick_6">
     <g id="line2d_39">
      <g>
       <use xlink:href="#m6d8e4646f6" x="24.937012" y="99.822809" style="stroke: #000000; stroke-width: 0.5"/>
      </g>
     </g>
     <g id="line2d_40">
      <g>
       <use xlink:href="#m8f237a7e08" x="171.412012" y="99.822809" style="stroke: #000000; stroke-width: 0.5"/>
      </g>
     </g>
    </g>
    <g id="ytick_7">
     <g id="line2d_41">
      <g>
       <use xlink:href="#m6d8e4646f6" x="24.937012" y="93.360464" style="stroke: #000000; stroke-width: 0.5"/>
      </g>
     </g>
     <g id="line2d_42">
      <g>
       <use xlink:href="#m8f237a7e08" x="171.412012" y="93.360464" style="stroke: #000000; stroke-width: 0.5"/>
      </g>
     </g>
    </g>
    <g id="ytick_8">
     <g id="line2d_43">
      <g>
       <use xlink:href="#m6d8e4646f6" x="24.937012" y="86.898119" style="stroke: #000000; stroke-width: 0.5"/>
      </g>
     </g>
     <g id="line2d_44">
      <g>
       <use xlink:href="#m8f237a7e08" x="171.412012" y="86.898119" style="stroke: #000000; stroke-width: 0.5"/>
      </g>
     </g>
    </g>
    <g id="ytick_9">
     <g id="line2d_45">
      <g>
       <use xlink:href="#m6d8e4646f6" x="24.937012" y="73.973428" style="stroke: #000000; stroke-width: 0.5"/>
      </g>
     </g>
     <g id="line2d_46">
      <g>
       <use xlink:href="#m8f237a7e08" x="171.412012" y="73.973428" style="stroke: #000000; stroke-width: 0.5"/>
      </g>
     </g>
    </g>
    <g id="ytick_10">
     <g id="line2d_47">
      <g>
       <use xlink:href="#m6d8e4646f6" x="24.937012" y="67.511082" style="stroke: #000000; stroke-width: 0.5"/>
      </g>
     </g>
     <g id="line2d_48">
      <g>
       <use xlink:href="#m8f237a7e08" x="171.412012" y="67.511082" style="stroke: #000000; stroke-width: 0.5"/>
      </g>
     </g>
    </g>
    <g id="ytick_11">
     <g id="line2d_49">
      <g>
       <use xlink:href="#m6d8e4646f6" x="24.937012" y="61.048737" style="stroke: #000000; stroke-width: 0.5"/>
      </g>
     </g>
     <g id="line2d_50">
      <g>
       <use xlink:href="#m8f237a7e08" x="171.412012" y="61.048737" style="stroke: #000000; stroke-width: 0.5"/>
      </g>
     </g>
    </g>
    <g id="ytick_12">
     <g id="line2d_51">
      <g>
       <use xlink:href="#m6d8e4646f6" x="24.937012" y="54.586392" style="stroke: #000000; stroke-width: 0.5"/>
      </g>
     </g>
     <g id="line2d_52">
      <g>
       <use xlink:href="#m8f237a7e08" x="171.412012" y="54.586392" style="stroke: #000000; stroke-width: 0.5"/>
      </g>
     </g>
    </g>
    <g id="ytick_13">
     <g id="line2d_53">
      <g>
       <use xlink:href="#m6d8e4646f6" x="24.937012" y="41.661701" style="stroke: #000000; stroke-width: 0.5"/>
      </g>
     </g>
     <g id="line2d_54">
      <g>
       <use xlink:href="#m8f237a7e08" x="171.412012" y="41.661701" style="stroke: #000000; stroke-width: 0.5"/>
      </g>
     </g>
    </g>
    <g id="ytick_14">
     <g id="line2d_55">
      <g>
       <use xlink:href="#m6d8e4646f6" x="24.937012" y="35.199356" style="stroke: #000000; stroke-width: 0.5"/>
      </g>
     </g>
     <g id="line2d_56">
      <g>
       <use xlink:href="#m8f237a7e08" x="171.412012" y="35.199356" style="stroke: #000000; stroke-width: 0.5"/>
      </g>
     </g>
    </g>
    <g id="ytick_15">
     <g id="line2d_57">
      <g>
       <use xlink:href="#m6d8e4646f6" x="24.937012" y="28.73701" style="stroke: #000000; stroke-width: 0.5"/>
      </g>
     </g>
     <g id="line2d_58">
      <g>
       <use xlink:href="#m8f237a7e08" x="171.412012" y="28.73701" style="stroke: #000000; stroke-width: 0.5"/>
      </g>
     </g>
    </g>
    <g id="ytick_16">
     <g id="line2d_59">
      <g>
       <use xlink:href="#m6d8e4646f6" x="24.937012" y="22.274665" style="stroke: #000000; stroke-width: 0.5"/>
      </g>
     </g>
     <g id="line2d_60">
      <g>
       <use xlink:href="#m8f237a7e08" x="171.412012" y="22.274665" style="stroke: #000000; stroke-width: 0.5"/>
      </g>
     </g>
    </g>
    <g id="ytick_17">
     <g id="line2d_61">
      <g>
       <use xlink:href="#m6d8e4646f6" x="24.937012" y="9.349974" style="stroke: #000000; stroke-width: 0.5"/>
      </g>
     </g>
     <g id="line2d_62">
      <g>
       <use xlink:href="#m8f237a7e08" x="171.412012" y="9.349974" style="stroke: #000000; stroke-width: 0.5"/>
      </g>
     </g>
    </g>
    <g id="text_8">
     <!-- Density -->
     <g transform="translate(10.518498 74.73667) rotate(-90) scale(0.1 -0.1)">
      <defs>
       <path id="CMR17-44" d="M 333 4352 
L 333 4186 
C 774 4186 845 4186 845 3900 
L 845 452 
C 845 166 774 166 333 166 
L 333 0 
L 2368 0 
C 3398 0 4224 943 4224 2141 
C 4224 3346 3411 4352 2368 4352 
L 333 4352 
z
M 1523 166 
C 1267 166 1254 197 1254 414 
L 1254 3938 
C 1254 4155 1267 4186 1523 4186 
L 2240 4186 
C 2771 4186 3750 3874 3750 2141 
C 3750 1242 3488 879 3366 707 
C 3213 510 2848 166 2240 166 
L 1523 166 
z
" transform="scale(0.015625)"/>
       <path id="CMR17-65" d="M 2438 1472 
C 2464 1498 2464 1511 2464 1576 
C 2464 2238 2118 2816 1389 2816 
C 710 2816 173 2169 173 1383 
C 173 551 781 -64 1459 -64 
C 2176 -64 2458 607 2458 740 
C 2458 784 2419 784 2406 784 
C 2362 784 2355 771 2330 696 
C 2189 265 1837 51 1504 51 
C 1229 51 954 203 781 480 
C 582 803 582 1176 582 1472 
L 2438 1472 
z
M 589 1568 
C 634 2505 1126 2714 1382 2714 
C 1818 2714 2112 2297 2118 1568 
L 589 1568 
z
" transform="scale(0.015625)"/>
       <path id="CMR17-6e" d="M 2656 1933 
C 2656 2259 2592 2790 1837 2790 
C 1331 2790 1069 2400 973 2144 
L 966 2144 
L 966 2790 
L 211 2720 
L 211 2554 
C 589 2554 646 2515 646 2208 
L 646 428 
C 646 184 621 153 211 153 
L 211 -13 
C 365 0 646 0 813 0 
C 979 0 1267 0 1421 -13 
L 1421 153 
C 1011 153 986 178 986 428 
L 986 1658 
C 986 2247 1344 2688 1792 2688 
C 2266 2688 2317 2266 2317 1958 
L 2317 428 
C 2317 184 2291 153 1882 153 
L 1882 -13 
C 2035 0 2317 0 2483 0 
C 2650 0 2938 0 3091 -13 
L 3091 153 
C 2682 153 2656 178 2656 428 
L 2656 1933 
z
" transform="scale(0.015625)"/>
       <path id="CMR17-73" d="M 1978 2697 
C 1978 2813 1971 2819 1933 2819 
C 1907 2819 1901 2813 1824 2717 
C 1805 2691 1747 2626 1728 2601 
C 1523 2819 1235 2819 1126 2819 
C 416 2819 160 2447 160 2076 
C 160 1498 813 1365 998 1325 
C 1402 1243 1542 1217 1677 1101 
C 1760 1025 1901 884 1901 654 
C 1901 384 1747 38 1158 38 
C 602 38 403 460 288 1021 
C 269 1110 269 1117 218 1117 
C 166 1117 160 1110 160 983 
L 160 63 
C 160 -51 166 -58 205 -58 
C 237 -58 243 -51 275 0 
C 314 57 410 211 448 276 
C 576 103 800 -64 1158 -64 
C 1792 -64 2131 283 2131 784 
C 2131 1112 1958 1285 1875 1362 
C 1683 1561 1459 1606 1190 1657 
C 838 1735 390 1825 390 2217 
C 390 2383 480 2737 1126 2737 
C 1811 2737 1850 2094 1862 1888 
C 1869 1856 1901 1849 1920 1849 
C 1978 1849 1978 1869 1978 1978 
L 1978 2697 
z
" transform="scale(0.015625)"/>
       <path id="CMR17-69" d="M 992 3909 
C 992 4049 877 4170 730 4170 
C 589 4170 467 4056 467 3909 
C 467 3769 582 3648 730 3648 
C 870 3648 992 3763 992 3909 
z
M 243 2706 
L 243 2541 
C 602 2541 653 2502 653 2197 
L 653 427 
C 653 184 627 153 218 153 
L 218 -13 
C 371 0 646 0 806 0 
C 960 0 1222 0 1370 -13 
L 1370 153 
C 992 153 979 191 979 420 
L 979 2776 
L 243 2706 
z
" transform="scale(0.015625)"/>
       <path id="CMR17-74" d="M 966 2560 
L 1862 2560 
L 1862 2725 
L 966 2725 
L 966 3904 
L 851 3904 
C 838 3245 614 2668 70 2668 
L 70 2560 
L 627 2560 
L 627 771 
C 627 650 627 -64 1370 -64 
C 1747 -64 1965 306 1965 777 
L 1965 1140 
L 1850 1140 
L 1850 783 
C 1850 344 1677 51 1408 51 
C 1222 51 966 178 966 758 
L 966 2560 
z
" transform="scale(0.015625)"/>
       <path id="CMR17-79" d="M 2496 2197 
C 2656 2586 2944 2586 3034 2586 
L 3034 2752 
C 2912 2752 2752 2752 2630 2752 
C 2496 2752 2285 2752 2157 2758 
L 2157 2592 
C 2400 2573 2406 2394 2406 2343 
C 2406 2280 2394 2248 2362 2171 
L 1664 449 
L 902 2306 
C 870 2382 870 2426 870 2433 
C 870 2573 1018 2586 1171 2586 
L 1171 2758 
C 1018 2752 742 2752 582 2752 
C 410 2752 205 2752 64 2758 
L 64 2586 
C 410 2586 448 2554 531 2350 
L 1485 15 
C 1197 -738 1030 -1178 627 -1178 
C 557 -1178 397 -1159 282 -1044 
C 429 -1031 493 -942 493 -833 
C 493 -725 416 -629 288 -629 
C 147 -629 77 -725 77 -840 
C 77 -1095 339 -1280 627 -1280 
C 998 -1280 1229 -922 1357 -604 
L 2496 2197 
z
" transform="scale(0.015625)"/>
      </defs>
      <use xlink:href="#CMR17-44" transform="scale(0.996264)"/>
      <use xlink:href="#CMR17-65" transform="translate(70.393556 0) scale(0.996264)"/>
      <use xlink:href="#CMR17-6e" transform="translate(110.879216 0) scale(0.996264)"/>
      <use xlink:href="#CMR17-73" transform="translate(161.774586 0) scale(0.996264)"/>
      <use xlink:href="#CMR17-69" transform="translate(197.575924 0) scale(0.996264)"/>
      <use xlink:href="#CMR17-74" transform="translate(222.446982 0) scale(0.996264)"/>
      <use xlink:href="#CMR17-79" transform="translate(255.125296 0) scale(0.996264)"/>
     </g>
    </g>
   </g>
   <g id="PolyCollection_1">
    <defs>
     <path id="m1665542f1d" d="M 21.098829 -28.817084 
L 21.098829 -28.811353 
L 21.6148 -28.811353 
L 22.130772 -28.811353 
L 22.646744 -28.811353 
L 23.162715 -28.811353 
L 23.678687 -28.811353 
L 24.194659 -28.811353 
L 24.71063 -28.811353 
L 25.226602 -28.811353 
L 25.742574 -28.811353 
L 26.258545 -28.811353 
L 26.774517 -28.811353 
L 27.290488 -28.811353 
L 27.80646 -28.811353 
L 28.322432 -28.811353 
L 28.838403 -28.811353 
L 29.354375 -28.811353 
L 29.870347 -28.811353 
L 30.386318 -28.811353 
L 30.90229 -28.811353 
L 31.418262 -28.811353 
L 31.934233 -28.811353 
L 32.450205 -28.811353 
L 32.966177 -28.811353 
L 33.482148 -28.811353 
L 33.99812 -28.811353 
L 34.514091 -28.811353 
L 35.030063 -28.811353 
L 35.546035 -28.811353 
L 36.062006 -28.811353 
L 36.577978 -28.811353 
L 37.09395 -28.811353 
L 37.609921 -28.811353 
L 38.125893 -28.811353 
L 38.641865 -28.811353 
L 39.157836 -28.811353 
L 39.673808 -28.811353 
L 40.18978 -28.811353 
L 40.705751 -28.811353 
L 41.221723 -28.811353 
L 41.737694 -28.811353 
L 42.253666 -28.811353 
L 42.769638 -28.811353 
L 43.285609 -28.811353 
L 43.801581 -28.811353 
L 44.317553 -28.811353 
L 44.833524 -28.811353 
L 45.349496 -28.811353 
L 45.865468 -28.811353 
L 46.381439 -28.811353 
L 46.897411 -28.811353 
L 47.413382 -28.811353 
L 47.929354 -28.811353 
L 48.445326 -28.811353 
L 48.961297 -28.811353 
L 49.477269 -28.811353 
L 49.993241 -28.811353 
L 50.509212 -28.811353 
L 51.025184 -28.811353 
L 51.541156 -28.811353 
L 52.057127 -28.811353 
L 52.573099 -28.811353 
L 53.089071 -28.811353 
L 53.605042 -28.811353 
L 54.121014 -28.811353 
L 54.636985 -28.811353 
L 55.152957 -28.811353 
L 55.668929 -28.811353 
L 56.1849 -28.811353 
L 56.700872 -28.811353 
L 57.216844 -28.811353 
L 57.732815 -28.811353 
L 58.248787 -28.811353 
L 58.764759 -28.811353 
L 59.28073 -28.811353 
L 59.796702 -28.811353 
L 60.312674 -28.811353 
L 60.828645 -28.811353 
L 61.344617 -28.811353 
L 61.860588 -28.811353 
L 62.37656 -28.811353 
L 62.892532 -28.811353 
L 63.408503 -28.811353 
L 63.924475 -28.811353 
L 64.440447 -28.811353 
L 64.956418 -28.811353 
L 65.47239 -28.811353 
L 65.988362 -28.811353 
L 66.504333 -28.811353 
L 67.020305 -28.811353 
L 67.536276 -28.811353 
L 68.052248 -28.811353 
L 68.56822 -28.811353 
L 69.084191 -28.811353 
L 69.600163 -28.811353 
L 70.116135 -28.811353 
L 70.632106 -28.811353 
L 71.148078 -28.811353 
L 71.66405 -28.811353 
L 72.180021 -28.811353 
L 72.695993 -28.811353 
L 73.211965 -28.811353 
L 73.727936 -28.811353 
L 74.243908 -28.811353 
L 74.759879 -28.811353 
L 75.275851 -28.811353 
L 75.791823 -28.811353 
L 76.307794 -28.811353 
L 76.823766 -28.811353 
L 77.339738 -28.811353 
L 77.855709 -28.811353 
L 78.371681 -28.811353 
L 78.887653 -28.811353 
L 79.403624 -28.811353 
L 79.919596 -28.811353 
L 80.435568 -28.811353 
L 80.951539 -28.811353 
L 81.467511 -28.811353 
L 81.983482 -28.811353 
L 82.499454 -28.811353 
L 83.015426 -28.811353 
L 83.531397 -28.811353 
L 84.047369 -28.811353 
L 84.563341 -28.811353 
L 85.079312 -28.811353 
L 85.595284 -28.811353 
L 86.111256 -28.811353 
L 86.627227 -28.811353 
L 87.143199 -28.811353 
L 87.659171 -28.811353 
L 88.175142 -28.811353 
L 88.691114 -28.811353 
L 89.207085 -28.811353 
L 89.723057 -28.811353 
L 90.239029 -28.811353 
L 90.755 -28.811353 
L 91.270972 -28.811353 
L 91.786944 -28.811353 
L 92.302915 -28.811353 
L 92.818887 -28.811353 
L 93.334859 -28.811353 
L 93.85083 -28.811353 
L 94.366802 -28.811353 
L 94.882773 -28.811353 
L 95.398745 -28.811353 
L 95.914717 -28.811353 
L 96.430688 -28.811353 
L 96.94666 -28.811353 
L 97.462632 -28.811353 
L 97.978603 -28.811353 
L 98.494575 -28.811353 
L 99.010547 -28.811353 
L 99.526518 -28.811353 
L 100.04249 -28.811353 
L 100.558462 -28.811353 
L 101.074433 -28.811353 
L 101.590405 -28.811353 
L 102.106376 -28.811353 
L 102.622348 -28.811353 
L 103.13832 -28.811353 
L 103.654291 -28.811353 
L 104.170263 -28.811353 
L 104.686235 -28.811353 
L 105.202206 -28.811353 
L 105.718178 -28.811353 
L 106.23415 -28.811353 
L 106.750121 -28.811353 
L 107.266093 -28.811353 
L 107.782065 -28.811353 
L 108.298036 -28.811353 
L 108.814008 -28.811353 
L 109.329979 -28.811353 
L 109.845951 -28.811353 
L 110.361923 -28.811353 
L 110.877894 -28.811353 
L 111.393866 -28.811353 
L 111.909838 -28.811353 
L 112.425809 -28.811353 
L 112.941781 -28.811353 
L 113.457753 -28.811353 
L 113.973724 -28.811353 
L 114.489696 -28.811353 
L 115.005667 -28.811353 
L 115.521639 -28.811353 
L 116.037611 -28.811353 
L 116.553582 -28.811353 
L 117.069554 -28.811353 
L 117.585526 -28.811353 
L 118.101497 -28.811353 
L 118.617469 -28.811353 
L 119.133441 -28.811353 
L 119.649412 -28.811353 
L 120.165384 -28.811353 
L 120.681356 -28.811353 
L 121.197327 -28.811353 
L 121.713299 -28.811353 
L 122.22927 -28.811353 
L 122.745242 -28.811353 
L 123.261214 -28.811353 
L 123.777185 -28.811353 
L 123.777185 -28.812095 
L 123.777185 -28.812095 
L 123.261214 -28.81262 
L 122.745242 -28.813476 
L 122.22927 -28.814846 
L 121.713299 -28.817001 
L 121.197327 -28.820331 
L 120.681356 -28.825394 
L 120.165384 -28.832964 
L 119.649412 -28.844099 
L 119.133441 -28.860219 
L 118.617469 -28.883183 
L 118.101497 -28.915381 
L 117.585526 -28.959813 
L 117.069554 -29.020161 
L 116.553582 -29.100835 
L 116.037611 -29.206998 
L 115.521639 -29.344537 
L 115.005667 -29.52001 
L 114.489696 -29.740527 
L 113.973724 -30.013604 
L 113.457753 -30.346973 
L 112.941781 -30.748365 
L 112.425809 -31.22528 
L 111.909838 -31.784752 
L 111.393866 -32.43312 
L 110.877894 -33.175806 
L 110.361923 -34.017113 
L 109.845951 -34.960035 
L 109.329979 -36.00606 
L 108.814008 -37.154981 
L 108.298036 -38.404683 
L 107.782065 -39.750914 
L 107.266093 -41.187046 
L 106.750121 -42.703845 
L 106.23415 -44.289285 
L 105.718178 -45.928468 
L 105.202206 -47.603693 
L 104.686235 -49.29475 
L 104.170263 -50.979467 
L 103.654291 -52.634535 
L 103.13832 -54.236603 
L 102.622348 -55.763559 
L 102.106376 -57.19593 
L 101.590405 -58.51825 
L 101.074433 -59.720266 
L 100.558462 -60.797841 
L 100.04249 -61.753436 
L 99.526518 -62.596092 
L 99.010547 -63.340912 
L 98.494575 -64.008067 
L 97.978603 -64.621442 
L 97.462632 -65.207046 
L 96.94666 -65.791371 
L 96.430688 -66.399837 
L 95.914717 -67.055453 
L 95.398745 -67.777782 
L 94.882773 -68.582218 
L 94.366802 -69.479577 
L 93.85083 -70.475907 
L 93.334859 -71.572466 
L 92.818887 -72.76579 
L 92.302915 -74.047777 
L 91.786944 -75.405794 
L 91.270972 -76.822794 
L 90.755 -78.277501 
L 90.239029 -79.74473 
L 89.723057 -81.195905 
L 89.207085 -82.599867 
L 88.691114 -83.923989 
L 88.175142 -85.135617 
L 87.659171 -86.203755 
L 87.143199 -87.100879 
L 86.627227 -87.80468 
L 86.111256 -88.299526 
L 85.595284 -88.577407 
L 85.079312 -88.638196 
L 84.563341 -88.489141 
L 84.047369 -88.143623 
L 83.531397 -87.619362 
L 83.015426 -86.936351 
L 82.499454 -86.114876 
L 81.983482 -85.173982 
L 81.467511 -84.130658 
L 80.951539 -82.999882 
L 80.435568 -81.795495 
L 79.919596 -80.531672 
L 79.403624 -79.22465 
L 78.887653 -77.894293 
L 78.371681 -76.565089 
L 77.855709 -75.266311 
L 77.339738 -74.031213 
L 76.823766 -72.895347 
L 76.307794 -71.894248 
L 75.791823 -71.060836 
L 75.275851 -70.422919 
L 74.759879 -70.001144 
L 74.243908 -69.807604 
L 73.727936 -69.845195 
L 73.211965 -70.107666 
L 72.695993 -70.580229 
L 72.180021 -71.240546 
L 71.66405 -72.059921 
L 71.148078 -73.004599 
L 70.632106 -74.037115 
L 70.116135 -75.117732 
L 69.600163 -76.206012 
L 69.084191 -77.262574 
L 68.56822 -78.251041 
L 68.052248 -79.140115 
L 67.536276 -79.905628 
L 67.020305 -80.532367 
L 66.504333 -81.0154 
L 65.988362 -81.360685 
L 65.47239 -81.584745 
L 64.956418 -81.713342 
L 64.440447 -81.779182 
L 63.924475 -81.818861 
L 63.408503 -81.869349 
L 62.892532 -81.964471 
L 62.37656 -82.131786 
L 61.860588 -82.390321 
L 61.344617 -82.749437 
L 60.828645 -83.208976 
L 60.312674 -83.760642 
L 59.796702 -84.390374 
L 59.28073 -85.08131 
L 58.764759 -85.816866 
L 58.248787 -86.583443 
L 57.732815 -87.372355 
L 57.216844 -88.180746 
L 56.700872 -89.01143 
L 56.1849 -89.871818 
L 55.668929 -90.772226 
L 55.152957 -91.723959 
L 54.636985 -92.737558 
L 54.121014 -93.821505 
L 53.605042 -94.981564 
L 53.089071 -96.220754 
L 52.573099 -97.539842 
L 52.057127 -98.938119 
L 51.541156 -100.414245 
L 51.025184 -101.966918 
L 50.509212 -103.595248 
L 49.993241 -105.298758 
L 49.477269 -107.077014 
L 48.961297 -108.928959 
L 48.445326 -110.852016 
L 47.929354 -112.841054 
L 47.413382 -114.887295 
L 46.897411 -116.977235 
L 46.381439 -119.091669 
L 45.865468 -121.204893 
L 45.349496 -123.284168 
L 44.833524 -125.289535 
L 44.317553 -127.17403 
L 43.801581 -128.884314 
L 43.285609 -130.361715 
L 42.769638 -131.543629 
L 42.253666 -132.365213 
L 41.737694 -132.761353 
L 41.221723 -132.668874 
L 40.705751 -132.029009 
L 40.18978 -130.790188 
L 39.673808 -128.911115 
L 39.157836 -126.364105 
L 38.641865 -123.138486 
L 38.125893 -119.243763 
L 37.609921 -114.712141 
L 37.09395 -109.599936 
L 36.577978 -103.987443 
L 36.062006 -97.976947 
L 35.546035 -91.688804 
L 35.030063 -85.255753 
L 34.514091 -78.815897 
L 33.99812 -72.505015 
L 33.482148 -66.448961 
L 32.966177 -60.756926 
L 32.450205 -55.516219 
L 31.934233 -50.789009 
L 31.418262 -46.611207 
L 30.90229 -42.993418 
L 30.386318 -39.923647 
L 29.870347 -37.371284 
L 29.354375 -35.291822 
L 28.838403 -33.63177 
L 28.322432 -32.333287 
L 27.80646 -31.338183 
L 27.290488 -30.591071 
L 26.774517 -30.041598 
L 26.258545 -29.645771 
L 25.742574 -29.36651 
L 25.226602 -29.173579 
L 24.71063 -29.043074 
L 24.194659 -28.956655 
L 23.678687 -28.900641 
L 23.162715 -28.865109 
L 22.646744 -28.843055 
L 22.130772 -28.829662 
L 21.6148 -28.821706 
L 21.098829 -28.817084 
z
" style="stroke: #4477aa"/>
    </defs>
    <g clip-path="url(#p2536558e71)">
     <use xlink:href="#m1665542f1d" x="0" y="141.558853" style="fill: #4477aa; fill-opacity: 0.25; stroke: #4477aa"/>
    </g>
   </g>
   <g id="PolyCollection_2">
    <defs>
     <path id="m858ce0c852" d="M 28.686903 -28.811396 
L 28.686903 -28.811353 
L 29.501879 -28.811353 
L 30.316855 -28.811353 
L 31.131832 -28.811353 
L 31.946808 -28.811353 
L 32.761784 -28.811353 
L 33.57676 -28.811353 
L 34.391736 -28.811353 
L 35.206712 -28.811353 
L 36.021689 -28.811353 
L 36.836665 -28.811353 
L 37.651641 -28.811353 
L 38.466617 -28.811353 
L 39.281593 -28.811353 
L 40.096569 -28.811353 
L 40.911546 -28.811353 
L 41.726522 -28.811353 
L 42.541498 -28.811353 
L 43.356474 -28.811353 
L 44.17145 -28.811353 
L 44.986426 -28.811353 
L 45.801403 -28.811353 
L 46.616379 -28.811353 
L 47.431355 -28.811353 
L 48.246331 -28.811353 
L 49.061307 -28.811353 
L 49.876283 -28.811353 
L 50.69126 -28.811353 
L 51.506236 -28.811353 
L 52.321212 -28.811353 
L 53.136188 -28.811353 
L 53.951164 -28.811353 
L 54.76614 -28.811353 
L 55.581117 -28.811353 
L 56.396093 -28.811353 
L 57.211069 -28.811353 
L 58.026045 -28.811353 
L 58.841021 -28.811353 
L 59.655998 -28.811353 
L 60.470974 -28.811353 
L 61.28595 -28.811353 
L 62.100926 -28.811353 
L 62.915902 -28.811353 
L 63.730878 -28.811353 
L 64.545855 -28.811353 
L 65.360831 -28.811353 
L 66.175807 -28.811353 
L 66.990783 -28.811353 
L 67.805759 -28.811353 
L 68.620735 -28.811353 
L 69.435712 -28.811353 
L 70.250688 -28.811353 
L 71.065664 -28.811353 
L 71.88064 -28.811353 
L 72.695616 -28.811353 
L 73.510592 -28.811353 
L 74.325569 -28.811353 
L 75.140545 -28.811353 
L 75.955521 -28.811353 
L 76.770497 -28.811353 
L 77.585473 -28.811353 
L 78.400449 -28.811353 
L 79.215426 -28.811353 
L 80.030402 -28.811353 
L 80.845378 -28.811353 
L 81.660354 -28.811353 
L 82.47533 -28.811353 
L 83.290306 -28.811353 
L 84.105283 -28.811353 
L 84.920259 -28.811353 
L 85.735235 -28.811353 
L 86.550211 -28.811353 
L 87.365187 -28.811353 
L 88.180163 -28.811353 
L 88.99514 -28.811353 
L 89.810116 -28.811353 
L 90.625092 -28.811353 
L 91.440068 -28.811353 
L 92.255044 -28.811353 
L 93.07002 -28.811353 
L 93.884997 -28.811353 
L 94.699973 -28.811353 
L 95.514949 -28.811353 
L 96.329925 -28.811353 
L 97.144901 -28.811353 
L 97.959877 -28.811353 
L 98.774854 -28.811353 
L 99.58983 -28.811353 
L 100.404806 -28.811353 
L 101.219782 -28.811353 
L 102.034758 -28.811353 
L 102.849734 -28.811353 
L 103.664711 -28.811353 
L 104.479687 -28.811353 
L 105.294663 -28.811353 
L 106.109639 -28.811353 
L 106.924615 -28.811353 
L 107.739591 -28.811353 
L 108.554568 -28.811353 
L 109.369544 -28.811353 
L 110.18452 -28.811353 
L 110.999496 -28.811353 
L 111.814472 -28.811353 
L 112.629448 -28.811353 
L 113.444425 -28.811353 
L 114.259401 -28.811353 
L 115.074377 -28.811353 
L 115.889353 -28.811353 
L 116.704329 -28.811353 
L 117.519305 -28.811353 
L 118.334282 -28.811353 
L 119.149258 -28.811353 
L 119.964234 -28.811353 
L 120.77921 -28.811353 
L 121.594186 -28.811353 
L 122.409162 -28.811353 
L 123.224139 -28.811353 
L 124.039115 -28.811353 
L 124.854091 -28.811353 
L 125.669067 -28.811353 
L 126.484043 -28.811353 
L 127.299019 -28.811353 
L 128.113996 -28.811353 
L 128.928972 -28.811353 
L 129.743948 -28.811353 
L 130.558924 -28.811353 
L 131.3739 -28.811353 
L 132.188876 -28.811353 
L 133.003853 -28.811353 
L 133.818829 -28.811353 
L 134.633805 -28.811353 
L 135.448781 -28.811353 
L 136.263757 -28.811353 
L 137.078733 -28.811353 
L 137.89371 -28.811353 
L 138.708686 -28.811353 
L 139.523662 -28.811353 
L 140.338638 -28.811353 
L 141.153614 -28.811353 
L 141.96859 -28.811353 
L 142.783567 -28.811353 
L 143.598543 -28.811353 
L 144.413519 -28.811353 
L 145.228495 -28.811353 
L 146.043471 -28.811353 
L 146.858447 -28.811353 
L 147.673424 -28.811353 
L 148.4884 -28.811353 
L 149.303376 -28.811353 
L 150.118352 -28.811353 
L 150.933328 -28.811353 
L 151.748304 -28.811353 
L 152.563281 -28.811353 
L 153.378257 -28.811353 
L 154.193233 -28.811353 
L 155.008209 -28.811353 
L 155.823185 -28.811353 
L 156.638161 -28.811353 
L 157.453138 -28.811353 
L 158.268114 -28.811353 
L 159.08309 -28.811353 
L 159.898066 -28.811353 
L 160.713042 -28.811353 
L 161.528018 -28.811353 
L 162.342995 -28.811353 
L 163.157971 -28.811353 
L 163.972947 -28.811353 
L 164.787923 -28.811353 
L 165.602899 -28.811353 
L 166.417875 -28.811353 
L 167.232852 -28.811353 
L 168.047828 -28.811353 
L 168.862804 -28.811353 
L 169.67778 -28.811353 
L 170.492756 -28.811353 
L 171.307732 -28.811353 
L 172.122709 -28.811353 
L 172.937685 -28.811353 
L 173.752661 -28.811353 
L 174.567637 -28.811353 
L 175.382613 -28.811353 
L 176.197589 -28.811353 
L 177.012566 -28.811353 
L 177.827542 -28.811353 
L 178.642518 -28.811353 
L 179.457494 -28.811353 
L 180.27247 -28.811353 
L 181.087446 -28.811353 
L 181.902423 -28.811353 
L 182.717399 -28.811353 
L 183.532375 -28.811353 
L 184.347351 -28.811353 
L 185.162327 -28.811353 
L 185.977303 -28.811353 
L 186.79228 -28.811353 
L 187.607256 -28.811353 
L 188.422232 -28.811353 
L 189.237208 -28.811353 
L 190.052184 -28.811353 
L 190.86716 -28.811353 
L 190.86716 -28.811405 
L 190.86716 -28.811405 
L 190.052184 -28.811552 
L 189.237208 -28.811996 
L 188.422232 -28.813093 
L 187.607256 -28.815348 
L 186.79228 -28.819286 
L 185.977303 -28.825327 
L 185.162327 -28.833855 
L 184.347351 -28.845462 
L 183.532375 -28.860917 
L 182.717399 -28.880507 
L 181.902423 -28.903063 
L 181.087446 -28.925622 
L 180.27247 -28.944356 
L 179.457494 -28.956304 
L 178.642518 -28.960574 
L 177.827542 -28.957981 
L 177.012566 -28.949875 
L 176.197589 -28.938096 
L 175.382613 -28.926369 
L 174.567637 -28.920906 
L 173.752661 -28.928272 
L 172.937685 -28.951527 
L 172.122709 -28.98763 
L 171.307732 -29.028641 
L 170.492756 -29.066674 
L 169.67778 -29.099252 
L 168.862804 -29.13098 
L 168.047828 -29.170708 
L 167.232852 -29.226718 
L 166.417875 -29.30301 
L 165.602899 -29.398545 
L 164.787923 -29.50924 
L 163.972947 -29.63022 
L 163.157971 -29.756375 
L 162.342995 -29.882581 
L 161.528018 -30.0057 
L 160.713042 -30.127508 
L 159.898066 -30.25564 
L 159.08309 -30.400435 
L 158.268114 -30.5683 
L 157.453138 -30.755863 
L 156.638161 -30.951015 
L 155.823185 -31.142353 
L 155.008209 -31.329744 
L 154.193233 -31.525987 
L 153.378257 -31.748244 
L 152.563281 -32.008502 
L 151.748304 -32.311388 
L 150.933328 -32.656793 
L 150.118352 -33.039822 
L 149.303376 -33.448047 
L 148.4884 -33.863655 
L 147.673424 -34.273962 
L 146.858447 -34.682856 
L 146.043471 -35.110932 
L 145.228495 -35.579982 
L 144.413519 -36.094299 
L 143.598543 -36.63998 
L 142.783567 -37.207023 
L 141.96859 -37.809405 
L 141.153614 -38.475253 
L 140.338638 -39.214131 
L 139.523662 -39.997831 
L 138.708686 -40.776824 
L 137.89371 -41.51838 
L 137.078733 -42.236395 
L 136.263757 -42.993945 
L 135.448781 -43.878331 
L 134.633805 -44.962939 
L 133.818829 -46.277349 
L 133.003853 -47.801987 
L 132.188876 -49.484679 
L 131.3739 -51.26086 
L 130.558924 -53.066835 
L 129.743948 -54.852717 
L 128.928972 -56.596857 
L 128.113996 -58.30699 
L 127.299019 -60.005407 
L 126.484043 -61.722739 
L 125.669067 -63.509513 
L 124.854091 -65.432751 
L 124.039115 -67.538041 
L 123.224139 -69.815967 
L 122.409162 -72.213986 
L 121.594186 -74.672449 
L 120.77921 -77.142831 
L 119.964234 -79.589638 
L 119.149258 -81.990019 
L 118.334282 -84.314213 
L 117.519305 -86.486214 
L 116.704329 -88.376263 
L 115.889353 -89.856943 
L 115.074377 -90.878242 
L 114.259401 -91.501589 
L 113.444425 -91.879557 
L 112.629448 -92.189891 
L 111.814472 -92.541642 
L 110.999496 -92.917482 
L 110.18452 -93.228797 
L 109.369544 -93.455471 
L 108.554568 -93.723897 
L 107.739591 -94.223237 
L 106.924615 -95.036054 
L 106.109639 -96.041101 
L 105.294663 -96.953917 
L 104.479687 -97.45789 
L 103.664711 -97.352949 
L 102.849734 -96.652534 
L 102.034758 -95.564036 
L 101.219782 -94.357875 
L 100.404806 -93.230141 
L 99.58983 -92.256281 
L 98.774854 -91.42219 
L 97.959877 -90.660156 
L 97.144901 -89.86837 
L 96.329925 -88.947518 
L 95.514949 -87.860414 
L 94.699973 -86.663745 
L 93.884997 -85.473216 
L 93.07002 -84.395628 
L 92.255044 -83.490398 
L 91.440068 -82.774157 
L 90.625092 -82.235186 
L 89.810116 -81.836793 
L 88.99514 -81.520483 
L 88.180163 -81.219679 
L 87.365187 -80.878711 
L 86.550211 -80.472481 
L 85.735235 -80.026514 
L 84.920259 -79.623886 
L 84.105283 -79.376756 
L 83.290306 -79.36498 
L 82.47533 -79.583701 
L 81.660354 -79.945039 
L 80.845378 -80.331555 
L 80.030402 -80.651903 
L 79.215426 -80.856901 
L 78.400449 -80.926455 
L 77.585473 -80.867453 
L 76.770497 -80.729543 
L 75.955521 -80.599529 
L 75.140545 -80.552674 
L 74.325569 -80.601132 
L 73.510592 -80.696173 
L 72.695616 -80.787886 
L 71.88064 -80.883769 
L 71.065664 -81.040447 
L 70.250688 -81.288652 
L 69.435712 -81.570851 
L 68.620735 -81.763209 
L 67.805759 -81.757702 
L 66.990783 -81.519211 
L 66.175807 -81.076649 
L 65.360831 -80.479769 
L 64.545855 -79.764504 
L 63.730878 -78.934023 
L 62.915902 -77.946801 
L 62.100926 -76.720679 
L 61.28595 -75.164995 
L 60.470974 -73.223613 
L 59.655998 -70.897096 
L 58.841021 -68.235623 
L 58.026045 -65.316357 
L 57.211069 -62.216564 
L 56.396093 -58.991184 
L 55.581117 -55.672113 
L 54.76614 -52.299163 
L 53.951164 -48.958137 
L 53.136188 -45.781256 
L 52.321212 -42.897954 
L 51.506236 -40.378065 
L 50.69126 -38.217714 
L 49.876283 -36.371644 
L 49.061307 -34.794561 
L 48.246331 -33.46011 
L 47.431355 -32.355478 
L 46.616379 -31.466094 
L 45.801403 -30.765384 
L 44.986426 -30.217503 
L 44.17145 -29.789437 
L 43.356474 -29.460282 
L 42.541498 -29.219394 
L 41.726522 -29.057305 
L 40.911546 -28.959396 
L 40.096569 -28.906871 
L 39.281593 -28.881592 
L 38.466617 -28.869729 
L 37.651641 -28.86264 
L 36.836665 -28.856011 
L 36.021689 -28.848453 
L 35.206712 -28.840151 
L 34.391736 -28.831891 
L 33.57676 -28.824565 
L 32.761784 -28.818871 
L 31.946808 -28.81507 
L 31.131832 -28.812927 
L 30.316855 -28.811917 
L 29.501879 -28.811523 
L 28.686903 -28.811396 
z
" style="stroke: #ee6677"/>
    </defs>
    <g clip-path="url(#p2536558e71)">
     <use xlink:href="#m858ce0c852" x="0" y="141.558853" style="fill: #ee6677; fill-opacity: 0.25; stroke: #ee6677"/>
    </g>
   </g>
   <g id="patch_3">
    <path d="M 24.937012 112.7475 
L 24.937012 3.6 
" style="fill: none; stroke: #000000; stroke-width: 0.5; stroke-linejoin: miter; stroke-linecap: square"/>
   </g>
   <g id="patch_4">
    <path d="M 171.412012 112.7475 
L 171.412012 3.6 
" style="fill: none; stroke: #000000; stroke-width: 0.5; stroke-linejoin: miter; stroke-linecap: square"/>
   </g>
   <g id="patch_5">
    <path d="M 24.937012 112.7475 
L 171.412012 112.7475 
" style="fill: none; stroke: #000000; stroke-width: 0.5; stroke-linejoin: miter; stroke-linecap: square"/>
   </g>
   <g id="patch_6">
    <path d="M 24.937012 3.6 
L 171.412012 3.6 
" style="fill: none; stroke: #000000; stroke-width: 0.5; stroke-linejoin: miter; stroke-linecap: square"/>
   </g>
   <g id="legend_1">
    <g id="patch_7">
     <path d="M 117.678165 33.483338 
L 165.581012 33.483338 
Q 167.247012 33.483338 167.247012 31.817338 
L 167.247012 9.431 
Q 167.247012 7.765 165.581012 7.765 
L 117.678165 7.765 
Q 116.012165 7.765 116.012165 9.431 
L 116.012165 31.817338 
Q 116.012165 33.483338 117.678165 33.483338 
z
" style="fill: #ffffff; stroke: #cccccc; stroke-linejoin: miter"/>
    </g>
    <g id="patch_8">
     <path d="M 119.344165 16.928 
L 136.004165 16.928 
L 136.004165 11.097 
L 119.344165 11.097 
z
" style="fill: #4477aa; fill-opacity: 0.25; stroke: #4477aa; stroke-linejoin: miter"/>
    </g>
    <g id="text_9">
     <!-- $\kappa = 1$ -->
     <g transform="translate(142.668165 16.928) scale(0.0833 -0.0833)">
      <defs>
       <path id="CMMI12-14" d="M 1363 1600 
C 1574 1714 1811 1912 1971 2046 
C 2355 2377 2496 2479 2739 2574 
C 2714 2536 2707 2485 2707 2441 
C 2707 2268 2854 2236 2918 2236 
C 3123 2236 3238 2427 3238 2548 
C 3238 2586 3226 2752 3002 2752 
C 2618 2752 2240 2431 1958 2198 
C 1587 1876 1402 1738 1139 1656 
L 1382 2656 
C 1382 2759 1299 2816 1216 2816 
C 1158 2816 1018 2797 966 2592 
L 371 224 
C 352 148 352 134 352 96 
C 352 6 422 -64 518 -64 
C 710 -64 749 106 781 244 
C 819 380 1082 1472 1094 1472 
C 1907 1472 2182 1264 2182 943 
C 2182 897 2182 878 2163 806 
C 2138 682 2138 609 2138 570 
C 2138 178 2387 -64 2701 -64 
C 2963 -64 3110 123 3206 291 
C 3341 543 3424 898 3424 923 
C 3424 956 3398 981 3360 981 
C 3302 981 3296 956 3270 852 
C 3187 542 3046 64 2720 64 
C 2579 64 2509 148 2509 374 
C 2509 498 2534 641 2560 737 
C 2573 802 2592 880 2592 951 
C 2592 1541 1786 1600 1363 1600 
z
" transform="scale(0.015625)"/>
       <path id="CMR17-3d" d="M 4115 2017 
C 4211 2017 4307 2017 4307 2125 
C 4307 2240 4198 2240 4090 2240 
L 512 2240 
C 403 2240 294 2240 294 2125 
C 294 2017 390 2017 486 2017 
L 4115 2017 
z
M 4090 896 
C 4198 896 4307 896 4307 1011 
C 4307 1119 4211 1119 4115 1119 
L 486 1119 
C 390 1119 294 1119 294 1011 
C 294 896 403 896 512 896 
L 4090 896 
z
" transform="scale(0.015625)"/>
      </defs>
      <use xlink:href="#CMMI12-14" transform="scale(0.996264)"/>
      <use xlink:href="#CMR17-3d" transform="translate(83.828633 0) scale(0.996264)"/>
      <use xlink:href="#CMR17-31" transform="translate(183.21743 0) scale(0.996264)"/>
     </g>
    </g>
    <g id="patch_9">
     <path d="M 119.344165 28.537669 
L 136.004165 28.537669 
L 136.004165 22.706669 
L 119.344165 22.706669 
z
" style="fill: #ee6677; fill-opacity: 0.25; stroke: #ee6677; stroke-linejoin: miter"/>
    </g>
    <g id="text_10">
     <!-- $\kappa = 4$ -->
     <g transform="translate(142.668165 28.537669) scale(0.0833 -0.0833)">
      <defs>
       <path id="CMR17-34" d="M 2150 4122 
C 2150 4256 2144 4256 2029 4256 
L 128 1254 
L 128 1088 
L 1779 1088 
L 1779 457 
C 1779 224 1766 160 1318 160 
L 1197 160 
L 1197 0 
C 1402 0 1747 0 1965 0 
C 2182 0 2528 0 2733 0 
L 2733 160 
L 2611 160 
C 2163 160 2150 224 2150 457 
L 2150 1088 
L 2803 1088 
L 2803 1254 
L 2150 1254 
L 2150 4122 
z
M 1798 3703 
L 1798 1254 
L 256 1254 
L 1798 3703 
z
" transform="scale(0.015625)"/>
      </defs>
      <use xlink:href="#CMMI12-14" transform="scale(0.996264)"/>
      <use xlink:href="#CMR17-3d" transform="translate(83.828633 0) scale(0.996264)"/>
      <use xlink:href="#CMR17-34" transform="translate(183.21743 0) scale(0.996264)"/>
     </g>
    </g>
   </g>
  </g>
 </g>
 <defs>
  <clipPath id="p2536558e71">
   <rect x="24.937012" y="3.6" width="146.475" height="109.1475"/>
  </clipPath>
 </defs>
</svg>
