<?xml version="1.0" encoding="utf-8" standalone="no"?>
<!DOCTYPE svg PUBLIC "-//W3C//DTD SVG 1.1//EN"
  "http://www.w3.org/Graphics/SVG/1.1/DTD/svg11.dtd">
<svg xmlns:xlink="http://www.w3.org/1999/xlink" width="241.569139pt" height="177.941353pt" viewBox="0 0 241.569139 177.941353" xmlns="http://www.w3.org/2000/svg" version="1.1">
 <metadata>
  <rdf:RDF xmlns:dc="http://purl.org/dc/elements/1.1/" xmlns:cc="http://creativecommons.org/ns#" xmlns:rdf="http://www.w3.org/1999/02/22-rdf-syntax-ns#">
   <cc:Work>
    <dc:type rdf:resource="http://purl.org/dc/dcmitype/StillImage"/>
    <dc:date>2025-12-24T14:22:19.278954</dc:date>
    <dc:format>image/svg+xml</dc:format>
    <dc:creator>
     <cc:Agent>
      <dc:title>Matplotlib v3.6.3, https://matplotlib.org/</dc:title>
     </cc:Agent>
    </dc:creator>
   </cc:Work>
  </rdf:RDF>
 </metadata>
 <defs>
  <style type="text/css">*{stroke-linejoin: round; stroke-linecap: butt}</style>
 </defs>
 <g id="figure_1">
  <g id="patch_1">
   <path d="M 0 177.941353 
L 241.569139 177.941353 
L 241.569139 0 
L 0 0 
L 0 177.941353 
z
" style="fill: none"/>
  </g>
  <g id="axes_1">
   <g id="patch_2">
    <path d="M 35.702185 149.13 
L 231.002185 149.13 
L 231.002185 3.6 
L 35.702185 3.6 
L 35.702185 149.13 
z
" style="fill: none"/>
   </g>
   <g id="line2d_1">
    <path d="M 120.332185 149.13 
L 120.332185 3.6 
" clip-path="url(#p29397ebd5d)" style="fill: none; stroke-dasharray: 3.7,1.6; stroke-dashoffset: 0; stroke: #000000"/>
   </g>
   <g id="matplotlib.axis_1">
    <g id="xtick_1">
     <g id="line2d_2">
      <path d="M 35.702185 149.13 
L 35.702185 3.6 
" clip-path="url(#p29397ebd5d)" style="fill: none; stroke-dasharray: 1.85,0.8; stroke-dashoffset: 0; stroke: #000000; stroke-opacity: 0.5; stroke-width: 0.5"/>
     </g>
     <g id="line2d_3">
      <defs>
       <path id="m3c5f8d3df4" d="M 0 0 
L 0 -3 
" style="stroke: #000000; stroke-width: 0.5"/>
      </defs>
      <g>
       <use xlink:href="#m3c5f8d3df4" x="35.702185" y="149.13" style="stroke: #000000; stroke-width: 0.5"/>
      </g>
     </g>
     <g id="line2d_4">
      <defs>
       <path id="m5ea807d151" d="M 0 0 
L 0 3 
" style="stroke: #000000; stroke-width: 0.5"/>
      </defs>
      <g>
       <use xlink:href="#m5ea807d151" x="35.702185" y="3.6" style="stroke: #000000; stroke-width: 0.5"/>
      </g>
     </g>
     <g id="text_1">
      <!-- $\mathdefault{10^{-1}}$ -->
      <g transform="translate(25.621898 159.548498) scale(0.1 -0.1)">
       <defs>
        <path id="CMR17-31" d="M 1702 4083 
C 1702 4217 1696 4224 1606 4224 
C 1357 3927 979 3833 621 3820 
C 602 3820 570 3820 563 3808 
C 557 3795 557 3782 557 3648 
C 755 3648 1088 3686 1344 3839 
L 1344 467 
C 1344 243 1331 166 781 166 
L 589 166 
L 589 0 
C 896 6 1216 12 1523 12 
C 1830 12 2150 6 2458 0 
L 2458 166 
L 2266 166 
C 1715 166 1702 236 1702 467 
L 1702 4083 
z
" transform="scale(0.015625)"/>
        <path id="CMR17-30" d="M 2688 2038 
C 2688 2430 2682 3099 2413 3613 
C 2176 4063 1798 4224 1466 4224 
C 1158 4224 768 4082 525 3620 
C 269 3137 243 2539 243 2038 
C 243 1671 250 1112 448 623 
C 723 -39 1216 -128 1466 -128 
C 1760 -128 2208 -7 2470 604 
C 2662 1048 2688 1568 2688 2038 
z
M 1466 -26 
C 1056 -26 813 328 723 816 
C 653 1196 653 1749 653 2109 
C 653 2604 653 3015 736 3407 
C 858 3954 1216 4121 1466 4121 
C 1728 4121 2067 3947 2189 3420 
C 2272 3054 2278 2623 2278 2109 
C 2278 1691 2278 1176 2202 797 
C 2067 96 1690 -26 1466 -26 
z
" transform="scale(0.015625)"/>
        <path id="CMSY10-0" d="M 4218 1472 
C 4326 1472 4442 1472 4442 1600 
C 4442 1728 4326 1728 4218 1728 
L 755 1728 
C 646 1728 531 1728 531 1600 
C 531 1472 646 1472 755 1472 
L 4218 1472 
z
" transform="scale(0.015625)"/>
       </defs>
       <use xlink:href="#CMR17-31" transform="scale(0.996264)"/>
       <use xlink:href="#CMR17-30" transform="translate(45.690477 0) scale(0.996264)"/>
       <use xlink:href="#CMSY10-0" transform="translate(91.380954 36.153639) scale(0.697382)"/>
       <use xlink:href="#CMR17-31" transform="translate(145.621947 36.153639) scale(0.697382)"/>
      </g>
     </g>
    </g>
    <g id="xtick_2">
     <g id="line2d_5">
      <path d="M 133.352185 149.13 
L 133.352185 3.6 
" clip-path="url(#p29397ebd5d)" style="fill: none; stroke-dasharray: 1.85,0.8; stroke-dashoffset: 0; stroke: #000000; stroke-opacity: 0.5; stroke-width: 0.5"/>
     </g>
     <g id="line2d_6">
      <g>
       <use xlink:href="#m3c5f8d3df4" x="133.352185" y="149.13" style="stroke: #000000; stroke-width: 0.5"/>
      </g>
     </g>
     <g id="line2d_7">
      <g>
       <use xlink:href="#m5ea807d151" x="133.352185" y="3.6" style="stroke: #000000; stroke-width: 0.5"/>
      </g>
     </g>
     <g id="text_2">
      <!-- $\mathdefault{10^{0}}$ -->
      <g transform="translate(126.38523 159.548498) scale(0.1 -0.1)">
       <use xlink:href="#CMR17-31" transform="scale(0.996264)"/>
       <use xlink:href="#CMR17-30" transform="translate(45.690477 0) scale(0.996264)"/>
       <use xlink:href="#CMR17-30" transform="translate(91.380954 36.153639) scale(0.697382)"/>
      </g>
     </g>
    </g>
    <g id="xtick_3">
     <g id="line2d_8">
      <path d="M 231.002185 149.13 
L 231.002185 3.6 
" clip-path="url(#p29397ebd5d)" style="fill: none; stroke-dasharray: 1.85,0.8; stroke-dashoffset: 0; stroke: #000000; stroke-opacity: 0.5; stroke-width: 0.5"/>
     </g>
     <g id="line2d_9">
      <g>
       <use xlink:href="#m3c5f8d3df4" x="231.002185" y="149.13" style="stroke: #000000; stroke-width: 0.5"/>
      </g>
     </g>
     <g id="line2d_10">
      <g>
       <use xlink:href="#m5ea807d151" x="231.002185" y="3.6" style="stroke: #000000; stroke-width: 0.5"/>
      </g>
     </g>
     <g id="text_3">
      <!-- $\mathdefault{10^{1}}$ -->
      <g transform="translate(224.03523 159.548498) scale(0.1 -0.1)">
       <use xlink:href="#CMR17-31" transform="scale(0.996264)"/>
       <use xlink:href="#CMR17-30" transform="translate(45.690477 0) scale(0.996264)"/>
       <use xlink:href="#CMR17-31" transform="translate(91.380954 36.153639) scale(0.697382)"/>
      </g>
     </g>
    </g>
    <g id="xtick_4">
     <g id="line2d_11">
      <defs>
       <path id="m0da4988895" d="M 0 0 
L 0 -1.5 
" style="stroke: #000000; stroke-width: 0.5"/>
      </defs>
      <g>
       <use xlink:href="#m0da4988895" x="65.097764" y="149.13" style="stroke: #000000; stroke-width: 0.5"/>
      </g>
     </g>
     <g id="line2d_12">
      <defs>
       <path id="m05a78b7640" d="M 0 0 
L 0 1.5 
" style="stroke: #000000; stroke-width: 0.5"/>
      </defs>
      <g>
       <use xlink:href="#m05a78b7640" x="65.097764" y="3.6" style="stroke: #000000; stroke-width: 0.5"/>
      </g>
     </g>
    </g>
    <g id="xtick_5">
     <g id="line2d_13">
      <g>
       <use xlink:href="#m0da4988895" x="82.293075" y="149.13" style="stroke: #000000; stroke-width: 0.5"/>
      </g>
     </g>
     <g id="line2d_14">
      <g>
       <use xlink:href="#m05a78b7640" x="82.293075" y="3.6" style="stroke: #000000; stroke-width: 0.5"/>
      </g>
     </g>
    </g>
    <g id="xtick_6">
     <g id="line2d_15">
      <g>
       <use xlink:href="#m0da4988895" x="94.493343" y="149.13" style="stroke: #000000; stroke-width: 0.5"/>
      </g>
     </g>
     <g id="line2d_16">
      <g>
       <use xlink:href="#m05a78b7640" x="94.493343" y="3.6" style="stroke: #000000; stroke-width: 0.5"/>
      </g>
     </g>
    </g>
    <g id="xtick_7">
     <g id="line2d_17">
      <g>
       <use xlink:href="#m0da4988895" x="103.956605" y="149.13" style="stroke: #000000; stroke-width: 0.5"/>
      </g>
     </g>
     <g id="line2d_18">
      <g>
       <use xlink:href="#m05a78b7640" x="103.956605" y="3.6" style="stroke: #000000; stroke-width: 0.5"/>
      </g>
     </g>
    </g>
    <g id="xtick_8">
     <g id="line2d_19">
      <g>
       <use xlink:href="#m0da4988895" x="111.688654" y="149.13" style="stroke: #000000; stroke-width: 0.5"/>
      </g>
     </g>
     <g id="line2d_20">
      <g>
       <use xlink:href="#m05a78b7640" x="111.688654" y="3.6" style="stroke: #000000; stroke-width: 0.5"/>
      </g>
     </g>
    </g>
    <g id="xtick_9">
     <g id="line2d_21">
      <g>
       <use xlink:href="#m0da4988895" x="118.226008" y="149.13" style="stroke: #000000; stroke-width: 0.5"/>
      </g>
     </g>
     <g id="line2d_22">
      <g>
       <use xlink:href="#m05a78b7640" x="118.226008" y="3.6" style="stroke: #000000; stroke-width: 0.5"/>
      </g>
     </g>
    </g>
    <g id="xtick_10">
     <g id="line2d_23">
      <g>
       <use xlink:href="#m0da4988895" x="123.888922" y="149.13" style="stroke: #000000; stroke-width: 0.5"/>
      </g>
     </g>
     <g id="line2d_24">
      <g>
       <use xlink:href="#m05a78b7640" x="123.888922" y="3.6" style="stroke: #000000; stroke-width: 0.5"/>
      </g>
     </g>
    </g>
    <g id="xtick_11">
     <g id="line2d_25">
      <g>
       <use xlink:href="#m0da4988895" x="128.883966" y="149.13" style="stroke: #000000; stroke-width: 0.5"/>
      </g>
     </g>
     <g id="line2d_26">
      <g>
       <use xlink:href="#m05a78b7640" x="128.883966" y="3.6" style="stroke: #000000; stroke-width: 0.5"/>
      </g>
     </g>
    </g>
    <g id="xtick_12">
     <g id="line2d_27">
      <g>
       <use xlink:href="#m0da4988895" x="162.747764" y="149.13" style="stroke: #000000; stroke-width: 0.5"/>
      </g>
     </g>
     <g id="line2d_28">
      <g>
       <use xlink:href="#m05a78b7640" x="162.747764" y="3.6" style="stroke: #000000; stroke-width: 0.5"/>
      </g>
     </g>
    </g>
    <g id="xtick_13">
     <g id="line2d_29">
      <g>
       <use xlink:href="#m0da4988895" x="179.943075" y="149.13" style="stroke: #000000; stroke-width: 0.5"/>
      </g>
     </g>
     <g id="line2d_30">
      <g>
       <use xlink:href="#m05a78b7640" x="179.943075" y="3.6" style="stroke: #000000; stroke-width: 0.5"/>
      </g>
     </g>
    </g>
    <g id="xtick_14">
     <g id="line2d_31">
      <g>
       <use xlink:href="#m0da4988895" x="192.143343" y="149.13" style="stroke: #000000; stroke-width: 0.5"/>
      </g>
     </g>
     <g id="line2d_32">
      <g>
       <use xlink:href="#m05a78b7640" x="192.143343" y="3.6" style="stroke: #000000; stroke-width: 0.5"/>
      </g>
     </g>
    </g>
    <g id="xtick_15">
     <g id="line2d_33">
      <g>
       <use xlink:href="#m0da4988895" x="201.606605" y="149.13" style="stroke: #000000; stroke-width: 0.5"/>
      </g>
     </g>
     <g id="line2d_34">
      <g>
       <use xlink:href="#m05a78b7640" x="201.606605" y="3.6" style="stroke: #000000; stroke-width: 0.5"/>
      </g>
     </g>
    </g>
    <g id="xtick_16">
     <g id="line2d_35">
      <g>
       <use xlink:href="#m0da4988895" x="209.338654" y="149.13" style="stroke: #000000; stroke-width: 0.5"/>
      </g>
     </g>
     <g id="line2d_36">
      <g>
       <use xlink:href="#m05a78b7640" x="209.338654" y="3.6" style="stroke: #000000; stroke-width: 0.5"/>
      </g>
     </g>
    </g>
    <g id="xtick_17">
     <g id="line2d_37">
      <g>
       <use xlink:href="#m0da4988895" x="215.876008" y="149.13" style="stroke: #000000; stroke-width: 0.5"/>
      </g>
     </g>
     <g id="line2d_38">
      <g>
       <use xlink:href="#m05a78b7640" x="215.876008" y="3.6" style="stroke: #000000; stroke-width: 0.5"/>
      </g>
     </g>
    </g>
    <g id="xtick_18">
     <g id="line2d_39">
      <g>
       <use xlink:href="#m0da4988895" x="221.538922" y="149.13" style="stroke: #000000; stroke-width: 0.5"/>
      </g>
     </g>
     <g id="line2d_40">
      <g>
       <use xlink:href="#m05a78b7640" x="221.538922" y="3.6" style="stroke: #000000; stroke-width: 0.5"/>
      </g>
     </g>
    </g>
    <g id="xtick_19">
     <g id="line2d_41">
      <g>
       <use xlink:href="#m0da4988895" x="226.533966" y="149.13" style="stroke: #000000; stroke-width: 0.5"/>
      </g>
     </g>
     <g id="line2d_42">
      <g>
       <use xlink:href="#m05a78b7640" x="226.533966" y="3.6" style="stroke: #000000; stroke-width: 0.5"/>
      </g>
     </g>
    </g>
    <g id="text_4">
     <!-- $\gamma_\textrm{median}$ -->
     <g transform="translate(118.216066 172.404175) scale(0.1 -0.1)">
      <defs>
       <path id="CMMI12-d" d="M 2419 785 
C 2406 1097 2394 1586 2150 2158 
C 2022 2476 1805 2816 1338 2816 
C 550 2816 122 1815 122 1649 
C 122 1592 166 1592 186 1592 
C 243 1592 243 1605 275 1688 
C 410 2081 819 2393 1261 2393 
C 2150 2393 2278 1408 2278 779 
C 2278 378 2234 245 2195 118 
C 2074 -276 1862 -1064 1862 -1242 
C 1862 -1293 1882 -1351 1933 -1351 
C 2029 -1351 2086 -1140 2157 -886 
C 2310 -327 2349 -47 2381 207 
C 2400 360 2765 1409 3270 2407 
C 3315 2509 3405 2681 3405 2700 
C 3405 2707 3398 2752 3341 2752 
C 3328 2752 3296 2752 3283 2726 
C 3270 2713 3046 2280 2854 1848 
C 2758 1630 2630 1344 2419 785 
z
" transform="scale(0.015625)"/>
       <path id="CMR17-6d" d="M 4326 1954 
C 4326 2276 4269 2816 3507 2816 
C 3072 2816 2771 2520 2656 2173 
L 2650 2173 
C 2573 2700 2195 2816 1837 2816 
C 1331 2816 1069 2424 973 2166 
L 966 2166 
L 966 2816 
L 211 2745 
L 211 2578 
C 589 2578 646 2540 646 2231 
L 646 443 
C 646 198 621 166 211 166 
L 211 0 
C 365 12 646 12 813 12 
C 979 12 1267 12 1421 0 
L 1421 166 
C 1011 166 986 192 986 443 
L 986 1678 
C 986 2269 1344 2713 1792 2713 
C 2266 2713 2317 2289 2317 1980 
L 2317 443 
C 2317 198 2291 166 1882 166 
L 1882 0 
C 2035 12 2317 12 2483 12 
C 2650 12 2938 12 3091 0 
L 3091 166 
C 2682 166 2656 192 2656 443 
L 2656 1678 
C 2656 2269 3014 2713 3462 2713 
C 3936 2713 3987 2289 3987 1980 
L 3987 443 
C 3987 198 3962 166 3552 166 
L 3552 0 
C 3706 12 3987 12 4154 12 
C 4320 12 4608 12 4762 0 
L 4762 166 
C 4352 166 4326 192 4326 443 
L 4326 1954 
z
" transform="scale(0.015625)"/>
       <path id="CMR17-65" d="M 2438 1503 
C 2464 1529 2464 1542 2464 1606 
C 2464 2251 2118 2816 1389 2816 
C 710 2816 173 2175 173 1394 
C 173 554 781 -64 1459 -64 
C 2176 -64 2458 619 2458 755 
C 2458 800 2419 800 2406 800 
C 2362 800 2355 787 2330 709 
C 2189 270 1837 51 1504 51 
C 1229 51 954 206 781 490 
C 582 819 582 1200 582 1503 
L 2438 1503 
z
M 589 1600 
C 634 2511 1126 2713 1382 2713 
C 1818 2713 2112 2308 2118 1600 
L 589 1600 
z
" transform="scale(0.015625)"/>
       <path id="CMR17-64" d="M 1869 4345 
L 1869 4179 
C 2246 4179 2304 4141 2304 3843 
L 2304 2371 
C 2278 2403 2016 2816 1498 2816 
C 845 2816 211 2228 211 1376 
C 211 529 806 -64 1434 -64 
C 1978 -64 2259 361 2291 406 
L 2291 -64 
L 3066 -13 
L 3066 154 
C 2688 154 2630 193 2630 503 
L 2630 4416 
L 1869 4345 
z
M 2291 762 
C 2291 568 2176 393 2029 264 
C 1811 70 1594 38 1472 38 
C 1286 38 621 135 621 1369 
C 621 2636 1363 2713 1530 2713 
C 1824 2713 2061 2545 2208 2313 
C 2291 2177 2291 2157 2291 2041 
L 2291 762 
z
" transform="scale(0.015625)"/>
       <path id="CMR17-69" d="M 992 3961 
C 992 4102 877 4224 730 4224 
C 589 4224 467 4108 467 3961 
C 467 3820 582 3699 730 3699 
C 870 3699 992 3814 992 3961 
z
M 243 2745 
L 243 2579 
C 602 2579 653 2540 653 2231 
L 653 443 
C 653 198 627 166 218 166 
L 218 0 
C 371 12 646 12 806 12 
C 960 12 1222 12 1370 0 
L 1370 166 
C 992 166 979 205 979 436 
L 979 2816 
L 243 2745 
z
" transform="scale(0.015625)"/>
       <path id="CMR17-61" d="M 2304 1656 
C 2304 2048 2304 2275 2035 2534 
C 1798 2751 1523 2816 1306 2816 
C 800 2816 435 2408 435 1977 
C 435 1740 627 1728 666 1728 
C 749 1728 896 1779 896 1958 
C 896 2118 774 2188 666 2188 
C 640 2188 608 2182 589 2176 
C 723 2594 1069 2713 1293 2713 
C 1613 2713 1965 2421 1965 1875 
L 1965 1632 
C 1587 1619 1133 1568 774 1373 
C 371 1147 256 822 256 576 
C 256 77 832 -64 1171 -64 
C 1523 -64 1850 135 1990 505 
C 2003 219 2182 -39 2464 -39 
C 2598 -39 2938 51 2938 563 
L 2938 926 
L 2822 926 
L 2822 557 
C 2822 161 2650 109 2566 109 
C 2304 109 2304 446 2304 732 
L 2304 1656 
z
M 1965 887 
C 1965 323 1568 38 1216 38 
C 896 38 646 278 646 576 
C 646 771 730 1114 1101 1322 
C 1408 1497 1760 1523 1965 1536 
L 1965 887 
z
" transform="scale(0.015625)"/>
       <path id="CMR17-6e" d="M 2656 1954 
C 2656 2282 2592 2816 1837 2816 
C 1331 2816 1069 2424 973 2166 
L 966 2166 
L 966 2816 
L 211 2745 
L 211 2578 
C 589 2578 646 2540 646 2231 
L 646 443 
C 646 198 621 166 211 166 
L 211 0 
C 365 12 646 12 813 12 
C 979 12 1267 12 1421 0 
L 1421 166 
C 1011 166 986 192 986 443 
L 986 1678 
C 986 2269 1344 2713 1792 2713 
C 2266 2713 2317 2289 2317 1980 
L 2317 443 
C 2317 198 2291 166 1882 166 
L 1882 0 
C 2035 12 2317 12 2483 12 
C 2650 12 2938 12 3091 0 
L 3091 166 
C 2682 166 2656 192 2656 443 
L 2656 1954 
z
" transform="scale(0.015625)"/>
      </defs>
      <use xlink:href="#CMMI12-d" transform="scale(0.996264)"/>
      <use xlink:href="#CMR17-6d" transform="translate(50.599133 -14.943915) scale(0.697382)"/>
      <use xlink:href="#CMR17-65" transform="translate(104.442599 -14.943915) scale(0.697382)"/>
      <use xlink:href="#CMR17-64" transform="translate(132.782431 -14.943915) scale(0.697382)"/>
      <use xlink:href="#CMR17-69" transform="translate(168.409039 -14.943915) scale(0.697382)"/>
      <use xlink:href="#CMR17-61" transform="translate(185.818698 -14.943915) scale(0.697382)"/>
      <use xlink:href="#CMR17-6e" transform="translate(217.80188 -14.943915) scale(0.697382)"/>
     </g>
    </g>
   </g>
   <g id="matplotlib.axis_2">
    <g id="ytick_1">
     <g id="line2d_43">
      <path d="M 35.702185 142.55404 
L 231.002185 142.55404 
" clip-path="url(#p29397ebd5d)" style="fill: none; stroke-dasharray: 1.85,0.8; stroke-dashoffset: 0; stroke: #000000; stroke-opacity: 0.5; stroke-width: 0.5"/>
     </g>
     <g id="line2d_44">
      <defs>
       <path id="m568b4a3d23" d="M 0 0 
L 3 0 
" style="stroke: #000000; stroke-width: 0.5"/>
      </defs>
      <g>
       <use xlink:href="#m568b4a3d23" x="35.702185" y="142.55404" style="stroke: #000000; stroke-width: 0.5"/>
      </g>
     </g>
     <g id="line2d_45">
      <defs>
       <path id="mcad2db4fc3" d="M 0 0 
L -3 0 
" style="stroke: #000000; stroke-width: 0.5"/>
      </defs>
      <g>
       <use xlink:href="#mcad2db4fc3" x="231.002185" y="142.55404" style="stroke: #000000; stroke-width: 0.5"/>
      </g>
     </g>
     <g id="text_5">
      <!-- $\mathdefault{0}$ -->
      <g transform="translate(27.220849 146.013289) scale(0.1 -0.1)">
       <use xlink:href="#CMR17-30" transform="scale(0.996264)"/>
      </g>
     </g>
    </g>
    <g id="ytick_2">
     <g id="line2d_46">
      <path d="M 35.702185 102.956761 
L 231.002185 102.956761 
" clip-path="url(#p29397ebd5d)" style="fill: none; stroke-dasharray: 1.85,0.8; stroke-dashoffset: 0; stroke: #000000; stroke-opacity: 0.5; stroke-width: 0.5"/>
     </g>
     <g id="line2d_47">
      <g>
       <use xlink:href="#m568b4a3d23" x="35.702185" y="102.956761" style="stroke: #000000; stroke-width: 0.5"/>
      </g>
     </g>
     <g id="line2d_48">
      <g>
       <use xlink:href="#mcad2db4fc3" x="231.002185" y="102.956761" style="stroke: #000000; stroke-width: 0.5"/>
      </g>
     </g>
     <g id="text_6">
      <!-- $\mathdefault{100}$ -->
      <g transform="translate(17.258179 106.41601) scale(0.1 -0.1)">
       <use xlink:href="#CMR17-31" transform="scale(0.996264)"/>
       <use xlink:href="#CMR17-30" transform="translate(45.690477 0) scale(0.996264)"/>
       <use xlink:href="#CMR17-30" transform="translate(91.380954 0) scale(0.996264)"/>
      </g>
     </g>
    </g>
    <g id="ytick_3">
     <g id="line2d_49">
      <path d="M 35.702185 63.359481 
L 231.002185 63.359481 
" clip-path="url(#p29397ebd5d)" style="fill: none; stroke-dasharray: 1.85,0.8; stroke-dashoffset: 0; stroke: #000000; stroke-opacity: 0.5; stroke-width: 0.5"/>
     </g>
     <g id="line2d_50">
      <g>
       <use xlink:href="#m568b4a3d23" x="35.702185" y="63.359481" style="stroke: #000000; stroke-width: 0.5"/>
      </g>
     </g>
     <g id="line2d_51">
      <g>
       <use xlink:href="#mcad2db4fc3" x="231.002185" y="63.359481" style="stroke: #000000; stroke-width: 0.5"/>
      </g>
     </g>
     <g id="text_7">
      <!-- $\mathdefault{200}$ -->
      <g transform="translate(17.258179 66.818731) scale(0.1 -0.1)">
       <defs>
        <path id="CMR17-32" d="M 2669 990 
L 2554 990 
C 2490 537 2438 460 2413 422 
C 2381 371 1920 371 1830 371 
L 602 371 
C 832 620 1280 1073 1824 1596 
C 2214 1966 2669 2400 2669 3033 
C 2669 3788 2067 4224 1395 4224 
C 691 4224 262 3603 262 3027 
C 262 2777 448 2745 525 2745 
C 589 2745 781 2783 781 3007 
C 781 3206 614 3264 525 3264 
C 486 3264 448 3257 422 3244 
C 544 3788 915 4057 1306 4057 
C 1862 4057 2227 3616 2227 3033 
C 2227 2477 1901 1998 1536 1583 
L 262 147 
L 262 0 
L 2515 0 
L 2669 990 
z
" transform="scale(0.015625)"/>
       </defs>
       <use xlink:href="#CMR17-32" transform="scale(0.996264)"/>
       <use xlink:href="#CMR17-30" transform="translate(45.690477 0) scale(0.996264)"/>
       <use xlink:href="#CMR17-30" transform="translate(91.380954 0) scale(0.996264)"/>
      </g>
     </g>
    </g>
    <g id="ytick_4">
     <g id="line2d_52">
      <path d="M 35.702185 23.762202 
L 231.002185 23.762202 
" clip-path="url(#p29397ebd5d)" style="fill: none; stroke-dasharray: 1.85,0.8; stroke-dashoffset: 0; stroke: #000000; stroke-opacity: 0.5; stroke-width: 0.5"/>
     </g>
     <g id="line2d_53">
      <g>
       <use xlink:href="#m568b4a3d23" x="35.702185" y="23.762202" style="stroke: #000000; stroke-width: 0.5"/>
      </g>
     </g>
     <g id="line2d_54">
      <g>
       <use xlink:href="#mcad2db4fc3" x="231.002185" y="23.762202" style="stroke: #000000; stroke-width: 0.5"/>
      </g>
     </g>
     <g id="text_8">
      <!-- $\mathdefault{300}$ -->
      <g transform="translate(17.258179 27.221451) scale(0.1 -0.1)">
       <defs>
        <path id="CMR17-33" d="M 1414 2176 
C 1984 2176 2234 1673 2234 1094 
C 2234 322 1824 25 1453 25 
C 1114 25 563 193 390 691 
C 422 678 454 678 486 678 
C 640 678 755 780 755 947 
C 755 1132 614 1216 486 1216 
C 378 1216 211 1164 211 927 
C 211 335 787 -128 1466 -128 
C 2176 -128 2720 432 2720 1087 
C 2720 1718 2208 2176 1600 2246 
C 2086 2347 2554 2776 2554 3353 
C 2554 3856 2048 4224 1472 4224 
C 890 4224 378 3862 378 3347 
C 378 3123 544 3084 627 3084 
C 762 3084 877 3167 877 3334 
C 877 3500 762 3584 627 3584 
C 602 3584 570 3584 544 3571 
C 730 3999 1235 4076 1459 4076 
C 1683 4076 2106 3966 2106 3347 
C 2106 3167 2080 2851 1862 2574 
C 1670 2329 1453 2316 1242 2297 
C 1210 2297 1062 2284 1037 2284 
C 992 2278 966 2272 966 2227 
C 966 2182 973 2176 1101 2176 
L 1414 2176 
z
" transform="scale(0.015625)"/>
       </defs>
       <use xlink:href="#CMR17-33" transform="scale(0.996264)"/>
       <use xlink:href="#CMR17-30" transform="translate(45.690477 0) scale(0.996264)"/>
       <use xlink:href="#CMR17-30" transform="translate(91.380954 0) scale(0.996264)"/>
      </g>
     </g>
    </g>
    <g id="ytick_5">
     <g id="line2d_55">
      <defs>
       <path id="mf1c22b86b3" d="M 0 0 
L 1.5 0 
" style="stroke: #000000; stroke-width: 0.5"/>
      </defs>
      <g>
       <use xlink:href="#mf1c22b86b3" x="35.702185" y="134.634584" style="stroke: #000000; stroke-width: 0.5"/>
      </g>
     </g>
     <g id="line2d_56">
      <defs>
       <path id="m7d691463d0" d="M 0 0 
L -1.5 0 
" style="stroke: #000000; stroke-width: 0.5"/>
      </defs>
      <g>
       <use xlink:href="#m7d691463d0" x="231.002185" y="134.634584" style="stroke: #000000; stroke-width: 0.5"/>
      </g>
     </g>
    </g>
    <g id="ytick_6">
     <g id="line2d_57">
      <g>
       <use xlink:href="#mf1c22b86b3" x="35.702185" y="126.715128" style="stroke: #000000; stroke-width: 0.5"/>
      </g>
     </g>
     <g id="line2d_58">
      <g>
       <use xlink:href="#m7d691463d0" x="231.002185" y="126.715128" style="stroke: #000000; stroke-width: 0.5"/>
      </g>
     </g>
    </g>
    <g id="ytick_7">
     <g id="line2d_59">
      <g>
       <use xlink:href="#mf1c22b86b3" x="35.702185" y="118.795672" style="stroke: #000000; stroke-width: 0.5"/>
      </g>
     </g>
     <g id="line2d_60">
      <g>
       <use xlink:href="#m7d691463d0" x="231.002185" y="118.795672" style="stroke: #000000; stroke-width: 0.5"/>
      </g>
     </g>
    </g>
    <g id="ytick_8">
     <g id="line2d_61">
      <g>
       <use xlink:href="#mf1c22b86b3" x="35.702185" y="110.876217" style="stroke: #000000; stroke-width: 0.5"/>
      </g>
     </g>
     <g id="line2d_62">
      <g>
       <use xlink:href="#m7d691463d0" x="231.002185" y="110.876217" style="stroke: #000000; stroke-width: 0.5"/>
      </g>
     </g>
    </g>
    <g id="ytick_9">
     <g id="line2d_63">
      <g>
       <use xlink:href="#mf1c22b86b3" x="35.702185" y="95.037305" style="stroke: #000000; stroke-width: 0.5"/>
      </g>
     </g>
     <g id="line2d_64">
      <g>
       <use xlink:href="#m7d691463d0" x="231.002185" y="95.037305" style="stroke: #000000; stroke-width: 0.5"/>
      </g>
     </g>
    </g>
    <g id="ytick_10">
     <g id="line2d_65">
      <g>
       <use xlink:href="#mf1c22b86b3" x="35.702185" y="87.117849" style="stroke: #000000; stroke-width: 0.5"/>
      </g>
     </g>
     <g id="line2d_66">
      <g>
       <use xlink:href="#m7d691463d0" x="231.002185" y="87.117849" style="stroke: #000000; stroke-width: 0.5"/>
      </g>
     </g>
    </g>
    <g id="ytick_11">
     <g id="line2d_67">
      <g>
       <use xlink:href="#mf1c22b86b3" x="35.702185" y="79.198393" style="stroke: #000000; stroke-width: 0.5"/>
      </g>
     </g>
     <g id="line2d_68">
      <g>
       <use xlink:href="#m7d691463d0" x="231.002185" y="79.198393" style="stroke: #000000; stroke-width: 0.5"/>
      </g>
     </g>
    </g>
    <g id="ytick_12">
     <g id="line2d_69">
      <g>
       <use xlink:href="#mf1c22b86b3" x="35.702185" y="71.278937" style="stroke: #000000; stroke-width: 0.5"/>
      </g>
     </g>
     <g id="line2d_70">
      <g>
       <use xlink:href="#m7d691463d0" x="231.002185" y="71.278937" style="stroke: #000000; stroke-width: 0.5"/>
      </g>
     </g>
    </g>
    <g id="ytick_13">
     <g id="line2d_71">
      <g>
       <use xlink:href="#mf1c22b86b3" x="35.702185" y="55.440025" style="stroke: #000000; stroke-width: 0.5"/>
      </g>
     </g>
     <g id="line2d_72">
      <g>
       <use xlink:href="#m7d691463d0" x="231.002185" y="55.440025" style="stroke: #000000; stroke-width: 0.5"/>
      </g>
     </g>
    </g>
    <g id="ytick_14">
     <g id="line2d_73">
      <g>
       <use xlink:href="#mf1c22b86b3" x="35.702185" y="47.52057" style="stroke: #000000; stroke-width: 0.5"/>
      </g>
     </g>
     <g id="line2d_74">
      <g>
       <use xlink:href="#m7d691463d0" x="231.002185" y="47.52057" style="stroke: #000000; stroke-width: 0.5"/>
      </g>
     </g>
    </g>
    <g id="ytick_15">
     <g id="line2d_75">
      <g>
       <use xlink:href="#mf1c22b86b3" x="35.702185" y="39.601114" style="stroke: #000000; stroke-width: 0.5"/>
      </g>
     </g>
     <g id="line2d_76">
      <g>
       <use xlink:href="#m7d691463d0" x="231.002185" y="39.601114" style="stroke: #000000; stroke-width: 0.5"/>
      </g>
     </g>
    </g>
    <g id="ytick_16">
     <g id="line2d_77">
      <g>
       <use xlink:href="#mf1c22b86b3" x="35.702185" y="31.681658" style="stroke: #000000; stroke-width: 0.5"/>
      </g>
     </g>
     <g id="line2d_78">
      <g>
       <use xlink:href="#m7d691463d0" x="231.002185" y="31.681658" style="stroke: #000000; stroke-width: 0.5"/>
      </g>
     </g>
    </g>
    <g id="ytick_17">
     <g id="line2d_79">
      <g>
       <use xlink:href="#mf1c22b86b3" x="35.702185" y="15.842746" style="stroke: #000000; stroke-width: 0.5"/>
      </g>
     </g>
     <g id="line2d_80">
      <g>
       <use xlink:href="#m7d691463d0" x="231.002185" y="15.842746" style="stroke: #000000; stroke-width: 0.5"/>
      </g>
     </g>
    </g>
    <g id="ytick_18">
     <g id="line2d_81">
      <g>
       <use xlink:href="#mf1c22b86b3" x="35.702185" y="7.92329" style="stroke: #000000; stroke-width: 0.5"/>
      </g>
     </g>
     <g id="line2d_82">
      <g>
       <use xlink:href="#m7d691463d0" x="231.002185" y="7.92329" style="stroke: #000000; stroke-width: 0.5"/>
      </g>
     </g>
    </g>
    <g id="text_9">
     <!-- $\mathcal{V}_{eff}$ -->
     <g transform="translate(10.407784 85.583118) rotate(-90) scale(0.1 -0.1)">
      <defs>
       <path id="CMSY10-56" d="M 1728 568 
C 1824 1347 1824 1917 1824 2012 
C 1824 2461 1824 4352 659 4352 
C 442 4352 218 4172 218 4083 
C 218 4038 250 4038 339 4032 
C 1274 3949 1350 2499 1350 1784 
C 1350 1144 1267 384 1190 -40 
C 1178 -116 1178 -128 1178 -154 
C 1178 -186 1178 -263 1222 -263 
C 1293 -263 2842 910 3654 2132 
C 3981 2626 4224 3189 4224 3614 
C 4224 4153 3866 4352 3603 4352 
C 3418 4352 3328 3949 3328 3867 
C 3328 3772 3360 3772 3437 3766 
C 3866 3715 3942 3379 3942 3227 
C 3942 2715 2829 1417 1728 568 
z
" transform="scale(0.015625)"/>
       <path id="CMMI12-65" d="M 1146 1472 
C 1318 1472 1754 1484 2061 1600 
C 2547 1786 2592 2160 2592 2275 
C 2592 2559 2349 2816 1926 2816 
C 1254 2816 288 2205 288 1066 
C 288 400 672 -64 1254 -64 
C 2125 -64 2675 609 2675 691 
C 2675 729 2637 761 2611 761 
C 2592 761 2586 755 2528 698 
C 2118 159 1510 64 1267 64 
C 902 64 710 349 710 818 
C 710 907 710 1066 806 1472 
L 1146 1472 
z
M 838 1600 
C 1114 2591 1722 2687 1926 2687 
C 2208 2687 2400 2520 2400 2275 
C 2400 1600 1376 1600 1107 1600 
L 838 1600 
z
" transform="scale(0.015625)"/>
       <path id="CMMI12-66" d="M 2854 2566 
C 2982 2566 3034 2566 3034 2687 
C 3034 2752 2982 2752 2867 2752 
L 2349 2752 
C 2470 3398 2560 3846 2611 4051 
C 2650 4204 2784 4351 2950 4351 
C 3085 4351 3219 4294 3283 4236 
C 3034 4211 2957 4025 2957 3916 
C 2957 3788 3053 3712 3174 3712 
C 3302 3712 3494 3820 3494 4064 
C 3494 4332 3226 4480 2944 4480 
C 2669 4480 2400 4275 2272 4025 
C 2157 3801 2093 3573 1946 2752 
L 1517 2752 
C 1395 2752 1331 2752 1331 2636 
C 1331 2566 1370 2566 1498 2566 
L 1907 2566 
C 1792 1977 1530 545 1382 -132 
C 1274 -685 1178 -1152 858 -1152 
C 838 -1152 653 -1152 538 -1031 
C 864 -1005 864 -724 864 -717 
C 864 -589 768 -512 646 -512 
C 518 -512 326 -621 326 -865 
C 326 -1140 608 -1280 858 -1280 
C 1510 -1280 1779 -113 1850 203 
C 1965 691 2278 2376 2310 2566 
L 2854 2566 
z
" transform="scale(0.015625)"/>
      </defs>
      <use xlink:href="#CMSY10-56" transform="scale(0.996264)"/>
      <use xlink:href="#CMMI12-65" transform="translate(61.049309 -14.943915) scale(0.697382)"/>
      <use xlink:href="#CMMI12-66" transform="translate(92.697565 -14.943915) scale(0.697382)"/>
      <use xlink:href="#CMMI12-66" transform="translate(133.801589 -14.943915) scale(0.697382)"/>
     </g>
    </g>
   </g>
   <g id="line2d_83">
    <path d="M 35.702185 142.513677 
L 42.212185 142.451477 
L 48.722185 142.335019 
L 55.232185 142.074973 
L 61.742185 141.583333 
L 68.252185 140.65299 
L 74.762185 138.949125 
L 81.272185 136.064795 
L 87.782185 131.739294 
L 94.292185 125.604056 
L 100.802185 117.211776 
L 107.312185 107.016376 
L 113.822185 94.939115 
L 120.332185 81.154019 
L 126.842185 66.1031 
L 133.352185 48.948652 
L 139.862185 31.036563 
L 146.372185 17.462548 
L 152.882185 11.949965 
L 159.392185 10.351971 
L 165.902185 10.215 
L 172.412185 10.215 
L 178.922185 10.215 
L 185.432185 10.215 
L 191.942185 10.215 
L 198.452185 10.215 
L 204.962185 10.215 
L 211.472185 10.215 
L 217.982185 10.215 
L 224.492185 10.215 
L 231.002185 10.215 
" clip-path="url(#p29397ebd5d)" style="fill: none; stroke: #4477aa; stroke-linecap: square"/>
   </g>
   <g id="line2d_84">
    <path d="M 35.702185 142.500443 
L 42.212185 142.448169 
L 48.722185 142.31583 
L 55.232185 142.086883 
L 61.742185 141.556204 
L 68.252185 140.679458 
L 74.762185 139.056981 
L 81.272185 136.393658 
L 87.782185 132.041027 
L 94.292185 126.476832 
L 100.802185 118.897113 
L 107.312185 109.712122 
L 113.822185 98.429557 
L 120.332185 85.173817 
L 126.842185 69.869469 
L 133.352185 52.905589 
L 139.862185 34.72022 
L 146.372185 20.653242 
L 152.882185 13.646551 
L 159.392185 10.933601 
L 165.902185 10.225587 
L 172.412185 10.215 
L 178.922185 10.215 
L 185.432185 10.215 
L 191.942185 10.215 
L 198.452185 10.215 
L 204.962185 10.215 
L 211.472185 10.215 
L 217.982185 10.215 
L 224.492185 10.215 
L 231.002185 10.215 
" clip-path="url(#p29397ebd5d)" style="fill: none; stroke: #ee6677; stroke-linecap: square"/>
   </g>
   <g id="line2d_85">
    <path d="M 35.702185 142.515 
L 42.212185 142.455447 
L 48.722185 142.343621 
L 55.232185 142.070341 
L 61.742185 141.582671 
L 68.252185 140.689383 
L 74.762185 138.932582 
L 81.272185 135.995317 
L 87.782185 131.240375 
L 94.292185 124.076863 
L 100.802185 114.062768 
L 107.312185 101.708257 
L 113.822185 86.648736 
L 120.332185 69.748379 
L 126.842185 52.891694 
L 133.352185 34.658682 
L 139.862185 19.065173 
L 146.372185 11.719033 
L 152.882185 10.25801 
L 159.392185 10.215 
L 165.902185 10.215 
L 172.412185 10.215 
L 178.922185 10.215 
L 185.432185 10.215 
L 191.942185 10.215 
L 198.452185 10.215 
L 204.962185 10.215 
L 211.472185 10.215 
L 217.982185 10.215 
L 224.492185 10.215 
L 231.002185 10.215 
" clip-path="url(#p29397ebd5d)" style="fill: none; stroke: #228833; stroke-linecap: square"/>
   </g>
   <g id="line2d_86">
    <path d="M 35.702185 142.508383 
L 42.212185 142.44089 
L 48.722185 142.32377 
L 55.232185 142.045858 
L 61.742185 141.422541 
L 68.252185 140.35258 
L 74.762185 138.37345 
L 81.272185 134.488637 
L 87.782185 128.214443 
L 94.292185 118.461056 
L 100.802185 104.982325 
L 107.312185 87.749135 
L 113.822185 68.49182 
L 120.332185 49.055847 
L 126.842185 32.967389 
L 133.352185 21.561749 
L 139.862185 14.316187 
L 146.372185 10.983228 
L 152.882185 10.277861 
L 159.392185 10.215 
L 165.902185 10.215 
L 172.412185 10.215 
L 178.922185 10.215 
L 185.432185 10.215 
L 191.942185 10.215 
L 198.452185 10.215 
L 204.962185 10.215 
L 211.472185 10.215 
L 217.982185 10.215 
L 224.492185 10.215 
L 231.002185 10.215 
" clip-path="url(#p29397ebd5d)" style="fill: none; stroke: #ccbb44; stroke-linecap: square"/>
   </g>
   <g id="line2d_87">
    <path d="M 35.702185 142.509706 
L 42.212185 142.452139 
L 48.722185 142.284068 
L 55.232185 141.995569 
L 61.742185 141.372914 
L 68.252185 140.159365 
L 74.762185 137.748148 
L 81.272185 133.278397 
L 87.782185 125.574279 
L 94.292185 113.129778 
L 100.802185 95.670288 
L 107.312185 75.046572 
L 113.822185 54.354702 
L 120.332185 36.007217 
L 126.842185 23.31061 
L 133.352185 16.17555 
L 139.862185 12.34235 
L 146.372185 10.572977 
L 152.882185 10.228896 
L 159.392185 10.215 
L 165.902185 10.215 
L 172.412185 10.215 
L 178.922185 10.215 
L 185.432185 10.215 
L 191.942185 10.215 
L 198.452185 10.215 
L 204.962185 10.215 
L 211.472185 10.215 
L 217.982185 10.215 
L 224.492185 10.215 
L 231.002185 10.215 
" clip-path="url(#p29397ebd5d)" style="fill: none; stroke: #66ccee; stroke-linecap: square"/>
   </g>
   <g id="line2d_88">
    <path d="M 35.702185 142.504413 
L 42.212185 142.421701 
L 48.722185 142.303258 
L 55.232185 142.00748 
L 61.742185 141.471507 
L 68.252185 140.318172 
L 74.762185 137.953935 
L 81.272185 133.773345 
L 87.782185 126.268398 
L 94.292185 114.26657 
L 100.802185 98.217153 
L 107.312185 80.121113 
L 113.822185 61.373964 
L 120.332185 44.652265 
L 126.842185 31.222499 
L 133.352185 21.651078 
L 139.862185 15.492681 
L 146.372185 11.739546 
L 152.882185 10.303005 
L 159.392185 10.215 
L 165.902185 10.215 
L 172.412185 10.215 
L 178.922185 10.215 
L 185.432185 10.215 
L 191.942185 10.215 
L 198.452185 10.215 
L 204.962185 10.215 
L 211.472185 10.215 
L 217.982185 10.215 
L 224.492185 10.215 
L 231.002185 10.215 
" clip-path="url(#p29397ebd5d)" style="fill: none; stroke: #aa3377; stroke-linecap: square"/>
   </g>
   <g id="patch_3">
    <path d="M 35.702185 149.13 
L 35.702185 3.6 
" style="fill: none; stroke: #000000; stroke-width: 0.5; stroke-linejoin: miter; stroke-linecap: square"/>
   </g>
   <g id="patch_4">
    <path d="M 231.002185 149.13 
L 231.002185 3.6 
" style="fill: none; stroke: #000000; stroke-width: 0.5; stroke-linejoin: miter; stroke-linecap: square"/>
   </g>
   <g id="patch_5">
    <path d="M 35.702185 149.13 
L 231.002185 149.13 
" style="fill: none; stroke: #000000; stroke-width: 0.5; stroke-linejoin: miter; stroke-linecap: square"/>
   </g>
   <g id="patch_6">
    <path d="M 35.702185 3.6 
L 231.002185 3.6 
" style="fill: none; stroke: #000000; stroke-width: 0.5; stroke-linejoin: miter; stroke-linecap: square"/>
   </g>
   <g id="legend_1">
    <g id="patch_7">
     <path d="M 155.110417 144.965 
L 225.171185 144.965 
Q 226.837185 144.965 226.837185 143.299 
L 226.837185 74.473985 
Q 226.837185 72.807985 225.171185 72.807985 
L 155.110417 72.807985 
Q 153.444417 72.807985 153.444417 74.473985 
L 153.444417 143.299 
Q 153.444417 144.965 155.110417 144.965 
z
" style="fill: #ffffff; stroke: #cccccc; stroke-linejoin: miter"/>
    </g>
    <g id="line2d_89">
     <path d="M 156.776417 79.055485 
L 165.106417 79.055485 
L 173.436417 79.055485 
" style="fill: none; stroke: #4477aa; stroke-linecap: square"/>
    </g>
    <g id="text_10">
     <!-- $N_\textrm{NP} = 9$ -->
     <g transform="translate(180.100417 81.970985) scale(0.0833 -0.0833)">
      <defs>
       <path id="CMMI12-4e" d="M 4736 3682 
C 4806 3956 4909 4147 5395 4166 
C 5414 4166 5491 4172 5491 4281 
C 5491 4352 5434 4352 5408 4352 
C 5280 4352 4954 4339 4826 4339 
L 4518 4339 
C 4429 4339 4314 4352 4224 4352 
C 4186 4352 4109 4352 4109 4230 
C 4109 4166 4160 4166 4205 4166 
C 4589 4153 4614 4007 4614 3892 
C 4614 3835 4608 3816 4589 3726 
L 3866 854 
L 2496 4243 
C 2451 4345 2445 4352 2304 4352 
L 1523 4352 
C 1395 4352 1338 4352 1338 4230 
C 1338 4166 1382 4166 1504 4166 
C 1536 4166 1914 4166 1914 4109 
C 1914 4096 1901 4045 1894 4026 
L 1043 650 
C 966 338 813 204 390 185 
C 358 185 294 179 294 64 
C 294 0 358 0 378 0 
C 506 0 832 12 960 12 
L 1267 12 
C 1357 12 1466 0 1555 0 
C 1600 0 1670 0 1670 121 
C 1670 179 1606 185 1581 185 
C 1370 191 1165 230 1165 459 
C 1165 510 1178 567 1190 618 
L 2054 4026 
C 2093 3962 2093 3949 2118 3892 
L 3642 115 
C 3674 38 3686 0 3744 0 
C 3808 0 3814 19 3840 128 
L 4736 3682 
z
" transform="scale(0.015625)"/>
       <path id="CMR17-4e" d="M 1312 4275 
C 1267 4345 1261 4352 1139 4352 
L 326 4352 
L 326 4185 
L 448 4185 
C 704 4185 819 4153 838 4147 
L 838 624 
C 838 465 838 166 326 166 
L 326 0 
C 474 12 742 12 902 12 
C 1062 12 1331 12 1478 0 
L 1478 166 
C 966 166 966 465 966 624 
L 966 4057 
C 1011 4019 1011 4007 1056 3943 
L 3430 76 
C 3475 0 3494 0 3526 0 
C 3590 0 3590 19 3590 140 
L 3590 3726 
C 3590 3885 3590 4185 4102 4185 
L 4102 4352 
C 3955 4339 3686 4339 3526 4339 
C 3366 4339 3098 4339 2950 4352 
L 2950 4185 
C 3462 4185 3462 3885 3462 3726 
L 3462 777 
L 1312 4275 
z
" transform="scale(0.015625)"/>
       <path id="CMR17-50" d="M 1267 2048 
L 2291 2048 
C 3117 2048 3718 2583 3718 3187 
C 3718 3791 3130 4352 2291 4352 
L 333 4352 
L 333 4185 
C 774 4185 845 4185 845 3899 
L 845 453 
C 845 166 774 166 333 166 
L 333 0 
C 518 12 858 12 1056 12 
C 1254 12 1594 12 1779 0 
L 1779 166 
C 1338 166 1267 166 1267 453 
L 1267 2048 
z
M 1254 2182 
L 1254 3937 
C 1254 4153 1267 4185 1523 4185 
L 2170 4185 
C 2995 4185 3232 3715 3232 3187 
C 3232 2608 2950 2182 2170 2182 
L 1254 2182 
z
" transform="scale(0.015625)"/>
       <path id="CMR17-3d" d="M 4115 2048 
C 4211 2048 4307 2048 4307 2156 
C 4307 2272 4198 2272 4090 2272 
L 512 2272 
C 403 2272 294 2272 294 2156 
C 294 2048 390 2048 486 2048 
L 4115 2048 
z
M 4090 927 
C 4198 927 4307 927 4307 1043 
C 4307 1152 4211 1152 4115 1152 
L 486 1152 
C 390 1152 294 1152 294 1043 
C 294 927 403 927 512 927 
L 4090 927 
z
" transform="scale(0.015625)"/>
       <path id="CMR17-39" d="M 2253 1871 
C 2253 448 1670 25 1190 25 
C 1043 25 685 43 538 281 
C 704 256 826 345 826 505 
C 826 678 685 736 595 736 
C 538 736 365 710 365 492 
C 365 68 742 -128 1203 -128 
C 1939 -128 2688 665 2688 2090 
C 2688 3857 1971 4224 1485 4224 
C 851 4224 243 3664 243 2800 
C 243 2000 762 1408 1414 1408 
C 1952 1408 2189 1910 2253 2122 
L 2253 1871 
z
M 1427 1510 
C 1254 1510 1011 1542 813 1929 
C 678 2181 678 2477 678 2793 
C 678 3174 678 3438 858 3722 
C 947 3857 1114 4076 1485 4076 
C 2240 4076 2240 2909 2240 2651 
C 2240 2193 2035 1510 1427 1510 
z
" transform="scale(0.015625)"/>
      </defs>
      <use xlink:href="#CMMI12-4e" transform="scale(0.996264)"/>
      <use xlink:href="#CMR17-4e" transform="translate(78.115119 -14.943915) scale(0.697382)"/>
      <use xlink:href="#CMR17-50" transform="translate(126.465604 -14.943915) scale(0.697382)"/>
      <use xlink:href="#CMR17-3d" transform="translate(198.447959 0) scale(0.996264)"/>
      <use xlink:href="#CMR17-39" transform="translate(297.836756 0) scale(0.996264)"/>
     </g>
    </g>
    <g id="line2d_90">
     <path d="M 156.776417 90.665154 
L 165.106417 90.665154 
L 173.436417 90.665154 
" style="fill: none; stroke: #ee6677; stroke-linecap: square"/>
    </g>
    <g id="text_11">
     <!-- $N_\textrm{NP} = 25$ -->
     <g transform="translate(180.100417 93.580654) scale(0.0833 -0.0833)">
      <defs>
       <path id="CMR17-35" d="M 730 3750 
C 794 3724 1056 3641 1325 3641 
C 1920 3641 2246 3961 2432 4140 
C 2432 4191 2432 4224 2394 4224 
C 2387 4224 2374 4224 2323 4198 
C 2099 4102 1837 4032 1517 4032 
C 1325 4032 1037 4055 723 4191 
C 653 4224 640 4224 634 4224 
C 602 4224 595 4217 595 4090 
L 595 2231 
C 595 2113 595 2080 659 2080 
C 691 2080 704 2093 736 2139 
C 941 2435 1222 2560 1542 2560 
C 1766 2560 2246 2415 2246 1293 
C 2246 1087 2246 716 2054 422 
C 1894 159 1645 25 1370 25 
C 947 25 518 319 403 812 
C 429 806 480 793 506 793 
C 589 793 749 838 749 1036 
C 749 1209 627 1280 506 1280 
C 358 1280 262 1190 262 1011 
C 262 454 704 -128 1382 -128 
C 2042 -128 2669 441 2669 1267 
C 2669 2054 2170 2662 1549 2662 
C 1222 2662 947 2540 730 2304 
L 730 3750 
z
" transform="scale(0.015625)"/>
      </defs>
      <use xlink:href="#CMMI12-4e" transform="scale(0.996264)"/>
      <use xlink:href="#CMR17-4e" transform="translate(78.115119 -14.943915) scale(0.697382)"/>
      <use xlink:href="#CMR17-50" transform="translate(126.465604 -14.943915) scale(0.697382)"/>
      <use xlink:href="#CMR17-3d" transform="translate(198.447959 0) scale(0.996264)"/>
      <use xlink:href="#CMR17-32" transform="translate(297.836756 0) scale(0.996264)"/>
      <use xlink:href="#CMR17-35" transform="translate(343.527233 0) scale(0.996264)"/>
     </g>
    </g>
    <g id="line2d_91">
     <path d="M 156.776417 102.274823 
L 165.106417 102.274823 
L 173.436417 102.274823 
" style="fill: none; stroke: #228833; stroke-linecap: square"/>
    </g>
    <g id="text_12">
     <!-- $N_\textrm{NP} = 49$ -->
     <g transform="translate(180.100417 105.190323) scale(0.0833 -0.0833)">
      <defs>
       <path id="CMR17-34" d="M 2150 4147 
C 2150 4281 2144 4288 2029 4288 
L 128 1254 
L 128 1088 
L 1779 1088 
L 1779 460 
C 1779 230 1766 166 1318 166 
L 1197 166 
L 1197 0 
C 1402 12 1747 12 1965 12 
C 2182 12 2528 12 2733 0 
L 2733 166 
L 2611 166 
C 2163 166 2150 230 2150 460 
L 2150 1088 
L 2803 1088 
L 2803 1254 
L 2150 1254 
L 2150 4147 
z
M 1798 3723 
L 1798 1254 
L 256 1254 
L 1798 3723 
z
" transform="scale(0.015625)"/>
      </defs>
      <use xlink:href="#CMMI12-4e" transform="scale(0.996264)"/>
      <use xlink:href="#CMR17-4e" transform="translate(78.115119 -14.943915) scale(0.697382)"/>
      <use xlink:href="#CMR17-50" transform="translate(126.465604 -14.943915) scale(0.697382)"/>
      <use xlink:href="#CMR17-3d" transform="translate(198.447959 0) scale(0.996264)"/>
      <use xlink:href="#CMR17-34" transform="translate(297.836756 0) scale(0.996264)"/>
      <use xlink:href="#CMR17-39" transform="translate(343.527233 0) scale(0.996264)"/>
     </g>
    </g>
    <g id="line2d_92">
     <path d="M 156.776417 113.884492 
L 165.106417 113.884492 
L 173.436417 113.884492 
" style="fill: none; stroke: #ccbb44; stroke-linecap: square"/>
    </g>
    <g id="text_13">
     <!-- $N_\textrm{NP} = 81$ -->
     <g transform="translate(180.100417 116.799992) scale(0.0833 -0.0833)">
      <defs>
       <path id="CMR17-38" d="M 1741 2289 
C 2144 2494 2554 2803 2554 3298 
C 2554 3884 1990 4224 1472 4224 
C 890 4224 378 3800 378 3215 
C 378 3054 416 2777 666 2533 
C 730 2469 998 2276 1171 2154 
C 883 2006 211 1652 211 945 
C 211 282 838 -128 1459 -128 
C 2144 -128 2720 366 2720 1022 
C 2720 1607 2330 1877 2074 2051 
L 1741 2289 
z
M 902 2855 
C 851 2887 595 3086 595 3388 
C 595 3781 998 4076 1459 4076 
C 1965 4076 2336 3716 2336 3298 
C 2336 2700 1670 2359 1638 2359 
C 1632 2359 1626 2359 1574 2398 
L 902 2855 
z
M 2080 1536 
C 2176 1466 2483 1253 2483 861 
C 2483 385 2010 25 1472 25 
C 890 25 448 443 448 951 
C 448 1459 838 1884 1280 2083 
L 2080 1536 
z
" transform="scale(0.015625)"/>
      </defs>
      <use xlink:href="#CMMI12-4e" transform="scale(0.996264)"/>
      <use xlink:href="#CMR17-4e" transform="translate(78.115119 -14.943915) scale(0.697382)"/>
      <use xlink:href="#CMR17-50" transform="translate(126.465604 -14.943915) scale(0.697382)"/>
      <use xlink:href="#CMR17-3d" transform="translate(198.447959 0) scale(0.996264)"/>
      <use xlink:href="#CMR17-38" transform="translate(297.836756 0) scale(0.996264)"/>
      <use xlink:href="#CMR17-31" transform="translate(343.527233 0) scale(0.996264)"/>
     </g>
    </g>
    <g id="line2d_93">
     <path d="M 156.776417 125.494162 
L 165.106417 125.494162 
L 173.436417 125.494162 
" style="fill: none; stroke: #66ccee; stroke-linecap: square"/>
    </g>
    <g id="text_14">
     <!-- $N_\textrm{NP} = 121$ -->
     <g transform="translate(180.100417 128.409662) scale(0.0833 -0.0833)">
      <use xlink:href="#CMMI12-4e" transform="scale(0.996264)"/>
      <use xlink:href="#CMR17-4e" transform="translate(78.115119 -14.943915) scale(0.697382)"/>
      <use xlink:href="#CMR17-50" transform="translate(126.465604 -14.943915) scale(0.697382)"/>
      <use xlink:href="#CMR17-3d" transform="translate(198.447959 0) scale(0.996264)"/>
      <use xlink:href="#CMR17-31" transform="translate(297.836756 0) scale(0.996264)"/>
      <use xlink:href="#CMR17-32" transform="translate(343.527233 0) scale(0.996264)"/>
      <use xlink:href="#CMR17-31" transform="translate(389.21771 0) scale(0.996264)"/>
     </g>
    </g>
    <g id="line2d_94">
     <path d="M 156.776417 137.103831 
L 165.106417 137.103831 
L 173.436417 137.103831 
" style="fill: none; stroke: #aa3377; stroke-linecap: square"/>
    </g>
    <g id="text_15">
     <!-- $N_\textrm{NP} = 169$ -->
     <g transform="translate(180.100417 140.019331) scale(0.0833 -0.0833)">
      <defs>
       <path id="CMR17-36" d="M 678 2198 
C 678 3712 1395 4076 1811 4076 
C 1946 4076 2272 4049 2400 3782 
C 2298 3782 2106 3782 2106 3558 
C 2106 3385 2246 3328 2336 3328 
C 2394 3328 2566 3353 2566 3571 
C 2566 3987 2246 4224 1805 4224 
C 1043 4224 243 3411 243 2011 
C 243 257 966 -128 1478 -128 
C 2099 -128 2688 431 2688 1295 
C 2688 2101 2170 2688 1517 2688 
C 1126 2688 838 2430 678 1979 
L 678 2198 
z
M 1478 25 
C 691 25 691 1212 691 1450 
C 691 1914 909 2585 1504 2585 
C 1613 2585 1926 2585 2138 2140 
C 2253 1889 2253 1624 2253 1302 
C 2253 954 2253 696 2118 438 
C 1978 173 1773 25 1478 25 
z
" transform="scale(0.015625)"/>
      </defs>
      <use xlink:href="#CMMI12-4e" transform="scale(0.996264)"/>
      <use xlink:href="#CMR17-4e" transform="translate(78.115119 -14.943915) scale(0.697382)"/>
      <use xlink:href="#CMR17-50" transform="translate(126.465604 -14.943915) scale(0.697382)"/>
      <use xlink:href="#CMR17-3d" transform="translate(198.447959 0) scale(0.996264)"/>
      <use xlink:href="#CMR17-31" transform="translate(297.836756 0) scale(0.996264)"/>
      <use xlink:href="#CMR17-36" transform="translate(343.527233 0) scale(0.996264)"/>
      <use xlink:href="#CMR17-39" transform="translate(389.21771 0) scale(0.996264)"/>
     </g>
    </g>
   </g>
  </g>
 </g>
 <defs>
  <clipPath id="p29397ebd5d">
   <rect x="35.702185" y="3.6" width="195.3" height="145.53"/>
  </clipPath>
 </defs>
</svg>
