<?xml version="1.0" encoding="utf-8" standalone="no"?>
<!DOCTYPE svg PUBLIC "-//W3C//DTD SVG 1.1//EN"
  "http://www.w3.org/Graphics/SVG/1.1/DTD/svg11.dtd">
<svg xmlns:xlink="http://www.w3.org/1999/xlink" width="180.795849pt" height="141.558853pt" viewBox="0 0 180.795849 141.558853" xmlns="http://www.w3.org/2000/svg" version="1.1">
 <metadata>
  <rdf:RDF xmlns:dc="http://purl.org/dc/elements/1.1/" xmlns:cc="http://creativecommons.org/ns#" xmlns:rdf="http://www.w3.org/1999/02/22-rdf-syntax-ns#">
   <cc:Work>
    <dc:type rdf:resource="http://purl.org/dc/dcmitype/StillImage"/>
    <dc:date>2026-04-04T20:09:37.100240</dc:date>
    <dc:format>image/svg+xml</dc:format>
    <dc:creator>
     <cc:Agent>
      <dc:title>Matplotlib v3.7.0, https://matplotlib.org/</dc:title>
     </cc:Agent>
    </dc:creator>
   </cc:Work>
  </rdf:RDF>
 </metadata>
 <defs>
  <style type="text/css">*{stroke-linejoin: round; stroke-linecap: butt}</style>
 </defs>
 <g id="figure_1">
  <g id="patch_1">
   <path d="M 0 141.558853 
L 180.795849 141.558853 
L 180.795849 0 
L 0 0 
L 0 141.558853 
z
" style="fill: none"/>
  </g>
  <g id="axes_1">
   <g id="patch_2">
    <path d="M 30.720849 112.7475 
L 177.195849 112.7475 
L 177.195849 3.6 
L 30.720849 3.6 
L 30.720849 112.7475 
z
" style="fill: none"/>
   </g>
   <g id="matplotlib.axis_1">
    <g id="xtick_1">
     <g id="line2d_1">
      <path d="M 37.378804 112.7475 
L 37.378804 3.6 
" clip-path="url(#pb1fba6deba)" style="fill: none; stroke-dasharray: 1.85,0.8; stroke-dashoffset: 0; stroke: #000000; stroke-opacity: 0.5; stroke-width: 0.5"/>
     </g>
     <g id="line2d_2">
      <defs>
       <path id="m4057de2d99" d="M 0 0 
L 0 -3 
" style="stroke: #000000; stroke-width: 0.5"/>
      </defs>
      <g>
       <use xlink:href="#m4057de2d99" x="37.378804" y="112.7475" style="stroke: #000000; stroke-width: 0.5"/>
      </g>
     </g>
     <g id="line2d_3">
      <defs>
       <path id="m786cbe9e45" d="M 0 0 
L 0 3 
" style="stroke: #000000; stroke-width: 0.5"/>
      </defs>
      <g>
       <use xlink:href="#m786cbe9e45" x="37.378804" y="3.6" style="stroke: #000000; stroke-width: 0.5"/>
      </g>
     </g>
     <g id="text_1">
      <!-- $\mathdefault{3}$ -->
      <g transform="translate(34.888136 123.165998) scale(0.1 -0.1)">
       <defs>
        <path id="CMR17-33" d="M 1414 2157 
C 1984 2157 2234 1662 2234 1090 
C 2234 320 1824 25 1453 25 
C 1114 25 563 194 390 693 
C 422 680 454 680 486 680 
C 640 680 755 782 755 948 
C 755 1133 614 1216 486 1216 
C 378 1216 211 1165 211 926 
C 211 335 787 -128 1466 -128 
C 2176 -128 2720 430 2720 1085 
C 2720 1707 2208 2157 1600 2227 
C 2086 2328 2554 2756 2554 3329 
C 2554 3820 2048 4179 1472 4179 
C 890 4179 378 3829 378 3329 
C 378 3110 544 3072 627 3072 
C 762 3072 877 3155 877 3321 
C 877 3486 762 3569 627 3569 
C 602 3569 570 3569 544 3557 
C 730 3959 1235 4032 1459 4032 
C 1683 4032 2106 3925 2106 3320 
C 2106 3143 2080 2828 1862 2550 
C 1670 2304 1453 2304 1242 2284 
C 1210 2284 1062 2269 1037 2269 
C 992 2263 966 2257 966 2208 
C 966 2163 973 2157 1101 2157 
L 1414 2157 
z
" transform="scale(0.015625)"/>
       </defs>
       <use xlink:href="#CMR17-33" transform="scale(0.996264)"/>
      </g>
     </g>
    </g>
    <g id="xtick_2">
     <g id="line2d_4">
      <path d="M 59.571986 112.7475 
L 59.571986 3.6 
" clip-path="url(#pb1fba6deba)" style="fill: none; stroke-dasharray: 1.85,0.8; stroke-dashoffset: 0; stroke: #000000; stroke-opacity: 0.5; stroke-width: 0.5"/>
     </g>
     <g id="line2d_5">
      <g>
       <use xlink:href="#m4057de2d99" x="59.571986" y="112.7475" style="stroke: #000000; stroke-width: 0.5"/>
      </g>
     </g>
     <g id="line2d_6">
      <g>
       <use xlink:href="#m786cbe9e45" x="59.571986" y="3.6" style="stroke: #000000; stroke-width: 0.5"/>
      </g>
     </g>
     <g id="text_2">
      <!-- $\mathdefault{5}$ -->
      <g transform="translate(57.081318 123.165998) scale(0.1 -0.1)">
       <defs>
        <path id="CMR17-35" d="M 730 3692 
C 794 3666 1056 3584 1325 3584 
C 1920 3584 2246 3911 2432 4100 
C 2432 4157 2432 4192 2394 4192 
C 2387 4192 2374 4192 2323 4163 
C 2099 4058 1837 3973 1517 3973 
C 1325 3973 1037 3999 723 4139 
C 653 4171 640 4171 634 4171 
C 602 4171 595 4164 595 4037 
L 595 2203 
C 595 2089 595 2057 659 2057 
C 691 2057 704 2070 736 2114 
C 941 2401 1222 2522 1542 2522 
C 1766 2522 2246 2382 2246 1289 
C 2246 1085 2246 715 2054 421 
C 1894 159 1645 25 1370 25 
C 947 25 518 320 403 814 
C 429 807 480 795 506 795 
C 589 795 749 840 749 1038 
C 749 1210 627 1280 506 1280 
C 358 1280 262 1190 262 1011 
C 262 454 704 -128 1382 -128 
C 2042 -128 2669 440 2669 1264 
C 2669 2030 2170 2624 1549 2624 
C 1222 2624 947 2503 730 2274 
L 730 3692 
z
" transform="scale(0.015625)"/>
       </defs>
       <use xlink:href="#CMR17-35" transform="scale(0.996264)"/>
      </g>
     </g>
    </g>
    <g id="xtick_3">
     <g id="line2d_7">
      <path d="M 81.765167 112.7475 
L 81.765167 3.6 
" clip-path="url(#pb1fba6deba)" style="fill: none; stroke-dasharray: 1.85,0.8; stroke-dashoffset: 0; stroke: #000000; stroke-opacity: 0.5; stroke-width: 0.5"/>
     </g>
     <g id="line2d_8">
      <g>
       <use xlink:href="#m4057de2d99" x="81.765167" y="112.7475" style="stroke: #000000; stroke-width: 0.5"/>
      </g>
     </g>
     <g id="line2d_9">
      <g>
       <use xlink:href="#m786cbe9e45" x="81.765167" y="3.6" style="stroke: #000000; stroke-width: 0.5"/>
      </g>
     </g>
     <g id="text_3">
      <!-- $\mathdefault{7}$ -->
      <g transform="translate(79.2745 123.165998) scale(0.1 -0.1)">
       <defs>
        <path id="CMR17-37" d="M 2886 3941 
L 2886 4081 
L 1382 4081 
C 634 4081 621 4165 595 4288 
L 480 4288 
L 294 3094 
L 410 3094 
C 429 3215 474 3540 550 3661 
C 589 3712 1062 3712 1171 3712 
L 2579 3712 
L 1869 2661 
C 1395 1954 1069 999 1069 165 
C 1069 89 1069 -128 1299 -128 
C 1530 -128 1530 89 1530 171 
L 1530 465 
C 1530 1508 1709 2196 2003 2636 
L 2886 3941 
z
" transform="scale(0.015625)"/>
       </defs>
       <use xlink:href="#CMR17-37" transform="scale(0.996264)"/>
      </g>
     </g>
    </g>
    <g id="xtick_4">
     <g id="line2d_10">
      <path d="M 103.958349 112.7475 
L 103.958349 3.6 
" clip-path="url(#pb1fba6deba)" style="fill: none; stroke-dasharray: 1.85,0.8; stroke-dashoffset: 0; stroke: #000000; stroke-opacity: 0.5; stroke-width: 0.5"/>
     </g>
     <g id="line2d_11">
      <g>
       <use xlink:href="#m4057de2d99" x="103.958349" y="112.7475" style="stroke: #000000; stroke-width: 0.5"/>
      </g>
     </g>
     <g id="line2d_12">
      <g>
       <use xlink:href="#m786cbe9e45" x="103.958349" y="3.6" style="stroke: #000000; stroke-width: 0.5"/>
      </g>
     </g>
     <g id="text_4">
      <!-- $\mathdefault{9}$ -->
      <g transform="translate(101.467682 123.165998) scale(0.1 -0.1)">
       <defs>
        <path id="CMR17-39" d="M 2253 1864 
C 2253 464 1670 31 1190 31 
C 1043 31 685 31 538 294 
C 704 268 826 357 826 518 
C 826 692 685 749 595 749 
C 538 749 365 723 365 506 
C 365 71 742 -128 1203 -128 
C 1939 -128 2688 674 2688 2073 
C 2688 3817 1971 4179 1485 4179 
C 851 4179 243 3628 243 2778 
C 243 1991 762 1408 1414 1408 
C 1952 1408 2189 1903 2253 2112 
L 2253 1864 
z
M 1427 1510 
C 1254 1510 1011 1542 813 1922 
C 678 2169 678 2461 678 2771 
C 678 3146 678 3405 858 3684 
C 947 3817 1114 4032 1485 4032 
C 2240 4032 2240 2885 2240 2632 
C 2240 2182 2035 1510 1427 1510 
z
" transform="scale(0.015625)"/>
       </defs>
       <use xlink:href="#CMR17-39" transform="scale(0.996264)"/>
      </g>
     </g>
    </g>
    <g id="xtick_5">
     <g id="line2d_13">
      <path d="M 126.151531 112.7475 
L 126.151531 3.6 
" clip-path="url(#pb1fba6deba)" style="fill: none; stroke-dasharray: 1.85,0.8; stroke-dashoffset: 0; stroke: #000000; stroke-opacity: 0.5; stroke-width: 0.5"/>
     </g>
     <g id="line2d_14">
      <g>
       <use xlink:href="#m4057de2d99" x="126.151531" y="112.7475" style="stroke: #000000; stroke-width: 0.5"/>
      </g>
     </g>
     <g id="line2d_15">
      <g>
       <use xlink:href="#m786cbe9e45" x="126.151531" y="3.6" style="stroke: #000000; stroke-width: 0.5"/>
      </g>
     </g>
     <g id="text_5">
      <!-- $\mathdefault{11}$ -->
      <g transform="translate(121.170196 123.165998) scale(0.1 -0.1)">
       <defs>
        <path id="CMR17-31" d="M 1702 4058 
C 1702 4192 1696 4192 1606 4192 
C 1357 3916 979 3827 621 3827 
C 602 3827 570 3827 563 3808 
C 557 3795 557 3782 557 3648 
C 755 3648 1088 3686 1344 3839 
L 1344 461 
C 1344 236 1331 160 781 160 
L 589 160 
L 589 0 
C 896 0 1216 0 1523 0 
C 1830 0 2150 0 2458 0 
L 2458 160 
L 2266 160 
C 1715 160 1702 230 1702 458 
L 1702 4058 
z
" transform="scale(0.015625)"/>
       </defs>
       <use xlink:href="#CMR17-31" transform="scale(0.996264)"/>
       <use xlink:href="#CMR17-31" transform="translate(45.690477 0) scale(0.996264)"/>
      </g>
     </g>
    </g>
    <g id="xtick_6">
     <g id="line2d_16">
      <path d="M 148.344713 112.7475 
L 148.344713 3.6 
" clip-path="url(#pb1fba6deba)" style="fill: none; stroke-dasharray: 1.85,0.8; stroke-dashoffset: 0; stroke: #000000; stroke-opacity: 0.5; stroke-width: 0.5"/>
     </g>
     <g id="line2d_17">
      <g>
       <use xlink:href="#m4057de2d99" x="148.344713" y="112.7475" style="stroke: #000000; stroke-width: 0.5"/>
      </g>
     </g>
     <g id="line2d_18">
      <g>
       <use xlink:href="#m786cbe9e45" x="148.344713" y="3.6" style="stroke: #000000; stroke-width: 0.5"/>
      </g>
     </g>
     <g id="text_6">
      <!-- $\mathdefault{13}$ -->
      <g transform="translate(143.363378 123.165998) scale(0.1 -0.1)">
       <use xlink:href="#CMR17-31" transform="scale(0.996264)"/>
       <use xlink:href="#CMR17-33" transform="translate(45.690477 0) scale(0.996264)"/>
      </g>
     </g>
    </g>
    <g id="xtick_7">
     <g id="line2d_19">
      <path d="M 170.537895 112.7475 
L 170.537895 3.6 
" clip-path="url(#pb1fba6deba)" style="fill: none; stroke-dasharray: 1.85,0.8; stroke-dashoffset: 0; stroke: #000000; stroke-opacity: 0.5; stroke-width: 0.5"/>
     </g>
     <g id="line2d_20">
      <g>
       <use xlink:href="#m4057de2d99" x="170.537895" y="112.7475" style="stroke: #000000; stroke-width: 0.5"/>
      </g>
     </g>
     <g id="line2d_21">
      <g>
       <use xlink:href="#m786cbe9e45" x="170.537895" y="3.6" style="stroke: #000000; stroke-width: 0.5"/>
      </g>
     </g>
     <g id="text_7">
      <!-- $\mathdefault{15}$ -->
      <g transform="translate(165.55656 123.165998) scale(0.1 -0.1)">
       <use xlink:href="#CMR17-31" transform="scale(0.996264)"/>
       <use xlink:href="#CMR17-35" transform="translate(45.690477 0) scale(0.996264)"/>
      </g>
     </g>
    </g>
    <g id="xtick_8">
     <g id="line2d_22">
      <defs>
       <path id="m8a0d418aed" d="M 0 0 
L 0 -1.5 
" style="stroke: #000000; stroke-width: 0.5"/>
      </defs>
      <g>
       <use xlink:href="#m8a0d418aed" x="31.830508" y="112.7475" style="stroke: #000000; stroke-width: 0.5"/>
      </g>
     </g>
     <g id="line2d_23">
      <defs>
       <path id="m788376c204" d="M 0 0 
L 0 1.5 
" style="stroke: #000000; stroke-width: 0.5"/>
      </defs>
      <g>
       <use xlink:href="#m788376c204" x="31.830508" y="3.6" style="stroke: #000000; stroke-width: 0.5"/>
      </g>
     </g>
    </g>
    <g id="xtick_9">
     <g id="line2d_24">
      <g>
       <use xlink:href="#m8a0d418aed" x="42.927099" y="112.7475" style="stroke: #000000; stroke-width: 0.5"/>
      </g>
     </g>
     <g id="line2d_25">
      <g>
       <use xlink:href="#m788376c204" x="42.927099" y="3.6" style="stroke: #000000; stroke-width: 0.5"/>
      </g>
     </g>
    </g>
    <g id="xtick_10">
     <g id="line2d_26">
      <g>
       <use xlink:href="#m8a0d418aed" x="48.475395" y="112.7475" style="stroke: #000000; stroke-width: 0.5"/>
      </g>
     </g>
     <g id="line2d_27">
      <g>
       <use xlink:href="#m788376c204" x="48.475395" y="3.6" style="stroke: #000000; stroke-width: 0.5"/>
      </g>
     </g>
    </g>
    <g id="xtick_11">
     <g id="line2d_28">
      <g>
       <use xlink:href="#m8a0d418aed" x="54.02369" y="112.7475" style="stroke: #000000; stroke-width: 0.5"/>
      </g>
     </g>
     <g id="line2d_29">
      <g>
       <use xlink:href="#m788376c204" x="54.02369" y="3.6" style="stroke: #000000; stroke-width: 0.5"/>
      </g>
     </g>
    </g>
    <g id="xtick_12">
     <g id="line2d_30">
      <g>
       <use xlink:href="#m8a0d418aed" x="65.120281" y="112.7475" style="stroke: #000000; stroke-width: 0.5"/>
      </g>
     </g>
     <g id="line2d_31">
      <g>
       <use xlink:href="#m788376c204" x="65.120281" y="3.6" style="stroke: #000000; stroke-width: 0.5"/>
      </g>
     </g>
    </g>
    <g id="xtick_13">
     <g id="line2d_32">
      <g>
       <use xlink:href="#m8a0d418aed" x="70.668577" y="112.7475" style="stroke: #000000; stroke-width: 0.5"/>
      </g>
     </g>
     <g id="line2d_33">
      <g>
       <use xlink:href="#m788376c204" x="70.668577" y="3.6" style="stroke: #000000; stroke-width: 0.5"/>
      </g>
     </g>
    </g>
    <g id="xtick_14">
     <g id="line2d_34">
      <g>
       <use xlink:href="#m8a0d418aed" x="76.216872" y="112.7475" style="stroke: #000000; stroke-width: 0.5"/>
      </g>
     </g>
     <g id="line2d_35">
      <g>
       <use xlink:href="#m788376c204" x="76.216872" y="3.6" style="stroke: #000000; stroke-width: 0.5"/>
      </g>
     </g>
    </g>
    <g id="xtick_15">
     <g id="line2d_36">
      <g>
       <use xlink:href="#m8a0d418aed" x="87.313463" y="112.7475" style="stroke: #000000; stroke-width: 0.5"/>
      </g>
     </g>
     <g id="line2d_37">
      <g>
       <use xlink:href="#m788376c204" x="87.313463" y="3.6" style="stroke: #000000; stroke-width: 0.5"/>
      </g>
     </g>
    </g>
    <g id="xtick_16">
     <g id="line2d_38">
      <g>
       <use xlink:href="#m8a0d418aed" x="92.861758" y="112.7475" style="stroke: #000000; stroke-width: 0.5"/>
      </g>
     </g>
     <g id="line2d_39">
      <g>
       <use xlink:href="#m788376c204" x="92.861758" y="3.6" style="stroke: #000000; stroke-width: 0.5"/>
      </g>
     </g>
    </g>
    <g id="xtick_17">
     <g id="line2d_40">
      <g>
       <use xlink:href="#m8a0d418aed" x="98.410054" y="112.7475" style="stroke: #000000; stroke-width: 0.5"/>
      </g>
     </g>
     <g id="line2d_41">
      <g>
       <use xlink:href="#m788376c204" x="98.410054" y="3.6" style="stroke: #000000; stroke-width: 0.5"/>
      </g>
     </g>
    </g>
    <g id="xtick_18">
     <g id="line2d_42">
      <g>
       <use xlink:href="#m8a0d418aed" x="109.506645" y="112.7475" style="stroke: #000000; stroke-width: 0.5"/>
      </g>
     </g>
     <g id="line2d_43">
      <g>
       <use xlink:href="#m788376c204" x="109.506645" y="3.6" style="stroke: #000000; stroke-width: 0.5"/>
      </g>
     </g>
    </g>
    <g id="xtick_19">
     <g id="line2d_44">
      <g>
       <use xlink:href="#m8a0d418aed" x="115.05494" y="112.7475" style="stroke: #000000; stroke-width: 0.5"/>
      </g>
     </g>
     <g id="line2d_45">
      <g>
       <use xlink:href="#m788376c204" x="115.05494" y="3.6" style="stroke: #000000; stroke-width: 0.5"/>
      </g>
     </g>
    </g>
    <g id="xtick_20">
     <g id="line2d_46">
      <g>
       <use xlink:href="#m8a0d418aed" x="120.603236" y="112.7475" style="stroke: #000000; stroke-width: 0.5"/>
      </g>
     </g>
     <g id="line2d_47">
      <g>
       <use xlink:href="#m788376c204" x="120.603236" y="3.6" style="stroke: #000000; stroke-width: 0.5"/>
      </g>
     </g>
    </g>
    <g id="xtick_21">
     <g id="line2d_48">
      <g>
       <use xlink:href="#m8a0d418aed" x="131.699827" y="112.7475" style="stroke: #000000; stroke-width: 0.5"/>
      </g>
     </g>
     <g id="line2d_49">
      <g>
       <use xlink:href="#m788376c204" x="131.699827" y="3.6" style="stroke: #000000; stroke-width: 0.5"/>
      </g>
     </g>
    </g>
    <g id="xtick_22">
     <g id="line2d_50">
      <g>
       <use xlink:href="#m8a0d418aed" x="137.248122" y="112.7475" style="stroke: #000000; stroke-width: 0.5"/>
      </g>
     </g>
     <g id="line2d_51">
      <g>
       <use xlink:href="#m788376c204" x="137.248122" y="3.6" style="stroke: #000000; stroke-width: 0.5"/>
      </g>
     </g>
    </g>
    <g id="xtick_23">
     <g id="line2d_52">
      <g>
       <use xlink:href="#m8a0d418aed" x="142.796417" y="112.7475" style="stroke: #000000; stroke-width: 0.5"/>
      </g>
     </g>
     <g id="line2d_53">
      <g>
       <use xlink:href="#m788376c204" x="142.796417" y="3.6" style="stroke: #000000; stroke-width: 0.5"/>
      </g>
     </g>
    </g>
    <g id="xtick_24">
     <g id="line2d_54">
      <g>
       <use xlink:href="#m8a0d418aed" x="153.893008" y="112.7475" style="stroke: #000000; stroke-width: 0.5"/>
      </g>
     </g>
     <g id="line2d_55">
      <g>
       <use xlink:href="#m788376c204" x="153.893008" y="3.6" style="stroke: #000000; stroke-width: 0.5"/>
      </g>
     </g>
    </g>
    <g id="xtick_25">
     <g id="line2d_56">
      <g>
       <use xlink:href="#m8a0d418aed" x="159.441304" y="112.7475" style="stroke: #000000; stroke-width: 0.5"/>
      </g>
     </g>
     <g id="line2d_57">
      <g>
       <use xlink:href="#m788376c204" x="159.441304" y="3.6" style="stroke: #000000; stroke-width: 0.5"/>
      </g>
     </g>
    </g>
    <g id="xtick_26">
     <g id="line2d_58">
      <g>
       <use xlink:href="#m8a0d418aed" x="164.989599" y="112.7475" style="stroke: #000000; stroke-width: 0.5"/>
      </g>
     </g>
     <g id="line2d_59">
      <g>
       <use xlink:href="#m788376c204" x="164.989599" y="3.6" style="stroke: #000000; stroke-width: 0.5"/>
      </g>
     </g>
    </g>
    <g id="xtick_27">
     <g id="line2d_60">
      <g>
       <use xlink:href="#m8a0d418aed" x="176.08619" y="112.7475" style="stroke: #000000; stroke-width: 0.5"/>
      </g>
     </g>
     <g id="line2d_61">
      <g>
       <use xlink:href="#m788376c204" x="176.08619" y="3.6" style="stroke: #000000; stroke-width: 0.5"/>
      </g>
     </g>
    </g>
    <g id="text_8">
     <!-- $L$ -->
     <g transform="translate(100.568276 136.021675) scale(0.1 -0.1)">
      <defs>
       <path id="CMMI12-4c" d="M 2349 3861 
C 2406 4103 2426 4167 2989 4167 
C 3162 4167 3206 4167 3206 4288 
C 3206 4352 3136 4352 3110 4352 
C 2982 4352 2835 4352 2707 4352 
L 1850 4352 
C 1728 4352 1587 4352 1466 4352 
C 1414 4352 1344 4352 1344 4231 
C 1344 4167 1402 4167 1498 4167 
C 1888 4167 1888 4116 1888 4046 
C 1888 4034 1888 3995 1862 3899 
L 998 472 
C 941 249 928 185 480 185 
C 358 185 294 185 294 70 
C 294 0 333 0 461 0 
L 3328 0 
C 3469 0 3475 6 3520 121 
L 4013 1478 
C 4026 1510 4038 1548 4038 1567 
C 4038 1605 4006 1631 3974 1631 
C 3968 1631 3936 1631 3923 1605 
C 3910 1599 3910 1586 3859 1465 
C 3654 905 3366 185 2285 185 
L 1670 185 
C 1581 185 1568 185 1530 192 
C 1459 198 1453 211 1453 262 
C 1453 307 1466 345 1478 401 
L 2349 3861 
z
" transform="scale(0.015625)"/>
      </defs>
      <use xlink:href="#CMMI12-4c" transform="scale(0.996264)"/>
     </g>
    </g>
   </g>
   <g id="matplotlib.axis_2">
    <g id="ytick_1">
     <g id="line2d_62">
      <path d="M 30.720849 108.802096 
L 177.195849 108.802096 
" clip-path="url(#pb1fba6deba)" style="fill: none; stroke-dasharray: 1.85,0.8; stroke-dashoffset: 0; stroke: #000000; stroke-opacity: 0.5; stroke-width: 0.5"/>
     </g>
     <g id="line2d_63">
      <defs>
       <path id="mca48bc43f8" d="M 0 0 
L 3 0 
" style="stroke: #000000; stroke-width: 0.5"/>
      </defs>
      <g>
       <use xlink:href="#mca48bc43f8" x="30.720849" y="108.802096" style="stroke: #000000; stroke-width: 0.5"/>
      </g>
     </g>
     <g id="line2d_64">
      <defs>
       <path id="m50e9705a79" d="M 0 0 
L -3 0 
" style="stroke: #000000; stroke-width: 0.5"/>
      </defs>
      <g>
       <use xlink:href="#m50e9705a79" x="177.195849" y="108.802096" style="stroke: #000000; stroke-width: 0.5"/>
      </g>
     </g>
     <g id="text_9">
      <!-- $\mathdefault{15}$ -->
      <g transform="translate(17.258179 112.261345) scale(0.1 -0.1)">
       <use xlink:href="#CMR17-31" transform="scale(0.996264)"/>
       <use xlink:href="#CMR17-35" transform="translate(45.690477 0) scale(0.996264)"/>
      </g>
     </g>
    </g>
    <g id="ytick_2">
     <g id="line2d_65">
      <path d="M 30.720849 76.831649 
L 177.195849 76.831649 
" clip-path="url(#pb1fba6deba)" style="fill: none; stroke-dasharray: 1.85,0.8; stroke-dashoffset: 0; stroke: #000000; stroke-opacity: 0.5; stroke-width: 0.5"/>
     </g>
     <g id="line2d_66">
      <g>
       <use xlink:href="#mca48bc43f8" x="30.720849" y="76.831649" style="stroke: #000000; stroke-width: 0.5"/>
      </g>
     </g>
     <g id="line2d_67">
      <g>
       <use xlink:href="#m50e9705a79" x="177.195849" y="76.831649" style="stroke: #000000; stroke-width: 0.5"/>
      </g>
     </g>
     <g id="text_10">
      <!-- $\mathdefault{20}$ -->
      <g transform="translate(17.258179 80.290898) scale(0.1 -0.1)">
       <defs>
        <path id="CMR17-32" d="M 2669 989 
L 2554 989 
C 2490 536 2438 459 2413 420 
C 2381 369 1920 369 1830 369 
L 602 369 
C 832 619 1280 1072 1824 1597 
C 2214 1967 2669 2402 2669 3035 
C 2669 3790 2067 4224 1395 4224 
C 691 4224 262 3604 262 3030 
C 262 2780 448 2748 525 2748 
C 589 2748 781 2787 781 3010 
C 781 3207 614 3264 525 3264 
C 486 3264 448 3258 422 3245 
C 544 3790 915 4058 1306 4058 
C 1862 4058 2227 3617 2227 3035 
C 2227 2479 1901 2000 1536 1584 
L 262 146 
L 262 0 
L 2515 0 
L 2669 989 
z
" transform="scale(0.015625)"/>
        <path id="CMR17-30" d="M 2688 2025 
C 2688 2416 2682 3080 2413 3591 
C 2176 4039 1798 4198 1466 4198 
C 1158 4198 768 4058 525 3597 
C 269 3118 243 2524 243 2025 
C 243 1661 250 1106 448 619 
C 723 -39 1216 -128 1466 -128 
C 1760 -128 2208 -7 2470 600 
C 2662 1042 2688 1559 2688 2025 
z
M 1466 -26 
C 1056 -26 813 325 723 812 
C 653 1188 653 1738 653 2096 
C 653 2588 653 2997 736 3387 
C 858 3929 1216 4096 1466 4096 
C 1728 4096 2067 3923 2189 3400 
C 2272 3036 2278 2607 2278 2096 
C 2278 1680 2278 1169 2202 792 
C 2067 95 1690 -26 1466 -26 
z
" transform="scale(0.015625)"/>
       </defs>
       <use xlink:href="#CMR17-32" transform="scale(0.996264)"/>
       <use xlink:href="#CMR17-30" transform="translate(45.690477 0) scale(0.996264)"/>
      </g>
     </g>
    </g>
    <g id="ytick_3">
     <g id="line2d_68">
      <path d="M 30.720849 44.861201 
L 177.195849 44.861201 
" clip-path="url(#pb1fba6deba)" style="fill: none; stroke-dasharray: 1.85,0.8; stroke-dashoffset: 0; stroke: #000000; stroke-opacity: 0.5; stroke-width: 0.5"/>
     </g>
     <g id="line2d_69">
      <g>
       <use xlink:href="#mca48bc43f8" x="30.720849" y="44.861201" style="stroke: #000000; stroke-width: 0.5"/>
      </g>
     </g>
     <g id="line2d_70">
      <g>
       <use xlink:href="#m50e9705a79" x="177.195849" y="44.861201" style="stroke: #000000; stroke-width: 0.5"/>
      </g>
     </g>
     <g id="text_11">
      <!-- $\mathdefault{25}$ -->
      <g transform="translate(17.258179 48.32045) scale(0.1 -0.1)">
       <use xlink:href="#CMR17-32" transform="scale(0.996264)"/>
       <use xlink:href="#CMR17-35" transform="translate(45.690477 0) scale(0.996264)"/>
      </g>
     </g>
    </g>
    <g id="ytick_4">
     <g id="line2d_71">
      <path d="M 30.720849 12.890754 
L 177.195849 12.890754 
" clip-path="url(#pb1fba6deba)" style="fill: none; stroke-dasharray: 1.85,0.8; stroke-dashoffset: 0; stroke: #000000; stroke-opacity: 0.5; stroke-width: 0.5"/>
     </g>
     <g id="line2d_72">
      <g>
       <use xlink:href="#mca48bc43f8" x="30.720849" y="12.890754" style="stroke: #000000; stroke-width: 0.5"/>
      </g>
     </g>
     <g id="line2d_73">
      <g>
       <use xlink:href="#m50e9705a79" x="177.195849" y="12.890754" style="stroke: #000000; stroke-width: 0.5"/>
      </g>
     </g>
     <g id="text_12">
      <!-- $\mathdefault{30}$ -->
      <g transform="translate(17.258179 16.350003) scale(0.1 -0.1)">
       <use xlink:href="#CMR17-33" transform="scale(0.996264)"/>
       <use xlink:href="#CMR17-30" transform="translate(45.690477 0) scale(0.996264)"/>
      </g>
     </g>
    </g>
    <g id="ytick_5">
     <g id="line2d_74">
      <defs>
       <path id="m82a8c44ebd" d="M 0 0 
L 1.5 0 
" style="stroke: #000000; stroke-width: 0.5"/>
      </defs>
      <g>
       <use xlink:href="#m82a8c44ebd" x="30.720849" y="102.408007" style="stroke: #000000; stroke-width: 0.5"/>
      </g>
     </g>
     <g id="line2d_75">
      <defs>
       <path id="m772bf503a5" d="M 0 0 
L -1.5 0 
" style="stroke: #000000; stroke-width: 0.5"/>
      </defs>
      <g>
       <use xlink:href="#m772bf503a5" x="177.195849" y="102.408007" style="stroke: #000000; stroke-width: 0.5"/>
      </g>
     </g>
    </g>
    <g id="ytick_6">
     <g id="line2d_76">
      <g>
       <use xlink:href="#m82a8c44ebd" x="30.720849" y="96.013917" style="stroke: #000000; stroke-width: 0.5"/>
      </g>
     </g>
     <g id="line2d_77">
      <g>
       <use xlink:href="#m772bf503a5" x="177.195849" y="96.013917" style="stroke: #000000; stroke-width: 0.5"/>
      </g>
     </g>
    </g>
    <g id="ytick_7">
     <g id="line2d_78">
      <g>
       <use xlink:href="#m82a8c44ebd" x="30.720849" y="89.619828" style="stroke: #000000; stroke-width: 0.5"/>
      </g>
     </g>
     <g id="line2d_79">
      <g>
       <use xlink:href="#m772bf503a5" x="177.195849" y="89.619828" style="stroke: #000000; stroke-width: 0.5"/>
      </g>
     </g>
    </g>
    <g id="ytick_8">
     <g id="line2d_80">
      <g>
       <use xlink:href="#m82a8c44ebd" x="30.720849" y="83.225738" style="stroke: #000000; stroke-width: 0.5"/>
      </g>
     </g>
     <g id="line2d_81">
      <g>
       <use xlink:href="#m772bf503a5" x="177.195849" y="83.225738" style="stroke: #000000; stroke-width: 0.5"/>
      </g>
     </g>
    </g>
    <g id="ytick_9">
     <g id="line2d_82">
      <g>
       <use xlink:href="#m82a8c44ebd" x="30.720849" y="70.437559" style="stroke: #000000; stroke-width: 0.5"/>
      </g>
     </g>
     <g id="line2d_83">
      <g>
       <use xlink:href="#m772bf503a5" x="177.195849" y="70.437559" style="stroke: #000000; stroke-width: 0.5"/>
      </g>
     </g>
    </g>
    <g id="ytick_10">
     <g id="line2d_84">
      <g>
       <use xlink:href="#m82a8c44ebd" x="30.720849" y="64.04347" style="stroke: #000000; stroke-width: 0.5"/>
      </g>
     </g>
     <g id="line2d_85">
      <g>
       <use xlink:href="#m772bf503a5" x="177.195849" y="64.04347" style="stroke: #000000; stroke-width: 0.5"/>
      </g>
     </g>
    </g>
    <g id="ytick_11">
     <g id="line2d_86">
      <g>
       <use xlink:href="#m82a8c44ebd" x="30.720849" y="57.64938" style="stroke: #000000; stroke-width: 0.5"/>
      </g>
     </g>
     <g id="line2d_87">
      <g>
       <use xlink:href="#m772bf503a5" x="177.195849" y="57.64938" style="stroke: #000000; stroke-width: 0.5"/>
      </g>
     </g>
    </g>
    <g id="ytick_12">
     <g id="line2d_88">
      <g>
       <use xlink:href="#m82a8c44ebd" x="30.720849" y="51.255291" style="stroke: #000000; stroke-width: 0.5"/>
      </g>
     </g>
     <g id="line2d_89">
      <g>
       <use xlink:href="#m772bf503a5" x="177.195849" y="51.255291" style="stroke: #000000; stroke-width: 0.5"/>
      </g>
     </g>
    </g>
    <g id="ytick_13">
     <g id="line2d_90">
      <g>
       <use xlink:href="#m82a8c44ebd" x="30.720849" y="38.467112" style="stroke: #000000; stroke-width: 0.5"/>
      </g>
     </g>
     <g id="line2d_91">
      <g>
       <use xlink:href="#m772bf503a5" x="177.195849" y="38.467112" style="stroke: #000000; stroke-width: 0.5"/>
      </g>
     </g>
    </g>
    <g id="ytick_14">
     <g id="line2d_92">
      <g>
       <use xlink:href="#m82a8c44ebd" x="30.720849" y="32.073022" style="stroke: #000000; stroke-width: 0.5"/>
      </g>
     </g>
     <g id="line2d_93">
      <g>
       <use xlink:href="#m772bf503a5" x="177.195849" y="32.073022" style="stroke: #000000; stroke-width: 0.5"/>
      </g>
     </g>
    </g>
    <g id="ytick_15">
     <g id="line2d_94">
      <g>
       <use xlink:href="#m82a8c44ebd" x="30.720849" y="25.678933" style="stroke: #000000; stroke-width: 0.5"/>
      </g>
     </g>
     <g id="line2d_95">
      <g>
       <use xlink:href="#m772bf503a5" x="177.195849" y="25.678933" style="stroke: #000000; stroke-width: 0.5"/>
      </g>
     </g>
    </g>
    <g id="ytick_16">
     <g id="line2d_96">
      <g>
       <use xlink:href="#m82a8c44ebd" x="30.720849" y="19.284843" style="stroke: #000000; stroke-width: 0.5"/>
      </g>
     </g>
     <g id="line2d_97">
      <g>
       <use xlink:href="#m772bf503a5" x="177.195849" y="19.284843" style="stroke: #000000; stroke-width: 0.5"/>
      </g>
     </g>
    </g>
    <g id="ytick_17">
     <g id="line2d_98">
      <g>
       <use xlink:href="#m82a8c44ebd" x="30.720849" y="6.496664" style="stroke: #000000; stroke-width: 0.5"/>
      </g>
     </g>
     <g id="line2d_99">
      <g>
       <use xlink:href="#m772bf503a5" x="177.195849" y="6.496664" style="stroke: #000000; stroke-width: 0.5"/>
      </g>
     </g>
    </g>
    <g id="text_13">
     <!-- $\mathcal{V}_{eff}$ -->
     <g transform="translate(10.407784 67.391868) rotate(-90) scale(0.1 -0.1)">
      <defs>
       <path id="CMSY10-56" d="M 1728 544 
C 1824 1332 1824 1908 1824 2004 
C 1824 2458 1824 4365 659 4365 
C 442 4365 218 4186 218 4096 
C 218 4052 250 4052 339 4045 
C 1274 3962 1350 2498 1350 1776 
C 1350 1131 1267 364 1190 -64 
C 1178 -141 1178 -154 1178 -179 
C 1178 -211 1178 -288 1222 -288 
C 1293 -288 2842 894 3654 2128 
C 3981 2626 4224 3196 4224 3624 
C 4224 4167 3866 4365 3603 4365 
C 3418 4365 3328 3957 3328 3873 
C 3328 3776 3360 3776 3437 3776 
C 3866 3725 3942 3386 3942 3232 
C 3942 2714 2829 1402 1728 544 
z
" transform="scale(0.015625)"/>
       <path id="CMMI12-65" d="M 1146 1479 
C 1318 1479 1754 1479 2061 1595 
C 2547 1783 2592 2158 2592 2274 
C 2592 2558 2349 2816 1926 2816 
C 1254 2816 288 2210 288 1073 
C 288 402 672 -64 1254 -64 
C 2125 -64 2675 609 2675 692 
C 2675 730 2637 762 2611 762 
C 2592 762 2586 756 2528 699 
C 2118 159 1510 64 1267 64 
C 902 64 710 350 710 822 
C 710 911 710 1071 806 1479 
L 1146 1479 
z
M 838 1600 
C 1114 2592 1722 2689 1926 2689 
C 2208 2689 2400 2522 2400 2277 
C 2400 1600 1376 1600 1107 1600 
L 838 1600 
z
" transform="scale(0.015625)"/>
       <path id="CMMI12-66" d="M 2854 2566 
C 2982 2566 3034 2566 3034 2688 
C 3034 2752 2982 2752 2867 2752 
L 2349 2752 
C 2470 3429 2560 3897 2611 4107 
C 2650 4265 2784 4416 2950 4416 
C 3085 4416 3219 4358 3283 4298 
C 3034 4272 2957 4082 2957 3969 
C 2957 3837 3053 3759 3174 3759 
C 3302 3759 3494 3870 3494 4119 
C 3494 4393 3226 4544 2944 4544 
C 2669 4544 2400 4334 2272 4078 
C 2157 3848 2093 3611 1946 2752 
L 1517 2752 
C 1395 2752 1331 2752 1331 2637 
C 1331 2566 1370 2566 1498 2566 
L 1907 2566 
C 1792 1976 1530 542 1382 -137 
C 1274 -689 1178 -1152 858 -1152 
C 838 -1152 653 -1152 538 -1031 
C 864 -1005 864 -726 864 -720 
C 864 -593 768 -517 646 -517 
C 518 -517 326 -625 326 -867 
C 326 -1140 608 -1280 858 -1280 
C 1510 -1280 1779 -118 1850 199 
C 1965 688 2278 2376 2310 2566 
L 2854 2566 
z
" transform="scale(0.015625)"/>
      </defs>
      <use xlink:href="#CMSY10-56" transform="scale(0.996264)"/>
      <use xlink:href="#CMMI12-65" transform="translate(61.049309 -14.943915) scale(0.697382)"/>
      <use xlink:href="#CMMI12-66" transform="translate(92.697565 -14.943915) scale(0.697382)"/>
      <use xlink:href="#CMMI12-66" transform="translate(133.801589 -14.943915) scale(0.697382)"/>
     </g>
    </g>
   </g>
   <g id="LineCollection_1">
    <path d="M 37.378804 107.78625 
L 37.378804 103.122757 
" clip-path="url(#pb1fba6deba)" style="fill: none; stroke: #4477aa"/>
    <path d="M 59.571986 81.422321 
L 59.571986 73.304881 
" clip-path="url(#pb1fba6deba)" style="fill: none; stroke: #4477aa"/>
    <path d="M 81.765167 66.773909 
L 81.765167 60.777669 
" clip-path="url(#pb1fba6deba)" style="fill: none; stroke: #4477aa"/>
    <path d="M 103.958349 79.601913 
L 103.958349 75.30915 
" clip-path="url(#pb1fba6deba)" style="fill: none; stroke: #4477aa"/>
    <path d="M 126.151531 76.766925 
L 126.151531 72.517369 
" clip-path="url(#pb1fba6deba)" style="fill: none; stroke: #4477aa"/>
    <path d="M 148.344713 67.323737 
L 148.344713 64.113971 
" clip-path="url(#pb1fba6deba)" style="fill: none; stroke: #4477aa"/>
    <path d="M 170.537895 62.318153 
L 170.537895 59.694783 
" clip-path="url(#pb1fba6deba)" style="fill: none; stroke: #4477aa"/>
   </g>
   <g id="line2d_100">
    <defs>
     <path id="m04b91bb89d" d="M 2 0 
L -2 -0 
" style="stroke: #4477aa"/>
    </defs>
    <g clip-path="url(#pb1fba6deba)">
     <use xlink:href="#m04b91bb89d" x="37.378804" y="107.78625" style="fill: #4477aa; stroke: #4477aa"/>
     <use xlink:href="#m04b91bb89d" x="59.571986" y="81.422321" style="fill: #4477aa; stroke: #4477aa"/>
     <use xlink:href="#m04b91bb89d" x="81.765167" y="66.773909" style="fill: #4477aa; stroke: #4477aa"/>
     <use xlink:href="#m04b91bb89d" x="103.958349" y="79.601913" style="fill: #4477aa; stroke: #4477aa"/>
     <use xlink:href="#m04b91bb89d" x="126.151531" y="76.766925" style="fill: #4477aa; stroke: #4477aa"/>
     <use xlink:href="#m04b91bb89d" x="148.344713" y="67.323737" style="fill: #4477aa; stroke: #4477aa"/>
     <use xlink:href="#m04b91bb89d" x="170.537895" y="62.318153" style="fill: #4477aa; stroke: #4477aa"/>
    </g>
   </g>
   <g id="line2d_101">
    <g clip-path="url(#pb1fba6deba)">
     <use xlink:href="#m04b91bb89d" x="37.378804" y="103.122757" style="fill: #4477aa; stroke: #4477aa"/>
     <use xlink:href="#m04b91bb89d" x="59.571986" y="73.304881" style="fill: #4477aa; stroke: #4477aa"/>
     <use xlink:href="#m04b91bb89d" x="81.765167" y="60.777669" style="fill: #4477aa; stroke: #4477aa"/>
     <use xlink:href="#m04b91bb89d" x="103.958349" y="75.30915" style="fill: #4477aa; stroke: #4477aa"/>
     <use xlink:href="#m04b91bb89d" x="126.151531" y="72.517369" style="fill: #4477aa; stroke: #4477aa"/>
     <use xlink:href="#m04b91bb89d" x="148.344713" y="64.113971" style="fill: #4477aa; stroke: #4477aa"/>
     <use xlink:href="#m04b91bb89d" x="170.537895" y="59.694783" style="fill: #4477aa; stroke: #4477aa"/>
    </g>
   </g>
   <g id="LineCollection_2">
    <path d="M 37.378804 77.003693 
L 37.378804 67.592371 
" clip-path="url(#pb1fba6deba)" style="fill: none; stroke: #ee6677"/>
    <path d="M 59.571986 49.904925 
L 59.571986 29.230846 
" clip-path="url(#pb1fba6deba)" style="fill: none; stroke: #ee6677"/>
    <path d="M 81.765167 20.72868 
L 81.765167 9.415545 
" clip-path="url(#pb1fba6deba)" style="fill: none; stroke: #ee6677"/>
    <path d="M 103.958349 20.253003 
L 103.958349 8.56125 
" clip-path="url(#pb1fba6deba)" style="fill: none; stroke: #ee6677"/>
    <path d="M 126.151531 25.749488 
L 126.151531 9.715071 
" clip-path="url(#pb1fba6deba)" style="fill: none; stroke: #ee6677"/>
    <path d="M 148.344713 32.18296 
L 148.344713 20.68665 
" clip-path="url(#pb1fba6deba)" style="fill: none; stroke: #ee6677"/>
    <path d="M 170.537895 45.75001 
L 170.537895 30.924888 
" clip-path="url(#pb1fba6deba)" style="fill: none; stroke: #ee6677"/>
   </g>
   <g id="line2d_102">
    <defs>
     <path id="m0bac0993ed" d="M 2 0 
L -2 -0 
" style="stroke: #ee6677"/>
    </defs>
    <g clip-path="url(#pb1fba6deba)">
     <use xlink:href="#m0bac0993ed" x="37.378804" y="77.003693" style="fill: #ee6677; stroke: #ee6677"/>
     <use xlink:href="#m0bac0993ed" x="59.571986" y="49.904925" style="fill: #ee6677; stroke: #ee6677"/>
     <use xlink:href="#m0bac0993ed" x="81.765167" y="20.72868" style="fill: #ee6677; stroke: #ee6677"/>
     <use xlink:href="#m0bac0993ed" x="103.958349" y="20.253003" style="fill: #ee6677; stroke: #ee6677"/>
     <use xlink:href="#m0bac0993ed" x="126.151531" y="25.749488" style="fill: #ee6677; stroke: #ee6677"/>
     <use xlink:href="#m0bac0993ed" x="148.344713" y="32.18296" style="fill: #ee6677; stroke: #ee6677"/>
     <use xlink:href="#m0bac0993ed" x="170.537895" y="45.75001" style="fill: #ee6677; stroke: #ee6677"/>
    </g>
   </g>
   <g id="line2d_103">
    <g clip-path="url(#pb1fba6deba)">
     <use xlink:href="#m0bac0993ed" x="37.378804" y="67.592371" style="fill: #ee6677; stroke: #ee6677"/>
     <use xlink:href="#m0bac0993ed" x="59.571986" y="29.230846" style="fill: #ee6677; stroke: #ee6677"/>
     <use xlink:href="#m0bac0993ed" x="81.765167" y="9.415545" style="fill: #ee6677; stroke: #ee6677"/>
     <use xlink:href="#m0bac0993ed" x="103.958349" y="8.56125" style="fill: #ee6677; stroke: #ee6677"/>
     <use xlink:href="#m0bac0993ed" x="126.151531" y="9.715071" style="fill: #ee6677; stroke: #ee6677"/>
     <use xlink:href="#m0bac0993ed" x="148.344713" y="20.68665" style="fill: #ee6677; stroke: #ee6677"/>
     <use xlink:href="#m0bac0993ed" x="170.537895" y="30.924888" style="fill: #ee6677; stroke: #ee6677"/>
    </g>
   </g>
   <g id="line2d_104">
    <path d="M 37.378804 105.454503 
L 59.571986 77.363601 
L 81.765167 63.775789 
L 103.958349 77.455531 
L 126.151531 74.642147 
L 148.344713 65.718854 
L 170.537895 61.006468 
" clip-path="url(#pb1fba6deba)" style="fill: none; stroke: #4477aa; stroke-linecap: square"/>
    <defs>
     <path id="m36c3e65047" d="M 0 3 
C 0.795609 3 1.55874 2.683901 2.12132 2.12132 
C 2.683901 1.55874 3 0.795609 3 0 
C 3 -0.795609 2.683901 -1.55874 2.12132 -2.12132 
C 1.55874 -2.683901 0.795609 -3 0 -3 
C -0.795609 -3 -1.55874 -2.683901 -2.12132 -2.12132 
C -2.683901 -1.55874 -3 -0.795609 -3 0 
C -3 0.795609 -2.683901 1.55874 -2.12132 2.12132 
C -1.55874 2.683901 -0.795609 3 0 3 
z
" style="stroke: #4477aa"/>
    </defs>
    <g clip-path="url(#pb1fba6deba)">
     <use xlink:href="#m36c3e65047" x="37.378804" y="105.454503" style="fill: #4477aa; stroke: #4477aa"/>
     <use xlink:href="#m36c3e65047" x="59.571986" y="77.363601" style="fill: #4477aa; stroke: #4477aa"/>
     <use xlink:href="#m36c3e65047" x="81.765167" y="63.775789" style="fill: #4477aa; stroke: #4477aa"/>
     <use xlink:href="#m36c3e65047" x="103.958349" y="77.455531" style="fill: #4477aa; stroke: #4477aa"/>
     <use xlink:href="#m36c3e65047" x="126.151531" y="74.642147" style="fill: #4477aa; stroke: #4477aa"/>
     <use xlink:href="#m36c3e65047" x="148.344713" y="65.718854" style="fill: #4477aa; stroke: #4477aa"/>
     <use xlink:href="#m36c3e65047" x="170.537895" y="61.006468" style="fill: #4477aa; stroke: #4477aa"/>
    </g>
   </g>
   <g id="line2d_105">
    <path d="M 37.378804 72.298032 
L 59.571986 39.567885 
L 81.765167 15.072112 
L 103.958349 14.407126 
L 126.151531 17.73228 
L 148.344713 26.434805 
L 170.537895 38.337449 
" clip-path="url(#pb1fba6deba)" style="fill: none; stroke: #ee6677; stroke-linecap: square"/>
    <defs>
     <path id="m61d4c28bca" d="M -3 3 
L 3 3 
L 3 -3 
L -3 -3 
z
" style="stroke: #ee6677; stroke-linejoin: miter"/>
    </defs>
    <g clip-path="url(#pb1fba6deba)">
     <use xlink:href="#m61d4c28bca" x="37.378804" y="72.298032" style="fill: #ee6677; stroke: #ee6677; stroke-linejoin: miter"/>
     <use xlink:href="#m61d4c28bca" x="59.571986" y="39.567885" style="fill: #ee6677; stroke: #ee6677; stroke-linejoin: miter"/>
     <use xlink:href="#m61d4c28bca" x="81.765167" y="15.072112" style="fill: #ee6677; stroke: #ee6677; stroke-linejoin: miter"/>
     <use xlink:href="#m61d4c28bca" x="103.958349" y="14.407126" style="fill: #ee6677; stroke: #ee6677; stroke-linejoin: miter"/>
     <use xlink:href="#m61d4c28bca" x="126.151531" y="17.73228" style="fill: #ee6677; stroke: #ee6677; stroke-linejoin: miter"/>
     <use xlink:href="#m61d4c28bca" x="148.344713" y="26.434805" style="fill: #ee6677; stroke: #ee6677; stroke-linejoin: miter"/>
     <use xlink:href="#m61d4c28bca" x="170.537895" y="38.337449" style="fill: #ee6677; stroke: #ee6677; stroke-linejoin: miter"/>
    </g>
   </g>
   <g id="patch_3">
    <path d="M 30.720849 112.7475 
L 30.720849 3.6 
" style="fill: none; stroke: #000000; stroke-width: 0.5; stroke-linejoin: miter; stroke-linecap: square"/>
   </g>
   <g id="patch_4">
    <path d="M 177.195849 112.7475 
L 177.195849 3.6 
" style="fill: none; stroke: #000000; stroke-width: 0.5; stroke-linejoin: miter; stroke-linecap: square"/>
   </g>
   <g id="patch_5">
    <path d="M 30.720849 112.7475 
L 177.195849 112.7475 
" style="fill: none; stroke: #000000; stroke-width: 0.5; stroke-linejoin: miter; stroke-linecap: square"/>
   </g>
   <g id="patch_6">
    <path d="M 30.720849 3.6 
L 177.195849 3.6 
" style="fill: none; stroke: #000000; stroke-width: 0.5; stroke-linejoin: miter; stroke-linecap: square"/>
   </g>
   <g id="legend_1">
    <g id="patch_7">
     <path d="M 94.294251 108.5825 
L 171.364849 108.5825 
Q 173.030849 108.5825 173.030849 106.9165 
L 173.030849 84.530162 
Q 173.030849 82.864162 171.364849 82.864162 
L 94.294251 82.864162 
Q 92.628251 82.864162 92.628251 84.530162 
L 92.628251 106.9165 
Q 92.628251 108.5825 94.294251 108.5825 
z
" style="fill: #ffffff; stroke: #cccccc; stroke-linejoin: miter"/>
    </g>
    <g id="LineCollection_3">
     <path d="M 104.290251 93.276662 
L 104.290251 84.946662 
" style="fill: none; stroke: #4477aa"/>
    </g>
    <g id="line2d_106">
     <g>
      <use xlink:href="#m04b91bb89d" x="104.290251" y="93.276662" style="fill: #4477aa; stroke: #4477aa"/>
     </g>
    </g>
    <g id="line2d_107">
     <g>
      <use xlink:href="#m04b91bb89d" x="104.290251" y="84.946662" style="fill: #4477aa; stroke: #4477aa"/>
     </g>
    </g>
    <g id="line2d_108">
     <path d="M 95.960251 89.111662 
L 112.620251 89.111662 
" style="fill: none; stroke: #4477aa; stroke-linecap: square"/>
    </g>
    <g id="line2d_109">
     <g>
      <use xlink:href="#m36c3e65047" x="104.290251" y="89.111662" style="fill: #4477aa; stroke: #4477aa"/>
     </g>
    </g>
    <g id="text_14">
     <!-- $C_i = 0.28~\mathrm{aF}$ -->
     <g transform="translate(119.284251 92.027162) scale(0.0833 -0.0833)">
      <defs>
       <path id="CMMI12-43" d="M 4781 4423 
C 4781 4480 4736 4480 4723 4480 
C 4710 4480 4685 4480 4634 4416 
L 4192 3882 
C 3968 4264 3616 4480 3136 4480 
C 1754 4480 320 3088 320 1595 
C 320 533 1069 -128 2003 -128 
C 2515 -128 2963 88 3334 400 
C 3891 863 4058 1481 4058 1531 
C 4058 1588 4006 1588 3987 1588 
C 3930 1588 3923 1550 3910 1524 
C 3616 534 2752 57 2112 57 
C 1434 57 845 489 845 1391 
C 845 1595 909 2700 1632 3532 
C 1984 3939 2586 4295 3194 4295 
C 3898 4295 4211 3717 4211 3068 
C 4211 2903 4192 2764 4192 2738 
C 4192 2681 4256 2681 4275 2681 
C 4346 2681 4352 2687 4378 2801 
L 4781 4423 
z
" transform="scale(0.015625)"/>
       <path id="CMMI12-69" d="M 1811 913 
C 1811 945 1786 971 1747 971 
C 1690 971 1683 952 1651 843 
C 1485 262 1222 64 1011 64 
C 934 64 845 83 845 275 
C 845 447 922 639 992 830 
L 1440 2018 
C 1459 2069 1504 2184 1504 2305 
C 1504 2574 1312 2816 998 2816 
C 410 2816 173 1890 173 1839 
C 173 1814 198 1782 243 1782 
C 301 1782 307 1807 333 1896 
C 486 2428 730 2682 979 2682 
C 1037 2682 1146 2682 1146 2478 
C 1146 2312 1062 2101 1011 1961 
L 563 773 
C 525 671 486 568 486 453 
C 486 166 685 -64 992 -64 
C 1581 -64 1811 869 1811 913 
z
M 1760 4013 
C 1760 4109 1683 4224 1542 4224 
C 1395 4224 1229 4083 1229 3917 
C 1229 3758 1363 3707 1440 3707 
C 1613 3707 1760 3873 1760 4013 
z
" transform="scale(0.015625)"/>
       <path id="CMR17-3d" d="M 4115 2017 
C 4211 2017 4307 2017 4307 2125 
C 4307 2240 4198 2240 4090 2240 
L 512 2240 
C 403 2240 294 2240 294 2125 
C 294 2017 390 2017 486 2017 
L 4115 2017 
z
M 4090 896 
C 4198 896 4307 896 4307 1011 
C 4307 1119 4211 1119 4115 1119 
L 486 1119 
C 390 1119 294 1119 294 1011 
C 294 896 403 896 512 896 
L 4090 896 
z
" transform="scale(0.015625)"/>
       <path id="CMMI12-3a" d="M 1178 307 
C 1178 492 1024 619 870 619 
C 685 619 557 466 557 313 
C 557 128 710 0 864 0 
C 1050 0 1178 153 1178 307 
z
" transform="scale(0.015625)"/>
       <path id="CMR17-38" d="M 1741 2264 
C 2144 2467 2554 2773 2554 3263 
C 2554 3841 1990 4179 1472 4179 
C 890 4179 378 3759 378 3180 
C 378 3021 416 2747 666 2505 
C 730 2442 998 2251 1171 2130 
C 883 1983 211 1634 211 934 
C 211 279 838 -128 1459 -128 
C 2144 -128 2720 362 2720 1010 
C 2720 1590 2330 1857 2074 2029 
L 1741 2264 
z
M 902 2822 
C 851 2854 595 3051 595 3351 
C 595 3739 998 4032 1459 4032 
C 1965 4032 2336 3676 2336 3262 
C 2336 2669 1670 2331 1638 2331 
C 1632 2331 1626 2331 1574 2370 
L 902 2822 
z
M 2080 1519 
C 2176 1449 2483 1240 2483 851 
C 2483 381 2010 25 1472 25 
C 890 25 448 438 448 940 
C 448 1443 838 1862 1280 2060 
L 2080 1519 
z
" transform="scale(0.015625)"/>
       <path id="CMR17-61" d="M 2304 1653 
C 2304 2072 2304 2294 2035 2543 
C 1798 2752 1523 2816 1306 2816 
C 800 2816 435 2407 435 1971 
C 435 1728 627 1728 666 1728 
C 749 1728 896 1778 896 1954 
C 896 2112 774 2181 666 2181 
C 640 2181 608 2174 589 2168 
C 723 2592 1069 2714 1293 2714 
C 1613 2714 1965 2429 1965 1885 
L 1965 1600 
C 1587 1600 1133 1549 774 1357 
C 371 1133 256 813 256 570 
C 256 77 832 -64 1171 -64 
C 1523 -64 1850 139 1990 511 
C 2003 233 2182 -18 2464 -18 
C 2598 -18 2938 70 2938 567 
L 2938 920 
L 2822 920 
L 2822 562 
C 2822 178 2650 128 2566 128 
C 2304 128 2304 458 2304 738 
L 2304 1653 
z
M 1965 870 
C 1965 317 1568 38 1216 38 
C 896 38 646 275 646 570 
C 646 761 730 1100 1101 1305 
C 1408 1478 1760 1504 1965 1504 
L 1965 870 
z
" transform="scale(0.015625)"/>
       <path id="CMR17-46" d="M 3482 4325 
L 326 4325 
L 326 4160 
C 768 4160 838 4160 838 3874 
L 838 446 
C 838 160 768 160 326 160 
L 326 0 
C 512 0 870 0 1069 0 
C 1331 0 1638 0 1901 0 
L 1901 160 
L 1760 160 
C 1274 160 1261 223 1261 452 
L 1261 2075 
L 1837 2075 
C 2432 2075 2490 1865 2490 1332 
L 2605 1332 
L 2605 2987 
L 2490 2987 
C 2490 2450 2432 2240 1837 2240 
L 1261 2240 
L 1261 3911 
C 1261 4128 1274 4160 1530 4160 
L 2355 4160 
C 3322 4160 3430 3765 3520 2916 
L 3635 2916 
L 3482 4325 
z
" transform="scale(0.015625)"/>
      </defs>
      <use xlink:href="#CMMI12-43" transform="scale(0.996264)"/>
      <use xlink:href="#CMMI12-69" transform="translate(69.792037 -14.943915) scale(0.697382)"/>
      <use xlink:href="#CMR17-3d" transform="translate(121.259085 0) scale(0.996264)"/>
      <use xlink:href="#CMR17-30" transform="translate(220.647882 0) scale(0.996264)"/>
      <use xlink:href="#CMMI12-3a" transform="translate(266.338359 0) scale(0.996264)"/>
      <use xlink:href="#CMR17-32" transform="translate(293.435536 0) scale(0.996264)"/>
      <use xlink:href="#CMR17-38" transform="translate(339.126013 0) scale(0.996264)"/>
      <use xlink:href="#CMR17-61" transform="translate(414.892457 0) scale(0.996264)"/>
      <use xlink:href="#CMR17-46" transform="translate(460.582934 0) scale(0.996264)"/>
     </g>
    </g>
    <g id="LineCollection_4">
     <path d="M 104.290251 104.886331 
L 104.290251 96.556331 
" style="fill: none; stroke: #ee6677"/>
    </g>
    <g id="line2d_110">
     <g>
      <use xlink:href="#m0bac0993ed" x="104.290251" y="104.886331" style="fill: #ee6677; stroke: #ee6677"/>
     </g>
    </g>
    <g id="line2d_111">
     <g>
      <use xlink:href="#m0bac0993ed" x="104.290251" y="96.556331" style="fill: #ee6677; stroke: #ee6677"/>
     </g>
    </g>
    <g id="line2d_112">
     <path d="M 95.960251 100.721331 
L 112.620251 100.721331 
" style="fill: none; stroke: #ee6677; stroke-linecap: square"/>
    </g>
    <g id="line2d_113">
     <g>
      <use xlink:href="#m61d4c28bca" x="104.290251" y="100.721331" style="fill: #ee6677; stroke: #ee6677; stroke-linejoin: miter"/>
     </g>
    </g>
    <g id="text_15">
     <!-- $C_i = 0.07~\mathrm{aF}$ -->
     <g transform="translate(119.284251 103.636831) scale(0.0833 -0.0833)">
      <use xlink:href="#CMMI12-43" transform="scale(0.996264)"/>
      <use xlink:href="#CMMI12-69" transform="translate(69.792037 -14.943915) scale(0.697382)"/>
      <use xlink:href="#CMR17-3d" transform="translate(121.259085 0) scale(0.996264)"/>
      <use xlink:href="#CMR17-30" transform="translate(220.647882 0) scale(0.996264)"/>
      <use xlink:href="#CMMI12-3a" transform="translate(266.338359 0) scale(0.996264)"/>
      <use xlink:href="#CMR17-30" transform="translate(293.435536 0) scale(0.996264)"/>
      <use xlink:href="#CMR17-37" transform="translate(339.126013 0) scale(0.996264)"/>
      <use xlink:href="#CMR17-61" transform="translate(414.892457 0) scale(0.996264)"/>
      <use xlink:href="#CMR17-46" transform="translate(460.582934 0) scale(0.996264)"/>
     </g>
    </g>
   </g>
  </g>
 </g>
 <defs>
  <clipPath id="pb1fba6deba">
   <rect x="30.720849" y="3.6" width="146.475" height="109.1475"/>
  </clipPath>
 </defs>
</svg>
