<?xml version="1.0" encoding="utf-8" standalone="no"?>
<!DOCTYPE svg PUBLIC "-//W3C//DTD SVG 1.1//EN"
  "http://www.w3.org/Graphics/SVG/1.1/DTD/svg11.dtd">
<svg xmlns:xlink="http://www.w3.org/1999/xlink" width="190.19952pt" height="142.94952pt" viewBox="0 0 190.19952 142.94952" xmlns="http://www.w3.org/2000/svg" version="1.1">
 <metadata>
  <rdf:RDF xmlns:dc="http://purl.org/dc/elements/1.1/" xmlns:cc="http://creativecommons.org/ns#" xmlns:rdf="http://www.w3.org/1999/02/22-rdf-syntax-ns#">
   <cc:Work>
    <dc:type rdf:resource="http://purl.org/dc/dcmitype/StillImage"/>
    <dc:date>2026-03-13T14:53:00.109601</dc:date>
    <dc:format>image/svg+xml</dc:format>
    <dc:creator>
     <cc:Agent>
      <dc:title>Matplotlib v3.7.0, https://matplotlib.org/</dc:title>
     </cc:Agent>
    </dc:creator>
   </cc:Work>
  </rdf:RDF>
 </metadata>
 <defs>
  <style type="text/css">*{stroke-linejoin: round; stroke-linecap: butt}</style>
 </defs>
 <g id="figure_1">
  <g id="patch_1">
   <path d="M 0 142.94952 
L 190.19952 142.94952 
L 190.19952 -0 
L 0 -0 
L 0 142.94952 
z
" style="fill: none"/>
  </g>
  <g id="axes_1">
   <g id="patch_2">
    <path d="M 32.685756 113.031203 
L 181.618185 113.031203 
L 181.618185 3.6 
L 32.685756 3.6 
L 32.685756 113.031203 
z
" style="fill: none"/>
   </g>
   <g id="matplotlib.axis_1">
    <g id="xtick_1">
     <g id="line2d_1">
      <path d="M 32.685756 113.031203 
L 32.685756 3.6 
" clip-path="url(#p680c1cf9b5)" style="fill: none; stroke-dasharray: 1.85,0.8; stroke-dashoffset: 0; stroke: #000000; stroke-opacity: 0.5; stroke-width: 0.5"/>
     </g>
     <g id="line2d_2">
      <defs>
       <path id="m32149bed0b" d="M 0 0 
L 0 -3 
" style="stroke: #000000; stroke-width: 0.5"/>
      </defs>
      <g>
       <use xlink:href="#m32149bed0b" x="32.685756" y="113.031203" style="stroke: #000000; stroke-width: 0.5"/>
      </g>
     </g>
     <g id="line2d_3">
      <defs>
       <path id="m9fb9188a3f" d="M 0 0 
L 0 3 
" style="stroke: #000000; stroke-width: 0.5"/>
      </defs>
      <g>
       <use xlink:href="#m9fb9188a3f" x="32.685756" y="3.6" style="stroke: #000000; stroke-width: 0.5"/>
      </g>
     </g>
     <g id="text_1">
      <!-- $\mathdefault{0}$ -->
      <g transform="translate(30.195088 123.449702) scale(0.1 -0.1)">
       <defs>
        <path id="CMR17-30" d="M 2688 2025 
C 2688 2416 2682 3080 2413 3591 
C 2176 4039 1798 4198 1466 4198 
C 1158 4198 768 4058 525 3597 
C 269 3118 243 2524 243 2025 
C 243 1661 250 1106 448 619 
C 723 -39 1216 -128 1466 -128 
C 1760 -128 2208 -7 2470 600 
C 2662 1042 2688 1559 2688 2025 
z
M 1466 -26 
C 1056 -26 813 325 723 812 
C 653 1188 653 1738 653 2096 
C 653 2588 653 2997 736 3387 
C 858 3929 1216 4096 1466 4096 
C 1728 4096 2067 3923 2189 3400 
C 2272 3036 2278 2607 2278 2096 
C 2278 1680 2278 1169 2202 792 
C 2067 95 1690 -26 1466 -26 
z
" transform="scale(0.015625)"/>
       </defs>
       <use xlink:href="#CMR17-30" transform="scale(0.996264)"/>
      </g>
     </g>
    </g>
    <g id="xtick_2">
     <g id="line2d_4">
      <path d="M 82.329899 113.031203 
L 82.329899 3.6 
" clip-path="url(#p680c1cf9b5)" style="fill: none; stroke-dasharray: 1.85,0.8; stroke-dashoffset: 0; stroke: #000000; stroke-opacity: 0.5; stroke-width: 0.5"/>
     </g>
     <g id="line2d_5">
      <g>
       <use xlink:href="#m32149bed0b" x="82.329899" y="113.031203" style="stroke: #000000; stroke-width: 0.5"/>
      </g>
     </g>
     <g id="line2d_6">
      <g>
       <use xlink:href="#m9fb9188a3f" x="82.329899" y="3.6" style="stroke: #000000; stroke-width: 0.5"/>
      </g>
     </g>
     <g id="text_2">
      <!-- $\mathdefault{10}$ -->
      <g transform="translate(77.348563 123.449702) scale(0.1 -0.1)">
       <defs>
        <path id="CMR17-31" d="M 1702 4058 
C 1702 4192 1696 4192 1606 4192 
C 1357 3916 979 3827 621 3827 
C 602 3827 570 3827 563 3808 
C 557 3795 557 3782 557 3648 
C 755 3648 1088 3686 1344 3839 
L 1344 461 
C 1344 236 1331 160 781 160 
L 589 160 
L 589 0 
C 896 0 1216 0 1523 0 
C 1830 0 2150 0 2458 0 
L 2458 160 
L 2266 160 
C 1715 160 1702 230 1702 458 
L 1702 4058 
z
" transform="scale(0.015625)"/>
       </defs>
       <use xlink:href="#CMR17-31" transform="scale(0.996264)"/>
       <use xlink:href="#CMR17-30" transform="translate(45.690477 0) scale(0.996264)"/>
      </g>
     </g>
    </g>
    <g id="xtick_3">
     <g id="line2d_7">
      <path d="M 131.974042 113.031203 
L 131.974042 3.6 
" clip-path="url(#p680c1cf9b5)" style="fill: none; stroke-dasharray: 1.85,0.8; stroke-dashoffset: 0; stroke: #000000; stroke-opacity: 0.5; stroke-width: 0.5"/>
     </g>
     <g id="line2d_8">
      <g>
       <use xlink:href="#m32149bed0b" x="131.974042" y="113.031203" style="stroke: #000000; stroke-width: 0.5"/>
      </g>
     </g>
     <g id="line2d_9">
      <g>
       <use xlink:href="#m9fb9188a3f" x="131.974042" y="3.6" style="stroke: #000000; stroke-width: 0.5"/>
      </g>
     </g>
     <g id="text_3">
      <!-- $\mathdefault{20}$ -->
      <g transform="translate(126.992706 123.449702) scale(0.1 -0.1)">
       <defs>
        <path id="CMR17-32" d="M 2669 989 
L 2554 989 
C 2490 536 2438 459 2413 420 
C 2381 369 1920 369 1830 369 
L 602 369 
C 832 619 1280 1072 1824 1597 
C 2214 1967 2669 2402 2669 3035 
C 2669 3790 2067 4224 1395 4224 
C 691 4224 262 3604 262 3030 
C 262 2780 448 2748 525 2748 
C 589 2748 781 2787 781 3010 
C 781 3207 614 3264 525 3264 
C 486 3264 448 3258 422 3245 
C 544 3790 915 4058 1306 4058 
C 1862 4058 2227 3617 2227 3035 
C 2227 2479 1901 2000 1536 1584 
L 262 146 
L 262 0 
L 2515 0 
L 2669 989 
z
" transform="scale(0.015625)"/>
       </defs>
       <use xlink:href="#CMR17-32" transform="scale(0.996264)"/>
       <use xlink:href="#CMR17-30" transform="translate(45.690477 0) scale(0.996264)"/>
      </g>
     </g>
    </g>
    <g id="xtick_4">
     <g id="line2d_10">
      <path d="M 181.618185 113.031203 
L 181.618185 3.6 
" clip-path="url(#p680c1cf9b5)" style="fill: none; stroke-dasharray: 1.85,0.8; stroke-dashoffset: 0; stroke: #000000; stroke-opacity: 0.5; stroke-width: 0.5"/>
     </g>
     <g id="line2d_11">
      <g>
       <use xlink:href="#m32149bed0b" x="181.618185" y="113.031203" style="stroke: #000000; stroke-width: 0.5"/>
      </g>
     </g>
     <g id="line2d_12">
      <g>
       <use xlink:href="#m9fb9188a3f" x="181.618185" y="3.6" style="stroke: #000000; stroke-width: 0.5"/>
      </g>
     </g>
     <g id="text_4">
      <!-- $\mathdefault{30}$ -->
      <g transform="translate(176.636849 123.449702) scale(0.1 -0.1)">
       <defs>
        <path id="CMR17-33" d="M 1414 2157 
C 1984 2157 2234 1662 2234 1090 
C 2234 320 1824 25 1453 25 
C 1114 25 563 194 390 693 
C 422 680 454 680 486 680 
C 640 680 755 782 755 948 
C 755 1133 614 1216 486 1216 
C 378 1216 211 1165 211 926 
C 211 335 787 -128 1466 -128 
C 2176 -128 2720 430 2720 1085 
C 2720 1707 2208 2157 1600 2227 
C 2086 2328 2554 2756 2554 3329 
C 2554 3820 2048 4179 1472 4179 
C 890 4179 378 3829 378 3329 
C 378 3110 544 3072 627 3072 
C 762 3072 877 3155 877 3321 
C 877 3486 762 3569 627 3569 
C 602 3569 570 3569 544 3557 
C 730 3959 1235 4032 1459 4032 
C 1683 4032 2106 3925 2106 3320 
C 2106 3143 2080 2828 1862 2550 
C 1670 2304 1453 2304 1242 2284 
C 1210 2284 1062 2269 1037 2269 
C 992 2263 966 2257 966 2208 
C 966 2163 973 2157 1101 2157 
L 1414 2157 
z
" transform="scale(0.015625)"/>
       </defs>
       <use xlink:href="#CMR17-33" transform="scale(0.996264)"/>
       <use xlink:href="#CMR17-30" transform="translate(45.690477 0) scale(0.996264)"/>
      </g>
     </g>
    </g>
    <g id="xtick_5">
     <g id="line2d_13">
      <defs>
       <path id="md9c1b31332" d="M 0 0 
L 0 -1.5 
" style="stroke: #000000; stroke-width: 0.5"/>
      </defs>
      <g>
       <use xlink:href="#md9c1b31332" x="42.614584" y="113.031203" style="stroke: #000000; stroke-width: 0.5"/>
      </g>
     </g>
     <g id="line2d_14">
      <defs>
       <path id="m69eef4e938" d="M 0 0 
L 0 1.5 
" style="stroke: #000000; stroke-width: 0.5"/>
      </defs>
      <g>
       <use xlink:href="#m69eef4e938" x="42.614584" y="3.6" style="stroke: #000000; stroke-width: 0.5"/>
      </g>
     </g>
    </g>
    <g id="xtick_6">
     <g id="line2d_15">
      <g>
       <use xlink:href="#md9c1b31332" x="52.543413" y="113.031203" style="stroke: #000000; stroke-width: 0.5"/>
      </g>
     </g>
     <g id="line2d_16">
      <g>
       <use xlink:href="#m69eef4e938" x="52.543413" y="3.6" style="stroke: #000000; stroke-width: 0.5"/>
      </g>
     </g>
    </g>
    <g id="xtick_7">
     <g id="line2d_17">
      <g>
       <use xlink:href="#md9c1b31332" x="62.472241" y="113.031203" style="stroke: #000000; stroke-width: 0.5"/>
      </g>
     </g>
     <g id="line2d_18">
      <g>
       <use xlink:href="#m69eef4e938" x="62.472241" y="3.6" style="stroke: #000000; stroke-width: 0.5"/>
      </g>
     </g>
    </g>
    <g id="xtick_8">
     <g id="line2d_19">
      <g>
       <use xlink:href="#md9c1b31332" x="72.40107" y="113.031203" style="stroke: #000000; stroke-width: 0.5"/>
      </g>
     </g>
     <g id="line2d_20">
      <g>
       <use xlink:href="#m69eef4e938" x="72.40107" y="3.6" style="stroke: #000000; stroke-width: 0.5"/>
      </g>
     </g>
    </g>
    <g id="xtick_9">
     <g id="line2d_21">
      <g>
       <use xlink:href="#md9c1b31332" x="92.258727" y="113.031203" style="stroke: #000000; stroke-width: 0.5"/>
      </g>
     </g>
     <g id="line2d_22">
      <g>
       <use xlink:href="#m69eef4e938" x="92.258727" y="3.6" style="stroke: #000000; stroke-width: 0.5"/>
      </g>
     </g>
    </g>
    <g id="xtick_10">
     <g id="line2d_23">
      <g>
       <use xlink:href="#md9c1b31332" x="102.187556" y="113.031203" style="stroke: #000000; stroke-width: 0.5"/>
      </g>
     </g>
     <g id="line2d_24">
      <g>
       <use xlink:href="#m69eef4e938" x="102.187556" y="3.6" style="stroke: #000000; stroke-width: 0.5"/>
      </g>
     </g>
    </g>
    <g id="xtick_11">
     <g id="line2d_25">
      <g>
       <use xlink:href="#md9c1b31332" x="112.116385" y="113.031203" style="stroke: #000000; stroke-width: 0.5"/>
      </g>
     </g>
     <g id="line2d_26">
      <g>
       <use xlink:href="#m69eef4e938" x="112.116385" y="3.6" style="stroke: #000000; stroke-width: 0.5"/>
      </g>
     </g>
    </g>
    <g id="xtick_12">
     <g id="line2d_27">
      <g>
       <use xlink:href="#md9c1b31332" x="122.045213" y="113.031203" style="stroke: #000000; stroke-width: 0.5"/>
      </g>
     </g>
     <g id="line2d_28">
      <g>
       <use xlink:href="#m69eef4e938" x="122.045213" y="3.6" style="stroke: #000000; stroke-width: 0.5"/>
      </g>
     </g>
    </g>
    <g id="xtick_13">
     <g id="line2d_29">
      <g>
       <use xlink:href="#md9c1b31332" x="141.90287" y="113.031203" style="stroke: #000000; stroke-width: 0.5"/>
      </g>
     </g>
     <g id="line2d_30">
      <g>
       <use xlink:href="#m69eef4e938" x="141.90287" y="3.6" style="stroke: #000000; stroke-width: 0.5"/>
      </g>
     </g>
    </g>
    <g id="xtick_14">
     <g id="line2d_31">
      <g>
       <use xlink:href="#md9c1b31332" x="151.831699" y="113.031203" style="stroke: #000000; stroke-width: 0.5"/>
      </g>
     </g>
     <g id="line2d_32">
      <g>
       <use xlink:href="#m69eef4e938" x="151.831699" y="3.6" style="stroke: #000000; stroke-width: 0.5"/>
      </g>
     </g>
    </g>
    <g id="xtick_15">
     <g id="line2d_33">
      <g>
       <use xlink:href="#md9c1b31332" x="161.760528" y="113.031203" style="stroke: #000000; stroke-width: 0.5"/>
      </g>
     </g>
     <g id="line2d_34">
      <g>
       <use xlink:href="#m69eef4e938" x="161.760528" y="3.6" style="stroke: #000000; stroke-width: 0.5"/>
      </g>
     </g>
    </g>
    <g id="xtick_16">
     <g id="line2d_35">
      <g>
       <use xlink:href="#md9c1b31332" x="171.689356" y="113.031203" style="stroke: #000000; stroke-width: 0.5"/>
      </g>
     </g>
     <g id="line2d_36">
      <g>
       <use xlink:href="#m69eef4e938" x="171.689356" y="3.6" style="stroke: #000000; stroke-width: 0.5"/>
      </g>
     </g>
    </g>
    <g id="text_5">
     <!-- Active Junctions [\%] -->
     <g transform="translate(62.084774 136.85886) scale(0.1 -0.1)">
      <defs>
       <path id="CMR17-41" d="M 2323 4378 
C 2291 4461 2278 4480 2214 4480 
C 2150 4480 2138 4461 2106 4378 
L 749 566 
C 627 223 371 153 147 153 
L 147 -13 
C 262 0 518 0 640 0 
C 800 0 1056 0 1210 -13 
L 1210 153 
C 909 153 864 361 864 439 
C 864 497 877 530 890 569 
L 1229 1536 
L 2906 1536 
L 3290 442 
C 3322 365 3322 352 3322 327 
C 3322 153 3046 153 2925 153 
L 2925 0 
C 3110 0 3443 0 3642 0 
C 3808 0 4128 0 4282 -13 
L 4282 153 
C 3942 153 3827 153 3744 387 
L 2323 4378 
z
M 2067 3893 
L 2848 1702 
L 1286 1702 
L 2067 3893 
z
" transform="scale(0.015625)"/>
       <path id="CMR17-63" d="M 2234 2240 
C 2112 2240 1933 2240 1933 2017 
C 1933 1838 2080 1787 2163 1787 
C 2208 1787 2394 1807 2394 2024 
C 2394 2467 1958 2803 1466 2803 
C 787 2803 211 2178 211 1363 
C 211 516 813 -64 1466 -64 
C 2259 -64 2458 677 2458 748 
C 2458 774 2451 793 2406 793 
C 2362 793 2355 787 2330 703 
C 2163 180 1798 51 1523 51 
C 1114 51 621 427 621 1369 
C 621 2338 1094 2688 1472 2688 
C 1722 2688 2093 2573 2234 2240 
z
" transform="scale(0.015625)"/>
       <path id="CMR17-74" d="M 966 2560 
L 1862 2560 
L 1862 2725 
L 966 2725 
L 966 3904 
L 851 3904 
C 838 3245 614 2668 70 2668 
L 70 2560 
L 627 2560 
L 627 771 
C 627 650 627 -64 1370 -64 
C 1747 -64 1965 306 1965 777 
L 1965 1140 
L 1850 1140 
L 1850 783 
C 1850 344 1677 51 1408 51 
C 1222 51 966 178 966 758 
L 966 2560 
z
" transform="scale(0.015625)"/>
       <path id="CMR17-69" d="M 992 3909 
C 992 4049 877 4170 730 4170 
C 589 4170 467 4056 467 3909 
C 467 3769 582 3648 730 3648 
C 870 3648 992 3763 992 3909 
z
M 243 2706 
L 243 2541 
C 602 2541 653 2502 653 2197 
L 653 427 
C 653 184 627 153 218 153 
L 218 -13 
C 371 0 646 0 806 0 
C 960 0 1222 0 1370 -13 
L 1370 153 
C 992 153 979 191 979 420 
L 979 2776 
L 243 2706 
z
" transform="scale(0.015625)"/>
       <path id="CMR17-76" d="M 2502 2163 
C 2560 2304 2662 2560 3034 2560 
L 3034 2726 
C 2912 2726 2752 2726 2630 2726 
C 2496 2726 2285 2726 2157 2732 
L 2157 2566 
C 2317 2553 2406 2477 2406 2311 
C 2406 2253 2406 2240 2368 2151 
L 1664 377 
L 902 2286 
C 864 2369 864 2381 864 2407 
C 864 2560 1075 2560 1171 2560 
L 1171 2732 
C 1018 2726 736 2726 576 2726 
C 403 2726 205 2726 64 2732 
L 64 2560 
C 307 2560 442 2560 518 2362 
L 1446 44 
C 1485 -51 1491 -64 1549 -64 
C 1606 -64 1613 -51 1651 44 
L 2502 2163 
z
" transform="scale(0.015625)"/>
       <path id="CMR17-65" d="M 2438 1472 
C 2464 1498 2464 1511 2464 1576 
C 2464 2238 2118 2816 1389 2816 
C 710 2816 173 2169 173 1383 
C 173 551 781 -64 1459 -64 
C 2176 -64 2458 607 2458 740 
C 2458 784 2419 784 2406 784 
C 2362 784 2355 771 2330 696 
C 2189 265 1837 51 1504 51 
C 1229 51 954 203 781 480 
C 582 803 582 1176 582 1472 
L 2438 1472 
z
M 589 1568 
C 634 2505 1126 2714 1382 2714 
C 1818 2714 2112 2297 2118 1568 
L 589 1568 
z
" transform="scale(0.015625)"/>
       <path id="CMR17-4a" d="M 1888 910 
C 1888 324 1568 -26 1242 -26 
C 1075 -26 691 49 525 431 
C 550 425 582 418 608 418 
C 730 418 883 501 883 692 
C 883 845 774 960 614 960 
C 461 960 339 865 339 682 
C 339 258 730 -128 1254 -128 
C 1754 -128 2214 229 2291 764 
C 2298 809 2298 821 2298 1038 
L 2298 3715 
C 2298 3823 2298 4001 2310 4039 
C 2336 4160 2483 4160 2682 4160 
L 2682 4320 
C 2669 4320 2214 4320 2054 4320 
C 1786 4320 1491 4320 1222 4320 
L 1222 4160 
L 1376 4160 
C 1875 4160 1888 4090 1888 3861 
L 1888 910 
z
" transform="scale(0.015625)"/>
       <path id="CMR17-75" d="M 1882 2693 
L 1882 2528 
C 2259 2528 2317 2489 2317 2186 
L 2317 1032 
C 2317 500 2029 38 1555 38 
C 1030 38 986 348 986 678 
L 986 2763 
L 211 2693 
L 211 2528 
C 467 2528 640 2528 646 2274 
L 646 1058 
C 646 633 646 361 813 183 
C 896 101 1056 -64 1517 -64 
C 2061 -64 2272 377 2323 506 
L 2330 506 
L 2330 -63 
L 3091 -63 
L 3091 128 
C 2714 128 2656 166 2656 473 
L 2656 2763 
L 1882 2693 
z
" transform="scale(0.015625)"/>
       <path id="CMR17-6e" d="M 2656 1933 
C 2656 2259 2592 2790 1837 2790 
C 1331 2790 1069 2400 973 2144 
L 966 2144 
L 966 2790 
L 211 2720 
L 211 2554 
C 589 2554 646 2515 646 2208 
L 646 428 
C 646 184 621 153 211 153 
L 211 -13 
C 365 0 646 0 813 0 
C 979 0 1267 0 1421 -13 
L 1421 153 
C 1011 153 986 178 986 428 
L 986 1658 
C 986 2247 1344 2688 1792 2688 
C 2266 2688 2317 2266 2317 1958 
L 2317 428 
C 2317 184 2291 153 1882 153 
L 1882 -13 
C 2035 0 2317 0 2483 0 
C 2650 0 2938 0 3091 -13 
L 3091 153 
C 2682 153 2656 178 2656 428 
L 2656 1933 
z
" transform="scale(0.015625)"/>
       <path id="CMR17-6f" d="M 2758 1356 
C 2758 2176 2163 2816 1466 2816 
C 768 2816 173 2176 173 1356 
C 173 551 768 -64 1466 -64 
C 2163 -64 2758 551 2758 1356 
z
M 1466 51 
C 1165 51 909 230 762 480 
C 602 767 582 1126 582 1408 
C 582 1677 595 2010 762 2298 
C 890 2509 1139 2714 1466 2714 
C 1754 2714 1997 2554 2150 2330 
C 2349 2029 2349 1607 2349 1408 
C 2349 1158 2336 775 2163 467 
C 1984 173 1709 51 1466 51 
z
" transform="scale(0.015625)"/>
       <path id="CMR17-73" d="M 1978 2697 
C 1978 2813 1971 2819 1933 2819 
C 1907 2819 1901 2813 1824 2717 
C 1805 2691 1747 2626 1728 2601 
C 1523 2819 1235 2819 1126 2819 
C 416 2819 160 2447 160 2076 
C 160 1498 813 1365 998 1325 
C 1402 1243 1542 1217 1677 1101 
C 1760 1025 1901 884 1901 654 
C 1901 384 1747 38 1158 38 
C 602 38 403 460 288 1021 
C 269 1110 269 1117 218 1117 
C 166 1117 160 1110 160 983 
L 160 63 
C 160 -51 166 -58 205 -58 
C 237 -58 243 -51 275 0 
C 314 57 410 211 448 276 
C 576 103 800 -64 1158 -64 
C 1792 -64 2131 283 2131 784 
C 2131 1112 1958 1285 1875 1362 
C 1683 1561 1459 1606 1190 1657 
C 838 1735 390 1825 390 2217 
C 390 2383 480 2737 1126 2737 
C 1811 2737 1850 2094 1862 1888 
C 1869 1856 1901 1849 1920 1849 
C 1978 1849 1978 1869 1978 1978 
L 1978 2697 
z
" transform="scale(0.015625)"/>
       <path id="CMR17-5b" d="M 1504 -1600 
L 1504 -1377 
L 902 -1377 
L 902 4544 
L 1504 4544 
L 1504 4767 
L 678 4767 
L 678 -1600 
L 1504 -1600 
z
" transform="scale(0.015625)"/>
       <path id="CMR17-25" d="M 4640 959 
C 4640 1698 4275 2240 3846 2240 
C 3411 2240 2970 1736 2970 959 
C 2970 183 3405 -320 3846 -320 
C 4275 -320 4640 215 4640 959 
z
M 3853 -218 
C 3686 -218 3270 -66 3270 959 
C 3270 1991 3686 2138 3853 2138 
C 4205 2138 4525 1634 4525 959 
C 4525 285 4205 -218 3853 -218 
z
M 4083 4577 
C 4128 4647 4134 4653 4134 4685 
C 4134 4761 4077 4800 4026 4800 
C 3962 4800 3936 4756 3891 4706 
C 3520 4190 3008 4134 2746 4134 
C 2106 4134 1715 4494 1594 4607 
C 1510 4682 1389 4800 1171 4800 
C 736 4800 294 4296 294 3519 
C 294 2743 730 2240 1171 2240 
C 1600 2240 1965 2778 1965 3527 
C 1965 3969 1830 4270 1811 4308 
C 2202 4064 2586 4032 2752 4032 
C 3162 4032 3456 4183 3616 4289 
L 3622 4283 
L 858 -84 
C 800 -174 800 -187 800 -206 
C 800 -276 858 -320 915 -320 
C 973 -320 992 -289 1037 -218 
L 4083 4577 
z
M 1178 2342 
C 1011 2342 595 2494 595 3519 
C 595 4551 1011 4698 1178 4698 
C 1530 4698 1850 4194 1850 3519 
C 1850 2845 1530 2342 1178 2342 
z
" transform="scale(0.015625)"/>
       <path id="CMR17-5d" d="M 915 4767 
L 90 4767 
L 90 4544 
L 691 4544 
L 691 -1377 
L 90 -1377 
L 90 -1600 
L 915 -1600 
L 915 4767 
z
" transform="scale(0.015625)"/>
      </defs>
      <use xlink:href="#CMR17-41" transform="scale(0.996264)"/>
      <use xlink:href="#CMR17-63" transform="translate(69.07243 0) scale(0.996264)"/>
      <use xlink:href="#CMR17-74" transform="translate(109.55809 0) scale(0.996264)"/>
      <use xlink:href="#CMR17-69" transform="translate(144.838858 0) scale(0.996264)"/>
      <use xlink:href="#CMR17-76" transform="translate(169.709917 0) scale(0.996264)"/>
      <use xlink:href="#CMR17-65" transform="translate(215.400378 0) scale(0.996264)"/>
      <use xlink:href="#CMR17-4a" transform="translate(285.962005 0) scale(0.996264)"/>
      <use xlink:href="#CMR17-75" transform="translate(332.933795 0) scale(0.996264)"/>
      <use xlink:href="#CMR17-6e" transform="translate(383.829165 0) scale(0.996264)"/>
      <use xlink:href="#CMR17-63" transform="translate(434.724535 0) scale(0.996264)"/>
      <use xlink:href="#CMR17-74" transform="translate(475.210195 0) scale(0.996264)"/>
      <use xlink:href="#CMR17-69" transform="translate(510.490963 0) scale(0.996264)"/>
      <use xlink:href="#CMR17-6f" transform="translate(535.362021 0) scale(0.996264)"/>
      <use xlink:href="#CMR17-6e" transform="translate(581.052498 0) scale(0.996264)"/>
      <use xlink:href="#CMR17-73" transform="translate(631.947868 0) scale(0.996264)"/>
      <use xlink:href="#CMR17-5b" transform="translate(697.825172 0) scale(0.996264)"/>
      <use xlink:href="#CMR17-25" transform="translate(722.696231 0) scale(0.996264)"/>
      <use xlink:href="#CMR17-5d" transform="translate(799.615821 0) scale(0.996264)"/>
     </g>
    </g>
   </g>
   <g id="matplotlib.axis_2">
    <g id="ytick_1">
     <g id="line2d_37">
      <path d="M 32.685756 113.031203 
L 181.618185 113.031203 
" clip-path="url(#p680c1cf9b5)" style="fill: none; stroke-dasharray: 1.85,0.8; stroke-dashoffset: 0; stroke: #000000; stroke-opacity: 0.5; stroke-width: 0.5"/>
     </g>
     <g id="line2d_38">
      <defs>
       <path id="mf7b54e1e51" d="M 0 0 
L 3 0 
" style="stroke: #000000; stroke-width: 0.5"/>
      </defs>
      <g>
       <use xlink:href="#mf7b54e1e51" x="32.685756" y="113.031203" style="stroke: #000000; stroke-width: 0.5"/>
      </g>
     </g>
     <g id="line2d_39">
      <defs>
       <path id="m4712ea5bd4" d="M 0 0 
L -3 0 
" style="stroke: #000000; stroke-width: 0.5"/>
      </defs>
      <g>
       <use xlink:href="#m4712ea5bd4" x="181.618185" y="113.031203" style="stroke: #000000; stroke-width: 0.5"/>
      </g>
     </g>
     <g id="text_6">
      <!-- $\mathdefault{0.0}$ -->
      <g transform="translate(16.455677 116.490452) scale(0.1 -0.1)">
       <defs>
        <path id="CMMI12-3a" d="M 1178 307 
C 1178 492 1024 619 870 619 
C 685 619 557 466 557 313 
C 557 128 710 0 864 0 
C 1050 0 1178 153 1178 307 
z
" transform="scale(0.015625)"/>
       </defs>
       <use xlink:href="#CMR17-30" transform="scale(0.996264)"/>
       <use xlink:href="#CMMI12-3a" transform="translate(45.690477 0) scale(0.996264)"/>
       <use xlink:href="#CMR17-30" transform="translate(72.787654 0) scale(0.996264)"/>
      </g>
     </g>
    </g>
    <g id="ytick_2">
     <g id="line2d_40">
      <path d="M 32.685756 75.797687 
L 181.618185 75.797687 
" clip-path="url(#p680c1cf9b5)" style="fill: none; stroke-dasharray: 1.85,0.8; stroke-dashoffset: 0; stroke: #000000; stroke-opacity: 0.5; stroke-width: 0.5"/>
     </g>
     <g id="line2d_41">
      <g>
       <use xlink:href="#mf7b54e1e51" x="32.685756" y="75.797687" style="stroke: #000000; stroke-width: 0.5"/>
      </g>
     </g>
     <g id="line2d_42">
      <g>
       <use xlink:href="#m4712ea5bd4" x="181.618185" y="75.797687" style="stroke: #000000; stroke-width: 0.5"/>
      </g>
     </g>
     <g id="text_7">
      <!-- $\mathdefault{0.1}$ -->
      <g transform="translate(16.455677 79.256936) scale(0.1 -0.1)">
       <use xlink:href="#CMR17-30" transform="scale(0.996264)"/>
       <use xlink:href="#CMMI12-3a" transform="translate(45.690477 0) scale(0.996264)"/>
       <use xlink:href="#CMR17-31" transform="translate(72.787654 0) scale(0.996264)"/>
      </g>
     </g>
    </g>
    <g id="ytick_3">
     <g id="line2d_43">
      <path d="M 32.685756 38.564171 
L 181.618185 38.564171 
" clip-path="url(#p680c1cf9b5)" style="fill: none; stroke-dasharray: 1.85,0.8; stroke-dashoffset: 0; stroke: #000000; stroke-opacity: 0.5; stroke-width: 0.5"/>
     </g>
     <g id="line2d_44">
      <g>
       <use xlink:href="#mf7b54e1e51" x="32.685756" y="38.564171" style="stroke: #000000; stroke-width: 0.5"/>
      </g>
     </g>
     <g id="line2d_45">
      <g>
       <use xlink:href="#m4712ea5bd4" x="181.618185" y="38.564171" style="stroke: #000000; stroke-width: 0.5"/>
      </g>
     </g>
     <g id="text_8">
      <!-- $\mathdefault{0.2}$ -->
      <g transform="translate(16.455677 42.02342) scale(0.1 -0.1)">
       <use xlink:href="#CMR17-30" transform="scale(0.996264)"/>
       <use xlink:href="#CMMI12-3a" transform="translate(45.690477 0) scale(0.996264)"/>
       <use xlink:href="#CMR17-32" transform="translate(72.787654 0) scale(0.996264)"/>
      </g>
     </g>
    </g>
    <g id="ytick_4">
     <g id="line2d_46">
      <defs>
       <path id="m6895c00446" d="M 0 0 
L 1.5 0 
" style="stroke: #000000; stroke-width: 0.5"/>
      </defs>
      <g>
       <use xlink:href="#m6895c00446" x="32.685756" y="105.5845" style="stroke: #000000; stroke-width: 0.5"/>
      </g>
     </g>
     <g id="line2d_47">
      <defs>
       <path id="mb59f9f41d4" d="M 0 0 
L -1.5 0 
" style="stroke: #000000; stroke-width: 0.5"/>
      </defs>
      <g>
       <use xlink:href="#mb59f9f41d4" x="181.618185" y="105.5845" style="stroke: #000000; stroke-width: 0.5"/>
      </g>
     </g>
    </g>
    <g id="ytick_5">
     <g id="line2d_48">
      <g>
       <use xlink:href="#m6895c00446" x="32.685756" y="98.137797" style="stroke: #000000; stroke-width: 0.5"/>
      </g>
     </g>
     <g id="line2d_49">
      <g>
       <use xlink:href="#mb59f9f41d4" x="181.618185" y="98.137797" style="stroke: #000000; stroke-width: 0.5"/>
      </g>
     </g>
    </g>
    <g id="ytick_6">
     <g id="line2d_50">
      <g>
       <use xlink:href="#m6895c00446" x="32.685756" y="90.691093" style="stroke: #000000; stroke-width: 0.5"/>
      </g>
     </g>
     <g id="line2d_51">
      <g>
       <use xlink:href="#mb59f9f41d4" x="181.618185" y="90.691093" style="stroke: #000000; stroke-width: 0.5"/>
      </g>
     </g>
    </g>
    <g id="ytick_7">
     <g id="line2d_52">
      <g>
       <use xlink:href="#m6895c00446" x="32.685756" y="83.24439" style="stroke: #000000; stroke-width: 0.5"/>
      </g>
     </g>
     <g id="line2d_53">
      <g>
       <use xlink:href="#mb59f9f41d4" x="181.618185" y="83.24439" style="stroke: #000000; stroke-width: 0.5"/>
      </g>
     </g>
    </g>
    <g id="ytick_8">
     <g id="line2d_54">
      <g>
       <use xlink:href="#m6895c00446" x="32.685756" y="68.350984" style="stroke: #000000; stroke-width: 0.5"/>
      </g>
     </g>
     <g id="line2d_55">
      <g>
       <use xlink:href="#mb59f9f41d4" x="181.618185" y="68.350984" style="stroke: #000000; stroke-width: 0.5"/>
      </g>
     </g>
    </g>
    <g id="ytick_9">
     <g id="line2d_56">
      <g>
       <use xlink:href="#m6895c00446" x="32.685756" y="60.90428" style="stroke: #000000; stroke-width: 0.5"/>
      </g>
     </g>
     <g id="line2d_57">
      <g>
       <use xlink:href="#mb59f9f41d4" x="181.618185" y="60.90428" style="stroke: #000000; stroke-width: 0.5"/>
      </g>
     </g>
    </g>
    <g id="ytick_10">
     <g id="line2d_58">
      <g>
       <use xlink:href="#m6895c00446" x="32.685756" y="53.457577" style="stroke: #000000; stroke-width: 0.5"/>
      </g>
     </g>
     <g id="line2d_59">
      <g>
       <use xlink:href="#mb59f9f41d4" x="181.618185" y="53.457577" style="stroke: #000000; stroke-width: 0.5"/>
      </g>
     </g>
    </g>
    <g id="ytick_11">
     <g id="line2d_60">
      <g>
       <use xlink:href="#m6895c00446" x="32.685756" y="46.010874" style="stroke: #000000; stroke-width: 0.5"/>
      </g>
     </g>
     <g id="line2d_61">
      <g>
       <use xlink:href="#mb59f9f41d4" x="181.618185" y="46.010874" style="stroke: #000000; stroke-width: 0.5"/>
      </g>
     </g>
    </g>
    <g id="ytick_12">
     <g id="line2d_62">
      <g>
       <use xlink:href="#m6895c00446" x="32.685756" y="31.117467" style="stroke: #000000; stroke-width: 0.5"/>
      </g>
     </g>
     <g id="line2d_63">
      <g>
       <use xlink:href="#mb59f9f41d4" x="181.618185" y="31.117467" style="stroke: #000000; stroke-width: 0.5"/>
      </g>
     </g>
    </g>
    <g id="ytick_13">
     <g id="line2d_64">
      <g>
       <use xlink:href="#m6895c00446" x="32.685756" y="23.670764" style="stroke: #000000; stroke-width: 0.5"/>
      </g>
     </g>
     <g id="line2d_65">
      <g>
       <use xlink:href="#mb59f9f41d4" x="181.618185" y="23.670764" style="stroke: #000000; stroke-width: 0.5"/>
      </g>
     </g>
    </g>
    <g id="ytick_14">
     <g id="line2d_66">
      <g>
       <use xlink:href="#m6895c00446" x="32.685756" y="16.224061" style="stroke: #000000; stroke-width: 0.5"/>
      </g>
     </g>
     <g id="line2d_67">
      <g>
       <use xlink:href="#mb59f9f41d4" x="181.618185" y="16.224061" style="stroke: #000000; stroke-width: 0.5"/>
      </g>
     </g>
    </g>
    <g id="ytick_15">
     <g id="line2d_68">
      <g>
       <use xlink:href="#m6895c00446" x="32.685756" y="8.777358" style="stroke: #000000; stroke-width: 0.5"/>
      </g>
     </g>
     <g id="line2d_69">
      <g>
       <use xlink:href="#mb59f9f41d4" x="181.618185" y="8.777358" style="stroke: #000000; stroke-width: 0.5"/>
      </g>
     </g>
    </g>
    <g id="text_9">
     <!-- Density -->
     <g transform="translate(10.518498 74.878521) rotate(-90) scale(0.1 -0.1)">
      <defs>
       <path id="CMR17-44" d="M 333 4352 
L 333 4186 
C 774 4186 845 4186 845 3900 
L 845 452 
C 845 166 774 166 333 166 
L 333 0 
L 2368 0 
C 3398 0 4224 943 4224 2141 
C 4224 3346 3411 4352 2368 4352 
L 333 4352 
z
M 1523 166 
C 1267 166 1254 197 1254 414 
L 1254 3938 
C 1254 4155 1267 4186 1523 4186 
L 2240 4186 
C 2771 4186 3750 3874 3750 2141 
C 3750 1242 3488 879 3366 707 
C 3213 510 2848 166 2240 166 
L 1523 166 
z
" transform="scale(0.015625)"/>
       <path id="CMR17-79" d="M 2496 2197 
C 2656 2586 2944 2586 3034 2586 
L 3034 2752 
C 2912 2752 2752 2752 2630 2752 
C 2496 2752 2285 2752 2157 2758 
L 2157 2592 
C 2400 2573 2406 2394 2406 2343 
C 2406 2280 2394 2248 2362 2171 
L 1664 449 
L 902 2306 
C 870 2382 870 2426 870 2433 
C 870 2573 1018 2586 1171 2586 
L 1171 2758 
C 1018 2752 742 2752 582 2752 
C 410 2752 205 2752 64 2758 
L 64 2586 
C 410 2586 448 2554 531 2350 
L 1485 15 
C 1197 -738 1030 -1178 627 -1178 
C 557 -1178 397 -1159 282 -1044 
C 429 -1031 493 -942 493 -833 
C 493 -725 416 -629 288 -629 
C 147 -629 77 -725 77 -840 
C 77 -1095 339 -1280 627 -1280 
C 998 -1280 1229 -922 1357 -604 
L 2496 2197 
z
" transform="scale(0.015625)"/>
      </defs>
      <use xlink:href="#CMR17-44" transform="scale(0.996264)"/>
      <use xlink:href="#CMR17-65" transform="translate(70.393556 0) scale(0.996264)"/>
      <use xlink:href="#CMR17-6e" transform="translate(110.879216 0) scale(0.996264)"/>
      <use xlink:href="#CMR17-73" transform="translate(161.774586 0) scale(0.996264)"/>
      <use xlink:href="#CMR17-69" transform="translate(197.575924 0) scale(0.996264)"/>
      <use xlink:href="#CMR17-74" transform="translate(222.446982 0) scale(0.996264)"/>
      <use xlink:href="#CMR17-79" transform="translate(255.125296 0) scale(0.996264)"/>
     </g>
    </g>
   </g>
   <g id="PolyCollection_1">
    <defs>
     <path id="mb53a89f586" d="M 102.359033 -29.994292 
L 102.359033 -29.918317 
L 102.657781 -29.918317 
L 102.956528 -29.918317 
L 103.255276 -29.918317 
L 103.554024 -29.918317 
L 103.852772 -29.918317 
L 104.151519 -29.918317 
L 104.450267 -29.918317 
L 104.749015 -29.918317 
L 105.047763 -29.918317 
L 105.34651 -29.918317 
L 105.645258 -29.918317 
L 105.944006 -29.918317 
L 106.242754 -29.918317 
L 106.541501 -29.918317 
L 106.840249 -29.918317 
L 107.138997 -29.918317 
L 107.437745 -29.918317 
L 107.736492 -29.918317 
L 108.03524 -29.918317 
L 108.333988 -29.918317 
L 108.632736 -29.918317 
L 108.931483 -29.918317 
L 109.230231 -29.918317 
L 109.528979 -29.918317 
L 109.827727 -29.918317 
L 110.126474 -29.918317 
L 110.425222 -29.918317 
L 110.72397 -29.918317 
L 111.022718 -29.918317 
L 111.321465 -29.918317 
L 111.620213 -29.918317 
L 111.918961 -29.918317 
L 112.217709 -29.918317 
L 112.516456 -29.918317 
L 112.815204 -29.918317 
L 113.113952 -29.918317 
L 113.4127 -29.918317 
L 113.711447 -29.918317 
L 114.010195 -29.918317 
L 114.308943 -29.918317 
L 114.607691 -29.918317 
L 114.906438 -29.918317 
L 115.205186 -29.918317 
L 115.503934 -29.918317 
L 115.802682 -29.918317 
L 116.101429 -29.918317 
L 116.400177 -29.918317 
L 116.698925 -29.918317 
L 116.997673 -29.918317 
L 117.29642 -29.918317 
L 117.595168 -29.918317 
L 117.893916 -29.918317 
L 118.192664 -29.918317 
L 118.491411 -29.918317 
L 118.790159 -29.918317 
L 119.088907 -29.918317 
L 119.387655 -29.918317 
L 119.686402 -29.918317 
L 119.98515 -29.918317 
L 120.283898 -29.918317 
L 120.582646 -29.918317 
L 120.881393 -29.918317 
L 121.180141 -29.918317 
L 121.478889 -29.918317 
L 121.777637 -29.918317 
L 122.076384 -29.918317 
L 122.375132 -29.918317 
L 122.67388 -29.918317 
L 122.972628 -29.918317 
L 123.271375 -29.918317 
L 123.570123 -29.918317 
L 123.868871 -29.918317 
L 124.167619 -29.918317 
L 124.466366 -29.918317 
L 124.765114 -29.918317 
L 125.063862 -29.918317 
L 125.36261 -29.918317 
L 125.661357 -29.918317 
L 125.960105 -29.918317 
L 126.258853 -29.918317 
L 126.557601 -29.918317 
L 126.856348 -29.918317 
L 127.155096 -29.918317 
L 127.453844 -29.918317 
L 127.752592 -29.918317 
L 128.051339 -29.918317 
L 128.350087 -29.918317 
L 128.648835 -29.918317 
L 128.947583 -29.918317 
L 129.24633 -29.918317 
L 129.545078 -29.918317 
L 129.843826 -29.918317 
L 130.142574 -29.918317 
L 130.441321 -29.918317 
L 130.740069 -29.918317 
L 131.038817 -29.918317 
L 131.337565 -29.918317 
L 131.636312 -29.918317 
L 131.93506 -29.918317 
L 132.233808 -29.918317 
L 132.532556 -29.918317 
L 132.831303 -29.918317 
L 133.130051 -29.918317 
L 133.428799 -29.918317 
L 133.727547 -29.918317 
L 134.026294 -29.918317 
L 134.325042 -29.918317 
L 134.62379 -29.918317 
L 134.922538 -29.918317 
L 135.221285 -29.918317 
L 135.520033 -29.918317 
L 135.818781 -29.918317 
L 136.117529 -29.918317 
L 136.416276 -29.918317 
L 136.715024 -29.918317 
L 137.013772 -29.918317 
L 137.31252 -29.918317 
L 137.611267 -29.918317 
L 137.910015 -29.918317 
L 138.208763 -29.918317 
L 138.507511 -29.918317 
L 138.806258 -29.918317 
L 139.105006 -29.918317 
L 139.403754 -29.918317 
L 139.702502 -29.918317 
L 140.001249 -29.918317 
L 140.299997 -29.918317 
L 140.598745 -29.918317 
L 140.897493 -29.918317 
L 141.19624 -29.918317 
L 141.494988 -29.918317 
L 141.793736 -29.918317 
L 142.092484 -29.918317 
L 142.391231 -29.918317 
L 142.689979 -29.918317 
L 142.988727 -29.918317 
L 143.287475 -29.918317 
L 143.586222 -29.918317 
L 143.88497 -29.918317 
L 144.183718 -29.918317 
L 144.482466 -29.918317 
L 144.781213 -29.918317 
L 145.079961 -29.918317 
L 145.378709 -29.918317 
L 145.677457 -29.918317 
L 145.976204 -29.918317 
L 146.274952 -29.918317 
L 146.5737 -29.918317 
L 146.872448 -29.918317 
L 147.171195 -29.918317 
L 147.469943 -29.918317 
L 147.768691 -29.918317 
L 148.067439 -29.918317 
L 148.366186 -29.918317 
L 148.664934 -29.918317 
L 148.963682 -29.918317 
L 149.26243 -29.918317 
L 149.561177 -29.918317 
L 149.859925 -29.918317 
L 150.158673 -29.918317 
L 150.457421 -29.918317 
L 150.756168 -29.918317 
L 151.054916 -29.918317 
L 151.353664 -29.918317 
L 151.652412 -29.918317 
L 151.951159 -29.918317 
L 152.249907 -29.918317 
L 152.548655 -29.918317 
L 152.847403 -29.918317 
L 153.14615 -29.918317 
L 153.444898 -29.918317 
L 153.743646 -29.918317 
L 154.042393 -29.918317 
L 154.341141 -29.918317 
L 154.639889 -29.918317 
L 154.938637 -29.918317 
L 155.237384 -29.918317 
L 155.536132 -29.918317 
L 155.83488 -29.918317 
L 156.133628 -29.918317 
L 156.432375 -29.918317 
L 156.731123 -29.918317 
L 157.029871 -29.918317 
L 157.328619 -29.918317 
L 157.627366 -29.918317 
L 157.926114 -29.918317 
L 158.224862 -29.918317 
L 158.52361 -29.918317 
L 158.822357 -29.918317 
L 159.121105 -29.918317 
L 159.419853 -29.918317 
L 159.718601 -29.918317 
L 160.017348 -29.918317 
L 160.316096 -29.918317 
L 160.614844 -29.918317 
L 160.913592 -29.918317 
L 161.212339 -29.918317 
L 161.511087 -29.918317 
L 161.809835 -29.918317 
L 161.809835 -29.983709 
L 161.809835 -29.983709 
L 161.511087 -30.000086 
L 161.212339 -30.020021 
L 160.913592 -30.044146 
L 160.614844 -30.073172 
L 160.316096 -30.107896 
L 160.017348 -30.149199 
L 159.718601 -30.198047 
L 159.419853 -30.255494 
L 159.121105 -30.322677 
L 158.822357 -30.40081 
L 158.52361 -30.491183 
L 158.224862 -30.59515 
L 157.926114 -30.714124 
L 157.627366 -30.849566 
L 157.328619 -31.002975 
L 157.029871 -31.17588 
L 156.731123 -31.369831 
L 156.432375 -31.586396 
L 156.133628 -31.827154 
L 155.83488 -32.093698 
L 155.536132 -32.387643 
L 155.237384 -32.710634 
L 154.938637 -33.064366 
L 154.639889 -33.450607 
L 154.341141 -33.87123 
L 154.042393 -34.328245 
L 153.743646 -34.823847 
L 153.444898 -35.360453 
L 153.14615 -35.940755 
L 152.847403 -36.567766 
L 152.548655 -37.244859 
L 152.249907 -37.975812 
L 151.951159 -38.764832 
L 151.652412 -39.616575 
L 151.353664 -40.536145 
L 151.054916 -41.529081 
L 150.756168 -42.601319 
L 150.457421 -43.759131 
L 150.158673 -45.009045 
L 149.859925 -46.357733 
L 149.561177 -47.811882 
L 149.26243 -49.378036 
L 148.963682 -51.062425 
L 148.664934 -52.870767 
L 148.366186 -54.808068 
L 148.067439 -56.878404 
L 147.768691 -59.084705 
L 147.469943 -61.428548 
L 147.171195 -63.909944 
L 146.872448 -66.527161 
L 146.5737 -69.276556 
L 146.274952 -72.152439 
L 145.976204 -75.14697 
L 145.677457 -78.250099 
L 145.378709 -81.449542 
L 145.079961 -84.730804 
L 144.781213 -88.077248 
L 144.482466 -91.470216 
L 144.183718 -94.889187 
L 143.88497 -98.311987 
L 143.586222 -101.715044 
L 143.287475 -105.07367 
L 142.988727 -108.362392 
L 142.689979 -111.555299 
L 142.391231 -114.62642 
L 142.092484 -117.550118 
L 141.793736 -120.301486 
L 141.494988 -122.856751 
L 141.19624 -125.19367 
L 140.897493 -127.291911 
L 140.598745 -129.133408 
L 140.299997 -130.702694 
L 140.001249 -131.987184 
L 139.702502 -132.97742 
L 139.403754 -133.667261 
L 139.105006 -134.054017 
L 138.806258 -134.13851 
L 138.507511 -133.925086 
L 138.208763 -133.421537 
L 137.910015 -132.638972 
L 137.611267 -131.591607 
L 137.31252 -130.296498 
L 137.013772 -128.773209 
L 136.715024 -127.043433 
L 136.416276 -125.130562 
L 136.117529 -123.059229 
L 135.818781 -120.854823 
L 135.520033 -118.542999 
L 135.221285 -116.149183 
L 134.922538 -113.698106 
L 134.62379 -111.213351 
L 134.325042 -108.716955 
L 134.026294 -106.229052 
L 133.727547 -103.767584 
L 133.428799 -101.348072 
L 133.130051 -98.983471 
L 132.831303 -96.684083 
L 132.532556 -94.457562 
L 132.233808 -92.30898 
L 131.93506 -90.240964 
L 131.636312 -88.253893 
L 131.337565 -86.346147 
L 131.038817 -84.514396 
L 130.740069 -82.753922 
L 130.441321 -81.058954 
L 130.142574 -79.423015 
L 129.843826 -77.83926 
L 129.545078 -76.3008 
L 129.24633 -74.801 
L 128.947583 -73.333738 
L 128.648835 -71.893635 
L 128.350087 -70.476225 
L 128.051339 -69.078089 
L 127.752592 -67.696929 
L 127.453844 -66.331603 
L 127.155096 -64.982109 
L 126.856348 -63.649527 
L 126.557601 -62.335922 
L 126.258853 -61.044223 
L 125.960105 -59.778074 
L 125.661357 -58.541662 
L 125.36261 -57.33955 
L 125.063862 -56.17649 
L 124.765114 -55.057252 
L 124.466366 -53.986457 
L 124.167619 -52.968421 
L 123.868871 -52.007022 
L 123.570123 -51.105583 
L 123.271375 -50.266776 
L 122.972628 -49.492552 
L 122.67388 -48.784087 
L 122.375132 -48.141759 
L 122.076384 -47.565133 
L 121.777637 -47.052973 
L 121.478889 -46.603265 
L 121.180141 -46.213256 
L 120.881393 -45.879502 
L 120.582646 -45.597929 
L 120.283898 -45.3639 
L 119.98515 -45.172286 
L 119.686402 -45.017549 
L 119.387655 -44.893822 
L 119.088907 -44.794996 
L 118.790159 -44.714815 
L 118.491411 -44.646961 
L 118.192664 -44.585155 
L 117.893916 -44.523247 
L 117.595168 -44.455315 
L 117.29642 -44.375755 
L 116.997673 -44.279374 
L 116.698925 -44.161475 
L 116.400177 -44.01793 
L 116.101429 -43.845257 
L 115.802682 -43.640671 
L 115.503934 -43.402131 
L 115.205186 -43.128369 
L 114.906438 -42.818903 
L 114.607691 -42.474032 
L 114.308943 -42.094816 
L 114.010195 -41.683033 
L 113.711447 -41.241125 
L 113.4127 -40.772128 
L 113.113952 -40.279588 
L 112.815204 -39.767465 
L 112.516456 -39.240032 
L 112.217709 -38.70177 
L 111.918961 -38.157259 
L 111.620213 -37.611077 
L 111.321465 -37.067692 
L 111.022718 -36.531381 
L 110.72397 -36.006137 
L 110.425222 -35.49561 
L 110.126474 -35.003045 
L 109.827727 -34.53124 
L 109.528979 -34.082524 
L 109.230231 -33.658742 
L 108.931483 -33.261252 
L 108.632736 -32.890946 
L 108.333988 -32.548267 
L 108.03524 -32.233245 
L 107.736492 -31.945536 
L 107.437745 -31.684469 
L 107.138997 -31.44909 
L 106.840249 -31.238218 
L 106.541501 -31.050488 
L 106.242754 -30.884404 
L 105.944006 -30.738381 
L 105.645258 -30.610785 
L 105.34651 -30.499975 
L 105.047763 -30.404328 
L 104.749015 -30.322269 
L 104.450267 -30.252292 
L 104.151519 -30.192976 
L 103.852772 -30.142998 
L 103.554024 -30.101138 
L 103.255276 -30.066286 
L 102.956528 -30.03744 
L 102.657781 -30.013706 
L 102.359033 -29.994292 
z
" style="stroke: #4477aa"/>
    </defs>
    <g clip-path="url(#p680c1cf9b5)">
     <use xlink:href="#mb53a89f586" x="0" y="142.94952" style="fill: #4477aa; fill-opacity: 0.25; stroke: #4477aa"/>
    </g>
   </g>
   <g id="PolyCollection_2">
    <defs>
     <path id="m8f9d05492c" d="M 35.82373 -29.955441 
L 35.82373 -29.918317 
L 36.496235 -29.918317 
L 37.168741 -29.918317 
L 37.841246 -29.918317 
L 38.513751 -29.918317 
L 39.186257 -29.918317 
L 39.858762 -29.918317 
L 40.531268 -29.918317 
L 41.203773 -29.918317 
L 41.876278 -29.918317 
L 42.548784 -29.918317 
L 43.221289 -29.918317 
L 43.893795 -29.918317 
L 44.5663 -29.918317 
L 45.238805 -29.918317 
L 45.911311 -29.918317 
L 46.583816 -29.918317 
L 47.256322 -29.918317 
L 47.928827 -29.918317 
L 48.601332 -29.918317 
L 49.273838 -29.918317 
L 49.946343 -29.918317 
L 50.618849 -29.918317 
L 51.291354 -29.918317 
L 51.963859 -29.918317 
L 52.636365 -29.918317 
L 53.30887 -29.918317 
L 53.981376 -29.918317 
L 54.653881 -29.918317 
L 55.326386 -29.918317 
L 55.998892 -29.918317 
L 56.671397 -29.918317 
L 57.343903 -29.918317 
L 58.016408 -29.918317 
L 58.688914 -29.918317 
L 59.361419 -29.918317 
L 60.033924 -29.918317 
L 60.70643 -29.918317 
L 61.378935 -29.918317 
L 62.051441 -29.918317 
L 62.723946 -29.918317 
L 63.396451 -29.918317 
L 64.068957 -29.918317 
L 64.741462 -29.918317 
L 65.413968 -29.918317 
L 66.086473 -29.918317 
L 66.758978 -29.918317 
L 67.431484 -29.918317 
L 68.103989 -29.918317 
L 68.776495 -29.918317 
L 69.449 -29.918317 
L 70.121505 -29.918317 
L 70.794011 -29.918317 
L 71.466516 -29.918317 
L 72.139022 -29.918317 
L 72.811527 -29.918317 
L 73.484032 -29.918317 
L 74.156538 -29.918317 
L 74.829043 -29.918317 
L 75.501549 -29.918317 
L 76.174054 -29.918317 
L 76.846559 -29.918317 
L 77.519065 -29.918317 
L 78.19157 -29.918317 
L 78.864076 -29.918317 
L 79.536581 -29.918317 
L 80.209087 -29.918317 
L 80.881592 -29.918317 
L 81.554097 -29.918317 
L 82.226603 -29.918317 
L 82.899108 -29.918317 
L 83.571614 -29.918317 
L 84.244119 -29.918317 
L 84.916624 -29.918317 
L 85.58913 -29.918317 
L 86.261635 -29.918317 
L 86.934141 -29.918317 
L 87.606646 -29.918317 
L 88.279151 -29.918317 
L 88.951657 -29.918317 
L 89.624162 -29.918317 
L 90.296668 -29.918317 
L 90.969173 -29.918317 
L 91.641678 -29.918317 
L 92.314184 -29.918317 
L 92.986689 -29.918317 
L 93.659195 -29.918317 
L 94.3317 -29.918317 
L 95.004205 -29.918317 
L 95.676711 -29.918317 
L 96.349216 -29.918317 
L 97.021722 -29.918317 
L 97.694227 -29.918317 
L 98.366732 -29.918317 
L 99.039238 -29.918317 
L 99.711743 -29.918317 
L 100.384249 -29.918317 
L 101.056754 -29.918317 
L 101.72926 -29.918317 
L 102.401765 -29.918317 
L 103.07427 -29.918317 
L 103.746776 -29.918317 
L 104.419281 -29.918317 
L 105.091787 -29.918317 
L 105.764292 -29.918317 
L 106.436797 -29.918317 
L 107.109303 -29.918317 
L 107.781808 -29.918317 
L 108.454314 -29.918317 
L 109.126819 -29.918317 
L 109.799324 -29.918317 
L 110.47183 -29.918317 
L 111.144335 -29.918317 
L 111.816841 -29.918317 
L 112.489346 -29.918317 
L 113.161851 -29.918317 
L 113.834357 -29.918317 
L 114.506862 -29.918317 
L 115.179368 -29.918317 
L 115.851873 -29.918317 
L 116.524378 -29.918317 
L 117.196884 -29.918317 
L 117.869389 -29.918317 
L 118.541895 -29.918317 
L 119.2144 -29.918317 
L 119.886905 -29.918317 
L 120.559411 -29.918317 
L 121.231916 -29.918317 
L 121.904422 -29.918317 
L 122.576927 -29.918317 
L 123.249433 -29.918317 
L 123.921938 -29.918317 
L 124.594443 -29.918317 
L 125.266949 -29.918317 
L 125.939454 -29.918317 
L 126.61196 -29.918317 
L 127.284465 -29.918317 
L 127.95697 -29.918317 
L 128.629476 -29.918317 
L 129.301981 -29.918317 
L 129.974487 -29.918317 
L 130.646992 -29.918317 
L 131.319497 -29.918317 
L 131.992003 -29.918317 
L 132.664508 -29.918317 
L 133.337014 -29.918317 
L 134.009519 -29.918317 
L 134.682024 -29.918317 
L 135.35453 -29.918317 
L 136.027035 -29.918317 
L 136.699541 -29.918317 
L 137.372046 -29.918317 
L 138.044551 -29.918317 
L 138.717057 -29.918317 
L 139.389562 -29.918317 
L 140.062068 -29.918317 
L 140.734573 -29.918317 
L 141.407078 -29.918317 
L 142.079584 -29.918317 
L 142.752089 -29.918317 
L 143.424595 -29.918317 
L 144.0971 -29.918317 
L 144.769606 -29.918317 
L 145.442111 -29.918317 
L 146.114616 -29.918317 
L 146.787122 -29.918317 
L 147.459627 -29.918317 
L 148.132133 -29.918317 
L 148.804638 -29.918317 
L 149.477143 -29.918317 
L 150.149649 -29.918317 
L 150.822154 -29.918317 
L 151.49466 -29.918317 
L 152.167165 -29.918317 
L 152.83967 -29.918317 
L 153.512176 -29.918317 
L 154.184681 -29.918317 
L 154.857187 -29.918317 
L 155.529692 -29.918317 
L 156.202197 -29.918317 
L 156.874703 -29.918317 
L 157.547208 -29.918317 
L 158.219714 -29.918317 
L 158.892219 -29.918317 
L 159.564724 -29.918317 
L 160.23723 -29.918317 
L 160.909735 -29.918317 
L 161.582241 -29.918317 
L 162.254746 -29.918317 
L 162.927251 -29.918317 
L 163.599757 -29.918317 
L 164.272262 -29.918317 
L 164.944768 -29.918317 
L 165.617273 -29.918317 
L 166.289778 -29.918317 
L 166.962284 -29.918317 
L 167.634789 -29.918317 
L 168.307295 -29.918317 
L 168.9798 -29.918317 
L 169.652306 -29.918317 
L 169.652306 -30.000175 
L 169.652306 -30.000175 
L 168.9798 -30.020434 
L 168.307295 -30.04514 
L 167.634789 -30.075125 
L 166.962284 -30.111343 
L 166.289778 -30.15488 
L 165.617273 -30.206963 
L 164.944768 -30.268971 
L 164.272262 -30.342441 
L 163.599757 -30.429074 
L 162.927251 -30.530737 
L 162.254746 -30.649466 
L 161.582241 -30.787457 
L 160.909735 -30.947067 
L 160.23723 -31.130791 
L 159.564724 -31.341255 
L 158.892219 -31.581188 
L 158.219714 -31.853394 
L 157.547208 -32.16072 
L 156.874703 -32.506014 
L 156.202197 -32.892081 
L 155.529692 -33.321631 
L 154.857187 -33.797226 
L 154.184681 -34.321215 
L 153.512176 -34.895679 
L 152.83967 -35.522359 
L 152.167165 -36.202597 
L 151.49466 -36.937268 
L 150.822154 -37.726723 
L 150.149649 -38.570729 
L 149.477143 -39.468421 
L 148.804638 -40.418257 
L 148.132133 -41.417989 
L 147.459627 -42.464642 
L 146.787122 -43.554501 
L 146.114616 -44.683122 
L 145.442111 -45.845352 
L 144.769606 -47.035364 
L 144.0971 -48.24671 
L 143.424595 -49.47239 
L 142.752089 -50.704934 
L 142.079584 -51.9365 
L 141.407078 -53.158983 
L 140.734573 -54.364136 
L 140.062068 -55.543698 
L 139.389562 -56.68953 
L 138.717057 -57.79375 
L 138.044551 -58.848873 
L 137.372046 -59.847942 
L 136.699541 -60.784659 
L 136.027035 -61.653498 
L 135.35453 -62.449811 
L 134.682024 -63.169914 
L 134.009519 -63.811161 
L 133.337014 -64.371982 
L 132.664508 -64.85192 
L 131.992003 -65.251622 
L 131.319497 -65.572822 
L 130.646992 -65.818291 
L 129.974487 -65.991764 
L 129.301981 -66.097848 
L 128.629476 -66.141906 
L 127.95697 -66.129925 
L 127.284465 -66.06837 
L 126.61196 -65.964026 
L 125.939454 -65.823831 
L 125.266949 -65.654714 
L 124.594443 -65.463425 
L 123.921938 -65.256381 
L 123.249433 -65.039512 
L 122.576927 -64.818134 
L 121.904422 -64.596831 
L 121.231916 -64.37936 
L 120.559411 -64.168585 
L 119.886905 -63.966431 
L 119.2144 -63.773864 
L 118.541895 -63.590905 
L 117.869389 -63.416662 
L 117.196884 -63.249393 
L 116.524378 -63.086583 
L 115.851873 -62.925051 
L 115.179368 -62.761068 
L 114.506862 -62.590485 
L 113.834357 -62.408873 
L 113.161851 -62.211669 
L 112.489346 -61.994313 
L 111.816841 -61.752392 
L 111.144335 -61.481765 
L 110.47183 -61.178686 
L 109.799324 -60.839902 
L 109.126819 -60.462743 
L 108.454314 -60.045187 
L 107.781808 -59.585907 
L 107.109303 -59.084296 
L 106.436797 -58.540477 
L 105.764292 -57.955286 
L 105.091787 -57.33024 
L 104.419281 -56.667495 
L 103.746776 -55.969778 
L 103.07427 -55.240321 
L 102.401765 -54.482777 
L 101.72926 -53.701136 
L 101.056754 -52.899635 
L 100.384249 -52.082671 
L 99.711743 -51.254715 
L 99.039238 -50.42023 
L 98.366732 -49.583597 
L 97.694227 -48.749052 
L 97.021722 -47.920623 
L 96.349216 -47.102091 
L 95.676711 -46.296947 
L 95.004205 -45.508372 
L 94.3317 -44.739218 
L 93.659195 -43.992007 
L 92.986689 -43.268926 
L 92.314184 -42.571844 
L 91.641678 -41.902326 
L 90.969173 -41.261652 
L 90.296668 -40.650845 
L 89.624162 -40.070693 
L 88.951657 -39.521778 
L 88.279151 -39.0045 
L 87.606646 -38.519102 
L 86.934141 -38.065687 
L 86.261635 -37.644241 
L 85.58913 -37.254639 
L 84.916624 -36.896655 
L 84.244119 -36.569968 
L 83.571614 -36.274159 
L 82.899108 -36.008703 
L 82.226603 -35.772966 
L 81.554097 -35.566193 
L 80.881592 -35.387493 
L 80.209087 -35.23583 
L 79.536581 -35.110009 
L 78.864076 -35.008666 
L 78.19157 -34.930262 
L 77.519065 -34.87308 
L 76.846559 -34.835223 
L 76.174054 -34.814624 
L 75.501549 -34.809057 
L 74.829043 -34.816155 
L 74.156538 -34.833434 
L 73.484032 -34.858322 
L 72.811527 -34.888194 
L 72.139022 -34.920409 
L 71.466516 -34.952353 
L 70.794011 -34.98148 
L 70.121505 -35.005359 
L 69.449 -35.021714 
L 68.776495 -35.028464 
L 68.103989 -35.023766 
L 67.431484 -35.006042 
L 66.758978 -34.974008 
L 66.086473 -34.926694 
L 65.413968 -34.863457 
L 64.741462 -34.783988 
L 64.068957 -34.688307 
L 63.396451 -34.576753 
L 62.723946 -34.44997 
L 62.051441 -34.308877 
L 61.378935 -34.154644 
L 60.70643 -33.988653 
L 60.033924 -33.812462 
L 59.361419 -33.627762 
L 58.688914 -33.436338 
L 58.016408 -33.240022 
L 57.343903 -33.040658 
L 56.671397 -32.840058 
L 55.998892 -32.639972 
L 55.326386 -32.442052 
L 54.653881 -32.247826 
L 53.981376 -32.058679 
L 53.30887 -31.875833 
L 52.636365 -31.700337 
L 51.963859 -31.533063 
L 51.291354 -31.374701 
L 50.618849 -31.225761 
L 49.946343 -31.086587 
L 49.273838 -30.957359 
L 48.601332 -30.83811 
L 47.928827 -30.72874 
L 47.256322 -30.629034 
L 46.583816 -30.538676 
L 45.911311 -30.457268 
L 45.238805 -30.384347 
L 44.5663 -30.319401 
L 43.893795 -30.261886 
L 43.221289 -30.211235 
L 42.548784 -30.166879 
L 41.876278 -30.128248 
L 41.203773 -30.094787 
L 40.531268 -30.065961 
L 39.858762 -30.041263 
L 39.186257 -30.020214 
L 38.513751 -30.002372 
L 37.841246 -29.987327 
L 37.168741 -29.974708 
L 36.496235 -29.96418 
L 35.82373 -29.955441 
z
" style="stroke: #ee6677"/>
    </defs>
    <g clip-path="url(#p680c1cf9b5)">
     <use xlink:href="#m8f9d05492c" x="0" y="142.94952" style="fill: #ee6677; fill-opacity: 0.25; stroke: #ee6677"/>
    </g>
   </g>
   <g id="line2d_70">
    <path d="M 144.228763 113.031203 
L 144.228763 3.6 
" clip-path="url(#p680c1cf9b5)" style="fill: none; stroke-dasharray: 3.7,1.6; stroke-dashoffset: 0; stroke: #000000"/>
   </g>
   <g id="patch_3">
    <path d="M 32.685756 113.031203 
L 32.685756 3.6 
" style="fill: none; stroke: #000000; stroke-width: 0.5; stroke-linejoin: miter; stroke-linecap: square"/>
   </g>
   <g id="patch_4">
    <path d="M 181.618185 113.031203 
L 181.618185 3.6 
" style="fill: none; stroke: #000000; stroke-width: 0.5; stroke-linejoin: miter; stroke-linecap: square"/>
   </g>
   <g id="patch_5">
    <path d="M 32.685756 113.031203 
L 181.618185 113.031203 
" style="fill: none; stroke: #000000; stroke-width: 0.5; stroke-linejoin: miter; stroke-linecap: square"/>
   </g>
   <g id="patch_6">
    <path d="M 32.685756 3.6 
L 181.618185 3.6 
" style="fill: none; stroke: #000000; stroke-width: 0.5; stroke-linejoin: miter; stroke-linecap: square"/>
   </g>
   <g id="legend_1">
    <g id="patch_7">
     <path d="M 38.516756 45.093008 
L 97.686632 45.093008 
Q 99.352632 45.093008 99.352632 43.427008 
L 99.352632 9.431 
Q 99.352632 7.765 97.686632 7.765 
L 38.516756 7.765 
Q 36.850756 7.765 36.850756 9.431 
L 36.850756 43.427008 
Q 36.850756 45.093008 38.516756 45.093008 
z
" style="fill: #ffffff; stroke: #cccccc; stroke-linejoin: miter"/>
    </g>
    <g id="line2d_71">
     <path d="M 40.182756 14.0125 
L 48.512756 14.0125 
L 56.842756 14.0125 
" style="fill: none; stroke-dasharray: 3.7,1.6; stroke-dashoffset: 0; stroke: #000000"/>
    </g>
    <g id="text_10">
     <!-- $\kappa = 1.0$ -->
     <g transform="translate(63.506756 16.928) scale(0.0833 -0.0833)">
      <defs>
       <path id="CMMI12-14" d="M 1363 1600 
C 1574 1714 1811 1912 1971 2046 
C 2355 2377 2496 2479 2739 2574 
C 2714 2536 2707 2485 2707 2441 
C 2707 2268 2854 2236 2918 2236 
C 3123 2236 3238 2427 3238 2548 
C 3238 2586 3226 2752 3002 2752 
C 2618 2752 2240 2431 1958 2198 
C 1587 1876 1402 1738 1139 1656 
L 1382 2656 
C 1382 2759 1299 2816 1216 2816 
C 1158 2816 1018 2797 966 2592 
L 371 224 
C 352 148 352 134 352 96 
C 352 6 422 -64 518 -64 
C 710 -64 749 106 781 244 
C 819 380 1082 1472 1094 1472 
C 1907 1472 2182 1264 2182 943 
C 2182 897 2182 878 2163 806 
C 2138 682 2138 609 2138 570 
C 2138 178 2387 -64 2701 -64 
C 2963 -64 3110 123 3206 291 
C 3341 543 3424 898 3424 923 
C 3424 956 3398 981 3360 981 
C 3302 981 3296 956 3270 852 
C 3187 542 3046 64 2720 64 
C 2579 64 2509 148 2509 374 
C 2509 498 2534 641 2560 737 
C 2573 802 2592 880 2592 951 
C 2592 1541 1786 1600 1363 1600 
z
" transform="scale(0.015625)"/>
       <path id="CMR17-3d" d="M 4115 2017 
C 4211 2017 4307 2017 4307 2125 
C 4307 2240 4198 2240 4090 2240 
L 512 2240 
C 403 2240 294 2240 294 2125 
C 294 2017 390 2017 486 2017 
L 4115 2017 
z
M 4090 896 
C 4198 896 4307 896 4307 1011 
C 4307 1119 4211 1119 4115 1119 
L 486 1119 
C 390 1119 294 1119 294 1011 
C 294 896 403 896 512 896 
L 4090 896 
z
" transform="scale(0.015625)"/>
      </defs>
      <use xlink:href="#CMMI12-14" transform="scale(0.996264)"/>
      <use xlink:href="#CMR17-3d" transform="translate(83.828633 0) scale(0.996264)"/>
      <use xlink:href="#CMR17-31" transform="translate(183.21743 0) scale(0.996264)"/>
      <use xlink:href="#CMMI12-3a" transform="translate(228.907907 0) scale(0.996264)"/>
      <use xlink:href="#CMR17-30" transform="translate(256.005084 0) scale(0.996264)"/>
     </g>
    </g>
    <g id="patch_8">
     <path d="M 40.182756 28.537669 
L 56.842756 28.537669 
L 56.842756 22.706669 
L 40.182756 22.706669 
z
" style="fill: #4477aa; fill-opacity: 0.25; stroke: #4477aa; stroke-linejoin: miter"/>
    </g>
    <g id="text_11">
     <!-- $\kappa = 4.0$ -->
     <g transform="translate(63.506756 28.537669) scale(0.0833 -0.0833)">
      <defs>
       <path id="CMR17-34" d="M 2150 4122 
C 2150 4256 2144 4256 2029 4256 
L 128 1254 
L 128 1088 
L 1779 1088 
L 1779 457 
C 1779 224 1766 160 1318 160 
L 1197 160 
L 1197 0 
C 1402 0 1747 0 1965 0 
C 2182 0 2528 0 2733 0 
L 2733 160 
L 2611 160 
C 2163 160 2150 224 2150 457 
L 2150 1088 
L 2803 1088 
L 2803 1254 
L 2150 1254 
L 2150 4122 
z
M 1798 3703 
L 1798 1254 
L 256 1254 
L 1798 3703 
z
" transform="scale(0.015625)"/>
      </defs>
      <use xlink:href="#CMMI12-14" transform="scale(0.996264)"/>
      <use xlink:href="#CMR17-3d" transform="translate(83.828633 0) scale(0.996264)"/>
      <use xlink:href="#CMR17-34" transform="translate(183.21743 0) scale(0.996264)"/>
      <use xlink:href="#CMMI12-3a" transform="translate(228.907907 0) scale(0.996264)"/>
      <use xlink:href="#CMR17-30" transform="translate(256.005084 0) scale(0.996264)"/>
     </g>
    </g>
    <g id="patch_9">
     <path d="M 40.182756 40.147338 
L 56.842756 40.147338 
L 56.842756 34.316338 
L 40.182756 34.316338 
z
" style="fill: #ee6677; fill-opacity: 0.25; stroke: #ee6677; stroke-linejoin: miter"/>
    </g>
    <g id="text_12">
     <!-- $\kappa = 64.0$ -->
     <g transform="translate(63.506756 40.147338) scale(0.0833 -0.0833)">
      <defs>
       <path id="CMR17-36" d="M 678 2176 
C 678 3690 1395 4032 1811 4032 
C 1946 4032 2272 4009 2400 3776 
C 2298 3776 2106 3776 2106 3553 
C 2106 3381 2246 3323 2336 3323 
C 2394 3323 2566 3348 2566 3560 
C 2566 3954 2246 4179 1805 4179 
C 1043 4179 243 3390 243 1984 
C 243 253 966 -128 1478 -128 
C 2099 -128 2688 427 2688 1283 
C 2688 2081 2170 2662 1517 2662 
C 1126 2662 838 2407 678 1960 
L 678 2176 
z
M 1478 25 
C 691 25 691 1200 691 1436 
C 691 1896 909 2560 1504 2560 
C 1613 2560 1926 2560 2138 2120 
C 2253 1870 2253 1609 2253 1289 
C 2253 944 2253 690 2118 434 
C 1978 171 1773 25 1478 25 
z
" transform="scale(0.015625)"/>
      </defs>
      <use xlink:href="#CMMI12-14" transform="scale(0.996264)"/>
      <use xlink:href="#CMR17-3d" transform="translate(83.828633 0) scale(0.996264)"/>
      <use xlink:href="#CMR17-36" transform="translate(183.21743 0) scale(0.996264)"/>
      <use xlink:href="#CMR17-34" transform="translate(228.907907 0) scale(0.996264)"/>
      <use xlink:href="#CMMI12-3a" transform="translate(274.598384 0) scale(0.996264)"/>
      <use xlink:href="#CMR17-30" transform="translate(301.695561 0) scale(0.996264)"/>
     </g>
    </g>
   </g>
  </g>
 </g>
 <defs>
  <clipPath id="p680c1cf9b5">
   <rect x="32.685756" y="3.6" width="148.932429" height="109.431203"/>
  </clipPath>
 </defs>
</svg>
