<?xml version="1.0" encoding="utf-8" standalone="no"?>
<!DOCTYPE svg PUBLIC "-//W3C//DTD SVG 1.1//EN"
  "http://www.w3.org/Graphics/SVG/1.1/DTD/svg11.dtd">
<svg xmlns:xlink="http://www.w3.org/1999/xlink" width="190.19952pt" height="142.94952pt" viewBox="0 0 190.19952 142.94952" xmlns="http://www.w3.org/2000/svg" version="1.1">
 <metadata>
  <rdf:RDF xmlns:dc="http://purl.org/dc/elements/1.1/" xmlns:cc="http://creativecommons.org/ns#" xmlns:rdf="http://www.w3.org/1999/02/22-rdf-syntax-ns#">
   <cc:Work>
    <dc:type rdf:resource="http://purl.org/dc/dcmitype/StillImage"/>
    <dc:date>2026-03-13T13:33:59.969641</dc:date>
    <dc:format>image/svg+xml</dc:format>
    <dc:creator>
     <cc:Agent>
      <dc:title>Matplotlib v3.7.0, https://matplotlib.org/</dc:title>
     </cc:Agent>
    </dc:creator>
   </cc:Work>
  </rdf:RDF>
 </metadata>
 <defs>
  <style type="text/css">*{stroke-linejoin: round; stroke-linecap: butt}</style>
 </defs>
 <g id="figure_1">
  <g id="patch_1">
   <path d="M 0 142.94952 
L 190.19952 142.94952 
L 190.19952 -0 
L 0 -0 
L 0 142.94952 
z
" style="fill: none"/>
  </g>
  <g id="axes_1">
   <g id="patch_2">
    <path d="M 32.685756 113.031203 
L 184.108852 113.031203 
L 184.108852 3.6 
L 32.685756 3.6 
L 32.685756 113.031203 
z
" style="fill: none"/>
   </g>
   <g id="matplotlib.axis_1">
    <g id="xtick_1">
     <g id="line2d_1">
      <path d="M 32.685756 113.031203 
L 32.685756 3.6 
" clip-path="url(#pfecca68728)" style="fill: none; stroke-dasharray: 1.85,0.8; stroke-dashoffset: 0; stroke: #000000; stroke-opacity: 0.5; stroke-width: 0.5"/>
     </g>
     <g id="line2d_2">
      <defs>
       <path id="m98156e73c8" d="M 0 0 
L 0 -3 
" style="stroke: #000000; stroke-width: 0.5"/>
      </defs>
      <g>
       <use xlink:href="#m98156e73c8" x="32.685756" y="113.031203" style="stroke: #000000; stroke-width: 0.5"/>
      </g>
     </g>
     <g id="line2d_3">
      <defs>
       <path id="m9266f4959b" d="M 0 0 
L 0 3 
" style="stroke: #000000; stroke-width: 0.5"/>
      </defs>
      <g>
       <use xlink:href="#m9266f4959b" x="32.685756" y="3.6" style="stroke: #000000; stroke-width: 0.5"/>
      </g>
     </g>
     <g id="text_1">
      <!-- $\mathdefault{0}$ -->
      <g transform="translate(30.195088 123.449702) scale(0.1 -0.1)">
       <defs>
        <path id="CMR17-30" d="M 2688 2025 
C 2688 2416 2682 3080 2413 3591 
C 2176 4039 1798 4198 1466 4198 
C 1158 4198 768 4058 525 3597 
C 269 3118 243 2524 243 2025 
C 243 1661 250 1106 448 619 
C 723 -39 1216 -128 1466 -128 
C 1760 -128 2208 -7 2470 600 
C 2662 1042 2688 1559 2688 2025 
z
M 1466 -26 
C 1056 -26 813 325 723 812 
C 653 1188 653 1738 653 2096 
C 653 2588 653 2997 736 3387 
C 858 3929 1216 4096 1466 4096 
C 1728 4096 2067 3923 2189 3400 
C 2272 3036 2278 2607 2278 2096 
C 2278 1680 2278 1169 2202 792 
C 2067 95 1690 -26 1466 -26 
z
" transform="scale(0.015625)"/>
       </defs>
       <use xlink:href="#CMR17-30" transform="scale(0.996264)"/>
      </g>
     </g>
    </g>
    <g id="xtick_2">
     <g id="line2d_4">
      <path d="M 83.160121 113.031203 
L 83.160121 3.6 
" clip-path="url(#pfecca68728)" style="fill: none; stroke-dasharray: 1.85,0.8; stroke-dashoffset: 0; stroke: #000000; stroke-opacity: 0.5; stroke-width: 0.5"/>
     </g>
     <g id="line2d_5">
      <g>
       <use xlink:href="#m98156e73c8" x="83.160121" y="113.031203" style="stroke: #000000; stroke-width: 0.5"/>
      </g>
     </g>
     <g id="line2d_6">
      <g>
       <use xlink:href="#m9266f4959b" x="83.160121" y="3.6" style="stroke: #000000; stroke-width: 0.5"/>
      </g>
     </g>
     <g id="text_2">
      <!-- $\mathdefault{2}$ -->
      <g transform="translate(80.669454 123.449702) scale(0.1 -0.1)">
       <defs>
        <path id="CMR17-32" d="M 2669 989 
L 2554 989 
C 2490 536 2438 459 2413 420 
C 2381 369 1920 369 1830 369 
L 602 369 
C 832 619 1280 1072 1824 1597 
C 2214 1967 2669 2402 2669 3035 
C 2669 3790 2067 4224 1395 4224 
C 691 4224 262 3604 262 3030 
C 262 2780 448 2748 525 2748 
C 589 2748 781 2787 781 3010 
C 781 3207 614 3264 525 3264 
C 486 3264 448 3258 422 3245 
C 544 3790 915 4058 1306 4058 
C 1862 4058 2227 3617 2227 3035 
C 2227 2479 1901 2000 1536 1584 
L 262 146 
L 262 0 
L 2515 0 
L 2669 989 
z
" transform="scale(0.015625)"/>
       </defs>
       <use xlink:href="#CMR17-32" transform="scale(0.996264)"/>
      </g>
     </g>
    </g>
    <g id="xtick_3">
     <g id="line2d_7">
      <path d="M 133.634487 113.031203 
L 133.634487 3.6 
" clip-path="url(#pfecca68728)" style="fill: none; stroke-dasharray: 1.85,0.8; stroke-dashoffset: 0; stroke: #000000; stroke-opacity: 0.5; stroke-width: 0.5"/>
     </g>
     <g id="line2d_8">
      <g>
       <use xlink:href="#m98156e73c8" x="133.634487" y="113.031203" style="stroke: #000000; stroke-width: 0.5"/>
      </g>
     </g>
     <g id="line2d_9">
      <g>
       <use xlink:href="#m9266f4959b" x="133.634487" y="3.6" style="stroke: #000000; stroke-width: 0.5"/>
      </g>
     </g>
     <g id="text_3">
      <!-- $\mathdefault{4}$ -->
      <g transform="translate(131.143819 123.449702) scale(0.1 -0.1)">
       <defs>
        <path id="CMR17-34" d="M 2150 4122 
C 2150 4256 2144 4256 2029 4256 
L 128 1254 
L 128 1088 
L 1779 1088 
L 1779 457 
C 1779 224 1766 160 1318 160 
L 1197 160 
L 1197 0 
C 1402 0 1747 0 1965 0 
C 2182 0 2528 0 2733 0 
L 2733 160 
L 2611 160 
C 2163 160 2150 224 2150 457 
L 2150 1088 
L 2803 1088 
L 2803 1254 
L 2150 1254 
L 2150 4122 
z
M 1798 3703 
L 1798 1254 
L 256 1254 
L 1798 3703 
z
" transform="scale(0.015625)"/>
       </defs>
       <use xlink:href="#CMR17-34" transform="scale(0.996264)"/>
      </g>
     </g>
    </g>
    <g id="xtick_4">
     <g id="line2d_10">
      <path d="M 184.108852 113.031203 
L 184.108852 3.6 
" clip-path="url(#pfecca68728)" style="fill: none; stroke-dasharray: 1.85,0.8; stroke-dashoffset: 0; stroke: #000000; stroke-opacity: 0.5; stroke-width: 0.5"/>
     </g>
     <g id="line2d_11">
      <g>
       <use xlink:href="#m98156e73c8" x="184.108852" y="113.031203" style="stroke: #000000; stroke-width: 0.5"/>
      </g>
     </g>
     <g id="line2d_12">
      <g>
       <use xlink:href="#m9266f4959b" x="184.108852" y="3.6" style="stroke: #000000; stroke-width: 0.5"/>
      </g>
     </g>
     <g id="text_4">
      <!-- $\mathdefault{6}$ -->
      <g transform="translate(181.618185 123.449702) scale(0.1 -0.1)">
       <defs>
        <path id="CMR17-36" d="M 678 2176 
C 678 3690 1395 4032 1811 4032 
C 1946 4032 2272 4009 2400 3776 
C 2298 3776 2106 3776 2106 3553 
C 2106 3381 2246 3323 2336 3323 
C 2394 3323 2566 3348 2566 3560 
C 2566 3954 2246 4179 1805 4179 
C 1043 4179 243 3390 243 1984 
C 243 253 966 -128 1478 -128 
C 2099 -128 2688 427 2688 1283 
C 2688 2081 2170 2662 1517 2662 
C 1126 2662 838 2407 678 1960 
L 678 2176 
z
M 1478 25 
C 691 25 691 1200 691 1436 
C 691 1896 909 2560 1504 2560 
C 1613 2560 1926 2560 2138 2120 
C 2253 1870 2253 1609 2253 1289 
C 2253 944 2253 690 2118 434 
C 1978 171 1773 25 1478 25 
z
" transform="scale(0.015625)"/>
       </defs>
       <use xlink:href="#CMR17-36" transform="scale(0.996264)"/>
      </g>
     </g>
    </g>
    <g id="xtick_5">
     <g id="line2d_13">
      <defs>
       <path id="m4b7f996a63" d="M 0 0 
L 0 -1.5 
" style="stroke: #000000; stroke-width: 0.5"/>
      </defs>
      <g>
       <use xlink:href="#m4b7f996a63" x="45.304347" y="113.031203" style="stroke: #000000; stroke-width: 0.5"/>
      </g>
     </g>
     <g id="line2d_14">
      <defs>
       <path id="mc8e05ae7d0" d="M 0 0 
L 0 1.5 
" style="stroke: #000000; stroke-width: 0.5"/>
      </defs>
      <g>
       <use xlink:href="#mc8e05ae7d0" x="45.304347" y="3.6" style="stroke: #000000; stroke-width: 0.5"/>
      </g>
     </g>
    </g>
    <g id="xtick_6">
     <g id="line2d_15">
      <g>
       <use xlink:href="#m4b7f996a63" x="57.922938" y="113.031203" style="stroke: #000000; stroke-width: 0.5"/>
      </g>
     </g>
     <g id="line2d_16">
      <g>
       <use xlink:href="#mc8e05ae7d0" x="57.922938" y="3.6" style="stroke: #000000; stroke-width: 0.5"/>
      </g>
     </g>
    </g>
    <g id="xtick_7">
     <g id="line2d_17">
      <g>
       <use xlink:href="#m4b7f996a63" x="70.54153" y="113.031203" style="stroke: #000000; stroke-width: 0.5"/>
      </g>
     </g>
     <g id="line2d_18">
      <g>
       <use xlink:href="#mc8e05ae7d0" x="70.54153" y="3.6" style="stroke: #000000; stroke-width: 0.5"/>
      </g>
     </g>
    </g>
    <g id="xtick_8">
     <g id="line2d_19">
      <g>
       <use xlink:href="#m4b7f996a63" x="95.778713" y="113.031203" style="stroke: #000000; stroke-width: 0.5"/>
      </g>
     </g>
     <g id="line2d_20">
      <g>
       <use xlink:href="#mc8e05ae7d0" x="95.778713" y="3.6" style="stroke: #000000; stroke-width: 0.5"/>
      </g>
     </g>
    </g>
    <g id="xtick_9">
     <g id="line2d_21">
      <g>
       <use xlink:href="#m4b7f996a63" x="108.397304" y="113.031203" style="stroke: #000000; stroke-width: 0.5"/>
      </g>
     </g>
     <g id="line2d_22">
      <g>
       <use xlink:href="#mc8e05ae7d0" x="108.397304" y="3.6" style="stroke: #000000; stroke-width: 0.5"/>
      </g>
     </g>
    </g>
    <g id="xtick_10">
     <g id="line2d_23">
      <g>
       <use xlink:href="#m4b7f996a63" x="121.015895" y="113.031203" style="stroke: #000000; stroke-width: 0.5"/>
      </g>
     </g>
     <g id="line2d_24">
      <g>
       <use xlink:href="#mc8e05ae7d0" x="121.015895" y="3.6" style="stroke: #000000; stroke-width: 0.5"/>
      </g>
     </g>
    </g>
    <g id="xtick_11">
     <g id="line2d_25">
      <g>
       <use xlink:href="#m4b7f996a63" x="146.253078" y="113.031203" style="stroke: #000000; stroke-width: 0.5"/>
      </g>
     </g>
     <g id="line2d_26">
      <g>
       <use xlink:href="#mc8e05ae7d0" x="146.253078" y="3.6" style="stroke: #000000; stroke-width: 0.5"/>
      </g>
     </g>
    </g>
    <g id="xtick_12">
     <g id="line2d_27">
      <g>
       <use xlink:href="#m4b7f996a63" x="158.87167" y="113.031203" style="stroke: #000000; stroke-width: 0.5"/>
      </g>
     </g>
     <g id="line2d_28">
      <g>
       <use xlink:href="#mc8e05ae7d0" x="158.87167" y="3.6" style="stroke: #000000; stroke-width: 0.5"/>
      </g>
     </g>
    </g>
    <g id="xtick_13">
     <g id="line2d_29">
      <g>
       <use xlink:href="#m4b7f996a63" x="171.490261" y="113.031203" style="stroke: #000000; stroke-width: 0.5"/>
      </g>
     </g>
     <g id="line2d_30">
      <g>
       <use xlink:href="#mc8e05ae7d0" x="171.490261" y="3.6" style="stroke: #000000; stroke-width: 0.5"/>
      </g>
     </g>
    </g>
    <g id="text_5">
     <!-- $I~[\mathrm{pA}]$ -->
     <g transform="translate(94.885458 136.85886) scale(0.1 -0.1)">
      <defs>
       <path id="CMMI12-49" d="M 2355 3880 
C 2413 4103 2426 4167 2893 4167 
C 3034 4167 3085 4167 3085 4288 
C 3085 4352 3014 4352 2995 4352 
C 2880 4352 2739 4352 2624 4352 
L 1837 4352 
C 1709 4352 1562 4352 1434 4352 
C 1382 4352 1312 4352 1312 4231 
C 1312 4167 1363 4167 1491 4167 
C 1888 4167 1888 4116 1888 4046 
C 1888 4002 1875 3963 1862 3906 
L 998 472 
C 941 249 928 185 461 185 
C 320 185 262 185 262 64 
C 262 0 326 0 358 0 
C 474 0 614 0 730 0 
L 1517 0 
C 1645 0 1786 0 1914 0 
C 1965 0 2042 0 2042 115 
C 2042 185 2003 185 1862 185 
C 1466 185 1466 236 1466 312 
C 1466 325 1466 357 1491 459 
L 2355 3880 
z
" transform="scale(0.015625)"/>
       <path id="CMR17-5b" d="M 1504 -1600 
L 1504 -1377 
L 902 -1377 
L 902 4544 
L 1504 4544 
L 1504 4767 
L 678 4767 
L 678 -1600 
L 1504 -1600 
z
" transform="scale(0.015625)"/>
       <path id="CMR17-70" d="M 1408 -1063 
C 998 -1063 973 -1037 973 -789 
L 973 402 
C 1158 134 1427 -38 1766 -38 
C 2406 -38 3053 523 3053 1388 
C 3053 2191 2496 2802 1837 2802 
C 1453 2802 1139 2592 960 2338 
L 960 2802 
L 198 2732 
L 198 2567 
C 576 2567 634 2528 634 2223 
L 634 -789 
C 634 -1031 608 -1063 198 -1063 
L 198 -1228 
C 352 -1216 634 -1216 800 -1216 
C 966 -1216 1254 -1216 1408 -1228 
L 1408 -1063 
z
M 973 2012 
C 973 2102 973 2235 1222 2471 
C 1254 2497 1472 2688 1792 2688 
C 2259 2688 2643 2108 2643 1382 
C 2643 656 2234 64 1728 64 
C 1498 64 1248 172 1056 472 
C 973 612 973 650 973 752 
L 973 2012 
z
" transform="scale(0.015625)"/>
       <path id="CMR17-41" d="M 2323 4378 
C 2291 4461 2278 4480 2214 4480 
C 2150 4480 2138 4461 2106 4378 
L 749 566 
C 627 223 371 153 147 153 
L 147 -13 
C 262 0 518 0 640 0 
C 800 0 1056 0 1210 -13 
L 1210 153 
C 909 153 864 361 864 439 
C 864 497 877 530 890 569 
L 1229 1536 
L 2906 1536 
L 3290 442 
C 3322 365 3322 352 3322 327 
C 3322 153 3046 153 2925 153 
L 2925 0 
C 3110 0 3443 0 3642 0 
C 3808 0 4128 0 4282 -13 
L 4282 153 
C 3942 153 3827 153 3744 387 
L 2323 4378 
z
M 2067 3893 
L 2848 1702 
L 1286 1702 
L 2067 3893 
z
" transform="scale(0.015625)"/>
       <path id="CMR17-5d" d="M 915 4767 
L 90 4767 
L 90 4544 
L 691 4544 
L 691 -1377 
L 90 -1377 
L 90 -1600 
L 915 -1600 
L 915 4767 
z
" transform="scale(0.015625)"/>
      </defs>
      <use xlink:href="#CMMI12-49" transform="scale(0.996264)"/>
      <use xlink:href="#CMR17-5b" transform="translate(80.93248 0) scale(0.996264)"/>
      <use xlink:href="#CMR17-70" transform="translate(105.803539 0) scale(0.996264)"/>
      <use xlink:href="#CMR17-41" transform="translate(156.698909 0) scale(0.996264)"/>
      <use xlink:href="#CMR17-5d" transform="translate(225.771338 0) scale(0.996264)"/>
     </g>
    </g>
   </g>
   <g id="matplotlib.axis_2">
    <g id="ytick_1">
     <g id="line2d_31">
      <path d="M 32.685756 113.031203 
L 184.108852 113.031203 
" clip-path="url(#pfecca68728)" style="fill: none; stroke-dasharray: 1.85,0.8; stroke-dashoffset: 0; stroke: #000000; stroke-opacity: 0.5; stroke-width: 0.5"/>
     </g>
     <g id="line2d_32">
      <defs>
       <path id="mcc81750ffc" d="M 0 0 
L 3 0 
" style="stroke: #000000; stroke-width: 0.5"/>
      </defs>
      <g>
       <use xlink:href="#mcc81750ffc" x="32.685756" y="113.031203" style="stroke: #000000; stroke-width: 0.5"/>
      </g>
     </g>
     <g id="line2d_33">
      <defs>
       <path id="mfc73035fbd" d="M 0 0 
L -3 0 
" style="stroke: #000000; stroke-width: 0.5"/>
      </defs>
      <g>
       <use xlink:href="#mfc73035fbd" x="184.108852" y="113.031203" style="stroke: #000000; stroke-width: 0.5"/>
      </g>
     </g>
     <g id="text_6">
      <!-- $\mathdefault{0.0}$ -->
      <g transform="translate(16.455677 116.490452) scale(0.1 -0.1)">
       <defs>
        <path id="CMMI12-3a" d="M 1178 307 
C 1178 492 1024 619 870 619 
C 685 619 557 466 557 313 
C 557 128 710 0 864 0 
C 1050 0 1178 153 1178 307 
z
" transform="scale(0.015625)"/>
       </defs>
       <use xlink:href="#CMR17-30" transform="scale(0.996264)"/>
       <use xlink:href="#CMMI12-3a" transform="translate(45.690477 0) scale(0.996264)"/>
       <use xlink:href="#CMR17-30" transform="translate(72.787654 0) scale(0.996264)"/>
      </g>
     </g>
    </g>
    <g id="ytick_2">
     <g id="line2d_34">
      <path d="M 32.685756 79.466531 
L 184.108852 79.466531 
" clip-path="url(#pfecca68728)" style="fill: none; stroke-dasharray: 1.85,0.8; stroke-dashoffset: 0; stroke: #000000; stroke-opacity: 0.5; stroke-width: 0.5"/>
     </g>
     <g id="line2d_35">
      <g>
       <use xlink:href="#mcc81750ffc" x="32.685756" y="79.466531" style="stroke: #000000; stroke-width: 0.5"/>
      </g>
     </g>
     <g id="line2d_36">
      <g>
       <use xlink:href="#mfc73035fbd" x="184.108852" y="79.466531" style="stroke: #000000; stroke-width: 0.5"/>
      </g>
     </g>
     <g id="text_7">
      <!-- $\mathdefault{0.2}$ -->
      <g transform="translate(16.455677 82.92578) scale(0.1 -0.1)">
       <use xlink:href="#CMR17-30" transform="scale(0.996264)"/>
       <use xlink:href="#CMMI12-3a" transform="translate(45.690477 0) scale(0.996264)"/>
       <use xlink:href="#CMR17-32" transform="translate(72.787654 0) scale(0.996264)"/>
      </g>
     </g>
    </g>
    <g id="ytick_3">
     <g id="line2d_37">
      <path d="M 32.685756 45.901858 
L 184.108852 45.901858 
" clip-path="url(#pfecca68728)" style="fill: none; stroke-dasharray: 1.85,0.8; stroke-dashoffset: 0; stroke: #000000; stroke-opacity: 0.5; stroke-width: 0.5"/>
     </g>
     <g id="line2d_38">
      <g>
       <use xlink:href="#mcc81750ffc" x="32.685756" y="45.901858" style="stroke: #000000; stroke-width: 0.5"/>
      </g>
     </g>
     <g id="line2d_39">
      <g>
       <use xlink:href="#mfc73035fbd" x="184.108852" y="45.901858" style="stroke: #000000; stroke-width: 0.5"/>
      </g>
     </g>
     <g id="text_8">
      <!-- $\mathdefault{0.4}$ -->
      <g transform="translate(16.455677 49.361108) scale(0.1 -0.1)">
       <use xlink:href="#CMR17-30" transform="scale(0.996264)"/>
       <use xlink:href="#CMMI12-3a" transform="translate(45.690477 0) scale(0.996264)"/>
       <use xlink:href="#CMR17-34" transform="translate(72.787654 0) scale(0.996264)"/>
      </g>
     </g>
    </g>
    <g id="ytick_4">
     <g id="line2d_40">
      <path d="M 32.685756 12.337186 
L 184.108852 12.337186 
" clip-path="url(#pfecca68728)" style="fill: none; stroke-dasharray: 1.85,0.8; stroke-dashoffset: 0; stroke: #000000; stroke-opacity: 0.5; stroke-width: 0.5"/>
     </g>
     <g id="line2d_41">
      <g>
       <use xlink:href="#mcc81750ffc" x="32.685756" y="12.337186" style="stroke: #000000; stroke-width: 0.5"/>
      </g>
     </g>
     <g id="line2d_42">
      <g>
       <use xlink:href="#mfc73035fbd" x="184.108852" y="12.337186" style="stroke: #000000; stroke-width: 0.5"/>
      </g>
     </g>
     <g id="text_9">
      <!-- $\mathdefault{0.6}$ -->
      <g transform="translate(16.455677 15.796435) scale(0.1 -0.1)">
       <use xlink:href="#CMR17-30" transform="scale(0.996264)"/>
       <use xlink:href="#CMMI12-3a" transform="translate(45.690477 0) scale(0.996264)"/>
       <use xlink:href="#CMR17-36" transform="translate(72.787654 0) scale(0.996264)"/>
      </g>
     </g>
    </g>
    <g id="ytick_5">
     <g id="line2d_43">
      <defs>
       <path id="m03222d650e" d="M 0 0 
L 1.5 0 
" style="stroke: #000000; stroke-width: 0.5"/>
      </defs>
      <g>
       <use xlink:href="#m03222d650e" x="32.685756" y="104.640035" style="stroke: #000000; stroke-width: 0.5"/>
      </g>
     </g>
     <g id="line2d_44">
      <defs>
       <path id="m0bc5f47122" d="M 0 0 
L -1.5 0 
" style="stroke: #000000; stroke-width: 0.5"/>
      </defs>
      <g>
       <use xlink:href="#m0bc5f47122" x="184.108852" y="104.640035" style="stroke: #000000; stroke-width: 0.5"/>
      </g>
     </g>
    </g>
    <g id="ytick_6">
     <g id="line2d_45">
      <g>
       <use xlink:href="#m03222d650e" x="32.685756" y="96.248867" style="stroke: #000000; stroke-width: 0.5"/>
      </g>
     </g>
     <g id="line2d_46">
      <g>
       <use xlink:href="#m0bc5f47122" x="184.108852" y="96.248867" style="stroke: #000000; stroke-width: 0.5"/>
      </g>
     </g>
    </g>
    <g id="ytick_7">
     <g id="line2d_47">
      <g>
       <use xlink:href="#m03222d650e" x="32.685756" y="87.857699" style="stroke: #000000; stroke-width: 0.5"/>
      </g>
     </g>
     <g id="line2d_48">
      <g>
       <use xlink:href="#m0bc5f47122" x="184.108852" y="87.857699" style="stroke: #000000; stroke-width: 0.5"/>
      </g>
     </g>
    </g>
    <g id="ytick_8">
     <g id="line2d_49">
      <g>
       <use xlink:href="#m03222d650e" x="32.685756" y="71.075363" style="stroke: #000000; stroke-width: 0.5"/>
      </g>
     </g>
     <g id="line2d_50">
      <g>
       <use xlink:href="#m0bc5f47122" x="184.108852" y="71.075363" style="stroke: #000000; stroke-width: 0.5"/>
      </g>
     </g>
    </g>
    <g id="ytick_9">
     <g id="line2d_51">
      <g>
       <use xlink:href="#m03222d650e" x="32.685756" y="62.684195" style="stroke: #000000; stroke-width: 0.5"/>
      </g>
     </g>
     <g id="line2d_52">
      <g>
       <use xlink:href="#m0bc5f47122" x="184.108852" y="62.684195" style="stroke: #000000; stroke-width: 0.5"/>
      </g>
     </g>
    </g>
    <g id="ytick_10">
     <g id="line2d_53">
      <g>
       <use xlink:href="#m03222d650e" x="32.685756" y="54.293026" style="stroke: #000000; stroke-width: 0.5"/>
      </g>
     </g>
     <g id="line2d_54">
      <g>
       <use xlink:href="#m0bc5f47122" x="184.108852" y="54.293026" style="stroke: #000000; stroke-width: 0.5"/>
      </g>
     </g>
    </g>
    <g id="ytick_11">
     <g id="line2d_55">
      <g>
       <use xlink:href="#m03222d650e" x="32.685756" y="37.51069" style="stroke: #000000; stroke-width: 0.5"/>
      </g>
     </g>
     <g id="line2d_56">
      <g>
       <use xlink:href="#m0bc5f47122" x="184.108852" y="37.51069" style="stroke: #000000; stroke-width: 0.5"/>
      </g>
     </g>
    </g>
    <g id="ytick_12">
     <g id="line2d_57">
      <g>
       <use xlink:href="#m03222d650e" x="32.685756" y="29.119522" style="stroke: #000000; stroke-width: 0.5"/>
      </g>
     </g>
     <g id="line2d_58">
      <g>
       <use xlink:href="#m0bc5f47122" x="184.108852" y="29.119522" style="stroke: #000000; stroke-width: 0.5"/>
      </g>
     </g>
    </g>
    <g id="ytick_13">
     <g id="line2d_59">
      <g>
       <use xlink:href="#m03222d650e" x="32.685756" y="20.728354" style="stroke: #000000; stroke-width: 0.5"/>
      </g>
     </g>
     <g id="line2d_60">
      <g>
       <use xlink:href="#m0bc5f47122" x="184.108852" y="20.728354" style="stroke: #000000; stroke-width: 0.5"/>
      </g>
     </g>
    </g>
    <g id="ytick_14">
     <g id="line2d_61">
      <g>
       <use xlink:href="#m03222d650e" x="32.685756" y="3.946018" style="stroke: #000000; stroke-width: 0.5"/>
      </g>
     </g>
     <g id="line2d_62">
      <g>
       <use xlink:href="#m0bc5f47122" x="184.108852" y="3.946018" style="stroke: #000000; stroke-width: 0.5"/>
      </g>
     </g>
    </g>
    <g id="text_10">
     <!-- Density -->
     <g transform="translate(10.518498 74.878521) rotate(-90) scale(0.1 -0.1)">
      <defs>
       <path id="CMR17-44" d="M 333 4352 
L 333 4186 
C 774 4186 845 4186 845 3900 
L 845 452 
C 845 166 774 166 333 166 
L 333 0 
L 2368 0 
C 3398 0 4224 943 4224 2141 
C 4224 3346 3411 4352 2368 4352 
L 333 4352 
z
M 1523 166 
C 1267 166 1254 197 1254 414 
L 1254 3938 
C 1254 4155 1267 4186 1523 4186 
L 2240 4186 
C 2771 4186 3750 3874 3750 2141 
C 3750 1242 3488 879 3366 707 
C 3213 510 2848 166 2240 166 
L 1523 166 
z
" transform="scale(0.015625)"/>
       <path id="CMR17-65" d="M 2438 1472 
C 2464 1498 2464 1511 2464 1576 
C 2464 2238 2118 2816 1389 2816 
C 710 2816 173 2169 173 1383 
C 173 551 781 -64 1459 -64 
C 2176 -64 2458 607 2458 740 
C 2458 784 2419 784 2406 784 
C 2362 784 2355 771 2330 696 
C 2189 265 1837 51 1504 51 
C 1229 51 954 203 781 480 
C 582 803 582 1176 582 1472 
L 2438 1472 
z
M 589 1568 
C 634 2505 1126 2714 1382 2714 
C 1818 2714 2112 2297 2118 1568 
L 589 1568 
z
" transform="scale(0.015625)"/>
       <path id="CMR17-6e" d="M 2656 1933 
C 2656 2259 2592 2790 1837 2790 
C 1331 2790 1069 2400 973 2144 
L 966 2144 
L 966 2790 
L 211 2720 
L 211 2554 
C 589 2554 646 2515 646 2208 
L 646 428 
C 646 184 621 153 211 153 
L 211 -13 
C 365 0 646 0 813 0 
C 979 0 1267 0 1421 -13 
L 1421 153 
C 1011 153 986 178 986 428 
L 986 1658 
C 986 2247 1344 2688 1792 2688 
C 2266 2688 2317 2266 2317 1958 
L 2317 428 
C 2317 184 2291 153 1882 153 
L 1882 -13 
C 2035 0 2317 0 2483 0 
C 2650 0 2938 0 3091 -13 
L 3091 153 
C 2682 153 2656 178 2656 428 
L 2656 1933 
z
" transform="scale(0.015625)"/>
       <path id="CMR17-73" d="M 1978 2697 
C 1978 2813 1971 2819 1933 2819 
C 1907 2819 1901 2813 1824 2717 
C 1805 2691 1747 2626 1728 2601 
C 1523 2819 1235 2819 1126 2819 
C 416 2819 160 2447 160 2076 
C 160 1498 813 1365 998 1325 
C 1402 1243 1542 1217 1677 1101 
C 1760 1025 1901 884 1901 654 
C 1901 384 1747 38 1158 38 
C 602 38 403 460 288 1021 
C 269 1110 269 1117 218 1117 
C 166 1117 160 1110 160 983 
L 160 63 
C 160 -51 166 -58 205 -58 
C 237 -58 243 -51 275 0 
C 314 57 410 211 448 276 
C 576 103 800 -64 1158 -64 
C 1792 -64 2131 283 2131 784 
C 2131 1112 1958 1285 1875 1362 
C 1683 1561 1459 1606 1190 1657 
C 838 1735 390 1825 390 2217 
C 390 2383 480 2737 1126 2737 
C 1811 2737 1850 2094 1862 1888 
C 1869 1856 1901 1849 1920 1849 
C 1978 1849 1978 1869 1978 1978 
L 1978 2697 
z
" transform="scale(0.015625)"/>
       <path id="CMR17-69" d="M 992 3909 
C 992 4049 877 4170 730 4170 
C 589 4170 467 4056 467 3909 
C 467 3769 582 3648 730 3648 
C 870 3648 992 3763 992 3909 
z
M 243 2706 
L 243 2541 
C 602 2541 653 2502 653 2197 
L 653 427 
C 653 184 627 153 218 153 
L 218 -13 
C 371 0 646 0 806 0 
C 960 0 1222 0 1370 -13 
L 1370 153 
C 992 153 979 191 979 420 
L 979 2776 
L 243 2706 
z
" transform="scale(0.015625)"/>
       <path id="CMR17-74" d="M 966 2560 
L 1862 2560 
L 1862 2725 
L 966 2725 
L 966 3904 
L 851 3904 
C 838 3245 614 2668 70 2668 
L 70 2560 
L 627 2560 
L 627 771 
C 627 650 627 -64 1370 -64 
C 1747 -64 1965 306 1965 777 
L 1965 1140 
L 1850 1140 
L 1850 783 
C 1850 344 1677 51 1408 51 
C 1222 51 966 178 966 758 
L 966 2560 
z
" transform="scale(0.015625)"/>
       <path id="CMR17-79" d="M 2496 2197 
C 2656 2586 2944 2586 3034 2586 
L 3034 2752 
C 2912 2752 2752 2752 2630 2752 
C 2496 2752 2285 2752 2157 2758 
L 2157 2592 
C 2400 2573 2406 2394 2406 2343 
C 2406 2280 2394 2248 2362 2171 
L 1664 449 
L 902 2306 
C 870 2382 870 2426 870 2433 
C 870 2573 1018 2586 1171 2586 
L 1171 2758 
C 1018 2752 742 2752 582 2752 
C 410 2752 205 2752 64 2758 
L 64 2586 
C 410 2586 448 2554 531 2350 
L 1485 15 
C 1197 -738 1030 -1178 627 -1178 
C 557 -1178 397 -1159 282 -1044 
C 429 -1031 493 -942 493 -833 
C 493 -725 416 -629 288 -629 
C 147 -629 77 -725 77 -840 
C 77 -1095 339 -1280 627 -1280 
C 998 -1280 1229 -922 1357 -604 
L 2496 2197 
z
" transform="scale(0.015625)"/>
      </defs>
      <use xlink:href="#CMR17-44" transform="scale(0.996264)"/>
      <use xlink:href="#CMR17-65" transform="translate(70.393556 0) scale(0.996264)"/>
      <use xlink:href="#CMR17-6e" transform="translate(110.879216 0) scale(0.996264)"/>
      <use xlink:href="#CMR17-73" transform="translate(161.774586 0) scale(0.996264)"/>
      <use xlink:href="#CMR17-69" transform="translate(197.575924 0) scale(0.996264)"/>
      <use xlink:href="#CMR17-74" transform="translate(222.446982 0) scale(0.996264)"/>
      <use xlink:href="#CMR17-79" transform="translate(255.125296 0) scale(0.996264)"/>
     </g>
    </g>
   </g>
   <g id="PolyCollection_1">
    <defs>
     <path id="m10fb865e5a" d="M 54.118628 -29.99517 
L 54.118628 -29.918317 
L 54.745525 -29.918317 
L 55.372422 -29.918317 
L 55.999318 -29.918317 
L 56.626215 -29.918317 
L 57.253111 -29.918317 
L 57.880008 -29.918317 
L 58.506904 -29.918317 
L 59.133801 -29.918317 
L 59.760698 -29.918317 
L 60.387594 -29.918317 
L 61.014491 -29.918317 
L 61.641387 -29.918317 
L 62.268284 -29.918317 
L 62.89518 -29.918317 
L 63.522077 -29.918317 
L 64.148974 -29.918317 
L 64.77587 -29.918317 
L 65.402767 -29.918317 
L 66.029663 -29.918317 
L 66.65656 -29.918317 
L 67.283456 -29.918317 
L 67.910353 -29.918317 
L 68.537249 -29.918317 
L 69.164146 -29.918317 
L 69.791043 -29.918317 
L 70.417939 -29.918317 
L 71.044836 -29.918317 
L 71.671732 -29.918317 
L 72.298629 -29.918317 
L 72.925525 -29.918317 
L 73.552422 -29.918317 
L 74.179319 -29.918317 
L 74.806215 -29.918317 
L 75.433112 -29.918317 
L 76.060008 -29.918317 
L 76.686905 -29.918317 
L 77.313801 -29.918317 
L 77.940698 -29.918317 
L 78.567595 -29.918317 
L 79.194491 -29.918317 
L 79.821388 -29.918317 
L 80.448284 -29.918317 
L 81.075181 -29.918317 
L 81.702077 -29.918317 
L 82.328974 -29.918317 
L 82.95587 -29.918317 
L 83.582767 -29.918317 
L 84.209664 -29.918317 
L 84.83656 -29.918317 
L 85.463457 -29.918317 
L 86.090353 -29.918317 
L 86.71725 -29.918317 
L 87.344146 -29.918317 
L 87.971043 -29.918317 
L 88.59794 -29.918317 
L 89.224836 -29.918317 
L 89.851733 -29.918317 
L 90.478629 -29.918317 
L 91.105526 -29.918317 
L 91.732422 -29.918317 
L 92.359319 -29.918317 
L 92.986216 -29.918317 
L 93.613112 -29.918317 
L 94.240009 -29.918317 
L 94.866905 -29.918317 
L 95.493802 -29.918317 
L 96.120698 -29.918317 
L 96.747595 -29.918317 
L 97.374491 -29.918317 
L 98.001388 -29.918317 
L 98.628285 -29.918317 
L 99.255181 -29.918317 
L 99.882078 -29.918317 
L 100.508974 -29.918317 
L 101.135871 -29.918317 
L 101.762767 -29.918317 
L 102.389664 -29.918317 
L 103.016561 -29.918317 
L 103.643457 -29.918317 
L 104.270354 -29.918317 
L 104.89725 -29.918317 
L 105.524147 -29.918317 
L 106.151043 -29.918317 
L 106.77794 -29.918317 
L 107.404836 -29.918317 
L 108.031733 -29.918317 
L 108.65863 -29.918317 
L 109.285526 -29.918317 
L 109.912423 -29.918317 
L 110.539319 -29.918317 
L 111.166216 -29.918317 
L 111.793112 -29.918317 
L 112.420009 -29.918317 
L 113.046906 -29.918317 
L 113.673802 -29.918317 
L 114.300699 -29.918317 
L 114.927595 -29.918317 
L 115.554492 -29.918317 
L 116.181388 -29.918317 
L 116.808285 -29.918317 
L 117.435182 -29.918317 
L 118.062078 -29.918317 
L 118.688975 -29.918317 
L 119.315871 -29.918317 
L 119.942768 -29.918317 
L 120.569664 -29.918317 
L 121.196561 -29.918317 
L 121.823457 -29.918317 
L 122.450354 -29.918317 
L 123.077251 -29.918317 
L 123.704147 -29.918317 
L 124.331044 -29.918317 
L 124.95794 -29.918317 
L 125.584837 -29.918317 
L 126.211733 -29.918317 
L 126.83863 -29.918317 
L 127.465527 -29.918317 
L 128.092423 -29.918317 
L 128.71932 -29.918317 
L 129.346216 -29.918317 
L 129.973113 -29.918317 
L 130.600009 -29.918317 
L 131.226906 -29.918317 
L 131.853803 -29.918317 
L 132.480699 -29.918317 
L 133.107596 -29.918317 
L 133.734492 -29.918317 
L 134.361389 -29.918317 
L 134.988285 -29.918317 
L 135.615182 -29.918317 
L 136.242078 -29.918317 
L 136.868975 -29.918317 
L 137.495872 -29.918317 
L 138.122768 -29.918317 
L 138.749665 -29.918317 
L 139.376561 -29.918317 
L 140.003458 -29.918317 
L 140.630354 -29.918317 
L 141.257251 -29.918317 
L 141.884148 -29.918317 
L 142.511044 -29.918317 
L 143.137941 -29.918317 
L 143.764837 -29.918317 
L 144.391734 -29.918317 
L 145.01863 -29.918317 
L 145.645527 -29.918317 
L 146.272423 -29.918317 
L 146.89932 -29.918317 
L 147.526217 -29.918317 
L 148.153113 -29.918317 
L 148.78001 -29.918317 
L 149.406906 -29.918317 
L 150.033803 -29.918317 
L 150.660699 -29.918317 
L 151.287596 -29.918317 
L 151.914493 -29.918317 
L 152.541389 -29.918317 
L 153.168286 -29.918317 
L 153.795182 -29.918317 
L 154.422079 -29.918317 
L 155.048975 -29.918317 
L 155.675872 -29.918317 
L 156.302769 -29.918317 
L 156.929665 -29.918317 
L 157.556562 -29.918317 
L 158.183458 -29.918317 
L 158.810355 -29.918317 
L 159.437251 -29.918317 
L 160.064148 -29.918317 
L 160.691044 -29.918317 
L 161.317941 -29.918317 
L 161.944838 -29.918317 
L 162.571734 -29.918317 
L 163.198631 -29.918317 
L 163.825527 -29.918317 
L 164.452424 -29.918317 
L 165.07932 -29.918317 
L 165.706217 -29.918317 
L 166.333114 -29.918317 
L 166.96001 -29.918317 
L 167.586907 -29.918317 
L 168.213803 -29.918317 
L 168.8407 -29.918317 
L 169.467596 -29.918317 
L 170.094493 -29.918317 
L 170.72139 -29.918317 
L 171.348286 -29.918317 
L 171.975183 -29.918317 
L 172.602079 -29.918317 
L 173.228976 -29.918317 
L 173.855872 -29.918317 
L 174.482769 -29.918317 
L 175.109665 -29.918317 
L 175.736562 -29.918317 
L 176.363459 -29.918317 
L 176.990355 -29.918317 
L 177.617252 -29.918317 
L 178.244148 -29.918317 
L 178.871045 -29.918317 
L 178.871045 -29.987919 
L 178.871045 -29.987919 
L 178.244148 -30.004363 
L 177.617252 -30.024192 
L 176.990355 -30.047981 
L 176.363459 -30.076375 
L 175.736562 -30.110092 
L 175.109665 -30.149928 
L 174.482769 -30.196751 
L 173.855872 -30.251511 
L 173.228976 -30.315227 
L 172.602079 -30.388991 
L 171.975183 -30.473959 
L 171.348286 -30.571343 
L 170.72139 -30.682405 
L 170.094493 -30.808439 
L 169.467596 -30.950764 
L 168.8407 -31.110703 
L 168.213803 -31.289573 
L 167.586907 -31.488664 
L 166.96001 -31.70922 
L 166.333114 -31.952429 
L 165.706217 -32.2194 
L 165.07932 -32.51115 
L 164.452424 -32.828595 
L 163.825527 -33.172538 
L 163.198631 -33.543662 
L 162.571734 -33.942533 
L 161.944838 -34.369597 
L 161.317941 -34.825192 
L 160.691044 -35.309554 
L 160.064148 -35.82284 
L 159.437251 -36.36514 
L 158.810355 -36.936505 
L 158.183458 -37.536972 
L 157.556562 -38.166584 
L 156.929665 -38.825423 
L 156.302769 -39.513626 
L 155.675872 -40.231413 
L 155.048975 -40.979094 
L 154.422079 -41.757085 
L 153.795182 -42.565904 
L 153.168286 -43.406166 
L 152.541389 -44.278563 
L 151.914493 -45.183838 
L 151.287596 -46.122746 
L 150.660699 -47.096006 
L 150.033803 -48.104241 
L 149.406906 -49.147919 
L 148.78001 -50.227276 
L 148.153113 -51.342245 
L 147.526217 -52.49238 
L 146.89932 -53.676778 
L 146.272423 -54.894019 
L 145.645527 -56.142096 
L 145.01863 -57.418375 
L 144.391734 -58.719552 
L 143.764837 -60.041645 
L 143.137941 -61.379992 
L 142.511044 -62.729277 
L 141.884148 -64.08358 
L 141.257251 -65.436443 
L 140.630354 -66.780974 
L 140.003458 -68.109957 
L 139.376561 -69.41599 
L 138.749665 -70.691645 
L 138.122768 -71.929633 
L 137.495872 -73.122983 
L 136.868975 -74.265231 
L 136.242078 -75.350595 
L 135.615182 -76.37416 
L 134.988285 -77.332043 
L 134.361389 -78.221534 
L 133.734492 -79.041229 
L 133.107596 -79.791123 
L 132.480699 -80.472674 
L 131.853803 -81.088831 
L 131.226906 -81.644025 
L 130.600009 -82.144118 
L 129.973113 -82.596311 
L 129.346216 -83.009017 
L 128.71932 -83.391695 
L 128.092423 -83.754651 
L 127.465527 -84.108813 
L 126.83863 -84.465483 
L 126.211733 -84.836076 
L 125.584837 -85.231847 
L 124.95794 -85.663625 
L 124.331044 -86.14155 
L 123.704147 -86.674824 
L 123.077251 -87.271491 
L 122.450354 -87.938238 
L 121.823457 -88.680235 
L 121.196561 -89.50101 
L 120.569664 -90.402368 
L 119.942768 -91.384345 
L 119.315871 -92.44521 
L 118.688975 -93.581504 
L 118.062078 -94.788113 
L 117.435182 -96.058378 
L 116.808285 -97.38423 
L 116.181388 -98.75635 
L 115.554492 -100.164341 
L 114.927595 -101.596912 
L 114.300699 -103.042072 
L 113.673802 -104.487312 
L 113.046906 -105.919792 
L 112.420009 -107.326516 
L 111.793112 -108.69449 
L 111.166216 -110.010873 
L 110.539319 -111.263107 
L 109.912423 -112.439038 
L 109.285526 -113.52702 
L 108.65863 -114.516003 
L 108.031733 -115.39562 
L 107.404836 -116.156252 
L 106.77794 -116.789101 
L 106.151043 -117.286245 
L 105.524147 -117.640698 
L 104.89725 -117.846468 
L 104.270354 -117.898605 
L 103.643457 -117.793258 
L 103.016561 -117.527716 
L 102.389664 -117.100458 
L 101.762767 -116.511184 
L 101.135871 -115.760843 
L 100.508974 -114.851645 
L 99.882078 -113.787063 
L 99.255181 -112.571816 
L 98.628285 -111.211826 
L 98.001388 -109.714172 
L 97.374491 -108.087002 
L 96.747595 -106.339442 
L 96.120698 -104.481479 
L 95.493802 -102.523823 
L 94.866905 -100.477762 
L 94.240009 -98.355 
L 93.613112 -96.167497 
L 92.986216 -93.927294 
L 92.359319 -91.646352 
L 91.732422 -89.336395 
L 91.105526 -87.008757 
L 90.478629 -84.674256 
L 89.851733 -82.343075 
L 89.224836 -80.024675 
L 88.59794 -77.727719 
L 87.971043 -75.460029 
L 87.344146 -73.228556 
L 86.71725 -71.039384 
L 86.090353 -68.897743 
L 85.463457 -66.808043 
L 84.83656 -64.773928 
L 84.209664 -62.798336 
L 83.582767 -60.883568 
L 82.95587 -59.031361 
L 82.328974 -57.242965 
L 81.702077 -55.519217 
L 81.075181 -53.860613 
L 80.448284 -52.267366 
L 79.821388 -50.739466 
L 79.194491 -49.276727 
L 78.567595 -47.87882 
L 77.940698 -46.545306 
L 77.313801 -45.275651 
L 76.686905 -44.069236 
L 76.060008 -42.925364 
L 75.433112 -41.843256 
L 74.806215 -40.822043 
L 74.179319 -39.860759 
L 73.552422 -38.958328 
L 72.925525 -38.113559 
L 72.298629 -37.325132 
L 71.671732 -36.591592 
L 71.044836 -35.911348 
L 70.417939 -35.28267 
L 69.791043 -34.703696 
L 69.164146 -34.172435 
L 68.537249 -33.686783 
L 67.910353 -33.244533 
L 67.283456 -32.843397 
L 66.65656 -32.481019 
L 66.029663 -32.155003 
L 65.402767 -31.862929 
L 64.77587 -31.602379 
L 64.148974 -31.370955 
L 63.522077 -31.166301 
L 62.89518 -30.986125 
L 62.268284 -30.828209 
L 61.641387 -30.69043 
L 61.014491 -30.57077 
L 60.387594 -30.467324 
L 59.760698 -30.378311 
L 59.133801 -30.302074 
L 58.506904 -30.237087 
L 57.880008 -30.181951 
L 57.253111 -30.135395 
L 56.626215 -30.096272 
L 55.999318 -30.063552 
L 55.372422 -30.036319 
L 54.745525 -30.013763 
L 54.118628 -29.99517 
z
" style="stroke: #4477aa"/>
    </defs>
    <g clip-path="url(#pfecca68728)">
     <use xlink:href="#m10fb865e5a" x="0" y="142.94952" style="fill: #4477aa; fill-opacity: 0.25; stroke: #4477aa"/>
    </g>
   </g>
   <g id="PolyCollection_2">
    <defs>
     <path id="ma3503bad11" d="M 4.729699 -30.17278 
L 4.729699 -29.918317 
L 5.607199 -29.918317 
L 6.484699 -29.918317 
L 7.362199 -29.918317 
L 8.2397 -29.918317 
L 9.1172 -29.918317 
L 9.9947 -29.918317 
L 10.8722 -29.918317 
L 11.7497 -29.918317 
L 12.6272 -29.918317 
L 13.5047 -29.918317 
L 14.3822 -29.918317 
L 15.2597 -29.918317 
L 16.1372 -29.918317 
L 17.0147 -29.918317 
L 17.8922 -29.918317 
L 18.7697 -29.918317 
L 19.6472 -29.918317 
L 20.524701 -29.918317 
L 21.402201 -29.918317 
L 22.279701 -29.918317 
L 23.157201 -29.918317 
L 24.034701 -29.918317 
L 24.912201 -29.918317 
L 25.789701 -29.918317 
L 26.667201 -29.918317 
L 27.544701 -29.918317 
L 28.422201 -29.918317 
L 29.299701 -29.918317 
L 30.177201 -29.918317 
L 31.054701 -29.918317 
L 31.932202 -29.918317 
L 32.809702 -29.918317 
L 33.687202 -29.918317 
L 34.564702 -29.918317 
L 35.442202 -29.918317 
L 36.319702 -29.918317 
L 37.197202 -29.918317 
L 38.074702 -29.918317 
L 38.952202 -29.918317 
L 39.829702 -29.918317 
L 40.707202 -29.918317 
L 41.584702 -29.918317 
L 42.462202 -29.918317 
L 43.339703 -29.918317 
L 44.217203 -29.918317 
L 45.094703 -29.918317 
L 45.972203 -29.918317 
L 46.849703 -29.918317 
L 47.727203 -29.918317 
L 48.604703 -29.918317 
L 49.482203 -29.918317 
L 50.359703 -29.918317 
L 51.237203 -29.918317 
L 52.114703 -29.918317 
L 52.992203 -29.918317 
L 53.869703 -29.918317 
L 54.747204 -29.918317 
L 55.624704 -29.918317 
L 56.502204 -29.918317 
L 57.379704 -29.918317 
L 58.257204 -29.918317 
L 59.134704 -29.918317 
L 60.012204 -29.918317 
L 60.889704 -29.918317 
L 61.767204 -29.918317 
L 62.644704 -29.918317 
L 63.522204 -29.918317 
L 64.399704 -29.918317 
L 65.277204 -29.918317 
L 66.154705 -29.918317 
L 67.032205 -29.918317 
L 67.909705 -29.918317 
L 68.787205 -29.918317 
L 69.664705 -29.918317 
L 70.542205 -29.918317 
L 71.419705 -29.918317 
L 72.297205 -29.918317 
L 73.174705 -29.918317 
L 74.052205 -29.918317 
L 74.929705 -29.918317 
L 75.807205 -29.918317 
L 76.684705 -29.918317 
L 77.562206 -29.918317 
L 78.439706 -29.918317 
L 79.317206 -29.918317 
L 80.194706 -29.918317 
L 81.072206 -29.918317 
L 81.949706 -29.918317 
L 82.827206 -29.918317 
L 83.704706 -29.918317 
L 84.582206 -29.918317 
L 85.459706 -29.918317 
L 86.337206 -29.918317 
L 87.214706 -29.918317 
L 88.092206 -29.918317 
L 88.969707 -29.918317 
L 89.847207 -29.918317 
L 90.724707 -29.918317 
L 91.602207 -29.918317 
L 92.479707 -29.918317 
L 93.357207 -29.918317 
L 94.234707 -29.918317 
L 95.112207 -29.918317 
L 95.989707 -29.918317 
L 96.867207 -29.918317 
L 97.744707 -29.918317 
L 98.622207 -29.918317 
L 99.499707 -29.918317 
L 100.377208 -29.918317 
L 101.254708 -29.918317 
L 102.132208 -29.918317 
L 103.009708 -29.918317 
L 103.887208 -29.918317 
L 104.764708 -29.918317 
L 105.642208 -29.918317 
L 106.519708 -29.918317 
L 107.397208 -29.918317 
L 108.274708 -29.918317 
L 109.152208 -29.918317 
L 110.029708 -29.918317 
L 110.907208 -29.918317 
L 111.784709 -29.918317 
L 112.662209 -29.918317 
L 113.539709 -29.918317 
L 114.417209 -29.918317 
L 115.294709 -29.918317 
L 116.172209 -29.918317 
L 117.049709 -29.918317 
L 117.927209 -29.918317 
L 118.804709 -29.918317 
L 119.682209 -29.918317 
L 120.559709 -29.918317 
L 121.437209 -29.918317 
L 122.314709 -29.918317 
L 123.19221 -29.918317 
L 124.06971 -29.918317 
L 124.94721 -29.918317 
L 125.82471 -29.918317 
L 126.70221 -29.918317 
L 127.57971 -29.918317 
L 128.45721 -29.918317 
L 129.33471 -29.918317 
L 130.21221 -29.918317 
L 131.08971 -29.918317 
L 131.96721 -29.918317 
L 132.84471 -29.918317 
L 133.72221 -29.918317 
L 134.599711 -29.918317 
L 135.477211 -29.918317 
L 136.354711 -29.918317 
L 137.232211 -29.918317 
L 138.109711 -29.918317 
L 138.987211 -29.918317 
L 139.864711 -29.918317 
L 140.742211 -29.918317 
L 141.619711 -29.918317 
L 142.497211 -29.918317 
L 143.374711 -29.918317 
L 144.252211 -29.918317 
L 145.129711 -29.918317 
L 146.007212 -29.918317 
L 146.884712 -29.918317 
L 147.762212 -29.918317 
L 148.639712 -29.918317 
L 149.517212 -29.918317 
L 150.394712 -29.918317 
L 151.272212 -29.918317 
L 152.149712 -29.918317 
L 153.027212 -29.918317 
L 153.904712 -29.918317 
L 154.782212 -29.918317 
L 155.659712 -29.918317 
L 156.537212 -29.918317 
L 157.414713 -29.918317 
L 158.292213 -29.918317 
L 159.169713 -29.918317 
L 160.047213 -29.918317 
L 160.924713 -29.918317 
L 161.802213 -29.918317 
L 162.679713 -29.918317 
L 163.557213 -29.918317 
L 164.434713 -29.918317 
L 165.312213 -29.918317 
L 166.189713 -29.918317 
L 167.067213 -29.918317 
L 167.944713 -29.918317 
L 168.822214 -29.918317 
L 169.699714 -29.918317 
L 170.577214 -29.918317 
L 171.454714 -29.918317 
L 172.332214 -29.918317 
L 173.209714 -29.918317 
L 174.087214 -29.918317 
L 174.964714 -29.918317 
L 175.842214 -29.918317 
L 176.719714 -29.918317 
L 177.597214 -29.918317 
L 178.474714 -29.918317 
L 179.352214 -29.918317 
L 179.352214 -29.972539 
L 179.352214 -29.972539 
L 178.474714 -29.987251 
L 177.597214 -30.005379 
L 176.719714 -30.027554 
L 175.842214 -30.054477 
L 174.964714 -30.086924 
L 174.087214 -30.125733 
L 173.209714 -30.171801 
L 172.332214 -30.226071 
L 171.454714 -30.289508 
L 170.577214 -30.363086 
L 169.699714 -30.447753 
L 168.822214 -30.544406 
L 167.944713 -30.653847 
L 167.067213 -30.776752 
L 166.189713 -30.913624 
L 165.312213 -31.064751 
L 164.434713 -31.230166 
L 163.557213 -31.409604 
L 162.679713 -31.602469 
L 161.802213 -31.807804 
L 160.924713 -32.024273 
L 160.047213 -32.250149 
L 159.169713 -32.483323 
L 158.292213 -32.721312 
L 157.414713 -32.9613 
L 156.537212 -33.200177 
L 155.659712 -33.434603 
L 154.782212 -33.661082 
L 153.904712 -33.876042 
L 153.027212 -34.075929 
L 152.149712 -34.25731 
L 151.272212 -34.416962 
L 150.394712 -34.551978 
L 149.517212 -34.659856 
L 148.639712 -34.738575 
L 147.762212 -34.786668 
L 146.884712 -34.803275 
L 146.007212 -34.78817 
L 145.129711 -34.741779 
L 144.252211 -34.665174 
L 143.374711 -34.560046 
L 142.497211 -34.428659 
L 141.619711 -34.273792 
L 140.742211 -34.098666 
L 139.864711 -33.906857 
L 138.987211 -33.702208 
L 138.109711 -33.488737 
L 137.232211 -33.270544 
L 136.354711 -33.051721 
L 135.477211 -32.836272 
L 134.599711 -32.628041 
L 133.72221 -32.430646 
L 132.84471 -32.247427 
L 131.96721 -32.081408 
L 131.08971 -31.93526 
L 130.21221 -31.811282 
L 129.33471 -31.711383 
L 128.45721 -31.637076 
L 127.57971 -31.589471 
L 126.70221 -31.569271 
L 125.82471 -31.576776 
L 124.94721 -31.611878 
L 124.06971 -31.674065 
L 123.19221 -31.76242 
L 122.314709 -31.875624 
L 121.437209 -32.01196 
L 120.559709 -32.169321 
L 119.682209 -32.345225 
L 118.804709 -32.536834 
L 117.927209 -32.740987 
L 117.049709 -32.954234 
L 116.172209 -33.172895 
L 115.294709 -33.393115 
L 114.417209 -33.610946 
L 113.539709 -33.822426 
L 112.662209 -34.023675 
L 111.784709 -34.210999 
L 110.907208 -34.38099 
L 110.029708 -34.530637 
L 109.152208 -34.657425 
L 108.274708 -34.759437 
L 107.397208 -34.835439 
L 106.519708 -34.884955 
L 105.642208 -34.908333 
L 104.764708 -34.90678 
L 103.887208 -34.882391 
L 103.009708 -34.838157 
L 102.132208 -34.777944 
L 101.254708 -34.706467 
L 100.377208 -34.62924 
L 99.499707 -34.55251 
L 98.622207 -34.48318 
L 97.744707 -34.428726 
L 96.867207 -34.397096 
L 95.989707 -34.396613 
L 95.112207 -34.435868 
L 94.234707 -34.52361 
L 93.357207 -34.668646 
L 92.479707 -34.879729 
L 91.602207 -35.165452 
L 90.724707 -35.534154 
L 89.847207 -35.993811 
L 88.969707 -36.551954 
L 88.092206 -37.215569 
L 87.214706 -37.991024 
L 86.337206 -38.883988 
L 85.459706 -39.899369 
L 84.582206 -41.041249 
L 83.704706 -42.312845 
L 82.827206 -43.716468 
L 81.949706 -45.253503 
L 81.072206 -46.924391 
L 80.194706 -48.728637 
L 79.317206 -50.664817 
L 78.439706 -52.730597 
L 77.562206 -54.922769 
L 76.684705 -57.237277 
L 75.807205 -59.669262 
L 74.929705 -62.213096 
L 74.052205 -64.862418 
L 73.174705 -67.610166 
L 72.297205 -70.448599 
L 71.419705 -73.369313 
L 70.542205 -76.363243 
L 69.664705 -79.420665 
L 68.787205 -82.531176 
L 67.909705 -85.683676 
L 67.032205 -88.866342 
L 66.154705 -92.066598 
L 65.277204 -95.271086 
L 64.399704 -98.46564 
L 63.522204 -101.635268 
L 62.644704 -104.764141 
L 61.767204 -107.835601 
L 60.889704 -110.832182 
L 60.012204 -113.735651 
L 59.134704 -116.527074 
L 58.257204 -119.186903 
L 57.379704 -121.695097 
L 56.502204 -124.031269 
L 55.624704 -126.17486 
L 54.747204 -128.10536 
L 53.869703 -129.802544 
L 52.992203 -131.246754 
L 52.114703 -132.419206 
L 51.237203 -133.302328 
L 50.359703 -133.880116 
L 49.482203 -134.13851 
L 48.604703 -134.065778 
L 47.727203 -133.652886 
L 46.849703 -132.893869 
L 45.972203 -131.786153 
L 45.094703 -130.330845 
L 44.217203 -128.53296 
L 43.339703 -126.401571 
L 42.462202 -123.949878 
L 41.584702 -121.195178 
L 40.707202 -118.158733 
L 39.829702 -114.865531 
L 38.952202 -111.343944 
L 38.074702 -107.625286 
L 37.197202 -103.743284 
L 36.319702 -99.73347 
L 35.442202 -95.632521 
L 34.564702 -91.477562 
L 33.687202 -87.30546 
L 32.809702 -83.152121 
L 31.932202 -79.051828 
L 31.054701 -75.036631 
L 30.177201 -71.135811 
L 29.299701 -67.375441 
L 28.422201 -63.778035 
L 27.544701 -60.362319 
L 26.667201 -57.143106 
L 25.789701 -54.13128 
L 24.912201 -51.333886 
L 24.034701 -48.754307 
L 23.157201 -46.392526 
L 22.279701 -44.24545 
L 21.402201 -42.307284 
L 20.524701 -40.56993 
L 19.6472 -39.023416 
L 18.7697 -37.656312 
L 17.8922 -36.456136 
L 17.0147 -35.409745 
L 16.1372 -34.503678 
L 15.2597 -33.724469 
L 14.3822 -33.058917 
L 13.5047 -32.4943 
L 12.6272 -32.018551 
L 11.7497 -31.620388 
L 10.8722 -31.289404 
L 9.9947 -31.016112 
L 9.1172 -30.791971 
L 8.2397 -30.609372 
L 7.362199 -30.461609 
L 6.484699 -30.342835 
L 5.607199 -30.247999 
L 4.729699 -30.17278 
z
" style="stroke: #ee6677"/>
    </defs>
    <g clip-path="url(#pfecca68728)">
     <use xlink:href="#ma3503bad11" x="0" y="142.94952" style="fill: #ee6677; fill-opacity: 0.25; stroke: #ee6677"/>
    </g>
   </g>
   <g id="line2d_63">
    <path d="M 161.123352 113.031203 
L 161.123352 3.6 
" clip-path="url(#pfecca68728)" style="fill: none; stroke-dasharray: 3.7,1.6; stroke-dashoffset: 0; stroke: #000000"/>
   </g>
   <g id="patch_3">
    <path d="M 32.685756 113.031203 
L 32.685756 3.6 
" style="fill: none; stroke: #000000; stroke-width: 0.5; stroke-linejoin: miter; stroke-linecap: square"/>
   </g>
   <g id="patch_4">
    <path d="M 184.108852 113.031203 
L 184.108852 3.6 
" style="fill: none; stroke: #000000; stroke-width: 0.5; stroke-linejoin: miter; stroke-linecap: square"/>
   </g>
   <g id="patch_5">
    <path d="M 32.685756 113.031203 
L 184.108852 113.031203 
" style="fill: none; stroke: #000000; stroke-width: 0.5; stroke-linejoin: miter; stroke-linecap: square"/>
   </g>
   <g id="patch_6">
    <path d="M 32.685756 3.6 
L 184.108852 3.6 
" style="fill: none; stroke: #000000; stroke-width: 0.5; stroke-linejoin: miter; stroke-linecap: square"/>
   </g>
   <g id="legend_1">
    <g id="patch_7">
     <path d="M 38.516756 45.093008 
L 97.686632 45.093008 
Q 99.352632 45.093008 99.352632 43.427008 
L 99.352632 9.431 
Q 99.352632 7.765 97.686632 7.765 
L 38.516756 7.765 
Q 36.850756 7.765 36.850756 9.431 
L 36.850756 43.427008 
Q 36.850756 45.093008 38.516756 45.093008 
z
" style="fill: #ffffff; stroke: #cccccc; stroke-linejoin: miter"/>
    </g>
    <g id="line2d_64">
     <path d="M 40.182756 14.0125 
L 48.512756 14.0125 
L 56.842756 14.0125 
" style="fill: none; stroke-dasharray: 3.7,1.6; stroke-dashoffset: 0; stroke: #000000"/>
    </g>
    <g id="text_11">
     <!-- $\kappa = 1.0$ -->
     <g transform="translate(63.506756 16.928) scale(0.0833 -0.0833)">
      <defs>
       <path id="CMMI12-14" d="M 1363 1600 
C 1574 1714 1811 1912 1971 2046 
C 2355 2377 2496 2479 2739 2574 
C 2714 2536 2707 2485 2707 2441 
C 2707 2268 2854 2236 2918 2236 
C 3123 2236 3238 2427 3238 2548 
C 3238 2586 3226 2752 3002 2752 
C 2618 2752 2240 2431 1958 2198 
C 1587 1876 1402 1738 1139 1656 
L 1382 2656 
C 1382 2759 1299 2816 1216 2816 
C 1158 2816 1018 2797 966 2592 
L 371 224 
C 352 148 352 134 352 96 
C 352 6 422 -64 518 -64 
C 710 -64 749 106 781 244 
C 819 380 1082 1472 1094 1472 
C 1907 1472 2182 1264 2182 943 
C 2182 897 2182 878 2163 806 
C 2138 682 2138 609 2138 570 
C 2138 178 2387 -64 2701 -64 
C 2963 -64 3110 123 3206 291 
C 3341 543 3424 898 3424 923 
C 3424 956 3398 981 3360 981 
C 3302 981 3296 956 3270 852 
C 3187 542 3046 64 2720 64 
C 2579 64 2509 148 2509 374 
C 2509 498 2534 641 2560 737 
C 2573 802 2592 880 2592 951 
C 2592 1541 1786 1600 1363 1600 
z
" transform="scale(0.015625)"/>
       <path id="CMR17-3d" d="M 4115 2017 
C 4211 2017 4307 2017 4307 2125 
C 4307 2240 4198 2240 4090 2240 
L 512 2240 
C 403 2240 294 2240 294 2125 
C 294 2017 390 2017 486 2017 
L 4115 2017 
z
M 4090 896 
C 4198 896 4307 896 4307 1011 
C 4307 1119 4211 1119 4115 1119 
L 486 1119 
C 390 1119 294 1119 294 1011 
C 294 896 403 896 512 896 
L 4090 896 
z
" transform="scale(0.015625)"/>
       <path id="CMR17-31" d="M 1702 4058 
C 1702 4192 1696 4192 1606 4192 
C 1357 3916 979 3827 621 3827 
C 602 3827 570 3827 563 3808 
C 557 3795 557 3782 557 3648 
C 755 3648 1088 3686 1344 3839 
L 1344 461 
C 1344 236 1331 160 781 160 
L 589 160 
L 589 0 
C 896 0 1216 0 1523 0 
C 1830 0 2150 0 2458 0 
L 2458 160 
L 2266 160 
C 1715 160 1702 230 1702 458 
L 1702 4058 
z
" transform="scale(0.015625)"/>
      </defs>
      <use xlink:href="#CMMI12-14" transform="scale(0.996264)"/>
      <use xlink:href="#CMR17-3d" transform="translate(83.828633 0) scale(0.996264)"/>
      <use xlink:href="#CMR17-31" transform="translate(183.21743 0) scale(0.996264)"/>
      <use xlink:href="#CMMI12-3a" transform="translate(228.907907 0) scale(0.996264)"/>
      <use xlink:href="#CMR17-30" transform="translate(256.005084 0) scale(0.996264)"/>
     </g>
    </g>
    <g id="patch_8">
     <path d="M 40.182756 28.537669 
L 56.842756 28.537669 
L 56.842756 22.706669 
L 40.182756 22.706669 
z
" style="fill: #4477aa; fill-opacity: 0.25; stroke: #4477aa; stroke-linejoin: miter"/>
    </g>
    <g id="text_12">
     <!-- $\kappa = 4.0$ -->
     <g transform="translate(63.506756 28.537669) scale(0.0833 -0.0833)">
      <use xlink:href="#CMMI12-14" transform="scale(0.996264)"/>
      <use xlink:href="#CMR17-3d" transform="translate(83.828633 0) scale(0.996264)"/>
      <use xlink:href="#CMR17-34" transform="translate(183.21743 0) scale(0.996264)"/>
      <use xlink:href="#CMMI12-3a" transform="translate(228.907907 0) scale(0.996264)"/>
      <use xlink:href="#CMR17-30" transform="translate(256.005084 0) scale(0.996264)"/>
     </g>
    </g>
    <g id="patch_9">
     <path d="M 40.182756 40.147338 
L 56.842756 40.147338 
L 56.842756 34.316338 
L 40.182756 34.316338 
z
" style="fill: #ee6677; fill-opacity: 0.25; stroke: #ee6677; stroke-linejoin: miter"/>
    </g>
    <g id="text_13">
     <!-- $\kappa = 64.0$ -->
     <g transform="translate(63.506756 40.147338) scale(0.0833 -0.0833)">
      <use xlink:href="#CMMI12-14" transform="scale(0.996264)"/>
      <use xlink:href="#CMR17-3d" transform="translate(83.828633 0) scale(0.996264)"/>
      <use xlink:href="#CMR17-36" transform="translate(183.21743 0) scale(0.996264)"/>
      <use xlink:href="#CMR17-34" transform="translate(228.907907 0) scale(0.996264)"/>
      <use xlink:href="#CMMI12-3a" transform="translate(274.598384 0) scale(0.996264)"/>
      <use xlink:href="#CMR17-30" transform="translate(301.695561 0) scale(0.996264)"/>
     </g>
    </g>
   </g>
  </g>
 </g>
 <defs>
  <clipPath id="pfecca68728">
   <rect x="32.685756" y="3.6" width="151.423097" height="109.431203"/>
  </clipPath>
 </defs>
</svg>
