<?xml version="1.0" encoding="utf-8" standalone="no"?>
<!DOCTYPE svg PUBLIC "-//W3C//DTD SVG 1.1//EN"
  "http://www.w3.org/Graphics/SVG/1.1/DTD/svg11.dtd">
<svg xmlns:xlink="http://www.w3.org/1999/xlink" width="230.855052pt" height="179.048317pt" viewBox="0 0 230.855052 179.048317" xmlns="http://www.w3.org/2000/svg" version="1.1">
 <metadata>
  <rdf:RDF xmlns:dc="http://purl.org/dc/elements/1.1/" xmlns:cc="http://creativecommons.org/ns#" xmlns:rdf="http://www.w3.org/1999/02/22-rdf-syntax-ns#">
   <cc:Work>
    <dc:type rdf:resource="http://purl.org/dc/dcmitype/StillImage"/>
    <dc:date>2024-06-25T13:11:46.830333</dc:date>
    <dc:format>image/svg+xml</dc:format>
    <dc:creator>
     <cc:Agent>
      <dc:title>Matplotlib v3.6.2, https://matplotlib.org/</dc:title>
     </cc:Agent>
    </dc:creator>
   </cc:Work>
  </rdf:RDF>
 </metadata>
 <defs>
  <style type="text/css">*{stroke-linejoin: round; stroke-linecap: butt}</style>
 </defs>
 <g id="figure_1">
  <g id="patch_1">
   <path d="M 0 179.048317 
L 230.855052 179.048317 
L 230.855052 0 
L 0 0 
L 0 179.048317 
z
" style="fill: none"/>
  </g>
  <g id="axes_1">
   <g id="patch_2">
    <path d="M 31.955052 149.13 
L 227.255052 149.13 
L 227.255052 3.6 
L 31.955052 3.6 
L 31.955052 149.13 
z
" style="fill: none"/>
   </g>
   <g id="matplotlib.axis_1">
    <g id="xtick_1">
     <g id="line2d_1">
      <path d="M 63.025506 149.13 
L 63.025506 3.6 
" clip-path="url(#pa0108bd07c)" style="fill: none; stroke-dasharray: 1.85,0.8; stroke-dashoffset: 0; stroke: #000000; stroke-opacity: 0.5; stroke-width: 0.5"/>
     </g>
     <g id="line2d_2">
      <defs>
       <path id="m120d57baac" d="M 0 0 
L 0 -3 
" style="stroke: #000000; stroke-width: 0.5"/>
      </defs>
      <g>
       <use xlink:href="#m120d57baac" x="63.025506" y="149.13" style="stroke: #000000; stroke-width: 0.5"/>
      </g>
     </g>
     <g id="line2d_3">
      <defs>
       <path id="mf77f364cdd" d="M 0 0 
L 0 3 
" style="stroke: #000000; stroke-width: 0.5"/>
      </defs>
      <g>
       <use xlink:href="#mf77f364cdd" x="63.025506" y="3.6" style="stroke: #000000; stroke-width: 0.5"/>
      </g>
     </g>
     <g id="text_1">
      <!-- $\mathdefault{10^{2}}$ -->
      <g transform="translate(56.058552 159.548498) scale(0.1 -0.1)">
       <defs>
        <path id="CMR17-31" d="M 1702 4058 
C 1702 4192 1696 4192 1606 4192 
C 1357 3916 979 3827 621 3827 
C 602 3827 570 3827 563 3808 
C 557 3795 557 3782 557 3648 
C 755 3648 1088 3686 1344 3839 
L 1344 461 
C 1344 236 1331 160 781 160 
L 589 160 
L 589 0 
C 896 0 1216 0 1523 0 
C 1830 0 2150 0 2458 0 
L 2458 160 
L 2266 160 
C 1715 160 1702 230 1702 458 
L 1702 4058 
z
" transform="scale(0.015625)"/>
        <path id="CMR17-30" d="M 2688 2025 
C 2688 2416 2682 3080 2413 3591 
C 2176 4039 1798 4198 1466 4198 
C 1158 4198 768 4058 525 3597 
C 269 3118 243 2524 243 2025 
C 243 1661 250 1106 448 619 
C 723 -39 1216 -128 1466 -128 
C 1760 -128 2208 -7 2470 600 
C 2662 1042 2688 1559 2688 2025 
z
M 1466 -26 
C 1056 -26 813 325 723 812 
C 653 1188 653 1738 653 2096 
C 653 2588 653 2997 736 3387 
C 858 3929 1216 4096 1466 4096 
C 1728 4096 2067 3923 2189 3400 
C 2272 3036 2278 2607 2278 2096 
C 2278 1680 2278 1169 2202 792 
C 2067 95 1690 -26 1466 -26 
z
" transform="scale(0.015625)"/>
        <path id="CMR17-32" d="M 2669 989 
L 2554 989 
C 2490 536 2438 459 2413 420 
C 2381 369 1920 369 1830 369 
L 602 369 
C 832 619 1280 1072 1824 1597 
C 2214 1967 2669 2402 2669 3035 
C 2669 3790 2067 4224 1395 4224 
C 691 4224 262 3604 262 3030 
C 262 2780 448 2748 525 2748 
C 589 2748 781 2787 781 3010 
C 781 3207 614 3264 525 3264 
C 486 3264 448 3258 422 3245 
C 544 3790 915 4058 1306 4058 
C 1862 4058 2227 3617 2227 3035 
C 2227 2479 1901 2000 1536 1584 
L 262 146 
L 262 0 
L 2515 0 
L 2669 989 
z
" transform="scale(0.015625)"/>
       </defs>
       <use xlink:href="#CMR17-31" transform="scale(0.996264)"/>
       <use xlink:href="#CMR17-30" transform="translate(45.690477 0) scale(0.996264)"/>
       <use xlink:href="#CMR17-32" transform="translate(91.380954 36.153639) scale(0.697382)"/>
      </g>
     </g>
    </g>
    <g id="xtick_2">
     <g id="line2d_4">
      <path d="M 136.74966 149.13 
L 136.74966 3.6 
" clip-path="url(#pa0108bd07c)" style="fill: none; stroke-dasharray: 1.85,0.8; stroke-dashoffset: 0; stroke: #000000; stroke-opacity: 0.5; stroke-width: 0.5"/>
     </g>
     <g id="line2d_5">
      <g>
       <use xlink:href="#m120d57baac" x="136.74966" y="149.13" style="stroke: #000000; stroke-width: 0.5"/>
      </g>
     </g>
     <g id="line2d_6">
      <g>
       <use xlink:href="#mf77f364cdd" x="136.74966" y="3.6" style="stroke: #000000; stroke-width: 0.5"/>
      </g>
     </g>
     <g id="text_2">
      <!-- $\mathdefault{10^{3}}$ -->
      <g transform="translate(129.782706 159.548498) scale(0.1 -0.1)">
       <defs>
        <path id="CMR17-33" d="M 1414 2157 
C 1984 2157 2234 1662 2234 1090 
C 2234 320 1824 25 1453 25 
C 1114 25 563 194 390 693 
C 422 680 454 680 486 680 
C 640 680 755 782 755 948 
C 755 1133 614 1216 486 1216 
C 378 1216 211 1165 211 926 
C 211 335 787 -128 1466 -128 
C 2176 -128 2720 430 2720 1085 
C 2720 1707 2208 2157 1600 2227 
C 2086 2328 2554 2756 2554 3329 
C 2554 3820 2048 4179 1472 4179 
C 890 4179 378 3829 378 3329 
C 378 3110 544 3072 627 3072 
C 762 3072 877 3155 877 3321 
C 877 3486 762 3569 627 3569 
C 602 3569 570 3569 544 3557 
C 730 3959 1235 4032 1459 4032 
C 1683 4032 2106 3925 2106 3320 
C 2106 3143 2080 2828 1862 2550 
C 1670 2304 1453 2304 1242 2284 
C 1210 2284 1062 2269 1037 2269 
C 992 2263 966 2257 966 2208 
C 966 2163 973 2157 1101 2157 
L 1414 2157 
z
" transform="scale(0.015625)"/>
       </defs>
       <use xlink:href="#CMR17-31" transform="scale(0.996264)"/>
       <use xlink:href="#CMR17-30" transform="translate(45.690477 0) scale(0.996264)"/>
       <use xlink:href="#CMR17-33" transform="translate(91.380954 36.153639) scale(0.697382)"/>
      </g>
     </g>
    </g>
    <g id="xtick_3">
     <g id="line2d_7">
      <path d="M 210.473815 149.13 
L 210.473815 3.6 
" clip-path="url(#pa0108bd07c)" style="fill: none; stroke-dasharray: 1.85,0.8; stroke-dashoffset: 0; stroke: #000000; stroke-opacity: 0.5; stroke-width: 0.5"/>
     </g>
     <g id="line2d_8">
      <g>
       <use xlink:href="#m120d57baac" x="210.473815" y="149.13" style="stroke: #000000; stroke-width: 0.5"/>
      </g>
     </g>
     <g id="line2d_9">
      <g>
       <use xlink:href="#mf77f364cdd" x="210.473815" y="3.6" style="stroke: #000000; stroke-width: 0.5"/>
      </g>
     </g>
     <g id="text_3">
      <!-- $\mathdefault{10^{4}}$ -->
      <g transform="translate(203.50686 159.548498) scale(0.1 -0.1)">
       <defs>
        <path id="CMR17-34" d="M 2150 4122 
C 2150 4256 2144 4256 2029 4256 
L 128 1254 
L 128 1088 
L 1779 1088 
L 1779 457 
C 1779 224 1766 160 1318 160 
L 1197 160 
L 1197 0 
C 1402 0 1747 0 1965 0 
C 2182 0 2528 0 2733 0 
L 2733 160 
L 2611 160 
C 2163 160 2150 224 2150 457 
L 2150 1088 
L 2803 1088 
L 2803 1254 
L 2150 1254 
L 2150 4122 
z
M 1798 3703 
L 1798 1254 
L 256 1254 
L 1798 3703 
z
" transform="scale(0.015625)"/>
       </defs>
       <use xlink:href="#CMR17-31" transform="scale(0.996264)"/>
       <use xlink:href="#CMR17-30" transform="translate(45.690477 0) scale(0.996264)"/>
       <use xlink:href="#CMR17-34" transform="translate(91.380954 36.153639) scale(0.697382)"/>
      </g>
     </g>
    </g>
    <g id="xtick_4">
     <g id="line2d_10">
      <defs>
       <path id="m69c3b0e92e" d="M 0 0 
L 0 -1.5 
" style="stroke: #000000; stroke-width: 0.5"/>
      </defs>
      <g>
       <use xlink:href="#m69c3b0e92e" x="33.687716" y="149.13" style="stroke: #000000; stroke-width: 0.5"/>
      </g>
     </g>
     <g id="line2d_11">
      <defs>
       <path id="m4f2bab0acf" d="M 0 0 
L 0 1.5 
" style="stroke: #000000; stroke-width: 0.5"/>
      </defs>
      <g>
       <use xlink:href="#m4f2bab0acf" x="33.687716" y="3.6" style="stroke: #000000; stroke-width: 0.5"/>
      </g>
     </g>
    </g>
    <g id="xtick_5">
     <g id="line2d_12">
      <g>
       <use xlink:href="#m69c3b0e92e" x="40.832324" y="149.13" style="stroke: #000000; stroke-width: 0.5"/>
      </g>
     </g>
     <g id="line2d_13">
      <g>
       <use xlink:href="#m4f2bab0acf" x="40.832324" y="3.6" style="stroke: #000000; stroke-width: 0.5"/>
      </g>
     </g>
    </g>
    <g id="xtick_6">
     <g id="line2d_14">
      <g>
       <use xlink:href="#m69c3b0e92e" x="46.669895" y="149.13" style="stroke: #000000; stroke-width: 0.5"/>
      </g>
     </g>
     <g id="line2d_15">
      <g>
       <use xlink:href="#m4f2bab0acf" x="46.669895" y="3.6" style="stroke: #000000; stroke-width: 0.5"/>
      </g>
     </g>
    </g>
    <g id="xtick_7">
     <g id="line2d_16">
      <g>
       <use xlink:href="#m69c3b0e92e" x="51.60549" y="149.13" style="stroke: #000000; stroke-width: 0.5"/>
      </g>
     </g>
     <g id="line2d_17">
      <g>
       <use xlink:href="#m4f2bab0acf" x="51.60549" y="3.6" style="stroke: #000000; stroke-width: 0.5"/>
      </g>
     </g>
    </g>
    <g id="xtick_8">
     <g id="line2d_18">
      <g>
       <use xlink:href="#m69c3b0e92e" x="55.880897" y="149.13" style="stroke: #000000; stroke-width: 0.5"/>
      </g>
     </g>
     <g id="line2d_19">
      <g>
       <use xlink:href="#m4f2bab0acf" x="55.880897" y="3.6" style="stroke: #000000; stroke-width: 0.5"/>
      </g>
     </g>
    </g>
    <g id="xtick_9">
     <g id="line2d_20">
      <g>
       <use xlink:href="#m69c3b0e92e" x="59.652074" y="149.13" style="stroke: #000000; stroke-width: 0.5"/>
      </g>
     </g>
     <g id="line2d_21">
      <g>
       <use xlink:href="#m4f2bab0acf" x="59.652074" y="3.6" style="stroke: #000000; stroke-width: 0.5"/>
      </g>
     </g>
    </g>
    <g id="xtick_10">
     <g id="line2d_22">
      <g>
       <use xlink:href="#m69c3b0e92e" x="85.218688" y="149.13" style="stroke: #000000; stroke-width: 0.5"/>
      </g>
     </g>
     <g id="line2d_23">
      <g>
       <use xlink:href="#m4f2bab0acf" x="85.218688" y="3.6" style="stroke: #000000; stroke-width: 0.5"/>
      </g>
     </g>
    </g>
    <g id="xtick_11">
     <g id="line2d_24">
      <g>
       <use xlink:href="#m69c3b0e92e" x="98.200867" y="149.13" style="stroke: #000000; stroke-width: 0.5"/>
      </g>
     </g>
     <g id="line2d_25">
      <g>
       <use xlink:href="#m4f2bab0acf" x="98.200867" y="3.6" style="stroke: #000000; stroke-width: 0.5"/>
      </g>
     </g>
    </g>
    <g id="xtick_12">
     <g id="line2d_26">
      <g>
       <use xlink:href="#m69c3b0e92e" x="107.41187" y="149.13" style="stroke: #000000; stroke-width: 0.5"/>
      </g>
     </g>
     <g id="line2d_27">
      <g>
       <use xlink:href="#m4f2bab0acf" x="107.41187" y="3.6" style="stroke: #000000; stroke-width: 0.5"/>
      </g>
     </g>
    </g>
    <g id="xtick_13">
     <g id="line2d_28">
      <g>
       <use xlink:href="#m69c3b0e92e" x="114.556479" y="149.13" style="stroke: #000000; stroke-width: 0.5"/>
      </g>
     </g>
     <g id="line2d_29">
      <g>
       <use xlink:href="#m4f2bab0acf" x="114.556479" y="3.6" style="stroke: #000000; stroke-width: 0.5"/>
      </g>
     </g>
    </g>
    <g id="xtick_14">
     <g id="line2d_30">
      <g>
       <use xlink:href="#m69c3b0e92e" x="120.394049" y="149.13" style="stroke: #000000; stroke-width: 0.5"/>
      </g>
     </g>
     <g id="line2d_31">
      <g>
       <use xlink:href="#m4f2bab0acf" x="120.394049" y="3.6" style="stroke: #000000; stroke-width: 0.5"/>
      </g>
     </g>
    </g>
    <g id="xtick_15">
     <g id="line2d_32">
      <g>
       <use xlink:href="#m69c3b0e92e" x="125.329644" y="149.13" style="stroke: #000000; stroke-width: 0.5"/>
      </g>
     </g>
     <g id="line2d_33">
      <g>
       <use xlink:href="#m4f2bab0acf" x="125.329644" y="3.6" style="stroke: #000000; stroke-width: 0.5"/>
      </g>
     </g>
    </g>
    <g id="xtick_16">
     <g id="line2d_34">
      <g>
       <use xlink:href="#m69c3b0e92e" x="129.605052" y="149.13" style="stroke: #000000; stroke-width: 0.5"/>
      </g>
     </g>
     <g id="line2d_35">
      <g>
       <use xlink:href="#m4f2bab0acf" x="129.605052" y="3.6" style="stroke: #000000; stroke-width: 0.5"/>
      </g>
     </g>
    </g>
    <g id="xtick_17">
     <g id="line2d_36">
      <g>
       <use xlink:href="#m69c3b0e92e" x="133.376228" y="149.13" style="stroke: #000000; stroke-width: 0.5"/>
      </g>
     </g>
     <g id="line2d_37">
      <g>
       <use xlink:href="#m4f2bab0acf" x="133.376228" y="3.6" style="stroke: #000000; stroke-width: 0.5"/>
      </g>
     </g>
    </g>
    <g id="xtick_18">
     <g id="line2d_38">
      <g>
       <use xlink:href="#m69c3b0e92e" x="158.942842" y="149.13" style="stroke: #000000; stroke-width: 0.5"/>
      </g>
     </g>
     <g id="line2d_39">
      <g>
       <use xlink:href="#m4f2bab0acf" x="158.942842" y="3.6" style="stroke: #000000; stroke-width: 0.5"/>
      </g>
     </g>
    </g>
    <g id="xtick_19">
     <g id="line2d_40">
      <g>
       <use xlink:href="#m69c3b0e92e" x="171.925021" y="149.13" style="stroke: #000000; stroke-width: 0.5"/>
      </g>
     </g>
     <g id="line2d_41">
      <g>
       <use xlink:href="#m4f2bab0acf" x="171.925021" y="3.6" style="stroke: #000000; stroke-width: 0.5"/>
      </g>
     </g>
    </g>
    <g id="xtick_20">
     <g id="line2d_42">
      <g>
       <use xlink:href="#m69c3b0e92e" x="181.136024" y="149.13" style="stroke: #000000; stroke-width: 0.5"/>
      </g>
     </g>
     <g id="line2d_43">
      <g>
       <use xlink:href="#m4f2bab0acf" x="181.136024" y="3.6" style="stroke: #000000; stroke-width: 0.5"/>
      </g>
     </g>
    </g>
    <g id="xtick_21">
     <g id="line2d_44">
      <g>
       <use xlink:href="#m69c3b0e92e" x="188.280633" y="149.13" style="stroke: #000000; stroke-width: 0.5"/>
      </g>
     </g>
     <g id="line2d_45">
      <g>
       <use xlink:href="#m4f2bab0acf" x="188.280633" y="3.6" style="stroke: #000000; stroke-width: 0.5"/>
      </g>
     </g>
    </g>
    <g id="xtick_22">
     <g id="line2d_46">
      <g>
       <use xlink:href="#m69c3b0e92e" x="194.118203" y="149.13" style="stroke: #000000; stroke-width: 0.5"/>
      </g>
     </g>
     <g id="line2d_47">
      <g>
       <use xlink:href="#m4f2bab0acf" x="194.118203" y="3.6" style="stroke: #000000; stroke-width: 0.5"/>
      </g>
     </g>
    </g>
    <g id="xtick_23">
     <g id="line2d_48">
      <g>
       <use xlink:href="#m69c3b0e92e" x="199.053799" y="149.13" style="stroke: #000000; stroke-width: 0.5"/>
      </g>
     </g>
     <g id="line2d_49">
      <g>
       <use xlink:href="#m4f2bab0acf" x="199.053799" y="3.6" style="stroke: #000000; stroke-width: 0.5"/>
      </g>
     </g>
    </g>
    <g id="xtick_24">
     <g id="line2d_50">
      <g>
       <use xlink:href="#m69c3b0e92e" x="203.329206" y="149.13" style="stroke: #000000; stroke-width: 0.5"/>
      </g>
     </g>
     <g id="line2d_51">
      <g>
       <use xlink:href="#m4f2bab0acf" x="203.329206" y="3.6" style="stroke: #000000; stroke-width: 0.5"/>
      </g>
     </g>
    </g>
    <g id="xtick_25">
     <g id="line2d_52">
      <g>
       <use xlink:href="#m69c3b0e92e" x="207.100382" y="149.13" style="stroke: #000000; stroke-width: 0.5"/>
      </g>
     </g>
     <g id="line2d_53">
      <g>
       <use xlink:href="#m4f2bab0acf" x="207.100382" y="3.6" style="stroke: #000000; stroke-width: 0.5"/>
      </g>
     </g>
    </g>
    <g id="text_4">
     <!-- $R$ [M$\Omega$] -->
     <g transform="translate(113.192614 172.957657) scale(0.1 -0.1)">
      <defs>
       <path id="CMMI12-52" d="M 2355 3924 
C 2413 4160 2438 4160 2688 4160 
L 3149 4160 
C 3699 4160 4109 3995 4109 3499 
C 4109 3175 3942 2240 2656 2240 
L 1933 2240 
L 2355 3924 
z
M 3245 2169 
C 4038 2341 4659 2851 4659 3398 
C 4659 3894 4154 4352 3264 4352 
L 1530 4352 
C 1402 4352 1344 4352 1344 4226 
C 1344 4160 1389 4160 1510 4160 
C 1894 4160 1894 4112 1894 4045 
C 1894 4033 1894 3994 1869 3899 
L 1005 479 
C 947 256 934 192 493 192 
C 346 192 301 192 301 71 
C 301 7 371 7 390 7 
C 506 7 640 7 762 7 
L 1517 7 
C 1632 7 1766 7 1882 7 
C 1933 7 2003 7 2003 128 
C 2003 192 1946 192 1850 192 
C 1459 192 1459 243 1459 306 
C 1459 313 1459 357 1472 407 
L 1901 2112 
L 2669 2112 
C 3277 2112 3392 1731 3392 1522 
C 3392 1427 3328 1179 3283 1014 
C 3213 723 3194 652 3194 532 
C 3194 82 3565 -128 3994 -128 
C 4512 -128 4736 501 4736 591 
C 4736 635 4704 654 4666 654 
C 4614 654 4602 616 4589 565 
C 4435 114 4173 0 4013 0 
C 3853 0 3750 70 3750 356 
C 3750 509 3827 1088 3834 1120 
C 3866 1355 3866 1380 3866 1432 
C 3866 1896 3488 2093 3245 2169 
z
" transform="scale(0.015625)"/>
       <path id="CMR17-5b" d="M 1504 -1600 
L 1504 -1377 
L 902 -1377 
L 902 4544 
L 1504 4544 
L 1504 4767 
L 678 4767 
L 678 -1600 
L 1504 -1600 
z
" transform="scale(0.015625)"/>
       <path id="CMR17-4d" d="M 1338 4224 
C 1299 4320 1293 4320 1158 4320 
L 339 4320 
L 339 4160 
C 781 4160 851 4160 851 3875 
L 851 610 
C 851 451 851 153 339 153 
L 339 -13 
C 486 0 755 0 915 0 
C 1075 0 1344 0 1491 -13 
L 1491 153 
C 979 153 979 451 979 610 
L 979 4135 
L 986 4135 
L 2490 89 
C 2515 25 2528 -13 2579 -13 
C 2630 -13 2643 25 2669 89 
L 4186 4166 
L 4192 4166 
L 4192 438 
C 4192 153 4122 153 3680 153 
L 3680 -13 
C 3853 0 4198 0 4384 0 
C 4570 0 4922 0 5094 -13 
L 5094 153 
C 4653 153 4582 153 4582 438 
L 4582 3875 
C 4582 4160 4653 4160 5094 4160 
L 5094 4320 
L 4282 4320 
C 4147 4320 4141 4314 4102 4218 
L 2720 502 
L 1338 4224 
z
" transform="scale(0.015625)"/>
       <path id="CMR17-a" d="M 4038 935 
L 3923 935 
C 3866 641 3846 563 3814 461 
C 3782 365 3763 314 3392 314 
L 2874 314 
C 2944 686 3098 961 3366 1391 
C 3699 1935 3974 2377 3974 2910 
C 3974 3775 3155 4480 2138 4480 
C 1094 4480 294 3768 294 2910 
C 294 2377 576 1922 890 1416 
C 1171 961 1325 686 1395 314 
L 877 314 
C 512 314 493 365 461 454 
C 422 557 410 641 346 935 
L 230 935 
L 416 0 
L 1382 0 
C 1517 0 1523 6 1523 102 
C 1523 558 1286 1154 1178 1429 
C 973 1929 781 2416 781 2916 
C 781 3871 1466 4377 2131 4377 
C 2829 4377 3488 3851 3488 2916 
C 3488 2422 3315 1981 3078 1397 
C 2976 1135 2746 551 2746 102 
C 2746 0 2752 0 2886 0 
L 3853 0 
L 4038 935 
z
" transform="scale(0.015625)"/>
       <path id="CMR17-5d" d="M 915 4767 
L 90 4767 
L 90 4544 
L 691 4544 
L 691 -1377 
L 90 -1377 
L 90 -1600 
L 915 -1600 
L 915 4767 
z
" transform="scale(0.015625)"/>
      </defs>
      <use xlink:href="#CMMI12-52" transform="scale(0.996264)"/>
      <use xlink:href="#CMR17-5b" transform="translate(105.146928 0) scale(0.996264)"/>
      <use xlink:href="#CMR17-4d" transform="translate(130.017987 0) scale(0.996264)"/>
      <use xlink:href="#CMR17-a" transform="translate(214.704927 0) scale(0.996264)"/>
      <use xlink:href="#CMR17-5d" transform="translate(281.214808 0) scale(0.996264)"/>
     </g>
    </g>
   </g>
   <g id="matplotlib.axis_2">
    <g id="ytick_1">
     <g id="line2d_54">
      <path d="M 31.955052 124.967229 
L 227.255052 124.967229 
" clip-path="url(#pa0108bd07c)" style="fill: none; stroke-dasharray: 1.85,0.8; stroke-dashoffset: 0; stroke: #000000; stroke-opacity: 0.5; stroke-width: 0.5"/>
     </g>
     <g id="line2d_55">
      <defs>
       <path id="mc758049d82" d="M 0 0 
L 3 0 
" style="stroke: #000000; stroke-width: 0.5"/>
      </defs>
      <g>
       <use xlink:href="#mc758049d82" x="31.955052" y="124.967229" style="stroke: #000000; stroke-width: 0.5"/>
      </g>
     </g>
     <g id="line2d_56">
      <defs>
       <path id="m5f40d640e7" d="M 0 0 
L -3 0 
" style="stroke: #000000; stroke-width: 0.5"/>
      </defs>
      <g>
       <use xlink:href="#m5f40d640e7" x="227.255052" y="124.967229" style="stroke: #000000; stroke-width: 0.5"/>
      </g>
     </g>
     <g id="text_5">
      <!-- $\mathdefault{7}$ -->
      <g transform="translate(23.473716 128.426478) scale(0.1 -0.1)">
       <defs>
        <path id="CMR17-37" d="M 2886 3941 
L 2886 4081 
L 1382 4081 
C 634 4081 621 4165 595 4288 
L 480 4288 
L 294 3094 
L 410 3094 
C 429 3215 474 3540 550 3661 
C 589 3712 1062 3712 1171 3712 
L 2579 3712 
L 1869 2661 
C 1395 1954 1069 999 1069 165 
C 1069 89 1069 -128 1299 -128 
C 1530 -128 1530 89 1530 171 
L 1530 465 
C 1530 1508 1709 2196 2003 2636 
L 2886 3941 
z
" transform="scale(0.015625)"/>
       </defs>
       <use xlink:href="#CMR17-37" transform="scale(0.996264)"/>
      </g>
     </g>
    </g>
    <g id="ytick_2">
     <g id="line2d_57">
      <path d="M 31.955052 89.289188 
L 227.255052 89.289188 
" clip-path="url(#pa0108bd07c)" style="fill: none; stroke-dasharray: 1.85,0.8; stroke-dashoffset: 0; stroke: #000000; stroke-opacity: 0.5; stroke-width: 0.5"/>
     </g>
     <g id="line2d_58">
      <g>
       <use xlink:href="#mc758049d82" x="31.955052" y="89.289188" style="stroke: #000000; stroke-width: 0.5"/>
      </g>
     </g>
     <g id="line2d_59">
      <g>
       <use xlink:href="#m5f40d640e7" x="227.255052" y="89.289188" style="stroke: #000000; stroke-width: 0.5"/>
      </g>
     </g>
     <g id="text_6">
      <!-- $\mathdefault{8}$ -->
      <g transform="translate(23.473716 92.748437) scale(0.1 -0.1)">
       <defs>
        <path id="CMR17-38" d="M 1741 2264 
C 2144 2467 2554 2773 2554 3263 
C 2554 3841 1990 4179 1472 4179 
C 890 4179 378 3759 378 3180 
C 378 3021 416 2747 666 2505 
C 730 2442 998 2251 1171 2130 
C 883 1983 211 1634 211 934 
C 211 279 838 -128 1459 -128 
C 2144 -128 2720 362 2720 1010 
C 2720 1590 2330 1857 2074 2029 
L 1741 2264 
z
M 902 2822 
C 851 2854 595 3051 595 3351 
C 595 3739 998 4032 1459 4032 
C 1965 4032 2336 3676 2336 3262 
C 2336 2669 1670 2331 1638 2331 
C 1632 2331 1626 2331 1574 2370 
L 902 2822 
z
M 2080 1519 
C 2176 1449 2483 1240 2483 851 
C 2483 381 2010 25 1472 25 
C 890 25 448 438 448 940 
C 448 1443 838 1862 1280 2060 
L 2080 1519 
z
" transform="scale(0.015625)"/>
       </defs>
       <use xlink:href="#CMR17-38" transform="scale(0.996264)"/>
      </g>
     </g>
    </g>
    <g id="ytick_3">
     <g id="line2d_60">
      <path d="M 31.955052 53.611147 
L 227.255052 53.611147 
" clip-path="url(#pa0108bd07c)" style="fill: none; stroke-dasharray: 1.85,0.8; stroke-dashoffset: 0; stroke: #000000; stroke-opacity: 0.5; stroke-width: 0.5"/>
     </g>
     <g id="line2d_61">
      <g>
       <use xlink:href="#mc758049d82" x="31.955052" y="53.611147" style="stroke: #000000; stroke-width: 0.5"/>
      </g>
     </g>
     <g id="line2d_62">
      <g>
       <use xlink:href="#m5f40d640e7" x="227.255052" y="53.611147" style="stroke: #000000; stroke-width: 0.5"/>
      </g>
     </g>
     <g id="text_7">
      <!-- $\mathdefault{9}$ -->
      <g transform="translate(23.473716 57.070397) scale(0.1 -0.1)">
       <defs>
        <path id="CMR17-39" d="M 2253 1864 
C 2253 464 1670 31 1190 31 
C 1043 31 685 31 538 294 
C 704 268 826 357 826 518 
C 826 692 685 749 595 749 
C 538 749 365 723 365 506 
C 365 71 742 -128 1203 -128 
C 1939 -128 2688 674 2688 2073 
C 2688 3817 1971 4179 1485 4179 
C 851 4179 243 3628 243 2778 
C 243 1991 762 1408 1414 1408 
C 1952 1408 2189 1903 2253 2112 
L 2253 1864 
z
M 1427 1510 
C 1254 1510 1011 1542 813 1922 
C 678 2169 678 2461 678 2771 
C 678 3146 678 3405 858 3684 
C 947 3817 1114 4032 1485 4032 
C 2240 4032 2240 2885 2240 2632 
C 2240 2182 2035 1510 1427 1510 
z
" transform="scale(0.015625)"/>
       </defs>
       <use xlink:href="#CMR17-39" transform="scale(0.996264)"/>
      </g>
     </g>
    </g>
    <g id="ytick_4">
     <g id="line2d_63">
      <path d="M 31.955052 17.933107 
L 227.255052 17.933107 
" clip-path="url(#pa0108bd07c)" style="fill: none; stroke-dasharray: 1.85,0.8; stroke-dashoffset: 0; stroke: #000000; stroke-opacity: 0.5; stroke-width: 0.5"/>
     </g>
     <g id="line2d_64">
      <g>
       <use xlink:href="#mc758049d82" x="31.955052" y="17.933107" style="stroke: #000000; stroke-width: 0.5"/>
      </g>
     </g>
     <g id="line2d_65">
      <g>
       <use xlink:href="#m5f40d640e7" x="227.255052" y="17.933107" style="stroke: #000000; stroke-width: 0.5"/>
      </g>
     </g>
     <g id="text_8">
      <!-- $\mathdefault{10}$ -->
      <g transform="translate(18.492381 21.392356) scale(0.1 -0.1)">
       <use xlink:href="#CMR17-31" transform="scale(0.996264)"/>
       <use xlink:href="#CMR17-30" transform="translate(45.690477 0) scale(0.996264)"/>
      </g>
     </g>
    </g>
    <g id="ytick_5">
     <g id="line2d_66">
      <defs>
       <path id="m35210bc872" d="M 0 0 
L 1.5 0 
" style="stroke: #000000; stroke-width: 0.5"/>
      </defs>
      <g>
       <use xlink:href="#m35210bc872" x="31.955052" y="146.374053" style="stroke: #000000; stroke-width: 0.5"/>
      </g>
     </g>
     <g id="line2d_67">
      <defs>
       <path id="ma94c608188" d="M 0 0 
L -1.5 0 
" style="stroke: #000000; stroke-width: 0.5"/>
      </defs>
      <g>
       <use xlink:href="#ma94c608188" x="227.255052" y="146.374053" style="stroke: #000000; stroke-width: 0.5"/>
      </g>
     </g>
    </g>
    <g id="ytick_6">
     <g id="line2d_68">
      <g>
       <use xlink:href="#m35210bc872" x="31.955052" y="139.238445" style="stroke: #000000; stroke-width: 0.5"/>
      </g>
     </g>
     <g id="line2d_69">
      <g>
       <use xlink:href="#ma94c608188" x="227.255052" y="139.238445" style="stroke: #000000; stroke-width: 0.5"/>
      </g>
     </g>
    </g>
    <g id="ytick_7">
     <g id="line2d_70">
      <g>
       <use xlink:href="#m35210bc872" x="31.955052" y="132.102837" style="stroke: #000000; stroke-width: 0.5"/>
      </g>
     </g>
     <g id="line2d_71">
      <g>
       <use xlink:href="#ma94c608188" x="227.255052" y="132.102837" style="stroke: #000000; stroke-width: 0.5"/>
      </g>
     </g>
    </g>
    <g id="ytick_8">
     <g id="line2d_72">
      <g>
       <use xlink:href="#m35210bc872" x="31.955052" y="117.831621" style="stroke: #000000; stroke-width: 0.5"/>
      </g>
     </g>
     <g id="line2d_73">
      <g>
       <use xlink:href="#ma94c608188" x="227.255052" y="117.831621" style="stroke: #000000; stroke-width: 0.5"/>
      </g>
     </g>
    </g>
    <g id="ytick_9">
     <g id="line2d_74">
      <g>
       <use xlink:href="#m35210bc872" x="31.955052" y="110.696013" style="stroke: #000000; stroke-width: 0.5"/>
      </g>
     </g>
     <g id="line2d_75">
      <g>
       <use xlink:href="#ma94c608188" x="227.255052" y="110.696013" style="stroke: #000000; stroke-width: 0.5"/>
      </g>
     </g>
    </g>
    <g id="ytick_10">
     <g id="line2d_76">
      <g>
       <use xlink:href="#m35210bc872" x="31.955052" y="103.560405" style="stroke: #000000; stroke-width: 0.5"/>
      </g>
     </g>
     <g id="line2d_77">
      <g>
       <use xlink:href="#ma94c608188" x="227.255052" y="103.560405" style="stroke: #000000; stroke-width: 0.5"/>
      </g>
     </g>
    </g>
    <g id="ytick_11">
     <g id="line2d_78">
      <g>
       <use xlink:href="#m35210bc872" x="31.955052" y="96.424796" style="stroke: #000000; stroke-width: 0.5"/>
      </g>
     </g>
     <g id="line2d_79">
      <g>
       <use xlink:href="#ma94c608188" x="227.255052" y="96.424796" style="stroke: #000000; stroke-width: 0.5"/>
      </g>
     </g>
    </g>
    <g id="ytick_12">
     <g id="line2d_80">
      <g>
       <use xlink:href="#m35210bc872" x="31.955052" y="82.15358" style="stroke: #000000; stroke-width: 0.5"/>
      </g>
     </g>
     <g id="line2d_81">
      <g>
       <use xlink:href="#ma94c608188" x="227.255052" y="82.15358" style="stroke: #000000; stroke-width: 0.5"/>
      </g>
     </g>
    </g>
    <g id="ytick_13">
     <g id="line2d_82">
      <g>
       <use xlink:href="#m35210bc872" x="31.955052" y="75.017972" style="stroke: #000000; stroke-width: 0.5"/>
      </g>
     </g>
     <g id="line2d_83">
      <g>
       <use xlink:href="#ma94c608188" x="227.255052" y="75.017972" style="stroke: #000000; stroke-width: 0.5"/>
      </g>
     </g>
    </g>
    <g id="ytick_14">
     <g id="line2d_84">
      <g>
       <use xlink:href="#m35210bc872" x="31.955052" y="67.882364" style="stroke: #000000; stroke-width: 0.5"/>
      </g>
     </g>
     <g id="line2d_85">
      <g>
       <use xlink:href="#ma94c608188" x="227.255052" y="67.882364" style="stroke: #000000; stroke-width: 0.5"/>
      </g>
     </g>
    </g>
    <g id="ytick_15">
     <g id="line2d_86">
      <g>
       <use xlink:href="#m35210bc872" x="31.955052" y="60.746756" style="stroke: #000000; stroke-width: 0.5"/>
      </g>
     </g>
     <g id="line2d_87">
      <g>
       <use xlink:href="#ma94c608188" x="227.255052" y="60.746756" style="stroke: #000000; stroke-width: 0.5"/>
      </g>
     </g>
    </g>
    <g id="ytick_16">
     <g id="line2d_88">
      <g>
       <use xlink:href="#m35210bc872" x="31.955052" y="46.475539" style="stroke: #000000; stroke-width: 0.5"/>
      </g>
     </g>
     <g id="line2d_89">
      <g>
       <use xlink:href="#ma94c608188" x="227.255052" y="46.475539" style="stroke: #000000; stroke-width: 0.5"/>
      </g>
     </g>
    </g>
    <g id="ytick_17">
     <g id="line2d_90">
      <g>
       <use xlink:href="#m35210bc872" x="31.955052" y="39.339931" style="stroke: #000000; stroke-width: 0.5"/>
      </g>
     </g>
     <g id="line2d_91">
      <g>
       <use xlink:href="#ma94c608188" x="227.255052" y="39.339931" style="stroke: #000000; stroke-width: 0.5"/>
      </g>
     </g>
    </g>
    <g id="ytick_18">
     <g id="line2d_92">
      <g>
       <use xlink:href="#m35210bc872" x="31.955052" y="32.204323" style="stroke: #000000; stroke-width: 0.5"/>
      </g>
     </g>
     <g id="line2d_93">
      <g>
       <use xlink:href="#ma94c608188" x="227.255052" y="32.204323" style="stroke: #000000; stroke-width: 0.5"/>
      </g>
     </g>
    </g>
    <g id="ytick_19">
     <g id="line2d_94">
      <g>
       <use xlink:href="#m35210bc872" x="31.955052" y="25.068715" style="stroke: #000000; stroke-width: 0.5"/>
      </g>
     </g>
     <g id="line2d_95">
      <g>
       <use xlink:href="#ma94c608188" x="227.255052" y="25.068715" style="stroke: #000000; stroke-width: 0.5"/>
      </g>
     </g>
    </g>
    <g id="ytick_20">
     <g id="line2d_96">
      <g>
       <use xlink:href="#m35210bc872" x="31.955052" y="10.797499" style="stroke: #000000; stroke-width: 0.5"/>
      </g>
     </g>
     <g id="line2d_97">
      <g>
       <use xlink:href="#ma94c608188" x="227.255052" y="10.797499" style="stroke: #000000; stroke-width: 0.5"/>
      </g>
     </g>
    </g>
    <g id="ytick_21">
     <g id="line2d_98">
      <g>
       <use xlink:href="#m35210bc872" x="31.955052" y="3.66189" style="stroke: #000000; stroke-width: 0.5"/>
      </g>
     </g>
     <g id="line2d_99">
      <g>
       <use xlink:href="#ma94c608188" x="227.255052" y="3.66189" style="stroke: #000000; stroke-width: 0.5"/>
      </g>
     </g>
    </g>
    <g id="text_9">
     <!-- $\overline{Latency}$ [ns] -->
     <g transform="translate(12.001721 103.433126) rotate(-90) scale(0.1 -0.1)">
      <defs>
       <path id="CMMI12-4c" d="M 2349 3861 
C 2406 4103 2426 4167 2989 4167 
C 3162 4167 3206 4167 3206 4288 
C 3206 4352 3136 4352 3110 4352 
C 2982 4352 2835 4352 2707 4352 
L 1850 4352 
C 1728 4352 1587 4352 1466 4352 
C 1414 4352 1344 4352 1344 4231 
C 1344 4167 1402 4167 1498 4167 
C 1888 4167 1888 4116 1888 4046 
C 1888 4034 1888 3995 1862 3899 
L 998 472 
C 941 249 928 185 480 185 
C 358 185 294 185 294 70 
C 294 0 333 0 461 0 
L 3328 0 
C 3469 0 3475 6 3520 121 
L 4013 1478 
C 4026 1510 4038 1548 4038 1567 
C 4038 1605 4006 1631 3974 1631 
C 3968 1631 3936 1631 3923 1605 
C 3910 1599 3910 1586 3859 1465 
C 3654 905 3366 185 2285 185 
L 1670 185 
C 1581 185 1568 185 1530 192 
C 1459 198 1453 211 1453 262 
C 1453 307 1466 345 1478 401 
L 2349 3861 
z
" transform="scale(0.015625)"/>
       <path id="CMMI12-61" d="M 1926 760 
C 1894 651 1894 639 1805 517 
C 1664 338 1382 64 1082 64 
C 819 64 672 300 672 677 
C 672 1028 870 1743 992 2012 
C 1210 2459 1510 2689 1760 2689 
C 2182 2689 2266 2165 2266 2114 
C 2266 2108 2246 2024 2240 2012 
L 1926 760 
z
M 2336 2395 
C 2266 2561 2093 2816 1760 2816 
C 1037 2816 256 1884 256 939 
C 256 307 627 -64 1062 -64 
C 1414 -64 1715 211 1894 422 
C 1958 45 2259 -64 2451 -64 
C 2643 -64 2797 51 2912 281 
C 3014 498 3104 888 3104 913 
C 3104 945 3078 971 3040 971 
C 2982 971 2976 939 2950 843 
C 2854 466 2733 64 2470 64 
C 2285 64 2272 230 2272 358 
C 2272 505 2291 575 2349 824 
C 2394 984 2426 1124 2477 1309 
C 2714 2267 2771 2497 2771 2535 
C 2771 2625 2701 2695 2605 2695 
C 2400 2695 2349 2472 2336 2395 
z
" transform="scale(0.015625)"/>
       <path id="CMMI12-74" d="M 1286 2566 
L 1875 2566 
C 1997 2566 2061 2566 2061 2681 
C 2061 2752 2022 2752 1894 2752 
L 1331 2752 
L 1568 3692 
C 1594 3781 1594 3794 1594 3840 
C 1594 3943 1510 4000 1427 4000 
C 1376 4000 1229 3981 1178 3775 
L 928 2752 
L 326 2752 
C 198 2752 141 2752 141 2630 
C 141 2566 186 2566 307 2566 
L 877 2566 
L 454 881 
C 403 658 384 594 384 511 
C 384 211 595 -64 954 -64 
C 1600 -64 1946 868 1946 912 
C 1946 951 1920 970 1882 970 
C 1869 970 1843 970 1830 944 
C 1824 938 1818 931 1773 829 
C 1638 511 1344 64 973 64 
C 781 64 768 224 768 364 
C 768 370 768 492 787 568 
L 1286 2566 
z
" transform="scale(0.015625)"/>
       <path id="CMMI12-65" d="M 1146 1479 
C 1318 1479 1754 1479 2061 1595 
C 2547 1783 2592 2158 2592 2274 
C 2592 2558 2349 2816 1926 2816 
C 1254 2816 288 2210 288 1073 
C 288 402 672 -64 1254 -64 
C 2125 -64 2675 609 2675 692 
C 2675 730 2637 762 2611 762 
C 2592 762 2586 756 2528 699 
C 2118 159 1510 64 1267 64 
C 902 64 710 350 710 822 
C 710 911 710 1071 806 1479 
L 1146 1479 
z
M 838 1600 
C 1114 2592 1722 2689 1926 2689 
C 2208 2689 2400 2522 2400 2277 
C 2400 1600 1376 1600 1107 1600 
L 838 1600 
z
" transform="scale(0.015625)"/>
       <path id="CMMI12-6e" d="M 1318 1871 
C 1331 1910 1491 2229 1728 2433 
C 1894 2586 2112 2689 2362 2689 
C 2618 2689 2707 2497 2707 2242 
C 2707 1878 2445 1150 2317 805 
C 2259 651 2227 568 2227 453 
C 2227 166 2426 -64 2733 -64 
C 3328 -64 3552 875 3552 913 
C 3552 945 3526 971 3488 971 
C 3430 971 3424 952 3392 843 
C 3245 319 3002 64 2752 64 
C 2688 64 2586 64 2586 269 
C 2586 429 2656 621 2694 710 
C 2822 1063 3091 1780 3091 2145 
C 3091 2528 2867 2816 2381 2816 
C 1811 2816 1510 2415 1395 2255 
C 1376 2618 1114 2816 832 2816 
C 627 2816 486 2695 378 2478 
C 262 2248 173 1865 173 1839 
C 173 1814 198 1782 243 1782 
C 294 1782 301 1788 339 1935 
C 442 2325 557 2689 813 2689 
C 960 2689 1011 2586 1011 2395 
C 1011 2254 947 2005 902 1807 
L 723 1118 
C 698 996 627 709 595 594 
C 550 428 480 128 480 96 
C 480 6 550 -64 646 -64 
C 723 -64 813 -26 864 70 
C 877 102 934 326 966 453 
L 1107 1028 
L 1318 1871 
z
" transform="scale(0.015625)"/>
       <path id="CMMI12-63" d="M 2502 2431 
C 2381 2431 2323 2431 2234 2355 
C 2195 2323 2125 2227 2125 2125 
C 2125 1997 2221 1920 2342 1920 
C 2496 1920 2669 2044 2669 2292 
C 2669 2588 2374 2816 1933 2816 
C 1094 2816 256 1903 256 996 
C 256 441 602 -64 1254 -64 
C 2125 -64 2675 622 2675 706 
C 2675 744 2637 776 2611 776 
C 2592 776 2586 770 2528 713 
C 2118 162 1510 64 1267 64 
C 826 64 685 446 685 764 
C 685 988 794 1605 1024 2039 
C 1190 2338 1536 2682 1939 2682 
C 2022 2682 2374 2682 2502 2431 
z
" transform="scale(0.015625)"/>
       <path id="CMMI12-79" d="M 1683 -700 
C 1510 -939 1261 -1152 947 -1152 
C 870 -1152 563 -1152 467 -889 
C 486 -895 518 -895 531 -895 
C 723 -895 851 -729 851 -582 
C 851 -435 730 -384 634 -384 
C 531 -384 307 -458 307 -759 
C 307 -1071 582 -1286 947 -1286 
C 1587 -1286 2234 -700 2413 6 
L 3040 2485 
C 3046 2517 3059 2556 3059 2594 
C 3059 2689 2982 2753 2886 2753 
C 2829 2753 2694 2727 2643 2535 
L 2170 658 
C 2138 543 2138 530 2086 460 
C 1958 281 1747 64 1440 64 
C 1082 64 1050 415 1050 588 
C 1050 952 1222 1443 1395 1903 
C 1466 2088 1504 2178 1504 2305 
C 1504 2574 1312 2816 998 2816 
C 410 2816 173 1890 173 1839 
C 173 1814 198 1782 243 1782 
C 301 1782 307 1807 333 1897 
C 486 2433 730 2689 979 2689 
C 1037 2689 1146 2689 1146 2478 
C 1146 2312 1075 2127 979 1884 
C 666 1047 666 837 666 683 
C 666 77 1101 -64 1421 -64 
C 1606 -64 1837 -6 2061 230 
L 2067 224 
C 1971 -147 1907 -392 1683 -700 
z
" transform="scale(0.015625)"/>
       <path id="CMR17-6e" d="M 2656 1933 
C 2656 2259 2592 2790 1837 2790 
C 1331 2790 1069 2400 973 2144 
L 966 2144 
L 966 2790 
L 211 2720 
L 211 2554 
C 589 2554 646 2515 646 2208 
L 646 428 
C 646 184 621 153 211 153 
L 211 -13 
C 365 0 646 0 813 0 
C 979 0 1267 0 1421 -13 
L 1421 153 
C 1011 153 986 178 986 428 
L 986 1658 
C 986 2247 1344 2688 1792 2688 
C 2266 2688 2317 2266 2317 1958 
L 2317 428 
C 2317 184 2291 153 1882 153 
L 1882 -13 
C 2035 0 2317 0 2483 0 
C 2650 0 2938 0 3091 -13 
L 3091 153 
C 2682 153 2656 178 2656 428 
L 2656 1933 
z
" transform="scale(0.015625)"/>
       <path id="CMR17-73" d="M 1978 2697 
C 1978 2813 1971 2819 1933 2819 
C 1907 2819 1901 2813 1824 2717 
C 1805 2691 1747 2626 1728 2601 
C 1523 2819 1235 2819 1126 2819 
C 416 2819 160 2447 160 2076 
C 160 1498 813 1365 998 1325 
C 1402 1243 1542 1217 1677 1101 
C 1760 1025 1901 884 1901 654 
C 1901 384 1747 38 1158 38 
C 602 38 403 460 288 1021 
C 269 1110 269 1117 218 1117 
C 166 1117 160 1110 160 983 
L 160 63 
C 160 -51 166 -58 205 -58 
C 237 -58 243 -51 275 0 
C 314 57 410 211 448 276 
C 576 103 800 -64 1158 -64 
C 1792 -64 2131 283 2131 784 
C 2131 1112 1958 1285 1875 1362 
C 1683 1561 1459 1606 1190 1657 
C 838 1735 390 1825 390 2217 
C 390 2383 480 2737 1126 2737 
C 1811 2737 1850 2094 1862 1888 
C 1869 1856 1901 1849 1920 1849 
C 1978 1849 1978 1869 1978 1978 
L 1978 2697 
z
" transform="scale(0.015625)"/>
      </defs>
      <use xlink:href="#CMMI12-4c" transform="scale(0.996264)"/>
      <use xlink:href="#CMMI12-61" transform="translate(66.370875 0) scale(0.996264)"/>
      <use xlink:href="#CMMI12-74" transform="translate(117.578733 0) scale(0.996264)"/>
      <use xlink:href="#CMMI12-65" transform="translate(152.805063 0) scale(0.996264)"/>
      <use xlink:href="#CMMI12-6e" transform="translate(198.017064 0) scale(0.996264)"/>
      <use xlink:href="#CMMI12-63" transform="translate(256.247112 0) scale(0.996264)"/>
      <use xlink:href="#CMMI12-79" transform="translate(298.230345 0) scale(0.996264)"/>
      <use xlink:href="#CMR17-5b" transform="translate(379.445092 0) scale(0.996264)"/>
      <use xlink:href="#CMR17-6e" transform="translate(404.316151 0) scale(0.996264)"/>
      <use xlink:href="#CMR17-73" transform="translate(455.211521 0) scale(0.996264)"/>
      <use xlink:href="#CMR17-5d" transform="translate(491.012858 0) scale(0.996264)"/>
      <path d="M 0 80.032884 
L 349.369126 80.032884 
L 349.369126 84.017834 
L 0 84.017834 
L 0 80.032884 
z
"/>
     </g>
    </g>
   </g>
   <g id="line2d_100">
    <path d="M 40.832324 87.832942 
L 63.025506 61.547691 
L 85.218688 78.585776 
L 107.41187 79.532336 
L 129.605052 64.02331 
L 151.798233 72.251103 
L 173.991415 65.115495 
L 196.184597 76.182969 
L 218.377779 75.746095 
" clip-path="url(#pa0108bd07c)" style="fill: none; stroke: #cc6677; stroke-linecap: square"/>
    <defs>
     <path id="m55dfec0bb9" d="M 0 1.5 
C 0.397805 1.5 0.77937 1.341951 1.06066 1.06066 
C 1.341951 0.77937 1.5 0.397805 1.5 0 
C 1.5 -0.397805 1.341951 -0.77937 1.06066 -1.06066 
C 0.77937 -1.341951 0.397805 -1.5 0 -1.5 
C -0.397805 -1.5 -0.77937 -1.341951 -1.06066 -1.06066 
C -1.341951 -0.77937 -1.5 -0.397805 -1.5 0 
C -1.5 0.397805 -1.341951 0.77937 -1.06066 1.06066 
C -0.77937 1.341951 -0.397805 1.5 0 1.5 
z
" style="stroke: #cc6677"/>
    </defs>
    <g clip-path="url(#pa0108bd07c)">
     <use xlink:href="#m55dfec0bb9" x="40.832324" y="87.832942" style="fill: #cc6677; stroke: #cc6677"/>
     <use xlink:href="#m55dfec0bb9" x="63.025506" y="61.547691" style="fill: #cc6677; stroke: #cc6677"/>
     <use xlink:href="#m55dfec0bb9" x="85.218688" y="78.585776" style="fill: #cc6677; stroke: #cc6677"/>
     <use xlink:href="#m55dfec0bb9" x="107.41187" y="79.532336" style="fill: #cc6677; stroke: #cc6677"/>
     <use xlink:href="#m55dfec0bb9" x="129.605052" y="64.02331" style="fill: #cc6677; stroke: #cc6677"/>
     <use xlink:href="#m55dfec0bb9" x="151.798233" y="72.251103" style="fill: #cc6677; stroke: #cc6677"/>
     <use xlink:href="#m55dfec0bb9" x="173.991415" y="65.115495" style="fill: #cc6677; stroke: #cc6677"/>
     <use xlink:href="#m55dfec0bb9" x="196.184597" y="76.182969" style="fill: #cc6677; stroke: #cc6677"/>
     <use xlink:href="#m55dfec0bb9" x="218.377779" y="75.746095" style="fill: #cc6677; stroke: #cc6677"/>
    </g>
   </g>
   <g id="line2d_101">
    <path d="M 40.832324 75.600471 
L 63.025506 68.319238 
L 85.218688 57.76145 
L 107.41187 58.271136 
L 129.605052 65.916431 
L 151.798233 69.921109 
L 173.991415 73.052039 
L 196.184597 49.679282 
L 218.377779 62.421439 
" clip-path="url(#pa0108bd07c)" style="fill: none; stroke: #332288; stroke-linecap: square"/>
    <defs>
     <path id="m6990b7cef8" d="M 0 1.5 
C 0.397805 1.5 0.77937 1.341951 1.06066 1.06066 
C 1.341951 0.77937 1.5 0.397805 1.5 0 
C 1.5 -0.397805 1.341951 -0.77937 1.06066 -1.06066 
C 0.77937 -1.341951 0.397805 -1.5 0 -1.5 
C -0.397805 -1.5 -0.77937 -1.341951 -1.06066 -1.06066 
C -1.341951 -0.77937 -1.5 -0.397805 -1.5 0 
C -1.5 0.397805 -1.341951 0.77937 -1.06066 1.06066 
C -0.77937 1.341951 -0.397805 1.5 0 1.5 
z
" style="stroke: #332288"/>
    </defs>
    <g clip-path="url(#pa0108bd07c)">
     <use xlink:href="#m6990b7cef8" x="40.832324" y="75.600471" style="fill: #332288; stroke: #332288"/>
     <use xlink:href="#m6990b7cef8" x="63.025506" y="68.319238" style="fill: #332288; stroke: #332288"/>
     <use xlink:href="#m6990b7cef8" x="85.218688" y="57.76145" style="fill: #332288; stroke: #332288"/>
     <use xlink:href="#m6990b7cef8" x="107.41187" y="58.271136" style="fill: #332288; stroke: #332288"/>
     <use xlink:href="#m6990b7cef8" x="129.605052" y="65.916431" style="fill: #332288; stroke: #332288"/>
     <use xlink:href="#m6990b7cef8" x="151.798233" y="69.921109" style="fill: #332288; stroke: #332288"/>
     <use xlink:href="#m6990b7cef8" x="173.991415" y="73.052039" style="fill: #332288; stroke: #332288"/>
     <use xlink:href="#m6990b7cef8" x="196.184597" y="49.679282" style="fill: #332288; stroke: #332288"/>
     <use xlink:href="#m6990b7cef8" x="218.377779" y="62.421439" style="fill: #332288; stroke: #332288"/>
    </g>
   </g>
   <g id="line2d_102">
    <path d="M 40.832324 63.440812 
L 63.025506 47.931786 
L 85.218688 41.888363 
L 107.41187 67.882364 
L 129.605052 39.485556 
L 151.798233 23.97653 
L 173.991415 28.34527 
L 196.184597 28.490894 
L 218.377779 19.098104 
" clip-path="url(#pa0108bd07c)" style="fill: none; stroke: #ddcc77; stroke-linecap: square"/>
    <defs>
     <path id="m550d58540c" d="M 0 1.5 
C 0.397805 1.5 0.77937 1.341951 1.06066 1.06066 
C 1.341951 0.77937 1.5 0.397805 1.5 0 
C 1.5 -0.397805 1.341951 -0.77937 1.06066 -1.06066 
C 0.77937 -1.341951 0.397805 -1.5 0 -1.5 
C -0.397805 -1.5 -0.77937 -1.341951 -1.06066 -1.06066 
C -1.341951 -0.77937 -1.5 -0.397805 -1.5 0 
C -1.5 0.397805 -1.341951 0.77937 -1.06066 1.06066 
C -0.77937 1.341951 -0.397805 1.5 0 1.5 
z
" style="stroke: #ddcc77"/>
    </defs>
    <g clip-path="url(#pa0108bd07c)">
     <use xlink:href="#m550d58540c" x="40.832324" y="63.440812" style="fill: #ddcc77; stroke: #ddcc77"/>
     <use xlink:href="#m550d58540c" x="63.025506" y="47.931786" style="fill: #ddcc77; stroke: #ddcc77"/>
     <use xlink:href="#m550d58540c" x="85.218688" y="41.888363" style="fill: #ddcc77; stroke: #ddcc77"/>
     <use xlink:href="#m550d58540c" x="107.41187" y="67.882364" style="fill: #ddcc77; stroke: #ddcc77"/>
     <use xlink:href="#m550d58540c" x="129.605052" y="39.485556" style="fill: #ddcc77; stroke: #ddcc77"/>
     <use xlink:href="#m550d58540c" x="151.798233" y="23.97653" style="fill: #ddcc77; stroke: #ddcc77"/>
     <use xlink:href="#m550d58540c" x="173.991415" y="28.34527" style="fill: #ddcc77; stroke: #ddcc77"/>
     <use xlink:href="#m550d58540c" x="196.184597" y="28.490894" style="fill: #ddcc77; stroke: #ddcc77"/>
     <use xlink:href="#m550d58540c" x="218.377779" y="19.098104" style="fill: #ddcc77; stroke: #ddcc77"/>
    </g>
   </g>
   <g id="line2d_103">
    <path d="M 40.832324 87.032006 
L 63.025506 66.571742 
L 85.218688 84.119513 
L 107.41187 104.36134 
L 129.605052 113.899755 
L 151.798233 97.298544 
L 173.991415 80.697334 
L 196.184597 70.430795 
L 218.377779 77.930465 
" clip-path="url(#pa0108bd07c)" style="fill: none; stroke: #117733; stroke-linecap: square"/>
    <defs>
     <path id="m4f679dbafc" d="M 0 1.5 
C 0.397805 1.5 0.77937 1.341951 1.06066 1.06066 
C 1.341951 0.77937 1.5 0.397805 1.5 0 
C 1.5 -0.397805 1.341951 -0.77937 1.06066 -1.06066 
C 0.77937 -1.341951 0.397805 -1.5 0 -1.5 
C -0.397805 -1.5 -0.77937 -1.341951 -1.06066 -1.06066 
C -1.341951 -0.77937 -1.5 -0.397805 -1.5 0 
C -1.5 0.397805 -1.341951 0.77937 -1.06066 1.06066 
C -0.77937 1.341951 -0.397805 1.5 0 1.5 
z
" style="stroke: #117733"/>
    </defs>
    <g clip-path="url(#pa0108bd07c)">
     <use xlink:href="#m4f679dbafc" x="40.832324" y="87.032006" style="fill: #117733; stroke: #117733"/>
     <use xlink:href="#m4f679dbafc" x="63.025506" y="66.571742" style="fill: #117733; stroke: #117733"/>
     <use xlink:href="#m4f679dbafc" x="85.218688" y="84.119513" style="fill: #117733; stroke: #117733"/>
     <use xlink:href="#m4f679dbafc" x="107.41187" y="104.36134" style="fill: #117733; stroke: #117733"/>
     <use xlink:href="#m4f679dbafc" x="129.605052" y="113.899755" style="fill: #117733; stroke: #117733"/>
     <use xlink:href="#m4f679dbafc" x="151.798233" y="97.298544" style="fill: #117733; stroke: #117733"/>
     <use xlink:href="#m4f679dbafc" x="173.991415" y="80.697334" style="fill: #117733; stroke: #117733"/>
     <use xlink:href="#m4f679dbafc" x="196.184597" y="70.430795" style="fill: #117733; stroke: #117733"/>
     <use xlink:href="#m4f679dbafc" x="218.377779" y="77.930465" style="fill: #117733; stroke: #117733"/>
    </g>
   </g>
   <g id="line2d_104">
    <path d="M 40.832324 68.173613 
L 63.025506 61.620504 
L 85.218688 61.620504 
L 107.41187 64.532997 
L 129.605052 29.728704 
L 151.798233 12.39937 
L 173.991415 12.108121 
L 196.184597 21.428099 
L 218.377779 20.335914 
" clip-path="url(#pa0108bd07c)" style="fill: none; stroke: #88ccee; stroke-linecap: square"/>
    <defs>
     <path id="m2a0dcfcddd" d="M 0 1.5 
C 0.397805 1.5 0.77937 1.341951 1.06066 1.06066 
C 1.341951 0.77937 1.5 0.397805 1.5 0 
C 1.5 -0.397805 1.341951 -0.77937 1.06066 -1.06066 
C 0.77937 -1.341951 0.397805 -1.5 0 -1.5 
C -0.397805 -1.5 -0.77937 -1.341951 -1.06066 -1.06066 
C -1.341951 -0.77937 -1.5 -0.397805 -1.5 0 
C -1.5 0.397805 -1.341951 0.77937 -1.06066 1.06066 
C -0.77937 1.341951 -0.397805 1.5 0 1.5 
z
" style="stroke: #88ccee"/>
    </defs>
    <g clip-path="url(#pa0108bd07c)">
     <use xlink:href="#m2a0dcfcddd" x="40.832324" y="68.173613" style="fill: #88ccee; stroke: #88ccee"/>
     <use xlink:href="#m2a0dcfcddd" x="63.025506" y="61.620504" style="fill: #88ccee; stroke: #88ccee"/>
     <use xlink:href="#m2a0dcfcddd" x="85.218688" y="61.620504" style="fill: #88ccee; stroke: #88ccee"/>
     <use xlink:href="#m2a0dcfcddd" x="107.41187" y="64.532997" style="fill: #88ccee; stroke: #88ccee"/>
     <use xlink:href="#m2a0dcfcddd" x="129.605052" y="29.728704" style="fill: #88ccee; stroke: #88ccee"/>
     <use xlink:href="#m2a0dcfcddd" x="151.798233" y="12.39937" style="fill: #88ccee; stroke: #88ccee"/>
     <use xlink:href="#m2a0dcfcddd" x="173.991415" y="12.108121" style="fill: #88ccee; stroke: #88ccee"/>
     <use xlink:href="#m2a0dcfcddd" x="196.184597" y="21.428099" style="fill: #88ccee; stroke: #88ccee"/>
     <use xlink:href="#m2a0dcfcddd" x="218.377779" y="20.335914" style="fill: #88ccee; stroke: #88ccee"/>
    </g>
   </g>
   <g id="line2d_105">
    <path d="M 40.832324 95.186987 
L 63.025506 88.41544 
L 85.218688 87.46888 
L 107.41187 90.59981 
L 129.605052 55.941142 
L 151.798233 34.170256 
L 173.991415 35.262441 
L 196.184597 40.86899 
L 218.377779 24.777466 
" clip-path="url(#pa0108bd07c)" style="fill: none; stroke: #882255; stroke-linecap: square"/>
    <defs>
     <path id="m5ec7ec9388" d="M 0 1.5 
C 0.397805 1.5 0.77937 1.341951 1.06066 1.06066 
C 1.341951 0.77937 1.5 0.397805 1.5 0 
C 1.5 -0.397805 1.341951 -0.77937 1.06066 -1.06066 
C 0.77937 -1.341951 0.397805 -1.5 0 -1.5 
C -0.397805 -1.5 -0.77937 -1.341951 -1.06066 -1.06066 
C -1.341951 -0.77937 -1.5 -0.397805 -1.5 0 
C -1.5 0.397805 -1.341951 0.77937 -1.06066 1.06066 
C -0.77937 1.341951 -0.397805 1.5 0 1.5 
z
" style="stroke: #882255"/>
    </defs>
    <g clip-path="url(#pa0108bd07c)">
     <use xlink:href="#m5ec7ec9388" x="40.832324" y="95.186987" style="fill: #882255; stroke: #882255"/>
     <use xlink:href="#m5ec7ec9388" x="63.025506" y="88.41544" style="fill: #882255; stroke: #882255"/>
     <use xlink:href="#m5ec7ec9388" x="85.218688" y="87.46888" style="fill: #882255; stroke: #882255"/>
     <use xlink:href="#m5ec7ec9388" x="107.41187" y="90.59981" style="fill: #882255; stroke: #882255"/>
     <use xlink:href="#m5ec7ec9388" x="129.605052" y="55.941142" style="fill: #882255; stroke: #882255"/>
     <use xlink:href="#m5ec7ec9388" x="151.798233" y="34.170256" style="fill: #882255; stroke: #882255"/>
     <use xlink:href="#m5ec7ec9388" x="173.991415" y="35.262441" style="fill: #882255; stroke: #882255"/>
     <use xlink:href="#m5ec7ec9388" x="196.184597" y="40.86899" style="fill: #882255; stroke: #882255"/>
     <use xlink:href="#m5ec7ec9388" x="218.377779" y="24.777466" style="fill: #882255; stroke: #882255"/>
    </g>
   </g>
   <g id="line2d_106">
    <path d="M 40.832324 44.436794 
L 63.025506 23.830905 
L 85.218688 52.300526 
L 107.41187 64.678621 
L 129.605052 62.785501 
L 151.798233 38.757433 
L 173.991415 34.170256 
L 196.184597 10.215 
L 218.377779 35.917752 
" clip-path="url(#pa0108bd07c)" style="fill: none; stroke: #44aa99; stroke-linecap: square"/>
    <defs>
     <path id="m0ee0e8ea58" d="M 0 1.5 
C 0.397805 1.5 0.77937 1.341951 1.06066 1.06066 
C 1.341951 0.77937 1.5 0.397805 1.5 0 
C 1.5 -0.397805 1.341951 -0.77937 1.06066 -1.06066 
C 0.77937 -1.341951 0.397805 -1.5 0 -1.5 
C -0.397805 -1.5 -0.77937 -1.341951 -1.06066 -1.06066 
C -1.341951 -0.77937 -1.5 -0.397805 -1.5 0 
C -1.5 0.397805 -1.341951 0.77937 -1.06066 1.06066 
C -0.77937 1.341951 -0.397805 1.5 0 1.5 
z
" style="stroke: #44aa99"/>
    </defs>
    <g clip-path="url(#pa0108bd07c)">
     <use xlink:href="#m0ee0e8ea58" x="40.832324" y="44.436794" style="fill: #44aa99; stroke: #44aa99"/>
     <use xlink:href="#m0ee0e8ea58" x="63.025506" y="23.830905" style="fill: #44aa99; stroke: #44aa99"/>
     <use xlink:href="#m0ee0e8ea58" x="85.218688" y="52.300526" style="fill: #44aa99; stroke: #44aa99"/>
     <use xlink:href="#m0ee0e8ea58" x="107.41187" y="64.678621" style="fill: #44aa99; stroke: #44aa99"/>
     <use xlink:href="#m0ee0e8ea58" x="129.605052" y="62.785501" style="fill: #44aa99; stroke: #44aa99"/>
     <use xlink:href="#m0ee0e8ea58" x="151.798233" y="38.757433" style="fill: #44aa99; stroke: #44aa99"/>
     <use xlink:href="#m0ee0e8ea58" x="173.991415" y="34.170256" style="fill: #44aa99; stroke: #44aa99"/>
     <use xlink:href="#m0ee0e8ea58" x="196.184597" y="10.215" style="fill: #44aa99; stroke: #44aa99"/>
     <use xlink:href="#m0ee0e8ea58" x="218.377779" y="35.917752" style="fill: #44aa99; stroke: #44aa99"/>
    </g>
   </g>
   <g id="line2d_107">
    <path d="M 40.832324 102.17697 
L 63.025506 101.667284 
L 85.218688 96.424796 
L 107.41187 115.137565 
L 129.605052 126.933162 
L 151.798233 124.821604 
L 173.991415 115.792876 
L 196.184597 142.515 
L 218.377779 112.734758 
" clip-path="url(#pa0108bd07c)" style="fill: none; stroke: #999933; stroke-linecap: square"/>
    <defs>
     <path id="m2d8d0b0abb" d="M 0 1.5 
C 0.397805 1.5 0.77937 1.341951 1.06066 1.06066 
C 1.341951 0.77937 1.5 0.397805 1.5 0 
C 1.5 -0.397805 1.341951 -0.77937 1.06066 -1.06066 
C 0.77937 -1.341951 0.397805 -1.5 0 -1.5 
C -0.397805 -1.5 -0.77937 -1.341951 -1.06066 -1.06066 
C -1.341951 -0.77937 -1.5 -0.397805 -1.5 0 
C -1.5 0.397805 -1.341951 0.77937 -1.06066 1.06066 
C -0.77937 1.341951 -0.397805 1.5 0 1.5 
z
" style="stroke: #999933"/>
    </defs>
    <g clip-path="url(#pa0108bd07c)">
     <use xlink:href="#m2d8d0b0abb" x="40.832324" y="102.17697" style="fill: #999933; stroke: #999933"/>
     <use xlink:href="#m2d8d0b0abb" x="63.025506" y="101.667284" style="fill: #999933; stroke: #999933"/>
     <use xlink:href="#m2d8d0b0abb" x="85.218688" y="96.424796" style="fill: #999933; stroke: #999933"/>
     <use xlink:href="#m2d8d0b0abb" x="107.41187" y="115.137565" style="fill: #999933; stroke: #999933"/>
     <use xlink:href="#m2d8d0b0abb" x="129.605052" y="126.933162" style="fill: #999933; stroke: #999933"/>
     <use xlink:href="#m2d8d0b0abb" x="151.798233" y="124.821604" style="fill: #999933; stroke: #999933"/>
     <use xlink:href="#m2d8d0b0abb" x="173.991415" y="115.792876" style="fill: #999933; stroke: #999933"/>
     <use xlink:href="#m2d8d0b0abb" x="196.184597" y="142.515" style="fill: #999933; stroke: #999933"/>
     <use xlink:href="#m2d8d0b0abb" x="218.377779" y="112.734758" style="fill: #999933; stroke: #999933"/>
    </g>
   </g>
   <g id="line2d_108">
    <path d="M 40.832324 79.168275 
L 63.025506 68.39205 
L 85.218688 82.15358 
L 107.41187 94.604488 
L 129.605052 99.118853 
L 151.798233 97.808231 
L 173.991415 84.265138 
L 196.184597 87.541692 
L 218.377779 66.280493 
" clip-path="url(#pa0108bd07c)" style="fill: none; stroke: #aa4499; stroke-linecap: square"/>
    <defs>
     <path id="m1f08a9217d" d="M 0 1.5 
C 0.397805 1.5 0.77937 1.341951 1.06066 1.06066 
C 1.341951 0.77937 1.5 0.397805 1.5 0 
C 1.5 -0.397805 1.341951 -0.77937 1.06066 -1.06066 
C 0.77937 -1.341951 0.397805 -1.5 0 -1.5 
C -0.397805 -1.5 -0.77937 -1.341951 -1.06066 -1.06066 
C -1.341951 -0.77937 -1.5 -0.397805 -1.5 0 
C -1.5 0.397805 -1.341951 0.77937 -1.06066 1.06066 
C -0.77937 1.341951 -0.397805 1.5 0 1.5 
z
" style="stroke: #aa4499"/>
    </defs>
    <g clip-path="url(#pa0108bd07c)">
     <use xlink:href="#m1f08a9217d" x="40.832324" y="79.168275" style="fill: #aa4499; stroke: #aa4499"/>
     <use xlink:href="#m1f08a9217d" x="63.025506" y="68.39205" style="fill: #aa4499; stroke: #aa4499"/>
     <use xlink:href="#m1f08a9217d" x="85.218688" y="82.15358" style="fill: #aa4499; stroke: #aa4499"/>
     <use xlink:href="#m1f08a9217d" x="107.41187" y="94.604488" style="fill: #aa4499; stroke: #aa4499"/>
     <use xlink:href="#m1f08a9217d" x="129.605052" y="99.118853" style="fill: #aa4499; stroke: #aa4499"/>
     <use xlink:href="#m1f08a9217d" x="151.798233" y="97.808231" style="fill: #aa4499; stroke: #aa4499"/>
     <use xlink:href="#m1f08a9217d" x="173.991415" y="84.265138" style="fill: #aa4499; stroke: #aa4499"/>
     <use xlink:href="#m1f08a9217d" x="196.184597" y="87.541692" style="fill: #aa4499; stroke: #aa4499"/>
     <use xlink:href="#m1f08a9217d" x="218.377779" y="66.280493" style="fill: #aa4499; stroke: #aa4499"/>
    </g>
   </g>
   <g id="patch_3">
    <path d="M 31.955052 149.13 
L 31.955052 3.6 
" style="fill: none; stroke: #000000; stroke-width: 0.5; stroke-linejoin: miter; stroke-linecap: square"/>
   </g>
   <g id="patch_4">
    <path d="M 227.255052 149.13 
L 227.255052 3.6 
" style="fill: none; stroke: #000000; stroke-width: 0.5; stroke-linejoin: miter; stroke-linecap: square"/>
   </g>
   <g id="patch_5">
    <path d="M 31.955052 149.13 
L 227.255052 149.13 
" style="fill: none; stroke: #000000; stroke-width: 0.5; stroke-linejoin: miter; stroke-linecap: square"/>
   </g>
   <g id="patch_6">
    <path d="M 31.955052 3.6 
L 227.255052 3.6 
" style="fill: none; stroke: #000000; stroke-width: 0.5; stroke-linejoin: miter; stroke-linecap: square"/>
   </g>
   <g id="legend_1">
    <g id="patch_7">
     <path d="M 36.008052 146.235 
L 211.820888 146.235 
Q 212.978888 146.235 212.978888 145.077 
L 212.978888 121.447146 
Q 212.978888 120.289146 211.820888 120.289146 
L 36.008052 120.289146 
Q 34.850052 120.289146 34.850052 121.447146 
L 34.850052 145.077 
Q 34.850052 146.235 36.008052 146.235 
z
" style="fill: #ffffff; stroke: #cccccc; stroke-linejoin: miter"/>
    </g>
    <g id="line2d_109">
     <path d="M 37.166052 124.631646 
L 42.956052 124.631646 
L 48.746052 124.631646 
" style="fill: none; stroke: #cc6677; stroke-linecap: square"/>
     <g>
      <use xlink:href="#m55dfec0bb9" x="42.956052" y="124.631646" style="fill: #cc6677; stroke: #cc6677"/>
     </g>
    </g>
    <g id="text_10">
     <!-- Device r1 -->
     <g transform="translate(53.378052 126.658146) scale(0.0579 -0.0579)">
      <defs>
       <path id="CMR17-44" d="M 333 4352 
L 333 4186 
C 774 4186 845 4186 845 3900 
L 845 452 
C 845 166 774 166 333 166 
L 333 0 
L 2368 0 
C 3398 0 4224 943 4224 2141 
C 4224 3346 3411 4352 2368 4352 
L 333 4352 
z
M 1523 166 
C 1267 166 1254 197 1254 414 
L 1254 3938 
C 1254 4155 1267 4186 1523 4186 
L 2240 4186 
C 2771 4186 3750 3874 3750 2141 
C 3750 1242 3488 879 3366 707 
C 3213 510 2848 166 2240 166 
L 1523 166 
z
" transform="scale(0.015625)"/>
       <path id="CMR17-65" d="M 2438 1472 
C 2464 1498 2464 1511 2464 1576 
C 2464 2238 2118 2816 1389 2816 
C 710 2816 173 2169 173 1383 
C 173 551 781 -64 1459 -64 
C 2176 -64 2458 607 2458 740 
C 2458 784 2419 784 2406 784 
C 2362 784 2355 771 2330 696 
C 2189 265 1837 51 1504 51 
C 1229 51 954 203 781 480 
C 582 803 582 1176 582 1472 
L 2438 1472 
z
M 589 1568 
C 634 2505 1126 2714 1382 2714 
C 1818 2714 2112 2297 2118 1568 
L 589 1568 
z
" transform="scale(0.015625)"/>
       <path id="CMR17-76" d="M 2502 2163 
C 2560 2304 2662 2560 3034 2560 
L 3034 2726 
C 2912 2726 2752 2726 2630 2726 
C 2496 2726 2285 2726 2157 2732 
L 2157 2566 
C 2317 2553 2406 2477 2406 2311 
C 2406 2253 2406 2240 2368 2151 
L 1664 377 
L 902 2286 
C 864 2369 864 2381 864 2407 
C 864 2560 1075 2560 1171 2560 
L 1171 2732 
C 1018 2726 736 2726 576 2726 
C 403 2726 205 2726 64 2732 
L 64 2560 
C 307 2560 442 2560 518 2362 
L 1446 44 
C 1485 -51 1491 -64 1549 -64 
C 1606 -64 1613 -51 1651 44 
L 2502 2163 
z
" transform="scale(0.015625)"/>
       <path id="CMR17-69" d="M 992 3909 
C 992 4049 877 4170 730 4170 
C 589 4170 467 4056 467 3909 
C 467 3769 582 3648 730 3648 
C 870 3648 992 3763 992 3909 
z
M 243 2706 
L 243 2541 
C 602 2541 653 2502 653 2197 
L 653 427 
C 653 184 627 153 218 153 
L 218 -13 
C 371 0 646 0 806 0 
C 960 0 1222 0 1370 -13 
L 1370 153 
C 992 153 979 191 979 420 
L 979 2776 
L 243 2706 
z
" transform="scale(0.015625)"/>
       <path id="CMR17-63" d="M 2234 2240 
C 2112 2240 1933 2240 1933 2017 
C 1933 1838 2080 1787 2163 1787 
C 2208 1787 2394 1807 2394 2024 
C 2394 2467 1958 2803 1466 2803 
C 787 2803 211 2178 211 1363 
C 211 516 813 -64 1466 -64 
C 2259 -64 2458 677 2458 748 
C 2458 774 2451 793 2406 793 
C 2362 793 2355 787 2330 703 
C 2163 180 1798 51 1523 51 
C 1114 51 621 427 621 1369 
C 621 2338 1094 2688 1472 2688 
C 1722 2688 2093 2573 2234 2240 
z
" transform="scale(0.015625)"/>
       <path id="CMR17-72" d="M 960 1497 
C 960 2112 1222 2688 1702 2688 
C 1747 2688 1792 2682 1837 2662 
C 1837 2662 1696 2617 1696 2452 
C 1696 2298 1818 2234 1914 2234 
C 1990 2234 2131 2279 2131 2458 
C 2131 2663 1926 2790 1709 2790 
C 1222 2790 1011 2317 947 2093 
L 941 2093 
L 941 2790 
L 198 2720 
L 198 2554 
C 576 2554 634 2515 634 2208 
L 634 428 
C 634 184 608 153 198 153 
L 198 -13 
C 352 0 646 0 813 0 
C 998 0 1325 0 1498 -13 
L 1498 153 
C 1037 153 960 153 960 440 
L 960 1497 
z
" transform="scale(0.015625)"/>
      </defs>
      <use xlink:href="#CMR17-44" transform="scale(0.996264)"/>
      <use xlink:href="#CMR17-65" transform="translate(70.393556 0) scale(0.996264)"/>
      <use xlink:href="#CMR17-76" transform="translate(110.879216 0) scale(0.996264)"/>
      <use xlink:href="#CMR17-69" transform="translate(159.172132 0) scale(0.996264)"/>
      <use xlink:href="#CMR17-63" transform="translate(184.043191 0) scale(0.996264)"/>
      <use xlink:href="#CMR17-65" transform="translate(224.528851 0) scale(0.996264)"/>
      <use xlink:href="#CMR17-72" transform="translate(295.090478 0) scale(0.996264)"/>
      <use xlink:href="#CMR17-31" transform="translate(330.371246 0) scale(0.996264)"/>
     </g>
    </g>
    <g id="line2d_110">
     <path d="M 37.166052 132.701264 
L 42.956052 132.701264 
L 48.746052 132.701264 
" style="fill: none; stroke: #332288; stroke-linecap: square"/>
     <g>
      <use xlink:href="#m6990b7cef8" x="42.956052" y="132.701264" style="fill: #332288; stroke: #332288"/>
     </g>
    </g>
    <g id="text_11">
     <!-- Device r2 -->
     <g transform="translate(53.378052 134.727764) scale(0.0579 -0.0579)">
      <use xlink:href="#CMR17-44" transform="scale(0.996264)"/>
      <use xlink:href="#CMR17-65" transform="translate(70.393556 0) scale(0.996264)"/>
      <use xlink:href="#CMR17-76" transform="translate(110.879216 0) scale(0.996264)"/>
      <use xlink:href="#CMR17-69" transform="translate(159.172132 0) scale(0.996264)"/>
      <use xlink:href="#CMR17-63" transform="translate(184.043191 0) scale(0.996264)"/>
      <use xlink:href="#CMR17-65" transform="translate(224.528851 0) scale(0.996264)"/>
      <use xlink:href="#CMR17-72" transform="translate(295.090478 0) scale(0.996264)"/>
      <use xlink:href="#CMR17-32" transform="translate(330.371246 0) scale(0.996264)"/>
     </g>
    </g>
    <g id="line2d_111">
     <path d="M 37.166052 140.770882 
L 42.956052 140.770882 
L 48.746052 140.770882 
" style="fill: none; stroke: #ddcc77; stroke-linecap: square"/>
     <g>
      <use xlink:href="#m550d58540c" x="42.956052" y="140.770882" style="fill: #ddcc77; stroke: #ddcc77"/>
     </g>
    </g>
    <g id="text_12">
     <!-- Device r3 -->
     <g transform="translate(53.378052 142.797382) scale(0.0579 -0.0579)">
      <use xlink:href="#CMR17-44" transform="scale(0.996264)"/>
      <use xlink:href="#CMR17-65" transform="translate(70.393556 0) scale(0.996264)"/>
      <use xlink:href="#CMR17-76" transform="translate(110.879216 0) scale(0.996264)"/>
      <use xlink:href="#CMR17-69" transform="translate(159.172132 0) scale(0.996264)"/>
      <use xlink:href="#CMR17-63" transform="translate(184.043191 0) scale(0.996264)"/>
      <use xlink:href="#CMR17-65" transform="translate(224.528851 0) scale(0.996264)"/>
      <use xlink:href="#CMR17-72" transform="translate(295.090478 0) scale(0.996264)"/>
      <use xlink:href="#CMR17-33" transform="translate(330.371246 0) scale(0.996264)"/>
     </g>
    </g>
    <g id="line2d_112">
     <path d="M 97.549746 124.631646 
L 103.339746 124.631646 
L 109.129746 124.631646 
" style="fill: none; stroke: #117733; stroke-linecap: square"/>
     <g>
      <use xlink:href="#m4f679dbafc" x="103.339746" y="124.631646" style="fill: #117733; stroke: #117733"/>
     </g>
    </g>
    <g id="text_13">
     <!-- Device r4 -->
     <g transform="translate(113.761746 126.658146) scale(0.0579 -0.0579)">
      <use xlink:href="#CMR17-44" transform="scale(0.996264)"/>
      <use xlink:href="#CMR17-65" transform="translate(70.393556 0) scale(0.996264)"/>
      <use xlink:href="#CMR17-76" transform="translate(110.879216 0) scale(0.996264)"/>
      <use xlink:href="#CMR17-69" transform="translate(159.172132 0) scale(0.996264)"/>
      <use xlink:href="#CMR17-63" transform="translate(184.043191 0) scale(0.996264)"/>
      <use xlink:href="#CMR17-65" transform="translate(224.528851 0) scale(0.996264)"/>
      <use xlink:href="#CMR17-72" transform="translate(295.090478 0) scale(0.996264)"/>
      <use xlink:href="#CMR17-34" transform="translate(330.371246 0) scale(0.996264)"/>
     </g>
    </g>
    <g id="line2d_113">
     <path d="M 97.549746 132.701264 
L 103.339746 132.701264 
L 109.129746 132.701264 
" style="fill: none; stroke: #88ccee; stroke-linecap: square"/>
     <g>
      <use xlink:href="#m2a0dcfcddd" x="103.339746" y="132.701264" style="fill: #88ccee; stroke: #88ccee"/>
     </g>
    </g>
    <g id="text_14">
     <!-- Device r5 -->
     <g transform="translate(113.761746 134.727764) scale(0.0579 -0.0579)">
      <defs>
       <path id="CMR17-35" d="M 730 3692 
C 794 3666 1056 3584 1325 3584 
C 1920 3584 2246 3911 2432 4100 
C 2432 4157 2432 4192 2394 4192 
C 2387 4192 2374 4192 2323 4163 
C 2099 4058 1837 3973 1517 3973 
C 1325 3973 1037 3999 723 4139 
C 653 4171 640 4171 634 4171 
C 602 4171 595 4164 595 4037 
L 595 2203 
C 595 2089 595 2057 659 2057 
C 691 2057 704 2070 736 2114 
C 941 2401 1222 2522 1542 2522 
C 1766 2522 2246 2382 2246 1289 
C 2246 1085 2246 715 2054 421 
C 1894 159 1645 25 1370 25 
C 947 25 518 320 403 814 
C 429 807 480 795 506 795 
C 589 795 749 840 749 1038 
C 749 1210 627 1280 506 1280 
C 358 1280 262 1190 262 1011 
C 262 454 704 -128 1382 -128 
C 2042 -128 2669 440 2669 1264 
C 2669 2030 2170 2624 1549 2624 
C 1222 2624 947 2503 730 2274 
L 730 3692 
z
" transform="scale(0.015625)"/>
      </defs>
      <use xlink:href="#CMR17-44" transform="scale(0.996264)"/>
      <use xlink:href="#CMR17-65" transform="translate(70.393556 0) scale(0.996264)"/>
      <use xlink:href="#CMR17-76" transform="translate(110.879216 0) scale(0.996264)"/>
      <use xlink:href="#CMR17-69" transform="translate(159.172132 0) scale(0.996264)"/>
      <use xlink:href="#CMR17-63" transform="translate(184.043191 0) scale(0.996264)"/>
      <use xlink:href="#CMR17-65" transform="translate(224.528851 0) scale(0.996264)"/>
      <use xlink:href="#CMR17-72" transform="translate(295.090478 0) scale(0.996264)"/>
      <use xlink:href="#CMR17-35" transform="translate(330.371246 0) scale(0.996264)"/>
     </g>
    </g>
    <g id="line2d_114">
     <path d="M 97.549746 140.770882 
L 103.339746 140.770882 
L 109.129746 140.770882 
" style="fill: none; stroke: #882255; stroke-linecap: square"/>
     <g>
      <use xlink:href="#m5ec7ec9388" x="103.339746" y="140.770882" style="fill: #882255; stroke: #882255"/>
     </g>
    </g>
    <g id="text_15">
     <!-- Device r7 -->
     <g transform="translate(113.761746 142.797382) scale(0.0579 -0.0579)">
      <use xlink:href="#CMR17-44" transform="scale(0.996264)"/>
      <use xlink:href="#CMR17-65" transform="translate(70.393556 0) scale(0.996264)"/>
      <use xlink:href="#CMR17-76" transform="translate(110.879216 0) scale(0.996264)"/>
      <use xlink:href="#CMR17-69" transform="translate(159.172132 0) scale(0.996264)"/>
      <use xlink:href="#CMR17-63" transform="translate(184.043191 0) scale(0.996264)"/>
      <use xlink:href="#CMR17-65" transform="translate(224.528851 0) scale(0.996264)"/>
      <use xlink:href="#CMR17-72" transform="translate(295.090478 0) scale(0.996264)"/>
      <use xlink:href="#CMR17-37" transform="translate(330.371246 0) scale(0.996264)"/>
     </g>
    </g>
    <g id="line2d_115">
     <path d="M 157.93344 124.631646 
L 163.72344 124.631646 
L 169.51344 124.631646 
" style="fill: none; stroke: #44aa99; stroke-linecap: square"/>
     <g>
      <use xlink:href="#m0ee0e8ea58" x="163.72344" y="124.631646" style="fill: #44aa99; stroke: #44aa99"/>
     </g>
    </g>
    <g id="text_16">
     <!-- Device r8 -->
     <g transform="translate(174.14544 126.658146) scale(0.0579 -0.0579)">
      <use xlink:href="#CMR17-44" transform="scale(0.996264)"/>
      <use xlink:href="#CMR17-65" transform="translate(70.393556 0) scale(0.996264)"/>
      <use xlink:href="#CMR17-76" transform="translate(110.879216 0) scale(0.996264)"/>
      <use xlink:href="#CMR17-69" transform="translate(159.172132 0) scale(0.996264)"/>
      <use xlink:href="#CMR17-63" transform="translate(184.043191 0) scale(0.996264)"/>
      <use xlink:href="#CMR17-65" transform="translate(224.528851 0) scale(0.996264)"/>
      <use xlink:href="#CMR17-72" transform="translate(295.090478 0) scale(0.996264)"/>
      <use xlink:href="#CMR17-38" transform="translate(330.371246 0) scale(0.996264)"/>
     </g>
    </g>
    <g id="line2d_116">
     <path d="M 157.93344 132.701264 
L 163.72344 132.701264 
L 169.51344 132.701264 
" style="fill: none; stroke: #999933; stroke-linecap: square"/>
     <g>
      <use xlink:href="#m2d8d0b0abb" x="163.72344" y="132.701264" style="fill: #999933; stroke: #999933"/>
     </g>
    </g>
    <g id="text_17">
     <!-- Device r9 -->
     <g transform="translate(174.14544 134.727764) scale(0.0579 -0.0579)">
      <use xlink:href="#CMR17-44" transform="scale(0.996264)"/>
      <use xlink:href="#CMR17-65" transform="translate(70.393556 0) scale(0.996264)"/>
      <use xlink:href="#CMR17-76" transform="translate(110.879216 0) scale(0.996264)"/>
      <use xlink:href="#CMR17-69" transform="translate(159.172132 0) scale(0.996264)"/>
      <use xlink:href="#CMR17-63" transform="translate(184.043191 0) scale(0.996264)"/>
      <use xlink:href="#CMR17-65" transform="translate(224.528851 0) scale(0.996264)"/>
      <use xlink:href="#CMR17-72" transform="translate(295.090478 0) scale(0.996264)"/>
      <use xlink:href="#CMR17-39" transform="translate(330.371246 0) scale(0.996264)"/>
     </g>
    </g>
    <g id="line2d_117">
     <path d="M 157.93344 140.770882 
L 163.72344 140.770882 
L 169.51344 140.770882 
" style="fill: none; stroke: #aa4499; stroke-linecap: square"/>
     <g>
      <use xlink:href="#m1f08a9217d" x="163.72344" y="140.770882" style="fill: #aa4499; stroke: #aa4499"/>
     </g>
    </g>
    <g id="text_18">
     <!-- Device r10 -->
     <g transform="translate(174.14544 142.797382) scale(0.0579 -0.0579)">
      <use xlink:href="#CMR17-44" transform="scale(0.996264)"/>
      <use xlink:href="#CMR17-65" transform="translate(70.393556 0) scale(0.996264)"/>
      <use xlink:href="#CMR17-76" transform="translate(110.879216 0) scale(0.996264)"/>
      <use xlink:href="#CMR17-69" transform="translate(159.172132 0) scale(0.996264)"/>
      <use xlink:href="#CMR17-63" transform="translate(184.043191 0) scale(0.996264)"/>
      <use xlink:href="#CMR17-65" transform="translate(224.528851 0) scale(0.996264)"/>
      <use xlink:href="#CMR17-72" transform="translate(295.090478 0) scale(0.996264)"/>
      <use xlink:href="#CMR17-31" transform="translate(330.371246 0) scale(0.996264)"/>
      <use xlink:href="#CMR17-30" transform="translate(376.061723 0) scale(0.996264)"/>
     </g>
    </g>
   </g>
  </g>
 </g>
 <defs>
  <clipPath id="pa0108bd07c">
   <rect x="31.955052" y="3.6" width="195.3" height="145.53"/>
  </clipPath>
 </defs>
</svg>
