<?xml version="1.0" encoding="utf-8" standalone="no"?>
<!DOCTYPE svg PUBLIC "-//W3C//DTD SVG 1.1//EN"
  "http://www.w3.org/Graphics/SVG/1.1/DTD/svg11.dtd">
<svg xmlns:xlink="http://www.w3.org/1999/xlink" width="209.7pt" height="159.93pt" viewBox="0 0 209.7 159.93" xmlns="http://www.w3.org/2000/svg" version="1.1">
 <metadata>
  <rdf:RDF xmlns:dc="http://purl.org/dc/elements/1.1/" xmlns:cc="http://creativecommons.org/ns#" xmlns:rdf="http://www.w3.org/1999/02/22-rdf-syntax-ns#">
   <cc:Work>
    <dc:type rdf:resource="http://purl.org/dc/dcmitype/StillImage"/>
    <dc:date>2024-06-25T13:16:25.356616</dc:date>
    <dc:format>image/svg+xml</dc:format>
    <dc:creator>
     <cc:Agent>
      <dc:title>Matplotlib v3.6.2, https://matplotlib.org/</dc:title>
     </cc:Agent>
    </dc:creator>
   </cc:Work>
  </rdf:RDF>
 </metadata>
 <defs>
  <style type="text/css">*{stroke-linejoin: round; stroke-linecap: butt}</style>
 </defs>
 <g id="figure_1">
  <g id="patch_1">
   <path d="M 0 159.93 
L 209.7 159.93 
L 209.7 0 
L 0 0 
L 0 159.93 
z
" style="fill: none"/>
  </g>
  <g id="axes_1">
   <g id="LineCollection_1">
    <path d="M 44.32314 140.101364 
L 64.49876 140.101364 
" clip-path="url(#pe8ac4fd530)" style="fill: none; stroke: #000000"/>
    <path d="M 44.32314 140.101364 
L 44.32314 120.055909 
" clip-path="url(#pe8ac4fd530)" style="fill: none; stroke: #000000"/>
    <path d="M 44.32314 140.101364 
L 24.147521 140.101364 
" clip-path="url(#pe8ac4fd530)" style="fill: none; stroke: #000000"/>
    <path d="M 64.49876 140.101364 
L 44.32314 140.101364 
" clip-path="url(#pe8ac4fd530)" style="fill: none; stroke: #000000"/>
    <path d="M 64.49876 140.101364 
L 84.67438 140.101364 
" clip-path="url(#pe8ac4fd530)" style="fill: none; stroke: #000000"/>
    <path d="M 64.49876 140.101364 
L 64.49876 120.055909 
" clip-path="url(#pe8ac4fd530)" style="fill: none; stroke: #000000"/>
    <path d="M 84.67438 140.101364 
L 64.49876 140.101364 
" clip-path="url(#pe8ac4fd530)" style="fill: none; stroke: #000000"/>
    <path d="M 84.67438 140.101364 
L 104.85 140.101364 
" clip-path="url(#pe8ac4fd530)" style="fill: none; stroke: #000000"/>
    <path d="M 84.67438 140.101364 
L 84.67438 120.055909 
" clip-path="url(#pe8ac4fd530)" style="fill: none; stroke: #000000"/>
    <path d="M 104.85 140.101364 
L 84.67438 140.101364 
" clip-path="url(#pe8ac4fd530)" style="fill: none; stroke: #000000"/>
    <path d="M 104.85 140.101364 
L 125.02562 140.101364 
" clip-path="url(#pe8ac4fd530)" style="fill: none; stroke: #000000"/>
    <path d="M 104.85 140.101364 
L 104.85 120.055909 
" clip-path="url(#pe8ac4fd530)" style="fill: none; stroke: #000000"/>
    <path d="M 125.02562 140.101364 
L 104.85 140.101364 
" clip-path="url(#pe8ac4fd530)" style="fill: none; stroke: #000000"/>
    <path d="M 125.02562 140.101364 
L 145.20124 140.101364 
" clip-path="url(#pe8ac4fd530)" style="fill: none; stroke: #000000"/>
    <path d="M 125.02562 140.101364 
L 125.02562 120.055909 
" clip-path="url(#pe8ac4fd530)" style="fill: none; stroke: #000000"/>
    <path d="M 145.20124 140.101364 
L 125.02562 140.101364 
" clip-path="url(#pe8ac4fd530)" style="fill: none; stroke: #000000"/>
    <path d="M 145.20124 140.101364 
L 165.37686 140.101364 
" clip-path="url(#pe8ac4fd530)" style="fill: none; stroke: #000000"/>
    <path d="M 145.20124 140.101364 
L 145.20124 120.055909 
" clip-path="url(#pe8ac4fd530)" style="fill: none; stroke: #000000"/>
    <path d="M 165.37686 140.101364 
L 145.20124 140.101364 
" clip-path="url(#pe8ac4fd530)" style="fill: none; stroke: #000000"/>
    <path d="M 165.37686 140.101364 
L 165.37686 120.055909 
" clip-path="url(#pe8ac4fd530)" style="fill: none; stroke: #000000"/>
    <path d="M 44.32314 120.055909 
L 44.32314 140.101364 
" clip-path="url(#pe8ac4fd530)" style="fill: none; stroke: #000000"/>
    <path d="M 44.32314 120.055909 
L 64.49876 120.055909 
" clip-path="url(#pe8ac4fd530)" style="fill: none; stroke: #000000"/>
    <path d="M 44.32314 120.055909 
L 44.32314 100.010455 
" clip-path="url(#pe8ac4fd530)" style="fill: none; stroke: #000000"/>
    <path d="M 64.49876 120.055909 
L 64.49876 140.101364 
" clip-path="url(#pe8ac4fd530)" style="fill: none; stroke: #000000"/>
    <path d="M 64.49876 120.055909 
L 44.32314 120.055909 
" clip-path="url(#pe8ac4fd530)" style="fill: none; stroke: #000000"/>
    <path d="M 64.49876 120.055909 
L 84.67438 120.055909 
" clip-path="url(#pe8ac4fd530)" style="fill: none; stroke: #000000"/>
    <path d="M 64.49876 120.055909 
L 64.49876 100.010455 
" clip-path="url(#pe8ac4fd530)" style="fill: none; stroke: #000000"/>
    <path d="M 84.67438 120.055909 
L 84.67438 140.101364 
" clip-path="url(#pe8ac4fd530)" style="fill: none; stroke: #000000"/>
    <path d="M 84.67438 120.055909 
L 64.49876 120.055909 
" clip-path="url(#pe8ac4fd530)" style="fill: none; stroke: #000000"/>
    <path d="M 84.67438 120.055909 
L 104.85 120.055909 
" clip-path="url(#pe8ac4fd530)" style="fill: none; stroke: #000000"/>
    <path d="M 84.67438 120.055909 
L 84.67438 100.010455 
" clip-path="url(#pe8ac4fd530)" style="fill: none; stroke: #000000"/>
    <path d="M 104.85 120.055909 
L 104.85 140.101364 
" clip-path="url(#pe8ac4fd530)" style="fill: none; stroke: #000000"/>
    <path d="M 104.85 120.055909 
L 84.67438 120.055909 
" clip-path="url(#pe8ac4fd530)" style="fill: none; stroke: #000000"/>
    <path d="M 104.85 120.055909 
L 125.02562 120.055909 
" clip-path="url(#pe8ac4fd530)" style="fill: none; stroke: #000000"/>
    <path d="M 104.85 120.055909 
L 104.85 100.010455 
" clip-path="url(#pe8ac4fd530)" style="fill: none; stroke: #000000"/>
    <path d="M 125.02562 120.055909 
L 125.02562 140.101364 
" clip-path="url(#pe8ac4fd530)" style="fill: none; stroke: #000000"/>
    <path d="M 125.02562 120.055909 
L 104.85 120.055909 
" clip-path="url(#pe8ac4fd530)" style="fill: none; stroke: #000000"/>
    <path d="M 125.02562 120.055909 
L 145.20124 120.055909 
" clip-path="url(#pe8ac4fd530)" style="fill: none; stroke: #000000"/>
    <path d="M 125.02562 120.055909 
L 125.02562 100.010455 
" clip-path="url(#pe8ac4fd530)" style="fill: none; stroke: #000000"/>
    <path d="M 145.20124 120.055909 
L 145.20124 140.101364 
" clip-path="url(#pe8ac4fd530)" style="fill: none; stroke: #000000"/>
    <path d="M 145.20124 120.055909 
L 125.02562 120.055909 
" clip-path="url(#pe8ac4fd530)" style="fill: none; stroke: #000000"/>
    <path d="M 145.20124 120.055909 
L 165.37686 120.055909 
" clip-path="url(#pe8ac4fd530)" style="fill: none; stroke: #000000"/>
    <path d="M 145.20124 120.055909 
L 145.20124 100.010455 
" clip-path="url(#pe8ac4fd530)" style="fill: none; stroke: #000000"/>
    <path d="M 165.37686 120.055909 
L 165.37686 140.101364 
" clip-path="url(#pe8ac4fd530)" style="fill: none; stroke: #000000"/>
    <path d="M 165.37686 120.055909 
L 145.20124 120.055909 
" clip-path="url(#pe8ac4fd530)" style="fill: none; stroke: #000000"/>
    <path d="M 165.37686 120.055909 
L 165.37686 100.010455 
" clip-path="url(#pe8ac4fd530)" style="fill: none; stroke: #000000"/>
    <path d="M 44.32314 100.010455 
L 44.32314 120.055909 
" clip-path="url(#pe8ac4fd530)" style="fill: none; stroke: #000000"/>
    <path d="M 44.32314 100.010455 
L 64.49876 100.010455 
" clip-path="url(#pe8ac4fd530)" style="fill: none; stroke: #000000"/>
    <path d="M 44.32314 100.010455 
L 44.32314 79.965 
" clip-path="url(#pe8ac4fd530)" style="fill: none; stroke: #000000"/>
    <path d="M 64.49876 100.010455 
L 64.49876 120.055909 
" clip-path="url(#pe8ac4fd530)" style="fill: none; stroke: #000000"/>
    <path d="M 64.49876 100.010455 
L 44.32314 100.010455 
" clip-path="url(#pe8ac4fd530)" style="fill: none; stroke: #000000"/>
    <path d="M 64.49876 100.010455 
L 84.67438 100.010455 
" clip-path="url(#pe8ac4fd530)" style="fill: none; stroke: #000000"/>
    <path d="M 64.49876 100.010455 
L 64.49876 79.965 
" clip-path="url(#pe8ac4fd530)" style="fill: none; stroke: #000000"/>
    <path d="M 84.67438 100.010455 
L 84.67438 120.055909 
" clip-path="url(#pe8ac4fd530)" style="fill: none; stroke: #000000"/>
    <path d="M 84.67438 100.010455 
L 64.49876 100.010455 
" clip-path="url(#pe8ac4fd530)" style="fill: none; stroke: #000000"/>
    <path d="M 84.67438 100.010455 
L 104.85 100.010455 
" clip-path="url(#pe8ac4fd530)" style="fill: none; stroke: #000000"/>
    <path d="M 84.67438 100.010455 
L 84.67438 79.965 
" clip-path="url(#pe8ac4fd530)" style="fill: none; stroke: #000000"/>
    <path d="M 104.85 100.010455 
L 104.85 120.055909 
" clip-path="url(#pe8ac4fd530)" style="fill: none; stroke: #000000"/>
    <path d="M 104.85 100.010455 
L 84.67438 100.010455 
" clip-path="url(#pe8ac4fd530)" style="fill: none; stroke: #000000"/>
    <path d="M 104.85 100.010455 
L 125.02562 100.010455 
" clip-path="url(#pe8ac4fd530)" style="fill: none; stroke: #000000"/>
    <path d="M 104.85 100.010455 
L 104.85 79.965 
" clip-path="url(#pe8ac4fd530)" style="fill: none; stroke: #000000"/>
    <path d="M 125.02562 100.010455 
L 125.02562 120.055909 
" clip-path="url(#pe8ac4fd530)" style="fill: none; stroke: #000000"/>
    <path d="M 125.02562 100.010455 
L 104.85 100.010455 
" clip-path="url(#pe8ac4fd530)" style="fill: none; stroke: #000000"/>
    <path d="M 125.02562 100.010455 
L 145.20124 100.010455 
" clip-path="url(#pe8ac4fd530)" style="fill: none; stroke: #000000"/>
    <path d="M 125.02562 100.010455 
L 125.02562 79.965 
" clip-path="url(#pe8ac4fd530)" style="fill: none; stroke: #000000"/>
    <path d="M 145.20124 100.010455 
L 145.20124 120.055909 
" clip-path="url(#pe8ac4fd530)" style="fill: none; stroke: #000000"/>
    <path d="M 145.20124 100.010455 
L 125.02562 100.010455 
" clip-path="url(#pe8ac4fd530)" style="fill: none; stroke: #000000"/>
    <path d="M 145.20124 100.010455 
L 165.37686 100.010455 
" clip-path="url(#pe8ac4fd530)" style="fill: none; stroke: #000000"/>
    <path d="M 145.20124 100.010455 
L 145.20124 79.965 
" clip-path="url(#pe8ac4fd530)" style="fill: none; stroke: #000000"/>
    <path d="M 165.37686 100.010455 
L 165.37686 120.055909 
" clip-path="url(#pe8ac4fd530)" style="fill: none; stroke: #000000"/>
    <path d="M 165.37686 100.010455 
L 145.20124 100.010455 
" clip-path="url(#pe8ac4fd530)" style="fill: none; stroke: #000000"/>
    <path d="M 165.37686 100.010455 
L 165.37686 79.965 
" clip-path="url(#pe8ac4fd530)" style="fill: none; stroke: #000000"/>
    <path d="M 44.32314 79.965 
L 44.32314 100.010455 
" clip-path="url(#pe8ac4fd530)" style="fill: none; stroke: #000000"/>
    <path d="M 44.32314 79.965 
L 64.49876 79.965 
" clip-path="url(#pe8ac4fd530)" style="fill: none; stroke: #000000"/>
    <path d="M 44.32314 79.965 
L 44.32314 59.919545 
" clip-path="url(#pe8ac4fd530)" style="fill: none; stroke: #000000"/>
    <path d="M 64.49876 79.965 
L 64.49876 100.010455 
" clip-path="url(#pe8ac4fd530)" style="fill: none; stroke: #000000"/>
    <path d="M 64.49876 79.965 
L 44.32314 79.965 
" clip-path="url(#pe8ac4fd530)" style="fill: none; stroke: #000000"/>
    <path d="M 64.49876 79.965 
L 84.67438 79.965 
" clip-path="url(#pe8ac4fd530)" style="fill: none; stroke: #000000"/>
    <path d="M 64.49876 79.965 
L 64.49876 59.919545 
" clip-path="url(#pe8ac4fd530)" style="fill: none; stroke: #000000"/>
    <path d="M 84.67438 79.965 
L 84.67438 100.010455 
" clip-path="url(#pe8ac4fd530)" style="fill: none; stroke: #000000"/>
    <path d="M 84.67438 79.965 
L 64.49876 79.965 
" clip-path="url(#pe8ac4fd530)" style="fill: none; stroke: #000000"/>
    <path d="M 84.67438 79.965 
L 104.85 79.965 
" clip-path="url(#pe8ac4fd530)" style="fill: none; stroke: #000000"/>
    <path d="M 84.67438 79.965 
L 84.67438 59.919545 
" clip-path="url(#pe8ac4fd530)" style="fill: none; stroke: #000000"/>
    <path d="M 104.85 79.965 
L 104.85 100.010455 
" clip-path="url(#pe8ac4fd530)" style="fill: none; stroke: #000000"/>
    <path d="M 104.85 79.965 
L 84.67438 79.965 
" clip-path="url(#pe8ac4fd530)" style="fill: none; stroke: #000000"/>
    <path d="M 104.85 79.965 
L 125.02562 79.965 
" clip-path="url(#pe8ac4fd530)" style="fill: none; stroke: #000000"/>
    <path d="M 104.85 79.965 
L 104.85 59.919545 
" clip-path="url(#pe8ac4fd530)" style="fill: none; stroke: #000000"/>
    <path d="M 125.02562 79.965 
L 125.02562 100.010455 
" clip-path="url(#pe8ac4fd530)" style="fill: none; stroke: #000000"/>
    <path d="M 125.02562 79.965 
L 104.85 79.965 
" clip-path="url(#pe8ac4fd530)" style="fill: none; stroke: #000000"/>
    <path d="M 125.02562 79.965 
L 145.20124 79.965 
" clip-path="url(#pe8ac4fd530)" style="fill: none; stroke: #000000"/>
    <path d="M 125.02562 79.965 
L 125.02562 59.919545 
" clip-path="url(#pe8ac4fd530)" style="fill: none; stroke: #000000"/>
    <path d="M 145.20124 79.965 
L 145.20124 100.010455 
" clip-path="url(#pe8ac4fd530)" style="fill: none; stroke: #000000"/>
    <path d="M 145.20124 79.965 
L 125.02562 79.965 
" clip-path="url(#pe8ac4fd530)" style="fill: none; stroke: #000000"/>
    <path d="M 145.20124 79.965 
L 165.37686 79.965 
" clip-path="url(#pe8ac4fd530)" style="fill: none; stroke: #000000"/>
    <path d="M 145.20124 79.965 
L 145.20124 59.919545 
" clip-path="url(#pe8ac4fd530)" style="fill: none; stroke: #000000"/>
    <path d="M 165.37686 79.965 
L 165.37686 100.010455 
" clip-path="url(#pe8ac4fd530)" style="fill: none; stroke: #000000"/>
    <path d="M 165.37686 79.965 
L 145.20124 79.965 
" clip-path="url(#pe8ac4fd530)" style="fill: none; stroke: #000000"/>
    <path d="M 165.37686 79.965 
L 165.37686 59.919545 
" clip-path="url(#pe8ac4fd530)" style="fill: none; stroke: #000000"/>
    <path d="M 44.32314 59.919545 
L 44.32314 79.965 
" clip-path="url(#pe8ac4fd530)" style="fill: none; stroke: #000000"/>
    <path d="M 44.32314 59.919545 
L 64.49876 59.919545 
" clip-path="url(#pe8ac4fd530)" style="fill: none; stroke: #000000"/>
    <path d="M 44.32314 59.919545 
L 44.32314 39.874091 
" clip-path="url(#pe8ac4fd530)" style="fill: none; stroke: #000000"/>
    <path d="M 64.49876 59.919545 
L 64.49876 79.965 
" clip-path="url(#pe8ac4fd530)" style="fill: none; stroke: #000000"/>
    <path d="M 64.49876 59.919545 
L 44.32314 59.919545 
" clip-path="url(#pe8ac4fd530)" style="fill: none; stroke: #000000"/>
    <path d="M 64.49876 59.919545 
L 84.67438 59.919545 
" clip-path="url(#pe8ac4fd530)" style="fill: none; stroke: #000000"/>
    <path d="M 64.49876 59.919545 
L 64.49876 39.874091 
" clip-path="url(#pe8ac4fd530)" style="fill: none; stroke: #000000"/>
    <path d="M 84.67438 59.919545 
L 84.67438 79.965 
" clip-path="url(#pe8ac4fd530)" style="fill: none; stroke: #000000"/>
    <path d="M 84.67438 59.919545 
L 64.49876 59.919545 
" clip-path="url(#pe8ac4fd530)" style="fill: none; stroke: #000000"/>
    <path d="M 84.67438 59.919545 
L 104.85 59.919545 
" clip-path="url(#pe8ac4fd530)" style="fill: none; stroke: #000000"/>
    <path d="M 84.67438 59.919545 
L 84.67438 39.874091 
" clip-path="url(#pe8ac4fd530)" style="fill: none; stroke: #000000"/>
    <path d="M 104.85 59.919545 
L 104.85 79.965 
" clip-path="url(#pe8ac4fd530)" style="fill: none; stroke: #000000"/>
    <path d="M 104.85 59.919545 
L 84.67438 59.919545 
" clip-path="url(#pe8ac4fd530)" style="fill: none; stroke: #000000"/>
    <path d="M 104.85 59.919545 
L 125.02562 59.919545 
" clip-path="url(#pe8ac4fd530)" style="fill: none; stroke: #000000"/>
    <path d="M 104.85 59.919545 
L 104.85 39.874091 
" clip-path="url(#pe8ac4fd530)" style="fill: none; stroke: #000000"/>
    <path d="M 125.02562 59.919545 
L 125.02562 79.965 
" clip-path="url(#pe8ac4fd530)" style="fill: none; stroke: #000000"/>
    <path d="M 125.02562 59.919545 
L 104.85 59.919545 
" clip-path="url(#pe8ac4fd530)" style="fill: none; stroke: #000000"/>
    <path d="M 125.02562 59.919545 
L 145.20124 59.919545 
" clip-path="url(#pe8ac4fd530)" style="fill: none; stroke: #000000"/>
    <path d="M 125.02562 59.919545 
L 125.02562 39.874091 
" clip-path="url(#pe8ac4fd530)" style="fill: none; stroke: #000000"/>
    <path d="M 145.20124 59.919545 
L 145.20124 79.965 
" clip-path="url(#pe8ac4fd530)" style="fill: none; stroke: #000000"/>
    <path d="M 145.20124 59.919545 
L 125.02562 59.919545 
" clip-path="url(#pe8ac4fd530)" style="fill: none; stroke: #000000"/>
    <path d="M 145.20124 59.919545 
L 165.37686 59.919545 
" clip-path="url(#pe8ac4fd530)" style="fill: none; stroke: #000000"/>
    <path d="M 145.20124 59.919545 
L 145.20124 39.874091 
" clip-path="url(#pe8ac4fd530)" style="fill: none; stroke: #000000"/>
    <path d="M 165.37686 59.919545 
L 165.37686 79.965 
" clip-path="url(#pe8ac4fd530)" style="fill: none; stroke: #000000"/>
    <path d="M 165.37686 59.919545 
L 145.20124 59.919545 
" clip-path="url(#pe8ac4fd530)" style="fill: none; stroke: #000000"/>
    <path d="M 165.37686 59.919545 
L 165.37686 39.874091 
" clip-path="url(#pe8ac4fd530)" style="fill: none; stroke: #000000"/>
    <path d="M 44.32314 39.874091 
L 44.32314 59.919545 
" clip-path="url(#pe8ac4fd530)" style="fill: none; stroke: #000000"/>
    <path d="M 44.32314 39.874091 
L 64.49876 39.874091 
" clip-path="url(#pe8ac4fd530)" style="fill: none; stroke: #000000"/>
    <path d="M 44.32314 39.874091 
L 44.32314 19.828636 
" clip-path="url(#pe8ac4fd530)" style="fill: none; stroke: #000000"/>
    <path d="M 64.49876 39.874091 
L 64.49876 59.919545 
" clip-path="url(#pe8ac4fd530)" style="fill: none; stroke: #000000"/>
    <path d="M 64.49876 39.874091 
L 44.32314 39.874091 
" clip-path="url(#pe8ac4fd530)" style="fill: none; stroke: #000000"/>
    <path d="M 64.49876 39.874091 
L 84.67438 39.874091 
" clip-path="url(#pe8ac4fd530)" style="fill: none; stroke: #000000"/>
    <path d="M 64.49876 39.874091 
L 64.49876 19.828636 
" clip-path="url(#pe8ac4fd530)" style="fill: none; stroke: #000000"/>
    <path d="M 84.67438 39.874091 
L 84.67438 59.919545 
" clip-path="url(#pe8ac4fd530)" style="fill: none; stroke: #000000"/>
    <path d="M 84.67438 39.874091 
L 64.49876 39.874091 
" clip-path="url(#pe8ac4fd530)" style="fill: none; stroke: #000000"/>
    <path d="M 84.67438 39.874091 
L 104.85 39.874091 
" clip-path="url(#pe8ac4fd530)" style="fill: none; stroke: #000000"/>
    <path d="M 84.67438 39.874091 
L 84.67438 19.828636 
" clip-path="url(#pe8ac4fd530)" style="fill: none; stroke: #000000"/>
    <path d="M 104.85 39.874091 
L 104.85 59.919545 
" clip-path="url(#pe8ac4fd530)" style="fill: none; stroke: #000000"/>
    <path d="M 104.85 39.874091 
L 84.67438 39.874091 
" clip-path="url(#pe8ac4fd530)" style="fill: none; stroke: #000000"/>
    <path d="M 104.85 39.874091 
L 125.02562 39.874091 
" clip-path="url(#pe8ac4fd530)" style="fill: none; stroke: #000000"/>
    <path d="M 104.85 39.874091 
L 104.85 19.828636 
" clip-path="url(#pe8ac4fd530)" style="fill: none; stroke: #000000"/>
    <path d="M 125.02562 39.874091 
L 125.02562 59.919545 
" clip-path="url(#pe8ac4fd530)" style="fill: none; stroke: #000000"/>
    <path d="M 125.02562 39.874091 
L 104.85 39.874091 
" clip-path="url(#pe8ac4fd530)" style="fill: none; stroke: #000000"/>
    <path d="M 125.02562 39.874091 
L 145.20124 39.874091 
" clip-path="url(#pe8ac4fd530)" style="fill: none; stroke: #000000"/>
    <path d="M 125.02562 39.874091 
L 125.02562 19.828636 
" clip-path="url(#pe8ac4fd530)" style="fill: none; stroke: #000000"/>
    <path d="M 145.20124 39.874091 
L 145.20124 59.919545 
" clip-path="url(#pe8ac4fd530)" style="fill: none; stroke: #000000"/>
    <path d="M 145.20124 39.874091 
L 125.02562 39.874091 
" clip-path="url(#pe8ac4fd530)" style="fill: none; stroke: #000000"/>
    <path d="M 145.20124 39.874091 
L 165.37686 39.874091 
" clip-path="url(#pe8ac4fd530)" style="fill: none; stroke: #000000"/>
    <path d="M 145.20124 39.874091 
L 145.20124 19.828636 
" clip-path="url(#pe8ac4fd530)" style="fill: none; stroke: #000000"/>
    <path d="M 165.37686 39.874091 
L 165.37686 59.919545 
" clip-path="url(#pe8ac4fd530)" style="fill: none; stroke: #000000"/>
    <path d="M 165.37686 39.874091 
L 145.20124 39.874091 
" clip-path="url(#pe8ac4fd530)" style="fill: none; stroke: #000000"/>
    <path d="M 165.37686 39.874091 
L 165.37686 19.828636 
" clip-path="url(#pe8ac4fd530)" style="fill: none; stroke: #000000"/>
    <path d="M 44.32314 19.828636 
L 44.32314 39.874091 
" clip-path="url(#pe8ac4fd530)" style="fill: none; stroke: #000000"/>
    <path d="M 44.32314 19.828636 
L 64.49876 19.828636 
" clip-path="url(#pe8ac4fd530)" style="fill: none; stroke: #000000"/>
    <path d="M 64.49876 19.828636 
L 64.49876 39.874091 
" clip-path="url(#pe8ac4fd530)" style="fill: none; stroke: #000000"/>
    <path d="M 64.49876 19.828636 
L 44.32314 19.828636 
" clip-path="url(#pe8ac4fd530)" style="fill: none; stroke: #000000"/>
    <path d="M 64.49876 19.828636 
L 84.67438 19.828636 
" clip-path="url(#pe8ac4fd530)" style="fill: none; stroke: #000000"/>
    <path d="M 84.67438 19.828636 
L 84.67438 39.874091 
" clip-path="url(#pe8ac4fd530)" style="fill: none; stroke: #000000"/>
    <path d="M 84.67438 19.828636 
L 64.49876 19.828636 
" clip-path="url(#pe8ac4fd530)" style="fill: none; stroke: #000000"/>
    <path d="M 84.67438 19.828636 
L 104.85 19.828636 
" clip-path="url(#pe8ac4fd530)" style="fill: none; stroke: #000000"/>
    <path d="M 104.85 19.828636 
L 104.85 39.874091 
" clip-path="url(#pe8ac4fd530)" style="fill: none; stroke: #000000"/>
    <path d="M 104.85 19.828636 
L 84.67438 19.828636 
" clip-path="url(#pe8ac4fd530)" style="fill: none; stroke: #000000"/>
    <path d="M 104.85 19.828636 
L 125.02562 19.828636 
" clip-path="url(#pe8ac4fd530)" style="fill: none; stroke: #000000"/>
    <path d="M 125.02562 19.828636 
L 125.02562 39.874091 
" clip-path="url(#pe8ac4fd530)" style="fill: none; stroke: #000000"/>
    <path d="M 125.02562 19.828636 
L 104.85 19.828636 
" clip-path="url(#pe8ac4fd530)" style="fill: none; stroke: #000000"/>
    <path d="M 125.02562 19.828636 
L 145.20124 19.828636 
" clip-path="url(#pe8ac4fd530)" style="fill: none; stroke: #000000"/>
    <path d="M 145.20124 19.828636 
L 145.20124 39.874091 
" clip-path="url(#pe8ac4fd530)" style="fill: none; stroke: #000000"/>
    <path d="M 145.20124 19.828636 
L 125.02562 19.828636 
" clip-path="url(#pe8ac4fd530)" style="fill: none; stroke: #000000"/>
    <path d="M 145.20124 19.828636 
L 165.37686 19.828636 
" clip-path="url(#pe8ac4fd530)" style="fill: none; stroke: #000000"/>
    <path d="M 165.37686 19.828636 
L 165.37686 39.874091 
" clip-path="url(#pe8ac4fd530)" style="fill: none; stroke: #000000"/>
    <path d="M 165.37686 19.828636 
L 145.20124 19.828636 
" clip-path="url(#pe8ac4fd530)" style="fill: none; stroke: #000000"/>
    <path d="M 165.37686 19.828636 
L 185.552479 19.828636 
" clip-path="url(#pe8ac4fd530)" style="fill: none; stroke: #000000"/>
    <path d="M 24.147521 140.101364 
L 44.32314 140.101364 
" clip-path="url(#pe8ac4fd530)" style="fill: none; stroke: #000000"/>
    <path d="M 185.552479 19.828636 
L 165.37686 19.828636 
" clip-path="url(#pe8ac4fd530)" style="fill: none; stroke: #000000"/>
   </g>
   <g id="PathCollection_1">
    <path d="M 44.32314 146.225088 
C 45.947171 146.225088 47.504904 145.579854 48.653268 144.431491 
C 49.801631 143.283128 50.446865 141.725394 50.446865 140.101364 
C 50.446865 138.477333 49.801631 136.9196 48.653268 135.771237 
C 47.504904 134.622874 45.947171 133.977639 44.32314 133.977639 
C 42.69911 133.977639 41.141377 134.622874 39.993013 135.771237 
C 38.84465 136.9196 38.199416 138.477333 38.199416 140.101364 
C 38.199416 141.725394 38.84465 143.283128 39.993013 144.431491 
C 41.141377 145.579854 42.69911 146.225088 44.32314 146.225088 
z
" clip-path="url(#pe8ac4fd530)" style="fill: #348abd; stroke: #348abd"/>
    <path d="M 64.49876 146.225088 
C 66.122791 146.225088 67.680524 145.579854 68.828887 144.431491 
C 69.97725 143.283128 70.622485 141.725394 70.622485 140.101364 
C 70.622485 138.477333 69.97725 136.9196 68.828887 135.771237 
C 67.680524 134.622874 66.122791 133.977639 64.49876 133.977639 
C 62.87473 133.977639 61.316996 134.622874 60.168633 135.771237 
C 59.02027 136.9196 58.375036 138.477333 58.375036 140.101364 
C 58.375036 141.725394 59.02027 143.283128 60.168633 144.431491 
C 61.316996 145.579854 62.87473 146.225088 64.49876 146.225088 
z
" clip-path="url(#pe8ac4fd530)" style="fill: #348abd; stroke: #348abd"/>
    <path d="M 84.67438 146.225088 
C 86.298411 146.225088 87.856144 145.579854 89.004507 144.431491 
C 90.15287 143.283128 90.798105 141.725394 90.798105 140.101364 
C 90.798105 138.477333 90.15287 136.9196 89.004507 135.771237 
C 87.856144 134.622874 86.298411 133.977639 84.67438 133.977639 
C 83.050349 133.977639 81.492616 134.622874 80.344253 135.771237 
C 79.19589 136.9196 78.550656 138.477333 78.550656 140.101364 
C 78.550656 141.725394 79.19589 143.283128 80.344253 144.431491 
C 81.492616 145.579854 83.050349 146.225088 84.67438 146.225088 
z
" clip-path="url(#pe8ac4fd530)" style="fill: #348abd; stroke: #348abd"/>
    <path d="M 104.85 146.225088 
C 106.474031 146.225088 108.031764 145.579854 109.180127 144.431491 
C 110.32849 143.283128 110.973724 141.725394 110.973724 140.101364 
C 110.973724 138.477333 110.32849 136.9196 109.180127 135.771237 
C 108.031764 134.622874 106.474031 133.977639 104.85 133.977639 
C 103.225969 133.977639 101.668236 134.622874 100.519873 135.771237 
C 99.37151 136.9196 98.726276 138.477333 98.726276 140.101364 
C 98.726276 141.725394 99.37151 143.283128 100.519873 144.431491 
C 101.668236 145.579854 103.225969 146.225088 104.85 146.225088 
z
" clip-path="url(#pe8ac4fd530)" style="fill: #348abd; stroke: #348abd"/>
    <path d="M 125.02562 146.225088 
C 126.649651 146.225088 128.207384 145.579854 129.355747 144.431491 
C 130.50411 143.283128 131.149344 141.725394 131.149344 140.101364 
C 131.149344 138.477333 130.50411 136.9196 129.355747 135.771237 
C 128.207384 134.622874 126.649651 133.977639 125.02562 133.977639 
C 123.401589 133.977639 121.843856 134.622874 120.695493 135.771237 
C 119.54713 136.9196 118.901895 138.477333 118.901895 140.101364 
C 118.901895 141.725394 119.54713 143.283128 120.695493 144.431491 
C 121.843856 145.579854 123.401589 146.225088 125.02562 146.225088 
z
" clip-path="url(#pe8ac4fd530)" style="fill: #348abd; stroke: #348abd"/>
    <path d="M 145.20124 146.225088 
C 146.82527 146.225088 148.383004 145.579854 149.531367 144.431491 
C 150.67973 143.283128 151.324964 141.725394 151.324964 140.101364 
C 151.324964 138.477333 150.67973 136.9196 149.531367 135.771237 
C 148.383004 134.622874 146.82527 133.977639 145.20124 133.977639 
C 143.577209 133.977639 142.019476 134.622874 140.871113 135.771237 
C 139.72275 136.9196 139.077515 138.477333 139.077515 140.101364 
C 139.077515 141.725394 139.72275 143.283128 140.871113 144.431491 
C 142.019476 145.579854 143.577209 146.225088 145.20124 146.225088 
z
" clip-path="url(#pe8ac4fd530)" style="fill: #348abd; stroke: #348abd"/>
    <path d="M 165.37686 146.225088 
C 167.00089 146.225088 168.558623 145.579854 169.706987 144.431491 
C 170.85535 143.283128 171.500584 141.725394 171.500584 140.101364 
C 171.500584 138.477333 170.85535 136.9196 169.706987 135.771237 
C 168.558623 134.622874 167.00089 133.977639 165.37686 133.977639 
C 163.752829 133.977639 162.195096 134.622874 161.046732 135.771237 
C 159.898369 136.9196 159.253135 138.477333 159.253135 140.101364 
C 159.253135 141.725394 159.898369 143.283128 161.046732 144.431491 
C 162.195096 145.579854 163.752829 146.225088 165.37686 146.225088 
z
" clip-path="url(#pe8ac4fd530)" style="fill: #348abd; stroke: #348abd"/>
    <path d="M 44.32314 126.179633 
C 45.947171 126.179633 47.504904 125.534399 48.653268 124.386036 
C 49.801631 123.237673 50.446865 121.67994 50.446865 120.055909 
C 50.446865 118.431878 49.801631 116.874145 48.653268 115.725782 
C 47.504904 114.577419 45.947171 113.932185 44.32314 113.932185 
C 42.69911 113.932185 41.141377 114.577419 39.993013 115.725782 
C 38.84465 116.874145 38.199416 118.431878 38.199416 120.055909 
C 38.199416 121.67994 38.84465 123.237673 39.993013 124.386036 
C 41.141377 125.534399 42.69911 126.179633 44.32314 126.179633 
z
" clip-path="url(#pe8ac4fd530)" style="fill: #348abd; stroke: #348abd"/>
    <path d="M 64.49876 126.179633 
C 66.122791 126.179633 67.680524 125.534399 68.828887 124.386036 
C 69.97725 123.237673 70.622485 121.67994 70.622485 120.055909 
C 70.622485 118.431878 69.97725 116.874145 68.828887 115.725782 
C 67.680524 114.577419 66.122791 113.932185 64.49876 113.932185 
C 62.87473 113.932185 61.316996 114.577419 60.168633 115.725782 
C 59.02027 116.874145 58.375036 118.431878 58.375036 120.055909 
C 58.375036 121.67994 59.02027 123.237673 60.168633 124.386036 
C 61.316996 125.534399 62.87473 126.179633 64.49876 126.179633 
z
" clip-path="url(#pe8ac4fd530)" style="fill: #348abd; stroke: #348abd"/>
    <path d="M 84.67438 126.179633 
C 86.298411 126.179633 87.856144 125.534399 89.004507 124.386036 
C 90.15287 123.237673 90.798105 121.67994 90.798105 120.055909 
C 90.798105 118.431878 90.15287 116.874145 89.004507 115.725782 
C 87.856144 114.577419 86.298411 113.932185 84.67438 113.932185 
C 83.050349 113.932185 81.492616 114.577419 80.344253 115.725782 
C 79.19589 116.874145 78.550656 118.431878 78.550656 120.055909 
C 78.550656 121.67994 79.19589 123.237673 80.344253 124.386036 
C 81.492616 125.534399 83.050349 126.179633 84.67438 126.179633 
z
" clip-path="url(#pe8ac4fd530)" style="fill: #348abd; stroke: #348abd"/>
    <path d="M 104.85 126.179633 
C 106.474031 126.179633 108.031764 125.534399 109.180127 124.386036 
C 110.32849 123.237673 110.973724 121.67994 110.973724 120.055909 
C 110.973724 118.431878 110.32849 116.874145 109.180127 115.725782 
C 108.031764 114.577419 106.474031 113.932185 104.85 113.932185 
C 103.225969 113.932185 101.668236 114.577419 100.519873 115.725782 
C 99.37151 116.874145 98.726276 118.431878 98.726276 120.055909 
C 98.726276 121.67994 99.37151 123.237673 100.519873 124.386036 
C 101.668236 125.534399 103.225969 126.179633 104.85 126.179633 
z
" clip-path="url(#pe8ac4fd530)" style="fill: #348abd; stroke: #348abd"/>
    <path d="M 125.02562 126.179633 
C 126.649651 126.179633 128.207384 125.534399 129.355747 124.386036 
C 130.50411 123.237673 131.149344 121.67994 131.149344 120.055909 
C 131.149344 118.431878 130.50411 116.874145 129.355747 115.725782 
C 128.207384 114.577419 126.649651 113.932185 125.02562 113.932185 
C 123.401589 113.932185 121.843856 114.577419 120.695493 115.725782 
C 119.54713 116.874145 118.901895 118.431878 118.901895 120.055909 
C 118.901895 121.67994 119.54713 123.237673 120.695493 124.386036 
C 121.843856 125.534399 123.401589 126.179633 125.02562 126.179633 
z
" clip-path="url(#pe8ac4fd530)" style="fill: #348abd; stroke: #348abd"/>
    <path d="M 145.20124 126.179633 
C 146.82527 126.179633 148.383004 125.534399 149.531367 124.386036 
C 150.67973 123.237673 151.324964 121.67994 151.324964 120.055909 
C 151.324964 118.431878 150.67973 116.874145 149.531367 115.725782 
C 148.383004 114.577419 146.82527 113.932185 145.20124 113.932185 
C 143.577209 113.932185 142.019476 114.577419 140.871113 115.725782 
C 139.72275 116.874145 139.077515 118.431878 139.077515 120.055909 
C 139.077515 121.67994 139.72275 123.237673 140.871113 124.386036 
C 142.019476 125.534399 143.577209 126.179633 145.20124 126.179633 
z
" clip-path="url(#pe8ac4fd530)" style="fill: #348abd; stroke: #348abd"/>
    <path d="M 165.37686 128.716163 
C 167.673586 128.716163 169.876553 127.803664 171.500584 126.179633 
C 173.124615 124.555603 174.037114 122.352635 174.037114 120.055909 
C 174.037114 117.759183 173.124615 115.556215 171.500584 113.932185 
C 169.876553 112.308154 167.673586 111.395655 165.37686 111.395655 
C 163.080133 111.395655 160.877166 112.308154 159.253135 113.932185 
C 157.629104 115.556215 156.716605 117.759183 156.716605 120.055909 
C 156.716605 122.352635 157.629104 124.555603 159.253135 126.179633 
C 160.877166 127.803664 163.080133 128.716163 165.37686 128.716163 
z
" clip-path="url(#pe8ac4fd530)" style="fill: #348abd; stroke: #348abd"/>
    <path d="M 44.32314 108.670709 
C 46.619867 108.670709 48.822834 107.75821 50.446865 106.134179 
C 52.070896 104.510148 52.983395 102.307181 52.983395 100.010455 
C 52.983395 97.713728 52.070896 95.510761 50.446865 93.88673 
C 48.822834 92.2627 46.619867 91.350201 44.32314 91.350201 
C 42.026414 91.350201 39.823447 92.2627 38.199416 93.88673 
C 36.575385 95.510761 35.662886 97.713728 35.662886 100.010455 
C 35.662886 102.307181 36.575385 104.510148 38.199416 106.134179 
C 39.823447 107.75821 42.026414 108.670709 44.32314 108.670709 
z
" clip-path="url(#pe8ac4fd530)" style="fill: #348abd; stroke: #348abd"/>
    <path d="M 64.49876 108.670709 
C 66.795487 108.670709 68.998454 107.75821 70.622485 106.134179 
C 72.246515 104.510148 73.159014 102.307181 73.159014 100.010455 
C 73.159014 97.713728 72.246515 95.510761 70.622485 93.88673 
C 68.998454 92.2627 66.795487 91.350201 64.49876 91.350201 
C 62.202034 91.350201 59.999067 92.2627 58.375036 93.88673 
C 56.751005 95.510761 55.838506 97.713728 55.838506 100.010455 
C 55.838506 102.307181 56.751005 104.510148 58.375036 106.134179 
C 59.999067 107.75821 62.202034 108.670709 64.49876 108.670709 
z
" clip-path="url(#pe8ac4fd530)" style="fill: #348abd; stroke: #348abd"/>
    <path d="M 84.67438 106.134179 
C 86.298411 106.134179 87.856144 105.488945 89.004507 104.340582 
C 90.15287 103.192218 90.798105 101.634485 90.798105 100.010455 
C 90.798105 98.386424 90.15287 96.828691 89.004507 95.680328 
C 87.856144 94.531964 86.298411 93.88673 84.67438 93.88673 
C 83.050349 93.88673 81.492616 94.531964 80.344253 95.680328 
C 79.19589 96.828691 78.550656 98.386424 78.550656 100.010455 
C 78.550656 101.634485 79.19589 103.192218 80.344253 104.340582 
C 81.492616 105.488945 83.050349 106.134179 84.67438 106.134179 
z
" clip-path="url(#pe8ac4fd530)" style="fill: #348abd; stroke: #348abd"/>
    <path d="M 104.85 108.670709 
C 107.146726 108.670709 109.349694 107.75821 110.973724 106.134179 
C 112.597755 104.510148 113.510254 102.307181 113.510254 100.010455 
C 113.510254 97.713728 112.597755 95.510761 110.973724 93.88673 
C 109.349694 92.2627 107.146726 91.350201 104.85 91.350201 
C 102.553274 91.350201 100.350306 92.2627 98.726276 93.88673 
C 97.102245 95.510761 96.189746 97.713728 96.189746 100.010455 
C 96.189746 102.307181 97.102245 104.510148 98.726276 106.134179 
C 100.350306 107.75821 102.553274 108.670709 104.85 108.670709 
z
" clip-path="url(#pe8ac4fd530)" style="fill: #348abd; stroke: #348abd"/>
    <path d="M 125.02562 106.134179 
C 126.649651 106.134179 128.207384 105.488945 129.355747 104.340582 
C 130.50411 103.192218 131.149344 101.634485 131.149344 100.010455 
C 131.149344 98.386424 130.50411 96.828691 129.355747 95.680328 
C 128.207384 94.531964 126.649651 93.88673 125.02562 93.88673 
C 123.401589 93.88673 121.843856 94.531964 120.695493 95.680328 
C 119.54713 96.828691 118.901895 98.386424 118.901895 100.010455 
C 118.901895 101.634485 119.54713 103.192218 120.695493 104.340582 
C 121.843856 105.488945 123.401589 106.134179 125.02562 106.134179 
z
" clip-path="url(#pe8ac4fd530)" style="fill: #348abd; stroke: #348abd"/>
    <path d="M 145.20124 106.134179 
C 146.82527 106.134179 148.383004 105.488945 149.531367 104.340582 
C 150.67973 103.192218 151.324964 101.634485 151.324964 100.010455 
C 151.324964 98.386424 150.67973 96.828691 149.531367 95.680328 
C 148.383004 94.531964 146.82527 93.88673 145.20124 93.88673 
C 143.577209 93.88673 142.019476 94.531964 140.871113 95.680328 
C 139.72275 96.828691 139.077515 98.386424 139.077515 100.010455 
C 139.077515 101.634485 139.72275 103.192218 140.871113 104.340582 
C 142.019476 105.488945 143.577209 106.134179 145.20124 106.134179 
z
" clip-path="url(#pe8ac4fd530)" style="fill: #348abd; stroke: #348abd"/>
    <path d="M 165.37686 106.134179 
C 167.00089 106.134179 168.558623 105.488945 169.706987 104.340582 
C 170.85535 103.192218 171.500584 101.634485 171.500584 100.010455 
C 171.500584 98.386424 170.85535 96.828691 169.706987 95.680328 
C 168.558623 94.531964 167.00089 93.88673 165.37686 93.88673 
C 163.752829 93.88673 162.195096 94.531964 161.046732 95.680328 
C 159.898369 96.828691 159.253135 98.386424 159.253135 100.010455 
C 159.253135 101.634485 159.898369 103.192218 161.046732 104.340582 
C 162.195096 105.488945 163.752829 106.134179 165.37686 106.134179 
z
" clip-path="url(#pe8ac4fd530)" style="fill: #348abd; stroke: #348abd"/>
    <path d="M 44.32314 86.088724 
C 45.947171 86.088724 47.504904 85.44349 48.653268 84.295127 
C 49.801631 83.146764 50.446865 81.589031 50.446865 79.965 
C 50.446865 78.340969 49.801631 76.783236 48.653268 75.634873 
C 47.504904 74.48651 45.947171 73.841276 44.32314 73.841276 
C 42.69911 73.841276 41.141377 74.48651 39.993013 75.634873 
C 38.84465 76.783236 38.199416 78.340969 38.199416 79.965 
C 38.199416 81.589031 38.84465 83.146764 39.993013 84.295127 
C 41.141377 85.44349 42.69911 86.088724 44.32314 86.088724 
z
" clip-path="url(#pe8ac4fd530)" style="fill: #348abd; stroke: #348abd"/>
    <path d="M 64.49876 86.088724 
C 66.122791 86.088724 67.680524 85.44349 68.828887 84.295127 
C 69.97725 83.146764 70.622485 81.589031 70.622485 79.965 
C 70.622485 78.340969 69.97725 76.783236 68.828887 75.634873 
C 67.680524 74.48651 66.122791 73.841276 64.49876 73.841276 
C 62.87473 73.841276 61.316996 74.48651 60.168633 75.634873 
C 59.02027 76.783236 58.375036 78.340969 58.375036 79.965 
C 58.375036 81.589031 59.02027 83.146764 60.168633 84.295127 
C 61.316996 85.44349 62.87473 86.088724 64.49876 86.088724 
z
" clip-path="url(#pe8ac4fd530)" style="fill: #348abd; stroke: #348abd"/>
    <path d="M 84.67438 86.088724 
C 86.298411 86.088724 87.856144 85.44349 89.004507 84.295127 
C 90.15287 83.146764 90.798105 81.589031 90.798105 79.965 
C 90.798105 78.340969 90.15287 76.783236 89.004507 75.634873 
C 87.856144 74.48651 86.298411 73.841276 84.67438 73.841276 
C 83.050349 73.841276 81.492616 74.48651 80.344253 75.634873 
C 79.19589 76.783236 78.550656 78.340969 78.550656 79.965 
C 78.550656 81.589031 79.19589 83.146764 80.344253 84.295127 
C 81.492616 85.44349 83.050349 86.088724 84.67438 86.088724 
z
" clip-path="url(#pe8ac4fd530)" style="fill: #348abd; stroke: #348abd"/>
    <path d="M 104.85 88.625254 
C 107.146726 88.625254 109.349694 87.712755 110.973724 86.088724 
C 112.597755 84.464694 113.510254 82.261726 113.510254 79.965 
C 113.510254 77.668274 112.597755 75.465306 110.973724 73.841276 
C 109.349694 72.217245 107.146726 71.304746 104.85 71.304746 
C 102.553274 71.304746 100.350306 72.217245 98.726276 73.841276 
C 97.102245 75.465306 96.189746 77.668274 96.189746 79.965 
C 96.189746 82.261726 97.102245 84.464694 98.726276 86.088724 
C 100.350306 87.712755 102.553274 88.625254 104.85 88.625254 
z
" clip-path="url(#pe8ac4fd530)" style="fill: #348abd; stroke: #348abd"/>
    <path d="M 125.02562 86.088724 
C 126.649651 86.088724 128.207384 85.44349 129.355747 84.295127 
C 130.50411 83.146764 131.149344 81.589031 131.149344 79.965 
C 131.149344 78.340969 130.50411 76.783236 129.355747 75.634873 
C 128.207384 74.48651 126.649651 73.841276 125.02562 73.841276 
C 123.401589 73.841276 121.843856 74.48651 120.695493 75.634873 
C 119.54713 76.783236 118.901895 78.340969 118.901895 79.965 
C 118.901895 81.589031 119.54713 83.146764 120.695493 84.295127 
C 121.843856 85.44349 123.401589 86.088724 125.02562 86.088724 
z
" clip-path="url(#pe8ac4fd530)" style="fill: #348abd; stroke: #348abd"/>
    <path d="M 145.20124 86.088724 
C 146.82527 86.088724 148.383004 85.44349 149.531367 84.295127 
C 150.67973 83.146764 151.324964 81.589031 151.324964 79.965 
C 151.324964 78.340969 150.67973 76.783236 149.531367 75.634873 
C 148.383004 74.48651 146.82527 73.841276 145.20124 73.841276 
C 143.577209 73.841276 142.019476 74.48651 140.871113 75.634873 
C 139.72275 76.783236 139.077515 78.340969 139.077515 79.965 
C 139.077515 81.589031 139.72275 83.146764 140.871113 84.295127 
C 142.019476 85.44349 143.577209 86.088724 145.20124 86.088724 
z
" clip-path="url(#pe8ac4fd530)" style="fill: #348abd; stroke: #348abd"/>
    <path d="M 165.37686 86.088724 
C 167.00089 86.088724 168.558623 85.44349 169.706987 84.295127 
C 170.85535 83.146764 171.500584 81.589031 171.500584 79.965 
C 171.500584 78.340969 170.85535 76.783236 169.706987 75.634873 
C 168.558623 74.48651 167.00089 73.841276 165.37686 73.841276 
C 163.752829 73.841276 162.195096 74.48651 161.046732 75.634873 
C 159.898369 76.783236 159.253135 78.340969 159.253135 79.965 
C 159.253135 81.589031 159.898369 83.146764 161.046732 84.295127 
C 162.195096 85.44349 163.752829 86.088724 165.37686 86.088724 
z
" clip-path="url(#pe8ac4fd530)" style="fill: #348abd; stroke: #348abd"/>
    <path d="M 44.32314 66.04327 
C 45.947171 66.04327 47.504904 65.398036 48.653268 64.249672 
C 49.801631 63.101309 50.446865 61.543576 50.446865 59.919545 
C 50.446865 58.295515 49.801631 56.737782 48.653268 55.589418 
C 47.504904 54.441055 45.947171 53.795821 44.32314 53.795821 
C 42.69911 53.795821 41.141377 54.441055 39.993013 55.589418 
C 38.84465 56.737782 38.199416 58.295515 38.199416 59.919545 
C 38.199416 61.543576 38.84465 63.101309 39.993013 64.249672 
C 41.141377 65.398036 42.69911 66.04327 44.32314 66.04327 
z
" clip-path="url(#pe8ac4fd530)" style="fill: #348abd; stroke: #348abd"/>
    <path d="M 64.49876 66.04327 
C 66.122791 66.04327 67.680524 65.398036 68.828887 64.249672 
C 69.97725 63.101309 70.622485 61.543576 70.622485 59.919545 
C 70.622485 58.295515 69.97725 56.737782 68.828887 55.589418 
C 67.680524 54.441055 66.122791 53.795821 64.49876 53.795821 
C 62.87473 53.795821 61.316996 54.441055 60.168633 55.589418 
C 59.02027 56.737782 58.375036 58.295515 58.375036 59.919545 
C 58.375036 61.543576 59.02027 63.101309 60.168633 64.249672 
C 61.316996 65.398036 62.87473 66.04327 64.49876 66.04327 
z
" clip-path="url(#pe8ac4fd530)" style="fill: #348abd; stroke: #348abd"/>
    <path d="M 84.67438 66.04327 
C 86.298411 66.04327 87.856144 65.398036 89.004507 64.249672 
C 90.15287 63.101309 90.798105 61.543576 90.798105 59.919545 
C 90.798105 58.295515 90.15287 56.737782 89.004507 55.589418 
C 87.856144 54.441055 86.298411 53.795821 84.67438 53.795821 
C 83.050349 53.795821 81.492616 54.441055 80.344253 55.589418 
C 79.19589 56.737782 78.550656 58.295515 78.550656 59.919545 
C 78.550656 61.543576 79.19589 63.101309 80.344253 64.249672 
C 81.492616 65.398036 83.050349 66.04327 84.67438 66.04327 
z
" clip-path="url(#pe8ac4fd530)" style="fill: #348abd; stroke: #348abd"/>
    <path d="M 104.85 66.04327 
C 106.474031 66.04327 108.031764 65.398036 109.180127 64.249672 
C 110.32849 63.101309 110.973724 61.543576 110.973724 59.919545 
C 110.973724 58.295515 110.32849 56.737782 109.180127 55.589418 
C 108.031764 54.441055 106.474031 53.795821 104.85 53.795821 
C 103.225969 53.795821 101.668236 54.441055 100.519873 55.589418 
C 99.37151 56.737782 98.726276 58.295515 98.726276 59.919545 
C 98.726276 61.543576 99.37151 63.101309 100.519873 64.249672 
C 101.668236 65.398036 103.225969 66.04327 104.85 66.04327 
z
" clip-path="url(#pe8ac4fd530)" style="fill: #348abd; stroke: #348abd"/>
    <path d="M 125.02562 66.04327 
C 126.649651 66.04327 128.207384 65.398036 129.355747 64.249672 
C 130.50411 63.101309 131.149344 61.543576 131.149344 59.919545 
C 131.149344 58.295515 130.50411 56.737782 129.355747 55.589418 
C 128.207384 54.441055 126.649651 53.795821 125.02562 53.795821 
C 123.401589 53.795821 121.843856 54.441055 120.695493 55.589418 
C 119.54713 56.737782 118.901895 58.295515 118.901895 59.919545 
C 118.901895 61.543576 119.54713 63.101309 120.695493 64.249672 
C 121.843856 65.398036 123.401589 66.04327 125.02562 66.04327 
z
" clip-path="url(#pe8ac4fd530)" style="fill: #348abd; stroke: #348abd"/>
    <path d="M 145.20124 66.04327 
C 146.82527 66.04327 148.383004 65.398036 149.531367 64.249672 
C 150.67973 63.101309 151.324964 61.543576 151.324964 59.919545 
C 151.324964 58.295515 150.67973 56.737782 149.531367 55.589418 
C 148.383004 54.441055 146.82527 53.795821 145.20124 53.795821 
C 143.577209 53.795821 142.019476 54.441055 140.871113 55.589418 
C 139.72275 56.737782 139.077515 58.295515 139.077515 59.919545 
C 139.077515 61.543576 139.72275 63.101309 140.871113 64.249672 
C 142.019476 65.398036 143.577209 66.04327 145.20124 66.04327 
z
" clip-path="url(#pe8ac4fd530)" style="fill: #348abd; stroke: #348abd"/>
    <path d="M 165.37686 66.04327 
C 167.00089 66.04327 168.558623 65.398036 169.706987 64.249672 
C 170.85535 63.101309 171.500584 61.543576 171.500584 59.919545 
C 171.500584 58.295515 170.85535 56.737782 169.706987 55.589418 
C 168.558623 54.441055 167.00089 53.795821 165.37686 53.795821 
C 163.752829 53.795821 162.195096 54.441055 161.046732 55.589418 
C 159.898369 56.737782 159.253135 58.295515 159.253135 59.919545 
C 159.253135 61.543576 159.898369 63.101309 161.046732 64.249672 
C 162.195096 65.398036 163.752829 66.04327 165.37686 66.04327 
z
" clip-path="url(#pe8ac4fd530)" style="fill: #348abd; stroke: #348abd"/>
    <path d="M 44.32314 45.997815 
C 45.947171 45.997815 47.504904 45.352581 48.653268 44.204218 
C 49.801631 43.055855 50.446865 41.498122 50.446865 39.874091 
C 50.446865 38.25006 49.801631 36.692327 48.653268 35.543964 
C 47.504904 34.395601 45.947171 33.750367 44.32314 33.750367 
C 42.69911 33.750367 41.141377 34.395601 39.993013 35.543964 
C 38.84465 36.692327 38.199416 38.25006 38.199416 39.874091 
C 38.199416 41.498122 38.84465 43.055855 39.993013 44.204218 
C 41.141377 45.352581 42.69911 45.997815 44.32314 45.997815 
z
" clip-path="url(#pe8ac4fd530)" style="fill: #348abd; stroke: #348abd"/>
    <path d="M 64.49876 48.534345 
C 66.795487 48.534345 68.998454 47.621846 70.622485 45.997815 
C 72.246515 44.373785 73.159014 42.170817 73.159014 39.874091 
C 73.159014 37.577365 72.246515 35.374397 70.622485 33.750367 
C 68.998454 32.126336 66.795487 31.213837 64.49876 31.213837 
C 62.202034 31.213837 59.999067 32.126336 58.375036 33.750367 
C 56.751005 35.374397 55.838506 37.577365 55.838506 39.874091 
C 55.838506 42.170817 56.751005 44.373785 58.375036 45.997815 
C 59.999067 47.621846 62.202034 48.534345 64.49876 48.534345 
z
" clip-path="url(#pe8ac4fd530)" style="fill: #348abd; stroke: #348abd"/>
    <path d="M 84.67438 45.997815 
C 86.298411 45.997815 87.856144 45.352581 89.004507 44.204218 
C 90.15287 43.055855 90.798105 41.498122 90.798105 39.874091 
C 90.798105 38.25006 90.15287 36.692327 89.004507 35.543964 
C 87.856144 34.395601 86.298411 33.750367 84.67438 33.750367 
C 83.050349 33.750367 81.492616 34.395601 80.344253 35.543964 
C 79.19589 36.692327 78.550656 38.25006 78.550656 39.874091 
C 78.550656 41.498122 79.19589 43.055855 80.344253 44.204218 
C 81.492616 45.352581 83.050349 45.997815 84.67438 45.997815 
z
" clip-path="url(#pe8ac4fd530)" style="fill: #348abd; stroke: #348abd"/>
    <path d="M 104.85 45.997815 
C 106.474031 45.997815 108.031764 45.352581 109.180127 44.204218 
C 110.32849 43.055855 110.973724 41.498122 110.973724 39.874091 
C 110.973724 38.25006 110.32849 36.692327 109.180127 35.543964 
C 108.031764 34.395601 106.474031 33.750367 104.85 33.750367 
C 103.225969 33.750367 101.668236 34.395601 100.519873 35.543964 
C 99.37151 36.692327 98.726276 38.25006 98.726276 39.874091 
C 98.726276 41.498122 99.37151 43.055855 100.519873 44.204218 
C 101.668236 45.352581 103.225969 45.997815 104.85 45.997815 
z
" clip-path="url(#pe8ac4fd530)" style="fill: #348abd; stroke: #348abd"/>
    <path d="M 125.02562 45.997815 
C 126.649651 45.997815 128.207384 45.352581 129.355747 44.204218 
C 130.50411 43.055855 131.149344 41.498122 131.149344 39.874091 
C 131.149344 38.25006 130.50411 36.692327 129.355747 35.543964 
C 128.207384 34.395601 126.649651 33.750367 125.02562 33.750367 
C 123.401589 33.750367 121.843856 34.395601 120.695493 35.543964 
C 119.54713 36.692327 118.901895 38.25006 118.901895 39.874091 
C 118.901895 41.498122 119.54713 43.055855 120.695493 44.204218 
C 121.843856 45.352581 123.401589 45.997815 125.02562 45.997815 
z
" clip-path="url(#pe8ac4fd530)" style="fill: #348abd; stroke: #348abd"/>
    <path d="M 145.20124 45.997815 
C 146.82527 45.997815 148.383004 45.352581 149.531367 44.204218 
C 150.67973 43.055855 151.324964 41.498122 151.324964 39.874091 
C 151.324964 38.25006 150.67973 36.692327 149.531367 35.543964 
C 148.383004 34.395601 146.82527 33.750367 145.20124 33.750367 
C 143.577209 33.750367 142.019476 34.395601 140.871113 35.543964 
C 139.72275 36.692327 139.077515 38.25006 139.077515 39.874091 
C 139.077515 41.498122 139.72275 43.055855 140.871113 44.204218 
C 142.019476 45.352581 143.577209 45.997815 145.20124 45.997815 
z
" clip-path="url(#pe8ac4fd530)" style="fill: #348abd; stroke: #348abd"/>
    <path d="M 165.37686 45.997815 
C 167.00089 45.997815 168.558623 45.352581 169.706987 44.204218 
C 170.85535 43.055855 171.500584 41.498122 171.500584 39.874091 
C 171.500584 38.25006 170.85535 36.692327 169.706987 35.543964 
C 168.558623 34.395601 167.00089 33.750367 165.37686 33.750367 
C 163.752829 33.750367 162.195096 34.395601 161.046732 35.543964 
C 159.898369 36.692327 159.253135 38.25006 159.253135 39.874091 
C 159.253135 41.498122 159.898369 43.055855 161.046732 44.204218 
C 162.195096 45.352581 163.752829 45.997815 165.37686 45.997815 
z
" clip-path="url(#pe8ac4fd530)" style="fill: #348abd; stroke: #348abd"/>
    <path d="M 44.32314 25.952361 
C 45.947171 25.952361 47.504904 25.307126 48.653268 24.158763 
C 49.801631 23.0104 50.446865 21.452667 50.446865 19.828636 
C 50.446865 18.204606 49.801631 16.646872 48.653268 15.498509 
C 47.504904 14.350146 45.947171 13.704912 44.32314 13.704912 
C 42.69911 13.704912 41.141377 14.350146 39.993013 15.498509 
C 38.84465 16.646872 38.199416 18.204606 38.199416 19.828636 
C 38.199416 21.452667 38.84465 23.0104 39.993013 24.158763 
C 41.141377 25.307126 42.69911 25.952361 44.32314 25.952361 
z
" clip-path="url(#pe8ac4fd530)" style="fill: #348abd; stroke: #348abd"/>
    <path d="M 64.49876 28.48889 
C 66.795487 28.48889 68.998454 27.576391 70.622485 25.952361 
C 72.246515 24.32833 73.159014 22.125363 73.159014 19.828636 
C 73.159014 17.53191 72.246515 15.328943 70.622485 13.704912 
C 68.998454 12.080881 66.795487 11.168382 64.49876 11.168382 
C 62.202034 11.168382 59.999067 12.080881 58.375036 13.704912 
C 56.751005 15.328943 55.838506 17.53191 55.838506 19.828636 
C 55.838506 22.125363 56.751005 24.32833 58.375036 25.952361 
C 59.999067 27.576391 62.202034 28.48889 64.49876 28.48889 
z
" clip-path="url(#pe8ac4fd530)" style="fill: #348abd; stroke: #348abd"/>
    <path d="M 84.67438 28.48889 
C 86.971106 28.48889 89.174074 27.576391 90.798105 25.952361 
C 92.422135 24.32833 93.334634 22.125363 93.334634 19.828636 
C 93.334634 17.53191 92.422135 15.328943 90.798105 13.704912 
C 89.174074 12.080881 86.971106 11.168382 84.67438 11.168382 
C 82.377654 11.168382 80.174686 12.080881 78.550656 13.704912 
C 76.926625 15.328943 76.014126 17.53191 76.014126 19.828636 
C 76.014126 22.125363 76.926625 24.32833 78.550656 25.952361 
C 80.174686 27.576391 82.377654 28.48889 84.67438 28.48889 
z
" clip-path="url(#pe8ac4fd530)" style="fill: #348abd; stroke: #348abd"/>
    <path d="M 104.85 25.952361 
C 106.474031 25.952361 108.031764 25.307126 109.180127 24.158763 
C 110.32849 23.0104 110.973724 21.452667 110.973724 19.828636 
C 110.973724 18.204606 110.32849 16.646872 109.180127 15.498509 
C 108.031764 14.350146 106.474031 13.704912 104.85 13.704912 
C 103.225969 13.704912 101.668236 14.350146 100.519873 15.498509 
C 99.37151 16.646872 98.726276 18.204606 98.726276 19.828636 
C 98.726276 21.452667 99.37151 23.0104 100.519873 24.158763 
C 101.668236 25.307126 103.225969 25.952361 104.85 25.952361 
z
" clip-path="url(#pe8ac4fd530)" style="fill: #348abd; stroke: #348abd"/>
    <path d="M 125.02562 28.48889 
C 127.322346 28.48889 129.525314 27.576391 131.149344 25.952361 
C 132.773375 24.32833 133.685874 22.125363 133.685874 19.828636 
C 133.685874 17.53191 132.773375 15.328943 131.149344 13.704912 
C 129.525314 12.080881 127.322346 11.168382 125.02562 11.168382 
C 122.728894 11.168382 120.525926 12.080881 118.901895 13.704912 
C 117.277865 15.328943 116.365366 17.53191 116.365366 19.828636 
C 116.365366 22.125363 117.277865 24.32833 118.901895 25.952361 
C 120.525926 27.576391 122.728894 28.48889 125.02562 28.48889 
z
" clip-path="url(#pe8ac4fd530)" style="fill: #348abd; stroke: #348abd"/>
    <path d="M 145.20124 25.952361 
C 146.82527 25.952361 148.383004 25.307126 149.531367 24.158763 
C 150.67973 23.0104 151.324964 21.452667 151.324964 19.828636 
C 151.324964 18.204606 150.67973 16.646872 149.531367 15.498509 
C 148.383004 14.350146 146.82527 13.704912 145.20124 13.704912 
C 143.577209 13.704912 142.019476 14.350146 140.871113 15.498509 
C 139.72275 16.646872 139.077515 18.204606 139.077515 19.828636 
C 139.077515 21.452667 139.72275 23.0104 140.871113 24.158763 
C 142.019476 25.307126 143.577209 25.952361 145.20124 25.952361 
z
" clip-path="url(#pe8ac4fd530)" style="fill: #348abd; stroke: #348abd"/>
    <path d="M 165.37686 25.952361 
C 167.00089 25.952361 168.558623 25.307126 169.706987 24.158763 
C 170.85535 23.0104 171.500584 21.452667 171.500584 19.828636 
C 171.500584 18.204606 170.85535 16.646872 169.706987 15.498509 
C 168.558623 14.350146 167.00089 13.704912 165.37686 13.704912 
C 163.752829 13.704912 162.195096 14.350146 161.046732 15.498509 
C 159.898369 16.646872 159.253135 18.204606 159.253135 19.828636 
C 159.253135 21.452667 159.898369 23.0104 161.046732 24.158763 
C 162.195096 25.307126 163.752829 25.952361 165.37686 25.952361 
z
" clip-path="url(#pe8ac4fd530)" style="fill: #348abd; stroke: #348abd"/>
    <path d="M 24.147521 146.225088 
C 25.771551 146.225088 27.329285 145.579854 28.477648 144.431491 
C 29.626011 143.283128 30.271245 141.725394 30.271245 140.101364 
C 30.271245 138.477333 29.626011 136.9196 28.477648 135.771237 
C 27.329285 134.622874 25.771551 133.977639 24.147521 133.977639 
C 22.52349 133.977639 20.965757 134.622874 19.817394 135.771237 
C 18.669031 136.9196 18.023796 138.477333 18.023796 140.101364 
C 18.023796 141.725394 18.669031 143.283128 19.817394 144.431491 
C 20.965757 145.579854 22.52349 146.225088 24.147521 146.225088 
L 24.147521 146.225088 
z
" clip-path="url(#pe8ac4fd530)" style="fill: none"/>
    <path d="M 185.552479 25.952361 
C 187.17651 25.952361 188.734243 25.307126 189.882606 24.158763 
C 191.030969 23.0104 191.676204 21.452667 191.676204 19.828636 
C 191.676204 18.204606 191.030969 16.646872 189.882606 15.498509 
C 188.734243 14.350146 187.17651 13.704912 185.552479 13.704912 
C 183.928449 13.704912 182.370715 14.350146 181.222352 15.498509 
C 180.073989 16.646872 179.428755 18.204606 179.428755 19.828636 
C 179.428755 21.452667 180.073989 23.0104 181.222352 24.158763 
C 182.370715 25.307126 183.928449 25.952361 185.552479 25.952361 
L 185.552479 25.952361 
z
" clip-path="url(#pe8ac4fd530)" style="fill: none"/>
   </g>
   <g id="text_1">
    <!-- I -->
    <g transform="translate(20.92453 146.327223) scale(0.25 -0.25)">
     <defs>
      <path id="CMSS17-49" d="M 1094 4416 
L 557 4416 
L 557 0 
L 1094 0 
L 1094 4416 
z
" transform="scale(0.015625)"/>
     </defs>
     <use xlink:href="#CMSS17-49" transform="scale(0.996264)"/>
    </g>
   </g>
   <g id="text_2">
    <!-- O -->
    <g transform="translate(176.924449 26.054496) scale(0.25 -0.25)">
     <defs>
      <path id="CMSS17-4f" d="M 4096 2178 
C 4096 3503 3219 4497 2214 4497 
C 1210 4497 333 3497 333 2178 
C 333 847 1222 -128 2214 -128 
C 3206 -128 4096 847 4096 2178 
z
M 2214 273 
C 1510 273 870 1057 870 2261 
C 870 3433 1549 4096 2214 4096 
C 2880 4096 3558 3433 3558 2261 
C 3558 1051 2912 273 2214 273 
z
" transform="scale(0.015625)"/>
     </defs>
     <use xlink:href="#CMSS17-4f" transform="scale(0.996264)"/>
    </g>
   </g>
  </g>
 </g>
 <defs>
  <clipPath id="pe8ac4fd530">
   <rect x="7.2" y="7.2" width="195.3" height="145.53"/>
  </clipPath>
 </defs>
</svg>
