<?xml version="1.0" encoding="utf-8" standalone="no"?>
<!DOCTYPE svg PUBLIC "-//W3C//DTD SVG 1.1//EN"
  "http://www.w3.org/Graphics/SVG/1.1/DTD/svg11.dtd">
<svg xmlns:xlink="http://www.w3.org/1999/xlink" width="182.760756pt" height="145.018103pt" viewBox="0 0 182.760756 145.018103" xmlns="http://www.w3.org/2000/svg" version="1.1">
 <metadata>
  <rdf:RDF xmlns:dc="http://purl.org/dc/elements/1.1/" xmlns:cc="http://creativecommons.org/ns#" xmlns:rdf="http://www.w3.org/1999/02/22-rdf-syntax-ns#">
   <cc:Work>
    <dc:type rdf:resource="http://purl.org/dc/dcmitype/StillImage"/>
    <dc:date>2026-03-31T14:24:42.630629</dc:date>
    <dc:format>image/svg+xml</dc:format>
    <dc:creator>
     <cc:Agent>
      <dc:title>Matplotlib v3.9.2, https://matplotlib.org/</dc:title>
     </cc:Agent>
    </dc:creator>
   </cc:Work>
  </rdf:RDF>
 </metadata>
 <defs>
  <style type="text/css">*{stroke-linejoin: round; stroke-linecap: butt}</style>
 </defs>
 <g id="figure_1">
  <g id="patch_1">
   <path d="M 0 145.018103 
L 182.760756 145.018103 
L 182.760756 0 
L 0 0 
L 0 145.018103 
z
" style="fill: none"/>
  </g>
  <g id="axes_1">
   <g id="patch_2">
    <path d="M 32.685756 116.206749 
L 179.160756 116.206749 
L 179.160756 7.059249 
L 32.685756 7.059249 
L 32.685756 116.206749 
z
" style="fill: none"/>
   </g>
   <g id="matplotlib.axis_1">
    <g id="xtick_1">
     <g id="line2d_1">
      <path d="M 39.34371 116.206749 
L 39.34371 7.059249 
" clip-path="url(#p352918aa83)" style="fill: none; stroke-dasharray: 1.85,0.8; stroke-dashoffset: 0; stroke: #000000; stroke-opacity: 0.5; stroke-width: 0.5"/>
     </g>
     <g id="line2d_2">
      <defs>
       <path id="m5f7256058b" d="M 0 0 
L 0 -3 
" style="stroke: #000000; stroke-width: 0.5"/>
      </defs>
      <g>
       <use xlink:href="#m5f7256058b" x="39.34371" y="116.206749" style="stroke: #000000; stroke-width: 0.5"/>
      </g>
     </g>
     <g id="line2d_3">
      <defs>
       <path id="md060a7f627" d="M 0 0 
L 0 3 
" style="stroke: #000000; stroke-width: 0.5"/>
      </defs>
      <g>
       <use xlink:href="#md060a7f627" x="39.34371" y="7.059249" style="stroke: #000000; stroke-width: 0.5"/>
      </g>
     </g>
     <g id="text_1">
      <!-- $\mathdefault{3}$ -->
      <g transform="translate(36.853043 126.625248) scale(0.1 -0.1)">
       <defs>
        <path id="CMR17-33" d="M 1414 2157 
C 1984 2157 2234 1662 2234 1090 
C 2234 320 1824 25 1453 25 
C 1114 25 563 194 390 693 
C 422 680 454 680 486 680 
C 640 680 755 782 755 948 
C 755 1133 614 1216 486 1216 
C 378 1216 211 1165 211 926 
C 211 335 787 -128 1466 -128 
C 2176 -128 2720 430 2720 1085 
C 2720 1707 2208 2157 1600 2227 
C 2086 2328 2554 2756 2554 3329 
C 2554 3820 2048 4179 1472 4179 
C 890 4179 378 3829 378 3329 
C 378 3110 544 3072 627 3072 
C 762 3072 877 3155 877 3321 
C 877 3486 762 3569 627 3569 
C 602 3569 570 3569 544 3557 
C 730 3959 1235 4032 1459 4032 
C 1683 4032 2106 3925 2106 3320 
C 2106 3143 2080 2828 1862 2550 
C 1670 2304 1453 2304 1242 2284 
C 1210 2284 1062 2269 1037 2269 
C 992 2263 966 2257 966 2208 
C 966 2163 973 2157 1101 2157 
L 1414 2157 
z
" transform="scale(0.015625)"/>
       </defs>
       <use xlink:href="#CMR17-33" transform="scale(0.996264)"/>
      </g>
     </g>
    </g>
    <g id="xtick_2">
     <g id="line2d_4">
      <path d="M 61.536892 116.206749 
L 61.536892 7.059249 
" clip-path="url(#p352918aa83)" style="fill: none; stroke-dasharray: 1.85,0.8; stroke-dashoffset: 0; stroke: #000000; stroke-opacity: 0.5; stroke-width: 0.5"/>
     </g>
     <g id="line2d_5">
      <g>
       <use xlink:href="#m5f7256058b" x="61.536892" y="116.206749" style="stroke: #000000; stroke-width: 0.5"/>
      </g>
     </g>
     <g id="line2d_6">
      <g>
       <use xlink:href="#md060a7f627" x="61.536892" y="7.059249" style="stroke: #000000; stroke-width: 0.5"/>
      </g>
     </g>
     <g id="text_2">
      <!-- $\mathdefault{5}$ -->
      <g transform="translate(59.046224 126.625248) scale(0.1 -0.1)">
       <defs>
        <path id="CMR17-35" d="M 730 3692 
C 794 3666 1056 3584 1325 3584 
C 1920 3584 2246 3911 2432 4100 
C 2432 4157 2432 4192 2394 4192 
C 2387 4192 2374 4192 2323 4163 
C 2099 4058 1837 3973 1517 3973 
C 1325 3973 1037 3999 723 4139 
C 653 4171 640 4171 634 4171 
C 602 4171 595 4164 595 4037 
L 595 2203 
C 595 2089 595 2057 659 2057 
C 691 2057 704 2070 736 2114 
C 941 2401 1222 2522 1542 2522 
C 1766 2522 2246 2382 2246 1289 
C 2246 1085 2246 715 2054 421 
C 1894 159 1645 25 1370 25 
C 947 25 518 320 403 814 
C 429 807 480 795 506 795 
C 589 795 749 840 749 1038 
C 749 1210 627 1280 506 1280 
C 358 1280 262 1190 262 1011 
C 262 454 704 -128 1382 -128 
C 2042 -128 2669 440 2669 1264 
C 2669 2030 2170 2624 1549 2624 
C 1222 2624 947 2503 730 2274 
L 730 3692 
z
" transform="scale(0.015625)"/>
       </defs>
       <use xlink:href="#CMR17-35" transform="scale(0.996264)"/>
      </g>
     </g>
    </g>
    <g id="xtick_3">
     <g id="line2d_7">
      <path d="M 83.730074 116.206749 
L 83.730074 7.059249 
" clip-path="url(#p352918aa83)" style="fill: none; stroke-dasharray: 1.85,0.8; stroke-dashoffset: 0; stroke: #000000; stroke-opacity: 0.5; stroke-width: 0.5"/>
     </g>
     <g id="line2d_8">
      <g>
       <use xlink:href="#m5f7256058b" x="83.730074" y="116.206749" style="stroke: #000000; stroke-width: 0.5"/>
      </g>
     </g>
     <g id="line2d_9">
      <g>
       <use xlink:href="#md060a7f627" x="83.730074" y="7.059249" style="stroke: #000000; stroke-width: 0.5"/>
      </g>
     </g>
     <g id="text_3">
      <!-- $\mathdefault{7}$ -->
      <g transform="translate(81.239406 126.625248) scale(0.1 -0.1)">
       <defs>
        <path id="CMR17-37" d="M 2886 3941 
L 2886 4081 
L 1382 4081 
C 634 4081 621 4165 595 4288 
L 480 4288 
L 294 3094 
L 410 3094 
C 429 3215 474 3540 550 3661 
C 589 3712 1062 3712 1171 3712 
L 2579 3712 
L 1869 2661 
C 1395 1954 1069 999 1069 165 
C 1069 89 1069 -128 1299 -128 
C 1530 -128 1530 89 1530 171 
L 1530 465 
C 1530 1508 1709 2196 2003 2636 
L 2886 3941 
z
" transform="scale(0.015625)"/>
       </defs>
       <use xlink:href="#CMR17-37" transform="scale(0.996264)"/>
      </g>
     </g>
    </g>
    <g id="xtick_4">
     <g id="line2d_10">
      <path d="M 105.923256 116.206749 
L 105.923256 7.059249 
" clip-path="url(#p352918aa83)" style="fill: none; stroke-dasharray: 1.85,0.8; stroke-dashoffset: 0; stroke: #000000; stroke-opacity: 0.5; stroke-width: 0.5"/>
     </g>
     <g id="line2d_11">
      <g>
       <use xlink:href="#m5f7256058b" x="105.923256" y="116.206749" style="stroke: #000000; stroke-width: 0.5"/>
      </g>
     </g>
     <g id="line2d_12">
      <g>
       <use xlink:href="#md060a7f627" x="105.923256" y="7.059249" style="stroke: #000000; stroke-width: 0.5"/>
      </g>
     </g>
     <g id="text_4">
      <!-- $\mathdefault{9}$ -->
      <g transform="translate(103.432588 126.625248) scale(0.1 -0.1)">
       <defs>
        <path id="CMR17-39" d="M 2253 1864 
C 2253 464 1670 31 1190 31 
C 1043 31 685 31 538 294 
C 704 268 826 357 826 518 
C 826 692 685 749 595 749 
C 538 749 365 723 365 506 
C 365 71 742 -128 1203 -128 
C 1939 -128 2688 674 2688 2073 
C 2688 3817 1971 4179 1485 4179 
C 851 4179 243 3628 243 2778 
C 243 1991 762 1408 1414 1408 
C 1952 1408 2189 1903 2253 2112 
L 2253 1864 
z
M 1427 1510 
C 1254 1510 1011 1542 813 1922 
C 678 2169 678 2461 678 2771 
C 678 3146 678 3405 858 3684 
C 947 3817 1114 4032 1485 4032 
C 2240 4032 2240 2885 2240 2632 
C 2240 2182 2035 1510 1427 1510 
z
" transform="scale(0.015625)"/>
       </defs>
       <use xlink:href="#CMR17-39" transform="scale(0.996264)"/>
      </g>
     </g>
    </g>
    <g id="xtick_5">
     <g id="line2d_13">
      <path d="M 128.116438 116.206749 
L 128.116438 7.059249 
" clip-path="url(#p352918aa83)" style="fill: none; stroke-dasharray: 1.85,0.8; stroke-dashoffset: 0; stroke: #000000; stroke-opacity: 0.5; stroke-width: 0.5"/>
     </g>
     <g id="line2d_14">
      <g>
       <use xlink:href="#m5f7256058b" x="128.116438" y="116.206749" style="stroke: #000000; stroke-width: 0.5"/>
      </g>
     </g>
     <g id="line2d_15">
      <g>
       <use xlink:href="#md060a7f627" x="128.116438" y="7.059249" style="stroke: #000000; stroke-width: 0.5"/>
      </g>
     </g>
     <g id="text_5">
      <!-- $\mathdefault{11}$ -->
      <g transform="translate(123.135102 126.625248) scale(0.1 -0.1)">
       <defs>
        <path id="CMR17-31" d="M 1702 4058 
C 1702 4192 1696 4192 1606 4192 
C 1357 3916 979 3827 621 3827 
C 602 3827 570 3827 563 3808 
C 557 3795 557 3782 557 3648 
C 755 3648 1088 3686 1344 3839 
L 1344 461 
C 1344 236 1331 160 781 160 
L 589 160 
L 589 0 
C 896 0 1216 0 1523 0 
C 1830 0 2150 0 2458 0 
L 2458 160 
L 2266 160 
C 1715 160 1702 230 1702 458 
L 1702 4058 
z
" transform="scale(0.015625)"/>
       </defs>
       <use xlink:href="#CMR17-31" transform="scale(0.996264)"/>
       <use xlink:href="#CMR17-31" transform="translate(45.690477 0) scale(0.996264)"/>
      </g>
     </g>
    </g>
    <g id="xtick_6">
     <g id="line2d_16">
      <path d="M 150.309619 116.206749 
L 150.309619 7.059249 
" clip-path="url(#p352918aa83)" style="fill: none; stroke-dasharray: 1.85,0.8; stroke-dashoffset: 0; stroke: #000000; stroke-opacity: 0.5; stroke-width: 0.5"/>
     </g>
     <g id="line2d_17">
      <g>
       <use xlink:href="#m5f7256058b" x="150.309619" y="116.206749" style="stroke: #000000; stroke-width: 0.5"/>
      </g>
     </g>
     <g id="line2d_18">
      <g>
       <use xlink:href="#md060a7f627" x="150.309619" y="7.059249" style="stroke: #000000; stroke-width: 0.5"/>
      </g>
     </g>
     <g id="text_6">
      <!-- $\mathdefault{13}$ -->
      <g transform="translate(145.328284 126.625248) scale(0.1 -0.1)">
       <use xlink:href="#CMR17-31" transform="scale(0.996264)"/>
       <use xlink:href="#CMR17-33" transform="translate(45.690477 0) scale(0.996264)"/>
      </g>
     </g>
    </g>
    <g id="xtick_7">
     <g id="line2d_19">
      <path d="M 172.502801 116.206749 
L 172.502801 7.059249 
" clip-path="url(#p352918aa83)" style="fill: none; stroke-dasharray: 1.85,0.8; stroke-dashoffset: 0; stroke: #000000; stroke-opacity: 0.5; stroke-width: 0.5"/>
     </g>
     <g id="line2d_20">
      <g>
       <use xlink:href="#m5f7256058b" x="172.502801" y="116.206749" style="stroke: #000000; stroke-width: 0.5"/>
      </g>
     </g>
     <g id="line2d_21">
      <g>
       <use xlink:href="#md060a7f627" x="172.502801" y="7.059249" style="stroke: #000000; stroke-width: 0.5"/>
      </g>
     </g>
     <g id="text_7">
      <!-- $\mathdefault{15}$ -->
      <g transform="translate(167.521466 126.625248) scale(0.1 -0.1)">
       <use xlink:href="#CMR17-31" transform="scale(0.996264)"/>
       <use xlink:href="#CMR17-35" transform="translate(45.690477 0) scale(0.996264)"/>
      </g>
     </g>
    </g>
    <g id="xtick_8">
     <g id="line2d_22">
      <defs>
       <path id="mfdd5731390" d="M 0 0 
L 0 -1.5 
" style="stroke: #000000; stroke-width: 0.5"/>
      </defs>
      <g>
       <use xlink:href="#mfdd5731390" x="33.795415" y="116.206749" style="stroke: #000000; stroke-width: 0.5"/>
      </g>
     </g>
     <g id="line2d_23">
      <defs>
       <path id="m3ab2ac8a3d" d="M 0 0 
L 0 1.5 
" style="stroke: #000000; stroke-width: 0.5"/>
      </defs>
      <g>
       <use xlink:href="#m3ab2ac8a3d" x="33.795415" y="7.059249" style="stroke: #000000; stroke-width: 0.5"/>
      </g>
     </g>
    </g>
    <g id="xtick_9">
     <g id="line2d_24">
      <g>
       <use xlink:href="#mfdd5731390" x="44.892006" y="116.206749" style="stroke: #000000; stroke-width: 0.5"/>
      </g>
     </g>
     <g id="line2d_25">
      <g>
       <use xlink:href="#m3ab2ac8a3d" x="44.892006" y="7.059249" style="stroke: #000000; stroke-width: 0.5"/>
      </g>
     </g>
    </g>
    <g id="xtick_10">
     <g id="line2d_26">
      <g>
       <use xlink:href="#mfdd5731390" x="50.440301" y="116.206749" style="stroke: #000000; stroke-width: 0.5"/>
      </g>
     </g>
     <g id="line2d_27">
      <g>
       <use xlink:href="#m3ab2ac8a3d" x="50.440301" y="7.059249" style="stroke: #000000; stroke-width: 0.5"/>
      </g>
     </g>
    </g>
    <g id="xtick_11">
     <g id="line2d_28">
      <g>
       <use xlink:href="#mfdd5731390" x="55.988597" y="116.206749" style="stroke: #000000; stroke-width: 0.5"/>
      </g>
     </g>
     <g id="line2d_29">
      <g>
       <use xlink:href="#m3ab2ac8a3d" x="55.988597" y="7.059249" style="stroke: #000000; stroke-width: 0.5"/>
      </g>
     </g>
    </g>
    <g id="xtick_12">
     <g id="line2d_30">
      <g>
       <use xlink:href="#mfdd5731390" x="67.085188" y="116.206749" style="stroke: #000000; stroke-width: 0.5"/>
      </g>
     </g>
     <g id="line2d_31">
      <g>
       <use xlink:href="#m3ab2ac8a3d" x="67.085188" y="7.059249" style="stroke: #000000; stroke-width: 0.5"/>
      </g>
     </g>
    </g>
    <g id="xtick_13">
     <g id="line2d_32">
      <g>
       <use xlink:href="#mfdd5731390" x="72.633483" y="116.206749" style="stroke: #000000; stroke-width: 0.5"/>
      </g>
     </g>
     <g id="line2d_33">
      <g>
       <use xlink:href="#m3ab2ac8a3d" x="72.633483" y="7.059249" style="stroke: #000000; stroke-width: 0.5"/>
      </g>
     </g>
    </g>
    <g id="xtick_14">
     <g id="line2d_34">
      <g>
       <use xlink:href="#mfdd5731390" x="78.181778" y="116.206749" style="stroke: #000000; stroke-width: 0.5"/>
      </g>
     </g>
     <g id="line2d_35">
      <g>
       <use xlink:href="#m3ab2ac8a3d" x="78.181778" y="7.059249" style="stroke: #000000; stroke-width: 0.5"/>
      </g>
     </g>
    </g>
    <g id="xtick_15">
     <g id="line2d_36">
      <g>
       <use xlink:href="#mfdd5731390" x="89.278369" y="116.206749" style="stroke: #000000; stroke-width: 0.5"/>
      </g>
     </g>
     <g id="line2d_37">
      <g>
       <use xlink:href="#m3ab2ac8a3d" x="89.278369" y="7.059249" style="stroke: #000000; stroke-width: 0.5"/>
      </g>
     </g>
    </g>
    <g id="xtick_16">
     <g id="line2d_38">
      <g>
       <use xlink:href="#mfdd5731390" x="94.826665" y="116.206749" style="stroke: #000000; stroke-width: 0.5"/>
      </g>
     </g>
     <g id="line2d_39">
      <g>
       <use xlink:href="#m3ab2ac8a3d" x="94.826665" y="7.059249" style="stroke: #000000; stroke-width: 0.5"/>
      </g>
     </g>
    </g>
    <g id="xtick_17">
     <g id="line2d_40">
      <g>
       <use xlink:href="#mfdd5731390" x="100.37496" y="116.206749" style="stroke: #000000; stroke-width: 0.5"/>
      </g>
     </g>
     <g id="line2d_41">
      <g>
       <use xlink:href="#m3ab2ac8a3d" x="100.37496" y="7.059249" style="stroke: #000000; stroke-width: 0.5"/>
      </g>
     </g>
    </g>
    <g id="xtick_18">
     <g id="line2d_42">
      <g>
       <use xlink:href="#mfdd5731390" x="111.471551" y="116.206749" style="stroke: #000000; stroke-width: 0.5"/>
      </g>
     </g>
     <g id="line2d_43">
      <g>
       <use xlink:href="#m3ab2ac8a3d" x="111.471551" y="7.059249" style="stroke: #000000; stroke-width: 0.5"/>
      </g>
     </g>
    </g>
    <g id="xtick_19">
     <g id="line2d_44">
      <g>
       <use xlink:href="#mfdd5731390" x="117.019847" y="116.206749" style="stroke: #000000; stroke-width: 0.5"/>
      </g>
     </g>
     <g id="line2d_45">
      <g>
       <use xlink:href="#m3ab2ac8a3d" x="117.019847" y="7.059249" style="stroke: #000000; stroke-width: 0.5"/>
      </g>
     </g>
    </g>
    <g id="xtick_20">
     <g id="line2d_46">
      <g>
       <use xlink:href="#mfdd5731390" x="122.568142" y="116.206749" style="stroke: #000000; stroke-width: 0.5"/>
      </g>
     </g>
     <g id="line2d_47">
      <g>
       <use xlink:href="#m3ab2ac8a3d" x="122.568142" y="7.059249" style="stroke: #000000; stroke-width: 0.5"/>
      </g>
     </g>
    </g>
    <g id="xtick_21">
     <g id="line2d_48">
      <g>
       <use xlink:href="#mfdd5731390" x="133.664733" y="116.206749" style="stroke: #000000; stroke-width: 0.5"/>
      </g>
     </g>
     <g id="line2d_49">
      <g>
       <use xlink:href="#m3ab2ac8a3d" x="133.664733" y="7.059249" style="stroke: #000000; stroke-width: 0.5"/>
      </g>
     </g>
    </g>
    <g id="xtick_22">
     <g id="line2d_50">
      <g>
       <use xlink:href="#mfdd5731390" x="139.213028" y="116.206749" style="stroke: #000000; stroke-width: 0.5"/>
      </g>
     </g>
     <g id="line2d_51">
      <g>
       <use xlink:href="#m3ab2ac8a3d" x="139.213028" y="7.059249" style="stroke: #000000; stroke-width: 0.5"/>
      </g>
     </g>
    </g>
    <g id="xtick_23">
     <g id="line2d_52">
      <g>
       <use xlink:href="#mfdd5731390" x="144.761324" y="116.206749" style="stroke: #000000; stroke-width: 0.5"/>
      </g>
     </g>
     <g id="line2d_53">
      <g>
       <use xlink:href="#m3ab2ac8a3d" x="144.761324" y="7.059249" style="stroke: #000000; stroke-width: 0.5"/>
      </g>
     </g>
    </g>
    <g id="xtick_24">
     <g id="line2d_54">
      <g>
       <use xlink:href="#mfdd5731390" x="155.857915" y="116.206749" style="stroke: #000000; stroke-width: 0.5"/>
      </g>
     </g>
     <g id="line2d_55">
      <g>
       <use xlink:href="#m3ab2ac8a3d" x="155.857915" y="7.059249" style="stroke: #000000; stroke-width: 0.5"/>
      </g>
     </g>
    </g>
    <g id="xtick_25">
     <g id="line2d_56">
      <g>
       <use xlink:href="#mfdd5731390" x="161.40621" y="116.206749" style="stroke: #000000; stroke-width: 0.5"/>
      </g>
     </g>
     <g id="line2d_57">
      <g>
       <use xlink:href="#m3ab2ac8a3d" x="161.40621" y="7.059249" style="stroke: #000000; stroke-width: 0.5"/>
      </g>
     </g>
    </g>
    <g id="xtick_26">
     <g id="line2d_58">
      <g>
       <use xlink:href="#mfdd5731390" x="166.954506" y="116.206749" style="stroke: #000000; stroke-width: 0.5"/>
      </g>
     </g>
     <g id="line2d_59">
      <g>
       <use xlink:href="#m3ab2ac8a3d" x="166.954506" y="7.059249" style="stroke: #000000; stroke-width: 0.5"/>
      </g>
     </g>
    </g>
    <g id="xtick_27">
     <g id="line2d_60">
      <g>
       <use xlink:href="#mfdd5731390" x="178.051097" y="116.206749" style="stroke: #000000; stroke-width: 0.5"/>
      </g>
     </g>
     <g id="line2d_61">
      <g>
       <use xlink:href="#m3ab2ac8a3d" x="178.051097" y="7.059249" style="stroke: #000000; stroke-width: 0.5"/>
      </g>
     </g>
    </g>
    <g id="text_8">
     <!-- $L$ -->
     <g transform="translate(102.533182 139.480924) scale(0.1 -0.1)">
      <defs>
       <path id="CMMI12-4c" d="M 2349 3861 
C 2406 4103 2426 4167 2989 4167 
C 3162 4167 3206 4167 3206 4288 
C 3206 4352 3136 4352 3110 4352 
C 2982 4352 2835 4352 2707 4352 
L 1850 4352 
C 1728 4352 1587 4352 1466 4352 
C 1414 4352 1344 4352 1344 4231 
C 1344 4167 1402 4167 1498 4167 
C 1888 4167 1888 4116 1888 4046 
C 1888 4034 1888 3995 1862 3899 
L 998 472 
C 941 249 928 185 480 185 
C 358 185 294 185 294 70 
C 294 0 333 0 461 0 
L 3328 0 
C 3469 0 3475 6 3520 121 
L 4013 1478 
C 4026 1510 4038 1548 4038 1567 
C 4038 1605 4006 1631 3974 1631 
C 3968 1631 3936 1631 3923 1605 
C 3910 1599 3910 1586 3859 1465 
C 3654 905 3366 185 2285 185 
L 1670 185 
C 1581 185 1568 185 1530 192 
C 1459 198 1453 211 1453 262 
C 1453 307 1466 345 1478 401 
L 2349 3861 
z
" transform="scale(0.015625)"/>
      </defs>
      <use xlink:href="#CMMI12-4c" transform="scale(0.996264)"/>
     </g>
    </g>
   </g>
   <g id="matplotlib.axis_2">
    <g id="ytick_1">
     <g id="line2d_62">
      <path d="M 32.685756 116.206749 
L 179.160756 116.206749 
" clip-path="url(#p352918aa83)" style="fill: none; stroke-dasharray: 1.85,0.8; stroke-dashoffset: 0; stroke: #000000; stroke-opacity: 0.5; stroke-width: 0.5"/>
     </g>
     <g id="line2d_63">
      <defs>
       <path id="mb601bcaf6c" d="M 0 0 
L 3 0 
" style="stroke: #000000; stroke-width: 0.5"/>
      </defs>
      <g>
       <use xlink:href="#mb601bcaf6c" x="32.685756" y="116.206749" style="stroke: #000000; stroke-width: 0.5"/>
      </g>
     </g>
     <g id="line2d_64">
      <defs>
       <path id="m9c22df359f" d="M 0 0 
L -3 0 
" style="stroke: #000000; stroke-width: 0.5"/>
      </defs>
      <g>
       <use xlink:href="#m9c22df359f" x="179.160756" y="116.206749" style="stroke: #000000; stroke-width: 0.5"/>
      </g>
     </g>
     <g id="text_9">
      <!-- $\mathdefault{0.0}$ -->
      <g transform="translate(16.455677 119.665998) scale(0.1 -0.1)">
       <defs>
        <path id="CMR17-30" d="M 2688 2025 
C 2688 2416 2682 3080 2413 3591 
C 2176 4039 1798 4198 1466 4198 
C 1158 4198 768 4058 525 3597 
C 269 3118 243 2524 243 2025 
C 243 1661 250 1106 448 619 
C 723 -39 1216 -128 1466 -128 
C 1760 -128 2208 -7 2470 600 
C 2662 1042 2688 1559 2688 2025 
z
M 1466 -26 
C 1056 -26 813 325 723 812 
C 653 1188 653 1738 653 2096 
C 653 2588 653 2997 736 3387 
C 858 3929 1216 4096 1466 4096 
C 1728 4096 2067 3923 2189 3400 
C 2272 3036 2278 2607 2278 2096 
C 2278 1680 2278 1169 2202 792 
C 2067 95 1690 -26 1466 -26 
z
" transform="scale(0.015625)"/>
        <path id="CMMI12-3a" d="M 1178 307 
C 1178 492 1024 619 870 619 
C 685 619 557 466 557 313 
C 557 128 710 0 864 0 
C 1050 0 1178 153 1178 307 
z
" transform="scale(0.015625)"/>
       </defs>
       <use xlink:href="#CMR17-30" transform="scale(0.996264)"/>
       <use xlink:href="#CMMI12-3a" transform="translate(45.690477 0) scale(0.996264)"/>
       <use xlink:href="#CMR17-30" transform="translate(72.787654 0) scale(0.996264)"/>
      </g>
     </g>
    </g>
    <g id="ytick_2">
     <g id="line2d_65">
      <path d="M 32.685756 79.824249 
L 179.160756 79.824249 
" clip-path="url(#p352918aa83)" style="fill: none; stroke-dasharray: 1.85,0.8; stroke-dashoffset: 0; stroke: #000000; stroke-opacity: 0.5; stroke-width: 0.5"/>
     </g>
     <g id="line2d_66">
      <g>
       <use xlink:href="#mb601bcaf6c" x="32.685756" y="79.824249" style="stroke: #000000; stroke-width: 0.5"/>
      </g>
     </g>
     <g id="line2d_67">
      <g>
       <use xlink:href="#m9c22df359f" x="179.160756" y="79.824249" style="stroke: #000000; stroke-width: 0.5"/>
      </g>
     </g>
     <g id="text_10">
      <!-- $\mathdefault{0.2}$ -->
      <g transform="translate(16.455677 83.283498) scale(0.1 -0.1)">
       <defs>
        <path id="CMR17-32" d="M 2669 989 
L 2554 989 
C 2490 536 2438 459 2413 420 
C 2381 369 1920 369 1830 369 
L 602 369 
C 832 619 1280 1072 1824 1597 
C 2214 1967 2669 2402 2669 3035 
C 2669 3790 2067 4224 1395 4224 
C 691 4224 262 3604 262 3030 
C 262 2780 448 2748 525 2748 
C 589 2748 781 2787 781 3010 
C 781 3207 614 3264 525 3264 
C 486 3264 448 3258 422 3245 
C 544 3790 915 4058 1306 4058 
C 1862 4058 2227 3617 2227 3035 
C 2227 2479 1901 2000 1536 1584 
L 262 146 
L 262 0 
L 2515 0 
L 2669 989 
z
" transform="scale(0.015625)"/>
       </defs>
       <use xlink:href="#CMR17-30" transform="scale(0.996264)"/>
       <use xlink:href="#CMMI12-3a" transform="translate(45.690477 0) scale(0.996264)"/>
       <use xlink:href="#CMR17-32" transform="translate(72.787654 0) scale(0.996264)"/>
      </g>
     </g>
    </g>
    <g id="ytick_3">
     <g id="line2d_68">
      <path d="M 32.685756 43.441749 
L 179.160756 43.441749 
" clip-path="url(#p352918aa83)" style="fill: none; stroke-dasharray: 1.85,0.8; stroke-dashoffset: 0; stroke: #000000; stroke-opacity: 0.5; stroke-width: 0.5"/>
     </g>
     <g id="line2d_69">
      <g>
       <use xlink:href="#mb601bcaf6c" x="32.685756" y="43.441749" style="stroke: #000000; stroke-width: 0.5"/>
      </g>
     </g>
     <g id="line2d_70">
      <g>
       <use xlink:href="#m9c22df359f" x="179.160756" y="43.441749" style="stroke: #000000; stroke-width: 0.5"/>
      </g>
     </g>
     <g id="text_11">
      <!-- $\mathdefault{0.4}$ -->
      <g transform="translate(16.455677 46.900998) scale(0.1 -0.1)">
       <defs>
        <path id="CMR17-34" d="M 2150 4122 
C 2150 4256 2144 4256 2029 4256 
L 128 1254 
L 128 1088 
L 1779 1088 
L 1779 457 
C 1779 224 1766 160 1318 160 
L 1197 160 
L 1197 0 
C 1402 0 1747 0 1965 0 
C 2182 0 2528 0 2733 0 
L 2733 160 
L 2611 160 
C 2163 160 2150 224 2150 457 
L 2150 1088 
L 2803 1088 
L 2803 1254 
L 2150 1254 
L 2150 4122 
z
M 1798 3703 
L 1798 1254 
L 256 1254 
L 1798 3703 
z
" transform="scale(0.015625)"/>
       </defs>
       <use xlink:href="#CMR17-30" transform="scale(0.996264)"/>
       <use xlink:href="#CMMI12-3a" transform="translate(45.690477 0) scale(0.996264)"/>
       <use xlink:href="#CMR17-34" transform="translate(72.787654 0) scale(0.996264)"/>
      </g>
     </g>
    </g>
    <g id="ytick_4">
     <g id="line2d_71">
      <path d="M 32.685756 7.059249 
L 179.160756 7.059249 
" clip-path="url(#p352918aa83)" style="fill: none; stroke-dasharray: 1.85,0.8; stroke-dashoffset: 0; stroke: #000000; stroke-opacity: 0.5; stroke-width: 0.5"/>
     </g>
     <g id="line2d_72">
      <g>
       <use xlink:href="#mb601bcaf6c" x="32.685756" y="7.059249" style="stroke: #000000; stroke-width: 0.5"/>
      </g>
     </g>
     <g id="line2d_73">
      <g>
       <use xlink:href="#m9c22df359f" x="179.160756" y="7.059249" style="stroke: #000000; stroke-width: 0.5"/>
      </g>
     </g>
     <g id="text_12">
      <!-- $\mathdefault{0.6}$ -->
      <g transform="translate(16.455677 10.518498) scale(0.1 -0.1)">
       <defs>
        <path id="CMR17-36" d="M 678 2176 
C 678 3690 1395 4032 1811 4032 
C 1946 4032 2272 4009 2400 3776 
C 2298 3776 2106 3776 2106 3553 
C 2106 3381 2246 3323 2336 3323 
C 2394 3323 2566 3348 2566 3560 
C 2566 3954 2246 4179 1805 4179 
C 1043 4179 243 3390 243 1984 
C 243 253 966 -128 1478 -128 
C 2099 -128 2688 427 2688 1283 
C 2688 2081 2170 2662 1517 2662 
C 1126 2662 838 2407 678 1960 
L 678 2176 
z
M 1478 25 
C 691 25 691 1200 691 1436 
C 691 1896 909 2560 1504 2560 
C 1613 2560 1926 2560 2138 2120 
C 2253 1870 2253 1609 2253 1289 
C 2253 944 2253 690 2118 434 
C 1978 171 1773 25 1478 25 
z
" transform="scale(0.015625)"/>
       </defs>
       <use xlink:href="#CMR17-30" transform="scale(0.996264)"/>
       <use xlink:href="#CMMI12-3a" transform="translate(45.690477 0) scale(0.996264)"/>
       <use xlink:href="#CMR17-36" transform="translate(72.787654 0) scale(0.996264)"/>
      </g>
     </g>
    </g>
    <g id="ytick_5">
     <g id="line2d_74">
      <defs>
       <path id="mf9549b5c50" d="M 0 0 
L 1.5 0 
" style="stroke: #000000; stroke-width: 0.5"/>
      </defs>
      <g>
       <use xlink:href="#mf9549b5c50" x="32.685756" y="107.111124" style="stroke: #000000; stroke-width: 0.5"/>
      </g>
     </g>
     <g id="line2d_75">
      <defs>
       <path id="mdfa8a6a7c4" d="M 0 0 
L -1.5 0 
" style="stroke: #000000; stroke-width: 0.5"/>
      </defs>
      <g>
       <use xlink:href="#mdfa8a6a7c4" x="179.160756" y="107.111124" style="stroke: #000000; stroke-width: 0.5"/>
      </g>
     </g>
    </g>
    <g id="ytick_6">
     <g id="line2d_76">
      <g>
       <use xlink:href="#mf9549b5c50" x="32.685756" y="98.015499" style="stroke: #000000; stroke-width: 0.5"/>
      </g>
     </g>
     <g id="line2d_77">
      <g>
       <use xlink:href="#mdfa8a6a7c4" x="179.160756" y="98.015499" style="stroke: #000000; stroke-width: 0.5"/>
      </g>
     </g>
    </g>
    <g id="ytick_7">
     <g id="line2d_78">
      <g>
       <use xlink:href="#mf9549b5c50" x="32.685756" y="88.919874" style="stroke: #000000; stroke-width: 0.5"/>
      </g>
     </g>
     <g id="line2d_79">
      <g>
       <use xlink:href="#mdfa8a6a7c4" x="179.160756" y="88.919874" style="stroke: #000000; stroke-width: 0.5"/>
      </g>
     </g>
    </g>
    <g id="ytick_8">
     <g id="line2d_80">
      <g>
       <use xlink:href="#mf9549b5c50" x="32.685756" y="70.728624" style="stroke: #000000; stroke-width: 0.5"/>
      </g>
     </g>
     <g id="line2d_81">
      <g>
       <use xlink:href="#mdfa8a6a7c4" x="179.160756" y="70.728624" style="stroke: #000000; stroke-width: 0.5"/>
      </g>
     </g>
    </g>
    <g id="ytick_9">
     <g id="line2d_82">
      <g>
       <use xlink:href="#mf9549b5c50" x="32.685756" y="61.632999" style="stroke: #000000; stroke-width: 0.5"/>
      </g>
     </g>
     <g id="line2d_83">
      <g>
       <use xlink:href="#mdfa8a6a7c4" x="179.160756" y="61.632999" style="stroke: #000000; stroke-width: 0.5"/>
      </g>
     </g>
    </g>
    <g id="ytick_10">
     <g id="line2d_84">
      <g>
       <use xlink:href="#mf9549b5c50" x="32.685756" y="52.537374" style="stroke: #000000; stroke-width: 0.5"/>
      </g>
     </g>
     <g id="line2d_85">
      <g>
       <use xlink:href="#mdfa8a6a7c4" x="179.160756" y="52.537374" style="stroke: #000000; stroke-width: 0.5"/>
      </g>
     </g>
    </g>
    <g id="ytick_11">
     <g id="line2d_86">
      <g>
       <use xlink:href="#mf9549b5c50" x="32.685756" y="34.346124" style="stroke: #000000; stroke-width: 0.5"/>
      </g>
     </g>
     <g id="line2d_87">
      <g>
       <use xlink:href="#mdfa8a6a7c4" x="179.160756" y="34.346124" style="stroke: #000000; stroke-width: 0.5"/>
      </g>
     </g>
    </g>
    <g id="ytick_12">
     <g id="line2d_88">
      <g>
       <use xlink:href="#mf9549b5c50" x="32.685756" y="25.250499" style="stroke: #000000; stroke-width: 0.5"/>
      </g>
     </g>
     <g id="line2d_89">
      <g>
       <use xlink:href="#mdfa8a6a7c4" x="179.160756" y="25.250499" style="stroke: #000000; stroke-width: 0.5"/>
      </g>
     </g>
    </g>
    <g id="ytick_13">
     <g id="line2d_90">
      <g>
       <use xlink:href="#mf9549b5c50" x="32.685756" y="16.154874" style="stroke: #000000; stroke-width: 0.5"/>
      </g>
     </g>
     <g id="line2d_91">
      <g>
       <use xlink:href="#mdfa8a6a7c4" x="179.160756" y="16.154874" style="stroke: #000000; stroke-width: 0.5"/>
      </g>
     </g>
    </g>
    <g id="text_13">
     <!-- $Q$ -->
     <g transform="translate(10.518498 65.571006) rotate(-90) scale(0.1 -0.1)">
      <defs>
       <path id="CMMI12-51" d="M 2726 45 
C 3827 490 4646 1663 4646 2829 
C 4646 3893 3955 4544 3059 4544 
C 1690 4544 307 3062 307 1573 
C 307 561 973 -128 1901 -128 
C 2118 -128 2330 -96 2534 -33 
C 2496 -411 2496 -442 2496 -562 
C 2496 -744 2496 -1216 3008 -1216 
C 3770 -1216 4051 -37 4051 2 
C 4051 39 4026 64 3994 64 
C 3955 64 3942 34 3923 -36 
C 3782 -429 3450 -654 3168 -654 
C 2842 -654 2758 -435 2726 45 
z
M 1574 77 
C 1069 252 826 787 826 1379 
C 826 1831 992 2689 1414 3340 
C 1888 4075 2522 4404 3021 4404 
C 3686 4404 4134 3862 4134 3024 
C 4134 2547 3910 948 2707 240 
C 2675 571 2586 960 2163 960 
C 1818 960 1523 609 1523 291 
C 1523 220 1549 123 1574 77 
z
M 2547 156 
C 2317 52 2118 12 1939 12 
C 1875 12 1651 12 1651 298 
C 1651 533 1875 832 2163 832 
C 2483 832 2554 611 2554 286 
C 2554 246 2554 194 2547 156 
z
" transform="scale(0.015625)"/>
      </defs>
      <use xlink:href="#CMMI12-51" transform="scale(0.996264)"/>
     </g>
    </g>
   </g>
   <g id="LineCollection_1">
    <path d="M 39.34371 17.253229 
L 39.34371 17.216911 
" clip-path="url(#p352918aa83)" style="fill: none; stroke: #4477aa"/>
    <path d="M 50.440301 24.556452 
L 50.440301 24.462536 
" clip-path="url(#p352918aa83)" style="fill: none; stroke: #4477aa"/>
    <path d="M 61.536892 33.829787 
L 61.536892 33.777313 
" clip-path="url(#p352918aa83)" style="fill: none; stroke: #4477aa"/>
    <path d="M 72.633483 37.343558 
L 72.633483 37.244068 
" clip-path="url(#p352918aa83)" style="fill: none; stroke: #4477aa"/>
    <path d="M 83.730074 37.254773 
L 83.730074 37.18975 
" clip-path="url(#p352918aa83)" style="fill: none; stroke: #4477aa"/>
    <path d="M 94.826665 37.253044 
L 94.826665 37.178974 
" clip-path="url(#p352918aa83)" style="fill: none; stroke: #4477aa"/>
    <path d="M 105.923256 37.058723 
L 105.923256 36.989885 
" clip-path="url(#p352918aa83)" style="fill: none; stroke: #4477aa"/>
    <path d="M 117.019847 36.554061 
L 117.019847 36.474842 
" clip-path="url(#p352918aa83)" style="fill: none; stroke: #4477aa"/>
    <path d="M 128.116438 36.29617 
L 128.116438 36.239236 
" clip-path="url(#p352918aa83)" style="fill: none; stroke: #4477aa"/>
    <path d="M 139.213028 34.15852 
L 139.213028 34.109712 
" clip-path="url(#p352918aa83)" style="fill: none; stroke: #4477aa"/>
    <path d="M 150.309619 35.083153 
L 150.309619 35.031994 
" clip-path="url(#p352918aa83)" style="fill: none; stroke: #4477aa"/>
    <path d="M 161.40621 33.616878 
L 161.40621 33.568818 
" clip-path="url(#p352918aa83)" style="fill: none; stroke: #4477aa"/>
    <path d="M 172.502801 34.005889 
L 172.502801 33.965643 
" clip-path="url(#p352918aa83)" style="fill: none; stroke: #4477aa"/>
   </g>
   <g id="LineCollection_2">
    <path d="M 39.34371 26.914167 
L 39.34371 26.875792 
" clip-path="url(#p352918aa83)" style="fill: none; stroke: #ee6677"/>
    <path d="M 50.440301 39.230604 
L 50.440301 39.117418 
" clip-path="url(#p352918aa83)" style="fill: none; stroke: #ee6677"/>
    <path d="M 61.536892 46.74741 
L 61.536892 46.658808 
" clip-path="url(#p352918aa83)" style="fill: none; stroke: #ee6677"/>
    <path d="M 72.633483 38.160825 
L 72.633483 37.974423 
" clip-path="url(#p352918aa83)" style="fill: none; stroke: #ee6677"/>
    <path d="M 83.730074 44.29077 
L 83.730074 44.122531 
" clip-path="url(#p352918aa83)" style="fill: none; stroke: #ee6677"/>
    <path d="M 94.826665 46.943779 
L 94.826665 46.828039 
" clip-path="url(#p352918aa83)" style="fill: none; stroke: #ee6677"/>
    <path d="M 105.923256 48.453278 
L 105.923256 48.367426 
" clip-path="url(#p352918aa83)" style="fill: none; stroke: #ee6677"/>
    <path d="M 117.019847 50.765746 
L 117.019847 50.705322 
" clip-path="url(#p352918aa83)" style="fill: none; stroke: #ee6677"/>
    <path d="M 128.116438 49.867337 
L 128.116438 49.800619 
" clip-path="url(#p352918aa83)" style="fill: none; stroke: #ee6677"/>
    <path d="M 139.213028 49.585079 
L 139.213028 49.53804 
" clip-path="url(#p352918aa83)" style="fill: none; stroke: #ee6677"/>
    <path d="M 150.309619 48.876469 
L 150.309619 48.814635 
" clip-path="url(#p352918aa83)" style="fill: none; stroke: #ee6677"/>
    <path d="M 161.40621 50.714173 
L 161.40621 50.676709 
" clip-path="url(#p352918aa83)" style="fill: none; stroke: #ee6677"/>
    <path d="M 172.502801 51.07614 
L 172.502801 51.023734 
" clip-path="url(#p352918aa83)" style="fill: none; stroke: #ee6677"/>
   </g>
   <g id="LineCollection_3">
    <path d="M 39.34371 95.185335 
L 39.34371 95.113425 
" clip-path="url(#p352918aa83)" style="fill: none; stroke: #4477aa"/>
    <path d="M 50.440301 88.77671 
L 50.440301 88.55471 
" clip-path="url(#p352918aa83)" style="fill: none; stroke: #4477aa"/>
    <path d="M 61.536892 84.115521 
L 61.536892 83.996336 
" clip-path="url(#p352918aa83)" style="fill: none; stroke: #4477aa"/>
    <path d="M 72.633483 84.852983 
L 72.633483 84.564011 
" clip-path="url(#p352918aa83)" style="fill: none; stroke: #4477aa"/>
    <path d="M 83.730074 69.794975 
L 83.730074 69.600067 
" clip-path="url(#p352918aa83)" style="fill: none; stroke: #4477aa"/>
    <path d="M 94.826665 78.219711 
L 94.826665 77.981117 
" clip-path="url(#p352918aa83)" style="fill: none; stroke: #4477aa"/>
    <path d="M 105.923256 65.217605 
L 105.923256 65.003395 
" clip-path="url(#p352918aa83)" style="fill: none; stroke: #4477aa"/>
    <path d="M 117.019847 65.022424 
L 117.019847 64.718558 
" clip-path="url(#p352918aa83)" style="fill: none; stroke: #4477aa"/>
    <path d="M 128.116438 56.122722 
L 128.116438 55.754106 
" clip-path="url(#p352918aa83)" style="fill: none; stroke: #4477aa"/>
    <path d="M 139.213028 61.509265 
L 139.213028 61.20241 
" clip-path="url(#p352918aa83)" style="fill: none; stroke: #4477aa"/>
    <path d="M 150.309619 64.440847 
L 150.309619 64.10283 
" clip-path="url(#p352918aa83)" style="fill: none; stroke: #4477aa"/>
    <path d="M 161.40621 64.027315 
L 161.40621 63.706103 
" clip-path="url(#p352918aa83)" style="fill: none; stroke: #4477aa"/>
    <path d="M 172.502801 67.634966 
L 172.502801 67.325735 
" clip-path="url(#p352918aa83)" style="fill: none; stroke: #4477aa"/>
   </g>
   <g id="LineCollection_4">
    <path d="M 39.34371 99.409667 
L 39.34371 99.332692 
" clip-path="url(#p352918aa83)" style="fill: none; stroke: #ee6677"/>
    <path d="M 50.440301 99.683269 
L 50.440301 99.473649 
" clip-path="url(#p352918aa83)" style="fill: none; stroke: #ee6677"/>
    <path d="M 61.536892 97.539746 
L 61.536892 97.340865 
" clip-path="url(#p352918aa83)" style="fill: none; stroke: #ee6677"/>
    <path d="M 72.633483 71.600488 
L 72.633483 70.897247 
" clip-path="url(#p352918aa83)" style="fill: none; stroke: #ee6677"/>
    <path d="M 83.730074 74.043002 
L 83.730074 73.628713 
" clip-path="url(#p352918aa83)" style="fill: none; stroke: #ee6677"/>
    <path d="M 94.826665 70.882701 
L 94.826665 70.394437 
" clip-path="url(#p352918aa83)" style="fill: none; stroke: #ee6677"/>
    <path d="M 105.923256 75.530286 
L 105.923256 75.092602 
" clip-path="url(#p352918aa83)" style="fill: none; stroke: #ee6677"/>
    <path d="M 117.019847 85.202723 
L 117.019847 84.907275 
" clip-path="url(#p352918aa83)" style="fill: none; stroke: #ee6677"/>
    <path d="M 128.116438 77.318209 
L 128.116438 76.901101 
" clip-path="url(#p352918aa83)" style="fill: none; stroke: #ee6677"/>
    <path d="M 139.213028 73.063247 
L 139.213028 72.75153 
" clip-path="url(#p352918aa83)" style="fill: none; stroke: #ee6677"/>
    <path d="M 150.309619 76.96121 
L 150.309619 76.715853 
" clip-path="url(#p352918aa83)" style="fill: none; stroke: #ee6677"/>
    <path d="M 161.40621 72.234074 
L 161.40621 71.97783 
" clip-path="url(#p352918aa83)" style="fill: none; stroke: #ee6677"/>
    <path d="M 172.502801 76.885691 
L 172.502801 76.648915 
" clip-path="url(#p352918aa83)" style="fill: none; stroke: #ee6677"/>
   </g>
   <g id="line2d_92">
    <path d="M 39.34371 17.23507 
L 50.440301 24.509494 
L 61.536892 33.80355 
L 72.633483 37.293813 
L 83.730074 37.222262 
L 94.826665 37.216009 
L 105.923256 37.024304 
L 117.019847 36.514451 
L 128.116438 36.267703 
L 139.213028 34.134116 
L 150.309619 35.057574 
L 161.40621 33.592848 
L 172.502801 33.985766 
" clip-path="url(#p352918aa83)" style="fill: none; stroke: #4477aa; stroke-linecap: square"/>
    <defs>
     <path id="mc93dadddef" d="M 0 3 
C 0.795609 3 1.55874 2.683901 2.12132 2.12132 
C 2.683901 1.55874 3 0.795609 3 0 
C 3 -0.795609 2.683901 -1.55874 2.12132 -2.12132 
C 1.55874 -2.683901 0.795609 -3 0 -3 
C -0.795609 -3 -1.55874 -2.683901 -2.12132 -2.12132 
C -2.683901 -1.55874 -3 -0.795609 -3 0 
C -3 0.795609 -2.683901 1.55874 -2.12132 2.12132 
C -1.55874 2.683901 -0.795609 3 0 3 
z
" style="stroke: #4477aa"/>
    </defs>
    <g clip-path="url(#p352918aa83)">
     <use xlink:href="#mc93dadddef" x="39.34371" y="17.23507" style="fill: #4477aa; stroke: #4477aa"/>
     <use xlink:href="#mc93dadddef" x="50.440301" y="24.509494" style="fill: #4477aa; stroke: #4477aa"/>
     <use xlink:href="#mc93dadddef" x="61.536892" y="33.80355" style="fill: #4477aa; stroke: #4477aa"/>
     <use xlink:href="#mc93dadddef" x="72.633483" y="37.293813" style="fill: #4477aa; stroke: #4477aa"/>
     <use xlink:href="#mc93dadddef" x="83.730074" y="37.222262" style="fill: #4477aa; stroke: #4477aa"/>
     <use xlink:href="#mc93dadddef" x="94.826665" y="37.216009" style="fill: #4477aa; stroke: #4477aa"/>
     <use xlink:href="#mc93dadddef" x="105.923256" y="37.024304" style="fill: #4477aa; stroke: #4477aa"/>
     <use xlink:href="#mc93dadddef" x="117.019847" y="36.514451" style="fill: #4477aa; stroke: #4477aa"/>
     <use xlink:href="#mc93dadddef" x="128.116438" y="36.267703" style="fill: #4477aa; stroke: #4477aa"/>
     <use xlink:href="#mc93dadddef" x="139.213028" y="34.134116" style="fill: #4477aa; stroke: #4477aa"/>
     <use xlink:href="#mc93dadddef" x="150.309619" y="35.057574" style="fill: #4477aa; stroke: #4477aa"/>
     <use xlink:href="#mc93dadddef" x="161.40621" y="33.592848" style="fill: #4477aa; stroke: #4477aa"/>
     <use xlink:href="#mc93dadddef" x="172.502801" y="33.985766" style="fill: #4477aa; stroke: #4477aa"/>
    </g>
   </g>
   <g id="line2d_93">
    <path d="M 39.34371 26.89498 
L 50.440301 39.174011 
L 61.536892 46.703109 
L 72.633483 38.067624 
L 83.730074 44.206651 
L 94.826665 46.885909 
L 105.923256 48.410352 
L 117.019847 50.735534 
L 128.116438 49.833978 
L 139.213028 49.56156 
L 150.309619 48.845552 
L 161.40621 50.695441 
L 172.502801 51.049937 
" clip-path="url(#p352918aa83)" style="fill: none; stroke: #ee6677; stroke-linecap: square"/>
    <defs>
     <path id="m99afdcd076" d="M 0 3 
C 0.795609 3 1.55874 2.683901 2.12132 2.12132 
C 2.683901 1.55874 3 0.795609 3 0 
C 3 -0.795609 2.683901 -1.55874 2.12132 -2.12132 
C 1.55874 -2.683901 0.795609 -3 0 -3 
C -0.795609 -3 -1.55874 -2.683901 -2.12132 -2.12132 
C -2.683901 -1.55874 -3 -0.795609 -3 0 
C -3 0.795609 -2.683901 1.55874 -2.12132 2.12132 
C -1.55874 2.683901 -0.795609 3 0 3 
z
" style="stroke: #ee6677"/>
    </defs>
    <g clip-path="url(#p352918aa83)">
     <use xlink:href="#m99afdcd076" x="39.34371" y="26.89498" style="fill: #ee6677; stroke: #ee6677"/>
     <use xlink:href="#m99afdcd076" x="50.440301" y="39.174011" style="fill: #ee6677; stroke: #ee6677"/>
     <use xlink:href="#m99afdcd076" x="61.536892" y="46.703109" style="fill: #ee6677; stroke: #ee6677"/>
     <use xlink:href="#m99afdcd076" x="72.633483" y="38.067624" style="fill: #ee6677; stroke: #ee6677"/>
     <use xlink:href="#m99afdcd076" x="83.730074" y="44.206651" style="fill: #ee6677; stroke: #ee6677"/>
     <use xlink:href="#m99afdcd076" x="94.826665" y="46.885909" style="fill: #ee6677; stroke: #ee6677"/>
     <use xlink:href="#m99afdcd076" x="105.923256" y="48.410352" style="fill: #ee6677; stroke: #ee6677"/>
     <use xlink:href="#m99afdcd076" x="117.019847" y="50.735534" style="fill: #ee6677; stroke: #ee6677"/>
     <use xlink:href="#m99afdcd076" x="128.116438" y="49.833978" style="fill: #ee6677; stroke: #ee6677"/>
     <use xlink:href="#m99afdcd076" x="139.213028" y="49.56156" style="fill: #ee6677; stroke: #ee6677"/>
     <use xlink:href="#m99afdcd076" x="150.309619" y="48.845552" style="fill: #ee6677; stroke: #ee6677"/>
     <use xlink:href="#m99afdcd076" x="161.40621" y="50.695441" style="fill: #ee6677; stroke: #ee6677"/>
     <use xlink:href="#m99afdcd076" x="172.502801" y="51.049937" style="fill: #ee6677; stroke: #ee6677"/>
    </g>
   </g>
   <g id="line2d_94">
    <path d="M 39.34371 95.14938 
L 50.440301 88.66571 
L 61.536892 84.055928 
L 72.633483 84.708497 
L 83.730074 69.697521 
L 94.826665 78.100414 
L 105.923256 65.1105 
L 117.019847 64.870491 
L 128.116438 55.938414 
L 139.213028 61.355838 
L 150.309619 64.271839 
L 161.40621 63.866709 
L 172.502801 67.480351 
" clip-path="url(#p352918aa83)" style="fill: none; stroke: #4477aa; stroke-linecap: square"/>
    <defs>
     <path id="ma395d5518b" d="M -3 3 
L 3 3 
L 3 -3 
L -3 -3 
z
" style="stroke: #4477aa; stroke-linejoin: miter"/>
    </defs>
    <g clip-path="url(#p352918aa83)">
     <use xlink:href="#ma395d5518b" x="39.34371" y="95.14938" style="fill: #4477aa; stroke: #4477aa; stroke-linejoin: miter"/>
     <use xlink:href="#ma395d5518b" x="50.440301" y="88.66571" style="fill: #4477aa; stroke: #4477aa; stroke-linejoin: miter"/>
     <use xlink:href="#ma395d5518b" x="61.536892" y="84.055928" style="fill: #4477aa; stroke: #4477aa; stroke-linejoin: miter"/>
     <use xlink:href="#ma395d5518b" x="72.633483" y="84.708497" style="fill: #4477aa; stroke: #4477aa; stroke-linejoin: miter"/>
     <use xlink:href="#ma395d5518b" x="83.730074" y="69.697521" style="fill: #4477aa; stroke: #4477aa; stroke-linejoin: miter"/>
     <use xlink:href="#ma395d5518b" x="94.826665" y="78.100414" style="fill: #4477aa; stroke: #4477aa; stroke-linejoin: miter"/>
     <use xlink:href="#ma395d5518b" x="105.923256" y="65.1105" style="fill: #4477aa; stroke: #4477aa; stroke-linejoin: miter"/>
     <use xlink:href="#ma395d5518b" x="117.019847" y="64.870491" style="fill: #4477aa; stroke: #4477aa; stroke-linejoin: miter"/>
     <use xlink:href="#ma395d5518b" x="128.116438" y="55.938414" style="fill: #4477aa; stroke: #4477aa; stroke-linejoin: miter"/>
     <use xlink:href="#ma395d5518b" x="139.213028" y="61.355838" style="fill: #4477aa; stroke: #4477aa; stroke-linejoin: miter"/>
     <use xlink:href="#ma395d5518b" x="150.309619" y="64.271839" style="fill: #4477aa; stroke: #4477aa; stroke-linejoin: miter"/>
     <use xlink:href="#ma395d5518b" x="161.40621" y="63.866709" style="fill: #4477aa; stroke: #4477aa; stroke-linejoin: miter"/>
     <use xlink:href="#ma395d5518b" x="172.502801" y="67.480351" style="fill: #4477aa; stroke: #4477aa; stroke-linejoin: miter"/>
    </g>
   </g>
   <g id="line2d_95">
    <path d="M 39.34371 99.37118 
L 50.440301 99.578459 
L 61.536892 97.440306 
L 72.633483 71.248868 
L 83.730074 73.835857 
L 94.826665 70.638569 
L 105.923256 75.311444 
L 117.019847 85.054999 
L 128.116438 77.109655 
L 139.213028 72.907389 
L 150.309619 76.838532 
L 161.40621 72.105952 
L 172.502801 76.767303 
" clip-path="url(#p352918aa83)" style="fill: none; stroke: #ee6677; stroke-linecap: square"/>
    <defs>
     <path id="m2a87b507ac" d="M -3 3 
L 3 3 
L 3 -3 
L -3 -3 
z
" style="stroke: #ee6677; stroke-linejoin: miter"/>
    </defs>
    <g clip-path="url(#p352918aa83)">
     <use xlink:href="#m2a87b507ac" x="39.34371" y="99.37118" style="fill: #ee6677; stroke: #ee6677; stroke-linejoin: miter"/>
     <use xlink:href="#m2a87b507ac" x="50.440301" y="99.578459" style="fill: #ee6677; stroke: #ee6677; stroke-linejoin: miter"/>
     <use xlink:href="#m2a87b507ac" x="61.536892" y="97.440306" style="fill: #ee6677; stroke: #ee6677; stroke-linejoin: miter"/>
     <use xlink:href="#m2a87b507ac" x="72.633483" y="71.248868" style="fill: #ee6677; stroke: #ee6677; stroke-linejoin: miter"/>
     <use xlink:href="#m2a87b507ac" x="83.730074" y="73.835857" style="fill: #ee6677; stroke: #ee6677; stroke-linejoin: miter"/>
     <use xlink:href="#m2a87b507ac" x="94.826665" y="70.638569" style="fill: #ee6677; stroke: #ee6677; stroke-linejoin: miter"/>
     <use xlink:href="#m2a87b507ac" x="105.923256" y="75.311444" style="fill: #ee6677; stroke: #ee6677; stroke-linejoin: miter"/>
     <use xlink:href="#m2a87b507ac" x="117.019847" y="85.054999" style="fill: #ee6677; stroke: #ee6677; stroke-linejoin: miter"/>
     <use xlink:href="#m2a87b507ac" x="128.116438" y="77.109655" style="fill: #ee6677; stroke: #ee6677; stroke-linejoin: miter"/>
     <use xlink:href="#m2a87b507ac" x="139.213028" y="72.907389" style="fill: #ee6677; stroke: #ee6677; stroke-linejoin: miter"/>
     <use xlink:href="#m2a87b507ac" x="150.309619" y="76.838532" style="fill: #ee6677; stroke: #ee6677; stroke-linejoin: miter"/>
     <use xlink:href="#m2a87b507ac" x="161.40621" y="72.105952" style="fill: #ee6677; stroke: #ee6677; stroke-linejoin: miter"/>
     <use xlink:href="#m2a87b507ac" x="172.502801" y="76.767303" style="fill: #ee6677; stroke: #ee6677; stroke-linejoin: miter"/>
    </g>
   </g>
   <g id="patch_3">
    <path d="M 32.685756 116.206749 
L 32.685756 7.059249 
" style="fill: none; stroke: #000000; stroke-width: 0.5; stroke-linejoin: miter; stroke-linecap: square"/>
   </g>
   <g id="patch_4">
    <path d="M 179.160756 116.206749 
L 179.160756 7.059249 
" style="fill: none; stroke: #000000; stroke-width: 0.5; stroke-linejoin: miter; stroke-linecap: square"/>
   </g>
   <g id="patch_5">
    <path d="M 32.685756 116.206749 
L 179.160756 116.206749 
" style="fill: none; stroke: #000000; stroke-width: 0.5; stroke-linejoin: miter; stroke-linecap: square"/>
   </g>
   <g id="patch_6">
    <path d="M 32.685756 7.059249 
L 179.160756 7.059249 
" style="fill: none; stroke: #000000; stroke-width: 0.5; stroke-linejoin: miter; stroke-linecap: square"/>
   </g>
   <g id="legend_1">
    <g id="patch_7">
     <path d="M 126.85127 36.942588 
L 173.329756 36.942588 
Q 174.995756 36.942588 174.995756 35.276588 
L 174.995756 12.890249 
Q 174.995756 11.224249 173.329756 11.224249 
L 126.85127 11.224249 
Q 125.18527 11.224249 125.18527 12.890249 
L 125.18527 35.276588 
Q 125.18527 36.942588 126.85127 36.942588 
z
" style="fill: #ffffff; stroke: #cccccc; stroke-linejoin: miter"/>
    </g>
    <g id="line2d_96">
     <defs>
      <path id="m7b406e84c2" d="M 0 3 
C 0.795609 3 1.55874 2.683901 2.12132 2.12132 
C 2.683901 1.55874 3 0.795609 3 0 
C 3 -0.795609 2.683901 -1.55874 2.12132 -2.12132 
C 1.55874 -2.683901 0.795609 -3 0 -3 
C -0.795609 -3 -1.55874 -2.683901 -2.12132 -2.12132 
C -2.683901 -1.55874 -3 -0.795609 -3 0 
C -3 0.795609 -2.683901 1.55874 -2.12132 2.12132 
C -1.55874 2.683901 -0.795609 3 0 3 
z
" style="stroke: #000000"/>
     </defs>
     <g>
      <use xlink:href="#m7b406e84c2" x="136.84727" y="17.471749" style="stroke: #000000"/>
     </g>
    </g>
    <g id="text_14">
     <!-- NDR -->
     <g transform="translate(151.84127 20.387249) scale(0.0833 -0.0833)">
      <defs>
       <path id="CMR17-4e" d="M 1312 4250 
C 1267 4320 1261 4320 1139 4320 
L 326 4320 
L 326 4160 
L 448 4160 
C 704 4160 819 4129 838 4122 
L 838 610 
C 838 451 838 153 326 153 
L 326 -13 
C 474 0 742 0 902 0 
C 1062 0 1331 0 1478 -13 
L 1478 153 
C 966 153 966 451 966 610 
L 966 4033 
C 1011 3995 1011 3982 1056 3919 
L 3430 76 
C 3475 0 3494 0 3526 0 
C 3590 0 3590 19 3590 139 
L 3590 3705 
C 3590 3863 3590 4160 4102 4160 
L 4102 4326 
C 3955 4320 3686 4320 3526 4320 
C 3366 4320 3098 4320 2950 4326 
L 2950 4160 
C 3462 4160 3462 3862 3462 3703 
L 3462 763 
L 1312 4250 
z
" transform="scale(0.015625)"/>
       <path id="CMR17-44" d="M 333 4352 
L 333 4186 
C 774 4186 845 4186 845 3900 
L 845 452 
C 845 166 774 166 333 166 
L 333 0 
L 2368 0 
C 3398 0 4224 943 4224 2141 
C 4224 3346 3411 4352 2368 4352 
L 333 4352 
z
M 1523 166 
C 1267 166 1254 197 1254 414 
L 1254 3938 
C 1254 4155 1267 4186 1523 4186 
L 2240 4186 
C 2771 4186 3750 3874 3750 2141 
C 3750 1242 3488 879 3366 707 
C 3213 510 2848 166 2240 166 
L 1523 166 
z
" transform="scale(0.015625)"/>
       <path id="CMR17-52" d="M 2509 2146 
C 3117 2268 3629 2676 3629 3186 
C 3629 3785 2950 4326 2054 4326 
L 333 4326 
L 333 4160 
C 774 4160 845 4160 845 3873 
L 845 415 
C 845 128 774 128 333 128 
L 333 -26 
C 518 -26 851 -26 1050 -26 
C 1248 -26 1581 -26 1766 -26 
L 1766 128 
C 1325 128 1254 128 1254 417 
L 1254 2112 
L 2003 2112 
C 2368 2112 2573 1964 2662 1881 
C 2918 1632 2918 1459 2918 1024 
C 2918 595 2918 377 3110 160 
C 3354 -102 3680 -128 3821 -128 
C 4294 -128 4365 396 4365 503 
C 4365 540 4365 585 4307 585 
C 4256 585 4250 547 4250 522 
C 4218 112 4032 -26 3834 -26 
C 3482 -26 3443 375 3405 764 
C 3386 898 3373 993 3360 1133 
C 3322 1452 3270 1917 2509 2146 
z
M 1984 2214 
L 1254 2214 
L 1254 3913 
C 1254 4129 1267 4160 1523 4160 
L 1990 4160 
C 2522 4160 3142 3977 3142 3190 
C 3142 2372 2464 2214 1984 2214 
z
" transform="scale(0.015625)"/>
      </defs>
      <use xlink:href="#CMR17-4e" transform="scale(0.996264)"/>
      <use xlink:href="#CMR17-44" transform="translate(69.07243 0) scale(0.996264)"/>
      <use xlink:href="#CMR17-52" transform="translate(139.465986 0) scale(0.996264)"/>
     </g>
    </g>
    <g id="line2d_97">
     <defs>
      <path id="m2f5e38ec96" d="M -3 3 
L 3 3 
L 3 -3 
L -3 -3 
z
" style="stroke: #000000; stroke-linejoin: miter"/>
     </defs>
     <g>
      <use xlink:href="#m2f5e38ec96" x="136.84727" y="29.081418" style="stroke: #000000; stroke-linejoin: miter"/>
     </g>
    </g>
    <g id="text_15">
     <!-- NLS -->
     <g transform="translate(151.84127 31.996918) scale(0.0833 -0.0833)">
      <defs>
       <path id="CMR17-4c" d="M 3469 1615 
L 3354 1615 
C 3302 983 3219 166 2125 166 
L 1530 166 
C 1274 166 1261 197 1261 414 
L 1261 3898 
C 1261 4129 1274 4192 1760 4192 
L 1901 4192 
L 1901 4352 
C 1638 4352 1331 4352 1069 4352 
C 870 4352 512 4352 326 4352 
L 326 4192 
C 768 4192 838 4192 838 3905 
L 838 452 
C 838 166 768 166 326 166 
L 326 0 
L 3315 0 
L 3469 1615 
z
" transform="scale(0.015625)"/>
       <path id="CMR17-53" d="M 2803 4290 
C 2803 4404 2797 4411 2758 4411 
C 2720 4411 2707 4385 2682 4328 
L 2490 3907 
C 2246 4257 1875 4416 1472 4416 
C 819 4416 294 3901 294 3253 
C 294 3056 339 2776 557 2510 
C 794 2218 1018 2167 1530 2033 
C 1722 1982 2042 1899 2106 1874 
C 2470 1722 2662 1341 2662 985 
C 2662 527 2336 38 1779 38 
C 1094 38 454 419 410 1311 
C 403 1413 397 1419 352 1419 
C 301 1419 294 1413 294 1285 
L 294 -1 
C 294 -115 301 -122 339 -122 
C 384 -122 397 -90 486 108 
C 493 127 493 140 614 381 
C 934 -39 1472 -128 1779 -128 
C 2477 -128 2970 451 2970 1124 
C 2970 1454 2848 1708 2778 1823 
C 2509 2230 2221 2306 1914 2382 
C 1869 2402 1856 2402 1498 2490 
C 1152 2579 1005 2624 845 2796 
C 666 2992 602 3196 602 3399 
C 602 3812 934 4263 1478 4263 
C 2157 4263 2579 3786 2675 2993 
C 2694 2878 2701 2872 2746 2872 
C 2803 2872 2803 2891 2803 2999 
L 2803 4290 
z
" transform="scale(0.015625)"/>
      </defs>
      <use xlink:href="#CMR17-4e" transform="scale(0.996264)"/>
      <use xlink:href="#CMR17-4c" transform="translate(69.07243 0) scale(0.996264)"/>
      <use xlink:href="#CMR17-53" transform="translate(126.453838 0) scale(0.996264)"/>
     </g>
    </g>
   </g>
   <g id="legend_2">
    <g id="patch_8">
     <path d="M 96.259157 112.041749 
L 173.329756 112.041749 
Q 174.995756 112.041749 174.995756 110.375749 
L 174.995756 87.989411 
Q 174.995756 86.323411 173.329756 86.323411 
L 96.259157 86.323411 
Q 94.593157 86.323411 94.593157 87.989411 
L 94.593157 110.375749 
Q 94.593157 112.041749 96.259157 112.041749 
z
" style="fill: #ffffff; stroke: #cccccc; stroke-linejoin: miter"/>
    </g>
    <g id="line2d_98">
     <path d="M 97.925157 92.570911 
L 106.255157 92.570911 
L 114.585157 92.570911 
" style="fill: none; stroke: #4477aa; stroke-linecap: square"/>
    </g>
    <g id="text_16">
     <!-- $C_i = 0.00~\mathrm{aF}$ -->
     <g transform="translate(121.249157 95.486411) scale(0.0833 -0.0833)">
      <defs>
       <path id="CMMI12-43" d="M 4781 4423 
C 4781 4480 4736 4480 4723 4480 
C 4710 4480 4685 4480 4634 4416 
L 4192 3882 
C 3968 4264 3616 4480 3136 4480 
C 1754 4480 320 3088 320 1595 
C 320 533 1069 -128 2003 -128 
C 2515 -128 2963 88 3334 400 
C 3891 863 4058 1481 4058 1531 
C 4058 1588 4006 1588 3987 1588 
C 3930 1588 3923 1550 3910 1524 
C 3616 534 2752 57 2112 57 
C 1434 57 845 489 845 1391 
C 845 1595 909 2700 1632 3532 
C 1984 3939 2586 4295 3194 4295 
C 3898 4295 4211 3717 4211 3068 
C 4211 2903 4192 2764 4192 2738 
C 4192 2681 4256 2681 4275 2681 
C 4346 2681 4352 2687 4378 2801 
L 4781 4423 
z
" transform="scale(0.015625)"/>
       <path id="CMMI12-69" d="M 1811 913 
C 1811 945 1786 971 1747 971 
C 1690 971 1683 952 1651 843 
C 1485 262 1222 64 1011 64 
C 934 64 845 83 845 275 
C 845 447 922 639 992 830 
L 1440 2018 
C 1459 2069 1504 2184 1504 2305 
C 1504 2574 1312 2816 998 2816 
C 410 2816 173 1890 173 1839 
C 173 1814 198 1782 243 1782 
C 301 1782 307 1807 333 1896 
C 486 2428 730 2682 979 2682 
C 1037 2682 1146 2682 1146 2478 
C 1146 2312 1062 2101 1011 1961 
L 563 773 
C 525 671 486 568 486 453 
C 486 166 685 -64 992 -64 
C 1581 -64 1811 869 1811 913 
z
M 1760 4013 
C 1760 4109 1683 4224 1542 4224 
C 1395 4224 1229 4083 1229 3917 
C 1229 3758 1363 3707 1440 3707 
C 1613 3707 1760 3873 1760 4013 
z
" transform="scale(0.015625)"/>
       <path id="CMR17-3d" d="M 4115 2017 
C 4211 2017 4307 2017 4307 2125 
C 4307 2240 4198 2240 4090 2240 
L 512 2240 
C 403 2240 294 2240 294 2125 
C 294 2017 390 2017 486 2017 
L 4115 2017 
z
M 4090 896 
C 4198 896 4307 896 4307 1011 
C 4307 1119 4211 1119 4115 1119 
L 486 1119 
C 390 1119 294 1119 294 1011 
C 294 896 403 896 512 896 
L 4090 896 
z
" transform="scale(0.015625)"/>
       <path id="CMR17-61" d="M 2304 1653 
C 2304 2072 2304 2294 2035 2543 
C 1798 2752 1523 2816 1306 2816 
C 800 2816 435 2407 435 1971 
C 435 1728 627 1728 666 1728 
C 749 1728 896 1778 896 1954 
C 896 2112 774 2181 666 2181 
C 640 2181 608 2174 589 2168 
C 723 2592 1069 2714 1293 2714 
C 1613 2714 1965 2429 1965 1885 
L 1965 1600 
C 1587 1600 1133 1549 774 1357 
C 371 1133 256 813 256 570 
C 256 77 832 -64 1171 -64 
C 1523 -64 1850 139 1990 511 
C 2003 233 2182 -18 2464 -18 
C 2598 -18 2938 70 2938 567 
L 2938 920 
L 2822 920 
L 2822 562 
C 2822 178 2650 128 2566 128 
C 2304 128 2304 458 2304 738 
L 2304 1653 
z
M 1965 870 
C 1965 317 1568 38 1216 38 
C 896 38 646 275 646 570 
C 646 761 730 1100 1101 1305 
C 1408 1478 1760 1504 1965 1504 
L 1965 870 
z
" transform="scale(0.015625)"/>
       <path id="CMR17-46" d="M 3482 4325 
L 326 4325 
L 326 4160 
C 768 4160 838 4160 838 3874 
L 838 446 
C 838 160 768 160 326 160 
L 326 0 
C 512 0 870 0 1069 0 
C 1331 0 1638 0 1901 0 
L 1901 160 
L 1760 160 
C 1274 160 1261 223 1261 452 
L 1261 2075 
L 1837 2075 
C 2432 2075 2490 1865 2490 1332 
L 2605 1332 
L 2605 2987 
L 2490 2987 
C 2490 2450 2432 2240 1837 2240 
L 1261 2240 
L 1261 3911 
C 1261 4128 1274 4160 1530 4160 
L 2355 4160 
C 3322 4160 3430 3765 3520 2916 
L 3635 2916 
L 3482 4325 
z
" transform="scale(0.015625)"/>
      </defs>
      <use xlink:href="#CMMI12-43" transform="scale(0.996264)"/>
      <use xlink:href="#CMMI12-69" transform="translate(69.792037 -14.943915) scale(0.697382)"/>
      <use xlink:href="#CMR17-3d" transform="translate(121.259085 0) scale(0.996264)"/>
      <use xlink:href="#CMR17-30" transform="translate(220.647882 0) scale(0.996264)"/>
      <use xlink:href="#CMMI12-3a" transform="translate(266.338359 0) scale(0.996264)"/>
      <use xlink:href="#CMR17-30" transform="translate(293.435536 0) scale(0.996264)"/>
      <use xlink:href="#CMR17-30" transform="translate(339.126013 0) scale(0.996264)"/>
      <use xlink:href="#CMR17-61" transform="translate(414.892457 0) scale(0.996264)"/>
      <use xlink:href="#CMR17-46" transform="translate(460.582934 0) scale(0.996264)"/>
     </g>
    </g>
    <g id="line2d_99">
     <path d="M 97.925157 104.18058 
L 106.255157 104.18058 
L 114.585157 104.18058 
" style="fill: none; stroke: #ee6677; stroke-linecap: square"/>
    </g>
    <g id="text_17">
     <!-- $C_i = 0.28~\mathrm{aF}$ -->
     <g transform="translate(121.249157 107.09608) scale(0.0833 -0.0833)">
      <defs>
       <path id="CMR17-38" d="M 1741 2264 
C 2144 2467 2554 2773 2554 3263 
C 2554 3841 1990 4179 1472 4179 
C 890 4179 378 3759 378 3180 
C 378 3021 416 2747 666 2505 
C 730 2442 998 2251 1171 2130 
C 883 1983 211 1634 211 934 
C 211 279 838 -128 1459 -128 
C 2144 -128 2720 362 2720 1010 
C 2720 1590 2330 1857 2074 2029 
L 1741 2264 
z
M 902 2822 
C 851 2854 595 3051 595 3351 
C 595 3739 998 4032 1459 4032 
C 1965 4032 2336 3676 2336 3262 
C 2336 2669 1670 2331 1638 2331 
C 1632 2331 1626 2331 1574 2370 
L 902 2822 
z
M 2080 1519 
C 2176 1449 2483 1240 2483 851 
C 2483 381 2010 25 1472 25 
C 890 25 448 438 448 940 
C 448 1443 838 1862 1280 2060 
L 2080 1519 
z
" transform="scale(0.015625)"/>
      </defs>
      <use xlink:href="#CMMI12-43" transform="scale(0.996264)"/>
      <use xlink:href="#CMMI12-69" transform="translate(69.792037 -14.943915) scale(0.697382)"/>
      <use xlink:href="#CMR17-3d" transform="translate(121.259085 0) scale(0.996264)"/>
      <use xlink:href="#CMR17-30" transform="translate(220.647882 0) scale(0.996264)"/>
      <use xlink:href="#CMMI12-3a" transform="translate(266.338359 0) scale(0.996264)"/>
      <use xlink:href="#CMR17-32" transform="translate(293.435536 0) scale(0.996264)"/>
      <use xlink:href="#CMR17-38" transform="translate(339.126013 0) scale(0.996264)"/>
      <use xlink:href="#CMR17-61" transform="translate(414.892457 0) scale(0.996264)"/>
      <use xlink:href="#CMR17-46" transform="translate(460.582934 0) scale(0.996264)"/>
     </g>
    </g>
   </g>
  </g>
 </g>
 <defs>
  <clipPath id="p352918aa83">
   <rect x="32.685756" y="7.059249" width="146.475" height="109.1475"/>
  </clipPath>
 </defs>
</svg>
