<?xml version="1.0" encoding="utf-8" standalone="no"?>
<!DOCTYPE svg PUBLIC "-//W3C//DTD SVG 1.1//EN"
  "http://www.w3.org/Graphics/SVG/1.1/DTD/svg11.dtd">
<svg xmlns:xlink="http://www.w3.org/1999/xlink" width="247.894061pt" height="186.891106pt" viewBox="0 0 247.894061 186.891106" xmlns="http://www.w3.org/2000/svg" version="1.1">
 <metadata>
  <rdf:RDF xmlns:dc="http://purl.org/dc/elements/1.1/" xmlns:cc="http://creativecommons.org/ns#" xmlns:rdf="http://www.w3.org/1999/02/22-rdf-syntax-ns#">
   <cc:Work>
    <dc:type rdf:resource="http://purl.org/dc/dcmitype/StillImage"/>
    <dc:date>2025-02-25T16:39:18.166581</dc:date>
    <dc:format>image/svg+xml</dc:format>
    <dc:creator>
     <cc:Agent>
      <dc:title>Matplotlib v3.9.2, https://matplotlib.org/</dc:title>
     </cc:Agent>
    </dc:creator>
   </cc:Work>
  </rdf:RDF>
 </metadata>
 <defs>
  <style type="text/css">*{stroke-linejoin: round; stroke-linecap: butt}</style>
 </defs>
 <g id="figure_1">
  <g id="patch_1">
   <path d="M -0 186.891106 
L 247.894061 186.891106 
L 247.894061 0 
L -0 0 
L -0 186.891106 
z
" style="fill: none"/>
  </g>
  <g id="axes_1">
   <g id="patch_2">
    <path d="M 44.012725 152.589249 
L 239.312725 152.589249 
L 239.312725 7.059249 
L 44.012725 7.059249 
L 44.012725 152.589249 
z
" style="fill: none"/>
   </g>
   <g id="matplotlib.axis_1">
    <g id="xtick_1">
     <g id="line2d_1">
      <path d="M 44.012725 152.589249 
L 44.012725 7.059249 
" clip-path="url(#pd86501f3f5)" style="fill: none; stroke-dasharray: 1.85,0.8; stroke-dashoffset: 0; stroke: #000000; stroke-opacity: 0.5; stroke-width: 0.5"/>
     </g>
     <g id="line2d_2">
      <defs>
       <path id="m4704564bfc" d="M 0 0 
L 0 -3 
" style="stroke: #000000; stroke-width: 0.5"/>
      </defs>
      <g>
       <use xlink:href="#m4704564bfc" x="44.012725" y="152.589249" style="stroke: #000000; stroke-width: 0.5"/>
      </g>
     </g>
     <g id="line2d_3">
      <defs>
       <path id="m4dadd6b7b4" d="M 0 0 
L 0 3 
" style="stroke: #000000; stroke-width: 0.5"/>
      </defs>
      <g>
       <use xlink:href="#m4dadd6b7b4" x="44.012725" y="7.059249" style="stroke: #000000; stroke-width: 0.5"/>
      </g>
     </g>
     <g id="text_1">
      <!-- $\mathdefault{0}$ -->
      <g transform="translate(41.522058 163.007748) scale(0.1 -0.1)">
       <defs>
        <path id="CMR17-30" d="M 2688 2025 
C 2688 2416 2682 3080 2413 3591 
C 2176 4039 1798 4198 1466 4198 
C 1158 4198 768 4058 525 3597 
C 269 3118 243 2524 243 2025 
C 243 1661 250 1106 448 619 
C 723 -39 1216 -128 1466 -128 
C 1760 -128 2208 -7 2470 600 
C 2662 1042 2688 1559 2688 2025 
z
M 1466 -26 
C 1056 -26 813 325 723 812 
C 653 1188 653 1738 653 2096 
C 653 2588 653 2997 736 3387 
C 858 3929 1216 4096 1466 4096 
C 1728 4096 2067 3923 2189 3400 
C 2272 3036 2278 2607 2278 2096 
C 2278 1680 2278 1169 2202 792 
C 2067 95 1690 -26 1466 -26 
z
" transform="scale(0.015625)"/>
       </defs>
       <use xlink:href="#CMR17-30" transform="scale(0.996264)"/>
      </g>
     </g>
    </g>
    <g id="xtick_2">
     <g id="line2d_4">
      <path d="M 92.837725 152.589249 
L 92.837725 7.059249 
" clip-path="url(#pd86501f3f5)" style="fill: none; stroke-dasharray: 1.85,0.8; stroke-dashoffset: 0; stroke: #000000; stroke-opacity: 0.5; stroke-width: 0.5"/>
     </g>
     <g id="line2d_5">
      <g>
       <use xlink:href="#m4704564bfc" x="92.837725" y="152.589249" style="stroke: #000000; stroke-width: 0.5"/>
      </g>
     </g>
     <g id="line2d_6">
      <g>
       <use xlink:href="#m4dadd6b7b4" x="92.837725" y="7.059249" style="stroke: #000000; stroke-width: 0.5"/>
      </g>
     </g>
     <g id="text_2">
      <!-- $\mathdefault{5}$ -->
      <g transform="translate(90.347058 163.007748) scale(0.1 -0.1)">
       <defs>
        <path id="CMR17-35" d="M 730 3692 
C 794 3666 1056 3584 1325 3584 
C 1920 3584 2246 3911 2432 4100 
C 2432 4157 2432 4192 2394 4192 
C 2387 4192 2374 4192 2323 4163 
C 2099 4058 1837 3973 1517 3973 
C 1325 3973 1037 3999 723 4139 
C 653 4171 640 4171 634 4171 
C 602 4171 595 4164 595 4037 
L 595 2203 
C 595 2089 595 2057 659 2057 
C 691 2057 704 2070 736 2114 
C 941 2401 1222 2522 1542 2522 
C 1766 2522 2246 2382 2246 1289 
C 2246 1085 2246 715 2054 421 
C 1894 159 1645 25 1370 25 
C 947 25 518 320 403 814 
C 429 807 480 795 506 795 
C 589 795 749 840 749 1038 
C 749 1210 627 1280 506 1280 
C 358 1280 262 1190 262 1011 
C 262 454 704 -128 1382 -128 
C 2042 -128 2669 440 2669 1264 
C 2669 2030 2170 2624 1549 2624 
C 1222 2624 947 2503 730 2274 
L 730 3692 
z
" transform="scale(0.015625)"/>
       </defs>
       <use xlink:href="#CMR17-35" transform="scale(0.996264)"/>
      </g>
     </g>
    </g>
    <g id="xtick_3">
     <g id="line2d_7">
      <path d="M 141.662725 152.589249 
L 141.662725 7.059249 
" clip-path="url(#pd86501f3f5)" style="fill: none; stroke-dasharray: 1.85,0.8; stroke-dashoffset: 0; stroke: #000000; stroke-opacity: 0.5; stroke-width: 0.5"/>
     </g>
     <g id="line2d_8">
      <g>
       <use xlink:href="#m4704564bfc" x="141.662725" y="152.589249" style="stroke: #000000; stroke-width: 0.5"/>
      </g>
     </g>
     <g id="line2d_9">
      <g>
       <use xlink:href="#m4dadd6b7b4" x="141.662725" y="7.059249" style="stroke: #000000; stroke-width: 0.5"/>
      </g>
     </g>
     <g id="text_3">
      <!-- $\mathdefault{10}$ -->
      <g transform="translate(136.68139 163.007748) scale(0.1 -0.1)">
       <defs>
        <path id="CMR17-31" d="M 1702 4058 
C 1702 4192 1696 4192 1606 4192 
C 1357 3916 979 3827 621 3827 
C 602 3827 570 3827 563 3808 
C 557 3795 557 3782 557 3648 
C 755 3648 1088 3686 1344 3839 
L 1344 461 
C 1344 236 1331 160 781 160 
L 589 160 
L 589 0 
C 896 0 1216 0 1523 0 
C 1830 0 2150 0 2458 0 
L 2458 160 
L 2266 160 
C 1715 160 1702 230 1702 458 
L 1702 4058 
z
" transform="scale(0.015625)"/>
       </defs>
       <use xlink:href="#CMR17-31" transform="scale(0.996264)"/>
       <use xlink:href="#CMR17-30" transform="translate(45.690477 0) scale(0.996264)"/>
      </g>
     </g>
    </g>
    <g id="xtick_4">
     <g id="line2d_10">
      <path d="M 190.487725 152.589249 
L 190.487725 7.059249 
" clip-path="url(#pd86501f3f5)" style="fill: none; stroke-dasharray: 1.85,0.8; stroke-dashoffset: 0; stroke: #000000; stroke-opacity: 0.5; stroke-width: 0.5"/>
     </g>
     <g id="line2d_11">
      <g>
       <use xlink:href="#m4704564bfc" x="190.487725" y="152.589249" style="stroke: #000000; stroke-width: 0.5"/>
      </g>
     </g>
     <g id="line2d_12">
      <g>
       <use xlink:href="#m4dadd6b7b4" x="190.487725" y="7.059249" style="stroke: #000000; stroke-width: 0.5"/>
      </g>
     </g>
     <g id="text_4">
      <!-- $\mathdefault{15}$ -->
      <g transform="translate(185.50639 163.007748) scale(0.1 -0.1)">
       <use xlink:href="#CMR17-31" transform="scale(0.996264)"/>
       <use xlink:href="#CMR17-35" transform="translate(45.690477 0) scale(0.996264)"/>
      </g>
     </g>
    </g>
    <g id="xtick_5">
     <g id="line2d_13">
      <path d="M 239.312725 152.589249 
L 239.312725 7.059249 
" clip-path="url(#pd86501f3f5)" style="fill: none; stroke-dasharray: 1.85,0.8; stroke-dashoffset: 0; stroke: #000000; stroke-opacity: 0.5; stroke-width: 0.5"/>
     </g>
     <g id="line2d_14">
      <g>
       <use xlink:href="#m4704564bfc" x="239.312725" y="152.589249" style="stroke: #000000; stroke-width: 0.5"/>
      </g>
     </g>
     <g id="line2d_15">
      <g>
       <use xlink:href="#m4dadd6b7b4" x="239.312725" y="7.059249" style="stroke: #000000; stroke-width: 0.5"/>
      </g>
     </g>
     <g id="text_5">
      <!-- $\mathdefault{20}$ -->
      <g transform="translate(234.33139 163.007748) scale(0.1 -0.1)">
       <defs>
        <path id="CMR17-32" d="M 2669 989 
L 2554 989 
C 2490 536 2438 459 2413 420 
C 2381 369 1920 369 1830 369 
L 602 369 
C 832 619 1280 1072 1824 1597 
C 2214 1967 2669 2402 2669 3035 
C 2669 3790 2067 4224 1395 4224 
C 691 4224 262 3604 262 3030 
C 262 2780 448 2748 525 2748 
C 589 2748 781 2787 781 3010 
C 781 3207 614 3264 525 3264 
C 486 3264 448 3258 422 3245 
C 544 3790 915 4058 1306 4058 
C 1862 4058 2227 3617 2227 3035 
C 2227 2479 1901 2000 1536 1584 
L 262 146 
L 262 0 
L 2515 0 
L 2669 989 
z
" transform="scale(0.015625)"/>
       </defs>
       <use xlink:href="#CMR17-32" transform="scale(0.996264)"/>
       <use xlink:href="#CMR17-30" transform="translate(45.690477 0) scale(0.996264)"/>
      </g>
     </g>
    </g>
    <g id="xtick_6">
     <g id="line2d_16">
      <defs>
       <path id="m43459281fa" d="M 0 0 
L 0 -1.5 
" style="stroke: #000000; stroke-width: 0.5"/>
      </defs>
      <g>
       <use xlink:href="#m43459281fa" x="53.777725" y="152.589249" style="stroke: #000000; stroke-width: 0.5"/>
      </g>
     </g>
     <g id="line2d_17">
      <defs>
       <path id="m9b95f3bc9c" d="M 0 0 
L 0 1.5 
" style="stroke: #000000; stroke-width: 0.5"/>
      </defs>
      <g>
       <use xlink:href="#m9b95f3bc9c" x="53.777725" y="7.059249" style="stroke: #000000; stroke-width: 0.5"/>
      </g>
     </g>
    </g>
    <g id="xtick_7">
     <g id="line2d_18">
      <g>
       <use xlink:href="#m43459281fa" x="63.542725" y="152.589249" style="stroke: #000000; stroke-width: 0.5"/>
      </g>
     </g>
     <g id="line2d_19">
      <g>
       <use xlink:href="#m9b95f3bc9c" x="63.542725" y="7.059249" style="stroke: #000000; stroke-width: 0.5"/>
      </g>
     </g>
    </g>
    <g id="xtick_8">
     <g id="line2d_20">
      <g>
       <use xlink:href="#m43459281fa" x="73.307725" y="152.589249" style="stroke: #000000; stroke-width: 0.5"/>
      </g>
     </g>
     <g id="line2d_21">
      <g>
       <use xlink:href="#m9b95f3bc9c" x="73.307725" y="7.059249" style="stroke: #000000; stroke-width: 0.5"/>
      </g>
     </g>
    </g>
    <g id="xtick_9">
     <g id="line2d_22">
      <g>
       <use xlink:href="#m43459281fa" x="83.072725" y="152.589249" style="stroke: #000000; stroke-width: 0.5"/>
      </g>
     </g>
     <g id="line2d_23">
      <g>
       <use xlink:href="#m9b95f3bc9c" x="83.072725" y="7.059249" style="stroke: #000000; stroke-width: 0.5"/>
      </g>
     </g>
    </g>
    <g id="xtick_10">
     <g id="line2d_24">
      <g>
       <use xlink:href="#m43459281fa" x="102.602725" y="152.589249" style="stroke: #000000; stroke-width: 0.5"/>
      </g>
     </g>
     <g id="line2d_25">
      <g>
       <use xlink:href="#m9b95f3bc9c" x="102.602725" y="7.059249" style="stroke: #000000; stroke-width: 0.5"/>
      </g>
     </g>
    </g>
    <g id="xtick_11">
     <g id="line2d_26">
      <g>
       <use xlink:href="#m43459281fa" x="112.367725" y="152.589249" style="stroke: #000000; stroke-width: 0.5"/>
      </g>
     </g>
     <g id="line2d_27">
      <g>
       <use xlink:href="#m9b95f3bc9c" x="112.367725" y="7.059249" style="stroke: #000000; stroke-width: 0.5"/>
      </g>
     </g>
    </g>
    <g id="xtick_12">
     <g id="line2d_28">
      <g>
       <use xlink:href="#m43459281fa" x="122.132725" y="152.589249" style="stroke: #000000; stroke-width: 0.5"/>
      </g>
     </g>
     <g id="line2d_29">
      <g>
       <use xlink:href="#m9b95f3bc9c" x="122.132725" y="7.059249" style="stroke: #000000; stroke-width: 0.5"/>
      </g>
     </g>
    </g>
    <g id="xtick_13">
     <g id="line2d_30">
      <g>
       <use xlink:href="#m43459281fa" x="131.897725" y="152.589249" style="stroke: #000000; stroke-width: 0.5"/>
      </g>
     </g>
     <g id="line2d_31">
      <g>
       <use xlink:href="#m9b95f3bc9c" x="131.897725" y="7.059249" style="stroke: #000000; stroke-width: 0.5"/>
      </g>
     </g>
    </g>
    <g id="xtick_14">
     <g id="line2d_32">
      <g>
       <use xlink:href="#m43459281fa" x="151.427725" y="152.589249" style="stroke: #000000; stroke-width: 0.5"/>
      </g>
     </g>
     <g id="line2d_33">
      <g>
       <use xlink:href="#m9b95f3bc9c" x="151.427725" y="7.059249" style="stroke: #000000; stroke-width: 0.5"/>
      </g>
     </g>
    </g>
    <g id="xtick_15">
     <g id="line2d_34">
      <g>
       <use xlink:href="#m43459281fa" x="161.192725" y="152.589249" style="stroke: #000000; stroke-width: 0.5"/>
      </g>
     </g>
     <g id="line2d_35">
      <g>
       <use xlink:href="#m9b95f3bc9c" x="161.192725" y="7.059249" style="stroke: #000000; stroke-width: 0.5"/>
      </g>
     </g>
    </g>
    <g id="xtick_16">
     <g id="line2d_36">
      <g>
       <use xlink:href="#m43459281fa" x="170.957725" y="152.589249" style="stroke: #000000; stroke-width: 0.5"/>
      </g>
     </g>
     <g id="line2d_37">
      <g>
       <use xlink:href="#m9b95f3bc9c" x="170.957725" y="7.059249" style="stroke: #000000; stroke-width: 0.5"/>
      </g>
     </g>
    </g>
    <g id="xtick_17">
     <g id="line2d_38">
      <g>
       <use xlink:href="#m43459281fa" x="180.722725" y="152.589249" style="stroke: #000000; stroke-width: 0.5"/>
      </g>
     </g>
     <g id="line2d_39">
      <g>
       <use xlink:href="#m9b95f3bc9c" x="180.722725" y="7.059249" style="stroke: #000000; stroke-width: 0.5"/>
      </g>
     </g>
    </g>
    <g id="xtick_18">
     <g id="line2d_40">
      <g>
       <use xlink:href="#m43459281fa" x="200.252725" y="152.589249" style="stroke: #000000; stroke-width: 0.5"/>
      </g>
     </g>
     <g id="line2d_41">
      <g>
       <use xlink:href="#m9b95f3bc9c" x="200.252725" y="7.059249" style="stroke: #000000; stroke-width: 0.5"/>
      </g>
     </g>
    </g>
    <g id="xtick_19">
     <g id="line2d_42">
      <g>
       <use xlink:href="#m43459281fa" x="210.017725" y="152.589249" style="stroke: #000000; stroke-width: 0.5"/>
      </g>
     </g>
     <g id="line2d_43">
      <g>
       <use xlink:href="#m9b95f3bc9c" x="210.017725" y="7.059249" style="stroke: #000000; stroke-width: 0.5"/>
      </g>
     </g>
    </g>
    <g id="xtick_20">
     <g id="line2d_44">
      <g>
       <use xlink:href="#m43459281fa" x="219.782725" y="152.589249" style="stroke: #000000; stroke-width: 0.5"/>
      </g>
     </g>
     <g id="line2d_45">
      <g>
       <use xlink:href="#m9b95f3bc9c" x="219.782725" y="7.059249" style="stroke: #000000; stroke-width: 0.5"/>
      </g>
     </g>
    </g>
    <g id="xtick_21">
     <g id="line2d_46">
      <g>
       <use xlink:href="#m43459281fa" x="229.547725" y="152.589249" style="stroke: #000000; stroke-width: 0.5"/>
      </g>
     </g>
     <g id="line2d_47">
      <g>
       <use xlink:href="#m9b95f3bc9c" x="229.547725" y="7.059249" style="stroke: #000000; stroke-width: 0.5"/>
      </g>
     </g>
    </g>
    <g id="text_6">
     <!-- $f$ [MHz] -->
     <g transform="translate(116.369118 179.704565) scale(0.144 -0.144)">
      <defs>
       <path id="CMMI12-66" d="M 2854 2566 
C 2982 2566 3034 2566 3034 2688 
C 3034 2752 2982 2752 2867 2752 
L 2349 2752 
C 2470 3429 2560 3897 2611 4107 
C 2650 4265 2784 4416 2950 4416 
C 3085 4416 3219 4358 3283 4298 
C 3034 4272 2957 4082 2957 3969 
C 2957 3837 3053 3759 3174 3759 
C 3302 3759 3494 3870 3494 4119 
C 3494 4393 3226 4544 2944 4544 
C 2669 4544 2400 4334 2272 4078 
C 2157 3848 2093 3611 1946 2752 
L 1517 2752 
C 1395 2752 1331 2752 1331 2637 
C 1331 2566 1370 2566 1498 2566 
L 1907 2566 
C 1792 1976 1530 542 1382 -137 
C 1274 -689 1178 -1152 858 -1152 
C 838 -1152 653 -1152 538 -1031 
C 864 -1005 864 -726 864 -720 
C 864 -593 768 -517 646 -517 
C 518 -517 326 -625 326 -867 
C 326 -1140 608 -1280 858 -1280 
C 1510 -1280 1779 -118 1850 199 
C 1965 688 2278 2376 2310 2566 
L 2854 2566 
z
" transform="scale(0.015625)"/>
       <path id="CMR17-5b" d="M 1504 -1600 
L 1504 -1377 
L 902 -1377 
L 902 4544 
L 1504 4544 
L 1504 4767 
L 678 4767 
L 678 -1600 
L 1504 -1600 
z
" transform="scale(0.015625)"/>
       <path id="CMR17-4d" d="M 1338 4224 
C 1299 4320 1293 4320 1158 4320 
L 339 4320 
L 339 4160 
C 781 4160 851 4160 851 3875 
L 851 610 
C 851 451 851 153 339 153 
L 339 -13 
C 486 0 755 0 915 0 
C 1075 0 1344 0 1491 -13 
L 1491 153 
C 979 153 979 451 979 610 
L 979 4135 
L 986 4135 
L 2490 89 
C 2515 25 2528 -13 2579 -13 
C 2630 -13 2643 25 2669 89 
L 4186 4166 
L 4192 4166 
L 4192 438 
C 4192 153 4122 153 3680 153 
L 3680 -13 
C 3853 0 4198 0 4384 0 
C 4570 0 4922 0 5094 -13 
L 5094 153 
C 4653 153 4582 153 4582 438 
L 4582 3875 
C 4582 4160 4653 4160 5094 4160 
L 5094 4320 
L 4282 4320 
C 4147 4320 4141 4314 4102 4218 
L 2720 502 
L 1338 4224 
z
" transform="scale(0.015625)"/>
       <path id="CMR17-48" d="M 3590 3905 
C 3590 4192 3661 4192 4102 4192 
L 4102 4352 
C 3917 4352 3578 4352 3379 4352 
C 3181 4352 2842 4352 2656 4352 
L 2656 4192 
C 3098 4192 3168 4192 3168 3904 
L 3168 2341 
L 1261 2341 
L 1261 3904 
C 1261 4192 1331 4192 1773 4192 
L 1773 4352 
C 1587 4352 1248 4352 1050 4352 
C 851 4352 512 4352 326 4352 
L 326 4192 
C 768 4192 838 4192 838 3905 
L 838 447 
C 838 160 768 160 326 160 
L 326 0 
C 512 0 851 0 1050 0 
C 1248 0 1587 0 1773 0 
L 1773 160 
C 1331 160 1261 160 1261 446 
L 1261 2176 
L 3168 2176 
L 3168 446 
C 3168 160 3098 160 2656 160 
L 2656 0 
C 2842 0 3181 0 3379 0 
C 3578 0 3917 0 4102 0 
L 4102 160 
C 3661 160 3590 160 3590 447 
L 3590 3905 
z
" transform="scale(0.015625)"/>
       <path id="CMR17-7a" d="M 2310 2605 
C 2362 2670 2362 2682 2362 2695 
C 2362 2752 2336 2752 2221 2752 
L 275 2752 
L 211 1760 
L 326 1760 
C 371 2381 442 2650 1178 2650 
L 1958 2650 
L 128 96 
C 128 0 134 0 269 0 
L 2291 0 
L 2381 1152 
L 2266 1152 
C 2214 442 2131 115 1350 115 
L 531 115 
L 2310 2605 
z
" transform="scale(0.015625)"/>
       <path id="CMR17-5d" d="M 915 4767 
L 90 4767 
L 90 4544 
L 691 4544 
L 691 -1377 
L 90 -1377 
L 90 -1600 
L 915 -1600 
L 915 4767 
z
" transform="scale(0.015625)"/>
      </defs>
      <use xlink:href="#CMMI12-66" transform="scale(0.996264)"/>
      <use xlink:href="#CMR17-5b" transform="translate(88.796271 0) scale(0.996264)"/>
      <use xlink:href="#CMR17-4d" transform="translate(113.66733 0) scale(0.996264)"/>
      <use xlink:href="#CMR17-48" transform="translate(198.35427 0) scale(0.996264)"/>
      <use xlink:href="#CMR17-7a" transform="translate(267.4267 0) scale(0.996264)"/>
      <use xlink:href="#CMR17-5d" transform="translate(307.912361 0) scale(0.996264)"/>
     </g>
    </g>
   </g>
   <g id="matplotlib.axis_2">
    <g id="ytick_1">
     <g id="line2d_48">
      <path d="M 44.012725 152.589249 
L 239.312725 152.589249 
" clip-path="url(#pd86501f3f5)" style="fill: none; stroke-dasharray: 1.85,0.8; stroke-dashoffset: 0; stroke: #000000; stroke-opacity: 0.5; stroke-width: 0.5"/>
     </g>
     <g id="line2d_49">
      <defs>
       <path id="m719efb412b" d="M 0 0 
L 3 0 
" style="stroke: #000000; stroke-width: 0.5"/>
      </defs>
      <g>
       <use xlink:href="#m719efb412b" x="44.012725" y="152.589249" style="stroke: #000000; stroke-width: 0.5"/>
      </g>
     </g>
     <g id="line2d_50">
      <defs>
       <path id="m57ea806a8f" d="M 0 0 
L -3 0 
" style="stroke: #000000; stroke-width: 0.5"/>
      </defs>
      <g>
       <use xlink:href="#m57ea806a8f" x="239.312725" y="152.589249" style="stroke: #000000; stroke-width: 0.5"/>
      </g>
     </g>
     <g id="text_7">
      <!-- $\mathdefault{10^{-3}}$ -->
      <g transform="translate(20.352152 156.048498) scale(0.1 -0.1)">
       <defs>
        <path id="CMSY10-0" d="M 4218 1472 
C 4326 1472 4442 1472 4442 1600 
C 4442 1728 4326 1728 4218 1728 
L 755 1728 
C 646 1728 531 1728 531 1600 
C 531 1472 646 1472 755 1472 
L 4218 1472 
z
" transform="scale(0.015625)"/>
        <path id="CMR17-33" d="M 1414 2157 
C 1984 2157 2234 1662 2234 1090 
C 2234 320 1824 25 1453 25 
C 1114 25 563 194 390 693 
C 422 680 454 680 486 680 
C 640 680 755 782 755 948 
C 755 1133 614 1216 486 1216 
C 378 1216 211 1165 211 926 
C 211 335 787 -128 1466 -128 
C 2176 -128 2720 430 2720 1085 
C 2720 1707 2208 2157 1600 2227 
C 2086 2328 2554 2756 2554 3329 
C 2554 3820 2048 4179 1472 4179 
C 890 4179 378 3829 378 3329 
C 378 3110 544 3072 627 3072 
C 762 3072 877 3155 877 3321 
C 877 3486 762 3569 627 3569 
C 602 3569 570 3569 544 3557 
C 730 3959 1235 4032 1459 4032 
C 1683 4032 2106 3925 2106 3320 
C 2106 3143 2080 2828 1862 2550 
C 1670 2304 1453 2304 1242 2284 
C 1210 2284 1062 2269 1037 2269 
C 992 2263 966 2257 966 2208 
C 966 2163 973 2157 1101 2157 
L 1414 2157 
z
" transform="scale(0.015625)"/>
       </defs>
       <use xlink:href="#CMR17-31" transform="scale(0.996264)"/>
       <use xlink:href="#CMR17-30" transform="translate(45.690477 0) scale(0.996264)"/>
       <use xlink:href="#CMSY10-0" transform="translate(91.380954 36.153639) scale(0.697382)"/>
       <use xlink:href="#CMR17-33" transform="translate(145.621947 36.153639) scale(0.697382)"/>
      </g>
     </g>
    </g>
    <g id="ytick_2">
     <g id="line2d_51">
      <path d="M 44.012725 131.799249 
L 239.312725 131.799249 
" clip-path="url(#pd86501f3f5)" style="fill: none; stroke-dasharray: 1.85,0.8; stroke-dashoffset: 0; stroke: #000000; stroke-opacity: 0.5; stroke-width: 0.5"/>
     </g>
     <g id="line2d_52">
      <g>
       <use xlink:href="#m719efb412b" x="44.012725" y="131.799249" style="stroke: #000000; stroke-width: 0.5"/>
      </g>
     </g>
     <g id="line2d_53">
      <g>
       <use xlink:href="#m57ea806a8f" x="239.312725" y="131.799249" style="stroke: #000000; stroke-width: 0.5"/>
      </g>
     </g>
     <g id="text_8">
      <!-- $\mathdefault{10^{-2}}$ -->
      <g transform="translate(20.352152 135.258498) scale(0.1 -0.1)">
       <use xlink:href="#CMR17-31" transform="scale(0.996264)"/>
       <use xlink:href="#CMR17-30" transform="translate(45.690477 0) scale(0.996264)"/>
       <use xlink:href="#CMSY10-0" transform="translate(91.380954 36.153639) scale(0.697382)"/>
       <use xlink:href="#CMR17-32" transform="translate(145.621947 36.153639) scale(0.697382)"/>
      </g>
     </g>
    </g>
    <g id="ytick_3">
     <g id="line2d_54">
      <path d="M 44.012725 111.009249 
L 239.312725 111.009249 
" clip-path="url(#pd86501f3f5)" style="fill: none; stroke-dasharray: 1.85,0.8; stroke-dashoffset: 0; stroke: #000000; stroke-opacity: 0.5; stroke-width: 0.5"/>
     </g>
     <g id="line2d_55">
      <g>
       <use xlink:href="#m719efb412b" x="44.012725" y="111.009249" style="stroke: #000000; stroke-width: 0.5"/>
      </g>
     </g>
     <g id="line2d_56">
      <g>
       <use xlink:href="#m57ea806a8f" x="239.312725" y="111.009249" style="stroke: #000000; stroke-width: 0.5"/>
      </g>
     </g>
     <g id="text_9">
      <!-- $\mathdefault{10^{-1}}$ -->
      <g transform="translate(20.352152 114.468498) scale(0.1 -0.1)">
       <use xlink:href="#CMR17-31" transform="scale(0.996264)"/>
       <use xlink:href="#CMR17-30" transform="translate(45.690477 0) scale(0.996264)"/>
       <use xlink:href="#CMSY10-0" transform="translate(91.380954 36.153639) scale(0.697382)"/>
       <use xlink:href="#CMR17-31" transform="translate(145.621947 36.153639) scale(0.697382)"/>
      </g>
     </g>
    </g>
    <g id="ytick_4">
     <g id="line2d_57">
      <path d="M 44.012725 90.219249 
L 239.312725 90.219249 
" clip-path="url(#pd86501f3f5)" style="fill: none; stroke-dasharray: 1.85,0.8; stroke-dashoffset: 0; stroke: #000000; stroke-opacity: 0.5; stroke-width: 0.5"/>
     </g>
     <g id="line2d_58">
      <g>
       <use xlink:href="#m719efb412b" x="44.012725" y="90.219249" style="stroke: #000000; stroke-width: 0.5"/>
      </g>
     </g>
     <g id="line2d_59">
      <g>
       <use xlink:href="#m57ea806a8f" x="239.312725" y="90.219249" style="stroke: #000000; stroke-width: 0.5"/>
      </g>
     </g>
     <g id="text_10">
      <!-- $\mathdefault{10^{0}}$ -->
      <g transform="translate(26.578817 93.678498) scale(0.1 -0.1)">
       <use xlink:href="#CMR17-31" transform="scale(0.996264)"/>
       <use xlink:href="#CMR17-30" transform="translate(45.690477 0) scale(0.996264)"/>
       <use xlink:href="#CMR17-30" transform="translate(91.380954 36.153639) scale(0.697382)"/>
      </g>
     </g>
    </g>
    <g id="ytick_5">
     <g id="line2d_60">
      <path d="M 44.012725 69.429249 
L 239.312725 69.429249 
" clip-path="url(#pd86501f3f5)" style="fill: none; stroke-dasharray: 1.85,0.8; stroke-dashoffset: 0; stroke: #000000; stroke-opacity: 0.5; stroke-width: 0.5"/>
     </g>
     <g id="line2d_61">
      <g>
       <use xlink:href="#m719efb412b" x="44.012725" y="69.429249" style="stroke: #000000; stroke-width: 0.5"/>
      </g>
     </g>
     <g id="line2d_62">
      <g>
       <use xlink:href="#m57ea806a8f" x="239.312725" y="69.429249" style="stroke: #000000; stroke-width: 0.5"/>
      </g>
     </g>
     <g id="text_11">
      <!-- $\mathdefault{10^{1}}$ -->
      <g transform="translate(26.578817 72.888498) scale(0.1 -0.1)">
       <use xlink:href="#CMR17-31" transform="scale(0.996264)"/>
       <use xlink:href="#CMR17-30" transform="translate(45.690477 0) scale(0.996264)"/>
       <use xlink:href="#CMR17-31" transform="translate(91.380954 36.153639) scale(0.697382)"/>
      </g>
     </g>
    </g>
    <g id="ytick_6">
     <g id="line2d_63">
      <path d="M 44.012725 48.639249 
L 239.312725 48.639249 
" clip-path="url(#pd86501f3f5)" style="fill: none; stroke-dasharray: 1.85,0.8; stroke-dashoffset: 0; stroke: #000000; stroke-opacity: 0.5; stroke-width: 0.5"/>
     </g>
     <g id="line2d_64">
      <g>
       <use xlink:href="#m719efb412b" x="44.012725" y="48.639249" style="stroke: #000000; stroke-width: 0.5"/>
      </g>
     </g>
     <g id="line2d_65">
      <g>
       <use xlink:href="#m57ea806a8f" x="239.312725" y="48.639249" style="stroke: #000000; stroke-width: 0.5"/>
      </g>
     </g>
     <g id="text_12">
      <!-- $\mathdefault{10^{2}}$ -->
      <g transform="translate(26.578817 52.098498) scale(0.1 -0.1)">
       <use xlink:href="#CMR17-31" transform="scale(0.996264)"/>
       <use xlink:href="#CMR17-30" transform="translate(45.690477 0) scale(0.996264)"/>
       <use xlink:href="#CMR17-32" transform="translate(91.380954 36.153639) scale(0.697382)"/>
      </g>
     </g>
    </g>
    <g id="ytick_7">
     <g id="line2d_66">
      <path d="M 44.012725 27.849249 
L 239.312725 27.849249 
" clip-path="url(#pd86501f3f5)" style="fill: none; stroke-dasharray: 1.85,0.8; stroke-dashoffset: 0; stroke: #000000; stroke-opacity: 0.5; stroke-width: 0.5"/>
     </g>
     <g id="line2d_67">
      <g>
       <use xlink:href="#m719efb412b" x="44.012725" y="27.849249" style="stroke: #000000; stroke-width: 0.5"/>
      </g>
     </g>
     <g id="line2d_68">
      <g>
       <use xlink:href="#m57ea806a8f" x="239.312725" y="27.849249" style="stroke: #000000; stroke-width: 0.5"/>
      </g>
     </g>
     <g id="text_13">
      <!-- $\mathdefault{10^{3}}$ -->
      <g transform="translate(26.578817 31.308498) scale(0.1 -0.1)">
       <use xlink:href="#CMR17-31" transform="scale(0.996264)"/>
       <use xlink:href="#CMR17-30" transform="translate(45.690477 0) scale(0.996264)"/>
       <use xlink:href="#CMR17-33" transform="translate(91.380954 36.153639) scale(0.697382)"/>
      </g>
     </g>
    </g>
    <g id="ytick_8">
     <g id="line2d_69">
      <path d="M 44.012725 7.059249 
L 239.312725 7.059249 
" clip-path="url(#pd86501f3f5)" style="fill: none; stroke-dasharray: 1.85,0.8; stroke-dashoffset: 0; stroke: #000000; stroke-opacity: 0.5; stroke-width: 0.5"/>
     </g>
     <g id="line2d_70">
      <g>
       <use xlink:href="#m719efb412b" x="44.012725" y="7.059249" style="stroke: #000000; stroke-width: 0.5"/>
      </g>
     </g>
     <g id="line2d_71">
      <g>
       <use xlink:href="#m57ea806a8f" x="239.312725" y="7.059249" style="stroke: #000000; stroke-width: 0.5"/>
      </g>
     </g>
     <g id="text_14">
      <!-- $\mathdefault{10^{4}}$ -->
      <g transform="translate(26.578817 10.518498) scale(0.1 -0.1)">
       <defs>
        <path id="CMR17-34" d="M 2150 4122 
C 2150 4256 2144 4256 2029 4256 
L 128 1254 
L 128 1088 
L 1779 1088 
L 1779 457 
C 1779 224 1766 160 1318 160 
L 1197 160 
L 1197 0 
C 1402 0 1747 0 1965 0 
C 2182 0 2528 0 2733 0 
L 2733 160 
L 2611 160 
C 2163 160 2150 224 2150 457 
L 2150 1088 
L 2803 1088 
L 2803 1254 
L 2150 1254 
L 2150 4122 
z
M 1798 3703 
L 1798 1254 
L 256 1254 
L 1798 3703 
z
" transform="scale(0.015625)"/>
       </defs>
       <use xlink:href="#CMR17-31" transform="scale(0.996264)"/>
       <use xlink:href="#CMR17-30" transform="translate(45.690477 0) scale(0.996264)"/>
       <use xlink:href="#CMR17-34" transform="translate(91.380954 36.153639) scale(0.697382)"/>
      </g>
     </g>
    </g>
    <g id="ytick_9">
     <g id="line2d_72">
      <defs>
       <path id="mffc346782f" d="M 0 0 
L 1.5 0 
" style="stroke: #000000; stroke-width: 0.5"/>
      </defs>
      <g>
       <use xlink:href="#mffc346782f" x="44.012725" y="146.330836" style="stroke: #000000; stroke-width: 0.5"/>
      </g>
     </g>
     <g id="line2d_73">
      <defs>
       <path id="mb72e049b00" d="M 0 0 
L -1.5 0 
" style="stroke: #000000; stroke-width: 0.5"/>
      </defs>
      <g>
       <use xlink:href="#mb72e049b00" x="239.312725" y="146.330836" style="stroke: #000000; stroke-width: 0.5"/>
      </g>
     </g>
    </g>
    <g id="ytick_10">
     <g id="line2d_74">
      <g>
       <use xlink:href="#mffc346782f" x="44.012725" y="142.669898" style="stroke: #000000; stroke-width: 0.5"/>
      </g>
     </g>
     <g id="line2d_75">
      <g>
       <use xlink:href="#mb72e049b00" x="239.312725" y="142.669898" style="stroke: #000000; stroke-width: 0.5"/>
      </g>
     </g>
    </g>
    <g id="ytick_11">
     <g id="line2d_76">
      <g>
       <use xlink:href="#mffc346782f" x="44.012725" y="140.072422" style="stroke: #000000; stroke-width: 0.5"/>
      </g>
     </g>
     <g id="line2d_77">
      <g>
       <use xlink:href="#mb72e049b00" x="239.312725" y="140.072422" style="stroke: #000000; stroke-width: 0.5"/>
      </g>
     </g>
    </g>
    <g id="ytick_12">
     <g id="line2d_78">
      <g>
       <use xlink:href="#mffc346782f" x="44.012725" y="138.057663" style="stroke: #000000; stroke-width: 0.5"/>
      </g>
     </g>
     <g id="line2d_79">
      <g>
       <use xlink:href="#mb72e049b00" x="239.312725" y="138.057663" style="stroke: #000000; stroke-width: 0.5"/>
      </g>
     </g>
    </g>
    <g id="ytick_13">
     <g id="line2d_80">
      <g>
       <use xlink:href="#mffc346782f" x="44.012725" y="136.411485" style="stroke: #000000; stroke-width: 0.5"/>
      </g>
     </g>
     <g id="line2d_81">
      <g>
       <use xlink:href="#mb72e049b00" x="239.312725" y="136.411485" style="stroke: #000000; stroke-width: 0.5"/>
      </g>
     </g>
    </g>
    <g id="ytick_14">
     <g id="line2d_82">
      <g>
       <use xlink:href="#mffc346782f" x="44.012725" y="135.019661" style="stroke: #000000; stroke-width: 0.5"/>
      </g>
     </g>
     <g id="line2d_83">
      <g>
       <use xlink:href="#mb72e049b00" x="239.312725" y="135.019661" style="stroke: #000000; stroke-width: 0.5"/>
      </g>
     </g>
    </g>
    <g id="ytick_15">
     <g id="line2d_84">
      <g>
       <use xlink:href="#mffc346782f" x="44.012725" y="133.814008" style="stroke: #000000; stroke-width: 0.5"/>
      </g>
     </g>
     <g id="line2d_85">
      <g>
       <use xlink:href="#mb72e049b00" x="239.312725" y="133.814008" style="stroke: #000000; stroke-width: 0.5"/>
      </g>
     </g>
    </g>
    <g id="ytick_16">
     <g id="line2d_86">
      <g>
       <use xlink:href="#mffc346782f" x="44.012725" y="132.750547" style="stroke: #000000; stroke-width: 0.5"/>
      </g>
     </g>
     <g id="line2d_87">
      <g>
       <use xlink:href="#mb72e049b00" x="239.312725" y="132.750547" style="stroke: #000000; stroke-width: 0.5"/>
      </g>
     </g>
    </g>
    <g id="ytick_17">
     <g id="line2d_88">
      <g>
       <use xlink:href="#mffc346782f" x="44.012725" y="125.540836" style="stroke: #000000; stroke-width: 0.5"/>
      </g>
     </g>
     <g id="line2d_89">
      <g>
       <use xlink:href="#mb72e049b00" x="239.312725" y="125.540836" style="stroke: #000000; stroke-width: 0.5"/>
      </g>
     </g>
    </g>
    <g id="ytick_18">
     <g id="line2d_90">
      <g>
       <use xlink:href="#mffc346782f" x="44.012725" y="121.879898" style="stroke: #000000; stroke-width: 0.5"/>
      </g>
     </g>
     <g id="line2d_91">
      <g>
       <use xlink:href="#mb72e049b00" x="239.312725" y="121.879898" style="stroke: #000000; stroke-width: 0.5"/>
      </g>
     </g>
    </g>
    <g id="ytick_19">
     <g id="line2d_92">
      <g>
       <use xlink:href="#mffc346782f" x="44.012725" y="119.282422" style="stroke: #000000; stroke-width: 0.5"/>
      </g>
     </g>
     <g id="line2d_93">
      <g>
       <use xlink:href="#mb72e049b00" x="239.312725" y="119.282422" style="stroke: #000000; stroke-width: 0.5"/>
      </g>
     </g>
    </g>
    <g id="ytick_20">
     <g id="line2d_94">
      <g>
       <use xlink:href="#mffc346782f" x="44.012725" y="117.267663" style="stroke: #000000; stroke-width: 0.5"/>
      </g>
     </g>
     <g id="line2d_95">
      <g>
       <use xlink:href="#mb72e049b00" x="239.312725" y="117.267663" style="stroke: #000000; stroke-width: 0.5"/>
      </g>
     </g>
    </g>
    <g id="ytick_21">
     <g id="line2d_96">
      <g>
       <use xlink:href="#mffc346782f" x="44.012725" y="115.621485" style="stroke: #000000; stroke-width: 0.5"/>
      </g>
     </g>
     <g id="line2d_97">
      <g>
       <use xlink:href="#mb72e049b00" x="239.312725" y="115.621485" style="stroke: #000000; stroke-width: 0.5"/>
      </g>
     </g>
    </g>
    <g id="ytick_22">
     <g id="line2d_98">
      <g>
       <use xlink:href="#mffc346782f" x="44.012725" y="114.229661" style="stroke: #000000; stroke-width: 0.5"/>
      </g>
     </g>
     <g id="line2d_99">
      <g>
       <use xlink:href="#mb72e049b00" x="239.312725" y="114.229661" style="stroke: #000000; stroke-width: 0.5"/>
      </g>
     </g>
    </g>
    <g id="ytick_23">
     <g id="line2d_100">
      <g>
       <use xlink:href="#mffc346782f" x="44.012725" y="113.024008" style="stroke: #000000; stroke-width: 0.5"/>
      </g>
     </g>
     <g id="line2d_101">
      <g>
       <use xlink:href="#mb72e049b00" x="239.312725" y="113.024008" style="stroke: #000000; stroke-width: 0.5"/>
      </g>
     </g>
    </g>
    <g id="ytick_24">
     <g id="line2d_102">
      <g>
       <use xlink:href="#mffc346782f" x="44.012725" y="111.960547" style="stroke: #000000; stroke-width: 0.5"/>
      </g>
     </g>
     <g id="line2d_103">
      <g>
       <use xlink:href="#mb72e049b00" x="239.312725" y="111.960547" style="stroke: #000000; stroke-width: 0.5"/>
      </g>
     </g>
    </g>
    <g id="ytick_25">
     <g id="line2d_104">
      <g>
       <use xlink:href="#mffc346782f" x="44.012725" y="104.750836" style="stroke: #000000; stroke-width: 0.5"/>
      </g>
     </g>
     <g id="line2d_105">
      <g>
       <use xlink:href="#mb72e049b00" x="239.312725" y="104.750836" style="stroke: #000000; stroke-width: 0.5"/>
      </g>
     </g>
    </g>
    <g id="ytick_26">
     <g id="line2d_106">
      <g>
       <use xlink:href="#mffc346782f" x="44.012725" y="101.089898" style="stroke: #000000; stroke-width: 0.5"/>
      </g>
     </g>
     <g id="line2d_107">
      <g>
       <use xlink:href="#mb72e049b00" x="239.312725" y="101.089898" style="stroke: #000000; stroke-width: 0.5"/>
      </g>
     </g>
    </g>
    <g id="ytick_27">
     <g id="line2d_108">
      <g>
       <use xlink:href="#mffc346782f" x="44.012725" y="98.492422" style="stroke: #000000; stroke-width: 0.5"/>
      </g>
     </g>
     <g id="line2d_109">
      <g>
       <use xlink:href="#mb72e049b00" x="239.312725" y="98.492422" style="stroke: #000000; stroke-width: 0.5"/>
      </g>
     </g>
    </g>
    <g id="ytick_28">
     <g id="line2d_110">
      <g>
       <use xlink:href="#mffc346782f" x="44.012725" y="96.477663" style="stroke: #000000; stroke-width: 0.5"/>
      </g>
     </g>
     <g id="line2d_111">
      <g>
       <use xlink:href="#mb72e049b00" x="239.312725" y="96.477663" style="stroke: #000000; stroke-width: 0.5"/>
      </g>
     </g>
    </g>
    <g id="ytick_29">
     <g id="line2d_112">
      <g>
       <use xlink:href="#mffc346782f" x="44.012725" y="94.831485" style="stroke: #000000; stroke-width: 0.5"/>
      </g>
     </g>
     <g id="line2d_113">
      <g>
       <use xlink:href="#mb72e049b00" x="239.312725" y="94.831485" style="stroke: #000000; stroke-width: 0.5"/>
      </g>
     </g>
    </g>
    <g id="ytick_30">
     <g id="line2d_114">
      <g>
       <use xlink:href="#mffc346782f" x="44.012725" y="93.439661" style="stroke: #000000; stroke-width: 0.5"/>
      </g>
     </g>
     <g id="line2d_115">
      <g>
       <use xlink:href="#mb72e049b00" x="239.312725" y="93.439661" style="stroke: #000000; stroke-width: 0.5"/>
      </g>
     </g>
    </g>
    <g id="ytick_31">
     <g id="line2d_116">
      <g>
       <use xlink:href="#mffc346782f" x="44.012725" y="92.234008" style="stroke: #000000; stroke-width: 0.5"/>
      </g>
     </g>
     <g id="line2d_117">
      <g>
       <use xlink:href="#mb72e049b00" x="239.312725" y="92.234008" style="stroke: #000000; stroke-width: 0.5"/>
      </g>
     </g>
    </g>
    <g id="ytick_32">
     <g id="line2d_118">
      <g>
       <use xlink:href="#mffc346782f" x="44.012725" y="91.170547" style="stroke: #000000; stroke-width: 0.5"/>
      </g>
     </g>
     <g id="line2d_119">
      <g>
       <use xlink:href="#mb72e049b00" x="239.312725" y="91.170547" style="stroke: #000000; stroke-width: 0.5"/>
      </g>
     </g>
    </g>
    <g id="ytick_33">
     <g id="line2d_120">
      <g>
       <use xlink:href="#mffc346782f" x="44.012725" y="83.960836" style="stroke: #000000; stroke-width: 0.5"/>
      </g>
     </g>
     <g id="line2d_121">
      <g>
       <use xlink:href="#mb72e049b00" x="239.312725" y="83.960836" style="stroke: #000000; stroke-width: 0.5"/>
      </g>
     </g>
    </g>
    <g id="ytick_34">
     <g id="line2d_122">
      <g>
       <use xlink:href="#mffc346782f" x="44.012725" y="80.299898" style="stroke: #000000; stroke-width: 0.5"/>
      </g>
     </g>
     <g id="line2d_123">
      <g>
       <use xlink:href="#mb72e049b00" x="239.312725" y="80.299898" style="stroke: #000000; stroke-width: 0.5"/>
      </g>
     </g>
    </g>
    <g id="ytick_35">
     <g id="line2d_124">
      <g>
       <use xlink:href="#mffc346782f" x="44.012725" y="77.702422" style="stroke: #000000; stroke-width: 0.5"/>
      </g>
     </g>
     <g id="line2d_125">
      <g>
       <use xlink:href="#mb72e049b00" x="239.312725" y="77.702422" style="stroke: #000000; stroke-width: 0.5"/>
      </g>
     </g>
    </g>
    <g id="ytick_36">
     <g id="line2d_126">
      <g>
       <use xlink:href="#mffc346782f" x="44.012725" y="75.687663" style="stroke: #000000; stroke-width: 0.5"/>
      </g>
     </g>
     <g id="line2d_127">
      <g>
       <use xlink:href="#mb72e049b00" x="239.312725" y="75.687663" style="stroke: #000000; stroke-width: 0.5"/>
      </g>
     </g>
    </g>
    <g id="ytick_37">
     <g id="line2d_128">
      <g>
       <use xlink:href="#mffc346782f" x="44.012725" y="74.041485" style="stroke: #000000; stroke-width: 0.5"/>
      </g>
     </g>
     <g id="line2d_129">
      <g>
       <use xlink:href="#mb72e049b00" x="239.312725" y="74.041485" style="stroke: #000000; stroke-width: 0.5"/>
      </g>
     </g>
    </g>
    <g id="ytick_38">
     <g id="line2d_130">
      <g>
       <use xlink:href="#mffc346782f" x="44.012725" y="72.649661" style="stroke: #000000; stroke-width: 0.5"/>
      </g>
     </g>
     <g id="line2d_131">
      <g>
       <use xlink:href="#mb72e049b00" x="239.312725" y="72.649661" style="stroke: #000000; stroke-width: 0.5"/>
      </g>
     </g>
    </g>
    <g id="ytick_39">
     <g id="line2d_132">
      <g>
       <use xlink:href="#mffc346782f" x="44.012725" y="71.444008" style="stroke: #000000; stroke-width: 0.5"/>
      </g>
     </g>
     <g id="line2d_133">
      <g>
       <use xlink:href="#mb72e049b00" x="239.312725" y="71.444008" style="stroke: #000000; stroke-width: 0.5"/>
      </g>
     </g>
    </g>
    <g id="ytick_40">
     <g id="line2d_134">
      <g>
       <use xlink:href="#mffc346782f" x="44.012725" y="70.380547" style="stroke: #000000; stroke-width: 0.5"/>
      </g>
     </g>
     <g id="line2d_135">
      <g>
       <use xlink:href="#mb72e049b00" x="239.312725" y="70.380547" style="stroke: #000000; stroke-width: 0.5"/>
      </g>
     </g>
    </g>
    <g id="ytick_41">
     <g id="line2d_136">
      <g>
       <use xlink:href="#mffc346782f" x="44.012725" y="63.170836" style="stroke: #000000; stroke-width: 0.5"/>
      </g>
     </g>
     <g id="line2d_137">
      <g>
       <use xlink:href="#mb72e049b00" x="239.312725" y="63.170836" style="stroke: #000000; stroke-width: 0.5"/>
      </g>
     </g>
    </g>
    <g id="ytick_42">
     <g id="line2d_138">
      <g>
       <use xlink:href="#mffc346782f" x="44.012725" y="59.509898" style="stroke: #000000; stroke-width: 0.5"/>
      </g>
     </g>
     <g id="line2d_139">
      <g>
       <use xlink:href="#mb72e049b00" x="239.312725" y="59.509898" style="stroke: #000000; stroke-width: 0.5"/>
      </g>
     </g>
    </g>
    <g id="ytick_43">
     <g id="line2d_140">
      <g>
       <use xlink:href="#mffc346782f" x="44.012725" y="56.912422" style="stroke: #000000; stroke-width: 0.5"/>
      </g>
     </g>
     <g id="line2d_141">
      <g>
       <use xlink:href="#mb72e049b00" x="239.312725" y="56.912422" style="stroke: #000000; stroke-width: 0.5"/>
      </g>
     </g>
    </g>
    <g id="ytick_44">
     <g id="line2d_142">
      <g>
       <use xlink:href="#mffc346782f" x="44.012725" y="54.897663" style="stroke: #000000; stroke-width: 0.5"/>
      </g>
     </g>
     <g id="line2d_143">
      <g>
       <use xlink:href="#mb72e049b00" x="239.312725" y="54.897663" style="stroke: #000000; stroke-width: 0.5"/>
      </g>
     </g>
    </g>
    <g id="ytick_45">
     <g id="line2d_144">
      <g>
       <use xlink:href="#mffc346782f" x="44.012725" y="53.251485" style="stroke: #000000; stroke-width: 0.5"/>
      </g>
     </g>
     <g id="line2d_145">
      <g>
       <use xlink:href="#mb72e049b00" x="239.312725" y="53.251485" style="stroke: #000000; stroke-width: 0.5"/>
      </g>
     </g>
    </g>
    <g id="ytick_46">
     <g id="line2d_146">
      <g>
       <use xlink:href="#mffc346782f" x="44.012725" y="51.859661" style="stroke: #000000; stroke-width: 0.5"/>
      </g>
     </g>
     <g id="line2d_147">
      <g>
       <use xlink:href="#mb72e049b00" x="239.312725" y="51.859661" style="stroke: #000000; stroke-width: 0.5"/>
      </g>
     </g>
    </g>
    <g id="ytick_47">
     <g id="line2d_148">
      <g>
       <use xlink:href="#mffc346782f" x="44.012725" y="50.654008" style="stroke: #000000; stroke-width: 0.5"/>
      </g>
     </g>
     <g id="line2d_149">
      <g>
       <use xlink:href="#mb72e049b00" x="239.312725" y="50.654008" style="stroke: #000000; stroke-width: 0.5"/>
      </g>
     </g>
    </g>
    <g id="ytick_48">
     <g id="line2d_150">
      <g>
       <use xlink:href="#mffc346782f" x="44.012725" y="49.590547" style="stroke: #000000; stroke-width: 0.5"/>
      </g>
     </g>
     <g id="line2d_151">
      <g>
       <use xlink:href="#mb72e049b00" x="239.312725" y="49.590547" style="stroke: #000000; stroke-width: 0.5"/>
      </g>
     </g>
    </g>
    <g id="ytick_49">
     <g id="line2d_152">
      <g>
       <use xlink:href="#mffc346782f" x="44.012725" y="42.380836" style="stroke: #000000; stroke-width: 0.5"/>
      </g>
     </g>
     <g id="line2d_153">
      <g>
       <use xlink:href="#mb72e049b00" x="239.312725" y="42.380836" style="stroke: #000000; stroke-width: 0.5"/>
      </g>
     </g>
    </g>
    <g id="ytick_50">
     <g id="line2d_154">
      <g>
       <use xlink:href="#mffc346782f" x="44.012725" y="38.719898" style="stroke: #000000; stroke-width: 0.5"/>
      </g>
     </g>
     <g id="line2d_155">
      <g>
       <use xlink:href="#mb72e049b00" x="239.312725" y="38.719898" style="stroke: #000000; stroke-width: 0.5"/>
      </g>
     </g>
    </g>
    <g id="ytick_51">
     <g id="line2d_156">
      <g>
       <use xlink:href="#mffc346782f" x="44.012725" y="36.122422" style="stroke: #000000; stroke-width: 0.5"/>
      </g>
     </g>
     <g id="line2d_157">
      <g>
       <use xlink:href="#mb72e049b00" x="239.312725" y="36.122422" style="stroke: #000000; stroke-width: 0.5"/>
      </g>
     </g>
    </g>
    <g id="ytick_52">
     <g id="line2d_158">
      <g>
       <use xlink:href="#mffc346782f" x="44.012725" y="34.107663" style="stroke: #000000; stroke-width: 0.5"/>
      </g>
     </g>
     <g id="line2d_159">
      <g>
       <use xlink:href="#mb72e049b00" x="239.312725" y="34.107663" style="stroke: #000000; stroke-width: 0.5"/>
      </g>
     </g>
    </g>
    <g id="ytick_53">
     <g id="line2d_160">
      <g>
       <use xlink:href="#mffc346782f" x="44.012725" y="32.461485" style="stroke: #000000; stroke-width: 0.5"/>
      </g>
     </g>
     <g id="line2d_161">
      <g>
       <use xlink:href="#mb72e049b00" x="239.312725" y="32.461485" style="stroke: #000000; stroke-width: 0.5"/>
      </g>
     </g>
    </g>
    <g id="ytick_54">
     <g id="line2d_162">
      <g>
       <use xlink:href="#mffc346782f" x="44.012725" y="31.069661" style="stroke: #000000; stroke-width: 0.5"/>
      </g>
     </g>
     <g id="line2d_163">
      <g>
       <use xlink:href="#mb72e049b00" x="239.312725" y="31.069661" style="stroke: #000000; stroke-width: 0.5"/>
      </g>
     </g>
    </g>
    <g id="ytick_55">
     <g id="line2d_164">
      <g>
       <use xlink:href="#mffc346782f" x="44.012725" y="29.864008" style="stroke: #000000; stroke-width: 0.5"/>
      </g>
     </g>
     <g id="line2d_165">
      <g>
       <use xlink:href="#mb72e049b00" x="239.312725" y="29.864008" style="stroke: #000000; stroke-width: 0.5"/>
      </g>
     </g>
    </g>
    <g id="ytick_56">
     <g id="line2d_166">
      <g>
       <use xlink:href="#mffc346782f" x="44.012725" y="28.800547" style="stroke: #000000; stroke-width: 0.5"/>
      </g>
     </g>
     <g id="line2d_167">
      <g>
       <use xlink:href="#mb72e049b00" x="239.312725" y="28.800547" style="stroke: #000000; stroke-width: 0.5"/>
      </g>
     </g>
    </g>
    <g id="ytick_57">
     <g id="line2d_168">
      <g>
       <use xlink:href="#mffc346782f" x="44.012725" y="21.590836" style="stroke: #000000; stroke-width: 0.5"/>
      </g>
     </g>
     <g id="line2d_169">
      <g>
       <use xlink:href="#mb72e049b00" x="239.312725" y="21.590836" style="stroke: #000000; stroke-width: 0.5"/>
      </g>
     </g>
    </g>
    <g id="ytick_58">
     <g id="line2d_170">
      <g>
       <use xlink:href="#mffc346782f" x="44.012725" y="17.929898" style="stroke: #000000; stroke-width: 0.5"/>
      </g>
     </g>
     <g id="line2d_171">
      <g>
       <use xlink:href="#mb72e049b00" x="239.312725" y="17.929898" style="stroke: #000000; stroke-width: 0.5"/>
      </g>
     </g>
    </g>
    <g id="ytick_59">
     <g id="line2d_172">
      <g>
       <use xlink:href="#mffc346782f" x="44.012725" y="15.332422" style="stroke: #000000; stroke-width: 0.5"/>
      </g>
     </g>
     <g id="line2d_173">
      <g>
       <use xlink:href="#mb72e049b00" x="239.312725" y="15.332422" style="stroke: #000000; stroke-width: 0.5"/>
      </g>
     </g>
    </g>
    <g id="ytick_60">
     <g id="line2d_174">
      <g>
       <use xlink:href="#mffc346782f" x="44.012725" y="13.317663" style="stroke: #000000; stroke-width: 0.5"/>
      </g>
     </g>
     <g id="line2d_175">
      <g>
       <use xlink:href="#mb72e049b00" x="239.312725" y="13.317663" style="stroke: #000000; stroke-width: 0.5"/>
      </g>
     </g>
    </g>
    <g id="ytick_61">
     <g id="line2d_176">
      <g>
       <use xlink:href="#mffc346782f" x="44.012725" y="11.671485" style="stroke: #000000; stroke-width: 0.5"/>
      </g>
     </g>
     <g id="line2d_177">
      <g>
       <use xlink:href="#mb72e049b00" x="239.312725" y="11.671485" style="stroke: #000000; stroke-width: 0.5"/>
      </g>
     </g>
    </g>
    <g id="ytick_62">
     <g id="line2d_178">
      <g>
       <use xlink:href="#mffc346782f" x="44.012725" y="10.279661" style="stroke: #000000; stroke-width: 0.5"/>
      </g>
     </g>
     <g id="line2d_179">
      <g>
       <use xlink:href="#mb72e049b00" x="239.312725" y="10.279661" style="stroke: #000000; stroke-width: 0.5"/>
      </g>
     </g>
    </g>
    <g id="ytick_63">
     <g id="line2d_180">
      <g>
       <use xlink:href="#mffc346782f" x="44.012725" y="9.074008" style="stroke: #000000; stroke-width: 0.5"/>
      </g>
     </g>
     <g id="line2d_181">
      <g>
       <use xlink:href="#mb72e049b00" x="239.312725" y="9.074008" style="stroke: #000000; stroke-width: 0.5"/>
      </g>
     </g>
    </g>
    <g id="ytick_64">
     <g id="line2d_182">
      <g>
       <use xlink:href="#mffc346782f" x="44.012725" y="8.010547" style="stroke: #000000; stroke-width: 0.5"/>
      </g>
     </g>
     <g id="line2d_183">
      <g>
       <use xlink:href="#mb72e049b00" x="239.312725" y="8.010547" style="stroke: #000000; stroke-width: 0.5"/>
      </g>
     </g>
    </g>
    <g id="text_15">
     <!-- $FFT$ -->
     <g transform="translate(13.562625 94.985154) rotate(-90) scale(0.144 -0.144)">
      <defs>
       <path id="CMMI12-46" d="M 1901 2055 
L 2515 2055 
C 3002 2055 3040 1946 3040 1761 
C 3040 1678 3027 1589 2995 1448 
C 2982 1423 2976 1391 2976 1378 
C 2976 1333 3002 1308 3046 1308 
C 3098 1308 3104 1333 3130 1435 
L 3501 2935 
C 3501 2961 3482 2999 3437 2999 
C 3379 2999 3373 2974 3347 2863 
C 3213 2376 3085 2240 2528 2240 
L 1946 2240 
L 2362 3926 
C 2419 4154 2432 4154 2694 4154 
L 3552 4154 
C 4352 4154 4467 3918 4467 3464 
C 4467 3426 4467 3285 4448 3119 
C 4442 3094 4429 3011 4429 2985 
C 4429 2934 4461 2915 4499 2915 
C 4544 2915 4570 2941 4582 3055 
L 4717 4174 
C 4717 4195 4730 4263 4730 4277 
C 4730 4352 4672 4352 4557 4352 
L 1523 4352 
C 1402 4352 1338 4352 1338 4229 
C 1338 4154 1382 4154 1491 4154 
C 1888 4154 1888 4113 1888 4050 
C 1888 4018 1882 3992 1862 3922 
L 998 473 
C 941 249 928 185 480 185 
C 358 185 294 185 294 70 
C 294 0 352 0 390 0 
C 512 0 640 0 762 0 
L 1594 0 
C 1734 0 1888 0 2029 0 
C 2086 0 2163 0 2163 115 
C 2163 185 2125 185 1984 185 
C 1478 185 1466 229 1466 324 
C 1466 356 1478 406 1491 449 
L 1901 2055 
z
" transform="scale(0.015625)"/>
       <path id="CMMI12-54" d="M 2669 3910 
C 2707 4064 2720 4121 2816 4147 
C 2867 4160 3078 4160 3213 4160 
C 3853 4160 4154 4134 4154 3634 
C 4154 3537 4128 3295 4090 3057 
L 4083 2980 
C 4083 2954 4109 2916 4147 2916 
C 4211 2916 4211 2948 4230 3050 
L 4416 4184 
C 4429 4243 4429 4256 4429 4275 
C 4429 4345 4390 4345 4262 4345 
L 762 4345 
C 614 4345 608 4339 570 4224 
L 179 3070 
C 173 3056 154 2986 154 2980 
C 154 2948 179 2916 218 2916 
C 269 2916 282 2941 307 3024 
C 576 3801 710 4160 1562 4160 
L 1990 4160 
C 2144 4160 2208 4160 2208 4089 
C 2208 4069 2208 4057 2176 3941 
L 1318 499 
C 1254 249 1242 185 563 185 
C 403 185 358 185 358 64 
C 358 0 429 0 461 0 
C 621 0 787 0 947 0 
L 1946 0 
C 2106 0 2278 0 2438 0 
C 2509 0 2573 0 2573 121 
C 2573 185 2528 185 2362 185 
C 1786 185 1786 243 1786 339 
C 1786 346 1786 391 1811 494 
L 2669 3910 
z
" transform="scale(0.015625)"/>
      </defs>
      <use xlink:href="#CMMI12-46" transform="scale(0.996264)"/>
      <use xlink:href="#CMMI12-46" transform="translate(76.696793 0) scale(0.996264)"/>
      <use xlink:href="#CMMI12-54" transform="translate(153.393585 0) scale(0.996264)"/>
     </g>
    </g>
   </g>
   <g id="line2d_184">
    <path d="M 44.012725 117.502735 
L 44.251129 122.696604 
L 44.37033 113.521381 
L 44.489532 113.034486 
L 44.608734 137.433841 
L 44.847137 102.93101 
L 44.966339 100.948103 
L 45.08554 101.010398 
L 45.323944 102.787338 
L 45.443145 104.47714 
L 45.681549 108.727403 
L 45.919952 103.456618 
L 46.158355 101.115394 
L 46.396759 97.612598 
L 46.51596 97.414663 
L 46.873565 101.017558 
L 46.992767 102.812033 
L 47.23117 112.010331 
L 47.469573 99.24456 
L 47.588775 101.383554 
L 47.707977 108.749184 
L 47.827178 124.793736 
L 48.065582 108.333422 
L 48.184783 107.443245 
L 48.303985 107.902598 
L 48.423187 110.470692 
L 48.542388 118.726446 
L 48.780792 107.200331 
L 48.899993 109.109226 
L 49.019195 106.212064 
L 49.257598 112.082066 
L 49.3768 104.65707 
L 49.496002 110.75735 
L 49.615203 108.562644 
L 49.734405 103.215935 
L 49.853607 112.667093 
L 49.972808 105.680027 
L 50.09201 105.372204 
L 50.211212 108.555528 
L 50.330413 97.332018 
L 50.449615 98.478622 
L 50.568817 102.83591 
L 50.688018 96.441741 
L 50.80722 100.798451 
L 51.045623 93.618523 
L 51.164825 110.177076 
L 51.284027 93.103952 
L 51.403228 93.422547 
L 51.52243 96.127842 
L 51.641632 85.235288 
L 51.880035 91.378279 
L 51.999237 82.216614 
L 52.118438 92.044781 
L 52.356842 75.887122 
L 52.476043 112.028175 
L 52.595245 70.849015 
L 52.714447 69.694902 
L 52.833648 73.948531 
L 52.95285 59.458619 
L 53.072052 60.765772 
L 53.66806 26.109866 
L 53.787261 25.448987 
L 53.906463 26.36315 
L 54.144866 33.585682 
L 54.264068 41.275601 
L 54.502471 59.327752 
L 54.621673 60.550699 
L 54.740875 82.858874 
L 54.860076 68.822609 
L 54.979278 72.080109 
L 55.09848 89.078949 
L 55.217681 75.830174 
L 55.456085 87.399474 
L 55.575286 82.276811 
L 55.694488 95.061897 
L 55.932891 86.63232 
L 56.052093 107.407829 
L 56.171295 91.117526 
L 56.290496 93.263856 
L 56.409698 106.096511 
L 56.5289 94.582269 
L 56.648101 102.370126 
L 56.886505 96.460468 
L 57.005706 104.309886 
L 57.124908 96.648429 
L 57.24411 96.211614 
L 57.363311 106.59997 
L 57.482513 106.192203 
L 57.601715 104.321261 
L 57.720916 107.684164 
L 58.197723 96.466286 
L 58.436126 105.388578 
L 58.555328 105.102085 
L 58.67453 105.528161 
L 59.032135 102.059858 
L 59.151336 102.150532 
L 59.270538 103.494591 
L 59.38974 103.51386 
L 59.508941 103.981901 
L 59.747344 110.234714 
L 59.866546 109.307982 
L 60.104949 104.10546 
L 60.224151 107.532953 
L 60.343353 116.10933 
L 60.581756 106.436285 
L 60.700958 106.548627 
L 60.820159 107.439978 
L 61.058563 102.319774 
L 61.296966 99.24684 
L 61.416168 98.788499 
L 61.535369 98.791993 
L 61.654571 99.94173 
L 61.773773 103.539639 
L 61.892974 110.642121 
L 62.250579 101.055735 
L 62.369781 100.937884 
L 62.488983 101.055248 
L 62.608184 101.566799 
L 62.727386 103.300484 
L 62.846588 107.405502 
L 63.084991 124.996314 
L 63.323394 114.580326 
L 63.561798 112.475002 
L 63.680999 112.5306 
L 63.919403 116.183346 
L 64.038604 118.843084 
L 64.157806 117.460483 
L 64.396209 107.893171 
L 64.753814 102.380116 
L 64.873016 101.550252 
L 64.992218 101.663869 
L 65.111419 103.070572 
L 65.230621 106.600711 
L 65.349823 115.447092 
L 65.469024 111.879035 
L 65.707427 101.03619 
L 65.945831 99.029059 
L 66.065032 99.102307 
L 66.303436 99.873327 
L 66.422637 101.062608 
L 66.541839 104.123723 
L 66.780242 115.326036 
L 67.018646 103.517077 
L 67.137847 103.915162 
L 67.495452 111.040586 
L 67.733856 118.622433 
L 67.853057 118.600686 
L 68.091461 107.488973 
L 68.329864 104.218953 
L 68.449066 104.670864 
L 68.925872 112.266649 
L 69.045074 114.680692 
L 69.283477 107.530635 
L 69.521881 102.340207 
L 69.641082 101.839381 
L 69.760284 102.529791 
L 70.117889 105.504528 
L 70.594696 101.707736 
L 70.713897 102.168106 
L 70.952301 105.296752 
L 71.071502 107.058898 
L 71.429107 102.066819 
L 71.786712 103.323104 
L 71.905914 108.865249 
L 72.144317 96.412196 
L 72.263519 96.802886 
L 72.38272 112.460149 
L 72.501922 93.931016 
L 72.621124 98.764769 
L 72.978729 65.157267 
L 73.217132 59.218596 
L 73.336334 58.811 
L 73.455535 59.97796 
L 73.693939 67.811764 
L 73.81314 75.985379 
L 73.932342 92.844849 
L 74.051544 93.542305 
L 74.170745 97.163566 
L 74.289947 107.696451 
L 74.409149 100.656549 
L 74.647552 113.030331 
L 74.766754 111.148146 
L 74.885955 130.28021 
L 75.005157 115.355148 
L 75.124359 116.282622 
L 75.362762 110.728567 
L 75.481964 116.716878 
L 75.839569 106.814328 
L 76.197174 115.631022 
L 76.435577 112.328312 
L 76.554779 113.162743 
L 76.793182 122.39356 
L 77.031585 111.293856 
L 77.150787 112.145074 
L 77.269989 115.116913 
L 77.38919 114.619066 
L 77.746795 106.111649 
L 78.1044 102.162993 
L 78.223602 102.617322 
L 78.462005 106.892789 
L 78.581207 105.907849 
L 78.81961 100.135238 
L 79.058013 98.993694 
L 79.177215 99.126419 
L 79.53482 97.943204 
L 79.654022 98.907007 
L 80.011627 104.52613 
L 80.25003 101.779284 
L 80.369232 102.268479 
L 80.607635 104.218287 
L 80.846038 103.581282 
L 81.084442 102.485747 
L 81.203643 101.932259 
L 81.322845 102.2202 
L 81.561248 106.189041 
L 81.799652 110.802685 
L 82.038055 106.574946 
L 82.157257 107.204655 
L 82.276458 112.922583 
L 82.39566 112.451642 
L 82.634063 100.541268 
L 82.753265 99.832018 
L 82.872467 101.303741 
L 82.991668 105.187481 
L 83.230072 122.348808 
L 83.468475 111.073364 
L 83.706878 108.00604 
L 83.82608 108.592636 
L 83.945282 111.117708 
L 84.183685 123.574212 
L 84.779693 105.099218 
L 85.018096 103.484358 
L 85.2565 101.340217 
L 85.375701 101.215816 
L 85.614105 103.150015 
L 85.852508 106.891852 
L 86.090911 115.280883 
L 86.210113 112.733098 
L 86.448516 101.91597 
L 86.68692 98.70431 
L 86.806121 98.820722 
L 86.925323 100.049999 
L 87.163726 106.73796 
L 87.282928 110.354967 
L 87.40213 109.924854 
L 87.521331 110.153962 
L 87.640533 113.112106 
L 87.759735 112.557734 
L 87.998138 104.724977 
L 88.11734 104.074834 
L 88.236541 105.157723 
L 88.474945 112.208003 
L 88.713348 119.687568 
L 88.951751 111.823037 
L 89.070953 110.403864 
L 89.190155 110.334802 
L 89.428558 111.295777 
L 89.666961 107.206252 
L 89.905365 104.366637 
L 90.024566 104.784478 
L 90.382171 108.147419 
L 90.501373 107.888683 
L 90.858978 99.66833 
L 91.335784 97.647502 
L 91.454986 100.487576 
L 91.574188 114.656894 
L 91.693389 104.368853 
L 91.931793 103.440369 
L 92.050994 94.36772 
L 92.170196 102.882011 
L 92.408599 72.772311 
L 92.647003 63.116265 
L 92.885406 61.184293 
L 93.004608 62.618471 
L 93.243011 71.27598 
L 93.362213 80.54385 
L 93.481414 108.007881 
L 93.600616 93.786801 
L 93.839019 101.611357 
L 93.958221 99.440642 
L 94.196624 107.384347 
L 94.315826 106.382443 
L 94.435028 107.048301 
L 94.554229 106.196004 
L 94.911834 99.778212 
L 95.507843 102.346854 
L 95.627044 102.904965 
L 95.746246 104.027711 
L 95.865448 106.47681 
L 95.984649 112.206675 
L 96.103851 125.186762 
L 96.342254 107.533421 
L 96.461456 106.441858 
L 96.580657 106.691805 
L 96.819061 108.376993 
L 97.176666 114.243521 
L 97.295867 111.944436 
L 97.653472 101.343143 
L 97.772674 100.884527 
L 97.891876 102.222654 
L 98.130279 112.159827 
L 98.249481 117.666693 
L 98.487884 108.735909 
L 98.726287 106.052622 
L 98.845489 105.822288 
L 98.964691 106.590959 
L 99.083892 108.838905 
L 99.322296 116.151589 
L 99.560699 107.956905 
L 99.679901 106.513196 
L 99.799102 106.45936 
L 100.037506 109.449248 
L 100.275909 116.468408 
L 100.514312 125.116954 
L 100.633514 122.049229 
L 100.752716 123.133146 
L 101.348724 104.791584 
L 101.706329 101.205292 
L 101.825531 101.179702 
L 101.944732 102.323963 
L 102.183136 109.139199 
L 102.421539 122.178961 
L 102.54074 133.354646 
L 102.779144 111.343067 
L 103.017547 108.215154 
L 103.136749 108.838129 
L 103.25595 110.516774 
L 103.375152 114.019504 
L 103.494354 123.138059 
L 103.613555 122.804185 
L 103.851959 109.832872 
L 104.209564 104.781081 
L 104.328765 104.145035 
L 104.447967 104.338524 
L 104.68637 107.394036 
L 104.805572 107.30431 
L 105.163177 101.72757 
L 105.282379 101.920307 
L 105.520782 105.558513 
L 105.878387 117.356351 
L 105.997589 115.659866 
L 106.355194 105.95815 
L 106.474395 105.263785 
L 106.593597 106.207864 
L 106.951202 116.574228 
L 107.308807 103.088238 
L 107.54721 100.1535 
L 107.785614 99.742168 
L 107.904815 99.888622 
L 108.024017 100.272283 
L 108.143219 101.244446 
L 108.381622 106.411842 
L 108.620025 119.780581 
L 108.739227 118.266019 
L 108.858428 114.379211 
L 108.97763 114.152672 
L 109.096832 112.23788 
L 109.335235 105.099482 
L 109.454437 105.087901 
L 109.69284 107.94488 
L 110.050445 102.838871 
L 110.169647 103.434872 
L 110.40805 108.327897 
L 110.527252 110.683983 
L 110.884857 99.400835 
L 111.004058 100.557881 
L 111.242462 112.906189 
L 111.361663 108.534381 
L 111.600067 90.319496 
L 111.719268 100.660467 
L 111.957672 68.640901 
L 112.196075 59.946703 
L 112.315277 58.472146 
L 112.434478 58.578648 
L 112.55368 60.281402 
L 112.792083 69.707602 
L 112.911285 80.066706 
L 113.030487 101.562052 
L 113.149688 89.937487 
L 113.26889 95.723696 
L 113.388092 113.929751 
L 113.507293 107.320502 
L 113.626495 112.571151 
L 113.745697 104.20968 
L 113.864898 105.118795 
L 113.9841 109.71416 
L 114.222503 101.963479 
L 114.460907 100.249622 
L 114.580108 101.39854 
L 114.69931 104.604713 
L 114.937713 120.039605 
L 115.176116 108.65026 
L 115.295318 110.324995 
L 115.41452 114.078092 
L 115.533721 113.867728 
L 115.772125 105.050021 
L 115.891326 104.043481 
L 116.010528 105.117548 
L 116.12973 108.760866 
L 116.248931 115.962324 
L 116.606536 104.210416 
L 116.84494 103.282759 
L 116.964141 103.544266 
L 117.083343 104.230769 
L 117.321746 107.987923 
L 117.56015 112.608659 
L 117.798553 109.336704 
L 118.036956 105.917828 
L 118.156158 105.547358 
L 118.27536 106.413692 
L 118.632965 113.627055 
L 118.752166 112.544804 
L 119.109771 105.618948 
L 119.228973 104.65506 
L 119.348175 104.662311 
L 119.467376 105.790427 
L 119.586578 108.348416 
L 119.70578 113.378682 
L 119.824981 127.826871 
L 120.063385 109.663129 
L 120.301788 105.588177 
L 120.42099 105.727892 
L 120.659393 106.802075 
L 120.778594 106.9828 
L 120.897796 107.790271 
L 121.136199 113.184659 
L 121.374603 121.133144 
L 121.851409 109.386567 
L 121.970611 109.653602 
L 122.209014 114.70249 
L 122.328216 117.562344 
L 122.924224 104.932609 
L 123.043426 104.982114 
L 123.162628 106.390211 
L 123.520233 112.826566 
L 123.758636 111.928351 
L 124.235443 106.282916 
L 124.473846 106.767542 
L 124.712249 107.29955 
L 124.831451 107.231256 
L 125.189056 105.497394 
L 125.308258 106.921795 
L 125.427459 110.824461 
L 125.546661 118.859749 
L 125.904266 104.884359 
L 126.023468 104.216619 
L 126.142669 105.089975 
L 126.500274 113.770731 
L 126.738677 107.758675 
L 126.857879 107.008216 
L 127.096282 107.868209 
L 127.334686 107.328542 
L 127.453887 107.990811 
L 127.692291 115.169693 
L 128.288299 101.094774 
L 128.526702 101.554222 
L 128.884307 100.039869 
L 129.003509 100.361045 
L 129.122711 101.558729 
L 129.361114 108.451466 
L 129.480316 118.843571 
L 129.837921 104.271458 
L 129.957122 104.398638 
L 130.076324 105.377983 
L 130.195526 104.907755 
L 130.433929 101.390614 
L 130.553131 102.963012 
L 130.791534 109.730881 
L 130.910736 106.452978 
L 131.149139 94.045217 
L 131.268341 110.080369 
L 131.506744 73.044477 
L 131.745147 64.836891 
L 131.864349 63.583611 
L 131.983551 63.917455 
L 132.102752 65.869463 
L 132.341156 75.988065 
L 132.579559 101.505309 
L 132.698761 96.667619 
L 132.937164 108.898646 
L 133.056365 111.003748 
L 133.175567 116.987573 
L 133.294769 107.585406 
L 133.41397 107.59051 
L 133.652374 114.355638 
L 133.890777 109.761229 
L 134.009979 110.531765 
L 134.12918 112.256486 
L 134.486785 106.627123 
L 134.605987 106.126371 
L 134.963592 103.748359 
L 135.082794 104.669945 
L 135.321197 110.88914 
L 135.5596 123.767797 
L 136.036407 108.161457 
L 136.27481 105.60287 
L 136.394012 105.42666 
L 136.513214 106.021404 
L 136.870819 111.685991 
L 137.109222 108.101743 
L 137.228424 108.408534 
L 137.466827 117.194977 
L 137.70523 105.798896 
L 137.943634 103.617352 
L 138.062835 104.278009 
L 138.301239 108.001544 
L 138.539642 117.211516 
L 138.897247 105.864541 
L 139.016448 105.487747 
L 139.13565 106.518436 
L 139.374053 110.5272 
L 139.493255 110.482215 
L 139.612457 109.834779 
L 139.731658 110.370432 
L 139.85086 112.727151 
L 139.970062 117.511774 
L 140.089263 127.884303 
L 140.208465 126.078219 
L 140.446868 111.521327 
L 140.685272 107.574995 
L 140.804473 107.369061 
L 140.923675 107.909603 
L 141.162078 110.747656 
L 141.400482 117.708827 
L 141.519683 123.382495 
L 141.638885 120.983259 
L 141.99649 105.706898 
L 142.234893 103.814648 
L 142.354095 104.321558 
L 142.592498 107.609519 
L 142.830902 117.642397 
L 142.950103 131.024388 
L 143.188507 112.449517 
L 143.546112 104.83944 
L 143.665313 104.362654 
L 143.784515 105.078029 
L 144.022918 110.661369 
L 144.261322 118.524791 
L 144.380523 118.36939 
L 144.499725 117.17454 
L 144.976532 105.504458 
L 145.334136 103.168053 
L 145.57254 102.523854 
L 145.691741 102.702289 
L 145.930145 104.219008 
L 146.168548 108.125659 
L 146.526153 118.32526 
L 146.883758 109.310416 
L 147.00296 109.178968 
L 147.122161 110.954295 
L 147.360565 116.942631 
L 147.598968 110.142413 
L 147.837371 109.043362 
L 148.194976 107.687118 
L 148.314178 108.250737 
L 148.43338 110.155735 
L 148.671783 121.625047 
L 148.910186 108.141726 
L 149.14859 104.727074 
L 149.267791 104.534032 
L 149.386993 105.488432 
L 149.744598 114.751543 
L 149.983001 108.948409 
L 150.221405 120.151537 
L 150.340606 109.503692 
L 150.459808 119.20181 
L 150.698211 103.712519 
L 150.817413 96.601979 
L 151.055816 74.600342 
L 151.294219 67.327977 
L 151.413421 66.374136 
L 151.532623 66.999847 
L 151.771026 73.558558 
L 151.890228 80.743875 
L 152.128631 99.200903 
L 152.247833 98.55164 
L 152.367034 107.674637 
L 152.486236 106.922029 
L 152.605438 108.543752 
L 152.724639 127.309669 
L 152.963043 112.045499 
L 153.201446 118.025099 
L 153.559051 110.600189 
L 153.678253 110.448839 
L 153.797454 109.426908 
L 154.035858 105.870904 
L 154.155059 105.390129 
L 154.393463 106.383225 
L 154.989471 109.686622 
L 155.108673 110.748307 
L 155.466278 115.841408 
L 155.823883 111.612223 
L 156.300689 108.804335 
L 156.419891 107.9801 
L 156.539093 108.028946 
L 156.658294 109.342361 
L 156.896698 117.808124 
L 157.015899 116.680719 
L 157.254302 107.509236 
L 157.492706 104.777612 
L 157.611907 104.915306 
L 157.731109 106.357193 
L 158.088714 115.368992 
L 158.327117 110.401066 
L 158.684722 107.295343 
L 158.803924 107.21955 
L 158.923126 108.37008 
L 159.042327 111.387822 
L 159.280731 122.178377 
L 159.519134 114.608241 
L 159.638336 115.13889 
L 159.757537 118.099106 
L 159.995941 126.150296 
L 160.472747 110.000992 
L 160.591949 109.744232 
L 160.711151 112.278955 
L 160.949554 120.72689 
L 161.664764 101.756665 
L 161.783966 101.068841 
L 161.903167 101.141344 
L 162.141571 102.769662 
L 162.499176 107.102632 
L 162.618377 107.085673 
L 162.975982 104.633308 
L 163.095184 105.917823 
L 163.214386 109.574465 
L 163.452789 120.009154 
L 163.691192 108.10298 
L 164.048797 104.357976 
L 164.167999 104.766645 
L 164.2872 106.911395 
L 164.525604 116.580754 
L 164.764007 106.783464 
L 164.883209 105.606208 
L 165.00241 105.974735 
L 165.360015 109.047908 
L 165.479217 108.346599 
L 165.598419 108.347741 
L 165.71762 109.68143 
L 166.194427 121.788719 
L 166.43283 117.726552 
L 166.552032 120.016139 
L 166.671234 138.356606 
L 166.909637 109.943875 
L 167.14804 106.919826 
L 167.267242 106.877539 
L 167.386444 107.195623 
L 167.505645 108.971983 
L 167.744049 122.115649 
L 167.982452 106.287864 
L 168.101654 106.476421 
L 168.220855 110.698641 
L 168.340057 119.368722 
L 168.57846 105.94413 
L 168.697662 105.196506 
L 168.936065 106.506507 
L 169.055267 106.170395 
L 169.174469 106.187138 
L 169.29367 109.104386 
L 169.412872 118.760738 
L 169.651275 113.733189 
L 169.889678 106.712447 
L 170.00888 104.277187 
L 170.128082 96.146895 
L 170.247283 96.408551 
L 170.366485 94.855256 
L 170.604888 71.850434 
L 170.843292 64.99788 
L 170.962493 64.254539 
L 171.081695 65.098474 
L 171.320098 72.199255 
L 171.4393 79.837199 
L 171.677703 98.032873 
L 171.796905 99.943579 
L 171.916107 118.527742 
L 172.035308 102.77975 
L 172.15451 104.691921 
L 172.273712 116.993377 
L 172.392913 117.729657 
L 172.750518 106.006589 
L 172.86972 105.575056 
L 172.988922 105.604113 
L 173.346527 103.747335 
L 173.58493 104.66667 
L 174.061737 106.458252 
L 174.776947 115.884886 
L 175.01535 123.415882 
L 175.849761 105.599934 
L 175.968963 105.590627 
L 176.088165 106.733577 
L 176.922576 122.412328 
L 177.280181 110.164131 
L 177.399383 109.831869 
L 177.637786 114.528695 
L 177.756988 113.839501 
L 177.995391 109.837285 
L 178.114593 110.771325 
L 178.352996 118.886289 
L 178.472198 117.30271 
L 178.710601 114.001477 
L 178.949005 121.624171 
L 179.187408 112.653359 
L 179.30661 112.988215 
L 179.545013 120.777514 
L 179.783416 106.71879 
L 179.902618 105.550322 
L 180.02182 106.101009 
L 180.379425 111.222034 
L 180.856231 103.671785 
L 180.975433 104.422732 
L 181.094635 106.64685 
L 181.213836 111.085701 
L 181.333038 120.93138 
L 181.45224 119.898598 
L 181.690643 112.399222 
L 181.929046 116.284693 
L 182.286651 111.635913 
L 182.405853 114.663785 
L 182.525054 124.395916 
L 183.121063 106.745834 
L 183.240264 106.597955 
L 183.359466 107.874327 
L 183.597869 116.925534 
L 183.955474 106.195363 
L 184.074676 105.832592 
L 184.313079 107.268089 
L 184.551483 106.132414 
L 184.670684 106.590111 
L 184.909088 111.416839 
L 185.028289 110.855501 
L 185.266693 108.095451 
L 185.385894 109.947511 
L 185.624298 117.927447 
L 185.862701 107.818365 
L 186.101104 106.455031 
L 186.339508 107.723664 
L 186.935516 113.495749 
L 187.293121 108.35894 
L 187.412323 109.090504 
L 187.531524 112.37262 
L 187.769927 128.214692 
L 188.008331 113.378339 
L 188.365936 105.634722 
L 188.485137 104.92675 
L 188.604339 105.306986 
L 189.081146 109.333397 
L 189.200347 121.416042 
L 189.319549 111.533058 
L 189.438751 114.529864 
L 189.677154 94.682689 
L 189.796356 97.433659 
L 190.392364 63.5303 
L 190.511566 63.041496 
L 190.630767 64.126781 
L 190.869171 71.740635 
L 190.988372 79.698799 
L 191.226776 98.210613 
L 191.345977 101.293028 
L 191.465179 112.24151 
L 191.584381 102.7357 
L 191.703582 104.504192 
L 191.941986 114.06474 
L 192.061187 113.905628 
L 192.299591 105.583212 
L 192.418792 106.239682 
L 192.776397 110.231744 
L 193.014801 108.069521 
L 193.253204 106.729651 
L 193.372406 105.926979 
L 193.491607 106.141842 
L 193.968414 113.695865 
L 194.326019 121.344024 
L 194.44522 120.550873 
L 194.564422 122.972922 
L 194.683624 131.329458 
L 195.398834 106.757271 
L 195.518035 105.806344 
L 195.637237 106.800026 
L 195.756439 110.410276 
L 195.87564 118.648531 
L 195.994842 116.533203 
L 196.233245 111.228352 
L 196.352447 114.165142 
L 196.59085 126.152149 
L 196.829254 115.001639 
L 197.067657 114.162061 
L 197.544464 106.050619 
L 197.663665 106.106471 
L 197.782867 107.573571 
L 197.902069 111.334828 
L 198.02127 121.50194 
L 198.140472 119.331335 
L 198.378875 109.734459 
L 198.498077 109.539088 
L 198.617279 109.586007 
L 198.73648 109.332117 
L 198.855682 110.037895 
L 199.094085 116.424378 
L 199.332489 110.286304 
L 199.45169 110.184691 
L 199.809295 117.48631 
L 200.405303 107.087139 
L 200.524505 106.669129 
L 200.643707 106.794548 
L 200.762908 107.468083 
L 201.001312 111.819061 
L 201.239715 122.062827 
L 201.478118 112.2903 
L 201.716522 109.830479 
L 201.954925 109.319852 
L 202.074127 109.320058 
L 202.193328 109.907702 
L 202.31253 111.724585 
L 202.431732 115.930952 
L 202.550933 125.000599 
L 202.789337 115.488029 
L 202.908538 115.146534 
L 203.146942 123.833991 
L 203.504547 113.423698 
L 203.981353 108.85107 
L 204.219757 108.12491 
L 204.338958 108.580589 
L 204.577362 111.068364 
L 204.934967 115.532924 
L 205.411773 112.868067 
L 205.650177 110.343471 
L 206.126983 104.041078 
L 206.246185 103.652359 
L 206.365386 103.87484 
L 206.484588 104.917681 
L 206.722991 109.104402 
L 207.080596 104.914072 
L 207.199798 106.246507 
L 207.438201 113.506509 
L 207.915008 103.729453 
L 208.03421 105.10441 
L 208.272613 108.327755 
L 208.511016 104.713598 
L 208.630218 104.657477 
L 208.868621 106.493371 
L 208.987823 115.66728 
L 209.226226 93.802952 
L 209.345428 99.123821 
L 209.703033 69.918352 
L 209.941436 64.373298 
L 210.060638 64.148562 
L 210.17984 65.509436 
L 210.418243 73.917902 
L 210.537445 82.825149 
L 210.656646 105.15903 
L 210.775848 97.346147 
L 211.014251 110.218504 
L 211.133453 104.56319 
L 211.371856 110.753134 
L 211.491058 108.886781 
L 211.61026 111.89968 
L 211.848663 125.170537 
L 211.967865 122.113993 
L 212.206268 127.357752 
L 212.444671 113.99 
L 212.921478 104.514317 
L 213.040679 104.455925 
L 213.159881 105.680163 
L 213.398284 112.204333 
L 213.636688 119.9703 
L 214.113494 106.041063 
L 214.232696 105.445181 
L 214.351898 105.920491 
L 214.590301 109.763105 
L 215.186309 122.464686 
L 215.424713 111.027851 
L 215.543914 110.054031 
L 215.782318 113.579249 
L 215.901519 112.502207 
L 216.139923 108.245285 
L 216.259124 108.543089 
L 216.497528 114.220967 
L 216.616729 113.140342 
L 216.855133 107.113984 
L 216.974334 106.641564 
L 217.212738 108.777906 
L 217.570343 112.059087 
L 217.808746 112.875103 
L 217.927948 112.691014 
L 218.047149 112.815108 
L 218.166351 113.224654 
L 218.285552 113.20405 
L 218.523956 109.758334 
L 218.762359 105.940109 
L 218.881561 105.311376 
L 219.000762 105.682665 
L 219.477569 109.542417 
L 219.596771 109.905755 
L 219.835174 113.365378 
L 220.192779 121.556909 
L 220.431182 119.318795 
L 220.550384 122.804863 
L 220.669586 130.408727 
L 220.907989 112.226699 
L 221.146392 106.692977 
L 221.384796 105.511947 
L 221.503997 105.737742 
L 221.623199 105.685966 
L 221.980804 104.290265 
L 222.100006 104.743339 
L 222.219207 106.05672 
L 222.457611 113.708779 
L 222.576812 125.389403 
L 223.053619 114.614259 
L 223.411224 111.611011 
L 223.530426 111.433482 
L 223.888031 112.022642 
L 224.007232 111.779231 
L 224.484039 108.805361 
L 224.722442 109.813147 
L 225.080047 103.685392 
L 225.199249 103.640104 
L 225.437652 107.608007 
L 225.556854 109.541267 
L 225.914459 106.300632 
L 226.03366 106.513355 
L 226.629669 110.715676 
L 226.868072 114.011951 
L 227.106475 117.629636 
L 227.225677 118.622451 
L 227.344879 118.595184 
L 227.702484 112.41107 
L 228.060089 108.890457 
L 228.17929 110.638843 
L 228.298492 118.780717 
L 228.656097 109.322627 
L 228.775299 104.592078 
L 228.8945 110.134726 
L 229.132904 82.476146 
L 229.371307 73.506441 
L 229.490509 71.934733 
L 229.60971 71.947454 
L 229.728912 73.539339 
L 229.967315 82.452552 
L 230.086517 91.671579 
L 230.205719 115.747414 
L 230.32492 106.687082 
L 230.444122 111.237281 
L 230.563323 127.427596 
L 230.682525 128.073963 
L 230.920928 113.765894 
L 231.159332 116.593351 
L 231.278533 116.344556 
L 231.397735 118.342956 
L 231.516937 116.947313 
L 231.75534 110.630876 
L 231.993743 108.455765 
L 232.112945 109.103655 
L 232.351348 113.963416 
L 232.589752 120.513694 
L 232.828155 130.954876 
L 233.18576 114.727213 
L 233.424163 108.224445 
L 233.543365 108.276504 
L 233.90097 114.725984 
L 234.139373 110.427446 
L 234.258575 110.475825 
L 234.973785 115.539791 
L 235.212188 117.108733 
L 235.808197 110.760126 
L 235.927398 111.711907 
L 236.165802 115.490074 
L 236.404205 109.635797 
L 236.642608 105.435094 
L 236.76181 105.411338 
L 237.000213 109.047052 
L 237.238616 112.828425 
L 237.357818 112.38607 
L 237.715423 106.298283 
L 237.834625 106.530984 
L 238.19223 113.653781 
L 238.311431 113.296855 
L 238.430633 114.548151 
L 238.669036 124.723209 
L 238.90744 117.35166 
L 239.026641 120.812543 
L 239.145843 134.821818 
L 239.384246 121.25225 
L 239.384246 121.25225 
" clip-path="url(#pd86501f3f5)" style="fill: none; stroke: #4477aa; stroke-linecap: square"/>
   </g>
   <g id="patch_3">
    <path d="M 44.012725 152.589249 
L 44.012725 7.059249 
" style="fill: none; stroke: #000000; stroke-width: 0.5; stroke-linejoin: miter; stroke-linecap: square"/>
   </g>
   <g id="patch_4">
    <path d="M 239.312725 152.589249 
L 239.312725 7.059249 
" style="fill: none; stroke: #000000; stroke-width: 0.5; stroke-linejoin: miter; stroke-linecap: square"/>
   </g>
   <g id="patch_5">
    <path d="M 44.012725 152.589249 
L 239.312725 152.589249 
" style="fill: none; stroke: #000000; stroke-width: 0.5; stroke-linejoin: miter; stroke-linecap: square"/>
   </g>
   <g id="patch_6">
    <path d="M 44.012725 7.059249 
L 239.312725 7.059249 
" style="fill: none; stroke: #000000; stroke-width: 0.5; stroke-linejoin: miter; stroke-linecap: square"/>
   </g>
  </g>
 </g>
 <defs>
  <clipPath id="pd86501f3f5">
   <rect x="44.012725" y="7.059249" width="195.3" height="145.53"/>
  </clipPath>
 </defs>
</svg>
