<?xml version="1.0" encoding="utf-8" standalone="no"?>
<!DOCTYPE svg PUBLIC "-//W3C//DTD SVG 1.1//EN"
  "http://www.w3.org/Graphics/SVG/1.1/DTD/svg11.dtd">
<svg xmlns:xlink="http://www.w3.org/1999/xlink" width="250.384728pt" height="186.891106pt" viewBox="0 0 250.384728 186.891106" xmlns="http://www.w3.org/2000/svg" version="1.1">
 <metadata>
  <rdf:RDF xmlns:dc="http://purl.org/dc/elements/1.1/" xmlns:cc="http://creativecommons.org/ns#" xmlns:rdf="http://www.w3.org/1999/02/22-rdf-syntax-ns#">
   <cc:Work>
    <dc:type rdf:resource="http://purl.org/dc/dcmitype/StillImage"/>
    <dc:date>2025-02-25T16:39:19.936235</dc:date>
    <dc:format>image/svg+xml</dc:format>
    <dc:creator>
     <cc:Agent>
      <dc:title>Matplotlib v3.9.2, https://matplotlib.org/</dc:title>
     </cc:Agent>
    </dc:creator>
   </cc:Work>
  </rdf:RDF>
 </metadata>
 <defs>
  <style type="text/css">*{stroke-linejoin: round; stroke-linecap: butt}</style>
 </defs>
 <g id="figure_1">
  <g id="patch_1">
   <path d="M -0 186.891106 
L 250.384728 186.891106 
L 250.384728 0 
L -0 0 
L -0 186.891106 
z
" style="fill: none"/>
  </g>
  <g id="axes_1">
   <g id="patch_2">
    <path d="M 44.012725 152.589249 
L 239.312725 152.589249 
L 239.312725 7.059249 
L 44.012725 7.059249 
L 44.012725 152.589249 
z
" style="fill: none"/>
   </g>
   <g id="matplotlib.axis_1">
    <g id="xtick_1">
     <g id="line2d_1">
      <path d="M 44.012725 152.589249 
L 44.012725 7.059249 
" clip-path="url(#pe939781793)" style="fill: none; stroke-dasharray: 1.85,0.8; stroke-dashoffset: 0; stroke: #000000; stroke-opacity: 0.5; stroke-width: 0.5"/>
     </g>
     <g id="line2d_2">
      <defs>
       <path id="m1d54b44ca9" d="M 0 0 
L 0 -3 
" style="stroke: #000000; stroke-width: 0.5"/>
      </defs>
      <g>
       <use xlink:href="#m1d54b44ca9" x="44.012725" y="152.589249" style="stroke: #000000; stroke-width: 0.5"/>
      </g>
     </g>
     <g id="line2d_3">
      <defs>
       <path id="m1593c71a02" d="M 0 0 
L 0 3 
" style="stroke: #000000; stroke-width: 0.5"/>
      </defs>
      <g>
       <use xlink:href="#m1593c71a02" x="44.012725" y="7.059249" style="stroke: #000000; stroke-width: 0.5"/>
      </g>
     </g>
     <g id="text_1">
      <!-- $\mathdefault{0}$ -->
      <g transform="translate(41.522058 163.007748) scale(0.1 -0.1)">
       <defs>
        <path id="CMR17-30" d="M 2688 2025 
C 2688 2416 2682 3080 2413 3591 
C 2176 4039 1798 4198 1466 4198 
C 1158 4198 768 4058 525 3597 
C 269 3118 243 2524 243 2025 
C 243 1661 250 1106 448 619 
C 723 -39 1216 -128 1466 -128 
C 1760 -128 2208 -7 2470 600 
C 2662 1042 2688 1559 2688 2025 
z
M 1466 -26 
C 1056 -26 813 325 723 812 
C 653 1188 653 1738 653 2096 
C 653 2588 653 2997 736 3387 
C 858 3929 1216 4096 1466 4096 
C 1728 4096 2067 3923 2189 3400 
C 2272 3036 2278 2607 2278 2096 
C 2278 1680 2278 1169 2202 792 
C 2067 95 1690 -26 1466 -26 
z
" transform="scale(0.015625)"/>
       </defs>
       <use xlink:href="#CMR17-30" transform="scale(0.996264)"/>
      </g>
     </g>
    </g>
    <g id="xtick_2">
     <g id="line2d_4">
      <path d="M 83.072725 152.589249 
L 83.072725 7.059249 
" clip-path="url(#pe939781793)" style="fill: none; stroke-dasharray: 1.85,0.8; stroke-dashoffset: 0; stroke: #000000; stroke-opacity: 0.5; stroke-width: 0.5"/>
     </g>
     <g id="line2d_5">
      <g>
       <use xlink:href="#m1d54b44ca9" x="83.072725" y="152.589249" style="stroke: #000000; stroke-width: 0.5"/>
      </g>
     </g>
     <g id="line2d_6">
      <g>
       <use xlink:href="#m1593c71a02" x="83.072725" y="7.059249" style="stroke: #000000; stroke-width: 0.5"/>
      </g>
     </g>
     <g id="text_2">
      <!-- $\mathdefault{100}$ -->
      <g transform="translate(75.600722 163.007748) scale(0.1 -0.1)">
       <defs>
        <path id="CMR17-31" d="M 1702 4058 
C 1702 4192 1696 4192 1606 4192 
C 1357 3916 979 3827 621 3827 
C 602 3827 570 3827 563 3808 
C 557 3795 557 3782 557 3648 
C 755 3648 1088 3686 1344 3839 
L 1344 461 
C 1344 236 1331 160 781 160 
L 589 160 
L 589 0 
C 896 0 1216 0 1523 0 
C 1830 0 2150 0 2458 0 
L 2458 160 
L 2266 160 
C 1715 160 1702 230 1702 458 
L 1702 4058 
z
" transform="scale(0.015625)"/>
       </defs>
       <use xlink:href="#CMR17-31" transform="scale(0.996264)"/>
       <use xlink:href="#CMR17-30" transform="translate(45.690477 0) scale(0.996264)"/>
       <use xlink:href="#CMR17-30" transform="translate(91.380954 0) scale(0.996264)"/>
      </g>
     </g>
    </g>
    <g id="xtick_3">
     <g id="line2d_7">
      <path d="M 122.132725 152.589249 
L 122.132725 7.059249 
" clip-path="url(#pe939781793)" style="fill: none; stroke-dasharray: 1.85,0.8; stroke-dashoffset: 0; stroke: #000000; stroke-opacity: 0.5; stroke-width: 0.5"/>
     </g>
     <g id="line2d_8">
      <g>
       <use xlink:href="#m1d54b44ca9" x="122.132725" y="152.589249" style="stroke: #000000; stroke-width: 0.5"/>
      </g>
     </g>
     <g id="line2d_9">
      <g>
       <use xlink:href="#m1593c71a02" x="122.132725" y="7.059249" style="stroke: #000000; stroke-width: 0.5"/>
      </g>
     </g>
     <g id="text_3">
      <!-- $\mathdefault{200}$ -->
      <g transform="translate(114.660722 163.007748) scale(0.1 -0.1)">
       <defs>
        <path id="CMR17-32" d="M 2669 989 
L 2554 989 
C 2490 536 2438 459 2413 420 
C 2381 369 1920 369 1830 369 
L 602 369 
C 832 619 1280 1072 1824 1597 
C 2214 1967 2669 2402 2669 3035 
C 2669 3790 2067 4224 1395 4224 
C 691 4224 262 3604 262 3030 
C 262 2780 448 2748 525 2748 
C 589 2748 781 2787 781 3010 
C 781 3207 614 3264 525 3264 
C 486 3264 448 3258 422 3245 
C 544 3790 915 4058 1306 4058 
C 1862 4058 2227 3617 2227 3035 
C 2227 2479 1901 2000 1536 1584 
L 262 146 
L 262 0 
L 2515 0 
L 2669 989 
z
" transform="scale(0.015625)"/>
       </defs>
       <use xlink:href="#CMR17-32" transform="scale(0.996264)"/>
       <use xlink:href="#CMR17-30" transform="translate(45.690477 0) scale(0.996264)"/>
       <use xlink:href="#CMR17-30" transform="translate(91.380954 0) scale(0.996264)"/>
      </g>
     </g>
    </g>
    <g id="xtick_4">
     <g id="line2d_10">
      <path d="M 161.192725 152.589249 
L 161.192725 7.059249 
" clip-path="url(#pe939781793)" style="fill: none; stroke-dasharray: 1.85,0.8; stroke-dashoffset: 0; stroke: #000000; stroke-opacity: 0.5; stroke-width: 0.5"/>
     </g>
     <g id="line2d_11">
      <g>
       <use xlink:href="#m1d54b44ca9" x="161.192725" y="152.589249" style="stroke: #000000; stroke-width: 0.5"/>
      </g>
     </g>
     <g id="line2d_12">
      <g>
       <use xlink:href="#m1593c71a02" x="161.192725" y="7.059249" style="stroke: #000000; stroke-width: 0.5"/>
      </g>
     </g>
     <g id="text_4">
      <!-- $\mathdefault{300}$ -->
      <g transform="translate(153.720722 163.007748) scale(0.1 -0.1)">
       <defs>
        <path id="CMR17-33" d="M 1414 2157 
C 1984 2157 2234 1662 2234 1090 
C 2234 320 1824 25 1453 25 
C 1114 25 563 194 390 693 
C 422 680 454 680 486 680 
C 640 680 755 782 755 948 
C 755 1133 614 1216 486 1216 
C 378 1216 211 1165 211 926 
C 211 335 787 -128 1466 -128 
C 2176 -128 2720 430 2720 1085 
C 2720 1707 2208 2157 1600 2227 
C 2086 2328 2554 2756 2554 3329 
C 2554 3820 2048 4179 1472 4179 
C 890 4179 378 3829 378 3329 
C 378 3110 544 3072 627 3072 
C 762 3072 877 3155 877 3321 
C 877 3486 762 3569 627 3569 
C 602 3569 570 3569 544 3557 
C 730 3959 1235 4032 1459 4032 
C 1683 4032 2106 3925 2106 3320 
C 2106 3143 2080 2828 1862 2550 
C 1670 2304 1453 2304 1242 2284 
C 1210 2284 1062 2269 1037 2269 
C 992 2263 966 2257 966 2208 
C 966 2163 973 2157 1101 2157 
L 1414 2157 
z
" transform="scale(0.015625)"/>
       </defs>
       <use xlink:href="#CMR17-33" transform="scale(0.996264)"/>
       <use xlink:href="#CMR17-30" transform="translate(45.690477 0) scale(0.996264)"/>
       <use xlink:href="#CMR17-30" transform="translate(91.380954 0) scale(0.996264)"/>
      </g>
     </g>
    </g>
    <g id="xtick_5">
     <g id="line2d_13">
      <path d="M 200.252725 152.589249 
L 200.252725 7.059249 
" clip-path="url(#pe939781793)" style="fill: none; stroke-dasharray: 1.85,0.8; stroke-dashoffset: 0; stroke: #000000; stroke-opacity: 0.5; stroke-width: 0.5"/>
     </g>
     <g id="line2d_14">
      <g>
       <use xlink:href="#m1d54b44ca9" x="200.252725" y="152.589249" style="stroke: #000000; stroke-width: 0.5"/>
      </g>
     </g>
     <g id="line2d_15">
      <g>
       <use xlink:href="#m1593c71a02" x="200.252725" y="7.059249" style="stroke: #000000; stroke-width: 0.5"/>
      </g>
     </g>
     <g id="text_5">
      <!-- $\mathdefault{400}$ -->
      <g transform="translate(192.780722 163.007748) scale(0.1 -0.1)">
       <defs>
        <path id="CMR17-34" d="M 2150 4122 
C 2150 4256 2144 4256 2029 4256 
L 128 1254 
L 128 1088 
L 1779 1088 
L 1779 457 
C 1779 224 1766 160 1318 160 
L 1197 160 
L 1197 0 
C 1402 0 1747 0 1965 0 
C 2182 0 2528 0 2733 0 
L 2733 160 
L 2611 160 
C 2163 160 2150 224 2150 457 
L 2150 1088 
L 2803 1088 
L 2803 1254 
L 2150 1254 
L 2150 4122 
z
M 1798 3703 
L 1798 1254 
L 256 1254 
L 1798 3703 
z
" transform="scale(0.015625)"/>
       </defs>
       <use xlink:href="#CMR17-34" transform="scale(0.996264)"/>
       <use xlink:href="#CMR17-30" transform="translate(45.690477 0) scale(0.996264)"/>
       <use xlink:href="#CMR17-30" transform="translate(91.380954 0) scale(0.996264)"/>
      </g>
     </g>
    </g>
    <g id="xtick_6">
     <g id="line2d_16">
      <path d="M 239.312725 152.589249 
L 239.312725 7.059249 
" clip-path="url(#pe939781793)" style="fill: none; stroke-dasharray: 1.85,0.8; stroke-dashoffset: 0; stroke: #000000; stroke-opacity: 0.5; stroke-width: 0.5"/>
     </g>
     <g id="line2d_17">
      <g>
       <use xlink:href="#m1d54b44ca9" x="239.312725" y="152.589249" style="stroke: #000000; stroke-width: 0.5"/>
      </g>
     </g>
     <g id="line2d_18">
      <g>
       <use xlink:href="#m1593c71a02" x="239.312725" y="7.059249" style="stroke: #000000; stroke-width: 0.5"/>
      </g>
     </g>
     <g id="text_6">
      <!-- $\mathdefault{500}$ -->
      <g transform="translate(231.840722 163.007748) scale(0.1 -0.1)">
       <defs>
        <path id="CMR17-35" d="M 730 3692 
C 794 3666 1056 3584 1325 3584 
C 1920 3584 2246 3911 2432 4100 
C 2432 4157 2432 4192 2394 4192 
C 2387 4192 2374 4192 2323 4163 
C 2099 4058 1837 3973 1517 3973 
C 1325 3973 1037 3999 723 4139 
C 653 4171 640 4171 634 4171 
C 602 4171 595 4164 595 4037 
L 595 2203 
C 595 2089 595 2057 659 2057 
C 691 2057 704 2070 736 2114 
C 941 2401 1222 2522 1542 2522 
C 1766 2522 2246 2382 2246 1289 
C 2246 1085 2246 715 2054 421 
C 1894 159 1645 25 1370 25 
C 947 25 518 320 403 814 
C 429 807 480 795 506 795 
C 589 795 749 840 749 1038 
C 749 1210 627 1280 506 1280 
C 358 1280 262 1190 262 1011 
C 262 454 704 -128 1382 -128 
C 2042 -128 2669 440 2669 1264 
C 2669 2030 2170 2624 1549 2624 
C 1222 2624 947 2503 730 2274 
L 730 3692 
z
" transform="scale(0.015625)"/>
       </defs>
       <use xlink:href="#CMR17-35" transform="scale(0.996264)"/>
       <use xlink:href="#CMR17-30" transform="translate(45.690477 0) scale(0.996264)"/>
       <use xlink:href="#CMR17-30" transform="translate(91.380954 0) scale(0.996264)"/>
      </g>
     </g>
    </g>
    <g id="xtick_7">
     <g id="line2d_19">
      <defs>
       <path id="mf8dfeb501f" d="M 0 0 
L 0 -1.5 
" style="stroke: #000000; stroke-width: 0.5"/>
      </defs>
      <g>
       <use xlink:href="#mf8dfeb501f" x="51.824725" y="152.589249" style="stroke: #000000; stroke-width: 0.5"/>
      </g>
     </g>
     <g id="line2d_20">
      <defs>
       <path id="mcf15ea4fdb" d="M 0 0 
L 0 1.5 
" style="stroke: #000000; stroke-width: 0.5"/>
      </defs>
      <g>
       <use xlink:href="#mcf15ea4fdb" x="51.824725" y="7.059249" style="stroke: #000000; stroke-width: 0.5"/>
      </g>
     </g>
    </g>
    <g id="xtick_8">
     <g id="line2d_21">
      <g>
       <use xlink:href="#mf8dfeb501f" x="59.636725" y="152.589249" style="stroke: #000000; stroke-width: 0.5"/>
      </g>
     </g>
     <g id="line2d_22">
      <g>
       <use xlink:href="#mcf15ea4fdb" x="59.636725" y="7.059249" style="stroke: #000000; stroke-width: 0.5"/>
      </g>
     </g>
    </g>
    <g id="xtick_9">
     <g id="line2d_23">
      <g>
       <use xlink:href="#mf8dfeb501f" x="67.448725" y="152.589249" style="stroke: #000000; stroke-width: 0.5"/>
      </g>
     </g>
     <g id="line2d_24">
      <g>
       <use xlink:href="#mcf15ea4fdb" x="67.448725" y="7.059249" style="stroke: #000000; stroke-width: 0.5"/>
      </g>
     </g>
    </g>
    <g id="xtick_10">
     <g id="line2d_25">
      <g>
       <use xlink:href="#mf8dfeb501f" x="75.260725" y="152.589249" style="stroke: #000000; stroke-width: 0.5"/>
      </g>
     </g>
     <g id="line2d_26">
      <g>
       <use xlink:href="#mcf15ea4fdb" x="75.260725" y="7.059249" style="stroke: #000000; stroke-width: 0.5"/>
      </g>
     </g>
    </g>
    <g id="xtick_11">
     <g id="line2d_27">
      <g>
       <use xlink:href="#mf8dfeb501f" x="90.884725" y="152.589249" style="stroke: #000000; stroke-width: 0.5"/>
      </g>
     </g>
     <g id="line2d_28">
      <g>
       <use xlink:href="#mcf15ea4fdb" x="90.884725" y="7.059249" style="stroke: #000000; stroke-width: 0.5"/>
      </g>
     </g>
    </g>
    <g id="xtick_12">
     <g id="line2d_29">
      <g>
       <use xlink:href="#mf8dfeb501f" x="98.696725" y="152.589249" style="stroke: #000000; stroke-width: 0.5"/>
      </g>
     </g>
     <g id="line2d_30">
      <g>
       <use xlink:href="#mcf15ea4fdb" x="98.696725" y="7.059249" style="stroke: #000000; stroke-width: 0.5"/>
      </g>
     </g>
    </g>
    <g id="xtick_13">
     <g id="line2d_31">
      <g>
       <use xlink:href="#mf8dfeb501f" x="106.508725" y="152.589249" style="stroke: #000000; stroke-width: 0.5"/>
      </g>
     </g>
     <g id="line2d_32">
      <g>
       <use xlink:href="#mcf15ea4fdb" x="106.508725" y="7.059249" style="stroke: #000000; stroke-width: 0.5"/>
      </g>
     </g>
    </g>
    <g id="xtick_14">
     <g id="line2d_33">
      <g>
       <use xlink:href="#mf8dfeb501f" x="114.320725" y="152.589249" style="stroke: #000000; stroke-width: 0.5"/>
      </g>
     </g>
     <g id="line2d_34">
      <g>
       <use xlink:href="#mcf15ea4fdb" x="114.320725" y="7.059249" style="stroke: #000000; stroke-width: 0.5"/>
      </g>
     </g>
    </g>
    <g id="xtick_15">
     <g id="line2d_35">
      <g>
       <use xlink:href="#mf8dfeb501f" x="129.944725" y="152.589249" style="stroke: #000000; stroke-width: 0.5"/>
      </g>
     </g>
     <g id="line2d_36">
      <g>
       <use xlink:href="#mcf15ea4fdb" x="129.944725" y="7.059249" style="stroke: #000000; stroke-width: 0.5"/>
      </g>
     </g>
    </g>
    <g id="xtick_16">
     <g id="line2d_37">
      <g>
       <use xlink:href="#mf8dfeb501f" x="137.756725" y="152.589249" style="stroke: #000000; stroke-width: 0.5"/>
      </g>
     </g>
     <g id="line2d_38">
      <g>
       <use xlink:href="#mcf15ea4fdb" x="137.756725" y="7.059249" style="stroke: #000000; stroke-width: 0.5"/>
      </g>
     </g>
    </g>
    <g id="xtick_17">
     <g id="line2d_39">
      <g>
       <use xlink:href="#mf8dfeb501f" x="145.568725" y="152.589249" style="stroke: #000000; stroke-width: 0.5"/>
      </g>
     </g>
     <g id="line2d_40">
      <g>
       <use xlink:href="#mcf15ea4fdb" x="145.568725" y="7.059249" style="stroke: #000000; stroke-width: 0.5"/>
      </g>
     </g>
    </g>
    <g id="xtick_18">
     <g id="line2d_41">
      <g>
       <use xlink:href="#mf8dfeb501f" x="153.380725" y="152.589249" style="stroke: #000000; stroke-width: 0.5"/>
      </g>
     </g>
     <g id="line2d_42">
      <g>
       <use xlink:href="#mcf15ea4fdb" x="153.380725" y="7.059249" style="stroke: #000000; stroke-width: 0.5"/>
      </g>
     </g>
    </g>
    <g id="xtick_19">
     <g id="line2d_43">
      <g>
       <use xlink:href="#mf8dfeb501f" x="169.004725" y="152.589249" style="stroke: #000000; stroke-width: 0.5"/>
      </g>
     </g>
     <g id="line2d_44">
      <g>
       <use xlink:href="#mcf15ea4fdb" x="169.004725" y="7.059249" style="stroke: #000000; stroke-width: 0.5"/>
      </g>
     </g>
    </g>
    <g id="xtick_20">
     <g id="line2d_45">
      <g>
       <use xlink:href="#mf8dfeb501f" x="176.816725" y="152.589249" style="stroke: #000000; stroke-width: 0.5"/>
      </g>
     </g>
     <g id="line2d_46">
      <g>
       <use xlink:href="#mcf15ea4fdb" x="176.816725" y="7.059249" style="stroke: #000000; stroke-width: 0.5"/>
      </g>
     </g>
    </g>
    <g id="xtick_21">
     <g id="line2d_47">
      <g>
       <use xlink:href="#mf8dfeb501f" x="184.628725" y="152.589249" style="stroke: #000000; stroke-width: 0.5"/>
      </g>
     </g>
     <g id="line2d_48">
      <g>
       <use xlink:href="#mcf15ea4fdb" x="184.628725" y="7.059249" style="stroke: #000000; stroke-width: 0.5"/>
      </g>
     </g>
    </g>
    <g id="xtick_22">
     <g id="line2d_49">
      <g>
       <use xlink:href="#mf8dfeb501f" x="192.440725" y="152.589249" style="stroke: #000000; stroke-width: 0.5"/>
      </g>
     </g>
     <g id="line2d_50">
      <g>
       <use xlink:href="#mcf15ea4fdb" x="192.440725" y="7.059249" style="stroke: #000000; stroke-width: 0.5"/>
      </g>
     </g>
    </g>
    <g id="xtick_23">
     <g id="line2d_51">
      <g>
       <use xlink:href="#mf8dfeb501f" x="208.064725" y="152.589249" style="stroke: #000000; stroke-width: 0.5"/>
      </g>
     </g>
     <g id="line2d_52">
      <g>
       <use xlink:href="#mcf15ea4fdb" x="208.064725" y="7.059249" style="stroke: #000000; stroke-width: 0.5"/>
      </g>
     </g>
    </g>
    <g id="xtick_24">
     <g id="line2d_53">
      <g>
       <use xlink:href="#mf8dfeb501f" x="215.876725" y="152.589249" style="stroke: #000000; stroke-width: 0.5"/>
      </g>
     </g>
     <g id="line2d_54">
      <g>
       <use xlink:href="#mcf15ea4fdb" x="215.876725" y="7.059249" style="stroke: #000000; stroke-width: 0.5"/>
      </g>
     </g>
    </g>
    <g id="xtick_25">
     <g id="line2d_55">
      <g>
       <use xlink:href="#mf8dfeb501f" x="223.688725" y="152.589249" style="stroke: #000000; stroke-width: 0.5"/>
      </g>
     </g>
     <g id="line2d_56">
      <g>
       <use xlink:href="#mcf15ea4fdb" x="223.688725" y="7.059249" style="stroke: #000000; stroke-width: 0.5"/>
      </g>
     </g>
    </g>
    <g id="xtick_26">
     <g id="line2d_57">
      <g>
       <use xlink:href="#mf8dfeb501f" x="231.500725" y="152.589249" style="stroke: #000000; stroke-width: 0.5"/>
      </g>
     </g>
     <g id="line2d_58">
      <g>
       <use xlink:href="#mcf15ea4fdb" x="231.500725" y="7.059249" style="stroke: #000000; stroke-width: 0.5"/>
      </g>
     </g>
    </g>
    <g id="text_7">
     <!-- $f$ [MHz] -->
     <g transform="translate(116.369118 179.704565) scale(0.144 -0.144)">
      <defs>
       <path id="CMMI12-66" d="M 2854 2566 
C 2982 2566 3034 2566 3034 2688 
C 3034 2752 2982 2752 2867 2752 
L 2349 2752 
C 2470 3429 2560 3897 2611 4107 
C 2650 4265 2784 4416 2950 4416 
C 3085 4416 3219 4358 3283 4298 
C 3034 4272 2957 4082 2957 3969 
C 2957 3837 3053 3759 3174 3759 
C 3302 3759 3494 3870 3494 4119 
C 3494 4393 3226 4544 2944 4544 
C 2669 4544 2400 4334 2272 4078 
C 2157 3848 2093 3611 1946 2752 
L 1517 2752 
C 1395 2752 1331 2752 1331 2637 
C 1331 2566 1370 2566 1498 2566 
L 1907 2566 
C 1792 1976 1530 542 1382 -137 
C 1274 -689 1178 -1152 858 -1152 
C 838 -1152 653 -1152 538 -1031 
C 864 -1005 864 -726 864 -720 
C 864 -593 768 -517 646 -517 
C 518 -517 326 -625 326 -867 
C 326 -1140 608 -1280 858 -1280 
C 1510 -1280 1779 -118 1850 199 
C 1965 688 2278 2376 2310 2566 
L 2854 2566 
z
" transform="scale(0.015625)"/>
       <path id="CMR17-5b" d="M 1504 -1600 
L 1504 -1377 
L 902 -1377 
L 902 4544 
L 1504 4544 
L 1504 4767 
L 678 4767 
L 678 -1600 
L 1504 -1600 
z
" transform="scale(0.015625)"/>
       <path id="CMR17-4d" d="M 1338 4224 
C 1299 4320 1293 4320 1158 4320 
L 339 4320 
L 339 4160 
C 781 4160 851 4160 851 3875 
L 851 610 
C 851 451 851 153 339 153 
L 339 -13 
C 486 0 755 0 915 0 
C 1075 0 1344 0 1491 -13 
L 1491 153 
C 979 153 979 451 979 610 
L 979 4135 
L 986 4135 
L 2490 89 
C 2515 25 2528 -13 2579 -13 
C 2630 -13 2643 25 2669 89 
L 4186 4166 
L 4192 4166 
L 4192 438 
C 4192 153 4122 153 3680 153 
L 3680 -13 
C 3853 0 4198 0 4384 0 
C 4570 0 4922 0 5094 -13 
L 5094 153 
C 4653 153 4582 153 4582 438 
L 4582 3875 
C 4582 4160 4653 4160 5094 4160 
L 5094 4320 
L 4282 4320 
C 4147 4320 4141 4314 4102 4218 
L 2720 502 
L 1338 4224 
z
" transform="scale(0.015625)"/>
       <path id="CMR17-48" d="M 3590 3905 
C 3590 4192 3661 4192 4102 4192 
L 4102 4352 
C 3917 4352 3578 4352 3379 4352 
C 3181 4352 2842 4352 2656 4352 
L 2656 4192 
C 3098 4192 3168 4192 3168 3904 
L 3168 2341 
L 1261 2341 
L 1261 3904 
C 1261 4192 1331 4192 1773 4192 
L 1773 4352 
C 1587 4352 1248 4352 1050 4352 
C 851 4352 512 4352 326 4352 
L 326 4192 
C 768 4192 838 4192 838 3905 
L 838 447 
C 838 160 768 160 326 160 
L 326 0 
C 512 0 851 0 1050 0 
C 1248 0 1587 0 1773 0 
L 1773 160 
C 1331 160 1261 160 1261 446 
L 1261 2176 
L 3168 2176 
L 3168 446 
C 3168 160 3098 160 2656 160 
L 2656 0 
C 2842 0 3181 0 3379 0 
C 3578 0 3917 0 4102 0 
L 4102 160 
C 3661 160 3590 160 3590 447 
L 3590 3905 
z
" transform="scale(0.015625)"/>
       <path id="CMR17-7a" d="M 2310 2605 
C 2362 2670 2362 2682 2362 2695 
C 2362 2752 2336 2752 2221 2752 
L 275 2752 
L 211 1760 
L 326 1760 
C 371 2381 442 2650 1178 2650 
L 1958 2650 
L 128 96 
C 128 0 134 0 269 0 
L 2291 0 
L 2381 1152 
L 2266 1152 
C 2214 442 2131 115 1350 115 
L 531 115 
L 2310 2605 
z
" transform="scale(0.015625)"/>
       <path id="CMR17-5d" d="M 915 4767 
L 90 4767 
L 90 4544 
L 691 4544 
L 691 -1377 
L 90 -1377 
L 90 -1600 
L 915 -1600 
L 915 4767 
z
" transform="scale(0.015625)"/>
      </defs>
      <use xlink:href="#CMMI12-66" transform="scale(0.996264)"/>
      <use xlink:href="#CMR17-5b" transform="translate(88.796271 0) scale(0.996264)"/>
      <use xlink:href="#CMR17-4d" transform="translate(113.66733 0) scale(0.996264)"/>
      <use xlink:href="#CMR17-48" transform="translate(198.35427 0) scale(0.996264)"/>
      <use xlink:href="#CMR17-7a" transform="translate(267.4267 0) scale(0.996264)"/>
      <use xlink:href="#CMR17-5d" transform="translate(307.912361 0) scale(0.996264)"/>
     </g>
    </g>
   </g>
   <g id="matplotlib.axis_2">
    <g id="ytick_1">
     <g id="line2d_59">
      <path d="M 44.012725 152.589249 
L 239.312725 152.589249 
" clip-path="url(#pe939781793)" style="fill: none; stroke-dasharray: 1.85,0.8; stroke-dashoffset: 0; stroke: #000000; stroke-opacity: 0.5; stroke-width: 0.5"/>
     </g>
     <g id="line2d_60">
      <defs>
       <path id="mc7c702a145" d="M 0 0 
L 3 0 
" style="stroke: #000000; stroke-width: 0.5"/>
      </defs>
      <g>
       <use xlink:href="#mc7c702a145" x="44.012725" y="152.589249" style="stroke: #000000; stroke-width: 0.5"/>
      </g>
     </g>
     <g id="line2d_61">
      <defs>
       <path id="m00a3ff3467" d="M 0 0 
L -3 0 
" style="stroke: #000000; stroke-width: 0.5"/>
      </defs>
      <g>
       <use xlink:href="#m00a3ff3467" x="239.312725" y="152.589249" style="stroke: #000000; stroke-width: 0.5"/>
      </g>
     </g>
     <g id="text_8">
      <!-- $\mathdefault{10^{-3}}$ -->
      <g transform="translate(20.352152 156.048498) scale(0.1 -0.1)">
       <defs>
        <path id="CMSY10-0" d="M 4218 1472 
C 4326 1472 4442 1472 4442 1600 
C 4442 1728 4326 1728 4218 1728 
L 755 1728 
C 646 1728 531 1728 531 1600 
C 531 1472 646 1472 755 1472 
L 4218 1472 
z
" transform="scale(0.015625)"/>
       </defs>
       <use xlink:href="#CMR17-31" transform="scale(0.996264)"/>
       <use xlink:href="#CMR17-30" transform="translate(45.690477 0) scale(0.996264)"/>
       <use xlink:href="#CMSY10-0" transform="translate(91.380954 36.153639) scale(0.697382)"/>
       <use xlink:href="#CMR17-33" transform="translate(145.621947 36.153639) scale(0.697382)"/>
      </g>
     </g>
    </g>
    <g id="ytick_2">
     <g id="line2d_62">
      <path d="M 44.012725 131.799249 
L 239.312725 131.799249 
" clip-path="url(#pe939781793)" style="fill: none; stroke-dasharray: 1.85,0.8; stroke-dashoffset: 0; stroke: #000000; stroke-opacity: 0.5; stroke-width: 0.5"/>
     </g>
     <g id="line2d_63">
      <g>
       <use xlink:href="#mc7c702a145" x="44.012725" y="131.799249" style="stroke: #000000; stroke-width: 0.5"/>
      </g>
     </g>
     <g id="line2d_64">
      <g>
       <use xlink:href="#m00a3ff3467" x="239.312725" y="131.799249" style="stroke: #000000; stroke-width: 0.5"/>
      </g>
     </g>
     <g id="text_9">
      <!-- $\mathdefault{10^{-2}}$ -->
      <g transform="translate(20.352152 135.258498) scale(0.1 -0.1)">
       <use xlink:href="#CMR17-31" transform="scale(0.996264)"/>
       <use xlink:href="#CMR17-30" transform="translate(45.690477 0) scale(0.996264)"/>
       <use xlink:href="#CMSY10-0" transform="translate(91.380954 36.153639) scale(0.697382)"/>
       <use xlink:href="#CMR17-32" transform="translate(145.621947 36.153639) scale(0.697382)"/>
      </g>
     </g>
    </g>
    <g id="ytick_3">
     <g id="line2d_65">
      <path d="M 44.012725 111.009249 
L 239.312725 111.009249 
" clip-path="url(#pe939781793)" style="fill: none; stroke-dasharray: 1.85,0.8; stroke-dashoffset: 0; stroke: #000000; stroke-opacity: 0.5; stroke-width: 0.5"/>
     </g>
     <g id="line2d_66">
      <g>
       <use xlink:href="#mc7c702a145" x="44.012725" y="111.009249" style="stroke: #000000; stroke-width: 0.5"/>
      </g>
     </g>
     <g id="line2d_67">
      <g>
       <use xlink:href="#m00a3ff3467" x="239.312725" y="111.009249" style="stroke: #000000; stroke-width: 0.5"/>
      </g>
     </g>
     <g id="text_10">
      <!-- $\mathdefault{10^{-1}}$ -->
      <g transform="translate(20.352152 114.468498) scale(0.1 -0.1)">
       <use xlink:href="#CMR17-31" transform="scale(0.996264)"/>
       <use xlink:href="#CMR17-30" transform="translate(45.690477 0) scale(0.996264)"/>
       <use xlink:href="#CMSY10-0" transform="translate(91.380954 36.153639) scale(0.697382)"/>
       <use xlink:href="#CMR17-31" transform="translate(145.621947 36.153639) scale(0.697382)"/>
      </g>
     </g>
    </g>
    <g id="ytick_4">
     <g id="line2d_68">
      <path d="M 44.012725 90.219249 
L 239.312725 90.219249 
" clip-path="url(#pe939781793)" style="fill: none; stroke-dasharray: 1.85,0.8; stroke-dashoffset: 0; stroke: #000000; stroke-opacity: 0.5; stroke-width: 0.5"/>
     </g>
     <g id="line2d_69">
      <g>
       <use xlink:href="#mc7c702a145" x="44.012725" y="90.219249" style="stroke: #000000; stroke-width: 0.5"/>
      </g>
     </g>
     <g id="line2d_70">
      <g>
       <use xlink:href="#m00a3ff3467" x="239.312725" y="90.219249" style="stroke: #000000; stroke-width: 0.5"/>
      </g>
     </g>
     <g id="text_11">
      <!-- $\mathdefault{10^{0}}$ -->
      <g transform="translate(26.578817 93.678498) scale(0.1 -0.1)">
       <use xlink:href="#CMR17-31" transform="scale(0.996264)"/>
       <use xlink:href="#CMR17-30" transform="translate(45.690477 0) scale(0.996264)"/>
       <use xlink:href="#CMR17-30" transform="translate(91.380954 36.153639) scale(0.697382)"/>
      </g>
     </g>
    </g>
    <g id="ytick_5">
     <g id="line2d_71">
      <path d="M 44.012725 69.429249 
L 239.312725 69.429249 
" clip-path="url(#pe939781793)" style="fill: none; stroke-dasharray: 1.85,0.8; stroke-dashoffset: 0; stroke: #000000; stroke-opacity: 0.5; stroke-width: 0.5"/>
     </g>
     <g id="line2d_72">
      <g>
       <use xlink:href="#mc7c702a145" x="44.012725" y="69.429249" style="stroke: #000000; stroke-width: 0.5"/>
      </g>
     </g>
     <g id="line2d_73">
      <g>
       <use xlink:href="#m00a3ff3467" x="239.312725" y="69.429249" style="stroke: #000000; stroke-width: 0.5"/>
      </g>
     </g>
     <g id="text_12">
      <!-- $\mathdefault{10^{1}}$ -->
      <g transform="translate(26.578817 72.888498) scale(0.1 -0.1)">
       <use xlink:href="#CMR17-31" transform="scale(0.996264)"/>
       <use xlink:href="#CMR17-30" transform="translate(45.690477 0) scale(0.996264)"/>
       <use xlink:href="#CMR17-31" transform="translate(91.380954 36.153639) scale(0.697382)"/>
      </g>
     </g>
    </g>
    <g id="ytick_6">
     <g id="line2d_74">
      <path d="M 44.012725 48.639249 
L 239.312725 48.639249 
" clip-path="url(#pe939781793)" style="fill: none; stroke-dasharray: 1.85,0.8; stroke-dashoffset: 0; stroke: #000000; stroke-opacity: 0.5; stroke-width: 0.5"/>
     </g>
     <g id="line2d_75">
      <g>
       <use xlink:href="#mc7c702a145" x="44.012725" y="48.639249" style="stroke: #000000; stroke-width: 0.5"/>
      </g>
     </g>
     <g id="line2d_76">
      <g>
       <use xlink:href="#m00a3ff3467" x="239.312725" y="48.639249" style="stroke: #000000; stroke-width: 0.5"/>
      </g>
     </g>
     <g id="text_13">
      <!-- $\mathdefault{10^{2}}$ -->
      <g transform="translate(26.578817 52.098498) scale(0.1 -0.1)">
       <use xlink:href="#CMR17-31" transform="scale(0.996264)"/>
       <use xlink:href="#CMR17-30" transform="translate(45.690477 0) scale(0.996264)"/>
       <use xlink:href="#CMR17-32" transform="translate(91.380954 36.153639) scale(0.697382)"/>
      </g>
     </g>
    </g>
    <g id="ytick_7">
     <g id="line2d_77">
      <path d="M 44.012725 27.849249 
L 239.312725 27.849249 
" clip-path="url(#pe939781793)" style="fill: none; stroke-dasharray: 1.85,0.8; stroke-dashoffset: 0; stroke: #000000; stroke-opacity: 0.5; stroke-width: 0.5"/>
     </g>
     <g id="line2d_78">
      <g>
       <use xlink:href="#mc7c702a145" x="44.012725" y="27.849249" style="stroke: #000000; stroke-width: 0.5"/>
      </g>
     </g>
     <g id="line2d_79">
      <g>
       <use xlink:href="#m00a3ff3467" x="239.312725" y="27.849249" style="stroke: #000000; stroke-width: 0.5"/>
      </g>
     </g>
     <g id="text_14">
      <!-- $\mathdefault{10^{3}}$ -->
      <g transform="translate(26.578817 31.308498) scale(0.1 -0.1)">
       <use xlink:href="#CMR17-31" transform="scale(0.996264)"/>
       <use xlink:href="#CMR17-30" transform="translate(45.690477 0) scale(0.996264)"/>
       <use xlink:href="#CMR17-33" transform="translate(91.380954 36.153639) scale(0.697382)"/>
      </g>
     </g>
    </g>
    <g id="ytick_8">
     <g id="line2d_80">
      <path d="M 44.012725 7.059249 
L 239.312725 7.059249 
" clip-path="url(#pe939781793)" style="fill: none; stroke-dasharray: 1.85,0.8; stroke-dashoffset: 0; stroke: #000000; stroke-opacity: 0.5; stroke-width: 0.5"/>
     </g>
     <g id="line2d_81">
      <g>
       <use xlink:href="#mc7c702a145" x="44.012725" y="7.059249" style="stroke: #000000; stroke-width: 0.5"/>
      </g>
     </g>
     <g id="line2d_82">
      <g>
       <use xlink:href="#m00a3ff3467" x="239.312725" y="7.059249" style="stroke: #000000; stroke-width: 0.5"/>
      </g>
     </g>
     <g id="text_15">
      <!-- $\mathdefault{10^{4}}$ -->
      <g transform="translate(26.578817 10.518498) scale(0.1 -0.1)">
       <use xlink:href="#CMR17-31" transform="scale(0.996264)"/>
       <use xlink:href="#CMR17-30" transform="translate(45.690477 0) scale(0.996264)"/>
       <use xlink:href="#CMR17-34" transform="translate(91.380954 36.153639) scale(0.697382)"/>
      </g>
     </g>
    </g>
    <g id="ytick_9">
     <g id="line2d_83">
      <defs>
       <path id="m20413c128e" d="M 0 0 
L 1.5 0 
" style="stroke: #000000; stroke-width: 0.5"/>
      </defs>
      <g>
       <use xlink:href="#m20413c128e" x="44.012725" y="146.330836" style="stroke: #000000; stroke-width: 0.5"/>
      </g>
     </g>
     <g id="line2d_84">
      <defs>
       <path id="m93076f48f0" d="M 0 0 
L -1.5 0 
" style="stroke: #000000; stroke-width: 0.5"/>
      </defs>
      <g>
       <use xlink:href="#m93076f48f0" x="239.312725" y="146.330836" style="stroke: #000000; stroke-width: 0.5"/>
      </g>
     </g>
    </g>
    <g id="ytick_10">
     <g id="line2d_85">
      <g>
       <use xlink:href="#m20413c128e" x="44.012725" y="142.669898" style="stroke: #000000; stroke-width: 0.5"/>
      </g>
     </g>
     <g id="line2d_86">
      <g>
       <use xlink:href="#m93076f48f0" x="239.312725" y="142.669898" style="stroke: #000000; stroke-width: 0.5"/>
      </g>
     </g>
    </g>
    <g id="ytick_11">
     <g id="line2d_87">
      <g>
       <use xlink:href="#m20413c128e" x="44.012725" y="140.072422" style="stroke: #000000; stroke-width: 0.5"/>
      </g>
     </g>
     <g id="line2d_88">
      <g>
       <use xlink:href="#m93076f48f0" x="239.312725" y="140.072422" style="stroke: #000000; stroke-width: 0.5"/>
      </g>
     </g>
    </g>
    <g id="ytick_12">
     <g id="line2d_89">
      <g>
       <use xlink:href="#m20413c128e" x="44.012725" y="138.057663" style="stroke: #000000; stroke-width: 0.5"/>
      </g>
     </g>
     <g id="line2d_90">
      <g>
       <use xlink:href="#m93076f48f0" x="239.312725" y="138.057663" style="stroke: #000000; stroke-width: 0.5"/>
      </g>
     </g>
    </g>
    <g id="ytick_13">
     <g id="line2d_91">
      <g>
       <use xlink:href="#m20413c128e" x="44.012725" y="136.411485" style="stroke: #000000; stroke-width: 0.5"/>
      </g>
     </g>
     <g id="line2d_92">
      <g>
       <use xlink:href="#m93076f48f0" x="239.312725" y="136.411485" style="stroke: #000000; stroke-width: 0.5"/>
      </g>
     </g>
    </g>
    <g id="ytick_14">
     <g id="line2d_93">
      <g>
       <use xlink:href="#m20413c128e" x="44.012725" y="135.019661" style="stroke: #000000; stroke-width: 0.5"/>
      </g>
     </g>
     <g id="line2d_94">
      <g>
       <use xlink:href="#m93076f48f0" x="239.312725" y="135.019661" style="stroke: #000000; stroke-width: 0.5"/>
      </g>
     </g>
    </g>
    <g id="ytick_15">
     <g id="line2d_95">
      <g>
       <use xlink:href="#m20413c128e" x="44.012725" y="133.814008" style="stroke: #000000; stroke-width: 0.5"/>
      </g>
     </g>
     <g id="line2d_96">
      <g>
       <use xlink:href="#m93076f48f0" x="239.312725" y="133.814008" style="stroke: #000000; stroke-width: 0.5"/>
      </g>
     </g>
    </g>
    <g id="ytick_16">
     <g id="line2d_97">
      <g>
       <use xlink:href="#m20413c128e" x="44.012725" y="132.750547" style="stroke: #000000; stroke-width: 0.5"/>
      </g>
     </g>
     <g id="line2d_98">
      <g>
       <use xlink:href="#m93076f48f0" x="239.312725" y="132.750547" style="stroke: #000000; stroke-width: 0.5"/>
      </g>
     </g>
    </g>
    <g id="ytick_17">
     <g id="line2d_99">
      <g>
       <use xlink:href="#m20413c128e" x="44.012725" y="125.540836" style="stroke: #000000; stroke-width: 0.5"/>
      </g>
     </g>
     <g id="line2d_100">
      <g>
       <use xlink:href="#m93076f48f0" x="239.312725" y="125.540836" style="stroke: #000000; stroke-width: 0.5"/>
      </g>
     </g>
    </g>
    <g id="ytick_18">
     <g id="line2d_101">
      <g>
       <use xlink:href="#m20413c128e" x="44.012725" y="121.879898" style="stroke: #000000; stroke-width: 0.5"/>
      </g>
     </g>
     <g id="line2d_102">
      <g>
       <use xlink:href="#m93076f48f0" x="239.312725" y="121.879898" style="stroke: #000000; stroke-width: 0.5"/>
      </g>
     </g>
    </g>
    <g id="ytick_19">
     <g id="line2d_103">
      <g>
       <use xlink:href="#m20413c128e" x="44.012725" y="119.282422" style="stroke: #000000; stroke-width: 0.5"/>
      </g>
     </g>
     <g id="line2d_104">
      <g>
       <use xlink:href="#m93076f48f0" x="239.312725" y="119.282422" style="stroke: #000000; stroke-width: 0.5"/>
      </g>
     </g>
    </g>
    <g id="ytick_20">
     <g id="line2d_105">
      <g>
       <use xlink:href="#m20413c128e" x="44.012725" y="117.267663" style="stroke: #000000; stroke-width: 0.5"/>
      </g>
     </g>
     <g id="line2d_106">
      <g>
       <use xlink:href="#m93076f48f0" x="239.312725" y="117.267663" style="stroke: #000000; stroke-width: 0.5"/>
      </g>
     </g>
    </g>
    <g id="ytick_21">
     <g id="line2d_107">
      <g>
       <use xlink:href="#m20413c128e" x="44.012725" y="115.621485" style="stroke: #000000; stroke-width: 0.5"/>
      </g>
     </g>
     <g id="line2d_108">
      <g>
       <use xlink:href="#m93076f48f0" x="239.312725" y="115.621485" style="stroke: #000000; stroke-width: 0.5"/>
      </g>
     </g>
    </g>
    <g id="ytick_22">
     <g id="line2d_109">
      <g>
       <use xlink:href="#m20413c128e" x="44.012725" y="114.229661" style="stroke: #000000; stroke-width: 0.5"/>
      </g>
     </g>
     <g id="line2d_110">
      <g>
       <use xlink:href="#m93076f48f0" x="239.312725" y="114.229661" style="stroke: #000000; stroke-width: 0.5"/>
      </g>
     </g>
    </g>
    <g id="ytick_23">
     <g id="line2d_111">
      <g>
       <use xlink:href="#m20413c128e" x="44.012725" y="113.024008" style="stroke: #000000; stroke-width: 0.5"/>
      </g>
     </g>
     <g id="line2d_112">
      <g>
       <use xlink:href="#m93076f48f0" x="239.312725" y="113.024008" style="stroke: #000000; stroke-width: 0.5"/>
      </g>
     </g>
    </g>
    <g id="ytick_24">
     <g id="line2d_113">
      <g>
       <use xlink:href="#m20413c128e" x="44.012725" y="111.960547" style="stroke: #000000; stroke-width: 0.5"/>
      </g>
     </g>
     <g id="line2d_114">
      <g>
       <use xlink:href="#m93076f48f0" x="239.312725" y="111.960547" style="stroke: #000000; stroke-width: 0.5"/>
      </g>
     </g>
    </g>
    <g id="ytick_25">
     <g id="line2d_115">
      <g>
       <use xlink:href="#m20413c128e" x="44.012725" y="104.750836" style="stroke: #000000; stroke-width: 0.5"/>
      </g>
     </g>
     <g id="line2d_116">
      <g>
       <use xlink:href="#m93076f48f0" x="239.312725" y="104.750836" style="stroke: #000000; stroke-width: 0.5"/>
      </g>
     </g>
    </g>
    <g id="ytick_26">
     <g id="line2d_117">
      <g>
       <use xlink:href="#m20413c128e" x="44.012725" y="101.089898" style="stroke: #000000; stroke-width: 0.5"/>
      </g>
     </g>
     <g id="line2d_118">
      <g>
       <use xlink:href="#m93076f48f0" x="239.312725" y="101.089898" style="stroke: #000000; stroke-width: 0.5"/>
      </g>
     </g>
    </g>
    <g id="ytick_27">
     <g id="line2d_119">
      <g>
       <use xlink:href="#m20413c128e" x="44.012725" y="98.492422" style="stroke: #000000; stroke-width: 0.5"/>
      </g>
     </g>
     <g id="line2d_120">
      <g>
       <use xlink:href="#m93076f48f0" x="239.312725" y="98.492422" style="stroke: #000000; stroke-width: 0.5"/>
      </g>
     </g>
    </g>
    <g id="ytick_28">
     <g id="line2d_121">
      <g>
       <use xlink:href="#m20413c128e" x="44.012725" y="96.477663" style="stroke: #000000; stroke-width: 0.5"/>
      </g>
     </g>
     <g id="line2d_122">
      <g>
       <use xlink:href="#m93076f48f0" x="239.312725" y="96.477663" style="stroke: #000000; stroke-width: 0.5"/>
      </g>
     </g>
    </g>
    <g id="ytick_29">
     <g id="line2d_123">
      <g>
       <use xlink:href="#m20413c128e" x="44.012725" y="94.831485" style="stroke: #000000; stroke-width: 0.5"/>
      </g>
     </g>
     <g id="line2d_124">
      <g>
       <use xlink:href="#m93076f48f0" x="239.312725" y="94.831485" style="stroke: #000000; stroke-width: 0.5"/>
      </g>
     </g>
    </g>
    <g id="ytick_30">
     <g id="line2d_125">
      <g>
       <use xlink:href="#m20413c128e" x="44.012725" y="93.439661" style="stroke: #000000; stroke-width: 0.5"/>
      </g>
     </g>
     <g id="line2d_126">
      <g>
       <use xlink:href="#m93076f48f0" x="239.312725" y="93.439661" style="stroke: #000000; stroke-width: 0.5"/>
      </g>
     </g>
    </g>
    <g id="ytick_31">
     <g id="line2d_127">
      <g>
       <use xlink:href="#m20413c128e" x="44.012725" y="92.234008" style="stroke: #000000; stroke-width: 0.5"/>
      </g>
     </g>
     <g id="line2d_128">
      <g>
       <use xlink:href="#m93076f48f0" x="239.312725" y="92.234008" style="stroke: #000000; stroke-width: 0.5"/>
      </g>
     </g>
    </g>
    <g id="ytick_32">
     <g id="line2d_129">
      <g>
       <use xlink:href="#m20413c128e" x="44.012725" y="91.170547" style="stroke: #000000; stroke-width: 0.5"/>
      </g>
     </g>
     <g id="line2d_130">
      <g>
       <use xlink:href="#m93076f48f0" x="239.312725" y="91.170547" style="stroke: #000000; stroke-width: 0.5"/>
      </g>
     </g>
    </g>
    <g id="ytick_33">
     <g id="line2d_131">
      <g>
       <use xlink:href="#m20413c128e" x="44.012725" y="83.960836" style="stroke: #000000; stroke-width: 0.5"/>
      </g>
     </g>
     <g id="line2d_132">
      <g>
       <use xlink:href="#m93076f48f0" x="239.312725" y="83.960836" style="stroke: #000000; stroke-width: 0.5"/>
      </g>
     </g>
    </g>
    <g id="ytick_34">
     <g id="line2d_133">
      <g>
       <use xlink:href="#m20413c128e" x="44.012725" y="80.299898" style="stroke: #000000; stroke-width: 0.5"/>
      </g>
     </g>
     <g id="line2d_134">
      <g>
       <use xlink:href="#m93076f48f0" x="239.312725" y="80.299898" style="stroke: #000000; stroke-width: 0.5"/>
      </g>
     </g>
    </g>
    <g id="ytick_35">
     <g id="line2d_135">
      <g>
       <use xlink:href="#m20413c128e" x="44.012725" y="77.702422" style="stroke: #000000; stroke-width: 0.5"/>
      </g>
     </g>
     <g id="line2d_136">
      <g>
       <use xlink:href="#m93076f48f0" x="239.312725" y="77.702422" style="stroke: #000000; stroke-width: 0.5"/>
      </g>
     </g>
    </g>
    <g id="ytick_36">
     <g id="line2d_137">
      <g>
       <use xlink:href="#m20413c128e" x="44.012725" y="75.687663" style="stroke: #000000; stroke-width: 0.5"/>
      </g>
     </g>
     <g id="line2d_138">
      <g>
       <use xlink:href="#m93076f48f0" x="239.312725" y="75.687663" style="stroke: #000000; stroke-width: 0.5"/>
      </g>
     </g>
    </g>
    <g id="ytick_37">
     <g id="line2d_139">
      <g>
       <use xlink:href="#m20413c128e" x="44.012725" y="74.041485" style="stroke: #000000; stroke-width: 0.5"/>
      </g>
     </g>
     <g id="line2d_140">
      <g>
       <use xlink:href="#m93076f48f0" x="239.312725" y="74.041485" style="stroke: #000000; stroke-width: 0.5"/>
      </g>
     </g>
    </g>
    <g id="ytick_38">
     <g id="line2d_141">
      <g>
       <use xlink:href="#m20413c128e" x="44.012725" y="72.649661" style="stroke: #000000; stroke-width: 0.5"/>
      </g>
     </g>
     <g id="line2d_142">
      <g>
       <use xlink:href="#m93076f48f0" x="239.312725" y="72.649661" style="stroke: #000000; stroke-width: 0.5"/>
      </g>
     </g>
    </g>
    <g id="ytick_39">
     <g id="line2d_143">
      <g>
       <use xlink:href="#m20413c128e" x="44.012725" y="71.444008" style="stroke: #000000; stroke-width: 0.5"/>
      </g>
     </g>
     <g id="line2d_144">
      <g>
       <use xlink:href="#m93076f48f0" x="239.312725" y="71.444008" style="stroke: #000000; stroke-width: 0.5"/>
      </g>
     </g>
    </g>
    <g id="ytick_40">
     <g id="line2d_145">
      <g>
       <use xlink:href="#m20413c128e" x="44.012725" y="70.380547" style="stroke: #000000; stroke-width: 0.5"/>
      </g>
     </g>
     <g id="line2d_146">
      <g>
       <use xlink:href="#m93076f48f0" x="239.312725" y="70.380547" style="stroke: #000000; stroke-width: 0.5"/>
      </g>
     </g>
    </g>
    <g id="ytick_41">
     <g id="line2d_147">
      <g>
       <use xlink:href="#m20413c128e" x="44.012725" y="63.170836" style="stroke: #000000; stroke-width: 0.5"/>
      </g>
     </g>
     <g id="line2d_148">
      <g>
       <use xlink:href="#m93076f48f0" x="239.312725" y="63.170836" style="stroke: #000000; stroke-width: 0.5"/>
      </g>
     </g>
    </g>
    <g id="ytick_42">
     <g id="line2d_149">
      <g>
       <use xlink:href="#m20413c128e" x="44.012725" y="59.509898" style="stroke: #000000; stroke-width: 0.5"/>
      </g>
     </g>
     <g id="line2d_150">
      <g>
       <use xlink:href="#m93076f48f0" x="239.312725" y="59.509898" style="stroke: #000000; stroke-width: 0.5"/>
      </g>
     </g>
    </g>
    <g id="ytick_43">
     <g id="line2d_151">
      <g>
       <use xlink:href="#m20413c128e" x="44.012725" y="56.912422" style="stroke: #000000; stroke-width: 0.5"/>
      </g>
     </g>
     <g id="line2d_152">
      <g>
       <use xlink:href="#m93076f48f0" x="239.312725" y="56.912422" style="stroke: #000000; stroke-width: 0.5"/>
      </g>
     </g>
    </g>
    <g id="ytick_44">
     <g id="line2d_153">
      <g>
       <use xlink:href="#m20413c128e" x="44.012725" y="54.897663" style="stroke: #000000; stroke-width: 0.5"/>
      </g>
     </g>
     <g id="line2d_154">
      <g>
       <use xlink:href="#m93076f48f0" x="239.312725" y="54.897663" style="stroke: #000000; stroke-width: 0.5"/>
      </g>
     </g>
    </g>
    <g id="ytick_45">
     <g id="line2d_155">
      <g>
       <use xlink:href="#m20413c128e" x="44.012725" y="53.251485" style="stroke: #000000; stroke-width: 0.5"/>
      </g>
     </g>
     <g id="line2d_156">
      <g>
       <use xlink:href="#m93076f48f0" x="239.312725" y="53.251485" style="stroke: #000000; stroke-width: 0.5"/>
      </g>
     </g>
    </g>
    <g id="ytick_46">
     <g id="line2d_157">
      <g>
       <use xlink:href="#m20413c128e" x="44.012725" y="51.859661" style="stroke: #000000; stroke-width: 0.5"/>
      </g>
     </g>
     <g id="line2d_158">
      <g>
       <use xlink:href="#m93076f48f0" x="239.312725" y="51.859661" style="stroke: #000000; stroke-width: 0.5"/>
      </g>
     </g>
    </g>
    <g id="ytick_47">
     <g id="line2d_159">
      <g>
       <use xlink:href="#m20413c128e" x="44.012725" y="50.654008" style="stroke: #000000; stroke-width: 0.5"/>
      </g>
     </g>
     <g id="line2d_160">
      <g>
       <use xlink:href="#m93076f48f0" x="239.312725" y="50.654008" style="stroke: #000000; stroke-width: 0.5"/>
      </g>
     </g>
    </g>
    <g id="ytick_48">
     <g id="line2d_161">
      <g>
       <use xlink:href="#m20413c128e" x="44.012725" y="49.590547" style="stroke: #000000; stroke-width: 0.5"/>
      </g>
     </g>
     <g id="line2d_162">
      <g>
       <use xlink:href="#m93076f48f0" x="239.312725" y="49.590547" style="stroke: #000000; stroke-width: 0.5"/>
      </g>
     </g>
    </g>
    <g id="ytick_49">
     <g id="line2d_163">
      <g>
       <use xlink:href="#m20413c128e" x="44.012725" y="42.380836" style="stroke: #000000; stroke-width: 0.5"/>
      </g>
     </g>
     <g id="line2d_164">
      <g>
       <use xlink:href="#m93076f48f0" x="239.312725" y="42.380836" style="stroke: #000000; stroke-width: 0.5"/>
      </g>
     </g>
    </g>
    <g id="ytick_50">
     <g id="line2d_165">
      <g>
       <use xlink:href="#m20413c128e" x="44.012725" y="38.719898" style="stroke: #000000; stroke-width: 0.5"/>
      </g>
     </g>
     <g id="line2d_166">
      <g>
       <use xlink:href="#m93076f48f0" x="239.312725" y="38.719898" style="stroke: #000000; stroke-width: 0.5"/>
      </g>
     </g>
    </g>
    <g id="ytick_51">
     <g id="line2d_167">
      <g>
       <use xlink:href="#m20413c128e" x="44.012725" y="36.122422" style="stroke: #000000; stroke-width: 0.5"/>
      </g>
     </g>
     <g id="line2d_168">
      <g>
       <use xlink:href="#m93076f48f0" x="239.312725" y="36.122422" style="stroke: #000000; stroke-width: 0.5"/>
      </g>
     </g>
    </g>
    <g id="ytick_52">
     <g id="line2d_169">
      <g>
       <use xlink:href="#m20413c128e" x="44.012725" y="34.107663" style="stroke: #000000; stroke-width: 0.5"/>
      </g>
     </g>
     <g id="line2d_170">
      <g>
       <use xlink:href="#m93076f48f0" x="239.312725" y="34.107663" style="stroke: #000000; stroke-width: 0.5"/>
      </g>
     </g>
    </g>
    <g id="ytick_53">
     <g id="line2d_171">
      <g>
       <use xlink:href="#m20413c128e" x="44.012725" y="32.461485" style="stroke: #000000; stroke-width: 0.5"/>
      </g>
     </g>
     <g id="line2d_172">
      <g>
       <use xlink:href="#m93076f48f0" x="239.312725" y="32.461485" style="stroke: #000000; stroke-width: 0.5"/>
      </g>
     </g>
    </g>
    <g id="ytick_54">
     <g id="line2d_173">
      <g>
       <use xlink:href="#m20413c128e" x="44.012725" y="31.069661" style="stroke: #000000; stroke-width: 0.5"/>
      </g>
     </g>
     <g id="line2d_174">
      <g>
       <use xlink:href="#m93076f48f0" x="239.312725" y="31.069661" style="stroke: #000000; stroke-width: 0.5"/>
      </g>
     </g>
    </g>
    <g id="ytick_55">
     <g id="line2d_175">
      <g>
       <use xlink:href="#m20413c128e" x="44.012725" y="29.864008" style="stroke: #000000; stroke-width: 0.5"/>
      </g>
     </g>
     <g id="line2d_176">
      <g>
       <use xlink:href="#m93076f48f0" x="239.312725" y="29.864008" style="stroke: #000000; stroke-width: 0.5"/>
      </g>
     </g>
    </g>
    <g id="ytick_56">
     <g id="line2d_177">
      <g>
       <use xlink:href="#m20413c128e" x="44.012725" y="28.800547" style="stroke: #000000; stroke-width: 0.5"/>
      </g>
     </g>
     <g id="line2d_178">
      <g>
       <use xlink:href="#m93076f48f0" x="239.312725" y="28.800547" style="stroke: #000000; stroke-width: 0.5"/>
      </g>
     </g>
    </g>
    <g id="ytick_57">
     <g id="line2d_179">
      <g>
       <use xlink:href="#m20413c128e" x="44.012725" y="21.590836" style="stroke: #000000; stroke-width: 0.5"/>
      </g>
     </g>
     <g id="line2d_180">
      <g>
       <use xlink:href="#m93076f48f0" x="239.312725" y="21.590836" style="stroke: #000000; stroke-width: 0.5"/>
      </g>
     </g>
    </g>
    <g id="ytick_58">
     <g id="line2d_181">
      <g>
       <use xlink:href="#m20413c128e" x="44.012725" y="17.929898" style="stroke: #000000; stroke-width: 0.5"/>
      </g>
     </g>
     <g id="line2d_182">
      <g>
       <use xlink:href="#m93076f48f0" x="239.312725" y="17.929898" style="stroke: #000000; stroke-width: 0.5"/>
      </g>
     </g>
    </g>
    <g id="ytick_59">
     <g id="line2d_183">
      <g>
       <use xlink:href="#m20413c128e" x="44.012725" y="15.332422" style="stroke: #000000; stroke-width: 0.5"/>
      </g>
     </g>
     <g id="line2d_184">
      <g>
       <use xlink:href="#m93076f48f0" x="239.312725" y="15.332422" style="stroke: #000000; stroke-width: 0.5"/>
      </g>
     </g>
    </g>
    <g id="ytick_60">
     <g id="line2d_185">
      <g>
       <use xlink:href="#m20413c128e" x="44.012725" y="13.317663" style="stroke: #000000; stroke-width: 0.5"/>
      </g>
     </g>
     <g id="line2d_186">
      <g>
       <use xlink:href="#m93076f48f0" x="239.312725" y="13.317663" style="stroke: #000000; stroke-width: 0.5"/>
      </g>
     </g>
    </g>
    <g id="ytick_61">
     <g id="line2d_187">
      <g>
       <use xlink:href="#m20413c128e" x="44.012725" y="11.671485" style="stroke: #000000; stroke-width: 0.5"/>
      </g>
     </g>
     <g id="line2d_188">
      <g>
       <use xlink:href="#m93076f48f0" x="239.312725" y="11.671485" style="stroke: #000000; stroke-width: 0.5"/>
      </g>
     </g>
    </g>
    <g id="ytick_62">
     <g id="line2d_189">
      <g>
       <use xlink:href="#m20413c128e" x="44.012725" y="10.279661" style="stroke: #000000; stroke-width: 0.5"/>
      </g>
     </g>
     <g id="line2d_190">
      <g>
       <use xlink:href="#m93076f48f0" x="239.312725" y="10.279661" style="stroke: #000000; stroke-width: 0.5"/>
      </g>
     </g>
    </g>
    <g id="ytick_63">
     <g id="line2d_191">
      <g>
       <use xlink:href="#m20413c128e" x="44.012725" y="9.074008" style="stroke: #000000; stroke-width: 0.5"/>
      </g>
     </g>
     <g id="line2d_192">
      <g>
       <use xlink:href="#m93076f48f0" x="239.312725" y="9.074008" style="stroke: #000000; stroke-width: 0.5"/>
      </g>
     </g>
    </g>
    <g id="ytick_64">
     <g id="line2d_193">
      <g>
       <use xlink:href="#m20413c128e" x="44.012725" y="8.010547" style="stroke: #000000; stroke-width: 0.5"/>
      </g>
     </g>
     <g id="line2d_194">
      <g>
       <use xlink:href="#m93076f48f0" x="239.312725" y="8.010547" style="stroke: #000000; stroke-width: 0.5"/>
      </g>
     </g>
    </g>
    <g id="text_16">
     <!-- $FFT$ -->
     <g transform="translate(13.562625 94.985154) rotate(-90) scale(0.144 -0.144)">
      <defs>
       <path id="CMMI12-46" d="M 1901 2055 
L 2515 2055 
C 3002 2055 3040 1946 3040 1761 
C 3040 1678 3027 1589 2995 1448 
C 2982 1423 2976 1391 2976 1378 
C 2976 1333 3002 1308 3046 1308 
C 3098 1308 3104 1333 3130 1435 
L 3501 2935 
C 3501 2961 3482 2999 3437 2999 
C 3379 2999 3373 2974 3347 2863 
C 3213 2376 3085 2240 2528 2240 
L 1946 2240 
L 2362 3926 
C 2419 4154 2432 4154 2694 4154 
L 3552 4154 
C 4352 4154 4467 3918 4467 3464 
C 4467 3426 4467 3285 4448 3119 
C 4442 3094 4429 3011 4429 2985 
C 4429 2934 4461 2915 4499 2915 
C 4544 2915 4570 2941 4582 3055 
L 4717 4174 
C 4717 4195 4730 4263 4730 4277 
C 4730 4352 4672 4352 4557 4352 
L 1523 4352 
C 1402 4352 1338 4352 1338 4229 
C 1338 4154 1382 4154 1491 4154 
C 1888 4154 1888 4113 1888 4050 
C 1888 4018 1882 3992 1862 3922 
L 998 473 
C 941 249 928 185 480 185 
C 358 185 294 185 294 70 
C 294 0 352 0 390 0 
C 512 0 640 0 762 0 
L 1594 0 
C 1734 0 1888 0 2029 0 
C 2086 0 2163 0 2163 115 
C 2163 185 2125 185 1984 185 
C 1478 185 1466 229 1466 324 
C 1466 356 1478 406 1491 449 
L 1901 2055 
z
" transform="scale(0.015625)"/>
       <path id="CMMI12-54" d="M 2669 3910 
C 2707 4064 2720 4121 2816 4147 
C 2867 4160 3078 4160 3213 4160 
C 3853 4160 4154 4134 4154 3634 
C 4154 3537 4128 3295 4090 3057 
L 4083 2980 
C 4083 2954 4109 2916 4147 2916 
C 4211 2916 4211 2948 4230 3050 
L 4416 4184 
C 4429 4243 4429 4256 4429 4275 
C 4429 4345 4390 4345 4262 4345 
L 762 4345 
C 614 4345 608 4339 570 4224 
L 179 3070 
C 173 3056 154 2986 154 2980 
C 154 2948 179 2916 218 2916 
C 269 2916 282 2941 307 3024 
C 576 3801 710 4160 1562 4160 
L 1990 4160 
C 2144 4160 2208 4160 2208 4089 
C 2208 4069 2208 4057 2176 3941 
L 1318 499 
C 1254 249 1242 185 563 185 
C 403 185 358 185 358 64 
C 358 0 429 0 461 0 
C 621 0 787 0 947 0 
L 1946 0 
C 2106 0 2278 0 2438 0 
C 2509 0 2573 0 2573 121 
C 2573 185 2528 185 2362 185 
C 1786 185 1786 243 1786 339 
C 1786 346 1786 391 1811 494 
L 2669 3910 
z
" transform="scale(0.015625)"/>
      </defs>
      <use xlink:href="#CMMI12-46" transform="scale(0.996264)"/>
      <use xlink:href="#CMMI12-46" transform="translate(76.696793 0) scale(0.996264)"/>
      <use xlink:href="#CMMI12-54" transform="translate(153.393585 0) scale(0.996264)"/>
     </g>
    </g>
   </g>
   <g id="line2d_195">
    <path d="M 44.012725 92.592284 
L 44.251129 91.997351 
L 44.727935 95.934263 
L 44.966339 102.453011 
L 45.08554 100.762644 
L 45.323944 94.748124 
L 45.443145 95.199911 
L 45.681549 101.400821 
L 45.919952 95.817294 
L 46.039154 96.167169 
L 46.277557 101.700337 
L 46.51596 93.725565 
L 46.635162 94.2538 
L 46.873565 97.152213 
L 47.111969 91.681308 
L 47.23117 90.870064 
L 47.350372 91.533165 
L 47.588775 98.09177 
L 47.707977 100.740011 
L 48.065582 91.66233 
L 48.184783 90.698889 
L 48.303985 90.747974 
L 48.423187 91.886826 
L 48.780792 98.784362 
L 49.019195 96.911991 
L 49.138397 97.411013 
L 49.257598 96.868652 
L 49.615203 89.345294 
L 49.734405 89.005049 
L 50.449615 94.710206 
L 50.568817 94.584834 
L 50.688018 93.963659 
L 50.80722 94.334915 
L 50.926422 94.265469 
L 51.284027 86.662121 
L 51.403228 88.157481 
L 51.52243 95.527211 
L 51.641632 93.713248 
L 51.880035 88.431554 
L 51.999237 87.49976 
L 52.118438 88.577038 
L 52.356842 82.937621 
L 52.476043 95.770051 
L 52.714447 79.727244 
L 52.833648 82.839587 
L 52.95285 68.838058 
L 53.072052 70.10452 
L 53.66806 35.597955 
L 53.787261 34.935644 
L 53.906463 35.849096 
L 54.144866 43.070492 
L 54.264068 50.755754 
L 54.502471 68.911254 
L 54.621673 70.131902 
L 54.740875 92.753975 
L 54.860076 78.393816 
L 54.979278 81.782458 
L 55.09848 98.697711 
L 55.217681 86.180691 
L 55.336883 94.268443 
L 55.575286 85.241041 
L 56.290496 105.433582 
L 56.409698 103.67206 
L 56.5289 100.140698 
L 56.648101 101.15612 
L 56.886505 94.497537 
L 57.24411 100.301586 
L 57.363311 99.547403 
L 57.482513 99.606674 
L 57.601715 102.470762 
L 57.840118 114.833012 
L 58.078521 108.64461 
L 58.316925 105.502471 
L 58.793731 96.794194 
L 58.912933 97.980786 
L 59.270538 108.201842 
L 59.38974 107.00338 
L 59.866546 96.937289 
L 59.985748 95.899241 
L 60.104949 96.408379 
L 60.224151 99.470308 
L 60.462554 110.917149 
L 60.700958 100.077767 
L 60.939361 99.665233 
L 61.416168 95.023964 
L 61.535369 95.877281 
L 61.892974 100.663432 
L 62.012176 101.041421 
L 62.131378 100.552644 
L 62.608184 96.408682 
L 62.727386 96.355394 
L 62.965789 97.760972 
L 63.442596 101.191836 
L 63.561798 101.360312 
L 63.680999 100.897953 
L 64.157806 96.229458 
L 64.515411 95.702754 
L 64.634613 95.714226 
L 64.753814 95.872454 
L 64.873016 96.352391 
L 65.111419 99.548982 
L 65.349823 103.516113 
L 65.469024 103.669128 
L 65.826629 100.017427 
L 65.945831 101.63134 
L 66.065032 105.461996 
L 66.184234 104.342976 
L 66.422637 100.345042 
L 66.541839 102.244848 
L 66.661041 101.580723 
L 66.899444 94.941472 
L 67.018646 94.108006 
L 67.137847 94.647495 
L 67.376251 98.865492 
L 67.614654 104.428943 
L 67.733856 104.042544 
L 67.853057 103.242515 
L 67.972259 103.535647 
L 68.210662 105.240473 
L 68.329864 105.125615 
L 68.449066 105.240672 
L 68.568267 106.281573 
L 68.806671 112.735708 
L 68.925872 115.048187 
L 69.164276 101.774978 
L 69.283477 99.532085 
L 69.402679 99.445747 
L 69.521881 101.436786 
L 69.760284 107.529504 
L 69.998687 103.497377 
L 70.117889 104.452736 
L 70.237091 109.036436 
L 70.356292 136.981924 
L 70.594696 105.732655 
L 70.713897 105.270216 
L 70.952301 106.881576 
L 71.190704 102.839263 
L 71.548309 94.886747 
L 71.667511 95.525919 
L 71.905914 101.610635 
L 72.025115 101.364655 
L 72.144317 99.519647 
L 72.263519 101.399723 
L 72.38272 101.396718 
L 72.501922 93.911888 
L 72.621124 100.994446 
L 72.859527 72.876315 
L 73.09793 62.721802 
L 73.336334 60.341733 
L 73.455535 61.511122 
L 73.693939 69.347379 
L 73.81314 77.661631 
L 73.932342 96.648645 
L 74.051544 91.887387 
L 74.170745 93.817499 
L 74.289947 104.293371 
L 74.409149 104.628361 
L 74.766754 97.012387 
L 74.885955 96.943838 
L 75.124359 98.670082 
L 75.24356 100.774402 
L 75.481964 111.982663 
L 75.720367 98.042889 
L 75.839569 97.444412 
L 75.95877 98.879286 
L 76.197174 107.196016 
L 76.316375 106.949737 
L 76.435577 104.403684 
L 76.554779 104.503131 
L 76.67398 108.245678 
L 76.793182 117.255452 
L 77.031585 102.311094 
L 77.269989 98.632537 
L 77.38919 98.157151 
L 77.508392 98.206679 
L 77.627594 99.011932 
L 77.746795 101.216642 
L 77.865997 106.485882 
L 77.985198 128.506438 
L 78.223602 101.65776 
L 78.342803 100.069766 
L 78.462005 100.469504 
L 78.700408 103.59517 
L 78.81961 102.692774 
L 79.296417 95.482766 
L 79.415618 94.765895 
L 79.53482 94.75235 
L 79.654022 95.629531 
L 79.892425 100.820248 
L 80.130828 108.838705 
L 80.607635 99.878734 
L 80.726837 101.359118 
L 80.96524 111.772442 
L 81.203643 100.20454 
L 81.442047 98.224763 
L 81.561248 98.617282 
L 81.918853 101.779371 
L 82.157257 103.073365 
L 82.514862 100.67298 
L 82.634063 101.102392 
L 82.753265 103.115 
L 82.991668 111.387061 
L 83.230072 107.41637 
L 83.587677 99.215858 
L 83.706878 99.414624 
L 83.82608 102.173981 
L 84.064483 111.236812 
L 84.302886 99.493539 
L 84.54129 97.769398 
L 84.660491 98.183142 
L 84.779693 99.465363 
L 84.898895 102.156251 
L 85.018096 107.768269 
L 85.137298 122.025617 
L 85.375701 105.061656 
L 85.614105 103.475128 
L 85.733306 103.847286 
L 85.852508 104.660043 
L 86.090911 108.943327 
L 86.210113 112.116082 
L 86.329315 111.732122 
L 86.567718 106.194366 
L 86.68692 105.446676 
L 86.806121 106.208016 
L 87.044525 109.867305 
L 87.282928 108.973371 
L 87.40213 110.68311 
L 87.640533 120.408208 
L 87.878936 111.032463 
L 88.11734 112.516648 
L 88.355743 108.658717 
L 88.474945 110.219688 
L 88.594146 110.125782 
L 88.951751 97.626397 
L 89.070953 96.837267 
L 89.190155 97.162645 
L 89.428558 100.465889 
L 90.143768 115.488459 
L 90.262969 113.723716 
L 90.620574 102.989442 
L 90.858978 101.211744 
L 91.097381 101.789546 
L 91.216583 101.037472 
L 91.335784 101.167592 
L 91.454986 105.282077 
L 91.574188 113.887076 
L 91.693389 103.106322 
L 91.812591 106.236654 
L 91.931793 102.819138 
L 92.050994 93.696997 
L 92.170196 100.085731 
L 92.527801 67.648352 
L 92.766204 62.184977 
L 92.885406 61.992477 
L 93.004608 63.386326 
L 93.243011 71.86009 
L 93.362213 80.767355 
L 93.481414 103.59437 
L 93.600616 96.136307 
L 93.839019 101.540034 
L 93.958221 99.243784 
L 94.196624 104.175307 
L 94.435028 108.501457 
L 94.554229 105.392705 
L 94.673431 106.297361 
L 94.792633 110.414229 
L 95.388641 101.350863 
L 95.507843 102.49785 
L 95.627044 105.73455 
L 95.865448 122.488834 
L 96.103851 111.337536 
L 96.223052 110.388144 
L 96.580657 105.935951 
L 96.699859 107.437819 
L 96.938262 117.744909 
L 97.057464 128.931412 
L 97.176666 129.586936 
L 97.415069 116.917191 
L 97.891876 110.003193 
L 98.130279 106.651711 
L 98.368682 105.88976 
L 98.607086 104.542334 
L 98.726287 105.301566 
L 98.964691 111.366815 
L 99.203094 117.499256 
L 99.441497 114.448568 
L 99.799102 113.818593 
L 100.037506 114.983872 
L 100.514312 105.815673 
L 100.633514 106.449681 
L 100.991119 114.990416 
L 101.587127 103.868812 
L 101.706329 104.545535 
L 101.944732 111.349545 
L 102.302337 134.196504 
L 102.54074 115.460886 
L 102.779144 111.346544 
L 103.017547 107.818957 
L 103.375152 101.97704 
L 103.732757 100.466105 
L 103.851959 100.652294 
L 103.97116 101.784523 
L 104.209564 109.199532 
L 104.328765 121.205006 
L 104.68637 104.798061 
L 104.805572 103.36084 
L 104.924774 103.304491 
L 105.043975 104.528134 
L 105.40158 113.095375 
L 105.878387 105.373177 
L 105.997589 106.547594 
L 106.593597 119.786715 
L 106.832 106.104681 
L 106.951202 104.374681 
L 107.070404 104.614447 
L 107.189605 106.696132 
L 107.308807 111.182126 
L 107.428009 122.010643 
L 107.54721 120.463045 
L 107.785614 108.283631 
L 108.024017 105.252203 
L 108.739227 101.930494 
L 108.858428 101.7974 
L 109.216033 99.750965 
L 109.335235 99.833175 
L 109.454437 100.976065 
L 109.69284 107.888939 
L 110.050445 127.344029 
L 110.288848 106.964877 
L 110.527252 100.263126 
L 110.646453 99.362203 
L 110.765655 99.649011 
L 111.004058 102.806086 
L 111.242462 107.748265 
L 111.361663 107.363319 
L 111.600067 99.69255 
L 111.719268 104.802979 
L 111.957672 81.386265 
L 112.196075 72.58227 
L 112.315277 71.056679 
L 112.434478 71.090675 
L 112.55368 72.679737 
L 112.792083 81.498616 
L 113.030487 103.771559 
L 113.149688 101.621211 
L 113.26889 105.201023 
L 113.388092 115.960823 
L 113.507293 114.956228 
L 113.745697 106.510466 
L 113.9841 105.223027 
L 114.103302 105.296976 
L 114.222503 106.949844 
L 114.460907 113.974121 
L 114.69931 113.497601 
L 114.937713 117.343754 
L 115.295318 106.75142 
L 115.41452 106.694686 
L 115.533721 108.709631 
L 115.652923 113.863355 
L 115.772125 130.767687 
L 116.010528 112.895469 
L 116.12973 111.910924 
L 116.248931 113.932523 
L 116.368133 120.177328 
L 116.487335 117.548048 
L 116.725738 108.551581 
L 116.964141 106.585343 
L 117.202545 105.791781 
L 117.321746 106.091398 
L 117.440948 107.298656 
L 117.679351 114.027289 
L 117.798553 117.927874 
L 117.917755 116.863582 
L 118.27536 101.032341 
L 118.394561 99.44872 
L 118.513763 99.606524 
L 118.632965 101.520323 
L 118.99057 114.855683 
L 119.109771 114.015733 
L 119.228973 114.684078 
L 119.348175 114.684282 
L 119.586578 108.320933 
L 119.70578 107.782945 
L 119.824981 109.830131 
L 120.063385 115.375096 
L 120.301788 109.092424 
L 120.42099 109.468164 
L 120.659393 111.602386 
L 121.016998 108.883713 
L 121.136199 109.534169 
L 121.493804 113.290355 
L 121.613006 112.763606 
L 121.970611 104.284844 
L 122.089813 105.472424 
L 122.328216 113.805477 
L 122.447418 113.457528 
L 122.566619 113.425885 
L 122.685821 114.494158 
L 123.043426 106.781292 
L 123.281829 109.714253 
L 123.758636 100.115999 
L 123.877838 100.439011 
L 124.354644 105.912684 
L 124.473846 105.968744 
L 124.831451 108.326534 
L 125.308258 105.134817 
L 125.546661 103.684765 
L 125.665863 103.662645 
L 125.785064 104.594796 
L 126.142669 110.589259 
L 126.381073 107.434094 
L 126.500274 108.304561 
L 126.619476 112.053201 
L 126.738677 120.583903 
L 127.096282 110.236319 
L 127.215484 110.525356 
L 127.453887 111.980799 
L 127.573089 112.119785 
L 127.692291 111.336579 
L 128.288299 104.430084 
L 128.765106 99.694101 
L 128.884307 100.222374 
L 129.122711 104.804168 
L 129.361114 110.30694 
L 129.480316 109.955803 
L 129.718719 108.073142 
L 129.837921 107.759673 
L 130.076324 105.66106 
L 130.314727 103.445362 
L 130.433929 103.338393 
L 130.553131 104.267626 
L 130.910736 113.546586 
L 131.029937 109.694664 
L 131.149139 110.095716 
L 131.268341 114.234898 
L 131.506744 91.438027 
L 131.745147 83.974354 
L 131.864349 82.82445 
L 131.983551 83.142093 
L 132.221954 88.342181 
L 132.460357 101.56776 
L 132.698761 126.64089 
L 132.937164 116.528424 
L 133.175567 112.043809 
L 133.294769 112.469599 
L 133.533172 121.672997 
L 133.890777 109.737058 
L 134.12918 105.157133 
L 134.248382 104.364472 
L 134.367584 104.720094 
L 134.605987 108.725839 
L 134.963592 119.798482 
L 135.082794 119.264062 
L 135.321197 113.799398 
L 135.440399 113.991741 
L 135.678802 120.290931 
L 135.917205 106.251354 
L 136.036407 104.785046 
L 136.155609 105.410745 
L 136.27481 108.278336 
L 136.394012 114.778223 
L 136.513214 127.766254 
L 136.751617 113.500188 
L 136.870819 113.315069 
L 136.99002 113.735301 
L 137.109222 112.519215 
L 137.466827 106.898777 
L 137.586029 107.163066 
L 137.824432 110.020259 
L 137.943634 109.849841 
L 138.182037 107.040168 
L 138.301239 107.030924 
L 138.42044 108.5337 
L 138.658844 118.324185 
L 139.016448 108.064562 
L 139.13565 107.832531 
L 139.374053 110.080795 
L 139.612457 113.796781 
L 139.731658 116.462841 
L 139.85086 116.105988 
L 140.208465 107.707115 
L 140.56607 104.303197 
L 140.685272 104.186726 
L 140.804473 105.026289 
L 141.042877 111.396183 
L 141.162078 114.134693 
L 141.519683 105.898789 
L 141.638885 105.123718 
L 141.758087 105.138715 
L 141.877288 106.466587 
L 141.99649 110.113005 
L 142.234893 120.240252 
L 142.354095 114.453346 
L 142.473297 115.22512 
L 142.592498 123.954156 
L 142.7117 121.988864 
L 142.950103 110.931529 
L 143.188507 110.160539 
L 143.42691 108.543181 
L 143.665313 107.003258 
L 143.784515 107.344139 
L 143.903717 108.842494 
L 144.022918 112.033017 
L 144.261322 121.182525 
L 144.499725 109.862588 
L 144.738128 107.557928 
L 144.85733 108.389921 
L 145.095733 114.22811 
L 145.453338 121.825074 
L 145.57254 137.539568 
L 145.810943 112.321439 
L 145.930145 110.529181 
L 146.049346 111.778857 
L 146.28775 120.306502 
L 146.526153 111.634166 
L 146.764556 110.786402 
L 146.883758 110.010869 
L 147.00296 111.017008 
L 147.241363 125.716382 
L 147.479766 108.666391 
L 147.598968 109.001246 
L 147.71817 111.557549 
L 147.837371 111.472106 
L 148.075775 108.034989 
L 148.314178 112.088688 
L 148.790985 104.686433 
L 148.910186 105.552732 
L 149.14859 109.623284 
L 149.267791 109.532062 
L 149.386993 108.289525 
L 149.506195 108.526059 
L 149.625396 111.145138 
L 149.8638 118.259345 
L 149.983001 116.656965 
L 150.102203 117.186283 
L 150.221405 118.39049 
L 150.340606 118.102755 
L 150.459808 116.320503 
L 151.294219 93.59631 
L 151.413421 93.290461 
L 151.532623 94.145056 
L 151.771026 99.636719 
L 152.009429 106.380812 
L 152.247833 105.500489 
L 152.367034 106.187367 
L 152.486236 108.903146 
L 152.724639 120.43796 
L 152.963043 109.201755 
L 153.201446 105.458194 
L 153.320648 104.780806 
L 153.439849 104.894372 
L 153.559051 105.86271 
L 153.797454 110.891406 
L 153.916656 113.628296 
L 154.155059 109.697455 
L 154.393463 107.421766 
L 154.512664 107.105067 
L 154.631866 107.133719 
L 154.751068 107.751817 
L 155.227874 112.718035 
L 155.347076 112.247565 
L 155.704681 103.702355 
L 155.823883 103.553709 
L 156.062286 107.221094 
L 156.300689 109.986845 
L 156.539093 109.13896 
L 156.658294 109.111829 
L 156.777496 108.382737 
L 157.135101 105.006437 
L 157.254302 105.373184 
L 157.492706 109.407495 
L 157.731109 116.595066 
L 158.088714 107.010162 
L 158.207916 106.526116 
L 158.327117 107.067553 
L 158.803924 112.200798 
L 158.923126 114.549536 
L 159.042327 119.523269 
L 159.161529 136.730976 
L 159.399932 120.148588 
L 159.519134 121.633693 
L 159.638336 128.742072 
L 160.115142 110.581201 
L 160.234344 109.663377 
L 160.353546 110.087113 
L 160.591949 112.779598 
L 160.711151 112.600367 
L 161.068756 110.856998 
L 161.187957 111.226025 
L 161.307159 112.782299 
L 161.545562 122.162318 
L 161.664764 129.322865 
L 161.903167 113.594372 
L 162.260772 106.270567 
L 162.618377 104.135915 
L 162.737579 104.212244 
L 162.856781 105.190654 
L 162.975982 107.673022 
L 163.095184 113.169619 
L 163.214386 134.329146 
L 163.452789 108.746918 
L 163.691192 106.5883 
L 164.2872 112.448864 
L 164.406402 117.139859 
L 164.525604 116.934979 
L 164.764007 110.444148 
L 164.883209 110.609719 
L 165.240814 115.331191 
L 165.479217 112.992114 
L 165.598419 113.327408 
L 165.836822 115.162037 
L 166.194427 108.432752 
L 166.313629 108.18055 
L 166.43283 108.847102 
L 167.14804 117.381345 
L 167.267242 121.372117 
L 167.386444 130.724392 
L 167.505645 130.725011 
L 167.744049 122.196421 
L 167.86325 122.141695 
L 168.340057 114.731796 
L 168.57846 116.849535 
L 168.936065 110.139284 
L 169.055267 109.874697 
L 169.29367 110.095228 
L 169.532073 109.399725 
L 169.651275 109.523387 
L 169.770477 110.568321 
L 170.00888 115.989486 
L 170.247283 120.132404 
L 170.962493 105.482927 
L 171.200897 107.265354 
L 171.558502 109.694783 
L 171.677703 112.540079 
L 171.916107 121.78754 
L 172.035308 119.387631 
L 172.273712 126.840606 
L 172.512115 109.800551 
L 172.631317 107.767032 
L 172.750518 107.67508 
L 172.988922 112.007961 
L 173.346527 121.24761 
L 173.465728 120.617749 
L 173.704132 111.702154 
L 173.823333 111.639719 
L 173.942535 114.922129 
L 174.061737 128.366424 
L 174.30014 111.707574 
L 174.419342 109.638101 
L 174.538543 110.047773 
L 174.776947 117.478462 
L 174.896148 122.60292 
L 175.01535 120.178503 
L 175.253753 111.847295 
L 175.372955 110.249229 
L 175.492157 110.761071 
L 175.73056 118.175543 
L 176.088165 112.511864 
L 176.326568 118.025001 
L 176.684173 106.966653 
L 176.803375 106.304961 
L 176.922576 107.249061 
L 177.041778 110.096379 
L 177.280181 126.640462 
L 177.518585 110.160234 
L 177.756988 106.792017 
L 177.87619 106.474626 
L 177.995391 106.536231 
L 178.233795 107.196933 
L 178.352996 108.261567 
L 178.710601 114.23186 
L 178.949005 109.869762 
L 179.068206 110.003522 
L 179.425811 117.07586 
L 179.545013 115.907875 
L 179.783416 113.598908 
L 179.902618 113.44773 
L 180.02182 113.704117 
L 180.379425 114.788913 
L 180.498626 114.938774 
L 180.617828 116.581303 
L 180.856231 125.511294 
L 181.094635 112.747466 
L 181.213836 111.691667 
L 181.333038 112.215682 
L 181.571441 114.884418 
L 181.690643 114.57916 
L 182.048248 111.29422 
L 182.167449 111.446606 
L 182.525054 114.138151 
L 182.644256 113.274127 
L 183.001861 107.531198 
L 183.121063 107.368258 
L 183.240264 108.511386 
L 183.359466 111.366215 
L 183.478668 117.172376 
L 183.597869 133.347235 
L 183.836273 116.702309 
L 184.193878 110.108651 
L 184.313079 109.588757 
L 184.432281 110.617983 
L 184.670684 116.335294 
L 185.028289 111.804798 
L 185.147491 112.797091 
L 185.266693 115.726087 
L 185.505096 129.469107 
L 185.743499 114.378657 
L 185.862701 112.716037 
L 185.981903 113.22145 
L 186.220306 120.272501 
L 186.458709 110.978382 
L 186.577911 109.76982 
L 186.697113 110.75432 
L 187.054718 117.66685 
L 187.650726 108.02782 
L 187.889129 109.262783 
L 188.008331 109.835793 
L 188.127532 109.526512 
L 188.485137 106.998489 
L 188.604339 106.941798 
L 188.723541 107.171628 
L 188.961944 108.696797 
L 189.438751 113.298818 
L 189.677154 110.279767 
L 189.796356 110.462339 
L 190.034759 117.743139 
L 190.153961 115.444448 
L 190.392364 108.836617 
L 190.511566 108.356361 
L 190.749969 109.011686 
L 190.869171 108.665621 
L 191.107574 107.383459 
L 191.226776 107.246626 
L 191.465179 108.002255 
L 191.703582 108.732877 
L 192.061187 108.109454 
L 192.180389 108.936582 
L 192.418792 113.689885 
L 192.657196 119.635146 
L 193.014801 116.508155 
L 193.134002 117.034554 
L 193.372406 120.553256 
L 193.491607 120.046324 
L 193.849212 113.952342 
L 194.087615 113.187491 
L 194.206817 113.271282 
L 194.564422 111.240005 
L 194.683624 112.331339 
L 195.041229 119.827035 
L 195.16043 118.797968 
L 195.398834 120.335432 
L 195.637237 118.820908 
L 195.756439 120.320027 
L 195.87564 123.753103 
L 195.994842 123.777616 
L 196.233245 119.905874 
L 196.471649 125.683049 
L 196.829254 109.597412 
L 197.067657 106.392297 
L 197.186859 106.474788 
L 197.30606 107.738259 
L 197.663665 117.816217 
L 198.02127 111.107551 
L 198.140472 110.976223 
L 198.498077 111.976582 
L 198.73648 111.227296 
L 198.855682 111.334472 
L 198.974884 112.260581 
L 199.213287 117.812945 
L 199.570892 132.335539 
L 199.690094 132.201481 
L 199.809295 133.408231 
L 199.928497 131.873201 
L 200.405303 115.461239 
L 200.643707 112.069796 
L 200.762908 111.568681 
L 200.88211 111.606236 
L 201.001312 112.090812 
L 201.358917 116.081326 
L 201.835723 111.07256 
L 201.954925 112.124034 
L 202.193328 117.59259 
L 202.431732 123.430586 
L 202.670135 117.026833 
L 202.908538 112.251184 
L 203.02774 112.286541 
L 203.146942 114.222824 
L 203.385345 121.688431 
L 203.504547 121.26005 
L 203.623748 122.613324 
L 203.74295 127.535287 
L 204.100555 121.447211 
L 204.219757 122.674545 
L 204.338958 122.375693 
L 204.45816 121.57783 
L 204.577362 121.638507 
L 204.696563 121.433814 
L 204.934967 120.045798 
L 205.054168 119.759566 
L 205.292572 118.534867 
L 205.411773 119.156918 
L 205.530975 122.620874 
L 205.650177 142.390178 
L 205.88858 114.682756 
L 206.126983 110.201954 
L 206.246185 110.513416 
L 206.484588 115.535994 
L 206.60379 121.06055 
L 206.842193 133.39231 
L 206.961395 128.14643 
L 207.080596 130.865853 
L 207.199798 138.600941 
L 207.438201 119.610027 
L 207.676605 116.114006 
L 207.915008 114.886923 
L 208.03421 115.53728 
L 208.391815 123.3799 
L 208.630218 118.24972 
L 208.74942 117.197003 
L 209.226226 108.865096 
L 209.345428 109.466187 
L 209.583831 115.793041 
L 209.703033 119.68549 
L 210.17984 113.343459 
L 210.299041 113.785409 
L 210.418243 115.221118 
L 210.656646 123.222921 
L 210.775848 134.857402 
L 211.371856 116.470948 
L 211.491058 115.639899 
L 211.61026 116.503603 
L 211.729461 119.624884 
L 211.967865 128.163975 
L 212.206268 114.976827 
L 212.325469 113.178693 
L 212.444671 113.168681 
L 212.683074 115.381095 
L 213.040679 110.641155 
L 213.159881 110.708659 
L 213.398284 113.863146 
L 213.755889 123.345797 
L 214.351898 107.154794 
L 214.471099 107.662137 
L 214.590301 109.791571 
L 214.828704 120.666569 
L 214.947906 120.596501 
L 215.067108 118.590619 
L 215.186309 120.108442 
L 215.305511 124.483184 
L 215.424713 122.106655 
L 215.663116 113.904597 
L 215.901519 110.776868 
L 216.497528 107.808514 
L 216.616729 108.281702 
L 216.735931 110.020525 
L 216.974334 119.882832 
L 217.093536 119.073274 
L 217.331939 112.015771 
L 217.451141 111.270372 
L 217.570343 111.442415 
L 217.927948 113.045769 
L 218.404754 110.136597 
L 218.523956 110.243994 
L 218.762359 112.078962 
L 219.239166 117.457526 
L 219.358367 120.789001 
L 219.477569 130.418822 
L 219.596771 127.806738 
L 219.835174 117.075784 
L 219.954376 117.10418 
L 220.073577 119.305142 
L 220.311981 132.479343 
L 220.431182 157.409248 
L 220.669586 125.339691 
L 220.907989 116.653459 
L 221.027191 115.496482 
L 221.146392 116.109167 
L 221.384796 123.427281 
L 221.503997 123.318495 
L 221.742401 115.723357 
L 221.980804 113.486178 
L 222.100006 113.905859 
L 222.219207 115.968369 
L 222.338409 120.067108 
L 222.457611 120.027236 
L 222.696014 113.360929 
L 222.815216 113.002319 
L 222.934417 113.410604 
L 223.053619 113.377699 
L 223.172821 113.218971 
L 223.292022 114.266336 
L 223.530426 122.95906 
L 223.649627 122.948213 
L 223.768829 120.899492 
L 223.888031 121.107852 
L 224.007232 120.487953 
L 224.364837 115.130562 
L 224.722442 113.452197 
L 224.841644 113.620815 
L 225.080047 115.817092 
L 225.31845 120.104198 
L 225.437652 123.665732 
L 225.676055 133.130351 
L 225.914459 117.800088 
L 226.152862 115.553773 
L 226.391265 119.942932 
L 226.629669 123.105249 
L 226.987274 113.922989 
L 227.106475 114.875784 
L 227.344879 122.999455 
L 227.583282 110.26165 
L 227.702484 109.11749 
L 227.821685 109.532172 
L 228.060089 113.023868 
L 228.417694 120.81258 
L 228.656097 119.07847 
L 228.775299 120.385895 
L 228.8945 124.484241 
L 229.013702 124.516925 
L 229.252105 114.127355 
L 229.490509 111.858355 
L 229.60971 113.67981 
L 229.848114 127.286557 
L 230.086517 116.053505 
L 230.205719 114.964993 
L 230.32492 115.26336 
L 230.563323 118.611388 
L 230.682525 121.511963 
L 230.801727 119.412482 
L 231.04013 112.446275 
L 231.159332 112.09076 
L 231.278533 113.800207 
L 231.516937 121.204891 
L 231.636138 119.939681 
L 231.993743 111.301189 
L 232.112945 110.66884 
L 232.232147 111.813901 
L 232.351348 115.296127 
L 232.589752 123.74294 
L 232.828155 115.416213 
L 232.947357 116.122176 
L 233.066558 119.636421 
L 233.304962 127.906953 
L 233.424163 125.080087 
L 233.543365 125.788917 
L 233.90097 113.526506 
L 234.020172 113.821652 
L 234.139373 116.700916 
L 234.258575 123.726169 
L 234.377777 137.857474 
L 234.61618 120.200137 
L 235.092987 113.152136 
L 235.450592 109.281145 
L 235.569793 109.613619 
L 235.808197 113.620056 
L 236.0466 117.847243 
L 236.285003 114.456292 
L 236.404205 114.869902 
L 236.76181 122.167807 
L 237.119415 129.71693 
L 237.357818 123.699629 
L 237.596221 117.713183 
L 237.715423 117.677737 
L 237.953826 122.59723 
L 238.311431 116.756988 
L 238.430633 117.711342 
L 238.788238 124.264592 
L 238.90744 123.20992 
L 239.265045 116.028795 
L 239.384246 115.139636 
L 239.384246 115.139636 
" clip-path="url(#pe939781793)" style="fill: none; stroke: #4477aa; stroke-linecap: square"/>
   </g>
   <g id="patch_3">
    <path d="M 44.012725 152.589249 
L 44.012725 7.059249 
" style="fill: none; stroke: #000000; stroke-width: 0.5; stroke-linejoin: miter; stroke-linecap: square"/>
   </g>
   <g id="patch_4">
    <path d="M 239.312725 152.589249 
L 239.312725 7.059249 
" style="fill: none; stroke: #000000; stroke-width: 0.5; stroke-linejoin: miter; stroke-linecap: square"/>
   </g>
   <g id="patch_5">
    <path d="M 44.012725 152.589249 
L 239.312725 152.589249 
" style="fill: none; stroke: #000000; stroke-width: 0.5; stroke-linejoin: miter; stroke-linecap: square"/>
   </g>
   <g id="patch_6">
    <path d="M 44.012725 7.059249 
L 239.312725 7.059249 
" style="fill: none; stroke: #000000; stroke-width: 0.5; stroke-linejoin: miter; stroke-linecap: square"/>
   </g>
  </g>
 </g>
 <defs>
  <clipPath id="pe939781793">
   <rect x="44.012725" y="7.059249" width="195.3" height="145.53"/>
  </clipPath>
 </defs>
</svg>
