<?xml version="1.0" encoding="utf-8" standalone="no"?>
<!DOCTYPE svg PUBLIC "-//W3C//DTD SVG 1.1//EN"
  "http://www.w3.org/Graphics/SVG/1.1/DTD/svg11.dtd">
<svg xmlns:xlink="http://www.w3.org/1999/xlink" width="242.912725pt" height="186.891106pt" viewBox="0 0 242.912725 186.891106" xmlns="http://www.w3.org/2000/svg" version="1.1">
 <metadata>
  <rdf:RDF xmlns:dc="http://purl.org/dc/elements/1.1/" xmlns:cc="http://creativecommons.org/ns#" xmlns:rdf="http://www.w3.org/1999/02/22-rdf-syntax-ns#">
   <cc:Work>
    <dc:type rdf:resource="http://purl.org/dc/dcmitype/StillImage"/>
    <dc:date>2025-02-25T16:39:20.428041</dc:date>
    <dc:format>image/svg+xml</dc:format>
    <dc:creator>
     <cc:Agent>
      <dc:title>Matplotlib v3.9.2, https://matplotlib.org/</dc:title>
     </cc:Agent>
    </dc:creator>
   </cc:Work>
  </rdf:RDF>
 </metadata>
 <defs>
  <style type="text/css">*{stroke-linejoin: round; stroke-linecap: butt}</style>
 </defs>
 <g id="figure_1">
  <g id="patch_1">
   <path d="M -0 186.891106 
L 242.912725 186.891106 
L 242.912725 0 
L -0 0 
L -0 186.891106 
z
" style="fill: none"/>
  </g>
  <g id="axes_1">
   <g id="patch_2">
    <path d="M 44.012725 152.589249 
L 239.312725 152.589249 
L 239.312725 7.059249 
L 44.012725 7.059249 
L 44.012725 152.589249 
z
" style="fill: none"/>
   </g>
   <g id="matplotlib.axis_1">
    <g id="xtick_1">
     <g id="line2d_1">
      <path d="M 44.012725 152.589249 
L 44.012725 7.059249 
" clip-path="url(#p7648a38b7e)" style="fill: none; stroke-dasharray: 1.85,0.8; stroke-dashoffset: 0; stroke: #000000; stroke-opacity: 0.5; stroke-width: 0.5"/>
     </g>
     <g id="line2d_2">
      <defs>
       <path id="med49541164" d="M 0 0 
L 0 -3 
" style="stroke: #000000; stroke-width: 0.5"/>
      </defs>
      <g>
       <use xlink:href="#med49541164" x="44.012725" y="152.589249" style="stroke: #000000; stroke-width: 0.5"/>
      </g>
     </g>
     <g id="line2d_3">
      <defs>
       <path id="m59d8ff061e" d="M 0 0 
L 0 3 
" style="stroke: #000000; stroke-width: 0.5"/>
      </defs>
      <g>
       <use xlink:href="#m59d8ff061e" x="44.012725" y="7.059249" style="stroke: #000000; stroke-width: 0.5"/>
      </g>
     </g>
     <g id="text_1">
      <!-- $\mathdefault{0}$ -->
      <g transform="translate(41.522058 163.007748) scale(0.1 -0.1)">
       <defs>
        <path id="CMR17-30" d="M 2688 2025 
C 2688 2416 2682 3080 2413 3591 
C 2176 4039 1798 4198 1466 4198 
C 1158 4198 768 4058 525 3597 
C 269 3118 243 2524 243 2025 
C 243 1661 250 1106 448 619 
C 723 -39 1216 -128 1466 -128 
C 1760 -128 2208 -7 2470 600 
C 2662 1042 2688 1559 2688 2025 
z
M 1466 -26 
C 1056 -26 813 325 723 812 
C 653 1188 653 1738 653 2096 
C 653 2588 653 2997 736 3387 
C 858 3929 1216 4096 1466 4096 
C 1728 4096 2067 3923 2189 3400 
C 2272 3036 2278 2607 2278 2096 
C 2278 1680 2278 1169 2202 792 
C 2067 95 1690 -26 1466 -26 
z
" transform="scale(0.015625)"/>
       </defs>
       <use xlink:href="#CMR17-30" transform="scale(0.996264)"/>
      </g>
     </g>
    </g>
    <g id="xtick_2">
     <g id="line2d_4">
      <path d="M 87.412725 152.589249 
L 87.412725 7.059249 
" clip-path="url(#p7648a38b7e)" style="fill: none; stroke-dasharray: 1.85,0.8; stroke-dashoffset: 0; stroke: #000000; stroke-opacity: 0.5; stroke-width: 0.5"/>
     </g>
     <g id="line2d_5">
      <g>
       <use xlink:href="#med49541164" x="87.412725" y="152.589249" style="stroke: #000000; stroke-width: 0.5"/>
      </g>
     </g>
     <g id="line2d_6">
      <g>
       <use xlink:href="#m59d8ff061e" x="87.412725" y="7.059249" style="stroke: #000000; stroke-width: 0.5"/>
      </g>
     </g>
     <g id="text_2">
      <!-- $\mathdefault{200}$ -->
      <g transform="translate(79.940722 163.007748) scale(0.1 -0.1)">
       <defs>
        <path id="CMR17-32" d="M 2669 989 
L 2554 989 
C 2490 536 2438 459 2413 420 
C 2381 369 1920 369 1830 369 
L 602 369 
C 832 619 1280 1072 1824 1597 
C 2214 1967 2669 2402 2669 3035 
C 2669 3790 2067 4224 1395 4224 
C 691 4224 262 3604 262 3030 
C 262 2780 448 2748 525 2748 
C 589 2748 781 2787 781 3010 
C 781 3207 614 3264 525 3264 
C 486 3264 448 3258 422 3245 
C 544 3790 915 4058 1306 4058 
C 1862 4058 2227 3617 2227 3035 
C 2227 2479 1901 2000 1536 1584 
L 262 146 
L 262 0 
L 2515 0 
L 2669 989 
z
" transform="scale(0.015625)"/>
       </defs>
       <use xlink:href="#CMR17-32" transform="scale(0.996264)"/>
       <use xlink:href="#CMR17-30" transform="translate(45.690477 0) scale(0.996264)"/>
       <use xlink:href="#CMR17-30" transform="translate(91.380954 0) scale(0.996264)"/>
      </g>
     </g>
    </g>
    <g id="xtick_3">
     <g id="line2d_7">
      <path d="M 130.812725 152.589249 
L 130.812725 7.059249 
" clip-path="url(#p7648a38b7e)" style="fill: none; stroke-dasharray: 1.85,0.8; stroke-dashoffset: 0; stroke: #000000; stroke-opacity: 0.5; stroke-width: 0.5"/>
     </g>
     <g id="line2d_8">
      <g>
       <use xlink:href="#med49541164" x="130.812725" y="152.589249" style="stroke: #000000; stroke-width: 0.5"/>
      </g>
     </g>
     <g id="line2d_9">
      <g>
       <use xlink:href="#m59d8ff061e" x="130.812725" y="7.059249" style="stroke: #000000; stroke-width: 0.5"/>
      </g>
     </g>
     <g id="text_3">
      <!-- $\mathdefault{400}$ -->
      <g transform="translate(123.340722 163.007748) scale(0.1 -0.1)">
       <defs>
        <path id="CMR17-34" d="M 2150 4122 
C 2150 4256 2144 4256 2029 4256 
L 128 1254 
L 128 1088 
L 1779 1088 
L 1779 457 
C 1779 224 1766 160 1318 160 
L 1197 160 
L 1197 0 
C 1402 0 1747 0 1965 0 
C 2182 0 2528 0 2733 0 
L 2733 160 
L 2611 160 
C 2163 160 2150 224 2150 457 
L 2150 1088 
L 2803 1088 
L 2803 1254 
L 2150 1254 
L 2150 4122 
z
M 1798 3703 
L 1798 1254 
L 256 1254 
L 1798 3703 
z
" transform="scale(0.015625)"/>
       </defs>
       <use xlink:href="#CMR17-34" transform="scale(0.996264)"/>
       <use xlink:href="#CMR17-30" transform="translate(45.690477 0) scale(0.996264)"/>
       <use xlink:href="#CMR17-30" transform="translate(91.380954 0) scale(0.996264)"/>
      </g>
     </g>
    </g>
    <g id="xtick_4">
     <g id="line2d_10">
      <path d="M 174.212725 152.589249 
L 174.212725 7.059249 
" clip-path="url(#p7648a38b7e)" style="fill: none; stroke-dasharray: 1.85,0.8; stroke-dashoffset: 0; stroke: #000000; stroke-opacity: 0.5; stroke-width: 0.5"/>
     </g>
     <g id="line2d_11">
      <g>
       <use xlink:href="#med49541164" x="174.212725" y="152.589249" style="stroke: #000000; stroke-width: 0.5"/>
      </g>
     </g>
     <g id="line2d_12">
      <g>
       <use xlink:href="#m59d8ff061e" x="174.212725" y="7.059249" style="stroke: #000000; stroke-width: 0.5"/>
      </g>
     </g>
     <g id="text_4">
      <!-- $\mathdefault{600}$ -->
      <g transform="translate(166.740722 163.007748) scale(0.1 -0.1)">
       <defs>
        <path id="CMR17-36" d="M 678 2176 
C 678 3690 1395 4032 1811 4032 
C 1946 4032 2272 4009 2400 3776 
C 2298 3776 2106 3776 2106 3553 
C 2106 3381 2246 3323 2336 3323 
C 2394 3323 2566 3348 2566 3560 
C 2566 3954 2246 4179 1805 4179 
C 1043 4179 243 3390 243 1984 
C 243 253 966 -128 1478 -128 
C 2099 -128 2688 427 2688 1283 
C 2688 2081 2170 2662 1517 2662 
C 1126 2662 838 2407 678 1960 
L 678 2176 
z
M 1478 25 
C 691 25 691 1200 691 1436 
C 691 1896 909 2560 1504 2560 
C 1613 2560 1926 2560 2138 2120 
C 2253 1870 2253 1609 2253 1289 
C 2253 944 2253 690 2118 434 
C 1978 171 1773 25 1478 25 
z
" transform="scale(0.015625)"/>
       </defs>
       <use xlink:href="#CMR17-36" transform="scale(0.996264)"/>
       <use xlink:href="#CMR17-30" transform="translate(45.690477 0) scale(0.996264)"/>
       <use xlink:href="#CMR17-30" transform="translate(91.380954 0) scale(0.996264)"/>
      </g>
     </g>
    </g>
    <g id="xtick_5">
     <g id="line2d_13">
      <path d="M 217.612725 152.589249 
L 217.612725 7.059249 
" clip-path="url(#p7648a38b7e)" style="fill: none; stroke-dasharray: 1.85,0.8; stroke-dashoffset: 0; stroke: #000000; stroke-opacity: 0.5; stroke-width: 0.5"/>
     </g>
     <g id="line2d_14">
      <g>
       <use xlink:href="#med49541164" x="217.612725" y="152.589249" style="stroke: #000000; stroke-width: 0.5"/>
      </g>
     </g>
     <g id="line2d_15">
      <g>
       <use xlink:href="#m59d8ff061e" x="217.612725" y="7.059249" style="stroke: #000000; stroke-width: 0.5"/>
      </g>
     </g>
     <g id="text_5">
      <!-- $\mathdefault{800}$ -->
      <g transform="translate(210.140722 163.007748) scale(0.1 -0.1)">
       <defs>
        <path id="CMR17-38" d="M 1741 2264 
C 2144 2467 2554 2773 2554 3263 
C 2554 3841 1990 4179 1472 4179 
C 890 4179 378 3759 378 3180 
C 378 3021 416 2747 666 2505 
C 730 2442 998 2251 1171 2130 
C 883 1983 211 1634 211 934 
C 211 279 838 -128 1459 -128 
C 2144 -128 2720 362 2720 1010 
C 2720 1590 2330 1857 2074 2029 
L 1741 2264 
z
M 902 2822 
C 851 2854 595 3051 595 3351 
C 595 3739 998 4032 1459 4032 
C 1965 4032 2336 3676 2336 3262 
C 2336 2669 1670 2331 1638 2331 
C 1632 2331 1626 2331 1574 2370 
L 902 2822 
z
M 2080 1519 
C 2176 1449 2483 1240 2483 851 
C 2483 381 2010 25 1472 25 
C 890 25 448 438 448 940 
C 448 1443 838 1862 1280 2060 
L 2080 1519 
z
" transform="scale(0.015625)"/>
       </defs>
       <use xlink:href="#CMR17-38" transform="scale(0.996264)"/>
       <use xlink:href="#CMR17-30" transform="translate(45.690477 0) scale(0.996264)"/>
       <use xlink:href="#CMR17-30" transform="translate(91.380954 0) scale(0.996264)"/>
      </g>
     </g>
    </g>
    <g id="xtick_6">
     <g id="line2d_16">
      <defs>
       <path id="m7632e13756" d="M 0 0 
L 0 -1.5 
" style="stroke: #000000; stroke-width: 0.5"/>
      </defs>
      <g>
       <use xlink:href="#m7632e13756" x="54.862725" y="152.589249" style="stroke: #000000; stroke-width: 0.5"/>
      </g>
     </g>
     <g id="line2d_17">
      <defs>
       <path id="mc3de84760b" d="M 0 0 
L 0 1.5 
" style="stroke: #000000; stroke-width: 0.5"/>
      </defs>
      <g>
       <use xlink:href="#mc3de84760b" x="54.862725" y="7.059249" style="stroke: #000000; stroke-width: 0.5"/>
      </g>
     </g>
    </g>
    <g id="xtick_7">
     <g id="line2d_18">
      <g>
       <use xlink:href="#m7632e13756" x="65.712725" y="152.589249" style="stroke: #000000; stroke-width: 0.5"/>
      </g>
     </g>
     <g id="line2d_19">
      <g>
       <use xlink:href="#mc3de84760b" x="65.712725" y="7.059249" style="stroke: #000000; stroke-width: 0.5"/>
      </g>
     </g>
    </g>
    <g id="xtick_8">
     <g id="line2d_20">
      <g>
       <use xlink:href="#m7632e13756" x="76.562725" y="152.589249" style="stroke: #000000; stroke-width: 0.5"/>
      </g>
     </g>
     <g id="line2d_21">
      <g>
       <use xlink:href="#mc3de84760b" x="76.562725" y="7.059249" style="stroke: #000000; stroke-width: 0.5"/>
      </g>
     </g>
    </g>
    <g id="xtick_9">
     <g id="line2d_22">
      <g>
       <use xlink:href="#m7632e13756" x="98.262725" y="152.589249" style="stroke: #000000; stroke-width: 0.5"/>
      </g>
     </g>
     <g id="line2d_23">
      <g>
       <use xlink:href="#mc3de84760b" x="98.262725" y="7.059249" style="stroke: #000000; stroke-width: 0.5"/>
      </g>
     </g>
    </g>
    <g id="xtick_10">
     <g id="line2d_24">
      <g>
       <use xlink:href="#m7632e13756" x="109.112725" y="152.589249" style="stroke: #000000; stroke-width: 0.5"/>
      </g>
     </g>
     <g id="line2d_25">
      <g>
       <use xlink:href="#mc3de84760b" x="109.112725" y="7.059249" style="stroke: #000000; stroke-width: 0.5"/>
      </g>
     </g>
    </g>
    <g id="xtick_11">
     <g id="line2d_26">
      <g>
       <use xlink:href="#m7632e13756" x="119.962725" y="152.589249" style="stroke: #000000; stroke-width: 0.5"/>
      </g>
     </g>
     <g id="line2d_27">
      <g>
       <use xlink:href="#mc3de84760b" x="119.962725" y="7.059249" style="stroke: #000000; stroke-width: 0.5"/>
      </g>
     </g>
    </g>
    <g id="xtick_12">
     <g id="line2d_28">
      <g>
       <use xlink:href="#m7632e13756" x="141.662725" y="152.589249" style="stroke: #000000; stroke-width: 0.5"/>
      </g>
     </g>
     <g id="line2d_29">
      <g>
       <use xlink:href="#mc3de84760b" x="141.662725" y="7.059249" style="stroke: #000000; stroke-width: 0.5"/>
      </g>
     </g>
    </g>
    <g id="xtick_13">
     <g id="line2d_30">
      <g>
       <use xlink:href="#m7632e13756" x="152.512725" y="152.589249" style="stroke: #000000; stroke-width: 0.5"/>
      </g>
     </g>
     <g id="line2d_31">
      <g>
       <use xlink:href="#mc3de84760b" x="152.512725" y="7.059249" style="stroke: #000000; stroke-width: 0.5"/>
      </g>
     </g>
    </g>
    <g id="xtick_14">
     <g id="line2d_32">
      <g>
       <use xlink:href="#m7632e13756" x="163.362725" y="152.589249" style="stroke: #000000; stroke-width: 0.5"/>
      </g>
     </g>
     <g id="line2d_33">
      <g>
       <use xlink:href="#mc3de84760b" x="163.362725" y="7.059249" style="stroke: #000000; stroke-width: 0.5"/>
      </g>
     </g>
    </g>
    <g id="xtick_15">
     <g id="line2d_34">
      <g>
       <use xlink:href="#m7632e13756" x="185.062725" y="152.589249" style="stroke: #000000; stroke-width: 0.5"/>
      </g>
     </g>
     <g id="line2d_35">
      <g>
       <use xlink:href="#mc3de84760b" x="185.062725" y="7.059249" style="stroke: #000000; stroke-width: 0.5"/>
      </g>
     </g>
    </g>
    <g id="xtick_16">
     <g id="line2d_36">
      <g>
       <use xlink:href="#m7632e13756" x="195.912725" y="152.589249" style="stroke: #000000; stroke-width: 0.5"/>
      </g>
     </g>
     <g id="line2d_37">
      <g>
       <use xlink:href="#mc3de84760b" x="195.912725" y="7.059249" style="stroke: #000000; stroke-width: 0.5"/>
      </g>
     </g>
    </g>
    <g id="xtick_17">
     <g id="line2d_38">
      <g>
       <use xlink:href="#m7632e13756" x="206.762725" y="152.589249" style="stroke: #000000; stroke-width: 0.5"/>
      </g>
     </g>
     <g id="line2d_39">
      <g>
       <use xlink:href="#mc3de84760b" x="206.762725" y="7.059249" style="stroke: #000000; stroke-width: 0.5"/>
      </g>
     </g>
    </g>
    <g id="xtick_18">
     <g id="line2d_40">
      <g>
       <use xlink:href="#m7632e13756" x="228.462725" y="152.589249" style="stroke: #000000; stroke-width: 0.5"/>
      </g>
     </g>
     <g id="line2d_41">
      <g>
       <use xlink:href="#mc3de84760b" x="228.462725" y="7.059249" style="stroke: #000000; stroke-width: 0.5"/>
      </g>
     </g>
    </g>
    <g id="xtick_19">
     <g id="line2d_42">
      <g>
       <use xlink:href="#m7632e13756" x="239.312725" y="152.589249" style="stroke: #000000; stroke-width: 0.5"/>
      </g>
     </g>
     <g id="line2d_43">
      <g>
       <use xlink:href="#mc3de84760b" x="239.312725" y="7.059249" style="stroke: #000000; stroke-width: 0.5"/>
      </g>
     </g>
    </g>
    <g id="text_6">
     <!-- $f$ [MHz] -->
     <g transform="translate(116.369118 179.704565) scale(0.144 -0.144)">
      <defs>
       <path id="CMMI12-66" d="M 2854 2566 
C 2982 2566 3034 2566 3034 2688 
C 3034 2752 2982 2752 2867 2752 
L 2349 2752 
C 2470 3429 2560 3897 2611 4107 
C 2650 4265 2784 4416 2950 4416 
C 3085 4416 3219 4358 3283 4298 
C 3034 4272 2957 4082 2957 3969 
C 2957 3837 3053 3759 3174 3759 
C 3302 3759 3494 3870 3494 4119 
C 3494 4393 3226 4544 2944 4544 
C 2669 4544 2400 4334 2272 4078 
C 2157 3848 2093 3611 1946 2752 
L 1517 2752 
C 1395 2752 1331 2752 1331 2637 
C 1331 2566 1370 2566 1498 2566 
L 1907 2566 
C 1792 1976 1530 542 1382 -137 
C 1274 -689 1178 -1152 858 -1152 
C 838 -1152 653 -1152 538 -1031 
C 864 -1005 864 -726 864 -720 
C 864 -593 768 -517 646 -517 
C 518 -517 326 -625 326 -867 
C 326 -1140 608 -1280 858 -1280 
C 1510 -1280 1779 -118 1850 199 
C 1965 688 2278 2376 2310 2566 
L 2854 2566 
z
" transform="scale(0.015625)"/>
       <path id="CMR17-5b" d="M 1504 -1600 
L 1504 -1377 
L 902 -1377 
L 902 4544 
L 1504 4544 
L 1504 4767 
L 678 4767 
L 678 -1600 
L 1504 -1600 
z
" transform="scale(0.015625)"/>
       <path id="CMR17-4d" d="M 1338 4224 
C 1299 4320 1293 4320 1158 4320 
L 339 4320 
L 339 4160 
C 781 4160 851 4160 851 3875 
L 851 610 
C 851 451 851 153 339 153 
L 339 -13 
C 486 0 755 0 915 0 
C 1075 0 1344 0 1491 -13 
L 1491 153 
C 979 153 979 451 979 610 
L 979 4135 
L 986 4135 
L 2490 89 
C 2515 25 2528 -13 2579 -13 
C 2630 -13 2643 25 2669 89 
L 4186 4166 
L 4192 4166 
L 4192 438 
C 4192 153 4122 153 3680 153 
L 3680 -13 
C 3853 0 4198 0 4384 0 
C 4570 0 4922 0 5094 -13 
L 5094 153 
C 4653 153 4582 153 4582 438 
L 4582 3875 
C 4582 4160 4653 4160 5094 4160 
L 5094 4320 
L 4282 4320 
C 4147 4320 4141 4314 4102 4218 
L 2720 502 
L 1338 4224 
z
" transform="scale(0.015625)"/>
       <path id="CMR17-48" d="M 3590 3905 
C 3590 4192 3661 4192 4102 4192 
L 4102 4352 
C 3917 4352 3578 4352 3379 4352 
C 3181 4352 2842 4352 2656 4352 
L 2656 4192 
C 3098 4192 3168 4192 3168 3904 
L 3168 2341 
L 1261 2341 
L 1261 3904 
C 1261 4192 1331 4192 1773 4192 
L 1773 4352 
C 1587 4352 1248 4352 1050 4352 
C 851 4352 512 4352 326 4352 
L 326 4192 
C 768 4192 838 4192 838 3905 
L 838 447 
C 838 160 768 160 326 160 
L 326 0 
C 512 0 851 0 1050 0 
C 1248 0 1587 0 1773 0 
L 1773 160 
C 1331 160 1261 160 1261 446 
L 1261 2176 
L 3168 2176 
L 3168 446 
C 3168 160 3098 160 2656 160 
L 2656 0 
C 2842 0 3181 0 3379 0 
C 3578 0 3917 0 4102 0 
L 4102 160 
C 3661 160 3590 160 3590 447 
L 3590 3905 
z
" transform="scale(0.015625)"/>
       <path id="CMR17-7a" d="M 2310 2605 
C 2362 2670 2362 2682 2362 2695 
C 2362 2752 2336 2752 2221 2752 
L 275 2752 
L 211 1760 
L 326 1760 
C 371 2381 442 2650 1178 2650 
L 1958 2650 
L 128 96 
C 128 0 134 0 269 0 
L 2291 0 
L 2381 1152 
L 2266 1152 
C 2214 442 2131 115 1350 115 
L 531 115 
L 2310 2605 
z
" transform="scale(0.015625)"/>
       <path id="CMR17-5d" d="M 915 4767 
L 90 4767 
L 90 4544 
L 691 4544 
L 691 -1377 
L 90 -1377 
L 90 -1600 
L 915 -1600 
L 915 4767 
z
" transform="scale(0.015625)"/>
      </defs>
      <use xlink:href="#CMMI12-66" transform="scale(0.996264)"/>
      <use xlink:href="#CMR17-5b" transform="translate(88.796271 0) scale(0.996264)"/>
      <use xlink:href="#CMR17-4d" transform="translate(113.66733 0) scale(0.996264)"/>
      <use xlink:href="#CMR17-48" transform="translate(198.35427 0) scale(0.996264)"/>
      <use xlink:href="#CMR17-7a" transform="translate(267.4267 0) scale(0.996264)"/>
      <use xlink:href="#CMR17-5d" transform="translate(307.912361 0) scale(0.996264)"/>
     </g>
    </g>
   </g>
   <g id="matplotlib.axis_2">
    <g id="ytick_1">
     <g id="line2d_44">
      <path d="M 44.012725 152.589249 
L 239.312725 152.589249 
" clip-path="url(#p7648a38b7e)" style="fill: none; stroke-dasharray: 1.85,0.8; stroke-dashoffset: 0; stroke: #000000; stroke-opacity: 0.5; stroke-width: 0.5"/>
     </g>
     <g id="line2d_45">
      <defs>
       <path id="m6cf70832b6" d="M 0 0 
L 3 0 
" style="stroke: #000000; stroke-width: 0.5"/>
      </defs>
      <g>
       <use xlink:href="#m6cf70832b6" x="44.012725" y="152.589249" style="stroke: #000000; stroke-width: 0.5"/>
      </g>
     </g>
     <g id="line2d_46">
      <defs>
       <path id="m0bd1f4a109" d="M 0 0 
L -3 0 
" style="stroke: #000000; stroke-width: 0.5"/>
      </defs>
      <g>
       <use xlink:href="#m0bd1f4a109" x="239.312725" y="152.589249" style="stroke: #000000; stroke-width: 0.5"/>
      </g>
     </g>
     <g id="text_7">
      <!-- $\mathdefault{10^{-3}}$ -->
      <g transform="translate(20.352152 156.048498) scale(0.1 -0.1)">
       <defs>
        <path id="CMR17-31" d="M 1702 4058 
C 1702 4192 1696 4192 1606 4192 
C 1357 3916 979 3827 621 3827 
C 602 3827 570 3827 563 3808 
C 557 3795 557 3782 557 3648 
C 755 3648 1088 3686 1344 3839 
L 1344 461 
C 1344 236 1331 160 781 160 
L 589 160 
L 589 0 
C 896 0 1216 0 1523 0 
C 1830 0 2150 0 2458 0 
L 2458 160 
L 2266 160 
C 1715 160 1702 230 1702 458 
L 1702 4058 
z
" transform="scale(0.015625)"/>
        <path id="CMSY10-0" d="M 4218 1472 
C 4326 1472 4442 1472 4442 1600 
C 4442 1728 4326 1728 4218 1728 
L 755 1728 
C 646 1728 531 1728 531 1600 
C 531 1472 646 1472 755 1472 
L 4218 1472 
z
" transform="scale(0.015625)"/>
        <path id="CMR17-33" d="M 1414 2157 
C 1984 2157 2234 1662 2234 1090 
C 2234 320 1824 25 1453 25 
C 1114 25 563 194 390 693 
C 422 680 454 680 486 680 
C 640 680 755 782 755 948 
C 755 1133 614 1216 486 1216 
C 378 1216 211 1165 211 926 
C 211 335 787 -128 1466 -128 
C 2176 -128 2720 430 2720 1085 
C 2720 1707 2208 2157 1600 2227 
C 2086 2328 2554 2756 2554 3329 
C 2554 3820 2048 4179 1472 4179 
C 890 4179 378 3829 378 3329 
C 378 3110 544 3072 627 3072 
C 762 3072 877 3155 877 3321 
C 877 3486 762 3569 627 3569 
C 602 3569 570 3569 544 3557 
C 730 3959 1235 4032 1459 4032 
C 1683 4032 2106 3925 2106 3320 
C 2106 3143 2080 2828 1862 2550 
C 1670 2304 1453 2304 1242 2284 
C 1210 2284 1062 2269 1037 2269 
C 992 2263 966 2257 966 2208 
C 966 2163 973 2157 1101 2157 
L 1414 2157 
z
" transform="scale(0.015625)"/>
       </defs>
       <use xlink:href="#CMR17-31" transform="scale(0.996264)"/>
       <use xlink:href="#CMR17-30" transform="translate(45.690477 0) scale(0.996264)"/>
       <use xlink:href="#CMSY10-0" transform="translate(91.380954 36.153639) scale(0.697382)"/>
       <use xlink:href="#CMR17-33" transform="translate(145.621947 36.153639) scale(0.697382)"/>
      </g>
     </g>
    </g>
    <g id="ytick_2">
     <g id="line2d_47">
      <path d="M 44.012725 131.799249 
L 239.312725 131.799249 
" clip-path="url(#p7648a38b7e)" style="fill: none; stroke-dasharray: 1.85,0.8; stroke-dashoffset: 0; stroke: #000000; stroke-opacity: 0.5; stroke-width: 0.5"/>
     </g>
     <g id="line2d_48">
      <g>
       <use xlink:href="#m6cf70832b6" x="44.012725" y="131.799249" style="stroke: #000000; stroke-width: 0.5"/>
      </g>
     </g>
     <g id="line2d_49">
      <g>
       <use xlink:href="#m0bd1f4a109" x="239.312725" y="131.799249" style="stroke: #000000; stroke-width: 0.5"/>
      </g>
     </g>
     <g id="text_8">
      <!-- $\mathdefault{10^{-2}}$ -->
      <g transform="translate(20.352152 135.258498) scale(0.1 -0.1)">
       <use xlink:href="#CMR17-31" transform="scale(0.996264)"/>
       <use xlink:href="#CMR17-30" transform="translate(45.690477 0) scale(0.996264)"/>
       <use xlink:href="#CMSY10-0" transform="translate(91.380954 36.153639) scale(0.697382)"/>
       <use xlink:href="#CMR17-32" transform="translate(145.621947 36.153639) scale(0.697382)"/>
      </g>
     </g>
    </g>
    <g id="ytick_3">
     <g id="line2d_50">
      <path d="M 44.012725 111.009249 
L 239.312725 111.009249 
" clip-path="url(#p7648a38b7e)" style="fill: none; stroke-dasharray: 1.85,0.8; stroke-dashoffset: 0; stroke: #000000; stroke-opacity: 0.5; stroke-width: 0.5"/>
     </g>
     <g id="line2d_51">
      <g>
       <use xlink:href="#m6cf70832b6" x="44.012725" y="111.009249" style="stroke: #000000; stroke-width: 0.5"/>
      </g>
     </g>
     <g id="line2d_52">
      <g>
       <use xlink:href="#m0bd1f4a109" x="239.312725" y="111.009249" style="stroke: #000000; stroke-width: 0.5"/>
      </g>
     </g>
     <g id="text_9">
      <!-- $\mathdefault{10^{-1}}$ -->
      <g transform="translate(20.352152 114.468498) scale(0.1 -0.1)">
       <use xlink:href="#CMR17-31" transform="scale(0.996264)"/>
       <use xlink:href="#CMR17-30" transform="translate(45.690477 0) scale(0.996264)"/>
       <use xlink:href="#CMSY10-0" transform="translate(91.380954 36.153639) scale(0.697382)"/>
       <use xlink:href="#CMR17-31" transform="translate(145.621947 36.153639) scale(0.697382)"/>
      </g>
     </g>
    </g>
    <g id="ytick_4">
     <g id="line2d_53">
      <path d="M 44.012725 90.219249 
L 239.312725 90.219249 
" clip-path="url(#p7648a38b7e)" style="fill: none; stroke-dasharray: 1.85,0.8; stroke-dashoffset: 0; stroke: #000000; stroke-opacity: 0.5; stroke-width: 0.5"/>
     </g>
     <g id="line2d_54">
      <g>
       <use xlink:href="#m6cf70832b6" x="44.012725" y="90.219249" style="stroke: #000000; stroke-width: 0.5"/>
      </g>
     </g>
     <g id="line2d_55">
      <g>
       <use xlink:href="#m0bd1f4a109" x="239.312725" y="90.219249" style="stroke: #000000; stroke-width: 0.5"/>
      </g>
     </g>
     <g id="text_10">
      <!-- $\mathdefault{10^{0}}$ -->
      <g transform="translate(26.578817 93.678498) scale(0.1 -0.1)">
       <use xlink:href="#CMR17-31" transform="scale(0.996264)"/>
       <use xlink:href="#CMR17-30" transform="translate(45.690477 0) scale(0.996264)"/>
       <use xlink:href="#CMR17-30" transform="translate(91.380954 36.153639) scale(0.697382)"/>
      </g>
     </g>
    </g>
    <g id="ytick_5">
     <g id="line2d_56">
      <path d="M 44.012725 69.429249 
L 239.312725 69.429249 
" clip-path="url(#p7648a38b7e)" style="fill: none; stroke-dasharray: 1.85,0.8; stroke-dashoffset: 0; stroke: #000000; stroke-opacity: 0.5; stroke-width: 0.5"/>
     </g>
     <g id="line2d_57">
      <g>
       <use xlink:href="#m6cf70832b6" x="44.012725" y="69.429249" style="stroke: #000000; stroke-width: 0.5"/>
      </g>
     </g>
     <g id="line2d_58">
      <g>
       <use xlink:href="#m0bd1f4a109" x="239.312725" y="69.429249" style="stroke: #000000; stroke-width: 0.5"/>
      </g>
     </g>
     <g id="text_11">
      <!-- $\mathdefault{10^{1}}$ -->
      <g transform="translate(26.578817 72.888498) scale(0.1 -0.1)">
       <use xlink:href="#CMR17-31" transform="scale(0.996264)"/>
       <use xlink:href="#CMR17-30" transform="translate(45.690477 0) scale(0.996264)"/>
       <use xlink:href="#CMR17-31" transform="translate(91.380954 36.153639) scale(0.697382)"/>
      </g>
     </g>
    </g>
    <g id="ytick_6">
     <g id="line2d_59">
      <path d="M 44.012725 48.639249 
L 239.312725 48.639249 
" clip-path="url(#p7648a38b7e)" style="fill: none; stroke-dasharray: 1.85,0.8; stroke-dashoffset: 0; stroke: #000000; stroke-opacity: 0.5; stroke-width: 0.5"/>
     </g>
     <g id="line2d_60">
      <g>
       <use xlink:href="#m6cf70832b6" x="44.012725" y="48.639249" style="stroke: #000000; stroke-width: 0.5"/>
      </g>
     </g>
     <g id="line2d_61">
      <g>
       <use xlink:href="#m0bd1f4a109" x="239.312725" y="48.639249" style="stroke: #000000; stroke-width: 0.5"/>
      </g>
     </g>
     <g id="text_12">
      <!-- $\mathdefault{10^{2}}$ -->
      <g transform="translate(26.578817 52.098498) scale(0.1 -0.1)">
       <use xlink:href="#CMR17-31" transform="scale(0.996264)"/>
       <use xlink:href="#CMR17-30" transform="translate(45.690477 0) scale(0.996264)"/>
       <use xlink:href="#CMR17-32" transform="translate(91.380954 36.153639) scale(0.697382)"/>
      </g>
     </g>
    </g>
    <g id="ytick_7">
     <g id="line2d_62">
      <path d="M 44.012725 27.849249 
L 239.312725 27.849249 
" clip-path="url(#p7648a38b7e)" style="fill: none; stroke-dasharray: 1.85,0.8; stroke-dashoffset: 0; stroke: #000000; stroke-opacity: 0.5; stroke-width: 0.5"/>
     </g>
     <g id="line2d_63">
      <g>
       <use xlink:href="#m6cf70832b6" x="44.012725" y="27.849249" style="stroke: #000000; stroke-width: 0.5"/>
      </g>
     </g>
     <g id="line2d_64">
      <g>
       <use xlink:href="#m0bd1f4a109" x="239.312725" y="27.849249" style="stroke: #000000; stroke-width: 0.5"/>
      </g>
     </g>
     <g id="text_13">
      <!-- $\mathdefault{10^{3}}$ -->
      <g transform="translate(26.578817 31.308498) scale(0.1 -0.1)">
       <use xlink:href="#CMR17-31" transform="scale(0.996264)"/>
       <use xlink:href="#CMR17-30" transform="translate(45.690477 0) scale(0.996264)"/>
       <use xlink:href="#CMR17-33" transform="translate(91.380954 36.153639) scale(0.697382)"/>
      </g>
     </g>
    </g>
    <g id="ytick_8">
     <g id="line2d_65">
      <path d="M 44.012725 7.059249 
L 239.312725 7.059249 
" clip-path="url(#p7648a38b7e)" style="fill: none; stroke-dasharray: 1.85,0.8; stroke-dashoffset: 0; stroke: #000000; stroke-opacity: 0.5; stroke-width: 0.5"/>
     </g>
     <g id="line2d_66">
      <g>
       <use xlink:href="#m6cf70832b6" x="44.012725" y="7.059249" style="stroke: #000000; stroke-width: 0.5"/>
      </g>
     </g>
     <g id="line2d_67">
      <g>
       <use xlink:href="#m0bd1f4a109" x="239.312725" y="7.059249" style="stroke: #000000; stroke-width: 0.5"/>
      </g>
     </g>
     <g id="text_14">
      <!-- $\mathdefault{10^{4}}$ -->
      <g transform="translate(26.578817 10.518498) scale(0.1 -0.1)">
       <use xlink:href="#CMR17-31" transform="scale(0.996264)"/>
       <use xlink:href="#CMR17-30" transform="translate(45.690477 0) scale(0.996264)"/>
       <use xlink:href="#CMR17-34" transform="translate(91.380954 36.153639) scale(0.697382)"/>
      </g>
     </g>
    </g>
    <g id="ytick_9">
     <g id="line2d_68">
      <defs>
       <path id="mdfdfd632d5" d="M 0 0 
L 1.5 0 
" style="stroke: #000000; stroke-width: 0.5"/>
      </defs>
      <g>
       <use xlink:href="#mdfdfd632d5" x="44.012725" y="146.330836" style="stroke: #000000; stroke-width: 0.5"/>
      </g>
     </g>
     <g id="line2d_69">
      <defs>
       <path id="mca0afe4076" d="M 0 0 
L -1.5 0 
" style="stroke: #000000; stroke-width: 0.5"/>
      </defs>
      <g>
       <use xlink:href="#mca0afe4076" x="239.312725" y="146.330836" style="stroke: #000000; stroke-width: 0.5"/>
      </g>
     </g>
    </g>
    <g id="ytick_10">
     <g id="line2d_70">
      <g>
       <use xlink:href="#mdfdfd632d5" x="44.012725" y="142.669898" style="stroke: #000000; stroke-width: 0.5"/>
      </g>
     </g>
     <g id="line2d_71">
      <g>
       <use xlink:href="#mca0afe4076" x="239.312725" y="142.669898" style="stroke: #000000; stroke-width: 0.5"/>
      </g>
     </g>
    </g>
    <g id="ytick_11">
     <g id="line2d_72">
      <g>
       <use xlink:href="#mdfdfd632d5" x="44.012725" y="140.072422" style="stroke: #000000; stroke-width: 0.5"/>
      </g>
     </g>
     <g id="line2d_73">
      <g>
       <use xlink:href="#mca0afe4076" x="239.312725" y="140.072422" style="stroke: #000000; stroke-width: 0.5"/>
      </g>
     </g>
    </g>
    <g id="ytick_12">
     <g id="line2d_74">
      <g>
       <use xlink:href="#mdfdfd632d5" x="44.012725" y="138.057663" style="stroke: #000000; stroke-width: 0.5"/>
      </g>
     </g>
     <g id="line2d_75">
      <g>
       <use xlink:href="#mca0afe4076" x="239.312725" y="138.057663" style="stroke: #000000; stroke-width: 0.5"/>
      </g>
     </g>
    </g>
    <g id="ytick_13">
     <g id="line2d_76">
      <g>
       <use xlink:href="#mdfdfd632d5" x="44.012725" y="136.411485" style="stroke: #000000; stroke-width: 0.5"/>
      </g>
     </g>
     <g id="line2d_77">
      <g>
       <use xlink:href="#mca0afe4076" x="239.312725" y="136.411485" style="stroke: #000000; stroke-width: 0.5"/>
      </g>
     </g>
    </g>
    <g id="ytick_14">
     <g id="line2d_78">
      <g>
       <use xlink:href="#mdfdfd632d5" x="44.012725" y="135.019661" style="stroke: #000000; stroke-width: 0.5"/>
      </g>
     </g>
     <g id="line2d_79">
      <g>
       <use xlink:href="#mca0afe4076" x="239.312725" y="135.019661" style="stroke: #000000; stroke-width: 0.5"/>
      </g>
     </g>
    </g>
    <g id="ytick_15">
     <g id="line2d_80">
      <g>
       <use xlink:href="#mdfdfd632d5" x="44.012725" y="133.814008" style="stroke: #000000; stroke-width: 0.5"/>
      </g>
     </g>
     <g id="line2d_81">
      <g>
       <use xlink:href="#mca0afe4076" x="239.312725" y="133.814008" style="stroke: #000000; stroke-width: 0.5"/>
      </g>
     </g>
    </g>
    <g id="ytick_16">
     <g id="line2d_82">
      <g>
       <use xlink:href="#mdfdfd632d5" x="44.012725" y="132.750547" style="stroke: #000000; stroke-width: 0.5"/>
      </g>
     </g>
     <g id="line2d_83">
      <g>
       <use xlink:href="#mca0afe4076" x="239.312725" y="132.750547" style="stroke: #000000; stroke-width: 0.5"/>
      </g>
     </g>
    </g>
    <g id="ytick_17">
     <g id="line2d_84">
      <g>
       <use xlink:href="#mdfdfd632d5" x="44.012725" y="125.540836" style="stroke: #000000; stroke-width: 0.5"/>
      </g>
     </g>
     <g id="line2d_85">
      <g>
       <use xlink:href="#mca0afe4076" x="239.312725" y="125.540836" style="stroke: #000000; stroke-width: 0.5"/>
      </g>
     </g>
    </g>
    <g id="ytick_18">
     <g id="line2d_86">
      <g>
       <use xlink:href="#mdfdfd632d5" x="44.012725" y="121.879898" style="stroke: #000000; stroke-width: 0.5"/>
      </g>
     </g>
     <g id="line2d_87">
      <g>
       <use xlink:href="#mca0afe4076" x="239.312725" y="121.879898" style="stroke: #000000; stroke-width: 0.5"/>
      </g>
     </g>
    </g>
    <g id="ytick_19">
     <g id="line2d_88">
      <g>
       <use xlink:href="#mdfdfd632d5" x="44.012725" y="119.282422" style="stroke: #000000; stroke-width: 0.5"/>
      </g>
     </g>
     <g id="line2d_89">
      <g>
       <use xlink:href="#mca0afe4076" x="239.312725" y="119.282422" style="stroke: #000000; stroke-width: 0.5"/>
      </g>
     </g>
    </g>
    <g id="ytick_20">
     <g id="line2d_90">
      <g>
       <use xlink:href="#mdfdfd632d5" x="44.012725" y="117.267663" style="stroke: #000000; stroke-width: 0.5"/>
      </g>
     </g>
     <g id="line2d_91">
      <g>
       <use xlink:href="#mca0afe4076" x="239.312725" y="117.267663" style="stroke: #000000; stroke-width: 0.5"/>
      </g>
     </g>
    </g>
    <g id="ytick_21">
     <g id="line2d_92">
      <g>
       <use xlink:href="#mdfdfd632d5" x="44.012725" y="115.621485" style="stroke: #000000; stroke-width: 0.5"/>
      </g>
     </g>
     <g id="line2d_93">
      <g>
       <use xlink:href="#mca0afe4076" x="239.312725" y="115.621485" style="stroke: #000000; stroke-width: 0.5"/>
      </g>
     </g>
    </g>
    <g id="ytick_22">
     <g id="line2d_94">
      <g>
       <use xlink:href="#mdfdfd632d5" x="44.012725" y="114.229661" style="stroke: #000000; stroke-width: 0.5"/>
      </g>
     </g>
     <g id="line2d_95">
      <g>
       <use xlink:href="#mca0afe4076" x="239.312725" y="114.229661" style="stroke: #000000; stroke-width: 0.5"/>
      </g>
     </g>
    </g>
    <g id="ytick_23">
     <g id="line2d_96">
      <g>
       <use xlink:href="#mdfdfd632d5" x="44.012725" y="113.024008" style="stroke: #000000; stroke-width: 0.5"/>
      </g>
     </g>
     <g id="line2d_97">
      <g>
       <use xlink:href="#mca0afe4076" x="239.312725" y="113.024008" style="stroke: #000000; stroke-width: 0.5"/>
      </g>
     </g>
    </g>
    <g id="ytick_24">
     <g id="line2d_98">
      <g>
       <use xlink:href="#mdfdfd632d5" x="44.012725" y="111.960547" style="stroke: #000000; stroke-width: 0.5"/>
      </g>
     </g>
     <g id="line2d_99">
      <g>
       <use xlink:href="#mca0afe4076" x="239.312725" y="111.960547" style="stroke: #000000; stroke-width: 0.5"/>
      </g>
     </g>
    </g>
    <g id="ytick_25">
     <g id="line2d_100">
      <g>
       <use xlink:href="#mdfdfd632d5" x="44.012725" y="104.750836" style="stroke: #000000; stroke-width: 0.5"/>
      </g>
     </g>
     <g id="line2d_101">
      <g>
       <use xlink:href="#mca0afe4076" x="239.312725" y="104.750836" style="stroke: #000000; stroke-width: 0.5"/>
      </g>
     </g>
    </g>
    <g id="ytick_26">
     <g id="line2d_102">
      <g>
       <use xlink:href="#mdfdfd632d5" x="44.012725" y="101.089898" style="stroke: #000000; stroke-width: 0.5"/>
      </g>
     </g>
     <g id="line2d_103">
      <g>
       <use xlink:href="#mca0afe4076" x="239.312725" y="101.089898" style="stroke: #000000; stroke-width: 0.5"/>
      </g>
     </g>
    </g>
    <g id="ytick_27">
     <g id="line2d_104">
      <g>
       <use xlink:href="#mdfdfd632d5" x="44.012725" y="98.492422" style="stroke: #000000; stroke-width: 0.5"/>
      </g>
     </g>
     <g id="line2d_105">
      <g>
       <use xlink:href="#mca0afe4076" x="239.312725" y="98.492422" style="stroke: #000000; stroke-width: 0.5"/>
      </g>
     </g>
    </g>
    <g id="ytick_28">
     <g id="line2d_106">
      <g>
       <use xlink:href="#mdfdfd632d5" x="44.012725" y="96.477663" style="stroke: #000000; stroke-width: 0.5"/>
      </g>
     </g>
     <g id="line2d_107">
      <g>
       <use xlink:href="#mca0afe4076" x="239.312725" y="96.477663" style="stroke: #000000; stroke-width: 0.5"/>
      </g>
     </g>
    </g>
    <g id="ytick_29">
     <g id="line2d_108">
      <g>
       <use xlink:href="#mdfdfd632d5" x="44.012725" y="94.831485" style="stroke: #000000; stroke-width: 0.5"/>
      </g>
     </g>
     <g id="line2d_109">
      <g>
       <use xlink:href="#mca0afe4076" x="239.312725" y="94.831485" style="stroke: #000000; stroke-width: 0.5"/>
      </g>
     </g>
    </g>
    <g id="ytick_30">
     <g id="line2d_110">
      <g>
       <use xlink:href="#mdfdfd632d5" x="44.012725" y="93.439661" style="stroke: #000000; stroke-width: 0.5"/>
      </g>
     </g>
     <g id="line2d_111">
      <g>
       <use xlink:href="#mca0afe4076" x="239.312725" y="93.439661" style="stroke: #000000; stroke-width: 0.5"/>
      </g>
     </g>
    </g>
    <g id="ytick_31">
     <g id="line2d_112">
      <g>
       <use xlink:href="#mdfdfd632d5" x="44.012725" y="92.234008" style="stroke: #000000; stroke-width: 0.5"/>
      </g>
     </g>
     <g id="line2d_113">
      <g>
       <use xlink:href="#mca0afe4076" x="239.312725" y="92.234008" style="stroke: #000000; stroke-width: 0.5"/>
      </g>
     </g>
    </g>
    <g id="ytick_32">
     <g id="line2d_114">
      <g>
       <use xlink:href="#mdfdfd632d5" x="44.012725" y="91.170547" style="stroke: #000000; stroke-width: 0.5"/>
      </g>
     </g>
     <g id="line2d_115">
      <g>
       <use xlink:href="#mca0afe4076" x="239.312725" y="91.170547" style="stroke: #000000; stroke-width: 0.5"/>
      </g>
     </g>
    </g>
    <g id="ytick_33">
     <g id="line2d_116">
      <g>
       <use xlink:href="#mdfdfd632d5" x="44.012725" y="83.960836" style="stroke: #000000; stroke-width: 0.5"/>
      </g>
     </g>
     <g id="line2d_117">
      <g>
       <use xlink:href="#mca0afe4076" x="239.312725" y="83.960836" style="stroke: #000000; stroke-width: 0.5"/>
      </g>
     </g>
    </g>
    <g id="ytick_34">
     <g id="line2d_118">
      <g>
       <use xlink:href="#mdfdfd632d5" x="44.012725" y="80.299898" style="stroke: #000000; stroke-width: 0.5"/>
      </g>
     </g>
     <g id="line2d_119">
      <g>
       <use xlink:href="#mca0afe4076" x="239.312725" y="80.299898" style="stroke: #000000; stroke-width: 0.5"/>
      </g>
     </g>
    </g>
    <g id="ytick_35">
     <g id="line2d_120">
      <g>
       <use xlink:href="#mdfdfd632d5" x="44.012725" y="77.702422" style="stroke: #000000; stroke-width: 0.5"/>
      </g>
     </g>
     <g id="line2d_121">
      <g>
       <use xlink:href="#mca0afe4076" x="239.312725" y="77.702422" style="stroke: #000000; stroke-width: 0.5"/>
      </g>
     </g>
    </g>
    <g id="ytick_36">
     <g id="line2d_122">
      <g>
       <use xlink:href="#mdfdfd632d5" x="44.012725" y="75.687663" style="stroke: #000000; stroke-width: 0.5"/>
      </g>
     </g>
     <g id="line2d_123">
      <g>
       <use xlink:href="#mca0afe4076" x="239.312725" y="75.687663" style="stroke: #000000; stroke-width: 0.5"/>
      </g>
     </g>
    </g>
    <g id="ytick_37">
     <g id="line2d_124">
      <g>
       <use xlink:href="#mdfdfd632d5" x="44.012725" y="74.041485" style="stroke: #000000; stroke-width: 0.5"/>
      </g>
     </g>
     <g id="line2d_125">
      <g>
       <use xlink:href="#mca0afe4076" x="239.312725" y="74.041485" style="stroke: #000000; stroke-width: 0.5"/>
      </g>
     </g>
    </g>
    <g id="ytick_38">
     <g id="line2d_126">
      <g>
       <use xlink:href="#mdfdfd632d5" x="44.012725" y="72.649661" style="stroke: #000000; stroke-width: 0.5"/>
      </g>
     </g>
     <g id="line2d_127">
      <g>
       <use xlink:href="#mca0afe4076" x="239.312725" y="72.649661" style="stroke: #000000; stroke-width: 0.5"/>
      </g>
     </g>
    </g>
    <g id="ytick_39">
     <g id="line2d_128">
      <g>
       <use xlink:href="#mdfdfd632d5" x="44.012725" y="71.444008" style="stroke: #000000; stroke-width: 0.5"/>
      </g>
     </g>
     <g id="line2d_129">
      <g>
       <use xlink:href="#mca0afe4076" x="239.312725" y="71.444008" style="stroke: #000000; stroke-width: 0.5"/>
      </g>
     </g>
    </g>
    <g id="ytick_40">
     <g id="line2d_130">
      <g>
       <use xlink:href="#mdfdfd632d5" x="44.012725" y="70.380547" style="stroke: #000000; stroke-width: 0.5"/>
      </g>
     </g>
     <g id="line2d_131">
      <g>
       <use xlink:href="#mca0afe4076" x="239.312725" y="70.380547" style="stroke: #000000; stroke-width: 0.5"/>
      </g>
     </g>
    </g>
    <g id="ytick_41">
     <g id="line2d_132">
      <g>
       <use xlink:href="#mdfdfd632d5" x="44.012725" y="63.170836" style="stroke: #000000; stroke-width: 0.5"/>
      </g>
     </g>
     <g id="line2d_133">
      <g>
       <use xlink:href="#mca0afe4076" x="239.312725" y="63.170836" style="stroke: #000000; stroke-width: 0.5"/>
      </g>
     </g>
    </g>
    <g id="ytick_42">
     <g id="line2d_134">
      <g>
       <use xlink:href="#mdfdfd632d5" x="44.012725" y="59.509898" style="stroke: #000000; stroke-width: 0.5"/>
      </g>
     </g>
     <g id="line2d_135">
      <g>
       <use xlink:href="#mca0afe4076" x="239.312725" y="59.509898" style="stroke: #000000; stroke-width: 0.5"/>
      </g>
     </g>
    </g>
    <g id="ytick_43">
     <g id="line2d_136">
      <g>
       <use xlink:href="#mdfdfd632d5" x="44.012725" y="56.912422" style="stroke: #000000; stroke-width: 0.5"/>
      </g>
     </g>
     <g id="line2d_137">
      <g>
       <use xlink:href="#mca0afe4076" x="239.312725" y="56.912422" style="stroke: #000000; stroke-width: 0.5"/>
      </g>
     </g>
    </g>
    <g id="ytick_44">
     <g id="line2d_138">
      <g>
       <use xlink:href="#mdfdfd632d5" x="44.012725" y="54.897663" style="stroke: #000000; stroke-width: 0.5"/>
      </g>
     </g>
     <g id="line2d_139">
      <g>
       <use xlink:href="#mca0afe4076" x="239.312725" y="54.897663" style="stroke: #000000; stroke-width: 0.5"/>
      </g>
     </g>
    </g>
    <g id="ytick_45">
     <g id="line2d_140">
      <g>
       <use xlink:href="#mdfdfd632d5" x="44.012725" y="53.251485" style="stroke: #000000; stroke-width: 0.5"/>
      </g>
     </g>
     <g id="line2d_141">
      <g>
       <use xlink:href="#mca0afe4076" x="239.312725" y="53.251485" style="stroke: #000000; stroke-width: 0.5"/>
      </g>
     </g>
    </g>
    <g id="ytick_46">
     <g id="line2d_142">
      <g>
       <use xlink:href="#mdfdfd632d5" x="44.012725" y="51.859661" style="stroke: #000000; stroke-width: 0.5"/>
      </g>
     </g>
     <g id="line2d_143">
      <g>
       <use xlink:href="#mca0afe4076" x="239.312725" y="51.859661" style="stroke: #000000; stroke-width: 0.5"/>
      </g>
     </g>
    </g>
    <g id="ytick_47">
     <g id="line2d_144">
      <g>
       <use xlink:href="#mdfdfd632d5" x="44.012725" y="50.654008" style="stroke: #000000; stroke-width: 0.5"/>
      </g>
     </g>
     <g id="line2d_145">
      <g>
       <use xlink:href="#mca0afe4076" x="239.312725" y="50.654008" style="stroke: #000000; stroke-width: 0.5"/>
      </g>
     </g>
    </g>
    <g id="ytick_48">
     <g id="line2d_146">
      <g>
       <use xlink:href="#mdfdfd632d5" x="44.012725" y="49.590547" style="stroke: #000000; stroke-width: 0.5"/>
      </g>
     </g>
     <g id="line2d_147">
      <g>
       <use xlink:href="#mca0afe4076" x="239.312725" y="49.590547" style="stroke: #000000; stroke-width: 0.5"/>
      </g>
     </g>
    </g>
    <g id="ytick_49">
     <g id="line2d_148">
      <g>
       <use xlink:href="#mdfdfd632d5" x="44.012725" y="42.380836" style="stroke: #000000; stroke-width: 0.5"/>
      </g>
     </g>
     <g id="line2d_149">
      <g>
       <use xlink:href="#mca0afe4076" x="239.312725" y="42.380836" style="stroke: #000000; stroke-width: 0.5"/>
      </g>
     </g>
    </g>
    <g id="ytick_50">
     <g id="line2d_150">
      <g>
       <use xlink:href="#mdfdfd632d5" x="44.012725" y="38.719898" style="stroke: #000000; stroke-width: 0.5"/>
      </g>
     </g>
     <g id="line2d_151">
      <g>
       <use xlink:href="#mca0afe4076" x="239.312725" y="38.719898" style="stroke: #000000; stroke-width: 0.5"/>
      </g>
     </g>
    </g>
    <g id="ytick_51">
     <g id="line2d_152">
      <g>
       <use xlink:href="#mdfdfd632d5" x="44.012725" y="36.122422" style="stroke: #000000; stroke-width: 0.5"/>
      </g>
     </g>
     <g id="line2d_153">
      <g>
       <use xlink:href="#mca0afe4076" x="239.312725" y="36.122422" style="stroke: #000000; stroke-width: 0.5"/>
      </g>
     </g>
    </g>
    <g id="ytick_52">
     <g id="line2d_154">
      <g>
       <use xlink:href="#mdfdfd632d5" x="44.012725" y="34.107663" style="stroke: #000000; stroke-width: 0.5"/>
      </g>
     </g>
     <g id="line2d_155">
      <g>
       <use xlink:href="#mca0afe4076" x="239.312725" y="34.107663" style="stroke: #000000; stroke-width: 0.5"/>
      </g>
     </g>
    </g>
    <g id="ytick_53">
     <g id="line2d_156">
      <g>
       <use xlink:href="#mdfdfd632d5" x="44.012725" y="32.461485" style="stroke: #000000; stroke-width: 0.5"/>
      </g>
     </g>
     <g id="line2d_157">
      <g>
       <use xlink:href="#mca0afe4076" x="239.312725" y="32.461485" style="stroke: #000000; stroke-width: 0.5"/>
      </g>
     </g>
    </g>
    <g id="ytick_54">
     <g id="line2d_158">
      <g>
       <use xlink:href="#mdfdfd632d5" x="44.012725" y="31.069661" style="stroke: #000000; stroke-width: 0.5"/>
      </g>
     </g>
     <g id="line2d_159">
      <g>
       <use xlink:href="#mca0afe4076" x="239.312725" y="31.069661" style="stroke: #000000; stroke-width: 0.5"/>
      </g>
     </g>
    </g>
    <g id="ytick_55">
     <g id="line2d_160">
      <g>
       <use xlink:href="#mdfdfd632d5" x="44.012725" y="29.864008" style="stroke: #000000; stroke-width: 0.5"/>
      </g>
     </g>
     <g id="line2d_161">
      <g>
       <use xlink:href="#mca0afe4076" x="239.312725" y="29.864008" style="stroke: #000000; stroke-width: 0.5"/>
      </g>
     </g>
    </g>
    <g id="ytick_56">
     <g id="line2d_162">
      <g>
       <use xlink:href="#mdfdfd632d5" x="44.012725" y="28.800547" style="stroke: #000000; stroke-width: 0.5"/>
      </g>
     </g>
     <g id="line2d_163">
      <g>
       <use xlink:href="#mca0afe4076" x="239.312725" y="28.800547" style="stroke: #000000; stroke-width: 0.5"/>
      </g>
     </g>
    </g>
    <g id="ytick_57">
     <g id="line2d_164">
      <g>
       <use xlink:href="#mdfdfd632d5" x="44.012725" y="21.590836" style="stroke: #000000; stroke-width: 0.5"/>
      </g>
     </g>
     <g id="line2d_165">
      <g>
       <use xlink:href="#mca0afe4076" x="239.312725" y="21.590836" style="stroke: #000000; stroke-width: 0.5"/>
      </g>
     </g>
    </g>
    <g id="ytick_58">
     <g id="line2d_166">
      <g>
       <use xlink:href="#mdfdfd632d5" x="44.012725" y="17.929898" style="stroke: #000000; stroke-width: 0.5"/>
      </g>
     </g>
     <g id="line2d_167">
      <g>
       <use xlink:href="#mca0afe4076" x="239.312725" y="17.929898" style="stroke: #000000; stroke-width: 0.5"/>
      </g>
     </g>
    </g>
    <g id="ytick_59">
     <g id="line2d_168">
      <g>
       <use xlink:href="#mdfdfd632d5" x="44.012725" y="15.332422" style="stroke: #000000; stroke-width: 0.5"/>
      </g>
     </g>
     <g id="line2d_169">
      <g>
       <use xlink:href="#mca0afe4076" x="239.312725" y="15.332422" style="stroke: #000000; stroke-width: 0.5"/>
      </g>
     </g>
    </g>
    <g id="ytick_60">
     <g id="line2d_170">
      <g>
       <use xlink:href="#mdfdfd632d5" x="44.012725" y="13.317663" style="stroke: #000000; stroke-width: 0.5"/>
      </g>
     </g>
     <g id="line2d_171">
      <g>
       <use xlink:href="#mca0afe4076" x="239.312725" y="13.317663" style="stroke: #000000; stroke-width: 0.5"/>
      </g>
     </g>
    </g>
    <g id="ytick_61">
     <g id="line2d_172">
      <g>
       <use xlink:href="#mdfdfd632d5" x="44.012725" y="11.671485" style="stroke: #000000; stroke-width: 0.5"/>
      </g>
     </g>
     <g id="line2d_173">
      <g>
       <use xlink:href="#mca0afe4076" x="239.312725" y="11.671485" style="stroke: #000000; stroke-width: 0.5"/>
      </g>
     </g>
    </g>
    <g id="ytick_62">
     <g id="line2d_174">
      <g>
       <use xlink:href="#mdfdfd632d5" x="44.012725" y="10.279661" style="stroke: #000000; stroke-width: 0.5"/>
      </g>
     </g>
     <g id="line2d_175">
      <g>
       <use xlink:href="#mca0afe4076" x="239.312725" y="10.279661" style="stroke: #000000; stroke-width: 0.5"/>
      </g>
     </g>
    </g>
    <g id="ytick_63">
     <g id="line2d_176">
      <g>
       <use xlink:href="#mdfdfd632d5" x="44.012725" y="9.074008" style="stroke: #000000; stroke-width: 0.5"/>
      </g>
     </g>
     <g id="line2d_177">
      <g>
       <use xlink:href="#mca0afe4076" x="239.312725" y="9.074008" style="stroke: #000000; stroke-width: 0.5"/>
      </g>
     </g>
    </g>
    <g id="ytick_64">
     <g id="line2d_178">
      <g>
       <use xlink:href="#mdfdfd632d5" x="44.012725" y="8.010547" style="stroke: #000000; stroke-width: 0.5"/>
      </g>
     </g>
     <g id="line2d_179">
      <g>
       <use xlink:href="#mca0afe4076" x="239.312725" y="8.010547" style="stroke: #000000; stroke-width: 0.5"/>
      </g>
     </g>
    </g>
    <g id="text_15">
     <!-- $FFT$ -->
     <g transform="translate(13.562625 94.985154) rotate(-90) scale(0.144 -0.144)">
      <defs>
       <path id="CMMI12-46" d="M 1901 2055 
L 2515 2055 
C 3002 2055 3040 1946 3040 1761 
C 3040 1678 3027 1589 2995 1448 
C 2982 1423 2976 1391 2976 1378 
C 2976 1333 3002 1308 3046 1308 
C 3098 1308 3104 1333 3130 1435 
L 3501 2935 
C 3501 2961 3482 2999 3437 2999 
C 3379 2999 3373 2974 3347 2863 
C 3213 2376 3085 2240 2528 2240 
L 1946 2240 
L 2362 3926 
C 2419 4154 2432 4154 2694 4154 
L 3552 4154 
C 4352 4154 4467 3918 4467 3464 
C 4467 3426 4467 3285 4448 3119 
C 4442 3094 4429 3011 4429 2985 
C 4429 2934 4461 2915 4499 2915 
C 4544 2915 4570 2941 4582 3055 
L 4717 4174 
C 4717 4195 4730 4263 4730 4277 
C 4730 4352 4672 4352 4557 4352 
L 1523 4352 
C 1402 4352 1338 4352 1338 4229 
C 1338 4154 1382 4154 1491 4154 
C 1888 4154 1888 4113 1888 4050 
C 1888 4018 1882 3992 1862 3922 
L 998 473 
C 941 249 928 185 480 185 
C 358 185 294 185 294 70 
C 294 0 352 0 390 0 
C 512 0 640 0 762 0 
L 1594 0 
C 1734 0 1888 0 2029 0 
C 2086 0 2163 0 2163 115 
C 2163 185 2125 185 1984 185 
C 1478 185 1466 229 1466 324 
C 1466 356 1478 406 1491 449 
L 1901 2055 
z
" transform="scale(0.015625)"/>
       <path id="CMMI12-54" d="M 2669 3910 
C 2707 4064 2720 4121 2816 4147 
C 2867 4160 3078 4160 3213 4160 
C 3853 4160 4154 4134 4154 3634 
C 4154 3537 4128 3295 4090 3057 
L 4083 2980 
C 4083 2954 4109 2916 4147 2916 
C 4211 2916 4211 2948 4230 3050 
L 4416 4184 
C 4429 4243 4429 4256 4429 4275 
C 4429 4345 4390 4345 4262 4345 
L 762 4345 
C 614 4345 608 4339 570 4224 
L 179 3070 
C 173 3056 154 2986 154 2980 
C 154 2948 179 2916 218 2916 
C 269 2916 282 2941 307 3024 
C 576 3801 710 4160 1562 4160 
L 1990 4160 
C 2144 4160 2208 4160 2208 4089 
C 2208 4069 2208 4057 2176 3941 
L 1318 499 
C 1254 249 1242 185 563 185 
C 403 185 358 185 358 64 
C 358 0 429 0 461 0 
C 621 0 787 0 947 0 
L 1946 0 
C 2106 0 2278 0 2438 0 
C 2509 0 2573 0 2573 121 
C 2573 185 2528 185 2362 185 
C 1786 185 1786 243 1786 339 
C 1786 346 1786 391 1811 494 
L 2669 3910 
z
" transform="scale(0.015625)"/>
      </defs>
      <use xlink:href="#CMMI12-46" transform="scale(0.996264)"/>
      <use xlink:href="#CMMI12-46" transform="translate(76.696793 0) scale(0.996264)"/>
      <use xlink:href="#CMMI12-54" transform="translate(153.393585 0) scale(0.996264)"/>
     </g>
    </g>
   </g>
   <g id="line2d_180">
    <path d="M 44.012725 101.291923 
L 44.37033 92.063273 
L 44.489532 92.799007 
L 44.847137 104.405773 
L 44.966339 102.977397 
L 45.204742 106.58514 
L 45.562347 89.515775 
L 45.80075 84.559943 
L 45.919952 83.507624 
L 46.039154 83.482854 
L 46.158355 84.596515 
L 46.396759 91.17346 
L 46.635162 109.13226 
L 46.873565 98.166664 
L 47.588775 90.807888 
L 47.827178 93.237209 
L 47.94638 92.656493 
L 48.184783 89.654828 
L 48.303985 89.549236 
L 48.423187 89.955384 
L 48.542388 90.786257 
L 48.66159 92.551441 
L 48.899993 102.624343 
L 49.019195 108.795445 
L 49.257598 95.577831 
L 49.496002 92.636548 
L 49.615203 93.581197 
L 49.972808 99.53719 
L 50.09201 100.692043 
L 50.211212 100.63988 
L 50.449615 93.798526 
L 50.568817 93.21807 
L 50.688018 94.199377 
L 50.926422 98.837902 
L 51.045623 103.758784 
L 51.164825 115.939764 
L 51.284027 114.091375 
L 51.403228 109.918686 
L 51.641632 93.02014 
L 51.760833 92.506985 
L 51.880035 96.421444 
L 52.118438 106.514414 
L 52.356842 94.187035 
L 52.476043 101.147048 
L 52.595245 90.362738 
L 52.714447 90.517485 
L 52.833648 89.377373 
L 52.95285 77.449685 
L 53.072052 78.501066 
L 53.191253 72.887232 
L 53.429657 51.779268 
L 53.66806 45.177304 
L 53.787261 44.514586 
L 53.906463 45.43037 
L 54.144866 52.675072 
L 54.264068 60.415726 
L 54.502471 78.005385 
L 54.621673 79.538857 
L 54.740875 107.1191 
L 54.860076 86.113463 
L 54.979278 88.294456 
L 55.09848 108.141528 
L 55.217681 96.83493 
L 55.336883 98.798604 
L 55.456085 107.042463 
L 55.81369 96.210421 
L 55.932891 96.343335 
L 56.290496 100.142163 
L 56.5289 105.266175 
L 56.648101 104.113908 
L 56.767303 104.175788 
L 57.005706 109.725852 
L 57.24411 103.284674 
L 57.482513 99.568667 
L 58.197723 106.644877 
L 58.316925 110.062184 
L 58.436126 117.715425 
L 58.67453 101.434891 
L 58.793731 99.414932 
L 58.912933 99.316836 
L 59.508941 104.379419 
L 59.747344 111.707197 
L 59.985748 98.223782 
L 60.224151 95.17445 
L 60.581756 95.976209 
L 60.700958 95.649808 
L 60.820159 95.998837 
L 60.939361 97.967427 
L 61.177764 109.571201 
L 61.416168 94.680787 
L 61.654571 92.331184 
L 61.892974 94.176917 
L 62.131378 96.223579 
L 62.369781 96.688533 
L 62.488983 97.450241 
L 63.084991 104.345544 
L 63.204193 104.94502 
L 63.561798 110.54728 
L 63.680999 109.592309 
L 64.277008 97.723237 
L 64.396209 97.444424 
L 64.515411 98.090835 
L 65.111419 105.109225 
L 65.230621 105.590148 
L 65.349823 104.698303 
L 65.588226 100.933718 
L 65.707427 100.717973 
L 65.826629 102.363349 
L 66.065032 113.834741 
L 66.422637 98.846023 
L 66.661041 96.226327 
L 66.780242 95.897394 
L 66.899444 96.270041 
L 67.018646 97.620595 
L 67.137847 100.517652 
L 67.257049 106.461002 
L 67.376251 125.742267 
L 67.614654 106.991572 
L 67.853057 108.682896 
L 68.210662 100.468019 
L 68.329864 100.261193 
L 68.568267 102.371935 
L 68.806671 106.298321 
L 69.045074 114.562192 
L 69.164276 123.226659 
L 69.402679 111.679935 
L 69.521881 110.430545 
L 69.641082 111.633483 
L 69.760284 111.095502 
L 69.998687 103.035489 
L 70.117889 101.610708 
L 70.237091 101.653692 
L 70.475494 102.449968 
L 70.713897 101.246506 
L 70.833099 102.437212 
L 70.952301 106.458666 
L 71.071502 116.000553 
L 71.548309 105.831949 
L 71.667511 104.066092 
L 71.786712 104.383517 
L 72.025115 107.767231 
L 72.144317 108.129682 
L 72.263519 117.063314 
L 72.501922 94.635587 
L 72.621124 96.860165 
L 72.740325 92.782351 
L 72.978729 72.187652 
L 73.217132 66.123052 
L 73.336334 65.706234 
L 73.455535 66.865294 
L 73.693939 74.575189 
L 74.170745 98.785222 
L 74.289947 99.62315 
L 74.409149 101.347767 
L 74.647552 112.328845 
L 74.885955 102.65322 
L 75.005157 102.765361 
L 75.362762 106.709663 
L 75.601165 114.964477 
L 75.720367 113.062552 
L 76.077972 101.264906 
L 76.316375 99.257664 
L 76.435577 100.200553 
L 76.793182 107.376289 
L 77.150787 104.896368 
L 77.269989 105.524843 
L 77.508392 108.40614 
L 77.746795 105.909438 
L 77.865997 106.651445 
L 78.223602 112.805616 
L 78.462005 111.658975 
L 78.581207 113.340568 
L 78.700408 120.139642 
L 79.058013 102.629817 
L 79.177215 101.137366 
L 79.296417 101.184079 
L 79.53482 105.268223 
L 80.011627 120.532358 
L 80.130828 120.491701 
L 80.25003 120.702182 
L 80.369232 124.058955 
L 80.488433 146.558541 
L 80.726837 114.647186 
L 80.96524 108.074076 
L 81.203643 105.810305 
L 81.322845 105.994805 
L 81.442047 107.448191 
L 81.68045 116.522322 
L 81.918853 103.626757 
L 82.157257 100.363316 
L 82.276458 101.077661 
L 82.39566 103.314431 
L 82.514862 107.734327 
L 82.634063 117.32642 
L 82.753265 116.889917 
L 82.991668 109.184769 
L 83.11087 108.834548 
L 83.468475 104.313299 
L 83.587677 106.151674 
L 83.82608 118.526623 
L 84.064483 111.142533 
L 84.183685 111.20511 
L 84.422088 113.207983 
L 84.54129 112.690772 
L 84.660491 113.034578 
L 84.779693 115.816167 
L 84.898895 124.40261 
L 85.018096 124.624477 
L 85.2565 111.013542 
L 85.494903 108.700951 
L 85.614105 109.246088 
L 85.733306 110.829337 
L 85.852508 114.508378 
L 85.97171 126.695911 
L 86.329315 109.282347 
L 86.448516 109.191451 
L 86.567718 109.335581 
L 86.806121 105.734654 
L 87.282928 98.678385 
L 87.40213 98.202507 
L 87.521331 98.495371 
L 87.759735 101.10233 
L 88.11734 108.809205 
L 88.355743 118.565027 
L 88.474945 115.679693 
L 88.713348 104.631598 
L 88.951751 100.893177 
L 89.070953 100.924238 
L 89.309356 104.319237 
L 89.666961 114.734436 
L 90.143768 103.933142 
L 90.262969 103.654412 
L 90.501373 104.700263 
L 91.216583 109.70245 
L 91.335784 109.901837 
L 91.454986 109.41043 
L 91.693389 106.414243 
L 92.050994 101.520309 
L 92.170196 106.673982 
L 92.289398 102.042782 
L 92.527801 84.067319 
L 92.766204 78.85545 
L 92.885406 78.773786 
L 93.004608 80.292314 
L 93.243011 89.27498 
L 93.481414 107.954203 
L 93.600616 107.111408 
L 93.719818 109.042328 
L 93.958221 106.075035 
L 94.315826 114.356348 
L 94.554229 109.957441 
L 94.911834 103.397905 
L 95.031036 102.984063 
L 95.269439 103.375169 
L 95.865448 102.383094 
L 95.984649 102.738898 
L 96.223052 105.044366 
L 96.699859 112.480159 
L 96.938262 114.879621 
L 97.295867 107.079658 
L 97.415069 107.869688 
L 97.534271 110.861723 
L 97.772674 122.875975 
L 98.130279 105.848109 
L 98.368682 101.882891 
L 98.607086 101.138619 
L 98.726287 101.20496 
L 98.845489 101.486322 
L 99.083892 103.179809 
L 99.679901 110.698684 
L 100.037506 117.805607 
L 100.156707 117.426805 
L 100.514312 109.894123 
L 100.633514 110.024075 
L 100.752716 112.595989 
L 100.991119 120.362277 
L 101.229522 108.441683 
L 101.467926 105.379438 
L 101.706329 104.444318 
L 101.825531 104.614634 
L 102.063934 105.718102 
L 102.183136 105.48945 
L 102.421539 104.214576 
L 102.54074 104.201707 
L 103.017547 105.361847 
L 103.136749 106.125503 
L 103.494354 110.396562 
L 103.732757 107.878449 
L 103.851959 109.122109 
L 103.97116 113.262996 
L 104.090362 122.239184 
L 104.447967 109.294587 
L 104.805572 106.295085 
L 104.924774 106.304735 
L 105.043975 107.268431 
L 105.40158 115.557381 
L 105.520782 115.428363 
L 105.639984 114.905845 
L 105.759185 114.91356 
L 105.878387 114.454977 
L 106.11679 112.586411 
L 106.235992 113.274517 
L 106.355194 116.65491 
L 106.474395 130.691623 
L 106.712799 111.059004 
L 106.951202 106.161055 
L 107.070404 106.276831 
L 107.189605 107.942279 
L 107.54721 117.425406 
L 107.785614 113.564975 
L 107.904815 113.107604 
L 108.024017 113.909849 
L 108.381622 120.833764 
L 108.739227 114.23062 
L 108.858428 113.310035 
L 108.97763 114.224834 
L 109.096832 116.799456 
L 109.216033 115.409725 
L 109.454437 109.738872 
L 109.573638 110.639554 
L 109.69284 115.40147 
L 109.812042 134.679052 
L 110.050445 111.561828 
L 110.169647 111.59711 
L 110.40805 115.643274 
L 110.646453 112.385621 
L 111.12326 116.821499 
L 111.361663 128.606634 
L 111.600067 111.835142 
L 111.83847 116.120494 
L 112.076873 96.042717 
L 112.315277 91.051744 
L 112.434478 91.136256 
L 112.55368 92.88594 
L 112.792083 103.511279 
L 112.911285 120.311382 
L 113.149688 109.239273 
L 113.26889 109.622016 
L 113.507293 110.638266 
L 113.745697 109.945122 
L 113.864898 111.716643 
L 114.103302 122.807552 
L 114.341705 110.097933 
L 114.580108 107.544689 
L 114.818511 106.997158 
L 114.937713 107.370167 
L 115.176116 110.596969 
L 115.533721 115.439994 
L 115.772125 116.008791 
L 115.891326 116.499378 
L 116.010528 115.550814 
L 116.248931 111.739154 
L 116.368133 111.703941 
L 116.606536 115.726094 
L 116.725738 117.539257 
L 116.84494 116.998255 
L 117.083343 115.076526 
L 117.202545 114.843906 
L 117.440948 115.002364 
L 117.798553 113.071963 
L 117.917755 113.38948 
L 118.036956 112.491392 
L 118.27536 108.424882 
L 118.394561 108.176925 
L 118.513763 109.637874 
L 118.632965 113.301781 
L 118.871368 123.01468 
L 119.109771 112.389137 
L 119.228973 111.511721 
L 119.348175 112.005995 
L 119.467376 113.038526 
L 119.586578 113.016204 
L 119.944183 109.155998 
L 120.063385 109.906813 
L 120.182586 112.703175 
L 120.42099 125.164213 
L 120.659393 114.513401 
L 120.897796 113.768591 
L 121.016998 113.695332 
L 121.136199 114.252053 
L 121.493804 118.914559 
L 121.613006 121.393987 
L 121.732208 118.549933 
L 121.970611 109.647182 
L 122.089813 108.572043 
L 122.209014 109.535833 
L 122.447418 114.918642 
L 122.685821 112.710962 
L 122.805023 113.136208 
L 123.281829 118.076522 
L 123.401031 118.77144 
L 123.758636 113.750452 
L 123.877838 113.830305 
L 123.997039 115.788713 
L 124.116241 119.985188 
L 124.235443 119.314985 
L 124.473846 110.060229 
L 124.593048 108.48289 
L 124.712249 108.474274 
L 124.831451 109.934275 
L 125.189056 118.520508 
L 125.665863 113.042786 
L 125.785064 114.425644 
L 125.904266 118.772472 
L 126.023468 134.746707 
L 126.261871 117.787807 
L 126.619476 114.391342 
L 126.977081 108.233443 
L 127.096282 108.01264 
L 127.215484 108.618045 
L 127.573089 111.591186 
L 127.811492 109.600101 
L 127.930694 109.449059 
L 128.049896 110.239682 
L 128.765106 121.574536 
L 128.884307 125.675065 
L 129.003509 137.598867 
L 129.361114 114.17717 
L 129.599517 109.609176 
L 129.718719 109.277128 
L 129.837921 110.423526 
L 130.076324 113.740024 
L 130.314727 112.349806 
L 130.433929 114.492155 
L 130.553131 120.459485 
L 130.672332 138.093683 
L 130.910736 120.067656 
L 131.268341 109.41642 
L 131.387542 108.906765 
L 131.506744 109.493566 
L 131.625946 109.352226 
L 131.864349 106.43702 
L 131.983551 106.516346 
L 132.221954 110.701309 
L 132.460357 114.892387 
L 132.937164 119.407897 
L 133.056365 119.252817 
L 133.175567 118.317254 
L 133.533172 112.912546 
L 133.652374 112.702956 
L 134.248382 116.459284 
L 134.486785 119.492206 
L 134.725189 124.763798 
L 135.082794 111.724987 
L 135.321197 109.829397 
L 135.678802 110.999466 
L 135.798004 111.146145 
L 136.036407 113.142223 
L 136.155609 114.30209 
L 136.27481 114.348854 
L 136.513214 112.319405 
L 136.632415 112.483519 
L 136.751617 114.865937 
L 136.870819 120.863714 
L 136.99002 119.182348 
L 137.228424 111.655096 
L 137.347625 112.645591 
L 137.586029 125.880632 
L 137.824432 111.791227 
L 137.943634 110.351275 
L 138.062835 110.798267 
L 138.182037 112.931984 
L 138.301239 117.216807 
L 138.539642 128.772733 
L 138.778045 115.877919 
L 138.897247 114.627254 
L 139.016448 114.585342 
L 139.493255 116.768489 
L 139.612457 115.745983 
L 140.089263 108.479236 
L 140.208465 108.734467 
L 140.327667 110.21315 
L 140.56607 119.197486 
L 140.685272 131.343046 
L 140.923675 116.768513 
L 141.042877 115.452548 
L 141.162078 116.003179 
L 141.28128 118.308845 
L 141.400482 123.201073 
L 141.519683 135.578503 
L 141.758087 124.724087 
L 141.877288 124.506769 
L 141.99649 128.527588 
L 142.115692 158.105717 
L 142.354095 119.407543 
L 142.592498 113.344612 
L 142.7117 112.647553 
L 142.830902 113.59752 
L 142.950103 116.693644 
L 143.188507 124.999752 
L 143.42691 119.294119 
L 143.665313 120.974602 
L 143.784515 120.248634 
L 144.022918 117.073245 
L 144.14212 117.161314 
L 144.261322 119.048625 
L 144.380523 123.484255 
L 144.499725 133.425021 
L 144.618927 129.909653 
L 144.85733 119.393262 
L 145.095733 117.049062 
L 145.214935 117.919021 
L 145.453338 124.938709 
L 145.57254 128.566779 
L 145.810943 124.381427 
L 146.168548 114.823307 
L 146.28775 113.795063 
L 146.406951 114.019356 
L 146.645355 117.500637 
L 146.883758 121.990572 
L 147.00296 121.693778 
L 147.360565 117.051156 
L 147.598968 121.377519 
L 148.075775 110.974124 
L 148.194976 111.765561 
L 148.43338 118.801727 
L 148.552581 122.385204 
L 149.029388 113.127618 
L 149.14859 112.08668 
L 149.267791 112.089653 
L 149.386993 113.304427 
L 149.983001 125.556929 
L 150.340606 119.40271 
L 150.459808 120.038334 
L 150.817413 125.898029 
L 151.294219 112.264315 
L 151.413421 111.15356 
L 151.532623 111.270376 
L 151.651824 112.735703 
L 152.009429 123.106463 
L 152.247833 121.743941 
L 152.367034 122.060789 
L 153.201446 107.177726 
L 153.320648 107.619267 
L 153.678253 110.724429 
L 153.916656 109.286945 
L 154.035858 109.636386 
L 154.751068 114.012908 
L 154.870269 114.001385 
L 155.227874 113.052262 
L 155.347076 113.672172 
L 155.943084 120.660122 
L 156.062286 119.114295 
L 156.300689 113.641045 
L 156.419891 112.724533 
L 156.539093 113.258054 
L 156.777496 115.726743 
L 157.254302 109.534358 
L 157.373504 109.933249 
L 157.611907 113.777808 
L 157.850311 119.740633 
L 157.969512 119.739608 
L 158.088714 119.934437 
L 158.207916 122.399385 
L 158.327117 129.681848 
L 158.446319 126.351176 
L 158.684722 115.765535 
L 158.803924 115.215668 
L 158.923126 117.078763 
L 159.161529 125.596127 
L 159.399932 119.887072 
L 159.519134 119.207462 
L 159.638336 119.467857 
L 159.876739 123.599772 
L 160.234344 116.629842 
L 160.353546 116.866489 
L 160.711151 121.413618 
L 160.949554 125.108089 
L 161.187957 115.526793 
L 161.307159 113.716297 
L 161.426361 114.060144 
L 161.545562 117.057807 
L 161.664764 123.808008 
L 161.783966 121.280317 
L 162.022369 114.432383 
L 162.141571 115.068921 
L 162.260772 118.556989 
L 162.379974 131.179563 
L 162.618377 113.492838 
L 162.856781 110.067536 
L 162.975982 111.632042 
L 163.333587 126.66633 
L 163.452789 124.925931 
L 163.57199 127.397459 
L 163.691192 124.560547 
L 163.929595 114.101138 
L 164.167999 110.204677 
L 164.2872 109.398702 
L 164.406402 109.412166 
L 164.525604 110.592696 
L 164.764007 116.581075 
L 164.883209 116.043304 
L 165.121612 113.845661 
L 165.479217 118.612029 
L 165.71762 125.020699 
L 165.956024 136.247495 
L 166.313629 125.169592 
L 166.43283 125.401464 
L 166.790435 132.199992 
L 167.14804 114.038607 
L 167.267242 112.571557 
L 167.386444 113.236311 
L 167.505645 116.429137 
L 167.624847 123.107087 
L 167.744049 123.241806 
L 167.982452 118.479386 
L 168.101654 121.210344 
L 168.340057 134.808689 
L 168.57846 123.849771 
L 168.816864 118.667457 
L 169.174469 112.271751 
L 169.412872 111.531546 
L 169.532073 111.692933 
L 169.651275 112.312405 
L 169.889678 115.958574 
L 170.128082 119.156592 
L 170.247283 119.095564 
L 170.366485 120.106429 
L 170.604888 126.023673 
L 171.081695 113.228669 
L 171.200897 113.386388 
L 171.4393 117.849053 
L 171.796905 128.058461 
L 171.916107 126.534978 
L 172.15451 120.219935 
L 172.273712 119.684374 
L 172.392913 119.744866 
L 172.750518 117.515409 
L 172.86972 118.651584 
L 173.346527 128.44306 
L 173.704132 117.934585 
L 173.823333 119.042563 
L 173.942535 123.082265 
L 174.061737 121.552703 
L 174.30014 112.232207 
L 174.419342 111.004152 
L 174.538543 111.566942 
L 174.657745 114.206718 
L 174.776947 120.65494 
L 174.896148 133.732445 
L 175.134552 114.452257 
L 175.253753 112.943236 
L 175.372955 112.878437 
L 175.492157 113.289384 
L 175.611358 113.244224 
L 175.73056 113.030708 
L 175.849761 113.67933 
L 176.088165 117.579243 
L 176.207366 117.332493 
L 176.326568 116.798733 
L 176.564971 120.489579 
L 176.922576 113.489602 
L 177.041778 113.85212 
L 177.16098 116.395582 
L 177.280181 121.414171 
L 177.399383 121.307392 
L 177.637786 112.637908 
L 177.87619 109.778687 
L 177.995391 109.874813 
L 178.114593 111.399491 
L 178.233795 115.420924 
L 178.352996 126.639042 
L 178.710601 112.747098 
L 178.829803 113.206955 
L 179.30661 120.456268 
L 179.545013 119.955078 
L 179.664215 120.977925 
L 179.902618 126.630539 
L 180.141021 123.540845 
L 180.260223 124.48061 
L 180.498626 128.091719 
L 180.856231 117.396591 
L 180.975433 116.243981 
L 181.094635 116.832392 
L 181.213836 120.177374 
L 181.333038 132.610289 
L 181.690643 111.900162 
L 181.929046 109.562962 
L 182.048248 109.941263 
L 182.405853 113.292771 
L 182.525054 113.113298 
L 182.882659 111.41714 
L 183.001861 111.60091 
L 183.359466 112.671696 
L 183.478668 112.704381 
L 183.597869 112.585075 
L 183.955474 111.582746 
L 184.074676 112.018765 
L 184.313079 114.94554 
L 184.670684 118.773218 
L 184.909088 121.297871 
L 185.147491 125.407177 
L 185.266693 124.099976 
L 185.624298 118.408521 
L 185.862701 116.073385 
L 186.101104 113.354004 
L 186.220306 113.230827 
L 186.339508 114.416719 
L 186.577911 121.015921 
L 186.816314 128.747604 
L 186.935516 129.113656 
L 187.173919 123.047407 
L 187.293121 123.03201 
L 187.531524 127.501221 
L 187.889129 120.008928 
L 188.008331 120.038676 
L 188.127532 122.383279 
L 188.246734 129.480988 
L 188.365936 128.732417 
L 188.604339 117.409623 
L 188.723541 116.643247 
L 188.842742 117.56085 
L 189.319549 123.357051 
L 189.438751 124.106876 
L 189.915557 119.660239 
L 190.153961 118.718607 
L 190.511566 115.25898 
L 190.630767 115.287241 
L 190.988372 118.697978 
L 191.226776 117.745888 
L 191.345977 118.430992 
L 191.465179 121.153389 
L 191.584381 127.927109 
L 191.703582 127.185732 
L 191.941986 117.178788 
L 192.061187 116.397644 
L 192.180389 117.047397 
L 192.537994 119.904587 
L 192.895599 121.199898 
L 193.253204 116.444984 
L 193.491607 113.860623 
L 193.610809 113.706194 
L 193.730011 114.799873 
L 193.849212 117.690459 
L 194.087615 130.798857 
L 194.326019 121.303533 
L 194.44522 121.487282 
L 194.683624 127.01184 
L 194.922027 131.88857 
L 195.041229 129.615319 
L 195.398834 119.506892 
L 195.518035 118.899578 
L 195.756439 120.701431 
L 195.87564 120.527475 
L 196.114044 117.411005 
L 196.233245 117.976728 
L 196.352447 121.404517 
L 196.471649 130.619602 
L 196.829254 120.324733 
L 196.948455 121.862619 
L 197.30606 128.901741 
L 198.02127 113.662253 
L 198.140472 113.52031 
L 198.259674 114.354198 
L 198.498077 119.392237 
L 198.73648 127.158421 
L 198.974884 120.788165 
L 199.332489 118.119705 
L 199.570892 115.252524 
L 199.690094 114.921485 
L 199.809295 115.331194 
L 200.047698 117.852105 
L 200.405303 125.147872 
L 200.524505 129.903403 
L 200.643707 145.023333 
L 200.88211 119.617448 
L 201.120513 116.176473 
L 201.239715 117.747462 
L 201.478118 130.301286 
L 201.716522 122.109285 
L 201.835723 122.123873 
L 202.074127 124.521442 
L 202.31253 122.72411 
L 202.431732 124.50847 
L 202.789337 133.222043 
L 203.74295 114.531362 
L 203.862152 114.49613 
L 203.981353 115.253583 
L 204.219757 120.431069 
L 204.45816 131.751955 
L 204.696563 121.628141 
L 204.815765 120.607801 
L 204.934967 120.888007 
L 205.411773 125.259201 
L 205.530975 124.588313 
L 206.126983 114.753548 
L 206.246185 115.263512 
L 206.484588 120.558969 
L 206.842193 131.689323 
L 207.319 117.896701 
L 207.438201 117.717555 
L 207.557403 119.133592 
L 207.795806 127.594909 
L 207.915008 132.414256 
L 208.153411 129.312844 
L 208.74942 119.299203 
L 208.868621 119.215895 
L 208.987823 120.986606 
L 209.107025 125.776451 
L 209.226226 137.779296 
L 209.345428 136.0211 
L 209.46463 135.919948 
L 209.583831 146.039284 
L 209.822235 125.916824 
L 210.060638 123.01032 
L 210.299041 118.738859 
L 210.418243 119.235571 
L 210.537445 122.197175 
L 210.775848 133.82707 
L 211.014251 126.354182 
L 211.133453 127.050054 
L 211.729461 119.911593 
L 211.848663 119.687251 
L 211.967865 120.219613 
L 212.087066 122.231961 
L 212.206268 126.791504 
L 212.325469 139.010889 
L 212.683074 121.084702 
L 212.921478 118.939327 
L 213.040679 119.17197 
L 213.279083 120.097237 
L 213.755889 114.07173 
L 213.875091 114.751702 
L 214.113494 119.390867 
L 214.351898 127.224274 
L 214.471099 126.362815 
L 214.828704 114.928028 
L 214.947906 113.582531 
L 215.067108 113.545087 
L 215.305511 117.033534 
L 215.424713 119.148009 
L 215.543914 118.977138 
L 215.901519 115.338404 
L 216.020721 115.863381 
L 216.259124 120.816172 
L 216.378326 126.877847 
L 216.497528 151.760313 
L 216.735931 122.36431 
L 216.974334 118.64681 
L 217.093536 118.978098 
L 217.451141 125.23194 
L 217.808746 115.370001 
L 217.927948 114.753786 
L 218.047149 115.531565 
L 218.285552 122.395395 
L 218.404754 125.8004 
L 218.762359 117.476186 
L 219.000762 115.982583 
L 219.119964 115.885558 
L 219.239166 116.541084 
L 219.596771 119.941392 
L 219.835174 119.100176 
L 220.192779 121.078819 
L 220.788787 114.856408 
L 221.027191 113.785258 
L 221.265594 112.836222 
L 221.384796 113.601928 
L 221.503997 116.022209 
L 221.623199 121.657575 
L 221.742401 132.703328 
L 221.980804 116.297411 
L 222.219207 113.906483 
L 222.338409 114.26878 
L 222.696014 115.9803 
L 222.934417 115.520354 
L 223.053619 115.360014 
L 223.172821 115.685172 
L 223.411224 118.753367 
L 223.768829 126.169937 
L 224.126434 123.9825 
L 224.245636 124.724841 
L 224.364837 127.256374 
L 224.60324 136.243259 
L 224.841644 131.192288 
L 225.080047 128.699761 
L 225.199249 128.897485 
L 225.31845 131.689727 
L 225.556854 141.067825 
L 225.795257 130.012885 
L 225.914459 129.924273 
L 226.03366 131.576159 
L 226.152862 131.423992 
L 226.391265 126.019018 
L 226.510467 126.557185 
L 226.74887 131.315767 
L 226.987274 124.037266 
L 227.106475 123.810481 
L 227.46408 128.766865 
L 227.702484 133.416311 
L 228.060089 119.606144 
L 228.17929 118.877843 
L 228.298492 120.131936 
L 228.536895 130.448118 
L 228.656097 128.408945 
L 228.8945 124.248146 
L 229.132904 129.645847 
L 229.490509 117.833293 
L 229.728912 116.264255 
L 229.848114 117.36385 
L 230.086517 124.969259 
L 230.205719 135.457794 
L 230.682525 121.69301 
L 230.920928 122.672961 
L 231.397735 115.651347 
L 231.516937 117.243898 
L 231.874542 125.428713 
L 231.993743 124.951436 
L 232.232147 125.477833 
L 232.47055 123.210932 
L 232.589752 123.658976 
L 232.708953 125.379355 
L 232.828155 123.342158 
L 233.066558 117.21387 
L 233.18576 116.811324 
L 233.662567 120.090842 
L 233.90097 126.084014 
L 234.258575 141.260515 
L 234.735382 122.893797 
L 234.854583 123.999265 
L 235.092987 134.752425 
L 235.33139 118.079166 
L 235.569793 115.308579 
L 235.688995 115.344027 
L 235.808197 115.985018 
L 236.0466 119.884386 
L 236.165802 124.809981 
L 236.285003 138.389367 
L 236.523407 122.168359 
L 236.76181 119.567363 
L 237.119415 122.318271 
L 237.238616 124.154589 
L 237.47702 131.983956 
L 237.715423 119.981488 
L 237.953826 117.906629 
L 238.073028 118.731226 
L 238.90744 131.237916 
L 239.026641 131.599985 
L 239.145843 131.059932 
L 239.384246 126.277706 
L 239.384246 126.277706 
" clip-path="url(#p7648a38b7e)" style="fill: none; stroke: #4477aa; stroke-linecap: square"/>
   </g>
   <g id="patch_3">
    <path d="M 44.012725 152.589249 
L 44.012725 7.059249 
" style="fill: none; stroke: #000000; stroke-width: 0.5; stroke-linejoin: miter; stroke-linecap: square"/>
   </g>
   <g id="patch_4">
    <path d="M 239.312725 152.589249 
L 239.312725 7.059249 
" style="fill: none; stroke: #000000; stroke-width: 0.5; stroke-linejoin: miter; stroke-linecap: square"/>
   </g>
   <g id="patch_5">
    <path d="M 44.012725 152.589249 
L 239.312725 152.589249 
" style="fill: none; stroke: #000000; stroke-width: 0.5; stroke-linejoin: miter; stroke-linecap: square"/>
   </g>
   <g id="patch_6">
    <path d="M 44.012725 7.059249 
L 239.312725 7.059249 
" style="fill: none; stroke: #000000; stroke-width: 0.5; stroke-linejoin: miter; stroke-linecap: square"/>
   </g>
  </g>
 </g>
 <defs>
  <clipPath id="p7648a38b7e">
   <rect x="44.012725" y="7.059249" width="195.3" height="145.53"/>
  </clipPath>
 </defs>
</svg>
