<?xml version="1.0" encoding="utf-8" standalone="no"?>
<!DOCTYPE svg PUBLIC "-//W3C//DTD SVG 1.1//EN"
  "http://www.w3.org/Graphics/SVG/1.1/DTD/svg11.dtd">
<svg xmlns:xlink="http://www.w3.org/1999/xlink" width="242.912725pt" height="186.891106pt" viewBox="0 0 242.912725 186.891106" xmlns="http://www.w3.org/2000/svg" version="1.1">
 <metadata>
  <rdf:RDF xmlns:dc="http://purl.org/dc/elements/1.1/" xmlns:cc="http://creativecommons.org/ns#" xmlns:rdf="http://www.w3.org/1999/02/22-rdf-syntax-ns#">
   <cc:Work>
    <dc:type rdf:resource="http://purl.org/dc/dcmitype/StillImage"/>
    <dc:date>2025-02-25T16:39:20.676857</dc:date>
    <dc:format>image/svg+xml</dc:format>
    <dc:creator>
     <cc:Agent>
      <dc:title>Matplotlib v3.9.2, https://matplotlib.org/</dc:title>
     </cc:Agent>
    </dc:creator>
   </cc:Work>
  </rdf:RDF>
 </metadata>
 <defs>
  <style type="text/css">*{stroke-linejoin: round; stroke-linecap: butt}</style>
 </defs>
 <g id="figure_1">
  <g id="patch_1">
   <path d="M -0 186.891106 
L 242.912725 186.891106 
L 242.912725 0 
L -0 0 
L -0 186.891106 
z
" style="fill: none"/>
  </g>
  <g id="axes_1">
   <g id="patch_2">
    <path d="M 44.012725 152.589249 
L 239.312725 152.589249 
L 239.312725 7.059249 
L 44.012725 7.059249 
L 44.012725 152.589249 
z
" style="fill: none"/>
   </g>
   <g id="matplotlib.axis_1">
    <g id="xtick_1">
     <g id="line2d_1">
      <path d="M 44.012725 152.589249 
L 44.012725 7.059249 
" clip-path="url(#p7f161e96f9)" style="fill: none; stroke-dasharray: 1.85,0.8; stroke-dashoffset: 0; stroke: #000000; stroke-opacity: 0.5; stroke-width: 0.5"/>
     </g>
     <g id="line2d_2">
      <defs>
       <path id="m3ff712d4c6" d="M 0 0 
L 0 -3 
" style="stroke: #000000; stroke-width: 0.5"/>
      </defs>
      <g>
       <use xlink:href="#m3ff712d4c6" x="44.012725" y="152.589249" style="stroke: #000000; stroke-width: 0.5"/>
      </g>
     </g>
     <g id="line2d_3">
      <defs>
       <path id="m644dc1003d" d="M 0 0 
L 0 3 
" style="stroke: #000000; stroke-width: 0.5"/>
      </defs>
      <g>
       <use xlink:href="#m644dc1003d" x="44.012725" y="7.059249" style="stroke: #000000; stroke-width: 0.5"/>
      </g>
     </g>
     <g id="text_1">
      <!-- $\mathdefault{0}$ -->
      <g transform="translate(41.522058 163.007748) scale(0.1 -0.1)">
       <defs>
        <path id="CMR17-30" d="M 2688 2025 
C 2688 2416 2682 3080 2413 3591 
C 2176 4039 1798 4198 1466 4198 
C 1158 4198 768 4058 525 3597 
C 269 3118 243 2524 243 2025 
C 243 1661 250 1106 448 619 
C 723 -39 1216 -128 1466 -128 
C 1760 -128 2208 -7 2470 600 
C 2662 1042 2688 1559 2688 2025 
z
M 1466 -26 
C 1056 -26 813 325 723 812 
C 653 1188 653 1738 653 2096 
C 653 2588 653 2997 736 3387 
C 858 3929 1216 4096 1466 4096 
C 1728 4096 2067 3923 2189 3400 
C 2272 3036 2278 2607 2278 2096 
C 2278 1680 2278 1169 2202 792 
C 2067 95 1690 -26 1466 -26 
z
" transform="scale(0.015625)"/>
       </defs>
       <use xlink:href="#CMR17-30" transform="scale(0.996264)"/>
      </g>
     </g>
    </g>
    <g id="xtick_2">
     <g id="line2d_4">
      <path d="M 79.521816 152.589249 
L 79.521816 7.059249 
" clip-path="url(#p7f161e96f9)" style="fill: none; stroke-dasharray: 1.85,0.8; stroke-dashoffset: 0; stroke: #000000; stroke-opacity: 0.5; stroke-width: 0.5"/>
     </g>
     <g id="line2d_5">
      <g>
       <use xlink:href="#m3ff712d4c6" x="79.521816" y="152.589249" style="stroke: #000000; stroke-width: 0.5"/>
      </g>
     </g>
     <g id="line2d_6">
      <g>
       <use xlink:href="#m644dc1003d" x="79.521816" y="7.059249" style="stroke: #000000; stroke-width: 0.5"/>
      </g>
     </g>
     <g id="text_2">
      <!-- $\mathdefault{200}$ -->
      <g transform="translate(72.049813 163.007748) scale(0.1 -0.1)">
       <defs>
        <path id="CMR17-32" d="M 2669 989 
L 2554 989 
C 2490 536 2438 459 2413 420 
C 2381 369 1920 369 1830 369 
L 602 369 
C 832 619 1280 1072 1824 1597 
C 2214 1967 2669 2402 2669 3035 
C 2669 3790 2067 4224 1395 4224 
C 691 4224 262 3604 262 3030 
C 262 2780 448 2748 525 2748 
C 589 2748 781 2787 781 3010 
C 781 3207 614 3264 525 3264 
C 486 3264 448 3258 422 3245 
C 544 3790 915 4058 1306 4058 
C 1862 4058 2227 3617 2227 3035 
C 2227 2479 1901 2000 1536 1584 
L 262 146 
L 262 0 
L 2515 0 
L 2669 989 
z
" transform="scale(0.015625)"/>
       </defs>
       <use xlink:href="#CMR17-32" transform="scale(0.996264)"/>
       <use xlink:href="#CMR17-30" transform="translate(45.690477 0) scale(0.996264)"/>
       <use xlink:href="#CMR17-30" transform="translate(91.380954 0) scale(0.996264)"/>
      </g>
     </g>
    </g>
    <g id="xtick_3">
     <g id="line2d_7">
      <path d="M 115.030907 152.589249 
L 115.030907 7.059249 
" clip-path="url(#p7f161e96f9)" style="fill: none; stroke-dasharray: 1.85,0.8; stroke-dashoffset: 0; stroke: #000000; stroke-opacity: 0.5; stroke-width: 0.5"/>
     </g>
     <g id="line2d_8">
      <g>
       <use xlink:href="#m3ff712d4c6" x="115.030907" y="152.589249" style="stroke: #000000; stroke-width: 0.5"/>
      </g>
     </g>
     <g id="line2d_9">
      <g>
       <use xlink:href="#m644dc1003d" x="115.030907" y="7.059249" style="stroke: #000000; stroke-width: 0.5"/>
      </g>
     </g>
     <g id="text_3">
      <!-- $\mathdefault{400}$ -->
      <g transform="translate(107.558904 163.007748) scale(0.1 -0.1)">
       <defs>
        <path id="CMR17-34" d="M 2150 4122 
C 2150 4256 2144 4256 2029 4256 
L 128 1254 
L 128 1088 
L 1779 1088 
L 1779 457 
C 1779 224 1766 160 1318 160 
L 1197 160 
L 1197 0 
C 1402 0 1747 0 1965 0 
C 2182 0 2528 0 2733 0 
L 2733 160 
L 2611 160 
C 2163 160 2150 224 2150 457 
L 2150 1088 
L 2803 1088 
L 2803 1254 
L 2150 1254 
L 2150 4122 
z
M 1798 3703 
L 1798 1254 
L 256 1254 
L 1798 3703 
z
" transform="scale(0.015625)"/>
       </defs>
       <use xlink:href="#CMR17-34" transform="scale(0.996264)"/>
       <use xlink:href="#CMR17-30" transform="translate(45.690477 0) scale(0.996264)"/>
       <use xlink:href="#CMR17-30" transform="translate(91.380954 0) scale(0.996264)"/>
      </g>
     </g>
    </g>
    <g id="xtick_4">
     <g id="line2d_10">
      <path d="M 150.539998 152.589249 
L 150.539998 7.059249 
" clip-path="url(#p7f161e96f9)" style="fill: none; stroke-dasharray: 1.85,0.8; stroke-dashoffset: 0; stroke: #000000; stroke-opacity: 0.5; stroke-width: 0.5"/>
     </g>
     <g id="line2d_11">
      <g>
       <use xlink:href="#m3ff712d4c6" x="150.539998" y="152.589249" style="stroke: #000000; stroke-width: 0.5"/>
      </g>
     </g>
     <g id="line2d_12">
      <g>
       <use xlink:href="#m644dc1003d" x="150.539998" y="7.059249" style="stroke: #000000; stroke-width: 0.5"/>
      </g>
     </g>
     <g id="text_4">
      <!-- $\mathdefault{600}$ -->
      <g transform="translate(143.067995 163.007748) scale(0.1 -0.1)">
       <defs>
        <path id="CMR17-36" d="M 678 2176 
C 678 3690 1395 4032 1811 4032 
C 1946 4032 2272 4009 2400 3776 
C 2298 3776 2106 3776 2106 3553 
C 2106 3381 2246 3323 2336 3323 
C 2394 3323 2566 3348 2566 3560 
C 2566 3954 2246 4179 1805 4179 
C 1043 4179 243 3390 243 1984 
C 243 253 966 -128 1478 -128 
C 2099 -128 2688 427 2688 1283 
C 2688 2081 2170 2662 1517 2662 
C 1126 2662 838 2407 678 1960 
L 678 2176 
z
M 1478 25 
C 691 25 691 1200 691 1436 
C 691 1896 909 2560 1504 2560 
C 1613 2560 1926 2560 2138 2120 
C 2253 1870 2253 1609 2253 1289 
C 2253 944 2253 690 2118 434 
C 1978 171 1773 25 1478 25 
z
" transform="scale(0.015625)"/>
       </defs>
       <use xlink:href="#CMR17-36" transform="scale(0.996264)"/>
       <use xlink:href="#CMR17-30" transform="translate(45.690477 0) scale(0.996264)"/>
       <use xlink:href="#CMR17-30" transform="translate(91.380954 0) scale(0.996264)"/>
      </g>
     </g>
    </g>
    <g id="xtick_5">
     <g id="line2d_13">
      <path d="M 186.049089 152.589249 
L 186.049089 7.059249 
" clip-path="url(#p7f161e96f9)" style="fill: none; stroke-dasharray: 1.85,0.8; stroke-dashoffset: 0; stroke: #000000; stroke-opacity: 0.5; stroke-width: 0.5"/>
     </g>
     <g id="line2d_14">
      <g>
       <use xlink:href="#m3ff712d4c6" x="186.049089" y="152.589249" style="stroke: #000000; stroke-width: 0.5"/>
      </g>
     </g>
     <g id="line2d_15">
      <g>
       <use xlink:href="#m644dc1003d" x="186.049089" y="7.059249" style="stroke: #000000; stroke-width: 0.5"/>
      </g>
     </g>
     <g id="text_5">
      <!-- $\mathdefault{800}$ -->
      <g transform="translate(178.577086 163.007748) scale(0.1 -0.1)">
       <defs>
        <path id="CMR17-38" d="M 1741 2264 
C 2144 2467 2554 2773 2554 3263 
C 2554 3841 1990 4179 1472 4179 
C 890 4179 378 3759 378 3180 
C 378 3021 416 2747 666 2505 
C 730 2442 998 2251 1171 2130 
C 883 1983 211 1634 211 934 
C 211 279 838 -128 1459 -128 
C 2144 -128 2720 362 2720 1010 
C 2720 1590 2330 1857 2074 2029 
L 1741 2264 
z
M 902 2822 
C 851 2854 595 3051 595 3351 
C 595 3739 998 4032 1459 4032 
C 1965 4032 2336 3676 2336 3262 
C 2336 2669 1670 2331 1638 2331 
C 1632 2331 1626 2331 1574 2370 
L 902 2822 
z
M 2080 1519 
C 2176 1449 2483 1240 2483 851 
C 2483 381 2010 25 1472 25 
C 890 25 448 438 448 940 
C 448 1443 838 1862 1280 2060 
L 2080 1519 
z
" transform="scale(0.015625)"/>
       </defs>
       <use xlink:href="#CMR17-38" transform="scale(0.996264)"/>
       <use xlink:href="#CMR17-30" transform="translate(45.690477 0) scale(0.996264)"/>
       <use xlink:href="#CMR17-30" transform="translate(91.380954 0) scale(0.996264)"/>
      </g>
     </g>
    </g>
    <g id="xtick_6">
     <g id="line2d_16">
      <path d="M 221.55818 152.589249 
L 221.55818 7.059249 
" clip-path="url(#p7f161e96f9)" style="fill: none; stroke-dasharray: 1.85,0.8; stroke-dashoffset: 0; stroke: #000000; stroke-opacity: 0.5; stroke-width: 0.5"/>
     </g>
     <g id="line2d_17">
      <g>
       <use xlink:href="#m3ff712d4c6" x="221.55818" y="152.589249" style="stroke: #000000; stroke-width: 0.5"/>
      </g>
     </g>
     <g id="line2d_18">
      <g>
       <use xlink:href="#m644dc1003d" x="221.55818" y="7.059249" style="stroke: #000000; stroke-width: 0.5"/>
      </g>
     </g>
     <g id="text_6">
      <!-- $\mathdefault{1000}$ -->
      <g transform="translate(211.595509 163.007748) scale(0.1 -0.1)">
       <defs>
        <path id="CMR17-31" d="M 1702 4058 
C 1702 4192 1696 4192 1606 4192 
C 1357 3916 979 3827 621 3827 
C 602 3827 570 3827 563 3808 
C 557 3795 557 3782 557 3648 
C 755 3648 1088 3686 1344 3839 
L 1344 461 
C 1344 236 1331 160 781 160 
L 589 160 
L 589 0 
C 896 0 1216 0 1523 0 
C 1830 0 2150 0 2458 0 
L 2458 160 
L 2266 160 
C 1715 160 1702 230 1702 458 
L 1702 4058 
z
" transform="scale(0.015625)"/>
       </defs>
       <use xlink:href="#CMR17-31" transform="scale(0.996264)"/>
       <use xlink:href="#CMR17-30" transform="translate(45.690477 0) scale(0.996264)"/>
       <use xlink:href="#CMR17-30" transform="translate(91.380954 0) scale(0.996264)"/>
       <use xlink:href="#CMR17-30" transform="translate(137.071431 0) scale(0.996264)"/>
      </g>
     </g>
    </g>
    <g id="xtick_7">
     <g id="line2d_19">
      <defs>
       <path id="m8eba8bccd6" d="M 0 0 
L 0 -1.5 
" style="stroke: #000000; stroke-width: 0.5"/>
      </defs>
      <g>
       <use xlink:href="#m8eba8bccd6" x="52.889998" y="152.589249" style="stroke: #000000; stroke-width: 0.5"/>
      </g>
     </g>
     <g id="line2d_20">
      <defs>
       <path id="m7bf7700aa3" d="M 0 0 
L 0 1.5 
" style="stroke: #000000; stroke-width: 0.5"/>
      </defs>
      <g>
       <use xlink:href="#m7bf7700aa3" x="52.889998" y="7.059249" style="stroke: #000000; stroke-width: 0.5"/>
      </g>
     </g>
    </g>
    <g id="xtick_8">
     <g id="line2d_21">
      <g>
       <use xlink:href="#m8eba8bccd6" x="61.767271" y="152.589249" style="stroke: #000000; stroke-width: 0.5"/>
      </g>
     </g>
     <g id="line2d_22">
      <g>
       <use xlink:href="#m7bf7700aa3" x="61.767271" y="7.059249" style="stroke: #000000; stroke-width: 0.5"/>
      </g>
     </g>
    </g>
    <g id="xtick_9">
     <g id="line2d_23">
      <g>
       <use xlink:href="#m8eba8bccd6" x="70.644544" y="152.589249" style="stroke: #000000; stroke-width: 0.5"/>
      </g>
     </g>
     <g id="line2d_24">
      <g>
       <use xlink:href="#m7bf7700aa3" x="70.644544" y="7.059249" style="stroke: #000000; stroke-width: 0.5"/>
      </g>
     </g>
    </g>
    <g id="xtick_10">
     <g id="line2d_25">
      <g>
       <use xlink:href="#m8eba8bccd6" x="88.399089" y="152.589249" style="stroke: #000000; stroke-width: 0.5"/>
      </g>
     </g>
     <g id="line2d_26">
      <g>
       <use xlink:href="#m7bf7700aa3" x="88.399089" y="7.059249" style="stroke: #000000; stroke-width: 0.5"/>
      </g>
     </g>
    </g>
    <g id="xtick_11">
     <g id="line2d_27">
      <g>
       <use xlink:href="#m8eba8bccd6" x="97.276362" y="152.589249" style="stroke: #000000; stroke-width: 0.5"/>
      </g>
     </g>
     <g id="line2d_28">
      <g>
       <use xlink:href="#m7bf7700aa3" x="97.276362" y="7.059249" style="stroke: #000000; stroke-width: 0.5"/>
      </g>
     </g>
    </g>
    <g id="xtick_12">
     <g id="line2d_29">
      <g>
       <use xlink:href="#m8eba8bccd6" x="106.153634" y="152.589249" style="stroke: #000000; stroke-width: 0.5"/>
      </g>
     </g>
     <g id="line2d_30">
      <g>
       <use xlink:href="#m7bf7700aa3" x="106.153634" y="7.059249" style="stroke: #000000; stroke-width: 0.5"/>
      </g>
     </g>
    </g>
    <g id="xtick_13">
     <g id="line2d_31">
      <g>
       <use xlink:href="#m8eba8bccd6" x="123.90818" y="152.589249" style="stroke: #000000; stroke-width: 0.5"/>
      </g>
     </g>
     <g id="line2d_32">
      <g>
       <use xlink:href="#m7bf7700aa3" x="123.90818" y="7.059249" style="stroke: #000000; stroke-width: 0.5"/>
      </g>
     </g>
    </g>
    <g id="xtick_14">
     <g id="line2d_33">
      <g>
       <use xlink:href="#m8eba8bccd6" x="132.785453" y="152.589249" style="stroke: #000000; stroke-width: 0.5"/>
      </g>
     </g>
     <g id="line2d_34">
      <g>
       <use xlink:href="#m7bf7700aa3" x="132.785453" y="7.059249" style="stroke: #000000; stroke-width: 0.5"/>
      </g>
     </g>
    </g>
    <g id="xtick_15">
     <g id="line2d_35">
      <g>
       <use xlink:href="#m8eba8bccd6" x="141.662725" y="152.589249" style="stroke: #000000; stroke-width: 0.5"/>
      </g>
     </g>
     <g id="line2d_36">
      <g>
       <use xlink:href="#m7bf7700aa3" x="141.662725" y="7.059249" style="stroke: #000000; stroke-width: 0.5"/>
      </g>
     </g>
    </g>
    <g id="xtick_16">
     <g id="line2d_37">
      <g>
       <use xlink:href="#m8eba8bccd6" x="159.417271" y="152.589249" style="stroke: #000000; stroke-width: 0.5"/>
      </g>
     </g>
     <g id="line2d_38">
      <g>
       <use xlink:href="#m7bf7700aa3" x="159.417271" y="7.059249" style="stroke: #000000; stroke-width: 0.5"/>
      </g>
     </g>
    </g>
    <g id="xtick_17">
     <g id="line2d_39">
      <g>
       <use xlink:href="#m8eba8bccd6" x="168.294544" y="152.589249" style="stroke: #000000; stroke-width: 0.5"/>
      </g>
     </g>
     <g id="line2d_40">
      <g>
       <use xlink:href="#m7bf7700aa3" x="168.294544" y="7.059249" style="stroke: #000000; stroke-width: 0.5"/>
      </g>
     </g>
    </g>
    <g id="xtick_18">
     <g id="line2d_41">
      <g>
       <use xlink:href="#m8eba8bccd6" x="177.171816" y="152.589249" style="stroke: #000000; stroke-width: 0.5"/>
      </g>
     </g>
     <g id="line2d_42">
      <g>
       <use xlink:href="#m7bf7700aa3" x="177.171816" y="7.059249" style="stroke: #000000; stroke-width: 0.5"/>
      </g>
     </g>
    </g>
    <g id="xtick_19">
     <g id="line2d_43">
      <g>
       <use xlink:href="#m8eba8bccd6" x="194.926362" y="152.589249" style="stroke: #000000; stroke-width: 0.5"/>
      </g>
     </g>
     <g id="line2d_44">
      <g>
       <use xlink:href="#m7bf7700aa3" x="194.926362" y="7.059249" style="stroke: #000000; stroke-width: 0.5"/>
      </g>
     </g>
    </g>
    <g id="xtick_20">
     <g id="line2d_45">
      <g>
       <use xlink:href="#m8eba8bccd6" x="203.803634" y="152.589249" style="stroke: #000000; stroke-width: 0.5"/>
      </g>
     </g>
     <g id="line2d_46">
      <g>
       <use xlink:href="#m7bf7700aa3" x="203.803634" y="7.059249" style="stroke: #000000; stroke-width: 0.5"/>
      </g>
     </g>
    </g>
    <g id="xtick_21">
     <g id="line2d_47">
      <g>
       <use xlink:href="#m8eba8bccd6" x="212.680907" y="152.589249" style="stroke: #000000; stroke-width: 0.5"/>
      </g>
     </g>
     <g id="line2d_48">
      <g>
       <use xlink:href="#m7bf7700aa3" x="212.680907" y="7.059249" style="stroke: #000000; stroke-width: 0.5"/>
      </g>
     </g>
    </g>
    <g id="xtick_22">
     <g id="line2d_49">
      <g>
       <use xlink:href="#m8eba8bccd6" x="230.435453" y="152.589249" style="stroke: #000000; stroke-width: 0.5"/>
      </g>
     </g>
     <g id="line2d_50">
      <g>
       <use xlink:href="#m7bf7700aa3" x="230.435453" y="7.059249" style="stroke: #000000; stroke-width: 0.5"/>
      </g>
     </g>
    </g>
    <g id="xtick_23">
     <g id="line2d_51">
      <g>
       <use xlink:href="#m8eba8bccd6" x="239.312725" y="152.589249" style="stroke: #000000; stroke-width: 0.5"/>
      </g>
     </g>
     <g id="line2d_52">
      <g>
       <use xlink:href="#m7bf7700aa3" x="239.312725" y="7.059249" style="stroke: #000000; stroke-width: 0.5"/>
      </g>
     </g>
    </g>
    <g id="text_7">
     <!-- $f$ [MHz] -->
     <g transform="translate(116.369118 179.704565) scale(0.144 -0.144)">
      <defs>
       <path id="CMMI12-66" d="M 2854 2566 
C 2982 2566 3034 2566 3034 2688 
C 3034 2752 2982 2752 2867 2752 
L 2349 2752 
C 2470 3429 2560 3897 2611 4107 
C 2650 4265 2784 4416 2950 4416 
C 3085 4416 3219 4358 3283 4298 
C 3034 4272 2957 4082 2957 3969 
C 2957 3837 3053 3759 3174 3759 
C 3302 3759 3494 3870 3494 4119 
C 3494 4393 3226 4544 2944 4544 
C 2669 4544 2400 4334 2272 4078 
C 2157 3848 2093 3611 1946 2752 
L 1517 2752 
C 1395 2752 1331 2752 1331 2637 
C 1331 2566 1370 2566 1498 2566 
L 1907 2566 
C 1792 1976 1530 542 1382 -137 
C 1274 -689 1178 -1152 858 -1152 
C 838 -1152 653 -1152 538 -1031 
C 864 -1005 864 -726 864 -720 
C 864 -593 768 -517 646 -517 
C 518 -517 326 -625 326 -867 
C 326 -1140 608 -1280 858 -1280 
C 1510 -1280 1779 -118 1850 199 
C 1965 688 2278 2376 2310 2566 
L 2854 2566 
z
" transform="scale(0.015625)"/>
       <path id="CMR17-5b" d="M 1504 -1600 
L 1504 -1377 
L 902 -1377 
L 902 4544 
L 1504 4544 
L 1504 4767 
L 678 4767 
L 678 -1600 
L 1504 -1600 
z
" transform="scale(0.015625)"/>
       <path id="CMR17-4d" d="M 1338 4224 
C 1299 4320 1293 4320 1158 4320 
L 339 4320 
L 339 4160 
C 781 4160 851 4160 851 3875 
L 851 610 
C 851 451 851 153 339 153 
L 339 -13 
C 486 0 755 0 915 0 
C 1075 0 1344 0 1491 -13 
L 1491 153 
C 979 153 979 451 979 610 
L 979 4135 
L 986 4135 
L 2490 89 
C 2515 25 2528 -13 2579 -13 
C 2630 -13 2643 25 2669 89 
L 4186 4166 
L 4192 4166 
L 4192 438 
C 4192 153 4122 153 3680 153 
L 3680 -13 
C 3853 0 4198 0 4384 0 
C 4570 0 4922 0 5094 -13 
L 5094 153 
C 4653 153 4582 153 4582 438 
L 4582 3875 
C 4582 4160 4653 4160 5094 4160 
L 5094 4320 
L 4282 4320 
C 4147 4320 4141 4314 4102 4218 
L 2720 502 
L 1338 4224 
z
" transform="scale(0.015625)"/>
       <path id="CMR17-48" d="M 3590 3905 
C 3590 4192 3661 4192 4102 4192 
L 4102 4352 
C 3917 4352 3578 4352 3379 4352 
C 3181 4352 2842 4352 2656 4352 
L 2656 4192 
C 3098 4192 3168 4192 3168 3904 
L 3168 2341 
L 1261 2341 
L 1261 3904 
C 1261 4192 1331 4192 1773 4192 
L 1773 4352 
C 1587 4352 1248 4352 1050 4352 
C 851 4352 512 4352 326 4352 
L 326 4192 
C 768 4192 838 4192 838 3905 
L 838 447 
C 838 160 768 160 326 160 
L 326 0 
C 512 0 851 0 1050 0 
C 1248 0 1587 0 1773 0 
L 1773 160 
C 1331 160 1261 160 1261 446 
L 1261 2176 
L 3168 2176 
L 3168 446 
C 3168 160 3098 160 2656 160 
L 2656 0 
C 2842 0 3181 0 3379 0 
C 3578 0 3917 0 4102 0 
L 4102 160 
C 3661 160 3590 160 3590 447 
L 3590 3905 
z
" transform="scale(0.015625)"/>
       <path id="CMR17-7a" d="M 2310 2605 
C 2362 2670 2362 2682 2362 2695 
C 2362 2752 2336 2752 2221 2752 
L 275 2752 
L 211 1760 
L 326 1760 
C 371 2381 442 2650 1178 2650 
L 1958 2650 
L 128 96 
C 128 0 134 0 269 0 
L 2291 0 
L 2381 1152 
L 2266 1152 
C 2214 442 2131 115 1350 115 
L 531 115 
L 2310 2605 
z
" transform="scale(0.015625)"/>
       <path id="CMR17-5d" d="M 915 4767 
L 90 4767 
L 90 4544 
L 691 4544 
L 691 -1377 
L 90 -1377 
L 90 -1600 
L 915 -1600 
L 915 4767 
z
" transform="scale(0.015625)"/>
      </defs>
      <use xlink:href="#CMMI12-66" transform="scale(0.996264)"/>
      <use xlink:href="#CMR17-5b" transform="translate(88.796271 0) scale(0.996264)"/>
      <use xlink:href="#CMR17-4d" transform="translate(113.66733 0) scale(0.996264)"/>
      <use xlink:href="#CMR17-48" transform="translate(198.35427 0) scale(0.996264)"/>
      <use xlink:href="#CMR17-7a" transform="translate(267.4267 0) scale(0.996264)"/>
      <use xlink:href="#CMR17-5d" transform="translate(307.912361 0) scale(0.996264)"/>
     </g>
    </g>
   </g>
   <g id="matplotlib.axis_2">
    <g id="ytick_1">
     <g id="line2d_53">
      <path d="M 44.012725 152.589249 
L 239.312725 152.589249 
" clip-path="url(#p7f161e96f9)" style="fill: none; stroke-dasharray: 1.85,0.8; stroke-dashoffset: 0; stroke: #000000; stroke-opacity: 0.5; stroke-width: 0.5"/>
     </g>
     <g id="line2d_54">
      <defs>
       <path id="m683f1dc668" d="M 0 0 
L 3 0 
" style="stroke: #000000; stroke-width: 0.5"/>
      </defs>
      <g>
       <use xlink:href="#m683f1dc668" x="44.012725" y="152.589249" style="stroke: #000000; stroke-width: 0.5"/>
      </g>
     </g>
     <g id="line2d_55">
      <defs>
       <path id="mbe1207e152" d="M 0 0 
L -3 0 
" style="stroke: #000000; stroke-width: 0.5"/>
      </defs>
      <g>
       <use xlink:href="#mbe1207e152" x="239.312725" y="152.589249" style="stroke: #000000; stroke-width: 0.5"/>
      </g>
     </g>
     <g id="text_8">
      <!-- $\mathdefault{10^{-3}}$ -->
      <g transform="translate(20.352152 156.048498) scale(0.1 -0.1)">
       <defs>
        <path id="CMSY10-0" d="M 4218 1472 
C 4326 1472 4442 1472 4442 1600 
C 4442 1728 4326 1728 4218 1728 
L 755 1728 
C 646 1728 531 1728 531 1600 
C 531 1472 646 1472 755 1472 
L 4218 1472 
z
" transform="scale(0.015625)"/>
        <path id="CMR17-33" d="M 1414 2157 
C 1984 2157 2234 1662 2234 1090 
C 2234 320 1824 25 1453 25 
C 1114 25 563 194 390 693 
C 422 680 454 680 486 680 
C 640 680 755 782 755 948 
C 755 1133 614 1216 486 1216 
C 378 1216 211 1165 211 926 
C 211 335 787 -128 1466 -128 
C 2176 -128 2720 430 2720 1085 
C 2720 1707 2208 2157 1600 2227 
C 2086 2328 2554 2756 2554 3329 
C 2554 3820 2048 4179 1472 4179 
C 890 4179 378 3829 378 3329 
C 378 3110 544 3072 627 3072 
C 762 3072 877 3155 877 3321 
C 877 3486 762 3569 627 3569 
C 602 3569 570 3569 544 3557 
C 730 3959 1235 4032 1459 4032 
C 1683 4032 2106 3925 2106 3320 
C 2106 3143 2080 2828 1862 2550 
C 1670 2304 1453 2304 1242 2284 
C 1210 2284 1062 2269 1037 2269 
C 992 2263 966 2257 966 2208 
C 966 2163 973 2157 1101 2157 
L 1414 2157 
z
" transform="scale(0.015625)"/>
       </defs>
       <use xlink:href="#CMR17-31" transform="scale(0.996264)"/>
       <use xlink:href="#CMR17-30" transform="translate(45.690477 0) scale(0.996264)"/>
       <use xlink:href="#CMSY10-0" transform="translate(91.380954 36.153639) scale(0.697382)"/>
       <use xlink:href="#CMR17-33" transform="translate(145.621947 36.153639) scale(0.697382)"/>
      </g>
     </g>
    </g>
    <g id="ytick_2">
     <g id="line2d_56">
      <path d="M 44.012725 131.799249 
L 239.312725 131.799249 
" clip-path="url(#p7f161e96f9)" style="fill: none; stroke-dasharray: 1.85,0.8; stroke-dashoffset: 0; stroke: #000000; stroke-opacity: 0.5; stroke-width: 0.5"/>
     </g>
     <g id="line2d_57">
      <g>
       <use xlink:href="#m683f1dc668" x="44.012725" y="131.799249" style="stroke: #000000; stroke-width: 0.5"/>
      </g>
     </g>
     <g id="line2d_58">
      <g>
       <use xlink:href="#mbe1207e152" x="239.312725" y="131.799249" style="stroke: #000000; stroke-width: 0.5"/>
      </g>
     </g>
     <g id="text_9">
      <!-- $\mathdefault{10^{-2}}$ -->
      <g transform="translate(20.352152 135.258498) scale(0.1 -0.1)">
       <use xlink:href="#CMR17-31" transform="scale(0.996264)"/>
       <use xlink:href="#CMR17-30" transform="translate(45.690477 0) scale(0.996264)"/>
       <use xlink:href="#CMSY10-0" transform="translate(91.380954 36.153639) scale(0.697382)"/>
       <use xlink:href="#CMR17-32" transform="translate(145.621947 36.153639) scale(0.697382)"/>
      </g>
     </g>
    </g>
    <g id="ytick_3">
     <g id="line2d_59">
      <path d="M 44.012725 111.009249 
L 239.312725 111.009249 
" clip-path="url(#p7f161e96f9)" style="fill: none; stroke-dasharray: 1.85,0.8; stroke-dashoffset: 0; stroke: #000000; stroke-opacity: 0.5; stroke-width: 0.5"/>
     </g>
     <g id="line2d_60">
      <g>
       <use xlink:href="#m683f1dc668" x="44.012725" y="111.009249" style="stroke: #000000; stroke-width: 0.5"/>
      </g>
     </g>
     <g id="line2d_61">
      <g>
       <use xlink:href="#mbe1207e152" x="239.312725" y="111.009249" style="stroke: #000000; stroke-width: 0.5"/>
      </g>
     </g>
     <g id="text_10">
      <!-- $\mathdefault{10^{-1}}$ -->
      <g transform="translate(20.352152 114.468498) scale(0.1 -0.1)">
       <use xlink:href="#CMR17-31" transform="scale(0.996264)"/>
       <use xlink:href="#CMR17-30" transform="translate(45.690477 0) scale(0.996264)"/>
       <use xlink:href="#CMSY10-0" transform="translate(91.380954 36.153639) scale(0.697382)"/>
       <use xlink:href="#CMR17-31" transform="translate(145.621947 36.153639) scale(0.697382)"/>
      </g>
     </g>
    </g>
    <g id="ytick_4">
     <g id="line2d_62">
      <path d="M 44.012725 90.219249 
L 239.312725 90.219249 
" clip-path="url(#p7f161e96f9)" style="fill: none; stroke-dasharray: 1.85,0.8; stroke-dashoffset: 0; stroke: #000000; stroke-opacity: 0.5; stroke-width: 0.5"/>
     </g>
     <g id="line2d_63">
      <g>
       <use xlink:href="#m683f1dc668" x="44.012725" y="90.219249" style="stroke: #000000; stroke-width: 0.5"/>
      </g>
     </g>
     <g id="line2d_64">
      <g>
       <use xlink:href="#mbe1207e152" x="239.312725" y="90.219249" style="stroke: #000000; stroke-width: 0.5"/>
      </g>
     </g>
     <g id="text_11">
      <!-- $\mathdefault{10^{0}}$ -->
      <g transform="translate(26.578817 93.678498) scale(0.1 -0.1)">
       <use xlink:href="#CMR17-31" transform="scale(0.996264)"/>
       <use xlink:href="#CMR17-30" transform="translate(45.690477 0) scale(0.996264)"/>
       <use xlink:href="#CMR17-30" transform="translate(91.380954 36.153639) scale(0.697382)"/>
      </g>
     </g>
    </g>
    <g id="ytick_5">
     <g id="line2d_65">
      <path d="M 44.012725 69.429249 
L 239.312725 69.429249 
" clip-path="url(#p7f161e96f9)" style="fill: none; stroke-dasharray: 1.85,0.8; stroke-dashoffset: 0; stroke: #000000; stroke-opacity: 0.5; stroke-width: 0.5"/>
     </g>
     <g id="line2d_66">
      <g>
       <use xlink:href="#m683f1dc668" x="44.012725" y="69.429249" style="stroke: #000000; stroke-width: 0.5"/>
      </g>
     </g>
     <g id="line2d_67">
      <g>
       <use xlink:href="#mbe1207e152" x="239.312725" y="69.429249" style="stroke: #000000; stroke-width: 0.5"/>
      </g>
     </g>
     <g id="text_12">
      <!-- $\mathdefault{10^{1}}$ -->
      <g transform="translate(26.578817 72.888498) scale(0.1 -0.1)">
       <use xlink:href="#CMR17-31" transform="scale(0.996264)"/>
       <use xlink:href="#CMR17-30" transform="translate(45.690477 0) scale(0.996264)"/>
       <use xlink:href="#CMR17-31" transform="translate(91.380954 36.153639) scale(0.697382)"/>
      </g>
     </g>
    </g>
    <g id="ytick_6">
     <g id="line2d_68">
      <path d="M 44.012725 48.639249 
L 239.312725 48.639249 
" clip-path="url(#p7f161e96f9)" style="fill: none; stroke-dasharray: 1.85,0.8; stroke-dashoffset: 0; stroke: #000000; stroke-opacity: 0.5; stroke-width: 0.5"/>
     </g>
     <g id="line2d_69">
      <g>
       <use xlink:href="#m683f1dc668" x="44.012725" y="48.639249" style="stroke: #000000; stroke-width: 0.5"/>
      </g>
     </g>
     <g id="line2d_70">
      <g>
       <use xlink:href="#mbe1207e152" x="239.312725" y="48.639249" style="stroke: #000000; stroke-width: 0.5"/>
      </g>
     </g>
     <g id="text_13">
      <!-- $\mathdefault{10^{2}}$ -->
      <g transform="translate(26.578817 52.098498) scale(0.1 -0.1)">
       <use xlink:href="#CMR17-31" transform="scale(0.996264)"/>
       <use xlink:href="#CMR17-30" transform="translate(45.690477 0) scale(0.996264)"/>
       <use xlink:href="#CMR17-32" transform="translate(91.380954 36.153639) scale(0.697382)"/>
      </g>
     </g>
    </g>
    <g id="ytick_7">
     <g id="line2d_71">
      <path d="M 44.012725 27.849249 
L 239.312725 27.849249 
" clip-path="url(#p7f161e96f9)" style="fill: none; stroke-dasharray: 1.85,0.8; stroke-dashoffset: 0; stroke: #000000; stroke-opacity: 0.5; stroke-width: 0.5"/>
     </g>
     <g id="line2d_72">
      <g>
       <use xlink:href="#m683f1dc668" x="44.012725" y="27.849249" style="stroke: #000000; stroke-width: 0.5"/>
      </g>
     </g>
     <g id="line2d_73">
      <g>
       <use xlink:href="#mbe1207e152" x="239.312725" y="27.849249" style="stroke: #000000; stroke-width: 0.5"/>
      </g>
     </g>
     <g id="text_14">
      <!-- $\mathdefault{10^{3}}$ -->
      <g transform="translate(26.578817 31.308498) scale(0.1 -0.1)">
       <use xlink:href="#CMR17-31" transform="scale(0.996264)"/>
       <use xlink:href="#CMR17-30" transform="translate(45.690477 0) scale(0.996264)"/>
       <use xlink:href="#CMR17-33" transform="translate(91.380954 36.153639) scale(0.697382)"/>
      </g>
     </g>
    </g>
    <g id="ytick_8">
     <g id="line2d_74">
      <path d="M 44.012725 7.059249 
L 239.312725 7.059249 
" clip-path="url(#p7f161e96f9)" style="fill: none; stroke-dasharray: 1.85,0.8; stroke-dashoffset: 0; stroke: #000000; stroke-opacity: 0.5; stroke-width: 0.5"/>
     </g>
     <g id="line2d_75">
      <g>
       <use xlink:href="#m683f1dc668" x="44.012725" y="7.059249" style="stroke: #000000; stroke-width: 0.5"/>
      </g>
     </g>
     <g id="line2d_76">
      <g>
       <use xlink:href="#mbe1207e152" x="239.312725" y="7.059249" style="stroke: #000000; stroke-width: 0.5"/>
      </g>
     </g>
     <g id="text_15">
      <!-- $\mathdefault{10^{4}}$ -->
      <g transform="translate(26.578817 10.518498) scale(0.1 -0.1)">
       <use xlink:href="#CMR17-31" transform="scale(0.996264)"/>
       <use xlink:href="#CMR17-30" transform="translate(45.690477 0) scale(0.996264)"/>
       <use xlink:href="#CMR17-34" transform="translate(91.380954 36.153639) scale(0.697382)"/>
      </g>
     </g>
    </g>
    <g id="ytick_9">
     <g id="line2d_77">
      <defs>
       <path id="ma6ea49c051" d="M 0 0 
L 1.5 0 
" style="stroke: #000000; stroke-width: 0.5"/>
      </defs>
      <g>
       <use xlink:href="#ma6ea49c051" x="44.012725" y="146.330836" style="stroke: #000000; stroke-width: 0.5"/>
      </g>
     </g>
     <g id="line2d_78">
      <defs>
       <path id="md41e81ebce" d="M 0 0 
L -1.5 0 
" style="stroke: #000000; stroke-width: 0.5"/>
      </defs>
      <g>
       <use xlink:href="#md41e81ebce" x="239.312725" y="146.330836" style="stroke: #000000; stroke-width: 0.5"/>
      </g>
     </g>
    </g>
    <g id="ytick_10">
     <g id="line2d_79">
      <g>
       <use xlink:href="#ma6ea49c051" x="44.012725" y="142.669898" style="stroke: #000000; stroke-width: 0.5"/>
      </g>
     </g>
     <g id="line2d_80">
      <g>
       <use xlink:href="#md41e81ebce" x="239.312725" y="142.669898" style="stroke: #000000; stroke-width: 0.5"/>
      </g>
     </g>
    </g>
    <g id="ytick_11">
     <g id="line2d_81">
      <g>
       <use xlink:href="#ma6ea49c051" x="44.012725" y="140.072422" style="stroke: #000000; stroke-width: 0.5"/>
      </g>
     </g>
     <g id="line2d_82">
      <g>
       <use xlink:href="#md41e81ebce" x="239.312725" y="140.072422" style="stroke: #000000; stroke-width: 0.5"/>
      </g>
     </g>
    </g>
    <g id="ytick_12">
     <g id="line2d_83">
      <g>
       <use xlink:href="#ma6ea49c051" x="44.012725" y="138.057663" style="stroke: #000000; stroke-width: 0.5"/>
      </g>
     </g>
     <g id="line2d_84">
      <g>
       <use xlink:href="#md41e81ebce" x="239.312725" y="138.057663" style="stroke: #000000; stroke-width: 0.5"/>
      </g>
     </g>
    </g>
    <g id="ytick_13">
     <g id="line2d_85">
      <g>
       <use xlink:href="#ma6ea49c051" x="44.012725" y="136.411485" style="stroke: #000000; stroke-width: 0.5"/>
      </g>
     </g>
     <g id="line2d_86">
      <g>
       <use xlink:href="#md41e81ebce" x="239.312725" y="136.411485" style="stroke: #000000; stroke-width: 0.5"/>
      </g>
     </g>
    </g>
    <g id="ytick_14">
     <g id="line2d_87">
      <g>
       <use xlink:href="#ma6ea49c051" x="44.012725" y="135.019661" style="stroke: #000000; stroke-width: 0.5"/>
      </g>
     </g>
     <g id="line2d_88">
      <g>
       <use xlink:href="#md41e81ebce" x="239.312725" y="135.019661" style="stroke: #000000; stroke-width: 0.5"/>
      </g>
     </g>
    </g>
    <g id="ytick_15">
     <g id="line2d_89">
      <g>
       <use xlink:href="#ma6ea49c051" x="44.012725" y="133.814008" style="stroke: #000000; stroke-width: 0.5"/>
      </g>
     </g>
     <g id="line2d_90">
      <g>
       <use xlink:href="#md41e81ebce" x="239.312725" y="133.814008" style="stroke: #000000; stroke-width: 0.5"/>
      </g>
     </g>
    </g>
    <g id="ytick_16">
     <g id="line2d_91">
      <g>
       <use xlink:href="#ma6ea49c051" x="44.012725" y="132.750547" style="stroke: #000000; stroke-width: 0.5"/>
      </g>
     </g>
     <g id="line2d_92">
      <g>
       <use xlink:href="#md41e81ebce" x="239.312725" y="132.750547" style="stroke: #000000; stroke-width: 0.5"/>
      </g>
     </g>
    </g>
    <g id="ytick_17">
     <g id="line2d_93">
      <g>
       <use xlink:href="#ma6ea49c051" x="44.012725" y="125.540836" style="stroke: #000000; stroke-width: 0.5"/>
      </g>
     </g>
     <g id="line2d_94">
      <g>
       <use xlink:href="#md41e81ebce" x="239.312725" y="125.540836" style="stroke: #000000; stroke-width: 0.5"/>
      </g>
     </g>
    </g>
    <g id="ytick_18">
     <g id="line2d_95">
      <g>
       <use xlink:href="#ma6ea49c051" x="44.012725" y="121.879898" style="stroke: #000000; stroke-width: 0.5"/>
      </g>
     </g>
     <g id="line2d_96">
      <g>
       <use xlink:href="#md41e81ebce" x="239.312725" y="121.879898" style="stroke: #000000; stroke-width: 0.5"/>
      </g>
     </g>
    </g>
    <g id="ytick_19">
     <g id="line2d_97">
      <g>
       <use xlink:href="#ma6ea49c051" x="44.012725" y="119.282422" style="stroke: #000000; stroke-width: 0.5"/>
      </g>
     </g>
     <g id="line2d_98">
      <g>
       <use xlink:href="#md41e81ebce" x="239.312725" y="119.282422" style="stroke: #000000; stroke-width: 0.5"/>
      </g>
     </g>
    </g>
    <g id="ytick_20">
     <g id="line2d_99">
      <g>
       <use xlink:href="#ma6ea49c051" x="44.012725" y="117.267663" style="stroke: #000000; stroke-width: 0.5"/>
      </g>
     </g>
     <g id="line2d_100">
      <g>
       <use xlink:href="#md41e81ebce" x="239.312725" y="117.267663" style="stroke: #000000; stroke-width: 0.5"/>
      </g>
     </g>
    </g>
    <g id="ytick_21">
     <g id="line2d_101">
      <g>
       <use xlink:href="#ma6ea49c051" x="44.012725" y="115.621485" style="stroke: #000000; stroke-width: 0.5"/>
      </g>
     </g>
     <g id="line2d_102">
      <g>
       <use xlink:href="#md41e81ebce" x="239.312725" y="115.621485" style="stroke: #000000; stroke-width: 0.5"/>
      </g>
     </g>
    </g>
    <g id="ytick_22">
     <g id="line2d_103">
      <g>
       <use xlink:href="#ma6ea49c051" x="44.012725" y="114.229661" style="stroke: #000000; stroke-width: 0.5"/>
      </g>
     </g>
     <g id="line2d_104">
      <g>
       <use xlink:href="#md41e81ebce" x="239.312725" y="114.229661" style="stroke: #000000; stroke-width: 0.5"/>
      </g>
     </g>
    </g>
    <g id="ytick_23">
     <g id="line2d_105">
      <g>
       <use xlink:href="#ma6ea49c051" x="44.012725" y="113.024008" style="stroke: #000000; stroke-width: 0.5"/>
      </g>
     </g>
     <g id="line2d_106">
      <g>
       <use xlink:href="#md41e81ebce" x="239.312725" y="113.024008" style="stroke: #000000; stroke-width: 0.5"/>
      </g>
     </g>
    </g>
    <g id="ytick_24">
     <g id="line2d_107">
      <g>
       <use xlink:href="#ma6ea49c051" x="44.012725" y="111.960547" style="stroke: #000000; stroke-width: 0.5"/>
      </g>
     </g>
     <g id="line2d_108">
      <g>
       <use xlink:href="#md41e81ebce" x="239.312725" y="111.960547" style="stroke: #000000; stroke-width: 0.5"/>
      </g>
     </g>
    </g>
    <g id="ytick_25">
     <g id="line2d_109">
      <g>
       <use xlink:href="#ma6ea49c051" x="44.012725" y="104.750836" style="stroke: #000000; stroke-width: 0.5"/>
      </g>
     </g>
     <g id="line2d_110">
      <g>
       <use xlink:href="#md41e81ebce" x="239.312725" y="104.750836" style="stroke: #000000; stroke-width: 0.5"/>
      </g>
     </g>
    </g>
    <g id="ytick_26">
     <g id="line2d_111">
      <g>
       <use xlink:href="#ma6ea49c051" x="44.012725" y="101.089898" style="stroke: #000000; stroke-width: 0.5"/>
      </g>
     </g>
     <g id="line2d_112">
      <g>
       <use xlink:href="#md41e81ebce" x="239.312725" y="101.089898" style="stroke: #000000; stroke-width: 0.5"/>
      </g>
     </g>
    </g>
    <g id="ytick_27">
     <g id="line2d_113">
      <g>
       <use xlink:href="#ma6ea49c051" x="44.012725" y="98.492422" style="stroke: #000000; stroke-width: 0.5"/>
      </g>
     </g>
     <g id="line2d_114">
      <g>
       <use xlink:href="#md41e81ebce" x="239.312725" y="98.492422" style="stroke: #000000; stroke-width: 0.5"/>
      </g>
     </g>
    </g>
    <g id="ytick_28">
     <g id="line2d_115">
      <g>
       <use xlink:href="#ma6ea49c051" x="44.012725" y="96.477663" style="stroke: #000000; stroke-width: 0.5"/>
      </g>
     </g>
     <g id="line2d_116">
      <g>
       <use xlink:href="#md41e81ebce" x="239.312725" y="96.477663" style="stroke: #000000; stroke-width: 0.5"/>
      </g>
     </g>
    </g>
    <g id="ytick_29">
     <g id="line2d_117">
      <g>
       <use xlink:href="#ma6ea49c051" x="44.012725" y="94.831485" style="stroke: #000000; stroke-width: 0.5"/>
      </g>
     </g>
     <g id="line2d_118">
      <g>
       <use xlink:href="#md41e81ebce" x="239.312725" y="94.831485" style="stroke: #000000; stroke-width: 0.5"/>
      </g>
     </g>
    </g>
    <g id="ytick_30">
     <g id="line2d_119">
      <g>
       <use xlink:href="#ma6ea49c051" x="44.012725" y="93.439661" style="stroke: #000000; stroke-width: 0.5"/>
      </g>
     </g>
     <g id="line2d_120">
      <g>
       <use xlink:href="#md41e81ebce" x="239.312725" y="93.439661" style="stroke: #000000; stroke-width: 0.5"/>
      </g>
     </g>
    </g>
    <g id="ytick_31">
     <g id="line2d_121">
      <g>
       <use xlink:href="#ma6ea49c051" x="44.012725" y="92.234008" style="stroke: #000000; stroke-width: 0.5"/>
      </g>
     </g>
     <g id="line2d_122">
      <g>
       <use xlink:href="#md41e81ebce" x="239.312725" y="92.234008" style="stroke: #000000; stroke-width: 0.5"/>
      </g>
     </g>
    </g>
    <g id="ytick_32">
     <g id="line2d_123">
      <g>
       <use xlink:href="#ma6ea49c051" x="44.012725" y="91.170547" style="stroke: #000000; stroke-width: 0.5"/>
      </g>
     </g>
     <g id="line2d_124">
      <g>
       <use xlink:href="#md41e81ebce" x="239.312725" y="91.170547" style="stroke: #000000; stroke-width: 0.5"/>
      </g>
     </g>
    </g>
    <g id="ytick_33">
     <g id="line2d_125">
      <g>
       <use xlink:href="#ma6ea49c051" x="44.012725" y="83.960836" style="stroke: #000000; stroke-width: 0.5"/>
      </g>
     </g>
     <g id="line2d_126">
      <g>
       <use xlink:href="#md41e81ebce" x="239.312725" y="83.960836" style="stroke: #000000; stroke-width: 0.5"/>
      </g>
     </g>
    </g>
    <g id="ytick_34">
     <g id="line2d_127">
      <g>
       <use xlink:href="#ma6ea49c051" x="44.012725" y="80.299898" style="stroke: #000000; stroke-width: 0.5"/>
      </g>
     </g>
     <g id="line2d_128">
      <g>
       <use xlink:href="#md41e81ebce" x="239.312725" y="80.299898" style="stroke: #000000; stroke-width: 0.5"/>
      </g>
     </g>
    </g>
    <g id="ytick_35">
     <g id="line2d_129">
      <g>
       <use xlink:href="#ma6ea49c051" x="44.012725" y="77.702422" style="stroke: #000000; stroke-width: 0.5"/>
      </g>
     </g>
     <g id="line2d_130">
      <g>
       <use xlink:href="#md41e81ebce" x="239.312725" y="77.702422" style="stroke: #000000; stroke-width: 0.5"/>
      </g>
     </g>
    </g>
    <g id="ytick_36">
     <g id="line2d_131">
      <g>
       <use xlink:href="#ma6ea49c051" x="44.012725" y="75.687663" style="stroke: #000000; stroke-width: 0.5"/>
      </g>
     </g>
     <g id="line2d_132">
      <g>
       <use xlink:href="#md41e81ebce" x="239.312725" y="75.687663" style="stroke: #000000; stroke-width: 0.5"/>
      </g>
     </g>
    </g>
    <g id="ytick_37">
     <g id="line2d_133">
      <g>
       <use xlink:href="#ma6ea49c051" x="44.012725" y="74.041485" style="stroke: #000000; stroke-width: 0.5"/>
      </g>
     </g>
     <g id="line2d_134">
      <g>
       <use xlink:href="#md41e81ebce" x="239.312725" y="74.041485" style="stroke: #000000; stroke-width: 0.5"/>
      </g>
     </g>
    </g>
    <g id="ytick_38">
     <g id="line2d_135">
      <g>
       <use xlink:href="#ma6ea49c051" x="44.012725" y="72.649661" style="stroke: #000000; stroke-width: 0.5"/>
      </g>
     </g>
     <g id="line2d_136">
      <g>
       <use xlink:href="#md41e81ebce" x="239.312725" y="72.649661" style="stroke: #000000; stroke-width: 0.5"/>
      </g>
     </g>
    </g>
    <g id="ytick_39">
     <g id="line2d_137">
      <g>
       <use xlink:href="#ma6ea49c051" x="44.012725" y="71.444008" style="stroke: #000000; stroke-width: 0.5"/>
      </g>
     </g>
     <g id="line2d_138">
      <g>
       <use xlink:href="#md41e81ebce" x="239.312725" y="71.444008" style="stroke: #000000; stroke-width: 0.5"/>
      </g>
     </g>
    </g>
    <g id="ytick_40">
     <g id="line2d_139">
      <g>
       <use xlink:href="#ma6ea49c051" x="44.012725" y="70.380547" style="stroke: #000000; stroke-width: 0.5"/>
      </g>
     </g>
     <g id="line2d_140">
      <g>
       <use xlink:href="#md41e81ebce" x="239.312725" y="70.380547" style="stroke: #000000; stroke-width: 0.5"/>
      </g>
     </g>
    </g>
    <g id="ytick_41">
     <g id="line2d_141">
      <g>
       <use xlink:href="#ma6ea49c051" x="44.012725" y="63.170836" style="stroke: #000000; stroke-width: 0.5"/>
      </g>
     </g>
     <g id="line2d_142">
      <g>
       <use xlink:href="#md41e81ebce" x="239.312725" y="63.170836" style="stroke: #000000; stroke-width: 0.5"/>
      </g>
     </g>
    </g>
    <g id="ytick_42">
     <g id="line2d_143">
      <g>
       <use xlink:href="#ma6ea49c051" x="44.012725" y="59.509898" style="stroke: #000000; stroke-width: 0.5"/>
      </g>
     </g>
     <g id="line2d_144">
      <g>
       <use xlink:href="#md41e81ebce" x="239.312725" y="59.509898" style="stroke: #000000; stroke-width: 0.5"/>
      </g>
     </g>
    </g>
    <g id="ytick_43">
     <g id="line2d_145">
      <g>
       <use xlink:href="#ma6ea49c051" x="44.012725" y="56.912422" style="stroke: #000000; stroke-width: 0.5"/>
      </g>
     </g>
     <g id="line2d_146">
      <g>
       <use xlink:href="#md41e81ebce" x="239.312725" y="56.912422" style="stroke: #000000; stroke-width: 0.5"/>
      </g>
     </g>
    </g>
    <g id="ytick_44">
     <g id="line2d_147">
      <g>
       <use xlink:href="#ma6ea49c051" x="44.012725" y="54.897663" style="stroke: #000000; stroke-width: 0.5"/>
      </g>
     </g>
     <g id="line2d_148">
      <g>
       <use xlink:href="#md41e81ebce" x="239.312725" y="54.897663" style="stroke: #000000; stroke-width: 0.5"/>
      </g>
     </g>
    </g>
    <g id="ytick_45">
     <g id="line2d_149">
      <g>
       <use xlink:href="#ma6ea49c051" x="44.012725" y="53.251485" style="stroke: #000000; stroke-width: 0.5"/>
      </g>
     </g>
     <g id="line2d_150">
      <g>
       <use xlink:href="#md41e81ebce" x="239.312725" y="53.251485" style="stroke: #000000; stroke-width: 0.5"/>
      </g>
     </g>
    </g>
    <g id="ytick_46">
     <g id="line2d_151">
      <g>
       <use xlink:href="#ma6ea49c051" x="44.012725" y="51.859661" style="stroke: #000000; stroke-width: 0.5"/>
      </g>
     </g>
     <g id="line2d_152">
      <g>
       <use xlink:href="#md41e81ebce" x="239.312725" y="51.859661" style="stroke: #000000; stroke-width: 0.5"/>
      </g>
     </g>
    </g>
    <g id="ytick_47">
     <g id="line2d_153">
      <g>
       <use xlink:href="#ma6ea49c051" x="44.012725" y="50.654008" style="stroke: #000000; stroke-width: 0.5"/>
      </g>
     </g>
     <g id="line2d_154">
      <g>
       <use xlink:href="#md41e81ebce" x="239.312725" y="50.654008" style="stroke: #000000; stroke-width: 0.5"/>
      </g>
     </g>
    </g>
    <g id="ytick_48">
     <g id="line2d_155">
      <g>
       <use xlink:href="#ma6ea49c051" x="44.012725" y="49.590547" style="stroke: #000000; stroke-width: 0.5"/>
      </g>
     </g>
     <g id="line2d_156">
      <g>
       <use xlink:href="#md41e81ebce" x="239.312725" y="49.590547" style="stroke: #000000; stroke-width: 0.5"/>
      </g>
     </g>
    </g>
    <g id="ytick_49">
     <g id="line2d_157">
      <g>
       <use xlink:href="#ma6ea49c051" x="44.012725" y="42.380836" style="stroke: #000000; stroke-width: 0.5"/>
      </g>
     </g>
     <g id="line2d_158">
      <g>
       <use xlink:href="#md41e81ebce" x="239.312725" y="42.380836" style="stroke: #000000; stroke-width: 0.5"/>
      </g>
     </g>
    </g>
    <g id="ytick_50">
     <g id="line2d_159">
      <g>
       <use xlink:href="#ma6ea49c051" x="44.012725" y="38.719898" style="stroke: #000000; stroke-width: 0.5"/>
      </g>
     </g>
     <g id="line2d_160">
      <g>
       <use xlink:href="#md41e81ebce" x="239.312725" y="38.719898" style="stroke: #000000; stroke-width: 0.5"/>
      </g>
     </g>
    </g>
    <g id="ytick_51">
     <g id="line2d_161">
      <g>
       <use xlink:href="#ma6ea49c051" x="44.012725" y="36.122422" style="stroke: #000000; stroke-width: 0.5"/>
      </g>
     </g>
     <g id="line2d_162">
      <g>
       <use xlink:href="#md41e81ebce" x="239.312725" y="36.122422" style="stroke: #000000; stroke-width: 0.5"/>
      </g>
     </g>
    </g>
    <g id="ytick_52">
     <g id="line2d_163">
      <g>
       <use xlink:href="#ma6ea49c051" x="44.012725" y="34.107663" style="stroke: #000000; stroke-width: 0.5"/>
      </g>
     </g>
     <g id="line2d_164">
      <g>
       <use xlink:href="#md41e81ebce" x="239.312725" y="34.107663" style="stroke: #000000; stroke-width: 0.5"/>
      </g>
     </g>
    </g>
    <g id="ytick_53">
     <g id="line2d_165">
      <g>
       <use xlink:href="#ma6ea49c051" x="44.012725" y="32.461485" style="stroke: #000000; stroke-width: 0.5"/>
      </g>
     </g>
     <g id="line2d_166">
      <g>
       <use xlink:href="#md41e81ebce" x="239.312725" y="32.461485" style="stroke: #000000; stroke-width: 0.5"/>
      </g>
     </g>
    </g>
    <g id="ytick_54">
     <g id="line2d_167">
      <g>
       <use xlink:href="#ma6ea49c051" x="44.012725" y="31.069661" style="stroke: #000000; stroke-width: 0.5"/>
      </g>
     </g>
     <g id="line2d_168">
      <g>
       <use xlink:href="#md41e81ebce" x="239.312725" y="31.069661" style="stroke: #000000; stroke-width: 0.5"/>
      </g>
     </g>
    </g>
    <g id="ytick_55">
     <g id="line2d_169">
      <g>
       <use xlink:href="#ma6ea49c051" x="44.012725" y="29.864008" style="stroke: #000000; stroke-width: 0.5"/>
      </g>
     </g>
     <g id="line2d_170">
      <g>
       <use xlink:href="#md41e81ebce" x="239.312725" y="29.864008" style="stroke: #000000; stroke-width: 0.5"/>
      </g>
     </g>
    </g>
    <g id="ytick_56">
     <g id="line2d_171">
      <g>
       <use xlink:href="#ma6ea49c051" x="44.012725" y="28.800547" style="stroke: #000000; stroke-width: 0.5"/>
      </g>
     </g>
     <g id="line2d_172">
      <g>
       <use xlink:href="#md41e81ebce" x="239.312725" y="28.800547" style="stroke: #000000; stroke-width: 0.5"/>
      </g>
     </g>
    </g>
    <g id="ytick_57">
     <g id="line2d_173">
      <g>
       <use xlink:href="#ma6ea49c051" x="44.012725" y="21.590836" style="stroke: #000000; stroke-width: 0.5"/>
      </g>
     </g>
     <g id="line2d_174">
      <g>
       <use xlink:href="#md41e81ebce" x="239.312725" y="21.590836" style="stroke: #000000; stroke-width: 0.5"/>
      </g>
     </g>
    </g>
    <g id="ytick_58">
     <g id="line2d_175">
      <g>
       <use xlink:href="#ma6ea49c051" x="44.012725" y="17.929898" style="stroke: #000000; stroke-width: 0.5"/>
      </g>
     </g>
     <g id="line2d_176">
      <g>
       <use xlink:href="#md41e81ebce" x="239.312725" y="17.929898" style="stroke: #000000; stroke-width: 0.5"/>
      </g>
     </g>
    </g>
    <g id="ytick_59">
     <g id="line2d_177">
      <g>
       <use xlink:href="#ma6ea49c051" x="44.012725" y="15.332422" style="stroke: #000000; stroke-width: 0.5"/>
      </g>
     </g>
     <g id="line2d_178">
      <g>
       <use xlink:href="#md41e81ebce" x="239.312725" y="15.332422" style="stroke: #000000; stroke-width: 0.5"/>
      </g>
     </g>
    </g>
    <g id="ytick_60">
     <g id="line2d_179">
      <g>
       <use xlink:href="#ma6ea49c051" x="44.012725" y="13.317663" style="stroke: #000000; stroke-width: 0.5"/>
      </g>
     </g>
     <g id="line2d_180">
      <g>
       <use xlink:href="#md41e81ebce" x="239.312725" y="13.317663" style="stroke: #000000; stroke-width: 0.5"/>
      </g>
     </g>
    </g>
    <g id="ytick_61">
     <g id="line2d_181">
      <g>
       <use xlink:href="#ma6ea49c051" x="44.012725" y="11.671485" style="stroke: #000000; stroke-width: 0.5"/>
      </g>
     </g>
     <g id="line2d_182">
      <g>
       <use xlink:href="#md41e81ebce" x="239.312725" y="11.671485" style="stroke: #000000; stroke-width: 0.5"/>
      </g>
     </g>
    </g>
    <g id="ytick_62">
     <g id="line2d_183">
      <g>
       <use xlink:href="#ma6ea49c051" x="44.012725" y="10.279661" style="stroke: #000000; stroke-width: 0.5"/>
      </g>
     </g>
     <g id="line2d_184">
      <g>
       <use xlink:href="#md41e81ebce" x="239.312725" y="10.279661" style="stroke: #000000; stroke-width: 0.5"/>
      </g>
     </g>
    </g>
    <g id="ytick_63">
     <g id="line2d_185">
      <g>
       <use xlink:href="#ma6ea49c051" x="44.012725" y="9.074008" style="stroke: #000000; stroke-width: 0.5"/>
      </g>
     </g>
     <g id="line2d_186">
      <g>
       <use xlink:href="#md41e81ebce" x="239.312725" y="9.074008" style="stroke: #000000; stroke-width: 0.5"/>
      </g>
     </g>
    </g>
    <g id="ytick_64">
     <g id="line2d_187">
      <g>
       <use xlink:href="#ma6ea49c051" x="44.012725" y="8.010547" style="stroke: #000000; stroke-width: 0.5"/>
      </g>
     </g>
     <g id="line2d_188">
      <g>
       <use xlink:href="#md41e81ebce" x="239.312725" y="8.010547" style="stroke: #000000; stroke-width: 0.5"/>
      </g>
     </g>
    </g>
    <g id="text_16">
     <!-- $FFT$ -->
     <g transform="translate(13.562625 94.985154) rotate(-90) scale(0.144 -0.144)">
      <defs>
       <path id="CMMI12-46" d="M 1901 2055 
L 2515 2055 
C 3002 2055 3040 1946 3040 1761 
C 3040 1678 3027 1589 2995 1448 
C 2982 1423 2976 1391 2976 1378 
C 2976 1333 3002 1308 3046 1308 
C 3098 1308 3104 1333 3130 1435 
L 3501 2935 
C 3501 2961 3482 2999 3437 2999 
C 3379 2999 3373 2974 3347 2863 
C 3213 2376 3085 2240 2528 2240 
L 1946 2240 
L 2362 3926 
C 2419 4154 2432 4154 2694 4154 
L 3552 4154 
C 4352 4154 4467 3918 4467 3464 
C 4467 3426 4467 3285 4448 3119 
C 4442 3094 4429 3011 4429 2985 
C 4429 2934 4461 2915 4499 2915 
C 4544 2915 4570 2941 4582 3055 
L 4717 4174 
C 4717 4195 4730 4263 4730 4277 
C 4730 4352 4672 4352 4557 4352 
L 1523 4352 
C 1402 4352 1338 4352 1338 4229 
C 1338 4154 1382 4154 1491 4154 
C 1888 4154 1888 4113 1888 4050 
C 1888 4018 1882 3992 1862 3922 
L 998 473 
C 941 249 928 185 480 185 
C 358 185 294 185 294 70 
C 294 0 352 0 390 0 
C 512 0 640 0 762 0 
L 1594 0 
C 1734 0 1888 0 2029 0 
C 2086 0 2163 0 2163 115 
C 2163 185 2125 185 1984 185 
C 1478 185 1466 229 1466 324 
C 1466 356 1478 406 1491 449 
L 1901 2055 
z
" transform="scale(0.015625)"/>
       <path id="CMMI12-54" d="M 2669 3910 
C 2707 4064 2720 4121 2816 4147 
C 2867 4160 3078 4160 3213 4160 
C 3853 4160 4154 4134 4154 3634 
C 4154 3537 4128 3295 4090 3057 
L 4083 2980 
C 4083 2954 4109 2916 4147 2916 
C 4211 2916 4211 2948 4230 3050 
L 4416 4184 
C 4429 4243 4429 4256 4429 4275 
C 4429 4345 4390 4345 4262 4345 
L 762 4345 
C 614 4345 608 4339 570 4224 
L 179 3070 
C 173 3056 154 2986 154 2980 
C 154 2948 179 2916 218 2916 
C 269 2916 282 2941 307 3024 
C 576 3801 710 4160 1562 4160 
L 1990 4160 
C 2144 4160 2208 4160 2208 4089 
C 2208 4069 2208 4057 2176 3941 
L 1318 499 
C 1254 249 1242 185 563 185 
C 403 185 358 185 358 64 
C 358 0 429 0 461 0 
C 621 0 787 0 947 0 
L 1946 0 
C 2106 0 2278 0 2438 0 
C 2509 0 2573 0 2573 121 
C 2573 185 2528 185 2362 185 
C 1786 185 1786 243 1786 339 
C 1786 346 1786 391 1811 494 
L 2669 3910 
z
" transform="scale(0.015625)"/>
      </defs>
      <use xlink:href="#CMMI12-46" transform="scale(0.996264)"/>
      <use xlink:href="#CMMI12-46" transform="translate(76.696793 0) scale(0.996264)"/>
      <use xlink:href="#CMMI12-54" transform="translate(153.393585 0) scale(0.996264)"/>
     </g>
    </g>
   </g>
   <g id="line2d_189">
    <path d="M 44.012725 103.994084 
L 44.251129 98.311357 
L 44.489532 94.88848 
L 44.608734 97.150125 
L 44.727935 107.254514 
L 45.08554 88.691252 
L 45.204742 88.374729 
L 45.443145 90.33358 
L 45.80075 84.684082 
L 45.919952 84.667461 
L 46.158355 87.589324 
L 46.396759 90.824788 
L 46.635162 89.125034 
L 46.873565 87.928619 
L 46.992767 88.062289 
L 47.111969 88.979689 
L 47.469573 96.263929 
L 47.588775 95.246213 
L 47.707977 93.890778 
L 47.827178 93.927164 
L 47.94638 95.60354 
L 48.184783 104.932038 
L 48.303985 114.867994 
L 48.423187 113.173671 
L 48.66159 99.216637 
L 48.899993 94.463738 
L 49.019195 94.375874 
L 49.257598 96.097906 
L 49.496002 95.877393 
L 49.615203 96.264793 
L 49.853607 98.210582 
L 50.09201 100.931349 
L 50.330413 97.254949 
L 50.449615 97.790959 
L 50.688018 106.315376 
L 50.926422 99.197054 
L 51.045623 99.83446 
L 51.164825 103.669674 
L 51.403228 120.806029 
L 51.641632 113.420747 
L 51.999237 97.663711 
L 52.118438 101.503457 
L 52.23764 100.392637 
L 52.356842 94.758254 
L 52.595245 96.94421 
L 52.714447 96.814901 
L 52.95285 81.212197 
L 53.072052 83.294231 
L 53.191253 76.840344 
L 53.429657 56.270182 
L 53.66806 49.736068 
L 53.787261 49.076406 
L 53.906463 49.978368 
L 54.144866 57.089685 
L 54.740875 97.531327 
L 54.860076 88.577938 
L 54.979278 90.035341 
L 55.217681 104.426772 
L 55.336883 103.189618 
L 55.456085 98.480398 
L 55.575286 99.961973 
L 55.694488 112.705641 
L 55.932891 101.802769 
L 56.052093 104.780047 
L 56.171295 111.816165 
L 56.290496 112.052786 
L 56.648101 101.27194 
L 57.124908 95.321052 
L 57.24411 94.943426 
L 57.363311 96.099581 
L 57.720916 104.197837 
L 57.840118 103.50428 
L 58.078521 101.132631 
L 58.197723 100.803429 
L 58.316925 100.953884 
L 58.67453 102.127544 
L 58.793731 102.267469 
L 58.912933 102.741435 
L 59.032135 104.147243 
L 59.38974 112.506388 
L 60.224151 95.955163 
L 60.462554 94.83195 
L 60.581756 95.153798 
L 60.820159 97.437919 
L 61.058563 103.989562 
L 61.296966 110.092797 
L 61.654571 105.149984 
L 62.369781 99.080453 
L 62.488983 99.973318 
L 62.727386 105.044389 
L 62.965789 110.574235 
L 63.084991 110.027687 
L 64.038604 98.013779 
L 64.277008 97.575901 
L 64.515411 97.811978 
L 64.634613 98.132472 
L 64.873016 100.079863 
L 65.349823 105.672811 
L 65.826629 102.998935 
L 65.945831 103.279984 
L 66.184234 106.00689 
L 66.422637 114.180149 
L 66.541839 120.877154 
L 66.780242 109.704482 
L 67.018646 106.812336 
L 67.495452 103.043008 
L 67.614654 103.579935 
L 67.853057 106.015884 
L 67.972259 105.878793 
L 68.329864 102.308942 
L 68.449066 102.906659 
L 68.568267 105.244356 
L 68.806671 115.696265 
L 69.045074 104.319412 
L 69.164276 103.19405 
L 69.283477 103.432824 
L 69.521881 104.523973 
L 69.641082 104.726661 
L 69.760284 105.427372 
L 69.879486 107.533332 
L 70.117889 120.548559 
L 70.356292 106.925015 
L 70.475494 106.575878 
L 70.713897 108.77317 
L 70.952301 106.278362 
L 71.309906 101.6431 
L 71.429107 102.406229 
L 71.548309 105.677748 
L 71.667511 114.130489 
L 71.786712 113.829049 
L 72.025115 106.849219 
L 72.263519 110.556499 
L 72.501922 101.631983 
L 72.621124 105.135546 
L 73.217132 73.526726 
L 73.336334 73.142297 
L 73.455535 74.33891 
L 73.693939 82.345583 
L 73.81314 90.85758 
L 73.932342 110.396291 
L 74.051544 108.80466 
L 74.170745 113.024797 
L 74.409149 101.187364 
L 74.52835 101.467625 
L 74.885955 105.838342 
L 75.124359 106.621809 
L 75.24356 108.094651 
L 75.481964 114.822041 
L 75.720367 107.904675 
L 75.95877 106.825745 
L 76.077972 106.676714 
L 76.197174 107.159133 
L 76.316375 109.311315 
L 76.435577 114.494051 
L 76.554779 128.678241 
L 76.793182 116.976602 
L 77.031585 113.664041 
L 77.269989 110.625963 
L 77.38919 110.844939 
L 77.627594 113.960087 
L 77.865997 117.967817 
L 77.985198 117.515762 
L 78.223602 113.966768 
L 78.342803 113.517994 
L 78.462005 114.481542 
L 78.581207 117.444913 
L 78.81961 127.548862 
L 79.058013 112.056383 
L 79.296417 108.822738 
L 79.415618 109.012031 
L 79.53482 110.401607 
L 79.892425 120.127606 
L 80.25003 110.897496 
L 80.369232 111.352954 
L 80.488433 115.532927 
L 80.607635 130.504264 
L 80.846038 109.436051 
L 80.96524 108.027894 
L 81.084442 108.636514 
L 81.442047 114.225527 
L 82.038055 102.920001 
L 82.157257 103.410409 
L 82.39566 107.862393 
L 82.634063 112.41309 
L 82.872467 107.259736 
L 82.991668 106.408504 
L 83.11087 106.540604 
L 83.468475 109.195916 
L 83.587677 108.99976 
L 84.064483 104.618076 
L 84.183685 105.621644 
L 84.422088 109.931986 
L 84.779693 106.225687 
L 84.898895 108.594738 
L 85.018096 114.88886 
L 85.137298 129.015354 
L 85.375701 110.287302 
L 85.733306 106.205691 
L 85.97171 104.702433 
L 86.090911 104.498305 
L 86.210113 104.718395 
L 86.448516 106.586635 
L 87.044525 115.869768 
L 87.163726 114.864573 
L 87.40213 110.30817 
L 87.521331 109.773888 
L 87.640533 110.676112 
L 87.878936 113.222909 
L 88.355743 104.774599 
L 88.474945 104.206391 
L 88.594146 104.383838 
L 88.83255 107.360409 
L 89.190155 112.750814 
L 89.309356 113.252706 
L 89.428558 112.591916 
L 89.786163 107.76442 
L 89.905365 107.716472 
L 90.262969 112.426831 
L 90.739776 108.748442 
L 90.858978 108.994649 
L 90.978179 110.019242 
L 91.216583 114.186475 
L 91.454986 112.094031 
L 91.574188 113.069227 
L 91.812591 120.230846 
L 92.050994 110.531508 
L 92.170196 109.652203 
L 92.408599 97.791644 
L 92.647003 88.80309 
L 92.885406 86.9588 
L 93.004608 88.364673 
L 93.243011 96.333559 
L 93.481414 109.847651 
L 93.600616 109.331518 
L 93.839019 105.361171 
L 93.958221 106.234962 
L 94.077423 109.447256 
L 94.196624 115.727385 
L 94.435028 134.575107 
L 94.792633 115.531805 
L 94.911834 114.923936 
L 95.031036 115.406494 
L 95.269439 110.876431 
L 95.507843 108.034811 
L 95.627044 107.901134 
L 95.746246 108.321708 
L 95.984649 110.842344 
L 96.342254 115.035213 
L 96.461456 114.859424 
L 96.699859 114.137291 
L 96.819061 114.580399 
L 97.415069 120.888672 
L 97.534271 125.798839 
L 97.653472 142.789635 
L 97.891876 118.347166 
L 98.130279 113.624604 
L 98.368682 112.032436 
L 98.487884 112.425927 
L 99.083892 117.175453 
L 99.679901 108.751095 
L 99.799102 109.501641 
L 100.156707 116.6284 
L 100.395111 121.330316 
L 100.871917 108.138249 
L 100.991119 108.311569 
L 101.110321 110.17199 
L 101.229522 114.644646 
L 101.348724 126.06848 
L 101.587127 113.116639 
L 101.706329 112.187535 
L 101.825531 114.64672 
L 101.944732 120.722985 
L 102.302337 112.549965 
L 102.421539 113.986325 
L 102.54074 118.020749 
L 102.659942 127.004356 
L 103.017547 111.034142 
L 103.136749 110.283666 
L 103.25595 111.40234 
L 103.494354 118.161879 
L 103.732757 126.756727 
L 104.090362 115.162056 
L 104.328765 113.208032 
L 104.924774 105.611231 
L 105.043975 105.581985 
L 105.163177 106.44914 
L 105.40158 111.282118 
L 105.759185 121.719489 
L 105.878387 122.788032 
L 105.997589 121.491238 
L 106.355194 113.939329 
L 106.593597 113.055192 
L 106.712799 113.35264 
L 106.832 114.347287 
L 106.951202 116.703638 
L 107.189605 126.951686 
L 107.428009 119.041969 
L 107.54721 119.678338 
L 107.666412 123.422255 
L 107.785614 132.460115 
L 107.904815 132.542837 
L 108.143219 115.366853 
L 108.381622 110.69602 
L 108.500823 111.461282 
L 108.620025 114.554844 
L 108.858428 133.631332 
L 108.97763 129.696084 
L 109.096832 130.303389 
L 109.216033 127.882522 
L 109.454437 119.197899 
L 109.69284 117.498432 
L 109.812042 118.393709 
L 110.050445 124.51287 
L 110.169647 128.811636 
L 110.288848 128.661874 
L 110.646453 119.274259 
L 110.884857 117.591761 
L 111.242462 120.255077 
L 111.361663 118.60732 
L 111.600067 111.852759 
L 111.719268 111.021886 
L 111.957672 117.523543 
L 112.196075 102.898243 
L 112.315277 100.73616 
L 112.434478 100.687379 
L 112.55368 102.661204 
L 112.672882 107.177632 
L 112.911285 119.026614 
L 113.149688 113.118628 
L 113.388092 115.300921 
L 113.745697 114.379584 
L 114.103302 115.486834 
L 114.69931 111.286197 
L 115.056915 111.026838 
L 115.176116 111.522414 
L 115.41452 115.513678 
L 115.533721 118.472995 
L 115.652923 118.312121 
L 115.891326 114.021701 
L 116.010528 113.835339 
L 116.12973 115.417318 
L 116.248931 119.633386 
L 116.368133 132.02584 
L 116.725738 114.608119 
L 116.84494 113.275975 
L 116.964141 113.231042 
L 117.083343 114.430119 
L 117.321746 121.677637 
L 117.56015 137.825432 
L 118.27536 110.795216 
L 118.394561 109.90875 
L 118.513763 110.253177 
L 118.632965 112.019461 
L 118.752166 116.066997 
L 118.871368 126.010106 
L 119.348175 113.557175 
L 119.586578 117.882771 
L 119.824981 122.926908 
L 120.063385 119.527014 
L 120.42099 115.829407 
L 120.540191 114.984611 
L 120.659393 115.081419 
L 120.778594 116.807913 
L 121.016998 125.8978 
L 121.493804 120.788426 
L 121.613006 121.101257 
L 121.851409 122.57537 
L 121.970611 122.535734 
L 122.328216 116.314751 
L 122.447418 116.593008 
L 122.685821 122.538723 
L 122.924224 127.074044 
L 123.520233 116.498205 
L 123.639434 116.115319 
L 123.758636 116.164995 
L 123.877838 116.746181 
L 124.116241 120.171018 
L 124.354644 124.390599 
L 124.473846 125.076677 
L 125.189056 114.582141 
L 125.546661 108.814051 
L 125.665863 108.632629 
L 125.785064 109.473609 
L 125.904266 111.788884 
L 126.142669 124.154302 
L 126.381073 114.251034 
L 126.500274 113.288325 
L 126.619476 114.393648 
L 126.857879 123.50917 
L 127.096282 137.066025 
L 127.453887 118.142556 
L 127.573089 117.081928 
L 127.692291 118.957745 
L 127.930694 128.199363 
L 128.169097 119.090388 
L 128.645904 115.209389 
L 128.884307 116.204905 
L 129.003509 115.906275 
L 129.241912 114.670647 
L 129.361114 114.907771 
L 129.599517 117.316739 
L 129.718719 117.098799 
L 129.837921 116.105381 
L 129.957122 116.162642 
L 130.076324 118.11384 
L 130.195526 122.978291 
L 130.314727 137.141486 
L 130.553131 123.573164 
L 130.672332 122.243019 
L 130.791534 123.752786 
L 130.910736 128.202037 
L 131.029937 127.777353 
L 131.268341 120.579354 
L 131.506744 120.087512 
L 132.102752 112.883839 
L 133.056365 117.021573 
L 133.41397 124.881602 
L 133.652374 122.794857 
L 133.890777 129.681197 
L 134.486785 120.831049 
L 134.605987 120.927303 
L 134.725189 123.344241 
L 134.963592 140.817573 
L 135.201995 130.831657 
L 135.440399 133.68785 
L 135.5596 131.758151 
L 136.036407 113.810869 
L 136.27481 111.09923 
L 136.394012 111.59651 
L 136.513214 113.610315 
L 136.751617 124.369361 
L 136.870819 124.311239 
L 136.99002 121.663885 
L 137.109222 122.575796 
L 137.228424 125.054196 
L 137.586029 115.820473 
L 137.70523 115.928081 
L 138.062835 122.379815 
L 138.778045 111.867912 
L 138.897247 111.820636 
L 139.254852 112.167268 
L 139.374053 112.82763 
L 139.493255 114.559108 
L 139.731658 123.867655 
L 139.970062 141.803113 
L 140.446868 119.128489 
L 140.685272 114.574761 
L 140.804473 114.305006 
L 140.923675 115.320081 
L 141.400482 125.391171 
L 141.877288 116.580733 
L 141.99649 117.794484 
L 142.115692 121.379736 
L 142.234893 128.412484 
L 142.354095 128.272438 
L 142.473297 124.470935 
L 142.592498 124.832484 
L 142.830902 131.515952 
L 143.069305 126.188866 
L 143.188507 125.561445 
L 143.546112 119.518881 
L 143.665313 119.269968 
L 143.903717 119.492869 
L 144.022918 119.956134 
L 144.261322 121.39898 
L 144.618927 112.985464 
L 144.738128 112.78913 
L 144.85733 114.128599 
L 145.095733 121.63807 
L 145.334136 137.324668 
L 146.049346 120.669695 
L 146.28775 116.527891 
L 146.526153 113.219272 
L 146.645355 113.274216 
L 146.883758 116.299225 
L 147.00296 119.633018 
L 147.122161 126.128824 
L 147.241363 140.579461 
L 147.479766 121.222926 
L 147.598968 120.700681 
L 147.71817 123.137643 
L 147.837371 128.740041 
L 148.314178 116.163172 
L 148.43338 116.372512 
L 148.910186 118.63136 
L 149.14859 119.757061 
L 149.625396 122.858396 
L 149.744598 122.506602 
L 150.221405 114.384954 
L 150.340606 114.270664 
L 150.459808 114.816297 
L 150.698211 117.909768 
L 150.936615 125.325018 
L 151.175018 119.727697 
L 151.294219 119.966322 
L 151.532623 127.531648 
L 151.771026 135.88804 
L 151.890228 137.011797 
L 152.009429 134.848302 
L 152.486236 117.250665 
L 152.724639 114.581189 
L 152.843841 114.665964 
L 153.082244 117.652342 
L 153.439849 123.541542 
L 153.678253 121.217135 
L 153.797454 120.997811 
L 153.916656 120.314566 
L 154.274261 116.069001 
L 154.393463 116.064545 
L 154.512664 116.506529 
L 154.631866 117.563266 
L 154.751068 120.200911 
L 154.989471 129.059221 
L 155.227874 116.719893 
L 155.347076 116.120178 
L 155.466278 117.907225 
L 155.704681 127.843276 
L 155.943084 118.124907 
L 156.062286 117.32026 
L 156.300689 119.718915 
L 156.777496 124.363636 
L 156.896698 124.1942 
L 157.135101 121.675051 
L 157.254302 121.865291 
L 157.492706 122.741837 
L 157.611907 122.246257 
L 158.088714 118.739163 
L 158.327117 118.019555 
L 158.446319 118.276839 
L 158.684722 120.712514 
L 158.803924 120.696456 
L 159.161529 115.009717 
L 159.280731 115.580833 
L 159.519134 122.166035 
L 159.638336 125.664235 
L 159.995941 117.95443 
L 160.234344 116.161024 
L 160.353546 115.795665 
L 160.472747 115.918926 
L 160.711151 118.017634 
L 161.068756 125.553604 
L 161.187957 125.320137 
L 161.426361 123.904028 
L 161.664764 126.102186 
L 161.783966 129.970668 
L 161.903167 144.132493 
L 162.141571 122.457948 
L 162.260772 121.232326 
L 162.379974 122.958534 
L 162.618377 128.22593 
L 162.737579 127.63661 
L 162.975982 131.087668 
L 163.214386 124.457887 
L 163.333587 127.455854 
L 163.452789 139.34904 
L 163.691192 126.144194 
L 163.929595 125.772469 
L 164.2872 120.050478 
L 164.406402 120.948646 
L 164.644805 128.012687 
L 164.883209 138.74846 
L 165.121612 122.460245 
L 165.360015 119.010177 
L 165.479217 119.272235 
L 165.71762 120.331959 
L 166.194427 119.58312 
L 166.313629 120.155393 
L 166.552032 123.578812 
L 167.028839 135.058153 
L 167.14804 135.480801 
L 167.624847 115.076233 
L 167.86325 112.801008 
L 167.982452 113.412045 
L 168.220855 118.022627 
L 168.459259 124.095976 
L 168.57846 124.125778 
L 168.936065 118.218939 
L 169.055267 118.584585 
L 169.174469 121.592917 
L 169.29367 131.462183 
L 169.651275 118.266949 
L 169.770477 119.166979 
L 169.889678 123.095325 
L 170.00888 133.459676 
L 170.128082 133.814053 
L 170.366485 122.896132 
L 170.604888 119.527242 
L 170.72409 119.292145 
L 170.843292 120.63958 
L 170.962493 124.849173 
L 171.081695 134.892901 
L 171.320098 118.978062 
L 171.4393 117.259027 
L 171.558502 118.15894 
L 171.677703 122.183059 
L 171.796905 131.670974 
L 172.035308 123.523914 
L 172.15451 123.834829 
L 172.273712 126.4685 
L 172.392913 126.481722 
L 172.631317 122.994992 
L 172.750518 124.330658 
L 172.988922 127.679423 
L 173.227325 123.802308 
L 173.346527 123.483117 
L 173.465728 123.644442 
L 173.58493 123.577183 
L 173.942535 122.675996 
L 174.061737 122.809443 
L 174.180938 122.656162 
L 174.419342 119.705952 
L 174.657745 117.305817 
L 174.776947 117.796715 
L 175.01535 122.609005 
L 175.253753 125.974008 
L 175.611358 119.799995 
L 175.73056 119.837892 
L 175.968963 124.053129 
L 176.088165 125.971009 
L 176.564971 117.472987 
L 176.684173 117.550425 
L 176.922576 120.739306 
L 177.16098 124.124979 
L 177.280181 124.401264 
L 177.399383 124.391751 
L 177.756988 123.864189 
L 177.87619 125.434077 
L 177.995391 130.295524 
L 178.114593 154.965246 
L 178.352996 123.846732 
L 178.5914 120.483009 
L 178.710601 121.22125 
L 178.829803 124.106648 
L 178.949005 130.209368 
L 179.425811 116.408011 
L 179.545013 117.218015 
L 179.783416 124.202517 
L 179.902618 129.796933 
L 180.02182 129.794473 
L 180.260223 126.057159 
L 180.379425 125.745198 
L 180.498626 126.221437 
L 180.856231 129.555231 
L 181.45224 116.315705 
L 181.571441 116.836896 
L 181.690643 118.866356 
L 181.809844 123.011883 
L 182.048248 136.330146 
L 182.286651 122.407218 
L 182.405853 120.977505 
L 182.525054 121.247699 
L 182.644256 123.380156 
L 182.763458 128.180945 
L 182.882659 137.487557 
L 183.121063 131.537124 
L 183.240264 131.679045 
L 183.359466 131.651286 
L 183.836273 122.042538 
L 184.074676 121.087305 
L 184.193878 121.737323 
L 184.551483 128.574396 
L 184.909088 119.094589 
L 185.028289 118.431314 
L 185.147491 118.549006 
L 185.505096 120.619517 
L 185.862701 123.052765 
L 185.981903 123.11517 
L 186.220306 120.823721 
L 186.458709 118.435876 
L 186.577911 118.468734 
L 186.697113 119.753638 
L 187.054718 128.153337 
L 187.293121 125.69173 
L 187.412323 128.090825 
L 187.531524 132.983485 
L 187.650726 131.644567 
L 187.889129 126.905479 
L 188.008331 129.015494 
L 188.127532 137.259596 
L 188.246734 136.805378 
L 188.485137 123.548064 
L 188.723541 121.953502 
L 188.961944 123.843293 
L 189.319549 128.195402 
L 189.557952 125.536164 
L 189.677154 125.19815 
L 189.796356 125.357928 
L 190.034759 126.521777 
L 190.153961 127.222447 
L 190.273162 127.110868 
L 190.392364 126.674525 
L 190.511566 127.238053 
L 190.630767 129.978267 
L 190.749969 137.11681 
L 191.226776 120.724006 
L 191.345977 120.973632 
L 191.584381 126.771342 
L 191.703582 130.546358 
L 191.822784 130.593894 
L 192.180389 125.565205 
L 192.299591 126.567042 
L 192.537994 136.339821 
L 192.776397 121.152571 
L 193.014801 119.404343 
L 193.134002 120.016226 
L 193.372406 123.52203 
L 193.610809 126.90765 
L 193.849212 120.907301 
L 193.968414 120.202341 
L 194.087615 121.627491 
L 194.326019 126.898748 
L 194.564422 118.793498 
L 194.683624 117.676147 
L 194.802825 117.882276 
L 195.279632 121.500861 
L 195.398834 121.472621 
L 195.518035 122.388125 
L 195.756439 126.814328 
L 195.87564 126.262055 
L 196.114044 124.336788 
L 196.233245 125.732128 
L 196.352447 129.77627 
L 196.471649 142.812998 
L 196.829254 125.128157 
L 197.067657 123.67481 
L 197.30606 123.029365 
L 197.425262 124.03574 
L 197.782867 133.782744 
L 198.140472 119.967596 
L 198.378875 116.62477 
L 198.498077 116.547001 
L 198.617279 117.773196 
L 198.855682 122.708435 
L 199.332489 119.516618 
L 199.690094 118.415665 
L 199.809295 119.415958 
L 199.928497 121.908801 
L 200.1669 133.28751 
L 200.405303 120.108419 
L 200.643707 117.412827 
L 200.762908 118.394488 
L 201.239715 127.641428 
L 201.59732 122.628972 
L 201.716522 123.085538 
L 201.954925 127.456627 
L 202.074127 127.42304 
L 202.31253 124.625731 
L 202.431732 124.644237 
L 202.550933 124.391413 
L 202.789337 123.501581 
L 202.908538 125.313262 
L 203.146942 138.440427 
L 203.504547 123.816617 
L 203.74295 120.264445 
L 203.862152 120.0765 
L 204.100555 121.100337 
L 204.45816 118.896684 
L 204.577362 119.966991 
L 205.054168 129.733223 
L 205.17337 128.524819 
L 205.650177 118.116911 
L 205.88858 116.79664 
L 206.007782 117.748255 
L 206.126983 120.304308 
L 206.365386 134.922886 
L 206.60379 122.327873 
L 206.842193 119.689264 
L 206.961395 119.403337 
L 207.080596 119.467172 
L 207.199798 120.250633 
L 207.438201 123.105525 
L 207.795806 119.353732 
L 208.03421 121.502909 
L 208.272613 123.568717 
L 208.391815 123.802071 
L 208.74942 119.498124 
L 208.868621 119.692848 
L 209.226226 121.544654 
L 209.46463 120.0153 
L 209.583831 119.27056 
L 209.703033 119.246358 
L 209.822235 120.109873 
L 210.060638 124.150399 
L 210.299041 129.734586 
L 210.418243 128.933807 
L 210.656646 124.774107 
L 210.775848 124.883695 
L 211.014251 128.001325 
L 211.252655 132.135134 
L 211.491058 121.492336 
L 211.61026 119.796006 
L 211.729461 120.471203 
L 211.967865 124.633545 
L 212.206268 119.658681 
L 212.325469 119.790257 
L 212.563873 125.241805 
L 212.802276 132.459014 
L 213.159881 125.45711 
L 213.279083 126.912043 
L 213.398284 132.15275 
L 213.517486 130.394119 
L 213.755889 120.826645 
L 213.875091 120.340812 
L 214.113494 122.635968 
L 214.351898 121.278203 
L 214.590301 122.856913 
L 214.709503 121.905377 
L 214.947906 118.972597 
L 215.067108 119.342727 
L 215.186309 121.489647 
L 215.424713 135.457897 
L 215.663116 123.787984 
L 215.901519 121.226987 
L 216.020721 121.577618 
L 216.139923 122.998408 
L 216.378326 130.423538 
L 216.616729 139.190608 
L 216.855133 127.266061 
L 217.093536 122.010877 
L 217.212738 121.212993 
L 217.331939 121.99639 
L 217.570343 128.951437 
L 218.047149 120.445125 
L 218.285552 121.535818 
L 218.643157 119.805456 
L 218.762359 120.888382 
L 218.881561 123.712342 
L 219.000762 129.353521 
L 219.119964 142.666437 
L 219.477569 126.04725 
L 219.715972 123.673879 
L 219.835174 124.519076 
L 220.073577 127.380444 
L 220.192779 125.943696 
L 220.550384 118.444245 
L 220.669586 117.431519 
L 220.788787 117.48824 
L 220.907989 118.66469 
L 221.265594 126.787558 
L 221.384796 126.245114 
L 221.623199 123.678368 
L 221.742401 123.470518 
L 221.980804 124.404243 
L 222.219207 126.556603 
L 222.338409 129.026724 
L 222.576812 138.553836 
L 222.815216 131.486343 
L 222.934417 132.365988 
L 223.053619 131.607636 
L 223.292022 126.135926 
L 223.411224 126.375324 
L 223.530426 127.892924 
L 223.649627 127.40016 
L 224.126434 116.886916 
L 224.364837 115.732964 
L 224.484039 115.802401 
L 224.60324 116.43253 
L 224.841644 120.511239 
L 225.080047 130.712877 
L 225.31845 141.425901 
L 225.914459 126.344211 
L 226.03366 127.024877 
L 226.272064 131.70072 
L 226.510467 137.098508 
L 226.868072 125.852525 
L 226.987274 124.628797 
L 227.106475 125.345903 
L 227.225677 129.474784 
L 227.344879 145.069385 
L 227.583282 123.004932 
L 227.702484 121.405214 
L 227.821685 122.110845 
L 228.17929 132.098826 
L 228.536895 124.81857 
L 228.656097 125.24113 
L 228.8945 132.71591 
L 229.013702 138.349148 
L 229.132904 137.926376 
L 229.490509 123.529639 
L 229.60971 121.789032 
L 229.728912 121.767251 
L 229.848114 123.568409 
L 230.086517 131.454177 
L 230.444122 125.606042 
L 230.563323 126.301777 
L 230.801727 129.231457 
L 230.920928 129.155109 
L 231.159332 127.676172 
L 231.278533 127.481654 
L 231.397735 128.023884 
L 231.516937 130.148423 
L 231.75534 147.267856 
L 231.993743 127.393331 
L 232.708953 116.338381 
L 233.066558 121.154064 
L 233.424163 117.371013 
L 233.543365 117.749952 
L 233.781768 121.901667 
L 234.139373 136.702449 
L 234.258575 134.72273 
L 234.377777 134.798545 
L 234.496978 135.726766 
L 234.61618 135.602938 
L 234.735382 134.622489 
L 234.854583 134.582559 
L 235.092987 139.873756 
L 235.688995 123.507846 
L 235.927398 122.055674 
L 236.0466 122.691049 
L 236.285003 126.644245 
L 236.642608 139.651499 
L 236.881011 125.102456 
L 237.119415 119.359419 
L 237.357818 117.821035 
L 237.47702 118.662399 
L 237.953826 127.734318 
L 238.073028 130.368619 
L 238.19223 130.385555 
L 238.430633 124.026687 
L 238.549835 123.255294 
L 238.669036 123.996912 
L 238.90744 126.711432 
L 239.145843 123.916028 
L 239.384246 121.527168 
L 239.384246 121.527168 
" clip-path="url(#p7f161e96f9)" style="fill: none; stroke: #4477aa; stroke-linecap: square"/>
   </g>
   <g id="patch_3">
    <path d="M 44.012725 152.589249 
L 44.012725 7.059249 
" style="fill: none; stroke: #000000; stroke-width: 0.5; stroke-linejoin: miter; stroke-linecap: square"/>
   </g>
   <g id="patch_4">
    <path d="M 239.312725 152.589249 
L 239.312725 7.059249 
" style="fill: none; stroke: #000000; stroke-width: 0.5; stroke-linejoin: miter; stroke-linecap: square"/>
   </g>
   <g id="patch_5">
    <path d="M 44.012725 152.589249 
L 239.312725 152.589249 
" style="fill: none; stroke: #000000; stroke-width: 0.5; stroke-linejoin: miter; stroke-linecap: square"/>
   </g>
   <g id="patch_6">
    <path d="M 44.012725 7.059249 
L 239.312725 7.059249 
" style="fill: none; stroke: #000000; stroke-width: 0.5; stroke-linejoin: miter; stroke-linecap: square"/>
   </g>
  </g>
 </g>
 <defs>
  <clipPath id="p7f161e96f9">
   <rect x="44.012725" y="7.059249" width="195.3" height="145.53"/>
  </clipPath>
 </defs>
</svg>
