<?xml version="1.0" encoding="utf-8" standalone="no"?>
<!DOCTYPE svg PUBLIC "-//W3C//DTD SVG 1.1//EN"
  "http://www.w3.org/Graphics/SVG/1.1/DTD/svg11.dtd">
<svg xmlns:xlink="http://www.w3.org/1999/xlink" width="231.585756pt" height="199.548688pt" viewBox="0 0 231.585756 199.548688" xmlns="http://www.w3.org/2000/svg" version="1.1">
 <metadata>
  <rdf:RDF xmlns:dc="http://purl.org/dc/elements/1.1/" xmlns:cc="http://creativecommons.org/ns#" xmlns:rdf="http://www.w3.org/1999/02/22-rdf-syntax-ns#">
   <cc:Work>
    <dc:type rdf:resource="http://purl.org/dc/dcmitype/StillImage"/>
    <dc:date>2025-09-28T13:36:06.342353</dc:date>
    <dc:format>image/svg+xml</dc:format>
    <dc:creator>
     <cc:Agent>
      <dc:title>Matplotlib v3.6.3, https://matplotlib.org/</dc:title>
     </cc:Agent>
    </dc:creator>
   </cc:Work>
  </rdf:RDF>
 </metadata>
 <defs>
  <style type="text/css">*{stroke-linejoin: round; stroke-linecap: butt}</style>
 </defs>
 <g id="figure_1">
  <g id="patch_1">
   <path d="M 0 199.548688 
L 231.585756 199.548688 
L 231.585756 0 
L 0 0 
L 0 199.548688 
z
" style="fill: none"/>
  </g>
  <g id="axes_1">
   <g id="patch_2">
    <path d="M 32.685756 170.737335 
L 227.985756 170.737335 
L 227.985756 25.207335 
L 32.685756 25.207335 
L 32.685756 170.737335 
z
" style="fill: none"/>
   </g>
   <g id="matplotlib.axis_1">
    <g id="xtick_1">
     <g id="line2d_1">
      <defs>
       <path id="m01a28a3bed" d="M 0 0 
L 0 -3 
" style="stroke: #000000; stroke-width: 0.5"/>
      </defs>
      <g>
       <use xlink:href="#m01a28a3bed" x="46.635756" y="170.737335" style="stroke: #000000; stroke-width: 0.5"/>
      </g>
     </g>
     <g id="line2d_2">
      <defs>
       <path id="m7e78c5199e" d="M 0 0 
L 0 3 
" style="stroke: #000000; stroke-width: 0.5"/>
      </defs>
      <g>
       <use xlink:href="#m7e78c5199e" x="46.635756" y="25.207335" style="stroke: #000000; stroke-width: 0.5"/>
      </g>
     </g>
     <g id="text_1">
      <!-- 1 -->
      <g transform="translate(44.145088 181.155833) scale(0.1 -0.1)">
       <defs>
        <path id="CMR17-31" d="M 1702 4083 
C 1702 4217 1696 4224 1606 4224 
C 1357 3927 979 3833 621 3820 
C 602 3820 570 3820 563 3808 
C 557 3795 557 3782 557 3648 
C 755 3648 1088 3686 1344 3839 
L 1344 467 
C 1344 243 1331 166 781 166 
L 589 166 
L 589 0 
C 896 6 1216 12 1523 12 
C 1830 12 2150 6 2458 0 
L 2458 166 
L 2266 166 
C 1715 166 1702 236 1702 467 
L 1702 4083 
z
" transform="scale(0.015625)"/>
       </defs>
       <use xlink:href="#CMR17-31" transform="scale(0.996264)"/>
      </g>
     </g>
    </g>
    <g id="xtick_2">
     <g id="line2d_3">
      <g>
       <use xlink:href="#m01a28a3bed" x="74.535756" y="170.737335" style="stroke: #000000; stroke-width: 0.5"/>
      </g>
     </g>
     <g id="line2d_4">
      <g>
       <use xlink:href="#m7e78c5199e" x="74.535756" y="25.207335" style="stroke: #000000; stroke-width: 0.5"/>
      </g>
     </g>
     <g id="text_2">
      <!-- 3 -->
      <g transform="translate(72.045088 181.155833) scale(0.1 -0.1)">
       <defs>
        <path id="CMR17-33" d="M 1414 2176 
C 1984 2176 2234 1673 2234 1094 
C 2234 322 1824 25 1453 25 
C 1114 25 563 193 390 691 
C 422 678 454 678 486 678 
C 640 678 755 780 755 947 
C 755 1132 614 1216 486 1216 
C 378 1216 211 1164 211 927 
C 211 335 787 -128 1466 -128 
C 2176 -128 2720 432 2720 1087 
C 2720 1718 2208 2176 1600 2246 
C 2086 2347 2554 2776 2554 3353 
C 2554 3856 2048 4224 1472 4224 
C 890 4224 378 3862 378 3347 
C 378 3123 544 3084 627 3084 
C 762 3084 877 3167 877 3334 
C 877 3500 762 3584 627 3584 
C 602 3584 570 3584 544 3571 
C 730 3999 1235 4076 1459 4076 
C 1683 4076 2106 3966 2106 3347 
C 2106 3167 2080 2851 1862 2574 
C 1670 2329 1453 2316 1242 2297 
C 1210 2297 1062 2284 1037 2284 
C 992 2278 966 2272 966 2227 
C 966 2182 973 2176 1101 2176 
L 1414 2176 
z
" transform="scale(0.015625)"/>
       </defs>
       <use xlink:href="#CMR17-33" transform="scale(0.996264)"/>
      </g>
     </g>
    </g>
    <g id="xtick_3">
     <g id="line2d_5">
      <g>
       <use xlink:href="#m01a28a3bed" x="102.435756" y="170.737335" style="stroke: #000000; stroke-width: 0.5"/>
      </g>
     </g>
     <g id="line2d_6">
      <g>
       <use xlink:href="#m7e78c5199e" x="102.435756" y="25.207335" style="stroke: #000000; stroke-width: 0.5"/>
      </g>
     </g>
     <g id="text_3">
      <!-- 5 -->
      <g transform="translate(99.945088 181.155833) scale(0.1 -0.1)">
       <defs>
        <path id="CMR17-35" d="M 730 3750 
C 794 3724 1056 3641 1325 3641 
C 1920 3641 2246 3961 2432 4140 
C 2432 4191 2432 4224 2394 4224 
C 2387 4224 2374 4224 2323 4198 
C 2099 4102 1837 4032 1517 4032 
C 1325 4032 1037 4055 723 4191 
C 653 4224 640 4224 634 4224 
C 602 4224 595 4217 595 4090 
L 595 2231 
C 595 2113 595 2080 659 2080 
C 691 2080 704 2093 736 2139 
C 941 2435 1222 2560 1542 2560 
C 1766 2560 2246 2415 2246 1293 
C 2246 1087 2246 716 2054 422 
C 1894 159 1645 25 1370 25 
C 947 25 518 319 403 812 
C 429 806 480 793 506 793 
C 589 793 749 838 749 1036 
C 749 1209 627 1280 506 1280 
C 358 1280 262 1190 262 1011 
C 262 454 704 -128 1382 -128 
C 2042 -128 2669 441 2669 1267 
C 2669 2054 2170 2662 1549 2662 
C 1222 2662 947 2540 730 2304 
L 730 3750 
z
" transform="scale(0.015625)"/>
       </defs>
       <use xlink:href="#CMR17-35" transform="scale(0.996264)"/>
      </g>
     </g>
    </g>
    <g id="xtick_4">
     <g id="line2d_7">
      <g>
       <use xlink:href="#m01a28a3bed" x="130.335756" y="170.737335" style="stroke: #000000; stroke-width: 0.5"/>
      </g>
     </g>
     <g id="line2d_8">
      <g>
       <use xlink:href="#m7e78c5199e" x="130.335756" y="25.207335" style="stroke: #000000; stroke-width: 0.5"/>
      </g>
     </g>
     <g id="text_4">
      <!-- 7 -->
      <g transform="translate(127.845088 181.155833) scale(0.1 -0.1)">
       <defs>
        <path id="CMR17-37" d="M 2886 3955 
L 2886 4096 
L 1382 4096 
C 634 4096 621 4166 595 4288 
L 480 4288 
L 294 3104 
L 410 3104 
C 429 3226 474 3552 550 3673 
C 589 3724 1062 3724 1171 3724 
L 2579 3724 
L 1869 2670 
C 1395 1961 1069 1003 1069 166 
C 1069 89 1069 -128 1299 -128 
C 1530 -128 1530 89 1530 172 
L 1530 466 
C 1530 1514 1709 2204 2003 2644 
L 2886 3955 
z
" transform="scale(0.015625)"/>
       </defs>
       <use xlink:href="#CMR17-37" transform="scale(0.996264)"/>
      </g>
     </g>
    </g>
    <g id="xtick_5">
     <g id="line2d_9">
      <g>
       <use xlink:href="#m01a28a3bed" x="158.235756" y="170.737335" style="stroke: #000000; stroke-width: 0.5"/>
      </g>
     </g>
     <g id="line2d_10">
      <g>
       <use xlink:href="#m7e78c5199e" x="158.235756" y="25.207335" style="stroke: #000000; stroke-width: 0.5"/>
      </g>
     </g>
     <g id="text_5">
      <!-- 9 -->
      <g transform="translate(155.745088 181.155833) scale(0.1 -0.1)">
       <defs>
        <path id="CMR17-39" d="M 2253 1871 
C 2253 448 1670 25 1190 25 
C 1043 25 685 43 538 281 
C 704 256 826 345 826 505 
C 826 678 685 736 595 736 
C 538 736 365 710 365 492 
C 365 68 742 -128 1203 -128 
C 1939 -128 2688 665 2688 2090 
C 2688 3857 1971 4224 1485 4224 
C 851 4224 243 3664 243 2800 
C 243 2000 762 1408 1414 1408 
C 1952 1408 2189 1910 2253 2122 
L 2253 1871 
z
M 1427 1510 
C 1254 1510 1011 1542 813 1929 
C 678 2181 678 2477 678 2793 
C 678 3174 678 3438 858 3722 
C 947 3857 1114 4076 1485 4076 
C 2240 4076 2240 2909 2240 2651 
C 2240 2193 2035 1510 1427 1510 
z
" transform="scale(0.015625)"/>
       </defs>
       <use xlink:href="#CMR17-39" transform="scale(0.996264)"/>
      </g>
     </g>
    </g>
    <g id="xtick_6">
     <g id="line2d_11">
      <g>
       <use xlink:href="#m01a28a3bed" x="186.135756" y="170.737335" style="stroke: #000000; stroke-width: 0.5"/>
      </g>
     </g>
     <g id="line2d_12">
      <g>
       <use xlink:href="#m7e78c5199e" x="186.135756" y="25.207335" style="stroke: #000000; stroke-width: 0.5"/>
      </g>
     </g>
     <g id="text_6">
      <!-- 11 -->
      <g transform="translate(181.15442 181.155833) scale(0.1 -0.1)">
       <use xlink:href="#CMR17-31" transform="scale(0.996264)"/>
       <use xlink:href="#CMR17-31" transform="translate(45.690477 0) scale(0.996264)"/>
      </g>
     </g>
    </g>
    <g id="xtick_7">
     <g id="line2d_13">
      <g>
       <use xlink:href="#m01a28a3bed" x="214.035756" y="170.737335" style="stroke: #000000; stroke-width: 0.5"/>
      </g>
     </g>
     <g id="line2d_14">
      <g>
       <use xlink:href="#m7e78c5199e" x="214.035756" y="25.207335" style="stroke: #000000; stroke-width: 0.5"/>
      </g>
     </g>
     <g id="text_7">
      <!-- 13 -->
      <g transform="translate(209.05442 181.155833) scale(0.1 -0.1)">
       <use xlink:href="#CMR17-31" transform="scale(0.996264)"/>
       <use xlink:href="#CMR17-33" transform="translate(45.690477 0) scale(0.996264)"/>
      </g>
     </g>
    </g>
    <g id="xtick_8">
     <g id="line2d_15">
      <defs>
       <path id="m6c93541c5a" d="M 0 0 
L 0 -1.5 
" style="stroke: #000000; stroke-width: 0.5"/>
      </defs>
      <g>
       <use xlink:href="#m6c93541c5a" x="35.475756" y="170.737335" style="stroke: #000000; stroke-width: 0.5"/>
      </g>
     </g>
     <g id="line2d_16">
      <defs>
       <path id="mb307fbb876" d="M 0 0 
L 0 1.5 
" style="stroke: #000000; stroke-width: 0.5"/>
      </defs>
      <g>
       <use xlink:href="#mb307fbb876" x="35.475756" y="25.207335" style="stroke: #000000; stroke-width: 0.5"/>
      </g>
     </g>
    </g>
    <g id="xtick_9">
     <g id="line2d_17">
      <g>
       <use xlink:href="#m6c93541c5a" x="41.055756" y="170.737335" style="stroke: #000000; stroke-width: 0.5"/>
      </g>
     </g>
     <g id="line2d_18">
      <g>
       <use xlink:href="#mb307fbb876" x="41.055756" y="25.207335" style="stroke: #000000; stroke-width: 0.5"/>
      </g>
     </g>
    </g>
    <g id="xtick_10">
     <g id="line2d_19">
      <g>
       <use xlink:href="#m6c93541c5a" x="52.215756" y="170.737335" style="stroke: #000000; stroke-width: 0.5"/>
      </g>
     </g>
     <g id="line2d_20">
      <g>
       <use xlink:href="#mb307fbb876" x="52.215756" y="25.207335" style="stroke: #000000; stroke-width: 0.5"/>
      </g>
     </g>
    </g>
    <g id="xtick_11">
     <g id="line2d_21">
      <g>
       <use xlink:href="#m6c93541c5a" x="57.795756" y="170.737335" style="stroke: #000000; stroke-width: 0.5"/>
      </g>
     </g>
     <g id="line2d_22">
      <g>
       <use xlink:href="#mb307fbb876" x="57.795756" y="25.207335" style="stroke: #000000; stroke-width: 0.5"/>
      </g>
     </g>
    </g>
    <g id="xtick_12">
     <g id="line2d_23">
      <g>
       <use xlink:href="#m6c93541c5a" x="63.375756" y="170.737335" style="stroke: #000000; stroke-width: 0.5"/>
      </g>
     </g>
     <g id="line2d_24">
      <g>
       <use xlink:href="#mb307fbb876" x="63.375756" y="25.207335" style="stroke: #000000; stroke-width: 0.5"/>
      </g>
     </g>
    </g>
    <g id="xtick_13">
     <g id="line2d_25">
      <g>
       <use xlink:href="#m6c93541c5a" x="68.955756" y="170.737335" style="stroke: #000000; stroke-width: 0.5"/>
      </g>
     </g>
     <g id="line2d_26">
      <g>
       <use xlink:href="#mb307fbb876" x="68.955756" y="25.207335" style="stroke: #000000; stroke-width: 0.5"/>
      </g>
     </g>
    </g>
    <g id="xtick_14">
     <g id="line2d_27">
      <g>
       <use xlink:href="#m6c93541c5a" x="80.115756" y="170.737335" style="stroke: #000000; stroke-width: 0.5"/>
      </g>
     </g>
     <g id="line2d_28">
      <g>
       <use xlink:href="#mb307fbb876" x="80.115756" y="25.207335" style="stroke: #000000; stroke-width: 0.5"/>
      </g>
     </g>
    </g>
    <g id="xtick_15">
     <g id="line2d_29">
      <g>
       <use xlink:href="#m6c93541c5a" x="85.695756" y="170.737335" style="stroke: #000000; stroke-width: 0.5"/>
      </g>
     </g>
     <g id="line2d_30">
      <g>
       <use xlink:href="#mb307fbb876" x="85.695756" y="25.207335" style="stroke: #000000; stroke-width: 0.5"/>
      </g>
     </g>
    </g>
    <g id="xtick_16">
     <g id="line2d_31">
      <g>
       <use xlink:href="#m6c93541c5a" x="91.275756" y="170.737335" style="stroke: #000000; stroke-width: 0.5"/>
      </g>
     </g>
     <g id="line2d_32">
      <g>
       <use xlink:href="#mb307fbb876" x="91.275756" y="25.207335" style="stroke: #000000; stroke-width: 0.5"/>
      </g>
     </g>
    </g>
    <g id="xtick_17">
     <g id="line2d_33">
      <g>
       <use xlink:href="#m6c93541c5a" x="96.855756" y="170.737335" style="stroke: #000000; stroke-width: 0.5"/>
      </g>
     </g>
     <g id="line2d_34">
      <g>
       <use xlink:href="#mb307fbb876" x="96.855756" y="25.207335" style="stroke: #000000; stroke-width: 0.5"/>
      </g>
     </g>
    </g>
    <g id="xtick_18">
     <g id="line2d_35">
      <g>
       <use xlink:href="#m6c93541c5a" x="108.015756" y="170.737335" style="stroke: #000000; stroke-width: 0.5"/>
      </g>
     </g>
     <g id="line2d_36">
      <g>
       <use xlink:href="#mb307fbb876" x="108.015756" y="25.207335" style="stroke: #000000; stroke-width: 0.5"/>
      </g>
     </g>
    </g>
    <g id="xtick_19">
     <g id="line2d_37">
      <g>
       <use xlink:href="#m6c93541c5a" x="113.595756" y="170.737335" style="stroke: #000000; stroke-width: 0.5"/>
      </g>
     </g>
     <g id="line2d_38">
      <g>
       <use xlink:href="#mb307fbb876" x="113.595756" y="25.207335" style="stroke: #000000; stroke-width: 0.5"/>
      </g>
     </g>
    </g>
    <g id="xtick_20">
     <g id="line2d_39">
      <g>
       <use xlink:href="#m6c93541c5a" x="119.175756" y="170.737335" style="stroke: #000000; stroke-width: 0.5"/>
      </g>
     </g>
     <g id="line2d_40">
      <g>
       <use xlink:href="#mb307fbb876" x="119.175756" y="25.207335" style="stroke: #000000; stroke-width: 0.5"/>
      </g>
     </g>
    </g>
    <g id="xtick_21">
     <g id="line2d_41">
      <g>
       <use xlink:href="#m6c93541c5a" x="124.755756" y="170.737335" style="stroke: #000000; stroke-width: 0.5"/>
      </g>
     </g>
     <g id="line2d_42">
      <g>
       <use xlink:href="#mb307fbb876" x="124.755756" y="25.207335" style="stroke: #000000; stroke-width: 0.5"/>
      </g>
     </g>
    </g>
    <g id="xtick_22">
     <g id="line2d_43">
      <g>
       <use xlink:href="#m6c93541c5a" x="135.915756" y="170.737335" style="stroke: #000000; stroke-width: 0.5"/>
      </g>
     </g>
     <g id="line2d_44">
      <g>
       <use xlink:href="#mb307fbb876" x="135.915756" y="25.207335" style="stroke: #000000; stroke-width: 0.5"/>
      </g>
     </g>
    </g>
    <g id="xtick_23">
     <g id="line2d_45">
      <g>
       <use xlink:href="#m6c93541c5a" x="141.495756" y="170.737335" style="stroke: #000000; stroke-width: 0.5"/>
      </g>
     </g>
     <g id="line2d_46">
      <g>
       <use xlink:href="#mb307fbb876" x="141.495756" y="25.207335" style="stroke: #000000; stroke-width: 0.5"/>
      </g>
     </g>
    </g>
    <g id="xtick_24">
     <g id="line2d_47">
      <g>
       <use xlink:href="#m6c93541c5a" x="147.075756" y="170.737335" style="stroke: #000000; stroke-width: 0.5"/>
      </g>
     </g>
     <g id="line2d_48">
      <g>
       <use xlink:href="#mb307fbb876" x="147.075756" y="25.207335" style="stroke: #000000; stroke-width: 0.5"/>
      </g>
     </g>
    </g>
    <g id="xtick_25">
     <g id="line2d_49">
      <g>
       <use xlink:href="#m6c93541c5a" x="152.655756" y="170.737335" style="stroke: #000000; stroke-width: 0.5"/>
      </g>
     </g>
     <g id="line2d_50">
      <g>
       <use xlink:href="#mb307fbb876" x="152.655756" y="25.207335" style="stroke: #000000; stroke-width: 0.5"/>
      </g>
     </g>
    </g>
    <g id="xtick_26">
     <g id="line2d_51">
      <g>
       <use xlink:href="#m6c93541c5a" x="163.815756" y="170.737335" style="stroke: #000000; stroke-width: 0.5"/>
      </g>
     </g>
     <g id="line2d_52">
      <g>
       <use xlink:href="#mb307fbb876" x="163.815756" y="25.207335" style="stroke: #000000; stroke-width: 0.5"/>
      </g>
     </g>
    </g>
    <g id="xtick_27">
     <g id="line2d_53">
      <g>
       <use xlink:href="#m6c93541c5a" x="169.395756" y="170.737335" style="stroke: #000000; stroke-width: 0.5"/>
      </g>
     </g>
     <g id="line2d_54">
      <g>
       <use xlink:href="#mb307fbb876" x="169.395756" y="25.207335" style="stroke: #000000; stroke-width: 0.5"/>
      </g>
     </g>
    </g>
    <g id="xtick_28">
     <g id="line2d_55">
      <g>
       <use xlink:href="#m6c93541c5a" x="174.975756" y="170.737335" style="stroke: #000000; stroke-width: 0.5"/>
      </g>
     </g>
     <g id="line2d_56">
      <g>
       <use xlink:href="#mb307fbb876" x="174.975756" y="25.207335" style="stroke: #000000; stroke-width: 0.5"/>
      </g>
     </g>
    </g>
    <g id="xtick_29">
     <g id="line2d_57">
      <g>
       <use xlink:href="#m6c93541c5a" x="180.555756" y="170.737335" style="stroke: #000000; stroke-width: 0.5"/>
      </g>
     </g>
     <g id="line2d_58">
      <g>
       <use xlink:href="#mb307fbb876" x="180.555756" y="25.207335" style="stroke: #000000; stroke-width: 0.5"/>
      </g>
     </g>
    </g>
    <g id="xtick_30">
     <g id="line2d_59">
      <g>
       <use xlink:href="#m6c93541c5a" x="191.715756" y="170.737335" style="stroke: #000000; stroke-width: 0.5"/>
      </g>
     </g>
     <g id="line2d_60">
      <g>
       <use xlink:href="#mb307fbb876" x="191.715756" y="25.207335" style="stroke: #000000; stroke-width: 0.5"/>
      </g>
     </g>
    </g>
    <g id="xtick_31">
     <g id="line2d_61">
      <g>
       <use xlink:href="#m6c93541c5a" x="197.295756" y="170.737335" style="stroke: #000000; stroke-width: 0.5"/>
      </g>
     </g>
     <g id="line2d_62">
      <g>
       <use xlink:href="#mb307fbb876" x="197.295756" y="25.207335" style="stroke: #000000; stroke-width: 0.5"/>
      </g>
     </g>
    </g>
    <g id="xtick_32">
     <g id="line2d_63">
      <g>
       <use xlink:href="#m6c93541c5a" x="202.875756" y="170.737335" style="stroke: #000000; stroke-width: 0.5"/>
      </g>
     </g>
     <g id="line2d_64">
      <g>
       <use xlink:href="#mb307fbb876" x="202.875756" y="25.207335" style="stroke: #000000; stroke-width: 0.5"/>
      </g>
     </g>
    </g>
    <g id="xtick_33">
     <g id="line2d_65">
      <g>
       <use xlink:href="#m6c93541c5a" x="208.455756" y="170.737335" style="stroke: #000000; stroke-width: 0.5"/>
      </g>
     </g>
     <g id="line2d_66">
      <g>
       <use xlink:href="#mb307fbb876" x="208.455756" y="25.207335" style="stroke: #000000; stroke-width: 0.5"/>
      </g>
     </g>
    </g>
    <g id="xtick_34">
     <g id="line2d_67">
      <g>
       <use xlink:href="#m6c93541c5a" x="219.615756" y="170.737335" style="stroke: #000000; stroke-width: 0.5"/>
      </g>
     </g>
     <g id="line2d_68">
      <g>
       <use xlink:href="#mb307fbb876" x="219.615756" y="25.207335" style="stroke: #000000; stroke-width: 0.5"/>
      </g>
     </g>
    </g>
    <g id="xtick_35">
     <g id="line2d_69">
      <g>
       <use xlink:href="#m6c93541c5a" x="225.195756" y="170.737335" style="stroke: #000000; stroke-width: 0.5"/>
      </g>
     </g>
     <g id="line2d_70">
      <g>
       <use xlink:href="#mb307fbb876" x="225.195756" y="25.207335" style="stroke: #000000; stroke-width: 0.5"/>
      </g>
     </g>
    </g>
    <g id="text_8">
     <!-- $N_C$ -->
     <g transform="translate(123.476263 194.01151) scale(0.1 -0.1)">
      <defs>
       <path id="CMMI12-4e" d="M 4736 3682 
C 4806 3956 4909 4147 5395 4166 
C 5414 4166 5491 4172 5491 4281 
C 5491 4352 5434 4352 5408 4352 
C 5280 4352 4954 4339 4826 4339 
L 4518 4339 
C 4429 4339 4314 4352 4224 4352 
C 4186 4352 4109 4352 4109 4230 
C 4109 4166 4160 4166 4205 4166 
C 4589 4153 4614 4007 4614 3892 
C 4614 3835 4608 3816 4589 3726 
L 3866 854 
L 2496 4243 
C 2451 4345 2445 4352 2304 4352 
L 1523 4352 
C 1395 4352 1338 4352 1338 4230 
C 1338 4166 1382 4166 1504 4166 
C 1536 4166 1914 4166 1914 4109 
C 1914 4096 1901 4045 1894 4026 
L 1043 650 
C 966 338 813 204 390 185 
C 358 185 294 179 294 64 
C 294 0 358 0 378 0 
C 506 0 832 12 960 12 
L 1267 12 
C 1357 12 1466 0 1555 0 
C 1600 0 1670 0 1670 121 
C 1670 179 1606 185 1581 185 
C 1370 191 1165 230 1165 459 
C 1165 510 1178 567 1190 618 
L 2054 4026 
C 2093 3962 2093 3949 2118 3892 
L 3642 115 
C 3674 38 3686 0 3744 0 
C 3808 0 3814 19 3840 128 
L 4736 3682 
z
" transform="scale(0.015625)"/>
       <path id="CMMI12-43" d="M 4781 4422 
C 4781 4480 4736 4480 4723 4480 
C 4710 4480 4685 4480 4634 4415 
L 4192 3881 
C 3968 4262 3616 4480 3136 4480 
C 1754 4480 320 3087 320 1594 
C 320 533 1069 -128 2003 -128 
C 2515 -128 2963 89 3334 400 
C 3891 864 4058 1480 4058 1531 
C 4058 1588 4006 1588 3987 1588 
C 3930 1588 3923 1550 3910 1524 
C 3616 533 2752 57 2112 57 
C 1434 57 845 489 845 1391 
C 845 1594 909 2699 1632 3531 
C 1984 3938 2586 4294 3194 4294 
C 3898 4294 4211 3716 4211 3068 
C 4211 2903 4192 2763 4192 2737 
C 4192 2680 4256 2680 4275 2680 
C 4346 2680 4352 2687 4378 2801 
L 4781 4422 
z
" transform="scale(0.015625)"/>
      </defs>
      <use xlink:href="#CMMI12-4e" transform="scale(0.996264)"/>
      <use xlink:href="#CMMI12-43" transform="translate(78.115119 -14.943915) scale(0.697382)"/>
     </g>
    </g>
   </g>
   <g id="matplotlib.axis_2">
    <g id="ytick_1">
     <g id="line2d_71">
      <path d="M 32.685756 156.184335 
L 227.985756 156.184335 
" clip-path="url(#pec33062a27)" style="fill: none; stroke-dasharray: 1.85,0.8; stroke-dashoffset: 0; stroke: #000000; stroke-opacity: 0.5; stroke-width: 0.5"/>
     </g>
     <g id="line2d_72">
      <defs>
       <path id="med2941d534" d="M 0 0 
L 3 0 
" style="stroke: #000000; stroke-width: 0.5"/>
      </defs>
      <g>
       <use xlink:href="#med2941d534" x="32.685756" y="156.184335" style="stroke: #000000; stroke-width: 0.5"/>
      </g>
     </g>
     <g id="line2d_73">
      <defs>
       <path id="m3d2ed6011a" d="M 0 0 
L -3 0 
" style="stroke: #000000; stroke-width: 0.5"/>
      </defs>
      <g>
       <use xlink:href="#m3d2ed6011a" x="227.985756" y="156.184335" style="stroke: #000000; stroke-width: 0.5"/>
      </g>
     </g>
     <g id="text_9">
      <!-- $\mathdefault{−4}$ -->
      <g transform="translate(16.455677 159.643584) scale(0.1 -0.1)">
       <defs>
        <path id="CMSY10-0" d="M 4218 1472 
C 4326 1472 4442 1472 4442 1600 
C 4442 1728 4326 1728 4218 1728 
L 755 1728 
C 646 1728 531 1728 531 1600 
C 531 1472 646 1472 755 1472 
L 4218 1472 
z
" transform="scale(0.015625)"/>
        <path id="CMR17-34" d="M 2150 4147 
C 2150 4281 2144 4288 2029 4288 
L 128 1254 
L 128 1088 
L 1779 1088 
L 1779 460 
C 1779 230 1766 166 1318 166 
L 1197 166 
L 1197 0 
C 1402 12 1747 12 1965 12 
C 2182 12 2528 12 2733 0 
L 2733 166 
L 2611 166 
C 2163 166 2150 230 2150 460 
L 2150 1088 
L 2803 1088 
L 2803 1254 
L 2150 1254 
L 2150 4147 
z
M 1798 3723 
L 1798 1254 
L 256 1254 
L 1798 3723 
z
" transform="scale(0.015625)"/>
       </defs>
       <use xlink:href="#CMSY10-0" transform="scale(0.996264)"/>
       <use xlink:href="#CMR17-34" transform="translate(77.487468 0) scale(0.996264)"/>
      </g>
     </g>
    </g>
    <g id="ytick_2">
     <g id="line2d_74">
      <path d="M 32.685756 127.078335 
L 227.985756 127.078335 
" clip-path="url(#pec33062a27)" style="fill: none; stroke-dasharray: 1.85,0.8; stroke-dashoffset: 0; stroke: #000000; stroke-opacity: 0.5; stroke-width: 0.5"/>
     </g>
     <g id="line2d_75">
      <g>
       <use xlink:href="#med2941d534" x="32.685756" y="127.078335" style="stroke: #000000; stroke-width: 0.5"/>
      </g>
     </g>
     <g id="line2d_76">
      <g>
       <use xlink:href="#m3d2ed6011a" x="227.985756" y="127.078335" style="stroke: #000000; stroke-width: 0.5"/>
      </g>
     </g>
     <g id="text_10">
      <!-- $\mathdefault{−2}$ -->
      <g transform="translate(16.455677 130.537584) scale(0.1 -0.1)">
       <defs>
        <path id="CMR17-32" d="M 2669 990 
L 2554 990 
C 2490 537 2438 460 2413 422 
C 2381 371 1920 371 1830 371 
L 602 371 
C 832 620 1280 1073 1824 1596 
C 2214 1966 2669 2400 2669 3033 
C 2669 3788 2067 4224 1395 4224 
C 691 4224 262 3603 262 3027 
C 262 2777 448 2745 525 2745 
C 589 2745 781 2783 781 3007 
C 781 3206 614 3264 525 3264 
C 486 3264 448 3257 422 3244 
C 544 3788 915 4057 1306 4057 
C 1862 4057 2227 3616 2227 3033 
C 2227 2477 1901 1998 1536 1583 
L 262 147 
L 262 0 
L 2515 0 
L 2669 990 
z
" transform="scale(0.015625)"/>
       </defs>
       <use xlink:href="#CMSY10-0" transform="scale(0.996264)"/>
       <use xlink:href="#CMR17-32" transform="translate(77.487468 0) scale(0.996264)"/>
      </g>
     </g>
    </g>
    <g id="ytick_3">
     <g id="line2d_77">
      <path d="M 32.685756 97.972335 
L 227.985756 97.972335 
" clip-path="url(#pec33062a27)" style="fill: none; stroke-dasharray: 1.85,0.8; stroke-dashoffset: 0; stroke: #000000; stroke-opacity: 0.5; stroke-width: 0.5"/>
     </g>
     <g id="line2d_78">
      <g>
       <use xlink:href="#med2941d534" x="32.685756" y="97.972335" style="stroke: #000000; stroke-width: 0.5"/>
      </g>
     </g>
     <g id="line2d_79">
      <g>
       <use xlink:href="#m3d2ed6011a" x="227.985756" y="97.972335" style="stroke: #000000; stroke-width: 0.5"/>
      </g>
     </g>
     <g id="text_11">
      <!-- $\mathdefault{0}$ -->
      <g transform="translate(24.20442 101.431584) scale(0.1 -0.1)">
       <defs>
        <path id="CMR17-30" d="M 2688 2038 
C 2688 2430 2682 3099 2413 3613 
C 2176 4063 1798 4224 1466 4224 
C 1158 4224 768 4082 525 3620 
C 269 3137 243 2539 243 2038 
C 243 1671 250 1112 448 623 
C 723 -39 1216 -128 1466 -128 
C 1760 -128 2208 -7 2470 604 
C 2662 1048 2688 1568 2688 2038 
z
M 1466 -26 
C 1056 -26 813 328 723 816 
C 653 1196 653 1749 653 2109 
C 653 2604 653 3015 736 3407 
C 858 3954 1216 4121 1466 4121 
C 1728 4121 2067 3947 2189 3420 
C 2272 3054 2278 2623 2278 2109 
C 2278 1691 2278 1176 2202 797 
C 2067 96 1690 -26 1466 -26 
z
" transform="scale(0.015625)"/>
       </defs>
       <use xlink:href="#CMR17-30" transform="scale(0.996264)"/>
      </g>
     </g>
    </g>
    <g id="ytick_4">
     <g id="line2d_80">
      <path d="M 32.685756 68.866335 
L 227.985756 68.866335 
" clip-path="url(#pec33062a27)" style="fill: none; stroke-dasharray: 1.85,0.8; stroke-dashoffset: 0; stroke: #000000; stroke-opacity: 0.5; stroke-width: 0.5"/>
     </g>
     <g id="line2d_81">
      <g>
       <use xlink:href="#med2941d534" x="32.685756" y="68.866335" style="stroke: #000000; stroke-width: 0.5"/>
      </g>
     </g>
     <g id="line2d_82">
      <g>
       <use xlink:href="#m3d2ed6011a" x="227.985756" y="68.866335" style="stroke: #000000; stroke-width: 0.5"/>
      </g>
     </g>
     <g id="text_12">
      <!-- $\mathdefault{2}$ -->
      <g transform="translate(24.20442 72.325584) scale(0.1 -0.1)">
       <use xlink:href="#CMR17-32" transform="scale(0.996264)"/>
      </g>
     </g>
    </g>
    <g id="ytick_5">
     <g id="line2d_83">
      <path d="M 32.685756 39.760335 
L 227.985756 39.760335 
" clip-path="url(#pec33062a27)" style="fill: none; stroke-dasharray: 1.85,0.8; stroke-dashoffset: 0; stroke: #000000; stroke-opacity: 0.5; stroke-width: 0.5"/>
     </g>
     <g id="line2d_84">
      <g>
       <use xlink:href="#med2941d534" x="32.685756" y="39.760335" style="stroke: #000000; stroke-width: 0.5"/>
      </g>
     </g>
     <g id="line2d_85">
      <g>
       <use xlink:href="#m3d2ed6011a" x="227.985756" y="39.760335" style="stroke: #000000; stroke-width: 0.5"/>
      </g>
     </g>
     <g id="text_13">
      <!-- $\mathdefault{4}$ -->
      <g transform="translate(24.20442 43.219584) scale(0.1 -0.1)">
       <use xlink:href="#CMR17-34" transform="scale(0.996264)"/>
      </g>
     </g>
    </g>
    <g id="ytick_6">
     <g id="line2d_86">
      <defs>
       <path id="m7f53e1cbf4" d="M 0 0 
L 1.5 0 
" style="stroke: #000000; stroke-width: 0.5"/>
      </defs>
      <g>
       <use xlink:href="#m7f53e1cbf4" x="32.685756" y="163.460835" style="stroke: #000000; stroke-width: 0.5"/>
      </g>
     </g>
     <g id="line2d_87">
      <defs>
       <path id="m4515862b26" d="M 0 0 
L -1.5 0 
" style="stroke: #000000; stroke-width: 0.5"/>
      </defs>
      <g>
       <use xlink:href="#m4515862b26" x="227.985756" y="163.460835" style="stroke: #000000; stroke-width: 0.5"/>
      </g>
     </g>
    </g>
    <g id="ytick_7">
     <g id="line2d_88">
      <g>
       <use xlink:href="#m7f53e1cbf4" x="32.685756" y="148.907835" style="stroke: #000000; stroke-width: 0.5"/>
      </g>
     </g>
     <g id="line2d_89">
      <g>
       <use xlink:href="#m4515862b26" x="227.985756" y="148.907835" style="stroke: #000000; stroke-width: 0.5"/>
      </g>
     </g>
    </g>
    <g id="ytick_8">
     <g id="line2d_90">
      <g>
       <use xlink:href="#m7f53e1cbf4" x="32.685756" y="141.631335" style="stroke: #000000; stroke-width: 0.5"/>
      </g>
     </g>
     <g id="line2d_91">
      <g>
       <use xlink:href="#m4515862b26" x="227.985756" y="141.631335" style="stroke: #000000; stroke-width: 0.5"/>
      </g>
     </g>
    </g>
    <g id="ytick_9">
     <g id="line2d_92">
      <g>
       <use xlink:href="#m7f53e1cbf4" x="32.685756" y="134.354835" style="stroke: #000000; stroke-width: 0.5"/>
      </g>
     </g>
     <g id="line2d_93">
      <g>
       <use xlink:href="#m4515862b26" x="227.985756" y="134.354835" style="stroke: #000000; stroke-width: 0.5"/>
      </g>
     </g>
    </g>
    <g id="ytick_10">
     <g id="line2d_94">
      <g>
       <use xlink:href="#m7f53e1cbf4" x="32.685756" y="119.801835" style="stroke: #000000; stroke-width: 0.5"/>
      </g>
     </g>
     <g id="line2d_95">
      <g>
       <use xlink:href="#m4515862b26" x="227.985756" y="119.801835" style="stroke: #000000; stroke-width: 0.5"/>
      </g>
     </g>
    </g>
    <g id="ytick_11">
     <g id="line2d_96">
      <g>
       <use xlink:href="#m7f53e1cbf4" x="32.685756" y="112.525335" style="stroke: #000000; stroke-width: 0.5"/>
      </g>
     </g>
     <g id="line2d_97">
      <g>
       <use xlink:href="#m4515862b26" x="227.985756" y="112.525335" style="stroke: #000000; stroke-width: 0.5"/>
      </g>
     </g>
    </g>
    <g id="ytick_12">
     <g id="line2d_98">
      <g>
       <use xlink:href="#m7f53e1cbf4" x="32.685756" y="105.248835" style="stroke: #000000; stroke-width: 0.5"/>
      </g>
     </g>
     <g id="line2d_99">
      <g>
       <use xlink:href="#m4515862b26" x="227.985756" y="105.248835" style="stroke: #000000; stroke-width: 0.5"/>
      </g>
     </g>
    </g>
    <g id="ytick_13">
     <g id="line2d_100">
      <g>
       <use xlink:href="#m7f53e1cbf4" x="32.685756" y="90.695835" style="stroke: #000000; stroke-width: 0.5"/>
      </g>
     </g>
     <g id="line2d_101">
      <g>
       <use xlink:href="#m4515862b26" x="227.985756" y="90.695835" style="stroke: #000000; stroke-width: 0.5"/>
      </g>
     </g>
    </g>
    <g id="ytick_14">
     <g id="line2d_102">
      <g>
       <use xlink:href="#m7f53e1cbf4" x="32.685756" y="83.419335" style="stroke: #000000; stroke-width: 0.5"/>
      </g>
     </g>
     <g id="line2d_103">
      <g>
       <use xlink:href="#m4515862b26" x="227.985756" y="83.419335" style="stroke: #000000; stroke-width: 0.5"/>
      </g>
     </g>
    </g>
    <g id="ytick_15">
     <g id="line2d_104">
      <g>
       <use xlink:href="#m7f53e1cbf4" x="32.685756" y="76.142835" style="stroke: #000000; stroke-width: 0.5"/>
      </g>
     </g>
     <g id="line2d_105">
      <g>
       <use xlink:href="#m4515862b26" x="227.985756" y="76.142835" style="stroke: #000000; stroke-width: 0.5"/>
      </g>
     </g>
    </g>
    <g id="ytick_16">
     <g id="line2d_106">
      <g>
       <use xlink:href="#m7f53e1cbf4" x="32.685756" y="61.589835" style="stroke: #000000; stroke-width: 0.5"/>
      </g>
     </g>
     <g id="line2d_107">
      <g>
       <use xlink:href="#m4515862b26" x="227.985756" y="61.589835" style="stroke: #000000; stroke-width: 0.5"/>
      </g>
     </g>
    </g>
    <g id="ytick_17">
     <g id="line2d_108">
      <g>
       <use xlink:href="#m7f53e1cbf4" x="32.685756" y="54.313335" style="stroke: #000000; stroke-width: 0.5"/>
      </g>
     </g>
     <g id="line2d_109">
      <g>
       <use xlink:href="#m4515862b26" x="227.985756" y="54.313335" style="stroke: #000000; stroke-width: 0.5"/>
      </g>
     </g>
    </g>
    <g id="ytick_18">
     <g id="line2d_110">
      <g>
       <use xlink:href="#m7f53e1cbf4" x="32.685756" y="47.036835" style="stroke: #000000; stroke-width: 0.5"/>
      </g>
     </g>
     <g id="line2d_111">
      <g>
       <use xlink:href="#m4515862b26" x="227.985756" y="47.036835" style="stroke: #000000; stroke-width: 0.5"/>
      </g>
     </g>
    </g>
    <g id="ytick_19">
     <g id="line2d_112">
      <g>
       <use xlink:href="#m7f53e1cbf4" x="32.685756" y="32.483835" style="stroke: #000000; stroke-width: 0.5"/>
      </g>
     </g>
     <g id="line2d_113">
      <g>
       <use xlink:href="#m4515862b26" x="227.985756" y="32.483835" style="stroke: #000000; stroke-width: 0.5"/>
      </g>
     </g>
    </g>
    <g id="ytick_20">
     <g id="line2d_114">
      <g>
       <use xlink:href="#m7f53e1cbf4" x="32.685756" y="25.207335" style="stroke: #000000; stroke-width: 0.5"/>
      </g>
     </g>
     <g id="line2d_115">
      <g>
       <use xlink:href="#m4515862b26" x="227.985756" y="25.207335" style="stroke: #000000; stroke-width: 0.5"/>
      </g>
     </g>
    </g>
    <g id="text_14">
     <!-- XOR Fitness -->
     <g transform="translate(10.518498 126.255205) rotate(-90) scale(0.1 -0.1)">
      <defs>
       <path id="CMR17-58" d="M 2336 2414 
L 3283 3771 
C 3379 3905 3571 4178 4096 4185 
L 4096 4352 
C 3949 4339 3706 4339 3552 4339 
C 3341 4339 3078 4339 2918 4352 
L 2918 4185 
C 3123 4166 3174 4038 3174 3936 
C 3174 3860 3142 3809 3098 3745 
L 2253 2529 
L 1306 3905 
C 1261 3975 1254 3994 1254 4013 
C 1254 4070 1325 4178 1536 4185 
L 1536 4352 
C 1331 4339 1018 4339 806 4339 
C 640 4339 320 4339 166 4352 
L 166 4185 
C 518 4185 634 4172 774 3975 
L 2010 2179 
L 896 567 
C 621 172 205 166 83 166 
L 83 0 
C 230 12 474 12 627 12 
C 800 12 1101 12 1261 0 
L 1261 166 
C 1062 185 1005 312 1005 414 
C 1005 497 1037 542 1069 586 
L 2093 2064 
L 3206 446 
C 3258 376 3258 357 3258 338 
C 3258 287 3200 179 2976 166 
L 2976 0 
C 3181 12 3494 12 3706 12 
C 3872 12 4192 12 4346 0 
L 4346 166 
C 3936 166 3872 198 3744 376 
L 2336 2414 
z
" transform="scale(0.015625)"/>
       <path id="CMR17-4f" d="M 4307 2166 
C 4307 3488 3366 4480 2304 4480 
C 1216 4480 294 3475 294 2166 
C 294 857 1229 -128 2298 -128 
C 3392 -128 4307 876 4307 2166 
z
M 2304 -13 
C 1574 -13 781 722 781 2250 
C 781 3771 1651 4364 2298 4364 
C 2976 4364 3821 3752 3821 2250 
C 3821 696 3008 -13 2304 -13 
z
" transform="scale(0.015625)"/>
       <path id="CMR17-52" d="M 2509 2156 
C 3117 2278 3629 2689 3629 3203 
C 3629 3806 2950 4352 2054 4352 
L 333 4352 
L 333 4185 
C 774 4185 845 4185 845 3896 
L 845 428 
C 845 140 774 140 333 140 
L 333 -26 
C 518 -13 851 -13 1050 -13 
C 1248 -13 1581 -13 1766 -26 
L 1766 140 
C 1325 140 1254 140 1254 428 
L 1254 2112 
L 2003 2112 
C 2368 2112 2573 1964 2662 1881 
C 2918 1632 2918 1459 2918 1024 
C 2918 595 2918 377 3110 160 
C 3354 -103 3680 -128 3821 -128 
C 4294 -128 4365 403 4365 512 
C 4365 550 4365 595 4307 595 
C 4256 595 4250 556 4250 531 
C 4218 115 4032 -26 3834 -26 
C 3482 -26 3443 377 3405 768 
C 3386 902 3373 998 3360 1139 
C 3322 1459 3270 1926 2509 2156 
z
M 1984 2214 
L 1254 2214 
L 1254 3935 
C 1254 4153 1267 4185 1523 4185 
L 1990 4185 
C 2522 4185 3142 3999 3142 3203 
C 3142 2374 2464 2214 1984 2214 
z
" transform="scale(0.015625)"/>
       <path id="CMR17-46" d="M 3482 4339 
L 326 4339 
L 326 4172 
C 768 4172 838 4172 838 3883 
L 838 450 
C 838 166 768 166 326 166 
L 326 0 
C 512 12 870 12 1069 12 
C 1331 12 1638 12 1901 0 
L 1901 166 
L 1760 166 
C 1274 166 1261 229 1261 456 
L 1261 2073 
L 1837 2073 
C 2432 2073 2490 1865 2490 1334 
L 2605 1334 
L 2605 2991 
L 2490 2991 
C 2490 2451 2432 2240 1837 2240 
L 1261 2240 
L 1261 3922 
C 1261 4140 1274 4172 1530 4172 
L 2355 4172 
C 3322 4172 3430 3774 3520 2920 
L 3635 2920 
L 3482 4339 
z
" transform="scale(0.015625)"/>
       <path id="CMR17-69" d="M 992 3961 
C 992 4102 877 4224 730 4224 
C 589 4224 467 4108 467 3961 
C 467 3820 582 3699 730 3699 
C 870 3699 992 3814 992 3961 
z
M 243 2745 
L 243 2579 
C 602 2579 653 2540 653 2231 
L 653 443 
C 653 198 627 166 218 166 
L 218 0 
C 371 12 646 12 806 12 
C 960 12 1222 12 1370 0 
L 1370 166 
C 992 166 979 205 979 436 
L 979 2816 
L 243 2745 
z
" transform="scale(0.015625)"/>
       <path id="CMR17-74" d="M 966 2585 
L 1862 2585 
L 1862 2752 
L 966 2752 
L 966 3968 
L 851 3968 
C 838 3292 614 2700 70 2687 
L 70 2585 
L 627 2585 
L 627 778 
C 627 655 627 -64 1370 -64 
C 1747 -64 1965 308 1965 784 
L 1965 1151 
L 1850 1151 
L 1850 790 
C 1850 347 1677 51 1408 51 
C 1222 51 966 179 966 765 
L 966 2585 
z
" transform="scale(0.015625)"/>
       <path id="CMR17-6e" d="M 2656 1954 
C 2656 2282 2592 2816 1837 2816 
C 1331 2816 1069 2424 973 2166 
L 966 2166 
L 966 2816 
L 211 2745 
L 211 2578 
C 589 2578 646 2540 646 2231 
L 646 443 
C 646 198 621 166 211 166 
L 211 0 
C 365 12 646 12 813 12 
C 979 12 1267 12 1421 0 
L 1421 166 
C 1011 166 986 192 986 443 
L 986 1678 
C 986 2269 1344 2713 1792 2713 
C 2266 2713 2317 2289 2317 1980 
L 2317 443 
C 2317 198 2291 166 1882 166 
L 1882 0 
C 2035 12 2317 12 2483 12 
C 2650 12 2938 12 3091 0 
L 3091 166 
C 2682 166 2656 192 2656 443 
L 2656 1954 
z
" transform="scale(0.015625)"/>
       <path id="CMR17-65" d="M 2438 1503 
C 2464 1529 2464 1542 2464 1606 
C 2464 2251 2118 2816 1389 2816 
C 710 2816 173 2175 173 1394 
C 173 554 781 -64 1459 -64 
C 2176 -64 2458 619 2458 755 
C 2458 800 2419 800 2406 800 
C 2362 800 2355 787 2330 709 
C 2189 270 1837 51 1504 51 
C 1229 51 954 206 781 490 
C 582 819 582 1200 582 1503 
L 2438 1503 
z
M 589 1600 
C 634 2511 1126 2713 1382 2713 
C 1818 2713 2112 2308 2118 1600 
L 589 1600 
z
" transform="scale(0.015625)"/>
       <path id="CMR17-73" d="M 1978 2688 
C 1978 2803 1971 2809 1933 2809 
C 1907 2809 1901 2803 1824 2707 
C 1805 2681 1747 2617 1728 2592 
C 1523 2809 1235 2816 1126 2816 
C 416 2816 160 2444 160 2073 
C 160 1497 813 1363 998 1324 
C 1402 1241 1542 1216 1677 1100 
C 1760 1024 1901 883 1901 652 
C 1901 384 1747 38 1158 38 
C 602 38 403 460 288 1024 
C 269 1113 269 1120 218 1120 
C 166 1120 160 1113 160 985 
L 160 64 
C 160 -52 166 -58 205 -58 
C 237 -58 243 -52 275 0 
C 314 57 410 211 448 275 
C 576 102 800 -64 1158 -64 
C 1792 -64 2131 281 2131 780 
C 2131 1107 1958 1280 1875 1356 
C 1683 1555 1459 1600 1190 1651 
C 838 1728 390 1817 390 2208 
C 390 2374 480 2726 1126 2726 
C 1811 2726 1850 2086 1862 1881 
C 1869 1849 1901 1843 1920 1843 
C 1978 1843 1978 1862 1978 1971 
L 1978 2688 
z
" transform="scale(0.015625)"/>
      </defs>
      <use xlink:href="#CMR17-58" transform="scale(0.996264)"/>
      <use xlink:href="#CMR17-4f" transform="translate(66.469976 0) scale(0.996264)"/>
      <use xlink:href="#CMR17-52" transform="translate(138.184764 0) scale(0.996264)"/>
      <use xlink:href="#CMR17-46" transform="translate(236.051833 0) scale(0.996264)"/>
      <use xlink:href="#CMR17-69" transform="translate(296.035679 0) scale(0.996264)"/>
      <use xlink:href="#CMR17-74" transform="translate(320.906738 0) scale(0.996264)"/>
      <use xlink:href="#CMR17-6e" transform="translate(356.187505 0) scale(0.996264)"/>
      <use xlink:href="#CMR17-65" transform="translate(407.082875 0) scale(0.996264)"/>
      <use xlink:href="#CMR17-73" transform="translate(447.568536 0) scale(0.996264)"/>
      <use xlink:href="#CMR17-73" transform="translate(483.369873 0) scale(0.996264)"/>
     </g>
    </g>
   </g>
   <g id="patch_3">
    <path d="M 46.635756 97.972335 
L 46.635756 97.972335 
L 46.635756 97.972335 
L 46.635756 97.972335 
z
" clip-path="url(#pec33062a27)" style="fill: #51779d; stroke: #474747; stroke-linejoin: miter"/>
   </g>
   <g id="patch_4">
    <path d="M 46.635756 97.972335 
L 46.635756 97.972335 
L 46.635756 97.972335 
L 46.635756 97.972335 
z
" clip-path="url(#pec33062a27)" style="fill: #dd7784; stroke: #474747; stroke-linejoin: miter"/>
   </g>
   <g id="patch_5">
    <path d="M 35.475756 106.061662 
L 46.635756 106.061662 
L 46.635756 98.602202 
L 35.475756 98.602202 
L 35.475756 106.061662 
z
" clip-path="url(#pec33062a27)" style="fill: #51779d; stroke: #474747; stroke-linejoin: miter"/>
   </g>
   <g id="line2d_116">
    <path d="M 41.055756 106.061662 
L 41.055756 117.189343 
" clip-path="url(#pec33062a27)" style="fill: none; stroke: #474747"/>
   </g>
   <g id="line2d_117">
    <path d="M 41.055756 98.602202 
L 41.055756 88.599701 
" clip-path="url(#pec33062a27)" style="fill: none; stroke: #474747"/>
   </g>
   <g id="line2d_118">
    <path d="M 38.265756 117.189343 
L 43.845756 117.189343 
" clip-path="url(#pec33062a27)" style="fill: none; stroke: #474747; stroke-linecap: square"/>
   </g>
   <g id="line2d_119">
    <path d="M 38.265756 88.599701 
L 43.845756 88.599701 
" clip-path="url(#pec33062a27)" style="fill: none; stroke: #474747; stroke-linecap: square"/>
   </g>
   <g id="line2d_120"/>
   <g id="patch_6">
    <path d="M 63.375756 101.3978 
L 74.535756 101.3978 
L 74.535756 95.534212 
L 63.375756 95.534212 
L 63.375756 101.3978 
z
" clip-path="url(#pec33062a27)" style="fill: #51779d; stroke: #474747; stroke-linejoin: miter"/>
   </g>
   <g id="line2d_121">
    <path d="M 68.955756 101.3978 
L 68.955756 110.173276 
" clip-path="url(#pec33062a27)" style="fill: none; stroke: #474747"/>
   </g>
   <g id="line2d_122">
    <path d="M 68.955756 95.534212 
L 68.955756 86.925018 
" clip-path="url(#pec33062a27)" style="fill: none; stroke: #474747"/>
   </g>
   <g id="line2d_123">
    <path d="M 66.165756 110.173276 
L 71.745756 110.173276 
" clip-path="url(#pec33062a27)" style="fill: none; stroke: #474747; stroke-linecap: square"/>
   </g>
   <g id="line2d_124">
    <path d="M 66.165756 86.925018 
L 71.745756 86.925018 
" clip-path="url(#pec33062a27)" style="fill: none; stroke: #474747; stroke-linecap: square"/>
   </g>
   <g id="line2d_125"/>
   <g id="patch_7">
    <path d="M 91.275756 100.883188 
L 102.435756 100.883188 
L 102.435756 94.994822 
L 91.275756 94.994822 
L 91.275756 100.883188 
z
" clip-path="url(#pec33062a27)" style="fill: #51779d; stroke: #474747; stroke-linejoin: miter"/>
   </g>
   <g id="line2d_126">
    <path d="M 96.855756 100.883188 
L 96.855756 109.680125 
" clip-path="url(#pec33062a27)" style="fill: none; stroke: #474747"/>
   </g>
   <g id="line2d_127">
    <path d="M 96.855756 94.994822 
L 96.855756 86.169328 
" clip-path="url(#pec33062a27)" style="fill: none; stroke: #474747"/>
   </g>
   <g id="line2d_128">
    <path d="M 94.065756 109.680125 
L 99.645756 109.680125 
" clip-path="url(#pec33062a27)" style="fill: none; stroke: #474747; stroke-linecap: square"/>
   </g>
   <g id="line2d_129">
    <path d="M 94.065756 86.169328 
L 99.645756 86.169328 
" clip-path="url(#pec33062a27)" style="fill: none; stroke: #474747; stroke-linecap: square"/>
   </g>
   <g id="line2d_130"/>
   <g id="patch_8">
    <path d="M 119.175756 100.913586 
L 130.335756 100.913586 
L 130.335756 94.75768 
L 119.175756 94.75768 
L 119.175756 100.913586 
z
" clip-path="url(#pec33062a27)" style="fill: #51779d; stroke: #474747; stroke-linejoin: miter"/>
   </g>
   <g id="line2d_131">
    <path d="M 124.755756 100.913586 
L 124.755756 110.08907 
" clip-path="url(#pec33062a27)" style="fill: none; stroke: #474747"/>
   </g>
   <g id="line2d_132">
    <path d="M 124.755756 94.75768 
L 124.755756 85.526679 
" clip-path="url(#pec33062a27)" style="fill: none; stroke: #474747"/>
   </g>
   <g id="line2d_133">
    <path d="M 121.965756 110.08907 
L 127.545756 110.08907 
" clip-path="url(#pec33062a27)" style="fill: none; stroke: #474747; stroke-linecap: square"/>
   </g>
   <g id="line2d_134">
    <path d="M 121.965756 85.526679 
L 127.545756 85.526679 
" clip-path="url(#pec33062a27)" style="fill: none; stroke: #474747; stroke-linecap: square"/>
   </g>
   <g id="line2d_135"/>
   <g id="patch_9">
    <path d="M 147.075756 101.624921 
L 158.235756 101.624921 
L 158.235756 93.955647 
L 147.075756 93.955647 
L 147.075756 101.624921 
z
" clip-path="url(#pec33062a27)" style="fill: #51779d; stroke: #474747; stroke-linejoin: miter"/>
   </g>
   <g id="line2d_136">
    <path d="M 152.655756 101.624921 
L 152.655756 113.126839 
" clip-path="url(#pec33062a27)" style="fill: none; stroke: #474747"/>
   </g>
   <g id="line2d_137">
    <path d="M 152.655756 93.955647 
L 152.655756 82.464498 
" clip-path="url(#pec33062a27)" style="fill: none; stroke: #474747"/>
   </g>
   <g id="line2d_138">
    <path d="M 149.865756 113.126839 
L 155.445756 113.126839 
" clip-path="url(#pec33062a27)" style="fill: none; stroke: #474747; stroke-linecap: square"/>
   </g>
   <g id="line2d_139">
    <path d="M 149.865756 82.464498 
L 155.445756 82.464498 
" clip-path="url(#pec33062a27)" style="fill: none; stroke: #474747; stroke-linecap: square"/>
   </g>
   <g id="line2d_140"/>
   <g id="patch_10">
    <path d="M 174.975756 104.563929 
L 186.135756 104.563929 
L 186.135756 91.387495 
L 174.975756 91.387495 
L 174.975756 104.563929 
z
" clip-path="url(#pec33062a27)" style="fill: #51779d; stroke: #474747; stroke-linejoin: miter"/>
   </g>
   <g id="line2d_141">
    <path d="M 180.555756 104.563929 
L 180.555756 124.318869 
" clip-path="url(#pec33062a27)" style="fill: none; stroke: #474747"/>
   </g>
   <g id="line2d_142">
    <path d="M 180.555756 91.387495 
L 180.555756 71.632213 
" clip-path="url(#pec33062a27)" style="fill: none; stroke: #474747"/>
   </g>
   <g id="line2d_143">
    <path d="M 177.765756 124.318869 
L 183.345756 124.318869 
" clip-path="url(#pec33062a27)" style="fill: none; stroke: #474747; stroke-linecap: square"/>
   </g>
   <g id="line2d_144">
    <path d="M 177.765756 71.632213 
L 183.345756 71.632213 
" clip-path="url(#pec33062a27)" style="fill: none; stroke: #474747; stroke-linecap: square"/>
   </g>
   <g id="line2d_145"/>
   <g id="patch_11">
    <path d="M 202.875756 109.693535 
L 214.035756 109.693535 
L 214.035756 86.260757 
L 202.875756 86.260757 
L 202.875756 109.693535 
z
" clip-path="url(#pec33062a27)" style="fill: #51779d; stroke: #474747; stroke-linejoin: miter"/>
   </g>
   <g id="line2d_146">
    <path d="M 208.455756 109.693535 
L 208.455756 144.805807 
" clip-path="url(#pec33062a27)" style="fill: none; stroke: #474747"/>
   </g>
   <g id="line2d_147">
    <path d="M 208.455756 86.260757 
L 208.455756 51.116642 
" clip-path="url(#pec33062a27)" style="fill: none; stroke: #474747"/>
   </g>
   <g id="line2d_148">
    <path d="M 205.665756 144.805807 
L 211.245756 144.805807 
" clip-path="url(#pec33062a27)" style="fill: none; stroke: #474747; stroke-linecap: square"/>
   </g>
   <g id="line2d_149">
    <path d="M 205.665756 51.116642 
L 211.245756 51.116642 
" clip-path="url(#pec33062a27)" style="fill: none; stroke: #474747; stroke-linecap: square"/>
   </g>
   <g id="line2d_150"/>
   <g id="patch_12">
    <path d="M 46.635756 102.903662 
L 57.795756 102.903662 
L 57.795756 90.371733 
L 46.635756 90.371733 
L 46.635756 102.903662 
z
" clip-path="url(#pec33062a27)" style="fill: #dd7784; stroke: #474747; stroke-linejoin: miter"/>
   </g>
   <g id="line2d_151">
    <path d="M 52.215756 102.903662 
L 52.215756 113.510572 
" clip-path="url(#pec33062a27)" style="fill: none; stroke: #474747"/>
   </g>
   <g id="line2d_152">
    <path d="M 52.215756 90.371733 
L 52.215756 78.678866 
" clip-path="url(#pec33062a27)" style="fill: none; stroke: #474747"/>
   </g>
   <g id="line2d_153">
    <path d="M 49.425756 113.510572 
L 55.005756 113.510572 
" clip-path="url(#pec33062a27)" style="fill: none; stroke: #474747; stroke-linecap: square"/>
   </g>
   <g id="line2d_154">
    <path d="M 49.425756 78.678866 
L 55.005756 78.678866 
" clip-path="url(#pec33062a27)" style="fill: none; stroke: #474747; stroke-linecap: square"/>
   </g>
   <g id="line2d_155"/>
   <g id="patch_13">
    <path d="M 74.535756 100.915094 
L 85.695756 100.915094 
L 85.695756 92.21491 
L 74.535756 92.21491 
L 74.535756 100.915094 
z
" clip-path="url(#pec33062a27)" style="fill: #dd7784; stroke: #474747; stroke-linejoin: miter"/>
   </g>
   <g id="line2d_156">
    <path d="M 80.115756 100.915094 
L 80.115756 113.196568 
" clip-path="url(#pec33062a27)" style="fill: none; stroke: #474747"/>
   </g>
   <g id="line2d_157">
    <path d="M 80.115756 92.21491 
L 80.115756 79.170226 
" clip-path="url(#pec33062a27)" style="fill: none; stroke: #474747"/>
   </g>
   <g id="line2d_158">
    <path d="M 77.325756 113.196568 
L 82.905756 113.196568 
" clip-path="url(#pec33062a27)" style="fill: none; stroke: #474747; stroke-linecap: square"/>
   </g>
   <g id="line2d_159">
    <path d="M 77.325756 79.170226 
L 82.905756 79.170226 
" clip-path="url(#pec33062a27)" style="fill: none; stroke: #474747; stroke-linecap: square"/>
   </g>
   <g id="line2d_160"/>
   <g id="patch_14">
    <path d="M 102.435756 99.853265 
L 113.595756 99.853265 
L 113.595756 93.871235 
L 102.435756 93.871235 
L 102.435756 99.853265 
z
" clip-path="url(#pec33062a27)" style="fill: #dd7784; stroke: #474747; stroke-linejoin: miter"/>
   </g>
   <g id="line2d_161">
    <path d="M 108.015756 99.853265 
L 108.015756 108.804498 
" clip-path="url(#pec33062a27)" style="fill: none; stroke: #474747"/>
   </g>
   <g id="line2d_162">
    <path d="M 108.015756 93.871235 
L 108.015756 84.901483 
" clip-path="url(#pec33062a27)" style="fill: none; stroke: #474747"/>
   </g>
   <g id="line2d_163">
    <path d="M 105.225756 108.804498 
L 110.805756 108.804498 
" clip-path="url(#pec33062a27)" style="fill: none; stroke: #474747; stroke-linecap: square"/>
   </g>
   <g id="line2d_164">
    <path d="M 105.225756 84.901483 
L 110.805756 84.901483 
" clip-path="url(#pec33062a27)" style="fill: none; stroke: #474747; stroke-linecap: square"/>
   </g>
   <g id="line2d_165"/>
   <g id="patch_15">
    <path d="M 130.335756 99.615817 
L 141.495756 99.615817 
L 141.495756 95.001004 
L 130.335756 95.001004 
L 130.335756 99.615817 
z
" clip-path="url(#pec33062a27)" style="fill: #dd7784; stroke: #474747; stroke-linejoin: miter"/>
   </g>
   <g id="line2d_166">
    <path d="M 135.915756 99.615817 
L 135.915756 106.504407 
" clip-path="url(#pec33062a27)" style="fill: none; stroke: #474747"/>
   </g>
   <g id="line2d_167">
    <path d="M 135.915756 95.001004 
L 135.915756 88.08458 
" clip-path="url(#pec33062a27)" style="fill: none; stroke: #474747"/>
   </g>
   <g id="line2d_168">
    <path d="M 133.125756 106.504407 
L 138.705756 106.504407 
" clip-path="url(#pec33062a27)" style="fill: none; stroke: #474747; stroke-linecap: square"/>
   </g>
   <g id="line2d_169">
    <path d="M 133.125756 88.08458 
L 138.705756 88.08458 
" clip-path="url(#pec33062a27)" style="fill: none; stroke: #474747; stroke-linecap: square"/>
   </g>
   <g id="line2d_170"/>
   <g id="patch_16">
    <path d="M 158.235756 99.450499 
L 169.395756 99.450499 
L 169.395756 95.397244 
L 158.235756 95.397244 
L 158.235756 99.450499 
z
" clip-path="url(#pec33062a27)" style="fill: #dd7784; stroke: #474747; stroke-linejoin: miter"/>
   </g>
   <g id="line2d_171">
    <path d="M 163.815756 99.450499 
L 163.815756 105.526608 
" clip-path="url(#pec33062a27)" style="fill: none; stroke: #474747"/>
   </g>
   <g id="line2d_172">
    <path d="M 163.815756 95.397244 
L 163.815756 89.32536 
" clip-path="url(#pec33062a27)" style="fill: none; stroke: #474747"/>
   </g>
   <g id="line2d_173">
    <path d="M 161.025756 105.526608 
L 166.605756 105.526608 
" clip-path="url(#pec33062a27)" style="fill: none; stroke: #474747; stroke-linecap: square"/>
   </g>
   <g id="line2d_174">
    <path d="M 161.025756 89.32536 
L 166.605756 89.32536 
" clip-path="url(#pec33062a27)" style="fill: none; stroke: #474747; stroke-linecap: square"/>
   </g>
   <g id="line2d_175"/>
   <g id="patch_17">
    <path d="M 186.135756 99.654188 
L 197.295756 99.654188 
L 197.295756 96.089235 
L 186.135756 96.089235 
L 186.135756 99.654188 
z
" clip-path="url(#pec33062a27)" style="fill: #dd7784; stroke: #474747; stroke-linejoin: miter"/>
   </g>
   <g id="line2d_176">
    <path d="M 191.715756 99.654188 
L 191.715756 105.000617 
" clip-path="url(#pec33062a27)" style="fill: none; stroke: #474747"/>
   </g>
   <g id="line2d_177">
    <path d="M 191.715756 96.089235 
L 191.715756 90.745262 
" clip-path="url(#pec33062a27)" style="fill: none; stroke: #474747"/>
   </g>
   <g id="line2d_178">
    <path d="M 188.925756 105.000617 
L 194.505756 105.000617 
" clip-path="url(#pec33062a27)" style="fill: none; stroke: #474747; stroke-linecap: square"/>
   </g>
   <g id="line2d_179">
    <path d="M 188.925756 90.745262 
L 194.505756 90.745262 
" clip-path="url(#pec33062a27)" style="fill: none; stroke: #474747; stroke-linecap: square"/>
   </g>
   <g id="line2d_180"/>
   <g id="line2d_181">
    <path d="M 35.475756 101.173996 
L 46.635756 101.173996 
" clip-path="url(#pec33062a27)" style="fill: none; stroke: #474747"/>
   </g>
   <g id="line2d_182">
    <path d="M 63.375756 98.204788 
L 74.535756 98.204788 
" clip-path="url(#pec33062a27)" style="fill: none; stroke: #474747"/>
   </g>
   <g id="line2d_183">
    <path d="M 91.275756 97.937395 
L 102.435756 97.937395 
" clip-path="url(#pec33062a27)" style="fill: none; stroke: #474747"/>
   </g>
   <g id="line2d_184">
    <path d="M 119.175756 97.921199 
L 130.335756 97.921199 
" clip-path="url(#pec33062a27)" style="fill: none; stroke: #474747"/>
   </g>
   <g id="line2d_185">
    <path d="M 147.075756 97.789162 
L 158.235756 97.789162 
" clip-path="url(#pec33062a27)" style="fill: none; stroke: #474747"/>
   </g>
   <g id="line2d_186">
    <path d="M 174.975756 97.946505 
L 186.135756 97.946505 
" clip-path="url(#pec33062a27)" style="fill: none; stroke: #474747"/>
   </g>
   <g id="line2d_187">
    <path d="M 202.875756 97.951551 
L 214.035756 97.951551 
" clip-path="url(#pec33062a27)" style="fill: none; stroke: #474747"/>
   </g>
   <g id="line2d_188">
    <path d="M 46.635756 96.056015 
L 57.795756 96.056015 
" clip-path="url(#pec33062a27)" style="fill: none; stroke: #474747"/>
   </g>
   <g id="line2d_189">
    <path d="M 74.535756 95.833482 
L 85.695756 95.833482 
" clip-path="url(#pec33062a27)" style="fill: none; stroke: #474747"/>
   </g>
   <g id="line2d_190">
    <path d="M 102.435756 96.676995 
L 113.595756 96.676995 
" clip-path="url(#pec33062a27)" style="fill: none; stroke: #474747"/>
   </g>
   <g id="line2d_191">
    <path d="M 130.335756 97.327327 
L 141.495756 97.327327 
" clip-path="url(#pec33062a27)" style="fill: none; stroke: #474747"/>
   </g>
   <g id="line2d_192">
    <path d="M 158.235756 97.419247 
L 169.395756 97.419247 
" clip-path="url(#pec33062a27)" style="fill: none; stroke: #474747"/>
   </g>
   <g id="line2d_193">
    <path d="M 186.135756 97.861815 
L 197.295756 97.861815 
" clip-path="url(#pec33062a27)" style="fill: none; stroke: #474747"/>
   </g>
   <g id="patch_18">
    <path d="M 32.685756 170.737335 
L 32.685756 25.207335 
" style="fill: none; stroke: #000000; stroke-width: 0.5; stroke-linejoin: miter; stroke-linecap: square"/>
   </g>
   <g id="patch_19">
    <path d="M 227.985756 170.737335 
L 227.985756 25.207335 
" style="fill: none; stroke: #000000; stroke-width: 0.5; stroke-linejoin: miter; stroke-linecap: square"/>
   </g>
   <g id="patch_20">
    <path d="M 32.685756 170.737335 
L 227.985756 170.737335 
" style="fill: none; stroke: #000000; stroke-width: 0.5; stroke-linejoin: miter; stroke-linecap: square"/>
   </g>
   <g id="patch_21">
    <path d="M 32.685756 25.207335 
L 227.985756 25.207335 
" style="fill: none; stroke: #000000; stroke-width: 0.5; stroke-linejoin: miter; stroke-linecap: square"/>
   </g>
   <g id="legend_1">
    <g id="patch_22">
     <path d="M 40.371551 17.708669 
L 220.299961 17.708669 
Q 221.965961 17.708669 221.965961 16.042669 
L 221.965961 5.266 
Q 221.965961 3.6 220.299961 3.6 
L 40.371551 3.6 
Q 38.705551 3.6 38.705551 5.266 
L 38.705551 16.042669 
Q 38.705551 17.708669 40.371551 17.708669 
z
" style="fill: #ffffff; stroke: #cccccc; stroke-linejoin: miter"/>
    </g>
    <g id="patch_23">
     <path d="M 42.037551 12.763 
L 58.697551 12.763 
L 58.697551 6.932 
L 42.037551 6.932 
z
" style="fill: #51779d; stroke: #474747; stroke-linejoin: miter"/>
    </g>
    <g id="text_15">
     <!-- Distal Inputs -->
     <g transform="translate(65.361551 12.763) scale(0.0833 -0.0833)">
      <defs>
       <path id="CMR17-44" d="M 333 4352 
L 333 4185 
C 774 4185 845 4185 845 3898 
L 845 453 
C 845 166 774 166 333 166 
L 333 0 
L 2368 0 
C 3398 0 4224 943 4224 2140 
C 4224 3344 3411 4352 2368 4352 
L 333 4352 
z
M 1523 166 
C 1267 166 1254 198 1254 414 
L 1254 3936 
C 1254 4153 1267 4185 1523 4185 
L 2240 4185 
C 2771 4185 3750 3873 3750 2140 
C 3750 1242 3488 879 3366 707 
C 3213 510 2848 166 2240 166 
L 1523 166 
z
" transform="scale(0.015625)"/>
       <path id="CMR17-61" d="M 2304 1656 
C 2304 2048 2304 2275 2035 2534 
C 1798 2751 1523 2816 1306 2816 
C 800 2816 435 2408 435 1977 
C 435 1740 627 1728 666 1728 
C 749 1728 896 1779 896 1958 
C 896 2118 774 2188 666 2188 
C 640 2188 608 2182 589 2176 
C 723 2594 1069 2713 1293 2713 
C 1613 2713 1965 2421 1965 1875 
L 1965 1632 
C 1587 1619 1133 1568 774 1373 
C 371 1147 256 822 256 576 
C 256 77 832 -64 1171 -64 
C 1523 -64 1850 135 1990 505 
C 2003 219 2182 -39 2464 -39 
C 2598 -39 2938 51 2938 563 
L 2938 926 
L 2822 926 
L 2822 557 
C 2822 161 2650 109 2566 109 
C 2304 109 2304 446 2304 732 
L 2304 1656 
z
M 1965 887 
C 1965 323 1568 38 1216 38 
C 896 38 646 278 646 576 
C 646 771 730 1114 1101 1322 
C 1408 1497 1760 1523 1965 1536 
L 1965 887 
z
" transform="scale(0.015625)"/>
       <path id="CMR17-6c" d="M 979 4416 
L 218 4345 
L 218 4179 
C 595 4179 653 4141 653 3835 
L 653 439 
C 653 198 627 166 218 166 
L 218 0 
C 371 12 653 12 813 12 
C 979 12 1261 12 1414 0 
L 1414 166 
C 1005 166 979 191 979 439 
L 979 4416 
z
" transform="scale(0.015625)"/>
       <path id="CMR17-49" d="M 1261 3898 
C 1261 4185 1338 4185 1798 4185 
L 1798 4352 
C 1594 4339 1267 4339 1050 4339 
C 832 4339 506 4339 301 4352 
L 301 4185 
C 762 4185 838 4185 838 3898 
L 838 453 
C 838 166 762 166 301 166 
L 301 0 
C 506 12 832 12 1050 12 
C 1267 12 1594 12 1798 0 
L 1798 166 
C 1338 166 1261 166 1261 453 
L 1261 3898 
z
" transform="scale(0.015625)"/>
       <path id="CMR17-70" d="M 1408 -1114 
C 998 -1114 973 -1088 973 -834 
L 973 380 
C 1158 109 1427 -64 1766 -64 
C 2406 -64 3053 503 3053 1382 
C 3053 2196 2496 2816 1837 2816 
C 1453 2816 1139 2603 960 2345 
L 960 2816 
L 198 2745 
L 198 2577 
C 576 2577 634 2539 634 2228 
L 634 -834 
C 634 -1081 608 -1114 198 -1114 
L 198 -1280 
C 352 -1268 634 -1268 800 -1268 
C 966 -1268 1254 -1268 1408 -1280 
L 1408 -1114 
z
M 973 2015 
C 973 2106 973 2241 1222 2481 
C 1254 2506 1472 2700 1792 2700 
C 2259 2700 2643 2112 2643 1376 
C 2643 639 2234 38 1728 38 
C 1498 38 1248 148 1056 451 
C 973 594 973 632 973 736 
L 973 2015 
z
" transform="scale(0.015625)"/>
       <path id="CMR17-75" d="M 1882 2745 
L 1882 2579 
C 2259 2579 2317 2540 2317 2229 
L 2317 1053 
C 2317 510 2029 38 1555 38 
C 1030 38 986 355 986 691 
L 986 2816 
L 211 2745 
L 211 2579 
C 467 2579 640 2579 646 2320 
L 646 1079 
C 646 646 646 368 813 187 
C 896 103 1056 -64 1517 -64 
C 2061 -64 2272 400 2323 536 
L 2330 536 
L 2330 -64 
L 3091 -13 
L 3091 154 
C 2714 154 2656 193 2656 503 
L 2656 2816 
L 1882 2745 
z
" transform="scale(0.015625)"/>
      </defs>
      <use xlink:href="#CMR17-44" transform="scale(0.996264)"/>
      <use xlink:href="#CMR17-69" transform="translate(70.393556 0) scale(0.996264)"/>
      <use xlink:href="#CMR17-73" transform="translate(95.264614 0) scale(0.996264)"/>
      <use xlink:href="#CMR17-74" transform="translate(131.065952 0) scale(0.996264)"/>
      <use xlink:href="#CMR17-61" transform="translate(166.34672 0) scale(0.996264)"/>
      <use xlink:href="#CMR17-6c" transform="translate(212.037197 0) scale(0.996264)"/>
      <use xlink:href="#CMR17-49" transform="translate(266.984222 0) scale(0.996264)"/>
      <use xlink:href="#CMR17-6e" transform="translate(299.622631 0) scale(0.996264)"/>
      <use xlink:href="#CMR17-70" transform="translate(350.518001 0) scale(0.996264)"/>
      <use xlink:href="#CMR17-75" transform="translate(401.413371 0) scale(0.996264)"/>
      <use xlink:href="#CMR17-74" transform="translate(452.30874 0) scale(0.996264)"/>
      <use xlink:href="#CMR17-73" transform="translate(487.589508 0) scale(0.996264)"/>
     </g>
    </g>
    <g id="patch_24">
     <path d="M 132.685732 12.763 
L 149.345732 12.763 
L 149.345732 6.932 
L 132.685732 6.932 
z
" style="fill: #dd7784; stroke: #474747; stroke-linejoin: miter"/>
    </g>
    <g id="text_16">
     <!-- Proximal Inputs -->
     <g transform="translate(156.009732 12.763) scale(0.0833 -0.0833)">
      <defs>
       <path id="CMR17-50" d="M 1267 2048 
L 2291 2048 
C 3117 2048 3718 2583 3718 3187 
C 3718 3791 3130 4352 2291 4352 
L 333 4352 
L 333 4185 
C 774 4185 845 4185 845 3899 
L 845 453 
C 845 166 774 166 333 166 
L 333 0 
C 518 12 858 12 1056 12 
C 1254 12 1594 12 1779 0 
L 1779 166 
C 1338 166 1267 166 1267 453 
L 1267 2048 
z
M 1254 2182 
L 1254 3937 
C 1254 4153 1267 4185 1523 4185 
L 2170 4185 
C 2995 4185 3232 3715 3232 3187 
C 3232 2608 2950 2182 2170 2182 
L 1254 2182 
z
" transform="scale(0.015625)"/>
       <path id="CMR17-72" d="M 960 1517 
C 960 2134 1222 2713 1702 2713 
C 1747 2713 1792 2707 1837 2687 
C 1837 2687 1696 2642 1696 2475 
C 1696 2321 1818 2257 1914 2257 
C 1990 2257 2131 2302 2131 2482 
C 2131 2687 1926 2816 1709 2816 
C 1222 2816 1011 2340 947 2115 
L 941 2115 
L 941 2816 
L 198 2745 
L 198 2578 
C 576 2578 634 2540 634 2231 
L 634 443 
C 634 198 608 166 198 166 
L 198 0 
C 352 12 646 12 813 12 
C 998 12 1325 12 1498 0 
L 1498 166 
C 1037 166 960 166 960 455 
L 960 1517 
z
" transform="scale(0.015625)"/>
       <path id="CMR17-6f" d="M 2758 1356 
C 2758 2176 2163 2816 1466 2816 
C 768 2816 173 2176 173 1356 
C 173 550 768 -64 1466 -64 
C 2163 -64 2758 550 2758 1356 
z
M 1466 51 
C 1165 51 909 230 762 480 
C 602 768 582 1126 582 1408 
C 582 1676 595 2009 762 2297 
C 890 2508 1139 2713 1466 2713 
C 1754 2713 1997 2553 2150 2329 
C 2349 2028 2349 1606 2349 1408 
C 2349 1158 2336 774 2163 467 
C 1984 172 1709 51 1466 51 
z
" transform="scale(0.015625)"/>
       <path id="CMR17-78" d="M 1664 1491 
C 1856 1740 2074 2022 2253 2233 
C 2464 2476 2707 2579 2989 2585 
L 2989 2752 
C 2880 2745 2656 2739 2541 2739 
C 2368 2739 2170 2739 2022 2752 
L 2022 2585 
C 2112 2572 2163 2508 2163 2419 
C 2163 2304 2099 2233 2067 2188 
L 1594 1587 
L 1030 2323 
C 973 2393 973 2406 973 2438 
C 973 2515 1037 2579 1146 2585 
L 1146 2752 
C 992 2739 717 2739 557 2739 
C 384 2739 179 2739 38 2752 
L 38 2585 
C 384 2585 461 2560 614 2368 
L 1350 1414 
C 1363 1401 1395 1363 1395 1344 
C 1395 1318 838 633 768 544 
C 480 198 179 172 6 166 
L 6 0 
C 115 6 339 12 454 12 
C 582 12 864 12 979 0 
L 979 166 
C 941 172 838 185 838 332 
C 838 448 890 518 947 595 
L 1478 1248 
L 2035 524 
C 2086 454 2163 358 2163 313 
C 2163 224 2086 172 1984 166 
L 1984 0 
C 2138 12 2413 12 2573 12 
C 2746 12 2950 12 3091 0 
L 3091 166 
C 2771 166 2675 179 2522 377 
L 1664 1491 
z
" transform="scale(0.015625)"/>
       <path id="CMR17-6d" d="M 4326 1954 
C 4326 2276 4269 2816 3507 2816 
C 3072 2816 2771 2520 2656 2173 
L 2650 2173 
C 2573 2700 2195 2816 1837 2816 
C 1331 2816 1069 2424 973 2166 
L 966 2166 
L 966 2816 
L 211 2745 
L 211 2578 
C 589 2578 646 2540 646 2231 
L 646 443 
C 646 198 621 166 211 166 
L 211 0 
C 365 12 646 12 813 12 
C 979 12 1267 12 1421 0 
L 1421 166 
C 1011 166 986 192 986 443 
L 986 1678 
C 986 2269 1344 2713 1792 2713 
C 2266 2713 2317 2289 2317 1980 
L 2317 443 
C 2317 198 2291 166 1882 166 
L 1882 0 
C 2035 12 2317 12 2483 12 
C 2650 12 2938 12 3091 0 
L 3091 166 
C 2682 166 2656 192 2656 443 
L 2656 1678 
C 2656 2269 3014 2713 3462 2713 
C 3936 2713 3987 2289 3987 1980 
L 3987 443 
C 3987 198 3962 166 3552 166 
L 3552 0 
C 3706 12 3987 12 4154 12 
C 4320 12 4608 12 4762 0 
L 4762 166 
C 4352 166 4326 192 4326 443 
L 4326 1954 
z
" transform="scale(0.015625)"/>
      </defs>
      <use xlink:href="#CMR17-50" transform="scale(0.996264)"/>
      <use xlink:href="#CMR17-72" transform="translate(62.586301 0) scale(0.996264)"/>
      <use xlink:href="#CMR17-6f" transform="translate(97.867068 0) scale(0.996264)"/>
      <use xlink:href="#CMR17-78" transform="translate(140.955092 0) scale(0.996264)"/>
      <use xlink:href="#CMR17-69" transform="translate(189.248007 0) scale(0.996264)"/>
      <use xlink:href="#CMR17-6d" transform="translate(214.119066 0) scale(0.996264)"/>
      <use xlink:href="#CMR17-61" transform="translate(291.038656 0) scale(0.996264)"/>
      <use xlink:href="#CMR17-6c" transform="translate(336.729133 0) scale(0.996264)"/>
      <use xlink:href="#CMR17-49" transform="translate(391.676158 0) scale(0.996264)"/>
      <use xlink:href="#CMR17-6e" transform="translate(424.314567 0) scale(0.996264)"/>
      <use xlink:href="#CMR17-70" transform="translate(475.209937 0) scale(0.996264)"/>
      <use xlink:href="#CMR17-75" transform="translate(526.105306 0) scale(0.996264)"/>
      <use xlink:href="#CMR17-74" transform="translate(577.000676 0) scale(0.996264)"/>
      <use xlink:href="#CMR17-73" transform="translate(612.281444 0) scale(0.996264)"/>
     </g>
    </g>
   </g>
  </g>
 </g>
 <defs>
  <clipPath id="pec33062a27">
   <rect x="32.685756" y="25.207335" width="195.3" height="145.53"/>
  </clipPath>
 </defs>
</svg>
