<?xml version="1.0" encoding="utf-8" standalone="no"?>
<!DOCTYPE svg PUBLIC "-//W3C//DTD SVG 1.1//EN"
  "http://www.w3.org/Graphics/SVG/1.1/DTD/svg11.dtd">
<svg xmlns:xlink="http://www.w3.org/1999/xlink" width="224.943975pt" height="190.811419pt" viewBox="0 0 224.943975 190.811419" xmlns="http://www.w3.org/2000/svg" version="1.1">
 <metadata>
  <rdf:RDF xmlns:dc="http://purl.org/dc/elements/1.1/" xmlns:cc="http://creativecommons.org/ns#" xmlns:rdf="http://www.w3.org/1999/02/22-rdf-syntax-ns#">
   <cc:Work>
    <dc:type rdf:resource="http://purl.org/dc/dcmitype/StillImage"/>
    <dc:date>2025-11-12T20:15:27.176807</dc:date>
    <dc:format>image/svg+xml</dc:format>
    <dc:creator>
     <cc:Agent>
      <dc:title>Matplotlib v3.10.1, https://matplotlib.org/</dc:title>
     </cc:Agent>
    </dc:creator>
   </cc:Work>
  </rdf:RDF>
 </metadata>
 <defs>
  <style type="text/css">*{stroke-linejoin: round; stroke-linecap: butt}</style>
 </defs>
 <g id="figure_1">
  <g id="patch_1">
   <path d="M 0 190.811419 
L 224.943975 190.811419 
L 224.943975 0 
L 0 0 
L 0 190.811419 
z
" style="fill: none"/>
  </g>
  <g id="axes_1">
   <g id="patch_2">
    <path d="M 26.043975 160.893102 
L 221.343975 160.893102 
L 221.343975 15.363102 
L 26.043975 15.363102 
L 26.043975 160.893102 
z
" style="fill: none"/>
   </g>
   <g id="matplotlib.axis_1">
    <g id="xtick_1">
     <g id="line2d_1">
      <path d="M 34.874266 160.893102 
L 34.874266 15.363102 
" clip-path="url(#pb0d439bc21)" style="fill: none; stroke-dasharray: 1.85,0.8; stroke-dashoffset: 0; stroke: #000000; stroke-opacity: 0.5; stroke-width: 0.5"/>
     </g>
     <g id="line2d_2">
      <defs>
       <path id="mc37eab133a" d="M 0 0 
L 0 -3 
" style="stroke: #000000; stroke-width: 0.5"/>
      </defs>
      <g>
       <use xlink:href="#mc37eab133a" x="34.874266" y="160.893102" style="stroke: #000000; stroke-width: 0.5"/>
      </g>
     </g>
     <g id="line2d_3">
      <defs>
       <path id="m56545e8db4" d="M 0 0 
L 0 3 
" style="stroke: #000000; stroke-width: 0.5"/>
      </defs>
      <g>
       <use xlink:href="#m56545e8db4" x="34.874266" y="15.363102" style="stroke: #000000; stroke-width: 0.5"/>
      </g>
     </g>
     <g id="text_1">
      <!-- $\mathdefault{0}$ -->
      <g transform="translate(32.383598 171.3116) scale(0.1 -0.1)">
       <defs>
        <path id="CMR17-30" d="M 2688 2025 
C 2688 2416 2682 3080 2413 3591 
C 2176 4039 1798 4198 1466 4198 
C 1158 4198 768 4058 525 3597 
C 269 3118 243 2524 243 2025 
C 243 1661 250 1106 448 619 
C 723 -39 1216 -128 1466 -128 
C 1760 -128 2208 -7 2470 600 
C 2662 1042 2688 1559 2688 2025 
z
M 1466 -26 
C 1056 -26 813 325 723 812 
C 653 1188 653 1738 653 2096 
C 653 2588 653 2997 736 3387 
C 858 3929 1216 4096 1466 4096 
C 1728 4096 2067 3923 2189 3400 
C 2272 3036 2278 2607 2278 2096 
C 2278 1680 2278 1169 2202 792 
C 2067 95 1690 -26 1466 -26 
z
" transform="scale(0.015625)"/>
       </defs>
       <use xlink:href="#CMR17-30" transform="scale(0.996264)"/>
      </g>
     </g>
    </g>
    <g id="xtick_2">
     <g id="line2d_4">
      <path d="M 81.856392 160.893102 
L 81.856392 15.363102 
" clip-path="url(#pb0d439bc21)" style="fill: none; stroke-dasharray: 1.85,0.8; stroke-dashoffset: 0; stroke: #000000; stroke-opacity: 0.5; stroke-width: 0.5"/>
     </g>
     <g id="line2d_5">
      <g>
       <use xlink:href="#mc37eab133a" x="81.856392" y="160.893102" style="stroke: #000000; stroke-width: 0.5"/>
      </g>
     </g>
     <g id="line2d_6">
      <g>
       <use xlink:href="#m56545e8db4" x="81.856392" y="15.363102" style="stroke: #000000; stroke-width: 0.5"/>
      </g>
     </g>
     <g id="text_2">
      <!-- $\mathdefault{10}$ -->
      <g transform="translate(76.875057 171.3116) scale(0.1 -0.1)">
       <defs>
        <path id="CMR17-31" d="M 1702 4058 
C 1702 4192 1696 4192 1606 4192 
C 1357 3916 979 3827 621 3827 
C 602 3827 570 3827 563 3808 
C 557 3795 557 3782 557 3648 
C 755 3648 1088 3686 1344 3839 
L 1344 461 
C 1344 236 1331 160 781 160 
L 589 160 
L 589 0 
C 896 0 1216 0 1523 0 
C 1830 0 2150 0 2458 0 
L 2458 160 
L 2266 160 
C 1715 160 1702 230 1702 458 
L 1702 4058 
z
" transform="scale(0.015625)"/>
       </defs>
       <use xlink:href="#CMR17-31" transform="scale(0.996264)"/>
       <use xlink:href="#CMR17-30" transform="translate(45.690477 0) scale(0.996264)"/>
      </g>
     </g>
    </g>
    <g id="xtick_3">
     <g id="line2d_7">
      <path d="M 128.838518 160.893102 
L 128.838518 15.363102 
" clip-path="url(#pb0d439bc21)" style="fill: none; stroke-dasharray: 1.85,0.8; stroke-dashoffset: 0; stroke: #000000; stroke-opacity: 0.5; stroke-width: 0.5"/>
     </g>
     <g id="line2d_8">
      <g>
       <use xlink:href="#mc37eab133a" x="128.838518" y="160.893102" style="stroke: #000000; stroke-width: 0.5"/>
      </g>
     </g>
     <g id="line2d_9">
      <g>
       <use xlink:href="#m56545e8db4" x="128.838518" y="15.363102" style="stroke: #000000; stroke-width: 0.5"/>
      </g>
     </g>
     <g id="text_3">
      <!-- $\mathdefault{20}$ -->
      <g transform="translate(123.857183 171.3116) scale(0.1 -0.1)">
       <defs>
        <path id="CMR17-32" d="M 2669 989 
L 2554 989 
C 2490 536 2438 459 2413 420 
C 2381 369 1920 369 1830 369 
L 602 369 
C 832 619 1280 1072 1824 1597 
C 2214 1967 2669 2402 2669 3035 
C 2669 3790 2067 4224 1395 4224 
C 691 4224 262 3604 262 3030 
C 262 2780 448 2748 525 2748 
C 589 2748 781 2787 781 3010 
C 781 3207 614 3264 525 3264 
C 486 3264 448 3258 422 3245 
C 544 3790 915 4058 1306 4058 
C 1862 4058 2227 3617 2227 3035 
C 2227 2479 1901 2000 1536 1584 
L 262 146 
L 262 0 
L 2515 0 
L 2669 989 
z
" transform="scale(0.015625)"/>
       </defs>
       <use xlink:href="#CMR17-32" transform="scale(0.996264)"/>
       <use xlink:href="#CMR17-30" transform="translate(45.690477 0) scale(0.996264)"/>
      </g>
     </g>
    </g>
    <g id="xtick_4">
     <g id="line2d_10">
      <path d="M 175.820644 160.893102 
L 175.820644 15.363102 
" clip-path="url(#pb0d439bc21)" style="fill: none; stroke-dasharray: 1.85,0.8; stroke-dashoffset: 0; stroke: #000000; stroke-opacity: 0.5; stroke-width: 0.5"/>
     </g>
     <g id="line2d_11">
      <g>
       <use xlink:href="#mc37eab133a" x="175.820644" y="160.893102" style="stroke: #000000; stroke-width: 0.5"/>
      </g>
     </g>
     <g id="line2d_12">
      <g>
       <use xlink:href="#m56545e8db4" x="175.820644" y="15.363102" style="stroke: #000000; stroke-width: 0.5"/>
      </g>
     </g>
     <g id="text_4">
      <!-- $\mathdefault{30}$ -->
      <g transform="translate(170.839309 171.3116) scale(0.1 -0.1)">
       <defs>
        <path id="CMR17-33" d="M 1414 2157 
C 1984 2157 2234 1662 2234 1090 
C 2234 320 1824 25 1453 25 
C 1114 25 563 194 390 693 
C 422 680 454 680 486 680 
C 640 680 755 782 755 948 
C 755 1133 614 1216 486 1216 
C 378 1216 211 1165 211 926 
C 211 335 787 -128 1466 -128 
C 2176 -128 2720 430 2720 1085 
C 2720 1707 2208 2157 1600 2227 
C 2086 2328 2554 2756 2554 3329 
C 2554 3820 2048 4179 1472 4179 
C 890 4179 378 3829 378 3329 
C 378 3110 544 3072 627 3072 
C 762 3072 877 3155 877 3321 
C 877 3486 762 3569 627 3569 
C 602 3569 570 3569 544 3557 
C 730 3959 1235 4032 1459 4032 
C 1683 4032 2106 3925 2106 3320 
C 2106 3143 2080 2828 1862 2550 
C 1670 2304 1453 2304 1242 2284 
C 1210 2284 1062 2269 1037 2269 
C 992 2263 966 2257 966 2208 
C 966 2163 973 2157 1101 2157 
L 1414 2157 
z
" transform="scale(0.015625)"/>
       </defs>
       <use xlink:href="#CMR17-33" transform="scale(0.996264)"/>
       <use xlink:href="#CMR17-30" transform="translate(45.690477 0) scale(0.996264)"/>
      </g>
     </g>
    </g>
    <g id="xtick_5">
     <g id="line2d_13">
      <defs>
       <path id="m76574e1a63" d="M 0 0 
L 0 -1.5 
" style="stroke: #000000; stroke-width: 0.5"/>
      </defs>
      <g>
       <use xlink:href="#m76574e1a63" x="44.270691" y="160.893102" style="stroke: #000000; stroke-width: 0.5"/>
      </g>
     </g>
     <g id="line2d_14">
      <defs>
       <path id="mfff3721e78" d="M 0 0 
L 0 1.5 
" style="stroke: #000000; stroke-width: 0.5"/>
      </defs>
      <g>
       <use xlink:href="#mfff3721e78" x="44.270691" y="15.363102" style="stroke: #000000; stroke-width: 0.5"/>
      </g>
     </g>
    </g>
    <g id="xtick_6">
     <g id="line2d_15">
      <g>
       <use xlink:href="#m76574e1a63" x="53.667116" y="160.893102" style="stroke: #000000; stroke-width: 0.5"/>
      </g>
     </g>
     <g id="line2d_16">
      <g>
       <use xlink:href="#mfff3721e78" x="53.667116" y="15.363102" style="stroke: #000000; stroke-width: 0.5"/>
      </g>
     </g>
    </g>
    <g id="xtick_7">
     <g id="line2d_17">
      <g>
       <use xlink:href="#m76574e1a63" x="63.063542" y="160.893102" style="stroke: #000000; stroke-width: 0.5"/>
      </g>
     </g>
     <g id="line2d_18">
      <g>
       <use xlink:href="#mfff3721e78" x="63.063542" y="15.363102" style="stroke: #000000; stroke-width: 0.5"/>
      </g>
     </g>
    </g>
    <g id="xtick_8">
     <g id="line2d_19">
      <g>
       <use xlink:href="#m76574e1a63" x="72.459967" y="160.893102" style="stroke: #000000; stroke-width: 0.5"/>
      </g>
     </g>
     <g id="line2d_20">
      <g>
       <use xlink:href="#mfff3721e78" x="72.459967" y="15.363102" style="stroke: #000000; stroke-width: 0.5"/>
      </g>
     </g>
    </g>
    <g id="xtick_9">
     <g id="line2d_21">
      <g>
       <use xlink:href="#m76574e1a63" x="91.252817" y="160.893102" style="stroke: #000000; stroke-width: 0.5"/>
      </g>
     </g>
     <g id="line2d_22">
      <g>
       <use xlink:href="#mfff3721e78" x="91.252817" y="15.363102" style="stroke: #000000; stroke-width: 0.5"/>
      </g>
     </g>
    </g>
    <g id="xtick_10">
     <g id="line2d_23">
      <g>
       <use xlink:href="#m76574e1a63" x="100.649242" y="160.893102" style="stroke: #000000; stroke-width: 0.5"/>
      </g>
     </g>
     <g id="line2d_24">
      <g>
       <use xlink:href="#mfff3721e78" x="100.649242" y="15.363102" style="stroke: #000000; stroke-width: 0.5"/>
      </g>
     </g>
    </g>
    <g id="xtick_11">
     <g id="line2d_25">
      <g>
       <use xlink:href="#m76574e1a63" x="110.045668" y="160.893102" style="stroke: #000000; stroke-width: 0.5"/>
      </g>
     </g>
     <g id="line2d_26">
      <g>
       <use xlink:href="#mfff3721e78" x="110.045668" y="15.363102" style="stroke: #000000; stroke-width: 0.5"/>
      </g>
     </g>
    </g>
    <g id="xtick_12">
     <g id="line2d_27">
      <g>
       <use xlink:href="#m76574e1a63" x="119.442093" y="160.893102" style="stroke: #000000; stroke-width: 0.5"/>
      </g>
     </g>
     <g id="line2d_28">
      <g>
       <use xlink:href="#mfff3721e78" x="119.442093" y="15.363102" style="stroke: #000000; stroke-width: 0.5"/>
      </g>
     </g>
    </g>
    <g id="xtick_13">
     <g id="line2d_29">
      <g>
       <use xlink:href="#m76574e1a63" x="138.234943" y="160.893102" style="stroke: #000000; stroke-width: 0.5"/>
      </g>
     </g>
     <g id="line2d_30">
      <g>
       <use xlink:href="#mfff3721e78" x="138.234943" y="15.363102" style="stroke: #000000; stroke-width: 0.5"/>
      </g>
     </g>
    </g>
    <g id="xtick_14">
     <g id="line2d_31">
      <g>
       <use xlink:href="#m76574e1a63" x="147.631369" y="160.893102" style="stroke: #000000; stroke-width: 0.5"/>
      </g>
     </g>
     <g id="line2d_32">
      <g>
       <use xlink:href="#mfff3721e78" x="147.631369" y="15.363102" style="stroke: #000000; stroke-width: 0.5"/>
      </g>
     </g>
    </g>
    <g id="xtick_15">
     <g id="line2d_33">
      <g>
       <use xlink:href="#m76574e1a63" x="157.027794" y="160.893102" style="stroke: #000000; stroke-width: 0.5"/>
      </g>
     </g>
     <g id="line2d_34">
      <g>
       <use xlink:href="#mfff3721e78" x="157.027794" y="15.363102" style="stroke: #000000; stroke-width: 0.5"/>
      </g>
     </g>
    </g>
    <g id="xtick_16">
     <g id="line2d_35">
      <g>
       <use xlink:href="#m76574e1a63" x="166.424219" y="160.893102" style="stroke: #000000; stroke-width: 0.5"/>
      </g>
     </g>
     <g id="line2d_36">
      <g>
       <use xlink:href="#mfff3721e78" x="166.424219" y="15.363102" style="stroke: #000000; stroke-width: 0.5"/>
      </g>
     </g>
    </g>
    <g id="xtick_17">
     <g id="line2d_37">
      <g>
       <use xlink:href="#m76574e1a63" x="185.217069" y="160.893102" style="stroke: #000000; stroke-width: 0.5"/>
      </g>
     </g>
     <g id="line2d_38">
      <g>
       <use xlink:href="#mfff3721e78" x="185.217069" y="15.363102" style="stroke: #000000; stroke-width: 0.5"/>
      </g>
     </g>
    </g>
    <g id="xtick_18">
     <g id="line2d_39">
      <g>
       <use xlink:href="#m76574e1a63" x="194.613495" y="160.893102" style="stroke: #000000; stroke-width: 0.5"/>
      </g>
     </g>
     <g id="line2d_40">
      <g>
       <use xlink:href="#mfff3721e78" x="194.613495" y="15.363102" style="stroke: #000000; stroke-width: 0.5"/>
      </g>
     </g>
    </g>
    <g id="xtick_19">
     <g id="line2d_41">
      <g>
       <use xlink:href="#m76574e1a63" x="204.00992" y="160.893102" style="stroke: #000000; stroke-width: 0.5"/>
      </g>
     </g>
     <g id="line2d_42">
      <g>
       <use xlink:href="#mfff3721e78" x="204.00992" y="15.363102" style="stroke: #000000; stroke-width: 0.5"/>
      </g>
     </g>
    </g>
    <g id="xtick_20">
     <g id="line2d_43">
      <g>
       <use xlink:href="#m76574e1a63" x="213.406345" y="160.893102" style="stroke: #000000; stroke-width: 0.5"/>
      </g>
     </g>
     <g id="line2d_44">
      <g>
       <use xlink:href="#mfff3721e78" x="213.406345" y="15.363102" style="stroke: #000000; stroke-width: 0.5"/>
      </g>
     </g>
    </g>
    <g id="text_5">
     <!-- $t$ [ns] -->
     <g transform="translate(112.735056 184.720759) scale(0.1 -0.1)">
      <defs>
       <path id="CMMI12-74" d="M 1286 2566 
L 1875 2566 
C 1997 2566 2061 2566 2061 2681 
C 2061 2752 2022 2752 1894 2752 
L 1331 2752 
L 1568 3692 
C 1594 3781 1594 3794 1594 3840 
C 1594 3943 1510 4000 1427 4000 
C 1376 4000 1229 3981 1178 3775 
L 928 2752 
L 326 2752 
C 198 2752 141 2752 141 2630 
C 141 2566 186 2566 307 2566 
L 877 2566 
L 454 881 
C 403 658 384 594 384 511 
C 384 211 595 -64 954 -64 
C 1600 -64 1946 868 1946 912 
C 1946 951 1920 970 1882 970 
C 1869 970 1843 970 1830 944 
C 1824 938 1818 931 1773 829 
C 1638 511 1344 64 973 64 
C 781 64 768 224 768 364 
C 768 370 768 492 787 568 
L 1286 2566 
z
" transform="scale(0.015625)"/>
       <path id="CMR17-5b" d="M 1504 -1600 
L 1504 -1377 
L 902 -1377 
L 902 4544 
L 1504 4544 
L 1504 4767 
L 678 4767 
L 678 -1600 
L 1504 -1600 
z
" transform="scale(0.015625)"/>
       <path id="CMR17-6e" d="M 2656 1933 
C 2656 2259 2592 2790 1837 2790 
C 1331 2790 1069 2400 973 2144 
L 966 2144 
L 966 2790 
L 211 2720 
L 211 2554 
C 589 2554 646 2515 646 2208 
L 646 428 
C 646 184 621 153 211 153 
L 211 -13 
C 365 0 646 0 813 0 
C 979 0 1267 0 1421 -13 
L 1421 153 
C 1011 153 986 178 986 428 
L 986 1658 
C 986 2247 1344 2688 1792 2688 
C 2266 2688 2317 2266 2317 1958 
L 2317 428 
C 2317 184 2291 153 1882 153 
L 1882 -13 
C 2035 0 2317 0 2483 0 
C 2650 0 2938 0 3091 -13 
L 3091 153 
C 2682 153 2656 178 2656 428 
L 2656 1933 
z
" transform="scale(0.015625)"/>
       <path id="CMR17-73" d="M 1978 2697 
C 1978 2813 1971 2819 1933 2819 
C 1907 2819 1901 2813 1824 2717 
C 1805 2691 1747 2626 1728 2601 
C 1523 2819 1235 2819 1126 2819 
C 416 2819 160 2447 160 2076 
C 160 1498 813 1365 998 1325 
C 1402 1243 1542 1217 1677 1101 
C 1760 1025 1901 884 1901 654 
C 1901 384 1747 38 1158 38 
C 602 38 403 460 288 1021 
C 269 1110 269 1117 218 1117 
C 166 1117 160 1110 160 983 
L 160 63 
C 160 -51 166 -58 205 -58 
C 237 -58 243 -51 275 0 
C 314 57 410 211 448 276 
C 576 103 800 -64 1158 -64 
C 1792 -64 2131 283 2131 784 
C 2131 1112 1958 1285 1875 1362 
C 1683 1561 1459 1606 1190 1657 
C 838 1735 390 1825 390 2217 
C 390 2383 480 2737 1126 2737 
C 1811 2737 1850 2094 1862 1888 
C 1869 1856 1901 1849 1920 1849 
C 1978 1849 1978 1869 1978 1978 
L 1978 2697 
z
" transform="scale(0.015625)"/>
       <path id="CMR17-5d" d="M 915 4767 
L 90 4767 
L 90 4544 
L 691 4544 
L 691 -1377 
L 90 -1377 
L 90 -1600 
L 915 -1600 
L 915 4767 
z
" transform="scale(0.015625)"/>
      </defs>
      <use xlink:href="#CMMI12-74" transform="scale(0.996264)"/>
      <use xlink:href="#CMR17-5b" transform="translate(65.302297 0) scale(0.996264)"/>
      <use xlink:href="#CMR17-6e" transform="translate(90.173355 0) scale(0.996264)"/>
      <use xlink:href="#CMR17-73" transform="translate(141.068725 0) scale(0.996264)"/>
      <use xlink:href="#CMR17-5d" transform="translate(176.870062 0) scale(0.996264)"/>
     </g>
    </g>
   </g>
   <g id="matplotlib.axis_2">
    <g id="ytick_1">
     <g id="line2d_45">
      <path d="M 26.043975 160.893102 
L 221.343975 160.893102 
" clip-path="url(#pb0d439bc21)" style="fill: none; stroke-dasharray: 1.85,0.8; stroke-dashoffset: 0; stroke: #000000; stroke-opacity: 0.5; stroke-width: 0.5"/>
     </g>
     <g id="line2d_46">
      <defs>
       <path id="m49190f741f" d="M 0 0 
L 3 0 
" style="stroke: #000000; stroke-width: 0.5"/>
      </defs>
      <g>
       <use xlink:href="#m49190f741f" x="26.043975" y="160.893102" style="stroke: #000000; stroke-width: 0.5"/>
      </g>
     </g>
     <g id="text_6">
      <!-- $\mathdefault{0}$ -->
      <g transform="translate(17.56264 164.352351) scale(0.1 -0.1)">
       <use xlink:href="#CMR17-30" transform="scale(0.996264)"/>
      </g>
     </g>
    </g>
    <g id="ytick_2">
     <g id="line2d_47">
      <path d="M 26.043975 124.536094 
L 221.343975 124.536094 
" clip-path="url(#pb0d439bc21)" style="fill: none; stroke-dasharray: 1.85,0.8; stroke-dashoffset: 0; stroke: #000000; stroke-opacity: 0.5; stroke-width: 0.5"/>
     </g>
     <g id="line2d_48">
      <g>
       <use xlink:href="#m49190f741f" x="26.043975" y="124.536094" style="stroke: #000000; stroke-width: 0.5"/>
      </g>
     </g>
     <g id="text_7">
      <!-- $\mathdefault{1}$ -->
      <g transform="translate(17.56264 127.995343) scale(0.1 -0.1)">
       <use xlink:href="#CMR17-31" transform="scale(0.996264)"/>
      </g>
     </g>
    </g>
    <g id="ytick_3">
     <g id="line2d_49">
      <path d="M 26.043975 88.179086 
L 221.343975 88.179086 
" clip-path="url(#pb0d439bc21)" style="fill: none; stroke-dasharray: 1.85,0.8; stroke-dashoffset: 0; stroke: #000000; stroke-opacity: 0.5; stroke-width: 0.5"/>
     </g>
     <g id="line2d_50">
      <g>
       <use xlink:href="#m49190f741f" x="26.043975" y="88.179086" style="stroke: #000000; stroke-width: 0.5"/>
      </g>
     </g>
     <g id="text_8">
      <!-- $\mathdefault{2}$ -->
      <g transform="translate(17.56264 91.638335) scale(0.1 -0.1)">
       <use xlink:href="#CMR17-32" transform="scale(0.996264)"/>
      </g>
     </g>
    </g>
    <g id="ytick_4">
     <g id="line2d_51">
      <path d="M 26.043975 51.822078 
L 221.343975 51.822078 
" clip-path="url(#pb0d439bc21)" style="fill: none; stroke-dasharray: 1.85,0.8; stroke-dashoffset: 0; stroke: #000000; stroke-opacity: 0.5; stroke-width: 0.5"/>
     </g>
     <g id="line2d_52">
      <g>
       <use xlink:href="#m49190f741f" x="26.043975" y="51.822078" style="stroke: #000000; stroke-width: 0.5"/>
      </g>
     </g>
     <g id="text_9">
      <!-- $\mathdefault{3}$ -->
      <g transform="translate(17.56264 55.281327) scale(0.1 -0.1)">
       <use xlink:href="#CMR17-33" transform="scale(0.996264)"/>
      </g>
     </g>
    </g>
    <g id="ytick_5">
     <g id="line2d_53">
      <path d="M 26.043975 15.46507 
L 221.343975 15.46507 
" clip-path="url(#pb0d439bc21)" style="fill: none; stroke-dasharray: 1.85,0.8; stroke-dashoffset: 0; stroke: #000000; stroke-opacity: 0.5; stroke-width: 0.5"/>
     </g>
     <g id="line2d_54">
      <g>
       <use xlink:href="#m49190f741f" x="26.043975" y="15.46507" style="stroke: #000000; stroke-width: 0.5"/>
      </g>
     </g>
     <g id="text_10">
      <!-- $\mathdefault{4}$ -->
      <g transform="translate(17.56264 18.924319) scale(0.1 -0.1)">
       <defs>
        <path id="CMR17-34" d="M 2150 4122 
C 2150 4256 2144 4256 2029 4256 
L 128 1254 
L 128 1088 
L 1779 1088 
L 1779 457 
C 1779 224 1766 160 1318 160 
L 1197 160 
L 1197 0 
C 1402 0 1747 0 1965 0 
C 2182 0 2528 0 2733 0 
L 2733 160 
L 2611 160 
C 2163 160 2150 224 2150 457 
L 2150 1088 
L 2803 1088 
L 2803 1254 
L 2150 1254 
L 2150 4122 
z
M 1798 3703 
L 1798 1254 
L 256 1254 
L 1798 3703 
z
" transform="scale(0.015625)"/>
       </defs>
       <use xlink:href="#CMR17-34" transform="scale(0.996264)"/>
      </g>
     </g>
    </g>
    <g id="ytick_6">
     <g id="line2d_55">
      <defs>
       <path id="m5b31685c89" d="M 0 0 
L 1.5 0 
" style="stroke: #000000; stroke-width: 0.5"/>
      </defs>
      <g>
       <use xlink:href="#m5b31685c89" x="26.043975" y="153.621701" style="stroke: #000000; stroke-width: 0.5"/>
      </g>
     </g>
    </g>
    <g id="ytick_7">
     <g id="line2d_56">
      <g>
       <use xlink:href="#m5b31685c89" x="26.043975" y="146.350299" style="stroke: #000000; stroke-width: 0.5"/>
      </g>
     </g>
    </g>
    <g id="ytick_8">
     <g id="line2d_57">
      <g>
       <use xlink:href="#m5b31685c89" x="26.043975" y="139.078897" style="stroke: #000000; stroke-width: 0.5"/>
      </g>
     </g>
    </g>
    <g id="ytick_9">
     <g id="line2d_58">
      <g>
       <use xlink:href="#m5b31685c89" x="26.043975" y="131.807496" style="stroke: #000000; stroke-width: 0.5"/>
      </g>
     </g>
    </g>
    <g id="ytick_10">
     <g id="line2d_59">
      <g>
       <use xlink:href="#m5b31685c89" x="26.043975" y="117.264693" style="stroke: #000000; stroke-width: 0.5"/>
      </g>
     </g>
    </g>
    <g id="ytick_11">
     <g id="line2d_60">
      <g>
       <use xlink:href="#m5b31685c89" x="26.043975" y="109.993291" style="stroke: #000000; stroke-width: 0.5"/>
      </g>
     </g>
    </g>
    <g id="ytick_12">
     <g id="line2d_61">
      <g>
       <use xlink:href="#m5b31685c89" x="26.043975" y="102.721889" style="stroke: #000000; stroke-width: 0.5"/>
      </g>
     </g>
    </g>
    <g id="ytick_13">
     <g id="line2d_62">
      <g>
       <use xlink:href="#m5b31685c89" x="26.043975" y="95.450488" style="stroke: #000000; stroke-width: 0.5"/>
      </g>
     </g>
    </g>
    <g id="ytick_14">
     <g id="line2d_63">
      <g>
       <use xlink:href="#m5b31685c89" x="26.043975" y="80.907685" style="stroke: #000000; stroke-width: 0.5"/>
      </g>
     </g>
    </g>
    <g id="ytick_15">
     <g id="line2d_64">
      <g>
       <use xlink:href="#m5b31685c89" x="26.043975" y="73.636283" style="stroke: #000000; stroke-width: 0.5"/>
      </g>
     </g>
    </g>
    <g id="ytick_16">
     <g id="line2d_65">
      <g>
       <use xlink:href="#m5b31685c89" x="26.043975" y="66.364881" style="stroke: #000000; stroke-width: 0.5"/>
      </g>
     </g>
    </g>
    <g id="ytick_17">
     <g id="line2d_66">
      <g>
       <use xlink:href="#m5b31685c89" x="26.043975" y="59.09348" style="stroke: #000000; stroke-width: 0.5"/>
      </g>
     </g>
    </g>
    <g id="ytick_18">
     <g id="line2d_67">
      <g>
       <use xlink:href="#m5b31685c89" x="26.043975" y="44.550677" style="stroke: #000000; stroke-width: 0.5"/>
      </g>
     </g>
    </g>
    <g id="ytick_19">
     <g id="line2d_68">
      <g>
       <use xlink:href="#m5b31685c89" x="26.043975" y="37.279275" style="stroke: #000000; stroke-width: 0.5"/>
      </g>
     </g>
    </g>
    <g id="ytick_20">
     <g id="line2d_69">
      <g>
       <use xlink:href="#m5b31685c89" x="26.043975" y="30.007873" style="stroke: #000000; stroke-width: 0.5"/>
      </g>
     </g>
    </g>
    <g id="ytick_21">
     <g id="line2d_70">
      <g>
       <use xlink:href="#m5b31685c89" x="26.043975" y="22.736472" style="stroke: #000000; stroke-width: 0.5"/>
      </g>
     </g>
    </g>
    <g id="text_11">
     <!-- $I$ [pA] -->
     <g transform="translate(11.07198 101.639948) rotate(-90) scale(0.1 -0.1)">
      <defs>
       <path id="CMMI12-49" d="M 2355 3880 
C 2413 4103 2426 4167 2893 4167 
C 3034 4167 3085 4167 3085 4288 
C 3085 4352 3014 4352 2995 4352 
C 2880 4352 2739 4352 2624 4352 
L 1837 4352 
C 1709 4352 1562 4352 1434 4352 
C 1382 4352 1312 4352 1312 4231 
C 1312 4167 1363 4167 1491 4167 
C 1888 4167 1888 4116 1888 4046 
C 1888 4002 1875 3963 1862 3906 
L 998 472 
C 941 249 928 185 461 185 
C 320 185 262 185 262 64 
C 262 0 326 0 358 0 
C 474 0 614 0 730 0 
L 1517 0 
C 1645 0 1786 0 1914 0 
C 1965 0 2042 0 2042 115 
C 2042 185 2003 185 1862 185 
C 1466 185 1466 236 1466 312 
C 1466 325 1466 357 1491 459 
L 2355 3880 
z
" transform="scale(0.015625)"/>
       <path id="CMR17-70" d="M 1408 -1063 
C 998 -1063 973 -1037 973 -789 
L 973 402 
C 1158 134 1427 -38 1766 -38 
C 2406 -38 3053 523 3053 1388 
C 3053 2191 2496 2802 1837 2802 
C 1453 2802 1139 2592 960 2338 
L 960 2802 
L 198 2732 
L 198 2567 
C 576 2567 634 2528 634 2223 
L 634 -789 
C 634 -1031 608 -1063 198 -1063 
L 198 -1228 
C 352 -1216 634 -1216 800 -1216 
C 966 -1216 1254 -1216 1408 -1228 
L 1408 -1063 
z
M 973 2012 
C 973 2102 973 2235 1222 2471 
C 1254 2497 1472 2688 1792 2688 
C 2259 2688 2643 2108 2643 1382 
C 2643 656 2234 64 1728 64 
C 1498 64 1248 172 1056 472 
C 973 612 973 650 973 752 
L 973 2012 
z
" transform="scale(0.015625)"/>
       <path id="CMR17-41" d="M 2323 4378 
C 2291 4461 2278 4480 2214 4480 
C 2150 4480 2138 4461 2106 4378 
L 749 566 
C 627 223 371 153 147 153 
L 147 -13 
C 262 0 518 0 640 0 
C 800 0 1056 0 1210 -13 
L 1210 153 
C 909 153 864 361 864 439 
C 864 497 877 530 890 569 
L 1229 1536 
L 2906 1536 
L 3290 442 
C 3322 365 3322 352 3322 327 
C 3322 153 3046 153 2925 153 
L 2925 0 
C 3110 0 3443 0 3642 0 
C 3808 0 4128 0 4282 -13 
L 4282 153 
C 3942 153 3827 153 3744 387 
L 2323 4378 
z
M 2067 3893 
L 2848 1702 
L 1286 1702 
L 2067 3893 
z
" transform="scale(0.015625)"/>
      </defs>
      <use xlink:href="#CMMI12-49" transform="scale(0.996264)"/>
      <use xlink:href="#CMR17-5b" transform="translate(80.93248 0) scale(0.996264)"/>
      <use xlink:href="#CMR17-70" transform="translate(105.803539 0) scale(0.996264)"/>
      <use xlink:href="#CMR17-41" transform="translate(156.698909 0) scale(0.996264)"/>
      <use xlink:href="#CMR17-5d" transform="translate(225.771338 0) scale(0.996264)"/>
     </g>
    </g>
   </g>
   <g id="line2d_71">
    <path d="M 34.921248 160.893102 
L 76.73534 160.790714 
L 77.299126 160.777951 
L 80.728821 160.674576 
L 81.198642 160.641944 
L 82.936981 160.596184 
L 83.077927 160.596184 
L 83.218874 160.030575 
L 83.500766 159.992594 
L 84.67532 159.892216 
L 85.192123 159.854941 
L 86.507623 159.768185 
L 86.742533 159.731938 
L 87.682176 159.62801 
L 88.151997 159.609734 
L 88.6688 159.509399 
L 89.561461 159.36737 
L 89.655425 159.340003 
L 89.749389 158.90621 
L 89.890336 158.609716 
L 89.9843 158.607675 
L 90.219211 157.637956 
L 90.360157 157.454839 
L 91.581692 157.271145 
L 91.863585 156.664532 
L 92.19246 156.55417 
L 92.521335 156.323883 
L 93.179084 156.227661 
L 93.226067 156.193296 
L 93.367013 155.62942 
L 93.554941 155.498575 
L 93.601924 155.474165 
L 93.789852 156.444078 
L 93.883816 156.654269 
L 93.930798 156.605101 
L 94.071745 156.551784 
L 94.212691 155.980699 
L 94.588548 155.934413 
L 95.199316 155.838487 
L 95.434226 155.669103 
L 95.528191 155.650496 
L 95.716119 155.020393 
L 95.810084 154.995599 
L 95.998012 154.40426 
L 96.467833 154.35675 
L 96.702744 154.216499 
L 96.84369 154.114356 
L 97.031619 154.058145 
L 97.313512 153.96221 
L 97.407476 153.912145 
L 97.642386 154.428644 
L 98.722975 154.233558 
L 98.863922 153.642161 
L 99.05185 152.995646 
L 99.192797 152.410034 
L 99.286761 152.329861 
L 99.380725 152.231304 
L 99.474689 152.723317 
L 99.568654 152.699621 
L 100.179421 152.264441 
L 100.226403 152.256176 
L 100.36735 160.893102 
L 147.208529 160.893102 
L 147.349476 160.481193 
L 147.537404 160.262222 
L 147.631369 159.988711 
L 147.819297 159.591071 
L 148.148172 159.530612 
L 148.195154 159.404693 
L 148.383083 158.52048 
L 148.571011 157.981581 
L 149.181779 157.327302 
L 149.604618 156.198614 
L 149.886511 156.168749 
L 149.980475 156.197654 
L 150.30935 155.72113 
L 150.450296 155.073075 
L 150.54426 154.975662 
L 150.732189 154.605866 
L 150.873135 154.69946 
L 150.920117 154.786368 
L 150.9671 154.709391 
L 151.483903 152.909374 
L 151.624849 152.72885 
L 151.765796 152.481746 
L 151.953724 152.369942 
L 152.094671 152.394147 
L 152.188635 152.392632 
L 152.329581 152.123174 
L 152.564492 152.171928 
L 152.940349 151.741025 
L 153.786027 150.969606 
L 153.973956 150.990898 
L 154.161884 150.459655 
L 154.208866 150.434438 
L 154.443777 149.686077 
L 154.490759 149.780316 
L 154.631705 149.788211 
L 154.678688 149.688213 
L 154.866616 148.813226 
L 155.148509 148.664854 
L 155.242473 149.190821 
L 155.336437 149.170456 
L 155.61833 148.392571 
L 155.853241 148.348079 
L 156.182116 146.440788 
L 156.417026 146.124483 
L 156.604955 145.042504 
L 156.93383 144.962984 
L 157.027794 144.852688 
L 157.121758 145.215593 
L 157.16874 145.109804 
L 157.356669 144.740486 
L 157.403651 144.560885 
L 157.450633 144.715427 
L 157.544597 144.514785 
L 157.82649 142.467185 
L 157.967436 142.1829 
L 158.155365 140.921751 
L 158.249329 140.782281 
L 158.437258 139.756662 
L 158.48424 139.631481 
L 158.672168 138.606312 
L 158.954061 138.430664 
L 159.001043 138.91747 
L 159.048025 138.745227 
L 159.188972 137.88007 
L 159.329918 136.238906 
L 159.3769 136.738959 
L 159.470864 136.625903 
L 159.658793 135.990146 
L 159.752757 135.916703 
L 159.799739 135.812783 
L 159.940686 135.131619 
L 160.410507 134.93693 
L 160.457489 135.531828 
L 160.551453 135.47088 
L 160.739382 135.319654 
L 160.880328 135.087467 
L 161.162221 134.506379 
L 161.209203 134.546093 
L 161.491096 133.033563 
L 161.538078 132.495249 
L 161.58506 132.590251 
L 161.632042 132.956491 
L 161.726006 132.821232 
L 161.866953 132.614128 
L 162.007899 131.71716 
L 162.101863 130.70416 
L 162.148846 131.217125 
L 162.195828 131.154242 
L 162.289792 130.615156 
L 162.383756 131.155518 
L 162.430738 131.062324 
L 162.47772 131.015834 
L 162.571685 130.407764 
L 162.759613 131.716511 
L 162.806595 131.684308 
L 162.947542 130.813357 
L 163.229434 130.509206 
L 163.417363 129.083104 
L 163.511327 128.998667 
L 163.746238 128.237773 
L 163.840202 129.007543 
L 164.028131 130.930987 
L 164.122095 130.843524 
L 164.169077 130.76047 
L 164.357005 129.647108 
L 164.45097 129.38631 
L 164.68588 131.073314 
L 164.732863 130.931786 
L 164.967773 128.892459 
L 165.061737 128.841371 
L 165.10872 128.748024 
L 165.202684 129.890145 
L 165.249666 129.875973 
L 165.390612 129.262976 
L 165.437594 129.220766 
L 165.484577 129.313192 
L 165.625523 129.219976 
L 165.766469 128.612538 
L 165.860434 128.268682 
L 165.954398 128.806825 
L 166.236291 126.256836 
L 166.330255 126.174574 
L 166.471201 125.032468 
L 166.612148 125.036119 
L 166.65913 125.292974 
L 166.706112 125.05959 
L 166.941022 124.926853 
L 167.081969 123.619201 
L 167.128951 124.129427 
L 167.175933 124.724318 
L 167.269897 124.564393 
L 167.316879 124.531978 
L 167.363862 125.009951 
L 167.410844 124.578543 
L 167.55179 123.812603 
L 167.833683 123.653906 
L 167.927647 122.993232 
L 167.974629 123.139514 
L 168.068593 124.799686 
L 168.115576 124.735111 
L 168.20954 124.142139 
L 168.256522 124.225454 
L 168.397468 124.156118 
L 168.773325 122.86847 
L 169.008236 122.408733 
L 169.055218 122.484864 
L 169.1022 122.359704 
L 169.149182 122.350355 
L 169.243147 123.053141 
L 169.290129 122.735749 
L 169.337111 122.569243 
L 169.384093 122.725615 
L 169.431075 121.786364 
L 169.525039 121.862378 
L 169.712968 121.747859 
L 170.041843 119.250651 
L 170.229771 118.37853 
L 170.323736 118.095733 
L 170.4177 118.573026 
L 170.464682 118.504479 
L 170.605628 117.347983 
L 170.699593 117.540412 
L 170.840539 117.528041 
L 171.028467 116.805913 
L 171.216396 116.511496 
L 171.263378 116.787358 
L 171.31036 116.599787 
L 171.592253 115.397127 
L 171.639235 115.978313 
L 171.733199 115.914401 
L 171.780181 116.303648 
L 171.827164 116.08362 
L 172.015092 115.626109 
L 172.156038 115.475395 
L 172.250003 115.331701 
L 172.296985 115.422815 
L 172.62586 113.998993 
L 172.766806 113.243049 
L 172.813788 113.386303 
L 172.907752 113.591888 
L 173.283609 112.610598 
L 173.377574 112.516202 
L 173.471538 113.011785 
L 173.51852 112.960234 
L 173.612484 112.409662 
L 173.941359 108.896799 
L 174.035323 107.225162 
L 174.082306 107.796099 
L 174.129288 108.281817 
L 174.17627 107.797824 
L 174.223252 107.711548 
L 174.364198 107.919507 
L 174.41118 107.925606 
L 174.552127 107.343524 
L 174.646091 106.752353 
L 174.740055 106.850815 
L 174.927984 106.637605 
L 174.974966 106.941322 
L 175.06893 106.048487 
L 175.162894 106.529982 
L 175.209877 106.492814 
L 175.256859 106.471878 
L 175.397805 105.313305 
L 175.444787 105.929993 
L 175.491769 105.923254 
L 175.914609 103.576735 
L 176.055555 103.442101 
L 176.243483 101.647002 
L 176.38443 100.694719 
L 176.525376 100.309566 
L 176.61934 100.234527 
L 176.854251 98.647265 
L 176.948215 99.762342 
L 176.995197 99.717953 
L 177.136144 99.604277 
L 177.27709 99.975765 
L 177.418037 98.736804 
L 177.465019 98.754201 
L 177.699929 97.472768 
L 177.93484 96.48757 
L 177.981822 96.39289 
L 178.357679 92.92251 
L 178.404661 92.759502 
L 178.545608 94.95636 
L 178.59259 94.754309 
L 178.686554 93.709693 
L 178.733536 93.740996 
L 178.8275 94.172491 
L 178.874482 94.154831 
L 178.968447 94.043785 
L 179.015429 94.207298 
L 179.203357 92.501847 
L 179.297322 92.233659 
L 179.438268 91.160449 
L 179.579214 90.748066 
L 179.626196 90.830872 
L 179.767143 91.902071 
L 180.049036 92.937763 
L 180.189982 92.248935 
L 180.236964 92.891406 
L 180.283946 92.322705 
L 180.471875 90.447424 
L 180.565839 90.228566 
L 180.894714 88.079609 
L 180.941696 88.015615 
L 181.03566 88.993156 
L 181.129625 88.826687 
L 181.223589 88.684366 
L 181.270571 89.063792 
L 181.364535 89.022959 
L 181.599446 88.977012 
L 181.975303 87.916648 
L 182.163231 85.551359 
L 182.210213 85.94769 
L 182.257196 86.262574 
L 182.35116 86.173946 
L 182.398142 86.191425 
L 182.58607 84.722624 
L 182.680035 84.87856 
L 182.867963 84.270135 
L 182.914945 85.545546 
L 182.961927 84.914255 
L 183.055892 82.944765 
L 183.102874 83.050364 
L 183.149856 83.347632 
L 183.384767 80.491428 
L 183.572695 80.212965 
L 183.619677 80.356927 
L 183.713641 80.245587 
L 183.760624 80.389141 
L 183.807606 80.933102 
L 183.854588 80.785094 
L 183.948552 80.603531 
L 184.042516 81.907891 
L 184.089498 81.612787 
L 184.230445 80.301718 
L 184.324409 80.618914 
L 184.371391 80.422999 
L 184.465355 80.055102 
L 184.512338 80.250473 
L 184.55932 80.195453 
L 184.653284 78.885838 
L 184.700266 78.987357 
L 184.79423 79.453208 
L 184.841212 79.36113 
L 185.170087 76.616334 
L 185.311034 76.371444 
L 185.45198 77.165673 
L 185.545944 76.120718 
L 185.592926 76.602137 
L 185.686891 76.716645 
L 185.780855 76.999061 
L 185.827837 76.830848 
L 186.203694 71.483962 
L 186.250676 71.50232 
L 186.344641 71.396132 
L 186.391623 71.17813 
L 186.438605 71.429358 
L 186.626533 73.145037 
L 186.673515 72.760801 
L 186.814462 72.203363 
L 186.955408 73.384088 
L 187.049372 73.565025 
L 187.143337 72.907745 
L 187.190319 72.921442 
L 187.331265 73.34095 
L 187.613158 72.565068 
L 187.66014 71.982709 
L 187.707122 71.991925 
L 187.895051 73.361791 
L 187.989015 72.756928 
L 188.035997 73.859441 
L 188.129961 73.600184 
L 188.176943 74.250649 
L 188.223926 74.109101 
L 188.458836 71.669719 
L 188.740729 69.735367 
L 188.787711 69.937723 
L 188.881675 69.784562 
L 188.928657 69.12326 
L 188.97564 69.318321 
L 189.022622 69.378139 
L 189.069604 69.892139 
L 189.116586 69.472452 
L 189.257532 68.584359 
L 189.304514 68.548031 
L 189.445461 67.430638 
L 189.492443 67.566942 
L 189.586407 68.654817 
L 189.633389 68.568954 
L 189.680371 68.577092 
L 189.8683 67.362075 
L 189.962264 67.57966 
L 190.338121 64.734624 
L 190.432085 64.628769 
L 190.620014 63.382915 
L 190.76096 62.301373 
L 190.948889 60.293737 
L 191.089835 59.274429 
L 191.136817 59.734613 
L 191.230782 60.302813 
L 191.371728 59.672392 
L 191.41871 59.651373 
L 191.606639 57.766097 
L 191.653621 57.561537 
L 191.700603 58.117588 
L 191.747585 57.397526 
L 192.029478 54.605091 
L 192.123442 54.34351 
L 192.264388 53.178207 
L 192.311371 53.053888 
L 192.452317 52.321677 
L 192.499299 52.624183 
L 192.546281 52.228647 
L 192.593263 52.285041 
L 192.73421 54.022598 
L 192.828174 55.569108 
L 192.922138 55.451066 
L 192.96912 55.866718 
L 193.016102 55.562341 
L 193.063085 55.489866 
L 193.157049 56.135094 
L 193.204031 57.187467 
L 193.251013 56.866488 
L 193.297995 56.113507 
L 193.344977 56.478443 
L 193.391959 56.431034 
L 193.532906 54.868707 
L 193.673852 53.923043 
L 193.767816 54.133404 
L 193.814799 53.996332 
L 194.002727 52.63802 
L 194.049709 52.759711 
L 194.096691 52.737752 
L 194.190656 52.561683 
L 194.472548 50.040351 
L 194.51953 50.133872 
L 194.613495 50.520217 
L 194.660477 50.106934 
L 194.707459 50.309261 
L 194.754441 51.497227 
L 194.848405 51.205712 
L 195.083316 54.095576 
L 195.130298 53.810812 
L 195.412191 50.142897 
L 195.553137 50.188633 
L 195.600119 50.752102 
L 195.647101 50.697869 
L 195.975976 48.082258 
L 196.022958 48.213842 
L 196.116923 48.121045 
L 196.210887 48.04337 
L 196.633726 45.226113 
L 196.680708 45.221728 
L 196.868637 46.81373 
L 197.103547 45.465718 
L 197.197512 44.486756 
L 197.291476 45.698759 
L 197.338458 45.263259 
L 197.479404 44.270257 
L 197.526387 44.635445 
L 197.573369 44.230238 
L 197.620351 44.236267 
L 197.761297 43.220087 
L 197.808279 43.27834 
L 197.855261 43.721174 
L 197.902244 43.579864 
L 197.996208 42.567232 
L 198.090172 42.871163 
L 198.372065 43.684877 
L 198.419047 43.016559 
L 198.513011 43.115788 
L 198.653958 45.295812 
L 198.747922 44.066389 
L 198.794904 44.1674 
L 198.841886 44.418339 
L 199.029815 42.553898 
L 199.076797 42.695643 
L 199.405672 40.498088 
L 199.452654 41.162383 
L 199.499636 40.437731 
L 199.640582 39.445087 
L 199.687564 39.495901 
L 199.875493 40.735433 
L 199.922475 39.870722 
L 199.969457 40.134248 
L 200.016439 40.220698 
L 200.063421 40.546708 
L 200.110403 40.462538 
L 200.298332 39.703361 
L 200.392296 41.451975 
L 200.439278 41.008075 
L 200.580225 39.623738 
L 200.627207 40.052906 
L 200.768153 40.062476 
L 200.862117 39.347053 
L 200.9091 39.612289 
L 201.050046 41.667922 
L 201.097028 41.24669 
L 201.190992 40.433639 
L 201.237974 41.076414 
L 201.331939 40.996724 
L 201.378921 41.069739 
L 201.613831 40.487503 
L 201.707796 40.917044 
L 201.80176 40.153284 
L 201.848742 40.621992 
L 201.895724 40.325422 
L 202.365546 38.52027 
L 202.600456 39.868318 
L 202.741403 38.976854 
L 202.788385 39.342883 
L 202.929331 39.408319 
L 203.023295 38.74897 
L 203.070277 38.868928 
L 203.11726 39.163179 
L 203.587081 33.819372 
L 203.634063 33.881627 
L 203.728027 35.878826 
L 203.962938 32.836364 
L 204.056902 32.583366 
L 204.103884 32.981619 
L 204.150866 32.622672 
L 204.385777 31.86976 
L 204.432759 32.090848 
L 204.573705 32.85527 
L 204.761634 31.602237 
L 204.808616 31.614566 
L 204.855598 31.867056 
L 205.090509 29.98634 
L 205.137491 29.966045 
L 205.231455 31.372372 
L 205.278437 30.984855 
L 205.372402 31.179098 
L 205.419384 30.676125 
L 205.466366 30.914834 
L 205.56033 34.162383 
L 205.607312 33.94575 
L 205.654294 33.148181 
L 205.701276 33.596372 
L 205.842223 33.059082 
L 205.936187 31.388354 
L 205.983169 31.470088 
L 206.030151 30.923481 
L 206.077133 30.992848 
L 206.171098 31.938719 
L 206.21808 31.608519 
L 206.312044 30.720708 
L 206.406008 31.012974 
L 206.45299 31.082472 
L 206.499973 30.825242 
L 206.546955 31.174003 
L 206.593937 31.435258 
L 206.640919 31.099788 
L 206.87583 28.825668 
L 206.922812 28.693079 
L 207.11074 27.175247 
L 207.157722 27.483549 
L 207.204705 27.152735 
L 207.251687 27.307452 
L 207.439615 25.788851 
L 207.486597 26.136371 
L 207.674526 24.066322 
L 207.815472 25.230664 
L 207.909436 26.746057 
L 207.956419 26.698538 
L 208.003401 26.725746 
L 208.050383 27.001698 
L 208.097365 26.826082 
L 208.191329 26.817141 
L 208.379258 25.799301 
L 208.473222 26.315312 
L 208.614168 28.143146 
L 208.66115 28.27785 
L 208.708133 28.082424 
L 208.849079 27.555955 
L 208.990025 27.397072 
L 209.037007 27.730292 
L 209.08399 27.623131 
L 209.3189 25.767009 
L 209.365882 26.199923 
L 209.412864 26.534013 
L 209.600793 24.57405 
L 209.647775 25.041559 
L 209.694757 24.973299 
L 209.741739 25.066266 
L 209.788721 25.266605 
L 209.835704 25.193797 
L 209.882686 25.157692 
L 209.97665 25.544087 
L 210.023632 25.492262 
L 210.117596 25.133959 
L 210.305525 27.309778 
L 210.446471 27.263278 
L 210.493453 27.199586 
L 210.728364 25.575556 
L 210.775346 25.550063 
L 211.010257 24.263167 
L 211.057239 24.267127 
L 211.151203 23.314898 
L 211.245167 22.293102 
L 211.386114 24.067506 
L 211.668006 25.734642 
L 211.714989 25.488173 
L 211.761971 25.064464 
L 211.808953 25.325143 
L 211.855935 25.283204 
L 212.043863 24.622274 
L 212.090846 25.21121 
L 212.137828 25.046546 
L 212.466703 23.329406 
L 212.466703 23.329406 
" clip-path="url(#pb0d439bc21)" style="fill: none; stroke: #4477aa; stroke-linecap: square"/>
   </g>
   <g id="patch_3">
    <path d="M 26.043975 160.893102 
L 26.043975 15.363102 
" style="fill: none; stroke: #000000; stroke-width: 0.5; stroke-linejoin: miter; stroke-linecap: square"/>
   </g>
   <g id="patch_4">
    <path d="M 221.343975 160.893102 
L 221.343975 15.363102 
" style="fill: none; stroke: #000000; stroke-width: 0.5; stroke-linejoin: miter; stroke-linecap: square"/>
   </g>
   <g id="patch_5">
    <path d="M 26.043975 160.893102 
L 221.343975 160.893102 
" style="fill: none; stroke: #000000; stroke-width: 0.5; stroke-linejoin: miter; stroke-linecap: square"/>
   </g>
   <g id="patch_6">
    <path d="M 26.043975 15.363102 
L 221.343975 15.363102 
" style="fill: none; stroke: #000000; stroke-width: 0.5; stroke-linejoin: miter; stroke-linecap: square"/>
   </g>
   <g id="text_12">
    <!-- $U_w = 10.0$ mV, $t_w = 13.9$ ns, $t_{wait} = 10.0$ -->
    <g transform="translate(41.67548 9.363102) scale(0.0833 -0.0833)">
     <defs>
      <path id="CMMI12-55" d="M 3238 1474 
C 3014 581 2272 57 1670 57 
C 1210 57 896 363 896 891 
C 896 916 896 1107 966 1387 
L 1594 3887 
C 1651 4103 1664 4167 2118 4167 
C 2234 4167 2298 4167 2298 4282 
C 2298 4352 2240 4352 2202 4352 
C 2086 4352 1952 4352 1830 4352 
L 1075 4352 
C 954 4352 819 4352 698 4352 
C 653 4352 576 4352 576 4231 
C 576 4167 621 4167 742 4167 
C 1126 4167 1126 4116 1126 4046 
C 1126 4008 1082 3824 1050 3715 
L 493 1488 
C 474 1418 435 1246 435 1075 
C 435 374 941 -128 1638 -128 
C 2285 -128 3002 384 3328 1197 
C 3373 1305 3430 1530 3469 1702 
C 3533 1933 3667 2496 3712 2662 
L 3955 3623 
C 4038 3956 4090 4167 4653 4167 
C 4704 4173 4730 4224 4730 4282 
C 4730 4352 4672 4352 4646 4352 
C 4557 4352 4442 4352 4352 4352 
L 4051 4352 
C 3654 4352 3450 4352 3443 4352 
C 3405 4352 3328 4352 3328 4231 
C 3328 4167 3379 4167 3424 4167 
C 3808 4167 3834 4020 3834 3905 
C 3834 3848 3834 3828 3808 3739 
L 3238 1474 
z
" transform="scale(0.015625)"/>
      <path id="CMMI12-77" d="M 2202 390 
C 2342 6 2739 -64 2982 -64 
C 3469 -64 3757 358 3936 798 
C 4083 1169 4320 2012 4320 2389 
C 4320 2778 4122 2816 4064 2816 
C 3910 2816 3770 2663 3770 2535 
C 3770 2459 3814 2414 3846 2389 
C 3904 2331 4070 2159 4070 1827 
C 4070 1609 3891 1009 3757 709 
C 3578 319 3341 64 3008 64 
C 2650 64 2534 332 2534 626 
C 2534 811 2592 1035 2618 1143 
L 2886 2216 
C 2918 2344 2976 2567 2976 2593 
C 2976 2689 2899 2753 2803 2753 
C 2618 2753 2573 2593 2534 2440 
C 2470 2191 2202 1111 2176 971 
C 2150 862 2150 792 2150 651 
C 2150 498 1946 255 1939 243 
C 1869 172 1766 64 1568 64 
C 1062 64 1062 543 1062 651 
C 1062 856 1107 1137 1395 1897 
C 1472 2095 1504 2178 1504 2305 
C 1504 2574 1312 2816 998 2816 
C 410 2816 173 1890 173 1839 
C 173 1814 198 1782 243 1782 
C 301 1782 307 1807 333 1896 
C 493 2454 742 2682 979 2682 
C 1043 2682 1146 2682 1146 2478 
C 1146 2446 1146 2312 1037 2031 
C 736 1233 672 971 672 728 
C 672 57 1222 -64 1549 -64 
C 1658 -64 1946 -64 2202 390 
z
" transform="scale(0.015625)"/>
      <path id="CMR17-3d" d="M 4115 2017 
C 4211 2017 4307 2017 4307 2125 
C 4307 2240 4198 2240 4090 2240 
L 512 2240 
C 403 2240 294 2240 294 2125 
C 294 2017 390 2017 486 2017 
L 4115 2017 
z
M 4090 896 
C 4198 896 4307 896 4307 1011 
C 4307 1119 4211 1119 4115 1119 
L 486 1119 
C 390 1119 294 1119 294 1011 
C 294 896 403 896 512 896 
L 4090 896 
z
" transform="scale(0.015625)"/>
      <path id="CMMI12-3a" d="M 1178 307 
C 1178 492 1024 619 870 619 
C 685 619 557 466 557 313 
C 557 128 710 0 864 0 
C 1050 0 1178 153 1178 307 
z
" transform="scale(0.015625)"/>
      <path id="CMR17-6d" d="M 4326 1933 
C 4326 2252 4269 2790 3507 2790 
C 3072 2790 2771 2496 2656 2151 
L 2650 2151 
C 2573 2676 2195 2790 1837 2790 
C 1331 2790 1069 2400 973 2144 
L 966 2144 
L 966 2790 
L 211 2720 
L 211 2554 
C 589 2554 646 2515 646 2208 
L 646 428 
C 646 184 621 153 211 153 
L 211 -13 
C 365 0 646 0 813 0 
C 979 0 1267 0 1421 -13 
L 1421 153 
C 1011 153 986 178 986 428 
L 986 1658 
C 986 2247 1344 2688 1792 2688 
C 2266 2688 2317 2266 2317 1958 
L 2317 428 
C 2317 184 2291 153 1882 153 
L 1882 -13 
C 2035 0 2317 0 2483 0 
C 2650 0 2938 0 3091 -13 
L 3091 153 
C 2682 153 2656 178 2656 428 
L 2656 1658 
C 2656 2247 3014 2688 3462 2688 
C 3936 2688 3987 2266 3987 1958 
L 3987 428 
C 3987 184 3962 153 3552 153 
L 3552 -13 
C 3706 0 3987 0 4154 0 
C 4320 0 4608 0 4762 -13 
L 4762 153 
C 4352 153 4326 178 4326 428 
L 4326 1933 
z
" transform="scale(0.015625)"/>
      <path id="CMR17-56" d="M 3776 3745 
C 3834 3886 3936 4160 4365 4160 
L 4365 4332 
C 4218 4319 4051 4319 3891 4319 
C 3738 4319 3475 4319 3328 4332 
L 3328 4160 
C 3648 4160 3661 3936 3661 3898 
C 3661 3827 3642 3783 3622 3732 
L 2362 446 
L 1043 3886 
C 1024 3931 1011 3963 1011 3994 
C 1011 4160 1267 4160 1402 4160 
L 1402 4319 
C 1197 4319 896 4319 685 4319 
C 518 4319 218 4319 64 4332 
L 64 4160 
C 435 4160 506 4135 582 3931 
L 2106 -26 
C 2138 -115 2144 -128 2214 -128 
C 2285 -128 2291 -115 2323 -26 
L 3776 3745 
z
" transform="scale(0.015625)"/>
      <path id="CMR17-2c" d="M 1011 102 
C 1024 45 1024 25 1024 -77 
C 1024 -463 896 -817 627 -1139 
C 595 -1170 595 -1183 595 -1197 
C 595 -1222 621 -1248 646 -1248 
C 685 -1248 1126 -799 1126 -87 
C 1126 124 1101 522 800 522 
C 659 522 538 427 538 261 
C 538 96 659 0 800 0 
C 877 0 960 32 1011 102 
z
" transform="scale(0.015625)"/>
      <path id="CMR17-39" d="M 2253 1864 
C 2253 464 1670 31 1190 31 
C 1043 31 685 31 538 294 
C 704 268 826 357 826 518 
C 826 692 685 749 595 749 
C 538 749 365 723 365 506 
C 365 71 742 -128 1203 -128 
C 1939 -128 2688 674 2688 2073 
C 2688 3817 1971 4179 1485 4179 
C 851 4179 243 3628 243 2778 
C 243 1991 762 1408 1414 1408 
C 1952 1408 2189 1903 2253 2112 
L 2253 1864 
z
M 1427 1510 
C 1254 1510 1011 1542 813 1922 
C 678 2169 678 2461 678 2771 
C 678 3146 678 3405 858 3684 
C 947 3817 1114 4032 1485 4032 
C 2240 4032 2240 2885 2240 2632 
C 2240 2182 2035 1510 1427 1510 
z
" transform="scale(0.015625)"/>
      <path id="CMMI12-61" d="M 1926 760 
C 1894 651 1894 639 1805 517 
C 1664 338 1382 64 1082 64 
C 819 64 672 300 672 677 
C 672 1028 870 1743 992 2012 
C 1210 2459 1510 2689 1760 2689 
C 2182 2689 2266 2165 2266 2114 
C 2266 2108 2246 2024 2240 2012 
L 1926 760 
z
M 2336 2395 
C 2266 2561 2093 2816 1760 2816 
C 1037 2816 256 1884 256 939 
C 256 307 627 -64 1062 -64 
C 1414 -64 1715 211 1894 422 
C 1958 45 2259 -64 2451 -64 
C 2643 -64 2797 51 2912 281 
C 3014 498 3104 888 3104 913 
C 3104 945 3078 971 3040 971 
C 2982 971 2976 939 2950 843 
C 2854 466 2733 64 2470 64 
C 2285 64 2272 230 2272 358 
C 2272 505 2291 575 2349 824 
C 2394 984 2426 1124 2477 1309 
C 2714 2267 2771 2497 2771 2535 
C 2771 2625 2701 2695 2605 2695 
C 2400 2695 2349 2472 2336 2395 
z
" transform="scale(0.015625)"/>
      <path id="CMMI12-69" d="M 1811 913 
C 1811 945 1786 971 1747 971 
C 1690 971 1683 952 1651 843 
C 1485 262 1222 64 1011 64 
C 934 64 845 83 845 275 
C 845 447 922 639 992 830 
L 1440 2018 
C 1459 2069 1504 2184 1504 2305 
C 1504 2574 1312 2816 998 2816 
C 410 2816 173 1890 173 1839 
C 173 1814 198 1782 243 1782 
C 301 1782 307 1807 333 1896 
C 486 2428 730 2682 979 2682 
C 1037 2682 1146 2682 1146 2478 
C 1146 2312 1062 2101 1011 1961 
L 563 773 
C 525 671 486 568 486 453 
C 486 166 685 -64 992 -64 
C 1581 -64 1811 869 1811 913 
z
M 1760 4013 
C 1760 4109 1683 4224 1542 4224 
C 1395 4224 1229 4083 1229 3917 
C 1229 3758 1363 3707 1440 3707 
C 1613 3707 1760 3873 1760 4013 
z
" transform="scale(0.015625)"/>
     </defs>
     <use xlink:href="#CMMI12-55" transform="scale(0.996264)"/>
     <use xlink:href="#CMMI12-77" transform="translate(66.252119 -14.943915) scale(0.697382)"/>
     <use xlink:href="#CMR17-3d" transform="translate(145.113068 0) scale(0.996264)"/>
     <use xlink:href="#CMR17-31" transform="translate(244.501865 0) scale(0.996264)"/>
     <use xlink:href="#CMR17-30" transform="translate(290.192342 0) scale(0.996264)"/>
     <use xlink:href="#CMMI12-3a" transform="translate(335.882819 0) scale(0.996264)"/>
     <use xlink:href="#CMR17-30" transform="translate(362.979996 0) scale(0.996264)"/>
     <use xlink:href="#CMR17-6d" transform="translate(438.74644 0) scale(0.996264)"/>
     <use xlink:href="#CMR17-56" transform="translate(515.66603 0) scale(0.996264)"/>
     <use xlink:href="#CMR17-2c" transform="translate(584.738459 0) scale(0.996264)"/>
     <use xlink:href="#CMMI12-74" transform="translate(639.685484 0) scale(0.996264)"/>
     <use xlink:href="#CMMI12-77" transform="translate(674.911814 -14.943915) scale(0.697382)"/>
     <use xlink:href="#CMR17-3d" transform="translate(753.772763 0) scale(0.996264)"/>
     <use xlink:href="#CMR17-31" transform="translate(853.16156 0) scale(0.996264)"/>
     <use xlink:href="#CMR17-33" transform="translate(898.852037 0) scale(0.996264)"/>
     <use xlink:href="#CMMI12-3a" transform="translate(944.542515 0) scale(0.996264)"/>
     <use xlink:href="#CMR17-39" transform="translate(971.639692 0) scale(0.996264)"/>
     <use xlink:href="#CMR17-6e" transform="translate(1047.406135 0) scale(0.996264)"/>
     <use xlink:href="#CMR17-73" transform="translate(1098.301505 0) scale(0.996264)"/>
     <use xlink:href="#CMR17-2c" transform="translate(1134.102842 0) scale(0.996264)"/>
     <use xlink:href="#CMMI12-74" transform="translate(1189.049867 0) scale(0.996264)"/>
     <use xlink:href="#CMMI12-77" transform="translate(1224.276198 -14.943915) scale(0.697382)"/>
     <use xlink:href="#CMMI12-61" transform="translate(1274.965005 -14.943915) scale(0.697382)"/>
     <use xlink:href="#CMMI12-69" transform="translate(1310.810352 -14.943915) scale(0.697382)"/>
     <use xlink:href="#CMMI12-74" transform="translate(1334.10526 -14.943915) scale(0.697382)"/>
     <use xlink:href="#CMR17-3d" transform="translate(1386.93571 0) scale(0.996264)"/>
     <use xlink:href="#CMR17-31" transform="translate(1486.324507 0) scale(0.996264)"/>
     <use xlink:href="#CMR17-30" transform="translate(1532.014984 0) scale(0.996264)"/>
     <use xlink:href="#CMMI12-3a" transform="translate(1577.705461 0) scale(0.996264)"/>
     <use xlink:href="#CMR17-30" transform="translate(1604.802638 0) scale(0.996264)"/>
    </g>
   </g>
  </g>
  <g id="axes_2">
   <g id="matplotlib.axis_3">
    <g id="ytick_22">
     <g id="line2d_72">
      <defs>
       <path id="md464d9ef35" d="M 0 0 
L -3 0 
" style="stroke: #000000; stroke-width: 0.5"/>
      </defs>
      <g>
       <use xlink:href="#md464d9ef35" x="221.343975" y="160.893102" style="stroke: #000000; stroke-width: 0.5"/>
      </g>
     </g>
    </g>
    <g id="ytick_23">
     <g id="line2d_73">
      <g>
       <use xlink:href="#md464d9ef35" x="221.343975" y="133.173102" style="stroke: #000000; stroke-width: 0.5"/>
      </g>
     </g>
    </g>
    <g id="ytick_24">
     <g id="line2d_74">
      <g>
       <use xlink:href="#md464d9ef35" x="221.343975" y="105.453102" style="stroke: #000000; stroke-width: 0.5"/>
      </g>
     </g>
    </g>
    <g id="ytick_25">
     <g id="line2d_75">
      <g>
       <use xlink:href="#md464d9ef35" x="221.343975" y="77.733102" style="stroke: #000000; stroke-width: 0.5"/>
      </g>
     </g>
    </g>
    <g id="ytick_26">
     <g id="line2d_76">
      <g>
       <use xlink:href="#md464d9ef35" x="221.343975" y="50.013102" style="stroke: #000000; stroke-width: 0.5"/>
      </g>
     </g>
    </g>
    <g id="ytick_27">
     <g id="line2d_77">
      <g>
       <use xlink:href="#md464d9ef35" x="221.343975" y="22.293102" style="stroke: #000000; stroke-width: 0.5"/>
      </g>
     </g>
    </g>
    <g id="ytick_28">
     <g id="line2d_78">
      <defs>
       <path id="ma98150d855" d="M 0 0 
L -1.5 0 
" style="stroke: #000000; stroke-width: 0.5"/>
      </defs>
      <g>
       <use xlink:href="#ma98150d855" x="221.343975" y="153.963102" style="stroke: #000000; stroke-width: 0.5"/>
      </g>
     </g>
    </g>
    <g id="ytick_29">
     <g id="line2d_79">
      <g>
       <use xlink:href="#ma98150d855" x="221.343975" y="147.033102" style="stroke: #000000; stroke-width: 0.5"/>
      </g>
     </g>
    </g>
    <g id="ytick_30">
     <g id="line2d_80">
      <g>
       <use xlink:href="#ma98150d855" x="221.343975" y="140.103102" style="stroke: #000000; stroke-width: 0.5"/>
      </g>
     </g>
    </g>
    <g id="ytick_31">
     <g id="line2d_81">
      <g>
       <use xlink:href="#ma98150d855" x="221.343975" y="126.243102" style="stroke: #000000; stroke-width: 0.5"/>
      </g>
     </g>
    </g>
    <g id="ytick_32">
     <g id="line2d_82">
      <g>
       <use xlink:href="#ma98150d855" x="221.343975" y="119.313102" style="stroke: #000000; stroke-width: 0.5"/>
      </g>
     </g>
    </g>
    <g id="ytick_33">
     <g id="line2d_83">
      <g>
       <use xlink:href="#ma98150d855" x="221.343975" y="112.383102" style="stroke: #000000; stroke-width: 0.5"/>
      </g>
     </g>
    </g>
    <g id="ytick_34">
     <g id="line2d_84">
      <g>
       <use xlink:href="#ma98150d855" x="221.343975" y="98.523102" style="stroke: #000000; stroke-width: 0.5"/>
      </g>
     </g>
    </g>
    <g id="ytick_35">
     <g id="line2d_85">
      <g>
       <use xlink:href="#ma98150d855" x="221.343975" y="91.593102" style="stroke: #000000; stroke-width: 0.5"/>
      </g>
     </g>
    </g>
    <g id="ytick_36">
     <g id="line2d_86">
      <g>
       <use xlink:href="#ma98150d855" x="221.343975" y="84.663102" style="stroke: #000000; stroke-width: 0.5"/>
      </g>
     </g>
    </g>
    <g id="ytick_37">
     <g id="line2d_87">
      <g>
       <use xlink:href="#ma98150d855" x="221.343975" y="70.803102" style="stroke: #000000; stroke-width: 0.5"/>
      </g>
     </g>
    </g>
    <g id="ytick_38">
     <g id="line2d_88">
      <g>
       <use xlink:href="#ma98150d855" x="221.343975" y="63.873102" style="stroke: #000000; stroke-width: 0.5"/>
      </g>
     </g>
    </g>
    <g id="ytick_39">
     <g id="line2d_89">
      <g>
       <use xlink:href="#ma98150d855" x="221.343975" y="56.943102" style="stroke: #000000; stroke-width: 0.5"/>
      </g>
     </g>
    </g>
    <g id="ytick_40">
     <g id="line2d_90">
      <g>
       <use xlink:href="#ma98150d855" x="221.343975" y="43.083102" style="stroke: #000000; stroke-width: 0.5"/>
      </g>
     </g>
    </g>
    <g id="ytick_41">
     <g id="line2d_91">
      <g>
       <use xlink:href="#ma98150d855" x="221.343975" y="36.153102" style="stroke: #000000; stroke-width: 0.5"/>
      </g>
     </g>
    </g>
    <g id="ytick_42">
     <g id="line2d_92">
      <g>
       <use xlink:href="#ma98150d855" x="221.343975" y="29.223102" style="stroke: #000000; stroke-width: 0.5"/>
      </g>
     </g>
    </g>
    <g id="ytick_43">
     <g id="line2d_93">
      <g>
       <use xlink:href="#ma98150d855" x="221.343975" y="15.363102" style="stroke: #000000; stroke-width: 0.5"/>
      </g>
     </g>
    </g>
   </g>
   <g id="line2d_94">
    <path d="M 34.921248 22.293102 
L 100.179421 22.293102 
L 100.320368 160.893102 
L 147.161547 160.893102 
L 147.302494 22.293102 
L 212.466703 22.293102 
L 212.466703 22.293102 
" clip-path="url(#pb0d439bc21)" style="fill: none; stroke: #000000; stroke-linecap: square"/>
   </g>
   <g id="patch_7">
    <path d="M 26.043975 160.893102 
L 26.043975 15.363102 
" style="fill: none; stroke: #000000; stroke-width: 0.5; stroke-linejoin: miter; stroke-linecap: square"/>
   </g>
   <g id="patch_8">
    <path d="M 221.343975 160.893102 
L 221.343975 15.363102 
" style="fill: none; stroke: #000000; stroke-width: 0.5; stroke-linejoin: miter; stroke-linecap: square"/>
   </g>
   <g id="patch_9">
    <path d="M 26.043975 160.893102 
L 221.343975 160.893102 
" style="fill: none; stroke: #000000; stroke-width: 0.5; stroke-linejoin: miter; stroke-linecap: square"/>
   </g>
   <g id="patch_10">
    <path d="M 26.043975 15.363102 
L 221.343975 15.363102 
" style="fill: none; stroke: #000000; stroke-width: 0.5; stroke-linejoin: miter; stroke-linecap: square"/>
   </g>
  </g>
 </g>
 <defs>
  <clipPath id="pb0d439bc21">
   <rect x="26.043975" y="15.363102" width="195.3" height="145.53"/>
  </clipPath>
 </defs>
</svg>
