<?xml version="1.0" encoding="utf-8" standalone="no"?>
<!DOCTYPE svg PUBLIC "-//W3C//DTD SVG 1.1//EN"
  "http://www.w3.org/Graphics/SVG/1.1/DTD/svg11.dtd">
<svg xmlns:xlink="http://www.w3.org/1999/xlink" width="185.071548pt" height="145.018103pt" viewBox="0 0 185.071548 145.018103" xmlns="http://www.w3.org/2000/svg" version="1.1">
 <metadata>
  <rdf:RDF xmlns:dc="http://purl.org/dc/elements/1.1/" xmlns:cc="http://creativecommons.org/ns#" xmlns:rdf="http://www.w3.org/1999/02/22-rdf-syntax-ns#">
   <cc:Work>
    <dc:type rdf:resource="http://purl.org/dc/dcmitype/StillImage"/>
    <dc:date>2026-03-11T11:23:01.406068</dc:date>
    <dc:format>image/svg+xml</dc:format>
    <dc:creator>
     <cc:Agent>
      <dc:title>Matplotlib v3.7.0, https://matplotlib.org/</dc:title>
     </cc:Agent>
    </dc:creator>
   </cc:Work>
  </rdf:RDF>
 </metadata>
 <defs>
  <style type="text/css">*{stroke-linejoin: round; stroke-linecap: butt}</style>
 </defs>
 <g id="figure_1">
  <g id="patch_1">
   <path d="M 0 145.018103 
L 185.071548 145.018103 
L 185.071548 0 
L 0 0 
L 0 145.018103 
z
" style="fill: none"/>
  </g>
  <g id="axes_1">
   <g id="patch_2">
    <path d="M 34.996548 116.206749 
L 181.471548 116.206749 
L 181.471548 7.059249 
L 34.996548 7.059249 
L 34.996548 116.206749 
z
" style="fill: none"/>
   </g>
   <g id="matplotlib.axis_1">
    <g id="xtick_1">
     <g id="line2d_1">
      <defs>
       <path id="mb6175dfea2" d="M 0 0 
L 0 -3 
" style="stroke: #000000; stroke-width: 0.5"/>
      </defs>
      <g>
       <use xlink:href="#mb6175dfea2" x="47.202798" y="116.206749" style="stroke: #000000; stroke-width: 0.5"/>
      </g>
     </g>
     <g id="line2d_2">
      <defs>
       <path id="mf1cd3c884c" d="M 0 0 
L 0 3 
" style="stroke: #000000; stroke-width: 0.5"/>
      </defs>
      <g>
       <use xlink:href="#mf1cd3c884c" x="47.202798" y="7.059249" style="stroke: #000000; stroke-width: 0.5"/>
      </g>
     </g>
     <g id="text_1">
      <!-- 2.0 -->
      <g transform="translate(40.837759 126.625248) scale(0.1 -0.1)">
       <defs>
        <path id="CMR17-32" d="M 2669 989 
L 2554 989 
C 2490 536 2438 459 2413 420 
C 2381 369 1920 369 1830 369 
L 602 369 
C 832 619 1280 1072 1824 1597 
C 2214 1967 2669 2402 2669 3035 
C 2669 3790 2067 4224 1395 4224 
C 691 4224 262 3604 262 3030 
C 262 2780 448 2748 525 2748 
C 589 2748 781 2787 781 3010 
C 781 3207 614 3264 525 3264 
C 486 3264 448 3258 422 3245 
C 544 3790 915 4058 1306 4058 
C 1862 4058 2227 3617 2227 3035 
C 2227 2479 1901 2000 1536 1584 
L 262 146 
L 262 0 
L 2515 0 
L 2669 989 
z
" transform="scale(0.015625)"/>
        <path id="CMR17-2e" d="M 1062 261 
C 1062 420 934 522 800 522 
C 672 522 538 420 538 261 
C 538 102 666 0 800 0 
C 928 0 1062 102 1062 261 
z
" transform="scale(0.015625)"/>
        <path id="CMR17-30" d="M 2688 2025 
C 2688 2416 2682 3080 2413 3591 
C 2176 4039 1798 4198 1466 4198 
C 1158 4198 768 4058 525 3597 
C 269 3118 243 2524 243 2025 
C 243 1661 250 1106 448 619 
C 723 -39 1216 -128 1466 -128 
C 1760 -128 2208 -7 2470 600 
C 2662 1042 2688 1559 2688 2025 
z
M 1466 -26 
C 1056 -26 813 325 723 812 
C 653 1188 653 1738 653 2096 
C 653 2588 653 2997 736 3387 
C 858 3929 1216 4096 1466 4096 
C 1728 4096 2067 3923 2189 3400 
C 2272 3036 2278 2607 2278 2096 
C 2278 1680 2278 1169 2202 792 
C 2067 95 1690 -26 1466 -26 
z
" transform="scale(0.015625)"/>
       </defs>
       <use xlink:href="#CMR17-32" transform="scale(0.996264)"/>
       <use xlink:href="#CMR17-2e" transform="translate(45.690477 0) scale(0.996264)"/>
       <use xlink:href="#CMR17-30" transform="translate(70.561536 0) scale(0.996264)"/>
      </g>
     </g>
    </g>
    <g id="xtick_2">
     <g id="line2d_3">
      <g>
       <use xlink:href="#mb6175dfea2" x="71.615298" y="116.206749" style="stroke: #000000; stroke-width: 0.5"/>
      </g>
     </g>
     <g id="line2d_4">
      <g>
       <use xlink:href="#mf1cd3c884c" x="71.615298" y="7.059249" style="stroke: #000000; stroke-width: 0.5"/>
      </g>
     </g>
     <g id="text_2">
      <!-- 4.0 -->
      <g transform="translate(65.250259 126.625248) scale(0.1 -0.1)">
       <defs>
        <path id="CMR17-34" d="M 2150 4122 
C 2150 4256 2144 4256 2029 4256 
L 128 1254 
L 128 1088 
L 1779 1088 
L 1779 457 
C 1779 224 1766 160 1318 160 
L 1197 160 
L 1197 0 
C 1402 0 1747 0 1965 0 
C 2182 0 2528 0 2733 0 
L 2733 160 
L 2611 160 
C 2163 160 2150 224 2150 457 
L 2150 1088 
L 2803 1088 
L 2803 1254 
L 2150 1254 
L 2150 4122 
z
M 1798 3703 
L 1798 1254 
L 256 1254 
L 1798 3703 
z
" transform="scale(0.015625)"/>
       </defs>
       <use xlink:href="#CMR17-34" transform="scale(0.996264)"/>
       <use xlink:href="#CMR17-2e" transform="translate(45.690477 0) scale(0.996264)"/>
       <use xlink:href="#CMR17-30" transform="translate(70.561536 0) scale(0.996264)"/>
      </g>
     </g>
    </g>
    <g id="xtick_3">
     <g id="line2d_5">
      <g>
       <use xlink:href="#mb6175dfea2" x="96.027798" y="116.206749" style="stroke: #000000; stroke-width: 0.5"/>
      </g>
     </g>
     <g id="line2d_6">
      <g>
       <use xlink:href="#mf1cd3c884c" x="96.027798" y="7.059249" style="stroke: #000000; stroke-width: 0.5"/>
      </g>
     </g>
     <g id="text_3">
      <!-- 8.0 -->
      <g transform="translate(89.662759 126.625248) scale(0.1 -0.1)">
       <defs>
        <path id="CMR17-38" d="M 1741 2264 
C 2144 2467 2554 2773 2554 3263 
C 2554 3841 1990 4179 1472 4179 
C 890 4179 378 3759 378 3180 
C 378 3021 416 2747 666 2505 
C 730 2442 998 2251 1171 2130 
C 883 1983 211 1634 211 934 
C 211 279 838 -128 1459 -128 
C 2144 -128 2720 362 2720 1010 
C 2720 1590 2330 1857 2074 2029 
L 1741 2264 
z
M 902 2822 
C 851 2854 595 3051 595 3351 
C 595 3739 998 4032 1459 4032 
C 1965 4032 2336 3676 2336 3262 
C 2336 2669 1670 2331 1638 2331 
C 1632 2331 1626 2331 1574 2370 
L 902 2822 
z
M 2080 1519 
C 2176 1449 2483 1240 2483 851 
C 2483 381 2010 25 1472 25 
C 890 25 448 438 448 940 
C 448 1443 838 1862 1280 2060 
L 2080 1519 
z
" transform="scale(0.015625)"/>
       </defs>
       <use xlink:href="#CMR17-38" transform="scale(0.996264)"/>
       <use xlink:href="#CMR17-2e" transform="translate(45.690477 0) scale(0.996264)"/>
       <use xlink:href="#CMR17-30" transform="translate(70.561536 0) scale(0.996264)"/>
      </g>
     </g>
    </g>
    <g id="xtick_4">
     <g id="line2d_7">
      <g>
       <use xlink:href="#mb6175dfea2" x="120.440298" y="116.206749" style="stroke: #000000; stroke-width: 0.5"/>
      </g>
     </g>
     <g id="line2d_8">
      <g>
       <use xlink:href="#mf1cd3c884c" x="120.440298" y="7.059249" style="stroke: #000000; stroke-width: 0.5"/>
      </g>
     </g>
     <g id="text_4">
      <!-- 16.0 -->
      <g transform="translate(111.584591 126.625248) scale(0.1 -0.1)">
       <defs>
        <path id="CMR17-31" d="M 1702 4058 
C 1702 4192 1696 4192 1606 4192 
C 1357 3916 979 3827 621 3827 
C 602 3827 570 3827 563 3808 
C 557 3795 557 3782 557 3648 
C 755 3648 1088 3686 1344 3839 
L 1344 461 
C 1344 236 1331 160 781 160 
L 589 160 
L 589 0 
C 896 0 1216 0 1523 0 
C 1830 0 2150 0 2458 0 
L 2458 160 
L 2266 160 
C 1715 160 1702 230 1702 458 
L 1702 4058 
z
" transform="scale(0.015625)"/>
        <path id="CMR17-36" d="M 678 2176 
C 678 3690 1395 4032 1811 4032 
C 1946 4032 2272 4009 2400 3776 
C 2298 3776 2106 3776 2106 3553 
C 2106 3381 2246 3323 2336 3323 
C 2394 3323 2566 3348 2566 3560 
C 2566 3954 2246 4179 1805 4179 
C 1043 4179 243 3390 243 1984 
C 243 253 966 -128 1478 -128 
C 2099 -128 2688 427 2688 1283 
C 2688 2081 2170 2662 1517 2662 
C 1126 2662 838 2407 678 1960 
L 678 2176 
z
M 1478 25 
C 691 25 691 1200 691 1436 
C 691 1896 909 2560 1504 2560 
C 1613 2560 1926 2560 2138 2120 
C 2253 1870 2253 1609 2253 1289 
C 2253 944 2253 690 2118 434 
C 1978 171 1773 25 1478 25 
z
" transform="scale(0.015625)"/>
       </defs>
       <use xlink:href="#CMR17-31" transform="scale(0.996264)"/>
       <use xlink:href="#CMR17-36" transform="translate(45.690477 0) scale(0.996264)"/>
       <use xlink:href="#CMR17-2e" transform="translate(91.380954 0) scale(0.996264)"/>
       <use xlink:href="#CMR17-30" transform="translate(116.252013 0) scale(0.996264)"/>
      </g>
     </g>
    </g>
    <g id="xtick_5">
     <g id="line2d_9">
      <g>
       <use xlink:href="#mb6175dfea2" x="144.852798" y="116.206749" style="stroke: #000000; stroke-width: 0.5"/>
      </g>
     </g>
     <g id="line2d_10">
      <g>
       <use xlink:href="#mf1cd3c884c" x="144.852798" y="7.059249" style="stroke: #000000; stroke-width: 0.5"/>
      </g>
     </g>
     <g id="text_5">
      <!-- 32.0 -->
      <g transform="translate(135.997091 126.625248) scale(0.1 -0.1)">
       <defs>
        <path id="CMR17-33" d="M 1414 2157 
C 1984 2157 2234 1662 2234 1090 
C 2234 320 1824 25 1453 25 
C 1114 25 563 194 390 693 
C 422 680 454 680 486 680 
C 640 680 755 782 755 948 
C 755 1133 614 1216 486 1216 
C 378 1216 211 1165 211 926 
C 211 335 787 -128 1466 -128 
C 2176 -128 2720 430 2720 1085 
C 2720 1707 2208 2157 1600 2227 
C 2086 2328 2554 2756 2554 3329 
C 2554 3820 2048 4179 1472 4179 
C 890 4179 378 3829 378 3329 
C 378 3110 544 3072 627 3072 
C 762 3072 877 3155 877 3321 
C 877 3486 762 3569 627 3569 
C 602 3569 570 3569 544 3557 
C 730 3959 1235 4032 1459 4032 
C 1683 4032 2106 3925 2106 3320 
C 2106 3143 2080 2828 1862 2550 
C 1670 2304 1453 2304 1242 2284 
C 1210 2284 1062 2269 1037 2269 
C 992 2263 966 2257 966 2208 
C 966 2163 973 2157 1101 2157 
L 1414 2157 
z
" transform="scale(0.015625)"/>
       </defs>
       <use xlink:href="#CMR17-33" transform="scale(0.996264)"/>
       <use xlink:href="#CMR17-32" transform="translate(45.690477 0) scale(0.996264)"/>
       <use xlink:href="#CMR17-2e" transform="translate(91.380954 0) scale(0.996264)"/>
       <use xlink:href="#CMR17-30" transform="translate(116.252013 0) scale(0.996264)"/>
      </g>
     </g>
    </g>
    <g id="xtick_6">
     <g id="line2d_11">
      <g>
       <use xlink:href="#mb6175dfea2" x="169.265298" y="116.206749" style="stroke: #000000; stroke-width: 0.5"/>
      </g>
     </g>
     <g id="line2d_12">
      <g>
       <use xlink:href="#mf1cd3c884c" x="169.265298" y="7.059249" style="stroke: #000000; stroke-width: 0.5"/>
      </g>
     </g>
     <g id="text_6">
      <!-- 64.0 -->
      <g transform="translate(160.409591 126.625248) scale(0.1 -0.1)">
       <use xlink:href="#CMR17-36" transform="scale(0.996264)"/>
       <use xlink:href="#CMR17-34" transform="translate(45.690477 0) scale(0.996264)"/>
       <use xlink:href="#CMR17-2e" transform="translate(91.380954 0) scale(0.996264)"/>
       <use xlink:href="#CMR17-30" transform="translate(116.252013 0) scale(0.996264)"/>
      </g>
     </g>
    </g>
    <g id="xtick_7">
     <g id="line2d_13">
      <defs>
       <path id="m09cd9ba331" d="M 0 0 
L 0 -1.5 
" style="stroke: #000000; stroke-width: 0.5"/>
      </defs>
      <g>
       <use xlink:href="#m09cd9ba331" x="37.437798" y="116.206749" style="stroke: #000000; stroke-width: 0.5"/>
      </g>
     </g>
     <g id="line2d_14">
      <defs>
       <path id="m27d462e1f8" d="M 0 0 
L 0 1.5 
" style="stroke: #000000; stroke-width: 0.5"/>
      </defs>
      <g>
       <use xlink:href="#m27d462e1f8" x="37.437798" y="7.059249" style="stroke: #000000; stroke-width: 0.5"/>
      </g>
     </g>
    </g>
    <g id="xtick_8">
     <g id="line2d_15">
      <g>
       <use xlink:href="#m09cd9ba331" x="42.320298" y="116.206749" style="stroke: #000000; stroke-width: 0.5"/>
      </g>
     </g>
     <g id="line2d_16">
      <g>
       <use xlink:href="#m27d462e1f8" x="42.320298" y="7.059249" style="stroke: #000000; stroke-width: 0.5"/>
      </g>
     </g>
    </g>
    <g id="xtick_9">
     <g id="line2d_17">
      <g>
       <use xlink:href="#m09cd9ba331" x="52.085298" y="116.206749" style="stroke: #000000; stroke-width: 0.5"/>
      </g>
     </g>
     <g id="line2d_18">
      <g>
       <use xlink:href="#m27d462e1f8" x="52.085298" y="7.059249" style="stroke: #000000; stroke-width: 0.5"/>
      </g>
     </g>
    </g>
    <g id="xtick_10">
     <g id="line2d_19">
      <g>
       <use xlink:href="#m09cd9ba331" x="56.967798" y="116.206749" style="stroke: #000000; stroke-width: 0.5"/>
      </g>
     </g>
     <g id="line2d_20">
      <g>
       <use xlink:href="#m27d462e1f8" x="56.967798" y="7.059249" style="stroke: #000000; stroke-width: 0.5"/>
      </g>
     </g>
    </g>
    <g id="xtick_11">
     <g id="line2d_21">
      <g>
       <use xlink:href="#m09cd9ba331" x="61.850298" y="116.206749" style="stroke: #000000; stroke-width: 0.5"/>
      </g>
     </g>
     <g id="line2d_22">
      <g>
       <use xlink:href="#m27d462e1f8" x="61.850298" y="7.059249" style="stroke: #000000; stroke-width: 0.5"/>
      </g>
     </g>
    </g>
    <g id="xtick_12">
     <g id="line2d_23">
      <g>
       <use xlink:href="#m09cd9ba331" x="66.732798" y="116.206749" style="stroke: #000000; stroke-width: 0.5"/>
      </g>
     </g>
     <g id="line2d_24">
      <g>
       <use xlink:href="#m27d462e1f8" x="66.732798" y="7.059249" style="stroke: #000000; stroke-width: 0.5"/>
      </g>
     </g>
    </g>
    <g id="xtick_13">
     <g id="line2d_25">
      <g>
       <use xlink:href="#m09cd9ba331" x="76.497798" y="116.206749" style="stroke: #000000; stroke-width: 0.5"/>
      </g>
     </g>
     <g id="line2d_26">
      <g>
       <use xlink:href="#m27d462e1f8" x="76.497798" y="7.059249" style="stroke: #000000; stroke-width: 0.5"/>
      </g>
     </g>
    </g>
    <g id="xtick_14">
     <g id="line2d_27">
      <g>
       <use xlink:href="#m09cd9ba331" x="81.380298" y="116.206749" style="stroke: #000000; stroke-width: 0.5"/>
      </g>
     </g>
     <g id="line2d_28">
      <g>
       <use xlink:href="#m27d462e1f8" x="81.380298" y="7.059249" style="stroke: #000000; stroke-width: 0.5"/>
      </g>
     </g>
    </g>
    <g id="xtick_15">
     <g id="line2d_29">
      <g>
       <use xlink:href="#m09cd9ba331" x="86.262798" y="116.206749" style="stroke: #000000; stroke-width: 0.5"/>
      </g>
     </g>
     <g id="line2d_30">
      <g>
       <use xlink:href="#m27d462e1f8" x="86.262798" y="7.059249" style="stroke: #000000; stroke-width: 0.5"/>
      </g>
     </g>
    </g>
    <g id="xtick_16">
     <g id="line2d_31">
      <g>
       <use xlink:href="#m09cd9ba331" x="91.145298" y="116.206749" style="stroke: #000000; stroke-width: 0.5"/>
      </g>
     </g>
     <g id="line2d_32">
      <g>
       <use xlink:href="#m27d462e1f8" x="91.145298" y="7.059249" style="stroke: #000000; stroke-width: 0.5"/>
      </g>
     </g>
    </g>
    <g id="xtick_17">
     <g id="line2d_33">
      <g>
       <use xlink:href="#m09cd9ba331" x="100.910298" y="116.206749" style="stroke: #000000; stroke-width: 0.5"/>
      </g>
     </g>
     <g id="line2d_34">
      <g>
       <use xlink:href="#m27d462e1f8" x="100.910298" y="7.059249" style="stroke: #000000; stroke-width: 0.5"/>
      </g>
     </g>
    </g>
    <g id="xtick_18">
     <g id="line2d_35">
      <g>
       <use xlink:href="#m09cd9ba331" x="105.792798" y="116.206749" style="stroke: #000000; stroke-width: 0.5"/>
      </g>
     </g>
     <g id="line2d_36">
      <g>
       <use xlink:href="#m27d462e1f8" x="105.792798" y="7.059249" style="stroke: #000000; stroke-width: 0.5"/>
      </g>
     </g>
    </g>
    <g id="xtick_19">
     <g id="line2d_37">
      <g>
       <use xlink:href="#m09cd9ba331" x="110.675298" y="116.206749" style="stroke: #000000; stroke-width: 0.5"/>
      </g>
     </g>
     <g id="line2d_38">
      <g>
       <use xlink:href="#m27d462e1f8" x="110.675298" y="7.059249" style="stroke: #000000; stroke-width: 0.5"/>
      </g>
     </g>
    </g>
    <g id="xtick_20">
     <g id="line2d_39">
      <g>
       <use xlink:href="#m09cd9ba331" x="115.557798" y="116.206749" style="stroke: #000000; stroke-width: 0.5"/>
      </g>
     </g>
     <g id="line2d_40">
      <g>
       <use xlink:href="#m27d462e1f8" x="115.557798" y="7.059249" style="stroke: #000000; stroke-width: 0.5"/>
      </g>
     </g>
    </g>
    <g id="xtick_21">
     <g id="line2d_41">
      <g>
       <use xlink:href="#m09cd9ba331" x="125.322798" y="116.206749" style="stroke: #000000; stroke-width: 0.5"/>
      </g>
     </g>
     <g id="line2d_42">
      <g>
       <use xlink:href="#m27d462e1f8" x="125.322798" y="7.059249" style="stroke: #000000; stroke-width: 0.5"/>
      </g>
     </g>
    </g>
    <g id="xtick_22">
     <g id="line2d_43">
      <g>
       <use xlink:href="#m09cd9ba331" x="130.205298" y="116.206749" style="stroke: #000000; stroke-width: 0.5"/>
      </g>
     </g>
     <g id="line2d_44">
      <g>
       <use xlink:href="#m27d462e1f8" x="130.205298" y="7.059249" style="stroke: #000000; stroke-width: 0.5"/>
      </g>
     </g>
    </g>
    <g id="xtick_23">
     <g id="line2d_45">
      <g>
       <use xlink:href="#m09cd9ba331" x="135.087798" y="116.206749" style="stroke: #000000; stroke-width: 0.5"/>
      </g>
     </g>
     <g id="line2d_46">
      <g>
       <use xlink:href="#m27d462e1f8" x="135.087798" y="7.059249" style="stroke: #000000; stroke-width: 0.5"/>
      </g>
     </g>
    </g>
    <g id="xtick_24">
     <g id="line2d_47">
      <g>
       <use xlink:href="#m09cd9ba331" x="139.970298" y="116.206749" style="stroke: #000000; stroke-width: 0.5"/>
      </g>
     </g>
     <g id="line2d_48">
      <g>
       <use xlink:href="#m27d462e1f8" x="139.970298" y="7.059249" style="stroke: #000000; stroke-width: 0.5"/>
      </g>
     </g>
    </g>
    <g id="xtick_25">
     <g id="line2d_49">
      <g>
       <use xlink:href="#m09cd9ba331" x="149.735298" y="116.206749" style="stroke: #000000; stroke-width: 0.5"/>
      </g>
     </g>
     <g id="line2d_50">
      <g>
       <use xlink:href="#m27d462e1f8" x="149.735298" y="7.059249" style="stroke: #000000; stroke-width: 0.5"/>
      </g>
     </g>
    </g>
    <g id="xtick_26">
     <g id="line2d_51">
      <g>
       <use xlink:href="#m09cd9ba331" x="154.617798" y="116.206749" style="stroke: #000000; stroke-width: 0.5"/>
      </g>
     </g>
     <g id="line2d_52">
      <g>
       <use xlink:href="#m27d462e1f8" x="154.617798" y="7.059249" style="stroke: #000000; stroke-width: 0.5"/>
      </g>
     </g>
    </g>
    <g id="xtick_27">
     <g id="line2d_53">
      <g>
       <use xlink:href="#m09cd9ba331" x="159.500298" y="116.206749" style="stroke: #000000; stroke-width: 0.5"/>
      </g>
     </g>
     <g id="line2d_54">
      <g>
       <use xlink:href="#m27d462e1f8" x="159.500298" y="7.059249" style="stroke: #000000; stroke-width: 0.5"/>
      </g>
     </g>
    </g>
    <g id="xtick_28">
     <g id="line2d_55">
      <g>
       <use xlink:href="#m09cd9ba331" x="164.382798" y="116.206749" style="stroke: #000000; stroke-width: 0.5"/>
      </g>
     </g>
     <g id="line2d_56">
      <g>
       <use xlink:href="#m27d462e1f8" x="164.382798" y="7.059249" style="stroke: #000000; stroke-width: 0.5"/>
      </g>
     </g>
    </g>
    <g id="xtick_29">
     <g id="line2d_57">
      <g>
       <use xlink:href="#m09cd9ba331" x="174.147798" y="116.206749" style="stroke: #000000; stroke-width: 0.5"/>
      </g>
     </g>
     <g id="line2d_58">
      <g>
       <use xlink:href="#m27d462e1f8" x="174.147798" y="7.059249" style="stroke: #000000; stroke-width: 0.5"/>
      </g>
     </g>
    </g>
    <g id="xtick_30">
     <g id="line2d_59">
      <g>
       <use xlink:href="#m09cd9ba331" x="179.030298" y="116.206749" style="stroke: #000000; stroke-width: 0.5"/>
      </g>
     </g>
     <g id="line2d_60">
      <g>
       <use xlink:href="#m27d462e1f8" x="179.030298" y="7.059249" style="stroke: #000000; stroke-width: 0.5"/>
      </g>
     </g>
    </g>
    <g id="text_7">
     <!-- $\kappa$ -->
     <g transform="translate(105.36402 139.480924) scale(0.1 -0.1)">
      <defs>
       <path id="CMMI12-14" d="M 1363 1600 
C 1574 1714 1811 1912 1971 2046 
C 2355 2377 2496 2479 2739 2574 
C 2714 2536 2707 2485 2707 2441 
C 2707 2268 2854 2236 2918 2236 
C 3123 2236 3238 2427 3238 2548 
C 3238 2586 3226 2752 3002 2752 
C 2618 2752 2240 2431 1958 2198 
C 1587 1876 1402 1738 1139 1656 
L 1382 2656 
C 1382 2759 1299 2816 1216 2816 
C 1158 2816 1018 2797 966 2592 
L 371 224 
C 352 148 352 134 352 96 
C 352 6 422 -64 518 -64 
C 710 -64 749 106 781 244 
C 819 380 1082 1472 1094 1472 
C 1907 1472 2182 1264 2182 943 
C 2182 897 2182 878 2163 806 
C 2138 682 2138 609 2138 570 
C 2138 178 2387 -64 2701 -64 
C 2963 -64 3110 123 3206 291 
C 3341 543 3424 898 3424 923 
C 3424 956 3398 981 3360 981 
C 3302 981 3296 956 3270 852 
C 3187 542 3046 64 2720 64 
C 2579 64 2509 148 2509 374 
C 2509 498 2534 641 2560 737 
C 2573 802 2592 880 2592 951 
C 2592 1541 1786 1600 1363 1600 
z
" transform="scale(0.015625)"/>
      </defs>
      <use xlink:href="#CMMI12-14" transform="scale(0.996264)"/>
     </g>
    </g>
   </g>
   <g id="matplotlib.axis_2">
    <g id="ytick_1">
     <g id="line2d_61">
      <path d="M 34.996548 78.731075 
L 181.471548 78.731075 
" clip-path="url(#pd69f8f5983)" style="fill: none; stroke-dasharray: 1.85,0.8; stroke-dashoffset: 0; stroke: #000000; stroke-opacity: 0.5; stroke-width: 0.5"/>
     </g>
     <g id="line2d_62">
      <defs>
       <path id="mab94e287fb" d="M 0 0 
L 3 0 
" style="stroke: #000000; stroke-width: 0.5"/>
      </defs>
      <g>
       <use xlink:href="#mab94e287fb" x="34.996548" y="78.731075" style="stroke: #000000; stroke-width: 0.5"/>
      </g>
     </g>
     <g id="line2d_63">
      <defs>
       <path id="m819b0e3269" d="M 0 0 
L -3 0 
" style="stroke: #000000; stroke-width: 0.5"/>
      </defs>
      <g>
       <use xlink:href="#m819b0e3269" x="181.471548" y="78.731075" style="stroke: #000000; stroke-width: 0.5"/>
      </g>
     </g>
     <g id="text_8">
      <!-- $\mathdefault{10^{1}}$ -->
      <g transform="translate(17.56264 82.190324) scale(0.1 -0.1)">
       <use xlink:href="#CMR17-31" transform="scale(0.996264)"/>
       <use xlink:href="#CMR17-30" transform="translate(45.690477 0) scale(0.996264)"/>
       <use xlink:href="#CMR17-31" transform="translate(91.380954 36.153639) scale(0.697382)"/>
      </g>
     </g>
    </g>
    <g id="ytick_2">
     <g id="line2d_64">
      <path d="M 34.996548 7.059249 
L 181.471548 7.059249 
" clip-path="url(#pd69f8f5983)" style="fill: none; stroke-dasharray: 1.85,0.8; stroke-dashoffset: 0; stroke: #000000; stroke-opacity: 0.5; stroke-width: 0.5"/>
     </g>
     <g id="line2d_65">
      <g>
       <use xlink:href="#mab94e287fb" x="34.996548" y="7.059249" style="stroke: #000000; stroke-width: 0.5"/>
      </g>
     </g>
     <g id="line2d_66">
      <g>
       <use xlink:href="#m819b0e3269" x="181.471548" y="7.059249" style="stroke: #000000; stroke-width: 0.5"/>
      </g>
     </g>
     <g id="text_9">
      <!-- $\mathdefault{10^{2}}$ -->
      <g transform="translate(17.56264 10.518498) scale(0.1 -0.1)">
       <use xlink:href="#CMR17-31" transform="scale(0.996264)"/>
       <use xlink:href="#CMR17-30" transform="translate(45.690477 0) scale(0.996264)"/>
       <use xlink:href="#CMR17-32" transform="translate(91.380954 36.153639) scale(0.697382)"/>
      </g>
     </g>
    </g>
    <g id="ytick_3">
     <g id="line2d_67">
      <defs>
       <path id="m911916cd14" d="M 0 0 
L 1.5 0 
" style="stroke: #000000; stroke-width: 0.5"/>
      </defs>
      <g>
       <use xlink:href="#m911916cd14" x="34.996548" y="116.206749" style="stroke: #000000; stroke-width: 0.5"/>
      </g>
     </g>
     <g id="line2d_68">
      <defs>
       <path id="mf6004932e6" d="M 0 0 
L -1.5 0 
" style="stroke: #000000; stroke-width: 0.5"/>
      </defs>
      <g>
       <use xlink:href="#mf6004932e6" x="181.471548" y="116.206749" style="stroke: #000000; stroke-width: 0.5"/>
      </g>
     </g>
    </g>
    <g id="ytick_4">
     <g id="line2d_69">
      <g>
       <use xlink:href="#m911916cd14" x="34.996548" y="107.252162" style="stroke: #000000; stroke-width: 0.5"/>
      </g>
     </g>
     <g id="line2d_70">
      <g>
       <use xlink:href="#mf6004932e6" x="181.471548" y="107.252162" style="stroke: #000000; stroke-width: 0.5"/>
      </g>
     </g>
    </g>
    <g id="ytick_5">
     <g id="line2d_71">
      <g>
       <use xlink:href="#m911916cd14" x="34.996548" y="100.306444" style="stroke: #000000; stroke-width: 0.5"/>
      </g>
     </g>
     <g id="line2d_72">
      <g>
       <use xlink:href="#mf6004932e6" x="181.471548" y="100.306444" style="stroke: #000000; stroke-width: 0.5"/>
      </g>
     </g>
    </g>
    <g id="ytick_6">
     <g id="line2d_73">
      <g>
       <use xlink:href="#m911916cd14" x="34.996548" y="94.63138" style="stroke: #000000; stroke-width: 0.5"/>
      </g>
     </g>
     <g id="line2d_74">
      <g>
       <use xlink:href="#mf6004932e6" x="181.471548" y="94.63138" style="stroke: #000000; stroke-width: 0.5"/>
      </g>
     </g>
    </g>
    <g id="ytick_7">
     <g id="line2d_75">
      <g>
       <use xlink:href="#m911916cd14" x="34.996548" y="89.833181" style="stroke: #000000; stroke-width: 0.5"/>
      </g>
     </g>
     <g id="line2d_76">
      <g>
       <use xlink:href="#mf6004932e6" x="181.471548" y="89.833181" style="stroke: #000000; stroke-width: 0.5"/>
      </g>
     </g>
    </g>
    <g id="ytick_8">
     <g id="line2d_77">
      <g>
       <use xlink:href="#m911916cd14" x="34.996548" y="85.676792" style="stroke: #000000; stroke-width: 0.5"/>
      </g>
     </g>
     <g id="line2d_78">
      <g>
       <use xlink:href="#mf6004932e6" x="181.471548" y="85.676792" style="stroke: #000000; stroke-width: 0.5"/>
      </g>
     </g>
    </g>
    <g id="ytick_9">
     <g id="line2d_79">
      <g>
       <use xlink:href="#m911916cd14" x="34.996548" y="82.010598" style="stroke: #000000; stroke-width: 0.5"/>
      </g>
     </g>
     <g id="line2d_80">
      <g>
       <use xlink:href="#mf6004932e6" x="181.471548" y="82.010598" style="stroke: #000000; stroke-width: 0.5"/>
      </g>
     </g>
    </g>
    <g id="ytick_10">
     <g id="line2d_81">
      <g>
       <use xlink:href="#m911916cd14" x="34.996548" y="57.155706" style="stroke: #000000; stroke-width: 0.5"/>
      </g>
     </g>
     <g id="line2d_82">
      <g>
       <use xlink:href="#mf6004932e6" x="181.471548" y="57.155706" style="stroke: #000000; stroke-width: 0.5"/>
      </g>
     </g>
    </g>
    <g id="ytick_11">
     <g id="line2d_83">
      <g>
       <use xlink:href="#m911916cd14" x="34.996548" y="44.534923" style="stroke: #000000; stroke-width: 0.5"/>
      </g>
     </g>
     <g id="line2d_84">
      <g>
       <use xlink:href="#mf6004932e6" x="181.471548" y="44.534923" style="stroke: #000000; stroke-width: 0.5"/>
      </g>
     </g>
    </g>
    <g id="ytick_12">
     <g id="line2d_85">
      <g>
       <use xlink:href="#m911916cd14" x="34.996548" y="35.580336" style="stroke: #000000; stroke-width: 0.5"/>
      </g>
     </g>
     <g id="line2d_86">
      <g>
       <use xlink:href="#mf6004932e6" x="181.471548" y="35.580336" style="stroke: #000000; stroke-width: 0.5"/>
      </g>
     </g>
    </g>
    <g id="ytick_13">
     <g id="line2d_87">
      <g>
       <use xlink:href="#m911916cd14" x="34.996548" y="28.634619" style="stroke: #000000; stroke-width: 0.5"/>
      </g>
     </g>
     <g id="line2d_88">
      <g>
       <use xlink:href="#mf6004932e6" x="181.471548" y="28.634619" style="stroke: #000000; stroke-width: 0.5"/>
      </g>
     </g>
    </g>
    <g id="ytick_14">
     <g id="line2d_89">
      <g>
       <use xlink:href="#m911916cd14" x="34.996548" y="22.959554" style="stroke: #000000; stroke-width: 0.5"/>
      </g>
     </g>
     <g id="line2d_90">
      <g>
       <use xlink:href="#mf6004932e6" x="181.471548" y="22.959554" style="stroke: #000000; stroke-width: 0.5"/>
      </g>
     </g>
    </g>
    <g id="ytick_15">
     <g id="line2d_91">
      <g>
       <use xlink:href="#m911916cd14" x="34.996548" y="18.161355" style="stroke: #000000; stroke-width: 0.5"/>
      </g>
     </g>
     <g id="line2d_92">
      <g>
       <use xlink:href="#mf6004932e6" x="181.471548" y="18.161355" style="stroke: #000000; stroke-width: 0.5"/>
      </g>
     </g>
    </g>
    <g id="ytick_16">
     <g id="line2d_93">
      <g>
       <use xlink:href="#m911916cd14" x="34.996548" y="14.004967" style="stroke: #000000; stroke-width: 0.5"/>
      </g>
     </g>
     <g id="line2d_94">
      <g>
       <use xlink:href="#mf6004932e6" x="181.471548" y="14.004967" style="stroke: #000000; stroke-width: 0.5"/>
      </g>
     </g>
    </g>
    <g id="ytick_17">
     <g id="line2d_95">
      <g>
       <use xlink:href="#m911916cd14" x="34.996548" y="10.338772" style="stroke: #000000; stroke-width: 0.5"/>
      </g>
     </g>
     <g id="line2d_96">
      <g>
       <use xlink:href="#mf6004932e6" x="181.471548" y="10.338772" style="stroke: #000000; stroke-width: 0.5"/>
      </g>
     </g>
    </g>
    <g id="text_10">
     <!-- $\langle\tau\rangle$ [ns] -->
     <g transform="translate(11.07198 77.408938) rotate(-90) scale(0.1 -0.1)">
      <defs>
       <path id="CMSY10-68" d="M 2099 4557 
C 2131 4627 2131 4640 2131 4672 
C 2131 4742 2074 4800 2003 4800 
C 1946 4800 1901 4768 1856 4653 
L 736 1715 
C 723 1677 704 1638 704 1600 
C 704 1581 704 1568 736 1491 
L 1856 -1446 
C 1882 -1517 1914 -1600 2003 -1600 
C 2074 -1600 2131 -1542 2131 -1472 
C 2131 -1453 2131 -1440 2099 -1370 
L 966 1600 
L 2099 4557 
z
" transform="scale(0.015625)"/>
       <path id="CMMI12-1c" d="M 1837 2408 
L 2899 2408 
C 2982 2408 3194 2408 3194 2612 
C 3194 2752 3072 2752 2957 2752 
L 1197 2752 
C 1050 2752 832 2752 538 2440 
C 371 2255 166 1917 166 1879 
C 166 1841 198 1828 237 1828 
C 282 1828 288 1847 320 1885 
C 653 2408 986 2408 1146 2408 
L 1677 2408 
L 1011 223 
C 979 127 979 114 979 95 
C 979 25 1024 -64 1152 -64 
C 1350 -64 1382 108 1402 203 
L 1837 2408 
z
" transform="scale(0.015625)"/>
       <path id="CMSY10-69" d="M 1747 1491 
C 1779 1568 1779 1581 1779 1600 
C 1779 1619 1779 1632 1747 1709 
L 627 4653 
C 589 4762 550 4800 480 4800 
C 410 4800 352 4742 352 4672 
C 352 4653 352 4640 384 4570 
L 1517 1600 
L 384 -1357 
C 352 -1427 352 -1440 352 -1472 
C 352 -1542 410 -1600 480 -1600 
C 563 -1600 589 -1536 614 -1472 
L 1747 1491 
z
" transform="scale(0.015625)"/>
       <path id="CMR17-5b" d="M 1504 -1600 
L 1504 -1377 
L 902 -1377 
L 902 4544 
L 1504 4544 
L 1504 4767 
L 678 4767 
L 678 -1600 
L 1504 -1600 
z
" transform="scale(0.015625)"/>
       <path id="CMR17-6e" d="M 2656 1933 
C 2656 2259 2592 2790 1837 2790 
C 1331 2790 1069 2400 973 2144 
L 966 2144 
L 966 2790 
L 211 2720 
L 211 2554 
C 589 2554 646 2515 646 2208 
L 646 428 
C 646 184 621 153 211 153 
L 211 -13 
C 365 0 646 0 813 0 
C 979 0 1267 0 1421 -13 
L 1421 153 
C 1011 153 986 178 986 428 
L 986 1658 
C 986 2247 1344 2688 1792 2688 
C 2266 2688 2317 2266 2317 1958 
L 2317 428 
C 2317 184 2291 153 1882 153 
L 1882 -13 
C 2035 0 2317 0 2483 0 
C 2650 0 2938 0 3091 -13 
L 3091 153 
C 2682 153 2656 178 2656 428 
L 2656 1933 
z
" transform="scale(0.015625)"/>
       <path id="CMR17-73" d="M 1978 2697 
C 1978 2813 1971 2819 1933 2819 
C 1907 2819 1901 2813 1824 2717 
C 1805 2691 1747 2626 1728 2601 
C 1523 2819 1235 2819 1126 2819 
C 416 2819 160 2447 160 2076 
C 160 1498 813 1365 998 1325 
C 1402 1243 1542 1217 1677 1101 
C 1760 1025 1901 884 1901 654 
C 1901 384 1747 38 1158 38 
C 602 38 403 460 288 1021 
C 269 1110 269 1117 218 1117 
C 166 1117 160 1110 160 983 
L 160 63 
C 160 -51 166 -58 205 -58 
C 237 -58 243 -51 275 0 
C 314 57 410 211 448 276 
C 576 103 800 -64 1158 -64 
C 1792 -64 2131 283 2131 784 
C 2131 1112 1958 1285 1875 1362 
C 1683 1561 1459 1606 1190 1657 
C 838 1735 390 1825 390 2217 
C 390 2383 480 2737 1126 2737 
C 1811 2737 1850 2094 1862 1888 
C 1869 1856 1901 1849 1920 1849 
C 1978 1849 1978 1869 1978 1978 
L 1978 2697 
z
" transform="scale(0.015625)"/>
       <path id="CMR17-5d" d="M 915 4767 
L 90 4767 
L 90 4544 
L 691 4544 
L 691 -1377 
L 90 -1377 
L 90 -1600 
L 915 -1600 
L 915 4767 
z
" transform="scale(0.015625)"/>
      </defs>
      <use xlink:href="#CMSY10-68" transform="scale(0.996264)"/>
      <use xlink:href="#CMMI12-1c" transform="translate(38.743734 0) scale(0.996264)"/>
      <use xlink:href="#CMSY10-69" transform="translate(92.234899 0) scale(0.996264)"/>
      <use xlink:href="#CMR17-5b" transform="translate(161.054599 0) scale(0.996264)"/>
      <use xlink:href="#CMR17-6e" transform="translate(185.925658 0) scale(0.996264)"/>
      <use xlink:href="#CMR17-73" transform="translate(236.821028 0) scale(0.996264)"/>
      <use xlink:href="#CMR17-5d" transform="translate(272.622365 0) scale(0.996264)"/>
     </g>
    </g>
   </g>
   <g id="PatchCollection_1">
    <path d="M 42.320298 101.532678 
L 52.085298 101.532678 
L 52.085298 99.425224 
L 42.320298 99.425224 
z
" clip-path="url(#pd69f8f5983)" style="fill: #7190af; stroke: #474747; stroke-width: 0.5"/>
    <path d="M 37.437798 99.425224 
L 56.967798 99.425224 
L 56.967798 94.294122 
L 37.437798 94.294122 
z
" clip-path="url(#pd69f8f5983)" style="fill: #51779d; stroke: #474747; stroke-width: 0.5"/>
    <path d="M 42.320298 94.294122 
L 52.085298 94.294122 
L 52.085298 92.870916 
L 42.320298 92.870916 
z
" clip-path="url(#pd69f8f5983)" style="fill: #7190af; stroke: #474747; stroke-width: 0.5"/>
   </g>
   <g id="PathCollection_1">
    <defs>
     <path id="C0_0_a91d435728" d="M 0 2.5 
C 0.663008 2.5 1.29895 2.236584 1.767767 1.767767 
C 2.236584 1.29895 2.5 0.663008 2.5 -0 
C 2.5 -0.663008 2.236584 -1.29895 1.767767 -1.767767 
C 1.29895 -2.236584 0.663008 -2.5 0 -2.5 
C -0.663008 -2.5 -1.29895 -2.236584 -1.767767 -1.767767 
C -2.236584 -1.29895 -2.5 -0.663008 -2.5 0 
C -2.5 0.663008 -2.236584 1.29895 -1.767767 1.767767 
C -1.29895 2.236584 -0.663008 2.5 0 2.5 
z
"/>
    </defs>
    <g clip-path="url(#pd69f8f5983)">
     <use xlink:href="#C0_0_a91d435728" x="47.202798" y="90.254677" style="fill: none; stroke: #737373"/>
    </g>
    <g clip-path="url(#pd69f8f5983)">
     <use xlink:href="#C0_0_a91d435728" x="47.202798" y="102.950713" style="fill: none; stroke: #737373"/>
    </g>
    <g clip-path="url(#pd69f8f5983)">
     <use xlink:href="#C0_0_a91d435728" x="47.202798" y="102.940697" style="fill: none; stroke: #737373"/>
    </g>
    <g clip-path="url(#pd69f8f5983)">
     <use xlink:href="#C0_0_a91d435728" x="47.202798" y="105.819261" style="fill: none; stroke: #737373"/>
    </g>
    <g clip-path="url(#pd69f8f5983)">
     <use xlink:href="#C0_0_a91d435728" x="47.202798" y="92.756933" style="fill: none; stroke: #737373"/>
    </g>
    <g clip-path="url(#pd69f8f5983)">
     <use xlink:href="#C0_0_a91d435728" x="47.202798" y="88.953571" style="fill: none; stroke: #737373"/>
    </g>
    <g clip-path="url(#pd69f8f5983)">
     <use xlink:href="#C0_0_a91d435728" x="47.202798" y="88.310117" style="fill: none; stroke: #737373"/>
    </g>
    <g clip-path="url(#pd69f8f5983)">
     <use xlink:href="#C0_0_a91d435728" x="47.202798" y="103.667754" style="fill: none; stroke: #737373"/>
    </g>
   </g>
   <g id="PatchCollection_2">
    <path d="M 66.732798 97.737967 
L 76.497798 97.737967 
L 76.497798 96.09501 
L 66.732798 96.09501 
z
" clip-path="url(#pd69f8f5983)" style="fill: #7190af; stroke: #474747; stroke-width: 0.5"/>
    <path d="M 61.850298 96.09501 
L 81.380298 96.09501 
L 81.380298 86.992108 
L 61.850298 86.992108 
z
" clip-path="url(#pd69f8f5983)" style="fill: #51779d; stroke: #474747; stroke-width: 0.5"/>
    <path d="M 66.732798 86.992108 
L 76.497798 86.992108 
L 76.497798 84.920013 
L 66.732798 84.920013 
z
" clip-path="url(#pd69f8f5983)" style="fill: #7190af; stroke: #474747; stroke-width: 0.5"/>
   </g>
   <g id="PathCollection_2">
    <defs>
     <path id="C1_0_81d955cf1f" d="M 0 2.5 
C 0.663008 2.5 1.29895 2.236584 1.767767 1.767767 
C 2.236584 1.29895 2.5 0.663008 2.5 -0 
C 2.5 -0.663008 2.236584 -1.29895 1.767767 -1.767767 
C 1.29895 -2.236584 0.663008 -2.5 0 -2.5 
C -0.663008 -2.5 -1.29895 -2.236584 -1.767767 -1.767767 
C -2.236584 -1.29895 -2.5 -0.663008 -2.5 0 
C -2.5 0.663008 -2.236584 1.29895 -1.767767 1.767767 
C -1.29895 2.236584 -0.663008 2.5 0 2.5 
z
"/>
    </defs>
    <g clip-path="url(#pd69f8f5983)">
     <use xlink:href="#C1_0_81d955cf1f" x="71.615298" y="99.924572" style="fill: none; stroke: #737373"/>
    </g>
    <g clip-path="url(#pd69f8f5983)">
     <use xlink:href="#C1_0_81d955cf1f" x="71.615298" y="84.91878" style="fill: none; stroke: #737373"/>
    </g>
    <g clip-path="url(#pd69f8f5983)">
     <use xlink:href="#C1_0_81d955cf1f" x="71.615298" y="67.066318" style="fill: none; stroke: #737373"/>
    </g>
    <g clip-path="url(#pd69f8f5983)">
     <use xlink:href="#C1_0_81d955cf1f" x="71.615298" y="98.629911" style="fill: none; stroke: #737373"/>
    </g>
    <g clip-path="url(#pd69f8f5983)">
     <use xlink:href="#C1_0_81d955cf1f" x="71.615298" y="68.694717" style="fill: none; stroke: #737373"/>
    </g>
    <g clip-path="url(#pd69f8f5983)">
     <use xlink:href="#C1_0_81d955cf1f" x="71.615298" y="83.747141" style="fill: none; stroke: #737373"/>
    </g>
    <g clip-path="url(#pd69f8f5983)">
     <use xlink:href="#C1_0_81d955cf1f" x="71.615298" y="98.007248" style="fill: none; stroke: #737373"/>
    </g>
    <g clip-path="url(#pd69f8f5983)">
     <use xlink:href="#C1_0_81d955cf1f" x="71.615298" y="98.580771" style="fill: none; stroke: #737373"/>
    </g>
   </g>
   <g id="PatchCollection_3">
    <path d="M 91.145298 96.250101 
L 100.910298 96.250101 
L 100.910298 90.122615 
L 91.145298 90.122615 
z
" clip-path="url(#pd69f8f5983)" style="fill: #7190af; stroke: #474747; stroke-width: 0.5"/>
    <path d="M 86.262798 90.122615 
L 105.792798 90.122615 
L 105.792798 80.707642 
L 86.262798 80.707642 
z
" clip-path="url(#pd69f8f5983)" style="fill: #51779d; stroke: #474747; stroke-width: 0.5"/>
    <path d="M 91.145298 80.707642 
L 100.910298 80.707642 
L 100.910298 77.9409 
L 91.145298 77.9409 
z
" clip-path="url(#pd69f8f5983)" style="fill: #7190af; stroke: #474747; stroke-width: 0.5"/>
   </g>
   <g id="PathCollection_3">
    <defs>
     <path id="C2_0_36850998a8" d="M 0 2.5 
C 0.663008 2.5 1.29895 2.236584 1.767767 1.767767 
C 2.236584 1.29895 2.5 0.663008 2.5 -0 
C 2.5 -0.663008 2.236584 -1.29895 1.767767 -1.767767 
C 1.29895 -2.236584 0.663008 -2.5 0 -2.5 
C -0.663008 -2.5 -1.29895 -2.236584 -1.767767 -1.767767 
C -2.236584 -1.29895 -2.5 -0.663008 -2.5 0 
C -2.5 0.663008 -2.236584 1.29895 -1.767767 1.767767 
C -1.29895 2.236584 -0.663008 2.5 0 2.5 
z
"/>
    </defs>
    <g clip-path="url(#pd69f8f5983)">
     <use xlink:href="#C2_0_36850998a8" x="96.027798" y="100.366587" style="fill: none; stroke: #737373"/>
    </g>
    <g clip-path="url(#pd69f8f5983)">
     <use xlink:href="#C2_0_36850998a8" x="96.027798" y="69.763263" style="fill: none; stroke: #737373"/>
    </g>
    <g clip-path="url(#pd69f8f5983)">
     <use xlink:href="#C2_0_36850998a8" x="96.027798" y="97.604559" style="fill: none; stroke: #737373"/>
    </g>
    <g clip-path="url(#pd69f8f5983)">
     <use xlink:href="#C2_0_36850998a8" x="96.027798" y="76.666595" style="fill: none; stroke: #737373"/>
    </g>
    <g clip-path="url(#pd69f8f5983)">
     <use xlink:href="#C2_0_36850998a8" x="96.027798" y="65.901999" style="fill: none; stroke: #737373"/>
    </g>
    <g clip-path="url(#pd69f8f5983)">
     <use xlink:href="#C2_0_36850998a8" x="96.027798" y="97.469137" style="fill: none; stroke: #737373"/>
    </g>
    <g clip-path="url(#pd69f8f5983)">
     <use xlink:href="#C2_0_36850998a8" x="96.027798" y="76.014849" style="fill: none; stroke: #737373"/>
    </g>
    <g clip-path="url(#pd69f8f5983)">
     <use xlink:href="#C2_0_36850998a8" x="96.027798" y="102.027459" style="fill: none; stroke: #737373"/>
    </g>
   </g>
   <g id="PatchCollection_4">
    <path d="M 115.557798 94.860586 
L 125.322798 94.860586 
L 125.322798 83.473519 
L 115.557798 83.473519 
z
" clip-path="url(#pd69f8f5983)" style="fill: #7190af; stroke: #474747; stroke-width: 0.5"/>
    <path d="M 110.675298 83.473519 
L 130.205298 83.473519 
L 130.205298 69.323378 
L 110.675298 69.323378 
z
" clip-path="url(#pd69f8f5983)" style="fill: #51779d; stroke: #474747; stroke-width: 0.5"/>
    <path d="M 115.557798 69.323378 
L 125.322798 69.323378 
L 125.322798 59.727415 
L 115.557798 59.727415 
z
" clip-path="url(#pd69f8f5983)" style="fill: #7190af; stroke: #474747; stroke-width: 0.5"/>
   </g>
   <g id="PathCollection_4">
    <defs>
     <path id="C3_0_3ba62d85d6" d="M 0 2.5 
C 0.663008 2.5 1.29895 2.236584 1.767767 1.767767 
C 2.236584 1.29895 2.5 0.663008 2.5 -0 
C 2.5 -0.663008 2.236584 -1.29895 1.767767 -1.767767 
C 1.29895 -2.236584 0.663008 -2.5 0 -2.5 
C -0.663008 -2.5 -1.29895 -2.236584 -1.767767 -1.767767 
C -2.236584 -1.29895 -2.5 -0.663008 -2.5 0 
C -2.5 0.663008 -2.236584 1.29895 -1.767767 1.767767 
C -1.29895 2.236584 -0.663008 2.5 0 2.5 
z
"/>
    </defs>
    <g clip-path="url(#pd69f8f5983)">
     <use xlink:href="#C3_0_3ba62d85d6" x="120.440298" y="97.847839" style="fill: none; stroke: #737373"/>
    </g>
    <g clip-path="url(#pd69f8f5983)">
     <use xlink:href="#C3_0_3ba62d85d6" x="120.440298" y="58.354717" style="fill: none; stroke: #737373"/>
    </g>
    <g clip-path="url(#pd69f8f5983)">
     <use xlink:href="#C3_0_3ba62d85d6" x="120.440298" y="59.220874" style="fill: none; stroke: #737373"/>
    </g>
    <g clip-path="url(#pd69f8f5983)">
     <use xlink:href="#C3_0_3ba62d85d6" x="120.440298" y="97.227072" style="fill: none; stroke: #737373"/>
    </g>
    <g clip-path="url(#pd69f8f5983)">
     <use xlink:href="#C3_0_3ba62d85d6" x="120.440298" y="54.695626" style="fill: none; stroke: #737373"/>
    </g>
    <g clip-path="url(#pd69f8f5983)">
     <use xlink:href="#C3_0_3ba62d85d6" x="120.440298" y="48.263578" style="fill: none; stroke: #737373"/>
    </g>
    <g clip-path="url(#pd69f8f5983)">
     <use xlink:href="#C3_0_3ba62d85d6" x="120.440298" y="95.450639" style="fill: none; stroke: #737373"/>
    </g>
    <g clip-path="url(#pd69f8f5983)">
     <use xlink:href="#C3_0_3ba62d85d6" x="120.440298" y="96.162025" style="fill: none; stroke: #737373"/>
    </g>
   </g>
   <g id="PatchCollection_5">
    <path d="M 139.970298 92.293072 
L 149.735298 92.293072 
L 149.735298 78.329459 
L 139.970298 78.329459 
z
" clip-path="url(#pd69f8f5983)" style="fill: #7190af; stroke: #474747; stroke-width: 0.5"/>
    <path d="M 135.087798 78.329459 
L 154.617798 78.329459 
L 154.617798 52.276244 
L 135.087798 52.276244 
z
" clip-path="url(#pd69f8f5983)" style="fill: #51779d; stroke: #474747; stroke-width: 0.5"/>
    <path d="M 139.970298 52.276244 
L 149.735298 52.276244 
L 149.735298 43.404761 
L 139.970298 43.404761 
z
" clip-path="url(#pd69f8f5983)" style="fill: #7190af; stroke: #474747; stroke-width: 0.5"/>
   </g>
   <g id="PathCollection_5">
    <defs>
     <path id="C4_0_114cb23196" d="M 0 2.5 
C 0.663008 2.5 1.29895 2.236584 1.767767 1.767767 
C 2.236584 1.29895 2.5 0.663008 2.5 -0 
C 2.5 -0.663008 2.236584 -1.29895 1.767767 -1.767767 
C 1.29895 -2.236584 0.663008 -2.5 0 -2.5 
C -0.663008 -2.5 -1.29895 -2.236584 -1.767767 -1.767767 
C -2.236584 -1.29895 -2.5 -0.663008 -2.5 0 
C -2.5 0.663008 -2.236584 1.29895 -1.767767 1.767767 
C -1.29895 2.236584 -0.663008 2.5 0 2.5 
z
"/>
    </defs>
    <g clip-path="url(#pd69f8f5983)">
     <use xlink:href="#C4_0_114cb23196" x="144.852798" y="93.873329" style="fill: none; stroke: #737373"/>
    </g>
    <g clip-path="url(#pd69f8f5983)">
     <use xlink:href="#C4_0_114cb23196" x="144.852798" y="92.824625" style="fill: none; stroke: #737373"/>
    </g>
    <g clip-path="url(#pd69f8f5983)">
     <use xlink:href="#C4_0_114cb23196" x="144.852798" y="41.908752" style="fill: none; stroke: #737373"/>
    </g>
    <g clip-path="url(#pd69f8f5983)">
     <use xlink:href="#C4_0_114cb23196" x="144.852798" y="43.237514" style="fill: none; stroke: #737373"/>
    </g>
    <g clip-path="url(#pd69f8f5983)">
     <use xlink:href="#C4_0_114cb23196" x="144.852798" y="94.285185" style="fill: none; stroke: #737373"/>
    </g>
    <g clip-path="url(#pd69f8f5983)">
     <use xlink:href="#C4_0_114cb23196" x="144.852798" y="43.201161" style="fill: none; stroke: #737373"/>
    </g>
    <g clip-path="url(#pd69f8f5983)">
     <use xlink:href="#C4_0_114cb23196" x="144.852798" y="29.31462" style="fill: none; stroke: #737373"/>
    </g>
    <g clip-path="url(#pd69f8f5983)">
     <use xlink:href="#C4_0_114cb23196" x="144.852798" y="92.507863" style="fill: none; stroke: #737373"/>
    </g>
   </g>
   <g id="PatchCollection_6">
    <path d="M 164.382798 90.564984 
L 174.147798 90.564984 
L 174.147798 73.333838 
L 164.382798 73.333838 
z
" clip-path="url(#pd69f8f5983)" style="fill: #7190af; stroke: #474747; stroke-width: 0.5"/>
    <path d="M 159.500298 73.333838 
L 179.030298 73.333838 
L 179.030298 45.46127 
L 159.500298 45.46127 
z
" clip-path="url(#pd69f8f5983)" style="fill: #51779d; stroke: #474747; stroke-width: 0.5"/>
    <path d="M 164.382798 45.46127 
L 174.147798 45.46127 
L 174.147798 26.717968 
L 164.382798 26.717968 
z
" clip-path="url(#pd69f8f5983)" style="fill: #7190af; stroke: #474747; stroke-width: 0.5"/>
   </g>
   <g id="PathCollection_6">
    <defs>
     <path id="C5_0_4154ec3f0b" d="M 0 2.5 
C 0.663008 2.5 1.29895 2.236584 1.767767 1.767767 
C 2.236584 1.29895 2.5 0.663008 2.5 -0 
C 2.5 -0.663008 2.236584 -1.29895 1.767767 -1.767767 
C 1.29895 -2.236584 0.663008 -2.5 0 -2.5 
C -0.663008 -2.5 -1.29895 -2.236584 -1.767767 -1.767767 
C -2.236584 -1.29895 -2.5 -0.663008 -2.5 0 
C -2.5 0.663008 -2.236584 1.29895 -1.767767 1.767767 
C -1.29895 2.236584 -0.663008 2.5 0 2.5 
z
"/>
    </defs>
    <g clip-path="url(#pd69f8f5983)">
     <use xlink:href="#C5_0_4154ec3f0b" x="169.265298" y="93.523325" style="fill: none; stroke: #737373"/>
    </g>
    <g clip-path="url(#pd69f8f5983)">
     <use xlink:href="#C5_0_4154ec3f0b" x="169.265298" y="90.747535" style="fill: none; stroke: #737373"/>
    </g>
    <g clip-path="url(#pd69f8f5983)">
     <use xlink:href="#C5_0_4154ec3f0b" x="169.265298" y="20.128044" style="fill: none; stroke: #737373"/>
    </g>
    <g clip-path="url(#pd69f8f5983)">
     <use xlink:href="#C5_0_4154ec3f0b" x="169.265298" y="20.463425" style="fill: none; stroke: #737373"/>
    </g>
    <g clip-path="url(#pd69f8f5983)">
     <use xlink:href="#C5_0_4154ec3f0b" x="169.265298" y="94.879138" style="fill: none; stroke: #737373"/>
    </g>
    <g clip-path="url(#pd69f8f5983)">
     <use xlink:href="#C5_0_4154ec3f0b" x="169.265298" y="25.010695" style="fill: none; stroke: #737373"/>
    </g>
    <g clip-path="url(#pd69f8f5983)">
     <use xlink:href="#C5_0_4154ec3f0b" x="169.265298" y="17.850915" style="fill: none; stroke: #737373"/>
    </g>
    <g clip-path="url(#pd69f8f5983)">
     <use xlink:href="#C5_0_4154ec3f0b" x="169.265298" y="90.959775" style="fill: none; stroke: #737373"/>
    </g>
   </g>
   <g id="line2d_97">
    <path d="M 37.437798 96.185153 
L 56.967798 96.185153 
" clip-path="url(#pd69f8f5983)" style="fill: none; stroke: #474747; stroke-width: 0.625"/>
   </g>
   <g id="line2d_98">
    <path d="M 61.850298 89.923592 
L 81.380298 89.923592 
" clip-path="url(#pd69f8f5983)" style="fill: none; stroke: #474747; stroke-width: 0.625"/>
   </g>
   <g id="line2d_99">
    <path d="M 86.262798 82.780879 
L 105.792798 82.780879 
" clip-path="url(#pd69f8f5983)" style="fill: none; stroke: #474747; stroke-width: 0.625"/>
   </g>
   <g id="line2d_100">
    <path d="M 110.675298 77.615637 
L 130.205298 77.615637 
" clip-path="url(#pd69f8f5983)" style="fill: none; stroke: #474747; stroke-width: 0.625"/>
   </g>
   <g id="line2d_101">
    <path d="M 135.087798 71.027379 
L 154.617798 71.027379 
" clip-path="url(#pd69f8f5983)" style="fill: none; stroke: #474747; stroke-width: 0.625"/>
   </g>
   <g id="line2d_102">
    <path d="M 159.500298 60.629619 
L 179.030298 60.629619 
" clip-path="url(#pd69f8f5983)" style="fill: none; stroke: #474747; stroke-width: 0.625"/>
   </g>
   <g id="patch_3">
    <path d="M 34.996548 116.206749 
L 34.996548 7.059249 
" style="fill: none; stroke: #000000; stroke-width: 0.5; stroke-linejoin: miter; stroke-linecap: square"/>
   </g>
   <g id="patch_4">
    <path d="M 181.471548 116.206749 
L 181.471548 7.059249 
" style="fill: none; stroke: #000000; stroke-width: 0.5; stroke-linejoin: miter; stroke-linecap: square"/>
   </g>
   <g id="patch_5">
    <path d="M 34.996548 116.206749 
L 181.471548 116.206749 
" style="fill: none; stroke: #000000; stroke-width: 0.5; stroke-linejoin: miter; stroke-linecap: square"/>
   </g>
   <g id="patch_6">
    <path d="M 34.996548 7.059249 
L 181.471548 7.059249 
" style="fill: none; stroke: #000000; stroke-width: 0.5; stroke-linejoin: miter; stroke-linecap: square"/>
   </g>
  </g>
 </g>
 <defs>
  <clipPath id="pd69f8f5983">
   <rect x="34.996548" y="7.059249" width="146.475" height="109.1475"/>
  </clipPath>
 </defs>
</svg>
