<?xml version="1.0" encoding="utf-8" standalone="no"?>
<!DOCTYPE svg PUBLIC "-//W3C//DTD SVG 1.1//EN"
  "http://www.w3.org/Graphics/SVG/1.1/DTD/svg11.dtd">
<svg xmlns:xlink="http://www.w3.org/1999/xlink" width="248.259352pt" height="184.500094pt" viewBox="0 0 248.259352 184.500094" xmlns="http://www.w3.org/2000/svg" version="1.1">
 <metadata>
  <rdf:RDF xmlns:dc="http://purl.org/dc/elements/1.1/" xmlns:cc="http://creativecommons.org/ns#" xmlns:rdf="http://www.w3.org/1999/02/22-rdf-syntax-ns#">
   <cc:Work>
    <dc:type rdf:resource="http://purl.org/dc/dcmitype/StillImage"/>
    <dc:date>2025-11-11T12:52:34.049786</dc:date>
    <dc:format>image/svg+xml</dc:format>
    <dc:creator>
     <cc:Agent>
      <dc:title>Matplotlib v3.9.2, https://matplotlib.org/</dc:title>
     </cc:Agent>
    </dc:creator>
   </cc:Work>
  </rdf:RDF>
 </metadata>
 <defs>
  <style type="text/css">*{stroke-linejoin: round; stroke-linecap: butt}</style>
 </defs>
 <g id="figure_1">
  <g id="patch_1">
   <path d="M 0 184.500094 
L 248.259352 184.500094 
L 248.259352 0 
L 0 0 
L 0 184.500094 
z
" style="fill: none"/>
  </g>
  <g id="axes_1">
   <g id="patch_2">
    <path d="M 41.887349 152.589249 
L 237.187349 152.589249 
L 237.187349 7.059249 
L 41.887349 7.059249 
L 41.887349 152.589249 
z
" style="fill: none"/>
   </g>
   <g id="matplotlib.axis_1">
    <g id="xtick_1">
     <g id="line2d_1">
      <path d="M 41.887349 152.589249 
L 41.887349 7.059249 
" clip-path="url(#pb69787fc0a)" style="fill: none; stroke-dasharray: 1.85,0.8; stroke-dashoffset: 0; stroke: #000000; stroke-opacity: 0.5; stroke-width: 0.5"/>
     </g>
     <g id="line2d_2">
      <defs>
       <path id="mad6c437661" d="M 0 0 
L 0 -3 
" style="stroke: #000000; stroke-width: 0.5"/>
      </defs>
      <g>
       <use xlink:href="#mad6c437661" x="41.887349" y="152.589249" style="stroke: #000000; stroke-width: 0.5"/>
      </g>
     </g>
     <g id="line2d_3">
      <defs>
       <path id="m8d24f353af" d="M 0 0 
L 0 3 
" style="stroke: #000000; stroke-width: 0.5"/>
      </defs>
      <g>
       <use xlink:href="#m8d24f353af" x="41.887349" y="7.059249" style="stroke: #000000; stroke-width: 0.5"/>
      </g>
     </g>
     <g id="text_1">
      <!-- $\mathdefault{0}$ -->
      <g transform="translate(39.396681 163.007748) scale(0.1 -0.1)">
       <defs>
        <path id="CMR17-30" d="M 2688 2025 
C 2688 2416 2682 3080 2413 3591 
C 2176 4039 1798 4198 1466 4198 
C 1158 4198 768 4058 525 3597 
C 269 3118 243 2524 243 2025 
C 243 1661 250 1106 448 619 
C 723 -39 1216 -128 1466 -128 
C 1760 -128 2208 -7 2470 600 
C 2662 1042 2688 1559 2688 2025 
z
M 1466 -26 
C 1056 -26 813 325 723 812 
C 653 1188 653 1738 653 2096 
C 653 2588 653 2997 736 3387 
C 858 3929 1216 4096 1466 4096 
C 1728 4096 2067 3923 2189 3400 
C 2272 3036 2278 2607 2278 2096 
C 2278 1680 2278 1169 2202 792 
C 2067 95 1690 -26 1466 -26 
z
" transform="scale(0.015625)"/>
       </defs>
       <use xlink:href="#CMR17-30" transform="scale(0.996264)"/>
      </g>
     </g>
    </g>
    <g id="xtick_2">
     <g id="line2d_4">
      <path d="M 90.712349 152.589249 
L 90.712349 7.059249 
" clip-path="url(#pb69787fc0a)" style="fill: none; stroke-dasharray: 1.85,0.8; stroke-dashoffset: 0; stroke: #000000; stroke-opacity: 0.5; stroke-width: 0.5"/>
     </g>
     <g id="line2d_5">
      <g>
       <use xlink:href="#mad6c437661" x="90.712349" y="152.589249" style="stroke: #000000; stroke-width: 0.5"/>
      </g>
     </g>
     <g id="line2d_6">
      <g>
       <use xlink:href="#m8d24f353af" x="90.712349" y="7.059249" style="stroke: #000000; stroke-width: 0.5"/>
      </g>
     </g>
     <g id="text_2">
      <!-- $\mathdefault{50}$ -->
      <g transform="translate(85.731014 163.007748) scale(0.1 -0.1)">
       <defs>
        <path id="CMR17-35" d="M 730 3692 
C 794 3666 1056 3584 1325 3584 
C 1920 3584 2246 3911 2432 4100 
C 2432 4157 2432 4192 2394 4192 
C 2387 4192 2374 4192 2323 4163 
C 2099 4058 1837 3973 1517 3973 
C 1325 3973 1037 3999 723 4139 
C 653 4171 640 4171 634 4171 
C 602 4171 595 4164 595 4037 
L 595 2203 
C 595 2089 595 2057 659 2057 
C 691 2057 704 2070 736 2114 
C 941 2401 1222 2522 1542 2522 
C 1766 2522 2246 2382 2246 1289 
C 2246 1085 2246 715 2054 421 
C 1894 159 1645 25 1370 25 
C 947 25 518 320 403 814 
C 429 807 480 795 506 795 
C 589 795 749 840 749 1038 
C 749 1210 627 1280 506 1280 
C 358 1280 262 1190 262 1011 
C 262 454 704 -128 1382 -128 
C 2042 -128 2669 440 2669 1264 
C 2669 2030 2170 2624 1549 2624 
C 1222 2624 947 2503 730 2274 
L 730 3692 
z
" transform="scale(0.015625)"/>
       </defs>
       <use xlink:href="#CMR17-35" transform="scale(0.996264)"/>
       <use xlink:href="#CMR17-30" transform="translate(45.690477 0) scale(0.996264)"/>
      </g>
     </g>
    </g>
    <g id="xtick_3">
     <g id="line2d_7">
      <path d="M 139.537349 152.589249 
L 139.537349 7.059249 
" clip-path="url(#pb69787fc0a)" style="fill: none; stroke-dasharray: 1.85,0.8; stroke-dashoffset: 0; stroke: #000000; stroke-opacity: 0.5; stroke-width: 0.5"/>
     </g>
     <g id="line2d_8">
      <g>
       <use xlink:href="#mad6c437661" x="139.537349" y="152.589249" style="stroke: #000000; stroke-width: 0.5"/>
      </g>
     </g>
     <g id="line2d_9">
      <g>
       <use xlink:href="#m8d24f353af" x="139.537349" y="7.059249" style="stroke: #000000; stroke-width: 0.5"/>
      </g>
     </g>
     <g id="text_3">
      <!-- $\mathdefault{100}$ -->
      <g transform="translate(132.065346 163.007748) scale(0.1 -0.1)">
       <defs>
        <path id="CMR17-31" d="M 1702 4058 
C 1702 4192 1696 4192 1606 4192 
C 1357 3916 979 3827 621 3827 
C 602 3827 570 3827 563 3808 
C 557 3795 557 3782 557 3648 
C 755 3648 1088 3686 1344 3839 
L 1344 461 
C 1344 236 1331 160 781 160 
L 589 160 
L 589 0 
C 896 0 1216 0 1523 0 
C 1830 0 2150 0 2458 0 
L 2458 160 
L 2266 160 
C 1715 160 1702 230 1702 458 
L 1702 4058 
z
" transform="scale(0.015625)"/>
       </defs>
       <use xlink:href="#CMR17-31" transform="scale(0.996264)"/>
       <use xlink:href="#CMR17-30" transform="translate(45.690477 0) scale(0.996264)"/>
       <use xlink:href="#CMR17-30" transform="translate(91.380954 0) scale(0.996264)"/>
      </g>
     </g>
    </g>
    <g id="xtick_4">
     <g id="line2d_10">
      <path d="M 188.362349 152.589249 
L 188.362349 7.059249 
" clip-path="url(#pb69787fc0a)" style="fill: none; stroke-dasharray: 1.85,0.8; stroke-dashoffset: 0; stroke: #000000; stroke-opacity: 0.5; stroke-width: 0.5"/>
     </g>
     <g id="line2d_11">
      <g>
       <use xlink:href="#mad6c437661" x="188.362349" y="152.589249" style="stroke: #000000; stroke-width: 0.5"/>
      </g>
     </g>
     <g id="line2d_12">
      <g>
       <use xlink:href="#m8d24f353af" x="188.362349" y="7.059249" style="stroke: #000000; stroke-width: 0.5"/>
      </g>
     </g>
     <g id="text_4">
      <!-- $\mathdefault{150}$ -->
      <g transform="translate(180.890346 163.007748) scale(0.1 -0.1)">
       <use xlink:href="#CMR17-31" transform="scale(0.996264)"/>
       <use xlink:href="#CMR17-35" transform="translate(45.690477 0) scale(0.996264)"/>
       <use xlink:href="#CMR17-30" transform="translate(91.380954 0) scale(0.996264)"/>
      </g>
     </g>
    </g>
    <g id="xtick_5">
     <g id="line2d_13">
      <path d="M 237.187349 152.589249 
L 237.187349 7.059249 
" clip-path="url(#pb69787fc0a)" style="fill: none; stroke-dasharray: 1.85,0.8; stroke-dashoffset: 0; stroke: #000000; stroke-opacity: 0.5; stroke-width: 0.5"/>
     </g>
     <g id="line2d_14">
      <g>
       <use xlink:href="#mad6c437661" x="237.187349" y="152.589249" style="stroke: #000000; stroke-width: 0.5"/>
      </g>
     </g>
     <g id="line2d_15">
      <g>
       <use xlink:href="#m8d24f353af" x="237.187349" y="7.059249" style="stroke: #000000; stroke-width: 0.5"/>
      </g>
     </g>
     <g id="text_5">
      <!-- $\mathdefault{200}$ -->
      <g transform="translate(229.715346 163.007748) scale(0.1 -0.1)">
       <defs>
        <path id="CMR17-32" d="M 2669 989 
L 2554 989 
C 2490 536 2438 459 2413 420 
C 2381 369 1920 369 1830 369 
L 602 369 
C 832 619 1280 1072 1824 1597 
C 2214 1967 2669 2402 2669 3035 
C 2669 3790 2067 4224 1395 4224 
C 691 4224 262 3604 262 3030 
C 262 2780 448 2748 525 2748 
C 589 2748 781 2787 781 3010 
C 781 3207 614 3264 525 3264 
C 486 3264 448 3258 422 3245 
C 544 3790 915 4058 1306 4058 
C 1862 4058 2227 3617 2227 3035 
C 2227 2479 1901 2000 1536 1584 
L 262 146 
L 262 0 
L 2515 0 
L 2669 989 
z
" transform="scale(0.015625)"/>
       </defs>
       <use xlink:href="#CMR17-32" transform="scale(0.996264)"/>
       <use xlink:href="#CMR17-30" transform="translate(45.690477 0) scale(0.996264)"/>
       <use xlink:href="#CMR17-30" transform="translate(91.380954 0) scale(0.996264)"/>
      </g>
     </g>
    </g>
    <g id="xtick_6">
     <g id="line2d_16">
      <defs>
       <path id="m2f676c9383" d="M 0 0 
L 0 -1.5 
" style="stroke: #000000; stroke-width: 0.5"/>
      </defs>
      <g>
       <use xlink:href="#m2f676c9383" x="51.652349" y="152.589249" style="stroke: #000000; stroke-width: 0.5"/>
      </g>
     </g>
     <g id="line2d_17">
      <defs>
       <path id="mfab5960aba" d="M 0 0 
L 0 1.5 
" style="stroke: #000000; stroke-width: 0.5"/>
      </defs>
      <g>
       <use xlink:href="#mfab5960aba" x="51.652349" y="7.059249" style="stroke: #000000; stroke-width: 0.5"/>
      </g>
     </g>
    </g>
    <g id="xtick_7">
     <g id="line2d_18">
      <g>
       <use xlink:href="#m2f676c9383" x="61.417349" y="152.589249" style="stroke: #000000; stroke-width: 0.5"/>
      </g>
     </g>
     <g id="line2d_19">
      <g>
       <use xlink:href="#mfab5960aba" x="61.417349" y="7.059249" style="stroke: #000000; stroke-width: 0.5"/>
      </g>
     </g>
    </g>
    <g id="xtick_8">
     <g id="line2d_20">
      <g>
       <use xlink:href="#m2f676c9383" x="71.182349" y="152.589249" style="stroke: #000000; stroke-width: 0.5"/>
      </g>
     </g>
     <g id="line2d_21">
      <g>
       <use xlink:href="#mfab5960aba" x="71.182349" y="7.059249" style="stroke: #000000; stroke-width: 0.5"/>
      </g>
     </g>
    </g>
    <g id="xtick_9">
     <g id="line2d_22">
      <g>
       <use xlink:href="#m2f676c9383" x="80.947349" y="152.589249" style="stroke: #000000; stroke-width: 0.5"/>
      </g>
     </g>
     <g id="line2d_23">
      <g>
       <use xlink:href="#mfab5960aba" x="80.947349" y="7.059249" style="stroke: #000000; stroke-width: 0.5"/>
      </g>
     </g>
    </g>
    <g id="xtick_10">
     <g id="line2d_24">
      <g>
       <use xlink:href="#m2f676c9383" x="100.477349" y="152.589249" style="stroke: #000000; stroke-width: 0.5"/>
      </g>
     </g>
     <g id="line2d_25">
      <g>
       <use xlink:href="#mfab5960aba" x="100.477349" y="7.059249" style="stroke: #000000; stroke-width: 0.5"/>
      </g>
     </g>
    </g>
    <g id="xtick_11">
     <g id="line2d_26">
      <g>
       <use xlink:href="#m2f676c9383" x="110.242349" y="152.589249" style="stroke: #000000; stroke-width: 0.5"/>
      </g>
     </g>
     <g id="line2d_27">
      <g>
       <use xlink:href="#mfab5960aba" x="110.242349" y="7.059249" style="stroke: #000000; stroke-width: 0.5"/>
      </g>
     </g>
    </g>
    <g id="xtick_12">
     <g id="line2d_28">
      <g>
       <use xlink:href="#m2f676c9383" x="120.007349" y="152.589249" style="stroke: #000000; stroke-width: 0.5"/>
      </g>
     </g>
     <g id="line2d_29">
      <g>
       <use xlink:href="#mfab5960aba" x="120.007349" y="7.059249" style="stroke: #000000; stroke-width: 0.5"/>
      </g>
     </g>
    </g>
    <g id="xtick_13">
     <g id="line2d_30">
      <g>
       <use xlink:href="#m2f676c9383" x="129.772349" y="152.589249" style="stroke: #000000; stroke-width: 0.5"/>
      </g>
     </g>
     <g id="line2d_31">
      <g>
       <use xlink:href="#mfab5960aba" x="129.772349" y="7.059249" style="stroke: #000000; stroke-width: 0.5"/>
      </g>
     </g>
    </g>
    <g id="xtick_14">
     <g id="line2d_32">
      <g>
       <use xlink:href="#m2f676c9383" x="149.302349" y="152.589249" style="stroke: #000000; stroke-width: 0.5"/>
      </g>
     </g>
     <g id="line2d_33">
      <g>
       <use xlink:href="#mfab5960aba" x="149.302349" y="7.059249" style="stroke: #000000; stroke-width: 0.5"/>
      </g>
     </g>
    </g>
    <g id="xtick_15">
     <g id="line2d_34">
      <g>
       <use xlink:href="#m2f676c9383" x="159.067349" y="152.589249" style="stroke: #000000; stroke-width: 0.5"/>
      </g>
     </g>
     <g id="line2d_35">
      <g>
       <use xlink:href="#mfab5960aba" x="159.067349" y="7.059249" style="stroke: #000000; stroke-width: 0.5"/>
      </g>
     </g>
    </g>
    <g id="xtick_16">
     <g id="line2d_36">
      <g>
       <use xlink:href="#m2f676c9383" x="168.832349" y="152.589249" style="stroke: #000000; stroke-width: 0.5"/>
      </g>
     </g>
     <g id="line2d_37">
      <g>
       <use xlink:href="#mfab5960aba" x="168.832349" y="7.059249" style="stroke: #000000; stroke-width: 0.5"/>
      </g>
     </g>
    </g>
    <g id="xtick_17">
     <g id="line2d_38">
      <g>
       <use xlink:href="#m2f676c9383" x="178.597349" y="152.589249" style="stroke: #000000; stroke-width: 0.5"/>
      </g>
     </g>
     <g id="line2d_39">
      <g>
       <use xlink:href="#mfab5960aba" x="178.597349" y="7.059249" style="stroke: #000000; stroke-width: 0.5"/>
      </g>
     </g>
    </g>
    <g id="xtick_18">
     <g id="line2d_40">
      <g>
       <use xlink:href="#m2f676c9383" x="198.127349" y="152.589249" style="stroke: #000000; stroke-width: 0.5"/>
      </g>
     </g>
     <g id="line2d_41">
      <g>
       <use xlink:href="#mfab5960aba" x="198.127349" y="7.059249" style="stroke: #000000; stroke-width: 0.5"/>
      </g>
     </g>
    </g>
    <g id="xtick_19">
     <g id="line2d_42">
      <g>
       <use xlink:href="#m2f676c9383" x="207.892349" y="152.589249" style="stroke: #000000; stroke-width: 0.5"/>
      </g>
     </g>
     <g id="line2d_43">
      <g>
       <use xlink:href="#mfab5960aba" x="207.892349" y="7.059249" style="stroke: #000000; stroke-width: 0.5"/>
      </g>
     </g>
    </g>
    <g id="xtick_20">
     <g id="line2d_44">
      <g>
       <use xlink:href="#m2f676c9383" x="217.657349" y="152.589249" style="stroke: #000000; stroke-width: 0.5"/>
      </g>
     </g>
     <g id="line2d_45">
      <g>
       <use xlink:href="#mfab5960aba" x="217.657349" y="7.059249" style="stroke: #000000; stroke-width: 0.5"/>
      </g>
     </g>
    </g>
    <g id="xtick_21">
     <g id="line2d_46">
      <g>
       <use xlink:href="#m2f676c9383" x="227.422349" y="152.589249" style="stroke: #000000; stroke-width: 0.5"/>
      </g>
     </g>
     <g id="line2d_47">
      <g>
       <use xlink:href="#mfab5960aba" x="227.422349" y="7.059249" style="stroke: #000000; stroke-width: 0.5"/>
      </g>
     </g>
    </g>
    <g id="text_6">
     <!-- $f_0$ [MHz] -->
     <g transform="translate(116.731377 177.911302) scale(0.12 -0.12)">
      <defs>
       <path id="CMMI12-66" d="M 2854 2566 
C 2982 2566 3034 2566 3034 2688 
C 3034 2752 2982 2752 2867 2752 
L 2349 2752 
C 2470 3429 2560 3897 2611 4107 
C 2650 4265 2784 4416 2950 4416 
C 3085 4416 3219 4358 3283 4298 
C 3034 4272 2957 4082 2957 3969 
C 2957 3837 3053 3759 3174 3759 
C 3302 3759 3494 3870 3494 4119 
C 3494 4393 3226 4544 2944 4544 
C 2669 4544 2400 4334 2272 4078 
C 2157 3848 2093 3611 1946 2752 
L 1517 2752 
C 1395 2752 1331 2752 1331 2637 
C 1331 2566 1370 2566 1498 2566 
L 1907 2566 
C 1792 1976 1530 542 1382 -137 
C 1274 -689 1178 -1152 858 -1152 
C 838 -1152 653 -1152 538 -1031 
C 864 -1005 864 -726 864 -720 
C 864 -593 768 -517 646 -517 
C 518 -517 326 -625 326 -867 
C 326 -1140 608 -1280 858 -1280 
C 1510 -1280 1779 -118 1850 199 
C 1965 688 2278 2376 2310 2566 
L 2854 2566 
z
" transform="scale(0.015625)"/>
       <path id="CMR17-5b" d="M 1504 -1600 
L 1504 -1377 
L 902 -1377 
L 902 4544 
L 1504 4544 
L 1504 4767 
L 678 4767 
L 678 -1600 
L 1504 -1600 
z
" transform="scale(0.015625)"/>
       <path id="CMR17-4d" d="M 1338 4224 
C 1299 4320 1293 4320 1158 4320 
L 339 4320 
L 339 4160 
C 781 4160 851 4160 851 3875 
L 851 610 
C 851 451 851 153 339 153 
L 339 -13 
C 486 0 755 0 915 0 
C 1075 0 1344 0 1491 -13 
L 1491 153 
C 979 153 979 451 979 610 
L 979 4135 
L 986 4135 
L 2490 89 
C 2515 25 2528 -13 2579 -13 
C 2630 -13 2643 25 2669 89 
L 4186 4166 
L 4192 4166 
L 4192 438 
C 4192 153 4122 153 3680 153 
L 3680 -13 
C 3853 0 4198 0 4384 0 
C 4570 0 4922 0 5094 -13 
L 5094 153 
C 4653 153 4582 153 4582 438 
L 4582 3875 
C 4582 4160 4653 4160 5094 4160 
L 5094 4320 
L 4282 4320 
C 4147 4320 4141 4314 4102 4218 
L 2720 502 
L 1338 4224 
z
" transform="scale(0.015625)"/>
       <path id="CMR17-48" d="M 3590 3905 
C 3590 4192 3661 4192 4102 4192 
L 4102 4352 
C 3917 4352 3578 4352 3379 4352 
C 3181 4352 2842 4352 2656 4352 
L 2656 4192 
C 3098 4192 3168 4192 3168 3904 
L 3168 2341 
L 1261 2341 
L 1261 3904 
C 1261 4192 1331 4192 1773 4192 
L 1773 4352 
C 1587 4352 1248 4352 1050 4352 
C 851 4352 512 4352 326 4352 
L 326 4192 
C 768 4192 838 4192 838 3905 
L 838 447 
C 838 160 768 160 326 160 
L 326 0 
C 512 0 851 0 1050 0 
C 1248 0 1587 0 1773 0 
L 1773 160 
C 1331 160 1261 160 1261 446 
L 1261 2176 
L 3168 2176 
L 3168 446 
C 3168 160 3098 160 2656 160 
L 2656 0 
C 2842 0 3181 0 3379 0 
C 3578 0 3917 0 4102 0 
L 4102 160 
C 3661 160 3590 160 3590 447 
L 3590 3905 
z
" transform="scale(0.015625)"/>
       <path id="CMR17-7a" d="M 2310 2605 
C 2362 2670 2362 2682 2362 2695 
C 2362 2752 2336 2752 2221 2752 
L 275 2752 
L 211 1760 
L 326 1760 
C 371 2381 442 2650 1178 2650 
L 1958 2650 
L 128 96 
C 128 0 134 0 269 0 
L 2291 0 
L 2381 1152 
L 2266 1152 
C 2214 442 2131 115 1350 115 
L 531 115 
L 2310 2605 
z
" transform="scale(0.015625)"/>
       <path id="CMR17-5d" d="M 915 4767 
L 90 4767 
L 90 4544 
L 691 4544 
L 691 -1377 
L 90 -1377 
L 90 -1600 
L 915 -1600 
L 915 4767 
z
" transform="scale(0.015625)"/>
      </defs>
      <use xlink:href="#CMMI12-66" transform="scale(0.996264)"/>
      <use xlink:href="#CMR17-30" transform="translate(48.083238 -14.943915) scale(0.697382)"/>
      <use xlink:href="#CMR17-5b" transform="translate(110.640518 0) scale(0.996264)"/>
      <use xlink:href="#CMR17-4d" transform="translate(135.511576 0) scale(0.996264)"/>
      <use xlink:href="#CMR17-48" transform="translate(220.198517 0) scale(0.996264)"/>
      <use xlink:href="#CMR17-7a" transform="translate(289.270947 0) scale(0.996264)"/>
      <use xlink:href="#CMR17-5d" transform="translate(329.756607 0) scale(0.996264)"/>
     </g>
    </g>
   </g>
   <g id="matplotlib.axis_2">
    <g id="ytick_1">
     <g id="line2d_48">
      <path d="M 41.887349 152.589249 
L 237.187349 152.589249 
" clip-path="url(#pb69787fc0a)" style="fill: none; stroke-dasharray: 1.85,0.8; stroke-dashoffset: 0; stroke: #000000; stroke-opacity: 0.5; stroke-width: 0.5"/>
     </g>
     <g id="line2d_49">
      <defs>
       <path id="m19b16237d5" d="M 0 0 
L 3 0 
" style="stroke: #000000; stroke-width: 0.5"/>
      </defs>
      <g>
       <use xlink:href="#m19b16237d5" x="41.887349" y="152.589249" style="stroke: #000000; stroke-width: 0.5"/>
      </g>
     </g>
     <g id="line2d_50">
      <defs>
       <path id="m18db5159e7" d="M 0 0 
L -3 0 
" style="stroke: #000000; stroke-width: 0.5"/>
      </defs>
      <g>
       <use xlink:href="#m18db5159e7" x="237.187349" y="152.589249" style="stroke: #000000; stroke-width: 0.5"/>
      </g>
     </g>
     <g id="text_7">
      <!-- $\mathdefault{10^{-3}}$ -->
      <g transform="translate(18.226776 156.048498) scale(0.1 -0.1)">
       <defs>
        <path id="CMSY10-0" d="M 4218 1472 
C 4326 1472 4442 1472 4442 1600 
C 4442 1728 4326 1728 4218 1728 
L 755 1728 
C 646 1728 531 1728 531 1600 
C 531 1472 646 1472 755 1472 
L 4218 1472 
z
" transform="scale(0.015625)"/>
        <path id="CMR17-33" d="M 1414 2157 
C 1984 2157 2234 1662 2234 1090 
C 2234 320 1824 25 1453 25 
C 1114 25 563 194 390 693 
C 422 680 454 680 486 680 
C 640 680 755 782 755 948 
C 755 1133 614 1216 486 1216 
C 378 1216 211 1165 211 926 
C 211 335 787 -128 1466 -128 
C 2176 -128 2720 430 2720 1085 
C 2720 1707 2208 2157 1600 2227 
C 2086 2328 2554 2756 2554 3329 
C 2554 3820 2048 4179 1472 4179 
C 890 4179 378 3829 378 3329 
C 378 3110 544 3072 627 3072 
C 762 3072 877 3155 877 3321 
C 877 3486 762 3569 627 3569 
C 602 3569 570 3569 544 3557 
C 730 3959 1235 4032 1459 4032 
C 1683 4032 2106 3925 2106 3320 
C 2106 3143 2080 2828 1862 2550 
C 1670 2304 1453 2304 1242 2284 
C 1210 2284 1062 2269 1037 2269 
C 992 2263 966 2257 966 2208 
C 966 2163 973 2157 1101 2157 
L 1414 2157 
z
" transform="scale(0.015625)"/>
       </defs>
       <use xlink:href="#CMR17-31" transform="scale(0.996264)"/>
       <use xlink:href="#CMR17-30" transform="translate(45.690477 0) scale(0.996264)"/>
       <use xlink:href="#CMSY10-0" transform="translate(91.380954 36.153639) scale(0.697382)"/>
       <use xlink:href="#CMR17-33" transform="translate(145.621947 36.153639) scale(0.697382)"/>
      </g>
     </g>
    </g>
    <g id="ytick_2">
     <g id="line2d_51">
      <path d="M 41.887349 116.206749 
L 237.187349 116.206749 
" clip-path="url(#pb69787fc0a)" style="fill: none; stroke-dasharray: 1.85,0.8; stroke-dashoffset: 0; stroke: #000000; stroke-opacity: 0.5; stroke-width: 0.5"/>
     </g>
     <g id="line2d_52">
      <g>
       <use xlink:href="#m19b16237d5" x="41.887349" y="116.206749" style="stroke: #000000; stroke-width: 0.5"/>
      </g>
     </g>
     <g id="line2d_53">
      <g>
       <use xlink:href="#m18db5159e7" x="237.187349" y="116.206749" style="stroke: #000000; stroke-width: 0.5"/>
      </g>
     </g>
     <g id="text_8">
      <!-- $\mathdefault{10^{-2}}$ -->
      <g transform="translate(18.226776 119.665998) scale(0.1 -0.1)">
       <use xlink:href="#CMR17-31" transform="scale(0.996264)"/>
       <use xlink:href="#CMR17-30" transform="translate(45.690477 0) scale(0.996264)"/>
       <use xlink:href="#CMSY10-0" transform="translate(91.380954 36.153639) scale(0.697382)"/>
       <use xlink:href="#CMR17-32" transform="translate(145.621947 36.153639) scale(0.697382)"/>
      </g>
     </g>
    </g>
    <g id="ytick_3">
     <g id="line2d_54">
      <path d="M 41.887349 79.824249 
L 237.187349 79.824249 
" clip-path="url(#pb69787fc0a)" style="fill: none; stroke-dasharray: 1.85,0.8; stroke-dashoffset: 0; stroke: #000000; stroke-opacity: 0.5; stroke-width: 0.5"/>
     </g>
     <g id="line2d_55">
      <g>
       <use xlink:href="#m19b16237d5" x="41.887349" y="79.824249" style="stroke: #000000; stroke-width: 0.5"/>
      </g>
     </g>
     <g id="line2d_56">
      <g>
       <use xlink:href="#m18db5159e7" x="237.187349" y="79.824249" style="stroke: #000000; stroke-width: 0.5"/>
      </g>
     </g>
     <g id="text_9">
      <!-- $\mathdefault{10^{-1}}$ -->
      <g transform="translate(18.226776 83.283498) scale(0.1 -0.1)">
       <use xlink:href="#CMR17-31" transform="scale(0.996264)"/>
       <use xlink:href="#CMR17-30" transform="translate(45.690477 0) scale(0.996264)"/>
       <use xlink:href="#CMSY10-0" transform="translate(91.380954 36.153639) scale(0.697382)"/>
       <use xlink:href="#CMR17-31" transform="translate(145.621947 36.153639) scale(0.697382)"/>
      </g>
     </g>
    </g>
    <g id="ytick_4">
     <g id="line2d_57">
      <path d="M 41.887349 43.441749 
L 237.187349 43.441749 
" clip-path="url(#pb69787fc0a)" style="fill: none; stroke-dasharray: 1.85,0.8; stroke-dashoffset: 0; stroke: #000000; stroke-opacity: 0.5; stroke-width: 0.5"/>
     </g>
     <g id="line2d_58">
      <g>
       <use xlink:href="#m19b16237d5" x="41.887349" y="43.441749" style="stroke: #000000; stroke-width: 0.5"/>
      </g>
     </g>
     <g id="line2d_59">
      <g>
       <use xlink:href="#m18db5159e7" x="237.187349" y="43.441749" style="stroke: #000000; stroke-width: 0.5"/>
      </g>
     </g>
     <g id="text_10">
      <!-- $\mathdefault{10^{0}}$ -->
      <g transform="translate(24.453441 46.900998) scale(0.1 -0.1)">
       <use xlink:href="#CMR17-31" transform="scale(0.996264)"/>
       <use xlink:href="#CMR17-30" transform="translate(45.690477 0) scale(0.996264)"/>
       <use xlink:href="#CMR17-30" transform="translate(91.380954 36.153639) scale(0.697382)"/>
      </g>
     </g>
    </g>
    <g id="ytick_5">
     <g id="line2d_60">
      <path d="M 41.887349 7.059249 
L 237.187349 7.059249 
" clip-path="url(#pb69787fc0a)" style="fill: none; stroke-dasharray: 1.85,0.8; stroke-dashoffset: 0; stroke: #000000; stroke-opacity: 0.5; stroke-width: 0.5"/>
     </g>
     <g id="line2d_61">
      <g>
       <use xlink:href="#m19b16237d5" x="41.887349" y="7.059249" style="stroke: #000000; stroke-width: 0.5"/>
      </g>
     </g>
     <g id="line2d_62">
      <g>
       <use xlink:href="#m18db5159e7" x="237.187349" y="7.059249" style="stroke: #000000; stroke-width: 0.5"/>
      </g>
     </g>
     <g id="text_11">
      <!-- $\mathdefault{10^{1}}$ -->
      <g transform="translate(24.453441 10.518498) scale(0.1 -0.1)">
       <use xlink:href="#CMR17-31" transform="scale(0.996264)"/>
       <use xlink:href="#CMR17-30" transform="translate(45.690477 0) scale(0.996264)"/>
       <use xlink:href="#CMR17-31" transform="translate(91.380954 36.153639) scale(0.697382)"/>
      </g>
     </g>
    </g>
    <g id="ytick_6">
     <g id="line2d_63">
      <defs>
       <path id="m4a210eb3b2" d="M 0 0 
L 1.5 0 
" style="stroke: #000000; stroke-width: 0.5"/>
      </defs>
      <g>
       <use xlink:href="#m4a210eb3b2" x="41.887349" y="141.637025" style="stroke: #000000; stroke-width: 0.5"/>
      </g>
     </g>
     <g id="line2d_64">
      <defs>
       <path id="m7ade8511bc" d="M 0 0 
L -1.5 0 
" style="stroke: #000000; stroke-width: 0.5"/>
      </defs>
      <g>
       <use xlink:href="#m7ade8511bc" x="237.187349" y="141.637025" style="stroke: #000000; stroke-width: 0.5"/>
      </g>
     </g>
    </g>
    <g id="ytick_7">
     <g id="line2d_65">
      <g>
       <use xlink:href="#m4a210eb3b2" x="41.887349" y="135.230385" style="stroke: #000000; stroke-width: 0.5"/>
      </g>
     </g>
     <g id="line2d_66">
      <g>
       <use xlink:href="#m7ade8511bc" x="237.187349" y="135.230385" style="stroke: #000000; stroke-width: 0.5"/>
      </g>
     </g>
    </g>
    <g id="ytick_8">
     <g id="line2d_67">
      <g>
       <use xlink:href="#m4a210eb3b2" x="41.887349" y="130.684802" style="stroke: #000000; stroke-width: 0.5"/>
      </g>
     </g>
     <g id="line2d_68">
      <g>
       <use xlink:href="#m7ade8511bc" x="237.187349" y="130.684802" style="stroke: #000000; stroke-width: 0.5"/>
      </g>
     </g>
    </g>
    <g id="ytick_9">
     <g id="line2d_69">
      <g>
       <use xlink:href="#m4a210eb3b2" x="41.887349" y="127.158973" style="stroke: #000000; stroke-width: 0.5"/>
      </g>
     </g>
     <g id="line2d_70">
      <g>
       <use xlink:href="#m7ade8511bc" x="237.187349" y="127.158973" style="stroke: #000000; stroke-width: 0.5"/>
      </g>
     </g>
    </g>
    <g id="ytick_10">
     <g id="line2d_71">
      <g>
       <use xlink:href="#m4a210eb3b2" x="41.887349" y="124.278161" style="stroke: #000000; stroke-width: 0.5"/>
      </g>
     </g>
     <g id="line2d_72">
      <g>
       <use xlink:href="#m7ade8511bc" x="237.187349" y="124.278161" style="stroke: #000000; stroke-width: 0.5"/>
      </g>
     </g>
    </g>
    <g id="ytick_11">
     <g id="line2d_73">
      <g>
       <use xlink:href="#m4a210eb3b2" x="41.887349" y="121.84247" style="stroke: #000000; stroke-width: 0.5"/>
      </g>
     </g>
     <g id="line2d_74">
      <g>
       <use xlink:href="#m7ade8511bc" x="237.187349" y="121.84247" style="stroke: #000000; stroke-width: 0.5"/>
      </g>
     </g>
    </g>
    <g id="ytick_12">
     <g id="line2d_75">
      <g>
       <use xlink:href="#m4a210eb3b2" x="41.887349" y="119.732578" style="stroke: #000000; stroke-width: 0.5"/>
      </g>
     </g>
     <g id="line2d_76">
      <g>
       <use xlink:href="#m7ade8511bc" x="237.187349" y="119.732578" style="stroke: #000000; stroke-width: 0.5"/>
      </g>
     </g>
    </g>
    <g id="ytick_13">
     <g id="line2d_77">
      <g>
       <use xlink:href="#m4a210eb3b2" x="41.887349" y="117.871521" style="stroke: #000000; stroke-width: 0.5"/>
      </g>
     </g>
     <g id="line2d_78">
      <g>
       <use xlink:href="#m7ade8511bc" x="237.187349" y="117.871521" style="stroke: #000000; stroke-width: 0.5"/>
      </g>
     </g>
    </g>
    <g id="ytick_14">
     <g id="line2d_79">
      <g>
       <use xlink:href="#m4a210eb3b2" x="41.887349" y="105.254525" style="stroke: #000000; stroke-width: 0.5"/>
      </g>
     </g>
     <g id="line2d_80">
      <g>
       <use xlink:href="#m7ade8511bc" x="237.187349" y="105.254525" style="stroke: #000000; stroke-width: 0.5"/>
      </g>
     </g>
    </g>
    <g id="ytick_15">
     <g id="line2d_81">
      <g>
       <use xlink:href="#m4a210eb3b2" x="41.887349" y="98.847885" style="stroke: #000000; stroke-width: 0.5"/>
      </g>
     </g>
     <g id="line2d_82">
      <g>
       <use xlink:href="#m7ade8511bc" x="237.187349" y="98.847885" style="stroke: #000000; stroke-width: 0.5"/>
      </g>
     </g>
    </g>
    <g id="ytick_16">
     <g id="line2d_83">
      <g>
       <use xlink:href="#m4a210eb3b2" x="41.887349" y="94.302302" style="stroke: #000000; stroke-width: 0.5"/>
      </g>
     </g>
     <g id="line2d_84">
      <g>
       <use xlink:href="#m7ade8511bc" x="237.187349" y="94.302302" style="stroke: #000000; stroke-width: 0.5"/>
      </g>
     </g>
    </g>
    <g id="ytick_17">
     <g id="line2d_85">
      <g>
       <use xlink:href="#m4a210eb3b2" x="41.887349" y="90.776473" style="stroke: #000000; stroke-width: 0.5"/>
      </g>
     </g>
     <g id="line2d_86">
      <g>
       <use xlink:href="#m7ade8511bc" x="237.187349" y="90.776473" style="stroke: #000000; stroke-width: 0.5"/>
      </g>
     </g>
    </g>
    <g id="ytick_18">
     <g id="line2d_87">
      <g>
       <use xlink:href="#m4a210eb3b2" x="41.887349" y="87.895661" style="stroke: #000000; stroke-width: 0.5"/>
      </g>
     </g>
     <g id="line2d_88">
      <g>
       <use xlink:href="#m7ade8511bc" x="237.187349" y="87.895661" style="stroke: #000000; stroke-width: 0.5"/>
      </g>
     </g>
    </g>
    <g id="ytick_19">
     <g id="line2d_89">
      <g>
       <use xlink:href="#m4a210eb3b2" x="41.887349" y="85.45997" style="stroke: #000000; stroke-width: 0.5"/>
      </g>
     </g>
     <g id="line2d_90">
      <g>
       <use xlink:href="#m7ade8511bc" x="237.187349" y="85.45997" style="stroke: #000000; stroke-width: 0.5"/>
      </g>
     </g>
    </g>
    <g id="ytick_20">
     <g id="line2d_91">
      <g>
       <use xlink:href="#m4a210eb3b2" x="41.887349" y="83.350078" style="stroke: #000000; stroke-width: 0.5"/>
      </g>
     </g>
     <g id="line2d_92">
      <g>
       <use xlink:href="#m7ade8511bc" x="237.187349" y="83.350078" style="stroke: #000000; stroke-width: 0.5"/>
      </g>
     </g>
    </g>
    <g id="ytick_21">
     <g id="line2d_93">
      <g>
       <use xlink:href="#m4a210eb3b2" x="41.887349" y="81.489021" style="stroke: #000000; stroke-width: 0.5"/>
      </g>
     </g>
     <g id="line2d_94">
      <g>
       <use xlink:href="#m7ade8511bc" x="237.187349" y="81.489021" style="stroke: #000000; stroke-width: 0.5"/>
      </g>
     </g>
    </g>
    <g id="ytick_22">
     <g id="line2d_95">
      <g>
       <use xlink:href="#m4a210eb3b2" x="41.887349" y="68.872025" style="stroke: #000000; stroke-width: 0.5"/>
      </g>
     </g>
     <g id="line2d_96">
      <g>
       <use xlink:href="#m7ade8511bc" x="237.187349" y="68.872025" style="stroke: #000000; stroke-width: 0.5"/>
      </g>
     </g>
    </g>
    <g id="ytick_23">
     <g id="line2d_97">
      <g>
       <use xlink:href="#m4a210eb3b2" x="41.887349" y="62.465385" style="stroke: #000000; stroke-width: 0.5"/>
      </g>
     </g>
     <g id="line2d_98">
      <g>
       <use xlink:href="#m7ade8511bc" x="237.187349" y="62.465385" style="stroke: #000000; stroke-width: 0.5"/>
      </g>
     </g>
    </g>
    <g id="ytick_24">
     <g id="line2d_99">
      <g>
       <use xlink:href="#m4a210eb3b2" x="41.887349" y="57.919802" style="stroke: #000000; stroke-width: 0.5"/>
      </g>
     </g>
     <g id="line2d_100">
      <g>
       <use xlink:href="#m7ade8511bc" x="237.187349" y="57.919802" style="stroke: #000000; stroke-width: 0.5"/>
      </g>
     </g>
    </g>
    <g id="ytick_25">
     <g id="line2d_101">
      <g>
       <use xlink:href="#m4a210eb3b2" x="41.887349" y="54.393973" style="stroke: #000000; stroke-width: 0.5"/>
      </g>
     </g>
     <g id="line2d_102">
      <g>
       <use xlink:href="#m7ade8511bc" x="237.187349" y="54.393973" style="stroke: #000000; stroke-width: 0.5"/>
      </g>
     </g>
    </g>
    <g id="ytick_26">
     <g id="line2d_103">
      <g>
       <use xlink:href="#m4a210eb3b2" x="41.887349" y="51.513161" style="stroke: #000000; stroke-width: 0.5"/>
      </g>
     </g>
     <g id="line2d_104">
      <g>
       <use xlink:href="#m7ade8511bc" x="237.187349" y="51.513161" style="stroke: #000000; stroke-width: 0.5"/>
      </g>
     </g>
    </g>
    <g id="ytick_27">
     <g id="line2d_105">
      <g>
       <use xlink:href="#m4a210eb3b2" x="41.887349" y="49.07747" style="stroke: #000000; stroke-width: 0.5"/>
      </g>
     </g>
     <g id="line2d_106">
      <g>
       <use xlink:href="#m7ade8511bc" x="237.187349" y="49.07747" style="stroke: #000000; stroke-width: 0.5"/>
      </g>
     </g>
    </g>
    <g id="ytick_28">
     <g id="line2d_107">
      <g>
       <use xlink:href="#m4a210eb3b2" x="41.887349" y="46.967578" style="stroke: #000000; stroke-width: 0.5"/>
      </g>
     </g>
     <g id="line2d_108">
      <g>
       <use xlink:href="#m7ade8511bc" x="237.187349" y="46.967578" style="stroke: #000000; stroke-width: 0.5"/>
      </g>
     </g>
    </g>
    <g id="ytick_29">
     <g id="line2d_109">
      <g>
       <use xlink:href="#m4a210eb3b2" x="41.887349" y="45.106521" style="stroke: #000000; stroke-width: 0.5"/>
      </g>
     </g>
     <g id="line2d_110">
      <g>
       <use xlink:href="#m7ade8511bc" x="237.187349" y="45.106521" style="stroke: #000000; stroke-width: 0.5"/>
      </g>
     </g>
    </g>
    <g id="ytick_30">
     <g id="line2d_111">
      <g>
       <use xlink:href="#m4a210eb3b2" x="41.887349" y="32.489525" style="stroke: #000000; stroke-width: 0.5"/>
      </g>
     </g>
     <g id="line2d_112">
      <g>
       <use xlink:href="#m7ade8511bc" x="237.187349" y="32.489525" style="stroke: #000000; stroke-width: 0.5"/>
      </g>
     </g>
    </g>
    <g id="ytick_31">
     <g id="line2d_113">
      <g>
       <use xlink:href="#m4a210eb3b2" x="41.887349" y="26.082885" style="stroke: #000000; stroke-width: 0.5"/>
      </g>
     </g>
     <g id="line2d_114">
      <g>
       <use xlink:href="#m7ade8511bc" x="237.187349" y="26.082885" style="stroke: #000000; stroke-width: 0.5"/>
      </g>
     </g>
    </g>
    <g id="ytick_32">
     <g id="line2d_115">
      <g>
       <use xlink:href="#m4a210eb3b2" x="41.887349" y="21.537302" style="stroke: #000000; stroke-width: 0.5"/>
      </g>
     </g>
     <g id="line2d_116">
      <g>
       <use xlink:href="#m7ade8511bc" x="237.187349" y="21.537302" style="stroke: #000000; stroke-width: 0.5"/>
      </g>
     </g>
    </g>
    <g id="ytick_33">
     <g id="line2d_117">
      <g>
       <use xlink:href="#m4a210eb3b2" x="41.887349" y="18.011473" style="stroke: #000000; stroke-width: 0.5"/>
      </g>
     </g>
     <g id="line2d_118">
      <g>
       <use xlink:href="#m7ade8511bc" x="237.187349" y="18.011473" style="stroke: #000000; stroke-width: 0.5"/>
      </g>
     </g>
    </g>
    <g id="ytick_34">
     <g id="line2d_119">
      <g>
       <use xlink:href="#m4a210eb3b2" x="41.887349" y="15.130661" style="stroke: #000000; stroke-width: 0.5"/>
      </g>
     </g>
     <g id="line2d_120">
      <g>
       <use xlink:href="#m7ade8511bc" x="237.187349" y="15.130661" style="stroke: #000000; stroke-width: 0.5"/>
      </g>
     </g>
    </g>
    <g id="ytick_35">
     <g id="line2d_121">
      <g>
       <use xlink:href="#m4a210eb3b2" x="41.887349" y="12.69497" style="stroke: #000000; stroke-width: 0.5"/>
      </g>
     </g>
     <g id="line2d_122">
      <g>
       <use xlink:href="#m7ade8511bc" x="237.187349" y="12.69497" style="stroke: #000000; stroke-width: 0.5"/>
      </g>
     </g>
    </g>
    <g id="ytick_36">
     <g id="line2d_123">
      <g>
       <use xlink:href="#m4a210eb3b2" x="41.887349" y="10.585078" style="stroke: #000000; stroke-width: 0.5"/>
      </g>
     </g>
     <g id="line2d_124">
      <g>
       <use xlink:href="#m7ade8511bc" x="237.187349" y="10.585078" style="stroke: #000000; stroke-width: 0.5"/>
      </g>
     </g>
    </g>
    <g id="ytick_37">
     <g id="line2d_125">
      <g>
       <use xlink:href="#m4a210eb3b2" x="41.887349" y="8.724021" style="stroke: #000000; stroke-width: 0.5"/>
      </g>
     </g>
     <g id="line2d_126">
      <g>
       <use xlink:href="#m7ade8511bc" x="237.187349" y="8.724021" style="stroke: #000000; stroke-width: 0.5"/>
      </g>
     </g>
    </g>
    <g id="text_12">
     <!-- $FFT$ -->
     <g transform="translate(11.90218 92.458367) rotate(-90) scale(0.12 -0.12)">
      <defs>
       <path id="CMMI12-46" d="M 1901 2055 
L 2515 2055 
C 3002 2055 3040 1946 3040 1761 
C 3040 1678 3027 1589 2995 1448 
C 2982 1423 2976 1391 2976 1378 
C 2976 1333 3002 1308 3046 1308 
C 3098 1308 3104 1333 3130 1435 
L 3501 2935 
C 3501 2961 3482 2999 3437 2999 
C 3379 2999 3373 2974 3347 2863 
C 3213 2376 3085 2240 2528 2240 
L 1946 2240 
L 2362 3926 
C 2419 4154 2432 4154 2694 4154 
L 3552 4154 
C 4352 4154 4467 3918 4467 3464 
C 4467 3426 4467 3285 4448 3119 
C 4442 3094 4429 3011 4429 2985 
C 4429 2934 4461 2915 4499 2915 
C 4544 2915 4570 2941 4582 3055 
L 4717 4174 
C 4717 4195 4730 4263 4730 4277 
C 4730 4352 4672 4352 4557 4352 
L 1523 4352 
C 1402 4352 1338 4352 1338 4229 
C 1338 4154 1382 4154 1491 4154 
C 1888 4154 1888 4113 1888 4050 
C 1888 4018 1882 3992 1862 3922 
L 998 473 
C 941 249 928 185 480 185 
C 358 185 294 185 294 70 
C 294 0 352 0 390 0 
C 512 0 640 0 762 0 
L 1594 0 
C 1734 0 1888 0 2029 0 
C 2086 0 2163 0 2163 115 
C 2163 185 2125 185 1984 185 
C 1478 185 1466 229 1466 324 
C 1466 356 1478 406 1491 449 
L 1901 2055 
z
" transform="scale(0.015625)"/>
       <path id="CMMI12-54" d="M 2669 3910 
C 2707 4064 2720 4121 2816 4147 
C 2867 4160 3078 4160 3213 4160 
C 3853 4160 4154 4134 4154 3634 
C 4154 3537 4128 3295 4090 3057 
L 4083 2980 
C 4083 2954 4109 2916 4147 2916 
C 4211 2916 4211 2948 4230 3050 
L 4416 4184 
C 4429 4243 4429 4256 4429 4275 
C 4429 4345 4390 4345 4262 4345 
L 762 4345 
C 614 4345 608 4339 570 4224 
L 179 3070 
C 173 3056 154 2986 154 2980 
C 154 2948 179 2916 218 2916 
C 269 2916 282 2941 307 3024 
C 576 3801 710 4160 1562 4160 
L 1990 4160 
C 2144 4160 2208 4160 2208 4089 
C 2208 4069 2208 4057 2176 3941 
L 1318 499 
C 1254 249 1242 185 563 185 
C 403 185 358 185 358 64 
C 358 0 429 0 461 0 
C 621 0 787 0 947 0 
L 1946 0 
C 2106 0 2278 0 2438 0 
C 2509 0 2573 0 2573 121 
C 2573 185 2528 185 2362 185 
C 1786 185 1786 243 1786 339 
C 1786 346 1786 391 1811 494 
L 2669 3910 
z
" transform="scale(0.015625)"/>
      </defs>
      <use xlink:href="#CMMI12-46" transform="scale(0.996264)"/>
      <use xlink:href="#CMMI12-46" transform="translate(76.696793 0) scale(0.996264)"/>
      <use xlink:href="#CMMI12-54" transform="translate(153.393585 0) scale(0.996264)"/>
     </g>
    </g>
   </g>
   <g id="line2d_127">
    <path d="M 41.887349 126.677656 
L 42.229231 117.262832 
L 42.571113 113.311397 
L 42.912994 94.524218 
L 43.254876 109.208549 
L 43.596758 95.967261 
L 43.93864 107.292899 
L 44.280522 110.884533 
L 44.622404 105.428689 
L 44.964285 97.604419 
L 45.306167 112.830155 
L 45.648049 104.2104 
L 45.989931 114.297789 
L 46.331813 97.371839 
L 46.673695 104.849494 
L 47.015577 106.772246 
L 47.357458 100.357228 
L 47.69934 156.081207 
L 48.041222 105.616425 
L 48.383104 106.005001 
L 48.724986 105.744628 
L 49.066868 108.786692 
L 49.408749 96.515254 
L 49.750631 134.76066 
L 50.092513 118.971131 
L 50.434395 112.344645 
L 50.776277 148.187775 
L 51.118159 119.896329 
L 51.46004 102.008982 
L 51.801922 130.456971 
L 52.143804 124.43803 
L 52.827568 104.404926 
L 53.16945 103.810542 
L 53.511331 105.224832 
L 54.195095 106.199407 
L 54.536977 116.801116 
L 54.878859 105.986631 
L 55.220741 141.847491 
L 55.562622 113.603615 
L 55.904504 102.499376 
L 56.246386 103.37584 
L 56.588268 113.440959 
L 57.272032 123.247111 
L 57.613914 132.506164 
L 57.955795 117.897929 
L 58.297677 120.121215 
L 58.639559 95.676441 
L 59.323323 130.428389 
L 59.665205 107.731377 
L 60.007086 103.057784 
L 60.348968 105.6527 
L 60.69085 104.830737 
L 61.032732 111.649462 
L 61.374614 105.024922 
L 61.716496 101.910833 
L 62.058377 101.047687 
L 62.400259 107.518679 
L 62.742141 105.227763 
L 63.084023 104.308011 
L 63.425905 111.149182 
L 63.767787 101.638369 
L 64.109668 101.708226 
L 64.45155 104.674849 
L 64.793432 101.738548 
L 65.135314 127.543252 
L 65.477196 104.600664 
L 65.819078 104.108384 
L 66.160959 117.766924 
L 66.502841 95.287551 
L 66.844723 106.193411 
L 67.186605 107.722607 
L 67.528487 102.963475 
L 68.896014 72.874408 
L 69.237896 15.52726 
L 69.579778 73.497519 
L 69.92166 86.881929 
L 70.263542 89.996501 
L 70.605423 96.848993 
L 70.947305 94.603393 
L 71.289187 108.555795 
L 71.631069 102.621308 
L 71.972951 106.685748 
L 72.314833 107.014399 
L 72.656714 97.883016 
L 73.340478 108.110304 
L 73.68236 106.143742 
L 74.024242 102.502004 
L 74.366124 105.195975 
L 74.708005 105.570597 
L 75.049887 105.170886 
L 75.391769 119.146117 
L 75.733651 116.536587 
L 76.075533 101.681554 
L 76.759296 122.162384 
L 77.101178 98.059515 
L 77.44306 94.963291 
L 77.784942 111.658266 
L 78.126824 105.375452 
L 78.468706 111.990598 
L 79.152469 98.684447 
L 79.836233 105.323586 
L 80.178115 103.12786 
L 80.519997 101.682854 
L 80.861878 149.480141 
L 81.20376 106.820219 
L 81.545642 111.423636 
L 81.887524 110.546412 
L 82.229406 111.231317 
L 82.571288 105.916919 
L 82.91317 102.915417 
L 83.255051 103.337793 
L 83.596933 107.429155 
L 83.938815 122.799531 
L 84.280697 104.658423 
L 84.622579 132.81167 
L 84.964461 106.778096 
L 85.306342 117.05245 
L 85.648224 119.888674 
L 85.990106 108.950436 
L 86.331988 115.303028 
L 86.67387 131.40039 
L 87.015752 112.917599 
L 87.357633 107.678241 
L 87.699515 111.884557 
L 88.041397 107.404794 
L 88.383279 104.807339 
L 88.725161 110.484443 
L 89.067043 104.304949 
L 89.408924 106.501244 
L 89.750806 110.91516 
L 90.092688 110.036959 
L 90.43457 100.305904 
L 90.776452 106.590147 
L 91.460215 131.641704 
L 92.143979 107.533049 
L 92.485861 102.862586 
L 92.827743 104.351755 
L 93.169625 123.709998 
L 93.511507 106.998641 
L 93.853388 97.540258 
L 94.537152 108.24843 
L 94.879034 118.985895 
L 95.220916 113.859173 
L 95.562798 128.357463 
L 95.904679 111.534767 
L 96.246561 101.667562 
L 96.588443 118.034048 
L 96.930325 99.261707 
L 97.272207 112.550431 
L 97.614089 104.483407 
L 97.95597 128.271569 
L 98.297852 113.861904 
L 98.639734 108.215326 
L 98.981616 126.20143 
L 99.323498 100.551255 
L 99.66538 100.864238 
L 100.349143 108.737637 
L 100.691025 111.231527 
L 101.032907 107.320378 
L 101.374789 115.519032 
L 101.716671 113.281109 
L 102.058552 128.219279 
L 102.400434 110.725473 
L 102.742316 112.699294 
L 103.084198 104.267671 
L 103.42608 111.052509 
L 103.767962 100.284925 
L 104.109843 115.327352 
L 104.451725 122.347341 
L 104.793607 111.742831 
L 105.135489 104.66538 
L 105.477371 108.163545 
L 105.819253 128.304112 
L 106.161135 111.671148 
L 106.503016 107.296593 
L 106.844898 95.390981 
L 107.18678 117.70979 
L 107.528662 109.034014 
L 107.870544 117.375217 
L 108.212426 101.731453 
L 108.554307 107.536582 
L 108.896189 105.205192 
L 109.238071 132.436459 
L 109.579953 114.382325 
L 109.921835 107.209395 
L 110.263717 97.330317 
L 110.94748 119.560698 
L 111.289362 115.343892 
L 111.631244 124.562609 
L 111.973126 110.031116 
L 112.656889 119.991855 
L 112.998771 102.342854 
L 113.340653 104.619002 
L 113.682535 103.436726 
L 114.024417 124.199377 
L 114.366299 100.254005 
L 114.70818 109.102586 
L 115.050062 105.512233 
L 115.391944 106.425792 
L 115.733826 106.161854 
L 116.075708 101.93382 
L 116.41759 108.820584 
L 116.759471 118.417681 
L 117.443235 100.333821 
L 117.785117 119.277544 
L 118.126999 123.837937 
L 118.468881 114.148736 
L 118.810763 107.914882 
L 119.152644 107.85002 
L 119.494526 105.189577 
L 119.836408 98.873587 
L 120.17829 110.763525 
L 120.520172 106.901617 
L 120.862054 95.08881 
L 121.203935 89.920796 
L 121.545817 91.133581 
L 121.887699 87.229155 
L 122.229581 90.857965 
L 123.255226 74.040876 
L 123.597108 63.862154 
L 123.93899 22.614223 
L 124.280872 64.654656 
L 124.964636 82.163316 
L 125.990281 90.509213 
L 126.332163 96.760711 
L 126.674045 98.334789 
L 127.015927 95.89256 
L 127.357808 98.031692 
L 127.69969 111.355753 
L 128.041572 101.461556 
L 128.383454 115.181064 
L 128.725336 102.651105 
L 129.067218 101.975849 
L 129.4091 107.243357 
L 129.750981 104.626249 
L 130.092863 107.856599 
L 130.434745 101.747812 
L 130.776627 123.362488 
L 131.118509 106.666127 
L 131.460391 104.804953 
L 131.802272 98.579172 
L 132.144154 118.775251 
L 132.486036 112.106852 
L 132.827918 113.300731 
L 133.1698 118.973227 
L 133.511682 101.77855 
L 133.853563 113.340885 
L 134.195445 101.227849 
L 134.537327 119.207015 
L 134.879209 104.270773 
L 135.221091 115.843657 
L 135.562973 108.810704 
L 135.904854 107.395856 
L 136.246736 118.516731 
L 136.588618 101.442357 
L 136.9305 103.940176 
L 137.272382 137.993384 
L 137.614264 117.495069 
L 137.956145 119.424873 
L 138.298027 154.655739 
L 138.639909 104.517957 
L 138.981791 120.412943 
L 139.323673 118.360454 
L 139.665555 119.263661 
L 140.007436 129.834416 
L 140.349318 118.76908 
L 140.6912 137.709509 
L 141.033082 126.628995 
L 141.374964 141.89356 
L 141.716846 112.077593 
L 142.058728 110.473168 
L 142.400609 116.1206 
L 142.742491 99.334285 
L 143.084373 102.08085 
L 143.426255 120.853127 
L 143.768137 107.800461 
L 144.110019 109.605306 
L 144.4519 119.835579 
L 144.793782 115.757791 
L 145.135664 105.907008 
L 145.477546 135.184174 
L 145.819428 110.567132 
L 146.16131 119.49348 
L 146.503191 98.020227 
L 146.845073 123.638687 
L 147.186955 107.169406 
L 147.528837 117.71547 
L 147.870719 120.696424 
L 148.212601 113.366271 
L 148.554482 113.152319 
L 148.896364 119.787818 
L 149.238246 107.764142 
L 149.580128 105.858613 
L 149.92201 109.08947 
L 150.263892 114.673168 
L 150.605773 140.55974 
L 150.947655 139.36916 
L 151.289537 109.01466 
L 151.631419 101.46676 
L 151.973301 129.483392 
L 152.315183 107.268455 
L 152.998946 130.277483 
L 153.340828 126.792227 
L 153.68271 127.520035 
L 154.024592 140.141745 
L 154.366474 113.715417 
L 154.708356 118.493791 
L 155.050237 114.346507 
L 155.392119 132.024699 
L 155.734001 137.729005 
L 156.075883 111.274702 
L 156.417765 138.661557 
L 156.759647 120.394693 
L 157.101528 140.280171 
L 157.44341 120.838217 
L 157.785292 112.607697 
L 158.127174 135.15228 
L 158.810938 113.035668 
L 159.152819 136.46271 
L 159.494701 116.150602 
L 159.836583 122.28548 
L 160.178465 109.868895 
L 160.520347 131.011463 
L 160.862229 109.697268 
L 161.20411 106.241977 
L 161.545992 107.50809 
L 161.887874 116.466932 
L 162.229756 118.046919 
L 162.571638 104.843727 
L 162.91352 128.196738 
L 163.255401 117.154119 
L 163.597283 118.411711 
L 163.939165 111.285787 
L 164.281047 114.142325 
L 164.622929 124.858845 
L 164.964811 114.73183 
L 165.648574 141.483826 
L 165.990456 108.388077 
L 166.332338 111.510145 
L 166.67422 123.830355 
L 167.016102 129.681887 
L 167.357984 121.162684 
L 167.699865 108.996202 
L 168.041747 106.499968 
L 168.383629 114.919905 
L 168.725511 113.438226 
L 169.067393 133.245315 
L 169.409275 112.185803 
L 169.751156 112.12016 
L 170.093038 105.499551 
L 170.776802 130.870147 
L 171.118684 115.49136 
L 171.460566 111.75815 
L 171.802447 121.627983 
L 172.144329 100.582164 
L 172.486211 114.711386 
L 172.828093 114.799897 
L 173.511857 105.758535 
L 173.853738 111.076612 
L 174.19562 102.976024 
L 174.537502 107.298617 
L 174.879384 137.292591 
L 175.221266 105.848688 
L 175.563148 98.578712 
L 175.905029 102.976495 
L 176.246911 104.276038 
L 176.588793 105.136579 
L 176.930675 101.953006 
L 177.272557 91.607994 
L 177.956321 82.943689 
L 178.298202 70.856827 
L 178.640084 40.062656 
L 178.981966 74.23226 
L 179.323848 86.349376 
L 179.66573 92.588515 
L 180.007612 93.883933 
L 180.691375 102.951257 
L 181.033257 103.361732 
L 181.375139 108.375867 
L 181.717021 107.982682 
L 182.058903 113.847329 
L 182.400784 113.36469 
L 182.742666 132.474185 
L 183.084548 110.115787 
L 183.42643 112.696554 
L 183.768312 108.019709 
L 184.110194 140.832086 
L 184.452075 114.377573 
L 184.793957 119.725892 
L 185.135839 127.53405 
L 185.477721 115.235235 
L 185.819603 109.56154 
L 186.503366 126.587939 
L 186.845248 112.254075 
L 187.18713 116.46571 
L 187.529012 125.483179 
L 187.870894 106.383814 
L 188.212776 127.245898 
L 188.554657 122.085797 
L 188.896539 111.651375 
L 189.238421 145.060045 
L 189.580303 111.277435 
L 189.922185 127.615547 
L 190.264067 121.185193 
L 190.605949 145.314613 
L 190.94783 122.089115 
L 191.289712 116.846305 
L 191.631594 135.26649 
L 191.973476 114.6834 
L 192.315358 114.728687 
L 192.65724 128.210918 
L 192.999121 110.651868 
L 193.341003 146.31454 
L 193.682885 133.660493 
L 194.024767 141.774206 
L 194.366649 115.307048 
L 194.708531 121.694317 
L 195.050412 119.67687 
L 195.392294 122.465619 
L 195.734176 109.453193 
L 196.076058 120.169091 
L 196.41794 120.385071 
L 196.759822 106.020316 
L 197.101703 126.407054 
L 197.443585 111.186631 
L 197.785467 125.286586 
L 198.127349 130.975608 
L 198.469231 122.232611 
L 198.811113 133.565677 
L 199.152994 133.885563 
L 199.494876 133.901329 
L 199.836758 121.941589 
L 200.17864 120.733212 
L 200.520522 130.517455 
L 200.862404 127.907354 
L 201.204285 130.833686 
L 201.546167 115.918489 
L 201.888049 121.829515 
L 202.229931 130.404124 
L 202.571813 130.069733 
L 202.913695 114.499164 
L 203.255577 136.741067 
L 203.597458 120.58264 
L 203.93934 119.571666 
L 204.281222 113.705124 
L 204.623104 140.616788 
L 204.964986 143.742564 
L 205.306868 129.696234 
L 205.648749 122.318916 
L 205.990631 129.665969 
L 206.332513 117.101173 
L 206.674395 125.231159 
L 207.016277 130.414806 
L 207.358159 123.667936 
L 207.70004 127.985257 
L 208.041922 120.222627 
L 208.383804 162.135726 
L 208.725686 139.621379 
L 209.067568 134.372002 
L 209.40945 136.856306 
L 209.751331 118.548136 
L 210.093213 152.393223 
L 210.435095 149.373766 
L 210.776977 131.70686 
L 211.118859 137.554042 
L 211.460741 119.287221 
L 211.802622 119.422518 
L 212.144504 116.345457 
L 212.486386 148.962022 
L 212.828268 116.467491 
L 213.512032 127.261117 
L 213.853914 143.657448 
L 214.195795 124.689142 
L 214.537677 129.60596 
L 214.879559 138.699711 
L 215.221441 136.5815 
L 215.563323 121.93401 
L 215.905205 147.18893 
L 216.247086 119.598863 
L 216.588968 133.54615 
L 216.93085 126.314346 
L 217.272732 115.773506 
L 217.956496 136.694093 
L 218.298377 132.310491 
L 218.640259 123.683808 
L 218.982141 140.572301 
L 219.324023 115.421376 
L 219.665905 119.886274 
L 220.007787 113.851524 
L 220.349668 132.613904 
L 220.69155 130.127297 
L 221.033432 121.590558 
L 221.375314 145.840182 
L 221.717196 127.460999 
L 222.059078 121.736353 
L 222.400959 117.956963 
L 222.742841 132.015548 
L 223.084723 133.552048 
L 223.426605 139.452514 
L 223.768487 147.385668 
L 224.110369 112.932327 
L 224.45225 130.804728 
L 225.136014 124.123882 
L 225.477896 127.944753 
L 226.16166 120.073668 
L 226.503542 119.690123 
L 226.845423 123.226739 
L 227.187305 122.938575 
L 227.871069 128.740079 
L 228.212951 123.674183 
L 228.554833 131.754117 
L 228.896714 147.709286 
L 229.238596 140.5094 
L 229.580478 120.548054 
L 229.92236 121.913352 
L 230.264242 128.658582 
L 230.606124 117.958642 
L 230.948005 119.410127 
L 231.289887 124.994346 
L 231.631769 114.591958 
L 231.973651 136.517955 
L 232.315533 106.779073 
L 232.657415 104.108558 
L 232.999296 88.669705 
L 233.341178 63.544503 
L 233.68306 94.812299 
L 234.024942 113.936444 
L 234.366824 116.634388 
L 234.708706 113.224021 
L 235.050587 111.291343 
L 235.392469 126.855677 
L 235.734351 113.594067 
L 236.076233 130.933789 
L 236.418115 122.751619 
L 236.759997 122.826416 
L 237.101878 123.41528 
L 237.44376 130.591431 
L 237.44376 130.591431 
" clip-path="url(#pb69787fc0a)" style="fill: none; stroke: #4477aa; stroke-linecap: square"/>
   </g>
   <g id="patch_3">
    <path d="M 41.887349 152.589249 
L 41.887349 7.059249 
" style="fill: none; stroke: #000000; stroke-width: 0.5; stroke-linejoin: miter; stroke-linecap: square"/>
   </g>
   <g id="patch_4">
    <path d="M 237.187349 152.589249 
L 237.187349 7.059249 
" style="fill: none; stroke: #000000; stroke-width: 0.5; stroke-linejoin: miter; stroke-linecap: square"/>
   </g>
   <g id="patch_5">
    <path d="M 41.887349 152.589249 
L 237.187349 152.589249 
" style="fill: none; stroke: #000000; stroke-width: 0.5; stroke-linejoin: miter; stroke-linecap: square"/>
   </g>
   <g id="patch_6">
    <path d="M 41.887349 7.059249 
L 237.187349 7.059249 
" style="fill: none; stroke: #000000; stroke-width: 0.5; stroke-linejoin: miter; stroke-linecap: square"/>
   </g>
  </g>
 </g>
 <defs>
  <clipPath id="pb69787fc0a">
   <rect x="41.887349" y="7.059249" width="195.3" height="145.53"/>
  </clipPath>
 </defs>
</svg>
