<?xml version="1.0" encoding="utf-8" standalone="no"?>
<!DOCTYPE svg PUBLIC "-//W3C//DTD SVG 1.1//EN"
  "http://www.w3.org/Graphics/SVG/1.1/DTD/svg11.dtd">
<svg xmlns:xlink="http://www.w3.org/1999/xlink" width="236.567091pt" height="183.171701pt" viewBox="0 0 236.567091 183.171701" xmlns="http://www.w3.org/2000/svg" version="1.1">
 <metadata>
  <rdf:RDF xmlns:dc="http://purl.org/dc/elements/1.1/" xmlns:cc="http://creativecommons.org/ns#" xmlns:rdf="http://www.w3.org/1999/02/22-rdf-syntax-ns#">
   <cc:Work>
    <dc:type rdf:resource="http://purl.org/dc/dcmitype/StillImage"/>
    <dc:date>2025-11-11T15:37:47.375337</dc:date>
    <dc:format>image/svg+xml</dc:format>
    <dc:creator>
     <cc:Agent>
      <dc:title>Matplotlib v3.9.2, https://matplotlib.org/</dc:title>
     </cc:Agent>
    </dc:creator>
   </cc:Work>
  </rdf:RDF>
 </metadata>
 <defs>
  <style type="text/css">*{stroke-linejoin: round; stroke-linecap: butt}</style>
 </defs>
 <g id="figure_1">
  <g id="patch_1">
   <path d="M 0 183.171701 
L 236.567091 183.171701 
L 236.567091 0 
L 0 0 
L 0 183.171701 
z
" style="fill: none"/>
  </g>
  <g id="axes_1">
   <g id="patch_2">
    <path d="M 37.667091 152.589249 
L 232.967091 152.589249 
L 232.967091 7.059249 
L 37.667091 7.059249 
L 37.667091 152.589249 
z
" style="fill: none"/>
   </g>
   <g id="matplotlib.axis_1">
    <g id="xtick_1">
     <g id="line2d_1">
      <path d="M 49.380819 152.589249 
L 49.380819 7.059249 
" clip-path="url(#pe9b5559c56)" style="fill: none; stroke-dasharray: 1.85,0.8; stroke-dashoffset: 0; stroke: #000000; stroke-opacity: 0.5; stroke-width: 0.5"/>
     </g>
     <g id="line2d_2">
      <defs>
       <path id="m2341163f49" d="M 0 0 
L 0 -3 
" style="stroke: #000000; stroke-width: 0.5"/>
      </defs>
      <g>
       <use xlink:href="#m2341163f49" x="49.380819" y="152.589249" style="stroke: #000000; stroke-width: 0.5"/>
      </g>
     </g>
     <g id="line2d_3">
      <defs>
       <path id="mdcdd6c7c68" d="M 0 0 
L 0 3 
" style="stroke: #000000; stroke-width: 0.5"/>
      </defs>
      <g>
       <use xlink:href="#mdcdd6c7c68" x="49.380819" y="7.059249" style="stroke: #000000; stroke-width: 0.5"/>
      </g>
     </g>
     <g id="text_1">
      <!-- $\mathdefault{10^{-2}}$ -->
      <g transform="translate(39.300532 163.007748) scale(0.1 -0.1)">
       <defs>
        <path id="CMR17-31" d="M 1702 4058 
C 1702 4192 1696 4192 1606 4192 
C 1357 3916 979 3827 621 3827 
C 602 3827 570 3827 563 3808 
C 557 3795 557 3782 557 3648 
C 755 3648 1088 3686 1344 3839 
L 1344 461 
C 1344 236 1331 160 781 160 
L 589 160 
L 589 0 
C 896 0 1216 0 1523 0 
C 1830 0 2150 0 2458 0 
L 2458 160 
L 2266 160 
C 1715 160 1702 230 1702 458 
L 1702 4058 
z
" transform="scale(0.015625)"/>
        <path id="CMR17-30" d="M 2688 2025 
C 2688 2416 2682 3080 2413 3591 
C 2176 4039 1798 4198 1466 4198 
C 1158 4198 768 4058 525 3597 
C 269 3118 243 2524 243 2025 
C 243 1661 250 1106 448 619 
C 723 -39 1216 -128 1466 -128 
C 1760 -128 2208 -7 2470 600 
C 2662 1042 2688 1559 2688 2025 
z
M 1466 -26 
C 1056 -26 813 325 723 812 
C 653 1188 653 1738 653 2096 
C 653 2588 653 2997 736 3387 
C 858 3929 1216 4096 1466 4096 
C 1728 4096 2067 3923 2189 3400 
C 2272 3036 2278 2607 2278 2096 
C 2278 1680 2278 1169 2202 792 
C 2067 95 1690 -26 1466 -26 
z
" transform="scale(0.015625)"/>
        <path id="CMSY10-0" d="M 4218 1472 
C 4326 1472 4442 1472 4442 1600 
C 4442 1728 4326 1728 4218 1728 
L 755 1728 
C 646 1728 531 1728 531 1600 
C 531 1472 646 1472 755 1472 
L 4218 1472 
z
" transform="scale(0.015625)"/>
        <path id="CMR17-32" d="M 2669 989 
L 2554 989 
C 2490 536 2438 459 2413 420 
C 2381 369 1920 369 1830 369 
L 602 369 
C 832 619 1280 1072 1824 1597 
C 2214 1967 2669 2402 2669 3035 
C 2669 3790 2067 4224 1395 4224 
C 691 4224 262 3604 262 3030 
C 262 2780 448 2748 525 2748 
C 589 2748 781 2787 781 3010 
C 781 3207 614 3264 525 3264 
C 486 3264 448 3258 422 3245 
C 544 3790 915 4058 1306 4058 
C 1862 4058 2227 3617 2227 3035 
C 2227 2479 1901 2000 1536 1584 
L 262 146 
L 262 0 
L 2515 0 
L 2669 989 
z
" transform="scale(0.015625)"/>
       </defs>
       <use xlink:href="#CMR17-31" transform="scale(0.996264)"/>
       <use xlink:href="#CMR17-30" transform="translate(45.690477 0) scale(0.996264)"/>
       <use xlink:href="#CMSY10-0" transform="translate(91.380954 36.153639) scale(0.697382)"/>
       <use xlink:href="#CMR17-32" transform="translate(145.621947 36.153639) scale(0.697382)"/>
      </g>
     </g>
    </g>
    <g id="xtick_2">
     <g id="line2d_4">
      <path d="M 146.562765 152.589249 
L 146.562765 7.059249 
" clip-path="url(#pe9b5559c56)" style="fill: none; stroke-dasharray: 1.85,0.8; stroke-dashoffset: 0; stroke: #000000; stroke-opacity: 0.5; stroke-width: 0.5"/>
     </g>
     <g id="line2d_5">
      <g>
       <use xlink:href="#m2341163f49" x="146.562765" y="152.589249" style="stroke: #000000; stroke-width: 0.5"/>
      </g>
     </g>
     <g id="line2d_6">
      <g>
       <use xlink:href="#mdcdd6c7c68" x="146.562765" y="7.059249" style="stroke: #000000; stroke-width: 0.5"/>
      </g>
     </g>
     <g id="text_2">
      <!-- $\mathdefault{10^{-1}}$ -->
      <g transform="translate(136.482479 163.007748) scale(0.1 -0.1)">
       <use xlink:href="#CMR17-31" transform="scale(0.996264)"/>
       <use xlink:href="#CMR17-30" transform="translate(45.690477 0) scale(0.996264)"/>
       <use xlink:href="#CMSY10-0" transform="translate(91.380954 36.153639) scale(0.697382)"/>
       <use xlink:href="#CMR17-31" transform="translate(145.621947 36.153639) scale(0.697382)"/>
      </g>
     </g>
    </g>
    <g id="xtick_3">
     <g id="line2d_7">
      <defs>
       <path id="m653988069e" d="M 0 0 
L 0 -1.5 
" style="stroke: #000000; stroke-width: 0.5"/>
      </defs>
      <g>
       <use xlink:href="#m653988069e" x="39.962916" y="152.589249" style="stroke: #000000; stroke-width: 0.5"/>
      </g>
     </g>
     <g id="line2d_8">
      <defs>
       <path id="m91baebe1c4" d="M 0 0 
L 0 1.5 
" style="stroke: #000000; stroke-width: 0.5"/>
      </defs>
      <g>
       <use xlink:href="#m91baebe1c4" x="39.962916" y="7.059249" style="stroke: #000000; stroke-width: 0.5"/>
      </g>
     </g>
    </g>
    <g id="xtick_4">
     <g id="line2d_9">
      <g>
       <use xlink:href="#m653988069e" x="44.934017" y="152.589249" style="stroke: #000000; stroke-width: 0.5"/>
      </g>
     </g>
     <g id="line2d_10">
      <g>
       <use xlink:href="#m91baebe1c4" x="44.934017" y="7.059249" style="stroke: #000000; stroke-width: 0.5"/>
      </g>
     </g>
    </g>
    <g id="xtick_5">
     <g id="line2d_11">
      <g>
       <use xlink:href="#m653988069e" x="78.6355" y="152.589249" style="stroke: #000000; stroke-width: 0.5"/>
      </g>
     </g>
     <g id="line2d_12">
      <g>
       <use xlink:href="#m91baebe1c4" x="78.6355" y="7.059249" style="stroke: #000000; stroke-width: 0.5"/>
      </g>
     </g>
    </g>
    <g id="xtick_6">
     <g id="line2d_13">
      <g>
       <use xlink:href="#m653988069e" x="95.748391" y="152.589249" style="stroke: #000000; stroke-width: 0.5"/>
      </g>
     </g>
     <g id="line2d_14">
      <g>
       <use xlink:href="#m91baebe1c4" x="95.748391" y="7.059249" style="stroke: #000000; stroke-width: 0.5"/>
      </g>
     </g>
    </g>
    <g id="xtick_7">
     <g id="line2d_15">
      <g>
       <use xlink:href="#m653988069e" x="107.890181" y="152.589249" style="stroke: #000000; stroke-width: 0.5"/>
      </g>
     </g>
     <g id="line2d_16">
      <g>
       <use xlink:href="#m91baebe1c4" x="107.890181" y="7.059249" style="stroke: #000000; stroke-width: 0.5"/>
      </g>
     </g>
    </g>
    <g id="xtick_8">
     <g id="line2d_17">
      <g>
       <use xlink:href="#m653988069e" x="117.308084" y="152.589249" style="stroke: #000000; stroke-width: 0.5"/>
      </g>
     </g>
     <g id="line2d_18">
      <g>
       <use xlink:href="#m91baebe1c4" x="117.308084" y="7.059249" style="stroke: #000000; stroke-width: 0.5"/>
      </g>
     </g>
    </g>
    <g id="xtick_9">
     <g id="line2d_19">
      <g>
       <use xlink:href="#m653988069e" x="125.003072" y="152.589249" style="stroke: #000000; stroke-width: 0.5"/>
      </g>
     </g>
     <g id="line2d_20">
      <g>
       <use xlink:href="#m91baebe1c4" x="125.003072" y="7.059249" style="stroke: #000000; stroke-width: 0.5"/>
      </g>
     </g>
    </g>
    <g id="xtick_10">
     <g id="line2d_21">
      <g>
       <use xlink:href="#m653988069e" x="131.509091" y="152.589249" style="stroke: #000000; stroke-width: 0.5"/>
      </g>
     </g>
     <g id="line2d_22">
      <g>
       <use xlink:href="#m91baebe1c4" x="131.509091" y="7.059249" style="stroke: #000000; stroke-width: 0.5"/>
      </g>
     </g>
    </g>
    <g id="xtick_11">
     <g id="line2d_23">
      <g>
       <use xlink:href="#m653988069e" x="137.144862" y="152.589249" style="stroke: #000000; stroke-width: 0.5"/>
      </g>
     </g>
     <g id="line2d_24">
      <g>
       <use xlink:href="#m91baebe1c4" x="137.144862" y="7.059249" style="stroke: #000000; stroke-width: 0.5"/>
      </g>
     </g>
    </g>
    <g id="xtick_12">
     <g id="line2d_25">
      <g>
       <use xlink:href="#m653988069e" x="142.115963" y="152.589249" style="stroke: #000000; stroke-width: 0.5"/>
      </g>
     </g>
     <g id="line2d_26">
      <g>
       <use xlink:href="#m91baebe1c4" x="142.115963" y="7.059249" style="stroke: #000000; stroke-width: 0.5"/>
      </g>
     </g>
    </g>
    <g id="xtick_13">
     <g id="line2d_27">
      <g>
       <use xlink:href="#m653988069e" x="175.817446" y="152.589249" style="stroke: #000000; stroke-width: 0.5"/>
      </g>
     </g>
     <g id="line2d_28">
      <g>
       <use xlink:href="#m91baebe1c4" x="175.817446" y="7.059249" style="stroke: #000000; stroke-width: 0.5"/>
      </g>
     </g>
    </g>
    <g id="xtick_14">
     <g id="line2d_29">
      <g>
       <use xlink:href="#m653988069e" x="192.930337" y="152.589249" style="stroke: #000000; stroke-width: 0.5"/>
      </g>
     </g>
     <g id="line2d_30">
      <g>
       <use xlink:href="#m91baebe1c4" x="192.930337" y="7.059249" style="stroke: #000000; stroke-width: 0.5"/>
      </g>
     </g>
    </g>
    <g id="xtick_15">
     <g id="line2d_31">
      <g>
       <use xlink:href="#m653988069e" x="205.072127" y="152.589249" style="stroke: #000000; stroke-width: 0.5"/>
      </g>
     </g>
     <g id="line2d_32">
      <g>
       <use xlink:href="#m91baebe1c4" x="205.072127" y="7.059249" style="stroke: #000000; stroke-width: 0.5"/>
      </g>
     </g>
    </g>
    <g id="xtick_16">
     <g id="line2d_33">
      <g>
       <use xlink:href="#m653988069e" x="214.490031" y="152.589249" style="stroke: #000000; stroke-width: 0.5"/>
      </g>
     </g>
     <g id="line2d_34">
      <g>
       <use xlink:href="#m91baebe1c4" x="214.490031" y="7.059249" style="stroke: #000000; stroke-width: 0.5"/>
      </g>
     </g>
    </g>
    <g id="xtick_17">
     <g id="line2d_35">
      <g>
       <use xlink:href="#m653988069e" x="222.185018" y="152.589249" style="stroke: #000000; stroke-width: 0.5"/>
      </g>
     </g>
     <g id="line2d_36">
      <g>
       <use xlink:href="#m91baebe1c4" x="222.185018" y="7.059249" style="stroke: #000000; stroke-width: 0.5"/>
      </g>
     </g>
    </g>
    <g id="xtick_18">
     <g id="line2d_37">
      <g>
       <use xlink:href="#m653988069e" x="228.691037" y="152.589249" style="stroke: #000000; stroke-width: 0.5"/>
      </g>
     </g>
     <g id="line2d_38">
      <g>
       <use xlink:href="#m91baebe1c4" x="228.691037" y="7.059249" style="stroke: #000000; stroke-width: 0.5"/>
      </g>
     </g>
    </g>
    <g id="text_3">
     <!-- $THD$ -->
     <g transform="translate(120.902715 177.247106) scale(0.12 -0.12)">
      <defs>
       <path id="CMMI12-54" d="M 2669 3910 
C 2707 4064 2720 4121 2816 4147 
C 2867 4160 3078 4160 3213 4160 
C 3853 4160 4154 4134 4154 3634 
C 4154 3537 4128 3295 4090 3057 
L 4083 2980 
C 4083 2954 4109 2916 4147 2916 
C 4211 2916 4211 2948 4230 3050 
L 4416 4184 
C 4429 4243 4429 4256 4429 4275 
C 4429 4345 4390 4345 4262 4345 
L 762 4345 
C 614 4345 608 4339 570 4224 
L 179 3070 
C 173 3056 154 2986 154 2980 
C 154 2948 179 2916 218 2916 
C 269 2916 282 2941 307 3024 
C 576 3801 710 4160 1562 4160 
L 1990 4160 
C 2144 4160 2208 4160 2208 4089 
C 2208 4069 2208 4057 2176 3941 
L 1318 499 
C 1254 249 1242 185 563 185 
C 403 185 358 185 358 64 
C 358 0 429 0 461 0 
C 621 0 787 0 947 0 
L 1946 0 
C 2106 0 2278 0 2438 0 
C 2509 0 2573 0 2573 121 
C 2573 185 2528 185 2362 185 
C 1786 185 1786 243 1786 339 
C 1786 346 1786 391 1811 494 
L 2669 3910 
z
" transform="scale(0.015625)"/>
       <path id="CMMI12-48" d="M 4787 3887 
C 4845 4103 4858 4167 5312 4167 
C 5427 4167 5491 4167 5491 4282 
C 5491 4352 5434 4352 5395 4352 
C 5280 4352 5146 4352 5024 4352 
L 4269 4352 
C 4147 4352 4013 4352 3891 4352 
C 3846 4352 3770 4352 3770 4231 
C 3770 4167 3814 4167 3936 4167 
C 4320 4167 4320 4116 4320 4046 
C 4320 4034 4320 3995 4294 3900 
L 3904 2361 
L 1971 2361 
L 2355 3887 
C 2413 4103 2426 4167 2880 4167 
C 2995 4167 3059 4167 3059 4282 
C 3059 4352 3002 4352 2963 4352 
C 2848 4352 2714 4352 2592 4352 
L 1837 4352 
C 1715 4352 1581 4352 1459 4352 
C 1414 4352 1338 4352 1338 4231 
C 1338 4167 1382 4167 1504 4167 
C 1888 4167 1888 4116 1888 4046 
C 1888 4034 1888 3995 1862 3899 
L 998 472 
C 941 249 928 185 486 185 
C 339 185 294 185 294 64 
C 294 0 365 0 384 0 
C 499 0 634 0 755 0 
L 1510 0 
C 1632 0 1766 0 1888 0 
C 1939 0 2010 0 2010 121 
C 2010 185 1952 185 1856 185 
C 1466 185 1466 236 1466 300 
C 1466 307 1466 351 1478 402 
L 1920 2176 
L 3859 2176 
C 3750 1753 3424 416 3411 376 
C 3341 185 3238 185 2861 185 
C 2784 185 2726 185 2726 64 
C 2726 0 2797 0 2816 0 
C 2931 0 3066 0 3187 0 
L 3942 0 
C 4064 0 4198 0 4320 0 
C 4371 0 4442 0 4442 121 
C 4442 185 4384 185 4288 185 
C 3898 185 3898 236 3898 300 
C 3898 307 3898 351 3910 402 
L 4787 3887 
z
" transform="scale(0.015625)"/>
       <path id="CMMI12-44" d="M 1005 472 
C 947 249 934 185 486 185 
C 365 185 301 185 301 70 
C 301 0 339 0 467 0 
L 2496 0 
C 3789 0 5050 1332 5050 2753 
C 5050 3671 4499 4352 3584 4352 
L 1530 4352 
C 1408 4352 1350 4352 1350 4231 
C 1350 4167 1408 4167 1504 4167 
C 1894 4167 1894 4116 1894 4046 
C 1894 4034 1894 3995 1869 3899 
L 1005 472 
z
M 2355 3931 
C 2413 4167 2438 4167 2688 4167 
L 3392 4167 
C 3994 4167 4544 3842 4544 2963 
C 4544 2644 4416 1536 3795 835 
C 3616 625 3130 185 2394 185 
L 1664 185 
C 1574 185 1562 185 1523 192 
C 1453 198 1446 211 1446 262 
C 1446 307 1459 345 1472 402 
L 2355 3931 
z
" transform="scale(0.015625)"/>
      </defs>
      <use xlink:href="#CMMI12-54" transform="scale(0.996264)"/>
      <use xlink:href="#CMMI12-48" transform="translate(70.723632 0) scale(0.996264)"/>
      <use xlink:href="#CMMI12-44" transform="translate(159.245405 0) scale(0.996264)"/>
     </g>
    </g>
   </g>
   <g id="matplotlib.axis_2">
    <g id="ytick_1">
     <g id="line2d_39">
      <path d="M 37.667091 152.589249 
L 232.967091 152.589249 
" clip-path="url(#pe9b5559c56)" style="fill: none; stroke-dasharray: 1.85,0.8; stroke-dashoffset: 0; stroke: #000000; stroke-opacity: 0.5; stroke-width: 0.5"/>
     </g>
     <g id="line2d_40">
      <defs>
       <path id="mf3c037c3ed" d="M 0 0 
L 3 0 
" style="stroke: #000000; stroke-width: 0.5"/>
      </defs>
      <g>
       <use xlink:href="#mf3c037c3ed" x="37.667091" y="152.589249" style="stroke: #000000; stroke-width: 0.5"/>
      </g>
     </g>
     <g id="line2d_41">
      <defs>
       <path id="m6a87c8ab72" d="M 0 0 
L -3 0 
" style="stroke: #000000; stroke-width: 0.5"/>
      </defs>
      <g>
       <use xlink:href="#m6a87c8ab72" x="232.967091" y="152.589249" style="stroke: #000000; stroke-width: 0.5"/>
      </g>
     </g>
     <g id="text_4">
      <!-- $\mathdefault{0.00}$ -->
      <g transform="translate(16.455677 156.048498) scale(0.1 -0.1)">
       <defs>
        <path id="CMMI12-3a" d="M 1178 307 
C 1178 492 1024 619 870 619 
C 685 619 557 466 557 313 
C 557 128 710 0 864 0 
C 1050 0 1178 153 1178 307 
z
" transform="scale(0.015625)"/>
       </defs>
       <use xlink:href="#CMR17-30" transform="scale(0.996264)"/>
       <use xlink:href="#CMMI12-3a" transform="translate(45.690477 0) scale(0.996264)"/>
       <use xlink:href="#CMR17-30" transform="translate(72.787654 0) scale(0.996264)"/>
       <use xlink:href="#CMR17-30" transform="translate(118.478131 0) scale(0.996264)"/>
      </g>
     </g>
    </g>
    <g id="ytick_2">
     <g id="line2d_42">
      <path d="M 37.667091 128.334249 
L 232.967091 128.334249 
" clip-path="url(#pe9b5559c56)" style="fill: none; stroke-dasharray: 1.85,0.8; stroke-dashoffset: 0; stroke: #000000; stroke-opacity: 0.5; stroke-width: 0.5"/>
     </g>
     <g id="line2d_43">
      <g>
       <use xlink:href="#mf3c037c3ed" x="37.667091" y="128.334249" style="stroke: #000000; stroke-width: 0.5"/>
      </g>
     </g>
     <g id="line2d_44">
      <g>
       <use xlink:href="#m6a87c8ab72" x="232.967091" y="128.334249" style="stroke: #000000; stroke-width: 0.5"/>
      </g>
     </g>
     <g id="text_5">
      <!-- $\mathdefault{0.25}$ -->
      <g transform="translate(16.455677 131.793498) scale(0.1 -0.1)">
       <defs>
        <path id="CMR17-35" d="M 730 3692 
C 794 3666 1056 3584 1325 3584 
C 1920 3584 2246 3911 2432 4100 
C 2432 4157 2432 4192 2394 4192 
C 2387 4192 2374 4192 2323 4163 
C 2099 4058 1837 3973 1517 3973 
C 1325 3973 1037 3999 723 4139 
C 653 4171 640 4171 634 4171 
C 602 4171 595 4164 595 4037 
L 595 2203 
C 595 2089 595 2057 659 2057 
C 691 2057 704 2070 736 2114 
C 941 2401 1222 2522 1542 2522 
C 1766 2522 2246 2382 2246 1289 
C 2246 1085 2246 715 2054 421 
C 1894 159 1645 25 1370 25 
C 947 25 518 320 403 814 
C 429 807 480 795 506 795 
C 589 795 749 840 749 1038 
C 749 1210 627 1280 506 1280 
C 358 1280 262 1190 262 1011 
C 262 454 704 -128 1382 -128 
C 2042 -128 2669 440 2669 1264 
C 2669 2030 2170 2624 1549 2624 
C 1222 2624 947 2503 730 2274 
L 730 3692 
z
" transform="scale(0.015625)"/>
       </defs>
       <use xlink:href="#CMR17-30" transform="scale(0.996264)"/>
       <use xlink:href="#CMMI12-3a" transform="translate(45.690477 0) scale(0.996264)"/>
       <use xlink:href="#CMR17-32" transform="translate(72.787654 0) scale(0.996264)"/>
       <use xlink:href="#CMR17-35" transform="translate(118.478131 0) scale(0.996264)"/>
      </g>
     </g>
    </g>
    <g id="ytick_3">
     <g id="line2d_45">
      <path d="M 37.667091 104.079249 
L 232.967091 104.079249 
" clip-path="url(#pe9b5559c56)" style="fill: none; stroke-dasharray: 1.85,0.8; stroke-dashoffset: 0; stroke: #000000; stroke-opacity: 0.5; stroke-width: 0.5"/>
     </g>
     <g id="line2d_46">
      <g>
       <use xlink:href="#mf3c037c3ed" x="37.667091" y="104.079249" style="stroke: #000000; stroke-width: 0.5"/>
      </g>
     </g>
     <g id="line2d_47">
      <g>
       <use xlink:href="#m6a87c8ab72" x="232.967091" y="104.079249" style="stroke: #000000; stroke-width: 0.5"/>
      </g>
     </g>
     <g id="text_6">
      <!-- $\mathdefault{0.50}$ -->
      <g transform="translate(16.455677 107.538498) scale(0.1 -0.1)">
       <use xlink:href="#CMR17-30" transform="scale(0.996264)"/>
       <use xlink:href="#CMMI12-3a" transform="translate(45.690477 0) scale(0.996264)"/>
       <use xlink:href="#CMR17-35" transform="translate(72.787654 0) scale(0.996264)"/>
       <use xlink:href="#CMR17-30" transform="translate(118.478131 0) scale(0.996264)"/>
      </g>
     </g>
    </g>
    <g id="ytick_4">
     <g id="line2d_48">
      <path d="M 37.667091 79.824249 
L 232.967091 79.824249 
" clip-path="url(#pe9b5559c56)" style="fill: none; stroke-dasharray: 1.85,0.8; stroke-dashoffset: 0; stroke: #000000; stroke-opacity: 0.5; stroke-width: 0.5"/>
     </g>
     <g id="line2d_49">
      <g>
       <use xlink:href="#mf3c037c3ed" x="37.667091" y="79.824249" style="stroke: #000000; stroke-width: 0.5"/>
      </g>
     </g>
     <g id="line2d_50">
      <g>
       <use xlink:href="#m6a87c8ab72" x="232.967091" y="79.824249" style="stroke: #000000; stroke-width: 0.5"/>
      </g>
     </g>
     <g id="text_7">
      <!-- $\mathdefault{0.75}$ -->
      <g transform="translate(16.455677 83.283498) scale(0.1 -0.1)">
       <defs>
        <path id="CMR17-37" d="M 2886 3941 
L 2886 4081 
L 1382 4081 
C 634 4081 621 4165 595 4288 
L 480 4288 
L 294 3094 
L 410 3094 
C 429 3215 474 3540 550 3661 
C 589 3712 1062 3712 1171 3712 
L 2579 3712 
L 1869 2661 
C 1395 1954 1069 999 1069 165 
C 1069 89 1069 -128 1299 -128 
C 1530 -128 1530 89 1530 171 
L 1530 465 
C 1530 1508 1709 2196 2003 2636 
L 2886 3941 
z
" transform="scale(0.015625)"/>
       </defs>
       <use xlink:href="#CMR17-30" transform="scale(0.996264)"/>
       <use xlink:href="#CMMI12-3a" transform="translate(45.690477 0) scale(0.996264)"/>
       <use xlink:href="#CMR17-37" transform="translate(72.787654 0) scale(0.996264)"/>
       <use xlink:href="#CMR17-35" transform="translate(118.478131 0) scale(0.996264)"/>
      </g>
     </g>
    </g>
    <g id="ytick_5">
     <g id="line2d_51">
      <path d="M 37.667091 55.569249 
L 232.967091 55.569249 
" clip-path="url(#pe9b5559c56)" style="fill: none; stroke-dasharray: 1.85,0.8; stroke-dashoffset: 0; stroke: #000000; stroke-opacity: 0.5; stroke-width: 0.5"/>
     </g>
     <g id="line2d_52">
      <g>
       <use xlink:href="#mf3c037c3ed" x="37.667091" y="55.569249" style="stroke: #000000; stroke-width: 0.5"/>
      </g>
     </g>
     <g id="line2d_53">
      <g>
       <use xlink:href="#m6a87c8ab72" x="232.967091" y="55.569249" style="stroke: #000000; stroke-width: 0.5"/>
      </g>
     </g>
     <g id="text_8">
      <!-- $\mathdefault{1.00}$ -->
      <g transform="translate(16.455677 59.028498) scale(0.1 -0.1)">
       <use xlink:href="#CMR17-31" transform="scale(0.996264)"/>
       <use xlink:href="#CMMI12-3a" transform="translate(45.690477 0) scale(0.996264)"/>
       <use xlink:href="#CMR17-30" transform="translate(72.787654 0) scale(0.996264)"/>
       <use xlink:href="#CMR17-30" transform="translate(118.478131 0) scale(0.996264)"/>
      </g>
     </g>
    </g>
    <g id="ytick_6">
     <g id="line2d_54">
      <path d="M 37.667091 31.314249 
L 232.967091 31.314249 
" clip-path="url(#pe9b5559c56)" style="fill: none; stroke-dasharray: 1.85,0.8; stroke-dashoffset: 0; stroke: #000000; stroke-opacity: 0.5; stroke-width: 0.5"/>
     </g>
     <g id="line2d_55">
      <g>
       <use xlink:href="#mf3c037c3ed" x="37.667091" y="31.314249" style="stroke: #000000; stroke-width: 0.5"/>
      </g>
     </g>
     <g id="line2d_56">
      <g>
       <use xlink:href="#m6a87c8ab72" x="232.967091" y="31.314249" style="stroke: #000000; stroke-width: 0.5"/>
      </g>
     </g>
     <g id="text_9">
      <!-- $\mathdefault{1.25}$ -->
      <g transform="translate(16.455677 34.773498) scale(0.1 -0.1)">
       <use xlink:href="#CMR17-31" transform="scale(0.996264)"/>
       <use xlink:href="#CMMI12-3a" transform="translate(45.690477 0) scale(0.996264)"/>
       <use xlink:href="#CMR17-32" transform="translate(72.787654 0) scale(0.996264)"/>
       <use xlink:href="#CMR17-35" transform="translate(118.478131 0) scale(0.996264)"/>
      </g>
     </g>
    </g>
    <g id="ytick_7">
     <g id="line2d_57">
      <path d="M 37.667091 7.059249 
L 232.967091 7.059249 
" clip-path="url(#pe9b5559c56)" style="fill: none; stroke-dasharray: 1.85,0.8; stroke-dashoffset: 0; stroke: #000000; stroke-opacity: 0.5; stroke-width: 0.5"/>
     </g>
     <g id="line2d_58">
      <g>
       <use xlink:href="#mf3c037c3ed" x="37.667091" y="7.059249" style="stroke: #000000; stroke-width: 0.5"/>
      </g>
     </g>
     <g id="line2d_59">
      <g>
       <use xlink:href="#m6a87c8ab72" x="232.967091" y="7.059249" style="stroke: #000000; stroke-width: 0.5"/>
      </g>
     </g>
     <g id="text_10">
      <!-- $\mathdefault{1.50}$ -->
      <g transform="translate(16.455677 10.518498) scale(0.1 -0.1)">
       <use xlink:href="#CMR17-31" transform="scale(0.996264)"/>
       <use xlink:href="#CMMI12-3a" transform="translate(45.690477 0) scale(0.996264)"/>
       <use xlink:href="#CMR17-35" transform="translate(72.787654 0) scale(0.996264)"/>
       <use xlink:href="#CMR17-30" transform="translate(118.478131 0) scale(0.996264)"/>
      </g>
     </g>
    </g>
    <g id="ytick_8">
     <g id="line2d_60">
      <defs>
       <path id="m407d633149" d="M 0 0 
L 1.5 0 
" style="stroke: #000000; stroke-width: 0.5"/>
      </defs>
      <g>
       <use xlink:href="#m407d633149" x="37.667091" y="147.738249" style="stroke: #000000; stroke-width: 0.5"/>
      </g>
     </g>
     <g id="line2d_61">
      <defs>
       <path id="m5af48b9756" d="M 0 0 
L -1.5 0 
" style="stroke: #000000; stroke-width: 0.5"/>
      </defs>
      <g>
       <use xlink:href="#m5af48b9756" x="232.967091" y="147.738249" style="stroke: #000000; stroke-width: 0.5"/>
      </g>
     </g>
    </g>
    <g id="ytick_9">
     <g id="line2d_62">
      <g>
       <use xlink:href="#m407d633149" x="37.667091" y="142.887249" style="stroke: #000000; stroke-width: 0.5"/>
      </g>
     </g>
     <g id="line2d_63">
      <g>
       <use xlink:href="#m5af48b9756" x="232.967091" y="142.887249" style="stroke: #000000; stroke-width: 0.5"/>
      </g>
     </g>
    </g>
    <g id="ytick_10">
     <g id="line2d_64">
      <g>
       <use xlink:href="#m407d633149" x="37.667091" y="138.036249" style="stroke: #000000; stroke-width: 0.5"/>
      </g>
     </g>
     <g id="line2d_65">
      <g>
       <use xlink:href="#m5af48b9756" x="232.967091" y="138.036249" style="stroke: #000000; stroke-width: 0.5"/>
      </g>
     </g>
    </g>
    <g id="ytick_11">
     <g id="line2d_66">
      <g>
       <use xlink:href="#m407d633149" x="37.667091" y="133.185249" style="stroke: #000000; stroke-width: 0.5"/>
      </g>
     </g>
     <g id="line2d_67">
      <g>
       <use xlink:href="#m5af48b9756" x="232.967091" y="133.185249" style="stroke: #000000; stroke-width: 0.5"/>
      </g>
     </g>
    </g>
    <g id="ytick_12">
     <g id="line2d_68">
      <g>
       <use xlink:href="#m407d633149" x="37.667091" y="123.483249" style="stroke: #000000; stroke-width: 0.5"/>
      </g>
     </g>
     <g id="line2d_69">
      <g>
       <use xlink:href="#m5af48b9756" x="232.967091" y="123.483249" style="stroke: #000000; stroke-width: 0.5"/>
      </g>
     </g>
    </g>
    <g id="ytick_13">
     <g id="line2d_70">
      <g>
       <use xlink:href="#m407d633149" x="37.667091" y="118.632249" style="stroke: #000000; stroke-width: 0.5"/>
      </g>
     </g>
     <g id="line2d_71">
      <g>
       <use xlink:href="#m5af48b9756" x="232.967091" y="118.632249" style="stroke: #000000; stroke-width: 0.5"/>
      </g>
     </g>
    </g>
    <g id="ytick_14">
     <g id="line2d_72">
      <g>
       <use xlink:href="#m407d633149" x="37.667091" y="113.781249" style="stroke: #000000; stroke-width: 0.5"/>
      </g>
     </g>
     <g id="line2d_73">
      <g>
       <use xlink:href="#m5af48b9756" x="232.967091" y="113.781249" style="stroke: #000000; stroke-width: 0.5"/>
      </g>
     </g>
    </g>
    <g id="ytick_15">
     <g id="line2d_74">
      <g>
       <use xlink:href="#m407d633149" x="37.667091" y="108.930249" style="stroke: #000000; stroke-width: 0.5"/>
      </g>
     </g>
     <g id="line2d_75">
      <g>
       <use xlink:href="#m5af48b9756" x="232.967091" y="108.930249" style="stroke: #000000; stroke-width: 0.5"/>
      </g>
     </g>
    </g>
    <g id="ytick_16">
     <g id="line2d_76">
      <g>
       <use xlink:href="#m407d633149" x="37.667091" y="99.228249" style="stroke: #000000; stroke-width: 0.5"/>
      </g>
     </g>
     <g id="line2d_77">
      <g>
       <use xlink:href="#m5af48b9756" x="232.967091" y="99.228249" style="stroke: #000000; stroke-width: 0.5"/>
      </g>
     </g>
    </g>
    <g id="ytick_17">
     <g id="line2d_78">
      <g>
       <use xlink:href="#m407d633149" x="37.667091" y="94.377249" style="stroke: #000000; stroke-width: 0.5"/>
      </g>
     </g>
     <g id="line2d_79">
      <g>
       <use xlink:href="#m5af48b9756" x="232.967091" y="94.377249" style="stroke: #000000; stroke-width: 0.5"/>
      </g>
     </g>
    </g>
    <g id="ytick_18">
     <g id="line2d_80">
      <g>
       <use xlink:href="#m407d633149" x="37.667091" y="89.526249" style="stroke: #000000; stroke-width: 0.5"/>
      </g>
     </g>
     <g id="line2d_81">
      <g>
       <use xlink:href="#m5af48b9756" x="232.967091" y="89.526249" style="stroke: #000000; stroke-width: 0.5"/>
      </g>
     </g>
    </g>
    <g id="ytick_19">
     <g id="line2d_82">
      <g>
       <use xlink:href="#m407d633149" x="37.667091" y="84.675249" style="stroke: #000000; stroke-width: 0.5"/>
      </g>
     </g>
     <g id="line2d_83">
      <g>
       <use xlink:href="#m5af48b9756" x="232.967091" y="84.675249" style="stroke: #000000; stroke-width: 0.5"/>
      </g>
     </g>
    </g>
    <g id="ytick_20">
     <g id="line2d_84">
      <g>
       <use xlink:href="#m407d633149" x="37.667091" y="74.973249" style="stroke: #000000; stroke-width: 0.5"/>
      </g>
     </g>
     <g id="line2d_85">
      <g>
       <use xlink:href="#m5af48b9756" x="232.967091" y="74.973249" style="stroke: #000000; stroke-width: 0.5"/>
      </g>
     </g>
    </g>
    <g id="ytick_21">
     <g id="line2d_86">
      <g>
       <use xlink:href="#m407d633149" x="37.667091" y="70.122249" style="stroke: #000000; stroke-width: 0.5"/>
      </g>
     </g>
     <g id="line2d_87">
      <g>
       <use xlink:href="#m5af48b9756" x="232.967091" y="70.122249" style="stroke: #000000; stroke-width: 0.5"/>
      </g>
     </g>
    </g>
    <g id="ytick_22">
     <g id="line2d_88">
      <g>
       <use xlink:href="#m407d633149" x="37.667091" y="65.271249" style="stroke: #000000; stroke-width: 0.5"/>
      </g>
     </g>
     <g id="line2d_89">
      <g>
       <use xlink:href="#m5af48b9756" x="232.967091" y="65.271249" style="stroke: #000000; stroke-width: 0.5"/>
      </g>
     </g>
    </g>
    <g id="ytick_23">
     <g id="line2d_90">
      <g>
       <use xlink:href="#m407d633149" x="37.667091" y="60.420249" style="stroke: #000000; stroke-width: 0.5"/>
      </g>
     </g>
     <g id="line2d_91">
      <g>
       <use xlink:href="#m5af48b9756" x="232.967091" y="60.420249" style="stroke: #000000; stroke-width: 0.5"/>
      </g>
     </g>
    </g>
    <g id="ytick_24">
     <g id="line2d_92">
      <g>
       <use xlink:href="#m407d633149" x="37.667091" y="50.718249" style="stroke: #000000; stroke-width: 0.5"/>
      </g>
     </g>
     <g id="line2d_93">
      <g>
       <use xlink:href="#m5af48b9756" x="232.967091" y="50.718249" style="stroke: #000000; stroke-width: 0.5"/>
      </g>
     </g>
    </g>
    <g id="ytick_25">
     <g id="line2d_94">
      <g>
       <use xlink:href="#m407d633149" x="37.667091" y="45.867249" style="stroke: #000000; stroke-width: 0.5"/>
      </g>
     </g>
     <g id="line2d_95">
      <g>
       <use xlink:href="#m5af48b9756" x="232.967091" y="45.867249" style="stroke: #000000; stroke-width: 0.5"/>
      </g>
     </g>
    </g>
    <g id="ytick_26">
     <g id="line2d_96">
      <g>
       <use xlink:href="#m407d633149" x="37.667091" y="41.016249" style="stroke: #000000; stroke-width: 0.5"/>
      </g>
     </g>
     <g id="line2d_97">
      <g>
       <use xlink:href="#m5af48b9756" x="232.967091" y="41.016249" style="stroke: #000000; stroke-width: 0.5"/>
      </g>
     </g>
    </g>
    <g id="ytick_27">
     <g id="line2d_98">
      <g>
       <use xlink:href="#m407d633149" x="37.667091" y="36.165249" style="stroke: #000000; stroke-width: 0.5"/>
      </g>
     </g>
     <g id="line2d_99">
      <g>
       <use xlink:href="#m5af48b9756" x="232.967091" y="36.165249" style="stroke: #000000; stroke-width: 0.5"/>
      </g>
     </g>
    </g>
    <g id="ytick_28">
     <g id="line2d_100">
      <g>
       <use xlink:href="#m407d633149" x="37.667091" y="26.463249" style="stroke: #000000; stroke-width: 0.5"/>
      </g>
     </g>
     <g id="line2d_101">
      <g>
       <use xlink:href="#m5af48b9756" x="232.967091" y="26.463249" style="stroke: #000000; stroke-width: 0.5"/>
      </g>
     </g>
    </g>
    <g id="ytick_29">
     <g id="line2d_102">
      <g>
       <use xlink:href="#m407d633149" x="37.667091" y="21.612249" style="stroke: #000000; stroke-width: 0.5"/>
      </g>
     </g>
     <g id="line2d_103">
      <g>
       <use xlink:href="#m5af48b9756" x="232.967091" y="21.612249" style="stroke: #000000; stroke-width: 0.5"/>
      </g>
     </g>
    </g>
    <g id="ytick_30">
     <g id="line2d_104">
      <g>
       <use xlink:href="#m407d633149" x="37.667091" y="16.761249" style="stroke: #000000; stroke-width: 0.5"/>
      </g>
     </g>
     <g id="line2d_105">
      <g>
       <use xlink:href="#m5af48b9756" x="232.967091" y="16.761249" style="stroke: #000000; stroke-width: 0.5"/>
      </g>
     </g>
    </g>
    <g id="ytick_31">
     <g id="line2d_106">
      <g>
       <use xlink:href="#m407d633149" x="37.667091" y="11.910249" style="stroke: #000000; stroke-width: 0.5"/>
      </g>
     </g>
     <g id="line2d_107">
      <g>
       <use xlink:href="#m5af48b9756" x="232.967091" y="11.910249" style="stroke: #000000; stroke-width: 0.5"/>
      </g>
     </g>
    </g>
    <g id="text_11">
     <!-- Density -->
     <g transform="translate(10.518498 96.387169) rotate(-90) scale(0.1 -0.1)">
      <defs>
       <path id="CMR17-44" d="M 333 4352 
L 333 4186 
C 774 4186 845 4186 845 3900 
L 845 452 
C 845 166 774 166 333 166 
L 333 0 
L 2368 0 
C 3398 0 4224 943 4224 2141 
C 4224 3346 3411 4352 2368 4352 
L 333 4352 
z
M 1523 166 
C 1267 166 1254 197 1254 414 
L 1254 3938 
C 1254 4155 1267 4186 1523 4186 
L 2240 4186 
C 2771 4186 3750 3874 3750 2141 
C 3750 1242 3488 879 3366 707 
C 3213 510 2848 166 2240 166 
L 1523 166 
z
" transform="scale(0.015625)"/>
       <path id="CMR17-65" d="M 2438 1472 
C 2464 1498 2464 1511 2464 1576 
C 2464 2238 2118 2816 1389 2816 
C 710 2816 173 2169 173 1383 
C 173 551 781 -64 1459 -64 
C 2176 -64 2458 607 2458 740 
C 2458 784 2419 784 2406 784 
C 2362 784 2355 771 2330 696 
C 2189 265 1837 51 1504 51 
C 1229 51 954 203 781 480 
C 582 803 582 1176 582 1472 
L 2438 1472 
z
M 589 1568 
C 634 2505 1126 2714 1382 2714 
C 1818 2714 2112 2297 2118 1568 
L 589 1568 
z
" transform="scale(0.015625)"/>
       <path id="CMR17-6e" d="M 2656 1933 
C 2656 2259 2592 2790 1837 2790 
C 1331 2790 1069 2400 973 2144 
L 966 2144 
L 966 2790 
L 211 2720 
L 211 2554 
C 589 2554 646 2515 646 2208 
L 646 428 
C 646 184 621 153 211 153 
L 211 -13 
C 365 0 646 0 813 0 
C 979 0 1267 0 1421 -13 
L 1421 153 
C 1011 153 986 178 986 428 
L 986 1658 
C 986 2247 1344 2688 1792 2688 
C 2266 2688 2317 2266 2317 1958 
L 2317 428 
C 2317 184 2291 153 1882 153 
L 1882 -13 
C 2035 0 2317 0 2483 0 
C 2650 0 2938 0 3091 -13 
L 3091 153 
C 2682 153 2656 178 2656 428 
L 2656 1933 
z
" transform="scale(0.015625)"/>
       <path id="CMR17-73" d="M 1978 2697 
C 1978 2813 1971 2819 1933 2819 
C 1907 2819 1901 2813 1824 2717 
C 1805 2691 1747 2626 1728 2601 
C 1523 2819 1235 2819 1126 2819 
C 416 2819 160 2447 160 2076 
C 160 1498 813 1365 998 1325 
C 1402 1243 1542 1217 1677 1101 
C 1760 1025 1901 884 1901 654 
C 1901 384 1747 38 1158 38 
C 602 38 403 460 288 1021 
C 269 1110 269 1117 218 1117 
C 166 1117 160 1110 160 983 
L 160 63 
C 160 -51 166 -58 205 -58 
C 237 -58 243 -51 275 0 
C 314 57 410 211 448 276 
C 576 103 800 -64 1158 -64 
C 1792 -64 2131 283 2131 784 
C 2131 1112 1958 1285 1875 1362 
C 1683 1561 1459 1606 1190 1657 
C 838 1735 390 1825 390 2217 
C 390 2383 480 2737 1126 2737 
C 1811 2737 1850 2094 1862 1888 
C 1869 1856 1901 1849 1920 1849 
C 1978 1849 1978 1869 1978 1978 
L 1978 2697 
z
" transform="scale(0.015625)"/>
       <path id="CMR17-69" d="M 992 3909 
C 992 4049 877 4170 730 4170 
C 589 4170 467 4056 467 3909 
C 467 3769 582 3648 730 3648 
C 870 3648 992 3763 992 3909 
z
M 243 2706 
L 243 2541 
C 602 2541 653 2502 653 2197 
L 653 427 
C 653 184 627 153 218 153 
L 218 -13 
C 371 0 646 0 806 0 
C 960 0 1222 0 1370 -13 
L 1370 153 
C 992 153 979 191 979 420 
L 979 2776 
L 243 2706 
z
" transform="scale(0.015625)"/>
       <path id="CMR17-74" d="M 966 2560 
L 1862 2560 
L 1862 2725 
L 966 2725 
L 966 3904 
L 851 3904 
C 838 3245 614 2668 70 2668 
L 70 2560 
L 627 2560 
L 627 771 
C 627 650 627 -64 1370 -64 
C 1747 -64 1965 306 1965 777 
L 1965 1140 
L 1850 1140 
L 1850 783 
C 1850 344 1677 51 1408 51 
C 1222 51 966 178 966 758 
L 966 2560 
z
" transform="scale(0.015625)"/>
       <path id="CMR17-79" d="M 2496 2197 
C 2656 2586 2944 2586 3034 2586 
L 3034 2752 
C 2912 2752 2752 2752 2630 2752 
C 2496 2752 2285 2752 2157 2758 
L 2157 2592 
C 2400 2573 2406 2394 2406 2343 
C 2406 2280 2394 2248 2362 2171 
L 1664 449 
L 902 2306 
C 870 2382 870 2426 870 2433 
C 870 2573 1018 2586 1171 2586 
L 1171 2758 
C 1018 2752 742 2752 582 2752 
C 410 2752 205 2752 64 2758 
L 64 2586 
C 410 2586 448 2554 531 2350 
L 1485 15 
C 1197 -738 1030 -1178 627 -1178 
C 557 -1178 397 -1159 282 -1044 
C 429 -1031 493 -942 493 -833 
C 493 -725 416 -629 288 -629 
C 147 -629 77 -725 77 -840 
C 77 -1095 339 -1280 627 -1280 
C 998 -1280 1229 -922 1357 -604 
L 2496 2197 
z
" transform="scale(0.015625)"/>
      </defs>
      <use xlink:href="#CMR17-44" transform="scale(0.996264)"/>
      <use xlink:href="#CMR17-65" transform="translate(70.393556 0) scale(0.996264)"/>
      <use xlink:href="#CMR17-6e" transform="translate(110.879216 0) scale(0.996264)"/>
      <use xlink:href="#CMR17-73" transform="translate(161.774586 0) scale(0.996264)"/>
      <use xlink:href="#CMR17-69" transform="translate(197.575924 0) scale(0.996264)"/>
      <use xlink:href="#CMR17-74" transform="translate(222.446982 0) scale(0.996264)"/>
      <use xlink:href="#CMR17-79" transform="translate(255.125296 0) scale(0.996264)"/>
     </g>
    </g>
   </g>
   <g id="PolyCollection_1">
    <defs>
     <path id="m7a6c95fcd5" d="M 17.787173 -30.587379 
L 17.787173 -30.582452 
L 18.934107 -30.582452 
L 20.08104 -30.582452 
L 21.227974 -30.582452 
L 22.374908 -30.582452 
L 23.521841 -30.582452 
L 24.668775 -30.582452 
L 25.815708 -30.582452 
L 26.962642 -30.582452 
L 28.109576 -30.582452 
L 29.256509 -30.582452 
L 30.403443 -30.582452 
L 31.550376 -30.582452 
L 32.69731 -30.582452 
L 33.844244 -30.582452 
L 34.991177 -30.582452 
L 36.138111 -30.582452 
L 37.285045 -30.582452 
L 38.431978 -30.582452 
L 39.578912 -30.582452 
L 40.725845 -30.582452 
L 41.872779 -30.582452 
L 43.019713 -30.582452 
L 44.166646 -30.582452 
L 45.31358 -30.582452 
L 46.460513 -30.582452 
L 47.607447 -30.582452 
L 48.754381 -30.582452 
L 49.901314 -30.582452 
L 51.048248 -30.582452 
L 52.195182 -30.582452 
L 53.342115 -30.582452 
L 54.489049 -30.582452 
L 55.635982 -30.582452 
L 56.782916 -30.582452 
L 57.92985 -30.582452 
L 59.076783 -30.582452 
L 60.223717 -30.582452 
L 61.37065 -30.582452 
L 62.517584 -30.582452 
L 63.664518 -30.582452 
L 64.811451 -30.582452 
L 65.958385 -30.582452 
L 67.105319 -30.582452 
L 68.252252 -30.582452 
L 69.399186 -30.582452 
L 70.546119 -30.582452 
L 71.693053 -30.582452 
L 72.839987 -30.582452 
L 73.98692 -30.582452 
L 75.133854 -30.582452 
L 76.280788 -30.582452 
L 77.427721 -30.582452 
L 78.574655 -30.582452 
L 79.721588 -30.582452 
L 80.868522 -30.582452 
L 82.015456 -30.582452 
L 83.162389 -30.582452 
L 84.309323 -30.582452 
L 85.456256 -30.582452 
L 86.60319 -30.582452 
L 87.750124 -30.582452 
L 88.897057 -30.582452 
L 90.043991 -30.582452 
L 91.190925 -30.582452 
L 92.337858 -30.582452 
L 93.484792 -30.582452 
L 94.631725 -30.582452 
L 95.778659 -30.582452 
L 96.925593 -30.582452 
L 98.072526 -30.582452 
L 99.21946 -30.582452 
L 100.366393 -30.582452 
L 101.513327 -30.582452 
L 102.660261 -30.582452 
L 103.807194 -30.582452 
L 104.954128 -30.582452 
L 106.101062 -30.582452 
L 107.247995 -30.582452 
L 108.394929 -30.582452 
L 109.541862 -30.582452 
L 110.688796 -30.582452 
L 111.83573 -30.582452 
L 112.982663 -30.582452 
L 114.129597 -30.582452 
L 115.27653 -30.582452 
L 116.423464 -30.582452 
L 117.570398 -30.582452 
L 118.717331 -30.582452 
L 119.864265 -30.582452 
L 121.011199 -30.582452 
L 122.158132 -30.582452 
L 123.305066 -30.582452 
L 124.451999 -30.582452 
L 125.598933 -30.582452 
L 126.745867 -30.582452 
L 127.8928 -30.582452 
L 129.039734 -30.582452 
L 130.186667 -30.582452 
L 131.333601 -30.582452 
L 132.480535 -30.582452 
L 133.627468 -30.582452 
L 134.774402 -30.582452 
L 135.921336 -30.582452 
L 137.068269 -30.582452 
L 138.215203 -30.582452 
L 139.362136 -30.582452 
L 140.50907 -30.582452 
L 141.656004 -30.582452 
L 142.802937 -30.582452 
L 143.949871 -30.582452 
L 145.096804 -30.582452 
L 146.243738 -30.582452 
L 147.390672 -30.582452 
L 148.537605 -30.582452 
L 149.684539 -30.582452 
L 150.831473 -30.582452 
L 151.978406 -30.582452 
L 153.12534 -30.582452 
L 154.272273 -30.582452 
L 155.419207 -30.582452 
L 156.566141 -30.582452 
L 157.713074 -30.582452 
L 158.860008 -30.582452 
L 160.006941 -30.582452 
L 161.153875 -30.582452 
L 162.300809 -30.582452 
L 163.447742 -30.582452 
L 164.594676 -30.582452 
L 165.74161 -30.582452 
L 166.888543 -30.582452 
L 168.035477 -30.582452 
L 169.18241 -30.582452 
L 170.329344 -30.582452 
L 171.476278 -30.582452 
L 172.623211 -30.582452 
L 173.770145 -30.582452 
L 174.917078 -30.582452 
L 176.064012 -30.582452 
L 177.210946 -30.582452 
L 178.357879 -30.582452 
L 179.504813 -30.582452 
L 180.651747 -30.582452 
L 181.79868 -30.582452 
L 182.945614 -30.582452 
L 184.092547 -30.582452 
L 185.239481 -30.582452 
L 186.386415 -30.582452 
L 187.533348 -30.582452 
L 188.680282 -30.582452 
L 189.827215 -30.582452 
L 190.974149 -30.582452 
L 192.121083 -30.582452 
L 193.268016 -30.582452 
L 194.41495 -30.582452 
L 195.561884 -30.582452 
L 196.708817 -30.582452 
L 197.855751 -30.582452 
L 199.002684 -30.582452 
L 200.149618 -30.582452 
L 201.296552 -30.582452 
L 202.443485 -30.582452 
L 203.590419 -30.582452 
L 204.737352 -30.582452 
L 205.884286 -30.582452 
L 207.03122 -30.582452 
L 208.178153 -30.582452 
L 209.325087 -30.582452 
L 210.472021 -30.582452 
L 211.618954 -30.582452 
L 212.765888 -30.582452 
L 213.912821 -30.582452 
L 215.059755 -30.582452 
L 216.206689 -30.582452 
L 217.353622 -30.582452 
L 218.500556 -30.582452 
L 219.64749 -30.582452 
L 220.794423 -30.582452 
L 221.941357 -30.582452 
L 223.08829 -30.582452 
L 224.235224 -30.582452 
L 225.382158 -30.582452 
L 226.529091 -30.582452 
L 227.676025 -30.582452 
L 228.822958 -30.582452 
L 229.969892 -30.582452 
L 231.116826 -30.582452 
L 232.263759 -30.582452 
L 233.410693 -30.582452 
L 234.557627 -30.582452 
L 235.70456 -30.582452 
L 236.851494 -30.582452 
L 237.998427 -30.582452 
L 239.145361 -30.582452 
L 240.292295 -30.582452 
L 241.439228 -30.582452 
L 242.586162 -30.582452 
L 243.733095 -30.582452 
L 244.880029 -30.582452 
L 246.026963 -30.582452 
L 246.026963 -30.587878 
L 246.026963 -30.587878 
L 244.880029 -30.591546 
L 243.733095 -30.597269 
L 242.586162 -30.605925 
L 241.439228 -30.618619 
L 240.292295 -30.636669 
L 239.145361 -30.661566 
L 237.998427 -30.694884 
L 236.851494 -30.738178 
L 235.70456 -30.79285 
L 234.557627 -30.86005 
L 233.410693 -30.940629 
L 232.263759 -31.035185 
L 231.116826 -31.144262 
L 229.969892 -31.268675 
L 228.822958 -31.409978 
L 227.676025 -31.570991 
L 226.529091 -31.756309 
L 225.382158 -31.972673 
L 224.235224 -32.229098 
L 223.08829 -32.536665 
L 221.941357 -32.907934 
L 220.794423 -33.356009 
L 219.64749 -33.893312 
L 218.500556 -34.530208 
L 217.353622 -35.27361 
L 216.206689 -36.125713 
L 215.059755 -37.083001 
L 213.912821 -38.135652 
L 212.765888 -39.267436 
L 211.618954 -40.45623 
L 210.472021 -41.675208 
L 209.325087 -42.894752 
L 208.178153 -44.084988 
L 207.03122 -45.218761 
L 205.884286 -46.274702 
L 204.737352 -47.23991 
L 203.590419 -48.111799 
L 202.443485 -48.898697 
L 201.296552 -49.619035 
L 200.149618 -50.299231 
L 199.002684 -50.970634 
L 197.855751 -51.66611 
L 196.708817 -52.416849 
L 195.561884 -53.249877 
L 194.41495 -54.186491 
L 193.268016 -55.241569 
L 192.121083 -56.423506 
L 190.974149 -57.734424 
L 189.827215 -59.17041 
L 188.680282 -60.721711 
L 187.533348 -62.373004 
L 186.386415 -64.104044 
L 185.239481 -65.890955 
L 184.092547 -67.708328 
L 182.945614 -69.532009 
L 181.79868 -71.342225 
L 180.651747 -73.126479 
L 179.504813 -74.881608 
L 178.357879 -76.614506 
L 177.210946 -78.341292 
L 176.064012 -80.085009 
L 174.917078 -81.872272 
L 173.770145 -83.729473 
L 172.623211 -85.679235 
L 171.476278 -87.737707 
L 170.329344 -89.913074 
L 169.18241 -92.205418 
L 168.035477 -94.607766 
L 166.888543 -97.107993 
L 165.74161 -99.691112 
L 164.594676 -102.341479 
L 163.447742 -105.04452 
L 162.300809 -107.787706 
L 161.153875 -110.560695 
L 160.006941 -113.354732 
L 158.860008 -116.161554 
L 157.713074 -118.972184 
L 156.566141 -121.775993 
L 155.419207 -124.560392 
L 154.272273 -127.311313 
L 153.12534 -130.014446 
L 151.978406 -132.656934 
L 150.831473 -135.22907 
L 149.684539 -137.725499 
L 148.537605 -140.145515 
L 147.390672 -142.492341 
L 146.243738 -144.77157 
L 145.096804 -146.989247 
L 143.949871 -149.15015 
L 142.802937 -151.256789 
L 141.656004 -153.309297 
L 140.50907 -155.306042 
L 139.362136 -157.244443 
L 138.215203 -159.121331 
L 137.068269 -160.932328 
L 135.921336 -162.67005 
L 134.774402 -164.321419 
L 133.627468 -165.864743 
L 132.480535 -167.267477 
L 131.333601 -168.48545 
L 130.186667 -169.464085 
L 129.039734 -170.141652 
L 127.8928 -170.454203 
L 126.745867 -170.341488 
L 125.598933 -169.753062 
L 124.451999 -168.653811 
L 123.305066 -167.028221 
L 122.158132 -164.882908 
L 121.011199 -162.247007 
L 119.864265 -159.170239 
L 118.717331 -155.71865 
L 117.570398 -151.968338 
L 116.423464 -147.997876 
L 115.27653 -143.880453 
L 114.129597 -139.67698 
L 112.982663 -135.431371 
L 111.83573 -131.168852 
L 110.688796 -126.897582 
L 109.541862 -122.61318 
L 108.394929 -118.305146 
L 107.247995 -113.96379 
L 106.101062 -109.586238 
L 104.954128 -105.180406 
L 103.807194 -100.766316 
L 102.660261 -96.374798 
L 101.513327 -92.044104 
L 100.366393 -87.815373 
L 99.21946 -83.727932 
L 98.072526 -79.815331 
L 96.925593 -76.102683 
L 95.778659 -72.605528 
L 94.631725 -69.330091 
L 93.484792 -66.274552 
L 92.337858 -63.430859 
L 91.190925 -60.786624 
L 90.043991 -58.326774 
L 88.897057 -56.034834 
L 87.750124 -53.893824 
L 86.60319 -51.886933 
L 85.456256 -49.998117 
L 84.309323 -48.212745 
L 83.162389 -46.518346 
L 82.015456 -44.905382 
L 80.868522 -43.367913 
L 79.721588 -41.903997 
L 78.574655 -40.515662 
L 77.427721 -39.208383 
L 76.280788 -37.990083 
L 75.133854 -36.869763 
L 73.98692 -35.855948 
L 72.839987 -34.955187 
L 71.693053 -34.170811 
L 70.546119 -33.502155 
L 69.399186 -32.944326 
L 68.252252 -32.488539 
L 67.105319 -32.122949 
L 65.958385 -31.83381 
L 64.811451 -31.606774 
L 63.664518 -31.428118 
L 62.517584 -31.285736 
L 61.37065 -31.16978 
L 60.223717 -31.072912 
L 59.076783 -30.990216 
L 57.92985 -30.91884 
L 56.782916 -30.857502 
L 55.635982 -30.805959 
L 54.489049 -30.764538 
L 53.342115 -30.733763 
L 52.195182 -30.714111 
L 51.048248 -30.705843 
L 49.901314 -30.708912 
L 48.754381 -30.722883 
L 47.607447 -30.746854 
L 46.460513 -30.779388 
L 45.31358 -30.818465 
L 44.166646 -30.86148 
L 43.019713 -30.905339 
L 41.872779 -30.946648 
L 40.725845 -30.981998 
L 39.578912 -31.008316 
L 38.431978 -31.023217 
L 37.285045 -31.025301 
L 36.138111 -31.014325 
L 34.991177 -30.991219 
L 33.844244 -30.957945 
L 32.69731 -30.917206 
L 31.550376 -30.872082 
L 30.403443 -30.825647 
L 29.256509 -30.78063 
L 28.109576 -30.73918 
L 26.962642 -30.702742 
L 25.815708 -30.672051 
L 24.668775 -30.647221 
L 23.521841 -30.62789 
L 22.374908 -30.613388 
L 21.227974 -30.602893 
L 20.08104 -30.59556 
L 18.934107 -30.590609 
L 17.787173 -30.587379 
z
" style="stroke: #4477aa"/>
    </defs>
    <g clip-path="url(#pe9b5559c56)">
     <use xlink:href="#m7a6c95fcd5" x="0" y="183.171701" style="fill: #4477aa; fill-opacity: 0.25; stroke: #4477aa"/>
    </g>
   </g>
   <g id="LineCollection_1">
    <path d="M 227.133449 152.589249 
L 227.133449 7.059249 
" clip-path="url(#pe9b5559c56)" style="fill: none; stroke-dasharray: 3.7,1.6; stroke-dashoffset: 0; stroke: #000000"/>
   </g>
   <g id="patch_3">
    <path d="M 37.667091 152.589249 
L 37.667091 7.059249 
" style="fill: none; stroke: #000000; stroke-width: 0.5; stroke-linejoin: miter; stroke-linecap: square"/>
   </g>
   <g id="patch_4">
    <path d="M 232.967091 152.589249 
L 232.967091 7.059249 
" style="fill: none; stroke: #000000; stroke-width: 0.5; stroke-linejoin: miter; stroke-linecap: square"/>
   </g>
   <g id="patch_5">
    <path d="M 37.667091 152.589249 
L 232.967091 152.589249 
" style="fill: none; stroke: #000000; stroke-width: 0.5; stroke-linejoin: miter; stroke-linecap: square"/>
   </g>
   <g id="patch_6">
    <path d="M 37.667091 7.059249 
L 232.967091 7.059249 
" style="fill: none; stroke: #000000; stroke-width: 0.5; stroke-linejoin: miter; stroke-linecap: square"/>
   </g>
  </g>
 </g>
 <defs>
  <clipPath id="pe9b5559c56">
   <rect x="37.667091" y="7.059249" width="195.3" height="145.53"/>
  </clipPath>
 </defs>
</svg>
