<?xml version="1.0" encoding="utf-8" standalone="no"?>
<!DOCTYPE svg PUBLIC "-//W3C//DTD SVG 1.1//EN"
  "http://www.w3.org/Graphics/SVG/1.1/DTD/svg11.dtd">
<svg xmlns:xlink="http://www.w3.org/1999/xlink" width="231.585756pt" height="179.048317pt" viewBox="0 0 231.585756 179.048317" xmlns="http://www.w3.org/2000/svg" version="1.1">
 <metadata>
  <rdf:RDF xmlns:dc="http://purl.org/dc/elements/1.1/" xmlns:cc="http://creativecommons.org/ns#" xmlns:rdf="http://www.w3.org/1999/02/22-rdf-syntax-ns#">
   <cc:Work>
    <dc:type rdf:resource="http://purl.org/dc/dcmitype/StillImage"/>
    <dc:date>2025-10-08T13:24:13.324086</dc:date>
    <dc:format>image/svg+xml</dc:format>
    <dc:creator>
     <cc:Agent>
      <dc:title>Matplotlib v3.9.2, https://matplotlib.org/</dc:title>
     </cc:Agent>
    </dc:creator>
   </cc:Work>
  </rdf:RDF>
 </metadata>
 <defs>
  <style type="text/css">*{stroke-linejoin: round; stroke-linecap: butt}</style>
 </defs>
 <g id="figure_1">
  <g id="patch_1">
   <path d="M 0 179.048317 
L 231.585756 179.048317 
L 231.585756 0 
L 0 0 
L 0 179.048317 
z
" style="fill: none"/>
  </g>
  <g id="axes_1">
   <g id="patch_2">
    <path d="M 32.685756 149.13 
L 227.985756 149.13 
L 227.985756 3.6 
L 32.685756 3.6 
L 32.685756 149.13 
z
" style="fill: none"/>
   </g>
   <g id="matplotlib.axis_1">
    <g id="xtick_1">
     <g id="line2d_1">
      <path d="M 85.627301 149.13 
L 85.627301 3.6 
" clip-path="url(#p3227d3407b)" style="fill: none; stroke-dasharray: 1.85,0.8; stroke-dashoffset: 0; stroke: #000000; stroke-opacity: 0.5; stroke-width: 0.5"/>
     </g>
     <g id="line2d_2">
      <defs>
       <path id="m30ee3ba89a" d="M 0 0 
L 0 -3 
" style="stroke: #000000; stroke-width: 0.5"/>
      </defs>
      <g>
       <use xlink:href="#m30ee3ba89a" x="85.627301" y="149.13" style="stroke: #000000; stroke-width: 0.5"/>
      </g>
     </g>
     <g id="line2d_3">
      <defs>
       <path id="m9fdcdbd395" d="M 0 0 
L 0 3 
" style="stroke: #000000; stroke-width: 0.5"/>
      </defs>
      <g>
       <use xlink:href="#m9fdcdbd395" x="85.627301" y="3.6" style="stroke: #000000; stroke-width: 0.5"/>
      </g>
     </g>
     <g id="text_1">
      <!-- $\mathdefault{−5}$ -->
      <g transform="translate(79.262261 159.548498) scale(0.1 -0.1)">
       <defs>
        <path id="CMSY10-0" d="M 4218 1472 
C 4326 1472 4442 1472 4442 1600 
C 4442 1728 4326 1728 4218 1728 
L 755 1728 
C 646 1728 531 1728 531 1600 
C 531 1472 646 1472 755 1472 
L 4218 1472 
z
" transform="scale(0.015625)"/>
        <path id="CMR17-35" d="M 730 3692 
C 794 3666 1056 3584 1325 3584 
C 1920 3584 2246 3911 2432 4100 
C 2432 4157 2432 4192 2394 4192 
C 2387 4192 2374 4192 2323 4163 
C 2099 4058 1837 3973 1517 3973 
C 1325 3973 1037 3999 723 4139 
C 653 4171 640 4171 634 4171 
C 602 4171 595 4164 595 4037 
L 595 2203 
C 595 2089 595 2057 659 2057 
C 691 2057 704 2070 736 2114 
C 941 2401 1222 2522 1542 2522 
C 1766 2522 2246 2382 2246 1289 
C 2246 1085 2246 715 2054 421 
C 1894 159 1645 25 1370 25 
C 947 25 518 320 403 814 
C 429 807 480 795 506 795 
C 589 795 749 840 749 1038 
C 749 1210 627 1280 506 1280 
C 358 1280 262 1190 262 1011 
C 262 454 704 -128 1382 -128 
C 2042 -128 2669 440 2669 1264 
C 2669 2030 2170 2624 1549 2624 
C 1222 2624 947 2503 730 2274 
L 730 3692 
z
" transform="scale(0.015625)"/>
       </defs>
       <use xlink:href="#CMSY10-0" transform="scale(0.996264)"/>
       <use xlink:href="#CMR17-35" transform="translate(77.487468 0) scale(0.996264)"/>
      </g>
     </g>
    </g>
    <g id="xtick_2">
     <g id="line2d_4">
      <path d="M 149.13126 149.13 
L 149.13126 3.6 
" clip-path="url(#p3227d3407b)" style="fill: none; stroke-dasharray: 1.85,0.8; stroke-dashoffset: 0; stroke: #000000; stroke-opacity: 0.5; stroke-width: 0.5"/>
     </g>
     <g id="line2d_5">
      <g>
       <use xlink:href="#m30ee3ba89a" x="149.13126" y="149.13" style="stroke: #000000; stroke-width: 0.5"/>
      </g>
     </g>
     <g id="line2d_6">
      <g>
       <use xlink:href="#m9fdcdbd395" x="149.13126" y="3.6" style="stroke: #000000; stroke-width: 0.5"/>
      </g>
     </g>
     <g id="text_2">
      <!-- $\mathdefault{0}$ -->
      <g transform="translate(146.640592 159.548498) scale(0.1 -0.1)">
       <defs>
        <path id="CMR17-30" d="M 2688 2025 
C 2688 2416 2682 3080 2413 3591 
C 2176 4039 1798 4198 1466 4198 
C 1158 4198 768 4058 525 3597 
C 269 3118 243 2524 243 2025 
C 243 1661 250 1106 448 619 
C 723 -39 1216 -128 1466 -128 
C 1760 -128 2208 -7 2470 600 
C 2662 1042 2688 1559 2688 2025 
z
M 1466 -26 
C 1056 -26 813 325 723 812 
C 653 1188 653 1738 653 2096 
C 653 2588 653 2997 736 3387 
C 858 3929 1216 4096 1466 4096 
C 1728 4096 2067 3923 2189 3400 
C 2272 3036 2278 2607 2278 2096 
C 2278 1680 2278 1169 2202 792 
C 2067 95 1690 -26 1466 -26 
z
" transform="scale(0.015625)"/>
       </defs>
       <use xlink:href="#CMR17-30" transform="scale(0.996264)"/>
      </g>
     </g>
    </g>
    <g id="xtick_3">
     <g id="line2d_7">
      <path d="M 212.635219 149.13 
L 212.635219 3.6 
" clip-path="url(#p3227d3407b)" style="fill: none; stroke-dasharray: 1.85,0.8; stroke-dashoffset: 0; stroke: #000000; stroke-opacity: 0.5; stroke-width: 0.5"/>
     </g>
     <g id="line2d_8">
      <g>
       <use xlink:href="#m30ee3ba89a" x="212.635219" y="149.13" style="stroke: #000000; stroke-width: 0.5"/>
      </g>
     </g>
     <g id="line2d_9">
      <g>
       <use xlink:href="#m9fdcdbd395" x="212.635219" y="3.6" style="stroke: #000000; stroke-width: 0.5"/>
      </g>
     </g>
     <g id="text_3">
      <!-- $\mathdefault{5}$ -->
      <g transform="translate(210.144551 159.548498) scale(0.1 -0.1)">
       <use xlink:href="#CMR17-35" transform="scale(0.996264)"/>
      </g>
     </g>
    </g>
    <g id="xtick_4">
     <g id="line2d_10">
      <defs>
       <path id="m12c321e289" d="M 0 0 
L 0 -1.5 
" style="stroke: #000000; stroke-width: 0.5"/>
      </defs>
      <g>
       <use xlink:href="#m12c321e289" x="34.824134" y="149.13" style="stroke: #000000; stroke-width: 0.5"/>
      </g>
     </g>
     <g id="line2d_11">
      <defs>
       <path id="mde8f99395a" d="M 0 0 
L 0 1.5 
" style="stroke: #000000; stroke-width: 0.5"/>
      </defs>
      <g>
       <use xlink:href="#mde8f99395a" x="34.824134" y="3.6" style="stroke: #000000; stroke-width: 0.5"/>
      </g>
     </g>
    </g>
    <g id="xtick_5">
     <g id="line2d_12">
      <g>
       <use xlink:href="#m12c321e289" x="47.524926" y="149.13" style="stroke: #000000; stroke-width: 0.5"/>
      </g>
     </g>
     <g id="line2d_13">
      <g>
       <use xlink:href="#mde8f99395a" x="47.524926" y="3.6" style="stroke: #000000; stroke-width: 0.5"/>
      </g>
     </g>
    </g>
    <g id="xtick_6">
     <g id="line2d_14">
      <g>
       <use xlink:href="#m12c321e289" x="60.225717" y="149.13" style="stroke: #000000; stroke-width: 0.5"/>
      </g>
     </g>
     <g id="line2d_15">
      <g>
       <use xlink:href="#mde8f99395a" x="60.225717" y="3.6" style="stroke: #000000; stroke-width: 0.5"/>
      </g>
     </g>
    </g>
    <g id="xtick_7">
     <g id="line2d_16">
      <g>
       <use xlink:href="#m12c321e289" x="72.926509" y="149.13" style="stroke: #000000; stroke-width: 0.5"/>
      </g>
     </g>
     <g id="line2d_17">
      <g>
       <use xlink:href="#mde8f99395a" x="72.926509" y="3.6" style="stroke: #000000; stroke-width: 0.5"/>
      </g>
     </g>
    </g>
    <g id="xtick_8">
     <g id="line2d_18">
      <g>
       <use xlink:href="#m12c321e289" x="98.328093" y="149.13" style="stroke: #000000; stroke-width: 0.5"/>
      </g>
     </g>
     <g id="line2d_19">
      <g>
       <use xlink:href="#mde8f99395a" x="98.328093" y="3.6" style="stroke: #000000; stroke-width: 0.5"/>
      </g>
     </g>
    </g>
    <g id="xtick_9">
     <g id="line2d_20">
      <g>
       <use xlink:href="#m12c321e289" x="111.028885" y="149.13" style="stroke: #000000; stroke-width: 0.5"/>
      </g>
     </g>
     <g id="line2d_21">
      <g>
       <use xlink:href="#mde8f99395a" x="111.028885" y="3.6" style="stroke: #000000; stroke-width: 0.5"/>
      </g>
     </g>
    </g>
    <g id="xtick_10">
     <g id="line2d_22">
      <g>
       <use xlink:href="#m12c321e289" x="123.729676" y="149.13" style="stroke: #000000; stroke-width: 0.5"/>
      </g>
     </g>
     <g id="line2d_23">
      <g>
       <use xlink:href="#mde8f99395a" x="123.729676" y="3.6" style="stroke: #000000; stroke-width: 0.5"/>
      </g>
     </g>
    </g>
    <g id="xtick_11">
     <g id="line2d_24">
      <g>
       <use xlink:href="#m12c321e289" x="136.430468" y="149.13" style="stroke: #000000; stroke-width: 0.5"/>
      </g>
     </g>
     <g id="line2d_25">
      <g>
       <use xlink:href="#mde8f99395a" x="136.430468" y="3.6" style="stroke: #000000; stroke-width: 0.5"/>
      </g>
     </g>
    </g>
    <g id="xtick_12">
     <g id="line2d_26">
      <g>
       <use xlink:href="#m12c321e289" x="161.832052" y="149.13" style="stroke: #000000; stroke-width: 0.5"/>
      </g>
     </g>
     <g id="line2d_27">
      <g>
       <use xlink:href="#mde8f99395a" x="161.832052" y="3.6" style="stroke: #000000; stroke-width: 0.5"/>
      </g>
     </g>
    </g>
    <g id="xtick_13">
     <g id="line2d_28">
      <g>
       <use xlink:href="#m12c321e289" x="174.532843" y="149.13" style="stroke: #000000; stroke-width: 0.5"/>
      </g>
     </g>
     <g id="line2d_29">
      <g>
       <use xlink:href="#mde8f99395a" x="174.532843" y="3.6" style="stroke: #000000; stroke-width: 0.5"/>
      </g>
     </g>
    </g>
    <g id="xtick_14">
     <g id="line2d_30">
      <g>
       <use xlink:href="#m12c321e289" x="187.233635" y="149.13" style="stroke: #000000; stroke-width: 0.5"/>
      </g>
     </g>
     <g id="line2d_31">
      <g>
       <use xlink:href="#mde8f99395a" x="187.233635" y="3.6" style="stroke: #000000; stroke-width: 0.5"/>
      </g>
     </g>
    </g>
    <g id="xtick_15">
     <g id="line2d_32">
      <g>
       <use xlink:href="#m12c321e289" x="199.934427" y="149.13" style="stroke: #000000; stroke-width: 0.5"/>
      </g>
     </g>
     <g id="line2d_33">
      <g>
       <use xlink:href="#mde8f99395a" x="199.934427" y="3.6" style="stroke: #000000; stroke-width: 0.5"/>
      </g>
     </g>
    </g>
    <g id="xtick_16">
     <g id="line2d_34">
      <g>
       <use xlink:href="#m12c321e289" x="225.336011" y="149.13" style="stroke: #000000; stroke-width: 0.5"/>
      </g>
     </g>
     <g id="line2d_35">
      <g>
       <use xlink:href="#mde8f99395a" x="225.336011" y="3.6" style="stroke: #000000; stroke-width: 0.5"/>
      </g>
     </g>
    </g>
    <g id="text_4">
     <!-- $B$ [mS] -->
     <g transform="translate(114.961091 172.957657) scale(0.1 -0.1)">
      <defs>
       <path id="CMMI12-42" d="M 2342 3921 
C 2400 4160 2426 4160 2675 4160 
L 3507 4160 
C 4230 4160 4230 3544 4230 3485 
C 4230 2966 3712 2304 2867 2304 
L 1946 2304 
L 2342 3921 
z
M 3424 2275 
C 4122 2402 4755 2886 4755 3473 
C 4755 3970 4314 4352 3590 4352 
L 1536 4352 
C 1414 4352 1357 4352 1357 4226 
C 1357 4160 1414 4160 1510 4160 
C 1901 4160 1901 4112 1901 4044 
C 1901 4032 1901 3993 1875 3897 
L 1011 472 
C 954 249 941 185 493 185 
C 371 185 307 185 307 70 
C 307 0 346 0 474 0 
L 2669 0 
C 3648 0 4403 739 4403 1383 
C 4403 1906 3942 2224 3424 2275 
z
M 2515 185 
L 1651 185 
C 1562 185 1549 185 1510 192 
C 1440 198 1434 211 1434 261 
C 1434 305 1446 343 1459 399 
L 1907 2176 
L 3110 2176 
C 3866 2176 3866 1483 3866 1433 
C 3866 828 3309 185 2515 185 
z
" transform="scale(0.015625)"/>
       <path id="CMR17-5b" d="M 1504 -1600 
L 1504 -1377 
L 902 -1377 
L 902 4544 
L 1504 4544 
L 1504 4767 
L 678 4767 
L 678 -1600 
L 1504 -1600 
z
" transform="scale(0.015625)"/>
       <path id="CMR17-6d" d="M 4326 1933 
C 4326 2252 4269 2790 3507 2790 
C 3072 2790 2771 2496 2656 2151 
L 2650 2151 
C 2573 2676 2195 2790 1837 2790 
C 1331 2790 1069 2400 973 2144 
L 966 2144 
L 966 2790 
L 211 2720 
L 211 2554 
C 589 2554 646 2515 646 2208 
L 646 428 
C 646 184 621 153 211 153 
L 211 -13 
C 365 0 646 0 813 0 
C 979 0 1267 0 1421 -13 
L 1421 153 
C 1011 153 986 178 986 428 
L 986 1658 
C 986 2247 1344 2688 1792 2688 
C 2266 2688 2317 2266 2317 1958 
L 2317 428 
C 2317 184 2291 153 1882 153 
L 1882 -13 
C 2035 0 2317 0 2483 0 
C 2650 0 2938 0 3091 -13 
L 3091 153 
C 2682 153 2656 178 2656 428 
L 2656 1658 
C 2656 2247 3014 2688 3462 2688 
C 3936 2688 3987 2266 3987 1958 
L 3987 428 
C 3987 184 3962 153 3552 153 
L 3552 -13 
C 3706 0 3987 0 4154 0 
C 4320 0 4608 0 4762 -13 
L 4762 153 
C 4352 153 4326 178 4326 428 
L 4326 1933 
z
" transform="scale(0.015625)"/>
       <path id="CMR17-53" d="M 2803 4290 
C 2803 4404 2797 4411 2758 4411 
C 2720 4411 2707 4385 2682 4328 
L 2490 3907 
C 2246 4257 1875 4416 1472 4416 
C 819 4416 294 3901 294 3253 
C 294 3056 339 2776 557 2510 
C 794 2218 1018 2167 1530 2033 
C 1722 1982 2042 1899 2106 1874 
C 2470 1722 2662 1341 2662 985 
C 2662 527 2336 38 1779 38 
C 1094 38 454 419 410 1311 
C 403 1413 397 1419 352 1419 
C 301 1419 294 1413 294 1285 
L 294 -1 
C 294 -115 301 -122 339 -122 
C 384 -122 397 -90 486 108 
C 493 127 493 140 614 381 
C 934 -39 1472 -128 1779 -128 
C 2477 -128 2970 451 2970 1124 
C 2970 1454 2848 1708 2778 1823 
C 2509 2230 2221 2306 1914 2382 
C 1869 2402 1856 2402 1498 2490 
C 1152 2579 1005 2624 845 2796 
C 666 2992 602 3196 602 3399 
C 602 3812 934 4263 1478 4263 
C 2157 4263 2579 3786 2675 2993 
C 2694 2878 2701 2872 2746 2872 
C 2803 2872 2803 2891 2803 2999 
L 2803 4290 
z
" transform="scale(0.015625)"/>
       <path id="CMR17-5d" d="M 915 4767 
L 90 4767 
L 90 4544 
L 691 4544 
L 691 -1377 
L 90 -1377 
L 90 -1600 
L 915 -1600 
L 915 4767 
z
" transform="scale(0.015625)"/>
      </defs>
      <use xlink:href="#CMMI12-42" transform="scale(0.996264)"/>
      <use xlink:href="#CMR17-5b" transform="translate(109.21149 0) scale(0.996264)"/>
      <use xlink:href="#CMR17-6d" transform="translate(134.082548 0) scale(0.996264)"/>
      <use xlink:href="#CMR17-53" transform="translate(211.002138 0) scale(0.996264)"/>
      <use xlink:href="#CMR17-5d" transform="translate(261.897508 0) scale(0.996264)"/>
     </g>
    </g>
   </g>
   <g id="matplotlib.axis_2">
    <g id="ytick_1">
     <g id="line2d_36">
      <path d="M 32.685756 149.13 
L 227.985756 149.13 
" clip-path="url(#p3227d3407b)" style="fill: none; stroke-dasharray: 1.85,0.8; stroke-dashoffset: 0; stroke: #000000; stroke-opacity: 0.5; stroke-width: 0.5"/>
     </g>
     <g id="line2d_37">
      <defs>
       <path id="maa91f8faba" d="M 0 0 
L 3 0 
" style="stroke: #000000; stroke-width: 0.5"/>
      </defs>
      <g>
       <use xlink:href="#maa91f8faba" x="32.685756" y="149.13" style="stroke: #000000; stroke-width: 0.5"/>
      </g>
     </g>
     <g id="line2d_38">
      <defs>
       <path id="m95c8339322" d="M 0 0 
L -3 0 
" style="stroke: #000000; stroke-width: 0.5"/>
      </defs>
      <g>
       <use xlink:href="#m95c8339322" x="227.985756" y="149.13" style="stroke: #000000; stroke-width: 0.5"/>
      </g>
     </g>
     <g id="text_5">
      <!-- $\mathdefault{0.0}$ -->
      <g transform="translate(16.455677 152.589249) scale(0.1 -0.1)">
       <defs>
        <path id="CMMI12-3a" d="M 1178 307 
C 1178 492 1024 619 870 619 
C 685 619 557 466 557 313 
C 557 128 710 0 864 0 
C 1050 0 1178 153 1178 307 
z
" transform="scale(0.015625)"/>
       </defs>
       <use xlink:href="#CMR17-30" transform="scale(0.996264)"/>
       <use xlink:href="#CMMI12-3a" transform="translate(45.690477 0) scale(0.996264)"/>
       <use xlink:href="#CMR17-30" transform="translate(72.787654 0) scale(0.996264)"/>
      </g>
     </g>
    </g>
    <g id="ytick_2">
     <g id="line2d_39">
      <path d="M 32.685756 117.961912 
L 227.985756 117.961912 
" clip-path="url(#p3227d3407b)" style="fill: none; stroke-dasharray: 1.85,0.8; stroke-dashoffset: 0; stroke: #000000; stroke-opacity: 0.5; stroke-width: 0.5"/>
     </g>
     <g id="line2d_40">
      <g>
       <use xlink:href="#maa91f8faba" x="32.685756" y="117.961912" style="stroke: #000000; stroke-width: 0.5"/>
      </g>
     </g>
     <g id="line2d_41">
      <g>
       <use xlink:href="#m95c8339322" x="227.985756" y="117.961912" style="stroke: #000000; stroke-width: 0.5"/>
      </g>
     </g>
     <g id="text_6">
      <!-- $\mathdefault{0.1}$ -->
      <g transform="translate(16.455677 121.421161) scale(0.1 -0.1)">
       <defs>
        <path id="CMR17-31" d="M 1702 4058 
C 1702 4192 1696 4192 1606 4192 
C 1357 3916 979 3827 621 3827 
C 602 3827 570 3827 563 3808 
C 557 3795 557 3782 557 3648 
C 755 3648 1088 3686 1344 3839 
L 1344 461 
C 1344 236 1331 160 781 160 
L 589 160 
L 589 0 
C 896 0 1216 0 1523 0 
C 1830 0 2150 0 2458 0 
L 2458 160 
L 2266 160 
C 1715 160 1702 230 1702 458 
L 1702 4058 
z
" transform="scale(0.015625)"/>
       </defs>
       <use xlink:href="#CMR17-30" transform="scale(0.996264)"/>
       <use xlink:href="#CMMI12-3a" transform="translate(45.690477 0) scale(0.996264)"/>
       <use xlink:href="#CMR17-31" transform="translate(72.787654 0) scale(0.996264)"/>
      </g>
     </g>
    </g>
    <g id="ytick_3">
     <g id="line2d_42">
      <path d="M 32.685756 86.793825 
L 227.985756 86.793825 
" clip-path="url(#p3227d3407b)" style="fill: none; stroke-dasharray: 1.85,0.8; stroke-dashoffset: 0; stroke: #000000; stroke-opacity: 0.5; stroke-width: 0.5"/>
     </g>
     <g id="line2d_43">
      <g>
       <use xlink:href="#maa91f8faba" x="32.685756" y="86.793825" style="stroke: #000000; stroke-width: 0.5"/>
      </g>
     </g>
     <g id="line2d_44">
      <g>
       <use xlink:href="#m95c8339322" x="227.985756" y="86.793825" style="stroke: #000000; stroke-width: 0.5"/>
      </g>
     </g>
     <g id="text_7">
      <!-- $\mathdefault{0.2}$ -->
      <g transform="translate(16.455677 90.253074) scale(0.1 -0.1)">
       <defs>
        <path id="CMR17-32" d="M 2669 989 
L 2554 989 
C 2490 536 2438 459 2413 420 
C 2381 369 1920 369 1830 369 
L 602 369 
C 832 619 1280 1072 1824 1597 
C 2214 1967 2669 2402 2669 3035 
C 2669 3790 2067 4224 1395 4224 
C 691 4224 262 3604 262 3030 
C 262 2780 448 2748 525 2748 
C 589 2748 781 2787 781 3010 
C 781 3207 614 3264 525 3264 
C 486 3264 448 3258 422 3245 
C 544 3790 915 4058 1306 4058 
C 1862 4058 2227 3617 2227 3035 
C 2227 2479 1901 2000 1536 1584 
L 262 146 
L 262 0 
L 2515 0 
L 2669 989 
z
" transform="scale(0.015625)"/>
       </defs>
       <use xlink:href="#CMR17-30" transform="scale(0.996264)"/>
       <use xlink:href="#CMMI12-3a" transform="translate(45.690477 0) scale(0.996264)"/>
       <use xlink:href="#CMR17-32" transform="translate(72.787654 0) scale(0.996264)"/>
      </g>
     </g>
    </g>
    <g id="ytick_4">
     <g id="line2d_45">
      <path d="M 32.685756 55.625737 
L 227.985756 55.625737 
" clip-path="url(#p3227d3407b)" style="fill: none; stroke-dasharray: 1.85,0.8; stroke-dashoffset: 0; stroke: #000000; stroke-opacity: 0.5; stroke-width: 0.5"/>
     </g>
     <g id="line2d_46">
      <g>
       <use xlink:href="#maa91f8faba" x="32.685756" y="55.625737" style="stroke: #000000; stroke-width: 0.5"/>
      </g>
     </g>
     <g id="line2d_47">
      <g>
       <use xlink:href="#m95c8339322" x="227.985756" y="55.625737" style="stroke: #000000; stroke-width: 0.5"/>
      </g>
     </g>
     <g id="text_8">
      <!-- $\mathdefault{0.3}$ -->
      <g transform="translate(16.455677 59.084986) scale(0.1 -0.1)">
       <defs>
        <path id="CMR17-33" d="M 1414 2157 
C 1984 2157 2234 1662 2234 1090 
C 2234 320 1824 25 1453 25 
C 1114 25 563 194 390 693 
C 422 680 454 680 486 680 
C 640 680 755 782 755 948 
C 755 1133 614 1216 486 1216 
C 378 1216 211 1165 211 926 
C 211 335 787 -128 1466 -128 
C 2176 -128 2720 430 2720 1085 
C 2720 1707 2208 2157 1600 2227 
C 2086 2328 2554 2756 2554 3329 
C 2554 3820 2048 4179 1472 4179 
C 890 4179 378 3829 378 3329 
C 378 3110 544 3072 627 3072 
C 762 3072 877 3155 877 3321 
C 877 3486 762 3569 627 3569 
C 602 3569 570 3569 544 3557 
C 730 3959 1235 4032 1459 4032 
C 1683 4032 2106 3925 2106 3320 
C 2106 3143 2080 2828 1862 2550 
C 1670 2304 1453 2304 1242 2284 
C 1210 2284 1062 2269 1037 2269 
C 992 2263 966 2257 966 2208 
C 966 2163 973 2157 1101 2157 
L 1414 2157 
z
" transform="scale(0.015625)"/>
       </defs>
       <use xlink:href="#CMR17-30" transform="scale(0.996264)"/>
       <use xlink:href="#CMMI12-3a" transform="translate(45.690477 0) scale(0.996264)"/>
       <use xlink:href="#CMR17-33" transform="translate(72.787654 0) scale(0.996264)"/>
      </g>
     </g>
    </g>
    <g id="ytick_5">
     <g id="line2d_48">
      <path d="M 32.685756 24.457649 
L 227.985756 24.457649 
" clip-path="url(#p3227d3407b)" style="fill: none; stroke-dasharray: 1.85,0.8; stroke-dashoffset: 0; stroke: #000000; stroke-opacity: 0.5; stroke-width: 0.5"/>
     </g>
     <g id="line2d_49">
      <g>
       <use xlink:href="#maa91f8faba" x="32.685756" y="24.457649" style="stroke: #000000; stroke-width: 0.5"/>
      </g>
     </g>
     <g id="line2d_50">
      <g>
       <use xlink:href="#m95c8339322" x="227.985756" y="24.457649" style="stroke: #000000; stroke-width: 0.5"/>
      </g>
     </g>
     <g id="text_9">
      <!-- $\mathdefault{0.4}$ -->
      <g transform="translate(16.455677 27.916898) scale(0.1 -0.1)">
       <defs>
        <path id="CMR17-34" d="M 2150 4122 
C 2150 4256 2144 4256 2029 4256 
L 128 1254 
L 128 1088 
L 1779 1088 
L 1779 457 
C 1779 224 1766 160 1318 160 
L 1197 160 
L 1197 0 
C 1402 0 1747 0 1965 0 
C 2182 0 2528 0 2733 0 
L 2733 160 
L 2611 160 
C 2163 160 2150 224 2150 457 
L 2150 1088 
L 2803 1088 
L 2803 1254 
L 2150 1254 
L 2150 4122 
z
M 1798 3703 
L 1798 1254 
L 256 1254 
L 1798 3703 
z
" transform="scale(0.015625)"/>
       </defs>
       <use xlink:href="#CMR17-30" transform="scale(0.996264)"/>
       <use xlink:href="#CMMI12-3a" transform="translate(45.690477 0) scale(0.996264)"/>
       <use xlink:href="#CMR17-34" transform="translate(72.787654 0) scale(0.996264)"/>
      </g>
     </g>
    </g>
    <g id="ytick_6">
     <g id="line2d_51">
      <defs>
       <path id="mbe52e76085" d="M 0 0 
L 1.5 0 
" style="stroke: #000000; stroke-width: 0.5"/>
      </defs>
      <g>
       <use xlink:href="#mbe52e76085" x="32.685756" y="142.896382" style="stroke: #000000; stroke-width: 0.5"/>
      </g>
     </g>
     <g id="line2d_52">
      <defs>
       <path id="md473a5d4d8" d="M 0 0 
L -1.5 0 
" style="stroke: #000000; stroke-width: 0.5"/>
      </defs>
      <g>
       <use xlink:href="#md473a5d4d8" x="227.985756" y="142.896382" style="stroke: #000000; stroke-width: 0.5"/>
      </g>
     </g>
    </g>
    <g id="ytick_7">
     <g id="line2d_53">
      <g>
       <use xlink:href="#mbe52e76085" x="32.685756" y="136.662765" style="stroke: #000000; stroke-width: 0.5"/>
      </g>
     </g>
     <g id="line2d_54">
      <g>
       <use xlink:href="#md473a5d4d8" x="227.985756" y="136.662765" style="stroke: #000000; stroke-width: 0.5"/>
      </g>
     </g>
    </g>
    <g id="ytick_8">
     <g id="line2d_55">
      <g>
       <use xlink:href="#mbe52e76085" x="32.685756" y="130.429147" style="stroke: #000000; stroke-width: 0.5"/>
      </g>
     </g>
     <g id="line2d_56">
      <g>
       <use xlink:href="#md473a5d4d8" x="227.985756" y="130.429147" style="stroke: #000000; stroke-width: 0.5"/>
      </g>
     </g>
    </g>
    <g id="ytick_9">
     <g id="line2d_57">
      <g>
       <use xlink:href="#mbe52e76085" x="32.685756" y="124.19553" style="stroke: #000000; stroke-width: 0.5"/>
      </g>
     </g>
     <g id="line2d_58">
      <g>
       <use xlink:href="#md473a5d4d8" x="227.985756" y="124.19553" style="stroke: #000000; stroke-width: 0.5"/>
      </g>
     </g>
    </g>
    <g id="ytick_10">
     <g id="line2d_59">
      <g>
       <use xlink:href="#mbe52e76085" x="32.685756" y="111.728295" style="stroke: #000000; stroke-width: 0.5"/>
      </g>
     </g>
     <g id="line2d_60">
      <g>
       <use xlink:href="#md473a5d4d8" x="227.985756" y="111.728295" style="stroke: #000000; stroke-width: 0.5"/>
      </g>
     </g>
    </g>
    <g id="ytick_11">
     <g id="line2d_61">
      <g>
       <use xlink:href="#mbe52e76085" x="32.685756" y="105.494677" style="stroke: #000000; stroke-width: 0.5"/>
      </g>
     </g>
     <g id="line2d_62">
      <g>
       <use xlink:href="#md473a5d4d8" x="227.985756" y="105.494677" style="stroke: #000000; stroke-width: 0.5"/>
      </g>
     </g>
    </g>
    <g id="ytick_12">
     <g id="line2d_63">
      <g>
       <use xlink:href="#mbe52e76085" x="32.685756" y="99.26106" style="stroke: #000000; stroke-width: 0.5"/>
      </g>
     </g>
     <g id="line2d_64">
      <g>
       <use xlink:href="#md473a5d4d8" x="227.985756" y="99.26106" style="stroke: #000000; stroke-width: 0.5"/>
      </g>
     </g>
    </g>
    <g id="ytick_13">
     <g id="line2d_65">
      <g>
       <use xlink:href="#mbe52e76085" x="32.685756" y="93.027442" style="stroke: #000000; stroke-width: 0.5"/>
      </g>
     </g>
     <g id="line2d_66">
      <g>
       <use xlink:href="#md473a5d4d8" x="227.985756" y="93.027442" style="stroke: #000000; stroke-width: 0.5"/>
      </g>
     </g>
    </g>
    <g id="ytick_14">
     <g id="line2d_67">
      <g>
       <use xlink:href="#mbe52e76085" x="32.685756" y="80.560207" style="stroke: #000000; stroke-width: 0.5"/>
      </g>
     </g>
     <g id="line2d_68">
      <g>
       <use xlink:href="#md473a5d4d8" x="227.985756" y="80.560207" style="stroke: #000000; stroke-width: 0.5"/>
      </g>
     </g>
    </g>
    <g id="ytick_15">
     <g id="line2d_69">
      <g>
       <use xlink:href="#mbe52e76085" x="32.685756" y="74.326589" style="stroke: #000000; stroke-width: 0.5"/>
      </g>
     </g>
     <g id="line2d_70">
      <g>
       <use xlink:href="#md473a5d4d8" x="227.985756" y="74.326589" style="stroke: #000000; stroke-width: 0.5"/>
      </g>
     </g>
    </g>
    <g id="ytick_16">
     <g id="line2d_71">
      <g>
       <use xlink:href="#mbe52e76085" x="32.685756" y="68.092972" style="stroke: #000000; stroke-width: 0.5"/>
      </g>
     </g>
     <g id="line2d_72">
      <g>
       <use xlink:href="#md473a5d4d8" x="227.985756" y="68.092972" style="stroke: #000000; stroke-width: 0.5"/>
      </g>
     </g>
    </g>
    <g id="ytick_17">
     <g id="line2d_73">
      <g>
       <use xlink:href="#mbe52e76085" x="32.685756" y="61.859354" style="stroke: #000000; stroke-width: 0.5"/>
      </g>
     </g>
     <g id="line2d_74">
      <g>
       <use xlink:href="#md473a5d4d8" x="227.985756" y="61.859354" style="stroke: #000000; stroke-width: 0.5"/>
      </g>
     </g>
    </g>
    <g id="ytick_18">
     <g id="line2d_75">
      <g>
       <use xlink:href="#mbe52e76085" x="32.685756" y="49.392119" style="stroke: #000000; stroke-width: 0.5"/>
      </g>
     </g>
     <g id="line2d_76">
      <g>
       <use xlink:href="#md473a5d4d8" x="227.985756" y="49.392119" style="stroke: #000000; stroke-width: 0.5"/>
      </g>
     </g>
    </g>
    <g id="ytick_19">
     <g id="line2d_77">
      <g>
       <use xlink:href="#mbe52e76085" x="32.685756" y="43.158502" style="stroke: #000000; stroke-width: 0.5"/>
      </g>
     </g>
     <g id="line2d_78">
      <g>
       <use xlink:href="#md473a5d4d8" x="227.985756" y="43.158502" style="stroke: #000000; stroke-width: 0.5"/>
      </g>
     </g>
    </g>
    <g id="ytick_20">
     <g id="line2d_79">
      <g>
       <use xlink:href="#mbe52e76085" x="32.685756" y="36.924884" style="stroke: #000000; stroke-width: 0.5"/>
      </g>
     </g>
     <g id="line2d_80">
      <g>
       <use xlink:href="#md473a5d4d8" x="227.985756" y="36.924884" style="stroke: #000000; stroke-width: 0.5"/>
      </g>
     </g>
    </g>
    <g id="ytick_21">
     <g id="line2d_81">
      <g>
       <use xlink:href="#mbe52e76085" x="32.685756" y="30.691267" style="stroke: #000000; stroke-width: 0.5"/>
      </g>
     </g>
     <g id="line2d_82">
      <g>
       <use xlink:href="#md473a5d4d8" x="227.985756" y="30.691267" style="stroke: #000000; stroke-width: 0.5"/>
      </g>
     </g>
    </g>
    <g id="ytick_22">
     <g id="line2d_83">
      <g>
       <use xlink:href="#mbe52e76085" x="32.685756" y="18.224032" style="stroke: #000000; stroke-width: 0.5"/>
      </g>
     </g>
     <g id="line2d_84">
      <g>
       <use xlink:href="#md473a5d4d8" x="227.985756" y="18.224032" style="stroke: #000000; stroke-width: 0.5"/>
      </g>
     </g>
    </g>
    <g id="ytick_23">
     <g id="line2d_85">
      <g>
       <use xlink:href="#mbe52e76085" x="32.685756" y="11.990414" style="stroke: #000000; stroke-width: 0.5"/>
      </g>
     </g>
     <g id="line2d_86">
      <g>
       <use xlink:href="#md473a5d4d8" x="227.985756" y="11.990414" style="stroke: #000000; stroke-width: 0.5"/>
      </g>
     </g>
    </g>
    <g id="ytick_24">
     <g id="line2d_87">
      <g>
       <use xlink:href="#mbe52e76085" x="32.685756" y="5.756796" style="stroke: #000000; stroke-width: 0.5"/>
      </g>
     </g>
     <g id="line2d_88">
      <g>
       <use xlink:href="#md473a5d4d8" x="227.985756" y="5.756796" style="stroke: #000000; stroke-width: 0.5"/>
      </g>
     </g>
    </g>
    <g id="text_10">
     <!-- Density -->
     <g transform="translate(10.518498 92.92792) rotate(-90) scale(0.1 -0.1)">
      <defs>
       <path id="CMR17-44" d="M 333 4352 
L 333 4186 
C 774 4186 845 4186 845 3900 
L 845 452 
C 845 166 774 166 333 166 
L 333 0 
L 2368 0 
C 3398 0 4224 943 4224 2141 
C 4224 3346 3411 4352 2368 4352 
L 333 4352 
z
M 1523 166 
C 1267 166 1254 197 1254 414 
L 1254 3938 
C 1254 4155 1267 4186 1523 4186 
L 2240 4186 
C 2771 4186 3750 3874 3750 2141 
C 3750 1242 3488 879 3366 707 
C 3213 510 2848 166 2240 166 
L 1523 166 
z
" transform="scale(0.015625)"/>
       <path id="CMR17-65" d="M 2438 1472 
C 2464 1498 2464 1511 2464 1576 
C 2464 2238 2118 2816 1389 2816 
C 710 2816 173 2169 173 1383 
C 173 551 781 -64 1459 -64 
C 2176 -64 2458 607 2458 740 
C 2458 784 2419 784 2406 784 
C 2362 784 2355 771 2330 696 
C 2189 265 1837 51 1504 51 
C 1229 51 954 203 781 480 
C 582 803 582 1176 582 1472 
L 2438 1472 
z
M 589 1568 
C 634 2505 1126 2714 1382 2714 
C 1818 2714 2112 2297 2118 1568 
L 589 1568 
z
" transform="scale(0.015625)"/>
       <path id="CMR17-6e" d="M 2656 1933 
C 2656 2259 2592 2790 1837 2790 
C 1331 2790 1069 2400 973 2144 
L 966 2144 
L 966 2790 
L 211 2720 
L 211 2554 
C 589 2554 646 2515 646 2208 
L 646 428 
C 646 184 621 153 211 153 
L 211 -13 
C 365 0 646 0 813 0 
C 979 0 1267 0 1421 -13 
L 1421 153 
C 1011 153 986 178 986 428 
L 986 1658 
C 986 2247 1344 2688 1792 2688 
C 2266 2688 2317 2266 2317 1958 
L 2317 428 
C 2317 184 2291 153 1882 153 
L 1882 -13 
C 2035 0 2317 0 2483 0 
C 2650 0 2938 0 3091 -13 
L 3091 153 
C 2682 153 2656 178 2656 428 
L 2656 1933 
z
" transform="scale(0.015625)"/>
       <path id="CMR17-73" d="M 1978 2697 
C 1978 2813 1971 2819 1933 2819 
C 1907 2819 1901 2813 1824 2717 
C 1805 2691 1747 2626 1728 2601 
C 1523 2819 1235 2819 1126 2819 
C 416 2819 160 2447 160 2076 
C 160 1498 813 1365 998 1325 
C 1402 1243 1542 1217 1677 1101 
C 1760 1025 1901 884 1901 654 
C 1901 384 1747 38 1158 38 
C 602 38 403 460 288 1021 
C 269 1110 269 1117 218 1117 
C 166 1117 160 1110 160 983 
L 160 63 
C 160 -51 166 -58 205 -58 
C 237 -58 243 -51 275 0 
C 314 57 410 211 448 276 
C 576 103 800 -64 1158 -64 
C 1792 -64 2131 283 2131 784 
C 2131 1112 1958 1285 1875 1362 
C 1683 1561 1459 1606 1190 1657 
C 838 1735 390 1825 390 2217 
C 390 2383 480 2737 1126 2737 
C 1811 2737 1850 2094 1862 1888 
C 1869 1856 1901 1849 1920 1849 
C 1978 1849 1978 1869 1978 1978 
L 1978 2697 
z
" transform="scale(0.015625)"/>
       <path id="CMR17-69" d="M 992 3909 
C 992 4049 877 4170 730 4170 
C 589 4170 467 4056 467 3909 
C 467 3769 582 3648 730 3648 
C 870 3648 992 3763 992 3909 
z
M 243 2706 
L 243 2541 
C 602 2541 653 2502 653 2197 
L 653 427 
C 653 184 627 153 218 153 
L 218 -13 
C 371 0 646 0 806 0 
C 960 0 1222 0 1370 -13 
L 1370 153 
C 992 153 979 191 979 420 
L 979 2776 
L 243 2706 
z
" transform="scale(0.015625)"/>
       <path id="CMR17-74" d="M 966 2560 
L 1862 2560 
L 1862 2725 
L 966 2725 
L 966 3904 
L 851 3904 
C 838 3245 614 2668 70 2668 
L 70 2560 
L 627 2560 
L 627 771 
C 627 650 627 -64 1370 -64 
C 1747 -64 1965 306 1965 777 
L 1965 1140 
L 1850 1140 
L 1850 783 
C 1850 344 1677 51 1408 51 
C 1222 51 966 178 966 758 
L 966 2560 
z
" transform="scale(0.015625)"/>
       <path id="CMR17-79" d="M 2496 2197 
C 2656 2586 2944 2586 3034 2586 
L 3034 2752 
C 2912 2752 2752 2752 2630 2752 
C 2496 2752 2285 2752 2157 2758 
L 2157 2592 
C 2400 2573 2406 2394 2406 2343 
C 2406 2280 2394 2248 2362 2171 
L 1664 449 
L 902 2306 
C 870 2382 870 2426 870 2433 
C 870 2573 1018 2586 1171 2586 
L 1171 2758 
C 1018 2752 742 2752 582 2752 
C 410 2752 205 2752 64 2758 
L 64 2586 
C 410 2586 448 2554 531 2350 
L 1485 15 
C 1197 -738 1030 -1178 627 -1178 
C 557 -1178 397 -1159 282 -1044 
C 429 -1031 493 -942 493 -833 
C 493 -725 416 -629 288 -629 
C 147 -629 77 -725 77 -840 
C 77 -1095 339 -1280 627 -1280 
C 998 -1280 1229 -922 1357 -604 
L 2496 2197 
z
" transform="scale(0.015625)"/>
      </defs>
      <use xlink:href="#CMR17-44" transform="scale(0.996264)"/>
      <use xlink:href="#CMR17-65" transform="translate(70.393556 0) scale(0.996264)"/>
      <use xlink:href="#CMR17-6e" transform="translate(110.879216 0) scale(0.996264)"/>
      <use xlink:href="#CMR17-73" transform="translate(161.774586 0) scale(0.996264)"/>
      <use xlink:href="#CMR17-69" transform="translate(197.575924 0) scale(0.996264)"/>
      <use xlink:href="#CMR17-74" transform="translate(222.446982 0) scale(0.996264)"/>
      <use xlink:href="#CMR17-79" transform="translate(255.125296 0) scale(0.996264)"/>
     </g>
    </g>
   </g>
   <g id="PolyCollection_1">
    <defs>
     <path id="m6cb6058520" d="M 41.563028 -29.95483 
L 41.563028 -29.918317 
L 42.455217 -29.918317 
L 43.347405 -29.918317 
L 44.239593 -29.918317 
L 45.131781 -29.918317 
L 46.023969 -29.918317 
L 46.916158 -29.918317 
L 47.808346 -29.918317 
L 48.700534 -29.918317 
L 49.592722 -29.918317 
L 50.484911 -29.918317 
L 51.377099 -29.918317 
L 52.269287 -29.918317 
L 53.161475 -29.918317 
L 54.053663 -29.918317 
L 54.945852 -29.918317 
L 55.83804 -29.918317 
L 56.730228 -29.918317 
L 57.622416 -29.918317 
L 58.514604 -29.918317 
L 59.406793 -29.918317 
L 60.298981 -29.918317 
L 61.191169 -29.918317 
L 62.083357 -29.918317 
L 62.975546 -29.918317 
L 63.867734 -29.918317 
L 64.759922 -29.918317 
L 65.65211 -29.918317 
L 66.544298 -29.918317 
L 67.436487 -29.918317 
L 68.328675 -29.918317 
L 69.220863 -29.918317 
L 70.113051 -29.918317 
L 71.005239 -29.918317 
L 71.897428 -29.918317 
L 72.789616 -29.918317 
L 73.681804 -29.918317 
L 74.573992 -29.918317 
L 75.466181 -29.918317 
L 76.358369 -29.918317 
L 77.250557 -29.918317 
L 78.142745 -29.918317 
L 79.034933 -29.918317 
L 79.927122 -29.918317 
L 80.81931 -29.918317 
L 81.711498 -29.918317 
L 82.603686 -29.918317 
L 83.495874 -29.918317 
L 84.388063 -29.918317 
L 85.280251 -29.918317 
L 86.172439 -29.918317 
L 87.064627 -29.918317 
L 87.956816 -29.918317 
L 88.849004 -29.918317 
L 89.741192 -29.918317 
L 90.63338 -29.918317 
L 91.525568 -29.918317 
L 92.417757 -29.918317 
L 93.309945 -29.918317 
L 94.202133 -29.918317 
L 95.094321 -29.918317 
L 95.986509 -29.918317 
L 96.878698 -29.918317 
L 97.770886 -29.918317 
L 98.663074 -29.918317 
L 99.555262 -29.918317 
L 100.447451 -29.918317 
L 101.339639 -29.918317 
L 102.231827 -29.918317 
L 103.124015 -29.918317 
L 104.016203 -29.918317 
L 104.908392 -29.918317 
L 105.80058 -29.918317 
L 106.692768 -29.918317 
L 107.584956 -29.918317 
L 108.477144 -29.918317 
L 109.369333 -29.918317 
L 110.261521 -29.918317 
L 111.153709 -29.918317 
L 112.045897 -29.918317 
L 112.938086 -29.918317 
L 113.830274 -29.918317 
L 114.722462 -29.918317 
L 115.61465 -29.918317 
L 116.506838 -29.918317 
L 117.399027 -29.918317 
L 118.291215 -29.918317 
L 119.183403 -29.918317 
L 120.075591 -29.918317 
L 120.967779 -29.918317 
L 121.859968 -29.918317 
L 122.752156 -29.918317 
L 123.644344 -29.918317 
L 124.536532 -29.918317 
L 125.428721 -29.918317 
L 126.320909 -29.918317 
L 127.213097 -29.918317 
L 128.105285 -29.918317 
L 128.997473 -29.918317 
L 129.889662 -29.918317 
L 130.78185 -29.918317 
L 131.674038 -29.918317 
L 132.566226 -29.918317 
L 133.458414 -29.918317 
L 134.350603 -29.918317 
L 135.242791 -29.918317 
L 136.134979 -29.918317 
L 137.027167 -29.918317 
L 137.919356 -29.918317 
L 138.811544 -29.918317 
L 139.703732 -29.918317 
L 140.59592 -29.918317 
L 141.488108 -29.918317 
L 142.380297 -29.918317 
L 143.272485 -29.918317 
L 144.164673 -29.918317 
L 145.056861 -29.918317 
L 145.949049 -29.918317 
L 146.841238 -29.918317 
L 147.733426 -29.918317 
L 148.625614 -29.918317 
L 149.517802 -29.918317 
L 150.40999 -29.918317 
L 151.302179 -29.918317 
L 152.194367 -29.918317 
L 153.086555 -29.918317 
L 153.978743 -29.918317 
L 154.870932 -29.918317 
L 155.76312 -29.918317 
L 156.655308 -29.918317 
L 157.547496 -29.918317 
L 158.439684 -29.918317 
L 159.331873 -29.918317 
L 160.224061 -29.918317 
L 161.116249 -29.918317 
L 162.008437 -29.918317 
L 162.900625 -29.918317 
L 163.792814 -29.918317 
L 164.685002 -29.918317 
L 165.57719 -29.918317 
L 166.469378 -29.918317 
L 167.361567 -29.918317 
L 168.253755 -29.918317 
L 169.145943 -29.918317 
L 170.038131 -29.918317 
L 170.930319 -29.918317 
L 171.822508 -29.918317 
L 172.714696 -29.918317 
L 173.606884 -29.918317 
L 174.499072 -29.918317 
L 175.39126 -29.918317 
L 176.283449 -29.918317 
L 177.175637 -29.918317 
L 178.067825 -29.918317 
L 178.960013 -29.918317 
L 179.852202 -29.918317 
L 180.74439 -29.918317 
L 181.636578 -29.918317 
L 182.528766 -29.918317 
L 183.420954 -29.918317 
L 184.313143 -29.918317 
L 185.205331 -29.918317 
L 186.097519 -29.918317 
L 186.989707 -29.918317 
L 187.881895 -29.918317 
L 188.774084 -29.918317 
L 189.666272 -29.918317 
L 190.55846 -29.918317 
L 191.450648 -29.918317 
L 192.342837 -29.918317 
L 193.235025 -29.918317 
L 194.127213 -29.918317 
L 195.019401 -29.918317 
L 195.911589 -29.918317 
L 196.803778 -29.918317 
L 197.695966 -29.918317 
L 198.588154 -29.918317 
L 199.480342 -29.918317 
L 200.37253 -29.918317 
L 201.264719 -29.918317 
L 202.156907 -29.918317 
L 203.049095 -29.918317 
L 203.941283 -29.918317 
L 204.833472 -29.918317 
L 205.72566 -29.918317 
L 206.617848 -29.918317 
L 207.510036 -29.918317 
L 208.402224 -29.918317 
L 209.294413 -29.918317 
L 210.186601 -29.918317 
L 211.078789 -29.918317 
L 211.970977 -29.918317 
L 212.863165 -29.918317 
L 213.755354 -29.918317 
L 214.647542 -29.918317 
L 215.53973 -29.918317 
L 216.431918 -29.918317 
L 217.324107 -29.918317 
L 218.216295 -29.918317 
L 219.108483 -29.918317 
L 219.108483 -29.950652 
L 219.108483 -29.950652 
L 218.216295 -29.962237 
L 217.324107 -29.977368 
L 216.431918 -29.996909 
L 215.53973 -30.021864 
L 214.647542 -30.05338 
L 213.755354 -30.092741 
L 212.863165 -30.141355 
L 211.970977 -30.200739 
L 211.078789 -30.272482 
L 210.186601 -30.358217 
L 209.294413 -30.459569 
L 208.402224 -30.578106 
L 207.510036 -30.715288 
L 206.617848 -30.872411 
L 205.72566 -31.050556 
L 204.833472 -31.25055 
L 203.941283 -31.472936 
L 203.049095 -31.717954 
L 202.156907 -31.985541 
L 201.264719 -32.275352 
L 200.37253 -32.586783 
L 199.480342 -32.919019 
L 198.588154 -33.271078 
L 197.695966 -33.641861 
L 196.803778 -34.030188 
L 195.911589 -34.434826 
L 195.019401 -34.854493 
L 194.127213 -35.287842 
L 193.235025 -35.733418 
L 192.342837 -36.189595 
L 191.450648 -36.6545 
L 190.55846 -37.125924 
L 189.666272 -37.601256 
L 188.774084 -38.077423 
L 187.881895 -38.55088 
L 186.989707 -39.017647 
L 186.097519 -39.473417 
L 185.205331 -39.91374 
L 184.313143 -40.33428 
L 183.420954 -40.731166 
L 182.528766 -41.101413 
L 181.636578 -41.443407 
L 180.74439 -41.757451 
L 179.852202 -42.046339 
L 178.960013 -42.315943 
L 178.067825 -42.575797 
L 177.175637 -42.839642 
L 176.283449 -43.12591 
L 175.39126 -43.458122 
L 174.499072 -43.865165 
L 173.606884 -44.381414 
L 172.714696 -45.046659 
L 171.822508 -45.905792 
L 170.930319 -47.008215 
L 170.038131 -48.40691 
L 169.145943 -50.157136 
L 168.253755 -52.314716 
L 167.361567 -54.933901 
L 166.469378 -58.064807 
L 165.57719 -61.750488 
L 164.685002 -66.023708 
L 163.792814 -70.903561 
L 162.900625 -76.392095 
L 162.008437 -82.47118 
L 161.116249 -89.099851 
L 160.224061 -96.212401 
L 159.331873 -103.717485 
L 158.439684 -111.498459 
L 157.547496 -119.415125 
L 156.655308 -127.306974 
L 155.76312 -134.99791 
L 154.870932 -142.30232 
L 153.978743 -149.032246 
L 153.086555 -155.005296 
L 152.194367 -160.052834 
L 151.302179 -164.027955 
L 150.40999 -166.812714 
L 149.517802 -168.324097 
L 148.625614 -168.518317 
L 147.733426 -167.393114 
L 146.841238 -164.987873 
L 145.949049 -161.38154 
L 145.056861 -156.688489 
L 144.164673 -151.052616 
L 143.272485 -144.640083 
L 142.380297 -137.631216 
L 141.488108 -130.212089 
L 140.59592 -122.566348 
L 139.703732 -114.867759 
L 138.811544 -107.273888 
L 137.919356 -99.921203 
L 137.027167 -92.921784 
L 136.134979 -86.361646 
L 135.242791 -80.300635 
L 134.350603 -74.773677 
L 133.458414 -69.793152 
L 132.566226 -65.352074 
L 131.674038 -61.427778 
L 130.78185 -57.985794 
L 129.889662 -54.983649 
L 128.997473 -52.374383 
L 128.105285 -50.109603 
L 127.213097 -48.141994 
L 126.320909 -46.427237 
L 125.428721 -44.925341 
L 124.536532 -43.601442 
L 123.644344 -42.426135 
L 122.752156 -41.375441 
L 121.859968 -40.430475 
L 120.967779 -39.576937 
L 120.075591 -38.804472 
L 119.183403 -38.105986 
L 118.291215 -37.476947 
L 117.399027 -36.914723 
L 116.506838 -36.417968 
L 115.61465 -35.986072 
L 114.722462 -35.618674 
L 113.830274 -35.31526 
L 112.938086 -35.074814 
L 112.045897 -34.895554 
L 111.153709 -34.77473 
L 110.261521 -34.708497 
L 109.369333 -34.691861 
L 108.477144 -34.718693 
L 107.584956 -34.781821 
L 106.692768 -34.873186 
L 105.80058 -34.984059 
L 104.908392 -35.105314 
L 104.016203 -35.227736 
L 103.124015 -35.342357 
L 102.231827 -35.440792 
L 101.339639 -35.515573 
L 100.447451 -35.560441 
L 99.555262 -35.5706 
L 98.663074 -35.542908 
L 97.770886 -35.475994 
L 96.878698 -35.370303 
L 95.986509 -35.228055 
L 95.094321 -35.053134 
L 94.202133 -34.850909 
L 93.309945 -34.627982 
L 92.417757 -34.391911 
L 91.525568 -34.150882 
L 90.63338 -33.913374 
L 89.741192 -33.687818 
L 88.849004 -33.482265 
L 87.956816 -33.304081 
L 87.064627 -33.159669 
L 86.172439 -33.054233 
L 85.280251 -32.991587 
L 84.388063 -32.974016 
L 83.495874 -33.002186 
L 82.603686 -33.075114 
L 81.711498 -33.190185 
L 80.81931 -33.343236 
L 79.927122 -33.528682 
L 79.034933 -33.739699 
L 78.142745 -33.968458 
L 77.250557 -34.206388 
L 76.358369 -34.444486 
L 75.466181 -34.673637 
L 74.573992 -34.884954 
L 73.681804 -35.070105 
L 72.789616 -35.221631 
L 71.897428 -35.333219 
L 71.005239 -35.399936 
L 70.113051 -35.418403 
L 69.220863 -35.386888 
L 68.328675 -35.305345 
L 67.436487 -35.175356 
L 66.544298 -35.00002 
L 65.65211 -34.783763 
L 64.759922 -34.532107 
L 63.867734 -34.251392 
L 62.975546 -33.948481 
L 62.083357 -33.630461 
L 61.191169 -33.304356 
L 60.298981 -32.976857 
L 59.406793 -32.654107 
L 58.514604 -32.341516 
L 57.622416 -32.04364 
L 56.730228 -31.764106 
L 55.83804 -31.505594 
L 54.945852 -31.269855 
L 54.053663 -31.057782 
L 53.161475 -30.869496 
L 52.269287 -30.704465 
L 51.377099 -30.561624 
L 50.484911 -30.439507 
L 49.592722 -30.336368 
L 48.700534 -30.250295 
L 47.808346 -30.179309 
L 46.916158 -30.121448 
L 46.023969 -30.074829 
L 45.131781 -30.037697 
L 44.239593 -30.008458 
L 43.347405 -29.985694 
L 42.455217 -29.96817 
L 41.563028 -29.95483 
z
" style="stroke: #4477aa"/>
    </defs>
    <g clip-path="url(#p3227d3407b)">
     <use xlink:href="#m6cb6058520" x="0" y="179.048317" style="fill: #4477aa; fill-opacity: 0.25; stroke: #4477aa"/>
    </g>
   </g>
   <g id="patch_3">
    <path d="M 32.685756 149.13 
L 32.685756 3.6 
" style="fill: none; stroke: #000000; stroke-width: 0.5; stroke-linejoin: miter; stroke-linecap: square"/>
   </g>
   <g id="patch_4">
    <path d="M 227.985756 149.13 
L 227.985756 3.6 
" style="fill: none; stroke: #000000; stroke-width: 0.5; stroke-linejoin: miter; stroke-linecap: square"/>
   </g>
   <g id="patch_5">
    <path d="M 32.685756 149.13 
L 227.985756 149.13 
" style="fill: none; stroke: #000000; stroke-width: 0.5; stroke-linejoin: miter; stroke-linecap: square"/>
   </g>
   <g id="patch_6">
    <path d="M 32.685756 3.6 
L 227.985756 3.6 
" style="fill: none; stroke: #000000; stroke-width: 0.5; stroke-linejoin: miter; stroke-linecap: square"/>
   </g>
  </g>
 </g>
 <defs>
  <clipPath id="p3227d3407b">
   <rect x="32.685756" y="3.6" width="195.3" height="145.53"/>
  </clipPath>
 </defs>
</svg>
