<?xml version="1.0" encoding="utf-8" standalone="no"?>
<!DOCTYPE svg PUBLIC "-//W3C//DTD SVG 1.1//EN"
  "http://www.w3.org/Graphics/SVG/1.1/DTD/svg11.dtd">
<svg xmlns:xlink="http://www.w3.org/1999/xlink" width="250.404133pt" height="179.048317pt" viewBox="0 0 250.404133 179.048317" xmlns="http://www.w3.org/2000/svg" version="1.1">
 <metadata>
  <rdf:RDF xmlns:dc="http://purl.org/dc/elements/1.1/" xmlns:cc="http://creativecommons.org/ns#" xmlns:rdf="http://www.w3.org/1999/02/22-rdf-syntax-ns#">
   <cc:Work>
    <dc:type rdf:resource="http://purl.org/dc/dcmitype/StillImage"/>
    <dc:date>2025-02-26T11:44:18.060805</dc:date>
    <dc:format>image/svg+xml</dc:format>
    <dc:creator>
     <cc:Agent>
      <dc:title>Matplotlib v3.9.2, https://matplotlib.org/</dc:title>
     </cc:Agent>
    </dc:creator>
   </cc:Work>
  </rdf:RDF>
 </metadata>
 <defs>
  <style type="text/css">*{stroke-linejoin: round; stroke-linecap: butt}</style>
 </defs>
 <g id="figure_1">
  <g id="patch_1">
   <path d="M 0 179.048317 
L 250.404133 179.048317 
L 250.404133 0 
L 0 0 
L 0 179.048317 
z
" style="fill: none"/>
  </g>
  <g id="axes_1">
   <g id="patch_2">
    <path d="M 51.504133 149.13 
L 246.804133 149.13 
L 246.804133 3.6 
L 51.504133 3.6 
L 51.504133 149.13 
z
" style="fill: none"/>
   </g>
   <g id="matplotlib.axis_1">
    <g id="xtick_1">
     <g id="line2d_1">
      <defs>
       <path id="m2b26308c34" d="M 0 0 
L 0 -3 
" style="stroke: #000000; stroke-width: 0.5"/>
      </defs>
      <g>
       <use xlink:href="#m2b26308c34" x="60.381406" y="149.13" style="stroke: #000000; stroke-width: 0.5"/>
      </g>
     </g>
     <g id="line2d_2">
      <defs>
       <path id="m6baaee8a36" d="M 0 0 
L 0 3 
" style="stroke: #000000; stroke-width: 0.5"/>
      </defs>
      <g>
       <use xlink:href="#m6baaee8a36" x="60.381406" y="3.6" style="stroke: #000000; stroke-width: 0.5"/>
      </g>
     </g>
     <g id="text_1">
      <!-- $\mathdefault{−0.10}$ -->
      <g transform="translate(47.651327 159.548498) scale(0.1 -0.1)">
       <defs>
        <path id="CMSY10-0" d="M 4218 1472 
C 4326 1472 4442 1472 4442 1600 
C 4442 1728 4326 1728 4218 1728 
L 755 1728 
C 646 1728 531 1728 531 1600 
C 531 1472 646 1472 755 1472 
L 4218 1472 
z
" transform="scale(0.015625)"/>
        <path id="CMR17-30" d="M 2688 2025 
C 2688 2416 2682 3080 2413 3591 
C 2176 4039 1798 4198 1466 4198 
C 1158 4198 768 4058 525 3597 
C 269 3118 243 2524 243 2025 
C 243 1661 250 1106 448 619 
C 723 -39 1216 -128 1466 -128 
C 1760 -128 2208 -7 2470 600 
C 2662 1042 2688 1559 2688 2025 
z
M 1466 -26 
C 1056 -26 813 325 723 812 
C 653 1188 653 1738 653 2096 
C 653 2588 653 2997 736 3387 
C 858 3929 1216 4096 1466 4096 
C 1728 4096 2067 3923 2189 3400 
C 2272 3036 2278 2607 2278 2096 
C 2278 1680 2278 1169 2202 792 
C 2067 95 1690 -26 1466 -26 
z
" transform="scale(0.015625)"/>
        <path id="CMMI12-3a" d="M 1178 307 
C 1178 492 1024 619 870 619 
C 685 619 557 466 557 313 
C 557 128 710 0 864 0 
C 1050 0 1178 153 1178 307 
z
" transform="scale(0.015625)"/>
        <path id="CMR17-31" d="M 1702 4058 
C 1702 4192 1696 4192 1606 4192 
C 1357 3916 979 3827 621 3827 
C 602 3827 570 3827 563 3808 
C 557 3795 557 3782 557 3648 
C 755 3648 1088 3686 1344 3839 
L 1344 461 
C 1344 236 1331 160 781 160 
L 589 160 
L 589 0 
C 896 0 1216 0 1523 0 
C 1830 0 2150 0 2458 0 
L 2458 160 
L 2266 160 
C 1715 160 1702 230 1702 458 
L 1702 4058 
z
" transform="scale(0.015625)"/>
       </defs>
       <use xlink:href="#CMSY10-0" transform="scale(0.996264)"/>
       <use xlink:href="#CMR17-30" transform="translate(77.487468 0) scale(0.996264)"/>
       <use xlink:href="#CMMI12-3a" transform="translate(123.177945 0) scale(0.996264)"/>
       <use xlink:href="#CMR17-31" transform="translate(150.275122 0) scale(0.996264)"/>
       <use xlink:href="#CMR17-30" transform="translate(195.965599 0) scale(0.996264)"/>
      </g>
     </g>
    </g>
    <g id="xtick_2">
     <g id="line2d_3">
      <g>
       <use xlink:href="#m2b26308c34" x="104.76777" y="149.13" style="stroke: #000000; stroke-width: 0.5"/>
      </g>
     </g>
     <g id="line2d_4">
      <g>
       <use xlink:href="#m6baaee8a36" x="104.76777" y="3.6" style="stroke: #000000; stroke-width: 0.5"/>
      </g>
     </g>
     <g id="text_2">
      <!-- $\mathdefault{−0.05}$ -->
      <g transform="translate(92.037691 159.548498) scale(0.1 -0.1)">
       <defs>
        <path id="CMR17-35" d="M 730 3692 
C 794 3666 1056 3584 1325 3584 
C 1920 3584 2246 3911 2432 4100 
C 2432 4157 2432 4192 2394 4192 
C 2387 4192 2374 4192 2323 4163 
C 2099 4058 1837 3973 1517 3973 
C 1325 3973 1037 3999 723 4139 
C 653 4171 640 4171 634 4171 
C 602 4171 595 4164 595 4037 
L 595 2203 
C 595 2089 595 2057 659 2057 
C 691 2057 704 2070 736 2114 
C 941 2401 1222 2522 1542 2522 
C 1766 2522 2246 2382 2246 1289 
C 2246 1085 2246 715 2054 421 
C 1894 159 1645 25 1370 25 
C 947 25 518 320 403 814 
C 429 807 480 795 506 795 
C 589 795 749 840 749 1038 
C 749 1210 627 1280 506 1280 
C 358 1280 262 1190 262 1011 
C 262 454 704 -128 1382 -128 
C 2042 -128 2669 440 2669 1264 
C 2669 2030 2170 2624 1549 2624 
C 1222 2624 947 2503 730 2274 
L 730 3692 
z
" transform="scale(0.015625)"/>
       </defs>
       <use xlink:href="#CMSY10-0" transform="scale(0.996264)"/>
       <use xlink:href="#CMR17-30" transform="translate(77.487468 0) scale(0.996264)"/>
       <use xlink:href="#CMMI12-3a" transform="translate(123.177945 0) scale(0.996264)"/>
       <use xlink:href="#CMR17-30" transform="translate(150.275122 0) scale(0.996264)"/>
       <use xlink:href="#CMR17-35" transform="translate(195.965599 0) scale(0.996264)"/>
      </g>
     </g>
    </g>
    <g id="xtick_3">
     <g id="line2d_5">
      <g>
       <use xlink:href="#m2b26308c34" x="149.154133" y="149.13" style="stroke: #000000; stroke-width: 0.5"/>
      </g>
     </g>
     <g id="line2d_6">
      <g>
       <use xlink:href="#m6baaee8a36" x="149.154133" y="3.6" style="stroke: #000000; stroke-width: 0.5"/>
      </g>
     </g>
     <g id="text_3">
      <!-- $\mathdefault{0.00}$ -->
      <g transform="translate(140.298426 159.548498) scale(0.1 -0.1)">
       <use xlink:href="#CMR17-30" transform="scale(0.996264)"/>
       <use xlink:href="#CMMI12-3a" transform="translate(45.690477 0) scale(0.996264)"/>
       <use xlink:href="#CMR17-30" transform="translate(72.787654 0) scale(0.996264)"/>
       <use xlink:href="#CMR17-30" transform="translate(118.478131 0) scale(0.996264)"/>
      </g>
     </g>
    </g>
    <g id="xtick_4">
     <g id="line2d_7">
      <g>
       <use xlink:href="#m2b26308c34" x="193.540497" y="149.13" style="stroke: #000000; stroke-width: 0.5"/>
      </g>
     </g>
     <g id="line2d_8">
      <g>
       <use xlink:href="#m6baaee8a36" x="193.540497" y="3.6" style="stroke: #000000; stroke-width: 0.5"/>
      </g>
     </g>
     <g id="text_4">
      <!-- $\mathdefault{0.05}$ -->
      <g transform="translate(184.68479 159.548498) scale(0.1 -0.1)">
       <use xlink:href="#CMR17-30" transform="scale(0.996264)"/>
       <use xlink:href="#CMMI12-3a" transform="translate(45.690477 0) scale(0.996264)"/>
       <use xlink:href="#CMR17-30" transform="translate(72.787654 0) scale(0.996264)"/>
       <use xlink:href="#CMR17-35" transform="translate(118.478131 0) scale(0.996264)"/>
      </g>
     </g>
    </g>
    <g id="xtick_5">
     <g id="line2d_9">
      <g>
       <use xlink:href="#m2b26308c34" x="237.926861" y="149.13" style="stroke: #000000; stroke-width: 0.5"/>
      </g>
     </g>
     <g id="line2d_10">
      <g>
       <use xlink:href="#m6baaee8a36" x="237.926861" y="3.6" style="stroke: #000000; stroke-width: 0.5"/>
      </g>
     </g>
     <g id="text_5">
      <!-- $\mathdefault{0.10}$ -->
      <g transform="translate(229.071153 159.548498) scale(0.1 -0.1)">
       <use xlink:href="#CMR17-30" transform="scale(0.996264)"/>
       <use xlink:href="#CMMI12-3a" transform="translate(45.690477 0) scale(0.996264)"/>
       <use xlink:href="#CMR17-31" transform="translate(72.787654 0) scale(0.996264)"/>
       <use xlink:href="#CMR17-30" transform="translate(118.478131 0) scale(0.996264)"/>
      </g>
     </g>
    </g>
    <g id="xtick_6">
     <g id="line2d_11">
      <defs>
       <path id="mb5697bf87b" d="M 0 0 
L 0 -1.5 
" style="stroke: #000000; stroke-width: 0.5"/>
      </defs>
      <g>
       <use xlink:href="#mb5697bf87b" x="51.504133" y="149.13" style="stroke: #000000; stroke-width: 0.5"/>
      </g>
     </g>
     <g id="line2d_12">
      <defs>
       <path id="m8de7e881b9" d="M 0 0 
L 0 1.5 
" style="stroke: #000000; stroke-width: 0.5"/>
      </defs>
      <g>
       <use xlink:href="#m8de7e881b9" x="51.504133" y="3.6" style="stroke: #000000; stroke-width: 0.5"/>
      </g>
     </g>
    </g>
    <g id="xtick_7">
     <g id="line2d_13">
      <g>
       <use xlink:href="#mb5697bf87b" x="69.258679" y="149.13" style="stroke: #000000; stroke-width: 0.5"/>
      </g>
     </g>
     <g id="line2d_14">
      <g>
       <use xlink:href="#m8de7e881b9" x="69.258679" y="3.6" style="stroke: #000000; stroke-width: 0.5"/>
      </g>
     </g>
    </g>
    <g id="xtick_8">
     <g id="line2d_15">
      <g>
       <use xlink:href="#mb5697bf87b" x="78.135951" y="149.13" style="stroke: #000000; stroke-width: 0.5"/>
      </g>
     </g>
     <g id="line2d_16">
      <g>
       <use xlink:href="#m8de7e881b9" x="78.135951" y="3.6" style="stroke: #000000; stroke-width: 0.5"/>
      </g>
     </g>
    </g>
    <g id="xtick_9">
     <g id="line2d_17">
      <g>
       <use xlink:href="#mb5697bf87b" x="87.013224" y="149.13" style="stroke: #000000; stroke-width: 0.5"/>
      </g>
     </g>
     <g id="line2d_18">
      <g>
       <use xlink:href="#m8de7e881b9" x="87.013224" y="3.6" style="stroke: #000000; stroke-width: 0.5"/>
      </g>
     </g>
    </g>
    <g id="xtick_10">
     <g id="line2d_19">
      <g>
       <use xlink:href="#mb5697bf87b" x="95.890497" y="149.13" style="stroke: #000000; stroke-width: 0.5"/>
      </g>
     </g>
     <g id="line2d_20">
      <g>
       <use xlink:href="#m8de7e881b9" x="95.890497" y="3.6" style="stroke: #000000; stroke-width: 0.5"/>
      </g>
     </g>
    </g>
    <g id="xtick_11">
     <g id="line2d_21">
      <g>
       <use xlink:href="#mb5697bf87b" x="113.645042" y="149.13" style="stroke: #000000; stroke-width: 0.5"/>
      </g>
     </g>
     <g id="line2d_22">
      <g>
       <use xlink:href="#m8de7e881b9" x="113.645042" y="3.6" style="stroke: #000000; stroke-width: 0.5"/>
      </g>
     </g>
    </g>
    <g id="xtick_12">
     <g id="line2d_23">
      <g>
       <use xlink:href="#mb5697bf87b" x="122.522315" y="149.13" style="stroke: #000000; stroke-width: 0.5"/>
      </g>
     </g>
     <g id="line2d_24">
      <g>
       <use xlink:href="#m8de7e881b9" x="122.522315" y="3.6" style="stroke: #000000; stroke-width: 0.5"/>
      </g>
     </g>
    </g>
    <g id="xtick_13">
     <g id="line2d_25">
      <g>
       <use xlink:href="#mb5697bf87b" x="131.399588" y="149.13" style="stroke: #000000; stroke-width: 0.5"/>
      </g>
     </g>
     <g id="line2d_26">
      <g>
       <use xlink:href="#m8de7e881b9" x="131.399588" y="3.6" style="stroke: #000000; stroke-width: 0.5"/>
      </g>
     </g>
    </g>
    <g id="xtick_14">
     <g id="line2d_27">
      <g>
       <use xlink:href="#mb5697bf87b" x="140.276861" y="149.13" style="stroke: #000000; stroke-width: 0.5"/>
      </g>
     </g>
     <g id="line2d_28">
      <g>
       <use xlink:href="#m8de7e881b9" x="140.276861" y="3.6" style="stroke: #000000; stroke-width: 0.5"/>
      </g>
     </g>
    </g>
    <g id="xtick_15">
     <g id="line2d_29">
      <g>
       <use xlink:href="#mb5697bf87b" x="158.031406" y="149.13" style="stroke: #000000; stroke-width: 0.5"/>
      </g>
     </g>
     <g id="line2d_30">
      <g>
       <use xlink:href="#m8de7e881b9" x="158.031406" y="3.6" style="stroke: #000000; stroke-width: 0.5"/>
      </g>
     </g>
    </g>
    <g id="xtick_16">
     <g id="line2d_31">
      <g>
       <use xlink:href="#mb5697bf87b" x="166.908679" y="149.13" style="stroke: #000000; stroke-width: 0.5"/>
      </g>
     </g>
     <g id="line2d_32">
      <g>
       <use xlink:href="#m8de7e881b9" x="166.908679" y="3.6" style="stroke: #000000; stroke-width: 0.5"/>
      </g>
     </g>
    </g>
    <g id="xtick_17">
     <g id="line2d_33">
      <g>
       <use xlink:href="#mb5697bf87b" x="175.785951" y="149.13" style="stroke: #000000; stroke-width: 0.5"/>
      </g>
     </g>
     <g id="line2d_34">
      <g>
       <use xlink:href="#m8de7e881b9" x="175.785951" y="3.6" style="stroke: #000000; stroke-width: 0.5"/>
      </g>
     </g>
    </g>
    <g id="xtick_18">
     <g id="line2d_35">
      <g>
       <use xlink:href="#mb5697bf87b" x="184.663224" y="149.13" style="stroke: #000000; stroke-width: 0.5"/>
      </g>
     </g>
     <g id="line2d_36">
      <g>
       <use xlink:href="#m8de7e881b9" x="184.663224" y="3.6" style="stroke: #000000; stroke-width: 0.5"/>
      </g>
     </g>
    </g>
    <g id="xtick_19">
     <g id="line2d_37">
      <g>
       <use xlink:href="#mb5697bf87b" x="202.41777" y="149.13" style="stroke: #000000; stroke-width: 0.5"/>
      </g>
     </g>
     <g id="line2d_38">
      <g>
       <use xlink:href="#m8de7e881b9" x="202.41777" y="3.6" style="stroke: #000000; stroke-width: 0.5"/>
      </g>
     </g>
    </g>
    <g id="xtick_20">
     <g id="line2d_39">
      <g>
       <use xlink:href="#mb5697bf87b" x="211.295042" y="149.13" style="stroke: #000000; stroke-width: 0.5"/>
      </g>
     </g>
     <g id="line2d_40">
      <g>
       <use xlink:href="#m8de7e881b9" x="211.295042" y="3.6" style="stroke: #000000; stroke-width: 0.5"/>
      </g>
     </g>
    </g>
    <g id="xtick_21">
     <g id="line2d_41">
      <g>
       <use xlink:href="#mb5697bf87b" x="220.172315" y="149.13" style="stroke: #000000; stroke-width: 0.5"/>
      </g>
     </g>
     <g id="line2d_42">
      <g>
       <use xlink:href="#m8de7e881b9" x="220.172315" y="3.6" style="stroke: #000000; stroke-width: 0.5"/>
      </g>
     </g>
    </g>
    <g id="xtick_22">
     <g id="line2d_43">
      <g>
       <use xlink:href="#mb5697bf87b" x="229.049588" y="149.13" style="stroke: #000000; stroke-width: 0.5"/>
      </g>
     </g>
     <g id="line2d_44">
      <g>
       <use xlink:href="#m8de7e881b9" x="229.049588" y="3.6" style="stroke: #000000; stroke-width: 0.5"/>
      </g>
     </g>
    </g>
    <g id="xtick_23">
     <g id="line2d_45">
      <g>
       <use xlink:href="#mb5697bf87b" x="246.804133" y="149.13" style="stroke: #000000; stroke-width: 0.5"/>
      </g>
     </g>
     <g id="line2d_46">
      <g>
       <use xlink:href="#m8de7e881b9" x="246.804133" y="3.6" style="stroke: #000000; stroke-width: 0.5"/>
      </g>
     </g>
    </g>
    <g id="text_6">
     <!-- $U_0$ [V] -->
     <g transform="translate(135.354472 172.957657) scale(0.1 -0.1)">
      <defs>
       <path id="CMMI12-55" d="M 3238 1474 
C 3014 581 2272 57 1670 57 
C 1210 57 896 363 896 891 
C 896 916 896 1107 966 1387 
L 1594 3887 
C 1651 4103 1664 4167 2118 4167 
C 2234 4167 2298 4167 2298 4282 
C 2298 4352 2240 4352 2202 4352 
C 2086 4352 1952 4352 1830 4352 
L 1075 4352 
C 954 4352 819 4352 698 4352 
C 653 4352 576 4352 576 4231 
C 576 4167 621 4167 742 4167 
C 1126 4167 1126 4116 1126 4046 
C 1126 4008 1082 3824 1050 3715 
L 493 1488 
C 474 1418 435 1246 435 1075 
C 435 374 941 -128 1638 -128 
C 2285 -128 3002 384 3328 1197 
C 3373 1305 3430 1530 3469 1702 
C 3533 1933 3667 2496 3712 2662 
L 3955 3623 
C 4038 3956 4090 4167 4653 4167 
C 4704 4173 4730 4224 4730 4282 
C 4730 4352 4672 4352 4646 4352 
C 4557 4352 4442 4352 4352 4352 
L 4051 4352 
C 3654 4352 3450 4352 3443 4352 
C 3405 4352 3328 4352 3328 4231 
C 3328 4167 3379 4167 3424 4167 
C 3808 4167 3834 4020 3834 3905 
C 3834 3848 3834 3828 3808 3739 
L 3238 1474 
z
" transform="scale(0.015625)"/>
       <path id="CMR17-5b" d="M 1504 -1600 
L 1504 -1377 
L 902 -1377 
L 902 4544 
L 1504 4544 
L 1504 4767 
L 678 4767 
L 678 -1600 
L 1504 -1600 
z
" transform="scale(0.015625)"/>
       <path id="CMR17-56" d="M 3776 3745 
C 3834 3886 3936 4160 4365 4160 
L 4365 4332 
C 4218 4319 4051 4319 3891 4319 
C 3738 4319 3475 4319 3328 4332 
L 3328 4160 
C 3648 4160 3661 3936 3661 3898 
C 3661 3827 3642 3783 3622 3732 
L 2362 446 
L 1043 3886 
C 1024 3931 1011 3963 1011 3994 
C 1011 4160 1267 4160 1402 4160 
L 1402 4319 
C 1197 4319 896 4319 685 4319 
C 518 4319 218 4319 64 4332 
L 64 4160 
C 435 4160 506 4135 582 3931 
L 2106 -26 
C 2138 -115 2144 -128 2214 -128 
C 2285 -128 2291 -115 2323 -26 
L 3776 3745 
z
" transform="scale(0.015625)"/>
       <path id="CMR17-5d" d="M 915 4767 
L 90 4767 
L 90 4544 
L 691 4544 
L 691 -1377 
L 90 -1377 
L 90 -1600 
L 915 -1600 
L 915 4767 
z
" transform="scale(0.015625)"/>
      </defs>
      <use xlink:href="#CMMI12-55" transform="scale(0.996264)"/>
      <use xlink:href="#CMR17-30" transform="translate(66.252119 -14.943915) scale(0.697382)"/>
      <use xlink:href="#CMR17-5b" transform="translate(128.809399 0) scale(0.996264)"/>
      <use xlink:href="#CMR17-56" transform="translate(153.680458 0) scale(0.996264)"/>
      <use xlink:href="#CMR17-5d" transform="translate(222.752888 0) scale(0.996264)"/>
     </g>
    </g>
   </g>
   <g id="matplotlib.axis_2">
    <g id="ytick_1">
     <g id="line2d_47">
      <defs>
       <path id="mbb0d4f7602" d="M 0 0 
L 3 0 
" style="stroke: #000000; stroke-width: 0.5"/>
      </defs>
      <g>
       <use xlink:href="#mbb0d4f7602" x="51.504133" y="145.525465" style="stroke: #000000; stroke-width: 0.5"/>
      </g>
     </g>
     <g id="line2d_48">
      <defs>
       <path id="md122c4f297" d="M 0 0 
L -3 0 
" style="stroke: #000000; stroke-width: 0.5"/>
      </defs>
      <g>
       <use xlink:href="#md122c4f297" x="246.804133" y="145.525465" style="stroke: #000000; stroke-width: 0.5"/>
      </g>
     </g>
     <g id="text_7">
      <!-- $\mathdefault{−0.075}$ -->
      <g transform="translate(17.56264 148.984715) scale(0.1 -0.1)">
       <defs>
        <path id="CMR17-37" d="M 2886 3941 
L 2886 4081 
L 1382 4081 
C 634 4081 621 4165 595 4288 
L 480 4288 
L 294 3094 
L 410 3094 
C 429 3215 474 3540 550 3661 
C 589 3712 1062 3712 1171 3712 
L 2579 3712 
L 1869 2661 
C 1395 1954 1069 999 1069 165 
C 1069 89 1069 -128 1299 -128 
C 1530 -128 1530 89 1530 171 
L 1530 465 
C 1530 1508 1709 2196 2003 2636 
L 2886 3941 
z
" transform="scale(0.015625)"/>
       </defs>
       <use xlink:href="#CMSY10-0" transform="scale(0.996264)"/>
       <use xlink:href="#CMR17-30" transform="translate(77.487468 0) scale(0.996264)"/>
       <use xlink:href="#CMMI12-3a" transform="translate(123.177945 0) scale(0.996264)"/>
       <use xlink:href="#CMR17-30" transform="translate(150.275122 0) scale(0.996264)"/>
       <use xlink:href="#CMR17-37" transform="translate(195.965599 0) scale(0.996264)"/>
       <use xlink:href="#CMR17-35" transform="translate(241.656076 0) scale(0.996264)"/>
      </g>
     </g>
    </g>
    <g id="ytick_2">
     <g id="line2d_49">
      <g>
       <use xlink:href="#mbb0d4f7602" x="51.504133" y="122.508014" style="stroke: #000000; stroke-width: 0.5"/>
      </g>
     </g>
     <g id="line2d_50">
      <g>
       <use xlink:href="#md122c4f297" x="246.804133" y="122.508014" style="stroke: #000000; stroke-width: 0.5"/>
      </g>
     </g>
     <g id="text_8">
      <!-- $\mathdefault{−0.050}$ -->
      <g transform="translate(17.56264 125.967264) scale(0.1 -0.1)">
       <use xlink:href="#CMSY10-0" transform="scale(0.996264)"/>
       <use xlink:href="#CMR17-30" transform="translate(77.487468 0) scale(0.996264)"/>
       <use xlink:href="#CMMI12-3a" transform="translate(123.177945 0) scale(0.996264)"/>
       <use xlink:href="#CMR17-30" transform="translate(150.275122 0) scale(0.996264)"/>
       <use xlink:href="#CMR17-35" transform="translate(195.965599 0) scale(0.996264)"/>
       <use xlink:href="#CMR17-30" transform="translate(241.656076 0) scale(0.996264)"/>
      </g>
     </g>
    </g>
    <g id="ytick_3">
     <g id="line2d_51">
      <g>
       <use xlink:href="#mbb0d4f7602" x="51.504133" y="99.490563" style="stroke: #000000; stroke-width: 0.5"/>
      </g>
     </g>
     <g id="line2d_52">
      <g>
       <use xlink:href="#md122c4f297" x="246.804133" y="99.490563" style="stroke: #000000; stroke-width: 0.5"/>
      </g>
     </g>
     <g id="text_9">
      <!-- $\mathdefault{−0.025}$ -->
      <g transform="translate(17.56264 102.949813) scale(0.1 -0.1)">
       <defs>
        <path id="CMR17-32" d="M 2669 989 
L 2554 989 
C 2490 536 2438 459 2413 420 
C 2381 369 1920 369 1830 369 
L 602 369 
C 832 619 1280 1072 1824 1597 
C 2214 1967 2669 2402 2669 3035 
C 2669 3790 2067 4224 1395 4224 
C 691 4224 262 3604 262 3030 
C 262 2780 448 2748 525 2748 
C 589 2748 781 2787 781 3010 
C 781 3207 614 3264 525 3264 
C 486 3264 448 3258 422 3245 
C 544 3790 915 4058 1306 4058 
C 1862 4058 2227 3617 2227 3035 
C 2227 2479 1901 2000 1536 1584 
L 262 146 
L 262 0 
L 2515 0 
L 2669 989 
z
" transform="scale(0.015625)"/>
       </defs>
       <use xlink:href="#CMSY10-0" transform="scale(0.996264)"/>
       <use xlink:href="#CMR17-30" transform="translate(77.487468 0) scale(0.996264)"/>
       <use xlink:href="#CMMI12-3a" transform="translate(123.177945 0) scale(0.996264)"/>
       <use xlink:href="#CMR17-30" transform="translate(150.275122 0) scale(0.996264)"/>
       <use xlink:href="#CMR17-32" transform="translate(195.965599 0) scale(0.996264)"/>
       <use xlink:href="#CMR17-35" transform="translate(241.656076 0) scale(0.996264)"/>
      </g>
     </g>
    </g>
    <g id="ytick_4">
     <g id="line2d_53">
      <g>
       <use xlink:href="#mbb0d4f7602" x="51.504133" y="76.473112" style="stroke: #000000; stroke-width: 0.5"/>
      </g>
     </g>
     <g id="line2d_54">
      <g>
       <use xlink:href="#md122c4f297" x="246.804133" y="76.473112" style="stroke: #000000; stroke-width: 0.5"/>
      </g>
     </g>
     <g id="text_10">
      <!-- $\mathdefault{0.000}$ -->
      <g transform="translate(25.311384 79.932362) scale(0.1 -0.1)">
       <use xlink:href="#CMR17-30" transform="scale(0.996264)"/>
       <use xlink:href="#CMMI12-3a" transform="translate(45.690477 0) scale(0.996264)"/>
       <use xlink:href="#CMR17-30" transform="translate(72.787654 0) scale(0.996264)"/>
       <use xlink:href="#CMR17-30" transform="translate(118.478131 0) scale(0.996264)"/>
       <use xlink:href="#CMR17-30" transform="translate(164.168608 0) scale(0.996264)"/>
      </g>
     </g>
    </g>
    <g id="ytick_5">
     <g id="line2d_55">
      <g>
       <use xlink:href="#mbb0d4f7602" x="51.504133" y="53.455661" style="stroke: #000000; stroke-width: 0.5"/>
      </g>
     </g>
     <g id="line2d_56">
      <g>
       <use xlink:href="#md122c4f297" x="246.804133" y="53.455661" style="stroke: #000000; stroke-width: 0.5"/>
      </g>
     </g>
     <g id="text_11">
      <!-- $\mathdefault{0.025}$ -->
      <g transform="translate(25.311384 56.91491) scale(0.1 -0.1)">
       <use xlink:href="#CMR17-30" transform="scale(0.996264)"/>
       <use xlink:href="#CMMI12-3a" transform="translate(45.690477 0) scale(0.996264)"/>
       <use xlink:href="#CMR17-30" transform="translate(72.787654 0) scale(0.996264)"/>
       <use xlink:href="#CMR17-32" transform="translate(118.478131 0) scale(0.996264)"/>
       <use xlink:href="#CMR17-35" transform="translate(164.168608 0) scale(0.996264)"/>
      </g>
     </g>
    </g>
    <g id="ytick_6">
     <g id="line2d_57">
      <g>
       <use xlink:href="#mbb0d4f7602" x="51.504133" y="30.43821" style="stroke: #000000; stroke-width: 0.5"/>
      </g>
     </g>
     <g id="line2d_58">
      <g>
       <use xlink:href="#md122c4f297" x="246.804133" y="30.43821" style="stroke: #000000; stroke-width: 0.5"/>
      </g>
     </g>
     <g id="text_12">
      <!-- $\mathdefault{0.050}$ -->
      <g transform="translate(25.311384 33.897459) scale(0.1 -0.1)">
       <use xlink:href="#CMR17-30" transform="scale(0.996264)"/>
       <use xlink:href="#CMMI12-3a" transform="translate(45.690477 0) scale(0.996264)"/>
       <use xlink:href="#CMR17-30" transform="translate(72.787654 0) scale(0.996264)"/>
       <use xlink:href="#CMR17-35" transform="translate(118.478131 0) scale(0.996264)"/>
       <use xlink:href="#CMR17-30" transform="translate(164.168608 0) scale(0.996264)"/>
      </g>
     </g>
    </g>
    <g id="ytick_7">
     <g id="line2d_59">
      <g>
       <use xlink:href="#mbb0d4f7602" x="51.504133" y="7.420759" style="stroke: #000000; stroke-width: 0.5"/>
      </g>
     </g>
     <g id="line2d_60">
      <g>
       <use xlink:href="#md122c4f297" x="246.804133" y="7.420759" style="stroke: #000000; stroke-width: 0.5"/>
      </g>
     </g>
     <g id="text_13">
      <!-- $\mathdefault{0.075}$ -->
      <g transform="translate(25.311384 10.880008) scale(0.1 -0.1)">
       <use xlink:href="#CMR17-30" transform="scale(0.996264)"/>
       <use xlink:href="#CMMI12-3a" transform="translate(45.690477 0) scale(0.996264)"/>
       <use xlink:href="#CMR17-30" transform="translate(72.787654 0) scale(0.996264)"/>
       <use xlink:href="#CMR17-37" transform="translate(118.478131 0) scale(0.996264)"/>
       <use xlink:href="#CMR17-35" transform="translate(164.168608 0) scale(0.996264)"/>
      </g>
     </g>
    </g>
    <g id="ytick_8">
     <g id="line2d_61">
      <defs>
       <path id="m8be3af3218" d="M 0 0 
L 1.5 0 
" style="stroke: #000000; stroke-width: 0.5"/>
      </defs>
      <g>
       <use xlink:href="#m8be3af3218" x="51.504133" y="140.921975" style="stroke: #000000; stroke-width: 0.5"/>
      </g>
     </g>
     <g id="line2d_62">
      <defs>
       <path id="ma3b11be302" d="M 0 0 
L -1.5 0 
" style="stroke: #000000; stroke-width: 0.5"/>
      </defs>
      <g>
       <use xlink:href="#ma3b11be302" x="246.804133" y="140.921975" style="stroke: #000000; stroke-width: 0.5"/>
      </g>
     </g>
    </g>
    <g id="ytick_9">
     <g id="line2d_63">
      <g>
       <use xlink:href="#m8be3af3218" x="51.504133" y="136.318485" style="stroke: #000000; stroke-width: 0.5"/>
      </g>
     </g>
     <g id="line2d_64">
      <g>
       <use xlink:href="#ma3b11be302" x="246.804133" y="136.318485" style="stroke: #000000; stroke-width: 0.5"/>
      </g>
     </g>
    </g>
    <g id="ytick_10">
     <g id="line2d_65">
      <g>
       <use xlink:href="#m8be3af3218" x="51.504133" y="131.714995" style="stroke: #000000; stroke-width: 0.5"/>
      </g>
     </g>
     <g id="line2d_66">
      <g>
       <use xlink:href="#ma3b11be302" x="246.804133" y="131.714995" style="stroke: #000000; stroke-width: 0.5"/>
      </g>
     </g>
    </g>
    <g id="ytick_11">
     <g id="line2d_67">
      <g>
       <use xlink:href="#m8be3af3218" x="51.504133" y="127.111505" style="stroke: #000000; stroke-width: 0.5"/>
      </g>
     </g>
     <g id="line2d_68">
      <g>
       <use xlink:href="#ma3b11be302" x="246.804133" y="127.111505" style="stroke: #000000; stroke-width: 0.5"/>
      </g>
     </g>
    </g>
    <g id="ytick_12">
     <g id="line2d_69">
      <g>
       <use xlink:href="#m8be3af3218" x="51.504133" y="117.904524" style="stroke: #000000; stroke-width: 0.5"/>
      </g>
     </g>
     <g id="line2d_70">
      <g>
       <use xlink:href="#ma3b11be302" x="246.804133" y="117.904524" style="stroke: #000000; stroke-width: 0.5"/>
      </g>
     </g>
    </g>
    <g id="ytick_13">
     <g id="line2d_71">
      <g>
       <use xlink:href="#m8be3af3218" x="51.504133" y="113.301034" style="stroke: #000000; stroke-width: 0.5"/>
      </g>
     </g>
     <g id="line2d_72">
      <g>
       <use xlink:href="#ma3b11be302" x="246.804133" y="113.301034" style="stroke: #000000; stroke-width: 0.5"/>
      </g>
     </g>
    </g>
    <g id="ytick_14">
     <g id="line2d_73">
      <g>
       <use xlink:href="#m8be3af3218" x="51.504133" y="108.697544" style="stroke: #000000; stroke-width: 0.5"/>
      </g>
     </g>
     <g id="line2d_74">
      <g>
       <use xlink:href="#ma3b11be302" x="246.804133" y="108.697544" style="stroke: #000000; stroke-width: 0.5"/>
      </g>
     </g>
    </g>
    <g id="ytick_15">
     <g id="line2d_75">
      <g>
       <use xlink:href="#m8be3af3218" x="51.504133" y="104.094054" style="stroke: #000000; stroke-width: 0.5"/>
      </g>
     </g>
     <g id="line2d_76">
      <g>
       <use xlink:href="#ma3b11be302" x="246.804133" y="104.094054" style="stroke: #000000; stroke-width: 0.5"/>
      </g>
     </g>
    </g>
    <g id="ytick_16">
     <g id="line2d_77">
      <g>
       <use xlink:href="#m8be3af3218" x="51.504133" y="94.887073" style="stroke: #000000; stroke-width: 0.5"/>
      </g>
     </g>
     <g id="line2d_78">
      <g>
       <use xlink:href="#ma3b11be302" x="246.804133" y="94.887073" style="stroke: #000000; stroke-width: 0.5"/>
      </g>
     </g>
    </g>
    <g id="ytick_17">
     <g id="line2d_79">
      <g>
       <use xlink:href="#m8be3af3218" x="51.504133" y="90.283583" style="stroke: #000000; stroke-width: 0.5"/>
      </g>
     </g>
     <g id="line2d_80">
      <g>
       <use xlink:href="#ma3b11be302" x="246.804133" y="90.283583" style="stroke: #000000; stroke-width: 0.5"/>
      </g>
     </g>
    </g>
    <g id="ytick_18">
     <g id="line2d_81">
      <g>
       <use xlink:href="#m8be3af3218" x="51.504133" y="85.680093" style="stroke: #000000; stroke-width: 0.5"/>
      </g>
     </g>
     <g id="line2d_82">
      <g>
       <use xlink:href="#ma3b11be302" x="246.804133" y="85.680093" style="stroke: #000000; stroke-width: 0.5"/>
      </g>
     </g>
    </g>
    <g id="ytick_19">
     <g id="line2d_83">
      <g>
       <use xlink:href="#m8be3af3218" x="51.504133" y="81.076603" style="stroke: #000000; stroke-width: 0.5"/>
      </g>
     </g>
     <g id="line2d_84">
      <g>
       <use xlink:href="#ma3b11be302" x="246.804133" y="81.076603" style="stroke: #000000; stroke-width: 0.5"/>
      </g>
     </g>
    </g>
    <g id="ytick_20">
     <g id="line2d_85">
      <g>
       <use xlink:href="#m8be3af3218" x="51.504133" y="71.869622" style="stroke: #000000; stroke-width: 0.5"/>
      </g>
     </g>
     <g id="line2d_86">
      <g>
       <use xlink:href="#ma3b11be302" x="246.804133" y="71.869622" style="stroke: #000000; stroke-width: 0.5"/>
      </g>
     </g>
    </g>
    <g id="ytick_21">
     <g id="line2d_87">
      <g>
       <use xlink:href="#m8be3af3218" x="51.504133" y="67.266132" style="stroke: #000000; stroke-width: 0.5"/>
      </g>
     </g>
     <g id="line2d_88">
      <g>
       <use xlink:href="#ma3b11be302" x="246.804133" y="67.266132" style="stroke: #000000; stroke-width: 0.5"/>
      </g>
     </g>
    </g>
    <g id="ytick_22">
     <g id="line2d_89">
      <g>
       <use xlink:href="#m8be3af3218" x="51.504133" y="62.662642" style="stroke: #000000; stroke-width: 0.5"/>
      </g>
     </g>
     <g id="line2d_90">
      <g>
       <use xlink:href="#ma3b11be302" x="246.804133" y="62.662642" style="stroke: #000000; stroke-width: 0.5"/>
      </g>
     </g>
    </g>
    <g id="ytick_23">
     <g id="line2d_91">
      <g>
       <use xlink:href="#m8be3af3218" x="51.504133" y="58.059151" style="stroke: #000000; stroke-width: 0.5"/>
      </g>
     </g>
     <g id="line2d_92">
      <g>
       <use xlink:href="#ma3b11be302" x="246.804133" y="58.059151" style="stroke: #000000; stroke-width: 0.5"/>
      </g>
     </g>
    </g>
    <g id="ytick_24">
     <g id="line2d_93">
      <g>
       <use xlink:href="#m8be3af3218" x="51.504133" y="48.852171" style="stroke: #000000; stroke-width: 0.5"/>
      </g>
     </g>
     <g id="line2d_94">
      <g>
       <use xlink:href="#ma3b11be302" x="246.804133" y="48.852171" style="stroke: #000000; stroke-width: 0.5"/>
      </g>
     </g>
    </g>
    <g id="ytick_25">
     <g id="line2d_95">
      <g>
       <use xlink:href="#m8be3af3218" x="51.504133" y="44.248681" style="stroke: #000000; stroke-width: 0.5"/>
      </g>
     </g>
     <g id="line2d_96">
      <g>
       <use xlink:href="#ma3b11be302" x="246.804133" y="44.248681" style="stroke: #000000; stroke-width: 0.5"/>
      </g>
     </g>
    </g>
    <g id="ytick_26">
     <g id="line2d_97">
      <g>
       <use xlink:href="#m8be3af3218" x="51.504133" y="39.645191" style="stroke: #000000; stroke-width: 0.5"/>
      </g>
     </g>
     <g id="line2d_98">
      <g>
       <use xlink:href="#ma3b11be302" x="246.804133" y="39.645191" style="stroke: #000000; stroke-width: 0.5"/>
      </g>
     </g>
    </g>
    <g id="ytick_27">
     <g id="line2d_99">
      <g>
       <use xlink:href="#m8be3af3218" x="51.504133" y="35.0417" style="stroke: #000000; stroke-width: 0.5"/>
      </g>
     </g>
     <g id="line2d_100">
      <g>
       <use xlink:href="#ma3b11be302" x="246.804133" y="35.0417" style="stroke: #000000; stroke-width: 0.5"/>
      </g>
     </g>
    </g>
    <g id="ytick_28">
     <g id="line2d_101">
      <g>
       <use xlink:href="#m8be3af3218" x="51.504133" y="25.83472" style="stroke: #000000; stroke-width: 0.5"/>
      </g>
     </g>
     <g id="line2d_102">
      <g>
       <use xlink:href="#ma3b11be302" x="246.804133" y="25.83472" style="stroke: #000000; stroke-width: 0.5"/>
      </g>
     </g>
    </g>
    <g id="ytick_29">
     <g id="line2d_103">
      <g>
       <use xlink:href="#m8be3af3218" x="51.504133" y="21.23123" style="stroke: #000000; stroke-width: 0.5"/>
      </g>
     </g>
     <g id="line2d_104">
      <g>
       <use xlink:href="#ma3b11be302" x="246.804133" y="21.23123" style="stroke: #000000; stroke-width: 0.5"/>
      </g>
     </g>
    </g>
    <g id="ytick_30">
     <g id="line2d_105">
      <g>
       <use xlink:href="#m8be3af3218" x="51.504133" y="16.62774" style="stroke: #000000; stroke-width: 0.5"/>
      </g>
     </g>
     <g id="line2d_106">
      <g>
       <use xlink:href="#ma3b11be302" x="246.804133" y="16.62774" style="stroke: #000000; stroke-width: 0.5"/>
      </g>
     </g>
    </g>
    <g id="ytick_31">
     <g id="line2d_107">
      <g>
       <use xlink:href="#m8be3af3218" x="51.504133" y="12.024249" style="stroke: #000000; stroke-width: 0.5"/>
      </g>
     </g>
     <g id="line2d_108">
      <g>
       <use xlink:href="#ma3b11be302" x="246.804133" y="12.024249" style="stroke: #000000; stroke-width: 0.5"/>
      </g>
     </g>
    </g>
    <g id="text_14">
     <!-- $\phi_1$ [V] -->
     <g transform="translate(11.07198 89.73157) rotate(-90) scale(0.1 -0.1)">
      <defs>
       <path id="CMMI12-1e" d="M 2752 4390 
C 2752 4448 2707 4448 2688 4448 
C 2630 4448 2624 4435 2598 4326 
L 2253 2939 
C 2234 2856 2227 2849 2221 2843 
C 2214 2830 2170 2824 2157 2824 
C 1107 2734 301 1864 301 1057 
C 301 361 832 -64 1498 -64 
C 1446 -261 1402 -463 1350 -659 
C 1261 -995 1210 -1204 1210 -1229 
C 1210 -1241 1210 -1280 1274 -1280 
C 1293 -1280 1318 -1280 1331 -1254 
C 1344 -1241 1382 -1089 1408 -1008 
L 1645 -64 
C 2739 -64 3571 854 3571 1680 
C 3571 2343 3085 2816 2374 2816 
L 2752 4390 
z
M 2336 2701 
C 2758 2701 3181 2463 3181 1828 
C 3181 1097 2675 128 1677 50 
L 2336 2701 
z
M 1530 50 
C 1216 50 691 220 691 938 
C 691 1761 1274 2676 2195 2676 
L 1530 50 
z
" transform="scale(0.015625)"/>
      </defs>
      <use xlink:href="#CMMI12-1e" transform="scale(0.996264)"/>
      <use xlink:href="#CMR17-31" transform="translate(57.73418 -14.943915) scale(0.697382)"/>
      <use xlink:href="#CMR17-5b" transform="translate(120.291461 0) scale(0.996264)"/>
      <use xlink:href="#CMR17-56" transform="translate(145.162519 0) scale(0.996264)"/>
      <use xlink:href="#CMR17-5d" transform="translate(214.234949 0) scale(0.996264)"/>
     </g>
    </g>
   </g>
   <g id="line2d_109">
    <path d="M 60.381406 142.324712 
L 63.932315 139.635908 
L 67.483224 137.902401 
L 71.034133 134.958569 
L 78.135951 129.955474 
L 81.686861 127.341517 
L 85.23777 125.213138 
L 88.788679 122.772192 
L 99.441406 114.913849 
L 102.992315 112.718608 
L 106.543224 110.170108 
L 113.645042 103.500781 
L 117.195951 100.824559 
L 120.746861 98.69778 
L 124.29777 94.739536 
L 131.399588 91.051183 
L 134.950497 88.762633 
L 138.501406 84.510934 
L 142.052315 86.623074 
L 145.603224 77.91846 
L 149.154133 76.496018 
L 152.705042 75.783364 
L 156.255951 66.298357 
L 159.806861 68.286084 
L 163.35777 64.820469 
L 174.010497 58.806618 
L 177.561406 54.872643 
L 181.112315 52.686721 
L 188.214133 47.09016 
L 191.765042 44.057145 
L 195.315951 41.335308 
L 198.866861 39.048389 
L 202.41777 36.501968 
L 205.968679 33.801552 
L 209.519588 30.866595 
L 213.070497 28.137314 
L 216.621406 25.577493 
L 220.172315 23.192209 
L 223.723224 21.007892 
L 230.825042 15.933393 
L 237.926861 10.215 
L 230.825042 15.449791 
L 227.274133 18.253521 
L 223.723224 20.285861 
L 220.172315 22.562331 
L 216.621406 25.452221 
L 213.070497 27.552328 
L 202.41777 35.567917 
L 195.315951 40.076729 
L 191.765042 43.299746 
L 188.214133 45.82288 
L 184.663224 49.221704 
L 181.112315 52.115304 
L 177.561406 54.287482 
L 174.010497 58.141728 
L 170.459588 60.514755 
L 166.908679 61.809905 
L 163.35777 64.278269 
L 159.806861 69.190857 
L 156.255951 66.978813 
L 152.705042 75.738551 
L 149.154133 76.451205 
L 145.603224 77.460461 
L 142.052315 86.726625 
L 138.501406 84.303357 
L 134.950497 87.491426 
L 131.399588 90.188721 
L 124.29777 93.936172 
L 120.746861 97.727226 
L 117.195951 100.495461 
L 113.645042 103.014795 
L 110.094133 106.093542 
L 106.543224 108.865482 
L 102.992315 111.813442 
L 99.441406 113.98494 
L 95.890497 116.757736 
L 88.788679 121.916631 
L 81.686861 126.792178 
L 78.135951 129.683667 
L 60.381406 141.930997 
L 63.932315 140.026092 
L 71.034133 135.169337 
L 74.585042 132.102262 
L 78.135951 130.234026 
L 85.23777 125.102688 
L 88.788679 122.870055 
L 92.339588 120.315827 
L 99.441406 114.881268 
L 102.992315 112.58078 
L 106.543224 110.093363 
L 110.094133 107.341959 
L 113.645042 103.724985 
L 117.195951 100.918909 
L 120.746861 98.942175 
L 124.29777 94.018131 
L 127.848679 93.105599 
L 134.950497 88.938955 
L 138.501406 84.895686 
L 142.052315 87.078418 
L 145.603224 77.20871 
L 152.705042 75.783402 
L 156.255951 66.318891 
L 159.806861 69.029573 
L 163.35777 65.271732 
L 166.908679 62.779122 
L 170.459588 60.979051 
L 174.010497 58.916619 
L 177.561406 55.175518 
L 181.112315 52.757521 
L 184.663224 50.067282 
L 188.214133 46.905746 
L 191.765042 43.984175 
L 195.315951 41.233635 
L 198.866861 39.02252 
L 202.41777 36.185553 
L 205.968679 33.634216 
L 209.519588 30.866149 
L 220.172315 23.500324 
L 223.723224 20.732733 
L 227.274133 18.198123 
L 230.825042 15.899147 
L 237.926861 10.731818 
L 234.375951 13.303921 
L 230.825042 15.283077 
L 227.274133 17.950032 
L 223.723224 20.97609 
L 220.172315 23.165069 
L 216.621406 25.03172 
L 213.070497 27.98664 
L 209.519588 30.025724 
L 202.41777 35.568003 
L 198.866861 37.824022 
L 195.315951 40.315185 
L 191.765042 43.060174 
L 188.214133 45.961611 
L 184.663224 49.420379 
L 177.561406 54.209505 
L 174.010497 58.254864 
L 170.459588 59.90142 
L 166.908679 61.368326 
L 163.35777 63.42772 
L 159.806861 68.249249 
L 156.255951 65.903738 
L 152.705042 75.737246 
L 149.154133 76.451157 
L 145.603224 77.909413 
L 142.052315 87.10577 
L 138.501406 83.728276 
L 134.950497 87.417489 
L 131.399588 90.637856 
L 127.848679 92.055181 
L 124.29777 93.90119 
L 120.746861 97.97794 
L 117.195951 100.344976 
L 113.645042 102.907131 
L 106.543224 109.338025 
L 102.992315 111.417481 
L 99.441406 114.253685 
L 95.890497 116.567422 
L 92.339588 119.322833 
L 88.788679 122.394458 
L 85.23777 124.460161 
L 74.585042 132.338555 
L 71.034133 134.536673 
L 67.483224 136.927176 
L 63.932315 139.59839 
L 60.381406 142.499804 
L 63.932315 140.382392 
L 71.034133 134.666771 
L 74.585042 132.362397 
L 78.135951 130.216417 
L 81.686861 127.847105 
L 85.23777 125.313604 
L 88.788679 123.082872 
L 92.339588 120.195287 
L 99.441406 114.92521 
L 106.543224 110.082931 
L 110.094133 106.935546 
L 113.645042 103.470663 
L 117.195951 100.856852 
L 120.746861 99.035306 
L 124.29777 94.174757 
L 127.848679 92.448369 
L 131.399588 90.990511 
L 134.950497 89.15283 
L 138.501406 83.956126 
L 142.052315 85.285932 
L 145.603224 77.208561 
L 152.705042 75.783253 
L 156.255951 64.912074 
L 159.806861 68.651457 
L 163.35777 65.395066 
L 166.908679 62.711041 
L 170.459588 60.981908 
L 174.010497 58.66979 
L 177.561406 55.157912 
L 188.214133 46.912213 
L 191.765042 43.943863 
L 195.315951 41.121861 
L 198.866861 38.985525 
L 202.41777 36.503869 
L 205.968679 33.455207 
L 213.070497 28.547056 
L 216.621406 25.755844 
L 220.172315 23.373552 
L 223.723224 21.286817 
L 227.274133 18.45655 
L 234.375951 13.309678 
L 237.926861 10.386918 
L 234.375951 13.100842 
L 230.825042 15.165811 
L 227.274133 18.237104 
L 223.723224 20.497662 
L 220.172315 23.436226 
L 216.621406 25.459311 
L 209.519588 29.884681 
L 202.41777 35.36447 
L 195.315951 40.731776 
L 191.765042 42.886412 
L 188.214133 45.839444 
L 184.663224 49.194025 
L 181.112315 52.082563 
L 177.561406 54.415882 
L 174.010497 58.06435 
L 170.459588 60.455088 
L 166.908679 61.807124 
L 163.35777 63.603311 
L 159.806861 68.587158 
L 156.255951 67.633747 
L 152.705042 75.73843 
L 145.603224 77.163739 
L 142.052315 87.353541 
L 138.501406 84.076517 
L 134.950497 87.632783 
L 131.399588 89.920361 
L 127.848679 91.724773 
L 124.29777 93.689875 
L 120.746861 98.003324 
L 113.645042 102.759405 
L 110.094133 106.072267 
L 106.543224 109.088413 
L 99.441406 114.225391 
L 95.890497 116.76403 
L 92.339588 119.60167 
L 88.788679 121.901063 
L 81.686861 126.850512 
L 74.585042 131.932181 
L 71.034133 134.810106 
L 67.483224 137.096982 
L 63.932315 139.761398 
L 60.381406 142.220205 
L 67.483224 137.330534 
L 71.034133 134.994573 
L 81.686861 127.522444 
L 88.788679 122.560627 
L 92.339588 119.953402 
L 95.890497 117.632447 
L 99.441406 114.912154 
L 102.992315 112.691152 
L 106.543224 110.110201 
L 110.094133 107.045984 
L 113.645042 103.511936 
L 117.195951 101.064729 
L 120.746861 98.399901 
L 124.29777 94.784898 
L 127.848679 92.57146 
L 131.399588 91.602346 
L 134.950497 89.669035 
L 138.501406 84.685113 
L 142.052315 86.799363 
L 145.603224 77.80838 
L 149.154133 76.495836 
L 152.705042 75.783182 
L 156.255951 65.586564 
L 159.806861 68.367144 
L 166.908679 62.532208 
L 170.459588 61.050189 
L 174.010497 59.062396 
L 177.561406 55.345877 
L 181.112315 52.587819 
L 184.663224 50.205439 
L 188.214133 46.718865 
L 191.765042 43.893307 
L 202.41777 36.277535 
L 205.968679 33.662416 
L 209.519588 30.741491 
L 223.723224 21.080611 
L 230.825042 15.641607 
L 234.375951 13.108605 
L 237.926861 10.786323 
L 234.375951 12.806633 
L 227.274133 18.01522 
L 223.723224 20.213439 
L 220.172315 22.974766 
L 216.621406 25.095822 
L 213.070497 28.024564 
L 209.519588 29.901721 
L 205.968679 32.777442 
L 198.866861 38.191723 
L 195.315951 40.432267 
L 191.765042 42.880284 
L 181.112315 52.301151 
L 177.561406 54.675295 
L 174.010497 58.173826 
L 170.459588 60.277004 
L 166.908679 61.664235 
L 163.35777 64.422725 
L 159.806861 68.167026 
L 156.255951 67.988124 
L 152.705042 75.738277 
L 145.603224 77.163586 
L 142.052315 87.647789 
L 138.501406 84.374842 
L 134.950497 87.775877 
L 131.399588 90.503841 
L 127.848679 91.796573 
L 124.29777 94.239285 
L 120.746861 98.078537 
L 117.195951 100.314174 
L 113.645042 102.845775 
L 110.094133 106.222455 
L 106.543224 108.817788 
L 102.992315 111.567527 
L 92.339588 118.974788 
L 88.788679 121.913413 
L 85.23777 124.694458 
L 81.686861 127.02779 
L 78.135951 129.613732 
L 71.034133 134.478914 
L 67.483224 137.142718 
L 63.932315 140.092509 
L 60.381406 142.515 
L 63.932315 140.386507 
L 67.483224 137.495172 
L 74.585042 132.300106 
L 78.135951 130.189986 
L 81.686861 127.366328 
L 85.23777 124.865268 
L 88.788679 123.032082 
L 92.339588 119.999979 
L 95.890497 117.724342 
L 99.441406 114.883774 
L 102.992315 112.618436 
L 106.543224 110.215436 
L 113.645042 103.662046 
L 117.195951 100.849848 
L 120.746861 98.727187 
L 124.29777 94.355443 
L 127.848679 92.840622 
L 131.399588 91.165629 
L 134.950497 88.908227 
L 138.501406 84.694681 
L 142.052315 85.897349 
L 145.603224 77.208382 
L 152.705042 75.783073 
L 156.255951 66.267874 
L 159.806861 68.941122 
L 163.35777 65.177743 
L 166.908679 62.693283 
L 170.459588 61.292603 
L 174.010497 58.906717 
L 177.561406 55.556341 
L 181.112315 52.363181 
L 184.663224 50.129574 
L 188.214133 46.89612 
L 195.315951 41.395042 
L 198.866861 39.094108 
L 202.41777 36.142529 
L 205.968679 33.739821 
L 213.070497 28.135959 
L 216.621406 25.633886 
L 220.172315 23.551419 
L 223.723224 21.056364 
L 227.274133 18.102905 
L 230.825042 15.592623 
L 234.375951 13.643778 
L 237.926861 10.838396 
L 230.825042 15.456094 
L 227.274133 18.225767 
L 223.723224 20.170844 
L 213.070497 27.693096 
L 209.519588 30.277671 
L 205.968679 32.689849 
L 202.41777 35.579528 
L 195.315951 40.092723 
L 191.765042 43.302065 
L 188.214133 46.190855 
L 184.663224 49.36578 
L 181.112315 52.087626 
L 177.561406 53.934468 
L 174.010497 58.577406 
L 170.459588 60.188498 
L 166.908679 61.406367 
L 163.35777 63.736272 
L 159.806861 68.261887 
L 156.255951 66.83975 
L 152.705042 75.73589 
L 145.603224 77.163653 
L 142.052315 86.41594 
L 138.501406 83.708404 
L 134.950497 87.745164 
L 131.399588 90.311133 
L 127.848679 91.639039 
L 124.29777 93.919263 
L 120.746861 97.939628 
L 117.195951 100.182431 
L 110.094133 105.626077 
L 106.543224 108.752746 
L 102.992315 111.519457 
L 95.890497 116.511555 
L 92.339588 119.244131 
L 88.788679 122.216227 
L 85.23777 124.769436 
L 78.135951 129.465795 
L 74.585042 132.201926 
L 71.034133 134.398818 
L 67.483224 137.123446 
L 67.483224 137.123446 
" clip-path="url(#p455c2aa6b0)" style="fill: none; stroke: #4477aa; stroke-linecap: square"/>
   </g>
   <g id="patch_3">
    <path d="M 51.504133 149.13 
L 51.504133 3.6 
" style="fill: none; stroke: #000000; stroke-width: 0.5; stroke-linejoin: miter; stroke-linecap: square"/>
   </g>
   <g id="patch_4">
    <path d="M 246.804133 149.13 
L 246.804133 3.6 
" style="fill: none; stroke: #000000; stroke-width: 0.5; stroke-linejoin: miter; stroke-linecap: square"/>
   </g>
   <g id="patch_5">
    <path d="M 51.504133 149.13 
L 246.804133 149.13 
" style="fill: none; stroke: #000000; stroke-width: 0.5; stroke-linejoin: miter; stroke-linecap: square"/>
   </g>
   <g id="patch_6">
    <path d="M 51.504133 3.6 
L 246.804133 3.6 
" style="fill: none; stroke: #000000; stroke-width: 0.5; stroke-linejoin: miter; stroke-linecap: square"/>
   </g>
  </g>
 </g>
 <defs>
  <clipPath id="p455c2aa6b0">
   <rect x="51.504133" y="3.6" width="195.3" height="145.53"/>
  </clipPath>
 </defs>
</svg>
