<?xml version="1.0" encoding="utf-8" standalone="no"?>
<!DOCTYPE svg PUBLIC "-//W3C//DTD SVG 1.1//EN"
  "http://www.w3.org/Graphics/SVG/1.1/DTD/svg11.dtd">
<svg xmlns:xlink="http://www.w3.org/1999/xlink" width="245.422798pt" height="179.048317pt" viewBox="0 0 245.422798 179.048317" xmlns="http://www.w3.org/2000/svg" version="1.1">
 <metadata>
  <rdf:RDF xmlns:dc="http://purl.org/dc/elements/1.1/" xmlns:cc="http://creativecommons.org/ns#" xmlns:rdf="http://www.w3.org/1999/02/22-rdf-syntax-ns#">
   <cc:Work>
    <dc:type rdf:resource="http://purl.org/dc/dcmitype/StillImage"/>
    <dc:date>2025-02-26T13:01:12.389555</dc:date>
    <dc:format>image/svg+xml</dc:format>
    <dc:creator>
     <cc:Agent>
      <dc:title>Matplotlib v3.9.2, https://matplotlib.org/</dc:title>
     </cc:Agent>
    </dc:creator>
   </cc:Work>
  </rdf:RDF>
 </metadata>
 <defs>
  <style type="text/css">*{stroke-linejoin: round; stroke-linecap: butt}</style>
 </defs>
 <g id="figure_1">
  <g id="patch_1">
   <path d="M -0 179.048317 
L 245.422798 179.048317 
L 245.422798 0 
L -0 0 
L -0 179.048317 
z
" style="fill: none"/>
  </g>
  <g id="axes_1">
   <g id="patch_2">
    <path d="M 46.522798 149.13 
L 241.822798 149.13 
L 241.822798 3.6 
L 46.522798 3.6 
L 46.522798 149.13 
z
" style="fill: none"/>
   </g>
   <g id="matplotlib.axis_1">
    <g id="xtick_1">
     <g id="line2d_1">
      <defs>
       <path id="m8e120d46d7" d="M 0 0 
L 0 -3 
" style="stroke: #000000; stroke-width: 0.5"/>
      </defs>
      <g>
       <use xlink:href="#m8e120d46d7" x="55.400071" y="149.13" style="stroke: #000000; stroke-width: 0.5"/>
      </g>
     </g>
     <g id="line2d_2">
      <defs>
       <path id="ma66813508a" d="M 0 0 
L 0 3 
" style="stroke: #000000; stroke-width: 0.5"/>
      </defs>
      <g>
       <use xlink:href="#ma66813508a" x="55.400071" y="3.6" style="stroke: #000000; stroke-width: 0.5"/>
      </g>
     </g>
     <g id="text_1">
      <!-- $\mathdefault{0}$ -->
      <g transform="translate(52.909403 159.548498) scale(0.1 -0.1)">
       <defs>
        <path id="CMR17-30" d="M 2688 2025 
C 2688 2416 2682 3080 2413 3591 
C 2176 4039 1798 4198 1466 4198 
C 1158 4198 768 4058 525 3597 
C 269 3118 243 2524 243 2025 
C 243 1661 250 1106 448 619 
C 723 -39 1216 -128 1466 -128 
C 1760 -128 2208 -7 2470 600 
C 2662 1042 2688 1559 2688 2025 
z
M 1466 -26 
C 1056 -26 813 325 723 812 
C 653 1188 653 1738 653 2096 
C 653 2588 653 2997 736 3387 
C 858 3929 1216 4096 1466 4096 
C 1728 4096 2067 3923 2189 3400 
C 2272 3036 2278 2607 2278 2096 
C 2278 1680 2278 1169 2202 792 
C 2067 95 1690 -26 1466 -26 
z
" transform="scale(0.015625)"/>
       </defs>
       <use xlink:href="#CMR17-30" transform="scale(0.996264)"/>
      </g>
     </g>
    </g>
    <g id="xtick_2">
     <g id="line2d_3">
      <g>
       <use xlink:href="#m8e120d46d7" x="91.051768" y="149.13" style="stroke: #000000; stroke-width: 0.5"/>
      </g>
     </g>
     <g id="line2d_4">
      <g>
       <use xlink:href="#ma66813508a" x="91.051768" y="3.6" style="stroke: #000000; stroke-width: 0.5"/>
      </g>
     </g>
     <g id="text_2">
      <!-- $\mathdefault{1}$ -->
      <g transform="translate(88.561101 159.548498) scale(0.1 -0.1)">
       <defs>
        <path id="CMR17-31" d="M 1702 4058 
C 1702 4192 1696 4192 1606 4192 
C 1357 3916 979 3827 621 3827 
C 602 3827 570 3827 563 3808 
C 557 3795 557 3782 557 3648 
C 755 3648 1088 3686 1344 3839 
L 1344 461 
C 1344 236 1331 160 781 160 
L 589 160 
L 589 0 
C 896 0 1216 0 1523 0 
C 1830 0 2150 0 2458 0 
L 2458 160 
L 2266 160 
C 1715 160 1702 230 1702 458 
L 1702 4058 
z
" transform="scale(0.015625)"/>
       </defs>
       <use xlink:href="#CMR17-31" transform="scale(0.996264)"/>
      </g>
     </g>
    </g>
    <g id="xtick_3">
     <g id="line2d_5">
      <g>
       <use xlink:href="#m8e120d46d7" x="126.703466" y="149.13" style="stroke: #000000; stroke-width: 0.5"/>
      </g>
     </g>
     <g id="line2d_6">
      <g>
       <use xlink:href="#ma66813508a" x="126.703466" y="3.6" style="stroke: #000000; stroke-width: 0.5"/>
      </g>
     </g>
     <g id="text_3">
      <!-- $\mathdefault{2}$ -->
      <g transform="translate(124.212799 159.548498) scale(0.1 -0.1)">
       <defs>
        <path id="CMR17-32" d="M 2669 989 
L 2554 989 
C 2490 536 2438 459 2413 420 
C 2381 369 1920 369 1830 369 
L 602 369 
C 832 619 1280 1072 1824 1597 
C 2214 1967 2669 2402 2669 3035 
C 2669 3790 2067 4224 1395 4224 
C 691 4224 262 3604 262 3030 
C 262 2780 448 2748 525 2748 
C 589 2748 781 2787 781 3010 
C 781 3207 614 3264 525 3264 
C 486 3264 448 3258 422 3245 
C 544 3790 915 4058 1306 4058 
C 1862 4058 2227 3617 2227 3035 
C 2227 2479 1901 2000 1536 1584 
L 262 146 
L 262 0 
L 2515 0 
L 2669 989 
z
" transform="scale(0.015625)"/>
       </defs>
       <use xlink:href="#CMR17-32" transform="scale(0.996264)"/>
      </g>
     </g>
    </g>
    <g id="xtick_4">
     <g id="line2d_7">
      <g>
       <use xlink:href="#m8e120d46d7" x="162.355164" y="149.13" style="stroke: #000000; stroke-width: 0.5"/>
      </g>
     </g>
     <g id="line2d_8">
      <g>
       <use xlink:href="#ma66813508a" x="162.355164" y="3.6" style="stroke: #000000; stroke-width: 0.5"/>
      </g>
     </g>
     <g id="text_4">
      <!-- $\mathdefault{3}$ -->
      <g transform="translate(159.864496 159.548498) scale(0.1 -0.1)">
       <defs>
        <path id="CMR17-33" d="M 1414 2157 
C 1984 2157 2234 1662 2234 1090 
C 2234 320 1824 25 1453 25 
C 1114 25 563 194 390 693 
C 422 680 454 680 486 680 
C 640 680 755 782 755 948 
C 755 1133 614 1216 486 1216 
C 378 1216 211 1165 211 926 
C 211 335 787 -128 1466 -128 
C 2176 -128 2720 430 2720 1085 
C 2720 1707 2208 2157 1600 2227 
C 2086 2328 2554 2756 2554 3329 
C 2554 3820 2048 4179 1472 4179 
C 890 4179 378 3829 378 3329 
C 378 3110 544 3072 627 3072 
C 762 3072 877 3155 877 3321 
C 877 3486 762 3569 627 3569 
C 602 3569 570 3569 544 3557 
C 730 3959 1235 4032 1459 4032 
C 1683 4032 2106 3925 2106 3320 
C 2106 3143 2080 2828 1862 2550 
C 1670 2304 1453 2304 1242 2284 
C 1210 2284 1062 2269 1037 2269 
C 992 2263 966 2257 966 2208 
C 966 2163 973 2157 1101 2157 
L 1414 2157 
z
" transform="scale(0.015625)"/>
       </defs>
       <use xlink:href="#CMR17-33" transform="scale(0.996264)"/>
      </g>
     </g>
    </g>
    <g id="xtick_5">
     <g id="line2d_9">
      <g>
       <use xlink:href="#m8e120d46d7" x="198.006862" y="149.13" style="stroke: #000000; stroke-width: 0.5"/>
      </g>
     </g>
     <g id="line2d_10">
      <g>
       <use xlink:href="#ma66813508a" x="198.006862" y="3.6" style="stroke: #000000; stroke-width: 0.5"/>
      </g>
     </g>
     <g id="text_5">
      <!-- $\mathdefault{4}$ -->
      <g transform="translate(195.516194 159.548498) scale(0.1 -0.1)">
       <defs>
        <path id="CMR17-34" d="M 2150 4122 
C 2150 4256 2144 4256 2029 4256 
L 128 1254 
L 128 1088 
L 1779 1088 
L 1779 457 
C 1779 224 1766 160 1318 160 
L 1197 160 
L 1197 0 
C 1402 0 1747 0 1965 0 
C 2182 0 2528 0 2733 0 
L 2733 160 
L 2611 160 
C 2163 160 2150 224 2150 457 
L 2150 1088 
L 2803 1088 
L 2803 1254 
L 2150 1254 
L 2150 4122 
z
M 1798 3703 
L 1798 1254 
L 256 1254 
L 1798 3703 
z
" transform="scale(0.015625)"/>
       </defs>
       <use xlink:href="#CMR17-34" transform="scale(0.996264)"/>
      </g>
     </g>
    </g>
    <g id="xtick_6">
     <g id="line2d_11">
      <g>
       <use xlink:href="#m8e120d46d7" x="233.658559" y="149.13" style="stroke: #000000; stroke-width: 0.5"/>
      </g>
     </g>
     <g id="line2d_12">
      <g>
       <use xlink:href="#ma66813508a" x="233.658559" y="3.6" style="stroke: #000000; stroke-width: 0.5"/>
      </g>
     </g>
     <g id="text_6">
      <!-- $\mathdefault{5}$ -->
      <g transform="translate(231.167892 159.548498) scale(0.1 -0.1)">
       <defs>
        <path id="CMR17-35" d="M 730 3692 
C 794 3666 1056 3584 1325 3584 
C 1920 3584 2246 3911 2432 4100 
C 2432 4157 2432 4192 2394 4192 
C 2387 4192 2374 4192 2323 4163 
C 2099 4058 1837 3973 1517 3973 
C 1325 3973 1037 3999 723 4139 
C 653 4171 640 4171 634 4171 
C 602 4171 595 4164 595 4037 
L 595 2203 
C 595 2089 595 2057 659 2057 
C 691 2057 704 2070 736 2114 
C 941 2401 1222 2522 1542 2522 
C 1766 2522 2246 2382 2246 1289 
C 2246 1085 2246 715 2054 421 
C 1894 159 1645 25 1370 25 
C 947 25 518 320 403 814 
C 429 807 480 795 506 795 
C 589 795 749 840 749 1038 
C 749 1210 627 1280 506 1280 
C 358 1280 262 1190 262 1011 
C 262 454 704 -128 1382 -128 
C 2042 -128 2669 440 2669 1264 
C 2669 2030 2170 2624 1549 2624 
C 1222 2624 947 2503 730 2274 
L 730 3692 
z
" transform="scale(0.015625)"/>
       </defs>
       <use xlink:href="#CMR17-35" transform="scale(0.996264)"/>
      </g>
     </g>
    </g>
    <g id="xtick_7">
     <g id="line2d_13">
      <defs>
       <path id="mb4cabf882b" d="M 0 0 
L 0 -1.5 
" style="stroke: #000000; stroke-width: 0.5"/>
      </defs>
      <g>
       <use xlink:href="#mb4cabf882b" x="48.269731" y="149.13" style="stroke: #000000; stroke-width: 0.5"/>
      </g>
     </g>
     <g id="line2d_14">
      <defs>
       <path id="m988c6cc076" d="M 0 0 
L 0 1.5 
" style="stroke: #000000; stroke-width: 0.5"/>
      </defs>
      <g>
       <use xlink:href="#m988c6cc076" x="48.269731" y="3.6" style="stroke: #000000; stroke-width: 0.5"/>
      </g>
     </g>
    </g>
    <g id="xtick_8">
     <g id="line2d_15">
      <g>
       <use xlink:href="#mb4cabf882b" x="62.53041" y="149.13" style="stroke: #000000; stroke-width: 0.5"/>
      </g>
     </g>
     <g id="line2d_16">
      <g>
       <use xlink:href="#m988c6cc076" x="62.53041" y="3.6" style="stroke: #000000; stroke-width: 0.5"/>
      </g>
     </g>
    </g>
    <g id="xtick_9">
     <g id="line2d_17">
      <g>
       <use xlink:href="#mb4cabf882b" x="69.66075" y="149.13" style="stroke: #000000; stroke-width: 0.5"/>
      </g>
     </g>
     <g id="line2d_18">
      <g>
       <use xlink:href="#m988c6cc076" x="69.66075" y="3.6" style="stroke: #000000; stroke-width: 0.5"/>
      </g>
     </g>
    </g>
    <g id="xtick_10">
     <g id="line2d_19">
      <g>
       <use xlink:href="#mb4cabf882b" x="76.791089" y="149.13" style="stroke: #000000; stroke-width: 0.5"/>
      </g>
     </g>
     <g id="line2d_20">
      <g>
       <use xlink:href="#m988c6cc076" x="76.791089" y="3.6" style="stroke: #000000; stroke-width: 0.5"/>
      </g>
     </g>
    </g>
    <g id="xtick_11">
     <g id="line2d_21">
      <g>
       <use xlink:href="#mb4cabf882b" x="83.921429" y="149.13" style="stroke: #000000; stroke-width: 0.5"/>
      </g>
     </g>
     <g id="line2d_22">
      <g>
       <use xlink:href="#m988c6cc076" x="83.921429" y="3.6" style="stroke: #000000; stroke-width: 0.5"/>
      </g>
     </g>
    </g>
    <g id="xtick_12">
     <g id="line2d_23">
      <g>
       <use xlink:href="#mb4cabf882b" x="98.182108" y="149.13" style="stroke: #000000; stroke-width: 0.5"/>
      </g>
     </g>
     <g id="line2d_24">
      <g>
       <use xlink:href="#m988c6cc076" x="98.182108" y="3.6" style="stroke: #000000; stroke-width: 0.5"/>
      </g>
     </g>
    </g>
    <g id="xtick_13">
     <g id="line2d_25">
      <g>
       <use xlink:href="#mb4cabf882b" x="105.312448" y="149.13" style="stroke: #000000; stroke-width: 0.5"/>
      </g>
     </g>
     <g id="line2d_26">
      <g>
       <use xlink:href="#m988c6cc076" x="105.312448" y="3.6" style="stroke: #000000; stroke-width: 0.5"/>
      </g>
     </g>
    </g>
    <g id="xtick_14">
     <g id="line2d_27">
      <g>
       <use xlink:href="#mb4cabf882b" x="112.442787" y="149.13" style="stroke: #000000; stroke-width: 0.5"/>
      </g>
     </g>
     <g id="line2d_28">
      <g>
       <use xlink:href="#m988c6cc076" x="112.442787" y="3.6" style="stroke: #000000; stroke-width: 0.5"/>
      </g>
     </g>
    </g>
    <g id="xtick_15">
     <g id="line2d_29">
      <g>
       <use xlink:href="#mb4cabf882b" x="119.573127" y="149.13" style="stroke: #000000; stroke-width: 0.5"/>
      </g>
     </g>
     <g id="line2d_30">
      <g>
       <use xlink:href="#m988c6cc076" x="119.573127" y="3.6" style="stroke: #000000; stroke-width: 0.5"/>
      </g>
     </g>
    </g>
    <g id="xtick_16">
     <g id="line2d_31">
      <g>
       <use xlink:href="#mb4cabf882b" x="133.833806" y="149.13" style="stroke: #000000; stroke-width: 0.5"/>
      </g>
     </g>
     <g id="line2d_32">
      <g>
       <use xlink:href="#m988c6cc076" x="133.833806" y="3.6" style="stroke: #000000; stroke-width: 0.5"/>
      </g>
     </g>
    </g>
    <g id="xtick_17">
     <g id="line2d_33">
      <g>
       <use xlink:href="#mb4cabf882b" x="140.964145" y="149.13" style="stroke: #000000; stroke-width: 0.5"/>
      </g>
     </g>
     <g id="line2d_34">
      <g>
       <use xlink:href="#m988c6cc076" x="140.964145" y="3.6" style="stroke: #000000; stroke-width: 0.5"/>
      </g>
     </g>
    </g>
    <g id="xtick_18">
     <g id="line2d_35">
      <g>
       <use xlink:href="#mb4cabf882b" x="148.094485" y="149.13" style="stroke: #000000; stroke-width: 0.5"/>
      </g>
     </g>
     <g id="line2d_36">
      <g>
       <use xlink:href="#m988c6cc076" x="148.094485" y="3.6" style="stroke: #000000; stroke-width: 0.5"/>
      </g>
     </g>
    </g>
    <g id="xtick_19">
     <g id="line2d_37">
      <g>
       <use xlink:href="#mb4cabf882b" x="155.224824" y="149.13" style="stroke: #000000; stroke-width: 0.5"/>
      </g>
     </g>
     <g id="line2d_38">
      <g>
       <use xlink:href="#m988c6cc076" x="155.224824" y="3.6" style="stroke: #000000; stroke-width: 0.5"/>
      </g>
     </g>
    </g>
    <g id="xtick_20">
     <g id="line2d_39">
      <g>
       <use xlink:href="#mb4cabf882b" x="169.485503" y="149.13" style="stroke: #000000; stroke-width: 0.5"/>
      </g>
     </g>
     <g id="line2d_40">
      <g>
       <use xlink:href="#m988c6cc076" x="169.485503" y="3.6" style="stroke: #000000; stroke-width: 0.5"/>
      </g>
     </g>
    </g>
    <g id="xtick_21">
     <g id="line2d_41">
      <g>
       <use xlink:href="#mb4cabf882b" x="176.615843" y="149.13" style="stroke: #000000; stroke-width: 0.5"/>
      </g>
     </g>
     <g id="line2d_42">
      <g>
       <use xlink:href="#m988c6cc076" x="176.615843" y="3.6" style="stroke: #000000; stroke-width: 0.5"/>
      </g>
     </g>
    </g>
    <g id="xtick_22">
     <g id="line2d_43">
      <g>
       <use xlink:href="#mb4cabf882b" x="183.746182" y="149.13" style="stroke: #000000; stroke-width: 0.5"/>
      </g>
     </g>
     <g id="line2d_44">
      <g>
       <use xlink:href="#m988c6cc076" x="183.746182" y="3.6" style="stroke: #000000; stroke-width: 0.5"/>
      </g>
     </g>
    </g>
    <g id="xtick_23">
     <g id="line2d_45">
      <g>
       <use xlink:href="#mb4cabf882b" x="190.876522" y="149.13" style="stroke: #000000; stroke-width: 0.5"/>
      </g>
     </g>
     <g id="line2d_46">
      <g>
       <use xlink:href="#m988c6cc076" x="190.876522" y="3.6" style="stroke: #000000; stroke-width: 0.5"/>
      </g>
     </g>
    </g>
    <g id="xtick_24">
     <g id="line2d_47">
      <g>
       <use xlink:href="#mb4cabf882b" x="205.137201" y="149.13" style="stroke: #000000; stroke-width: 0.5"/>
      </g>
     </g>
     <g id="line2d_48">
      <g>
       <use xlink:href="#m988c6cc076" x="205.137201" y="3.6" style="stroke: #000000; stroke-width: 0.5"/>
      </g>
     </g>
    </g>
    <g id="xtick_25">
     <g id="line2d_49">
      <g>
       <use xlink:href="#mb4cabf882b" x="212.267541" y="149.13" style="stroke: #000000; stroke-width: 0.5"/>
      </g>
     </g>
     <g id="line2d_50">
      <g>
       <use xlink:href="#m988c6cc076" x="212.267541" y="3.6" style="stroke: #000000; stroke-width: 0.5"/>
      </g>
     </g>
    </g>
    <g id="xtick_26">
     <g id="line2d_51">
      <g>
       <use xlink:href="#mb4cabf882b" x="219.39788" y="149.13" style="stroke: #000000; stroke-width: 0.5"/>
      </g>
     </g>
     <g id="line2d_52">
      <g>
       <use xlink:href="#m988c6cc076" x="219.39788" y="3.6" style="stroke: #000000; stroke-width: 0.5"/>
      </g>
     </g>
    </g>
    <g id="xtick_27">
     <g id="line2d_53">
      <g>
       <use xlink:href="#mb4cabf882b" x="226.52822" y="149.13" style="stroke: #000000; stroke-width: 0.5"/>
      </g>
     </g>
     <g id="line2d_54">
      <g>
       <use xlink:href="#m988c6cc076" x="226.52822" y="3.6" style="stroke: #000000; stroke-width: 0.5"/>
      </g>
     </g>
    </g>
    <g id="xtick_28">
     <g id="line2d_55">
      <g>
       <use xlink:href="#mb4cabf882b" x="240.788899" y="149.13" style="stroke: #000000; stroke-width: 0.5"/>
      </g>
     </g>
     <g id="line2d_56">
      <g>
       <use xlink:href="#m988c6cc076" x="240.788899" y="3.6" style="stroke: #000000; stroke-width: 0.5"/>
      </g>
     </g>
    </g>
    <g id="text_7">
     <!-- $t$ [s] -->
     <g transform="translate(135.981287 172.957657) scale(0.1 -0.1)">
      <defs>
       <path id="CMMI12-74" d="M 1286 2566 
L 1875 2566 
C 1997 2566 2061 2566 2061 2681 
C 2061 2752 2022 2752 1894 2752 
L 1331 2752 
L 1568 3692 
C 1594 3781 1594 3794 1594 3840 
C 1594 3943 1510 4000 1427 4000 
C 1376 4000 1229 3981 1178 3775 
L 928 2752 
L 326 2752 
C 198 2752 141 2752 141 2630 
C 141 2566 186 2566 307 2566 
L 877 2566 
L 454 881 
C 403 658 384 594 384 511 
C 384 211 595 -64 954 -64 
C 1600 -64 1946 868 1946 912 
C 1946 951 1920 970 1882 970 
C 1869 970 1843 970 1830 944 
C 1824 938 1818 931 1773 829 
C 1638 511 1344 64 973 64 
C 781 64 768 224 768 364 
C 768 370 768 492 787 568 
L 1286 2566 
z
" transform="scale(0.015625)"/>
       <path id="CMR17-5b" d="M 1504 -1600 
L 1504 -1377 
L 902 -1377 
L 902 4544 
L 1504 4544 
L 1504 4767 
L 678 4767 
L 678 -1600 
L 1504 -1600 
z
" transform="scale(0.015625)"/>
       <path id="CMR17-73" d="M 1978 2697 
C 1978 2813 1971 2819 1933 2819 
C 1907 2819 1901 2813 1824 2717 
C 1805 2691 1747 2626 1728 2601 
C 1523 2819 1235 2819 1126 2819 
C 416 2819 160 2447 160 2076 
C 160 1498 813 1365 998 1325 
C 1402 1243 1542 1217 1677 1101 
C 1760 1025 1901 884 1901 654 
C 1901 384 1747 38 1158 38 
C 602 38 403 460 288 1021 
C 269 1110 269 1117 218 1117 
C 166 1117 160 1110 160 983 
L 160 63 
C 160 -51 166 -58 205 -58 
C 237 -58 243 -51 275 0 
C 314 57 410 211 448 276 
C 576 103 800 -64 1158 -64 
C 1792 -64 2131 283 2131 784 
C 2131 1112 1958 1285 1875 1362 
C 1683 1561 1459 1606 1190 1657 
C 838 1735 390 1825 390 2217 
C 390 2383 480 2737 1126 2737 
C 1811 2737 1850 2094 1862 1888 
C 1869 1856 1901 1849 1920 1849 
C 1978 1849 1978 1869 1978 1978 
L 1978 2697 
z
" transform="scale(0.015625)"/>
       <path id="CMR17-5d" d="M 915 4767 
L 90 4767 
L 90 4544 
L 691 4544 
L 691 -1377 
L 90 -1377 
L 90 -1600 
L 915 -1600 
L 915 4767 
z
" transform="scale(0.015625)"/>
      </defs>
      <use xlink:href="#CMMI12-74" transform="scale(0.996264)"/>
      <use xlink:href="#CMR17-5b" transform="translate(65.302297 0) scale(0.996264)"/>
      <use xlink:href="#CMR17-73" transform="translate(90.173355 0) scale(0.996264)"/>
      <use xlink:href="#CMR17-5d" transform="translate(125.974693 0) scale(0.996264)"/>
     </g>
    </g>
    <g id="text_8">
     <!-- $\times\mathdefault{10^{−5}}\mathdefault{}$ -->
     <g transform="translate(213.913481 171.488332) scale(0.1 -0.1)">
      <defs>
       <path id="CMSY10-2" d="M 2490 1785 
L 1210 3059 
C 1133 3136 1120 3148 1069 3148 
C 1005 3148 941 3091 941 3020 
C 941 2976 954 2963 1024 2892 
L 2304 1606 
L 1024 320 
C 954 249 941 236 941 192 
C 941 121 1005 64 1069 64 
C 1120 64 1133 76 1210 153 
L 2483 1427 
L 3808 102 
C 3821 96 3866 64 3904 64 
C 3981 64 4032 121 4032 192 
C 4032 204 4032 230 4013 262 
C 4006 275 2989 1280 2669 1606 
L 3840 2777 
C 3872 2816 3968 2899 4000 2937 
C 4006 2950 4032 2976 4032 3020 
C 4032 3091 3981 3148 3904 3148 
C 3853 3148 3827 3123 3757 3052 
L 2490 1785 
z
" transform="scale(0.015625)"/>
       <path id="CMSY10-0" d="M 4218 1472 
C 4326 1472 4442 1472 4442 1600 
C 4442 1728 4326 1728 4218 1728 
L 755 1728 
C 646 1728 531 1728 531 1600 
C 531 1472 646 1472 755 1472 
L 4218 1472 
z
" transform="scale(0.015625)"/>
      </defs>
      <use xlink:href="#CMSY10-2" transform="scale(0.996264)"/>
      <use xlink:href="#CMR17-31" transform="translate(77.487468 0) scale(0.996264)"/>
      <use xlink:href="#CMR17-30" transform="translate(123.177945 0) scale(0.996264)"/>
      <use xlink:href="#CMSY10-0" transform="translate(168.868422 36.153639) scale(0.697382)"/>
      <use xlink:href="#CMR17-35" transform="translate(223.109415 36.153639) scale(0.697382)"/>
     </g>
    </g>
   </g>
   <g id="matplotlib.axis_2">
    <g id="ytick_1">
     <g id="line2d_57">
      <defs>
       <path id="m1b73a7ff91" d="M 0 0 
L 3 0 
" style="stroke: #000000; stroke-width: 0.5"/>
      </defs>
      <g>
       <use xlink:href="#m1b73a7ff91" x="46.522798" y="126.038225" style="stroke: #000000; stroke-width: 0.5"/>
      </g>
     </g>
     <g id="line2d_58">
      <defs>
       <path id="m270fb6d172" d="M 0 0 
L -3 0 
" style="stroke: #000000; stroke-width: 0.5"/>
      </defs>
      <g>
       <use xlink:href="#m270fb6d172" x="241.822798" y="126.038225" style="stroke: #000000; stroke-width: 0.5"/>
      </g>
     </g>
     <g id="text_9">
      <!-- $\mathdefault{−0.02}$ -->
      <g transform="translate(17.56264 129.497474) scale(0.1 -0.1)">
       <defs>
        <path id="CMMI12-3a" d="M 1178 307 
C 1178 492 1024 619 870 619 
C 685 619 557 466 557 313 
C 557 128 710 0 864 0 
C 1050 0 1178 153 1178 307 
z
" transform="scale(0.015625)"/>
       </defs>
       <use xlink:href="#CMSY10-0" transform="scale(0.996264)"/>
       <use xlink:href="#CMR17-30" transform="translate(77.487468 0) scale(0.996264)"/>
       <use xlink:href="#CMMI12-3a" transform="translate(123.177945 0) scale(0.996264)"/>
       <use xlink:href="#CMR17-30" transform="translate(150.275122 0) scale(0.996264)"/>
       <use xlink:href="#CMR17-32" transform="translate(195.965599 0) scale(0.996264)"/>
      </g>
     </g>
    </g>
    <g id="ytick_2">
     <g id="line2d_59">
      <g>
       <use xlink:href="#m1b73a7ff91" x="46.522798" y="101.230842" style="stroke: #000000; stroke-width: 0.5"/>
      </g>
     </g>
     <g id="line2d_60">
      <g>
       <use xlink:href="#m270fb6d172" x="241.822798" y="101.230842" style="stroke: #000000; stroke-width: 0.5"/>
      </g>
     </g>
     <g id="text_10">
      <!-- $\mathdefault{−0.01}$ -->
      <g transform="translate(17.56264 104.690091) scale(0.1 -0.1)">
       <use xlink:href="#CMSY10-0" transform="scale(0.996264)"/>
       <use xlink:href="#CMR17-30" transform="translate(77.487468 0) scale(0.996264)"/>
       <use xlink:href="#CMMI12-3a" transform="translate(123.177945 0) scale(0.996264)"/>
       <use xlink:href="#CMR17-30" transform="translate(150.275122 0) scale(0.996264)"/>
       <use xlink:href="#CMR17-31" transform="translate(195.965599 0) scale(0.996264)"/>
      </g>
     </g>
    </g>
    <g id="ytick_3">
     <g id="line2d_61">
      <g>
       <use xlink:href="#m1b73a7ff91" x="46.522798" y="76.423459" style="stroke: #000000; stroke-width: 0.5"/>
      </g>
     </g>
     <g id="line2d_62">
      <g>
       <use xlink:href="#m270fb6d172" x="241.822798" y="76.423459" style="stroke: #000000; stroke-width: 0.5"/>
      </g>
     </g>
     <g id="text_11">
      <!-- $\mathdefault{0.00}$ -->
      <g transform="translate(25.311384 79.882708) scale(0.1 -0.1)">
       <use xlink:href="#CMR17-30" transform="scale(0.996264)"/>
       <use xlink:href="#CMMI12-3a" transform="translate(45.690477 0) scale(0.996264)"/>
       <use xlink:href="#CMR17-30" transform="translate(72.787654 0) scale(0.996264)"/>
       <use xlink:href="#CMR17-30" transform="translate(118.478131 0) scale(0.996264)"/>
      </g>
     </g>
    </g>
    <g id="ytick_4">
     <g id="line2d_63">
      <g>
       <use xlink:href="#m1b73a7ff91" x="46.522798" y="51.616075" style="stroke: #000000; stroke-width: 0.5"/>
      </g>
     </g>
     <g id="line2d_64">
      <g>
       <use xlink:href="#m270fb6d172" x="241.822798" y="51.616075" style="stroke: #000000; stroke-width: 0.5"/>
      </g>
     </g>
     <g id="text_12">
      <!-- $\mathdefault{0.01}$ -->
      <g transform="translate(25.311384 55.075325) scale(0.1 -0.1)">
       <use xlink:href="#CMR17-30" transform="scale(0.996264)"/>
       <use xlink:href="#CMMI12-3a" transform="translate(45.690477 0) scale(0.996264)"/>
       <use xlink:href="#CMR17-30" transform="translate(72.787654 0) scale(0.996264)"/>
       <use xlink:href="#CMR17-31" transform="translate(118.478131 0) scale(0.996264)"/>
      </g>
     </g>
    </g>
    <g id="ytick_5">
     <g id="line2d_65">
      <g>
       <use xlink:href="#m1b73a7ff91" x="46.522798" y="26.808692" style="stroke: #000000; stroke-width: 0.5"/>
      </g>
     </g>
     <g id="line2d_66">
      <g>
       <use xlink:href="#m270fb6d172" x="241.822798" y="26.808692" style="stroke: #000000; stroke-width: 0.5"/>
      </g>
     </g>
     <g id="text_13">
      <!-- $\mathdefault{0.02}$ -->
      <g transform="translate(25.311384 30.267941) scale(0.1 -0.1)">
       <use xlink:href="#CMR17-30" transform="scale(0.996264)"/>
       <use xlink:href="#CMMI12-3a" transform="translate(45.690477 0) scale(0.996264)"/>
       <use xlink:href="#CMR17-30" transform="translate(72.787654 0) scale(0.996264)"/>
       <use xlink:href="#CMR17-32" transform="translate(118.478131 0) scale(0.996264)"/>
      </g>
     </g>
    </g>
    <g id="ytick_6">
     <g id="line2d_67">
      <defs>
       <path id="m43317bdf47" d="M 0 0 
L 1.5 0 
" style="stroke: #000000; stroke-width: 0.5"/>
      </defs>
      <g>
       <use xlink:href="#m43317bdf47" x="46.522798" y="145.884132" style="stroke: #000000; stroke-width: 0.5"/>
      </g>
     </g>
     <g id="line2d_68">
      <defs>
       <path id="ma957da1d91" d="M 0 0 
L -1.5 0 
" style="stroke: #000000; stroke-width: 0.5"/>
      </defs>
      <g>
       <use xlink:href="#ma957da1d91" x="241.822798" y="145.884132" style="stroke: #000000; stroke-width: 0.5"/>
      </g>
     </g>
    </g>
    <g id="ytick_7">
     <g id="line2d_69">
      <g>
       <use xlink:href="#m43317bdf47" x="46.522798" y="140.922655" style="stroke: #000000; stroke-width: 0.5"/>
      </g>
     </g>
     <g id="line2d_70">
      <g>
       <use xlink:href="#ma957da1d91" x="241.822798" y="140.922655" style="stroke: #000000; stroke-width: 0.5"/>
      </g>
     </g>
    </g>
    <g id="ytick_8">
     <g id="line2d_71">
      <g>
       <use xlink:href="#m43317bdf47" x="46.522798" y="135.961178" style="stroke: #000000; stroke-width: 0.5"/>
      </g>
     </g>
     <g id="line2d_72">
      <g>
       <use xlink:href="#ma957da1d91" x="241.822798" y="135.961178" style="stroke: #000000; stroke-width: 0.5"/>
      </g>
     </g>
    </g>
    <g id="ytick_9">
     <g id="line2d_73">
      <g>
       <use xlink:href="#m43317bdf47" x="46.522798" y="130.999702" style="stroke: #000000; stroke-width: 0.5"/>
      </g>
     </g>
     <g id="line2d_74">
      <g>
       <use xlink:href="#ma957da1d91" x="241.822798" y="130.999702" style="stroke: #000000; stroke-width: 0.5"/>
      </g>
     </g>
    </g>
    <g id="ytick_10">
     <g id="line2d_75">
      <g>
       <use xlink:href="#m43317bdf47" x="46.522798" y="121.076748" style="stroke: #000000; stroke-width: 0.5"/>
      </g>
     </g>
     <g id="line2d_76">
      <g>
       <use xlink:href="#ma957da1d91" x="241.822798" y="121.076748" style="stroke: #000000; stroke-width: 0.5"/>
      </g>
     </g>
    </g>
    <g id="ytick_11">
     <g id="line2d_77">
      <g>
       <use xlink:href="#m43317bdf47" x="46.522798" y="116.115272" style="stroke: #000000; stroke-width: 0.5"/>
      </g>
     </g>
     <g id="line2d_78">
      <g>
       <use xlink:href="#ma957da1d91" x="241.822798" y="116.115272" style="stroke: #000000; stroke-width: 0.5"/>
      </g>
     </g>
    </g>
    <g id="ytick_12">
     <g id="line2d_79">
      <g>
       <use xlink:href="#m43317bdf47" x="46.522798" y="111.153795" style="stroke: #000000; stroke-width: 0.5"/>
      </g>
     </g>
     <g id="line2d_80">
      <g>
       <use xlink:href="#ma957da1d91" x="241.822798" y="111.153795" style="stroke: #000000; stroke-width: 0.5"/>
      </g>
     </g>
    </g>
    <g id="ytick_13">
     <g id="line2d_81">
      <g>
       <use xlink:href="#m43317bdf47" x="46.522798" y="106.192318" style="stroke: #000000; stroke-width: 0.5"/>
      </g>
     </g>
     <g id="line2d_82">
      <g>
       <use xlink:href="#ma957da1d91" x="241.822798" y="106.192318" style="stroke: #000000; stroke-width: 0.5"/>
      </g>
     </g>
    </g>
    <g id="ytick_14">
     <g id="line2d_83">
      <g>
       <use xlink:href="#m43317bdf47" x="46.522798" y="96.269365" style="stroke: #000000; stroke-width: 0.5"/>
      </g>
     </g>
     <g id="line2d_84">
      <g>
       <use xlink:href="#ma957da1d91" x="241.822798" y="96.269365" style="stroke: #000000; stroke-width: 0.5"/>
      </g>
     </g>
    </g>
    <g id="ytick_15">
     <g id="line2d_85">
      <g>
       <use xlink:href="#m43317bdf47" x="46.522798" y="91.307889" style="stroke: #000000; stroke-width: 0.5"/>
      </g>
     </g>
     <g id="line2d_86">
      <g>
       <use xlink:href="#ma957da1d91" x="241.822798" y="91.307889" style="stroke: #000000; stroke-width: 0.5"/>
      </g>
     </g>
    </g>
    <g id="ytick_16">
     <g id="line2d_87">
      <g>
       <use xlink:href="#m43317bdf47" x="46.522798" y="86.346412" style="stroke: #000000; stroke-width: 0.5"/>
      </g>
     </g>
     <g id="line2d_88">
      <g>
       <use xlink:href="#ma957da1d91" x="241.822798" y="86.346412" style="stroke: #000000; stroke-width: 0.5"/>
      </g>
     </g>
    </g>
    <g id="ytick_17">
     <g id="line2d_89">
      <g>
       <use xlink:href="#m43317bdf47" x="46.522798" y="81.384935" style="stroke: #000000; stroke-width: 0.5"/>
      </g>
     </g>
     <g id="line2d_90">
      <g>
       <use xlink:href="#ma957da1d91" x="241.822798" y="81.384935" style="stroke: #000000; stroke-width: 0.5"/>
      </g>
     </g>
    </g>
    <g id="ytick_18">
     <g id="line2d_91">
      <g>
       <use xlink:href="#m43317bdf47" x="46.522798" y="71.461982" style="stroke: #000000; stroke-width: 0.5"/>
      </g>
     </g>
     <g id="line2d_92">
      <g>
       <use xlink:href="#ma957da1d91" x="241.822798" y="71.461982" style="stroke: #000000; stroke-width: 0.5"/>
      </g>
     </g>
    </g>
    <g id="ytick_19">
     <g id="line2d_93">
      <g>
       <use xlink:href="#m43317bdf47" x="46.522798" y="66.500505" style="stroke: #000000; stroke-width: 0.5"/>
      </g>
     </g>
     <g id="line2d_94">
      <g>
       <use xlink:href="#ma957da1d91" x="241.822798" y="66.500505" style="stroke: #000000; stroke-width: 0.5"/>
      </g>
     </g>
    </g>
    <g id="ytick_20">
     <g id="line2d_95">
      <g>
       <use xlink:href="#m43317bdf47" x="46.522798" y="61.539029" style="stroke: #000000; stroke-width: 0.5"/>
      </g>
     </g>
     <g id="line2d_96">
      <g>
       <use xlink:href="#ma957da1d91" x="241.822798" y="61.539029" style="stroke: #000000; stroke-width: 0.5"/>
      </g>
     </g>
    </g>
    <g id="ytick_21">
     <g id="line2d_97">
      <g>
       <use xlink:href="#m43317bdf47" x="46.522798" y="56.577552" style="stroke: #000000; stroke-width: 0.5"/>
      </g>
     </g>
     <g id="line2d_98">
      <g>
       <use xlink:href="#ma957da1d91" x="241.822798" y="56.577552" style="stroke: #000000; stroke-width: 0.5"/>
      </g>
     </g>
    </g>
    <g id="ytick_22">
     <g id="line2d_99">
      <g>
       <use xlink:href="#m43317bdf47" x="46.522798" y="46.654599" style="stroke: #000000; stroke-width: 0.5"/>
      </g>
     </g>
     <g id="line2d_100">
      <g>
       <use xlink:href="#ma957da1d91" x="241.822798" y="46.654599" style="stroke: #000000; stroke-width: 0.5"/>
      </g>
     </g>
    </g>
    <g id="ytick_23">
     <g id="line2d_101">
      <g>
       <use xlink:href="#m43317bdf47" x="46.522798" y="41.693122" style="stroke: #000000; stroke-width: 0.5"/>
      </g>
     </g>
     <g id="line2d_102">
      <g>
       <use xlink:href="#ma957da1d91" x="241.822798" y="41.693122" style="stroke: #000000; stroke-width: 0.5"/>
      </g>
     </g>
    </g>
    <g id="ytick_24">
     <g id="line2d_103">
      <g>
       <use xlink:href="#m43317bdf47" x="46.522798" y="36.731645" style="stroke: #000000; stroke-width: 0.5"/>
      </g>
     </g>
     <g id="line2d_104">
      <g>
       <use xlink:href="#ma957da1d91" x="241.822798" y="36.731645" style="stroke: #000000; stroke-width: 0.5"/>
      </g>
     </g>
    </g>
    <g id="ytick_25">
     <g id="line2d_105">
      <g>
       <use xlink:href="#m43317bdf47" x="46.522798" y="31.770169" style="stroke: #000000; stroke-width: 0.5"/>
      </g>
     </g>
     <g id="line2d_106">
      <g>
       <use xlink:href="#ma957da1d91" x="241.822798" y="31.770169" style="stroke: #000000; stroke-width: 0.5"/>
      </g>
     </g>
    </g>
    <g id="ytick_26">
     <g id="line2d_107">
      <g>
       <use xlink:href="#m43317bdf47" x="46.522798" y="21.847215" style="stroke: #000000; stroke-width: 0.5"/>
      </g>
     </g>
     <g id="line2d_108">
      <g>
       <use xlink:href="#ma957da1d91" x="241.822798" y="21.847215" style="stroke: #000000; stroke-width: 0.5"/>
      </g>
     </g>
    </g>
    <g id="ytick_27">
     <g id="line2d_109">
      <g>
       <use xlink:href="#m43317bdf47" x="46.522798" y="16.885739" style="stroke: #000000; stroke-width: 0.5"/>
      </g>
     </g>
     <g id="line2d_110">
      <g>
       <use xlink:href="#ma957da1d91" x="241.822798" y="16.885739" style="stroke: #000000; stroke-width: 0.5"/>
      </g>
     </g>
    </g>
    <g id="ytick_28">
     <g id="line2d_111">
      <g>
       <use xlink:href="#m43317bdf47" x="46.522798" y="11.924262" style="stroke: #000000; stroke-width: 0.5"/>
      </g>
     </g>
     <g id="line2d_112">
      <g>
       <use xlink:href="#ma957da1d91" x="241.822798" y="11.924262" style="stroke: #000000; stroke-width: 0.5"/>
      </g>
     </g>
    </g>
    <g id="ytick_29">
     <g id="line2d_113">
      <g>
       <use xlink:href="#m43317bdf47" x="46.522798" y="6.962786" style="stroke: #000000; stroke-width: 0.5"/>
      </g>
     </g>
     <g id="line2d_114">
      <g>
       <use xlink:href="#ma957da1d91" x="241.822798" y="6.962786" style="stroke: #000000; stroke-width: 0.5"/>
      </g>
     </g>
    </g>
    <g id="text_14">
     <!-- $\phi_7$ [V] -->
     <g transform="translate(11.07198 89.73157) rotate(-90) scale(0.1 -0.1)">
      <defs>
       <path id="CMMI12-1e" d="M 2752 4390 
C 2752 4448 2707 4448 2688 4448 
C 2630 4448 2624 4435 2598 4326 
L 2253 2939 
C 2234 2856 2227 2849 2221 2843 
C 2214 2830 2170 2824 2157 2824 
C 1107 2734 301 1864 301 1057 
C 301 361 832 -64 1498 -64 
C 1446 -261 1402 -463 1350 -659 
C 1261 -995 1210 -1204 1210 -1229 
C 1210 -1241 1210 -1280 1274 -1280 
C 1293 -1280 1318 -1280 1331 -1254 
C 1344 -1241 1382 -1089 1408 -1008 
L 1645 -64 
C 2739 -64 3571 854 3571 1680 
C 3571 2343 3085 2816 2374 2816 
L 2752 4390 
z
M 2336 2701 
C 2758 2701 3181 2463 3181 1828 
C 3181 1097 2675 128 1677 50 
L 2336 2701 
z
M 1530 50 
C 1216 50 691 220 691 938 
C 691 1761 1274 2676 2195 2676 
L 1530 50 
z
" transform="scale(0.015625)"/>
       <path id="CMR17-37" d="M 2886 3941 
L 2886 4081 
L 1382 4081 
C 634 4081 621 4165 595 4288 
L 480 4288 
L 294 3094 
L 410 3094 
C 429 3215 474 3540 550 3661 
C 589 3712 1062 3712 1171 3712 
L 2579 3712 
L 1869 2661 
C 1395 1954 1069 999 1069 165 
C 1069 89 1069 -128 1299 -128 
C 1530 -128 1530 89 1530 171 
L 1530 465 
C 1530 1508 1709 2196 2003 2636 
L 2886 3941 
z
" transform="scale(0.015625)"/>
       <path id="CMR17-56" d="M 3776 3745 
C 3834 3886 3936 4160 4365 4160 
L 4365 4332 
C 4218 4319 4051 4319 3891 4319 
C 3738 4319 3475 4319 3328 4332 
L 3328 4160 
C 3648 4160 3661 3936 3661 3898 
C 3661 3827 3642 3783 3622 3732 
L 2362 446 
L 1043 3886 
C 1024 3931 1011 3963 1011 3994 
C 1011 4160 1267 4160 1402 4160 
L 1402 4319 
C 1197 4319 896 4319 685 4319 
C 518 4319 218 4319 64 4332 
L 64 4160 
C 435 4160 506 4135 582 3931 
L 2106 -26 
C 2138 -115 2144 -128 2214 -128 
C 2285 -128 2291 -115 2323 -26 
L 3776 3745 
z
" transform="scale(0.015625)"/>
      </defs>
      <use xlink:href="#CMMI12-1e" transform="scale(0.996264)"/>
      <use xlink:href="#CMR17-37" transform="translate(57.73418 -14.943915) scale(0.697382)"/>
      <use xlink:href="#CMR17-5b" transform="translate(120.291461 0) scale(0.996264)"/>
      <use xlink:href="#CMR17-56" transform="translate(145.162519 0) scale(0.996264)"/>
      <use xlink:href="#CMR17-5d" transform="translate(214.234949 0) scale(0.996264)"/>
     </g>
    </g>
   </g>
   <g id="line2d_115">
    <path d="M 55.400071 141.661645 
L 55.756588 140.265989 
L 56.113105 136.769753 
L 56.469622 134.460082 
L 56.826139 130.650844 
L 57.182656 129.472402 
L 57.89569 122.998394 
L 58.252207 121.037529 
L 59.321758 112.884943 
L 59.678275 112.377083 
L 60.034791 110.33057 
L 60.747825 104.374805 
L 61.104342 102.752898 
L 61.817376 96.608369 
L 62.886927 90.29822 
L 63.243444 90.33538 
L 63.956478 77.900573 
L 64.312995 77.495316 
L 64.669512 77.405709 
L 65.026029 73.181275 
L 65.382546 65.519798 
L 65.739063 65.847695 
L 66.808614 62.241735 
L 68.234682 51.450291 
L 68.591199 49.760526 
L 68.947716 46.74359 
L 69.66075 42.402061 
L 71.443335 27.469493 
L 71.799852 22.416335 
L 72.156369 20.246863 
L 73.22592 10.215 
L 73.582437 14.202598 
L 73.938954 15.990338 
L 75.008505 23.272016 
L 75.365021 25.674073 
L 75.721538 29.976715 
L 76.791089 37.70699 
L 78.573674 48.081171 
L 79.286708 53.225008 
L 79.643225 56.637475 
L 80.356259 60.641634 
L 80.712776 61.790928 
L 81.069293 61.903797 
L 81.42581 70.931779 
L 81.782327 75.298855 
L 82.495361 75.51854 
L 82.851878 79.68107 
L 83.208395 88.103834 
L 83.564912 87.787002 
L 83.921429 87.91311 
L 84.634463 90.986495 
L 85.704014 99.559561 
L 86.060531 101.38344 
L 86.417048 104.058547 
L 86.773565 105.666761 
L 87.130082 107.932367 
L 87.486599 111.610284 
L 87.843116 113.507145 
L 88.55615 119.388753 
L 91.051768 142.042078 
L 91.764802 136.736776 
L 92.477836 131.795059 
L 92.834353 129.076017 
L 93.19087 125.496036 
L 93.547387 123.417089 
L 93.903904 119.962226 
L 95.329972 111.634566 
L 96.043006 107.859546 
L 96.399523 104.534819 
L 96.75604 102.720951 
L 97.469074 96.237256 
L 97.825591 94.988647 
L 98.538625 90.858254 
L 98.895142 89.816016 
L 99.608176 78.027983 
L 99.964693 77.485829 
L 100.32121 77.396222 
L 100.677727 73.695915 
L 101.034244 65.192478 
L 101.390761 65.971126 
L 101.747278 64.572113 
L 102.103795 63.849387 
L 102.460312 62.767747 
L 103.173346 56.003497 
L 104.599414 45.965438 
L 104.955931 44.89177 
L 105.668965 39.541865 
L 106.025482 35.421416 
L 107.451549 23.703303 
L 108.5211 13.344661 
L 108.877617 11.992863 
L 109.590651 15.309727 
L 112.442787 38.141318 
L 112.799304 39.948371 
L 113.155821 41.120142 
L 113.512338 43.733535 
L 113.868855 44.743598 
L 114.225372 48.381653 
L 114.938406 52.77107 
L 115.65144 58.929521 
L 116.007957 60.288293 
L 116.364474 62.404838 
L 116.720991 63.130051 
L 117.434025 75.304777 
L 117.790542 75.39745 
L 118.147059 75.714219 
L 118.503576 79.872562 
L 118.860093 87.603348 
L 119.21661 87.374769 
L 119.573127 87.906924 
L 119.929644 90.367779 
L 120.286161 90.874922 
L 122.068745 104.232822 
L 122.425262 105.436705 
L 122.781779 107.403188 
L 124.207847 119.202481 
L 124.564364 123.339014 
L 124.920881 126.061787 
L 125.277398 129.788559 
L 125.633915 131.732063 
L 126.346949 139.57394 
L 126.703466 142.425037 
L 127.059983 139.063655 
L 127.773017 134.598015 
L 129.912119 117.657077 
L 130.268636 116.358733 
L 131.338187 109.697951 
L 132.051221 105.341929 
L 132.407738 102.916175 
L 133.120772 96.402735 
L 134.190323 90.636081 
L 134.54684 89.839241 
L 135.259874 77.909261 
L 135.616391 77.496705 
L 135.972908 77.407098 
L 136.329425 72.625392 
L 136.685942 64.094739 
L 137.042459 65.358126 
L 137.755492 64.063526 
L 140.251111 46.686916 
L 140.964145 42.733477 
L 141.677179 36.417076 
L 142.390213 30.562471 
L 142.74673 26.528002 
L 143.459764 20.878278 
L 144.172798 13.497748 
L 144.529315 11.696698 
L 144.885832 12.984331 
L 145.242349 16.446756 
L 145.955383 21.77935 
L 146.668417 26.999735 
L 148.451002 40.423811 
L 148.807519 41.189886 
L 149.164036 42.792215 
L 150.233587 49.939278 
L 150.590104 52.883739 
L 150.946621 56.973412 
L 151.303138 58.085599 
L 151.659655 60.5008 
L 152.016172 61.439072 
L 152.372689 63.410354 
L 153.085722 74.355148 
L 153.442239 75.396039 
L 153.798756 75.485646 
L 154.155273 79.37104 
L 154.51179 87.720102 
L 154.868307 87.033782 
L 155.224824 87.879685 
L 155.937858 90.265956 
L 156.294375 94.185162 
L 156.650892 96.138548 
L 157.363926 101.791227 
L 157.720443 103.069732 
L 158.07696 106.083905 
L 158.433477 107.910646 
L 159.859545 119.762999 
L 160.216062 123.732475 
L 160.929096 129.246119 
L 162.355164 141.886352 
L 162.711681 140.308986 
L 163.424715 134.061406 
L 165.2073 120.708259 
L 165.563817 117.386776 
L 165.920334 115.870778 
L 166.276851 112.584191 
L 166.633368 111.831371 
L 167.346402 107.631514 
L 167.702919 104.553433 
L 168.059436 102.708053 
L 169.128986 93.821841 
L 169.485503 92.613799 
L 169.84202 90.488396 
L 170.198537 89.843381 
L 170.911571 77.795572 
L 171.268088 77.502176 
L 171.624605 79.759382 
L 172.337639 65.713456 
L 172.694156 66.096309 
L 173.763707 61.416456 
L 175.902809 47.272994 
L 176.259326 45.379196 
L 177.685394 32.517937 
L 178.398428 27.226815 
L 179.111462 20.070524 
L 179.467979 17.299128 
L 180.181013 10.851207 
L 180.894047 15.570379 
L 181.250564 17.766292 
L 181.607081 22.367605 
L 181.963598 24.125844 
L 182.676632 30.600507 
L 183.033149 32.052244 
L 183.746182 37.534696 
L 184.459216 41.910354 
L 185.17225 45.90125 
L 185.528767 47.169973 
L 185.885284 49.998016 
L 186.241801 53.917151 
L 186.598318 56.145788 
L 186.954835 59.086985 
L 187.311352 59.997776 
L 187.667869 62.256395 
L 188.024386 62.696728 
L 188.73742 74.889228 
L 189.093937 75.399924 
L 189.450454 75.489532 
L 189.806971 79.767001 
L 190.163488 88.030177 
L 190.520005 87.038541 
L 190.876522 87.975186 
L 191.233039 89.932754 
L 191.589556 90.801307 
L 193.728658 106.754499 
L 194.085175 108.201044 
L 194.798209 113.122227 
L 195.511243 119.723389 
L 196.937311 133.919722 
L 197.293828 135.330952 
L 197.650345 139.672521 
L 198.006862 142.515 
L 198.363379 138.8306 
L 198.719896 137.296687 
L 199.432929 130.694649 
L 199.789446 129.52337 
L 200.145963 126.198618 
L 200.50248 123.960846 
L 200.858997 120.308916 
L 203.711133 102.780541 
L 204.780684 94.816726 
L 205.850235 90.839119 
L 206.206752 81.528338 
L 206.563269 78.03851 
L 206.919786 77.497291 
L 207.276303 77.407684 
L 207.63282 73.503817 
L 207.989337 65.058473 
L 208.345854 66.189095 
L 209.771922 59.546007 
L 210.128439 56.073789 
L 211.911024 45.210068 
L 212.267541 42.078265 
L 212.624058 40.421525 
L 212.980575 35.823497 
L 213.337092 33.754081 
L 214.763159 18.72283 
L 215.119676 17.466415 
L 215.83271 10.860039 
L 216.189227 12.072035 
L 216.902261 18.86034 
L 217.258778 20.725828 
L 217.971812 27.139939 
L 218.328329 28.75697 
L 219.041363 35.395794 
L 219.754397 39.804338 
L 220.110914 40.891316 
L 220.467431 43.297543 
L 220.823948 44.745348 
L 221.536982 51.117429 
L 221.893499 52.982121 
L 222.250016 57.277031 
L 222.606533 58.209982 
L 222.96305 60.035749 
L 223.319567 62.541868 
L 223.676084 62.835723 
L 224.032601 71.263241 
L 224.389118 75.177239 
L 225.102152 75.481695 
L 225.458669 79.549279 
L 225.815186 88.385872 
L 226.171703 87.193458 
L 226.52822 88.046955 
L 227.241254 90.537715 
L 227.954288 96.800291 
L 228.310805 99.376626 
L 228.667322 100.958771 
L 229.380356 106.330008 
L 230.09339 110.755359 
L 230.449906 113.30013 
L 231.875974 125.959686 
L 232.945525 135.224194 
L 232.945525 135.224194 
" clip-path="url(#pd74a340140)" style="fill: none; stroke: #4477aa; stroke-linecap: square"/>
   </g>
   <g id="patch_3">
    <path d="M 46.522798 149.13 
L 46.522798 3.6 
" style="fill: none; stroke: #000000; stroke-width: 0.5; stroke-linejoin: miter; stroke-linecap: square"/>
   </g>
   <g id="patch_4">
    <path d="M 241.822798 149.13 
L 241.822798 3.6 
" style="fill: none; stroke: #000000; stroke-width: 0.5; stroke-linejoin: miter; stroke-linecap: square"/>
   </g>
   <g id="patch_5">
    <path d="M 46.522798 149.13 
L 241.822798 149.13 
" style="fill: none; stroke: #000000; stroke-width: 0.5; stroke-linejoin: miter; stroke-linecap: square"/>
   </g>
   <g id="patch_6">
    <path d="M 46.522798 3.6 
L 241.822798 3.6 
" style="fill: none; stroke: #000000; stroke-width: 0.5; stroke-linejoin: miter; stroke-linecap: square"/>
   </g>
  </g>
 </g>
 <defs>
  <clipPath id="pd74a340140">
   <rect x="46.522798" y="3.6" width="195.3" height="145.53"/>
  </clipPath>
 </defs>
</svg>
