<?xml version="1.0" encoding="utf-8" standalone="no"?>
<!DOCTYPE svg PUBLIC "-//W3C//DTD SVG 1.1//EN"
  "http://www.w3.org/Graphics/SVG/1.1/DTD/svg11.dtd">
<svg xmlns:xlink="http://www.w3.org/1999/xlink" width="181.100311pt" height="141.558853pt" viewBox="0 0 181.100311 141.558853" xmlns="http://www.w3.org/2000/svg" version="1.1">
 <metadata>
  <rdf:RDF xmlns:dc="http://purl.org/dc/elements/1.1/" xmlns:cc="http://creativecommons.org/ns#" xmlns:rdf="http://www.w3.org/1999/02/22-rdf-syntax-ns#">
   <cc:Work>
    <dc:type rdf:resource="http://purl.org/dc/dcmitype/StillImage"/>
    <dc:date>2026-02-05T10:54:06.957938</dc:date>
    <dc:format>image/svg+xml</dc:format>
    <dc:creator>
     <cc:Agent>
      <dc:title>Matplotlib v3.9.2, https://matplotlib.org/</dc:title>
     </cc:Agent>
    </dc:creator>
   </cc:Work>
  </rdf:RDF>
 </metadata>
 <defs>
  <style type="text/css">*{stroke-linejoin: round; stroke-linecap: butt}</style>
 </defs>
 <g id="figure_1">
  <g id="patch_1">
   <path d="M 0 141.558853 
L 181.100311 141.558853 
L 181.100311 0 
L 0 0 
L 0 141.558853 
z
" style="fill: none"/>
  </g>
  <g id="axes_1">
   <g id="patch_2">
    <path d="M 31.025311 112.7475 
L 177.500311 112.7475 
L 177.500311 3.6 
L 31.025311 3.6 
L 31.025311 112.7475 
z
" style="fill: none"/>
   </g>
   <g id="matplotlib.axis_1">
    <g id="xtick_1">
     <g id="line2d_1">
      <path d="M 31.025311 112.7475 
L 31.025311 3.6 
" clip-path="url(#pe41d236620)" style="fill: none; stroke-dasharray: 1.85,0.8; stroke-dashoffset: 0; stroke: #000000; stroke-opacity: 0.5; stroke-width: 0.5"/>
     </g>
     <g id="line2d_2">
      <defs>
       <path id="meeeb47453c" d="M 0 0 
L 0 -3 
" style="stroke: #000000; stroke-width: 0.5"/>
      </defs>
      <g>
       <use xlink:href="#meeeb47453c" x="31.025311" y="112.7475" style="stroke: #000000; stroke-width: 0.5"/>
      </g>
     </g>
     <g id="line2d_3">
      <defs>
       <path id="m4536a68a61" d="M 0 0 
L 0 3 
" style="stroke: #000000; stroke-width: 0.5"/>
      </defs>
      <g>
       <use xlink:href="#m4536a68a61" x="31.025311" y="3.6" style="stroke: #000000; stroke-width: 0.5"/>
      </g>
     </g>
     <g id="text_1">
      <!-- $\mathdefault{10^{-3}}$ -->
      <g transform="translate(20.945024 123.165998) scale(0.1 -0.1)">
       <defs>
        <path id="CMR17-31" d="M 1702 4058 
C 1702 4192 1696 4192 1606 4192 
C 1357 3916 979 3827 621 3827 
C 602 3827 570 3827 563 3808 
C 557 3795 557 3782 557 3648 
C 755 3648 1088 3686 1344 3839 
L 1344 461 
C 1344 236 1331 160 781 160 
L 589 160 
L 589 0 
C 896 0 1216 0 1523 0 
C 1830 0 2150 0 2458 0 
L 2458 160 
L 2266 160 
C 1715 160 1702 230 1702 458 
L 1702 4058 
z
" transform="scale(0.015625)"/>
        <path id="CMR17-30" d="M 2688 2025 
C 2688 2416 2682 3080 2413 3591 
C 2176 4039 1798 4198 1466 4198 
C 1158 4198 768 4058 525 3597 
C 269 3118 243 2524 243 2025 
C 243 1661 250 1106 448 619 
C 723 -39 1216 -128 1466 -128 
C 1760 -128 2208 -7 2470 600 
C 2662 1042 2688 1559 2688 2025 
z
M 1466 -26 
C 1056 -26 813 325 723 812 
C 653 1188 653 1738 653 2096 
C 653 2588 653 2997 736 3387 
C 858 3929 1216 4096 1466 4096 
C 1728 4096 2067 3923 2189 3400 
C 2272 3036 2278 2607 2278 2096 
C 2278 1680 2278 1169 2202 792 
C 2067 95 1690 -26 1466 -26 
z
" transform="scale(0.015625)"/>
        <path id="CMSY10-0" d="M 4218 1472 
C 4326 1472 4442 1472 4442 1600 
C 4442 1728 4326 1728 4218 1728 
L 755 1728 
C 646 1728 531 1728 531 1600 
C 531 1472 646 1472 755 1472 
L 4218 1472 
z
" transform="scale(0.015625)"/>
        <path id="CMR17-33" d="M 1414 2157 
C 1984 2157 2234 1662 2234 1090 
C 2234 320 1824 25 1453 25 
C 1114 25 563 194 390 693 
C 422 680 454 680 486 680 
C 640 680 755 782 755 948 
C 755 1133 614 1216 486 1216 
C 378 1216 211 1165 211 926 
C 211 335 787 -128 1466 -128 
C 2176 -128 2720 430 2720 1085 
C 2720 1707 2208 2157 1600 2227 
C 2086 2328 2554 2756 2554 3329 
C 2554 3820 2048 4179 1472 4179 
C 890 4179 378 3829 378 3329 
C 378 3110 544 3072 627 3072 
C 762 3072 877 3155 877 3321 
C 877 3486 762 3569 627 3569 
C 602 3569 570 3569 544 3557 
C 730 3959 1235 4032 1459 4032 
C 1683 4032 2106 3925 2106 3320 
C 2106 3143 2080 2828 1862 2550 
C 1670 2304 1453 2304 1242 2284 
C 1210 2284 1062 2269 1037 2269 
C 992 2263 966 2257 966 2208 
C 966 2163 973 2157 1101 2157 
L 1414 2157 
z
" transform="scale(0.015625)"/>
       </defs>
       <use xlink:href="#CMR17-31" transform="scale(0.996264)"/>
       <use xlink:href="#CMR17-30" transform="translate(45.690477 0) scale(0.996264)"/>
       <use xlink:href="#CMSY10-0" transform="translate(91.380954 36.153639) scale(0.697382)"/>
       <use xlink:href="#CMR17-33" transform="translate(145.621947 36.153639) scale(0.697382)"/>
      </g>
     </g>
    </g>
    <g id="xtick_2">
     <g id="line2d_4">
      <path d="M 65.081107 112.7475 
L 65.081107 3.6 
" clip-path="url(#pe41d236620)" style="fill: none; stroke-dasharray: 1.85,0.8; stroke-dashoffset: 0; stroke: #000000; stroke-opacity: 0.5; stroke-width: 0.5"/>
     </g>
     <g id="line2d_5">
      <g>
       <use xlink:href="#meeeb47453c" x="65.081107" y="112.7475" style="stroke: #000000; stroke-width: 0.5"/>
      </g>
     </g>
     <g id="line2d_6">
      <g>
       <use xlink:href="#m4536a68a61" x="65.081107" y="3.6" style="stroke: #000000; stroke-width: 0.5"/>
      </g>
     </g>
     <g id="text_2">
      <!-- $\mathdefault{10^{-2}}$ -->
      <g transform="translate(55.00082 123.165998) scale(0.1 -0.1)">
       <defs>
        <path id="CMR17-32" d="M 2669 989 
L 2554 989 
C 2490 536 2438 459 2413 420 
C 2381 369 1920 369 1830 369 
L 602 369 
C 832 619 1280 1072 1824 1597 
C 2214 1967 2669 2402 2669 3035 
C 2669 3790 2067 4224 1395 4224 
C 691 4224 262 3604 262 3030 
C 262 2780 448 2748 525 2748 
C 589 2748 781 2787 781 3010 
C 781 3207 614 3264 525 3264 
C 486 3264 448 3258 422 3245 
C 544 3790 915 4058 1306 4058 
C 1862 4058 2227 3617 2227 3035 
C 2227 2479 1901 2000 1536 1584 
L 262 146 
L 262 0 
L 2515 0 
L 2669 989 
z
" transform="scale(0.015625)"/>
       </defs>
       <use xlink:href="#CMR17-31" transform="scale(0.996264)"/>
       <use xlink:href="#CMR17-30" transform="translate(45.690477 0) scale(0.996264)"/>
       <use xlink:href="#CMSY10-0" transform="translate(91.380954 36.153639) scale(0.697382)"/>
       <use xlink:href="#CMR17-32" transform="translate(145.621947 36.153639) scale(0.697382)"/>
      </g>
     </g>
    </g>
    <g id="xtick_3">
     <g id="line2d_7">
      <path d="M 99.136903 112.7475 
L 99.136903 3.6 
" clip-path="url(#pe41d236620)" style="fill: none; stroke-dasharray: 1.85,0.8; stroke-dashoffset: 0; stroke: #000000; stroke-opacity: 0.5; stroke-width: 0.5"/>
     </g>
     <g id="line2d_8">
      <g>
       <use xlink:href="#meeeb47453c" x="99.136903" y="112.7475" style="stroke: #000000; stroke-width: 0.5"/>
      </g>
     </g>
     <g id="line2d_9">
      <g>
       <use xlink:href="#m4536a68a61" x="99.136903" y="3.6" style="stroke: #000000; stroke-width: 0.5"/>
      </g>
     </g>
     <g id="text_3">
      <!-- $\mathdefault{10^{-1}}$ -->
      <g transform="translate(89.056616 123.165998) scale(0.1 -0.1)">
       <use xlink:href="#CMR17-31" transform="scale(0.996264)"/>
       <use xlink:href="#CMR17-30" transform="translate(45.690477 0) scale(0.996264)"/>
       <use xlink:href="#CMSY10-0" transform="translate(91.380954 36.153639) scale(0.697382)"/>
       <use xlink:href="#CMR17-31" transform="translate(145.621947 36.153639) scale(0.697382)"/>
      </g>
     </g>
    </g>
    <g id="xtick_4">
     <g id="line2d_10">
      <path d="M 133.192699 112.7475 
L 133.192699 3.6 
" clip-path="url(#pe41d236620)" style="fill: none; stroke-dasharray: 1.85,0.8; stroke-dashoffset: 0; stroke: #000000; stroke-opacity: 0.5; stroke-width: 0.5"/>
     </g>
     <g id="line2d_11">
      <g>
       <use xlink:href="#meeeb47453c" x="133.192699" y="112.7475" style="stroke: #000000; stroke-width: 0.5"/>
      </g>
     </g>
     <g id="line2d_12">
      <g>
       <use xlink:href="#m4536a68a61" x="133.192699" y="3.6" style="stroke: #000000; stroke-width: 0.5"/>
      </g>
     </g>
     <g id="text_4">
      <!-- $\mathdefault{10^{0}}$ -->
      <g transform="translate(126.225744 123.165998) scale(0.1 -0.1)">
       <use xlink:href="#CMR17-31" transform="scale(0.996264)"/>
       <use xlink:href="#CMR17-30" transform="translate(45.690477 0) scale(0.996264)"/>
       <use xlink:href="#CMR17-30" transform="translate(91.380954 36.153639) scale(0.697382)"/>
      </g>
     </g>
    </g>
    <g id="xtick_5">
     <g id="line2d_13">
      <path d="M 167.248494 112.7475 
L 167.248494 3.6 
" clip-path="url(#pe41d236620)" style="fill: none; stroke-dasharray: 1.85,0.8; stroke-dashoffset: 0; stroke: #000000; stroke-opacity: 0.5; stroke-width: 0.5"/>
     </g>
     <g id="line2d_14">
      <g>
       <use xlink:href="#meeeb47453c" x="167.248494" y="112.7475" style="stroke: #000000; stroke-width: 0.5"/>
      </g>
     </g>
     <g id="line2d_15">
      <g>
       <use xlink:href="#m4536a68a61" x="167.248494" y="3.6" style="stroke: #000000; stroke-width: 0.5"/>
      </g>
     </g>
     <g id="text_5">
      <!-- $\mathdefault{10^{1}}$ -->
      <g transform="translate(160.28154 123.165998) scale(0.1 -0.1)">
       <use xlink:href="#CMR17-31" transform="scale(0.996264)"/>
       <use xlink:href="#CMR17-30" transform="translate(45.690477 0) scale(0.996264)"/>
       <use xlink:href="#CMR17-31" transform="translate(91.380954 36.153639) scale(0.697382)"/>
      </g>
     </g>
    </g>
    <g id="xtick_6">
     <g id="line2d_16">
      <defs>
       <path id="mc98ba950e4" d="M 0 0 
L 0 -1.5 
" style="stroke: #000000; stroke-width: 0.5"/>
      </defs>
      <g>
       <use xlink:href="#mc98ba950e4" x="41.277127" y="112.7475" style="stroke: #000000; stroke-width: 0.5"/>
      </g>
     </g>
     <g id="line2d_17">
      <defs>
       <path id="m1ca6de5924" d="M 0 0 
L 0 1.5 
" style="stroke: #000000; stroke-width: 0.5"/>
      </defs>
      <g>
       <use xlink:href="#m1ca6de5924" x="41.277127" y="3.6" style="stroke: #000000; stroke-width: 0.5"/>
      </g>
     </g>
    </g>
    <g id="xtick_7">
     <g id="line2d_18">
      <g>
       <use xlink:href="#mc98ba950e4" x="47.274055" y="112.7475" style="stroke: #000000; stroke-width: 0.5"/>
      </g>
     </g>
     <g id="line2d_19">
      <g>
       <use xlink:href="#m1ca6de5924" x="47.274055" y="3.6" style="stroke: #000000; stroke-width: 0.5"/>
      </g>
     </g>
    </g>
    <g id="xtick_8">
     <g id="line2d_20">
      <g>
       <use xlink:href="#mc98ba950e4" x="51.528943" y="112.7475" style="stroke: #000000; stroke-width: 0.5"/>
      </g>
     </g>
     <g id="line2d_21">
      <g>
       <use xlink:href="#m1ca6de5924" x="51.528943" y="3.6" style="stroke: #000000; stroke-width: 0.5"/>
      </g>
     </g>
    </g>
    <g id="xtick_9">
     <g id="line2d_22">
      <g>
       <use xlink:href="#mc98ba950e4" x="54.82929" y="112.7475" style="stroke: #000000; stroke-width: 0.5"/>
      </g>
     </g>
     <g id="line2d_23">
      <g>
       <use xlink:href="#m1ca6de5924" x="54.82929" y="3.6" style="stroke: #000000; stroke-width: 0.5"/>
      </g>
     </g>
    </g>
    <g id="xtick_10">
     <g id="line2d_24">
      <g>
       <use xlink:href="#mc98ba950e4" x="57.525871" y="112.7475" style="stroke: #000000; stroke-width: 0.5"/>
      </g>
     </g>
     <g id="line2d_25">
      <g>
       <use xlink:href="#m1ca6de5924" x="57.525871" y="3.6" style="stroke: #000000; stroke-width: 0.5"/>
      </g>
     </g>
    </g>
    <g id="xtick_11">
     <g id="line2d_26">
      <g>
       <use xlink:href="#mc98ba950e4" x="59.805797" y="112.7475" style="stroke: #000000; stroke-width: 0.5"/>
      </g>
     </g>
     <g id="line2d_27">
      <g>
       <use xlink:href="#m1ca6de5924" x="59.805797" y="3.6" style="stroke: #000000; stroke-width: 0.5"/>
      </g>
     </g>
    </g>
    <g id="xtick_12">
     <g id="line2d_28">
      <g>
       <use xlink:href="#mc98ba950e4" x="61.780759" y="112.7475" style="stroke: #000000; stroke-width: 0.5"/>
      </g>
     </g>
     <g id="line2d_29">
      <g>
       <use xlink:href="#m1ca6de5924" x="61.780759" y="3.6" style="stroke: #000000; stroke-width: 0.5"/>
      </g>
     </g>
    </g>
    <g id="xtick_13">
     <g id="line2d_30">
      <g>
       <use xlink:href="#mc98ba950e4" x="63.522799" y="112.7475" style="stroke: #000000; stroke-width: 0.5"/>
      </g>
     </g>
     <g id="line2d_31">
      <g>
       <use xlink:href="#m1ca6de5924" x="63.522799" y="3.6" style="stroke: #000000; stroke-width: 0.5"/>
      </g>
     </g>
    </g>
    <g id="xtick_14">
     <g id="line2d_32">
      <g>
       <use xlink:href="#mc98ba950e4" x="75.332923" y="112.7475" style="stroke: #000000; stroke-width: 0.5"/>
      </g>
     </g>
     <g id="line2d_33">
      <g>
       <use xlink:href="#m1ca6de5924" x="75.332923" y="3.6" style="stroke: #000000; stroke-width: 0.5"/>
      </g>
     </g>
    </g>
    <g id="xtick_15">
     <g id="line2d_34">
      <g>
       <use xlink:href="#mc98ba950e4" x="81.329851" y="112.7475" style="stroke: #000000; stroke-width: 0.5"/>
      </g>
     </g>
     <g id="line2d_35">
      <g>
       <use xlink:href="#m1ca6de5924" x="81.329851" y="3.6" style="stroke: #000000; stroke-width: 0.5"/>
      </g>
     </g>
    </g>
    <g id="xtick_16">
     <g id="line2d_36">
      <g>
       <use xlink:href="#mc98ba950e4" x="85.584739" y="112.7475" style="stroke: #000000; stroke-width: 0.5"/>
      </g>
     </g>
     <g id="line2d_37">
      <g>
       <use xlink:href="#m1ca6de5924" x="85.584739" y="3.6" style="stroke: #000000; stroke-width: 0.5"/>
      </g>
     </g>
    </g>
    <g id="xtick_17">
     <g id="line2d_38">
      <g>
       <use xlink:href="#mc98ba950e4" x="88.885086" y="112.7475" style="stroke: #000000; stroke-width: 0.5"/>
      </g>
     </g>
     <g id="line2d_39">
      <g>
       <use xlink:href="#m1ca6de5924" x="88.885086" y="3.6" style="stroke: #000000; stroke-width: 0.5"/>
      </g>
     </g>
    </g>
    <g id="xtick_18">
     <g id="line2d_40">
      <g>
       <use xlink:href="#mc98ba950e4" x="91.581667" y="112.7475" style="stroke: #000000; stroke-width: 0.5"/>
      </g>
     </g>
     <g id="line2d_41">
      <g>
       <use xlink:href="#m1ca6de5924" x="91.581667" y="3.6" style="stroke: #000000; stroke-width: 0.5"/>
      </g>
     </g>
    </g>
    <g id="xtick_19">
     <g id="line2d_42">
      <g>
       <use xlink:href="#mc98ba950e4" x="93.861593" y="112.7475" style="stroke: #000000; stroke-width: 0.5"/>
      </g>
     </g>
     <g id="line2d_43">
      <g>
       <use xlink:href="#m1ca6de5924" x="93.861593" y="3.6" style="stroke: #000000; stroke-width: 0.5"/>
      </g>
     </g>
    </g>
    <g id="xtick_20">
     <g id="line2d_44">
      <g>
       <use xlink:href="#mc98ba950e4" x="95.836555" y="112.7475" style="stroke: #000000; stroke-width: 0.5"/>
      </g>
     </g>
     <g id="line2d_45">
      <g>
       <use xlink:href="#m1ca6de5924" x="95.836555" y="3.6" style="stroke: #000000; stroke-width: 0.5"/>
      </g>
     </g>
    </g>
    <g id="xtick_21">
     <g id="line2d_46">
      <g>
       <use xlink:href="#mc98ba950e4" x="97.578595" y="112.7475" style="stroke: #000000; stroke-width: 0.5"/>
      </g>
     </g>
     <g id="line2d_47">
      <g>
       <use xlink:href="#m1ca6de5924" x="97.578595" y="3.6" style="stroke: #000000; stroke-width: 0.5"/>
      </g>
     </g>
    </g>
    <g id="xtick_22">
     <g id="line2d_48">
      <g>
       <use xlink:href="#mc98ba950e4" x="109.388719" y="112.7475" style="stroke: #000000; stroke-width: 0.5"/>
      </g>
     </g>
     <g id="line2d_49">
      <g>
       <use xlink:href="#m1ca6de5924" x="109.388719" y="3.6" style="stroke: #000000; stroke-width: 0.5"/>
      </g>
     </g>
    </g>
    <g id="xtick_23">
     <g id="line2d_50">
      <g>
       <use xlink:href="#mc98ba950e4" x="115.385647" y="112.7475" style="stroke: #000000; stroke-width: 0.5"/>
      </g>
     </g>
     <g id="line2d_51">
      <g>
       <use xlink:href="#m1ca6de5924" x="115.385647" y="3.6" style="stroke: #000000; stroke-width: 0.5"/>
      </g>
     </g>
    </g>
    <g id="xtick_24">
     <g id="line2d_52">
      <g>
       <use xlink:href="#mc98ba950e4" x="119.640535" y="112.7475" style="stroke: #000000; stroke-width: 0.5"/>
      </g>
     </g>
     <g id="line2d_53">
      <g>
       <use xlink:href="#m1ca6de5924" x="119.640535" y="3.6" style="stroke: #000000; stroke-width: 0.5"/>
      </g>
     </g>
    </g>
    <g id="xtick_25">
     <g id="line2d_54">
      <g>
       <use xlink:href="#mc98ba950e4" x="122.940882" y="112.7475" style="stroke: #000000; stroke-width: 0.5"/>
      </g>
     </g>
     <g id="line2d_55">
      <g>
       <use xlink:href="#m1ca6de5924" x="122.940882" y="3.6" style="stroke: #000000; stroke-width: 0.5"/>
      </g>
     </g>
    </g>
    <g id="xtick_26">
     <g id="line2d_56">
      <g>
       <use xlink:href="#mc98ba950e4" x="125.637463" y="112.7475" style="stroke: #000000; stroke-width: 0.5"/>
      </g>
     </g>
     <g id="line2d_57">
      <g>
       <use xlink:href="#m1ca6de5924" x="125.637463" y="3.6" style="stroke: #000000; stroke-width: 0.5"/>
      </g>
     </g>
    </g>
    <g id="xtick_27">
     <g id="line2d_58">
      <g>
       <use xlink:href="#mc98ba950e4" x="127.917389" y="112.7475" style="stroke: #000000; stroke-width: 0.5"/>
      </g>
     </g>
     <g id="line2d_59">
      <g>
       <use xlink:href="#m1ca6de5924" x="127.917389" y="3.6" style="stroke: #000000; stroke-width: 0.5"/>
      </g>
     </g>
    </g>
    <g id="xtick_28">
     <g id="line2d_60">
      <g>
       <use xlink:href="#mc98ba950e4" x="129.892351" y="112.7475" style="stroke: #000000; stroke-width: 0.5"/>
      </g>
     </g>
     <g id="line2d_61">
      <g>
       <use xlink:href="#m1ca6de5924" x="129.892351" y="3.6" style="stroke: #000000; stroke-width: 0.5"/>
      </g>
     </g>
    </g>
    <g id="xtick_29">
     <g id="line2d_62">
      <g>
       <use xlink:href="#mc98ba950e4" x="131.634391" y="112.7475" style="stroke: #000000; stroke-width: 0.5"/>
      </g>
     </g>
     <g id="line2d_63">
      <g>
       <use xlink:href="#m1ca6de5924" x="131.634391" y="3.6" style="stroke: #000000; stroke-width: 0.5"/>
      </g>
     </g>
    </g>
    <g id="xtick_30">
     <g id="line2d_64">
      <g>
       <use xlink:href="#mc98ba950e4" x="143.444515" y="112.7475" style="stroke: #000000; stroke-width: 0.5"/>
      </g>
     </g>
     <g id="line2d_65">
      <g>
       <use xlink:href="#m1ca6de5924" x="143.444515" y="3.6" style="stroke: #000000; stroke-width: 0.5"/>
      </g>
     </g>
    </g>
    <g id="xtick_31">
     <g id="line2d_66">
      <g>
       <use xlink:href="#mc98ba950e4" x="149.441443" y="112.7475" style="stroke: #000000; stroke-width: 0.5"/>
      </g>
     </g>
     <g id="line2d_67">
      <g>
       <use xlink:href="#m1ca6de5924" x="149.441443" y="3.6" style="stroke: #000000; stroke-width: 0.5"/>
      </g>
     </g>
    </g>
    <g id="xtick_32">
     <g id="line2d_68">
      <g>
       <use xlink:href="#mc98ba950e4" x="153.696331" y="112.7475" style="stroke: #000000; stroke-width: 0.5"/>
      </g>
     </g>
     <g id="line2d_69">
      <g>
       <use xlink:href="#m1ca6de5924" x="153.696331" y="3.6" style="stroke: #000000; stroke-width: 0.5"/>
      </g>
     </g>
    </g>
    <g id="xtick_33">
     <g id="line2d_70">
      <g>
       <use xlink:href="#mc98ba950e4" x="156.996678" y="112.7475" style="stroke: #000000; stroke-width: 0.5"/>
      </g>
     </g>
     <g id="line2d_71">
      <g>
       <use xlink:href="#m1ca6de5924" x="156.996678" y="3.6" style="stroke: #000000; stroke-width: 0.5"/>
      </g>
     </g>
    </g>
    <g id="xtick_34">
     <g id="line2d_72">
      <g>
       <use xlink:href="#mc98ba950e4" x="159.693259" y="112.7475" style="stroke: #000000; stroke-width: 0.5"/>
      </g>
     </g>
     <g id="line2d_73">
      <g>
       <use xlink:href="#m1ca6de5924" x="159.693259" y="3.6" style="stroke: #000000; stroke-width: 0.5"/>
      </g>
     </g>
    </g>
    <g id="xtick_35">
     <g id="line2d_74">
      <g>
       <use xlink:href="#mc98ba950e4" x="161.973185" y="112.7475" style="stroke: #000000; stroke-width: 0.5"/>
      </g>
     </g>
     <g id="line2d_75">
      <g>
       <use xlink:href="#m1ca6de5924" x="161.973185" y="3.6" style="stroke: #000000; stroke-width: 0.5"/>
      </g>
     </g>
    </g>
    <g id="xtick_36">
     <g id="line2d_76">
      <g>
       <use xlink:href="#mc98ba950e4" x="163.948147" y="112.7475" style="stroke: #000000; stroke-width: 0.5"/>
      </g>
     </g>
     <g id="line2d_77">
      <g>
       <use xlink:href="#m1ca6de5924" x="163.948147" y="3.6" style="stroke: #000000; stroke-width: 0.5"/>
      </g>
     </g>
    </g>
    <g id="xtick_37">
     <g id="line2d_78">
      <g>
       <use xlink:href="#mc98ba950e4" x="165.690187" y="112.7475" style="stroke: #000000; stroke-width: 0.5"/>
      </g>
     </g>
     <g id="line2d_79">
      <g>
       <use xlink:href="#m1ca6de5924" x="165.690187" y="3.6" style="stroke: #000000; stroke-width: 0.5"/>
      </g>
     </g>
    </g>
    <g id="xtick_38">
     <g id="line2d_80">
      <g>
       <use xlink:href="#mc98ba950e4" x="177.500311" y="112.7475" style="stroke: #000000; stroke-width: 0.5"/>
      </g>
     </g>
     <g id="line2d_81">
      <g>
       <use xlink:href="#m1ca6de5924" x="177.500311" y="3.6" style="stroke: #000000; stroke-width: 0.5"/>
      </g>
     </g>
    </g>
    <g id="text_6">
     <!-- $\nu$ -->
     <g transform="translate(101.802128 136.021675) scale(0.1 -0.1)">
      <defs>
       <path id="CMMI12-17" d="M 1408 2753 
C 1408 2778 1389 2816 1338 2816 
C 1293 2816 691 2751 595 2751 
C 525 2744 461 2738 461 2623 
C 461 2560 512 2560 602 2560 
C 902 2560 922 2515 922 2445 
C 922 2419 909 2343 902 2318 
L 339 64 
C 339 38 358 0 403 0 
L 538 0 
C 627 0 1600 230 2349 996 
C 3174 1846 3290 2632 3290 2657 
C 3290 2759 3206 2816 3123 2816 
C 2938 2816 2893 2644 2880 2599 
C 2502 1264 1626 473 774 192 
L 1408 2753 
z
" transform="scale(0.015625)"/>
      </defs>
      <use xlink:href="#CMMI12-17" transform="scale(0.996264)"/>
     </g>
    </g>
   </g>
   <g id="matplotlib.axis_2">
    <g id="ytick_1">
     <g id="line2d_82">
      <path d="M 31.025311 94.879482 
L 177.500311 94.879482 
" clip-path="url(#pe41d236620)" style="fill: none; stroke-dasharray: 1.85,0.8; stroke-dashoffset: 0; stroke: #000000; stroke-opacity: 0.5; stroke-width: 0.5"/>
     </g>
     <g id="line2d_83">
      <defs>
       <path id="ma4621b44a7" d="M 0 0 
L 3 0 
" style="stroke: #000000; stroke-width: 0.5"/>
      </defs>
      <g>
       <use xlink:href="#ma4621b44a7" x="31.025311" y="94.879482" style="stroke: #000000; stroke-width: 0.5"/>
      </g>
     </g>
     <g id="line2d_84">
      <defs>
       <path id="m9161a4d527" d="M 0 0 
L -3 0 
" style="stroke: #000000; stroke-width: 0.5"/>
      </defs>
      <g>
       <use xlink:href="#m9161a4d527" x="177.500311" y="94.879482" style="stroke: #000000; stroke-width: 0.5"/>
      </g>
     </g>
     <g id="text_7">
      <!-- $\mathdefault{0}$ -->
      <g transform="translate(22.543975 98.338731) scale(0.1 -0.1)">
       <use xlink:href="#CMR17-30" transform="scale(0.996264)"/>
      </g>
     </g>
    </g>
    <g id="ytick_2">
     <g id="line2d_85">
      <path d="M 31.025311 69.559756 
L 177.500311 69.559756 
" clip-path="url(#pe41d236620)" style="fill: none; stroke-dasharray: 1.85,0.8; stroke-dashoffset: 0; stroke: #000000; stroke-opacity: 0.5; stroke-width: 0.5"/>
     </g>
     <g id="line2d_86">
      <g>
       <use xlink:href="#ma4621b44a7" x="31.025311" y="69.559756" style="stroke: #000000; stroke-width: 0.5"/>
      </g>
     </g>
     <g id="line2d_87">
      <g>
       <use xlink:href="#m9161a4d527" x="177.500311" y="69.559756" style="stroke: #000000; stroke-width: 0.5"/>
      </g>
     </g>
     <g id="text_8">
      <!-- $\mathdefault{10}$ -->
      <g transform="translate(17.56264 73.019006) scale(0.1 -0.1)">
       <use xlink:href="#CMR17-31" transform="scale(0.996264)"/>
       <use xlink:href="#CMR17-30" transform="translate(45.690477 0) scale(0.996264)"/>
      </g>
     </g>
    </g>
    <g id="ytick_3">
     <g id="line2d_88">
      <path d="M 31.025311 44.240031 
L 177.500311 44.240031 
" clip-path="url(#pe41d236620)" style="fill: none; stroke-dasharray: 1.85,0.8; stroke-dashoffset: 0; stroke: #000000; stroke-opacity: 0.5; stroke-width: 0.5"/>
     </g>
     <g id="line2d_89">
      <g>
       <use xlink:href="#ma4621b44a7" x="31.025311" y="44.240031" style="stroke: #000000; stroke-width: 0.5"/>
      </g>
     </g>
     <g id="line2d_90">
      <g>
       <use xlink:href="#m9161a4d527" x="177.500311" y="44.240031" style="stroke: #000000; stroke-width: 0.5"/>
      </g>
     </g>
     <g id="text_9">
      <!-- $\mathdefault{20}$ -->
      <g transform="translate(17.56264 47.69928) scale(0.1 -0.1)">
       <use xlink:href="#CMR17-32" transform="scale(0.996264)"/>
       <use xlink:href="#CMR17-30" transform="translate(45.690477 0) scale(0.996264)"/>
      </g>
     </g>
    </g>
    <g id="ytick_4">
     <g id="line2d_91">
      <path d="M 31.025311 18.920306 
L 177.500311 18.920306 
" clip-path="url(#pe41d236620)" style="fill: none; stroke-dasharray: 1.85,0.8; stroke-dashoffset: 0; stroke: #000000; stroke-opacity: 0.5; stroke-width: 0.5"/>
     </g>
     <g id="line2d_92">
      <g>
       <use xlink:href="#ma4621b44a7" x="31.025311" y="18.920306" style="stroke: #000000; stroke-width: 0.5"/>
      </g>
     </g>
     <g id="line2d_93">
      <g>
       <use xlink:href="#m9161a4d527" x="177.500311" y="18.920306" style="stroke: #000000; stroke-width: 0.5"/>
      </g>
     </g>
     <g id="text_10">
      <!-- $\mathdefault{30}$ -->
      <g transform="translate(17.56264 22.379555) scale(0.1 -0.1)">
       <use xlink:href="#CMR17-33" transform="scale(0.996264)"/>
       <use xlink:href="#CMR17-30" transform="translate(45.690477 0) scale(0.996264)"/>
      </g>
     </g>
    </g>
    <g id="ytick_5">
     <g id="line2d_94">
      <defs>
       <path id="m4e8c83f987" d="M 0 0 
L 1.5 0 
" style="stroke: #000000; stroke-width: 0.5"/>
      </defs>
      <g>
       <use xlink:href="#m4e8c83f987" x="31.025311" y="110.071317" style="stroke: #000000; stroke-width: 0.5"/>
      </g>
     </g>
     <g id="line2d_95">
      <defs>
       <path id="mb6d40674f6" d="M 0 0 
L -1.5 0 
" style="stroke: #000000; stroke-width: 0.5"/>
      </defs>
      <g>
       <use xlink:href="#mb6d40674f6" x="177.500311" y="110.071317" style="stroke: #000000; stroke-width: 0.5"/>
      </g>
     </g>
    </g>
    <g id="ytick_6">
     <g id="line2d_96">
      <g>
       <use xlink:href="#m4e8c83f987" x="31.025311" y="105.007372" style="stroke: #000000; stroke-width: 0.5"/>
      </g>
     </g>
     <g id="line2d_97">
      <g>
       <use xlink:href="#mb6d40674f6" x="177.500311" y="105.007372" style="stroke: #000000; stroke-width: 0.5"/>
      </g>
     </g>
    </g>
    <g id="ytick_7">
     <g id="line2d_98">
      <g>
       <use xlink:href="#m4e8c83f987" x="31.025311" y="99.943427" style="stroke: #000000; stroke-width: 0.5"/>
      </g>
     </g>
     <g id="line2d_99">
      <g>
       <use xlink:href="#mb6d40674f6" x="177.500311" y="99.943427" style="stroke: #000000; stroke-width: 0.5"/>
      </g>
     </g>
    </g>
    <g id="ytick_8">
     <g id="line2d_100">
      <g>
       <use xlink:href="#m4e8c83f987" x="31.025311" y="89.815537" style="stroke: #000000; stroke-width: 0.5"/>
      </g>
     </g>
     <g id="line2d_101">
      <g>
       <use xlink:href="#mb6d40674f6" x="177.500311" y="89.815537" style="stroke: #000000; stroke-width: 0.5"/>
      </g>
     </g>
    </g>
    <g id="ytick_9">
     <g id="line2d_102">
      <g>
       <use xlink:href="#m4e8c83f987" x="31.025311" y="84.751592" style="stroke: #000000; stroke-width: 0.5"/>
      </g>
     </g>
     <g id="line2d_103">
      <g>
       <use xlink:href="#mb6d40674f6" x="177.500311" y="84.751592" style="stroke: #000000; stroke-width: 0.5"/>
      </g>
     </g>
    </g>
    <g id="ytick_10">
     <g id="line2d_104">
      <g>
       <use xlink:href="#m4e8c83f987" x="31.025311" y="79.687647" style="stroke: #000000; stroke-width: 0.5"/>
      </g>
     </g>
     <g id="line2d_105">
      <g>
       <use xlink:href="#mb6d40674f6" x="177.500311" y="79.687647" style="stroke: #000000; stroke-width: 0.5"/>
      </g>
     </g>
    </g>
    <g id="ytick_11">
     <g id="line2d_106">
      <g>
       <use xlink:href="#m4e8c83f987" x="31.025311" y="74.623702" style="stroke: #000000; stroke-width: 0.5"/>
      </g>
     </g>
     <g id="line2d_107">
      <g>
       <use xlink:href="#mb6d40674f6" x="177.500311" y="74.623702" style="stroke: #000000; stroke-width: 0.5"/>
      </g>
     </g>
    </g>
    <g id="ytick_12">
     <g id="line2d_108">
      <g>
       <use xlink:href="#m4e8c83f987" x="31.025311" y="64.495811" style="stroke: #000000; stroke-width: 0.5"/>
      </g>
     </g>
     <g id="line2d_109">
      <g>
       <use xlink:href="#mb6d40674f6" x="177.500311" y="64.495811" style="stroke: #000000; stroke-width: 0.5"/>
      </g>
     </g>
    </g>
    <g id="ytick_13">
     <g id="line2d_110">
      <g>
       <use xlink:href="#m4e8c83f987" x="31.025311" y="59.431866" style="stroke: #000000; stroke-width: 0.5"/>
      </g>
     </g>
     <g id="line2d_111">
      <g>
       <use xlink:href="#mb6d40674f6" x="177.500311" y="59.431866" style="stroke: #000000; stroke-width: 0.5"/>
      </g>
     </g>
    </g>
    <g id="ytick_14">
     <g id="line2d_112">
      <g>
       <use xlink:href="#m4e8c83f987" x="31.025311" y="54.367921" style="stroke: #000000; stroke-width: 0.5"/>
      </g>
     </g>
     <g id="line2d_113">
      <g>
       <use xlink:href="#mb6d40674f6" x="177.500311" y="54.367921" style="stroke: #000000; stroke-width: 0.5"/>
      </g>
     </g>
    </g>
    <g id="ytick_15">
     <g id="line2d_114">
      <g>
       <use xlink:href="#m4e8c83f987" x="31.025311" y="49.303976" style="stroke: #000000; stroke-width: 0.5"/>
      </g>
     </g>
     <g id="line2d_115">
      <g>
       <use xlink:href="#mb6d40674f6" x="177.500311" y="49.303976" style="stroke: #000000; stroke-width: 0.5"/>
      </g>
     </g>
    </g>
    <g id="ytick_16">
     <g id="line2d_116">
      <g>
       <use xlink:href="#m4e8c83f987" x="31.025311" y="39.176086" style="stroke: #000000; stroke-width: 0.5"/>
      </g>
     </g>
     <g id="line2d_117">
      <g>
       <use xlink:href="#mb6d40674f6" x="177.500311" y="39.176086" style="stroke: #000000; stroke-width: 0.5"/>
      </g>
     </g>
    </g>
    <g id="ytick_17">
     <g id="line2d_118">
      <g>
       <use xlink:href="#m4e8c83f987" x="31.025311" y="34.112141" style="stroke: #000000; stroke-width: 0.5"/>
      </g>
     </g>
     <g id="line2d_119">
      <g>
       <use xlink:href="#mb6d40674f6" x="177.500311" y="34.112141" style="stroke: #000000; stroke-width: 0.5"/>
      </g>
     </g>
    </g>
    <g id="ytick_18">
     <g id="line2d_120">
      <g>
       <use xlink:href="#m4e8c83f987" x="31.025311" y="29.048196" style="stroke: #000000; stroke-width: 0.5"/>
      </g>
     </g>
     <g id="line2d_121">
      <g>
       <use xlink:href="#mb6d40674f6" x="177.500311" y="29.048196" style="stroke: #000000; stroke-width: 0.5"/>
      </g>
     </g>
    </g>
    <g id="ytick_19">
     <g id="line2d_122">
      <g>
       <use xlink:href="#m4e8c83f987" x="31.025311" y="23.984251" style="stroke: #000000; stroke-width: 0.5"/>
      </g>
     </g>
     <g id="line2d_123">
      <g>
       <use xlink:href="#mb6d40674f6" x="177.500311" y="23.984251" style="stroke: #000000; stroke-width: 0.5"/>
      </g>
     </g>
    </g>
    <g id="ytick_20">
     <g id="line2d_124">
      <g>
       <use xlink:href="#m4e8c83f987" x="31.025311" y="13.85636" style="stroke: #000000; stroke-width: 0.5"/>
      </g>
     </g>
     <g id="line2d_125">
      <g>
       <use xlink:href="#mb6d40674f6" x="177.500311" y="13.85636" style="stroke: #000000; stroke-width: 0.5"/>
      </g>
     </g>
    </g>
    <g id="ytick_21">
     <g id="line2d_126">
      <g>
       <use xlink:href="#m4e8c83f987" x="31.025311" y="8.792415" style="stroke: #000000; stroke-width: 0.5"/>
      </g>
     </g>
     <g id="line2d_127">
      <g>
       <use xlink:href="#mb6d40674f6" x="177.500311" y="8.792415" style="stroke: #000000; stroke-width: 0.5"/>
      </g>
     </g>
    </g>
    <g id="ytick_22">
     <g id="line2d_128">
      <g>
       <use xlink:href="#m4e8c83f987" x="31.025311" y="3.72847" style="stroke: #000000; stroke-width: 0.5"/>
      </g>
     </g>
     <g id="line2d_129">
      <g>
       <use xlink:href="#mb6d40674f6" x="177.500311" y="3.72847" style="stroke: #000000; stroke-width: 0.5"/>
      </g>
     </g>
    </g>
    <g id="text_11">
     <!-- $\mathcal{G}_I(\nu)$ [dB] -->
     <g transform="translate(11.07198 80.79835) rotate(-90) scale(0.1 -0.1)">
      <defs>
       <path id="CMSY10-47" d="M 2790 1063 
C 2618 480 2451 179 2387 74 
C 2138 -371 2003 -384 1786 -384 
C 1677 -384 1222 -384 845 -114 
C 557 -114 333 -343 333 -416 
C 333 -474 768 -743 1363 -743 
C 1824 -743 2579 -497 3059 552 
C 3226 913 3334 1280 3354 1357 
C 3482 1801 3616 2316 3616 2343 
C 3616 2381 3603 2401 3546 2401 
C 3488 2401 3379 2369 3245 2279 
C 3098 2184 3091 2152 3046 1993 
C 2982 1775 2605 832 1811 832 
C 1190 832 826 1336 826 2056 
C 826 2547 1024 3204 1395 3650 
C 1568 3854 1882 4192 2605 4192 
C 2726 4192 2912 4173 3072 4122 
C 3142 4102 3302 4052 3302 3847 
C 3302 3631 2970 3222 2944 3185 
C 2918 3159 2899 3134 2899 3108 
C 2899 3063 2931 3063 2970 3063 
C 3155 3063 3366 3236 3539 3472 
C 3590 3542 3846 3900 3846 4116 
C 3846 4378 3648 4442 3571 4467 
C 3334 4544 3117 4544 3027 4544 
C 1581 4544 282 3281 282 1782 
C 282 1137 570 480 1395 480 
C 1875 480 2368 723 2790 1063 
z
" transform="scale(0.015625)"/>
       <path id="CMMI12-49" d="M 2355 3880 
C 2413 4103 2426 4167 2893 4167 
C 3034 4167 3085 4167 3085 4288 
C 3085 4352 3014 4352 2995 4352 
C 2880 4352 2739 4352 2624 4352 
L 1837 4352 
C 1709 4352 1562 4352 1434 4352 
C 1382 4352 1312 4352 1312 4231 
C 1312 4167 1363 4167 1491 4167 
C 1888 4167 1888 4116 1888 4046 
C 1888 4002 1875 3963 1862 3906 
L 998 472 
C 941 249 928 185 461 185 
C 320 185 262 185 262 64 
C 262 0 326 0 358 0 
C 474 0 614 0 730 0 
L 1517 0 
C 1645 0 1786 0 1914 0 
C 1965 0 2042 0 2042 115 
C 2042 185 2003 185 1862 185 
C 1466 185 1466 236 1466 312 
C 1466 325 1466 357 1491 459 
L 2355 3880 
z
" transform="scale(0.015625)"/>
       <path id="CMR17-28" d="M 1958 -1561 
C 1958 -1555 1958 -1542 1939 -1523 
C 1645 -1224 858 -407 858 1581 
C 858 3569 1632 4379 1946 4697 
C 1946 4704 1958 4717 1958 4736 
C 1958 4755 1939 4768 1914 4768 
C 1843 4768 1299 4296 986 3594 
C 666 2887 576 2199 576 1588 
C 576 1128 621 351 1005 -471 
C 1312 -1135 1837 -1600 1914 -1600 
C 1946 -1600 1958 -1587 1958 -1561 
z
" transform="scale(0.015625)"/>
       <path id="CMR17-29" d="M 1683 1581 
C 1683 2040 1638 2817 1254 3639 
C 947 4303 422 4768 346 4768 
C 326 4768 301 4761 301 4729 
C 301 4717 307 4710 314 4697 
C 621 4378 1402 3568 1402 1584 
C 1402 -407 627 -1217 314 -1537 
C 307 -1549 301 -1556 301 -1568 
C 301 -1600 326 -1600 346 -1600 
C 416 -1600 960 -1128 1274 -426 
C 1594 281 1683 969 1683 1581 
z
" transform="scale(0.015625)"/>
       <path id="CMR17-5b" d="M 1504 -1600 
L 1504 -1377 
L 902 -1377 
L 902 4544 
L 1504 4544 
L 1504 4767 
L 678 4767 
L 678 -1600 
L 1504 -1600 
z
" transform="scale(0.015625)"/>
       <path id="CMR17-64" d="M 1869 4326 
L 1869 4160 
C 2246 4160 2304 4122 2304 3820 
L 2304 2345 
C 2278 2377 2016 2790 1498 2790 
C 845 2790 211 2208 211 1364 
C 211 525 806 -64 1434 -64 
C 1978 -64 2259 337 2291 380 
L 2291 -63 
L 3066 -63 
L 3066 128 
C 2688 128 2630 166 2630 473 
L 2630 4396 
L 1869 4326 
z
M 2291 755 
C 2291 563 2176 390 2029 262 
C 1811 70 1594 38 1472 38 
C 1286 38 621 134 621 1356 
C 621 2612 1363 2688 1530 2688 
C 1824 2688 2061 2522 2208 2291 
C 2291 2157 2291 2138 2291 2023 
L 2291 755 
z
" transform="scale(0.015625)"/>
       <path id="CMR17-42" d="M 333 4352 
L 333 4186 
C 774 4186 845 4186 845 3900 
L 845 452 
C 845 166 774 166 333 166 
L 333 0 
L 2534 0 
C 3354 0 3885 583 3885 1164 
C 3885 1741 3360 2233 2675 2233 
C 3290 2356 3718 2771 3718 3264 
C 3718 3802 3194 4352 2368 4352 
L 333 4352 
z
M 1248 2304 
L 1248 3937 
C 1248 4155 1261 4186 1517 4186 
L 2336 4186 
C 2970 4186 3251 3674 3251 3277 
C 3251 2791 2861 2304 2170 2304 
L 1248 2304 
z
M 1517 166 
C 1261 166 1248 197 1248 413 
L 1248 2202 
L 2432 2202 
C 3091 2202 3411 1625 3411 1162 
C 3411 699 3046 166 2349 166 
L 1517 166 
z
" transform="scale(0.015625)"/>
       <path id="CMR17-5d" d="M 915 4767 
L 90 4767 
L 90 4544 
L 691 4544 
L 691 -1377 
L 90 -1377 
L 90 -1600 
L 915 -1600 
L 915 4767 
z
" transform="scale(0.015625)"/>
      </defs>
      <use xlink:href="#CMSY10-47" transform="scale(0.996264)"/>
      <use xlink:href="#CMMI12-49" transform="translate(59.264331 -14.943915) scale(0.697382)"/>
      <use xlink:href="#CMR17-28" transform="translate(95.361845 0) scale(0.996264)"/>
      <use xlink:href="#CMMI12-17" transform="translate(130.642613 0) scale(0.996264)"/>
      <use xlink:href="#CMR17-29" transform="translate(185.125406 0) scale(0.996264)"/>
      <use xlink:href="#CMR17-5b" transform="translate(250.48214 0) scale(0.996264)"/>
      <use xlink:href="#CMR17-64" transform="translate(275.353198 0) scale(0.996264)"/>
      <use xlink:href="#CMR17-42" transform="translate(326.248568 0) scale(0.996264)"/>
      <use xlink:href="#CMR17-5d" transform="translate(391.437322 0) scale(0.996264)"/>
     </g>
    </g>
   </g>
   <g id="line2d_130">
    <path d="M -1 94.71457 
L 5.510316 94.650881 
L 16.365899 94.887983 
L 26.617715 94.937881 
L 36.869531 94.681585 
L 47.121348 94.843595 
L 60.673511 94.945073 
L 63.370092 94.718765 
L 67.62498 94.807103 
L 70.925327 95.095936 
L 73.621908 95.573937 
L 76.922255 95.53294 
L 79.618836 95.699682 
L 83.244257 95.976478 
L 86.15365 96.585671 
L 89.870652 97.187351 
L 92.83862 97.50375 
L 96.138968 97.742907 
L 99.277081 97.161697 
L 102.750416 95.256179 
L 105.702742 92.650964 
L 109.19899 88.69073 
L 119.450806 77.184215 
L 131.726156 65.200216 
L 141.7335 53.844809 
L 151.985316 40.125786 
" clip-path="url(#pe41d236620)" style="fill: none; stroke: #4477aa; stroke-linecap: square"/>
    <defs>
     <path id="m013b82918e" d="M 0 2 
C 0.530406 2 1.03916 1.789267 1.414214 1.414214 
C 1.789267 1.03916 2 0.530406 2 0 
C 2 -0.530406 1.789267 -1.03916 1.414214 -1.414214 
C 1.03916 -1.789267 0.530406 -2 0 -2 
C -0.530406 -2 -1.03916 -1.789267 -1.414214 -1.414214 
C -1.789267 -1.03916 -2 -0.530406 -2 0 
C -2 0.530406 -1.789267 1.03916 -1.414214 1.414214 
C -1.03916 1.789267 -0.530406 2 0 2 
z
" style="stroke: #4477aa"/>
    </defs>
    <g clip-path="url(#pe41d236620)">
     <use xlink:href="#m013b82918e" x="-1" y="94.775423" style="fill: #4477aa; stroke: #4477aa"/>
     <use xlink:href="#m013b82918e" x="16.365899" y="94.887983" style="fill: #4477aa; stroke: #4477aa"/>
     <use xlink:href="#m013b82918e" x="36.869531" y="94.681585" style="fill: #4477aa; stroke: #4477aa"/>
     <use xlink:href="#m013b82918e" x="60.673511" y="94.945073" style="fill: #4477aa; stroke: #4477aa"/>
     <use xlink:href="#m013b82918e" x="67.62498" y="94.807103" style="fill: #4477aa; stroke: #4477aa"/>
     <use xlink:href="#m013b82918e" x="73.621908" y="95.573937" style="fill: #4477aa; stroke: #4477aa"/>
     <use xlink:href="#m013b82918e" x="79.618836" y="95.699682" style="fill: #4477aa; stroke: #4477aa"/>
     <use xlink:href="#m013b82918e" x="86.15365" y="96.585671" style="fill: #4477aa; stroke: #4477aa"/>
     <use xlink:href="#m013b82918e" x="92.83862" y="97.50375" style="fill: #4477aa; stroke: #4477aa"/>
     <use xlink:href="#m013b82918e" x="99.277081" y="97.161697" style="fill: #4477aa; stroke: #4477aa"/>
     <use xlink:href="#m013b82918e" x="105.702742" y="92.650964" style="fill: #4477aa; stroke: #4477aa"/>
     <use xlink:href="#m013b82918e" x="119.450806" y="77.184215" style="fill: #4477aa; stroke: #4477aa"/>
     <use xlink:href="#m013b82918e" x="141.7335" y="53.844809" style="fill: #4477aa; stroke: #4477aa"/>
    </g>
   </g>
   <g id="line2d_131">
    <path d="M -1 94.879482 
L 5.510316 94.879482 
L 16.365899 94.879482 
L 26.617715 94.879483 
L 36.869531 94.879485 
L 47.121348 94.879496 
L 60.673511 94.879572 
L 63.370092 94.879611 
L 67.62498 94.879712 
L 70.925327 94.879841 
L 73.621908 94.879999 
L 76.922255 94.88029 
L 79.618836 94.880646 
L 83.244257 94.881381 
L 86.15365 94.882296 
L 89.870652 94.884129 
L 92.83862 94.886416 
L 96.138968 94.890296 
L 99.277081 94.895966 
L 102.750416 94.905715 
L 105.702742 94.918324 
L 109.19899 94.941006 
L 119.450806 95.098337 
L 131.726156 95.385899 
L 141.7335 94.284778 
L 151.985316 89.388827 
L 162.237132 79.434954 
L 172.488948 66.03574 
" clip-path="url(#pe41d236620)" style="fill: none; stroke-dasharray: 3.7,1.6; stroke-dashoffset: 0; stroke: #4477aa"/>
    <g clip-path="url(#pe41d236620)">
     <use xlink:href="#m013b82918e" x="-1" y="94.879482" style="fill: #4477aa; stroke: #4477aa"/>
     <use xlink:href="#m013b82918e" x="5.510316" y="94.879482" style="fill: #4477aa; stroke: #4477aa"/>
     <use xlink:href="#m013b82918e" x="26.617715" y="94.879483" style="fill: #4477aa; stroke: #4477aa"/>
     <use xlink:href="#m013b82918e" x="47.121348" y="94.879496" style="fill: #4477aa; stroke: #4477aa"/>
     <use xlink:href="#m013b82918e" x="63.370092" y="94.879611" style="fill: #4477aa; stroke: #4477aa"/>
     <use xlink:href="#m013b82918e" x="70.925327" y="94.879841" style="fill: #4477aa; stroke: #4477aa"/>
     <use xlink:href="#m013b82918e" x="76.922255" y="94.88029" style="fill: #4477aa; stroke: #4477aa"/>
     <use xlink:href="#m013b82918e" x="83.244257" y="94.881381" style="fill: #4477aa; stroke: #4477aa"/>
     <use xlink:href="#m013b82918e" x="89.870652" y="94.884129" style="fill: #4477aa; stroke: #4477aa"/>
     <use xlink:href="#m013b82918e" x="96.138968" y="94.890296" style="fill: #4477aa; stroke: #4477aa"/>
     <use xlink:href="#m013b82918e" x="102.750416" y="94.905715" style="fill: #4477aa; stroke: #4477aa"/>
     <use xlink:href="#m013b82918e" x="109.19899" y="94.941006" style="fill: #4477aa; stroke: #4477aa"/>
     <use xlink:href="#m013b82918e" x="131.726156" y="95.385899" style="fill: #4477aa; stroke: #4477aa"/>
     <use xlink:href="#m013b82918e" x="151.985316" y="89.388827" style="fill: #4477aa; stroke: #4477aa"/>
     <use xlink:href="#m013b82918e" x="172.488948" y="66.03574" style="fill: #4477aa; stroke: #4477aa"/>
    </g>
   </g>
   <g id="line2d_132">
    <path d="M -1 94.878785 
L 5.510316 95.007664 
L 16.365899 94.987763 
L 26.617715 94.939556 
L 36.869531 95.06623 
L 47.121348 94.872282 
L 60.673511 91.799016 
L 63.370092 90.499754 
L 67.62498 88.268708 
L 70.925327 86.395305 
L 73.621908 85.115259 
L 76.922255 84.045029 
L 79.618836 83.724295 
L 83.244257 83.784177 
L 86.15365 83.924644 
L 89.870652 83.499216 
L 92.83862 82.181945 
L 96.138968 80.329715 
L 99.277081 78.174542 
L 102.750416 75.526642 
L 105.702742 73.020166 
L 109.19899 69.878232 
L 119.450806 59.156744 
L 131.726156 44.038972 
L 141.7335 30.352102 
L 151.985316 15.548884 
" clip-path="url(#pe41d236620)" style="fill: none; stroke: #ee6677; stroke-linecap: square"/>
    <defs>
     <path id="mbaed2fbdc0" d="M -2 2 
L 2 2 
L 2 -2 
L -2 -2 
z
" style="stroke: #ee6677; stroke-linejoin: miter"/>
    </defs>
    <g clip-path="url(#pe41d236620)">
     <use xlink:href="#mbaed2fbdc0" x="-1" y="94.837164" style="fill: #ee6677; stroke: #ee6677; stroke-linejoin: miter"/>
     <use xlink:href="#mbaed2fbdc0" x="16.365899" y="94.987763" style="fill: #ee6677; stroke: #ee6677; stroke-linejoin: miter"/>
     <use xlink:href="#mbaed2fbdc0" x="36.869531" y="95.06623" style="fill: #ee6677; stroke: #ee6677; stroke-linejoin: miter"/>
     <use xlink:href="#mbaed2fbdc0" x="60.673511" y="91.799016" style="fill: #ee6677; stroke: #ee6677; stroke-linejoin: miter"/>
     <use xlink:href="#mbaed2fbdc0" x="67.62498" y="88.268708" style="fill: #ee6677; stroke: #ee6677; stroke-linejoin: miter"/>
     <use xlink:href="#mbaed2fbdc0" x="73.621908" y="85.115259" style="fill: #ee6677; stroke: #ee6677; stroke-linejoin: miter"/>
     <use xlink:href="#mbaed2fbdc0" x="79.618836" y="83.724295" style="fill: #ee6677; stroke: #ee6677; stroke-linejoin: miter"/>
     <use xlink:href="#mbaed2fbdc0" x="86.15365" y="83.924644" style="fill: #ee6677; stroke: #ee6677; stroke-linejoin: miter"/>
     <use xlink:href="#mbaed2fbdc0" x="92.83862" y="82.181945" style="fill: #ee6677; stroke: #ee6677; stroke-linejoin: miter"/>
     <use xlink:href="#mbaed2fbdc0" x="99.277081" y="78.174542" style="fill: #ee6677; stroke: #ee6677; stroke-linejoin: miter"/>
     <use xlink:href="#mbaed2fbdc0" x="105.702742" y="73.020166" style="fill: #ee6677; stroke: #ee6677; stroke-linejoin: miter"/>
     <use xlink:href="#mbaed2fbdc0" x="119.450806" y="59.156744" style="fill: #ee6677; stroke: #ee6677; stroke-linejoin: miter"/>
     <use xlink:href="#mbaed2fbdc0" x="141.7335" y="30.352102" style="fill: #ee6677; stroke: #ee6677; stroke-linejoin: miter"/>
    </g>
   </g>
   <g id="line2d_133">
    <path d="M -1 94.87949 
L 5.510316 94.879497 
L 16.365899 94.879548 
L 26.617715 94.879747 
L 36.869531 94.88054 
L 47.121348 94.883717 
L 60.673511 94.905988 
L 63.370092 94.917675 
L 67.62498 94.947485 
L 70.925327 94.985919 
L 73.621908 95.033015 
L 76.922255 95.119907 
L 79.618836 95.226115 
L 83.244257 95.44455 
L 86.15365 95.710655 
L 89.870652 96.217874 
L 92.83862 96.794653 
L 96.138968 97.639328 
L 99.277081 98.632164 
L 102.750416 99.888365 
L 105.702742 101.003803 
L 109.19899 102.24901 
L 119.450806 104.158629 
L 131.726156 102.504326 
L 141.7335 99.438127 
L 151.985316 93.805737 
L 162.237132 83.754536 
L 172.488948 70.356471 
" clip-path="url(#pe41d236620)" style="fill: none; stroke-dasharray: 3.7,1.6; stroke-dashoffset: 0; stroke: #ee6677"/>
    <g clip-path="url(#pe41d236620)">
     <use xlink:href="#mbaed2fbdc0" x="-1" y="94.879493" style="fill: #ee6677; stroke: #ee6677; stroke-linejoin: miter"/>
     <use xlink:href="#mbaed2fbdc0" x="5.510316" y="94.879497" style="fill: #ee6677; stroke: #ee6677; stroke-linejoin: miter"/>
     <use xlink:href="#mbaed2fbdc0" x="26.617715" y="94.879747" style="fill: #ee6677; stroke: #ee6677; stroke-linejoin: miter"/>
     <use xlink:href="#mbaed2fbdc0" x="47.121348" y="94.883717" style="fill: #ee6677; stroke: #ee6677; stroke-linejoin: miter"/>
     <use xlink:href="#mbaed2fbdc0" x="63.370092" y="94.917675" style="fill: #ee6677; stroke: #ee6677; stroke-linejoin: miter"/>
     <use xlink:href="#mbaed2fbdc0" x="70.925327" y="94.985919" style="fill: #ee6677; stroke: #ee6677; stroke-linejoin: miter"/>
     <use xlink:href="#mbaed2fbdc0" x="76.922255" y="95.119907" style="fill: #ee6677; stroke: #ee6677; stroke-linejoin: miter"/>
     <use xlink:href="#mbaed2fbdc0" x="83.244257" y="95.44455" style="fill: #ee6677; stroke: #ee6677; stroke-linejoin: miter"/>
     <use xlink:href="#mbaed2fbdc0" x="89.870652" y="96.217874" style="fill: #ee6677; stroke: #ee6677; stroke-linejoin: miter"/>
     <use xlink:href="#mbaed2fbdc0" x="96.138968" y="97.639328" style="fill: #ee6677; stroke: #ee6677; stroke-linejoin: miter"/>
     <use xlink:href="#mbaed2fbdc0" x="102.750416" y="99.888365" style="fill: #ee6677; stroke: #ee6677; stroke-linejoin: miter"/>
     <use xlink:href="#mbaed2fbdc0" x="109.19899" y="102.24901" style="fill: #ee6677; stroke: #ee6677; stroke-linejoin: miter"/>
     <use xlink:href="#mbaed2fbdc0" x="131.726156" y="102.504326" style="fill: #ee6677; stroke: #ee6677; stroke-linejoin: miter"/>
     <use xlink:href="#mbaed2fbdc0" x="151.985316" y="93.805737" style="fill: #ee6677; stroke: #ee6677; stroke-linejoin: miter"/>
     <use xlink:href="#mbaed2fbdc0" x="172.488948" y="70.356471" style="fill: #ee6677; stroke: #ee6677; stroke-linejoin: miter"/>
    </g>
   </g>
   <g id="line2d_134">
    <path d="M -1 95.034552 
L 5.510316 95.115999 
L 16.365899 94.767319 
L 26.617715 94.423996 
L 36.869531 93.413287 
L 47.121348 89.532075 
L 60.673511 83.299139 
L 63.370092 82.173976 
L 67.62498 80.45813 
L 70.925327 79.194052 
L 73.621908 78.248738 
L 76.922255 77.779936 
L 79.618836 77.857897 
L 83.244257 78.447372 
L 86.15365 78.982036 
L 89.870652 78.983742 
L 92.83862 77.980581 
L 96.138968 76.296757 
L 99.277081 74.07023 
L 102.750416 71.227294 
L 105.702742 68.567834 
L 109.19899 65.126507 
L 119.450806 53.537789 
L 131.726156 37.612619 
L 141.7335 23.519067 
L 151.985316 8.56125 
" clip-path="url(#pe41d236620)" style="fill: none; stroke: #228833; stroke-linecap: square"/>
    <defs>
     <path id="m172deacad7" d="M 0 -2 
L -2 2 
L 2 2 
z
" style="stroke: #228833; stroke-linejoin: miter"/>
    </defs>
    <g clip-path="url(#pe41d236620)">
     <use xlink:href="#m172deacad7" x="-1" y="94.948672" style="fill: #228833; stroke: #228833; stroke-linejoin: miter"/>
     <use xlink:href="#m172deacad7" x="16.365899" y="94.767319" style="fill: #228833; stroke: #228833; stroke-linejoin: miter"/>
     <use xlink:href="#m172deacad7" x="36.869531" y="93.413287" style="fill: #228833; stroke: #228833; stroke-linejoin: miter"/>
     <use xlink:href="#m172deacad7" x="60.673511" y="83.299139" style="fill: #228833; stroke: #228833; stroke-linejoin: miter"/>
     <use xlink:href="#m172deacad7" x="67.62498" y="80.45813" style="fill: #228833; stroke: #228833; stroke-linejoin: miter"/>
     <use xlink:href="#m172deacad7" x="73.621908" y="78.248738" style="fill: #228833; stroke: #228833; stroke-linejoin: miter"/>
     <use xlink:href="#m172deacad7" x="79.618836" y="77.857897" style="fill: #228833; stroke: #228833; stroke-linejoin: miter"/>
     <use xlink:href="#m172deacad7" x="86.15365" y="78.982036" style="fill: #228833; stroke: #228833; stroke-linejoin: miter"/>
     <use xlink:href="#m172deacad7" x="92.83862" y="77.980581" style="fill: #228833; stroke: #228833; stroke-linejoin: miter"/>
     <use xlink:href="#m172deacad7" x="99.277081" y="74.07023" style="fill: #228833; stroke: #228833; stroke-linejoin: miter"/>
     <use xlink:href="#m172deacad7" x="105.702742" y="68.567834" style="fill: #228833; stroke: #228833; stroke-linejoin: miter"/>
     <use xlink:href="#m172deacad7" x="119.450806" y="53.537789" style="fill: #228833; stroke: #228833; stroke-linejoin: miter"/>
     <use xlink:href="#m172deacad7" x="141.7335" y="23.519067" style="fill: #228833; stroke: #228833; stroke-linejoin: miter"/>
    </g>
   </g>
   <g id="line2d_135">
    <path d="M -1 94.87935 
L 5.510316 94.879229 
L 16.365899 94.878383 
L 26.617715 94.875092 
L 36.869531 94.862012 
L 47.121348 94.811059 
L 60.673511 94.508804 
L 63.370092 94.382842 
L 67.62498 94.139567 
L 70.925327 93.948221 
L 73.621908 93.839135 
L 76.922255 93.851198 
L 79.618836 94.060392 
L 83.244257 94.739528 
L 86.15365 95.669504 
L 89.870652 97.351347 
L 92.83862 99.01758 
L 96.138968 101.059527 
L 99.277081 103.006851 
L 102.750416 104.947185 
L 105.702742 106.275558 
L 109.19899 107.36916 
L 119.450806 107.78625 
L 131.726156 105.424641 
L 141.7335 102.611952 
L 151.985316 97.214728 
L 162.237132 87.249952 
L 172.488948 73.875934 
" clip-path="url(#pe41d236620)" style="fill: none; stroke-dasharray: 3.7,1.6; stroke-dashoffset: 0; stroke: #228833"/>
    <g clip-path="url(#pe41d236620)">
     <use xlink:href="#m172deacad7" x="-1" y="94.879304" style="fill: #228833; stroke: #228833; stroke-linejoin: miter"/>
     <use xlink:href="#m172deacad7" x="5.510316" y="94.879229" style="fill: #228833; stroke: #228833; stroke-linejoin: miter"/>
     <use xlink:href="#m172deacad7" x="26.617715" y="94.875092" style="fill: #228833; stroke: #228833; stroke-linejoin: miter"/>
     <use xlink:href="#m172deacad7" x="47.121348" y="94.811059" style="fill: #228833; stroke: #228833; stroke-linejoin: miter"/>
     <use xlink:href="#m172deacad7" x="63.370092" y="94.382842" style="fill: #228833; stroke: #228833; stroke-linejoin: miter"/>
     <use xlink:href="#m172deacad7" x="70.925327" y="93.948221" style="fill: #228833; stroke: #228833; stroke-linejoin: miter"/>
     <use xlink:href="#m172deacad7" x="76.922255" y="93.851198" style="fill: #228833; stroke: #228833; stroke-linejoin: miter"/>
     <use xlink:href="#m172deacad7" x="83.244257" y="94.739528" style="fill: #228833; stroke: #228833; stroke-linejoin: miter"/>
     <use xlink:href="#m172deacad7" x="89.870652" y="97.351347" style="fill: #228833; stroke: #228833; stroke-linejoin: miter"/>
     <use xlink:href="#m172deacad7" x="96.138968" y="101.059527" style="fill: #228833; stroke: #228833; stroke-linejoin: miter"/>
     <use xlink:href="#m172deacad7" x="102.750416" y="104.947185" style="fill: #228833; stroke: #228833; stroke-linejoin: miter"/>
     <use xlink:href="#m172deacad7" x="109.19899" y="107.36916" style="fill: #228833; stroke: #228833; stroke-linejoin: miter"/>
     <use xlink:href="#m172deacad7" x="131.726156" y="105.424641" style="fill: #228833; stroke: #228833; stroke-linejoin: miter"/>
     <use xlink:href="#m172deacad7" x="151.985316" y="97.214728" style="fill: #228833; stroke: #228833; stroke-linejoin: miter"/>
     <use xlink:href="#m172deacad7" x="172.488948" y="73.875934" style="fill: #228833; stroke: #228833; stroke-linejoin: miter"/>
    </g>
   </g>
   <g id="patch_3">
    <path d="M 31.025311 112.7475 
L 31.025311 3.6 
" style="fill: none; stroke: #000000; stroke-width: 0.5; stroke-linejoin: miter; stroke-linecap: square"/>
   </g>
   <g id="patch_4">
    <path d="M 177.500311 112.7475 
L 177.500311 3.6 
" style="fill: none; stroke: #000000; stroke-width: 0.5; stroke-linejoin: miter; stroke-linecap: square"/>
   </g>
   <g id="patch_5">
    <path d="M 31.025311 112.7475 
L 177.500311 112.7475 
" style="fill: none; stroke: #000000; stroke-width: 0.5; stroke-linejoin: miter; stroke-linecap: square"/>
   </g>
   <g id="patch_6">
    <path d="M 31.025311 3.6 
L 177.500311 3.6 
" style="fill: none; stroke: #000000; stroke-width: 0.5; stroke-linejoin: miter; stroke-linecap: square"/>
   </g>
   <g id="legend_1">
    <g id="patch_7">
     <path d="M 36.856311 72.379883 
L 90.0834 72.379883 
Q 91.7494 72.379883 91.7494 70.713883 
L 91.7494 36.717875 
Q 91.7494 35.051875 90.0834 35.051875 
L 36.856311 35.051875 
Q 35.190311 35.051875 35.190311 36.717875 
L 35.190311 70.713883 
Q 35.190311 72.379883 36.856311 72.379883 
z
" style="fill: #ffffff; stroke: #cccccc; stroke-linejoin: miter"/>
    </g>
    <g id="line2d_136">
     <path d="M 38.522311 41.299375 
L 46.852311 41.299375 
L 55.182311 41.299375 
" style="fill: none; stroke: #4477aa; stroke-linecap: square"/>
     <g>
      <use xlink:href="#m013b82918e" x="46.852311" y="41.299375" style="fill: #4477aa; stroke: #4477aa"/>
     </g>
    </g>
    <g id="text_12">
     <!-- $L = 3$ -->
     <g transform="translate(61.846311 44.214875) scale(0.0833 -0.0833)">
      <defs>
       <path id="CMMI12-4c" d="M 2349 3861 
C 2406 4103 2426 4167 2989 4167 
C 3162 4167 3206 4167 3206 4288 
C 3206 4352 3136 4352 3110 4352 
C 2982 4352 2835 4352 2707 4352 
L 1850 4352 
C 1728 4352 1587 4352 1466 4352 
C 1414 4352 1344 4352 1344 4231 
C 1344 4167 1402 4167 1498 4167 
C 1888 4167 1888 4116 1888 4046 
C 1888 4034 1888 3995 1862 3899 
L 998 472 
C 941 249 928 185 480 185 
C 358 185 294 185 294 70 
C 294 0 333 0 461 0 
L 3328 0 
C 3469 0 3475 6 3520 121 
L 4013 1478 
C 4026 1510 4038 1548 4038 1567 
C 4038 1605 4006 1631 3974 1631 
C 3968 1631 3936 1631 3923 1605 
C 3910 1599 3910 1586 3859 1465 
C 3654 905 3366 185 2285 185 
L 1670 185 
C 1581 185 1568 185 1530 192 
C 1459 198 1453 211 1453 262 
C 1453 307 1466 345 1478 401 
L 2349 3861 
z
" transform="scale(0.015625)"/>
       <path id="CMR17-3d" d="M 4115 2017 
C 4211 2017 4307 2017 4307 2125 
C 4307 2240 4198 2240 4090 2240 
L 512 2240 
C 403 2240 294 2240 294 2125 
C 294 2017 390 2017 486 2017 
L 4115 2017 
z
M 4090 896 
C 4198 896 4307 896 4307 1011 
C 4307 1119 4211 1119 4115 1119 
L 486 1119 
C 390 1119 294 1119 294 1011 
C 294 896 403 896 512 896 
L 4090 896 
z
" transform="scale(0.015625)"/>
      </defs>
      <use xlink:href="#CMMI12-4c" transform="scale(0.996264)"/>
      <use xlink:href="#CMR17-3d" transform="translate(94.044884 0) scale(0.996264)"/>
      <use xlink:href="#CMR17-33" transform="translate(193.433681 0) scale(0.996264)"/>
     </g>
    </g>
    <g id="line2d_137">
     <path d="M 38.522311 52.909044 
L 46.852311 52.909044 
L 55.182311 52.909044 
" style="fill: none; stroke: #ee6677; stroke-linecap: square"/>
     <g>
      <use xlink:href="#mbaed2fbdc0" x="46.852311" y="52.909044" style="fill: #ee6677; stroke: #ee6677; stroke-linejoin: miter"/>
     </g>
    </g>
    <g id="text_13">
     <!-- $L = 9$ -->
     <g transform="translate(61.846311 55.824544) scale(0.0833 -0.0833)">
      <defs>
       <path id="CMR17-39" d="M 2253 1864 
C 2253 464 1670 31 1190 31 
C 1043 31 685 31 538 294 
C 704 268 826 357 826 518 
C 826 692 685 749 595 749 
C 538 749 365 723 365 506 
C 365 71 742 -128 1203 -128 
C 1939 -128 2688 674 2688 2073 
C 2688 3817 1971 4179 1485 4179 
C 851 4179 243 3628 243 2778 
C 243 1991 762 1408 1414 1408 
C 1952 1408 2189 1903 2253 2112 
L 2253 1864 
z
M 1427 1510 
C 1254 1510 1011 1542 813 1922 
C 678 2169 678 2461 678 2771 
C 678 3146 678 3405 858 3684 
C 947 3817 1114 4032 1485 4032 
C 2240 4032 2240 2885 2240 2632 
C 2240 2182 2035 1510 1427 1510 
z
" transform="scale(0.015625)"/>
      </defs>
      <use xlink:href="#CMMI12-4c" transform="scale(0.996264)"/>
      <use xlink:href="#CMR17-3d" transform="translate(94.044884 0) scale(0.996264)"/>
      <use xlink:href="#CMR17-39" transform="translate(193.433681 0) scale(0.996264)"/>
     </g>
    </g>
    <g id="line2d_138">
     <path d="M 38.522311 64.518713 
L 46.852311 64.518713 
L 55.182311 64.518713 
" style="fill: none; stroke: #228833; stroke-linecap: square"/>
     <g>
      <use xlink:href="#m172deacad7" x="46.852311" y="64.518713" style="fill: #228833; stroke: #228833; stroke-linejoin: miter"/>
     </g>
    </g>
    <g id="text_14">
     <!-- $L = 13$ -->
     <g transform="translate(61.846311 67.434213) scale(0.0833 -0.0833)">
      <use xlink:href="#CMMI12-4c" transform="scale(0.996264)"/>
      <use xlink:href="#CMR17-3d" transform="translate(94.044884 0) scale(0.996264)"/>
      <use xlink:href="#CMR17-31" transform="translate(193.433681 0) scale(0.996264)"/>
      <use xlink:href="#CMR17-33" transform="translate(239.124158 0) scale(0.996264)"/>
     </g>
    </g>
   </g>
   <g id="legend_2">
    <g id="patch_8">
     <path d="M 36.856311 33.483338 
L 104.906414 33.483338 
Q 106.572414 33.483338 106.572414 31.817338 
L 106.572414 9.431 
Q 106.572414 7.765 104.906414 7.765 
L 36.856311 7.765 
Q 35.190311 7.765 35.190311 9.431 
L 35.190311 31.817338 
Q 35.190311 33.483338 36.856311 33.483338 
z
" style="fill: #ffffff; stroke: #cccccc; stroke-linejoin: miter"/>
    </g>
    <g id="line2d_139">
     <path d="M 38.522311 14.0125 
L 46.852311 14.0125 
L 55.182311 14.0125 
" style="fill: none; stroke: #808080; stroke-linecap: square"/>
    </g>
    <g id="text_15">
     <!-- Simulation -->
     <g transform="translate(61.846311 16.928) scale(0.0833 -0.0833)">
      <defs>
       <path id="CMR17-53" d="M 2803 4290 
C 2803 4404 2797 4411 2758 4411 
C 2720 4411 2707 4385 2682 4328 
L 2490 3907 
C 2246 4257 1875 4416 1472 4416 
C 819 4416 294 3901 294 3253 
C 294 3056 339 2776 557 2510 
C 794 2218 1018 2167 1530 2033 
C 1722 1982 2042 1899 2106 1874 
C 2470 1722 2662 1341 2662 985 
C 2662 527 2336 38 1779 38 
C 1094 38 454 419 410 1311 
C 403 1413 397 1419 352 1419 
C 301 1419 294 1413 294 1285 
L 294 -1 
C 294 -115 301 -122 339 -122 
C 384 -122 397 -90 486 108 
C 493 127 493 140 614 381 
C 934 -39 1472 -128 1779 -128 
C 2477 -128 2970 451 2970 1124 
C 2970 1454 2848 1708 2778 1823 
C 2509 2230 2221 2306 1914 2382 
C 1869 2402 1856 2402 1498 2490 
C 1152 2579 1005 2624 845 2796 
C 666 2992 602 3196 602 3399 
C 602 3812 934 4263 1478 4263 
C 2157 4263 2579 3786 2675 2993 
C 2694 2878 2701 2872 2746 2872 
C 2803 2872 2803 2891 2803 2999 
L 2803 4290 
z
" transform="scale(0.015625)"/>
       <path id="CMR17-69" d="M 992 3909 
C 992 4049 877 4170 730 4170 
C 589 4170 467 4056 467 3909 
C 467 3769 582 3648 730 3648 
C 870 3648 992 3763 992 3909 
z
M 243 2706 
L 243 2541 
C 602 2541 653 2502 653 2197 
L 653 427 
C 653 184 627 153 218 153 
L 218 -13 
C 371 0 646 0 806 0 
C 960 0 1222 0 1370 -13 
L 1370 153 
C 992 153 979 191 979 420 
L 979 2776 
L 243 2706 
z
" transform="scale(0.015625)"/>
       <path id="CMR17-6d" d="M 4326 1933 
C 4326 2252 4269 2790 3507 2790 
C 3072 2790 2771 2496 2656 2151 
L 2650 2151 
C 2573 2676 2195 2790 1837 2790 
C 1331 2790 1069 2400 973 2144 
L 966 2144 
L 966 2790 
L 211 2720 
L 211 2554 
C 589 2554 646 2515 646 2208 
L 646 428 
C 646 184 621 153 211 153 
L 211 -13 
C 365 0 646 0 813 0 
C 979 0 1267 0 1421 -13 
L 1421 153 
C 1011 153 986 178 986 428 
L 986 1658 
C 986 2247 1344 2688 1792 2688 
C 2266 2688 2317 2266 2317 1958 
L 2317 428 
C 2317 184 2291 153 1882 153 
L 1882 -13 
C 2035 0 2317 0 2483 0 
C 2650 0 2938 0 3091 -13 
L 3091 153 
C 2682 153 2656 178 2656 428 
L 2656 1658 
C 2656 2247 3014 2688 3462 2688 
C 3936 2688 3987 2266 3987 1958 
L 3987 428 
C 3987 184 3962 153 3552 153 
L 3552 -13 
C 3706 0 3987 0 4154 0 
C 4320 0 4608 0 4762 -13 
L 4762 153 
C 4352 153 4326 178 4326 428 
L 4326 1933 
z
" transform="scale(0.015625)"/>
       <path id="CMR17-75" d="M 1882 2693 
L 1882 2528 
C 2259 2528 2317 2489 2317 2186 
L 2317 1032 
C 2317 500 2029 38 1555 38 
C 1030 38 986 348 986 678 
L 986 2763 
L 211 2693 
L 211 2528 
C 467 2528 640 2528 646 2274 
L 646 1058 
C 646 633 646 361 813 183 
C 896 101 1056 -64 1517 -64 
C 2061 -64 2272 377 2323 506 
L 2330 506 
L 2330 -63 
L 3091 -63 
L 3091 128 
C 2714 128 2656 166 2656 473 
L 2656 2763 
L 1882 2693 
z
" transform="scale(0.015625)"/>
       <path id="CMR17-6c" d="M 979 4396 
L 218 4326 
L 218 4160 
C 595 4160 653 4122 653 3817 
L 653 426 
C 653 184 627 153 218 153 
L 218 -13 
C 371 0 653 0 813 0 
C 979 0 1261 0 1414 -13 
L 1414 153 
C 1005 153 979 178 979 426 
L 979 4396 
z
" transform="scale(0.015625)"/>
       <path id="CMR17-61" d="M 2304 1653 
C 2304 2072 2304 2294 2035 2543 
C 1798 2752 1523 2816 1306 2816 
C 800 2816 435 2407 435 1971 
C 435 1728 627 1728 666 1728 
C 749 1728 896 1778 896 1954 
C 896 2112 774 2181 666 2181 
C 640 2181 608 2174 589 2168 
C 723 2592 1069 2714 1293 2714 
C 1613 2714 1965 2429 1965 1885 
L 1965 1600 
C 1587 1600 1133 1549 774 1357 
C 371 1133 256 813 256 570 
C 256 77 832 -64 1171 -64 
C 1523 -64 1850 139 1990 511 
C 2003 233 2182 -18 2464 -18 
C 2598 -18 2938 70 2938 567 
L 2938 920 
L 2822 920 
L 2822 562 
C 2822 178 2650 128 2566 128 
C 2304 128 2304 458 2304 738 
L 2304 1653 
z
M 1965 870 
C 1965 317 1568 38 1216 38 
C 896 38 646 275 646 570 
C 646 761 730 1100 1101 1305 
C 1408 1478 1760 1504 1965 1504 
L 1965 870 
z
" transform="scale(0.015625)"/>
       <path id="CMR17-74" d="M 966 2560 
L 1862 2560 
L 1862 2725 
L 966 2725 
L 966 3904 
L 851 3904 
C 838 3245 614 2668 70 2668 
L 70 2560 
L 627 2560 
L 627 771 
C 627 650 627 -64 1370 -64 
C 1747 -64 1965 306 1965 777 
L 1965 1140 
L 1850 1140 
L 1850 783 
C 1850 344 1677 51 1408 51 
C 1222 51 966 178 966 758 
L 966 2560 
z
" transform="scale(0.015625)"/>
       <path id="CMR17-6f" d="M 2758 1356 
C 2758 2176 2163 2816 1466 2816 
C 768 2816 173 2176 173 1356 
C 173 551 768 -64 1466 -64 
C 2163 -64 2758 551 2758 1356 
z
M 1466 51 
C 1165 51 909 230 762 480 
C 602 767 582 1126 582 1408 
C 582 1677 595 2010 762 2298 
C 890 2509 1139 2714 1466 2714 
C 1754 2714 1997 2554 2150 2330 
C 2349 2029 2349 1607 2349 1408 
C 2349 1158 2336 775 2163 467 
C 1984 173 1709 51 1466 51 
z
" transform="scale(0.015625)"/>
       <path id="CMR17-6e" d="M 2656 1933 
C 2656 2259 2592 2790 1837 2790 
C 1331 2790 1069 2400 973 2144 
L 966 2144 
L 966 2790 
L 211 2720 
L 211 2554 
C 589 2554 646 2515 646 2208 
L 646 428 
C 646 184 621 153 211 153 
L 211 -13 
C 365 0 646 0 813 0 
C 979 0 1267 0 1421 -13 
L 1421 153 
C 1011 153 986 178 986 428 
L 986 1658 
C 986 2247 1344 2688 1792 2688 
C 2266 2688 2317 2266 2317 1958 
L 2317 428 
C 2317 184 2291 153 1882 153 
L 1882 -13 
C 2035 0 2317 0 2483 0 
C 2650 0 2938 0 3091 -13 
L 3091 153 
C 2682 153 2656 178 2656 428 
L 2656 1933 
z
" transform="scale(0.015625)"/>
      </defs>
      <use xlink:href="#CMR17-53" transform="scale(0.996264)"/>
      <use xlink:href="#CMR17-69" transform="translate(50.89537 0) scale(0.996264)"/>
      <use xlink:href="#CMR17-6d" transform="translate(75.766428 0) scale(0.996264)"/>
      <use xlink:href="#CMR17-75" transform="translate(150.083564 0) scale(0.996264)"/>
      <use xlink:href="#CMR17-6c" transform="translate(200.978934 0) scale(0.996264)"/>
      <use xlink:href="#CMR17-61" transform="translate(225.849992 0) scale(0.996264)"/>
      <use xlink:href="#CMR17-74" transform="translate(271.54047 0) scale(0.996264)"/>
      <use xlink:href="#CMR17-69" transform="translate(306.821237 0) scale(0.996264)"/>
      <use xlink:href="#CMR17-6f" transform="translate(331.692296 0) scale(0.996264)"/>
      <use xlink:href="#CMR17-6e" transform="translate(377.382773 0) scale(0.996264)"/>
     </g>
    </g>
    <g id="line2d_140">
     <path d="M 38.522311 25.622169 
L 46.852311 25.622169 
L 55.182311 25.622169 
" style="fill: none; stroke-dasharray: 3.7,1.6; stroke-dashoffset: 0; stroke: #808080"/>
    </g>
    <g id="text_16">
     <!-- Theory -->
     <g transform="translate(61.846311 28.537669) scale(0.0833 -0.0833)">
      <defs>
       <path id="CMR17-54" d="M 3981 4326 
L 288 4326 
L 179 2918 
L 294 2918 
C 378 3976 467 4160 1453 4160 
C 1568 4160 1754 4160 1805 4154 
C 1926 4135 1926 4058 1926 3912 
L 1926 459 
C 1926 230 1907 160 1376 160 
L 1197 160 
L 1197 0 
C 1504 0 1824 0 2138 0 
C 2451 0 2771 0 3078 0 
L 3078 160 
L 2899 160 
C 2368 160 2349 230 2349 459 
L 2349 3912 
C 2349 4052 2349 4129 2464 4154 
C 2515 4160 2701 4160 2816 4160 
C 3795 4160 3891 3976 3974 2918 
L 4090 2918 
L 3981 4326 
z
" transform="scale(0.015625)"/>
       <path id="CMR17-68" d="M 2656 1933 
C 2656 2259 2592 2790 1837 2790 
C 1312 2790 1056 2368 979 2157 
L 973 2157 
L 973 4396 
L 211 4326 
L 211 4160 
C 589 4160 646 4122 646 3817 
L 646 426 
C 646 184 621 153 211 153 
L 211 -13 
C 365 0 646 0 813 0 
C 979 0 1267 0 1421 -13 
L 1421 153 
C 1011 153 986 178 986 428 
L 986 1658 
C 986 2247 1344 2688 1792 2688 
C 2266 2688 2317 2266 2317 1958 
L 2317 428 
C 2317 184 2291 153 1882 153 
L 1882 -13 
C 2035 0 2317 0 2483 0 
C 2650 0 2938 0 3091 -13 
L 3091 153 
C 2682 153 2656 178 2656 428 
L 2656 1933 
z
" transform="scale(0.015625)"/>
       <path id="CMR17-65" d="M 2438 1472 
C 2464 1498 2464 1511 2464 1576 
C 2464 2238 2118 2816 1389 2816 
C 710 2816 173 2169 173 1383 
C 173 551 781 -64 1459 -64 
C 2176 -64 2458 607 2458 740 
C 2458 784 2419 784 2406 784 
C 2362 784 2355 771 2330 696 
C 2189 265 1837 51 1504 51 
C 1229 51 954 203 781 480 
C 582 803 582 1176 582 1472 
L 2438 1472 
z
M 589 1568 
C 634 2505 1126 2714 1382 2714 
C 1818 2714 2112 2297 2118 1568 
L 589 1568 
z
" transform="scale(0.015625)"/>
       <path id="CMR17-72" d="M 960 1497 
C 960 2112 1222 2688 1702 2688 
C 1747 2688 1792 2682 1837 2662 
C 1837 2662 1696 2617 1696 2452 
C 1696 2298 1818 2234 1914 2234 
C 1990 2234 2131 2279 2131 2458 
C 2131 2663 1926 2790 1709 2790 
C 1222 2790 1011 2317 947 2093 
L 941 2093 
L 941 2790 
L 198 2720 
L 198 2554 
C 576 2554 634 2515 634 2208 
L 634 428 
C 634 184 608 153 198 153 
L 198 -13 
C 352 0 646 0 813 0 
C 998 0 1325 0 1498 -13 
L 1498 153 
C 1037 153 960 153 960 440 
L 960 1497 
z
" transform="scale(0.015625)"/>
       <path id="CMR17-79" d="M 2496 2197 
C 2656 2586 2944 2586 3034 2586 
L 3034 2752 
C 2912 2752 2752 2752 2630 2752 
C 2496 2752 2285 2752 2157 2758 
L 2157 2592 
C 2400 2573 2406 2394 2406 2343 
C 2406 2280 2394 2248 2362 2171 
L 1664 449 
L 902 2306 
C 870 2382 870 2426 870 2433 
C 870 2573 1018 2586 1171 2586 
L 1171 2758 
C 1018 2752 742 2752 582 2752 
C 410 2752 205 2752 64 2758 
L 64 2586 
C 410 2586 448 2554 531 2350 
L 1485 15 
C 1197 -738 1030 -1178 627 -1178 
C 557 -1178 397 -1159 282 -1044 
C 429 -1031 493 -942 493 -833 
C 493 -725 416 -629 288 -629 
C 147 -629 77 -725 77 -840 
C 77 -1095 339 -1280 627 -1280 
C 998 -1280 1229 -922 1357 -604 
L 2496 2197 
z
" transform="scale(0.015625)"/>
      </defs>
      <use xlink:href="#CMR17-54" transform="scale(0.996264)"/>
      <use xlink:href="#CMR17-68" transform="translate(66.509881 0) scale(0.996264)"/>
      <use xlink:href="#CMR17-65" transform="translate(117.40525 0) scale(0.996264)"/>
      <use xlink:href="#CMR17-6f" transform="translate(157.890911 0) scale(0.996264)"/>
      <use xlink:href="#CMR17-72" transform="translate(203.581388 0) scale(0.996264)"/>
      <use xlink:href="#CMR17-79" transform="translate(238.862156 0) scale(0.996264)"/>
     </g>
    </g>
   </g>
  </g>
 </g>
 <defs>
  <clipPath id="pe41d236620">
   <rect x="31.025311" y="3.6" width="146.475" height="109.1475"/>
  </clipPath>
 </defs>
</svg>
