<?xml version="1.0" encoding="utf-8" standalone="no"?>
<!DOCTYPE svg PUBLIC "-//W3C//DTD SVG 1.1//EN"
  "http://www.w3.org/Graphics/SVG/1.1/DTD/svg11.dtd">
<svg xmlns:xlink="http://www.w3.org/1999/xlink" width="189.208789pt" height="141.558853pt" viewBox="0 0 189.208789 141.558853" xmlns="http://www.w3.org/2000/svg" version="1.1">
 <metadata>
  <rdf:RDF xmlns:dc="http://purl.org/dc/elements/1.1/" xmlns:cc="http://creativecommons.org/ns#" xmlns:rdf="http://www.w3.org/1999/02/22-rdf-syntax-ns#">
   <cc:Work>
    <dc:type rdf:resource="http://purl.org/dc/dcmitype/StillImage"/>
    <dc:date>2026-02-05T10:53:59.335696</dc:date>
    <dc:format>image/svg+xml</dc:format>
    <dc:creator>
     <cc:Agent>
      <dc:title>Matplotlib v3.9.2, https://matplotlib.org/</dc:title>
     </cc:Agent>
    </dc:creator>
   </cc:Work>
  </rdf:RDF>
 </metadata>
 <defs>
  <style type="text/css">*{stroke-linejoin: round; stroke-linecap: butt}</style>
 </defs>
 <g id="figure_1">
  <g id="patch_1">
   <path d="M 0 141.558853 
L 189.208789 141.558853 
L 189.208789 0 
L 0 0 
L 0 141.558853 
z
" style="fill: none"/>
  </g>
  <g id="axes_1">
   <g id="patch_2">
    <path d="M 39.133789 112.7475 
L 185.608789 112.7475 
L 185.608789 3.6 
L 39.133789 3.6 
L 39.133789 112.7475 
z
" style="fill: none"/>
   </g>
   <g id="matplotlib.axis_1">
    <g id="xtick_1">
     <g id="line2d_1">
      <path d="M 39.133789 112.7475 
L 39.133789 3.6 
" clip-path="url(#pa1095c2780)" style="fill: none; stroke-dasharray: 1.85,0.8; stroke-dashoffset: 0; stroke: #000000; stroke-opacity: 0.5; stroke-width: 0.5"/>
     </g>
     <g id="line2d_2">
      <defs>
       <path id="m7c03d6dda1" d="M 0 0 
L 0 -3 
" style="stroke: #000000; stroke-width: 0.5"/>
      </defs>
      <g>
       <use xlink:href="#m7c03d6dda1" x="39.133789" y="112.7475" style="stroke: #000000; stroke-width: 0.5"/>
      </g>
     </g>
     <g id="line2d_3">
      <defs>
       <path id="m764710394e" d="M 0 0 
L 0 3 
" style="stroke: #000000; stroke-width: 0.5"/>
      </defs>
      <g>
       <use xlink:href="#m764710394e" x="39.133789" y="3.6" style="stroke: #000000; stroke-width: 0.5"/>
      </g>
     </g>
     <g id="text_1">
      <!-- $\mathdefault{10^{-3}}$ -->
      <g transform="translate(29.053503 123.165998) scale(0.1 -0.1)">
       <defs>
        <path id="CMR17-31" d="M 1702 4058 
C 1702 4192 1696 4192 1606 4192 
C 1357 3916 979 3827 621 3827 
C 602 3827 570 3827 563 3808 
C 557 3795 557 3782 557 3648 
C 755 3648 1088 3686 1344 3839 
L 1344 461 
C 1344 236 1331 160 781 160 
L 589 160 
L 589 0 
C 896 0 1216 0 1523 0 
C 1830 0 2150 0 2458 0 
L 2458 160 
L 2266 160 
C 1715 160 1702 230 1702 458 
L 1702 4058 
z
" transform="scale(0.015625)"/>
        <path id="CMR17-30" d="M 2688 2025 
C 2688 2416 2682 3080 2413 3591 
C 2176 4039 1798 4198 1466 4198 
C 1158 4198 768 4058 525 3597 
C 269 3118 243 2524 243 2025 
C 243 1661 250 1106 448 619 
C 723 -39 1216 -128 1466 -128 
C 1760 -128 2208 -7 2470 600 
C 2662 1042 2688 1559 2688 2025 
z
M 1466 -26 
C 1056 -26 813 325 723 812 
C 653 1188 653 1738 653 2096 
C 653 2588 653 2997 736 3387 
C 858 3929 1216 4096 1466 4096 
C 1728 4096 2067 3923 2189 3400 
C 2272 3036 2278 2607 2278 2096 
C 2278 1680 2278 1169 2202 792 
C 2067 95 1690 -26 1466 -26 
z
" transform="scale(0.015625)"/>
        <path id="CMSY10-0" d="M 4218 1472 
C 4326 1472 4442 1472 4442 1600 
C 4442 1728 4326 1728 4218 1728 
L 755 1728 
C 646 1728 531 1728 531 1600 
C 531 1472 646 1472 755 1472 
L 4218 1472 
z
" transform="scale(0.015625)"/>
        <path id="CMR17-33" d="M 1414 2157 
C 1984 2157 2234 1662 2234 1090 
C 2234 320 1824 25 1453 25 
C 1114 25 563 194 390 693 
C 422 680 454 680 486 680 
C 640 680 755 782 755 948 
C 755 1133 614 1216 486 1216 
C 378 1216 211 1165 211 926 
C 211 335 787 -128 1466 -128 
C 2176 -128 2720 430 2720 1085 
C 2720 1707 2208 2157 1600 2227 
C 2086 2328 2554 2756 2554 3329 
C 2554 3820 2048 4179 1472 4179 
C 890 4179 378 3829 378 3329 
C 378 3110 544 3072 627 3072 
C 762 3072 877 3155 877 3321 
C 877 3486 762 3569 627 3569 
C 602 3569 570 3569 544 3557 
C 730 3959 1235 4032 1459 4032 
C 1683 4032 2106 3925 2106 3320 
C 2106 3143 2080 2828 1862 2550 
C 1670 2304 1453 2304 1242 2284 
C 1210 2284 1062 2269 1037 2269 
C 992 2263 966 2257 966 2208 
C 966 2163 973 2157 1101 2157 
L 1414 2157 
z
" transform="scale(0.015625)"/>
       </defs>
       <use xlink:href="#CMR17-31" transform="scale(0.996264)"/>
       <use xlink:href="#CMR17-30" transform="translate(45.690477 0) scale(0.996264)"/>
       <use xlink:href="#CMSY10-0" transform="translate(91.380954 36.153639) scale(0.697382)"/>
       <use xlink:href="#CMR17-33" transform="translate(145.621947 36.153639) scale(0.697382)"/>
      </g>
     </g>
    </g>
    <g id="xtick_2">
     <g id="line2d_4">
      <path d="M 73.189585 112.7475 
L 73.189585 3.6 
" clip-path="url(#pa1095c2780)" style="fill: none; stroke-dasharray: 1.85,0.8; stroke-dashoffset: 0; stroke: #000000; stroke-opacity: 0.5; stroke-width: 0.5"/>
     </g>
     <g id="line2d_5">
      <g>
       <use xlink:href="#m7c03d6dda1" x="73.189585" y="112.7475" style="stroke: #000000; stroke-width: 0.5"/>
      </g>
     </g>
     <g id="line2d_6">
      <g>
       <use xlink:href="#m764710394e" x="73.189585" y="3.6" style="stroke: #000000; stroke-width: 0.5"/>
      </g>
     </g>
     <g id="text_2">
      <!-- $\mathdefault{10^{-2}}$ -->
      <g transform="translate(63.109299 123.165998) scale(0.1 -0.1)">
       <defs>
        <path id="CMR17-32" d="M 2669 989 
L 2554 989 
C 2490 536 2438 459 2413 420 
C 2381 369 1920 369 1830 369 
L 602 369 
C 832 619 1280 1072 1824 1597 
C 2214 1967 2669 2402 2669 3035 
C 2669 3790 2067 4224 1395 4224 
C 691 4224 262 3604 262 3030 
C 262 2780 448 2748 525 2748 
C 589 2748 781 2787 781 3010 
C 781 3207 614 3264 525 3264 
C 486 3264 448 3258 422 3245 
C 544 3790 915 4058 1306 4058 
C 1862 4058 2227 3617 2227 3035 
C 2227 2479 1901 2000 1536 1584 
L 262 146 
L 262 0 
L 2515 0 
L 2669 989 
z
" transform="scale(0.015625)"/>
       </defs>
       <use xlink:href="#CMR17-31" transform="scale(0.996264)"/>
       <use xlink:href="#CMR17-30" transform="translate(45.690477 0) scale(0.996264)"/>
       <use xlink:href="#CMSY10-0" transform="translate(91.380954 36.153639) scale(0.697382)"/>
       <use xlink:href="#CMR17-32" transform="translate(145.621947 36.153639) scale(0.697382)"/>
      </g>
     </g>
    </g>
    <g id="xtick_3">
     <g id="line2d_7">
      <path d="M 107.245381 112.7475 
L 107.245381 3.6 
" clip-path="url(#pa1095c2780)" style="fill: none; stroke-dasharray: 1.85,0.8; stroke-dashoffset: 0; stroke: #000000; stroke-opacity: 0.5; stroke-width: 0.5"/>
     </g>
     <g id="line2d_8">
      <g>
       <use xlink:href="#m7c03d6dda1" x="107.245381" y="112.7475" style="stroke: #000000; stroke-width: 0.5"/>
      </g>
     </g>
     <g id="line2d_9">
      <g>
       <use xlink:href="#m764710394e" x="107.245381" y="3.6" style="stroke: #000000; stroke-width: 0.5"/>
      </g>
     </g>
     <g id="text_3">
      <!-- $\mathdefault{10^{-1}}$ -->
      <g transform="translate(97.165095 123.165998) scale(0.1 -0.1)">
       <use xlink:href="#CMR17-31" transform="scale(0.996264)"/>
       <use xlink:href="#CMR17-30" transform="translate(45.690477 0) scale(0.996264)"/>
       <use xlink:href="#CMSY10-0" transform="translate(91.380954 36.153639) scale(0.697382)"/>
       <use xlink:href="#CMR17-31" transform="translate(145.621947 36.153639) scale(0.697382)"/>
      </g>
     </g>
    </g>
    <g id="xtick_4">
     <g id="line2d_10">
      <path d="M 141.301177 112.7475 
L 141.301177 3.6 
" clip-path="url(#pa1095c2780)" style="fill: none; stroke-dasharray: 1.85,0.8; stroke-dashoffset: 0; stroke: #000000; stroke-opacity: 0.5; stroke-width: 0.5"/>
     </g>
     <g id="line2d_11">
      <g>
       <use xlink:href="#m7c03d6dda1" x="141.301177" y="112.7475" style="stroke: #000000; stroke-width: 0.5"/>
      </g>
     </g>
     <g id="line2d_12">
      <g>
       <use xlink:href="#m764710394e" x="141.301177" y="3.6" style="stroke: #000000; stroke-width: 0.5"/>
      </g>
     </g>
     <g id="text_4">
      <!-- $\mathdefault{10^{0}}$ -->
      <g transform="translate(134.334223 123.165998) scale(0.1 -0.1)">
       <use xlink:href="#CMR17-31" transform="scale(0.996264)"/>
       <use xlink:href="#CMR17-30" transform="translate(45.690477 0) scale(0.996264)"/>
       <use xlink:href="#CMR17-30" transform="translate(91.380954 36.153639) scale(0.697382)"/>
      </g>
     </g>
    </g>
    <g id="xtick_5">
     <g id="line2d_13">
      <path d="M 175.356973 112.7475 
L 175.356973 3.6 
" clip-path="url(#pa1095c2780)" style="fill: none; stroke-dasharray: 1.85,0.8; stroke-dashoffset: 0; stroke: #000000; stroke-opacity: 0.5; stroke-width: 0.5"/>
     </g>
     <g id="line2d_14">
      <g>
       <use xlink:href="#m7c03d6dda1" x="175.356973" y="112.7475" style="stroke: #000000; stroke-width: 0.5"/>
      </g>
     </g>
     <g id="line2d_15">
      <g>
       <use xlink:href="#m764710394e" x="175.356973" y="3.6" style="stroke: #000000; stroke-width: 0.5"/>
      </g>
     </g>
     <g id="text_5">
      <!-- $\mathdefault{10^{1}}$ -->
      <g transform="translate(168.390019 123.165998) scale(0.1 -0.1)">
       <use xlink:href="#CMR17-31" transform="scale(0.996264)"/>
       <use xlink:href="#CMR17-30" transform="translate(45.690477 0) scale(0.996264)"/>
       <use xlink:href="#CMR17-31" transform="translate(91.380954 36.153639) scale(0.697382)"/>
      </g>
     </g>
    </g>
    <g id="xtick_6">
     <g id="line2d_16">
      <defs>
       <path id="mbcee4c52a9" d="M 0 0 
L 0 -1.5 
" style="stroke: #000000; stroke-width: 0.5"/>
      </defs>
      <g>
       <use xlink:href="#mbcee4c52a9" x="49.385605" y="112.7475" style="stroke: #000000; stroke-width: 0.5"/>
      </g>
     </g>
     <g id="line2d_17">
      <defs>
       <path id="macca76f7e9" d="M 0 0 
L 0 1.5 
" style="stroke: #000000; stroke-width: 0.5"/>
      </defs>
      <g>
       <use xlink:href="#macca76f7e9" x="49.385605" y="3.6" style="stroke: #000000; stroke-width: 0.5"/>
      </g>
     </g>
    </g>
    <g id="xtick_7">
     <g id="line2d_18">
      <g>
       <use xlink:href="#mbcee4c52a9" x="55.382533" y="112.7475" style="stroke: #000000; stroke-width: 0.5"/>
      </g>
     </g>
     <g id="line2d_19">
      <g>
       <use xlink:href="#macca76f7e9" x="55.382533" y="3.6" style="stroke: #000000; stroke-width: 0.5"/>
      </g>
     </g>
    </g>
    <g id="xtick_8">
     <g id="line2d_20">
      <g>
       <use xlink:href="#mbcee4c52a9" x="59.637422" y="112.7475" style="stroke: #000000; stroke-width: 0.5"/>
      </g>
     </g>
     <g id="line2d_21">
      <g>
       <use xlink:href="#macca76f7e9" x="59.637422" y="3.6" style="stroke: #000000; stroke-width: 0.5"/>
      </g>
     </g>
    </g>
    <g id="xtick_9">
     <g id="line2d_22">
      <g>
       <use xlink:href="#mbcee4c52a9" x="62.937769" y="112.7475" style="stroke: #000000; stroke-width: 0.5"/>
      </g>
     </g>
     <g id="line2d_23">
      <g>
       <use xlink:href="#macca76f7e9" x="62.937769" y="3.6" style="stroke: #000000; stroke-width: 0.5"/>
      </g>
     </g>
    </g>
    <g id="xtick_10">
     <g id="line2d_24">
      <g>
       <use xlink:href="#mbcee4c52a9" x="65.63435" y="112.7475" style="stroke: #000000; stroke-width: 0.5"/>
      </g>
     </g>
     <g id="line2d_25">
      <g>
       <use xlink:href="#macca76f7e9" x="65.63435" y="3.6" style="stroke: #000000; stroke-width: 0.5"/>
      </g>
     </g>
    </g>
    <g id="xtick_11">
     <g id="line2d_26">
      <g>
       <use xlink:href="#mbcee4c52a9" x="67.914276" y="112.7475" style="stroke: #000000; stroke-width: 0.5"/>
      </g>
     </g>
     <g id="line2d_27">
      <g>
       <use xlink:href="#macca76f7e9" x="67.914276" y="3.6" style="stroke: #000000; stroke-width: 0.5"/>
      </g>
     </g>
    </g>
    <g id="xtick_12">
     <g id="line2d_28">
      <g>
       <use xlink:href="#mbcee4c52a9" x="69.889238" y="112.7475" style="stroke: #000000; stroke-width: 0.5"/>
      </g>
     </g>
     <g id="line2d_29">
      <g>
       <use xlink:href="#macca76f7e9" x="69.889238" y="3.6" style="stroke: #000000; stroke-width: 0.5"/>
      </g>
     </g>
    </g>
    <g id="xtick_13">
     <g id="line2d_30">
      <g>
       <use xlink:href="#mbcee4c52a9" x="71.631278" y="112.7475" style="stroke: #000000; stroke-width: 0.5"/>
      </g>
     </g>
     <g id="line2d_31">
      <g>
       <use xlink:href="#macca76f7e9" x="71.631278" y="3.6" style="stroke: #000000; stroke-width: 0.5"/>
      </g>
     </g>
    </g>
    <g id="xtick_14">
     <g id="line2d_32">
      <g>
       <use xlink:href="#mbcee4c52a9" x="83.441401" y="112.7475" style="stroke: #000000; stroke-width: 0.5"/>
      </g>
     </g>
     <g id="line2d_33">
      <g>
       <use xlink:href="#macca76f7e9" x="83.441401" y="3.6" style="stroke: #000000; stroke-width: 0.5"/>
      </g>
     </g>
    </g>
    <g id="xtick_15">
     <g id="line2d_34">
      <g>
       <use xlink:href="#mbcee4c52a9" x="89.438329" y="112.7475" style="stroke: #000000; stroke-width: 0.5"/>
      </g>
     </g>
     <g id="line2d_35">
      <g>
       <use xlink:href="#macca76f7e9" x="89.438329" y="3.6" style="stroke: #000000; stroke-width: 0.5"/>
      </g>
     </g>
    </g>
    <g id="xtick_16">
     <g id="line2d_36">
      <g>
       <use xlink:href="#mbcee4c52a9" x="93.693218" y="112.7475" style="stroke: #000000; stroke-width: 0.5"/>
      </g>
     </g>
     <g id="line2d_37">
      <g>
       <use xlink:href="#macca76f7e9" x="93.693218" y="3.6" style="stroke: #000000; stroke-width: 0.5"/>
      </g>
     </g>
    </g>
    <g id="xtick_17">
     <g id="line2d_38">
      <g>
       <use xlink:href="#mbcee4c52a9" x="96.993565" y="112.7475" style="stroke: #000000; stroke-width: 0.5"/>
      </g>
     </g>
     <g id="line2d_39">
      <g>
       <use xlink:href="#macca76f7e9" x="96.993565" y="3.6" style="stroke: #000000; stroke-width: 0.5"/>
      </g>
     </g>
    </g>
    <g id="xtick_18">
     <g id="line2d_40">
      <g>
       <use xlink:href="#mbcee4c52a9" x="99.690145" y="112.7475" style="stroke: #000000; stroke-width: 0.5"/>
      </g>
     </g>
     <g id="line2d_41">
      <g>
       <use xlink:href="#macca76f7e9" x="99.690145" y="3.6" style="stroke: #000000; stroke-width: 0.5"/>
      </g>
     </g>
    </g>
    <g id="xtick_19">
     <g id="line2d_42">
      <g>
       <use xlink:href="#mbcee4c52a9" x="101.970072" y="112.7475" style="stroke: #000000; stroke-width: 0.5"/>
      </g>
     </g>
     <g id="line2d_43">
      <g>
       <use xlink:href="#macca76f7e9" x="101.970072" y="3.6" style="stroke: #000000; stroke-width: 0.5"/>
      </g>
     </g>
    </g>
    <g id="xtick_20">
     <g id="line2d_44">
      <g>
       <use xlink:href="#mbcee4c52a9" x="103.945034" y="112.7475" style="stroke: #000000; stroke-width: 0.5"/>
      </g>
     </g>
     <g id="line2d_45">
      <g>
       <use xlink:href="#macca76f7e9" x="103.945034" y="3.6" style="stroke: #000000; stroke-width: 0.5"/>
      </g>
     </g>
    </g>
    <g id="xtick_21">
     <g id="line2d_46">
      <g>
       <use xlink:href="#mbcee4c52a9" x="105.687073" y="112.7475" style="stroke: #000000; stroke-width: 0.5"/>
      </g>
     </g>
     <g id="line2d_47">
      <g>
       <use xlink:href="#macca76f7e9" x="105.687073" y="3.6" style="stroke: #000000; stroke-width: 0.5"/>
      </g>
     </g>
    </g>
    <g id="xtick_22">
     <g id="line2d_48">
      <g>
       <use xlink:href="#mbcee4c52a9" x="117.497197" y="112.7475" style="stroke: #000000; stroke-width: 0.5"/>
      </g>
     </g>
     <g id="line2d_49">
      <g>
       <use xlink:href="#macca76f7e9" x="117.497197" y="3.6" style="stroke: #000000; stroke-width: 0.5"/>
      </g>
     </g>
    </g>
    <g id="xtick_23">
     <g id="line2d_50">
      <g>
       <use xlink:href="#mbcee4c52a9" x="123.494125" y="112.7475" style="stroke: #000000; stroke-width: 0.5"/>
      </g>
     </g>
     <g id="line2d_51">
      <g>
       <use xlink:href="#macca76f7e9" x="123.494125" y="3.6" style="stroke: #000000; stroke-width: 0.5"/>
      </g>
     </g>
    </g>
    <g id="xtick_24">
     <g id="line2d_52">
      <g>
       <use xlink:href="#mbcee4c52a9" x="127.749013" y="112.7475" style="stroke: #000000; stroke-width: 0.5"/>
      </g>
     </g>
     <g id="line2d_53">
      <g>
       <use xlink:href="#macca76f7e9" x="127.749013" y="3.6" style="stroke: #000000; stroke-width: 0.5"/>
      </g>
     </g>
    </g>
    <g id="xtick_25">
     <g id="line2d_54">
      <g>
       <use xlink:href="#mbcee4c52a9" x="131.049361" y="112.7475" style="stroke: #000000; stroke-width: 0.5"/>
      </g>
     </g>
     <g id="line2d_55">
      <g>
       <use xlink:href="#macca76f7e9" x="131.049361" y="3.6" style="stroke: #000000; stroke-width: 0.5"/>
      </g>
     </g>
    </g>
    <g id="xtick_26">
     <g id="line2d_56">
      <g>
       <use xlink:href="#mbcee4c52a9" x="133.745941" y="112.7475" style="stroke: #000000; stroke-width: 0.5"/>
      </g>
     </g>
     <g id="line2d_57">
      <g>
       <use xlink:href="#macca76f7e9" x="133.745941" y="3.6" style="stroke: #000000; stroke-width: 0.5"/>
      </g>
     </g>
    </g>
    <g id="xtick_27">
     <g id="line2d_58">
      <g>
       <use xlink:href="#mbcee4c52a9" x="136.025868" y="112.7475" style="stroke: #000000; stroke-width: 0.5"/>
      </g>
     </g>
     <g id="line2d_59">
      <g>
       <use xlink:href="#macca76f7e9" x="136.025868" y="3.6" style="stroke: #000000; stroke-width: 0.5"/>
      </g>
     </g>
    </g>
    <g id="xtick_28">
     <g id="line2d_60">
      <g>
       <use xlink:href="#mbcee4c52a9" x="138.00083" y="112.7475" style="stroke: #000000; stroke-width: 0.5"/>
      </g>
     </g>
     <g id="line2d_61">
      <g>
       <use xlink:href="#macca76f7e9" x="138.00083" y="3.6" style="stroke: #000000; stroke-width: 0.5"/>
      </g>
     </g>
    </g>
    <g id="xtick_29">
     <g id="line2d_62">
      <g>
       <use xlink:href="#mbcee4c52a9" x="139.742869" y="112.7475" style="stroke: #000000; stroke-width: 0.5"/>
      </g>
     </g>
     <g id="line2d_63">
      <g>
       <use xlink:href="#macca76f7e9" x="139.742869" y="3.6" style="stroke: #000000; stroke-width: 0.5"/>
      </g>
     </g>
    </g>
    <g id="xtick_30">
     <g id="line2d_64">
      <g>
       <use xlink:href="#mbcee4c52a9" x="151.552993" y="112.7475" style="stroke: #000000; stroke-width: 0.5"/>
      </g>
     </g>
     <g id="line2d_65">
      <g>
       <use xlink:href="#macca76f7e9" x="151.552993" y="3.6" style="stroke: #000000; stroke-width: 0.5"/>
      </g>
     </g>
    </g>
    <g id="xtick_31">
     <g id="line2d_66">
      <g>
       <use xlink:href="#mbcee4c52a9" x="157.549921" y="112.7475" style="stroke: #000000; stroke-width: 0.5"/>
      </g>
     </g>
     <g id="line2d_67">
      <g>
       <use xlink:href="#macca76f7e9" x="157.549921" y="3.6" style="stroke: #000000; stroke-width: 0.5"/>
      </g>
     </g>
    </g>
    <g id="xtick_32">
     <g id="line2d_68">
      <g>
       <use xlink:href="#mbcee4c52a9" x="161.804809" y="112.7475" style="stroke: #000000; stroke-width: 0.5"/>
      </g>
     </g>
     <g id="line2d_69">
      <g>
       <use xlink:href="#macca76f7e9" x="161.804809" y="3.6" style="stroke: #000000; stroke-width: 0.5"/>
      </g>
     </g>
    </g>
    <g id="xtick_33">
     <g id="line2d_70">
      <g>
       <use xlink:href="#mbcee4c52a9" x="165.105157" y="112.7475" style="stroke: #000000; stroke-width: 0.5"/>
      </g>
     </g>
     <g id="line2d_71">
      <g>
       <use xlink:href="#macca76f7e9" x="165.105157" y="3.6" style="stroke: #000000; stroke-width: 0.5"/>
      </g>
     </g>
    </g>
    <g id="xtick_34">
     <g id="line2d_72">
      <g>
       <use xlink:href="#mbcee4c52a9" x="167.801737" y="112.7475" style="stroke: #000000; stroke-width: 0.5"/>
      </g>
     </g>
     <g id="line2d_73">
      <g>
       <use xlink:href="#macca76f7e9" x="167.801737" y="3.6" style="stroke: #000000; stroke-width: 0.5"/>
      </g>
     </g>
    </g>
    <g id="xtick_35">
     <g id="line2d_74">
      <g>
       <use xlink:href="#mbcee4c52a9" x="170.081664" y="112.7475" style="stroke: #000000; stroke-width: 0.5"/>
      </g>
     </g>
     <g id="line2d_75">
      <g>
       <use xlink:href="#macca76f7e9" x="170.081664" y="3.6" style="stroke: #000000; stroke-width: 0.5"/>
      </g>
     </g>
    </g>
    <g id="xtick_36">
     <g id="line2d_76">
      <g>
       <use xlink:href="#mbcee4c52a9" x="172.056626" y="112.7475" style="stroke: #000000; stroke-width: 0.5"/>
      </g>
     </g>
     <g id="line2d_77">
      <g>
       <use xlink:href="#macca76f7e9" x="172.056626" y="3.6" style="stroke: #000000; stroke-width: 0.5"/>
      </g>
     </g>
    </g>
    <g id="xtick_37">
     <g id="line2d_78">
      <g>
       <use xlink:href="#mbcee4c52a9" x="173.798665" y="112.7475" style="stroke: #000000; stroke-width: 0.5"/>
      </g>
     </g>
     <g id="line2d_79">
      <g>
       <use xlink:href="#macca76f7e9" x="173.798665" y="3.6" style="stroke: #000000; stroke-width: 0.5"/>
      </g>
     </g>
    </g>
    <g id="xtick_38">
     <g id="line2d_80">
      <g>
       <use xlink:href="#mbcee4c52a9" x="185.608789" y="112.7475" style="stroke: #000000; stroke-width: 0.5"/>
      </g>
     </g>
     <g id="line2d_81">
      <g>
       <use xlink:href="#macca76f7e9" x="185.608789" y="3.6" style="stroke: #000000; stroke-width: 0.5"/>
      </g>
     </g>
    </g>
    <g id="text_6">
     <!-- $\nu$ -->
     <g transform="translate(109.910607 136.021675) scale(0.1 -0.1)">
      <defs>
       <path id="CMMI12-17" d="M 1408 2753 
C 1408 2778 1389 2816 1338 2816 
C 1293 2816 691 2751 595 2751 
C 525 2744 461 2738 461 2623 
C 461 2560 512 2560 602 2560 
C 902 2560 922 2515 922 2445 
C 922 2419 909 2343 902 2318 
L 339 64 
C 339 38 358 0 403 0 
L 538 0 
C 627 0 1600 230 2349 996 
C 3174 1846 3290 2632 3290 2657 
C 3290 2759 3206 2816 3123 2816 
C 2938 2816 2893 2644 2880 2599 
C 2502 1264 1626 473 774 192 
L 1408 2753 
z
" transform="scale(0.015625)"/>
      </defs>
      <use xlink:href="#CMMI12-17" transform="scale(0.996264)"/>
     </g>
    </g>
   </g>
   <g id="matplotlib.axis_2">
    <g id="ytick_1">
     <g id="line2d_82">
      <path d="M 39.133789 101.200761 
L 185.608789 101.200761 
" clip-path="url(#pa1095c2780)" style="fill: none; stroke-dasharray: 1.85,0.8; stroke-dashoffset: 0; stroke: #000000; stroke-opacity: 0.5; stroke-width: 0.5"/>
     </g>
     <g id="line2d_83">
      <defs>
       <path id="m36e4ef9487" d="M 0 0 
L 3 0 
" style="stroke: #000000; stroke-width: 0.5"/>
      </defs>
      <g>
       <use xlink:href="#m36e4ef9487" x="39.133789" y="101.200761" style="stroke: #000000; stroke-width: 0.5"/>
      </g>
     </g>
     <g id="line2d_84">
      <defs>
       <path id="mcef7d4eedc" d="M 0 0 
L -3 0 
" style="stroke: #000000; stroke-width: 0.5"/>
      </defs>
      <g>
       <use xlink:href="#mcef7d4eedc" x="185.608789" y="101.200761" style="stroke: #000000; stroke-width: 0.5"/>
      </g>
     </g>
     <g id="text_7">
      <!-- $\mathdefault{−15}$ -->
      <g transform="translate(17.922375 104.66001) scale(0.1 -0.1)">
       <defs>
        <path id="CMR17-35" d="M 730 3692 
C 794 3666 1056 3584 1325 3584 
C 1920 3584 2246 3911 2432 4100 
C 2432 4157 2432 4192 2394 4192 
C 2387 4192 2374 4192 2323 4163 
C 2099 4058 1837 3973 1517 3973 
C 1325 3973 1037 3999 723 4139 
C 653 4171 640 4171 634 4171 
C 602 4171 595 4164 595 4037 
L 595 2203 
C 595 2089 595 2057 659 2057 
C 691 2057 704 2070 736 2114 
C 941 2401 1222 2522 1542 2522 
C 1766 2522 2246 2382 2246 1289 
C 2246 1085 2246 715 2054 421 
C 1894 159 1645 25 1370 25 
C 947 25 518 320 403 814 
C 429 807 480 795 506 795 
C 589 795 749 840 749 1038 
C 749 1210 627 1280 506 1280 
C 358 1280 262 1190 262 1011 
C 262 454 704 -128 1382 -128 
C 2042 -128 2669 440 2669 1264 
C 2669 2030 2170 2624 1549 2624 
C 1222 2624 947 2503 730 2274 
L 730 3692 
z
" transform="scale(0.015625)"/>
       </defs>
       <use xlink:href="#CMSY10-0" transform="scale(0.996264)"/>
       <use xlink:href="#CMR17-31" transform="translate(77.487468 0) scale(0.996264)"/>
       <use xlink:href="#CMR17-35" transform="translate(123.177945 0) scale(0.996264)"/>
      </g>
     </g>
    </g>
    <g id="ytick_2">
     <g id="line2d_85">
      <path d="M 39.133789 70.416053 
L 185.608789 70.416053 
" clip-path="url(#pa1095c2780)" style="fill: none; stroke-dasharray: 1.85,0.8; stroke-dashoffset: 0; stroke: #000000; stroke-opacity: 0.5; stroke-width: 0.5"/>
     </g>
     <g id="line2d_86">
      <g>
       <use xlink:href="#m36e4ef9487" x="39.133789" y="70.416053" style="stroke: #000000; stroke-width: 0.5"/>
      </g>
     </g>
     <g id="line2d_87">
      <g>
       <use xlink:href="#mcef7d4eedc" x="185.608789" y="70.416053" style="stroke: #000000; stroke-width: 0.5"/>
      </g>
     </g>
     <g id="text_8">
      <!-- $\mathdefault{−10}$ -->
      <g transform="translate(17.922375 73.875302) scale(0.1 -0.1)">
       <use xlink:href="#CMSY10-0" transform="scale(0.996264)"/>
       <use xlink:href="#CMR17-31" transform="translate(77.487468 0) scale(0.996264)"/>
       <use xlink:href="#CMR17-30" transform="translate(123.177945 0) scale(0.996264)"/>
      </g>
     </g>
    </g>
    <g id="ytick_3">
     <g id="line2d_88">
      <path d="M 39.133789 39.631344 
L 185.608789 39.631344 
" clip-path="url(#pa1095c2780)" style="fill: none; stroke-dasharray: 1.85,0.8; stroke-dashoffset: 0; stroke: #000000; stroke-opacity: 0.5; stroke-width: 0.5"/>
     </g>
     <g id="line2d_89">
      <g>
       <use xlink:href="#m36e4ef9487" x="39.133789" y="39.631344" style="stroke: #000000; stroke-width: 0.5"/>
      </g>
     </g>
     <g id="line2d_90">
      <g>
       <use xlink:href="#mcef7d4eedc" x="185.608789" y="39.631344" style="stroke: #000000; stroke-width: 0.5"/>
      </g>
     </g>
     <g id="text_9">
      <!-- $\mathdefault{−5}$ -->
      <g transform="translate(22.90371 43.090594) scale(0.1 -0.1)">
       <use xlink:href="#CMSY10-0" transform="scale(0.996264)"/>
       <use xlink:href="#CMR17-35" transform="translate(77.487468 0) scale(0.996264)"/>
      </g>
     </g>
    </g>
    <g id="ytick_4">
     <g id="line2d_91">
      <path d="M 39.133789 8.846636 
L 185.608789 8.846636 
" clip-path="url(#pa1095c2780)" style="fill: none; stroke-dasharray: 1.85,0.8; stroke-dashoffset: 0; stroke: #000000; stroke-opacity: 0.5; stroke-width: 0.5"/>
     </g>
     <g id="line2d_92">
      <g>
       <use xlink:href="#m36e4ef9487" x="39.133789" y="8.846636" style="stroke: #000000; stroke-width: 0.5"/>
      </g>
     </g>
     <g id="line2d_93">
      <g>
       <use xlink:href="#mcef7d4eedc" x="185.608789" y="8.846636" style="stroke: #000000; stroke-width: 0.5"/>
      </g>
     </g>
     <g id="text_10">
      <!-- $\mathdefault{0}$ -->
      <g transform="translate(30.652454 12.305885) scale(0.1 -0.1)">
       <use xlink:href="#CMR17-30" transform="scale(0.996264)"/>
      </g>
     </g>
    </g>
    <g id="ytick_5">
     <g id="line2d_94">
      <defs>
       <path id="m8e0a2d977a" d="M 0 0 
L 1.5 0 
" style="stroke: #000000; stroke-width: 0.5"/>
      </defs>
      <g>
       <use xlink:href="#m8e0a2d977a" x="39.133789" y="107.357703" style="stroke: #000000; stroke-width: 0.5"/>
      </g>
     </g>
     <g id="line2d_95">
      <defs>
       <path id="mbb25ad3f45" d="M 0 0 
L -1.5 0 
" style="stroke: #000000; stroke-width: 0.5"/>
      </defs>
      <g>
       <use xlink:href="#mbb25ad3f45" x="185.608789" y="107.357703" style="stroke: #000000; stroke-width: 0.5"/>
      </g>
     </g>
    </g>
    <g id="ytick_6">
     <g id="line2d_96">
      <g>
       <use xlink:href="#m8e0a2d977a" x="39.133789" y="95.04382" style="stroke: #000000; stroke-width: 0.5"/>
      </g>
     </g>
     <g id="line2d_97">
      <g>
       <use xlink:href="#mbb25ad3f45" x="185.608789" y="95.04382" style="stroke: #000000; stroke-width: 0.5"/>
      </g>
     </g>
    </g>
    <g id="ytick_7">
     <g id="line2d_98">
      <g>
       <use xlink:href="#m8e0a2d977a" x="39.133789" y="88.886878" style="stroke: #000000; stroke-width: 0.5"/>
      </g>
     </g>
     <g id="line2d_99">
      <g>
       <use xlink:href="#mbb25ad3f45" x="185.608789" y="88.886878" style="stroke: #000000; stroke-width: 0.5"/>
      </g>
     </g>
    </g>
    <g id="ytick_8">
     <g id="line2d_100">
      <g>
       <use xlink:href="#m8e0a2d977a" x="39.133789" y="82.729936" style="stroke: #000000; stroke-width: 0.5"/>
      </g>
     </g>
     <g id="line2d_101">
      <g>
       <use xlink:href="#mbb25ad3f45" x="185.608789" y="82.729936" style="stroke: #000000; stroke-width: 0.5"/>
      </g>
     </g>
    </g>
    <g id="ytick_9">
     <g id="line2d_102">
      <g>
       <use xlink:href="#m8e0a2d977a" x="39.133789" y="76.572995" style="stroke: #000000; stroke-width: 0.5"/>
      </g>
     </g>
     <g id="line2d_103">
      <g>
       <use xlink:href="#mbb25ad3f45" x="185.608789" y="76.572995" style="stroke: #000000; stroke-width: 0.5"/>
      </g>
     </g>
    </g>
    <g id="ytick_10">
     <g id="line2d_104">
      <g>
       <use xlink:href="#m8e0a2d977a" x="39.133789" y="64.259111" style="stroke: #000000; stroke-width: 0.5"/>
      </g>
     </g>
     <g id="line2d_105">
      <g>
       <use xlink:href="#mbb25ad3f45" x="185.608789" y="64.259111" style="stroke: #000000; stroke-width: 0.5"/>
      </g>
     </g>
    </g>
    <g id="ytick_11">
     <g id="line2d_106">
      <g>
       <use xlink:href="#m8e0a2d977a" x="39.133789" y="58.102169" style="stroke: #000000; stroke-width: 0.5"/>
      </g>
     </g>
     <g id="line2d_107">
      <g>
       <use xlink:href="#mbb25ad3f45" x="185.608789" y="58.102169" style="stroke: #000000; stroke-width: 0.5"/>
      </g>
     </g>
    </g>
    <g id="ytick_12">
     <g id="line2d_108">
      <g>
       <use xlink:href="#m8e0a2d977a" x="39.133789" y="51.945228" style="stroke: #000000; stroke-width: 0.5"/>
      </g>
     </g>
     <g id="line2d_109">
      <g>
       <use xlink:href="#mbb25ad3f45" x="185.608789" y="51.945228" style="stroke: #000000; stroke-width: 0.5"/>
      </g>
     </g>
    </g>
    <g id="ytick_13">
     <g id="line2d_110">
      <g>
       <use xlink:href="#m8e0a2d977a" x="39.133789" y="45.788286" style="stroke: #000000; stroke-width: 0.5"/>
      </g>
     </g>
     <g id="line2d_111">
      <g>
       <use xlink:href="#mbb25ad3f45" x="185.608789" y="45.788286" style="stroke: #000000; stroke-width: 0.5"/>
      </g>
     </g>
    </g>
    <g id="ytick_14">
     <g id="line2d_112">
      <g>
       <use xlink:href="#m8e0a2d977a" x="39.133789" y="33.474403" style="stroke: #000000; stroke-width: 0.5"/>
      </g>
     </g>
     <g id="line2d_113">
      <g>
       <use xlink:href="#mbb25ad3f45" x="185.608789" y="33.474403" style="stroke: #000000; stroke-width: 0.5"/>
      </g>
     </g>
    </g>
    <g id="ytick_15">
     <g id="line2d_114">
      <g>
       <use xlink:href="#m8e0a2d977a" x="39.133789" y="27.317461" style="stroke: #000000; stroke-width: 0.5"/>
      </g>
     </g>
     <g id="line2d_115">
      <g>
       <use xlink:href="#mbb25ad3f45" x="185.608789" y="27.317461" style="stroke: #000000; stroke-width: 0.5"/>
      </g>
     </g>
    </g>
    <g id="ytick_16">
     <g id="line2d_116">
      <g>
       <use xlink:href="#m8e0a2d977a" x="39.133789" y="21.160519" style="stroke: #000000; stroke-width: 0.5"/>
      </g>
     </g>
     <g id="line2d_117">
      <g>
       <use xlink:href="#mbb25ad3f45" x="185.608789" y="21.160519" style="stroke: #000000; stroke-width: 0.5"/>
      </g>
     </g>
    </g>
    <g id="ytick_17">
     <g id="line2d_118">
      <g>
       <use xlink:href="#m8e0a2d977a" x="39.133789" y="15.003578" style="stroke: #000000; stroke-width: 0.5"/>
      </g>
     </g>
     <g id="line2d_119">
      <g>
       <use xlink:href="#mbb25ad3f45" x="185.608789" y="15.003578" style="stroke: #000000; stroke-width: 0.5"/>
      </g>
     </g>
    </g>
    <g id="text_11">
     <!-- $\mathcal{G}_\phi(\nu)$ [dB] -->
     <g transform="translate(11.07198 81.157066) rotate(-90) scale(0.1 -0.1)">
      <defs>
       <path id="CMSY10-47" d="M 2790 1063 
C 2618 480 2451 179 2387 74 
C 2138 -371 2003 -384 1786 -384 
C 1677 -384 1222 -384 845 -114 
C 557 -114 333 -343 333 -416 
C 333 -474 768 -743 1363 -743 
C 1824 -743 2579 -497 3059 552 
C 3226 913 3334 1280 3354 1357 
C 3482 1801 3616 2316 3616 2343 
C 3616 2381 3603 2401 3546 2401 
C 3488 2401 3379 2369 3245 2279 
C 3098 2184 3091 2152 3046 1993 
C 2982 1775 2605 832 1811 832 
C 1190 832 826 1336 826 2056 
C 826 2547 1024 3204 1395 3650 
C 1568 3854 1882 4192 2605 4192 
C 2726 4192 2912 4173 3072 4122 
C 3142 4102 3302 4052 3302 3847 
C 3302 3631 2970 3222 2944 3185 
C 2918 3159 2899 3134 2899 3108 
C 2899 3063 2931 3063 2970 3063 
C 3155 3063 3366 3236 3539 3472 
C 3590 3542 3846 3900 3846 4116 
C 3846 4378 3648 4442 3571 4467 
C 3334 4544 3117 4544 3027 4544 
C 1581 4544 282 3281 282 1782 
C 282 1137 570 480 1395 480 
C 1875 480 2368 723 2790 1063 
z
" transform="scale(0.015625)"/>
       <path id="CMMI12-1e" d="M 2752 4390 
C 2752 4448 2707 4448 2688 4448 
C 2630 4448 2624 4435 2598 4326 
L 2253 2939 
C 2234 2856 2227 2849 2221 2843 
C 2214 2830 2170 2824 2157 2824 
C 1107 2734 301 1864 301 1057 
C 301 361 832 -64 1498 -64 
C 1446 -261 1402 -463 1350 -659 
C 1261 -995 1210 -1204 1210 -1229 
C 1210 -1241 1210 -1280 1274 -1280 
C 1293 -1280 1318 -1280 1331 -1254 
C 1344 -1241 1382 -1089 1408 -1008 
L 1645 -64 
C 2739 -64 3571 854 3571 1680 
C 3571 2343 3085 2816 2374 2816 
L 2752 4390 
z
M 2336 2701 
C 2758 2701 3181 2463 3181 1828 
C 3181 1097 2675 128 1677 50 
L 2336 2701 
z
M 1530 50 
C 1216 50 691 220 691 938 
C 691 1761 1274 2676 2195 2676 
L 1530 50 
z
" transform="scale(0.015625)"/>
       <path id="CMR17-28" d="M 1958 -1561 
C 1958 -1555 1958 -1542 1939 -1523 
C 1645 -1224 858 -407 858 1581 
C 858 3569 1632 4379 1946 4697 
C 1946 4704 1958 4717 1958 4736 
C 1958 4755 1939 4768 1914 4768 
C 1843 4768 1299 4296 986 3594 
C 666 2887 576 2199 576 1588 
C 576 1128 621 351 1005 -471 
C 1312 -1135 1837 -1600 1914 -1600 
C 1946 -1600 1958 -1587 1958 -1561 
z
" transform="scale(0.015625)"/>
       <path id="CMR17-29" d="M 1683 1581 
C 1683 2040 1638 2817 1254 3639 
C 947 4303 422 4768 346 4768 
C 326 4768 301 4761 301 4729 
C 301 4717 307 4710 314 4697 
C 621 4378 1402 3568 1402 1584 
C 1402 -407 627 -1217 314 -1537 
C 307 -1549 301 -1556 301 -1568 
C 301 -1600 326 -1600 346 -1600 
C 416 -1600 960 -1128 1274 -426 
C 1594 281 1683 969 1683 1581 
z
" transform="scale(0.015625)"/>
       <path id="CMR17-5b" d="M 1504 -1600 
L 1504 -1377 
L 902 -1377 
L 902 4544 
L 1504 4544 
L 1504 4767 
L 678 4767 
L 678 -1600 
L 1504 -1600 
z
" transform="scale(0.015625)"/>
       <path id="CMR17-64" d="M 1869 4326 
L 1869 4160 
C 2246 4160 2304 4122 2304 3820 
L 2304 2345 
C 2278 2377 2016 2790 1498 2790 
C 845 2790 211 2208 211 1364 
C 211 525 806 -64 1434 -64 
C 1978 -64 2259 337 2291 380 
L 2291 -63 
L 3066 -63 
L 3066 128 
C 2688 128 2630 166 2630 473 
L 2630 4396 
L 1869 4326 
z
M 2291 755 
C 2291 563 2176 390 2029 262 
C 1811 70 1594 38 1472 38 
C 1286 38 621 134 621 1356 
C 621 2612 1363 2688 1530 2688 
C 1824 2688 2061 2522 2208 2291 
C 2291 2157 2291 2138 2291 2023 
L 2291 755 
z
" transform="scale(0.015625)"/>
       <path id="CMR17-42" d="M 333 4352 
L 333 4186 
C 774 4186 845 4186 845 3900 
L 845 452 
C 845 166 774 166 333 166 
L 333 0 
L 2534 0 
C 3354 0 3885 583 3885 1164 
C 3885 1741 3360 2233 2675 2233 
C 3290 2356 3718 2771 3718 3264 
C 3718 3802 3194 4352 2368 4352 
L 333 4352 
z
M 1248 2304 
L 1248 3937 
C 1248 4155 1261 4186 1517 4186 
L 2336 4186 
C 2970 4186 3251 3674 3251 3277 
C 3251 2791 2861 2304 2170 2304 
L 1248 2304 
z
M 1517 166 
C 1261 166 1248 197 1248 413 
L 1248 2202 
L 2432 2202 
C 3091 2202 3411 1625 3411 1162 
C 3411 699 3046 166 2349 166 
L 1517 166 
z
" transform="scale(0.015625)"/>
       <path id="CMR17-5d" d="M 915 4767 
L 90 4767 
L 90 4544 
L 691 4544 
L 691 -1377 
L 90 -1377 
L 90 -1600 
L 915 -1600 
L 915 4767 
z
" transform="scale(0.015625)"/>
      </defs>
      <use xlink:href="#CMSY10-47" transform="scale(0.996264)"/>
      <use xlink:href="#CMMI12-1e" transform="translate(59.264331 -14.943915) scale(0.697382)"/>
      <use xlink:href="#CMR17-28" transform="translate(100.176204 0) scale(0.996264)"/>
      <use xlink:href="#CMMI12-17" transform="translate(135.456972 0) scale(0.996264)"/>
      <use xlink:href="#CMR17-29" transform="translate(189.939764 0) scale(0.996264)"/>
      <use xlink:href="#CMR17-5b" transform="translate(255.296499 0) scale(0.996264)"/>
      <use xlink:href="#CMR17-64" transform="translate(280.167557 0) scale(0.996264)"/>
      <use xlink:href="#CMR17-42" transform="translate(331.062927 0) scale(0.996264)"/>
      <use xlink:href="#CMR17-5d" transform="translate(396.251681 0) scale(0.996264)"/>
     </g>
    </g>
   </g>
   <g id="line2d_120">
    <path d="M -1 8.666496 
L 3.366978 8.642298 
L 13.618795 8.636249 
L 24.474378 8.56125 
L 34.726194 8.658557 
L 44.97801 8.763922 
L 55.229826 9.035222 
L 68.78199 9.756993 
L 71.47857 9.955272 
L 75.733458 10.402085 
L 79.033806 10.721459 
L 81.730386 10.973878 
L 85.030734 11.446788 
L 87.727314 11.819306 
L 91.352735 12.442417 
L 94.262129 12.95227 
L 97.979131 13.807675 
L 100.947099 14.639542 
L 104.247447 15.945908 
L 107.38556 17.493109 
L 110.858895 19.802305 
L 113.811221 22.350226 
L 117.307468 25.809874 
L 127.559284 38.926547 
L 139.834635 57.234141 
L 149.841978 67.853537 
L 160.093795 72.666663 
" clip-path="url(#pa1095c2780)" style="fill: none; stroke: #4477aa; stroke-linecap: square"/>
    <defs>
     <path id="m452aac6450" d="M 0 2 
C 0.530406 2 1.03916 1.789267 1.414214 1.414214 
C 1.789267 1.03916 2 0.530406 2 0 
C 2 -0.530406 1.789267 -1.03916 1.414214 -1.414214 
C 1.03916 -1.789267 0.530406 -2 0 -2 
C -0.530406 -2 -1.03916 -1.789267 -1.414214 -1.414214 
C -1.789267 -1.03916 -2 -0.530406 -2 0 
C -2 0.530406 -1.789267 1.03916 -1.414214 1.414214 
C -1.03916 1.789267 -0.530406 2 0 2 
z
" style="stroke: #4477aa"/>
    </defs>
    <g clip-path="url(#pa1095c2780)">
     <use xlink:href="#m452aac6450" x="-1" y="8.665729" style="fill: #4477aa; stroke: #4477aa"/>
     <use xlink:href="#m452aac6450" x="3.366978" y="8.642298" style="fill: #4477aa; stroke: #4477aa"/>
     <use xlink:href="#m452aac6450" x="24.474378" y="8.56125" style="fill: #4477aa; stroke: #4477aa"/>
     <use xlink:href="#m452aac6450" x="44.97801" y="8.763922" style="fill: #4477aa; stroke: #4477aa"/>
     <use xlink:href="#m452aac6450" x="68.78199" y="9.756993" style="fill: #4477aa; stroke: #4477aa"/>
     <use xlink:href="#m452aac6450" x="75.733458" y="10.402085" style="fill: #4477aa; stroke: #4477aa"/>
     <use xlink:href="#m452aac6450" x="81.730386" y="10.973878" style="fill: #4477aa; stroke: #4477aa"/>
     <use xlink:href="#m452aac6450" x="87.727314" y="11.819306" style="fill: #4477aa; stroke: #4477aa"/>
     <use xlink:href="#m452aac6450" x="94.262129" y="12.95227" style="fill: #4477aa; stroke: #4477aa"/>
     <use xlink:href="#m452aac6450" x="100.947099" y="14.639542" style="fill: #4477aa; stroke: #4477aa"/>
     <use xlink:href="#m452aac6450" x="107.38556" y="17.493109" style="fill: #4477aa; stroke: #4477aa"/>
     <use xlink:href="#m452aac6450" x="113.811221" y="22.350226" style="fill: #4477aa; stroke: #4477aa"/>
     <use xlink:href="#m452aac6450" x="127.559284" y="38.926547" style="fill: #4477aa; stroke: #4477aa"/>
     <use xlink:href="#m452aac6450" x="149.841978" y="67.853537" style="fill: #4477aa; stroke: #4477aa"/>
    </g>
   </g>
   <g id="line2d_121">
    <path d="M -1 8.846636 
L 3.366978 8.846636 
L 13.618795 8.846637 
L 24.474378 8.84664 
L 34.726194 8.846654 
L 44.97801 8.846707 
L 55.229826 8.846921 
L 68.78199 8.848414 
L 71.47857 8.849196 
L 75.733458 8.851187 
L 79.033806 8.853746 
L 81.730386 8.856873 
L 85.030734 8.862628 
L 87.727314 8.869657 
L 91.352735 8.8842 
L 94.262129 8.902264 
L 97.979131 8.938449 
L 100.947099 8.983523 
L 104.247447 9.059819 
L 107.38556 9.170941 
L 110.858895 9.361075 
L 113.811221 9.605307 
L 117.307468 10.040512 
L 127.559284 12.993331 
L 139.834635 21.446167 
L 149.841978 28.549174 
L 160.093795 31.944008 
L 170.345611 32.953835 
L 180.597427 33.214734 
" clip-path="url(#pa1095c2780)" style="fill: none; stroke-dasharray: 3.7,1.6; stroke-dashoffset: 0; stroke: #4477aa"/>
    <g clip-path="url(#pa1095c2780)">
     <use xlink:href="#m452aac6450" x="-1" y="8.846636" style="fill: #4477aa; stroke: #4477aa"/>
     <use xlink:href="#m452aac6450" x="13.618795" y="8.846637" style="fill: #4477aa; stroke: #4477aa"/>
     <use xlink:href="#m452aac6450" x="34.726194" y="8.846654" style="fill: #4477aa; stroke: #4477aa"/>
     <use xlink:href="#m452aac6450" x="55.229826" y="8.846921" style="fill: #4477aa; stroke: #4477aa"/>
     <use xlink:href="#m452aac6450" x="71.47857" y="8.849196" style="fill: #4477aa; stroke: #4477aa"/>
     <use xlink:href="#m452aac6450" x="79.033806" y="8.853746" style="fill: #4477aa; stroke: #4477aa"/>
     <use xlink:href="#m452aac6450" x="85.030734" y="8.862628" style="fill: #4477aa; stroke: #4477aa"/>
     <use xlink:href="#m452aac6450" x="91.352735" y="8.8842" style="fill: #4477aa; stroke: #4477aa"/>
     <use xlink:href="#m452aac6450" x="97.979131" y="8.938449" style="fill: #4477aa; stroke: #4477aa"/>
     <use xlink:href="#m452aac6450" x="104.247447" y="9.059819" style="fill: #4477aa; stroke: #4477aa"/>
     <use xlink:href="#m452aac6450" x="110.858895" y="9.361075" style="fill: #4477aa; stroke: #4477aa"/>
     <use xlink:href="#m452aac6450" x="117.307468" y="10.040512" style="fill: #4477aa; stroke: #4477aa"/>
     <use xlink:href="#m452aac6450" x="139.834635" y="21.446167" style="fill: #4477aa; stroke: #4477aa"/>
     <use xlink:href="#m452aac6450" x="160.093795" y="31.944008" style="fill: #4477aa; stroke: #4477aa"/>
     <use xlink:href="#m452aac6450" x="180.597427" y="33.214734" style="fill: #4477aa; stroke: #4477aa"/>
    </g>
   </g>
   <g id="line2d_122">
    <path d="M -1 8.890676 
L 3.366978 8.917466 
L 13.618795 8.971958 
L 24.474378 9.232498 
L 34.726194 9.514609 
L 44.97801 9.955683 
L 55.229826 10.55101 
L 68.78199 11.902286 
L 71.47857 12.507936 
L 75.733458 13.951818 
L 79.033806 15.685853 
L 81.730386 17.491353 
L 85.030734 20.229966 
L 87.727314 22.872025 
L 91.352735 26.945124 
L 94.262129 30.727644 
L 97.979131 36.318011 
L 100.947099 41.300817 
L 104.247447 47.133293 
L 107.38556 52.662985 
L 110.858895 58.604058 
L 113.811221 63.276171 
L 117.307468 68.484224 
L 127.559284 80.294647 
L 139.834635 88.717606 
L 149.841978 91.975204 
L 160.093795 93.183752 
" clip-path="url(#pa1095c2780)" style="fill: none; stroke: #ee6677; stroke-linecap: square"/>
    <defs>
     <path id="m8aa9c8f757" d="M -2 2 
L 2 2 
L 2 -2 
L -2 -2 
z
" style="stroke: #ee6677; stroke-linejoin: miter"/>
    </defs>
    <g clip-path="url(#pa1095c2780)">
     <use xlink:href="#m8aa9c8f757" x="-1" y="8.907564" style="fill: #ee6677; stroke: #ee6677; stroke-linejoin: miter"/>
     <use xlink:href="#m8aa9c8f757" x="3.366978" y="8.917466" style="fill: #ee6677; stroke: #ee6677; stroke-linejoin: miter"/>
     <use xlink:href="#m8aa9c8f757" x="24.474378" y="9.232498" style="fill: #ee6677; stroke: #ee6677; stroke-linejoin: miter"/>
     <use xlink:href="#m8aa9c8f757" x="44.97801" y="9.955683" style="fill: #ee6677; stroke: #ee6677; stroke-linejoin: miter"/>
     <use xlink:href="#m8aa9c8f757" x="68.78199" y="11.902286" style="fill: #ee6677; stroke: #ee6677; stroke-linejoin: miter"/>
     <use xlink:href="#m8aa9c8f757" x="75.733458" y="13.951818" style="fill: #ee6677; stroke: #ee6677; stroke-linejoin: miter"/>
     <use xlink:href="#m8aa9c8f757" x="81.730386" y="17.491353" style="fill: #ee6677; stroke: #ee6677; stroke-linejoin: miter"/>
     <use xlink:href="#m8aa9c8f757" x="87.727314" y="22.872025" style="fill: #ee6677; stroke: #ee6677; stroke-linejoin: miter"/>
     <use xlink:href="#m8aa9c8f757" x="94.262129" y="30.727644" style="fill: #ee6677; stroke: #ee6677; stroke-linejoin: miter"/>
     <use xlink:href="#m8aa9c8f757" x="100.947099" y="41.300817" style="fill: #ee6677; stroke: #ee6677; stroke-linejoin: miter"/>
     <use xlink:href="#m8aa9c8f757" x="107.38556" y="52.662985" style="fill: #ee6677; stroke: #ee6677; stroke-linejoin: miter"/>
     <use xlink:href="#m8aa9c8f757" x="113.811221" y="63.276171" style="fill: #ee6677; stroke: #ee6677; stroke-linejoin: miter"/>
     <use xlink:href="#m8aa9c8f757" x="127.559284" y="80.294647" style="fill: #ee6677; stroke: #ee6677; stroke-linejoin: miter"/>
     <use xlink:href="#m8aa9c8f757" x="149.841978" y="91.975204" style="fill: #ee6677; stroke: #ee6677; stroke-linejoin: miter"/>
    </g>
   </g>
   <g id="line2d_123">
    <path d="M -1 8.846655 
L 3.366978 8.846664 
L 13.618795 8.846747 
L 24.474378 8.847118 
L 34.726194 8.848563 
L 44.97801 8.854344 
L 55.229826 8.877452 
L 68.78199 9.038475 
L 71.47857 9.122315 
L 75.733458 9.33418 
L 79.033806 9.603368 
L 81.730386 9.927591 
L 85.030734 10.511173 
L 87.727314 11.202164 
L 91.352735 12.56111 
L 94.262129 14.130426 
L 97.979131 16.942438 
L 100.947099 19.954204 
L 104.247447 24.151376 
L 107.38556 28.901108 
L 110.858895 34.786419 
L 113.811221 40.023681 
L 117.307468 46.093247 
L 127.559284 59.395521 
L 139.834635 64.334147 
L 149.841978 64.446662 
L 160.093795 64.21327 
L 170.345611 64.117816 
L 180.597427 64.090859 
" clip-path="url(#pa1095c2780)" style="fill: none; stroke-dasharray: 3.7,1.6; stroke-dashoffset: 0; stroke: #ee6677"/>
    <g clip-path="url(#pa1095c2780)">
     <use xlink:href="#m8aa9c8f757" x="-1" y="8.846673" style="fill: #ee6677; stroke: #ee6677; stroke-linejoin: miter"/>
     <use xlink:href="#m8aa9c8f757" x="13.618795" y="8.846747" style="fill: #ee6677; stroke: #ee6677; stroke-linejoin: miter"/>
     <use xlink:href="#m8aa9c8f757" x="34.726194" y="8.848563" style="fill: #ee6677; stroke: #ee6677; stroke-linejoin: miter"/>
     <use xlink:href="#m8aa9c8f757" x="55.229826" y="8.877452" style="fill: #ee6677; stroke: #ee6677; stroke-linejoin: miter"/>
     <use xlink:href="#m8aa9c8f757" x="71.47857" y="9.122315" style="fill: #ee6677; stroke: #ee6677; stroke-linejoin: miter"/>
     <use xlink:href="#m8aa9c8f757" x="79.033806" y="9.603368" style="fill: #ee6677; stroke: #ee6677; stroke-linejoin: miter"/>
     <use xlink:href="#m8aa9c8f757" x="85.030734" y="10.511173" style="fill: #ee6677; stroke: #ee6677; stroke-linejoin: miter"/>
     <use xlink:href="#m8aa9c8f757" x="91.352735" y="12.56111" style="fill: #ee6677; stroke: #ee6677; stroke-linejoin: miter"/>
     <use xlink:href="#m8aa9c8f757" x="97.979131" y="16.942438" style="fill: #ee6677; stroke: #ee6677; stroke-linejoin: miter"/>
     <use xlink:href="#m8aa9c8f757" x="104.247447" y="24.151376" style="fill: #ee6677; stroke: #ee6677; stroke-linejoin: miter"/>
     <use xlink:href="#m8aa9c8f757" x="110.858895" y="34.786419" style="fill: #ee6677; stroke: #ee6677; stroke-linejoin: miter"/>
     <use xlink:href="#m8aa9c8f757" x="117.307468" y="46.093247" style="fill: #ee6677; stroke: #ee6677; stroke-linejoin: miter"/>
     <use xlink:href="#m8aa9c8f757" x="139.834635" y="64.334147" style="fill: #ee6677; stroke: #ee6677; stroke-linejoin: miter"/>
     <use xlink:href="#m8aa9c8f757" x="160.093795" y="64.21327" style="fill: #ee6677; stroke: #ee6677; stroke-linejoin: miter"/>
     <use xlink:href="#m8aa9c8f757" x="180.597427" y="64.090859" style="fill: #ee6677; stroke: #ee6677; stroke-linejoin: miter"/>
    </g>
   </g>
   <g id="line2d_124">
    <path d="M -1 8.954596 
L 3.366978 8.994871 
L 13.618795 9.138614 
L 24.474378 9.279031 
L 34.726194 9.321111 
L 44.97801 9.33838 
L 55.229826 9.653179 
L 68.78199 16.519197 
L 71.47857 19.354119 
L 75.733458 24.52263 
L 79.033806 29.057531 
L 81.730386 32.866063 
L 85.030734 37.825132 
L 87.727314 41.866881 
L 91.352735 47.519406 
L 94.262129 52.304895 
L 97.979131 58.870579 
L 100.947099 64.200903 
L 104.247447 70.102006 
L 107.38556 75.400949 
L 110.858895 80.779362 
L 113.811221 85.031337 
L 117.307468 89.439909 
L 127.559284 98.853086 
L 139.834635 104.954162 
L 149.841978 107.030605 
L 160.093795 107.78625 
" clip-path="url(#pa1095c2780)" style="fill: none; stroke: #228833; stroke-linecap: square"/>
    <defs>
     <path id="md12868df82" d="M 0 -2 
L -2 2 
L 2 2 
z
" style="stroke: #228833; stroke-linejoin: miter"/>
    </defs>
    <g clip-path="url(#pa1095c2780)">
     <use xlink:href="#md12868df82" x="-1" y="8.973019" style="fill: #228833; stroke: #228833; stroke-linejoin: miter"/>
     <use xlink:href="#md12868df82" x="3.366978" y="8.994871" style="fill: #228833; stroke: #228833; stroke-linejoin: miter"/>
     <use xlink:href="#md12868df82" x="24.474378" y="9.279031" style="fill: #228833; stroke: #228833; stroke-linejoin: miter"/>
     <use xlink:href="#md12868df82" x="44.97801" y="9.33838" style="fill: #228833; stroke: #228833; stroke-linejoin: miter"/>
     <use xlink:href="#md12868df82" x="68.78199" y="16.519197" style="fill: #228833; stroke: #228833; stroke-linejoin: miter"/>
     <use xlink:href="#md12868df82" x="75.733458" y="24.52263" style="fill: #228833; stroke: #228833; stroke-linejoin: miter"/>
     <use xlink:href="#md12868df82" x="81.730386" y="32.866063" style="fill: #228833; stroke: #228833; stroke-linejoin: miter"/>
     <use xlink:href="#md12868df82" x="87.727314" y="41.866881" style="fill: #228833; stroke: #228833; stroke-linejoin: miter"/>
     <use xlink:href="#md12868df82" x="94.262129" y="52.304895" style="fill: #228833; stroke: #228833; stroke-linejoin: miter"/>
     <use xlink:href="#md12868df82" x="100.947099" y="64.200903" style="fill: #228833; stroke: #228833; stroke-linejoin: miter"/>
     <use xlink:href="#md12868df82" x="107.38556" y="75.400949" style="fill: #228833; stroke: #228833; stroke-linejoin: miter"/>
     <use xlink:href="#md12868df82" x="113.811221" y="85.031337" style="fill: #228833; stroke: #228833; stroke-linejoin: miter"/>
     <use xlink:href="#md12868df82" x="127.559284" y="98.853086" style="fill: #228833; stroke: #228833; stroke-linejoin: miter"/>
     <use xlink:href="#md12868df82" x="149.841978" y="107.030605" style="fill: #228833; stroke: #228833; stroke-linejoin: miter"/>
    </g>
   </g>
   <g id="line2d_125">
    <path d="M -1 8.846725 
L 3.366978 8.846767 
L 13.618795 8.847164 
L 24.474378 8.848931 
L 34.726194 8.855816 
L 44.97801 8.883334 
L 55.229826 8.993031 
L 68.78199 9.744614 
L 71.47857 10.127364 
L 75.733458 11.069894 
L 79.033806 12.219883 
L 81.730386 13.540827 
L 85.030734 15.763747 
L 87.727314 18.178401 
L 91.352735 22.390644 
L 94.262129 26.598729 
L 97.979131 32.955635 
L 100.947099 38.651707 
L 104.247447 45.356199 
L 107.38556 51.773874 
L 110.858895 58.50873 
L 113.811221 63.618498 
L 117.307468 68.657305 
L 127.559284 76.638171 
L 139.834635 78.082435 
L 149.841978 77.767823 
L 160.093795 77.56559 
L 170.345611 77.501541 
L 180.597427 77.484512 
" clip-path="url(#pa1095c2780)" style="fill: none; stroke-dasharray: 3.7,1.6; stroke-dashoffset: 0; stroke: #228833"/>
    <g clip-path="url(#pa1095c2780)">
     <use xlink:href="#md12868df82" x="-1" y="8.84681" style="fill: #228833; stroke: #228833; stroke-linejoin: miter"/>
     <use xlink:href="#md12868df82" x="13.618795" y="8.847164" style="fill: #228833; stroke: #228833; stroke-linejoin: miter"/>
     <use xlink:href="#md12868df82" x="34.726194" y="8.855816" style="fill: #228833; stroke: #228833; stroke-linejoin: miter"/>
     <use xlink:href="#md12868df82" x="55.229826" y="8.993031" style="fill: #228833; stroke: #228833; stroke-linejoin: miter"/>
     <use xlink:href="#md12868df82" x="71.47857" y="10.127364" style="fill: #228833; stroke: #228833; stroke-linejoin: miter"/>
     <use xlink:href="#md12868df82" x="79.033806" y="12.219883" style="fill: #228833; stroke: #228833; stroke-linejoin: miter"/>
     <use xlink:href="#md12868df82" x="85.030734" y="15.763747" style="fill: #228833; stroke: #228833; stroke-linejoin: miter"/>
     <use xlink:href="#md12868df82" x="91.352735" y="22.390644" style="fill: #228833; stroke: #228833; stroke-linejoin: miter"/>
     <use xlink:href="#md12868df82" x="97.979131" y="32.955635" style="fill: #228833; stroke: #228833; stroke-linejoin: miter"/>
     <use xlink:href="#md12868df82" x="104.247447" y="45.356199" style="fill: #228833; stroke: #228833; stroke-linejoin: miter"/>
     <use xlink:href="#md12868df82" x="110.858895" y="58.50873" style="fill: #228833; stroke: #228833; stroke-linejoin: miter"/>
     <use xlink:href="#md12868df82" x="117.307468" y="68.657305" style="fill: #228833; stroke: #228833; stroke-linejoin: miter"/>
     <use xlink:href="#md12868df82" x="139.834635" y="78.082435" style="fill: #228833; stroke: #228833; stroke-linejoin: miter"/>
     <use xlink:href="#md12868df82" x="160.093795" y="77.56559" style="fill: #228833; stroke: #228833; stroke-linejoin: miter"/>
     <use xlink:href="#md12868df82" x="180.597427" y="77.484512" style="fill: #228833; stroke: #228833; stroke-linejoin: miter"/>
    </g>
   </g>
   <g id="patch_3">
    <path d="M 39.133789 112.7475 
L 39.133789 3.6 
" style="fill: none; stroke: #000000; stroke-width: 0.5; stroke-linejoin: miter; stroke-linecap: square"/>
   </g>
   <g id="patch_4">
    <path d="M 185.608789 112.7475 
L 185.608789 3.6 
" style="fill: none; stroke: #000000; stroke-width: 0.5; stroke-linejoin: miter; stroke-linecap: square"/>
   </g>
   <g id="patch_5">
    <path d="M 39.133789 112.7475 
L 185.608789 112.7475 
" style="fill: none; stroke: #000000; stroke-width: 0.5; stroke-linejoin: miter; stroke-linecap: square"/>
   </g>
   <g id="patch_6">
    <path d="M 39.133789 3.6 
L 185.608789 3.6 
" style="fill: none; stroke: #000000; stroke-width: 0.5; stroke-linejoin: miter; stroke-linecap: square"/>
   </g>
   <g id="legend_1">
    <g id="patch_7">
     <path d="M 44.964789 81.295625 
L 98.191878 81.295625 
Q 99.857878 81.295625 99.857878 79.629625 
L 99.857878 45.633617 
Q 99.857878 43.967617 98.191878 43.967617 
L 44.964789 43.967617 
Q 43.298789 43.967617 43.298789 45.633617 
L 43.298789 79.629625 
Q 43.298789 81.295625 44.964789 81.295625 
z
" style="fill: #ffffff; stroke: #cccccc; stroke-linejoin: miter"/>
    </g>
    <g id="line2d_126">
     <path d="M 46.630789 50.215117 
L 54.960789 50.215117 
L 63.290789 50.215117 
" style="fill: none; stroke: #4477aa; stroke-linecap: square"/>
     <g>
      <use xlink:href="#m452aac6450" x="54.960789" y="50.215117" style="fill: #4477aa; stroke: #4477aa"/>
     </g>
    </g>
    <g id="text_12">
     <!-- $L = 3$ -->
     <g transform="translate(69.954789 53.130617) scale(0.0833 -0.0833)">
      <defs>
       <path id="CMMI12-4c" d="M 2349 3861 
C 2406 4103 2426 4167 2989 4167 
C 3162 4167 3206 4167 3206 4288 
C 3206 4352 3136 4352 3110 4352 
C 2982 4352 2835 4352 2707 4352 
L 1850 4352 
C 1728 4352 1587 4352 1466 4352 
C 1414 4352 1344 4352 1344 4231 
C 1344 4167 1402 4167 1498 4167 
C 1888 4167 1888 4116 1888 4046 
C 1888 4034 1888 3995 1862 3899 
L 998 472 
C 941 249 928 185 480 185 
C 358 185 294 185 294 70 
C 294 0 333 0 461 0 
L 3328 0 
C 3469 0 3475 6 3520 121 
L 4013 1478 
C 4026 1510 4038 1548 4038 1567 
C 4038 1605 4006 1631 3974 1631 
C 3968 1631 3936 1631 3923 1605 
C 3910 1599 3910 1586 3859 1465 
C 3654 905 3366 185 2285 185 
L 1670 185 
C 1581 185 1568 185 1530 192 
C 1459 198 1453 211 1453 262 
C 1453 307 1466 345 1478 401 
L 2349 3861 
z
" transform="scale(0.015625)"/>
       <path id="CMR17-3d" d="M 4115 2017 
C 4211 2017 4307 2017 4307 2125 
C 4307 2240 4198 2240 4090 2240 
L 512 2240 
C 403 2240 294 2240 294 2125 
C 294 2017 390 2017 486 2017 
L 4115 2017 
z
M 4090 896 
C 4198 896 4307 896 4307 1011 
C 4307 1119 4211 1119 4115 1119 
L 486 1119 
C 390 1119 294 1119 294 1011 
C 294 896 403 896 512 896 
L 4090 896 
z
" transform="scale(0.015625)"/>
      </defs>
      <use xlink:href="#CMMI12-4c" transform="scale(0.996264)"/>
      <use xlink:href="#CMR17-3d" transform="translate(94.044884 0) scale(0.996264)"/>
      <use xlink:href="#CMR17-33" transform="translate(193.433681 0) scale(0.996264)"/>
     </g>
    </g>
    <g id="line2d_127">
     <path d="M 46.630789 61.824787 
L 54.960789 61.824787 
L 63.290789 61.824787 
" style="fill: none; stroke: #ee6677; stroke-linecap: square"/>
     <g>
      <use xlink:href="#m8aa9c8f757" x="54.960789" y="61.824787" style="fill: #ee6677; stroke: #ee6677; stroke-linejoin: miter"/>
     </g>
    </g>
    <g id="text_13">
     <!-- $L = 9$ -->
     <g transform="translate(69.954789 64.740287) scale(0.0833 -0.0833)">
      <defs>
       <path id="CMR17-39" d="M 2253 1864 
C 2253 464 1670 31 1190 31 
C 1043 31 685 31 538 294 
C 704 268 826 357 826 518 
C 826 692 685 749 595 749 
C 538 749 365 723 365 506 
C 365 71 742 -128 1203 -128 
C 1939 -128 2688 674 2688 2073 
C 2688 3817 1971 4179 1485 4179 
C 851 4179 243 3628 243 2778 
C 243 1991 762 1408 1414 1408 
C 1952 1408 2189 1903 2253 2112 
L 2253 1864 
z
M 1427 1510 
C 1254 1510 1011 1542 813 1922 
C 678 2169 678 2461 678 2771 
C 678 3146 678 3405 858 3684 
C 947 3817 1114 4032 1485 4032 
C 2240 4032 2240 2885 2240 2632 
C 2240 2182 2035 1510 1427 1510 
z
" transform="scale(0.015625)"/>
      </defs>
      <use xlink:href="#CMMI12-4c" transform="scale(0.996264)"/>
      <use xlink:href="#CMR17-3d" transform="translate(94.044884 0) scale(0.996264)"/>
      <use xlink:href="#CMR17-39" transform="translate(193.433681 0) scale(0.996264)"/>
     </g>
    </g>
    <g id="line2d_128">
     <path d="M 46.630789 73.434456 
L 54.960789 73.434456 
L 63.290789 73.434456 
" style="fill: none; stroke: #228833; stroke-linecap: square"/>
     <g>
      <use xlink:href="#md12868df82" x="54.960789" y="73.434456" style="fill: #228833; stroke: #228833; stroke-linejoin: miter"/>
     </g>
    </g>
    <g id="text_14">
     <!-- $L = 13$ -->
     <g transform="translate(69.954789 76.349956) scale(0.0833 -0.0833)">
      <use xlink:href="#CMMI12-4c" transform="scale(0.996264)"/>
      <use xlink:href="#CMR17-3d" transform="translate(94.044884 0) scale(0.996264)"/>
      <use xlink:href="#CMR17-31" transform="translate(193.433681 0) scale(0.996264)"/>
      <use xlink:href="#CMR17-33" transform="translate(239.124158 0) scale(0.996264)"/>
     </g>
    </g>
   </g>
   <g id="legend_2">
    <g id="patch_8">
     <path d="M 44.964789 108.5825 
L 113.014893 108.5825 
Q 114.680893 108.5825 114.680893 106.9165 
L 114.680893 84.530162 
Q 114.680893 82.864162 113.014893 82.864162 
L 44.964789 82.864162 
Q 43.298789 82.864162 43.298789 84.530162 
L 43.298789 106.9165 
Q 43.298789 108.5825 44.964789 108.5825 
z
" style="fill: #ffffff; stroke: #cccccc; stroke-linejoin: miter"/>
    </g>
    <g id="line2d_129">
     <path d="M 46.630789 89.111662 
L 54.960789 89.111662 
L 63.290789 89.111662 
" style="fill: none; stroke: #808080; stroke-linecap: square"/>
    </g>
    <g id="text_15">
     <!-- Simulation -->
     <g transform="translate(69.954789 92.027162) scale(0.0833 -0.0833)">
      <defs>
       <path id="CMR17-53" d="M 2803 4290 
C 2803 4404 2797 4411 2758 4411 
C 2720 4411 2707 4385 2682 4328 
L 2490 3907 
C 2246 4257 1875 4416 1472 4416 
C 819 4416 294 3901 294 3253 
C 294 3056 339 2776 557 2510 
C 794 2218 1018 2167 1530 2033 
C 1722 1982 2042 1899 2106 1874 
C 2470 1722 2662 1341 2662 985 
C 2662 527 2336 38 1779 38 
C 1094 38 454 419 410 1311 
C 403 1413 397 1419 352 1419 
C 301 1419 294 1413 294 1285 
L 294 -1 
C 294 -115 301 -122 339 -122 
C 384 -122 397 -90 486 108 
C 493 127 493 140 614 381 
C 934 -39 1472 -128 1779 -128 
C 2477 -128 2970 451 2970 1124 
C 2970 1454 2848 1708 2778 1823 
C 2509 2230 2221 2306 1914 2382 
C 1869 2402 1856 2402 1498 2490 
C 1152 2579 1005 2624 845 2796 
C 666 2992 602 3196 602 3399 
C 602 3812 934 4263 1478 4263 
C 2157 4263 2579 3786 2675 2993 
C 2694 2878 2701 2872 2746 2872 
C 2803 2872 2803 2891 2803 2999 
L 2803 4290 
z
" transform="scale(0.015625)"/>
       <path id="CMR17-69" d="M 992 3909 
C 992 4049 877 4170 730 4170 
C 589 4170 467 4056 467 3909 
C 467 3769 582 3648 730 3648 
C 870 3648 992 3763 992 3909 
z
M 243 2706 
L 243 2541 
C 602 2541 653 2502 653 2197 
L 653 427 
C 653 184 627 153 218 153 
L 218 -13 
C 371 0 646 0 806 0 
C 960 0 1222 0 1370 -13 
L 1370 153 
C 992 153 979 191 979 420 
L 979 2776 
L 243 2706 
z
" transform="scale(0.015625)"/>
       <path id="CMR17-6d" d="M 4326 1933 
C 4326 2252 4269 2790 3507 2790 
C 3072 2790 2771 2496 2656 2151 
L 2650 2151 
C 2573 2676 2195 2790 1837 2790 
C 1331 2790 1069 2400 973 2144 
L 966 2144 
L 966 2790 
L 211 2720 
L 211 2554 
C 589 2554 646 2515 646 2208 
L 646 428 
C 646 184 621 153 211 153 
L 211 -13 
C 365 0 646 0 813 0 
C 979 0 1267 0 1421 -13 
L 1421 153 
C 1011 153 986 178 986 428 
L 986 1658 
C 986 2247 1344 2688 1792 2688 
C 2266 2688 2317 2266 2317 1958 
L 2317 428 
C 2317 184 2291 153 1882 153 
L 1882 -13 
C 2035 0 2317 0 2483 0 
C 2650 0 2938 0 3091 -13 
L 3091 153 
C 2682 153 2656 178 2656 428 
L 2656 1658 
C 2656 2247 3014 2688 3462 2688 
C 3936 2688 3987 2266 3987 1958 
L 3987 428 
C 3987 184 3962 153 3552 153 
L 3552 -13 
C 3706 0 3987 0 4154 0 
C 4320 0 4608 0 4762 -13 
L 4762 153 
C 4352 153 4326 178 4326 428 
L 4326 1933 
z
" transform="scale(0.015625)"/>
       <path id="CMR17-75" d="M 1882 2693 
L 1882 2528 
C 2259 2528 2317 2489 2317 2186 
L 2317 1032 
C 2317 500 2029 38 1555 38 
C 1030 38 986 348 986 678 
L 986 2763 
L 211 2693 
L 211 2528 
C 467 2528 640 2528 646 2274 
L 646 1058 
C 646 633 646 361 813 183 
C 896 101 1056 -64 1517 -64 
C 2061 -64 2272 377 2323 506 
L 2330 506 
L 2330 -63 
L 3091 -63 
L 3091 128 
C 2714 128 2656 166 2656 473 
L 2656 2763 
L 1882 2693 
z
" transform="scale(0.015625)"/>
       <path id="CMR17-6c" d="M 979 4396 
L 218 4326 
L 218 4160 
C 595 4160 653 4122 653 3817 
L 653 426 
C 653 184 627 153 218 153 
L 218 -13 
C 371 0 653 0 813 0 
C 979 0 1261 0 1414 -13 
L 1414 153 
C 1005 153 979 178 979 426 
L 979 4396 
z
" transform="scale(0.015625)"/>
       <path id="CMR17-61" d="M 2304 1653 
C 2304 2072 2304 2294 2035 2543 
C 1798 2752 1523 2816 1306 2816 
C 800 2816 435 2407 435 1971 
C 435 1728 627 1728 666 1728 
C 749 1728 896 1778 896 1954 
C 896 2112 774 2181 666 2181 
C 640 2181 608 2174 589 2168 
C 723 2592 1069 2714 1293 2714 
C 1613 2714 1965 2429 1965 1885 
L 1965 1600 
C 1587 1600 1133 1549 774 1357 
C 371 1133 256 813 256 570 
C 256 77 832 -64 1171 -64 
C 1523 -64 1850 139 1990 511 
C 2003 233 2182 -18 2464 -18 
C 2598 -18 2938 70 2938 567 
L 2938 920 
L 2822 920 
L 2822 562 
C 2822 178 2650 128 2566 128 
C 2304 128 2304 458 2304 738 
L 2304 1653 
z
M 1965 870 
C 1965 317 1568 38 1216 38 
C 896 38 646 275 646 570 
C 646 761 730 1100 1101 1305 
C 1408 1478 1760 1504 1965 1504 
L 1965 870 
z
" transform="scale(0.015625)"/>
       <path id="CMR17-74" d="M 966 2560 
L 1862 2560 
L 1862 2725 
L 966 2725 
L 966 3904 
L 851 3904 
C 838 3245 614 2668 70 2668 
L 70 2560 
L 627 2560 
L 627 771 
C 627 650 627 -64 1370 -64 
C 1747 -64 1965 306 1965 777 
L 1965 1140 
L 1850 1140 
L 1850 783 
C 1850 344 1677 51 1408 51 
C 1222 51 966 178 966 758 
L 966 2560 
z
" transform="scale(0.015625)"/>
       <path id="CMR17-6f" d="M 2758 1356 
C 2758 2176 2163 2816 1466 2816 
C 768 2816 173 2176 173 1356 
C 173 551 768 -64 1466 -64 
C 2163 -64 2758 551 2758 1356 
z
M 1466 51 
C 1165 51 909 230 762 480 
C 602 767 582 1126 582 1408 
C 582 1677 595 2010 762 2298 
C 890 2509 1139 2714 1466 2714 
C 1754 2714 1997 2554 2150 2330 
C 2349 2029 2349 1607 2349 1408 
C 2349 1158 2336 775 2163 467 
C 1984 173 1709 51 1466 51 
z
" transform="scale(0.015625)"/>
       <path id="CMR17-6e" d="M 2656 1933 
C 2656 2259 2592 2790 1837 2790 
C 1331 2790 1069 2400 973 2144 
L 966 2144 
L 966 2790 
L 211 2720 
L 211 2554 
C 589 2554 646 2515 646 2208 
L 646 428 
C 646 184 621 153 211 153 
L 211 -13 
C 365 0 646 0 813 0 
C 979 0 1267 0 1421 -13 
L 1421 153 
C 1011 153 986 178 986 428 
L 986 1658 
C 986 2247 1344 2688 1792 2688 
C 2266 2688 2317 2266 2317 1958 
L 2317 428 
C 2317 184 2291 153 1882 153 
L 1882 -13 
C 2035 0 2317 0 2483 0 
C 2650 0 2938 0 3091 -13 
L 3091 153 
C 2682 153 2656 178 2656 428 
L 2656 1933 
z
" transform="scale(0.015625)"/>
      </defs>
      <use xlink:href="#CMR17-53" transform="scale(0.996264)"/>
      <use xlink:href="#CMR17-69" transform="translate(50.89537 0) scale(0.996264)"/>
      <use xlink:href="#CMR17-6d" transform="translate(75.766428 0) scale(0.996264)"/>
      <use xlink:href="#CMR17-75" transform="translate(150.083564 0) scale(0.996264)"/>
      <use xlink:href="#CMR17-6c" transform="translate(200.978934 0) scale(0.996264)"/>
      <use xlink:href="#CMR17-61" transform="translate(225.849992 0) scale(0.996264)"/>
      <use xlink:href="#CMR17-74" transform="translate(271.54047 0) scale(0.996264)"/>
      <use xlink:href="#CMR17-69" transform="translate(306.821237 0) scale(0.996264)"/>
      <use xlink:href="#CMR17-6f" transform="translate(331.692296 0) scale(0.996264)"/>
      <use xlink:href="#CMR17-6e" transform="translate(377.382773 0) scale(0.996264)"/>
     </g>
    </g>
    <g id="line2d_130">
     <path d="M 46.630789 100.721331 
L 54.960789 100.721331 
L 63.290789 100.721331 
" style="fill: none; stroke-dasharray: 3.7,1.6; stroke-dashoffset: 0; stroke: #808080"/>
    </g>
    <g id="text_16">
     <!-- Theory -->
     <g transform="translate(69.954789 103.636831) scale(0.0833 -0.0833)">
      <defs>
       <path id="CMR17-54" d="M 3981 4326 
L 288 4326 
L 179 2918 
L 294 2918 
C 378 3976 467 4160 1453 4160 
C 1568 4160 1754 4160 1805 4154 
C 1926 4135 1926 4058 1926 3912 
L 1926 459 
C 1926 230 1907 160 1376 160 
L 1197 160 
L 1197 0 
C 1504 0 1824 0 2138 0 
C 2451 0 2771 0 3078 0 
L 3078 160 
L 2899 160 
C 2368 160 2349 230 2349 459 
L 2349 3912 
C 2349 4052 2349 4129 2464 4154 
C 2515 4160 2701 4160 2816 4160 
C 3795 4160 3891 3976 3974 2918 
L 4090 2918 
L 3981 4326 
z
" transform="scale(0.015625)"/>
       <path id="CMR17-68" d="M 2656 1933 
C 2656 2259 2592 2790 1837 2790 
C 1312 2790 1056 2368 979 2157 
L 973 2157 
L 973 4396 
L 211 4326 
L 211 4160 
C 589 4160 646 4122 646 3817 
L 646 426 
C 646 184 621 153 211 153 
L 211 -13 
C 365 0 646 0 813 0 
C 979 0 1267 0 1421 -13 
L 1421 153 
C 1011 153 986 178 986 428 
L 986 1658 
C 986 2247 1344 2688 1792 2688 
C 2266 2688 2317 2266 2317 1958 
L 2317 428 
C 2317 184 2291 153 1882 153 
L 1882 -13 
C 2035 0 2317 0 2483 0 
C 2650 0 2938 0 3091 -13 
L 3091 153 
C 2682 153 2656 178 2656 428 
L 2656 1933 
z
" transform="scale(0.015625)"/>
       <path id="CMR17-65" d="M 2438 1472 
C 2464 1498 2464 1511 2464 1576 
C 2464 2238 2118 2816 1389 2816 
C 710 2816 173 2169 173 1383 
C 173 551 781 -64 1459 -64 
C 2176 -64 2458 607 2458 740 
C 2458 784 2419 784 2406 784 
C 2362 784 2355 771 2330 696 
C 2189 265 1837 51 1504 51 
C 1229 51 954 203 781 480 
C 582 803 582 1176 582 1472 
L 2438 1472 
z
M 589 1568 
C 634 2505 1126 2714 1382 2714 
C 1818 2714 2112 2297 2118 1568 
L 589 1568 
z
" transform="scale(0.015625)"/>
       <path id="CMR17-72" d="M 960 1497 
C 960 2112 1222 2688 1702 2688 
C 1747 2688 1792 2682 1837 2662 
C 1837 2662 1696 2617 1696 2452 
C 1696 2298 1818 2234 1914 2234 
C 1990 2234 2131 2279 2131 2458 
C 2131 2663 1926 2790 1709 2790 
C 1222 2790 1011 2317 947 2093 
L 941 2093 
L 941 2790 
L 198 2720 
L 198 2554 
C 576 2554 634 2515 634 2208 
L 634 428 
C 634 184 608 153 198 153 
L 198 -13 
C 352 0 646 0 813 0 
C 998 0 1325 0 1498 -13 
L 1498 153 
C 1037 153 960 153 960 440 
L 960 1497 
z
" transform="scale(0.015625)"/>
       <path id="CMR17-79" d="M 2496 2197 
C 2656 2586 2944 2586 3034 2586 
L 3034 2752 
C 2912 2752 2752 2752 2630 2752 
C 2496 2752 2285 2752 2157 2758 
L 2157 2592 
C 2400 2573 2406 2394 2406 2343 
C 2406 2280 2394 2248 2362 2171 
L 1664 449 
L 902 2306 
C 870 2382 870 2426 870 2433 
C 870 2573 1018 2586 1171 2586 
L 1171 2758 
C 1018 2752 742 2752 582 2752 
C 410 2752 205 2752 64 2758 
L 64 2586 
C 410 2586 448 2554 531 2350 
L 1485 15 
C 1197 -738 1030 -1178 627 -1178 
C 557 -1178 397 -1159 282 -1044 
C 429 -1031 493 -942 493 -833 
C 493 -725 416 -629 288 -629 
C 147 -629 77 -725 77 -840 
C 77 -1095 339 -1280 627 -1280 
C 998 -1280 1229 -922 1357 -604 
L 2496 2197 
z
" transform="scale(0.015625)"/>
      </defs>
      <use xlink:href="#CMR17-54" transform="scale(0.996264)"/>
      <use xlink:href="#CMR17-68" transform="translate(66.509881 0) scale(0.996264)"/>
      <use xlink:href="#CMR17-65" transform="translate(117.40525 0) scale(0.996264)"/>
      <use xlink:href="#CMR17-6f" transform="translate(157.890911 0) scale(0.996264)"/>
      <use xlink:href="#CMR17-72" transform="translate(203.581388 0) scale(0.996264)"/>
      <use xlink:href="#CMR17-79" transform="translate(238.862156 0) scale(0.996264)"/>
     </g>
    </g>
   </g>
  </g>
 </g>
 <defs>
  <clipPath id="pa1095c2780">
   <rect x="39.133789" y="3.6" width="146.475" height="109.1475"/>
  </clipPath>
 </defs>
</svg>
