<?xml version="1.0" encoding="utf-8" standalone="no"?>
<!DOCTYPE svg PUBLIC "-//W3C//DTD SVG 1.1//EN"
  "http://www.w3.org/Graphics/SVG/1.1/DTD/svg11.dtd">
<svg xmlns:xlink="http://www.w3.org/1999/xlink" width="241.548426pt" height="179.048317pt" viewBox="0 0 241.548426 179.048317" xmlns="http://www.w3.org/2000/svg" version="1.1">
 <metadata>
  <rdf:RDF xmlns:dc="http://purl.org/dc/elements/1.1/" xmlns:cc="http://creativecommons.org/ns#" xmlns:rdf="http://www.w3.org/1999/02/22-rdf-syntax-ns#">
   <cc:Work>
    <dc:type rdf:resource="http://purl.org/dc/dcmitype/StillImage"/>
    <dc:date>2026-01-09T23:57:20.313821</dc:date>
    <dc:format>image/svg+xml</dc:format>
    <dc:creator>
     <cc:Agent>
      <dc:title>Matplotlib v3.10.1, https://matplotlib.org/</dc:title>
     </cc:Agent>
    </dc:creator>
   </cc:Work>
  </rdf:RDF>
 </metadata>
 <defs>
  <style type="text/css">*{stroke-linejoin: round; stroke-linecap: butt}</style>
 </defs>
 <g id="figure_1">
  <g id="patch_1">
   <path d="M 0 179.048317 
L 241.548426 179.048317 
L 241.548426 0 
L 0 0 
L 0 179.048317 
z
" style="fill: none"/>
  </g>
  <g id="axes_1">
   <g id="patch_2">
    <path d="M 37.667091 149.13 
L 232.967091 149.13 
L 232.967091 3.6 
L 37.667091 3.6 
L 37.667091 149.13 
z
" style="fill: none"/>
   </g>
   <g id="matplotlib.axis_1">
    <g id="xtick_1">
     <g id="line2d_1">
      <path d="M 37.667091 149.13 
L 37.667091 3.6 
" clip-path="url(#p33ec3a413f)" style="fill: none; stroke-dasharray: 1.85,0.8; stroke-dashoffset: 0; stroke: #000000; stroke-opacity: 0.5; stroke-width: 0.5"/>
     </g>
     <g id="line2d_2">
      <defs>
       <path id="mb8abace8e7" d="M 0 0 
L 0 -3 
" style="stroke: #000000; stroke-width: 0.5"/>
      </defs>
      <g>
       <use xlink:href="#mb8abace8e7" x="37.667091" y="149.13" style="stroke: #000000; stroke-width: 0.5"/>
      </g>
     </g>
     <g id="line2d_3">
      <defs>
       <path id="m4ae60148e7" d="M 0 0 
L 0 3 
" style="stroke: #000000; stroke-width: 0.5"/>
      </defs>
      <g>
       <use xlink:href="#m4ae60148e7" x="37.667091" y="3.6" style="stroke: #000000; stroke-width: 0.5"/>
      </g>
     </g>
     <g id="text_1">
      <!-- $\mathdefault{0}$ -->
      <g transform="translate(35.176423 159.548498) scale(0.1 -0.1)">
       <defs>
        <path id="CMR17-30" d="M 2688 2025 
C 2688 2416 2682 3080 2413 3591 
C 2176 4039 1798 4198 1466 4198 
C 1158 4198 768 4058 525 3597 
C 269 3118 243 2524 243 2025 
C 243 1661 250 1106 448 619 
C 723 -39 1216 -128 1466 -128 
C 1760 -128 2208 -7 2470 600 
C 2662 1042 2688 1559 2688 2025 
z
M 1466 -26 
C 1056 -26 813 325 723 812 
C 653 1188 653 1738 653 2096 
C 653 2588 653 2997 736 3387 
C 858 3929 1216 4096 1466 4096 
C 1728 4096 2067 3923 2189 3400 
C 2272 3036 2278 2607 2278 2096 
C 2278 1680 2278 1169 2202 792 
C 2067 95 1690 -26 1466 -26 
z
" transform="scale(0.015625)"/>
       </defs>
       <use xlink:href="#CMR17-30" transform="scale(0.996264)"/>
      </g>
     </g>
    </g>
    <g id="xtick_2">
     <g id="line2d_4">
      <path d="M 86.492091 149.13 
L 86.492091 3.6 
" clip-path="url(#p33ec3a413f)" style="fill: none; stroke-dasharray: 1.85,0.8; stroke-dashoffset: 0; stroke: #000000; stroke-opacity: 0.5; stroke-width: 0.5"/>
     </g>
     <g id="line2d_5">
      <g>
       <use xlink:href="#mb8abace8e7" x="86.492091" y="149.13" style="stroke: #000000; stroke-width: 0.5"/>
      </g>
     </g>
     <g id="line2d_6">
      <g>
       <use xlink:href="#m4ae60148e7" x="86.492091" y="3.6" style="stroke: #000000; stroke-width: 0.5"/>
      </g>
     </g>
     <g id="text_2">
      <!-- $\mathdefault{5}$ -->
      <g transform="translate(84.001423 159.548498) scale(0.1 -0.1)">
       <defs>
        <path id="CMR17-35" d="M 730 3692 
C 794 3666 1056 3584 1325 3584 
C 1920 3584 2246 3911 2432 4100 
C 2432 4157 2432 4192 2394 4192 
C 2387 4192 2374 4192 2323 4163 
C 2099 4058 1837 3973 1517 3973 
C 1325 3973 1037 3999 723 4139 
C 653 4171 640 4171 634 4171 
C 602 4171 595 4164 595 4037 
L 595 2203 
C 595 2089 595 2057 659 2057 
C 691 2057 704 2070 736 2114 
C 941 2401 1222 2522 1542 2522 
C 1766 2522 2246 2382 2246 1289 
C 2246 1085 2246 715 2054 421 
C 1894 159 1645 25 1370 25 
C 947 25 518 320 403 814 
C 429 807 480 795 506 795 
C 589 795 749 840 749 1038 
C 749 1210 627 1280 506 1280 
C 358 1280 262 1190 262 1011 
C 262 454 704 -128 1382 -128 
C 2042 -128 2669 440 2669 1264 
C 2669 2030 2170 2624 1549 2624 
C 1222 2624 947 2503 730 2274 
L 730 3692 
z
" transform="scale(0.015625)"/>
       </defs>
       <use xlink:href="#CMR17-35" transform="scale(0.996264)"/>
      </g>
     </g>
    </g>
    <g id="xtick_3">
     <g id="line2d_7">
      <path d="M 135.317091 149.13 
L 135.317091 3.6 
" clip-path="url(#p33ec3a413f)" style="fill: none; stroke-dasharray: 1.85,0.8; stroke-dashoffset: 0; stroke: #000000; stroke-opacity: 0.5; stroke-width: 0.5"/>
     </g>
     <g id="line2d_8">
      <g>
       <use xlink:href="#mb8abace8e7" x="135.317091" y="149.13" style="stroke: #000000; stroke-width: 0.5"/>
      </g>
     </g>
     <g id="line2d_9">
      <g>
       <use xlink:href="#m4ae60148e7" x="135.317091" y="3.6" style="stroke: #000000; stroke-width: 0.5"/>
      </g>
     </g>
     <g id="text_3">
      <!-- $\mathdefault{10}$ -->
      <g transform="translate(130.335756 159.548498) scale(0.1 -0.1)">
       <defs>
        <path id="CMR17-31" d="M 1702 4058 
C 1702 4192 1696 4192 1606 4192 
C 1357 3916 979 3827 621 3827 
C 602 3827 570 3827 563 3808 
C 557 3795 557 3782 557 3648 
C 755 3648 1088 3686 1344 3839 
L 1344 461 
C 1344 236 1331 160 781 160 
L 589 160 
L 589 0 
C 896 0 1216 0 1523 0 
C 1830 0 2150 0 2458 0 
L 2458 160 
L 2266 160 
C 1715 160 1702 230 1702 458 
L 1702 4058 
z
" transform="scale(0.015625)"/>
       </defs>
       <use xlink:href="#CMR17-31" transform="scale(0.996264)"/>
       <use xlink:href="#CMR17-30" transform="translate(45.690477 0) scale(0.996264)"/>
      </g>
     </g>
    </g>
    <g id="xtick_4">
     <g id="line2d_10">
      <path d="M 184.142091 149.13 
L 184.142091 3.6 
" clip-path="url(#p33ec3a413f)" style="fill: none; stroke-dasharray: 1.85,0.8; stroke-dashoffset: 0; stroke: #000000; stroke-opacity: 0.5; stroke-width: 0.5"/>
     </g>
     <g id="line2d_11">
      <g>
       <use xlink:href="#mb8abace8e7" x="184.142091" y="149.13" style="stroke: #000000; stroke-width: 0.5"/>
      </g>
     </g>
     <g id="line2d_12">
      <g>
       <use xlink:href="#m4ae60148e7" x="184.142091" y="3.6" style="stroke: #000000; stroke-width: 0.5"/>
      </g>
     </g>
     <g id="text_4">
      <!-- $\mathdefault{15}$ -->
      <g transform="translate(179.160756 159.548498) scale(0.1 -0.1)">
       <use xlink:href="#CMR17-31" transform="scale(0.996264)"/>
       <use xlink:href="#CMR17-35" transform="translate(45.690477 0) scale(0.996264)"/>
      </g>
     </g>
    </g>
    <g id="xtick_5">
     <g id="line2d_13">
      <path d="M 232.967091 149.13 
L 232.967091 3.6 
" clip-path="url(#p33ec3a413f)" style="fill: none; stroke-dasharray: 1.85,0.8; stroke-dashoffset: 0; stroke: #000000; stroke-opacity: 0.5; stroke-width: 0.5"/>
     </g>
     <g id="line2d_14">
      <g>
       <use xlink:href="#mb8abace8e7" x="232.967091" y="149.13" style="stroke: #000000; stroke-width: 0.5"/>
      </g>
     </g>
     <g id="line2d_15">
      <g>
       <use xlink:href="#m4ae60148e7" x="232.967091" y="3.6" style="stroke: #000000; stroke-width: 0.5"/>
      </g>
     </g>
     <g id="text_5">
      <!-- $\mathdefault{20}$ -->
      <g transform="translate(227.985756 159.548498) scale(0.1 -0.1)">
       <defs>
        <path id="CMR17-32" d="M 2669 989 
L 2554 989 
C 2490 536 2438 459 2413 420 
C 2381 369 1920 369 1830 369 
L 602 369 
C 832 619 1280 1072 1824 1597 
C 2214 1967 2669 2402 2669 3035 
C 2669 3790 2067 4224 1395 4224 
C 691 4224 262 3604 262 3030 
C 262 2780 448 2748 525 2748 
C 589 2748 781 2787 781 3010 
C 781 3207 614 3264 525 3264 
C 486 3264 448 3258 422 3245 
C 544 3790 915 4058 1306 4058 
C 1862 4058 2227 3617 2227 3035 
C 2227 2479 1901 2000 1536 1584 
L 262 146 
L 262 0 
L 2515 0 
L 2669 989 
z
" transform="scale(0.015625)"/>
       </defs>
       <use xlink:href="#CMR17-32" transform="scale(0.996264)"/>
       <use xlink:href="#CMR17-30" transform="translate(45.690477 0) scale(0.996264)"/>
      </g>
     </g>
    </g>
    <g id="xtick_6">
     <g id="line2d_16">
      <defs>
       <path id="mcf90b428f3" d="M 0 0 
L 0 -1.5 
" style="stroke: #000000; stroke-width: 0.5"/>
      </defs>
      <g>
       <use xlink:href="#mcf90b428f3" x="47.432091" y="149.13" style="stroke: #000000; stroke-width: 0.5"/>
      </g>
     </g>
     <g id="line2d_17">
      <defs>
       <path id="m7a138cef2e" d="M 0 0 
L 0 1.5 
" style="stroke: #000000; stroke-width: 0.5"/>
      </defs>
      <g>
       <use xlink:href="#m7a138cef2e" x="47.432091" y="3.6" style="stroke: #000000; stroke-width: 0.5"/>
      </g>
     </g>
    </g>
    <g id="xtick_7">
     <g id="line2d_18">
      <g>
       <use xlink:href="#mcf90b428f3" x="57.197091" y="149.13" style="stroke: #000000; stroke-width: 0.5"/>
      </g>
     </g>
     <g id="line2d_19">
      <g>
       <use xlink:href="#m7a138cef2e" x="57.197091" y="3.6" style="stroke: #000000; stroke-width: 0.5"/>
      </g>
     </g>
    </g>
    <g id="xtick_8">
     <g id="line2d_20">
      <g>
       <use xlink:href="#mcf90b428f3" x="66.962091" y="149.13" style="stroke: #000000; stroke-width: 0.5"/>
      </g>
     </g>
     <g id="line2d_21">
      <g>
       <use xlink:href="#m7a138cef2e" x="66.962091" y="3.6" style="stroke: #000000; stroke-width: 0.5"/>
      </g>
     </g>
    </g>
    <g id="xtick_9">
     <g id="line2d_22">
      <g>
       <use xlink:href="#mcf90b428f3" x="76.727091" y="149.13" style="stroke: #000000; stroke-width: 0.5"/>
      </g>
     </g>
     <g id="line2d_23">
      <g>
       <use xlink:href="#m7a138cef2e" x="76.727091" y="3.6" style="stroke: #000000; stroke-width: 0.5"/>
      </g>
     </g>
    </g>
    <g id="xtick_10">
     <g id="line2d_24">
      <g>
       <use xlink:href="#mcf90b428f3" x="96.257091" y="149.13" style="stroke: #000000; stroke-width: 0.5"/>
      </g>
     </g>
     <g id="line2d_25">
      <g>
       <use xlink:href="#m7a138cef2e" x="96.257091" y="3.6" style="stroke: #000000; stroke-width: 0.5"/>
      </g>
     </g>
    </g>
    <g id="xtick_11">
     <g id="line2d_26">
      <g>
       <use xlink:href="#mcf90b428f3" x="106.022091" y="149.13" style="stroke: #000000; stroke-width: 0.5"/>
      </g>
     </g>
     <g id="line2d_27">
      <g>
       <use xlink:href="#m7a138cef2e" x="106.022091" y="3.6" style="stroke: #000000; stroke-width: 0.5"/>
      </g>
     </g>
    </g>
    <g id="xtick_12">
     <g id="line2d_28">
      <g>
       <use xlink:href="#mcf90b428f3" x="115.787091" y="149.13" style="stroke: #000000; stroke-width: 0.5"/>
      </g>
     </g>
     <g id="line2d_29">
      <g>
       <use xlink:href="#m7a138cef2e" x="115.787091" y="3.6" style="stroke: #000000; stroke-width: 0.5"/>
      </g>
     </g>
    </g>
    <g id="xtick_13">
     <g id="line2d_30">
      <g>
       <use xlink:href="#mcf90b428f3" x="125.552091" y="149.13" style="stroke: #000000; stroke-width: 0.5"/>
      </g>
     </g>
     <g id="line2d_31">
      <g>
       <use xlink:href="#m7a138cef2e" x="125.552091" y="3.6" style="stroke: #000000; stroke-width: 0.5"/>
      </g>
     </g>
    </g>
    <g id="xtick_14">
     <g id="line2d_32">
      <g>
       <use xlink:href="#mcf90b428f3" x="145.082091" y="149.13" style="stroke: #000000; stroke-width: 0.5"/>
      </g>
     </g>
     <g id="line2d_33">
      <g>
       <use xlink:href="#m7a138cef2e" x="145.082091" y="3.6" style="stroke: #000000; stroke-width: 0.5"/>
      </g>
     </g>
    </g>
    <g id="xtick_15">
     <g id="line2d_34">
      <g>
       <use xlink:href="#mcf90b428f3" x="154.847091" y="149.13" style="stroke: #000000; stroke-width: 0.5"/>
      </g>
     </g>
     <g id="line2d_35">
      <g>
       <use xlink:href="#m7a138cef2e" x="154.847091" y="3.6" style="stroke: #000000; stroke-width: 0.5"/>
      </g>
     </g>
    </g>
    <g id="xtick_16">
     <g id="line2d_36">
      <g>
       <use xlink:href="#mcf90b428f3" x="164.612091" y="149.13" style="stroke: #000000; stroke-width: 0.5"/>
      </g>
     </g>
     <g id="line2d_37">
      <g>
       <use xlink:href="#m7a138cef2e" x="164.612091" y="3.6" style="stroke: #000000; stroke-width: 0.5"/>
      </g>
     </g>
    </g>
    <g id="xtick_17">
     <g id="line2d_38">
      <g>
       <use xlink:href="#mcf90b428f3" x="174.377091" y="149.13" style="stroke: #000000; stroke-width: 0.5"/>
      </g>
     </g>
     <g id="line2d_39">
      <g>
       <use xlink:href="#m7a138cef2e" x="174.377091" y="3.6" style="stroke: #000000; stroke-width: 0.5"/>
      </g>
     </g>
    </g>
    <g id="xtick_18">
     <g id="line2d_40">
      <g>
       <use xlink:href="#mcf90b428f3" x="193.907091" y="149.13" style="stroke: #000000; stroke-width: 0.5"/>
      </g>
     </g>
     <g id="line2d_41">
      <g>
       <use xlink:href="#m7a138cef2e" x="193.907091" y="3.6" style="stroke: #000000; stroke-width: 0.5"/>
      </g>
     </g>
    </g>
    <g id="xtick_19">
     <g id="line2d_42">
      <g>
       <use xlink:href="#mcf90b428f3" x="203.672091" y="149.13" style="stroke: #000000; stroke-width: 0.5"/>
      </g>
     </g>
     <g id="line2d_43">
      <g>
       <use xlink:href="#m7a138cef2e" x="203.672091" y="3.6" style="stroke: #000000; stroke-width: 0.5"/>
      </g>
     </g>
    </g>
    <g id="xtick_20">
     <g id="line2d_44">
      <g>
       <use xlink:href="#mcf90b428f3" x="213.437091" y="149.13" style="stroke: #000000; stroke-width: 0.5"/>
      </g>
     </g>
     <g id="line2d_45">
      <g>
       <use xlink:href="#m7a138cef2e" x="213.437091" y="3.6" style="stroke: #000000; stroke-width: 0.5"/>
      </g>
     </g>
    </g>
    <g id="xtick_21">
     <g id="line2d_46">
      <g>
       <use xlink:href="#mcf90b428f3" x="223.202091" y="149.13" style="stroke: #000000; stroke-width: 0.5"/>
      </g>
     </g>
     <g id="line2d_47">
      <g>
       <use xlink:href="#m7a138cef2e" x="223.202091" y="3.6" style="stroke: #000000; stroke-width: 0.5"/>
      </g>
     </g>
    </g>
    <g id="text_6">
     <!-- $f_r$ [MHz] -->
     <g transform="translate(115.728469 172.957657) scale(0.1 -0.1)">
      <defs>
       <path id="CMMI12-66" d="M 2854 2566 
C 2982 2566 3034 2566 3034 2688 
C 3034 2752 2982 2752 2867 2752 
L 2349 2752 
C 2470 3429 2560 3897 2611 4107 
C 2650 4265 2784 4416 2950 4416 
C 3085 4416 3219 4358 3283 4298 
C 3034 4272 2957 4082 2957 3969 
C 2957 3837 3053 3759 3174 3759 
C 3302 3759 3494 3870 3494 4119 
C 3494 4393 3226 4544 2944 4544 
C 2669 4544 2400 4334 2272 4078 
C 2157 3848 2093 3611 1946 2752 
L 1517 2752 
C 1395 2752 1331 2752 1331 2637 
C 1331 2566 1370 2566 1498 2566 
L 1907 2566 
C 1792 1976 1530 542 1382 -137 
C 1274 -689 1178 -1152 858 -1152 
C 838 -1152 653 -1152 538 -1031 
C 864 -1005 864 -726 864 -720 
C 864 -593 768 -517 646 -517 
C 518 -517 326 -625 326 -867 
C 326 -1140 608 -1280 858 -1280 
C 1510 -1280 1779 -118 1850 199 
C 1965 688 2278 2376 2310 2566 
L 2854 2566 
z
" transform="scale(0.015625)"/>
       <path id="CMMI12-72" d="M 2490 2612 
C 2291 2574 2189 2433 2189 2293 
C 2189 2139 2310 2088 2400 2088 
C 2579 2088 2726 2242 2726 2433 
C 2726 2638 2528 2816 2208 2816 
C 1952 2816 1658 2701 1389 2312 
C 1344 2650 1088 2816 832 2816 
C 582 2816 454 2625 378 2484 
C 269 2254 173 1871 173 1839 
C 173 1814 198 1782 243 1782 
C 294 1782 301 1788 339 1935 
C 435 2318 557 2689 813 2689 
C 966 2689 1011 2580 1011 2395 
C 1011 2254 947 2005 902 1807 
L 723 1118 
C 698 996 627 709 595 594 
C 550 428 480 128 480 96 
C 480 6 550 -64 646 -64 
C 717 -64 838 -19 877 109 
C 896 160 1133 1124 1171 1271 
C 1203 1411 1242 1546 1274 1686 
C 1299 1775 1325 1878 1344 1961 
C 1363 2018 1536 2331 1696 2472 
C 1773 2542 1939 2689 2202 2689 
C 2304 2689 2406 2670 2490 2612 
z
" transform="scale(0.015625)"/>
       <path id="CMR17-5b" d="M 1504 -1600 
L 1504 -1377 
L 902 -1377 
L 902 4544 
L 1504 4544 
L 1504 4767 
L 678 4767 
L 678 -1600 
L 1504 -1600 
z
" transform="scale(0.015625)"/>
       <path id="CMR17-4d" d="M 1338 4224 
C 1299 4320 1293 4320 1158 4320 
L 339 4320 
L 339 4160 
C 781 4160 851 4160 851 3875 
L 851 610 
C 851 451 851 153 339 153 
L 339 -13 
C 486 0 755 0 915 0 
C 1075 0 1344 0 1491 -13 
L 1491 153 
C 979 153 979 451 979 610 
L 979 4135 
L 986 4135 
L 2490 89 
C 2515 25 2528 -13 2579 -13 
C 2630 -13 2643 25 2669 89 
L 4186 4166 
L 4192 4166 
L 4192 438 
C 4192 153 4122 153 3680 153 
L 3680 -13 
C 3853 0 4198 0 4384 0 
C 4570 0 4922 0 5094 -13 
L 5094 153 
C 4653 153 4582 153 4582 438 
L 4582 3875 
C 4582 4160 4653 4160 5094 4160 
L 5094 4320 
L 4282 4320 
C 4147 4320 4141 4314 4102 4218 
L 2720 502 
L 1338 4224 
z
" transform="scale(0.015625)"/>
       <path id="CMR17-48" d="M 3590 3905 
C 3590 4192 3661 4192 4102 4192 
L 4102 4352 
C 3917 4352 3578 4352 3379 4352 
C 3181 4352 2842 4352 2656 4352 
L 2656 4192 
C 3098 4192 3168 4192 3168 3904 
L 3168 2341 
L 1261 2341 
L 1261 3904 
C 1261 4192 1331 4192 1773 4192 
L 1773 4352 
C 1587 4352 1248 4352 1050 4352 
C 851 4352 512 4352 326 4352 
L 326 4192 
C 768 4192 838 4192 838 3905 
L 838 447 
C 838 160 768 160 326 160 
L 326 0 
C 512 0 851 0 1050 0 
C 1248 0 1587 0 1773 0 
L 1773 160 
C 1331 160 1261 160 1261 446 
L 1261 2176 
L 3168 2176 
L 3168 446 
C 3168 160 3098 160 2656 160 
L 2656 0 
C 2842 0 3181 0 3379 0 
C 3578 0 3917 0 4102 0 
L 4102 160 
C 3661 160 3590 160 3590 447 
L 3590 3905 
z
" transform="scale(0.015625)"/>
       <path id="CMR17-7a" d="M 2310 2605 
C 2362 2670 2362 2682 2362 2695 
C 2362 2752 2336 2752 2221 2752 
L 275 2752 
L 211 1760 
L 326 1760 
C 371 2381 442 2650 1178 2650 
L 1958 2650 
L 128 96 
C 128 0 134 0 269 0 
L 2291 0 
L 2381 1152 
L 2266 1152 
C 2214 442 2131 115 1350 115 
L 531 115 
L 2310 2605 
z
" transform="scale(0.015625)"/>
       <path id="CMR17-5d" d="M 915 4767 
L 90 4767 
L 90 4544 
L 691 4544 
L 691 -1377 
L 90 -1377 
L 90 -1600 
L 915 -1600 
L 915 4767 
z
" transform="scale(0.015625)"/>
      </defs>
      <use xlink:href="#CMMI12-66" transform="scale(0.996264)"/>
      <use xlink:href="#CMMI12-72" transform="translate(48.083238 -14.943915) scale(0.697382)"/>
      <use xlink:href="#CMR17-5b" transform="translate(111.326605 0) scale(0.996264)"/>
      <use xlink:href="#CMR17-4d" transform="translate(136.197663 0) scale(0.996264)"/>
      <use xlink:href="#CMR17-48" transform="translate(220.884604 0) scale(0.996264)"/>
      <use xlink:href="#CMR17-7a" transform="translate(289.957034 0) scale(0.996264)"/>
      <use xlink:href="#CMR17-5d" transform="translate(330.442694 0) scale(0.996264)"/>
     </g>
    </g>
   </g>
   <g id="matplotlib.axis_2">
    <g id="ytick_1">
     <g id="line2d_48">
      <path d="M 37.667091 149.13 
L 232.967091 149.13 
" clip-path="url(#p33ec3a413f)" style="fill: none; stroke-dasharray: 1.85,0.8; stroke-dashoffset: 0; stroke: #000000; stroke-opacity: 0.5; stroke-width: 0.5"/>
     </g>
     <g id="line2d_49">
      <defs>
       <path id="m30b30cbc5c" d="M 0 0 
L 3 0 
" style="stroke: #000000; stroke-width: 0.5"/>
      </defs>
      <g>
       <use xlink:href="#m30b30cbc5c" x="37.667091" y="149.13" style="stroke: #000000; stroke-width: 0.5"/>
      </g>
     </g>
     <g id="line2d_50">
      <defs>
       <path id="me4fae5abc7" d="M 0 0 
L -3 0 
" style="stroke: #000000; stroke-width: 0.5"/>
      </defs>
      <g>
       <use xlink:href="#me4fae5abc7" x="232.967091" y="149.13" style="stroke: #000000; stroke-width: 0.5"/>
      </g>
     </g>
     <g id="text_7">
      <!-- $\mathdefault{0.00}$ -->
      <g transform="translate(16.455677 152.589249) scale(0.1 -0.1)">
       <defs>
        <path id="CMMI12-3a" d="M 1178 307 
C 1178 492 1024 619 870 619 
C 685 619 557 466 557 313 
C 557 128 710 0 864 0 
C 1050 0 1178 153 1178 307 
z
" transform="scale(0.015625)"/>
       </defs>
       <use xlink:href="#CMR17-30" transform="scale(0.996264)"/>
       <use xlink:href="#CMMI12-3a" transform="translate(45.690477 0) scale(0.996264)"/>
       <use xlink:href="#CMR17-30" transform="translate(72.787654 0) scale(0.996264)"/>
       <use xlink:href="#CMR17-30" transform="translate(118.478131 0) scale(0.996264)"/>
      </g>
     </g>
    </g>
    <g id="ytick_2">
     <g id="line2d_51">
      <path d="M 37.667091 109.306134 
L 232.967091 109.306134 
" clip-path="url(#p33ec3a413f)" style="fill: none; stroke-dasharray: 1.85,0.8; stroke-dashoffset: 0; stroke: #000000; stroke-opacity: 0.5; stroke-width: 0.5"/>
     </g>
     <g id="line2d_52">
      <g>
       <use xlink:href="#m30b30cbc5c" x="37.667091" y="109.306134" style="stroke: #000000; stroke-width: 0.5"/>
      </g>
     </g>
     <g id="line2d_53">
      <g>
       <use xlink:href="#me4fae5abc7" x="232.967091" y="109.306134" style="stroke: #000000; stroke-width: 0.5"/>
      </g>
     </g>
     <g id="text_8">
      <!-- $\mathdefault{0.01}$ -->
      <g transform="translate(16.455677 112.765383) scale(0.1 -0.1)">
       <use xlink:href="#CMR17-30" transform="scale(0.996264)"/>
       <use xlink:href="#CMMI12-3a" transform="translate(45.690477 0) scale(0.996264)"/>
       <use xlink:href="#CMR17-30" transform="translate(72.787654 0) scale(0.996264)"/>
       <use xlink:href="#CMR17-31" transform="translate(118.478131 0) scale(0.996264)"/>
      </g>
     </g>
    </g>
    <g id="ytick_3">
     <g id="line2d_54">
      <path d="M 37.667091 69.482268 
L 232.967091 69.482268 
" clip-path="url(#p33ec3a413f)" style="fill: none; stroke-dasharray: 1.85,0.8; stroke-dashoffset: 0; stroke: #000000; stroke-opacity: 0.5; stroke-width: 0.5"/>
     </g>
     <g id="line2d_55">
      <g>
       <use xlink:href="#m30b30cbc5c" x="37.667091" y="69.482268" style="stroke: #000000; stroke-width: 0.5"/>
      </g>
     </g>
     <g id="line2d_56">
      <g>
       <use xlink:href="#me4fae5abc7" x="232.967091" y="69.482268" style="stroke: #000000; stroke-width: 0.5"/>
      </g>
     </g>
     <g id="text_9">
      <!-- $\mathdefault{0.02}$ -->
      <g transform="translate(16.455677 72.941517) scale(0.1 -0.1)">
       <use xlink:href="#CMR17-30" transform="scale(0.996264)"/>
       <use xlink:href="#CMMI12-3a" transform="translate(45.690477 0) scale(0.996264)"/>
       <use xlink:href="#CMR17-30" transform="translate(72.787654 0) scale(0.996264)"/>
       <use xlink:href="#CMR17-32" transform="translate(118.478131 0) scale(0.996264)"/>
      </g>
     </g>
    </g>
    <g id="ytick_4">
     <g id="line2d_57">
      <path d="M 37.667091 29.658402 
L 232.967091 29.658402 
" clip-path="url(#p33ec3a413f)" style="fill: none; stroke-dasharray: 1.85,0.8; stroke-dashoffset: 0; stroke: #000000; stroke-opacity: 0.5; stroke-width: 0.5"/>
     </g>
     <g id="line2d_58">
      <g>
       <use xlink:href="#m30b30cbc5c" x="37.667091" y="29.658402" style="stroke: #000000; stroke-width: 0.5"/>
      </g>
     </g>
     <g id="line2d_59">
      <g>
       <use xlink:href="#me4fae5abc7" x="232.967091" y="29.658402" style="stroke: #000000; stroke-width: 0.5"/>
      </g>
     </g>
     <g id="text_10">
      <!-- $\mathdefault{0.03}$ -->
      <g transform="translate(16.455677 33.117651) scale(0.1 -0.1)">
       <defs>
        <path id="CMR17-33" d="M 1414 2157 
C 1984 2157 2234 1662 2234 1090 
C 2234 320 1824 25 1453 25 
C 1114 25 563 194 390 693 
C 422 680 454 680 486 680 
C 640 680 755 782 755 948 
C 755 1133 614 1216 486 1216 
C 378 1216 211 1165 211 926 
C 211 335 787 -128 1466 -128 
C 2176 -128 2720 430 2720 1085 
C 2720 1707 2208 2157 1600 2227 
C 2086 2328 2554 2756 2554 3329 
C 2554 3820 2048 4179 1472 4179 
C 890 4179 378 3829 378 3329 
C 378 3110 544 3072 627 3072 
C 762 3072 877 3155 877 3321 
C 877 3486 762 3569 627 3569 
C 602 3569 570 3569 544 3557 
C 730 3959 1235 4032 1459 4032 
C 1683 4032 2106 3925 2106 3320 
C 2106 3143 2080 2828 1862 2550 
C 1670 2304 1453 2304 1242 2284 
C 1210 2284 1062 2269 1037 2269 
C 992 2263 966 2257 966 2208 
C 966 2163 973 2157 1101 2157 
L 1414 2157 
z
" transform="scale(0.015625)"/>
       </defs>
       <use xlink:href="#CMR17-30" transform="scale(0.996264)"/>
       <use xlink:href="#CMMI12-3a" transform="translate(45.690477 0) scale(0.996264)"/>
       <use xlink:href="#CMR17-30" transform="translate(72.787654 0) scale(0.996264)"/>
       <use xlink:href="#CMR17-33" transform="translate(118.478131 0) scale(0.996264)"/>
      </g>
     </g>
    </g>
    <g id="ytick_5">
     <g id="line2d_60">
      <defs>
       <path id="m901a52614e" d="M 0 0 
L 1.5 0 
" style="stroke: #000000; stroke-width: 0.5"/>
      </defs>
      <g>
       <use xlink:href="#m901a52614e" x="37.667091" y="141.165227" style="stroke: #000000; stroke-width: 0.5"/>
      </g>
     </g>
     <g id="line2d_61">
      <defs>
       <path id="m2e7934803f" d="M 0 0 
L -1.5 0 
" style="stroke: #000000; stroke-width: 0.5"/>
      </defs>
      <g>
       <use xlink:href="#m2e7934803f" x="232.967091" y="141.165227" style="stroke: #000000; stroke-width: 0.5"/>
      </g>
     </g>
    </g>
    <g id="ytick_6">
     <g id="line2d_62">
      <g>
       <use xlink:href="#m901a52614e" x="37.667091" y="133.200454" style="stroke: #000000; stroke-width: 0.5"/>
      </g>
     </g>
     <g id="line2d_63">
      <g>
       <use xlink:href="#m2e7934803f" x="232.967091" y="133.200454" style="stroke: #000000; stroke-width: 0.5"/>
      </g>
     </g>
    </g>
    <g id="ytick_7">
     <g id="line2d_64">
      <g>
       <use xlink:href="#m901a52614e" x="37.667091" y="125.23568" style="stroke: #000000; stroke-width: 0.5"/>
      </g>
     </g>
     <g id="line2d_65">
      <g>
       <use xlink:href="#m2e7934803f" x="232.967091" y="125.23568" style="stroke: #000000; stroke-width: 0.5"/>
      </g>
     </g>
    </g>
    <g id="ytick_8">
     <g id="line2d_66">
      <g>
       <use xlink:href="#m901a52614e" x="37.667091" y="117.270907" style="stroke: #000000; stroke-width: 0.5"/>
      </g>
     </g>
     <g id="line2d_67">
      <g>
       <use xlink:href="#m2e7934803f" x="232.967091" y="117.270907" style="stroke: #000000; stroke-width: 0.5"/>
      </g>
     </g>
    </g>
    <g id="ytick_9">
     <g id="line2d_68">
      <g>
       <use xlink:href="#m901a52614e" x="37.667091" y="101.341361" style="stroke: #000000; stroke-width: 0.5"/>
      </g>
     </g>
     <g id="line2d_69">
      <g>
       <use xlink:href="#m2e7934803f" x="232.967091" y="101.341361" style="stroke: #000000; stroke-width: 0.5"/>
      </g>
     </g>
    </g>
    <g id="ytick_10">
     <g id="line2d_70">
      <g>
       <use xlink:href="#m901a52614e" x="37.667091" y="93.376588" style="stroke: #000000; stroke-width: 0.5"/>
      </g>
     </g>
     <g id="line2d_71">
      <g>
       <use xlink:href="#m2e7934803f" x="232.967091" y="93.376588" style="stroke: #000000; stroke-width: 0.5"/>
      </g>
     </g>
    </g>
    <g id="ytick_11">
     <g id="line2d_72">
      <g>
       <use xlink:href="#m901a52614e" x="37.667091" y="85.411814" style="stroke: #000000; stroke-width: 0.5"/>
      </g>
     </g>
     <g id="line2d_73">
      <g>
       <use xlink:href="#m2e7934803f" x="232.967091" y="85.411814" style="stroke: #000000; stroke-width: 0.5"/>
      </g>
     </g>
    </g>
    <g id="ytick_12">
     <g id="line2d_74">
      <g>
       <use xlink:href="#m901a52614e" x="37.667091" y="77.447041" style="stroke: #000000; stroke-width: 0.5"/>
      </g>
     </g>
     <g id="line2d_75">
      <g>
       <use xlink:href="#m2e7934803f" x="232.967091" y="77.447041" style="stroke: #000000; stroke-width: 0.5"/>
      </g>
     </g>
    </g>
    <g id="ytick_13">
     <g id="line2d_76">
      <g>
       <use xlink:href="#m901a52614e" x="37.667091" y="61.517495" style="stroke: #000000; stroke-width: 0.5"/>
      </g>
     </g>
     <g id="line2d_77">
      <g>
       <use xlink:href="#m2e7934803f" x="232.967091" y="61.517495" style="stroke: #000000; stroke-width: 0.5"/>
      </g>
     </g>
    </g>
    <g id="ytick_14">
     <g id="line2d_78">
      <g>
       <use xlink:href="#m901a52614e" x="37.667091" y="53.552722" style="stroke: #000000; stroke-width: 0.5"/>
      </g>
     </g>
     <g id="line2d_79">
      <g>
       <use xlink:href="#m2e7934803f" x="232.967091" y="53.552722" style="stroke: #000000; stroke-width: 0.5"/>
      </g>
     </g>
    </g>
    <g id="ytick_15">
     <g id="line2d_80">
      <g>
       <use xlink:href="#m901a52614e" x="37.667091" y="45.587949" style="stroke: #000000; stroke-width: 0.5"/>
      </g>
     </g>
     <g id="line2d_81">
      <g>
       <use xlink:href="#m2e7934803f" x="232.967091" y="45.587949" style="stroke: #000000; stroke-width: 0.5"/>
      </g>
     </g>
    </g>
    <g id="ytick_16">
     <g id="line2d_82">
      <g>
       <use xlink:href="#m901a52614e" x="37.667091" y="37.623175" style="stroke: #000000; stroke-width: 0.5"/>
      </g>
     </g>
     <g id="line2d_83">
      <g>
       <use xlink:href="#m2e7934803f" x="232.967091" y="37.623175" style="stroke: #000000; stroke-width: 0.5"/>
      </g>
     </g>
    </g>
    <g id="ytick_17">
     <g id="line2d_84">
      <g>
       <use xlink:href="#m901a52614e" x="37.667091" y="21.693629" style="stroke: #000000; stroke-width: 0.5"/>
      </g>
     </g>
     <g id="line2d_85">
      <g>
       <use xlink:href="#m2e7934803f" x="232.967091" y="21.693629" style="stroke: #000000; stroke-width: 0.5"/>
      </g>
     </g>
    </g>
    <g id="ytick_18">
     <g id="line2d_86">
      <g>
       <use xlink:href="#m901a52614e" x="37.667091" y="13.728856" style="stroke: #000000; stroke-width: 0.5"/>
      </g>
     </g>
     <g id="line2d_87">
      <g>
       <use xlink:href="#m2e7934803f" x="232.967091" y="13.728856" style="stroke: #000000; stroke-width: 0.5"/>
      </g>
     </g>
    </g>
    <g id="ytick_19">
     <g id="line2d_88">
      <g>
       <use xlink:href="#m901a52614e" x="37.667091" y="5.764083" style="stroke: #000000; stroke-width: 0.5"/>
      </g>
     </g>
     <g id="line2d_89">
      <g>
       <use xlink:href="#m2e7934803f" x="232.967091" y="5.764083" style="stroke: #000000; stroke-width: 0.5"/>
      </g>
     </g>
    </g>
    <g id="text_11">
     <!-- Density -->
     <g transform="translate(10.518498 92.92792) rotate(-90) scale(0.1 -0.1)">
      <defs>
       <path id="CMR17-44" d="M 333 4352 
L 333 4186 
C 774 4186 845 4186 845 3900 
L 845 452 
C 845 166 774 166 333 166 
L 333 0 
L 2368 0 
C 3398 0 4224 943 4224 2141 
C 4224 3346 3411 4352 2368 4352 
L 333 4352 
z
M 1523 166 
C 1267 166 1254 197 1254 414 
L 1254 3938 
C 1254 4155 1267 4186 1523 4186 
L 2240 4186 
C 2771 4186 3750 3874 3750 2141 
C 3750 1242 3488 879 3366 707 
C 3213 510 2848 166 2240 166 
L 1523 166 
z
" transform="scale(0.015625)"/>
       <path id="CMR17-65" d="M 2438 1472 
C 2464 1498 2464 1511 2464 1576 
C 2464 2238 2118 2816 1389 2816 
C 710 2816 173 2169 173 1383 
C 173 551 781 -64 1459 -64 
C 2176 -64 2458 607 2458 740 
C 2458 784 2419 784 2406 784 
C 2362 784 2355 771 2330 696 
C 2189 265 1837 51 1504 51 
C 1229 51 954 203 781 480 
C 582 803 582 1176 582 1472 
L 2438 1472 
z
M 589 1568 
C 634 2505 1126 2714 1382 2714 
C 1818 2714 2112 2297 2118 1568 
L 589 1568 
z
" transform="scale(0.015625)"/>
       <path id="CMR17-6e" d="M 2656 1933 
C 2656 2259 2592 2790 1837 2790 
C 1331 2790 1069 2400 973 2144 
L 966 2144 
L 966 2790 
L 211 2720 
L 211 2554 
C 589 2554 646 2515 646 2208 
L 646 428 
C 646 184 621 153 211 153 
L 211 -13 
C 365 0 646 0 813 0 
C 979 0 1267 0 1421 -13 
L 1421 153 
C 1011 153 986 178 986 428 
L 986 1658 
C 986 2247 1344 2688 1792 2688 
C 2266 2688 2317 2266 2317 1958 
L 2317 428 
C 2317 184 2291 153 1882 153 
L 1882 -13 
C 2035 0 2317 0 2483 0 
C 2650 0 2938 0 3091 -13 
L 3091 153 
C 2682 153 2656 178 2656 428 
L 2656 1933 
z
" transform="scale(0.015625)"/>
       <path id="CMR17-73" d="M 1978 2697 
C 1978 2813 1971 2819 1933 2819 
C 1907 2819 1901 2813 1824 2717 
C 1805 2691 1747 2626 1728 2601 
C 1523 2819 1235 2819 1126 2819 
C 416 2819 160 2447 160 2076 
C 160 1498 813 1365 998 1325 
C 1402 1243 1542 1217 1677 1101 
C 1760 1025 1901 884 1901 654 
C 1901 384 1747 38 1158 38 
C 602 38 403 460 288 1021 
C 269 1110 269 1117 218 1117 
C 166 1117 160 1110 160 983 
L 160 63 
C 160 -51 166 -58 205 -58 
C 237 -58 243 -51 275 0 
C 314 57 410 211 448 276 
C 576 103 800 -64 1158 -64 
C 1792 -64 2131 283 2131 784 
C 2131 1112 1958 1285 1875 1362 
C 1683 1561 1459 1606 1190 1657 
C 838 1735 390 1825 390 2217 
C 390 2383 480 2737 1126 2737 
C 1811 2737 1850 2094 1862 1888 
C 1869 1856 1901 1849 1920 1849 
C 1978 1849 1978 1869 1978 1978 
L 1978 2697 
z
" transform="scale(0.015625)"/>
       <path id="CMR17-69" d="M 992 3909 
C 992 4049 877 4170 730 4170 
C 589 4170 467 4056 467 3909 
C 467 3769 582 3648 730 3648 
C 870 3648 992 3763 992 3909 
z
M 243 2706 
L 243 2541 
C 602 2541 653 2502 653 2197 
L 653 427 
C 653 184 627 153 218 153 
L 218 -13 
C 371 0 646 0 806 0 
C 960 0 1222 0 1370 -13 
L 1370 153 
C 992 153 979 191 979 420 
L 979 2776 
L 243 2706 
z
" transform="scale(0.015625)"/>
       <path id="CMR17-74" d="M 966 2560 
L 1862 2560 
L 1862 2725 
L 966 2725 
L 966 3904 
L 851 3904 
C 838 3245 614 2668 70 2668 
L 70 2560 
L 627 2560 
L 627 771 
C 627 650 627 -64 1370 -64 
C 1747 -64 1965 306 1965 777 
L 1965 1140 
L 1850 1140 
L 1850 783 
C 1850 344 1677 51 1408 51 
C 1222 51 966 178 966 758 
L 966 2560 
z
" transform="scale(0.015625)"/>
       <path id="CMR17-79" d="M 2496 2197 
C 2656 2586 2944 2586 3034 2586 
L 3034 2752 
C 2912 2752 2752 2752 2630 2752 
C 2496 2752 2285 2752 2157 2758 
L 2157 2592 
C 2400 2573 2406 2394 2406 2343 
C 2406 2280 2394 2248 2362 2171 
L 1664 449 
L 902 2306 
C 870 2382 870 2426 870 2433 
C 870 2573 1018 2586 1171 2586 
L 1171 2758 
C 1018 2752 742 2752 582 2752 
C 410 2752 205 2752 64 2758 
L 64 2586 
C 410 2586 448 2554 531 2350 
L 1485 15 
C 1197 -738 1030 -1178 627 -1178 
C 557 -1178 397 -1159 282 -1044 
C 429 -1031 493 -942 493 -833 
C 493 -725 416 -629 288 -629 
C 147 -629 77 -725 77 -840 
C 77 -1095 339 -1280 627 -1280 
C 998 -1280 1229 -922 1357 -604 
L 2496 2197 
z
" transform="scale(0.015625)"/>
      </defs>
      <use xlink:href="#CMR17-44" transform="scale(0.996264)"/>
      <use xlink:href="#CMR17-65" transform="translate(70.393556 0) scale(0.996264)"/>
      <use xlink:href="#CMR17-6e" transform="translate(110.879216 0) scale(0.996264)"/>
      <use xlink:href="#CMR17-73" transform="translate(161.774586 0) scale(0.996264)"/>
      <use xlink:href="#CMR17-69" transform="translate(197.575924 0) scale(0.996264)"/>
      <use xlink:href="#CMR17-74" transform="translate(222.446982 0) scale(0.996264)"/>
      <use xlink:href="#CMR17-79" transform="translate(255.125296 0) scale(0.996264)"/>
     </g>
    </g>
   </g>
   <g id="FillBetweenPolyCollection_1">
    <path d="M -26.423123 149.014673 
L -26.423123 149.13 
L -25.040001 149.13 
L -23.656878 149.13 
L -22.273756 149.13 
L -20.890634 149.13 
L -19.507512 149.13 
L -18.124389 149.13 
L -16.741267 149.13 
L -15.358145 149.13 
L -13.975023 149.13 
L -12.5919 149.13 
L -11.208778 149.13 
L -9.825656 149.13 
L -8.442534 149.13 
L -7.059411 149.13 
L -5.676289 149.13 
L -4.293167 149.13 
L -2.910045 149.13 
L -1.526922 149.13 
L -0.1438 149.13 
L 1.239322 149.13 
L 2.622444 149.13 
L 4.005567 149.13 
L 5.388689 149.13 
L 6.771811 149.13 
L 8.154933 149.13 
L 9.538056 149.13 
L 10.921178 149.13 
L 12.3043 149.13 
L 13.687422 149.13 
L 15.070545 149.13 
L 16.453667 149.13 
L 17.836789 149.13 
L 19.219911 149.13 
L 20.603034 149.13 
L 21.986156 149.13 
L 23.369278 149.13 
L 24.7524 149.13 
L 26.135523 149.13 
L 27.518645 149.13 
L 28.901767 149.13 
L 30.284889 149.13 
L 31.668012 149.13 
L 33.051134 149.13 
L 34.434256 149.13 
L 35.817378 149.13 
L 37.200501 149.13 
L 38.583623 149.13 
L 39.966745 149.13 
L 41.349867 149.13 
L 42.73299 149.13 
L 44.116112 149.13 
L 45.499234 149.13 
L 46.882356 149.13 
L 48.265479 149.13 
L 49.648601 149.13 
L 51.031723 149.13 
L 52.414845 149.13 
L 53.797968 149.13 
L 55.18109 149.13 
L 56.564212 149.13 
L 57.947334 149.13 
L 59.330457 149.13 
L 60.713579 149.13 
L 62.096701 149.13 
L 63.479823 149.13 
L 64.862946 149.13 
L 66.246068 149.13 
L 67.62919 149.13 
L 69.012312 149.13 
L 70.395435 149.13 
L 71.778557 149.13 
L 73.161679 149.13 
L 74.544801 149.13 
L 75.927924 149.13 
L 77.311046 149.13 
L 78.694168 149.13 
L 80.07729 149.13 
L 81.460413 149.13 
L 82.843535 149.13 
L 84.226657 149.13 
L 85.609779 149.13 
L 86.992902 149.13 
L 88.376024 149.13 
L 89.759146 149.13 
L 91.142268 149.13 
L 92.525391 149.13 
L 93.908513 149.13 
L 95.291635 149.13 
L 96.674757 149.13 
L 98.05788 149.13 
L 99.441002 149.13 
L 100.824124 149.13 
L 102.207246 149.13 
L 103.590369 149.13 
L 104.973491 149.13 
L 106.356613 149.13 
L 107.739735 149.13 
L 109.122858 149.13 
L 110.50598 149.13 
L 111.889102 149.13 
L 113.272224 149.13 
L 114.655347 149.13 
L 116.038469 149.13 
L 117.421591 149.13 
L 118.804713 149.13 
L 120.187836 149.13 
L 121.570958 149.13 
L 122.95408 149.13 
L 124.337202 149.13 
L 125.720325 149.13 
L 127.103447 149.13 
L 128.486569 149.13 
L 129.869691 149.13 
L 131.252814 149.13 
L 132.635936 149.13 
L 134.019058 149.13 
L 135.40218 149.13 
L 136.785303 149.13 
L 138.168425 149.13 
L 139.551547 149.13 
L 140.934669 149.13 
L 142.317792 149.13 
L 143.700914 149.13 
L 145.084036 149.13 
L 146.467158 149.13 
L 147.850281 149.13 
L 149.233403 149.13 
L 150.616525 149.13 
L 151.999647 149.13 
L 153.38277 149.13 
L 154.765892 149.13 
L 156.149014 149.13 
L 157.532136 149.13 
L 158.915259 149.13 
L 160.298381 149.13 
L 161.681503 149.13 
L 163.064625 149.13 
L 164.447748 149.13 
L 165.83087 149.13 
L 167.213992 149.13 
L 168.597114 149.13 
L 169.980237 149.13 
L 171.363359 149.13 
L 172.746481 149.13 
L 174.129603 149.13 
L 175.512726 149.13 
L 176.895848 149.13 
L 178.27897 149.13 
L 179.662092 149.13 
L 181.045215 149.13 
L 182.428337 149.13 
L 183.811459 149.13 
L 185.194581 149.13 
L 186.577704 149.13 
L 187.960826 149.13 
L 189.343948 149.13 
L 190.72707 149.13 
L 192.110193 149.13 
L 193.493315 149.13 
L 194.876437 149.13 
L 196.259559 149.13 
L 197.642682 149.13 
L 199.025804 149.13 
L 200.408926 149.13 
L 201.792048 149.13 
L 203.175171 149.13 
L 204.558293 149.13 
L 205.941415 149.13 
L 207.324537 149.13 
L 208.707659 149.13 
L 210.090782 149.13 
L 211.473904 149.13 
L 212.857026 149.13 
L 214.240148 149.13 
L 215.623271 149.13 
L 217.006393 149.13 
L 218.389515 149.13 
L 219.772637 149.13 
L 221.15576 149.13 
L 222.538882 149.13 
L 223.922004 149.13 
L 225.305126 149.13 
L 226.688249 149.13 
L 228.071371 149.13 
L 229.454493 149.13 
L 230.837615 149.13 
L 232.220738 149.13 
L 233.60386 149.13 
L 234.986982 149.13 
L 236.370104 149.13 
L 237.753227 149.13 
L 239.136349 149.13 
L 240.519471 149.13 
L 241.902593 149.13 
L 243.285716 149.13 
L 244.668838 149.13 
L 246.05196 149.13 
L 247.435082 149.13 
L 248.818205 149.13 
L 248.818205 148.837683 
L 248.818205 148.837683 
L 247.435082 148.776274 
L 246.05196 148.703713 
L 244.668838 148.618363 
L 243.285716 148.518427 
L 241.902593 148.401951 
L 240.519471 148.266819 
L 239.136349 148.11077 
L 237.753227 147.931399 
L 236.370104 147.726185 
L 234.986982 147.492504 
L 233.60386 147.22766 
L 232.220738 146.928921 
L 230.837615 146.593553 
L 229.454493 146.218873 
L 228.071371 145.802294 
L 226.688249 145.341381 
L 225.305126 144.833917 
L 223.922004 144.277958 
L 222.538882 143.671903 
L 221.15576 143.014558 
L 219.772637 142.305197 
L 218.389515 141.543627 
L 217.006393 140.730236 
L 215.623271 139.866049 
L 214.240148 138.952756 
L 212.857026 137.992749 
L 211.473904 136.989126 
L 210.090782 135.945695 
L 208.707659 134.866956 
L 207.324537 133.758063 
L 205.941415 132.624778 
L 204.558293 131.473395 
L 203.175171 130.310661 
L 201.792048 129.14367 
L 200.408926 127.979751 
L 199.025804 126.826341 
L 197.642682 125.69085 
L 196.259559 124.580519 
L 194.876437 123.502282 
L 193.493315 122.462621 
L 192.110193 121.467432 
L 190.72707 120.521901 
L 189.343948 119.63039 
L 187.960826 118.79634 
L 186.577704 118.022194 
L 185.194581 117.309341 
L 183.811459 116.658084 
L 182.428337 116.067633 
L 181.045215 115.53612 
L 179.662092 115.060644 
L 178.27897 114.637331 
L 176.895848 114.261427 
L 175.512726 113.927401 
L 174.129603 113.629069 
L 172.746481 113.359728 
L 171.363359 113.112304 
L 169.980237 112.879502 
L 168.597114 112.653959 
L 167.213992 112.428393 
L 165.83087 112.195751 
L 164.447748 111.949342 
L 163.064625 111.682964 
L 161.681503 111.391011 
L 160.298381 111.068571 
L 158.915259 110.711496 
L 157.532136 110.316468 
L 156.149014 109.881034 
L 154.765892 109.403628 
L 153.38277 108.883579 
L 151.999647 108.321095 
L 150.616525 107.717241 
L 149.233403 107.073898 
L 147.850281 106.393714 
L 146.467158 105.680045 
L 145.084036 104.936888 
L 143.700914 104.168812 
L 142.317792 103.380884 
L 140.934669 102.578592 
L 139.551547 101.76777 
L 138.168425 100.954524 
L 136.785303 100.14516 
L 135.40218 99.346116 
L 134.019058 98.563895 
L 132.635936 97.805004 
L 131.252814 97.0759 
L 129.869691 96.382935 
L 128.486569 95.732307 
L 127.103447 95.130018 
L 125.720325 94.581833 
L 124.337202 94.09324 
L 122.95408 93.669421 
L 121.570958 93.315212 
L 120.187836 93.03508 
L 118.804713 92.833091 
L 117.421591 92.712882 
L 116.038469 92.677638 
L 114.655347 92.730062 
L 113.272224 92.872353 
L 111.889102 93.106181 
L 110.50598 93.432664 
L 109.122858 93.852344 
L 107.739735 94.365168 
L 106.356613 94.970467 
L 104.973491 95.666943 
L 103.590369 96.452651 
L 102.207246 97.324991 
L 100.824124 98.280708 
L 99.441002 99.315887 
L 98.05788 100.425965 
L 96.674757 101.605744 
L 95.291635 102.849417 
L 93.908513 104.150599 
L 92.525391 105.502366 
L 91.142268 106.897312 
L 89.759146 108.327604 
L 88.376024 109.785057 
L 86.992902 111.261209 
L 85.609779 112.747413 
L 84.226657 114.234928 
L 82.843535 115.715021 
L 81.460413 117.179073 
L 80.07729 118.618688 
L 78.694168 120.025796 
L 77.311046 121.392765 
L 75.927924 122.712506 
L 74.544801 123.978563 
L 73.161679 125.185211 
L 71.778557 126.32753 
L 70.395435 127.401475 
L 69.012312 128.40393 
L 67.62919 129.332744 
L 66.246068 130.186757 
L 64.862946 130.965803 
L 63.479823 131.670699 
L 62.096701 132.303216 
L 60.713579 132.866029 
L 59.330457 133.362661 
L 57.947334 133.797397 
L 56.564212 134.175201 
L 55.18109 134.501608 
L 53.797968 134.782616 
L 52.414845 135.024564 
L 51.031723 135.234013 
L 49.648601 135.417619 
L 48.265479 135.582012 
L 46.882356 135.733673 
L 45.499234 135.878826 
L 44.116112 136.023331 
L 42.73299 136.17259 
L 41.349867 136.331466 
L 39.966745 136.504217 
L 38.583623 136.694448 
L 37.200501 136.905066 
L 35.817378 137.138271 
L 34.434256 137.395543 
L 33.051134 137.677662 
L 31.668012 137.984727 
L 30.284889 138.316198 
L 28.901767 138.67095 
L 27.518645 139.047329 
L 26.135523 139.443221 
L 24.7524 139.856131 
L 23.369278 140.283255 
L 21.986156 140.721563 
L 20.603034 141.167878 
L 19.219911 141.618951 
L 17.836789 142.071534 
L 16.453667 142.522449 
L 15.070545 142.968644 
L 13.687422 143.407249 
L 12.3043 143.835621 
L 10.921178 144.251374 
L 9.538056 144.652413 
L 8.154933 145.036943 
L 6.771811 145.403485 
L 5.388689 145.750878 
L 4.005567 146.078265 
L 2.622444 146.385093 
L 1.239322 146.671087 
L -0.1438 146.936232 
L -1.526922 147.180749 
L -2.910045 147.405066 
L -4.293167 147.609792 
L -5.676289 147.795687 
L -7.059411 147.963632 
L -8.442534 148.114604 
L -9.825656 148.249648 
L -11.208778 148.369854 
L -12.5919 148.476332 
L -13.975023 148.570195 
L -15.358145 148.652543 
L -16.741267 148.724445 
L -18.124389 148.78693 
L -19.507512 148.840977 
L -20.890634 148.887507 
L -22.273756 148.92738 
L -23.656878 148.96139 
L -25.040001 148.990267 
L -26.423123 149.014673 
z
" clip-path="url(#p33ec3a413f)" style="fill: #d9c55c; fill-opacity: 0.25; stroke: #d9c55c"/>
   </g>
   <g id="FillBetweenPolyCollection_2">
    <path d="M -27.155133 149.019066 
L -27.155133 149.13 
L -25.764654 149.13 
L -24.374175 149.13 
L -22.983696 149.13 
L -21.593217 149.13 
L -20.202738 149.13 
L -18.812258 149.13 
L -17.421779 149.13 
L -16.0313 149.13 
L -14.640821 149.13 
L -13.250342 149.13 
L -11.859863 149.13 
L -10.469384 149.13 
L -9.078904 149.13 
L -7.688425 149.13 
L -6.297946 149.13 
L -4.907467 149.13 
L -3.516988 149.13 
L -2.126509 149.13 
L -0.73603 149.13 
L 0.654449 149.13 
L 2.044929 149.13 
L 3.435408 149.13 
L 4.825887 149.13 
L 6.216366 149.13 
L 7.606845 149.13 
L 8.997324 149.13 
L 10.387803 149.13 
L 11.778283 149.13 
L 13.168762 149.13 
L 14.559241 149.13 
L 15.94972 149.13 
L 17.340199 149.13 
L 18.730678 149.13 
L 20.121157 149.13 
L 21.511637 149.13 
L 22.902116 149.13 
L 24.292595 149.13 
L 25.683074 149.13 
L 27.073553 149.13 
L 28.464032 149.13 
L 29.854511 149.13 
L 31.244991 149.13 
L 32.63547 149.13 
L 34.025949 149.13 
L 35.416428 149.13 
L 36.806907 149.13 
L 38.197386 149.13 
L 39.587865 149.13 
L 40.978344 149.13 
L 42.368824 149.13 
L 43.759303 149.13 
L 45.149782 149.13 
L 46.540261 149.13 
L 47.93074 149.13 
L 49.321219 149.13 
L 50.711698 149.13 
L 52.102178 149.13 
L 53.492657 149.13 
L 54.883136 149.13 
L 56.273615 149.13 
L 57.664094 149.13 
L 59.054573 149.13 
L 60.445052 149.13 
L 61.835532 149.13 
L 63.226011 149.13 
L 64.61649 149.13 
L 66.006969 149.13 
L 67.397448 149.13 
L 68.787927 149.13 
L 70.178406 149.13 
L 71.568886 149.13 
L 72.959365 149.13 
L 74.349844 149.13 
L 75.740323 149.13 
L 77.130802 149.13 
L 78.521281 149.13 
L 79.91176 149.13 
L 81.302239 149.13 
L 82.692719 149.13 
L 84.083198 149.13 
L 85.473677 149.13 
L 86.864156 149.13 
L 88.254635 149.13 
L 89.645114 149.13 
L 91.035593 149.13 
L 92.426073 149.13 
L 93.816552 149.13 
L 95.207031 149.13 
L 96.59751 149.13 
L 97.987989 149.13 
L 99.378468 149.13 
L 100.768947 149.13 
L 102.159427 149.13 
L 103.549906 149.13 
L 104.940385 149.13 
L 106.330864 149.13 
L 107.721343 149.13 
L 109.111822 149.13 
L 110.502301 149.13 
L 111.892781 149.13 
L 113.28326 149.13 
L 114.673739 149.13 
L 116.064218 149.13 
L 117.454697 149.13 
L 118.845176 149.13 
L 120.235655 149.13 
L 121.626134 149.13 
L 123.016614 149.13 
L 124.407093 149.13 
L 125.797572 149.13 
L 127.188051 149.13 
L 128.57853 149.13 
L 129.969009 149.13 
L 131.359488 149.13 
L 132.749968 149.13 
L 134.140447 149.13 
L 135.530926 149.13 
L 136.921405 149.13 
L 138.311884 149.13 
L 139.702363 149.13 
L 141.092842 149.13 
L 142.483322 149.13 
L 143.873801 149.13 
L 145.26428 149.13 
L 146.654759 149.13 
L 148.045238 149.13 
L 149.435717 149.13 
L 150.826196 149.13 
L 152.216675 149.13 
L 153.607155 149.13 
L 154.997634 149.13 
L 156.388113 149.13 
L 157.778592 149.13 
L 159.169071 149.13 
L 160.55955 149.13 
L 161.950029 149.13 
L 163.340509 149.13 
L 164.730988 149.13 
L 166.121467 149.13 
L 167.511946 149.13 
L 168.902425 149.13 
L 170.292904 149.13 
L 171.683383 149.13 
L 173.073863 149.13 
L 174.464342 149.13 
L 175.854821 149.13 
L 177.2453 149.13 
L 178.635779 149.13 
L 180.026258 149.13 
L 181.416737 149.13 
L 182.807217 149.13 
L 184.197696 149.13 
L 185.588175 149.13 
L 186.978654 149.13 
L 188.369133 149.13 
L 189.759612 149.13 
L 191.150091 149.13 
L 192.54057 149.13 
L 193.93105 149.13 
L 195.321529 149.13 
L 196.712008 149.13 
L 198.102487 149.13 
L 199.492966 149.13 
L 200.883445 149.13 
L 202.273924 149.13 
L 203.664404 149.13 
L 205.054883 149.13 
L 206.445362 149.13 
L 207.835841 149.13 
L 209.22632 149.13 
L 210.616799 149.13 
L 212.007278 149.13 
L 213.397758 149.13 
L 214.788237 149.13 
L 216.178716 149.13 
L 217.569195 149.13 
L 218.959674 149.13 
L 220.350153 149.13 
L 221.740632 149.13 
L 223.131112 149.13 
L 224.521591 149.13 
L 225.91207 149.13 
L 227.302549 149.13 
L 228.693028 149.13 
L 230.083507 149.13 
L 231.473986 149.13 
L 232.864465 149.13 
L 234.254945 149.13 
L 235.645424 149.13 
L 237.035903 149.13 
L 238.426382 149.13 
L 239.816861 149.13 
L 241.20734 149.13 
L 242.597819 149.13 
L 243.988299 149.13 
L 245.378778 149.13 
L 246.769257 149.13 
L 248.159736 149.13 
L 249.550215 149.13 
L 249.550215 148.840598 
L 249.550215 148.840598 
L 248.159736 148.780157 
L 246.769257 148.708794 
L 245.378778 148.624913 
L 243.988299 148.526762 
L 242.597819 148.412431 
L 241.20734 148.279853 
L 239.816861 148.126815 
L 238.426382 147.950965 
L 237.035903 147.749827 
L 235.645424 147.520821 
L 234.254945 147.261291 
L 232.864465 146.968534 
L 231.473986 146.639835 
L 230.083507 146.272512 
L 228.693028 145.863961 
L 227.302549 145.411711 
L 225.91207 144.913474 
L 224.521591 144.36721 
L 223.131112 143.771184 
L 221.740632 143.124028 
L 220.350153 142.4248 
L 218.959674 141.673044 
L 217.569195 140.868838 
L 216.178716 140.012843 
L 214.788237 139.106339 
L 213.397758 138.151253 
L 212.007278 137.150176 
L 210.616799 136.106363 
L 209.22632 135.023721 
L 207.835841 133.906782 
L 206.445362 132.760662 
L 205.054883 131.590998 
L 203.664404 130.403879 
L 202.273924 129.205755 
L 200.883445 128.00334 
L 199.492966 126.803496 
L 198.102487 125.613123 
L 196.712008 124.439027 
L 195.321529 123.2878 
L 193.93105 122.165692 
L 192.54057 121.078496 
L 191.150091 120.03143 
L 189.759612 119.029041 
L 188.369133 118.075118 
L 186.978654 117.172621 
L 185.588175 116.323633 
L 184.197696 115.529326 
L 182.807217 114.789954 
L 181.416737 114.104864 
L 180.026258 113.472532 
L 178.635779 112.890615 
L 177.2453 112.356023 
L 175.854821 111.865005 
L 174.464342 111.413259 
L 173.073863 110.996033 
L 171.683383 110.608256 
L 170.292904 110.244653 
L 168.902425 109.899874 
L 167.511946 109.568616 
L 166.121467 109.245734 
L 164.730988 108.926353 
L 163.340509 108.605959 
L 161.950029 108.280486 
L 160.55955 107.946383 
L 159.169071 107.600665 
L 157.778592 107.240953 
L 156.388113 106.865498 
L 154.997634 106.473181 
L 153.607155 106.063515 
L 152.216675 105.636618 
L 150.826196 105.193188 
L 149.435717 104.734459 
L 148.045238 104.262158 
L 146.654759 103.778448 
L 145.26428 103.285875 
L 143.873801 102.78731 
L 142.483322 102.285887 
L 141.092842 101.784953 
L 139.702363 101.28801 
L 138.311884 100.798665 
L 136.921405 100.320584 
L 135.530926 99.857454 
L 134.140447 99.412943 
L 132.749968 98.990674 
L 131.359488 98.594199 
L 129.969009 98.226977 
L 128.57853 97.892361 
L 127.188051 97.593585 
L 125.797572 97.333754 
L 124.407093 97.115842 
L 123.016614 96.942684 
L 121.626134 96.816971 
L 120.235655 96.741251 
L 118.845176 96.717917 
L 117.454697 96.749209 
L 116.064218 96.837195 
L 114.673739 96.98377 
L 113.28326 97.190633 
L 111.892781 97.459274 
L 110.502301 97.790949 
L 109.111822 98.186657 
L 107.721343 98.647113 
L 106.330864 99.172713 
L 104.940385 99.763509 
L 103.549906 100.419168 
L 102.159427 101.138944 
L 100.768947 101.921644 
L 99.378468 102.7656 
L 97.987989 103.668643 
L 96.59751 104.628084 
L 95.207031 105.6407 
L 93.816552 106.702733 
L 92.426073 107.809888 
L 91.035593 108.957354 
L 89.645114 110.139828 
L 88.254635 111.351552 
L 86.864156 112.586359 
L 85.473677 113.837741 
L 84.083198 115.098913 
L 82.692719 116.362897 
L 81.302239 117.622613 
L 79.91176 118.870975 
L 78.521281 120.10099 
L 77.130802 121.305867 
L 75.740323 122.479122 
L 74.349844 123.614679 
L 72.959365 124.706969 
L 71.568886 125.751027 
L 70.178406 126.742569 
L 68.787927 127.678064 
L 67.397448 128.554795 
L 66.006969 129.3709 
L 64.61649 130.125397 
L 63.226011 130.818191 
L 61.835532 131.450069 
L 60.445052 132.022672 
L 59.054573 132.538448 
L 57.664094 133.000596 
L 56.273615 133.412986 
L 54.883136 133.780076 
L 53.492657 134.106809 
L 52.102178 134.398509 
L 50.711698 134.660762 
L 49.321219 134.899306 
L 47.93074 135.119909 
L 46.540261 135.328257 
L 45.149782 135.529843 
L 43.759303 135.729865 
L 42.368824 135.933137 
L 40.978344 136.144005 
L 39.587865 136.366282 
L 38.197386 136.603193 
L 36.806907 136.857342 
L 35.416428 137.130686 
L 34.025949 137.424531 
L 32.63547 137.739541 
L 31.244991 138.075756 
L 29.854511 138.432635 
L 28.464032 138.809096 
L 27.073553 139.203576 
L 25.683074 139.614093 
L 24.292595 140.038314 
L 22.902116 140.473633 
L 21.511637 140.917237 
L 20.121157 141.366189 
L 18.730678 141.81749 
L 17.340199 142.268155 
L 15.94972 142.715269 
L 14.559241 143.156045 
L 13.168762 143.587873 
L 11.778283 144.008359 
L 10.387803 144.415357 
L 8.997324 144.806994 
L 7.606845 145.181685 
L 6.216366 145.538138 
L 4.825887 145.87536 
L 3.435408 146.192645 
L 2.044929 146.489566 
L 0.654449 146.765955 
L -0.73603 147.021886 
L -2.126509 147.257648 
L -3.516988 147.473722 
L -4.907467 147.670752 
L -6.297946 147.849519 
L -7.688425 148.010914 
L -9.078904 148.15591 
L -10.469384 148.285541 
L -11.859863 148.400877 
L -13.250342 148.503005 
L -14.640821 148.593006 
L -16.0313 148.671949 
L -17.421779 148.740866 
L -18.812258 148.800753 
L -20.202738 148.85255 
L -21.593217 148.897145 
L -22.983696 148.935364 
L -24.374175 148.967968 
L -25.764654 148.995657 
L -27.155133 149.019066 
z
" clip-path="url(#p33ec3a413f)" style="fill: #b1a570; fill-opacity: 0.25; stroke: #b1a570"/>
   </g>
   <g id="FillBetweenPolyCollection_3">
    <path d="M -20.493125 149.038318 
L -20.493125 149.13 
L -19.1696 149.13 
L -17.846076 149.13 
L -16.522552 149.13 
L -15.199028 149.13 
L -13.875503 149.13 
L -12.551979 149.13 
L -11.228455 149.13 
L -9.904931 149.13 
L -8.581406 149.13 
L -7.257882 149.13 
L -5.934358 149.13 
L -4.610833 149.13 
L -3.287309 149.13 
L -1.963785 149.13 
L -0.640261 149.13 
L 0.683264 149.13 
L 2.006788 149.13 
L 3.330312 149.13 
L 4.653837 149.13 
L 5.977361 149.13 
L 7.300885 149.13 
L 8.624409 149.13 
L 9.947934 149.13 
L 11.271458 149.13 
L 12.594982 149.13 
L 13.918506 149.13 
L 15.242031 149.13 
L 16.565555 149.13 
L 17.889079 149.13 
L 19.212604 149.13 
L 20.536128 149.13 
L 21.859652 149.13 
L 23.183176 149.13 
L 24.506701 149.13 
L 25.830225 149.13 
L 27.153749 149.13 
L 28.477274 149.13 
L 29.800798 149.13 
L 31.124322 149.13 
L 32.447846 149.13 
L 33.771371 149.13 
L 35.094895 149.13 
L 36.418419 149.13 
L 37.741943 149.13 
L 39.065468 149.13 
L 40.388992 149.13 
L 41.712516 149.13 
L 43.036041 149.13 
L 44.359565 149.13 
L 45.683089 149.13 
L 47.006613 149.13 
L 48.330138 149.13 
L 49.653662 149.13 
L 50.977186 149.13 
L 52.300711 149.13 
L 53.624235 149.13 
L 54.947759 149.13 
L 56.271283 149.13 
L 57.594808 149.13 
L 58.918332 149.13 
L 60.241856 149.13 
L 61.565381 149.13 
L 62.888905 149.13 
L 64.212429 149.13 
L 65.535953 149.13 
L 66.859478 149.13 
L 68.183002 149.13 
L 69.506526 149.13 
L 70.83005 149.13 
L 72.153575 149.13 
L 73.477099 149.13 
L 74.800623 149.13 
L 76.124148 149.13 
L 77.447672 149.13 
L 78.771196 149.13 
L 80.09472 149.13 
L 81.418245 149.13 
L 82.741769 149.13 
L 84.065293 149.13 
L 85.388818 149.13 
L 86.712342 149.13 
L 88.035866 149.13 
L 89.35939 149.13 
L 90.682915 149.13 
L 92.006439 149.13 
L 93.329963 149.13 
L 94.653487 149.13 
L 95.977012 149.13 
L 97.300536 149.13 
L 98.62406 149.13 
L 99.947585 149.13 
L 101.271109 149.13 
L 102.594633 149.13 
L 103.918157 149.13 
L 105.241682 149.13 
L 106.565206 149.13 
L 107.88873 149.13 
L 109.212255 149.13 
L 110.535779 149.13 
L 111.859303 149.13 
L 113.182827 149.13 
L 114.506352 149.13 
L 115.829876 149.13 
L 117.1534 149.13 
L 118.476924 149.13 
L 119.800449 149.13 
L 121.123973 149.13 
L 122.447497 149.13 
L 123.771022 149.13 
L 125.094546 149.13 
L 126.41807 149.13 
L 127.741594 149.13 
L 129.065119 149.13 
L 130.388643 149.13 
L 131.712167 149.13 
L 133.035692 149.13 
L 134.359216 149.13 
L 135.68274 149.13 
L 137.006264 149.13 
L 138.329789 149.13 
L 139.653313 149.13 
L 140.976837 149.13 
L 142.300361 149.13 
L 143.623886 149.13 
L 144.94741 149.13 
L 146.270934 149.13 
L 147.594459 149.13 
L 148.917983 149.13 
L 150.241507 149.13 
L 151.565031 149.13 
L 152.888556 149.13 
L 154.21208 149.13 
L 155.535604 149.13 
L 156.859129 149.13 
L 158.182653 149.13 
L 159.506177 149.13 
L 160.829701 149.13 
L 162.153226 149.13 
L 163.47675 149.13 
L 164.800274 149.13 
L 166.123798 149.13 
L 167.447323 149.13 
L 168.770847 149.13 
L 170.094371 149.13 
L 171.417896 149.13 
L 172.74142 149.13 
L 174.064944 149.13 
L 175.388468 149.13 
L 176.711993 149.13 
L 178.035517 149.13 
L 179.359041 149.13 
L 180.682566 149.13 
L 182.00609 149.13 
L 183.329614 149.13 
L 184.653138 149.13 
L 185.976663 149.13 
L 187.300187 149.13 
L 188.623711 149.13 
L 189.947235 149.13 
L 191.27076 149.13 
L 192.594284 149.13 
L 193.917808 149.13 
L 195.241333 149.13 
L 196.564857 149.13 
L 197.888381 149.13 
L 199.211905 149.13 
L 200.53543 149.13 
L 201.858954 149.13 
L 203.182478 149.13 
L 204.506003 149.13 
L 205.829527 149.13 
L 207.153051 149.13 
L 208.476575 149.13 
L 209.8001 149.13 
L 211.123624 149.13 
L 212.447148 149.13 
L 213.770673 149.13 
L 215.094197 149.13 
L 216.417721 149.13 
L 217.741245 149.13 
L 219.06477 149.13 
L 220.388294 149.13 
L 221.711818 149.13 
L 223.035342 149.13 
L 224.358867 149.13 
L 225.682391 149.13 
L 227.005915 149.13 
L 228.32944 149.13 
L 229.652964 149.13 
L 230.976488 149.13 
L 232.300012 149.13 
L 233.623537 149.13 
L 234.947061 149.13 
L 236.270585 149.13 
L 237.59411 149.13 
L 238.917634 149.13 
L 240.241158 149.13 
L 241.564682 149.13 
L 242.888207 149.13 
L 242.888207 148.854115 
L 242.888207 148.854115 
L 241.564682 148.79276 
L 240.241158 148.719624 
L 238.917634 148.632885 
L 237.59411 148.530531 
L 236.270585 148.410364 
L 234.947061 148.27 
L 233.623537 148.106883 
L 232.300012 147.918297 
L 230.976488 147.701387 
L 229.652964 147.453192 
L 228.32944 147.170677 
L 227.005915 146.850775 
L 225.682391 146.490442 
L 224.358867 146.086712 
L 223.035342 145.636762 
L 221.711818 145.137978 
L 220.388294 144.588033 
L 219.06477 143.98496 
L 217.741245 143.327224 
L 216.417721 142.613804 
L 215.094197 141.844254 
L 213.770673 141.018771 
L 212.447148 140.138245 
L 211.123624 139.204301 
L 209.8001 138.219324 
L 208.476575 137.186467 
L 207.153051 136.109642 
L 205.829527 134.993492 
L 204.506003 133.843338 
L 203.182478 132.665109 
L 201.858954 131.465252 
L 200.53543 130.250622 
L 199.211905 129.028355 
L 197.888381 127.805736 
L 196.564857 126.590042 
L 195.241333 125.388398 
L 193.917808 124.207616 
L 192.594284 123.054053 
L 191.27076 121.933463 
L 189.947235 120.850874 
L 188.623711 119.810481 
L 187.300187 118.815554 
L 185.976663 117.868377 
L 184.653138 116.970214 
L 183.329614 116.1213 
L 182.00609 115.320859 
L 180.682566 114.567158 
L 179.359041 113.857571 
L 178.035517 113.188682 
L 176.711993 112.556397 
L 175.388468 111.956074 
L 174.064944 111.382661 
L 172.74142 110.83084 
L 171.417896 110.295175 
L 170.094371 109.77025 
L 168.770847 109.250799 
L 167.447323 108.731829 
L 166.123798 108.208717 
L 164.800274 107.677302 
L 163.47675 107.133951 
L 162.153226 106.5756 
L 160.829701 105.999794 
L 159.506177 105.404688 
L 158.182653 104.78905 
L 156.859129 104.15224 
L 155.535604 103.494184 
L 154.21208 102.815339 
L 152.888556 102.116654 
L 151.565031 101.399527 
L 150.241507 100.665767 
L 148.917983 99.917555 
L 147.594459 99.157412 
L 146.270934 98.388168 
L 144.94741 97.612941 
L 143.623886 96.835119 
L 142.300361 96.058349 
L 140.976837 95.286521 
L 139.653313 94.523765 
L 138.329789 93.774443 
L 137.006264 93.043135 
L 135.68274 92.33463 
L 134.359216 91.653905 
L 133.035692 91.006106 
L 131.712167 90.396508 
L 130.388643 89.830487 
L 129.065119 89.313466 
L 127.741594 88.850868 
L 126.41807 88.448051 
L 125.094546 88.110252 
L 123.771022 87.842513 
L 122.447497 87.649616 
L 121.123973 87.536016 
L 119.800449 87.505773 
L 118.476924 87.562492 
L 117.1534 87.709266 
L 115.829876 87.948629 
L 114.506352 88.282514 
L 113.182827 88.712222 
L 111.859303 89.238401 
L 110.535779 89.86103 
L 109.212255 90.579416 
L 107.88873 91.3922 
L 106.565206 92.297362 
L 105.241682 93.292245 
L 103.918157 94.373573 
L 102.594633 95.537477 
L 101.271109 96.779529 
L 99.947585 98.094769 
L 98.62406 99.477743 
L 97.300536 100.922535 
L 95.977012 102.422805 
L 94.653487 103.971828 
L 93.329963 105.562531 
L 92.006439 107.187538 
L 90.682915 108.839214 
L 89.35939 110.509711 
L 88.035866 112.191025 
L 86.712342 113.875048 
L 85.388818 115.553629 
L 84.065293 117.218646 
L 82.741769 118.862071 
L 81.418245 120.476048 
L 80.09472 122.05297 
L 78.771196 123.58556 
L 77.447672 125.066953 
L 76.124148 126.490775 
L 74.800623 127.851228 
L 73.477099 129.143155 
L 72.153575 130.362119 
L 70.83005 131.504455 
L 69.506526 132.567328 
L 68.183002 133.54877 
L 66.859478 134.447709 
L 65.535953 135.263982 
L 64.212429 135.998335 
L 62.888905 136.652405 
L 61.565381 137.228695 
L 60.241856 137.730523 
L 58.918332 138.161964 
L 57.594808 138.527776 
L 56.271283 138.833319 
L 54.947759 139.084454 
L 53.624235 139.28744 
L 52.300711 139.44883 
L 50.977186 139.575347 
L 49.653662 139.673777 
L 48.330138 139.750849 
L 47.006613 139.813125 
L 45.683089 139.866893 
L 44.359565 139.91807 
L 43.036041 139.972115 
L 41.712516 140.033948 
L 40.388992 140.107894 
L 39.065468 140.197627 
L 37.741943 140.306143 
L 36.418419 140.435737 
L 35.094895 140.588003 
L 33.771371 140.763846 
L 32.447846 140.963507 
L 31.124322 141.186605 
L 29.800798 141.432185 
L 28.477274 141.698782 
L 27.153749 141.984485 
L 25.830225 142.287014 
L 24.506701 142.603798 
L 23.183176 142.93205 
L 21.859652 143.268846 
L 20.536128 143.611203 
L 19.212604 143.956147 
L 17.889079 144.300777 
L 16.565555 144.642325 
L 15.242031 144.978203 
L 13.918506 145.306048 
L 12.594982 145.623749 
L 11.271458 145.929471 
L 9.947934 146.221671 
L 8.624409 146.499103 
L 7.300885 146.760814 
L 5.977361 147.006137 
L 4.653837 147.234677 
L 3.330312 147.44629 
L 2.006788 147.641062 
L 0.683264 147.81928 
L -0.640261 147.981407 
L -1.963785 148.128056 
L -3.287309 148.259954 
L -4.610833 148.377926 
L -5.934358 148.48286 
L -7.257882 148.575688 
L -8.581406 148.657361 
L -9.904931 148.728835 
L -11.228455 148.791052 
L -12.551979 148.844924 
L -13.875503 148.891325 
L -15.199028 148.931084 
L -16.522552 148.964976 
L -17.846076 148.993716 
L -19.1696 149.017964 
L -20.493125 149.038318 
z
" clip-path="url(#p33ec3a413f)" style="fill: #8e8978; fill-opacity: 0.25; stroke: #8e8978"/>
   </g>
   <g id="FillBetweenPolyCollection_4">
    <defs>
     <path id="me32ec61920" d="M -9.075699 -29.975215 
L -9.075699 -29.918317 
L -7.866923 -29.918317 
L -6.658146 -29.918317 
L -5.44937 -29.918317 
L -4.240594 -29.918317 
L -3.031818 -29.918317 
L -1.823041 -29.918317 
L -0.614265 -29.918317 
L 0.594511 -29.918317 
L 1.803288 -29.918317 
L 3.012064 -29.918317 
L 4.22084 -29.918317 
L 5.429616 -29.918317 
L 6.638393 -29.918317 
L 7.847169 -29.918317 
L 9.055945 -29.918317 
L 10.264722 -29.918317 
L 11.473498 -29.918317 
L 12.682274 -29.918317 
L 13.89105 -29.918317 
L 15.099827 -29.918317 
L 16.308603 -29.918317 
L 17.517379 -29.918317 
L 18.726156 -29.918317 
L 19.934932 -29.918317 
L 21.143708 -29.918317 
L 22.352484 -29.918317 
L 23.561261 -29.918317 
L 24.770037 -29.918317 
L 25.978813 -29.918317 
L 27.187589 -29.918317 
L 28.396366 -29.918317 
L 29.605142 -29.918317 
L 30.813918 -29.918317 
L 32.022695 -29.918317 
L 33.231471 -29.918317 
L 34.440247 -29.918317 
L 35.649023 -29.918317 
L 36.8578 -29.918317 
L 38.066576 -29.918317 
L 39.275352 -29.918317 
L 40.484129 -29.918317 
L 41.692905 -29.918317 
L 42.901681 -29.918317 
L 44.110457 -29.918317 
L 45.319234 -29.918317 
L 46.52801 -29.918317 
L 47.736786 -29.918317 
L 48.945563 -29.918317 
L 50.154339 -29.918317 
L 51.363115 -29.918317 
L 52.571891 -29.918317 
L 53.780668 -29.918317 
L 54.989444 -29.918317 
L 56.19822 -29.918317 
L 57.406996 -29.918317 
L 58.615773 -29.918317 
L 59.824549 -29.918317 
L 61.033325 -29.918317 
L 62.242102 -29.918317 
L 63.450878 -29.918317 
L 64.659654 -29.918317 
L 65.86843 -29.918317 
L 67.077207 -29.918317 
L 68.285983 -29.918317 
L 69.494759 -29.918317 
L 70.703536 -29.918317 
L 71.912312 -29.918317 
L 73.121088 -29.918317 
L 74.329864 -29.918317 
L 75.538641 -29.918317 
L 76.747417 -29.918317 
L 77.956193 -29.918317 
L 79.16497 -29.918317 
L 80.373746 -29.918317 
L 81.582522 -29.918317 
L 82.791298 -29.918317 
L 84.000075 -29.918317 
L 85.208851 -29.918317 
L 86.417627 -29.918317 
L 87.626403 -29.918317 
L 88.83518 -29.918317 
L 90.043956 -29.918317 
L 91.252732 -29.918317 
L 92.461509 -29.918317 
L 93.670285 -29.918317 
L 94.879061 -29.918317 
L 96.087837 -29.918317 
L 97.296614 -29.918317 
L 98.50539 -29.918317 
L 99.714166 -29.918317 
L 100.922943 -29.918317 
L 102.131719 -29.918317 
L 103.340495 -29.918317 
L 104.549271 -29.918317 
L 105.758048 -29.918317 
L 106.966824 -29.918317 
L 108.1756 -29.918317 
L 109.384377 -29.918317 
L 110.593153 -29.918317 
L 111.801929 -29.918317 
L 113.010705 -29.918317 
L 114.219482 -29.918317 
L 115.428258 -29.918317 
L 116.637034 -29.918317 
L 117.84581 -29.918317 
L 119.054587 -29.918317 
L 120.263363 -29.918317 
L 121.472139 -29.918317 
L 122.680916 -29.918317 
L 123.889692 -29.918317 
L 125.098468 -29.918317 
L 126.307244 -29.918317 
L 127.516021 -29.918317 
L 128.724797 -29.918317 
L 129.933573 -29.918317 
L 131.14235 -29.918317 
L 132.351126 -29.918317 
L 133.559902 -29.918317 
L 134.768678 -29.918317 
L 135.977455 -29.918317 
L 137.186231 -29.918317 
L 138.395007 -29.918317 
L 139.603784 -29.918317 
L 140.81256 -29.918317 
L 142.021336 -29.918317 
L 143.230112 -29.918317 
L 144.438889 -29.918317 
L 145.647665 -29.918317 
L 146.856441 -29.918317 
L 148.065217 -29.918317 
L 149.273994 -29.918317 
L 150.48277 -29.918317 
L 151.691546 -29.918317 
L 152.900323 -29.918317 
L 154.109099 -29.918317 
L 155.317875 -29.918317 
L 156.526651 -29.918317 
L 157.735428 -29.918317 
L 158.944204 -29.918317 
L 160.15298 -29.918317 
L 161.361757 -29.918317 
L 162.570533 -29.918317 
L 163.779309 -29.918317 
L 164.988085 -29.918317 
L 166.196862 -29.918317 
L 167.405638 -29.918317 
L 168.614414 -29.918317 
L 169.823191 -29.918317 
L 171.031967 -29.918317 
L 172.240743 -29.918317 
L 173.449519 -29.918317 
L 174.658296 -29.918317 
L 175.867072 -29.918317 
L 177.075848 -29.918317 
L 178.284624 -29.918317 
L 179.493401 -29.918317 
L 180.702177 -29.918317 
L 181.910953 -29.918317 
L 183.11973 -29.918317 
L 184.328506 -29.918317 
L 185.537282 -29.918317 
L 186.746058 -29.918317 
L 187.954835 -29.918317 
L 189.163611 -29.918317 
L 190.372387 -29.918317 
L 191.581164 -29.918317 
L 192.78994 -29.918317 
L 193.998716 -29.918317 
L 195.207492 -29.918317 
L 196.416269 -29.918317 
L 197.625045 -29.918317 
L 198.833821 -29.918317 
L 200.042598 -29.918317 
L 201.251374 -29.918317 
L 202.46015 -29.918317 
L 203.668926 -29.918317 
L 204.877703 -29.918317 
L 206.086479 -29.918317 
L 207.295255 -29.918317 
L 208.504031 -29.918317 
L 209.712808 -29.918317 
L 210.921584 -29.918317 
L 212.13036 -29.918317 
L 213.339137 -29.918317 
L 214.547913 -29.918317 
L 215.756689 -29.918317 
L 216.965465 -29.918317 
L 218.174242 -29.918317 
L 219.383018 -29.918317 
L 220.591794 -29.918317 
L 221.800571 -29.918317 
L 223.009347 -29.918317 
L 224.218123 -29.918317 
L 225.426899 -29.918317 
L 226.635676 -29.918317 
L 227.844452 -29.918317 
L 229.053228 -29.918317 
L 230.262005 -29.918317 
L 231.470781 -29.918317 
L 231.470781 -30.259898 
L 231.470781 -30.259898 
L 230.262005 -30.346948 
L 229.053228 -30.453041 
L 227.844452 -30.581499 
L 226.635676 -30.736017 
L 225.426899 -30.920656 
L 224.218123 -31.139824 
L 223.009347 -31.398241 
L 221.800571 -31.700888 
L 220.591794 -32.052936 
L 219.383018 -32.459654 
L 218.174242 -32.926302 
L 216.965465 -33.457993 
L 215.756689 -34.059549 
L 214.547913 -34.735333 
L 213.339137 -35.489072 
L 212.13036 -36.32367 
L 210.921584 -37.241027 
L 209.712808 -38.241852 
L 208.504031 -39.325504 
L 207.295255 -40.489847 
L 206.086479 -41.731138 
L 204.877703 -43.043958 
L 203.668926 -44.42119 
L 202.46015 -45.854047 
L 201.251374 -47.332167 
L 200.042598 -48.843765 
L 198.833821 -50.375849 
L 197.625045 -51.914495 
L 196.416269 -53.445175 
L 195.207492 -54.953134 
L 193.998716 -56.423798 
L 192.78994 -57.843202 
L 191.581164 -59.198425 
L 190.372387 -60.478016 
L 189.163611 -61.67238 
L 187.954835 -62.774132 
L 186.746058 -63.778378 
L 185.537282 -64.682926 
L 184.328506 -65.488413 
L 183.11973 -66.198335 
L 181.910953 -66.818982 
L 180.702177 -67.359284 
L 179.493401 -67.830559 
L 178.284624 -68.246188 
L 177.075848 -68.62122 
L 175.867072 -68.971926 
L 174.658296 -69.315321 
L 173.449519 -69.668666 
L 172.240743 -70.048983 
L 171.031967 -70.472585 
L 169.823191 -70.954646 
L 168.614414 -71.508824 
L 167.405638 -72.146952 
L 166.196862 -72.878787 
L 164.988085 -73.711846 
L 163.779309 -74.651308 
L 162.570533 -75.699988 
L 161.361757 -76.858381 
L 160.15298 -78.124753 
L 158.944204 -79.495284 
L 157.735428 -80.964251 
L 156.526651 -82.524227 
L 155.317875 -84.166299 
L 154.109099 -85.880297 
L 152.900323 -87.655008 
L 151.691546 -89.478388 
L 150.48277 -91.337761 
L 149.273994 -93.219989 
L 148.065217 -95.111637 
L 146.856441 -96.9991 
L 145.647665 -98.868722 
L 144.438889 -100.706886 
L 143.230112 -102.500092 
L 142.021336 -104.235011 
L 140.81256 -105.898535 
L 139.603784 -107.477808 
L 138.395007 -108.960248 
L 137.186231 -110.333574 
L 135.977455 -111.585825 
L 134.768678 -112.705379 
L 133.559902 -113.680988 
L 132.351126 -114.501823 
L 131.14235 -115.157524 
L 129.933573 -115.638283 
L 128.724797 -115.93494 
L 127.516021 -116.039101 
L 126.307244 -115.943284 
L 125.098468 -115.641081 
L 123.889692 -115.127336 
L 122.680916 -114.398342 
L 121.472139 -113.452028 
L 120.263363 -112.288154 
L 119.054587 -110.908484 
L 117.84581 -109.316933 
L 116.637034 -107.519676 
L 115.428258 -105.525218 
L 114.219482 -103.344398 
L 113.010705 -100.990343 
L 111.801929 -98.47835 
L 110.593153 -95.825708 
L 109.384377 -93.051455 
L 108.1756 -90.176081 
L 106.966824 -87.221185 
L 105.758048 -84.209087 
L 104.549271 -81.16243 
L 103.340495 -78.103763 
L 102.131719 -75.055134 
L 100.922943 -72.0377 
L 99.714166 -69.071373 
L 98.50539 -66.174508 
L 97.296614 -63.363647 
L 96.087837 -60.653318 
L 94.879061 -58.055898 
L 93.670285 -55.581548 
L 92.461509 -53.238196 
L 91.252732 -51.03159 
L 90.043956 -48.965393 
L 88.83518 -47.041327 
L 87.626403 -45.259349 
L 86.417627 -43.617855 
L 85.208851 -42.113894 
L 84.000075 -40.743391 
L 82.791298 -39.501379 
L 81.582522 -38.382202 
L 80.373746 -37.379728 
L 79.16497 -36.487521 
L 77.956193 -35.699008 
L 76.747417 -35.007614 
L 75.538641 -34.406871 
L 74.329864 -33.890509 
L 73.121088 -33.452514 
L 71.912312 -33.087171 
L 70.703536 -32.789084 
L 69.494759 -32.553176 
L 68.285983 -32.374677 
L 67.077207 -32.249097 
L 65.86843 -32.172191 
L 64.659654 -32.139915 
L 63.450878 -32.148381 
L 62.242102 -32.193809 
L 61.033325 -32.272483 
L 59.824549 -32.380702 
L 58.615773 -32.514752 
L 57.406996 -32.670871 
L 56.19822 -32.845236 
L 54.989444 -33.033947 
L 53.780668 -33.233039 
L 52.571891 -33.438491 
L 51.363115 -33.646254 
L 50.154339 -33.852289 
L 48.945563 -34.052615 
L 47.736786 -34.243361 
L 46.52801 -34.420829 
L 45.319234 -34.581557 
L 44.110457 -34.722382 
L 42.901681 -34.840508 
L 41.692905 -34.933554 
L 40.484129 -34.999613 
L 39.275352 -35.037285 
L 38.066576 -35.045709 
L 36.8578 -35.024576 
L 35.649023 -34.97413 
L 34.440247 -34.895149 
L 33.231471 -34.788923 
L 32.022695 -34.657207 
L 30.813918 -34.50217 
L 29.605142 -34.326327 
L 28.396366 -34.132472 
L 27.187589 -33.923598 
L 25.978813 -33.702822 
L 24.770037 -33.473304 
L 23.561261 -33.238172 
L 22.352484 -33.000454 
L 21.143708 -32.763016 
L 19.934932 -32.528505 
L 18.726156 -32.29931 
L 17.517379 -32.07753 
L 16.308603 -31.864948 
L 15.099827 -31.663023 
L 13.89105 -31.472892 
L 12.682274 -31.295372 
L 11.473498 -31.130985 
L 10.264722 -30.97997 
L 9.055945 -30.842321 
L 7.847169 -30.717812 
L 6.638393 -30.606031 
L 5.429616 -30.506416 
L 4.22084 -30.418287 
L 3.012064 -30.340876 
L 1.803288 -30.27336 
L 0.594511 -30.214886 
L -0.614265 -30.164592 
L -1.823041 -30.12163 
L -3.031818 -30.08518 
L -4.240594 -30.054464 
L -5.44937 -30.028751 
L -6.658146 -30.00737 
L -7.866923 -29.989709 
L -9.075699 -29.975215 
z
" style="stroke: #6c6e72"/>
    </defs>
    <g clip-path="url(#p33ec3a413f)">
     <use xlink:href="#me32ec61920" x="0" y="179.048317" style="fill: #6c6e72; fill-opacity: 0.25; stroke: #6c6e72"/>
    </g>
   </g>
   <g id="FillBetweenPolyCollection_5">
    <defs>
     <path id="m1ee1973a67" d="M -6.9636 -29.977872 
L -6.9636 -29.918317 
L -5.776051 -29.918317 
L -4.588502 -29.918317 
L -3.400953 -29.918317 
L -2.213404 -29.918317 
L -1.025855 -29.918317 
L 0.161695 -29.918317 
L 1.349244 -29.918317 
L 2.536793 -29.918317 
L 3.724342 -29.918317 
L 4.911891 -29.918317 
L 6.09944 -29.918317 
L 7.28699 -29.918317 
L 8.474539 -29.918317 
L 9.662088 -29.918317 
L 10.849637 -29.918317 
L 12.037186 -29.918317 
L 13.224735 -29.918317 
L 14.412284 -29.918317 
L 15.599834 -29.918317 
L 16.787383 -29.918317 
L 17.974932 -29.918317 
L 19.162481 -29.918317 
L 20.35003 -29.918317 
L 21.537579 -29.918317 
L 22.725129 -29.918317 
L 23.912678 -29.918317 
L 25.100227 -29.918317 
L 26.287776 -29.918317 
L 27.475325 -29.918317 
L 28.662874 -29.918317 
L 29.850424 -29.918317 
L 31.037973 -29.918317 
L 32.225522 -29.918317 
L 33.413071 -29.918317 
L 34.60062 -29.918317 
L 35.788169 -29.918317 
L 36.975719 -29.918317 
L 38.163268 -29.918317 
L 39.350817 -29.918317 
L 40.538366 -29.918317 
L 41.725915 -29.918317 
L 42.913464 -29.918317 
L 44.101013 -29.918317 
L 45.288563 -29.918317 
L 46.476112 -29.918317 
L 47.663661 -29.918317 
L 48.85121 -29.918317 
L 50.038759 -29.918317 
L 51.226308 -29.918317 
L 52.413858 -29.918317 
L 53.601407 -29.918317 
L 54.788956 -29.918317 
L 55.976505 -29.918317 
L 57.164054 -29.918317 
L 58.351603 -29.918317 
L 59.539153 -29.918317 
L 60.726702 -29.918317 
L 61.914251 -29.918317 
L 63.1018 -29.918317 
L 64.289349 -29.918317 
L 65.476898 -29.918317 
L 66.664447 -29.918317 
L 67.851997 -29.918317 
L 69.039546 -29.918317 
L 70.227095 -29.918317 
L 71.414644 -29.918317 
L 72.602193 -29.918317 
L 73.789742 -29.918317 
L 74.977292 -29.918317 
L 76.164841 -29.918317 
L 77.35239 -29.918317 
L 78.539939 -29.918317 
L 79.727488 -29.918317 
L 80.915037 -29.918317 
L 82.102587 -29.918317 
L 83.290136 -29.918317 
L 84.477685 -29.918317 
L 85.665234 -29.918317 
L 86.852783 -29.918317 
L 88.040332 -29.918317 
L 89.227881 -29.918317 
L 90.415431 -29.918317 
L 91.60298 -29.918317 
L 92.790529 -29.918317 
L 93.978078 -29.918317 
L 95.165627 -29.918317 
L 96.353176 -29.918317 
L 97.540726 -29.918317 
L 98.728275 -29.918317 
L 99.915824 -29.918317 
L 101.103373 -29.918317 
L 102.290922 -29.918317 
L 103.478471 -29.918317 
L 104.666021 -29.918317 
L 105.85357 -29.918317 
L 107.041119 -29.918317 
L 108.228668 -29.918317 
L 109.416217 -29.918317 
L 110.603766 -29.918317 
L 111.791316 -29.918317 
L 112.978865 -29.918317 
L 114.166414 -29.918317 
L 115.353963 -29.918317 
L 116.541512 -29.918317 
L 117.729061 -29.918317 
L 118.91661 -29.918317 
L 120.10416 -29.918317 
L 121.291709 -29.918317 
L 122.479258 -29.918317 
L 123.666807 -29.918317 
L 124.854356 -29.918317 
L 126.041905 -29.918317 
L 127.229455 -29.918317 
L 128.417004 -29.918317 
L 129.604553 -29.918317 
L 130.792102 -29.918317 
L 131.979651 -29.918317 
L 133.1672 -29.918317 
L 134.35475 -29.918317 
L 135.542299 -29.918317 
L 136.729848 -29.918317 
L 137.917397 -29.918317 
L 139.104946 -29.918317 
L 140.292495 -29.918317 
L 141.480044 -29.918317 
L 142.667594 -29.918317 
L 143.855143 -29.918317 
L 145.042692 -29.918317 
L 146.230241 -29.918317 
L 147.41779 -29.918317 
L 148.605339 -29.918317 
L 149.792889 -29.918317 
L 150.980438 -29.918317 
L 152.167987 -29.918317 
L 153.355536 -29.918317 
L 154.543085 -29.918317 
L 155.730634 -29.918317 
L 156.918184 -29.918317 
L 158.105733 -29.918317 
L 159.293282 -29.918317 
L 160.480831 -29.918317 
L 161.66838 -29.918317 
L 162.855929 -29.918317 
L 164.043479 -29.918317 
L 165.231028 -29.918317 
L 166.418577 -29.918317 
L 167.606126 -29.918317 
L 168.793675 -29.918317 
L 169.981224 -29.918317 
L 171.168773 -29.918317 
L 172.356323 -29.918317 
L 173.543872 -29.918317 
L 174.731421 -29.918317 
L 175.91897 -29.918317 
L 177.106519 -29.918317 
L 178.294068 -29.918317 
L 179.481618 -29.918317 
L 180.669167 -29.918317 
L 181.856716 -29.918317 
L 183.044265 -29.918317 
L 184.231814 -29.918317 
L 185.419363 -29.918317 
L 186.606913 -29.918317 
L 187.794462 -29.918317 
L 188.982011 -29.918317 
L 190.16956 -29.918317 
L 191.357109 -29.918317 
L 192.544658 -29.918317 
L 193.732207 -29.918317 
L 194.919757 -29.918317 
L 196.107306 -29.918317 
L 197.294855 -29.918317 
L 198.482404 -29.918317 
L 199.669953 -29.918317 
L 200.857502 -29.918317 
L 202.045052 -29.918317 
L 203.232601 -29.918317 
L 204.42015 -29.918317 
L 205.607699 -29.918317 
L 206.795248 -29.918317 
L 207.982797 -29.918317 
L 209.170347 -29.918317 
L 210.357896 -29.918317 
L 211.545445 -29.918317 
L 212.732994 -29.918317 
L 213.920543 -29.918317 
L 215.108092 -29.918317 
L 216.295642 -29.918317 
L 217.483191 -29.918317 
L 218.67074 -29.918317 
L 219.858289 -29.918317 
L 221.045838 -29.918317 
L 222.233387 -29.918317 
L 223.420936 -29.918317 
L 224.608486 -29.918317 
L 225.796035 -29.918317 
L 226.983584 -29.918317 
L 228.171133 -29.918317 
L 229.358682 -29.918317 
L 229.358682 -30.335391 
L 229.358682 -30.335391 
L 228.171133 -30.445004 
L 226.983584 -30.579316 
L 225.796035 -30.742757 
L 224.608486 -30.940265 
L 223.420936 -31.177273 
L 222.233387 -31.459683 
L 221.045838 -31.793815 
L 219.858289 -32.186325 
L 218.67074 -32.644104 
L 217.483191 -33.174143 
L 216.295642 -33.78337 
L 215.108092 -34.478458 
L 213.920543 -35.265604 
L 212.732994 -36.150298 
L 211.545445 -37.137059 
L 210.357896 -38.229181 
L 209.170347 -39.428473 
L 207.982797 -40.735014 
L 206.795248 -42.146936 
L 205.607699 -43.66025 
L 204.42015 -45.268717 
L 203.232601 -46.963793 
L 202.045052 -48.734644 
L 200.857502 -50.568249 
L 199.669953 -52.44959 
L 198.482404 -54.361934 
L 197.294855 -56.287208 
L 196.107306 -58.206447 
L 194.919757 -60.10032 
L 193.732207 -61.949704 
L 192.544658 -63.736295 
L 191.357109 -65.443223 
L 190.16956 -67.05566 
L 188.982011 -68.561374 
L 187.794462 -69.951227 
L 186.606913 -71.21957 
L 185.419363 -72.364531 
L 184.231814 -73.388168 
L 183.044265 -74.296486 
L 181.856716 -75.099306 
L 180.669167 -75.809991 
L 179.481618 -76.445041 
L 178.294068 -77.023563 
L 177.106519 -77.566655 
L 175.91897 -78.096709 
L 174.731421 -78.636676 
L 173.543872 -79.209321 
L 172.356323 -79.836488 
L 171.168773 -80.538422 
L 169.981224 -81.333152 
L 168.793675 -82.235971 
L 167.606126 -83.259021 
L 166.418577 -84.410988 
L 165.231028 -85.696918 
L 164.043479 -87.118146 
L 162.855929 -88.672332 
L 161.66838 -90.35358 
L 160.480831 -92.152647 
L 159.293282 -94.057207 
L 158.105733 -96.052155 
L 156.918184 -98.119948 
L 155.730634 -100.240956 
L 154.543085 -102.393815 
L 153.355536 -104.555785 
L 152.167987 -106.703097 
L 150.980438 -108.811289 
L 149.792889 -110.855546 
L 148.605339 -112.811023 
L 147.41779 -114.653185 
L 146.230241 -116.358131 
L 145.042692 -117.902935 
L 143.855143 -119.265987 
L 142.667594 -120.42733 
L 141.480044 -121.36899 
L 140.292495 -122.075299 
L 139.104946 -122.53318 
L 137.917397 -122.7324 
L 136.729848 -122.665778 
L 135.542299 -122.329322 
L 134.35475 -121.722303 
L 133.1672 -120.847253 
L 131.979651 -119.70988 
L 130.792102 -118.318908 
L 129.604553 -116.68585 
L 128.417004 -114.824708 
L 127.229455 -112.751629 
L 126.041905 -110.484529 
L 124.854356 -108.042689 
L 123.666807 -105.446356 
L 122.479258 -102.716353 
L 121.291709 -99.873718 
L 120.10416 -96.939378 
L 118.91661 -93.933873 
L 117.729061 -90.877124 
L 116.541512 -87.788263 
L 115.353963 -84.685495 
L 114.166414 -81.586018 
L 112.978865 -78.505972 
L 111.791316 -75.460415 
L 110.603766 -72.463319 
L 109.416217 -69.527578 
L 108.228668 -66.665014 
L 107.041119 -63.886385 
L 105.85357 -61.201385 
L 104.666021 -58.618633 
L 103.478471 -56.145659 
L 102.290922 -53.788877 
L 101.103373 -51.553564 
L 99.915824 -49.443834 
L 98.728275 -47.462622 
L 97.540726 -45.611676 
L 96.353176 -43.891569 
L 95.165627 -42.301721 
L 93.978078 -40.840453 
L 92.790529 -39.505048 
L 91.60298 -38.291844 
L 90.415431 -37.196341 
L 89.227881 -36.213317 
L 88.040332 -35.336968 
L 86.852783 -34.561044 
L 85.665234 -33.878997 
L 84.477685 -33.284117 
L 83.290136 -32.76967 
L 82.102587 -32.329025 
L 80.915037 -31.955764 
L 79.727488 -31.643775 
L 78.539939 -31.387338 
L 77.35239 -31.181174 
L 76.164841 -31.020495 
L 74.977292 -30.901021 
L 73.789742 -30.818981 
L 72.602193 -30.771103 
L 71.414644 -30.754585 
L 70.227095 -30.767048 
L 69.039546 -30.806488 
L 67.851997 -30.87121 
L 66.664447 -30.959758 
L 65.476898 -31.070843 
L 64.289349 -31.203268 
L 63.1018 -31.355848 
L 61.914251 -31.527348 
L 60.726702 -31.716406 
L 59.539153 -31.921485 
L 58.351603 -32.140817 
L 57.164054 -32.372373 
L 55.976505 -32.613838 
L 54.788956 -32.862604 
L 53.601407 -33.115779 
L 52.413858 -33.370209 
L 51.226308 -33.62252 
L 50.038759 -33.869171 
L 48.85121 -34.106516 
L 47.663661 -34.33089 
L 46.476112 -34.538685 
L 45.288563 -34.726444 
L 44.101013 -34.890949 
L 42.913464 -35.029312 
L 41.725915 -35.139052 
L 40.538366 -35.218172 
L 39.350817 -35.265211 
L 38.163268 -35.279295 
L 36.975719 -35.260159 
L 35.788169 -35.208154 
L 34.60062 -35.124241 
L 33.413071 -35.009954 
L 32.225522 -34.867359 
L 31.037973 -34.698987 
L 29.850424 -34.507764 
L 28.662874 -34.296923 
L 27.475325 -34.069916 
L 26.287776 -33.830317 
L 25.100227 -33.581732 
L 23.912678 -33.327713 
L 22.725129 -33.07167 
L 21.537579 -32.816806 
L 20.35003 -32.566053 
L 19.162481 -32.322024 
L 17.974932 -32.086981 
L 16.787383 -31.862813 
L 15.599834 -31.651026 
L 14.412284 -31.452751 
L 13.224735 -31.268755 
L 12.037186 -31.099467 
L 10.849637 -30.945007 
L 9.662088 -30.805223 
L 8.474539 -30.679729 
L 7.28699 -30.567946 
L 6.09944 -30.469144 
L 4.911891 -30.382479 
L 3.724342 -30.307028 
L 2.536793 -30.241828 
L 1.349244 -30.185897 
L 0.161695 -30.138267 
L -1.025855 -30.097996 
L -2.213404 -30.06419 
L -3.400953 -30.036011 
L -4.588502 -30.012688 
L -5.776051 -29.993519 
L -6.9636 -29.977872 
z
" style="stroke: #4c556c"/>
    </defs>
    <g clip-path="url(#p33ec3a413f)">
     <use xlink:href="#m1ee1973a67" x="0" y="179.048317" style="fill: #4c556c; fill-opacity: 0.25; stroke: #4c556c"/>
    </g>
   </g>
   <g id="FillBetweenPolyCollection_6">
    <defs>
     <path id="m0bed96d03b" d="M 88.451297 -30.017052 
L 88.451297 -29.918317 
L 89.069521 -29.918317 
L 89.687745 -29.918317 
L 90.305969 -29.918317 
L 90.924193 -29.918317 
L 91.542417 -29.918317 
L 92.160641 -29.918317 
L 92.778865 -29.918317 
L 93.397089 -29.918317 
L 94.015313 -29.918317 
L 94.633537 -29.918317 
L 95.251761 -29.918317 
L 95.869985 -29.918317 
L 96.48821 -29.918317 
L 97.106434 -29.918317 
L 97.724658 -29.918317 
L 98.342882 -29.918317 
L 98.961106 -29.918317 
L 99.57933 -29.918317 
L 100.197554 -29.918317 
L 100.815778 -29.918317 
L 101.434002 -29.918317 
L 102.052226 -29.918317 
L 102.67045 -29.918317 
L 103.288674 -29.918317 
L 103.906898 -29.918317 
L 104.525122 -29.918317 
L 105.143346 -29.918317 
L 105.76157 -29.918317 
L 106.379795 -29.918317 
L 106.998019 -29.918317 
L 107.616243 -29.918317 
L 108.234467 -29.918317 
L 108.852691 -29.918317 
L 109.470915 -29.918317 
L 110.089139 -29.918317 
L 110.707363 -29.918317 
L 111.325587 -29.918317 
L 111.943811 -29.918317 
L 112.562035 -29.918317 
L 113.180259 -29.918317 
L 113.798483 -29.918317 
L 114.416707 -29.918317 
L 115.034931 -29.918317 
L 115.653155 -29.918317 
L 116.27138 -29.918317 
L 116.889604 -29.918317 
L 117.507828 -29.918317 
L 118.126052 -29.918317 
L 118.744276 -29.918317 
L 119.3625 -29.918317 
L 119.980724 -29.918317 
L 120.598948 -29.918317 
L 121.217172 -29.918317 
L 121.835396 -29.918317 
L 122.45362 -29.918317 
L 123.071844 -29.918317 
L 123.690068 -29.918317 
L 124.308292 -29.918317 
L 124.926516 -29.918317 
L 125.54474 -29.918317 
L 126.162965 -29.918317 
L 126.781189 -29.918317 
L 127.399413 -29.918317 
L 128.017637 -29.918317 
L 128.635861 -29.918317 
L 129.254085 -29.918317 
L 129.872309 -29.918317 
L 130.490533 -29.918317 
L 131.108757 -29.918317 
L 131.726981 -29.918317 
L 132.345205 -29.918317 
L 132.963429 -29.918317 
L 133.581653 -29.918317 
L 134.199877 -29.918317 
L 134.818101 -29.918317 
L 135.436325 -29.918317 
L 136.05455 -29.918317 
L 136.672774 -29.918317 
L 137.290998 -29.918317 
L 137.909222 -29.918317 
L 138.527446 -29.918317 
L 139.14567 -29.918317 
L 139.763894 -29.918317 
L 140.382118 -29.918317 
L 141.000342 -29.918317 
L 141.618566 -29.918317 
L 142.23679 -29.918317 
L 142.855014 -29.918317 
L 143.473238 -29.918317 
L 144.091462 -29.918317 
L 144.709686 -29.918317 
L 145.32791 -29.918317 
L 145.946135 -29.918317 
L 146.564359 -29.918317 
L 147.182583 -29.918317 
L 147.800807 -29.918317 
L 148.419031 -29.918317 
L 149.037255 -29.918317 
L 149.655479 -29.918317 
L 150.273703 -29.918317 
L 150.891927 -29.918317 
L 151.510151 -29.918317 
L 152.128375 -29.918317 
L 152.746599 -29.918317 
L 153.364823 -29.918317 
L 153.983047 -29.918317 
L 154.601271 -29.918317 
L 155.219495 -29.918317 
L 155.83772 -29.918317 
L 156.455944 -29.918317 
L 157.074168 -29.918317 
L 157.692392 -29.918317 
L 158.310616 -29.918317 
L 158.92884 -29.918317 
L 159.547064 -29.918317 
L 160.165288 -29.918317 
L 160.783512 -29.918317 
L 161.401736 -29.918317 
L 162.01996 -29.918317 
L 162.638184 -29.918317 
L 163.256408 -29.918317 
L 163.874632 -29.918317 
L 164.492856 -29.918317 
L 165.11108 -29.918317 
L 165.729305 -29.918317 
L 166.347529 -29.918317 
L 166.965753 -29.918317 
L 167.583977 -29.918317 
L 168.202201 -29.918317 
L 168.820425 -29.918317 
L 169.438649 -29.918317 
L 170.056873 -29.918317 
L 170.675097 -29.918317 
L 171.293321 -29.918317 
L 171.911545 -29.918317 
L 172.529769 -29.918317 
L 173.147993 -29.918317 
L 173.766217 -29.918317 
L 174.384441 -29.918317 
L 175.002665 -29.918317 
L 175.62089 -29.918317 
L 176.239114 -29.918317 
L 176.857338 -29.918317 
L 177.475562 -29.918317 
L 178.093786 -29.918317 
L 178.71201 -29.918317 
L 179.330234 -29.918317 
L 179.948458 -29.918317 
L 180.566682 -29.918317 
L 181.184906 -29.918317 
L 181.80313 -29.918317 
L 182.421354 -29.918317 
L 183.039578 -29.918317 
L 183.657802 -29.918317 
L 184.276026 -29.918317 
L 184.89425 -29.918317 
L 185.512475 -29.918317 
L 186.130699 -29.918317 
L 186.748923 -29.918317 
L 187.367147 -29.918317 
L 187.985371 -29.918317 
L 188.603595 -29.918317 
L 189.221819 -29.918317 
L 189.840043 -29.918317 
L 190.458267 -29.918317 
L 191.076491 -29.918317 
L 191.694715 -29.918317 
L 192.312939 -29.918317 
L 192.931163 -29.918317 
L 193.549387 -29.918317 
L 194.167611 -29.918317 
L 194.785835 -29.918317 
L 195.40406 -29.918317 
L 196.022284 -29.918317 
L 196.640508 -29.918317 
L 197.258732 -29.918317 
L 197.876956 -29.918317 
L 198.49518 -29.918317 
L 199.113404 -29.918317 
L 199.731628 -29.918317 
L 200.349852 -29.918317 
L 200.968076 -29.918317 
L 201.5863 -29.918317 
L 202.204524 -29.918317 
L 202.822748 -29.918317 
L 203.440972 -29.918317 
L 204.059196 -29.918317 
L 204.67742 -29.918317 
L 205.295645 -29.918317 
L 205.913869 -29.918317 
L 206.532093 -29.918317 
L 207.150317 -29.918317 
L 207.768541 -29.918317 
L 208.386765 -29.918317 
L 209.004989 -29.918317 
L 209.623213 -29.918317 
L 210.241437 -29.918317 
L 210.859661 -29.918317 
L 211.477885 -29.918317 
L 211.477885 -30.410877 
L 211.477885 -30.410877 
L 210.859661 -30.520679 
L 210.241437 -30.651574 
L 209.623213 -30.806815 
L 209.004989 -30.989977 
L 208.386765 -31.204962 
L 207.768541 -31.45598 
L 207.150317 -31.74753 
L 206.532093 -32.084367 
L 205.913869 -32.471451 
L 205.295645 -32.913888 
L 204.67742 -33.416855 
L 204.059196 -33.985509 
L 203.440972 -34.624878 
L 202.822748 -35.339747 
L 202.204524 -36.134521 
L 201.5863 -37.01308 
L 200.968076 -37.978631 
L 200.349852 -39.033546 
L 199.731628 -40.179204 
L 199.113404 -41.415838 
L 198.49518 -42.742384 
L 197.876956 -44.156348 
L 197.258732 -45.653693 
L 196.640508 -47.228748 
L 196.022284 -48.874151 
L 195.40406 -50.580824 
L 194.785835 -52.337988 
L 194.167611 -54.13323 
L 193.549387 -55.952601 
L 192.931163 -57.780774 
L 192.312939 -59.601244 
L 191.694715 -61.396576 
L 191.076491 -63.148687 
L 190.458267 -64.839179 
L 189.840043 -66.449689 
L 189.221819 -67.962272 
L 188.603595 -69.359793 
L 187.985371 -70.626328 
L 187.367147 -71.747556 
L 186.748923 -72.711142 
L 186.130699 -73.507081 
L 185.512475 -74.128027 
L 184.89425 -74.569557 
L 184.276026 -74.830398 
L 183.657802 -74.912585 
L 183.039578 -74.821566 
L 182.421354 -74.566228 
L 181.80313 -74.158868 
L 181.184906 -73.615083 
L 180.566682 -72.953603 
L 179.948458 -72.196059 
L 179.330234 -71.366686 
L 178.71201 -70.491984 
L 178.093786 -69.600323 
L 177.475562 -68.721513 
L 176.857338 -67.886337 
L 176.239114 -67.126069 
L 175.62089 -66.471959 
L 175.002665 -65.954725 
L 174.384441 -65.604028 
L 173.766217 -65.44796 
L 173.147993 -65.512536 
L 172.529769 -65.821213 
L 171.911545 -66.394428 
L 171.293321 -67.249164 
L 170.675097 -68.39857 
L 170.056873 -69.851611 
L 169.438649 -71.612789 
L 168.820425 -73.681914 
L 168.202201 -76.053956 
L 167.583977 -78.718972 
L 166.965753 -81.66212 
L 166.347529 -84.86377 
L 165.729305 -88.299709 
L 165.11108 -91.941449 
L 164.492856 -95.756642 
L 163.874632 -99.709591 
L 163.256408 -103.761865 
L 162.638184 -107.872999 
L 162.01996 -112.00127 
L 161.401736 -116.104545 
L 160.783512 -120.141164 
L 160.165288 -124.070854 
L 159.547064 -127.855638 
L 158.92884 -131.460721 
L 158.310616 -134.855321 
L 157.692392 -138.013419 
L 157.074168 -140.914404 
L 156.455944 -143.543584 
L 155.83772 -145.892544 
L 155.219495 -147.959336 
L 154.601271 -149.748481 
L 153.983047 -151.270785 
L 153.364823 -152.542957 
L 152.746599 -153.587049 
L 152.128375 -154.429714 
L 151.510151 -155.101318 
L 150.891927 -155.634916 
L 150.273703 -156.065129 
L 149.655479 -156.426962 
L 149.037255 -156.75459 
L 148.419031 -157.080157 
L 147.800807 -157.432635 
L 147.182583 -157.836767 
L 146.564359 -158.312145 
L 145.946135 -158.872453 
L 145.32791 -159.52489 
L 144.709686 -160.269817 
L 144.091462 -161.100617 
L 143.473238 -162.0038 
L 142.855014 -162.959323 
L 142.23679 -163.941139 
L 141.618566 -164.917949 
L 141.000342 -165.854123 
L 140.382118 -166.710777 
L 139.763894 -167.44695 
L 139.14567 -168.02086 
L 138.527446 -168.391182 
L 137.909222 -168.518317 
L 137.290998 -168.3656 
L 136.672774 -167.900417 
L 136.05455 -167.095191 
L 135.436325 -165.928209 
L 134.818101 -164.384262 
L 134.199877 -162.455085 
L 133.581653 -160.139595 
L 132.963429 -157.443901 
L 132.345205 -154.381122 
L 131.726981 -150.971003 
L 131.108757 -147.239352 
L 130.490533 -143.217335 
L 129.872309 -138.940634 
L 129.254085 -134.448522 
L 128.635861 -129.78287 
L 128.017637 -124.987136 
L 127.399413 -120.105349 
L 126.781189 -115.181135 
L 126.162965 -110.256808 
L 125.54474 -105.372542 
L 124.926516 -100.565656 
L 124.308292 -95.870016 
L 123.690068 -91.31557 
L 123.071844 -86.928014 
L 122.45362 -82.728599 
L 121.835396 -78.73406 
L 121.217172 -74.956675 
L 120.598948 -71.404419 
L 119.980724 -68.081231 
L 119.3625 -64.987339 
L 118.744276 -62.119665 
L 118.126052 -59.472255 
L 117.507828 -57.036745 
L 116.889604 -54.802835 
L 116.27138 -52.758757 
L 115.653155 -50.891717 
L 115.034931 -49.188317 
L 114.416707 -47.63493 
L 113.798483 -46.218035 
L 113.180259 -44.9245 
L 112.562035 -43.741811 
L 111.943811 -42.658254 
L 111.325587 -41.663043 
L 110.707363 -40.746403 
L 110.089139 -39.89961 
L 109.470915 -39.114995 
L 108.852691 -38.38591 
L 108.234467 -37.706679 
L 107.616243 -37.072518 
L 106.998019 -36.479449 
L 106.379795 -35.924199 
L 105.76157 -35.404101 
L 105.143346 -34.916991 
L 104.525122 -34.461111 
L 103.906898 -34.035017 
L 103.288674 -33.637497 
L 102.67045 -33.267501 
L 102.052226 -32.924075 
L 101.434002 -32.606316 
L 100.815778 -32.31333 
L 100.197554 -32.044204 
L 99.57933 -31.797987 
L 98.961106 -31.573679 
L 98.342882 -31.370227 
L 97.724658 -31.186528 
L 97.106434 -31.021435 
L 96.48821 -30.873766 
L 95.869985 -30.742319 
L 95.251761 -30.625882 
L 94.633537 -30.523249 
L 94.015313 -30.433231 
L 93.397089 -30.354672 
L 92.778865 -30.286456 
L 92.160641 -30.227519 
L 91.542417 -30.176854 
L 90.924193 -30.133519 
L 90.305969 -30.09664 
L 89.687745 -30.065413 
L 89.069521 -30.039105 
L 88.451297 -30.017052 
z
" style="stroke: #213b6e"/>
    </defs>
    <g clip-path="url(#p33ec3a413f)">
     <use xlink:href="#m0bed96d03b" x="0" y="179.048317" style="fill: #213b6e; fill-opacity: 0.25; stroke: #213b6e"/>
    </g>
   </g>
   <g id="patch_3">
    <path d="M 37.667091 149.13 
L 37.667091 3.6 
" style="fill: none; stroke: #000000; stroke-width: 0.5; stroke-linejoin: miter; stroke-linecap: square"/>
   </g>
   <g id="patch_4">
    <path d="M 232.967091 149.13 
L 232.967091 3.6 
" style="fill: none; stroke: #000000; stroke-width: 0.5; stroke-linejoin: miter; stroke-linecap: square"/>
   </g>
   <g id="patch_5">
    <path d="M 37.667091 149.13 
L 232.967091 149.13 
" style="fill: none; stroke: #000000; stroke-width: 0.5; stroke-linejoin: miter; stroke-linecap: square"/>
   </g>
   <g id="patch_6">
    <path d="M 37.667091 3.6 
L 232.967091 3.6 
" style="fill: none; stroke: #000000; stroke-width: 0.5; stroke-linejoin: miter; stroke-linecap: square"/>
   </g>
   <g id="legend_1">
    <g id="patch_7">
     <path d="M 174.04175 95.22307 
L 225.967091 95.22307 
Q 227.967091 95.22307 227.967091 93.22307 
L 227.967091 10.6 
Q 227.967091 8.6 225.967091 8.6 
L 174.04175 8.6 
Q 172.04175 8.6 172.04175 10.6 
L 172.04175 93.22307 
Q 172.04175 95.22307 174.04175 95.22307 
z
" style="fill: #ffffff; stroke: #cccccc; stroke-linejoin: miter"/>
    </g>
    <g id="patch_8">
     <path d="M 176.04175 19.6 
L 196.04175 19.6 
L 196.04175 12.6 
L 176.04175 12.6 
z
" style="fill: #213b6e; fill-opacity: 0.25; stroke: #213b6e; stroke-linejoin: miter"/>
    </g>
    <g id="text_12">
     <!-- 50 -->
     <g transform="translate(204.04175 19.6) scale(0.1 -0.1)">
      <use xlink:href="#CMR17-35" transform="scale(0.996264)"/>
      <use xlink:href="#CMR17-30" transform="translate(45.690477 0) scale(0.996264)"/>
     </g>
    </g>
    <g id="patch_9">
     <path d="M 176.04175 33.537178 
L 196.04175 33.537178 
L 196.04175 26.537178 
L 176.04175 26.537178 
z
" style="fill: #4c556c; fill-opacity: 0.25; stroke: #4c556c; stroke-linejoin: miter"/>
    </g>
    <g id="text_13">
     <!-- 100 -->
     <g transform="translate(204.04175 33.537178) scale(0.1 -0.1)">
      <use xlink:href="#CMR17-31" transform="scale(0.996264)"/>
      <use xlink:href="#CMR17-30" transform="translate(45.690477 0) scale(0.996264)"/>
      <use xlink:href="#CMR17-30" transform="translate(91.380954 0) scale(0.996264)"/>
     </g>
    </g>
    <g id="patch_10">
     <path d="M 176.04175 47.474357 
L 196.04175 47.474357 
L 196.04175 40.474357 
L 176.04175 40.474357 
z
" style="fill: #6c6e72; fill-opacity: 0.25; stroke: #6c6e72; stroke-linejoin: miter"/>
    </g>
    <g id="text_14">
     <!-- 200 -->
     <g transform="translate(204.04175 47.474357) scale(0.1 -0.1)">
      <use xlink:href="#CMR17-32" transform="scale(0.996264)"/>
      <use xlink:href="#CMR17-30" transform="translate(45.690477 0) scale(0.996264)"/>
      <use xlink:href="#CMR17-30" transform="translate(91.380954 0) scale(0.996264)"/>
     </g>
    </g>
    <g id="patch_11">
     <path d="M 176.04175 61.411535 
L 196.04175 61.411535 
L 196.04175 54.411535 
L 176.04175 54.411535 
z
" style="fill: #8e8978; fill-opacity: 0.25; stroke: #8e8978; stroke-linejoin: miter"/>
    </g>
    <g id="text_15">
     <!-- 400 -->
     <g transform="translate(204.04175 61.411535) scale(0.1 -0.1)">
      <defs>
       <path id="CMR17-34" d="M 2150 4122 
C 2150 4256 2144 4256 2029 4256 
L 128 1254 
L 128 1088 
L 1779 1088 
L 1779 457 
C 1779 224 1766 160 1318 160 
L 1197 160 
L 1197 0 
C 1402 0 1747 0 1965 0 
C 2182 0 2528 0 2733 0 
L 2733 160 
L 2611 160 
C 2163 160 2150 224 2150 457 
L 2150 1088 
L 2803 1088 
L 2803 1254 
L 2150 1254 
L 2150 4122 
z
M 1798 3703 
L 1798 1254 
L 256 1254 
L 1798 3703 
z
" transform="scale(0.015625)"/>
      </defs>
      <use xlink:href="#CMR17-34" transform="scale(0.996264)"/>
      <use xlink:href="#CMR17-30" transform="translate(45.690477 0) scale(0.996264)"/>
      <use xlink:href="#CMR17-30" transform="translate(91.380954 0) scale(0.996264)"/>
     </g>
    </g>
    <g id="patch_12">
     <path d="M 176.04175 75.348713 
L 196.04175 75.348713 
L 196.04175 68.348713 
L 176.04175 68.348713 
z
" style="fill: #b1a570; fill-opacity: 0.25; stroke: #b1a570; stroke-linejoin: miter"/>
    </g>
    <g id="text_16">
     <!-- 800 -->
     <g transform="translate(204.04175 75.348713) scale(0.1 -0.1)">
      <defs>
       <path id="CMR17-38" d="M 1741 2264 
C 2144 2467 2554 2773 2554 3263 
C 2554 3841 1990 4179 1472 4179 
C 890 4179 378 3759 378 3180 
C 378 3021 416 2747 666 2505 
C 730 2442 998 2251 1171 2130 
C 883 1983 211 1634 211 934 
C 211 279 838 -128 1459 -128 
C 2144 -128 2720 362 2720 1010 
C 2720 1590 2330 1857 2074 2029 
L 1741 2264 
z
M 902 2822 
C 851 2854 595 3051 595 3351 
C 595 3739 998 4032 1459 4032 
C 1965 4032 2336 3676 2336 3262 
C 2336 2669 1670 2331 1638 2331 
C 1632 2331 1626 2331 1574 2370 
L 902 2822 
z
M 2080 1519 
C 2176 1449 2483 1240 2483 851 
C 2483 381 2010 25 1472 25 
C 890 25 448 438 448 940 
C 448 1443 838 1862 1280 2060 
L 2080 1519 
z
" transform="scale(0.015625)"/>
      </defs>
      <use xlink:href="#CMR17-38" transform="scale(0.996264)"/>
      <use xlink:href="#CMR17-30" transform="translate(45.690477 0) scale(0.996264)"/>
      <use xlink:href="#CMR17-30" transform="translate(91.380954 0) scale(0.996264)"/>
     </g>
    </g>
    <g id="patch_13">
     <path d="M 176.04175 89.285892 
L 196.04175 89.285892 
L 196.04175 82.285892 
L 176.04175 82.285892 
z
" style="fill: #d9c55c; fill-opacity: 0.25; stroke: #d9c55c; stroke-linejoin: miter"/>
    </g>
    <g id="text_17">
     <!-- 1600 -->
     <g transform="translate(204.04175 89.285892) scale(0.1 -0.1)">
      <defs>
       <path id="CMR17-36" d="M 678 2176 
C 678 3690 1395 4032 1811 4032 
C 1946 4032 2272 4009 2400 3776 
C 2298 3776 2106 3776 2106 3553 
C 2106 3381 2246 3323 2336 3323 
C 2394 3323 2566 3348 2566 3560 
C 2566 3954 2246 4179 1805 4179 
C 1043 4179 243 3390 243 1984 
C 243 253 966 -128 1478 -128 
C 2099 -128 2688 427 2688 1283 
C 2688 2081 2170 2662 1517 2662 
C 1126 2662 838 2407 678 1960 
L 678 2176 
z
M 1478 25 
C 691 25 691 1200 691 1436 
C 691 1896 909 2560 1504 2560 
C 1613 2560 1926 2560 2138 2120 
C 2253 1870 2253 1609 2253 1289 
C 2253 944 2253 690 2118 434 
C 1978 171 1773 25 1478 25 
z
" transform="scale(0.015625)"/>
      </defs>
      <use xlink:href="#CMR17-31" transform="scale(0.996264)"/>
      <use xlink:href="#CMR17-36" transform="translate(45.690477 0) scale(0.996264)"/>
      <use xlink:href="#CMR17-30" transform="translate(91.380954 0) scale(0.996264)"/>
      <use xlink:href="#CMR17-30" transform="translate(137.071431 0) scale(0.996264)"/>
     </g>
    </g>
   </g>
  </g>
 </g>
 <defs>
  <clipPath id="p33ec3a413f">
   <rect x="37.667091" y="3.6" width="195.3" height="145.53"/>
  </clipPath>
 </defs>
</svg>
