<?xml version="1.0" encoding="utf-8" standalone="no"?>
<!DOCTYPE svg PUBLIC "-//W3C//DTD SVG 1.1//EN"
  "http://www.w3.org/Graphics/SVG/1.1/DTD/svg11.dtd">
<svg xmlns:xlink="http://www.w3.org/1999/xlink" width="186.081646pt" height="146.125066pt" viewBox="0 0 186.081646 146.125066" xmlns="http://www.w3.org/2000/svg" version="1.1">
 <metadata>
  <rdf:RDF xmlns:dc="http://purl.org/dc/elements/1.1/" xmlns:cc="http://creativecommons.org/ns#" xmlns:rdf="http://www.w3.org/1999/02/22-rdf-syntax-ns#">
   <cc:Work>
    <dc:type rdf:resource="http://purl.org/dc/dcmitype/StillImage"/>
    <dc:date>2026-03-10T09:39:59.971632</dc:date>
    <dc:format>image/svg+xml</dc:format>
    <dc:creator>
     <cc:Agent>
      <dc:title>Matplotlib v3.7.0, https://matplotlib.org/</dc:title>
     </cc:Agent>
    </dc:creator>
   </cc:Work>
  </rdf:RDF>
 </metadata>
 <defs>
  <style type="text/css">*{stroke-linejoin: round; stroke-linecap: butt}</style>
 </defs>
 <g id="figure_1">
  <g id="patch_1">
   <path d="M 0 146.125066 
L 186.081646 146.125066 
L 186.081646 0 
L 0 0 
L 0 146.125066 
z
" style="fill: none"/>
  </g>
  <g id="axes_1">
   <g id="patch_2">
    <path d="M 36.006646 116.206749 
L 182.481646 116.206749 
L 182.481646 7.059249 
L 36.006646 7.059249 
L 36.006646 116.206749 
z
" style="fill: none"/>
   </g>
   <g id="matplotlib.axis_1">
    <g id="xtick_1">
     <g id="line2d_1">
      <path d="M 36.006646 116.206749 
L 36.006646 7.059249 
" clip-path="url(#pc9820e4197)" style="fill: none; stroke-dasharray: 1.85,0.8; stroke-dashoffset: 0; stroke: #000000; stroke-opacity: 0.5; stroke-width: 0.5"/>
     </g>
     <g id="line2d_2">
      <defs>
       <path id="m4844b2fb7c" d="M 0 0 
L 0 -3 
" style="stroke: #000000; stroke-width: 0.5"/>
      </defs>
      <g>
       <use xlink:href="#m4844b2fb7c" x="36.006646" y="116.206749" style="stroke: #000000; stroke-width: 0.5"/>
      </g>
     </g>
     <g id="line2d_3">
      <defs>
       <path id="mcd4febaa28" d="M 0 0 
L 0 3 
" style="stroke: #000000; stroke-width: 0.5"/>
      </defs>
      <g>
       <use xlink:href="#mcd4febaa28" x="36.006646" y="7.059249" style="stroke: #000000; stroke-width: 0.5"/>
      </g>
     </g>
     <g id="text_1">
      <!-- $\mathdefault{10^{-1}}$ -->
      <g transform="translate(25.926359 126.625248) scale(0.1 -0.1)">
       <defs>
        <path id="CMR17-31" d="M 1702 4058 
C 1702 4192 1696 4192 1606 4192 
C 1357 3916 979 3827 621 3827 
C 602 3827 570 3827 563 3808 
C 557 3795 557 3782 557 3648 
C 755 3648 1088 3686 1344 3839 
L 1344 461 
C 1344 236 1331 160 781 160 
L 589 160 
L 589 0 
C 896 0 1216 0 1523 0 
C 1830 0 2150 0 2458 0 
L 2458 160 
L 2266 160 
C 1715 160 1702 230 1702 458 
L 1702 4058 
z
" transform="scale(0.015625)"/>
        <path id="CMR17-30" d="M 2688 2025 
C 2688 2416 2682 3080 2413 3591 
C 2176 4039 1798 4198 1466 4198 
C 1158 4198 768 4058 525 3597 
C 269 3118 243 2524 243 2025 
C 243 1661 250 1106 448 619 
C 723 -39 1216 -128 1466 -128 
C 1760 -128 2208 -7 2470 600 
C 2662 1042 2688 1559 2688 2025 
z
M 1466 -26 
C 1056 -26 813 325 723 812 
C 653 1188 653 1738 653 2096 
C 653 2588 653 2997 736 3387 
C 858 3929 1216 4096 1466 4096 
C 1728 4096 2067 3923 2189 3400 
C 2272 3036 2278 2607 2278 2096 
C 2278 1680 2278 1169 2202 792 
C 2067 95 1690 -26 1466 -26 
z
" transform="scale(0.015625)"/>
        <path id="CMSY10-0" d="M 4218 1472 
C 4326 1472 4442 1472 4442 1600 
C 4442 1728 4326 1728 4218 1728 
L 755 1728 
C 646 1728 531 1728 531 1600 
C 531 1472 646 1472 755 1472 
L 4218 1472 
z
" transform="scale(0.015625)"/>
       </defs>
       <use xlink:href="#CMR17-31" transform="scale(0.996264)"/>
       <use xlink:href="#CMR17-30" transform="translate(45.690477 0) scale(0.996264)"/>
       <use xlink:href="#CMSY10-0" transform="translate(91.380954 36.153639) scale(0.697382)"/>
       <use xlink:href="#CMR17-31" transform="translate(145.621947 36.153639) scale(0.697382)"/>
      </g>
     </g>
    </g>
    <g id="xtick_2">
     <g id="line2d_4">
      <path d="M 79.113646 116.206749 
L 79.113646 7.059249 
" clip-path="url(#pc9820e4197)" style="fill: none; stroke-dasharray: 1.85,0.8; stroke-dashoffset: 0; stroke: #000000; stroke-opacity: 0.5; stroke-width: 0.5"/>
     </g>
     <g id="line2d_5">
      <g>
       <use xlink:href="#m4844b2fb7c" x="79.113646" y="116.206749" style="stroke: #000000; stroke-width: 0.5"/>
      </g>
     </g>
     <g id="line2d_6">
      <g>
       <use xlink:href="#mcd4febaa28" x="79.113646" y="7.059249" style="stroke: #000000; stroke-width: 0.5"/>
      </g>
     </g>
     <g id="text_2">
      <!-- $\mathdefault{10^{0}}$ -->
      <g transform="translate(72.146692 126.625248) scale(0.1 -0.1)">
       <use xlink:href="#CMR17-31" transform="scale(0.996264)"/>
       <use xlink:href="#CMR17-30" transform="translate(45.690477 0) scale(0.996264)"/>
       <use xlink:href="#CMR17-30" transform="translate(91.380954 36.153639) scale(0.697382)"/>
      </g>
     </g>
    </g>
    <g id="xtick_3">
     <g id="line2d_7">
      <path d="M 122.220646 116.206749 
L 122.220646 7.059249 
" clip-path="url(#pc9820e4197)" style="fill: none; stroke-dasharray: 1.85,0.8; stroke-dashoffset: 0; stroke: #000000; stroke-opacity: 0.5; stroke-width: 0.5"/>
     </g>
     <g id="line2d_8">
      <g>
       <use xlink:href="#m4844b2fb7c" x="122.220646" y="116.206749" style="stroke: #000000; stroke-width: 0.5"/>
      </g>
     </g>
     <g id="line2d_9">
      <g>
       <use xlink:href="#mcd4febaa28" x="122.220646" y="7.059249" style="stroke: #000000; stroke-width: 0.5"/>
      </g>
     </g>
     <g id="text_3">
      <!-- $\mathdefault{10^{1}}$ -->
      <g transform="translate(115.253692 126.625248) scale(0.1 -0.1)">
       <use xlink:href="#CMR17-31" transform="scale(0.996264)"/>
       <use xlink:href="#CMR17-30" transform="translate(45.690477 0) scale(0.996264)"/>
       <use xlink:href="#CMR17-31" transform="translate(91.380954 36.153639) scale(0.697382)"/>
      </g>
     </g>
    </g>
    <g id="xtick_4">
     <g id="line2d_10">
      <path d="M 165.327646 116.206749 
L 165.327646 7.059249 
" clip-path="url(#pc9820e4197)" style="fill: none; stroke-dasharray: 1.85,0.8; stroke-dashoffset: 0; stroke: #000000; stroke-opacity: 0.5; stroke-width: 0.5"/>
     </g>
     <g id="line2d_11">
      <g>
       <use xlink:href="#m4844b2fb7c" x="165.327646" y="116.206749" style="stroke: #000000; stroke-width: 0.5"/>
      </g>
     </g>
     <g id="line2d_12">
      <g>
       <use xlink:href="#mcd4febaa28" x="165.327646" y="7.059249" style="stroke: #000000; stroke-width: 0.5"/>
      </g>
     </g>
     <g id="text_4">
      <!-- $\mathdefault{10^{2}}$ -->
      <g transform="translate(158.360692 126.625248) scale(0.1 -0.1)">
       <defs>
        <path id="CMR17-32" d="M 2669 989 
L 2554 989 
C 2490 536 2438 459 2413 420 
C 2381 369 1920 369 1830 369 
L 602 369 
C 832 619 1280 1072 1824 1597 
C 2214 1967 2669 2402 2669 3035 
C 2669 3790 2067 4224 1395 4224 
C 691 4224 262 3604 262 3030 
C 262 2780 448 2748 525 2748 
C 589 2748 781 2787 781 3010 
C 781 3207 614 3264 525 3264 
C 486 3264 448 3258 422 3245 
C 544 3790 915 4058 1306 4058 
C 1862 4058 2227 3617 2227 3035 
C 2227 2479 1901 2000 1536 1584 
L 262 146 
L 262 0 
L 2515 0 
L 2669 989 
z
" transform="scale(0.015625)"/>
       </defs>
       <use xlink:href="#CMR17-31" transform="scale(0.996264)"/>
       <use xlink:href="#CMR17-30" transform="translate(45.690477 0) scale(0.996264)"/>
       <use xlink:href="#CMR17-32" transform="translate(91.380954 36.153639) scale(0.697382)"/>
      </g>
     </g>
    </g>
    <g id="xtick_5">
     <g id="line2d_13">
      <defs>
       <path id="m507274f411" d="M 0 0 
L 0 -1.5 
" style="stroke: #000000; stroke-width: 0.5"/>
      </defs>
      <g>
       <use xlink:href="#m507274f411" x="48.983146" y="116.206749" style="stroke: #000000; stroke-width: 0.5"/>
      </g>
     </g>
     <g id="line2d_14">
      <defs>
       <path id="mb284e8d247" d="M 0 0 
L 0 1.5 
" style="stroke: #000000; stroke-width: 0.5"/>
      </defs>
      <g>
       <use xlink:href="#mb284e8d247" x="48.983146" y="7.059249" style="stroke: #000000; stroke-width: 0.5"/>
      </g>
     </g>
    </g>
    <g id="xtick_6">
     <g id="line2d_15">
      <g>
       <use xlink:href="#m507274f411" x="56.573912" y="116.206749" style="stroke: #000000; stroke-width: 0.5"/>
      </g>
     </g>
     <g id="line2d_16">
      <g>
       <use xlink:href="#mb284e8d247" x="56.573912" y="7.059249" style="stroke: #000000; stroke-width: 0.5"/>
      </g>
     </g>
    </g>
    <g id="xtick_7">
     <g id="line2d_17">
      <g>
       <use xlink:href="#m507274f411" x="61.959646" y="116.206749" style="stroke: #000000; stroke-width: 0.5"/>
      </g>
     </g>
     <g id="line2d_18">
      <g>
       <use xlink:href="#mb284e8d247" x="61.959646" y="7.059249" style="stroke: #000000; stroke-width: 0.5"/>
      </g>
     </g>
    </g>
    <g id="xtick_8">
     <g id="line2d_19">
      <g>
       <use xlink:href="#m507274f411" x="66.137146" y="116.206749" style="stroke: #000000; stroke-width: 0.5"/>
      </g>
     </g>
     <g id="line2d_20">
      <g>
       <use xlink:href="#mb284e8d247" x="66.137146" y="7.059249" style="stroke: #000000; stroke-width: 0.5"/>
      </g>
     </g>
    </g>
    <g id="xtick_9">
     <g id="line2d_21">
      <g>
       <use xlink:href="#m507274f411" x="69.550412" y="116.206749" style="stroke: #000000; stroke-width: 0.5"/>
      </g>
     </g>
     <g id="line2d_22">
      <g>
       <use xlink:href="#mb284e8d247" x="69.550412" y="7.059249" style="stroke: #000000; stroke-width: 0.5"/>
      </g>
     </g>
    </g>
    <g id="xtick_10">
     <g id="line2d_23">
      <g>
       <use xlink:href="#m507274f411" x="72.436287" y="116.206749" style="stroke: #000000; stroke-width: 0.5"/>
      </g>
     </g>
     <g id="line2d_24">
      <g>
       <use xlink:href="#mb284e8d247" x="72.436287" y="7.059249" style="stroke: #000000; stroke-width: 0.5"/>
      </g>
     </g>
    </g>
    <g id="xtick_11">
     <g id="line2d_25">
      <g>
       <use xlink:href="#m507274f411" x="74.936146" y="116.206749" style="stroke: #000000; stroke-width: 0.5"/>
      </g>
     </g>
     <g id="line2d_26">
      <g>
       <use xlink:href="#mb284e8d247" x="74.936146" y="7.059249" style="stroke: #000000; stroke-width: 0.5"/>
      </g>
     </g>
    </g>
    <g id="xtick_12">
     <g id="line2d_27">
      <g>
       <use xlink:href="#m507274f411" x="77.141178" y="116.206749" style="stroke: #000000; stroke-width: 0.5"/>
      </g>
     </g>
     <g id="line2d_28">
      <g>
       <use xlink:href="#mb284e8d247" x="77.141178" y="7.059249" style="stroke: #000000; stroke-width: 0.5"/>
      </g>
     </g>
    </g>
    <g id="xtick_13">
     <g id="line2d_29">
      <g>
       <use xlink:href="#m507274f411" x="92.090146" y="116.206749" style="stroke: #000000; stroke-width: 0.5"/>
      </g>
     </g>
     <g id="line2d_30">
      <g>
       <use xlink:href="#mb284e8d247" x="92.090146" y="7.059249" style="stroke: #000000; stroke-width: 0.5"/>
      </g>
     </g>
    </g>
    <g id="xtick_14">
     <g id="line2d_31">
      <g>
       <use xlink:href="#m507274f411" x="99.680912" y="116.206749" style="stroke: #000000; stroke-width: 0.5"/>
      </g>
     </g>
     <g id="line2d_32">
      <g>
       <use xlink:href="#mb284e8d247" x="99.680912" y="7.059249" style="stroke: #000000; stroke-width: 0.5"/>
      </g>
     </g>
    </g>
    <g id="xtick_15">
     <g id="line2d_33">
      <g>
       <use xlink:href="#m507274f411" x="105.066646" y="116.206749" style="stroke: #000000; stroke-width: 0.5"/>
      </g>
     </g>
     <g id="line2d_34">
      <g>
       <use xlink:href="#mb284e8d247" x="105.066646" y="7.059249" style="stroke: #000000; stroke-width: 0.5"/>
      </g>
     </g>
    </g>
    <g id="xtick_16">
     <g id="line2d_35">
      <g>
       <use xlink:href="#m507274f411" x="109.244146" y="116.206749" style="stroke: #000000; stroke-width: 0.5"/>
      </g>
     </g>
     <g id="line2d_36">
      <g>
       <use xlink:href="#mb284e8d247" x="109.244146" y="7.059249" style="stroke: #000000; stroke-width: 0.5"/>
      </g>
     </g>
    </g>
    <g id="xtick_17">
     <g id="line2d_37">
      <g>
       <use xlink:href="#m507274f411" x="112.657412" y="116.206749" style="stroke: #000000; stroke-width: 0.5"/>
      </g>
     </g>
     <g id="line2d_38">
      <g>
       <use xlink:href="#mb284e8d247" x="112.657412" y="7.059249" style="stroke: #000000; stroke-width: 0.5"/>
      </g>
     </g>
    </g>
    <g id="xtick_18">
     <g id="line2d_39">
      <g>
       <use xlink:href="#m507274f411" x="115.543287" y="116.206749" style="stroke: #000000; stroke-width: 0.5"/>
      </g>
     </g>
     <g id="line2d_40">
      <g>
       <use xlink:href="#mb284e8d247" x="115.543287" y="7.059249" style="stroke: #000000; stroke-width: 0.5"/>
      </g>
     </g>
    </g>
    <g id="xtick_19">
     <g id="line2d_41">
      <g>
       <use xlink:href="#m507274f411" x="118.043146" y="116.206749" style="stroke: #000000; stroke-width: 0.5"/>
      </g>
     </g>
     <g id="line2d_42">
      <g>
       <use xlink:href="#mb284e8d247" x="118.043146" y="7.059249" style="stroke: #000000; stroke-width: 0.5"/>
      </g>
     </g>
    </g>
    <g id="xtick_20">
     <g id="line2d_43">
      <g>
       <use xlink:href="#m507274f411" x="120.248178" y="116.206749" style="stroke: #000000; stroke-width: 0.5"/>
      </g>
     </g>
     <g id="line2d_44">
      <g>
       <use xlink:href="#mb284e8d247" x="120.248178" y="7.059249" style="stroke: #000000; stroke-width: 0.5"/>
      </g>
     </g>
    </g>
    <g id="xtick_21">
     <g id="line2d_45">
      <g>
       <use xlink:href="#m507274f411" x="135.197146" y="116.206749" style="stroke: #000000; stroke-width: 0.5"/>
      </g>
     </g>
     <g id="line2d_46">
      <g>
       <use xlink:href="#mb284e8d247" x="135.197146" y="7.059249" style="stroke: #000000; stroke-width: 0.5"/>
      </g>
     </g>
    </g>
    <g id="xtick_22">
     <g id="line2d_47">
      <g>
       <use xlink:href="#m507274f411" x="142.787912" y="116.206749" style="stroke: #000000; stroke-width: 0.5"/>
      </g>
     </g>
     <g id="line2d_48">
      <g>
       <use xlink:href="#mb284e8d247" x="142.787912" y="7.059249" style="stroke: #000000; stroke-width: 0.5"/>
      </g>
     </g>
    </g>
    <g id="xtick_23">
     <g id="line2d_49">
      <g>
       <use xlink:href="#m507274f411" x="148.173646" y="116.206749" style="stroke: #000000; stroke-width: 0.5"/>
      </g>
     </g>
     <g id="line2d_50">
      <g>
       <use xlink:href="#mb284e8d247" x="148.173646" y="7.059249" style="stroke: #000000; stroke-width: 0.5"/>
      </g>
     </g>
    </g>
    <g id="xtick_24">
     <g id="line2d_51">
      <g>
       <use xlink:href="#m507274f411" x="152.351146" y="116.206749" style="stroke: #000000; stroke-width: 0.5"/>
      </g>
     </g>
     <g id="line2d_52">
      <g>
       <use xlink:href="#mb284e8d247" x="152.351146" y="7.059249" style="stroke: #000000; stroke-width: 0.5"/>
      </g>
     </g>
    </g>
    <g id="xtick_25">
     <g id="line2d_53">
      <g>
       <use xlink:href="#m507274f411" x="155.764412" y="116.206749" style="stroke: #000000; stroke-width: 0.5"/>
      </g>
     </g>
     <g id="line2d_54">
      <g>
       <use xlink:href="#mb284e8d247" x="155.764412" y="7.059249" style="stroke: #000000; stroke-width: 0.5"/>
      </g>
     </g>
    </g>
    <g id="xtick_26">
     <g id="line2d_55">
      <g>
       <use xlink:href="#m507274f411" x="158.650287" y="116.206749" style="stroke: #000000; stroke-width: 0.5"/>
      </g>
     </g>
     <g id="line2d_56">
      <g>
       <use xlink:href="#mb284e8d247" x="158.650287" y="7.059249" style="stroke: #000000; stroke-width: 0.5"/>
      </g>
     </g>
    </g>
    <g id="xtick_27">
     <g id="line2d_57">
      <g>
       <use xlink:href="#m507274f411" x="161.150146" y="116.206749" style="stroke: #000000; stroke-width: 0.5"/>
      </g>
     </g>
     <g id="line2d_58">
      <g>
       <use xlink:href="#mb284e8d247" x="161.150146" y="7.059249" style="stroke: #000000; stroke-width: 0.5"/>
      </g>
     </g>
    </g>
    <g id="xtick_28">
     <g id="line2d_59">
      <g>
       <use xlink:href="#m507274f411" x="163.355178" y="116.206749" style="stroke: #000000; stroke-width: 0.5"/>
      </g>
     </g>
     <g id="line2d_60">
      <g>
       <use xlink:href="#mb284e8d247" x="163.355178" y="7.059249" style="stroke: #000000; stroke-width: 0.5"/>
      </g>
     </g>
    </g>
    <g id="xtick_29">
     <g id="line2d_61">
      <g>
       <use xlink:href="#m507274f411" x="178.304146" y="116.206749" style="stroke: #000000; stroke-width: 0.5"/>
      </g>
     </g>
     <g id="line2d_62">
      <g>
       <use xlink:href="#mb284e8d247" x="178.304146" y="7.059249" style="stroke: #000000; stroke-width: 0.5"/>
      </g>
     </g>
    </g>
    <g id="text_5">
     <!-- $f_0~[\mathrm{MHz}]$ -->
     <g transform="translate(89.626694 140.034406) scale(0.1 -0.1)">
      <defs>
       <path id="CMMI12-66" d="M 2854 2566 
C 2982 2566 3034 2566 3034 2688 
C 3034 2752 2982 2752 2867 2752 
L 2349 2752 
C 2470 3429 2560 3897 2611 4107 
C 2650 4265 2784 4416 2950 4416 
C 3085 4416 3219 4358 3283 4298 
C 3034 4272 2957 4082 2957 3969 
C 2957 3837 3053 3759 3174 3759 
C 3302 3759 3494 3870 3494 4119 
C 3494 4393 3226 4544 2944 4544 
C 2669 4544 2400 4334 2272 4078 
C 2157 3848 2093 3611 1946 2752 
L 1517 2752 
C 1395 2752 1331 2752 1331 2637 
C 1331 2566 1370 2566 1498 2566 
L 1907 2566 
C 1792 1976 1530 542 1382 -137 
C 1274 -689 1178 -1152 858 -1152 
C 838 -1152 653 -1152 538 -1031 
C 864 -1005 864 -726 864 -720 
C 864 -593 768 -517 646 -517 
C 518 -517 326 -625 326 -867 
C 326 -1140 608 -1280 858 -1280 
C 1510 -1280 1779 -118 1850 199 
C 1965 688 2278 2376 2310 2566 
L 2854 2566 
z
" transform="scale(0.015625)"/>
       <path id="CMR17-5b" d="M 1504 -1600 
L 1504 -1377 
L 902 -1377 
L 902 4544 
L 1504 4544 
L 1504 4767 
L 678 4767 
L 678 -1600 
L 1504 -1600 
z
" transform="scale(0.015625)"/>
       <path id="CMR17-4d" d="M 1338 4224 
C 1299 4320 1293 4320 1158 4320 
L 339 4320 
L 339 4160 
C 781 4160 851 4160 851 3875 
L 851 610 
C 851 451 851 153 339 153 
L 339 -13 
C 486 0 755 0 915 0 
C 1075 0 1344 0 1491 -13 
L 1491 153 
C 979 153 979 451 979 610 
L 979 4135 
L 986 4135 
L 2490 89 
C 2515 25 2528 -13 2579 -13 
C 2630 -13 2643 25 2669 89 
L 4186 4166 
L 4192 4166 
L 4192 438 
C 4192 153 4122 153 3680 153 
L 3680 -13 
C 3853 0 4198 0 4384 0 
C 4570 0 4922 0 5094 -13 
L 5094 153 
C 4653 153 4582 153 4582 438 
L 4582 3875 
C 4582 4160 4653 4160 5094 4160 
L 5094 4320 
L 4282 4320 
C 4147 4320 4141 4314 4102 4218 
L 2720 502 
L 1338 4224 
z
" transform="scale(0.015625)"/>
       <path id="CMR17-48" d="M 3590 3905 
C 3590 4192 3661 4192 4102 4192 
L 4102 4352 
C 3917 4352 3578 4352 3379 4352 
C 3181 4352 2842 4352 2656 4352 
L 2656 4192 
C 3098 4192 3168 4192 3168 3904 
L 3168 2341 
L 1261 2341 
L 1261 3904 
C 1261 4192 1331 4192 1773 4192 
L 1773 4352 
C 1587 4352 1248 4352 1050 4352 
C 851 4352 512 4352 326 4352 
L 326 4192 
C 768 4192 838 4192 838 3905 
L 838 447 
C 838 160 768 160 326 160 
L 326 0 
C 512 0 851 0 1050 0 
C 1248 0 1587 0 1773 0 
L 1773 160 
C 1331 160 1261 160 1261 446 
L 1261 2176 
L 3168 2176 
L 3168 446 
C 3168 160 3098 160 2656 160 
L 2656 0 
C 2842 0 3181 0 3379 0 
C 3578 0 3917 0 4102 0 
L 4102 160 
C 3661 160 3590 160 3590 447 
L 3590 3905 
z
" transform="scale(0.015625)"/>
       <path id="CMR17-7a" d="M 2310 2605 
C 2362 2670 2362 2682 2362 2695 
C 2362 2752 2336 2752 2221 2752 
L 275 2752 
L 211 1760 
L 326 1760 
C 371 2381 442 2650 1178 2650 
L 1958 2650 
L 128 96 
C 128 0 134 0 269 0 
L 2291 0 
L 2381 1152 
L 2266 1152 
C 2214 442 2131 115 1350 115 
L 531 115 
L 2310 2605 
z
" transform="scale(0.015625)"/>
       <path id="CMR17-5d" d="M 915 4767 
L 90 4767 
L 90 4544 
L 691 4544 
L 691 -1377 
L 90 -1377 
L 90 -1600 
L 915 -1600 
L 915 4767 
z
" transform="scale(0.015625)"/>
      </defs>
      <use xlink:href="#CMMI12-66" transform="scale(0.996264)"/>
      <use xlink:href="#CMR17-30" transform="translate(48.083238 -14.943915) scale(0.697382)"/>
      <use xlink:href="#CMR17-5b" transform="translate(110.640518 0) scale(0.996264)"/>
      <use xlink:href="#CMR17-4d" transform="translate(135.511576 0) scale(0.996264)"/>
      <use xlink:href="#CMR17-48" transform="translate(220.198517 0) scale(0.996264)"/>
      <use xlink:href="#CMR17-7a" transform="translate(289.270947 0) scale(0.996264)"/>
      <use xlink:href="#CMR17-5d" transform="translate(329.756607 0) scale(0.996264)"/>
     </g>
    </g>
   </g>
   <g id="matplotlib.axis_2">
    <g id="ytick_1">
     <g id="line2d_63">
      <path d="M 36.006646 116.206749 
L 182.481646 116.206749 
" clip-path="url(#pc9820e4197)" style="fill: none; stroke-dasharray: 1.85,0.8; stroke-dashoffset: 0; stroke: #000000; stroke-opacity: 0.5; stroke-width: 0.5"/>
     </g>
     <g id="line2d_64">
      <defs>
       <path id="mbd2fbd98e1" d="M 0 0 
L 3 0 
" style="stroke: #000000; stroke-width: 0.5"/>
      </defs>
      <g>
       <use xlink:href="#mbd2fbd98e1" x="36.006646" y="116.206749" style="stroke: #000000; stroke-width: 0.5"/>
      </g>
     </g>
     <g id="line2d_65">
      <defs>
       <path id="mda820a6888" d="M 0 0 
L -3 0 
" style="stroke: #000000; stroke-width: 0.5"/>
      </defs>
      <g>
       <use xlink:href="#mda820a6888" x="182.481646" y="116.206749" style="stroke: #000000; stroke-width: 0.5"/>
      </g>
     </g>
     <g id="text_6">
      <!-- $\mathdefault{0}$ -->
      <g transform="translate(27.525311 119.665998) scale(0.1 -0.1)">
       <use xlink:href="#CMR17-30" transform="scale(0.996264)"/>
      </g>
     </g>
    </g>
    <g id="ytick_2">
     <g id="line2d_66">
      <path d="M 36.006646 94.377249 
L 182.481646 94.377249 
" clip-path="url(#pc9820e4197)" style="fill: none; stroke-dasharray: 1.85,0.8; stroke-dashoffset: 0; stroke: #000000; stroke-opacity: 0.5; stroke-width: 0.5"/>
     </g>
     <g id="line2d_67">
      <g>
       <use xlink:href="#mbd2fbd98e1" x="36.006646" y="94.377249" style="stroke: #000000; stroke-width: 0.5"/>
      </g>
     </g>
     <g id="line2d_68">
      <g>
       <use xlink:href="#mda820a6888" x="182.481646" y="94.377249" style="stroke: #000000; stroke-width: 0.5"/>
      </g>
     </g>
     <g id="text_7">
      <!-- $\mathdefault{20}$ -->
      <g transform="translate(22.543975 97.836498) scale(0.1 -0.1)">
       <use xlink:href="#CMR17-32" transform="scale(0.996264)"/>
       <use xlink:href="#CMR17-30" transform="translate(45.690477 0) scale(0.996264)"/>
      </g>
     </g>
    </g>
    <g id="ytick_3">
     <g id="line2d_69">
      <path d="M 36.006646 72.547749 
L 182.481646 72.547749 
" clip-path="url(#pc9820e4197)" style="fill: none; stroke-dasharray: 1.85,0.8; stroke-dashoffset: 0; stroke: #000000; stroke-opacity: 0.5; stroke-width: 0.5"/>
     </g>
     <g id="line2d_70">
      <g>
       <use xlink:href="#mbd2fbd98e1" x="36.006646" y="72.547749" style="stroke: #000000; stroke-width: 0.5"/>
      </g>
     </g>
     <g id="line2d_71">
      <g>
       <use xlink:href="#mda820a6888" x="182.481646" y="72.547749" style="stroke: #000000; stroke-width: 0.5"/>
      </g>
     </g>
     <g id="text_8">
      <!-- $\mathdefault{40}$ -->
      <g transform="translate(22.543975 76.006998) scale(0.1 -0.1)">
       <defs>
        <path id="CMR17-34" d="M 2150 4122 
C 2150 4256 2144 4256 2029 4256 
L 128 1254 
L 128 1088 
L 1779 1088 
L 1779 457 
C 1779 224 1766 160 1318 160 
L 1197 160 
L 1197 0 
C 1402 0 1747 0 1965 0 
C 2182 0 2528 0 2733 0 
L 2733 160 
L 2611 160 
C 2163 160 2150 224 2150 457 
L 2150 1088 
L 2803 1088 
L 2803 1254 
L 2150 1254 
L 2150 4122 
z
M 1798 3703 
L 1798 1254 
L 256 1254 
L 1798 3703 
z
" transform="scale(0.015625)"/>
       </defs>
       <use xlink:href="#CMR17-34" transform="scale(0.996264)"/>
       <use xlink:href="#CMR17-30" transform="translate(45.690477 0) scale(0.996264)"/>
      </g>
     </g>
    </g>
    <g id="ytick_4">
     <g id="line2d_72">
      <path d="M 36.006646 50.718249 
L 182.481646 50.718249 
" clip-path="url(#pc9820e4197)" style="fill: none; stroke-dasharray: 1.85,0.8; stroke-dashoffset: 0; stroke: #000000; stroke-opacity: 0.5; stroke-width: 0.5"/>
     </g>
     <g id="line2d_73">
      <g>
       <use xlink:href="#mbd2fbd98e1" x="36.006646" y="50.718249" style="stroke: #000000; stroke-width: 0.5"/>
      </g>
     </g>
     <g id="line2d_74">
      <g>
       <use xlink:href="#mda820a6888" x="182.481646" y="50.718249" style="stroke: #000000; stroke-width: 0.5"/>
      </g>
     </g>
     <g id="text_9">
      <!-- $\mathdefault{60}$ -->
      <g transform="translate(22.543975 54.177498) scale(0.1 -0.1)">
       <defs>
        <path id="CMR17-36" d="M 678 2176 
C 678 3690 1395 4032 1811 4032 
C 1946 4032 2272 4009 2400 3776 
C 2298 3776 2106 3776 2106 3553 
C 2106 3381 2246 3323 2336 3323 
C 2394 3323 2566 3348 2566 3560 
C 2566 3954 2246 4179 1805 4179 
C 1043 4179 243 3390 243 1984 
C 243 253 966 -128 1478 -128 
C 2099 -128 2688 427 2688 1283 
C 2688 2081 2170 2662 1517 2662 
C 1126 2662 838 2407 678 1960 
L 678 2176 
z
M 1478 25 
C 691 25 691 1200 691 1436 
C 691 1896 909 2560 1504 2560 
C 1613 2560 1926 2560 2138 2120 
C 2253 1870 2253 1609 2253 1289 
C 2253 944 2253 690 2118 434 
C 1978 171 1773 25 1478 25 
z
" transform="scale(0.015625)"/>
       </defs>
       <use xlink:href="#CMR17-36" transform="scale(0.996264)"/>
       <use xlink:href="#CMR17-30" transform="translate(45.690477 0) scale(0.996264)"/>
      </g>
     </g>
    </g>
    <g id="ytick_5">
     <g id="line2d_75">
      <path d="M 36.006646 28.888749 
L 182.481646 28.888749 
" clip-path="url(#pc9820e4197)" style="fill: none; stroke-dasharray: 1.85,0.8; stroke-dashoffset: 0; stroke: #000000; stroke-opacity: 0.5; stroke-width: 0.5"/>
     </g>
     <g id="line2d_76">
      <g>
       <use xlink:href="#mbd2fbd98e1" x="36.006646" y="28.888749" style="stroke: #000000; stroke-width: 0.5"/>
      </g>
     </g>
     <g id="line2d_77">
      <g>
       <use xlink:href="#mda820a6888" x="182.481646" y="28.888749" style="stroke: #000000; stroke-width: 0.5"/>
      </g>
     </g>
     <g id="text_10">
      <!-- $\mathdefault{80}$ -->
      <g transform="translate(22.543975 32.347998) scale(0.1 -0.1)">
       <defs>
        <path id="CMR17-38" d="M 1741 2264 
C 2144 2467 2554 2773 2554 3263 
C 2554 3841 1990 4179 1472 4179 
C 890 4179 378 3759 378 3180 
C 378 3021 416 2747 666 2505 
C 730 2442 998 2251 1171 2130 
C 883 1983 211 1634 211 934 
C 211 279 838 -128 1459 -128 
C 2144 -128 2720 362 2720 1010 
C 2720 1590 2330 1857 2074 2029 
L 1741 2264 
z
M 902 2822 
C 851 2854 595 3051 595 3351 
C 595 3739 998 4032 1459 4032 
C 1965 4032 2336 3676 2336 3262 
C 2336 2669 1670 2331 1638 2331 
C 1632 2331 1626 2331 1574 2370 
L 902 2822 
z
M 2080 1519 
C 2176 1449 2483 1240 2483 851 
C 2483 381 2010 25 1472 25 
C 890 25 448 438 448 940 
C 448 1443 838 1862 1280 2060 
L 2080 1519 
z
" transform="scale(0.015625)"/>
       </defs>
       <use xlink:href="#CMR17-38" transform="scale(0.996264)"/>
       <use xlink:href="#CMR17-30" transform="translate(45.690477 0) scale(0.996264)"/>
      </g>
     </g>
    </g>
    <g id="ytick_6">
     <g id="line2d_78">
      <path d="M 36.006646 7.059249 
L 182.481646 7.059249 
" clip-path="url(#pc9820e4197)" style="fill: none; stroke-dasharray: 1.85,0.8; stroke-dashoffset: 0; stroke: #000000; stroke-opacity: 0.5; stroke-width: 0.5"/>
     </g>
     <g id="line2d_79">
      <g>
       <use xlink:href="#mbd2fbd98e1" x="36.006646" y="7.059249" style="stroke: #000000; stroke-width: 0.5"/>
      </g>
     </g>
     <g id="line2d_80">
      <g>
       <use xlink:href="#mda820a6888" x="182.481646" y="7.059249" style="stroke: #000000; stroke-width: 0.5"/>
      </g>
     </g>
     <g id="text_11">
      <!-- $\mathdefault{100}$ -->
      <g transform="translate(17.56264 10.518498) scale(0.1 -0.1)">
       <use xlink:href="#CMR17-31" transform="scale(0.996264)"/>
       <use xlink:href="#CMR17-30" transform="translate(45.690477 0) scale(0.996264)"/>
       <use xlink:href="#CMR17-30" transform="translate(91.380954 0) scale(0.996264)"/>
      </g>
     </g>
    </g>
    <g id="ytick_7">
     <g id="line2d_81">
      <defs>
       <path id="mc73e976839" d="M 0 0 
L 1.5 0 
" style="stroke: #000000; stroke-width: 0.5"/>
      </defs>
      <g>
       <use xlink:href="#mc73e976839" x="36.006646" y="110.749374" style="stroke: #000000; stroke-width: 0.5"/>
      </g>
     </g>
     <g id="line2d_82">
      <defs>
       <path id="mb89cf22a10" d="M 0 0 
L -1.5 0 
" style="stroke: #000000; stroke-width: 0.5"/>
      </defs>
      <g>
       <use xlink:href="#mb89cf22a10" x="182.481646" y="110.749374" style="stroke: #000000; stroke-width: 0.5"/>
      </g>
     </g>
    </g>
    <g id="ytick_8">
     <g id="line2d_83">
      <g>
       <use xlink:href="#mc73e976839" x="36.006646" y="105.291999" style="stroke: #000000; stroke-width: 0.5"/>
      </g>
     </g>
     <g id="line2d_84">
      <g>
       <use xlink:href="#mb89cf22a10" x="182.481646" y="105.291999" style="stroke: #000000; stroke-width: 0.5"/>
      </g>
     </g>
    </g>
    <g id="ytick_9">
     <g id="line2d_85">
      <g>
       <use xlink:href="#mc73e976839" x="36.006646" y="99.834624" style="stroke: #000000; stroke-width: 0.5"/>
      </g>
     </g>
     <g id="line2d_86">
      <g>
       <use xlink:href="#mb89cf22a10" x="182.481646" y="99.834624" style="stroke: #000000; stroke-width: 0.5"/>
      </g>
     </g>
    </g>
    <g id="ytick_10">
     <g id="line2d_87">
      <g>
       <use xlink:href="#mc73e976839" x="36.006646" y="88.919874" style="stroke: #000000; stroke-width: 0.5"/>
      </g>
     </g>
     <g id="line2d_88">
      <g>
       <use xlink:href="#mb89cf22a10" x="182.481646" y="88.919874" style="stroke: #000000; stroke-width: 0.5"/>
      </g>
     </g>
    </g>
    <g id="ytick_11">
     <g id="line2d_89">
      <g>
       <use xlink:href="#mc73e976839" x="36.006646" y="83.462499" style="stroke: #000000; stroke-width: 0.5"/>
      </g>
     </g>
     <g id="line2d_90">
      <g>
       <use xlink:href="#mb89cf22a10" x="182.481646" y="83.462499" style="stroke: #000000; stroke-width: 0.5"/>
      </g>
     </g>
    </g>
    <g id="ytick_12">
     <g id="line2d_91">
      <g>
       <use xlink:href="#mc73e976839" x="36.006646" y="78.005124" style="stroke: #000000; stroke-width: 0.5"/>
      </g>
     </g>
     <g id="line2d_92">
      <g>
       <use xlink:href="#mb89cf22a10" x="182.481646" y="78.005124" style="stroke: #000000; stroke-width: 0.5"/>
      </g>
     </g>
    </g>
    <g id="ytick_13">
     <g id="line2d_93">
      <g>
       <use xlink:href="#mc73e976839" x="36.006646" y="67.090374" style="stroke: #000000; stroke-width: 0.5"/>
      </g>
     </g>
     <g id="line2d_94">
      <g>
       <use xlink:href="#mb89cf22a10" x="182.481646" y="67.090374" style="stroke: #000000; stroke-width: 0.5"/>
      </g>
     </g>
    </g>
    <g id="ytick_14">
     <g id="line2d_95">
      <g>
       <use xlink:href="#mc73e976839" x="36.006646" y="61.632999" style="stroke: #000000; stroke-width: 0.5"/>
      </g>
     </g>
     <g id="line2d_96">
      <g>
       <use xlink:href="#mb89cf22a10" x="182.481646" y="61.632999" style="stroke: #000000; stroke-width: 0.5"/>
      </g>
     </g>
    </g>
    <g id="ytick_15">
     <g id="line2d_97">
      <g>
       <use xlink:href="#mc73e976839" x="36.006646" y="56.175624" style="stroke: #000000; stroke-width: 0.5"/>
      </g>
     </g>
     <g id="line2d_98">
      <g>
       <use xlink:href="#mb89cf22a10" x="182.481646" y="56.175624" style="stroke: #000000; stroke-width: 0.5"/>
      </g>
     </g>
    </g>
    <g id="ytick_16">
     <g id="line2d_99">
      <g>
       <use xlink:href="#mc73e976839" x="36.006646" y="45.260874" style="stroke: #000000; stroke-width: 0.5"/>
      </g>
     </g>
     <g id="line2d_100">
      <g>
       <use xlink:href="#mb89cf22a10" x="182.481646" y="45.260874" style="stroke: #000000; stroke-width: 0.5"/>
      </g>
     </g>
    </g>
    <g id="ytick_17">
     <g id="line2d_101">
      <g>
       <use xlink:href="#mc73e976839" x="36.006646" y="39.803499" style="stroke: #000000; stroke-width: 0.5"/>
      </g>
     </g>
     <g id="line2d_102">
      <g>
       <use xlink:href="#mb89cf22a10" x="182.481646" y="39.803499" style="stroke: #000000; stroke-width: 0.5"/>
      </g>
     </g>
    </g>
    <g id="ytick_18">
     <g id="line2d_103">
      <g>
       <use xlink:href="#mc73e976839" x="36.006646" y="34.346124" style="stroke: #000000; stroke-width: 0.5"/>
      </g>
     </g>
     <g id="line2d_104">
      <g>
       <use xlink:href="#mb89cf22a10" x="182.481646" y="34.346124" style="stroke: #000000; stroke-width: 0.5"/>
      </g>
     </g>
    </g>
    <g id="ytick_19">
     <g id="line2d_105">
      <g>
       <use xlink:href="#mc73e976839" x="36.006646" y="23.431374" style="stroke: #000000; stroke-width: 0.5"/>
      </g>
     </g>
     <g id="line2d_106">
      <g>
       <use xlink:href="#mb89cf22a10" x="182.481646" y="23.431374" style="stroke: #000000; stroke-width: 0.5"/>
      </g>
     </g>
    </g>
    <g id="ytick_20">
     <g id="line2d_107">
      <g>
       <use xlink:href="#mc73e976839" x="36.006646" y="17.973999" style="stroke: #000000; stroke-width: 0.5"/>
      </g>
     </g>
     <g id="line2d_108">
      <g>
       <use xlink:href="#mb89cf22a10" x="182.481646" y="17.973999" style="stroke: #000000; stroke-width: 0.5"/>
      </g>
     </g>
    </g>
    <g id="ytick_21">
     <g id="line2d_109">
      <g>
       <use xlink:href="#mc73e976839" x="36.006646" y="12.516624" style="stroke: #000000; stroke-width: 0.5"/>
      </g>
     </g>
     <g id="line2d_110">
      <g>
       <use xlink:href="#mb89cf22a10" x="182.481646" y="12.516624" style="stroke: #000000; stroke-width: 0.5"/>
      </g>
     </g>
    </g>
    <g id="text_12">
     <!-- $Y_{I}(f_0)$ [aS] -->
     <g transform="translate(11.07198 85.044231) rotate(-90) scale(0.1 -0.1)">
      <defs>
       <path id="CMMI12-59" d="M 3763 3645 
L 3910 3791 
C 4192 4078 4429 4149 4653 4167 
C 4723 4173 4781 4179 4781 4288 
C 4781 4352 4717 4352 4704 4352 
C 4627 4352 4544 4352 4467 4352 
L 4205 4352 
C 4019 4352 3821 4352 3642 4352 
C 3597 4352 3526 4352 3526 4226 
C 3526 4166 3590 4160 3610 4160 
C 3802 4160 3802 4064 3802 4026 
C 3802 3956 3750 3860 3622 3713 
L 2099 1969 
L 1376 3911 
C 1338 4000 1338 4013 1338 4026 
C 1338 4160 1600 4160 1677 4160 
C 1754 4160 1824 4160 1824 4279 
C 1824 4352 1766 4352 1728 4352 
C 1619 4352 1491 4352 1382 4352 
L 672 4352 
C 557 4352 435 4352 326 4352 
C 282 4352 211 4352 211 4226 
C 211 4160 269 4160 365 4160 
C 678 4160 736 4102 794 3956 
L 1587 1835 
C 1594 1816 1613 1745 1613 1726 
C 1613 1707 1299 452 1280 388 
C 1229 217 1165 185 755 185 
C 646 185 595 185 595 64 
C 595 0 666 0 685 0 
C 800 0 934 0 1056 0 
L 1811 0 
C 1926 0 2061 0 2176 0 
C 2221 0 2298 0 2298 115 
C 2298 185 2253 185 2144 185 
C 1747 185 1747 230 1747 300 
C 1747 345 1798 548 1830 676 
L 2061 1594 
C 2099 1727 2099 1739 2157 1803 
L 3763 3645 
z
" transform="scale(0.015625)"/>
       <path id="CMMI12-49" d="M 2355 3880 
C 2413 4103 2426 4167 2893 4167 
C 3034 4167 3085 4167 3085 4288 
C 3085 4352 3014 4352 2995 4352 
C 2880 4352 2739 4352 2624 4352 
L 1837 4352 
C 1709 4352 1562 4352 1434 4352 
C 1382 4352 1312 4352 1312 4231 
C 1312 4167 1363 4167 1491 4167 
C 1888 4167 1888 4116 1888 4046 
C 1888 4002 1875 3963 1862 3906 
L 998 472 
C 941 249 928 185 461 185 
C 320 185 262 185 262 64 
C 262 0 326 0 358 0 
C 474 0 614 0 730 0 
L 1517 0 
C 1645 0 1786 0 1914 0 
C 1965 0 2042 0 2042 115 
C 2042 185 2003 185 1862 185 
C 1466 185 1466 236 1466 312 
C 1466 325 1466 357 1491 459 
L 2355 3880 
z
" transform="scale(0.015625)"/>
       <path id="CMR17-28" d="M 1958 -1561 
C 1958 -1555 1958 -1542 1939 -1523 
C 1645 -1224 858 -407 858 1581 
C 858 3569 1632 4379 1946 4697 
C 1946 4704 1958 4717 1958 4736 
C 1958 4755 1939 4768 1914 4768 
C 1843 4768 1299 4296 986 3594 
C 666 2887 576 2199 576 1588 
C 576 1128 621 351 1005 -471 
C 1312 -1135 1837 -1600 1914 -1600 
C 1946 -1600 1958 -1587 1958 -1561 
z
" transform="scale(0.015625)"/>
       <path id="CMR17-29" d="M 1683 1581 
C 1683 2040 1638 2817 1254 3639 
C 947 4303 422 4768 346 4768 
C 326 4768 301 4761 301 4729 
C 301 4717 307 4710 314 4697 
C 621 4378 1402 3568 1402 1584 
C 1402 -407 627 -1217 314 -1537 
C 307 -1549 301 -1556 301 -1568 
C 301 -1600 326 -1600 346 -1600 
C 416 -1600 960 -1128 1274 -426 
C 1594 281 1683 969 1683 1581 
z
" transform="scale(0.015625)"/>
       <path id="CMR17-61" d="M 2304 1653 
C 2304 2072 2304 2294 2035 2543 
C 1798 2752 1523 2816 1306 2816 
C 800 2816 435 2407 435 1971 
C 435 1728 627 1728 666 1728 
C 749 1728 896 1778 896 1954 
C 896 2112 774 2181 666 2181 
C 640 2181 608 2174 589 2168 
C 723 2592 1069 2714 1293 2714 
C 1613 2714 1965 2429 1965 1885 
L 1965 1600 
C 1587 1600 1133 1549 774 1357 
C 371 1133 256 813 256 570 
C 256 77 832 -64 1171 -64 
C 1523 -64 1850 139 1990 511 
C 2003 233 2182 -18 2464 -18 
C 2598 -18 2938 70 2938 567 
L 2938 920 
L 2822 920 
L 2822 562 
C 2822 178 2650 128 2566 128 
C 2304 128 2304 458 2304 738 
L 2304 1653 
z
M 1965 870 
C 1965 317 1568 38 1216 38 
C 896 38 646 275 646 570 
C 646 761 730 1100 1101 1305 
C 1408 1478 1760 1504 1965 1504 
L 1965 870 
z
" transform="scale(0.015625)"/>
       <path id="CMR17-53" d="M 2803 4290 
C 2803 4404 2797 4411 2758 4411 
C 2720 4411 2707 4385 2682 4328 
L 2490 3907 
C 2246 4257 1875 4416 1472 4416 
C 819 4416 294 3901 294 3253 
C 294 3056 339 2776 557 2510 
C 794 2218 1018 2167 1530 2033 
C 1722 1982 2042 1899 2106 1874 
C 2470 1722 2662 1341 2662 985 
C 2662 527 2336 38 1779 38 
C 1094 38 454 419 410 1311 
C 403 1413 397 1419 352 1419 
C 301 1419 294 1413 294 1285 
L 294 -1 
C 294 -115 301 -122 339 -122 
C 384 -122 397 -90 486 108 
C 493 127 493 140 614 381 
C 934 -39 1472 -128 1779 -128 
C 2477 -128 2970 451 2970 1124 
C 2970 1454 2848 1708 2778 1823 
C 2509 2230 2221 2306 1914 2382 
C 1869 2402 1856 2402 1498 2490 
C 1152 2579 1005 2624 845 2796 
C 666 2992 602 3196 602 3399 
C 602 3812 934 4263 1478 4263 
C 2157 4263 2579 3786 2675 2993 
C 2694 2878 2701 2872 2746 2872 
C 2803 2872 2803 2891 2803 2999 
L 2803 4290 
z
" transform="scale(0.015625)"/>
      </defs>
      <use xlink:href="#CMMI12-59" transform="scale(0.996264)"/>
      <use xlink:href="#CMMI12-49" transform="translate(56.598607 -14.943915) scale(0.697382)"/>
      <use xlink:href="#CMR17-28" transform="translate(92.696121 0) scale(0.996264)"/>
      <use xlink:href="#CMMI12-66" transform="translate(127.976889 0) scale(0.996264)"/>
      <use xlink:href="#CMR17-30" transform="translate(176.060127 -14.943915) scale(0.697382)"/>
      <use xlink:href="#CMR17-29" transform="translate(208.541441 0) scale(0.996264)"/>
      <use xlink:href="#CMR17-5b" transform="translate(273.898175 0) scale(0.996264)"/>
      <use xlink:href="#CMR17-61" transform="translate(298.769233 0) scale(0.996264)"/>
      <use xlink:href="#CMR17-53" transform="translate(344.45971 0) scale(0.996264)"/>
      <use xlink:href="#CMR17-5d" transform="translate(395.35508 0) scale(0.996264)"/>
     </g>
    </g>
   </g>
   <g id="line2d_111">
    <path d="M 26.443412 38.701901 
L 39.419912 37.255584 
L 53.160646 35.797722 
L 66.137146 34.792451 
L 79.113646 34.489717 
L 92.090146 29.09996 
L 109.244146 27.964009 
L 112.657412 26.049503 
L 118.043146 26.930253 
L 122.220646 29.529269 
L 125.633912 34.824093 
L 129.811412 41.914015 
L 133.224678 50.646975 
L 137.813648 61.415383 
L 141.496287 68.185944 
L 146.201178 73.606776 
L 149.95796 74.148056 
L 154.13546 73.392031 
L 158.107608 71.491096 
L 162.504071 69.041576 
L 166.241053 66.301094 
L 170.666519 61.965574 
L 183.643019 43.008048 
" clip-path="url(#pc9820e4197)" style="fill: none; stroke: #4477aa; stroke-linecap: square"/>
   </g>
   <g id="line2d_112">
    <path d="M 26.443412 96.653242 
L 39.419912 95.3798 
L 53.160646 95.096563 
L 66.137146 94.627608 
L 79.113646 93.254536 
L 92.090146 92.778673 
L 109.244146 91.657653 
L 112.657412 90.172192 
L 118.043146 88.808297 
L 122.220646 86.648515 
L 125.633912 84.507242 
L 129.811412 82.048662 
L 133.224678 79.672414 
L 137.813648 75.977728 
L 141.496287 74.07772 
L 146.201178 72.421442 
L 149.95796 71.835899 
L 154.13546 71.224949 
L 158.107608 70.335052 
L 162.504071 68.235825 
L 166.241053 65.531051 
L 170.666519 61.195667 
L 183.643019 42.343405 
" clip-path="url(#pc9820e4197)" style="fill: none; stroke: #808080; stroke-opacity: 0.5; stroke-linecap: square"/>
   </g>
   <g id="line2d_113">
    <path d="M 26.443412 109.366408 
L 39.419912 108.670822 
L 53.160646 108.014985 
L 66.137146 108.357925 
L 79.113646 109.949123 
L 92.090146 110.982589 
L 109.244146 111.898278 
L 112.657412 111.983031 
L 118.043146 111.500781 
L 122.220646 111.129575 
L 125.633912 110.774227 
L 129.811412 109.897104 
L 133.224678 109.410515 
L 137.813648 108.438326 
L 141.496287 107.218732 
L 146.201178 105.487793 
L 149.95796 103.522233 
L 154.13546 100.751341 
L 158.107608 97.491393 
L 162.504071 93.00866 
L 166.241053 88.427927 
L 170.666519 81.868326 
L 183.643019 54.368294 
" clip-path="url(#pc9820e4197)" style="fill: none; stroke: #808080; stroke-opacity: 0.5; stroke-linecap: square"/>
   </g>
   <g id="line2d_114">
    <path d="M 26.443412 112.351894 
L 39.419912 111.712284 
L 53.160646 110.972084 
L 66.137146 110.92078 
L 79.113646 109.791474 
L 92.090146 109.053339 
L 109.244146 104.820133 
L 112.657412 103.703719 
L 118.043146 101.479161 
L 122.220646 99.670896 
L 125.633912 98.251813 
L 129.811412 96.137214 
L 133.224678 94.179791 
L 137.813648 91.300435 
L 141.496287 88.897319 
L 146.201178 85.796327 
L 149.95796 83.152946 
L 154.13546 79.920103 
L 158.107608 76.6963 
L 162.504071 72.548517 
L 166.241053 68.459646 
L 170.666519 63.157814 
L 183.643019 42.763576 
" clip-path="url(#pc9820e4197)" style="fill: none; stroke: #808080; stroke-opacity: 0.5; stroke-linecap: square"/>
   </g>
   <g id="line2d_115">
    <path d="M 26.443412 98.95196 
L 39.419912 98.053099 
L 53.160646 98.013974 
L 66.137146 97.145745 
L 79.113646 98.466017 
L 92.090146 100.507468 
L 109.244146 103.754957 
L 112.657412 103.132832 
L 118.043146 102.085505 
L 122.220646 100.720531 
L 125.633912 99.243393 
L 129.811412 97.515521 
L 133.224678 96.011441 
L 137.813648 93.670891 
L 141.496287 91.790198 
L 146.201178 88.87848 
L 149.95796 86.306591 
L 154.13546 83.143451 
L 158.107608 79.608275 
L 162.504071 74.859564 
L 166.241053 70.299228 
L 170.666519 64.336405 
L 183.643019 42.745149 
" clip-path="url(#pc9820e4197)" style="fill: none; stroke: #808080; stroke-opacity: 0.5; stroke-linecap: square"/>
   </g>
   <g id="line2d_116">
    <path d="M 26.443412 108.195168 
L 39.419912 107.126933 
L 53.160646 107.481181 
L 66.137146 107.343179 
L 79.113646 107.986036 
L 92.090146 109.233167 
L 109.244146 107.194923 
L 112.657412 106.495296 
L 118.043146 104.687798 
L 122.220646 103.536898 
L 125.633912 102.260993 
L 129.811412 100.799323 
L 133.224678 99.772289 
L 137.813648 98.437644 
L 141.496287 97.302926 
L 146.201178 95.53366 
L 149.95796 93.693531 
L 154.13546 90.762151 
L 158.107608 87.141369 
L 162.504071 81.863161 
L 166.241053 76.438397 
L 170.666519 68.97491 
L 183.643019 43.441383 
" clip-path="url(#pc9820e4197)" style="fill: none; stroke: #808080; stroke-opacity: 0.5; stroke-linecap: square"/>
   </g>
   <g id="line2d_117">
    <path d="M 26.443412 112.761703 
L 39.419912 112.152541 
L 53.160646 112.143967 
L 66.137146 112.474564 
L 79.113646 112.710115 
L 92.090146 112.884626 
L 109.244146 110.983324 
L 112.657412 110.403844 
L 118.043146 109.357058 
L 122.220646 108.46782 
L 125.633912 107.761437 
L 129.811412 106.866029 
L 133.224678 105.985088 
L 137.813648 104.748922 
L 141.496287 103.507959 
L 146.201178 101.601623 
L 149.95796 99.662389 
L 154.13546 96.983974 
L 158.107608 93.913977 
L 162.504071 89.696642 
L 166.241053 85.355665 
L 170.666519 79.164252 
L 183.643019 53.298999 
" clip-path="url(#pc9820e4197)" style="fill: none; stroke: #808080; stroke-opacity: 0.5; stroke-linecap: square"/>
   </g>
   <g id="line2d_118">
    <path d="M 26.443412 101.602092 
L 39.419912 100.210604 
L 53.160646 99.721547 
L 66.137146 98.607886 
L 79.113646 97.782789 
L 92.090146 98.159329 
L 109.244146 101.341735 
L 112.657412 102.717849 
L 118.043146 103.759392 
L 122.220646 103.385821 
L 125.633912 103.523455 
L 129.811412 101.98922 
L 133.224678 100.867481 
L 137.813648 98.657889 
L 141.496287 97.161488 
L 146.201178 94.53059 
L 149.95796 92.50008 
L 154.13546 89.67392 
L 158.107608 86.143633 
L 162.504071 81.170163 
L 166.241053 76.030604 
L 170.666519 68.881054 
L 183.643019 43.378203 
" clip-path="url(#pc9820e4197)" style="fill: none; stroke: #808080; stroke-opacity: 0.5; stroke-linecap: square"/>
   </g>
   <g id="line2d_119">
    <path d="M 26.443412 102.002731 
L 39.419912 101.832383 
L 53.160646 99.696325 
L 66.137146 99.231014 
L 79.113646 98.893445 
L 92.090146 99.41187 
L 109.244146 102.306855 
L 112.657412 103.523913 
L 118.043146 104.876543 
L 122.220646 105.39705 
L 125.633912 104.94888 
L 129.811412 103.013109 
L 133.224678 101.082411 
L 137.813648 97.558985 
L 141.496287 94.677729 
L 146.201178 90.494087 
L 149.95796 87.162861 
L 154.13546 83.122054 
L 158.107608 78.892698 
L 162.504071 73.860735 
L 166.241053 69.048413 
L 170.666519 63.093723 
L 183.643019 42.562694 
" clip-path="url(#pc9820e4197)" style="fill: none; stroke: #808080; stroke-opacity: 0.5; stroke-linecap: square"/>
   </g>
   <g id="line2d_120">
    <path d="M 26.443412 111.713943 
L 39.419912 111.36039 
L 53.160646 111.01211 
L 66.137146 112.086127 
L 79.113646 111.893343 
L 92.090146 112.311622 
L 109.244146 111.292674 
L 112.657412 110.866641 
L 118.043146 110.052996 
L 122.220646 109.153777 
L 125.633912 108.20323 
L 129.811412 106.895039 
L 133.224678 105.736051 
L 137.813648 103.992847 
L 141.496287 102.601919 
L 146.201178 100.636928 
L 149.95796 99.004279 
L 154.13546 96.756186 
L 158.107608 94.173713 
L 162.504071 90.407141 
L 166.241053 86.396488 
L 170.666519 80.452178 
L 183.643019 54.282536 
" clip-path="url(#pc9820e4197)" style="fill: none; stroke: #808080; stroke-opacity: 0.5; stroke-linecap: square"/>
   </g>
   <g id="line2d_121">
    <path d="M 26.443412 101.368635 
L 39.419912 101.26136 
L 53.160646 100.7996 
L 66.137146 99.874626 
L 79.113646 100.409627 
L 92.090146 100.765518 
L 109.244146 101.779732 
L 112.657412 101.696821 
L 118.043146 100.426299 
L 122.220646 99.100601 
L 125.633912 97.97383 
L 129.811412 97.088109 
L 133.224678 96.123741 
L 137.813648 95.298485 
L 141.496287 94.344361 
L 146.201178 93.256015 
L 149.95796 91.611916 
L 154.13546 89.182503 
L 158.107608 85.711993 
L 162.504071 80.678126 
L 166.241053 75.448855 
L 170.666519 68.203635 
L 183.643019 43.297291 
" clip-path="url(#pc9820e4197)" style="fill: none; stroke: #808080; stroke-opacity: 0.5; stroke-linecap: square"/>
   </g>
   <g id="line2d_122">
    <path d="M 26.443412 108.12159 
L 39.419912 106.825728 
L 53.160646 107.121794 
L 66.137146 106.361793 
L 79.113646 107.202856 
L 92.090146 108.252935 
L 109.244146 110.743455 
L 112.657412 110.330076 
L 118.043146 110.454284 
L 122.220646 110.207597 
L 125.633912 109.500218 
L 129.811412 108.728257 
L 133.224678 107.976423 
L 137.813648 106.541829 
L 141.496287 105.189614 
L 146.201178 102.838967 
L 149.95796 100.611681 
L 154.13546 97.701896 
L 158.107608 94.237574 
L 162.504071 89.664757 
L 166.241053 84.987136 
L 170.666519 78.444223 
L 183.643019 52.118638 
" clip-path="url(#pc9820e4197)" style="fill: none; stroke: #808080; stroke-opacity: 0.5; stroke-linecap: square"/>
   </g>
   <g id="line2d_123">
    <path d="M 26.443412 76.135938 
L 39.419912 76.191582 
L 53.160646 74.453706 
L 66.137146 72.578769 
L 79.113646 69.927914 
L 92.090146 67.359355 
L 109.244146 69.009548 
L 112.657412 71.747064 
L 118.043146 74.099036 
L 122.220646 74.48053 
L 125.633912 75.184545 
L 129.811412 74.97373 
L 133.224678 74.475392 
L 137.813648 72.699265 
L 141.496287 71.776541 
L 146.201178 71.343149 
L 149.95796 71.428333 
L 154.13546 71.411739 
L 158.107608 70.961574 
L 162.504071 69.010536 
L 166.241053 66.272141 
L 170.666519 61.960879 
L 183.643019 42.91274 
" clip-path="url(#pc9820e4197)" style="fill: none; stroke: #808080; stroke-opacity: 0.5; stroke-linecap: square"/>
   </g>
   <g id="line2d_124">
    <path d="M 26.443412 103.291803 
L 39.419912 102.420153 
L 53.160646 100.046748 
L 66.137146 97.302385 
L 79.113646 90.337265 
L 92.090146 83.773204 
L 109.244146 81.10779 
L 112.657412 84.404378 
L 118.043146 88.573061 
L 122.220646 94.463641 
L 125.633912 98.290228 
L 129.811412 101.407371 
L 133.224678 102.019052 
L 137.813648 101.610919 
L 141.496287 100.846637 
L 146.201178 99.775406 
L 149.95796 98.426438 
L 154.13546 96.462554 
L 158.107608 93.84069 
L 162.504071 90.1397 
L 166.241053 86.210392 
L 170.666519 80.217789 
L 183.643019 54.184728 
" clip-path="url(#pc9820e4197)" style="fill: none; stroke: #808080; stroke-opacity: 0.5; stroke-linecap: square"/>
   </g>
   <g id="line2d_125">
    <path d="M 26.443412 107.242984 
L 39.419912 105.663218 
L 53.160646 104.415249 
L 66.137146 103.565244 
L 79.113646 103.027944 
L 92.090146 102.957306 
L 109.244146 105.665409 
L 112.657412 106.226482 
L 118.043146 107.11582 
L 122.220646 107.308265 
L 125.633912 106.794536 
L 129.811412 106.2769 
L 133.224678 105.193509 
L 137.813648 103.972978 
L 141.496287 102.812299 
L 146.201178 100.892093 
L 149.95796 98.965641 
L 154.13546 96.519818 
L 158.107608 93.537605 
L 162.504071 89.867697 
L 166.241053 85.853222 
L 170.666519 80.014367 
L 183.643019 54.048696 
" clip-path="url(#pc9820e4197)" style="fill: none; stroke: #808080; stroke-opacity: 0.5; stroke-linecap: square"/>
   </g>
   <g id="line2d_126">
    <path d="M 26.443412 97.939407 
L 39.419912 98.321323 
L 53.160646 95.494056 
L 66.137146 94.659331 
L 79.113646 93.600462 
L 92.090146 93.38791 
L 109.244146 94.071014 
L 112.657412 94.354384 
L 118.043146 93.957998 
L 122.220646 93.065807 
L 125.633912 92.044671 
L 129.811412 90.396153 
L 133.224678 88.787853 
L 137.813648 86.275057 
L 141.496287 83.958777 
L 146.201178 81.238428 
L 149.95796 79.019013 
L 154.13546 76.737886 
L 158.107608 74.525454 
L 162.504071 71.372821 
L 166.241053 68.078283 
L 170.666519 63.219881 
L 183.643019 42.96226 
" clip-path="url(#pc9820e4197)" style="fill: none; stroke: #808080; stroke-opacity: 0.5; stroke-linecap: square"/>
   </g>
   <g id="line2d_127">
    <path d="M 26.443412 103.684214 
L 39.419912 102.295256 
L 53.160646 100.582521 
L 66.137146 99.766481 
L 79.113646 97.993371 
L 92.090146 99.412801 
L 109.244146 101.589716 
L 112.657412 102.608823 
L 118.043146 103.995499 
L 122.220646 105.23815 
L 125.633912 106.293473 
L 129.811412 106.401665 
L 133.224678 106.382299 
L 137.813648 105.583735 
L 141.496287 104.609653 
L 146.201178 102.876697 
L 149.95796 100.61436 
L 154.13546 98.007119 
L 158.107608 94.9728 
L 162.504071 90.529076 
L 166.241053 85.949869 
L 170.666519 79.567976 
L 183.643019 52.995397 
" clip-path="url(#pc9820e4197)" style="fill: none; stroke: #808080; stroke-opacity: 0.5; stroke-linecap: square"/>
   </g>
   <g id="line2d_128">
    <path d="M 26.443412 111.562765 
L 39.419912 110.836666 
L 53.160646 110.748662 
L 66.137146 110.854241 
L 79.113646 110.756972 
L 92.090146 111.820746 
L 109.244146 110.184783 
L 112.657412 109.700429 
L 118.043146 108.664183 
L 122.220646 107.65841 
L 125.633912 106.809674 
L 129.811412 105.735321 
L 133.224678 104.477566 
L 137.813648 102.605061 
L 141.496287 100.763087 
L 146.201178 97.788716 
L 149.95796 94.810247 
L 154.13546 90.82728 
L 158.107608 86.307877 
L 162.504071 80.477714 
L 166.241053 74.956208 
L 170.666519 67.657013 
L 183.643019 43.156818 
" clip-path="url(#pc9820e4197)" style="fill: none; stroke: #808080; stroke-opacity: 0.5; stroke-linecap: square"/>
   </g>
   <g id="line2d_129">
    <path d="M 26.443412 112.257783 
L 39.419912 111.396123 
L 53.160646 111.165143 
L 66.137146 111.34063 
L 79.113646 111.897666 
L 92.090146 112.545444 
L 109.244146 109.79167 
L 112.657412 108.869378 
L 118.043146 107.101989 
L 122.220646 105.427426 
L 125.633912 103.830365 
L 129.811412 101.852028 
L 133.224678 100.009979 
L 137.813648 97.635721 
L 141.496287 95.754937 
L 146.201178 93.252706 
L 149.95796 91.023961 
L 154.13546 88.082311 
L 158.107608 84.583047 
L 162.504071 79.68128 
L 166.241053 74.651811 
L 170.666519 67.717567 
L 183.643019 43.340192 
" clip-path="url(#pc9820e4197)" style="fill: none; stroke: #808080; stroke-opacity: 0.5; stroke-linecap: square"/>
   </g>
   <g id="line2d_130">
    <path d="M 26.443412 110.796071 
L 39.419912 110.252901 
L 53.160646 109.711853 
L 66.137146 109.746154 
L 79.113646 109.950576 
L 92.090146 110.588611 
L 109.244146 109.102533 
L 112.657412 108.191795 
L 118.043146 107.075933 
L 122.220646 105.856491 
L 125.633912 104.400701 
L 129.811412 102.684305 
L 133.224678 100.87945 
L 137.813648 98.343982 
L 141.496287 96.092864 
L 146.201178 93.251004 
L 149.95796 90.46934 
L 154.13546 87.186099 
L 158.107608 83.613848 
L 162.504071 78.842907 
L 166.241053 73.853971 
L 170.666519 67.159595 
L 183.643019 43.250423 
" clip-path="url(#pc9820e4197)" style="fill: none; stroke: #808080; stroke-opacity: 0.5; stroke-linecap: square"/>
   </g>
   <g id="line2d_131">
    <path d="M 26.443412 93.826393 
L 39.419912 93.356947 
L 53.160646 92.810487 
L 66.137146 93.194224 
L 79.113646 93.795107 
L 92.090146 93.980155 
L 109.244146 95.425142 
L 112.657412 94.937662 
L 118.043146 93.457426 
L 122.220646 92.043397 
L 125.633912 90.423311 
L 129.811412 88.352901 
L 133.224678 86.632571 
L 137.813648 84.185104 
L 141.496287 82.207311 
L 146.201178 79.770014 
L 149.95796 78.163358 
L 154.13546 76.231068 
L 158.107608 74.092574 
L 162.504071 71.053812 
L 166.241053 67.527646 
L 170.666519 62.587773 
L 183.643019 42.855052 
" clip-path="url(#pc9820e4197)" style="fill: none; stroke: #808080; stroke-opacity: 0.5; stroke-linecap: square"/>
   </g>
   <g id="line2d_132">
    <path d="M 26.443412 98.518108 
L 39.419912 97.924887 
L 53.160646 97.055977 
L 66.137146 96.689874 
L 79.113646 95.894444 
L 92.090146 96.992992 
L 109.244146 101.324113 
L 112.657412 101.799686 
L 118.043146 103.488783 
L 122.220646 103.664363 
L 125.633912 103.317883 
L 129.811412 102.031616 
L 133.224678 100.517582 
L 137.813648 97.971507 
L 141.496287 95.480946 
L 146.201178 91.52447 
L 149.95796 87.984962 
L 154.13546 83.769768 
L 158.107608 79.622702 
L 162.504071 74.223023 
L 166.241053 69.668692 
L 170.666519 63.693699 
L 183.643019 42.566181 
" clip-path="url(#pc9820e4197)" style="fill: none; stroke: #808080; stroke-opacity: 0.5; stroke-linecap: square"/>
   </g>
   <g id="line2d_133">
    <path d="M 26.443412 105.440692 
L 39.419912 104.618704 
L 53.160646 104.487885 
L 66.137146 104.105423 
L 79.113646 103.731215 
L 92.090146 103.818972 
L 109.244146 102.496504 
L 112.657412 102.137101 
L 118.043146 100.406393 
L 122.220646 99.240344 
L 125.633912 97.559528 
L 129.811412 94.992916 
L 133.224678 92.747593 
L 137.813648 88.676005 
L 141.496287 85.391786 
L 146.201178 81.32553 
L 149.95796 78.149542 
L 154.13546 75.234003 
L 158.107608 72.638502 
L 162.504071 69.509414 
L 166.241053 66.506591 
L 170.666519 62.015299 
L 183.643019 42.936896 
" clip-path="url(#pc9820e4197)" style="fill: none; stroke: #808080; stroke-opacity: 0.5; stroke-linecap: square"/>
   </g>
   <g id="line2d_134">
    <path d="M 26.443412 103.422999 
L 39.419912 102.465087 
L 53.160646 102.960927 
L 66.137146 103.115257 
L 79.113646 103.650117 
L 92.090146 106.098699 
L 109.244146 105.592518 
L 112.657412 105.616187 
L 118.043146 105.184017 
L 122.220646 104.682886 
L 125.633912 103.786076 
L 129.811412 101.836682 
L 133.224678 100.16731 
L 137.813648 97.097 
L 141.496287 94.182208 
L 146.201178 90.444676 
L 149.95796 87.1109 
L 154.13546 82.935007 
L 158.107608 78.980558 
L 162.504071 74.098799 
L 166.241053 69.896756 
L 170.666519 64.279403 
L 183.643019 43.124187 
" clip-path="url(#pc9820e4197)" style="fill: none; stroke: #808080; stroke-opacity: 0.5; stroke-linecap: square"/>
   </g>
   <g id="line2d_135">
    <path d="M 26.443412 104.080014 
L 39.419912 103.268971 
L 53.160646 103.58022 
L 66.137146 103.500475 
L 79.113646 103.957799 
L 92.090146 105.472494 
L 109.244146 105.051663 
L 112.657412 104.155783 
L 118.043146 102.240004 
L 122.220646 100.23679 
L 125.633912 98.168102 
L 129.811412 95.431734 
L 133.224678 92.760879 
L 137.813648 89.123599 
L 141.496287 86.070914 
L 146.201178 81.909801 
L 149.95796 78.929165 
L 154.13546 75.928004 
L 158.107608 73.157013 
L 162.504071 70.034164 
L 166.241053 66.771302 
L 170.666519 62.085397 
L 183.643019 42.730691 
" clip-path="url(#pc9820e4197)" style="fill: none; stroke: #808080; stroke-opacity: 0.5; stroke-linecap: square"/>
   </g>
   <g id="line2d_136">
    <path d="M 26.443412 106.152638 
L 39.419912 105.823865 
L 53.160646 104.747294 
L 66.137146 104.109854 
L 79.113646 103.637248 
L 92.090146 103.943163 
L 109.244146 104.308007 
L 112.657412 104.187643 
L 118.043146 103.215341 
L 122.220646 102.498599 
L 125.633912 100.983601 
L 129.811412 98.992263 
L 133.224678 96.82661 
L 137.813648 93.870989 
L 141.496287 91.206097 
L 146.201178 87.530234 
L 149.95796 84.421269 
L 154.13546 80.870458 
L 158.107608 77.413488 
L 162.504071 73.17016 
L 166.241053 69.216128 
L 170.666519 63.848881 
L 183.643019 43.124138 
" clip-path="url(#pc9820e4197)" style="fill: none; stroke: #808080; stroke-opacity: 0.5; stroke-linecap: square"/>
   </g>
   <g id="line2d_137">
    <path d="M 26.443412 102.694225 
L 39.419912 101.66697 
L 53.160646 100.157556 
L 66.137146 100.320924 
L 79.113646 99.279433 
L 92.090146 97.829745 
L 109.244146 94.869032 
L 112.657412 93.565979 
L 118.043146 92.156475 
L 122.220646 90.816788 
L 125.633912 88.991092 
L 129.811412 87.415579 
L 133.224678 85.223639 
L 137.813648 82.411246 
L 141.496287 80.284278 
L 146.201178 77.74003 
L 149.95796 75.638195 
L 154.13546 73.709259 
L 158.107608 71.654232 
L 162.504071 68.871336 
L 166.241053 66.003808 
L 170.666519 61.562471 
L 183.643019 42.559429 
" clip-path="url(#pc9820e4197)" style="fill: none; stroke: #808080; stroke-opacity: 0.5; stroke-linecap: square"/>
   </g>
   <g id="line2d_138">
    <path d="M 26.443412 102.898809 
L 39.419912 102.176845 
L 53.160646 101.326713 
L 66.137146 100.640636 
L 79.113646 99.925455 
L 92.090146 99.932293 
L 109.244146 99.638572 
L 112.657412 99.047393 
L 118.043146 97.790135 
L 122.220646 95.619996 
L 125.633912 94.32104 
L 129.811412 92.053098 
L 133.224678 89.950393 
L 137.813648 86.763936 
L 141.496287 84.328741 
L 146.201178 81.275731 
L 149.95796 78.789881 
L 154.13546 76.261552 
L 158.107608 73.777103 
L 162.504071 70.711191 
L 166.241053 67.553451 
L 170.666519 62.822206 
L 183.643019 43.232383 
" clip-path="url(#pc9820e4197)" style="fill: none; stroke: #808080; stroke-opacity: 0.5; stroke-linecap: square"/>
   </g>
   <g id="line2d_139">
    <path d="M 26.443412 84.956448 
L 39.419912 84.120269 
L 53.160646 80.453894 
L 66.137146 74.157805 
L 79.113646 68.791725 
L 92.090146 59.58022 
L 109.244146 39.614113 
L 112.657412 34.292069 
L 118.043146 26.351253 
L 122.220646 19.573169 
L 125.633912 19.609967 
L 129.811412 18.259806 
L 133.224678 20.125696 
L 137.813648 31.810326 
L 141.496287 44.39658 
L 146.201178 63.164912 
L 149.95796 72.653512 
L 154.13546 74.42564 
L 158.107608 72.702888 
L 162.504071 69.221191 
L 166.241053 66.128543 
L 170.666519 61.566799 
L 183.643019 42.699269 
" clip-path="url(#pc9820e4197)" style="fill: none; stroke: #808080; stroke-opacity: 0.5; stroke-linecap: square"/>
   </g>
   <g id="line2d_140">
    <path d="M 26.443412 100.829605 
L 39.419912 99.975889 
L 53.160646 99.787987 
L 66.137146 98.316805 
L 79.113646 95.725901 
L 92.090146 93.478845 
L 109.244146 90.611159 
L 112.657412 89.825806 
L 118.043146 89.032824 
L 122.220646 88.552273 
L 125.633912 87.740799 
L 129.811412 86.056963 
L 133.224678 84.508712 
L 137.813648 82.384719 
L 141.496287 80.589932 
L 146.201178 78.683358 
L 149.95796 77.248893 
L 154.13546 75.770286 
L 158.107608 74.105031 
L 162.504071 71.335092 
L 166.241053 68.024928 
L 170.666519 63.069378 
L 183.643019 42.741888 
" clip-path="url(#pc9820e4197)" style="fill: none; stroke: #808080; stroke-opacity: 0.5; stroke-linecap: square"/>
   </g>
   <g id="line2d_141">
    <path d="M 26.443412 107.683921 
L 39.419912 106.237432 
L 53.160646 105.377591 
L 66.137146 104.673814 
L 79.113646 104.083389 
L 92.090146 104.974156 
L 109.244146 106.377814 
L 112.657412 106.414225 
L 118.043146 106.832374 
L 122.220646 106.662733 
L 125.633912 106.14019 
L 129.811412 105.688941 
L 133.224678 105.17903 
L 137.813648 104.598932 
L 141.496287 103.871621 
L 146.201178 102.365431 
L 149.95796 100.638649 
L 154.13546 98.27501 
L 158.107608 95.248535 
L 162.504071 90.900499 
L 166.241053 86.439601 
L 170.666519 80.014848 
L 183.643019 53.230111 
" clip-path="url(#pc9820e4197)" style="fill: none; stroke: #808080; stroke-opacity: 0.5; stroke-linecap: square"/>
   </g>
   <g id="line2d_142">
    <path d="M 26.443412 97.439483 
L 39.419912 95.670355 
L 53.160646 94.511686 
L 66.137146 93.076629 
L 79.113646 88.570657 
L 92.090146 83.819194 
L 109.244146 80.301858 
L 112.657412 81.403933 
L 118.043146 86.314415 
L 122.220646 90.824078 
L 125.633912 94.039321 
L 129.811412 96.702268 
L 133.224678 97.703147 
L 137.813648 97.331029 
L 141.496287 97.165906 
L 146.201178 97.016446 
L 149.95796 96.225672 
L 154.13546 95.059379 
L 158.107608 92.904651 
L 162.504071 89.48561 
L 166.241053 85.639447 
L 170.666519 79.702286 
L 183.643019 53.704625 
" clip-path="url(#pc9820e4197)" style="fill: none; stroke: #808080; stroke-opacity: 0.5; stroke-linecap: square"/>
   </g>
   <g id="line2d_143">
    <path d="M 26.443412 109.756543 
L 39.419912 108.980676 
L 53.160646 108.643391 
L 66.137146 108.771393 
L 79.113646 109.373142 
L 92.090146 110.83578 
L 109.244146 110.587423 
L 112.657412 110.156544 
L 118.043146 109.329058 
L 122.220646 108.579254 
L 125.633912 107.930301 
L 129.811412 106.97281 
L 133.224678 106.184063 
L 137.813648 105.053891 
L 141.496287 103.981979 
L 146.201178 102.443987 
L 149.95796 100.961193 
L 154.13546 98.93501 
L 158.107608 96.343766 
L 162.504071 92.568882 
L 166.241053 88.510398 
L 170.666519 82.415491 
L 183.643019 55.483065 
" clip-path="url(#pc9820e4197)" style="fill: none; stroke: #808080; stroke-opacity: 0.5; stroke-linecap: square"/>
   </g>
   <g id="patch_3">
    <path d="M 36.006646 116.206749 
L 36.006646 7.059249 
" style="fill: none; stroke: #000000; stroke-width: 0.5; stroke-linejoin: miter; stroke-linecap: square"/>
   </g>
   <g id="patch_4">
    <path d="M 182.481646 116.206749 
L 182.481646 7.059249 
" style="fill: none; stroke: #000000; stroke-width: 0.5; stroke-linejoin: miter; stroke-linecap: square"/>
   </g>
   <g id="patch_5">
    <path d="M 36.006646 116.206749 
L 182.481646 116.206749 
" style="fill: none; stroke: #000000; stroke-width: 0.5; stroke-linejoin: miter; stroke-linecap: square"/>
   </g>
   <g id="patch_6">
    <path d="M 36.006646 7.059249 
L 182.481646 7.059249 
" style="fill: none; stroke: #000000; stroke-width: 0.5; stroke-linejoin: miter; stroke-linecap: square"/>
   </g>
   <g id="legend_1">
    <g id="patch_7">
     <path d="M 41.837646 36.942588 
L 101.007522 36.942588 
Q 102.673522 36.942588 102.673522 35.276588 
L 102.673522 12.890249 
Q 102.673522 11.224249 101.007522 11.224249 
L 41.837646 11.224249 
Q 40.171646 11.224249 40.171646 12.890249 
L 40.171646 35.276588 
Q 40.171646 36.942588 41.837646 36.942588 
z
" style="fill: #ffffff; stroke: #cccccc; stroke-linejoin: miter"/>
    </g>
    <g id="line2d_144">
     <path d="M 43.503646 17.471749 
L 51.833646 17.471749 
L 60.163646 17.471749 
" style="fill: none; stroke: #4477aa; stroke-linecap: square"/>
    </g>
    <g id="text_13">
     <!-- $\kappa = 1.0$ -->
     <g transform="translate(66.827646 20.387249) scale(0.0833 -0.0833)">
      <defs>
       <path id="CMMI12-14" d="M 1363 1600 
C 1574 1714 1811 1912 1971 2046 
C 2355 2377 2496 2479 2739 2574 
C 2714 2536 2707 2485 2707 2441 
C 2707 2268 2854 2236 2918 2236 
C 3123 2236 3238 2427 3238 2548 
C 3238 2586 3226 2752 3002 2752 
C 2618 2752 2240 2431 1958 2198 
C 1587 1876 1402 1738 1139 1656 
L 1382 2656 
C 1382 2759 1299 2816 1216 2816 
C 1158 2816 1018 2797 966 2592 
L 371 224 
C 352 148 352 134 352 96 
C 352 6 422 -64 518 -64 
C 710 -64 749 106 781 244 
C 819 380 1082 1472 1094 1472 
C 1907 1472 2182 1264 2182 943 
C 2182 897 2182 878 2163 806 
C 2138 682 2138 609 2138 570 
C 2138 178 2387 -64 2701 -64 
C 2963 -64 3110 123 3206 291 
C 3341 543 3424 898 3424 923 
C 3424 956 3398 981 3360 981 
C 3302 981 3296 956 3270 852 
C 3187 542 3046 64 2720 64 
C 2579 64 2509 148 2509 374 
C 2509 498 2534 641 2560 737 
C 2573 802 2592 880 2592 951 
C 2592 1541 1786 1600 1363 1600 
z
" transform="scale(0.015625)"/>
       <path id="CMR17-3d" d="M 4115 2017 
C 4211 2017 4307 2017 4307 2125 
C 4307 2240 4198 2240 4090 2240 
L 512 2240 
C 403 2240 294 2240 294 2125 
C 294 2017 390 2017 486 2017 
L 4115 2017 
z
M 4090 896 
C 4198 896 4307 896 4307 1011 
C 4307 1119 4211 1119 4115 1119 
L 486 1119 
C 390 1119 294 1119 294 1011 
C 294 896 403 896 512 896 
L 4090 896 
z
" transform="scale(0.015625)"/>
       <path id="CMMI12-3a" d="M 1178 307 
C 1178 492 1024 619 870 619 
C 685 619 557 466 557 313 
C 557 128 710 0 864 0 
C 1050 0 1178 153 1178 307 
z
" transform="scale(0.015625)"/>
      </defs>
      <use xlink:href="#CMMI12-14" transform="scale(0.996264)"/>
      <use xlink:href="#CMR17-3d" transform="translate(83.828633 0) scale(0.996264)"/>
      <use xlink:href="#CMR17-31" transform="translate(183.21743 0) scale(0.996264)"/>
      <use xlink:href="#CMMI12-3a" transform="translate(228.907907 0) scale(0.996264)"/>
      <use xlink:href="#CMR17-30" transform="translate(256.005084 0) scale(0.996264)"/>
     </g>
    </g>
    <g id="line2d_145">
     <path d="M 43.503646 29.081418 
L 51.833646 29.081418 
L 60.163646 29.081418 
" style="fill: none; stroke: #808080; stroke-opacity: 0.5; stroke-linecap: square"/>
    </g>
    <g id="text_14">
     <!-- $\kappa = 64.0$ -->
     <g transform="translate(66.827646 31.996918) scale(0.0833 -0.0833)">
      <use xlink:href="#CMMI12-14" transform="scale(0.996264)"/>
      <use xlink:href="#CMR17-3d" transform="translate(83.828633 0) scale(0.996264)"/>
      <use xlink:href="#CMR17-36" transform="translate(183.21743 0) scale(0.996264)"/>
      <use xlink:href="#CMR17-34" transform="translate(228.907907 0) scale(0.996264)"/>
      <use xlink:href="#CMMI12-3a" transform="translate(274.598384 0) scale(0.996264)"/>
      <use xlink:href="#CMR17-30" transform="translate(301.695561 0) scale(0.996264)"/>
     </g>
    </g>
   </g>
  </g>
 </g>
 <defs>
  <clipPath id="pc9820e4197">
   <rect x="36.006646" y="7.059249" width="146.475" height="109.1475"/>
  </clipPath>
 </defs>
</svg>
