<?xml version="1.0" encoding="utf-8" standalone="no"?>
<!DOCTYPE svg PUBLIC "-//W3C//DTD SVG 1.1//EN"
  "http://www.w3.org/Graphics/SVG/1.1/DTD/svg11.dtd">
<svg xmlns:xlink="http://www.w3.org/1999/xlink" width="331.449682pt" height="181.040845pt" viewBox="0 0 331.449682 181.040845" xmlns="http://www.w3.org/2000/svg" version="1.1">
 <metadata>
  <rdf:RDF xmlns:dc="http://purl.org/dc/elements/1.1/" xmlns:cc="http://creativecommons.org/ns#" xmlns:rdf="http://www.w3.org/1999/02/22-rdf-syntax-ns#">
   <cc:Work>
    <dc:type rdf:resource="http://purl.org/dc/dcmitype/StillImage"/>
    <dc:date>2025-10-18T20:47:23.425594</dc:date>
    <dc:format>image/svg+xml</dc:format>
    <dc:creator>
     <cc:Agent>
      <dc:title>Matplotlib v3.10.1, https://matplotlib.org/</dc:title>
     </cc:Agent>
    </dc:creator>
   </cc:Work>
  </rdf:RDF>
 </metadata>
 <defs>
  <style type="text/css">*{stroke-linejoin: round; stroke-linecap: butt}</style>
 </defs>
 <g id="figure_1">
  <g id="patch_1">
   <path d="M 0 181.040845 
L 331.449682 181.040845 
L 331.449682 0 
L 0 0 
L 0 181.040845 
z
" style="fill: none"/>
  </g>
  <g id="axes_1">
   <g id="patch_2">
    <path d="M 34.899682 149.13 
L 327.849682 149.13 
L 327.849682 3.6 
L 34.899682 3.6 
L 34.899682 149.13 
z
" style="fill: none"/>
   </g>
   <g id="matplotlib.axis_1">
    <g id="xtick_1">
     <g id="line2d_1">
      <defs>
       <path id="mbb877c38a5" d="M 0 0 
L 0 -3 
" style="stroke: #000000; stroke-width: 0.5"/>
      </defs>
      <g>
       <use xlink:href="#mbb877c38a5" x="83.724682" y="149.13" style="stroke: #000000; stroke-width: 0.5"/>
      </g>
     </g>
     <g id="line2d_2">
      <defs>
       <path id="m04e73bd6e7" d="M 0 0 
L 0 3 
" style="stroke: #000000; stroke-width: 0.5"/>
      </defs>
      <g>
       <use xlink:href="#m04e73bd6e7" x="83.724682" y="3.6" style="stroke: #000000; stroke-width: 0.5"/>
      </g>
     </g>
     <g id="text_1">
      <!-- 50 -->
      <g transform="translate(78.743347 159.548498) scale(0.1 -0.1)">
       <defs>
        <path id="CMR17-35" d="M 730 3692 
C 794 3666 1056 3584 1325 3584 
C 1920 3584 2246 3911 2432 4100 
C 2432 4157 2432 4192 2394 4192 
C 2387 4192 2374 4192 2323 4163 
C 2099 4058 1837 3973 1517 3973 
C 1325 3973 1037 3999 723 4139 
C 653 4171 640 4171 634 4171 
C 602 4171 595 4164 595 4037 
L 595 2203 
C 595 2089 595 2057 659 2057 
C 691 2057 704 2070 736 2114 
C 941 2401 1222 2522 1542 2522 
C 1766 2522 2246 2382 2246 1289 
C 2246 1085 2246 715 2054 421 
C 1894 159 1645 25 1370 25 
C 947 25 518 320 403 814 
C 429 807 480 795 506 795 
C 589 795 749 840 749 1038 
C 749 1210 627 1280 506 1280 
C 358 1280 262 1190 262 1011 
C 262 454 704 -128 1382 -128 
C 2042 -128 2669 440 2669 1264 
C 2669 2030 2170 2624 1549 2624 
C 1222 2624 947 2503 730 2274 
L 730 3692 
z
" transform="scale(0.015625)"/>
        <path id="CMR17-30" d="M 2688 2025 
C 2688 2416 2682 3080 2413 3591 
C 2176 4039 1798 4198 1466 4198 
C 1158 4198 768 4058 525 3597 
C 269 3118 243 2524 243 2025 
C 243 1661 250 1106 448 619 
C 723 -39 1216 -128 1466 -128 
C 1760 -128 2208 -7 2470 600 
C 2662 1042 2688 1559 2688 2025 
z
M 1466 -26 
C 1056 -26 813 325 723 812 
C 653 1188 653 1738 653 2096 
C 653 2588 653 2997 736 3387 
C 858 3929 1216 4096 1466 4096 
C 1728 4096 2067 3923 2189 3400 
C 2272 3036 2278 2607 2278 2096 
C 2278 1680 2278 1169 2202 792 
C 2067 95 1690 -26 1466 -26 
z
" transform="scale(0.015625)"/>
       </defs>
       <use xlink:href="#CMR17-35" transform="scale(0.996264)"/>
       <use xlink:href="#CMR17-30" transform="translate(45.690477 0) scale(0.996264)"/>
      </g>
     </g>
    </g>
    <g id="xtick_2">
     <g id="line2d_3">
      <g>
       <use xlink:href="#mbb877c38a5" x="181.374682" y="149.13" style="stroke: #000000; stroke-width: 0.5"/>
      </g>
     </g>
     <g id="line2d_4">
      <g>
       <use xlink:href="#m04e73bd6e7" x="181.374682" y="3.6" style="stroke: #000000; stroke-width: 0.5"/>
      </g>
     </g>
     <g id="text_2">
      <!-- 100 -->
      <g transform="translate(173.90268 159.548498) scale(0.1 -0.1)">
       <defs>
        <path id="CMR17-31" d="M 1702 4058 
C 1702 4192 1696 4192 1606 4192 
C 1357 3916 979 3827 621 3827 
C 602 3827 570 3827 563 3808 
C 557 3795 557 3782 557 3648 
C 755 3648 1088 3686 1344 3839 
L 1344 461 
C 1344 236 1331 160 781 160 
L 589 160 
L 589 0 
C 896 0 1216 0 1523 0 
C 1830 0 2150 0 2458 0 
L 2458 160 
L 2266 160 
C 1715 160 1702 230 1702 458 
L 1702 4058 
z
" transform="scale(0.015625)"/>
       </defs>
       <use xlink:href="#CMR17-31" transform="scale(0.996264)"/>
       <use xlink:href="#CMR17-30" transform="translate(45.690477 0) scale(0.996264)"/>
       <use xlink:href="#CMR17-30" transform="translate(91.380954 0) scale(0.996264)"/>
      </g>
     </g>
    </g>
    <g id="xtick_3">
     <g id="line2d_5">
      <g>
       <use xlink:href="#mbb877c38a5" x="279.024682" y="149.13" style="stroke: #000000; stroke-width: 0.5"/>
      </g>
     </g>
     <g id="line2d_6">
      <g>
       <use xlink:href="#m04e73bd6e7" x="279.024682" y="3.6" style="stroke: #000000; stroke-width: 0.5"/>
      </g>
     </g>
     <g id="text_3">
      <!-- 200 -->
      <g transform="translate(271.55268 159.548498) scale(0.1 -0.1)">
       <defs>
        <path id="CMR17-32" d="M 2669 989 
L 2554 989 
C 2490 536 2438 459 2413 420 
C 2381 369 1920 369 1830 369 
L 602 369 
C 832 619 1280 1072 1824 1597 
C 2214 1967 2669 2402 2669 3035 
C 2669 3790 2067 4224 1395 4224 
C 691 4224 262 3604 262 3030 
C 262 2780 448 2748 525 2748 
C 589 2748 781 2787 781 3010 
C 781 3207 614 3264 525 3264 
C 486 3264 448 3258 422 3245 
C 544 3790 915 4058 1306 4058 
C 1862 4058 2227 3617 2227 3035 
C 2227 2479 1901 2000 1536 1584 
L 262 146 
L 262 0 
L 2515 0 
L 2669 989 
z
" transform="scale(0.015625)"/>
       </defs>
       <use xlink:href="#CMR17-32" transform="scale(0.996264)"/>
       <use xlink:href="#CMR17-30" transform="translate(45.690477 0) scale(0.996264)"/>
       <use xlink:href="#CMR17-30" transform="translate(91.380954 0) scale(0.996264)"/>
      </g>
     </g>
    </g>
    <g id="xtick_4">
     <g id="line2d_7">
      <defs>
       <path id="m01a4f2b998" d="M 0 0 
L 0 -1.5 
" style="stroke: #000000; stroke-width: 0.5"/>
      </defs>
      <g>
       <use xlink:href="#m01a4f2b998" x="44.664682" y="149.13" style="stroke: #000000; stroke-width: 0.5"/>
      </g>
     </g>
     <g id="line2d_8">
      <defs>
       <path id="macfd6f7905" d="M 0 0 
L 0 1.5 
" style="stroke: #000000; stroke-width: 0.5"/>
      </defs>
      <g>
       <use xlink:href="#macfd6f7905" x="44.664682" y="3.6" style="stroke: #000000; stroke-width: 0.5"/>
      </g>
     </g>
    </g>
    <g id="xtick_5">
     <g id="line2d_9">
      <g>
       <use xlink:href="#m01a4f2b998" x="64.194682" y="149.13" style="stroke: #000000; stroke-width: 0.5"/>
      </g>
     </g>
     <g id="line2d_10">
      <g>
       <use xlink:href="#macfd6f7905" x="64.194682" y="3.6" style="stroke: #000000; stroke-width: 0.5"/>
      </g>
     </g>
    </g>
    <g id="xtick_6">
     <g id="line2d_11">
      <g>
       <use xlink:href="#m01a4f2b998" x="103.254682" y="149.13" style="stroke: #000000; stroke-width: 0.5"/>
      </g>
     </g>
     <g id="line2d_12">
      <g>
       <use xlink:href="#macfd6f7905" x="103.254682" y="3.6" style="stroke: #000000; stroke-width: 0.5"/>
      </g>
     </g>
    </g>
    <g id="xtick_7">
     <g id="line2d_13">
      <g>
       <use xlink:href="#m01a4f2b998" x="122.784682" y="149.13" style="stroke: #000000; stroke-width: 0.5"/>
      </g>
     </g>
     <g id="line2d_14">
      <g>
       <use xlink:href="#macfd6f7905" x="122.784682" y="3.6" style="stroke: #000000; stroke-width: 0.5"/>
      </g>
     </g>
    </g>
    <g id="xtick_8">
     <g id="line2d_15">
      <g>
       <use xlink:href="#m01a4f2b998" x="142.314682" y="149.13" style="stroke: #000000; stroke-width: 0.5"/>
      </g>
     </g>
     <g id="line2d_16">
      <g>
       <use xlink:href="#macfd6f7905" x="142.314682" y="3.6" style="stroke: #000000; stroke-width: 0.5"/>
      </g>
     </g>
    </g>
    <g id="xtick_9">
     <g id="line2d_17">
      <g>
       <use xlink:href="#m01a4f2b998" x="161.844682" y="149.13" style="stroke: #000000; stroke-width: 0.5"/>
      </g>
     </g>
     <g id="line2d_18">
      <g>
       <use xlink:href="#macfd6f7905" x="161.844682" y="3.6" style="stroke: #000000; stroke-width: 0.5"/>
      </g>
     </g>
    </g>
    <g id="xtick_10">
     <g id="line2d_19">
      <g>
       <use xlink:href="#m01a4f2b998" x="200.904682" y="149.13" style="stroke: #000000; stroke-width: 0.5"/>
      </g>
     </g>
     <g id="line2d_20">
      <g>
       <use xlink:href="#macfd6f7905" x="200.904682" y="3.6" style="stroke: #000000; stroke-width: 0.5"/>
      </g>
     </g>
    </g>
    <g id="xtick_11">
     <g id="line2d_21">
      <g>
       <use xlink:href="#m01a4f2b998" x="220.434682" y="149.13" style="stroke: #000000; stroke-width: 0.5"/>
      </g>
     </g>
     <g id="line2d_22">
      <g>
       <use xlink:href="#macfd6f7905" x="220.434682" y="3.6" style="stroke: #000000; stroke-width: 0.5"/>
      </g>
     </g>
    </g>
    <g id="xtick_12">
     <g id="line2d_23">
      <g>
       <use xlink:href="#m01a4f2b998" x="239.964682" y="149.13" style="stroke: #000000; stroke-width: 0.5"/>
      </g>
     </g>
     <g id="line2d_24">
      <g>
       <use xlink:href="#macfd6f7905" x="239.964682" y="3.6" style="stroke: #000000; stroke-width: 0.5"/>
      </g>
     </g>
    </g>
    <g id="xtick_13">
     <g id="line2d_25">
      <g>
       <use xlink:href="#m01a4f2b998" x="259.494682" y="149.13" style="stroke: #000000; stroke-width: 0.5"/>
      </g>
     </g>
     <g id="line2d_26">
      <g>
       <use xlink:href="#macfd6f7905" x="259.494682" y="3.6" style="stroke: #000000; stroke-width: 0.5"/>
      </g>
     </g>
    </g>
    <g id="xtick_14">
     <g id="line2d_27">
      <g>
       <use xlink:href="#m01a4f2b998" x="298.554682" y="149.13" style="stroke: #000000; stroke-width: 0.5"/>
      </g>
     </g>
     <g id="line2d_28">
      <g>
       <use xlink:href="#macfd6f7905" x="298.554682" y="3.6" style="stroke: #000000; stroke-width: 0.5"/>
      </g>
     </g>
    </g>
    <g id="xtick_15">
     <g id="line2d_29">
      <g>
       <use xlink:href="#m01a4f2b998" x="318.084682" y="149.13" style="stroke: #000000; stroke-width: 0.5"/>
      </g>
     </g>
     <g id="line2d_30">
      <g>
       <use xlink:href="#macfd6f7905" x="318.084682" y="3.6" style="stroke: #000000; stroke-width: 0.5"/>
      </g>
     </g>
    </g>
    <g id="text_4">
     <!-- $R$ [M$\Omega$] -->
     <g transform="translate(162.077441 174.452053) scale(0.12 -0.12)">
      <defs>
       <path id="CMMI12-52" d="M 2355 3924 
C 2413 4160 2438 4160 2688 4160 
L 3149 4160 
C 3699 4160 4109 3995 4109 3499 
C 4109 3175 3942 2240 2656 2240 
L 1933 2240 
L 2355 3924 
z
M 3245 2169 
C 4038 2341 4659 2851 4659 3398 
C 4659 3894 4154 4352 3264 4352 
L 1530 4352 
C 1402 4352 1344 4352 1344 4226 
C 1344 4160 1389 4160 1510 4160 
C 1894 4160 1894 4112 1894 4045 
C 1894 4033 1894 3994 1869 3899 
L 1005 479 
C 947 256 934 192 493 192 
C 346 192 301 192 301 71 
C 301 7 371 7 390 7 
C 506 7 640 7 762 7 
L 1517 7 
C 1632 7 1766 7 1882 7 
C 1933 7 2003 7 2003 128 
C 2003 192 1946 192 1850 192 
C 1459 192 1459 243 1459 306 
C 1459 313 1459 357 1472 407 
L 1901 2112 
L 2669 2112 
C 3277 2112 3392 1731 3392 1522 
C 3392 1427 3328 1179 3283 1014 
C 3213 723 3194 652 3194 532 
C 3194 82 3565 -128 3994 -128 
C 4512 -128 4736 501 4736 591 
C 4736 635 4704 654 4666 654 
C 4614 654 4602 616 4589 565 
C 4435 114 4173 0 4013 0 
C 3853 0 3750 70 3750 356 
C 3750 509 3827 1088 3834 1120 
C 3866 1355 3866 1380 3866 1432 
C 3866 1896 3488 2093 3245 2169 
z
" transform="scale(0.015625)"/>
       <path id="CMR17-5b" d="M 1504 -1600 
L 1504 -1377 
L 902 -1377 
L 902 4544 
L 1504 4544 
L 1504 4767 
L 678 4767 
L 678 -1600 
L 1504 -1600 
z
" transform="scale(0.015625)"/>
       <path id="CMR17-4d" d="M 1338 4224 
C 1299 4320 1293 4320 1158 4320 
L 339 4320 
L 339 4160 
C 781 4160 851 4160 851 3875 
L 851 610 
C 851 451 851 153 339 153 
L 339 -13 
C 486 0 755 0 915 0 
C 1075 0 1344 0 1491 -13 
L 1491 153 
C 979 153 979 451 979 610 
L 979 4135 
L 986 4135 
L 2490 89 
C 2515 25 2528 -13 2579 -13 
C 2630 -13 2643 25 2669 89 
L 4186 4166 
L 4192 4166 
L 4192 438 
C 4192 153 4122 153 3680 153 
L 3680 -13 
C 3853 0 4198 0 4384 0 
C 4570 0 4922 0 5094 -13 
L 5094 153 
C 4653 153 4582 153 4582 438 
L 4582 3875 
C 4582 4160 4653 4160 5094 4160 
L 5094 4320 
L 4282 4320 
C 4147 4320 4141 4314 4102 4218 
L 2720 502 
L 1338 4224 
z
" transform="scale(0.015625)"/>
       <path id="CMR17-a" d="M 4038 935 
L 3923 935 
C 3866 641 3846 563 3814 461 
C 3782 365 3763 314 3392 314 
L 2874 314 
C 2944 686 3098 961 3366 1391 
C 3699 1935 3974 2377 3974 2910 
C 3974 3775 3155 4480 2138 4480 
C 1094 4480 294 3768 294 2910 
C 294 2377 576 1922 890 1416 
C 1171 961 1325 686 1395 314 
L 877 314 
C 512 314 493 365 461 454 
C 422 557 410 641 346 935 
L 230 935 
L 416 0 
L 1382 0 
C 1517 0 1523 6 1523 102 
C 1523 558 1286 1154 1178 1429 
C 973 1929 781 2416 781 2916 
C 781 3871 1466 4377 2131 4377 
C 2829 4377 3488 3851 3488 2916 
C 3488 2422 3315 1981 3078 1397 
C 2976 1135 2746 551 2746 102 
C 2746 0 2752 0 2886 0 
L 3853 0 
L 4038 935 
z
" transform="scale(0.015625)"/>
       <path id="CMR17-5d" d="M 915 4767 
L 90 4767 
L 90 4544 
L 691 4544 
L 691 -1377 
L 90 -1377 
L 90 -1600 
L 915 -1600 
L 915 4767 
z
" transform="scale(0.015625)"/>
      </defs>
      <use xlink:href="#CMMI12-52" transform="scale(0.996264)"/>
      <use xlink:href="#CMR17-5b" transform="translate(105.146928 0) scale(0.996264)"/>
      <use xlink:href="#CMR17-4d" transform="translate(130.017987 0) scale(0.996264)"/>
      <use xlink:href="#CMR17-a" transform="translate(214.704927 0) scale(0.996264)"/>
      <use xlink:href="#CMR17-5d" transform="translate(281.214808 0) scale(0.996264)"/>
     </g>
    </g>
   </g>
   <g id="matplotlib.axis_2">
    <g id="ytick_1">
     <g id="line2d_31">
      <path d="M 34.899682 145.69438 
L 327.849682 145.69438 
" clip-path="url(#p153969141b)" style="fill: none; stroke-dasharray: 1.85,0.8; stroke-dashoffset: 0; stroke: #000000; stroke-opacity: 0.5; stroke-width: 0.5"/>
     </g>
     <g id="line2d_32">
      <defs>
       <path id="m5db9431568" d="M 0 0 
L 3 0 
" style="stroke: #000000; stroke-width: 0.5"/>
      </defs>
      <g>
       <use xlink:href="#m5db9431568" x="34.899682" y="145.69438" style="stroke: #000000; stroke-width: 0.5"/>
      </g>
     </g>
     <g id="line2d_33">
      <defs>
       <path id="mcc1cd27f94" d="M 0 0 
L -3 0 
" style="stroke: #000000; stroke-width: 0.5"/>
      </defs>
      <g>
       <use xlink:href="#mcc1cd27f94" x="327.849682" y="145.69438" style="stroke: #000000; stroke-width: 0.5"/>
      </g>
     </g>
     <g id="text_5">
      <!-- $\mathdefault{100}$ -->
      <g transform="translate(16.455677 149.153629) scale(0.1 -0.1)">
       <use xlink:href="#CMR17-31" transform="scale(0.996264)"/>
       <use xlink:href="#CMR17-30" transform="translate(45.690477 0) scale(0.996264)"/>
       <use xlink:href="#CMR17-30" transform="translate(91.380954 0) scale(0.996264)"/>
      </g>
     </g>
    </g>
    <g id="ytick_2">
     <g id="line2d_34">
      <path d="M 34.899682 111.036166 
L 327.849682 111.036166 
" clip-path="url(#p153969141b)" style="fill: none; stroke-dasharray: 1.85,0.8; stroke-dashoffset: 0; stroke: #000000; stroke-opacity: 0.5; stroke-width: 0.5"/>
     </g>
     <g id="line2d_35">
      <g>
       <use xlink:href="#m5db9431568" x="34.899682" y="111.036166" style="stroke: #000000; stroke-width: 0.5"/>
      </g>
     </g>
     <g id="line2d_36">
      <g>
       <use xlink:href="#mcc1cd27f94" x="327.849682" y="111.036166" style="stroke: #000000; stroke-width: 0.5"/>
      </g>
     </g>
     <g id="text_6">
      <!-- $\mathdefault{200}$ -->
      <g transform="translate(16.455677 114.495415) scale(0.1 -0.1)">
       <use xlink:href="#CMR17-32" transform="scale(0.996264)"/>
       <use xlink:href="#CMR17-30" transform="translate(45.690477 0) scale(0.996264)"/>
       <use xlink:href="#CMR17-30" transform="translate(91.380954 0) scale(0.996264)"/>
      </g>
     </g>
    </g>
    <g id="ytick_3">
     <g id="line2d_37">
      <path d="M 34.899682 76.377952 
L 327.849682 76.377952 
" clip-path="url(#p153969141b)" style="fill: none; stroke-dasharray: 1.85,0.8; stroke-dashoffset: 0; stroke: #000000; stroke-opacity: 0.5; stroke-width: 0.5"/>
     </g>
     <g id="line2d_38">
      <g>
       <use xlink:href="#m5db9431568" x="34.899682" y="76.377952" style="stroke: #000000; stroke-width: 0.5"/>
      </g>
     </g>
     <g id="line2d_39">
      <g>
       <use xlink:href="#mcc1cd27f94" x="327.849682" y="76.377952" style="stroke: #000000; stroke-width: 0.5"/>
      </g>
     </g>
     <g id="text_7">
      <!-- $\mathdefault{300}$ -->
      <g transform="translate(16.455677 79.837201) scale(0.1 -0.1)">
       <defs>
        <path id="CMR17-33" d="M 1414 2157 
C 1984 2157 2234 1662 2234 1090 
C 2234 320 1824 25 1453 25 
C 1114 25 563 194 390 693 
C 422 680 454 680 486 680 
C 640 680 755 782 755 948 
C 755 1133 614 1216 486 1216 
C 378 1216 211 1165 211 926 
C 211 335 787 -128 1466 -128 
C 2176 -128 2720 430 2720 1085 
C 2720 1707 2208 2157 1600 2227 
C 2086 2328 2554 2756 2554 3329 
C 2554 3820 2048 4179 1472 4179 
C 890 4179 378 3829 378 3329 
C 378 3110 544 3072 627 3072 
C 762 3072 877 3155 877 3321 
C 877 3486 762 3569 627 3569 
C 602 3569 570 3569 544 3557 
C 730 3959 1235 4032 1459 4032 
C 1683 4032 2106 3925 2106 3320 
C 2106 3143 2080 2828 1862 2550 
C 1670 2304 1453 2304 1242 2284 
C 1210 2284 1062 2269 1037 2269 
C 992 2263 966 2257 966 2208 
C 966 2163 973 2157 1101 2157 
L 1414 2157 
z
" transform="scale(0.015625)"/>
       </defs>
       <use xlink:href="#CMR17-33" transform="scale(0.996264)"/>
       <use xlink:href="#CMR17-30" transform="translate(45.690477 0) scale(0.996264)"/>
       <use xlink:href="#CMR17-30" transform="translate(91.380954 0) scale(0.996264)"/>
      </g>
     </g>
    </g>
    <g id="ytick_4">
     <g id="line2d_40">
      <path d="M 34.899682 41.719737 
L 327.849682 41.719737 
" clip-path="url(#p153969141b)" style="fill: none; stroke-dasharray: 1.85,0.8; stroke-dashoffset: 0; stroke: #000000; stroke-opacity: 0.5; stroke-width: 0.5"/>
     </g>
     <g id="line2d_41">
      <g>
       <use xlink:href="#m5db9431568" x="34.899682" y="41.719737" style="stroke: #000000; stroke-width: 0.5"/>
      </g>
     </g>
     <g id="line2d_42">
      <g>
       <use xlink:href="#mcc1cd27f94" x="327.849682" y="41.719737" style="stroke: #000000; stroke-width: 0.5"/>
      </g>
     </g>
     <g id="text_8">
      <!-- $\mathdefault{400}$ -->
      <g transform="translate(16.455677 45.178987) scale(0.1 -0.1)">
       <defs>
        <path id="CMR17-34" d="M 2150 4122 
C 2150 4256 2144 4256 2029 4256 
L 128 1254 
L 128 1088 
L 1779 1088 
L 1779 457 
C 1779 224 1766 160 1318 160 
L 1197 160 
L 1197 0 
C 1402 0 1747 0 1965 0 
C 2182 0 2528 0 2733 0 
L 2733 160 
L 2611 160 
C 2163 160 2150 224 2150 457 
L 2150 1088 
L 2803 1088 
L 2803 1254 
L 2150 1254 
L 2150 4122 
z
M 1798 3703 
L 1798 1254 
L 256 1254 
L 1798 3703 
z
" transform="scale(0.015625)"/>
       </defs>
       <use xlink:href="#CMR17-34" transform="scale(0.996264)"/>
       <use xlink:href="#CMR17-30" transform="translate(45.690477 0) scale(0.996264)"/>
       <use xlink:href="#CMR17-30" transform="translate(91.380954 0) scale(0.996264)"/>
      </g>
     </g>
    </g>
    <g id="ytick_5">
     <g id="line2d_43">
      <path d="M 34.899682 7.061523 
L 327.849682 7.061523 
" clip-path="url(#p153969141b)" style="fill: none; stroke-dasharray: 1.85,0.8; stroke-dashoffset: 0; stroke: #000000; stroke-opacity: 0.5; stroke-width: 0.5"/>
     </g>
     <g id="line2d_44">
      <g>
       <use xlink:href="#m5db9431568" x="34.899682" y="7.061523" style="stroke: #000000; stroke-width: 0.5"/>
      </g>
     </g>
     <g id="line2d_45">
      <g>
       <use xlink:href="#mcc1cd27f94" x="327.849682" y="7.061523" style="stroke: #000000; stroke-width: 0.5"/>
      </g>
     </g>
     <g id="text_9">
      <!-- $\mathdefault{500}$ -->
      <g transform="translate(16.455677 10.520773) scale(0.1 -0.1)">
       <use xlink:href="#CMR17-35" transform="scale(0.996264)"/>
       <use xlink:href="#CMR17-30" transform="translate(45.690477 0) scale(0.996264)"/>
       <use xlink:href="#CMR17-30" transform="translate(91.380954 0) scale(0.996264)"/>
      </g>
     </g>
    </g>
    <g id="ytick_6">
     <g id="line2d_46">
      <defs>
       <path id="m2e8b9a2304" d="M 0 0 
L 1.5 0 
" style="stroke: #000000; stroke-width: 0.5"/>
      </defs>
      <g>
       <use xlink:href="#m2e8b9a2304" x="34.899682" y="138.762737" style="stroke: #000000; stroke-width: 0.5"/>
      </g>
     </g>
     <g id="line2d_47">
      <defs>
       <path id="me485b368b3" d="M 0 0 
L -1.5 0 
" style="stroke: #000000; stroke-width: 0.5"/>
      </defs>
      <g>
       <use xlink:href="#me485b368b3" x="327.849682" y="138.762737" style="stroke: #000000; stroke-width: 0.5"/>
      </g>
     </g>
    </g>
    <g id="ytick_7">
     <g id="line2d_48">
      <g>
       <use xlink:href="#m2e8b9a2304" x="34.899682" y="131.831094" style="stroke: #000000; stroke-width: 0.5"/>
      </g>
     </g>
     <g id="line2d_49">
      <g>
       <use xlink:href="#me485b368b3" x="327.849682" y="131.831094" style="stroke: #000000; stroke-width: 0.5"/>
      </g>
     </g>
    </g>
    <g id="ytick_8">
     <g id="line2d_50">
      <g>
       <use xlink:href="#m2e8b9a2304" x="34.899682" y="124.899451" style="stroke: #000000; stroke-width: 0.5"/>
      </g>
     </g>
     <g id="line2d_51">
      <g>
       <use xlink:href="#me485b368b3" x="327.849682" y="124.899451" style="stroke: #000000; stroke-width: 0.5"/>
      </g>
     </g>
    </g>
    <g id="ytick_9">
     <g id="line2d_52">
      <g>
       <use xlink:href="#m2e8b9a2304" x="34.899682" y="117.967808" style="stroke: #000000; stroke-width: 0.5"/>
      </g>
     </g>
     <g id="line2d_53">
      <g>
       <use xlink:href="#me485b368b3" x="327.849682" y="117.967808" style="stroke: #000000; stroke-width: 0.5"/>
      </g>
     </g>
    </g>
    <g id="ytick_10">
     <g id="line2d_54">
      <g>
       <use xlink:href="#m2e8b9a2304" x="34.899682" y="104.104523" style="stroke: #000000; stroke-width: 0.5"/>
      </g>
     </g>
     <g id="line2d_55">
      <g>
       <use xlink:href="#me485b368b3" x="327.849682" y="104.104523" style="stroke: #000000; stroke-width: 0.5"/>
      </g>
     </g>
    </g>
    <g id="ytick_11">
     <g id="line2d_56">
      <g>
       <use xlink:href="#m2e8b9a2304" x="34.899682" y="97.17288" style="stroke: #000000; stroke-width: 0.5"/>
      </g>
     </g>
     <g id="line2d_57">
      <g>
       <use xlink:href="#me485b368b3" x="327.849682" y="97.17288" style="stroke: #000000; stroke-width: 0.5"/>
      </g>
     </g>
    </g>
    <g id="ytick_12">
     <g id="line2d_58">
      <g>
       <use xlink:href="#m2e8b9a2304" x="34.899682" y="90.241237" style="stroke: #000000; stroke-width: 0.5"/>
      </g>
     </g>
     <g id="line2d_59">
      <g>
       <use xlink:href="#me485b368b3" x="327.849682" y="90.241237" style="stroke: #000000; stroke-width: 0.5"/>
      </g>
     </g>
    </g>
    <g id="ytick_13">
     <g id="line2d_60">
      <g>
       <use xlink:href="#m2e8b9a2304" x="34.899682" y="83.309594" style="stroke: #000000; stroke-width: 0.5"/>
      </g>
     </g>
     <g id="line2d_61">
      <g>
       <use xlink:href="#me485b368b3" x="327.849682" y="83.309594" style="stroke: #000000; stroke-width: 0.5"/>
      </g>
     </g>
    </g>
    <g id="ytick_14">
     <g id="line2d_62">
      <g>
       <use xlink:href="#m2e8b9a2304" x="34.899682" y="69.446309" style="stroke: #000000; stroke-width: 0.5"/>
      </g>
     </g>
     <g id="line2d_63">
      <g>
       <use xlink:href="#me485b368b3" x="327.849682" y="69.446309" style="stroke: #000000; stroke-width: 0.5"/>
      </g>
     </g>
    </g>
    <g id="ytick_15">
     <g id="line2d_64">
      <g>
       <use xlink:href="#m2e8b9a2304" x="34.899682" y="62.514666" style="stroke: #000000; stroke-width: 0.5"/>
      </g>
     </g>
     <g id="line2d_65">
      <g>
       <use xlink:href="#me485b368b3" x="327.849682" y="62.514666" style="stroke: #000000; stroke-width: 0.5"/>
      </g>
     </g>
    </g>
    <g id="ytick_16">
     <g id="line2d_66">
      <g>
       <use xlink:href="#m2e8b9a2304" x="34.899682" y="55.583023" style="stroke: #000000; stroke-width: 0.5"/>
      </g>
     </g>
     <g id="line2d_67">
      <g>
       <use xlink:href="#me485b368b3" x="327.849682" y="55.583023" style="stroke: #000000; stroke-width: 0.5"/>
      </g>
     </g>
    </g>
    <g id="ytick_17">
     <g id="line2d_68">
      <g>
       <use xlink:href="#m2e8b9a2304" x="34.899682" y="48.65138" style="stroke: #000000; stroke-width: 0.5"/>
      </g>
     </g>
     <g id="line2d_69">
      <g>
       <use xlink:href="#me485b368b3" x="327.849682" y="48.65138" style="stroke: #000000; stroke-width: 0.5"/>
      </g>
     </g>
    </g>
    <g id="ytick_18">
     <g id="line2d_70">
      <g>
       <use xlink:href="#m2e8b9a2304" x="34.899682" y="34.788095" style="stroke: #000000; stroke-width: 0.5"/>
      </g>
     </g>
     <g id="line2d_71">
      <g>
       <use xlink:href="#me485b368b3" x="327.849682" y="34.788095" style="stroke: #000000; stroke-width: 0.5"/>
      </g>
     </g>
    </g>
    <g id="ytick_19">
     <g id="line2d_72">
      <g>
       <use xlink:href="#m2e8b9a2304" x="34.899682" y="27.856452" style="stroke: #000000; stroke-width: 0.5"/>
      </g>
     </g>
     <g id="line2d_73">
      <g>
       <use xlink:href="#me485b368b3" x="327.849682" y="27.856452" style="stroke: #000000; stroke-width: 0.5"/>
      </g>
     </g>
    </g>
    <g id="ytick_20">
     <g id="line2d_74">
      <g>
       <use xlink:href="#m2e8b9a2304" x="34.899682" y="20.924809" style="stroke: #000000; stroke-width: 0.5"/>
      </g>
     </g>
     <g id="line2d_75">
      <g>
       <use xlink:href="#me485b368b3" x="327.849682" y="20.924809" style="stroke: #000000; stroke-width: 0.5"/>
      </g>
     </g>
    </g>
    <g id="ytick_21">
     <g id="line2d_76">
      <g>
       <use xlink:href="#m2e8b9a2304" x="34.899682" y="13.993166" style="stroke: #000000; stroke-width: 0.5"/>
      </g>
     </g>
     <g id="line2d_77">
      <g>
       <use xlink:href="#me485b368b3" x="327.849682" y="13.993166" style="stroke: #000000; stroke-width: 0.5"/>
      </g>
     </g>
    </g>
    <g id="text_10">
     <!-- Maximum Input-Output Flow -->
     <g transform="translate(10.518498 142.021726) rotate(-90) scale(0.1 -0.1)">
      <defs>
       <path id="CMR17-61" d="M 2304 1653 
C 2304 2072 2304 2294 2035 2543 
C 1798 2752 1523 2816 1306 2816 
C 800 2816 435 2407 435 1971 
C 435 1728 627 1728 666 1728 
C 749 1728 896 1778 896 1954 
C 896 2112 774 2181 666 2181 
C 640 2181 608 2174 589 2168 
C 723 2592 1069 2714 1293 2714 
C 1613 2714 1965 2429 1965 1885 
L 1965 1600 
C 1587 1600 1133 1549 774 1357 
C 371 1133 256 813 256 570 
C 256 77 832 -64 1171 -64 
C 1523 -64 1850 139 1990 511 
C 2003 233 2182 -18 2464 -18 
C 2598 -18 2938 70 2938 567 
L 2938 920 
L 2822 920 
L 2822 562 
C 2822 178 2650 128 2566 128 
C 2304 128 2304 458 2304 738 
L 2304 1653 
z
M 1965 870 
C 1965 317 1568 38 1216 38 
C 896 38 646 275 646 570 
C 646 761 730 1100 1101 1305 
C 1408 1478 1760 1504 1965 1504 
L 1965 870 
z
" transform="scale(0.015625)"/>
       <path id="CMR17-78" d="M 1664 1477 
C 1856 1726 2074 2006 2253 2216 
C 2464 2458 2707 2560 2989 2560 
L 2989 2726 
C 2880 2726 2656 2726 2541 2726 
C 2368 2726 2170 2726 2022 2732 
L 2022 2566 
C 2112 2553 2163 2489 2163 2400 
C 2163 2285 2099 2215 2067 2171 
L 1594 1573 
L 1030 2306 
C 973 2376 973 2388 973 2420 
C 973 2497 1037 2560 1146 2560 
L 1146 2732 
C 992 2726 717 2726 557 2726 
C 384 2726 179 2726 38 2732 
L 38 2560 
C 384 2560 461 2534 614 2343 
L 1350 1395 
C 1363 1382 1395 1344 1395 1325 
C 1395 1299 838 619 768 530 
C 480 185 179 160 6 160 
L 6 0 
C 115 0 339 0 454 0 
C 582 0 864 0 979 -6 
L 979 160 
C 941 166 838 179 838 325 
C 838 440 890 510 947 586 
L 1478 1236 
L 2035 512 
C 2086 442 2163 346 2163 301 
C 2163 211 2086 160 1984 160 
L 1984 -6 
C 2138 0 2413 0 2573 0 
C 2746 0 2950 0 3091 -6 
L 3091 160 
C 2771 160 2675 172 2522 370 
L 1664 1477 
z
" transform="scale(0.015625)"/>
       <path id="CMR17-69" d="M 992 3909 
C 992 4049 877 4170 730 4170 
C 589 4170 467 4056 467 3909 
C 467 3769 582 3648 730 3648 
C 870 3648 992 3763 992 3909 
z
M 243 2706 
L 243 2541 
C 602 2541 653 2502 653 2197 
L 653 427 
C 653 184 627 153 218 153 
L 218 -13 
C 371 0 646 0 806 0 
C 960 0 1222 0 1370 -13 
L 1370 153 
C 992 153 979 191 979 420 
L 979 2776 
L 243 2706 
z
" transform="scale(0.015625)"/>
       <path id="CMR17-6d" d="M 4326 1933 
C 4326 2252 4269 2790 3507 2790 
C 3072 2790 2771 2496 2656 2151 
L 2650 2151 
C 2573 2676 2195 2790 1837 2790 
C 1331 2790 1069 2400 973 2144 
L 966 2144 
L 966 2790 
L 211 2720 
L 211 2554 
C 589 2554 646 2515 646 2208 
L 646 428 
C 646 184 621 153 211 153 
L 211 -13 
C 365 0 646 0 813 0 
C 979 0 1267 0 1421 -13 
L 1421 153 
C 1011 153 986 178 986 428 
L 986 1658 
C 986 2247 1344 2688 1792 2688 
C 2266 2688 2317 2266 2317 1958 
L 2317 428 
C 2317 184 2291 153 1882 153 
L 1882 -13 
C 2035 0 2317 0 2483 0 
C 2650 0 2938 0 3091 -13 
L 3091 153 
C 2682 153 2656 178 2656 428 
L 2656 1658 
C 2656 2247 3014 2688 3462 2688 
C 3936 2688 3987 2266 3987 1958 
L 3987 428 
C 3987 184 3962 153 3552 153 
L 3552 -13 
C 3706 0 3987 0 4154 0 
C 4320 0 4608 0 4762 -13 
L 4762 153 
C 4352 153 4326 178 4326 428 
L 4326 1933 
z
" transform="scale(0.015625)"/>
       <path id="CMR17-75" d="M 1882 2693 
L 1882 2528 
C 2259 2528 2317 2489 2317 2186 
L 2317 1032 
C 2317 500 2029 38 1555 38 
C 1030 38 986 348 986 678 
L 986 2763 
L 211 2693 
L 211 2528 
C 467 2528 640 2528 646 2274 
L 646 1058 
C 646 633 646 361 813 183 
C 896 101 1056 -64 1517 -64 
C 2061 -64 2272 377 2323 506 
L 2330 506 
L 2330 -63 
L 3091 -63 
L 3091 128 
C 2714 128 2656 166 2656 473 
L 2656 2763 
L 1882 2693 
z
" transform="scale(0.015625)"/>
       <path id="CMR17-49" d="M 1261 3905 
C 1261 4192 1338 4192 1798 4192 
L 1798 4352 
C 1594 4352 1267 4352 1050 4352 
C 832 4352 506 4352 301 4352 
L 301 4192 
C 762 4192 838 4192 838 3905 
L 838 447 
C 838 160 762 160 301 160 
L 301 0 
C 506 0 832 0 1050 0 
C 1267 0 1594 0 1798 0 
L 1798 160 
C 1338 160 1261 160 1261 447 
L 1261 3905 
z
" transform="scale(0.015625)"/>
       <path id="CMR17-6e" d="M 2656 1933 
C 2656 2259 2592 2790 1837 2790 
C 1331 2790 1069 2400 973 2144 
L 966 2144 
L 966 2790 
L 211 2720 
L 211 2554 
C 589 2554 646 2515 646 2208 
L 646 428 
C 646 184 621 153 211 153 
L 211 -13 
C 365 0 646 0 813 0 
C 979 0 1267 0 1421 -13 
L 1421 153 
C 1011 153 986 178 986 428 
L 986 1658 
C 986 2247 1344 2688 1792 2688 
C 2266 2688 2317 2266 2317 1958 
L 2317 428 
C 2317 184 2291 153 1882 153 
L 1882 -13 
C 2035 0 2317 0 2483 0 
C 2650 0 2938 0 3091 -13 
L 3091 153 
C 2682 153 2656 178 2656 428 
L 2656 1933 
z
" transform="scale(0.015625)"/>
       <path id="CMR17-70" d="M 1408 -1063 
C 998 -1063 973 -1037 973 -789 
L 973 402 
C 1158 134 1427 -38 1766 -38 
C 2406 -38 3053 523 3053 1388 
C 3053 2191 2496 2802 1837 2802 
C 1453 2802 1139 2592 960 2338 
L 960 2802 
L 198 2732 
L 198 2567 
C 576 2567 634 2528 634 2223 
L 634 -789 
C 634 -1031 608 -1063 198 -1063 
L 198 -1228 
C 352 -1216 634 -1216 800 -1216 
C 966 -1216 1254 -1216 1408 -1228 
L 1408 -1063 
z
M 973 2012 
C 973 2102 973 2235 1222 2471 
C 1254 2497 1472 2688 1792 2688 
C 2259 2688 2643 2108 2643 1382 
C 2643 656 2234 64 1728 64 
C 1498 64 1248 172 1056 472 
C 973 612 973 650 973 752 
L 973 2012 
z
" transform="scale(0.015625)"/>
       <path id="CMR17-74" d="M 966 2560 
L 1862 2560 
L 1862 2725 
L 966 2725 
L 966 3904 
L 851 3904 
C 838 3245 614 2668 70 2668 
L 70 2560 
L 627 2560 
L 627 771 
C 627 650 627 -64 1370 -64 
C 1747 -64 1965 306 1965 777 
L 1965 1140 
L 1850 1140 
L 1850 783 
C 1850 344 1677 51 1408 51 
C 1222 51 966 178 966 758 
L 966 2560 
z
" transform="scale(0.015625)"/>
       <path id="CMR17-2d" d="M 1632 1216 
L 1632 1496 
L 26 1496 
L 26 1216 
L 1632 1216 
z
" transform="scale(0.015625)"/>
       <path id="CMR17-4f" d="M 4307 2135 
C 4307 3437 3366 4416 2304 4416 
C 1216 4416 294 3424 294 2135 
C 294 845 1229 -128 2298 -128 
C 3392 -128 4307 864 4307 2135 
z
M 2304 -13 
C 1574 -13 781 711 781 2217 
C 781 3716 1651 4301 2298 4301 
C 2976 4301 3821 3698 3821 2217 
C 3821 686 3008 -13 2304 -13 
z
" transform="scale(0.015625)"/>
       <path id="CMR17-46" d="M 3482 4325 
L 326 4325 
L 326 4160 
C 768 4160 838 4160 838 3874 
L 838 446 
C 838 160 768 160 326 160 
L 326 0 
C 512 0 870 0 1069 0 
C 1331 0 1638 0 1901 0 
L 1901 160 
L 1760 160 
C 1274 160 1261 223 1261 452 
L 1261 2075 
L 1837 2075 
C 2432 2075 2490 1865 2490 1332 
L 2605 1332 
L 2605 2987 
L 2490 2987 
C 2490 2450 2432 2240 1837 2240 
L 1261 2240 
L 1261 3911 
C 1261 4128 1274 4160 1530 4160 
L 2355 4160 
C 3322 4160 3430 3765 3520 2916 
L 3635 2916 
L 3482 4325 
z
" transform="scale(0.015625)"/>
       <path id="CMR17-6c" d="M 979 4396 
L 218 4326 
L 218 4160 
C 595 4160 653 4122 653 3817 
L 653 426 
C 653 184 627 153 218 153 
L 218 -13 
C 371 0 653 0 813 0 
C 979 0 1261 0 1414 -13 
L 1414 153 
C 1005 153 979 178 979 426 
L 979 4396 
z
" transform="scale(0.015625)"/>
       <path id="CMR17-6f" d="M 2758 1356 
C 2758 2176 2163 2816 1466 2816 
C 768 2816 173 2176 173 1356 
C 173 551 768 -64 1466 -64 
C 2163 -64 2758 551 2758 1356 
z
M 1466 51 
C 1165 51 909 230 762 480 
C 602 767 582 1126 582 1408 
C 582 1677 595 2010 762 2298 
C 890 2509 1139 2714 1466 2714 
C 1754 2714 1997 2554 2150 2330 
C 2349 2029 2349 1607 2349 1408 
C 2349 1158 2336 775 2163 467 
C 1984 173 1709 51 1466 51 
z
" transform="scale(0.015625)"/>
       <path id="CMR17-77" d="M 3725 2183 
C 3853 2560 4109 2560 4205 2560 
L 4205 2732 
C 4077 2732 3949 2732 3821 2732 
C 3699 2732 3424 2732 3315 2738 
L 3315 2560 
C 3514 2560 3622 2445 3622 2286 
C 3622 2241 3610 2184 3597 2140 
L 2995 407 
L 2342 2275 
C 2330 2319 2310 2370 2310 2395 
C 2310 2560 2528 2560 2630 2560 
L 2630 2738 
C 2483 2732 2214 2732 2061 2732 
C 1901 2732 1734 2732 1587 2738 
L 1587 2560 
C 1939 2560 1939 2547 2074 2149 
L 1485 451 
L 851 2281 
C 819 2363 819 2376 819 2395 
C 819 2560 1037 2560 1139 2560 
L 1139 2738 
C 986 2732 717 2732 557 2732 
C 416 2732 198 2732 64 2738 
L 64 2560 
C 346 2560 416 2541 486 2331 
L 1274 49 
C 1299 -33 1318 -52 1370 -52 
C 1414 -52 1440 -39 1472 56 
L 2131 1980 
L 2797 56 
C 2829 -39 2854 -52 2899 -52 
C 2950 -52 2970 -33 2995 50 
L 3725 2183 
z
" transform="scale(0.015625)"/>
      </defs>
      <use xlink:href="#CMR17-4d" transform="scale(0.996264)"/>
      <use xlink:href="#CMR17-61" transform="translate(84.686941 0) scale(0.996264)"/>
      <use xlink:href="#CMR17-78" transform="translate(130.377418 0) scale(0.996264)"/>
      <use xlink:href="#CMR17-69" transform="translate(178.670334 0) scale(0.996264)"/>
      <use xlink:href="#CMR17-6d" transform="translate(203.541392 0) scale(0.996264)"/>
      <use xlink:href="#CMR17-75" transform="translate(277.858528 0) scale(0.996264)"/>
      <use xlink:href="#CMR17-6d" transform="translate(328.753898 0) scale(0.996264)"/>
      <use xlink:href="#CMR17-49" transform="translate(435.749454 0) scale(0.996264)"/>
      <use xlink:href="#CMR17-6e" transform="translate(468.387863 0) scale(0.996264)"/>
      <use xlink:href="#CMR17-70" transform="translate(519.283233 0) scale(0.996264)"/>
      <use xlink:href="#CMR17-75" transform="translate(570.178603 0) scale(0.996264)"/>
      <use xlink:href="#CMR17-74" transform="translate(621.073972 0) scale(0.996264)"/>
      <use xlink:href="#CMR17-2d" transform="translate(656.35474 0) scale(0.996264)"/>
      <use xlink:href="#CMR17-4f" transform="translate(686.430707 0) scale(0.996264)"/>
      <use xlink:href="#CMR17-75" transform="translate(758.145495 0) scale(0.996264)"/>
      <use xlink:href="#CMR17-74" transform="translate(809.040865 0) scale(0.996264)"/>
      <use xlink:href="#CMR17-70" transform="translate(844.321633 0) scale(0.996264)"/>
      <use xlink:href="#CMR17-75" transform="translate(895.217002 0) scale(0.996264)"/>
      <use xlink:href="#CMR17-74" transform="translate(946.112372 0) scale(0.996264)"/>
      <use xlink:href="#CMR17-46" transform="translate(1011.469106 0) scale(0.996264)"/>
      <use xlink:href="#CMR17-6c" transform="translate(1071.452953 0) scale(0.996264)"/>
      <use xlink:href="#CMR17-6f" transform="translate(1096.324011 0) scale(0.996264)"/>
      <use xlink:href="#CMR17-77" transform="translate(1139.412035 0) scale(0.996264)"/>
     </g>
    </g>
   </g>
   <g id="FillBetweenPolyCollection_1">
    <defs>
     <path id="mdc9a992203" d="M 113.624116 -106.833488 
L 53.825249 -106.833488 
L 52.628422 -107.439744 
L 51.509692 -108.045999 
L 50.479928 -108.652254 
L 49.549136 -109.25851 
L 48.726254 -109.864765 
L 48.01897 -110.47102 
L 47.433552 -111.077276 
L 46.974707 -111.683531 
L 46.645465 -112.289786 
L 46.447093 -112.896042 
L 46.379048 -113.502297 
L 46.43896 -114.108552 
L 46.622652 -114.714808 
L 46.924195 -115.321063 
L 47.335999 -115.927318 
L 47.848934 -116.533573 
L 48.452482 -117.139829 
L 49.134913 -117.746084 
L 49.883481 -118.352339 
L 50.684644 -118.958595 
L 51.524285 -119.56485 
L 52.387944 -120.171105 
L 53.261061 -120.777361 
L 54.129194 -121.383616 
L 54.978252 -121.989871 
L 55.794701 -122.596127 
L 56.565759 -123.202382 
L 57.279571 -123.808637 
L 57.925364 -124.414893 
L 58.493577 -125.021148 
L 58.975969 -125.627403 
L 59.365701 -126.233659 
L 59.657397 -126.839914 
L 59.847175 -127.446169 
L 59.932664 -128.052424 
L 59.912996 -128.65868 
L 59.788778 -129.264935 
L 59.562051 -129.87119 
L 59.236231 -130.477446 
L 58.816036 -131.083701 
L 58.307407 -131.689956 
L 57.717411 -132.296212 
L 57.05414 -132.902467 
L 56.326606 -133.508722 
L 55.544621 -134.114978 
L 54.718677 -134.721233 
L 53.859822 -135.327488 
L 52.979526 -135.933744 
L 52.089549 -136.539999 
L 51.201806 -137.146254 
L 50.328221 -137.75251 
L 49.480593 -138.358765 
L 48.670451 -138.96502 
L 47.908918 -139.571275 
L 47.206571 -140.177531 
L 46.573312 -140.783786 
L 46.018242 -141.390041 
L 45.549548 -141.996297 
L 45.174392 -142.602552 
L 44.898829 -143.208807 
L 44.72772 -143.815063 
L 44.664682 -144.421318 
L 44.712045 -145.027573 
L 44.870827 -145.633829 
L 45.14074 -146.240084 
L 45.520211 -146.846339 
L 46.006418 -147.452595 
L 46.595361 -148.05885 
L 47.281937 -148.665105 
L 48.060042 -149.271361 
L 48.922685 -149.877616 
L 49.862112 -150.483871 
L 50.86995 -151.090126 
L 51.937345 -151.696382 
L 53.055114 -152.302637 
L 54.213892 -152.908892 
L 55.404283 -153.515148 
L 56.616996 -154.121403 
L 57.842985 -154.727658 
L 59.073566 -155.333914 
L 60.300532 -155.940169 
L 61.516246 -156.546424 
L 62.713721 -157.15268 
L 63.886681 -157.758935 
L 65.029611 -158.36519 
L 66.137778 -158.971446 
L 67.207248 -159.577701 
L 68.234876 -160.183956 
L 69.218289 -160.790212 
L 70.15585 -161.396467 
L 71.046609 -162.002722 
L 71.890256 -162.608977 
L 72.687046 -163.215233 
L 73.437738 -163.821488 
L 74.14352 -164.427743 
L 74.805931 -165.033999 
L 75.426791 -165.640254 
L 76.008126 -166.246509 
L 76.552102 -166.852765 
L 90.897263 -166.852765 
L 90.897263 -166.852765 
L 91.441239 -166.246509 
L 92.022574 -165.640254 
L 92.643434 -165.033999 
L 93.305845 -164.427743 
L 94.011627 -163.821488 
L 94.762319 -163.215233 
L 95.559109 -162.608977 
L 96.402755 -162.002722 
L 97.293515 -161.396467 
L 98.231075 -160.790212 
L 99.214489 -160.183956 
L 100.242117 -159.577701 
L 101.311587 -158.971446 
L 102.419754 -158.36519 
L 103.562684 -157.758935 
L 104.735644 -157.15268 
L 105.933119 -156.546424 
L 107.148833 -155.940169 
L 108.375799 -155.333914 
L 109.60638 -154.727658 
L 110.832369 -154.121403 
L 112.045082 -153.515148 
L 113.235473 -152.908892 
L 114.394251 -152.302637 
L 115.51202 -151.696382 
L 116.579415 -151.090126 
L 117.587253 -150.483871 
L 118.52668 -149.877616 
L 119.389323 -149.271361 
L 120.167428 -148.665105 
L 120.854004 -148.05885 
L 121.442947 -147.452595 
L 121.929154 -146.846339 
L 122.308625 -146.240084 
L 122.578538 -145.633829 
L 122.73732 -145.027573 
L 122.784682 -144.421318 
L 122.721645 -143.815063 
L 122.550536 -143.208807 
L 122.274973 -142.602552 
L 121.899817 -141.996297 
L 121.431123 -141.390041 
L 120.876053 -140.783786 
L 120.242794 -140.177531 
L 119.540447 -139.571275 
L 118.778914 -138.96502 
L 117.968772 -138.358765 
L 117.121144 -137.75251 
L 116.247559 -137.146254 
L 115.359816 -136.539999 
L 114.469839 -135.933744 
L 113.589543 -135.327488 
L 112.730688 -134.721233 
L 111.904744 -134.114978 
L 111.122759 -133.508722 
L 110.395225 -132.902467 
L 109.731954 -132.296212 
L 109.141958 -131.689956 
L 108.633329 -131.083701 
L 108.213134 -130.477446 
L 107.887314 -129.87119 
L 107.660587 -129.264935 
L 107.536369 -128.65868 
L 107.516701 -128.052424 
L 107.60219 -127.446169 
L 107.791968 -126.839914 
L 108.083664 -126.233659 
L 108.473396 -125.627403 
L 108.955788 -125.021148 
L 109.524001 -124.414893 
L 110.169793 -123.808637 
L 110.883606 -123.202382 
L 111.654664 -122.596127 
L 112.471113 -121.989871 
L 113.320171 -121.383616 
L 114.188304 -120.777361 
L 115.06142 -120.171105 
L 115.92508 -119.56485 
L 116.764721 -118.958595 
L 117.565884 -118.352339 
L 118.314452 -117.746084 
L 118.996883 -117.139829 
L 119.600431 -116.533573 
L 120.113366 -115.927318 
L 120.52517 -115.321063 
L 120.826713 -114.714808 
L 121.010405 -114.108552 
L 121.070317 -113.502297 
L 121.002272 -112.896042 
L 120.8039 -112.289786 
L 120.474658 -111.683531 
L 120.015813 -111.077276 
L 119.430395 -110.47102 
L 118.723111 -109.864765 
L 117.900229 -109.25851 
L 116.969437 -108.652254 
L 115.939673 -108.045999 
L 114.820943 -107.439744 
L 113.624116 -106.833488 
z
" style="stroke: #333333"/>
    </defs>
    <g clip-path="url(#p153969141b)">
     <use xlink:href="#mdc9a992203" x="0" y="181.040845" style="fill: #51779d; stroke: #333333"/>
    </g>
   </g>
   <g id="PathCollection_1">
    <defs>
     <path id="m6cfe31d8f5" d="M 0 1 
C 0.265203 1 0.51958 0.894634 0.707107 0.707107 
C 0.894634 0.51958 1 0.265203 1 0 
C 1 -0.265203 0.894634 -0.51958 0.707107 -0.707107 
C 0.51958 -0.894634 0.265203 -1 0 -1 
C -0.265203 -1 -0.51958 -0.894634 -0.707107 -0.707107 
C -0.894634 -0.51958 -1 -0.265203 -1 0 
C -1 0.265203 -0.894634 0.51958 -0.707107 0.707107 
C -0.51958 0.894634 -0.265203 1 0 1 
z
" style="stroke: #333333"/>
    </defs>
    <g clip-path="url(#p153969141b)">
     <use xlink:href="#m6cfe31d8f5" x="83.724682" y="70.903644" style="fill: #333333; stroke: #333333"/>
     <use xlink:href="#m6cfe31d8f5" x="83.724682" y="44.685828" style="fill: #333333; stroke: #333333"/>
     <use xlink:href="#m6cfe31d8f5" x="83.724682" y="34.476025" style="fill: #333333; stroke: #333333"/>
     <use xlink:href="#m6cfe31d8f5" x="83.724682" y="40.335446" style="fill: #333333; stroke: #333333"/>
     <use xlink:href="#m6cfe31d8f5" x="83.724682" y="74.207356" style="fill: #333333; stroke: #333333"/>
     <use xlink:href="#m6cfe31d8f5" x="83.724682" y="73.184797" style="fill: #333333; stroke: #333333"/>
     <use xlink:href="#m6cfe31d8f5" x="83.724682" y="69.114083" style="fill: #333333; stroke: #333333"/>
     <use xlink:href="#m6cfe31d8f5" x="83.724682" y="35.111027" style="fill: #333333; stroke: #333333"/>
     <use xlink:href="#m6cfe31d8f5" x="83.724682" y="49.401009" style="fill: #333333; stroke: #333333"/>
     <use xlink:href="#m6cfe31d8f5" x="83.724682" y="71.461087" style="fill: #333333; stroke: #333333"/>
     <use xlink:href="#m6cfe31d8f5" x="83.724682" y="38.560559" style="fill: #333333; stroke: #333333"/>
     <use xlink:href="#m6cfe31d8f5" x="83.724682" y="30.869975" style="fill: #333333; stroke: #333333"/>
     <use xlink:href="#m6cfe31d8f5" x="83.724682" y="39.924395" style="fill: #333333; stroke: #333333"/>
     <use xlink:href="#m6cfe31d8f5" x="83.724682" y="64.657877" style="fill: #333333; stroke: #333333"/>
     <use xlink:href="#m6cfe31d8f5" x="83.724682" y="62.211062" style="fill: #333333; stroke: #333333"/>
     <use xlink:href="#m6cfe31d8f5" x="83.724682" y="64.564937" style="fill: #333333; stroke: #333333"/>
     <use xlink:href="#m6cfe31d8f5" x="83.724682" y="66.012989" style="fill: #333333; stroke: #333333"/>
     <use xlink:href="#m6cfe31d8f5" x="83.724682" y="36.265397" style="fill: #333333; stroke: #333333"/>
     <use xlink:href="#m6cfe31d8f5" x="83.724682" y="68.232724" style="fill: #333333; stroke: #333333"/>
     <use xlink:href="#m6cfe31d8f5" x="83.724682" y="33.172813" style="fill: #333333; stroke: #333333"/>
     <use xlink:href="#m6cfe31d8f5" x="83.724682" y="37.210186" style="fill: #333333; stroke: #333333"/>
     <use xlink:href="#m6cfe31d8f5" x="83.724682" y="29.794296" style="fill: #333333; stroke: #333333"/>
     <use xlink:href="#m6cfe31d8f5" x="83.724682" y="29.215858" style="fill: #333333; stroke: #333333"/>
     <use xlink:href="#m6cfe31d8f5" x="83.724682" y="70.434959" style="fill: #333333; stroke: #333333"/>
     <use xlink:href="#m6cfe31d8f5" x="83.724682" y="35.736342" style="fill: #333333; stroke: #333333"/>
     <use xlink:href="#m6cfe31d8f5" x="83.724682" y="62.569517" style="fill: #333333; stroke: #333333"/>
     <use xlink:href="#m6cfe31d8f5" x="83.724682" y="67.823909" style="fill: #333333; stroke: #333333"/>
     <use xlink:href="#m6cfe31d8f5" x="83.724682" y="24.576366" style="fill: #333333; stroke: #333333"/>
     <use xlink:href="#m6cfe31d8f5" x="83.724682" y="14.18808" style="fill: #333333; stroke: #333333"/>
     <use xlink:href="#m6cfe31d8f5" x="83.724682" y="67.391942" style="fill: #333333; stroke: #333333"/>
     <use xlink:href="#m6cfe31d8f5" x="83.724682" y="39.958891" style="fill: #333333; stroke: #333333"/>
     <use xlink:href="#m6cfe31d8f5" x="83.724682" y="48.39251" style="fill: #333333; stroke: #333333"/>
    </g>
   </g>
   <g id="FillBetweenPolyCollection_2">
    <defs>
     <path id="m2416eb56ff" d="M 212.624696 -65.799423 
L 150.124669 -65.799423 
L 148.858985 -66.860296 
L 147.67691 -67.921169 
L 146.590171 -68.982041 
L 145.609507 -70.042914 
L 144.744442 -71.103787 
L 144.003075 -72.16466 
L 143.391893 -73.225533 
L 142.915616 -74.286406 
L 142.57708 -75.347279 
L 142.37715 -76.408152 
L 142.314682 -77.469025 
L 142.386524 -78.529898 
L 142.58756 -79.590771 
L 142.910794 -80.651644 
L 143.347481 -81.712517 
L 143.887286 -82.77339 
L 144.518478 -83.834263 
L 145.228152 -84.895136 
L 146.002469 -85.956009 
L 146.826914 -87.016882 
L 147.686557 -88.077755 
L 148.566318 -89.138628 
L 149.451229 -90.199501 
L 150.326679 -91.260373 
L 151.178647 -92.321246 
L 151.993916 -93.382119 
L 152.760258 -94.442992 
L 153.466594 -95.503865 
L 154.103131 -96.564738 
L 154.661457 -97.625611 
L 155.134623 -98.686484 
L 155.517186 -99.747357 
L 155.805228 -100.80823 
L 155.996357 -101.869103 
L 156.089675 -102.929976 
L 156.085738 -103.990849 
L 155.986494 -105.051722 
L 155.795208 -106.112595 
L 155.516378 -107.173468 
L 155.155639 -108.234341 
L 154.719659 -109.295214 
L 154.216038 -110.356087 
L 153.653187 -111.41696 
L 153.040219 -112.477832 
L 152.386826 -113.538705 
L 151.703158 -114.599578 
L 150.999696 -115.660451 
L 150.287131 -116.721324 
L 149.576232 -117.782197 
L 148.877715 -118.84307 
L 148.202121 -119.903943 
L 147.559678 -120.964816 
L 146.960186 -122.025689 
L 146.412887 -123.086562 
L 145.926353 -124.147435 
L 145.508376 -125.208308 
L 145.165872 -126.269181 
L 144.904792 -127.330054 
L 144.730052 -128.390927 
L 144.645471 -129.4518 
L 144.653741 -130.512673 
L 144.756394 -131.573546 
L 144.953809 -132.634419 
L 145.245223 -133.695292 
L 145.628773 -134.756164 
L 146.101544 -135.817037 
L 146.659646 -136.87791 
L 147.298297 -137.938783 
L 148.011928 -138.999656 
L 148.794292 -140.060529 
L 149.638583 -141.121402 
L 150.537565 -142.182275 
L 151.483697 -143.243148 
L 152.469263 -144.304021 
L 153.486499 -145.364894 
L 154.527708 -146.425767 
L 155.585377 -147.48664 
L 156.652279 -148.547513 
L 157.72156 -149.608386 
L 158.786819 -150.669259 
L 159.842177 -151.730132 
L 160.882318 -152.791005 
L 161.902532 -153.851878 
L 162.898736 -154.912751 
L 163.867475 -155.973624 
L 164.805925 -157.034496 
L 165.711872 -158.095369 
L 166.583684 -159.156242 
L 167.420276 -160.217115 
L 168.221065 -161.277988 
L 168.985918 -162.338861 
L 169.715104 -163.399734 
L 170.409228 -164.460607 
L 171.069181 -165.52148 
L 171.696078 -166.582353 
L 172.291205 -167.643226 
L 172.855965 -168.704099 
L 173.391828 -169.764972 
L 173.900291 -170.825845 
L 188.849074 -170.825845 
L 188.849074 -170.825845 
L 189.357537 -169.764972 
L 189.8934 -168.704099 
L 190.45816 -167.643226 
L 191.053287 -166.582353 
L 191.680184 -165.52148 
L 192.340137 -164.460607 
L 193.034261 -163.399734 
L 193.763447 -162.338861 
L 194.5283 -161.277988 
L 195.329089 -160.217115 
L 196.165681 -159.156242 
L 197.037493 -158.095369 
L 197.94344 -157.034496 
L 198.88189 -155.973624 
L 199.850629 -154.912751 
L 200.846832 -153.851878 
L 201.867047 -152.791005 
L 202.907188 -151.730132 
L 203.962545 -150.669259 
L 205.027805 -149.608386 
L 206.097086 -148.547513 
L 207.163987 -147.48664 
L 208.221657 -146.425767 
L 209.262866 -145.364894 
L 210.280102 -144.304021 
L 211.265668 -143.243148 
L 212.2118 -142.182275 
L 213.110782 -141.121402 
L 213.955073 -140.060529 
L 214.737437 -138.999656 
L 215.451068 -137.938783 
L 216.089719 -136.87791 
L 216.647821 -135.817037 
L 217.120592 -134.756164 
L 217.504142 -133.695292 
L 217.795556 -132.634419 
L 217.992971 -131.573546 
L 218.095624 -130.512673 
L 218.103894 -129.4518 
L 218.019313 -128.390927 
L 217.844573 -127.330054 
L 217.583493 -126.269181 
L 217.240989 -125.208308 
L 216.823012 -124.147435 
L 216.336478 -123.086562 
L 215.789179 -122.025689 
L 215.189687 -120.964816 
L 214.547244 -119.903943 
L 213.871649 -118.84307 
L 213.173133 -117.782197 
L 212.462233 -116.721324 
L 211.749669 -115.660451 
L 211.046207 -114.599578 
L 210.362539 -113.538705 
L 209.709146 -112.477832 
L 209.096178 -111.41696 
L 208.533327 -110.356087 
L 208.029705 -109.295214 
L 207.593726 -108.234341 
L 207.232986 -107.173468 
L 206.954156 -106.112595 
L 206.762871 -105.051722 
L 206.663627 -103.990849 
L 206.65969 -102.929976 
L 206.753008 -101.869103 
L 206.944137 -100.80823 
L 207.232179 -99.747357 
L 207.614742 -98.686484 
L 208.087908 -97.625611 
L 208.646234 -96.564738 
L 209.282771 -95.503865 
L 209.989107 -94.442992 
L 210.755449 -93.382119 
L 211.570718 -92.321246 
L 212.422686 -91.260373 
L 213.298136 -90.199501 
L 214.183046 -89.138628 
L 215.062808 -88.077755 
L 215.922451 -87.016882 
L 216.746896 -85.956009 
L 217.521213 -84.895136 
L 218.230887 -83.834263 
L 218.862079 -82.77339 
L 219.401884 -81.712517 
L 219.838571 -80.651644 
L 220.161805 -79.590771 
L 220.36284 -78.529898 
L 220.434682 -77.469025 
L 220.372215 -76.408152 
L 220.172285 -75.347279 
L 219.833749 -74.286406 
L 219.357472 -73.225533 
L 218.74629 -72.16466 
L 218.004923 -71.103787 
L 217.139858 -70.042914 
L 216.159194 -68.982041 
L 215.072455 -67.921169 
L 213.89038 -66.860296 
L 212.624696 -65.799423 
z
" style="stroke: #333333"/>
    </defs>
    <g clip-path="url(#p153969141b)">
     <use xlink:href="#m2416eb56ff" x="0" y="181.040845" style="fill: #dd7784; stroke: #333333"/>
    </g>
   </g>
   <g id="PathCollection_2">
    <g clip-path="url(#p153969141b)">
     <use xlink:href="#m6cfe31d8f5" x="181.374682" y="106.864526" style="fill: #333333; stroke: #333333"/>
     <use xlink:href="#m6cfe31d8f5" x="181.374682" y="69.980483" style="fill: #333333; stroke: #333333"/>
     <use xlink:href="#m6cfe31d8f5" x="181.374682" y="52.452659" style="fill: #333333; stroke: #333333"/>
     <use xlink:href="#m6cfe31d8f5" x="181.374682" y="59.929174" style="fill: #333333; stroke: #333333"/>
     <use xlink:href="#m6cfe31d8f5" x="181.374682" y="115.241422" style="fill: #333333; stroke: #333333"/>
     <use xlink:href="#m6cfe31d8f5" x="181.374682" y="113.41284" style="fill: #333333; stroke: #333333"/>
     <use xlink:href="#m6cfe31d8f5" x="181.374682" y="105.946556" style="fill: #333333; stroke: #333333"/>
     <use xlink:href="#m6cfe31d8f5" x="181.374682" y="45.920476" style="fill: #333333; stroke: #333333"/>
     <use xlink:href="#m6cfe31d8f5" x="181.374682" y="77.87004" style="fill: #333333; stroke: #333333"/>
     <use xlink:href="#m6cfe31d8f5" x="181.374682" y="109.671964" style="fill: #333333; stroke: #333333"/>
     <use xlink:href="#m6cfe31d8f5" x="181.374682" y="58.4243" style="fill: #333333; stroke: #333333"/>
     <use xlink:href="#m6cfe31d8f5" x="181.374682" y="38.488222" style="fill: #333333; stroke: #333333"/>
     <use xlink:href="#m6cfe31d8f5" x="181.374682" y="55.267423" style="fill: #333333; stroke: #333333"/>
     <use xlink:href="#m6cfe31d8f5" x="181.374682" y="101.428141" style="fill: #333333; stroke: #333333"/>
     <use xlink:href="#m6cfe31d8f5" x="181.374682" y="98.193742" style="fill: #333333; stroke: #333333"/>
     <use xlink:href="#m6cfe31d8f5" x="181.374682" y="97.889894" style="fill: #333333; stroke: #333333"/>
     <use xlink:href="#m6cfe31d8f5" x="181.374682" y="105.105992" style="fill: #333333; stroke: #333333"/>
     <use xlink:href="#m6cfe31d8f5" x="181.374682" y="50.521088" style="fill: #333333; stroke: #333333"/>
     <use xlink:href="#m6cfe31d8f5" x="181.374682" y="103.270248" style="fill: #333333; stroke: #333333"/>
     <use xlink:href="#m6cfe31d8f5" x="181.374682" y="44.908071" style="fill: #333333; stroke: #333333"/>
     <use xlink:href="#m6cfe31d8f5" x="181.374682" y="52.15368" style="fill: #333333; stroke: #333333"/>
     <use xlink:href="#m6cfe31d8f5" x="181.374682" y="37.91353" style="fill: #333333; stroke: #333333"/>
     <use xlink:href="#m6cfe31d8f5" x="181.374682" y="35.261131" style="fill: #333333; stroke: #333333"/>
     <use xlink:href="#m6cfe31d8f5" x="181.374682" y="109.882152" style="fill: #333333; stroke: #333333"/>
     <use xlink:href="#m6cfe31d8f5" x="181.374682" y="50.893538" style="fill: #333333; stroke: #333333"/>
     <use xlink:href="#m6cfe31d8f5" x="181.374682" y="99.35317" style="fill: #333333; stroke: #333333"/>
     <use xlink:href="#m6cfe31d8f5" x="181.374682" y="102.796768" style="fill: #333333; stroke: #333333"/>
     <use xlink:href="#m6cfe31d8f5" x="181.374682" y="24.309133" style="fill: #333333; stroke: #333333"/>
     <use xlink:href="#m6cfe31d8f5" x="181.374682" y="10.215" style="fill: #333333; stroke: #333333"/>
     <use xlink:href="#m6cfe31d8f5" x="181.374682" y="103.000979" style="fill: #333333; stroke: #333333"/>
     <use xlink:href="#m6cfe31d8f5" x="181.374682" y="51.756694" style="fill: #333333; stroke: #333333"/>
     <use xlink:href="#m6cfe31d8f5" x="181.374682" y="73.087293" style="fill: #333333; stroke: #333333"/>
    </g>
   </g>
   <g id="FillBetweenPolyCollection_3">
    <defs>
     <path id="m752c588d52" d="M 310.782142 -38.525845 
L 247.267223 -38.525845 
L 246.063848 -39.85746 
L 244.945892 -41.189076 
L 243.923503 -42.520692 
L 243.005727 -43.852307 
L 242.200325 -45.183923 
L 241.513602 -46.515539 
L 240.950273 -47.847154 
L 240.513359 -49.17877 
L 240.204115 -50.510386 
L 240.022 -51.842001 
L 239.964682 -53.173617 
L 240.028085 -54.505233 
L 240.206465 -55.836848 
L 240.492534 -57.168464 
L 240.877604 -58.50008 
L 241.35176 -59.831695 
L 241.904063 -61.163311 
L 242.522759 -62.494927 
L 243.195508 -63.826542 
L 243.909611 -65.158158 
L 244.652242 -66.489774 
L 245.410673 -67.821389 
L 246.172482 -69.153005 
L 246.925757 -70.484621 
L 247.659265 -71.816236 
L 248.362618 -73.147852 
L 249.026399 -74.479468 
L 249.642267 -75.811083 
L 250.203043 -77.142699 
L 250.702766 -78.474315 
L 251.136717 -79.80593 
L 251.501439 -81.137546 
L 251.794717 -82.469162 
L 252.015551 -83.800777 
L 252.16411 -85.132393 
L 252.241673 -86.464009 
L 252.250557 -87.795624 
L 252.194039 -89.12724 
L 252.076268 -90.458856 
L 251.902174 -91.790471 
L 251.677375 -93.122087 
L 251.408077 -94.453703 
L 251.100978 -95.785318 
L 250.763168 -97.116934 
L 250.40203 -98.44855 
L 250.025144 -99.780165 
L 249.640187 -101.111781 
L 249.254841 -102.443397 
L 248.876699 -103.775012 
L 248.513175 -105.106628 
L 248.171417 -106.438244 
L 247.858224 -107.769859 
L 247.579967 -109.101475 
L 247.342519 -110.433091 
L 247.151187 -111.764706 
L 247.010655 -113.096322 
L 246.924935 -114.427938 
L 246.897324 -115.759553 
L 246.930379 -117.091169 
L 247.025893 -118.422785 
L 247.184888 -119.7544 
L 247.407622 -121.086016 
L 247.693597 -122.417632 
L 248.041594 -123.749247 
L 248.4497 -125.080863 
L 248.915365 -126.412479 
L 249.435451 -127.744094 
L 250.0063 -129.07571 
L 250.623805 -130.407326 
L 251.283485 -131.738941 
L 251.980567 -133.070557 
L 252.71007 -134.402173 
L 253.466884 -135.733788 
L 254.245858 -137.065404 
L 255.041876 -138.39702 
L 255.849934 -139.728635 
L 256.66521 -141.060251 
L 257.483127 -142.391867 
L 258.29941 -143.723482 
L 259.110128 -145.055098 
L 259.911739 -146.386714 
L 260.701111 -147.718329 
L 261.475542 -149.049945 
L 262.232768 -150.381561 
L 262.970959 -151.713176 
L 263.68871 -153.044792 
L 264.385018 -154.376408 
L 265.05926 -155.708023 
L 265.711152 -157.039639 
L 266.340718 -158.371255 
L 266.948241 -159.70287 
L 267.534223 -161.034486 
L 268.099334 -162.366102 
L 268.644368 -163.697717 
L 269.170203 -165.029333 
L 269.677749 -166.360949 
L 270.16792 -167.692564 
L 270.641596 -169.02418 
L 271.099594 -170.355796 
L 286.949771 -170.355796 
L 286.949771 -170.355796 
L 287.407769 -169.02418 
L 287.881445 -167.692564 
L 288.371616 -166.360949 
L 288.879162 -165.029333 
L 289.404997 -163.697717 
L 289.950031 -162.366102 
L 290.515142 -161.034486 
L 291.101124 -159.70287 
L 291.708647 -158.371255 
L 292.338213 -157.039639 
L 292.990105 -155.708023 
L 293.664347 -154.376408 
L 294.360655 -153.044792 
L 295.078406 -151.713176 
L 295.816597 -150.381561 
L 296.573823 -149.049945 
L 297.348254 -147.718329 
L 298.137626 -146.386714 
L 298.939237 -145.055098 
L 299.749955 -143.723482 
L 300.566237 -142.391867 
L 301.384155 -141.060251 
L 302.199431 -139.728635 
L 303.007489 -138.39702 
L 303.803507 -137.065404 
L 304.582481 -135.733788 
L 305.339295 -134.402173 
L 306.068798 -133.070557 
L 306.76588 -131.738941 
L 307.42556 -130.407326 
L 308.043065 -129.07571 
L 308.613914 -127.744094 
L 309.134 -126.412479 
L 309.599665 -125.080863 
L 310.007771 -123.749247 
L 310.355768 -122.417632 
L 310.641743 -121.086016 
L 310.864477 -119.7544 
L 311.023472 -118.422785 
L 311.118986 -117.091169 
L 311.152041 -115.759553 
L 311.12443 -114.427938 
L 311.03871 -113.096322 
L 310.898178 -111.764706 
L 310.706846 -110.433091 
L 310.469398 -109.101475 
L 310.191141 -107.769859 
L 309.877948 -106.438244 
L 309.53619 -105.106628 
L 309.172666 -103.775012 
L 308.794524 -102.443397 
L 308.409178 -101.111781 
L 308.024221 -99.780165 
L 307.647334 -98.44855 
L 307.286197 -97.116934 
L 306.948387 -95.785318 
L 306.641288 -94.453703 
L 306.37199 -93.122087 
L 306.147191 -91.790471 
L 305.973097 -90.458856 
L 305.855326 -89.12724 
L 305.798807 -87.795624 
L 305.807692 -86.464009 
L 305.885255 -85.132393 
L 306.033814 -83.800777 
L 306.254648 -82.469162 
L 306.547925 -81.137546 
L 306.912648 -79.80593 
L 307.346599 -78.474315 
L 307.846322 -77.142699 
L 308.407098 -75.811083 
L 309.022966 -74.479468 
L 309.686747 -73.147852 
L 310.3901 -71.816236 
L 311.123608 -70.484621 
L 311.876882 -69.153005 
L 312.638692 -67.821389 
L 313.397123 -66.489774 
L 314.139754 -65.158158 
L 314.853857 -63.826542 
L 315.526606 -62.494927 
L 316.145302 -61.163311 
L 316.697605 -59.831695 
L 317.171761 -58.50008 
L 317.556831 -57.168464 
L 317.8429 -55.836848 
L 318.02128 -54.505233 
L 318.084682 -53.173617 
L 318.027365 -51.842001 
L 317.84525 -50.510386 
L 317.536006 -49.17877 
L 317.099092 -47.847154 
L 316.535763 -46.515539 
L 315.84904 -45.183923 
L 315.043637 -43.852307 
L 314.125862 -42.520692 
L 313.103473 -41.189076 
L 311.985517 -39.85746 
L 310.782142 -38.525845 
z
" style="stroke: #333333"/>
    </defs>
    <g clip-path="url(#p153969141b)">
     <use xlink:href="#m752c588d52" x="0" y="181.040845" style="fill: #2f7b3c; stroke: #333333"/>
    </g>
   </g>
   <g id="PathCollection_3">
    <g clip-path="url(#p153969141b)">
     <use xlink:href="#m6cfe31d8f5" x="279.024682" y="132.768856" style="fill: #333333; stroke: #333333"/>
     <use xlink:href="#m6cfe31d8f5" x="279.024682" y="96.667299" style="fill: #333333; stroke: #333333"/>
     <use xlink:href="#m6cfe31d8f5" x="279.024682" y="74.979587" style="fill: #333333; stroke: #333333"/>
     <use xlink:href="#m6cfe31d8f5" x="279.024682" y="77.961736" style="fill: #333333; stroke: #333333"/>
     <use xlink:href="#m6cfe31d8f5" x="279.024682" y="142.515" style="fill: #333333; stroke: #333333"/>
     <use xlink:href="#m6cfe31d8f5" x="279.024682" y="140.005172" style="fill: #333333; stroke: #333333"/>
     <use xlink:href="#m6cfe31d8f5" x="279.024682" y="133.2222" style="fill: #333333; stroke: #333333"/>
     <use xlink:href="#m6cfe31d8f5" x="279.024682" y="55.381954" style="fill: #333333; stroke: #333333"/>
     <use xlink:href="#m6cfe31d8f5" x="279.024682" y="100.021971" style="fill: #333333; stroke: #333333"/>
     <use xlink:href="#m6cfe31d8f5" x="279.024682" y="135.879896" style="fill: #333333; stroke: #333333"/>
     <use xlink:href="#m6cfe31d8f5" x="279.024682" y="79.709301" style="fill: #333333; stroke: #333333"/>
     <use xlink:href="#m6cfe31d8f5" x="279.024682" y="44.63969" style="fill: #333333; stroke: #333333"/>
     <use xlink:href="#m6cfe31d8f5" x="279.024682" y="67.302617" style="fill: #333333; stroke: #333333"/>
     <use xlink:href="#m6cfe31d8f5" x="279.024682" y="128.366447" style="fill: #333333; stroke: #333333"/>
     <use xlink:href="#m6cfe31d8f5" x="279.024682" y="124.783908" style="fill: #333333; stroke: #333333"/>
     <use xlink:href="#m6cfe31d8f5" x="279.024682" y="120.4483" style="fill: #333333; stroke: #333333"/>
     <use xlink:href="#m6cfe31d8f5" x="279.024682" y="134.298099" style="fill: #333333; stroke: #333333"/>
     <use xlink:href="#m6cfe31d8f5" x="279.024682" y="64.576229" style="fill: #333333; stroke: #333333"/>
     <use xlink:href="#m6cfe31d8f5" x="279.024682" y="126.213077" style="fill: #333333; stroke: #333333"/>
     <use xlink:href="#m6cfe31d8f5" x="279.024682" y="55.875249" style="fill: #333333; stroke: #333333"/>
     <use xlink:href="#m6cfe31d8f5" x="279.024682" y="68.297794" style="fill: #333333; stroke: #333333"/>
     <use xlink:href="#m6cfe31d8f5" x="279.024682" y="46.176833" style="fill: #333333; stroke: #333333"/>
     <use xlink:href="#m6cfe31d8f5" x="279.024682" y="39.293298" style="fill: #333333; stroke: #333333"/>
     <use xlink:href="#m6cfe31d8f5" x="279.024682" y="135.961379" style="fill: #333333; stroke: #333333"/>
     <use xlink:href="#m6cfe31d8f5" x="279.024682" y="64.604086" style="fill: #333333; stroke: #333333"/>
     <use xlink:href="#m6cfe31d8f5" x="279.024682" y="126.581459" style="fill: #333333; stroke: #333333"/>
     <use xlink:href="#m6cfe31d8f5" x="279.024682" y="126.253336" style="fill: #333333; stroke: #333333"/>
     <use xlink:href="#m6cfe31d8f5" x="279.024682" y="21.754807" style="fill: #333333; stroke: #333333"/>
     <use xlink:href="#m6cfe31d8f5" x="279.024682" y="10.685049" style="fill: #333333; stroke: #333333"/>
     <use xlink:href="#m6cfe31d8f5" x="279.024682" y="125.432585" style="fill: #333333; stroke: #333333"/>
     <use xlink:href="#m6cfe31d8f5" x="279.024682" y="58.336435" style="fill: #333333; stroke: #333333"/>
     <use xlink:href="#m6cfe31d8f5" x="279.024682" y="95.802548" style="fill: #333333; stroke: #333333"/>
    </g>
   </g>
   <g id="patch_3">
    <path d="M 34.899682 149.13 
L 34.899682 3.6 
" style="fill: none; stroke: #000000; stroke-width: 0.5; stroke-linejoin: miter; stroke-linecap: square"/>
   </g>
   <g id="patch_4">
    <path d="M 327.849682 149.13 
L 327.849682 3.6 
" style="fill: none; stroke: #000000; stroke-width: 0.5; stroke-linejoin: miter; stroke-linecap: square"/>
   </g>
   <g id="patch_5">
    <path d="M 34.899682 149.13 
L 327.849682 149.13 
" style="fill: none; stroke: #000000; stroke-width: 0.5; stroke-linejoin: miter; stroke-linecap: square"/>
   </g>
   <g id="patch_6">
    <path d="M 34.899682 3.6 
L 327.849682 3.6 
" style="fill: none; stroke: #000000; stroke-width: 0.5; stroke-linejoin: miter; stroke-linecap: square"/>
   </g>
  </g>
 </g>
 <defs>
  <clipPath id="p153969141b">
   <rect x="34.899682" y="3.6" width="292.95" height="145.53"/>
  </clipPath>
 </defs>
</svg>
