<?xml version="1.0" encoding="utf-8" standalone="no"?>
<!DOCTYPE svg PUBLIC "-//W3C//DTD SVG 1.1//EN"
  "http://www.w3.org/Graphics/SVG/1.1/DTD/svg11.dtd">
<svg xmlns:xlink="http://www.w3.org/1999/xlink" width="248.259352pt" height="184.500094pt" viewBox="0 0 248.259352 184.500094" xmlns="http://www.w3.org/2000/svg" version="1.1">
 <metadata>
  <rdf:RDF xmlns:dc="http://purl.org/dc/elements/1.1/" xmlns:cc="http://creativecommons.org/ns#" xmlns:rdf="http://www.w3.org/1999/02/22-rdf-syntax-ns#">
   <cc:Work>
    <dc:type rdf:resource="http://purl.org/dc/dcmitype/StillImage"/>
    <dc:date>2025-10-01T12:29:32.295378</dc:date>
    <dc:format>image/svg+xml</dc:format>
    <dc:creator>
     <cc:Agent>
      <dc:title>Matplotlib v3.6.3, https://matplotlib.org/</dc:title>
     </cc:Agent>
    </dc:creator>
   </cc:Work>
  </rdf:RDF>
 </metadata>
 <defs>
  <style type="text/css">*{stroke-linejoin: round; stroke-linecap: butt}</style>
 </defs>
 <g id="figure_1">
  <g id="patch_1">
   <path d="M 0 184.500094 
L 248.259352 184.500094 
L 248.259352 0 
L 0 0 
L 0 184.500094 
z
" style="fill: none"/>
  </g>
  <g id="axes_1">
   <g id="patch_2">
    <path d="M 41.887349 152.589249 
L 237.187349 152.589249 
L 237.187349 7.059249 
L 41.887349 7.059249 
L 41.887349 152.589249 
z
" style="fill: none"/>
   </g>
   <g id="matplotlib.axis_1">
    <g id="xtick_1">
     <g id="line2d_1">
      <defs>
       <path id="mcd6210f9c3" d="M 0 0 
L 0 -3 
" style="stroke: #000000; stroke-width: 0.5"/>
      </defs>
      <g>
       <use xlink:href="#mcd6210f9c3" x="41.887349" y="152.589249" style="stroke: #000000; stroke-width: 0.5"/>
      </g>
     </g>
     <g id="line2d_2">
      <defs>
       <path id="m831a9cf6b5" d="M 0 0 
L 0 3 
" style="stroke: #000000; stroke-width: 0.5"/>
      </defs>
      <g>
       <use xlink:href="#m831a9cf6b5" x="41.887349" y="7.059249" style="stroke: #000000; stroke-width: 0.5"/>
      </g>
     </g>
     <g id="text_1">
      <!-- $\mathdefault{0}$ -->
      <g transform="translate(39.396681 163.007748) scale(0.1 -0.1)">
       <defs>
        <path id="CMR17-30" d="M 2688 2038 
C 2688 2430 2682 3099 2413 3613 
C 2176 4063 1798 4224 1466 4224 
C 1158 4224 768 4082 525 3620 
C 269 3137 243 2539 243 2038 
C 243 1671 250 1112 448 623 
C 723 -39 1216 -128 1466 -128 
C 1760 -128 2208 -7 2470 604 
C 2662 1048 2688 1568 2688 2038 
z
M 1466 -26 
C 1056 -26 813 328 723 816 
C 653 1196 653 1749 653 2109 
C 653 2604 653 3015 736 3407 
C 858 3954 1216 4121 1466 4121 
C 1728 4121 2067 3947 2189 3420 
C 2272 3054 2278 2623 2278 2109 
C 2278 1691 2278 1176 2202 797 
C 2067 96 1690 -26 1466 -26 
z
" transform="scale(0.015625)"/>
       </defs>
       <use xlink:href="#CMR17-30" transform="scale(0.996264)"/>
      </g>
     </g>
    </g>
    <g id="xtick_2">
     <g id="line2d_3">
      <g>
       <use xlink:href="#mcd6210f9c3" x="90.712349" y="152.589249" style="stroke: #000000; stroke-width: 0.5"/>
      </g>
     </g>
     <g id="line2d_4">
      <g>
       <use xlink:href="#m831a9cf6b5" x="90.712349" y="7.059249" style="stroke: #000000; stroke-width: 0.5"/>
      </g>
     </g>
     <g id="text_2">
      <!-- $\mathdefault{100}$ -->
      <g transform="translate(83.240346 163.007748) scale(0.1 -0.1)">
       <defs>
        <path id="CMR17-31" d="M 1702 4083 
C 1702 4217 1696 4224 1606 4224 
C 1357 3927 979 3833 621 3820 
C 602 3820 570 3820 563 3808 
C 557 3795 557 3782 557 3648 
C 755 3648 1088 3686 1344 3839 
L 1344 467 
C 1344 243 1331 166 781 166 
L 589 166 
L 589 0 
C 896 6 1216 12 1523 12 
C 1830 12 2150 6 2458 0 
L 2458 166 
L 2266 166 
C 1715 166 1702 236 1702 467 
L 1702 4083 
z
" transform="scale(0.015625)"/>
       </defs>
       <use xlink:href="#CMR17-31" transform="scale(0.996264)"/>
       <use xlink:href="#CMR17-30" transform="translate(45.690477 0) scale(0.996264)"/>
       <use xlink:href="#CMR17-30" transform="translate(91.380954 0) scale(0.996264)"/>
      </g>
     </g>
    </g>
    <g id="xtick_3">
     <g id="line2d_5">
      <g>
       <use xlink:href="#mcd6210f9c3" x="139.537349" y="152.589249" style="stroke: #000000; stroke-width: 0.5"/>
      </g>
     </g>
     <g id="line2d_6">
      <g>
       <use xlink:href="#m831a9cf6b5" x="139.537349" y="7.059249" style="stroke: #000000; stroke-width: 0.5"/>
      </g>
     </g>
     <g id="text_3">
      <!-- $\mathdefault{200}$ -->
      <g transform="translate(132.065346 163.007748) scale(0.1 -0.1)">
       <defs>
        <path id="CMR17-32" d="M 2669 990 
L 2554 990 
C 2490 537 2438 460 2413 422 
C 2381 371 1920 371 1830 371 
L 602 371 
C 832 620 1280 1073 1824 1596 
C 2214 1966 2669 2400 2669 3033 
C 2669 3788 2067 4224 1395 4224 
C 691 4224 262 3603 262 3027 
C 262 2777 448 2745 525 2745 
C 589 2745 781 2783 781 3007 
C 781 3206 614 3264 525 3264 
C 486 3264 448 3257 422 3244 
C 544 3788 915 4057 1306 4057 
C 1862 4057 2227 3616 2227 3033 
C 2227 2477 1901 1998 1536 1583 
L 262 147 
L 262 0 
L 2515 0 
L 2669 990 
z
" transform="scale(0.015625)"/>
       </defs>
       <use xlink:href="#CMR17-32" transform="scale(0.996264)"/>
       <use xlink:href="#CMR17-30" transform="translate(45.690477 0) scale(0.996264)"/>
       <use xlink:href="#CMR17-30" transform="translate(91.380954 0) scale(0.996264)"/>
      </g>
     </g>
    </g>
    <g id="xtick_4">
     <g id="line2d_7">
      <g>
       <use xlink:href="#mcd6210f9c3" x="188.362349" y="152.589249" style="stroke: #000000; stroke-width: 0.5"/>
      </g>
     </g>
     <g id="line2d_8">
      <g>
       <use xlink:href="#m831a9cf6b5" x="188.362349" y="7.059249" style="stroke: #000000; stroke-width: 0.5"/>
      </g>
     </g>
     <g id="text_4">
      <!-- $\mathdefault{300}$ -->
      <g transform="translate(180.890346 163.007748) scale(0.1 -0.1)">
       <defs>
        <path id="CMR17-33" d="M 1414 2176 
C 1984 2176 2234 1673 2234 1094 
C 2234 322 1824 25 1453 25 
C 1114 25 563 193 390 691 
C 422 678 454 678 486 678 
C 640 678 755 780 755 947 
C 755 1132 614 1216 486 1216 
C 378 1216 211 1164 211 927 
C 211 335 787 -128 1466 -128 
C 2176 -128 2720 432 2720 1087 
C 2720 1718 2208 2176 1600 2246 
C 2086 2347 2554 2776 2554 3353 
C 2554 3856 2048 4224 1472 4224 
C 890 4224 378 3862 378 3347 
C 378 3123 544 3084 627 3084 
C 762 3084 877 3167 877 3334 
C 877 3500 762 3584 627 3584 
C 602 3584 570 3584 544 3571 
C 730 3999 1235 4076 1459 4076 
C 1683 4076 2106 3966 2106 3347 
C 2106 3167 2080 2851 1862 2574 
C 1670 2329 1453 2316 1242 2297 
C 1210 2297 1062 2284 1037 2284 
C 992 2278 966 2272 966 2227 
C 966 2182 973 2176 1101 2176 
L 1414 2176 
z
" transform="scale(0.015625)"/>
       </defs>
       <use xlink:href="#CMR17-33" transform="scale(0.996264)"/>
       <use xlink:href="#CMR17-30" transform="translate(45.690477 0) scale(0.996264)"/>
       <use xlink:href="#CMR17-30" transform="translate(91.380954 0) scale(0.996264)"/>
      </g>
     </g>
    </g>
    <g id="xtick_5">
     <g id="line2d_9">
      <g>
       <use xlink:href="#mcd6210f9c3" x="237.187349" y="152.589249" style="stroke: #000000; stroke-width: 0.5"/>
      </g>
     </g>
     <g id="line2d_10">
      <g>
       <use xlink:href="#m831a9cf6b5" x="237.187349" y="7.059249" style="stroke: #000000; stroke-width: 0.5"/>
      </g>
     </g>
     <g id="text_5">
      <!-- $\mathdefault{400}$ -->
      <g transform="translate(229.715346 163.007748) scale(0.1 -0.1)">
       <defs>
        <path id="CMR17-34" d="M 2150 4147 
C 2150 4281 2144 4288 2029 4288 
L 128 1254 
L 128 1088 
L 1779 1088 
L 1779 460 
C 1779 230 1766 166 1318 166 
L 1197 166 
L 1197 0 
C 1402 12 1747 12 1965 12 
C 2182 12 2528 12 2733 0 
L 2733 166 
L 2611 166 
C 2163 166 2150 230 2150 460 
L 2150 1088 
L 2803 1088 
L 2803 1254 
L 2150 1254 
L 2150 4147 
z
M 1798 3723 
L 1798 1254 
L 256 1254 
L 1798 3723 
z
" transform="scale(0.015625)"/>
       </defs>
       <use xlink:href="#CMR17-34" transform="scale(0.996264)"/>
       <use xlink:href="#CMR17-30" transform="translate(45.690477 0) scale(0.996264)"/>
       <use xlink:href="#CMR17-30" transform="translate(91.380954 0) scale(0.996264)"/>
      </g>
     </g>
    </g>
    <g id="xtick_6">
     <g id="line2d_11">
      <defs>
       <path id="m4e9e07cd5a" d="M 0 0 
L 0 -1.5 
" style="stroke: #000000; stroke-width: 0.5"/>
      </defs>
      <g>
       <use xlink:href="#m4e9e07cd5a" x="51.652349" y="152.589249" style="stroke: #000000; stroke-width: 0.5"/>
      </g>
     </g>
     <g id="line2d_12">
      <defs>
       <path id="m9c6ef9d7f7" d="M 0 0 
L 0 1.5 
" style="stroke: #000000; stroke-width: 0.5"/>
      </defs>
      <g>
       <use xlink:href="#m9c6ef9d7f7" x="51.652349" y="7.059249" style="stroke: #000000; stroke-width: 0.5"/>
      </g>
     </g>
    </g>
    <g id="xtick_7">
     <g id="line2d_13">
      <g>
       <use xlink:href="#m4e9e07cd5a" x="61.417349" y="152.589249" style="stroke: #000000; stroke-width: 0.5"/>
      </g>
     </g>
     <g id="line2d_14">
      <g>
       <use xlink:href="#m9c6ef9d7f7" x="61.417349" y="7.059249" style="stroke: #000000; stroke-width: 0.5"/>
      </g>
     </g>
    </g>
    <g id="xtick_8">
     <g id="line2d_15">
      <g>
       <use xlink:href="#m4e9e07cd5a" x="71.182349" y="152.589249" style="stroke: #000000; stroke-width: 0.5"/>
      </g>
     </g>
     <g id="line2d_16">
      <g>
       <use xlink:href="#m9c6ef9d7f7" x="71.182349" y="7.059249" style="stroke: #000000; stroke-width: 0.5"/>
      </g>
     </g>
    </g>
    <g id="xtick_9">
     <g id="line2d_17">
      <g>
       <use xlink:href="#m4e9e07cd5a" x="80.947349" y="152.589249" style="stroke: #000000; stroke-width: 0.5"/>
      </g>
     </g>
     <g id="line2d_18">
      <g>
       <use xlink:href="#m9c6ef9d7f7" x="80.947349" y="7.059249" style="stroke: #000000; stroke-width: 0.5"/>
      </g>
     </g>
    </g>
    <g id="xtick_10">
     <g id="line2d_19">
      <g>
       <use xlink:href="#m4e9e07cd5a" x="100.477349" y="152.589249" style="stroke: #000000; stroke-width: 0.5"/>
      </g>
     </g>
     <g id="line2d_20">
      <g>
       <use xlink:href="#m9c6ef9d7f7" x="100.477349" y="7.059249" style="stroke: #000000; stroke-width: 0.5"/>
      </g>
     </g>
    </g>
    <g id="xtick_11">
     <g id="line2d_21">
      <g>
       <use xlink:href="#m4e9e07cd5a" x="110.242349" y="152.589249" style="stroke: #000000; stroke-width: 0.5"/>
      </g>
     </g>
     <g id="line2d_22">
      <g>
       <use xlink:href="#m9c6ef9d7f7" x="110.242349" y="7.059249" style="stroke: #000000; stroke-width: 0.5"/>
      </g>
     </g>
    </g>
    <g id="xtick_12">
     <g id="line2d_23">
      <g>
       <use xlink:href="#m4e9e07cd5a" x="120.007349" y="152.589249" style="stroke: #000000; stroke-width: 0.5"/>
      </g>
     </g>
     <g id="line2d_24">
      <g>
       <use xlink:href="#m9c6ef9d7f7" x="120.007349" y="7.059249" style="stroke: #000000; stroke-width: 0.5"/>
      </g>
     </g>
    </g>
    <g id="xtick_13">
     <g id="line2d_25">
      <g>
       <use xlink:href="#m4e9e07cd5a" x="129.772349" y="152.589249" style="stroke: #000000; stroke-width: 0.5"/>
      </g>
     </g>
     <g id="line2d_26">
      <g>
       <use xlink:href="#m9c6ef9d7f7" x="129.772349" y="7.059249" style="stroke: #000000; stroke-width: 0.5"/>
      </g>
     </g>
    </g>
    <g id="xtick_14">
     <g id="line2d_27">
      <g>
       <use xlink:href="#m4e9e07cd5a" x="149.302349" y="152.589249" style="stroke: #000000; stroke-width: 0.5"/>
      </g>
     </g>
     <g id="line2d_28">
      <g>
       <use xlink:href="#m9c6ef9d7f7" x="149.302349" y="7.059249" style="stroke: #000000; stroke-width: 0.5"/>
      </g>
     </g>
    </g>
    <g id="xtick_15">
     <g id="line2d_29">
      <g>
       <use xlink:href="#m4e9e07cd5a" x="159.067349" y="152.589249" style="stroke: #000000; stroke-width: 0.5"/>
      </g>
     </g>
     <g id="line2d_30">
      <g>
       <use xlink:href="#m9c6ef9d7f7" x="159.067349" y="7.059249" style="stroke: #000000; stroke-width: 0.5"/>
      </g>
     </g>
    </g>
    <g id="xtick_16">
     <g id="line2d_31">
      <g>
       <use xlink:href="#m4e9e07cd5a" x="168.832349" y="152.589249" style="stroke: #000000; stroke-width: 0.5"/>
      </g>
     </g>
     <g id="line2d_32">
      <g>
       <use xlink:href="#m9c6ef9d7f7" x="168.832349" y="7.059249" style="stroke: #000000; stroke-width: 0.5"/>
      </g>
     </g>
    </g>
    <g id="xtick_17">
     <g id="line2d_33">
      <g>
       <use xlink:href="#m4e9e07cd5a" x="178.597349" y="152.589249" style="stroke: #000000; stroke-width: 0.5"/>
      </g>
     </g>
     <g id="line2d_34">
      <g>
       <use xlink:href="#m9c6ef9d7f7" x="178.597349" y="7.059249" style="stroke: #000000; stroke-width: 0.5"/>
      </g>
     </g>
    </g>
    <g id="xtick_18">
     <g id="line2d_35">
      <g>
       <use xlink:href="#m4e9e07cd5a" x="198.127349" y="152.589249" style="stroke: #000000; stroke-width: 0.5"/>
      </g>
     </g>
     <g id="line2d_36">
      <g>
       <use xlink:href="#m9c6ef9d7f7" x="198.127349" y="7.059249" style="stroke: #000000; stroke-width: 0.5"/>
      </g>
     </g>
    </g>
    <g id="xtick_19">
     <g id="line2d_37">
      <g>
       <use xlink:href="#m4e9e07cd5a" x="207.892349" y="152.589249" style="stroke: #000000; stroke-width: 0.5"/>
      </g>
     </g>
     <g id="line2d_38">
      <g>
       <use xlink:href="#m9c6ef9d7f7" x="207.892349" y="7.059249" style="stroke: #000000; stroke-width: 0.5"/>
      </g>
     </g>
    </g>
    <g id="xtick_20">
     <g id="line2d_39">
      <g>
       <use xlink:href="#m4e9e07cd5a" x="217.657349" y="152.589249" style="stroke: #000000; stroke-width: 0.5"/>
      </g>
     </g>
     <g id="line2d_40">
      <g>
       <use xlink:href="#m9c6ef9d7f7" x="217.657349" y="7.059249" style="stroke: #000000; stroke-width: 0.5"/>
      </g>
     </g>
    </g>
    <g id="xtick_21">
     <g id="line2d_41">
      <g>
       <use xlink:href="#m4e9e07cd5a" x="227.422349" y="152.589249" style="stroke: #000000; stroke-width: 0.5"/>
      </g>
     </g>
     <g id="line2d_42">
      <g>
       <use xlink:href="#m9c6ef9d7f7" x="227.422349" y="7.059249" style="stroke: #000000; stroke-width: 0.5"/>
      </g>
     </g>
    </g>
    <g id="text_6">
     <!-- $f$ [MHz] -->
     <g transform="translate(118.45931 177.911302) scale(0.12 -0.12)">
      <defs>
       <path id="CMMI12-66" d="M 2854 2566 
C 2982 2566 3034 2566 3034 2687 
C 3034 2752 2982 2752 2867 2752 
L 2349 2752 
C 2470 3398 2560 3846 2611 4051 
C 2650 4204 2784 4351 2950 4351 
C 3085 4351 3219 4294 3283 4236 
C 3034 4211 2957 4025 2957 3916 
C 2957 3788 3053 3712 3174 3712 
C 3302 3712 3494 3820 3494 4064 
C 3494 4332 3226 4480 2944 4480 
C 2669 4480 2400 4275 2272 4025 
C 2157 3801 2093 3573 1946 2752 
L 1517 2752 
C 1395 2752 1331 2752 1331 2636 
C 1331 2566 1370 2566 1498 2566 
L 1907 2566 
C 1792 1977 1530 545 1382 -132 
C 1274 -685 1178 -1152 858 -1152 
C 838 -1152 653 -1152 538 -1031 
C 864 -1005 864 -724 864 -717 
C 864 -589 768 -512 646 -512 
C 518 -512 326 -621 326 -865 
C 326 -1140 608 -1280 858 -1280 
C 1510 -1280 1779 -113 1850 203 
C 1965 691 2278 2376 2310 2566 
L 2854 2566 
z
" transform="scale(0.015625)"/>
       <path id="CMR17-5b" d="M 1504 -1600 
L 1504 -1376 
L 902 -1376 
L 902 4575 
L 1504 4575 
L 1504 4800 
L 678 4800 
L 678 -1600 
L 1504 -1600 
z
" transform="scale(0.015625)"/>
       <path id="CMR17-4d" d="M 1338 4249 
C 1299 4345 1293 4352 1158 4352 
L 339 4352 
L 339 4185 
C 781 4185 851 4185 851 3898 
L 851 624 
C 851 465 851 166 339 166 
L 339 0 
C 486 12 755 12 915 12 
C 1075 12 1344 12 1491 0 
L 1491 166 
C 979 166 979 465 979 624 
L 979 4159 
L 986 4159 
L 2490 102 
C 2515 38 2528 0 2579 0 
C 2630 0 2643 38 2669 102 
L 4186 4191 
L 4192 4191 
L 4192 453 
C 4192 166 4122 166 3680 166 
L 3680 0 
C 3853 12 4198 12 4384 12 
C 4570 12 4922 12 5094 0 
L 5094 166 
C 4653 166 4582 166 4582 453 
L 4582 3898 
C 4582 4185 4653 4185 5094 4185 
L 5094 4352 
L 4282 4352 
C 4147 4352 4141 4345 4102 4249 
L 2720 516 
L 1338 4249 
z
" transform="scale(0.015625)"/>
       <path id="CMR17-48" d="M 3590 3898 
C 3590 4185 3661 4185 4102 4185 
L 4102 4352 
C 3917 4339 3578 4339 3379 4339 
C 3181 4339 2842 4339 2656 4352 
L 2656 4185 
C 3098 4185 3168 4185 3168 3898 
L 3168 2342 
L 1261 2342 
L 1261 3898 
C 1261 4185 1331 4185 1773 4185 
L 1773 4352 
C 1587 4339 1248 4339 1050 4339 
C 851 4339 512 4339 326 4352 
L 326 4185 
C 768 4185 838 4185 838 3898 
L 838 452 
C 838 166 768 166 326 166 
L 326 0 
C 512 12 851 12 1050 12 
C 1248 12 1587 12 1773 0 
L 1773 166 
C 1331 166 1261 166 1261 452 
L 1261 2176 
L 3168 2176 
L 3168 452 
C 3168 166 3098 166 2656 166 
L 2656 0 
C 2842 12 3181 12 3379 12 
C 3578 12 3917 12 4102 0 
L 4102 166 
C 3661 166 3590 166 3590 452 
L 3590 3898 
z
" transform="scale(0.015625)"/>
       <path id="CMR17-7a" d="M 2310 2604 
C 2362 2668 2362 2681 2362 2694 
C 2362 2752 2336 2752 2221 2752 
L 275 2752 
L 211 1760 
L 326 1760 
C 371 2380 442 2649 1178 2649 
L 1958 2649 
L 128 96 
C 128 6 134 0 269 0 
L 2291 0 
L 2381 1152 
L 2266 1152 
C 2214 441 2131 115 1350 115 
L 531 115 
L 2310 2604 
z
" transform="scale(0.015625)"/>
       <path id="CMR17-5d" d="M 915 4800 
L 90 4800 
L 90 4575 
L 691 4575 
L 691 -1376 
L 90 -1376 
L 90 -1600 
L 915 -1600 
L 915 4800 
z
" transform="scale(0.015625)"/>
      </defs>
      <use xlink:href="#CMMI12-66" transform="scale(0.996264)"/>
      <use xlink:href="#CMR17-5b" transform="translate(88.796271 0) scale(0.996264)"/>
      <use xlink:href="#CMR17-4d" transform="translate(113.66733 0) scale(0.996264)"/>
      <use xlink:href="#CMR17-48" transform="translate(198.35427 0) scale(0.996264)"/>
      <use xlink:href="#CMR17-7a" transform="translate(267.4267 0) scale(0.996264)"/>
      <use xlink:href="#CMR17-5d" transform="translate(307.912361 0) scale(0.996264)"/>
     </g>
    </g>
   </g>
   <g id="matplotlib.axis_2">
    <g id="ytick_1">
     <g id="line2d_43">
      <defs>
       <path id="m6f0171de2d" d="M 0 0 
L 3 0 
" style="stroke: #000000; stroke-width: 0.5"/>
      </defs>
      <g>
       <use xlink:href="#m6f0171de2d" x="41.887349" y="152.589249" style="stroke: #000000; stroke-width: 0.5"/>
      </g>
     </g>
     <g id="line2d_44">
      <defs>
       <path id="m30c1be7f3d" d="M 0 0 
L -3 0 
" style="stroke: #000000; stroke-width: 0.5"/>
      </defs>
      <g>
       <use xlink:href="#m30c1be7f3d" x="237.187349" y="152.589249" style="stroke: #000000; stroke-width: 0.5"/>
      </g>
     </g>
     <g id="text_7">
      <!-- $\mathdefault{10^{-4}}$ -->
      <g transform="translate(18.226776 156.048498) scale(0.1 -0.1)">
       <defs>
        <path id="CMSY10-0" d="M 4218 1472 
C 4326 1472 4442 1472 4442 1600 
C 4442 1728 4326 1728 4218 1728 
L 755 1728 
C 646 1728 531 1728 531 1600 
C 531 1472 646 1472 755 1472 
L 4218 1472 
z
" transform="scale(0.015625)"/>
       </defs>
       <use xlink:href="#CMR17-31" transform="scale(0.996264)"/>
       <use xlink:href="#CMR17-30" transform="translate(45.690477 0) scale(0.996264)"/>
       <use xlink:href="#CMSY10-0" transform="translate(91.380954 36.153639) scale(0.697382)"/>
       <use xlink:href="#CMR17-34" transform="translate(145.621947 36.153639) scale(0.697382)"/>
      </g>
     </g>
    </g>
    <g id="ytick_2">
     <g id="line2d_45">
      <g>
       <use xlink:href="#m6f0171de2d" x="41.887349" y="123.483249" style="stroke: #000000; stroke-width: 0.5"/>
      </g>
     </g>
     <g id="line2d_46">
      <g>
       <use xlink:href="#m30c1be7f3d" x="237.187349" y="123.483249" style="stroke: #000000; stroke-width: 0.5"/>
      </g>
     </g>
     <g id="text_8">
      <!-- $\mathdefault{10^{-3}}$ -->
      <g transform="translate(18.226776 126.942498) scale(0.1 -0.1)">
       <use xlink:href="#CMR17-31" transform="scale(0.996264)"/>
       <use xlink:href="#CMR17-30" transform="translate(45.690477 0) scale(0.996264)"/>
       <use xlink:href="#CMSY10-0" transform="translate(91.380954 36.153639) scale(0.697382)"/>
       <use xlink:href="#CMR17-33" transform="translate(145.621947 36.153639) scale(0.697382)"/>
      </g>
     </g>
    </g>
    <g id="ytick_3">
     <g id="line2d_47">
      <g>
       <use xlink:href="#m6f0171de2d" x="41.887349" y="94.377249" style="stroke: #000000; stroke-width: 0.5"/>
      </g>
     </g>
     <g id="line2d_48">
      <g>
       <use xlink:href="#m30c1be7f3d" x="237.187349" y="94.377249" style="stroke: #000000; stroke-width: 0.5"/>
      </g>
     </g>
     <g id="text_9">
      <!-- $\mathdefault{10^{-2}}$ -->
      <g transform="translate(18.226776 97.836498) scale(0.1 -0.1)">
       <use xlink:href="#CMR17-31" transform="scale(0.996264)"/>
       <use xlink:href="#CMR17-30" transform="translate(45.690477 0) scale(0.996264)"/>
       <use xlink:href="#CMSY10-0" transform="translate(91.380954 36.153639) scale(0.697382)"/>
       <use xlink:href="#CMR17-32" transform="translate(145.621947 36.153639) scale(0.697382)"/>
      </g>
     </g>
    </g>
    <g id="ytick_4">
     <g id="line2d_49">
      <g>
       <use xlink:href="#m6f0171de2d" x="41.887349" y="65.271249" style="stroke: #000000; stroke-width: 0.5"/>
      </g>
     </g>
     <g id="line2d_50">
      <g>
       <use xlink:href="#m30c1be7f3d" x="237.187349" y="65.271249" style="stroke: #000000; stroke-width: 0.5"/>
      </g>
     </g>
     <g id="text_10">
      <!-- $\mathdefault{10^{-1}}$ -->
      <g transform="translate(18.226776 68.730498) scale(0.1 -0.1)">
       <use xlink:href="#CMR17-31" transform="scale(0.996264)"/>
       <use xlink:href="#CMR17-30" transform="translate(45.690477 0) scale(0.996264)"/>
       <use xlink:href="#CMSY10-0" transform="translate(91.380954 36.153639) scale(0.697382)"/>
       <use xlink:href="#CMR17-31" transform="translate(145.621947 36.153639) scale(0.697382)"/>
      </g>
     </g>
    </g>
    <g id="ytick_5">
     <g id="line2d_51">
      <g>
       <use xlink:href="#m6f0171de2d" x="41.887349" y="36.165249" style="stroke: #000000; stroke-width: 0.5"/>
      </g>
     </g>
     <g id="line2d_52">
      <g>
       <use xlink:href="#m30c1be7f3d" x="237.187349" y="36.165249" style="stroke: #000000; stroke-width: 0.5"/>
      </g>
     </g>
     <g id="text_11">
      <!-- $\mathdefault{10^{0}}$ -->
      <g transform="translate(24.453441 39.624498) scale(0.1 -0.1)">
       <use xlink:href="#CMR17-31" transform="scale(0.996264)"/>
       <use xlink:href="#CMR17-30" transform="translate(45.690477 0) scale(0.996264)"/>
       <use xlink:href="#CMR17-30" transform="translate(91.380954 36.153639) scale(0.697382)"/>
      </g>
     </g>
    </g>
    <g id="ytick_6">
     <g id="line2d_53">
      <g>
       <use xlink:href="#m6f0171de2d" x="41.887349" y="7.059249" style="stroke: #000000; stroke-width: 0.5"/>
      </g>
     </g>
     <g id="line2d_54">
      <g>
       <use xlink:href="#m30c1be7f3d" x="237.187349" y="7.059249" style="stroke: #000000; stroke-width: 0.5"/>
      </g>
     </g>
     <g id="text_12">
      <!-- $\mathdefault{10^{1}}$ -->
      <g transform="translate(24.453441 10.518498) scale(0.1 -0.1)">
       <use xlink:href="#CMR17-31" transform="scale(0.996264)"/>
       <use xlink:href="#CMR17-30" transform="translate(45.690477 0) scale(0.996264)"/>
       <use xlink:href="#CMR17-31" transform="translate(91.380954 36.153639) scale(0.697382)"/>
      </g>
     </g>
    </g>
    <g id="ytick_7">
     <g id="line2d_55">
      <defs>
       <path id="mbfe52b586e" d="M 0 0 
L 1.5 0 
" style="stroke: #000000; stroke-width: 0.5"/>
      </defs>
      <g>
       <use xlink:href="#mbfe52b586e" x="41.887349" y="143.82747" style="stroke: #000000; stroke-width: 0.5"/>
      </g>
     </g>
     <g id="line2d_56">
      <defs>
       <path id="m485d11d09a" d="M 0 0 
L -1.5 0 
" style="stroke: #000000; stroke-width: 0.5"/>
      </defs>
      <g>
       <use xlink:href="#m485d11d09a" x="237.187349" y="143.82747" style="stroke: #000000; stroke-width: 0.5"/>
      </g>
     </g>
    </g>
    <g id="ytick_8">
     <g id="line2d_57">
      <g>
       <use xlink:href="#mbfe52b586e" x="41.887349" y="138.702158" style="stroke: #000000; stroke-width: 0.5"/>
      </g>
     </g>
     <g id="line2d_58">
      <g>
       <use xlink:href="#m485d11d09a" x="237.187349" y="138.702158" style="stroke: #000000; stroke-width: 0.5"/>
      </g>
     </g>
    </g>
    <g id="ytick_9">
     <g id="line2d_59">
      <g>
       <use xlink:href="#mbfe52b586e" x="41.887349" y="135.065691" style="stroke: #000000; stroke-width: 0.5"/>
      </g>
     </g>
     <g id="line2d_60">
      <g>
       <use xlink:href="#m485d11d09a" x="237.187349" y="135.065691" style="stroke: #000000; stroke-width: 0.5"/>
      </g>
     </g>
    </g>
    <g id="ytick_10">
     <g id="line2d_61">
      <g>
       <use xlink:href="#mbfe52b586e" x="41.887349" y="132.245028" style="stroke: #000000; stroke-width: 0.5"/>
      </g>
     </g>
     <g id="line2d_62">
      <g>
       <use xlink:href="#m485d11d09a" x="237.187349" y="132.245028" style="stroke: #000000; stroke-width: 0.5"/>
      </g>
     </g>
    </g>
    <g id="ytick_11">
     <g id="line2d_63">
      <g>
       <use xlink:href="#mbfe52b586e" x="41.887349" y="129.940379" style="stroke: #000000; stroke-width: 0.5"/>
      </g>
     </g>
     <g id="line2d_64">
      <g>
       <use xlink:href="#m485d11d09a" x="237.187349" y="129.940379" style="stroke: #000000; stroke-width: 0.5"/>
      </g>
     </g>
    </g>
    <g id="ytick_12">
     <g id="line2d_65">
      <g>
       <use xlink:href="#mbfe52b586e" x="41.887349" y="127.991826" style="stroke: #000000; stroke-width: 0.5"/>
      </g>
     </g>
     <g id="line2d_66">
      <g>
       <use xlink:href="#m485d11d09a" x="237.187349" y="127.991826" style="stroke: #000000; stroke-width: 0.5"/>
      </g>
     </g>
    </g>
    <g id="ytick_13">
     <g id="line2d_67">
      <g>
       <use xlink:href="#mbfe52b586e" x="41.887349" y="126.303912" style="stroke: #000000; stroke-width: 0.5"/>
      </g>
     </g>
     <g id="line2d_68">
      <g>
       <use xlink:href="#m485d11d09a" x="237.187349" y="126.303912" style="stroke: #000000; stroke-width: 0.5"/>
      </g>
     </g>
    </g>
    <g id="ytick_14">
     <g id="line2d_69">
      <g>
       <use xlink:href="#mbfe52b586e" x="41.887349" y="124.815067" style="stroke: #000000; stroke-width: 0.5"/>
      </g>
     </g>
     <g id="line2d_70">
      <g>
       <use xlink:href="#m485d11d09a" x="237.187349" y="124.815067" style="stroke: #000000; stroke-width: 0.5"/>
      </g>
     </g>
    </g>
    <g id="ytick_15">
     <g id="line2d_71">
      <g>
       <use xlink:href="#mbfe52b586e" x="41.887349" y="114.72147" style="stroke: #000000; stroke-width: 0.5"/>
      </g>
     </g>
     <g id="line2d_72">
      <g>
       <use xlink:href="#m485d11d09a" x="237.187349" y="114.72147" style="stroke: #000000; stroke-width: 0.5"/>
      </g>
     </g>
    </g>
    <g id="ytick_16">
     <g id="line2d_73">
      <g>
       <use xlink:href="#mbfe52b586e" x="41.887349" y="109.596158" style="stroke: #000000; stroke-width: 0.5"/>
      </g>
     </g>
     <g id="line2d_74">
      <g>
       <use xlink:href="#m485d11d09a" x="237.187349" y="109.596158" style="stroke: #000000; stroke-width: 0.5"/>
      </g>
     </g>
    </g>
    <g id="ytick_17">
     <g id="line2d_75">
      <g>
       <use xlink:href="#mbfe52b586e" x="41.887349" y="105.959691" style="stroke: #000000; stroke-width: 0.5"/>
      </g>
     </g>
     <g id="line2d_76">
      <g>
       <use xlink:href="#m485d11d09a" x="237.187349" y="105.959691" style="stroke: #000000; stroke-width: 0.5"/>
      </g>
     </g>
    </g>
    <g id="ytick_18">
     <g id="line2d_77">
      <g>
       <use xlink:href="#mbfe52b586e" x="41.887349" y="103.139028" style="stroke: #000000; stroke-width: 0.5"/>
      </g>
     </g>
     <g id="line2d_78">
      <g>
       <use xlink:href="#m485d11d09a" x="237.187349" y="103.139028" style="stroke: #000000; stroke-width: 0.5"/>
      </g>
     </g>
    </g>
    <g id="ytick_19">
     <g id="line2d_79">
      <g>
       <use xlink:href="#mbfe52b586e" x="41.887349" y="100.834379" style="stroke: #000000; stroke-width: 0.5"/>
      </g>
     </g>
     <g id="line2d_80">
      <g>
       <use xlink:href="#m485d11d09a" x="237.187349" y="100.834379" style="stroke: #000000; stroke-width: 0.5"/>
      </g>
     </g>
    </g>
    <g id="ytick_20">
     <g id="line2d_81">
      <g>
       <use xlink:href="#mbfe52b586e" x="41.887349" y="98.885826" style="stroke: #000000; stroke-width: 0.5"/>
      </g>
     </g>
     <g id="line2d_82">
      <g>
       <use xlink:href="#m485d11d09a" x="237.187349" y="98.885826" style="stroke: #000000; stroke-width: 0.5"/>
      </g>
     </g>
    </g>
    <g id="ytick_21">
     <g id="line2d_83">
      <g>
       <use xlink:href="#mbfe52b586e" x="41.887349" y="97.197912" style="stroke: #000000; stroke-width: 0.5"/>
      </g>
     </g>
     <g id="line2d_84">
      <g>
       <use xlink:href="#m485d11d09a" x="237.187349" y="97.197912" style="stroke: #000000; stroke-width: 0.5"/>
      </g>
     </g>
    </g>
    <g id="ytick_22">
     <g id="line2d_85">
      <g>
       <use xlink:href="#mbfe52b586e" x="41.887349" y="95.709067" style="stroke: #000000; stroke-width: 0.5"/>
      </g>
     </g>
     <g id="line2d_86">
      <g>
       <use xlink:href="#m485d11d09a" x="237.187349" y="95.709067" style="stroke: #000000; stroke-width: 0.5"/>
      </g>
     </g>
    </g>
    <g id="ytick_23">
     <g id="line2d_87">
      <g>
       <use xlink:href="#mbfe52b586e" x="41.887349" y="85.61547" style="stroke: #000000; stroke-width: 0.5"/>
      </g>
     </g>
     <g id="line2d_88">
      <g>
       <use xlink:href="#m485d11d09a" x="237.187349" y="85.61547" style="stroke: #000000; stroke-width: 0.5"/>
      </g>
     </g>
    </g>
    <g id="ytick_24">
     <g id="line2d_89">
      <g>
       <use xlink:href="#mbfe52b586e" x="41.887349" y="80.490158" style="stroke: #000000; stroke-width: 0.5"/>
      </g>
     </g>
     <g id="line2d_90">
      <g>
       <use xlink:href="#m485d11d09a" x="237.187349" y="80.490158" style="stroke: #000000; stroke-width: 0.5"/>
      </g>
     </g>
    </g>
    <g id="ytick_25">
     <g id="line2d_91">
      <g>
       <use xlink:href="#mbfe52b586e" x="41.887349" y="76.853691" style="stroke: #000000; stroke-width: 0.5"/>
      </g>
     </g>
     <g id="line2d_92">
      <g>
       <use xlink:href="#m485d11d09a" x="237.187349" y="76.853691" style="stroke: #000000; stroke-width: 0.5"/>
      </g>
     </g>
    </g>
    <g id="ytick_26">
     <g id="line2d_93">
      <g>
       <use xlink:href="#mbfe52b586e" x="41.887349" y="74.033028" style="stroke: #000000; stroke-width: 0.5"/>
      </g>
     </g>
     <g id="line2d_94">
      <g>
       <use xlink:href="#m485d11d09a" x="237.187349" y="74.033028" style="stroke: #000000; stroke-width: 0.5"/>
      </g>
     </g>
    </g>
    <g id="ytick_27">
     <g id="line2d_95">
      <g>
       <use xlink:href="#mbfe52b586e" x="41.887349" y="71.728379" style="stroke: #000000; stroke-width: 0.5"/>
      </g>
     </g>
     <g id="line2d_96">
      <g>
       <use xlink:href="#m485d11d09a" x="237.187349" y="71.728379" style="stroke: #000000; stroke-width: 0.5"/>
      </g>
     </g>
    </g>
    <g id="ytick_28">
     <g id="line2d_97">
      <g>
       <use xlink:href="#mbfe52b586e" x="41.887349" y="69.779826" style="stroke: #000000; stroke-width: 0.5"/>
      </g>
     </g>
     <g id="line2d_98">
      <g>
       <use xlink:href="#m485d11d09a" x="237.187349" y="69.779826" style="stroke: #000000; stroke-width: 0.5"/>
      </g>
     </g>
    </g>
    <g id="ytick_29">
     <g id="line2d_99">
      <g>
       <use xlink:href="#mbfe52b586e" x="41.887349" y="68.091912" style="stroke: #000000; stroke-width: 0.5"/>
      </g>
     </g>
     <g id="line2d_100">
      <g>
       <use xlink:href="#m485d11d09a" x="237.187349" y="68.091912" style="stroke: #000000; stroke-width: 0.5"/>
      </g>
     </g>
    </g>
    <g id="ytick_30">
     <g id="line2d_101">
      <g>
       <use xlink:href="#mbfe52b586e" x="41.887349" y="66.603067" style="stroke: #000000; stroke-width: 0.5"/>
      </g>
     </g>
     <g id="line2d_102">
      <g>
       <use xlink:href="#m485d11d09a" x="237.187349" y="66.603067" style="stroke: #000000; stroke-width: 0.5"/>
      </g>
     </g>
    </g>
    <g id="ytick_31">
     <g id="line2d_103">
      <g>
       <use xlink:href="#mbfe52b586e" x="41.887349" y="56.50947" style="stroke: #000000; stroke-width: 0.5"/>
      </g>
     </g>
     <g id="line2d_104">
      <g>
       <use xlink:href="#m485d11d09a" x="237.187349" y="56.50947" style="stroke: #000000; stroke-width: 0.5"/>
      </g>
     </g>
    </g>
    <g id="ytick_32">
     <g id="line2d_105">
      <g>
       <use xlink:href="#mbfe52b586e" x="41.887349" y="51.384158" style="stroke: #000000; stroke-width: 0.5"/>
      </g>
     </g>
     <g id="line2d_106">
      <g>
       <use xlink:href="#m485d11d09a" x="237.187349" y="51.384158" style="stroke: #000000; stroke-width: 0.5"/>
      </g>
     </g>
    </g>
    <g id="ytick_33">
     <g id="line2d_107">
      <g>
       <use xlink:href="#mbfe52b586e" x="41.887349" y="47.747691" style="stroke: #000000; stroke-width: 0.5"/>
      </g>
     </g>
     <g id="line2d_108">
      <g>
       <use xlink:href="#m485d11d09a" x="237.187349" y="47.747691" style="stroke: #000000; stroke-width: 0.5"/>
      </g>
     </g>
    </g>
    <g id="ytick_34">
     <g id="line2d_109">
      <g>
       <use xlink:href="#mbfe52b586e" x="41.887349" y="44.927028" style="stroke: #000000; stroke-width: 0.5"/>
      </g>
     </g>
     <g id="line2d_110">
      <g>
       <use xlink:href="#m485d11d09a" x="237.187349" y="44.927028" style="stroke: #000000; stroke-width: 0.5"/>
      </g>
     </g>
    </g>
    <g id="ytick_35">
     <g id="line2d_111">
      <g>
       <use xlink:href="#mbfe52b586e" x="41.887349" y="42.622379" style="stroke: #000000; stroke-width: 0.5"/>
      </g>
     </g>
     <g id="line2d_112">
      <g>
       <use xlink:href="#m485d11d09a" x="237.187349" y="42.622379" style="stroke: #000000; stroke-width: 0.5"/>
      </g>
     </g>
    </g>
    <g id="ytick_36">
     <g id="line2d_113">
      <g>
       <use xlink:href="#mbfe52b586e" x="41.887349" y="40.673826" style="stroke: #000000; stroke-width: 0.5"/>
      </g>
     </g>
     <g id="line2d_114">
      <g>
       <use xlink:href="#m485d11d09a" x="237.187349" y="40.673826" style="stroke: #000000; stroke-width: 0.5"/>
      </g>
     </g>
    </g>
    <g id="ytick_37">
     <g id="line2d_115">
      <g>
       <use xlink:href="#mbfe52b586e" x="41.887349" y="38.985912" style="stroke: #000000; stroke-width: 0.5"/>
      </g>
     </g>
     <g id="line2d_116">
      <g>
       <use xlink:href="#m485d11d09a" x="237.187349" y="38.985912" style="stroke: #000000; stroke-width: 0.5"/>
      </g>
     </g>
    </g>
    <g id="ytick_38">
     <g id="line2d_117">
      <g>
       <use xlink:href="#mbfe52b586e" x="41.887349" y="37.497067" style="stroke: #000000; stroke-width: 0.5"/>
      </g>
     </g>
     <g id="line2d_118">
      <g>
       <use xlink:href="#m485d11d09a" x="237.187349" y="37.497067" style="stroke: #000000; stroke-width: 0.5"/>
      </g>
     </g>
    </g>
    <g id="ytick_39">
     <g id="line2d_119">
      <g>
       <use xlink:href="#mbfe52b586e" x="41.887349" y="27.40347" style="stroke: #000000; stroke-width: 0.5"/>
      </g>
     </g>
     <g id="line2d_120">
      <g>
       <use xlink:href="#m485d11d09a" x="237.187349" y="27.40347" style="stroke: #000000; stroke-width: 0.5"/>
      </g>
     </g>
    </g>
    <g id="ytick_40">
     <g id="line2d_121">
      <g>
       <use xlink:href="#mbfe52b586e" x="41.887349" y="22.278158" style="stroke: #000000; stroke-width: 0.5"/>
      </g>
     </g>
     <g id="line2d_122">
      <g>
       <use xlink:href="#m485d11d09a" x="237.187349" y="22.278158" style="stroke: #000000; stroke-width: 0.5"/>
      </g>
     </g>
    </g>
    <g id="ytick_41">
     <g id="line2d_123">
      <g>
       <use xlink:href="#mbfe52b586e" x="41.887349" y="18.641691" style="stroke: #000000; stroke-width: 0.5"/>
      </g>
     </g>
     <g id="line2d_124">
      <g>
       <use xlink:href="#m485d11d09a" x="237.187349" y="18.641691" style="stroke: #000000; stroke-width: 0.5"/>
      </g>
     </g>
    </g>
    <g id="ytick_42">
     <g id="line2d_125">
      <g>
       <use xlink:href="#mbfe52b586e" x="41.887349" y="15.821028" style="stroke: #000000; stroke-width: 0.5"/>
      </g>
     </g>
     <g id="line2d_126">
      <g>
       <use xlink:href="#m485d11d09a" x="237.187349" y="15.821028" style="stroke: #000000; stroke-width: 0.5"/>
      </g>
     </g>
    </g>
    <g id="ytick_43">
     <g id="line2d_127">
      <g>
       <use xlink:href="#mbfe52b586e" x="41.887349" y="13.516379" style="stroke: #000000; stroke-width: 0.5"/>
      </g>
     </g>
     <g id="line2d_128">
      <g>
       <use xlink:href="#m485d11d09a" x="237.187349" y="13.516379" style="stroke: #000000; stroke-width: 0.5"/>
      </g>
     </g>
    </g>
    <g id="ytick_44">
     <g id="line2d_129">
      <g>
       <use xlink:href="#mbfe52b586e" x="41.887349" y="11.567826" style="stroke: #000000; stroke-width: 0.5"/>
      </g>
     </g>
     <g id="line2d_130">
      <g>
       <use xlink:href="#m485d11d09a" x="237.187349" y="11.567826" style="stroke: #000000; stroke-width: 0.5"/>
      </g>
     </g>
    </g>
    <g id="ytick_45">
     <g id="line2d_131">
      <g>
       <use xlink:href="#mbfe52b586e" x="41.887349" y="9.879912" style="stroke: #000000; stroke-width: 0.5"/>
      </g>
     </g>
     <g id="line2d_132">
      <g>
       <use xlink:href="#m485d11d09a" x="237.187349" y="9.879912" style="stroke: #000000; stroke-width: 0.5"/>
      </g>
     </g>
    </g>
    <g id="ytick_46">
     <g id="line2d_133">
      <g>
       <use xlink:href="#mbfe52b586e" x="41.887349" y="8.391067" style="stroke: #000000; stroke-width: 0.5"/>
      </g>
     </g>
     <g id="line2d_134">
      <g>
       <use xlink:href="#m485d11d09a" x="237.187349" y="8.391067" style="stroke: #000000; stroke-width: 0.5"/>
      </g>
     </g>
    </g>
    <g id="text_13">
     <!-- $FFT$ -->
     <g transform="translate(11.90218 92.458367) rotate(-90) scale(0.12 -0.12)">
      <defs>
       <path id="CMMI12-46" d="M 1901 2054 
L 2515 2054 
C 3002 2054 3040 1947 3040 1764 
C 3040 1683 3027 1595 2995 1456 
C 2982 1431 2976 1399 2976 1387 
C 2976 1343 3002 1318 3046 1318 
C 3098 1318 3104 1343 3130 1444 
L 3501 2929 
C 3501 2955 3482 2993 3437 2993 
C 3379 2993 3373 2968 3347 2858 
C 3213 2375 3085 2240 2528 2240 
L 1946 2240 
L 2362 3908 
C 2419 4134 2432 4153 2694 4153 
L 3552 4153 
C 4352 4153 4467 3915 4467 3457 
C 4467 3419 4467 3277 4448 3109 
C 4442 3084 4429 3000 4429 2974 
C 4429 2922 4461 2903 4499 2903 
C 4544 2903 4570 2929 4582 3045 
L 4717 4172 
C 4717 4191 4730 4255 4730 4268 
C 4730 4339 4672 4339 4557 4339 
L 1523 4339 
C 1402 4339 1338 4339 1338 4223 
C 1338 4153 1382 4153 1491 4153 
C 1888 4153 1888 4108 1888 4037 
C 1888 4005 1882 3979 1862 3908 
L 998 468 
C 941 248 928 185 480 185 
C 358 185 294 185 294 70 
C 294 0 352 0 390 0 
C 512 0 640 12 762 12 
L 1594 12 
C 1734 12 1888 0 2029 0 
C 2086 0 2163 0 2163 115 
C 2163 185 2125 185 1984 185 
C 1478 185 1466 229 1466 324 
C 1466 355 1478 405 1491 449 
L 1901 2054 
z
" transform="scale(0.015625)"/>
       <path id="CMMI12-54" d="M 2669 3886 
C 2707 4038 2720 4096 2816 4121 
C 2867 4134 3078 4134 3213 4134 
C 3853 4134 4154 4109 4154 3612 
C 4154 3516 4128 3274 4090 3038 
L 4083 2962 
C 4083 2937 4109 2898 4147 2898 
C 4211 2898 4211 2930 4230 3032 
L 4416 4159 
C 4429 4217 4429 4230 4429 4249 
C 4429 4319 4390 4319 4262 4319 
L 762 4319 
C 614 4319 608 4313 570 4198 
L 179 3051 
C 173 3038 154 2968 154 2962 
C 154 2930 179 2898 218 2898 
C 269 2898 282 2924 307 3007 
C 576 3777 710 4134 1562 4134 
L 1990 4134 
C 2144 4134 2208 4134 2208 4064 
C 2208 4045 2208 4032 2176 3917 
L 1318 497 
C 1254 249 1242 185 563 185 
C 403 185 358 185 358 64 
C 358 0 429 0 461 0 
C 621 0 787 12 947 12 
L 1946 12 
C 2106 12 2278 0 2438 0 
C 2509 0 2573 0 2573 121 
C 2573 185 2528 185 2362 185 
C 1786 185 1786 242 1786 338 
C 1786 344 1786 389 1811 491 
L 2669 3886 
z
" transform="scale(0.015625)"/>
      </defs>
      <use xlink:href="#CMMI12-46" transform="scale(0.996264)"/>
      <use xlink:href="#CMMI12-46" transform="translate(76.696793 0) scale(0.996264)"/>
      <use xlink:href="#CMMI12-54" transform="translate(153.393585 0) scale(0.996264)"/>
     </g>
    </g>
   </g>
   <g id="LineCollection_1">
    <path d="M 41.887349 152.589249 
L 41.887349 7.059249 
" clip-path="url(#pa9a1e9fb90)" style="fill: none; stroke-dasharray: 1.85,0.8; stroke-dashoffset: 0; stroke: #000000; stroke-width: 0.5"/>
   </g>
   <g id="LineCollection_2">
    <path d="M 55.558349 152.589249 
L 55.558349 7.059249 
" clip-path="url(#pa9a1e9fb90)" style="fill: none; stroke-dasharray: 1.85,0.8; stroke-dashoffset: 0; stroke: #000000; stroke-width: 0.5"/>
   </g>
   <g id="LineCollection_3">
    <path d="M 69.229349 152.589249 
L 69.229349 7.059249 
" clip-path="url(#pa9a1e9fb90)" style="fill: none; stroke-dasharray: 1.85,0.8; stroke-dashoffset: 0; stroke: #000000; stroke-width: 0.5"/>
   </g>
   <g id="LineCollection_4">
    <path d="M 82.900349 152.589249 
L 82.900349 7.059249 
" clip-path="url(#pa9a1e9fb90)" style="fill: none; stroke-dasharray: 1.85,0.8; stroke-dashoffset: 0; stroke: #000000; stroke-width: 0.5"/>
   </g>
   <g id="LineCollection_5">
    <path d="M 96.571349 152.589249 
L 96.571349 7.059249 
" clip-path="url(#pa9a1e9fb90)" style="fill: none; stroke-dasharray: 1.85,0.8; stroke-dashoffset: 0; stroke: #000000; stroke-width: 0.5"/>
   </g>
   <g id="LineCollection_6">
    <path d="M 110.242349 152.589249 
L 110.242349 7.059249 
" clip-path="url(#pa9a1e9fb90)" style="fill: none; stroke-dasharray: 1.85,0.8; stroke-dashoffset: 0; stroke: #000000; stroke-width: 0.5"/>
   </g>
   <g id="LineCollection_7">
    <path d="M 123.913349 152.589249 
L 123.913349 7.059249 
" clip-path="url(#pa9a1e9fb90)" style="fill: none; stroke-dasharray: 1.85,0.8; stroke-dashoffset: 0; stroke: #000000; stroke-width: 0.5"/>
   </g>
   <g id="LineCollection_8">
    <path d="M 137.584349 152.589249 
L 137.584349 7.059249 
" clip-path="url(#pa9a1e9fb90)" style="fill: none; stroke-dasharray: 1.85,0.8; stroke-dashoffset: 0; stroke: #000000; stroke-width: 0.5"/>
   </g>
   <g id="LineCollection_9">
    <path d="M 151.255349 152.589249 
L 151.255349 7.059249 
" clip-path="url(#pa9a1e9fb90)" style="fill: none; stroke-dasharray: 1.85,0.8; stroke-dashoffset: 0; stroke: #000000; stroke-width: 0.5"/>
   </g>
   <g id="LineCollection_10">
    <path d="M 164.926349 152.589249 
L 164.926349 7.059249 
" clip-path="url(#pa9a1e9fb90)" style="fill: none; stroke-dasharray: 1.85,0.8; stroke-dashoffset: 0; stroke: #000000; stroke-width: 0.5"/>
   </g>
   <g id="LineCollection_11">
    <path d="M 178.597349 152.589249 
L 178.597349 7.059249 
" clip-path="url(#pa9a1e9fb90)" style="fill: none; stroke-dasharray: 1.85,0.8; stroke-dashoffset: 0; stroke: #000000; stroke-width: 0.5"/>
   </g>
   <g id="LineCollection_12">
    <path d="M 192.268349 152.589249 
L 192.268349 7.059249 
" clip-path="url(#pa9a1e9fb90)" style="fill: none; stroke-dasharray: 1.85,0.8; stroke-dashoffset: 0; stroke: #000000; stroke-width: 0.5"/>
   </g>
   <g id="LineCollection_13">
    <path d="M 205.939349 152.589249 
L 205.939349 7.059249 
" clip-path="url(#pa9a1e9fb90)" style="fill: none; stroke-dasharray: 1.85,0.8; stroke-dashoffset: 0; stroke: #000000; stroke-width: 0.5"/>
   </g>
   <g id="LineCollection_14">
    <path d="M 219.610349 152.589249 
L 219.610349 7.059249 
" clip-path="url(#pa9a1e9fb90)" style="fill: none; stroke-dasharray: 1.85,0.8; stroke-dashoffset: 0; stroke: #000000; stroke-width: 0.5"/>
   </g>
   <g id="LineCollection_15">
    <path d="M 233.281349 152.589249 
L 233.281349 7.059249 
" clip-path="url(#pa9a1e9fb90)" style="fill: none; stroke-dasharray: 1.85,0.8; stroke-dashoffset: 0; stroke: #000000; stroke-width: 0.5"/>
   </g>
   <g id="LineCollection_16">
    <path d="M 246.952349 152.589249 
L 246.952349 7.059249 
" clip-path="url(#pa9a1e9fb90)" style="fill: none; stroke-dasharray: 1.85,0.8; stroke-dashoffset: 0; stroke: #000000; stroke-width: 0.5"/>
   </g>
   <g id="line2d_135">
    <path d="M 41.887349 117.343668 
L 42.031292 112.622092 
L 42.175235 115.660793 
L 42.463122 99.077009 
L 42.607065 130.573453 
L 42.751008 105.104571 
L 42.894951 117.820405 
L 43.038894 111.37743 
L 43.182837 117.429837 
L 43.470724 106.191265 
L 43.614667 130.421136 
L 43.75861 106.094268 
L 44.190439 97.348167 
L 44.334382 107.552857 
L 44.478326 102.020777 
L 44.622269 102.48714 
L 44.766212 108.418167 
L 44.910155 106.964849 
L 45.198041 102.028497 
L 45.341984 102.720279 
L 45.629871 98.627116 
L 45.773814 107.4868 
L 45.917757 125.069662 
L 46.0617 110.170087 
L 46.205643 112.510469 
L 46.349586 144.969419 
L 46.637473 105.860019 
L 46.781416 108.811596 
L 46.925359 120.684788 
L 47.069302 118.732133 
L 47.213245 107.216636 
L 47.357188 109.312853 
L 47.501132 116.946782 
L 47.645075 112.090884 
L 47.789018 144.837351 
L 47.932961 115.895037 
L 48.076904 116.531633 
L 48.220847 114.839155 
L 48.36479 109.75831 
L 48.508734 118.917335 
L 48.652677 120.56437 
L 48.79662 116.629318 
L 48.940563 102.574697 
L 49.084506 101.228171 
L 49.372392 121.699002 
L 49.516336 114.447923 
L 49.804222 141.76024 
L 50.092108 107.445407 
L 50.236051 100.734119 
L 50.379994 108.001694 
L 50.523938 121.672842 
L 50.811824 105.368861 
L 50.955767 105.47583 
L 51.09971 106.965643 
L 51.243653 112.481591 
L 51.387596 112.769941 
L 51.675483 102.158896 
L 51.819426 109.755411 
L 52.107312 100.47954 
L 52.251255 102.802927 
L 52.539142 119.23527 
L 52.827028 103.56302 
L 53.114914 100.755932 
L 53.4028 104.753061 
L 53.546744 105.237277 
L 53.83463 112.28441 
L 53.978573 109.750966 
L 54.266459 102.185889 
L 54.554346 113.624721 
L 54.842232 114.706454 
L 54.986175 113.749495 
L 55.130118 107.022382 
L 55.274061 115.90188 
L 55.418004 44.449529 
L 55.561948 36.165249 
L 55.705891 45.456611 
L 55.849834 102.115394 
L 56.13772 132.051113 
L 56.425606 99.384661 
L 56.713493 116.213635 
L 56.857436 103.894399 
L 57.001379 103.583629 
L 57.145322 101.881989 
L 57.289265 104.966469 
L 57.721095 127.784115 
L 58.152924 108.297084 
L 58.44081 112.399036 
L 58.87264 106.81975 
L 59.160526 115.018342 
L 59.304469 110.863363 
L 59.448412 98.226521 
L 59.592356 95.608953 
L 59.880242 118.168374 
L 60.024185 109.225957 
L 60.168128 108.992234 
L 60.456014 105.516137 
L 60.599958 111.239582 
L 60.743901 104.684568 
L 60.887844 106.464227 
L 61.031787 111.391478 
L 61.17573 107.134764 
L 61.463616 111.705375 
L 61.60756 106.842728 
L 61.751503 124.567051 
L 61.895446 122.539038 
L 62.183332 107.765232 
L 62.327275 130.743886 
L 62.471218 131.21288 
L 62.615162 106.421609 
L 62.759105 105.495885 
L 62.903048 111.208198 
L 63.046991 110.477812 
L 63.190934 110.357212 
L 63.334877 110.621327 
L 63.47882 107.589518 
L 63.622764 114.373459 
L 63.766707 126.653019 
L 63.91065 112.02003 
L 64.054593 108.972332 
L 64.198536 115.034045 
L 64.342479 113.769578 
L 64.486422 108.313855 
L 64.630366 111.956245 
L 64.774309 123.117595 
L 65.062195 102.547424 
L 65.206138 104.84824 
L 65.350081 104.051235 
L 65.781911 109.42633 
L 65.925854 118.017527 
L 66.21374 101.042659 
L 66.357683 103.760283 
L 66.64557 122.681494 
L 66.789513 122.682123 
L 66.933456 106.716649 
L 67.077399 105.187491 
L 67.221342 101.618808 
L 67.653172 113.195627 
L 67.797115 109.755922 
L 67.941058 109.646701 
L 68.085001 104.029051 
L 68.228944 106.360018 
L 68.372887 123.502298 
L 68.51683 120.654076 
L 68.660774 113.044808 
L 68.804717 113.314382 
L 68.94866 103.998991 
L 69.092603 103.843479 
L 69.236546 126.754981 
L 69.380489 104.64407 
L 69.668376 110.419955 
L 69.956262 118.747805 
L 70.244148 107.017857 
L 70.388091 112.609361 
L 70.532034 108.800492 
L 70.675978 126.30593 
L 70.819921 107.589571 
L 70.963864 103.828636 
L 71.107807 104.411066 
L 71.25175 110.855192 
L 71.539636 106.830839 
L 71.971466 128.022812 
L 72.115409 114.931028 
L 72.259352 115.034548 
L 72.547238 122.010865 
L 72.835125 100.194204 
L 72.979068 105.379467 
L 73.123011 119.543412 
L 73.266954 118.638396 
L 73.410897 120.905471 
L 73.698784 110.652602 
L 73.842727 120.687286 
L 74.130613 110.286882 
L 74.274556 106.510732 
L 74.418499 99.744116 
L 74.562442 103.879482 
L 74.706386 114.982635 
L 74.850329 114.51197 
L 74.994272 107.496056 
L 75.138215 109.988781 
L 75.282158 119.447146 
L 75.426101 107.988904 
L 75.570044 110.358021 
L 75.713988 129.259217 
L 75.857931 120.820215 
L 76.145817 100.488418 
L 76.433703 114.070723 
L 76.577646 113.73608 
L 76.72159 133.292249 
L 76.865533 116.010037 
L 77.009476 130.262629 
L 77.153419 114.321593 
L 77.297362 129.499483 
L 77.441305 115.774124 
L 77.585248 136.223286 
L 77.873135 112.74101 
L 78.017078 107.879377 
L 78.161021 110.135993 
L 78.304964 133.882477 
L 78.448907 116.861239 
L 78.59285 139.043193 
L 78.736794 111.101024 
L 78.880737 105.742647 
L 79.168623 109.145561 
L 79.456509 120.109279 
L 79.600452 109.571221 
L 79.744396 109.369338 
L 79.888339 115.089277 
L 80.032282 115.171961 
L 80.176225 145.260142 
L 80.320168 120.871568 
L 80.464111 120.106218 
L 80.608054 125.231463 
L 80.751998 122.095576 
L 80.895941 115.02261 
L 81.183827 119.990626 
L 81.32777 121.358582 
L 81.615656 112.376686 
L 81.7596 127.148815 
L 81.903543 108.544602 
L 82.047486 117.44131 
L 82.191429 110.065951 
L 82.479315 126.2052 
L 82.911145 41.798997 
L 83.055088 51.954127 
L 83.342974 113.472981 
L 83.486917 105.984761 
L 83.63086 109.272024 
L 83.774804 109.115797 
L 83.918747 114.249872 
L 84.206633 107.655384 
L 84.350576 106.997239 
L 84.494519 107.053438 
L 84.638462 112.688228 
L 84.782406 109.944227 
L 85.070292 116.734154 
L 85.358178 109.129261 
L 85.502121 106.453427 
L 85.646064 112.036473 
L 85.790008 122.798869 
L 86.077894 108.443098 
L 86.221837 107.204966 
L 86.36578 111.235753 
L 86.509723 126.298447 
L 86.79761 104.676316 
L 86.941553 111.179761 
L 87.373382 142.835003 
L 87.661268 112.396396 
L 87.805212 116.510255 
L 87.949155 115.54436 
L 88.093098 106.65665 
L 88.66887 119.146677 
L 88.956757 115.155952 
L 89.1007 117.614721 
L 89.244643 113.305462 
L 89.388586 115.219084 
L 89.532529 111.964992 
L 89.820416 134.898731 
L 89.964359 131.889013 
L 90.252245 109.069379 
L 90.396188 116.656127 
L 90.540131 113.665482 
L 90.828018 125.317312 
L 90.971961 129.781719 
L 91.115904 118.945018 
L 91.259847 118.935053 
L 91.40379 135.482822 
L 91.547733 129.173115 
L 91.691676 116.699145 
L 91.979563 118.720915 
L 92.123506 117.534706 
L 92.267449 105.607575 
L 92.411392 103.188207 
L 92.555335 106.011585 
L 92.699278 106.209248 
L 92.843222 104.803955 
L 92.987165 110.710367 
L 93.275051 134.542214 
L 93.562937 113.671483 
L 93.70688 111.870146 
L 93.850824 114.026123 
L 93.994767 119.198416 
L 94.13871 107.311385 
L 94.282653 104.976683 
L 94.426596 116.55283 
L 94.570539 113.807124 
L 94.714482 119.354585 
L 94.858426 117.974842 
L 95.002369 122.916257 
L 95.146312 142.074953 
L 95.434198 114.177322 
L 95.578141 115.461927 
L 95.866028 110.344224 
L 96.009971 124.396809 
L 96.153914 115.050875 
L 96.297857 125.142703 
L 96.4418 116.567434 
L 96.585743 119.013678 
L 96.729686 109.137844 
L 96.87363 107.518977 
L 97.017573 109.641011 
L 97.161516 109.823233 
L 97.449402 134.286615 
L 97.737288 119.372525 
L 97.881232 135.266051 
L 98.025175 116.8057 
L 98.169118 121.862935 
L 98.313061 113.806902 
L 98.457004 114.517064 
L 98.74489 127.077857 
L 98.888834 114.013467 
L 99.17672 120.800576 
L 99.320663 122.426383 
L 99.464606 136.533787 
L 99.608549 130.974383 
L 99.752492 119.916518 
L 99.896436 120.13773 
L 100.040379 121.859621 
L 100.184322 121.95278 
L 100.328265 113.399753 
L 100.472208 117.875098 
L 100.616151 118.884766 
L 100.760094 111.758815 
L 100.904038 115.975117 
L 101.047981 111.424491 
L 101.191924 113.545697 
L 101.47981 124.807839 
L 101.623753 138.044988 
L 101.767696 120.229975 
L 101.91164 135.534572 
L 102.055583 127.907707 
L 102.199526 112.325696 
L 102.343469 116.154788 
L 102.487412 129.563052 
L 102.775298 121.04198 
L 102.919242 109.766968 
L 103.063185 110.195613 
L 103.351071 125.354655 
L 103.495014 123.688664 
L 103.638957 148.382124 
L 103.926844 117.06458 
L 104.070787 144.130458 
L 104.21473 114.772002 
L 104.358673 125.934632 
L 104.502616 115.399619 
L 104.646559 115.023324 
L 104.934446 110.638879 
L 105.222332 130.863811 
L 105.510218 115.920958 
L 105.654161 121.194402 
L 105.798104 142.219291 
L 106.085991 111.908686 
L 106.373877 115.331676 
L 106.51782 135.378951 
L 106.661763 130.496806 
L 106.94965 108.188156 
L 107.093593 113.801796 
L 107.237536 139.862342 
L 107.381479 133.72033 
L 107.669365 114.437631 
L 107.957252 117.862447 
L 108.101195 124.278635 
L 108.389081 107.990233 
L 108.533024 114.504231 
L 108.676967 114.263898 
L 108.82091 117.634024 
L 108.964854 148.600205 
L 109.108797 150.223147 
L 109.396683 116.415098 
L 109.540626 115.487369 
L 109.684569 116.266312 
L 109.828512 124.013109 
L 110.260342 55.624724 
L 110.404285 66.989465 
L 110.692171 131.273496 
L 110.836114 116.820389 
L 110.980058 119.942495 
L 111.124001 115.99574 
L 111.267944 121.937679 
L 111.411887 121.815876 
L 111.55583 115.546488 
L 111.843716 128.465525 
L 111.98766 155.863755 
L 112.131603 121.008809 
L 112.275546 116.861754 
L 112.419489 123.701392 
L 112.563432 124.890169 
L 112.707375 124.021228 
L 112.851318 114.684258 
L 113.139205 118.468447 
L 113.283148 114.043133 
L 113.571034 117.077586 
L 113.714977 112.643131 
L 113.85892 118.321111 
L 114.002864 114.778709 
L 114.146807 136.002665 
L 114.29075 122.888058 
L 114.578636 142.970124 
L 114.866522 111.660746 
L 115.010466 119.679983 
L 115.154409 135.683143 
L 115.442295 116.040972 
L 115.730181 112.28396 
L 115.874124 112.945472 
L 116.018068 115.555838 
L 116.305954 133.090905 
L 116.449897 134.210971 
L 116.737783 121.827744 
L 116.881726 118.543614 
L 117.02567 120.167164 
L 117.169613 116.313507 
L 117.313556 121.441909 
L 117.457499 112.468675 
L 117.601442 128.598852 
L 117.745385 128.262927 
L 117.889328 139.026729 
L 118.177215 114.710625 
L 118.321158 119.820284 
L 118.465101 120.183711 
L 118.752987 109.730239 
L 118.89693 124.461904 
L 119.040874 117.828902 
L 119.184817 137.460572 
L 119.32876 111.565662 
L 119.472703 133.264529 
L 119.616646 110.813254 
L 119.760589 112.120219 
L 119.904532 126.991342 
L 120.048476 120.57611 
L 120.192419 122.933112 
L 120.336362 174.513715 
L 120.480305 127.146954 
L 120.624248 131.618152 
L 120.912134 121.850949 
L 121.056078 122.808579 
L 121.343964 150.809078 
L 121.63185 123.496869 
L 121.775793 117.359831 
L 121.919736 118.836032 
L 122.06368 127.488154 
L 122.207623 126.529197 
L 122.351566 116.138214 
L 122.927338 129.760826 
L 123.215225 117.657715 
L 123.359168 142.200513 
L 123.790997 119.676743 
L 123.93494 127.55112 
L 124.078884 119.820999 
L 124.36677 146.205986 
L 124.510713 121.643627 
L 124.654656 118.410366 
L 124.798599 120.179638 
L 124.942542 117.000748 
L 125.086486 123.373437 
L 125.230429 137.982194 
L 125.374372 128.953645 
L 125.518315 132.439191 
L 125.806201 117.08035 
L 125.950144 124.684215 
L 126.094088 157.459757 
L 126.381974 135.241407 
L 126.66986 129.218686 
L 126.813803 134.747181 
L 127.389576 118.666631 
L 127.533519 119.175655 
L 127.677462 123.681753 
L 127.821405 132.529269 
L 127.965348 128.726112 
L 128.109292 134.425298 
L 128.253235 128.094809 
L 128.397178 138.757661 
L 128.685064 120.513396 
L 128.829007 130.303301 
L 129.116894 119.419204 
L 129.260837 124.735948 
L 129.548723 113.942018 
L 129.692666 116.029257 
L 129.836609 122.853167 
L 129.980552 141.865053 
L 130.268439 124.430212 
L 130.412382 127.21231 
L 130.556325 119.367403 
L 130.700268 118.554632 
L 130.844211 112.493191 
L 130.988154 116.447352 
L 131.132098 137.621999 
L 131.419984 122.717817 
L 131.70787 135.05099 
L 131.995756 121.609191 
L 132.1397 118.938495 
L 132.283643 146.254732 
L 132.427586 122.526989 
L 132.571529 127.575402 
L 132.715472 141.47308 
L 133.003358 115.750943 
L 133.291245 121.20161 
L 133.579131 128.716335 
L 133.867017 114.780265 
L 134.01096 114.83706 
L 134.154904 114.558049 
L 134.298847 113.924548 
L 134.586733 121.481253 
L 134.730676 133.064872 
L 135.018562 119.773771 
L 135.162506 119.985513 
L 135.450392 134.201426 
L 135.594335 132.932662 
L 135.882221 122.196943 
L 136.026164 117.366504 
L 136.314051 122.417121 
L 136.601937 134.146804 
L 136.889823 113.265903 
L 137.17771 127.715776 
L 137.321653 112.169787 
L 137.465596 79.99644 
L 137.609539 74.187989 
L 137.753482 86.101844 
L 138.041368 124.303069 
L 138.185312 124.709317 
L 138.473198 123.39263 
L 138.617141 123.508778 
L 138.761084 120.997649 
L 139.04897 130.029377 
L 139.192914 152.172981 
L 139.4808 125.107789 
L 139.624743 119.728292 
L 139.768686 123.024791 
L 139.912629 139.026255 
L 140.056572 122.506161 
L 140.200516 121.704803 
L 140.344459 134.213843 
L 140.488402 119.588236 
L 140.632345 122.510747 
L 140.776288 122.566571 
L 140.920231 120.619031 
L 141.064174 116.668127 
L 141.208118 116.43669 
L 141.496004 133.958891 
L 141.927833 116.655032 
L 142.071776 121.242208 
L 142.21572 120.599666 
L 142.359663 125.638547 
L 142.647549 143.829674 
L 142.791492 139.886853 
L 142.935435 121.829322 
L 143.079378 120.430079 
L 143.367265 136.343872 
L 143.511208 133.28276 
L 143.655151 152.897109 
L 143.799094 121.952335 
L 143.943037 123.46995 
L 144.08698 120.751079 
L 144.230924 134.320565 
L 144.51881 117.425317 
L 144.806696 131.245275 
L 144.950639 171.172123 
L 145.094582 129.568992 
L 145.238526 129.767787 
L 145.382469 117.905605 
L 145.526412 117.849024 
L 145.670355 119.012883 
L 145.814298 116.849206 
L 145.958241 120.393701 
L 146.102184 132.675288 
L 146.246128 120.011133 
L 146.390071 118.891058 
L 146.677957 126.005268 
L 146.8219 123.549509 
L 147.109786 136.923096 
L 147.397673 118.37332 
L 147.829502 137.212526 
L 147.973445 131.177399 
L 148.261332 137.508667 
L 148.693161 116.775709 
L 148.981047 135.124175 
L 149.268934 118.773214 
L 149.412877 120.878237 
L 149.55682 134.07884 
L 149.700763 129.366563 
L 149.988649 141.042266 
L 150.420479 115.904923 
L 150.564422 115.849045 
L 150.708365 133.48474 
L 150.852308 121.420756 
L 150.996251 119.680305 
L 151.140194 149.500481 
L 151.284138 126.515647 
L 151.428081 124.929368 
L 151.572024 126.092778 
L 151.85991 135.477619 
L 152.29174 119.409004 
L 152.579626 129.238908 
L 152.723569 139.52649 
L 152.867512 128.360982 
L 153.011455 127.173556 
L 153.155398 128.450087 
L 153.299342 137.871331 
L 153.587228 115.21955 
L 153.731171 118.1823 
L 153.875114 150.386862 
L 154.019057 154.75505 
L 154.306944 129.442927 
L 154.450887 130.029682 
L 154.59483 127.421355 
L 154.882716 138.267536 
L 155.026659 139.31567 
L 155.170602 144.433688 
L 155.314546 136.633212 
L 155.602432 143.866172 
L 155.746375 131.444996 
L 155.890318 135.70801 
L 156.034261 122.873872 
L 156.178204 120.129171 
L 156.322148 131.909449 
L 156.466091 131.989777 
L 156.610034 138.164938 
L 156.753977 124.621782 
L 157.041863 138.777041 
L 157.185806 141.807775 
L 157.32975 131.072348 
L 157.473693 136.195206 
L 157.617636 148.397883 
L 157.905522 122.859753 
L 158.049465 124.2545 
L 158.193408 123.875134 
L 158.337352 123.816437 
L 158.481295 130.185748 
L 158.625238 125.738093 
L 158.769181 134.79996 
L 158.913124 131.529126 
L 159.057067 118.889862 
L 159.20101 122.067416 
L 159.344954 138.656186 
L 159.488897 125.599832 
L 159.63284 125.246342 
L 159.920726 144.930268 
L 160.064669 125.627384 
L 160.208612 124.227392 
L 160.352556 127.153782 
L 160.496499 125.649825 
L 160.640442 139.227599 
L 160.784385 123.857883 
L 161.072271 119.71361 
L 161.216214 121.210507 
L 161.504101 138.194733 
L 161.648044 126.481152 
L 161.791987 124.436033 
L 161.93593 133.528639 
L 162.223816 125.655026 
L 162.36776 124.720227 
L 162.511703 126.123485 
L 162.655646 145.362543 
L 162.943532 121.447064 
L 163.231418 125.010808 
L 163.375362 125.836144 
L 163.519305 122.469955 
L 163.663248 126.550748 
L 163.807191 136.388304 
L 163.951134 137.708414 
L 164.23902 119.223825 
L 164.526907 140.569394 
L 164.958736 89.327675 
L 165.102679 102.407144 
L 165.246622 131.660204 
L 165.534509 138.543747 
L 165.966338 120.387168 
L 166.110281 119.014379 
L 166.254224 126.444216 
L 166.398168 126.217122 
L 166.542111 126.518289 
L 166.686054 124.759458 
L 166.829997 124.904721 
L 166.97394 130.615743 
L 167.261826 120.425065 
L 167.40577 123.114672 
L 167.549713 129.425847 
L 167.693656 149.258128 
L 167.981542 137.416575 
L 168.125485 146.908755 
L 168.413372 119.98216 
L 168.557315 119.032435 
L 168.701258 119.305481 
L 169.133087 137.241716 
L 169.27703 121.828061 
L 169.420974 122.500418 
L 169.70886 126.406405 
L 169.852803 133.118317 
L 169.996746 123.351319 
L 170.284632 125.608007 
L 170.428576 125.056066 
L 170.572519 126.185536 
L 170.716462 125.74727 
L 170.860405 132.571696 
L 171.004348 130.643795 
L 171.148291 132.425438 
L 171.292234 121.85304 
L 171.436178 120.704257 
L 171.868007 141.439378 
L 172.155893 123.779614 
L 172.299836 129.395486 
L 172.44378 147.83346 
L 172.587723 138.574425 
L 172.731666 138.603898 
L 172.875609 134.083985 
L 173.019552 137.983389 
L 173.163495 125.51353 
L 173.307438 136.376811 
L 173.451382 138.723129 
L 173.595325 133.905714 
L 173.739268 135.092884 
L 173.883211 129.832871 
L 174.171097 117.609258 
L 174.31504 119.651005 
L 174.74687 144.957634 
L 174.890813 141.501584 
L 175.034756 127.458807 
L 175.178699 126.933091 
L 175.322642 127.041421 
L 175.466586 122.877529 
L 175.754472 130.454641 
L 176.186301 121.710752 
L 176.330244 149.639291 
L 176.762074 120.966193 
L 177.04996 125.406763 
L 177.193903 127.175899 
L 177.48179 131.605082 
L 177.625733 146.142766 
L 177.769676 126.48843 
L 177.913619 129.017029 
L 178.201505 140.20096 
L 178.345448 127.303437 
L 178.489392 131.182714 
L 178.777278 145.312775 
L 178.921221 134.372638 
L 179.209107 142.844222 
L 179.35305 128.997703 
L 179.496994 148.048613 
L 179.640937 129.801528 
L 179.78488 132.784576 
L 179.928823 130.390391 
L 180.072766 143.194139 
L 180.216709 140.741179 
L 180.504596 117.811874 
L 180.936425 142.777478 
L 181.080368 135.39379 
L 181.224311 135.411262 
L 181.368254 134.926999 
L 181.512198 140.648324 
L 181.800084 122.089973 
L 181.944027 129.207092 
L 182.231913 123.748266 
L 182.375856 127.084395 
L 182.663743 143.488451 
L 182.807686 126.877014 
L 182.951629 127.354652 
L 183.239515 131.582914 
L 183.383458 130.311618 
L 183.527402 122.843128 
L 183.671345 123.309148 
L 183.815288 137.191788 
L 183.959231 128.342216 
L 184.247117 126.957569 
L 184.39106 124.788539 
L 184.535004 126.080691 
L 184.678947 125.197603 
L 184.82289 128.673102 
L 184.966833 140.431857 
L 185.398662 120.96866 
L 185.686549 127.986551 
L 185.974435 118.225196 
L 186.262321 125.132594 
L 186.406264 123.235966 
L 186.550208 133.250983 
L 186.694151 131.633135 
L 186.838094 127.108323 
L 186.982037 137.983555 
L 187.269923 124.881812 
L 187.413866 134.892319 
L 187.55781 135.528441 
L 187.701753 141.555682 
L 187.989639 123.59007 
L 188.133582 127.260171 
L 188.277525 126.39252 
L 188.565412 142.949021 
L 188.709355 142.875938 
L 188.997241 125.647198 
L 189.285127 136.630277 
L 189.42907 130.578786 
L 189.573014 134.077022 
L 189.716957 126.66108 
L 189.8609 125.499938 
L 190.004843 146.706742 
L 190.148786 127.341775 
L 190.292729 127.061195 
L 190.436672 136.188686 
L 190.580616 135.578186 
L 190.724559 137.351069 
L 190.868502 124.602354 
L 191.156388 135.129656 
L 191.300331 135.209362 
L 191.444274 130.71641 
L 191.588218 132.829374 
L 191.876104 119.101313 
L 192.020047 118.472895 
L 192.307933 97.911241 
L 192.59582 121.667772 
L 192.739763 120.043945 
L 193.027649 130.076259 
L 193.171592 126.439227 
L 193.315535 131.325856 
L 193.459478 126.226946 
L 193.747365 145.459094 
L 194.035251 139.989768 
L 194.179194 146.624243 
L 194.323137 136.032316 
L 194.46708 136.653857 
L 194.611024 124.66647 
L 194.89891 137.138433 
L 195.042853 132.617539 
L 195.186796 143.5179 
L 195.330739 132.860561 
L 195.474682 133.650121 
L 195.618626 143.825389 
L 195.762569 131.084672 
L 195.906512 139.033637 
L 196.050455 127.161054 
L 196.338341 137.017793 
L 196.626228 131.541527 
L 196.770171 142.255926 
L 197.058057 120.779415 
L 197.202 127.265558 
L 197.345943 158.883119 
L 197.63383 133.767966 
L 197.777773 127.014304 
L 198.065659 136.334483 
L 198.209602 123.383837 
L 198.353545 121.660656 
L 198.497488 126.628174 
L 198.785375 128.310861 
L 198.929318 131.474645 
L 199.073261 121.184437 
L 199.361147 133.719043 
L 199.50509 128.686358 
L 199.649034 145.188514 
L 199.792977 138.593451 
L 199.93692 138.589778 
L 200.080863 128.998839 
L 200.224806 128.338947 
L 200.368749 140.854596 
L 200.512692 125.072358 
L 200.656636 128.965143 
L 200.800579 147.086488 
L 200.944522 129.436488 
L 201.088465 140.459064 
L 201.232408 128.441 
L 201.376351 127.302944 
L 201.520294 130.770414 
L 201.664238 127.515884 
L 201.808181 128.205876 
L 201.952124 134.747718 
L 202.096067 127.984761 
L 202.24001 136.51379 
L 202.67184 127.671521 
L 202.815783 129.003195 
L 203.391555 137.56813 
L 203.535498 126.831642 
L 203.679442 124.96635 
L 203.823385 128.241125 
L 203.967328 141.027885 
L 204.111271 129.930072 
L 204.255214 128.904847 
L 204.5431 124.359835 
L 204.687044 127.23662 
L 204.97493 123.117909 
L 205.118873 129.029273 
L 205.262816 128.341044 
L 205.406759 125.440124 
L 205.838589 131.982648 
L 205.982532 140.78498 
L 206.126475 132.168767 
L 206.414361 140.430793 
L 206.558304 152.081187 
L 206.846191 135.453432 
L 207.134077 127.430271 
L 207.27802 124.163374 
L 207.421963 124.619034 
L 207.70985 149.416523 
L 207.853793 140.197092 
L 207.997736 122.134101 
L 208.285622 121.831923 
L 208.429565 126.818311 
L 208.573508 137.07573 
L 208.717452 132.832307 
L 208.861395 133.651619 
L 209.005338 138.315303 
L 209.149281 131.320372 
L 209.293224 140.582792 
L 209.437167 125.143161 
L 209.58111 127.422217 
L 209.725054 133.587602 
L 209.868997 126.576705 
L 210.01294 129.065951 
L 210.156883 128.476176 
L 210.300826 138.18567 
L 210.444769 133.199447 
L 210.588712 133.184531 
L 210.732656 142.54014 
L 210.876599 128.818606 
L 211.020542 128.537213 
L 211.164485 131.461394 
L 211.308428 138.178348 
L 211.596314 123.619784 
L 211.740258 140.310787 
L 211.884201 142.321359 
L 212.172087 128.380703 
L 212.31603 127.376508 
L 212.603916 134.829167 
L 212.74786 121.857849 
L 212.891803 122.918029 
L 213.179689 132.478711 
L 213.467575 124.087769 
L 213.755462 142.821527 
L 213.899405 124.192559 
L 214.043348 121.203735 
L 214.187291 130.103526 
L 214.331234 149.669858 
L 214.475177 136.167389 
L 214.61912 160.815848 
L 214.763064 131.34256 
L 214.907007 127.384772 
L 215.194893 139.77927 
L 215.482779 124.259491 
L 215.626722 126.982155 
L 215.770666 143.401435 
L 216.058552 129.1411 
L 216.202495 134.727027 
L 216.346438 152.568178 
L 216.490381 133.169887 
L 216.634324 133.123983 
L 216.778268 141.374609 
L 217.066154 125.315185 
L 217.210097 131.753205 
L 217.35404 150.494238 
L 217.641926 130.461142 
L 217.78587 151.073353 
L 217.929813 131.853171 
L 218.073756 133.258056 
L 218.217699 156.100069 
L 218.361642 136.584593 
L 218.505585 166.781864 
L 218.793472 138.035132 
L 218.937415 126.454583 
L 219.081358 124.048025 
L 219.225301 135.901398 
L 219.369244 136.341166 
L 219.65713 129.715293 
L 219.945017 140.085745 
L 220.08896 124.629492 
L 220.232903 122.341816 
L 220.520789 136.332809 
L 220.664732 153.904388 
L 220.808676 143.227209 
L 220.952619 145.436436 
L 221.240505 128.045409 
L 221.384448 130.546398 
L 221.672334 127.291461 
L 221.816278 141.919706 
L 221.960221 134.881661 
L 222.248107 147.827623 
L 222.39205 135.964367 
L 222.535993 138.035993 
L 222.679936 126.733041 
L 222.82388 130.431196 
L 222.967823 147.67048 
L 223.111766 135.737907 
L 223.255709 136.117806 
L 223.399652 127.229558 
L 223.687538 131.761867 
L 223.831482 143.92931 
L 223.975425 129.582192 
L 224.119368 139.169998 
L 224.407254 126.581422 
L 224.551197 128.044182 
L 224.69514 139.179766 
L 224.839084 138.043987 
L 225.12697 157.050379 
L 225.414856 126.66247 
L 225.558799 125.437805 
L 225.702742 132.060776 
L 225.846686 172.558277 
L 225.990629 141.367105 
L 226.134572 138.457069 
L 226.278515 160.706381 
L 226.566401 136.129885 
L 226.710344 138.429302 
L 226.854288 133.691786 
L 226.998231 133.343584 
L 227.142174 135.22457 
L 227.286117 139.386482 
L 227.43006 150.369985 
L 227.574003 142.017186 
L 227.717946 140.200089 
L 228.005833 152.252495 
L 228.293719 128.20994 
L 228.437662 138.00235 
L 228.581605 137.190652 
L 228.725548 128.6137 
L 229.013435 135.320051 
L 229.157378 133.56592 
L 229.301321 134.867195 
L 229.445264 137.826792 
L 229.589207 137.792618 
L 229.73315 133.029761 
L 229.877094 138.559892 
L 230.021037 131.305969 
L 230.16498 138.625583 
L 230.308923 130.684504 
L 230.452866 135.973899 
L 230.596809 149.671637 
L 231.028639 131.904569 
L 231.172582 133.830275 
L 231.316525 140.108043 
L 231.460468 138.658381 
L 231.748354 139.79048 
L 231.892298 132.738855 
L 232.036241 149.9383 
L 232.180184 129.734488 
L 232.324127 130.845992 
L 232.46807 161.841019 
L 232.755956 137.242069 
L 233.043843 131.36549 
L 233.475672 150.894884 
L 233.619615 149.234909 
L 233.763558 135.774631 
L 234.051445 131.642906 
L 234.195388 135.528847 
L 234.339331 147.331326 
L 234.483274 138.483566 
L 234.627217 136.83509 
L 234.77116 137.024865 
L 234.915104 133.859462 
L 235.059047 141.572737 
L 235.20299 139.579769 
L 235.346933 141.830879 
L 235.634819 122.564589 
L 235.778762 122.738523 
L 236.066649 130.15224 
L 236.210592 130.484742 
L 236.498478 135.75751 
L 236.642421 136.136257 
L 236.786364 128.656894 
L 236.930308 127.223887 
L 237.074251 139.946319 
L 237.218194 132.612146 
L 237.218194 132.612146 
" clip-path="url(#pa9a1e9fb90)" style="fill: none; stroke: #4477aa; stroke-linecap: square"/>
   </g>
   <g id="patch_3">
    <path d="M 41.887349 152.589249 
L 41.887349 7.059249 
" style="fill: none; stroke: #000000; stroke-width: 0.5; stroke-linejoin: miter; stroke-linecap: square"/>
   </g>
   <g id="patch_4">
    <path d="M 237.187349 152.589249 
L 237.187349 7.059249 
" style="fill: none; stroke: #000000; stroke-width: 0.5; stroke-linejoin: miter; stroke-linecap: square"/>
   </g>
   <g id="patch_5">
    <path d="M 41.887349 152.589249 
L 237.187349 152.589249 
" style="fill: none; stroke: #000000; stroke-width: 0.5; stroke-linejoin: miter; stroke-linecap: square"/>
   </g>
   <g id="patch_6">
    <path d="M 41.887349 7.059249 
L 237.187349 7.059249 
" style="fill: none; stroke: #000000; stroke-width: 0.5; stroke-linejoin: miter; stroke-linecap: square"/>
   </g>
  </g>
 </g>
 <defs>
  <clipPath id="pa9a1e9fb90">
   <rect x="41.887349" y="7.059249" width="195.3" height="145.53"/>
  </clipPath>
 </defs>
</svg>
