<?xml version="1.0" encoding="utf-8" standalone="no"?>
<!DOCTYPE svg PUBLIC "-//W3C//DTD SVG 1.1//EN"
  "http://www.w3.org/Graphics/SVG/1.1/DTD/svg11.dtd">
<svg xmlns:xlink="http://www.w3.org/1999/xlink" width="209.7pt" height="159.93pt" viewBox="0 0 209.7 159.93" xmlns="http://www.w3.org/2000/svg" version="1.1">
 <metadata>
  <rdf:RDF xmlns:dc="http://purl.org/dc/elements/1.1/" xmlns:cc="http://creativecommons.org/ns#" xmlns:rdf="http://www.w3.org/1999/02/22-rdf-syntax-ns#">
   <cc:Work>
    <dc:type rdf:resource="http://purl.org/dc/dcmitype/StillImage"/>
    <dc:date>2024-05-08T16:54:06.266906</dc:date>
    <dc:format>image/svg+xml</dc:format>
    <dc:creator>
     <cc:Agent>
      <dc:title>Matplotlib v3.7.1, https://matplotlib.org/</dc:title>
     </cc:Agent>
    </dc:creator>
   </cc:Work>
  </rdf:RDF>
 </metadata>
 <defs>
  <style type="text/css">*{stroke-linejoin: round; stroke-linecap: butt}</style>
 </defs>
 <g id="figure_1">
  <g id="patch_1">
   <path d="M 0 159.93 
L 209.7 159.93 
L 209.7 0 
L 0 0 
L 0 159.93 
z
" style="fill: none"/>
  </g>
  <g id="axes_1">
   <g id="LineCollection_1">
    <path d="M 44.32314 140.101364 
L 64.49876 140.101364 
" clip-path="url(#pdccb662687)" style="fill: none; stroke: #000000"/>
    <path d="M 44.32314 140.101364 
L 44.32314 120.055909 
" clip-path="url(#pdccb662687)" style="fill: none; stroke: #000000"/>
    <path d="M 44.32314 140.101364 
L 24.147521 140.101364 
" clip-path="url(#pdccb662687)" style="fill: none; stroke: #000000"/>
    <path d="M 64.49876 140.101364 
L 44.32314 140.101364 
" clip-path="url(#pdccb662687)" style="fill: none; stroke: #000000"/>
    <path d="M 64.49876 140.101364 
L 84.67438 140.101364 
" clip-path="url(#pdccb662687)" style="fill: none; stroke: #000000"/>
    <path d="M 64.49876 140.101364 
L 64.49876 120.055909 
" clip-path="url(#pdccb662687)" style="fill: none; stroke: #000000"/>
    <path d="M 84.67438 140.101364 
L 64.49876 140.101364 
" clip-path="url(#pdccb662687)" style="fill: none; stroke: #000000"/>
    <path d="M 84.67438 140.101364 
L 104.85 140.101364 
" clip-path="url(#pdccb662687)" style="fill: none; stroke: #000000"/>
    <path d="M 84.67438 140.101364 
L 84.67438 120.055909 
" clip-path="url(#pdccb662687)" style="fill: none; stroke: #000000"/>
    <path d="M 104.85 140.101364 
L 84.67438 140.101364 
" clip-path="url(#pdccb662687)" style="fill: none; stroke: #000000"/>
    <path d="M 104.85 140.101364 
L 125.02562 140.101364 
" clip-path="url(#pdccb662687)" style="fill: none; stroke: #000000"/>
    <path d="M 104.85 140.101364 
L 104.85 120.055909 
" clip-path="url(#pdccb662687)" style="fill: none; stroke: #000000"/>
    <path d="M 125.02562 140.101364 
L 104.85 140.101364 
" clip-path="url(#pdccb662687)" style="fill: none; stroke: #000000"/>
    <path d="M 125.02562 140.101364 
L 145.20124 140.101364 
" clip-path="url(#pdccb662687)" style="fill: none; stroke: #000000"/>
    <path d="M 125.02562 140.101364 
L 125.02562 120.055909 
" clip-path="url(#pdccb662687)" style="fill: none; stroke: #000000"/>
    <path d="M 145.20124 140.101364 
L 125.02562 140.101364 
" clip-path="url(#pdccb662687)" style="fill: none; stroke: #000000"/>
    <path d="M 145.20124 140.101364 
L 165.37686 140.101364 
" clip-path="url(#pdccb662687)" style="fill: none; stroke: #000000"/>
    <path d="M 145.20124 140.101364 
L 145.20124 120.055909 
" clip-path="url(#pdccb662687)" style="fill: none; stroke: #000000"/>
    <path d="M 165.37686 140.101364 
L 145.20124 140.101364 
" clip-path="url(#pdccb662687)" style="fill: none; stroke: #000000"/>
    <path d="M 165.37686 140.101364 
L 165.37686 120.055909 
" clip-path="url(#pdccb662687)" style="fill: none; stroke: #000000"/>
    <path d="M 44.32314 120.055909 
L 44.32314 140.101364 
" clip-path="url(#pdccb662687)" style="fill: none; stroke: #000000"/>
    <path d="M 44.32314 120.055909 
L 64.49876 120.055909 
" clip-path="url(#pdccb662687)" style="fill: none; stroke: #000000"/>
    <path d="M 44.32314 120.055909 
L 44.32314 100.010455 
" clip-path="url(#pdccb662687)" style="fill: none; stroke: #000000"/>
    <path d="M 64.49876 120.055909 
L 64.49876 140.101364 
" clip-path="url(#pdccb662687)" style="fill: none; stroke: #000000"/>
    <path d="M 64.49876 120.055909 
L 44.32314 120.055909 
" clip-path="url(#pdccb662687)" style="fill: none; stroke: #000000"/>
    <path d="M 64.49876 120.055909 
L 84.67438 120.055909 
" clip-path="url(#pdccb662687)" style="fill: none; stroke: #000000"/>
    <path d="M 64.49876 120.055909 
L 64.49876 100.010455 
" clip-path="url(#pdccb662687)" style="fill: none; stroke: #000000"/>
    <path d="M 84.67438 120.055909 
L 84.67438 140.101364 
" clip-path="url(#pdccb662687)" style="fill: none; stroke: #000000"/>
    <path d="M 84.67438 120.055909 
L 64.49876 120.055909 
" clip-path="url(#pdccb662687)" style="fill: none; stroke: #000000"/>
    <path d="M 84.67438 120.055909 
L 104.85 120.055909 
" clip-path="url(#pdccb662687)" style="fill: none; stroke: #000000"/>
    <path d="M 84.67438 120.055909 
L 84.67438 100.010455 
" clip-path="url(#pdccb662687)" style="fill: none; stroke: #000000"/>
    <path d="M 104.85 120.055909 
L 104.85 140.101364 
" clip-path="url(#pdccb662687)" style="fill: none; stroke: #000000"/>
    <path d="M 104.85 120.055909 
L 84.67438 120.055909 
" clip-path="url(#pdccb662687)" style="fill: none; stroke: #000000"/>
    <path d="M 104.85 120.055909 
L 125.02562 120.055909 
" clip-path="url(#pdccb662687)" style="fill: none; stroke: #000000"/>
    <path d="M 104.85 120.055909 
L 104.85 100.010455 
" clip-path="url(#pdccb662687)" style="fill: none; stroke: #000000"/>
    <path d="M 125.02562 120.055909 
L 125.02562 140.101364 
" clip-path="url(#pdccb662687)" style="fill: none; stroke: #000000"/>
    <path d="M 125.02562 120.055909 
L 104.85 120.055909 
" clip-path="url(#pdccb662687)" style="fill: none; stroke: #000000"/>
    <path d="M 125.02562 120.055909 
L 145.20124 120.055909 
" clip-path="url(#pdccb662687)" style="fill: none; stroke: #000000"/>
    <path d="M 125.02562 120.055909 
L 125.02562 100.010455 
" clip-path="url(#pdccb662687)" style="fill: none; stroke: #000000"/>
    <path d="M 145.20124 120.055909 
L 145.20124 140.101364 
" clip-path="url(#pdccb662687)" style="fill: none; stroke: #000000"/>
    <path d="M 145.20124 120.055909 
L 125.02562 120.055909 
" clip-path="url(#pdccb662687)" style="fill: none; stroke: #000000"/>
    <path d="M 145.20124 120.055909 
L 165.37686 120.055909 
" clip-path="url(#pdccb662687)" style="fill: none; stroke: #000000"/>
    <path d="M 145.20124 120.055909 
L 145.20124 100.010455 
" clip-path="url(#pdccb662687)" style="fill: none; stroke: #000000"/>
    <path d="M 165.37686 120.055909 
L 165.37686 140.101364 
" clip-path="url(#pdccb662687)" style="fill: none; stroke: #000000"/>
    <path d="M 165.37686 120.055909 
L 145.20124 120.055909 
" clip-path="url(#pdccb662687)" style="fill: none; stroke: #000000"/>
    <path d="M 165.37686 120.055909 
L 165.37686 100.010455 
" clip-path="url(#pdccb662687)" style="fill: none; stroke: #000000"/>
    <path d="M 44.32314 100.010455 
L 44.32314 120.055909 
" clip-path="url(#pdccb662687)" style="fill: none; stroke: #000000"/>
    <path d="M 44.32314 100.010455 
L 64.49876 100.010455 
" clip-path="url(#pdccb662687)" style="fill: none; stroke: #000000"/>
    <path d="M 44.32314 100.010455 
L 44.32314 79.965 
" clip-path="url(#pdccb662687)" style="fill: none; stroke: #000000"/>
    <path d="M 64.49876 100.010455 
L 64.49876 120.055909 
" clip-path="url(#pdccb662687)" style="fill: none; stroke: #000000"/>
    <path d="M 64.49876 100.010455 
L 44.32314 100.010455 
" clip-path="url(#pdccb662687)" style="fill: none; stroke: #000000"/>
    <path d="M 64.49876 100.010455 
L 84.67438 100.010455 
" clip-path="url(#pdccb662687)" style="fill: none; stroke: #000000"/>
    <path d="M 64.49876 100.010455 
L 64.49876 79.965 
" clip-path="url(#pdccb662687)" style="fill: none; stroke: #000000"/>
    <path d="M 84.67438 100.010455 
L 84.67438 120.055909 
" clip-path="url(#pdccb662687)" style="fill: none; stroke: #000000"/>
    <path d="M 84.67438 100.010455 
L 64.49876 100.010455 
" clip-path="url(#pdccb662687)" style="fill: none; stroke: #000000"/>
    <path d="M 84.67438 100.010455 
L 104.85 100.010455 
" clip-path="url(#pdccb662687)" style="fill: none; stroke: #000000"/>
    <path d="M 84.67438 100.010455 
L 84.67438 79.965 
" clip-path="url(#pdccb662687)" style="fill: none; stroke: #000000"/>
    <path d="M 104.85 100.010455 
L 104.85 120.055909 
" clip-path="url(#pdccb662687)" style="fill: none; stroke: #000000"/>
    <path d="M 104.85 100.010455 
L 84.67438 100.010455 
" clip-path="url(#pdccb662687)" style="fill: none; stroke: #000000"/>
    <path d="M 104.85 100.010455 
L 125.02562 100.010455 
" clip-path="url(#pdccb662687)" style="fill: none; stroke: #000000"/>
    <path d="M 104.85 100.010455 
L 104.85 79.965 
" clip-path="url(#pdccb662687)" style="fill: none; stroke: #000000"/>
    <path d="M 125.02562 100.010455 
L 125.02562 120.055909 
" clip-path="url(#pdccb662687)" style="fill: none; stroke: #000000"/>
    <path d="M 125.02562 100.010455 
L 104.85 100.010455 
" clip-path="url(#pdccb662687)" style="fill: none; stroke: #000000"/>
    <path d="M 125.02562 100.010455 
L 145.20124 100.010455 
" clip-path="url(#pdccb662687)" style="fill: none; stroke: #000000"/>
    <path d="M 125.02562 100.010455 
L 125.02562 79.965 
" clip-path="url(#pdccb662687)" style="fill: none; stroke: #000000"/>
    <path d="M 145.20124 100.010455 
L 145.20124 120.055909 
" clip-path="url(#pdccb662687)" style="fill: none; stroke: #000000"/>
    <path d="M 145.20124 100.010455 
L 125.02562 100.010455 
" clip-path="url(#pdccb662687)" style="fill: none; stroke: #000000"/>
    <path d="M 145.20124 100.010455 
L 165.37686 100.010455 
" clip-path="url(#pdccb662687)" style="fill: none; stroke: #000000"/>
    <path d="M 145.20124 100.010455 
L 145.20124 79.965 
" clip-path="url(#pdccb662687)" style="fill: none; stroke: #000000"/>
    <path d="M 165.37686 100.010455 
L 165.37686 120.055909 
" clip-path="url(#pdccb662687)" style="fill: none; stroke: #000000"/>
    <path d="M 165.37686 100.010455 
L 145.20124 100.010455 
" clip-path="url(#pdccb662687)" style="fill: none; stroke: #000000"/>
    <path d="M 165.37686 100.010455 
L 165.37686 79.965 
" clip-path="url(#pdccb662687)" style="fill: none; stroke: #000000"/>
    <path d="M 44.32314 79.965 
L 44.32314 100.010455 
" clip-path="url(#pdccb662687)" style="fill: none; stroke: #000000"/>
    <path d="M 44.32314 79.965 
L 64.49876 79.965 
" clip-path="url(#pdccb662687)" style="fill: none; stroke: #000000"/>
    <path d="M 44.32314 79.965 
L 44.32314 59.919545 
" clip-path="url(#pdccb662687)" style="fill: none; stroke: #000000"/>
    <path d="M 64.49876 79.965 
L 64.49876 100.010455 
" clip-path="url(#pdccb662687)" style="fill: none; stroke: #000000"/>
    <path d="M 64.49876 79.965 
L 44.32314 79.965 
" clip-path="url(#pdccb662687)" style="fill: none; stroke: #000000"/>
    <path d="M 64.49876 79.965 
L 84.67438 79.965 
" clip-path="url(#pdccb662687)" style="fill: none; stroke: #000000"/>
    <path d="M 64.49876 79.965 
L 64.49876 59.919545 
" clip-path="url(#pdccb662687)" style="fill: none; stroke: #000000"/>
    <path d="M 84.67438 79.965 
L 84.67438 100.010455 
" clip-path="url(#pdccb662687)" style="fill: none; stroke: #000000"/>
    <path d="M 84.67438 79.965 
L 64.49876 79.965 
" clip-path="url(#pdccb662687)" style="fill: none; stroke: #000000"/>
    <path d="M 84.67438 79.965 
L 104.85 79.965 
" clip-path="url(#pdccb662687)" style="fill: none; stroke: #000000"/>
    <path d="M 84.67438 79.965 
L 84.67438 59.919545 
" clip-path="url(#pdccb662687)" style="fill: none; stroke: #000000"/>
    <path d="M 104.85 79.965 
L 104.85 100.010455 
" clip-path="url(#pdccb662687)" style="fill: none; stroke: #000000"/>
    <path d="M 104.85 79.965 
L 84.67438 79.965 
" clip-path="url(#pdccb662687)" style="fill: none; stroke: #000000"/>
    <path d="M 104.85 79.965 
L 125.02562 79.965 
" clip-path="url(#pdccb662687)" style="fill: none; stroke: #000000"/>
    <path d="M 104.85 79.965 
L 104.85 59.919545 
" clip-path="url(#pdccb662687)" style="fill: none; stroke: #000000"/>
    <path d="M 125.02562 79.965 
L 125.02562 100.010455 
" clip-path="url(#pdccb662687)" style="fill: none; stroke: #000000"/>
    <path d="M 125.02562 79.965 
L 104.85 79.965 
" clip-path="url(#pdccb662687)" style="fill: none; stroke: #000000"/>
    <path d="M 125.02562 79.965 
L 145.20124 79.965 
" clip-path="url(#pdccb662687)" style="fill: none; stroke: #000000"/>
    <path d="M 125.02562 79.965 
L 125.02562 59.919545 
" clip-path="url(#pdccb662687)" style="fill: none; stroke: #000000"/>
    <path d="M 145.20124 79.965 
L 145.20124 100.010455 
" clip-path="url(#pdccb662687)" style="fill: none; stroke: #000000"/>
    <path d="M 145.20124 79.965 
L 125.02562 79.965 
" clip-path="url(#pdccb662687)" style="fill: none; stroke: #000000"/>
    <path d="M 145.20124 79.965 
L 165.37686 79.965 
" clip-path="url(#pdccb662687)" style="fill: none; stroke: #000000"/>
    <path d="M 145.20124 79.965 
L 145.20124 59.919545 
" clip-path="url(#pdccb662687)" style="fill: none; stroke: #000000"/>
    <path d="M 165.37686 79.965 
L 165.37686 100.010455 
" clip-path="url(#pdccb662687)" style="fill: none; stroke: #000000"/>
    <path d="M 165.37686 79.965 
L 145.20124 79.965 
" clip-path="url(#pdccb662687)" style="fill: none; stroke: #000000"/>
    <path d="M 165.37686 79.965 
L 165.37686 59.919545 
" clip-path="url(#pdccb662687)" style="fill: none; stroke: #000000"/>
    <path d="M 44.32314 59.919545 
L 44.32314 79.965 
" clip-path="url(#pdccb662687)" style="fill: none; stroke: #000000"/>
    <path d="M 44.32314 59.919545 
L 64.49876 59.919545 
" clip-path="url(#pdccb662687)" style="fill: none; stroke: #000000"/>
    <path d="M 44.32314 59.919545 
L 44.32314 39.874091 
" clip-path="url(#pdccb662687)" style="fill: none; stroke: #000000"/>
    <path d="M 64.49876 59.919545 
L 64.49876 79.965 
" clip-path="url(#pdccb662687)" style="fill: none; stroke: #000000"/>
    <path d="M 64.49876 59.919545 
L 44.32314 59.919545 
" clip-path="url(#pdccb662687)" style="fill: none; stroke: #000000"/>
    <path d="M 64.49876 59.919545 
L 84.67438 59.919545 
" clip-path="url(#pdccb662687)" style="fill: none; stroke: #000000"/>
    <path d="M 64.49876 59.919545 
L 64.49876 39.874091 
" clip-path="url(#pdccb662687)" style="fill: none; stroke: #000000"/>
    <path d="M 84.67438 59.919545 
L 84.67438 79.965 
" clip-path="url(#pdccb662687)" style="fill: none; stroke: #000000"/>
    <path d="M 84.67438 59.919545 
L 64.49876 59.919545 
" clip-path="url(#pdccb662687)" style="fill: none; stroke: #000000"/>
    <path d="M 84.67438 59.919545 
L 104.85 59.919545 
" clip-path="url(#pdccb662687)" style="fill: none; stroke: #000000"/>
    <path d="M 84.67438 59.919545 
L 84.67438 39.874091 
" clip-path="url(#pdccb662687)" style="fill: none; stroke: #000000"/>
    <path d="M 104.85 59.919545 
L 104.85 79.965 
" clip-path="url(#pdccb662687)" style="fill: none; stroke: #000000"/>
    <path d="M 104.85 59.919545 
L 84.67438 59.919545 
" clip-path="url(#pdccb662687)" style="fill: none; stroke: #000000"/>
    <path d="M 104.85 59.919545 
L 125.02562 59.919545 
" clip-path="url(#pdccb662687)" style="fill: none; stroke: #000000"/>
    <path d="M 104.85 59.919545 
L 104.85 39.874091 
" clip-path="url(#pdccb662687)" style="fill: none; stroke: #000000"/>
    <path d="M 125.02562 59.919545 
L 125.02562 79.965 
" clip-path="url(#pdccb662687)" style="fill: none; stroke: #000000"/>
    <path d="M 125.02562 59.919545 
L 104.85 59.919545 
" clip-path="url(#pdccb662687)" style="fill: none; stroke: #000000"/>
    <path d="M 125.02562 59.919545 
L 145.20124 59.919545 
" clip-path="url(#pdccb662687)" style="fill: none; stroke: #000000"/>
    <path d="M 125.02562 59.919545 
L 125.02562 39.874091 
" clip-path="url(#pdccb662687)" style="fill: none; stroke: #000000"/>
    <path d="M 145.20124 59.919545 
L 145.20124 79.965 
" clip-path="url(#pdccb662687)" style="fill: none; stroke: #000000"/>
    <path d="M 145.20124 59.919545 
L 125.02562 59.919545 
" clip-path="url(#pdccb662687)" style="fill: none; stroke: #000000"/>
    <path d="M 145.20124 59.919545 
L 165.37686 59.919545 
" clip-path="url(#pdccb662687)" style="fill: none; stroke: #000000"/>
    <path d="M 145.20124 59.919545 
L 145.20124 39.874091 
" clip-path="url(#pdccb662687)" style="fill: none; stroke: #000000"/>
    <path d="M 165.37686 59.919545 
L 165.37686 79.965 
" clip-path="url(#pdccb662687)" style="fill: none; stroke: #000000"/>
    <path d="M 165.37686 59.919545 
L 145.20124 59.919545 
" clip-path="url(#pdccb662687)" style="fill: none; stroke: #000000"/>
    <path d="M 165.37686 59.919545 
L 165.37686 39.874091 
" clip-path="url(#pdccb662687)" style="fill: none; stroke: #000000"/>
    <path d="M 44.32314 39.874091 
L 44.32314 59.919545 
" clip-path="url(#pdccb662687)" style="fill: none; stroke: #000000"/>
    <path d="M 44.32314 39.874091 
L 64.49876 39.874091 
" clip-path="url(#pdccb662687)" style="fill: none; stroke: #000000"/>
    <path d="M 44.32314 39.874091 
L 44.32314 19.828636 
" clip-path="url(#pdccb662687)" style="fill: none; stroke: #000000"/>
    <path d="M 64.49876 39.874091 
L 64.49876 59.919545 
" clip-path="url(#pdccb662687)" style="fill: none; stroke: #000000"/>
    <path d="M 64.49876 39.874091 
L 44.32314 39.874091 
" clip-path="url(#pdccb662687)" style="fill: none; stroke: #000000"/>
    <path d="M 64.49876 39.874091 
L 84.67438 39.874091 
" clip-path="url(#pdccb662687)" style="fill: none; stroke: #000000"/>
    <path d="M 64.49876 39.874091 
L 64.49876 19.828636 
" clip-path="url(#pdccb662687)" style="fill: none; stroke: #000000"/>
    <path d="M 84.67438 39.874091 
L 84.67438 59.919545 
" clip-path="url(#pdccb662687)" style="fill: none; stroke: #000000"/>
    <path d="M 84.67438 39.874091 
L 64.49876 39.874091 
" clip-path="url(#pdccb662687)" style="fill: none; stroke: #000000"/>
    <path d="M 84.67438 39.874091 
L 104.85 39.874091 
" clip-path="url(#pdccb662687)" style="fill: none; stroke: #000000"/>
    <path d="M 84.67438 39.874091 
L 84.67438 19.828636 
" clip-path="url(#pdccb662687)" style="fill: none; stroke: #000000"/>
    <path d="M 104.85 39.874091 
L 104.85 59.919545 
" clip-path="url(#pdccb662687)" style="fill: none; stroke: #000000"/>
    <path d="M 104.85 39.874091 
L 84.67438 39.874091 
" clip-path="url(#pdccb662687)" style="fill: none; stroke: #000000"/>
    <path d="M 104.85 39.874091 
L 125.02562 39.874091 
" clip-path="url(#pdccb662687)" style="fill: none; stroke: #000000"/>
    <path d="M 104.85 39.874091 
L 104.85 19.828636 
" clip-path="url(#pdccb662687)" style="fill: none; stroke: #000000"/>
    <path d="M 125.02562 39.874091 
L 125.02562 59.919545 
" clip-path="url(#pdccb662687)" style="fill: none; stroke: #000000"/>
    <path d="M 125.02562 39.874091 
L 104.85 39.874091 
" clip-path="url(#pdccb662687)" style="fill: none; stroke: #000000"/>
    <path d="M 125.02562 39.874091 
L 145.20124 39.874091 
" clip-path="url(#pdccb662687)" style="fill: none; stroke: #000000"/>
    <path d="M 125.02562 39.874091 
L 125.02562 19.828636 
" clip-path="url(#pdccb662687)" style="fill: none; stroke: #000000"/>
    <path d="M 145.20124 39.874091 
L 145.20124 59.919545 
" clip-path="url(#pdccb662687)" style="fill: none; stroke: #000000"/>
    <path d="M 145.20124 39.874091 
L 125.02562 39.874091 
" clip-path="url(#pdccb662687)" style="fill: none; stroke: #000000"/>
    <path d="M 145.20124 39.874091 
L 165.37686 39.874091 
" clip-path="url(#pdccb662687)" style="fill: none; stroke: #000000"/>
    <path d="M 145.20124 39.874091 
L 145.20124 19.828636 
" clip-path="url(#pdccb662687)" style="fill: none; stroke: #000000"/>
    <path d="M 165.37686 39.874091 
L 165.37686 59.919545 
" clip-path="url(#pdccb662687)" style="fill: none; stroke: #000000"/>
    <path d="M 165.37686 39.874091 
L 145.20124 39.874091 
" clip-path="url(#pdccb662687)" style="fill: none; stroke: #000000"/>
    <path d="M 165.37686 39.874091 
L 165.37686 19.828636 
" clip-path="url(#pdccb662687)" style="fill: none; stroke: #000000"/>
    <path d="M 44.32314 19.828636 
L 44.32314 39.874091 
" clip-path="url(#pdccb662687)" style="fill: none; stroke: #000000"/>
    <path d="M 44.32314 19.828636 
L 64.49876 19.828636 
" clip-path="url(#pdccb662687)" style="fill: none; stroke: #000000"/>
    <path d="M 64.49876 19.828636 
L 64.49876 39.874091 
" clip-path="url(#pdccb662687)" style="fill: none; stroke: #000000"/>
    <path d="M 64.49876 19.828636 
L 44.32314 19.828636 
" clip-path="url(#pdccb662687)" style="fill: none; stroke: #000000"/>
    <path d="M 64.49876 19.828636 
L 84.67438 19.828636 
" clip-path="url(#pdccb662687)" style="fill: none; stroke: #000000"/>
    <path d="M 84.67438 19.828636 
L 84.67438 39.874091 
" clip-path="url(#pdccb662687)" style="fill: none; stroke: #000000"/>
    <path d="M 84.67438 19.828636 
L 64.49876 19.828636 
" clip-path="url(#pdccb662687)" style="fill: none; stroke: #000000"/>
    <path d="M 84.67438 19.828636 
L 104.85 19.828636 
" clip-path="url(#pdccb662687)" style="fill: none; stroke: #000000"/>
    <path d="M 104.85 19.828636 
L 104.85 39.874091 
" clip-path="url(#pdccb662687)" style="fill: none; stroke: #000000"/>
    <path d="M 104.85 19.828636 
L 84.67438 19.828636 
" clip-path="url(#pdccb662687)" style="fill: none; stroke: #000000"/>
    <path d="M 104.85 19.828636 
L 125.02562 19.828636 
" clip-path="url(#pdccb662687)" style="fill: none; stroke: #000000"/>
    <path d="M 125.02562 19.828636 
L 125.02562 39.874091 
" clip-path="url(#pdccb662687)" style="fill: none; stroke: #000000"/>
    <path d="M 125.02562 19.828636 
L 104.85 19.828636 
" clip-path="url(#pdccb662687)" style="fill: none; stroke: #000000"/>
    <path d="M 125.02562 19.828636 
L 145.20124 19.828636 
" clip-path="url(#pdccb662687)" style="fill: none; stroke: #000000"/>
    <path d="M 145.20124 19.828636 
L 145.20124 39.874091 
" clip-path="url(#pdccb662687)" style="fill: none; stroke: #000000"/>
    <path d="M 145.20124 19.828636 
L 125.02562 19.828636 
" clip-path="url(#pdccb662687)" style="fill: none; stroke: #000000"/>
    <path d="M 145.20124 19.828636 
L 165.37686 19.828636 
" clip-path="url(#pdccb662687)" style="fill: none; stroke: #000000"/>
    <path d="M 165.37686 19.828636 
L 165.37686 39.874091 
" clip-path="url(#pdccb662687)" style="fill: none; stroke: #000000"/>
    <path d="M 165.37686 19.828636 
L 145.20124 19.828636 
" clip-path="url(#pdccb662687)" style="fill: none; stroke: #000000"/>
    <path d="M 165.37686 19.828636 
L 185.552479 19.828636 
" clip-path="url(#pdccb662687)" style="fill: none; stroke: #000000"/>
    <path d="M 24.147521 140.101364 
L 44.32314 140.101364 
" clip-path="url(#pdccb662687)" style="fill: none; stroke: #000000"/>
    <path d="M 185.552479 19.828636 
L 165.37686 19.828636 
" clip-path="url(#pdccb662687)" style="fill: none; stroke: #000000"/>
   </g>
   <g id="PathCollection_1">
    <path d="M 44.32314 146.225088 
C 45.947171 146.225088 47.504904 145.579854 48.653268 144.431491 
C 49.801631 143.283128 50.446865 141.725394 50.446865 140.101364 
C 50.446865 138.477333 49.801631 136.9196 48.653268 135.771237 
C 47.504904 134.622874 45.947171 133.977639 44.32314 133.977639 
C 42.69911 133.977639 41.141377 134.622874 39.993013 135.771237 
C 38.84465 136.9196 38.199416 138.477333 38.199416 140.101364 
C 38.199416 141.725394 38.84465 143.283128 39.993013 144.431491 
C 41.141377 145.579854 42.69911 146.225088 44.32314 146.225088 
z
" clip-path="url(#pdccb662687)" style="fill: #348abd; stroke: #348abd"/>
    <path d="M 64.49876 146.225088 
C 66.122791 146.225088 67.680524 145.579854 68.828887 144.431491 
C 69.97725 143.283128 70.622485 141.725394 70.622485 140.101364 
C 70.622485 138.477333 69.97725 136.9196 68.828887 135.771237 
C 67.680524 134.622874 66.122791 133.977639 64.49876 133.977639 
C 62.87473 133.977639 61.316996 134.622874 60.168633 135.771237 
C 59.02027 136.9196 58.375036 138.477333 58.375036 140.101364 
C 58.375036 141.725394 59.02027 143.283128 60.168633 144.431491 
C 61.316996 145.579854 62.87473 146.225088 64.49876 146.225088 
z
" clip-path="url(#pdccb662687)" style="fill: #348abd; stroke: #348abd"/>
    <path d="M 84.67438 146.225088 
C 86.298411 146.225088 87.856144 145.579854 89.004507 144.431491 
C 90.15287 143.283128 90.798105 141.725394 90.798105 140.101364 
C 90.798105 138.477333 90.15287 136.9196 89.004507 135.771237 
C 87.856144 134.622874 86.298411 133.977639 84.67438 133.977639 
C 83.050349 133.977639 81.492616 134.622874 80.344253 135.771237 
C 79.19589 136.9196 78.550656 138.477333 78.550656 140.101364 
C 78.550656 141.725394 79.19589 143.283128 80.344253 144.431491 
C 81.492616 145.579854 83.050349 146.225088 84.67438 146.225088 
z
" clip-path="url(#pdccb662687)" style="fill: #348abd; stroke: #348abd"/>
    <path d="M 104.85 146.225088 
C 106.474031 146.225088 108.031764 145.579854 109.180127 144.431491 
C 110.32849 143.283128 110.973724 141.725394 110.973724 140.101364 
C 110.973724 138.477333 110.32849 136.9196 109.180127 135.771237 
C 108.031764 134.622874 106.474031 133.977639 104.85 133.977639 
C 103.225969 133.977639 101.668236 134.622874 100.519873 135.771237 
C 99.37151 136.9196 98.726276 138.477333 98.726276 140.101364 
C 98.726276 141.725394 99.37151 143.283128 100.519873 144.431491 
C 101.668236 145.579854 103.225969 146.225088 104.85 146.225088 
z
" clip-path="url(#pdccb662687)" style="fill: #348abd; stroke: #348abd"/>
    <path d="M 125.02562 146.225088 
C 126.649651 146.225088 128.207384 145.579854 129.355747 144.431491 
C 130.50411 143.283128 131.149344 141.725394 131.149344 140.101364 
C 131.149344 138.477333 130.50411 136.9196 129.355747 135.771237 
C 128.207384 134.622874 126.649651 133.977639 125.02562 133.977639 
C 123.401589 133.977639 121.843856 134.622874 120.695493 135.771237 
C 119.54713 136.9196 118.901895 138.477333 118.901895 140.101364 
C 118.901895 141.725394 119.54713 143.283128 120.695493 144.431491 
C 121.843856 145.579854 123.401589 146.225088 125.02562 146.225088 
z
" clip-path="url(#pdccb662687)" style="fill: #348abd; stroke: #348abd"/>
    <path d="M 145.20124 146.225088 
C 146.82527 146.225088 148.383004 145.579854 149.531367 144.431491 
C 150.67973 143.283128 151.324964 141.725394 151.324964 140.101364 
C 151.324964 138.477333 150.67973 136.9196 149.531367 135.771237 
C 148.383004 134.622874 146.82527 133.977639 145.20124 133.977639 
C 143.577209 133.977639 142.019476 134.622874 140.871113 135.771237 
C 139.72275 136.9196 139.077515 138.477333 139.077515 140.101364 
C 139.077515 141.725394 139.72275 143.283128 140.871113 144.431491 
C 142.019476 145.579854 143.577209 146.225088 145.20124 146.225088 
z
" clip-path="url(#pdccb662687)" style="fill: #348abd; stroke: #348abd"/>
    <path d="M 165.37686 146.225088 
C 167.00089 146.225088 168.558623 145.579854 169.706987 144.431491 
C 170.85535 143.283128 171.500584 141.725394 171.500584 140.101364 
C 171.500584 138.477333 170.85535 136.9196 169.706987 135.771237 
C 168.558623 134.622874 167.00089 133.977639 165.37686 133.977639 
C 163.752829 133.977639 162.195096 134.622874 161.046732 135.771237 
C 159.898369 136.9196 159.253135 138.477333 159.253135 140.101364 
C 159.253135 141.725394 159.898369 143.283128 161.046732 144.431491 
C 162.195096 145.579854 163.752829 146.225088 165.37686 146.225088 
z
" clip-path="url(#pdccb662687)" style="fill: #348abd; stroke: #348abd"/>
    <path d="M 44.32314 126.179633 
C 45.947171 126.179633 47.504904 125.534399 48.653268 124.386036 
C 49.801631 123.237673 50.446865 121.67994 50.446865 120.055909 
C 50.446865 118.431878 49.801631 116.874145 48.653268 115.725782 
C 47.504904 114.577419 45.947171 113.932185 44.32314 113.932185 
C 42.69911 113.932185 41.141377 114.577419 39.993013 115.725782 
C 38.84465 116.874145 38.199416 118.431878 38.199416 120.055909 
C 38.199416 121.67994 38.84465 123.237673 39.993013 124.386036 
C 41.141377 125.534399 42.69911 126.179633 44.32314 126.179633 
z
" clip-path="url(#pdccb662687)" style="fill: #348abd; stroke: #348abd"/>
    <path d="M 64.49876 126.179633 
C 66.122791 126.179633 67.680524 125.534399 68.828887 124.386036 
C 69.97725 123.237673 70.622485 121.67994 70.622485 120.055909 
C 70.622485 118.431878 69.97725 116.874145 68.828887 115.725782 
C 67.680524 114.577419 66.122791 113.932185 64.49876 113.932185 
C 62.87473 113.932185 61.316996 114.577419 60.168633 115.725782 
C 59.02027 116.874145 58.375036 118.431878 58.375036 120.055909 
C 58.375036 121.67994 59.02027 123.237673 60.168633 124.386036 
C 61.316996 125.534399 62.87473 126.179633 64.49876 126.179633 
z
" clip-path="url(#pdccb662687)" style="fill: #348abd; stroke: #348abd"/>
    <path d="M 84.67438 126.179633 
C 86.298411 126.179633 87.856144 125.534399 89.004507 124.386036 
C 90.15287 123.237673 90.798105 121.67994 90.798105 120.055909 
C 90.798105 118.431878 90.15287 116.874145 89.004507 115.725782 
C 87.856144 114.577419 86.298411 113.932185 84.67438 113.932185 
C 83.050349 113.932185 81.492616 114.577419 80.344253 115.725782 
C 79.19589 116.874145 78.550656 118.431878 78.550656 120.055909 
C 78.550656 121.67994 79.19589 123.237673 80.344253 124.386036 
C 81.492616 125.534399 83.050349 126.179633 84.67438 126.179633 
z
" clip-path="url(#pdccb662687)" style="fill: #348abd; stroke: #348abd"/>
    <path d="M 104.85 126.179633 
C 106.474031 126.179633 108.031764 125.534399 109.180127 124.386036 
C 110.32849 123.237673 110.973724 121.67994 110.973724 120.055909 
C 110.973724 118.431878 110.32849 116.874145 109.180127 115.725782 
C 108.031764 114.577419 106.474031 113.932185 104.85 113.932185 
C 103.225969 113.932185 101.668236 114.577419 100.519873 115.725782 
C 99.37151 116.874145 98.726276 118.431878 98.726276 120.055909 
C 98.726276 121.67994 99.37151 123.237673 100.519873 124.386036 
C 101.668236 125.534399 103.225969 126.179633 104.85 126.179633 
z
" clip-path="url(#pdccb662687)" style="fill: #348abd; stroke: #348abd"/>
    <path d="M 125.02562 126.179633 
C 126.649651 126.179633 128.207384 125.534399 129.355747 124.386036 
C 130.50411 123.237673 131.149344 121.67994 131.149344 120.055909 
C 131.149344 118.431878 130.50411 116.874145 129.355747 115.725782 
C 128.207384 114.577419 126.649651 113.932185 125.02562 113.932185 
C 123.401589 113.932185 121.843856 114.577419 120.695493 115.725782 
C 119.54713 116.874145 118.901895 118.431878 118.901895 120.055909 
C 118.901895 121.67994 119.54713 123.237673 120.695493 124.386036 
C 121.843856 125.534399 123.401589 126.179633 125.02562 126.179633 
z
" clip-path="url(#pdccb662687)" style="fill: #348abd; stroke: #348abd"/>
    <path d="M 145.20124 126.179633 
C 146.82527 126.179633 148.383004 125.534399 149.531367 124.386036 
C 150.67973 123.237673 151.324964 121.67994 151.324964 120.055909 
C 151.324964 118.431878 150.67973 116.874145 149.531367 115.725782 
C 148.383004 114.577419 146.82527 113.932185 145.20124 113.932185 
C 143.577209 113.932185 142.019476 114.577419 140.871113 115.725782 
C 139.72275 116.874145 139.077515 118.431878 139.077515 120.055909 
C 139.077515 121.67994 139.72275 123.237673 140.871113 124.386036 
C 142.019476 125.534399 143.577209 126.179633 145.20124 126.179633 
z
" clip-path="url(#pdccb662687)" style="fill: #348abd; stroke: #348abd"/>
    <path d="M 165.37686 126.179633 
C 167.00089 126.179633 168.558623 125.534399 169.706987 124.386036 
C 170.85535 123.237673 171.500584 121.67994 171.500584 120.055909 
C 171.500584 118.431878 170.85535 116.874145 169.706987 115.725782 
C 168.558623 114.577419 167.00089 113.932185 165.37686 113.932185 
C 163.752829 113.932185 162.195096 114.577419 161.046732 115.725782 
C 159.898369 116.874145 159.253135 118.431878 159.253135 120.055909 
C 159.253135 121.67994 159.898369 123.237673 161.046732 124.386036 
C 162.195096 125.534399 163.752829 126.179633 165.37686 126.179633 
z
" clip-path="url(#pdccb662687)" style="fill: #348abd; stroke: #348abd"/>
    <path d="M 44.32314 106.134179 
C 45.947171 106.134179 47.504904 105.488945 48.653268 104.340582 
C 49.801631 103.192218 50.446865 101.634485 50.446865 100.010455 
C 50.446865 98.386424 49.801631 96.828691 48.653268 95.680328 
C 47.504904 94.531964 45.947171 93.88673 44.32314 93.88673 
C 42.69911 93.88673 41.141377 94.531964 39.993013 95.680328 
C 38.84465 96.828691 38.199416 98.386424 38.199416 100.010455 
C 38.199416 101.634485 38.84465 103.192218 39.993013 104.340582 
C 41.141377 105.488945 42.69911 106.134179 44.32314 106.134179 
z
" clip-path="url(#pdccb662687)" style="fill: #348abd; stroke: #348abd"/>
    <path d="M 64.49876 106.134179 
C 66.122791 106.134179 67.680524 105.488945 68.828887 104.340582 
C 69.97725 103.192218 70.622485 101.634485 70.622485 100.010455 
C 70.622485 98.386424 69.97725 96.828691 68.828887 95.680328 
C 67.680524 94.531964 66.122791 93.88673 64.49876 93.88673 
C 62.87473 93.88673 61.316996 94.531964 60.168633 95.680328 
C 59.02027 96.828691 58.375036 98.386424 58.375036 100.010455 
C 58.375036 101.634485 59.02027 103.192218 60.168633 104.340582 
C 61.316996 105.488945 62.87473 106.134179 64.49876 106.134179 
z
" clip-path="url(#pdccb662687)" style="fill: #348abd; stroke: #348abd"/>
    <path d="M 84.67438 108.670709 
C 86.971106 108.670709 89.174074 107.75821 90.798105 106.134179 
C 92.422135 104.510148 93.334634 102.307181 93.334634 100.010455 
C 93.334634 97.713728 92.422135 95.510761 90.798105 93.88673 
C 89.174074 92.2627 86.971106 91.350201 84.67438 91.350201 
C 82.377654 91.350201 80.174686 92.2627 78.550656 93.88673 
C 76.926625 95.510761 76.014126 97.713728 76.014126 100.010455 
C 76.014126 102.307181 76.926625 104.510148 78.550656 106.134179 
C 80.174686 107.75821 82.377654 108.670709 84.67438 108.670709 
z
" clip-path="url(#pdccb662687)" style="fill: #348abd; stroke: #348abd"/>
    <path d="M 104.85 108.670709 
C 107.146726 108.670709 109.349694 107.75821 110.973724 106.134179 
C 112.597755 104.510148 113.510254 102.307181 113.510254 100.010455 
C 113.510254 97.713728 112.597755 95.510761 110.973724 93.88673 
C 109.349694 92.2627 107.146726 91.350201 104.85 91.350201 
C 102.553274 91.350201 100.350306 92.2627 98.726276 93.88673 
C 97.102245 95.510761 96.189746 97.713728 96.189746 100.010455 
C 96.189746 102.307181 97.102245 104.510148 98.726276 106.134179 
C 100.350306 107.75821 102.553274 108.670709 104.85 108.670709 
z
" clip-path="url(#pdccb662687)" style="fill: #348abd; stroke: #348abd"/>
    <path d="M 125.02562 108.670709 
C 127.322346 108.670709 129.525314 107.75821 131.149344 106.134179 
C 132.773375 104.510148 133.685874 102.307181 133.685874 100.010455 
C 133.685874 97.713728 132.773375 95.510761 131.149344 93.88673 
C 129.525314 92.2627 127.322346 91.350201 125.02562 91.350201 
C 122.728894 91.350201 120.525926 92.2627 118.901895 93.88673 
C 117.277865 95.510761 116.365366 97.713728 116.365366 100.010455 
C 116.365366 102.307181 117.277865 104.510148 118.901895 106.134179 
C 120.525926 107.75821 122.728894 108.670709 125.02562 108.670709 
z
" clip-path="url(#pdccb662687)" style="fill: #348abd; stroke: #348abd"/>
    <path d="M 145.20124 106.134179 
C 146.82527 106.134179 148.383004 105.488945 149.531367 104.340582 
C 150.67973 103.192218 151.324964 101.634485 151.324964 100.010455 
C 151.324964 98.386424 150.67973 96.828691 149.531367 95.680328 
C 148.383004 94.531964 146.82527 93.88673 145.20124 93.88673 
C 143.577209 93.88673 142.019476 94.531964 140.871113 95.680328 
C 139.72275 96.828691 139.077515 98.386424 139.077515 100.010455 
C 139.077515 101.634485 139.72275 103.192218 140.871113 104.340582 
C 142.019476 105.488945 143.577209 106.134179 145.20124 106.134179 
z
" clip-path="url(#pdccb662687)" style="fill: #348abd; stroke: #348abd"/>
    <path d="M 165.37686 106.134179 
C 167.00089 106.134179 168.558623 105.488945 169.706987 104.340582 
C 170.85535 103.192218 171.500584 101.634485 171.500584 100.010455 
C 171.500584 98.386424 170.85535 96.828691 169.706987 95.680328 
C 168.558623 94.531964 167.00089 93.88673 165.37686 93.88673 
C 163.752829 93.88673 162.195096 94.531964 161.046732 95.680328 
C 159.898369 96.828691 159.253135 98.386424 159.253135 100.010455 
C 159.253135 101.634485 159.898369 103.192218 161.046732 104.340582 
C 162.195096 105.488945 163.752829 106.134179 165.37686 106.134179 
z
" clip-path="url(#pdccb662687)" style="fill: #348abd; stroke: #348abd"/>
    <path d="M 44.32314 86.088724 
C 45.947171 86.088724 47.504904 85.44349 48.653268 84.295127 
C 49.801631 83.146764 50.446865 81.589031 50.446865 79.965 
C 50.446865 78.340969 49.801631 76.783236 48.653268 75.634873 
C 47.504904 74.48651 45.947171 73.841276 44.32314 73.841276 
C 42.69911 73.841276 41.141377 74.48651 39.993013 75.634873 
C 38.84465 76.783236 38.199416 78.340969 38.199416 79.965 
C 38.199416 81.589031 38.84465 83.146764 39.993013 84.295127 
C 41.141377 85.44349 42.69911 86.088724 44.32314 86.088724 
z
" clip-path="url(#pdccb662687)" style="fill: #348abd; stroke: #348abd"/>
    <path d="M 64.49876 86.088724 
C 66.122791 86.088724 67.680524 85.44349 68.828887 84.295127 
C 69.97725 83.146764 70.622485 81.589031 70.622485 79.965 
C 70.622485 78.340969 69.97725 76.783236 68.828887 75.634873 
C 67.680524 74.48651 66.122791 73.841276 64.49876 73.841276 
C 62.87473 73.841276 61.316996 74.48651 60.168633 75.634873 
C 59.02027 76.783236 58.375036 78.340969 58.375036 79.965 
C 58.375036 81.589031 59.02027 83.146764 60.168633 84.295127 
C 61.316996 85.44349 62.87473 86.088724 64.49876 86.088724 
z
" clip-path="url(#pdccb662687)" style="fill: #348abd; stroke: #348abd"/>
    <path d="M 84.67438 88.625254 
C 86.971106 88.625254 89.174074 87.712755 90.798105 86.088724 
C 92.422135 84.464694 93.334634 82.261726 93.334634 79.965 
C 93.334634 77.668274 92.422135 75.465306 90.798105 73.841276 
C 89.174074 72.217245 86.971106 71.304746 84.67438 71.304746 
C 82.377654 71.304746 80.174686 72.217245 78.550656 73.841276 
C 76.926625 75.465306 76.014126 77.668274 76.014126 79.965 
C 76.014126 82.261726 76.926625 84.464694 78.550656 86.088724 
C 80.174686 87.712755 82.377654 88.625254 84.67438 88.625254 
z
" clip-path="url(#pdccb662687)" style="fill: #348abd; stroke: #348abd"/>
    <path d="M 104.85 88.625254 
C 107.146726 88.625254 109.349694 87.712755 110.973724 86.088724 
C 112.597755 84.464694 113.510254 82.261726 113.510254 79.965 
C 113.510254 77.668274 112.597755 75.465306 110.973724 73.841276 
C 109.349694 72.217245 107.146726 71.304746 104.85 71.304746 
C 102.553274 71.304746 100.350306 72.217245 98.726276 73.841276 
C 97.102245 75.465306 96.189746 77.668274 96.189746 79.965 
C 96.189746 82.261726 97.102245 84.464694 98.726276 86.088724 
C 100.350306 87.712755 102.553274 88.625254 104.85 88.625254 
z
" clip-path="url(#pdccb662687)" style="fill: #348abd; stroke: #348abd"/>
    <path d="M 125.02562 88.625254 
C 127.322346 88.625254 129.525314 87.712755 131.149344 86.088724 
C 132.773375 84.464694 133.685874 82.261726 133.685874 79.965 
C 133.685874 77.668274 132.773375 75.465306 131.149344 73.841276 
C 129.525314 72.217245 127.322346 71.304746 125.02562 71.304746 
C 122.728894 71.304746 120.525926 72.217245 118.901895 73.841276 
C 117.277865 75.465306 116.365366 77.668274 116.365366 79.965 
C 116.365366 82.261726 117.277865 84.464694 118.901895 86.088724 
C 120.525926 87.712755 122.728894 88.625254 125.02562 88.625254 
z
" clip-path="url(#pdccb662687)" style="fill: #348abd; stroke: #348abd"/>
    <path d="M 145.20124 86.088724 
C 146.82527 86.088724 148.383004 85.44349 149.531367 84.295127 
C 150.67973 83.146764 151.324964 81.589031 151.324964 79.965 
C 151.324964 78.340969 150.67973 76.783236 149.531367 75.634873 
C 148.383004 74.48651 146.82527 73.841276 145.20124 73.841276 
C 143.577209 73.841276 142.019476 74.48651 140.871113 75.634873 
C 139.72275 76.783236 139.077515 78.340969 139.077515 79.965 
C 139.077515 81.589031 139.72275 83.146764 140.871113 84.295127 
C 142.019476 85.44349 143.577209 86.088724 145.20124 86.088724 
z
" clip-path="url(#pdccb662687)" style="fill: #348abd; stroke: #348abd"/>
    <path d="M 165.37686 86.088724 
C 167.00089 86.088724 168.558623 85.44349 169.706987 84.295127 
C 170.85535 83.146764 171.500584 81.589031 171.500584 79.965 
C 171.500584 78.340969 170.85535 76.783236 169.706987 75.634873 
C 168.558623 74.48651 167.00089 73.841276 165.37686 73.841276 
C 163.752829 73.841276 162.195096 74.48651 161.046732 75.634873 
C 159.898369 76.783236 159.253135 78.340969 159.253135 79.965 
C 159.253135 81.589031 159.898369 83.146764 161.046732 84.295127 
C 162.195096 85.44349 163.752829 86.088724 165.37686 86.088724 
z
" clip-path="url(#pdccb662687)" style="fill: #348abd; stroke: #348abd"/>
    <path d="M 44.32314 66.04327 
C 45.947171 66.04327 47.504904 65.398036 48.653268 64.249672 
C 49.801631 63.101309 50.446865 61.543576 50.446865 59.919545 
C 50.446865 58.295515 49.801631 56.737782 48.653268 55.589418 
C 47.504904 54.441055 45.947171 53.795821 44.32314 53.795821 
C 42.69911 53.795821 41.141377 54.441055 39.993013 55.589418 
C 38.84465 56.737782 38.199416 58.295515 38.199416 59.919545 
C 38.199416 61.543576 38.84465 63.101309 39.993013 64.249672 
C 41.141377 65.398036 42.69911 66.04327 44.32314 66.04327 
z
" clip-path="url(#pdccb662687)" style="fill: #348abd; stroke: #348abd"/>
    <path d="M 64.49876 66.04327 
C 66.122791 66.04327 67.680524 65.398036 68.828887 64.249672 
C 69.97725 63.101309 70.622485 61.543576 70.622485 59.919545 
C 70.622485 58.295515 69.97725 56.737782 68.828887 55.589418 
C 67.680524 54.441055 66.122791 53.795821 64.49876 53.795821 
C 62.87473 53.795821 61.316996 54.441055 60.168633 55.589418 
C 59.02027 56.737782 58.375036 58.295515 58.375036 59.919545 
C 58.375036 61.543576 59.02027 63.101309 60.168633 64.249672 
C 61.316996 65.398036 62.87473 66.04327 64.49876 66.04327 
z
" clip-path="url(#pdccb662687)" style="fill: #348abd; stroke: #348abd"/>
    <path d="M 84.67438 68.579799 
C 86.971106 68.579799 89.174074 67.6673 90.798105 66.04327 
C 92.422135 64.419239 93.334634 62.216272 93.334634 59.919545 
C 93.334634 57.622819 92.422135 55.419852 90.798105 53.795821 
C 89.174074 52.17179 86.971106 51.259291 84.67438 51.259291 
C 82.377654 51.259291 80.174686 52.17179 78.550656 53.795821 
C 76.926625 55.419852 76.014126 57.622819 76.014126 59.919545 
C 76.014126 62.216272 76.926625 64.419239 78.550656 66.04327 
C 80.174686 67.6673 82.377654 68.579799 84.67438 68.579799 
z
" clip-path="url(#pdccb662687)" style="fill: #348abd; stroke: #348abd"/>
    <path d="M 104.85 68.579799 
C 107.146726 68.579799 109.349694 67.6673 110.973724 66.04327 
C 112.597755 64.419239 113.510254 62.216272 113.510254 59.919545 
C 113.510254 57.622819 112.597755 55.419852 110.973724 53.795821 
C 109.349694 52.17179 107.146726 51.259291 104.85 51.259291 
C 102.553274 51.259291 100.350306 52.17179 98.726276 53.795821 
C 97.102245 55.419852 96.189746 57.622819 96.189746 59.919545 
C 96.189746 62.216272 97.102245 64.419239 98.726276 66.04327 
C 100.350306 67.6673 102.553274 68.579799 104.85 68.579799 
z
" clip-path="url(#pdccb662687)" style="fill: #348abd; stroke: #348abd"/>
    <path d="M 125.02562 68.579799 
C 127.322346 68.579799 129.525314 67.6673 131.149344 66.04327 
C 132.773375 64.419239 133.685874 62.216272 133.685874 59.919545 
C 133.685874 57.622819 132.773375 55.419852 131.149344 53.795821 
C 129.525314 52.17179 127.322346 51.259291 125.02562 51.259291 
C 122.728894 51.259291 120.525926 52.17179 118.901895 53.795821 
C 117.277865 55.419852 116.365366 57.622819 116.365366 59.919545 
C 116.365366 62.216272 117.277865 64.419239 118.901895 66.04327 
C 120.525926 67.6673 122.728894 68.579799 125.02562 68.579799 
z
" clip-path="url(#pdccb662687)" style="fill: #348abd; stroke: #348abd"/>
    <path d="M 145.20124 66.04327 
C 146.82527 66.04327 148.383004 65.398036 149.531367 64.249672 
C 150.67973 63.101309 151.324964 61.543576 151.324964 59.919545 
C 151.324964 58.295515 150.67973 56.737782 149.531367 55.589418 
C 148.383004 54.441055 146.82527 53.795821 145.20124 53.795821 
C 143.577209 53.795821 142.019476 54.441055 140.871113 55.589418 
C 139.72275 56.737782 139.077515 58.295515 139.077515 59.919545 
C 139.077515 61.543576 139.72275 63.101309 140.871113 64.249672 
C 142.019476 65.398036 143.577209 66.04327 145.20124 66.04327 
z
" clip-path="url(#pdccb662687)" style="fill: #348abd; stroke: #348abd"/>
    <path d="M 165.37686 66.04327 
C 167.00089 66.04327 168.558623 65.398036 169.706987 64.249672 
C 170.85535 63.101309 171.500584 61.543576 171.500584 59.919545 
C 171.500584 58.295515 170.85535 56.737782 169.706987 55.589418 
C 168.558623 54.441055 167.00089 53.795821 165.37686 53.795821 
C 163.752829 53.795821 162.195096 54.441055 161.046732 55.589418 
C 159.898369 56.737782 159.253135 58.295515 159.253135 59.919545 
C 159.253135 61.543576 159.898369 63.101309 161.046732 64.249672 
C 162.195096 65.398036 163.752829 66.04327 165.37686 66.04327 
z
" clip-path="url(#pdccb662687)" style="fill: #348abd; stroke: #348abd"/>
    <path d="M 44.32314 45.997815 
C 45.947171 45.997815 47.504904 45.352581 48.653268 44.204218 
C 49.801631 43.055855 50.446865 41.498122 50.446865 39.874091 
C 50.446865 38.25006 49.801631 36.692327 48.653268 35.543964 
C 47.504904 34.395601 45.947171 33.750367 44.32314 33.750367 
C 42.69911 33.750367 41.141377 34.395601 39.993013 35.543964 
C 38.84465 36.692327 38.199416 38.25006 38.199416 39.874091 
C 38.199416 41.498122 38.84465 43.055855 39.993013 44.204218 
C 41.141377 45.352581 42.69911 45.997815 44.32314 45.997815 
z
" clip-path="url(#pdccb662687)" style="fill: #348abd; stroke: #348abd"/>
    <path d="M 64.49876 45.997815 
C 66.122791 45.997815 67.680524 45.352581 68.828887 44.204218 
C 69.97725 43.055855 70.622485 41.498122 70.622485 39.874091 
C 70.622485 38.25006 69.97725 36.692327 68.828887 35.543964 
C 67.680524 34.395601 66.122791 33.750367 64.49876 33.750367 
C 62.87473 33.750367 61.316996 34.395601 60.168633 35.543964 
C 59.02027 36.692327 58.375036 38.25006 58.375036 39.874091 
C 58.375036 41.498122 59.02027 43.055855 60.168633 44.204218 
C 61.316996 45.352581 62.87473 45.997815 64.49876 45.997815 
z
" clip-path="url(#pdccb662687)" style="fill: #348abd; stroke: #348abd"/>
    <path d="M 84.67438 45.997815 
C 86.298411 45.997815 87.856144 45.352581 89.004507 44.204218 
C 90.15287 43.055855 90.798105 41.498122 90.798105 39.874091 
C 90.798105 38.25006 90.15287 36.692327 89.004507 35.543964 
C 87.856144 34.395601 86.298411 33.750367 84.67438 33.750367 
C 83.050349 33.750367 81.492616 34.395601 80.344253 35.543964 
C 79.19589 36.692327 78.550656 38.25006 78.550656 39.874091 
C 78.550656 41.498122 79.19589 43.055855 80.344253 44.204218 
C 81.492616 45.352581 83.050349 45.997815 84.67438 45.997815 
z
" clip-path="url(#pdccb662687)" style="fill: #348abd; stroke: #348abd"/>
    <path d="M 104.85 45.997815 
C 106.474031 45.997815 108.031764 45.352581 109.180127 44.204218 
C 110.32849 43.055855 110.973724 41.498122 110.973724 39.874091 
C 110.973724 38.25006 110.32849 36.692327 109.180127 35.543964 
C 108.031764 34.395601 106.474031 33.750367 104.85 33.750367 
C 103.225969 33.750367 101.668236 34.395601 100.519873 35.543964 
C 99.37151 36.692327 98.726276 38.25006 98.726276 39.874091 
C 98.726276 41.498122 99.37151 43.055855 100.519873 44.204218 
C 101.668236 45.352581 103.225969 45.997815 104.85 45.997815 
z
" clip-path="url(#pdccb662687)" style="fill: #348abd; stroke: #348abd"/>
    <path d="M 125.02562 45.997815 
C 126.649651 45.997815 128.207384 45.352581 129.355747 44.204218 
C 130.50411 43.055855 131.149344 41.498122 131.149344 39.874091 
C 131.149344 38.25006 130.50411 36.692327 129.355747 35.543964 
C 128.207384 34.395601 126.649651 33.750367 125.02562 33.750367 
C 123.401589 33.750367 121.843856 34.395601 120.695493 35.543964 
C 119.54713 36.692327 118.901895 38.25006 118.901895 39.874091 
C 118.901895 41.498122 119.54713 43.055855 120.695493 44.204218 
C 121.843856 45.352581 123.401589 45.997815 125.02562 45.997815 
z
" clip-path="url(#pdccb662687)" style="fill: #348abd; stroke: #348abd"/>
    <path d="M 145.20124 45.997815 
C 146.82527 45.997815 148.383004 45.352581 149.531367 44.204218 
C 150.67973 43.055855 151.324964 41.498122 151.324964 39.874091 
C 151.324964 38.25006 150.67973 36.692327 149.531367 35.543964 
C 148.383004 34.395601 146.82527 33.750367 145.20124 33.750367 
C 143.577209 33.750367 142.019476 34.395601 140.871113 35.543964 
C 139.72275 36.692327 139.077515 38.25006 139.077515 39.874091 
C 139.077515 41.498122 139.72275 43.055855 140.871113 44.204218 
C 142.019476 45.352581 143.577209 45.997815 145.20124 45.997815 
z
" clip-path="url(#pdccb662687)" style="fill: #348abd; stroke: #348abd"/>
    <path d="M 165.37686 45.997815 
C 167.00089 45.997815 168.558623 45.352581 169.706987 44.204218 
C 170.85535 43.055855 171.500584 41.498122 171.500584 39.874091 
C 171.500584 38.25006 170.85535 36.692327 169.706987 35.543964 
C 168.558623 34.395601 167.00089 33.750367 165.37686 33.750367 
C 163.752829 33.750367 162.195096 34.395601 161.046732 35.543964 
C 159.898369 36.692327 159.253135 38.25006 159.253135 39.874091 
C 159.253135 41.498122 159.898369 43.055855 161.046732 44.204218 
C 162.195096 45.352581 163.752829 45.997815 165.37686 45.997815 
z
" clip-path="url(#pdccb662687)" style="fill: #348abd; stroke: #348abd"/>
    <path d="M 44.32314 25.952361 
C 45.947171 25.952361 47.504904 25.307126 48.653268 24.158763 
C 49.801631 23.0104 50.446865 21.452667 50.446865 19.828636 
C 50.446865 18.204606 49.801631 16.646872 48.653268 15.498509 
C 47.504904 14.350146 45.947171 13.704912 44.32314 13.704912 
C 42.69911 13.704912 41.141377 14.350146 39.993013 15.498509 
C 38.84465 16.646872 38.199416 18.204606 38.199416 19.828636 
C 38.199416 21.452667 38.84465 23.0104 39.993013 24.158763 
C 41.141377 25.307126 42.69911 25.952361 44.32314 25.952361 
z
" clip-path="url(#pdccb662687)" style="fill: #348abd; stroke: #348abd"/>
    <path d="M 64.49876 25.952361 
C 66.122791 25.952361 67.680524 25.307126 68.828887 24.158763 
C 69.97725 23.0104 70.622485 21.452667 70.622485 19.828636 
C 70.622485 18.204606 69.97725 16.646872 68.828887 15.498509 
C 67.680524 14.350146 66.122791 13.704912 64.49876 13.704912 
C 62.87473 13.704912 61.316996 14.350146 60.168633 15.498509 
C 59.02027 16.646872 58.375036 18.204606 58.375036 19.828636 
C 58.375036 21.452667 59.02027 23.0104 60.168633 24.158763 
C 61.316996 25.307126 62.87473 25.952361 64.49876 25.952361 
z
" clip-path="url(#pdccb662687)" style="fill: #348abd; stroke: #348abd"/>
    <path d="M 84.67438 25.952361 
C 86.298411 25.952361 87.856144 25.307126 89.004507 24.158763 
C 90.15287 23.0104 90.798105 21.452667 90.798105 19.828636 
C 90.798105 18.204606 90.15287 16.646872 89.004507 15.498509 
C 87.856144 14.350146 86.298411 13.704912 84.67438 13.704912 
C 83.050349 13.704912 81.492616 14.350146 80.344253 15.498509 
C 79.19589 16.646872 78.550656 18.204606 78.550656 19.828636 
C 78.550656 21.452667 79.19589 23.0104 80.344253 24.158763 
C 81.492616 25.307126 83.050349 25.952361 84.67438 25.952361 
z
" clip-path="url(#pdccb662687)" style="fill: #348abd; stroke: #348abd"/>
    <path d="M 104.85 25.952361 
C 106.474031 25.952361 108.031764 25.307126 109.180127 24.158763 
C 110.32849 23.0104 110.973724 21.452667 110.973724 19.828636 
C 110.973724 18.204606 110.32849 16.646872 109.180127 15.498509 
C 108.031764 14.350146 106.474031 13.704912 104.85 13.704912 
C 103.225969 13.704912 101.668236 14.350146 100.519873 15.498509 
C 99.37151 16.646872 98.726276 18.204606 98.726276 19.828636 
C 98.726276 21.452667 99.37151 23.0104 100.519873 24.158763 
C 101.668236 25.307126 103.225969 25.952361 104.85 25.952361 
z
" clip-path="url(#pdccb662687)" style="fill: #348abd; stroke: #348abd"/>
    <path d="M 125.02562 25.952361 
C 126.649651 25.952361 128.207384 25.307126 129.355747 24.158763 
C 130.50411 23.0104 131.149344 21.452667 131.149344 19.828636 
C 131.149344 18.204606 130.50411 16.646872 129.355747 15.498509 
C 128.207384 14.350146 126.649651 13.704912 125.02562 13.704912 
C 123.401589 13.704912 121.843856 14.350146 120.695493 15.498509 
C 119.54713 16.646872 118.901895 18.204606 118.901895 19.828636 
C 118.901895 21.452667 119.54713 23.0104 120.695493 24.158763 
C 121.843856 25.307126 123.401589 25.952361 125.02562 25.952361 
z
" clip-path="url(#pdccb662687)" style="fill: #348abd; stroke: #348abd"/>
    <path d="M 145.20124 25.952361 
C 146.82527 25.952361 148.383004 25.307126 149.531367 24.158763 
C 150.67973 23.0104 151.324964 21.452667 151.324964 19.828636 
C 151.324964 18.204606 150.67973 16.646872 149.531367 15.498509 
C 148.383004 14.350146 146.82527 13.704912 145.20124 13.704912 
C 143.577209 13.704912 142.019476 14.350146 140.871113 15.498509 
C 139.72275 16.646872 139.077515 18.204606 139.077515 19.828636 
C 139.077515 21.452667 139.72275 23.0104 140.871113 24.158763 
C 142.019476 25.307126 143.577209 25.952361 145.20124 25.952361 
z
" clip-path="url(#pdccb662687)" style="fill: #348abd; stroke: #348abd"/>
    <path d="M 165.37686 25.952361 
C 167.00089 25.952361 168.558623 25.307126 169.706987 24.158763 
C 170.85535 23.0104 171.500584 21.452667 171.500584 19.828636 
C 171.500584 18.204606 170.85535 16.646872 169.706987 15.498509 
C 168.558623 14.350146 167.00089 13.704912 165.37686 13.704912 
C 163.752829 13.704912 162.195096 14.350146 161.046732 15.498509 
C 159.898369 16.646872 159.253135 18.204606 159.253135 19.828636 
C 159.253135 21.452667 159.898369 23.0104 161.046732 24.158763 
C 162.195096 25.307126 163.752829 25.952361 165.37686 25.952361 
z
" clip-path="url(#pdccb662687)" style="fill: #348abd; stroke: #348abd"/>
    <path d="M 24.147521 146.225088 
C 25.771551 146.225088 27.329285 145.579854 28.477648 144.431491 
C 29.626011 143.283128 30.271245 141.725394 30.271245 140.101364 
C 30.271245 138.477333 29.626011 136.9196 28.477648 135.771237 
C 27.329285 134.622874 25.771551 133.977639 24.147521 133.977639 
C 22.52349 133.977639 20.965757 134.622874 19.817394 135.771237 
C 18.669031 136.9196 18.023796 138.477333 18.023796 140.101364 
C 18.023796 141.725394 18.669031 143.283128 19.817394 144.431491 
C 20.965757 145.579854 22.52349 146.225088 24.147521 146.225088 
L 24.147521 146.225088 
z
" clip-path="url(#pdccb662687)" style="fill: none"/>
    <path d="M 185.552479 25.952361 
C 187.17651 25.952361 188.734243 25.307126 189.882606 24.158763 
C 191.030969 23.0104 191.676204 21.452667 191.676204 19.828636 
C 191.676204 18.204606 191.030969 16.646872 189.882606 15.498509 
C 188.734243 14.350146 187.17651 13.704912 185.552479 13.704912 
C 183.928449 13.704912 182.370715 14.350146 181.222352 15.498509 
C 180.073989 16.646872 179.428755 18.204606 179.428755 19.828636 
C 179.428755 21.452667 180.073989 23.0104 181.222352 24.158763 
C 182.370715 25.307126 183.928449 25.952361 185.552479 25.952361 
L 185.552479 25.952361 
z
" clip-path="url(#pdccb662687)" style="fill: none"/>
   </g>
   <g id="text_1">
    <!-- I -->
    <g transform="translate(20.92453 146.327223) scale(0.25 -0.25)">
     <defs>
      <path id="CMSS17-49" d="M 1094 4416 
L 557 4416 
L 557 0 
L 1094 0 
L 1094 4416 
z
" transform="scale(0.015625)"/>
     </defs>
     <use xlink:href="#CMSS17-49" transform="scale(0.996264)"/>
    </g>
   </g>
   <g id="text_2">
    <!-- O -->
    <g transform="translate(176.924449 26.054496) scale(0.25 -0.25)">
     <defs>
      <path id="CMSS17-4f" d="M 4096 2178 
C 4096 3503 3219 4497 2214 4497 
C 1210 4497 333 3497 333 2178 
C 333 847 1222 -128 2214 -128 
C 3206 -128 4096 847 4096 2178 
z
M 2214 273 
C 1510 273 870 1057 870 2261 
C 870 3433 1549 4096 2214 4096 
C 2880 4096 3558 3433 3558 2261 
C 3558 1051 2912 273 2214 273 
z
" transform="scale(0.015625)"/>
     </defs>
     <use xlink:href="#CMSS17-4f" transform="scale(0.996264)"/>
    </g>
   </g>
  </g>
 </g>
 <defs>
  <clipPath id="pdccb662687">
   <rect x="7.2" y="7.2" width="195.3" height="145.53"/>
  </clipPath>
 </defs>
</svg>
