<?xml version="1.0" encoding="utf-8" standalone="no"?>
<!DOCTYPE svg PUBLIC "-//W3C//DTD SVG 1.1//EN"
  "http://www.w3.org/Graphics/SVG/1.1/DTD/svg11.dtd">
<svg xmlns:xlink="http://www.w3.org/1999/xlink" width="237.674054pt" height="179.048317pt" viewBox="0 0 237.674054 179.048317" xmlns="http://www.w3.org/2000/svg" version="1.1">
 <metadata>
  <rdf:RDF xmlns:dc="http://purl.org/dc/elements/1.1/" xmlns:cc="http://creativecommons.org/ns#" xmlns:rdf="http://www.w3.org/1999/02/22-rdf-syntax-ns#">
   <cc:Work>
    <dc:type rdf:resource="http://purl.org/dc/dcmitype/StillImage"/>
    <dc:date>2025-11-04T12:41:26.353985</dc:date>
    <dc:format>image/svg+xml</dc:format>
    <dc:creator>
     <cc:Agent>
      <dc:title>Matplotlib v3.9.2, https://matplotlib.org/</dc:title>
     </cc:Agent>
    </dc:creator>
   </cc:Work>
  </rdf:RDF>
 </metadata>
 <defs>
  <style type="text/css">*{stroke-linejoin: round; stroke-linecap: butt}</style>
 </defs>
 <g id="figure_1">
  <g id="patch_1">
   <path d="M -0 179.048317 
L 237.674054 179.048317 
L 237.674054 0 
L -0 0 
L -0 179.048317 
z
" style="fill: none"/>
  </g>
  <g id="axes_1">
   <g id="patch_2">
    <path d="M 38.774054 149.13 
L 234.074054 149.13 
L 234.074054 3.6 
L 38.774054 3.6 
L 38.774054 149.13 
z
" style="fill: none"/>
   </g>
   <g id="matplotlib.axis_1">
    <g id="xtick_1">
     <g id="line2d_1">
      <path d="M 47.651327 149.13 
L 47.651327 3.6 
" clip-path="url(#p3f285b3b59)" style="fill: none; stroke-dasharray: 1.85,0.8; stroke-dashoffset: 0; stroke: #000000; stroke-opacity: 0.5; stroke-width: 0.5"/>
     </g>
     <g id="line2d_2">
      <defs>
       <path id="m5a4efe04e8" d="M 0 0 
L 0 -3 
" style="stroke: #000000; stroke-width: 0.5"/>
      </defs>
      <g>
       <use xlink:href="#m5a4efe04e8" x="47.651327" y="149.13" style="stroke: #000000; stroke-width: 0.5"/>
      </g>
     </g>
     <g id="line2d_3">
      <defs>
       <path id="ma52dc3a3f9" d="M 0 0 
L 0 3 
" style="stroke: #000000; stroke-width: 0.5"/>
      </defs>
      <g>
       <use xlink:href="#ma52dc3a3f9" x="47.651327" y="3.6" style="stroke: #000000; stroke-width: 0.5"/>
      </g>
     </g>
     <g id="text_1">
      <!-- $\mathdefault{−20}$ -->
      <g transform="translate(38.79562 159.548498) scale(0.1 -0.1)">
       <defs>
        <path id="CMSY10-0" d="M 4218 1472 
C 4326 1472 4442 1472 4442 1600 
C 4442 1728 4326 1728 4218 1728 
L 755 1728 
C 646 1728 531 1728 531 1600 
C 531 1472 646 1472 755 1472 
L 4218 1472 
z
" transform="scale(0.015625)"/>
        <path id="CMR17-32" d="M 2669 989 
L 2554 989 
C 2490 536 2438 459 2413 420 
C 2381 369 1920 369 1830 369 
L 602 369 
C 832 619 1280 1072 1824 1597 
C 2214 1967 2669 2402 2669 3035 
C 2669 3790 2067 4224 1395 4224 
C 691 4224 262 3604 262 3030 
C 262 2780 448 2748 525 2748 
C 589 2748 781 2787 781 3010 
C 781 3207 614 3264 525 3264 
C 486 3264 448 3258 422 3245 
C 544 3790 915 4058 1306 4058 
C 1862 4058 2227 3617 2227 3035 
C 2227 2479 1901 2000 1536 1584 
L 262 146 
L 262 0 
L 2515 0 
L 2669 989 
z
" transform="scale(0.015625)"/>
        <path id="CMR17-30" d="M 2688 2025 
C 2688 2416 2682 3080 2413 3591 
C 2176 4039 1798 4198 1466 4198 
C 1158 4198 768 4058 525 3597 
C 269 3118 243 2524 243 2025 
C 243 1661 250 1106 448 619 
C 723 -39 1216 -128 1466 -128 
C 1760 -128 2208 -7 2470 600 
C 2662 1042 2688 1559 2688 2025 
z
M 1466 -26 
C 1056 -26 813 325 723 812 
C 653 1188 653 1738 653 2096 
C 653 2588 653 2997 736 3387 
C 858 3929 1216 4096 1466 4096 
C 1728 4096 2067 3923 2189 3400 
C 2272 3036 2278 2607 2278 2096 
C 2278 1680 2278 1169 2202 792 
C 2067 95 1690 -26 1466 -26 
z
" transform="scale(0.015625)"/>
       </defs>
       <use xlink:href="#CMSY10-0" transform="scale(0.996264)"/>
       <use xlink:href="#CMR17-32" transform="translate(77.487468 0) scale(0.996264)"/>
       <use xlink:href="#CMR17-30" transform="translate(123.177945 0) scale(0.996264)"/>
      </g>
     </g>
    </g>
    <g id="xtick_2">
     <g id="line2d_4">
      <path d="M 92.037691 149.13 
L 92.037691 3.6 
" clip-path="url(#p3f285b3b59)" style="fill: none; stroke-dasharray: 1.85,0.8; stroke-dashoffset: 0; stroke: #000000; stroke-opacity: 0.5; stroke-width: 0.5"/>
     </g>
     <g id="line2d_5">
      <g>
       <use xlink:href="#m5a4efe04e8" x="92.037691" y="149.13" style="stroke: #000000; stroke-width: 0.5"/>
      </g>
     </g>
     <g id="line2d_6">
      <g>
       <use xlink:href="#ma52dc3a3f9" x="92.037691" y="3.6" style="stroke: #000000; stroke-width: 0.5"/>
      </g>
     </g>
     <g id="text_2">
      <!-- $\mathdefault{−10}$ -->
      <g transform="translate(83.181984 159.548498) scale(0.1 -0.1)">
       <defs>
        <path id="CMR17-31" d="M 1702 4058 
C 1702 4192 1696 4192 1606 4192 
C 1357 3916 979 3827 621 3827 
C 602 3827 570 3827 563 3808 
C 557 3795 557 3782 557 3648 
C 755 3648 1088 3686 1344 3839 
L 1344 461 
C 1344 236 1331 160 781 160 
L 589 160 
L 589 0 
C 896 0 1216 0 1523 0 
C 1830 0 2150 0 2458 0 
L 2458 160 
L 2266 160 
C 1715 160 1702 230 1702 458 
L 1702 4058 
z
" transform="scale(0.015625)"/>
       </defs>
       <use xlink:href="#CMSY10-0" transform="scale(0.996264)"/>
       <use xlink:href="#CMR17-31" transform="translate(77.487468 0) scale(0.996264)"/>
       <use xlink:href="#CMR17-30" transform="translate(123.177945 0) scale(0.996264)"/>
      </g>
     </g>
    </g>
    <g id="xtick_3">
     <g id="line2d_7">
      <path d="M 136.424054 149.13 
L 136.424054 3.6 
" clip-path="url(#p3f285b3b59)" style="fill: none; stroke-dasharray: 1.85,0.8; stroke-dashoffset: 0; stroke: #000000; stroke-opacity: 0.5; stroke-width: 0.5"/>
     </g>
     <g id="line2d_8">
      <g>
       <use xlink:href="#m5a4efe04e8" x="136.424054" y="149.13" style="stroke: #000000; stroke-width: 0.5"/>
      </g>
     </g>
     <g id="line2d_9">
      <g>
       <use xlink:href="#ma52dc3a3f9" x="136.424054" y="3.6" style="stroke: #000000; stroke-width: 0.5"/>
      </g>
     </g>
     <g id="text_3">
      <!-- $\mathdefault{0}$ -->
      <g transform="translate(133.933387 159.548498) scale(0.1 -0.1)">
       <use xlink:href="#CMR17-30" transform="scale(0.996264)"/>
      </g>
     </g>
    </g>
    <g id="xtick_4">
     <g id="line2d_10">
      <path d="M 180.810418 149.13 
L 180.810418 3.6 
" clip-path="url(#p3f285b3b59)" style="fill: none; stroke-dasharray: 1.85,0.8; stroke-dashoffset: 0; stroke: #000000; stroke-opacity: 0.5; stroke-width: 0.5"/>
     </g>
     <g id="line2d_11">
      <g>
       <use xlink:href="#m5a4efe04e8" x="180.810418" y="149.13" style="stroke: #000000; stroke-width: 0.5"/>
      </g>
     </g>
     <g id="line2d_12">
      <g>
       <use xlink:href="#ma52dc3a3f9" x="180.810418" y="3.6" style="stroke: #000000; stroke-width: 0.5"/>
      </g>
     </g>
     <g id="text_4">
      <!-- $\mathdefault{10}$ -->
      <g transform="translate(175.829083 159.548498) scale(0.1 -0.1)">
       <use xlink:href="#CMR17-31" transform="scale(0.996264)"/>
       <use xlink:href="#CMR17-30" transform="translate(45.690477 0) scale(0.996264)"/>
      </g>
     </g>
    </g>
    <g id="xtick_5">
     <g id="line2d_13">
      <path d="M 225.196782 149.13 
L 225.196782 3.6 
" clip-path="url(#p3f285b3b59)" style="fill: none; stroke-dasharray: 1.85,0.8; stroke-dashoffset: 0; stroke: #000000; stroke-opacity: 0.5; stroke-width: 0.5"/>
     </g>
     <g id="line2d_14">
      <g>
       <use xlink:href="#m5a4efe04e8" x="225.196782" y="149.13" style="stroke: #000000; stroke-width: 0.5"/>
      </g>
     </g>
     <g id="line2d_15">
      <g>
       <use xlink:href="#ma52dc3a3f9" x="225.196782" y="3.6" style="stroke: #000000; stroke-width: 0.5"/>
      </g>
     </g>
     <g id="text_5">
      <!-- $\mathdefault{20}$ -->
      <g transform="translate(220.215446 159.548498) scale(0.1 -0.1)">
       <use xlink:href="#CMR17-32" transform="scale(0.996264)"/>
       <use xlink:href="#CMR17-30" transform="translate(45.690477 0) scale(0.996264)"/>
      </g>
     </g>
    </g>
    <g id="xtick_6">
     <g id="line2d_16">
      <defs>
       <path id="md22af85f13" d="M 0 0 
L 0 -1.5 
" style="stroke: #000000; stroke-width: 0.5"/>
      </defs>
      <g>
       <use xlink:href="#md22af85f13" x="38.774054" y="149.13" style="stroke: #000000; stroke-width: 0.5"/>
      </g>
     </g>
     <g id="line2d_17">
      <defs>
       <path id="ma44990828e" d="M 0 0 
L 0 1.5 
" style="stroke: #000000; stroke-width: 0.5"/>
      </defs>
      <g>
       <use xlink:href="#ma44990828e" x="38.774054" y="3.6" style="stroke: #000000; stroke-width: 0.5"/>
      </g>
     </g>
    </g>
    <g id="xtick_7">
     <g id="line2d_18">
      <g>
       <use xlink:href="#md22af85f13" x="56.5286" y="149.13" style="stroke: #000000; stroke-width: 0.5"/>
      </g>
     </g>
     <g id="line2d_19">
      <g>
       <use xlink:href="#ma44990828e" x="56.5286" y="3.6" style="stroke: #000000; stroke-width: 0.5"/>
      </g>
     </g>
    </g>
    <g id="xtick_8">
     <g id="line2d_20">
      <g>
       <use xlink:href="#md22af85f13" x="65.405873" y="149.13" style="stroke: #000000; stroke-width: 0.5"/>
      </g>
     </g>
     <g id="line2d_21">
      <g>
       <use xlink:href="#ma44990828e" x="65.405873" y="3.6" style="stroke: #000000; stroke-width: 0.5"/>
      </g>
     </g>
    </g>
    <g id="xtick_9">
     <g id="line2d_22">
      <g>
       <use xlink:href="#md22af85f13" x="74.283145" y="149.13" style="stroke: #000000; stroke-width: 0.5"/>
      </g>
     </g>
     <g id="line2d_23">
      <g>
       <use xlink:href="#ma44990828e" x="74.283145" y="3.6" style="stroke: #000000; stroke-width: 0.5"/>
      </g>
     </g>
    </g>
    <g id="xtick_10">
     <g id="line2d_24">
      <g>
       <use xlink:href="#md22af85f13" x="83.160418" y="149.13" style="stroke: #000000; stroke-width: 0.5"/>
      </g>
     </g>
     <g id="line2d_25">
      <g>
       <use xlink:href="#ma44990828e" x="83.160418" y="3.6" style="stroke: #000000; stroke-width: 0.5"/>
      </g>
     </g>
    </g>
    <g id="xtick_11">
     <g id="line2d_26">
      <g>
       <use xlink:href="#md22af85f13" x="100.914963" y="149.13" style="stroke: #000000; stroke-width: 0.5"/>
      </g>
     </g>
     <g id="line2d_27">
      <g>
       <use xlink:href="#ma44990828e" x="100.914963" y="3.6" style="stroke: #000000; stroke-width: 0.5"/>
      </g>
     </g>
    </g>
    <g id="xtick_12">
     <g id="line2d_28">
      <g>
       <use xlink:href="#md22af85f13" x="109.792236" y="149.13" style="stroke: #000000; stroke-width: 0.5"/>
      </g>
     </g>
     <g id="line2d_29">
      <g>
       <use xlink:href="#ma44990828e" x="109.792236" y="3.6" style="stroke: #000000; stroke-width: 0.5"/>
      </g>
     </g>
    </g>
    <g id="xtick_13">
     <g id="line2d_30">
      <g>
       <use xlink:href="#md22af85f13" x="118.669509" y="149.13" style="stroke: #000000; stroke-width: 0.5"/>
      </g>
     </g>
     <g id="line2d_31">
      <g>
       <use xlink:href="#ma44990828e" x="118.669509" y="3.6" style="stroke: #000000; stroke-width: 0.5"/>
      </g>
     </g>
    </g>
    <g id="xtick_14">
     <g id="line2d_32">
      <g>
       <use xlink:href="#md22af85f13" x="127.546782" y="149.13" style="stroke: #000000; stroke-width: 0.5"/>
      </g>
     </g>
     <g id="line2d_33">
      <g>
       <use xlink:href="#ma44990828e" x="127.546782" y="3.6" style="stroke: #000000; stroke-width: 0.5"/>
      </g>
     </g>
    </g>
    <g id="xtick_15">
     <g id="line2d_34">
      <g>
       <use xlink:href="#md22af85f13" x="145.301327" y="149.13" style="stroke: #000000; stroke-width: 0.5"/>
      </g>
     </g>
     <g id="line2d_35">
      <g>
       <use xlink:href="#ma44990828e" x="145.301327" y="3.6" style="stroke: #000000; stroke-width: 0.5"/>
      </g>
     </g>
    </g>
    <g id="xtick_16">
     <g id="line2d_36">
      <g>
       <use xlink:href="#md22af85f13" x="154.1786" y="149.13" style="stroke: #000000; stroke-width: 0.5"/>
      </g>
     </g>
     <g id="line2d_37">
      <g>
       <use xlink:href="#ma44990828e" x="154.1786" y="3.6" style="stroke: #000000; stroke-width: 0.5"/>
      </g>
     </g>
    </g>
    <g id="xtick_17">
     <g id="line2d_38">
      <g>
       <use xlink:href="#md22af85f13" x="163.055873" y="149.13" style="stroke: #000000; stroke-width: 0.5"/>
      </g>
     </g>
     <g id="line2d_39">
      <g>
       <use xlink:href="#ma44990828e" x="163.055873" y="3.6" style="stroke: #000000; stroke-width: 0.5"/>
      </g>
     </g>
    </g>
    <g id="xtick_18">
     <g id="line2d_40">
      <g>
       <use xlink:href="#md22af85f13" x="171.933145" y="149.13" style="stroke: #000000; stroke-width: 0.5"/>
      </g>
     </g>
     <g id="line2d_41">
      <g>
       <use xlink:href="#ma44990828e" x="171.933145" y="3.6" style="stroke: #000000; stroke-width: 0.5"/>
      </g>
     </g>
    </g>
    <g id="xtick_19">
     <g id="line2d_42">
      <g>
       <use xlink:href="#md22af85f13" x="189.687691" y="149.13" style="stroke: #000000; stroke-width: 0.5"/>
      </g>
     </g>
     <g id="line2d_43">
      <g>
       <use xlink:href="#ma44990828e" x="189.687691" y="3.6" style="stroke: #000000; stroke-width: 0.5"/>
      </g>
     </g>
    </g>
    <g id="xtick_20">
     <g id="line2d_44">
      <g>
       <use xlink:href="#md22af85f13" x="198.564963" y="149.13" style="stroke: #000000; stroke-width: 0.5"/>
      </g>
     </g>
     <g id="line2d_45">
      <g>
       <use xlink:href="#ma44990828e" x="198.564963" y="3.6" style="stroke: #000000; stroke-width: 0.5"/>
      </g>
     </g>
    </g>
    <g id="xtick_21">
     <g id="line2d_46">
      <g>
       <use xlink:href="#md22af85f13" x="207.442236" y="149.13" style="stroke: #000000; stroke-width: 0.5"/>
      </g>
     </g>
     <g id="line2d_47">
      <g>
       <use xlink:href="#ma44990828e" x="207.442236" y="3.6" style="stroke: #000000; stroke-width: 0.5"/>
      </g>
     </g>
    </g>
    <g id="xtick_22">
     <g id="line2d_48">
      <g>
       <use xlink:href="#md22af85f13" x="216.319509" y="149.13" style="stroke: #000000; stroke-width: 0.5"/>
      </g>
     </g>
     <g id="line2d_49">
      <g>
       <use xlink:href="#ma44990828e" x="216.319509" y="3.6" style="stroke: #000000; stroke-width: 0.5"/>
      </g>
     </g>
    </g>
    <g id="xtick_23">
     <g id="line2d_50">
      <g>
       <use xlink:href="#md22af85f13" x="234.074054" y="149.13" style="stroke: #000000; stroke-width: 0.5"/>
      </g>
     </g>
     <g id="line2d_51">
      <g>
       <use xlink:href="#ma44990828e" x="234.074054" y="3.6" style="stroke: #000000; stroke-width: 0.5"/>
      </g>
     </g>
    </g>
    <g id="text_6">
     <!-- $U$ [mV] -->
     <g transform="translate(120.164874 172.957657) scale(0.1 -0.1)">
      <defs>
       <path id="CMMI12-55" d="M 3238 1474 
C 3014 581 2272 57 1670 57 
C 1210 57 896 363 896 891 
C 896 916 896 1107 966 1387 
L 1594 3887 
C 1651 4103 1664 4167 2118 4167 
C 2234 4167 2298 4167 2298 4282 
C 2298 4352 2240 4352 2202 4352 
C 2086 4352 1952 4352 1830 4352 
L 1075 4352 
C 954 4352 819 4352 698 4352 
C 653 4352 576 4352 576 4231 
C 576 4167 621 4167 742 4167 
C 1126 4167 1126 4116 1126 4046 
C 1126 4008 1082 3824 1050 3715 
L 493 1488 
C 474 1418 435 1246 435 1075 
C 435 374 941 -128 1638 -128 
C 2285 -128 3002 384 3328 1197 
C 3373 1305 3430 1530 3469 1702 
C 3533 1933 3667 2496 3712 2662 
L 3955 3623 
C 4038 3956 4090 4167 4653 4167 
C 4704 4173 4730 4224 4730 4282 
C 4730 4352 4672 4352 4646 4352 
C 4557 4352 4442 4352 4352 4352 
L 4051 4352 
C 3654 4352 3450 4352 3443 4352 
C 3405 4352 3328 4352 3328 4231 
C 3328 4167 3379 4167 3424 4167 
C 3808 4167 3834 4020 3834 3905 
C 3834 3848 3834 3828 3808 3739 
L 3238 1474 
z
" transform="scale(0.015625)"/>
       <path id="CMR17-5b" d="M 1504 -1600 
L 1504 -1377 
L 902 -1377 
L 902 4544 
L 1504 4544 
L 1504 4767 
L 678 4767 
L 678 -1600 
L 1504 -1600 
z
" transform="scale(0.015625)"/>
       <path id="CMR17-6d" d="M 4326 1933 
C 4326 2252 4269 2790 3507 2790 
C 3072 2790 2771 2496 2656 2151 
L 2650 2151 
C 2573 2676 2195 2790 1837 2790 
C 1331 2790 1069 2400 973 2144 
L 966 2144 
L 966 2790 
L 211 2720 
L 211 2554 
C 589 2554 646 2515 646 2208 
L 646 428 
C 646 184 621 153 211 153 
L 211 -13 
C 365 0 646 0 813 0 
C 979 0 1267 0 1421 -13 
L 1421 153 
C 1011 153 986 178 986 428 
L 986 1658 
C 986 2247 1344 2688 1792 2688 
C 2266 2688 2317 2266 2317 1958 
L 2317 428 
C 2317 184 2291 153 1882 153 
L 1882 -13 
C 2035 0 2317 0 2483 0 
C 2650 0 2938 0 3091 -13 
L 3091 153 
C 2682 153 2656 178 2656 428 
L 2656 1658 
C 2656 2247 3014 2688 3462 2688 
C 3936 2688 3987 2266 3987 1958 
L 3987 428 
C 3987 184 3962 153 3552 153 
L 3552 -13 
C 3706 0 3987 0 4154 0 
C 4320 0 4608 0 4762 -13 
L 4762 153 
C 4352 153 4326 178 4326 428 
L 4326 1933 
z
" transform="scale(0.015625)"/>
       <path id="CMR17-56" d="M 3776 3745 
C 3834 3886 3936 4160 4365 4160 
L 4365 4332 
C 4218 4319 4051 4319 3891 4319 
C 3738 4319 3475 4319 3328 4332 
L 3328 4160 
C 3648 4160 3661 3936 3661 3898 
C 3661 3827 3642 3783 3622 3732 
L 2362 446 
L 1043 3886 
C 1024 3931 1011 3963 1011 3994 
C 1011 4160 1267 4160 1402 4160 
L 1402 4319 
C 1197 4319 896 4319 685 4319 
C 518 4319 218 4319 64 4332 
L 64 4160 
C 435 4160 506 4135 582 3931 
L 2106 -26 
C 2138 -115 2144 -128 2214 -128 
C 2285 -128 2291 -115 2323 -26 
L 3776 3745 
z
" transform="scale(0.015625)"/>
       <path id="CMR17-5d" d="M 915 4767 
L 90 4767 
L 90 4544 
L 691 4544 
L 691 -1377 
L 90 -1377 
L 90 -1600 
L 915 -1600 
L 915 4767 
z
" transform="scale(0.015625)"/>
      </defs>
      <use xlink:href="#CMMI12-55" transform="scale(0.996264)"/>
      <use xlink:href="#CMR17-5b" transform="translate(106.734739 0) scale(0.996264)"/>
      <use xlink:href="#CMR17-6d" transform="translate(131.605798 0) scale(0.996264)"/>
      <use xlink:href="#CMR17-56" transform="translate(208.525388 0) scale(0.996264)"/>
      <use xlink:href="#CMR17-5d" transform="translate(277.597817 0) scale(0.996264)"/>
     </g>
    </g>
   </g>
   <g id="matplotlib.axis_2">
    <g id="ytick_1">
     <g id="line2d_52">
      <path d="M 38.774054 137.198741 
L 234.074054 137.198741 
" clip-path="url(#p3f285b3b59)" style="fill: none; stroke-dasharray: 1.85,0.8; stroke-dashoffset: 0; stroke: #000000; stroke-opacity: 0.5; stroke-width: 0.5"/>
     </g>
     <g id="line2d_53">
      <defs>
       <path id="m49b47a753c" d="M 0 0 
L 3 0 
" style="stroke: #000000; stroke-width: 0.5"/>
      </defs>
      <g>
       <use xlink:href="#m49b47a753c" x="38.774054" y="137.198741" style="stroke: #000000; stroke-width: 0.5"/>
      </g>
     </g>
     <g id="line2d_54">
      <defs>
       <path id="mf7ba507a76" d="M 0 0 
L -3 0 
" style="stroke: #000000; stroke-width: 0.5"/>
      </defs>
      <g>
       <use xlink:href="#mf7ba507a76" x="234.074054" y="137.198741" style="stroke: #000000; stroke-width: 0.5"/>
      </g>
     </g>
     <g id="text_7">
      <!-- $\mathdefault{−10}$ -->
      <g transform="translate(17.56264 140.65799) scale(0.1 -0.1)">
       <use xlink:href="#CMSY10-0" transform="scale(0.996264)"/>
       <use xlink:href="#CMR17-31" transform="translate(77.487468 0) scale(0.996264)"/>
       <use xlink:href="#CMR17-30" transform="translate(123.177945 0) scale(0.996264)"/>
      </g>
     </g>
    </g>
    <g id="ytick_2">
     <g id="line2d_55">
      <path d="M 38.774054 106.18895 
L 234.074054 106.18895 
" clip-path="url(#p3f285b3b59)" style="fill: none; stroke-dasharray: 1.85,0.8; stroke-dashoffset: 0; stroke: #000000; stroke-opacity: 0.5; stroke-width: 0.5"/>
     </g>
     <g id="line2d_56">
      <g>
       <use xlink:href="#m49b47a753c" x="38.774054" y="106.18895" style="stroke: #000000; stroke-width: 0.5"/>
      </g>
     </g>
     <g id="line2d_57">
      <g>
       <use xlink:href="#mf7ba507a76" x="234.074054" y="106.18895" style="stroke: #000000; stroke-width: 0.5"/>
      </g>
     </g>
     <g id="text_8">
      <!-- $\mathdefault{−5}$ -->
      <g transform="translate(22.543975 109.648199) scale(0.1 -0.1)">
       <defs>
        <path id="CMR17-35" d="M 730 3692 
C 794 3666 1056 3584 1325 3584 
C 1920 3584 2246 3911 2432 4100 
C 2432 4157 2432 4192 2394 4192 
C 2387 4192 2374 4192 2323 4163 
C 2099 4058 1837 3973 1517 3973 
C 1325 3973 1037 3999 723 4139 
C 653 4171 640 4171 634 4171 
C 602 4171 595 4164 595 4037 
L 595 2203 
C 595 2089 595 2057 659 2057 
C 691 2057 704 2070 736 2114 
C 941 2401 1222 2522 1542 2522 
C 1766 2522 2246 2382 2246 1289 
C 2246 1085 2246 715 2054 421 
C 1894 159 1645 25 1370 25 
C 947 25 518 320 403 814 
C 429 807 480 795 506 795 
C 589 795 749 840 749 1038 
C 749 1210 627 1280 506 1280 
C 358 1280 262 1190 262 1011 
C 262 454 704 -128 1382 -128 
C 2042 -128 2669 440 2669 1264 
C 2669 2030 2170 2624 1549 2624 
C 1222 2624 947 2503 730 2274 
L 730 3692 
z
" transform="scale(0.015625)"/>
       </defs>
       <use xlink:href="#CMSY10-0" transform="scale(0.996264)"/>
       <use xlink:href="#CMR17-35" transform="translate(77.487468 0) scale(0.996264)"/>
      </g>
     </g>
    </g>
    <g id="ytick_3">
     <g id="line2d_58">
      <path d="M 38.774054 75.17916 
L 234.074054 75.17916 
" clip-path="url(#p3f285b3b59)" style="fill: none; stroke-dasharray: 1.85,0.8; stroke-dashoffset: 0; stroke: #000000; stroke-opacity: 0.5; stroke-width: 0.5"/>
     </g>
     <g id="line2d_59">
      <g>
       <use xlink:href="#m49b47a753c" x="38.774054" y="75.17916" style="stroke: #000000; stroke-width: 0.5"/>
      </g>
     </g>
     <g id="line2d_60">
      <g>
       <use xlink:href="#mf7ba507a76" x="234.074054" y="75.17916" style="stroke: #000000; stroke-width: 0.5"/>
      </g>
     </g>
     <g id="text_9">
      <!-- $\mathdefault{0}$ -->
      <g transform="translate(30.292719 78.638409) scale(0.1 -0.1)">
       <use xlink:href="#CMR17-30" transform="scale(0.996264)"/>
      </g>
     </g>
    </g>
    <g id="ytick_4">
     <g id="line2d_61">
      <path d="M 38.774054 44.16937 
L 234.074054 44.16937 
" clip-path="url(#p3f285b3b59)" style="fill: none; stroke-dasharray: 1.85,0.8; stroke-dashoffset: 0; stroke: #000000; stroke-opacity: 0.5; stroke-width: 0.5"/>
     </g>
     <g id="line2d_62">
      <g>
       <use xlink:href="#m49b47a753c" x="38.774054" y="44.16937" style="stroke: #000000; stroke-width: 0.5"/>
      </g>
     </g>
     <g id="line2d_63">
      <g>
       <use xlink:href="#mf7ba507a76" x="234.074054" y="44.16937" style="stroke: #000000; stroke-width: 0.5"/>
      </g>
     </g>
     <g id="text_10">
      <!-- $\mathdefault{5}$ -->
      <g transform="translate(30.292719 47.628619) scale(0.1 -0.1)">
       <use xlink:href="#CMR17-35" transform="scale(0.996264)"/>
      </g>
     </g>
    </g>
    <g id="ytick_5">
     <g id="line2d_64">
      <path d="M 38.774054 13.159579 
L 234.074054 13.159579 
" clip-path="url(#p3f285b3b59)" style="fill: none; stroke-dasharray: 1.85,0.8; stroke-dashoffset: 0; stroke: #000000; stroke-opacity: 0.5; stroke-width: 0.5"/>
     </g>
     <g id="line2d_65">
      <g>
       <use xlink:href="#m49b47a753c" x="38.774054" y="13.159579" style="stroke: #000000; stroke-width: 0.5"/>
      </g>
     </g>
     <g id="line2d_66">
      <g>
       <use xlink:href="#mf7ba507a76" x="234.074054" y="13.159579" style="stroke: #000000; stroke-width: 0.5"/>
      </g>
     </g>
     <g id="text_11">
      <!-- $\mathdefault{10}$ -->
      <g transform="translate(25.311384 16.618829) scale(0.1 -0.1)">
       <use xlink:href="#CMR17-31" transform="scale(0.996264)"/>
       <use xlink:href="#CMR17-30" transform="translate(45.690477 0) scale(0.996264)"/>
      </g>
     </g>
    </g>
    <g id="ytick_6">
     <g id="line2d_67">
      <defs>
       <path id="m5208c5e414" d="M 0 0 
L 1.5 0 
" style="stroke: #000000; stroke-width: 0.5"/>
      </defs>
      <g>
       <use xlink:href="#m5208c5e414" x="38.774054" y="143.400699" style="stroke: #000000; stroke-width: 0.5"/>
      </g>
     </g>
     <g id="line2d_68">
      <defs>
       <path id="m340672dc07" d="M 0 0 
L -1.5 0 
" style="stroke: #000000; stroke-width: 0.5"/>
      </defs>
      <g>
       <use xlink:href="#m340672dc07" x="234.074054" y="143.400699" style="stroke: #000000; stroke-width: 0.5"/>
      </g>
     </g>
    </g>
    <g id="ytick_7">
     <g id="line2d_69">
      <g>
       <use xlink:href="#m5208c5e414" x="38.774054" y="130.996783" style="stroke: #000000; stroke-width: 0.5"/>
      </g>
     </g>
     <g id="line2d_70">
      <g>
       <use xlink:href="#m340672dc07" x="234.074054" y="130.996783" style="stroke: #000000; stroke-width: 0.5"/>
      </g>
     </g>
    </g>
    <g id="ytick_8">
     <g id="line2d_71">
      <g>
       <use xlink:href="#m5208c5e414" x="38.774054" y="124.794824" style="stroke: #000000; stroke-width: 0.5"/>
      </g>
     </g>
     <g id="line2d_72">
      <g>
       <use xlink:href="#m340672dc07" x="234.074054" y="124.794824" style="stroke: #000000; stroke-width: 0.5"/>
      </g>
     </g>
    </g>
    <g id="ytick_9">
     <g id="line2d_73">
      <g>
       <use xlink:href="#m5208c5e414" x="38.774054" y="118.592866" style="stroke: #000000; stroke-width: 0.5"/>
      </g>
     </g>
     <g id="line2d_74">
      <g>
       <use xlink:href="#m340672dc07" x="234.074054" y="118.592866" style="stroke: #000000; stroke-width: 0.5"/>
      </g>
     </g>
    </g>
    <g id="ytick_10">
     <g id="line2d_75">
      <g>
       <use xlink:href="#m5208c5e414" x="38.774054" y="112.390908" style="stroke: #000000; stroke-width: 0.5"/>
      </g>
     </g>
     <g id="line2d_76">
      <g>
       <use xlink:href="#m340672dc07" x="234.074054" y="112.390908" style="stroke: #000000; stroke-width: 0.5"/>
      </g>
     </g>
    </g>
    <g id="ytick_11">
     <g id="line2d_77">
      <g>
       <use xlink:href="#m5208c5e414" x="38.774054" y="99.986992" style="stroke: #000000; stroke-width: 0.5"/>
      </g>
     </g>
     <g id="line2d_78">
      <g>
       <use xlink:href="#m340672dc07" x="234.074054" y="99.986992" style="stroke: #000000; stroke-width: 0.5"/>
      </g>
     </g>
    </g>
    <g id="ytick_12">
     <g id="line2d_79">
      <g>
       <use xlink:href="#m5208c5e414" x="38.774054" y="93.785034" style="stroke: #000000; stroke-width: 0.5"/>
      </g>
     </g>
     <g id="line2d_80">
      <g>
       <use xlink:href="#m340672dc07" x="234.074054" y="93.785034" style="stroke: #000000; stroke-width: 0.5"/>
      </g>
     </g>
    </g>
    <g id="ytick_13">
     <g id="line2d_81">
      <g>
       <use xlink:href="#m5208c5e414" x="38.774054" y="87.583076" style="stroke: #000000; stroke-width: 0.5"/>
      </g>
     </g>
     <g id="line2d_82">
      <g>
       <use xlink:href="#m340672dc07" x="234.074054" y="87.583076" style="stroke: #000000; stroke-width: 0.5"/>
      </g>
     </g>
    </g>
    <g id="ytick_14">
     <g id="line2d_83">
      <g>
       <use xlink:href="#m5208c5e414" x="38.774054" y="81.381118" style="stroke: #000000; stroke-width: 0.5"/>
      </g>
     </g>
     <g id="line2d_84">
      <g>
       <use xlink:href="#m340672dc07" x="234.074054" y="81.381118" style="stroke: #000000; stroke-width: 0.5"/>
      </g>
     </g>
    </g>
    <g id="ytick_15">
     <g id="line2d_85">
      <g>
       <use xlink:href="#m5208c5e414" x="38.774054" y="68.977202" style="stroke: #000000; stroke-width: 0.5"/>
      </g>
     </g>
     <g id="line2d_86">
      <g>
       <use xlink:href="#m340672dc07" x="234.074054" y="68.977202" style="stroke: #000000; stroke-width: 0.5"/>
      </g>
     </g>
    </g>
    <g id="ytick_16">
     <g id="line2d_87">
      <g>
       <use xlink:href="#m5208c5e414" x="38.774054" y="62.775244" style="stroke: #000000; stroke-width: 0.5"/>
      </g>
     </g>
     <g id="line2d_88">
      <g>
       <use xlink:href="#m340672dc07" x="234.074054" y="62.775244" style="stroke: #000000; stroke-width: 0.5"/>
      </g>
     </g>
    </g>
    <g id="ytick_17">
     <g id="line2d_89">
      <g>
       <use xlink:href="#m5208c5e414" x="38.774054" y="56.573286" style="stroke: #000000; stroke-width: 0.5"/>
      </g>
     </g>
     <g id="line2d_90">
      <g>
       <use xlink:href="#m340672dc07" x="234.074054" y="56.573286" style="stroke: #000000; stroke-width: 0.5"/>
      </g>
     </g>
    </g>
    <g id="ytick_18">
     <g id="line2d_91">
      <g>
       <use xlink:href="#m5208c5e414" x="38.774054" y="50.371328" style="stroke: #000000; stroke-width: 0.5"/>
      </g>
     </g>
     <g id="line2d_92">
      <g>
       <use xlink:href="#m340672dc07" x="234.074054" y="50.371328" style="stroke: #000000; stroke-width: 0.5"/>
      </g>
     </g>
    </g>
    <g id="ytick_19">
     <g id="line2d_93">
      <g>
       <use xlink:href="#m5208c5e414" x="38.774054" y="37.967412" style="stroke: #000000; stroke-width: 0.5"/>
      </g>
     </g>
     <g id="line2d_94">
      <g>
       <use xlink:href="#m340672dc07" x="234.074054" y="37.967412" style="stroke: #000000; stroke-width: 0.5"/>
      </g>
     </g>
    </g>
    <g id="ytick_20">
     <g id="line2d_95">
      <g>
       <use xlink:href="#m5208c5e414" x="38.774054" y="31.765454" style="stroke: #000000; stroke-width: 0.5"/>
      </g>
     </g>
     <g id="line2d_96">
      <g>
       <use xlink:href="#m340672dc07" x="234.074054" y="31.765454" style="stroke: #000000; stroke-width: 0.5"/>
      </g>
     </g>
    </g>
    <g id="ytick_21">
     <g id="line2d_97">
      <g>
       <use xlink:href="#m5208c5e414" x="38.774054" y="25.563495" style="stroke: #000000; stroke-width: 0.5"/>
      </g>
     </g>
     <g id="line2d_98">
      <g>
       <use xlink:href="#m340672dc07" x="234.074054" y="25.563495" style="stroke: #000000; stroke-width: 0.5"/>
      </g>
     </g>
    </g>
    <g id="ytick_22">
     <g id="line2d_99">
      <g>
       <use xlink:href="#m5208c5e414" x="38.774054" y="19.361537" style="stroke: #000000; stroke-width: 0.5"/>
      </g>
     </g>
     <g id="line2d_100">
      <g>
       <use xlink:href="#m340672dc07" x="234.074054" y="19.361537" style="stroke: #000000; stroke-width: 0.5"/>
      </g>
     </g>
    </g>
    <g id="ytick_23">
     <g id="line2d_101">
      <g>
       <use xlink:href="#m5208c5e414" x="38.774054" y="6.957621" style="stroke: #000000; stroke-width: 0.5"/>
      </g>
     </g>
     <g id="line2d_102">
      <g>
       <use xlink:href="#m340672dc07" x="234.074054" y="6.957621" style="stroke: #000000; stroke-width: 0.5"/>
      </g>
     </g>
    </g>
    <g id="text_12">
     <!-- $I$ [pA] -->
     <g transform="translate(11.07198 89.876846) rotate(-90) scale(0.1 -0.1)">
      <defs>
       <path id="CMMI12-49" d="M 2355 3880 
C 2413 4103 2426 4167 2893 4167 
C 3034 4167 3085 4167 3085 4288 
C 3085 4352 3014 4352 2995 4352 
C 2880 4352 2739 4352 2624 4352 
L 1837 4352 
C 1709 4352 1562 4352 1434 4352 
C 1382 4352 1312 4352 1312 4231 
C 1312 4167 1363 4167 1491 4167 
C 1888 4167 1888 4116 1888 4046 
C 1888 4002 1875 3963 1862 3906 
L 998 472 
C 941 249 928 185 461 185 
C 320 185 262 185 262 64 
C 262 0 326 0 358 0 
C 474 0 614 0 730 0 
L 1517 0 
C 1645 0 1786 0 1914 0 
C 1965 0 2042 0 2042 115 
C 2042 185 2003 185 1862 185 
C 1466 185 1466 236 1466 312 
C 1466 325 1466 357 1491 459 
L 2355 3880 
z
" transform="scale(0.015625)"/>
       <path id="CMR17-70" d="M 1408 -1063 
C 998 -1063 973 -1037 973 -789 
L 973 402 
C 1158 134 1427 -38 1766 -38 
C 2406 -38 3053 523 3053 1388 
C 3053 2191 2496 2802 1837 2802 
C 1453 2802 1139 2592 960 2338 
L 960 2802 
L 198 2732 
L 198 2567 
C 576 2567 634 2528 634 2223 
L 634 -789 
C 634 -1031 608 -1063 198 -1063 
L 198 -1228 
C 352 -1216 634 -1216 800 -1216 
C 966 -1216 1254 -1216 1408 -1228 
L 1408 -1063 
z
M 973 2012 
C 973 2102 973 2235 1222 2471 
C 1254 2497 1472 2688 1792 2688 
C 2259 2688 2643 2108 2643 1382 
C 2643 656 2234 64 1728 64 
C 1498 64 1248 172 1056 472 
C 973 612 973 650 973 752 
L 973 2012 
z
" transform="scale(0.015625)"/>
       <path id="CMR17-41" d="M 2323 4378 
C 2291 4461 2278 4480 2214 4480 
C 2150 4480 2138 4461 2106 4378 
L 749 566 
C 627 223 371 153 147 153 
L 147 -13 
C 262 0 518 0 640 0 
C 800 0 1056 0 1210 -13 
L 1210 153 
C 909 153 864 361 864 439 
C 864 497 877 530 890 569 
L 1229 1536 
L 2906 1536 
L 3290 442 
C 3322 365 3322 352 3322 327 
C 3322 153 3046 153 2925 153 
L 2925 0 
C 3110 0 3443 0 3642 0 
C 3808 0 4128 0 4282 -13 
L 4282 153 
C 3942 153 3827 153 3744 387 
L 2323 4378 
z
M 2067 3893 
L 2848 1702 
L 1286 1702 
L 2067 3893 
z
" transform="scale(0.015625)"/>
      </defs>
      <use xlink:href="#CMMI12-49" transform="scale(0.996264)"/>
      <use xlink:href="#CMR17-5b" transform="translate(80.93248 0) scale(0.996264)"/>
      <use xlink:href="#CMR17-70" transform="translate(105.803539 0) scale(0.996264)"/>
      <use xlink:href="#CMR17-41" transform="translate(156.698909 0) scale(0.996264)"/>
      <use xlink:href="#CMR17-5d" transform="translate(225.771338 0) scale(0.996264)"/>
     </g>
    </g>
   </g>
   <g id="line2d_103">
    <path d="M 136.424054 62.053325 
L 150.316986 55.934701 
L 163.854827 52.477088 
L 176.726873 51.072446 
L 188.622418 52.762498 
L 199.186373 56.07255 
L 208.241191 61.257426 
L 215.520554 64.598993 
L 220.846918 68.135824 
L 224.087123 67.091152 
L 225.196782 55.215547 
L 224.087123 35.908102 
L 220.846918 18.906015 
L 215.520554 10.215 
L 208.241191 13.709291 
L 199.186373 25.618611 
L 188.622418 41.56656 
L 176.726873 58.177639 
L 163.854827 70.564079 
L 150.316986 79.538266 
L 136.424054 86.239083 
L 122.531123 91.462112 
L 108.993282 94.820626 
L 96.121236 97.20493 
L 84.225691 95.18467 
L 73.661736 92.767006 
L 64.606918 88.610358 
L 57.327554 85.007948 
L 52.001191 81.384428 
L 48.760986 84.118295 
L 47.651327 97.686922 
L 48.760986 116.212519 
L 52.001191 132.738988 
L 57.327554 140.141368 
L 64.606918 138.083873 
L 73.661736 125.06484 
L 84.225691 108.700312 
L 96.121236 92.31746 
L 108.993282 80.570841 
L 122.531123 71.533129 
L 136.424054 63.94479 
L 150.316986 57.758523 
L 163.854827 53.386078 
L 176.726873 52.571622 
L 188.622418 54.52224 
L 199.186373 58.350109 
L 208.241191 61.932041 
L 215.520554 66.692018 
L 220.846918 69.273353 
L 224.087123 67.622577 
L 225.196782 56.745804 
L 224.087123 36.653671 
L 220.846918 18.219415 
L 215.520554 11.019728 
L 208.241191 14.663788 
L 199.186373 27.010434 
L 188.622418 42.213115 
L 176.726873 58.479121 
L 163.854827 70.588349 
L 150.316986 79.040727 
L 136.424054 85.831455 
L 122.531123 90.662572 
L 108.993282 93.613755 
L 96.121236 95.136826 
L 84.225691 93.479721 
L 73.661736 89.712746 
L 64.606918 85.819438 
L 57.327554 83.15924 
L 52.001191 82.027778 
L 48.760986 84.495186 
L 47.651327 96.213988 
L 48.760986 114.184679 
L 52.001191 132.120008 
L 57.327554 138.987718 
L 64.606918 136.05084 
L 73.661736 124.505985 
L 84.225691 108.487159 
L 96.121236 92.099036 
L 108.993282 80.942294 
L 122.531123 71.866374 
L 136.424054 64.792986 
L 150.316986 58.690012 
L 163.854827 55.141516 
L 176.726873 52.705303 
L 188.622418 55.336681 
L 199.186373 59.640201 
L 208.241191 63.984272 
L 215.520554 68.487415 
L 220.846918 71.487485 
L 224.087123 67.395307 
L 225.196782 54.715503 
L 224.087123 34.855708 
L 220.846918 17.539658 
L 215.520554 12.070816 
L 208.241191 16.515475 
L 199.186373 27.908674 
L 188.622418 43.526003 
L 176.726873 59.086096 
L 163.854827 70.328584 
L 150.316986 79.067531 
L 136.424054 85.668076 
L 122.531123 90.872916 
L 108.993282 95.355705 
L 96.121236 96.446241 
L 84.225691 94.538038 
L 73.661736 91.358084 
L 64.606918 87.432383 
L 52.001191 81.204934 
L 48.760986 82.596833 
L 47.651327 93.130262 
L 48.760986 114.452204 
L 52.001191 132.804612 
L 57.327554 139.403549 
L 64.606918 136.731386 
L 73.661736 124.598717 
L 84.225691 109.287193 
L 96.121236 93.319746 
L 108.993282 80.816072 
L 122.531123 71.297259 
L 136.424054 63.508996 
L 150.316986 57.617342 
L 163.854827 54.28074 
L 176.726873 54.025567 
L 188.622418 55.701083 
L 199.186373 60.727822 
L 208.241191 65.607625 
L 215.520554 68.775148 
L 220.846918 70.941479 
L 224.087123 68.074102 
L 225.196782 56.073212 
L 224.087123 36.952337 
L 220.846918 19.076008 
L 215.520554 11.415583 
L 208.241191 13.542125 
L 188.622418 42.951559 
L 176.726873 58.641601 
L 163.854827 70.373374 
L 150.316986 78.649635 
L 136.424054 85.459319 
L 122.531123 91.191887 
L 108.993282 94.068397 
L 96.121236 95.083403 
L 84.225691 94.390571 
L 73.661736 92.395294 
L 64.606918 86.482959 
L 57.327554 81.416486 
L 52.001191 80.917624 
L 48.760986 83.883485 
L 47.651327 97.526352 
L 48.760986 118.152464 
L 52.001191 134.897141 
L 57.327554 142.515 
L 64.606918 139.501138 
L 73.661736 126.751535 
L 84.225691 109.909172 
L 96.121236 93.45537 
L 108.993282 81.324078 
L 122.531123 71.362229 
L 136.424054 63.232057 
L 150.316986 56.553258 
L 163.854827 52.792898 
L 176.726873 50.849484 
L 188.622418 52.348396 
L 199.186373 56.220999 
L 208.241191 60.606546 
L 215.520554 63.178181 
L 220.846918 65.851706 
L 224.087123 65.897964 
L 225.196782 55.464866 
L 224.087123 36.322796 
L 220.846918 19.195471 
L 215.520554 12.077473 
L 208.241191 14.193594 
L 199.186373 27.732886 
L 188.622418 43.109334 
L 176.726873 58.972735 
L 163.854827 70.980622 
L 150.316986 79.748853 
L 136.424054 86.798494 
L 122.531123 92.450655 
L 108.993282 97.17177 
L 96.121236 97.721497 
L 84.225691 96.685217 
L 73.661736 93.209999 
L 57.327554 81.865339 
L 52.001191 80.077244 
L 48.760986 82.777096 
L 47.651327 96.299374 
L 48.760986 115.735998 
L 52.001191 133.009873 
L 57.327554 139.870631 
L 64.606918 136.493026 
L 73.661736 124.186546 
L 84.225691 109.13934 
L 96.121236 93.298966 
L 108.993282 81.189753 
L 122.531123 71.812769 
L 136.424054 64.397965 
L 136.424054 64.397965 
" clip-path="url(#p3f285b3b59)" style="fill: none; stroke: #4477aa; stroke-linecap: square"/>
   </g>
   <g id="patch_3">
    <path d="M 38.774054 149.13 
L 38.774054 3.6 
" style="fill: none; stroke: #000000; stroke-width: 0.5; stroke-linejoin: miter; stroke-linecap: square"/>
   </g>
   <g id="patch_4">
    <path d="M 234.074054 149.13 
L 234.074054 3.6 
" style="fill: none; stroke: #000000; stroke-width: 0.5; stroke-linejoin: miter; stroke-linecap: square"/>
   </g>
   <g id="patch_5">
    <path d="M 38.774054 149.13 
L 234.074054 149.13 
" style="fill: none; stroke: #000000; stroke-width: 0.5; stroke-linejoin: miter; stroke-linecap: square"/>
   </g>
   <g id="patch_6">
    <path d="M 38.774054 3.6 
L 234.074054 3.6 
" style="fill: none; stroke: #000000; stroke-width: 0.5; stroke-linejoin: miter; stroke-linecap: square"/>
   </g>
   <g id="Quiver_1">
    <path d="M 136.109188 61.33839 
L 138.936725 60.093107 
L 136.962323 57.548232 
L 145.686009 57.974242 
L 140.110989 64.697585 
L 139.566458 61.522977 
L 136.738921 62.768261 
L 136.109188 61.33839 
" clip-path="url(#p3f285b3b59)"/>
    <path d="M 224.416869 55.260371 
L 224.080512 49.407958 
L 221.005684 50.367167 
L 224.457009 42.343917 
L 228.804814 49.918927 
L 225.640338 49.31831 
L 225.976695 55.170723 
L 224.416869 55.260371 
" clip-path="url(#p3f285b3b59)"/>
    <path d="M 136.69896 86.970315 
L 134.018094 87.978183 
L 135.848949 90.628206 
L 127.1621 89.721102 
L 133.099892 83.315885 
L 133.468283 86.515719 
L 136.149149 85.507851 
L 136.69896 86.970315 
" clip-path="url(#p3f285b3b59)"/>
    <path d="M 49.527591 116.062217 
L 50.335012 120.18042 
L 53.251129 118.812609 
L 50.921123 127.230165 
L 45.585082 120.315626 
L 48.801803 120.481024 
L 47.994381 116.36282 
L 49.527591 116.062217 
" clip-path="url(#p3f285b3b59)"/>
    <path d="M 150.076887 57.015135 
L 152.411622 56.261064 
L 150.707837 53.52761 
L 159.342213 54.843559 
L 153.108828 60.961491 
L 152.89182 57.74784 
L 150.557085 58.501911 
L 150.076887 57.015135 
" clip-path="url(#p3f285b3b59)"/>
    <path d="M 220.366939 18.574506 
L 220.011848 18.094527 
L 218.447023 19.994869 
L 217.296009 13.419624 
L 223.246813 16.44396 
L 220.971806 17.384345 
L 221.326897 17.864324 
L 220.366939 18.574506 
" clip-path="url(#p3f285b3b59)"/>
    <path d="M 109.085076 94.389543 
L 107.485806 94.578775 
L 108.628771 97.590133 
L 100.411918 94.629135 
L 107.710828 89.832251 
L 107.302217 93.027198 
L 108.901487 92.837966 
L 109.085076 94.389543 
" clip-path="url(#p3f285b3b59)"/>
    <path d="M 57.131762 138.502427 
L 57.617053 138.306636 
L 56.348595 136.561264 
L 62.180463 137.029799 
L 58.306514 141.414173 
L 58.008637 139.277217 
L 57.523346 139.473009 
L 57.131762 138.502427 
" clip-path="url(#p3f285b3b59)"/>
    <path d="M 176.895601 51.942542 
L 177.961116 52.178241 
L 177.873267 48.958469 
L 184.657236 54.459555 
L 176.185986 56.586079 
L 177.623659 53.703763 
L 176.558144 53.468064 
L 176.895601 51.942542 
" clip-path="url(#p3f285b3b59)"/>
    <path d="M 208.852767 17.001529 
L 207.190706 19.092812 
L 210.123063 20.425452 
L 202.204645 24.110941 
L 204.007305 15.564913 
L 205.967554 18.120704 
L 207.629615 16.029422 
L 208.852767 17.001529 
" clip-path="url(#p3f285b3b59)"/>
    <path d="M 84.013694 95.242302 
L 83.30943 95.030305 
L 83.165706 98.059356 
L 77.183054 92.418068 
L 85.285675 91.01672 
L 83.733424 93.621777 
L 84.437688 93.833774 
L 84.013694 95.242302 
" clip-path="url(#p3f285b3b59)"/>
    <path d="M 73.018726 124.155082 
L 76.068649 119.734487 
L 73.052975 118.602958 
L 80.704373 114.391034 
L 79.483073 123.039306 
L 77.354668 120.621757 
L 74.304746 125.042352 
L 73.018726 124.155082 
" clip-path="url(#p3f285b3b59)"/>
    <path d="M 199.511693 60.124168 
L 200.115347 60.449488 
L 200.812974 57.70955 
L 205.222918 63.981024 
L 197.559772 63.746095 
L 199.464707 61.656797 
L 198.861052 61.331477 
L 199.511693 60.124168 
" clip-path="url(#p3f285b3b59)"/>
    <path d="M 189.244932 43.423523 
L 185.562246 48.280929 
L 188.524265 49.546272 
L 180.692054 53.411587 
L 182.299129 44.826629 
L 184.317219 47.337 
L 187.999904 42.479595 
L 189.244932 43.423523 
" clip-path="url(#p3f285b3b59)"/>
    <path d="M 64.269153 86.96825 
L 63.783862 86.630485 
L 62.918094 88.909414 
L 59.754009 83.105311 
L 66.295742 84.056505 
L 64.459392 85.659904 
L 64.944683 85.997668 
L 64.269153 86.96825 
" clip-path="url(#p3f285b3b59)"/>
    <path d="M 95.585445 92.886862 
L 99.050239 89.621457 
L 96.338566 87.883218 
L 104.7026 85.367842 
L 101.696481 93.568295 
L 100.121822 90.758473 
L 96.657028 94.023877 
L 95.585445 92.886862 
" clip-path="url(#p3f285b3b59)"/>
    <path d="M 215.698789 62.823091 
L 216.05388 63.001326 
L 216.411729 61.402727 
L 219.071463 64.960531 
L 214.62938 64.953636 
L 215.69741 63.711507 
L 215.342319 63.533272 
L 215.698789 62.823091 
" clip-path="url(#p3f285b3b59)"/>
    <path d="M 164.279503 71.636307 
L 161.155445 73.659707 
L 163.509836 75.857772 
L 154.8296 76.826109 
L 159.263072 69.300918 
L 160.306092 72.348336 
L 163.430151 70.324936 
L 164.279503 71.636307 
" clip-path="url(#p3f285b3b59)"/>
    <path d="M 52.181181 80.293258 
L 51.965167 80.473248 
L 52.901141 81.157312 
L 49.841054 81.877146 
L 51.10124 78.997176 
L 51.605187 80.04122 
L 51.821201 79.86123 
L 52.181181 80.293258 
" clip-path="url(#p3f285b3b59)"/>
    <path d="M 122.163297 71.123583 
L 125.222576 69.490813 
L 123.062086 67.101895 
L 131.793077 66.869566 
L 126.740345 73.993756 
L 125.958228 70.869186 
L 122.898948 72.501955 
L 122.163297 71.123583 
" clip-path="url(#p3f285b3b59)"/>
   </g>
  </g>
 </g>
 <defs>
  <clipPath id="p3f285b3b59">
   <rect x="38.774054" y="3.6" width="195.3" height="145.53"/>
  </clipPath>
 </defs>
</svg>
