<?xml version="1.0" encoding="utf-8" standalone="no"?>
<!DOCTYPE svg PUBLIC "-//W3C//DTD SVG 1.1//EN"
  "http://www.w3.org/Graphics/SVG/1.1/DTD/svg11.dtd">
<svg xmlns:xlink="http://www.w3.org/1999/xlink" width="209.339236pt" height="146.125066pt" viewBox="0 0 209.339236 146.125066" xmlns="http://www.w3.org/2000/svg" version="1.1">
 <metadata>
  <rdf:RDF xmlns:dc="http://purl.org/dc/elements/1.1/" xmlns:cc="http://creativecommons.org/ns#" xmlns:rdf="http://www.w3.org/1999/02/22-rdf-syntax-ns#">
   <cc:Work>
    <dc:type rdf:resource="http://purl.org/dc/dcmitype/StillImage"/>
    <dc:date>2026-04-15T22:27:50.436362</dc:date>
    <dc:format>image/svg+xml</dc:format>
    <dc:creator>
     <cc:Agent>
      <dc:title>Matplotlib v3.7.0, https://matplotlib.org/</dc:title>
     </cc:Agent>
    </dc:creator>
   </cc:Work>
  </rdf:RDF>
 </metadata>
 <defs>
  <style type="text/css">*{stroke-linejoin: round; stroke-linecap: butt}</style>
 </defs>
 <g id="figure_1">
  <g id="patch_1">
   <path d="M 0 146.125066 
L 209.339236 146.125066 
L 209.339236 0 
L 0 0 
L 0 146.125066 
z
" style="fill: none"/>
  </g>
  <g id="axes_1">
   <g id="patch_2">
    <path d="M 31.838925 116.206749 
L 178.313925 116.206749 
L 178.313925 7.059249 
L 31.838925 7.059249 
L 31.838925 116.206749 
z
" style="fill: none"/>
   </g>
   <g id="matplotlib.axis_1">
    <g id="xtick_1">
     <g id="line2d_1">
      <defs>
       <path id="m05cf465d97" d="M 0 0 
L 0 -3 
" style="stroke: #000000; stroke-width: 0.5"/>
      </defs>
      <g>
       <use xlink:href="#m05cf465d97" x="38.49688" y="116.206749" style="stroke: #000000; stroke-width: 0.5"/>
      </g>
     </g>
     <g id="line2d_2">
      <defs>
       <path id="m7661737554" d="M 0 0 
L 0 3 
" style="stroke: #000000; stroke-width: 0.5"/>
      </defs>
      <g>
       <use xlink:href="#m7661737554" x="38.49688" y="7.059249" style="stroke: #000000; stroke-width: 0.5"/>
      </g>
     </g>
     <g id="text_1">
      <!-- $\mathdefault{0}$ -->
      <g transform="translate(36.006212 126.625248) scale(0.1 -0.1)">
       <defs>
        <path id="CMR17-30" d="M 2688 2025 
C 2688 2416 2682 3080 2413 3591 
C 2176 4039 1798 4198 1466 4198 
C 1158 4198 768 4058 525 3597 
C 269 3118 243 2524 243 2025 
C 243 1661 250 1106 448 619 
C 723 -39 1216 -128 1466 -128 
C 1760 -128 2208 -7 2470 600 
C 2662 1042 2688 1559 2688 2025 
z
M 1466 -26 
C 1056 -26 813 325 723 812 
C 653 1188 653 1738 653 2096 
C 653 2588 653 2997 736 3387 
C 858 3929 1216 4096 1466 4096 
C 1728 4096 2067 3923 2189 3400 
C 2272 3036 2278 2607 2278 2096 
C 2278 1680 2278 1169 2202 792 
C 2067 95 1690 -26 1466 -26 
z
" transform="scale(0.015625)"/>
       </defs>
       <use xlink:href="#CMR17-30" transform="scale(0.996264)"/>
      </g>
     </g>
    </g>
    <g id="xtick_2">
     <g id="line2d_3">
      <g>
       <use xlink:href="#m05cf465d97" x="81.842938" y="116.206749" style="stroke: #000000; stroke-width: 0.5"/>
      </g>
     </g>
     <g id="line2d_4">
      <g>
       <use xlink:href="#m7661737554" x="81.842938" y="7.059249" style="stroke: #000000; stroke-width: 0.5"/>
      </g>
     </g>
     <g id="text_2">
      <!-- $\mathdefault{200}$ -->
      <g transform="translate(74.370935 126.625248) scale(0.1 -0.1)">
       <defs>
        <path id="CMR17-32" d="M 2669 989 
L 2554 989 
C 2490 536 2438 459 2413 420 
C 2381 369 1920 369 1830 369 
L 602 369 
C 832 619 1280 1072 1824 1597 
C 2214 1967 2669 2402 2669 3035 
C 2669 3790 2067 4224 1395 4224 
C 691 4224 262 3604 262 3030 
C 262 2780 448 2748 525 2748 
C 589 2748 781 2787 781 3010 
C 781 3207 614 3264 525 3264 
C 486 3264 448 3258 422 3245 
C 544 3790 915 4058 1306 4058 
C 1862 4058 2227 3617 2227 3035 
C 2227 2479 1901 2000 1536 1584 
L 262 146 
L 262 0 
L 2515 0 
L 2669 989 
z
" transform="scale(0.015625)"/>
       </defs>
       <use xlink:href="#CMR17-32" transform="scale(0.996264)"/>
       <use xlink:href="#CMR17-30" transform="translate(45.690477 0) scale(0.996264)"/>
       <use xlink:href="#CMR17-30" transform="translate(91.380954 0) scale(0.996264)"/>
      </g>
     </g>
    </g>
    <g id="xtick_3">
     <g id="line2d_5">
      <g>
       <use xlink:href="#m05cf465d97" x="125.188996" y="116.206749" style="stroke: #000000; stroke-width: 0.5"/>
      </g>
     </g>
     <g id="line2d_6">
      <g>
       <use xlink:href="#m7661737554" x="125.188996" y="7.059249" style="stroke: #000000; stroke-width: 0.5"/>
      </g>
     </g>
     <g id="text_3">
      <!-- $\mathdefault{400}$ -->
      <g transform="translate(117.716993 126.625248) scale(0.1 -0.1)">
       <defs>
        <path id="CMR17-34" d="M 2150 4122 
C 2150 4256 2144 4256 2029 4256 
L 128 1254 
L 128 1088 
L 1779 1088 
L 1779 457 
C 1779 224 1766 160 1318 160 
L 1197 160 
L 1197 0 
C 1402 0 1747 0 1965 0 
C 2182 0 2528 0 2733 0 
L 2733 160 
L 2611 160 
C 2163 160 2150 224 2150 457 
L 2150 1088 
L 2803 1088 
L 2803 1254 
L 2150 1254 
L 2150 4122 
z
M 1798 3703 
L 1798 1254 
L 256 1254 
L 1798 3703 
z
" transform="scale(0.015625)"/>
       </defs>
       <use xlink:href="#CMR17-34" transform="scale(0.996264)"/>
       <use xlink:href="#CMR17-30" transform="translate(45.690477 0) scale(0.996264)"/>
       <use xlink:href="#CMR17-30" transform="translate(91.380954 0) scale(0.996264)"/>
      </g>
     </g>
    </g>
    <g id="xtick_4">
     <g id="line2d_7">
      <g>
       <use xlink:href="#m05cf465d97" x="168.535054" y="116.206749" style="stroke: #000000; stroke-width: 0.5"/>
      </g>
     </g>
     <g id="line2d_8">
      <g>
       <use xlink:href="#m7661737554" x="168.535054" y="7.059249" style="stroke: #000000; stroke-width: 0.5"/>
      </g>
     </g>
     <g id="text_4">
      <!-- $\mathdefault{600}$ -->
      <g transform="translate(161.063052 126.625248) scale(0.1 -0.1)">
       <defs>
        <path id="CMR17-36" d="M 678 2176 
C 678 3690 1395 4032 1811 4032 
C 1946 4032 2272 4009 2400 3776 
C 2298 3776 2106 3776 2106 3553 
C 2106 3381 2246 3323 2336 3323 
C 2394 3323 2566 3348 2566 3560 
C 2566 3954 2246 4179 1805 4179 
C 1043 4179 243 3390 243 1984 
C 243 253 966 -128 1478 -128 
C 2099 -128 2688 427 2688 1283 
C 2688 2081 2170 2662 1517 2662 
C 1126 2662 838 2407 678 1960 
L 678 2176 
z
M 1478 25 
C 691 25 691 1200 691 1436 
C 691 1896 909 2560 1504 2560 
C 1613 2560 1926 2560 2138 2120 
C 2253 1870 2253 1609 2253 1289 
C 2253 944 2253 690 2118 434 
C 1978 171 1773 25 1478 25 
z
" transform="scale(0.015625)"/>
       </defs>
       <use xlink:href="#CMR17-36" transform="scale(0.996264)"/>
       <use xlink:href="#CMR17-30" transform="translate(45.690477 0) scale(0.996264)"/>
       <use xlink:href="#CMR17-30" transform="translate(91.380954 0) scale(0.996264)"/>
      </g>
     </g>
    </g>
    <g id="xtick_5">
     <g id="line2d_9">
      <defs>
       <path id="mcf569eab73" d="M 0 0 
L 0 -1.5 
" style="stroke: #000000; stroke-width: 0.5"/>
      </defs>
      <g>
       <use xlink:href="#mcf569eab73" x="49.333394" y="116.206749" style="stroke: #000000; stroke-width: 0.5"/>
      </g>
     </g>
     <g id="line2d_10">
      <defs>
       <path id="mc01f437082" d="M 0 0 
L 0 1.5 
" style="stroke: #000000; stroke-width: 0.5"/>
      </defs>
      <g>
       <use xlink:href="#mc01f437082" x="49.333394" y="7.059249" style="stroke: #000000; stroke-width: 0.5"/>
      </g>
     </g>
    </g>
    <g id="xtick_6">
     <g id="line2d_11">
      <g>
       <use xlink:href="#mcf569eab73" x="60.169909" y="116.206749" style="stroke: #000000; stroke-width: 0.5"/>
      </g>
     </g>
     <g id="line2d_12">
      <g>
       <use xlink:href="#mc01f437082" x="60.169909" y="7.059249" style="stroke: #000000; stroke-width: 0.5"/>
      </g>
     </g>
    </g>
    <g id="xtick_7">
     <g id="line2d_13">
      <g>
       <use xlink:href="#mcf569eab73" x="71.006423" y="116.206749" style="stroke: #000000; stroke-width: 0.5"/>
      </g>
     </g>
     <g id="line2d_14">
      <g>
       <use xlink:href="#mc01f437082" x="71.006423" y="7.059249" style="stroke: #000000; stroke-width: 0.5"/>
      </g>
     </g>
    </g>
    <g id="xtick_8">
     <g id="line2d_15">
      <g>
       <use xlink:href="#mcf569eab73" x="92.679453" y="116.206749" style="stroke: #000000; stroke-width: 0.5"/>
      </g>
     </g>
     <g id="line2d_16">
      <g>
       <use xlink:href="#mc01f437082" x="92.679453" y="7.059249" style="stroke: #000000; stroke-width: 0.5"/>
      </g>
     </g>
    </g>
    <g id="xtick_9">
     <g id="line2d_17">
      <g>
       <use xlink:href="#mcf569eab73" x="103.515967" y="116.206749" style="stroke: #000000; stroke-width: 0.5"/>
      </g>
     </g>
     <g id="line2d_18">
      <g>
       <use xlink:href="#mc01f437082" x="103.515967" y="7.059249" style="stroke: #000000; stroke-width: 0.5"/>
      </g>
     </g>
    </g>
    <g id="xtick_10">
     <g id="line2d_19">
      <g>
       <use xlink:href="#mcf569eab73" x="114.352482" y="116.206749" style="stroke: #000000; stroke-width: 0.5"/>
      </g>
     </g>
     <g id="line2d_20">
      <g>
       <use xlink:href="#mc01f437082" x="114.352482" y="7.059249" style="stroke: #000000; stroke-width: 0.5"/>
      </g>
     </g>
    </g>
    <g id="xtick_11">
     <g id="line2d_21">
      <g>
       <use xlink:href="#mcf569eab73" x="136.025511" y="116.206749" style="stroke: #000000; stroke-width: 0.5"/>
      </g>
     </g>
     <g id="line2d_22">
      <g>
       <use xlink:href="#mc01f437082" x="136.025511" y="7.059249" style="stroke: #000000; stroke-width: 0.5"/>
      </g>
     </g>
    </g>
    <g id="xtick_12">
     <g id="line2d_23">
      <g>
       <use xlink:href="#mcf569eab73" x="146.862025" y="116.206749" style="stroke: #000000; stroke-width: 0.5"/>
      </g>
     </g>
     <g id="line2d_24">
      <g>
       <use xlink:href="#mc01f437082" x="146.862025" y="7.059249" style="stroke: #000000; stroke-width: 0.5"/>
      </g>
     </g>
    </g>
    <g id="xtick_13">
     <g id="line2d_25">
      <g>
       <use xlink:href="#mcf569eab73" x="157.69854" y="116.206749" style="stroke: #000000; stroke-width: 0.5"/>
      </g>
     </g>
     <g id="line2d_26">
      <g>
       <use xlink:href="#mc01f437082" x="157.69854" y="7.059249" style="stroke: #000000; stroke-width: 0.5"/>
      </g>
     </g>
    </g>
    <g id="text_5">
     <!-- $t~[\mathrm{ns}]$ -->
     <g transform="translate(94.117506 140.034406) scale(0.1 -0.1)">
      <defs>
       <path id="CMMI12-74" d="M 1286 2566 
L 1875 2566 
C 1997 2566 2061 2566 2061 2681 
C 2061 2752 2022 2752 1894 2752 
L 1331 2752 
L 1568 3692 
C 1594 3781 1594 3794 1594 3840 
C 1594 3943 1510 4000 1427 4000 
C 1376 4000 1229 3981 1178 3775 
L 928 2752 
L 326 2752 
C 198 2752 141 2752 141 2630 
C 141 2566 186 2566 307 2566 
L 877 2566 
L 454 881 
C 403 658 384 594 384 511 
C 384 211 595 -64 954 -64 
C 1600 -64 1946 868 1946 912 
C 1946 951 1920 970 1882 970 
C 1869 970 1843 970 1830 944 
C 1824 938 1818 931 1773 829 
C 1638 511 1344 64 973 64 
C 781 64 768 224 768 364 
C 768 370 768 492 787 568 
L 1286 2566 
z
" transform="scale(0.015625)"/>
       <path id="CMR17-5b" d="M 1504 -1600 
L 1504 -1377 
L 902 -1377 
L 902 4544 
L 1504 4544 
L 1504 4767 
L 678 4767 
L 678 -1600 
L 1504 -1600 
z
" transform="scale(0.015625)"/>
       <path id="CMR17-6e" d="M 2656 1933 
C 2656 2259 2592 2790 1837 2790 
C 1331 2790 1069 2400 973 2144 
L 966 2144 
L 966 2790 
L 211 2720 
L 211 2554 
C 589 2554 646 2515 646 2208 
L 646 428 
C 646 184 621 153 211 153 
L 211 -13 
C 365 0 646 0 813 0 
C 979 0 1267 0 1421 -13 
L 1421 153 
C 1011 153 986 178 986 428 
L 986 1658 
C 986 2247 1344 2688 1792 2688 
C 2266 2688 2317 2266 2317 1958 
L 2317 428 
C 2317 184 2291 153 1882 153 
L 1882 -13 
C 2035 0 2317 0 2483 0 
C 2650 0 2938 0 3091 -13 
L 3091 153 
C 2682 153 2656 178 2656 428 
L 2656 1933 
z
" transform="scale(0.015625)"/>
       <path id="CMR17-73" d="M 1978 2697 
C 1978 2813 1971 2819 1933 2819 
C 1907 2819 1901 2813 1824 2717 
C 1805 2691 1747 2626 1728 2601 
C 1523 2819 1235 2819 1126 2819 
C 416 2819 160 2447 160 2076 
C 160 1498 813 1365 998 1325 
C 1402 1243 1542 1217 1677 1101 
C 1760 1025 1901 884 1901 654 
C 1901 384 1747 38 1158 38 
C 602 38 403 460 288 1021 
C 269 1110 269 1117 218 1117 
C 166 1117 160 1110 160 983 
L 160 63 
C 160 -51 166 -58 205 -58 
C 237 -58 243 -51 275 0 
C 314 57 410 211 448 276 
C 576 103 800 -64 1158 -64 
C 1792 -64 2131 283 2131 784 
C 2131 1112 1958 1285 1875 1362 
C 1683 1561 1459 1606 1190 1657 
C 838 1735 390 1825 390 2217 
C 390 2383 480 2737 1126 2737 
C 1811 2737 1850 2094 1862 1888 
C 1869 1856 1901 1849 1920 1849 
C 1978 1849 1978 1869 1978 1978 
L 1978 2697 
z
" transform="scale(0.015625)"/>
       <path id="CMR17-5d" d="M 915 4767 
L 90 4767 
L 90 4544 
L 691 4544 
L 691 -1377 
L 90 -1377 
L 90 -1600 
L 915 -1600 
L 915 4767 
z
" transform="scale(0.015625)"/>
      </defs>
      <use xlink:href="#CMMI12-74" transform="scale(0.996264)"/>
      <use xlink:href="#CMR17-5b" transform="translate(65.302297 0) scale(0.996264)"/>
      <use xlink:href="#CMR17-6e" transform="translate(90.173355 0) scale(0.996264)"/>
      <use xlink:href="#CMR17-73" transform="translate(141.068725 0) scale(0.996264)"/>
      <use xlink:href="#CMR17-5d" transform="translate(176.870062 0) scale(0.996264)"/>
     </g>
    </g>
   </g>
   <g id="matplotlib.axis_2">
    <g id="ytick_1">
     <g id="line2d_27">
      <defs>
       <path id="m4ea8bcf511" d="M 0 0 
L 3 0 
" style="stroke: #000000; stroke-width: 0.5"/>
      </defs>
      <g>
       <use xlink:href="#m4ea8bcf511" x="31.838925" y="116.206749" style="stroke: #000000; stroke-width: 0.5"/>
      </g>
     </g>
     <g id="text_6">
      <!-- $\mathdefault{0}$ -->
      <g transform="translate(23.35759 119.665998) scale(0.1 -0.1)">
       <use xlink:href="#CMR17-30" transform="scale(0.996264)"/>
      </g>
     </g>
    </g>
    <g id="ytick_2">
     <g id="line2d_28">
      <g>
       <use xlink:href="#m4ea8bcf511" x="31.838925" y="88.919874" style="stroke: #000000; stroke-width: 0.5"/>
      </g>
     </g>
     <g id="text_7">
      <!-- $\mathdefault{5}$ -->
      <g transform="translate(23.35759 92.379123) scale(0.1 -0.1)">
       <defs>
        <path id="CMR17-35" d="M 730 3692 
C 794 3666 1056 3584 1325 3584 
C 1920 3584 2246 3911 2432 4100 
C 2432 4157 2432 4192 2394 4192 
C 2387 4192 2374 4192 2323 4163 
C 2099 4058 1837 3973 1517 3973 
C 1325 3973 1037 3999 723 4139 
C 653 4171 640 4171 634 4171 
C 602 4171 595 4164 595 4037 
L 595 2203 
C 595 2089 595 2057 659 2057 
C 691 2057 704 2070 736 2114 
C 941 2401 1222 2522 1542 2522 
C 1766 2522 2246 2382 2246 1289 
C 2246 1085 2246 715 2054 421 
C 1894 159 1645 25 1370 25 
C 947 25 518 320 403 814 
C 429 807 480 795 506 795 
C 589 795 749 840 749 1038 
C 749 1210 627 1280 506 1280 
C 358 1280 262 1190 262 1011 
C 262 454 704 -128 1382 -128 
C 2042 -128 2669 440 2669 1264 
C 2669 2030 2170 2624 1549 2624 
C 1222 2624 947 2503 730 2274 
L 730 3692 
z
" transform="scale(0.015625)"/>
       </defs>
       <use xlink:href="#CMR17-35" transform="scale(0.996264)"/>
      </g>
     </g>
    </g>
    <g id="ytick_3">
     <g id="line2d_29">
      <g>
       <use xlink:href="#m4ea8bcf511" x="31.838925" y="61.632999" style="stroke: #000000; stroke-width: 0.5"/>
      </g>
     </g>
     <g id="text_8">
      <!-- $\mathdefault{10}$ -->
      <g transform="translate(18.376255 65.092248) scale(0.1 -0.1)">
       <defs>
        <path id="CMR17-31" d="M 1702 4058 
C 1702 4192 1696 4192 1606 4192 
C 1357 3916 979 3827 621 3827 
C 602 3827 570 3827 563 3808 
C 557 3795 557 3782 557 3648 
C 755 3648 1088 3686 1344 3839 
L 1344 461 
C 1344 236 1331 160 781 160 
L 589 160 
L 589 0 
C 896 0 1216 0 1523 0 
C 1830 0 2150 0 2458 0 
L 2458 160 
L 2266 160 
C 1715 160 1702 230 1702 458 
L 1702 4058 
z
" transform="scale(0.015625)"/>
       </defs>
       <use xlink:href="#CMR17-31" transform="scale(0.996264)"/>
       <use xlink:href="#CMR17-30" transform="translate(45.690477 0) scale(0.996264)"/>
      </g>
     </g>
    </g>
    <g id="ytick_4">
     <g id="line2d_30">
      <g>
       <use xlink:href="#m4ea8bcf511" x="31.838925" y="34.346124" style="stroke: #000000; stroke-width: 0.5"/>
      </g>
     </g>
     <g id="text_9">
      <!-- $\mathdefault{15}$ -->
      <g transform="translate(18.376255 37.805373) scale(0.1 -0.1)">
       <use xlink:href="#CMR17-31" transform="scale(0.996264)"/>
       <use xlink:href="#CMR17-35" transform="translate(45.690477 0) scale(0.996264)"/>
      </g>
     </g>
    </g>
    <g id="ytick_5">
     <g id="line2d_31">
      <g>
       <use xlink:href="#m4ea8bcf511" x="31.838925" y="7.059249" style="stroke: #000000; stroke-width: 0.5"/>
      </g>
     </g>
     <g id="text_10">
      <!-- $\mathdefault{20}$ -->
      <g transform="translate(18.376255 10.518498) scale(0.1 -0.1)">
       <use xlink:href="#CMR17-32" transform="scale(0.996264)"/>
       <use xlink:href="#CMR17-30" transform="translate(45.690477 0) scale(0.996264)"/>
      </g>
     </g>
    </g>
    <g id="ytick_6">
     <g id="line2d_32">
      <defs>
       <path id="m0db9c369fe" d="M 0 0 
L 1.5 0 
" style="stroke: #000000; stroke-width: 0.5"/>
      </defs>
      <g>
       <use xlink:href="#m0db9c369fe" x="31.838925" y="110.749374" style="stroke: #000000; stroke-width: 0.5"/>
      </g>
     </g>
    </g>
    <g id="ytick_7">
     <g id="line2d_33">
      <g>
       <use xlink:href="#m0db9c369fe" x="31.838925" y="105.291999" style="stroke: #000000; stroke-width: 0.5"/>
      </g>
     </g>
    </g>
    <g id="ytick_8">
     <g id="line2d_34">
      <g>
       <use xlink:href="#m0db9c369fe" x="31.838925" y="99.834624" style="stroke: #000000; stroke-width: 0.5"/>
      </g>
     </g>
    </g>
    <g id="ytick_9">
     <g id="line2d_35">
      <g>
       <use xlink:href="#m0db9c369fe" x="31.838925" y="94.377249" style="stroke: #000000; stroke-width: 0.5"/>
      </g>
     </g>
    </g>
    <g id="ytick_10">
     <g id="line2d_36">
      <g>
       <use xlink:href="#m0db9c369fe" x="31.838925" y="83.462499" style="stroke: #000000; stroke-width: 0.5"/>
      </g>
     </g>
    </g>
    <g id="ytick_11">
     <g id="line2d_37">
      <g>
       <use xlink:href="#m0db9c369fe" x="31.838925" y="78.005124" style="stroke: #000000; stroke-width: 0.5"/>
      </g>
     </g>
    </g>
    <g id="ytick_12">
     <g id="line2d_38">
      <g>
       <use xlink:href="#m0db9c369fe" x="31.838925" y="72.547749" style="stroke: #000000; stroke-width: 0.5"/>
      </g>
     </g>
    </g>
    <g id="ytick_13">
     <g id="line2d_39">
      <g>
       <use xlink:href="#m0db9c369fe" x="31.838925" y="67.090374" style="stroke: #000000; stroke-width: 0.5"/>
      </g>
     </g>
    </g>
    <g id="ytick_14">
     <g id="line2d_40">
      <g>
       <use xlink:href="#m0db9c369fe" x="31.838925" y="56.175624" style="stroke: #000000; stroke-width: 0.5"/>
      </g>
     </g>
    </g>
    <g id="ytick_15">
     <g id="line2d_41">
      <g>
       <use xlink:href="#m0db9c369fe" x="31.838925" y="50.718249" style="stroke: #000000; stroke-width: 0.5"/>
      </g>
     </g>
    </g>
    <g id="ytick_16">
     <g id="line2d_42">
      <g>
       <use xlink:href="#m0db9c369fe" x="31.838925" y="45.260874" style="stroke: #000000; stroke-width: 0.5"/>
      </g>
     </g>
    </g>
    <g id="ytick_17">
     <g id="line2d_43">
      <g>
       <use xlink:href="#m0db9c369fe" x="31.838925" y="39.803499" style="stroke: #000000; stroke-width: 0.5"/>
      </g>
     </g>
    </g>
    <g id="ytick_18">
     <g id="line2d_44">
      <g>
       <use xlink:href="#m0db9c369fe" x="31.838925" y="28.888749" style="stroke: #000000; stroke-width: 0.5"/>
      </g>
     </g>
    </g>
    <g id="ytick_19">
     <g id="line2d_45">
      <g>
       <use xlink:href="#m0db9c369fe" x="31.838925" y="23.431374" style="stroke: #000000; stroke-width: 0.5"/>
      </g>
     </g>
    </g>
    <g id="ytick_20">
     <g id="line2d_46">
      <g>
       <use xlink:href="#m0db9c369fe" x="31.838925" y="17.973999" style="stroke: #000000; stroke-width: 0.5"/>
      </g>
     </g>
    </g>
    <g id="ytick_21">
     <g id="line2d_47">
      <g>
       <use xlink:href="#m0db9c369fe" x="31.838925" y="12.516624" style="stroke: #000000; stroke-width: 0.5"/>
      </g>
     </g>
    </g>
    <g id="text_11">
     <!-- $\bar{\phi}~[\mathrm{mV}]$ -->
     <g style="fill: #0f3455" transform="translate(11.885595 76.985173) rotate(-90) scale(0.1 -0.1)">
      <defs>
       <path id="CMR17-16" d="M 2554 3520 
L 2554 3666 
L 378 3666 
L 378 3520 
L 2554 3520 
z
" transform="scale(0.015625)"/>
       <path id="CMMI12-1e" d="M 2752 4390 
C 2752 4448 2707 4448 2688 4448 
C 2630 4448 2624 4435 2598 4326 
L 2253 2939 
C 2234 2856 2227 2849 2221 2843 
C 2214 2830 2170 2824 2157 2824 
C 1107 2734 301 1864 301 1057 
C 301 361 832 -64 1498 -64 
C 1446 -261 1402 -463 1350 -659 
C 1261 -995 1210 -1204 1210 -1229 
C 1210 -1241 1210 -1280 1274 -1280 
C 1293 -1280 1318 -1280 1331 -1254 
C 1344 -1241 1382 -1089 1408 -1008 
L 1645 -64 
C 2739 -64 3571 854 3571 1680 
C 3571 2343 3085 2816 2374 2816 
L 2752 4390 
z
M 2336 2701 
C 2758 2701 3181 2463 3181 1828 
C 3181 1097 2675 128 1677 50 
L 2336 2701 
z
M 1530 50 
C 1216 50 691 220 691 938 
C 691 1761 1274 2676 2195 2676 
L 1530 50 
z
" transform="scale(0.015625)"/>
       <path id="CMR17-6d" d="M 4326 1933 
C 4326 2252 4269 2790 3507 2790 
C 3072 2790 2771 2496 2656 2151 
L 2650 2151 
C 2573 2676 2195 2790 1837 2790 
C 1331 2790 1069 2400 973 2144 
L 966 2144 
L 966 2790 
L 211 2720 
L 211 2554 
C 589 2554 646 2515 646 2208 
L 646 428 
C 646 184 621 153 211 153 
L 211 -13 
C 365 0 646 0 813 0 
C 979 0 1267 0 1421 -13 
L 1421 153 
C 1011 153 986 178 986 428 
L 986 1658 
C 986 2247 1344 2688 1792 2688 
C 2266 2688 2317 2266 2317 1958 
L 2317 428 
C 2317 184 2291 153 1882 153 
L 1882 -13 
C 2035 0 2317 0 2483 0 
C 2650 0 2938 0 3091 -13 
L 3091 153 
C 2682 153 2656 178 2656 428 
L 2656 1658 
C 2656 2247 3014 2688 3462 2688 
C 3936 2688 3987 2266 3987 1958 
L 3987 428 
C 3987 184 3962 153 3552 153 
L 3552 -13 
C 3706 0 3987 0 4154 0 
C 4320 0 4608 0 4762 -13 
L 4762 153 
C 4352 153 4326 178 4326 428 
L 4326 1933 
z
" transform="scale(0.015625)"/>
       <path id="CMR17-56" d="M 3776 3745 
C 3834 3886 3936 4160 4365 4160 
L 4365 4332 
C 4218 4319 4051 4319 3891 4319 
C 3738 4319 3475 4319 3328 4332 
L 3328 4160 
C 3648 4160 3661 3936 3661 3898 
C 3661 3827 3642 3783 3622 3732 
L 2362 446 
L 1043 3886 
C 1024 3931 1011 3963 1011 3994 
C 1011 4160 1267 4160 1402 4160 
L 1402 4319 
C 1197 4319 896 4319 685 4319 
C 518 4319 218 4319 64 4332 
L 64 4160 
C 435 4160 506 4135 582 3931 
L 2106 -26 
C 2138 -115 2144 -128 2214 -128 
C 2285 -128 2291 -115 2323 -26 
L 3776 3745 
z
" transform="scale(0.015625)"/>
      </defs>
      <use xlink:href="#CMR17-16" transform="translate(14.151005 26.296621) scale(0.996264)"/>
      <use xlink:href="#CMMI12-1e" transform="scale(0.996264)"/>
      <use xlink:href="#CMR17-5b" transform="translate(87.810147 0) scale(0.996264)"/>
      <use xlink:href="#CMR17-6d" transform="translate(112.681205 0) scale(0.996264)"/>
      <use xlink:href="#CMR17-56" transform="translate(189.600795 0) scale(0.996264)"/>
      <use xlink:href="#CMR17-5d" transform="translate(259.974391 0) scale(0.996264)"/>
     </g>
    </g>
   </g>
   <g id="line2d_48">
    <path d="M 136.025511 116.206749 
L 136.025511 7.059249 
" clip-path="url(#p6c9c6ee4ec)" style="fill: none; stroke-dasharray: 3.7,1.6; stroke-dashoffset: 0; stroke: #000000"/>
   </g>
   <g id="line2d_49">
    <path d="M 38.49688 107.067957 
L 38.747203 88.716392 
L 39.55344 64.128171 
L 40.379182 50.309821 
L 40.382433 50.32104 
L 40.938346 45.399835 
L 40.941597 45.402013 
L 40.977358 45.170664 
L 40.980609 45.20022 
L 41.084639 44.491007 
L 41.104145 44.498231 
L 41.107396 44.552708 
L 41.185419 44.131527 
L 41.191921 44.138639 
L 41.198423 44.209577 
L 41.243936 43.989939 
L 41.676313 42.034749 
L 41.822606 41.252234 
L 41.861618 41.354554 
L 41.890876 41.469912 
L 41.933139 41.202241 
L 41.93964 41.218534 
L 41.975401 40.988051 
L 42.017663 41.444321 
L 42.046922 41.236023 
L 42.050173 41.317293 
L 42.144451 40.906019 
L 42.290743 40.25002 
L 42.293994 40.31122 
L 42.372017 39.746465 
L 42.38177 39.638087 
L 42.45004 39.893969 
L 42.453291 39.892342 
L 42.456542 39.952315 
L 42.492303 39.564147 
L 42.547569 39.694192 
L 42.65485 38.989154 
L 42.680858 39.092666 
L 42.713368 39.136851 
L 42.768634 38.912174 
L 42.778387 39.003425 
L 42.895421 38.382473 
L 42.905174 38.409373 
L 42.908425 38.464903 
L 42.979946 38.121768 
L 43.002702 38.257717 
L 43.038463 38.154898 
L 43.093729 38.423908 
L 43.103482 38.411153 
L 43.135992 38.55878 
L 43.188007 38.33375 
L 43.220516 38.480175 
L 43.669148 37.169269 
L 43.682152 37.250763 
L 43.685403 37.28865 
L 43.763426 37.030851 
L 43.769928 37.051764 
L 43.825194 36.562438 
L 43.890213 36.690676 
L 43.987742 36.29952 
L 44.013749 36.519066 
L 44.023502 36.576882 
L 44.065765 36.146767 
L 44.08527 36.08449 
L 44.098274 36.239204 
L 44.124282 36.233254 
L 44.218559 36.654171 
L 44.280328 36.470268 
L 44.407115 36.029626 
L 44.306335 36.621365 
L 44.410366 36.150428 
L 44.413617 36.237112 
L 44.49164 35.415366 
L 44.550157 34.948725 
L 44.608674 35.306849 
L 44.621678 35.083458 
L 44.637933 35.01268 
L 44.683446 35.536709 
L 44.715955 35.367525 
L 44.725708 35.277982 
L 44.767971 35.464725 
L 44.803731 35.425355 
L 44.816735 35.755646 
L 44.904511 35.275263 
L 44.911013 35.31118 
L 44.914264 35.355794 
L 44.96953 34.982622 
L 44.995538 35.0767 
L 45.089815 34.857405 
L 45.10607 35.015993 
L 45.158085 35.186683 
L 45.216602 34.992379 
L 45.323884 34.933831 
L 45.255614 35.169653 
L 45.330386 34.959535 
L 45.349892 35.00625 
L 45.414911 34.741224 
L 45.421413 34.780095 
L 45.531945 34.312134 
L 45.609968 33.659489 
L 45.658732 33.797384 
L 45.779018 33.113306 
L 45.808276 33.329076 
L 45.883048 33.631961 
L 45.92206 33.473138 
L 46.003333 33.077411 
L 46.045596 33.377362 
L 46.052098 33.423494 
L 46.123619 32.940629 
L 46.185387 32.839299 
L 46.217896 33.056521 
L 46.234151 33.238252 
L 46.312174 32.787356 
L 46.315425 32.833873 
L 46.409703 32.368068 
L 46.33168 32.895086 
L 46.481224 32.535331 
L 46.50398 32.707138 
L 46.565748 32.345612 
L 46.585254 32.423072 
L 46.601509 32.46979 
L 46.64052 32.244023 
L 46.754304 31.67888 
L 46.656775 32.309815 
L 46.77381 31.770595 
L 46.777061 31.817513 
L 46.84208 31.326431 
L 46.851832 31.345344 
L 46.949361 30.978664 
L 46.887593 31.426549 
L 46.972118 31.165252 
L 47.102156 31.584063 
L 47.111909 31.579882 
L 47.2517 31.130451 
L 47.271206 31.188352 
L 47.35573 31.366079 
L 47.316719 31.070956 
L 47.381738 31.220772 
L 47.472765 30.897782 
L 47.498772 30.972388 
L 47.62556 30.763965 
L 47.544286 31.155475 
L 47.628811 30.780524 
L 47.671073 31.242651 
L 47.742594 30.905059 
L 47.745845 30.922275 
L 47.784856 30.539851 
L 47.791358 30.494592 
L 47.833621 30.788754 
L 47.875883 30.644162 
L 47.882385 30.759666 
L 47.976663 30.468097 
L 48.009172 30.605326 
L 48.064438 30.291106 
L 48.067689 30.298866 
L 48.142461 30.192615 
L 48.122956 30.386355 
L 48.17172 30.325432 
L 48.187975 30.48034 
L 48.252994 30.176016 
L 48.269249 30.283228 
L 48.373279 29.92712 
L 48.386283 30.017585 
L 48.548831 29.476893 
L 48.587842 29.790404 
L 48.555333 29.467084 
L 48.672367 29.623139 
L 48.714629 29.421816 
L 48.763394 29.7382 
L 48.78615 29.503843 
L 48.916188 28.767647 
L 48.92269 28.906484 
L 49.029972 28.420197 
L 49.072234 28.668555 
L 49.153508 28.920509 
L 49.107995 28.566809 
L 49.189269 28.802201 
L 49.199022 28.680842 
L 49.286797 28.950855 
L 49.299801 28.801557 
L 49.540372 28.138194 
L 49.306303 28.860528 
L 49.611893 28.255987 
L 49.631398 28.454347 
L 49.699668 27.903474 
L 49.702919 27.930297 
L 49.73868 27.9471 
L 49.709421 28.006911 
L 49.745182 27.982059 
L 49.80695 28.186886 
L 49.787444 27.967589 
L 49.858965 28.095402 
L 49.979251 27.900381 
L 49.904479 28.301757 
L 49.982502 27.915799 
L 49.985752 27.930338 
L 50.005258 27.800555 
L 50.054023 27.790144 
L 50.093034 27.619673 
L 50.122293 27.890018 
L 50.158053 27.806912 
L 50.219821 27.998487 
L 50.262084 27.668555 
L 50.288091 27.823893 
L 50.330354 27.635774 
L 50.369365 27.656227 
L 50.444137 27.594004 
L 50.424631 27.892729 
L 50.460392 27.798958 
L 50.564422 28.114167 
L 50.593681 27.945436 
L 50.756229 27.396803 
L 50.769232 27.463741 
L 50.876514 27.645927 
L 50.857008 27.421406 
L 50.879765 27.609636 
L 50.889518 27.464459 
L 50.944784 27.775758 
L 50.990297 27.569083 
L 51.071571 27.415968 
L 51.042313 27.731145 
L 51.104081 27.530533 
L 51.13659 27.700398 
L 51.175602 27.383758 
L 51.211362 27.503173 
L 51.227617 27.618959 
L 51.269879 27.390772 
L 51.279632 27.414416 
L 51.399918 27.122751 
L 51.536458 26.469543 
L 51.546211 26.58988 
L 51.562465 26.687553 
L 51.640488 26.464213 
L 51.64699 26.531525 
L 51.718511 26.268355 
L 51.672998 26.566296 
L 51.760774 26.479291 
L 51.764025 26.485505 
L 51.780279 26.383664 
L 51.806287 26.394785 
L 51.809538 26.322006 
L 51.848549 26.638976 
L 51.910317 26.508617 
L 51.92007 26.500766 
L 51.926572 26.573713 
L 51.929823 26.577229 
L 51.933074 26.638106 
L 52.014348 26.137472 
L 52.02085 26.224913 
L 52.163892 25.437218 
L 52.183398 25.762924 
L 52.323189 25.077856 
L 52.355698 25.442407 
L 52.46298 25.912366 
L 52.475984 25.775188 
L 52.606022 25.245551 
L 52.619026 25.264179 
L 52.794577 25.637164 
L 52.645033 25.103301 
L 52.797828 25.592744 
L 52.801079 25.543713 
L 52.879102 26.012051 
L 53.015642 26.327548 
L 52.901859 25.897484 
L 53.031897 26.217019 
L 53.116422 25.863854 
L 53.152182 25.957086 
L 53.161935 26.053609 
L 53.243209 25.723505 
L 53.252962 25.749564 
L 53.340737 25.18317 
L 53.389502 25.283677 
L 53.392753 25.303394 
L 53.422011 25.058818 
L 53.48703 25.226592 
L 53.490281 25.173065 
L 53.532544 25.655365 
L 53.574806 25.606288 
L 53.604065 25.706904 
L 53.665833 25.048681 
L 53.734103 25.005166 
L 53.75686 25.278716 
L 53.776365 25.36643 
L 53.838133 24.889069 
L 53.948666 24.619466 
L 53.847886 24.979278 
L 53.964921 24.796178 
L 54.387545 23.610342 
L 54.049445 24.840428 
L 54.426556 23.797893 
L 54.465568 24.037084 
L 54.54034 23.877771 
L 54.605359 23.307475 
L 54.67688 23.478934 
L 54.738648 23.647196 
L 54.686632 23.399677 
L 54.748401 23.477504 
L 54.855682 23.129172 
L 54.777659 23.512817 
L 54.868686 23.216568 
L 54.91745 23.108281 
L 54.946709 23.366514 
L 54.972716 23.258925 
L 55.083249 23.698812 
L 55.119009 23.474209 
L 55.138515 23.26147 
L 55.177527 23.610861 
L 55.219789 23.590603 
L 55.232793 23.595734 
L 55.239295 23.519235 
L 55.2588 23.507437 
L 55.278306 23.24688 
L 55.369333 23.403574 
L 55.431101 23.44586 
L 55.447356 23.209146 
L 55.466862 23.311045 
L 55.476614 23.219205 
L 55.551386 23.46821 
L 55.56439 23.422785 
L 55.577394 23.505548 
L 55.616405 23.127383 
L 55.619656 23.175427 
L 55.639162 23.029136 
L 55.723687 23.34793 
L 55.827717 23.57493 
L 55.749695 23.270383 
L 55.853725 23.424585 
L 55.918744 22.954571 
L 55.987014 23.096221 
L 55.996767 23.283568 
L 56.055284 23.059945 
L 56.087794 23.070887 
L 56.227585 22.45758 
L 56.344619 22.635239 
L 56.364125 22.551221 
L 56.403136 22.490741 
L 56.451901 22.782849 
L 56.464905 22.682796 
L 56.533175 22.691553 
L 56.477908 22.769896 
L 56.536426 22.719014 
L 56.659962 23.537203 
L 56.676217 23.462963 
L 56.763992 23.019927 
L 56.82251 23.215857 
L 56.903783 23.301674 
L 56.92654 23.506332 
L 56.99481 22.808211 
L 57.043574 22.862401 
L 57.069582 22.694103 
L 57.23213 21.897482 
L 57.241883 21.966682 
L 57.245134 21.936269 
L 57.332909 22.114758 
L 57.310153 21.876427 
L 57.355666 22.025455 
L 57.514963 21.531355 
L 57.384925 22.042547 
L 57.537719 21.584217 
L 57.680761 22.106448 
L 57.687263 22.105416 
L 57.807549 21.568057 
L 57.820553 21.649016 
L 57.827054 21.689874 
L 57.853062 21.50261 
L 57.901826 21.590829 
L 57.905077 21.51949 
L 57.950591 21.690598 
L 58.012359 21.5979 
L 58.100135 21.969445 
L 58.142397 21.831392 
L 58.197663 21.488039 
L 58.259431 21.722958 
L 58.291941 21.894785 
L 58.327701 21.508213 
L 58.360211 21.61409 
L 58.516257 21.107372 
L 58.522759 21.176842 
L 58.597531 20.923081 
L 58.545515 21.255137 
L 58.613785 21.20712 
L 58.760078 21.658138 
L 58.620287 21.204713 
L 58.76658 21.627528 
L 58.86736 21.402777 
L 58.808843 21.654644 
L 58.877113 21.586037 
L 58.880364 21.71651 
L 58.97139 21.040726 
L 58.974641 21.091263 
L 59.020155 20.953324 
L 59.049413 21.268503 
L 59.068919 21.179913 
L 59.228216 20.637381 
L 59.234718 20.580788 
L 59.30949 20.963911 
L 59.312741 20.932134 
L 59.416771 21.265451 
L 59.319242 20.911882 
L 59.455783 21.093676 
L 59.498045 20.928477 
L 59.527304 21.105468 
L 59.566315 21.018295 
L 59.589072 21.227492 
L 59.628083 20.866105 
L 59.683349 21.164398 
L 59.745117 21.414702 
L 59.790631 21.128233 
L 59.806886 20.912734 
L 59.894661 21.194442 
L 59.897912 21.129647 
L 59.901163 21.195789 
L 59.995441 20.91471 
L 60.014947 20.786153 
L 60.050707 21.142466 
L 60.073464 21.072846 
L 60.076715 21.095556 
L 60.141734 20.837235 
L 60.154738 20.893443 
L 60.26527 20.816846 
L 60.193749 21.042162 
L 60.275023 20.828392 
L 60.414814 21.379509 
L 60.427818 21.187674 
L 60.551354 20.558506 
L 60.587115 20.6591 
L 60.681392 21.049754 
L 60.687894 21.030737 
L 60.801678 36.133998 
L 61.006488 40.606239 
L 61.601412 44.722178 
L 61.620918 44.82518 
L 61.799721 45.479051 
L 61.972021 45.925414 
L 62.128067 46.251213 
L 62.163828 46.360168 
L 62.332877 46.864768 
L 62.440159 47.141753 
L 62.609208 47.781593 
L 62.64822 47.875856 
L 62.801015 48.202589 
L 62.830273 48.205619 
L 62.856281 48.294679 
L 62.859532 48.293611 
L 62.9213 48.432459 
L 63.070844 48.825892 
L 63.103353 48.875181 
L 63.109855 48.928508 
L 63.447955 49.595055 
L 63.538981 49.683581 
L 63.662518 49.827598 
L 63.665768 49.825999 
L 63.669019 49.823712 
L 63.688525 49.899143 
L 63.721035 49.904139 
L 63.87383 50.251699 
L 63.974609 50.381065 
L 64.101396 50.507427 
L 64.276948 50.697771 
L 64.286701 50.693793 
L 64.367975 50.742244 
L 64.494762 51.024667 
L 64.501264 51.078041 
L 64.576036 51.104485 
L 64.790599 51.439293 
L 64.79385 51.436958 
L 64.816606 51.526494 
L 64.82961 51.52452 
L 64.953146 51.773306 
L 64.959648 51.772542 
L 64.96615 51.831243 
L 65.06693 51.844577 
L 65.112443 51.949544 
L 65.255485 52.191003 
L 65.3075 52.299406 
L 65.522063 52.56926 
L 65.606588 52.624283 
L 65.752881 52.911266 
L 65.892672 53.105991 
L 66.107235 53.337891 
L 66.221019 53.38049 
L 66.354308 53.560049 
L 66.708662 53.74096 
L 66.796438 53.829547 
L 66.828947 53.825002 
L 66.903719 53.926499 
L 67.017502 53.954659 
L 67.254822 54.062051 
L 67.365355 54.120814 
L 67.371856 54.119351 
L 67.48564 54.225896 
L 67.674195 54.426501 
L 67.778226 54.516967 
L 67.89526 54.583999 
L 68.356896 54.719294 
L 68.47393 54.778104 
L 68.740508 54.873657 
L 68.854292 54.910691 
L 69.036345 55.002105 
L 69.124121 55.090369 
L 69.150128 55.08703 
L 69.32568 55.190393 
L 69.481726 55.298321 
L 69.663779 55.407187 
L 69.771061 55.485417 
L 69.777563 55.483927 
L 69.881593 55.587119 
L 70.00838 55.719388 
L 70.206689 55.825316 
L 70.388742 56.01684 
L 70.391993 56.014504 
L 70.554541 56.124758 
L 70.684579 56.262284 
L 70.795111 56.299425 
L 70.921899 56.477739 
L 71.107203 56.663904 
L 71.149465 56.754604 
L 71.286005 57.048987 
L 71.295758 57.047453 
L 71.416044 57.130734 
L 71.57534 57.239078 
L 71.773649 57.460467 
L 71.835417 57.548594 
L 71.962204 57.69328 
L 72.228782 57.794624 
L 72.365322 58.008295 
L 72.898479 58.35685 
L 73.018764 58.431147 
L 73.139049 58.537627 
L 73.252833 58.574556 
L 73.607187 58.682967 
L 74.611732 59.458985 
L 74.738519 59.502222 
L 74.852302 59.532449 
L 74.956333 59.591332 
L 75.086371 59.75174 
L 75.307436 59.844109 
L 75.42447 59.950218 
L 75.430972 59.949387 
L 75.658539 60.033329 
L 75.73006 60.080019 
L 75.772323 60.075706 
L 75.850345 60.178996 
L 75.973882 60.293425 
L 76.776867 60.598146 
L 76.871145 60.625891 
L 76.890651 60.623173 
L 77.332781 60.70817 
L 77.449815 60.757463 
L 77.898447 60.845754 
L 78.015481 60.893318 
L 78.187782 60.990195 
L 78.304816 61.105607 
L 78.311318 61.10374 
L 78.873733 61.191169 
L 79.00052 61.332001 
L 79.309361 61.439539 
L 79.494665 61.489592 
L 80.005065 61.59205 
L 80.128601 61.690363 
L 80.749534 61.797678 
L 80.879572 61.832365 
L 81.168907 61.925276 
L 81.285941 61.990073 
L 81.663052 62.082678 
L 81.780086 62.142708 
L 81.981645 62.247586 
L 82.124687 62.322967 
L 82.410771 62.377254 
L 82.524555 62.40319 
L 82.81389 62.504312 
L 82.934175 62.586466 
L 83.213757 62.695974 
L 83.39256 62.737159 
L 84.14353 62.828553 
L 84.257313 62.866762 
L 84.855489 62.975311 
L 84.985527 63.008833 
L 86.432202 63.118347 
L 86.529731 63.145267 
L 86.545985 63.142931 
L 87.609047 63.230309 
L 87.722831 63.263187 
L 88.480303 63.369085 
L 88.610341 63.403757 
L 89.72867 63.509173 
L 89.861959 63.553186 
L 90.960781 63.659477 
L 91.09082 63.693577 
L 93.678579 63.798921 
L 93.798864 63.807855 
L 96.766986 63.913203 
L 96.880769 63.937774 
L 97.739021 64.024409 
L 97.852805 64.05077 
L 104.640797 64.149807 
L 104.754581 64.176422 
L 108.2266 64.261833 
L 108.340383 64.286705 
L 138.177643 64.392299 
L 138.307681 64.427594 
L 149.461705 64.500649 
L 149.57874 48.129726 
L 149.816059 40.835929 
L 150.007866 37.902193 
L 150.196421 35.048655 
L 150.358969 33.760058 
L 150.645053 31.407655 
L 150.992905 28.680791 
L 150.996156 28.710281 
L 151.057924 28.294841 
L 151.061175 28.295006 
L 151.08068 28.333355 
L 151.207468 27.615369 
L 151.21397 27.648592 
L 151.252981 27.288994 
L 151.259483 27.292109 
L 151.38627 26.827704 
L 151.278989 27.368346 
L 151.389521 26.83304 
L 151.392772 26.851477 
L 151.457791 26.595774 
L 151.464293 26.645969 
L 151.613837 25.983357 
L 151.633343 26.078602 
L 151.636594 26.106348 
L 151.714617 25.873508 
L 151.721118 25.890472 
L 151.903172 25.21482 
L 151.981195 25.409945 
L 152.081974 25.874003 
L 152.153495 25.761841 
L 152.186005 25.726123 
L 152.234769 25.913209 
L 152.264028 25.749797 
L 152.27053 25.801403 
L 152.342051 25.536635 
L 152.355055 25.423872 
L 152.449332 25.609253 
L 152.452583 25.547237 
L 152.488344 25.538912 
L 152.459085 25.50789 
L 152.504598 25.462632 
L 152.507849 25.401404 
L 152.556614 25.753128 
L 152.608629 25.552356 
L 152.61188 25.554466 
L 152.618382 25.461643 
L 152.624884 25.452323 
L 152.725663 25.106236 
L 152.686652 25.560767 
L 152.751671 25.218117 
L 152.758173 25.313097 
L 152.826443 25.096713 
L 152.858952 25.162086 
L 152.907717 24.98708 
L 152.946728 25.235376 
L 153.083268 26.155064 
L 153.086519 26.145585 
L 153.457128 25.133554 
L 153.102774 26.169211 
L 153.499391 25.3183 
L 153.515645 25.479785 
L 153.590417 24.940683 
L 153.596919 24.859546 
L 153.661938 25.040468 
L 153.70095 24.921613 
L 153.726957 25.005654 
L 153.762718 25.159478 
L 153.808231 24.940166 
L 153.843992 25.132413 
L 153.987034 24.569062 
L 154.006539 24.672743 
L 154.074809 24.332988 
L 154.081311 24.402192 
L 154.11057 24.269419 
L 154.185342 24.534692 
L 154.188593 24.543848 
L 154.204848 24.303321 
L 154.266616 24.232887 
L 154.302376 24.427701 
L 154.305627 24.413035 
L 154.445418 24.914429 
L 154.464924 24.843726 
L 154.500684 24.676636 
L 154.555951 24.9439 
L 154.578707 24.767345 
L 154.669734 25.18406 
L 154.702244 25.080991 
L 154.770514 25.254997 
L 154.799772 25.019656 
L 154.803023 25.035679 
L 154.816027 24.957157 
L 154.874544 25.321186 
L 154.877795 25.288607 
L 154.887548 25.380666 
L 154.952567 25.096827 
L 155.043594 24.863775 
L 154.965571 25.206609 
L 155.050096 24.880598 
L 155.0631 24.697344 
L 155.124868 24.911945 
L 155.163879 24.794663 
L 155.189887 24.647685 
L 155.258157 24.876955 
L 155.271161 24.788226 
L 155.345933 24.961789 
L 155.365438 24.642647 
L 155.375191 24.683385 
L 155.384944 24.525288 
L 155.436959 24.702867 
L 155.485724 24.640392 
L 155.593005 25.073807 
L 155.544241 24.630505 
L 155.612511 25.000482 
L 155.726294 24.65705 
L 155.651522 25.18112 
L 155.739298 24.750049 
L 155.807568 25.001211 
L 155.849831 24.744729 
L 155.976618 24.3037 
L 156.05139 24.549384 
L 156.080648 24.282847 
L 156.08715 24.341612 
L 156.139165 23.848816 
L 156.22369 23.924801 
L 156.382987 23.459029 
L 156.236694 24.035907 
L 156.4285 23.586271 
L 156.431751 23.598926 
L 156.474014 23.339337 
L 156.477265 23.348531 
L 156.509774 23.200356 
L 156.584546 23.373398 
L 156.587797 23.310719 
L 156.652816 23.256677 
L 156.721086 23.712044 
L 156.779603 23.472056 
L 156.818615 23.787558 
L 156.935649 24.041077 
L 156.890136 23.727475 
L 156.9389 23.987608 
L 157.055935 23.47454 
L 157.068938 23.620944 
L 157.198977 23.785978 
L 157.202228 23.767977 
L 157.257494 23.586124 
L 157.234737 23.881462 
L 157.309509 23.832956 
L 157.325764 23.929982 
L 157.407038 23.688344 
L 157.410289 23.704989 
L 157.524072 23.31679 
L 157.439547 23.739435 
L 157.546829 23.320814 
L 157.572836 23.458966 
L 157.634604 23.037944 
L 157.712627 23.052145 
L 157.644357 22.958595 
L 157.719129 22.967793 
L 157.901183 22.258251 
L 157.949947 22.062832 
L 158.018217 22.074841 
L 158.047476 22.341373 
L 158.09624 21.937 
L 158.12875 22.108387 
L 158.154757 22.089699 
L 158.187267 22.301943 
L 158.310803 22.633066 
L 158.210023 22.235267 
L 158.314054 22.62082 
L 158.411583 22.551981 
L 158.36932 22.848759 
L 158.421335 22.638175 
L 158.424586 22.642698 
L 158.463598 22.530393 
L 158.515613 22.393596 
L 158.483104 22.615869 
L 158.567628 22.607276 
L 158.759435 23.211095 
L 158.603389 22.569355 
L 158.77894 23.175709 
L 158.905728 22.697694 
L 158.84721 23.202338 
L 158.91223 22.786684 
L 158.934986 23.068439 
L 159.029264 22.858035 
L 159.139796 22.344494 
L 159.175557 22.575396 
L 159.195063 22.699259 
L 159.25358 22.505384 
L 159.286089 22.60446 
L 159.42588 22.1766 
L 159.312097 22.700598 
L 159.429131 22.213407 
L 159.432382 22.266205 
L 159.503903 21.880878 
L 159.520158 21.960999 
L 159.578675 21.642775 
L 159.643694 21.74139 
L 159.679455 21.938969 
L 159.653447 21.718834 
L 159.747725 21.705612 
L 159.76398 21.487812 
L 159.825748 21.784416 
L 159.90052 21.918198 
L 159.842002 21.724747 
L 159.929778 21.748791 
L 160.014303 21.186327 
L 159.949284 21.799163 
L 160.066318 21.396863 
L 160.115083 21.827487 
L 160.193106 21.699777 
L 160.196357 21.715176 
L 160.232117 21.464875 
L 160.261376 21.497001 
L 160.384912 21.24496 
L 160.394665 21.142043 
L 160.417421 21.333709 
L 160.51495 21.583032 
L 160.531205 21.427005 
L 160.602726 21.555259 
L 160.680749 21.985973 
L 160.61573 21.539018 
L 160.758772 21.815952 
L 160.778277 21.643653 
L 160.836795 21.92975 
L 160.862802 21.893159 
L 160.937574 22.02494 
L 160.905065 21.750502 
L 160.960331 21.757181 
L 161.106624 21.393369 
L 161.191149 21.713487 
L 161.226909 21.534563 
L 161.3667 21.008558 
L 161.369951 21.042795 
L 161.490236 21.306632 
L 161.496738 21.26015 
L 161.519495 20.933483 
L 161.610522 21.145586 
L 161.617024 21.122467 
L 161.711301 20.743721 
L 161.734058 20.863745 
L 161.825085 20.446102 
L 161.74056 20.880266 
L 161.870598 20.503395 
L 161.890104 20.611554 
L 162.010389 20.26562 
L 162.01364 20.284957 
L 162.039648 19.963971 
L 162.085161 20.04216 
L 162.088412 20.037854 
L 162.101416 20.185508 
L 162.104667 20.168529 
L 162.172937 20.594638 
L 162.221701 20.334916 
L 162.25096 20.393875 
L 162.367994 19.849724 
L 162.507785 20.179443 
L 162.374496 19.837319 
L 162.520789 20.155385 
L 162.563051 20.050066 
L 162.608565 20.223357 
L 162.615067 20.212182 
L 162.699591 20.581931 
L 162.72885 20.232342 
L 162.855637 19.77257 
L 162.914154 19.934066 
L 162.93366 20.102317 
L 162.988926 19.786863 
L 163.005181 19.842067 
L 163.008432 19.812885 
L 163.076702 20.187292 
L 163.079953 20.144299 
L 163.177482 20.313518 
L 163.10271 20.038568 
L 163.193736 20.216365 
L 163.209991 20.017404 
L 163.281512 20.446654 
L 163.30752 20.302056 
L 163.330277 20.47837 
L 163.382292 20.444009 
L 163.427805 20.658334 
L 163.492824 20.468739 
L 163.668376 19.98156 
L 163.674878 20.015082 
L 163.694383 19.952475 
L 163.795163 20.321366 
L 164.003224 20.025725 
L 164.038985 20.185475 
L 164.149517 20.669491 
L 164.169023 20.60748 
L 164.2633 20.028656 
L 164.29581 20.150925 
L 164.305563 20.115066 
L 164.32832 20.26386 
L 164.373833 20.449459 
L 164.416095 20.046322 
L 164.43235 20.101325 
L 164.435601 20.098198 
L 164.451856 20.227418 
L 164.536381 20.754248 
L 164.591647 20.520372 
L 164.640411 20.297194 
L 164.676172 20.567885 
L 164.702179 20.492108 
L 164.708681 20.507853 
L 164.734689 20.270919 
L 164.757445 20.266922 
L 164.789955 20.066811 
L 164.858225 20.362104 
L 164.864727 20.301565 
L 164.877731 20.244394 
L 164.936248 20.50579 
L 164.94275 20.411246 
L 164.991514 20.583498 
L 165.043529 20.321843 
L 165.050031 20.32846 
L 165.131305 19.984543 
L 165.167066 20.187332 
L 165.199575 20.040478 
L 165.290602 20.423186 
L 165.368625 20.558404 
L 165.388131 20.399599 
L 165.45315 20.638837 
L 165.423891 20.391789 
L 165.498663 20.453367 
L 165.553929 19.977589 
L 165.618948 20.319454 
L 165.700222 20.500812 
L 165.641705 20.215085 
L 165.755488 20.432512 
L 165.869272 20.59254 
L 165.76199 20.395605 
L 165.924538 20.439886 
L 165.970051 20.24729 
L 166.03182 20.464784 
L 166.142352 20.957779 
L 166.048074 20.394235 
L 166.197618 20.699007 
L 166.20412 20.596006 
L 166.295147 21.026424 
L 166.392676 21.253948 
L 166.337409 20.889167 
L 166.412181 21.122812 
L 166.421934 21.051959 
L 166.493455 21.309164 
L 166.499957 21.36738 
L 166.535718 20.975967 
L 166.574729 21.055143 
L 166.67876 20.791582 
L 166.597486 21.189107 
L 166.717771 21.010506 
L 166.779539 21.221199 
L 166.834805 21.201403 
L 166.886821 20.906357 
L 166.964843 20.98113 
L 167.013608 21.147267 
L 167.026612 20.966128 
L 167.075376 21.061675 
L 167.205414 20.552158 
L 167.211916 20.703318 
L 167.309445 20.535651 
L 167.218418 20.730699 
L 167.32895 20.658535 
L 167.374464 20.820635 
L 167.432981 20.615348 
L 167.527259 20.57616 
L 167.452487 20.849263 
L 167.540262 20.598722 
L 167.605282 20.905503 
L 167.673552 20.872703 
L 167.758076 20.682981 
L 167.787335 20.771146 
L 167.793837 20.848089 
L 167.849103 20.568245 
L 167.875111 20.613986 
L 167.959636 20.223875 
L 167.914122 20.647388 
L 168.024655 20.272309 
L 168.138438 20.511516 
L 168.089674 20.190494 
L 168.151442 20.45788 
L 168.222963 20.209817 
L 168.157944 20.504372 
L 168.274978 20.382151 
L 168.395263 21.062005 
L 168.411518 20.943628 
L 168.414769 20.919524 
L 168.479788 21.219791 
L 168.492792 21.10383 
L 168.515549 21.363286 
L 168.544807 21.019752 
L 168.593572 21.064933 
L 168.674845 20.302548 
L 168.72361 20.522024 
L 168.726861 20.493507 
L 168.795131 20.709861 
L 168.821138 20.61891 
L 168.847146 20.964496 
L 168.908914 20.592331 
L 168.931671 20.702702 
L 169.012945 20.54894 
L 169.048705 20.612753 
L 169.250264 20.009911 
L 169.266519 20.175419 
L 169.273021 20.25814 
L 169.33804 19.750993 
L 169.341291 19.76865 
L 169.383554 20.01119 
L 169.347793 19.745532 
L 169.458325 19.837254 
L 169.461576 19.842398 
L 169.47458 19.697925 
L 169.591615 19.491641 
L 169.490835 19.720731 
L 169.594866 19.49571 
L 169.64363 19.86117 
L 169.718402 19.585622 
L 169.841938 18.995322 
L 169.74766 19.685333 
L 169.845189 18.99755 
L 169.975227 19.559205 
L 169.874448 18.86782 
L 169.981729 19.548044 
L 169.988231 19.48031 
L 170.036995 19.788425 
L 170.040246 19.740602 
L 170.115018 20.056069 
L 170.076007 19.674895 
L 170.147528 19.724838 
L 170.180037 19.638551 
L 170.206045 19.874585 
L 170.225551 19.943243 
L 170.293821 19.674564 
L 170.3946 19.326581 
L 170.336083 19.72149 
L 170.42711 19.475032 
L 170.449867 19.691693 
L 170.540893 19.56166 
L 170.612414 19.083939 
L 170.670931 19.259904 
L 170.76846 19.724554 
L 170.794468 19.568185 
L 170.872491 19.630683 
L 170.807472 19.475882 
L 170.882244 19.531022 
L 170.976521 19.414972 
L 170.914753 19.544519 
L 170.992776 19.474264 
L 171.100057 20.162511 
L 171.14232 20.10029 
L 171.158575 20.212951 
L 171.275609 20.526745 
L 171.181331 20.150363 
L 171.295115 20.462003 
L 171.327624 20.254226 
L 171.418651 20.307993 
L 171.542187 20.583016 
L 171.639716 20.764655 
L 171.590952 20.535213 
L 171.65272 20.621383 
L 171.655971 20.543161 
L 171.655971 20.543161 
" clip-path="url(#p6c9c6ee4ec)" style="fill: none; stroke: #0f3455; stroke-linecap: square"/>
   </g>
   <g id="patch_3">
    <path d="M 31.838925 116.206749 
L 31.838925 7.059249 
" style="fill: none; stroke: #000000; stroke-width: 0.5; stroke-linejoin: miter; stroke-linecap: square"/>
   </g>
   <g id="patch_4">
    <path d="M 178.313925 116.206749 
L 178.313925 7.059249 
" style="fill: none; stroke: #000000; stroke-width: 0.5; stroke-linejoin: miter; stroke-linecap: square"/>
   </g>
   <g id="patch_5">
    <path d="M 31.838925 116.206749 
L 178.313925 116.206749 
" style="fill: none; stroke: #000000; stroke-width: 0.5; stroke-linejoin: miter; stroke-linecap: square"/>
   </g>
   <g id="patch_6">
    <path d="M 31.838925 7.059249 
L 178.313925 7.059249 
" style="fill: none; stroke: #000000; stroke-width: 0.5; stroke-linejoin: miter; stroke-linecap: square"/>
   </g>
  </g>
  <g id="axes_2">
   <g id="matplotlib.axis_3">
    <g id="ytick_22">
     <g id="line2d_50">
      <defs>
       <path id="mb8b7ba1449" d="M 0 0 
L -3 0 
" style="stroke: #000000; stroke-width: 0.5"/>
      </defs>
      <g>
       <use xlink:href="#mb8b7ba1449" x="178.313925" y="116.206749" style="stroke: #000000; stroke-width: 0.5"/>
      </g>
     </g>
     <g id="text_12">
      <!-- $\mathdefault{0}$ -->
      <g transform="translate(181.813925 119.665998) scale(0.1 -0.1)">
       <use xlink:href="#CMR17-30" transform="scale(0.996264)"/>
      </g>
     </g>
    </g>
    <g id="ytick_23">
     <g id="line2d_51">
      <g>
       <use xlink:href="#mb8b7ba1449" x="178.313925" y="91.951749" style="stroke: #000000; stroke-width: 0.5"/>
      </g>
     </g>
     <g id="text_13">
      <!-- $\mathdefault{10}$ -->
      <g transform="translate(181.813925 95.410998) scale(0.1 -0.1)">
       <use xlink:href="#CMR17-31" transform="scale(0.996264)"/>
       <use xlink:href="#CMR17-30" transform="translate(45.690477 0) scale(0.996264)"/>
      </g>
     </g>
    </g>
    <g id="ytick_24">
     <g id="line2d_52">
      <g>
       <use xlink:href="#mb8b7ba1449" x="178.313925" y="67.696749" style="stroke: #000000; stroke-width: 0.5"/>
      </g>
     </g>
     <g id="text_14">
      <!-- $\mathdefault{20}$ -->
      <g transform="translate(181.813925 71.155998) scale(0.1 -0.1)">
       <use xlink:href="#CMR17-32" transform="scale(0.996264)"/>
       <use xlink:href="#CMR17-30" transform="translate(45.690477 0) scale(0.996264)"/>
      </g>
     </g>
    </g>
    <g id="ytick_25">
     <g id="line2d_53">
      <g>
       <use xlink:href="#mb8b7ba1449" x="178.313925" y="43.441749" style="stroke: #000000; stroke-width: 0.5"/>
      </g>
     </g>
     <g id="text_15">
      <!-- $\mathdefault{30}$ -->
      <g transform="translate(181.813925 46.900998) scale(0.1 -0.1)">
       <defs>
        <path id="CMR17-33" d="M 1414 2157 
C 1984 2157 2234 1662 2234 1090 
C 2234 320 1824 25 1453 25 
C 1114 25 563 194 390 693 
C 422 680 454 680 486 680 
C 640 680 755 782 755 948 
C 755 1133 614 1216 486 1216 
C 378 1216 211 1165 211 926 
C 211 335 787 -128 1466 -128 
C 2176 -128 2720 430 2720 1085 
C 2720 1707 2208 2157 1600 2227 
C 2086 2328 2554 2756 2554 3329 
C 2554 3820 2048 4179 1472 4179 
C 890 4179 378 3829 378 3329 
C 378 3110 544 3072 627 3072 
C 762 3072 877 3155 877 3321 
C 877 3486 762 3569 627 3569 
C 602 3569 570 3569 544 3557 
C 730 3959 1235 4032 1459 4032 
C 1683 4032 2106 3925 2106 3320 
C 2106 3143 2080 2828 1862 2550 
C 1670 2304 1453 2304 1242 2284 
C 1210 2284 1062 2269 1037 2269 
C 992 2263 966 2257 966 2208 
C 966 2163 973 2157 1101 2157 
L 1414 2157 
z
" transform="scale(0.015625)"/>
       </defs>
       <use xlink:href="#CMR17-33" transform="scale(0.996264)"/>
       <use xlink:href="#CMR17-30" transform="translate(45.690477 0) scale(0.996264)"/>
      </g>
     </g>
    </g>
    <g id="ytick_26">
     <g id="line2d_54">
      <g>
       <use xlink:href="#mb8b7ba1449" x="178.313925" y="19.186749" style="stroke: #000000; stroke-width: 0.5"/>
      </g>
     </g>
     <g id="text_16">
      <!-- $\mathdefault{40}$ -->
      <g transform="translate(181.813925 22.645998) scale(0.1 -0.1)">
       <use xlink:href="#CMR17-34" transform="scale(0.996264)"/>
       <use xlink:href="#CMR17-30" transform="translate(45.690477 0) scale(0.996264)"/>
      </g>
     </g>
    </g>
    <g id="ytick_27">
     <g id="line2d_55">
      <defs>
       <path id="m77e8733efe" d="M 0 0 
L -1.5 0 
" style="stroke: #000000; stroke-width: 0.5"/>
      </defs>
      <g>
       <use xlink:href="#m77e8733efe" x="178.313925" y="111.355749" style="stroke: #000000; stroke-width: 0.5"/>
      </g>
     </g>
    </g>
    <g id="ytick_28">
     <g id="line2d_56">
      <g>
       <use xlink:href="#m77e8733efe" x="178.313925" y="106.504749" style="stroke: #000000; stroke-width: 0.5"/>
      </g>
     </g>
    </g>
    <g id="ytick_29">
     <g id="line2d_57">
      <g>
       <use xlink:href="#m77e8733efe" x="178.313925" y="101.653749" style="stroke: #000000; stroke-width: 0.5"/>
      </g>
     </g>
    </g>
    <g id="ytick_30">
     <g id="line2d_58">
      <g>
       <use xlink:href="#m77e8733efe" x="178.313925" y="96.802749" style="stroke: #000000; stroke-width: 0.5"/>
      </g>
     </g>
    </g>
    <g id="ytick_31">
     <g id="line2d_59">
      <g>
       <use xlink:href="#m77e8733efe" x="178.313925" y="87.100749" style="stroke: #000000; stroke-width: 0.5"/>
      </g>
     </g>
    </g>
    <g id="ytick_32">
     <g id="line2d_60">
      <g>
       <use xlink:href="#m77e8733efe" x="178.313925" y="82.249749" style="stroke: #000000; stroke-width: 0.5"/>
      </g>
     </g>
    </g>
    <g id="ytick_33">
     <g id="line2d_61">
      <g>
       <use xlink:href="#m77e8733efe" x="178.313925" y="77.398749" style="stroke: #000000; stroke-width: 0.5"/>
      </g>
     </g>
    </g>
    <g id="ytick_34">
     <g id="line2d_62">
      <g>
       <use xlink:href="#m77e8733efe" x="178.313925" y="72.547749" style="stroke: #000000; stroke-width: 0.5"/>
      </g>
     </g>
    </g>
    <g id="ytick_35">
     <g id="line2d_63">
      <g>
       <use xlink:href="#m77e8733efe" x="178.313925" y="62.845749" style="stroke: #000000; stroke-width: 0.5"/>
      </g>
     </g>
    </g>
    <g id="ytick_36">
     <g id="line2d_64">
      <g>
       <use xlink:href="#m77e8733efe" x="178.313925" y="57.994749" style="stroke: #000000; stroke-width: 0.5"/>
      </g>
     </g>
    </g>
    <g id="ytick_37">
     <g id="line2d_65">
      <g>
       <use xlink:href="#m77e8733efe" x="178.313925" y="53.143749" style="stroke: #000000; stroke-width: 0.5"/>
      </g>
     </g>
    </g>
    <g id="ytick_38">
     <g id="line2d_66">
      <g>
       <use xlink:href="#m77e8733efe" x="178.313925" y="48.292749" style="stroke: #000000; stroke-width: 0.5"/>
      </g>
     </g>
    </g>
    <g id="ytick_39">
     <g id="line2d_67">
      <g>
       <use xlink:href="#m77e8733efe" x="178.313925" y="38.590749" style="stroke: #000000; stroke-width: 0.5"/>
      </g>
     </g>
    </g>
    <g id="ytick_40">
     <g id="line2d_68">
      <g>
       <use xlink:href="#m77e8733efe" x="178.313925" y="33.739749" style="stroke: #000000; stroke-width: 0.5"/>
      </g>
     </g>
    </g>
    <g id="ytick_41">
     <g id="line2d_69">
      <g>
       <use xlink:href="#m77e8733efe" x="178.313925" y="28.888749" style="stroke: #000000; stroke-width: 0.5"/>
      </g>
     </g>
    </g>
    <g id="ytick_42">
     <g id="line2d_70">
      <g>
       <use xlink:href="#m77e8733efe" x="178.313925" y="24.037749" style="stroke: #000000; stroke-width: 0.5"/>
      </g>
     </g>
    </g>
    <g id="ytick_43">
     <g id="line2d_71">
      <g>
       <use xlink:href="#m77e8733efe" x="178.313925" y="14.335749" style="stroke: #000000; stroke-width: 0.5"/>
      </g>
     </g>
    </g>
    <g id="ytick_44">
     <g id="line2d_72">
      <g>
       <use xlink:href="#m77e8733efe" x="178.313925" y="9.484749" style="stroke: #000000; stroke-width: 0.5"/>
      </g>
     </g>
    </g>
    <g id="text_17">
     <!-- $U_0(t)~[\mathrm{mV}]$ -->
     <g style="fill: #cf695e" transform="translate(203.248576 85.326132) rotate(-90) scale(0.1 -0.1)">
      <defs>
       <path id="CMMI12-55" d="M 3238 1474 
C 3014 581 2272 57 1670 57 
C 1210 57 896 363 896 891 
C 896 916 896 1107 966 1387 
L 1594 3887 
C 1651 4103 1664 4167 2118 4167 
C 2234 4167 2298 4167 2298 4282 
C 2298 4352 2240 4352 2202 4352 
C 2086 4352 1952 4352 1830 4352 
L 1075 4352 
C 954 4352 819 4352 698 4352 
C 653 4352 576 4352 576 4231 
C 576 4167 621 4167 742 4167 
C 1126 4167 1126 4116 1126 4046 
C 1126 4008 1082 3824 1050 3715 
L 493 1488 
C 474 1418 435 1246 435 1075 
C 435 374 941 -128 1638 -128 
C 2285 -128 3002 384 3328 1197 
C 3373 1305 3430 1530 3469 1702 
C 3533 1933 3667 2496 3712 2662 
L 3955 3623 
C 4038 3956 4090 4167 4653 4167 
C 4704 4173 4730 4224 4730 4282 
C 4730 4352 4672 4352 4646 4352 
C 4557 4352 4442 4352 4352 4352 
L 4051 4352 
C 3654 4352 3450 4352 3443 4352 
C 3405 4352 3328 4352 3328 4231 
C 3328 4167 3379 4167 3424 4167 
C 3808 4167 3834 4020 3834 3905 
C 3834 3848 3834 3828 3808 3739 
L 3238 1474 
z
" transform="scale(0.015625)"/>
       <path id="CMR17-28" d="M 1958 -1561 
C 1958 -1555 1958 -1542 1939 -1523 
C 1645 -1224 858 -407 858 1581 
C 858 3569 1632 4379 1946 4697 
C 1946 4704 1958 4717 1958 4736 
C 1958 4755 1939 4768 1914 4768 
C 1843 4768 1299 4296 986 3594 
C 666 2887 576 2199 576 1588 
C 576 1128 621 351 1005 -471 
C 1312 -1135 1837 -1600 1914 -1600 
C 1946 -1600 1958 -1587 1958 -1561 
z
" transform="scale(0.015625)"/>
       <path id="CMR17-29" d="M 1683 1581 
C 1683 2040 1638 2817 1254 3639 
C 947 4303 422 4768 346 4768 
C 326 4768 301 4761 301 4729 
C 301 4717 307 4710 314 4697 
C 621 4378 1402 3568 1402 1584 
C 1402 -407 627 -1217 314 -1537 
C 307 -1549 301 -1556 301 -1568 
C 301 -1600 326 -1600 346 -1600 
C 416 -1600 960 -1128 1274 -426 
C 1594 281 1683 969 1683 1581 
z
" transform="scale(0.015625)"/>
      </defs>
      <use xlink:href="#CMMI12-55" transform="scale(0.996264)"/>
      <use xlink:href="#CMR17-30" transform="translate(66.252119 -14.943915) scale(0.697382)"/>
      <use xlink:href="#CMR17-28" transform="translate(98.733433 0) scale(0.996264)"/>
      <use xlink:href="#CMMI12-74" transform="translate(134.014201 0) scale(0.996264)"/>
      <use xlink:href="#CMR17-29" transform="translate(169.240531 0) scale(0.996264)"/>
      <use xlink:href="#CMR17-5b" transform="translate(234.597265 0) scale(0.996264)"/>
      <use xlink:href="#CMR17-6d" transform="translate(259.468324 0) scale(0.996264)"/>
      <use xlink:href="#CMR17-56" transform="translate(336.387914 0) scale(0.996264)"/>
      <use xlink:href="#CMR17-5d" transform="translate(406.76151 0) scale(0.996264)"/>
     </g>
    </g>
   </g>
   <g id="line2d_73">
    <path d="M 38.49688 18.701649 
L 60.687894 18.701649 
L 60.801678 116.206749 
L 149.461705 116.206749 
L 149.575489 18.701649 
L 171.655971 18.701649 
L 171.655971 18.701649 
" clip-path="url(#p6c9c6ee4ec)" style="fill: none; stroke: #cf695e; stroke-linecap: square"/>
   </g>
   <g id="patch_7">
    <path d="M 31.838925 116.206749 
L 31.838925 7.059249 
" style="fill: none; stroke: #000000; stroke-width: 0.5; stroke-linejoin: miter; stroke-linecap: square"/>
   </g>
   <g id="patch_8">
    <path d="M 178.313925 116.206749 
L 178.313925 7.059249 
" style="fill: none; stroke: #000000; stroke-width: 0.5; stroke-linejoin: miter; stroke-linecap: square"/>
   </g>
   <g id="patch_9">
    <path d="M 31.838925 116.206749 
L 178.313925 116.206749 
" style="fill: none; stroke: #000000; stroke-width: 0.5; stroke-linejoin: miter; stroke-linecap: square"/>
   </g>
   <g id="patch_10">
    <path d="M 31.838925 7.059249 
L 178.313925 7.059249 
" style="fill: none; stroke: #000000; stroke-width: 0.5; stroke-linejoin: miter; stroke-linecap: square"/>
   </g>
  </g>
 </g>
 <defs>
  <clipPath id="p6c9c6ee4ec">
   <rect x="31.838925" y="7.059249" width="146.475" height="109.1475"/>
  </clipPath>
 </defs>
</svg>
