<?xml version="1.0" encoding="utf-8" standalone="no"?>
<!DOCTYPE svg PUBLIC "-//W3C//DTD SVG 1.1//EN"
  "http://www.w3.org/Graphics/SVG/1.1/DTD/svg11.dtd">
<svg xmlns:xlink="http://www.w3.org/1999/xlink" width="187.742091pt" height="142.665817pt" viewBox="0 0 187.742091 142.665817" xmlns="http://www.w3.org/2000/svg" version="1.1">
 <metadata>
  <rdf:RDF xmlns:dc="http://purl.org/dc/elements/1.1/" xmlns:cc="http://creativecommons.org/ns#" xmlns:rdf="http://www.w3.org/1999/02/22-rdf-syntax-ns#">
   <cc:Work>
    <dc:type rdf:resource="http://purl.org/dc/dcmitype/StillImage"/>
    <dc:date>2026-04-30T20:10:25.522940</dc:date>
    <dc:format>image/svg+xml</dc:format>
    <dc:creator>
     <cc:Agent>
      <dc:title>Matplotlib v3.7.0, https://matplotlib.org/</dc:title>
     </cc:Agent>
    </dc:creator>
   </cc:Work>
  </rdf:RDF>
 </metadata>
 <defs>
  <style type="text/css">*{stroke-linejoin: round; stroke-linecap: butt}</style>
 </defs>
 <g id="figure_1">
  <g id="patch_1">
   <path d="M 0 142.665817 
L 187.742091 142.665817 
L 187.742091 0 
L 0 0 
L 0 142.665817 
z
" style="fill: none"/>
  </g>
  <g id="axes_1">
   <g id="patch_2">
    <path d="M 37.667091 112.7475 
L 184.142091 112.7475 
L 184.142091 3.6 
L 37.667091 3.6 
L 37.667091 112.7475 
z
" style="fill: none"/>
   </g>
   <g id="matplotlib.axis_1">
    <g id="xtick_1">
     <g id="line2d_1">
      <path d="M 99.881249 112.7475 
L 99.881249 3.6 
" clip-path="url(#pc99e3a256f)" style="fill: none; stroke-dasharray: 1.85,0.8; stroke-dashoffset: 0; stroke: #000000; stroke-opacity: 0.5; stroke-width: 0.5"/>
     </g>
     <g id="line2d_2">
      <defs>
       <path id="m3d8753e917" d="M 0 0 
L 0 -3 
" style="stroke: #000000; stroke-width: 0.5"/>
      </defs>
      <g>
       <use xlink:href="#m3d8753e917" x="99.881249" y="112.7475" style="stroke: #000000; stroke-width: 0.5"/>
      </g>
     </g>
     <g id="line2d_3">
      <defs>
       <path id="mfaf32b87f8" d="M 0 0 
L 0 3 
" style="stroke: #000000; stroke-width: 0.5"/>
      </defs>
      <g>
       <use xlink:href="#mfaf32b87f8" x="99.881249" y="3.6" style="stroke: #000000; stroke-width: 0.5"/>
      </g>
     </g>
     <g id="text_1">
      <!-- $\mathdefault{10^{0}}$ -->
      <g transform="translate(92.914295 123.165998) scale(0.1 -0.1)">
       <defs>
        <path id="CMR17-31" d="M 1702 4058 
C 1702 4192 1696 4192 1606 4192 
C 1357 3916 979 3827 621 3827 
C 602 3827 570 3827 563 3808 
C 557 3795 557 3782 557 3648 
C 755 3648 1088 3686 1344 3839 
L 1344 461 
C 1344 236 1331 160 781 160 
L 589 160 
L 589 0 
C 896 0 1216 0 1523 0 
C 1830 0 2150 0 2458 0 
L 2458 160 
L 2266 160 
C 1715 160 1702 230 1702 458 
L 1702 4058 
z
" transform="scale(0.015625)"/>
        <path id="CMR17-30" d="M 2688 2025 
C 2688 2416 2682 3080 2413 3591 
C 2176 4039 1798 4198 1466 4198 
C 1158 4198 768 4058 525 3597 
C 269 3118 243 2524 243 2025 
C 243 1661 250 1106 448 619 
C 723 -39 1216 -128 1466 -128 
C 1760 -128 2208 -7 2470 600 
C 2662 1042 2688 1559 2688 2025 
z
M 1466 -26 
C 1056 -26 813 325 723 812 
C 653 1188 653 1738 653 2096 
C 653 2588 653 2997 736 3387 
C 858 3929 1216 4096 1466 4096 
C 1728 4096 2067 3923 2189 3400 
C 2272 3036 2278 2607 2278 2096 
C 2278 1680 2278 1169 2202 792 
C 2067 95 1690 -26 1466 -26 
z
" transform="scale(0.015625)"/>
       </defs>
       <use xlink:href="#CMR17-31" transform="scale(0.996264)"/>
       <use xlink:href="#CMR17-30" transform="translate(45.690477 0) scale(0.996264)"/>
       <use xlink:href="#CMR17-30" transform="translate(91.380954 36.153639) scale(0.697382)"/>
      </g>
     </g>
    </g>
    <g id="xtick_2">
     <g id="line2d_4">
      <path d="M 173.118749 112.7475 
L 173.118749 3.6 
" clip-path="url(#pc99e3a256f)" style="fill: none; stroke-dasharray: 1.85,0.8; stroke-dashoffset: 0; stroke: #000000; stroke-opacity: 0.5; stroke-width: 0.5"/>
     </g>
     <g id="line2d_5">
      <g>
       <use xlink:href="#m3d8753e917" x="173.118749" y="112.7475" style="stroke: #000000; stroke-width: 0.5"/>
      </g>
     </g>
     <g id="line2d_6">
      <g>
       <use xlink:href="#mfaf32b87f8" x="173.118749" y="3.6" style="stroke: #000000; stroke-width: 0.5"/>
      </g>
     </g>
     <g id="text_2">
      <!-- $\mathdefault{10^{2}}$ -->
      <g transform="translate(166.151795 123.165998) scale(0.1 -0.1)">
       <defs>
        <path id="CMR17-32" d="M 2669 989 
L 2554 989 
C 2490 536 2438 459 2413 420 
C 2381 369 1920 369 1830 369 
L 602 369 
C 832 619 1280 1072 1824 1597 
C 2214 1967 2669 2402 2669 3035 
C 2669 3790 2067 4224 1395 4224 
C 691 4224 262 3604 262 3030 
C 262 2780 448 2748 525 2748 
C 589 2748 781 2787 781 3010 
C 781 3207 614 3264 525 3264 
C 486 3264 448 3258 422 3245 
C 544 3790 915 4058 1306 4058 
C 1862 4058 2227 3617 2227 3035 
C 2227 2479 1901 2000 1536 1584 
L 262 146 
L 262 0 
L 2515 0 
L 2669 989 
z
" transform="scale(0.015625)"/>
       </defs>
       <use xlink:href="#CMR17-31" transform="scale(0.996264)"/>
       <use xlink:href="#CMR17-30" transform="translate(45.690477 0) scale(0.996264)"/>
       <use xlink:href="#CMR17-32" transform="translate(91.380954 36.153639) scale(0.697382)"/>
      </g>
     </g>
    </g>
    <g id="text_3">
     <!-- $\tau~[\mathrm{ns}]$ -->
     <g transform="translate(99.003024 136.575157) scale(0.1 -0.1)">
      <defs>
       <path id="CMMI12-1c" d="M 1837 2408 
L 2899 2408 
C 2982 2408 3194 2408 3194 2612 
C 3194 2752 3072 2752 2957 2752 
L 1197 2752 
C 1050 2752 832 2752 538 2440 
C 371 2255 166 1917 166 1879 
C 166 1841 198 1828 237 1828 
C 282 1828 288 1847 320 1885 
C 653 2408 986 2408 1146 2408 
L 1677 2408 
L 1011 223 
C 979 127 979 114 979 95 
C 979 25 1024 -64 1152 -64 
C 1350 -64 1382 108 1402 203 
L 1837 2408 
z
" transform="scale(0.015625)"/>
       <path id="CMR17-5b" d="M 1504 -1600 
L 1504 -1377 
L 902 -1377 
L 902 4544 
L 1504 4544 
L 1504 4767 
L 678 4767 
L 678 -1600 
L 1504 -1600 
z
" transform="scale(0.015625)"/>
       <path id="CMR17-6e" d="M 2656 1933 
C 2656 2259 2592 2790 1837 2790 
C 1331 2790 1069 2400 973 2144 
L 966 2144 
L 966 2790 
L 211 2720 
L 211 2554 
C 589 2554 646 2515 646 2208 
L 646 428 
C 646 184 621 153 211 153 
L 211 -13 
C 365 0 646 0 813 0 
C 979 0 1267 0 1421 -13 
L 1421 153 
C 1011 153 986 178 986 428 
L 986 1658 
C 986 2247 1344 2688 1792 2688 
C 2266 2688 2317 2266 2317 1958 
L 2317 428 
C 2317 184 2291 153 1882 153 
L 1882 -13 
C 2035 0 2317 0 2483 0 
C 2650 0 2938 0 3091 -13 
L 3091 153 
C 2682 153 2656 178 2656 428 
L 2656 1933 
z
" transform="scale(0.015625)"/>
       <path id="CMR17-73" d="M 1978 2697 
C 1978 2813 1971 2819 1933 2819 
C 1907 2819 1901 2813 1824 2717 
C 1805 2691 1747 2626 1728 2601 
C 1523 2819 1235 2819 1126 2819 
C 416 2819 160 2447 160 2076 
C 160 1498 813 1365 998 1325 
C 1402 1243 1542 1217 1677 1101 
C 1760 1025 1901 884 1901 654 
C 1901 384 1747 38 1158 38 
C 602 38 403 460 288 1021 
C 269 1110 269 1117 218 1117 
C 166 1117 160 1110 160 983 
L 160 63 
C 160 -51 166 -58 205 -58 
C 237 -58 243 -51 275 0 
C 314 57 410 211 448 276 
C 576 103 800 -64 1158 -64 
C 1792 -64 2131 283 2131 784 
C 2131 1112 1958 1285 1875 1362 
C 1683 1561 1459 1606 1190 1657 
C 838 1735 390 1825 390 2217 
C 390 2383 480 2737 1126 2737 
C 1811 2737 1850 2094 1862 1888 
C 1869 1856 1901 1849 1920 1849 
C 1978 1849 1978 1869 1978 1978 
L 1978 2697 
z
" transform="scale(0.015625)"/>
       <path id="CMR17-5d" d="M 915 4767 
L 90 4767 
L 90 4544 
L 691 4544 
L 691 -1377 
L 90 -1377 
L 90 -1600 
L 915 -1600 
L 915 4767 
z
" transform="scale(0.015625)"/>
      </defs>
      <use xlink:href="#CMMI12-1c" transform="scale(0.996264)"/>
      <use xlink:href="#CMR17-5b" transform="translate(83.567132 0) scale(0.996264)"/>
      <use xlink:href="#CMR17-6e" transform="translate(108.43819 0) scale(0.996264)"/>
      <use xlink:href="#CMR17-73" transform="translate(159.33356 0) scale(0.996264)"/>
      <use xlink:href="#CMR17-5d" transform="translate(195.134898 0) scale(0.996264)"/>
     </g>
    </g>
   </g>
   <g id="matplotlib.axis_2">
    <g id="ytick_1">
     <g id="line2d_7">
      <path d="M 37.667091 112.7475 
L 184.142091 112.7475 
" clip-path="url(#pc99e3a256f)" style="fill: none; stroke-dasharray: 1.85,0.8; stroke-dashoffset: 0; stroke: #000000; stroke-opacity: 0.5; stroke-width: 0.5"/>
     </g>
     <g id="line2d_8">
      <defs>
       <path id="md9495f4804" d="M 0 0 
L 3 0 
" style="stroke: #000000; stroke-width: 0.5"/>
      </defs>
      <g>
       <use xlink:href="#md9495f4804" x="37.667091" y="112.7475" style="stroke: #000000; stroke-width: 0.5"/>
      </g>
     </g>
     <g id="line2d_9">
      <defs>
       <path id="mdf6d632b0a" d="M 0 0 
L -3 0 
" style="stroke: #000000; stroke-width: 0.5"/>
      </defs>
      <g>
       <use xlink:href="#mdf6d632b0a" x="184.142091" y="112.7475" style="stroke: #000000; stroke-width: 0.5"/>
      </g>
     </g>
     <g id="text_4">
      <!-- $\mathdefault{0.00}$ -->
      <g transform="translate(16.455677 116.206749) scale(0.1 -0.1)">
       <defs>
        <path id="CMMI12-3a" d="M 1178 307 
C 1178 492 1024 619 870 619 
C 685 619 557 466 557 313 
C 557 128 710 0 864 0 
C 1050 0 1178 153 1178 307 
z
" transform="scale(0.015625)"/>
       </defs>
       <use xlink:href="#CMR17-30" transform="scale(0.996264)"/>
       <use xlink:href="#CMMI12-3a" transform="translate(45.690477 0) scale(0.996264)"/>
       <use xlink:href="#CMR17-30" transform="translate(72.787654 0) scale(0.996264)"/>
       <use xlink:href="#CMR17-30" transform="translate(118.478131 0) scale(0.996264)"/>
      </g>
     </g>
    </g>
    <g id="ytick_2">
     <g id="line2d_10">
      <path d="M 37.667091 90.008438 
L 184.142091 90.008438 
" clip-path="url(#pc99e3a256f)" style="fill: none; stroke-dasharray: 1.85,0.8; stroke-dashoffset: 0; stroke: #000000; stroke-opacity: 0.5; stroke-width: 0.5"/>
     </g>
     <g id="line2d_11">
      <g>
       <use xlink:href="#md9495f4804" x="37.667091" y="90.008438" style="stroke: #000000; stroke-width: 0.5"/>
      </g>
     </g>
     <g id="line2d_12">
      <g>
       <use xlink:href="#mdf6d632b0a" x="184.142091" y="90.008438" style="stroke: #000000; stroke-width: 0.5"/>
      </g>
     </g>
     <g id="text_5">
      <!-- $\mathdefault{0.25}$ -->
      <g transform="translate(16.455677 93.467687) scale(0.1 -0.1)">
       <defs>
        <path id="CMR17-35" d="M 730 3692 
C 794 3666 1056 3584 1325 3584 
C 1920 3584 2246 3911 2432 4100 
C 2432 4157 2432 4192 2394 4192 
C 2387 4192 2374 4192 2323 4163 
C 2099 4058 1837 3973 1517 3973 
C 1325 3973 1037 3999 723 4139 
C 653 4171 640 4171 634 4171 
C 602 4171 595 4164 595 4037 
L 595 2203 
C 595 2089 595 2057 659 2057 
C 691 2057 704 2070 736 2114 
C 941 2401 1222 2522 1542 2522 
C 1766 2522 2246 2382 2246 1289 
C 2246 1085 2246 715 2054 421 
C 1894 159 1645 25 1370 25 
C 947 25 518 320 403 814 
C 429 807 480 795 506 795 
C 589 795 749 840 749 1038 
C 749 1210 627 1280 506 1280 
C 358 1280 262 1190 262 1011 
C 262 454 704 -128 1382 -128 
C 2042 -128 2669 440 2669 1264 
C 2669 2030 2170 2624 1549 2624 
C 1222 2624 947 2503 730 2274 
L 730 3692 
z
" transform="scale(0.015625)"/>
       </defs>
       <use xlink:href="#CMR17-30" transform="scale(0.996264)"/>
       <use xlink:href="#CMMI12-3a" transform="translate(45.690477 0) scale(0.996264)"/>
       <use xlink:href="#CMR17-32" transform="translate(72.787654 0) scale(0.996264)"/>
       <use xlink:href="#CMR17-35" transform="translate(118.478131 0) scale(0.996264)"/>
      </g>
     </g>
    </g>
    <g id="ytick_3">
     <g id="line2d_13">
      <path d="M 37.667091 67.269375 
L 184.142091 67.269375 
" clip-path="url(#pc99e3a256f)" style="fill: none; stroke-dasharray: 1.85,0.8; stroke-dashoffset: 0; stroke: #000000; stroke-opacity: 0.5; stroke-width: 0.5"/>
     </g>
     <g id="line2d_14">
      <g>
       <use xlink:href="#md9495f4804" x="37.667091" y="67.269375" style="stroke: #000000; stroke-width: 0.5"/>
      </g>
     </g>
     <g id="line2d_15">
      <g>
       <use xlink:href="#mdf6d632b0a" x="184.142091" y="67.269375" style="stroke: #000000; stroke-width: 0.5"/>
      </g>
     </g>
     <g id="text_6">
      <!-- $\mathdefault{0.50}$ -->
      <g transform="translate(16.455677 70.728624) scale(0.1 -0.1)">
       <use xlink:href="#CMR17-30" transform="scale(0.996264)"/>
       <use xlink:href="#CMMI12-3a" transform="translate(45.690477 0) scale(0.996264)"/>
       <use xlink:href="#CMR17-35" transform="translate(72.787654 0) scale(0.996264)"/>
       <use xlink:href="#CMR17-30" transform="translate(118.478131 0) scale(0.996264)"/>
      </g>
     </g>
    </g>
    <g id="ytick_4">
     <g id="line2d_16">
      <path d="M 37.667091 44.530313 
L 184.142091 44.530313 
" clip-path="url(#pc99e3a256f)" style="fill: none; stroke-dasharray: 1.85,0.8; stroke-dashoffset: 0; stroke: #000000; stroke-opacity: 0.5; stroke-width: 0.5"/>
     </g>
     <g id="line2d_17">
      <g>
       <use xlink:href="#md9495f4804" x="37.667091" y="44.530313" style="stroke: #000000; stroke-width: 0.5"/>
      </g>
     </g>
     <g id="line2d_18">
      <g>
       <use xlink:href="#mdf6d632b0a" x="184.142091" y="44.530313" style="stroke: #000000; stroke-width: 0.5"/>
      </g>
     </g>
     <g id="text_7">
      <!-- $\mathdefault{0.75}$ -->
      <g transform="translate(16.455677 47.989562) scale(0.1 -0.1)">
       <defs>
        <path id="CMR17-37" d="M 2886 3941 
L 2886 4081 
L 1382 4081 
C 634 4081 621 4165 595 4288 
L 480 4288 
L 294 3094 
L 410 3094 
C 429 3215 474 3540 550 3661 
C 589 3712 1062 3712 1171 3712 
L 2579 3712 
L 1869 2661 
C 1395 1954 1069 999 1069 165 
C 1069 89 1069 -128 1299 -128 
C 1530 -128 1530 89 1530 171 
L 1530 465 
C 1530 1508 1709 2196 2003 2636 
L 2886 3941 
z
" transform="scale(0.015625)"/>
       </defs>
       <use xlink:href="#CMR17-30" transform="scale(0.996264)"/>
       <use xlink:href="#CMMI12-3a" transform="translate(45.690477 0) scale(0.996264)"/>
       <use xlink:href="#CMR17-37" transform="translate(72.787654 0) scale(0.996264)"/>
       <use xlink:href="#CMR17-35" transform="translate(118.478131 0) scale(0.996264)"/>
      </g>
     </g>
    </g>
    <g id="ytick_5">
     <g id="line2d_19">
      <path d="M 37.667091 21.79125 
L 184.142091 21.79125 
" clip-path="url(#pc99e3a256f)" style="fill: none; stroke-dasharray: 1.85,0.8; stroke-dashoffset: 0; stroke: #000000; stroke-opacity: 0.5; stroke-width: 0.5"/>
     </g>
     <g id="line2d_20">
      <g>
       <use xlink:href="#md9495f4804" x="37.667091" y="21.79125" style="stroke: #000000; stroke-width: 0.5"/>
      </g>
     </g>
     <g id="line2d_21">
      <g>
       <use xlink:href="#mdf6d632b0a" x="184.142091" y="21.79125" style="stroke: #000000; stroke-width: 0.5"/>
      </g>
     </g>
     <g id="text_8">
      <!-- $\mathdefault{1.00}$ -->
      <g transform="translate(16.455677 25.250499) scale(0.1 -0.1)">
       <use xlink:href="#CMR17-31" transform="scale(0.996264)"/>
       <use xlink:href="#CMMI12-3a" transform="translate(45.690477 0) scale(0.996264)"/>
       <use xlink:href="#CMR17-30" transform="translate(72.787654 0) scale(0.996264)"/>
       <use xlink:href="#CMR17-30" transform="translate(118.478131 0) scale(0.996264)"/>
      </g>
     </g>
    </g>
    <g id="ytick_6">
     <g id="line2d_22">
      <defs>
       <path id="ma36550c564" d="M 0 0 
L 1.5 0 
" style="stroke: #000000; stroke-width: 0.5"/>
      </defs>
      <g>
       <use xlink:href="#ma36550c564" x="37.667091" y="108.199688" style="stroke: #000000; stroke-width: 0.5"/>
      </g>
     </g>
     <g id="line2d_23">
      <defs>
       <path id="me17ae26d28" d="M 0 0 
L -1.5 0 
" style="stroke: #000000; stroke-width: 0.5"/>
      </defs>
      <g>
       <use xlink:href="#me17ae26d28" x="184.142091" y="108.199688" style="stroke: #000000; stroke-width: 0.5"/>
      </g>
     </g>
    </g>
    <g id="ytick_7">
     <g id="line2d_24">
      <g>
       <use xlink:href="#ma36550c564" x="37.667091" y="103.651875" style="stroke: #000000; stroke-width: 0.5"/>
      </g>
     </g>
     <g id="line2d_25">
      <g>
       <use xlink:href="#me17ae26d28" x="184.142091" y="103.651875" style="stroke: #000000; stroke-width: 0.5"/>
      </g>
     </g>
    </g>
    <g id="ytick_8">
     <g id="line2d_26">
      <g>
       <use xlink:href="#ma36550c564" x="37.667091" y="99.104062" style="stroke: #000000; stroke-width: 0.5"/>
      </g>
     </g>
     <g id="line2d_27">
      <g>
       <use xlink:href="#me17ae26d28" x="184.142091" y="99.104062" style="stroke: #000000; stroke-width: 0.5"/>
      </g>
     </g>
    </g>
    <g id="ytick_9">
     <g id="line2d_28">
      <g>
       <use xlink:href="#ma36550c564" x="37.667091" y="94.55625" style="stroke: #000000; stroke-width: 0.5"/>
      </g>
     </g>
     <g id="line2d_29">
      <g>
       <use xlink:href="#me17ae26d28" x="184.142091" y="94.55625" style="stroke: #000000; stroke-width: 0.5"/>
      </g>
     </g>
    </g>
    <g id="ytick_10">
     <g id="line2d_30">
      <g>
       <use xlink:href="#ma36550c564" x="37.667091" y="85.460625" style="stroke: #000000; stroke-width: 0.5"/>
      </g>
     </g>
     <g id="line2d_31">
      <g>
       <use xlink:href="#me17ae26d28" x="184.142091" y="85.460625" style="stroke: #000000; stroke-width: 0.5"/>
      </g>
     </g>
    </g>
    <g id="ytick_11">
     <g id="line2d_32">
      <g>
       <use xlink:href="#ma36550c564" x="37.667091" y="80.912813" style="stroke: #000000; stroke-width: 0.5"/>
      </g>
     </g>
     <g id="line2d_33">
      <g>
       <use xlink:href="#me17ae26d28" x="184.142091" y="80.912813" style="stroke: #000000; stroke-width: 0.5"/>
      </g>
     </g>
    </g>
    <g id="ytick_12">
     <g id="line2d_34">
      <g>
       <use xlink:href="#ma36550c564" x="37.667091" y="76.365" style="stroke: #000000; stroke-width: 0.5"/>
      </g>
     </g>
     <g id="line2d_35">
      <g>
       <use xlink:href="#me17ae26d28" x="184.142091" y="76.365" style="stroke: #000000; stroke-width: 0.5"/>
      </g>
     </g>
    </g>
    <g id="ytick_13">
     <g id="line2d_36">
      <g>
       <use xlink:href="#ma36550c564" x="37.667091" y="71.817188" style="stroke: #000000; stroke-width: 0.5"/>
      </g>
     </g>
     <g id="line2d_37">
      <g>
       <use xlink:href="#me17ae26d28" x="184.142091" y="71.817188" style="stroke: #000000; stroke-width: 0.5"/>
      </g>
     </g>
    </g>
    <g id="ytick_14">
     <g id="line2d_38">
      <g>
       <use xlink:href="#ma36550c564" x="37.667091" y="62.721563" style="stroke: #000000; stroke-width: 0.5"/>
      </g>
     </g>
     <g id="line2d_39">
      <g>
       <use xlink:href="#me17ae26d28" x="184.142091" y="62.721563" style="stroke: #000000; stroke-width: 0.5"/>
      </g>
     </g>
    </g>
    <g id="ytick_15">
     <g id="line2d_40">
      <g>
       <use xlink:href="#ma36550c564" x="37.667091" y="58.17375" style="stroke: #000000; stroke-width: 0.5"/>
      </g>
     </g>
     <g id="line2d_41">
      <g>
       <use xlink:href="#me17ae26d28" x="184.142091" y="58.17375" style="stroke: #000000; stroke-width: 0.5"/>
      </g>
     </g>
    </g>
    <g id="ytick_16">
     <g id="line2d_42">
      <g>
       <use xlink:href="#ma36550c564" x="37.667091" y="53.625937" style="stroke: #000000; stroke-width: 0.5"/>
      </g>
     </g>
     <g id="line2d_43">
      <g>
       <use xlink:href="#me17ae26d28" x="184.142091" y="53.625937" style="stroke: #000000; stroke-width: 0.5"/>
      </g>
     </g>
    </g>
    <g id="ytick_17">
     <g id="line2d_44">
      <g>
       <use xlink:href="#ma36550c564" x="37.667091" y="49.078125" style="stroke: #000000; stroke-width: 0.5"/>
      </g>
     </g>
     <g id="line2d_45">
      <g>
       <use xlink:href="#me17ae26d28" x="184.142091" y="49.078125" style="stroke: #000000; stroke-width: 0.5"/>
      </g>
     </g>
    </g>
    <g id="ytick_18">
     <g id="line2d_46">
      <g>
       <use xlink:href="#ma36550c564" x="37.667091" y="39.9825" style="stroke: #000000; stroke-width: 0.5"/>
      </g>
     </g>
     <g id="line2d_47">
      <g>
       <use xlink:href="#me17ae26d28" x="184.142091" y="39.9825" style="stroke: #000000; stroke-width: 0.5"/>
      </g>
     </g>
    </g>
    <g id="ytick_19">
     <g id="line2d_48">
      <g>
       <use xlink:href="#ma36550c564" x="37.667091" y="35.434688" style="stroke: #000000; stroke-width: 0.5"/>
      </g>
     </g>
     <g id="line2d_49">
      <g>
       <use xlink:href="#me17ae26d28" x="184.142091" y="35.434688" style="stroke: #000000; stroke-width: 0.5"/>
      </g>
     </g>
    </g>
    <g id="ytick_20">
     <g id="line2d_50">
      <g>
       <use xlink:href="#ma36550c564" x="37.667091" y="30.886875" style="stroke: #000000; stroke-width: 0.5"/>
      </g>
     </g>
     <g id="line2d_51">
      <g>
       <use xlink:href="#me17ae26d28" x="184.142091" y="30.886875" style="stroke: #000000; stroke-width: 0.5"/>
      </g>
     </g>
    </g>
    <g id="ytick_21">
     <g id="line2d_52">
      <g>
       <use xlink:href="#ma36550c564" x="37.667091" y="26.339063" style="stroke: #000000; stroke-width: 0.5"/>
      </g>
     </g>
     <g id="line2d_53">
      <g>
       <use xlink:href="#me17ae26d28" x="184.142091" y="26.339063" style="stroke: #000000; stroke-width: 0.5"/>
      </g>
     </g>
    </g>
    <g id="ytick_22">
     <g id="line2d_54">
      <g>
       <use xlink:href="#ma36550c564" x="37.667091" y="17.243438" style="stroke: #000000; stroke-width: 0.5"/>
      </g>
     </g>
     <g id="line2d_55">
      <g>
       <use xlink:href="#me17ae26d28" x="184.142091" y="17.243438" style="stroke: #000000; stroke-width: 0.5"/>
      </g>
     </g>
    </g>
    <g id="ytick_23">
     <g id="line2d_56">
      <g>
       <use xlink:href="#ma36550c564" x="37.667091" y="12.695625" style="stroke: #000000; stroke-width: 0.5"/>
      </g>
     </g>
     <g id="line2d_57">
      <g>
       <use xlink:href="#me17ae26d28" x="184.142091" y="12.695625" style="stroke: #000000; stroke-width: 0.5"/>
      </g>
     </g>
    </g>
    <g id="ytick_24">
     <g id="line2d_58">
      <g>
       <use xlink:href="#ma36550c564" x="37.667091" y="8.147813" style="stroke: #000000; stroke-width: 0.5"/>
      </g>
     </g>
     <g id="line2d_59">
      <g>
       <use xlink:href="#me17ae26d28" x="184.142091" y="8.147813" style="stroke: #000000; stroke-width: 0.5"/>
      </g>
     </g>
    </g>
    <g id="text_9">
     <!-- Density -->
     <g transform="translate(10.518498 74.73667) rotate(-90) scale(0.1 -0.1)">
      <defs>
       <path id="CMR17-44" d="M 333 4352 
L 333 4186 
C 774 4186 845 4186 845 3900 
L 845 452 
C 845 166 774 166 333 166 
L 333 0 
L 2368 0 
C 3398 0 4224 943 4224 2141 
C 4224 3346 3411 4352 2368 4352 
L 333 4352 
z
M 1523 166 
C 1267 166 1254 197 1254 414 
L 1254 3938 
C 1254 4155 1267 4186 1523 4186 
L 2240 4186 
C 2771 4186 3750 3874 3750 2141 
C 3750 1242 3488 879 3366 707 
C 3213 510 2848 166 2240 166 
L 1523 166 
z
" transform="scale(0.015625)"/>
       <path id="CMR17-65" d="M 2438 1472 
C 2464 1498 2464 1511 2464 1576 
C 2464 2238 2118 2816 1389 2816 
C 710 2816 173 2169 173 1383 
C 173 551 781 -64 1459 -64 
C 2176 -64 2458 607 2458 740 
C 2458 784 2419 784 2406 784 
C 2362 784 2355 771 2330 696 
C 2189 265 1837 51 1504 51 
C 1229 51 954 203 781 480 
C 582 803 582 1176 582 1472 
L 2438 1472 
z
M 589 1568 
C 634 2505 1126 2714 1382 2714 
C 1818 2714 2112 2297 2118 1568 
L 589 1568 
z
" transform="scale(0.015625)"/>
       <path id="CMR17-69" d="M 992 3909 
C 992 4049 877 4170 730 4170 
C 589 4170 467 4056 467 3909 
C 467 3769 582 3648 730 3648 
C 870 3648 992 3763 992 3909 
z
M 243 2706 
L 243 2541 
C 602 2541 653 2502 653 2197 
L 653 427 
C 653 184 627 153 218 153 
L 218 -13 
C 371 0 646 0 806 0 
C 960 0 1222 0 1370 -13 
L 1370 153 
C 992 153 979 191 979 420 
L 979 2776 
L 243 2706 
z
" transform="scale(0.015625)"/>
       <path id="CMR17-74" d="M 966 2560 
L 1862 2560 
L 1862 2725 
L 966 2725 
L 966 3904 
L 851 3904 
C 838 3245 614 2668 70 2668 
L 70 2560 
L 627 2560 
L 627 771 
C 627 650 627 -64 1370 -64 
C 1747 -64 1965 306 1965 777 
L 1965 1140 
L 1850 1140 
L 1850 783 
C 1850 344 1677 51 1408 51 
C 1222 51 966 178 966 758 
L 966 2560 
z
" transform="scale(0.015625)"/>
       <path id="CMR17-79" d="M 2496 2197 
C 2656 2586 2944 2586 3034 2586 
L 3034 2752 
C 2912 2752 2752 2752 2630 2752 
C 2496 2752 2285 2752 2157 2758 
L 2157 2592 
C 2400 2573 2406 2394 2406 2343 
C 2406 2280 2394 2248 2362 2171 
L 1664 449 
L 902 2306 
C 870 2382 870 2426 870 2433 
C 870 2573 1018 2586 1171 2586 
L 1171 2758 
C 1018 2752 742 2752 582 2752 
C 410 2752 205 2752 64 2758 
L 64 2586 
C 410 2586 448 2554 531 2350 
L 1485 15 
C 1197 -738 1030 -1178 627 -1178 
C 557 -1178 397 -1159 282 -1044 
C 429 -1031 493 -942 493 -833 
C 493 -725 416 -629 288 -629 
C 147 -629 77 -725 77 -840 
C 77 -1095 339 -1280 627 -1280 
C 998 -1280 1229 -922 1357 -604 
L 2496 2197 
z
" transform="scale(0.015625)"/>
      </defs>
      <use xlink:href="#CMR17-44" transform="scale(0.996264)"/>
      <use xlink:href="#CMR17-65" transform="translate(70.393556 0) scale(0.996264)"/>
      <use xlink:href="#CMR17-6e" transform="translate(110.879216 0) scale(0.996264)"/>
      <use xlink:href="#CMR17-73" transform="translate(161.774586 0) scale(0.996264)"/>
      <use xlink:href="#CMR17-69" transform="translate(197.575924 0) scale(0.996264)"/>
      <use xlink:href="#CMR17-74" transform="translate(222.446982 0) scale(0.996264)"/>
      <use xlink:href="#CMR17-79" transform="translate(255.125296 0) scale(0.996264)"/>
     </g>
    </g>
   </g>
   <g id="PolyCollection_1">
    <path d="M 56.13979 -51459613781691.1875 
L 56.13979 112.7475 
L 56.13979 112.7475 
L 56.13979 112.7475 
L 56.13979 112.7475 
L 56.13979 112.7475 
L 56.13979 112.7475 
L 56.13979 112.7475 
L 56.13979 112.7475 
L 56.13979 112.7475 
L 56.13979 112.7475 
L 56.13979 112.7475 
L 56.13979 112.7475 
L 56.13979 112.7475 
L 56.13979 112.7475 
L 56.13979 112.7475 
L 56.13979 112.7475 
L 56.13979 112.7475 
L 56.13979 112.7475 
L 56.13979 112.7475 
L 56.13979 112.7475 
L 56.13979 112.7475 
L 56.13979 112.7475 
L 56.13979 112.7475 
L 56.13979 112.7475 
L 56.13979 112.7475 
L 56.13979 112.7475 
L 56.13979 112.7475 
L 56.13979 112.7475 
L 56.13979 112.7475 
L 56.13979 112.7475 
L 56.13979 112.7475 
L 56.13979 112.7475 
L 56.13979 112.7475 
L 56.13979 112.7475 
L 56.13979 112.7475 
L 56.13979 112.7475 
L 56.13979 112.7475 
L 56.13979 112.7475 
L 56.13979 112.7475 
L 56.13979 112.7475 
L 56.13979 112.7475 
L 56.13979 112.7475 
L 56.13979 112.7475 
L 56.13979 112.7475 
L 56.13979 112.7475 
L 56.13979 112.7475 
L 56.13979 112.7475 
L 56.13979 112.7475 
L 56.13979 112.7475 
L 56.13979 112.7475 
L 56.13979 112.7475 
L 56.13979 112.7475 
L 56.13979 112.7475 
L 56.13979 112.7475 
L 56.13979 112.7475 
L 56.13979 112.7475 
L 56.13979 112.7475 
L 56.13979 112.7475 
L 56.13979 112.7475 
L 56.13979 112.7475 
L 56.13979 112.7475 
L 56.13979 112.7475 
L 56.13979 112.7475 
L 56.13979 112.7475 
L 56.13979 112.7475 
L 56.13979 112.7475 
L 56.13979 112.7475 
L 56.13979 112.7475 
L 56.13979 112.7475 
L 56.13979 112.7475 
L 56.13979 112.7475 
L 56.13979 112.7475 
L 56.13979 112.7475 
L 56.13979 112.7475 
L 56.13979 112.7475 
L 56.13979 112.7475 
L 56.13979 112.7475 
L 56.13979 112.7475 
L 56.13979 112.7475 
L 56.13979 112.7475 
L 56.13979 112.7475 
L 56.13979 112.7475 
L 56.13979 112.7475 
L 56.13979 112.7475 
L 56.13979 112.7475 
L 56.13979 112.7475 
L 56.13979 112.7475 
L 56.13979 112.7475 
L 56.13979 112.7475 
L 56.13979 112.7475 
L 56.13979 112.7475 
L 56.13979 112.7475 
L 56.13979 112.7475 
L 56.13979 112.7475 
L 56.13979 112.7475 
L 56.13979 112.7475 
L 56.13979 112.7475 
L 56.13979 112.7475 
L 56.13979 112.7475 
L 56.13979 112.7475 
L 56.13979 112.7475 
L 56.13979 112.7475 
L 56.13979 112.7475 
L 56.13979 112.7475 
L 56.13979 112.7475 
L 56.13979 112.7475 
L 56.13979 112.7475 
L 56.13979 112.7475 
L 56.13979 112.7475 
L 56.13979 112.7475 
L 56.13979 112.7475 
L 56.13979 112.7475 
L 56.13979 112.7475 
L 56.13979 112.7475 
L 56.13979 112.7475 
L 56.13979 112.7475 
L 56.13979 112.7475 
L 56.13979 112.7475 
L 56.13979 112.7475 
L 56.13979 112.7475 
L 56.13979 112.7475 
L 56.13979 112.7475 
L 56.13979 112.7475 
L 56.13979 112.7475 
L 56.13979 112.7475 
L 56.13979 112.7475 
L 56.13979 112.7475 
L 56.13979 112.7475 
L 56.13979 112.7475 
L 56.13979 112.7475 
L 56.13979 112.7475 
L 56.13979 112.7475 
L 56.13979 112.7475 
L 56.13979 112.7475 
L 56.13979 112.7475 
L 56.13979 112.7475 
L 56.13979 112.7475 
L 56.13979 112.7475 
L 56.13979 112.7475 
L 56.13979 112.7475 
L 56.13979 112.7475 
L 56.13979 112.7475 
L 56.13979 112.7475 
L 56.13979 112.7475 
L 56.13979 112.7475 
L 56.13979 112.7475 
L 56.13979 112.7475 
L 56.13979 112.7475 
L 56.13979 112.7475 
L 56.13979 112.7475 
L 56.13979 112.7475 
L 56.13979 112.7475 
L 56.13979 112.7475 
L 56.13979 112.7475 
L 56.13979 112.7475 
L 56.13979 112.7475 
L 56.13979 112.7475 
L 56.13979 112.7475 
L 56.13979 112.7475 
L 56.13979 112.7475 
L 56.13979 112.7475 
L 56.13979 112.7475 
L 56.13979 112.7475 
L 56.13979 112.7475 
L 56.13979 112.7475 
L 56.13979 112.7475 
L 56.13979 112.7475 
L 56.13979 112.7475 
L 56.13979 112.7475 
L 56.13979 112.7475 
L 56.13979 112.7475 
L 56.13979 112.7475 
L 56.13979 112.7475 
L 56.13979 112.7475 
L 56.13979 112.7475 
L 56.13979 112.7475 
L 56.13979 112.7475 
L 56.13979 112.7475 
L 56.13979 112.7475 
L 56.13979 112.7475 
L 56.13979 112.7475 
L 56.13979 112.7475 
L 56.13979 112.7475 
L 56.13979 112.7475 
L 56.13979 112.7475 
L 56.13979 112.7475 
L 56.13979 112.7475 
L 56.13979 112.7475 
L 56.13979 112.7475 
L 56.13979 112.7475 
L 56.13979 112.7475 
L 56.13979 112.7475 
L 56.13979 112.7475 
L 56.13979 112.7475 
L 56.13979 112.7475 
L 56.13979 112.7475 
L 56.13979 112.7475 
L 56.13979 112.7475 
L 56.13979 112.7475 
L 56.13979 112.7475 
L 56.13979 -78342949593707.1875 
L 56.13979 -78342949593707.1875 
L 56.13979 -78342949593707.1875 
L 56.13979 -166707663051134.75 
L 56.13979 -166707663051134.75 
L 56.13979 -166707663051134.75 
L 56.13979 -166707663051134.75 
L 56.13979 -237737652457155.21875 
L 56.13979 -237737652457155.21875 
L 56.13979 -237737652457155.21875 
L 56.13979 -237737652457155.21875 
L 56.13979 -462087118004709.6875 
L 56.13979 -462087118004709.6875 
L 56.13979 -462087118004709.6875 
L 56.13979 -462087118004709.6875 
L 56.13979 -629813291195024.75 
L 56.13979 -629813291195024.75 
L 56.13979 -629813291195024.75 
L 56.13979 -629813291195024.75 
L 56.13979 -1118275516307433.875 
L 56.13979 -1118275516307433.875 
L 56.13979 -1118275516307433.875 
L 56.13979 -1118275516307433.875 
L 56.13979 -1456808829269577.75 
L 56.13979 -1456808829269577.75 
L 56.13979 -1456808829269577.75 
L 56.13979 -1456808829269577.75 
L 56.13979 -2363168939259008.5 
L 56.13979 -2363168939259008.5 
L 56.13979 -2363168939259008.5 
L 56.13979 -2363168939259008.5 
L 56.13979 -2942665111384525 
L 56.13979 -2942665111384525 
L 56.13979 -2942665111384525 
L 56.13979 -2942665111384525 
L 56.13979 -4361755042024531 
L 56.13979 -4361755042024531 
L 56.13979 -4361755042024531 
L 56.13979 -4361755042024531 
L 56.13979 -5192221688053550 
L 56.13979 -5192221688053550 
L 56.13979 -5192221688053550 
L 56.13979 -5192221688053550 
L 56.13979 -7035126288051292 
L 56.13979 -7035126288051292 
L 56.13979 -7035126288051292 
L 56.13979 -7035126288051292 
L 56.13979 -8008377899896088 
L 56.13979 -8008377899896088 
L 56.13979 -8008377899896088 
L 56.13979 -8008377899896088 
L 56.13979 -9928984586801498 
L 56.13979 -9928984586801498 
L 56.13979 -9928984586801498 
L 56.13979 -9928984586801498 
L 56.13979 -10817169950689908 
L 56.13979 -10817169950689908 
L 56.13979 -10817169950689908 
L 56.13979 -10817169950689908 
L 56.13979 -12304971250234518 
L 56.13979 -12304971250234518 
L 56.13979 -12304971250234518 
L 56.13979 -12304971250234518 
L 56.13979 -12857335538227188 
L 56.13979 -12857335538227188 
L 56.13979 -12857335538227188 
L 56.13979 -12857335538227188 
L 56.13979 -13511547906977864 
L 56.13979 -13511547906977864 
L 56.13979 -13511547906977864 
L 56.13979 -13511547906977864 
L 56.13979 -13612951447701694 
L 56.13979 -13612951447701694 
L 56.13979 -13612951447701694 
L 56.13979 -13612951447701694 
L 56.13979 -13435980591289092 
L 56.13979 -13435980591289092 
L 56.13979 -13435980591289092 
L 56.13979 -13435980591289092 
L 56.13979 -13212711825760380 
L 56.13979 -13212711825760380 
L 56.13979 -13212711825760380 
L 56.13979 -13212711825760380 
L 56.13979 -12679293065453590 
L 56.13979 -12679293065453590 
L 56.13979 -12679293065453590 
L 56.13979 -12679293065453590 
L 56.13979 -12449051875711130 
L 56.13979 -12449051875711130 
L 56.13979 -12449051875711130 
L 56.13979 -12449051875711130 
L 56.13979 -12241771226420118 
L 56.13979 -12241771226420118 
L 56.13979 -12241771226420118 
L 56.13979 -12241771226420118 
L 56.13979 -12316809182143132 
L 56.13979 -12316809182143132 
L 56.13979 -12316809182143132 
L 56.13979 -12316809182143132 
L 56.13979 -12877962707521426 
L 56.13979 -12877962707521426 
L 56.13979 -12877962707521426 
L 56.13979 -12877962707521426 
L 56.13979 -13350421758703744 
L 56.13979 -13350421758703744 
L 56.13979 -13350421758703744 
L 56.13979 -13350421758703744 
L 56.13979 -14560212879815018 
L 56.13979 -14560212879815018 
L 56.13979 -14560212879815018 
L 56.13979 -14560212879815018 
L 56.13979 -15222708909556800 
L 56.13979 -15222708909556800 
L 56.13979 -15222708909556800 
L 56.13979 -15222708909556800 
L 56.13979 -16438913930265430 
L 56.13979 -16438913930265430 
L 56.13979 -16438913930265430 
L 56.13979 -16438913930265430 
L 56.13979 -16901682346049762 
L 56.13979 -16901682346049762 
L 56.13979 -16901682346049762 
L 56.13979 -16901682346049762 
L 56.13979 -17343953562099378 
L 56.13979 -17343953562099378 
L 56.13979 -17343953562099378 
L 56.13979 -17343953562099378 
L 56.13979 -17271297273727620 
L 56.13979 -17271297273727620 
L 56.13979 -17271297273727620 
L 56.13979 -17271297273727620 
L 56.13979 -16489171424401086 
L 56.13979 -16489171424401086 
L 56.13979 -16489171424401086 
L 56.13979 -16489171424401086 
L 56.13979 -15793833235925658 
L 56.13979 -15793833235925658 
L 56.13979 -15793833235925658 
L 56.13979 -15793833235925658 
L 56.13979 -13903573303831384 
L 56.13979 -13903573303831384 
L 56.13979 -13903573303831384 
L 56.13979 -13903573303831384 
L 56.13979 -12773766453467080 
L 56.13979 -12773766453467080 
L 56.13979 -12773766453467080 
L 56.13979 -12773766453467080 
L 56.13979 -10332498375255354 
L 56.13979 -10332498375255354 
L 56.13979 -10332498375255354 
L 56.13979 -10332498375255354 
L 56.13979 -9095755124994454 
L 56.13979 -9095755124994454 
L 56.13979 -9095755124994454 
L 56.13979 -9095755124994454 
L 56.13979 -6751321721485091 
L 56.13979 -6751321721485091 
L 56.13979 -6751321721485091 
L 56.13979 -6751321721485091 
L 56.13979 -5692189852056541 
L 56.13979 -5692189852056541 
L 56.13979 -5692189852056541 
L 56.13979 -5692189852056541 
L 56.13979 -3874745628484518 
L 56.13979 -3874745628484518 
L 56.13979 -3874745628484518 
L 56.13979 -3874745628484518 
L 56.13979 -3128243132383042 
L 56.13979 -3128243132383042 
L 56.13979 -3128243132383042 
L 56.13979 -3128243132383042 
L 56.13979 -1952221009531764.25 
L 56.13979 -1952221009531764.25 
L 56.13979 -1952221009531764.25 
L 56.13979 -1952221009531764.25 
L 56.13979 -1508986810365423 
L 56.13979 -1508986810365423 
L 56.13979 -1508986810365423 
L 56.13979 -1508986810365423 
L 56.13979 -863066627363480.25 
L 56.13979 -863066627363480.25 
L 56.13979 -863066627363480.25 
L 56.13979 -863066627363480.25 
L 56.13979 -638602136259923.375 
L 56.13979 -638602136259923.375 
L 56.13979 -638602136259923.375 
L 56.13979 -638602136259923.375 
L 56.13979 -334635454551156.4375 
L 56.13979 -334635454551156.4375 
L 56.13979 -334635454551156.4375 
L 56.13979 -334635454551156.4375 
L 56.13979 -236978486020490.5 
L 56.13979 -236978486020490.5 
L 56.13979 -236978486020490.5 
L 56.13979 -236978486020490.5 
L 56.13979 -113727712460039.6875 
L 56.13979 -113727712460039.6875 
L 56.13979 -113727712460039.6875 
L 56.13979 -113727712460039.6875 
L 56.13979 -51459613781691.1875 
L 56.13979 -51459613781691.1875 
z
" clip-path="url(#pc99e3a256f)" style="fill: #cf695e; fill-opacity: 0.25; stroke: #cf695e"/>
   </g>
   <g id="line2d_60">
    <path d="M 56.13979 112.7475 
L 56.13979 3.6 
" clip-path="url(#pc99e3a256f)" style="fill: none; stroke: #4477aa; stroke-linecap: square"/>
   </g>
   <g id="patch_3">
    <path d="M 37.667091 112.7475 
L 37.667091 3.6 
" style="fill: none; stroke: #000000; stroke-width: 0.5; stroke-linejoin: miter; stroke-linecap: square"/>
   </g>
   <g id="patch_4">
    <path d="M 184.142091 112.7475 
L 184.142091 3.6 
" style="fill: none; stroke: #000000; stroke-width: 0.5; stroke-linejoin: miter; stroke-linecap: square"/>
   </g>
   <g id="patch_5">
    <path d="M 37.667091 112.7475 
L 184.142091 112.7475 
" style="fill: none; stroke: #000000; stroke-width: 0.5; stroke-linejoin: miter; stroke-linecap: square"/>
   </g>
   <g id="patch_6">
    <path d="M 37.667091 3.6 
L 184.142091 3.6 
" style="fill: none; stroke: #000000; stroke-width: 0.5; stroke-linejoin: miter; stroke-linecap: square"/>
   </g>
   <g id="legend_1">
    <g id="patch_7">
     <path d="M 135.963249 21.873669 
L 178.311091 21.873669 
Q 179.977091 21.873669 179.977091 20.207669 
L 179.977091 9.431 
Q 179.977091 7.765 178.311091 7.765 
L 135.963249 7.765 
Q 134.297249 7.765 134.297249 9.431 
L 134.297249 20.207669 
Q 134.297249 21.873669 135.963249 21.873669 
z
" style="fill: #ffffff; stroke: #cccccc; stroke-linejoin: miter"/>
    </g>
    <g id="patch_8">
     <path d="M 137.629249 16.928 
L 154.289249 16.928 
L 154.289249 11.097 
L 137.629249 11.097 
z
" style="fill: #cf695e; fill-opacity: 0.25; stroke: #cf695e; stroke-linejoin: miter"/>
    </g>
    <g id="text_10">
     <!-- $\tau_{RC}$ -->
     <g transform="translate(160.953249 16.928) scale(0.0833 -0.0833)">
      <defs>
       <path id="CMMI12-52" d="M 2355 3924 
C 2413 4160 2438 4160 2688 4160 
L 3149 4160 
C 3699 4160 4109 3995 4109 3499 
C 4109 3175 3942 2240 2656 2240 
L 1933 2240 
L 2355 3924 
z
M 3245 2169 
C 4038 2341 4659 2851 4659 3398 
C 4659 3894 4154 4352 3264 4352 
L 1530 4352 
C 1402 4352 1344 4352 1344 4226 
C 1344 4160 1389 4160 1510 4160 
C 1894 4160 1894 4112 1894 4045 
C 1894 4033 1894 3994 1869 3899 
L 1005 479 
C 947 256 934 192 493 192 
C 346 192 301 192 301 71 
C 301 7 371 7 390 7 
C 506 7 640 7 762 7 
L 1517 7 
C 1632 7 1766 7 1882 7 
C 1933 7 2003 7 2003 128 
C 2003 192 1946 192 1850 192 
C 1459 192 1459 243 1459 306 
C 1459 313 1459 357 1472 407 
L 1901 2112 
L 2669 2112 
C 3277 2112 3392 1731 3392 1522 
C 3392 1427 3328 1179 3283 1014 
C 3213 723 3194 652 3194 532 
C 3194 82 3565 -128 3994 -128 
C 4512 -128 4736 501 4736 591 
C 4736 635 4704 654 4666 654 
C 4614 654 4602 616 4589 565 
C 4435 114 4173 0 4013 0 
C 3853 0 3750 70 3750 356 
C 3750 509 3827 1088 3834 1120 
C 3866 1355 3866 1380 3866 1432 
C 3866 1896 3488 2093 3245 2169 
z
" transform="scale(0.015625)"/>
       <path id="CMMI12-43" d="M 4781 4423 
C 4781 4480 4736 4480 4723 4480 
C 4710 4480 4685 4480 4634 4416 
L 4192 3882 
C 3968 4264 3616 4480 3136 4480 
C 1754 4480 320 3088 320 1595 
C 320 533 1069 -128 2003 -128 
C 2515 -128 2963 88 3334 400 
C 3891 863 4058 1481 4058 1531 
C 4058 1588 4006 1588 3987 1588 
C 3930 1588 3923 1550 3910 1524 
C 3616 534 2752 57 2112 57 
C 1434 57 845 489 845 1391 
C 845 1595 909 2700 1632 3532 
C 1984 3939 2586 4295 3194 4295 
C 3898 4295 4211 3717 4211 3068 
C 4211 2903 4192 2764 4192 2738 
C 4192 2681 4256 2681 4275 2681 
C 4346 2681 4352 2687 4378 2801 
L 4781 4423 
z
" transform="scale(0.015625)"/>
      </defs>
      <use xlink:href="#CMMI12-1c" transform="scale(0.996264)"/>
      <use xlink:href="#CMMI12-52" transform="translate(42.363841 -14.943915) scale(0.697382)"/>
      <use xlink:href="#CMMI12-43" transform="translate(94.913271 -14.943915) scale(0.697382)"/>
     </g>
    </g>
   </g>
  </g>
 </g>
 <defs>
  <clipPath id="pc99e3a256f">
   <rect x="37.667091" y="3.6" width="146.475" height="109.1475"/>
  </clipPath>
 </defs>
</svg>
