<?xml version="1.0" encoding="utf-8" standalone="no"?>
<!DOCTYPE svg PUBLIC "-//W3C//DTD SVG 1.1//EN"
  "http://www.w3.org/Graphics/SVG/1.1/DTD/svg11.dtd">
<svg xmlns:xlink="http://www.w3.org/1999/xlink" width="240.123213pt" height="179.047575pt" viewBox="0 0 240.123213 179.047575" xmlns="http://www.w3.org/2000/svg" version="1.1">
 <metadata>
  <rdf:RDF xmlns:dc="http://purl.org/dc/elements/1.1/" xmlns:cc="http://creativecommons.org/ns#" xmlns:rdf="http://www.w3.org/1999/02/22-rdf-syntax-ns#">
   <cc:Work>
    <dc:type rdf:resource="http://purl.org/dc/dcmitype/StillImage"/>
    <dc:date>2025-02-10T15:05:51.150142</dc:date>
    <dc:format>image/svg+xml</dc:format>
    <dc:creator>
     <cc:Agent>
      <dc:title>Matplotlib v3.9.2, https://matplotlib.org/</dc:title>
     </cc:Agent>
    </dc:creator>
   </cc:Work>
  </rdf:RDF>
 </metadata>
 <defs>
  <style type="text/css">*{stroke-linejoin: round; stroke-linecap: butt}</style>
 </defs>
 <g id="figure_1">
  <g id="patch_1">
   <path d="M 0 179.047575 
L 240.123213 179.047575 
L 240.123213 0 
L 0 0 
L 0 179.047575 
z
" style="fill: none"/>
  </g>
  <g id="axes_1">
   <g id="patch_2">
    <path d="M 41.223213 150.236221 
L 236.523213 150.236221 
L 236.523213 4.706221 
L 41.223213 4.706221 
L 41.223213 150.236221 
z
" style="fill: none"/>
   </g>
   <g id="matplotlib.axis_1">
    <g id="xtick_1">
     <g id="line2d_1">
      <defs>
       <path id="m888fe8c5b4" d="M 0 0 
L 0 -3 
" style="stroke: #000000; stroke-width: 0.5"/>
      </defs>
      <g>
       <use xlink:href="#m888fe8c5b4" x="50.100486" y="150.236221" style="stroke: #000000; stroke-width: 0.5"/>
      </g>
     </g>
     <g id="line2d_2">
      <defs>
       <path id="md61685409c" d="M 0 0 
L 0 3 
" style="stroke: #000000; stroke-width: 0.5"/>
      </defs>
      <g>
       <use xlink:href="#md61685409c" x="50.100486" y="4.706221" style="stroke: #000000; stroke-width: 0.5"/>
      </g>
     </g>
     <g id="text_1">
      <!-- $\mathdefault{0}$ -->
      <g transform="translate(47.609819 160.65472) scale(0.1 -0.1)">
       <defs>
        <path id="CMR17-30" d="M 2688 2025 
C 2688 2416 2682 3080 2413 3591 
C 2176 4039 1798 4198 1466 4198 
C 1158 4198 768 4058 525 3597 
C 269 3118 243 2524 243 2025 
C 243 1661 250 1106 448 619 
C 723 -39 1216 -128 1466 -128 
C 1760 -128 2208 -7 2470 600 
C 2662 1042 2688 1559 2688 2025 
z
M 1466 -26 
C 1056 -26 813 325 723 812 
C 653 1188 653 1738 653 2096 
C 653 2588 653 2997 736 3387 
C 858 3929 1216 4096 1466 4096 
C 1728 4096 2067 3923 2189 3400 
C 2272 3036 2278 2607 2278 2096 
C 2278 1680 2278 1169 2202 792 
C 2067 95 1690 -26 1466 -26 
z
" transform="scale(0.015625)"/>
       </defs>
       <use xlink:href="#CMR17-30" transform="scale(0.996264)"/>
      </g>
     </g>
    </g>
    <g id="xtick_2">
     <g id="line2d_3">
      <g>
       <use xlink:href="#m888fe8c5b4" x="100.11329" y="150.236221" style="stroke: #000000; stroke-width: 0.5"/>
      </g>
     </g>
     <g id="line2d_4">
      <g>
       <use xlink:href="#md61685409c" x="100.11329" y="4.706221" style="stroke: #000000; stroke-width: 0.5"/>
      </g>
     </g>
     <g id="text_2">
      <!-- $\mathdefault{20}$ -->
      <g transform="translate(95.131955 160.65472) scale(0.1 -0.1)">
       <defs>
        <path id="CMR17-32" d="M 2669 989 
L 2554 989 
C 2490 536 2438 459 2413 420 
C 2381 369 1920 369 1830 369 
L 602 369 
C 832 619 1280 1072 1824 1597 
C 2214 1967 2669 2402 2669 3035 
C 2669 3790 2067 4224 1395 4224 
C 691 4224 262 3604 262 3030 
C 262 2780 448 2748 525 2748 
C 589 2748 781 2787 781 3010 
C 781 3207 614 3264 525 3264 
C 486 3264 448 3258 422 3245 
C 544 3790 915 4058 1306 4058 
C 1862 4058 2227 3617 2227 3035 
C 2227 2479 1901 2000 1536 1584 
L 262 146 
L 262 0 
L 2515 0 
L 2669 989 
z
" transform="scale(0.015625)"/>
       </defs>
       <use xlink:href="#CMR17-32" transform="scale(0.996264)"/>
       <use xlink:href="#CMR17-30" transform="translate(45.690477 0) scale(0.996264)"/>
      </g>
     </g>
    </g>
    <g id="xtick_3">
     <g id="line2d_5">
      <g>
       <use xlink:href="#m888fe8c5b4" x="150.126094" y="150.236221" style="stroke: #000000; stroke-width: 0.5"/>
      </g>
     </g>
     <g id="line2d_6">
      <g>
       <use xlink:href="#md61685409c" x="150.126094" y="4.706221" style="stroke: #000000; stroke-width: 0.5"/>
      </g>
     </g>
     <g id="text_3">
      <!-- $\mathdefault{40}$ -->
      <g transform="translate(145.144759 160.65472) scale(0.1 -0.1)">
       <defs>
        <path id="CMR17-34" d="M 2150 4122 
C 2150 4256 2144 4256 2029 4256 
L 128 1254 
L 128 1088 
L 1779 1088 
L 1779 457 
C 1779 224 1766 160 1318 160 
L 1197 160 
L 1197 0 
C 1402 0 1747 0 1965 0 
C 2182 0 2528 0 2733 0 
L 2733 160 
L 2611 160 
C 2163 160 2150 224 2150 457 
L 2150 1088 
L 2803 1088 
L 2803 1254 
L 2150 1254 
L 2150 4122 
z
M 1798 3703 
L 1798 1254 
L 256 1254 
L 1798 3703 
z
" transform="scale(0.015625)"/>
       </defs>
       <use xlink:href="#CMR17-34" transform="scale(0.996264)"/>
       <use xlink:href="#CMR17-30" transform="translate(45.690477 0) scale(0.996264)"/>
      </g>
     </g>
    </g>
    <g id="xtick_4">
     <g id="line2d_7">
      <g>
       <use xlink:href="#m888fe8c5b4" x="200.138899" y="150.236221" style="stroke: #000000; stroke-width: 0.5"/>
      </g>
     </g>
     <g id="line2d_8">
      <g>
       <use xlink:href="#md61685409c" x="200.138899" y="4.706221" style="stroke: #000000; stroke-width: 0.5"/>
      </g>
     </g>
     <g id="text_4">
      <!-- $\mathdefault{60}$ -->
      <g transform="translate(195.157563 160.65472) scale(0.1 -0.1)">
       <defs>
        <path id="CMR17-36" d="M 678 2176 
C 678 3690 1395 4032 1811 4032 
C 1946 4032 2272 4009 2400 3776 
C 2298 3776 2106 3776 2106 3553 
C 2106 3381 2246 3323 2336 3323 
C 2394 3323 2566 3348 2566 3560 
C 2566 3954 2246 4179 1805 4179 
C 1043 4179 243 3390 243 1984 
C 243 253 966 -128 1478 -128 
C 2099 -128 2688 427 2688 1283 
C 2688 2081 2170 2662 1517 2662 
C 1126 2662 838 2407 678 1960 
L 678 2176 
z
M 1478 25 
C 691 25 691 1200 691 1436 
C 691 1896 909 2560 1504 2560 
C 1613 2560 1926 2560 2138 2120 
C 2253 1870 2253 1609 2253 1289 
C 2253 944 2253 690 2118 434 
C 1978 171 1773 25 1478 25 
z
" transform="scale(0.015625)"/>
       </defs>
       <use xlink:href="#CMR17-36" transform="scale(0.996264)"/>
       <use xlink:href="#CMR17-30" transform="translate(45.690477 0) scale(0.996264)"/>
      </g>
     </g>
    </g>
    <g id="xtick_5">
     <g id="line2d_9">
      <defs>
       <path id="m9e631fe700" d="M 0 0 
L 0 -1.5 
" style="stroke: #000000; stroke-width: 0.5"/>
      </defs>
      <g>
       <use xlink:href="#m9e631fe700" x="62.603687" y="150.236221" style="stroke: #000000; stroke-width: 0.5"/>
      </g>
     </g>
     <g id="line2d_10">
      <defs>
       <path id="mcb6b8e51ac" d="M 0 0 
L 0 1.5 
" style="stroke: #000000; stroke-width: 0.5"/>
      </defs>
      <g>
       <use xlink:href="#mcb6b8e51ac" x="62.603687" y="4.706221" style="stroke: #000000; stroke-width: 0.5"/>
      </g>
     </g>
    </g>
    <g id="xtick_6">
     <g id="line2d_11">
      <g>
       <use xlink:href="#m9e631fe700" x="75.106888" y="150.236221" style="stroke: #000000; stroke-width: 0.5"/>
      </g>
     </g>
     <g id="line2d_12">
      <g>
       <use xlink:href="#mcb6b8e51ac" x="75.106888" y="4.706221" style="stroke: #000000; stroke-width: 0.5"/>
      </g>
     </g>
    </g>
    <g id="xtick_7">
     <g id="line2d_13">
      <g>
       <use xlink:href="#m9e631fe700" x="87.610089" y="150.236221" style="stroke: #000000; stroke-width: 0.5"/>
      </g>
     </g>
     <g id="line2d_14">
      <g>
       <use xlink:href="#mcb6b8e51ac" x="87.610089" y="4.706221" style="stroke: #000000; stroke-width: 0.5"/>
      </g>
     </g>
    </g>
    <g id="xtick_8">
     <g id="line2d_15">
      <g>
       <use xlink:href="#m9e631fe700" x="112.616491" y="150.236221" style="stroke: #000000; stroke-width: 0.5"/>
      </g>
     </g>
     <g id="line2d_16">
      <g>
       <use xlink:href="#mcb6b8e51ac" x="112.616491" y="4.706221" style="stroke: #000000; stroke-width: 0.5"/>
      </g>
     </g>
    </g>
    <g id="xtick_9">
     <g id="line2d_17">
      <g>
       <use xlink:href="#m9e631fe700" x="125.119692" y="150.236221" style="stroke: #000000; stroke-width: 0.5"/>
      </g>
     </g>
     <g id="line2d_18">
      <g>
       <use xlink:href="#mcb6b8e51ac" x="125.119692" y="4.706221" style="stroke: #000000; stroke-width: 0.5"/>
      </g>
     </g>
    </g>
    <g id="xtick_10">
     <g id="line2d_19">
      <g>
       <use xlink:href="#m9e631fe700" x="137.622893" y="150.236221" style="stroke: #000000; stroke-width: 0.5"/>
      </g>
     </g>
     <g id="line2d_20">
      <g>
       <use xlink:href="#mcb6b8e51ac" x="137.622893" y="4.706221" style="stroke: #000000; stroke-width: 0.5"/>
      </g>
     </g>
    </g>
    <g id="xtick_11">
     <g id="line2d_21">
      <g>
       <use xlink:href="#m9e631fe700" x="162.629295" y="150.236221" style="stroke: #000000; stroke-width: 0.5"/>
      </g>
     </g>
     <g id="line2d_22">
      <g>
       <use xlink:href="#mcb6b8e51ac" x="162.629295" y="4.706221" style="stroke: #000000; stroke-width: 0.5"/>
      </g>
     </g>
    </g>
    <g id="xtick_12">
     <g id="line2d_23">
      <g>
       <use xlink:href="#m9e631fe700" x="175.132496" y="150.236221" style="stroke: #000000; stroke-width: 0.5"/>
      </g>
     </g>
     <g id="line2d_24">
      <g>
       <use xlink:href="#mcb6b8e51ac" x="175.132496" y="4.706221" style="stroke: #000000; stroke-width: 0.5"/>
      </g>
     </g>
    </g>
    <g id="xtick_13">
     <g id="line2d_25">
      <g>
       <use xlink:href="#m9e631fe700" x="187.635697" y="150.236221" style="stroke: #000000; stroke-width: 0.5"/>
      </g>
     </g>
     <g id="line2d_26">
      <g>
       <use xlink:href="#mcb6b8e51ac" x="187.635697" y="4.706221" style="stroke: #000000; stroke-width: 0.5"/>
      </g>
     </g>
    </g>
    <g id="xtick_14">
     <g id="line2d_27">
      <g>
       <use xlink:href="#m9e631fe700" x="212.6421" y="150.236221" style="stroke: #000000; stroke-width: 0.5"/>
      </g>
     </g>
     <g id="line2d_28">
      <g>
       <use xlink:href="#mcb6b8e51ac" x="212.6421" y="4.706221" style="stroke: #000000; stroke-width: 0.5"/>
      </g>
     </g>
    </g>
    <g id="xtick_15">
     <g id="line2d_29">
      <g>
       <use xlink:href="#m9e631fe700" x="225.145301" y="150.236221" style="stroke: #000000; stroke-width: 0.5"/>
      </g>
     </g>
     <g id="line2d_30">
      <g>
       <use xlink:href="#mcb6b8e51ac" x="225.145301" y="4.706221" style="stroke: #000000; stroke-width: 0.5"/>
      </g>
     </g>
    </g>
    <g id="text_5">
     <!-- Sample -->
     <g transform="translate(123.098993 173.510396) scale(0.1 -0.1)">
      <defs>
       <path id="CMR17-53" d="M 2803 4290 
C 2803 4404 2797 4411 2758 4411 
C 2720 4411 2707 4385 2682 4328 
L 2490 3907 
C 2246 4257 1875 4416 1472 4416 
C 819 4416 294 3901 294 3253 
C 294 3056 339 2776 557 2510 
C 794 2218 1018 2167 1530 2033 
C 1722 1982 2042 1899 2106 1874 
C 2470 1722 2662 1341 2662 985 
C 2662 527 2336 38 1779 38 
C 1094 38 454 419 410 1311 
C 403 1413 397 1419 352 1419 
C 301 1419 294 1413 294 1285 
L 294 -1 
C 294 -115 301 -122 339 -122 
C 384 -122 397 -90 486 108 
C 493 127 493 140 614 381 
C 934 -39 1472 -128 1779 -128 
C 2477 -128 2970 451 2970 1124 
C 2970 1454 2848 1708 2778 1823 
C 2509 2230 2221 2306 1914 2382 
C 1869 2402 1856 2402 1498 2490 
C 1152 2579 1005 2624 845 2796 
C 666 2992 602 3196 602 3399 
C 602 3812 934 4263 1478 4263 
C 2157 4263 2579 3786 2675 2993 
C 2694 2878 2701 2872 2746 2872 
C 2803 2872 2803 2891 2803 2999 
L 2803 4290 
z
" transform="scale(0.015625)"/>
       <path id="CMR17-61" d="M 2304 1653 
C 2304 2072 2304 2294 2035 2543 
C 1798 2752 1523 2816 1306 2816 
C 800 2816 435 2407 435 1971 
C 435 1728 627 1728 666 1728 
C 749 1728 896 1778 896 1954 
C 896 2112 774 2181 666 2181 
C 640 2181 608 2174 589 2168 
C 723 2592 1069 2714 1293 2714 
C 1613 2714 1965 2429 1965 1885 
L 1965 1600 
C 1587 1600 1133 1549 774 1357 
C 371 1133 256 813 256 570 
C 256 77 832 -64 1171 -64 
C 1523 -64 1850 139 1990 511 
C 2003 233 2182 -18 2464 -18 
C 2598 -18 2938 70 2938 567 
L 2938 920 
L 2822 920 
L 2822 562 
C 2822 178 2650 128 2566 128 
C 2304 128 2304 458 2304 738 
L 2304 1653 
z
M 1965 870 
C 1965 317 1568 38 1216 38 
C 896 38 646 275 646 570 
C 646 761 730 1100 1101 1305 
C 1408 1478 1760 1504 1965 1504 
L 1965 870 
z
" transform="scale(0.015625)"/>
       <path id="CMR17-6d" d="M 4326 1933 
C 4326 2252 4269 2790 3507 2790 
C 3072 2790 2771 2496 2656 2151 
L 2650 2151 
C 2573 2676 2195 2790 1837 2790 
C 1331 2790 1069 2400 973 2144 
L 966 2144 
L 966 2790 
L 211 2720 
L 211 2554 
C 589 2554 646 2515 646 2208 
L 646 428 
C 646 184 621 153 211 153 
L 211 -13 
C 365 0 646 0 813 0 
C 979 0 1267 0 1421 -13 
L 1421 153 
C 1011 153 986 178 986 428 
L 986 1658 
C 986 2247 1344 2688 1792 2688 
C 2266 2688 2317 2266 2317 1958 
L 2317 428 
C 2317 184 2291 153 1882 153 
L 1882 -13 
C 2035 0 2317 0 2483 0 
C 2650 0 2938 0 3091 -13 
L 3091 153 
C 2682 153 2656 178 2656 428 
L 2656 1658 
C 2656 2247 3014 2688 3462 2688 
C 3936 2688 3987 2266 3987 1958 
L 3987 428 
C 3987 184 3962 153 3552 153 
L 3552 -13 
C 3706 0 3987 0 4154 0 
C 4320 0 4608 0 4762 -13 
L 4762 153 
C 4352 153 4326 178 4326 428 
L 4326 1933 
z
" transform="scale(0.015625)"/>
       <path id="CMR17-70" d="M 1408 -1063 
C 998 -1063 973 -1037 973 -789 
L 973 402 
C 1158 134 1427 -38 1766 -38 
C 2406 -38 3053 523 3053 1388 
C 3053 2191 2496 2802 1837 2802 
C 1453 2802 1139 2592 960 2338 
L 960 2802 
L 198 2732 
L 198 2567 
C 576 2567 634 2528 634 2223 
L 634 -789 
C 634 -1031 608 -1063 198 -1063 
L 198 -1228 
C 352 -1216 634 -1216 800 -1216 
C 966 -1216 1254 -1216 1408 -1228 
L 1408 -1063 
z
M 973 2012 
C 973 2102 973 2235 1222 2471 
C 1254 2497 1472 2688 1792 2688 
C 2259 2688 2643 2108 2643 1382 
C 2643 656 2234 64 1728 64 
C 1498 64 1248 172 1056 472 
C 973 612 973 650 973 752 
L 973 2012 
z
" transform="scale(0.015625)"/>
       <path id="CMR17-6c" d="M 979 4396 
L 218 4326 
L 218 4160 
C 595 4160 653 4122 653 3817 
L 653 426 
C 653 184 627 153 218 153 
L 218 -13 
C 371 0 653 0 813 0 
C 979 0 1261 0 1414 -13 
L 1414 153 
C 1005 153 979 178 979 426 
L 979 4396 
z
" transform="scale(0.015625)"/>
       <path id="CMR17-65" d="M 2438 1472 
C 2464 1498 2464 1511 2464 1576 
C 2464 2238 2118 2816 1389 2816 
C 710 2816 173 2169 173 1383 
C 173 551 781 -64 1459 -64 
C 2176 -64 2458 607 2458 740 
C 2458 784 2419 784 2406 784 
C 2362 784 2355 771 2330 696 
C 2189 265 1837 51 1504 51 
C 1229 51 954 203 781 480 
C 582 803 582 1176 582 1472 
L 2438 1472 
z
M 589 1568 
C 634 2505 1126 2714 1382 2714 
C 1818 2714 2112 2297 2118 1568 
L 589 1568 
z
" transform="scale(0.015625)"/>
      </defs>
      <use xlink:href="#CMR17-53" transform="scale(0.996264)"/>
      <use xlink:href="#CMR17-61" transform="translate(50.89537 0) scale(0.996264)"/>
      <use xlink:href="#CMR17-6d" transform="translate(96.585847 0) scale(0.996264)"/>
      <use xlink:href="#CMR17-70" transform="translate(173.505437 0) scale(0.996264)"/>
      <use xlink:href="#CMR17-6c" transform="translate(224.400807 0) scale(0.996264)"/>
      <use xlink:href="#CMR17-65" transform="translate(249.271865 0) scale(0.996264)"/>
     </g>
    </g>
   </g>
   <g id="matplotlib.axis_2">
    <g id="ytick_1">
     <g id="line2d_31">
      <defs>
       <path id="m32d08d3fe6" d="M 0 0 
L 3 0 
" style="stroke: #000000; stroke-width: 0.5"/>
      </defs>
      <g>
       <use xlink:href="#m32d08d3fe6" x="41.223213" y="149.18092" style="stroke: #000000; stroke-width: 0.5"/>
      </g>
     </g>
     <g id="line2d_32">
      <defs>
       <path id="mbfd2452dde" d="M 0 0 
L -3 0 
" style="stroke: #000000; stroke-width: 0.5"/>
      </defs>
      <g>
       <use xlink:href="#mbfd2452dde" x="236.523213" y="149.18092" style="stroke: #000000; stroke-width: 0.5"/>
      </g>
     </g>
     <g id="text_6">
      <!-- $\mathdefault{10^{-2}}$ -->
      <g transform="translate(17.56264 152.640169) scale(0.1 -0.1)">
       <defs>
        <path id="CMR17-31" d="M 1702 4058 
C 1702 4192 1696 4192 1606 4192 
C 1357 3916 979 3827 621 3827 
C 602 3827 570 3827 563 3808 
C 557 3795 557 3782 557 3648 
C 755 3648 1088 3686 1344 3839 
L 1344 461 
C 1344 236 1331 160 781 160 
L 589 160 
L 589 0 
C 896 0 1216 0 1523 0 
C 1830 0 2150 0 2458 0 
L 2458 160 
L 2266 160 
C 1715 160 1702 230 1702 458 
L 1702 4058 
z
" transform="scale(0.015625)"/>
        <path id="CMSY10-0" d="M 4218 1472 
C 4326 1472 4442 1472 4442 1600 
C 4442 1728 4326 1728 4218 1728 
L 755 1728 
C 646 1728 531 1728 531 1600 
C 531 1472 646 1472 755 1472 
L 4218 1472 
z
" transform="scale(0.015625)"/>
       </defs>
       <use xlink:href="#CMR17-31" transform="scale(0.996264)"/>
       <use xlink:href="#CMR17-30" transform="translate(45.690477 0) scale(0.996264)"/>
       <use xlink:href="#CMSY10-0" transform="translate(91.380954 36.153639) scale(0.697382)"/>
       <use xlink:href="#CMR17-32" transform="translate(145.621947 36.153639) scale(0.697382)"/>
      </g>
     </g>
    </g>
    <g id="ytick_2">
     <g id="line2d_33">
      <g>
       <use xlink:href="#m32d08d3fe6" x="41.223213" y="101.80703" style="stroke: #000000; stroke-width: 0.5"/>
      </g>
     </g>
     <g id="line2d_34">
      <g>
       <use xlink:href="#mbfd2452dde" x="236.523213" y="101.80703" style="stroke: #000000; stroke-width: 0.5"/>
      </g>
     </g>
     <g id="text_7">
      <!-- $\mathdefault{10^{-1}}$ -->
      <g transform="translate(17.56264 105.266279) scale(0.1 -0.1)">
       <use xlink:href="#CMR17-31" transform="scale(0.996264)"/>
       <use xlink:href="#CMR17-30" transform="translate(45.690477 0) scale(0.996264)"/>
       <use xlink:href="#CMSY10-0" transform="translate(91.380954 36.153639) scale(0.697382)"/>
       <use xlink:href="#CMR17-31" transform="translate(145.621947 36.153639) scale(0.697382)"/>
      </g>
     </g>
    </g>
    <g id="ytick_3">
     <g id="line2d_35">
      <g>
       <use xlink:href="#m32d08d3fe6" x="41.223213" y="54.433139" style="stroke: #000000; stroke-width: 0.5"/>
      </g>
     </g>
     <g id="line2d_36">
      <g>
       <use xlink:href="#mbfd2452dde" x="236.523213" y="54.433139" style="stroke: #000000; stroke-width: 0.5"/>
      </g>
     </g>
     <g id="text_8">
      <!-- $\mathdefault{10^{0}}$ -->
      <g transform="translate(23.789305 57.892389) scale(0.1 -0.1)">
       <use xlink:href="#CMR17-31" transform="scale(0.996264)"/>
       <use xlink:href="#CMR17-30" transform="translate(45.690477 0) scale(0.996264)"/>
       <use xlink:href="#CMR17-30" transform="translate(91.380954 36.153639) scale(0.697382)"/>
      </g>
     </g>
    </g>
    <g id="ytick_4">
     <g id="line2d_37">
      <g>
       <use xlink:href="#m32d08d3fe6" x="41.223213" y="7.059249" style="stroke: #000000; stroke-width: 0.5"/>
      </g>
     </g>
     <g id="line2d_38">
      <g>
       <use xlink:href="#mbfd2452dde" x="236.523213" y="7.059249" style="stroke: #000000; stroke-width: 0.5"/>
      </g>
     </g>
     <g id="text_9">
      <!-- $\mathdefault{10^{1}}$ -->
      <g transform="translate(23.789305 10.518498) scale(0.1 -0.1)">
       <use xlink:href="#CMR17-31" transform="scale(0.996264)"/>
       <use xlink:href="#CMR17-30" transform="translate(45.690477 0) scale(0.996264)"/>
       <use xlink:href="#CMR17-31" transform="translate(91.380954 36.153639) scale(0.697382)"/>
      </g>
     </g>
    </g>
    <g id="ytick_5">
     <g id="line2d_39">
      <defs>
       <path id="mc7ae4581fc" d="M 0 0 
L 1.5 0 
" style="stroke: #000000; stroke-width: 0.5"/>
      </defs>
      <g>
       <use xlink:href="#mc7ae4581fc" x="41.223213" y="134.919958" style="stroke: #000000; stroke-width: 0.5"/>
      </g>
     </g>
     <g id="line2d_40">
      <defs>
       <path id="m0cce1d9bee" d="M 0 0 
L -1.5 0 
" style="stroke: #000000; stroke-width: 0.5"/>
      </defs>
      <g>
       <use xlink:href="#m0cce1d9bee" x="236.523213" y="134.919958" style="stroke: #000000; stroke-width: 0.5"/>
      </g>
     </g>
    </g>
    <g id="ytick_6">
     <g id="line2d_41">
      <g>
       <use xlink:href="#mc7ae4581fc" x="41.223213" y="126.57783" style="stroke: #000000; stroke-width: 0.5"/>
      </g>
     </g>
     <g id="line2d_42">
      <g>
       <use xlink:href="#m0cce1d9bee" x="236.523213" y="126.57783" style="stroke: #000000; stroke-width: 0.5"/>
      </g>
     </g>
    </g>
    <g id="ytick_7">
     <g id="line2d_43">
      <g>
       <use xlink:href="#mc7ae4581fc" x="41.223213" y="120.658996" style="stroke: #000000; stroke-width: 0.5"/>
      </g>
     </g>
     <g id="line2d_44">
      <g>
       <use xlink:href="#m0cce1d9bee" x="236.523213" y="120.658996" style="stroke: #000000; stroke-width: 0.5"/>
      </g>
     </g>
    </g>
    <g id="ytick_8">
     <g id="line2d_45">
      <g>
       <use xlink:href="#mc7ae4581fc" x="41.223213" y="116.067991" style="stroke: #000000; stroke-width: 0.5"/>
      </g>
     </g>
     <g id="line2d_46">
      <g>
       <use xlink:href="#m0cce1d9bee" x="236.523213" y="116.067991" style="stroke: #000000; stroke-width: 0.5"/>
      </g>
     </g>
    </g>
    <g id="ytick_9">
     <g id="line2d_47">
      <g>
       <use xlink:href="#mc7ae4581fc" x="41.223213" y="112.316868" style="stroke: #000000; stroke-width: 0.5"/>
      </g>
     </g>
     <g id="line2d_48">
      <g>
       <use xlink:href="#m0cce1d9bee" x="236.523213" y="112.316868" style="stroke: #000000; stroke-width: 0.5"/>
      </g>
     </g>
    </g>
    <g id="ytick_10">
     <g id="line2d_49">
      <g>
       <use xlink:href="#mc7ae4581fc" x="41.223213" y="109.145338" style="stroke: #000000; stroke-width: 0.5"/>
      </g>
     </g>
     <g id="line2d_50">
      <g>
       <use xlink:href="#m0cce1d9bee" x="236.523213" y="109.145338" style="stroke: #000000; stroke-width: 0.5"/>
      </g>
     </g>
    </g>
    <g id="ytick_11">
     <g id="line2d_51">
      <g>
       <use xlink:href="#mc7ae4581fc" x="41.223213" y="106.398034" style="stroke: #000000; stroke-width: 0.5"/>
      </g>
     </g>
     <g id="line2d_52">
      <g>
       <use xlink:href="#m0cce1d9bee" x="236.523213" y="106.398034" style="stroke: #000000; stroke-width: 0.5"/>
      </g>
     </g>
    </g>
    <g id="ytick_12">
     <g id="line2d_53">
      <g>
       <use xlink:href="#mc7ae4581fc" x="41.223213" y="103.97474" style="stroke: #000000; stroke-width: 0.5"/>
      </g>
     </g>
     <g id="line2d_54">
      <g>
       <use xlink:href="#m0cce1d9bee" x="236.523213" y="103.97474" style="stroke: #000000; stroke-width: 0.5"/>
      </g>
     </g>
    </g>
    <g id="ytick_13">
     <g id="line2d_55">
      <g>
       <use xlink:href="#mc7ae4581fc" x="41.223213" y="87.546068" style="stroke: #000000; stroke-width: 0.5"/>
      </g>
     </g>
     <g id="line2d_56">
      <g>
       <use xlink:href="#m0cce1d9bee" x="236.523213" y="87.546068" style="stroke: #000000; stroke-width: 0.5"/>
      </g>
     </g>
    </g>
    <g id="ytick_14">
     <g id="line2d_57">
      <g>
       <use xlink:href="#mc7ae4581fc" x="41.223213" y="79.20394" style="stroke: #000000; stroke-width: 0.5"/>
      </g>
     </g>
     <g id="line2d_58">
      <g>
       <use xlink:href="#m0cce1d9bee" x="236.523213" y="79.20394" style="stroke: #000000; stroke-width: 0.5"/>
      </g>
     </g>
    </g>
    <g id="ytick_15">
     <g id="line2d_59">
      <g>
       <use xlink:href="#mc7ae4581fc" x="41.223213" y="73.285106" style="stroke: #000000; stroke-width: 0.5"/>
      </g>
     </g>
     <g id="line2d_60">
      <g>
       <use xlink:href="#m0cce1d9bee" x="236.523213" y="73.285106" style="stroke: #000000; stroke-width: 0.5"/>
      </g>
     </g>
    </g>
    <g id="ytick_16">
     <g id="line2d_61">
      <g>
       <use xlink:href="#mc7ae4581fc" x="41.223213" y="68.694101" style="stroke: #000000; stroke-width: 0.5"/>
      </g>
     </g>
     <g id="line2d_62">
      <g>
       <use xlink:href="#m0cce1d9bee" x="236.523213" y="68.694101" style="stroke: #000000; stroke-width: 0.5"/>
      </g>
     </g>
    </g>
    <g id="ytick_17">
     <g id="line2d_63">
      <g>
       <use xlink:href="#mc7ae4581fc" x="41.223213" y="64.942978" style="stroke: #000000; stroke-width: 0.5"/>
      </g>
     </g>
     <g id="line2d_64">
      <g>
       <use xlink:href="#m0cce1d9bee" x="236.523213" y="64.942978" style="stroke: #000000; stroke-width: 0.5"/>
      </g>
     </g>
    </g>
    <g id="ytick_18">
     <g id="line2d_65">
      <g>
       <use xlink:href="#mc7ae4581fc" x="41.223213" y="61.771448" style="stroke: #000000; stroke-width: 0.5"/>
      </g>
     </g>
     <g id="line2d_66">
      <g>
       <use xlink:href="#m0cce1d9bee" x="236.523213" y="61.771448" style="stroke: #000000; stroke-width: 0.5"/>
      </g>
     </g>
    </g>
    <g id="ytick_19">
     <g id="line2d_67">
      <g>
       <use xlink:href="#mc7ae4581fc" x="41.223213" y="59.024144" style="stroke: #000000; stroke-width: 0.5"/>
      </g>
     </g>
     <g id="line2d_68">
      <g>
       <use xlink:href="#m0cce1d9bee" x="236.523213" y="59.024144" style="stroke: #000000; stroke-width: 0.5"/>
      </g>
     </g>
    </g>
    <g id="ytick_20">
     <g id="line2d_69">
      <g>
       <use xlink:href="#mc7ae4581fc" x="41.223213" y="56.60085" style="stroke: #000000; stroke-width: 0.5"/>
      </g>
     </g>
     <g id="line2d_70">
      <g>
       <use xlink:href="#m0cce1d9bee" x="236.523213" y="56.60085" style="stroke: #000000; stroke-width: 0.5"/>
      </g>
     </g>
    </g>
    <g id="ytick_21">
     <g id="line2d_71">
      <g>
       <use xlink:href="#mc7ae4581fc" x="41.223213" y="40.172177" style="stroke: #000000; stroke-width: 0.5"/>
      </g>
     </g>
     <g id="line2d_72">
      <g>
       <use xlink:href="#m0cce1d9bee" x="236.523213" y="40.172177" style="stroke: #000000; stroke-width: 0.5"/>
      </g>
     </g>
    </g>
    <g id="ytick_22">
     <g id="line2d_73">
      <g>
       <use xlink:href="#mc7ae4581fc" x="41.223213" y="31.830049" style="stroke: #000000; stroke-width: 0.5"/>
      </g>
     </g>
     <g id="line2d_74">
      <g>
       <use xlink:href="#m0cce1d9bee" x="236.523213" y="31.830049" style="stroke: #000000; stroke-width: 0.5"/>
      </g>
     </g>
    </g>
    <g id="ytick_23">
     <g id="line2d_75">
      <g>
       <use xlink:href="#mc7ae4581fc" x="41.223213" y="25.911215" style="stroke: #000000; stroke-width: 0.5"/>
      </g>
     </g>
     <g id="line2d_76">
      <g>
       <use xlink:href="#m0cce1d9bee" x="236.523213" y="25.911215" style="stroke: #000000; stroke-width: 0.5"/>
      </g>
     </g>
    </g>
    <g id="ytick_24">
     <g id="line2d_77">
      <g>
       <use xlink:href="#mc7ae4581fc" x="41.223213" y="21.320211" style="stroke: #000000; stroke-width: 0.5"/>
      </g>
     </g>
     <g id="line2d_78">
      <g>
       <use xlink:href="#m0cce1d9bee" x="236.523213" y="21.320211" style="stroke: #000000; stroke-width: 0.5"/>
      </g>
     </g>
    </g>
    <g id="ytick_25">
     <g id="line2d_79">
      <g>
       <use xlink:href="#mc7ae4581fc" x="41.223213" y="17.569087" style="stroke: #000000; stroke-width: 0.5"/>
      </g>
     </g>
     <g id="line2d_80">
      <g>
       <use xlink:href="#m0cce1d9bee" x="236.523213" y="17.569087" style="stroke: #000000; stroke-width: 0.5"/>
      </g>
     </g>
    </g>
    <g id="ytick_26">
     <g id="line2d_81">
      <g>
       <use xlink:href="#mc7ae4581fc" x="41.223213" y="14.397558" style="stroke: #000000; stroke-width: 0.5"/>
      </g>
     </g>
     <g id="line2d_82">
      <g>
       <use xlink:href="#m0cce1d9bee" x="236.523213" y="14.397558" style="stroke: #000000; stroke-width: 0.5"/>
      </g>
     </g>
    </g>
    <g id="ytick_27">
     <g id="line2d_83">
      <g>
       <use xlink:href="#mc7ae4581fc" x="41.223213" y="11.650254" style="stroke: #000000; stroke-width: 0.5"/>
      </g>
     </g>
     <g id="line2d_84">
      <g>
       <use xlink:href="#m0cce1d9bee" x="236.523213" y="11.650254" style="stroke: #000000; stroke-width: 0.5"/>
      </g>
     </g>
    </g>
    <g id="ytick_28">
     <g id="line2d_85">
      <g>
       <use xlink:href="#mc7ae4581fc" x="41.223213" y="9.22696" style="stroke: #000000; stroke-width: 0.5"/>
      </g>
     </g>
     <g id="line2d_86">
      <g>
       <use xlink:href="#m0cce1d9bee" x="236.523213" y="9.22696" style="stroke: #000000; stroke-width: 0.5"/>
      </g>
     </g>
    </g>
    <g id="text_10">
     <!-- $\sigma_{U_7}$ [mV] -->
     <g transform="translate(11.07198 97.539345) rotate(-90) scale(0.1 -0.1)">
      <defs>
       <path id="CMMI12-1b" d="M 3251 2408 
C 3334 2408 3546 2408 3546 2612 
C 3546 2752 3424 2752 3309 2752 
L 1894 2752 
C 934 2752 243 1686 243 932 
C 243 390 595 -64 1171 -64 
C 1926 -64 2752 747 2752 1705 
C 2752 1954 2694 2196 2541 2408 
L 3251 2408 
z
M 1178 64 
C 851 64 614 313 614 754 
C 614 1137 845 2408 1786 2408 
C 2061 2408 2368 2274 2368 1781 
C 2368 1558 2266 1021 2042 652 
C 1811 275 1466 64 1178 64 
z
" transform="scale(0.015625)"/>
       <path id="CMMI12-55" d="M 3238 1474 
C 3014 581 2272 57 1670 57 
C 1210 57 896 363 896 891 
C 896 916 896 1107 966 1387 
L 1594 3887 
C 1651 4103 1664 4167 2118 4167 
C 2234 4167 2298 4167 2298 4282 
C 2298 4352 2240 4352 2202 4352 
C 2086 4352 1952 4352 1830 4352 
L 1075 4352 
C 954 4352 819 4352 698 4352 
C 653 4352 576 4352 576 4231 
C 576 4167 621 4167 742 4167 
C 1126 4167 1126 4116 1126 4046 
C 1126 4008 1082 3824 1050 3715 
L 493 1488 
C 474 1418 435 1246 435 1075 
C 435 374 941 -128 1638 -128 
C 2285 -128 3002 384 3328 1197 
C 3373 1305 3430 1530 3469 1702 
C 3533 1933 3667 2496 3712 2662 
L 3955 3623 
C 4038 3956 4090 4167 4653 4167 
C 4704 4173 4730 4224 4730 4282 
C 4730 4352 4672 4352 4646 4352 
C 4557 4352 4442 4352 4352 4352 
L 4051 4352 
C 3654 4352 3450 4352 3443 4352 
C 3405 4352 3328 4352 3328 4231 
C 3328 4167 3379 4167 3424 4167 
C 3808 4167 3834 4020 3834 3905 
C 3834 3848 3834 3828 3808 3739 
L 3238 1474 
z
" transform="scale(0.015625)"/>
       <path id="CMR17-37" d="M 2886 3941 
L 2886 4081 
L 1382 4081 
C 634 4081 621 4165 595 4288 
L 480 4288 
L 294 3094 
L 410 3094 
C 429 3215 474 3540 550 3661 
C 589 3712 1062 3712 1171 3712 
L 2579 3712 
L 1869 2661 
C 1395 1954 1069 999 1069 165 
C 1069 89 1069 -128 1299 -128 
C 1530 -128 1530 89 1530 171 
L 1530 465 
C 1530 1508 1709 2196 2003 2636 
L 2886 3941 
z
" transform="scale(0.015625)"/>
       <path id="CMR17-5b" d="M 1504 -1600 
L 1504 -1377 
L 902 -1377 
L 902 4544 
L 1504 4544 
L 1504 4767 
L 678 4767 
L 678 -1600 
L 1504 -1600 
z
" transform="scale(0.015625)"/>
       <path id="CMR17-56" d="M 3776 3745 
C 3834 3886 3936 4160 4365 4160 
L 4365 4332 
C 4218 4319 4051 4319 3891 4319 
C 3738 4319 3475 4319 3328 4332 
L 3328 4160 
C 3648 4160 3661 3936 3661 3898 
C 3661 3827 3642 3783 3622 3732 
L 2362 446 
L 1043 3886 
C 1024 3931 1011 3963 1011 3994 
C 1011 4160 1267 4160 1402 4160 
L 1402 4319 
C 1197 4319 896 4319 685 4319 
C 518 4319 218 4319 64 4332 
L 64 4160 
C 435 4160 506 4135 582 3931 
L 2106 -26 
C 2138 -115 2144 -128 2214 -128 
C 2285 -128 2291 -115 2323 -26 
L 3776 3745 
z
" transform="scale(0.015625)"/>
       <path id="CMR17-5d" d="M 915 4767 
L 90 4767 
L 90 4544 
L 691 4544 
L 691 -1377 
L 90 -1377 
L 90 -1600 
L 915 -1600 
L 915 4767 
z
" transform="scale(0.015625)"/>
      </defs>
      <use xlink:href="#CMMI12-1b" transform="scale(0.996264)"/>
      <use xlink:href="#CMMI12-55" transform="translate(55.445461 -14.943915) scale(0.697382)"/>
      <use xlink:href="#CMR17-37" transform="translate(101.821736 -25.404611) scale(0.498132)"/>
      <use xlink:href="#CMR17-5b" transform="translate(155.739205 0) scale(0.996264)"/>
      <use xlink:href="#CMR17-6d" transform="translate(180.610263 0) scale(0.996264)"/>
      <use xlink:href="#CMR17-56" transform="translate(257.529853 0) scale(0.996264)"/>
      <use xlink:href="#CMR17-5d" transform="translate(326.602283 0) scale(0.996264)"/>
     </g>
    </g>
   </g>
   <g id="line2d_87">
    <path d="M 50.100486 119.019017 
L 52.601126 134.096298 
L 55.101767 106.976002 
L 57.602407 125.066559 
L 60.103047 119.47966 
L 62.603687 11.321221 
L 65.104327 114.966082 
L 67.604968 129.130962 
L 70.105608 120.034608 
L 72.606248 123.162497 
L 75.106888 119.351637 
L 77.607528 126.276399 
L 80.108169 121.52708 
L 82.608809 134.904569 
L 85.109449 123.787063 
L 87.610089 128.855507 
L 90.110729 116.995844 
L 92.61137 122.553958 
L 95.11201 130.232917 
L 97.61265 128.153435 
L 100.11329 120.901661 
L 102.613931 123.846427 
L 105.114571 123.192914 
L 107.615211 130.445732 
L 110.115851 122.722937 
L 112.616491 118.925194 
L 115.117132 121.463363 
L 117.617772 134.784612 
L 120.118412 133.801522 
L 122.619052 24.021182 
L 125.119692 120.887832 
L 127.620333 121.726348 
L 130.120973 112.773662 
L 132.621613 126.400844 
L 135.122253 126.339796 
L 137.622893 135.911357 
L 140.123534 115.143213 
L 142.624174 124.926269 
L 145.124814 123.522401 
L 147.625454 143.621221 
L 150.126094 106.969125 
L 152.626735 125.742692 
L 155.127375 123.526797 
L 157.628015 127.4746 
L 160.128655 117.197333 
L 162.629295 131.256879 
L 165.129936 113.102222 
L 167.630576 129.889109 
L 170.131216 120.09268 
L 172.631856 129.420805 
L 175.132496 125.708382 
L 177.633137 123.992894 
L 180.133777 130.147863 
L 182.634417 125.828184 
L 185.135057 115.65707 
L 187.635697 134.381452 
L 190.136338 115.377265 
L 192.636978 116.424787 
L 195.137618 116.920972 
L 197.638258 130.742317 
L 200.138899 128.118039 
L 202.639539 132.294075 
L 205.140179 116.590328 
L 207.640819 128.058926 
L 210.141459 118.142941 
L 212.6421 118.800984 
L 215.14274 120.923934 
L 217.64338 129.844557 
L 220.14402 120.142952 
L 222.64466 133.02233 
L 225.145301 114.382783 
L 227.645941 130.32947 
" clip-path="url(#p35700f71d9)" style="fill: none; stroke: #4477aa; stroke-linecap: square"/>
    <defs>
     <path id="m2beb6ea5c1" d="M 0 1.5 
C 0.397805 1.5 0.77937 1.341951 1.06066 1.06066 
C 1.341951 0.77937 1.5 0.397805 1.5 0 
C 1.5 -0.397805 1.341951 -0.77937 1.06066 -1.06066 
C 0.77937 -1.341951 0.397805 -1.5 0 -1.5 
C -0.397805 -1.5 -0.77937 -1.341951 -1.06066 -1.06066 
C -1.341951 -0.77937 -1.5 -0.397805 -1.5 0 
C -1.5 0.397805 -1.341951 0.77937 -1.06066 1.06066 
C -0.77937 1.341951 -0.397805 1.5 0 1.5 
z
" style="stroke: #4477aa"/>
    </defs>
    <g clip-path="url(#p35700f71d9)">
     <use xlink:href="#m2beb6ea5c1" x="50.100486" y="119.019017" style="fill: #4477aa; stroke: #4477aa"/>
     <use xlink:href="#m2beb6ea5c1" x="52.601126" y="134.096298" style="fill: #4477aa; stroke: #4477aa"/>
     <use xlink:href="#m2beb6ea5c1" x="55.101767" y="106.976002" style="fill: #4477aa; stroke: #4477aa"/>
     <use xlink:href="#m2beb6ea5c1" x="57.602407" y="125.066559" style="fill: #4477aa; stroke: #4477aa"/>
     <use xlink:href="#m2beb6ea5c1" x="60.103047" y="119.47966" style="fill: #4477aa; stroke: #4477aa"/>
     <use xlink:href="#m2beb6ea5c1" x="62.603687" y="11.321221" style="fill: #4477aa; stroke: #4477aa"/>
     <use xlink:href="#m2beb6ea5c1" x="65.104327" y="114.966082" style="fill: #4477aa; stroke: #4477aa"/>
     <use xlink:href="#m2beb6ea5c1" x="67.604968" y="129.130962" style="fill: #4477aa; stroke: #4477aa"/>
     <use xlink:href="#m2beb6ea5c1" x="70.105608" y="120.034608" style="fill: #4477aa; stroke: #4477aa"/>
     <use xlink:href="#m2beb6ea5c1" x="72.606248" y="123.162497" style="fill: #4477aa; stroke: #4477aa"/>
     <use xlink:href="#m2beb6ea5c1" x="75.106888" y="119.351637" style="fill: #4477aa; stroke: #4477aa"/>
     <use xlink:href="#m2beb6ea5c1" x="77.607528" y="126.276399" style="fill: #4477aa; stroke: #4477aa"/>
     <use xlink:href="#m2beb6ea5c1" x="80.108169" y="121.52708" style="fill: #4477aa; stroke: #4477aa"/>
     <use xlink:href="#m2beb6ea5c1" x="82.608809" y="134.904569" style="fill: #4477aa; stroke: #4477aa"/>
     <use xlink:href="#m2beb6ea5c1" x="85.109449" y="123.787063" style="fill: #4477aa; stroke: #4477aa"/>
     <use xlink:href="#m2beb6ea5c1" x="87.610089" y="128.855507" style="fill: #4477aa; stroke: #4477aa"/>
     <use xlink:href="#m2beb6ea5c1" x="90.110729" y="116.995844" style="fill: #4477aa; stroke: #4477aa"/>
     <use xlink:href="#m2beb6ea5c1" x="92.61137" y="122.553958" style="fill: #4477aa; stroke: #4477aa"/>
     <use xlink:href="#m2beb6ea5c1" x="95.11201" y="130.232917" style="fill: #4477aa; stroke: #4477aa"/>
     <use xlink:href="#m2beb6ea5c1" x="97.61265" y="128.153435" style="fill: #4477aa; stroke: #4477aa"/>
     <use xlink:href="#m2beb6ea5c1" x="100.11329" y="120.901661" style="fill: #4477aa; stroke: #4477aa"/>
     <use xlink:href="#m2beb6ea5c1" x="102.613931" y="123.846427" style="fill: #4477aa; stroke: #4477aa"/>
     <use xlink:href="#m2beb6ea5c1" x="105.114571" y="123.192914" style="fill: #4477aa; stroke: #4477aa"/>
     <use xlink:href="#m2beb6ea5c1" x="107.615211" y="130.445732" style="fill: #4477aa; stroke: #4477aa"/>
     <use xlink:href="#m2beb6ea5c1" x="110.115851" y="122.722937" style="fill: #4477aa; stroke: #4477aa"/>
     <use xlink:href="#m2beb6ea5c1" x="112.616491" y="118.925194" style="fill: #4477aa; stroke: #4477aa"/>
     <use xlink:href="#m2beb6ea5c1" x="115.117132" y="121.463363" style="fill: #4477aa; stroke: #4477aa"/>
     <use xlink:href="#m2beb6ea5c1" x="117.617772" y="134.784612" style="fill: #4477aa; stroke: #4477aa"/>
     <use xlink:href="#m2beb6ea5c1" x="120.118412" y="133.801522" style="fill: #4477aa; stroke: #4477aa"/>
     <use xlink:href="#m2beb6ea5c1" x="122.619052" y="24.021182" style="fill: #4477aa; stroke: #4477aa"/>
     <use xlink:href="#m2beb6ea5c1" x="125.119692" y="120.887832" style="fill: #4477aa; stroke: #4477aa"/>
     <use xlink:href="#m2beb6ea5c1" x="127.620333" y="121.726348" style="fill: #4477aa; stroke: #4477aa"/>
     <use xlink:href="#m2beb6ea5c1" x="130.120973" y="112.773662" style="fill: #4477aa; stroke: #4477aa"/>
     <use xlink:href="#m2beb6ea5c1" x="132.621613" y="126.400844" style="fill: #4477aa; stroke: #4477aa"/>
     <use xlink:href="#m2beb6ea5c1" x="135.122253" y="126.339796" style="fill: #4477aa; stroke: #4477aa"/>
     <use xlink:href="#m2beb6ea5c1" x="137.622893" y="135.911357" style="fill: #4477aa; stroke: #4477aa"/>
     <use xlink:href="#m2beb6ea5c1" x="140.123534" y="115.143213" style="fill: #4477aa; stroke: #4477aa"/>
     <use xlink:href="#m2beb6ea5c1" x="142.624174" y="124.926269" style="fill: #4477aa; stroke: #4477aa"/>
     <use xlink:href="#m2beb6ea5c1" x="145.124814" y="123.522401" style="fill: #4477aa; stroke: #4477aa"/>
     <use xlink:href="#m2beb6ea5c1" x="147.625454" y="143.621221" style="fill: #4477aa; stroke: #4477aa"/>
     <use xlink:href="#m2beb6ea5c1" x="150.126094" y="106.969125" style="fill: #4477aa; stroke: #4477aa"/>
     <use xlink:href="#m2beb6ea5c1" x="152.626735" y="125.742692" style="fill: #4477aa; stroke: #4477aa"/>
     <use xlink:href="#m2beb6ea5c1" x="155.127375" y="123.526797" style="fill: #4477aa; stroke: #4477aa"/>
     <use xlink:href="#m2beb6ea5c1" x="157.628015" y="127.4746" style="fill: #4477aa; stroke: #4477aa"/>
     <use xlink:href="#m2beb6ea5c1" x="160.128655" y="117.197333" style="fill: #4477aa; stroke: #4477aa"/>
     <use xlink:href="#m2beb6ea5c1" x="162.629295" y="131.256879" style="fill: #4477aa; stroke: #4477aa"/>
     <use xlink:href="#m2beb6ea5c1" x="165.129936" y="113.102222" style="fill: #4477aa; stroke: #4477aa"/>
     <use xlink:href="#m2beb6ea5c1" x="167.630576" y="129.889109" style="fill: #4477aa; stroke: #4477aa"/>
     <use xlink:href="#m2beb6ea5c1" x="170.131216" y="120.09268" style="fill: #4477aa; stroke: #4477aa"/>
     <use xlink:href="#m2beb6ea5c1" x="172.631856" y="129.420805" style="fill: #4477aa; stroke: #4477aa"/>
     <use xlink:href="#m2beb6ea5c1" x="175.132496" y="125.708382" style="fill: #4477aa; stroke: #4477aa"/>
     <use xlink:href="#m2beb6ea5c1" x="177.633137" y="123.992894" style="fill: #4477aa; stroke: #4477aa"/>
     <use xlink:href="#m2beb6ea5c1" x="180.133777" y="130.147863" style="fill: #4477aa; stroke: #4477aa"/>
     <use xlink:href="#m2beb6ea5c1" x="182.634417" y="125.828184" style="fill: #4477aa; stroke: #4477aa"/>
     <use xlink:href="#m2beb6ea5c1" x="185.135057" y="115.65707" style="fill: #4477aa; stroke: #4477aa"/>
     <use xlink:href="#m2beb6ea5c1" x="187.635697" y="134.381452" style="fill: #4477aa; stroke: #4477aa"/>
     <use xlink:href="#m2beb6ea5c1" x="190.136338" y="115.377265" style="fill: #4477aa; stroke: #4477aa"/>
     <use xlink:href="#m2beb6ea5c1" x="192.636978" y="116.424787" style="fill: #4477aa; stroke: #4477aa"/>
     <use xlink:href="#m2beb6ea5c1" x="195.137618" y="116.920972" style="fill: #4477aa; stroke: #4477aa"/>
     <use xlink:href="#m2beb6ea5c1" x="197.638258" y="130.742317" style="fill: #4477aa; stroke: #4477aa"/>
     <use xlink:href="#m2beb6ea5c1" x="200.138899" y="128.118039" style="fill: #4477aa; stroke: #4477aa"/>
     <use xlink:href="#m2beb6ea5c1" x="202.639539" y="132.294075" style="fill: #4477aa; stroke: #4477aa"/>
     <use xlink:href="#m2beb6ea5c1" x="205.140179" y="116.590328" style="fill: #4477aa; stroke: #4477aa"/>
     <use xlink:href="#m2beb6ea5c1" x="207.640819" y="128.058926" style="fill: #4477aa; stroke: #4477aa"/>
     <use xlink:href="#m2beb6ea5c1" x="210.141459" y="118.142941" style="fill: #4477aa; stroke: #4477aa"/>
     <use xlink:href="#m2beb6ea5c1" x="212.6421" y="118.800984" style="fill: #4477aa; stroke: #4477aa"/>
     <use xlink:href="#m2beb6ea5c1" x="215.14274" y="120.923934" style="fill: #4477aa; stroke: #4477aa"/>
     <use xlink:href="#m2beb6ea5c1" x="217.64338" y="129.844557" style="fill: #4477aa; stroke: #4477aa"/>
     <use xlink:href="#m2beb6ea5c1" x="220.14402" y="120.142952" style="fill: #4477aa; stroke: #4477aa"/>
     <use xlink:href="#m2beb6ea5c1" x="222.64466" y="133.02233" style="fill: #4477aa; stroke: #4477aa"/>
     <use xlink:href="#m2beb6ea5c1" x="225.145301" y="114.382783" style="fill: #4477aa; stroke: #4477aa"/>
     <use xlink:href="#m2beb6ea5c1" x="227.645941" y="130.32947" style="fill: #4477aa; stroke: #4477aa"/>
    </g>
   </g>
   <g id="patch_3">
    <path d="M 41.223213 150.236221 
L 41.223213 4.706221 
" style="fill: none; stroke: #000000; stroke-width: 0.5; stroke-linejoin: miter; stroke-linecap: square"/>
   </g>
   <g id="patch_4">
    <path d="M 236.523213 150.236221 
L 236.523213 4.706221 
" style="fill: none; stroke: #000000; stroke-width: 0.5; stroke-linejoin: miter; stroke-linecap: square"/>
   </g>
   <g id="patch_5">
    <path d="M 41.223213 150.236221 
L 236.523213 150.236221 
" style="fill: none; stroke: #000000; stroke-width: 0.5; stroke-linejoin: miter; stroke-linecap: square"/>
   </g>
   <g id="patch_6">
    <path d="M 41.223213 4.706221 
L 236.523213 4.706221 
" style="fill: none; stroke: #000000; stroke-width: 0.5; stroke-linejoin: miter; stroke-linecap: square"/>
   </g>
  </g>
 </g>
 <defs>
  <clipPath id="p35700f71d9">
   <rect x="41.223213" y="4.706221" width="195.3" height="145.53"/>
  </clipPath>
 </defs>
</svg>
