<?xml version="1.0" encoding="utf-8" standalone="no"?>
<!DOCTYPE svg PUBLIC "-//W3C//DTD SVG 1.1//EN"
  "http://www.w3.org/Graphics/SVG/1.1/DTD/svg11.dtd">
<svg xmlns:xlink="http://www.w3.org/1999/xlink" width="198.624903pt" height="145.018103pt" viewBox="0 0 198.624903 145.018103" xmlns="http://www.w3.org/2000/svg" version="1.1">
 <metadata>
  <rdf:RDF xmlns:dc="http://purl.org/dc/elements/1.1/" xmlns:cc="http://creativecommons.org/ns#" xmlns:rdf="http://www.w3.org/1999/02/22-rdf-syntax-ns#">
   <cc:Work>
    <dc:type rdf:resource="http://purl.org/dc/dcmitype/StillImage"/>
    <dc:date>2026-05-28T11:28:29.654231</dc:date>
    <dc:format>image/svg+xml</dc:format>
    <dc:creator>
     <cc:Agent>
      <dc:title>Matplotlib v3.9.2, https://matplotlib.org/</dc:title>
     </cc:Agent>
    </dc:creator>
   </cc:Work>
  </rdf:RDF>
 </metadata>
 <defs>
  <style type="text/css">*{stroke-linejoin: round; stroke-linecap: butt}</style>
 </defs>
 <g id="figure_1">
  <g id="patch_1">
   <path d="M 0 145.018103 
L 198.624903 145.018103 
L 198.624903 0 
L 0 0 
L 0 145.018103 
z
" style="fill: none"/>
  </g>
  <g id="axes_1">
   <g id="patch_2">
    <path d="M 41.582948 116.206749 
L 188.057948 116.206749 
L 188.057948 7.059249 
L 41.582948 7.059249 
L 41.582948 116.206749 
z
" style="fill: none"/>
   </g>
   <g id="matplotlib.axis_1">
    <g id="xtick_1">
     <g id="line2d_1">
      <path d="M 63.227728 116.206749 
L 63.227728 7.059249 
" clip-path="url(#pa3da8e2083)" style="fill: none; stroke-dasharray: 1.85,0.8; stroke-dashoffset: 0; stroke: #000000; stroke-opacity: 0.5; stroke-width: 0.5"/>
     </g>
     <g id="line2d_2">
      <defs>
       <path id="me81717ab8b" d="M 0 0 
L 0 -3 
" style="stroke: #000000; stroke-width: 0.5"/>
      </defs>
      <g>
       <use xlink:href="#me81717ab8b" x="63.227728" y="116.206749" style="stroke: #000000; stroke-width: 0.5"/>
      </g>
     </g>
     <g id="line2d_3">
      <defs>
       <path id="m03558ec576" d="M 0 0 
L 0 3 
" style="stroke: #000000; stroke-width: 0.5"/>
      </defs>
      <g>
       <use xlink:href="#m03558ec576" x="63.227728" y="7.059249" style="stroke: #000000; stroke-width: 0.5"/>
      </g>
     </g>
     <g id="text_1">
      <!-- $\mathdefault{10^{0}}$ -->
      <g transform="translate(56.260774 126.625248) scale(0.1 -0.1)">
       <defs>
        <path id="CMR17-31" d="M 1702 4058 
C 1702 4192 1696 4192 1606 4192 
C 1357 3916 979 3827 621 3827 
C 602 3827 570 3827 563 3808 
C 557 3795 557 3782 557 3648 
C 755 3648 1088 3686 1344 3839 
L 1344 461 
C 1344 236 1331 160 781 160 
L 589 160 
L 589 0 
C 896 0 1216 0 1523 0 
C 1830 0 2150 0 2458 0 
L 2458 160 
L 2266 160 
C 1715 160 1702 230 1702 458 
L 1702 4058 
z
" transform="scale(0.015625)"/>
        <path id="CMR17-30" d="M 2688 2025 
C 2688 2416 2682 3080 2413 3591 
C 2176 4039 1798 4198 1466 4198 
C 1158 4198 768 4058 525 3597 
C 269 3118 243 2524 243 2025 
C 243 1661 250 1106 448 619 
C 723 -39 1216 -128 1466 -128 
C 1760 -128 2208 -7 2470 600 
C 2662 1042 2688 1559 2688 2025 
z
M 1466 -26 
C 1056 -26 813 325 723 812 
C 653 1188 653 1738 653 2096 
C 653 2588 653 2997 736 3387 
C 858 3929 1216 4096 1466 4096 
C 1728 4096 2067 3923 2189 3400 
C 2272 3036 2278 2607 2278 2096 
C 2278 1680 2278 1169 2202 792 
C 2067 95 1690 -26 1466 -26 
z
" transform="scale(0.015625)"/>
       </defs>
       <use xlink:href="#CMR17-31" transform="scale(0.996264)"/>
       <use xlink:href="#CMR17-30" transform="translate(45.690477 0) scale(0.996264)"/>
       <use xlink:href="#CMR17-30" transform="translate(91.380954 36.153639) scale(0.697382)"/>
      </g>
     </g>
    </g>
    <g id="xtick_2">
     <g id="line2d_4">
      <path d="M 125.642838 116.206749 
L 125.642838 7.059249 
" clip-path="url(#pa3da8e2083)" style="fill: none; stroke-dasharray: 1.85,0.8; stroke-dashoffset: 0; stroke: #000000; stroke-opacity: 0.5; stroke-width: 0.5"/>
     </g>
     <g id="line2d_5">
      <g>
       <use xlink:href="#me81717ab8b" x="125.642838" y="116.206749" style="stroke: #000000; stroke-width: 0.5"/>
      </g>
     </g>
     <g id="line2d_6">
      <g>
       <use xlink:href="#m03558ec576" x="125.642838" y="7.059249" style="stroke: #000000; stroke-width: 0.5"/>
      </g>
     </g>
     <g id="text_2">
      <!-- $\mathdefault{10^{1}}$ -->
      <g transform="translate(118.675884 126.625248) scale(0.1 -0.1)">
       <use xlink:href="#CMR17-31" transform="scale(0.996264)"/>
       <use xlink:href="#CMR17-30" transform="translate(45.690477 0) scale(0.996264)"/>
       <use xlink:href="#CMR17-31" transform="translate(91.380954 36.153639) scale(0.697382)"/>
      </g>
     </g>
    </g>
    <g id="xtick_3">
     <g id="line2d_7">
      <path d="M 188.057948 116.206749 
L 188.057948 7.059249 
" clip-path="url(#pa3da8e2083)" style="fill: none; stroke-dasharray: 1.85,0.8; stroke-dashoffset: 0; stroke: #000000; stroke-opacity: 0.5; stroke-width: 0.5"/>
     </g>
     <g id="line2d_8">
      <g>
       <use xlink:href="#me81717ab8b" x="188.057948" y="116.206749" style="stroke: #000000; stroke-width: 0.5"/>
      </g>
     </g>
     <g id="line2d_9">
      <g>
       <use xlink:href="#m03558ec576" x="188.057948" y="7.059249" style="stroke: #000000; stroke-width: 0.5"/>
      </g>
     </g>
     <g id="text_3">
      <!-- $\mathdefault{10^{2}}$ -->
      <g transform="translate(181.090994 126.625248) scale(0.1 -0.1)">
       <defs>
        <path id="CMR17-32" d="M 2669 989 
L 2554 989 
C 2490 536 2438 459 2413 420 
C 2381 369 1920 369 1830 369 
L 602 369 
C 832 619 1280 1072 1824 1597 
C 2214 1967 2669 2402 2669 3035 
C 2669 3790 2067 4224 1395 4224 
C 691 4224 262 3604 262 3030 
C 262 2780 448 2748 525 2748 
C 589 2748 781 2787 781 3010 
C 781 3207 614 3264 525 3264 
C 486 3264 448 3258 422 3245 
C 544 3790 915 4058 1306 4058 
C 1862 4058 2227 3617 2227 3035 
C 2227 2479 1901 2000 1536 1584 
L 262 146 
L 262 0 
L 2515 0 
L 2669 989 
z
" transform="scale(0.015625)"/>
       </defs>
       <use xlink:href="#CMR17-31" transform="scale(0.996264)"/>
       <use xlink:href="#CMR17-30" transform="translate(45.690477 0) scale(0.996264)"/>
       <use xlink:href="#CMR17-32" transform="translate(91.380954 36.153639) scale(0.697382)"/>
      </g>
     </g>
    </g>
    <g id="xtick_4">
     <g id="line2d_10">
      <defs>
       <path id="mad78139382" d="M 0 0 
L 0 -1.5 
" style="stroke: #000000; stroke-width: 0.5"/>
      </defs>
      <g>
       <use xlink:href="#mad78139382" x="44.438907" y="116.206749" style="stroke: #000000; stroke-width: 0.5"/>
      </g>
     </g>
     <g id="line2d_11">
      <defs>
       <path id="m178f4162b0" d="M 0 0 
L 0 1.5 
" style="stroke: #000000; stroke-width: 0.5"/>
      </defs>
      <g>
       <use xlink:href="#m178f4162b0" x="44.438907" y="7.059249" style="stroke: #000000; stroke-width: 0.5"/>
      </g>
     </g>
    </g>
    <g id="xtick_5">
     <g id="line2d_12">
      <g>
       <use xlink:href="#mad78139382" x="49.381014" y="116.206749" style="stroke: #000000; stroke-width: 0.5"/>
      </g>
     </g>
     <g id="line2d_13">
      <g>
       <use xlink:href="#m178f4162b0" x="49.381014" y="7.059249" style="stroke: #000000; stroke-width: 0.5"/>
      </g>
     </g>
    </g>
    <g id="xtick_6">
     <g id="line2d_14">
      <g>
       <use xlink:href="#mad78139382" x="53.559505" y="116.206749" style="stroke: #000000; stroke-width: 0.5"/>
      </g>
     </g>
     <g id="line2d_15">
      <g>
       <use xlink:href="#m178f4162b0" x="53.559505" y="7.059249" style="stroke: #000000; stroke-width: 0.5"/>
      </g>
     </g>
    </g>
    <g id="xtick_7">
     <g id="line2d_16">
      <g>
       <use xlink:href="#mad78139382" x="57.179079" y="116.206749" style="stroke: #000000; stroke-width: 0.5"/>
      </g>
     </g>
     <g id="line2d_17">
      <g>
       <use xlink:href="#m178f4162b0" x="57.179079" y="7.059249" style="stroke: #000000; stroke-width: 0.5"/>
      </g>
     </g>
    </g>
    <g id="xtick_8">
     <g id="line2d_18">
      <g>
       <use xlink:href="#mad78139382" x="60.371769" y="116.206749" style="stroke: #000000; stroke-width: 0.5"/>
      </g>
     </g>
     <g id="line2d_19">
      <g>
       <use xlink:href="#m178f4162b0" x="60.371769" y="7.059249" style="stroke: #000000; stroke-width: 0.5"/>
      </g>
     </g>
    </g>
    <g id="xtick_9">
     <g id="line2d_20">
      <g>
       <use xlink:href="#mad78139382" x="82.016548" y="116.206749" style="stroke: #000000; stroke-width: 0.5"/>
      </g>
     </g>
     <g id="line2d_21">
      <g>
       <use xlink:href="#m178f4162b0" x="82.016548" y="7.059249" style="stroke: #000000; stroke-width: 0.5"/>
      </g>
     </g>
    </g>
    <g id="xtick_10">
     <g id="line2d_22">
      <g>
       <use xlink:href="#mad78139382" x="93.007303" y="116.206749" style="stroke: #000000; stroke-width: 0.5"/>
      </g>
     </g>
     <g id="line2d_23">
      <g>
       <use xlink:href="#m178f4162b0" x="93.007303" y="7.059249" style="stroke: #000000; stroke-width: 0.5"/>
      </g>
     </g>
    </g>
    <g id="xtick_11">
     <g id="line2d_24">
      <g>
       <use xlink:href="#mad78139382" x="100.805369" y="116.206749" style="stroke: #000000; stroke-width: 0.5"/>
      </g>
     </g>
     <g id="line2d_25">
      <g>
       <use xlink:href="#m178f4162b0" x="100.805369" y="7.059249" style="stroke: #000000; stroke-width: 0.5"/>
      </g>
     </g>
    </g>
    <g id="xtick_12">
     <g id="line2d_26">
      <g>
       <use xlink:href="#mad78139382" x="106.854018" y="116.206749" style="stroke: #000000; stroke-width: 0.5"/>
      </g>
     </g>
     <g id="line2d_27">
      <g>
       <use xlink:href="#m178f4162b0" x="106.854018" y="7.059249" style="stroke: #000000; stroke-width: 0.5"/>
      </g>
     </g>
    </g>
    <g id="xtick_13">
     <g id="line2d_28">
      <g>
       <use xlink:href="#mad78139382" x="111.796124" y="116.206749" style="stroke: #000000; stroke-width: 0.5"/>
      </g>
     </g>
     <g id="line2d_29">
      <g>
       <use xlink:href="#m178f4162b0" x="111.796124" y="7.059249" style="stroke: #000000; stroke-width: 0.5"/>
      </g>
     </g>
    </g>
    <g id="xtick_14">
     <g id="line2d_30">
      <g>
       <use xlink:href="#mad78139382" x="115.974615" y="116.206749" style="stroke: #000000; stroke-width: 0.5"/>
      </g>
     </g>
     <g id="line2d_31">
      <g>
       <use xlink:href="#m178f4162b0" x="115.974615" y="7.059249" style="stroke: #000000; stroke-width: 0.5"/>
      </g>
     </g>
    </g>
    <g id="xtick_15">
     <g id="line2d_32">
      <g>
       <use xlink:href="#mad78139382" x="119.594189" y="116.206749" style="stroke: #000000; stroke-width: 0.5"/>
      </g>
     </g>
     <g id="line2d_33">
      <g>
       <use xlink:href="#m178f4162b0" x="119.594189" y="7.059249" style="stroke: #000000; stroke-width: 0.5"/>
      </g>
     </g>
    </g>
    <g id="xtick_16">
     <g id="line2d_34">
      <g>
       <use xlink:href="#mad78139382" x="122.786879" y="116.206749" style="stroke: #000000; stroke-width: 0.5"/>
      </g>
     </g>
     <g id="line2d_35">
      <g>
       <use xlink:href="#m178f4162b0" x="122.786879" y="7.059249" style="stroke: #000000; stroke-width: 0.5"/>
      </g>
     </g>
    </g>
    <g id="xtick_17">
     <g id="line2d_36">
      <g>
       <use xlink:href="#mad78139382" x="144.431658" y="116.206749" style="stroke: #000000; stroke-width: 0.5"/>
      </g>
     </g>
     <g id="line2d_37">
      <g>
       <use xlink:href="#m178f4162b0" x="144.431658" y="7.059249" style="stroke: #000000; stroke-width: 0.5"/>
      </g>
     </g>
    </g>
    <g id="xtick_18">
     <g id="line2d_38">
      <g>
       <use xlink:href="#mad78139382" x="155.422414" y="116.206749" style="stroke: #000000; stroke-width: 0.5"/>
      </g>
     </g>
     <g id="line2d_39">
      <g>
       <use xlink:href="#m178f4162b0" x="155.422414" y="7.059249" style="stroke: #000000; stroke-width: 0.5"/>
      </g>
     </g>
    </g>
    <g id="xtick_19">
     <g id="line2d_40">
      <g>
       <use xlink:href="#mad78139382" x="163.220479" y="116.206749" style="stroke: #000000; stroke-width: 0.5"/>
      </g>
     </g>
     <g id="line2d_41">
      <g>
       <use xlink:href="#m178f4162b0" x="163.220479" y="7.059249" style="stroke: #000000; stroke-width: 0.5"/>
      </g>
     </g>
    </g>
    <g id="xtick_20">
     <g id="line2d_42">
      <g>
       <use xlink:href="#mad78139382" x="169.269128" y="116.206749" style="stroke: #000000; stroke-width: 0.5"/>
      </g>
     </g>
     <g id="line2d_43">
      <g>
       <use xlink:href="#m178f4162b0" x="169.269128" y="7.059249" style="stroke: #000000; stroke-width: 0.5"/>
      </g>
     </g>
    </g>
    <g id="xtick_21">
     <g id="line2d_44">
      <g>
       <use xlink:href="#mad78139382" x="174.211234" y="116.206749" style="stroke: #000000; stroke-width: 0.5"/>
      </g>
     </g>
     <g id="line2d_45">
      <g>
       <use xlink:href="#m178f4162b0" x="174.211234" y="7.059249" style="stroke: #000000; stroke-width: 0.5"/>
      </g>
     </g>
    </g>
    <g id="xtick_22">
     <g id="line2d_46">
      <g>
       <use xlink:href="#mad78139382" x="178.389726" y="116.206749" style="stroke: #000000; stroke-width: 0.5"/>
      </g>
     </g>
     <g id="line2d_47">
      <g>
       <use xlink:href="#m178f4162b0" x="178.389726" y="7.059249" style="stroke: #000000; stroke-width: 0.5"/>
      </g>
     </g>
    </g>
    <g id="xtick_23">
     <g id="line2d_48">
      <g>
       <use xlink:href="#mad78139382" x="182.009299" y="116.206749" style="stroke: #000000; stroke-width: 0.5"/>
      </g>
     </g>
     <g id="line2d_49">
      <g>
       <use xlink:href="#m178f4162b0" x="182.009299" y="7.059249" style="stroke: #000000; stroke-width: 0.5"/>
      </g>
     </g>
    </g>
    <g id="xtick_24">
     <g id="line2d_50">
      <g>
       <use xlink:href="#mad78139382" x="185.20199" y="116.206749" style="stroke: #000000; stroke-width: 0.5"/>
      </g>
     </g>
     <g id="line2d_51">
      <g>
       <use xlink:href="#m178f4162b0" x="185.20199" y="7.059249" style="stroke: #000000; stroke-width: 0.5"/>
      </g>
     </g>
    </g>
    <g id="text_4">
     <!-- $x$ -->
     <g transform="translate(111.973489 139.480924) scale(0.1 -0.1)">
      <defs>
       <path id="CMMI12-78" d="M 3034 2606 
C 2829 2567 2752 2414 2752 2293 
C 2752 2139 2874 2088 2963 2088 
C 3155 2088 3290 2254 3290 2427 
C 3290 2695 2982 2816 2714 2816 
C 2323 2816 2106 2433 2048 2312 
C 1901 2816 1504 2816 1389 2816 
C 736 2816 390 1980 390 1839 
C 390 1814 416 1782 461 1782 
C 512 1782 525 1820 538 1846 
C 755 2555 1184 2689 1370 2689 
C 1658 2689 1715 2420 1715 2267 
C 1715 2127 1677 1980 1600 1673 
L 1382 798 
C 1286 415 1101 64 762 64 
C 730 64 570 64 435 147 
C 666 192 717 383 717 460 
C 717 588 621 664 499 664 
C 346 664 179 530 179 326 
C 179 57 480 -64 755 -64 
C 1062 -64 1280 179 1414 441 
C 1517 64 1837 -64 2074 -64 
C 2726 -64 3072 773 3072 913 
C 3072 945 3046 971 3008 971 
C 2950 971 2944 939 2925 888 
C 2752 326 2381 64 2093 64 
C 1869 64 1747 230 1747 492 
C 1747 632 1773 734 1875 1156 
L 2099 2024 
C 2195 2408 2413 2689 2707 2689 
C 2720 2689 2899 2689 3034 2606 
z
" transform="scale(0.015625)"/>
      </defs>
      <use xlink:href="#CMMI12-78" transform="scale(0.996264)"/>
     </g>
    </g>
   </g>
   <g id="matplotlib.axis_2">
    <g id="ytick_1">
     <g id="line2d_52">
      <path d="M 41.582948 116.206749 
L 188.057948 116.206749 
" clip-path="url(#pa3da8e2083)" style="fill: none; stroke-dasharray: 1.85,0.8; stroke-dashoffset: 0; stroke: #000000; stroke-opacity: 0.5; stroke-width: 0.5"/>
     </g>
     <g id="line2d_53">
      <defs>
       <path id="m4d35bcf9be" d="M 0 0 
L 3 0 
" style="stroke: #000000; stroke-width: 0.5"/>
      </defs>
      <g>
       <use xlink:href="#m4d35bcf9be" x="41.582948" y="116.206749" style="stroke: #000000; stroke-width: 0.5"/>
      </g>
     </g>
     <g id="line2d_54">
      <defs>
       <path id="m8b7c155078" d="M 0 0 
L -3 0 
" style="stroke: #000000; stroke-width: 0.5"/>
      </defs>
      <g>
       <use xlink:href="#m8b7c155078" x="188.057948" y="116.206749" style="stroke: #000000; stroke-width: 0.5"/>
      </g>
     </g>
     <g id="text_5">
      <!-- $\mathdefault{10^{-1}}$ -->
      <g transform="translate(17.922375 119.665998) scale(0.1 -0.1)">
       <defs>
        <path id="CMSY10-0" d="M 4218 1472 
C 4326 1472 4442 1472 4442 1600 
C 4442 1728 4326 1728 4218 1728 
L 755 1728 
C 646 1728 531 1728 531 1600 
C 531 1472 646 1472 755 1472 
L 4218 1472 
z
" transform="scale(0.015625)"/>
       </defs>
       <use xlink:href="#CMR17-31" transform="scale(0.996264)"/>
       <use xlink:href="#CMR17-30" transform="translate(45.690477 0) scale(0.996264)"/>
       <use xlink:href="#CMSY10-0" transform="translate(91.380954 36.153639) scale(0.697382)"/>
       <use xlink:href="#CMR17-31" transform="translate(145.621947 36.153639) scale(0.697382)"/>
      </g>
     </g>
    </g>
    <g id="ytick_2">
     <g id="line2d_55">
      <path d="M 41.582948 79.824249 
L 188.057948 79.824249 
" clip-path="url(#pa3da8e2083)" style="fill: none; stroke-dasharray: 1.85,0.8; stroke-dashoffset: 0; stroke: #000000; stroke-opacity: 0.5; stroke-width: 0.5"/>
     </g>
     <g id="line2d_56">
      <g>
       <use xlink:href="#m4d35bcf9be" x="41.582948" y="79.824249" style="stroke: #000000; stroke-width: 0.5"/>
      </g>
     </g>
     <g id="line2d_57">
      <g>
       <use xlink:href="#m8b7c155078" x="188.057948" y="79.824249" style="stroke: #000000; stroke-width: 0.5"/>
      </g>
     </g>
     <g id="text_6">
      <!-- $\mathdefault{10^{0}}$ -->
      <g transform="translate(24.14904 83.283498) scale(0.1 -0.1)">
       <use xlink:href="#CMR17-31" transform="scale(0.996264)"/>
       <use xlink:href="#CMR17-30" transform="translate(45.690477 0) scale(0.996264)"/>
       <use xlink:href="#CMR17-30" transform="translate(91.380954 36.153639) scale(0.697382)"/>
      </g>
     </g>
    </g>
    <g id="ytick_3">
     <g id="line2d_58">
      <path d="M 41.582948 43.441749 
L 188.057948 43.441749 
" clip-path="url(#pa3da8e2083)" style="fill: none; stroke-dasharray: 1.85,0.8; stroke-dashoffset: 0; stroke: #000000; stroke-opacity: 0.5; stroke-width: 0.5"/>
     </g>
     <g id="line2d_59">
      <g>
       <use xlink:href="#m4d35bcf9be" x="41.582948" y="43.441749" style="stroke: #000000; stroke-width: 0.5"/>
      </g>
     </g>
     <g id="line2d_60">
      <g>
       <use xlink:href="#m8b7c155078" x="188.057948" y="43.441749" style="stroke: #000000; stroke-width: 0.5"/>
      </g>
     </g>
     <g id="text_7">
      <!-- $\mathdefault{10^{1}}$ -->
      <g transform="translate(24.14904 46.900998) scale(0.1 -0.1)">
       <use xlink:href="#CMR17-31" transform="scale(0.996264)"/>
       <use xlink:href="#CMR17-30" transform="translate(45.690477 0) scale(0.996264)"/>
       <use xlink:href="#CMR17-31" transform="translate(91.380954 36.153639) scale(0.697382)"/>
      </g>
     </g>
    </g>
    <g id="ytick_4">
     <g id="line2d_61">
      <path d="M 41.582948 7.059249 
L 188.057948 7.059249 
" clip-path="url(#pa3da8e2083)" style="fill: none; stroke-dasharray: 1.85,0.8; stroke-dashoffset: 0; stroke: #000000; stroke-opacity: 0.5; stroke-width: 0.5"/>
     </g>
     <g id="line2d_62">
      <g>
       <use xlink:href="#m4d35bcf9be" x="41.582948" y="7.059249" style="stroke: #000000; stroke-width: 0.5"/>
      </g>
     </g>
     <g id="line2d_63">
      <g>
       <use xlink:href="#m8b7c155078" x="188.057948" y="7.059249" style="stroke: #000000; stroke-width: 0.5"/>
      </g>
     </g>
     <g id="text_8">
      <!-- $\mathdefault{10^{2}}$ -->
      <g transform="translate(24.14904 10.518498) scale(0.1 -0.1)">
       <use xlink:href="#CMR17-31" transform="scale(0.996264)"/>
       <use xlink:href="#CMR17-30" transform="translate(45.690477 0) scale(0.996264)"/>
       <use xlink:href="#CMR17-32" transform="translate(91.380954 36.153639) scale(0.697382)"/>
      </g>
     </g>
    </g>
    <g id="ytick_5">
     <g id="line2d_64">
      <defs>
       <path id="m26d449cef3" d="M 0 0 
L 1.5 0 
" style="stroke: #000000; stroke-width: 0.5"/>
      </defs>
      <g>
       <use xlink:href="#m26d449cef3" x="41.582948" y="105.254525" style="stroke: #000000; stroke-width: 0.5"/>
      </g>
     </g>
     <g id="line2d_65">
      <defs>
       <path id="m9377151647" d="M 0 0 
L -1.5 0 
" style="stroke: #000000; stroke-width: 0.5"/>
      </defs>
      <g>
       <use xlink:href="#m9377151647" x="188.057948" y="105.254525" style="stroke: #000000; stroke-width: 0.5"/>
      </g>
     </g>
    </g>
    <g id="ytick_6">
     <g id="line2d_66">
      <g>
       <use xlink:href="#m26d449cef3" x="41.582948" y="98.847885" style="stroke: #000000; stroke-width: 0.5"/>
      </g>
     </g>
     <g id="line2d_67">
      <g>
       <use xlink:href="#m9377151647" x="188.057948" y="98.847885" style="stroke: #000000; stroke-width: 0.5"/>
      </g>
     </g>
    </g>
    <g id="ytick_7">
     <g id="line2d_68">
      <g>
       <use xlink:href="#m26d449cef3" x="41.582948" y="94.302302" style="stroke: #000000; stroke-width: 0.5"/>
      </g>
     </g>
     <g id="line2d_69">
      <g>
       <use xlink:href="#m9377151647" x="188.057948" y="94.302302" style="stroke: #000000; stroke-width: 0.5"/>
      </g>
     </g>
    </g>
    <g id="ytick_8">
     <g id="line2d_70">
      <g>
       <use xlink:href="#m26d449cef3" x="41.582948" y="90.776473" style="stroke: #000000; stroke-width: 0.5"/>
      </g>
     </g>
     <g id="line2d_71">
      <g>
       <use xlink:href="#m9377151647" x="188.057948" y="90.776473" style="stroke: #000000; stroke-width: 0.5"/>
      </g>
     </g>
    </g>
    <g id="ytick_9">
     <g id="line2d_72">
      <g>
       <use xlink:href="#m26d449cef3" x="41.582948" y="87.895661" style="stroke: #000000; stroke-width: 0.5"/>
      </g>
     </g>
     <g id="line2d_73">
      <g>
       <use xlink:href="#m9377151647" x="188.057948" y="87.895661" style="stroke: #000000; stroke-width: 0.5"/>
      </g>
     </g>
    </g>
    <g id="ytick_10">
     <g id="line2d_74">
      <g>
       <use xlink:href="#m26d449cef3" x="41.582948" y="85.45997" style="stroke: #000000; stroke-width: 0.5"/>
      </g>
     </g>
     <g id="line2d_75">
      <g>
       <use xlink:href="#m9377151647" x="188.057948" y="85.45997" style="stroke: #000000; stroke-width: 0.5"/>
      </g>
     </g>
    </g>
    <g id="ytick_11">
     <g id="line2d_76">
      <g>
       <use xlink:href="#m26d449cef3" x="41.582948" y="83.350078" style="stroke: #000000; stroke-width: 0.5"/>
      </g>
     </g>
     <g id="line2d_77">
      <g>
       <use xlink:href="#m9377151647" x="188.057948" y="83.350078" style="stroke: #000000; stroke-width: 0.5"/>
      </g>
     </g>
    </g>
    <g id="ytick_12">
     <g id="line2d_78">
      <g>
       <use xlink:href="#m26d449cef3" x="41.582948" y="81.489021" style="stroke: #000000; stroke-width: 0.5"/>
      </g>
     </g>
     <g id="line2d_79">
      <g>
       <use xlink:href="#m9377151647" x="188.057948" y="81.489021" style="stroke: #000000; stroke-width: 0.5"/>
      </g>
     </g>
    </g>
    <g id="ytick_13">
     <g id="line2d_80">
      <g>
       <use xlink:href="#m26d449cef3" x="41.582948" y="68.872025" style="stroke: #000000; stroke-width: 0.5"/>
      </g>
     </g>
     <g id="line2d_81">
      <g>
       <use xlink:href="#m9377151647" x="188.057948" y="68.872025" style="stroke: #000000; stroke-width: 0.5"/>
      </g>
     </g>
    </g>
    <g id="ytick_14">
     <g id="line2d_82">
      <g>
       <use xlink:href="#m26d449cef3" x="41.582948" y="62.465385" style="stroke: #000000; stroke-width: 0.5"/>
      </g>
     </g>
     <g id="line2d_83">
      <g>
       <use xlink:href="#m9377151647" x="188.057948" y="62.465385" style="stroke: #000000; stroke-width: 0.5"/>
      </g>
     </g>
    </g>
    <g id="ytick_15">
     <g id="line2d_84">
      <g>
       <use xlink:href="#m26d449cef3" x="41.582948" y="57.919802" style="stroke: #000000; stroke-width: 0.5"/>
      </g>
     </g>
     <g id="line2d_85">
      <g>
       <use xlink:href="#m9377151647" x="188.057948" y="57.919802" style="stroke: #000000; stroke-width: 0.5"/>
      </g>
     </g>
    </g>
    <g id="ytick_16">
     <g id="line2d_86">
      <g>
       <use xlink:href="#m26d449cef3" x="41.582948" y="54.393973" style="stroke: #000000; stroke-width: 0.5"/>
      </g>
     </g>
     <g id="line2d_87">
      <g>
       <use xlink:href="#m9377151647" x="188.057948" y="54.393973" style="stroke: #000000; stroke-width: 0.5"/>
      </g>
     </g>
    </g>
    <g id="ytick_17">
     <g id="line2d_88">
      <g>
       <use xlink:href="#m26d449cef3" x="41.582948" y="51.513161" style="stroke: #000000; stroke-width: 0.5"/>
      </g>
     </g>
     <g id="line2d_89">
      <g>
       <use xlink:href="#m9377151647" x="188.057948" y="51.513161" style="stroke: #000000; stroke-width: 0.5"/>
      </g>
     </g>
    </g>
    <g id="ytick_18">
     <g id="line2d_90">
      <g>
       <use xlink:href="#m26d449cef3" x="41.582948" y="49.07747" style="stroke: #000000; stroke-width: 0.5"/>
      </g>
     </g>
     <g id="line2d_91">
      <g>
       <use xlink:href="#m9377151647" x="188.057948" y="49.07747" style="stroke: #000000; stroke-width: 0.5"/>
      </g>
     </g>
    </g>
    <g id="ytick_19">
     <g id="line2d_92">
      <g>
       <use xlink:href="#m26d449cef3" x="41.582948" y="46.967578" style="stroke: #000000; stroke-width: 0.5"/>
      </g>
     </g>
     <g id="line2d_93">
      <g>
       <use xlink:href="#m9377151647" x="188.057948" y="46.967578" style="stroke: #000000; stroke-width: 0.5"/>
      </g>
     </g>
    </g>
    <g id="ytick_20">
     <g id="line2d_94">
      <g>
       <use xlink:href="#m26d449cef3" x="41.582948" y="45.106521" style="stroke: #000000; stroke-width: 0.5"/>
      </g>
     </g>
     <g id="line2d_95">
      <g>
       <use xlink:href="#m9377151647" x="188.057948" y="45.106521" style="stroke: #000000; stroke-width: 0.5"/>
      </g>
     </g>
    </g>
    <g id="ytick_21">
     <g id="line2d_96">
      <g>
       <use xlink:href="#m26d449cef3" x="41.582948" y="32.489525" style="stroke: #000000; stroke-width: 0.5"/>
      </g>
     </g>
     <g id="line2d_97">
      <g>
       <use xlink:href="#m9377151647" x="188.057948" y="32.489525" style="stroke: #000000; stroke-width: 0.5"/>
      </g>
     </g>
    </g>
    <g id="ytick_22">
     <g id="line2d_98">
      <g>
       <use xlink:href="#m26d449cef3" x="41.582948" y="26.082885" style="stroke: #000000; stroke-width: 0.5"/>
      </g>
     </g>
     <g id="line2d_99">
      <g>
       <use xlink:href="#m9377151647" x="188.057948" y="26.082885" style="stroke: #000000; stroke-width: 0.5"/>
      </g>
     </g>
    </g>
    <g id="ytick_23">
     <g id="line2d_100">
      <g>
       <use xlink:href="#m26d449cef3" x="41.582948" y="21.537302" style="stroke: #000000; stroke-width: 0.5"/>
      </g>
     </g>
     <g id="line2d_101">
      <g>
       <use xlink:href="#m9377151647" x="188.057948" y="21.537302" style="stroke: #000000; stroke-width: 0.5"/>
      </g>
     </g>
    </g>
    <g id="ytick_24">
     <g id="line2d_102">
      <g>
       <use xlink:href="#m26d449cef3" x="41.582948" y="18.011473" style="stroke: #000000; stroke-width: 0.5"/>
      </g>
     </g>
     <g id="line2d_103">
      <g>
       <use xlink:href="#m9377151647" x="188.057948" y="18.011473" style="stroke: #000000; stroke-width: 0.5"/>
      </g>
     </g>
    </g>
    <g id="ytick_25">
     <g id="line2d_104">
      <g>
       <use xlink:href="#m26d449cef3" x="41.582948" y="15.130661" style="stroke: #000000; stroke-width: 0.5"/>
      </g>
     </g>
     <g id="line2d_105">
      <g>
       <use xlink:href="#m9377151647" x="188.057948" y="15.130661" style="stroke: #000000; stroke-width: 0.5"/>
      </g>
     </g>
    </g>
    <g id="ytick_26">
     <g id="line2d_106">
      <g>
       <use xlink:href="#m26d449cef3" x="41.582948" y="12.69497" style="stroke: #000000; stroke-width: 0.5"/>
      </g>
     </g>
     <g id="line2d_107">
      <g>
       <use xlink:href="#m9377151647" x="188.057948" y="12.69497" style="stroke: #000000; stroke-width: 0.5"/>
      </g>
     </g>
    </g>
    <g id="ytick_27">
     <g id="line2d_108">
      <g>
       <use xlink:href="#m26d449cef3" x="41.582948" y="10.585078" style="stroke: #000000; stroke-width: 0.5"/>
      </g>
     </g>
     <g id="line2d_109">
      <g>
       <use xlink:href="#m9377151647" x="188.057948" y="10.585078" style="stroke: #000000; stroke-width: 0.5"/>
      </g>
     </g>
    </g>
    <g id="ytick_28">
     <g id="line2d_110">
      <g>
       <use xlink:href="#m26d449cef3" x="41.582948" y="8.724021" style="stroke: #000000; stroke-width: 0.5"/>
      </g>
     </g>
     <g id="line2d_111">
      <g>
       <use xlink:href="#m9377151647" x="188.057948" y="8.724021" style="stroke: #000000; stroke-width: 0.5"/>
      </g>
     </g>
    </g>
    <g id="text_9">
     <!-- $\mathcal{P}(Q_\textrm{joint} \ge x)~[\%]$ -->
     <g transform="translate(11.07198 99.634263) rotate(-90) scale(0.1 -0.1)">
      <defs>
       <path id="CMSY10-50" d="M 2227 4416 
C 1325 4416 640 3979 378 3677 
C 154 3420 134 3234 134 3221 
C 134 3182 160 3170 198 3170 
C 301 3170 448 3262 499 3294 
C 634 3387 653 3426 691 3551 
C 781 3815 960 4045 1766 4045 
C 1651 2607 1267 1208 730 -128 
C 691 -224 691 -237 691 -243 
C 691 -262 710 -288 755 -288 
C 858 -288 1165 -147 1235 20 
C 1568 803 2093 2280 2285 4064 
L 2618 4064 
C 3398 4064 4147 3758 4147 3108 
C 4147 2620 3686 1709 2445 1709 
C 2310 1709 2240 1709 2061 1587 
C 1946 1506 1894 1432 1894 1391 
C 1894 1344 1933 1344 2016 1344 
C 3181 1344 4691 2334 4691 3395 
C 4691 4127 3827 4416 3085 4416 
L 2227 4416 
z
" transform="scale(0.015625)"/>
       <path id="CMR17-28" d="M 1958 -1561 
C 1958 -1555 1958 -1542 1939 -1523 
C 1645 -1224 858 -407 858 1581 
C 858 3569 1632 4379 1946 4697 
C 1946 4704 1958 4717 1958 4736 
C 1958 4755 1939 4768 1914 4768 
C 1843 4768 1299 4296 986 3594 
C 666 2887 576 2199 576 1588 
C 576 1128 621 351 1005 -471 
C 1312 -1135 1837 -1600 1914 -1600 
C 1946 -1600 1958 -1587 1958 -1561 
z
" transform="scale(0.015625)"/>
       <path id="CMMI12-51" d="M 2726 45 
C 3827 490 4646 1663 4646 2829 
C 4646 3893 3955 4544 3059 4544 
C 1690 4544 307 3062 307 1573 
C 307 561 973 -128 1901 -128 
C 2118 -128 2330 -96 2534 -33 
C 2496 -411 2496 -442 2496 -562 
C 2496 -744 2496 -1216 3008 -1216 
C 3770 -1216 4051 -37 4051 2 
C 4051 39 4026 64 3994 64 
C 3955 64 3942 34 3923 -36 
C 3782 -429 3450 -654 3168 -654 
C 2842 -654 2758 -435 2726 45 
z
M 1574 77 
C 1069 252 826 787 826 1379 
C 826 1831 992 2689 1414 3340 
C 1888 4075 2522 4404 3021 4404 
C 3686 4404 4134 3862 4134 3024 
C 4134 2547 3910 948 2707 240 
C 2675 571 2586 960 2163 960 
C 1818 960 1523 609 1523 291 
C 1523 220 1549 123 1574 77 
z
M 2547 156 
C 2317 52 2118 12 1939 12 
C 1875 12 1651 12 1651 298 
C 1651 533 1875 832 2163 832 
C 2483 832 2554 611 2554 286 
C 2554 246 2554 194 2547 156 
z
" transform="scale(0.015625)"/>
       <path id="CMR17-6a" d="M 1165 3963 
C 1165 4103 1050 4224 902 4224 
C 762 4224 640 4110 640 3963 
C 640 3823 755 3702 902 3702 
C 1043 3702 1165 3817 1165 3963 
z
M 365 2754 
L 365 2588 
C 787 2588 838 2543 838 2235 
L 838 -359 
C 838 -678 781 -1178 403 -1178 
C 358 -1178 186 -1178 45 -1082 
C 90 -1075 250 -1031 250 -851 
C 250 -729 166 -621 19 -621 
C -122 -621 -211 -717 -211 -858 
C -211 -1114 70 -1280 397 -1280 
C 838 -1280 1165 -877 1165 -332 
L 1165 2825 
L 365 2754 
z
" transform="scale(0.015625)"/>
       <path id="CMR17-6f" d="M 2758 1356 
C 2758 2176 2163 2816 1466 2816 
C 768 2816 173 2176 173 1356 
C 173 551 768 -64 1466 -64 
C 2163 -64 2758 551 2758 1356 
z
M 1466 51 
C 1165 51 909 230 762 480 
C 602 767 582 1126 582 1408 
C 582 1677 595 2010 762 2298 
C 890 2509 1139 2714 1466 2714 
C 1754 2714 1997 2554 2150 2330 
C 2349 2029 2349 1607 2349 1408 
C 2349 1158 2336 775 2163 467 
C 1984 173 1709 51 1466 51 
z
" transform="scale(0.015625)"/>
       <path id="CMR17-69" d="M 992 3909 
C 992 4049 877 4170 730 4170 
C 589 4170 467 4056 467 3909 
C 467 3769 582 3648 730 3648 
C 870 3648 992 3763 992 3909 
z
M 243 2706 
L 243 2541 
C 602 2541 653 2502 653 2197 
L 653 427 
C 653 184 627 153 218 153 
L 218 -13 
C 371 0 646 0 806 0 
C 960 0 1222 0 1370 -13 
L 1370 153 
C 992 153 979 191 979 420 
L 979 2776 
L 243 2706 
z
" transform="scale(0.015625)"/>
       <path id="CMR17-6e" d="M 2656 1933 
C 2656 2259 2592 2790 1837 2790 
C 1331 2790 1069 2400 973 2144 
L 966 2144 
L 966 2790 
L 211 2720 
L 211 2554 
C 589 2554 646 2515 646 2208 
L 646 428 
C 646 184 621 153 211 153 
L 211 -13 
C 365 0 646 0 813 0 
C 979 0 1267 0 1421 -13 
L 1421 153 
C 1011 153 986 178 986 428 
L 986 1658 
C 986 2247 1344 2688 1792 2688 
C 2266 2688 2317 2266 2317 1958 
L 2317 428 
C 2317 184 2291 153 1882 153 
L 1882 -13 
C 2035 0 2317 0 2483 0 
C 2650 0 2938 0 3091 -13 
L 3091 153 
C 2682 153 2656 178 2656 428 
L 2656 1933 
z
" transform="scale(0.015625)"/>
       <path id="CMR17-74" d="M 966 2560 
L 1862 2560 
L 1862 2725 
L 966 2725 
L 966 3904 
L 851 3904 
C 838 3245 614 2668 70 2668 
L 70 2560 
L 627 2560 
L 627 771 
C 627 650 627 -64 1370 -64 
C 1747 -64 1965 306 1965 777 
L 1965 1140 
L 1850 1140 
L 1850 783 
C 1850 344 1677 51 1408 51 
C 1222 51 966 178 966 758 
L 966 2560 
z
" transform="scale(0.015625)"/>
       <path id="CMSY10-15" d="M 4314 2084 
C 4403 2122 4442 2167 4442 2224 
C 4442 2288 4416 2327 4314 2372 
L 787 4036 
C 698 4080 672 4080 659 4080 
C 582 4080 531 4023 531 3952 
C 531 3876 582 3844 653 3812 
L 4013 2231 
L 666 650 
C 538 592 531 541 531 503 
C 531 432 589 375 659 375 
C 678 375 691 375 774 420 
L 4314 2084 
z
M 4218 -891 
C 4326 -891 4442 -891 4442 -763 
C 4442 -635 4307 -635 4211 -635 
L 762 -635 
C 666 -635 531 -635 531 -763 
C 531 -891 646 -891 755 -891 
L 4218 -891 
z
" transform="scale(0.015625)"/>
       <path id="CMR17-29" d="M 1683 1581 
C 1683 2040 1638 2817 1254 3639 
C 947 4303 422 4768 346 4768 
C 326 4768 301 4761 301 4729 
C 301 4717 307 4710 314 4697 
C 621 4378 1402 3568 1402 1584 
C 1402 -407 627 -1217 314 -1537 
C 307 -1549 301 -1556 301 -1568 
C 301 -1600 326 -1600 346 -1600 
C 416 -1600 960 -1128 1274 -426 
C 1594 281 1683 969 1683 1581 
z
" transform="scale(0.015625)"/>
       <path id="CMR17-5b" d="M 1504 -1600 
L 1504 -1377 
L 902 -1377 
L 902 4544 
L 1504 4544 
L 1504 4767 
L 678 4767 
L 678 -1600 
L 1504 -1600 
z
" transform="scale(0.015625)"/>
       <path id="CMR17-25" d="M 4640 959 
C 4640 1698 4275 2240 3846 2240 
C 3411 2240 2970 1736 2970 959 
C 2970 183 3405 -320 3846 -320 
C 4275 -320 4640 215 4640 959 
z
M 3853 -218 
C 3686 -218 3270 -66 3270 959 
C 3270 1991 3686 2138 3853 2138 
C 4205 2138 4525 1634 4525 959 
C 4525 285 4205 -218 3853 -218 
z
M 4083 4577 
C 4128 4647 4134 4653 4134 4685 
C 4134 4761 4077 4800 4026 4800 
C 3962 4800 3936 4756 3891 4706 
C 3520 4190 3008 4134 2746 4134 
C 2106 4134 1715 4494 1594 4607 
C 1510 4682 1389 4800 1171 4800 
C 736 4800 294 4296 294 3519 
C 294 2743 730 2240 1171 2240 
C 1600 2240 1965 2778 1965 3527 
C 1965 3969 1830 4270 1811 4308 
C 2202 4064 2586 4032 2752 4032 
C 3162 4032 3456 4183 3616 4289 
L 3622 4283 
L 858 -84 
C 800 -174 800 -187 800 -206 
C 800 -276 858 -320 915 -320 
C 973 -320 992 -289 1037 -218 
L 4083 4577 
z
M 1178 2342 
C 1011 2342 595 2494 595 3519 
C 595 4551 1011 4698 1178 4698 
C 1530 4698 1850 4194 1850 3519 
C 1850 2845 1530 2342 1178 2342 
z
" transform="scale(0.015625)"/>
       <path id="CMR17-5d" d="M 915 4767 
L 90 4767 
L 90 4544 
L 691 4544 
L 691 -1377 
L 90 -1377 
L 90 -1600 
L 915 -1600 
L 915 4767 
z
" transform="scale(0.015625)"/>
      </defs>
      <use xlink:href="#CMSY10-50" transform="scale(0.996264)"/>
      <use xlink:href="#CMR17-28" transform="translate(77.487559 0) scale(0.996264)"/>
      <use xlink:href="#CMMI12-51" transform="translate(112.768327 0) scale(0.996264)"/>
      <use xlink:href="#CMR17-6a" transform="translate(190.028725 -14.943915) scale(0.697382)"/>
      <use xlink:href="#CMR17-6f" transform="translate(209.26009 -14.943915) scale(0.697382)"/>
      <use xlink:href="#CMR17-69" transform="translate(241.243272 -14.943915) scale(0.697382)"/>
      <use xlink:href="#CMR17-6e" transform="translate(258.652931 -14.943915) scale(0.697382)"/>
      <use xlink:href="#CMR17-74" transform="translate(292.457818 -14.943915) scale(0.697382)"/>
      <use xlink:href="#CMSY10-15" transform="translate(345.326379 0) scale(0.996264)"/>
      <use xlink:href="#CMMI12-78" transform="translate(450.487856 0) scale(0.996264)"/>
      <use xlink:href="#CMR17-29" transform="translate(505.921915 0) scale(0.996264)"/>
      <use xlink:href="#CMR17-5b" transform="translate(571.278649 0) scale(0.996264)"/>
      <use xlink:href="#CMR17-25" transform="translate(596.149708 0) scale(0.996264)"/>
      <use xlink:href="#CMR17-5d" transform="translate(673.069298 0) scale(0.996264)"/>
     </g>
    </g>
   </g>
   <g id="line2d_112">
    <path d="M 41.582691 19.060005 
L 42.208236 19.17546 
L 42.317778 19.195815 
L 42.883888 19.3081 
L 43.491495 19.435036 
L 43.601739 19.458325 
L 44.161882 19.57363 
L 44.272856 19.597238 
L 44.80474 19.715821 
L 44.915626 19.740808 
L 45.482999 19.858287 
L 45.593227 19.881097 
L 46.137203 19.995929 
L 46.247972 20.022115 
L 46.781463 20.142434 
L 46.891462 20.166075 
L 47.34792 20.279811 
L 47.458938 20.303291 
L 47.925464 20.420145 
L 48.035442 20.447178 
L 48.507897 20.560478 
L 48.618406 20.589111 
L 49.083514 20.703399 
L 49.194148 20.731822 
L 49.636519 20.848653 
L 49.746941 20.876659 
L 50.16479 20.989769 
L 50.275393 21.020393 
L 50.72239 21.137972 
L 50.833278 21.16995 
L 51.273823 21.289287 
L 51.384896 21.317536 
L 51.773525 21.442271 
L 51.884559 21.47699 
L 52.314699 21.602939 
L 52.425732 21.633141 
L 52.774956 21.749228 
L 52.885257 21.780148 
L 53.251224 21.893959 
L 53.362112 21.928078 
L 53.708426 22.042601 
L 53.818575 22.08203 
L 54.183133 22.196267 
L 54.294217 22.238554 
L 54.764744 22.407142 
L 54.875593 22.444607 
L 55.211468 22.560001 
L 55.322548 22.606248 
L 55.666358 22.728689 
L 55.776423 22.768802 
L 56.072745 22.881802 
L 56.183238 22.927236 
L 56.470068 23.041747 
L 56.581057 23.088101 
L 56.867893 23.208691 
L 56.978739 23.261346 
L 57.187718 23.375073 
L 57.298483 23.437984 
L 57.454692 23.550462 
L 57.565789 23.65054 
L 57.646187 23.763025 
L 57.75679 24.206127 
L 57.914701 24.319622 
L 58.025362 24.385701 
L 58.228216 24.498701 
L 58.339089 24.564474 
L 58.547904 24.67689 
L 58.658993 24.7359 
L 58.90548 24.859991 
L 59.016151 24.912194 
L 59.247 25.027399 
L 59.358068 25.086409 
L 59.586754 25.1991 
L 59.697723 25.257385 
L 59.917417 25.370037 
L 60.028526 25.429243 
L 60.271895 25.544969 
L 60.382993 25.601642 
L 60.628707 25.731151 
L 60.739798 25.789539 
L 61.155277 26.005565 
L 61.266248 26.062083 
L 61.481722 26.176412 
L 61.592762 26.23584 
L 61.821928 26.359152 
L 61.932615 26.416539 
L 62.155059 26.529233 
L 62.266092 26.591847 
L 62.484567 26.711106 
L 62.594619 26.774313 
L 62.809137 26.886882 
L 62.920047 26.942959 
L 63.138559 27.058242 
L 63.249556 27.121995 
L 63.456439 27.238722 
L 63.567264 27.305136 
L 63.776222 27.419081 
L 63.887124 27.482093 
L 64.097407 27.596788 
L 64.207672 27.664962 
L 64.416047 27.777249 
L 64.527039 27.840368 
L 64.729675 27.959149 
L 65.005365 28.105432 
L 65.11631 28.167927 
L 65.33148 28.285813 
L 65.442588 28.34252 
L 65.660592 28.461004 
L 65.771652 28.529982 
L 65.996572 28.654621 
L 66.10739 28.720059 
L 66.320393 28.838107 
L 66.431419 28.905644 
L 66.627783 29.021306 
L 66.738675 29.083763 
L 66.937991 29.204984 
L 67.048428 29.269524 
L 67.250788 29.383611 
L 67.36181 29.447796 
L 67.556599 29.563499 
L 67.667265 29.629936 
L 67.861667 29.745473 
L 67.972515 29.810677 
L 68.167616 29.926993 
L 68.27858 29.997768 
L 68.475431 30.117105 
L 68.586065 30.190102 
L 68.786146 30.306286 
L 68.896939 30.373419 
L 69.081621 30.488565 
L 69.192668 30.559072 
L 69.409167 30.69016 
L 69.520175 30.753638 
L 69.714422 30.870995 
L 69.825235 30.945213 
L 70.012998 31.063424 
L 70.123998 31.14218 
L 70.331049 31.274677 
L 70.441574 31.342774 
L 70.612621 31.457666 
L 70.723458 31.532494 
L 70.884907 31.646046 
L 70.995423 31.725734 
L 71.155711 31.840046 
L 71.266392 31.919246 
L 71.420085 32.03556 
L 71.530714 32.130362 
L 71.677716 32.243996 
L 71.788744 32.338325 
L 71.931764 32.465441 
L 72.042279 32.571846 
L 72.157792 32.686066 
L 72.268442 32.819617 
L 72.350977 32.932831 
L 72.461924 33.095547 
L 72.510542 33.207779 
L 72.621652 33.855476 
L 73.100107 34.184959 
L 73.210345 34.262658 
L 73.372253 34.376776 
L 73.483205 34.449818 
L 73.653407 34.563303 
L 73.764209 34.636776 
L 73.938533 34.753731 
L 74.048003 34.820803 
L 74.22866 34.93361 
L 74.338309 35.020921 
L 74.508148 35.133872 
L 74.618194 35.200916 
L 74.797946 35.314347 
L 74.909009 35.386793 
L 75.125587 35.53605 
L 75.23669 35.619713 
L 75.401234 35.737356 
L 75.512037 35.81944 
L 75.66592 35.934305 
L 75.776914 36.023795 
L 75.927 36.138737 
L 76.038077 36.228043 
L 76.30256 36.428322 
L 76.413515 36.526768 
L 76.526113 36.644012 
L 76.637156 36.731103 
L 76.815254 36.853805 
L 76.926307 36.933366 
L 77.089627 37.050319 
L 77.198993 37.119303 
L 77.371273 37.232118 
L 77.481902 37.30067 
L 77.649183 37.41638 
L 77.760078 37.489869 
L 77.92863 37.613057 
L 78.039022 37.698074 
L 78.210707 37.813552 
L 78.321719 37.892638 
L 78.499703 38.008602 
L 78.610584 38.081365 
L 78.795995 38.200123 
L 78.905984 38.277312 
L 79.109015 38.39154 
L 79.218814 38.471882 
L 79.382202 38.585609 
L 79.493242 38.673165 
L 79.651069 38.791844 
L 79.761901 38.874109 
L 79.916866 38.98667 
L 80.027506 39.066602 
L 80.206074 39.18259 
L 80.316459 39.269906 
L 80.495262 39.383878 
L 80.606286 39.457208 
L 80.782016 39.579378 
L 80.891996 39.673864 
L 81.0592 39.787891 
L 81.169324 39.868104 
L 81.309959 39.98132 
L 81.419031 40.049281 
L 81.578738 40.162281 
L 81.689789 40.244942 
L 81.85072 40.35938 
L 81.960622 40.447035 
L 82.110874 40.561386 
L 82.221979 40.64059 
L 82.388628 40.753909 
L 82.498555 40.834546 
L 82.688254 40.947203 
L 82.799296 41.021617 
L 82.965005 41.137217 
L 83.074958 41.215743 
L 83.215979 41.329795 
L 83.326894 41.408699 
L 83.553192 41.546463 
L 83.663586 41.627226 
L 83.840782 41.743869 
L 83.951288 41.810328 
L 84.112418 41.924428 
L 84.223496 42.009537 
L 84.398375 42.125706 
L 84.508167 42.197709 
L 84.637039 42.311152 
L 84.747463 42.398703 
L 84.896324 42.516007 
L 85.007433 42.597183 
L 85.920446 43.264193 
L 86.030789 43.347352 
L 86.179317 43.464316 
L 86.290406 43.539432 
L 86.45609 43.653603 
L 86.565902 43.736115 
L 86.736459 43.850937 
L 86.845028 43.936034 
L 87.010805 44.048846 
L 87.120891 44.143676 
L 87.302536 44.260032 
L 87.413626 44.337452 
L 87.563243 44.452669 
L 87.673772 44.534693 
L 87.840984 44.653873 
L 87.951942 44.736468 
L 88.117066 44.849069 
L 88.228166 44.925553 
L 88.4126 45.043709 
L 88.522573 45.146814 
L 88.681844 45.261174 
L 88.792316 45.344606 
L 88.956344 45.461171 
L 89.066992 45.543667 
L 89.245819 45.660506 
L 89.356284 45.747221 
L 89.515685 45.860902 
L 89.626688 45.950707 
L 89.780522 46.063459 
L 89.891547 46.14796 
L 90.121624 46.313284 
L 90.232654 46.409971 
L 90.449516 46.560834 
L 90.560289 46.625309 
L 90.729685 46.745315 
L 90.84039 46.817372 
L 91.003521 46.933803 
L 91.114415 47.034935 
L 91.251605 47.14928 
L 91.361867 47.24617 
L 91.530434 47.364796 
L 91.640472 47.433875 
L 91.77336 47.54909 
L 91.884371 47.644646 
L 92.032545 47.768827 
L 92.142966 47.852791 
L 92.315618 47.967591 
L 92.425946 48.080198 
L 92.567056 48.194301 
L 92.677932 48.296408 
L 92.833129 48.411653 
L 92.942071 48.503282 
L 93.120245 48.615675 
L 93.230023 48.713745 
L 93.365598 48.827068 
L 93.475845 48.912091 
L 93.643769 49.027123 
L 93.754499 49.10042 
L 93.905328 49.216148 
L 94.015882 49.305927 
L 94.164607 49.422059 
L 94.27442 49.511616 
L 94.437694 49.624328 
L 94.548292 49.720872 
L 94.713989 49.841109 
L 94.824875 49.926307 
L 95.00123 50.051028 
L 95.111178 50.15183 
L 95.274012 50.266423 
L 95.383869 50.346997 
L 95.523298 50.45994 
L 95.632252 50.536268 
L 95.766101 50.650074 
L 95.876727 50.733038 
L 96.020984 50.852247 
L 96.129898 50.920216 
L 96.269294 51.034256 
L 96.380086 51.120822 
L 96.526542 51.242221 
L 96.63733 51.324584 
L 96.779598 51.437521 
L 96.890643 51.531114 
L 97.169442 51.720893 
L 97.280522 51.808014 
L 97.408829 51.921913 
L 97.519772 52.004017 
L 97.676241 52.119177 
L 97.785614 52.214133 
L 97.917367 52.329107 
L 98.026147 52.423425 
L 98.133342 52.536028 
L 98.244215 52.617352 
L 98.40273 52.732384 
L 98.544901 52.847912 
L 98.654447 52.926913 
L 98.79932 53.042357 
L 98.909782 53.125513 
L 99.067305 53.249118 
L 99.172433 53.324795 
L 99.325106 53.437376 
L 99.434117 53.547746 
L 99.593238 53.662419 
L 99.702935 53.731062 
L 99.867784 53.845356 
L 99.977336 53.9276 
L 100.101171 54.040463 
L 100.210151 54.145543 
L 100.39554 54.261368 
L 100.506195 54.341621 
L 100.664197 54.464914 
L 100.772012 54.555347 
L 100.909963 54.668975 
L 101.019573 54.753351 
L 101.174606 54.868352 
L 101.285596 54.983998 
L 101.398811 55.098231 
L 101.508862 55.209874 
L 101.654279 55.324406 
L 101.760914 55.404077 
L 101.928573 55.516884 
L 102.038358 55.579668 
L 102.193116 55.697753 
L 102.303185 55.803069 
L 102.450756 55.918631 
L 102.561502 56.009971 
L 102.748172 56.147907 
L 102.855375 56.231494 
L 103.018958 56.344621 
L 103.128007 56.436217 
L 103.240561 56.54951 
L 103.351414 56.655458 
L 103.503187 56.77545 
L 103.61376 56.858039 
L 103.772054 56.976659 
L 103.882111 57.094513 
L 104.000979 57.214396 
L 104.109174 57.290514 
L 104.258763 57.404111 
L 104.368195 57.520782 
L 104.53332 57.638869 
L 104.643546 57.743978 
L 104.755263 57.858594 
L 104.865641 57.942911 
L 104.988183 58.056092 
L 105.099079 58.148582 
L 105.238756 58.262438 
L 105.348552 58.334956 
L 105.499848 58.44918 
L 105.61087 58.555029 
L 105.837019 58.755859 
L 105.9474 58.838869 
L 106.090529 58.955702 
L 106.19888 59.031909 
L 106.36638 59.145535 
L 106.477035 59.236595 
L 106.604516 59.349616 
L 106.71381 59.446775 
L 106.85654 59.560784 
L 106.954605 59.652677 
L 107.126008 59.764786 
L 107.232509 59.836103 
L 107.397268 59.949797 
L 107.504284 60.040434 
L 107.623412 60.154146 
L 107.733552 60.236649 
L 107.842328 60.350208 
L 107.952107 60.450842 
L 108.082206 60.569628 
L 108.191477 60.678121 
L 108.379913 60.795864 
L 108.48831 60.889484 
L 108.623603 61.003784 
L 108.72639 61.060906 
L 108.883827 61.173717 
L 108.994524 61.26085 
L 109.152461 61.37659 
L 109.259603 61.46874 
L 109.390347 61.5816 
L 109.499134 61.665666 
L 109.645127 61.782184 
L 109.752124 61.868554 
L 109.894001 61.982566 
L 110.002511 62.087761 
L 110.16318 62.202118 
L 110.274112 62.3151 
L 110.529309 62.46432 
L 110.636397 62.543623 
L 110.772026 62.656395 
L 110.881933 62.718101 
L 111.061888 62.838544 
L 111.171536 62.907299 
L 111.377651 63.022376 
L 111.486374 63.155149 
L 111.620339 63.270712 
L 111.727014 63.346654 
L 111.881018 63.460012 
L 111.990363 63.548353 
L 112.149779 63.661798 
L 112.259226 63.754503 
L 112.407515 63.87072 
L 112.518295 64.001016 
L 112.660165 64.122251 
L 112.768554 64.167127 
L 112.921931 64.280473 
L 113.032223 64.394519 
L 113.221262 64.509393 
L 113.329903 64.598713 
L 113.488435 64.712761 
L 113.595424 64.812356 
L 113.731562 64.926969 
L 113.835127 64.98104 
L 113.964598 65.093377 
L 114.073074 65.170688 
L 114.228095 65.287687 
L 114.336757 65.358686 
L 114.474289 65.471309 
L 114.573888 65.577111 
L 114.715474 65.689354 
L 114.822448 65.783918 
L 114.99965 65.899624 
L 115.108776 66.002364 
L 115.27388 66.120089 
L 115.381805 66.215658 
L 115.564757 66.329022 
L 115.675693 66.429551 
L 115.819007 66.542403 
L 115.923503 66.653437 
L 116.076316 66.766511 
L 116.183482 66.850099 
L 116.412547 66.963606 
L 116.523319 67.057331 
L 116.671533 67.179067 
L 116.781817 67.302613 
L 116.947217 67.421609 
L 117.052459 67.484071 
L 117.214949 67.59754 
L 117.32478 67.672952 
L 117.520052 67.786303 
L 117.627076 67.87204 
L 117.839575 67.988039 
L 117.943869 68.079576 
L 118.145006 68.193452 
L 118.252245 68.262571 
L 118.367154 68.375154 
L 118.46533 68.424004 
L 118.650527 68.536968 
L 118.746322 68.601346 
L 118.87996 68.713696 
L 118.988976 68.797971 
L 119.118129 68.910296 
L 119.222775 68.98215 
L 119.429865 69.096605 
L 119.539768 69.174508 
L 119.718305 69.30395 
L 119.828196 69.411371 
L 119.996155 69.536796 
L 120.103423 69.62726 
L 120.249638 69.74078 
L 120.356829 69.82447 
L 120.513204 69.939591 
L 120.624294 70.004311 
L 120.938852 70.258221 
L 121.041263 70.348727 
L 121.186325 70.461932 
L 121.296935 70.539626 
L 121.41021 70.654034 
L 121.503917 70.738057 
L 121.660015 70.850486 
L 121.768766 70.928667 
L 121.895133 71.042831 
L 121.995572 71.110039 
L 122.182991 71.224047 
L 122.291703 71.332369 
L 122.398491 71.447623 
L 122.508219 71.535986 
L 122.646416 71.651411 
L 122.752137 71.717449 
L 122.941899 71.833444 
L 123.049863 71.896006 
L 123.278421 72.020515 
L 123.384988 72.097296 
L 123.542718 72.211401 
L 123.649128 72.293469 
L 123.777442 72.408606 
L 123.886635 72.506134 
L 124.063631 72.622635 
L 124.162908 72.708497 
L 124.260453 72.820165 
L 124.368578 72.929332 
L 124.54219 73.045274 
L 124.645931 73.103253 
L 124.760453 73.216078 
L 124.869707 73.302283 
L 124.992945 73.418455 
L 125.099037 73.546618 
L 125.199552 73.659647 
L 125.289803 73.72231 
L 125.46187 73.835081 
L 125.567819 73.899978 
L 125.669708 74.013366 
L 125.726923 74.069703 
L 125.969301 74.181423 
L 126.080105 74.272402 
L 126.365662 74.472059 
L 126.457766 74.50342 
L 126.643275 74.616427 
L 126.733842 74.654047 
L 126.910485 74.766521 
L 127.016188 74.871184 
L 127.155104 74.984517 
L 127.253216 75.053615 
L 127.519572 75.165896 
L 127.629358 75.262026 
L 127.805141 75.405641 
L 127.899894 75.523857 
L 128.038902 75.636854 
L 128.145877 75.701017 
L 128.362834 75.815787 
L 128.472248 75.931396 
L 128.761167 76.044347 
L 128.852572 76.118502 
L 129.031798 76.230772 
L 129.136161 76.285171 
L 129.42496 76.401457 
L 129.503007 76.476539 
L 129.703139 76.588795 
L 129.779504 76.645224 
L 129.979312 76.757116 
L 130.08821 76.815994 
L 130.281109 76.929371 
L 130.368884 76.955385 
L 130.541434 77.067362 
L 130.650939 77.146759 
L 130.773852 77.267149 
L 130.873645 77.330954 
L 131.038751 77.443716 
L 131.148366 77.526409 
L 131.395287 77.642522 
L 131.501553 77.73324 
L 131.82264 77.859889 
L 131.923433 77.960924 
L 132.156185 78.076294 
L 132.267269 78.200558 
L 132.498722 78.387353 
L 132.698122 78.499151 
L 132.783198 78.550498 
L 132.94619 78.663165 
L 133.051633 78.762933 
L 133.26007 78.875331 
L 133.34229 78.986418 
L 133.548237 79.098901 
L 133.639753 79.130577 
L 133.89075 79.242866 
L 133.995583 79.273293 
L 134.15137 79.386915 
L 134.232073 79.426317 
L 134.462789 79.538858 
L 134.566539 79.572997 
L 134.689231 79.686907 
L 134.785276 79.749878 
L 134.952647 79.862839 
L 135.057615 79.947692 
L 135.255641 80.06467 
L 135.355367 80.099965 
L 135.529566 80.215466 
L 135.636585 80.30224 
L 135.811724 80.426183 
L 135.904105 80.516121 
L 136.07841 80.629688 
L 136.173857 80.724167 
L 136.382949 80.836867 
L 136.487152 80.871208 
L 136.668614 80.987709 
L 136.776427 81.074013 
L 136.950533 81.187856 
L 137.054744 81.234808 
L 137.266088 81.351223 
L 137.344118 81.452249 
L 137.620814 81.566014 
L 137.705598 81.649823 
L 138.003318 81.762143 
L 138.104109 81.872729 
L 138.36235 81.98519 
L 138.449417 82.019927 
L 138.627307 82.132339 
L 138.713156 82.179599 
L 139.006993 82.293156 
L 139.117814 82.363704 
L 139.262755 82.508395 
L 139.356681 82.563235 
L 139.683465 82.677303 
L 139.792907 82.764933 
L 140.083034 82.890913 
L 140.179974 82.932743 
L 140.461516 83.047567 
L 140.559998 83.101961 
L 140.862511 83.216841 
L 140.945128 83.297996 
L 141.158181 83.409918 
L 141.254624 83.447536 
L 141.526108 83.561737 
L 141.612689 83.6232 
L 141.912186 83.736234 
L 141.974625 83.762371 
L 142.191603 83.874351 
L 142.258481 83.927541 
L 142.587415 84.041118 
L 142.690836 84.082773 
L 143.005389 84.20546 
L 143.101897 84.22607 
L 143.330206 84.341397 
L 143.438973 84.409807 
L 143.869072 84.526058 
L 143.967916 84.555255 
L 144.220542 84.670854 
L 144.318021 84.71681 
L 144.566964 84.831852 
L 144.646671 84.892761 
L 145.130427 85.005558 
L 145.235524 85.098246 
L 145.652866 85.22911 
L 145.753088 85.292474 
L 145.943518 85.409079 
L 146.032955 85.487296 
L 146.303097 85.599841 
L 146.382441 85.65826 
L 146.716333 85.77157 
L 146.81609 85.801304 
L 147.215133 85.914712 
L 147.309032 85.961619 
L 147.536235 86.077607 
L 147.625768 86.092758 
L 147.984382 86.20733 
L 148.076306 86.269479 
L 148.539195 86.39162 
L 148.617994 86.418192 
L 148.99319 86.532235 
L 149.082811 86.569782 
L 149.350176 86.683453 
L 149.394779 86.706582 
L 149.720204 86.818765 
L 149.814356 86.845569 
L 150.131998 86.962751 
L 150.232357 87.000834 
L 150.534448 87.116145 
L 150.614107 87.14194 
L 150.956127 87.255739 
L 151.033675 87.329843 
L 151.36069 87.443976 
L 151.453371 87.504461 
L 151.826239 87.621955 
L 151.85807 87.649113 
L 152.309955 87.761372 
L 152.347817 87.795101 
L 152.990515 87.91 
L 152.990515 87.923291 
L 153.396306 88.035916 
L 153.396306 88.03913 
L 153.789653 88.151507 
L 153.873407 88.172565 
L 154.183787 88.285899 
L 154.183787 88.287532 
L 154.64652 88.400051 
L 154.720357 88.456062 
L 155.225275 88.573672 
L 155.303378 88.626966 
L 155.660102 88.739138 
L 155.660102 88.748661 
L 155.946738 88.860574 
L 156.038885 88.905788 
L 156.573519 89.022814 
L 156.653372 89.082227 
L 156.97542 89.194806 
L 157.067759 89.260657 
L 157.417679 89.378602 
L 157.417679 89.386768 
L 157.83999 89.498608 
L 157.922715 89.550404 
L 158.563674 89.668164 
L 158.667515 89.733039 
L 159.017083 89.850371 
L 159.087366 89.918414 
L 159.687865 90.034095 
L 159.78712 90.106599 
L 160.235437 90.238444 
L 160.29891 90.258778 
L 160.520042 90.372019 
L 160.520042 90.37264 
L 161.171496 90.486702 
L 161.171496 90.488579 
L 161.870395 90.601594 
L 161.971483 90.684356 
L 162.603477 90.796871 
L 162.603477 90.802614 
L 163.142116 90.914692 
L 163.171755 90.96168 
L 163.379833 91.074247 
L 163.44136 91.10219 
L 164.660793 91.221007 
L 164.727626 91.24396 
L 165.048471 91.355919 
L 165.048471 91.363852 
L 165.659266 91.476668 
L 165.739908 91.548759 
L 166.114438 91.664929 
L 166.205864 91.736533 
L 167.185972 91.852051 
L 167.185972 91.862966 
L 168.122729 91.977353 
L 168.180324 92.011763 
L 168.559302 92.12446 
L 168.569771 92.161973 
L 169.166248 92.275751 
L 169.219447 92.335409 
L 169.993186 92.449739 
L 169.993186 92.466747 
L 170.854088 92.579178 
L 170.854088 92.599186 
L 172.20624 92.714727 
L 172.287936 92.777516 
L 173.025741 92.89146 
L 173.025741 92.913326 
L 173.894091 93.026053 
L 173.972457 93.072401 
L 174.644322 93.185531 
L 174.754227 93.210038 
L 175.123803 93.330899 
L 175.156337 93.372144 
L 175.438886 93.484423 
L 175.447521 93.512428 
L 176.250203 93.627238 
L 176.250203 93.63029 
L 177.879746 93.742119 
L 177.879746 93.749039 
L 178.3922 93.861714 
L 178.46104 93.9168 
L 179.356429 94.034597 
L 179.466997 94.062027 
L 180.1591 94.176964 
L 180.1591 94.184077 
L 181.560905 94.296725 
L 181.605795 94.331793 
L 182.055303 94.446306 
L 182.056928 94.480903 
L 183.079803 94.59326 
L 183.079803 94.606245 
L 184.993873 94.719501 
L 184.993873 94.73259 
L 185.72609 94.845109 
L 185.796145 94.907048 
L 186.668067 95.027491 
L 186.774532 95.061714 
L 186.947772 95.179978 
L 186.947772 95.191769 
L 189.175821 95.271165 
L 189.175821 95.271165 
" clip-path="url(#pa3da8e2083)" style="fill: none; stroke: #0f3455; stroke-linecap: square"/>
   </g>
   <g id="patch_3">
    <path d="M 41.582948 116.206749 
L 41.582948 7.059249 
" style="fill: none; stroke: #000000; stroke-width: 0.5; stroke-linejoin: miter; stroke-linecap: square"/>
   </g>
   <g id="patch_4">
    <path d="M 188.057948 116.206749 
L 188.057948 7.059249 
" style="fill: none; stroke: #000000; stroke-width: 0.5; stroke-linejoin: miter; stroke-linecap: square"/>
   </g>
   <g id="patch_5">
    <path d="M 41.582948 116.206749 
L 188.057948 116.206749 
" style="fill: none; stroke: #000000; stroke-width: 0.5; stroke-linejoin: miter; stroke-linecap: square"/>
   </g>
   <g id="patch_6">
    <path d="M 41.582948 7.059249 
L 188.057948 7.059249 
" style="fill: none; stroke: #000000; stroke-width: 0.5; stroke-linejoin: miter; stroke-linecap: square"/>
   </g>
  </g>
 </g>
 <defs>
  <clipPath id="pa3da8e2083">
   <rect x="41.582948" y="7.059249" width="146.475" height="109.1475"/>
  </clipPath>
 </defs>
</svg>
