<?xml version="1.0" encoding="utf-8" standalone="no"?>
<!DOCTYPE svg PUBLIC "-//W3C//DTD SVG 1.1//EN"
  "http://www.w3.org/Graphics/SVG/1.1/DTD/svg11.dtd">
<svg xmlns:xlink="http://www.w3.org/1999/xlink" width="277.61271pt" height="177.941353pt" viewBox="0 0 277.61271 177.941353" xmlns="http://www.w3.org/2000/svg" version="1.1">
 <metadata>
  <rdf:RDF xmlns:dc="http://purl.org/dc/elements/1.1/" xmlns:cc="http://creativecommons.org/ns#" xmlns:rdf="http://www.w3.org/1999/02/22-rdf-syntax-ns#">
   <cc:Work>
    <dc:type rdf:resource="http://purl.org/dc/dcmitype/StillImage"/>
    <dc:date>2025-03-12T14:24:18.951203</dc:date>
    <dc:format>image/svg+xml</dc:format>
    <dc:creator>
     <cc:Agent>
      <dc:title>Matplotlib v3.9.2, https://matplotlib.org/</dc:title>
     </cc:Agent>
    </dc:creator>
   </cc:Work>
  </rdf:RDF>
 </metadata>
 <defs>
  <style type="text/css">*{stroke-linejoin: round; stroke-linecap: butt}</style>
 </defs>
 <g id="figure_1">
  <g id="patch_1">
   <path d="M 0 177.941353 
L 277.61271 177.941353 
L 277.61271 0 
L 0 0 
L 0 177.941353 
z
" style="fill: none"/>
  </g>
  <g id="axes_1">
   <g id="patch_2">
    <path d="M 32.685756 149.13 
L 267.045756 149.13 
L 267.045756 3.6 
L 32.685756 3.6 
L 32.685756 149.13 
z
" style="fill: none"/>
   </g>
   <g id="matplotlib.axis_1">
    <g id="xtick_1">
     <g id="line2d_1">
      <path d="M 93.379506 149.13 
L 93.379506 3.6 
" clip-path="url(#p5c78fdc900)" style="fill: none; stroke-dasharray: 1.85,0.8; stroke-dashoffset: 0; stroke: #000000; stroke-opacity: 0.5; stroke-width: 0.5"/>
     </g>
     <g id="line2d_2">
      <defs>
       <path id="m08e00e745e" d="M 0 0 
L 0 -3 
" style="stroke: #000000; stroke-width: 0.5"/>
      </defs>
      <g>
       <use xlink:href="#m08e00e745e" x="93.379506" y="149.13" style="stroke: #000000; stroke-width: 0.5"/>
      </g>
     </g>
     <g id="line2d_3">
      <defs>
       <path id="mabbb23e7be" d="M 0 0 
L 0 3 
" style="stroke: #000000; stroke-width: 0.5"/>
      </defs>
      <g>
       <use xlink:href="#mabbb23e7be" x="93.379506" y="3.6" style="stroke: #000000; stroke-width: 0.5"/>
      </g>
     </g>
     <g id="text_1">
      <!-- $\mathdefault{10^{-1}}$ -->
      <g transform="translate(83.299219 159.548498) scale(0.1 -0.1)">
       <defs>
        <path id="CMR17-31" d="M 1702 4058 
C 1702 4192 1696 4192 1606 4192 
C 1357 3916 979 3827 621 3827 
C 602 3827 570 3827 563 3808 
C 557 3795 557 3782 557 3648 
C 755 3648 1088 3686 1344 3839 
L 1344 461 
C 1344 236 1331 160 781 160 
L 589 160 
L 589 0 
C 896 0 1216 0 1523 0 
C 1830 0 2150 0 2458 0 
L 2458 160 
L 2266 160 
C 1715 160 1702 230 1702 458 
L 1702 4058 
z
" transform="scale(0.015625)"/>
        <path id="CMR17-30" d="M 2688 2025 
C 2688 2416 2682 3080 2413 3591 
C 2176 4039 1798 4198 1466 4198 
C 1158 4198 768 4058 525 3597 
C 269 3118 243 2524 243 2025 
C 243 1661 250 1106 448 619 
C 723 -39 1216 -128 1466 -128 
C 1760 -128 2208 -7 2470 600 
C 2662 1042 2688 1559 2688 2025 
z
M 1466 -26 
C 1056 -26 813 325 723 812 
C 653 1188 653 1738 653 2096 
C 653 2588 653 2997 736 3387 
C 858 3929 1216 4096 1466 4096 
C 1728 4096 2067 3923 2189 3400 
C 2272 3036 2278 2607 2278 2096 
C 2278 1680 2278 1169 2202 792 
C 2067 95 1690 -26 1466 -26 
z
" transform="scale(0.015625)"/>
        <path id="CMSY10-0" d="M 4218 1472 
C 4326 1472 4442 1472 4442 1600 
C 4442 1728 4326 1728 4218 1728 
L 755 1728 
C 646 1728 531 1728 531 1600 
C 531 1472 646 1472 755 1472 
L 4218 1472 
z
" transform="scale(0.015625)"/>
       </defs>
       <use xlink:href="#CMR17-31" transform="scale(0.996264)"/>
       <use xlink:href="#CMR17-30" transform="translate(45.690477 0) scale(0.996264)"/>
       <use xlink:href="#CMSY10-0" transform="translate(91.380954 36.153639) scale(0.697382)"/>
       <use xlink:href="#CMR17-31" transform="translate(145.621947 36.153639) scale(0.697382)"/>
      </g>
     </g>
    </g>
    <g id="xtick_2">
     <g id="line2d_4">
      <path d="M 180.212631 149.13 
L 180.212631 3.6 
" clip-path="url(#p5c78fdc900)" style="fill: none; stroke-dasharray: 1.85,0.8; stroke-dashoffset: 0; stroke: #000000; stroke-opacity: 0.5; stroke-width: 0.5"/>
     </g>
     <g id="line2d_5">
      <g>
       <use xlink:href="#m08e00e745e" x="180.212631" y="149.13" style="stroke: #000000; stroke-width: 0.5"/>
      </g>
     </g>
     <g id="line2d_6">
      <g>
       <use xlink:href="#mabbb23e7be" x="180.212631" y="3.6" style="stroke: #000000; stroke-width: 0.5"/>
      </g>
     </g>
     <g id="text_2">
      <!-- $\mathdefault{10^{0}}$ -->
      <g transform="translate(173.245677 159.548498) scale(0.1 -0.1)">
       <use xlink:href="#CMR17-31" transform="scale(0.996264)"/>
       <use xlink:href="#CMR17-30" transform="translate(45.690477 0) scale(0.996264)"/>
       <use xlink:href="#CMR17-30" transform="translate(91.380954 36.153639) scale(0.697382)"/>
      </g>
     </g>
    </g>
    <g id="xtick_3">
     <g id="line2d_7">
      <path d="M 267.045756 149.13 
L 267.045756 3.6 
" clip-path="url(#p5c78fdc900)" style="fill: none; stroke-dasharray: 1.85,0.8; stroke-dashoffset: 0; stroke: #000000; stroke-opacity: 0.5; stroke-width: 0.5"/>
     </g>
     <g id="line2d_8">
      <g>
       <use xlink:href="#m08e00e745e" x="267.045756" y="149.13" style="stroke: #000000; stroke-width: 0.5"/>
      </g>
     </g>
     <g id="line2d_9">
      <g>
       <use xlink:href="#mabbb23e7be" x="267.045756" y="3.6" style="stroke: #000000; stroke-width: 0.5"/>
      </g>
     </g>
     <g id="text_3">
      <!-- $\mathdefault{10^{1}}$ -->
      <g transform="translate(260.078802 159.548498) scale(0.1 -0.1)">
       <use xlink:href="#CMR17-31" transform="scale(0.996264)"/>
       <use xlink:href="#CMR17-30" transform="translate(45.690477 0) scale(0.996264)"/>
       <use xlink:href="#CMR17-31" transform="translate(91.380954 36.153639) scale(0.697382)"/>
      </g>
     </g>
    </g>
    <g id="xtick_4">
     <g id="line2d_10">
      <defs>
       <path id="m9c765b6ee6" d="M 0 0 
L 0 -1.5 
" style="stroke: #000000; stroke-width: 0.5"/>
      </defs>
      <g>
       <use xlink:href="#m9c765b6ee6" x="32.685756" y="149.13" style="stroke: #000000; stroke-width: 0.5"/>
      </g>
     </g>
     <g id="line2d_11">
      <defs>
       <path id="m9019c3178b" d="M 0 0 
L 0 1.5 
" style="stroke: #000000; stroke-width: 0.5"/>
      </defs>
      <g>
       <use xlink:href="#m9019c3178b" x="32.685756" y="3.6" style="stroke: #000000; stroke-width: 0.5"/>
      </g>
     </g>
    </g>
    <g id="xtick_5">
     <g id="line2d_12">
      <g>
       <use xlink:href="#m9c765b6ee6" x="47.97631" y="149.13" style="stroke: #000000; stroke-width: 0.5"/>
      </g>
     </g>
     <g id="line2d_13">
      <g>
       <use xlink:href="#m9019c3178b" x="47.97631" y="3.6" style="stroke: #000000; stroke-width: 0.5"/>
      </g>
     </g>
    </g>
    <g id="xtick_6">
     <g id="line2d_14">
      <g>
       <use xlink:href="#m9c765b6ee6" x="58.825131" y="149.13" style="stroke: #000000; stroke-width: 0.5"/>
      </g>
     </g>
     <g id="line2d_15">
      <g>
       <use xlink:href="#m9019c3178b" x="58.825131" y="3.6" style="stroke: #000000; stroke-width: 0.5"/>
      </g>
     </g>
    </g>
    <g id="xtick_7">
     <g id="line2d_16">
      <g>
       <use xlink:href="#m9c765b6ee6" x="67.24013" y="149.13" style="stroke: #000000; stroke-width: 0.5"/>
      </g>
     </g>
     <g id="line2d_17">
      <g>
       <use xlink:href="#m9019c3178b" x="67.24013" y="3.6" style="stroke: #000000; stroke-width: 0.5"/>
      </g>
     </g>
    </g>
    <g id="xtick_8">
     <g id="line2d_18">
      <g>
       <use xlink:href="#m9c765b6ee6" x="74.115685" y="149.13" style="stroke: #000000; stroke-width: 0.5"/>
      </g>
     </g>
     <g id="line2d_19">
      <g>
       <use xlink:href="#m9019c3178b" x="74.115685" y="3.6" style="stroke: #000000; stroke-width: 0.5"/>
      </g>
     </g>
    </g>
    <g id="xtick_9">
     <g id="line2d_20">
      <g>
       <use xlink:href="#m9c765b6ee6" x="79.928884" y="149.13" style="stroke: #000000; stroke-width: 0.5"/>
      </g>
     </g>
     <g id="line2d_21">
      <g>
       <use xlink:href="#m9019c3178b" x="79.928884" y="3.6" style="stroke: #000000; stroke-width: 0.5"/>
      </g>
     </g>
    </g>
    <g id="xtick_10">
     <g id="line2d_22">
      <g>
       <use xlink:href="#m9c765b6ee6" x="84.964506" y="149.13" style="stroke: #000000; stroke-width: 0.5"/>
      </g>
     </g>
     <g id="line2d_23">
      <g>
       <use xlink:href="#m9019c3178b" x="84.964506" y="3.6" style="stroke: #000000; stroke-width: 0.5"/>
      </g>
     </g>
    </g>
    <g id="xtick_11">
     <g id="line2d_24">
      <g>
       <use xlink:href="#m9c765b6ee6" x="89.40624" y="149.13" style="stroke: #000000; stroke-width: 0.5"/>
      </g>
     </g>
     <g id="line2d_25">
      <g>
       <use xlink:href="#m9019c3178b" x="89.40624" y="3.6" style="stroke: #000000; stroke-width: 0.5"/>
      </g>
     </g>
    </g>
    <g id="xtick_12">
     <g id="line2d_26">
      <g>
       <use xlink:href="#m9c765b6ee6" x="119.518881" y="149.13" style="stroke: #000000; stroke-width: 0.5"/>
      </g>
     </g>
     <g id="line2d_27">
      <g>
       <use xlink:href="#m9019c3178b" x="119.518881" y="3.6" style="stroke: #000000; stroke-width: 0.5"/>
      </g>
     </g>
    </g>
    <g id="xtick_13">
     <g id="line2d_28">
      <g>
       <use xlink:href="#m9c765b6ee6" x="134.809435" y="149.13" style="stroke: #000000; stroke-width: 0.5"/>
      </g>
     </g>
     <g id="line2d_29">
      <g>
       <use xlink:href="#m9019c3178b" x="134.809435" y="3.6" style="stroke: #000000; stroke-width: 0.5"/>
      </g>
     </g>
    </g>
    <g id="xtick_14">
     <g id="line2d_30">
      <g>
       <use xlink:href="#m9c765b6ee6" x="145.658256" y="149.13" style="stroke: #000000; stroke-width: 0.5"/>
      </g>
     </g>
     <g id="line2d_31">
      <g>
       <use xlink:href="#m9019c3178b" x="145.658256" y="3.6" style="stroke: #000000; stroke-width: 0.5"/>
      </g>
     </g>
    </g>
    <g id="xtick_15">
     <g id="line2d_32">
      <g>
       <use xlink:href="#m9c765b6ee6" x="154.073255" y="149.13" style="stroke: #000000; stroke-width: 0.5"/>
      </g>
     </g>
     <g id="line2d_33">
      <g>
       <use xlink:href="#m9019c3178b" x="154.073255" y="3.6" style="stroke: #000000; stroke-width: 0.5"/>
      </g>
     </g>
    </g>
    <g id="xtick_16">
     <g id="line2d_34">
      <g>
       <use xlink:href="#m9c765b6ee6" x="160.94881" y="149.13" style="stroke: #000000; stroke-width: 0.5"/>
      </g>
     </g>
     <g id="line2d_35">
      <g>
       <use xlink:href="#m9019c3178b" x="160.94881" y="3.6" style="stroke: #000000; stroke-width: 0.5"/>
      </g>
     </g>
    </g>
    <g id="xtick_17">
     <g id="line2d_36">
      <g>
       <use xlink:href="#m9c765b6ee6" x="166.762009" y="149.13" style="stroke: #000000; stroke-width: 0.5"/>
      </g>
     </g>
     <g id="line2d_37">
      <g>
       <use xlink:href="#m9019c3178b" x="166.762009" y="3.6" style="stroke: #000000; stroke-width: 0.5"/>
      </g>
     </g>
    </g>
    <g id="xtick_18">
     <g id="line2d_38">
      <g>
       <use xlink:href="#m9c765b6ee6" x="171.797631" y="149.13" style="stroke: #000000; stroke-width: 0.5"/>
      </g>
     </g>
     <g id="line2d_39">
      <g>
       <use xlink:href="#m9019c3178b" x="171.797631" y="3.6" style="stroke: #000000; stroke-width: 0.5"/>
      </g>
     </g>
    </g>
    <g id="xtick_19">
     <g id="line2d_40">
      <g>
       <use xlink:href="#m9c765b6ee6" x="176.239365" y="149.13" style="stroke: #000000; stroke-width: 0.5"/>
      </g>
     </g>
     <g id="line2d_41">
      <g>
       <use xlink:href="#m9019c3178b" x="176.239365" y="3.6" style="stroke: #000000; stroke-width: 0.5"/>
      </g>
     </g>
    </g>
    <g id="xtick_20">
     <g id="line2d_42">
      <g>
       <use xlink:href="#m9c765b6ee6" x="206.352006" y="149.13" style="stroke: #000000; stroke-width: 0.5"/>
      </g>
     </g>
     <g id="line2d_43">
      <g>
       <use xlink:href="#m9019c3178b" x="206.352006" y="3.6" style="stroke: #000000; stroke-width: 0.5"/>
      </g>
     </g>
    </g>
    <g id="xtick_21">
     <g id="line2d_44">
      <g>
       <use xlink:href="#m9c765b6ee6" x="221.64256" y="149.13" style="stroke: #000000; stroke-width: 0.5"/>
      </g>
     </g>
     <g id="line2d_45">
      <g>
       <use xlink:href="#m9019c3178b" x="221.64256" y="3.6" style="stroke: #000000; stroke-width: 0.5"/>
      </g>
     </g>
    </g>
    <g id="xtick_22">
     <g id="line2d_46">
      <g>
       <use xlink:href="#m9c765b6ee6" x="232.491381" y="149.13" style="stroke: #000000; stroke-width: 0.5"/>
      </g>
     </g>
     <g id="line2d_47">
      <g>
       <use xlink:href="#m9019c3178b" x="232.491381" y="3.6" style="stroke: #000000; stroke-width: 0.5"/>
      </g>
     </g>
    </g>
    <g id="xtick_23">
     <g id="line2d_48">
      <g>
       <use xlink:href="#m9c765b6ee6" x="240.90638" y="149.13" style="stroke: #000000; stroke-width: 0.5"/>
      </g>
     </g>
     <g id="line2d_49">
      <g>
       <use xlink:href="#m9019c3178b" x="240.90638" y="3.6" style="stroke: #000000; stroke-width: 0.5"/>
      </g>
     </g>
    </g>
    <g id="xtick_24">
     <g id="line2d_50">
      <g>
       <use xlink:href="#m9c765b6ee6" x="247.781935" y="149.13" style="stroke: #000000; stroke-width: 0.5"/>
      </g>
     </g>
     <g id="line2d_51">
      <g>
       <use xlink:href="#m9019c3178b" x="247.781935" y="3.6" style="stroke: #000000; stroke-width: 0.5"/>
      </g>
     </g>
    </g>
    <g id="xtick_25">
     <g id="line2d_52">
      <g>
       <use xlink:href="#m9c765b6ee6" x="253.595134" y="149.13" style="stroke: #000000; stroke-width: 0.5"/>
      </g>
     </g>
     <g id="line2d_53">
      <g>
       <use xlink:href="#m9019c3178b" x="253.595134" y="3.6" style="stroke: #000000; stroke-width: 0.5"/>
      </g>
     </g>
    </g>
    <g id="xtick_26">
     <g id="line2d_54">
      <g>
       <use xlink:href="#m9c765b6ee6" x="258.630756" y="149.13" style="stroke: #000000; stroke-width: 0.5"/>
      </g>
     </g>
     <g id="line2d_55">
      <g>
       <use xlink:href="#m9019c3178b" x="258.630756" y="3.6" style="stroke: #000000; stroke-width: 0.5"/>
      </g>
     </g>
    </g>
    <g id="xtick_27">
     <g id="line2d_56">
      <g>
       <use xlink:href="#m9c765b6ee6" x="263.07249" y="149.13" style="stroke: #000000; stroke-width: 0.5"/>
      </g>
     </g>
     <g id="line2d_57">
      <g>
       <use xlink:href="#m9019c3178b" x="263.07249" y="3.6" style="stroke: #000000; stroke-width: 0.5"/>
      </g>
     </g>
    </g>
    <g id="text_4">
     <!-- NAND Fitness -->
     <g transform="translate(117.708513 172.404175) scale(0.1 -0.1)">
      <defs>
       <path id="CMR17-4e" d="M 1312 4250 
C 1267 4320 1261 4320 1139 4320 
L 326 4320 
L 326 4160 
L 448 4160 
C 704 4160 819 4129 838 4122 
L 838 610 
C 838 451 838 153 326 153 
L 326 -13 
C 474 0 742 0 902 0 
C 1062 0 1331 0 1478 -13 
L 1478 153 
C 966 153 966 451 966 610 
L 966 4033 
C 1011 3995 1011 3982 1056 3919 
L 3430 76 
C 3475 0 3494 0 3526 0 
C 3590 0 3590 19 3590 139 
L 3590 3705 
C 3590 3863 3590 4160 4102 4160 
L 4102 4326 
C 3955 4320 3686 4320 3526 4320 
C 3366 4320 3098 4320 2950 4326 
L 2950 4160 
C 3462 4160 3462 3862 3462 3703 
L 3462 763 
L 1312 4250 
z
" transform="scale(0.015625)"/>
       <path id="CMR17-41" d="M 2323 4378 
C 2291 4461 2278 4480 2214 4480 
C 2150 4480 2138 4461 2106 4378 
L 749 566 
C 627 223 371 153 147 153 
L 147 -13 
C 262 0 518 0 640 0 
C 800 0 1056 0 1210 -13 
L 1210 153 
C 909 153 864 361 864 439 
C 864 497 877 530 890 569 
L 1229 1536 
L 2906 1536 
L 3290 442 
C 3322 365 3322 352 3322 327 
C 3322 153 3046 153 2925 153 
L 2925 0 
C 3110 0 3443 0 3642 0 
C 3808 0 4128 0 4282 -13 
L 4282 153 
C 3942 153 3827 153 3744 387 
L 2323 4378 
z
M 2067 3893 
L 2848 1702 
L 1286 1702 
L 2067 3893 
z
" transform="scale(0.015625)"/>
       <path id="CMR17-44" d="M 333 4352 
L 333 4186 
C 774 4186 845 4186 845 3900 
L 845 452 
C 845 166 774 166 333 166 
L 333 0 
L 2368 0 
C 3398 0 4224 943 4224 2141 
C 4224 3346 3411 4352 2368 4352 
L 333 4352 
z
M 1523 166 
C 1267 166 1254 197 1254 414 
L 1254 3938 
C 1254 4155 1267 4186 1523 4186 
L 2240 4186 
C 2771 4186 3750 3874 3750 2141 
C 3750 1242 3488 879 3366 707 
C 3213 510 2848 166 2240 166 
L 1523 166 
z
" transform="scale(0.015625)"/>
       <path id="CMR17-46" d="M 3482 4325 
L 326 4325 
L 326 4160 
C 768 4160 838 4160 838 3874 
L 838 446 
C 838 160 768 160 326 160 
L 326 0 
C 512 0 870 0 1069 0 
C 1331 0 1638 0 1901 0 
L 1901 160 
L 1760 160 
C 1274 160 1261 223 1261 452 
L 1261 2075 
L 1837 2075 
C 2432 2075 2490 1865 2490 1332 
L 2605 1332 
L 2605 2987 
L 2490 2987 
C 2490 2450 2432 2240 1837 2240 
L 1261 2240 
L 1261 3911 
C 1261 4128 1274 4160 1530 4160 
L 2355 4160 
C 3322 4160 3430 3765 3520 2916 
L 3635 2916 
L 3482 4325 
z
" transform="scale(0.015625)"/>
       <path id="CMR17-69" d="M 992 3909 
C 992 4049 877 4170 730 4170 
C 589 4170 467 4056 467 3909 
C 467 3769 582 3648 730 3648 
C 870 3648 992 3763 992 3909 
z
M 243 2706 
L 243 2541 
C 602 2541 653 2502 653 2197 
L 653 427 
C 653 184 627 153 218 153 
L 218 -13 
C 371 0 646 0 806 0 
C 960 0 1222 0 1370 -13 
L 1370 153 
C 992 153 979 191 979 420 
L 979 2776 
L 243 2706 
z
" transform="scale(0.015625)"/>
       <path id="CMR17-74" d="M 966 2560 
L 1862 2560 
L 1862 2725 
L 966 2725 
L 966 3904 
L 851 3904 
C 838 3245 614 2668 70 2668 
L 70 2560 
L 627 2560 
L 627 771 
C 627 650 627 -64 1370 -64 
C 1747 -64 1965 306 1965 777 
L 1965 1140 
L 1850 1140 
L 1850 783 
C 1850 344 1677 51 1408 51 
C 1222 51 966 178 966 758 
L 966 2560 
z
" transform="scale(0.015625)"/>
       <path id="CMR17-6e" d="M 2656 1933 
C 2656 2259 2592 2790 1837 2790 
C 1331 2790 1069 2400 973 2144 
L 966 2144 
L 966 2790 
L 211 2720 
L 211 2554 
C 589 2554 646 2515 646 2208 
L 646 428 
C 646 184 621 153 211 153 
L 211 -13 
C 365 0 646 0 813 0 
C 979 0 1267 0 1421 -13 
L 1421 153 
C 1011 153 986 178 986 428 
L 986 1658 
C 986 2247 1344 2688 1792 2688 
C 2266 2688 2317 2266 2317 1958 
L 2317 428 
C 2317 184 2291 153 1882 153 
L 1882 -13 
C 2035 0 2317 0 2483 0 
C 2650 0 2938 0 3091 -13 
L 3091 153 
C 2682 153 2656 178 2656 428 
L 2656 1933 
z
" transform="scale(0.015625)"/>
       <path id="CMR17-65" d="M 2438 1472 
C 2464 1498 2464 1511 2464 1576 
C 2464 2238 2118 2816 1389 2816 
C 710 2816 173 2169 173 1383 
C 173 551 781 -64 1459 -64 
C 2176 -64 2458 607 2458 740 
C 2458 784 2419 784 2406 784 
C 2362 784 2355 771 2330 696 
C 2189 265 1837 51 1504 51 
C 1229 51 954 203 781 480 
C 582 803 582 1176 582 1472 
L 2438 1472 
z
M 589 1568 
C 634 2505 1126 2714 1382 2714 
C 1818 2714 2112 2297 2118 1568 
L 589 1568 
z
" transform="scale(0.015625)"/>
       <path id="CMR17-73" d="M 1978 2697 
C 1978 2813 1971 2819 1933 2819 
C 1907 2819 1901 2813 1824 2717 
C 1805 2691 1747 2626 1728 2601 
C 1523 2819 1235 2819 1126 2819 
C 416 2819 160 2447 160 2076 
C 160 1498 813 1365 998 1325 
C 1402 1243 1542 1217 1677 1101 
C 1760 1025 1901 884 1901 654 
C 1901 384 1747 38 1158 38 
C 602 38 403 460 288 1021 
C 269 1110 269 1117 218 1117 
C 166 1117 160 1110 160 983 
L 160 63 
C 160 -51 166 -58 205 -58 
C 237 -58 243 -51 275 0 
C 314 57 410 211 448 276 
C 576 103 800 -64 1158 -64 
C 1792 -64 2131 283 2131 784 
C 2131 1112 1958 1285 1875 1362 
C 1683 1561 1459 1606 1190 1657 
C 838 1735 390 1825 390 2217 
C 390 2383 480 2737 1126 2737 
C 1811 2737 1850 2094 1862 1888 
C 1869 1856 1901 1849 1920 1849 
C 1978 1849 1978 1869 1978 1978 
L 1978 2697 
z
" transform="scale(0.015625)"/>
      </defs>
      <use xlink:href="#CMR17-4e" transform="scale(0.996264)"/>
      <use xlink:href="#CMR17-41" transform="translate(69.07243 0) scale(0.996264)"/>
      <use xlink:href="#CMR17-4e" transform="translate(138.14486 0) scale(0.996264)"/>
      <use xlink:href="#CMR17-44" transform="translate(207.217289 0) scale(0.996264)"/>
      <use xlink:href="#CMR17-46" transform="translate(307.686812 0) scale(0.996264)"/>
      <use xlink:href="#CMR17-69" transform="translate(367.670658 0) scale(0.996264)"/>
      <use xlink:href="#CMR17-74" transform="translate(392.541717 0) scale(0.996264)"/>
      <use xlink:href="#CMR17-6e" transform="translate(427.822485 0) scale(0.996264)"/>
      <use xlink:href="#CMR17-65" transform="translate(478.717854 0) scale(0.996264)"/>
      <use xlink:href="#CMR17-73" transform="translate(519.203515 0) scale(0.996264)"/>
      <use xlink:href="#CMR17-73" transform="translate(555.004852 0) scale(0.996264)"/>
     </g>
    </g>
   </g>
   <g id="matplotlib.axis_2">
    <g id="ytick_1">
     <g id="line2d_58">
      <path d="M 32.685756 149.13 
L 267.045756 149.13 
" clip-path="url(#p5c78fdc900)" style="fill: none; stroke-dasharray: 1.85,0.8; stroke-dashoffset: 0; stroke: #000000; stroke-opacity: 0.5; stroke-width: 0.5"/>
     </g>
     <g id="line2d_59">
      <defs>
       <path id="m7703e3ca1c" d="M 0 0 
L 3 0 
" style="stroke: #000000; stroke-width: 0.5"/>
      </defs>
      <g>
       <use xlink:href="#m7703e3ca1c" x="32.685756" y="149.13" style="stroke: #000000; stroke-width: 0.5"/>
      </g>
     </g>
     <g id="line2d_60">
      <defs>
       <path id="m7b063d41bd" d="M 0 0 
L -3 0 
" style="stroke: #000000; stroke-width: 0.5"/>
      </defs>
      <g>
       <use xlink:href="#m7b063d41bd" x="267.045756" y="149.13" style="stroke: #000000; stroke-width: 0.5"/>
      </g>
     </g>
     <g id="text_5">
      <!-- $\mathdefault{0.0}$ -->
      <g transform="translate(16.455677 152.589249) scale(0.1 -0.1)">
       <defs>
        <path id="CMMI12-3a" d="M 1178 307 
C 1178 492 1024 619 870 619 
C 685 619 557 466 557 313 
C 557 128 710 0 864 0 
C 1050 0 1178 153 1178 307 
z
" transform="scale(0.015625)"/>
       </defs>
       <use xlink:href="#CMR17-30" transform="scale(0.996264)"/>
       <use xlink:href="#CMMI12-3a" transform="translate(45.690477 0) scale(0.996264)"/>
       <use xlink:href="#CMR17-30" transform="translate(72.787654 0) scale(0.996264)"/>
      </g>
     </g>
    </g>
    <g id="ytick_2">
     <g id="line2d_61">
      <path d="M 32.685756 108.382284 
L 267.045756 108.382284 
" clip-path="url(#p5c78fdc900)" style="fill: none; stroke-dasharray: 1.85,0.8; stroke-dashoffset: 0; stroke: #000000; stroke-opacity: 0.5; stroke-width: 0.5"/>
     </g>
     <g id="line2d_62">
      <g>
       <use xlink:href="#m7703e3ca1c" x="32.685756" y="108.382284" style="stroke: #000000; stroke-width: 0.5"/>
      </g>
     </g>
     <g id="line2d_63">
      <g>
       <use xlink:href="#m7b063d41bd" x="267.045756" y="108.382284" style="stroke: #000000; stroke-width: 0.5"/>
      </g>
     </g>
     <g id="text_6">
      <!-- $\mathdefault{0.2}$ -->
      <g transform="translate(16.455677 111.841533) scale(0.1 -0.1)">
       <defs>
        <path id="CMR17-32" d="M 2669 989 
L 2554 989 
C 2490 536 2438 459 2413 420 
C 2381 369 1920 369 1830 369 
L 602 369 
C 832 619 1280 1072 1824 1597 
C 2214 1967 2669 2402 2669 3035 
C 2669 3790 2067 4224 1395 4224 
C 691 4224 262 3604 262 3030 
C 262 2780 448 2748 525 2748 
C 589 2748 781 2787 781 3010 
C 781 3207 614 3264 525 3264 
C 486 3264 448 3258 422 3245 
C 544 3790 915 4058 1306 4058 
C 1862 4058 2227 3617 2227 3035 
C 2227 2479 1901 2000 1536 1584 
L 262 146 
L 262 0 
L 2515 0 
L 2669 989 
z
" transform="scale(0.015625)"/>
       </defs>
       <use xlink:href="#CMR17-30" transform="scale(0.996264)"/>
       <use xlink:href="#CMMI12-3a" transform="translate(45.690477 0) scale(0.996264)"/>
       <use xlink:href="#CMR17-32" transform="translate(72.787654 0) scale(0.996264)"/>
      </g>
     </g>
    </g>
    <g id="ytick_3">
     <g id="line2d_64">
      <path d="M 32.685756 67.634568 
L 267.045756 67.634568 
" clip-path="url(#p5c78fdc900)" style="fill: none; stroke-dasharray: 1.85,0.8; stroke-dashoffset: 0; stroke: #000000; stroke-opacity: 0.5; stroke-width: 0.5"/>
     </g>
     <g id="line2d_65">
      <g>
       <use xlink:href="#m7703e3ca1c" x="32.685756" y="67.634568" style="stroke: #000000; stroke-width: 0.5"/>
      </g>
     </g>
     <g id="line2d_66">
      <g>
       <use xlink:href="#m7b063d41bd" x="267.045756" y="67.634568" style="stroke: #000000; stroke-width: 0.5"/>
      </g>
     </g>
     <g id="text_7">
      <!-- $\mathdefault{0.4}$ -->
      <g transform="translate(16.455677 71.093817) scale(0.1 -0.1)">
       <defs>
        <path id="CMR17-34" d="M 2150 4122 
C 2150 4256 2144 4256 2029 4256 
L 128 1254 
L 128 1088 
L 1779 1088 
L 1779 457 
C 1779 224 1766 160 1318 160 
L 1197 160 
L 1197 0 
C 1402 0 1747 0 1965 0 
C 2182 0 2528 0 2733 0 
L 2733 160 
L 2611 160 
C 2163 160 2150 224 2150 457 
L 2150 1088 
L 2803 1088 
L 2803 1254 
L 2150 1254 
L 2150 4122 
z
M 1798 3703 
L 1798 1254 
L 256 1254 
L 1798 3703 
z
" transform="scale(0.015625)"/>
       </defs>
       <use xlink:href="#CMR17-30" transform="scale(0.996264)"/>
       <use xlink:href="#CMMI12-3a" transform="translate(45.690477 0) scale(0.996264)"/>
       <use xlink:href="#CMR17-34" transform="translate(72.787654 0) scale(0.996264)"/>
      </g>
     </g>
    </g>
    <g id="ytick_4">
     <g id="line2d_67">
      <path d="M 32.685756 26.886851 
L 267.045756 26.886851 
" clip-path="url(#p5c78fdc900)" style="fill: none; stroke-dasharray: 1.85,0.8; stroke-dashoffset: 0; stroke: #000000; stroke-opacity: 0.5; stroke-width: 0.5"/>
     </g>
     <g id="line2d_68">
      <g>
       <use xlink:href="#m7703e3ca1c" x="32.685756" y="26.886851" style="stroke: #000000; stroke-width: 0.5"/>
      </g>
     </g>
     <g id="line2d_69">
      <g>
       <use xlink:href="#m7b063d41bd" x="267.045756" y="26.886851" style="stroke: #000000; stroke-width: 0.5"/>
      </g>
     </g>
     <g id="text_8">
      <!-- $\mathdefault{0.6}$ -->
      <g transform="translate(16.455677 30.346101) scale(0.1 -0.1)">
       <defs>
        <path id="CMR17-36" d="M 678 2176 
C 678 3690 1395 4032 1811 4032 
C 1946 4032 2272 4009 2400 3776 
C 2298 3776 2106 3776 2106 3553 
C 2106 3381 2246 3323 2336 3323 
C 2394 3323 2566 3348 2566 3560 
C 2566 3954 2246 4179 1805 4179 
C 1043 4179 243 3390 243 1984 
C 243 253 966 -128 1478 -128 
C 2099 -128 2688 427 2688 1283 
C 2688 2081 2170 2662 1517 2662 
C 1126 2662 838 2407 678 1960 
L 678 2176 
z
M 1478 25 
C 691 25 691 1200 691 1436 
C 691 1896 909 2560 1504 2560 
C 1613 2560 1926 2560 2138 2120 
C 2253 1870 2253 1609 2253 1289 
C 2253 944 2253 690 2118 434 
C 1978 171 1773 25 1478 25 
z
" transform="scale(0.015625)"/>
       </defs>
       <use xlink:href="#CMR17-30" transform="scale(0.996264)"/>
       <use xlink:href="#CMMI12-3a" transform="translate(45.690477 0) scale(0.996264)"/>
       <use xlink:href="#CMR17-36" transform="translate(72.787654 0) scale(0.996264)"/>
      </g>
     </g>
    </g>
    <g id="ytick_5">
     <g id="line2d_70">
      <defs>
       <path id="m049df639e3" d="M 0 0 
L 1.5 0 
" style="stroke: #000000; stroke-width: 0.5"/>
      </defs>
      <g>
       <use xlink:href="#m049df639e3" x="32.685756" y="138.943071" style="stroke: #000000; stroke-width: 0.5"/>
      </g>
     </g>
     <g id="line2d_71">
      <defs>
       <path id="mb8438514df" d="M 0 0 
L -1.5 0 
" style="stroke: #000000; stroke-width: 0.5"/>
      </defs>
      <g>
       <use xlink:href="#mb8438514df" x="267.045756" y="138.943071" style="stroke: #000000; stroke-width: 0.5"/>
      </g>
     </g>
    </g>
    <g id="ytick_6">
     <g id="line2d_72">
      <g>
       <use xlink:href="#m049df639e3" x="32.685756" y="128.756142" style="stroke: #000000; stroke-width: 0.5"/>
      </g>
     </g>
     <g id="line2d_73">
      <g>
       <use xlink:href="#mb8438514df" x="267.045756" y="128.756142" style="stroke: #000000; stroke-width: 0.5"/>
      </g>
     </g>
    </g>
    <g id="ytick_7">
     <g id="line2d_74">
      <g>
       <use xlink:href="#m049df639e3" x="32.685756" y="118.569213" style="stroke: #000000; stroke-width: 0.5"/>
      </g>
     </g>
     <g id="line2d_75">
      <g>
       <use xlink:href="#mb8438514df" x="267.045756" y="118.569213" style="stroke: #000000; stroke-width: 0.5"/>
      </g>
     </g>
    </g>
    <g id="ytick_8">
     <g id="line2d_76">
      <g>
       <use xlink:href="#m049df639e3" x="32.685756" y="98.195355" style="stroke: #000000; stroke-width: 0.5"/>
      </g>
     </g>
     <g id="line2d_77">
      <g>
       <use xlink:href="#mb8438514df" x="267.045756" y="98.195355" style="stroke: #000000; stroke-width: 0.5"/>
      </g>
     </g>
    </g>
    <g id="ytick_9">
     <g id="line2d_78">
      <g>
       <use xlink:href="#m049df639e3" x="32.685756" y="88.008426" style="stroke: #000000; stroke-width: 0.5"/>
      </g>
     </g>
     <g id="line2d_79">
      <g>
       <use xlink:href="#mb8438514df" x="267.045756" y="88.008426" style="stroke: #000000; stroke-width: 0.5"/>
      </g>
     </g>
    </g>
    <g id="ytick_10">
     <g id="line2d_80">
      <g>
       <use xlink:href="#m049df639e3" x="32.685756" y="77.821497" style="stroke: #000000; stroke-width: 0.5"/>
      </g>
     </g>
     <g id="line2d_81">
      <g>
       <use xlink:href="#mb8438514df" x="267.045756" y="77.821497" style="stroke: #000000; stroke-width: 0.5"/>
      </g>
     </g>
    </g>
    <g id="ytick_11">
     <g id="line2d_82">
      <g>
       <use xlink:href="#m049df639e3" x="32.685756" y="57.447639" style="stroke: #000000; stroke-width: 0.5"/>
      </g>
     </g>
     <g id="line2d_83">
      <g>
       <use xlink:href="#mb8438514df" x="267.045756" y="57.447639" style="stroke: #000000; stroke-width: 0.5"/>
      </g>
     </g>
    </g>
    <g id="ytick_12">
     <g id="line2d_84">
      <g>
       <use xlink:href="#m049df639e3" x="32.685756" y="47.260709" style="stroke: #000000; stroke-width: 0.5"/>
      </g>
     </g>
     <g id="line2d_85">
      <g>
       <use xlink:href="#mb8438514df" x="267.045756" y="47.260709" style="stroke: #000000; stroke-width: 0.5"/>
      </g>
     </g>
    </g>
    <g id="ytick_13">
     <g id="line2d_86">
      <g>
       <use xlink:href="#m049df639e3" x="32.685756" y="37.07378" style="stroke: #000000; stroke-width: 0.5"/>
      </g>
     </g>
     <g id="line2d_87">
      <g>
       <use xlink:href="#mb8438514df" x="267.045756" y="37.07378" style="stroke: #000000; stroke-width: 0.5"/>
      </g>
     </g>
    </g>
    <g id="ytick_14">
     <g id="line2d_88">
      <g>
       <use xlink:href="#m049df639e3" x="32.685756" y="16.699922" style="stroke: #000000; stroke-width: 0.5"/>
      </g>
     </g>
     <g id="line2d_89">
      <g>
       <use xlink:href="#mb8438514df" x="267.045756" y="16.699922" style="stroke: #000000; stroke-width: 0.5"/>
      </g>
     </g>
    </g>
    <g id="ytick_15">
     <g id="line2d_90">
      <g>
       <use xlink:href="#m049df639e3" x="32.685756" y="6.512993" style="stroke: #000000; stroke-width: 0.5"/>
      </g>
     </g>
     <g id="line2d_91">
      <g>
       <use xlink:href="#mb8438514df" x="267.045756" y="6.512993" style="stroke: #000000; stroke-width: 0.5"/>
      </g>
     </g>
    </g>
    <g id="text_9">
     <!-- Density -->
     <g transform="translate(10.518498 92.92792) rotate(-90) scale(0.1 -0.1)">
      <defs>
       <path id="CMR17-79" d="M 2496 2197 
C 2656 2586 2944 2586 3034 2586 
L 3034 2752 
C 2912 2752 2752 2752 2630 2752 
C 2496 2752 2285 2752 2157 2758 
L 2157 2592 
C 2400 2573 2406 2394 2406 2343 
C 2406 2280 2394 2248 2362 2171 
L 1664 449 
L 902 2306 
C 870 2382 870 2426 870 2433 
C 870 2573 1018 2586 1171 2586 
L 1171 2758 
C 1018 2752 742 2752 582 2752 
C 410 2752 205 2752 64 2758 
L 64 2586 
C 410 2586 448 2554 531 2350 
L 1485 15 
C 1197 -738 1030 -1178 627 -1178 
C 557 -1178 397 -1159 282 -1044 
C 429 -1031 493 -942 493 -833 
C 493 -725 416 -629 288 -629 
C 147 -629 77 -725 77 -840 
C 77 -1095 339 -1280 627 -1280 
C 998 -1280 1229 -922 1357 -604 
L 2496 2197 
z
" transform="scale(0.015625)"/>
      </defs>
      <use xlink:href="#CMR17-44" transform="scale(0.996264)"/>
      <use xlink:href="#CMR17-65" transform="translate(70.393556 0) scale(0.996264)"/>
      <use xlink:href="#CMR17-6e" transform="translate(110.879216 0) scale(0.996264)"/>
      <use xlink:href="#CMR17-73" transform="translate(161.774586 0) scale(0.996264)"/>
      <use xlink:href="#CMR17-69" transform="translate(197.575924 0) scale(0.996264)"/>
      <use xlink:href="#CMR17-74" transform="translate(222.446982 0) scale(0.996264)"/>
      <use xlink:href="#CMR17-79" transform="translate(255.125296 0) scale(0.996264)"/>
     </g>
    </g>
   </g>
   <g id="PolyCollection_1">
    <path d="M -212.51248 149.128812 
L -212.51248 149.13 
L -209.998841 149.13 
L -207.485203 149.13 
L -204.971564 149.13 
L -202.457926 149.13 
L -199.944287 149.13 
L -197.430649 149.13 
L -194.917011 149.13 
L -192.403372 149.13 
L -189.889734 149.13 
L -187.376095 149.13 
L -184.862457 149.13 
L -182.348819 149.13 
L -179.83518 149.13 
L -177.321542 149.13 
L -174.807903 149.13 
L -172.294265 149.13 
L -169.780626 149.13 
L -167.266988 149.13 
L -164.75335 149.13 
L -162.239711 149.13 
L -159.726073 149.13 
L -157.212434 149.13 
L -154.698796 149.13 
L -152.185158 149.13 
L -149.671519 149.13 
L -147.157881 149.13 
L -144.644242 149.13 
L -142.130604 149.13 
L -139.616965 149.13 
L -137.103327 149.13 
L -134.589689 149.13 
L -132.07605 149.13 
L -129.562412 149.13 
L -127.048773 149.13 
L -124.535135 149.13 
L -122.021496 149.13 
L -119.507858 149.13 
L -116.99422 149.13 
L -114.480581 149.13 
L -111.966943 149.13 
L -109.453304 149.13 
L -106.939666 149.13 
L -104.426028 149.13 
L -101.912389 149.13 
L -99.398751 149.13 
L -96.885112 149.13 
L -94.371474 149.13 
L -91.857835 149.13 
L -89.344197 149.13 
L -86.830559 149.13 
L -84.31692 149.13 
L -81.803282 149.13 
L -79.289643 149.13 
L -76.776005 149.13 
L -74.262367 149.13 
L -71.748728 149.13 
L -69.23509 149.13 
L -66.721451 149.13 
L -64.207813 149.13 
L -61.694174 149.13 
L -59.180536 149.13 
L -56.666898 149.13 
L -54.153259 149.13 
L -51.639621 149.13 
L -49.125982 149.13 
L -46.612344 149.13 
L -44.098706 149.13 
L -41.585067 149.13 
L -39.071429 149.13 
L -36.55779 149.13 
L -34.044152 149.13 
L -31.530513 149.13 
L -29.016875 149.13 
L -26.503237 149.13 
L -23.989598 149.13 
L -21.47596 149.13 
L -18.962321 149.13 
L -16.448683 149.13 
L -13.935044 149.13 
L -11.421406 149.13 
L -8.907768 149.13 
L -6.394129 149.13 
L -3.880491 149.13 
L -1.366852 149.13 
L 1.146786 149.13 
L 3.660424 149.13 
L 6.174063 149.13 
L 8.687701 149.13 
L 11.20134 149.13 
L 13.714978 149.13 
L 16.228617 149.13 
L 18.742255 149.13 
L 21.255893 149.13 
L 23.769532 149.13 
L 26.28317 149.13 
L 28.796809 149.13 
L 31.310447 149.13 
L 33.824085 149.13 
L 36.337724 149.13 
L 38.851362 149.13 
L 41.365001 149.13 
L 43.878639 149.13 
L 46.392278 149.13 
L 48.905916 149.13 
L 51.419554 149.13 
L 53.933193 149.13 
L 56.446831 149.13 
L 58.96047 149.13 
L 61.474108 149.13 
L 63.987746 149.13 
L 66.501385 149.13 
L 69.015023 149.13 
L 71.528662 149.13 
L 74.0423 149.13 
L 76.555939 149.13 
L 79.069577 149.13 
L 81.583215 149.13 
L 84.096854 149.13 
L 86.610492 149.13 
L 89.124131 149.13 
L 91.637769 149.13 
L 94.151407 149.13 
L 96.665046 149.13 
L 99.178684 149.13 
L 101.692323 149.13 
L 104.205961 149.13 
L 106.7196 149.13 
L 109.233238 149.13 
L 111.746876 149.13 
L 114.260515 149.13 
L 116.774153 149.13 
L 119.287792 149.13 
L 121.80143 149.13 
L 124.315069 149.13 
L 126.828707 149.13 
L 129.342345 149.13 
L 131.855984 149.13 
L 134.369622 149.13 
L 136.883261 149.13 
L 139.396899 149.13 
L 141.910537 149.13 
L 144.424176 149.13 
L 146.937814 149.13 
L 149.451453 149.13 
L 151.965091 149.13 
L 154.47873 149.13 
L 156.992368 149.13 
L 159.506006 149.13 
L 162.019645 149.13 
L 164.533283 149.13 
L 167.046922 149.13 
L 169.56056 149.13 
L 172.074198 149.13 
L 174.587837 149.13 
L 177.101475 149.13 
L 179.615114 149.13 
L 182.128752 149.13 
L 184.642391 149.13 
L 187.156029 149.13 
L 189.669667 149.13 
L 192.183306 149.13 
L 194.696944 149.13 
L 197.210583 149.13 
L 199.724221 149.13 
L 202.237859 149.13 
L 204.751498 149.13 
L 207.265136 149.13 
L 209.778775 149.13 
L 212.292413 149.13 
L 214.806052 149.13 
L 217.31969 149.13 
L 219.833328 149.13 
L 222.346967 149.13 
L 224.860605 149.13 
L 227.374244 149.13 
L 229.887882 149.13 
L 232.401521 149.13 
L 234.915159 149.13 
L 237.428797 149.13 
L 239.942436 149.13 
L 242.456074 149.13 
L 244.969713 149.13 
L 247.483351 149.13 
L 249.996989 149.13 
L 252.510628 149.13 
L 255.024266 149.13 
L 257.537905 149.13 
L 260.051543 149.13 
L 262.565182 149.13 
L 265.07882 149.13 
L 267.592458 149.13 
L 270.106097 149.13 
L 272.619735 149.13 
L 275.133374 149.13 
L 277.647012 149.13 
L 280.16065 149.13 
L 282.674289 149.13 
L 285.187927 149.13 
L 287.701566 149.13 
L 287.701566 149.128041 
L 287.701566 149.128041 
L 285.187927 149.125059 
L 282.674289 149.118738 
L 280.16065 149.106799 
L 277.647012 149.08679 
L 275.133374 149.057213 
L 272.619735 149.019 
L 270.106097 148.976498 
L 267.592458 148.936899 
L 265.07882 148.907755 
L 262.565182 148.893522 
L 260.051543 148.893052 
L 257.537905 148.899595 
L 255.024266 148.903203 
L 252.510628 148.89381 
L 249.996989 148.86313 
L 247.483351 148.80481 
L 244.969713 148.713594 
L 242.456074 148.584373 
L 239.942436 148.411058 
L 237.428797 148.184417 
L 234.915159 147.888371 
L 232.401521 147.495312 
L 229.887882 146.961838 
L 227.374244 146.226558 
L 224.860605 145.211708 
L 222.346967 143.83042 
L 219.833328 142.000567 
L 217.31969 139.662578 
L 214.806052 136.793239 
L 212.292413 133.404795 
L 209.778775 129.523907 
L 207.265136 125.157947 
L 204.751498 120.267936 
L 202.237859 114.767573 
L 199.724221 108.554072 
L 197.210583 101.558354 
L 194.696944 93.791966 
L 192.183306 85.370933 
L 189.669667 76.508514 
L 187.156029 67.481823 
L 184.642391 58.585899 
L 182.128752 50.090328 
L 179.615114 42.209048 
L 177.101475 35.087556 
L 174.587837 28.807504 
L 172.074198 23.40621 
L 169.56056 18.904553 
L 167.046922 15.330874 
L 164.533283 12.726682 
L 162.019645 11.127853 
L 159.506006 10.53 
L 156.992368 10.858703 
L 154.47873 11.965126 
L 151.965091 13.654677 
L 149.451453 15.738626 
L 146.937814 18.086345 
L 144.424176 20.65527 
L 141.910537 23.4864 
L 139.396899 26.669317 
L 136.883261 30.294289 
L 134.369622 34.413164 
L 131.855984 39.022346 
L 129.342345 44.065013 
L 126.828707 49.438327 
L 124.315069 54.995767 
L 121.80143 60.551348 
L 119.287792 65.902739 
L 116.774153 70.878675 
L 114.260515 75.390681 
L 111.746876 79.455839 
L 109.233238 83.172888 
L 106.7196 86.665969 
L 104.205961 90.03068 
L 101.692323 93.310464 
L 99.178684 96.50719 
L 96.665046 99.608547 
L 94.151407 102.608796 
L 91.637769 105.508224 
L 89.124131 108.293721 
L 86.610492 110.918779 
L 84.096854 113.305459 
L 81.583215 115.377536 
L 79.069577 117.110265 
L 76.555939 118.565395 
L 74.0423 119.884712 
L 71.528662 121.239828 
L 69.015023 122.762969 
L 66.501385 124.494531 
L 63.987746 126.372125 
L 61.474108 128.262235 
L 58.96047 130.015315 
L 56.446831 131.518338 
L 53.933193 132.72574 
L 51.419554 133.662996 
L 48.905916 134.408558 
L 46.392278 135.064895 
L 43.878639 135.72852 
L 41.365001 136.465792 
L 38.851362 137.298992 
L 36.337724 138.205583 
L 33.824085 139.131055 
L 31.310447 140.011445 
L 28.796809 140.797192 
L 26.28317 141.468569 
L 23.769532 142.03658 
L 21.255893 142.530508 
L 18.742255 142.980053 
L 16.228617 143.401731 
L 13.714978 143.79539 
L 11.20134 144.150495 
L 8.687701 144.457146 
L 6.174063 144.715475 
L 3.660424 144.938764 
L 1.146786 145.149043 
L -1.366852 145.36759 
L -3.880491 145.605003 
L -6.394129 145.855391 
L -8.907768 146.09723 
L -11.421406 146.300904 
L -13.935044 146.440561 
L -16.448683 146.505804 
L -18.962321 146.50772 
L -21.47596 146.475451 
L -23.989598 146.444353 
L -26.503237 146.442079 
L -29.016875 146.480443 
L -31.530513 146.556878 
L -34.044152 146.66252 
L -36.55779 146.789978 
L -39.071429 146.935631 
L -41.585067 147.096751 
L -44.098706 147.267839 
L -46.612344 147.439973 
L -49.125982 147.603337 
L -51.639621 147.750268 
L -54.153259 147.876589 
L -56.666898 147.981276 
L -59.180536 148.065791 
L -61.694174 148.133859 
L -64.207813 148.191324 
L -66.721451 148.245402 
L -69.23509 148.30318 
L -71.748728 148.369611 
L -74.262367 148.445567 
L -76.776005 148.526864 
L -79.289643 148.605281 
L -81.803282 148.67187 
L -84.31692 148.72122 
L -86.830559 148.754282 
L -89.344197 148.777944 
L -91.857835 148.801583 
L -94.371474 148.83269 
L -96.885112 148.873915 
L -99.398751 148.922696 
L -101.912389 148.973057 
L -104.426028 149.018216 
L -106.939666 149.052733 
L -109.453304 149.073576 
L -111.966943 149.08028 
L -114.480581 149.074684 
L -116.99422 149.060634 
L -119.507858 149.043514 
L -122.021496 149.02928 
L -124.535135 149.022909 
L -127.048773 149.026816 
L -129.562412 149.040121 
L -132.07605 149.059272 
L -134.589689 149.079715 
L -137.103327 149.097655 
L -139.616965 149.111021 
L -142.130604 149.119401 
L -144.644242 149.123276 
L -147.157881 149.123141 
L -149.671519 149.118974 
L -152.185158 149.110258 
L -154.698796 149.096541 
L -157.212434 149.078317 
L -159.726073 149.05775 
L -162.239711 149.038641 
L -164.75335 149.025333 
L -167.266988 149.020852 
L -169.780626 149.025261 
L -172.294265 149.035257 
L -174.807903 149.045427 
L -177.321542 149.050611 
L -179.83518 149.048234 
L -182.348819 149.039473 
L -184.862457 149.028725 
L -187.376095 149.021611 
L -189.889734 149.022479 
L -192.403372 149.032608 
L -194.917011 149.04997 
L -197.430649 149.070501 
L -199.944287 149.090023 
L -202.457926 149.105737 
L -204.971564 149.1167 
L -207.485203 149.123416 
L -209.998841 149.127057 
L -212.51248 149.128812 
z
" clip-path="url(#p5c78fdc900)" style="fill: #a60628; fill-opacity: 0.4; stroke: #a60628"/>
   </g>
   <g id="PolyCollection_2">
    <path d="M -352.362175 149.129053 
L -352.362175 149.13 
L -349.403126 149.13 
L -346.444077 149.13 
L -343.485027 149.13 
L -340.525978 149.13 
L -337.566928 149.13 
L -334.607879 149.13 
L -331.64883 149.13 
L -328.68978 149.13 
L -325.730731 149.13 
L -322.771682 149.13 
L -319.812632 149.13 
L -316.853583 149.13 
L -313.894534 149.13 
L -310.935484 149.13 
L -307.976435 149.13 
L -305.017385 149.13 
L -302.058336 149.13 
L -299.099287 149.13 
L -296.140237 149.13 
L -293.181188 149.13 
L -290.222139 149.13 
L -287.263089 149.13 
L -284.30404 149.13 
L -281.344991 149.13 
L -278.385941 149.13 
L -275.426892 149.13 
L -272.467843 149.13 
L -269.508793 149.13 
L -266.549744 149.13 
L -263.590694 149.13 
L -260.631645 149.13 
L -257.672596 149.13 
L -254.713546 149.13 
L -251.754497 149.13 
L -248.795448 149.13 
L -245.836398 149.13 
L -242.877349 149.13 
L -239.9183 149.13 
L -236.95925 149.13 
L -234.000201 149.13 
L -231.041151 149.13 
L -228.082102 149.13 
L -225.123053 149.13 
L -222.164003 149.13 
L -219.204954 149.13 
L -216.245905 149.13 
L -213.286855 149.13 
L -210.327806 149.13 
L -207.368757 149.13 
L -204.409707 149.13 
L -201.450658 149.13 
L -198.491609 149.13 
L -195.532559 149.13 
L -192.57351 149.13 
L -189.61446 149.13 
L -186.655411 149.13 
L -183.696362 149.13 
L -180.737312 149.13 
L -177.778263 149.13 
L -174.819214 149.13 
L -171.860164 149.13 
L -168.901115 149.13 
L -165.942066 149.13 
L -162.983016 149.13 
L -160.023967 149.13 
L -157.064917 149.13 
L -154.105868 149.13 
L -151.146819 149.13 
L -148.187769 149.13 
L -145.22872 149.13 
L -142.269671 149.13 
L -139.310621 149.13 
L -136.351572 149.13 
L -133.392523 149.13 
L -130.433473 149.13 
L -127.474424 149.13 
L -124.515375 149.13 
L -121.556325 149.13 
L -118.597276 149.13 
L -115.638226 149.13 
L -112.679177 149.13 
L -109.720128 149.13 
L -106.761078 149.13 
L -103.802029 149.13 
L -100.84298 149.13 
L -97.88393 149.13 
L -94.924881 149.13 
L -91.965832 149.13 
L -89.006782 149.13 
L -86.047733 149.13 
L -83.088683 149.13 
L -80.129634 149.13 
L -77.170585 149.13 
L -74.211535 149.13 
L -71.252486 149.13 
L -68.293437 149.13 
L -65.334387 149.13 
L -62.375338 149.13 
L -59.416289 149.13 
L -56.457239 149.13 
L -53.49819 149.13 
L -50.53914 149.13 
L -47.580091 149.13 
L -44.621042 149.13 
L -41.661992 149.13 
L -38.702943 149.13 
L -35.743894 149.13 
L -32.784844 149.13 
L -29.825795 149.13 
L -26.866746 149.13 
L -23.907696 149.13 
L -20.948647 149.13 
L -17.989598 149.13 
L -15.030548 149.13 
L -12.071499 149.13 
L -9.112449 149.13 
L -6.1534 149.13 
L -3.194351 149.13 
L -0.235301 149.13 
L 2.723748 149.13 
L 5.682797 149.13 
L 8.641847 149.13 
L 11.600896 149.13 
L 14.559945 149.13 
L 17.518995 149.13 
L 20.478044 149.13 
L 23.437094 149.13 
L 26.396143 149.13 
L 29.355192 149.13 
L 32.314242 149.13 
L 35.273291 149.13 
L 38.23234 149.13 
L 41.19139 149.13 
L 44.150439 149.13 
L 47.109488 149.13 
L 50.068538 149.13 
L 53.027587 149.13 
L 55.986636 149.13 
L 58.945686 149.13 
L 61.904735 149.13 
L 64.863785 149.13 
L 67.822834 149.13 
L 70.781883 149.13 
L 73.740933 149.13 
L 76.699982 149.13 
L 79.659031 149.13 
L 82.618081 149.13 
L 85.57713 149.13 
L 88.536179 149.13 
L 91.495229 149.13 
L 94.454278 149.13 
L 97.413328 149.13 
L 100.372377 149.13 
L 103.331426 149.13 
L 106.290476 149.13 
L 109.249525 149.13 
L 112.208574 149.13 
L 115.167624 149.13 
L 118.126673 149.13 
L 121.085722 149.13 
L 124.044772 149.13 
L 127.003821 149.13 
L 129.96287 149.13 
L 132.92192 149.13 
L 135.880969 149.13 
L 138.840019 149.13 
L 141.799068 149.13 
L 144.758117 149.13 
L 147.717167 149.13 
L 150.676216 149.13 
L 153.635265 149.13 
L 156.594315 149.13 
L 159.553364 149.13 
L 162.512413 149.13 
L 165.471463 149.13 
L 168.430512 149.13 
L 171.389562 149.13 
L 174.348611 149.13 
L 177.30766 149.13 
L 180.26671 149.13 
L 183.225759 149.13 
L 186.184808 149.13 
L 189.143858 149.13 
L 192.102907 149.13 
L 195.061956 149.13 
L 198.021006 149.13 
L 200.980055 149.13 
L 203.939104 149.13 
L 206.898154 149.13 
L 209.857203 149.13 
L 212.816253 149.13 
L 215.775302 149.13 
L 218.734351 149.13 
L 221.693401 149.13 
L 224.65245 149.13 
L 227.611499 149.13 
L 230.570549 149.13 
L 233.529598 149.13 
L 236.488647 149.13 
L 236.488647 149.128877 
L 236.488647 149.128877 
L 233.529598 149.127253 
L 230.570549 149.123796 
L 227.611499 149.117021 
L 224.65245 149.104759 
L 221.693401 149.084135 
L 218.734351 149.05164 
L 215.775302 149.003105 
L 212.816253 148.933363 
L 209.857203 148.835347 
L 206.898154 148.698643 
L 203.939104 148.507773 
L 200.980055 148.240635 
L 198.021006 147.867258 
L 195.061956 147.348674 
L 192.102907 146.635612 
L 189.143858 145.667518 
L 186.184808 144.373851 
L 183.225759 142.680557 
L 180.26671 140.523494 
L 177.30766 137.867106 
L 174.348611 134.722373 
L 171.389562 131.156273 
L 168.430512 127.287451 
L 165.471463 123.268521 
L 162.512413 119.261027 
L 159.553364 115.41147 
L 156.594315 111.835314 
L 153.635265 108.611828 
L 150.676216 105.788133 
L 147.717167 103.387725 
L 144.758117 101.418321 
L 141.799068 99.876296 
L 138.840019 98.74854 
L 135.880969 98.014742 
L 132.92192 97.65231 
L 129.96287 97.643059 
L 127.003821 97.977746 
L 124.044772 98.653878 
L 121.085722 99.665243 
L 118.126673 100.987419 
L 115.167624 102.568344 
L 112.208574 104.332182 
L 109.249525 106.196852 
L 106.290476 108.09562 
L 103.331426 109.989351 
L 100.372377 111.862331 
L 97.413328 113.706378 
L 94.454278 115.50578 
L 91.495229 117.23369 
L 88.536179 118.861422 
L 85.57713 120.37309 
L 82.618081 121.775291 
L 79.659031 123.095418 
L 76.699982 124.36927 
L 73.740933 125.624637 
L 70.781883 126.869814 
L 67.822834 128.093636 
L 64.863785 129.277513 
L 61.904735 130.412923 
L 58.945686 131.513876 
L 55.986636 132.615957 
L 53.027587 133.760927 
L 50.068538 134.9743 
L 47.109488 136.247762 
L 44.150439 137.536105 
L 41.19139 138.770696 
L 38.23234 139.882842 
L 35.273291 140.825723 
L 32.314242 141.585363 
L 29.355192 142.177869 
L 26.396143 142.63728 
L 23.437094 143.001642 
L 20.478044 143.303433 
L 17.518995 143.566422 
L 14.559945 143.807473 
L 11.600896 144.040129 
L 8.641847 144.277026 
L 5.682797 144.529548 
L 2.723748 144.805125 
L -0.235301 145.104234 
L -3.194351 145.41946 
L -6.1534 145.737627 
L -9.112449 146.044035 
L -12.071499 146.326659 
L -15.030548 146.578537 
L -17.989598 146.797828 
L -20.948647 146.986119 
L -23.907696 147.146087 
L -26.866746 147.279677 
L -29.825795 147.387644 
L -32.784844 147.470685 
L -35.743894 147.531466 
L -38.702943 147.576258 
L -41.661992 147.614933 
L -44.621042 147.658949 
L -47.580091 147.718004 
L -50.53914 147.796819 
L -53.49819 147.89356 
L -56.457239 148.000772 
L -59.416289 148.108505 
L -62.375338 148.208249 
L -65.334387 148.295767 
L -68.293437 148.371545 
L -71.252486 148.438934 
L -74.211535 148.501364 
L -77.170585 148.560403 
L -80.129634 148.61561 
L -83.088683 148.665836 
L -86.047733 148.710727 
L -89.006782 148.75133 
L -91.965832 148.789539 
L -94.924881 148.826988 
L -97.88393 148.864224 
L -100.84298 148.900586 
L -103.802029 148.934601 
L -106.761078 148.964516 
L -109.720128 148.988737 
L -112.679177 149.006258 
L -115.638226 149.017147 
L -118.597276 149.022868 
L -121.556325 149.026082 
L -124.515375 149.029743 
L -127.474424 149.035841 
L -130.433473 149.044457 
L -133.392523 149.053724 
L -136.351572 149.06077 
L -139.310621 149.06319 
L -142.269671 149.060322 
L -145.22872 149.053723 
L -148.187769 149.046637 
L -151.146819 149.042705 
L -154.105868 149.04452 
L -157.064917 149.052685 
L -160.023967 149.065777 
L -162.983016 149.081132 
L -165.942066 149.095978 
L -168.901115 149.10834 
L -171.860164 149.117392 
L -174.819214 149.123291 
L -177.778263 149.126736 
L -180.737312 149.128549 
L -183.696362 149.12941 
L -186.655411 149.129781 
L -189.61446 149.129926 
L -192.57351 149.129977 
L -195.532559 149.129993 
L -198.491609 149.129998 
L -201.450658 149.13 
L -204.409707 149.13 
L -207.368757 149.13 
L -210.327806 149.13 
L -213.286855 149.13 
L -216.245905 149.13 
L -219.204954 149.13 
L -222.164003 149.13 
L -225.123053 149.13 
L -228.082102 149.13 
L -231.041151 149.13 
L -234.000201 149.13 
L -236.95925 149.13 
L -239.9183 149.13 
L -242.877349 149.13 
L -245.836398 149.13 
L -248.795448 149.13 
L -251.754497 149.13 
L -254.713546 149.13 
L -257.672596 149.13 
L -260.631645 149.13 
L -263.590694 149.13 
L -266.549744 149.13 
L -269.508793 149.13 
L -272.467843 149.13 
L -275.426892 149.129999 
L -278.385941 149.129996 
L -281.344991 149.129987 
L -284.30404 149.129956 
L -287.263089 149.129866 
L -290.222139 149.129623 
L -293.181188 149.129033 
L -296.140237 149.127733 
L -299.099287 149.125142 
L -302.058336 149.120484 
L -305.017385 149.112959 
L -307.976435 149.102105 
L -310.935484 149.088259 
L -313.894534 149.072905 
L -316.853583 149.058609 
L -319.812632 149.048401 
L -322.771682 149.044742 
L -325.730731 149.048569 
L -328.68978 149.058904 
L -331.64883 149.073258 
L -334.607879 149.088603 
L -337.566928 149.102392 
L -340.525978 149.113169 
L -343.485027 149.120621 
L -346.444077 149.125222 
L -349.403126 149.127775 
L -352.362175 149.129053 
z
" clip-path="url(#p5c78fdc900)" style="fill: #348abd; fill-opacity: 0.4; stroke: #348abd"/>
   </g>
   <g id="patch_3">
    <path d="M 32.685756 149.13 
L 32.685756 3.6 
" style="fill: none; stroke: #000000; stroke-width: 0.5; stroke-linejoin: miter; stroke-linecap: square"/>
   </g>
   <g id="patch_4">
    <path d="M 267.045756 149.13 
L 267.045756 3.6 
" style="fill: none; stroke: #000000; stroke-width: 0.5; stroke-linejoin: miter; stroke-linecap: square"/>
   </g>
   <g id="patch_5">
    <path d="M 32.685756 149.13 
L 267.045756 149.13 
" style="fill: none; stroke: #000000; stroke-width: 0.5; stroke-linejoin: miter; stroke-linecap: square"/>
   </g>
   <g id="patch_6">
    <path d="M 32.685756 3.6 
L 267.045756 3.6 
" style="fill: none; stroke: #000000; stroke-width: 0.5; stroke-linejoin: miter; stroke-linecap: square"/>
   </g>
   <g id="legend_1">
    <g id="patch_7">
     <path d="M 213.10175 53.330033 
L 260.045756 53.330033 
Q 262.045756 53.330033 262.045756 51.330033 
L 262.045756 10.6 
Q 262.045756 8.6 260.045756 8.6 
L 213.10175 8.6 
Q 211.10175 8.6 211.10175 10.6 
L 211.10175 51.330033 
Q 211.10175 53.330033 213.10175 53.330033 
z
" style="fill: #ffffff; stroke: #cccccc; stroke-linejoin: miter"/>
    </g>
    <g id="text_10">
     <!-- $N_{NP}$ -->
     <g transform="translate(226.506122 19.518498) scale(0.1 -0.1)">
      <defs>
       <path id="CMMI12-4e" d="M 4736 3698 
C 4806 3974 4909 4166 5395 4166 
C 5414 4166 5491 4166 5491 4279 
C 5491 4352 5434 4352 5408 4352 
C 5280 4352 4954 4352 4826 4352 
L 4518 4352 
C 4429 4352 4314 4352 4224 4352 
C 4186 4352 4109 4352 4109 4230 
C 4109 4166 4160 4166 4205 4166 
C 4589 4166 4614 4019 4614 3903 
C 4614 3846 4608 3826 4589 3737 
L 3866 850 
L 2496 4249 
C 2451 4352 2445 4352 2304 4352 
L 1523 4352 
C 1395 4352 1338 4352 1338 4230 
C 1338 4166 1382 4166 1504 4166 
C 1536 4166 1914 4166 1914 4115 
C 1914 4102 1901 4051 1894 4032 
L 1043 635 
C 966 320 813 186 390 186 
C 358 186 294 186 294 67 
C 294 0 358 0 378 0 
C 506 0 832 0 960 0 
L 1267 0 
C 1357 0 1466 0 1555 0 
C 1600 0 1670 0 1670 122 
C 1670 180 1606 186 1581 186 
C 1370 186 1165 224 1165 454 
C 1165 505 1178 562 1190 613 
L 2054 4032 
C 2093 3968 2093 3956 2118 3898 
L 3642 115 
C 3674 38 3686 0 3744 0 
C 3808 0 3814 19 3840 128 
L 4736 3698 
z
" transform="scale(0.015625)"/>
       <path id="CMMI12-50" d="M 1894 2023 
L 2970 2023 
C 3853 2023 4736 2673 4736 3401 
C 4736 3898 4314 4352 3507 4352 
L 1530 4352 
C 1408 4352 1350 4352 1350 4231 
C 1350 4167 1408 4167 1504 4167 
C 1894 4167 1894 4116 1894 4046 
C 1894 4034 1894 3995 1869 3899 
L 1005 472 
C 947 249 934 185 486 185 
C 365 185 301 185 301 70 
C 301 0 358 0 397 0 
C 518 0 646 0 768 0 
L 1517 0 
C 1638 0 1773 0 1894 0 
C 1946 0 2016 0 2016 121 
C 2016 185 1958 185 1862 185 
C 1478 185 1472 230 1472 293 
C 1472 325 1478 369 1485 401 
L 1894 2023 
z
M 2355 3930 
C 2413 4167 2438 4167 2688 4167 
L 3322 4167 
C 3802 4167 4198 4013 4198 3535 
C 4198 3369 4115 2827 3821 2534 
C 3712 2419 3405 2176 2822 2176 
L 1920 2176 
L 2355 3930 
z
" transform="scale(0.015625)"/>
      </defs>
      <use xlink:href="#CMMI12-4e" transform="scale(0.996264)"/>
      <use xlink:href="#CMMI12-4e" transform="translate(78.115119 -14.943915) scale(0.697382)"/>
      <use xlink:href="#CMMI12-50" transform="translate(140.080092 -14.943915) scale(0.697382)"/>
     </g>
    </g>
    <g id="patch_8">
     <path d="M 215.10175 33.455677 
L 235.10175 33.455677 
L 235.10175 26.455677 
L 215.10175 26.455677 
z
" style="fill: #348abd; fill-opacity: 0.4; stroke: #348abd; stroke-linejoin: miter"/>
    </g>
    <g id="text_11">
     <!-- 9 -->
     <g transform="translate(243.10175 33.455677) scale(0.1 -0.1)">
      <defs>
       <path id="CMR17-39" d="M 2253 1864 
C 2253 464 1670 31 1190 31 
C 1043 31 685 31 538 294 
C 704 268 826 357 826 518 
C 826 692 685 749 595 749 
C 538 749 365 723 365 506 
C 365 71 742 -128 1203 -128 
C 1939 -128 2688 674 2688 2073 
C 2688 3817 1971 4179 1485 4179 
C 851 4179 243 3628 243 2778 
C 243 1991 762 1408 1414 1408 
C 1952 1408 2189 1903 2253 2112 
L 2253 1864 
z
M 1427 1510 
C 1254 1510 1011 1542 813 1922 
C 678 2169 678 2461 678 2771 
C 678 3146 678 3405 858 3684 
C 947 3817 1114 4032 1485 4032 
C 2240 4032 2240 2885 2240 2632 
C 2240 2182 2035 1510 1427 1510 
z
" transform="scale(0.015625)"/>
      </defs>
      <use xlink:href="#CMR17-39" transform="scale(0.996264)"/>
     </g>
    </g>
    <g id="patch_9">
     <path d="M 215.10175 47.392855 
L 235.10175 47.392855 
L 235.10175 40.392855 
L 215.10175 40.392855 
z
" style="fill: #a60628; fill-opacity: 0.4; stroke: #a60628; stroke-linejoin: miter"/>
    </g>
    <g id="text_12">
     <!-- 256 -->
     <g transform="translate(243.10175 47.392855) scale(0.1 -0.1)">
      <defs>
       <path id="CMR17-35" d="M 730 3692 
C 794 3666 1056 3584 1325 3584 
C 1920 3584 2246 3911 2432 4100 
C 2432 4157 2432 4192 2394 4192 
C 2387 4192 2374 4192 2323 4163 
C 2099 4058 1837 3973 1517 3973 
C 1325 3973 1037 3999 723 4139 
C 653 4171 640 4171 634 4171 
C 602 4171 595 4164 595 4037 
L 595 2203 
C 595 2089 595 2057 659 2057 
C 691 2057 704 2070 736 2114 
C 941 2401 1222 2522 1542 2522 
C 1766 2522 2246 2382 2246 1289 
C 2246 1085 2246 715 2054 421 
C 1894 159 1645 25 1370 25 
C 947 25 518 320 403 814 
C 429 807 480 795 506 795 
C 589 795 749 840 749 1038 
C 749 1210 627 1280 506 1280 
C 358 1280 262 1190 262 1011 
C 262 454 704 -128 1382 -128 
C 2042 -128 2669 440 2669 1264 
C 2669 2030 2170 2624 1549 2624 
C 1222 2624 947 2503 730 2274 
L 730 3692 
z
" transform="scale(0.015625)"/>
      </defs>
      <use xlink:href="#CMR17-32" transform="scale(0.996264)"/>
      <use xlink:href="#CMR17-35" transform="translate(45.690477 0) scale(0.996264)"/>
      <use xlink:href="#CMR17-36" transform="translate(91.380954 0) scale(0.996264)"/>
     </g>
    </g>
   </g>
  </g>
 </g>
 <defs>
  <clipPath id="p5c78fdc900">
   <rect x="32.685756" y="3.6" width="234.36" height="145.53"/>
  </clipPath>
 </defs>
</svg>
