<?xml version="1.0" encoding="utf-8" standalone="no"?>
<!DOCTYPE svg PUBLIC "-//W3C//DTD SVG 1.1//EN"
  "http://www.w3.org/Graphics/SVG/1.1/DTD/svg11.dtd">
<svg xmlns:xlink="http://www.w3.org/1999/xlink" width="236.68606pt" height="186.891106pt" viewBox="0 0 236.68606 186.891106" xmlns="http://www.w3.org/2000/svg" version="1.1">
 <metadata>
  <rdf:RDF xmlns:dc="http://purl.org/dc/elements/1.1/" xmlns:cc="http://creativecommons.org/ns#" xmlns:rdf="http://www.w3.org/1999/02/22-rdf-syntax-ns#">
   <cc:Work>
    <dc:type rdf:resource="http://purl.org/dc/dcmitype/StillImage"/>
    <dc:date>2025-02-19T21:40:45.476274</dc:date>
    <dc:format>image/svg+xml</dc:format>
    <dc:creator>
     <cc:Agent>
      <dc:title>Matplotlib v3.7.1, https://matplotlib.org/</dc:title>
     </cc:Agent>
    </dc:creator>
   </cc:Work>
  </rdf:RDF>
 </metadata>
 <defs>
  <style type="text/css">*{stroke-linejoin: round; stroke-linecap: butt}</style>
 </defs>
 <g id="figure_1">
  <g id="patch_1">
   <path d="M 0 186.891106 
L 236.68606 186.891106 
L 236.68606 0 
L 0 0 
L 0 186.891106 
z
" style="fill: none"/>
  </g>
  <g id="axes_1">
   <g id="patch_2">
    <path d="M 37.78606 152.589249 
L 233.08606 152.589249 
L 233.08606 7.059249 
L 37.78606 7.059249 
L 37.78606 152.589249 
z
" style="fill: none"/>
   </g>
   <g id="matplotlib.axis_1">
    <g id="xtick_1">
     <g id="line2d_1">
      <path d="M 37.78606 152.589249 
L 37.78606 7.059249 
" clip-path="url(#pbfeb09c053)" style="fill: none; stroke-dasharray: 1.85,0.8; stroke-dashoffset: 0; stroke: #000000; stroke-opacity: 0.5; stroke-width: 0.5"/>
     </g>
     <g id="line2d_2">
      <defs>
       <path id="m8acd389e1f" d="M 0 0 
L 0 -3 
" style="stroke: #000000; stroke-width: 0.5"/>
      </defs>
      <g>
       <use xlink:href="#m8acd389e1f" x="37.78606" y="152.589249" style="stroke: #000000; stroke-width: 0.5"/>
      </g>
     </g>
     <g id="line2d_3">
      <defs>
       <path id="ma2a77107fc" d="M 0 0 
L 0 3 
" style="stroke: #000000; stroke-width: 0.5"/>
      </defs>
      <g>
       <use xlink:href="#ma2a77107fc" x="37.78606" y="7.059249" style="stroke: #000000; stroke-width: 0.5"/>
      </g>
     </g>
     <g id="text_1">
      <!-- $\mathdefault{0}$ -->
      <g transform="translate(35.295392 163.007748) scale(0.1 -0.1)">
       <defs>
        <path id="CMR17-30" d="M 2688 2025 
C 2688 2416 2682 3080 2413 3591 
C 2176 4039 1798 4198 1466 4198 
C 1158 4198 768 4058 525 3597 
C 269 3118 243 2524 243 2025 
C 243 1661 250 1106 448 619 
C 723 -39 1216 -128 1466 -128 
C 1760 -128 2208 -7 2470 600 
C 2662 1042 2688 1559 2688 2025 
z
M 1466 -26 
C 1056 -26 813 325 723 812 
C 653 1188 653 1738 653 2096 
C 653 2588 653 2997 736 3387 
C 858 3929 1216 4096 1466 4096 
C 1728 4096 2067 3923 2189 3400 
C 2272 3036 2278 2607 2278 2096 
C 2278 1680 2278 1169 2202 792 
C 2067 95 1690 -26 1466 -26 
z
" transform="scale(0.015625)"/>
       </defs>
       <use xlink:href="#CMR17-30" transform="scale(0.996264)"/>
      </g>
     </g>
    </g>
    <g id="xtick_2">
     <g id="line2d_4">
      <path d="M 73.295151 152.589249 
L 73.295151 7.059249 
" clip-path="url(#pbfeb09c053)" style="fill: none; stroke-dasharray: 1.85,0.8; stroke-dashoffset: 0; stroke: #000000; stroke-opacity: 0.5; stroke-width: 0.5"/>
     </g>
     <g id="line2d_5">
      <g>
       <use xlink:href="#m8acd389e1f" x="73.295151" y="152.589249" style="stroke: #000000; stroke-width: 0.5"/>
      </g>
     </g>
     <g id="line2d_6">
      <g>
       <use xlink:href="#ma2a77107fc" x="73.295151" y="7.059249" style="stroke: #000000; stroke-width: 0.5"/>
      </g>
     </g>
     <g id="text_2">
      <!-- $\mathdefault{20}$ -->
      <g transform="translate(68.313816 163.007748) scale(0.1 -0.1)">
       <defs>
        <path id="CMR17-32" d="M 2669 989 
L 2554 989 
C 2490 536 2438 459 2413 420 
C 2381 369 1920 369 1830 369 
L 602 369 
C 832 619 1280 1072 1824 1597 
C 2214 1967 2669 2402 2669 3035 
C 2669 3790 2067 4224 1395 4224 
C 691 4224 262 3604 262 3030 
C 262 2780 448 2748 525 2748 
C 589 2748 781 2787 781 3010 
C 781 3207 614 3264 525 3264 
C 486 3264 448 3258 422 3245 
C 544 3790 915 4058 1306 4058 
C 1862 4058 2227 3617 2227 3035 
C 2227 2479 1901 2000 1536 1584 
L 262 146 
L 262 0 
L 2515 0 
L 2669 989 
z
" transform="scale(0.015625)"/>
       </defs>
       <use xlink:href="#CMR17-32" transform="scale(0.996264)"/>
       <use xlink:href="#CMR17-30" transform="translate(45.690477 0) scale(0.996264)"/>
      </g>
     </g>
    </g>
    <g id="xtick_3">
     <g id="line2d_7">
      <path d="M 108.804242 152.589249 
L 108.804242 7.059249 
" clip-path="url(#pbfeb09c053)" style="fill: none; stroke-dasharray: 1.85,0.8; stroke-dashoffset: 0; stroke: #000000; stroke-opacity: 0.5; stroke-width: 0.5"/>
     </g>
     <g id="line2d_8">
      <g>
       <use xlink:href="#m8acd389e1f" x="108.804242" y="152.589249" style="stroke: #000000; stroke-width: 0.5"/>
      </g>
     </g>
     <g id="line2d_9">
      <g>
       <use xlink:href="#ma2a77107fc" x="108.804242" y="7.059249" style="stroke: #000000; stroke-width: 0.5"/>
      </g>
     </g>
     <g id="text_3">
      <!-- $\mathdefault{40}$ -->
      <g transform="translate(103.822907 163.007748) scale(0.1 -0.1)">
       <defs>
        <path id="CMR17-34" d="M 2150 4122 
C 2150 4256 2144 4256 2029 4256 
L 128 1254 
L 128 1088 
L 1779 1088 
L 1779 457 
C 1779 224 1766 160 1318 160 
L 1197 160 
L 1197 0 
C 1402 0 1747 0 1965 0 
C 2182 0 2528 0 2733 0 
L 2733 160 
L 2611 160 
C 2163 160 2150 224 2150 457 
L 2150 1088 
L 2803 1088 
L 2803 1254 
L 2150 1254 
L 2150 4122 
z
M 1798 3703 
L 1798 1254 
L 256 1254 
L 1798 3703 
z
" transform="scale(0.015625)"/>
       </defs>
       <use xlink:href="#CMR17-34" transform="scale(0.996264)"/>
       <use xlink:href="#CMR17-30" transform="translate(45.690477 0) scale(0.996264)"/>
      </g>
     </g>
    </g>
    <g id="xtick_4">
     <g id="line2d_10">
      <path d="M 144.313333 152.589249 
L 144.313333 7.059249 
" clip-path="url(#pbfeb09c053)" style="fill: none; stroke-dasharray: 1.85,0.8; stroke-dashoffset: 0; stroke: #000000; stroke-opacity: 0.5; stroke-width: 0.5"/>
     </g>
     <g id="line2d_11">
      <g>
       <use xlink:href="#m8acd389e1f" x="144.313333" y="152.589249" style="stroke: #000000; stroke-width: 0.5"/>
      </g>
     </g>
     <g id="line2d_12">
      <g>
       <use xlink:href="#ma2a77107fc" x="144.313333" y="7.059249" style="stroke: #000000; stroke-width: 0.5"/>
      </g>
     </g>
     <g id="text_4">
      <!-- $\mathdefault{60}$ -->
      <g transform="translate(139.331998 163.007748) scale(0.1 -0.1)">
       <defs>
        <path id="CMR17-36" d="M 678 2176 
C 678 3690 1395 4032 1811 4032 
C 1946 4032 2272 4009 2400 3776 
C 2298 3776 2106 3776 2106 3553 
C 2106 3381 2246 3323 2336 3323 
C 2394 3323 2566 3348 2566 3560 
C 2566 3954 2246 4179 1805 4179 
C 1043 4179 243 3390 243 1984 
C 243 253 966 -128 1478 -128 
C 2099 -128 2688 427 2688 1283 
C 2688 2081 2170 2662 1517 2662 
C 1126 2662 838 2407 678 1960 
L 678 2176 
z
M 1478 25 
C 691 25 691 1200 691 1436 
C 691 1896 909 2560 1504 2560 
C 1613 2560 1926 2560 2138 2120 
C 2253 1870 2253 1609 2253 1289 
C 2253 944 2253 690 2118 434 
C 1978 171 1773 25 1478 25 
z
" transform="scale(0.015625)"/>
       </defs>
       <use xlink:href="#CMR17-36" transform="scale(0.996264)"/>
       <use xlink:href="#CMR17-30" transform="translate(45.690477 0) scale(0.996264)"/>
      </g>
     </g>
    </g>
    <g id="xtick_5">
     <g id="line2d_13">
      <path d="M 179.822424 152.589249 
L 179.822424 7.059249 
" clip-path="url(#pbfeb09c053)" style="fill: none; stroke-dasharray: 1.85,0.8; stroke-dashoffset: 0; stroke: #000000; stroke-opacity: 0.5; stroke-width: 0.5"/>
     </g>
     <g id="line2d_14">
      <g>
       <use xlink:href="#m8acd389e1f" x="179.822424" y="152.589249" style="stroke: #000000; stroke-width: 0.5"/>
      </g>
     </g>
     <g id="line2d_15">
      <g>
       <use xlink:href="#ma2a77107fc" x="179.822424" y="7.059249" style="stroke: #000000; stroke-width: 0.5"/>
      </g>
     </g>
     <g id="text_5">
      <!-- $\mathdefault{80}$ -->
      <g transform="translate(174.841088 163.007748) scale(0.1 -0.1)">
       <defs>
        <path id="CMR17-38" d="M 1741 2264 
C 2144 2467 2554 2773 2554 3263 
C 2554 3841 1990 4179 1472 4179 
C 890 4179 378 3759 378 3180 
C 378 3021 416 2747 666 2505 
C 730 2442 998 2251 1171 2130 
C 883 1983 211 1634 211 934 
C 211 279 838 -128 1459 -128 
C 2144 -128 2720 362 2720 1010 
C 2720 1590 2330 1857 2074 2029 
L 1741 2264 
z
M 902 2822 
C 851 2854 595 3051 595 3351 
C 595 3739 998 4032 1459 4032 
C 1965 4032 2336 3676 2336 3262 
C 2336 2669 1670 2331 1638 2331 
C 1632 2331 1626 2331 1574 2370 
L 902 2822 
z
M 2080 1519 
C 2176 1449 2483 1240 2483 851 
C 2483 381 2010 25 1472 25 
C 890 25 448 438 448 940 
C 448 1443 838 1862 1280 2060 
L 2080 1519 
z
" transform="scale(0.015625)"/>
       </defs>
       <use xlink:href="#CMR17-38" transform="scale(0.996264)"/>
       <use xlink:href="#CMR17-30" transform="translate(45.690477 0) scale(0.996264)"/>
      </g>
     </g>
    </g>
    <g id="xtick_6">
     <g id="line2d_16">
      <path d="M 215.331515 152.589249 
L 215.331515 7.059249 
" clip-path="url(#pbfeb09c053)" style="fill: none; stroke-dasharray: 1.85,0.8; stroke-dashoffset: 0; stroke: #000000; stroke-opacity: 0.5; stroke-width: 0.5"/>
     </g>
     <g id="line2d_17">
      <g>
       <use xlink:href="#m8acd389e1f" x="215.331515" y="152.589249" style="stroke: #000000; stroke-width: 0.5"/>
      </g>
     </g>
     <g id="line2d_18">
      <g>
       <use xlink:href="#ma2a77107fc" x="215.331515" y="7.059249" style="stroke: #000000; stroke-width: 0.5"/>
      </g>
     </g>
     <g id="text_6">
      <!-- $\mathdefault{100}$ -->
      <g transform="translate(207.859512 163.007748) scale(0.1 -0.1)">
       <defs>
        <path id="CMR17-31" d="M 1702 4058 
C 1702 4192 1696 4192 1606 4192 
C 1357 3916 979 3827 621 3827 
C 602 3827 570 3827 563 3808 
C 557 3795 557 3782 557 3648 
C 755 3648 1088 3686 1344 3839 
L 1344 461 
C 1344 236 1331 160 781 160 
L 589 160 
L 589 0 
C 896 0 1216 0 1523 0 
C 1830 0 2150 0 2458 0 
L 2458 160 
L 2266 160 
C 1715 160 1702 230 1702 458 
L 1702 4058 
z
" transform="scale(0.015625)"/>
       </defs>
       <use xlink:href="#CMR17-31" transform="scale(0.996264)"/>
       <use xlink:href="#CMR17-30" transform="translate(45.690477 0) scale(0.996264)"/>
       <use xlink:href="#CMR17-30" transform="translate(91.380954 0) scale(0.996264)"/>
      </g>
     </g>
    </g>
    <g id="xtick_7">
     <g id="line2d_19">
      <defs>
       <path id="m989b7f6739" d="M 0 0 
L 0 -1.5 
" style="stroke: #000000; stroke-width: 0.5"/>
      </defs>
      <g>
       <use xlink:href="#m989b7f6739" x="46.663333" y="152.589249" style="stroke: #000000; stroke-width: 0.5"/>
      </g>
     </g>
     <g id="line2d_20">
      <defs>
       <path id="mce7dd07681" d="M 0 0 
L 0 1.5 
" style="stroke: #000000; stroke-width: 0.5"/>
      </defs>
      <g>
       <use xlink:href="#mce7dd07681" x="46.663333" y="7.059249" style="stroke: #000000; stroke-width: 0.5"/>
      </g>
     </g>
    </g>
    <g id="xtick_8">
     <g id="line2d_21">
      <g>
       <use xlink:href="#m989b7f6739" x="55.540606" y="152.589249" style="stroke: #000000; stroke-width: 0.5"/>
      </g>
     </g>
     <g id="line2d_22">
      <g>
       <use xlink:href="#mce7dd07681" x="55.540606" y="7.059249" style="stroke: #000000; stroke-width: 0.5"/>
      </g>
     </g>
    </g>
    <g id="xtick_9">
     <g id="line2d_23">
      <g>
       <use xlink:href="#m989b7f6739" x="64.417878" y="152.589249" style="stroke: #000000; stroke-width: 0.5"/>
      </g>
     </g>
     <g id="line2d_24">
      <g>
       <use xlink:href="#mce7dd07681" x="64.417878" y="7.059249" style="stroke: #000000; stroke-width: 0.5"/>
      </g>
     </g>
    </g>
    <g id="xtick_10">
     <g id="line2d_25">
      <g>
       <use xlink:href="#m989b7f6739" x="82.172424" y="152.589249" style="stroke: #000000; stroke-width: 0.5"/>
      </g>
     </g>
     <g id="line2d_26">
      <g>
       <use xlink:href="#mce7dd07681" x="82.172424" y="7.059249" style="stroke: #000000; stroke-width: 0.5"/>
      </g>
     </g>
    </g>
    <g id="xtick_11">
     <g id="line2d_27">
      <g>
       <use xlink:href="#m989b7f6739" x="91.049696" y="152.589249" style="stroke: #000000; stroke-width: 0.5"/>
      </g>
     </g>
     <g id="line2d_28">
      <g>
       <use xlink:href="#mce7dd07681" x="91.049696" y="7.059249" style="stroke: #000000; stroke-width: 0.5"/>
      </g>
     </g>
    </g>
    <g id="xtick_12">
     <g id="line2d_29">
      <g>
       <use xlink:href="#m989b7f6739" x="99.926969" y="152.589249" style="stroke: #000000; stroke-width: 0.5"/>
      </g>
     </g>
     <g id="line2d_30">
      <g>
       <use xlink:href="#mce7dd07681" x="99.926969" y="7.059249" style="stroke: #000000; stroke-width: 0.5"/>
      </g>
     </g>
    </g>
    <g id="xtick_13">
     <g id="line2d_31">
      <g>
       <use xlink:href="#m989b7f6739" x="117.681515" y="152.589249" style="stroke: #000000; stroke-width: 0.5"/>
      </g>
     </g>
     <g id="line2d_32">
      <g>
       <use xlink:href="#mce7dd07681" x="117.681515" y="7.059249" style="stroke: #000000; stroke-width: 0.5"/>
      </g>
     </g>
    </g>
    <g id="xtick_14">
     <g id="line2d_33">
      <g>
       <use xlink:href="#m989b7f6739" x="126.558787" y="152.589249" style="stroke: #000000; stroke-width: 0.5"/>
      </g>
     </g>
     <g id="line2d_34">
      <g>
       <use xlink:href="#mce7dd07681" x="126.558787" y="7.059249" style="stroke: #000000; stroke-width: 0.5"/>
      </g>
     </g>
    </g>
    <g id="xtick_15">
     <g id="line2d_35">
      <g>
       <use xlink:href="#m989b7f6739" x="135.43606" y="152.589249" style="stroke: #000000; stroke-width: 0.5"/>
      </g>
     </g>
     <g id="line2d_36">
      <g>
       <use xlink:href="#mce7dd07681" x="135.43606" y="7.059249" style="stroke: #000000; stroke-width: 0.5"/>
      </g>
     </g>
    </g>
    <g id="xtick_16">
     <g id="line2d_37">
      <g>
       <use xlink:href="#m989b7f6739" x="153.190606" y="152.589249" style="stroke: #000000; stroke-width: 0.5"/>
      </g>
     </g>
     <g id="line2d_38">
      <g>
       <use xlink:href="#mce7dd07681" x="153.190606" y="7.059249" style="stroke: #000000; stroke-width: 0.5"/>
      </g>
     </g>
    </g>
    <g id="xtick_17">
     <g id="line2d_39">
      <g>
       <use xlink:href="#m989b7f6739" x="162.067878" y="152.589249" style="stroke: #000000; stroke-width: 0.5"/>
      </g>
     </g>
     <g id="line2d_40">
      <g>
       <use xlink:href="#mce7dd07681" x="162.067878" y="7.059249" style="stroke: #000000; stroke-width: 0.5"/>
      </g>
     </g>
    </g>
    <g id="xtick_18">
     <g id="line2d_41">
      <g>
       <use xlink:href="#m989b7f6739" x="170.945151" y="152.589249" style="stroke: #000000; stroke-width: 0.5"/>
      </g>
     </g>
     <g id="line2d_42">
      <g>
       <use xlink:href="#mce7dd07681" x="170.945151" y="7.059249" style="stroke: #000000; stroke-width: 0.5"/>
      </g>
     </g>
    </g>
    <g id="xtick_19">
     <g id="line2d_43">
      <g>
       <use xlink:href="#m989b7f6739" x="188.699696" y="152.589249" style="stroke: #000000; stroke-width: 0.5"/>
      </g>
     </g>
     <g id="line2d_44">
      <g>
       <use xlink:href="#mce7dd07681" x="188.699696" y="7.059249" style="stroke: #000000; stroke-width: 0.5"/>
      </g>
     </g>
    </g>
    <g id="xtick_20">
     <g id="line2d_45">
      <g>
       <use xlink:href="#m989b7f6739" x="197.576969" y="152.589249" style="stroke: #000000; stroke-width: 0.5"/>
      </g>
     </g>
     <g id="line2d_46">
      <g>
       <use xlink:href="#mce7dd07681" x="197.576969" y="7.059249" style="stroke: #000000; stroke-width: 0.5"/>
      </g>
     </g>
    </g>
    <g id="xtick_21">
     <g id="line2d_47">
      <g>
       <use xlink:href="#m989b7f6739" x="206.454242" y="152.589249" style="stroke: #000000; stroke-width: 0.5"/>
      </g>
     </g>
     <g id="line2d_48">
      <g>
       <use xlink:href="#mce7dd07681" x="206.454242" y="7.059249" style="stroke: #000000; stroke-width: 0.5"/>
      </g>
     </g>
    </g>
    <g id="xtick_22">
     <g id="line2d_49">
      <g>
       <use xlink:href="#m989b7f6739" x="224.208787" y="152.589249" style="stroke: #000000; stroke-width: 0.5"/>
      </g>
     </g>
     <g id="line2d_50">
      <g>
       <use xlink:href="#mce7dd07681" x="224.208787" y="7.059249" style="stroke: #000000; stroke-width: 0.5"/>
      </g>
     </g>
    </g>
    <g id="xtick_23">
     <g id="line2d_51">
      <g>
       <use xlink:href="#m989b7f6739" x="233.08606" y="152.589249" style="stroke: #000000; stroke-width: 0.5"/>
      </g>
     </g>
     <g id="line2d_52">
      <g>
       <use xlink:href="#mce7dd07681" x="233.08606" y="7.059249" style="stroke: #000000; stroke-width: 0.5"/>
      </g>
     </g>
    </g>
    <g id="text_7">
     <!-- $f$ [MHz] -->
     <g transform="translate(110.142453 179.704565) scale(0.144 -0.144)">
      <defs>
       <path id="CMMI12-66" d="M 2854 2566 
C 2982 2566 3034 2566 3034 2688 
C 3034 2752 2982 2752 2867 2752 
L 2349 2752 
C 2470 3429 2560 3897 2611 4107 
C 2650 4265 2784 4416 2950 4416 
C 3085 4416 3219 4358 3283 4298 
C 3034 4272 2957 4082 2957 3969 
C 2957 3837 3053 3759 3174 3759 
C 3302 3759 3494 3870 3494 4119 
C 3494 4393 3226 4544 2944 4544 
C 2669 4544 2400 4334 2272 4078 
C 2157 3848 2093 3611 1946 2752 
L 1517 2752 
C 1395 2752 1331 2752 1331 2637 
C 1331 2566 1370 2566 1498 2566 
L 1907 2566 
C 1792 1976 1530 542 1382 -137 
C 1274 -689 1178 -1152 858 -1152 
C 838 -1152 653 -1152 538 -1031 
C 864 -1005 864 -726 864 -720 
C 864 -593 768 -517 646 -517 
C 518 -517 326 -625 326 -867 
C 326 -1140 608 -1280 858 -1280 
C 1510 -1280 1779 -118 1850 199 
C 1965 688 2278 2376 2310 2566 
L 2854 2566 
z
" transform="scale(0.015625)"/>
       <path id="CMR17-5b" d="M 1504 -1600 
L 1504 -1377 
L 902 -1377 
L 902 4544 
L 1504 4544 
L 1504 4767 
L 678 4767 
L 678 -1600 
L 1504 -1600 
z
" transform="scale(0.015625)"/>
       <path id="CMR17-4d" d="M 1338 4224 
C 1299 4320 1293 4320 1158 4320 
L 339 4320 
L 339 4160 
C 781 4160 851 4160 851 3875 
L 851 610 
C 851 451 851 153 339 153 
L 339 -13 
C 486 0 755 0 915 0 
C 1075 0 1344 0 1491 -13 
L 1491 153 
C 979 153 979 451 979 610 
L 979 4135 
L 986 4135 
L 2490 89 
C 2515 25 2528 -13 2579 -13 
C 2630 -13 2643 25 2669 89 
L 4186 4166 
L 4192 4166 
L 4192 438 
C 4192 153 4122 153 3680 153 
L 3680 -13 
C 3853 0 4198 0 4384 0 
C 4570 0 4922 0 5094 -13 
L 5094 153 
C 4653 153 4582 153 4582 438 
L 4582 3875 
C 4582 4160 4653 4160 5094 4160 
L 5094 4320 
L 4282 4320 
C 4147 4320 4141 4314 4102 4218 
L 2720 502 
L 1338 4224 
z
" transform="scale(0.015625)"/>
       <path id="CMR17-48" d="M 3590 3905 
C 3590 4192 3661 4192 4102 4192 
L 4102 4352 
C 3917 4352 3578 4352 3379 4352 
C 3181 4352 2842 4352 2656 4352 
L 2656 4192 
C 3098 4192 3168 4192 3168 3904 
L 3168 2341 
L 1261 2341 
L 1261 3904 
C 1261 4192 1331 4192 1773 4192 
L 1773 4352 
C 1587 4352 1248 4352 1050 4352 
C 851 4352 512 4352 326 4352 
L 326 4192 
C 768 4192 838 4192 838 3905 
L 838 447 
C 838 160 768 160 326 160 
L 326 0 
C 512 0 851 0 1050 0 
C 1248 0 1587 0 1773 0 
L 1773 160 
C 1331 160 1261 160 1261 446 
L 1261 2176 
L 3168 2176 
L 3168 446 
C 3168 160 3098 160 2656 160 
L 2656 0 
C 2842 0 3181 0 3379 0 
C 3578 0 3917 0 4102 0 
L 4102 160 
C 3661 160 3590 160 3590 447 
L 3590 3905 
z
" transform="scale(0.015625)"/>
       <path id="CMR17-7a" d="M 2310 2605 
C 2362 2670 2362 2682 2362 2695 
C 2362 2752 2336 2752 2221 2752 
L 275 2752 
L 211 1760 
L 326 1760 
C 371 2381 442 2650 1178 2650 
L 1958 2650 
L 128 96 
C 128 0 134 0 269 0 
L 2291 0 
L 2381 1152 
L 2266 1152 
C 2214 442 2131 115 1350 115 
L 531 115 
L 2310 2605 
z
" transform="scale(0.015625)"/>
       <path id="CMR17-5d" d="M 915 4767 
L 90 4767 
L 90 4544 
L 691 4544 
L 691 -1377 
L 90 -1377 
L 90 -1600 
L 915 -1600 
L 915 4767 
z
" transform="scale(0.015625)"/>
      </defs>
      <use xlink:href="#CMMI12-66" transform="scale(0.996264)"/>
      <use xlink:href="#CMR17-5b" transform="translate(88.796271 0) scale(0.996264)"/>
      <use xlink:href="#CMR17-4d" transform="translate(113.66733 0) scale(0.996264)"/>
      <use xlink:href="#CMR17-48" transform="translate(198.35427 0) scale(0.996264)"/>
      <use xlink:href="#CMR17-7a" transform="translate(267.4267 0) scale(0.996264)"/>
      <use xlink:href="#CMR17-5d" transform="translate(307.912361 0) scale(0.996264)"/>
     </g>
    </g>
   </g>
   <g id="matplotlib.axis_2">
    <g id="ytick_1">
     <g id="line2d_53">
      <path d="M 37.78606 152.589249 
L 233.08606 152.589249 
" clip-path="url(#pbfeb09c053)" style="fill: none; stroke-dasharray: 1.85,0.8; stroke-dashoffset: 0; stroke: #000000; stroke-opacity: 0.5; stroke-width: 0.5"/>
     </g>
     <g id="line2d_54">
      <defs>
       <path id="m9c49f92bcf" d="M 0 0 
L 3 0 
" style="stroke: #000000; stroke-width: 0.5"/>
      </defs>
      <g>
       <use xlink:href="#m9c49f92bcf" x="37.78606" y="152.589249" style="stroke: #000000; stroke-width: 0.5"/>
      </g>
     </g>
     <g id="line2d_55">
      <defs>
       <path id="m752e1a3a15" d="M 0 0 
L -3 0 
" style="stroke: #000000; stroke-width: 0.5"/>
      </defs>
      <g>
       <use xlink:href="#m752e1a3a15" x="233.08606" y="152.589249" style="stroke: #000000; stroke-width: 0.5"/>
      </g>
     </g>
     <g id="text_8">
      <!-- $\mathdefault{10^{1}}$ -->
      <g transform="translate(20.352152 156.048498) scale(0.1 -0.1)">
       <use xlink:href="#CMR17-31" transform="scale(0.996264)"/>
       <use xlink:href="#CMR17-30" transform="translate(45.690477 0) scale(0.996264)"/>
       <use xlink:href="#CMR17-31" transform="translate(91.380954 36.153639) scale(0.697382)"/>
      </g>
     </g>
    </g>
    <g id="ytick_2">
     <g id="line2d_56">
      <path d="M 37.78606 104.079249 
L 233.08606 104.079249 
" clip-path="url(#pbfeb09c053)" style="fill: none; stroke-dasharray: 1.85,0.8; stroke-dashoffset: 0; stroke: #000000; stroke-opacity: 0.5; stroke-width: 0.5"/>
     </g>
     <g id="line2d_57">
      <g>
       <use xlink:href="#m9c49f92bcf" x="37.78606" y="104.079249" style="stroke: #000000; stroke-width: 0.5"/>
      </g>
     </g>
     <g id="line2d_58">
      <g>
       <use xlink:href="#m752e1a3a15" x="233.08606" y="104.079249" style="stroke: #000000; stroke-width: 0.5"/>
      </g>
     </g>
     <g id="text_9">
      <!-- $\mathdefault{10^{3}}$ -->
      <g transform="translate(20.352152 107.538498) scale(0.1 -0.1)">
       <defs>
        <path id="CMR17-33" d="M 1414 2157 
C 1984 2157 2234 1662 2234 1090 
C 2234 320 1824 25 1453 25 
C 1114 25 563 194 390 693 
C 422 680 454 680 486 680 
C 640 680 755 782 755 948 
C 755 1133 614 1216 486 1216 
C 378 1216 211 1165 211 926 
C 211 335 787 -128 1466 -128 
C 2176 -128 2720 430 2720 1085 
C 2720 1707 2208 2157 1600 2227 
C 2086 2328 2554 2756 2554 3329 
C 2554 3820 2048 4179 1472 4179 
C 890 4179 378 3829 378 3329 
C 378 3110 544 3072 627 3072 
C 762 3072 877 3155 877 3321 
C 877 3486 762 3569 627 3569 
C 602 3569 570 3569 544 3557 
C 730 3959 1235 4032 1459 4032 
C 1683 4032 2106 3925 2106 3320 
C 2106 3143 2080 2828 1862 2550 
C 1670 2304 1453 2304 1242 2284 
C 1210 2284 1062 2269 1037 2269 
C 992 2263 966 2257 966 2208 
C 966 2163 973 2157 1101 2157 
L 1414 2157 
z
" transform="scale(0.015625)"/>
       </defs>
       <use xlink:href="#CMR17-31" transform="scale(0.996264)"/>
       <use xlink:href="#CMR17-30" transform="translate(45.690477 0) scale(0.996264)"/>
       <use xlink:href="#CMR17-33" transform="translate(91.380954 36.153639) scale(0.697382)"/>
      </g>
     </g>
    </g>
    <g id="ytick_3">
     <g id="line2d_59">
      <path d="M 37.78606 55.569249 
L 233.08606 55.569249 
" clip-path="url(#pbfeb09c053)" style="fill: none; stroke-dasharray: 1.85,0.8; stroke-dashoffset: 0; stroke: #000000; stroke-opacity: 0.5; stroke-width: 0.5"/>
     </g>
     <g id="line2d_60">
      <g>
       <use xlink:href="#m9c49f92bcf" x="37.78606" y="55.569249" style="stroke: #000000; stroke-width: 0.5"/>
      </g>
     </g>
     <g id="line2d_61">
      <g>
       <use xlink:href="#m752e1a3a15" x="233.08606" y="55.569249" style="stroke: #000000; stroke-width: 0.5"/>
      </g>
     </g>
     <g id="text_10">
      <!-- $\mathdefault{10^{5}}$ -->
      <g transform="translate(20.352152 59.028498) scale(0.1 -0.1)">
       <defs>
        <path id="CMR17-35" d="M 730 3692 
C 794 3666 1056 3584 1325 3584 
C 1920 3584 2246 3911 2432 4100 
C 2432 4157 2432 4192 2394 4192 
C 2387 4192 2374 4192 2323 4163 
C 2099 4058 1837 3973 1517 3973 
C 1325 3973 1037 3999 723 4139 
C 653 4171 640 4171 634 4171 
C 602 4171 595 4164 595 4037 
L 595 2203 
C 595 2089 595 2057 659 2057 
C 691 2057 704 2070 736 2114 
C 941 2401 1222 2522 1542 2522 
C 1766 2522 2246 2382 2246 1289 
C 2246 1085 2246 715 2054 421 
C 1894 159 1645 25 1370 25 
C 947 25 518 320 403 814 
C 429 807 480 795 506 795 
C 589 795 749 840 749 1038 
C 749 1210 627 1280 506 1280 
C 358 1280 262 1190 262 1011 
C 262 454 704 -128 1382 -128 
C 2042 -128 2669 440 2669 1264 
C 2669 2030 2170 2624 1549 2624 
C 1222 2624 947 2503 730 2274 
L 730 3692 
z
" transform="scale(0.015625)"/>
       </defs>
       <use xlink:href="#CMR17-31" transform="scale(0.996264)"/>
       <use xlink:href="#CMR17-30" transform="translate(45.690477 0) scale(0.996264)"/>
       <use xlink:href="#CMR17-35" transform="translate(91.380954 36.153639) scale(0.697382)"/>
      </g>
     </g>
    </g>
    <g id="ytick_4">
     <g id="line2d_62">
      <path d="M 37.78606 7.059249 
L 233.08606 7.059249 
" clip-path="url(#pbfeb09c053)" style="fill: none; stroke-dasharray: 1.85,0.8; stroke-dashoffset: 0; stroke: #000000; stroke-opacity: 0.5; stroke-width: 0.5"/>
     </g>
     <g id="line2d_63">
      <g>
       <use xlink:href="#m9c49f92bcf" x="37.78606" y="7.059249" style="stroke: #000000; stroke-width: 0.5"/>
      </g>
     </g>
     <g id="line2d_64">
      <g>
       <use xlink:href="#m752e1a3a15" x="233.08606" y="7.059249" style="stroke: #000000; stroke-width: 0.5"/>
      </g>
     </g>
     <g id="text_11">
      <!-- $\mathdefault{10^{7}}$ -->
      <g transform="translate(20.352152 10.518498) scale(0.1 -0.1)">
       <defs>
        <path id="CMR17-37" d="M 2886 3941 
L 2886 4081 
L 1382 4081 
C 634 4081 621 4165 595 4288 
L 480 4288 
L 294 3094 
L 410 3094 
C 429 3215 474 3540 550 3661 
C 589 3712 1062 3712 1171 3712 
L 2579 3712 
L 1869 2661 
C 1395 1954 1069 999 1069 165 
C 1069 89 1069 -128 1299 -128 
C 1530 -128 1530 89 1530 171 
L 1530 465 
C 1530 1508 1709 2196 2003 2636 
L 2886 3941 
z
" transform="scale(0.015625)"/>
       </defs>
       <use xlink:href="#CMR17-31" transform="scale(0.996264)"/>
       <use xlink:href="#CMR17-30" transform="translate(45.690477 0) scale(0.996264)"/>
       <use xlink:href="#CMR17-37" transform="translate(91.380954 36.153639) scale(0.697382)"/>
      </g>
     </g>
    </g>
    <g id="text_12">
     <!-- $FFT$ -->
     <g transform="translate(13.562625 94.985154) rotate(-90) scale(0.144 -0.144)">
      <defs>
       <path id="CMMI12-46" d="M 1901 2055 
L 2515 2055 
C 3002 2055 3040 1946 3040 1761 
C 3040 1678 3027 1589 2995 1448 
C 2982 1423 2976 1391 2976 1378 
C 2976 1333 3002 1308 3046 1308 
C 3098 1308 3104 1333 3130 1435 
L 3501 2935 
C 3501 2961 3482 2999 3437 2999 
C 3379 2999 3373 2974 3347 2863 
C 3213 2376 3085 2240 2528 2240 
L 1946 2240 
L 2362 3926 
C 2419 4154 2432 4154 2694 4154 
L 3552 4154 
C 4352 4154 4467 3918 4467 3464 
C 4467 3426 4467 3285 4448 3119 
C 4442 3094 4429 3011 4429 2985 
C 4429 2934 4461 2915 4499 2915 
C 4544 2915 4570 2941 4582 3055 
L 4717 4174 
C 4717 4195 4730 4263 4730 4277 
C 4730 4352 4672 4352 4557 4352 
L 1523 4352 
C 1402 4352 1338 4352 1338 4229 
C 1338 4154 1382 4154 1491 4154 
C 1888 4154 1888 4113 1888 4050 
C 1888 4018 1882 3992 1862 3922 
L 998 473 
C 941 249 928 185 480 185 
C 358 185 294 185 294 70 
C 294 0 352 0 390 0 
C 512 0 640 0 762 0 
L 1594 0 
C 1734 0 1888 0 2029 0 
C 2086 0 2163 0 2163 115 
C 2163 185 2125 185 1984 185 
C 1478 185 1466 229 1466 324 
C 1466 356 1478 406 1491 449 
L 1901 2055 
z
" transform="scale(0.015625)"/>
       <path id="CMMI12-54" d="M 2669 3910 
C 2707 4064 2720 4121 2816 4147 
C 2867 4160 3078 4160 3213 4160 
C 3853 4160 4154 4134 4154 3634 
C 4154 3537 4128 3295 4090 3057 
L 4083 2980 
C 4083 2954 4109 2916 4147 2916 
C 4211 2916 4211 2948 4230 3050 
L 4416 4184 
C 4429 4243 4429 4256 4429 4275 
C 4429 4345 4390 4345 4262 4345 
L 762 4345 
C 614 4345 608 4339 570 4224 
L 179 3070 
C 173 3056 154 2986 154 2980 
C 154 2948 179 2916 218 2916 
C 269 2916 282 2941 307 3024 
C 576 3801 710 4160 1562 4160 
L 1990 4160 
C 2144 4160 2208 4160 2208 4089 
C 2208 4069 2208 4057 2176 3941 
L 1318 499 
C 1254 249 1242 185 563 185 
C 403 185 358 185 358 64 
C 358 0 429 0 461 0 
C 621 0 787 0 947 0 
L 1946 0 
C 2106 0 2278 0 2438 0 
C 2509 0 2573 0 2573 121 
C 2573 185 2528 185 2362 185 
C 1786 185 1786 243 1786 339 
C 1786 346 1786 391 1811 494 
L 2669 3910 
z
" transform="scale(0.015625)"/>
      </defs>
      <use xlink:href="#CMMI12-46" transform="scale(0.996264)"/>
      <use xlink:href="#CMMI12-46" transform="translate(76.696793 0) scale(0.996264)"/>
      <use xlink:href="#CMMI12-54" transform="translate(153.393585 0) scale(0.996264)"/>
     </g>
    </g>
   </g>
   <g id="line2d_65">
    <path d="M 37.78606 98.318376 
L 37.874833 98.137043 
L 37.963606 99.437087 
L 38.052378 105.069268 
L 38.141151 121.176422 
L 38.496242 96.987628 
L 38.673787 96.422691 
L 38.76256 96.653673 
L 38.851333 98.242897 
L 39.028878 105.013669 
L 39.206424 94.83523 
L 39.295196 94.397428 
L 39.472742 100.121933 
L 39.650287 104.09408 
L 39.827833 107.537665 
L 40.005378 94.415143 
L 40.094151 93.446035 
L 40.182924 95.504432 
L 40.449242 115.544212 
L 40.538015 109.843313 
L 40.626787 105.347248 
L 40.71556 111.652669 
L 40.804333 108.111636 
L 40.981878 92.876129 
L 41.070651 93.616677 
L 41.159424 98.980349 
L 41.248196 116.091467 
L 41.514515 102.615116 
L 41.603287 101.248338 
L 41.869606 90.664767 
L 41.958378 91.736837 
L 42.135924 106.213848 
L 42.224696 125.638902 
L 42.491015 104.435625 
L 42.579787 100.156538 
L 42.66856 100.507023 
L 42.757333 108.233018 
L 42.846106 108.2038 
L 43.023651 93.00684 
L 43.112424 91.91485 
L 43.201196 93.055568 
L 43.378742 104.54157 
L 43.467515 103.434386 
L 43.64506 95.296938 
L 43.911378 99.888696 
L 44.177696 93.91748 
L 44.266469 94.172509 
L 44.62156 96.710583 
L 44.710333 97.161076 
L 44.799106 98.809084 
L 44.887878 102.645042 
L 44.976651 111.983988 
L 45.065424 111.170512 
L 45.242969 96.109876 
L 45.331742 96.138531 
L 45.509287 106.223045 
L 45.59806 117.896472 
L 45.864378 95.040881 
L 46.041924 91.288068 
L 46.130696 91.461453 
L 46.308242 99.75864 
L 46.485787 92.465159 
L 46.57456 94.025494 
L 46.752106 108.518965 
L 46.929651 94.691194 
L 47.018424 97.20169 
L 47.107196 103.234129 
L 47.195969 102.139908 
L 47.284742 99.282233 
L 47.373515 102.220379 
L 47.462287 121.597049 
L 47.639833 94.010276 
L 47.728606 92.650144 
L 47.817378 94.115798 
L 47.994924 99.734405 
L 48.083696 99.481518 
L 48.172469 100.78493 
L 48.350015 115.342948 
L 48.438787 110.958895 
L 48.616333 100.235387 
L 48.705106 100.932438 
L 48.793878 107.306654 
L 49.060196 92.659074 
L 49.148969 93.672177 
L 49.415287 106.394928 
L 49.50406 105.409928 
L 49.592833 106.629022 
L 49.681606 114.46666 
L 49.859151 106.227137 
L 49.947924 114.597038 
L 50.036696 111.182692 
L 50.214242 101.956856 
L 50.303015 106.635888 
L 50.391787 118.353054 
L 50.48056 116.266102 
L 50.658106 104.202282 
L 50.746878 112.954371 
L 50.835651 110.938114 
L 50.924424 103.629972 
L 51.013196 103.678211 
L 51.190742 99.298234 
L 51.368287 103.739935 
L 51.634606 91.107699 
L 51.723378 91.092884 
L 51.900924 93.158532 
L 52.167242 102.295869 
L 52.522333 92.683931 
L 52.611106 92.328883 
L 52.877424 100.630261 
L 53.054969 94.312473 
L 53.143742 94.922677 
L 53.41006 100.412316 
L 53.587606 95.380954 
L 53.676378 98.014502 
L 53.765151 116.336326 
L 53.942696 96.137233 
L 54.120242 108.075074 
L 54.209015 113.591751 
L 54.38656 91.399761 
L 54.475333 100.574312 
L 54.564106 95.404825 
L 54.652878 110.373919 
L 54.741651 86.857882 
L 54.830424 99.719306 
L 54.919196 76.97691 
L 55.007969 114.051665 
L 55.096742 66.093118 
L 55.185515 101.31578 
L 55.36306 34.05105 
L 55.540606 26.764181 
L 55.629378 28.491374 
L 55.806924 45.43004 
L 55.895696 103.344763 
L 55.984469 65.962485 
L 56.073242 104.79821 
L 56.162015 77.798873 
L 56.250787 105.552392 
L 56.33956 85.808494 
L 56.428333 102.046432 
L 56.517106 89.655432 
L 56.605878 102.172431 
L 56.694651 96.88385 
L 56.872196 108.315774 
L 57.049742 98.16013 
L 57.227287 113.809896 
L 57.404833 92.631347 
L 57.493606 92.512862 
L 57.759924 97.495651 
L 57.937469 107.342223 
L 58.026242 107.670561 
L 58.115015 118.773729 
L 58.381333 99.432434 
L 58.470106 100.243416 
L 58.647651 113.941191 
L 58.736424 112.929655 
L 58.825196 111.735782 
L 59.091515 102.165957 
L 59.26906 107.299193 
L 59.446606 98.132989 
L 59.535378 98.250903 
L 59.712924 106.105933 
L 59.979242 96.912785 
L 60.068015 96.210861 
L 60.156787 99.273221 
L 60.334333 114.229118 
L 60.423106 108.709938 
L 60.600651 119.732989 
L 60.689424 115.574487 
L 60.778196 117.586287 
L 60.866969 116.179227 
L 61.133287 94.857865 
L 61.22206 93.974142 
L 61.310833 96.56376 
L 61.399606 103.649766 
L 61.577151 98.221682 
L 61.665924 100.156583 
L 61.754696 106.67203 
L 61.843469 106.625266 
L 62.109787 97.483418 
L 62.19856 97.883023 
L 62.376106 103.610153 
L 62.464878 102.443282 
L 62.642424 96.428563 
L 62.731196 96.575658 
L 62.908742 100.052613 
L 63.086287 96.192893 
L 63.17506 98.422795 
L 63.352606 107.429073 
L 63.441378 107.327315 
L 63.530151 114.073559 
L 63.707696 93.093163 
L 63.796469 90.775088 
L 63.885242 91.114358 
L 64.062787 99.052711 
L 64.240333 111.918179 
L 64.329106 105.693011 
L 64.506651 113.79522 
L 64.684196 99.559022 
L 64.772969 100.4593 
L 65.039287 109.762706 
L 65.12806 109.119158 
L 65.216833 109.820055 
L 65.394378 101.831695 
L 65.571924 95.243014 
L 65.660696 94.916712 
L 65.749469 97.195572 
L 65.927015 106.024554 
L 66.193333 96.465924 
L 66.370878 92.189312 
L 66.459651 92.247786 
L 66.725969 98.006533 
L 66.903515 94.403468 
L 66.992287 94.797212 
L 67.258606 103.346069 
L 67.436151 98.313061 
L 67.524924 100.93076 
L 67.613696 110.619849 
L 67.702469 108.797378 
L 67.880015 100.096905 
L 68.323878 112.281281 
L 68.412651 128.560798 
L 68.590196 105.503158 
L 68.678969 102.63862 
L 68.767742 103.346009 
L 68.856515 106.874095 
L 69.122833 98.389166 
L 69.211606 101.141743 
L 69.300378 100.609129 
L 69.477924 96.811473 
L 69.655469 99.351877 
L 69.833015 104.899496 
L 69.921787 110.076632 
L 70.01056 108.569509 
L 70.188106 102.444375 
L 70.276878 102.770796 
L 70.365651 102.721037 
L 70.454424 102.832438 
L 70.631969 104.690063 
L 70.809515 117.943639 
L 70.98706 108.760985 
L 71.253378 101.465044 
L 71.342151 101.823867 
L 71.430924 101.153081 
L 71.519696 102.763703 
L 71.608469 111.147746 
L 71.697242 108.079372 
L 71.874787 96.776416 
L 72.052333 95.588772 
L 72.141106 96.45803 
L 72.496196 105.252561 
L 72.584969 105.103403 
L 72.673742 105.106423 
L 72.851287 98.147961 
L 72.94006 95.358783 
L 73.028833 95.85915 
L 73.117606 100.671123 
L 73.295151 115.980622 
L 73.383924 114.579371 
L 73.472696 116.155605 
L 73.650242 106.499546 
L 73.739015 106.91313 
L 73.91656 105.79727 
L 74.094106 108.129042 
L 74.182878 107.972627 
L 74.449196 103.809749 
L 74.804287 102.225285 
L 74.89306 103.19352 
L 74.981833 107.342264 
L 75.159378 130.540975 
L 75.425696 107.180196 
L 75.514469 109.961003 
L 75.603242 124.373089 
L 75.86956 104.823006 
L 75.958333 104.186474 
L 76.047106 104.626365 
L 76.224651 109.999294 
L 76.402196 118.516594 
L 76.579742 108.635948 
L 76.668515 110.417221 
L 76.757287 119.013342 
L 77.023606 103.460851 
L 77.112378 102.781704 
L 77.201151 103.45206 
L 77.378696 111.426832 
L 77.556242 130.525091 
L 77.733787 108.07442 
L 77.82256 107.654087 
L 77.911333 116.943552 
L 78.000106 115.378801 
L 78.088878 107.325193 
L 78.177651 108.919182 
L 78.266424 117.485612 
L 78.532742 104.481938 
L 78.621515 102.668797 
L 78.710287 103.791532 
L 78.79906 112.583364 
L 78.887833 111.13698 
L 79.065378 96.522835 
L 79.154151 95.491554 
L 79.242924 96.174042 
L 79.331696 99.439741 
L 79.420469 110.413823 
L 79.509242 109.287855 
L 79.598015 101.264613 
L 79.686787 101.490438 
L 80.041878 117.740758 
L 80.219424 109.08431 
L 80.396969 119.701073 
L 80.485742 115.967374 
L 80.663287 109.748285 
L 80.75206 111.843685 
L 80.929606 121.090177 
L 81.195924 106.526069 
L 81.373469 104.314851 
L 81.462242 105.428716 
L 81.639787 110.773455 
L 81.817333 107.28509 
L 81.906106 108.550635 
L 81.994878 107.903506 
L 82.261196 100.022074 
L 82.349969 99.216949 
L 82.438742 99.420662 
L 82.616287 102.768104 
L 82.882606 115.207902 
L 82.971378 113.954187 
L 83.148924 103.951907 
L 83.415242 95.530169 
L 83.504015 95.279663 
L 83.68156 96.954585 
L 84.036651 103.376593 
L 84.125424 102.650566 
L 84.214196 105.127727 
L 84.302969 114.642411 
L 84.569287 100.20309 
L 84.65806 99.709818 
L 84.746833 101.780128 
L 84.924378 109.728645 
L 85.101924 104.7638 
L 85.190696 105.162368 
L 85.368242 98.250934 
L 85.457015 98.56858 
L 85.545787 102.589796 
L 85.63456 111.998883 
L 85.723333 110.461958 
L 85.812106 107.00564 
L 85.989651 111.8337 
L 86.078424 110.667015 
L 86.255969 105.123563 
L 86.344742 105.959264 
L 86.433515 108.288082 
L 86.699833 97.803333 
L 86.788606 99.796967 
L 86.966151 106.861012 
L 87.232469 102.067742 
L 87.498787 97.880607 
L 87.58756 98.307118 
L 87.765106 100.431705 
L 87.942651 97.959393 
L 88.031424 98.360726 
L 88.120196 101.659601 
L 88.297742 117.906883 
L 88.386515 113.136291 
L 88.475287 114.908327 
L 88.56406 131.047793 
L 88.741606 114.295951 
L 88.919151 123.328599 
L 89.007924 115.721466 
L 89.096696 123.180208 
L 89.185469 123.018381 
L 89.274242 118.514568 
L 89.363015 134.26911 
L 89.54056 104.484649 
L 89.629333 102.315266 
L 89.718106 102.407729 
L 90.073196 112.178432 
L 90.250742 99.455426 
L 90.339515 102.09191 
L 90.428287 148.106246 
L 90.605833 93.54416 
L 90.694606 101.495804 
L 90.872151 63.080712 
L 91.049696 55.625588 
L 91.138469 57.279043 
L 91.316015 73.72442 
L 91.404787 109.501016 
L 91.49356 94.821809 
L 91.671106 113.2902 
L 91.759878 103.666574 
L 91.848651 104.537482 
L 91.937424 109.701412 
L 92.114969 100.559105 
L 92.203742 101.500597 
L 92.647606 113.490866 
L 92.825151 107.874525 
L 93.002696 111.017911 
L 93.269015 105.710666 
L 93.357787 105.093744 
L 93.44656 105.76913 
L 93.535333 108.110938 
L 93.624106 107.656363 
L 93.890424 100.128624 
L 93.979196 99.915054 
L 94.067969 99.980462 
L 94.156742 100.932598 
L 94.334287 107.82585 
L 94.511833 128.024711 
L 94.778151 101.070303 
L 94.866924 98.087644 
L 94.955696 99.137785 
L 95.133242 115.700802 
L 95.310787 102.327324 
L 95.39956 106.729962 
L 95.488333 117.504482 
L 95.665878 109.148041 
L 95.754651 114.961658 
L 95.932196 110.873681 
L 96.020969 123.007591 
L 96.287287 100.987174 
L 96.731151 107.73837 
L 96.819924 115.124858 
L 97.263787 95.624976 
L 97.35256 94.140186 
L 97.441333 94.587678 
L 97.885196 111.534865 
L 98.062742 104.360871 
L 98.151515 104.529954 
L 98.32906 110.796092 
L 98.417833 109.608839 
L 98.506606 111.371204 
L 98.595378 117.230486 
L 98.772924 101.968472 
L 98.861696 101.811475 
L 98.950469 105.994435 
L 99.039242 119.706751 
L 99.483106 105.06411 
L 99.571878 105.295847 
L 99.660651 108.268206 
L 99.749424 119.973886 
L 100.104515 98.824376 
L 100.193287 99.144303 
L 100.370833 100.307971 
L 100.459606 100.33251 
L 100.725924 105.587487 
L 100.814696 104.475492 
L 100.992242 102.679396 
L 101.081015 103.998831 
L 101.347333 116.69912 
L 101.436106 114.427428 
L 101.613651 104.333729 
L 101.702424 103.792118 
L 101.879969 105.53636 
L 102.146287 97.645882 
L 102.23506 99.020033 
L 102.323833 103.897343 
L 102.412606 116.994507 
L 102.501378 114.873036 
L 102.678924 109.364514 
L 102.856469 100.96155 
L 102.945242 100.978767 
L 103.034015 101.131122 
L 103.122787 101.965429 
L 103.300333 108.760456 
L 103.477878 103.120431 
L 103.832969 110.474653 
L 103.921742 115.073544 
L 104.010515 140.220254 
L 104.18806 112.984394 
L 104.276833 115.593453 
L 104.454378 105.365491 
L 104.809469 102.514438 
L 104.898242 102.608539 
L 104.987015 104.74057 
L 105.16456 113.730572 
L 105.430878 104.055093 
L 105.519651 105.503173 
L 105.785969 113.798361 
L 105.963515 123.843411 
L 106.14106 108.97761 
L 106.229833 106.718868 
L 106.318606 106.837996 
L 106.584924 116.294565 
L 106.673696 115.550385 
L 107.028787 102.771644 
L 107.11756 102.363818 
L 107.206333 103.089128 
L 107.295106 105.6497 
L 107.472651 119.843573 
L 107.561424 110.33427 
L 107.650196 111.746049 
L 107.738969 126.036577 
L 107.916515 106.030181 
L 108.182833 96.94677 
L 108.271606 96.43566 
L 108.360378 97.166064 
L 108.537924 104.451136 
L 108.715469 119.016236 
L 108.893015 109.846849 
L 108.981787 109.287002 
L 109.07056 112.432183 
L 109.159333 123.804892 
L 109.425651 101.677971 
L 109.603196 97.465902 
L 109.691969 98.445065 
L 109.869515 106.786811 
L 110.135833 129.481649 
L 110.313378 104.356138 
L 110.490924 100.295791 
L 111.02356 110.396398 
L 111.201106 103.687429 
L 111.289878 104.267755 
L 111.378651 108.931403 
L 111.467424 107.885354 
L 111.644969 102.073276 
L 111.822515 115.773088 
L 112.00006 108.042731 
L 112.088833 107.80187 
L 112.266378 105.277113 
L 112.355151 107.727795 
L 112.443924 115.423041 
L 112.799015 98.612302 
L 112.97656 104.993627 
L 113.154106 111.435591 
L 113.509196 104.757882 
L 113.597969 104.598324 
L 113.864287 100.436171 
L 113.95306 100.547088 
L 114.219378 105.62709 
L 114.308151 105.013474 
L 114.574469 101.383235 
L 114.752015 100.902395 
L 114.840787 101.143632 
L 114.92956 102.700315 
L 115.107106 112.592264 
L 115.284651 126.799128 
L 115.550969 116.99778 
L 115.728515 125.581315 
L 115.994833 104.233665 
L 116.083606 103.454379 
L 116.349924 107.219135 
L 116.527469 105.424837 
L 116.705015 118.261519 
L 116.88256 109.009152 
L 117.237651 125.77269 
L 117.415196 108.6183 
L 117.503969 110.342076 
L 117.592742 123.343451 
L 117.947833 109.95582 
L 118.214151 116.482442 
L 118.569242 107.682372 
L 118.746787 113.822709 
L 118.924333 105.125474 
L 119.101878 110.527489 
L 119.190651 119.286762 
L 119.456969 104.093493 
L 119.545742 103.89575 
L 119.634515 104.263377 
L 119.723287 106.563148 
L 119.900833 126.426096 
L 120.078378 104.169448 
L 120.167151 102.435947 
L 120.255924 103.40888 
L 120.344696 108.134624 
L 120.433469 123.344961 
L 120.699787 109.342846 
L 120.78856 110.304823 
L 120.877333 116.028382 
L 120.966106 141.273305 
L 121.143651 113.311425 
L 121.232424 114.778246 
L 121.587515 101.070331 
L 121.676287 101.228096 
L 121.853833 104.277052 
L 122.208924 112.976583 
L 122.297696 112.630587 
L 122.386469 112.098246 
L 122.475242 113.861047 
L 122.564015 119.444199 
L 122.919106 98.058674 
L 123.007878 98.644371 
L 123.274196 107.892279 
L 123.362969 107.736025 
L 123.540515 108.942771 
L 123.629287 108.892298 
L 123.71806 110.872865 
L 123.806833 123.690831 
L 123.984378 104.349108 
L 124.073151 103.105759 
L 124.161924 105.990539 
L 124.339469 120.848148 
L 124.872106 106.502546 
L 125.049651 105.730761 
L 125.138424 106.281734 
L 125.227196 106.005579 
L 125.315969 105.135061 
L 125.404742 105.610064 
L 125.848606 122.22967 
L 125.937378 120.005593 
L 126.114924 96.387785 
L 126.203696 99.269128 
L 126.470015 68.23968 
L 126.558787 66.467917 
L 126.64756 68.13162 
L 126.825106 84.237873 
L 126.913878 105.522015 
L 127.002651 103.985422 
L 127.180196 108.884975 
L 127.268969 107.568019 
L 127.357742 107.605539 
L 127.535287 105.173352 
L 127.712833 107.898 
L 127.979151 100.687815 
L 128.067924 100.984689 
L 128.245469 105.925919 
L 128.334242 105.263034 
L 128.423015 105.662105 
L 128.511787 108.963439 
L 128.778106 100.088444 
L 128.955651 104.876665 
L 129.044424 104.795496 
L 129.133196 104.733055 
L 129.310742 115.657212 
L 129.488287 105.917428 
L 129.57706 108.328755 
L 129.754606 118.947034 
L 129.932151 110.293937 
L 130.020924 110.012797 
L 130.109696 110.768657 
L 130.198469 113.593267 
L 130.464787 105.670311 
L 130.731106 114.485935 
L 130.819878 122.50233 
L 131.086196 99.944876 
L 131.174969 99.158083 
L 131.352515 103.887618 
L 131.618833 115.926796 
L 131.707606 125.310532 
L 131.885151 106.852367 
L 131.973924 105.689364 
L 132.151469 112.063806 
L 132.417787 100.608256 
L 132.50656 100.376977 
L 132.595333 102.464273 
L 132.684106 109.835435 
L 132.772878 131.199841 
L 132.950424 108.742978 
L 133.039196 107.927638 
L 133.127969 109.912952 
L 133.216742 117.614486 
L 133.305515 117.402682 
L 133.48306 106.99234 
L 133.571833 106.344279 
L 133.660606 106.965725 
L 133.838151 113.058016 
L 134.015696 122.056275 
L 134.104469 121.33126 
L 134.282015 103.216581 
L 134.370787 101.040377 
L 134.45956 102.029209 
L 134.637106 111.242087 
L 134.725878 109.704006 
L 134.814651 110.112023 
L 134.903424 111.22125 
L 135.169742 98.767841 
L 135.258515 99.327049 
L 135.43606 107.612191 
L 135.524833 118.590645 
L 135.791151 103.418533 
L 135.879924 105.497905 
L 136.146242 126.073463 
L 136.41256 102.310188 
L 136.590106 100.172097 
L 136.678878 100.584495 
L 136.856424 103.914296 
L 136.945196 103.287601 
L 137.033969 101.712173 
L 137.122742 102.104841 
L 137.211515 103.893566 
L 137.300287 103.749336 
L 137.38906 102.997065 
L 137.744151 106.847494 
L 137.921696 120.831178 
L 138.010469 111.596294 
L 138.188015 115.85074 
L 138.36556 102.593773 
L 138.454333 102.246622 
L 138.543106 104.497759 
L 138.720651 115.368165 
L 138.898196 111.746242 
L 139.164515 98.840367 
L 139.253287 99.676854 
L 139.430833 105.555637 
L 139.608378 113.413909 
L 139.697151 111.57573 
L 140.052242 99.13275 
L 140.31856 105.337384 
L 140.496106 100.079896 
L 140.584878 100.174955 
L 140.673651 102.707468 
L 140.851196 121.936124 
L 141.028742 108.644478 
L 141.117515 109.380952 
L 141.206287 111.815858 
L 141.29506 111.284161 
L 141.472606 108.70883 
L 141.561378 110.289223 
L 141.650151 109.287371 
L 141.827696 104.852381 
L 141.916469 106.145277 
L 142.094015 115.204581 
L 142.182787 120.965869 
L 142.360333 115.111458 
L 142.537878 129.444374 
L 142.715424 116.930275 
L 142.892969 108.356958 
L 143.070515 111.25357 
L 143.159287 109.306452 
L 143.336833 114.665427 
L 143.514378 100.346655 
L 143.603151 100.109658 
L 143.780696 107.471919 
L 143.958242 117.480673 
L 144.047015 117.11742 
L 144.22456 110.563146 
L 144.313333 110.652411 
L 144.402106 115.748728 
L 144.490878 137.415809 
L 144.668424 107.530728 
L 144.757196 105.490715 
L 144.845969 105.55282 
L 144.934742 108.567396 
L 145.023515 121.112653 
L 145.20106 106.216981 
L 145.289833 106.224205 
L 145.378606 108.043701 
L 145.556151 104.70227 
L 145.644924 106.949031 
L 145.822469 102.083895 
L 145.911242 102.742306 
L 146.088787 110.892487 
L 146.17756 110.567761 
L 146.443878 103.24565 
L 146.532651 104.535338 
L 146.710196 109.33879 
L 146.798969 108.596379 
L 146.887742 109.584501 
L 147.065287 116.157852 
L 147.331606 109.138516 
L 147.420378 109.516173 
L 147.597924 114.246348 
L 147.686696 114.150038 
L 147.864242 107.240906 
L 147.953015 107.18363 
L 148.13056 111.756128 
L 148.219333 116.002455 
L 148.308106 129.373662 
L 148.485651 103.741333 
L 148.574424 102.784882 
L 149.018287 117.368612 
L 149.284606 102.535137 
L 149.373378 102.485018 
L 149.462151 104.530021 
L 149.639696 116.868961 
L 149.906015 107.286422 
L 149.994787 112.409151 
L 150.08356 145.661064 
L 150.261106 110.06827 
L 150.349878 109.743081 
L 150.438651 111.974702 
L 150.616196 121.577294 
L 150.793742 109.666407 
L 150.882515 109.264061 
L 151.237606 100.90995 
L 151.326378 102.259172 
L 151.503924 109.994288 
L 151.592696 109.595398 
L 152.214106 103.188739 
L 152.302878 103.835239 
L 152.391651 107.599581 
L 152.569196 124.091033 
L 152.657969 119.973919 
L 152.746742 128.230854 
L 152.924287 103.501264 
L 153.01306 100.634253 
L 153.101833 101.703816 
L 153.279378 112.230244 
L 153.456924 107.056033 
L 153.634469 115.416767 
L 153.723242 112.210381 
L 153.812015 108.9334 
L 153.900787 111.377905 
L 153.98956 126.37987 
L 154.167106 107.821763 
L 154.255878 108.477076 
L 154.433424 120.491258 
L 154.699742 109.939677 
L 154.96606 103.578507 
L 155.054833 104.358296 
L 155.232378 114.471369 
L 155.409924 106.149598 
L 155.587469 107.029721 
L 155.765015 104.85278 
L 155.853787 105.68681 
L 155.94256 109.53244 
L 156.031333 119.244733 
L 156.297651 104.2568 
L 156.386424 104.399635 
L 156.563969 110.727062 
L 156.652742 109.658463 
L 156.741515 110.84263 
L 156.830287 116.35873 
L 157.096606 108.252406 
L 157.185378 109.0464 
L 157.274151 108.906418 
L 157.451696 106.80572 
L 157.540469 107.393413 
L 157.718015 111.188909 
L 157.806787 114.917596 
L 157.89556 123.322221 
L 157.984333 121.18015 
L 158.161878 111.444665 
L 158.250651 112.244905 
L 158.428196 129.00347 
L 158.605742 115.981234 
L 158.783287 120.785271 
L 159.049606 107.568116 
L 159.227151 105.333056 
L 159.315924 105.657314 
L 159.84856 117.161873 
L 159.937333 114.670628 
L 160.203651 101.588084 
L 160.292424 102.395421 
L 160.469969 106.597371 
L 160.736287 101.885138 
L 160.82506 102.041657 
L 161.002606 103.05133 
L 161.091378 102.627849 
L 161.180151 103.319283 
L 161.357696 111.053244 
L 161.446469 118.421737 
L 161.535242 118.347894 
L 161.624015 116.392448 
L 161.712787 117.723893 
L 161.979106 89.478604 
L 162.067878 87.759055 
L 162.156651 89.328204 
L 162.600515 117.425943 
L 162.689287 112.996523 
L 162.866833 106.416414 
L 162.955606 106.131645 
L 163.044378 106.765594 
L 163.221924 111.942165 
L 163.399469 118.837163 
L 163.665787 115.981106 
L 163.75456 126.985357 
L 164.020878 104.010458 
L 164.109651 103.985615 
L 164.287196 108.531586 
L 164.553515 123.588013 
L 164.642287 121.279971 
L 164.819833 117.246171 
L 164.908606 120.825625 
L 164.997378 120.784787 
L 165.263696 108.499565 
L 165.352469 107.700532 
L 165.441242 108.22471 
L 165.618787 112.503464 
L 165.796333 110.981301 
L 165.885106 112.054135 
L 165.973878 111.622934 
L 166.062651 112.000852 
L 166.240196 117.20026 
L 166.506515 108.782349 
L 166.68406 107.04881 
L 166.772833 108.889412 
L 166.950378 121.903594 
L 167.305469 107.625517 
L 167.394242 108.630162 
L 167.571787 112.838158 
L 167.749333 108.742309 
L 168.104424 119.915383 
L 168.193196 134.660859 
L 168.459515 111.053395 
L 168.548287 112.007129 
L 168.63706 114.534371 
L 168.814606 112.668944 
L 168.903378 118.079591 
L 168.992151 114.524824 
L 169.169696 102.27987 
L 169.258469 101.606225 
L 169.347242 104.660089 
L 169.436015 116.784059 
L 169.702333 101.843395 
L 169.791106 103.826062 
L 170.057424 113.31226 
L 170.323742 104.946673 
L 170.412515 110.218101 
L 170.501287 130.491912 
L 170.678833 102.073381 
L 170.767606 100.830037 
L 170.856378 101.925406 
L 171.033924 109.088692 
L 171.122696 115.005345 
L 171.211469 113.891341 
L 171.389015 102.821649 
L 171.477787 102.14236 
L 171.655333 104.891754 
L 171.832878 109.808479 
L 172.187969 104.210724 
L 172.276742 106.427244 
L 172.54306 119.667968 
L 172.631833 117.535157 
L 172.898151 108.334186 
L 172.986924 109.909982 
L 173.075696 108.824711 
L 173.253242 104.018685 
L 173.51956 109.818435 
L 173.697106 118.431628 
L 173.874651 112.962829 
L 173.963424 115.158202 
L 174.052196 122.582005 
L 174.140969 121.176255 
L 174.318515 105.241191 
L 174.407287 105.0378 
L 174.584833 109.716931 
L 174.762378 124.755001 
L 174.939924 114.651 
L 175.028696 117.237683 
L 175.206242 113.252509 
L 175.295015 113.130871 
L 175.47256 108.46366 
L 175.650106 111.774827 
L 175.827651 107.42679 
L 175.916424 107.968394 
L 176.005196 112.592827 
L 176.093969 127.783118 
L 176.360287 113.114771 
L 176.44906 115.411023 
L 176.715378 106.811795 
L 176.892924 109.675953 
L 176.981696 108.179216 
L 177.070469 109.811668 
L 177.248015 117.314223 
L 177.336787 114.99483 
L 177.42556 119.082007 
L 177.514333 136.204606 
L 177.691878 112.433757 
L 177.780651 113.213265 
L 177.869424 116.313327 
L 177.958196 115.28726 
L 178.135742 105.488314 
L 178.224515 104.977405 
L 178.579606 108.655247 
L 178.757151 114.580659 
L 178.934696 106.863412 
L 179.023469 108.782485 
L 179.112242 115.500751 
L 179.201015 115.330709 
L 179.467333 105.621098 
L 179.556106 106.700699 
L 179.733651 120.437442 
L 179.911196 107.311132 
L 179.999969 106.355902 
L 180.088742 107.259842 
L 180.35506 116.02111 
L 180.532606 109.117173 
L 180.621378 106.395087 
L 180.710151 106.805532 
L 180.887696 114.040114 
L 180.976469 122.103782 
L 181.065242 121.811785 
L 181.242787 111.851153 
L 181.33156 113.500089 
L 181.420333 120.497085 
L 181.509106 117.892816 
L 181.686651 105.712094 
L 181.775424 105.918228 
L 181.864196 108.872615 
L 182.041742 130.693333 
L 182.219287 104.110562 
L 182.396833 101.911798 
L 182.574378 102.008793 
L 182.663151 102.75912 
L 182.840696 110.160547 
L 183.018242 133.749514 
L 183.28456 109.640523 
L 183.550878 102.918894 
L 183.639651 103.025059 
L 183.728424 105.058116 
L 183.817196 110.272835 
L 183.994742 124.686314 
L 184.172287 109.250105 
L 184.26106 108.802753 
L 184.349833 113.467968 
L 184.438606 127.467612 
L 184.793696 115.414076 
L 185.060015 105.666422 
L 185.148787 106.946337 
L 185.326333 116.040949 
L 185.503878 105.796716 
L 185.592651 105.791488 
L 185.681424 110.095652 
L 185.770196 126.685313 
L 185.947742 111.263595 
L 186.036515 111.403861 
L 186.391606 105.308706 
L 186.480378 106.081135 
L 186.746696 112.725056 
L 186.924242 107.980083 
L 187.013015 109.202321 
L 187.19056 119.479808 
L 187.368106 109.599664 
L 187.456878 109.303473 
L 187.634424 113.257206 
L 187.811969 109.629067 
L 187.900742 110.104295 
L 187.989515 115.561754 
L 188.078287 128.027696 
L 188.255833 111.403638 
L 188.610924 106.210526 
L 188.699696 106.905971 
L 188.877242 114.707489 
L 188.966015 114.592397 
L 189.14356 105.012621 
L 189.232333 105.616313 
L 189.409878 115.029468 
L 189.587424 124.167254 
L 189.764969 109.7432 
L 189.942515 106.366327 
L 190.031287 106.400063 
L 190.297606 113.976809 
L 190.475151 110.925893 
L 190.563924 111.883039 
L 190.652696 114.857474 
L 190.830242 129.012917 
L 191.007787 126.061662 
L 191.185333 111.360546 
L 191.274106 112.285881 
L 191.362878 122.21966 
L 191.451651 120.992772 
L 191.629196 111.174908 
L 191.806742 108.050131 
L 191.895515 108.969219 
L 192.07306 113.881112 
L 192.250606 112.534265 
L 192.339378 113.334566 
L 192.428151 117.138454 
L 192.516924 135.828135 
L 192.694469 108.334013 
L 192.783242 109.013426 
L 192.960787 115.56044 
L 193.138333 133.502101 
L 193.227106 128.010556 
L 193.404651 106.819129 
L 193.582196 102.752311 
L 193.670969 103.191421 
L 193.937287 109.502021 
L 194.02606 108.735313 
L 194.203606 102.300336 
L 194.292378 103.007086 
L 194.558696 112.172076 
L 194.825015 107.255843 
L 194.913787 106.785257 
L 195.00256 107.369542 
L 195.180106 114.837269 
L 195.446424 103.48007 
L 195.535196 104.520789 
L 195.890287 115.487546 
L 196.067833 125.544478 
L 196.245378 110.330583 
L 196.334151 109.230014 
L 196.422924 109.913873 
L 196.689242 123.012027 
L 196.778015 121.791061 
L 196.95556 109.923722 
L 197.044333 123.518908 
L 197.133106 105.811232 
L 197.221878 116.303957 
L 197.399424 72.444044 
L 197.576969 65.343287 
L 197.665742 67.115715 
L 197.843287 84.19564 
L 197.93206 120.837392 
L 198.020833 106.469827 
L 198.109606 121.061694 
L 198.198378 113.362809 
L 198.287151 127.124402 
L 198.375924 114.61991 
L 198.464696 117.506656 
L 198.642242 117.039875 
L 198.731015 121.42206 
L 198.90856 115.380653 
L 198.997333 120.363239 
L 199.086106 118.35534 
L 199.263651 111.447334 
L 199.441196 115.276454 
L 199.529969 114.842564 
L 199.618742 111.891226 
L 199.707515 112.780949 
L 199.796287 122.351379 
L 200.062606 108.14657 
L 200.328924 121.172676 
L 200.417696 121.106095 
L 200.595242 115.992465 
L 200.684015 115.833701 
L 200.86156 113.044911 
L 201.216651 108.675405 
L 201.305424 109.956174 
L 201.482969 117.675526 
L 201.660515 114.223179 
L 201.749287 113.516895 
L 201.83806 111.644487 
L 201.926833 113.119722 
L 202.015606 123.674082 
L 202.104378 122.272798 
L 202.193151 115.303557 
L 202.370696 123.685179 
L 202.548242 110.399973 
L 202.81456 122.462147 
L 202.903333 119.260786 
L 203.080878 117.753247 
L 203.258424 110.701378 
L 203.347196 111.383026 
L 203.524742 115.758453 
L 203.613515 121.272645 
L 203.879833 110.923113 
L 203.968606 111.194055 
L 204.057378 111.1595 
L 204.234924 111.700201 
L 204.323696 113.006126 
L 204.412469 118.155575 
L 204.501242 142.845372 
L 204.678787 114.364821 
L 204.856333 112.214556 
L 204.945106 112.229881 
L 205.122651 124.041945 
L 205.300196 111.252453 
L 205.388969 110.695741 
L 205.74406 115.119318 
L 205.832833 119.125927 
L 205.921606 129.589771 
L 206.099151 103.543021 
L 206.187924 102.570736 
L 206.276696 105.638824 
L 206.365469 113.715828 
L 206.454242 134.09551 
L 206.631787 127.322452 
L 206.72056 130.73892 
L 207.075651 109.949402 
L 207.164424 109.37762 
L 207.253196 109.901657 
L 207.430742 106.910203 
L 207.519515 108.442067 
L 207.69706 114.447819 
L 207.785833 112.02424 
L 207.874606 114.230592 
L 207.963378 123.385845 
L 208.229696 107.971306 
L 208.318469 107.662485 
L 208.407242 109.868347 
L 208.584787 124.191816 
L 208.762333 110.746851 
L 208.851106 110.725061 
L 209.028651 112.434814 
L 209.117424 115.845144 
L 209.206196 128.00837 
L 209.472515 110.531123 
L 209.561287 113.634931 
L 209.738833 127.856551 
L 210.093924 106.852962 
L 210.182696 105.007271 
L 210.271469 105.162837 
L 210.449015 112.67321 
L 210.715333 102.138241 
L 210.804106 102.598821 
L 210.892878 105.033664 
L 210.981651 110.704668 
L 211.070424 110.42444 
L 211.247969 104.497077 
L 211.336742 110.197452 
L 211.425515 129.666311 
L 211.60306 114.661445 
L 211.691833 115.38177 
L 211.780606 114.744704 
L 211.869378 117.345419 
L 211.958151 138.094321 
L 212.135696 108.296448 
L 212.224469 106.371569 
L 212.313242 109.014924 
L 212.402015 117.995908 
L 212.57956 108.972592 
L 212.668333 110.455929 
L 212.757106 117.699965 
L 213.023424 108.293251 
L 213.467287 128.974593 
L 213.644833 119.303477 
L 213.733606 120.862238 
L 213.822378 119.659208 
L 213.999924 111.971113 
L 214.177469 112.211553 
L 214.266242 112.88128 
L 214.621333 121.92808 
L 214.887651 109.304999 
L 214.976424 109.731579 
L 215.153969 119.670844 
L 215.331515 105.738153 
L 215.420287 104.972097 
L 215.50906 107.926059 
L 215.597833 114.844211 
L 215.686606 114.456183 
L 215.775378 113.591686 
L 215.952924 134.13634 
L 216.041696 125.977246 
L 216.130469 126.539813 
L 216.219242 124.290795 
L 216.396787 126.014585 
L 216.48556 122.804373 
L 216.751878 105.201196 
L 216.840651 106.232313 
L 217.018196 111.27395 
L 217.106969 107.090802 
L 217.195742 107.370082 
L 217.284515 113.386705 
L 217.373287 134.098406 
L 217.550833 108.298579 
L 217.639606 106.403352 
L 217.728378 106.887255 
L 217.905924 114.009328 
L 217.994696 113.214922 
L 218.172242 109.148468 
L 218.261015 109.90047 
L 218.349787 114.412092 
L 218.43856 133.616097 
L 218.616106 114.281979 
L 218.704878 113.062503 
L 218.971196 106.540447 
L 219.148742 107.445096 
L 219.326287 106.960292 
L 219.41506 107.456474 
L 219.503833 109.16083 
L 219.681378 123.213828 
L 219.770151 116.887636 
L 219.858924 118.225799 
L 219.947696 131.866716 
L 220.125242 105.790875 
L 220.214015 104.513394 
L 220.39156 108.330897 
L 220.657878 104.392683 
L 220.746651 105.473763 
L 220.924196 119.854875 
L 221.012969 135.947236 
L 221.279287 108.447978 
L 221.36806 108.50253 
L 221.723151 121.302834 
L 221.811924 120.929192 
L 221.989469 116.091508 
L 222.078242 116.640414 
L 222.167015 121.147979 
L 222.255787 134.508832 
L 222.522106 121.691538 
L 222.610878 124.186431 
L 222.965969 106.155791 
L 223.054742 106.42632 
L 223.232287 106.918771 
L 223.32106 107.91763 
L 223.409833 110.380163 
L 223.587378 126.812659 
L 223.764924 111.372811 
L 224.031242 120.325975 
L 224.120015 118.981284 
L 224.386333 107.479756 
L 224.563878 106.423949 
L 224.652651 106.487927 
L 224.830196 111.079845 
L 225.007742 114.374946 
L 225.362833 109.089028 
L 225.451606 108.904969 
L 225.540378 111.035125 
L 225.717924 130.713118 
L 225.806696 123.253397 
L 225.895469 122.392175 
L 225.984242 123.492929 
L 226.073015 123.048754 
L 226.161787 121.236367 
L 226.25056 121.821951 
L 226.339333 126.071063 
L 226.516878 115.454191 
L 226.605651 118.470287 
L 226.694424 130.697083 
L 226.783196 129.1754 
L 227.138287 106.935153 
L 227.315833 102.63716 
L 227.404606 104.698681 
L 227.582151 119.601534 
L 227.670924 117.844115 
L 227.759696 115.386848 
L 227.848469 119.461316 
L 227.937242 147.591198 
L 228.114787 116.367944 
L 228.20356 116.034045 
L 228.381106 125.497117 
L 228.558651 120.040867 
L 228.647424 136.405871 
L 228.824969 113.804101 
L 229.18006 106.551951 
L 229.268833 108.367753 
L 229.535151 122.218833 
L 229.801469 109.479908 
L 229.979015 110.734326 
L 230.15656 113.375023 
L 230.334106 116.920564 
L 230.600424 107.764317 
L 230.689196 108.213944 
L 230.866742 106.765821 
L 230.955515 107.127268 
L 231.13306 109.704105 
L 231.399378 105.34096 
L 231.488151 105.965345 
L 231.665696 112.477548 
L 231.843242 122.416282 
L 231.932015 116.051951 
L 232.020787 117.043267 
L 232.198333 121.756811 
L 232.287106 122.715529 
L 232.375878 120.622976 
L 232.464651 113.215149 
L 232.553424 118.745604 
L 232.642196 112.147189 
L 232.730969 112.843881 
L 232.908515 74.629766 
L 233.08606 67.528875 
L 233.174833 69.266735 
L 233.174833 69.266735 
" clip-path="url(#pbfeb09c053)" style="fill: none; stroke: #4477aa; stroke-linecap: square"/>
   </g>
   <g id="patch_3">
    <path d="M 37.78606 152.589249 
L 37.78606 7.059249 
" style="fill: none; stroke: #000000; stroke-width: 0.5; stroke-linejoin: miter; stroke-linecap: square"/>
   </g>
   <g id="patch_4">
    <path d="M 233.08606 152.589249 
L 233.08606 7.059249 
" style="fill: none; stroke: #000000; stroke-width: 0.5; stroke-linejoin: miter; stroke-linecap: square"/>
   </g>
   <g id="patch_5">
    <path d="M 37.78606 152.589249 
L 233.08606 152.589249 
" style="fill: none; stroke: #000000; stroke-width: 0.5; stroke-linejoin: miter; stroke-linecap: square"/>
   </g>
   <g id="patch_6">
    <path d="M 37.78606 7.059249 
L 233.08606 7.059249 
" style="fill: none; stroke: #000000; stroke-width: 0.5; stroke-linejoin: miter; stroke-linecap: square"/>
   </g>
  </g>
 </g>
 <defs>
  <clipPath id="pbfeb09c053">
   <rect x="37.78606" y="7.059249" width="195.3" height="145.53"/>
  </clipPath>
 </defs>
</svg>
