<?xml version="1.0" encoding="utf-8" standalone="no"?>
<!DOCTYPE svg PUBLIC "-//W3C//DTD SVG 1.1//EN"
  "http://www.w3.org/Graphics/SVG/1.1/DTD/svg11.dtd">
<svg xmlns:xlink="http://www.w3.org/1999/xlink" width="152.73pt" height="152.73pt" viewBox="0 0 152.73 152.73" xmlns="http://www.w3.org/2000/svg" version="1.1">
 <metadata>
  <rdf:RDF xmlns:dc="http://purl.org/dc/elements/1.1/" xmlns:cc="http://creativecommons.org/ns#" xmlns:rdf="http://www.w3.org/1999/02/22-rdf-syntax-ns#">
   <cc:Work>
    <dc:type rdf:resource="http://purl.org/dc/dcmitype/StillImage"/>
    <dc:date>2025-10-06T12:13:34.007959</dc:date>
    <dc:format>image/svg+xml</dc:format>
    <dc:creator>
     <cc:Agent>
      <dc:title>Matplotlib v3.9.2, https://matplotlib.org/</dc:title>
     </cc:Agent>
    </dc:creator>
   </cc:Work>
  </rdf:RDF>
 </metadata>
 <defs>
  <style type="text/css">*{stroke-linejoin: round; stroke-linecap: butt}</style>
 </defs>
 <g id="figure_1">
  <g id="patch_1">
   <path d="M 0 152.73 
L 152.73 152.73 
L 152.73 0 
L 0 0 
L 0 152.73 
z
" style="fill: none"/>
  </g>
  <g id="axes_1">
   <g id="line2d_1">
    <path d="M 25.6709 127.0591 
L 40.154929 127.0591 
" clip-path="url(#p424850bce2)" style="fill: none; stroke: #000000; stroke-linecap: square"/>
   </g>
   <g id="line2d_2">
    <path d="M 25.6709 127.0591 
L 25.6709 112.575071 
" clip-path="url(#p424850bce2)" style="fill: none; stroke: #000000; stroke-linecap: square"/>
   </g>
   <g id="line2d_3">
    <path d="M 25.6709 127.0591 
L 11.186872 127.0591 
" clip-path="url(#p424850bce2)" style="fill: none; stroke: #000000; stroke-linecap: square"/>
   </g>
   <g id="line2d_4">
    <path d="M 40.154929 127.0591 
L 25.6709 127.0591 
" clip-path="url(#p424850bce2)" style="fill: none; stroke: #000000; stroke-linecap: square"/>
   </g>
   <g id="line2d_5">
    <path d="M 40.154929 127.0591 
L 54.638957 127.0591 
" clip-path="url(#p424850bce2)" style="fill: none; stroke: #000000; stroke-linecap: square"/>
   </g>
   <g id="line2d_6">
    <path d="M 40.154929 127.0591 
L 40.154929 112.575071 
" clip-path="url(#p424850bce2)" style="fill: none; stroke: #000000; stroke-linecap: square"/>
   </g>
   <g id="line2d_7">
    <path d="M 54.638957 127.0591 
L 40.154929 127.0591 
" clip-path="url(#p424850bce2)" style="fill: none; stroke: #000000; stroke-linecap: square"/>
   </g>
   <g id="line2d_8">
    <path d="M 54.638957 127.0591 
L 69.122986 127.0591 
" clip-path="url(#p424850bce2)" style="fill: none; stroke: #000000; stroke-linecap: square"/>
   </g>
   <g id="line2d_9">
    <path d="M 54.638957 127.0591 
L 54.638957 112.575071 
" clip-path="url(#p424850bce2)" style="fill: none; stroke: #000000; stroke-linecap: square"/>
   </g>
   <g id="line2d_10">
    <path d="M 69.122986 127.0591 
L 54.638957 127.0591 
" clip-path="url(#p424850bce2)" style="fill: none; stroke: #000000; stroke-linecap: square"/>
   </g>
   <g id="line2d_11">
    <path d="M 69.122986 127.0591 
L 83.607014 127.0591 
" clip-path="url(#p424850bce2)" style="fill: none; stroke: #000000; stroke-linecap: square"/>
   </g>
   <g id="line2d_12">
    <path d="M 69.122986 127.0591 
L 69.122986 112.575071 
" clip-path="url(#p424850bce2)" style="fill: none; stroke: #000000; stroke-linecap: square"/>
   </g>
   <g id="line2d_13">
    <path d="M 69.122986 127.0591 
L 69.122986 141.543128 
" clip-path="url(#p424850bce2)" style="fill: none; stroke: #000000; stroke-linecap: square"/>
   </g>
   <g id="line2d_14">
    <path d="M 83.607014 127.0591 
L 69.122986 127.0591 
" clip-path="url(#p424850bce2)" style="fill: none; stroke: #000000; stroke-linecap: square"/>
   </g>
   <g id="line2d_15">
    <path d="M 83.607014 127.0591 
L 98.091043 127.0591 
" clip-path="url(#p424850bce2)" style="fill: none; stroke: #000000; stroke-linecap: square"/>
   </g>
   <g id="line2d_16">
    <path d="M 83.607014 127.0591 
L 83.607014 112.575071 
" clip-path="url(#p424850bce2)" style="fill: none; stroke: #000000; stroke-linecap: square"/>
   </g>
   <g id="line2d_17">
    <path d="M 98.091043 127.0591 
L 83.607014 127.0591 
" clip-path="url(#p424850bce2)" style="fill: none; stroke: #000000; stroke-linecap: square"/>
   </g>
   <g id="line2d_18">
    <path d="M 98.091043 127.0591 
L 112.575071 127.0591 
" clip-path="url(#p424850bce2)" style="fill: none; stroke: #000000; stroke-linecap: square"/>
   </g>
   <g id="line2d_19">
    <path d="M 98.091043 127.0591 
L 98.091043 112.575071 
" clip-path="url(#p424850bce2)" style="fill: none; stroke: #000000; stroke-linecap: square"/>
   </g>
   <g id="line2d_20">
    <path d="M 112.575071 127.0591 
L 98.091043 127.0591 
" clip-path="url(#p424850bce2)" style="fill: none; stroke: #000000; stroke-linecap: square"/>
   </g>
   <g id="line2d_21">
    <path d="M 112.575071 127.0591 
L 127.0591 127.0591 
" clip-path="url(#p424850bce2)" style="fill: none; stroke: #000000; stroke-linecap: square"/>
   </g>
   <g id="line2d_22">
    <path d="M 112.575071 127.0591 
L 112.575071 112.575071 
" clip-path="url(#p424850bce2)" style="fill: none; stroke: #000000; stroke-linecap: square"/>
   </g>
   <g id="line2d_23">
    <path d="M 127.0591 127.0591 
L 112.575071 127.0591 
" clip-path="url(#p424850bce2)" style="fill: none; stroke: #000000; stroke-linecap: square"/>
   </g>
   <g id="line2d_24">
    <path d="M 127.0591 127.0591 
L 127.0591 112.575071 
" clip-path="url(#p424850bce2)" style="fill: none; stroke: #000000; stroke-linecap: square"/>
   </g>
   <g id="line2d_25">
    <path d="M 127.0591 127.0591 
L 141.543128 127.0591 
" clip-path="url(#p424850bce2)" style="fill: none; stroke: #000000; stroke-linecap: square"/>
   </g>
   <g id="line2d_26">
    <path d="M 25.6709 112.575071 
L 25.6709 127.0591 
" clip-path="url(#p424850bce2)" style="fill: none; stroke: #000000; stroke-linecap: square"/>
   </g>
   <g id="line2d_27">
    <path d="M 25.6709 112.575071 
L 40.154929 112.575071 
" clip-path="url(#p424850bce2)" style="fill: none; stroke: #000000; stroke-linecap: square"/>
   </g>
   <g id="line2d_28">
    <path d="M 25.6709 112.575071 
L 25.6709 98.091043 
" clip-path="url(#p424850bce2)" style="fill: none; stroke: #000000; stroke-linecap: square"/>
   </g>
   <g id="line2d_29">
    <path d="M 40.154929 112.575071 
L 40.154929 127.0591 
" clip-path="url(#p424850bce2)" style="fill: none; stroke: #000000; stroke-linecap: square"/>
   </g>
   <g id="line2d_30">
    <path d="M 40.154929 112.575071 
L 25.6709 112.575071 
" clip-path="url(#p424850bce2)" style="fill: none; stroke: #000000; stroke-linecap: square"/>
   </g>
   <g id="line2d_31">
    <path d="M 40.154929 112.575071 
L 54.638957 112.575071 
" clip-path="url(#p424850bce2)" style="fill: none; stroke: #000000; stroke-linecap: square"/>
   </g>
   <g id="line2d_32">
    <path d="M 40.154929 112.575071 
L 40.154929 98.091043 
" clip-path="url(#p424850bce2)" style="fill: none; stroke: #000000; stroke-linecap: square"/>
   </g>
   <g id="line2d_33">
    <path d="M 54.638957 112.575071 
L 54.638957 127.0591 
" clip-path="url(#p424850bce2)" style="fill: none; stroke: #000000; stroke-linecap: square"/>
   </g>
   <g id="line2d_34">
    <path d="M 54.638957 112.575071 
L 40.154929 112.575071 
" clip-path="url(#p424850bce2)" style="fill: none; stroke: #000000; stroke-linecap: square"/>
   </g>
   <g id="line2d_35">
    <path d="M 54.638957 112.575071 
L 69.122986 112.575071 
" clip-path="url(#p424850bce2)" style="fill: none; stroke: #000000; stroke-linecap: square"/>
   </g>
   <g id="line2d_36">
    <path d="M 54.638957 112.575071 
L 54.638957 98.091043 
" clip-path="url(#p424850bce2)" style="fill: none; stroke: #000000; stroke-linecap: square"/>
   </g>
   <g id="line2d_37">
    <path d="M 69.122986 112.575071 
L 69.122986 127.0591 
" clip-path="url(#p424850bce2)" style="fill: none; stroke: #000000; stroke-linecap: square"/>
   </g>
   <g id="line2d_38">
    <path d="M 69.122986 112.575071 
L 54.638957 112.575071 
" clip-path="url(#p424850bce2)" style="fill: none; stroke: #000000; stroke-linecap: square"/>
   </g>
   <g id="line2d_39">
    <path d="M 69.122986 112.575071 
L 83.607014 112.575071 
" clip-path="url(#p424850bce2)" style="fill: none; stroke: #000000; stroke-linecap: square"/>
   </g>
   <g id="line2d_40">
    <path d="M 69.122986 112.575071 
L 69.122986 98.091043 
" clip-path="url(#p424850bce2)" style="fill: none; stroke: #000000; stroke-linecap: square"/>
   </g>
   <g id="line2d_41">
    <path d="M 83.607014 112.575071 
L 83.607014 127.0591 
" clip-path="url(#p424850bce2)" style="fill: none; stroke: #000000; stroke-linecap: square"/>
   </g>
   <g id="line2d_42">
    <path d="M 83.607014 112.575071 
L 69.122986 112.575071 
" clip-path="url(#p424850bce2)" style="fill: none; stroke: #000000; stroke-linecap: square"/>
   </g>
   <g id="line2d_43">
    <path d="M 83.607014 112.575071 
L 98.091043 112.575071 
" clip-path="url(#p424850bce2)" style="fill: none; stroke: #000000; stroke-linecap: square"/>
   </g>
   <g id="line2d_44">
    <path d="M 83.607014 112.575071 
L 83.607014 98.091043 
" clip-path="url(#p424850bce2)" style="fill: none; stroke: #000000; stroke-linecap: square"/>
   </g>
   <g id="line2d_45">
    <path d="M 98.091043 112.575071 
L 98.091043 127.0591 
" clip-path="url(#p424850bce2)" style="fill: none; stroke: #000000; stroke-linecap: square"/>
   </g>
   <g id="line2d_46">
    <path d="M 98.091043 112.575071 
L 83.607014 112.575071 
" clip-path="url(#p424850bce2)" style="fill: none; stroke: #000000; stroke-linecap: square"/>
   </g>
   <g id="line2d_47">
    <path d="M 98.091043 112.575071 
L 112.575071 112.575071 
" clip-path="url(#p424850bce2)" style="fill: none; stroke: #000000; stroke-linecap: square"/>
   </g>
   <g id="line2d_48">
    <path d="M 98.091043 112.575071 
L 98.091043 98.091043 
" clip-path="url(#p424850bce2)" style="fill: none; stroke: #000000; stroke-linecap: square"/>
   </g>
   <g id="line2d_49">
    <path d="M 112.575071 112.575071 
L 112.575071 127.0591 
" clip-path="url(#p424850bce2)" style="fill: none; stroke: #000000; stroke-linecap: square"/>
   </g>
   <g id="line2d_50">
    <path d="M 112.575071 112.575071 
L 98.091043 112.575071 
" clip-path="url(#p424850bce2)" style="fill: none; stroke: #000000; stroke-linecap: square"/>
   </g>
   <g id="line2d_51">
    <path d="M 112.575071 112.575071 
L 127.0591 112.575071 
" clip-path="url(#p424850bce2)" style="fill: none; stroke: #000000; stroke-linecap: square"/>
   </g>
   <g id="line2d_52">
    <path d="M 112.575071 112.575071 
L 112.575071 98.091043 
" clip-path="url(#p424850bce2)" style="fill: none; stroke: #000000; stroke-linecap: square"/>
   </g>
   <g id="line2d_53">
    <path d="M 127.0591 112.575071 
L 127.0591 127.0591 
" clip-path="url(#p424850bce2)" style="fill: none; stroke: #000000; stroke-linecap: square"/>
   </g>
   <g id="line2d_54">
    <path d="M 127.0591 112.575071 
L 112.575071 112.575071 
" clip-path="url(#p424850bce2)" style="fill: none; stroke: #000000; stroke-linecap: square"/>
   </g>
   <g id="line2d_55">
    <path d="M 127.0591 112.575071 
L 127.0591 98.091043 
" clip-path="url(#p424850bce2)" style="fill: none; stroke: #000000; stroke-linecap: square"/>
   </g>
   <g id="line2d_56">
    <path d="M 25.6709 98.091043 
L 25.6709 112.575071 
" clip-path="url(#p424850bce2)" style="fill: none; stroke: #000000; stroke-linecap: square"/>
   </g>
   <g id="line2d_57">
    <path d="M 25.6709 98.091043 
L 40.154929 98.091043 
" clip-path="url(#p424850bce2)" style="fill: none; stroke: #000000; stroke-linecap: square"/>
   </g>
   <g id="line2d_58">
    <path d="M 25.6709 98.091043 
L 25.6709 83.607014 
" clip-path="url(#p424850bce2)" style="fill: none; stroke: #000000; stroke-linecap: square"/>
   </g>
   <g id="line2d_59">
    <path d="M 40.154929 98.091043 
L 40.154929 112.575071 
" clip-path="url(#p424850bce2)" style="fill: none; stroke: #000000; stroke-linecap: square"/>
   </g>
   <g id="line2d_60">
    <path d="M 40.154929 98.091043 
L 25.6709 98.091043 
" clip-path="url(#p424850bce2)" style="fill: none; stroke: #000000; stroke-linecap: square"/>
   </g>
   <g id="line2d_61">
    <path d="M 40.154929 98.091043 
L 54.638957 98.091043 
" clip-path="url(#p424850bce2)" style="fill: none; stroke: #000000; stroke-linecap: square"/>
   </g>
   <g id="line2d_62">
    <path d="M 40.154929 98.091043 
L 40.154929 83.607014 
" clip-path="url(#p424850bce2)" style="fill: none; stroke: #000000; stroke-linecap: square"/>
   </g>
   <g id="line2d_63">
    <path d="M 54.638957 98.091043 
L 54.638957 112.575071 
" clip-path="url(#p424850bce2)" style="fill: none; stroke: #000000; stroke-linecap: square"/>
   </g>
   <g id="line2d_64">
    <path d="M 54.638957 98.091043 
L 40.154929 98.091043 
" clip-path="url(#p424850bce2)" style="fill: none; stroke: #000000; stroke-linecap: square"/>
   </g>
   <g id="line2d_65">
    <path d="M 54.638957 98.091043 
L 69.122986 98.091043 
" clip-path="url(#p424850bce2)" style="fill: none; stroke: #000000; stroke-linecap: square"/>
   </g>
   <g id="line2d_66">
    <path d="M 54.638957 98.091043 
L 54.638957 83.607014 
" clip-path="url(#p424850bce2)" style="fill: none; stroke: #000000; stroke-linecap: square"/>
   </g>
   <g id="line2d_67">
    <path d="M 69.122986 98.091043 
L 69.122986 112.575071 
" clip-path="url(#p424850bce2)" style="fill: none; stroke: #000000; stroke-linecap: square"/>
   </g>
   <g id="line2d_68">
    <path d="M 69.122986 98.091043 
L 54.638957 98.091043 
" clip-path="url(#p424850bce2)" style="fill: none; stroke: #000000; stroke-linecap: square"/>
   </g>
   <g id="line2d_69">
    <path d="M 69.122986 98.091043 
L 83.607014 98.091043 
" clip-path="url(#p424850bce2)" style="fill: none; stroke: #000000; stroke-linecap: square"/>
   </g>
   <g id="line2d_70">
    <path d="M 69.122986 98.091043 
L 69.122986 83.607014 
" clip-path="url(#p424850bce2)" style="fill: none; stroke: #000000; stroke-linecap: square"/>
   </g>
   <g id="line2d_71">
    <path d="M 83.607014 98.091043 
L 83.607014 112.575071 
" clip-path="url(#p424850bce2)" style="fill: none; stroke: #000000; stroke-linecap: square"/>
   </g>
   <g id="line2d_72">
    <path d="M 83.607014 98.091043 
L 69.122986 98.091043 
" clip-path="url(#p424850bce2)" style="fill: none; stroke: #000000; stroke-linecap: square"/>
   </g>
   <g id="line2d_73">
    <path d="M 83.607014 98.091043 
L 98.091043 98.091043 
" clip-path="url(#p424850bce2)" style="fill: none; stroke: #000000; stroke-linecap: square"/>
   </g>
   <g id="line2d_74">
    <path d="M 83.607014 98.091043 
L 83.607014 83.607014 
" clip-path="url(#p424850bce2)" style="fill: none; stroke: #000000; stroke-linecap: square"/>
   </g>
   <g id="line2d_75">
    <path d="M 98.091043 98.091043 
L 98.091043 112.575071 
" clip-path="url(#p424850bce2)" style="fill: none; stroke: #000000; stroke-linecap: square"/>
   </g>
   <g id="line2d_76">
    <path d="M 98.091043 98.091043 
L 83.607014 98.091043 
" clip-path="url(#p424850bce2)" style="fill: none; stroke: #000000; stroke-linecap: square"/>
   </g>
   <g id="line2d_77">
    <path d="M 98.091043 98.091043 
L 112.575071 98.091043 
" clip-path="url(#p424850bce2)" style="fill: none; stroke: #000000; stroke-linecap: square"/>
   </g>
   <g id="line2d_78">
    <path d="M 98.091043 98.091043 
L 98.091043 83.607014 
" clip-path="url(#p424850bce2)" style="fill: none; stroke: #000000; stroke-linecap: square"/>
   </g>
   <g id="line2d_79">
    <path d="M 112.575071 98.091043 
L 112.575071 112.575071 
" clip-path="url(#p424850bce2)" style="fill: none; stroke: #000000; stroke-linecap: square"/>
   </g>
   <g id="line2d_80">
    <path d="M 112.575071 98.091043 
L 98.091043 98.091043 
" clip-path="url(#p424850bce2)" style="fill: none; stroke: #000000; stroke-linecap: square"/>
   </g>
   <g id="line2d_81">
    <path d="M 112.575071 98.091043 
L 127.0591 98.091043 
" clip-path="url(#p424850bce2)" style="fill: none; stroke: #000000; stroke-linecap: square"/>
   </g>
   <g id="line2d_82">
    <path d="M 112.575071 98.091043 
L 112.575071 83.607014 
" clip-path="url(#p424850bce2)" style="fill: none; stroke: #000000; stroke-linecap: square"/>
   </g>
   <g id="line2d_83">
    <path d="M 127.0591 98.091043 
L 127.0591 112.575071 
" clip-path="url(#p424850bce2)" style="fill: none; stroke: #000000; stroke-linecap: square"/>
   </g>
   <g id="line2d_84">
    <path d="M 127.0591 98.091043 
L 112.575071 98.091043 
" clip-path="url(#p424850bce2)" style="fill: none; stroke: #000000; stroke-linecap: square"/>
   </g>
   <g id="line2d_85">
    <path d="M 127.0591 98.091043 
L 127.0591 83.607014 
" clip-path="url(#p424850bce2)" style="fill: none; stroke: #000000; stroke-linecap: square"/>
   </g>
   <g id="line2d_86">
    <path d="M 25.6709 83.607014 
L 25.6709 98.091043 
" clip-path="url(#p424850bce2)" style="fill: none; stroke: #000000; stroke-linecap: square"/>
   </g>
   <g id="line2d_87">
    <path d="M 25.6709 83.607014 
L 40.154929 83.607014 
" clip-path="url(#p424850bce2)" style="fill: none; stroke: #000000; stroke-linecap: square"/>
   </g>
   <g id="line2d_88">
    <path d="M 25.6709 83.607014 
L 25.6709 69.122986 
" clip-path="url(#p424850bce2)" style="fill: none; stroke: #000000; stroke-linecap: square"/>
   </g>
   <g id="line2d_89">
    <path d="M 25.6709 83.607014 
L 11.186872 83.607014 
" clip-path="url(#p424850bce2)" style="fill: none; stroke: #000000; stroke-linecap: square"/>
   </g>
   <g id="line2d_90">
    <path d="M 40.154929 83.607014 
L 40.154929 98.091043 
" clip-path="url(#p424850bce2)" style="fill: none; stroke: #000000; stroke-linecap: square"/>
   </g>
   <g id="line2d_91">
    <path d="M 40.154929 83.607014 
L 25.6709 83.607014 
" clip-path="url(#p424850bce2)" style="fill: none; stroke: #000000; stroke-linecap: square"/>
   </g>
   <g id="line2d_92">
    <path d="M 40.154929 83.607014 
L 54.638957 83.607014 
" clip-path="url(#p424850bce2)" style="fill: none; stroke: #000000; stroke-linecap: square"/>
   </g>
   <g id="line2d_93">
    <path d="M 40.154929 83.607014 
L 40.154929 69.122986 
" clip-path="url(#p424850bce2)" style="fill: none; stroke: #000000; stroke-linecap: square"/>
   </g>
   <g id="line2d_94">
    <path d="M 54.638957 83.607014 
L 54.638957 98.091043 
" clip-path="url(#p424850bce2)" style="fill: none; stroke: #000000; stroke-linecap: square"/>
   </g>
   <g id="line2d_95">
    <path d="M 54.638957 83.607014 
L 40.154929 83.607014 
" clip-path="url(#p424850bce2)" style="fill: none; stroke: #000000; stroke-linecap: square"/>
   </g>
   <g id="line2d_96">
    <path d="M 54.638957 83.607014 
L 69.122986 83.607014 
" clip-path="url(#p424850bce2)" style="fill: none; stroke: #000000; stroke-linecap: square"/>
   </g>
   <g id="line2d_97">
    <path d="M 54.638957 83.607014 
L 54.638957 69.122986 
" clip-path="url(#p424850bce2)" style="fill: none; stroke: #000000; stroke-linecap: square"/>
   </g>
   <g id="line2d_98">
    <path d="M 69.122986 83.607014 
L 69.122986 98.091043 
" clip-path="url(#p424850bce2)" style="fill: none; stroke: #000000; stroke-linecap: square"/>
   </g>
   <g id="line2d_99">
    <path d="M 69.122986 83.607014 
L 54.638957 83.607014 
" clip-path="url(#p424850bce2)" style="fill: none; stroke: #000000; stroke-linecap: square"/>
   </g>
   <g id="line2d_100">
    <path d="M 69.122986 83.607014 
L 83.607014 83.607014 
" clip-path="url(#p424850bce2)" style="fill: none; stroke: #000000; stroke-linecap: square"/>
   </g>
   <g id="line2d_101">
    <path d="M 69.122986 83.607014 
L 69.122986 69.122986 
" clip-path="url(#p424850bce2)" style="fill: none; stroke: #000000; stroke-linecap: square"/>
   </g>
   <g id="line2d_102">
    <path d="M 83.607014 83.607014 
L 83.607014 98.091043 
" clip-path="url(#p424850bce2)" style="fill: none; stroke: #000000; stroke-linecap: square"/>
   </g>
   <g id="line2d_103">
    <path d="M 83.607014 83.607014 
L 69.122986 83.607014 
" clip-path="url(#p424850bce2)" style="fill: none; stroke: #000000; stroke-linecap: square"/>
   </g>
   <g id="line2d_104">
    <path d="M 83.607014 83.607014 
L 98.091043 83.607014 
" clip-path="url(#p424850bce2)" style="fill: none; stroke: #000000; stroke-linecap: square"/>
   </g>
   <g id="line2d_105">
    <path d="M 83.607014 83.607014 
L 83.607014 69.122986 
" clip-path="url(#p424850bce2)" style="fill: none; stroke: #000000; stroke-linecap: square"/>
   </g>
   <g id="line2d_106">
    <path d="M 98.091043 83.607014 
L 98.091043 98.091043 
" clip-path="url(#p424850bce2)" style="fill: none; stroke: #000000; stroke-linecap: square"/>
   </g>
   <g id="line2d_107">
    <path d="M 98.091043 83.607014 
L 83.607014 83.607014 
" clip-path="url(#p424850bce2)" style="fill: none; stroke: #000000; stroke-linecap: square"/>
   </g>
   <g id="line2d_108">
    <path d="M 98.091043 83.607014 
L 112.575071 83.607014 
" clip-path="url(#p424850bce2)" style="fill: none; stroke: #000000; stroke-linecap: square"/>
   </g>
   <g id="line2d_109">
    <path d="M 98.091043 83.607014 
L 98.091043 69.122986 
" clip-path="url(#p424850bce2)" style="fill: none; stroke: #000000; stroke-linecap: square"/>
   </g>
   <g id="line2d_110">
    <path d="M 112.575071 83.607014 
L 112.575071 98.091043 
" clip-path="url(#p424850bce2)" style="fill: none; stroke: #000000; stroke-linecap: square"/>
   </g>
   <g id="line2d_111">
    <path d="M 112.575071 83.607014 
L 98.091043 83.607014 
" clip-path="url(#p424850bce2)" style="fill: none; stroke: #000000; stroke-linecap: square"/>
   </g>
   <g id="line2d_112">
    <path d="M 112.575071 83.607014 
L 127.0591 83.607014 
" clip-path="url(#p424850bce2)" style="fill: none; stroke: #000000; stroke-linecap: square"/>
   </g>
   <g id="line2d_113">
    <path d="M 112.575071 83.607014 
L 112.575071 69.122986 
" clip-path="url(#p424850bce2)" style="fill: none; stroke: #000000; stroke-linecap: square"/>
   </g>
   <g id="line2d_114">
    <path d="M 127.0591 83.607014 
L 127.0591 98.091043 
" clip-path="url(#p424850bce2)" style="fill: none; stroke: #000000; stroke-linecap: square"/>
   </g>
   <g id="line2d_115">
    <path d="M 127.0591 83.607014 
L 112.575071 83.607014 
" clip-path="url(#p424850bce2)" style="fill: none; stroke: #000000; stroke-linecap: square"/>
   </g>
   <g id="line2d_116">
    <path d="M 127.0591 83.607014 
L 127.0591 69.122986 
" clip-path="url(#p424850bce2)" style="fill: none; stroke: #000000; stroke-linecap: square"/>
   </g>
   <g id="line2d_117">
    <path d="M 25.6709 69.122986 
L 25.6709 83.607014 
" clip-path="url(#p424850bce2)" style="fill: none; stroke: #000000; stroke-linecap: square"/>
   </g>
   <g id="line2d_118">
    <path d="M 25.6709 69.122986 
L 40.154929 69.122986 
" clip-path="url(#p424850bce2)" style="fill: none; stroke: #000000; stroke-linecap: square"/>
   </g>
   <g id="line2d_119">
    <path d="M 25.6709 69.122986 
L 25.6709 54.638957 
" clip-path="url(#p424850bce2)" style="fill: none; stroke: #000000; stroke-linecap: square"/>
   </g>
   <g id="line2d_120">
    <path d="M 40.154929 69.122986 
L 40.154929 83.607014 
" clip-path="url(#p424850bce2)" style="fill: none; stroke: #000000; stroke-linecap: square"/>
   </g>
   <g id="line2d_121">
    <path d="M 40.154929 69.122986 
L 25.6709 69.122986 
" clip-path="url(#p424850bce2)" style="fill: none; stroke: #000000; stroke-linecap: square"/>
   </g>
   <g id="line2d_122">
    <path d="M 40.154929 69.122986 
L 54.638957 69.122986 
" clip-path="url(#p424850bce2)" style="fill: none; stroke: #000000; stroke-linecap: square"/>
   </g>
   <g id="line2d_123">
    <path d="M 40.154929 69.122986 
L 40.154929 54.638957 
" clip-path="url(#p424850bce2)" style="fill: none; stroke: #000000; stroke-linecap: square"/>
   </g>
   <g id="line2d_124">
    <path d="M 54.638957 69.122986 
L 54.638957 83.607014 
" clip-path="url(#p424850bce2)" style="fill: none; stroke: #000000; stroke-linecap: square"/>
   </g>
   <g id="line2d_125">
    <path d="M 54.638957 69.122986 
L 40.154929 69.122986 
" clip-path="url(#p424850bce2)" style="fill: none; stroke: #000000; stroke-linecap: square"/>
   </g>
   <g id="line2d_126">
    <path d="M 54.638957 69.122986 
L 69.122986 69.122986 
" clip-path="url(#p424850bce2)" style="fill: none; stroke: #000000; stroke-linecap: square"/>
   </g>
   <g id="line2d_127">
    <path d="M 54.638957 69.122986 
L 54.638957 54.638957 
" clip-path="url(#p424850bce2)" style="fill: none; stroke: #000000; stroke-linecap: square"/>
   </g>
   <g id="line2d_128">
    <path d="M 69.122986 69.122986 
L 69.122986 83.607014 
" clip-path="url(#p424850bce2)" style="fill: none; stroke: #000000; stroke-linecap: square"/>
   </g>
   <g id="line2d_129">
    <path d="M 69.122986 69.122986 
L 54.638957 69.122986 
" clip-path="url(#p424850bce2)" style="fill: none; stroke: #000000; stroke-linecap: square"/>
   </g>
   <g id="line2d_130">
    <path d="M 69.122986 69.122986 
L 83.607014 69.122986 
" clip-path="url(#p424850bce2)" style="fill: none; stroke: #000000; stroke-linecap: square"/>
   </g>
   <g id="line2d_131">
    <path d="M 69.122986 69.122986 
L 69.122986 54.638957 
" clip-path="url(#p424850bce2)" style="fill: none; stroke: #000000; stroke-linecap: square"/>
   </g>
   <g id="line2d_132">
    <path d="M 83.607014 69.122986 
L 83.607014 83.607014 
" clip-path="url(#p424850bce2)" style="fill: none; stroke: #000000; stroke-linecap: square"/>
   </g>
   <g id="line2d_133">
    <path d="M 83.607014 69.122986 
L 69.122986 69.122986 
" clip-path="url(#p424850bce2)" style="fill: none; stroke: #000000; stroke-linecap: square"/>
   </g>
   <g id="line2d_134">
    <path d="M 83.607014 69.122986 
L 98.091043 69.122986 
" clip-path="url(#p424850bce2)" style="fill: none; stroke: #000000; stroke-linecap: square"/>
   </g>
   <g id="line2d_135">
    <path d="M 83.607014 69.122986 
L 83.607014 54.638957 
" clip-path="url(#p424850bce2)" style="fill: none; stroke: #000000; stroke-linecap: square"/>
   </g>
   <g id="line2d_136">
    <path d="M 98.091043 69.122986 
L 98.091043 83.607014 
" clip-path="url(#p424850bce2)" style="fill: none; stroke: #000000; stroke-linecap: square"/>
   </g>
   <g id="line2d_137">
    <path d="M 98.091043 69.122986 
L 83.607014 69.122986 
" clip-path="url(#p424850bce2)" style="fill: none; stroke: #000000; stroke-linecap: square"/>
   </g>
   <g id="line2d_138">
    <path d="M 98.091043 69.122986 
L 112.575071 69.122986 
" clip-path="url(#p424850bce2)" style="fill: none; stroke: #000000; stroke-linecap: square"/>
   </g>
   <g id="line2d_139">
    <path d="M 98.091043 69.122986 
L 98.091043 54.638957 
" clip-path="url(#p424850bce2)" style="fill: none; stroke: #000000; stroke-linecap: square"/>
   </g>
   <g id="line2d_140">
    <path d="M 112.575071 69.122986 
L 112.575071 83.607014 
" clip-path="url(#p424850bce2)" style="fill: none; stroke: #000000; stroke-linecap: square"/>
   </g>
   <g id="line2d_141">
    <path d="M 112.575071 69.122986 
L 98.091043 69.122986 
" clip-path="url(#p424850bce2)" style="fill: none; stroke: #000000; stroke-linecap: square"/>
   </g>
   <g id="line2d_142">
    <path d="M 112.575071 69.122986 
L 127.0591 69.122986 
" clip-path="url(#p424850bce2)" style="fill: none; stroke: #000000; stroke-linecap: square"/>
   </g>
   <g id="line2d_143">
    <path d="M 112.575071 69.122986 
L 112.575071 54.638957 
" clip-path="url(#p424850bce2)" style="fill: none; stroke: #000000; stroke-linecap: square"/>
   </g>
   <g id="line2d_144">
    <path d="M 127.0591 69.122986 
L 127.0591 83.607014 
" clip-path="url(#p424850bce2)" style="fill: none; stroke: #000000; stroke-linecap: square"/>
   </g>
   <g id="line2d_145">
    <path d="M 127.0591 69.122986 
L 112.575071 69.122986 
" clip-path="url(#p424850bce2)" style="fill: none; stroke: #000000; stroke-linecap: square"/>
   </g>
   <g id="line2d_146">
    <path d="M 127.0591 69.122986 
L 127.0591 54.638957 
" clip-path="url(#p424850bce2)" style="fill: none; stroke: #000000; stroke-linecap: square"/>
   </g>
   <g id="line2d_147">
    <path d="M 127.0591 69.122986 
L 141.543128 69.122986 
" clip-path="url(#p424850bce2)" style="fill: none; stroke: #000000; stroke-linecap: square"/>
   </g>
   <g id="line2d_148">
    <path d="M 25.6709 54.638957 
L 25.6709 69.122986 
" clip-path="url(#p424850bce2)" style="fill: none; stroke: #000000; stroke-linecap: square"/>
   </g>
   <g id="line2d_149">
    <path d="M 25.6709 54.638957 
L 40.154929 54.638957 
" clip-path="url(#p424850bce2)" style="fill: none; stroke: #000000; stroke-linecap: square"/>
   </g>
   <g id="line2d_150">
    <path d="M 25.6709 54.638957 
L 25.6709 40.154929 
" clip-path="url(#p424850bce2)" style="fill: none; stroke: #000000; stroke-linecap: square"/>
   </g>
   <g id="line2d_151">
    <path d="M 40.154929 54.638957 
L 40.154929 69.122986 
" clip-path="url(#p424850bce2)" style="fill: none; stroke: #000000; stroke-linecap: square"/>
   </g>
   <g id="line2d_152">
    <path d="M 40.154929 54.638957 
L 25.6709 54.638957 
" clip-path="url(#p424850bce2)" style="fill: none; stroke: #000000; stroke-linecap: square"/>
   </g>
   <g id="line2d_153">
    <path d="M 40.154929 54.638957 
L 54.638957 54.638957 
" clip-path="url(#p424850bce2)" style="fill: none; stroke: #000000; stroke-linecap: square"/>
   </g>
   <g id="line2d_154">
    <path d="M 40.154929 54.638957 
L 40.154929 40.154929 
" clip-path="url(#p424850bce2)" style="fill: none; stroke: #000000; stroke-linecap: square"/>
   </g>
   <g id="line2d_155">
    <path d="M 54.638957 54.638957 
L 54.638957 69.122986 
" clip-path="url(#p424850bce2)" style="fill: none; stroke: #000000; stroke-linecap: square"/>
   </g>
   <g id="line2d_156">
    <path d="M 54.638957 54.638957 
L 40.154929 54.638957 
" clip-path="url(#p424850bce2)" style="fill: none; stroke: #000000; stroke-linecap: square"/>
   </g>
   <g id="line2d_157">
    <path d="M 54.638957 54.638957 
L 69.122986 54.638957 
" clip-path="url(#p424850bce2)" style="fill: none; stroke: #000000; stroke-linecap: square"/>
   </g>
   <g id="line2d_158">
    <path d="M 54.638957 54.638957 
L 54.638957 40.154929 
" clip-path="url(#p424850bce2)" style="fill: none; stroke: #000000; stroke-linecap: square"/>
   </g>
   <g id="line2d_159">
    <path d="M 69.122986 54.638957 
L 69.122986 69.122986 
" clip-path="url(#p424850bce2)" style="fill: none; stroke: #000000; stroke-linecap: square"/>
   </g>
   <g id="line2d_160">
    <path d="M 69.122986 54.638957 
L 54.638957 54.638957 
" clip-path="url(#p424850bce2)" style="fill: none; stroke: #000000; stroke-linecap: square"/>
   </g>
   <g id="line2d_161">
    <path d="M 69.122986 54.638957 
L 83.607014 54.638957 
" clip-path="url(#p424850bce2)" style="fill: none; stroke: #000000; stroke-linecap: square"/>
   </g>
   <g id="line2d_162">
    <path d="M 69.122986 54.638957 
L 69.122986 40.154929 
" clip-path="url(#p424850bce2)" style="fill: none; stroke: #000000; stroke-linecap: square"/>
   </g>
   <g id="line2d_163">
    <path d="M 83.607014 54.638957 
L 83.607014 69.122986 
" clip-path="url(#p424850bce2)" style="fill: none; stroke: #000000; stroke-linecap: square"/>
   </g>
   <g id="line2d_164">
    <path d="M 83.607014 54.638957 
L 69.122986 54.638957 
" clip-path="url(#p424850bce2)" style="fill: none; stroke: #000000; stroke-linecap: square"/>
   </g>
   <g id="line2d_165">
    <path d="M 83.607014 54.638957 
L 98.091043 54.638957 
" clip-path="url(#p424850bce2)" style="fill: none; stroke: #000000; stroke-linecap: square"/>
   </g>
   <g id="line2d_166">
    <path d="M 83.607014 54.638957 
L 83.607014 40.154929 
" clip-path="url(#p424850bce2)" style="fill: none; stroke: #000000; stroke-linecap: square"/>
   </g>
   <g id="line2d_167">
    <path d="M 98.091043 54.638957 
L 98.091043 69.122986 
" clip-path="url(#p424850bce2)" style="fill: none; stroke: #000000; stroke-linecap: square"/>
   </g>
   <g id="line2d_168">
    <path d="M 98.091043 54.638957 
L 83.607014 54.638957 
" clip-path="url(#p424850bce2)" style="fill: none; stroke: #000000; stroke-linecap: square"/>
   </g>
   <g id="line2d_169">
    <path d="M 98.091043 54.638957 
L 112.575071 54.638957 
" clip-path="url(#p424850bce2)" style="fill: none; stroke: #000000; stroke-linecap: square"/>
   </g>
   <g id="line2d_170">
    <path d="M 98.091043 54.638957 
L 98.091043 40.154929 
" clip-path="url(#p424850bce2)" style="fill: none; stroke: #000000; stroke-linecap: square"/>
   </g>
   <g id="line2d_171">
    <path d="M 112.575071 54.638957 
L 112.575071 69.122986 
" clip-path="url(#p424850bce2)" style="fill: none; stroke: #000000; stroke-linecap: square"/>
   </g>
   <g id="line2d_172">
    <path d="M 112.575071 54.638957 
L 98.091043 54.638957 
" clip-path="url(#p424850bce2)" style="fill: none; stroke: #000000; stroke-linecap: square"/>
   </g>
   <g id="line2d_173">
    <path d="M 112.575071 54.638957 
L 127.0591 54.638957 
" clip-path="url(#p424850bce2)" style="fill: none; stroke: #000000; stroke-linecap: square"/>
   </g>
   <g id="line2d_174">
    <path d="M 112.575071 54.638957 
L 112.575071 40.154929 
" clip-path="url(#p424850bce2)" style="fill: none; stroke: #000000; stroke-linecap: square"/>
   </g>
   <g id="line2d_175">
    <path d="M 127.0591 54.638957 
L 127.0591 69.122986 
" clip-path="url(#p424850bce2)" style="fill: none; stroke: #000000; stroke-linecap: square"/>
   </g>
   <g id="line2d_176">
    <path d="M 127.0591 54.638957 
L 112.575071 54.638957 
" clip-path="url(#p424850bce2)" style="fill: none; stroke: #000000; stroke-linecap: square"/>
   </g>
   <g id="line2d_177">
    <path d="M 127.0591 54.638957 
L 127.0591 40.154929 
" clip-path="url(#p424850bce2)" style="fill: none; stroke: #000000; stroke-linecap: square"/>
   </g>
   <g id="line2d_178">
    <path d="M 25.6709 40.154929 
L 25.6709 54.638957 
" clip-path="url(#p424850bce2)" style="fill: none; stroke: #000000; stroke-linecap: square"/>
   </g>
   <g id="line2d_179">
    <path d="M 25.6709 40.154929 
L 40.154929 40.154929 
" clip-path="url(#p424850bce2)" style="fill: none; stroke: #000000; stroke-linecap: square"/>
   </g>
   <g id="line2d_180">
    <path d="M 25.6709 40.154929 
L 25.6709 25.6709 
" clip-path="url(#p424850bce2)" style="fill: none; stroke: #000000; stroke-linecap: square"/>
   </g>
   <g id="line2d_181">
    <path d="M 40.154929 40.154929 
L 40.154929 54.638957 
" clip-path="url(#p424850bce2)" style="fill: none; stroke: #000000; stroke-linecap: square"/>
   </g>
   <g id="line2d_182">
    <path d="M 40.154929 40.154929 
L 25.6709 40.154929 
" clip-path="url(#p424850bce2)" style="fill: none; stroke: #000000; stroke-linecap: square"/>
   </g>
   <g id="line2d_183">
    <path d="M 40.154929 40.154929 
L 54.638957 40.154929 
" clip-path="url(#p424850bce2)" style="fill: none; stroke: #000000; stroke-linecap: square"/>
   </g>
   <g id="line2d_184">
    <path d="M 40.154929 40.154929 
L 40.154929 25.6709 
" clip-path="url(#p424850bce2)" style="fill: none; stroke: #000000; stroke-linecap: square"/>
   </g>
   <g id="line2d_185">
    <path d="M 54.638957 40.154929 
L 54.638957 54.638957 
" clip-path="url(#p424850bce2)" style="fill: none; stroke: #000000; stroke-linecap: square"/>
   </g>
   <g id="line2d_186">
    <path d="M 54.638957 40.154929 
L 40.154929 40.154929 
" clip-path="url(#p424850bce2)" style="fill: none; stroke: #000000; stroke-linecap: square"/>
   </g>
   <g id="line2d_187">
    <path d="M 54.638957 40.154929 
L 69.122986 40.154929 
" clip-path="url(#p424850bce2)" style="fill: none; stroke: #000000; stroke-linecap: square"/>
   </g>
   <g id="line2d_188">
    <path d="M 54.638957 40.154929 
L 54.638957 25.6709 
" clip-path="url(#p424850bce2)" style="fill: none; stroke: #000000; stroke-linecap: square"/>
   </g>
   <g id="line2d_189">
    <path d="M 69.122986 40.154929 
L 69.122986 54.638957 
" clip-path="url(#p424850bce2)" style="fill: none; stroke: #000000; stroke-linecap: square"/>
   </g>
   <g id="line2d_190">
    <path d="M 69.122986 40.154929 
L 54.638957 40.154929 
" clip-path="url(#p424850bce2)" style="fill: none; stroke: #000000; stroke-linecap: square"/>
   </g>
   <g id="line2d_191">
    <path d="M 69.122986 40.154929 
L 83.607014 40.154929 
" clip-path="url(#p424850bce2)" style="fill: none; stroke: #000000; stroke-linecap: square"/>
   </g>
   <g id="line2d_192">
    <path d="M 69.122986 40.154929 
L 69.122986 25.6709 
" clip-path="url(#p424850bce2)" style="fill: none; stroke: #000000; stroke-linecap: square"/>
   </g>
   <g id="line2d_193">
    <path d="M 83.607014 40.154929 
L 83.607014 54.638957 
" clip-path="url(#p424850bce2)" style="fill: none; stroke: #000000; stroke-linecap: square"/>
   </g>
   <g id="line2d_194">
    <path d="M 83.607014 40.154929 
L 69.122986 40.154929 
" clip-path="url(#p424850bce2)" style="fill: none; stroke: #000000; stroke-linecap: square"/>
   </g>
   <g id="line2d_195">
    <path d="M 83.607014 40.154929 
L 98.091043 40.154929 
" clip-path="url(#p424850bce2)" style="fill: none; stroke: #000000; stroke-linecap: square"/>
   </g>
   <g id="line2d_196">
    <path d="M 83.607014 40.154929 
L 83.607014 25.6709 
" clip-path="url(#p424850bce2)" style="fill: none; stroke: #000000; stroke-linecap: square"/>
   </g>
   <g id="line2d_197">
    <path d="M 98.091043 40.154929 
L 98.091043 54.638957 
" clip-path="url(#p424850bce2)" style="fill: none; stroke: #000000; stroke-linecap: square"/>
   </g>
   <g id="line2d_198">
    <path d="M 98.091043 40.154929 
L 83.607014 40.154929 
" clip-path="url(#p424850bce2)" style="fill: none; stroke: #000000; stroke-linecap: square"/>
   </g>
   <g id="line2d_199">
    <path d="M 98.091043 40.154929 
L 112.575071 40.154929 
" clip-path="url(#p424850bce2)" style="fill: none; stroke: #000000; stroke-linecap: square"/>
   </g>
   <g id="line2d_200">
    <path d="M 98.091043 40.154929 
L 98.091043 25.6709 
" clip-path="url(#p424850bce2)" style="fill: none; stroke: #000000; stroke-linecap: square"/>
   </g>
   <g id="line2d_201">
    <path d="M 112.575071 40.154929 
L 112.575071 54.638957 
" clip-path="url(#p424850bce2)" style="fill: none; stroke: #000000; stroke-linecap: square"/>
   </g>
   <g id="line2d_202">
    <path d="M 112.575071 40.154929 
L 98.091043 40.154929 
" clip-path="url(#p424850bce2)" style="fill: none; stroke: #000000; stroke-linecap: square"/>
   </g>
   <g id="line2d_203">
    <path d="M 112.575071 40.154929 
L 127.0591 40.154929 
" clip-path="url(#p424850bce2)" style="fill: none; stroke: #000000; stroke-linecap: square"/>
   </g>
   <g id="line2d_204">
    <path d="M 112.575071 40.154929 
L 112.575071 25.6709 
" clip-path="url(#p424850bce2)" style="fill: none; stroke: #000000; stroke-linecap: square"/>
   </g>
   <g id="line2d_205">
    <path d="M 127.0591 40.154929 
L 127.0591 54.638957 
" clip-path="url(#p424850bce2)" style="fill: none; stroke: #000000; stroke-linecap: square"/>
   </g>
   <g id="line2d_206">
    <path d="M 127.0591 40.154929 
L 112.575071 40.154929 
" clip-path="url(#p424850bce2)" style="fill: none; stroke: #000000; stroke-linecap: square"/>
   </g>
   <g id="line2d_207">
    <path d="M 127.0591 40.154929 
L 127.0591 25.6709 
" clip-path="url(#p424850bce2)" style="fill: none; stroke: #000000; stroke-linecap: square"/>
   </g>
   <g id="line2d_208">
    <path d="M 25.6709 25.6709 
L 25.6709 40.154929 
" clip-path="url(#p424850bce2)" style="fill: none; stroke: #000000; stroke-linecap: square"/>
   </g>
   <g id="line2d_209">
    <path d="M 25.6709 25.6709 
L 40.154929 25.6709 
" clip-path="url(#p424850bce2)" style="fill: none; stroke: #000000; stroke-linecap: square"/>
   </g>
   <g id="line2d_210">
    <path d="M 25.6709 25.6709 
L 11.186872 25.6709 
" clip-path="url(#p424850bce2)" style="fill: none; stroke: #000000; stroke-linecap: square"/>
   </g>
   <g id="line2d_211">
    <path d="M 40.154929 25.6709 
L 40.154929 40.154929 
" clip-path="url(#p424850bce2)" style="fill: none; stroke: #000000; stroke-linecap: square"/>
   </g>
   <g id="line2d_212">
    <path d="M 40.154929 25.6709 
L 25.6709 25.6709 
" clip-path="url(#p424850bce2)" style="fill: none; stroke: #000000; stroke-linecap: square"/>
   </g>
   <g id="line2d_213">
    <path d="M 40.154929 25.6709 
L 54.638957 25.6709 
" clip-path="url(#p424850bce2)" style="fill: none; stroke: #000000; stroke-linecap: square"/>
   </g>
   <g id="line2d_214">
    <path d="M 54.638957 25.6709 
L 54.638957 40.154929 
" clip-path="url(#p424850bce2)" style="fill: none; stroke: #000000; stroke-linecap: square"/>
   </g>
   <g id="line2d_215">
    <path d="M 54.638957 25.6709 
L 40.154929 25.6709 
" clip-path="url(#p424850bce2)" style="fill: none; stroke: #000000; stroke-linecap: square"/>
   </g>
   <g id="line2d_216">
    <path d="M 54.638957 25.6709 
L 69.122986 25.6709 
" clip-path="url(#p424850bce2)" style="fill: none; stroke: #000000; stroke-linecap: square"/>
   </g>
   <g id="line2d_217">
    <path d="M 69.122986 25.6709 
L 69.122986 40.154929 
" clip-path="url(#p424850bce2)" style="fill: none; stroke: #000000; stroke-linecap: square"/>
   </g>
   <g id="line2d_218">
    <path d="M 69.122986 25.6709 
L 54.638957 25.6709 
" clip-path="url(#p424850bce2)" style="fill: none; stroke: #000000; stroke-linecap: square"/>
   </g>
   <g id="line2d_219">
    <path d="M 69.122986 25.6709 
L 83.607014 25.6709 
" clip-path="url(#p424850bce2)" style="fill: none; stroke: #000000; stroke-linecap: square"/>
   </g>
   <g id="line2d_220">
    <path d="M 83.607014 25.6709 
L 83.607014 40.154929 
" clip-path="url(#p424850bce2)" style="fill: none; stroke: #000000; stroke-linecap: square"/>
   </g>
   <g id="line2d_221">
    <path d="M 83.607014 25.6709 
L 69.122986 25.6709 
" clip-path="url(#p424850bce2)" style="fill: none; stroke: #000000; stroke-linecap: square"/>
   </g>
   <g id="line2d_222">
    <path d="M 83.607014 25.6709 
L 98.091043 25.6709 
" clip-path="url(#p424850bce2)" style="fill: none; stroke: #000000; stroke-linecap: square"/>
   </g>
   <g id="line2d_223">
    <path d="M 83.607014 25.6709 
L 83.607014 11.186872 
" clip-path="url(#p424850bce2)" style="fill: none; stroke: #000000; stroke-linecap: square"/>
   </g>
   <g id="line2d_224">
    <path d="M 98.091043 25.6709 
L 98.091043 40.154929 
" clip-path="url(#p424850bce2)" style="fill: none; stroke: #000000; stroke-linecap: square"/>
   </g>
   <g id="line2d_225">
    <path d="M 98.091043 25.6709 
L 83.607014 25.6709 
" clip-path="url(#p424850bce2)" style="fill: none; stroke: #000000; stroke-linecap: square"/>
   </g>
   <g id="line2d_226">
    <path d="M 98.091043 25.6709 
L 112.575071 25.6709 
" clip-path="url(#p424850bce2)" style="fill: none; stroke: #000000; stroke-linecap: square"/>
   </g>
   <g id="line2d_227">
    <path d="M 112.575071 25.6709 
L 112.575071 40.154929 
" clip-path="url(#p424850bce2)" style="fill: none; stroke: #000000; stroke-linecap: square"/>
   </g>
   <g id="line2d_228">
    <path d="M 112.575071 25.6709 
L 98.091043 25.6709 
" clip-path="url(#p424850bce2)" style="fill: none; stroke: #000000; stroke-linecap: square"/>
   </g>
   <g id="line2d_229">
    <path d="M 112.575071 25.6709 
L 127.0591 25.6709 
" clip-path="url(#p424850bce2)" style="fill: none; stroke: #000000; stroke-linecap: square"/>
   </g>
   <g id="line2d_230">
    <path d="M 127.0591 25.6709 
L 127.0591 40.154929 
" clip-path="url(#p424850bce2)" style="fill: none; stroke: #000000; stroke-linecap: square"/>
   </g>
   <g id="line2d_231">
    <path d="M 127.0591 25.6709 
L 112.575071 25.6709 
" clip-path="url(#p424850bce2)" style="fill: none; stroke: #000000; stroke-linecap: square"/>
   </g>
   <g id="line2d_232">
    <path d="M 127.0591 25.6709 
L 141.543128 25.6709 
" clip-path="url(#p424850bce2)" style="fill: none; stroke: #000000; stroke-linecap: square"/>
   </g>
   <g id="line2d_233">
    <path d="M 11.186872 127.0591 
L 25.6709 127.0591 
" clip-path="url(#p424850bce2)" style="fill: none; stroke: #000000; stroke-linecap: square"/>
   </g>
   <g id="line2d_234">
    <path d="M 69.122986 141.543128 
L 69.122986 127.0591 
" clip-path="url(#p424850bce2)" style="fill: none; stroke: #000000; stroke-linecap: square"/>
   </g>
   <g id="line2d_235">
    <path d="M 141.543128 127.0591 
L 127.0591 127.0591 
" clip-path="url(#p424850bce2)" style="fill: none; stroke: #000000; stroke-linecap: square"/>
   </g>
   <g id="line2d_236">
    <path d="M 11.186872 83.607014 
L 25.6709 83.607014 
" clip-path="url(#p424850bce2)" style="fill: none; stroke: #000000; stroke-linecap: square"/>
   </g>
   <g id="line2d_237">
    <path d="M 11.186872 25.6709 
L 25.6709 25.6709 
" clip-path="url(#p424850bce2)" style="fill: none; stroke: #000000; stroke-linecap: square"/>
   </g>
   <g id="line2d_238">
    <path d="M 141.543128 69.122986 
L 127.0591 69.122986 
" clip-path="url(#p424850bce2)" style="fill: none; stroke: #000000; stroke-linecap: square"/>
   </g>
   <g id="line2d_239">
    <path d="M 83.607014 11.186872 
L 83.607014 25.6709 
" clip-path="url(#p424850bce2)" style="fill: none; stroke: #000000; stroke-linecap: square"/>
   </g>
   <g id="line2d_240">
    <path d="M 141.543128 25.6709 
L 127.0591 25.6709 
" clip-path="url(#p424850bce2)" style="fill: none; stroke: #000000; stroke-linecap: square"/>
   </g>
   <g id="patch_2">
    <path d="M 25.6709 133.956256 
C 27.500048 133.956256 29.254524 133.229528 30.547927 131.936126 
C 31.841329 130.642723 32.568057 128.888247 32.568057 127.0591 
C 32.568057 125.229952 31.841329 123.475476 30.547927 122.182073 
C 29.254524 120.888671 27.500048 120.161943 25.6709 120.161943 
C 23.841753 120.161943 22.087277 120.888671 20.793874 122.182073 
C 19.500472 123.475476 18.773744 125.229952 18.773744 127.0591 
C 18.773744 128.888247 19.500472 130.642723 20.793874 131.936126 
C 22.087277 133.229528 23.841753 133.956256 25.6709 133.956256 
z
" clip-path="url(#p424850bce2)" style="fill: #348abd; stroke: #000000; stroke-linejoin: miter"/>
   </g>
   <g id="patch_3">
    <path d="M 40.154929 133.956256 
C 41.984076 133.956256 43.738553 133.229528 45.031955 131.936126 
C 46.325357 130.642723 47.052085 128.888247 47.052085 127.0591 
C 47.052085 125.229952 46.325357 123.475476 45.031955 122.182073 
C 43.738553 120.888671 41.984076 120.161943 40.154929 120.161943 
C 38.325782 120.161943 36.571305 120.888671 35.277903 122.182073 
C 33.9845 123.475476 33.257773 125.229952 33.257773 127.0591 
C 33.257773 128.888247 33.9845 130.642723 35.277903 131.936126 
C 36.571305 133.229528 38.325782 133.956256 40.154929 133.956256 
z
" clip-path="url(#p424850bce2)" style="fill: #348abd; stroke: #000000; stroke-linejoin: miter"/>
   </g>
   <g id="patch_4">
    <path d="M 54.638957 133.956256 
C 56.468105 133.956256 58.222581 133.229528 59.515983 131.936126 
C 60.809386 130.642723 61.536114 128.888247 61.536114 127.0591 
C 61.536114 125.229952 60.809386 123.475476 59.515983 122.182073 
C 58.222581 120.888671 56.468105 120.161943 54.638957 120.161943 
C 52.80981 120.161943 51.055334 120.888671 49.761931 122.182073 
C 48.468529 123.475476 47.741801 125.229952 47.741801 127.0591 
C 47.741801 128.888247 48.468529 130.642723 49.761931 131.936126 
C 51.055334 133.229528 52.80981 133.956256 54.638957 133.956256 
z
" clip-path="url(#p424850bce2)" style="fill: #348abd; stroke: #000000; stroke-linejoin: miter"/>
   </g>
   <g id="patch_5">
    <path d="M 69.122986 133.956256 
C 70.952133 133.956256 72.706609 133.229528 74.000012 131.936126 
C 75.293414 130.642723 76.020142 128.888247 76.020142 127.0591 
C 76.020142 125.229952 75.293414 123.475476 74.000012 122.182073 
C 72.706609 120.888671 70.952133 120.161943 69.122986 120.161943 
C 67.293839 120.161943 65.539362 120.888671 64.24596 122.182073 
C 62.952557 123.475476 62.225829 125.229952 62.225829 127.0591 
C 62.225829 128.888247 62.952557 130.642723 64.24596 131.936126 
C 65.539362 133.229528 67.293839 133.956256 69.122986 133.956256 
z
" clip-path="url(#p424850bce2)" style="fill: #348abd; stroke: #000000; stroke-linejoin: miter"/>
   </g>
   <g id="patch_6">
    <path d="M 83.607014 133.956256 
C 85.436161 133.956256 87.190638 133.229528 88.48404 131.936126 
C 89.777443 130.642723 90.504171 128.888247 90.504171 127.0591 
C 90.504171 125.229952 89.777443 123.475476 88.48404 122.182073 
C 87.190638 120.888671 85.436161 120.161943 83.607014 120.161943 
C 81.777867 120.161943 80.023391 120.888671 78.729988 122.182073 
C 77.436586 123.475476 76.709858 125.229952 76.709858 127.0591 
C 76.709858 128.888247 77.436586 130.642723 78.729988 131.936126 
C 80.023391 133.229528 81.777867 133.956256 83.607014 133.956256 
z
" clip-path="url(#p424850bce2)" style="fill: #348abd; stroke: #000000; stroke-linejoin: miter"/>
   </g>
   <g id="patch_7">
    <path d="M 98.091043 133.956256 
C 99.92019 133.956256 101.674666 133.229528 102.968069 131.936126 
C 104.261471 130.642723 104.988199 128.888247 104.988199 127.0591 
C 104.988199 125.229952 104.261471 123.475476 102.968069 122.182073 
C 101.674666 120.888671 99.92019 120.161943 98.091043 120.161943 
C 96.261895 120.161943 94.507419 120.888671 93.214017 122.182073 
C 91.920614 123.475476 91.193886 125.229952 91.193886 127.0591 
C 91.193886 128.888247 91.920614 130.642723 93.214017 131.936126 
C 94.507419 133.229528 96.261895 133.956256 98.091043 133.956256 
z
" clip-path="url(#p424850bce2)" style="fill: #348abd; stroke: #000000; stroke-linejoin: miter"/>
   </g>
   <g id="patch_8">
    <path d="M 112.575071 133.956256 
C 114.404218 133.956256 116.158695 133.229528 117.452097 131.936126 
C 118.7455 130.642723 119.472227 128.888247 119.472227 127.0591 
C 119.472227 125.229952 118.7455 123.475476 117.452097 122.182073 
C 116.158695 120.888671 114.404218 120.161943 112.575071 120.161943 
C 110.745924 120.161943 108.991447 120.888671 107.698045 122.182073 
C 106.404643 123.475476 105.677915 125.229952 105.677915 127.0591 
C 105.677915 128.888247 106.404643 130.642723 107.698045 131.936126 
C 108.991447 133.229528 110.745924 133.956256 112.575071 133.956256 
z
" clip-path="url(#p424850bce2)" style="fill: #348abd; stroke: #000000; stroke-linejoin: miter"/>
   </g>
   <g id="patch_9">
    <path d="M 127.0591 133.956256 
C 128.888247 133.956256 130.642723 133.229528 131.936126 131.936126 
C 133.229528 130.642723 133.956256 128.888247 133.956256 127.0591 
C 133.956256 125.229952 133.229528 123.475476 131.936126 122.182073 
C 130.642723 120.888671 128.888247 120.161943 127.0591 120.161943 
C 125.229952 120.161943 123.475476 120.888671 122.182073 122.182073 
C 120.888671 123.475476 120.161943 125.229952 120.161943 127.0591 
C 120.161943 128.888247 120.888671 130.642723 122.182073 131.936126 
C 123.475476 133.229528 125.229952 133.956256 127.0591 133.956256 
z
" clip-path="url(#p424850bce2)" style="fill: #348abd; stroke: #000000; stroke-linejoin: miter"/>
   </g>
   <g id="patch_10">
    <path d="M 25.6709 119.472227 
C 27.500048 119.472227 29.254524 118.7455 30.547927 117.452097 
C 31.841329 116.158695 32.568057 114.404218 32.568057 112.575071 
C 32.568057 110.745924 31.841329 108.991447 30.547927 107.698045 
C 29.254524 106.404643 27.500048 105.677915 25.6709 105.677915 
C 23.841753 105.677915 22.087277 106.404643 20.793874 107.698045 
C 19.500472 108.991447 18.773744 110.745924 18.773744 112.575071 
C 18.773744 114.404218 19.500472 116.158695 20.793874 117.452097 
C 22.087277 118.7455 23.841753 119.472227 25.6709 119.472227 
z
" clip-path="url(#p424850bce2)" style="fill: #348abd; stroke: #000000; stroke-linejoin: miter"/>
   </g>
   <g id="patch_11">
    <path d="M 40.154929 119.472227 
C 41.984076 119.472227 43.738553 118.7455 45.031955 117.452097 
C 46.325357 116.158695 47.052085 114.404218 47.052085 112.575071 
C 47.052085 110.745924 46.325357 108.991447 45.031955 107.698045 
C 43.738553 106.404643 41.984076 105.677915 40.154929 105.677915 
C 38.325782 105.677915 36.571305 106.404643 35.277903 107.698045 
C 33.9845 108.991447 33.257773 110.745924 33.257773 112.575071 
C 33.257773 114.404218 33.9845 116.158695 35.277903 117.452097 
C 36.571305 118.7455 38.325782 119.472227 40.154929 119.472227 
z
" clip-path="url(#p424850bce2)" style="fill: #348abd; stroke: #000000; stroke-linejoin: miter"/>
   </g>
   <g id="patch_12">
    <path d="M 54.638957 119.472227 
C 56.468105 119.472227 58.222581 118.7455 59.515983 117.452097 
C 60.809386 116.158695 61.536114 114.404218 61.536114 112.575071 
C 61.536114 110.745924 60.809386 108.991447 59.515983 107.698045 
C 58.222581 106.404643 56.468105 105.677915 54.638957 105.677915 
C 52.80981 105.677915 51.055334 106.404643 49.761931 107.698045 
C 48.468529 108.991447 47.741801 110.745924 47.741801 112.575071 
C 47.741801 114.404218 48.468529 116.158695 49.761931 117.452097 
C 51.055334 118.7455 52.80981 119.472227 54.638957 119.472227 
z
" clip-path="url(#p424850bce2)" style="fill: #348abd; stroke: #000000; stroke-linejoin: miter"/>
   </g>
   <g id="patch_13">
    <path d="M 69.122986 119.472227 
C 70.952133 119.472227 72.706609 118.7455 74.000012 117.452097 
C 75.293414 116.158695 76.020142 114.404218 76.020142 112.575071 
C 76.020142 110.745924 75.293414 108.991447 74.000012 107.698045 
C 72.706609 106.404643 70.952133 105.677915 69.122986 105.677915 
C 67.293839 105.677915 65.539362 106.404643 64.24596 107.698045 
C 62.952557 108.991447 62.225829 110.745924 62.225829 112.575071 
C 62.225829 114.404218 62.952557 116.158695 64.24596 117.452097 
C 65.539362 118.7455 67.293839 119.472227 69.122986 119.472227 
z
" clip-path="url(#p424850bce2)" style="fill: #348abd; stroke: #000000; stroke-linejoin: miter"/>
   </g>
   <g id="patch_14">
    <path d="M 83.607014 119.472227 
C 85.436161 119.472227 87.190638 118.7455 88.48404 117.452097 
C 89.777443 116.158695 90.504171 114.404218 90.504171 112.575071 
C 90.504171 110.745924 89.777443 108.991447 88.48404 107.698045 
C 87.190638 106.404643 85.436161 105.677915 83.607014 105.677915 
C 81.777867 105.677915 80.023391 106.404643 78.729988 107.698045 
C 77.436586 108.991447 76.709858 110.745924 76.709858 112.575071 
C 76.709858 114.404218 77.436586 116.158695 78.729988 117.452097 
C 80.023391 118.7455 81.777867 119.472227 83.607014 119.472227 
z
" clip-path="url(#p424850bce2)" style="fill: #348abd; stroke: #000000; stroke-linejoin: miter"/>
   </g>
   <g id="patch_15">
    <path d="M 98.091043 119.472227 
C 99.92019 119.472227 101.674666 118.7455 102.968069 117.452097 
C 104.261471 116.158695 104.988199 114.404218 104.988199 112.575071 
C 104.988199 110.745924 104.261471 108.991447 102.968069 107.698045 
C 101.674666 106.404643 99.92019 105.677915 98.091043 105.677915 
C 96.261895 105.677915 94.507419 106.404643 93.214017 107.698045 
C 91.920614 108.991447 91.193886 110.745924 91.193886 112.575071 
C 91.193886 114.404218 91.920614 116.158695 93.214017 117.452097 
C 94.507419 118.7455 96.261895 119.472227 98.091043 119.472227 
z
" clip-path="url(#p424850bce2)" style="fill: #348abd; stroke: #000000; stroke-linejoin: miter"/>
   </g>
   <g id="patch_16">
    <path d="M 112.575071 119.472227 
C 114.404218 119.472227 116.158695 118.7455 117.452097 117.452097 
C 118.7455 116.158695 119.472227 114.404218 119.472227 112.575071 
C 119.472227 110.745924 118.7455 108.991447 117.452097 107.698045 
C 116.158695 106.404643 114.404218 105.677915 112.575071 105.677915 
C 110.745924 105.677915 108.991447 106.404643 107.698045 107.698045 
C 106.404643 108.991447 105.677915 110.745924 105.677915 112.575071 
C 105.677915 114.404218 106.404643 116.158695 107.698045 117.452097 
C 108.991447 118.7455 110.745924 119.472227 112.575071 119.472227 
z
" clip-path="url(#p424850bce2)" style="fill: #348abd; stroke: #000000; stroke-linejoin: miter"/>
   </g>
   <g id="patch_17">
    <path d="M 127.0591 119.472227 
C 128.888247 119.472227 130.642723 118.7455 131.936126 117.452097 
C 133.229528 116.158695 133.956256 114.404218 133.956256 112.575071 
C 133.956256 110.745924 133.229528 108.991447 131.936126 107.698045 
C 130.642723 106.404643 128.888247 105.677915 127.0591 105.677915 
C 125.229952 105.677915 123.475476 106.404643 122.182073 107.698045 
C 120.888671 108.991447 120.161943 110.745924 120.161943 112.575071 
C 120.161943 114.404218 120.888671 116.158695 122.182073 117.452097 
C 123.475476 118.7455 125.229952 119.472227 127.0591 119.472227 
z
" clip-path="url(#p424850bce2)" style="fill: #348abd; stroke: #000000; stroke-linejoin: miter"/>
   </g>
   <g id="patch_18">
    <path d="M 25.6709 104.988199 
C 27.500048 104.988199 29.254524 104.261471 30.547927 102.968069 
C 31.841329 101.674666 32.568057 99.92019 32.568057 98.091043 
C 32.568057 96.261895 31.841329 94.507419 30.547927 93.214017 
C 29.254524 91.920614 27.500048 91.193886 25.6709 91.193886 
C 23.841753 91.193886 22.087277 91.920614 20.793874 93.214017 
C 19.500472 94.507419 18.773744 96.261895 18.773744 98.091043 
C 18.773744 99.92019 19.500472 101.674666 20.793874 102.968069 
C 22.087277 104.261471 23.841753 104.988199 25.6709 104.988199 
z
" clip-path="url(#p424850bce2)" style="fill: #348abd; stroke: #000000; stroke-linejoin: miter"/>
   </g>
   <g id="patch_19">
    <path d="M 40.154929 104.988199 
C 41.984076 104.988199 43.738553 104.261471 45.031955 102.968069 
C 46.325357 101.674666 47.052085 99.92019 47.052085 98.091043 
C 47.052085 96.261895 46.325357 94.507419 45.031955 93.214017 
C 43.738553 91.920614 41.984076 91.193886 40.154929 91.193886 
C 38.325782 91.193886 36.571305 91.920614 35.277903 93.214017 
C 33.9845 94.507419 33.257773 96.261895 33.257773 98.091043 
C 33.257773 99.92019 33.9845 101.674666 35.277903 102.968069 
C 36.571305 104.261471 38.325782 104.988199 40.154929 104.988199 
z
" clip-path="url(#p424850bce2)" style="fill: #348abd; stroke: #000000; stroke-linejoin: miter"/>
   </g>
   <g id="patch_20">
    <path d="M 54.638957 104.988199 
C 56.468105 104.988199 58.222581 104.261471 59.515983 102.968069 
C 60.809386 101.674666 61.536114 99.92019 61.536114 98.091043 
C 61.536114 96.261895 60.809386 94.507419 59.515983 93.214017 
C 58.222581 91.920614 56.468105 91.193886 54.638957 91.193886 
C 52.80981 91.193886 51.055334 91.920614 49.761931 93.214017 
C 48.468529 94.507419 47.741801 96.261895 47.741801 98.091043 
C 47.741801 99.92019 48.468529 101.674666 49.761931 102.968069 
C 51.055334 104.261471 52.80981 104.988199 54.638957 104.988199 
z
" clip-path="url(#p424850bce2)" style="fill: #348abd; stroke: #000000; stroke-linejoin: miter"/>
   </g>
   <g id="patch_21">
    <path d="M 69.122986 104.988199 
C 70.952133 104.988199 72.706609 104.261471 74.000012 102.968069 
C 75.293414 101.674666 76.020142 99.92019 76.020142 98.091043 
C 76.020142 96.261895 75.293414 94.507419 74.000012 93.214017 
C 72.706609 91.920614 70.952133 91.193886 69.122986 91.193886 
C 67.293839 91.193886 65.539362 91.920614 64.24596 93.214017 
C 62.952557 94.507419 62.225829 96.261895 62.225829 98.091043 
C 62.225829 99.92019 62.952557 101.674666 64.24596 102.968069 
C 65.539362 104.261471 67.293839 104.988199 69.122986 104.988199 
z
" clip-path="url(#p424850bce2)" style="fill: #348abd; stroke: #000000; stroke-linejoin: miter"/>
   </g>
   <g id="patch_22">
    <path d="M 83.607014 104.988199 
C 85.436161 104.988199 87.190638 104.261471 88.48404 102.968069 
C 89.777443 101.674666 90.504171 99.92019 90.504171 98.091043 
C 90.504171 96.261895 89.777443 94.507419 88.48404 93.214017 
C 87.190638 91.920614 85.436161 91.193886 83.607014 91.193886 
C 81.777867 91.193886 80.023391 91.920614 78.729988 93.214017 
C 77.436586 94.507419 76.709858 96.261895 76.709858 98.091043 
C 76.709858 99.92019 77.436586 101.674666 78.729988 102.968069 
C 80.023391 104.261471 81.777867 104.988199 83.607014 104.988199 
z
" clip-path="url(#p424850bce2)" style="fill: #348abd; stroke: #000000; stroke-linejoin: miter"/>
   </g>
   <g id="patch_23">
    <path d="M 98.091043 104.988199 
C 99.92019 104.988199 101.674666 104.261471 102.968069 102.968069 
C 104.261471 101.674666 104.988199 99.92019 104.988199 98.091043 
C 104.988199 96.261895 104.261471 94.507419 102.968069 93.214017 
C 101.674666 91.920614 99.92019 91.193886 98.091043 91.193886 
C 96.261895 91.193886 94.507419 91.920614 93.214017 93.214017 
C 91.920614 94.507419 91.193886 96.261895 91.193886 98.091043 
C 91.193886 99.92019 91.920614 101.674666 93.214017 102.968069 
C 94.507419 104.261471 96.261895 104.988199 98.091043 104.988199 
z
" clip-path="url(#p424850bce2)" style="fill: #348abd; stroke: #000000; stroke-linejoin: miter"/>
   </g>
   <g id="patch_24">
    <path d="M 112.575071 104.988199 
C 114.404218 104.988199 116.158695 104.261471 117.452097 102.968069 
C 118.7455 101.674666 119.472227 99.92019 119.472227 98.091043 
C 119.472227 96.261895 118.7455 94.507419 117.452097 93.214017 
C 116.158695 91.920614 114.404218 91.193886 112.575071 91.193886 
C 110.745924 91.193886 108.991447 91.920614 107.698045 93.214017 
C 106.404643 94.507419 105.677915 96.261895 105.677915 98.091043 
C 105.677915 99.92019 106.404643 101.674666 107.698045 102.968069 
C 108.991447 104.261471 110.745924 104.988199 112.575071 104.988199 
z
" clip-path="url(#p424850bce2)" style="fill: #348abd; stroke: #000000; stroke-linejoin: miter"/>
   </g>
   <g id="patch_25">
    <path d="M 127.0591 104.988199 
C 128.888247 104.988199 130.642723 104.261471 131.936126 102.968069 
C 133.229528 101.674666 133.956256 99.92019 133.956256 98.091043 
C 133.956256 96.261895 133.229528 94.507419 131.936126 93.214017 
C 130.642723 91.920614 128.888247 91.193886 127.0591 91.193886 
C 125.229952 91.193886 123.475476 91.920614 122.182073 93.214017 
C 120.888671 94.507419 120.161943 96.261895 120.161943 98.091043 
C 120.161943 99.92019 120.888671 101.674666 122.182073 102.968069 
C 123.475476 104.261471 125.229952 104.988199 127.0591 104.988199 
z
" clip-path="url(#p424850bce2)" style="fill: #348abd; stroke: #000000; stroke-linejoin: miter"/>
   </g>
   <g id="patch_26">
    <path d="M 25.6709 90.504171 
C 27.500048 90.504171 29.254524 89.777443 30.547927 88.48404 
C 31.841329 87.190638 32.568057 85.436161 32.568057 83.607014 
C 32.568057 81.777867 31.841329 80.023391 30.547927 78.729988 
C 29.254524 77.436586 27.500048 76.709858 25.6709 76.709858 
C 23.841753 76.709858 22.087277 77.436586 20.793874 78.729988 
C 19.500472 80.023391 18.773744 81.777867 18.773744 83.607014 
C 18.773744 85.436161 19.500472 87.190638 20.793874 88.48404 
C 22.087277 89.777443 23.841753 90.504171 25.6709 90.504171 
z
" clip-path="url(#p424850bce2)" style="fill: #348abd; stroke: #000000; stroke-linejoin: miter"/>
   </g>
   <g id="patch_27">
    <path d="M 40.154929 90.504171 
C 41.984076 90.504171 43.738553 89.777443 45.031955 88.48404 
C 46.325357 87.190638 47.052085 85.436161 47.052085 83.607014 
C 47.052085 81.777867 46.325357 80.023391 45.031955 78.729988 
C 43.738553 77.436586 41.984076 76.709858 40.154929 76.709858 
C 38.325782 76.709858 36.571305 77.436586 35.277903 78.729988 
C 33.9845 80.023391 33.257773 81.777867 33.257773 83.607014 
C 33.257773 85.436161 33.9845 87.190638 35.277903 88.48404 
C 36.571305 89.777443 38.325782 90.504171 40.154929 90.504171 
z
" clip-path="url(#p424850bce2)" style="fill: #348abd; stroke: #000000; stroke-linejoin: miter"/>
   </g>
   <g id="patch_28">
    <path d="M 54.638957 90.504171 
C 56.468105 90.504171 58.222581 89.777443 59.515983 88.48404 
C 60.809386 87.190638 61.536114 85.436161 61.536114 83.607014 
C 61.536114 81.777867 60.809386 80.023391 59.515983 78.729988 
C 58.222581 77.436586 56.468105 76.709858 54.638957 76.709858 
C 52.80981 76.709858 51.055334 77.436586 49.761931 78.729988 
C 48.468529 80.023391 47.741801 81.777867 47.741801 83.607014 
C 47.741801 85.436161 48.468529 87.190638 49.761931 88.48404 
C 51.055334 89.777443 52.80981 90.504171 54.638957 90.504171 
z
" clip-path="url(#p424850bce2)" style="fill: #348abd; stroke: #000000; stroke-linejoin: miter"/>
   </g>
   <g id="patch_29">
    <path d="M 69.122986 90.504171 
C 70.952133 90.504171 72.706609 89.777443 74.000012 88.48404 
C 75.293414 87.190638 76.020142 85.436161 76.020142 83.607014 
C 76.020142 81.777867 75.293414 80.023391 74.000012 78.729988 
C 72.706609 77.436586 70.952133 76.709858 69.122986 76.709858 
C 67.293839 76.709858 65.539362 77.436586 64.24596 78.729988 
C 62.952557 80.023391 62.225829 81.777867 62.225829 83.607014 
C 62.225829 85.436161 62.952557 87.190638 64.24596 88.48404 
C 65.539362 89.777443 67.293839 90.504171 69.122986 90.504171 
z
" clip-path="url(#p424850bce2)" style="fill: #348abd; stroke: #000000; stroke-linejoin: miter"/>
   </g>
   <g id="patch_30">
    <path d="M 83.607014 90.504171 
C 85.436161 90.504171 87.190638 89.777443 88.48404 88.48404 
C 89.777443 87.190638 90.504171 85.436161 90.504171 83.607014 
C 90.504171 81.777867 89.777443 80.023391 88.48404 78.729988 
C 87.190638 77.436586 85.436161 76.709858 83.607014 76.709858 
C 81.777867 76.709858 80.023391 77.436586 78.729988 78.729988 
C 77.436586 80.023391 76.709858 81.777867 76.709858 83.607014 
C 76.709858 85.436161 77.436586 87.190638 78.729988 88.48404 
C 80.023391 89.777443 81.777867 90.504171 83.607014 90.504171 
z
" clip-path="url(#p424850bce2)" style="fill: #348abd; stroke: #000000; stroke-linejoin: miter"/>
   </g>
   <g id="patch_31">
    <path d="M 98.091043 90.504171 
C 99.92019 90.504171 101.674666 89.777443 102.968069 88.48404 
C 104.261471 87.190638 104.988199 85.436161 104.988199 83.607014 
C 104.988199 81.777867 104.261471 80.023391 102.968069 78.729988 
C 101.674666 77.436586 99.92019 76.709858 98.091043 76.709858 
C 96.261895 76.709858 94.507419 77.436586 93.214017 78.729988 
C 91.920614 80.023391 91.193886 81.777867 91.193886 83.607014 
C 91.193886 85.436161 91.920614 87.190638 93.214017 88.48404 
C 94.507419 89.777443 96.261895 90.504171 98.091043 90.504171 
z
" clip-path="url(#p424850bce2)" style="fill: #348abd; stroke: #000000; stroke-linejoin: miter"/>
   </g>
   <g id="patch_32">
    <path d="M 112.575071 90.504171 
C 114.404218 90.504171 116.158695 89.777443 117.452097 88.48404 
C 118.7455 87.190638 119.472227 85.436161 119.472227 83.607014 
C 119.472227 81.777867 118.7455 80.023391 117.452097 78.729988 
C 116.158695 77.436586 114.404218 76.709858 112.575071 76.709858 
C 110.745924 76.709858 108.991447 77.436586 107.698045 78.729988 
C 106.404643 80.023391 105.677915 81.777867 105.677915 83.607014 
C 105.677915 85.436161 106.404643 87.190638 107.698045 88.48404 
C 108.991447 89.777443 110.745924 90.504171 112.575071 90.504171 
z
" clip-path="url(#p424850bce2)" style="fill: #348abd; stroke: #000000; stroke-linejoin: miter"/>
   </g>
   <g id="patch_33">
    <path d="M 127.0591 90.504171 
C 128.888247 90.504171 130.642723 89.777443 131.936126 88.48404 
C 133.229528 87.190638 133.956256 85.436161 133.956256 83.607014 
C 133.956256 81.777867 133.229528 80.023391 131.936126 78.729988 
C 130.642723 77.436586 128.888247 76.709858 127.0591 76.709858 
C 125.229952 76.709858 123.475476 77.436586 122.182073 78.729988 
C 120.888671 80.023391 120.161943 81.777867 120.161943 83.607014 
C 120.161943 85.436161 120.888671 87.190638 122.182073 88.48404 
C 123.475476 89.777443 125.229952 90.504171 127.0591 90.504171 
z
" clip-path="url(#p424850bce2)" style="fill: #348abd; stroke: #000000; stroke-linejoin: miter"/>
   </g>
   <g id="patch_34">
    <path d="M 25.6709 76.020142 
C 27.500048 76.020142 29.254524 75.293414 30.547927 74.000012 
C 31.841329 72.706609 32.568057 70.952133 32.568057 69.122986 
C 32.568057 67.293839 31.841329 65.539362 30.547927 64.24596 
C 29.254524 62.952557 27.500048 62.225829 25.6709 62.225829 
C 23.841753 62.225829 22.087277 62.952557 20.793874 64.24596 
C 19.500472 65.539362 18.773744 67.293839 18.773744 69.122986 
C 18.773744 70.952133 19.500472 72.706609 20.793874 74.000012 
C 22.087277 75.293414 23.841753 76.020142 25.6709 76.020142 
z
" clip-path="url(#p424850bce2)" style="fill: #348abd; stroke: #000000; stroke-linejoin: miter"/>
   </g>
   <g id="patch_35">
    <path d="M 40.154929 76.020142 
C 41.984076 76.020142 43.738553 75.293414 45.031955 74.000012 
C 46.325357 72.706609 47.052085 70.952133 47.052085 69.122986 
C 47.052085 67.293839 46.325357 65.539362 45.031955 64.24596 
C 43.738553 62.952557 41.984076 62.225829 40.154929 62.225829 
C 38.325782 62.225829 36.571305 62.952557 35.277903 64.24596 
C 33.9845 65.539362 33.257773 67.293839 33.257773 69.122986 
C 33.257773 70.952133 33.9845 72.706609 35.277903 74.000012 
C 36.571305 75.293414 38.325782 76.020142 40.154929 76.020142 
z
" clip-path="url(#p424850bce2)" style="fill: #348abd; stroke: #000000; stroke-linejoin: miter"/>
   </g>
   <g id="patch_36">
    <path d="M 54.638957 76.020142 
C 56.468105 76.020142 58.222581 75.293414 59.515983 74.000012 
C 60.809386 72.706609 61.536114 70.952133 61.536114 69.122986 
C 61.536114 67.293839 60.809386 65.539362 59.515983 64.24596 
C 58.222581 62.952557 56.468105 62.225829 54.638957 62.225829 
C 52.80981 62.225829 51.055334 62.952557 49.761931 64.24596 
C 48.468529 65.539362 47.741801 67.293839 47.741801 69.122986 
C 47.741801 70.952133 48.468529 72.706609 49.761931 74.000012 
C 51.055334 75.293414 52.80981 76.020142 54.638957 76.020142 
z
" clip-path="url(#p424850bce2)" style="fill: #348abd; stroke: #000000; stroke-linejoin: miter"/>
   </g>
   <g id="patch_37">
    <path d="M 69.122986 76.020142 
C 70.952133 76.020142 72.706609 75.293414 74.000012 74.000012 
C 75.293414 72.706609 76.020142 70.952133 76.020142 69.122986 
C 76.020142 67.293839 75.293414 65.539362 74.000012 64.24596 
C 72.706609 62.952557 70.952133 62.225829 69.122986 62.225829 
C 67.293839 62.225829 65.539362 62.952557 64.24596 64.24596 
C 62.952557 65.539362 62.225829 67.293839 62.225829 69.122986 
C 62.225829 70.952133 62.952557 72.706609 64.24596 74.000012 
C 65.539362 75.293414 67.293839 76.020142 69.122986 76.020142 
z
" clip-path="url(#p424850bce2)" style="fill: #348abd; stroke: #000000; stroke-linejoin: miter"/>
   </g>
   <g id="patch_38">
    <path d="M 83.607014 76.020142 
C 85.436161 76.020142 87.190638 75.293414 88.48404 74.000012 
C 89.777443 72.706609 90.504171 70.952133 90.504171 69.122986 
C 90.504171 67.293839 89.777443 65.539362 88.48404 64.24596 
C 87.190638 62.952557 85.436161 62.225829 83.607014 62.225829 
C 81.777867 62.225829 80.023391 62.952557 78.729988 64.24596 
C 77.436586 65.539362 76.709858 67.293839 76.709858 69.122986 
C 76.709858 70.952133 77.436586 72.706609 78.729988 74.000012 
C 80.023391 75.293414 81.777867 76.020142 83.607014 76.020142 
z
" clip-path="url(#p424850bce2)" style="fill: #348abd; stroke: #000000; stroke-linejoin: miter"/>
   </g>
   <g id="patch_39">
    <path d="M 98.091043 76.020142 
C 99.92019 76.020142 101.674666 75.293414 102.968069 74.000012 
C 104.261471 72.706609 104.988199 70.952133 104.988199 69.122986 
C 104.988199 67.293839 104.261471 65.539362 102.968069 64.24596 
C 101.674666 62.952557 99.92019 62.225829 98.091043 62.225829 
C 96.261895 62.225829 94.507419 62.952557 93.214017 64.24596 
C 91.920614 65.539362 91.193886 67.293839 91.193886 69.122986 
C 91.193886 70.952133 91.920614 72.706609 93.214017 74.000012 
C 94.507419 75.293414 96.261895 76.020142 98.091043 76.020142 
z
" clip-path="url(#p424850bce2)" style="fill: #348abd; stroke: #000000; stroke-linejoin: miter"/>
   </g>
   <g id="patch_40">
    <path d="M 112.575071 76.020142 
C 114.404218 76.020142 116.158695 75.293414 117.452097 74.000012 
C 118.7455 72.706609 119.472227 70.952133 119.472227 69.122986 
C 119.472227 67.293839 118.7455 65.539362 117.452097 64.24596 
C 116.158695 62.952557 114.404218 62.225829 112.575071 62.225829 
C 110.745924 62.225829 108.991447 62.952557 107.698045 64.24596 
C 106.404643 65.539362 105.677915 67.293839 105.677915 69.122986 
C 105.677915 70.952133 106.404643 72.706609 107.698045 74.000012 
C 108.991447 75.293414 110.745924 76.020142 112.575071 76.020142 
z
" clip-path="url(#p424850bce2)" style="fill: #348abd; stroke: #000000; stroke-linejoin: miter"/>
   </g>
   <g id="patch_41">
    <path d="M 127.0591 76.020142 
C 128.888247 76.020142 130.642723 75.293414 131.936126 74.000012 
C 133.229528 72.706609 133.956256 70.952133 133.956256 69.122986 
C 133.956256 67.293839 133.229528 65.539362 131.936126 64.24596 
C 130.642723 62.952557 128.888247 62.225829 127.0591 62.225829 
C 125.229952 62.225829 123.475476 62.952557 122.182073 64.24596 
C 120.888671 65.539362 120.161943 67.293839 120.161943 69.122986 
C 120.161943 70.952133 120.888671 72.706609 122.182073 74.000012 
C 123.475476 75.293414 125.229952 76.020142 127.0591 76.020142 
z
" clip-path="url(#p424850bce2)" style="fill: #348abd; stroke: #000000; stroke-linejoin: miter"/>
   </g>
   <g id="patch_42">
    <path d="M 25.6709 61.536114 
C 27.500048 61.536114 29.254524 60.809386 30.547927 59.515983 
C 31.841329 58.222581 32.568057 56.468105 32.568057 54.638957 
C 32.568057 52.80981 31.841329 51.055334 30.547927 49.761931 
C 29.254524 48.468529 27.500048 47.741801 25.6709 47.741801 
C 23.841753 47.741801 22.087277 48.468529 20.793874 49.761931 
C 19.500472 51.055334 18.773744 52.80981 18.773744 54.638957 
C 18.773744 56.468105 19.500472 58.222581 20.793874 59.515983 
C 22.087277 60.809386 23.841753 61.536114 25.6709 61.536114 
z
" clip-path="url(#p424850bce2)" style="fill: #348abd; stroke: #000000; stroke-linejoin: miter"/>
   </g>
   <g id="patch_43">
    <path d="M 40.154929 61.536114 
C 41.984076 61.536114 43.738553 60.809386 45.031955 59.515983 
C 46.325357 58.222581 47.052085 56.468105 47.052085 54.638957 
C 47.052085 52.80981 46.325357 51.055334 45.031955 49.761931 
C 43.738553 48.468529 41.984076 47.741801 40.154929 47.741801 
C 38.325782 47.741801 36.571305 48.468529 35.277903 49.761931 
C 33.9845 51.055334 33.257773 52.80981 33.257773 54.638957 
C 33.257773 56.468105 33.9845 58.222581 35.277903 59.515983 
C 36.571305 60.809386 38.325782 61.536114 40.154929 61.536114 
z
" clip-path="url(#p424850bce2)" style="fill: #348abd; stroke: #000000; stroke-linejoin: miter"/>
   </g>
   <g id="patch_44">
    <path d="M 54.638957 61.536114 
C 56.468105 61.536114 58.222581 60.809386 59.515983 59.515983 
C 60.809386 58.222581 61.536114 56.468105 61.536114 54.638957 
C 61.536114 52.80981 60.809386 51.055334 59.515983 49.761931 
C 58.222581 48.468529 56.468105 47.741801 54.638957 47.741801 
C 52.80981 47.741801 51.055334 48.468529 49.761931 49.761931 
C 48.468529 51.055334 47.741801 52.80981 47.741801 54.638957 
C 47.741801 56.468105 48.468529 58.222581 49.761931 59.515983 
C 51.055334 60.809386 52.80981 61.536114 54.638957 61.536114 
z
" clip-path="url(#p424850bce2)" style="fill: #348abd; stroke: #000000; stroke-linejoin: miter"/>
   </g>
   <g id="patch_45">
    <path d="M 69.122986 61.536114 
C 70.952133 61.536114 72.706609 60.809386 74.000012 59.515983 
C 75.293414 58.222581 76.020142 56.468105 76.020142 54.638957 
C 76.020142 52.80981 75.293414 51.055334 74.000012 49.761931 
C 72.706609 48.468529 70.952133 47.741801 69.122986 47.741801 
C 67.293839 47.741801 65.539362 48.468529 64.24596 49.761931 
C 62.952557 51.055334 62.225829 52.80981 62.225829 54.638957 
C 62.225829 56.468105 62.952557 58.222581 64.24596 59.515983 
C 65.539362 60.809386 67.293839 61.536114 69.122986 61.536114 
z
" clip-path="url(#p424850bce2)" style="fill: #348abd; stroke: #000000; stroke-linejoin: miter"/>
   </g>
   <g id="patch_46">
    <path d="M 83.607014 61.536114 
C 85.436161 61.536114 87.190638 60.809386 88.48404 59.515983 
C 89.777443 58.222581 90.504171 56.468105 90.504171 54.638957 
C 90.504171 52.80981 89.777443 51.055334 88.48404 49.761931 
C 87.190638 48.468529 85.436161 47.741801 83.607014 47.741801 
C 81.777867 47.741801 80.023391 48.468529 78.729988 49.761931 
C 77.436586 51.055334 76.709858 52.80981 76.709858 54.638957 
C 76.709858 56.468105 77.436586 58.222581 78.729988 59.515983 
C 80.023391 60.809386 81.777867 61.536114 83.607014 61.536114 
z
" clip-path="url(#p424850bce2)" style="fill: #348abd; stroke: #000000; stroke-linejoin: miter"/>
   </g>
   <g id="patch_47">
    <path d="M 98.091043 61.536114 
C 99.92019 61.536114 101.674666 60.809386 102.968069 59.515983 
C 104.261471 58.222581 104.988199 56.468105 104.988199 54.638957 
C 104.988199 52.80981 104.261471 51.055334 102.968069 49.761931 
C 101.674666 48.468529 99.92019 47.741801 98.091043 47.741801 
C 96.261895 47.741801 94.507419 48.468529 93.214017 49.761931 
C 91.920614 51.055334 91.193886 52.80981 91.193886 54.638957 
C 91.193886 56.468105 91.920614 58.222581 93.214017 59.515983 
C 94.507419 60.809386 96.261895 61.536114 98.091043 61.536114 
z
" clip-path="url(#p424850bce2)" style="fill: #348abd; stroke: #000000; stroke-linejoin: miter"/>
   </g>
   <g id="patch_48">
    <path d="M 112.575071 61.536114 
C 114.404218 61.536114 116.158695 60.809386 117.452097 59.515983 
C 118.7455 58.222581 119.472227 56.468105 119.472227 54.638957 
C 119.472227 52.80981 118.7455 51.055334 117.452097 49.761931 
C 116.158695 48.468529 114.404218 47.741801 112.575071 47.741801 
C 110.745924 47.741801 108.991447 48.468529 107.698045 49.761931 
C 106.404643 51.055334 105.677915 52.80981 105.677915 54.638957 
C 105.677915 56.468105 106.404643 58.222581 107.698045 59.515983 
C 108.991447 60.809386 110.745924 61.536114 112.575071 61.536114 
z
" clip-path="url(#p424850bce2)" style="fill: #348abd; stroke: #000000; stroke-linejoin: miter"/>
   </g>
   <g id="patch_49">
    <path d="M 127.0591 61.536114 
C 128.888247 61.536114 130.642723 60.809386 131.936126 59.515983 
C 133.229528 58.222581 133.956256 56.468105 133.956256 54.638957 
C 133.956256 52.80981 133.229528 51.055334 131.936126 49.761931 
C 130.642723 48.468529 128.888247 47.741801 127.0591 47.741801 
C 125.229952 47.741801 123.475476 48.468529 122.182073 49.761931 
C 120.888671 51.055334 120.161943 52.80981 120.161943 54.638957 
C 120.161943 56.468105 120.888671 58.222581 122.182073 59.515983 
C 123.475476 60.809386 125.229952 61.536114 127.0591 61.536114 
z
" clip-path="url(#p424850bce2)" style="fill: #348abd; stroke: #000000; stroke-linejoin: miter"/>
   </g>
   <g id="patch_50">
    <path d="M 25.6709 47.052085 
C 27.500048 47.052085 29.254524 46.325357 30.547927 45.031955 
C 31.841329 43.738553 32.568057 41.984076 32.568057 40.154929 
C 32.568057 38.325782 31.841329 36.571305 30.547927 35.277903 
C 29.254524 33.9845 27.500048 33.257773 25.6709 33.257773 
C 23.841753 33.257773 22.087277 33.9845 20.793874 35.277903 
C 19.500472 36.571305 18.773744 38.325782 18.773744 40.154929 
C 18.773744 41.984076 19.500472 43.738553 20.793874 45.031955 
C 22.087277 46.325357 23.841753 47.052085 25.6709 47.052085 
z
" clip-path="url(#p424850bce2)" style="fill: #348abd; stroke: #000000; stroke-linejoin: miter"/>
   </g>
   <g id="patch_51">
    <path d="M 40.154929 47.052085 
C 41.984076 47.052085 43.738553 46.325357 45.031955 45.031955 
C 46.325357 43.738553 47.052085 41.984076 47.052085 40.154929 
C 47.052085 38.325782 46.325357 36.571305 45.031955 35.277903 
C 43.738553 33.9845 41.984076 33.257773 40.154929 33.257773 
C 38.325782 33.257773 36.571305 33.9845 35.277903 35.277903 
C 33.9845 36.571305 33.257773 38.325782 33.257773 40.154929 
C 33.257773 41.984076 33.9845 43.738553 35.277903 45.031955 
C 36.571305 46.325357 38.325782 47.052085 40.154929 47.052085 
z
" clip-path="url(#p424850bce2)" style="fill: #348abd; stroke: #000000; stroke-linejoin: miter"/>
   </g>
   <g id="patch_52">
    <path d="M 54.638957 47.052085 
C 56.468105 47.052085 58.222581 46.325357 59.515983 45.031955 
C 60.809386 43.738553 61.536114 41.984076 61.536114 40.154929 
C 61.536114 38.325782 60.809386 36.571305 59.515983 35.277903 
C 58.222581 33.9845 56.468105 33.257773 54.638957 33.257773 
C 52.80981 33.257773 51.055334 33.9845 49.761931 35.277903 
C 48.468529 36.571305 47.741801 38.325782 47.741801 40.154929 
C 47.741801 41.984076 48.468529 43.738553 49.761931 45.031955 
C 51.055334 46.325357 52.80981 47.052085 54.638957 47.052085 
z
" clip-path="url(#p424850bce2)" style="fill: #348abd; stroke: #000000; stroke-linejoin: miter"/>
   </g>
   <g id="patch_53">
    <path d="M 69.122986 47.052085 
C 70.952133 47.052085 72.706609 46.325357 74.000012 45.031955 
C 75.293414 43.738553 76.020142 41.984076 76.020142 40.154929 
C 76.020142 38.325782 75.293414 36.571305 74.000012 35.277903 
C 72.706609 33.9845 70.952133 33.257773 69.122986 33.257773 
C 67.293839 33.257773 65.539362 33.9845 64.24596 35.277903 
C 62.952557 36.571305 62.225829 38.325782 62.225829 40.154929 
C 62.225829 41.984076 62.952557 43.738553 64.24596 45.031955 
C 65.539362 46.325357 67.293839 47.052085 69.122986 47.052085 
z
" clip-path="url(#p424850bce2)" style="fill: #348abd; stroke: #000000; stroke-linejoin: miter"/>
   </g>
   <g id="patch_54">
    <path d="M 83.607014 47.052085 
C 85.436161 47.052085 87.190638 46.325357 88.48404 45.031955 
C 89.777443 43.738553 90.504171 41.984076 90.504171 40.154929 
C 90.504171 38.325782 89.777443 36.571305 88.48404 35.277903 
C 87.190638 33.9845 85.436161 33.257773 83.607014 33.257773 
C 81.777867 33.257773 80.023391 33.9845 78.729988 35.277903 
C 77.436586 36.571305 76.709858 38.325782 76.709858 40.154929 
C 76.709858 41.984076 77.436586 43.738553 78.729988 45.031955 
C 80.023391 46.325357 81.777867 47.052085 83.607014 47.052085 
z
" clip-path="url(#p424850bce2)" style="fill: #348abd; stroke: #000000; stroke-linejoin: miter"/>
   </g>
   <g id="patch_55">
    <path d="M 98.091043 47.052085 
C 99.92019 47.052085 101.674666 46.325357 102.968069 45.031955 
C 104.261471 43.738553 104.988199 41.984076 104.988199 40.154929 
C 104.988199 38.325782 104.261471 36.571305 102.968069 35.277903 
C 101.674666 33.9845 99.92019 33.257773 98.091043 33.257773 
C 96.261895 33.257773 94.507419 33.9845 93.214017 35.277903 
C 91.920614 36.571305 91.193886 38.325782 91.193886 40.154929 
C 91.193886 41.984076 91.920614 43.738553 93.214017 45.031955 
C 94.507419 46.325357 96.261895 47.052085 98.091043 47.052085 
z
" clip-path="url(#p424850bce2)" style="fill: #348abd; stroke: #000000; stroke-linejoin: miter"/>
   </g>
   <g id="patch_56">
    <path d="M 112.575071 47.052085 
C 114.404218 47.052085 116.158695 46.325357 117.452097 45.031955 
C 118.7455 43.738553 119.472227 41.984076 119.472227 40.154929 
C 119.472227 38.325782 118.7455 36.571305 117.452097 35.277903 
C 116.158695 33.9845 114.404218 33.257773 112.575071 33.257773 
C 110.745924 33.257773 108.991447 33.9845 107.698045 35.277903 
C 106.404643 36.571305 105.677915 38.325782 105.677915 40.154929 
C 105.677915 41.984076 106.404643 43.738553 107.698045 45.031955 
C 108.991447 46.325357 110.745924 47.052085 112.575071 47.052085 
z
" clip-path="url(#p424850bce2)" style="fill: #348abd; stroke: #000000; stroke-linejoin: miter"/>
   </g>
   <g id="patch_57">
    <path d="M 127.0591 47.052085 
C 128.888247 47.052085 130.642723 46.325357 131.936126 45.031955 
C 133.229528 43.738553 133.956256 41.984076 133.956256 40.154929 
C 133.956256 38.325782 133.229528 36.571305 131.936126 35.277903 
C 130.642723 33.9845 128.888247 33.257773 127.0591 33.257773 
C 125.229952 33.257773 123.475476 33.9845 122.182073 35.277903 
C 120.888671 36.571305 120.161943 38.325782 120.161943 40.154929 
C 120.161943 41.984076 120.888671 43.738553 122.182073 45.031955 
C 123.475476 46.325357 125.229952 47.052085 127.0591 47.052085 
z
" clip-path="url(#p424850bce2)" style="fill: #348abd; stroke: #000000; stroke-linejoin: miter"/>
   </g>
   <g id="patch_58">
    <path d="M 25.6709 32.568057 
C 27.500048 32.568057 29.254524 31.841329 30.547927 30.547927 
C 31.841329 29.254524 32.568057 27.500048 32.568057 25.6709 
C 32.568057 23.841753 31.841329 22.087277 30.547927 20.793874 
C 29.254524 19.500472 27.500048 18.773744 25.6709 18.773744 
C 23.841753 18.773744 22.087277 19.500472 20.793874 20.793874 
C 19.500472 22.087277 18.773744 23.841753 18.773744 25.6709 
C 18.773744 27.500048 19.500472 29.254524 20.793874 30.547927 
C 22.087277 31.841329 23.841753 32.568057 25.6709 32.568057 
z
" clip-path="url(#p424850bce2)" style="fill: #348abd; stroke: #000000; stroke-linejoin: miter"/>
   </g>
   <g id="patch_59">
    <path d="M 40.154929 32.568057 
C 41.984076 32.568057 43.738553 31.841329 45.031955 30.547927 
C 46.325357 29.254524 47.052085 27.500048 47.052085 25.6709 
C 47.052085 23.841753 46.325357 22.087277 45.031955 20.793874 
C 43.738553 19.500472 41.984076 18.773744 40.154929 18.773744 
C 38.325782 18.773744 36.571305 19.500472 35.277903 20.793874 
C 33.9845 22.087277 33.257773 23.841753 33.257773 25.6709 
C 33.257773 27.500048 33.9845 29.254524 35.277903 30.547927 
C 36.571305 31.841329 38.325782 32.568057 40.154929 32.568057 
z
" clip-path="url(#p424850bce2)" style="fill: #348abd; stroke: #000000; stroke-linejoin: miter"/>
   </g>
   <g id="patch_60">
    <path d="M 54.638957 32.568057 
C 56.468105 32.568057 58.222581 31.841329 59.515983 30.547927 
C 60.809386 29.254524 61.536114 27.500048 61.536114 25.6709 
C 61.536114 23.841753 60.809386 22.087277 59.515983 20.793874 
C 58.222581 19.500472 56.468105 18.773744 54.638957 18.773744 
C 52.80981 18.773744 51.055334 19.500472 49.761931 20.793874 
C 48.468529 22.087277 47.741801 23.841753 47.741801 25.6709 
C 47.741801 27.500048 48.468529 29.254524 49.761931 30.547927 
C 51.055334 31.841329 52.80981 32.568057 54.638957 32.568057 
z
" clip-path="url(#p424850bce2)" style="fill: #348abd; stroke: #000000; stroke-linejoin: miter"/>
   </g>
   <g id="patch_61">
    <path d="M 69.122986 32.568057 
C 70.952133 32.568057 72.706609 31.841329 74.000012 30.547927 
C 75.293414 29.254524 76.020142 27.500048 76.020142 25.6709 
C 76.020142 23.841753 75.293414 22.087277 74.000012 20.793874 
C 72.706609 19.500472 70.952133 18.773744 69.122986 18.773744 
C 67.293839 18.773744 65.539362 19.500472 64.24596 20.793874 
C 62.952557 22.087277 62.225829 23.841753 62.225829 25.6709 
C 62.225829 27.500048 62.952557 29.254524 64.24596 30.547927 
C 65.539362 31.841329 67.293839 32.568057 69.122986 32.568057 
z
" clip-path="url(#p424850bce2)" style="fill: #348abd; stroke: #000000; stroke-linejoin: miter"/>
   </g>
   <g id="patch_62">
    <path d="M 83.607014 32.568057 
C 85.436161 32.568057 87.190638 31.841329 88.48404 30.547927 
C 89.777443 29.254524 90.504171 27.500048 90.504171 25.6709 
C 90.504171 23.841753 89.777443 22.087277 88.48404 20.793874 
C 87.190638 19.500472 85.436161 18.773744 83.607014 18.773744 
C 81.777867 18.773744 80.023391 19.500472 78.729988 20.793874 
C 77.436586 22.087277 76.709858 23.841753 76.709858 25.6709 
C 76.709858 27.500048 77.436586 29.254524 78.729988 30.547927 
C 80.023391 31.841329 81.777867 32.568057 83.607014 32.568057 
z
" clip-path="url(#p424850bce2)" style="fill: #348abd; stroke: #000000; stroke-linejoin: miter"/>
   </g>
   <g id="patch_63">
    <path d="M 98.091043 32.568057 
C 99.92019 32.568057 101.674666 31.841329 102.968069 30.547927 
C 104.261471 29.254524 104.988199 27.500048 104.988199 25.6709 
C 104.988199 23.841753 104.261471 22.087277 102.968069 20.793874 
C 101.674666 19.500472 99.92019 18.773744 98.091043 18.773744 
C 96.261895 18.773744 94.507419 19.500472 93.214017 20.793874 
C 91.920614 22.087277 91.193886 23.841753 91.193886 25.6709 
C 91.193886 27.500048 91.920614 29.254524 93.214017 30.547927 
C 94.507419 31.841329 96.261895 32.568057 98.091043 32.568057 
z
" clip-path="url(#p424850bce2)" style="fill: #348abd; stroke: #000000; stroke-linejoin: miter"/>
   </g>
   <g id="patch_64">
    <path d="M 112.575071 32.568057 
C 114.404218 32.568057 116.158695 31.841329 117.452097 30.547927 
C 118.7455 29.254524 119.472227 27.500048 119.472227 25.6709 
C 119.472227 23.841753 118.7455 22.087277 117.452097 20.793874 
C 116.158695 19.500472 114.404218 18.773744 112.575071 18.773744 
C 110.745924 18.773744 108.991447 19.500472 107.698045 20.793874 
C 106.404643 22.087277 105.677915 23.841753 105.677915 25.6709 
C 105.677915 27.500048 106.404643 29.254524 107.698045 30.547927 
C 108.991447 31.841329 110.745924 32.568057 112.575071 32.568057 
z
" clip-path="url(#p424850bce2)" style="fill: #348abd; stroke: #000000; stroke-linejoin: miter"/>
   </g>
   <g id="patch_65">
    <path d="M 127.0591 32.568057 
C 128.888247 32.568057 130.642723 31.841329 131.936126 30.547927 
C 133.229528 29.254524 133.956256 27.500048 133.956256 25.6709 
C 133.956256 23.841753 133.229528 22.087277 131.936126 20.793874 
C 130.642723 19.500472 128.888247 18.773744 127.0591 18.773744 
C 125.229952 18.773744 123.475476 19.500472 122.182073 20.793874 
C 120.888671 22.087277 120.161943 23.841753 120.161943 25.6709 
C 120.161943 27.500048 120.888671 29.254524 122.182073 30.547927 
C 123.475476 31.841329 125.229952 32.568057 127.0591 32.568057 
z
" clip-path="url(#p424850bce2)" style="fill: #348abd; stroke: #000000; stroke-linejoin: miter"/>
   </g>
   <g id="patch_66">
    <path d="M 11.186872 133.956256 
C 13.016019 133.956256 14.770496 133.229528 16.063898 131.936126 
C 17.357301 130.642723 18.084028 128.888247 18.084028 127.0591 
C 18.084028 125.229952 17.357301 123.475476 16.063898 122.182073 
C 14.770496 120.888671 13.016019 120.161943 11.186872 120.161943 
C 9.357725 120.161943 7.603248 120.888671 6.309846 122.182073 
C 5.016444 123.475476 4.289716 125.229952 4.289716 127.0591 
C 4.289716 128.888247 5.016444 130.642723 6.309846 131.936126 
C 7.603248 133.229528 9.357725 133.956256 11.186872 133.956256 
z
" clip-path="url(#p424850bce2)" style="fill: #a60628; stroke: #000000; stroke-linejoin: miter"/>
   </g>
   <g id="patch_67">
    <path d="M 69.122986 148.440284 
C 70.952133 148.440284 72.706609 147.713556 74.000012 146.420154 
C 75.293414 145.126752 76.020142 143.372275 76.020142 141.543128 
C 76.020142 139.713981 75.293414 137.959504 74.000012 136.666102 
C 72.706609 135.372699 70.952133 134.645972 69.122986 134.645972 
C 67.293839 134.645972 65.539362 135.372699 64.24596 136.666102 
C 62.952557 137.959504 62.225829 139.713981 62.225829 141.543128 
C 62.225829 143.372275 62.952557 145.126752 64.24596 146.420154 
C 65.539362 147.713556 67.293839 148.440284 69.122986 148.440284 
z
" clip-path="url(#p424850bce2)" style="fill: #a60628; stroke: #000000; stroke-linejoin: miter"/>
   </g>
   <g id="patch_68">
    <path d="M 141.543128 133.956256 
C 143.372275 133.956256 145.126752 133.229528 146.420154 131.936126 
C 147.713556 130.642723 148.440284 128.888247 148.440284 127.0591 
C 148.440284 125.229952 147.713556 123.475476 146.420154 122.182073 
C 145.126752 120.888671 143.372275 120.161943 141.543128 120.161943 
C 139.713981 120.161943 137.959504 120.888671 136.666102 122.182073 
C 135.372699 123.475476 134.645972 125.229952 134.645972 127.0591 
C 134.645972 128.888247 135.372699 130.642723 136.666102 131.936126 
C 137.959504 133.229528 139.713981 133.956256 141.543128 133.956256 
z
" clip-path="url(#p424850bce2)" style="fill: #a60628; stroke: #000000; stroke-linejoin: miter"/>
   </g>
   <g id="patch_69">
    <path d="M 11.186872 90.504171 
C 13.016019 90.504171 14.770496 89.777443 16.063898 88.48404 
C 17.357301 87.190638 18.084028 85.436161 18.084028 83.607014 
C 18.084028 81.777867 17.357301 80.023391 16.063898 78.729988 
C 14.770496 77.436586 13.016019 76.709858 11.186872 76.709858 
C 9.357725 76.709858 7.603248 77.436586 6.309846 78.729988 
C 5.016444 80.023391 4.289716 81.777867 4.289716 83.607014 
C 4.289716 85.436161 5.016444 87.190638 6.309846 88.48404 
C 7.603248 89.777443 9.357725 90.504171 11.186872 90.504171 
z
" clip-path="url(#p424850bce2)" style="fill: #a60628; stroke: #000000; stroke-linejoin: miter"/>
   </g>
   <g id="patch_70">
    <path d="M 11.186872 32.568057 
C 13.016019 32.568057 14.770496 31.841329 16.063898 30.547927 
C 17.357301 29.254524 18.084028 27.500048 18.084028 25.6709 
C 18.084028 23.841753 17.357301 22.087277 16.063898 20.793874 
C 14.770496 19.500472 13.016019 18.773744 11.186872 18.773744 
C 9.357725 18.773744 7.603248 19.500472 6.309846 20.793874 
C 5.016444 22.087277 4.289716 23.841753 4.289716 25.6709 
C 4.289716 27.500048 5.016444 29.254524 6.309846 30.547927 
C 7.603248 31.841329 9.357725 32.568057 11.186872 32.568057 
z
" clip-path="url(#p424850bce2)" style="fill: #a60628; stroke: #000000; stroke-linejoin: miter"/>
   </g>
   <g id="patch_71">
    <path d="M 141.543128 76.020142 
C 143.372275 76.020142 145.126752 75.293414 146.420154 74.000012 
C 147.713556 72.706609 148.440284 70.952133 148.440284 69.122986 
C 148.440284 67.293839 147.713556 65.539362 146.420154 64.24596 
C 145.126752 62.952557 143.372275 62.225829 141.543128 62.225829 
C 139.713981 62.225829 137.959504 62.952557 136.666102 64.24596 
C 135.372699 65.539362 134.645972 67.293839 134.645972 69.122986 
C 134.645972 70.952133 135.372699 72.706609 136.666102 74.000012 
C 137.959504 75.293414 139.713981 76.020142 141.543128 76.020142 
z
" clip-path="url(#p424850bce2)" style="fill: #a60628; stroke: #000000; stroke-linejoin: miter"/>
   </g>
   <g id="patch_72">
    <path d="M 83.607014 18.084028 
C 85.436161 18.084028 87.190638 17.357301 88.48404 16.063898 
C 89.777443 14.770496 90.504171 13.016019 90.504171 11.186872 
C 90.504171 9.357725 89.777443 7.603248 88.48404 6.309846 
C 87.190638 5.016444 85.436161 4.289716 83.607014 4.289716 
C 81.777867 4.289716 80.023391 5.016444 78.729988 6.309846 
C 77.436586 7.603248 76.709858 9.357725 76.709858 11.186872 
C 76.709858 13.016019 77.436586 14.770496 78.729988 16.063898 
C 80.023391 17.357301 81.777867 18.084028 83.607014 18.084028 
z
" clip-path="url(#p424850bce2)" style="fill: #a60628; stroke: #000000; stroke-linejoin: miter"/>
   </g>
   <g id="patch_73">
    <path d="M 141.543128 32.568057 
C 143.372275 32.568057 145.126752 31.841329 146.420154 30.547927 
C 147.713556 29.254524 148.440284 27.500048 148.440284 25.6709 
C 148.440284 23.841753 147.713556 22.087277 146.420154 20.793874 
C 145.126752 19.500472 143.372275 18.773744 141.543128 18.773744 
C 139.713981 18.773744 137.959504 19.500472 136.666102 20.793874 
C 135.372699 22.087277 134.645972 23.841753 134.645972 25.6709 
C 134.645972 27.500048 135.372699 29.254524 136.666102 30.547927 
C 137.959504 31.841329 139.713981 32.568057 141.543128 32.568057 
z
" clip-path="url(#p424850bce2)" style="fill: #a60628; stroke: #000000; stroke-linejoin: miter"/>
   </g>
  </g>
 </g>
 <defs>
  <clipPath id="p424850bce2">
   <rect x="3.6" y="3.6" width="145.53" height="145.53"/>
  </clipPath>
 </defs>
</svg>
