<?xml version="1.0" encoding="utf-8" standalone="no"?>
<!DOCTYPE svg PUBLIC "-//W3C//DTD SVG 1.1//EN"
  "http://www.w3.org/Graphics/SVG/1.1/DTD/svg11.dtd">
<svg xmlns:xlink="http://www.w3.org/1999/xlink" width="251.768432pt" height="186.891106pt" viewBox="0 0 251.768432 186.891106" xmlns="http://www.w3.org/2000/svg" version="1.1">
 <metadata>
  <rdf:RDF xmlns:dc="http://purl.org/dc/elements/1.1/" xmlns:cc="http://creativecommons.org/ns#" xmlns:rdf="http://www.w3.org/1999/02/22-rdf-syntax-ns#">
   <cc:Work>
    <dc:type rdf:resource="http://purl.org/dc/dcmitype/StillImage"/>
    <dc:date>2025-03-14T12:24:24.111764</dc:date>
    <dc:format>image/svg+xml</dc:format>
    <dc:creator>
     <cc:Agent>
      <dc:title>Matplotlib v3.9.2, https://matplotlib.org/</dc:title>
     </cc:Agent>
    </dc:creator>
   </cc:Work>
  </rdf:RDF>
 </metadata>
 <defs>
  <style type="text/css">*{stroke-linejoin: round; stroke-linecap: butt}</style>
 </defs>
 <g id="figure_1">
  <g id="patch_1">
   <path d="M -0 186.891106 
L 251.768432 186.891106 
L 251.768432 0 
L -0 0 
L -0 186.891106 
z
" style="fill: none"/>
  </g>
  <g id="axes_1">
   <g id="patch_2">
    <path d="M 44.012725 152.589249 
L 239.312725 152.589249 
L 239.312725 7.059249 
L 44.012725 7.059249 
L 44.012725 152.589249 
z
" style="fill: none"/>
   </g>
   <g id="matplotlib.axis_1">
    <g id="xtick_1">
     <g id="line2d_1">
      <path d="M 44.012725 152.589249 
L 44.012725 7.059249 
" clip-path="url(#p617f13fa0f)" style="fill: none; stroke-dasharray: 1.85,0.8; stroke-dashoffset: 0; stroke: #000000; stroke-opacity: 0.5; stroke-width: 0.5"/>
     </g>
     <g id="line2d_2">
      <defs>
       <path id="m93bf885654" d="M 0 0 
L 0 -3 
" style="stroke: #000000; stroke-width: 0.5"/>
      </defs>
      <g>
       <use xlink:href="#m93bf885654" x="44.012725" y="152.589249" style="stroke: #000000; stroke-width: 0.5"/>
      </g>
     </g>
     <g id="line2d_3">
      <defs>
       <path id="mb32cdd86d7" d="M 0 0 
L 0 3 
" style="stroke: #000000; stroke-width: 0.5"/>
      </defs>
      <g>
       <use xlink:href="#mb32cdd86d7" x="44.012725" y="7.059249" style="stroke: #000000; stroke-width: 0.5"/>
      </g>
     </g>
     <g id="text_1">
      <!-- $\mathdefault{0.00}$ -->
      <g transform="translate(35.157018 163.007748) scale(0.1 -0.1)">
       <defs>
        <path id="CMR17-30" d="M 2688 2025 
C 2688 2416 2682 3080 2413 3591 
C 2176 4039 1798 4198 1466 4198 
C 1158 4198 768 4058 525 3597 
C 269 3118 243 2524 243 2025 
C 243 1661 250 1106 448 619 
C 723 -39 1216 -128 1466 -128 
C 1760 -128 2208 -7 2470 600 
C 2662 1042 2688 1559 2688 2025 
z
M 1466 -26 
C 1056 -26 813 325 723 812 
C 653 1188 653 1738 653 2096 
C 653 2588 653 2997 736 3387 
C 858 3929 1216 4096 1466 4096 
C 1728 4096 2067 3923 2189 3400 
C 2272 3036 2278 2607 2278 2096 
C 2278 1680 2278 1169 2202 792 
C 2067 95 1690 -26 1466 -26 
z
" transform="scale(0.015625)"/>
        <path id="CMMI12-3a" d="M 1178 307 
C 1178 492 1024 619 870 619 
C 685 619 557 466 557 313 
C 557 128 710 0 864 0 
C 1050 0 1178 153 1178 307 
z
" transform="scale(0.015625)"/>
       </defs>
       <use xlink:href="#CMR17-30" transform="scale(0.996264)"/>
       <use xlink:href="#CMMI12-3a" transform="translate(45.690477 0) scale(0.996264)"/>
       <use xlink:href="#CMR17-30" transform="translate(72.787654 0) scale(0.996264)"/>
       <use xlink:href="#CMR17-30" transform="translate(118.478131 0) scale(0.996264)"/>
      </g>
     </g>
    </g>
    <g id="xtick_2">
     <g id="line2d_4">
      <path d="M 92.837725 152.589249 
L 92.837725 7.059249 
" clip-path="url(#p617f13fa0f)" style="fill: none; stroke-dasharray: 1.85,0.8; stroke-dashoffset: 0; stroke: #000000; stroke-opacity: 0.5; stroke-width: 0.5"/>
     </g>
     <g id="line2d_5">
      <g>
       <use xlink:href="#m93bf885654" x="92.837725" y="152.589249" style="stroke: #000000; stroke-width: 0.5"/>
      </g>
     </g>
     <g id="line2d_6">
      <g>
       <use xlink:href="#mb32cdd86d7" x="92.837725" y="7.059249" style="stroke: #000000; stroke-width: 0.5"/>
      </g>
     </g>
     <g id="text_2">
      <!-- $\mathdefault{0.05}$ -->
      <g transform="translate(83.982018 163.007748) scale(0.1 -0.1)">
       <defs>
        <path id="CMR17-35" d="M 730 3692 
C 794 3666 1056 3584 1325 3584 
C 1920 3584 2246 3911 2432 4100 
C 2432 4157 2432 4192 2394 4192 
C 2387 4192 2374 4192 2323 4163 
C 2099 4058 1837 3973 1517 3973 
C 1325 3973 1037 3999 723 4139 
C 653 4171 640 4171 634 4171 
C 602 4171 595 4164 595 4037 
L 595 2203 
C 595 2089 595 2057 659 2057 
C 691 2057 704 2070 736 2114 
C 941 2401 1222 2522 1542 2522 
C 1766 2522 2246 2382 2246 1289 
C 2246 1085 2246 715 2054 421 
C 1894 159 1645 25 1370 25 
C 947 25 518 320 403 814 
C 429 807 480 795 506 795 
C 589 795 749 840 749 1038 
C 749 1210 627 1280 506 1280 
C 358 1280 262 1190 262 1011 
C 262 454 704 -128 1382 -128 
C 2042 -128 2669 440 2669 1264 
C 2669 2030 2170 2624 1549 2624 
C 1222 2624 947 2503 730 2274 
L 730 3692 
z
" transform="scale(0.015625)"/>
       </defs>
       <use xlink:href="#CMR17-30" transform="scale(0.996264)"/>
       <use xlink:href="#CMMI12-3a" transform="translate(45.690477 0) scale(0.996264)"/>
       <use xlink:href="#CMR17-30" transform="translate(72.787654 0) scale(0.996264)"/>
       <use xlink:href="#CMR17-35" transform="translate(118.478131 0) scale(0.996264)"/>
      </g>
     </g>
    </g>
    <g id="xtick_3">
     <g id="line2d_7">
      <path d="M 141.662725 152.589249 
L 141.662725 7.059249 
" clip-path="url(#p617f13fa0f)" style="fill: none; stroke-dasharray: 1.85,0.8; stroke-dashoffset: 0; stroke: #000000; stroke-opacity: 0.5; stroke-width: 0.5"/>
     </g>
     <g id="line2d_8">
      <g>
       <use xlink:href="#m93bf885654" x="141.662725" y="152.589249" style="stroke: #000000; stroke-width: 0.5"/>
      </g>
     </g>
     <g id="line2d_9">
      <g>
       <use xlink:href="#mb32cdd86d7" x="141.662725" y="7.059249" style="stroke: #000000; stroke-width: 0.5"/>
      </g>
     </g>
     <g id="text_3">
      <!-- $\mathdefault{0.10}$ -->
      <g transform="translate(132.807018 163.007748) scale(0.1 -0.1)">
       <defs>
        <path id="CMR17-31" d="M 1702 4058 
C 1702 4192 1696 4192 1606 4192 
C 1357 3916 979 3827 621 3827 
C 602 3827 570 3827 563 3808 
C 557 3795 557 3782 557 3648 
C 755 3648 1088 3686 1344 3839 
L 1344 461 
C 1344 236 1331 160 781 160 
L 589 160 
L 589 0 
C 896 0 1216 0 1523 0 
C 1830 0 2150 0 2458 0 
L 2458 160 
L 2266 160 
C 1715 160 1702 230 1702 458 
L 1702 4058 
z
" transform="scale(0.015625)"/>
       </defs>
       <use xlink:href="#CMR17-30" transform="scale(0.996264)"/>
       <use xlink:href="#CMMI12-3a" transform="translate(45.690477 0) scale(0.996264)"/>
       <use xlink:href="#CMR17-31" transform="translate(72.787654 0) scale(0.996264)"/>
       <use xlink:href="#CMR17-30" transform="translate(118.478131 0) scale(0.996264)"/>
      </g>
     </g>
    </g>
    <g id="xtick_4">
     <g id="line2d_10">
      <path d="M 190.487725 152.589249 
L 190.487725 7.059249 
" clip-path="url(#p617f13fa0f)" style="fill: none; stroke-dasharray: 1.85,0.8; stroke-dashoffset: 0; stroke: #000000; stroke-opacity: 0.5; stroke-width: 0.5"/>
     </g>
     <g id="line2d_11">
      <g>
       <use xlink:href="#m93bf885654" x="190.487725" y="152.589249" style="stroke: #000000; stroke-width: 0.5"/>
      </g>
     </g>
     <g id="line2d_12">
      <g>
       <use xlink:href="#mb32cdd86d7" x="190.487725" y="7.059249" style="stroke: #000000; stroke-width: 0.5"/>
      </g>
     </g>
     <g id="text_4">
      <!-- $\mathdefault{0.15}$ -->
      <g transform="translate(181.632018 163.007748) scale(0.1 -0.1)">
       <use xlink:href="#CMR17-30" transform="scale(0.996264)"/>
       <use xlink:href="#CMMI12-3a" transform="translate(45.690477 0) scale(0.996264)"/>
       <use xlink:href="#CMR17-31" transform="translate(72.787654 0) scale(0.996264)"/>
       <use xlink:href="#CMR17-35" transform="translate(118.478131 0) scale(0.996264)"/>
      </g>
     </g>
    </g>
    <g id="xtick_5">
     <g id="line2d_13">
      <path d="M 239.312725 152.589249 
L 239.312725 7.059249 
" clip-path="url(#p617f13fa0f)" style="fill: none; stroke-dasharray: 1.85,0.8; stroke-dashoffset: 0; stroke: #000000; stroke-opacity: 0.5; stroke-width: 0.5"/>
     </g>
     <g id="line2d_14">
      <g>
       <use xlink:href="#m93bf885654" x="239.312725" y="152.589249" style="stroke: #000000; stroke-width: 0.5"/>
      </g>
     </g>
     <g id="line2d_15">
      <g>
       <use xlink:href="#mb32cdd86d7" x="239.312725" y="7.059249" style="stroke: #000000; stroke-width: 0.5"/>
      </g>
     </g>
     <g id="text_5">
      <!-- $\mathdefault{0.20}$ -->
      <g transform="translate(230.457018 163.007748) scale(0.1 -0.1)">
       <defs>
        <path id="CMR17-32" d="M 2669 989 
L 2554 989 
C 2490 536 2438 459 2413 420 
C 2381 369 1920 369 1830 369 
L 602 369 
C 832 619 1280 1072 1824 1597 
C 2214 1967 2669 2402 2669 3035 
C 2669 3790 2067 4224 1395 4224 
C 691 4224 262 3604 262 3030 
C 262 2780 448 2748 525 2748 
C 589 2748 781 2787 781 3010 
C 781 3207 614 3264 525 3264 
C 486 3264 448 3258 422 3245 
C 544 3790 915 4058 1306 4058 
C 1862 4058 2227 3617 2227 3035 
C 2227 2479 1901 2000 1536 1584 
L 262 146 
L 262 0 
L 2515 0 
L 2669 989 
z
" transform="scale(0.015625)"/>
       </defs>
       <use xlink:href="#CMR17-30" transform="scale(0.996264)"/>
       <use xlink:href="#CMMI12-3a" transform="translate(45.690477 0) scale(0.996264)"/>
       <use xlink:href="#CMR17-32" transform="translate(72.787654 0) scale(0.996264)"/>
       <use xlink:href="#CMR17-30" transform="translate(118.478131 0) scale(0.996264)"/>
      </g>
     </g>
    </g>
    <g id="xtick_6">
     <g id="line2d_16">
      <defs>
       <path id="m750687329f" d="M 0 0 
L 0 -1.5 
" style="stroke: #000000; stroke-width: 0.5"/>
      </defs>
      <g>
       <use xlink:href="#m750687329f" x="53.777725" y="152.589249" style="stroke: #000000; stroke-width: 0.5"/>
      </g>
     </g>
     <g id="line2d_17">
      <defs>
       <path id="m9668f8406b" d="M 0 0 
L 0 1.5 
" style="stroke: #000000; stroke-width: 0.5"/>
      </defs>
      <g>
       <use xlink:href="#m9668f8406b" x="53.777725" y="7.059249" style="stroke: #000000; stroke-width: 0.5"/>
      </g>
     </g>
    </g>
    <g id="xtick_7">
     <g id="line2d_18">
      <g>
       <use xlink:href="#m750687329f" x="63.542725" y="152.589249" style="stroke: #000000; stroke-width: 0.5"/>
      </g>
     </g>
     <g id="line2d_19">
      <g>
       <use xlink:href="#m9668f8406b" x="63.542725" y="7.059249" style="stroke: #000000; stroke-width: 0.5"/>
      </g>
     </g>
    </g>
    <g id="xtick_8">
     <g id="line2d_20">
      <g>
       <use xlink:href="#m750687329f" x="73.307725" y="152.589249" style="stroke: #000000; stroke-width: 0.5"/>
      </g>
     </g>
     <g id="line2d_21">
      <g>
       <use xlink:href="#m9668f8406b" x="73.307725" y="7.059249" style="stroke: #000000; stroke-width: 0.5"/>
      </g>
     </g>
    </g>
    <g id="xtick_9">
     <g id="line2d_22">
      <g>
       <use xlink:href="#m750687329f" x="83.072725" y="152.589249" style="stroke: #000000; stroke-width: 0.5"/>
      </g>
     </g>
     <g id="line2d_23">
      <g>
       <use xlink:href="#m9668f8406b" x="83.072725" y="7.059249" style="stroke: #000000; stroke-width: 0.5"/>
      </g>
     </g>
    </g>
    <g id="xtick_10">
     <g id="line2d_24">
      <g>
       <use xlink:href="#m750687329f" x="102.602725" y="152.589249" style="stroke: #000000; stroke-width: 0.5"/>
      </g>
     </g>
     <g id="line2d_25">
      <g>
       <use xlink:href="#m9668f8406b" x="102.602725" y="7.059249" style="stroke: #000000; stroke-width: 0.5"/>
      </g>
     </g>
    </g>
    <g id="xtick_11">
     <g id="line2d_26">
      <g>
       <use xlink:href="#m750687329f" x="112.367725" y="152.589249" style="stroke: #000000; stroke-width: 0.5"/>
      </g>
     </g>
     <g id="line2d_27">
      <g>
       <use xlink:href="#m9668f8406b" x="112.367725" y="7.059249" style="stroke: #000000; stroke-width: 0.5"/>
      </g>
     </g>
    </g>
    <g id="xtick_12">
     <g id="line2d_28">
      <g>
       <use xlink:href="#m750687329f" x="122.132725" y="152.589249" style="stroke: #000000; stroke-width: 0.5"/>
      </g>
     </g>
     <g id="line2d_29">
      <g>
       <use xlink:href="#m9668f8406b" x="122.132725" y="7.059249" style="stroke: #000000; stroke-width: 0.5"/>
      </g>
     </g>
    </g>
    <g id="xtick_13">
     <g id="line2d_30">
      <g>
       <use xlink:href="#m750687329f" x="131.897725" y="152.589249" style="stroke: #000000; stroke-width: 0.5"/>
      </g>
     </g>
     <g id="line2d_31">
      <g>
       <use xlink:href="#m9668f8406b" x="131.897725" y="7.059249" style="stroke: #000000; stroke-width: 0.5"/>
      </g>
     </g>
    </g>
    <g id="xtick_14">
     <g id="line2d_32">
      <g>
       <use xlink:href="#m750687329f" x="151.427725" y="152.589249" style="stroke: #000000; stroke-width: 0.5"/>
      </g>
     </g>
     <g id="line2d_33">
      <g>
       <use xlink:href="#m9668f8406b" x="151.427725" y="7.059249" style="stroke: #000000; stroke-width: 0.5"/>
      </g>
     </g>
    </g>
    <g id="xtick_15">
     <g id="line2d_34">
      <g>
       <use xlink:href="#m750687329f" x="161.192725" y="152.589249" style="stroke: #000000; stroke-width: 0.5"/>
      </g>
     </g>
     <g id="line2d_35">
      <g>
       <use xlink:href="#m9668f8406b" x="161.192725" y="7.059249" style="stroke: #000000; stroke-width: 0.5"/>
      </g>
     </g>
    </g>
    <g id="xtick_16">
     <g id="line2d_36">
      <g>
       <use xlink:href="#m750687329f" x="170.957725" y="152.589249" style="stroke: #000000; stroke-width: 0.5"/>
      </g>
     </g>
     <g id="line2d_37">
      <g>
       <use xlink:href="#m9668f8406b" x="170.957725" y="7.059249" style="stroke: #000000; stroke-width: 0.5"/>
      </g>
     </g>
    </g>
    <g id="xtick_17">
     <g id="line2d_38">
      <g>
       <use xlink:href="#m750687329f" x="180.722725" y="152.589249" style="stroke: #000000; stroke-width: 0.5"/>
      </g>
     </g>
     <g id="line2d_39">
      <g>
       <use xlink:href="#m9668f8406b" x="180.722725" y="7.059249" style="stroke: #000000; stroke-width: 0.5"/>
      </g>
     </g>
    </g>
    <g id="xtick_18">
     <g id="line2d_40">
      <g>
       <use xlink:href="#m750687329f" x="200.252725" y="152.589249" style="stroke: #000000; stroke-width: 0.5"/>
      </g>
     </g>
     <g id="line2d_41">
      <g>
       <use xlink:href="#m9668f8406b" x="200.252725" y="7.059249" style="stroke: #000000; stroke-width: 0.5"/>
      </g>
     </g>
    </g>
    <g id="xtick_19">
     <g id="line2d_42">
      <g>
       <use xlink:href="#m750687329f" x="210.017725" y="152.589249" style="stroke: #000000; stroke-width: 0.5"/>
      </g>
     </g>
     <g id="line2d_43">
      <g>
       <use xlink:href="#m9668f8406b" x="210.017725" y="7.059249" style="stroke: #000000; stroke-width: 0.5"/>
      </g>
     </g>
    </g>
    <g id="xtick_20">
     <g id="line2d_44">
      <g>
       <use xlink:href="#m750687329f" x="219.782725" y="152.589249" style="stroke: #000000; stroke-width: 0.5"/>
      </g>
     </g>
     <g id="line2d_45">
      <g>
       <use xlink:href="#m9668f8406b" x="219.782725" y="7.059249" style="stroke: #000000; stroke-width: 0.5"/>
      </g>
     </g>
    </g>
    <g id="xtick_21">
     <g id="line2d_46">
      <g>
       <use xlink:href="#m750687329f" x="229.547725" y="152.589249" style="stroke: #000000; stroke-width: 0.5"/>
      </g>
     </g>
     <g id="line2d_47">
      <g>
       <use xlink:href="#m9668f8406b" x="229.547725" y="7.059249" style="stroke: #000000; stroke-width: 0.5"/>
      </g>
     </g>
    </g>
    <g id="text_6">
     <!-- $f$ [MHz] -->
     <g transform="translate(116.369118 179.704565) scale(0.144 -0.144)">
      <defs>
       <path id="CMMI12-66" d="M 2854 2566 
C 2982 2566 3034 2566 3034 2688 
C 3034 2752 2982 2752 2867 2752 
L 2349 2752 
C 2470 3429 2560 3897 2611 4107 
C 2650 4265 2784 4416 2950 4416 
C 3085 4416 3219 4358 3283 4298 
C 3034 4272 2957 4082 2957 3969 
C 2957 3837 3053 3759 3174 3759 
C 3302 3759 3494 3870 3494 4119 
C 3494 4393 3226 4544 2944 4544 
C 2669 4544 2400 4334 2272 4078 
C 2157 3848 2093 3611 1946 2752 
L 1517 2752 
C 1395 2752 1331 2752 1331 2637 
C 1331 2566 1370 2566 1498 2566 
L 1907 2566 
C 1792 1976 1530 542 1382 -137 
C 1274 -689 1178 -1152 858 -1152 
C 838 -1152 653 -1152 538 -1031 
C 864 -1005 864 -726 864 -720 
C 864 -593 768 -517 646 -517 
C 518 -517 326 -625 326 -867 
C 326 -1140 608 -1280 858 -1280 
C 1510 -1280 1779 -118 1850 199 
C 1965 688 2278 2376 2310 2566 
L 2854 2566 
z
" transform="scale(0.015625)"/>
       <path id="CMR17-5b" d="M 1504 -1600 
L 1504 -1377 
L 902 -1377 
L 902 4544 
L 1504 4544 
L 1504 4767 
L 678 4767 
L 678 -1600 
L 1504 -1600 
z
" transform="scale(0.015625)"/>
       <path id="CMR17-4d" d="M 1338 4224 
C 1299 4320 1293 4320 1158 4320 
L 339 4320 
L 339 4160 
C 781 4160 851 4160 851 3875 
L 851 610 
C 851 451 851 153 339 153 
L 339 -13 
C 486 0 755 0 915 0 
C 1075 0 1344 0 1491 -13 
L 1491 153 
C 979 153 979 451 979 610 
L 979 4135 
L 986 4135 
L 2490 89 
C 2515 25 2528 -13 2579 -13 
C 2630 -13 2643 25 2669 89 
L 4186 4166 
L 4192 4166 
L 4192 438 
C 4192 153 4122 153 3680 153 
L 3680 -13 
C 3853 0 4198 0 4384 0 
C 4570 0 4922 0 5094 -13 
L 5094 153 
C 4653 153 4582 153 4582 438 
L 4582 3875 
C 4582 4160 4653 4160 5094 4160 
L 5094 4320 
L 4282 4320 
C 4147 4320 4141 4314 4102 4218 
L 2720 502 
L 1338 4224 
z
" transform="scale(0.015625)"/>
       <path id="CMR17-48" d="M 3590 3905 
C 3590 4192 3661 4192 4102 4192 
L 4102 4352 
C 3917 4352 3578 4352 3379 4352 
C 3181 4352 2842 4352 2656 4352 
L 2656 4192 
C 3098 4192 3168 4192 3168 3904 
L 3168 2341 
L 1261 2341 
L 1261 3904 
C 1261 4192 1331 4192 1773 4192 
L 1773 4352 
C 1587 4352 1248 4352 1050 4352 
C 851 4352 512 4352 326 4352 
L 326 4192 
C 768 4192 838 4192 838 3905 
L 838 447 
C 838 160 768 160 326 160 
L 326 0 
C 512 0 851 0 1050 0 
C 1248 0 1587 0 1773 0 
L 1773 160 
C 1331 160 1261 160 1261 446 
L 1261 2176 
L 3168 2176 
L 3168 446 
C 3168 160 3098 160 2656 160 
L 2656 0 
C 2842 0 3181 0 3379 0 
C 3578 0 3917 0 4102 0 
L 4102 160 
C 3661 160 3590 160 3590 447 
L 3590 3905 
z
" transform="scale(0.015625)"/>
       <path id="CMR17-7a" d="M 2310 2605 
C 2362 2670 2362 2682 2362 2695 
C 2362 2752 2336 2752 2221 2752 
L 275 2752 
L 211 1760 
L 326 1760 
C 371 2381 442 2650 1178 2650 
L 1958 2650 
L 128 96 
C 128 0 134 0 269 0 
L 2291 0 
L 2381 1152 
L 2266 1152 
C 2214 442 2131 115 1350 115 
L 531 115 
L 2310 2605 
z
" transform="scale(0.015625)"/>
       <path id="CMR17-5d" d="M 915 4767 
L 90 4767 
L 90 4544 
L 691 4544 
L 691 -1377 
L 90 -1377 
L 90 -1600 
L 915 -1600 
L 915 4767 
z
" transform="scale(0.015625)"/>
      </defs>
      <use xlink:href="#CMMI12-66" transform="scale(0.996264)"/>
      <use xlink:href="#CMR17-5b" transform="translate(88.796271 0) scale(0.996264)"/>
      <use xlink:href="#CMR17-4d" transform="translate(113.66733 0) scale(0.996264)"/>
      <use xlink:href="#CMR17-48" transform="translate(198.35427 0) scale(0.996264)"/>
      <use xlink:href="#CMR17-7a" transform="translate(267.4267 0) scale(0.996264)"/>
      <use xlink:href="#CMR17-5d" transform="translate(307.912361 0) scale(0.996264)"/>
     </g>
    </g>
   </g>
   <g id="matplotlib.axis_2">
    <g id="ytick_1">
     <g id="line2d_48">
      <path d="M 44.012725 152.589249 
L 239.312725 152.589249 
" clip-path="url(#p617f13fa0f)" style="fill: none; stroke-dasharray: 1.85,0.8; stroke-dashoffset: 0; stroke: #000000; stroke-opacity: 0.5; stroke-width: 0.5"/>
     </g>
     <g id="line2d_49">
      <defs>
       <path id="m5b8b3b22df" d="M 0 0 
L 3 0 
" style="stroke: #000000; stroke-width: 0.5"/>
      </defs>
      <g>
       <use xlink:href="#m5b8b3b22df" x="44.012725" y="152.589249" style="stroke: #000000; stroke-width: 0.5"/>
      </g>
     </g>
     <g id="line2d_50">
      <defs>
       <path id="mb19e8ad6a7" d="M 0 0 
L -3 0 
" style="stroke: #000000; stroke-width: 0.5"/>
      </defs>
      <g>
       <use xlink:href="#mb19e8ad6a7" x="239.312725" y="152.589249" style="stroke: #000000; stroke-width: 0.5"/>
      </g>
     </g>
     <g id="text_7">
      <!-- $\mathdefault{10^{-3}}$ -->
      <g transform="translate(20.352152 156.048498) scale(0.1 -0.1)">
       <defs>
        <path id="CMSY10-0" d="M 4218 1472 
C 4326 1472 4442 1472 4442 1600 
C 4442 1728 4326 1728 4218 1728 
L 755 1728 
C 646 1728 531 1728 531 1600 
C 531 1472 646 1472 755 1472 
L 4218 1472 
z
" transform="scale(0.015625)"/>
        <path id="CMR17-33" d="M 1414 2157 
C 1984 2157 2234 1662 2234 1090 
C 2234 320 1824 25 1453 25 
C 1114 25 563 194 390 693 
C 422 680 454 680 486 680 
C 640 680 755 782 755 948 
C 755 1133 614 1216 486 1216 
C 378 1216 211 1165 211 926 
C 211 335 787 -128 1466 -128 
C 2176 -128 2720 430 2720 1085 
C 2720 1707 2208 2157 1600 2227 
C 2086 2328 2554 2756 2554 3329 
C 2554 3820 2048 4179 1472 4179 
C 890 4179 378 3829 378 3329 
C 378 3110 544 3072 627 3072 
C 762 3072 877 3155 877 3321 
C 877 3486 762 3569 627 3569 
C 602 3569 570 3569 544 3557 
C 730 3959 1235 4032 1459 4032 
C 1683 4032 2106 3925 2106 3320 
C 2106 3143 2080 2828 1862 2550 
C 1670 2304 1453 2304 1242 2284 
C 1210 2284 1062 2269 1037 2269 
C 992 2263 966 2257 966 2208 
C 966 2163 973 2157 1101 2157 
L 1414 2157 
z
" transform="scale(0.015625)"/>
       </defs>
       <use xlink:href="#CMR17-31" transform="scale(0.996264)"/>
       <use xlink:href="#CMR17-30" transform="translate(45.690477 0) scale(0.996264)"/>
       <use xlink:href="#CMSY10-0" transform="translate(91.380954 36.153639) scale(0.697382)"/>
       <use xlink:href="#CMR17-33" transform="translate(145.621947 36.153639) scale(0.697382)"/>
      </g>
     </g>
    </g>
    <g id="ytick_2">
     <g id="line2d_51">
      <path d="M 44.012725 131.799249 
L 239.312725 131.799249 
" clip-path="url(#p617f13fa0f)" style="fill: none; stroke-dasharray: 1.85,0.8; stroke-dashoffset: 0; stroke: #000000; stroke-opacity: 0.5; stroke-width: 0.5"/>
     </g>
     <g id="line2d_52">
      <g>
       <use xlink:href="#m5b8b3b22df" x="44.012725" y="131.799249" style="stroke: #000000; stroke-width: 0.5"/>
      </g>
     </g>
     <g id="line2d_53">
      <g>
       <use xlink:href="#mb19e8ad6a7" x="239.312725" y="131.799249" style="stroke: #000000; stroke-width: 0.5"/>
      </g>
     </g>
     <g id="text_8">
      <!-- $\mathdefault{10^{-2}}$ -->
      <g transform="translate(20.352152 135.258498) scale(0.1 -0.1)">
       <use xlink:href="#CMR17-31" transform="scale(0.996264)"/>
       <use xlink:href="#CMR17-30" transform="translate(45.690477 0) scale(0.996264)"/>
       <use xlink:href="#CMSY10-0" transform="translate(91.380954 36.153639) scale(0.697382)"/>
       <use xlink:href="#CMR17-32" transform="translate(145.621947 36.153639) scale(0.697382)"/>
      </g>
     </g>
    </g>
    <g id="ytick_3">
     <g id="line2d_54">
      <path d="M 44.012725 111.009249 
L 239.312725 111.009249 
" clip-path="url(#p617f13fa0f)" style="fill: none; stroke-dasharray: 1.85,0.8; stroke-dashoffset: 0; stroke: #000000; stroke-opacity: 0.5; stroke-width: 0.5"/>
     </g>
     <g id="line2d_55">
      <g>
       <use xlink:href="#m5b8b3b22df" x="44.012725" y="111.009249" style="stroke: #000000; stroke-width: 0.5"/>
      </g>
     </g>
     <g id="line2d_56">
      <g>
       <use xlink:href="#mb19e8ad6a7" x="239.312725" y="111.009249" style="stroke: #000000; stroke-width: 0.5"/>
      </g>
     </g>
     <g id="text_9">
      <!-- $\mathdefault{10^{-1}}$ -->
      <g transform="translate(20.352152 114.468498) scale(0.1 -0.1)">
       <use xlink:href="#CMR17-31" transform="scale(0.996264)"/>
       <use xlink:href="#CMR17-30" transform="translate(45.690477 0) scale(0.996264)"/>
       <use xlink:href="#CMSY10-0" transform="translate(91.380954 36.153639) scale(0.697382)"/>
       <use xlink:href="#CMR17-31" transform="translate(145.621947 36.153639) scale(0.697382)"/>
      </g>
     </g>
    </g>
    <g id="ytick_4">
     <g id="line2d_57">
      <path d="M 44.012725 90.219249 
L 239.312725 90.219249 
" clip-path="url(#p617f13fa0f)" style="fill: none; stroke-dasharray: 1.85,0.8; stroke-dashoffset: 0; stroke: #000000; stroke-opacity: 0.5; stroke-width: 0.5"/>
     </g>
     <g id="line2d_58">
      <g>
       <use xlink:href="#m5b8b3b22df" x="44.012725" y="90.219249" style="stroke: #000000; stroke-width: 0.5"/>
      </g>
     </g>
     <g id="line2d_59">
      <g>
       <use xlink:href="#mb19e8ad6a7" x="239.312725" y="90.219249" style="stroke: #000000; stroke-width: 0.5"/>
      </g>
     </g>
     <g id="text_10">
      <!-- $\mathdefault{10^{0}}$ -->
      <g transform="translate(26.578817 93.678498) scale(0.1 -0.1)">
       <use xlink:href="#CMR17-31" transform="scale(0.996264)"/>
       <use xlink:href="#CMR17-30" transform="translate(45.690477 0) scale(0.996264)"/>
       <use xlink:href="#CMR17-30" transform="translate(91.380954 36.153639) scale(0.697382)"/>
      </g>
     </g>
    </g>
    <g id="ytick_5">
     <g id="line2d_60">
      <path d="M 44.012725 69.429249 
L 239.312725 69.429249 
" clip-path="url(#p617f13fa0f)" style="fill: none; stroke-dasharray: 1.85,0.8; stroke-dashoffset: 0; stroke: #000000; stroke-opacity: 0.5; stroke-width: 0.5"/>
     </g>
     <g id="line2d_61">
      <g>
       <use xlink:href="#m5b8b3b22df" x="44.012725" y="69.429249" style="stroke: #000000; stroke-width: 0.5"/>
      </g>
     </g>
     <g id="line2d_62">
      <g>
       <use xlink:href="#mb19e8ad6a7" x="239.312725" y="69.429249" style="stroke: #000000; stroke-width: 0.5"/>
      </g>
     </g>
     <g id="text_11">
      <!-- $\mathdefault{10^{1}}$ -->
      <g transform="translate(26.578817 72.888498) scale(0.1 -0.1)">
       <use xlink:href="#CMR17-31" transform="scale(0.996264)"/>
       <use xlink:href="#CMR17-30" transform="translate(45.690477 0) scale(0.996264)"/>
       <use xlink:href="#CMR17-31" transform="translate(91.380954 36.153639) scale(0.697382)"/>
      </g>
     </g>
    </g>
    <g id="ytick_6">
     <g id="line2d_63">
      <path d="M 44.012725 48.639249 
L 239.312725 48.639249 
" clip-path="url(#p617f13fa0f)" style="fill: none; stroke-dasharray: 1.85,0.8; stroke-dashoffset: 0; stroke: #000000; stroke-opacity: 0.5; stroke-width: 0.5"/>
     </g>
     <g id="line2d_64">
      <g>
       <use xlink:href="#m5b8b3b22df" x="44.012725" y="48.639249" style="stroke: #000000; stroke-width: 0.5"/>
      </g>
     </g>
     <g id="line2d_65">
      <g>
       <use xlink:href="#mb19e8ad6a7" x="239.312725" y="48.639249" style="stroke: #000000; stroke-width: 0.5"/>
      </g>
     </g>
     <g id="text_12">
      <!-- $\mathdefault{10^{2}}$ -->
      <g transform="translate(26.578817 52.098498) scale(0.1 -0.1)">
       <use xlink:href="#CMR17-31" transform="scale(0.996264)"/>
       <use xlink:href="#CMR17-30" transform="translate(45.690477 0) scale(0.996264)"/>
       <use xlink:href="#CMR17-32" transform="translate(91.380954 36.153639) scale(0.697382)"/>
      </g>
     </g>
    </g>
    <g id="ytick_7">
     <g id="line2d_66">
      <path d="M 44.012725 27.849249 
L 239.312725 27.849249 
" clip-path="url(#p617f13fa0f)" style="fill: none; stroke-dasharray: 1.85,0.8; stroke-dashoffset: 0; stroke: #000000; stroke-opacity: 0.5; stroke-width: 0.5"/>
     </g>
     <g id="line2d_67">
      <g>
       <use xlink:href="#m5b8b3b22df" x="44.012725" y="27.849249" style="stroke: #000000; stroke-width: 0.5"/>
      </g>
     </g>
     <g id="line2d_68">
      <g>
       <use xlink:href="#mb19e8ad6a7" x="239.312725" y="27.849249" style="stroke: #000000; stroke-width: 0.5"/>
      </g>
     </g>
     <g id="text_13">
      <!-- $\mathdefault{10^{3}}$ -->
      <g transform="translate(26.578817 31.308498) scale(0.1 -0.1)">
       <use xlink:href="#CMR17-31" transform="scale(0.996264)"/>
       <use xlink:href="#CMR17-30" transform="translate(45.690477 0) scale(0.996264)"/>
       <use xlink:href="#CMR17-33" transform="translate(91.380954 36.153639) scale(0.697382)"/>
      </g>
     </g>
    </g>
    <g id="ytick_8">
     <g id="line2d_69">
      <path d="M 44.012725 7.059249 
L 239.312725 7.059249 
" clip-path="url(#p617f13fa0f)" style="fill: none; stroke-dasharray: 1.85,0.8; stroke-dashoffset: 0; stroke: #000000; stroke-opacity: 0.5; stroke-width: 0.5"/>
     </g>
     <g id="line2d_70">
      <g>
       <use xlink:href="#m5b8b3b22df" x="44.012725" y="7.059249" style="stroke: #000000; stroke-width: 0.5"/>
      </g>
     </g>
     <g id="line2d_71">
      <g>
       <use xlink:href="#mb19e8ad6a7" x="239.312725" y="7.059249" style="stroke: #000000; stroke-width: 0.5"/>
      </g>
     </g>
     <g id="text_14">
      <!-- $\mathdefault{10^{4}}$ -->
      <g transform="translate(26.578817 10.518498) scale(0.1 -0.1)">
       <defs>
        <path id="CMR17-34" d="M 2150 4122 
C 2150 4256 2144 4256 2029 4256 
L 128 1254 
L 128 1088 
L 1779 1088 
L 1779 457 
C 1779 224 1766 160 1318 160 
L 1197 160 
L 1197 0 
C 1402 0 1747 0 1965 0 
C 2182 0 2528 0 2733 0 
L 2733 160 
L 2611 160 
C 2163 160 2150 224 2150 457 
L 2150 1088 
L 2803 1088 
L 2803 1254 
L 2150 1254 
L 2150 4122 
z
M 1798 3703 
L 1798 1254 
L 256 1254 
L 1798 3703 
z
" transform="scale(0.015625)"/>
       </defs>
       <use xlink:href="#CMR17-31" transform="scale(0.996264)"/>
       <use xlink:href="#CMR17-30" transform="translate(45.690477 0) scale(0.996264)"/>
       <use xlink:href="#CMR17-34" transform="translate(91.380954 36.153639) scale(0.697382)"/>
      </g>
     </g>
    </g>
    <g id="ytick_9">
     <g id="line2d_72">
      <defs>
       <path id="m586cb33617" d="M 0 0 
L 1.5 0 
" style="stroke: #000000; stroke-width: 0.5"/>
      </defs>
      <g>
       <use xlink:href="#m586cb33617" x="44.012725" y="146.330836" style="stroke: #000000; stroke-width: 0.5"/>
      </g>
     </g>
     <g id="line2d_73">
      <defs>
       <path id="mc21de85000" d="M 0 0 
L -1.5 0 
" style="stroke: #000000; stroke-width: 0.5"/>
      </defs>
      <g>
       <use xlink:href="#mc21de85000" x="239.312725" y="146.330836" style="stroke: #000000; stroke-width: 0.5"/>
      </g>
     </g>
    </g>
    <g id="ytick_10">
     <g id="line2d_74">
      <g>
       <use xlink:href="#m586cb33617" x="44.012725" y="142.669898" style="stroke: #000000; stroke-width: 0.5"/>
      </g>
     </g>
     <g id="line2d_75">
      <g>
       <use xlink:href="#mc21de85000" x="239.312725" y="142.669898" style="stroke: #000000; stroke-width: 0.5"/>
      </g>
     </g>
    </g>
    <g id="ytick_11">
     <g id="line2d_76">
      <g>
       <use xlink:href="#m586cb33617" x="44.012725" y="140.072422" style="stroke: #000000; stroke-width: 0.5"/>
      </g>
     </g>
     <g id="line2d_77">
      <g>
       <use xlink:href="#mc21de85000" x="239.312725" y="140.072422" style="stroke: #000000; stroke-width: 0.5"/>
      </g>
     </g>
    </g>
    <g id="ytick_12">
     <g id="line2d_78">
      <g>
       <use xlink:href="#m586cb33617" x="44.012725" y="138.057663" style="stroke: #000000; stroke-width: 0.5"/>
      </g>
     </g>
     <g id="line2d_79">
      <g>
       <use xlink:href="#mc21de85000" x="239.312725" y="138.057663" style="stroke: #000000; stroke-width: 0.5"/>
      </g>
     </g>
    </g>
    <g id="ytick_13">
     <g id="line2d_80">
      <g>
       <use xlink:href="#m586cb33617" x="44.012725" y="136.411485" style="stroke: #000000; stroke-width: 0.5"/>
      </g>
     </g>
     <g id="line2d_81">
      <g>
       <use xlink:href="#mc21de85000" x="239.312725" y="136.411485" style="stroke: #000000; stroke-width: 0.5"/>
      </g>
     </g>
    </g>
    <g id="ytick_14">
     <g id="line2d_82">
      <g>
       <use xlink:href="#m586cb33617" x="44.012725" y="135.019661" style="stroke: #000000; stroke-width: 0.5"/>
      </g>
     </g>
     <g id="line2d_83">
      <g>
       <use xlink:href="#mc21de85000" x="239.312725" y="135.019661" style="stroke: #000000; stroke-width: 0.5"/>
      </g>
     </g>
    </g>
    <g id="ytick_15">
     <g id="line2d_84">
      <g>
       <use xlink:href="#m586cb33617" x="44.012725" y="133.814008" style="stroke: #000000; stroke-width: 0.5"/>
      </g>
     </g>
     <g id="line2d_85">
      <g>
       <use xlink:href="#mc21de85000" x="239.312725" y="133.814008" style="stroke: #000000; stroke-width: 0.5"/>
      </g>
     </g>
    </g>
    <g id="ytick_16">
     <g id="line2d_86">
      <g>
       <use xlink:href="#m586cb33617" x="44.012725" y="132.750547" style="stroke: #000000; stroke-width: 0.5"/>
      </g>
     </g>
     <g id="line2d_87">
      <g>
       <use xlink:href="#mc21de85000" x="239.312725" y="132.750547" style="stroke: #000000; stroke-width: 0.5"/>
      </g>
     </g>
    </g>
    <g id="ytick_17">
     <g id="line2d_88">
      <g>
       <use xlink:href="#m586cb33617" x="44.012725" y="125.540836" style="stroke: #000000; stroke-width: 0.5"/>
      </g>
     </g>
     <g id="line2d_89">
      <g>
       <use xlink:href="#mc21de85000" x="239.312725" y="125.540836" style="stroke: #000000; stroke-width: 0.5"/>
      </g>
     </g>
    </g>
    <g id="ytick_18">
     <g id="line2d_90">
      <g>
       <use xlink:href="#m586cb33617" x="44.012725" y="121.879898" style="stroke: #000000; stroke-width: 0.5"/>
      </g>
     </g>
     <g id="line2d_91">
      <g>
       <use xlink:href="#mc21de85000" x="239.312725" y="121.879898" style="stroke: #000000; stroke-width: 0.5"/>
      </g>
     </g>
    </g>
    <g id="ytick_19">
     <g id="line2d_92">
      <g>
       <use xlink:href="#m586cb33617" x="44.012725" y="119.282422" style="stroke: #000000; stroke-width: 0.5"/>
      </g>
     </g>
     <g id="line2d_93">
      <g>
       <use xlink:href="#mc21de85000" x="239.312725" y="119.282422" style="stroke: #000000; stroke-width: 0.5"/>
      </g>
     </g>
    </g>
    <g id="ytick_20">
     <g id="line2d_94">
      <g>
       <use xlink:href="#m586cb33617" x="44.012725" y="117.267663" style="stroke: #000000; stroke-width: 0.5"/>
      </g>
     </g>
     <g id="line2d_95">
      <g>
       <use xlink:href="#mc21de85000" x="239.312725" y="117.267663" style="stroke: #000000; stroke-width: 0.5"/>
      </g>
     </g>
    </g>
    <g id="ytick_21">
     <g id="line2d_96">
      <g>
       <use xlink:href="#m586cb33617" x="44.012725" y="115.621485" style="stroke: #000000; stroke-width: 0.5"/>
      </g>
     </g>
     <g id="line2d_97">
      <g>
       <use xlink:href="#mc21de85000" x="239.312725" y="115.621485" style="stroke: #000000; stroke-width: 0.5"/>
      </g>
     </g>
    </g>
    <g id="ytick_22">
     <g id="line2d_98">
      <g>
       <use xlink:href="#m586cb33617" x="44.012725" y="114.229661" style="stroke: #000000; stroke-width: 0.5"/>
      </g>
     </g>
     <g id="line2d_99">
      <g>
       <use xlink:href="#mc21de85000" x="239.312725" y="114.229661" style="stroke: #000000; stroke-width: 0.5"/>
      </g>
     </g>
    </g>
    <g id="ytick_23">
     <g id="line2d_100">
      <g>
       <use xlink:href="#m586cb33617" x="44.012725" y="113.024008" style="stroke: #000000; stroke-width: 0.5"/>
      </g>
     </g>
     <g id="line2d_101">
      <g>
       <use xlink:href="#mc21de85000" x="239.312725" y="113.024008" style="stroke: #000000; stroke-width: 0.5"/>
      </g>
     </g>
    </g>
    <g id="ytick_24">
     <g id="line2d_102">
      <g>
       <use xlink:href="#m586cb33617" x="44.012725" y="111.960547" style="stroke: #000000; stroke-width: 0.5"/>
      </g>
     </g>
     <g id="line2d_103">
      <g>
       <use xlink:href="#mc21de85000" x="239.312725" y="111.960547" style="stroke: #000000; stroke-width: 0.5"/>
      </g>
     </g>
    </g>
    <g id="ytick_25">
     <g id="line2d_104">
      <g>
       <use xlink:href="#m586cb33617" x="44.012725" y="104.750836" style="stroke: #000000; stroke-width: 0.5"/>
      </g>
     </g>
     <g id="line2d_105">
      <g>
       <use xlink:href="#mc21de85000" x="239.312725" y="104.750836" style="stroke: #000000; stroke-width: 0.5"/>
      </g>
     </g>
    </g>
    <g id="ytick_26">
     <g id="line2d_106">
      <g>
       <use xlink:href="#m586cb33617" x="44.012725" y="101.089898" style="stroke: #000000; stroke-width: 0.5"/>
      </g>
     </g>
     <g id="line2d_107">
      <g>
       <use xlink:href="#mc21de85000" x="239.312725" y="101.089898" style="stroke: #000000; stroke-width: 0.5"/>
      </g>
     </g>
    </g>
    <g id="ytick_27">
     <g id="line2d_108">
      <g>
       <use xlink:href="#m586cb33617" x="44.012725" y="98.492422" style="stroke: #000000; stroke-width: 0.5"/>
      </g>
     </g>
     <g id="line2d_109">
      <g>
       <use xlink:href="#mc21de85000" x="239.312725" y="98.492422" style="stroke: #000000; stroke-width: 0.5"/>
      </g>
     </g>
    </g>
    <g id="ytick_28">
     <g id="line2d_110">
      <g>
       <use xlink:href="#m586cb33617" x="44.012725" y="96.477663" style="stroke: #000000; stroke-width: 0.5"/>
      </g>
     </g>
     <g id="line2d_111">
      <g>
       <use xlink:href="#mc21de85000" x="239.312725" y="96.477663" style="stroke: #000000; stroke-width: 0.5"/>
      </g>
     </g>
    </g>
    <g id="ytick_29">
     <g id="line2d_112">
      <g>
       <use xlink:href="#m586cb33617" x="44.012725" y="94.831485" style="stroke: #000000; stroke-width: 0.5"/>
      </g>
     </g>
     <g id="line2d_113">
      <g>
       <use xlink:href="#mc21de85000" x="239.312725" y="94.831485" style="stroke: #000000; stroke-width: 0.5"/>
      </g>
     </g>
    </g>
    <g id="ytick_30">
     <g id="line2d_114">
      <g>
       <use xlink:href="#m586cb33617" x="44.012725" y="93.439661" style="stroke: #000000; stroke-width: 0.5"/>
      </g>
     </g>
     <g id="line2d_115">
      <g>
       <use xlink:href="#mc21de85000" x="239.312725" y="93.439661" style="stroke: #000000; stroke-width: 0.5"/>
      </g>
     </g>
    </g>
    <g id="ytick_31">
     <g id="line2d_116">
      <g>
       <use xlink:href="#m586cb33617" x="44.012725" y="92.234008" style="stroke: #000000; stroke-width: 0.5"/>
      </g>
     </g>
     <g id="line2d_117">
      <g>
       <use xlink:href="#mc21de85000" x="239.312725" y="92.234008" style="stroke: #000000; stroke-width: 0.5"/>
      </g>
     </g>
    </g>
    <g id="ytick_32">
     <g id="line2d_118">
      <g>
       <use xlink:href="#m586cb33617" x="44.012725" y="91.170547" style="stroke: #000000; stroke-width: 0.5"/>
      </g>
     </g>
     <g id="line2d_119">
      <g>
       <use xlink:href="#mc21de85000" x="239.312725" y="91.170547" style="stroke: #000000; stroke-width: 0.5"/>
      </g>
     </g>
    </g>
    <g id="ytick_33">
     <g id="line2d_120">
      <g>
       <use xlink:href="#m586cb33617" x="44.012725" y="83.960836" style="stroke: #000000; stroke-width: 0.5"/>
      </g>
     </g>
     <g id="line2d_121">
      <g>
       <use xlink:href="#mc21de85000" x="239.312725" y="83.960836" style="stroke: #000000; stroke-width: 0.5"/>
      </g>
     </g>
    </g>
    <g id="ytick_34">
     <g id="line2d_122">
      <g>
       <use xlink:href="#m586cb33617" x="44.012725" y="80.299898" style="stroke: #000000; stroke-width: 0.5"/>
      </g>
     </g>
     <g id="line2d_123">
      <g>
       <use xlink:href="#mc21de85000" x="239.312725" y="80.299898" style="stroke: #000000; stroke-width: 0.5"/>
      </g>
     </g>
    </g>
    <g id="ytick_35">
     <g id="line2d_124">
      <g>
       <use xlink:href="#m586cb33617" x="44.012725" y="77.702422" style="stroke: #000000; stroke-width: 0.5"/>
      </g>
     </g>
     <g id="line2d_125">
      <g>
       <use xlink:href="#mc21de85000" x="239.312725" y="77.702422" style="stroke: #000000; stroke-width: 0.5"/>
      </g>
     </g>
    </g>
    <g id="ytick_36">
     <g id="line2d_126">
      <g>
       <use xlink:href="#m586cb33617" x="44.012725" y="75.687663" style="stroke: #000000; stroke-width: 0.5"/>
      </g>
     </g>
     <g id="line2d_127">
      <g>
       <use xlink:href="#mc21de85000" x="239.312725" y="75.687663" style="stroke: #000000; stroke-width: 0.5"/>
      </g>
     </g>
    </g>
    <g id="ytick_37">
     <g id="line2d_128">
      <g>
       <use xlink:href="#m586cb33617" x="44.012725" y="74.041485" style="stroke: #000000; stroke-width: 0.5"/>
      </g>
     </g>
     <g id="line2d_129">
      <g>
       <use xlink:href="#mc21de85000" x="239.312725" y="74.041485" style="stroke: #000000; stroke-width: 0.5"/>
      </g>
     </g>
    </g>
    <g id="ytick_38">
     <g id="line2d_130">
      <g>
       <use xlink:href="#m586cb33617" x="44.012725" y="72.649661" style="stroke: #000000; stroke-width: 0.5"/>
      </g>
     </g>
     <g id="line2d_131">
      <g>
       <use xlink:href="#mc21de85000" x="239.312725" y="72.649661" style="stroke: #000000; stroke-width: 0.5"/>
      </g>
     </g>
    </g>
    <g id="ytick_39">
     <g id="line2d_132">
      <g>
       <use xlink:href="#m586cb33617" x="44.012725" y="71.444008" style="stroke: #000000; stroke-width: 0.5"/>
      </g>
     </g>
     <g id="line2d_133">
      <g>
       <use xlink:href="#mc21de85000" x="239.312725" y="71.444008" style="stroke: #000000; stroke-width: 0.5"/>
      </g>
     </g>
    </g>
    <g id="ytick_40">
     <g id="line2d_134">
      <g>
       <use xlink:href="#m586cb33617" x="44.012725" y="70.380547" style="stroke: #000000; stroke-width: 0.5"/>
      </g>
     </g>
     <g id="line2d_135">
      <g>
       <use xlink:href="#mc21de85000" x="239.312725" y="70.380547" style="stroke: #000000; stroke-width: 0.5"/>
      </g>
     </g>
    </g>
    <g id="ytick_41">
     <g id="line2d_136">
      <g>
       <use xlink:href="#m586cb33617" x="44.012725" y="63.170836" style="stroke: #000000; stroke-width: 0.5"/>
      </g>
     </g>
     <g id="line2d_137">
      <g>
       <use xlink:href="#mc21de85000" x="239.312725" y="63.170836" style="stroke: #000000; stroke-width: 0.5"/>
      </g>
     </g>
    </g>
    <g id="ytick_42">
     <g id="line2d_138">
      <g>
       <use xlink:href="#m586cb33617" x="44.012725" y="59.509898" style="stroke: #000000; stroke-width: 0.5"/>
      </g>
     </g>
     <g id="line2d_139">
      <g>
       <use xlink:href="#mc21de85000" x="239.312725" y="59.509898" style="stroke: #000000; stroke-width: 0.5"/>
      </g>
     </g>
    </g>
    <g id="ytick_43">
     <g id="line2d_140">
      <g>
       <use xlink:href="#m586cb33617" x="44.012725" y="56.912422" style="stroke: #000000; stroke-width: 0.5"/>
      </g>
     </g>
     <g id="line2d_141">
      <g>
       <use xlink:href="#mc21de85000" x="239.312725" y="56.912422" style="stroke: #000000; stroke-width: 0.5"/>
      </g>
     </g>
    </g>
    <g id="ytick_44">
     <g id="line2d_142">
      <g>
       <use xlink:href="#m586cb33617" x="44.012725" y="54.897663" style="stroke: #000000; stroke-width: 0.5"/>
      </g>
     </g>
     <g id="line2d_143">
      <g>
       <use xlink:href="#mc21de85000" x="239.312725" y="54.897663" style="stroke: #000000; stroke-width: 0.5"/>
      </g>
     </g>
    </g>
    <g id="ytick_45">
     <g id="line2d_144">
      <g>
       <use xlink:href="#m586cb33617" x="44.012725" y="53.251485" style="stroke: #000000; stroke-width: 0.5"/>
      </g>
     </g>
     <g id="line2d_145">
      <g>
       <use xlink:href="#mc21de85000" x="239.312725" y="53.251485" style="stroke: #000000; stroke-width: 0.5"/>
      </g>
     </g>
    </g>
    <g id="ytick_46">
     <g id="line2d_146">
      <g>
       <use xlink:href="#m586cb33617" x="44.012725" y="51.859661" style="stroke: #000000; stroke-width: 0.5"/>
      </g>
     </g>
     <g id="line2d_147">
      <g>
       <use xlink:href="#mc21de85000" x="239.312725" y="51.859661" style="stroke: #000000; stroke-width: 0.5"/>
      </g>
     </g>
    </g>
    <g id="ytick_47">
     <g id="line2d_148">
      <g>
       <use xlink:href="#m586cb33617" x="44.012725" y="50.654008" style="stroke: #000000; stroke-width: 0.5"/>
      </g>
     </g>
     <g id="line2d_149">
      <g>
       <use xlink:href="#mc21de85000" x="239.312725" y="50.654008" style="stroke: #000000; stroke-width: 0.5"/>
      </g>
     </g>
    </g>
    <g id="ytick_48">
     <g id="line2d_150">
      <g>
       <use xlink:href="#m586cb33617" x="44.012725" y="49.590547" style="stroke: #000000; stroke-width: 0.5"/>
      </g>
     </g>
     <g id="line2d_151">
      <g>
       <use xlink:href="#mc21de85000" x="239.312725" y="49.590547" style="stroke: #000000; stroke-width: 0.5"/>
      </g>
     </g>
    </g>
    <g id="ytick_49">
     <g id="line2d_152">
      <g>
       <use xlink:href="#m586cb33617" x="44.012725" y="42.380836" style="stroke: #000000; stroke-width: 0.5"/>
      </g>
     </g>
     <g id="line2d_153">
      <g>
       <use xlink:href="#mc21de85000" x="239.312725" y="42.380836" style="stroke: #000000; stroke-width: 0.5"/>
      </g>
     </g>
    </g>
    <g id="ytick_50">
     <g id="line2d_154">
      <g>
       <use xlink:href="#m586cb33617" x="44.012725" y="38.719898" style="stroke: #000000; stroke-width: 0.5"/>
      </g>
     </g>
     <g id="line2d_155">
      <g>
       <use xlink:href="#mc21de85000" x="239.312725" y="38.719898" style="stroke: #000000; stroke-width: 0.5"/>
      </g>
     </g>
    </g>
    <g id="ytick_51">
     <g id="line2d_156">
      <g>
       <use xlink:href="#m586cb33617" x="44.012725" y="36.122422" style="stroke: #000000; stroke-width: 0.5"/>
      </g>
     </g>
     <g id="line2d_157">
      <g>
       <use xlink:href="#mc21de85000" x="239.312725" y="36.122422" style="stroke: #000000; stroke-width: 0.5"/>
      </g>
     </g>
    </g>
    <g id="ytick_52">
     <g id="line2d_158">
      <g>
       <use xlink:href="#m586cb33617" x="44.012725" y="34.107663" style="stroke: #000000; stroke-width: 0.5"/>
      </g>
     </g>
     <g id="line2d_159">
      <g>
       <use xlink:href="#mc21de85000" x="239.312725" y="34.107663" style="stroke: #000000; stroke-width: 0.5"/>
      </g>
     </g>
    </g>
    <g id="ytick_53">
     <g id="line2d_160">
      <g>
       <use xlink:href="#m586cb33617" x="44.012725" y="32.461485" style="stroke: #000000; stroke-width: 0.5"/>
      </g>
     </g>
     <g id="line2d_161">
      <g>
       <use xlink:href="#mc21de85000" x="239.312725" y="32.461485" style="stroke: #000000; stroke-width: 0.5"/>
      </g>
     </g>
    </g>
    <g id="ytick_54">
     <g id="line2d_162">
      <g>
       <use xlink:href="#m586cb33617" x="44.012725" y="31.069661" style="stroke: #000000; stroke-width: 0.5"/>
      </g>
     </g>
     <g id="line2d_163">
      <g>
       <use xlink:href="#mc21de85000" x="239.312725" y="31.069661" style="stroke: #000000; stroke-width: 0.5"/>
      </g>
     </g>
    </g>
    <g id="ytick_55">
     <g id="line2d_164">
      <g>
       <use xlink:href="#m586cb33617" x="44.012725" y="29.864008" style="stroke: #000000; stroke-width: 0.5"/>
      </g>
     </g>
     <g id="line2d_165">
      <g>
       <use xlink:href="#mc21de85000" x="239.312725" y="29.864008" style="stroke: #000000; stroke-width: 0.5"/>
      </g>
     </g>
    </g>
    <g id="ytick_56">
     <g id="line2d_166">
      <g>
       <use xlink:href="#m586cb33617" x="44.012725" y="28.800547" style="stroke: #000000; stroke-width: 0.5"/>
      </g>
     </g>
     <g id="line2d_167">
      <g>
       <use xlink:href="#mc21de85000" x="239.312725" y="28.800547" style="stroke: #000000; stroke-width: 0.5"/>
      </g>
     </g>
    </g>
    <g id="ytick_57">
     <g id="line2d_168">
      <g>
       <use xlink:href="#m586cb33617" x="44.012725" y="21.590836" style="stroke: #000000; stroke-width: 0.5"/>
      </g>
     </g>
     <g id="line2d_169">
      <g>
       <use xlink:href="#mc21de85000" x="239.312725" y="21.590836" style="stroke: #000000; stroke-width: 0.5"/>
      </g>
     </g>
    </g>
    <g id="ytick_58">
     <g id="line2d_170">
      <g>
       <use xlink:href="#m586cb33617" x="44.012725" y="17.929898" style="stroke: #000000; stroke-width: 0.5"/>
      </g>
     </g>
     <g id="line2d_171">
      <g>
       <use xlink:href="#mc21de85000" x="239.312725" y="17.929898" style="stroke: #000000; stroke-width: 0.5"/>
      </g>
     </g>
    </g>
    <g id="ytick_59">
     <g id="line2d_172">
      <g>
       <use xlink:href="#m586cb33617" x="44.012725" y="15.332422" style="stroke: #000000; stroke-width: 0.5"/>
      </g>
     </g>
     <g id="line2d_173">
      <g>
       <use xlink:href="#mc21de85000" x="239.312725" y="15.332422" style="stroke: #000000; stroke-width: 0.5"/>
      </g>
     </g>
    </g>
    <g id="ytick_60">
     <g id="line2d_174">
      <g>
       <use xlink:href="#m586cb33617" x="44.012725" y="13.317663" style="stroke: #000000; stroke-width: 0.5"/>
      </g>
     </g>
     <g id="line2d_175">
      <g>
       <use xlink:href="#mc21de85000" x="239.312725" y="13.317663" style="stroke: #000000; stroke-width: 0.5"/>
      </g>
     </g>
    </g>
    <g id="ytick_61">
     <g id="line2d_176">
      <g>
       <use xlink:href="#m586cb33617" x="44.012725" y="11.671485" style="stroke: #000000; stroke-width: 0.5"/>
      </g>
     </g>
     <g id="line2d_177">
      <g>
       <use xlink:href="#mc21de85000" x="239.312725" y="11.671485" style="stroke: #000000; stroke-width: 0.5"/>
      </g>
     </g>
    </g>
    <g id="ytick_62">
     <g id="line2d_178">
      <g>
       <use xlink:href="#m586cb33617" x="44.012725" y="10.279661" style="stroke: #000000; stroke-width: 0.5"/>
      </g>
     </g>
     <g id="line2d_179">
      <g>
       <use xlink:href="#mc21de85000" x="239.312725" y="10.279661" style="stroke: #000000; stroke-width: 0.5"/>
      </g>
     </g>
    </g>
    <g id="ytick_63">
     <g id="line2d_180">
      <g>
       <use xlink:href="#m586cb33617" x="44.012725" y="9.074008" style="stroke: #000000; stroke-width: 0.5"/>
      </g>
     </g>
     <g id="line2d_181">
      <g>
       <use xlink:href="#mc21de85000" x="239.312725" y="9.074008" style="stroke: #000000; stroke-width: 0.5"/>
      </g>
     </g>
    </g>
    <g id="ytick_64">
     <g id="line2d_182">
      <g>
       <use xlink:href="#m586cb33617" x="44.012725" y="8.010547" style="stroke: #000000; stroke-width: 0.5"/>
      </g>
     </g>
     <g id="line2d_183">
      <g>
       <use xlink:href="#mc21de85000" x="239.312725" y="8.010547" style="stroke: #000000; stroke-width: 0.5"/>
      </g>
     </g>
    </g>
    <g id="text_15">
     <!-- $FFT$ -->
     <g transform="translate(13.562625 94.985154) rotate(-90) scale(0.144 -0.144)">
      <defs>
       <path id="CMMI12-46" d="M 1901 2055 
L 2515 2055 
C 3002 2055 3040 1946 3040 1761 
C 3040 1678 3027 1589 2995 1448 
C 2982 1423 2976 1391 2976 1378 
C 2976 1333 3002 1308 3046 1308 
C 3098 1308 3104 1333 3130 1435 
L 3501 2935 
C 3501 2961 3482 2999 3437 2999 
C 3379 2999 3373 2974 3347 2863 
C 3213 2376 3085 2240 2528 2240 
L 1946 2240 
L 2362 3926 
C 2419 4154 2432 4154 2694 4154 
L 3552 4154 
C 4352 4154 4467 3918 4467 3464 
C 4467 3426 4467 3285 4448 3119 
C 4442 3094 4429 3011 4429 2985 
C 4429 2934 4461 2915 4499 2915 
C 4544 2915 4570 2941 4582 3055 
L 4717 4174 
C 4717 4195 4730 4263 4730 4277 
C 4730 4352 4672 4352 4557 4352 
L 1523 4352 
C 1402 4352 1338 4352 1338 4229 
C 1338 4154 1382 4154 1491 4154 
C 1888 4154 1888 4113 1888 4050 
C 1888 4018 1882 3992 1862 3922 
L 998 473 
C 941 249 928 185 480 185 
C 358 185 294 185 294 70 
C 294 0 352 0 390 0 
C 512 0 640 0 762 0 
L 1594 0 
C 1734 0 1888 0 2029 0 
C 2086 0 2163 0 2163 115 
C 2163 185 2125 185 1984 185 
C 1478 185 1466 229 1466 324 
C 1466 356 1478 406 1491 449 
L 1901 2055 
z
" transform="scale(0.015625)"/>
       <path id="CMMI12-54" d="M 2669 3910 
C 2707 4064 2720 4121 2816 4147 
C 2867 4160 3078 4160 3213 4160 
C 3853 4160 4154 4134 4154 3634 
C 4154 3537 4128 3295 4090 3057 
L 4083 2980 
C 4083 2954 4109 2916 4147 2916 
C 4211 2916 4211 2948 4230 3050 
L 4416 4184 
C 4429 4243 4429 4256 4429 4275 
C 4429 4345 4390 4345 4262 4345 
L 762 4345 
C 614 4345 608 4339 570 4224 
L 179 3070 
C 173 3056 154 2986 154 2980 
C 154 2948 179 2916 218 2916 
C 269 2916 282 2941 307 3024 
C 576 3801 710 4160 1562 4160 
L 1990 4160 
C 2144 4160 2208 4160 2208 4089 
C 2208 4069 2208 4057 2176 3941 
L 1318 499 
C 1254 249 1242 185 563 185 
C 403 185 358 185 358 64 
C 358 0 429 0 461 0 
C 621 0 787 0 947 0 
L 1946 0 
C 2106 0 2278 0 2438 0 
C 2509 0 2573 0 2573 121 
C 2573 185 2528 185 2362 185 
C 1786 185 1786 243 1786 339 
C 1786 346 1786 391 1811 494 
L 2669 3910 
z
" transform="scale(0.015625)"/>
      </defs>
      <use xlink:href="#CMMI12-46" transform="scale(0.996264)"/>
      <use xlink:href="#CMMI12-46" transform="translate(76.696793 0) scale(0.996264)"/>
      <use xlink:href="#CMMI12-54" transform="translate(153.393585 0) scale(0.996264)"/>
     </g>
    </g>
   </g>
   <g id="line2d_184">
    <path d="M 44.012725 126.242116 
L 44.131927 121.036087 
L 44.251129 122.448908 
L 44.37033 125.613343 
L 44.489532 121.293035 
L 44.608734 127.770904 
L 44.847137 118.619664 
L 44.966339 129.420163 
L 45.204742 121.380865 
L 45.323944 130.985017 
L 45.443145 117.438534 
L 45.562347 117.175553 
L 45.681549 125.883507 
L 45.80075 148.186966 
L 46.039154 115.577405 
L 46.158355 114.936469 
L 46.277557 125.850918 
L 46.51596 119.130737 
L 46.635162 120.614473 
L 46.754364 115.118837 
L 46.992767 120.856484 
L 47.111969 112.980063 
L 47.23117 115.406365 
L 47.350372 120.676895 
L 47.588775 118.232184 
L 47.707977 111.038508 
L 47.827178 112.184318 
L 47.94638 124.77349 
L 48.065582 114.925986 
L 48.184783 121.583781 
L 48.423187 110.257216 
L 48.542388 125.665126 
L 48.780792 107.231294 
L 48.899993 118.873706 
L 49.019195 112.782177 
L 49.138397 115.815554 
L 49.3768 103.453181 
L 49.615203 110.857647 
L 49.734405 105.20023 
L 49.853607 121.426767 
L 49.972808 102.160173 
L 50.09201 101.560538 
L 50.211212 120.901671 
L 50.330413 99.684216 
L 50.568817 104.258566 
L 50.688018 96.058639 
L 50.80722 103.793271 
L 51.045623 93.371336 
L 51.164825 116.302608 
L 51.284027 91.272801 
L 51.403228 90.832254 
L 51.52243 101.178182 
L 51.641632 86.209017 
L 51.760833 89.408708 
L 51.880035 88.885935 
L 51.999237 81.08291 
L 52.118438 90.029375 
L 52.356842 75.61123 
L 52.476043 114.495195 
L 52.595245 70.320317 
L 52.714447 69.189694 
L 52.833648 73.544787 
L 52.95285 59.009347 
L 53.072052 60.333801 
L 53.66806 25.641917 
L 53.787261 24.98158 
L 53.906463 25.896206 
L 54.144866 33.120418 
L 54.264068 40.813816 
L 54.502471 58.815065 
L 54.621673 60.033944 
L 54.740875 81.920868 
L 54.860076 68.433949 
L 54.979278 71.674915 
L 55.09848 88.620014 
L 55.217681 75.432395 
L 55.456085 86.269778 
L 55.575286 81.364058 
L 55.694488 92.880345 
L 55.932891 86.820527 
L 56.052093 113.326694 
L 56.171295 90.213653 
L 56.290496 92.740235 
L 56.409698 104.16796 
L 56.5289 93.091773 
L 56.767303 101.363509 
L 56.886505 96.865679 
L 57.005706 110.812004 
L 57.124908 100.465925 
L 57.24411 100.471403 
L 57.363311 120.423462 
L 57.482513 100.684517 
L 57.601715 102.976433 
L 57.720916 120.588889 
L 57.840118 106.144252 
L 57.95932 115.49201 
L 58.197723 104.128536 
L 58.316925 114.146544 
L 58.555328 109.296117 
L 58.67453 131.619896 
L 58.793731 111.626088 
L 58.912933 116.732806 
L 59.151336 109.444219 
L 59.270538 116.448055 
L 59.38974 115.767962 
L 59.508941 112.549575 
L 59.628143 116.934702 
L 59.747344 113.231749 
L 59.866546 115.374497 
L 59.985748 129.612476 
L 60.104949 115.072303 
L 60.224151 116.089711 
L 60.343353 115.493084 
L 60.462554 113.509262 
L 60.581756 115.602567 
L 60.820159 114.185921 
L 61.058563 119.663602 
L 61.177764 119.484866 
L 61.416168 115.45084 
L 61.654571 119.670073 
L 61.773773 119.150213 
L 61.892974 126.696404 
L 62.012176 125.83613 
L 62.131378 123.144652 
L 62.369781 138.05464 
L 62.608184 117.831557 
L 62.727386 115.793484 
L 62.846588 119.129985 
L 62.965789 129.02874 
L 63.204193 124.90521 
L 63.323394 124.464018 
L 63.442596 126.987715 
L 63.561798 124.317439 
L 63.800201 116.822723 
L 64.038604 115.7187 
L 64.753814 121.02587 
L 64.873016 124.034983 
L 65.230621 117.651457 
L 65.349823 117.147492 
L 65.588226 117.723442 
L 65.826629 114.889758 
L 65.945831 115.230653 
L 66.065032 119.320278 
L 66.184234 130.355225 
L 66.422637 116.662188 
L 66.661041 115.593777 
L 66.899444 114.416961 
L 67.018646 114.615669 
L 67.257049 117.103672 
L 67.495452 116.645098 
L 67.614654 117.881945 
L 67.853057 123.593506 
L 67.972259 123.217492 
L 68.329864 116.59308 
L 68.568267 117.425457 
L 68.806671 115.847093 
L 68.925872 116.26397 
L 69.283477 125.33423 
L 69.521881 116.306415 
L 69.641082 115.596807 
L 69.760284 117.632431 
L 69.998687 124.880439 
L 70.117889 124.578132 
L 70.237091 127.337453 
L 70.356292 132.901769 
L 70.594696 115.667474 
L 70.713897 116.366372 
L 70.833099 117.738424 
L 71.190704 109.221696 
L 71.309906 111.75323 
L 71.429107 120.061883 
L 71.548309 119.333324 
L 71.667511 119.46058 
L 71.905914 107.811081 
L 72.025115 123.194693 
L 72.144317 102.514823 
L 72.263519 102.828432 
L 72.38272 104.23112 
L 72.501922 92.447559 
L 72.621124 97.77973 
L 72.978729 64.927161 
L 73.217132 58.991707 
L 73.336334 58.584815 
L 73.455535 59.757767 
L 73.693939 67.681866 
L 73.81314 76.125176 
L 73.932342 96.598931 
L 74.051544 91.278342 
L 74.170745 94.526752 
L 74.289947 131.625173 
L 74.409149 102.920568 
L 74.647552 110.944897 
L 74.766754 106.491429 
L 75.005157 121.391881 
L 75.124359 116.531271 
L 75.24356 126.990864 
L 75.362762 123.793133 
L 75.481964 123.923617 
L 75.720367 116.459213 
L 75.839569 119.338548 
L 75.95877 125.827575 
L 76.077972 124.562254 
L 76.197174 126.240596 
L 76.435577 131.442484 
L 76.67398 123.187721 
L 77.031585 119.463652 
L 77.269989 120.650168 
L 77.38919 121.771583 
L 77.508392 125.049603 
L 77.627594 132.523273 
L 77.746795 147.042085 
L 77.985198 128.320155 
L 78.342803 121.917249 
L 78.700408 120.132781 
L 79.058013 114.892948 
L 79.177215 114.663995 
L 79.415618 116.550492 
L 80.25003 126.936112 
L 80.369232 126.208662 
L 80.726837 120.158163 
L 80.846038 120.608276 
L 81.084442 129.048232 
L 81.442047 121.655304 
L 81.561248 121.535495 
L 81.799652 119.097777 
L 82.038055 117.66584 
L 82.157257 118.217195 
L 82.39566 122.19042 
L 82.514862 125.015397 
L 82.634063 124.673033 
L 82.872467 120.053497 
L 82.991668 119.400992 
L 83.11087 119.735444 
L 83.587677 123.038785 
L 83.706878 123.006464 
L 83.82608 122.827212 
L 83.945282 123.099848 
L 84.064483 124.668431 
L 84.183685 129.217804 
L 84.302886 142.079027 
L 84.54129 121.453372 
L 84.779693 117.234151 
L 84.898895 117.214262 
L 85.137298 120.414527 
L 85.375701 124.426032 
L 85.494903 125.076886 
L 85.614105 126.846961 
L 85.852508 139.227899 
L 86.210113 122.602816 
L 86.448516 116.346232 
L 86.567718 115.677788 
L 86.68692 116.893229 
L 87.282928 133.669373 
L 87.40213 139.254013 
L 87.640533 122.42949 
L 87.878936 117.408081 
L 87.998138 117.593657 
L 88.474945 121.303956 
L 88.713348 119.756423 
L 88.83255 121.882667 
L 88.951751 127.948965 
L 89.070953 128.309762 
L 89.190155 127.130839 
L 89.428558 134.359637 
L 89.54776 135.400486 
L 89.666961 127.963183 
L 89.786163 128.398586 
L 89.905365 126.301529 
L 90.143768 115.355164 
L 90.382171 122.101303 
L 90.501373 119.362843 
L 90.739776 111.558938 
L 90.858978 117.748586 
L 90.978179 116.026759 
L 91.097381 111.463584 
L 91.216583 120.670141 
L 91.335784 111.562411 
L 91.454986 113.83996 
L 91.693389 97.855396 
L 91.812591 101.079684 
L 91.931793 98.565134 
L 92.050994 89.482054 
L 92.170196 101.427605 
L 92.408599 67.810193 
L 92.647003 58.227103 
L 92.885406 56.307648 
L 93.004608 57.737931 
L 93.243011 66.365234 
L 93.362213 75.600739 
L 93.481414 106.609755 
L 93.600616 88.741554 
L 93.719818 93.895001 
L 93.839019 111.732377 
L 93.958221 100.138365 
L 94.196624 109.430872 
L 94.315826 106.908423 
L 94.435028 122.026515 
L 94.554229 111.996812 
L 94.673431 111.361287 
L 94.911834 129.794342 
L 95.269439 110.674453 
L 95.388641 112.90585 
L 95.627044 122.409211 
L 95.865448 117.401233 
L 95.984649 119.009749 
L 96.342254 132.519813 
L 96.580657 126.381172 
L 96.699859 128.031931 
L 97.176666 116.925655 
L 97.415069 116.566536 
L 97.534271 117.513101 
L 97.653472 120.927068 
L 97.891876 130.922906 
L 98.011077 128.646842 
L 98.130279 130.44037 
L 98.249481 135.614581 
L 98.368682 133.608211 
L 98.607086 128.684082 
L 99.083892 118.757357 
L 99.203094 119.382369 
L 99.441497 123.040206 
L 99.679901 128.162114 
L 99.799102 128.389577 
L 99.918304 127.738979 
L 100.037506 129.486372 
L 100.156707 135.727841 
L 100.395111 122.009497 
L 100.633514 119.037343 
L 100.752716 119.326623 
L 100.871917 120.311156 
L 100.991119 122.662821 
L 101.110321 128.206362 
L 101.229522 143.36283 
L 101.467926 121.430968 
L 101.825531 115.411535 
L 102.063934 113.370051 
L 102.183136 113.089999 
L 102.302337 113.77121 
L 102.54074 119.62105 
L 102.779144 131.15761 
L 102.898345 128.710017 
L 103.136749 118.006462 
L 103.25595 116.601306 
L 103.375152 117.220576 
L 103.613555 124.724092 
L 103.732757 128.995364 
L 103.97116 122.916354 
L 104.090362 122.566788 
L 104.328765 126.543228 
L 104.447967 129.007825 
L 104.567169 128.8582 
L 104.924774 125.067888 
L 105.043975 123.431876 
L 105.282379 117.618899 
L 105.40158 116.966014 
L 105.520782 118.469025 
L 105.639984 122.545636 
L 105.878387 137.953123 
L 106.11679 127.596775 
L 106.355194 124.694105 
L 106.474395 124.752422 
L 106.712799 130.389809 
L 107.070404 122.764926 
L 107.189605 125.688714 
L 107.308807 137.281808 
L 107.54721 120.907469 
L 107.666412 118.815763 
L 107.785614 119.392269 
L 108.024017 123.293341 
L 108.381622 117.307932 
L 108.739227 119.568046 
L 108.858428 119.902317 
L 108.97763 121.788077 
L 109.335235 112.546658 
L 109.454437 115.043066 
L 109.573638 119.874078 
L 109.69284 119.037972 
L 109.931243 112.89972 
L 110.050445 113.849706 
L 110.40805 120.467923 
L 110.527252 112.391876 
L 110.646453 112.9611 
L 110.765655 119.301322 
L 110.884857 106.763263 
L 111.004058 108.910523 
L 111.12326 108.585209 
L 111.242462 99.791472 
L 111.361663 107.276197 
L 111.600067 89.439418 
L 111.719268 111.251168 
L 111.957672 66.947066 
L 112.196075 58.149605 
L 112.315277 56.654905 
L 112.434478 56.750062 
L 112.55368 58.446359 
L 112.792083 67.849681 
L 112.911285 78.097306 
L 113.030487 102.519927 
L 113.149688 89.089795 
L 113.388092 105.381734 
L 113.507293 100.014186 
L 113.626495 110.059801 
L 113.745697 110.152044 
L 113.864898 109.399318 
L 113.9841 136.221307 
L 114.103302 111.182463 
L 114.222503 112.746494 
L 114.341705 124.948455 
L 114.460907 119.735081 
L 114.580108 119.984288 
L 114.818511 113.848382 
L 115.176116 120.551343 
L 115.41452 115.169185 
L 115.652923 119.469961 
L 115.891326 114.975351 
L 116.010528 114.891558 
L 116.12973 115.143178 
L 116.487335 113.642456 
L 116.84494 116.397582 
L 117.083343 114.686708 
L 117.202545 115.624358 
L 117.321746 118.762322 
L 117.56015 132.387441 
L 117.798553 119.127589 
L 118.036956 117.635102 
L 118.394561 116.237235 
L 118.513763 117.180899 
L 118.752166 120.959421 
L 118.871368 120.895779 
L 118.99057 120.580008 
L 119.228973 123.100203 
L 119.348175 122.95676 
L 119.467376 122.404317 
L 119.586578 123.537742 
L 119.824981 131.356672 
L 120.182586 123.847495 
L 120.301788 123.67788 
L 120.42099 124.866651 
L 120.659393 128.352633 
L 120.778594 128.089229 
L 120.897796 129.702509 
L 121.016998 128.335097 
L 121.255401 118.161507 
L 121.374603 116.812784 
L 121.493804 117.801734 
L 121.732208 124.259609 
L 121.970611 118.00255 
L 122.089813 117.574866 
L 122.566619 120.662202 
L 122.805023 123.546616 
L 122.924224 123.034268 
L 123.162628 120.892684 
L 123.281829 121.135768 
L 123.520233 124.894109 
L 123.758636 132.091713 
L 124.473846 118.514468 
L 124.831451 116.339503 
L 124.950653 117.08738 
L 125.189056 122.649434 
L 125.308258 126.947711 
L 125.427459 126.99972 
L 125.785064 120.767565 
L 126.023468 119.500075 
L 126.261871 118.591187 
L 126.500274 117.365595 
L 126.619476 117.813315 
L 126.738677 120.148616 
L 126.977081 129.167119 
L 127.215484 116.625553 
L 127.453887 114.915016 
L 127.692291 114.786947 
L 127.811492 114.980727 
L 127.930694 115.62024 
L 128.169097 118.912036 
L 128.407501 126.102927 
L 128.526702 133.315882 
L 128.645904 132.738848 
L 128.884307 125.541492 
L 129.003509 124.712165 
L 129.480316 118.196504 
L 129.599517 119.583948 
L 129.957122 128.909633 
L 130.076324 129.712608 
L 130.195526 125.623393 
L 130.433929 113.107601 
L 130.553131 115.560298 
L 130.672332 128.99948 
L 130.791534 115.780463 
L 130.910736 125.302122 
L 131.149139 105.004339 
L 131.268341 110.950342 
L 131.506744 81.013014 
L 131.745147 72.896812 
L 131.864349 71.657488 
L 131.983551 72.006191 
L 132.102752 73.981799 
L 132.341156 84.257869 
L 132.579559 110.861951 
L 132.698761 105.692309 
L 132.817962 121.205862 
L 133.056365 110.736366 
L 133.41397 126.463597 
L 133.652374 123.772653 
L 133.771575 130.874987 
L 134.12918 119.275343 
L 134.605987 121.936885 
L 134.84439 131.920259 
L 135.082794 123.09295 
L 135.201995 121.964203 
L 135.321197 121.960849 
L 135.440399 123.220356 
L 135.5596 127.348098 
L 135.678802 140.076397 
L 135.917205 119.735139 
L 136.155609 115.754289 
L 136.27481 115.399953 
L 136.394012 115.742606 
L 136.513214 116.897549 
L 136.751617 123.305184 
L 136.870819 131.163462 
L 136.99002 146.759957 
L 137.228424 126.572655 
L 137.70523 116.773507 
L 138.062835 114.182803 
L 138.182037 114.613298 
L 138.301239 116.46203 
L 138.42044 120.668845 
L 138.539642 129.561859 
L 138.897247 120.968961 
L 139.254852 127.244145 
L 139.493255 131.706477 
L 139.85086 117.998966 
L 139.970062 117.081107 
L 140.089263 117.612153 
L 140.327667 122.342214 
L 140.56607 126.893185 
L 140.685272 126.812478 
L 140.804473 126.456827 
L 141.042877 124.290039 
L 141.28128 122.655601 
L 141.400482 122.628896 
L 141.638885 121.057569 
L 141.758087 121.126851 
L 141.877288 121.395857 
L 142.354095 113.331375 
L 142.473297 113.626666 
L 142.7117 117.042059 
L 142.950103 123.155955 
L 143.069305 128.046113 
L 143.188507 138.009123 
L 143.546112 125.270067 
L 143.784515 126.890553 
L 144.14212 117.675192 
L 144.261322 118.836726 
L 144.380523 123.418718 
L 144.499725 142.856995 
L 144.738128 121.471223 
L 144.85733 120.888141 
L 145.095733 125.01867 
L 145.453338 116.158092 
L 145.57254 115.462478 
L 145.691741 115.644673 
L 145.930145 117.49434 
L 146.168548 122.450682 
L 146.28775 125.637734 
L 146.645355 119.70161 
L 146.883758 116.987122 
L 147.122161 115.333991 
L 147.360565 116.945082 
L 147.71817 113.645358 
L 147.837371 113.936312 
L 148.075775 114.279333 
L 148.43338 118.819844 
L 148.671783 115.762689 
L 148.790985 119.261369 
L 149.029388 131.870242 
L 149.267791 111.050685 
L 149.386993 111.32778 
L 149.506195 125.838894 
L 149.625396 114.553027 
L 149.744598 116.104004 
L 149.8638 115.649121 
L 149.983001 107.719277 
L 150.102203 122.785313 
L 150.340606 98.925385 
L 150.459808 117.364698 
L 150.57901 91.328004 
L 150.817413 88.52452 
L 151.055816 64.179603 
L 151.294219 56.800791 
L 151.413421 55.824552 
L 151.532623 56.423875 
L 151.771026 62.850383 
L 152.009429 82.978116 
L 152.128631 91.183598 
L 152.247833 89.320741 
L 152.367034 102.371538 
L 152.486236 100.27706 
L 152.605438 100.426394 
L 152.724639 118.67474 
L 152.843841 107.821812 
L 152.963043 111.578754 
L 153.082244 119.145446 
L 153.201446 111.412068 
L 153.439849 119.899671 
L 153.559051 116.17704 
L 153.678253 120.889965 
L 153.797454 116.616164 
L 153.916656 116.751553 
L 154.035858 121.81629 
L 154.274261 118.828471 
L 154.512664 122.960666 
L 154.751068 118.897252 
L 154.989471 118.778232 
L 155.108673 117.36367 
L 155.227874 117.383 
L 155.585479 123.43983 
L 155.704681 121.522661 
L 155.823883 121.491403 
L 155.943084 122.924581 
L 156.062286 122.833765 
L 156.419891 120.763196 
L 156.539093 119.91919 
L 156.658294 120.667999 
L 156.896698 129.949923 
L 157.135101 116.684323 
L 157.254302 115.972439 
L 157.373504 117.069285 
L 157.611907 123.544897 
L 157.731109 128.274675 
L 158.207916 114.512327 
L 158.327117 114.945897 
L 158.565521 120.453348 
L 158.684722 119.199564 
L 158.923126 114.029793 
L 159.042327 114.568065 
L 159.399932 124.699846 
L 159.519134 123.059156 
L 159.638336 123.919932 
L 159.757537 127.79816 
L 159.995941 143.723311 
L 160.234344 126.9406 
L 160.472747 122.526577 
L 160.830352 119.526967 
L 160.949554 120.182056 
L 161.068756 123.650753 
L 161.187957 135.543559 
L 161.545562 120.562387 
L 162.022369 118.334777 
L 162.141571 118.286528 
L 162.260772 119.005593 
L 162.618377 123.077272 
L 163.095184 115.96598 
L 163.214386 116.163298 
L 163.452789 118.819216 
L 163.691192 123.759802 
L 163.810394 130.926852 
L 163.929595 130.410955 
L 164.167999 116.767401 
L 164.406402 114.449211 
L 164.525604 115.273653 
L 164.883209 122.42372 
L 165.121612 117.010475 
L 165.240814 116.779422 
L 165.360015 119.063354 
L 165.479217 125.377876 
L 165.598419 124.999024 
L 165.836822 114.979743 
L 165.956024 113.942823 
L 166.075225 114.315146 
L 166.313629 117.590057 
L 166.671234 126.475794 
L 166.909637 120.75269 
L 167.14804 127.276987 
L 167.267242 124.079879 
L 167.386444 123.873015 
L 167.505645 126.694125 
L 167.982452 115.828779 
L 168.101654 115.928159 
L 168.220855 115.482361 
L 168.340057 116.344268 
L 168.459259 118.130523 
L 168.57846 116.921774 
L 168.816864 111.648488 
L 168.936065 114.368626 
L 169.055267 135.36864 
L 169.174469 120.079089 
L 169.29367 153.597194 
L 169.532073 107.974746 
L 169.651275 121.976686 
L 169.889678 102.369605 
L 170.00888 111.324413 
L 170.128082 93.911616 
L 170.247283 94.53431 
L 170.366485 87.658274 
L 170.604888 66.617901 
L 170.843292 59.889618 
L 170.962493 59.165798 
L 171.081695 60.016865 
L 171.320098 67.078653 
L 171.4393 74.613244 
L 171.677703 93.327128 
L 171.796905 93.996562 
L 171.916107 113.312704 
L 172.035308 102.882994 
L 172.15451 105.969111 
L 172.273712 120.886184 
L 172.392913 108.843462 
L 172.631317 118.804771 
L 172.750518 113.392327 
L 172.86972 116.478079 
L 173.108123 115.533002 
L 173.227325 117.792683 
L 173.346527 117.403906 
L 173.465728 118.631376 
L 173.823333 132.487832 
L 173.942535 128.683607 
L 174.061737 128.663905 
L 174.180938 127.644267 
L 174.419342 120.082638 
L 174.538543 121.178444 
L 174.657745 125.362013 
L 174.776947 137.925526 
L 175.01535 119.540352 
L 175.253753 116.084849 
L 175.372955 116.366831 
L 176.326568 123.677981 
L 176.44577 126.22041 
L 176.684173 139.923469 
L 176.922576 123.539742 
L 177.16098 121.02348 
L 177.518585 125.794701 
L 177.637786 125.034298 
L 177.995391 121.253469 
L 178.233795 120.476376 
L 178.352996 120.383763 
L 178.472198 119.782102 
L 178.829803 117.035991 
L 178.949005 117.70116 
L 179.30661 123.415642 
L 179.425811 123.321762 
L 179.545013 123.384444 
L 179.664215 124.515169 
L 179.902618 131.710248 
L 180.02182 130.949795 
L 180.260223 121.171308 
L 180.379425 119.542698 
L 180.498626 119.437144 
L 180.73703 122.770633 
L 181.333038 136.103055 
L 181.690643 118.675014 
L 181.809844 117.375682 
L 181.929046 118.315442 
L 182.048248 122.449718 
L 182.167449 137.171688 
L 182.405853 121.747443 
L 182.525054 120.185857 
L 182.644256 120.599645 
L 182.763458 122.572405 
L 182.882659 126.762413 
L 183.001861 136.367838 
L 183.359466 124.394883 
L 183.478668 125.361438 
L 183.597869 128.636331 
L 183.717071 127.152258 
L 183.955474 119.479708 
L 184.193878 117.748262 
L 184.313079 118.147826 
L 184.432281 119.787607 
L 185.147491 139.233176 
L 185.266693 136.626136 
L 185.505096 127.750168 
L 185.624298 128.767396 
L 185.862701 138.59226 
L 186.101104 121.500391 
L 186.220306 120.932581 
L 186.458709 123.968433 
L 186.577911 123.151667 
L 186.697113 121.174156 
L 186.816314 121.992585 
L 186.935516 124.849557 
L 187.173919 119.704884 
L 187.293121 119.18388 
L 187.412323 120.010329 
L 187.531524 122.818262 
L 187.650726 120.832238 
L 187.769927 122.320482 
L 187.889129 125.330417 
L 188.008331 114.960991 
L 188.127532 114.590127 
L 188.246734 124.805712 
L 188.365936 118.639686 
L 188.485137 123.154978 
L 188.723541 111.983618 
L 188.842742 130.103314 
L 189.081146 103.645944 
L 189.200347 132.242735 
L 189.319549 99.556109 
L 189.438751 100.059207 
L 189.557952 98.686927 
L 189.677154 87.557525 
L 189.796356 91.381996 
L 190.153961 60.808242 
L 190.392364 54.710023 
L 190.511566 54.240467 
L 190.630767 55.34876 
L 190.869171 63.084098 
L 190.988372 71.294593 
L 191.107574 89.883924 
L 191.226776 87.544933 
L 191.345977 90.450398 
L 191.465179 125.224657 
L 191.584381 97.431147 
L 191.822784 109.355036 
L 191.941986 102.720813 
L 192.061187 108.448021 
L 192.180389 122.391926 
L 192.299591 115.81182 
L 192.418792 118.122179 
L 192.537994 110.134112 
L 192.657196 110.548279 
L 193.014801 130.425248 
L 193.253204 117.267935 
L 193.491607 128.075165 
L 193.610809 125.864987 
L 193.849212 120.578366 
L 194.087615 114.291465 
L 194.206817 113.554566 
L 194.326019 115.618804 
L 194.564422 122.708532 
L 194.802825 117.824765 
L 194.922027 117.466957 
L 195.16043 121.209326 
L 195.398834 125.559404 
L 195.637237 131.773565 
L 195.87564 124.825056 
L 196.114044 123.753857 
L 196.233245 123.487877 
L 196.829254 118.961304 
L 196.948455 118.954871 
L 197.30606 121.804175 
L 197.425262 123.165143 
L 197.663665 130.131009 
L 198.02127 124.54143 
L 198.140472 126.121263 
L 198.498077 133.122599 
L 199.094085 118.279284 
L 199.332489 115.932991 
L 199.45169 115.977945 
L 199.809295 118.290546 
L 200.047698 121.118585 
L 200.286102 124.337616 
L 200.524505 122.826126 
L 200.762908 119.306649 
L 201.001312 116.556152 
L 201.120513 117.238399 
L 201.239715 119.784656 
L 201.478118 134.245187 
L 201.716522 122.787955 
L 201.835723 121.931147 
L 201.954925 122.989411 
L 202.193328 129.484283 
L 202.31253 128.342678 
L 202.550933 122.390094 
L 202.670135 121.44117 
L 202.789337 121.620762 
L 203.02774 123.347587 
L 203.146942 122.487093 
L 203.504547 116.619084 
L 203.623748 115.907956 
L 203.74295 116.053515 
L 203.862152 117.27893 
L 203.981353 120.228705 
L 204.219757 134.464854 
L 204.45816 123.618405 
L 204.577362 124.011131 
L 204.696563 124.800856 
L 205.17337 122.455501 
L 205.769378 114.448726 
L 206.007782 112.53976 
L 206.126983 112.899806 
L 206.60379 117.304408 
L 206.842193 130.95006 
L 206.961395 121.578409 
L 207.080596 121.221599 
L 207.199798 122.09098 
L 207.676605 109.126858 
L 208.03421 115.36573 
L 208.153411 112.7782 
L 208.272613 113.306131 
L 208.391815 121.879356 
L 208.511016 108.581416 
L 208.630218 108.542684 
L 208.74942 116.590035 
L 208.868621 101.96146 
L 208.987823 104.977112 
L 209.226226 90.936905 
L 209.345428 99.988925 
L 209.583831 69.942194 
L 209.822235 60.14619 
L 210.060638 58.099375 
L 210.17984 59.466866 
L 210.418243 67.916107 
L 210.537445 76.923634 
L 210.656646 102.864357 
L 210.775848 90.96324 
L 210.89505 96.183785 
L 211.014251 109.125778 
L 211.133453 99.91378 
L 211.252655 105.835058 
L 211.371856 117.614741 
L 211.491058 111.06941 
L 211.61026 123.335135 
L 211.729461 113.197753 
L 211.848663 114.159496 
L 211.967865 142.175206 
L 212.087066 116.717889 
L 212.206268 117.08868 
L 212.444671 126.989082 
L 212.683074 120.019226 
L 212.802276 120.304699 
L 213.040679 126.371267 
L 213.279083 127.019833 
L 213.398284 124.11305 
L 213.517486 125.221753 
L 213.636688 131.617466 
L 214.113494 115.793009 
L 214.232696 115.646001 
L 214.471099 116.32159 
L 214.709503 115.400356 
L 214.828704 115.824471 
L 215.186309 120.324545 
L 215.424713 123.893607 
L 215.901519 117.552317 
L 216.020721 117.40522 
L 216.378326 116.151343 
L 216.497528 116.690328 
L 216.616729 118.467161 
L 216.735931 122.478476 
L 216.855133 131.64185 
L 216.974334 131.885201 
L 217.212738 125.001529 
L 217.451141 122.470505 
L 217.570343 122.686636 
L 217.808746 127.183559 
L 218.166351 119.267419 
L 218.523956 117.077512 
L 218.643157 117.359729 
L 218.881561 121.041873 
L 219.119964 125.63711 
L 219.239166 125.871401 
L 219.358367 127.74779 
L 219.477569 133.627624 
L 219.596771 153.654609 
L 219.835174 131.12415 
L 219.954376 131.319881 
L 220.192779 138.011975 
L 220.311981 135.998239 
L 220.669586 126.663119 
L 220.907989 124.800678 
L 221.146392 124.661487 
L 221.265594 124.981699 
L 221.503997 127.325258 
L 221.742401 130.342341 
L 221.861602 128.296361 
L 222.219207 116.655769 
L 222.338409 115.812309 
L 222.457611 116.830595 
L 222.696014 125.646891 
L 223.053619 118.128465 
L 223.172821 119.406725 
L 223.411224 127.434005 
L 223.649627 139.840308 
L 223.888031 128.088846 
L 224.126434 126.422143 
L 224.364837 129.787507 
L 224.722442 118.752102 
L 224.960845 117.03333 
L 225.080047 117.118066 
L 225.31845 118.979363 
L 225.556854 120.540946 
L 225.676055 120.436369 
L 225.795257 121.206308 
L 226.03366 126.021548 
L 226.272064 124.224633 
L 226.391265 123.189051 
L 226.510467 124.369969 
L 226.629669 132.148331 
L 226.74887 132.018291 
L 226.868072 127.090819 
L 226.987274 128.389566 
L 227.106475 132.513607 
L 227.225677 128.571694 
L 227.46408 115.513211 
L 227.583282 116.820688 
L 227.821685 114.500092 
L 228.17929 132.40266 
L 228.417694 104.1007 
L 228.536895 110.247393 
L 228.775299 95.744209 
L 228.8945 132.158918 
L 229.132904 73.46095 
L 229.371307 64.481547 
L 229.490509 62.922519 
L 229.60971 62.955898 
L 229.728912 64.586768 
L 229.967315 73.805683 
L 230.086517 83.833736 
L 230.205719 110.863591 
L 230.32492 94.995659 
L 230.563323 113.960021 
L 230.682525 106.555343 
L 230.801727 115.449221 
L 230.920928 115.001861 
L 231.04013 113.397369 
L 231.159332 118.684598 
L 231.278533 116.657091 
L 231.516937 118.897556 
L 231.636138 118.02779 
L 231.75534 120.009098 
L 231.993743 114.894817 
L 232.112945 115.690394 
L 232.351348 118.538481 
L 232.47055 118.437498 
L 232.589752 119.620763 
L 232.708953 124.029383 
L 232.828155 136.764445 
L 232.947357 137.576525 
L 233.781768 115.504804 
L 233.90097 114.899218 
L 234.020172 115.810598 
L 234.139373 118.72907 
L 234.377777 137.585541 
L 234.61618 120.702016 
L 234.735382 120.324189 
L 234.854583 122.269511 
L 235.092987 126.704443 
L 235.450592 119.434883 
L 235.688995 117.235514 
L 235.808197 117.592964 
L 236.0466 118.470347 
L 236.285003 117.636278 
L 236.404205 118.354208 
L 236.76181 123.657094 
L 236.881011 123.083392 
L 237.238616 116.155798 
L 237.357818 115.422059 
L 237.47702 115.510461 
L 237.596221 116.506275 
L 237.834625 123.105869 
L 237.953826 130.007093 
L 238.549835 115.470121 
L 238.788238 114.336768 
L 238.90744 114.48043 
L 239.026641 115.317886 
L 239.384246 121.368766 
L 239.384246 121.368766 
" clip-path="url(#p617f13fa0f)" style="fill: none; stroke: #4477aa; stroke-linecap: square"/>
   </g>
   <g id="patch_3">
    <path d="M 44.012725 152.589249 
L 44.012725 7.059249 
" style="fill: none; stroke: #000000; stroke-width: 0.5; stroke-linejoin: miter; stroke-linecap: square"/>
   </g>
   <g id="patch_4">
    <path d="M 239.312725 152.589249 
L 239.312725 7.059249 
" style="fill: none; stroke: #000000; stroke-width: 0.5; stroke-linejoin: miter; stroke-linecap: square"/>
   </g>
   <g id="patch_5">
    <path d="M 44.012725 152.589249 
L 239.312725 152.589249 
" style="fill: none; stroke: #000000; stroke-width: 0.5; stroke-linejoin: miter; stroke-linecap: square"/>
   </g>
   <g id="patch_6">
    <path d="M 44.012725 7.059249 
L 239.312725 7.059249 
" style="fill: none; stroke: #000000; stroke-width: 0.5; stroke-linejoin: miter; stroke-linecap: square"/>
   </g>
  </g>
 </g>
 <defs>
  <clipPath id="p617f13fa0f">
   <rect x="44.012725" y="7.059249" width="195.3" height="145.53"/>
  </clipPath>
 </defs>
</svg>
