<?xml version="1.0" encoding="utf-8" standalone="no"?>
<!DOCTYPE svg PUBLIC "-//W3C//DTD SVG 1.1//EN"
  "http://www.w3.org/Graphics/SVG/1.1/DTD/svg11.dtd">
<svg xmlns:xlink="http://www.w3.org/1999/xlink" width="249.277765pt" height="186.891106pt" viewBox="0 0 249.277765 186.891106" xmlns="http://www.w3.org/2000/svg" version="1.1">
 <metadata>
  <rdf:RDF xmlns:dc="http://purl.org/dc/elements/1.1/" xmlns:cc="http://creativecommons.org/ns#" xmlns:rdf="http://www.w3.org/1999/02/22-rdf-syntax-ns#">
   <cc:Work>
    <dc:type rdf:resource="http://purl.org/dc/dcmitype/StillImage"/>
    <dc:date>2025-03-14T12:24:24.736908</dc:date>
    <dc:format>image/svg+xml</dc:format>
    <dc:creator>
     <cc:Agent>
      <dc:title>Matplotlib v3.9.2, https://matplotlib.org/</dc:title>
     </cc:Agent>
    </dc:creator>
   </cc:Work>
  </rdf:RDF>
 </metadata>
 <defs>
  <style type="text/css">*{stroke-linejoin: round; stroke-linecap: butt}</style>
 </defs>
 <g id="figure_1">
  <g id="patch_1">
   <path d="M -0 186.891106 
L 249.277765 186.891106 
L 249.277765 0 
L -0 0 
L -0 186.891106 
z
" style="fill: none"/>
  </g>
  <g id="axes_1">
   <g id="patch_2">
    <path d="M 44.012725 152.589249 
L 239.312725 152.589249 
L 239.312725 7.059249 
L 44.012725 7.059249 
L 44.012725 152.589249 
z
" style="fill: none"/>
   </g>
   <g id="matplotlib.axis_1">
    <g id="xtick_1">
     <g id="line2d_1">
      <path d="M 44.012725 152.589249 
L 44.012725 7.059249 
" clip-path="url(#pa01120908c)" style="fill: none; stroke-dasharray: 1.85,0.8; stroke-dashoffset: 0; stroke: #000000; stroke-opacity: 0.5; stroke-width: 0.5"/>
     </g>
     <g id="line2d_2">
      <defs>
       <path id="m07fd0128a4" d="M 0 0 
L 0 -3 
" style="stroke: #000000; stroke-width: 0.5"/>
      </defs>
      <g>
       <use xlink:href="#m07fd0128a4" x="44.012725" y="152.589249" style="stroke: #000000; stroke-width: 0.5"/>
      </g>
     </g>
     <g id="line2d_3">
      <defs>
       <path id="m33d627bc39" d="M 0 0 
L 0 3 
" style="stroke: #000000; stroke-width: 0.5"/>
      </defs>
      <g>
       <use xlink:href="#m33d627bc39" x="44.012725" y="7.059249" style="stroke: #000000; stroke-width: 0.5"/>
      </g>
     </g>
     <g id="text_1">
      <!-- $\mathdefault{0.0}$ -->
      <g transform="translate(37.647686 163.007748) scale(0.1 -0.1)">
       <defs>
        <path id="CMR17-30" d="M 2688 2025 
C 2688 2416 2682 3080 2413 3591 
C 2176 4039 1798 4198 1466 4198 
C 1158 4198 768 4058 525 3597 
C 269 3118 243 2524 243 2025 
C 243 1661 250 1106 448 619 
C 723 -39 1216 -128 1466 -128 
C 1760 -128 2208 -7 2470 600 
C 2662 1042 2688 1559 2688 2025 
z
M 1466 -26 
C 1056 -26 813 325 723 812 
C 653 1188 653 1738 653 2096 
C 653 2588 653 2997 736 3387 
C 858 3929 1216 4096 1466 4096 
C 1728 4096 2067 3923 2189 3400 
C 2272 3036 2278 2607 2278 2096 
C 2278 1680 2278 1169 2202 792 
C 2067 95 1690 -26 1466 -26 
z
" transform="scale(0.015625)"/>
        <path id="CMMI12-3a" d="M 1178 307 
C 1178 492 1024 619 870 619 
C 685 619 557 466 557 313 
C 557 128 710 0 864 0 
C 1050 0 1178 153 1178 307 
z
" transform="scale(0.015625)"/>
       </defs>
       <use xlink:href="#CMR17-30" transform="scale(0.996264)"/>
       <use xlink:href="#CMMI12-3a" transform="translate(45.690477 0) scale(0.996264)"/>
       <use xlink:href="#CMR17-30" transform="translate(72.787654 0) scale(0.996264)"/>
      </g>
     </g>
    </g>
    <g id="xtick_2">
     <g id="line2d_4">
      <path d="M 76.562725 152.589249 
L 76.562725 7.059249 
" clip-path="url(#pa01120908c)" style="fill: none; stroke-dasharray: 1.85,0.8; stroke-dashoffset: 0; stroke: #000000; stroke-opacity: 0.5; stroke-width: 0.5"/>
     </g>
     <g id="line2d_5">
      <g>
       <use xlink:href="#m07fd0128a4" x="76.562725" y="152.589249" style="stroke: #000000; stroke-width: 0.5"/>
      </g>
     </g>
     <g id="line2d_6">
      <g>
       <use xlink:href="#m33d627bc39" x="76.562725" y="7.059249" style="stroke: #000000; stroke-width: 0.5"/>
      </g>
     </g>
     <g id="text_2">
      <!-- $\mathdefault{0.2}$ -->
      <g transform="translate(70.197686 163.007748) scale(0.1 -0.1)">
       <defs>
        <path id="CMR17-32" d="M 2669 989 
L 2554 989 
C 2490 536 2438 459 2413 420 
C 2381 369 1920 369 1830 369 
L 602 369 
C 832 619 1280 1072 1824 1597 
C 2214 1967 2669 2402 2669 3035 
C 2669 3790 2067 4224 1395 4224 
C 691 4224 262 3604 262 3030 
C 262 2780 448 2748 525 2748 
C 589 2748 781 2787 781 3010 
C 781 3207 614 3264 525 3264 
C 486 3264 448 3258 422 3245 
C 544 3790 915 4058 1306 4058 
C 1862 4058 2227 3617 2227 3035 
C 2227 2479 1901 2000 1536 1584 
L 262 146 
L 262 0 
L 2515 0 
L 2669 989 
z
" transform="scale(0.015625)"/>
       </defs>
       <use xlink:href="#CMR17-30" transform="scale(0.996264)"/>
       <use xlink:href="#CMMI12-3a" transform="translate(45.690477 0) scale(0.996264)"/>
       <use xlink:href="#CMR17-32" transform="translate(72.787654 0) scale(0.996264)"/>
      </g>
     </g>
    </g>
    <g id="xtick_3">
     <g id="line2d_7">
      <path d="M 109.112725 152.589249 
L 109.112725 7.059249 
" clip-path="url(#pa01120908c)" style="fill: none; stroke-dasharray: 1.85,0.8; stroke-dashoffset: 0; stroke: #000000; stroke-opacity: 0.5; stroke-width: 0.5"/>
     </g>
     <g id="line2d_8">
      <g>
       <use xlink:href="#m07fd0128a4" x="109.112725" y="152.589249" style="stroke: #000000; stroke-width: 0.5"/>
      </g>
     </g>
     <g id="line2d_9">
      <g>
       <use xlink:href="#m33d627bc39" x="109.112725" y="7.059249" style="stroke: #000000; stroke-width: 0.5"/>
      </g>
     </g>
     <g id="text_3">
      <!-- $\mathdefault{0.4}$ -->
      <g transform="translate(102.747686 163.007748) scale(0.1 -0.1)">
       <defs>
        <path id="CMR17-34" d="M 2150 4122 
C 2150 4256 2144 4256 2029 4256 
L 128 1254 
L 128 1088 
L 1779 1088 
L 1779 457 
C 1779 224 1766 160 1318 160 
L 1197 160 
L 1197 0 
C 1402 0 1747 0 1965 0 
C 2182 0 2528 0 2733 0 
L 2733 160 
L 2611 160 
C 2163 160 2150 224 2150 457 
L 2150 1088 
L 2803 1088 
L 2803 1254 
L 2150 1254 
L 2150 4122 
z
M 1798 3703 
L 1798 1254 
L 256 1254 
L 1798 3703 
z
" transform="scale(0.015625)"/>
       </defs>
       <use xlink:href="#CMR17-30" transform="scale(0.996264)"/>
       <use xlink:href="#CMMI12-3a" transform="translate(45.690477 0) scale(0.996264)"/>
       <use xlink:href="#CMR17-34" transform="translate(72.787654 0) scale(0.996264)"/>
      </g>
     </g>
    </g>
    <g id="xtick_4">
     <g id="line2d_10">
      <path d="M 141.662725 152.589249 
L 141.662725 7.059249 
" clip-path="url(#pa01120908c)" style="fill: none; stroke-dasharray: 1.85,0.8; stroke-dashoffset: 0; stroke: #000000; stroke-opacity: 0.5; stroke-width: 0.5"/>
     </g>
     <g id="line2d_11">
      <g>
       <use xlink:href="#m07fd0128a4" x="141.662725" y="152.589249" style="stroke: #000000; stroke-width: 0.5"/>
      </g>
     </g>
     <g id="line2d_12">
      <g>
       <use xlink:href="#m33d627bc39" x="141.662725" y="7.059249" style="stroke: #000000; stroke-width: 0.5"/>
      </g>
     </g>
     <g id="text_4">
      <!-- $\mathdefault{0.6}$ -->
      <g transform="translate(135.297686 163.007748) scale(0.1 -0.1)">
       <defs>
        <path id="CMR17-36" d="M 678 2176 
C 678 3690 1395 4032 1811 4032 
C 1946 4032 2272 4009 2400 3776 
C 2298 3776 2106 3776 2106 3553 
C 2106 3381 2246 3323 2336 3323 
C 2394 3323 2566 3348 2566 3560 
C 2566 3954 2246 4179 1805 4179 
C 1043 4179 243 3390 243 1984 
C 243 253 966 -128 1478 -128 
C 2099 -128 2688 427 2688 1283 
C 2688 2081 2170 2662 1517 2662 
C 1126 2662 838 2407 678 1960 
L 678 2176 
z
M 1478 25 
C 691 25 691 1200 691 1436 
C 691 1896 909 2560 1504 2560 
C 1613 2560 1926 2560 2138 2120 
C 2253 1870 2253 1609 2253 1289 
C 2253 944 2253 690 2118 434 
C 1978 171 1773 25 1478 25 
z
" transform="scale(0.015625)"/>
       </defs>
       <use xlink:href="#CMR17-30" transform="scale(0.996264)"/>
       <use xlink:href="#CMMI12-3a" transform="translate(45.690477 0) scale(0.996264)"/>
       <use xlink:href="#CMR17-36" transform="translate(72.787654 0) scale(0.996264)"/>
      </g>
     </g>
    </g>
    <g id="xtick_5">
     <g id="line2d_13">
      <path d="M 174.212725 152.589249 
L 174.212725 7.059249 
" clip-path="url(#pa01120908c)" style="fill: none; stroke-dasharray: 1.85,0.8; stroke-dashoffset: 0; stroke: #000000; stroke-opacity: 0.5; stroke-width: 0.5"/>
     </g>
     <g id="line2d_14">
      <g>
       <use xlink:href="#m07fd0128a4" x="174.212725" y="152.589249" style="stroke: #000000; stroke-width: 0.5"/>
      </g>
     </g>
     <g id="line2d_15">
      <g>
       <use xlink:href="#m33d627bc39" x="174.212725" y="7.059249" style="stroke: #000000; stroke-width: 0.5"/>
      </g>
     </g>
     <g id="text_5">
      <!-- $\mathdefault{0.8}$ -->
      <g transform="translate(167.847686 163.007748) scale(0.1 -0.1)">
       <defs>
        <path id="CMR17-38" d="M 1741 2264 
C 2144 2467 2554 2773 2554 3263 
C 2554 3841 1990 4179 1472 4179 
C 890 4179 378 3759 378 3180 
C 378 3021 416 2747 666 2505 
C 730 2442 998 2251 1171 2130 
C 883 1983 211 1634 211 934 
C 211 279 838 -128 1459 -128 
C 2144 -128 2720 362 2720 1010 
C 2720 1590 2330 1857 2074 2029 
L 1741 2264 
z
M 902 2822 
C 851 2854 595 3051 595 3351 
C 595 3739 998 4032 1459 4032 
C 1965 4032 2336 3676 2336 3262 
C 2336 2669 1670 2331 1638 2331 
C 1632 2331 1626 2331 1574 2370 
L 902 2822 
z
M 2080 1519 
C 2176 1449 2483 1240 2483 851 
C 2483 381 2010 25 1472 25 
C 890 25 448 438 448 940 
C 448 1443 838 1862 1280 2060 
L 2080 1519 
z
" transform="scale(0.015625)"/>
       </defs>
       <use xlink:href="#CMR17-30" transform="scale(0.996264)"/>
       <use xlink:href="#CMMI12-3a" transform="translate(45.690477 0) scale(0.996264)"/>
       <use xlink:href="#CMR17-38" transform="translate(72.787654 0) scale(0.996264)"/>
      </g>
     </g>
    </g>
    <g id="xtick_6">
     <g id="line2d_16">
      <path d="M 206.762725 152.589249 
L 206.762725 7.059249 
" clip-path="url(#pa01120908c)" style="fill: none; stroke-dasharray: 1.85,0.8; stroke-dashoffset: 0; stroke: #000000; stroke-opacity: 0.5; stroke-width: 0.5"/>
     </g>
     <g id="line2d_17">
      <g>
       <use xlink:href="#m07fd0128a4" x="206.762725" y="152.589249" style="stroke: #000000; stroke-width: 0.5"/>
      </g>
     </g>
     <g id="line2d_18">
      <g>
       <use xlink:href="#m33d627bc39" x="206.762725" y="7.059249" style="stroke: #000000; stroke-width: 0.5"/>
      </g>
     </g>
     <g id="text_6">
      <!-- $\mathdefault{1.0}$ -->
      <g transform="translate(200.397686 163.007748) scale(0.1 -0.1)">
       <defs>
        <path id="CMR17-31" d="M 1702 4058 
C 1702 4192 1696 4192 1606 4192 
C 1357 3916 979 3827 621 3827 
C 602 3827 570 3827 563 3808 
C 557 3795 557 3782 557 3648 
C 755 3648 1088 3686 1344 3839 
L 1344 461 
C 1344 236 1331 160 781 160 
L 589 160 
L 589 0 
C 896 0 1216 0 1523 0 
C 1830 0 2150 0 2458 0 
L 2458 160 
L 2266 160 
C 1715 160 1702 230 1702 458 
L 1702 4058 
z
" transform="scale(0.015625)"/>
       </defs>
       <use xlink:href="#CMR17-31" transform="scale(0.996264)"/>
       <use xlink:href="#CMMI12-3a" transform="translate(45.690477 0) scale(0.996264)"/>
       <use xlink:href="#CMR17-30" transform="translate(72.787654 0) scale(0.996264)"/>
      </g>
     </g>
    </g>
    <g id="xtick_7">
     <g id="line2d_19">
      <path d="M 239.312725 152.589249 
L 239.312725 7.059249 
" clip-path="url(#pa01120908c)" style="fill: none; stroke-dasharray: 1.85,0.8; stroke-dashoffset: 0; stroke: #000000; stroke-opacity: 0.5; stroke-width: 0.5"/>
     </g>
     <g id="line2d_20">
      <g>
       <use xlink:href="#m07fd0128a4" x="239.312725" y="152.589249" style="stroke: #000000; stroke-width: 0.5"/>
      </g>
     </g>
     <g id="line2d_21">
      <g>
       <use xlink:href="#m33d627bc39" x="239.312725" y="7.059249" style="stroke: #000000; stroke-width: 0.5"/>
      </g>
     </g>
     <g id="text_7">
      <!-- $\mathdefault{1.2}$ -->
      <g transform="translate(232.947686 163.007748) scale(0.1 -0.1)">
       <use xlink:href="#CMR17-31" transform="scale(0.996264)"/>
       <use xlink:href="#CMMI12-3a" transform="translate(45.690477 0) scale(0.996264)"/>
       <use xlink:href="#CMR17-32" transform="translate(72.787654 0) scale(0.996264)"/>
      </g>
     </g>
    </g>
    <g id="xtick_8">
     <g id="line2d_22">
      <defs>
       <path id="mb78d774440" d="M 0 0 
L 0 -1.5 
" style="stroke: #000000; stroke-width: 0.5"/>
      </defs>
      <g>
       <use xlink:href="#mb78d774440" x="52.150225" y="152.589249" style="stroke: #000000; stroke-width: 0.5"/>
      </g>
     </g>
     <g id="line2d_23">
      <defs>
       <path id="m5e7fe08f92" d="M 0 0 
L 0 1.5 
" style="stroke: #000000; stroke-width: 0.5"/>
      </defs>
      <g>
       <use xlink:href="#m5e7fe08f92" x="52.150225" y="7.059249" style="stroke: #000000; stroke-width: 0.5"/>
      </g>
     </g>
    </g>
    <g id="xtick_9">
     <g id="line2d_24">
      <g>
       <use xlink:href="#mb78d774440" x="60.287725" y="152.589249" style="stroke: #000000; stroke-width: 0.5"/>
      </g>
     </g>
     <g id="line2d_25">
      <g>
       <use xlink:href="#m5e7fe08f92" x="60.287725" y="7.059249" style="stroke: #000000; stroke-width: 0.5"/>
      </g>
     </g>
    </g>
    <g id="xtick_10">
     <g id="line2d_26">
      <g>
       <use xlink:href="#mb78d774440" x="68.425225" y="152.589249" style="stroke: #000000; stroke-width: 0.5"/>
      </g>
     </g>
     <g id="line2d_27">
      <g>
       <use xlink:href="#m5e7fe08f92" x="68.425225" y="7.059249" style="stroke: #000000; stroke-width: 0.5"/>
      </g>
     </g>
    </g>
    <g id="xtick_11">
     <g id="line2d_28">
      <g>
       <use xlink:href="#mb78d774440" x="84.700225" y="152.589249" style="stroke: #000000; stroke-width: 0.5"/>
      </g>
     </g>
     <g id="line2d_29">
      <g>
       <use xlink:href="#m5e7fe08f92" x="84.700225" y="7.059249" style="stroke: #000000; stroke-width: 0.5"/>
      </g>
     </g>
    </g>
    <g id="xtick_12">
     <g id="line2d_30">
      <g>
       <use xlink:href="#mb78d774440" x="92.837725" y="152.589249" style="stroke: #000000; stroke-width: 0.5"/>
      </g>
     </g>
     <g id="line2d_31">
      <g>
       <use xlink:href="#m5e7fe08f92" x="92.837725" y="7.059249" style="stroke: #000000; stroke-width: 0.5"/>
      </g>
     </g>
    </g>
    <g id="xtick_13">
     <g id="line2d_32">
      <g>
       <use xlink:href="#mb78d774440" x="100.975225" y="152.589249" style="stroke: #000000; stroke-width: 0.5"/>
      </g>
     </g>
     <g id="line2d_33">
      <g>
       <use xlink:href="#m5e7fe08f92" x="100.975225" y="7.059249" style="stroke: #000000; stroke-width: 0.5"/>
      </g>
     </g>
    </g>
    <g id="xtick_14">
     <g id="line2d_34">
      <g>
       <use xlink:href="#mb78d774440" x="117.250225" y="152.589249" style="stroke: #000000; stroke-width: 0.5"/>
      </g>
     </g>
     <g id="line2d_35">
      <g>
       <use xlink:href="#m5e7fe08f92" x="117.250225" y="7.059249" style="stroke: #000000; stroke-width: 0.5"/>
      </g>
     </g>
    </g>
    <g id="xtick_15">
     <g id="line2d_36">
      <g>
       <use xlink:href="#mb78d774440" x="125.387725" y="152.589249" style="stroke: #000000; stroke-width: 0.5"/>
      </g>
     </g>
     <g id="line2d_37">
      <g>
       <use xlink:href="#m5e7fe08f92" x="125.387725" y="7.059249" style="stroke: #000000; stroke-width: 0.5"/>
      </g>
     </g>
    </g>
    <g id="xtick_16">
     <g id="line2d_38">
      <g>
       <use xlink:href="#mb78d774440" x="133.525225" y="152.589249" style="stroke: #000000; stroke-width: 0.5"/>
      </g>
     </g>
     <g id="line2d_39">
      <g>
       <use xlink:href="#m5e7fe08f92" x="133.525225" y="7.059249" style="stroke: #000000; stroke-width: 0.5"/>
      </g>
     </g>
    </g>
    <g id="xtick_17">
     <g id="line2d_40">
      <g>
       <use xlink:href="#mb78d774440" x="149.800225" y="152.589249" style="stroke: #000000; stroke-width: 0.5"/>
      </g>
     </g>
     <g id="line2d_41">
      <g>
       <use xlink:href="#m5e7fe08f92" x="149.800225" y="7.059249" style="stroke: #000000; stroke-width: 0.5"/>
      </g>
     </g>
    </g>
    <g id="xtick_18">
     <g id="line2d_42">
      <g>
       <use xlink:href="#mb78d774440" x="157.937725" y="152.589249" style="stroke: #000000; stroke-width: 0.5"/>
      </g>
     </g>
     <g id="line2d_43">
      <g>
       <use xlink:href="#m5e7fe08f92" x="157.937725" y="7.059249" style="stroke: #000000; stroke-width: 0.5"/>
      </g>
     </g>
    </g>
    <g id="xtick_19">
     <g id="line2d_44">
      <g>
       <use xlink:href="#mb78d774440" x="166.075225" y="152.589249" style="stroke: #000000; stroke-width: 0.5"/>
      </g>
     </g>
     <g id="line2d_45">
      <g>
       <use xlink:href="#m5e7fe08f92" x="166.075225" y="7.059249" style="stroke: #000000; stroke-width: 0.5"/>
      </g>
     </g>
    </g>
    <g id="xtick_20">
     <g id="line2d_46">
      <g>
       <use xlink:href="#mb78d774440" x="182.350225" y="152.589249" style="stroke: #000000; stroke-width: 0.5"/>
      </g>
     </g>
     <g id="line2d_47">
      <g>
       <use xlink:href="#m5e7fe08f92" x="182.350225" y="7.059249" style="stroke: #000000; stroke-width: 0.5"/>
      </g>
     </g>
    </g>
    <g id="xtick_21">
     <g id="line2d_48">
      <g>
       <use xlink:href="#mb78d774440" x="190.487725" y="152.589249" style="stroke: #000000; stroke-width: 0.5"/>
      </g>
     </g>
     <g id="line2d_49">
      <g>
       <use xlink:href="#m5e7fe08f92" x="190.487725" y="7.059249" style="stroke: #000000; stroke-width: 0.5"/>
      </g>
     </g>
    </g>
    <g id="xtick_22">
     <g id="line2d_50">
      <g>
       <use xlink:href="#mb78d774440" x="198.625225" y="152.589249" style="stroke: #000000; stroke-width: 0.5"/>
      </g>
     </g>
     <g id="line2d_51">
      <g>
       <use xlink:href="#m5e7fe08f92" x="198.625225" y="7.059249" style="stroke: #000000; stroke-width: 0.5"/>
      </g>
     </g>
    </g>
    <g id="xtick_23">
     <g id="line2d_52">
      <g>
       <use xlink:href="#mb78d774440" x="214.900225" y="152.589249" style="stroke: #000000; stroke-width: 0.5"/>
      </g>
     </g>
     <g id="line2d_53">
      <g>
       <use xlink:href="#m5e7fe08f92" x="214.900225" y="7.059249" style="stroke: #000000; stroke-width: 0.5"/>
      </g>
     </g>
    </g>
    <g id="xtick_24">
     <g id="line2d_54">
      <g>
       <use xlink:href="#mb78d774440" x="223.037725" y="152.589249" style="stroke: #000000; stroke-width: 0.5"/>
      </g>
     </g>
     <g id="line2d_55">
      <g>
       <use xlink:href="#m5e7fe08f92" x="223.037725" y="7.059249" style="stroke: #000000; stroke-width: 0.5"/>
      </g>
     </g>
    </g>
    <g id="xtick_25">
     <g id="line2d_56">
      <g>
       <use xlink:href="#mb78d774440" x="231.175225" y="152.589249" style="stroke: #000000; stroke-width: 0.5"/>
      </g>
     </g>
     <g id="line2d_57">
      <g>
       <use xlink:href="#m5e7fe08f92" x="231.175225" y="7.059249" style="stroke: #000000; stroke-width: 0.5"/>
      </g>
     </g>
    </g>
    <g id="text_8">
     <!-- $f$ [MHz] -->
     <g transform="translate(116.369118 179.704565) scale(0.144 -0.144)">
      <defs>
       <path id="CMMI12-66" d="M 2854 2566 
C 2982 2566 3034 2566 3034 2688 
C 3034 2752 2982 2752 2867 2752 
L 2349 2752 
C 2470 3429 2560 3897 2611 4107 
C 2650 4265 2784 4416 2950 4416 
C 3085 4416 3219 4358 3283 4298 
C 3034 4272 2957 4082 2957 3969 
C 2957 3837 3053 3759 3174 3759 
C 3302 3759 3494 3870 3494 4119 
C 3494 4393 3226 4544 2944 4544 
C 2669 4544 2400 4334 2272 4078 
C 2157 3848 2093 3611 1946 2752 
L 1517 2752 
C 1395 2752 1331 2752 1331 2637 
C 1331 2566 1370 2566 1498 2566 
L 1907 2566 
C 1792 1976 1530 542 1382 -137 
C 1274 -689 1178 -1152 858 -1152 
C 838 -1152 653 -1152 538 -1031 
C 864 -1005 864 -726 864 -720 
C 864 -593 768 -517 646 -517 
C 518 -517 326 -625 326 -867 
C 326 -1140 608 -1280 858 -1280 
C 1510 -1280 1779 -118 1850 199 
C 1965 688 2278 2376 2310 2566 
L 2854 2566 
z
" transform="scale(0.015625)"/>
       <path id="CMR17-5b" d="M 1504 -1600 
L 1504 -1377 
L 902 -1377 
L 902 4544 
L 1504 4544 
L 1504 4767 
L 678 4767 
L 678 -1600 
L 1504 -1600 
z
" transform="scale(0.015625)"/>
       <path id="CMR17-4d" d="M 1338 4224 
C 1299 4320 1293 4320 1158 4320 
L 339 4320 
L 339 4160 
C 781 4160 851 4160 851 3875 
L 851 610 
C 851 451 851 153 339 153 
L 339 -13 
C 486 0 755 0 915 0 
C 1075 0 1344 0 1491 -13 
L 1491 153 
C 979 153 979 451 979 610 
L 979 4135 
L 986 4135 
L 2490 89 
C 2515 25 2528 -13 2579 -13 
C 2630 -13 2643 25 2669 89 
L 4186 4166 
L 4192 4166 
L 4192 438 
C 4192 153 4122 153 3680 153 
L 3680 -13 
C 3853 0 4198 0 4384 0 
C 4570 0 4922 0 5094 -13 
L 5094 153 
C 4653 153 4582 153 4582 438 
L 4582 3875 
C 4582 4160 4653 4160 5094 4160 
L 5094 4320 
L 4282 4320 
C 4147 4320 4141 4314 4102 4218 
L 2720 502 
L 1338 4224 
z
" transform="scale(0.015625)"/>
       <path id="CMR17-48" d="M 3590 3905 
C 3590 4192 3661 4192 4102 4192 
L 4102 4352 
C 3917 4352 3578 4352 3379 4352 
C 3181 4352 2842 4352 2656 4352 
L 2656 4192 
C 3098 4192 3168 4192 3168 3904 
L 3168 2341 
L 1261 2341 
L 1261 3904 
C 1261 4192 1331 4192 1773 4192 
L 1773 4352 
C 1587 4352 1248 4352 1050 4352 
C 851 4352 512 4352 326 4352 
L 326 4192 
C 768 4192 838 4192 838 3905 
L 838 447 
C 838 160 768 160 326 160 
L 326 0 
C 512 0 851 0 1050 0 
C 1248 0 1587 0 1773 0 
L 1773 160 
C 1331 160 1261 160 1261 446 
L 1261 2176 
L 3168 2176 
L 3168 446 
C 3168 160 3098 160 2656 160 
L 2656 0 
C 2842 0 3181 0 3379 0 
C 3578 0 3917 0 4102 0 
L 4102 160 
C 3661 160 3590 160 3590 447 
L 3590 3905 
z
" transform="scale(0.015625)"/>
       <path id="CMR17-7a" d="M 2310 2605 
C 2362 2670 2362 2682 2362 2695 
C 2362 2752 2336 2752 2221 2752 
L 275 2752 
L 211 1760 
L 326 1760 
C 371 2381 442 2650 1178 2650 
L 1958 2650 
L 128 96 
C 128 0 134 0 269 0 
L 2291 0 
L 2381 1152 
L 2266 1152 
C 2214 442 2131 115 1350 115 
L 531 115 
L 2310 2605 
z
" transform="scale(0.015625)"/>
       <path id="CMR17-5d" d="M 915 4767 
L 90 4767 
L 90 4544 
L 691 4544 
L 691 -1377 
L 90 -1377 
L 90 -1600 
L 915 -1600 
L 915 4767 
z
" transform="scale(0.015625)"/>
      </defs>
      <use xlink:href="#CMMI12-66" transform="scale(0.996264)"/>
      <use xlink:href="#CMR17-5b" transform="translate(88.796271 0) scale(0.996264)"/>
      <use xlink:href="#CMR17-4d" transform="translate(113.66733 0) scale(0.996264)"/>
      <use xlink:href="#CMR17-48" transform="translate(198.35427 0) scale(0.996264)"/>
      <use xlink:href="#CMR17-7a" transform="translate(267.4267 0) scale(0.996264)"/>
      <use xlink:href="#CMR17-5d" transform="translate(307.912361 0) scale(0.996264)"/>
     </g>
    </g>
   </g>
   <g id="matplotlib.axis_2">
    <g id="ytick_1">
     <g id="line2d_58">
      <path d="M 44.012725 152.589249 
L 239.312725 152.589249 
" clip-path="url(#pa01120908c)" style="fill: none; stroke-dasharray: 1.85,0.8; stroke-dashoffset: 0; stroke: #000000; stroke-opacity: 0.5; stroke-width: 0.5"/>
     </g>
     <g id="line2d_59">
      <defs>
       <path id="m58c55f6c0d" d="M 0 0 
L 3 0 
" style="stroke: #000000; stroke-width: 0.5"/>
      </defs>
      <g>
       <use xlink:href="#m58c55f6c0d" x="44.012725" y="152.589249" style="stroke: #000000; stroke-width: 0.5"/>
      </g>
     </g>
     <g id="line2d_60">
      <defs>
       <path id="m0690ca8cf8" d="M 0 0 
L -3 0 
" style="stroke: #000000; stroke-width: 0.5"/>
      </defs>
      <g>
       <use xlink:href="#m0690ca8cf8" x="239.312725" y="152.589249" style="stroke: #000000; stroke-width: 0.5"/>
      </g>
     </g>
     <g id="text_9">
      <!-- $\mathdefault{10^{-3}}$ -->
      <g transform="translate(20.352152 156.048498) scale(0.1 -0.1)">
       <defs>
        <path id="CMSY10-0" d="M 4218 1472 
C 4326 1472 4442 1472 4442 1600 
C 4442 1728 4326 1728 4218 1728 
L 755 1728 
C 646 1728 531 1728 531 1600 
C 531 1472 646 1472 755 1472 
L 4218 1472 
z
" transform="scale(0.015625)"/>
        <path id="CMR17-33" d="M 1414 2157 
C 1984 2157 2234 1662 2234 1090 
C 2234 320 1824 25 1453 25 
C 1114 25 563 194 390 693 
C 422 680 454 680 486 680 
C 640 680 755 782 755 948 
C 755 1133 614 1216 486 1216 
C 378 1216 211 1165 211 926 
C 211 335 787 -128 1466 -128 
C 2176 -128 2720 430 2720 1085 
C 2720 1707 2208 2157 1600 2227 
C 2086 2328 2554 2756 2554 3329 
C 2554 3820 2048 4179 1472 4179 
C 890 4179 378 3829 378 3329 
C 378 3110 544 3072 627 3072 
C 762 3072 877 3155 877 3321 
C 877 3486 762 3569 627 3569 
C 602 3569 570 3569 544 3557 
C 730 3959 1235 4032 1459 4032 
C 1683 4032 2106 3925 2106 3320 
C 2106 3143 2080 2828 1862 2550 
C 1670 2304 1453 2304 1242 2284 
C 1210 2284 1062 2269 1037 2269 
C 992 2263 966 2257 966 2208 
C 966 2163 973 2157 1101 2157 
L 1414 2157 
z
" transform="scale(0.015625)"/>
       </defs>
       <use xlink:href="#CMR17-31" transform="scale(0.996264)"/>
       <use xlink:href="#CMR17-30" transform="translate(45.690477 0) scale(0.996264)"/>
       <use xlink:href="#CMSY10-0" transform="translate(91.380954 36.153639) scale(0.697382)"/>
       <use xlink:href="#CMR17-33" transform="translate(145.621947 36.153639) scale(0.697382)"/>
      </g>
     </g>
    </g>
    <g id="ytick_2">
     <g id="line2d_61">
      <path d="M 44.012725 131.799249 
L 239.312725 131.799249 
" clip-path="url(#pa01120908c)" style="fill: none; stroke-dasharray: 1.85,0.8; stroke-dashoffset: 0; stroke: #000000; stroke-opacity: 0.5; stroke-width: 0.5"/>
     </g>
     <g id="line2d_62">
      <g>
       <use xlink:href="#m58c55f6c0d" x="44.012725" y="131.799249" style="stroke: #000000; stroke-width: 0.5"/>
      </g>
     </g>
     <g id="line2d_63">
      <g>
       <use xlink:href="#m0690ca8cf8" x="239.312725" y="131.799249" style="stroke: #000000; stroke-width: 0.5"/>
      </g>
     </g>
     <g id="text_10">
      <!-- $\mathdefault{10^{-2}}$ -->
      <g transform="translate(20.352152 135.258498) scale(0.1 -0.1)">
       <use xlink:href="#CMR17-31" transform="scale(0.996264)"/>
       <use xlink:href="#CMR17-30" transform="translate(45.690477 0) scale(0.996264)"/>
       <use xlink:href="#CMSY10-0" transform="translate(91.380954 36.153639) scale(0.697382)"/>
       <use xlink:href="#CMR17-32" transform="translate(145.621947 36.153639) scale(0.697382)"/>
      </g>
     </g>
    </g>
    <g id="ytick_3">
     <g id="line2d_64">
      <path d="M 44.012725 111.009249 
L 239.312725 111.009249 
" clip-path="url(#pa01120908c)" style="fill: none; stroke-dasharray: 1.85,0.8; stroke-dashoffset: 0; stroke: #000000; stroke-opacity: 0.5; stroke-width: 0.5"/>
     </g>
     <g id="line2d_65">
      <g>
       <use xlink:href="#m58c55f6c0d" x="44.012725" y="111.009249" style="stroke: #000000; stroke-width: 0.5"/>
      </g>
     </g>
     <g id="line2d_66">
      <g>
       <use xlink:href="#m0690ca8cf8" x="239.312725" y="111.009249" style="stroke: #000000; stroke-width: 0.5"/>
      </g>
     </g>
     <g id="text_11">
      <!-- $\mathdefault{10^{-1}}$ -->
      <g transform="translate(20.352152 114.468498) scale(0.1 -0.1)">
       <use xlink:href="#CMR17-31" transform="scale(0.996264)"/>
       <use xlink:href="#CMR17-30" transform="translate(45.690477 0) scale(0.996264)"/>
       <use xlink:href="#CMSY10-0" transform="translate(91.380954 36.153639) scale(0.697382)"/>
       <use xlink:href="#CMR17-31" transform="translate(145.621947 36.153639) scale(0.697382)"/>
      </g>
     </g>
    </g>
    <g id="ytick_4">
     <g id="line2d_67">
      <path d="M 44.012725 90.219249 
L 239.312725 90.219249 
" clip-path="url(#pa01120908c)" style="fill: none; stroke-dasharray: 1.85,0.8; stroke-dashoffset: 0; stroke: #000000; stroke-opacity: 0.5; stroke-width: 0.5"/>
     </g>
     <g id="line2d_68">
      <g>
       <use xlink:href="#m58c55f6c0d" x="44.012725" y="90.219249" style="stroke: #000000; stroke-width: 0.5"/>
      </g>
     </g>
     <g id="line2d_69">
      <g>
       <use xlink:href="#m0690ca8cf8" x="239.312725" y="90.219249" style="stroke: #000000; stroke-width: 0.5"/>
      </g>
     </g>
     <g id="text_12">
      <!-- $\mathdefault{10^{0}}$ -->
      <g transform="translate(26.578817 93.678498) scale(0.1 -0.1)">
       <use xlink:href="#CMR17-31" transform="scale(0.996264)"/>
       <use xlink:href="#CMR17-30" transform="translate(45.690477 0) scale(0.996264)"/>
       <use xlink:href="#CMR17-30" transform="translate(91.380954 36.153639) scale(0.697382)"/>
      </g>
     </g>
    </g>
    <g id="ytick_5">
     <g id="line2d_70">
      <path d="M 44.012725 69.429249 
L 239.312725 69.429249 
" clip-path="url(#pa01120908c)" style="fill: none; stroke-dasharray: 1.85,0.8; stroke-dashoffset: 0; stroke: #000000; stroke-opacity: 0.5; stroke-width: 0.5"/>
     </g>
     <g id="line2d_71">
      <g>
       <use xlink:href="#m58c55f6c0d" x="44.012725" y="69.429249" style="stroke: #000000; stroke-width: 0.5"/>
      </g>
     </g>
     <g id="line2d_72">
      <g>
       <use xlink:href="#m0690ca8cf8" x="239.312725" y="69.429249" style="stroke: #000000; stroke-width: 0.5"/>
      </g>
     </g>
     <g id="text_13">
      <!-- $\mathdefault{10^{1}}$ -->
      <g transform="translate(26.578817 72.888498) scale(0.1 -0.1)">
       <use xlink:href="#CMR17-31" transform="scale(0.996264)"/>
       <use xlink:href="#CMR17-30" transform="translate(45.690477 0) scale(0.996264)"/>
       <use xlink:href="#CMR17-31" transform="translate(91.380954 36.153639) scale(0.697382)"/>
      </g>
     </g>
    </g>
    <g id="ytick_6">
     <g id="line2d_73">
      <path d="M 44.012725 48.639249 
L 239.312725 48.639249 
" clip-path="url(#pa01120908c)" style="fill: none; stroke-dasharray: 1.85,0.8; stroke-dashoffset: 0; stroke: #000000; stroke-opacity: 0.5; stroke-width: 0.5"/>
     </g>
     <g id="line2d_74">
      <g>
       <use xlink:href="#m58c55f6c0d" x="44.012725" y="48.639249" style="stroke: #000000; stroke-width: 0.5"/>
      </g>
     </g>
     <g id="line2d_75">
      <g>
       <use xlink:href="#m0690ca8cf8" x="239.312725" y="48.639249" style="stroke: #000000; stroke-width: 0.5"/>
      </g>
     </g>
     <g id="text_14">
      <!-- $\mathdefault{10^{2}}$ -->
      <g transform="translate(26.578817 52.098498) scale(0.1 -0.1)">
       <use xlink:href="#CMR17-31" transform="scale(0.996264)"/>
       <use xlink:href="#CMR17-30" transform="translate(45.690477 0) scale(0.996264)"/>
       <use xlink:href="#CMR17-32" transform="translate(91.380954 36.153639) scale(0.697382)"/>
      </g>
     </g>
    </g>
    <g id="ytick_7">
     <g id="line2d_76">
      <path d="M 44.012725 27.849249 
L 239.312725 27.849249 
" clip-path="url(#pa01120908c)" style="fill: none; stroke-dasharray: 1.85,0.8; stroke-dashoffset: 0; stroke: #000000; stroke-opacity: 0.5; stroke-width: 0.5"/>
     </g>
     <g id="line2d_77">
      <g>
       <use xlink:href="#m58c55f6c0d" x="44.012725" y="27.849249" style="stroke: #000000; stroke-width: 0.5"/>
      </g>
     </g>
     <g id="line2d_78">
      <g>
       <use xlink:href="#m0690ca8cf8" x="239.312725" y="27.849249" style="stroke: #000000; stroke-width: 0.5"/>
      </g>
     </g>
     <g id="text_15">
      <!-- $\mathdefault{10^{3}}$ -->
      <g transform="translate(26.578817 31.308498) scale(0.1 -0.1)">
       <use xlink:href="#CMR17-31" transform="scale(0.996264)"/>
       <use xlink:href="#CMR17-30" transform="translate(45.690477 0) scale(0.996264)"/>
       <use xlink:href="#CMR17-33" transform="translate(91.380954 36.153639) scale(0.697382)"/>
      </g>
     </g>
    </g>
    <g id="ytick_8">
     <g id="line2d_79">
      <path d="M 44.012725 7.059249 
L 239.312725 7.059249 
" clip-path="url(#pa01120908c)" style="fill: none; stroke-dasharray: 1.85,0.8; stroke-dashoffset: 0; stroke: #000000; stroke-opacity: 0.5; stroke-width: 0.5"/>
     </g>
     <g id="line2d_80">
      <g>
       <use xlink:href="#m58c55f6c0d" x="44.012725" y="7.059249" style="stroke: #000000; stroke-width: 0.5"/>
      </g>
     </g>
     <g id="line2d_81">
      <g>
       <use xlink:href="#m0690ca8cf8" x="239.312725" y="7.059249" style="stroke: #000000; stroke-width: 0.5"/>
      </g>
     </g>
     <g id="text_16">
      <!-- $\mathdefault{10^{4}}$ -->
      <g transform="translate(26.578817 10.518498) scale(0.1 -0.1)">
       <use xlink:href="#CMR17-31" transform="scale(0.996264)"/>
       <use xlink:href="#CMR17-30" transform="translate(45.690477 0) scale(0.996264)"/>
       <use xlink:href="#CMR17-34" transform="translate(91.380954 36.153639) scale(0.697382)"/>
      </g>
     </g>
    </g>
    <g id="ytick_9">
     <g id="line2d_82">
      <defs>
       <path id="m8e329fd68b" d="M 0 0 
L 1.5 0 
" style="stroke: #000000; stroke-width: 0.5"/>
      </defs>
      <g>
       <use xlink:href="#m8e329fd68b" x="44.012725" y="146.330836" style="stroke: #000000; stroke-width: 0.5"/>
      </g>
     </g>
     <g id="line2d_83">
      <defs>
       <path id="m67976e9860" d="M 0 0 
L -1.5 0 
" style="stroke: #000000; stroke-width: 0.5"/>
      </defs>
      <g>
       <use xlink:href="#m67976e9860" x="239.312725" y="146.330836" style="stroke: #000000; stroke-width: 0.5"/>
      </g>
     </g>
    </g>
    <g id="ytick_10">
     <g id="line2d_84">
      <g>
       <use xlink:href="#m8e329fd68b" x="44.012725" y="142.669898" style="stroke: #000000; stroke-width: 0.5"/>
      </g>
     </g>
     <g id="line2d_85">
      <g>
       <use xlink:href="#m67976e9860" x="239.312725" y="142.669898" style="stroke: #000000; stroke-width: 0.5"/>
      </g>
     </g>
    </g>
    <g id="ytick_11">
     <g id="line2d_86">
      <g>
       <use xlink:href="#m8e329fd68b" x="44.012725" y="140.072422" style="stroke: #000000; stroke-width: 0.5"/>
      </g>
     </g>
     <g id="line2d_87">
      <g>
       <use xlink:href="#m67976e9860" x="239.312725" y="140.072422" style="stroke: #000000; stroke-width: 0.5"/>
      </g>
     </g>
    </g>
    <g id="ytick_12">
     <g id="line2d_88">
      <g>
       <use xlink:href="#m8e329fd68b" x="44.012725" y="138.057663" style="stroke: #000000; stroke-width: 0.5"/>
      </g>
     </g>
     <g id="line2d_89">
      <g>
       <use xlink:href="#m67976e9860" x="239.312725" y="138.057663" style="stroke: #000000; stroke-width: 0.5"/>
      </g>
     </g>
    </g>
    <g id="ytick_13">
     <g id="line2d_90">
      <g>
       <use xlink:href="#m8e329fd68b" x="44.012725" y="136.411485" style="stroke: #000000; stroke-width: 0.5"/>
      </g>
     </g>
     <g id="line2d_91">
      <g>
       <use xlink:href="#m67976e9860" x="239.312725" y="136.411485" style="stroke: #000000; stroke-width: 0.5"/>
      </g>
     </g>
    </g>
    <g id="ytick_14">
     <g id="line2d_92">
      <g>
       <use xlink:href="#m8e329fd68b" x="44.012725" y="135.019661" style="stroke: #000000; stroke-width: 0.5"/>
      </g>
     </g>
     <g id="line2d_93">
      <g>
       <use xlink:href="#m67976e9860" x="239.312725" y="135.019661" style="stroke: #000000; stroke-width: 0.5"/>
      </g>
     </g>
    </g>
    <g id="ytick_15">
     <g id="line2d_94">
      <g>
       <use xlink:href="#m8e329fd68b" x="44.012725" y="133.814008" style="stroke: #000000; stroke-width: 0.5"/>
      </g>
     </g>
     <g id="line2d_95">
      <g>
       <use xlink:href="#m67976e9860" x="239.312725" y="133.814008" style="stroke: #000000; stroke-width: 0.5"/>
      </g>
     </g>
    </g>
    <g id="ytick_16">
     <g id="line2d_96">
      <g>
       <use xlink:href="#m8e329fd68b" x="44.012725" y="132.750547" style="stroke: #000000; stroke-width: 0.5"/>
      </g>
     </g>
     <g id="line2d_97">
      <g>
       <use xlink:href="#m67976e9860" x="239.312725" y="132.750547" style="stroke: #000000; stroke-width: 0.5"/>
      </g>
     </g>
    </g>
    <g id="ytick_17">
     <g id="line2d_98">
      <g>
       <use xlink:href="#m8e329fd68b" x="44.012725" y="125.540836" style="stroke: #000000; stroke-width: 0.5"/>
      </g>
     </g>
     <g id="line2d_99">
      <g>
       <use xlink:href="#m67976e9860" x="239.312725" y="125.540836" style="stroke: #000000; stroke-width: 0.5"/>
      </g>
     </g>
    </g>
    <g id="ytick_18">
     <g id="line2d_100">
      <g>
       <use xlink:href="#m8e329fd68b" x="44.012725" y="121.879898" style="stroke: #000000; stroke-width: 0.5"/>
      </g>
     </g>
     <g id="line2d_101">
      <g>
       <use xlink:href="#m67976e9860" x="239.312725" y="121.879898" style="stroke: #000000; stroke-width: 0.5"/>
      </g>
     </g>
    </g>
    <g id="ytick_19">
     <g id="line2d_102">
      <g>
       <use xlink:href="#m8e329fd68b" x="44.012725" y="119.282422" style="stroke: #000000; stroke-width: 0.5"/>
      </g>
     </g>
     <g id="line2d_103">
      <g>
       <use xlink:href="#m67976e9860" x="239.312725" y="119.282422" style="stroke: #000000; stroke-width: 0.5"/>
      </g>
     </g>
    </g>
    <g id="ytick_20">
     <g id="line2d_104">
      <g>
       <use xlink:href="#m8e329fd68b" x="44.012725" y="117.267663" style="stroke: #000000; stroke-width: 0.5"/>
      </g>
     </g>
     <g id="line2d_105">
      <g>
       <use xlink:href="#m67976e9860" x="239.312725" y="117.267663" style="stroke: #000000; stroke-width: 0.5"/>
      </g>
     </g>
    </g>
    <g id="ytick_21">
     <g id="line2d_106">
      <g>
       <use xlink:href="#m8e329fd68b" x="44.012725" y="115.621485" style="stroke: #000000; stroke-width: 0.5"/>
      </g>
     </g>
     <g id="line2d_107">
      <g>
       <use xlink:href="#m67976e9860" x="239.312725" y="115.621485" style="stroke: #000000; stroke-width: 0.5"/>
      </g>
     </g>
    </g>
    <g id="ytick_22">
     <g id="line2d_108">
      <g>
       <use xlink:href="#m8e329fd68b" x="44.012725" y="114.229661" style="stroke: #000000; stroke-width: 0.5"/>
      </g>
     </g>
     <g id="line2d_109">
      <g>
       <use xlink:href="#m67976e9860" x="239.312725" y="114.229661" style="stroke: #000000; stroke-width: 0.5"/>
      </g>
     </g>
    </g>
    <g id="ytick_23">
     <g id="line2d_110">
      <g>
       <use xlink:href="#m8e329fd68b" x="44.012725" y="113.024008" style="stroke: #000000; stroke-width: 0.5"/>
      </g>
     </g>
     <g id="line2d_111">
      <g>
       <use xlink:href="#m67976e9860" x="239.312725" y="113.024008" style="stroke: #000000; stroke-width: 0.5"/>
      </g>
     </g>
    </g>
    <g id="ytick_24">
     <g id="line2d_112">
      <g>
       <use xlink:href="#m8e329fd68b" x="44.012725" y="111.960547" style="stroke: #000000; stroke-width: 0.5"/>
      </g>
     </g>
     <g id="line2d_113">
      <g>
       <use xlink:href="#m67976e9860" x="239.312725" y="111.960547" style="stroke: #000000; stroke-width: 0.5"/>
      </g>
     </g>
    </g>
    <g id="ytick_25">
     <g id="line2d_114">
      <g>
       <use xlink:href="#m8e329fd68b" x="44.012725" y="104.750836" style="stroke: #000000; stroke-width: 0.5"/>
      </g>
     </g>
     <g id="line2d_115">
      <g>
       <use xlink:href="#m67976e9860" x="239.312725" y="104.750836" style="stroke: #000000; stroke-width: 0.5"/>
      </g>
     </g>
    </g>
    <g id="ytick_26">
     <g id="line2d_116">
      <g>
       <use xlink:href="#m8e329fd68b" x="44.012725" y="101.089898" style="stroke: #000000; stroke-width: 0.5"/>
      </g>
     </g>
     <g id="line2d_117">
      <g>
       <use xlink:href="#m67976e9860" x="239.312725" y="101.089898" style="stroke: #000000; stroke-width: 0.5"/>
      </g>
     </g>
    </g>
    <g id="ytick_27">
     <g id="line2d_118">
      <g>
       <use xlink:href="#m8e329fd68b" x="44.012725" y="98.492422" style="stroke: #000000; stroke-width: 0.5"/>
      </g>
     </g>
     <g id="line2d_119">
      <g>
       <use xlink:href="#m67976e9860" x="239.312725" y="98.492422" style="stroke: #000000; stroke-width: 0.5"/>
      </g>
     </g>
    </g>
    <g id="ytick_28">
     <g id="line2d_120">
      <g>
       <use xlink:href="#m8e329fd68b" x="44.012725" y="96.477663" style="stroke: #000000; stroke-width: 0.5"/>
      </g>
     </g>
     <g id="line2d_121">
      <g>
       <use xlink:href="#m67976e9860" x="239.312725" y="96.477663" style="stroke: #000000; stroke-width: 0.5"/>
      </g>
     </g>
    </g>
    <g id="ytick_29">
     <g id="line2d_122">
      <g>
       <use xlink:href="#m8e329fd68b" x="44.012725" y="94.831485" style="stroke: #000000; stroke-width: 0.5"/>
      </g>
     </g>
     <g id="line2d_123">
      <g>
       <use xlink:href="#m67976e9860" x="239.312725" y="94.831485" style="stroke: #000000; stroke-width: 0.5"/>
      </g>
     </g>
    </g>
    <g id="ytick_30">
     <g id="line2d_124">
      <g>
       <use xlink:href="#m8e329fd68b" x="44.012725" y="93.439661" style="stroke: #000000; stroke-width: 0.5"/>
      </g>
     </g>
     <g id="line2d_125">
      <g>
       <use xlink:href="#m67976e9860" x="239.312725" y="93.439661" style="stroke: #000000; stroke-width: 0.5"/>
      </g>
     </g>
    </g>
    <g id="ytick_31">
     <g id="line2d_126">
      <g>
       <use xlink:href="#m8e329fd68b" x="44.012725" y="92.234008" style="stroke: #000000; stroke-width: 0.5"/>
      </g>
     </g>
     <g id="line2d_127">
      <g>
       <use xlink:href="#m67976e9860" x="239.312725" y="92.234008" style="stroke: #000000; stroke-width: 0.5"/>
      </g>
     </g>
    </g>
    <g id="ytick_32">
     <g id="line2d_128">
      <g>
       <use xlink:href="#m8e329fd68b" x="44.012725" y="91.170547" style="stroke: #000000; stroke-width: 0.5"/>
      </g>
     </g>
     <g id="line2d_129">
      <g>
       <use xlink:href="#m67976e9860" x="239.312725" y="91.170547" style="stroke: #000000; stroke-width: 0.5"/>
      </g>
     </g>
    </g>
    <g id="ytick_33">
     <g id="line2d_130">
      <g>
       <use xlink:href="#m8e329fd68b" x="44.012725" y="83.960836" style="stroke: #000000; stroke-width: 0.5"/>
      </g>
     </g>
     <g id="line2d_131">
      <g>
       <use xlink:href="#m67976e9860" x="239.312725" y="83.960836" style="stroke: #000000; stroke-width: 0.5"/>
      </g>
     </g>
    </g>
    <g id="ytick_34">
     <g id="line2d_132">
      <g>
       <use xlink:href="#m8e329fd68b" x="44.012725" y="80.299898" style="stroke: #000000; stroke-width: 0.5"/>
      </g>
     </g>
     <g id="line2d_133">
      <g>
       <use xlink:href="#m67976e9860" x="239.312725" y="80.299898" style="stroke: #000000; stroke-width: 0.5"/>
      </g>
     </g>
    </g>
    <g id="ytick_35">
     <g id="line2d_134">
      <g>
       <use xlink:href="#m8e329fd68b" x="44.012725" y="77.702422" style="stroke: #000000; stroke-width: 0.5"/>
      </g>
     </g>
     <g id="line2d_135">
      <g>
       <use xlink:href="#m67976e9860" x="239.312725" y="77.702422" style="stroke: #000000; stroke-width: 0.5"/>
      </g>
     </g>
    </g>
    <g id="ytick_36">
     <g id="line2d_136">
      <g>
       <use xlink:href="#m8e329fd68b" x="44.012725" y="75.687663" style="stroke: #000000; stroke-width: 0.5"/>
      </g>
     </g>
     <g id="line2d_137">
      <g>
       <use xlink:href="#m67976e9860" x="239.312725" y="75.687663" style="stroke: #000000; stroke-width: 0.5"/>
      </g>
     </g>
    </g>
    <g id="ytick_37">
     <g id="line2d_138">
      <g>
       <use xlink:href="#m8e329fd68b" x="44.012725" y="74.041485" style="stroke: #000000; stroke-width: 0.5"/>
      </g>
     </g>
     <g id="line2d_139">
      <g>
       <use xlink:href="#m67976e9860" x="239.312725" y="74.041485" style="stroke: #000000; stroke-width: 0.5"/>
      </g>
     </g>
    </g>
    <g id="ytick_38">
     <g id="line2d_140">
      <g>
       <use xlink:href="#m8e329fd68b" x="44.012725" y="72.649661" style="stroke: #000000; stroke-width: 0.5"/>
      </g>
     </g>
     <g id="line2d_141">
      <g>
       <use xlink:href="#m67976e9860" x="239.312725" y="72.649661" style="stroke: #000000; stroke-width: 0.5"/>
      </g>
     </g>
    </g>
    <g id="ytick_39">
     <g id="line2d_142">
      <g>
       <use xlink:href="#m8e329fd68b" x="44.012725" y="71.444008" style="stroke: #000000; stroke-width: 0.5"/>
      </g>
     </g>
     <g id="line2d_143">
      <g>
       <use xlink:href="#m67976e9860" x="239.312725" y="71.444008" style="stroke: #000000; stroke-width: 0.5"/>
      </g>
     </g>
    </g>
    <g id="ytick_40">
     <g id="line2d_144">
      <g>
       <use xlink:href="#m8e329fd68b" x="44.012725" y="70.380547" style="stroke: #000000; stroke-width: 0.5"/>
      </g>
     </g>
     <g id="line2d_145">
      <g>
       <use xlink:href="#m67976e9860" x="239.312725" y="70.380547" style="stroke: #000000; stroke-width: 0.5"/>
      </g>
     </g>
    </g>
    <g id="ytick_41">
     <g id="line2d_146">
      <g>
       <use xlink:href="#m8e329fd68b" x="44.012725" y="63.170836" style="stroke: #000000; stroke-width: 0.5"/>
      </g>
     </g>
     <g id="line2d_147">
      <g>
       <use xlink:href="#m67976e9860" x="239.312725" y="63.170836" style="stroke: #000000; stroke-width: 0.5"/>
      </g>
     </g>
    </g>
    <g id="ytick_42">
     <g id="line2d_148">
      <g>
       <use xlink:href="#m8e329fd68b" x="44.012725" y="59.509898" style="stroke: #000000; stroke-width: 0.5"/>
      </g>
     </g>
     <g id="line2d_149">
      <g>
       <use xlink:href="#m67976e9860" x="239.312725" y="59.509898" style="stroke: #000000; stroke-width: 0.5"/>
      </g>
     </g>
    </g>
    <g id="ytick_43">
     <g id="line2d_150">
      <g>
       <use xlink:href="#m8e329fd68b" x="44.012725" y="56.912422" style="stroke: #000000; stroke-width: 0.5"/>
      </g>
     </g>
     <g id="line2d_151">
      <g>
       <use xlink:href="#m67976e9860" x="239.312725" y="56.912422" style="stroke: #000000; stroke-width: 0.5"/>
      </g>
     </g>
    </g>
    <g id="ytick_44">
     <g id="line2d_152">
      <g>
       <use xlink:href="#m8e329fd68b" x="44.012725" y="54.897663" style="stroke: #000000; stroke-width: 0.5"/>
      </g>
     </g>
     <g id="line2d_153">
      <g>
       <use xlink:href="#m67976e9860" x="239.312725" y="54.897663" style="stroke: #000000; stroke-width: 0.5"/>
      </g>
     </g>
    </g>
    <g id="ytick_45">
     <g id="line2d_154">
      <g>
       <use xlink:href="#m8e329fd68b" x="44.012725" y="53.251485" style="stroke: #000000; stroke-width: 0.5"/>
      </g>
     </g>
     <g id="line2d_155">
      <g>
       <use xlink:href="#m67976e9860" x="239.312725" y="53.251485" style="stroke: #000000; stroke-width: 0.5"/>
      </g>
     </g>
    </g>
    <g id="ytick_46">
     <g id="line2d_156">
      <g>
       <use xlink:href="#m8e329fd68b" x="44.012725" y="51.859661" style="stroke: #000000; stroke-width: 0.5"/>
      </g>
     </g>
     <g id="line2d_157">
      <g>
       <use xlink:href="#m67976e9860" x="239.312725" y="51.859661" style="stroke: #000000; stroke-width: 0.5"/>
      </g>
     </g>
    </g>
    <g id="ytick_47">
     <g id="line2d_158">
      <g>
       <use xlink:href="#m8e329fd68b" x="44.012725" y="50.654008" style="stroke: #000000; stroke-width: 0.5"/>
      </g>
     </g>
     <g id="line2d_159">
      <g>
       <use xlink:href="#m67976e9860" x="239.312725" y="50.654008" style="stroke: #000000; stroke-width: 0.5"/>
      </g>
     </g>
    </g>
    <g id="ytick_48">
     <g id="line2d_160">
      <g>
       <use xlink:href="#m8e329fd68b" x="44.012725" y="49.590547" style="stroke: #000000; stroke-width: 0.5"/>
      </g>
     </g>
     <g id="line2d_161">
      <g>
       <use xlink:href="#m67976e9860" x="239.312725" y="49.590547" style="stroke: #000000; stroke-width: 0.5"/>
      </g>
     </g>
    </g>
    <g id="ytick_49">
     <g id="line2d_162">
      <g>
       <use xlink:href="#m8e329fd68b" x="44.012725" y="42.380836" style="stroke: #000000; stroke-width: 0.5"/>
      </g>
     </g>
     <g id="line2d_163">
      <g>
       <use xlink:href="#m67976e9860" x="239.312725" y="42.380836" style="stroke: #000000; stroke-width: 0.5"/>
      </g>
     </g>
    </g>
    <g id="ytick_50">
     <g id="line2d_164">
      <g>
       <use xlink:href="#m8e329fd68b" x="44.012725" y="38.719898" style="stroke: #000000; stroke-width: 0.5"/>
      </g>
     </g>
     <g id="line2d_165">
      <g>
       <use xlink:href="#m67976e9860" x="239.312725" y="38.719898" style="stroke: #000000; stroke-width: 0.5"/>
      </g>
     </g>
    </g>
    <g id="ytick_51">
     <g id="line2d_166">
      <g>
       <use xlink:href="#m8e329fd68b" x="44.012725" y="36.122422" style="stroke: #000000; stroke-width: 0.5"/>
      </g>
     </g>
     <g id="line2d_167">
      <g>
       <use xlink:href="#m67976e9860" x="239.312725" y="36.122422" style="stroke: #000000; stroke-width: 0.5"/>
      </g>
     </g>
    </g>
    <g id="ytick_52">
     <g id="line2d_168">
      <g>
       <use xlink:href="#m8e329fd68b" x="44.012725" y="34.107663" style="stroke: #000000; stroke-width: 0.5"/>
      </g>
     </g>
     <g id="line2d_169">
      <g>
       <use xlink:href="#m67976e9860" x="239.312725" y="34.107663" style="stroke: #000000; stroke-width: 0.5"/>
      </g>
     </g>
    </g>
    <g id="ytick_53">
     <g id="line2d_170">
      <g>
       <use xlink:href="#m8e329fd68b" x="44.012725" y="32.461485" style="stroke: #000000; stroke-width: 0.5"/>
      </g>
     </g>
     <g id="line2d_171">
      <g>
       <use xlink:href="#m67976e9860" x="239.312725" y="32.461485" style="stroke: #000000; stroke-width: 0.5"/>
      </g>
     </g>
    </g>
    <g id="ytick_54">
     <g id="line2d_172">
      <g>
       <use xlink:href="#m8e329fd68b" x="44.012725" y="31.069661" style="stroke: #000000; stroke-width: 0.5"/>
      </g>
     </g>
     <g id="line2d_173">
      <g>
       <use xlink:href="#m67976e9860" x="239.312725" y="31.069661" style="stroke: #000000; stroke-width: 0.5"/>
      </g>
     </g>
    </g>
    <g id="ytick_55">
     <g id="line2d_174">
      <g>
       <use xlink:href="#m8e329fd68b" x="44.012725" y="29.864008" style="stroke: #000000; stroke-width: 0.5"/>
      </g>
     </g>
     <g id="line2d_175">
      <g>
       <use xlink:href="#m67976e9860" x="239.312725" y="29.864008" style="stroke: #000000; stroke-width: 0.5"/>
      </g>
     </g>
    </g>
    <g id="ytick_56">
     <g id="line2d_176">
      <g>
       <use xlink:href="#m8e329fd68b" x="44.012725" y="28.800547" style="stroke: #000000; stroke-width: 0.5"/>
      </g>
     </g>
     <g id="line2d_177">
      <g>
       <use xlink:href="#m67976e9860" x="239.312725" y="28.800547" style="stroke: #000000; stroke-width: 0.5"/>
      </g>
     </g>
    </g>
    <g id="ytick_57">
     <g id="line2d_178">
      <g>
       <use xlink:href="#m8e329fd68b" x="44.012725" y="21.590836" style="stroke: #000000; stroke-width: 0.5"/>
      </g>
     </g>
     <g id="line2d_179">
      <g>
       <use xlink:href="#m67976e9860" x="239.312725" y="21.590836" style="stroke: #000000; stroke-width: 0.5"/>
      </g>
     </g>
    </g>
    <g id="ytick_58">
     <g id="line2d_180">
      <g>
       <use xlink:href="#m8e329fd68b" x="44.012725" y="17.929898" style="stroke: #000000; stroke-width: 0.5"/>
      </g>
     </g>
     <g id="line2d_181">
      <g>
       <use xlink:href="#m67976e9860" x="239.312725" y="17.929898" style="stroke: #000000; stroke-width: 0.5"/>
      </g>
     </g>
    </g>
    <g id="ytick_59">
     <g id="line2d_182">
      <g>
       <use xlink:href="#m8e329fd68b" x="44.012725" y="15.332422" style="stroke: #000000; stroke-width: 0.5"/>
      </g>
     </g>
     <g id="line2d_183">
      <g>
       <use xlink:href="#m67976e9860" x="239.312725" y="15.332422" style="stroke: #000000; stroke-width: 0.5"/>
      </g>
     </g>
    </g>
    <g id="ytick_60">
     <g id="line2d_184">
      <g>
       <use xlink:href="#m8e329fd68b" x="44.012725" y="13.317663" style="stroke: #000000; stroke-width: 0.5"/>
      </g>
     </g>
     <g id="line2d_185">
      <g>
       <use xlink:href="#m67976e9860" x="239.312725" y="13.317663" style="stroke: #000000; stroke-width: 0.5"/>
      </g>
     </g>
    </g>
    <g id="ytick_61">
     <g id="line2d_186">
      <g>
       <use xlink:href="#m8e329fd68b" x="44.012725" y="11.671485" style="stroke: #000000; stroke-width: 0.5"/>
      </g>
     </g>
     <g id="line2d_187">
      <g>
       <use xlink:href="#m67976e9860" x="239.312725" y="11.671485" style="stroke: #000000; stroke-width: 0.5"/>
      </g>
     </g>
    </g>
    <g id="ytick_62">
     <g id="line2d_188">
      <g>
       <use xlink:href="#m8e329fd68b" x="44.012725" y="10.279661" style="stroke: #000000; stroke-width: 0.5"/>
      </g>
     </g>
     <g id="line2d_189">
      <g>
       <use xlink:href="#m67976e9860" x="239.312725" y="10.279661" style="stroke: #000000; stroke-width: 0.5"/>
      </g>
     </g>
    </g>
    <g id="ytick_63">
     <g id="line2d_190">
      <g>
       <use xlink:href="#m8e329fd68b" x="44.012725" y="9.074008" style="stroke: #000000; stroke-width: 0.5"/>
      </g>
     </g>
     <g id="line2d_191">
      <g>
       <use xlink:href="#m67976e9860" x="239.312725" y="9.074008" style="stroke: #000000; stroke-width: 0.5"/>
      </g>
     </g>
    </g>
    <g id="ytick_64">
     <g id="line2d_192">
      <g>
       <use xlink:href="#m8e329fd68b" x="44.012725" y="8.010547" style="stroke: #000000; stroke-width: 0.5"/>
      </g>
     </g>
     <g id="line2d_193">
      <g>
       <use xlink:href="#m67976e9860" x="239.312725" y="8.010547" style="stroke: #000000; stroke-width: 0.5"/>
      </g>
     </g>
    </g>
    <g id="text_17">
     <!-- $FFT$ -->
     <g transform="translate(13.562625 94.985154) rotate(-90) scale(0.144 -0.144)">
      <defs>
       <path id="CMMI12-46" d="M 1901 2055 
L 2515 2055 
C 3002 2055 3040 1946 3040 1761 
C 3040 1678 3027 1589 2995 1448 
C 2982 1423 2976 1391 2976 1378 
C 2976 1333 3002 1308 3046 1308 
C 3098 1308 3104 1333 3130 1435 
L 3501 2935 
C 3501 2961 3482 2999 3437 2999 
C 3379 2999 3373 2974 3347 2863 
C 3213 2376 3085 2240 2528 2240 
L 1946 2240 
L 2362 3926 
C 2419 4154 2432 4154 2694 4154 
L 3552 4154 
C 4352 4154 4467 3918 4467 3464 
C 4467 3426 4467 3285 4448 3119 
C 4442 3094 4429 3011 4429 2985 
C 4429 2934 4461 2915 4499 2915 
C 4544 2915 4570 2941 4582 3055 
L 4717 4174 
C 4717 4195 4730 4263 4730 4277 
C 4730 4352 4672 4352 4557 4352 
L 1523 4352 
C 1402 4352 1338 4352 1338 4229 
C 1338 4154 1382 4154 1491 4154 
C 1888 4154 1888 4113 1888 4050 
C 1888 4018 1882 3992 1862 3922 
L 998 473 
C 941 249 928 185 480 185 
C 358 185 294 185 294 70 
C 294 0 352 0 390 0 
C 512 0 640 0 762 0 
L 1594 0 
C 1734 0 1888 0 2029 0 
C 2086 0 2163 0 2163 115 
C 2163 185 2125 185 1984 185 
C 1478 185 1466 229 1466 324 
C 1466 356 1478 406 1491 449 
L 1901 2055 
z
" transform="scale(0.015625)"/>
       <path id="CMMI12-54" d="M 2669 3910 
C 2707 4064 2720 4121 2816 4147 
C 2867 4160 3078 4160 3213 4160 
C 3853 4160 4154 4134 4154 3634 
C 4154 3537 4128 3295 4090 3057 
L 4083 2980 
C 4083 2954 4109 2916 4147 2916 
C 4211 2916 4211 2948 4230 3050 
L 4416 4184 
C 4429 4243 4429 4256 4429 4275 
C 4429 4345 4390 4345 4262 4345 
L 762 4345 
C 614 4345 608 4339 570 4224 
L 179 3070 
C 173 3056 154 2986 154 2980 
C 154 2948 179 2916 218 2916 
C 269 2916 282 2941 307 3024 
C 576 3801 710 4160 1562 4160 
L 1990 4160 
C 2144 4160 2208 4160 2208 4089 
C 2208 4069 2208 4057 2176 3941 
L 1318 499 
C 1254 249 1242 185 563 185 
C 403 185 358 185 358 64 
C 358 0 429 0 461 0 
C 621 0 787 0 947 0 
L 1946 0 
C 2106 0 2278 0 2438 0 
C 2509 0 2573 0 2573 121 
C 2573 185 2528 185 2362 185 
C 1786 185 1786 243 1786 339 
C 1786 346 1786 391 1811 494 
L 2669 3910 
z
" transform="scale(0.015625)"/>
      </defs>
      <use xlink:href="#CMMI12-46" transform="scale(0.996264)"/>
      <use xlink:href="#CMMI12-46" transform="translate(76.696793 0) scale(0.996264)"/>
      <use xlink:href="#CMMI12-54" transform="translate(153.393585 0) scale(0.996264)"/>
     </g>
    </g>
   </g>
   <g id="line2d_194">
    <path d="M 44.012725 119.855799 
L 44.131927 116.006049 
L 44.251129 115.747626 
L 44.489532 123.230933 
L 44.727935 111.934607 
L 44.847137 111.278789 
L 45.08554 119.873936 
L 45.562347 113.43268 
L 45.80075 111.462151 
L 45.919952 115.25291 
L 46.039154 130.035149 
L 46.158355 130.550267 
L 46.396759 113.64649 
L 46.51596 112.943646 
L 46.873565 126.219629 
L 47.111969 109.103846 
L 47.23117 112.150966 
L 47.350372 120.661495 
L 47.827178 106.745821 
L 48.065582 114.409107 
L 48.184783 123.201261 
L 48.423187 107.437001 
L 48.542388 112.335109 
L 48.780792 106.693821 
L 48.899993 116.641912 
L 49.019195 113.847081 
L 49.138397 115.715146 
L 49.3768 104.114734 
L 49.496002 110.076603 
L 49.615203 109.649996 
L 49.734405 104.716707 
L 49.853607 133.730503 
L 49.972808 101.525355 
L 50.09201 100.388097 
L 50.211212 122.877577 
L 50.330413 101.656321 
L 50.449615 105.334401 
L 50.688018 94.914648 
L 50.80722 101.712726 
L 51.045623 93.54369 
L 51.164825 113.146198 
L 51.284027 91.55634 
L 51.403228 91.157754 
L 51.52243 100.280456 
L 51.641632 86.141505 
L 51.760833 89.42613 
L 51.880035 88.825396 
L 51.999237 81.084548 
L 52.118438 90.182131 
L 52.356842 75.481469 
L 52.476043 118.099941 
L 52.595245 70.450627 
L 52.714447 69.296528 
L 52.833648 73.447911 
L 52.95285 59.009453 
L 53.072052 60.336354 
L 53.66806 25.658225 
L 53.787261 24.997719 
L 53.906463 25.912146 
L 54.144866 33.13552 
L 54.264068 40.827636 
L 54.502471 58.832774 
L 54.621673 60.038704 
L 54.740875 81.678241 
L 54.860076 68.528326 
L 54.979278 71.808981 
L 55.09848 87.994282 
L 55.217681 75.336474 
L 55.456085 86.385048 
L 55.575286 81.405962 
L 55.694488 93.047801 
L 55.932891 86.542523 
L 56.052093 108.217339 
L 56.171295 90.842975 
L 56.290496 93.36819 
L 56.409698 103.447711 
L 56.5289 93.301222 
L 56.648101 100.312664 
L 56.767303 99.71323 
L 56.886505 95.887732 
L 57.005706 106.702477 
L 57.124908 100.951955 
L 57.24411 100.835053 
L 57.363311 118.561428 
L 57.482513 100.661862 
L 57.601715 103.427394 
L 57.720916 115.191436 
L 57.840118 103.783081 
L 58.078521 112.037046 
L 58.197723 108.400811 
L 58.316925 127.951537 
L 58.436126 106.618096 
L 58.555328 106.190033 
L 58.67453 109.669205 
L 58.793731 107.224644 
L 59.032135 110.564267 
L 59.151336 108.652047 
L 59.270538 115.281374 
L 59.38974 115.378843 
L 59.508941 110.755115 
L 59.628143 110.905815 
L 59.747344 109.291269 
L 59.866546 110.873688 
L 59.985748 117.051368 
L 60.104949 117.352954 
L 60.224151 124.08462 
L 60.462554 113.332183 
L 60.581756 116.766994 
L 60.700958 124.30293 
L 60.820159 124.464215 
L 61.058563 109.196519 
L 61.177764 109.433181 
L 61.535369 117.082859 
L 61.773773 122.867505 
L 62.012176 110.755153 
L 62.131378 110.816916 
L 62.369781 121.492826 
L 62.488983 120.225547 
L 62.727386 116.334391 
L 62.846588 118.932008 
L 63.084991 137.945577 
L 63.323394 116.128208 
L 63.680999 111.535768 
L 63.800201 111.505778 
L 64.038604 113.608118 
L 64.277008 111.616985 
L 64.396209 112.0532 
L 64.753814 120.997697 
L 64.873016 120.761863 
L 64.992218 120.526145 
L 65.111419 121.898178 
L 65.349823 119.781344 
L 65.469024 123.356084 
L 65.588226 136.253053 
L 65.826629 111.139944 
L 66.065032 107.213764 
L 66.184234 107.37865 
L 66.661041 111.413728 
L 66.899444 115.705245 
L 67.137847 124.125145 
L 67.495452 114.859848 
L 67.614654 115.179524 
L 67.972259 118.851076 
L 68.210662 116.517406 
L 68.329864 117.068188 
L 68.687469 123.626296 
L 68.925872 132.502147 
L 69.045074 129.35673 
L 69.164276 134.631392 
L 69.402679 122.523245 
L 69.521881 122.345924 
L 69.641082 128.948937 
L 69.760284 128.400353 
L 69.998687 111.973025 
L 70.237091 107.573549 
L 70.356292 107.771589 
L 70.594696 108.546691 
L 70.833099 108.942954 
L 70.952301 110.403163 
L 71.190704 120.558539 
L 71.309906 134.614498 
L 71.548309 114.505131 
L 71.667511 119.674003 
L 71.905914 107.212392 
L 72.025115 122.323727 
L 72.144317 104.913546 
L 72.263519 106.492585 
L 72.38272 101.503648 
L 72.501922 91.760395 
L 72.621124 96.242443 
L 72.978729 65.417343 
L 73.217132 59.457437 
L 73.336334 59.044458 
L 73.455535 60.207734 
L 73.693939 68.061489 
L 73.81314 76.34379 
L 73.932342 95.049506 
L 74.051544 92.625475 
L 74.170745 95.332765 
L 74.289947 110.233321 
L 74.409149 104.857218 
L 74.52835 110.572515 
L 74.766754 103.786904 
L 75.005157 117.277125 
L 75.124359 113.161332 
L 75.24356 117.558882 
L 75.362762 127.788906 
L 75.481964 125.556578 
L 75.720367 116.457384 
L 75.95877 122.159993 
L 76.197174 113.148679 
L 76.554779 109.680672 
L 76.67398 110.348071 
L 76.912384 116.292814 
L 77.38919 110.758065 
L 77.508392 112.050713 
L 77.627594 115.654966 
L 77.746795 125.306104 
L 77.865997 125.624694 
L 78.1044 115.20085 
L 78.223602 115.392749 
L 78.462005 120.958339 
L 78.581207 120.834995 
L 78.81961 112.416393 
L 78.938812 110.754598 
L 79.058013 110.895182 
L 79.177215 113.146046 
L 79.415618 123.366926 
L 79.654022 115.310285 
L 79.773223 115.375318 
L 80.011627 116.634265 
L 80.607635 110.122303 
L 80.726837 109.90404 
L 80.846038 110.131634 
L 81.203643 112.212463 
L 81.442047 110.702473 
L 81.561248 110.893424 
L 81.799652 113.381362 
L 81.918853 113.359339 
L 82.39566 108.068809 
L 82.514862 108.705437 
L 82.991668 112.868692 
L 83.11087 113.085963 
L 83.230072 112.638723 
L 83.706878 107.591581 
L 83.82608 108.023892 
L 84.183685 110.933198 
L 84.302886 110.613997 
L 84.54129 108.577297 
L 84.660491 108.58947 
L 84.779693 109.936167 
L 85.137298 122.056771 
L 85.375701 114.313777 
L 85.614105 112.107207 
L 85.733306 112.175559 
L 85.852508 113.109553 
L 86.210113 117.524884 
L 86.329315 117.027666 
L 86.448516 117.125581 
L 86.567718 118.765801 
L 86.68692 123.311909 
L 86.806121 138.237055 
L 87.044525 117.587242 
L 87.282928 112.753828 
L 87.40213 112.827794 
L 87.759735 119.377956 
L 87.878936 117.841204 
L 87.998138 117.872651 
L 88.11734 119.429256 
L 88.236541 118.64394 
L 88.594146 110.528074 
L 88.713348 109.803235 
L 88.83255 110.403659 
L 88.951751 112.957414 
L 89.190155 127.24873 
L 89.54776 110.701127 
L 89.666961 108.986415 
L 89.786163 109.027217 
L 90.143768 112.19107 
L 90.262969 112.38805 
L 90.382171 111.700175 
L 90.501373 112.191904 
L 90.739776 117.211492 
L 90.858978 115.873228 
L 91.097381 108.300742 
L 91.216583 117.224429 
L 91.335784 110.815887 
L 91.454986 111.655994 
L 91.574188 108.473227 
L 91.693389 98.804035 
L 91.812591 101.715211 
L 91.931793 99.22645 
L 92.050994 90.077711 
L 92.170196 102.236211 
L 92.408599 68.285332 
L 92.647003 58.709365 
L 92.885406 56.79672 
L 93.004608 58.232499 
L 93.243011 66.879642 
L 93.362213 76.128674 
L 93.481414 106.393815 
L 93.600616 89.587557 
L 93.839019 105.539151 
L 93.958221 98.741952 
L 94.196624 109.771936 
L 94.315826 105.458453 
L 94.673431 125.43804 
L 94.911834 110.622083 
L 95.031036 111.405962 
L 95.150238 114.626951 
L 95.269439 114.811246 
L 95.507843 111.961941 
L 95.746246 109.314909 
L 95.865448 108.87641 
L 95.984649 108.87578 
L 96.103851 109.524021 
L 96.223052 111.875668 
L 96.461456 129.240479 
L 96.580657 123.278249 
L 96.819061 131.565479 
L 97.057464 119.910535 
L 97.176666 121.366868 
L 97.295867 121.346228 
L 97.653472 112.286918 
L 97.772674 111.86837 
L 97.891876 112.446024 
L 98.249481 117.508854 
L 98.607086 110.685561 
L 98.726287 110.636741 
L 98.845489 112.192257 
L 99.203094 124.309106 
L 99.322296 120.842866 
L 99.441497 120.720712 
L 99.679901 123.154701 
L 100.156707 113.13721 
L 100.275909 115.023547 
L 100.395111 121.230643 
L 100.514312 135.82902 
L 100.752716 116.041133 
L 100.871917 115.226612 
L 100.991119 115.76859 
L 101.110321 117.059726 
L 101.229522 119.591853 
L 101.348724 127.005056 
L 101.467926 127.178117 
L 101.706329 111.039738 
L 101.944732 108.098484 
L 102.063934 109.205621 
L 102.421539 116.590543 
L 102.779144 112.142909 
L 102.898345 111.821821 
L 103.017547 112.015362 
L 103.136749 112.858144 
L 103.375152 117.162747 
L 103.613555 121.334085 
L 103.732757 122.698338 
L 103.851959 125.522086 
L 103.97116 124.167634 
L 104.209564 119.109322 
L 104.328765 120.374496 
L 104.567169 129.36339 
L 104.805572 115.610232 
L 105.043975 110.411187 
L 105.282379 109.375719 
L 105.40158 110.227355 
L 105.639984 116.040798 
L 105.878387 125.954997 
L 105.997589 123.69679 
L 106.11679 126.349639 
L 106.235992 132.504389 
L 106.474395 122.487664 
L 106.712799 120.489696 
L 106.832 120.267951 
L 106.951202 119.07813 
L 107.308807 112.070032 
L 107.428009 111.346736 
L 107.54721 112.114587 
L 107.666412 115.123077 
L 107.904815 125.752451 
L 108.143219 116.714555 
L 108.26242 117.909631 
L 108.381622 122.122189 
L 108.500823 130.98775 
L 109.096832 114.504088 
L 109.216033 114.17785 
L 109.335235 115.031709 
L 109.573638 119.888159 
L 109.69284 119.878606 
L 109.931243 113.043661 
L 110.050445 115.943274 
L 110.169647 126.829859 
L 110.288848 120.217844 
L 110.40805 124.158989 
L 110.646453 114.333801 
L 110.765655 125.811567 
L 110.884857 110.840247 
L 111.004058 117.510628 
L 111.242462 98.580244 
L 111.361663 106.574985 
L 111.600067 89.182009 
L 111.719268 124.351123 
L 111.957672 67.420949 
L 112.196075 58.567215 
L 112.315277 57.067189 
L 112.434478 57.160766 
L 112.55368 58.856923 
L 112.792083 68.251978 
L 112.911285 78.437802 
L 113.030487 105.087904 
L 113.149688 90.211719 
L 113.388092 101.302518 
L 113.507293 97.771212 
L 113.745697 118.253228 
L 113.864898 112.660951 
L 113.9841 126.278008 
L 114.103302 110.661614 
L 114.222503 111.018222 
L 114.460907 120.28195 
L 114.818511 112.286696 
L 115.056915 116.374843 
L 115.295318 113.770913 
L 115.41452 113.6139 
L 115.652923 115.596642 
L 115.772125 118.611194 
L 116.010528 129.176206 
L 116.487335 116.005631 
L 116.606536 116.810212 
L 116.725738 120.967916 
L 116.84494 129.23371 
L 117.321746 116.738749 
L 117.56015 114.56377 
L 117.679351 114.579275 
L 117.798553 115.525885 
L 118.036956 119.953428 
L 118.156158 119.265308 
L 118.27536 117.289312 
L 118.394561 117.918434 
L 118.632965 129.327555 
L 118.871368 117.123354 
L 118.99057 118.744198 
L 119.228973 126.977882 
L 119.467376 113.433097 
L 119.586578 112.086055 
L 119.70578 112.549592 
L 120.301788 121.436454 
L 120.540191 118.434498 
L 120.778594 123.293041 
L 121.136199 118.981221 
L 121.374603 121.508429 
L 121.493804 121.170935 
L 122.209014 106.88477 
L 122.328216 107.418819 
L 122.447418 109.786308 
L 122.566619 115.51948 
L 122.685821 152.848563 
L 122.924224 113.329339 
L 123.043426 112.997615 
L 123.281829 116.441047 
L 123.401031 116.126415 
L 123.520233 115.432428 
L 123.639434 115.914978 
L 124.354644 125.742832 
L 124.473846 128.639976 
L 125.069854 113.855201 
L 125.189056 114.120039 
L 125.546661 116.24868 
L 125.665863 116.220308 
L 125.904266 115.177104 
L 126.023468 115.367385 
L 126.261871 118.802066 
L 126.619476 107.211685 
L 126.738677 106.316252 
L 126.857879 107.074385 
L 126.977081 109.82559 
L 127.215484 125.231225 
L 127.453887 113.130569 
L 127.573089 113.295033 
L 127.930694 121.771908 
L 128.169097 117.940856 
L 128.288299 117.810422 
L 128.645904 119.938322 
L 129.003509 115.267051 
L 129.122711 115.463646 
L 129.361114 118.660143 
L 129.480316 117.673298 
L 129.718719 114.05504 
L 129.837921 115.052562 
L 130.076324 118.433986 
L 130.195526 116.96707 
L 130.314727 117.563884 
L 130.433929 119.190268 
L 130.553131 137.060731 
L 130.791534 109.246012 
L 130.910736 114.40733 
L 131.029937 111.424938 
L 131.149139 105.550663 
L 131.268341 106.781641 
L 131.506744 79.705714 
L 131.745147 71.666835 
L 131.864349 70.436493 
L 131.983551 70.787149 
L 132.102752 72.75763 
L 132.341156 82.937668 
L 132.579559 115.014094 
L 132.698761 107.330135 
L 132.817962 115.181041 
L 132.937164 106.367237 
L 133.056365 106.74414 
L 133.175567 113.327089 
L 133.294769 132.376388 
L 133.533172 126.766379 
L 133.652374 124.004724 
L 133.771575 124.834359 
L 134.009979 118.828181 
L 134.367584 117.09921 
L 134.486785 115.849928 
L 134.605987 115.836957 
L 134.725189 117.799969 
L 134.963592 124.66704 
L 135.321197 118.92842 
L 135.798004 116.157353 
L 135.917205 116.843037 
L 136.27481 122.264109 
L 136.394012 125.992429 
L 136.513214 134.709906 
L 136.751617 117.280159 
L 136.99002 111.966401 
L 137.109222 111.79873 
L 137.228424 113.076579 
L 137.824432 127.810187 
L 137.943634 126.650045 
L 138.182037 119.736545 
L 138.658844 116.471519 
L 138.778045 116.184487 
L 138.897247 116.490391 
L 139.13565 119.033296 
L 139.374053 124.986333 
L 139.493255 137.077589 
L 139.731658 115.242005 
L 139.970062 108.420147 
L 140.089263 107.37479 
L 140.208465 107.776551 
L 140.327667 109.828008 
L 140.685272 122.077668 
L 140.923675 118.264652 
L 141.042877 118.802101 
L 141.162078 118.608311 
L 141.877288 110.710908 
L 141.99649 111.817821 
L 142.354095 119.493062 
L 142.592498 114.905835 
L 142.7117 114.316783 
L 142.830902 114.490483 
L 143.069305 115.012616 
L 143.307708 113.648736 
L 143.42691 112.974921 
L 143.546112 113.290929 
L 143.665313 115.52454 
L 143.784515 120.1575 
L 144.261322 110.099682 
L 144.380523 112.109797 
L 144.618927 123.453803 
L 144.738128 130.238033 
L 144.85733 129.560816 
L 145.214935 117.347617 
L 145.334136 117.711508 
L 145.57254 120.80138 
L 145.810943 115.849904 
L 145.930145 116.176513 
L 146.049346 119.286564 
L 146.168548 126.253169 
L 146.28775 126.1176 
L 146.526153 120.521038 
L 146.764556 118.523344 
L 146.883758 118.908048 
L 147.00296 120.84036 
L 147.122161 124.771963 
L 147.241363 123.417957 
L 147.479766 116.657393 
L 147.71817 114.722551 
L 148.075775 111.224685 
L 148.314178 108.986626 
L 148.43338 109.652836 
L 148.790985 121.927805 
L 149.267791 113.505988 
L 149.386993 115.560539 
L 149.506195 114.472404 
L 149.625396 108.440783 
L 149.744598 109.902154 
L 149.8638 122.260718 
L 149.983001 110.018654 
L 150.102203 116.790415 
L 150.340606 101.311004 
L 150.459808 108.830526 
L 150.698211 89.65538 
L 150.817413 90.700891 
L 151.055816 65.326902 
L 151.294219 57.905076 
L 151.413421 56.921196 
L 151.532623 57.512782 
L 151.771026 63.895721 
L 152.009429 83.384227 
L 152.128631 94.109435 
L 152.247833 91.617305 
L 152.367034 105.144645 
L 152.486236 99.28523 
L 152.605438 100.256196 
L 152.724639 109.538644 
L 152.843841 107.464459 
L 153.082244 113.988732 
L 153.201446 108.415649 
L 153.320648 112.397359 
L 153.439849 124.760619 
L 153.559051 117.470202 
L 153.678253 119.866111 
L 153.797454 126.865011 
L 153.916656 124.591755 
L 154.155059 114.982487 
L 154.512664 110.145683 
L 154.631866 110.185722 
L 154.870269 115.725051 
L 154.989471 115.417954 
L 155.108673 112.829121 
L 155.227874 113.032846 
L 155.466278 118.036035 
L 155.585479 115.790239 
L 155.704681 115.729733 
L 155.943084 127.719253 
L 156.181488 110.953669 
L 156.300689 109.613675 
L 156.419891 109.982135 
L 156.658294 114.328529 
L 156.896698 125.735698 
L 157.015899 146.55936 
L 157.135101 128.711379 
L 157.373504 128.219678 
L 157.611907 115.699533 
L 157.731109 113.707218 
L 157.850311 113.785518 
L 158.207916 120.319841 
L 158.327117 124.109179 
L 158.446319 133.651817 
L 158.684722 114.666187 
L 158.803924 112.483871 
L 158.923126 112.705297 
L 159.161529 120.269591 
L 159.519134 111.697962 
L 159.638336 111.842628 
L 159.876739 116.680319 
L 160.234344 128.67247 
L 160.591949 123.845922 
L 160.711151 124.635861 
L 160.830352 126.873565 
L 161.068756 138.48561 
L 161.307159 130.075692 
L 161.545562 124.30785 
L 161.903167 116.916349 
L 162.022369 116.823462 
L 162.379974 121.408209 
L 162.856781 116.64753 
L 162.975982 117.343386 
L 163.095184 119.552902 
L 163.333587 126.62317 
L 163.57199 115.209878 
L 163.810394 111.748016 
L 163.929595 111.412895 
L 164.048797 111.649811 
L 164.2872 113.295117 
L 164.644805 116.127118 
L 165.00241 112.841252 
L 165.121612 113.485911 
L 165.479217 118.344692 
L 165.956024 111.61386 
L 166.075225 112.485148 
L 166.313629 118.038836 
L 166.43283 117.724434 
L 166.552032 116.120269 
L 166.671234 116.419521 
L 166.909637 118.957639 
L 167.14804 116.671852 
L 167.386444 122.739796 
L 167.86325 110.725233 
L 168.101654 111.911971 
L 168.220855 111.846018 
L 168.57846 107.178434 
L 168.697662 108.286138 
L 168.936065 111.696767 
L 169.174469 108.906238 
L 169.29367 113.628481 
L 169.412872 124.359746 
L 169.532073 114.433443 
L 169.651275 120.086802 
L 169.889678 102.901157 
L 170.00888 112.79306 
L 170.128082 94.666462 
L 170.247283 94.862777 
L 170.366485 89.500932 
L 170.604888 67.908643 
L 170.843292 61.140952 
L 170.962493 60.41081 
L 171.081695 61.2575 
L 171.320098 68.30551 
L 171.4393 75.814193 
L 171.677703 94.937728 
L 171.796905 95.655157 
L 171.916107 115.553106 
L 172.035308 102.554338 
L 172.15451 104.752342 
L 172.273712 113.665089 
L 172.392913 110.370482 
L 172.631317 117.842243 
L 172.750518 114.247348 
L 172.988922 128.091139 
L 173.346527 116.262746 
L 173.465728 117.917165 
L 173.58493 128.969292 
L 174.061737 110.462974 
L 174.180938 109.392121 
L 174.30014 109.615465 
L 174.657745 115.777782 
L 174.896148 110.292672 
L 175.01535 109.603344 
L 175.134552 110.379959 
L 175.253753 113.054851 
L 175.492157 123.317744 
L 175.73056 117.224726 
L 175.849761 120.444581 
L 175.968963 129.152642 
L 176.207366 113.233309 
L 176.44577 108.21721 
L 176.564971 107.834046 
L 176.684173 108.881731 
L 177.399383 124.906413 
L 177.518585 123.960122 
L 177.756988 118.878098 
L 177.995391 122.833789 
L 178.233795 113.873197 
L 178.352996 113.704035 
L 178.472198 116.581118 
L 178.5914 126.341403 
L 178.710601 124.368174 
L 178.949005 113.005099 
L 179.068206 112.305281 
L 179.187408 113.288036 
L 179.425811 117.983133 
L 179.902618 106.003469 
L 180.02182 105.720001 
L 180.141021 106.395779 
L 180.379425 111.085216 
L 180.498626 114.765265 
L 180.617828 114.893261 
L 180.856231 110.334392 
L 180.975433 109.907017 
L 181.094635 110.782357 
L 181.45224 117.409181 
L 181.690643 114.343694 
L 181.809844 114.5449 
L 181.929046 113.818511 
L 182.286651 107.667043 
L 182.405853 107.453281 
L 182.644256 109.011649 
L 182.882659 110.690996 
L 183.240264 111.255168 
L 183.478668 113.471842 
L 184.193878 125.589954 
L 184.313079 130.770806 
L 184.551483 118.186566 
L 184.670684 116.22062 
L 184.789886 116.367839 
L 184.909088 118.937425 
L 185.028289 124.056303 
L 185.147491 124.269598 
L 185.385894 120.425232 
L 185.624298 122.19503 
L 185.862701 119.937475 
L 185.981903 121.104379 
L 186.101104 125.141875 
L 186.220306 137.698173 
L 186.577911 114.460866 
L 186.697113 112.764597 
L 186.816314 113.885686 
L 186.935516 118.729351 
L 187.054718 130.881954 
L 187.173919 128.952256 
L 187.412323 121.801659 
L 187.650726 116.249614 
L 187.769927 116.299731 
L 187.889129 119.706734 
L 188.127532 115.195481 
L 188.246734 120.202105 
L 188.365936 118.399161 
L 188.485137 122.475148 
L 188.723541 110.359914 
L 188.842742 116.789264 
L 189.081146 102.128596 
L 189.200347 110.915443 
L 189.319549 102.549452 
L 189.438751 102.989957 
L 189.557952 98.090995 
L 189.677154 88.129916 
L 189.796356 92.255877 
L 190.153961 61.50192 
L 190.392364 55.415517 
L 190.511566 54.947126 
L 190.630767 56.055024 
L 190.869171 63.785522 
L 190.988372 71.993304 
L 191.107574 90.63841 
L 191.226776 88.099742 
L 191.345977 90.836649 
L 191.465179 121.257566 
L 191.584381 98.613846 
L 191.822784 111.248255 
L 191.941986 104.704442 
L 192.180389 116.834591 
L 192.299591 113.724383 
L 192.418792 131.506516 
L 192.537994 114.037174 
L 192.657196 114.814561 
L 192.776397 120.322052 
L 192.895599 117.48365 
L 193.014801 119.241481 
L 193.253204 116.891824 
L 193.372406 120.60726 
L 193.610809 116.64183 
L 193.730011 118.258302 
L 193.968414 123.411043 
L 194.206817 118.487921 
L 194.44522 121.56211 
L 195.16043 113.894241 
L 195.279632 115.917203 
L 195.398834 121.899842 
L 195.518035 137.92074 
L 195.756439 117.476368 
L 195.994842 115.212965 
L 196.114044 115.186337 
L 196.233245 115.850461 
L 196.59085 122.585754 
L 196.948455 114.061089 
L 197.067657 113.162362 
L 197.186859 113.128981 
L 197.30606 113.849043 
L 197.544464 117.313437 
L 197.782867 125.616948 
L 197.902069 138.828359 
L 198.140472 116.794251 
L 198.378875 113.031021 
L 198.498077 113.271412 
L 198.855682 115.380338 
L 198.974884 115.514249 
L 199.094085 114.820549 
L 199.570892 110.030133 
L 199.690094 110.119745 
L 200.047698 112.13961 
L 200.405303 108.586458 
L 200.524505 108.816789 
L 200.643707 110.438456 
L 201.001312 121.803966 
L 201.239715 117.081269 
L 201.478118 114.996968 
L 201.716522 112.699778 
L 201.954925 111.89197 
L 202.074127 111.963154 
L 202.193328 113.243922 
L 202.31253 116.832016 
L 202.431732 125.580656 
L 202.550933 123.187187 
L 202.789337 114.243018 
L 202.908538 113.791086 
L 203.02774 114.73042 
L 203.266143 121.000749 
L 203.504547 127.908756 
L 203.981353 113.796001 
L 204.100555 113.594374 
L 204.338958 116.251907 
L 204.45816 119.497477 
L 204.577362 127.433299 
L 204.696563 127.49923 
L 204.934967 115.989942 
L 205.054168 115.393049 
L 205.17337 117.157819 
L 205.292572 121.811291 
L 205.411773 121.423594 
L 205.650177 113.948012 
L 205.769378 114.12673 
L 206.007782 116.411744 
L 206.246185 116.202901 
L 206.365386 117.38805 
L 206.60379 125.840282 
L 206.722991 125.215022 
L 206.842193 124.141835 
L 206.961395 124.468501 
L 207.319 116.953821 
L 207.438201 117.016843 
L 207.676605 115.404325 
L 207.795806 115.884532 
L 207.915008 116.982021 
L 208.03421 123.964991 
L 208.272613 108.932293 
L 208.511016 115.537536 
L 208.630218 114.673808 
L 208.868621 100.188274 
L 208.987823 102.644148 
L 209.107025 101.475106 
L 209.226226 91.720758 
L 209.345428 101.18875 
L 209.583831 70.185045 
L 209.822235 60.394984 
L 210.060638 58.33953 
L 210.17984 59.701567 
L 210.418243 68.135353 
L 210.537445 77.121521 
L 210.656646 102.521944 
L 210.775848 91.428796 
L 211.014251 105.635113 
L 211.133453 98.364941 
L 211.252655 102.976585 
L 211.371856 123.784541 
L 211.491058 115.235169 
L 211.61026 132.051564 
L 211.729461 112.271716 
L 211.848663 111.899853 
L 212.087066 132.920006 
L 212.325469 115.019428 
L 212.444671 112.66135 
L 212.563873 113.861584 
L 212.802276 119.03306 
L 212.921478 119.016513 
L 213.040679 118.783887 
L 213.279083 124.290045 
L 213.636688 115.528815 
L 213.994293 111.621978 
L 214.113494 111.847582 
L 214.471099 116.536138 
L 214.590301 116.303446 
L 214.709503 116.947218 
L 215.067108 123.246862 
L 215.305511 121.144951 
L 215.424713 121.541861 
L 215.543914 120.239168 
L 215.782318 114.60793 
L 215.901519 114.379168 
L 216.020721 116.383237 
L 216.139923 120.734804 
L 216.259124 120.474966 
L 216.497528 113.204769 
L 216.616729 112.170845 
L 216.735931 112.13719 
L 217.570343 116.116125 
L 217.689544 115.837632 
L 218.166351 108.601172 
L 218.285552 108.884885 
L 218.523956 112.168453 
L 219.000762 119.679357 
L 219.119964 120.383551 
L 219.239166 120.098177 
L 219.835174 112.461459 
L 219.954376 113.286136 
L 220.073577 116.211342 
L 220.192779 123.84184 
L 220.311981 122.809906 
L 220.550384 111.892264 
L 220.669586 110.973701 
L 220.788787 111.684087 
L 221.027191 116.912083 
L 221.265594 121.196715 
L 221.384796 120.825311 
L 221.623199 118.691568 
L 221.742401 118.619231 
L 221.861602 120.386906 
L 221.980804 124.791435 
L 222.100006 125.083052 
L 222.338409 117.159919 
L 222.457611 116.798126 
L 222.815216 119.832889 
L 222.934417 120.030487 
L 223.053619 119.557037 
L 223.530426 113.319605 
L 223.888031 110.461634 
L 224.007232 110.502853 
L 224.126434 111.743559 
L 224.484039 120.214815 
L 224.722442 114.006234 
L 224.841644 114.042034 
L 224.960845 116.603476 
L 225.199249 126.420978 
L 225.437652 113.65933 
L 225.556854 112.997281 
L 225.795257 113.823697 
L 226.272064 111.133586 
L 226.391265 111.763692 
L 226.510467 113.950945 
L 226.74887 122.383713 
L 227.106475 115.325487 
L 227.225677 115.248443 
L 227.46408 117.237052 
L 227.702484 112.281997 
L 227.821685 112.331519 
L 228.060089 117.52623 
L 228.17929 120.224891 
L 228.417694 107.924528 
L 228.536895 115.024116 
L 228.775299 97.740388 
L 228.8945 115.031849 
L 229.132904 76.170266 
L 229.371307 67.138114 
L 229.490509 65.572111 
L 229.60971 65.600946 
L 229.728912 67.225833 
L 229.967315 76.389555 
L 230.086517 86.232556 
L 230.205719 120.395187 
L 230.32492 98.6634 
L 230.563323 111.562294 
L 230.682525 106.748768 
L 231.04013 122.223359 
L 231.159332 135.985966 
L 231.516937 112.346894 
L 231.75534 108.19242 
L 231.993743 111.451865 
L 232.351348 116.604102 
L 232.589752 116.122832 
L 232.828155 118.298306 
L 232.947357 117.650459 
L 233.18576 113.751755 
L 233.304962 114.011847 
L 233.424163 116.577192 
L 233.662567 123.383427 
L 233.90097 118.14604 
L 234.020172 121.347974 
L 234.139373 134.698911 
L 234.377777 115.91217 
L 234.61618 112.848171 
L 234.735382 113.067696 
L 234.854583 113.537781 
L 234.973785 113.500652 
L 235.212188 112.417239 
L 235.33139 112.826492 
L 235.808197 117.46315 
L 235.927398 117.392911 
L 236.285003 114.067566 
L 236.404205 116.104836 
L 236.642608 124.23472 
L 236.881011 112.704022 
L 237.000213 112.362042 
L 237.238616 115.716089 
L 237.357818 115.000283 
L 237.596221 110.639652 
L 237.715423 110.175895 
L 237.834625 111.207918 
L 237.953826 114.205557 
L 238.19223 133.564105 
L 238.430633 119.36792 
L 238.549835 121.304071 
L 238.669036 130.156415 
L 238.788238 128.34964 
L 239.026641 116.426328 
L 239.145843 115.389998 
L 239.384246 116.086004 
L 239.384246 116.086004 
" clip-path="url(#pa01120908c)" style="fill: none; stroke: #4477aa; stroke-linecap: square"/>
   </g>
   <g id="patch_3">
    <path d="M 44.012725 152.589249 
L 44.012725 7.059249 
" style="fill: none; stroke: #000000; stroke-width: 0.5; stroke-linejoin: miter; stroke-linecap: square"/>
   </g>
   <g id="patch_4">
    <path d="M 239.312725 152.589249 
L 239.312725 7.059249 
" style="fill: none; stroke: #000000; stroke-width: 0.5; stroke-linejoin: miter; stroke-linecap: square"/>
   </g>
   <g id="patch_5">
    <path d="M 44.012725 152.589249 
L 239.312725 152.589249 
" style="fill: none; stroke: #000000; stroke-width: 0.5; stroke-linejoin: miter; stroke-linecap: square"/>
   </g>
   <g id="patch_6">
    <path d="M 44.012725 7.059249 
L 239.312725 7.059249 
" style="fill: none; stroke: #000000; stroke-width: 0.5; stroke-linejoin: miter; stroke-linecap: square"/>
   </g>
  </g>
 </g>
 <defs>
  <clipPath id="pa01120908c">
   <rect x="44.012725" y="7.059249" width="195.3" height="145.53"/>
  </clipPath>
 </defs>
</svg>
