<?xml version="1.0" encoding="utf-8" standalone="no"?>
<!DOCTYPE svg PUBLIC "-//W3C//DTD SVG 1.1//EN"
  "http://www.w3.org/Graphics/SVG/1.1/DTD/svg11.dtd">
<svg xmlns:xlink="http://www.w3.org/1999/xlink" width="247.894061pt" height="186.891106pt" viewBox="0 0 247.894061 186.891106" xmlns="http://www.w3.org/2000/svg" version="1.1">
 <metadata>
  <rdf:RDF xmlns:dc="http://purl.org/dc/elements/1.1/" xmlns:cc="http://creativecommons.org/ns#" xmlns:rdf="http://www.w3.org/1999/02/22-rdf-syntax-ns#">
   <cc:Work>
    <dc:type rdf:resource="http://purl.org/dc/dcmitype/StillImage"/>
    <dc:date>2025-03-14T12:24:25.843546</dc:date>
    <dc:format>image/svg+xml</dc:format>
    <dc:creator>
     <cc:Agent>
      <dc:title>Matplotlib v3.9.2, https://matplotlib.org/</dc:title>
     </cc:Agent>
    </dc:creator>
   </cc:Work>
  </rdf:RDF>
 </metadata>
 <defs>
  <style type="text/css">*{stroke-linejoin: round; stroke-linecap: butt}</style>
 </defs>
 <g id="figure_1">
  <g id="patch_1">
   <path d="M -0 186.891106 
L 247.894061 186.891106 
L 247.894061 0 
L -0 0 
L -0 186.891106 
z
" style="fill: none"/>
  </g>
  <g id="axes_1">
   <g id="patch_2">
    <path d="M 44.012725 152.589249 
L 239.312725 152.589249 
L 239.312725 7.059249 
L 44.012725 7.059249 
L 44.012725 152.589249 
z
" style="fill: none"/>
   </g>
   <g id="matplotlib.axis_1">
    <g id="xtick_1">
     <g id="line2d_1">
      <path d="M 44.012725 152.589249 
L 44.012725 7.059249 
" clip-path="url(#pc670d359b0)" style="fill: none; stroke-dasharray: 1.85,0.8; stroke-dashoffset: 0; stroke: #000000; stroke-opacity: 0.5; stroke-width: 0.5"/>
     </g>
     <g id="line2d_2">
      <defs>
       <path id="ma35b0d6f7e" d="M 0 0 
L 0 -3 
" style="stroke: #000000; stroke-width: 0.5"/>
      </defs>
      <g>
       <use xlink:href="#ma35b0d6f7e" x="44.012725" y="152.589249" style="stroke: #000000; stroke-width: 0.5"/>
      </g>
     </g>
     <g id="line2d_3">
      <defs>
       <path id="maf44754136" d="M 0 0 
L 0 3 
" style="stroke: #000000; stroke-width: 0.5"/>
      </defs>
      <g>
       <use xlink:href="#maf44754136" x="44.012725" y="7.059249" style="stroke: #000000; stroke-width: 0.5"/>
      </g>
     </g>
     <g id="text_1">
      <!-- $\mathdefault{0}$ -->
      <g transform="translate(41.522058 163.007748) scale(0.1 -0.1)">
       <defs>
        <path id="CMR17-30" d="M 2688 2025 
C 2688 2416 2682 3080 2413 3591 
C 2176 4039 1798 4198 1466 4198 
C 1158 4198 768 4058 525 3597 
C 269 3118 243 2524 243 2025 
C 243 1661 250 1106 448 619 
C 723 -39 1216 -128 1466 -128 
C 1760 -128 2208 -7 2470 600 
C 2662 1042 2688 1559 2688 2025 
z
M 1466 -26 
C 1056 -26 813 325 723 812 
C 653 1188 653 1738 653 2096 
C 653 2588 653 2997 736 3387 
C 858 3929 1216 4096 1466 4096 
C 1728 4096 2067 3923 2189 3400 
C 2272 3036 2278 2607 2278 2096 
C 2278 1680 2278 1169 2202 792 
C 2067 95 1690 -26 1466 -26 
z
" transform="scale(0.015625)"/>
       </defs>
       <use xlink:href="#CMR17-30" transform="scale(0.996264)"/>
      </g>
     </g>
    </g>
    <g id="xtick_2">
     <g id="line2d_4">
      <path d="M 92.837725 152.589249 
L 92.837725 7.059249 
" clip-path="url(#pc670d359b0)" style="fill: none; stroke-dasharray: 1.85,0.8; stroke-dashoffset: 0; stroke: #000000; stroke-opacity: 0.5; stroke-width: 0.5"/>
     </g>
     <g id="line2d_5">
      <g>
       <use xlink:href="#ma35b0d6f7e" x="92.837725" y="152.589249" style="stroke: #000000; stroke-width: 0.5"/>
      </g>
     </g>
     <g id="line2d_6">
      <g>
       <use xlink:href="#maf44754136" x="92.837725" y="7.059249" style="stroke: #000000; stroke-width: 0.5"/>
      </g>
     </g>
     <g id="text_2">
      <!-- $\mathdefault{10}$ -->
      <g transform="translate(87.85639 163.007748) scale(0.1 -0.1)">
       <defs>
        <path id="CMR17-31" d="M 1702 4058 
C 1702 4192 1696 4192 1606 4192 
C 1357 3916 979 3827 621 3827 
C 602 3827 570 3827 563 3808 
C 557 3795 557 3782 557 3648 
C 755 3648 1088 3686 1344 3839 
L 1344 461 
C 1344 236 1331 160 781 160 
L 589 160 
L 589 0 
C 896 0 1216 0 1523 0 
C 1830 0 2150 0 2458 0 
L 2458 160 
L 2266 160 
C 1715 160 1702 230 1702 458 
L 1702 4058 
z
" transform="scale(0.015625)"/>
       </defs>
       <use xlink:href="#CMR17-31" transform="scale(0.996264)"/>
       <use xlink:href="#CMR17-30" transform="translate(45.690477 0) scale(0.996264)"/>
      </g>
     </g>
    </g>
    <g id="xtick_3">
     <g id="line2d_7">
      <path d="M 141.662725 152.589249 
L 141.662725 7.059249 
" clip-path="url(#pc670d359b0)" style="fill: none; stroke-dasharray: 1.85,0.8; stroke-dashoffset: 0; stroke: #000000; stroke-opacity: 0.5; stroke-width: 0.5"/>
     </g>
     <g id="line2d_8">
      <g>
       <use xlink:href="#ma35b0d6f7e" x="141.662725" y="152.589249" style="stroke: #000000; stroke-width: 0.5"/>
      </g>
     </g>
     <g id="line2d_9">
      <g>
       <use xlink:href="#maf44754136" x="141.662725" y="7.059249" style="stroke: #000000; stroke-width: 0.5"/>
      </g>
     </g>
     <g id="text_3">
      <!-- $\mathdefault{20}$ -->
      <g transform="translate(136.68139 163.007748) scale(0.1 -0.1)">
       <defs>
        <path id="CMR17-32" d="M 2669 989 
L 2554 989 
C 2490 536 2438 459 2413 420 
C 2381 369 1920 369 1830 369 
L 602 369 
C 832 619 1280 1072 1824 1597 
C 2214 1967 2669 2402 2669 3035 
C 2669 3790 2067 4224 1395 4224 
C 691 4224 262 3604 262 3030 
C 262 2780 448 2748 525 2748 
C 589 2748 781 2787 781 3010 
C 781 3207 614 3264 525 3264 
C 486 3264 448 3258 422 3245 
C 544 3790 915 4058 1306 4058 
C 1862 4058 2227 3617 2227 3035 
C 2227 2479 1901 2000 1536 1584 
L 262 146 
L 262 0 
L 2515 0 
L 2669 989 
z
" transform="scale(0.015625)"/>
       </defs>
       <use xlink:href="#CMR17-32" transform="scale(0.996264)"/>
       <use xlink:href="#CMR17-30" transform="translate(45.690477 0) scale(0.996264)"/>
      </g>
     </g>
    </g>
    <g id="xtick_4">
     <g id="line2d_10">
      <path d="M 190.487725 152.589249 
L 190.487725 7.059249 
" clip-path="url(#pc670d359b0)" style="fill: none; stroke-dasharray: 1.85,0.8; stroke-dashoffset: 0; stroke: #000000; stroke-opacity: 0.5; stroke-width: 0.5"/>
     </g>
     <g id="line2d_11">
      <g>
       <use xlink:href="#ma35b0d6f7e" x="190.487725" y="152.589249" style="stroke: #000000; stroke-width: 0.5"/>
      </g>
     </g>
     <g id="line2d_12">
      <g>
       <use xlink:href="#maf44754136" x="190.487725" y="7.059249" style="stroke: #000000; stroke-width: 0.5"/>
      </g>
     </g>
     <g id="text_4">
      <!-- $\mathdefault{30}$ -->
      <g transform="translate(185.50639 163.007748) scale(0.1 -0.1)">
       <defs>
        <path id="CMR17-33" d="M 1414 2157 
C 1984 2157 2234 1662 2234 1090 
C 2234 320 1824 25 1453 25 
C 1114 25 563 194 390 693 
C 422 680 454 680 486 680 
C 640 680 755 782 755 948 
C 755 1133 614 1216 486 1216 
C 378 1216 211 1165 211 926 
C 211 335 787 -128 1466 -128 
C 2176 -128 2720 430 2720 1085 
C 2720 1707 2208 2157 1600 2227 
C 2086 2328 2554 2756 2554 3329 
C 2554 3820 2048 4179 1472 4179 
C 890 4179 378 3829 378 3329 
C 378 3110 544 3072 627 3072 
C 762 3072 877 3155 877 3321 
C 877 3486 762 3569 627 3569 
C 602 3569 570 3569 544 3557 
C 730 3959 1235 4032 1459 4032 
C 1683 4032 2106 3925 2106 3320 
C 2106 3143 2080 2828 1862 2550 
C 1670 2304 1453 2304 1242 2284 
C 1210 2284 1062 2269 1037 2269 
C 992 2263 966 2257 966 2208 
C 966 2163 973 2157 1101 2157 
L 1414 2157 
z
" transform="scale(0.015625)"/>
       </defs>
       <use xlink:href="#CMR17-33" transform="scale(0.996264)"/>
       <use xlink:href="#CMR17-30" transform="translate(45.690477 0) scale(0.996264)"/>
      </g>
     </g>
    </g>
    <g id="xtick_5">
     <g id="line2d_13">
      <path d="M 239.312725 152.589249 
L 239.312725 7.059249 
" clip-path="url(#pc670d359b0)" style="fill: none; stroke-dasharray: 1.85,0.8; stroke-dashoffset: 0; stroke: #000000; stroke-opacity: 0.5; stroke-width: 0.5"/>
     </g>
     <g id="line2d_14">
      <g>
       <use xlink:href="#ma35b0d6f7e" x="239.312725" y="152.589249" style="stroke: #000000; stroke-width: 0.5"/>
      </g>
     </g>
     <g id="line2d_15">
      <g>
       <use xlink:href="#maf44754136" x="239.312725" y="7.059249" style="stroke: #000000; stroke-width: 0.5"/>
      </g>
     </g>
     <g id="text_5">
      <!-- $\mathdefault{40}$ -->
      <g transform="translate(234.33139 163.007748) scale(0.1 -0.1)">
       <defs>
        <path id="CMR17-34" d="M 2150 4122 
C 2150 4256 2144 4256 2029 4256 
L 128 1254 
L 128 1088 
L 1779 1088 
L 1779 457 
C 1779 224 1766 160 1318 160 
L 1197 160 
L 1197 0 
C 1402 0 1747 0 1965 0 
C 2182 0 2528 0 2733 0 
L 2733 160 
L 2611 160 
C 2163 160 2150 224 2150 457 
L 2150 1088 
L 2803 1088 
L 2803 1254 
L 2150 1254 
L 2150 4122 
z
M 1798 3703 
L 1798 1254 
L 256 1254 
L 1798 3703 
z
" transform="scale(0.015625)"/>
       </defs>
       <use xlink:href="#CMR17-34" transform="scale(0.996264)"/>
       <use xlink:href="#CMR17-30" transform="translate(45.690477 0) scale(0.996264)"/>
      </g>
     </g>
    </g>
    <g id="xtick_6">
     <g id="line2d_16">
      <defs>
       <path id="m35982169fe" d="M 0 0 
L 0 -1.5 
" style="stroke: #000000; stroke-width: 0.5"/>
      </defs>
      <g>
       <use xlink:href="#m35982169fe" x="53.777725" y="152.589249" style="stroke: #000000; stroke-width: 0.5"/>
      </g>
     </g>
     <g id="line2d_17">
      <defs>
       <path id="mf2674f05b5" d="M 0 0 
L 0 1.5 
" style="stroke: #000000; stroke-width: 0.5"/>
      </defs>
      <g>
       <use xlink:href="#mf2674f05b5" x="53.777725" y="7.059249" style="stroke: #000000; stroke-width: 0.5"/>
      </g>
     </g>
    </g>
    <g id="xtick_7">
     <g id="line2d_18">
      <g>
       <use xlink:href="#m35982169fe" x="63.542725" y="152.589249" style="stroke: #000000; stroke-width: 0.5"/>
      </g>
     </g>
     <g id="line2d_19">
      <g>
       <use xlink:href="#mf2674f05b5" x="63.542725" y="7.059249" style="stroke: #000000; stroke-width: 0.5"/>
      </g>
     </g>
    </g>
    <g id="xtick_8">
     <g id="line2d_20">
      <g>
       <use xlink:href="#m35982169fe" x="73.307725" y="152.589249" style="stroke: #000000; stroke-width: 0.5"/>
      </g>
     </g>
     <g id="line2d_21">
      <g>
       <use xlink:href="#mf2674f05b5" x="73.307725" y="7.059249" style="stroke: #000000; stroke-width: 0.5"/>
      </g>
     </g>
    </g>
    <g id="xtick_9">
     <g id="line2d_22">
      <g>
       <use xlink:href="#m35982169fe" x="83.072725" y="152.589249" style="stroke: #000000; stroke-width: 0.5"/>
      </g>
     </g>
     <g id="line2d_23">
      <g>
       <use xlink:href="#mf2674f05b5" x="83.072725" y="7.059249" style="stroke: #000000; stroke-width: 0.5"/>
      </g>
     </g>
    </g>
    <g id="xtick_10">
     <g id="line2d_24">
      <g>
       <use xlink:href="#m35982169fe" x="102.602725" y="152.589249" style="stroke: #000000; stroke-width: 0.5"/>
      </g>
     </g>
     <g id="line2d_25">
      <g>
       <use xlink:href="#mf2674f05b5" x="102.602725" y="7.059249" style="stroke: #000000; stroke-width: 0.5"/>
      </g>
     </g>
    </g>
    <g id="xtick_11">
     <g id="line2d_26">
      <g>
       <use xlink:href="#m35982169fe" x="112.367725" y="152.589249" style="stroke: #000000; stroke-width: 0.5"/>
      </g>
     </g>
     <g id="line2d_27">
      <g>
       <use xlink:href="#mf2674f05b5" x="112.367725" y="7.059249" style="stroke: #000000; stroke-width: 0.5"/>
      </g>
     </g>
    </g>
    <g id="xtick_12">
     <g id="line2d_28">
      <g>
       <use xlink:href="#m35982169fe" x="122.132725" y="152.589249" style="stroke: #000000; stroke-width: 0.5"/>
      </g>
     </g>
     <g id="line2d_29">
      <g>
       <use xlink:href="#mf2674f05b5" x="122.132725" y="7.059249" style="stroke: #000000; stroke-width: 0.5"/>
      </g>
     </g>
    </g>
    <g id="xtick_13">
     <g id="line2d_30">
      <g>
       <use xlink:href="#m35982169fe" x="131.897725" y="152.589249" style="stroke: #000000; stroke-width: 0.5"/>
      </g>
     </g>
     <g id="line2d_31">
      <g>
       <use xlink:href="#mf2674f05b5" x="131.897725" y="7.059249" style="stroke: #000000; stroke-width: 0.5"/>
      </g>
     </g>
    </g>
    <g id="xtick_14">
     <g id="line2d_32">
      <g>
       <use xlink:href="#m35982169fe" x="151.427725" y="152.589249" style="stroke: #000000; stroke-width: 0.5"/>
      </g>
     </g>
     <g id="line2d_33">
      <g>
       <use xlink:href="#mf2674f05b5" x="151.427725" y="7.059249" style="stroke: #000000; stroke-width: 0.5"/>
      </g>
     </g>
    </g>
    <g id="xtick_15">
     <g id="line2d_34">
      <g>
       <use xlink:href="#m35982169fe" x="161.192725" y="152.589249" style="stroke: #000000; stroke-width: 0.5"/>
      </g>
     </g>
     <g id="line2d_35">
      <g>
       <use xlink:href="#mf2674f05b5" x="161.192725" y="7.059249" style="stroke: #000000; stroke-width: 0.5"/>
      </g>
     </g>
    </g>
    <g id="xtick_16">
     <g id="line2d_36">
      <g>
       <use xlink:href="#m35982169fe" x="170.957725" y="152.589249" style="stroke: #000000; stroke-width: 0.5"/>
      </g>
     </g>
     <g id="line2d_37">
      <g>
       <use xlink:href="#mf2674f05b5" x="170.957725" y="7.059249" style="stroke: #000000; stroke-width: 0.5"/>
      </g>
     </g>
    </g>
    <g id="xtick_17">
     <g id="line2d_38">
      <g>
       <use xlink:href="#m35982169fe" x="180.722725" y="152.589249" style="stroke: #000000; stroke-width: 0.5"/>
      </g>
     </g>
     <g id="line2d_39">
      <g>
       <use xlink:href="#mf2674f05b5" x="180.722725" y="7.059249" style="stroke: #000000; stroke-width: 0.5"/>
      </g>
     </g>
    </g>
    <g id="xtick_18">
     <g id="line2d_40">
      <g>
       <use xlink:href="#m35982169fe" x="200.252725" y="152.589249" style="stroke: #000000; stroke-width: 0.5"/>
      </g>
     </g>
     <g id="line2d_41">
      <g>
       <use xlink:href="#mf2674f05b5" x="200.252725" y="7.059249" style="stroke: #000000; stroke-width: 0.5"/>
      </g>
     </g>
    </g>
    <g id="xtick_19">
     <g id="line2d_42">
      <g>
       <use xlink:href="#m35982169fe" x="210.017725" y="152.589249" style="stroke: #000000; stroke-width: 0.5"/>
      </g>
     </g>
     <g id="line2d_43">
      <g>
       <use xlink:href="#mf2674f05b5" x="210.017725" y="7.059249" style="stroke: #000000; stroke-width: 0.5"/>
      </g>
     </g>
    </g>
    <g id="xtick_20">
     <g id="line2d_44">
      <g>
       <use xlink:href="#m35982169fe" x="219.782725" y="152.589249" style="stroke: #000000; stroke-width: 0.5"/>
      </g>
     </g>
     <g id="line2d_45">
      <g>
       <use xlink:href="#mf2674f05b5" x="219.782725" y="7.059249" style="stroke: #000000; stroke-width: 0.5"/>
      </g>
     </g>
    </g>
    <g id="xtick_21">
     <g id="line2d_46">
      <g>
       <use xlink:href="#m35982169fe" x="229.547725" y="152.589249" style="stroke: #000000; stroke-width: 0.5"/>
      </g>
     </g>
     <g id="line2d_47">
      <g>
       <use xlink:href="#mf2674f05b5" x="229.547725" y="7.059249" style="stroke: #000000; stroke-width: 0.5"/>
      </g>
     </g>
    </g>
    <g id="text_6">
     <!-- $f$ [MHz] -->
     <g transform="translate(116.369118 179.704565) scale(0.144 -0.144)">
      <defs>
       <path id="CMMI12-66" d="M 2854 2566 
C 2982 2566 3034 2566 3034 2688 
C 3034 2752 2982 2752 2867 2752 
L 2349 2752 
C 2470 3429 2560 3897 2611 4107 
C 2650 4265 2784 4416 2950 4416 
C 3085 4416 3219 4358 3283 4298 
C 3034 4272 2957 4082 2957 3969 
C 2957 3837 3053 3759 3174 3759 
C 3302 3759 3494 3870 3494 4119 
C 3494 4393 3226 4544 2944 4544 
C 2669 4544 2400 4334 2272 4078 
C 2157 3848 2093 3611 1946 2752 
L 1517 2752 
C 1395 2752 1331 2752 1331 2637 
C 1331 2566 1370 2566 1498 2566 
L 1907 2566 
C 1792 1976 1530 542 1382 -137 
C 1274 -689 1178 -1152 858 -1152 
C 838 -1152 653 -1152 538 -1031 
C 864 -1005 864 -726 864 -720 
C 864 -593 768 -517 646 -517 
C 518 -517 326 -625 326 -867 
C 326 -1140 608 -1280 858 -1280 
C 1510 -1280 1779 -118 1850 199 
C 1965 688 2278 2376 2310 2566 
L 2854 2566 
z
" transform="scale(0.015625)"/>
       <path id="CMR17-5b" d="M 1504 -1600 
L 1504 -1377 
L 902 -1377 
L 902 4544 
L 1504 4544 
L 1504 4767 
L 678 4767 
L 678 -1600 
L 1504 -1600 
z
" transform="scale(0.015625)"/>
       <path id="CMR17-4d" d="M 1338 4224 
C 1299 4320 1293 4320 1158 4320 
L 339 4320 
L 339 4160 
C 781 4160 851 4160 851 3875 
L 851 610 
C 851 451 851 153 339 153 
L 339 -13 
C 486 0 755 0 915 0 
C 1075 0 1344 0 1491 -13 
L 1491 153 
C 979 153 979 451 979 610 
L 979 4135 
L 986 4135 
L 2490 89 
C 2515 25 2528 -13 2579 -13 
C 2630 -13 2643 25 2669 89 
L 4186 4166 
L 4192 4166 
L 4192 438 
C 4192 153 4122 153 3680 153 
L 3680 -13 
C 3853 0 4198 0 4384 0 
C 4570 0 4922 0 5094 -13 
L 5094 153 
C 4653 153 4582 153 4582 438 
L 4582 3875 
C 4582 4160 4653 4160 5094 4160 
L 5094 4320 
L 4282 4320 
C 4147 4320 4141 4314 4102 4218 
L 2720 502 
L 1338 4224 
z
" transform="scale(0.015625)"/>
       <path id="CMR17-48" d="M 3590 3905 
C 3590 4192 3661 4192 4102 4192 
L 4102 4352 
C 3917 4352 3578 4352 3379 4352 
C 3181 4352 2842 4352 2656 4352 
L 2656 4192 
C 3098 4192 3168 4192 3168 3904 
L 3168 2341 
L 1261 2341 
L 1261 3904 
C 1261 4192 1331 4192 1773 4192 
L 1773 4352 
C 1587 4352 1248 4352 1050 4352 
C 851 4352 512 4352 326 4352 
L 326 4192 
C 768 4192 838 4192 838 3905 
L 838 447 
C 838 160 768 160 326 160 
L 326 0 
C 512 0 851 0 1050 0 
C 1248 0 1587 0 1773 0 
L 1773 160 
C 1331 160 1261 160 1261 446 
L 1261 2176 
L 3168 2176 
L 3168 446 
C 3168 160 3098 160 2656 160 
L 2656 0 
C 2842 0 3181 0 3379 0 
C 3578 0 3917 0 4102 0 
L 4102 160 
C 3661 160 3590 160 3590 447 
L 3590 3905 
z
" transform="scale(0.015625)"/>
       <path id="CMR17-7a" d="M 2310 2605 
C 2362 2670 2362 2682 2362 2695 
C 2362 2752 2336 2752 2221 2752 
L 275 2752 
L 211 1760 
L 326 1760 
C 371 2381 442 2650 1178 2650 
L 1958 2650 
L 128 96 
C 128 0 134 0 269 0 
L 2291 0 
L 2381 1152 
L 2266 1152 
C 2214 442 2131 115 1350 115 
L 531 115 
L 2310 2605 
z
" transform="scale(0.015625)"/>
       <path id="CMR17-5d" d="M 915 4767 
L 90 4767 
L 90 4544 
L 691 4544 
L 691 -1377 
L 90 -1377 
L 90 -1600 
L 915 -1600 
L 915 4767 
z
" transform="scale(0.015625)"/>
      </defs>
      <use xlink:href="#CMMI12-66" transform="scale(0.996264)"/>
      <use xlink:href="#CMR17-5b" transform="translate(88.796271 0) scale(0.996264)"/>
      <use xlink:href="#CMR17-4d" transform="translate(113.66733 0) scale(0.996264)"/>
      <use xlink:href="#CMR17-48" transform="translate(198.35427 0) scale(0.996264)"/>
      <use xlink:href="#CMR17-7a" transform="translate(267.4267 0) scale(0.996264)"/>
      <use xlink:href="#CMR17-5d" transform="translate(307.912361 0) scale(0.996264)"/>
     </g>
    </g>
   </g>
   <g id="matplotlib.axis_2">
    <g id="ytick_1">
     <g id="line2d_48">
      <path d="M 44.012725 152.589249 
L 239.312725 152.589249 
" clip-path="url(#pc670d359b0)" style="fill: none; stroke-dasharray: 1.85,0.8; stroke-dashoffset: 0; stroke: #000000; stroke-opacity: 0.5; stroke-width: 0.5"/>
     </g>
     <g id="line2d_49">
      <defs>
       <path id="mf57452c4e8" d="M 0 0 
L 3 0 
" style="stroke: #000000; stroke-width: 0.5"/>
      </defs>
      <g>
       <use xlink:href="#mf57452c4e8" x="44.012725" y="152.589249" style="stroke: #000000; stroke-width: 0.5"/>
      </g>
     </g>
     <g id="line2d_50">
      <defs>
       <path id="m62e9b18bf9" d="M 0 0 
L -3 0 
" style="stroke: #000000; stroke-width: 0.5"/>
      </defs>
      <g>
       <use xlink:href="#m62e9b18bf9" x="239.312725" y="152.589249" style="stroke: #000000; stroke-width: 0.5"/>
      </g>
     </g>
     <g id="text_7">
      <!-- $\mathdefault{10^{-3}}$ -->
      <g transform="translate(20.352152 156.048498) scale(0.1 -0.1)">
       <defs>
        <path id="CMSY10-0" d="M 4218 1472 
C 4326 1472 4442 1472 4442 1600 
C 4442 1728 4326 1728 4218 1728 
L 755 1728 
C 646 1728 531 1728 531 1600 
C 531 1472 646 1472 755 1472 
L 4218 1472 
z
" transform="scale(0.015625)"/>
       </defs>
       <use xlink:href="#CMR17-31" transform="scale(0.996264)"/>
       <use xlink:href="#CMR17-30" transform="translate(45.690477 0) scale(0.996264)"/>
       <use xlink:href="#CMSY10-0" transform="translate(91.380954 36.153639) scale(0.697382)"/>
       <use xlink:href="#CMR17-33" transform="translate(145.621947 36.153639) scale(0.697382)"/>
      </g>
     </g>
    </g>
    <g id="ytick_2">
     <g id="line2d_51">
      <path d="M 44.012725 131.799249 
L 239.312725 131.799249 
" clip-path="url(#pc670d359b0)" style="fill: none; stroke-dasharray: 1.85,0.8; stroke-dashoffset: 0; stroke: #000000; stroke-opacity: 0.5; stroke-width: 0.5"/>
     </g>
     <g id="line2d_52">
      <g>
       <use xlink:href="#mf57452c4e8" x="44.012725" y="131.799249" style="stroke: #000000; stroke-width: 0.5"/>
      </g>
     </g>
     <g id="line2d_53">
      <g>
       <use xlink:href="#m62e9b18bf9" x="239.312725" y="131.799249" style="stroke: #000000; stroke-width: 0.5"/>
      </g>
     </g>
     <g id="text_8">
      <!-- $\mathdefault{10^{-2}}$ -->
      <g transform="translate(20.352152 135.258498) scale(0.1 -0.1)">
       <use xlink:href="#CMR17-31" transform="scale(0.996264)"/>
       <use xlink:href="#CMR17-30" transform="translate(45.690477 0) scale(0.996264)"/>
       <use xlink:href="#CMSY10-0" transform="translate(91.380954 36.153639) scale(0.697382)"/>
       <use xlink:href="#CMR17-32" transform="translate(145.621947 36.153639) scale(0.697382)"/>
      </g>
     </g>
    </g>
    <g id="ytick_3">
     <g id="line2d_54">
      <path d="M 44.012725 111.009249 
L 239.312725 111.009249 
" clip-path="url(#pc670d359b0)" style="fill: none; stroke-dasharray: 1.85,0.8; stroke-dashoffset: 0; stroke: #000000; stroke-opacity: 0.5; stroke-width: 0.5"/>
     </g>
     <g id="line2d_55">
      <g>
       <use xlink:href="#mf57452c4e8" x="44.012725" y="111.009249" style="stroke: #000000; stroke-width: 0.5"/>
      </g>
     </g>
     <g id="line2d_56">
      <g>
       <use xlink:href="#m62e9b18bf9" x="239.312725" y="111.009249" style="stroke: #000000; stroke-width: 0.5"/>
      </g>
     </g>
     <g id="text_9">
      <!-- $\mathdefault{10^{-1}}$ -->
      <g transform="translate(20.352152 114.468498) scale(0.1 -0.1)">
       <use xlink:href="#CMR17-31" transform="scale(0.996264)"/>
       <use xlink:href="#CMR17-30" transform="translate(45.690477 0) scale(0.996264)"/>
       <use xlink:href="#CMSY10-0" transform="translate(91.380954 36.153639) scale(0.697382)"/>
       <use xlink:href="#CMR17-31" transform="translate(145.621947 36.153639) scale(0.697382)"/>
      </g>
     </g>
    </g>
    <g id="ytick_4">
     <g id="line2d_57">
      <path d="M 44.012725 90.219249 
L 239.312725 90.219249 
" clip-path="url(#pc670d359b0)" style="fill: none; stroke-dasharray: 1.85,0.8; stroke-dashoffset: 0; stroke: #000000; stroke-opacity: 0.5; stroke-width: 0.5"/>
     </g>
     <g id="line2d_58">
      <g>
       <use xlink:href="#mf57452c4e8" x="44.012725" y="90.219249" style="stroke: #000000; stroke-width: 0.5"/>
      </g>
     </g>
     <g id="line2d_59">
      <g>
       <use xlink:href="#m62e9b18bf9" x="239.312725" y="90.219249" style="stroke: #000000; stroke-width: 0.5"/>
      </g>
     </g>
     <g id="text_10">
      <!-- $\mathdefault{10^{0}}$ -->
      <g transform="translate(26.578817 93.678498) scale(0.1 -0.1)">
       <use xlink:href="#CMR17-31" transform="scale(0.996264)"/>
       <use xlink:href="#CMR17-30" transform="translate(45.690477 0) scale(0.996264)"/>
       <use xlink:href="#CMR17-30" transform="translate(91.380954 36.153639) scale(0.697382)"/>
      </g>
     </g>
    </g>
    <g id="ytick_5">
     <g id="line2d_60">
      <path d="M 44.012725 69.429249 
L 239.312725 69.429249 
" clip-path="url(#pc670d359b0)" style="fill: none; stroke-dasharray: 1.85,0.8; stroke-dashoffset: 0; stroke: #000000; stroke-opacity: 0.5; stroke-width: 0.5"/>
     </g>
     <g id="line2d_61">
      <g>
       <use xlink:href="#mf57452c4e8" x="44.012725" y="69.429249" style="stroke: #000000; stroke-width: 0.5"/>
      </g>
     </g>
     <g id="line2d_62">
      <g>
       <use xlink:href="#m62e9b18bf9" x="239.312725" y="69.429249" style="stroke: #000000; stroke-width: 0.5"/>
      </g>
     </g>
     <g id="text_11">
      <!-- $\mathdefault{10^{1}}$ -->
      <g transform="translate(26.578817 72.888498) scale(0.1 -0.1)">
       <use xlink:href="#CMR17-31" transform="scale(0.996264)"/>
       <use xlink:href="#CMR17-30" transform="translate(45.690477 0) scale(0.996264)"/>
       <use xlink:href="#CMR17-31" transform="translate(91.380954 36.153639) scale(0.697382)"/>
      </g>
     </g>
    </g>
    <g id="ytick_6">
     <g id="line2d_63">
      <path d="M 44.012725 48.639249 
L 239.312725 48.639249 
" clip-path="url(#pc670d359b0)" style="fill: none; stroke-dasharray: 1.85,0.8; stroke-dashoffset: 0; stroke: #000000; stroke-opacity: 0.5; stroke-width: 0.5"/>
     </g>
     <g id="line2d_64">
      <g>
       <use xlink:href="#mf57452c4e8" x="44.012725" y="48.639249" style="stroke: #000000; stroke-width: 0.5"/>
      </g>
     </g>
     <g id="line2d_65">
      <g>
       <use xlink:href="#m62e9b18bf9" x="239.312725" y="48.639249" style="stroke: #000000; stroke-width: 0.5"/>
      </g>
     </g>
     <g id="text_12">
      <!-- $\mathdefault{10^{2}}$ -->
      <g transform="translate(26.578817 52.098498) scale(0.1 -0.1)">
       <use xlink:href="#CMR17-31" transform="scale(0.996264)"/>
       <use xlink:href="#CMR17-30" transform="translate(45.690477 0) scale(0.996264)"/>
       <use xlink:href="#CMR17-32" transform="translate(91.380954 36.153639) scale(0.697382)"/>
      </g>
     </g>
    </g>
    <g id="ytick_7">
     <g id="line2d_66">
      <path d="M 44.012725 27.849249 
L 239.312725 27.849249 
" clip-path="url(#pc670d359b0)" style="fill: none; stroke-dasharray: 1.85,0.8; stroke-dashoffset: 0; stroke: #000000; stroke-opacity: 0.5; stroke-width: 0.5"/>
     </g>
     <g id="line2d_67">
      <g>
       <use xlink:href="#mf57452c4e8" x="44.012725" y="27.849249" style="stroke: #000000; stroke-width: 0.5"/>
      </g>
     </g>
     <g id="line2d_68">
      <g>
       <use xlink:href="#m62e9b18bf9" x="239.312725" y="27.849249" style="stroke: #000000; stroke-width: 0.5"/>
      </g>
     </g>
     <g id="text_13">
      <!-- $\mathdefault{10^{3}}$ -->
      <g transform="translate(26.578817 31.308498) scale(0.1 -0.1)">
       <use xlink:href="#CMR17-31" transform="scale(0.996264)"/>
       <use xlink:href="#CMR17-30" transform="translate(45.690477 0) scale(0.996264)"/>
       <use xlink:href="#CMR17-33" transform="translate(91.380954 36.153639) scale(0.697382)"/>
      </g>
     </g>
    </g>
    <g id="ytick_8">
     <g id="line2d_69">
      <path d="M 44.012725 7.059249 
L 239.312725 7.059249 
" clip-path="url(#pc670d359b0)" style="fill: none; stroke-dasharray: 1.85,0.8; stroke-dashoffset: 0; stroke: #000000; stroke-opacity: 0.5; stroke-width: 0.5"/>
     </g>
     <g id="line2d_70">
      <g>
       <use xlink:href="#mf57452c4e8" x="44.012725" y="7.059249" style="stroke: #000000; stroke-width: 0.5"/>
      </g>
     </g>
     <g id="line2d_71">
      <g>
       <use xlink:href="#m62e9b18bf9" x="239.312725" y="7.059249" style="stroke: #000000; stroke-width: 0.5"/>
      </g>
     </g>
     <g id="text_14">
      <!-- $\mathdefault{10^{4}}$ -->
      <g transform="translate(26.578817 10.518498) scale(0.1 -0.1)">
       <use xlink:href="#CMR17-31" transform="scale(0.996264)"/>
       <use xlink:href="#CMR17-30" transform="translate(45.690477 0) scale(0.996264)"/>
       <use xlink:href="#CMR17-34" transform="translate(91.380954 36.153639) scale(0.697382)"/>
      </g>
     </g>
    </g>
    <g id="ytick_9">
     <g id="line2d_72">
      <defs>
       <path id="mb110b7daaf" d="M 0 0 
L 1.5 0 
" style="stroke: #000000; stroke-width: 0.5"/>
      </defs>
      <g>
       <use xlink:href="#mb110b7daaf" x="44.012725" y="146.330836" style="stroke: #000000; stroke-width: 0.5"/>
      </g>
     </g>
     <g id="line2d_73">
      <defs>
       <path id="m3aca2e5caa" d="M 0 0 
L -1.5 0 
" style="stroke: #000000; stroke-width: 0.5"/>
      </defs>
      <g>
       <use xlink:href="#m3aca2e5caa" x="239.312725" y="146.330836" style="stroke: #000000; stroke-width: 0.5"/>
      </g>
     </g>
    </g>
    <g id="ytick_10">
     <g id="line2d_74">
      <g>
       <use xlink:href="#mb110b7daaf" x="44.012725" y="142.669898" style="stroke: #000000; stroke-width: 0.5"/>
      </g>
     </g>
     <g id="line2d_75">
      <g>
       <use xlink:href="#m3aca2e5caa" x="239.312725" y="142.669898" style="stroke: #000000; stroke-width: 0.5"/>
      </g>
     </g>
    </g>
    <g id="ytick_11">
     <g id="line2d_76">
      <g>
       <use xlink:href="#mb110b7daaf" x="44.012725" y="140.072422" style="stroke: #000000; stroke-width: 0.5"/>
      </g>
     </g>
     <g id="line2d_77">
      <g>
       <use xlink:href="#m3aca2e5caa" x="239.312725" y="140.072422" style="stroke: #000000; stroke-width: 0.5"/>
      </g>
     </g>
    </g>
    <g id="ytick_12">
     <g id="line2d_78">
      <g>
       <use xlink:href="#mb110b7daaf" x="44.012725" y="138.057663" style="stroke: #000000; stroke-width: 0.5"/>
      </g>
     </g>
     <g id="line2d_79">
      <g>
       <use xlink:href="#m3aca2e5caa" x="239.312725" y="138.057663" style="stroke: #000000; stroke-width: 0.5"/>
      </g>
     </g>
    </g>
    <g id="ytick_13">
     <g id="line2d_80">
      <g>
       <use xlink:href="#mb110b7daaf" x="44.012725" y="136.411485" style="stroke: #000000; stroke-width: 0.5"/>
      </g>
     </g>
     <g id="line2d_81">
      <g>
       <use xlink:href="#m3aca2e5caa" x="239.312725" y="136.411485" style="stroke: #000000; stroke-width: 0.5"/>
      </g>
     </g>
    </g>
    <g id="ytick_14">
     <g id="line2d_82">
      <g>
       <use xlink:href="#mb110b7daaf" x="44.012725" y="135.019661" style="stroke: #000000; stroke-width: 0.5"/>
      </g>
     </g>
     <g id="line2d_83">
      <g>
       <use xlink:href="#m3aca2e5caa" x="239.312725" y="135.019661" style="stroke: #000000; stroke-width: 0.5"/>
      </g>
     </g>
    </g>
    <g id="ytick_15">
     <g id="line2d_84">
      <g>
       <use xlink:href="#mb110b7daaf" x="44.012725" y="133.814008" style="stroke: #000000; stroke-width: 0.5"/>
      </g>
     </g>
     <g id="line2d_85">
      <g>
       <use xlink:href="#m3aca2e5caa" x="239.312725" y="133.814008" style="stroke: #000000; stroke-width: 0.5"/>
      </g>
     </g>
    </g>
    <g id="ytick_16">
     <g id="line2d_86">
      <g>
       <use xlink:href="#mb110b7daaf" x="44.012725" y="132.750547" style="stroke: #000000; stroke-width: 0.5"/>
      </g>
     </g>
     <g id="line2d_87">
      <g>
       <use xlink:href="#m3aca2e5caa" x="239.312725" y="132.750547" style="stroke: #000000; stroke-width: 0.5"/>
      </g>
     </g>
    </g>
    <g id="ytick_17">
     <g id="line2d_88">
      <g>
       <use xlink:href="#mb110b7daaf" x="44.012725" y="125.540836" style="stroke: #000000; stroke-width: 0.5"/>
      </g>
     </g>
     <g id="line2d_89">
      <g>
       <use xlink:href="#m3aca2e5caa" x="239.312725" y="125.540836" style="stroke: #000000; stroke-width: 0.5"/>
      </g>
     </g>
    </g>
    <g id="ytick_18">
     <g id="line2d_90">
      <g>
       <use xlink:href="#mb110b7daaf" x="44.012725" y="121.879898" style="stroke: #000000; stroke-width: 0.5"/>
      </g>
     </g>
     <g id="line2d_91">
      <g>
       <use xlink:href="#m3aca2e5caa" x="239.312725" y="121.879898" style="stroke: #000000; stroke-width: 0.5"/>
      </g>
     </g>
    </g>
    <g id="ytick_19">
     <g id="line2d_92">
      <g>
       <use xlink:href="#mb110b7daaf" x="44.012725" y="119.282422" style="stroke: #000000; stroke-width: 0.5"/>
      </g>
     </g>
     <g id="line2d_93">
      <g>
       <use xlink:href="#m3aca2e5caa" x="239.312725" y="119.282422" style="stroke: #000000; stroke-width: 0.5"/>
      </g>
     </g>
    </g>
    <g id="ytick_20">
     <g id="line2d_94">
      <g>
       <use xlink:href="#mb110b7daaf" x="44.012725" y="117.267663" style="stroke: #000000; stroke-width: 0.5"/>
      </g>
     </g>
     <g id="line2d_95">
      <g>
       <use xlink:href="#m3aca2e5caa" x="239.312725" y="117.267663" style="stroke: #000000; stroke-width: 0.5"/>
      </g>
     </g>
    </g>
    <g id="ytick_21">
     <g id="line2d_96">
      <g>
       <use xlink:href="#mb110b7daaf" x="44.012725" y="115.621485" style="stroke: #000000; stroke-width: 0.5"/>
      </g>
     </g>
     <g id="line2d_97">
      <g>
       <use xlink:href="#m3aca2e5caa" x="239.312725" y="115.621485" style="stroke: #000000; stroke-width: 0.5"/>
      </g>
     </g>
    </g>
    <g id="ytick_22">
     <g id="line2d_98">
      <g>
       <use xlink:href="#mb110b7daaf" x="44.012725" y="114.229661" style="stroke: #000000; stroke-width: 0.5"/>
      </g>
     </g>
     <g id="line2d_99">
      <g>
       <use xlink:href="#m3aca2e5caa" x="239.312725" y="114.229661" style="stroke: #000000; stroke-width: 0.5"/>
      </g>
     </g>
    </g>
    <g id="ytick_23">
     <g id="line2d_100">
      <g>
       <use xlink:href="#mb110b7daaf" x="44.012725" y="113.024008" style="stroke: #000000; stroke-width: 0.5"/>
      </g>
     </g>
     <g id="line2d_101">
      <g>
       <use xlink:href="#m3aca2e5caa" x="239.312725" y="113.024008" style="stroke: #000000; stroke-width: 0.5"/>
      </g>
     </g>
    </g>
    <g id="ytick_24">
     <g id="line2d_102">
      <g>
       <use xlink:href="#mb110b7daaf" x="44.012725" y="111.960547" style="stroke: #000000; stroke-width: 0.5"/>
      </g>
     </g>
     <g id="line2d_103">
      <g>
       <use xlink:href="#m3aca2e5caa" x="239.312725" y="111.960547" style="stroke: #000000; stroke-width: 0.5"/>
      </g>
     </g>
    </g>
    <g id="ytick_25">
     <g id="line2d_104">
      <g>
       <use xlink:href="#mb110b7daaf" x="44.012725" y="104.750836" style="stroke: #000000; stroke-width: 0.5"/>
      </g>
     </g>
     <g id="line2d_105">
      <g>
       <use xlink:href="#m3aca2e5caa" x="239.312725" y="104.750836" style="stroke: #000000; stroke-width: 0.5"/>
      </g>
     </g>
    </g>
    <g id="ytick_26">
     <g id="line2d_106">
      <g>
       <use xlink:href="#mb110b7daaf" x="44.012725" y="101.089898" style="stroke: #000000; stroke-width: 0.5"/>
      </g>
     </g>
     <g id="line2d_107">
      <g>
       <use xlink:href="#m3aca2e5caa" x="239.312725" y="101.089898" style="stroke: #000000; stroke-width: 0.5"/>
      </g>
     </g>
    </g>
    <g id="ytick_27">
     <g id="line2d_108">
      <g>
       <use xlink:href="#mb110b7daaf" x="44.012725" y="98.492422" style="stroke: #000000; stroke-width: 0.5"/>
      </g>
     </g>
     <g id="line2d_109">
      <g>
       <use xlink:href="#m3aca2e5caa" x="239.312725" y="98.492422" style="stroke: #000000; stroke-width: 0.5"/>
      </g>
     </g>
    </g>
    <g id="ytick_28">
     <g id="line2d_110">
      <g>
       <use xlink:href="#mb110b7daaf" x="44.012725" y="96.477663" style="stroke: #000000; stroke-width: 0.5"/>
      </g>
     </g>
     <g id="line2d_111">
      <g>
       <use xlink:href="#m3aca2e5caa" x="239.312725" y="96.477663" style="stroke: #000000; stroke-width: 0.5"/>
      </g>
     </g>
    </g>
    <g id="ytick_29">
     <g id="line2d_112">
      <g>
       <use xlink:href="#mb110b7daaf" x="44.012725" y="94.831485" style="stroke: #000000; stroke-width: 0.5"/>
      </g>
     </g>
     <g id="line2d_113">
      <g>
       <use xlink:href="#m3aca2e5caa" x="239.312725" y="94.831485" style="stroke: #000000; stroke-width: 0.5"/>
      </g>
     </g>
    </g>
    <g id="ytick_30">
     <g id="line2d_114">
      <g>
       <use xlink:href="#mb110b7daaf" x="44.012725" y="93.439661" style="stroke: #000000; stroke-width: 0.5"/>
      </g>
     </g>
     <g id="line2d_115">
      <g>
       <use xlink:href="#m3aca2e5caa" x="239.312725" y="93.439661" style="stroke: #000000; stroke-width: 0.5"/>
      </g>
     </g>
    </g>
    <g id="ytick_31">
     <g id="line2d_116">
      <g>
       <use xlink:href="#mb110b7daaf" x="44.012725" y="92.234008" style="stroke: #000000; stroke-width: 0.5"/>
      </g>
     </g>
     <g id="line2d_117">
      <g>
       <use xlink:href="#m3aca2e5caa" x="239.312725" y="92.234008" style="stroke: #000000; stroke-width: 0.5"/>
      </g>
     </g>
    </g>
    <g id="ytick_32">
     <g id="line2d_118">
      <g>
       <use xlink:href="#mb110b7daaf" x="44.012725" y="91.170547" style="stroke: #000000; stroke-width: 0.5"/>
      </g>
     </g>
     <g id="line2d_119">
      <g>
       <use xlink:href="#m3aca2e5caa" x="239.312725" y="91.170547" style="stroke: #000000; stroke-width: 0.5"/>
      </g>
     </g>
    </g>
    <g id="ytick_33">
     <g id="line2d_120">
      <g>
       <use xlink:href="#mb110b7daaf" x="44.012725" y="83.960836" style="stroke: #000000; stroke-width: 0.5"/>
      </g>
     </g>
     <g id="line2d_121">
      <g>
       <use xlink:href="#m3aca2e5caa" x="239.312725" y="83.960836" style="stroke: #000000; stroke-width: 0.5"/>
      </g>
     </g>
    </g>
    <g id="ytick_34">
     <g id="line2d_122">
      <g>
       <use xlink:href="#mb110b7daaf" x="44.012725" y="80.299898" style="stroke: #000000; stroke-width: 0.5"/>
      </g>
     </g>
     <g id="line2d_123">
      <g>
       <use xlink:href="#m3aca2e5caa" x="239.312725" y="80.299898" style="stroke: #000000; stroke-width: 0.5"/>
      </g>
     </g>
    </g>
    <g id="ytick_35">
     <g id="line2d_124">
      <g>
       <use xlink:href="#mb110b7daaf" x="44.012725" y="77.702422" style="stroke: #000000; stroke-width: 0.5"/>
      </g>
     </g>
     <g id="line2d_125">
      <g>
       <use xlink:href="#m3aca2e5caa" x="239.312725" y="77.702422" style="stroke: #000000; stroke-width: 0.5"/>
      </g>
     </g>
    </g>
    <g id="ytick_36">
     <g id="line2d_126">
      <g>
       <use xlink:href="#mb110b7daaf" x="44.012725" y="75.687663" style="stroke: #000000; stroke-width: 0.5"/>
      </g>
     </g>
     <g id="line2d_127">
      <g>
       <use xlink:href="#m3aca2e5caa" x="239.312725" y="75.687663" style="stroke: #000000; stroke-width: 0.5"/>
      </g>
     </g>
    </g>
    <g id="ytick_37">
     <g id="line2d_128">
      <g>
       <use xlink:href="#mb110b7daaf" x="44.012725" y="74.041485" style="stroke: #000000; stroke-width: 0.5"/>
      </g>
     </g>
     <g id="line2d_129">
      <g>
       <use xlink:href="#m3aca2e5caa" x="239.312725" y="74.041485" style="stroke: #000000; stroke-width: 0.5"/>
      </g>
     </g>
    </g>
    <g id="ytick_38">
     <g id="line2d_130">
      <g>
       <use xlink:href="#mb110b7daaf" x="44.012725" y="72.649661" style="stroke: #000000; stroke-width: 0.5"/>
      </g>
     </g>
     <g id="line2d_131">
      <g>
       <use xlink:href="#m3aca2e5caa" x="239.312725" y="72.649661" style="stroke: #000000; stroke-width: 0.5"/>
      </g>
     </g>
    </g>
    <g id="ytick_39">
     <g id="line2d_132">
      <g>
       <use xlink:href="#mb110b7daaf" x="44.012725" y="71.444008" style="stroke: #000000; stroke-width: 0.5"/>
      </g>
     </g>
     <g id="line2d_133">
      <g>
       <use xlink:href="#m3aca2e5caa" x="239.312725" y="71.444008" style="stroke: #000000; stroke-width: 0.5"/>
      </g>
     </g>
    </g>
    <g id="ytick_40">
     <g id="line2d_134">
      <g>
       <use xlink:href="#mb110b7daaf" x="44.012725" y="70.380547" style="stroke: #000000; stroke-width: 0.5"/>
      </g>
     </g>
     <g id="line2d_135">
      <g>
       <use xlink:href="#m3aca2e5caa" x="239.312725" y="70.380547" style="stroke: #000000; stroke-width: 0.5"/>
      </g>
     </g>
    </g>
    <g id="ytick_41">
     <g id="line2d_136">
      <g>
       <use xlink:href="#mb110b7daaf" x="44.012725" y="63.170836" style="stroke: #000000; stroke-width: 0.5"/>
      </g>
     </g>
     <g id="line2d_137">
      <g>
       <use xlink:href="#m3aca2e5caa" x="239.312725" y="63.170836" style="stroke: #000000; stroke-width: 0.5"/>
      </g>
     </g>
    </g>
    <g id="ytick_42">
     <g id="line2d_138">
      <g>
       <use xlink:href="#mb110b7daaf" x="44.012725" y="59.509898" style="stroke: #000000; stroke-width: 0.5"/>
      </g>
     </g>
     <g id="line2d_139">
      <g>
       <use xlink:href="#m3aca2e5caa" x="239.312725" y="59.509898" style="stroke: #000000; stroke-width: 0.5"/>
      </g>
     </g>
    </g>
    <g id="ytick_43">
     <g id="line2d_140">
      <g>
       <use xlink:href="#mb110b7daaf" x="44.012725" y="56.912422" style="stroke: #000000; stroke-width: 0.5"/>
      </g>
     </g>
     <g id="line2d_141">
      <g>
       <use xlink:href="#m3aca2e5caa" x="239.312725" y="56.912422" style="stroke: #000000; stroke-width: 0.5"/>
      </g>
     </g>
    </g>
    <g id="ytick_44">
     <g id="line2d_142">
      <g>
       <use xlink:href="#mb110b7daaf" x="44.012725" y="54.897663" style="stroke: #000000; stroke-width: 0.5"/>
      </g>
     </g>
     <g id="line2d_143">
      <g>
       <use xlink:href="#m3aca2e5caa" x="239.312725" y="54.897663" style="stroke: #000000; stroke-width: 0.5"/>
      </g>
     </g>
    </g>
    <g id="ytick_45">
     <g id="line2d_144">
      <g>
       <use xlink:href="#mb110b7daaf" x="44.012725" y="53.251485" style="stroke: #000000; stroke-width: 0.5"/>
      </g>
     </g>
     <g id="line2d_145">
      <g>
       <use xlink:href="#m3aca2e5caa" x="239.312725" y="53.251485" style="stroke: #000000; stroke-width: 0.5"/>
      </g>
     </g>
    </g>
    <g id="ytick_46">
     <g id="line2d_146">
      <g>
       <use xlink:href="#mb110b7daaf" x="44.012725" y="51.859661" style="stroke: #000000; stroke-width: 0.5"/>
      </g>
     </g>
     <g id="line2d_147">
      <g>
       <use xlink:href="#m3aca2e5caa" x="239.312725" y="51.859661" style="stroke: #000000; stroke-width: 0.5"/>
      </g>
     </g>
    </g>
    <g id="ytick_47">
     <g id="line2d_148">
      <g>
       <use xlink:href="#mb110b7daaf" x="44.012725" y="50.654008" style="stroke: #000000; stroke-width: 0.5"/>
      </g>
     </g>
     <g id="line2d_149">
      <g>
       <use xlink:href="#m3aca2e5caa" x="239.312725" y="50.654008" style="stroke: #000000; stroke-width: 0.5"/>
      </g>
     </g>
    </g>
    <g id="ytick_48">
     <g id="line2d_150">
      <g>
       <use xlink:href="#mb110b7daaf" x="44.012725" y="49.590547" style="stroke: #000000; stroke-width: 0.5"/>
      </g>
     </g>
     <g id="line2d_151">
      <g>
       <use xlink:href="#m3aca2e5caa" x="239.312725" y="49.590547" style="stroke: #000000; stroke-width: 0.5"/>
      </g>
     </g>
    </g>
    <g id="ytick_49">
     <g id="line2d_152">
      <g>
       <use xlink:href="#mb110b7daaf" x="44.012725" y="42.380836" style="stroke: #000000; stroke-width: 0.5"/>
      </g>
     </g>
     <g id="line2d_153">
      <g>
       <use xlink:href="#m3aca2e5caa" x="239.312725" y="42.380836" style="stroke: #000000; stroke-width: 0.5"/>
      </g>
     </g>
    </g>
    <g id="ytick_50">
     <g id="line2d_154">
      <g>
       <use xlink:href="#mb110b7daaf" x="44.012725" y="38.719898" style="stroke: #000000; stroke-width: 0.5"/>
      </g>
     </g>
     <g id="line2d_155">
      <g>
       <use xlink:href="#m3aca2e5caa" x="239.312725" y="38.719898" style="stroke: #000000; stroke-width: 0.5"/>
      </g>
     </g>
    </g>
    <g id="ytick_51">
     <g id="line2d_156">
      <g>
       <use xlink:href="#mb110b7daaf" x="44.012725" y="36.122422" style="stroke: #000000; stroke-width: 0.5"/>
      </g>
     </g>
     <g id="line2d_157">
      <g>
       <use xlink:href="#m3aca2e5caa" x="239.312725" y="36.122422" style="stroke: #000000; stroke-width: 0.5"/>
      </g>
     </g>
    </g>
    <g id="ytick_52">
     <g id="line2d_158">
      <g>
       <use xlink:href="#mb110b7daaf" x="44.012725" y="34.107663" style="stroke: #000000; stroke-width: 0.5"/>
      </g>
     </g>
     <g id="line2d_159">
      <g>
       <use xlink:href="#m3aca2e5caa" x="239.312725" y="34.107663" style="stroke: #000000; stroke-width: 0.5"/>
      </g>
     </g>
    </g>
    <g id="ytick_53">
     <g id="line2d_160">
      <g>
       <use xlink:href="#mb110b7daaf" x="44.012725" y="32.461485" style="stroke: #000000; stroke-width: 0.5"/>
      </g>
     </g>
     <g id="line2d_161">
      <g>
       <use xlink:href="#m3aca2e5caa" x="239.312725" y="32.461485" style="stroke: #000000; stroke-width: 0.5"/>
      </g>
     </g>
    </g>
    <g id="ytick_54">
     <g id="line2d_162">
      <g>
       <use xlink:href="#mb110b7daaf" x="44.012725" y="31.069661" style="stroke: #000000; stroke-width: 0.5"/>
      </g>
     </g>
     <g id="line2d_163">
      <g>
       <use xlink:href="#m3aca2e5caa" x="239.312725" y="31.069661" style="stroke: #000000; stroke-width: 0.5"/>
      </g>
     </g>
    </g>
    <g id="ytick_55">
     <g id="line2d_164">
      <g>
       <use xlink:href="#mb110b7daaf" x="44.012725" y="29.864008" style="stroke: #000000; stroke-width: 0.5"/>
      </g>
     </g>
     <g id="line2d_165">
      <g>
       <use xlink:href="#m3aca2e5caa" x="239.312725" y="29.864008" style="stroke: #000000; stroke-width: 0.5"/>
      </g>
     </g>
    </g>
    <g id="ytick_56">
     <g id="line2d_166">
      <g>
       <use xlink:href="#mb110b7daaf" x="44.012725" y="28.800547" style="stroke: #000000; stroke-width: 0.5"/>
      </g>
     </g>
     <g id="line2d_167">
      <g>
       <use xlink:href="#m3aca2e5caa" x="239.312725" y="28.800547" style="stroke: #000000; stroke-width: 0.5"/>
      </g>
     </g>
    </g>
    <g id="ytick_57">
     <g id="line2d_168">
      <g>
       <use xlink:href="#mb110b7daaf" x="44.012725" y="21.590836" style="stroke: #000000; stroke-width: 0.5"/>
      </g>
     </g>
     <g id="line2d_169">
      <g>
       <use xlink:href="#m3aca2e5caa" x="239.312725" y="21.590836" style="stroke: #000000; stroke-width: 0.5"/>
      </g>
     </g>
    </g>
    <g id="ytick_58">
     <g id="line2d_170">
      <g>
       <use xlink:href="#mb110b7daaf" x="44.012725" y="17.929898" style="stroke: #000000; stroke-width: 0.5"/>
      </g>
     </g>
     <g id="line2d_171">
      <g>
       <use xlink:href="#m3aca2e5caa" x="239.312725" y="17.929898" style="stroke: #000000; stroke-width: 0.5"/>
      </g>
     </g>
    </g>
    <g id="ytick_59">
     <g id="line2d_172">
      <g>
       <use xlink:href="#mb110b7daaf" x="44.012725" y="15.332422" style="stroke: #000000; stroke-width: 0.5"/>
      </g>
     </g>
     <g id="line2d_173">
      <g>
       <use xlink:href="#m3aca2e5caa" x="239.312725" y="15.332422" style="stroke: #000000; stroke-width: 0.5"/>
      </g>
     </g>
    </g>
    <g id="ytick_60">
     <g id="line2d_174">
      <g>
       <use xlink:href="#mb110b7daaf" x="44.012725" y="13.317663" style="stroke: #000000; stroke-width: 0.5"/>
      </g>
     </g>
     <g id="line2d_175">
      <g>
       <use xlink:href="#m3aca2e5caa" x="239.312725" y="13.317663" style="stroke: #000000; stroke-width: 0.5"/>
      </g>
     </g>
    </g>
    <g id="ytick_61">
     <g id="line2d_176">
      <g>
       <use xlink:href="#mb110b7daaf" x="44.012725" y="11.671485" style="stroke: #000000; stroke-width: 0.5"/>
      </g>
     </g>
     <g id="line2d_177">
      <g>
       <use xlink:href="#m3aca2e5caa" x="239.312725" y="11.671485" style="stroke: #000000; stroke-width: 0.5"/>
      </g>
     </g>
    </g>
    <g id="ytick_62">
     <g id="line2d_178">
      <g>
       <use xlink:href="#mb110b7daaf" x="44.012725" y="10.279661" style="stroke: #000000; stroke-width: 0.5"/>
      </g>
     </g>
     <g id="line2d_179">
      <g>
       <use xlink:href="#m3aca2e5caa" x="239.312725" y="10.279661" style="stroke: #000000; stroke-width: 0.5"/>
      </g>
     </g>
    </g>
    <g id="ytick_63">
     <g id="line2d_180">
      <g>
       <use xlink:href="#mb110b7daaf" x="44.012725" y="9.074008" style="stroke: #000000; stroke-width: 0.5"/>
      </g>
     </g>
     <g id="line2d_181">
      <g>
       <use xlink:href="#m3aca2e5caa" x="239.312725" y="9.074008" style="stroke: #000000; stroke-width: 0.5"/>
      </g>
     </g>
    </g>
    <g id="ytick_64">
     <g id="line2d_182">
      <g>
       <use xlink:href="#mb110b7daaf" x="44.012725" y="8.010547" style="stroke: #000000; stroke-width: 0.5"/>
      </g>
     </g>
     <g id="line2d_183">
      <g>
       <use xlink:href="#m3aca2e5caa" x="239.312725" y="8.010547" style="stroke: #000000; stroke-width: 0.5"/>
      </g>
     </g>
    </g>
    <g id="text_15">
     <!-- $FFT$ -->
     <g transform="translate(13.562625 94.985154) rotate(-90) scale(0.144 -0.144)">
      <defs>
       <path id="CMMI12-46" d="M 1901 2055 
L 2515 2055 
C 3002 2055 3040 1946 3040 1761 
C 3040 1678 3027 1589 2995 1448 
C 2982 1423 2976 1391 2976 1378 
C 2976 1333 3002 1308 3046 1308 
C 3098 1308 3104 1333 3130 1435 
L 3501 2935 
C 3501 2961 3482 2999 3437 2999 
C 3379 2999 3373 2974 3347 2863 
C 3213 2376 3085 2240 2528 2240 
L 1946 2240 
L 2362 3926 
C 2419 4154 2432 4154 2694 4154 
L 3552 4154 
C 4352 4154 4467 3918 4467 3464 
C 4467 3426 4467 3285 4448 3119 
C 4442 3094 4429 3011 4429 2985 
C 4429 2934 4461 2915 4499 2915 
C 4544 2915 4570 2941 4582 3055 
L 4717 4174 
C 4717 4195 4730 4263 4730 4277 
C 4730 4352 4672 4352 4557 4352 
L 1523 4352 
C 1402 4352 1338 4352 1338 4229 
C 1338 4154 1382 4154 1491 4154 
C 1888 4154 1888 4113 1888 4050 
C 1888 4018 1882 3992 1862 3922 
L 998 473 
C 941 249 928 185 480 185 
C 358 185 294 185 294 70 
C 294 0 352 0 390 0 
C 512 0 640 0 762 0 
L 1594 0 
C 1734 0 1888 0 2029 0 
C 2086 0 2163 0 2163 115 
C 2163 185 2125 185 1984 185 
C 1478 185 1466 229 1466 324 
C 1466 356 1478 406 1491 449 
L 1901 2055 
z
" transform="scale(0.015625)"/>
       <path id="CMMI12-54" d="M 2669 3910 
C 2707 4064 2720 4121 2816 4147 
C 2867 4160 3078 4160 3213 4160 
C 3853 4160 4154 4134 4154 3634 
C 4154 3537 4128 3295 4090 3057 
L 4083 2980 
C 4083 2954 4109 2916 4147 2916 
C 4211 2916 4211 2948 4230 3050 
L 4416 4184 
C 4429 4243 4429 4256 4429 4275 
C 4429 4345 4390 4345 4262 4345 
L 762 4345 
C 614 4345 608 4339 570 4224 
L 179 3070 
C 173 3056 154 2986 154 2980 
C 154 2948 179 2916 218 2916 
C 269 2916 282 2941 307 3024 
C 576 3801 710 4160 1562 4160 
L 1990 4160 
C 2144 4160 2208 4160 2208 4089 
C 2208 4069 2208 4057 2176 3941 
L 1318 499 
C 1254 249 1242 185 563 185 
C 403 185 358 185 358 64 
C 358 0 429 0 461 0 
C 621 0 787 0 947 0 
L 1946 0 
C 2106 0 2278 0 2438 0 
C 2509 0 2573 0 2573 121 
C 2573 185 2528 185 2362 185 
C 1786 185 1786 243 1786 339 
C 1786 346 1786 391 1811 494 
L 2669 3910 
z
" transform="scale(0.015625)"/>
      </defs>
      <use xlink:href="#CMMI12-46" transform="scale(0.996264)"/>
      <use xlink:href="#CMMI12-46" transform="translate(76.696793 0) scale(0.996264)"/>
      <use xlink:href="#CMMI12-54" transform="translate(153.393585 0) scale(0.996264)"/>
     </g>
    </g>
   </g>
   <g id="line2d_184">
    <path d="M 44.012725 103.407336 
L 44.131927 104.422445 
L 44.37033 112.849849 
L 44.489532 122.685293 
L 44.608734 118.938215 
L 44.847137 105.302829 
L 44.966339 104.017332 
L 45.08554 103.96319 
L 45.204742 104.736072 
L 45.323944 106.770617 
L 45.443145 111.119193 
L 45.562347 110.557766 
L 45.80075 101.825607 
L 45.919952 102.719054 
L 46.158355 112.202943 
L 46.396759 107.423051 
L 46.51596 106.941856 
L 46.635162 107.128117 
L 46.873565 108.635688 
L 47.111969 106.471976 
L 47.23117 110.064752 
L 47.350372 108.61683 
L 47.588775 102.028157 
L 47.707977 102.328003 
L 47.94638 105.066117 
L 48.065582 103.420003 
L 48.184783 105.545134 
L 48.303985 112.820846 
L 48.542388 107.992107 
L 48.899993 105.60454 
L 49.019195 104.828488 
L 49.257598 107.7249 
L 49.3768 104.75414 
L 49.496002 113.200002 
L 49.734405 99.931587 
L 49.972808 103.314783 
L 50.09201 103.20586 
L 50.211212 104.68818 
L 50.330413 98.992878 
L 50.568817 105.741655 
L 50.688018 97.146409 
L 50.80722 102.560801 
L 50.926422 101.482491 
L 51.045623 97.496967 
L 51.164825 107.122747 
L 51.284027 90.787942 
L 51.403228 90.85789 
L 51.52243 98.772217 
L 51.641632 87.024401 
L 51.760833 89.835991 
L 51.880035 89.809804 
L 51.999237 82.126429 
L 52.118438 90.083384 
L 52.356842 77.224468 
L 52.476043 100.46901 
L 52.595245 71.373772 
L 52.714447 70.265335 
L 52.833648 75.102224 
L 52.95285 60.327758 
L 53.072052 61.635735 
L 53.66806 26.914883 
L 53.787261 26.254466 
L 53.906463 27.169238 
L 54.144866 34.39493 
L 54.264068 42.091079 
L 54.502471 60.065241 
L 54.621673 61.284065 
L 54.740875 82.898118 
L 54.860076 69.793774 
L 54.979278 73.085408 
L 55.09848 89.102222 
L 55.217681 76.625489 
L 55.456085 86.902202 
L 55.575286 82.172159 
L 55.694488 92.512213 
L 55.932891 89.012932 
L 56.052093 104.784223 
L 56.171295 89.867784 
L 56.290496 91.999432 
L 56.409698 115.499786 
L 56.5289 95.741516 
L 56.767303 102.148715 
L 56.886505 98.052517 
L 57.005706 109.386043 
L 57.124908 103.357788 
L 57.24411 104.049045 
L 57.363311 108.747288 
L 57.482513 100.587511 
L 57.720916 108.647559 
L 57.840118 101.491974 
L 57.95932 104.373126 
L 58.078521 116.72191 
L 58.197723 115.896567 
L 58.436126 102.551642 
L 58.555328 103.343659 
L 58.67453 109.210504 
L 58.793731 108.616401 
L 59.151336 99.424981 
L 59.270538 99.37504 
L 59.38974 100.162571 
L 59.508941 100.033648 
L 59.628143 99.15388 
L 59.747344 99.147313 
L 60.343353 108.955389 
L 60.462554 114.730564 
L 60.581756 112.759618 
L 60.820159 105.11573 
L 61.058563 103.860106 
L 61.177764 103.676996 
L 61.296966 104.078925 
L 61.416168 106.354561 
L 61.654571 117.852405 
L 61.892974 110.559612 
L 62.250579 116.270447 
L 62.608184 107.238448 
L 62.727386 107.393574 
L 62.846588 107.032459 
L 63.084991 103.15788 
L 63.204193 103.769518 
L 63.323394 106.8731 
L 63.561798 126.386642 
L 63.800201 107.433909 
L 63.919403 106.310946 
L 64.038604 107.952292 
L 64.157806 112.358945 
L 64.277008 111.926268 
L 64.515411 105.389054 
L 64.753814 102.325302 
L 64.873016 101.783018 
L 64.992218 102.278143 
L 65.111419 104.224441 
L 65.349823 110.856329 
L 65.588226 101.767163 
L 65.707427 100.815539 
L 65.826629 101.611263 
L 66.184234 109.993488 
L 66.422637 114.137757 
L 66.541839 113.588177 
L 66.899444 108.059739 
L 67.018646 107.461067 
L 67.137847 107.925911 
L 67.257049 110.855291 
L 67.376251 121.888677 
L 67.614654 105.070363 
L 67.853057 101.760085 
L 67.972259 102.851739 
L 68.210662 109.681031 
L 68.329864 114.315577 
L 68.449066 113.990178 
L 68.806671 108.710709 
L 68.925872 108.341317 
L 69.045074 108.579112 
L 69.164276 108.182832 
L 69.521881 101.169777 
L 69.641082 100.809604 
L 69.760284 101.776613 
L 69.998687 106.709768 
L 70.237091 114.003355 
L 70.713897 104.394695 
L 70.833099 104.628576 
L 71.190704 110.210471 
L 71.309906 109.392091 
L 71.548309 102.620517 
L 71.667511 104.564719 
L 71.905914 100.345681 
L 72.025115 108.051986 
L 72.144317 98.68527 
L 72.263519 98.965266 
L 72.38272 98.052362 
L 72.501922 87.095176 
L 72.621124 92.848992 
L 72.978729 59.496845 
L 73.217132 53.573694 
L 73.336334 53.168052 
L 73.455535 54.340686 
L 73.693939 62.267089 
L 73.81314 70.743431 
L 73.932342 91.953789 
L 74.051544 85.300232 
L 74.170745 88.225459 
L 74.289947 108.294903 
L 74.409149 100.338164 
L 74.52835 114.165372 
L 74.766754 95.309296 
L 74.885955 97.655756 
L 75.24356 109.408221 
L 75.362762 110.514674 
L 75.481964 119.299276 
L 75.720367 111.513323 
L 75.839569 113.270391 
L 76.077972 106.746805 
L 76.197174 107.553912 
L 76.316375 112.150292 
L 76.435577 123.942202 
L 76.912384 110.996222 
L 77.150787 109.260898 
L 77.269989 109.239141 
L 77.746795 112.526333 
L 78.223602 102.719751 
L 78.342803 105.111678 
L 78.581207 122.486286 
L 78.81961 111.151175 
L 78.938812 113.260063 
L 79.296417 129.21195 
L 79.654022 104.896378 
L 79.773223 103.224956 
L 79.892425 103.589491 
L 80.011627 106.144746 
L 80.25003 114.498748 
L 80.488433 104.615133 
L 80.607635 103.623496 
L 80.846038 103.779428 
L 81.203643 101.798612 
L 81.322845 103.082659 
L 81.561248 107.822743 
L 81.918853 100.470225 
L 82.038055 100.49229 
L 82.514862 103.160948 
L 82.634063 103.549112 
L 82.872467 105.836429 
L 83.230072 111.723533 
L 84.183685 101.702866 
L 84.302886 101.687909 
L 84.422088 102.940777 
L 84.779693 111.604474 
L 85.018096 108.572354 
L 85.2565 109.222464 
L 85.375701 108.513905 
L 85.494903 108.780218 
L 85.614105 111.44974 
L 85.733306 117.576971 
L 85.852508 115.88041 
L 86.090911 109.532019 
L 86.210113 109.84337 
L 86.448516 111.257812 
L 86.68692 108.786827 
L 86.925323 106.983818 
L 87.282928 109.426908 
L 87.640533 104.249005 
L 87.998138 99.539988 
L 88.11734 99.157016 
L 88.236541 99.344506 
L 88.355743 100.14356 
L 88.594146 104.475102 
L 88.83255 112.871155 
L 89.428558 105.636092 
L 89.54776 107.292261 
L 89.786163 118.416797 
L 90.024566 104.22096 
L 90.143768 104.296152 
L 90.382171 110.118927 
L 90.501373 109.488293 
L 90.739776 107.126086 
L 90.858978 108.544807 
L 91.097381 113.496696 
L 91.216583 112.272886 
L 91.335784 108.932881 
L 91.454986 109.664246 
L 91.574188 132.345436 
L 91.693389 109.483409 
L 91.812591 118.719712 
L 92.050994 93.042452 
L 92.170196 104.326172 
L 92.408599 72.575267 
L 92.647003 63.056 
L 92.885406 61.164365 
L 93.004608 62.602403 
L 93.243011 71.241601 
L 93.362213 80.488975 
L 93.481414 107.95048 
L 93.600616 93.31386 
L 93.719818 98.041205 
L 93.839019 114.503602 
L 93.958221 106.356777 
L 94.077423 113.856963 
L 94.196624 111.224176 
L 94.435028 114.409406 
L 94.673431 104.846773 
L 95.031036 111.609484 
L 95.269439 110.388732 
L 95.388641 112.084318 
L 95.507843 118.010351 
L 95.627044 116.47923 
L 95.865448 106.677225 
L 95.984649 107.38691 
L 96.342254 113.990374 
L 96.580657 112.075643 
L 96.699859 112.341551 
L 96.819061 113.77763 
L 96.938262 112.076095 
L 97.176666 106.08567 
L 97.295867 105.810866 
L 97.415069 107.465462 
L 97.653472 116.92869 
L 97.772674 115.955305 
L 98.011077 111.61794 
L 98.130279 113.684133 
L 98.368682 122.075621 
L 98.487884 116.883914 
L 98.726287 119.950804 
L 98.964691 107.55378 
L 99.083892 105.915664 
L 99.203094 106.394605 
L 99.322296 109.12877 
L 99.560699 123.388099 
L 99.799102 113.423873 
L 99.918304 115.177769 
L 100.037506 118.883387 
L 100.275909 117.010645 
L 100.395111 118.936471 
L 100.514312 117.898734 
L 100.752716 109.192864 
L 100.871917 107.905738 
L 100.991119 108.028516 
L 101.229522 111.459225 
L 101.825531 127.344207 
L 102.063934 109.031536 
L 102.302337 105.915614 
L 102.421539 107.742938 
L 102.659942 118.536716 
L 103.017547 112.898203 
L 103.25595 111.891345 
L 103.375152 112.963319 
L 103.613555 116.00703 
L 103.851959 111.242666 
L 103.97116 110.879523 
L 104.090362 111.367811 
L 104.209564 111.31961 
L 104.447967 109.341638 
L 104.567169 109.28323 
L 104.68637 110.569989 
L 104.805572 114.090779 
L 104.924774 121.126767 
L 105.282379 111.413582 
L 105.40158 113.769716 
L 105.520782 120.207249 
L 105.639984 119.093378 
L 105.878387 110.893888 
L 105.997589 110.64189 
L 106.11679 112.609205 
L 106.235992 116.551241 
L 106.355194 115.054026 
L 106.593597 109.514307 
L 106.712799 110.249429 
L 106.832 112.307561 
L 106.951202 111.903091 
L 107.189605 106.949451 
L 107.308807 107.038535 
L 107.428009 109.726513 
L 107.54721 117.431207 
L 107.666412 117.004484 
L 107.904815 107.207693 
L 108.024017 107.282545 
L 108.143219 109.767192 
L 108.381622 117.767669 
L 108.620025 106.023054 
L 108.739227 104.655275 
L 108.858428 105.063562 
L 109.216033 111.259511 
L 109.335235 110.781647 
L 109.454437 112.535928 
L 109.573638 119.768918 
L 110.050445 105.51266 
L 110.169647 106.785401 
L 110.527252 116.166453 
L 110.765655 108.814494 
L 110.884857 109.584174 
L 111.12326 114.689845 
L 111.242462 111.785007 
L 111.600067 99.52653 
L 111.719268 101.526845 
L 111.83847 116.348147 
L 112.076873 86.857899 
L 112.315277 81.434766 
L 112.434478 81.535225 
L 112.55368 83.394205 
L 112.792083 94.607988 
L 112.911285 111.652282 
L 113.149688 101.330552 
L 113.507293 105.297869 
L 113.626495 105.157409 
L 113.745697 105.291287 
L 113.864898 105.732223 
L 113.9841 106.816956 
L 114.222503 111.812792 
L 114.580108 104.323824 
L 114.69931 104.613303 
L 114.818511 106.598625 
L 115.176116 117.111926 
L 115.295318 115.959786 
L 115.41452 116.156083 
L 115.652923 108.357139 
L 115.891326 102.304536 
L 116.010528 101.49435 
L 116.12973 102.048219 
L 116.368133 107.882769 
L 116.606536 125.780365 
L 116.725738 122.44238 
L 116.84494 123.645817 
L 116.964141 127.001925 
L 117.202545 115.591672 
L 117.440948 113.291591 
L 117.798553 107.707615 
L 117.917755 107.950988 
L 118.156158 111.583338 
L 118.394561 118.573911 
L 118.513763 117.435645 
L 118.871368 107.587135 
L 118.99057 106.936802 
L 119.109771 107.613187 
L 119.228973 109.823132 
L 119.467376 122.245287 
L 119.586578 121.074891 
L 119.70578 117.504372 
L 119.824981 119.026332 
L 119.944183 132.70258 
L 120.182586 112.982893 
L 120.301788 110.553602 
L 120.42099 110.472201 
L 120.540191 111.06316 
L 121.016998 103.592387 
L 121.136199 104.610372 
L 121.255401 107.65545 
L 121.374603 114.322682 
L 121.493804 140.571752 
L 121.732208 114.793878 
L 121.851409 116.137767 
L 121.970611 120.644294 
L 122.089813 141.004538 
L 122.328216 111.120983 
L 122.566619 104.606908 
L 122.685821 103.784237 
L 122.805023 104.043624 
L 123.162628 107.85599 
L 123.401031 111.912802 
L 123.520233 116.676486 
L 123.639434 131.988919 
L 123.877838 114.792176 
L 124.116241 112.47267 
L 124.235443 112.68208 
L 124.354644 112.561964 
L 124.473846 112.605573 
L 124.593048 113.895376 
L 124.712249 117.483974 
L 124.950653 140.151699 
L 125.308258 116.464178 
L 125.546661 109.401005 
L 125.665863 108.761044 
L 125.785064 109.474334 
L 126.023468 114.301766 
L 126.261871 121.002258 
L 126.500274 113.713518 
L 126.619476 112.694505 
L 126.738677 113.314296 
L 126.977081 118.573958 
L 127.096282 122.048618 
L 127.453887 109.12446 
L 127.573089 109.007328 
L 127.692291 112.374165 
L 127.811492 129.643082 
L 128.049896 106.663552 
L 128.288299 102.424813 
L 128.407501 102.492362 
L 128.526702 103.846357 
L 128.765106 111.808689 
L 128.884307 119.222739 
L 129.003509 117.57453 
L 129.241912 109.81719 
L 129.361114 108.504599 
L 129.480316 109.743473 
L 129.718719 119.854867 
L 129.957122 107.715056 
L 130.076324 107.792514 
L 130.195526 107.373959 
L 130.433929 104.897162 
L 130.553131 108.886706 
L 130.672332 117.391484 
L 130.791534 107.707889 
L 130.910736 122.722979 
L 131.149139 97.001686 
L 131.268341 98.959181 
L 131.506744 72.003057 
L 131.745147 64.06484 
L 131.864349 62.856699 
L 131.983551 63.219668 
L 132.102752 65.195526 
L 132.341156 75.402635 
L 132.579559 102.637891 
L 132.698761 96.120763 
L 132.937164 111.521783 
L 133.056365 109.656254 
L 133.175567 110.49938 
L 133.294769 106.105515 
L 133.41397 107.054443 
L 133.533172 109.237396 
L 133.652374 108.640678 
L 133.771575 109.511894 
L 134.009979 114.880207 
L 134.367584 112.170772 
L 134.486785 112.635937 
L 134.605987 112.218366 
L 134.84439 111.010164 
L 134.963592 112.586908 
L 135.082794 117.441414 
L 135.201995 129.459558 
L 135.440399 115.068248 
L 135.678802 111.806164 
L 135.917205 113.907322 
L 136.27481 107.446534 
L 136.394012 107.253956 
L 136.513214 108.313288 
L 136.870819 113.141375 
L 137.347625 104.656169 
L 137.466827 104.441426 
L 137.586029 105.30535 
L 138.182037 113.464309 
L 138.539642 108.907122 
L 138.658844 108.95534 
L 138.897247 111.638404 
L 139.13565 114.94713 
L 139.254852 115.156539 
L 139.493255 113.445922 
L 139.731658 111.735584 
L 139.85086 112.052752 
L 140.208465 115.859266 
L 140.56607 111.226739 
L 140.685272 112.395224 
L 140.804473 116.35833 
L 140.923675 129.940596 
L 141.162078 114.006578 
L 141.28128 111.928926 
L 141.400482 112.291694 
L 141.638885 118.379543 
L 141.758087 116.913847 
L 142.115692 109.479893 
L 142.354095 107.906162 
L 142.473297 108.600628 
L 142.830902 113.482944 
L 142.950103 112.680658 
L 143.069305 112.878217 
L 143.307708 114.66203 
L 143.903717 103.91789 
L 144.022918 104.289196 
L 144.261322 108.083131 
L 144.499725 117.364337 
L 144.618927 123.277772 
L 144.85733 109.298433 
L 145.095733 106.823089 
L 145.214935 107.956036 
L 145.810943 120.379501 
L 145.930145 137.243245 
L 146.168548 111.02051 
L 146.28775 108.860208 
L 146.406951 108.807469 
L 146.526153 110.824552 
L 146.645355 116.210384 
L 146.764556 132.330986 
L 147.00296 112.27848 
L 147.122161 111.28621 
L 147.241363 112.293333 
L 147.598968 119.390855 
L 147.837371 116.729672 
L 147.956573 119.920602 
L 148.075775 128.557891 
L 148.314178 115.345753 
L 148.552581 113.13909 
L 148.671783 114.569534 
L 148.910186 125.010951 
L 149.14859 136.798333 
L 149.506195 112.909912 
L 149.8638 106.752317 
L 149.983001 106.842358 
L 150.102203 107.737473 
L 150.340606 106.626497 
L 150.459808 113.085174 
L 150.698211 107.90504 
L 150.817413 102.389706 
L 151.055816 79.777837 
L 151.294219 72.526267 
L 151.413421 71.574985 
L 151.532623 72.184383 
L 151.771026 78.56944 
L 152.605438 124.703352 
L 152.843841 109.638414 
L 153.082244 107.57063 
L 153.201446 107.668472 
L 153.439849 109.898138 
L 153.559051 109.704135 
L 153.797454 107.838371 
L 153.916656 108.360938 
L 154.155059 114.53551 
L 154.274261 118.673645 
L 154.393463 117.865806 
L 154.751068 111.207889 
L 154.989471 109.304843 
L 155.108673 110.05231 
L 155.347076 116.567048 
L 155.823883 104.492003 
L 155.943084 104.801058 
L 156.300689 110.42444 
L 156.539093 109.256769 
L 156.658294 109.987891 
L 156.896698 114.13917 
L 157.135101 128.309974 
L 157.373504 109.145751 
L 157.492706 107.600556 
L 157.611907 108.127312 
L 158.088714 115.47234 
L 158.207916 115.227523 
L 158.327117 114.524995 
L 158.684722 109.968439 
L 158.803924 110.182743 
L 159.161529 111.92236 
L 159.280731 111.415789 
L 159.638336 104.998294 
L 159.757537 105.928283 
L 159.876739 109.582825 
L 159.995941 118.748515 
L 160.115142 115.861776 
L 160.353546 108.826555 
L 160.472747 109.589281 
L 160.830352 114.267666 
L 161.068756 115.013452 
L 161.187957 115.334622 
L 161.307159 115.21041 
L 161.783966 105.889805 
L 161.903167 106.082983 
L 162.141571 109.628844 
L 162.379974 113.134622 
L 162.737579 111.620881 
L 162.856781 112.673258 
L 163.095184 119.813669 
L 163.214386 118.771895 
L 163.452789 109.241135 
L 163.691192 106.36866 
L 163.810394 106.795722 
L 163.929595 108.625719 
L 164.048797 112.561022 
L 164.2872 122.341874 
L 164.525604 110.770229 
L 164.644805 109.597845 
L 164.764007 109.655231 
L 165.00241 112.07638 
L 165.240814 115.003082 
L 165.360015 114.755559 
L 165.956024 104.297975 
L 166.075225 104.311151 
L 166.313629 106.792753 
L 166.552032 112.401745 
L 166.790435 127.097465 
L 167.028839 110.52019 
L 167.267242 107.54712 
L 167.386444 108.038903 
L 167.505645 110.13167 
L 167.744049 121.450299 
L 167.982452 118.311653 
L 168.101654 121.28644 
L 168.220855 120.025628 
L 168.459259 111.014265 
L 168.57846 110.342732 
L 168.816864 116.391122 
L 168.936065 122.354485 
L 169.29367 110.28784 
L 169.532073 121.231464 
L 169.770477 102.525877 
L 169.889678 102.275068 
L 170.00888 114.554855 
L 170.128082 96.003835 
L 170.247283 96.624086 
L 170.366485 89.540854 
L 170.604888 68.625536 
L 170.843292 61.913 
L 170.962493 61.190935 
L 171.081695 62.041423 
L 171.320098 69.100091 
L 171.4393 76.647667 
L 171.677703 94.377605 
L 171.796905 94.845229 
L 171.916107 106.7063 
L 172.035308 105.506053 
L 172.15451 107.456982 
L 172.273712 121.026962 
L 172.631317 106.7502 
L 172.750518 104.731614 
L 172.86972 105.119069 
L 173.108123 107.99808 
L 173.346527 117.486956 
L 173.465728 124.05774 
L 173.704132 116.833552 
L 173.942535 115.317695 
L 174.061737 115.107442 
L 174.180938 115.563383 
L 174.30014 116.715008 
L 174.419342 119.807319 
L 174.538543 128.496742 
L 174.657745 127.506235 
L 174.896148 118.843281 
L 175.372955 110.707104 
L 175.492157 111.7136 
L 175.611358 116.058202 
L 175.73056 131.229955 
L 175.968963 114.163251 
L 176.088165 115.463479 
L 176.207366 124.463698 
L 176.326568 122.734144 
L 176.564971 112.260263 
L 176.684173 112.641144 
L 177.041778 116.95425 
L 177.280181 119.177014 
L 177.399383 118.151237 
L 177.756988 111.26162 
L 177.87619 111.034786 
L 178.114593 113.669882 
L 178.472198 110.703671 
L 178.710601 110.499489 
L 178.829803 111.846851 
L 178.949005 116.249111 
L 179.068206 131.966491 
L 179.30661 113.912641 
L 179.664215 105.989235 
L 179.783416 105.441222 
L 179.902618 106.028988 
L 180.379425 111.353696 
L 180.498626 111.123694 
L 180.617828 111.725908 
L 180.856231 117.248568 
L 181.094635 122.777824 
L 181.690643 109.582426 
L 181.809844 109.297495 
L 181.929046 109.661626 
L 182.167449 111.190593 
L 182.525054 108.611347 
L 182.644256 109.23513 
L 182.882659 114.637796 
L 183.121063 130.397551 
L 183.359466 117.412393 
L 183.597869 114.02766 
L 183.717071 113.760553 
L 183.836273 114.211744 
L 184.074676 117.945359 
L 184.193878 120.080026 
L 184.670684 106.316385 
L 184.789886 106.203621 
L 184.909088 107.536188 
L 185.147491 113.311118 
L 185.266693 113.246015 
L 185.505096 109.590332 
L 185.624298 109.743876 
L 186.101104 115.116372 
L 186.339508 122.277271 
L 186.577911 110.460503 
L 186.816314 107.385756 
L 187.054718 106.283947 
L 187.173919 106.199672 
L 187.531524 106.772179 
L 187.650726 107.579285 
L 187.769927 110.049592 
L 188.008331 125.430828 
L 188.127532 122.500035 
L 188.365936 110.204702 
L 188.485137 109.394897 
L 188.723541 113.807585 
L 189.081146 106.953027 
L 189.200347 117.938631 
L 189.319549 104.860411 
L 189.438751 104.519496 
L 189.557952 105.296967 
L 189.677154 93.765088 
L 189.796356 97.558466 
L 190.153961 66.57908 
L 190.392364 60.47453 
L 190.511566 60.000339 
L 190.630767 61.105709 
L 190.869171 68.860342 
L 190.988372 77.158607 
L 191.107574 97.024107 
L 191.226776 92.140339 
L 191.345977 94.534018 
L 191.465179 111.307526 
L 191.584381 107.066803 
L 191.703582 115.407058 
L 191.941986 105.996604 
L 192.061187 108.275815 
L 192.180389 108.154371 
L 192.299591 107.497937 
L 192.537994 112.110365 
L 192.657196 110.359212 
L 192.895599 105.772572 
L 193.014801 107.246326 
L 193.372406 115.565675 
L 193.610809 113.806678 
L 193.730011 113.863284 
L 193.849212 115.298129 
L 194.087615 123.371256 
L 194.326019 113.462497 
L 194.44522 112.25539 
L 194.564422 112.81285 
L 194.683624 115.305426 
L 194.802825 121.418079 
L 194.922027 135.369239 
L 195.16043 111.64103 
L 195.398834 106.329593 
L 195.518035 105.912473 
L 195.87564 108.315351 
L 196.114044 107.123817 
L 196.233245 107.852154 
L 196.352447 110.355122 
L 196.59085 118.321645 
L 196.829254 109.01143 
L 196.948455 108.290147 
L 197.067657 109.269192 
L 197.30606 116.197199 
L 197.425262 121.29249 
L 197.544464 120.387054 
L 197.782867 116.718552 
L 198.140472 104.705385 
L 198.259674 103.544364 
L 198.378875 103.900705 
L 198.617279 108.733314 
L 199.094085 125.281243 
L 199.332489 121.695127 
L 199.45169 122.518045 
L 199.690094 125.704835 
L 199.809295 123.964875 
L 200.405303 109.669944 
L 200.524505 108.665547 
L 200.643707 108.702627 
L 200.762908 110.012257 
L 201.001312 117.812012 
L 201.239715 129.903562 
L 201.59732 116.061883 
L 201.716522 115.491721 
L 201.835723 118.116881 
L 201.954925 128.670076 
L 202.431732 113.738345 
L 203.02774 117.667612 
L 203.266143 123.452563 
L 203.504547 131.78837 
L 203.623748 129.161098 
L 204.219757 106.306679 
L 204.338958 104.901418 
L 204.45816 104.912201 
L 204.696563 108.823908 
L 205.054168 121.968571 
L 205.17337 129.063945 
L 205.292572 127.036231 
L 205.530975 116.662927 
L 205.650177 115.172317 
L 205.769378 115.108801 
L 205.88858 115.492239 
L 206.126983 114.826387 
L 206.246185 115.751885 
L 206.484588 125.122846 
L 206.60379 130.397458 
L 206.722991 127.814088 
L 206.961395 116.257776 
L 207.199798 113.112003 
L 207.319 113.035233 
L 207.438201 113.822237 
L 207.676605 118.627092 
L 207.915008 127.79339 
L 208.03421 125.425331 
L 208.272613 113.171274 
L 208.511016 126.965079 
L 208.630218 119.697234 
L 208.74942 119.7003 
L 208.868621 110.090144 
L 208.987823 113.988508 
L 209.226226 96.598363 
L 209.345428 104.120269 
L 209.583831 76.923107 
L 209.822235 67.069805 
L 210.060638 65.015402 
L 210.17984 66.386385 
L 210.418243 74.921509 
L 210.537445 84.246598 
L 210.656646 113.483629 
L 210.775848 95.293231 
L 210.89505 98.893828 
L 211.133453 116.938821 
L 211.252655 115.132546 
L 211.491058 104.414272 
L 211.61026 106.337811 
L 211.967865 121.864842 
L 212.087066 144.126965 
L 212.325469 114.714485 
L 212.444671 113.409522 
L 212.563873 113.942283 
L 212.683074 113.676929 
L 213.159881 108.40029 
L 213.279083 108.000689 
L 213.398284 108.359597 
L 213.755889 110.836348 
L 213.994293 108.525598 
L 214.232696 105.86245 
L 214.351898 106.008666 
L 214.471099 107.745133 
L 214.828704 122.308878 
L 215.067108 115.154963 
L 215.782318 105.343657 
L 215.901519 106.209197 
L 216.139923 114.156403 
L 216.259124 112.479653 
L 216.497528 106.839667 
L 216.616729 107.63548 
L 216.855133 112.774897 
L 217.093536 110.682446 
L 217.212738 110.881435 
L 217.331939 111.392959 
L 217.689544 109.265997 
L 217.808746 110.148976 
L 218.047149 115.999639 
L 218.166351 120.781947 
L 218.285552 121.104586 
L 218.643157 112.542183 
L 218.762359 112.087306 
L 218.881561 112.593638 
L 219.119964 116.098757 
L 219.358367 123.206567 
L 219.477569 128.061612 
L 219.596771 126.949653 
L 219.835174 119.943677 
L 220.431182 113.959904 
L 220.669586 111.834234 
L 220.907989 110.934097 
L 221.027191 111.213293 
L 221.384796 115.288756 
L 221.623199 111.464181 
L 221.742401 111.735213 
L 221.861602 114.261618 
L 222.100006 127.630263 
L 222.338409 121.680959 
L 222.457611 122.740019 
L 222.696014 117.544791 
L 222.815216 118.09494 
L 222.934417 117.993278 
L 223.172821 110.820873 
L 223.292022 110.175634 
L 223.411224 111.978264 
L 223.530426 117.409666 
L 223.649627 135.656755 
L 223.888031 112.897603 
L 224.126434 110.004418 
L 224.245636 109.955333 
L 224.484039 111.186724 
L 225.080047 115.960968 
L 225.437652 122.065618 
L 225.556854 121.128917 
L 225.676055 121.283522 
L 225.795257 122.162745 
L 226.152862 112.99687 
L 226.272064 114.47389 
L 226.510467 126.526879 
L 226.74887 111.891725 
L 226.868072 110.303388 
L 226.987274 110.487872 
L 227.106475 113.143228 
L 227.225677 121.715429 
L 227.344879 119.60721 
L 227.583282 111.572586 
L 227.821685 114.599106 
L 228.060089 111.923887 
L 228.17929 113.827376 
L 228.298492 118.398905 
L 228.417694 110.78803 
L 228.536895 110.436896 
L 228.656097 110.708774 
L 228.775299 105.276969 
L 228.8945 117.433063 
L 229.132904 81.089027 
L 229.371307 72.118435 
L 229.490509 70.548482 
L 229.60971 70.573994 
L 229.728912 72.201306 
L 229.967315 81.41602 
L 230.086517 91.368855 
L 230.205719 120.943925 
L 230.32492 103.647379 
L 230.563323 115.358928 
L 230.682525 112.237682 
L 230.801727 116.644741 
L 230.920928 114.837081 
L 231.04013 115.519006 
L 231.159332 115.231969 
L 231.397735 109.355481 
L 231.516937 109.70992 
L 231.874542 113.578008 
L 231.993743 116.217436 
L 232.112945 121.609929 
L 232.232147 121.42788 
L 232.47055 114.516855 
L 232.589752 115.960336 
L 232.828155 124.559997 
L 233.18576 112.194739 
L 233.304962 111.37401 
L 233.424163 112.313735 
L 233.781768 119.15344 
L 234.020172 125.791829 
L 234.258575 116.99934 
L 234.496978 112.692297 
L 234.735382 109.227256 
L 234.854583 109.671361 
L 235.092987 114.366776 
L 235.33139 117.3239 
L 235.688995 115.661834 
L 235.808197 115.440687 
L 235.927398 115.747522 
L 236.0466 117.273202 
L 236.165802 121.23139 
L 236.285003 132.561118 
L 236.642608 114.517254 
L 236.881011 112.166682 
L 237.000213 112.685316 
L 237.357818 118.018146 
L 237.47702 117.385234 
L 237.596221 117.76795 
L 237.715423 120.298806 
L 237.953826 129.544532 
L 238.19223 118.925126 
L 238.549835 114.229964 
L 238.90744 110.555369 
L 239.026641 110.207555 
L 239.145843 110.817994 
L 239.384246 115.593391 
L 239.384246 115.593391 
" clip-path="url(#pc670d359b0)" style="fill: none; stroke: #4477aa; stroke-linecap: square"/>
   </g>
   <g id="patch_3">
    <path d="M 44.012725 152.589249 
L 44.012725 7.059249 
" style="fill: none; stroke: #000000; stroke-width: 0.5; stroke-linejoin: miter; stroke-linecap: square"/>
   </g>
   <g id="patch_4">
    <path d="M 239.312725 152.589249 
L 239.312725 7.059249 
" style="fill: none; stroke: #000000; stroke-width: 0.5; stroke-linejoin: miter; stroke-linecap: square"/>
   </g>
   <g id="patch_5">
    <path d="M 44.012725 152.589249 
L 239.312725 152.589249 
" style="fill: none; stroke: #000000; stroke-width: 0.5; stroke-linejoin: miter; stroke-linecap: square"/>
   </g>
   <g id="patch_6">
    <path d="M 44.012725 7.059249 
L 239.312725 7.059249 
" style="fill: none; stroke: #000000; stroke-width: 0.5; stroke-linejoin: miter; stroke-linecap: square"/>
   </g>
  </g>
 </g>
 <defs>
  <clipPath id="pc670d359b0">
   <rect x="44.012725" y="7.059249" width="195.3" height="145.53"/>
  </clipPath>
 </defs>
</svg>
