<?xml version="1.0" encoding="utf-8" standalone="no"?>
<!DOCTYPE svg PUBLIC "-//W3C//DTD SVG 1.1//EN"
  "http://www.w3.org/Graphics/SVG/1.1/DTD/svg11.dtd">
<svg xmlns:xlink="http://www.w3.org/1999/xlink" width="250.384728pt" height="186.891106pt" viewBox="0 0 250.384728 186.891106" xmlns="http://www.w3.org/2000/svg" version="1.1">
 <metadata>
  <rdf:RDF xmlns:dc="http://purl.org/dc/elements/1.1/" xmlns:cc="http://creativecommons.org/ns#" xmlns:rdf="http://www.w3.org/1999/02/22-rdf-syntax-ns#">
   <cc:Work>
    <dc:type rdf:resource="http://purl.org/dc/dcmitype/StillImage"/>
    <dc:date>2025-03-14T12:24:27.639777</dc:date>
    <dc:format>image/svg+xml</dc:format>
    <dc:creator>
     <cc:Agent>
      <dc:title>Matplotlib v3.9.2, https://matplotlib.org/</dc:title>
     </cc:Agent>
    </dc:creator>
   </cc:Work>
  </rdf:RDF>
 </metadata>
 <defs>
  <style type="text/css">*{stroke-linejoin: round; stroke-linecap: butt}</style>
 </defs>
 <g id="figure_1">
  <g id="patch_1">
   <path d="M -0 186.891106 
L 250.384728 186.891106 
L 250.384728 0 
L -0 0 
L -0 186.891106 
z
" style="fill: none"/>
  </g>
  <g id="axes_1">
   <g id="patch_2">
    <path d="M 44.012725 152.589249 
L 239.312725 152.589249 
L 239.312725 7.059249 
L 44.012725 7.059249 
L 44.012725 152.589249 
z
" style="fill: none"/>
   </g>
   <g id="matplotlib.axis_1">
    <g id="xtick_1">
     <g id="line2d_1">
      <path d="M 44.012725 152.589249 
L 44.012725 7.059249 
" clip-path="url(#p257115e4d6)" style="fill: none; stroke-dasharray: 1.85,0.8; stroke-dashoffset: 0; stroke: #000000; stroke-opacity: 0.5; stroke-width: 0.5"/>
     </g>
     <g id="line2d_2">
      <defs>
       <path id="ma73b18c3bc" d="M 0 0 
L 0 -3 
" style="stroke: #000000; stroke-width: 0.5"/>
      </defs>
      <g>
       <use xlink:href="#ma73b18c3bc" x="44.012725" y="152.589249" style="stroke: #000000; stroke-width: 0.5"/>
      </g>
     </g>
     <g id="line2d_3">
      <defs>
       <path id="m78173053b0" d="M 0 0 
L 0 3 
" style="stroke: #000000; stroke-width: 0.5"/>
      </defs>
      <g>
       <use xlink:href="#m78173053b0" x="44.012725" y="7.059249" style="stroke: #000000; stroke-width: 0.5"/>
      </g>
     </g>
     <g id="text_1">
      <!-- $\mathdefault{0}$ -->
      <g transform="translate(41.522058 163.007748) scale(0.1 -0.1)">
       <defs>
        <path id="CMR17-30" d="M 2688 2025 
C 2688 2416 2682 3080 2413 3591 
C 2176 4039 1798 4198 1466 4198 
C 1158 4198 768 4058 525 3597 
C 269 3118 243 2524 243 2025 
C 243 1661 250 1106 448 619 
C 723 -39 1216 -128 1466 -128 
C 1760 -128 2208 -7 2470 600 
C 2662 1042 2688 1559 2688 2025 
z
M 1466 -26 
C 1056 -26 813 325 723 812 
C 653 1188 653 1738 653 2096 
C 653 2588 653 2997 736 3387 
C 858 3929 1216 4096 1466 4096 
C 1728 4096 2067 3923 2189 3400 
C 2272 3036 2278 2607 2278 2096 
C 2278 1680 2278 1169 2202 792 
C 2067 95 1690 -26 1466 -26 
z
" transform="scale(0.015625)"/>
       </defs>
       <use xlink:href="#CMR17-30" transform="scale(0.996264)"/>
      </g>
     </g>
    </g>
    <g id="xtick_2">
     <g id="line2d_4">
      <path d="M 76.562725 152.589249 
L 76.562725 7.059249 
" clip-path="url(#p257115e4d6)" style="fill: none; stroke-dasharray: 1.85,0.8; stroke-dashoffset: 0; stroke: #000000; stroke-opacity: 0.5; stroke-width: 0.5"/>
     </g>
     <g id="line2d_5">
      <g>
       <use xlink:href="#ma73b18c3bc" x="76.562725" y="152.589249" style="stroke: #000000; stroke-width: 0.5"/>
      </g>
     </g>
     <g id="line2d_6">
      <g>
       <use xlink:href="#m78173053b0" x="76.562725" y="7.059249" style="stroke: #000000; stroke-width: 0.5"/>
      </g>
     </g>
     <g id="text_2">
      <!-- $\mathdefault{100}$ -->
      <g transform="translate(69.090722 163.007748) scale(0.1 -0.1)">
       <defs>
        <path id="CMR17-31" d="M 1702 4058 
C 1702 4192 1696 4192 1606 4192 
C 1357 3916 979 3827 621 3827 
C 602 3827 570 3827 563 3808 
C 557 3795 557 3782 557 3648 
C 755 3648 1088 3686 1344 3839 
L 1344 461 
C 1344 236 1331 160 781 160 
L 589 160 
L 589 0 
C 896 0 1216 0 1523 0 
C 1830 0 2150 0 2458 0 
L 2458 160 
L 2266 160 
C 1715 160 1702 230 1702 458 
L 1702 4058 
z
" transform="scale(0.015625)"/>
       </defs>
       <use xlink:href="#CMR17-31" transform="scale(0.996264)"/>
       <use xlink:href="#CMR17-30" transform="translate(45.690477 0) scale(0.996264)"/>
       <use xlink:href="#CMR17-30" transform="translate(91.380954 0) scale(0.996264)"/>
      </g>
     </g>
    </g>
    <g id="xtick_3">
     <g id="line2d_7">
      <path d="M 109.112725 152.589249 
L 109.112725 7.059249 
" clip-path="url(#p257115e4d6)" style="fill: none; stroke-dasharray: 1.85,0.8; stroke-dashoffset: 0; stroke: #000000; stroke-opacity: 0.5; stroke-width: 0.5"/>
     </g>
     <g id="line2d_8">
      <g>
       <use xlink:href="#ma73b18c3bc" x="109.112725" y="152.589249" style="stroke: #000000; stroke-width: 0.5"/>
      </g>
     </g>
     <g id="line2d_9">
      <g>
       <use xlink:href="#m78173053b0" x="109.112725" y="7.059249" style="stroke: #000000; stroke-width: 0.5"/>
      </g>
     </g>
     <g id="text_3">
      <!-- $\mathdefault{200}$ -->
      <g transform="translate(101.640722 163.007748) scale(0.1 -0.1)">
       <defs>
        <path id="CMR17-32" d="M 2669 989 
L 2554 989 
C 2490 536 2438 459 2413 420 
C 2381 369 1920 369 1830 369 
L 602 369 
C 832 619 1280 1072 1824 1597 
C 2214 1967 2669 2402 2669 3035 
C 2669 3790 2067 4224 1395 4224 
C 691 4224 262 3604 262 3030 
C 262 2780 448 2748 525 2748 
C 589 2748 781 2787 781 3010 
C 781 3207 614 3264 525 3264 
C 486 3264 448 3258 422 3245 
C 544 3790 915 4058 1306 4058 
C 1862 4058 2227 3617 2227 3035 
C 2227 2479 1901 2000 1536 1584 
L 262 146 
L 262 0 
L 2515 0 
L 2669 989 
z
" transform="scale(0.015625)"/>
       </defs>
       <use xlink:href="#CMR17-32" transform="scale(0.996264)"/>
       <use xlink:href="#CMR17-30" transform="translate(45.690477 0) scale(0.996264)"/>
       <use xlink:href="#CMR17-30" transform="translate(91.380954 0) scale(0.996264)"/>
      </g>
     </g>
    </g>
    <g id="xtick_4">
     <g id="line2d_10">
      <path d="M 141.662725 152.589249 
L 141.662725 7.059249 
" clip-path="url(#p257115e4d6)" style="fill: none; stroke-dasharray: 1.85,0.8; stroke-dashoffset: 0; stroke: #000000; stroke-opacity: 0.5; stroke-width: 0.5"/>
     </g>
     <g id="line2d_11">
      <g>
       <use xlink:href="#ma73b18c3bc" x="141.662725" y="152.589249" style="stroke: #000000; stroke-width: 0.5"/>
      </g>
     </g>
     <g id="line2d_12">
      <g>
       <use xlink:href="#m78173053b0" x="141.662725" y="7.059249" style="stroke: #000000; stroke-width: 0.5"/>
      </g>
     </g>
     <g id="text_4">
      <!-- $\mathdefault{300}$ -->
      <g transform="translate(134.190722 163.007748) scale(0.1 -0.1)">
       <defs>
        <path id="CMR17-33" d="M 1414 2157 
C 1984 2157 2234 1662 2234 1090 
C 2234 320 1824 25 1453 25 
C 1114 25 563 194 390 693 
C 422 680 454 680 486 680 
C 640 680 755 782 755 948 
C 755 1133 614 1216 486 1216 
C 378 1216 211 1165 211 926 
C 211 335 787 -128 1466 -128 
C 2176 -128 2720 430 2720 1085 
C 2720 1707 2208 2157 1600 2227 
C 2086 2328 2554 2756 2554 3329 
C 2554 3820 2048 4179 1472 4179 
C 890 4179 378 3829 378 3329 
C 378 3110 544 3072 627 3072 
C 762 3072 877 3155 877 3321 
C 877 3486 762 3569 627 3569 
C 602 3569 570 3569 544 3557 
C 730 3959 1235 4032 1459 4032 
C 1683 4032 2106 3925 2106 3320 
C 2106 3143 2080 2828 1862 2550 
C 1670 2304 1453 2304 1242 2284 
C 1210 2284 1062 2269 1037 2269 
C 992 2263 966 2257 966 2208 
C 966 2163 973 2157 1101 2157 
L 1414 2157 
z
" transform="scale(0.015625)"/>
       </defs>
       <use xlink:href="#CMR17-33" transform="scale(0.996264)"/>
       <use xlink:href="#CMR17-30" transform="translate(45.690477 0) scale(0.996264)"/>
       <use xlink:href="#CMR17-30" transform="translate(91.380954 0) scale(0.996264)"/>
      </g>
     </g>
    </g>
    <g id="xtick_5">
     <g id="line2d_13">
      <path d="M 174.212725 152.589249 
L 174.212725 7.059249 
" clip-path="url(#p257115e4d6)" style="fill: none; stroke-dasharray: 1.85,0.8; stroke-dashoffset: 0; stroke: #000000; stroke-opacity: 0.5; stroke-width: 0.5"/>
     </g>
     <g id="line2d_14">
      <g>
       <use xlink:href="#ma73b18c3bc" x="174.212725" y="152.589249" style="stroke: #000000; stroke-width: 0.5"/>
      </g>
     </g>
     <g id="line2d_15">
      <g>
       <use xlink:href="#m78173053b0" x="174.212725" y="7.059249" style="stroke: #000000; stroke-width: 0.5"/>
      </g>
     </g>
     <g id="text_5">
      <!-- $\mathdefault{400}$ -->
      <g transform="translate(166.740722 163.007748) scale(0.1 -0.1)">
       <defs>
        <path id="CMR17-34" d="M 2150 4122 
C 2150 4256 2144 4256 2029 4256 
L 128 1254 
L 128 1088 
L 1779 1088 
L 1779 457 
C 1779 224 1766 160 1318 160 
L 1197 160 
L 1197 0 
C 1402 0 1747 0 1965 0 
C 2182 0 2528 0 2733 0 
L 2733 160 
L 2611 160 
C 2163 160 2150 224 2150 457 
L 2150 1088 
L 2803 1088 
L 2803 1254 
L 2150 1254 
L 2150 4122 
z
M 1798 3703 
L 1798 1254 
L 256 1254 
L 1798 3703 
z
" transform="scale(0.015625)"/>
       </defs>
       <use xlink:href="#CMR17-34" transform="scale(0.996264)"/>
       <use xlink:href="#CMR17-30" transform="translate(45.690477 0) scale(0.996264)"/>
       <use xlink:href="#CMR17-30" transform="translate(91.380954 0) scale(0.996264)"/>
      </g>
     </g>
    </g>
    <g id="xtick_6">
     <g id="line2d_16">
      <path d="M 206.762725 152.589249 
L 206.762725 7.059249 
" clip-path="url(#p257115e4d6)" style="fill: none; stroke-dasharray: 1.85,0.8; stroke-dashoffset: 0; stroke: #000000; stroke-opacity: 0.5; stroke-width: 0.5"/>
     </g>
     <g id="line2d_17">
      <g>
       <use xlink:href="#ma73b18c3bc" x="206.762725" y="152.589249" style="stroke: #000000; stroke-width: 0.5"/>
      </g>
     </g>
     <g id="line2d_18">
      <g>
       <use xlink:href="#m78173053b0" x="206.762725" y="7.059249" style="stroke: #000000; stroke-width: 0.5"/>
      </g>
     </g>
     <g id="text_6">
      <!-- $\mathdefault{500}$ -->
      <g transform="translate(199.290722 163.007748) scale(0.1 -0.1)">
       <defs>
        <path id="CMR17-35" d="M 730 3692 
C 794 3666 1056 3584 1325 3584 
C 1920 3584 2246 3911 2432 4100 
C 2432 4157 2432 4192 2394 4192 
C 2387 4192 2374 4192 2323 4163 
C 2099 4058 1837 3973 1517 3973 
C 1325 3973 1037 3999 723 4139 
C 653 4171 640 4171 634 4171 
C 602 4171 595 4164 595 4037 
L 595 2203 
C 595 2089 595 2057 659 2057 
C 691 2057 704 2070 736 2114 
C 941 2401 1222 2522 1542 2522 
C 1766 2522 2246 2382 2246 1289 
C 2246 1085 2246 715 2054 421 
C 1894 159 1645 25 1370 25 
C 947 25 518 320 403 814 
C 429 807 480 795 506 795 
C 589 795 749 840 749 1038 
C 749 1210 627 1280 506 1280 
C 358 1280 262 1190 262 1011 
C 262 454 704 -128 1382 -128 
C 2042 -128 2669 440 2669 1264 
C 2669 2030 2170 2624 1549 2624 
C 1222 2624 947 2503 730 2274 
L 730 3692 
z
" transform="scale(0.015625)"/>
       </defs>
       <use xlink:href="#CMR17-35" transform="scale(0.996264)"/>
       <use xlink:href="#CMR17-30" transform="translate(45.690477 0) scale(0.996264)"/>
       <use xlink:href="#CMR17-30" transform="translate(91.380954 0) scale(0.996264)"/>
      </g>
     </g>
    </g>
    <g id="xtick_7">
     <g id="line2d_19">
      <path d="M 239.312725 152.589249 
L 239.312725 7.059249 
" clip-path="url(#p257115e4d6)" style="fill: none; stroke-dasharray: 1.85,0.8; stroke-dashoffset: 0; stroke: #000000; stroke-opacity: 0.5; stroke-width: 0.5"/>
     </g>
     <g id="line2d_20">
      <g>
       <use xlink:href="#ma73b18c3bc" x="239.312725" y="152.589249" style="stroke: #000000; stroke-width: 0.5"/>
      </g>
     </g>
     <g id="line2d_21">
      <g>
       <use xlink:href="#m78173053b0" x="239.312725" y="7.059249" style="stroke: #000000; stroke-width: 0.5"/>
      </g>
     </g>
     <g id="text_7">
      <!-- $\mathdefault{600}$ -->
      <g transform="translate(231.840722 163.007748) scale(0.1 -0.1)">
       <defs>
        <path id="CMR17-36" d="M 678 2176 
C 678 3690 1395 4032 1811 4032 
C 1946 4032 2272 4009 2400 3776 
C 2298 3776 2106 3776 2106 3553 
C 2106 3381 2246 3323 2336 3323 
C 2394 3323 2566 3348 2566 3560 
C 2566 3954 2246 4179 1805 4179 
C 1043 4179 243 3390 243 1984 
C 243 253 966 -128 1478 -128 
C 2099 -128 2688 427 2688 1283 
C 2688 2081 2170 2662 1517 2662 
C 1126 2662 838 2407 678 1960 
L 678 2176 
z
M 1478 25 
C 691 25 691 1200 691 1436 
C 691 1896 909 2560 1504 2560 
C 1613 2560 1926 2560 2138 2120 
C 2253 1870 2253 1609 2253 1289 
C 2253 944 2253 690 2118 434 
C 1978 171 1773 25 1478 25 
z
" transform="scale(0.015625)"/>
       </defs>
       <use xlink:href="#CMR17-36" transform="scale(0.996264)"/>
       <use xlink:href="#CMR17-30" transform="translate(45.690477 0) scale(0.996264)"/>
       <use xlink:href="#CMR17-30" transform="translate(91.380954 0) scale(0.996264)"/>
      </g>
     </g>
    </g>
    <g id="xtick_8">
     <g id="line2d_22">
      <defs>
       <path id="m50dee5a7fa" d="M 0 0 
L 0 -1.5 
" style="stroke: #000000; stroke-width: 0.5"/>
      </defs>
      <g>
       <use xlink:href="#m50dee5a7fa" x="50.522725" y="152.589249" style="stroke: #000000; stroke-width: 0.5"/>
      </g>
     </g>
     <g id="line2d_23">
      <defs>
       <path id="m34a8d548c9" d="M 0 0 
L 0 1.5 
" style="stroke: #000000; stroke-width: 0.5"/>
      </defs>
      <g>
       <use xlink:href="#m34a8d548c9" x="50.522725" y="7.059249" style="stroke: #000000; stroke-width: 0.5"/>
      </g>
     </g>
    </g>
    <g id="xtick_9">
     <g id="line2d_24">
      <g>
       <use xlink:href="#m50dee5a7fa" x="57.032725" y="152.589249" style="stroke: #000000; stroke-width: 0.5"/>
      </g>
     </g>
     <g id="line2d_25">
      <g>
       <use xlink:href="#m34a8d548c9" x="57.032725" y="7.059249" style="stroke: #000000; stroke-width: 0.5"/>
      </g>
     </g>
    </g>
    <g id="xtick_10">
     <g id="line2d_26">
      <g>
       <use xlink:href="#m50dee5a7fa" x="63.542725" y="152.589249" style="stroke: #000000; stroke-width: 0.5"/>
      </g>
     </g>
     <g id="line2d_27">
      <g>
       <use xlink:href="#m34a8d548c9" x="63.542725" y="7.059249" style="stroke: #000000; stroke-width: 0.5"/>
      </g>
     </g>
    </g>
    <g id="xtick_11">
     <g id="line2d_28">
      <g>
       <use xlink:href="#m50dee5a7fa" x="70.052725" y="152.589249" style="stroke: #000000; stroke-width: 0.5"/>
      </g>
     </g>
     <g id="line2d_29">
      <g>
       <use xlink:href="#m34a8d548c9" x="70.052725" y="7.059249" style="stroke: #000000; stroke-width: 0.5"/>
      </g>
     </g>
    </g>
    <g id="xtick_12">
     <g id="line2d_30">
      <g>
       <use xlink:href="#m50dee5a7fa" x="83.072725" y="152.589249" style="stroke: #000000; stroke-width: 0.5"/>
      </g>
     </g>
     <g id="line2d_31">
      <g>
       <use xlink:href="#m34a8d548c9" x="83.072725" y="7.059249" style="stroke: #000000; stroke-width: 0.5"/>
      </g>
     </g>
    </g>
    <g id="xtick_13">
     <g id="line2d_32">
      <g>
       <use xlink:href="#m50dee5a7fa" x="89.582725" y="152.589249" style="stroke: #000000; stroke-width: 0.5"/>
      </g>
     </g>
     <g id="line2d_33">
      <g>
       <use xlink:href="#m34a8d548c9" x="89.582725" y="7.059249" style="stroke: #000000; stroke-width: 0.5"/>
      </g>
     </g>
    </g>
    <g id="xtick_14">
     <g id="line2d_34">
      <g>
       <use xlink:href="#m50dee5a7fa" x="96.092725" y="152.589249" style="stroke: #000000; stroke-width: 0.5"/>
      </g>
     </g>
     <g id="line2d_35">
      <g>
       <use xlink:href="#m34a8d548c9" x="96.092725" y="7.059249" style="stroke: #000000; stroke-width: 0.5"/>
      </g>
     </g>
    </g>
    <g id="xtick_15">
     <g id="line2d_36">
      <g>
       <use xlink:href="#m50dee5a7fa" x="102.602725" y="152.589249" style="stroke: #000000; stroke-width: 0.5"/>
      </g>
     </g>
     <g id="line2d_37">
      <g>
       <use xlink:href="#m34a8d548c9" x="102.602725" y="7.059249" style="stroke: #000000; stroke-width: 0.5"/>
      </g>
     </g>
    </g>
    <g id="xtick_16">
     <g id="line2d_38">
      <g>
       <use xlink:href="#m50dee5a7fa" x="115.622725" y="152.589249" style="stroke: #000000; stroke-width: 0.5"/>
      </g>
     </g>
     <g id="line2d_39">
      <g>
       <use xlink:href="#m34a8d548c9" x="115.622725" y="7.059249" style="stroke: #000000; stroke-width: 0.5"/>
      </g>
     </g>
    </g>
    <g id="xtick_17">
     <g id="line2d_40">
      <g>
       <use xlink:href="#m50dee5a7fa" x="122.132725" y="152.589249" style="stroke: #000000; stroke-width: 0.5"/>
      </g>
     </g>
     <g id="line2d_41">
      <g>
       <use xlink:href="#m34a8d548c9" x="122.132725" y="7.059249" style="stroke: #000000; stroke-width: 0.5"/>
      </g>
     </g>
    </g>
    <g id="xtick_18">
     <g id="line2d_42">
      <g>
       <use xlink:href="#m50dee5a7fa" x="128.642725" y="152.589249" style="stroke: #000000; stroke-width: 0.5"/>
      </g>
     </g>
     <g id="line2d_43">
      <g>
       <use xlink:href="#m34a8d548c9" x="128.642725" y="7.059249" style="stroke: #000000; stroke-width: 0.5"/>
      </g>
     </g>
    </g>
    <g id="xtick_19">
     <g id="line2d_44">
      <g>
       <use xlink:href="#m50dee5a7fa" x="135.152725" y="152.589249" style="stroke: #000000; stroke-width: 0.5"/>
      </g>
     </g>
     <g id="line2d_45">
      <g>
       <use xlink:href="#m34a8d548c9" x="135.152725" y="7.059249" style="stroke: #000000; stroke-width: 0.5"/>
      </g>
     </g>
    </g>
    <g id="xtick_20">
     <g id="line2d_46">
      <g>
       <use xlink:href="#m50dee5a7fa" x="148.172725" y="152.589249" style="stroke: #000000; stroke-width: 0.5"/>
      </g>
     </g>
     <g id="line2d_47">
      <g>
       <use xlink:href="#m34a8d548c9" x="148.172725" y="7.059249" style="stroke: #000000; stroke-width: 0.5"/>
      </g>
     </g>
    </g>
    <g id="xtick_21">
     <g id="line2d_48">
      <g>
       <use xlink:href="#m50dee5a7fa" x="154.682725" y="152.589249" style="stroke: #000000; stroke-width: 0.5"/>
      </g>
     </g>
     <g id="line2d_49">
      <g>
       <use xlink:href="#m34a8d548c9" x="154.682725" y="7.059249" style="stroke: #000000; stroke-width: 0.5"/>
      </g>
     </g>
    </g>
    <g id="xtick_22">
     <g id="line2d_50">
      <g>
       <use xlink:href="#m50dee5a7fa" x="161.192725" y="152.589249" style="stroke: #000000; stroke-width: 0.5"/>
      </g>
     </g>
     <g id="line2d_51">
      <g>
       <use xlink:href="#m34a8d548c9" x="161.192725" y="7.059249" style="stroke: #000000; stroke-width: 0.5"/>
      </g>
     </g>
    </g>
    <g id="xtick_23">
     <g id="line2d_52">
      <g>
       <use xlink:href="#m50dee5a7fa" x="167.702725" y="152.589249" style="stroke: #000000; stroke-width: 0.5"/>
      </g>
     </g>
     <g id="line2d_53">
      <g>
       <use xlink:href="#m34a8d548c9" x="167.702725" y="7.059249" style="stroke: #000000; stroke-width: 0.5"/>
      </g>
     </g>
    </g>
    <g id="xtick_24">
     <g id="line2d_54">
      <g>
       <use xlink:href="#m50dee5a7fa" x="180.722725" y="152.589249" style="stroke: #000000; stroke-width: 0.5"/>
      </g>
     </g>
     <g id="line2d_55">
      <g>
       <use xlink:href="#m34a8d548c9" x="180.722725" y="7.059249" style="stroke: #000000; stroke-width: 0.5"/>
      </g>
     </g>
    </g>
    <g id="xtick_25">
     <g id="line2d_56">
      <g>
       <use xlink:href="#m50dee5a7fa" x="187.232725" y="152.589249" style="stroke: #000000; stroke-width: 0.5"/>
      </g>
     </g>
     <g id="line2d_57">
      <g>
       <use xlink:href="#m34a8d548c9" x="187.232725" y="7.059249" style="stroke: #000000; stroke-width: 0.5"/>
      </g>
     </g>
    </g>
    <g id="xtick_26">
     <g id="line2d_58">
      <g>
       <use xlink:href="#m50dee5a7fa" x="193.742725" y="152.589249" style="stroke: #000000; stroke-width: 0.5"/>
      </g>
     </g>
     <g id="line2d_59">
      <g>
       <use xlink:href="#m34a8d548c9" x="193.742725" y="7.059249" style="stroke: #000000; stroke-width: 0.5"/>
      </g>
     </g>
    </g>
    <g id="xtick_27">
     <g id="line2d_60">
      <g>
       <use xlink:href="#m50dee5a7fa" x="200.252725" y="152.589249" style="stroke: #000000; stroke-width: 0.5"/>
      </g>
     </g>
     <g id="line2d_61">
      <g>
       <use xlink:href="#m34a8d548c9" x="200.252725" y="7.059249" style="stroke: #000000; stroke-width: 0.5"/>
      </g>
     </g>
    </g>
    <g id="xtick_28">
     <g id="line2d_62">
      <g>
       <use xlink:href="#m50dee5a7fa" x="213.272725" y="152.589249" style="stroke: #000000; stroke-width: 0.5"/>
      </g>
     </g>
     <g id="line2d_63">
      <g>
       <use xlink:href="#m34a8d548c9" x="213.272725" y="7.059249" style="stroke: #000000; stroke-width: 0.5"/>
      </g>
     </g>
    </g>
    <g id="xtick_29">
     <g id="line2d_64">
      <g>
       <use xlink:href="#m50dee5a7fa" x="219.782725" y="152.589249" style="stroke: #000000; stroke-width: 0.5"/>
      </g>
     </g>
     <g id="line2d_65">
      <g>
       <use xlink:href="#m34a8d548c9" x="219.782725" y="7.059249" style="stroke: #000000; stroke-width: 0.5"/>
      </g>
     </g>
    </g>
    <g id="xtick_30">
     <g id="line2d_66">
      <g>
       <use xlink:href="#m50dee5a7fa" x="226.292725" y="152.589249" style="stroke: #000000; stroke-width: 0.5"/>
      </g>
     </g>
     <g id="line2d_67">
      <g>
       <use xlink:href="#m34a8d548c9" x="226.292725" y="7.059249" style="stroke: #000000; stroke-width: 0.5"/>
      </g>
     </g>
    </g>
    <g id="xtick_31">
     <g id="line2d_68">
      <g>
       <use xlink:href="#m50dee5a7fa" x="232.802725" y="152.589249" style="stroke: #000000; stroke-width: 0.5"/>
      </g>
     </g>
     <g id="line2d_69">
      <g>
       <use xlink:href="#m34a8d548c9" x="232.802725" y="7.059249" style="stroke: #000000; stroke-width: 0.5"/>
      </g>
     </g>
    </g>
    <g id="text_8">
     <!-- $f$ [MHz] -->
     <g transform="translate(116.369118 179.704565) scale(0.144 -0.144)">
      <defs>
       <path id="CMMI12-66" d="M 2854 2566 
C 2982 2566 3034 2566 3034 2688 
C 3034 2752 2982 2752 2867 2752 
L 2349 2752 
C 2470 3429 2560 3897 2611 4107 
C 2650 4265 2784 4416 2950 4416 
C 3085 4416 3219 4358 3283 4298 
C 3034 4272 2957 4082 2957 3969 
C 2957 3837 3053 3759 3174 3759 
C 3302 3759 3494 3870 3494 4119 
C 3494 4393 3226 4544 2944 4544 
C 2669 4544 2400 4334 2272 4078 
C 2157 3848 2093 3611 1946 2752 
L 1517 2752 
C 1395 2752 1331 2752 1331 2637 
C 1331 2566 1370 2566 1498 2566 
L 1907 2566 
C 1792 1976 1530 542 1382 -137 
C 1274 -689 1178 -1152 858 -1152 
C 838 -1152 653 -1152 538 -1031 
C 864 -1005 864 -726 864 -720 
C 864 -593 768 -517 646 -517 
C 518 -517 326 -625 326 -867 
C 326 -1140 608 -1280 858 -1280 
C 1510 -1280 1779 -118 1850 199 
C 1965 688 2278 2376 2310 2566 
L 2854 2566 
z
" transform="scale(0.015625)"/>
       <path id="CMR17-5b" d="M 1504 -1600 
L 1504 -1377 
L 902 -1377 
L 902 4544 
L 1504 4544 
L 1504 4767 
L 678 4767 
L 678 -1600 
L 1504 -1600 
z
" transform="scale(0.015625)"/>
       <path id="CMR17-4d" d="M 1338 4224 
C 1299 4320 1293 4320 1158 4320 
L 339 4320 
L 339 4160 
C 781 4160 851 4160 851 3875 
L 851 610 
C 851 451 851 153 339 153 
L 339 -13 
C 486 0 755 0 915 0 
C 1075 0 1344 0 1491 -13 
L 1491 153 
C 979 153 979 451 979 610 
L 979 4135 
L 986 4135 
L 2490 89 
C 2515 25 2528 -13 2579 -13 
C 2630 -13 2643 25 2669 89 
L 4186 4166 
L 4192 4166 
L 4192 438 
C 4192 153 4122 153 3680 153 
L 3680 -13 
C 3853 0 4198 0 4384 0 
C 4570 0 4922 0 5094 -13 
L 5094 153 
C 4653 153 4582 153 4582 438 
L 4582 3875 
C 4582 4160 4653 4160 5094 4160 
L 5094 4320 
L 4282 4320 
C 4147 4320 4141 4314 4102 4218 
L 2720 502 
L 1338 4224 
z
" transform="scale(0.015625)"/>
       <path id="CMR17-48" d="M 3590 3905 
C 3590 4192 3661 4192 4102 4192 
L 4102 4352 
C 3917 4352 3578 4352 3379 4352 
C 3181 4352 2842 4352 2656 4352 
L 2656 4192 
C 3098 4192 3168 4192 3168 3904 
L 3168 2341 
L 1261 2341 
L 1261 3904 
C 1261 4192 1331 4192 1773 4192 
L 1773 4352 
C 1587 4352 1248 4352 1050 4352 
C 851 4352 512 4352 326 4352 
L 326 4192 
C 768 4192 838 4192 838 3905 
L 838 447 
C 838 160 768 160 326 160 
L 326 0 
C 512 0 851 0 1050 0 
C 1248 0 1587 0 1773 0 
L 1773 160 
C 1331 160 1261 160 1261 446 
L 1261 2176 
L 3168 2176 
L 3168 446 
C 3168 160 3098 160 2656 160 
L 2656 0 
C 2842 0 3181 0 3379 0 
C 3578 0 3917 0 4102 0 
L 4102 160 
C 3661 160 3590 160 3590 447 
L 3590 3905 
z
" transform="scale(0.015625)"/>
       <path id="CMR17-7a" d="M 2310 2605 
C 2362 2670 2362 2682 2362 2695 
C 2362 2752 2336 2752 2221 2752 
L 275 2752 
L 211 1760 
L 326 1760 
C 371 2381 442 2650 1178 2650 
L 1958 2650 
L 128 96 
C 128 0 134 0 269 0 
L 2291 0 
L 2381 1152 
L 2266 1152 
C 2214 442 2131 115 1350 115 
L 531 115 
L 2310 2605 
z
" transform="scale(0.015625)"/>
       <path id="CMR17-5d" d="M 915 4767 
L 90 4767 
L 90 4544 
L 691 4544 
L 691 -1377 
L 90 -1377 
L 90 -1600 
L 915 -1600 
L 915 4767 
z
" transform="scale(0.015625)"/>
      </defs>
      <use xlink:href="#CMMI12-66" transform="scale(0.996264)"/>
      <use xlink:href="#CMR17-5b" transform="translate(88.796271 0) scale(0.996264)"/>
      <use xlink:href="#CMR17-4d" transform="translate(113.66733 0) scale(0.996264)"/>
      <use xlink:href="#CMR17-48" transform="translate(198.35427 0) scale(0.996264)"/>
      <use xlink:href="#CMR17-7a" transform="translate(267.4267 0) scale(0.996264)"/>
      <use xlink:href="#CMR17-5d" transform="translate(307.912361 0) scale(0.996264)"/>
     </g>
    </g>
   </g>
   <g id="matplotlib.axis_2">
    <g id="ytick_1">
     <g id="line2d_70">
      <path d="M 44.012725 152.589249 
L 239.312725 152.589249 
" clip-path="url(#p257115e4d6)" style="fill: none; stroke-dasharray: 1.85,0.8; stroke-dashoffset: 0; stroke: #000000; stroke-opacity: 0.5; stroke-width: 0.5"/>
     </g>
     <g id="line2d_71">
      <defs>
       <path id="m7a16d5aa9c" d="M 0 0 
L 3 0 
" style="stroke: #000000; stroke-width: 0.5"/>
      </defs>
      <g>
       <use xlink:href="#m7a16d5aa9c" x="44.012725" y="152.589249" style="stroke: #000000; stroke-width: 0.5"/>
      </g>
     </g>
     <g id="line2d_72">
      <defs>
       <path id="mec49f0ad84" d="M 0 0 
L -3 0 
" style="stroke: #000000; stroke-width: 0.5"/>
      </defs>
      <g>
       <use xlink:href="#mec49f0ad84" x="239.312725" y="152.589249" style="stroke: #000000; stroke-width: 0.5"/>
      </g>
     </g>
     <g id="text_9">
      <!-- $\mathdefault{10^{-3}}$ -->
      <g transform="translate(20.352152 156.048498) scale(0.1 -0.1)">
       <defs>
        <path id="CMSY10-0" d="M 4218 1472 
C 4326 1472 4442 1472 4442 1600 
C 4442 1728 4326 1728 4218 1728 
L 755 1728 
C 646 1728 531 1728 531 1600 
C 531 1472 646 1472 755 1472 
L 4218 1472 
z
" transform="scale(0.015625)"/>
       </defs>
       <use xlink:href="#CMR17-31" transform="scale(0.996264)"/>
       <use xlink:href="#CMR17-30" transform="translate(45.690477 0) scale(0.996264)"/>
       <use xlink:href="#CMSY10-0" transform="translate(91.380954 36.153639) scale(0.697382)"/>
       <use xlink:href="#CMR17-33" transform="translate(145.621947 36.153639) scale(0.697382)"/>
      </g>
     </g>
    </g>
    <g id="ytick_2">
     <g id="line2d_73">
      <path d="M 44.012725 131.799249 
L 239.312725 131.799249 
" clip-path="url(#p257115e4d6)" style="fill: none; stroke-dasharray: 1.85,0.8; stroke-dashoffset: 0; stroke: #000000; stroke-opacity: 0.5; stroke-width: 0.5"/>
     </g>
     <g id="line2d_74">
      <g>
       <use xlink:href="#m7a16d5aa9c" x="44.012725" y="131.799249" style="stroke: #000000; stroke-width: 0.5"/>
      </g>
     </g>
     <g id="line2d_75">
      <g>
       <use xlink:href="#mec49f0ad84" x="239.312725" y="131.799249" style="stroke: #000000; stroke-width: 0.5"/>
      </g>
     </g>
     <g id="text_10">
      <!-- $\mathdefault{10^{-2}}$ -->
      <g transform="translate(20.352152 135.258498) scale(0.1 -0.1)">
       <use xlink:href="#CMR17-31" transform="scale(0.996264)"/>
       <use xlink:href="#CMR17-30" transform="translate(45.690477 0) scale(0.996264)"/>
       <use xlink:href="#CMSY10-0" transform="translate(91.380954 36.153639) scale(0.697382)"/>
       <use xlink:href="#CMR17-32" transform="translate(145.621947 36.153639) scale(0.697382)"/>
      </g>
     </g>
    </g>
    <g id="ytick_3">
     <g id="line2d_76">
      <path d="M 44.012725 111.009249 
L 239.312725 111.009249 
" clip-path="url(#p257115e4d6)" style="fill: none; stroke-dasharray: 1.85,0.8; stroke-dashoffset: 0; stroke: #000000; stroke-opacity: 0.5; stroke-width: 0.5"/>
     </g>
     <g id="line2d_77">
      <g>
       <use xlink:href="#m7a16d5aa9c" x="44.012725" y="111.009249" style="stroke: #000000; stroke-width: 0.5"/>
      </g>
     </g>
     <g id="line2d_78">
      <g>
       <use xlink:href="#mec49f0ad84" x="239.312725" y="111.009249" style="stroke: #000000; stroke-width: 0.5"/>
      </g>
     </g>
     <g id="text_11">
      <!-- $\mathdefault{10^{-1}}$ -->
      <g transform="translate(20.352152 114.468498) scale(0.1 -0.1)">
       <use xlink:href="#CMR17-31" transform="scale(0.996264)"/>
       <use xlink:href="#CMR17-30" transform="translate(45.690477 0) scale(0.996264)"/>
       <use xlink:href="#CMSY10-0" transform="translate(91.380954 36.153639) scale(0.697382)"/>
       <use xlink:href="#CMR17-31" transform="translate(145.621947 36.153639) scale(0.697382)"/>
      </g>
     </g>
    </g>
    <g id="ytick_4">
     <g id="line2d_79">
      <path d="M 44.012725 90.219249 
L 239.312725 90.219249 
" clip-path="url(#p257115e4d6)" style="fill: none; stroke-dasharray: 1.85,0.8; stroke-dashoffset: 0; stroke: #000000; stroke-opacity: 0.5; stroke-width: 0.5"/>
     </g>
     <g id="line2d_80">
      <g>
       <use xlink:href="#m7a16d5aa9c" x="44.012725" y="90.219249" style="stroke: #000000; stroke-width: 0.5"/>
      </g>
     </g>
     <g id="line2d_81">
      <g>
       <use xlink:href="#mec49f0ad84" x="239.312725" y="90.219249" style="stroke: #000000; stroke-width: 0.5"/>
      </g>
     </g>
     <g id="text_12">
      <!-- $\mathdefault{10^{0}}$ -->
      <g transform="translate(26.578817 93.678498) scale(0.1 -0.1)">
       <use xlink:href="#CMR17-31" transform="scale(0.996264)"/>
       <use xlink:href="#CMR17-30" transform="translate(45.690477 0) scale(0.996264)"/>
       <use xlink:href="#CMR17-30" transform="translate(91.380954 36.153639) scale(0.697382)"/>
      </g>
     </g>
    </g>
    <g id="ytick_5">
     <g id="line2d_82">
      <path d="M 44.012725 69.429249 
L 239.312725 69.429249 
" clip-path="url(#p257115e4d6)" style="fill: none; stroke-dasharray: 1.85,0.8; stroke-dashoffset: 0; stroke: #000000; stroke-opacity: 0.5; stroke-width: 0.5"/>
     </g>
     <g id="line2d_83">
      <g>
       <use xlink:href="#m7a16d5aa9c" x="44.012725" y="69.429249" style="stroke: #000000; stroke-width: 0.5"/>
      </g>
     </g>
     <g id="line2d_84">
      <g>
       <use xlink:href="#mec49f0ad84" x="239.312725" y="69.429249" style="stroke: #000000; stroke-width: 0.5"/>
      </g>
     </g>
     <g id="text_13">
      <!-- $\mathdefault{10^{1}}$ -->
      <g transform="translate(26.578817 72.888498) scale(0.1 -0.1)">
       <use xlink:href="#CMR17-31" transform="scale(0.996264)"/>
       <use xlink:href="#CMR17-30" transform="translate(45.690477 0) scale(0.996264)"/>
       <use xlink:href="#CMR17-31" transform="translate(91.380954 36.153639) scale(0.697382)"/>
      </g>
     </g>
    </g>
    <g id="ytick_6">
     <g id="line2d_85">
      <path d="M 44.012725 48.639249 
L 239.312725 48.639249 
" clip-path="url(#p257115e4d6)" style="fill: none; stroke-dasharray: 1.85,0.8; stroke-dashoffset: 0; stroke: #000000; stroke-opacity: 0.5; stroke-width: 0.5"/>
     </g>
     <g id="line2d_86">
      <g>
       <use xlink:href="#m7a16d5aa9c" x="44.012725" y="48.639249" style="stroke: #000000; stroke-width: 0.5"/>
      </g>
     </g>
     <g id="line2d_87">
      <g>
       <use xlink:href="#mec49f0ad84" x="239.312725" y="48.639249" style="stroke: #000000; stroke-width: 0.5"/>
      </g>
     </g>
     <g id="text_14">
      <!-- $\mathdefault{10^{2}}$ -->
      <g transform="translate(26.578817 52.098498) scale(0.1 -0.1)">
       <use xlink:href="#CMR17-31" transform="scale(0.996264)"/>
       <use xlink:href="#CMR17-30" transform="translate(45.690477 0) scale(0.996264)"/>
       <use xlink:href="#CMR17-32" transform="translate(91.380954 36.153639) scale(0.697382)"/>
      </g>
     </g>
    </g>
    <g id="ytick_7">
     <g id="line2d_88">
      <path d="M 44.012725 27.849249 
L 239.312725 27.849249 
" clip-path="url(#p257115e4d6)" style="fill: none; stroke-dasharray: 1.85,0.8; stroke-dashoffset: 0; stroke: #000000; stroke-opacity: 0.5; stroke-width: 0.5"/>
     </g>
     <g id="line2d_89">
      <g>
       <use xlink:href="#m7a16d5aa9c" x="44.012725" y="27.849249" style="stroke: #000000; stroke-width: 0.5"/>
      </g>
     </g>
     <g id="line2d_90">
      <g>
       <use xlink:href="#mec49f0ad84" x="239.312725" y="27.849249" style="stroke: #000000; stroke-width: 0.5"/>
      </g>
     </g>
     <g id="text_15">
      <!-- $\mathdefault{10^{3}}$ -->
      <g transform="translate(26.578817 31.308498) scale(0.1 -0.1)">
       <use xlink:href="#CMR17-31" transform="scale(0.996264)"/>
       <use xlink:href="#CMR17-30" transform="translate(45.690477 0) scale(0.996264)"/>
       <use xlink:href="#CMR17-33" transform="translate(91.380954 36.153639) scale(0.697382)"/>
      </g>
     </g>
    </g>
    <g id="ytick_8">
     <g id="line2d_91">
      <path d="M 44.012725 7.059249 
L 239.312725 7.059249 
" clip-path="url(#p257115e4d6)" style="fill: none; stroke-dasharray: 1.85,0.8; stroke-dashoffset: 0; stroke: #000000; stroke-opacity: 0.5; stroke-width: 0.5"/>
     </g>
     <g id="line2d_92">
      <g>
       <use xlink:href="#m7a16d5aa9c" x="44.012725" y="7.059249" style="stroke: #000000; stroke-width: 0.5"/>
      </g>
     </g>
     <g id="line2d_93">
      <g>
       <use xlink:href="#mec49f0ad84" x="239.312725" y="7.059249" style="stroke: #000000; stroke-width: 0.5"/>
      </g>
     </g>
     <g id="text_16">
      <!-- $\mathdefault{10^{4}}$ -->
      <g transform="translate(26.578817 10.518498) scale(0.1 -0.1)">
       <use xlink:href="#CMR17-31" transform="scale(0.996264)"/>
       <use xlink:href="#CMR17-30" transform="translate(45.690477 0) scale(0.996264)"/>
       <use xlink:href="#CMR17-34" transform="translate(91.380954 36.153639) scale(0.697382)"/>
      </g>
     </g>
    </g>
    <g id="ytick_9">
     <g id="line2d_94">
      <defs>
       <path id="m0386dba0b1" d="M 0 0 
L 1.5 0 
" style="stroke: #000000; stroke-width: 0.5"/>
      </defs>
      <g>
       <use xlink:href="#m0386dba0b1" x="44.012725" y="146.330836" style="stroke: #000000; stroke-width: 0.5"/>
      </g>
     </g>
     <g id="line2d_95">
      <defs>
       <path id="m1f72ca2b9b" d="M 0 0 
L -1.5 0 
" style="stroke: #000000; stroke-width: 0.5"/>
      </defs>
      <g>
       <use xlink:href="#m1f72ca2b9b" x="239.312725" y="146.330836" style="stroke: #000000; stroke-width: 0.5"/>
      </g>
     </g>
    </g>
    <g id="ytick_10">
     <g id="line2d_96">
      <g>
       <use xlink:href="#m0386dba0b1" x="44.012725" y="142.669898" style="stroke: #000000; stroke-width: 0.5"/>
      </g>
     </g>
     <g id="line2d_97">
      <g>
       <use xlink:href="#m1f72ca2b9b" x="239.312725" y="142.669898" style="stroke: #000000; stroke-width: 0.5"/>
      </g>
     </g>
    </g>
    <g id="ytick_11">
     <g id="line2d_98">
      <g>
       <use xlink:href="#m0386dba0b1" x="44.012725" y="140.072422" style="stroke: #000000; stroke-width: 0.5"/>
      </g>
     </g>
     <g id="line2d_99">
      <g>
       <use xlink:href="#m1f72ca2b9b" x="239.312725" y="140.072422" style="stroke: #000000; stroke-width: 0.5"/>
      </g>
     </g>
    </g>
    <g id="ytick_12">
     <g id="line2d_100">
      <g>
       <use xlink:href="#m0386dba0b1" x="44.012725" y="138.057663" style="stroke: #000000; stroke-width: 0.5"/>
      </g>
     </g>
     <g id="line2d_101">
      <g>
       <use xlink:href="#m1f72ca2b9b" x="239.312725" y="138.057663" style="stroke: #000000; stroke-width: 0.5"/>
      </g>
     </g>
    </g>
    <g id="ytick_13">
     <g id="line2d_102">
      <g>
       <use xlink:href="#m0386dba0b1" x="44.012725" y="136.411485" style="stroke: #000000; stroke-width: 0.5"/>
      </g>
     </g>
     <g id="line2d_103">
      <g>
       <use xlink:href="#m1f72ca2b9b" x="239.312725" y="136.411485" style="stroke: #000000; stroke-width: 0.5"/>
      </g>
     </g>
    </g>
    <g id="ytick_14">
     <g id="line2d_104">
      <g>
       <use xlink:href="#m0386dba0b1" x="44.012725" y="135.019661" style="stroke: #000000; stroke-width: 0.5"/>
      </g>
     </g>
     <g id="line2d_105">
      <g>
       <use xlink:href="#m1f72ca2b9b" x="239.312725" y="135.019661" style="stroke: #000000; stroke-width: 0.5"/>
      </g>
     </g>
    </g>
    <g id="ytick_15">
     <g id="line2d_106">
      <g>
       <use xlink:href="#m0386dba0b1" x="44.012725" y="133.814008" style="stroke: #000000; stroke-width: 0.5"/>
      </g>
     </g>
     <g id="line2d_107">
      <g>
       <use xlink:href="#m1f72ca2b9b" x="239.312725" y="133.814008" style="stroke: #000000; stroke-width: 0.5"/>
      </g>
     </g>
    </g>
    <g id="ytick_16">
     <g id="line2d_108">
      <g>
       <use xlink:href="#m0386dba0b1" x="44.012725" y="132.750547" style="stroke: #000000; stroke-width: 0.5"/>
      </g>
     </g>
     <g id="line2d_109">
      <g>
       <use xlink:href="#m1f72ca2b9b" x="239.312725" y="132.750547" style="stroke: #000000; stroke-width: 0.5"/>
      </g>
     </g>
    </g>
    <g id="ytick_17">
     <g id="line2d_110">
      <g>
       <use xlink:href="#m0386dba0b1" x="44.012725" y="125.540836" style="stroke: #000000; stroke-width: 0.5"/>
      </g>
     </g>
     <g id="line2d_111">
      <g>
       <use xlink:href="#m1f72ca2b9b" x="239.312725" y="125.540836" style="stroke: #000000; stroke-width: 0.5"/>
      </g>
     </g>
    </g>
    <g id="ytick_18">
     <g id="line2d_112">
      <g>
       <use xlink:href="#m0386dba0b1" x="44.012725" y="121.879898" style="stroke: #000000; stroke-width: 0.5"/>
      </g>
     </g>
     <g id="line2d_113">
      <g>
       <use xlink:href="#m1f72ca2b9b" x="239.312725" y="121.879898" style="stroke: #000000; stroke-width: 0.5"/>
      </g>
     </g>
    </g>
    <g id="ytick_19">
     <g id="line2d_114">
      <g>
       <use xlink:href="#m0386dba0b1" x="44.012725" y="119.282422" style="stroke: #000000; stroke-width: 0.5"/>
      </g>
     </g>
     <g id="line2d_115">
      <g>
       <use xlink:href="#m1f72ca2b9b" x="239.312725" y="119.282422" style="stroke: #000000; stroke-width: 0.5"/>
      </g>
     </g>
    </g>
    <g id="ytick_20">
     <g id="line2d_116">
      <g>
       <use xlink:href="#m0386dba0b1" x="44.012725" y="117.267663" style="stroke: #000000; stroke-width: 0.5"/>
      </g>
     </g>
     <g id="line2d_117">
      <g>
       <use xlink:href="#m1f72ca2b9b" x="239.312725" y="117.267663" style="stroke: #000000; stroke-width: 0.5"/>
      </g>
     </g>
    </g>
    <g id="ytick_21">
     <g id="line2d_118">
      <g>
       <use xlink:href="#m0386dba0b1" x="44.012725" y="115.621485" style="stroke: #000000; stroke-width: 0.5"/>
      </g>
     </g>
     <g id="line2d_119">
      <g>
       <use xlink:href="#m1f72ca2b9b" x="239.312725" y="115.621485" style="stroke: #000000; stroke-width: 0.5"/>
      </g>
     </g>
    </g>
    <g id="ytick_22">
     <g id="line2d_120">
      <g>
       <use xlink:href="#m0386dba0b1" x="44.012725" y="114.229661" style="stroke: #000000; stroke-width: 0.5"/>
      </g>
     </g>
     <g id="line2d_121">
      <g>
       <use xlink:href="#m1f72ca2b9b" x="239.312725" y="114.229661" style="stroke: #000000; stroke-width: 0.5"/>
      </g>
     </g>
    </g>
    <g id="ytick_23">
     <g id="line2d_122">
      <g>
       <use xlink:href="#m0386dba0b1" x="44.012725" y="113.024008" style="stroke: #000000; stroke-width: 0.5"/>
      </g>
     </g>
     <g id="line2d_123">
      <g>
       <use xlink:href="#m1f72ca2b9b" x="239.312725" y="113.024008" style="stroke: #000000; stroke-width: 0.5"/>
      </g>
     </g>
    </g>
    <g id="ytick_24">
     <g id="line2d_124">
      <g>
       <use xlink:href="#m0386dba0b1" x="44.012725" y="111.960547" style="stroke: #000000; stroke-width: 0.5"/>
      </g>
     </g>
     <g id="line2d_125">
      <g>
       <use xlink:href="#m1f72ca2b9b" x="239.312725" y="111.960547" style="stroke: #000000; stroke-width: 0.5"/>
      </g>
     </g>
    </g>
    <g id="ytick_25">
     <g id="line2d_126">
      <g>
       <use xlink:href="#m0386dba0b1" x="44.012725" y="104.750836" style="stroke: #000000; stroke-width: 0.5"/>
      </g>
     </g>
     <g id="line2d_127">
      <g>
       <use xlink:href="#m1f72ca2b9b" x="239.312725" y="104.750836" style="stroke: #000000; stroke-width: 0.5"/>
      </g>
     </g>
    </g>
    <g id="ytick_26">
     <g id="line2d_128">
      <g>
       <use xlink:href="#m0386dba0b1" x="44.012725" y="101.089898" style="stroke: #000000; stroke-width: 0.5"/>
      </g>
     </g>
     <g id="line2d_129">
      <g>
       <use xlink:href="#m1f72ca2b9b" x="239.312725" y="101.089898" style="stroke: #000000; stroke-width: 0.5"/>
      </g>
     </g>
    </g>
    <g id="ytick_27">
     <g id="line2d_130">
      <g>
       <use xlink:href="#m0386dba0b1" x="44.012725" y="98.492422" style="stroke: #000000; stroke-width: 0.5"/>
      </g>
     </g>
     <g id="line2d_131">
      <g>
       <use xlink:href="#m1f72ca2b9b" x="239.312725" y="98.492422" style="stroke: #000000; stroke-width: 0.5"/>
      </g>
     </g>
    </g>
    <g id="ytick_28">
     <g id="line2d_132">
      <g>
       <use xlink:href="#m0386dba0b1" x="44.012725" y="96.477663" style="stroke: #000000; stroke-width: 0.5"/>
      </g>
     </g>
     <g id="line2d_133">
      <g>
       <use xlink:href="#m1f72ca2b9b" x="239.312725" y="96.477663" style="stroke: #000000; stroke-width: 0.5"/>
      </g>
     </g>
    </g>
    <g id="ytick_29">
     <g id="line2d_134">
      <g>
       <use xlink:href="#m0386dba0b1" x="44.012725" y="94.831485" style="stroke: #000000; stroke-width: 0.5"/>
      </g>
     </g>
     <g id="line2d_135">
      <g>
       <use xlink:href="#m1f72ca2b9b" x="239.312725" y="94.831485" style="stroke: #000000; stroke-width: 0.5"/>
      </g>
     </g>
    </g>
    <g id="ytick_30">
     <g id="line2d_136">
      <g>
       <use xlink:href="#m0386dba0b1" x="44.012725" y="93.439661" style="stroke: #000000; stroke-width: 0.5"/>
      </g>
     </g>
     <g id="line2d_137">
      <g>
       <use xlink:href="#m1f72ca2b9b" x="239.312725" y="93.439661" style="stroke: #000000; stroke-width: 0.5"/>
      </g>
     </g>
    </g>
    <g id="ytick_31">
     <g id="line2d_138">
      <g>
       <use xlink:href="#m0386dba0b1" x="44.012725" y="92.234008" style="stroke: #000000; stroke-width: 0.5"/>
      </g>
     </g>
     <g id="line2d_139">
      <g>
       <use xlink:href="#m1f72ca2b9b" x="239.312725" y="92.234008" style="stroke: #000000; stroke-width: 0.5"/>
      </g>
     </g>
    </g>
    <g id="ytick_32">
     <g id="line2d_140">
      <g>
       <use xlink:href="#m0386dba0b1" x="44.012725" y="91.170547" style="stroke: #000000; stroke-width: 0.5"/>
      </g>
     </g>
     <g id="line2d_141">
      <g>
       <use xlink:href="#m1f72ca2b9b" x="239.312725" y="91.170547" style="stroke: #000000; stroke-width: 0.5"/>
      </g>
     </g>
    </g>
    <g id="ytick_33">
     <g id="line2d_142">
      <g>
       <use xlink:href="#m0386dba0b1" x="44.012725" y="83.960836" style="stroke: #000000; stroke-width: 0.5"/>
      </g>
     </g>
     <g id="line2d_143">
      <g>
       <use xlink:href="#m1f72ca2b9b" x="239.312725" y="83.960836" style="stroke: #000000; stroke-width: 0.5"/>
      </g>
     </g>
    </g>
    <g id="ytick_34">
     <g id="line2d_144">
      <g>
       <use xlink:href="#m0386dba0b1" x="44.012725" y="80.299898" style="stroke: #000000; stroke-width: 0.5"/>
      </g>
     </g>
     <g id="line2d_145">
      <g>
       <use xlink:href="#m1f72ca2b9b" x="239.312725" y="80.299898" style="stroke: #000000; stroke-width: 0.5"/>
      </g>
     </g>
    </g>
    <g id="ytick_35">
     <g id="line2d_146">
      <g>
       <use xlink:href="#m0386dba0b1" x="44.012725" y="77.702422" style="stroke: #000000; stroke-width: 0.5"/>
      </g>
     </g>
     <g id="line2d_147">
      <g>
       <use xlink:href="#m1f72ca2b9b" x="239.312725" y="77.702422" style="stroke: #000000; stroke-width: 0.5"/>
      </g>
     </g>
    </g>
    <g id="ytick_36">
     <g id="line2d_148">
      <g>
       <use xlink:href="#m0386dba0b1" x="44.012725" y="75.687663" style="stroke: #000000; stroke-width: 0.5"/>
      </g>
     </g>
     <g id="line2d_149">
      <g>
       <use xlink:href="#m1f72ca2b9b" x="239.312725" y="75.687663" style="stroke: #000000; stroke-width: 0.5"/>
      </g>
     </g>
    </g>
    <g id="ytick_37">
     <g id="line2d_150">
      <g>
       <use xlink:href="#m0386dba0b1" x="44.012725" y="74.041485" style="stroke: #000000; stroke-width: 0.5"/>
      </g>
     </g>
     <g id="line2d_151">
      <g>
       <use xlink:href="#m1f72ca2b9b" x="239.312725" y="74.041485" style="stroke: #000000; stroke-width: 0.5"/>
      </g>
     </g>
    </g>
    <g id="ytick_38">
     <g id="line2d_152">
      <g>
       <use xlink:href="#m0386dba0b1" x="44.012725" y="72.649661" style="stroke: #000000; stroke-width: 0.5"/>
      </g>
     </g>
     <g id="line2d_153">
      <g>
       <use xlink:href="#m1f72ca2b9b" x="239.312725" y="72.649661" style="stroke: #000000; stroke-width: 0.5"/>
      </g>
     </g>
    </g>
    <g id="ytick_39">
     <g id="line2d_154">
      <g>
       <use xlink:href="#m0386dba0b1" x="44.012725" y="71.444008" style="stroke: #000000; stroke-width: 0.5"/>
      </g>
     </g>
     <g id="line2d_155">
      <g>
       <use xlink:href="#m1f72ca2b9b" x="239.312725" y="71.444008" style="stroke: #000000; stroke-width: 0.5"/>
      </g>
     </g>
    </g>
    <g id="ytick_40">
     <g id="line2d_156">
      <g>
       <use xlink:href="#m0386dba0b1" x="44.012725" y="70.380547" style="stroke: #000000; stroke-width: 0.5"/>
      </g>
     </g>
     <g id="line2d_157">
      <g>
       <use xlink:href="#m1f72ca2b9b" x="239.312725" y="70.380547" style="stroke: #000000; stroke-width: 0.5"/>
      </g>
     </g>
    </g>
    <g id="ytick_41">
     <g id="line2d_158">
      <g>
       <use xlink:href="#m0386dba0b1" x="44.012725" y="63.170836" style="stroke: #000000; stroke-width: 0.5"/>
      </g>
     </g>
     <g id="line2d_159">
      <g>
       <use xlink:href="#m1f72ca2b9b" x="239.312725" y="63.170836" style="stroke: #000000; stroke-width: 0.5"/>
      </g>
     </g>
    </g>
    <g id="ytick_42">
     <g id="line2d_160">
      <g>
       <use xlink:href="#m0386dba0b1" x="44.012725" y="59.509898" style="stroke: #000000; stroke-width: 0.5"/>
      </g>
     </g>
     <g id="line2d_161">
      <g>
       <use xlink:href="#m1f72ca2b9b" x="239.312725" y="59.509898" style="stroke: #000000; stroke-width: 0.5"/>
      </g>
     </g>
    </g>
    <g id="ytick_43">
     <g id="line2d_162">
      <g>
       <use xlink:href="#m0386dba0b1" x="44.012725" y="56.912422" style="stroke: #000000; stroke-width: 0.5"/>
      </g>
     </g>
     <g id="line2d_163">
      <g>
       <use xlink:href="#m1f72ca2b9b" x="239.312725" y="56.912422" style="stroke: #000000; stroke-width: 0.5"/>
      </g>
     </g>
    </g>
    <g id="ytick_44">
     <g id="line2d_164">
      <g>
       <use xlink:href="#m0386dba0b1" x="44.012725" y="54.897663" style="stroke: #000000; stroke-width: 0.5"/>
      </g>
     </g>
     <g id="line2d_165">
      <g>
       <use xlink:href="#m1f72ca2b9b" x="239.312725" y="54.897663" style="stroke: #000000; stroke-width: 0.5"/>
      </g>
     </g>
    </g>
    <g id="ytick_45">
     <g id="line2d_166">
      <g>
       <use xlink:href="#m0386dba0b1" x="44.012725" y="53.251485" style="stroke: #000000; stroke-width: 0.5"/>
      </g>
     </g>
     <g id="line2d_167">
      <g>
       <use xlink:href="#m1f72ca2b9b" x="239.312725" y="53.251485" style="stroke: #000000; stroke-width: 0.5"/>
      </g>
     </g>
    </g>
    <g id="ytick_46">
     <g id="line2d_168">
      <g>
       <use xlink:href="#m0386dba0b1" x="44.012725" y="51.859661" style="stroke: #000000; stroke-width: 0.5"/>
      </g>
     </g>
     <g id="line2d_169">
      <g>
       <use xlink:href="#m1f72ca2b9b" x="239.312725" y="51.859661" style="stroke: #000000; stroke-width: 0.5"/>
      </g>
     </g>
    </g>
    <g id="ytick_47">
     <g id="line2d_170">
      <g>
       <use xlink:href="#m0386dba0b1" x="44.012725" y="50.654008" style="stroke: #000000; stroke-width: 0.5"/>
      </g>
     </g>
     <g id="line2d_171">
      <g>
       <use xlink:href="#m1f72ca2b9b" x="239.312725" y="50.654008" style="stroke: #000000; stroke-width: 0.5"/>
      </g>
     </g>
    </g>
    <g id="ytick_48">
     <g id="line2d_172">
      <g>
       <use xlink:href="#m0386dba0b1" x="44.012725" y="49.590547" style="stroke: #000000; stroke-width: 0.5"/>
      </g>
     </g>
     <g id="line2d_173">
      <g>
       <use xlink:href="#m1f72ca2b9b" x="239.312725" y="49.590547" style="stroke: #000000; stroke-width: 0.5"/>
      </g>
     </g>
    </g>
    <g id="ytick_49">
     <g id="line2d_174">
      <g>
       <use xlink:href="#m0386dba0b1" x="44.012725" y="42.380836" style="stroke: #000000; stroke-width: 0.5"/>
      </g>
     </g>
     <g id="line2d_175">
      <g>
       <use xlink:href="#m1f72ca2b9b" x="239.312725" y="42.380836" style="stroke: #000000; stroke-width: 0.5"/>
      </g>
     </g>
    </g>
    <g id="ytick_50">
     <g id="line2d_176">
      <g>
       <use xlink:href="#m0386dba0b1" x="44.012725" y="38.719898" style="stroke: #000000; stroke-width: 0.5"/>
      </g>
     </g>
     <g id="line2d_177">
      <g>
       <use xlink:href="#m1f72ca2b9b" x="239.312725" y="38.719898" style="stroke: #000000; stroke-width: 0.5"/>
      </g>
     </g>
    </g>
    <g id="ytick_51">
     <g id="line2d_178">
      <g>
       <use xlink:href="#m0386dba0b1" x="44.012725" y="36.122422" style="stroke: #000000; stroke-width: 0.5"/>
      </g>
     </g>
     <g id="line2d_179">
      <g>
       <use xlink:href="#m1f72ca2b9b" x="239.312725" y="36.122422" style="stroke: #000000; stroke-width: 0.5"/>
      </g>
     </g>
    </g>
    <g id="ytick_52">
     <g id="line2d_180">
      <g>
       <use xlink:href="#m0386dba0b1" x="44.012725" y="34.107663" style="stroke: #000000; stroke-width: 0.5"/>
      </g>
     </g>
     <g id="line2d_181">
      <g>
       <use xlink:href="#m1f72ca2b9b" x="239.312725" y="34.107663" style="stroke: #000000; stroke-width: 0.5"/>
      </g>
     </g>
    </g>
    <g id="ytick_53">
     <g id="line2d_182">
      <g>
       <use xlink:href="#m0386dba0b1" x="44.012725" y="32.461485" style="stroke: #000000; stroke-width: 0.5"/>
      </g>
     </g>
     <g id="line2d_183">
      <g>
       <use xlink:href="#m1f72ca2b9b" x="239.312725" y="32.461485" style="stroke: #000000; stroke-width: 0.5"/>
      </g>
     </g>
    </g>
    <g id="ytick_54">
     <g id="line2d_184">
      <g>
       <use xlink:href="#m0386dba0b1" x="44.012725" y="31.069661" style="stroke: #000000; stroke-width: 0.5"/>
      </g>
     </g>
     <g id="line2d_185">
      <g>
       <use xlink:href="#m1f72ca2b9b" x="239.312725" y="31.069661" style="stroke: #000000; stroke-width: 0.5"/>
      </g>
     </g>
    </g>
    <g id="ytick_55">
     <g id="line2d_186">
      <g>
       <use xlink:href="#m0386dba0b1" x="44.012725" y="29.864008" style="stroke: #000000; stroke-width: 0.5"/>
      </g>
     </g>
     <g id="line2d_187">
      <g>
       <use xlink:href="#m1f72ca2b9b" x="239.312725" y="29.864008" style="stroke: #000000; stroke-width: 0.5"/>
      </g>
     </g>
    </g>
    <g id="ytick_56">
     <g id="line2d_188">
      <g>
       <use xlink:href="#m0386dba0b1" x="44.012725" y="28.800547" style="stroke: #000000; stroke-width: 0.5"/>
      </g>
     </g>
     <g id="line2d_189">
      <g>
       <use xlink:href="#m1f72ca2b9b" x="239.312725" y="28.800547" style="stroke: #000000; stroke-width: 0.5"/>
      </g>
     </g>
    </g>
    <g id="ytick_57">
     <g id="line2d_190">
      <g>
       <use xlink:href="#m0386dba0b1" x="44.012725" y="21.590836" style="stroke: #000000; stroke-width: 0.5"/>
      </g>
     </g>
     <g id="line2d_191">
      <g>
       <use xlink:href="#m1f72ca2b9b" x="239.312725" y="21.590836" style="stroke: #000000; stroke-width: 0.5"/>
      </g>
     </g>
    </g>
    <g id="ytick_58">
     <g id="line2d_192">
      <g>
       <use xlink:href="#m0386dba0b1" x="44.012725" y="17.929898" style="stroke: #000000; stroke-width: 0.5"/>
      </g>
     </g>
     <g id="line2d_193">
      <g>
       <use xlink:href="#m1f72ca2b9b" x="239.312725" y="17.929898" style="stroke: #000000; stroke-width: 0.5"/>
      </g>
     </g>
    </g>
    <g id="ytick_59">
     <g id="line2d_194">
      <g>
       <use xlink:href="#m0386dba0b1" x="44.012725" y="15.332422" style="stroke: #000000; stroke-width: 0.5"/>
      </g>
     </g>
     <g id="line2d_195">
      <g>
       <use xlink:href="#m1f72ca2b9b" x="239.312725" y="15.332422" style="stroke: #000000; stroke-width: 0.5"/>
      </g>
     </g>
    </g>
    <g id="ytick_60">
     <g id="line2d_196">
      <g>
       <use xlink:href="#m0386dba0b1" x="44.012725" y="13.317663" style="stroke: #000000; stroke-width: 0.5"/>
      </g>
     </g>
     <g id="line2d_197">
      <g>
       <use xlink:href="#m1f72ca2b9b" x="239.312725" y="13.317663" style="stroke: #000000; stroke-width: 0.5"/>
      </g>
     </g>
    </g>
    <g id="ytick_61">
     <g id="line2d_198">
      <g>
       <use xlink:href="#m0386dba0b1" x="44.012725" y="11.671485" style="stroke: #000000; stroke-width: 0.5"/>
      </g>
     </g>
     <g id="line2d_199">
      <g>
       <use xlink:href="#m1f72ca2b9b" x="239.312725" y="11.671485" style="stroke: #000000; stroke-width: 0.5"/>
      </g>
     </g>
    </g>
    <g id="ytick_62">
     <g id="line2d_200">
      <g>
       <use xlink:href="#m0386dba0b1" x="44.012725" y="10.279661" style="stroke: #000000; stroke-width: 0.5"/>
      </g>
     </g>
     <g id="line2d_201">
      <g>
       <use xlink:href="#m1f72ca2b9b" x="239.312725" y="10.279661" style="stroke: #000000; stroke-width: 0.5"/>
      </g>
     </g>
    </g>
    <g id="ytick_63">
     <g id="line2d_202">
      <g>
       <use xlink:href="#m0386dba0b1" x="44.012725" y="9.074008" style="stroke: #000000; stroke-width: 0.5"/>
      </g>
     </g>
     <g id="line2d_203">
      <g>
       <use xlink:href="#m1f72ca2b9b" x="239.312725" y="9.074008" style="stroke: #000000; stroke-width: 0.5"/>
      </g>
     </g>
    </g>
    <g id="ytick_64">
     <g id="line2d_204">
      <g>
       <use xlink:href="#m0386dba0b1" x="44.012725" y="8.010547" style="stroke: #000000; stroke-width: 0.5"/>
      </g>
     </g>
     <g id="line2d_205">
      <g>
       <use xlink:href="#m1f72ca2b9b" x="239.312725" y="8.010547" style="stroke: #000000; stroke-width: 0.5"/>
      </g>
     </g>
    </g>
    <g id="text_17">
     <!-- $FFT$ -->
     <g transform="translate(13.562625 94.985154) rotate(-90) scale(0.144 -0.144)">
      <defs>
       <path id="CMMI12-46" d="M 1901 2055 
L 2515 2055 
C 3002 2055 3040 1946 3040 1761 
C 3040 1678 3027 1589 2995 1448 
C 2982 1423 2976 1391 2976 1378 
C 2976 1333 3002 1308 3046 1308 
C 3098 1308 3104 1333 3130 1435 
L 3501 2935 
C 3501 2961 3482 2999 3437 2999 
C 3379 2999 3373 2974 3347 2863 
C 3213 2376 3085 2240 2528 2240 
L 1946 2240 
L 2362 3926 
C 2419 4154 2432 4154 2694 4154 
L 3552 4154 
C 4352 4154 4467 3918 4467 3464 
C 4467 3426 4467 3285 4448 3119 
C 4442 3094 4429 3011 4429 2985 
C 4429 2934 4461 2915 4499 2915 
C 4544 2915 4570 2941 4582 3055 
L 4717 4174 
C 4717 4195 4730 4263 4730 4277 
C 4730 4352 4672 4352 4557 4352 
L 1523 4352 
C 1402 4352 1338 4352 1338 4229 
C 1338 4154 1382 4154 1491 4154 
C 1888 4154 1888 4113 1888 4050 
C 1888 4018 1882 3992 1862 3922 
L 998 473 
C 941 249 928 185 480 185 
C 358 185 294 185 294 70 
C 294 0 352 0 390 0 
C 512 0 640 0 762 0 
L 1594 0 
C 1734 0 1888 0 2029 0 
C 2086 0 2163 0 2163 115 
C 2163 185 2125 185 1984 185 
C 1478 185 1466 229 1466 324 
C 1466 356 1478 406 1491 449 
L 1901 2055 
z
" transform="scale(0.015625)"/>
       <path id="CMMI12-54" d="M 2669 3910 
C 2707 4064 2720 4121 2816 4147 
C 2867 4160 3078 4160 3213 4160 
C 3853 4160 4154 4134 4154 3634 
C 4154 3537 4128 3295 4090 3057 
L 4083 2980 
C 4083 2954 4109 2916 4147 2916 
C 4211 2916 4211 2948 4230 3050 
L 4416 4184 
C 4429 4243 4429 4256 4429 4275 
C 4429 4345 4390 4345 4262 4345 
L 762 4345 
C 614 4345 608 4339 570 4224 
L 179 3070 
C 173 3056 154 2986 154 2980 
C 154 2948 179 2916 218 2916 
C 269 2916 282 2941 307 3024 
C 576 3801 710 4160 1562 4160 
L 1990 4160 
C 2144 4160 2208 4160 2208 4089 
C 2208 4069 2208 4057 2176 3941 
L 1318 499 
C 1254 249 1242 185 563 185 
C 403 185 358 185 358 64 
C 358 0 429 0 461 0 
C 621 0 787 0 947 0 
L 1946 0 
C 2106 0 2278 0 2438 0 
C 2509 0 2573 0 2573 121 
C 2573 185 2528 185 2362 185 
C 1786 185 1786 243 1786 339 
C 1786 346 1786 391 1811 494 
L 2669 3910 
z
" transform="scale(0.015625)"/>
      </defs>
      <use xlink:href="#CMMI12-46" transform="scale(0.996264)"/>
      <use xlink:href="#CMMI12-46" transform="translate(76.696793 0) scale(0.996264)"/>
      <use xlink:href="#CMMI12-54" transform="translate(153.393585 0) scale(0.996264)"/>
     </g>
    </g>
   </g>
   <g id="line2d_206">
    <path d="M 44.012725 102.298997 
L 44.251129 89.614801 
L 44.727935 85.160426 
L 44.847137 85.057558 
L 45.08554 87.669506 
L 45.681549 95.817002 
L 45.80075 96.220443 
L 46.158355 86.720572 
L 46.277557 86.40658 
L 46.396759 87.381336 
L 46.635162 93.045079 
L 46.873565 99.221552 
L 47.707977 93.023661 
L 48.065582 89.860801 
L 48.184783 90.98505 
L 48.303985 94.277969 
L 48.542388 108.364699 
L 48.780792 95.653615 
L 49.138397 86.976795 
L 49.257598 86.325889 
L 49.3768 86.41917 
L 49.496002 87.065572 
L 49.734405 90.513594 
L 49.972808 96.378451 
L 50.09201 96.278247 
L 50.449615 90.887506 
L 50.80722 93.865111 
L 50.926422 92.845625 
L 51.284027 85.79891 
L 51.403228 85.97125 
L 51.641632 93.682613 
L 51.760833 92.4392 
L 51.999237 85.63646 
L 52.23764 93.945565 
L 52.356842 86.832478 
L 52.476043 93.666911 
L 52.714447 82.753107 
L 52.833648 83.553246 
L 52.95285 70.621749 
L 53.072052 72.033083 
L 53.66806 37.531497 
L 53.787261 36.870552 
L 53.906463 37.785157 
L 54.144866 45.016309 
L 54.264068 52.733496 
L 54.502471 70.296439 
L 54.621673 71.445767 
L 54.740875 89.447608 
L 54.860076 81.072336 
L 54.979278 84.024177 
L 55.09848 95.02221 
L 55.217681 87.209608 
L 55.456085 94.72224 
L 55.575286 91.520439 
L 55.81369 101.628183 
L 55.932891 99.997317 
L 56.052093 109.957877 
L 56.171295 97.944291 
L 56.290496 97.310906 
L 56.409698 100.198069 
L 56.5289 99.802937 
L 56.886505 91.194774 
L 57.005706 91.265138 
L 57.482513 93.959894 
L 57.720916 101.35691 
L 58.436126 88.892995 
L 58.555328 88.962297 
L 58.793731 90.088403 
L 59.032135 93.477405 
L 59.508941 104.23783 
L 59.628143 107.645554 
L 59.747344 107.42342 
L 59.985748 100.655485 
L 60.104949 100.182757 
L 60.224151 100.446332 
L 60.462554 102.187014 
L 60.700958 106.855156 
L 60.820159 105.266483 
L 61.058563 99.677988 
L 61.177764 99.473678 
L 61.296966 101.179745 
L 61.416168 105.493339 
L 61.535369 117.41257 
L 62.012176 99.324075 
L 62.131378 98.951006 
L 62.250579 99.453277 
L 62.369781 99.418487 
L 62.608184 96.747853 
L 62.727386 96.866319 
L 62.965789 101.514716 
L 63.204193 112.519915 
L 63.442596 105.762602 
L 63.561798 106.073145 
L 63.680999 108.552976 
L 64.038604 97.439434 
L 64.157806 96.98061 
L 64.396209 98.485102 
L 64.515411 99.642749 
L 64.634613 102.475637 
L 64.753814 110.706179 
L 65.111419 97.502523 
L 65.230621 98.475143 
L 65.349823 103.886776 
L 65.469024 118.267801 
L 65.707427 97.230721 
L 65.826629 96.605222 
L 65.945831 98.422644 
L 66.184234 105.859805 
L 66.303436 105.919675 
L 66.422637 106.250825 
L 66.661041 100.448914 
L 66.899444 97.924102 
L 67.137847 100.977863 
L 67.257049 103.822697 
L 67.495452 112.189149 
L 67.733856 97.445376 
L 67.972259 94.160559 
L 68.091461 94.347728 
L 68.329864 97.72964 
L 68.687469 109.397109 
L 68.806671 109.378353 
L 69.283477 99.027724 
L 69.402679 98.35525 
L 69.521881 98.437703 
L 69.760284 99.765864 
L 69.998687 102.003107 
L 70.237091 105.213731 
L 70.356292 105.192518 
L 70.713897 99.280582 
L 70.833099 98.763188 
L 70.952301 98.798666 
L 71.071502 99.394962 
L 71.190704 101.37176 
L 71.429107 112.591891 
L 71.667511 101.537878 
L 71.905914 100.064165 
L 72.144317 95.282417 
L 72.263519 96.025318 
L 72.38272 103.734985 
L 72.501922 94.53659 
L 72.621124 102.621903 
L 72.859527 71.110344 
L 73.09793 60.92338 
L 73.336334 58.55769 
L 73.455535 59.764422 
L 73.693939 67.795079 
L 73.81314 76.362128 
L 73.932342 97.591006 
L 74.051544 91.427665 
L 74.289947 100.534213 
L 74.52835 96.018235 
L 74.647552 95.06275 
L 74.766754 95.099506 
L 75.005157 101.767017 
L 75.124359 104.958302 
L 75.481964 99.620084 
L 75.720367 99.377867 
L 75.839569 99.026675 
L 75.95877 99.075924 
L 76.316375 101.192633 
L 76.435577 101.391892 
L 76.554779 103.395746 
L 76.67398 109.014301 
L 76.793182 123.727639 
L 77.031585 103.752631 
L 77.150787 102.092929 
L 77.269989 102.271553 
L 77.38919 104.128387 
L 77.508392 108.176227 
L 77.627594 117.356746 
L 77.746795 115.86026 
L 77.985198 103.343742 
L 78.223602 100.484433 
L 78.342803 100.863083 
L 78.81961 105.628984 
L 79.296417 99.584174 
L 79.415618 99.75547 
L 79.892425 102.570173 
L 80.130828 111.00948 
L 80.25003 119.270137 
L 80.369232 118.434691 
L 80.607635 106.753814 
L 80.846038 102.514996 
L 81.084442 101.045577 
L 81.322845 100.431381 
L 81.442047 100.919741 
L 81.561248 102.751438 
L 81.799652 110.313105 
L 82.038055 102.068512 
L 82.157257 101.007946 
L 82.276458 102.255197 
L 82.514862 111.129929 
L 82.753265 105.048383 
L 82.991668 105.676361 
L 83.468475 97.456456 
L 83.706878 96.6573 
L 83.82608 97.332496 
L 84.064483 101.822452 
L 84.302886 107.660552 
L 84.54129 104.994012 
L 84.660491 106.012214 
L 84.779693 110.479324 
L 84.898895 137.539723 
L 85.137298 104.197573 
L 85.2565 102.183271 
L 85.375701 102.302361 
L 85.494903 104.252675 
L 85.733306 115.222483 
L 85.852508 136.450898 
L 86.090911 112.043028 
L 86.329315 106.146347 
L 86.448516 105.398665 
L 86.567718 106.263798 
L 86.68692 109.105005 
L 86.925323 124.141654 
L 87.163726 109.612775 
L 87.521331 102.190464 
L 87.640533 101.273807 
L 87.759735 101.512517 
L 88.11734 106.35149 
L 88.594146 99.610408 
L 88.713348 100.754187 
L 88.83255 103.799871 
L 88.951751 110.482289 
L 89.070953 126.110749 
L 89.309356 102.607955 
L 89.54776 98.577189 
L 89.666961 98.551812 
L 90.024566 101.811298 
L 90.262969 100.770963 
L 90.382171 102.796681 
L 90.620574 108.773038 
L 90.858978 103.386538 
L 91.216583 107.050575 
L 91.335784 106.928287 
L 91.454986 107.35106 
L 91.574188 109.602682 
L 91.693389 109.623599 
L 91.812591 110.128756 
L 92.050994 97.131554 
L 92.170196 101.388645 
L 92.408599 76.421573 
L 92.647003 67.051423 
L 92.885406 65.216292 
L 93.004608 66.690275 
L 93.243011 75.488026 
L 93.362213 85.005668 
L 93.481414 109.040624 
L 93.600616 96.997844 
L 93.839019 110.904378 
L 93.958221 105.884899 
L 94.077423 109.323907 
L 94.196624 108.385172 
L 94.554229 102.31671 
L 94.673431 101.767904 
L 95.031036 103.557268 
L 95.388641 102.235146 
L 95.507843 103.009598 
L 95.746246 109.91269 
L 96.103851 100.496701 
L 96.223052 100.67598 
L 96.342254 102.755115 
L 96.580657 114.723411 
L 96.699859 114.676524 
L 96.819061 111.484853 
L 96.938262 111.460917 
L 97.057464 114.387266 
L 97.176666 126.476412 
L 97.534271 103.214871 
L 97.653472 101.615358 
L 97.772674 101.995093 
L 97.891876 104.562993 
L 98.011077 110.728584 
L 98.130279 128.65927 
L 98.368682 107.316411 
L 98.487884 106.32308 
L 98.607086 107.752079 
L 98.726287 113.027092 
L 98.845489 131.271211 
L 99.083892 105.668792 
L 99.203094 103.867957 
L 99.322296 103.87515 
L 99.441497 104.714772 
L 99.560699 104.209101 
L 99.918304 98.211444 
L 100.037506 98.239315 
L 100.156707 99.61304 
L 100.514312 107.011239 
L 100.752716 102.065427 
L 100.871917 101.223365 
L 100.991119 101.386122 
L 101.348724 103.965822 
L 101.706329 101.383416 
L 101.944732 103.949746 
L 102.063934 103.929513 
L 102.302337 102.54931 
L 102.421539 104.145024 
L 102.659942 109.205182 
L 102.898345 106.006365 
L 103.017547 105.70852 
L 103.25595 102.011765 
L 103.494354 99.920825 
L 103.613555 100.8747 
L 103.851959 106.977754 
L 103.97116 111.300261 
L 104.090362 110.987573 
L 104.447967 100.299408 
L 104.68637 99.001366 
L 104.924774 101.425463 
L 105.282379 108.546743 
L 105.520782 115.37957 
L 105.997589 107.879638 
L 106.11679 108.607824 
L 106.355194 114.598764 
L 106.474395 123.395332 
L 106.593597 123.2226 
L 106.832 107.690287 
L 107.070404 102.27126 
L 107.189605 101.604764 
L 107.308807 102.331004 
L 107.54721 106.638383 
L 107.666412 106.397987 
L 107.904815 104.267097 
L 108.024017 104.968525 
L 108.26242 111.336664 
L 108.500823 130.161291 
L 108.739227 113.726875 
L 108.97763 103.823743 
L 109.216033 100.928157 
L 109.335235 100.808019 
L 109.573638 101.340253 
L 109.69284 102.120831 
L 109.812042 104.040364 
L 110.050445 114.799613 
L 110.40805 102.237457 
L 110.527252 101.506639 
L 110.646453 102.412413 
L 111.004058 112.423182 
L 111.480865 101.32584 
L 111.600067 100.720858 
L 111.719268 101.248622 
L 112.196075 78.693724 
L 112.315277 77.26781 
L 112.434478 77.441538 
L 112.55368 79.271835 
L 112.792083 89.708814 
L 112.911285 101.849339 
L 113.149688 98.850491 
L 113.507293 102.982551 
L 113.745697 100.199242 
L 113.864898 100.431156 
L 113.9841 102.130138 
L 114.103302 105.624445 
L 114.341705 124.733808 
L 114.580108 106.987291 
L 114.69931 105.734839 
L 114.818511 105.873502 
L 115.176116 109.418488 
L 115.41452 112.093769 
L 115.533721 111.84551 
L 116.12973 100.928153 
L 116.248931 100.53165 
L 116.368133 100.679137 
L 116.606536 102.128935 
L 116.84494 105.294291 
L 116.964141 109.007475 
L 117.083343 118.228314 
L 117.202545 116.510323 
L 117.440948 107.503319 
L 117.56015 109.317245 
L 117.679351 114.901583 
L 117.798553 112.381611 
L 118.036956 105.621631 
L 118.156158 106.535694 
L 118.394561 114.850479 
L 118.513763 114.530943 
L 118.752166 111.861463 
L 118.871368 112.115835 
L 118.99057 111.759256 
L 119.348175 105.696201 
L 119.586578 102.538939 
L 119.824981 101.784734 
L 120.063385 101.997743 
L 120.301788 101.274317 
L 120.42099 101.556026 
L 120.540191 103.058809 
L 120.778594 109.407294 
L 120.897796 109.334902 
L 121.136199 107.261128 
L 121.851409 109.117937 
L 121.970611 109.48666 
L 122.089813 110.510601 
L 122.328216 119.745123 
L 122.566619 107.557168 
L 122.685821 106.665783 
L 122.805023 108.446869 
L 123.043426 112.530482 
L 123.162628 111.684527 
L 123.281829 113.996781 
L 123.401031 118.88117 
L 123.639434 110.826648 
L 123.758636 111.015792 
L 123.877838 112.821517 
L 123.997039 111.300868 
L 124.235443 107.22655 
L 124.354644 108.382812 
L 124.473846 112.558852 
L 124.593048 124.924606 
L 124.950653 109.337746 
L 125.069854 109.010921 
L 125.308258 110.91235 
L 125.665863 115.14121 
L 125.785064 114.576356 
L 126.381073 104.148074 
L 126.500274 104.823016 
L 126.738677 111.403879 
L 126.857879 114.932553 
L 127.096282 111.010725 
L 127.215484 111.276942 
L 127.453887 116.931019 
L 127.573089 122.635248 
L 127.692291 121.387407 
L 127.930694 115.827918 
L 128.049896 116.858143 
L 128.169097 115.946189 
L 128.407501 109.826888 
L 128.526702 109.344761 
L 128.645904 110.76425 
L 128.884307 117.538804 
L 129.241912 111.757317 
L 129.480316 114.939813 
L 129.599517 114.458979 
L 129.957122 106.285757 
L 130.195526 105.480724 
L 130.314727 106.050258 
L 130.553131 109.295983 
L 131.029937 117.912278 
L 131.149139 117.516567 
L 131.268341 130.802396 
L 131.506744 100.651671 
L 131.745147 91.898614 
L 131.864349 90.453112 
L 131.983551 90.581295 
L 132.102752 92.273731 
L 132.341156 101.395719 
L 132.579559 123.561778 
L 132.817962 111.114599 
L 133.056365 110.47777 
L 133.41397 106.89026 
L 133.533172 107.238937 
L 133.771575 111.829576 
L 134.009979 119.472218 
L 134.12918 118.705175 
L 134.486785 110.863982 
L 134.605987 111.70634 
L 134.84439 120.630373 
L 134.963592 134.652991 
L 135.201995 113.805902 
L 135.440399 107.092843 
L 135.5596 106.283016 
L 135.678802 106.582529 
L 135.917205 109.200366 
L 136.155609 114.058609 
L 136.394012 124.047234 
L 136.751617 109.062416 
L 136.99002 106.561068 
L 137.109222 107.170209 
L 137.228424 109.554894 
L 137.347625 115.509752 
L 137.466827 131.951927 
L 137.70523 110.321176 
L 137.824432 109.790465 
L 137.943634 112.082172 
L 138.182037 131.896485 
L 138.42044 113.067233 
L 138.658844 111.186414 
L 138.778045 111.95089 
L 139.016448 115.437029 
L 139.612457 101.060925 
L 139.731658 100.477038 
L 139.85086 100.936148 
L 139.970062 102.731156 
L 140.327667 115.761726 
L 140.56607 110.279081 
L 141.042877 109.215722 
L 141.162078 110.066114 
L 141.28128 112.629986 
L 141.400482 118.449638 
L 141.519683 132.226272 
L 141.758087 115.856609 
L 141.877288 114.767785 
L 141.99649 115.013308 
L 142.354095 117.012959 
L 142.473297 116.182058 
L 143.069305 102.217508 
L 143.188507 101.870624 
L 143.307708 102.525835 
L 143.665313 108.889525 
L 143.784515 108.852117 
L 144.022918 106.798086 
L 144.14212 106.897375 
L 144.380523 109.09623 
L 144.618927 113.797256 
L 144.738128 117.936148 
L 145.334136 106.694358 
L 145.453338 106.268152 
L 145.57254 106.255574 
L 145.691741 107.281488 
L 145.810943 110.041279 
L 145.930145 115.889492 
L 146.049346 133.820301 
L 146.28775 120.61937 
L 146.406951 119.849102 
L 146.645355 111.523053 
L 146.764556 110.398735 
L 146.883758 111.699549 
L 147.122161 116.761282 
L 147.360565 112.161326 
L 147.479766 113.542578 
L 147.598968 118.413813 
L 147.71817 130.255449 
L 147.956573 114.355025 
L 148.194976 109.993869 
L 148.314178 110.118656 
L 148.910186 118.098971 
L 149.029388 118.778145 
L 149.267791 112.581306 
L 149.386993 112.986 
L 149.625396 115.146665 
L 150.221405 105.293176 
L 150.340606 106.270046 
L 150.57901 113.94347 
L 150.817413 126.384405 
L 151.175018 108.582208 
L 151.413421 104.170642 
L 151.532623 104.236044 
L 151.651824 105.782228 
L 152.009429 113.042622 
L 152.367034 108.176258 
L 152.486236 107.757865 
L 152.605438 107.775424 
L 152.724639 108.228748 
L 152.843841 109.388549 
L 153.082244 114.754209 
L 153.559051 102.242534 
L 153.678253 102.614117 
L 154.035858 108.203265 
L 154.155059 107.90619 
L 154.393463 105.897879 
L 154.512664 105.972962 
L 154.631866 107.393346 
L 154.751068 110.984062 
L 154.870269 119.012966 
L 154.989471 117.947416 
L 155.227874 109.388216 
L 155.347076 109.218804 
L 155.704681 113.20038 
L 155.823883 115.441537 
L 156.062286 129.417059 
L 156.300689 116.596798 
L 156.539093 114.114898 
L 156.658294 114.308002 
L 156.896698 116.629795 
L 157.015899 115.667942 
L 157.373504 109.401243 
L 157.492706 109.691576 
L 157.611907 111.640703 
L 157.731109 115.974375 
L 157.850311 125.384592 
L 157.969512 122.453082 
L 158.207916 110.647142 
L 158.446319 106.438623 
L 158.565521 105.920839 
L 158.684722 106.133569 
L 159.042327 107.399807 
L 159.161529 107.612595 
L 159.280731 108.424271 
L 159.399932 110.560127 
L 159.638336 117.785411 
L 159.876739 112.7676 
L 159.995941 113.015049 
L 160.234344 116.620063 
L 160.472747 124.320837 
L 160.591949 130.323618 
L 160.949554 112.231264 
L 161.187957 108.889083 
L 161.307159 108.676708 
L 161.426361 109.748341 
L 161.545562 113.016437 
L 161.783966 122.32303 
L 162.022369 114.724563 
L 162.379974 118.031252 
L 162.499176 117.470642 
L 163.214386 109.638499 
L 163.333587 110.096609 
L 163.452789 112.804629 
L 163.691192 121.853615 
L 163.929595 110.772166 
L 164.048797 110.986912 
L 164.167999 113.803837 
L 164.2872 120.394426 
L 164.406402 134.057613 
L 164.644805 120.049871 
L 165.121612 110.775796 
L 165.240814 110.353725 
L 165.360015 111.458055 
L 165.598419 116.975725 
L 165.836822 114.909667 
L 166.075225 124.463046 
L 166.313629 109.586826 
L 166.43283 107.964687 
L 166.552032 108.373158 
L 166.790435 111.448849 
L 167.14804 108.917807 
L 167.267242 109.781487 
L 167.624847 116.473021 
L 167.744049 114.695292 
L 167.86325 114.767916 
L 167.982452 118.055811 
L 168.220855 128.924143 
L 168.340057 124.892535 
L 168.57846 129.639842 
L 168.697662 129.157361 
L 168.816864 143.738012 
L 169.055267 117.450274 
L 169.29367 113.126953 
L 169.412872 112.990488 
L 169.651275 113.366532 
L 169.770477 114.320226 
L 170.00888 121.915711 
L 170.128082 120.644237 
L 170.366485 112.929548 
L 170.72409 110.206727 
L 171.081695 105.794919 
L 171.200897 105.738418 
L 171.320098 106.465423 
L 171.558502 110.998254 
L 171.796905 118.944532 
L 172.035308 116.061949 
L 172.273712 117.184659 
L 172.392913 117.320888 
L 172.512115 120.674105 
L 172.631317 132.35989 
L 172.86972 110.468513 
L 173.108123 107.497458 
L 173.227325 108.169122 
L 173.58493 112.794803 
L 173.942535 111.324184 
L 174.061737 112.084178 
L 174.30014 118.643681 
L 174.419342 117.873601 
L 174.657745 109.711467 
L 174.776947 108.637659 
L 174.896148 108.685498 
L 175.134552 109.629164 
L 175.372955 109.661201 
L 175.492157 109.959789 
L 175.611358 110.95552 
L 175.849761 117.008202 
L 175.968963 126.468187 
L 176.44577 109.419972 
L 176.564971 109.662952 
L 176.803375 114.839155 
L 177.041778 121.175027 
L 177.518585 112.097616 
L 177.995391 107.718053 
L 178.472198 106.025024 
L 178.5914 106.010424 
L 178.829803 106.997083 
L 179.068206 108.855534 
L 179.30661 114.254892 
L 179.545013 119.427062 
L 179.664215 118.749051 
L 179.783416 119.110982 
L 180.02182 121.686668 
L 180.141021 121.550857 
L 180.498626 117.844024 
L 180.617828 118.890615 
L 180.73703 122.889575 
L 180.856231 131.590453 
L 181.094635 114.167714 
L 181.333038 108.990501 
L 181.45224 108.412268 
L 181.571441 108.931953 
L 181.809844 113.189722 
L 181.929046 115.988792 
L 182.048248 116.116794 
L 182.286651 112.573478 
L 182.405853 112.107579 
L 182.525054 112.337348 
L 182.644256 112.321014 
L 182.882659 110.99007 
L 183.001861 111.523052 
L 183.121063 113.848426 
L 183.359466 127.253787 
L 183.597869 110.793937 
L 183.836273 106.186525 
L 183.955474 106.127582 
L 184.313079 110.236404 
L 184.551483 106.998954 
L 184.670684 108.294225 
L 184.789886 112.596274 
L 184.909088 122.881437 
L 185.147491 116.070456 
L 185.266693 116.285998 
L 185.505096 121.903048 
L 185.624298 121.885406 
L 186.101104 110.672296 
L 186.220306 110.635085 
L 186.339508 112.166972 
L 186.577911 121.837834 
L 186.697113 121.74543 
L 186.935516 114.470948 
L 187.173919 111.69419 
L 187.293121 111.366964 
L 187.412323 112.012565 
L 187.650726 117.57886 
L 187.769927 121.111243 
L 188.127532 119.829392 
L 188.485137 115.488399 
L 188.604339 115.568517 
L 188.723541 115.098743 
L 188.961944 113.029454 
L 189.081146 112.871181 
L 189.200347 113.865599 
L 189.438751 119.760087 
L 189.796356 108.259164 
L 189.915557 108.243594 
L 190.034759 110.589855 
L 190.153961 115.47903 
L 190.273162 113.52222 
L 190.511566 105.899372 
L 190.630767 105.277894 
L 190.749969 106.171444 
L 191.107574 114.041522 
L 191.226776 113.720128 
L 191.465179 112.199008 
L 191.584381 112.389846 
L 191.703582 113.599965 
L 191.941986 119.132224 
L 192.299591 114.319133 
L 192.418792 115.223762 
L 192.537994 115.215196 
L 192.776397 112.886585 
L 192.895599 113.287939 
L 193.253204 116.629953 
L 193.610809 115.903069 
L 193.730011 117.141493 
L 193.849212 120.739117 
L 193.968414 128.630916 
L 194.326019 115.711562 
L 194.564422 113.428358 
L 194.802825 110.931282 
L 194.922027 110.988568 
L 195.398834 114.093191 
L 195.637237 113.643891 
L 195.756439 113.026667 
L 196.352447 105.292544 
L 196.471649 105.411353 
L 196.710052 107.557695 
L 197.186859 114.626475 
L 197.30606 118.420037 
L 197.544464 130.184149 
L 197.782867 117.658172 
L 197.902069 116.80862 
L 198.02127 117.155212 
L 198.259674 119.652057 
L 198.498077 127.194643 
L 198.617279 125.076833 
L 198.855682 118.591225 
L 199.332489 110.613829 
L 199.45169 110.971579 
L 199.690094 115.427177 
L 199.928497 120.613339 
L 200.047698 119.966304 
L 200.405303 114.601263 
L 200.524505 114.533274 
L 200.643707 115.278943 
L 200.762908 117.056785 
L 200.88211 120.742904 
L 201.001312 128.919224 
L 201.120513 127.289664 
L 201.358917 119.560912 
L 201.478118 121.125618 
L 201.59732 124.512857 
L 201.716522 124.723791 
L 201.954925 122.305935 
L 202.31253 111.86945 
L 202.550933 108.884857 
L 202.670135 108.762457 
L 202.789337 110.212757 
L 202.908538 113.845138 
L 203.02774 121.125286 
L 203.146942 135.910578 
L 203.385345 125.80014 
L 203.623748 127.058809 
L 203.74295 127.307985 
L 203.862152 128.801473 
L 203.981353 137.009302 
L 204.45816 120.491054 
L 205.054168 109.941028 
L 205.17337 110.268879 
L 205.292572 110.165838 
L 205.411773 109.846122 
L 205.530975 109.938114 
L 205.88858 111.975953 
L 206.007782 111.938171 
L 206.246185 111.644157 
L 206.365386 112.141403 
L 206.722991 115.184741 
L 206.842193 114.988652 
L 206.961395 115.256523 
L 207.080596 116.785557 
L 207.319 124.202078 
L 207.557403 138.036759 
L 207.795806 120.005006 
L 208.03421 114.753482 
L 208.153411 113.960553 
L 208.272613 114.534245 
L 208.511016 117.952194 
L 208.868621 113.188362 
L 208.987823 115.088684 
L 209.226226 127.747323 
L 209.46463 115.390059 
L 209.583831 115.458498 
L 209.822235 125.107975 
L 210.060638 116.091714 
L 210.17984 115.606181 
L 210.418243 119.362218 
L 210.775848 111.345672 
L 210.89505 112.041491 
L 211.252655 119.443112 
L 211.371856 118.481025 
L 211.491058 119.394513 
L 211.61026 121.478322 
L 211.729461 120.034546 
L 211.967865 114.961392 
L 212.087066 114.685543 
L 212.206268 116.184354 
L 212.325469 120.666798 
L 212.444671 130.921291 
L 212.683074 115.312776 
L 212.802276 113.876499 
L 212.921478 114.8838 
L 213.040679 118.463788 
L 213.279083 127.719832 
L 213.517486 122.853319 
L 213.636688 124.946703 
L 213.755889 130.730208 
L 213.875091 143.605214 
L 214.113494 119.069612 
L 214.351898 113.750482 
L 214.590301 112.448102 
L 214.709503 112.203805 
L 214.828704 112.304029 
L 214.947906 113.226591 
L 215.067108 115.71966 
L 215.305511 130.304223 
L 215.543914 117.045723 
L 215.663116 116.787472 
L 215.901519 120.518239 
L 216.378326 113.498102 
L 216.497528 113.616326 
L 216.616729 114.406767 
L 216.855133 119.006658 
L 217.093536 129.377237 
L 217.331939 113.132612 
L 217.451141 111.116337 
L 217.570343 110.991745 
L 217.689544 112.672154 
L 217.927948 120.292804 
L 218.166351 115.380275 
L 218.643157 107.528281 
L 218.762359 106.954484 
L 218.881561 107.594503 
L 219.000762 109.813224 
L 219.119964 114.502013 
L 219.239166 125.878641 
L 219.358367 122.729802 
L 219.596771 114.16889 
L 219.715972 113.750936 
L 220.073577 114.368634 
L 220.192779 114.421122 
L 220.311981 114.848581 
L 220.669586 117.317127 
L 220.907989 116.462059 
L 221.027191 116.568999 
L 221.146392 117.627803 
L 221.265594 120.588289 
L 221.503997 132.84359 
L 221.742401 123.024771 
L 221.861602 123.608062 
L 222.219207 113.659828 
L 222.576812 111.960501 
L 222.696014 112.035713 
L 223.053619 117.346994 
L 223.411224 111.670339 
L 223.530426 111.225651 
L 223.649627 111.529681 
L 224.007232 115.729855 
L 224.126434 115.595735 
L 224.245636 115.152518 
L 224.364837 115.637883 
L 224.60324 119.642442 
L 224.722442 118.178644 
L 224.960845 112.191298 
L 225.080047 111.197151 
L 225.199249 111.568444 
L 225.437652 116.13123 
L 225.556854 118.917579 
L 225.676055 118.115936 
L 226.03366 110.582613 
L 226.152862 110.309613 
L 226.272064 111.191511 
L 226.510467 115.617844 
L 226.74887 124.929064 
L 226.868072 141.049999 
L 227.106475 114.442222 
L 227.344879 110.038263 
L 227.46408 110.446574 
L 227.583282 112.704825 
L 227.821685 120.278423 
L 228.060089 113.240938 
L 228.17929 112.323991 
L 228.298492 112.847397 
L 228.536895 117.753533 
L 228.656097 120.512113 
L 228.775299 119.667866 
L 229.013702 117.162761 
L 229.132904 117.053881 
L 229.252105 116.331322 
L 229.60971 112.992253 
L 229.728912 113.789021 
L 229.848114 116.115322 
L 229.967315 120.918873 
L 230.086517 132.164007 
L 230.32492 115.992081 
L 230.563323 110.544798 
L 230.801727 108.48734 
L 230.920928 108.424895 
L 231.397735 110.891777 
L 231.636138 114.21312 
L 231.993743 120.366717 
L 232.232147 133.715079 
L 232.351348 133.082024 
L 232.589752 118.650651 
L 232.828155 115.079108 
L 232.947357 115.52204 
L 233.066558 117.419974 
L 233.304962 126.950988 
L 233.781768 117.904881 
L 233.90097 117.888742 
L 234.139373 116.809733 
L 234.258575 117.362384 
L 234.377777 119.632067 
L 234.61618 133.339346 
L 234.735382 131.442438 
L 234.973785 120.405029 
L 235.212188 117.18132 
L 235.33139 116.892018 
L 235.688995 116.920578 
L 235.927398 115.354735 
L 236.165802 113.907955 
L 236.285003 113.919638 
L 236.404205 114.447038 
L 236.523407 115.786938 
L 236.642608 118.805086 
L 236.881011 130.590454 
L 237.119415 116.180142 
L 237.47702 111.194735 
L 237.715423 110.068191 
L 237.953826 110.1969 
L 238.19223 110.068069 
L 238.311431 110.906302 
L 238.549835 115.210035 
L 238.669036 115.021206 
L 238.90744 112.708978 
L 239.145843 112.350378 
L 239.265045 112.367881 
L 239.384246 112.810774 
L 239.384246 112.810774 
" clip-path="url(#p257115e4d6)" style="fill: none; stroke: #4477aa; stroke-linecap: square"/>
   </g>
   <g id="patch_3">
    <path d="M 44.012725 152.589249 
L 44.012725 7.059249 
" style="fill: none; stroke: #000000; stroke-width: 0.5; stroke-linejoin: miter; stroke-linecap: square"/>
   </g>
   <g id="patch_4">
    <path d="M 239.312725 152.589249 
L 239.312725 7.059249 
" style="fill: none; stroke: #000000; stroke-width: 0.5; stroke-linejoin: miter; stroke-linecap: square"/>
   </g>
   <g id="patch_5">
    <path d="M 44.012725 152.589249 
L 239.312725 152.589249 
" style="fill: none; stroke: #000000; stroke-width: 0.5; stroke-linejoin: miter; stroke-linecap: square"/>
   </g>
   <g id="patch_6">
    <path d="M 44.012725 7.059249 
L 239.312725 7.059249 
" style="fill: none; stroke: #000000; stroke-width: 0.5; stroke-linejoin: miter; stroke-linecap: square"/>
   </g>
  </g>
 </g>
 <defs>
  <clipPath id="p257115e4d6">
   <rect x="44.012725" y="7.059249" width="195.3" height="145.53"/>
  </clipPath>
 </defs>
</svg>
