<?xml version="1.0" encoding="utf-8" standalone="no"?>
<!DOCTYPE svg PUBLIC "-//W3C//DTD SVG 1.1//EN"
  "http://www.w3.org/Graphics/SVG/1.1/DTD/svg11.dtd">
<svg xmlns:xlink="http://www.w3.org/1999/xlink" width="252.875396pt" height="186.891106pt" viewBox="0 0 252.875396 186.891106" xmlns="http://www.w3.org/2000/svg" version="1.1">
 <metadata>
  <rdf:RDF xmlns:dc="http://purl.org/dc/elements/1.1/" xmlns:cc="http://creativecommons.org/ns#" xmlns:rdf="http://www.w3.org/1999/02/22-rdf-syntax-ns#">
   <cc:Work>
    <dc:type rdf:resource="http://purl.org/dc/dcmitype/StillImage"/>
    <dc:date>2025-03-14T12:24:29.833123</dc:date>
    <dc:format>image/svg+xml</dc:format>
    <dc:creator>
     <cc:Agent>
      <dc:title>Matplotlib v3.9.2, https://matplotlib.org/</dc:title>
     </cc:Agent>
    </dc:creator>
   </cc:Work>
  </rdf:RDF>
 </metadata>
 <defs>
  <style type="text/css">*{stroke-linejoin: round; stroke-linecap: butt}</style>
 </defs>
 <g id="figure_1">
  <g id="patch_1">
   <path d="M -0 186.891106 
L 252.875396 186.891106 
L 252.875396 0 
L -0 0 
L -0 186.891106 
z
" style="fill: none"/>
  </g>
  <g id="axes_1">
   <g id="patch_2">
    <path d="M 44.012725 152.589249 
L 239.312725 152.589249 
L 239.312725 7.059249 
L 44.012725 7.059249 
L 44.012725 152.589249 
z
" style="fill: none"/>
   </g>
   <g id="matplotlib.axis_1">
    <g id="xtick_1">
     <g id="line2d_1">
      <path d="M 44.012725 152.589249 
L 44.012725 7.059249 
" clip-path="url(#pe717837bb9)" style="fill: none; stroke-dasharray: 1.85,0.8; stroke-dashoffset: 0; stroke: #000000; stroke-opacity: 0.5; stroke-width: 0.5"/>
     </g>
     <g id="line2d_2">
      <defs>
       <path id="m07e52362db" d="M 0 0 
L 0 -3 
" style="stroke: #000000; stroke-width: 0.5"/>
      </defs>
      <g>
       <use xlink:href="#m07e52362db" x="44.012725" y="152.589249" style="stroke: #000000; stroke-width: 0.5"/>
      </g>
     </g>
     <g id="line2d_3">
      <defs>
       <path id="m1a2cf7c448" d="M 0 0 
L 0 3 
" style="stroke: #000000; stroke-width: 0.5"/>
      </defs>
      <g>
       <use xlink:href="#m1a2cf7c448" x="44.012725" y="7.059249" style="stroke: #000000; stroke-width: 0.5"/>
      </g>
     </g>
     <g id="text_1">
      <!-- $\mathdefault{0}$ -->
      <g transform="translate(41.522058 163.007748) scale(0.1 -0.1)">
       <defs>
        <path id="CMR17-30" d="M 2688 2025 
C 2688 2416 2682 3080 2413 3591 
C 2176 4039 1798 4198 1466 4198 
C 1158 4198 768 4058 525 3597 
C 269 3118 243 2524 243 2025 
C 243 1661 250 1106 448 619 
C 723 -39 1216 -128 1466 -128 
C 1760 -128 2208 -7 2470 600 
C 2662 1042 2688 1559 2688 2025 
z
M 1466 -26 
C 1056 -26 813 325 723 812 
C 653 1188 653 1738 653 2096 
C 653 2588 653 2997 736 3387 
C 858 3929 1216 4096 1466 4096 
C 1728 4096 2067 3923 2189 3400 
C 2272 3036 2278 2607 2278 2096 
C 2278 1680 2278 1169 2202 792 
C 2067 95 1690 -26 1466 -26 
z
" transform="scale(0.015625)"/>
       </defs>
       <use xlink:href="#CMR17-30" transform="scale(0.996264)"/>
      </g>
     </g>
    </g>
    <g id="xtick_2">
     <g id="line2d_4">
      <path d="M 92.837725 152.589249 
L 92.837725 7.059249 
" clip-path="url(#pe717837bb9)" style="fill: none; stroke-dasharray: 1.85,0.8; stroke-dashoffset: 0; stroke: #000000; stroke-opacity: 0.5; stroke-width: 0.5"/>
     </g>
     <g id="line2d_5">
      <g>
       <use xlink:href="#m07e52362db" x="92.837725" y="152.589249" style="stroke: #000000; stroke-width: 0.5"/>
      </g>
     </g>
     <g id="line2d_6">
      <g>
       <use xlink:href="#m1a2cf7c448" x="92.837725" y="7.059249" style="stroke: #000000; stroke-width: 0.5"/>
      </g>
     </g>
     <g id="text_2">
      <!-- $\mathdefault{2000}$ -->
      <g transform="translate(82.875055 163.007748) scale(0.1 -0.1)">
       <defs>
        <path id="CMR17-32" d="M 2669 989 
L 2554 989 
C 2490 536 2438 459 2413 420 
C 2381 369 1920 369 1830 369 
L 602 369 
C 832 619 1280 1072 1824 1597 
C 2214 1967 2669 2402 2669 3035 
C 2669 3790 2067 4224 1395 4224 
C 691 4224 262 3604 262 3030 
C 262 2780 448 2748 525 2748 
C 589 2748 781 2787 781 3010 
C 781 3207 614 3264 525 3264 
C 486 3264 448 3258 422 3245 
C 544 3790 915 4058 1306 4058 
C 1862 4058 2227 3617 2227 3035 
C 2227 2479 1901 2000 1536 1584 
L 262 146 
L 262 0 
L 2515 0 
L 2669 989 
z
" transform="scale(0.015625)"/>
       </defs>
       <use xlink:href="#CMR17-32" transform="scale(0.996264)"/>
       <use xlink:href="#CMR17-30" transform="translate(45.690477 0) scale(0.996264)"/>
       <use xlink:href="#CMR17-30" transform="translate(91.380954 0) scale(0.996264)"/>
       <use xlink:href="#CMR17-30" transform="translate(137.071431 0) scale(0.996264)"/>
      </g>
     </g>
    </g>
    <g id="xtick_3">
     <g id="line2d_7">
      <path d="M 141.662725 152.589249 
L 141.662725 7.059249 
" clip-path="url(#pe717837bb9)" style="fill: none; stroke-dasharray: 1.85,0.8; stroke-dashoffset: 0; stroke: #000000; stroke-opacity: 0.5; stroke-width: 0.5"/>
     </g>
     <g id="line2d_8">
      <g>
       <use xlink:href="#m07e52362db" x="141.662725" y="152.589249" style="stroke: #000000; stroke-width: 0.5"/>
      </g>
     </g>
     <g id="line2d_9">
      <g>
       <use xlink:href="#m1a2cf7c448" x="141.662725" y="7.059249" style="stroke: #000000; stroke-width: 0.5"/>
      </g>
     </g>
     <g id="text_3">
      <!-- $\mathdefault{4000}$ -->
      <g transform="translate(131.700055 163.007748) scale(0.1 -0.1)">
       <defs>
        <path id="CMR17-34" d="M 2150 4122 
C 2150 4256 2144 4256 2029 4256 
L 128 1254 
L 128 1088 
L 1779 1088 
L 1779 457 
C 1779 224 1766 160 1318 160 
L 1197 160 
L 1197 0 
C 1402 0 1747 0 1965 0 
C 2182 0 2528 0 2733 0 
L 2733 160 
L 2611 160 
C 2163 160 2150 224 2150 457 
L 2150 1088 
L 2803 1088 
L 2803 1254 
L 2150 1254 
L 2150 4122 
z
M 1798 3703 
L 1798 1254 
L 256 1254 
L 1798 3703 
z
" transform="scale(0.015625)"/>
       </defs>
       <use xlink:href="#CMR17-34" transform="scale(0.996264)"/>
       <use xlink:href="#CMR17-30" transform="translate(45.690477 0) scale(0.996264)"/>
       <use xlink:href="#CMR17-30" transform="translate(91.380954 0) scale(0.996264)"/>
       <use xlink:href="#CMR17-30" transform="translate(137.071431 0) scale(0.996264)"/>
      </g>
     </g>
    </g>
    <g id="xtick_4">
     <g id="line2d_10">
      <path d="M 190.487725 152.589249 
L 190.487725 7.059249 
" clip-path="url(#pe717837bb9)" style="fill: none; stroke-dasharray: 1.85,0.8; stroke-dashoffset: 0; stroke: #000000; stroke-opacity: 0.5; stroke-width: 0.5"/>
     </g>
     <g id="line2d_11">
      <g>
       <use xlink:href="#m07e52362db" x="190.487725" y="152.589249" style="stroke: #000000; stroke-width: 0.5"/>
      </g>
     </g>
     <g id="line2d_12">
      <g>
       <use xlink:href="#m1a2cf7c448" x="190.487725" y="7.059249" style="stroke: #000000; stroke-width: 0.5"/>
      </g>
     </g>
     <g id="text_4">
      <!-- $\mathdefault{6000}$ -->
      <g transform="translate(180.525055 163.007748) scale(0.1 -0.1)">
       <defs>
        <path id="CMR17-36" d="M 678 2176 
C 678 3690 1395 4032 1811 4032 
C 1946 4032 2272 4009 2400 3776 
C 2298 3776 2106 3776 2106 3553 
C 2106 3381 2246 3323 2336 3323 
C 2394 3323 2566 3348 2566 3560 
C 2566 3954 2246 4179 1805 4179 
C 1043 4179 243 3390 243 1984 
C 243 253 966 -128 1478 -128 
C 2099 -128 2688 427 2688 1283 
C 2688 2081 2170 2662 1517 2662 
C 1126 2662 838 2407 678 1960 
L 678 2176 
z
M 1478 25 
C 691 25 691 1200 691 1436 
C 691 1896 909 2560 1504 2560 
C 1613 2560 1926 2560 2138 2120 
C 2253 1870 2253 1609 2253 1289 
C 2253 944 2253 690 2118 434 
C 1978 171 1773 25 1478 25 
z
" transform="scale(0.015625)"/>
       </defs>
       <use xlink:href="#CMR17-36" transform="scale(0.996264)"/>
       <use xlink:href="#CMR17-30" transform="translate(45.690477 0) scale(0.996264)"/>
       <use xlink:href="#CMR17-30" transform="translate(91.380954 0) scale(0.996264)"/>
       <use xlink:href="#CMR17-30" transform="translate(137.071431 0) scale(0.996264)"/>
      </g>
     </g>
    </g>
    <g id="xtick_5">
     <g id="line2d_13">
      <path d="M 239.312725 152.589249 
L 239.312725 7.059249 
" clip-path="url(#pe717837bb9)" style="fill: none; stroke-dasharray: 1.85,0.8; stroke-dashoffset: 0; stroke: #000000; stroke-opacity: 0.5; stroke-width: 0.5"/>
     </g>
     <g id="line2d_14">
      <g>
       <use xlink:href="#m07e52362db" x="239.312725" y="152.589249" style="stroke: #000000; stroke-width: 0.5"/>
      </g>
     </g>
     <g id="line2d_15">
      <g>
       <use xlink:href="#m1a2cf7c448" x="239.312725" y="7.059249" style="stroke: #000000; stroke-width: 0.5"/>
      </g>
     </g>
     <g id="text_5">
      <!-- $\mathdefault{8000}$ -->
      <g transform="translate(229.350055 163.007748) scale(0.1 -0.1)">
       <defs>
        <path id="CMR17-38" d="M 1741 2264 
C 2144 2467 2554 2773 2554 3263 
C 2554 3841 1990 4179 1472 4179 
C 890 4179 378 3759 378 3180 
C 378 3021 416 2747 666 2505 
C 730 2442 998 2251 1171 2130 
C 883 1983 211 1634 211 934 
C 211 279 838 -128 1459 -128 
C 2144 -128 2720 362 2720 1010 
C 2720 1590 2330 1857 2074 2029 
L 1741 2264 
z
M 902 2822 
C 851 2854 595 3051 595 3351 
C 595 3739 998 4032 1459 4032 
C 1965 4032 2336 3676 2336 3262 
C 2336 2669 1670 2331 1638 2331 
C 1632 2331 1626 2331 1574 2370 
L 902 2822 
z
M 2080 1519 
C 2176 1449 2483 1240 2483 851 
C 2483 381 2010 25 1472 25 
C 890 25 448 438 448 940 
C 448 1443 838 1862 1280 2060 
L 2080 1519 
z
" transform="scale(0.015625)"/>
       </defs>
       <use xlink:href="#CMR17-38" transform="scale(0.996264)"/>
       <use xlink:href="#CMR17-30" transform="translate(45.690477 0) scale(0.996264)"/>
       <use xlink:href="#CMR17-30" transform="translate(91.380954 0) scale(0.996264)"/>
       <use xlink:href="#CMR17-30" transform="translate(137.071431 0) scale(0.996264)"/>
      </g>
     </g>
    </g>
    <g id="xtick_6">
     <g id="line2d_16">
      <defs>
       <path id="m7ae9d95e5f" d="M 0 0 
L 0 -1.5 
" style="stroke: #000000; stroke-width: 0.5"/>
      </defs>
      <g>
       <use xlink:href="#m7ae9d95e5f" x="56.218975" y="152.589249" style="stroke: #000000; stroke-width: 0.5"/>
      </g>
     </g>
     <g id="line2d_17">
      <defs>
       <path id="me55d4c2e4b" d="M 0 0 
L 0 1.5 
" style="stroke: #000000; stroke-width: 0.5"/>
      </defs>
      <g>
       <use xlink:href="#me55d4c2e4b" x="56.218975" y="7.059249" style="stroke: #000000; stroke-width: 0.5"/>
      </g>
     </g>
    </g>
    <g id="xtick_7">
     <g id="line2d_18">
      <g>
       <use xlink:href="#m7ae9d95e5f" x="68.425225" y="152.589249" style="stroke: #000000; stroke-width: 0.5"/>
      </g>
     </g>
     <g id="line2d_19">
      <g>
       <use xlink:href="#me55d4c2e4b" x="68.425225" y="7.059249" style="stroke: #000000; stroke-width: 0.5"/>
      </g>
     </g>
    </g>
    <g id="xtick_8">
     <g id="line2d_20">
      <g>
       <use xlink:href="#m7ae9d95e5f" x="80.631475" y="152.589249" style="stroke: #000000; stroke-width: 0.5"/>
      </g>
     </g>
     <g id="line2d_21">
      <g>
       <use xlink:href="#me55d4c2e4b" x="80.631475" y="7.059249" style="stroke: #000000; stroke-width: 0.5"/>
      </g>
     </g>
    </g>
    <g id="xtick_9">
     <g id="line2d_22">
      <g>
       <use xlink:href="#m7ae9d95e5f" x="105.043975" y="152.589249" style="stroke: #000000; stroke-width: 0.5"/>
      </g>
     </g>
     <g id="line2d_23">
      <g>
       <use xlink:href="#me55d4c2e4b" x="105.043975" y="7.059249" style="stroke: #000000; stroke-width: 0.5"/>
      </g>
     </g>
    </g>
    <g id="xtick_10">
     <g id="line2d_24">
      <g>
       <use xlink:href="#m7ae9d95e5f" x="117.250225" y="152.589249" style="stroke: #000000; stroke-width: 0.5"/>
      </g>
     </g>
     <g id="line2d_25">
      <g>
       <use xlink:href="#me55d4c2e4b" x="117.250225" y="7.059249" style="stroke: #000000; stroke-width: 0.5"/>
      </g>
     </g>
    </g>
    <g id="xtick_11">
     <g id="line2d_26">
      <g>
       <use xlink:href="#m7ae9d95e5f" x="129.456475" y="152.589249" style="stroke: #000000; stroke-width: 0.5"/>
      </g>
     </g>
     <g id="line2d_27">
      <g>
       <use xlink:href="#me55d4c2e4b" x="129.456475" y="7.059249" style="stroke: #000000; stroke-width: 0.5"/>
      </g>
     </g>
    </g>
    <g id="xtick_12">
     <g id="line2d_28">
      <g>
       <use xlink:href="#m7ae9d95e5f" x="153.868975" y="152.589249" style="stroke: #000000; stroke-width: 0.5"/>
      </g>
     </g>
     <g id="line2d_29">
      <g>
       <use xlink:href="#me55d4c2e4b" x="153.868975" y="7.059249" style="stroke: #000000; stroke-width: 0.5"/>
      </g>
     </g>
    </g>
    <g id="xtick_13">
     <g id="line2d_30">
      <g>
       <use xlink:href="#m7ae9d95e5f" x="166.075225" y="152.589249" style="stroke: #000000; stroke-width: 0.5"/>
      </g>
     </g>
     <g id="line2d_31">
      <g>
       <use xlink:href="#me55d4c2e4b" x="166.075225" y="7.059249" style="stroke: #000000; stroke-width: 0.5"/>
      </g>
     </g>
    </g>
    <g id="xtick_14">
     <g id="line2d_32">
      <g>
       <use xlink:href="#m7ae9d95e5f" x="178.281475" y="152.589249" style="stroke: #000000; stroke-width: 0.5"/>
      </g>
     </g>
     <g id="line2d_33">
      <g>
       <use xlink:href="#me55d4c2e4b" x="178.281475" y="7.059249" style="stroke: #000000; stroke-width: 0.5"/>
      </g>
     </g>
    </g>
    <g id="xtick_15">
     <g id="line2d_34">
      <g>
       <use xlink:href="#m7ae9d95e5f" x="202.693975" y="152.589249" style="stroke: #000000; stroke-width: 0.5"/>
      </g>
     </g>
     <g id="line2d_35">
      <g>
       <use xlink:href="#me55d4c2e4b" x="202.693975" y="7.059249" style="stroke: #000000; stroke-width: 0.5"/>
      </g>
     </g>
    </g>
    <g id="xtick_16">
     <g id="line2d_36">
      <g>
       <use xlink:href="#m7ae9d95e5f" x="214.900225" y="152.589249" style="stroke: #000000; stroke-width: 0.5"/>
      </g>
     </g>
     <g id="line2d_37">
      <g>
       <use xlink:href="#me55d4c2e4b" x="214.900225" y="7.059249" style="stroke: #000000; stroke-width: 0.5"/>
      </g>
     </g>
    </g>
    <g id="xtick_17">
     <g id="line2d_38">
      <g>
       <use xlink:href="#m7ae9d95e5f" x="227.106475" y="152.589249" style="stroke: #000000; stroke-width: 0.5"/>
      </g>
     </g>
     <g id="line2d_39">
      <g>
       <use xlink:href="#me55d4c2e4b" x="227.106475" y="7.059249" style="stroke: #000000; stroke-width: 0.5"/>
      </g>
     </g>
    </g>
    <g id="text_6">
     <!-- $f$ [MHz] -->
     <g transform="translate(116.369118 179.704565) scale(0.144 -0.144)">
      <defs>
       <path id="CMMI12-66" d="M 2854 2566 
C 2982 2566 3034 2566 3034 2688 
C 3034 2752 2982 2752 2867 2752 
L 2349 2752 
C 2470 3429 2560 3897 2611 4107 
C 2650 4265 2784 4416 2950 4416 
C 3085 4416 3219 4358 3283 4298 
C 3034 4272 2957 4082 2957 3969 
C 2957 3837 3053 3759 3174 3759 
C 3302 3759 3494 3870 3494 4119 
C 3494 4393 3226 4544 2944 4544 
C 2669 4544 2400 4334 2272 4078 
C 2157 3848 2093 3611 1946 2752 
L 1517 2752 
C 1395 2752 1331 2752 1331 2637 
C 1331 2566 1370 2566 1498 2566 
L 1907 2566 
C 1792 1976 1530 542 1382 -137 
C 1274 -689 1178 -1152 858 -1152 
C 838 -1152 653 -1152 538 -1031 
C 864 -1005 864 -726 864 -720 
C 864 -593 768 -517 646 -517 
C 518 -517 326 -625 326 -867 
C 326 -1140 608 -1280 858 -1280 
C 1510 -1280 1779 -118 1850 199 
C 1965 688 2278 2376 2310 2566 
L 2854 2566 
z
" transform="scale(0.015625)"/>
       <path id="CMR17-5b" d="M 1504 -1600 
L 1504 -1377 
L 902 -1377 
L 902 4544 
L 1504 4544 
L 1504 4767 
L 678 4767 
L 678 -1600 
L 1504 -1600 
z
" transform="scale(0.015625)"/>
       <path id="CMR17-4d" d="M 1338 4224 
C 1299 4320 1293 4320 1158 4320 
L 339 4320 
L 339 4160 
C 781 4160 851 4160 851 3875 
L 851 610 
C 851 451 851 153 339 153 
L 339 -13 
C 486 0 755 0 915 0 
C 1075 0 1344 0 1491 -13 
L 1491 153 
C 979 153 979 451 979 610 
L 979 4135 
L 986 4135 
L 2490 89 
C 2515 25 2528 -13 2579 -13 
C 2630 -13 2643 25 2669 89 
L 4186 4166 
L 4192 4166 
L 4192 438 
C 4192 153 4122 153 3680 153 
L 3680 -13 
C 3853 0 4198 0 4384 0 
C 4570 0 4922 0 5094 -13 
L 5094 153 
C 4653 153 4582 153 4582 438 
L 4582 3875 
C 4582 4160 4653 4160 5094 4160 
L 5094 4320 
L 4282 4320 
C 4147 4320 4141 4314 4102 4218 
L 2720 502 
L 1338 4224 
z
" transform="scale(0.015625)"/>
       <path id="CMR17-48" d="M 3590 3905 
C 3590 4192 3661 4192 4102 4192 
L 4102 4352 
C 3917 4352 3578 4352 3379 4352 
C 3181 4352 2842 4352 2656 4352 
L 2656 4192 
C 3098 4192 3168 4192 3168 3904 
L 3168 2341 
L 1261 2341 
L 1261 3904 
C 1261 4192 1331 4192 1773 4192 
L 1773 4352 
C 1587 4352 1248 4352 1050 4352 
C 851 4352 512 4352 326 4352 
L 326 4192 
C 768 4192 838 4192 838 3905 
L 838 447 
C 838 160 768 160 326 160 
L 326 0 
C 512 0 851 0 1050 0 
C 1248 0 1587 0 1773 0 
L 1773 160 
C 1331 160 1261 160 1261 446 
L 1261 2176 
L 3168 2176 
L 3168 446 
C 3168 160 3098 160 2656 160 
L 2656 0 
C 2842 0 3181 0 3379 0 
C 3578 0 3917 0 4102 0 
L 4102 160 
C 3661 160 3590 160 3590 447 
L 3590 3905 
z
" transform="scale(0.015625)"/>
       <path id="CMR17-7a" d="M 2310 2605 
C 2362 2670 2362 2682 2362 2695 
C 2362 2752 2336 2752 2221 2752 
L 275 2752 
L 211 1760 
L 326 1760 
C 371 2381 442 2650 1178 2650 
L 1958 2650 
L 128 96 
C 128 0 134 0 269 0 
L 2291 0 
L 2381 1152 
L 2266 1152 
C 2214 442 2131 115 1350 115 
L 531 115 
L 2310 2605 
z
" transform="scale(0.015625)"/>
       <path id="CMR17-5d" d="M 915 4767 
L 90 4767 
L 90 4544 
L 691 4544 
L 691 -1377 
L 90 -1377 
L 90 -1600 
L 915 -1600 
L 915 4767 
z
" transform="scale(0.015625)"/>
      </defs>
      <use xlink:href="#CMMI12-66" transform="scale(0.996264)"/>
      <use xlink:href="#CMR17-5b" transform="translate(88.796271 0) scale(0.996264)"/>
      <use xlink:href="#CMR17-4d" transform="translate(113.66733 0) scale(0.996264)"/>
      <use xlink:href="#CMR17-48" transform="translate(198.35427 0) scale(0.996264)"/>
      <use xlink:href="#CMR17-7a" transform="translate(267.4267 0) scale(0.996264)"/>
      <use xlink:href="#CMR17-5d" transform="translate(307.912361 0) scale(0.996264)"/>
     </g>
    </g>
   </g>
   <g id="matplotlib.axis_2">
    <g id="ytick_1">
     <g id="line2d_40">
      <path d="M 44.012725 152.589249 
L 239.312725 152.589249 
" clip-path="url(#pe717837bb9)" style="fill: none; stroke-dasharray: 1.85,0.8; stroke-dashoffset: 0; stroke: #000000; stroke-opacity: 0.5; stroke-width: 0.5"/>
     </g>
     <g id="line2d_41">
      <defs>
       <path id="mfaa6f4fe99" d="M 0 0 
L 3 0 
" style="stroke: #000000; stroke-width: 0.5"/>
      </defs>
      <g>
       <use xlink:href="#mfaa6f4fe99" x="44.012725" y="152.589249" style="stroke: #000000; stroke-width: 0.5"/>
      </g>
     </g>
     <g id="line2d_42">
      <defs>
       <path id="m8283c95ed1" d="M 0 0 
L -3 0 
" style="stroke: #000000; stroke-width: 0.5"/>
      </defs>
      <g>
       <use xlink:href="#m8283c95ed1" x="239.312725" y="152.589249" style="stroke: #000000; stroke-width: 0.5"/>
      </g>
     </g>
     <g id="text_7">
      <!-- $\mathdefault{10^{-3}}$ -->
      <g transform="translate(20.352152 156.048498) scale(0.1 -0.1)">
       <defs>
        <path id="CMR17-31" d="M 1702 4058 
C 1702 4192 1696 4192 1606 4192 
C 1357 3916 979 3827 621 3827 
C 602 3827 570 3827 563 3808 
C 557 3795 557 3782 557 3648 
C 755 3648 1088 3686 1344 3839 
L 1344 461 
C 1344 236 1331 160 781 160 
L 589 160 
L 589 0 
C 896 0 1216 0 1523 0 
C 1830 0 2150 0 2458 0 
L 2458 160 
L 2266 160 
C 1715 160 1702 230 1702 458 
L 1702 4058 
z
" transform="scale(0.015625)"/>
        <path id="CMSY10-0" d="M 4218 1472 
C 4326 1472 4442 1472 4442 1600 
C 4442 1728 4326 1728 4218 1728 
L 755 1728 
C 646 1728 531 1728 531 1600 
C 531 1472 646 1472 755 1472 
L 4218 1472 
z
" transform="scale(0.015625)"/>
        <path id="CMR17-33" d="M 1414 2157 
C 1984 2157 2234 1662 2234 1090 
C 2234 320 1824 25 1453 25 
C 1114 25 563 194 390 693 
C 422 680 454 680 486 680 
C 640 680 755 782 755 948 
C 755 1133 614 1216 486 1216 
C 378 1216 211 1165 211 926 
C 211 335 787 -128 1466 -128 
C 2176 -128 2720 430 2720 1085 
C 2720 1707 2208 2157 1600 2227 
C 2086 2328 2554 2756 2554 3329 
C 2554 3820 2048 4179 1472 4179 
C 890 4179 378 3829 378 3329 
C 378 3110 544 3072 627 3072 
C 762 3072 877 3155 877 3321 
C 877 3486 762 3569 627 3569 
C 602 3569 570 3569 544 3557 
C 730 3959 1235 4032 1459 4032 
C 1683 4032 2106 3925 2106 3320 
C 2106 3143 2080 2828 1862 2550 
C 1670 2304 1453 2304 1242 2284 
C 1210 2284 1062 2269 1037 2269 
C 992 2263 966 2257 966 2208 
C 966 2163 973 2157 1101 2157 
L 1414 2157 
z
" transform="scale(0.015625)"/>
       </defs>
       <use xlink:href="#CMR17-31" transform="scale(0.996264)"/>
       <use xlink:href="#CMR17-30" transform="translate(45.690477 0) scale(0.996264)"/>
       <use xlink:href="#CMSY10-0" transform="translate(91.380954 36.153639) scale(0.697382)"/>
       <use xlink:href="#CMR17-33" transform="translate(145.621947 36.153639) scale(0.697382)"/>
      </g>
     </g>
    </g>
    <g id="ytick_2">
     <g id="line2d_43">
      <path d="M 44.012725 131.799249 
L 239.312725 131.799249 
" clip-path="url(#pe717837bb9)" style="fill: none; stroke-dasharray: 1.85,0.8; stroke-dashoffset: 0; stroke: #000000; stroke-opacity: 0.5; stroke-width: 0.5"/>
     </g>
     <g id="line2d_44">
      <g>
       <use xlink:href="#mfaa6f4fe99" x="44.012725" y="131.799249" style="stroke: #000000; stroke-width: 0.5"/>
      </g>
     </g>
     <g id="line2d_45">
      <g>
       <use xlink:href="#m8283c95ed1" x="239.312725" y="131.799249" style="stroke: #000000; stroke-width: 0.5"/>
      </g>
     </g>
     <g id="text_8">
      <!-- $\mathdefault{10^{-2}}$ -->
      <g transform="translate(20.352152 135.258498) scale(0.1 -0.1)">
       <use xlink:href="#CMR17-31" transform="scale(0.996264)"/>
       <use xlink:href="#CMR17-30" transform="translate(45.690477 0) scale(0.996264)"/>
       <use xlink:href="#CMSY10-0" transform="translate(91.380954 36.153639) scale(0.697382)"/>
       <use xlink:href="#CMR17-32" transform="translate(145.621947 36.153639) scale(0.697382)"/>
      </g>
     </g>
    </g>
    <g id="ytick_3">
     <g id="line2d_46">
      <path d="M 44.012725 111.009249 
L 239.312725 111.009249 
" clip-path="url(#pe717837bb9)" style="fill: none; stroke-dasharray: 1.85,0.8; stroke-dashoffset: 0; stroke: #000000; stroke-opacity: 0.5; stroke-width: 0.5"/>
     </g>
     <g id="line2d_47">
      <g>
       <use xlink:href="#mfaa6f4fe99" x="44.012725" y="111.009249" style="stroke: #000000; stroke-width: 0.5"/>
      </g>
     </g>
     <g id="line2d_48">
      <g>
       <use xlink:href="#m8283c95ed1" x="239.312725" y="111.009249" style="stroke: #000000; stroke-width: 0.5"/>
      </g>
     </g>
     <g id="text_9">
      <!-- $\mathdefault{10^{-1}}$ -->
      <g transform="translate(20.352152 114.468498) scale(0.1 -0.1)">
       <use xlink:href="#CMR17-31" transform="scale(0.996264)"/>
       <use xlink:href="#CMR17-30" transform="translate(45.690477 0) scale(0.996264)"/>
       <use xlink:href="#CMSY10-0" transform="translate(91.380954 36.153639) scale(0.697382)"/>
       <use xlink:href="#CMR17-31" transform="translate(145.621947 36.153639) scale(0.697382)"/>
      </g>
     </g>
    </g>
    <g id="ytick_4">
     <g id="line2d_49">
      <path d="M 44.012725 90.219249 
L 239.312725 90.219249 
" clip-path="url(#pe717837bb9)" style="fill: none; stroke-dasharray: 1.85,0.8; stroke-dashoffset: 0; stroke: #000000; stroke-opacity: 0.5; stroke-width: 0.5"/>
     </g>
     <g id="line2d_50">
      <g>
       <use xlink:href="#mfaa6f4fe99" x="44.012725" y="90.219249" style="stroke: #000000; stroke-width: 0.5"/>
      </g>
     </g>
     <g id="line2d_51">
      <g>
       <use xlink:href="#m8283c95ed1" x="239.312725" y="90.219249" style="stroke: #000000; stroke-width: 0.5"/>
      </g>
     </g>
     <g id="text_10">
      <!-- $\mathdefault{10^{0}}$ -->
      <g transform="translate(26.578817 93.678498) scale(0.1 -0.1)">
       <use xlink:href="#CMR17-31" transform="scale(0.996264)"/>
       <use xlink:href="#CMR17-30" transform="translate(45.690477 0) scale(0.996264)"/>
       <use xlink:href="#CMR17-30" transform="translate(91.380954 36.153639) scale(0.697382)"/>
      </g>
     </g>
    </g>
    <g id="ytick_5">
     <g id="line2d_52">
      <path d="M 44.012725 69.429249 
L 239.312725 69.429249 
" clip-path="url(#pe717837bb9)" style="fill: none; stroke-dasharray: 1.85,0.8; stroke-dashoffset: 0; stroke: #000000; stroke-opacity: 0.5; stroke-width: 0.5"/>
     </g>
     <g id="line2d_53">
      <g>
       <use xlink:href="#mfaa6f4fe99" x="44.012725" y="69.429249" style="stroke: #000000; stroke-width: 0.5"/>
      </g>
     </g>
     <g id="line2d_54">
      <g>
       <use xlink:href="#m8283c95ed1" x="239.312725" y="69.429249" style="stroke: #000000; stroke-width: 0.5"/>
      </g>
     </g>
     <g id="text_11">
      <!-- $\mathdefault{10^{1}}$ -->
      <g transform="translate(26.578817 72.888498) scale(0.1 -0.1)">
       <use xlink:href="#CMR17-31" transform="scale(0.996264)"/>
       <use xlink:href="#CMR17-30" transform="translate(45.690477 0) scale(0.996264)"/>
       <use xlink:href="#CMR17-31" transform="translate(91.380954 36.153639) scale(0.697382)"/>
      </g>
     </g>
    </g>
    <g id="ytick_6">
     <g id="line2d_55">
      <path d="M 44.012725 48.639249 
L 239.312725 48.639249 
" clip-path="url(#pe717837bb9)" style="fill: none; stroke-dasharray: 1.85,0.8; stroke-dashoffset: 0; stroke: #000000; stroke-opacity: 0.5; stroke-width: 0.5"/>
     </g>
     <g id="line2d_56">
      <g>
       <use xlink:href="#mfaa6f4fe99" x="44.012725" y="48.639249" style="stroke: #000000; stroke-width: 0.5"/>
      </g>
     </g>
     <g id="line2d_57">
      <g>
       <use xlink:href="#m8283c95ed1" x="239.312725" y="48.639249" style="stroke: #000000; stroke-width: 0.5"/>
      </g>
     </g>
     <g id="text_12">
      <!-- $\mathdefault{10^{2}}$ -->
      <g transform="translate(26.578817 52.098498) scale(0.1 -0.1)">
       <use xlink:href="#CMR17-31" transform="scale(0.996264)"/>
       <use xlink:href="#CMR17-30" transform="translate(45.690477 0) scale(0.996264)"/>
       <use xlink:href="#CMR17-32" transform="translate(91.380954 36.153639) scale(0.697382)"/>
      </g>
     </g>
    </g>
    <g id="ytick_7">
     <g id="line2d_58">
      <path d="M 44.012725 27.849249 
L 239.312725 27.849249 
" clip-path="url(#pe717837bb9)" style="fill: none; stroke-dasharray: 1.85,0.8; stroke-dashoffset: 0; stroke: #000000; stroke-opacity: 0.5; stroke-width: 0.5"/>
     </g>
     <g id="line2d_59">
      <g>
       <use xlink:href="#mfaa6f4fe99" x="44.012725" y="27.849249" style="stroke: #000000; stroke-width: 0.5"/>
      </g>
     </g>
     <g id="line2d_60">
      <g>
       <use xlink:href="#m8283c95ed1" x="239.312725" y="27.849249" style="stroke: #000000; stroke-width: 0.5"/>
      </g>
     </g>
     <g id="text_13">
      <!-- $\mathdefault{10^{3}}$ -->
      <g transform="translate(26.578817 31.308498) scale(0.1 -0.1)">
       <use xlink:href="#CMR17-31" transform="scale(0.996264)"/>
       <use xlink:href="#CMR17-30" transform="translate(45.690477 0) scale(0.996264)"/>
       <use xlink:href="#CMR17-33" transform="translate(91.380954 36.153639) scale(0.697382)"/>
      </g>
     </g>
    </g>
    <g id="ytick_8">
     <g id="line2d_61">
      <path d="M 44.012725 7.059249 
L 239.312725 7.059249 
" clip-path="url(#pe717837bb9)" style="fill: none; stroke-dasharray: 1.85,0.8; stroke-dashoffset: 0; stroke: #000000; stroke-opacity: 0.5; stroke-width: 0.5"/>
     </g>
     <g id="line2d_62">
      <g>
       <use xlink:href="#mfaa6f4fe99" x="44.012725" y="7.059249" style="stroke: #000000; stroke-width: 0.5"/>
      </g>
     </g>
     <g id="line2d_63">
      <g>
       <use xlink:href="#m8283c95ed1" x="239.312725" y="7.059249" style="stroke: #000000; stroke-width: 0.5"/>
      </g>
     </g>
     <g id="text_14">
      <!-- $\mathdefault{10^{4}}$ -->
      <g transform="translate(26.578817 10.518498) scale(0.1 -0.1)">
       <use xlink:href="#CMR17-31" transform="scale(0.996264)"/>
       <use xlink:href="#CMR17-30" transform="translate(45.690477 0) scale(0.996264)"/>
       <use xlink:href="#CMR17-34" transform="translate(91.380954 36.153639) scale(0.697382)"/>
      </g>
     </g>
    </g>
    <g id="ytick_9">
     <g id="line2d_64">
      <defs>
       <path id="mb679443e8b" d="M 0 0 
L 1.5 0 
" style="stroke: #000000; stroke-width: 0.5"/>
      </defs>
      <g>
       <use xlink:href="#mb679443e8b" x="44.012725" y="146.330836" style="stroke: #000000; stroke-width: 0.5"/>
      </g>
     </g>
     <g id="line2d_65">
      <defs>
       <path id="m36ca94fa65" d="M 0 0 
L -1.5 0 
" style="stroke: #000000; stroke-width: 0.5"/>
      </defs>
      <g>
       <use xlink:href="#m36ca94fa65" x="239.312725" y="146.330836" style="stroke: #000000; stroke-width: 0.5"/>
      </g>
     </g>
    </g>
    <g id="ytick_10">
     <g id="line2d_66">
      <g>
       <use xlink:href="#mb679443e8b" x="44.012725" y="142.669898" style="stroke: #000000; stroke-width: 0.5"/>
      </g>
     </g>
     <g id="line2d_67">
      <g>
       <use xlink:href="#m36ca94fa65" x="239.312725" y="142.669898" style="stroke: #000000; stroke-width: 0.5"/>
      </g>
     </g>
    </g>
    <g id="ytick_11">
     <g id="line2d_68">
      <g>
       <use xlink:href="#mb679443e8b" x="44.012725" y="140.072422" style="stroke: #000000; stroke-width: 0.5"/>
      </g>
     </g>
     <g id="line2d_69">
      <g>
       <use xlink:href="#m36ca94fa65" x="239.312725" y="140.072422" style="stroke: #000000; stroke-width: 0.5"/>
      </g>
     </g>
    </g>
    <g id="ytick_12">
     <g id="line2d_70">
      <g>
       <use xlink:href="#mb679443e8b" x="44.012725" y="138.057663" style="stroke: #000000; stroke-width: 0.5"/>
      </g>
     </g>
     <g id="line2d_71">
      <g>
       <use xlink:href="#m36ca94fa65" x="239.312725" y="138.057663" style="stroke: #000000; stroke-width: 0.5"/>
      </g>
     </g>
    </g>
    <g id="ytick_13">
     <g id="line2d_72">
      <g>
       <use xlink:href="#mb679443e8b" x="44.012725" y="136.411485" style="stroke: #000000; stroke-width: 0.5"/>
      </g>
     </g>
     <g id="line2d_73">
      <g>
       <use xlink:href="#m36ca94fa65" x="239.312725" y="136.411485" style="stroke: #000000; stroke-width: 0.5"/>
      </g>
     </g>
    </g>
    <g id="ytick_14">
     <g id="line2d_74">
      <g>
       <use xlink:href="#mb679443e8b" x="44.012725" y="135.019661" style="stroke: #000000; stroke-width: 0.5"/>
      </g>
     </g>
     <g id="line2d_75">
      <g>
       <use xlink:href="#m36ca94fa65" x="239.312725" y="135.019661" style="stroke: #000000; stroke-width: 0.5"/>
      </g>
     </g>
    </g>
    <g id="ytick_15">
     <g id="line2d_76">
      <g>
       <use xlink:href="#mb679443e8b" x="44.012725" y="133.814008" style="stroke: #000000; stroke-width: 0.5"/>
      </g>
     </g>
     <g id="line2d_77">
      <g>
       <use xlink:href="#m36ca94fa65" x="239.312725" y="133.814008" style="stroke: #000000; stroke-width: 0.5"/>
      </g>
     </g>
    </g>
    <g id="ytick_16">
     <g id="line2d_78">
      <g>
       <use xlink:href="#mb679443e8b" x="44.012725" y="132.750547" style="stroke: #000000; stroke-width: 0.5"/>
      </g>
     </g>
     <g id="line2d_79">
      <g>
       <use xlink:href="#m36ca94fa65" x="239.312725" y="132.750547" style="stroke: #000000; stroke-width: 0.5"/>
      </g>
     </g>
    </g>
    <g id="ytick_17">
     <g id="line2d_80">
      <g>
       <use xlink:href="#mb679443e8b" x="44.012725" y="125.540836" style="stroke: #000000; stroke-width: 0.5"/>
      </g>
     </g>
     <g id="line2d_81">
      <g>
       <use xlink:href="#m36ca94fa65" x="239.312725" y="125.540836" style="stroke: #000000; stroke-width: 0.5"/>
      </g>
     </g>
    </g>
    <g id="ytick_18">
     <g id="line2d_82">
      <g>
       <use xlink:href="#mb679443e8b" x="44.012725" y="121.879898" style="stroke: #000000; stroke-width: 0.5"/>
      </g>
     </g>
     <g id="line2d_83">
      <g>
       <use xlink:href="#m36ca94fa65" x="239.312725" y="121.879898" style="stroke: #000000; stroke-width: 0.5"/>
      </g>
     </g>
    </g>
    <g id="ytick_19">
     <g id="line2d_84">
      <g>
       <use xlink:href="#mb679443e8b" x="44.012725" y="119.282422" style="stroke: #000000; stroke-width: 0.5"/>
      </g>
     </g>
     <g id="line2d_85">
      <g>
       <use xlink:href="#m36ca94fa65" x="239.312725" y="119.282422" style="stroke: #000000; stroke-width: 0.5"/>
      </g>
     </g>
    </g>
    <g id="ytick_20">
     <g id="line2d_86">
      <g>
       <use xlink:href="#mb679443e8b" x="44.012725" y="117.267663" style="stroke: #000000; stroke-width: 0.5"/>
      </g>
     </g>
     <g id="line2d_87">
      <g>
       <use xlink:href="#m36ca94fa65" x="239.312725" y="117.267663" style="stroke: #000000; stroke-width: 0.5"/>
      </g>
     </g>
    </g>
    <g id="ytick_21">
     <g id="line2d_88">
      <g>
       <use xlink:href="#mb679443e8b" x="44.012725" y="115.621485" style="stroke: #000000; stroke-width: 0.5"/>
      </g>
     </g>
     <g id="line2d_89">
      <g>
       <use xlink:href="#m36ca94fa65" x="239.312725" y="115.621485" style="stroke: #000000; stroke-width: 0.5"/>
      </g>
     </g>
    </g>
    <g id="ytick_22">
     <g id="line2d_90">
      <g>
       <use xlink:href="#mb679443e8b" x="44.012725" y="114.229661" style="stroke: #000000; stroke-width: 0.5"/>
      </g>
     </g>
     <g id="line2d_91">
      <g>
       <use xlink:href="#m36ca94fa65" x="239.312725" y="114.229661" style="stroke: #000000; stroke-width: 0.5"/>
      </g>
     </g>
    </g>
    <g id="ytick_23">
     <g id="line2d_92">
      <g>
       <use xlink:href="#mb679443e8b" x="44.012725" y="113.024008" style="stroke: #000000; stroke-width: 0.5"/>
      </g>
     </g>
     <g id="line2d_93">
      <g>
       <use xlink:href="#m36ca94fa65" x="239.312725" y="113.024008" style="stroke: #000000; stroke-width: 0.5"/>
      </g>
     </g>
    </g>
    <g id="ytick_24">
     <g id="line2d_94">
      <g>
       <use xlink:href="#mb679443e8b" x="44.012725" y="111.960547" style="stroke: #000000; stroke-width: 0.5"/>
      </g>
     </g>
     <g id="line2d_95">
      <g>
       <use xlink:href="#m36ca94fa65" x="239.312725" y="111.960547" style="stroke: #000000; stroke-width: 0.5"/>
      </g>
     </g>
    </g>
    <g id="ytick_25">
     <g id="line2d_96">
      <g>
       <use xlink:href="#mb679443e8b" x="44.012725" y="104.750836" style="stroke: #000000; stroke-width: 0.5"/>
      </g>
     </g>
     <g id="line2d_97">
      <g>
       <use xlink:href="#m36ca94fa65" x="239.312725" y="104.750836" style="stroke: #000000; stroke-width: 0.5"/>
      </g>
     </g>
    </g>
    <g id="ytick_26">
     <g id="line2d_98">
      <g>
       <use xlink:href="#mb679443e8b" x="44.012725" y="101.089898" style="stroke: #000000; stroke-width: 0.5"/>
      </g>
     </g>
     <g id="line2d_99">
      <g>
       <use xlink:href="#m36ca94fa65" x="239.312725" y="101.089898" style="stroke: #000000; stroke-width: 0.5"/>
      </g>
     </g>
    </g>
    <g id="ytick_27">
     <g id="line2d_100">
      <g>
       <use xlink:href="#mb679443e8b" x="44.012725" y="98.492422" style="stroke: #000000; stroke-width: 0.5"/>
      </g>
     </g>
     <g id="line2d_101">
      <g>
       <use xlink:href="#m36ca94fa65" x="239.312725" y="98.492422" style="stroke: #000000; stroke-width: 0.5"/>
      </g>
     </g>
    </g>
    <g id="ytick_28">
     <g id="line2d_102">
      <g>
       <use xlink:href="#mb679443e8b" x="44.012725" y="96.477663" style="stroke: #000000; stroke-width: 0.5"/>
      </g>
     </g>
     <g id="line2d_103">
      <g>
       <use xlink:href="#m36ca94fa65" x="239.312725" y="96.477663" style="stroke: #000000; stroke-width: 0.5"/>
      </g>
     </g>
    </g>
    <g id="ytick_29">
     <g id="line2d_104">
      <g>
       <use xlink:href="#mb679443e8b" x="44.012725" y="94.831485" style="stroke: #000000; stroke-width: 0.5"/>
      </g>
     </g>
     <g id="line2d_105">
      <g>
       <use xlink:href="#m36ca94fa65" x="239.312725" y="94.831485" style="stroke: #000000; stroke-width: 0.5"/>
      </g>
     </g>
    </g>
    <g id="ytick_30">
     <g id="line2d_106">
      <g>
       <use xlink:href="#mb679443e8b" x="44.012725" y="93.439661" style="stroke: #000000; stroke-width: 0.5"/>
      </g>
     </g>
     <g id="line2d_107">
      <g>
       <use xlink:href="#m36ca94fa65" x="239.312725" y="93.439661" style="stroke: #000000; stroke-width: 0.5"/>
      </g>
     </g>
    </g>
    <g id="ytick_31">
     <g id="line2d_108">
      <g>
       <use xlink:href="#mb679443e8b" x="44.012725" y="92.234008" style="stroke: #000000; stroke-width: 0.5"/>
      </g>
     </g>
     <g id="line2d_109">
      <g>
       <use xlink:href="#m36ca94fa65" x="239.312725" y="92.234008" style="stroke: #000000; stroke-width: 0.5"/>
      </g>
     </g>
    </g>
    <g id="ytick_32">
     <g id="line2d_110">
      <g>
       <use xlink:href="#mb679443e8b" x="44.012725" y="91.170547" style="stroke: #000000; stroke-width: 0.5"/>
      </g>
     </g>
     <g id="line2d_111">
      <g>
       <use xlink:href="#m36ca94fa65" x="239.312725" y="91.170547" style="stroke: #000000; stroke-width: 0.5"/>
      </g>
     </g>
    </g>
    <g id="ytick_33">
     <g id="line2d_112">
      <g>
       <use xlink:href="#mb679443e8b" x="44.012725" y="83.960836" style="stroke: #000000; stroke-width: 0.5"/>
      </g>
     </g>
     <g id="line2d_113">
      <g>
       <use xlink:href="#m36ca94fa65" x="239.312725" y="83.960836" style="stroke: #000000; stroke-width: 0.5"/>
      </g>
     </g>
    </g>
    <g id="ytick_34">
     <g id="line2d_114">
      <g>
       <use xlink:href="#mb679443e8b" x="44.012725" y="80.299898" style="stroke: #000000; stroke-width: 0.5"/>
      </g>
     </g>
     <g id="line2d_115">
      <g>
       <use xlink:href="#m36ca94fa65" x="239.312725" y="80.299898" style="stroke: #000000; stroke-width: 0.5"/>
      </g>
     </g>
    </g>
    <g id="ytick_35">
     <g id="line2d_116">
      <g>
       <use xlink:href="#mb679443e8b" x="44.012725" y="77.702422" style="stroke: #000000; stroke-width: 0.5"/>
      </g>
     </g>
     <g id="line2d_117">
      <g>
       <use xlink:href="#m36ca94fa65" x="239.312725" y="77.702422" style="stroke: #000000; stroke-width: 0.5"/>
      </g>
     </g>
    </g>
    <g id="ytick_36">
     <g id="line2d_118">
      <g>
       <use xlink:href="#mb679443e8b" x="44.012725" y="75.687663" style="stroke: #000000; stroke-width: 0.5"/>
      </g>
     </g>
     <g id="line2d_119">
      <g>
       <use xlink:href="#m36ca94fa65" x="239.312725" y="75.687663" style="stroke: #000000; stroke-width: 0.5"/>
      </g>
     </g>
    </g>
    <g id="ytick_37">
     <g id="line2d_120">
      <g>
       <use xlink:href="#mb679443e8b" x="44.012725" y="74.041485" style="stroke: #000000; stroke-width: 0.5"/>
      </g>
     </g>
     <g id="line2d_121">
      <g>
       <use xlink:href="#m36ca94fa65" x="239.312725" y="74.041485" style="stroke: #000000; stroke-width: 0.5"/>
      </g>
     </g>
    </g>
    <g id="ytick_38">
     <g id="line2d_122">
      <g>
       <use xlink:href="#mb679443e8b" x="44.012725" y="72.649661" style="stroke: #000000; stroke-width: 0.5"/>
      </g>
     </g>
     <g id="line2d_123">
      <g>
       <use xlink:href="#m36ca94fa65" x="239.312725" y="72.649661" style="stroke: #000000; stroke-width: 0.5"/>
      </g>
     </g>
    </g>
    <g id="ytick_39">
     <g id="line2d_124">
      <g>
       <use xlink:href="#mb679443e8b" x="44.012725" y="71.444008" style="stroke: #000000; stroke-width: 0.5"/>
      </g>
     </g>
     <g id="line2d_125">
      <g>
       <use xlink:href="#m36ca94fa65" x="239.312725" y="71.444008" style="stroke: #000000; stroke-width: 0.5"/>
      </g>
     </g>
    </g>
    <g id="ytick_40">
     <g id="line2d_126">
      <g>
       <use xlink:href="#mb679443e8b" x="44.012725" y="70.380547" style="stroke: #000000; stroke-width: 0.5"/>
      </g>
     </g>
     <g id="line2d_127">
      <g>
       <use xlink:href="#m36ca94fa65" x="239.312725" y="70.380547" style="stroke: #000000; stroke-width: 0.5"/>
      </g>
     </g>
    </g>
    <g id="ytick_41">
     <g id="line2d_128">
      <g>
       <use xlink:href="#mb679443e8b" x="44.012725" y="63.170836" style="stroke: #000000; stroke-width: 0.5"/>
      </g>
     </g>
     <g id="line2d_129">
      <g>
       <use xlink:href="#m36ca94fa65" x="239.312725" y="63.170836" style="stroke: #000000; stroke-width: 0.5"/>
      </g>
     </g>
    </g>
    <g id="ytick_42">
     <g id="line2d_130">
      <g>
       <use xlink:href="#mb679443e8b" x="44.012725" y="59.509898" style="stroke: #000000; stroke-width: 0.5"/>
      </g>
     </g>
     <g id="line2d_131">
      <g>
       <use xlink:href="#m36ca94fa65" x="239.312725" y="59.509898" style="stroke: #000000; stroke-width: 0.5"/>
      </g>
     </g>
    </g>
    <g id="ytick_43">
     <g id="line2d_132">
      <g>
       <use xlink:href="#mb679443e8b" x="44.012725" y="56.912422" style="stroke: #000000; stroke-width: 0.5"/>
      </g>
     </g>
     <g id="line2d_133">
      <g>
       <use xlink:href="#m36ca94fa65" x="239.312725" y="56.912422" style="stroke: #000000; stroke-width: 0.5"/>
      </g>
     </g>
    </g>
    <g id="ytick_44">
     <g id="line2d_134">
      <g>
       <use xlink:href="#mb679443e8b" x="44.012725" y="54.897663" style="stroke: #000000; stroke-width: 0.5"/>
      </g>
     </g>
     <g id="line2d_135">
      <g>
       <use xlink:href="#m36ca94fa65" x="239.312725" y="54.897663" style="stroke: #000000; stroke-width: 0.5"/>
      </g>
     </g>
    </g>
    <g id="ytick_45">
     <g id="line2d_136">
      <g>
       <use xlink:href="#mb679443e8b" x="44.012725" y="53.251485" style="stroke: #000000; stroke-width: 0.5"/>
      </g>
     </g>
     <g id="line2d_137">
      <g>
       <use xlink:href="#m36ca94fa65" x="239.312725" y="53.251485" style="stroke: #000000; stroke-width: 0.5"/>
      </g>
     </g>
    </g>
    <g id="ytick_46">
     <g id="line2d_138">
      <g>
       <use xlink:href="#mb679443e8b" x="44.012725" y="51.859661" style="stroke: #000000; stroke-width: 0.5"/>
      </g>
     </g>
     <g id="line2d_139">
      <g>
       <use xlink:href="#m36ca94fa65" x="239.312725" y="51.859661" style="stroke: #000000; stroke-width: 0.5"/>
      </g>
     </g>
    </g>
    <g id="ytick_47">
     <g id="line2d_140">
      <g>
       <use xlink:href="#mb679443e8b" x="44.012725" y="50.654008" style="stroke: #000000; stroke-width: 0.5"/>
      </g>
     </g>
     <g id="line2d_141">
      <g>
       <use xlink:href="#m36ca94fa65" x="239.312725" y="50.654008" style="stroke: #000000; stroke-width: 0.5"/>
      </g>
     </g>
    </g>
    <g id="ytick_48">
     <g id="line2d_142">
      <g>
       <use xlink:href="#mb679443e8b" x="44.012725" y="49.590547" style="stroke: #000000; stroke-width: 0.5"/>
      </g>
     </g>
     <g id="line2d_143">
      <g>
       <use xlink:href="#m36ca94fa65" x="239.312725" y="49.590547" style="stroke: #000000; stroke-width: 0.5"/>
      </g>
     </g>
    </g>
    <g id="ytick_49">
     <g id="line2d_144">
      <g>
       <use xlink:href="#mb679443e8b" x="44.012725" y="42.380836" style="stroke: #000000; stroke-width: 0.5"/>
      </g>
     </g>
     <g id="line2d_145">
      <g>
       <use xlink:href="#m36ca94fa65" x="239.312725" y="42.380836" style="stroke: #000000; stroke-width: 0.5"/>
      </g>
     </g>
    </g>
    <g id="ytick_50">
     <g id="line2d_146">
      <g>
       <use xlink:href="#mb679443e8b" x="44.012725" y="38.719898" style="stroke: #000000; stroke-width: 0.5"/>
      </g>
     </g>
     <g id="line2d_147">
      <g>
       <use xlink:href="#m36ca94fa65" x="239.312725" y="38.719898" style="stroke: #000000; stroke-width: 0.5"/>
      </g>
     </g>
    </g>
    <g id="ytick_51">
     <g id="line2d_148">
      <g>
       <use xlink:href="#mb679443e8b" x="44.012725" y="36.122422" style="stroke: #000000; stroke-width: 0.5"/>
      </g>
     </g>
     <g id="line2d_149">
      <g>
       <use xlink:href="#m36ca94fa65" x="239.312725" y="36.122422" style="stroke: #000000; stroke-width: 0.5"/>
      </g>
     </g>
    </g>
    <g id="ytick_52">
     <g id="line2d_150">
      <g>
       <use xlink:href="#mb679443e8b" x="44.012725" y="34.107663" style="stroke: #000000; stroke-width: 0.5"/>
      </g>
     </g>
     <g id="line2d_151">
      <g>
       <use xlink:href="#m36ca94fa65" x="239.312725" y="34.107663" style="stroke: #000000; stroke-width: 0.5"/>
      </g>
     </g>
    </g>
    <g id="ytick_53">
     <g id="line2d_152">
      <g>
       <use xlink:href="#mb679443e8b" x="44.012725" y="32.461485" style="stroke: #000000; stroke-width: 0.5"/>
      </g>
     </g>
     <g id="line2d_153">
      <g>
       <use xlink:href="#m36ca94fa65" x="239.312725" y="32.461485" style="stroke: #000000; stroke-width: 0.5"/>
      </g>
     </g>
    </g>
    <g id="ytick_54">
     <g id="line2d_154">
      <g>
       <use xlink:href="#mb679443e8b" x="44.012725" y="31.069661" style="stroke: #000000; stroke-width: 0.5"/>
      </g>
     </g>
     <g id="line2d_155">
      <g>
       <use xlink:href="#m36ca94fa65" x="239.312725" y="31.069661" style="stroke: #000000; stroke-width: 0.5"/>
      </g>
     </g>
    </g>
    <g id="ytick_55">
     <g id="line2d_156">
      <g>
       <use xlink:href="#mb679443e8b" x="44.012725" y="29.864008" style="stroke: #000000; stroke-width: 0.5"/>
      </g>
     </g>
     <g id="line2d_157">
      <g>
       <use xlink:href="#m36ca94fa65" x="239.312725" y="29.864008" style="stroke: #000000; stroke-width: 0.5"/>
      </g>
     </g>
    </g>
    <g id="ytick_56">
     <g id="line2d_158">
      <g>
       <use xlink:href="#mb679443e8b" x="44.012725" y="28.800547" style="stroke: #000000; stroke-width: 0.5"/>
      </g>
     </g>
     <g id="line2d_159">
      <g>
       <use xlink:href="#m36ca94fa65" x="239.312725" y="28.800547" style="stroke: #000000; stroke-width: 0.5"/>
      </g>
     </g>
    </g>
    <g id="ytick_57">
     <g id="line2d_160">
      <g>
       <use xlink:href="#mb679443e8b" x="44.012725" y="21.590836" style="stroke: #000000; stroke-width: 0.5"/>
      </g>
     </g>
     <g id="line2d_161">
      <g>
       <use xlink:href="#m36ca94fa65" x="239.312725" y="21.590836" style="stroke: #000000; stroke-width: 0.5"/>
      </g>
     </g>
    </g>
    <g id="ytick_58">
     <g id="line2d_162">
      <g>
       <use xlink:href="#mb679443e8b" x="44.012725" y="17.929898" style="stroke: #000000; stroke-width: 0.5"/>
      </g>
     </g>
     <g id="line2d_163">
      <g>
       <use xlink:href="#m36ca94fa65" x="239.312725" y="17.929898" style="stroke: #000000; stroke-width: 0.5"/>
      </g>
     </g>
    </g>
    <g id="ytick_59">
     <g id="line2d_164">
      <g>
       <use xlink:href="#mb679443e8b" x="44.012725" y="15.332422" style="stroke: #000000; stroke-width: 0.5"/>
      </g>
     </g>
     <g id="line2d_165">
      <g>
       <use xlink:href="#m36ca94fa65" x="239.312725" y="15.332422" style="stroke: #000000; stroke-width: 0.5"/>
      </g>
     </g>
    </g>
    <g id="ytick_60">
     <g id="line2d_166">
      <g>
       <use xlink:href="#mb679443e8b" x="44.012725" y="13.317663" style="stroke: #000000; stroke-width: 0.5"/>
      </g>
     </g>
     <g id="line2d_167">
      <g>
       <use xlink:href="#m36ca94fa65" x="239.312725" y="13.317663" style="stroke: #000000; stroke-width: 0.5"/>
      </g>
     </g>
    </g>
    <g id="ytick_61">
     <g id="line2d_168">
      <g>
       <use xlink:href="#mb679443e8b" x="44.012725" y="11.671485" style="stroke: #000000; stroke-width: 0.5"/>
      </g>
     </g>
     <g id="line2d_169">
      <g>
       <use xlink:href="#m36ca94fa65" x="239.312725" y="11.671485" style="stroke: #000000; stroke-width: 0.5"/>
      </g>
     </g>
    </g>
    <g id="ytick_62">
     <g id="line2d_170">
      <g>
       <use xlink:href="#mb679443e8b" x="44.012725" y="10.279661" style="stroke: #000000; stroke-width: 0.5"/>
      </g>
     </g>
     <g id="line2d_171">
      <g>
       <use xlink:href="#m36ca94fa65" x="239.312725" y="10.279661" style="stroke: #000000; stroke-width: 0.5"/>
      </g>
     </g>
    </g>
    <g id="ytick_63">
     <g id="line2d_172">
      <g>
       <use xlink:href="#mb679443e8b" x="44.012725" y="9.074008" style="stroke: #000000; stroke-width: 0.5"/>
      </g>
     </g>
     <g id="line2d_173">
      <g>
       <use xlink:href="#m36ca94fa65" x="239.312725" y="9.074008" style="stroke: #000000; stroke-width: 0.5"/>
      </g>
     </g>
    </g>
    <g id="ytick_64">
     <g id="line2d_174">
      <g>
       <use xlink:href="#mb679443e8b" x="44.012725" y="8.010547" style="stroke: #000000; stroke-width: 0.5"/>
      </g>
     </g>
     <g id="line2d_175">
      <g>
       <use xlink:href="#m36ca94fa65" x="239.312725" y="8.010547" style="stroke: #000000; stroke-width: 0.5"/>
      </g>
     </g>
    </g>
    <g id="text_15">
     <!-- $FFT$ -->
     <g transform="translate(13.562625 94.985154) rotate(-90) scale(0.144 -0.144)">
      <defs>
       <path id="CMMI12-46" d="M 1901 2055 
L 2515 2055 
C 3002 2055 3040 1946 3040 1761 
C 3040 1678 3027 1589 2995 1448 
C 2982 1423 2976 1391 2976 1378 
C 2976 1333 3002 1308 3046 1308 
C 3098 1308 3104 1333 3130 1435 
L 3501 2935 
C 3501 2961 3482 2999 3437 2999 
C 3379 2999 3373 2974 3347 2863 
C 3213 2376 3085 2240 2528 2240 
L 1946 2240 
L 2362 3926 
C 2419 4154 2432 4154 2694 4154 
L 3552 4154 
C 4352 4154 4467 3918 4467 3464 
C 4467 3426 4467 3285 4448 3119 
C 4442 3094 4429 3011 4429 2985 
C 4429 2934 4461 2915 4499 2915 
C 4544 2915 4570 2941 4582 3055 
L 4717 4174 
C 4717 4195 4730 4263 4730 4277 
C 4730 4352 4672 4352 4557 4352 
L 1523 4352 
C 1402 4352 1338 4352 1338 4229 
C 1338 4154 1382 4154 1491 4154 
C 1888 4154 1888 4113 1888 4050 
C 1888 4018 1882 3992 1862 3922 
L 998 473 
C 941 249 928 185 480 185 
C 358 185 294 185 294 70 
C 294 0 352 0 390 0 
C 512 0 640 0 762 0 
L 1594 0 
C 1734 0 1888 0 2029 0 
C 2086 0 2163 0 2163 115 
C 2163 185 2125 185 1984 185 
C 1478 185 1466 229 1466 324 
C 1466 356 1478 406 1491 449 
L 1901 2055 
z
" transform="scale(0.015625)"/>
       <path id="CMMI12-54" d="M 2669 3910 
C 2707 4064 2720 4121 2816 4147 
C 2867 4160 3078 4160 3213 4160 
C 3853 4160 4154 4134 4154 3634 
C 4154 3537 4128 3295 4090 3057 
L 4083 2980 
C 4083 2954 4109 2916 4147 2916 
C 4211 2916 4211 2948 4230 3050 
L 4416 4184 
C 4429 4243 4429 4256 4429 4275 
C 4429 4345 4390 4345 4262 4345 
L 762 4345 
C 614 4345 608 4339 570 4224 
L 179 3070 
C 173 3056 154 2986 154 2980 
C 154 2948 179 2916 218 2916 
C 269 2916 282 2941 307 3024 
C 576 3801 710 4160 1562 4160 
L 1990 4160 
C 2144 4160 2208 4160 2208 4089 
C 2208 4069 2208 4057 2176 3941 
L 1318 499 
C 1254 249 1242 185 563 185 
C 403 185 358 185 358 64 
C 358 0 429 0 461 0 
C 621 0 787 0 947 0 
L 1946 0 
C 2106 0 2278 0 2438 0 
C 2509 0 2573 0 2573 121 
C 2573 185 2528 185 2362 185 
C 1786 185 1786 243 1786 339 
C 1786 346 1786 391 1811 494 
L 2669 3910 
z
" transform="scale(0.015625)"/>
      </defs>
      <use xlink:href="#CMMI12-46" transform="scale(0.996264)"/>
      <use xlink:href="#CMMI12-46" transform="translate(76.696793 0) scale(0.996264)"/>
      <use xlink:href="#CMMI12-54" transform="translate(153.393585 0) scale(0.996264)"/>
     </g>
    </g>
   </g>
   <g id="line2d_176">
    <path d="M 44.012725 104.795976 
L 44.37033 100.838736 
L 44.727935 99.075587 
L 44.847137 100.226142 
L 45.323944 109.415736 
L 45.443145 109.913262 
L 45.80075 114.40883 
L 45.919952 114.345505 
L 46.158355 115.87339 
L 46.277557 115.41989 
L 46.635162 110.268406 
L 46.754364 111.291508 
L 46.873565 114.853608 
L 46.992767 123.623184 
L 47.111969 122.867363 
L 47.350372 114.51895 
L 47.469573 115.705682 
L 47.707977 120.466863 
L 47.94638 117.444589 
L 48.184783 122.794977 
L 48.423187 113.303414 
L 48.66159 110.892527 
L 48.899993 111.125256 
L 49.257598 109.9684 
L 49.3768 110.955705 
L 49.615203 117.473367 
L 49.853607 132.031657 
L 50.211212 122.043624 
L 50.568817 118.70904 
L 50.80722 117.771863 
L 51.045623 116.783761 
L 51.164825 117.344188 
L 51.403228 121.92306 
L 51.641632 129.094866 
L 51.760833 129.871154 
L 51.999237 128.617114 
L 52.118438 128.635536 
L 52.23764 129.168441 
L 52.356842 127.958763 
L 52.714447 120.080406 
L 52.95285 118.578279 
L 53.072052 118.723565 
L 53.191253 121.693663 
L 53.310455 130.59554 
L 53.548858 109.821964 
L 53.787261 105.145658 
L 53.906463 105.455623 
L 54.144866 110.829744 
L 54.621673 129.91456 
L 54.860076 125.766598 
L 55.09848 127.021487 
L 55.456085 120.884291 
L 55.575286 120.694881 
L 55.694488 121.8732 
L 55.932891 127.586874 
L 56.052093 126.188649 
L 56.290496 120.643757 
L 56.5289 119.0192 
L 56.648101 119.191498 
L 56.886505 120.728937 
L 57.363311 125.238141 
L 57.720916 125.490707 
L 57.840118 126.041368 
L 58.078521 130.294447 
L 58.436126 142.784828 
L 58.67453 130.172551 
L 58.793731 129.07965 
L 58.912933 130.355622 
L 59.151336 137.908908 
L 59.508941 126.731583 
L 59.747344 125.082112 
L 59.866546 125.004071 
L 60.462554 125.589941 
L 60.820159 125.152686 
L 60.939361 125.294532 
L 61.177764 126.649902 
L 61.416168 129.091699 
L 61.654571 134.312294 
L 62.012176 145.448532 
L 62.369781 131.122456 
L 62.608184 128.198355 
L 62.727386 128.331749 
L 62.846588 129.807282 
L 62.965789 133.430026 
L 63.084991 142.298457 
L 63.204193 141.15977 
L 63.442596 131.436088 
L 63.561798 131.614046 
L 63.919403 138.005577 
L 64.277008 133.91725 
L 64.753814 124.429611 
L 64.873016 123.980367 
L 64.992218 124.361293 
L 65.349823 127.440733 
L 65.707427 131.972655 
L 65.826629 131.517616 
L 66.065032 130.440293 
L 66.184234 130.56041 
L 66.422637 128.706496 
L 66.541839 127.93201 
L 66.661041 127.896303 
L 67.018646 128.889749 
L 67.137847 129.046637 
L 67.257049 129.676509 
L 67.495452 133.530963 
L 67.614654 138.06108 
L 67.733856 148.909337 
L 67.972259 135.20469 
L 68.091461 133.402996 
L 68.210662 134.386867 
L 68.329864 136.445231 
L 68.687469 129.172655 
L 68.806671 130.183006 
L 69.164276 136.164049 
L 69.283477 138.120085 
L 69.402679 141.999088 
L 69.760284 131.157181 
L 69.879486 131.296628 
L 70.356292 135.730608 
L 70.594696 140.615097 
L 70.713897 144.661745 
L 70.833099 154.161012 
L 71.071502 137.138688 
L 71.309906 134.239588 
L 71.429107 135.844489 
L 71.786712 144.259616 
L 71.905914 143.06608 
L 72.263519 130.708179 
L 72.740325 127.101667 
L 72.859527 126.156352 
L 72.978729 126.3152 
L 73.217132 129.502341 
L 73.455535 132.840838 
L 73.932342 135.829894 
L 74.289947 140.875286 
L 74.766754 136.190029 
L 74.885955 137.053439 
L 75.124359 142.929593 
L 75.362762 149.86015 
L 75.601165 140.481035 
L 75.95877 135.760926 
L 76.197174 133.698562 
L 76.316375 133.340292 
L 76.435577 133.354201 
L 76.554779 133.75034 
L 76.67398 134.757778 
L 76.912384 140.492497 
L 77.031585 139.50867 
L 77.269989 129.641535 
L 77.508392 127.456396 
L 77.627594 128.818948 
L 77.985198 137.523207 
L 78.223602 133.873867 
L 78.342803 135.649101 
L 78.581207 141.279184 
L 78.81961 132.081776 
L 78.938812 131.748416 
L 79.058013 133.658228 
L 79.296417 141.926509 
L 79.654022 133.504123 
L 79.892425 132.228893 
L 80.011627 132.572012 
L 80.369232 134.296882 
L 80.607635 134.092788 
L 80.726837 135.015281 
L 80.846038 137.802893 
L 81.084442 145.22598 
L 81.322845 133.355261 
L 81.561248 130.864805 
L 81.68045 131.552003 
L 81.918853 136.115317 
L 82.39566 147.27893 
L 82.514862 145.578551 
L 82.872467 135.250754 
L 82.991668 135.590125 
L 83.230072 141.631063 
L 83.468475 133.340987 
L 83.587677 132.548402 
L 83.706878 133.671662 
L 84.064483 140.611227 
L 84.183685 140.527737 
L 84.302886 143.212645 
L 84.422088 148.964795 
L 84.660491 139.308086 
L 84.779693 138.280547 
L 85.018096 139.649414 
L 85.137298 139.382861 
L 85.375701 137.562388 
L 85.733306 134.534984 
L 85.852508 134.793272 
L 86.090911 137.510506 
L 86.448516 142.620966 
L 86.567718 142.953041 
L 86.68692 144.14736 
L 87.044525 152.189998 
L 87.40213 137.192512 
L 87.640533 135.275675 
L 87.878936 136.017147 
L 88.355743 129.356587 
L 88.474945 129.594145 
L 88.713348 132.25022 
L 88.951751 134.717254 
L 89.309356 132.130405 
L 89.428558 132.58914 
L 89.786163 137.692542 
L 90.024566 134.543625 
L 90.262969 132.852138 
L 90.382171 133.375625 
L 90.739776 136.503336 
L 90.858978 136.279479 
L 91.216583 134.832034 
L 91.335784 135.194066 
L 92.050994 140.54171 
L 92.289398 146.857027 
L 92.647003 135.4435 
L 92.766204 134.768821 
L 92.885406 135.21757 
L 93.243011 138.166745 
L 93.362213 137.93571 
L 93.600616 137.092003 
L 93.719818 137.861295 
L 93.958221 143.058448 
L 94.315826 134.68088 
L 94.435028 135.261725 
L 94.554229 136.714262 
L 94.673431 135.714103 
L 94.911834 132.148319 
L 95.031036 132.825877 
L 95.865448 147.673149 
L 96.103851 140.309011 
L 96.223052 139.148267 
L 96.342254 139.961017 
L 96.461456 141.903719 
L 96.580657 141.561772 
L 96.819061 138.907343 
L 96.938262 139.316633 
L 97.057464 138.860728 
L 97.176666 137.686541 
L 97.295867 137.691096 
L 97.415069 138.959539 
L 97.534271 138.132108 
L 97.772674 132.879822 
L 97.891876 132.576755 
L 98.011077 134.031966 
L 98.249481 140.796922 
L 98.368682 140.245165 
L 98.607086 137.397236 
L 98.845489 137.076598 
L 98.964691 137.171051 
L 99.322296 138.890921 
L 99.441497 138.672303 
L 99.918304 136.69124 
L 100.037506 137.067365 
L 100.156707 139.027686 
L 100.275909 144.289382 
L 100.395111 184.307314 
L 100.633514 140.796941 
L 100.752716 140.23266 
L 100.871917 142.232098 
L 101.229522 151.955048 
L 101.587127 141.032128 
L 101.706329 141.50715 
L 101.944732 144.048618 
L 102.183136 139.188667 
L 102.302337 138.873148 
L 102.659942 142.675528 
L 103.136749 135.580391 
L 103.25595 136.06999 
L 103.613555 138.31436 
L 103.732757 138.488503 
L 103.851959 138.39494 
L 104.209564 137.428052 
L 104.805572 139.30853 
L 105.163177 144.189579 
L 105.520782 136.897192 
L 105.639984 137.568982 
L 105.759185 140.205703 
L 105.997589 152.832231 
L 106.235992 141.869261 
L 106.474395 139.951688 
L 106.593597 140.754042 
L 106.832 144.343905 
L 106.951202 147.108976 
L 107.070404 155.09463 
L 107.189605 152.108329 
L 107.428009 138.027238 
L 107.54721 136.406584 
L 107.666412 136.780888 
L 107.785614 139.242245 
L 108.024017 151.063368 
L 108.26242 138.320058 
L 108.500823 133.854837 
L 108.620025 133.469612 
L 108.739227 134.369043 
L 108.858428 136.878812 
L 109.096832 151.42503 
L 109.335235 139.594555 
L 109.573638 136.301952 
L 109.69284 136.126537 
L 109.812042 136.836177 
L 109.931243 138.902909 
L 110.050445 143.610403 
L 110.169647 153.632219 
L 110.40805 140.556422 
L 110.527252 139.625743 
L 110.765655 143.167408 
L 111.12326 137.585628 
L 111.242462 137.992347 
L 111.480865 142.375851 
L 111.600067 145.110995 
L 111.719268 144.850802 
L 111.957672 141.758658 
L 112.076873 143.652717 
L 112.315277 152.129026 
L 112.55368 140.794233 
L 112.672882 141.297624 
L 112.792083 144.633468 
L 112.911285 152.482987 
L 113.030487 151.755926 
L 113.26889 142.270782 
L 113.388092 141.370036 
L 113.507293 141.858435 
L 114.222503 151.474104 
L 114.341705 158.228855 
L 114.460907 156.526715 
L 114.69931 143.453415 
L 114.937713 140.540781 
L 115.056915 140.551257 
L 115.176116 141.14851 
L 115.41452 144.411461 
L 115.652923 149.218263 
L 115.891326 146.293944 
L 116.010528 146.405128 
L 116.12973 147.302345 
L 116.248931 146.790637 
L 116.606536 139.912283 
L 116.725738 139.363387 
L 116.84494 140.165287 
L 117.321746 147.896353 
L 117.440948 148.518306 
L 117.917755 153.252805 
L 118.036956 152.222399 
L 118.632965 139.154061 
L 118.99057 135.852416 
L 119.109771 135.882325 
L 119.467376 136.997786 
L 119.586578 137.194781 
L 119.70578 137.972723 
L 119.824981 140.039952 
L 119.944183 144.565142 
L 120.063385 157.048456 
L 120.42099 143.757369 
L 120.659393 141.793589 
L 121.136199 136.835902 
L 121.255401 136.682902 
L 121.374603 137.217171 
L 121.732208 141.090491 
L 121.970611 140.726747 
L 122.089813 141.402042 
L 122.328216 146.003108 
L 122.566619 150.496874 
L 122.685821 148.198648 
L 122.805023 148.233546 
L 122.924224 155.060631 
L 123.043426 152.641188 
L 123.281829 138.517618 
L 123.401031 137.237875 
L 123.520233 138.020786 
L 123.639434 140.875421 
L 123.877838 156.153949 
L 123.997039 153.652214 
L 124.116241 150.556641 
L 124.235443 150.897923 
L 124.473846 159.896507 
L 124.831451 143.865356 
L 125.069854 140.269869 
L 125.189056 139.555235 
L 125.308258 139.608431 
L 125.427459 140.664205 
L 125.665863 147.448839 
L 125.785064 154.654449 
L 125.904266 153.603135 
L 126.142669 144.910055 
L 126.261871 143.37316 
L 126.381073 143.744004 
L 126.500274 147.298824 
L 126.619476 162.028779 
L 126.857879 141.081788 
L 126.977081 138.898465 
L 127.096282 139.285814 
L 127.215484 142.697058 
L 127.334686 154.221003 
L 127.692291 139.437289 
L 127.811492 139.196285 
L 128.049896 141.562266 
L 128.407501 144.326831 
L 128.765106 146.225913 
L 128.884307 145.518685 
L 129.241912 141.855838 
L 129.361114 142.27576 
L 129.480316 143.650312 
L 129.599517 142.901551 
L 129.837921 136.651779 
L 129.957122 135.73781 
L 130.076324 136.677151 
L 130.195526 139.819557 
L 130.433929 154.097093 
L 130.672332 145.272766 
L 130.791534 145.379687 
L 131.029937 147.304418 
L 131.149139 150.332407 
L 131.268341 159.908364 
L 131.506744 146.825831 
L 131.625946 145.811395 
L 131.864349 150.845848 
L 132.102752 138.602238 
L 132.221954 137.210507 
L 132.341156 137.778355 
L 132.817962 145.50727 
L 132.937164 146.081599 
L 133.175567 149.493651 
L 133.533172 157.237714 
L 133.652374 156.916447 
L 134.367584 138.529526 
L 134.486785 137.791548 
L 134.605987 138.020728 
L 134.725189 139.37577 
L 135.082794 150.058898 
L 135.321197 145.17489 
L 135.440399 144.66475 
L 135.5596 144.777454 
L 135.678802 144.135053 
L 136.155609 138.141025 
L 136.27481 138.624694 
L 136.513214 143.175088 
L 136.751617 151.490358 
L 136.99002 149.87869 
L 137.228424 150.514371 
L 137.466827 149.004481 
L 137.586029 150.205739 
L 137.824432 153.493148 
L 138.062835 150.234098 
L 138.182037 149.938952 
L 138.301239 148.473217 
L 138.658844 141.473238 
L 139.254852 138.317966 
L 139.374053 138.422439 
L 139.612457 140.23128 
L 139.85086 143.53522 
L 140.089263 151.370584 
L 140.208465 160.509509 
L 140.327667 160.530739 
L 140.446868 159.183537 
L 140.56607 167.310203 
L 140.923675 147.909966 
L 141.162078 146.137466 
L 141.400482 145.502713 
L 141.758087 144.162881 
L 141.877288 144.406895 
L 141.99649 145.724181 
L 142.115692 149.070874 
L 142.354095 159.087954 
L 142.592498 145.766025 
L 142.7117 144.395179 
L 142.830902 144.634114 
L 142.950103 146.75165 
L 143.069305 152.457608 
L 143.188507 167.802204 
L 143.42691 146.530825 
L 143.546112 145.46214 
L 143.665313 146.365621 
L 144.022918 154.013727 
L 144.261322 146.223888 
L 144.499725 140.531218 
L 144.618927 139.740746 
L 144.738128 140.180398 
L 144.85733 142.026846 
L 145.095733 153.645945 
L 145.57254 138.942204 
L 145.691741 138.825855 
L 145.810943 139.727434 
L 146.28775 146.901138 
L 146.526153 144.270342 
L 146.645355 144.642247 
L 146.764556 147.174774 
L 147.00296 164.716753 
L 147.241363 147.368896 
L 147.360565 146.671308 
L 147.479766 146.854368 
L 147.598968 145.545137 
L 147.837371 141.187947 
L 147.956573 141.002358 
L 148.075775 142.952605 
L 148.314178 149.162375 
L 148.552581 140.602358 
L 148.671783 140.060133 
L 148.790985 141.28291 
L 149.14859 148.74899 
L 149.386993 144.715513 
L 149.625396 146.33004 
L 149.983001 140.528453 
L 150.102203 141.046377 
L 150.221405 143.811098 
L 150.459808 158.926907 
L 150.698211 145.135082 
L 150.817413 144.252948 
L 150.936615 144.849232 
L 151.175018 146.837266 
L 151.413421 145.25249 
L 151.532623 145.765252 
L 151.771026 151.56587 
L 152.367034 139.452856 
L 152.486236 139.599036 
L 152.605438 140.953583 
L 152.963043 152.530938 
L 153.201446 145.860394 
L 153.320648 145.291817 
L 153.559051 147.003667 
L 153.916656 150.02497 
L 154.274261 145.619111 
L 154.393463 145.784193 
L 154.631866 147.587798 
L 155.227874 139.356618 
L 155.347076 139.660701 
L 155.704681 142.988725 
L 155.823883 142.645834 
L 156.062286 141.337375 
L 156.181488 141.013334 
L 156.658294 136.808257 
L 156.777496 137.15894 
L 157.015899 139.561191 
L 157.373504 145.592317 
L 157.492706 144.789751 
L 157.731109 142.683228 
L 157.850311 144.177573 
L 158.088714 153.619027 
L 158.327117 147.29534 
L 158.446319 147.037271 
L 158.565521 149.308366 
L 158.803924 165.265118 
L 159.042327 158.617599 
L 159.161529 159.072707 
L 159.399932 148.524045 
L 159.638336 145.980172 
L 159.757537 146.68974 
L 160.115142 150.293732 
L 160.472747 150.043642 
L 160.591949 149.60256 
L 160.949554 146.462644 
L 161.068756 146.508287 
L 161.307159 147.480784 
L 161.426361 147.640519 
L 161.545562 148.436023 
L 161.664764 151.144059 
L 161.783966 158.151549 
L 161.903167 155.26846 
L 162.141571 144.438768 
L 162.260772 143.233579 
L 162.379974 143.825244 
L 162.975982 153.136044 
L 163.095184 153.854878 
L 163.333587 147.402902 
L 163.691192 138.556272 
L 163.810394 137.804657 
L 163.929595 137.950303 
L 164.2872 140.833639 
L 164.525604 144.300356 
L 164.764007 153.713943 
L 165.00241 148.311055 
L 165.121612 149.123296 
L 165.240814 151.843472 
L 165.360015 151.076689 
L 165.598419 146.569214 
L 165.71762 147.906498 
L 165.956024 157.366335 
L 166.194427 140.671592 
L 166.43283 138.100399 
L 166.552032 139.019637 
L 166.790435 144.485123 
L 167.028839 151.646396 
L 167.14804 152.656745 
L 167.267242 152.439304 
L 167.624847 145.437409 
L 167.744049 145.928535 
L 167.982452 154.022961 
L 168.101654 152.406023 
L 168.340057 148.54024 
L 168.459259 149.054095 
L 168.697662 147.038905 
L 168.816864 147.472648 
L 168.936065 150.938647 
L 169.055267 161.964009 
L 169.412872 148.298025 
L 169.532073 149.03379 
L 169.889678 157.720142 
L 170.00888 155.612232 
L 170.366485 146.723445 
L 170.485687 146.355867 
L 170.72409 148.010439 
L 170.962493 149.729572 
L 171.200897 150.50494 
L 171.320098 152.340928 
L 171.558502 157.396827 
L 171.916107 149.140244 
L 172.15451 146.89085 
L 172.273712 147.333091 
L 172.512115 149.438756 
L 172.988922 139.690963 
L 173.108123 139.82277 
L 173.346527 142.483622 
L 173.58493 147.306135 
L 173.704132 152.464289 
L 173.823333 162.929089 
L 174.061737 147.560602 
L 174.180938 145.887432 
L 174.30014 146.138951 
L 174.776947 150.851881 
L 174.896148 155.486107 
L 175.01535 170.757173 
L 175.253753 147.943849 
L 175.372955 146.000268 
L 175.492157 145.932969 
L 175.73056 149.587334 
L 175.968963 152.514569 
L 176.088165 152.783188 
L 176.207366 154.539966 
L 176.44577 164.981951 
L 176.684173 155.955908 
L 177.041778 142.612077 
L 177.16098 141.490875 
L 177.280181 142.000439 
L 177.399383 144.351981 
L 177.518585 149.414044 
L 177.637786 161.611583 
L 177.995391 148.319494 
L 178.233795 146.720282 
L 178.472198 146.330847 
L 178.710601 144.36469 
L 178.949005 142.295208 
L 179.068206 142.266932 
L 179.187408 143.232144 
L 179.425811 148.189106 
L 179.664215 153.232532 
L 179.783416 153.044109 
L 180.02182 151.029939 
L 180.141021 150.952845 
L 180.260223 151.903393 
L 180.498626 154.751994 
L 180.856231 149.31878 
L 180.975433 152.321521 
L 181.094635 173.710544 
L 181.333038 144.349065 
L 181.571441 140.817217 
L 181.690643 141.58784 
L 182.405853 151.822036 
L 182.525054 151.931175 
L 183.359466 140.652953 
L 183.478668 140.381067 
L 183.597869 140.767972 
L 183.836273 144.106671 
L 184.074676 149.654555 
L 184.193878 149.899863 
L 184.551483 142.574097 
L 184.789886 139.25379 
L 184.909088 139.189441 
L 185.028289 140.344288 
L 185.385894 147.497456 
L 185.981903 143.023307 
L 186.101104 143.409639 
L 186.220306 144.519523 
L 186.458709 150.462723 
L 186.577911 153.403803 
L 187.293121 140.502407 
L 187.531524 139.253024 
L 187.769927 141.271944 
L 188.246734 147.733788 
L 188.723541 141.480832 
L 188.842742 141.659216 
L 189.319549 143.55629 
L 189.438751 145.720596 
L 189.677154 157.815985 
L 189.796356 180.262269 
L 190.034759 152.459725 
L 190.273162 146.18423 
L 190.630767 144.303485 
L 190.869171 143.510781 
L 190.988372 144.203317 
L 191.107574 146.294925 
L 191.345977 157.157096 
L 191.703582 142.340546 
L 191.822784 141.126755 
L 191.941986 141.054001 
L 192.061187 142.110603 
L 192.537994 150.378966 
L 192.776397 149.787974 
L 192.895599 150.374125 
L 193.014801 152.026088 
L 193.134002 151.904864 
L 193.372406 145.66385 
L 193.491607 144.683371 
L 193.610809 145.331937 
L 193.849212 152.006358 
L 194.087615 164.348737 
L 194.326019 148.815789 
L 194.564422 144.646595 
L 194.683624 144.649562 
L 195.041229 146.946447 
L 195.279632 145.983428 
L 195.398834 145.975344 
L 195.518035 146.308095 
L 195.756439 148.135651 
L 195.994842 151.725281 
L 196.114044 150.786977 
L 196.471649 144.821502 
L 196.59085 144.717146 
L 196.710052 145.054471 
L 196.829254 144.987825 
L 197.067657 143.558429 
L 197.186859 143.583911 
L 197.425262 146.30429 
L 197.782867 152.316496 
L 197.902069 151.505497 
L 198.259674 147.103949 
L 198.617279 145.15884 
L 198.73648 145.064827 
L 198.855682 145.690281 
L 199.094085 148.615928 
L 199.213287 148.331882 
L 199.332489 147.255901 
L 199.45169 147.424512 
L 199.570892 149.969514 
L 199.809295 160.070803 
L 200.047698 148.245996 
L 200.1669 147.578321 
L 200.286102 148.350155 
L 200.643707 153.499336 
L 200.762908 156.475985 
L 200.88211 164.281434 
L 201.001312 163.23026 
L 201.239715 150.767651 
L 201.478118 148.788378 
L 201.59732 148.99843 
L 202.074127 150.687971 
L 202.31253 150.256998 
L 202.550933 149.752321 
L 202.789337 149.995467 
L 202.908538 148.495579 
L 203.266143 141.280451 
L 203.385345 141.066208 
L 203.504547 142.147695 
L 203.981353 150.537301 
L 204.577362 154.851849 
L 204.815765 169.163245 
L 205.054168 149.495567 
L 205.292572 147.310207 
L 205.769378 151.213601 
L 205.88858 151.10318 
L 206.007782 151.637918 
L 206.126983 154.016847 
L 206.246185 159.432032 
L 206.365386 157.889618 
L 206.60379 150.499063 
L 206.722991 150.751075 
L 206.961395 152.686403 
L 207.080596 152.462845 
L 207.199798 152.673528 
L 207.319 152.131792 
L 207.676605 145.419409 
L 207.915008 144.557752 
L 208.03421 145.437551 
L 208.153411 147.731029 
L 208.391815 156.877929 
L 208.74942 145.63854 
L 208.868621 144.304569 
L 208.987823 144.317753 
L 209.345428 149.921272 
L 209.583831 147.703297 
L 209.703033 148.502147 
L 209.941436 151.41607 
L 210.17984 149.546194 
L 210.299041 150.522982 
L 210.418243 154.921656 
L 210.537445 172.121014 
L 210.775848 149.176976 
L 210.89505 147.211161 
L 211.014251 147.283139 
L 211.133453 149.41488 
L 211.371856 165.125554 
L 211.61026 151.299326 
L 211.967865 143.68829 
L 212.206268 140.47242 
L 212.325469 140.361406 
L 212.563873 142.213819 
L 212.802276 143.925437 
L 213.040679 144.560854 
L 213.279083 146.460301 
L 213.517486 149.891733 
L 213.755889 156.315376 
L 213.994293 171.300784 
L 214.232696 150.946577 
L 214.471099 148.445439 
L 214.828704 151.455377 
L 215.067108 149.931153 
L 215.305511 150.870954 
L 215.424713 150.353231 
L 215.782318 146.497661 
L 215.901519 147.335061 
L 216.020721 150.858667 
L 216.139923 163.254196 
L 216.497528 145.931165 
L 216.616729 145.814754 
L 216.974334 150.876354 
L 217.093536 150.359493 
L 217.451141 145.836616 
L 217.570343 146.307102 
L 217.689544 148.976093 
L 217.927948 169.030896 
L 218.166351 152.732975 
L 218.285552 153.534717 
L 218.523956 160.02091 
L 218.643157 159.890102 
L 219.119964 147.174503 
L 219.239166 146.698764 
L 219.358367 147.445089 
L 219.596771 152.92981 
L 219.715972 150.920257 
L 219.954376 143.485332 
L 220.192779 141.968401 
L 220.550384 143.687201 
L 220.788787 143.60535 
L 220.907989 144.365409 
L 221.027191 146.480135 
L 221.265594 156.835146 
L 221.384796 155.794415 
L 221.623199 151.946892 
L 221.742401 152.075035 
L 221.861602 152.397081 
L 221.980804 153.170398 
L 222.338409 157.67445 
L 222.457611 158.043238 
L 222.696014 159.64263 
L 222.934417 158.883792 
L 223.053619 158.102532 
L 223.411224 153.140829 
L 223.649627 153.566519 
L 223.768829 152.756881 
L 224.245636 147.265662 
L 224.364837 147.821134 
L 224.841644 155.279288 
L 225.080047 153.722542 
L 225.31845 154.680336 
L 225.676055 150.844577 
L 225.795257 152.761125 
L 225.914459 151.010412 
L 226.152862 143.639155 
L 226.272064 142.827946 
L 226.391265 143.763397 
L 226.74887 150.91219 
L 226.987274 147.63814 
L 227.106475 147.816477 
L 227.46408 151.985144 
L 227.583282 151.716057 
L 228.060089 146.235857 
L 228.17929 146.7167 
L 228.656097 150.626716 
L 229.013702 150.081379 
L 229.371307 146.562751 
L 229.490509 146.631215 
L 229.728912 149.579129 
L 229.967315 152.386496 
L 230.086517 152.975223 
L 230.32492 155.417795 
L 230.801727 145.611069 
L 230.920928 146.010913 
L 231.159332 151.597055 
L 231.278533 155.947077 
L 231.397735 155.603233 
L 231.636138 152.316331 
L 231.75534 153.264613 
L 231.993743 159.040368 
L 232.112945 163.373384 
L 232.232147 179.363421 
L 232.47055 156.173117 
L 232.708953 150.877127 
L 233.066558 147.818952 
L 233.304962 146.842997 
L 233.424163 146.74199 
L 233.543365 146.809097 
L 233.662567 147.067496 
L 233.90097 148.811802 
L 234.139373 152.627483 
L 234.258575 152.406432 
L 234.735382 144.326979 
L 234.973785 142.990682 
L 235.092987 143.424773 
L 235.33139 147.218461 
L 235.569793 156.990044 
L 235.808197 172.130156 
L 236.165802 159.706055 
L 236.523407 152.757421 
L 236.642608 153.486593 
L 236.76181 158.157808 
L 236.881011 171.057125 
L 237.119415 149.680252 
L 237.357818 147.555837 
L 237.47702 148.679448 
L 237.715423 154.166788 
L 238.073028 171.326136 
L 238.311431 161.337488 
L 238.90744 151.117354 
L 239.026641 151.071332 
L 239.145843 152.114277 
L 239.384246 154.562663 
L 239.384246 154.562663 
" clip-path="url(#pe717837bb9)" style="fill: none; stroke: #4477aa; stroke-linecap: square"/>
   </g>
   <g id="patch_3">
    <path d="M 44.012725 152.589249 
L 44.012725 7.059249 
" style="fill: none; stroke: #000000; stroke-width: 0.5; stroke-linejoin: miter; stroke-linecap: square"/>
   </g>
   <g id="patch_4">
    <path d="M 239.312725 152.589249 
L 239.312725 7.059249 
" style="fill: none; stroke: #000000; stroke-width: 0.5; stroke-linejoin: miter; stroke-linecap: square"/>
   </g>
   <g id="patch_5">
    <path d="M 44.012725 152.589249 
L 239.312725 152.589249 
" style="fill: none; stroke: #000000; stroke-width: 0.5; stroke-linejoin: miter; stroke-linecap: square"/>
   </g>
   <g id="patch_6">
    <path d="M 44.012725 7.059249 
L 239.312725 7.059249 
" style="fill: none; stroke: #000000; stroke-width: 0.5; stroke-linejoin: miter; stroke-linecap: square"/>
   </g>
  </g>
 </g>
 <defs>
  <clipPath id="pe717837bb9">
   <rect x="44.012725" y="7.059249" width="195.3" height="145.53"/>
  </clipPath>
 </defs>
</svg>
