<?xml version="1.0" encoding="utf-8" standalone="no"?>
<!DOCTYPE svg PUBLIC "-//W3C//DTD SVG 1.1//EN"
  "http://www.w3.org/Graphics/SVG/1.1/DTD/svg11.dtd">
<svg xmlns:xlink="http://www.w3.org/1999/xlink" width="242.912725pt" height="186.891106pt" viewBox="0 0 242.912725 186.891106" xmlns="http://www.w3.org/2000/svg" version="1.1">
 <metadata>
  <rdf:RDF xmlns:dc="http://purl.org/dc/elements/1.1/" xmlns:cc="http://creativecommons.org/ns#" xmlns:rdf="http://www.w3.org/1999/02/22-rdf-syntax-ns#">
   <cc:Work>
    <dc:type rdf:resource="http://purl.org/dc/dcmitype/StillImage"/>
    <dc:date>2025-03-14T12:24:29.457257</dc:date>
    <dc:format>image/svg+xml</dc:format>
    <dc:creator>
     <cc:Agent>
      <dc:title>Matplotlib v3.9.2, https://matplotlib.org/</dc:title>
     </cc:Agent>
    </dc:creator>
   </cc:Work>
  </rdf:RDF>
 </metadata>
 <defs>
  <style type="text/css">*{stroke-linejoin: round; stroke-linecap: butt}</style>
 </defs>
 <g id="figure_1">
  <g id="patch_1">
   <path d="M -0 186.891106 
L 242.912725 186.891106 
L 242.912725 0 
L -0 0 
L -0 186.891106 
z
" style="fill: none"/>
  </g>
  <g id="axes_1">
   <g id="patch_2">
    <path d="M 44.012725 152.589249 
L 239.312725 152.589249 
L 239.312725 7.059249 
L 44.012725 7.059249 
L 44.012725 152.589249 
z
" style="fill: none"/>
   </g>
   <g id="matplotlib.axis_1">
    <g id="xtick_1">
     <g id="line2d_1">
      <path d="M 44.012725 152.589249 
L 44.012725 7.059249 
" clip-path="url(#pa6b7d1af28)" style="fill: none; stroke-dasharray: 1.85,0.8; stroke-dashoffset: 0; stroke: #000000; stroke-opacity: 0.5; stroke-width: 0.5"/>
     </g>
     <g id="line2d_2">
      <defs>
       <path id="mbe0ad2d3d2" d="M 0 0 
L 0 -3 
" style="stroke: #000000; stroke-width: 0.5"/>
      </defs>
      <g>
       <use xlink:href="#mbe0ad2d3d2" x="44.012725" y="152.589249" style="stroke: #000000; stroke-width: 0.5"/>
      </g>
     </g>
     <g id="line2d_3">
      <defs>
       <path id="m12921cf96e" d="M 0 0 
L 0 3 
" style="stroke: #000000; stroke-width: 0.5"/>
      </defs>
      <g>
       <use xlink:href="#m12921cf96e" x="44.012725" y="7.059249" style="stroke: #000000; stroke-width: 0.5"/>
      </g>
     </g>
     <g id="text_1">
      <!-- $\mathdefault{0}$ -->
      <g transform="translate(41.522058 163.007748) scale(0.1 -0.1)">
       <defs>
        <path id="CMR17-30" d="M 2688 2025 
C 2688 2416 2682 3080 2413 3591 
C 2176 4039 1798 4198 1466 4198 
C 1158 4198 768 4058 525 3597 
C 269 3118 243 2524 243 2025 
C 243 1661 250 1106 448 619 
C 723 -39 1216 -128 1466 -128 
C 1760 -128 2208 -7 2470 600 
C 2662 1042 2688 1559 2688 2025 
z
M 1466 -26 
C 1056 -26 813 325 723 812 
C 653 1188 653 1738 653 2096 
C 653 2588 653 2997 736 3387 
C 858 3929 1216 4096 1466 4096 
C 1728 4096 2067 3923 2189 3400 
C 2272 3036 2278 2607 2278 2096 
C 2278 1680 2278 1169 2202 792 
C 2067 95 1690 -26 1466 -26 
z
" transform="scale(0.015625)"/>
       </defs>
       <use xlink:href="#CMR17-30" transform="scale(0.996264)"/>
      </g>
     </g>
    </g>
    <g id="xtick_2">
     <g id="line2d_4">
      <path d="M 95.407462 152.589249 
L 95.407462 7.059249 
" clip-path="url(#pa6b7d1af28)" style="fill: none; stroke-dasharray: 1.85,0.8; stroke-dashoffset: 0; stroke: #000000; stroke-opacity: 0.5; stroke-width: 0.5"/>
     </g>
     <g id="line2d_5">
      <g>
       <use xlink:href="#mbe0ad2d3d2" x="95.407462" y="152.589249" style="stroke: #000000; stroke-width: 0.5"/>
      </g>
     </g>
     <g id="line2d_6">
      <g>
       <use xlink:href="#m12921cf96e" x="95.407462" y="7.059249" style="stroke: #000000; stroke-width: 0.5"/>
      </g>
     </g>
     <g id="text_2">
      <!-- $\mathdefault{500}$ -->
      <g transform="translate(87.935459 163.007748) scale(0.1 -0.1)">
       <defs>
        <path id="CMR17-35" d="M 730 3692 
C 794 3666 1056 3584 1325 3584 
C 1920 3584 2246 3911 2432 4100 
C 2432 4157 2432 4192 2394 4192 
C 2387 4192 2374 4192 2323 4163 
C 2099 4058 1837 3973 1517 3973 
C 1325 3973 1037 3999 723 4139 
C 653 4171 640 4171 634 4171 
C 602 4171 595 4164 595 4037 
L 595 2203 
C 595 2089 595 2057 659 2057 
C 691 2057 704 2070 736 2114 
C 941 2401 1222 2522 1542 2522 
C 1766 2522 2246 2382 2246 1289 
C 2246 1085 2246 715 2054 421 
C 1894 159 1645 25 1370 25 
C 947 25 518 320 403 814 
C 429 807 480 795 506 795 
C 589 795 749 840 749 1038 
C 749 1210 627 1280 506 1280 
C 358 1280 262 1190 262 1011 
C 262 454 704 -128 1382 -128 
C 2042 -128 2669 440 2669 1264 
C 2669 2030 2170 2624 1549 2624 
C 1222 2624 947 2503 730 2274 
L 730 3692 
z
" transform="scale(0.015625)"/>
       </defs>
       <use xlink:href="#CMR17-35" transform="scale(0.996264)"/>
       <use xlink:href="#CMR17-30" transform="translate(45.690477 0) scale(0.996264)"/>
       <use xlink:href="#CMR17-30" transform="translate(91.380954 0) scale(0.996264)"/>
      </g>
     </g>
    </g>
    <g id="xtick_3">
     <g id="line2d_7">
      <path d="M 146.802199 152.589249 
L 146.802199 7.059249 
" clip-path="url(#pa6b7d1af28)" style="fill: none; stroke-dasharray: 1.85,0.8; stroke-dashoffset: 0; stroke: #000000; stroke-opacity: 0.5; stroke-width: 0.5"/>
     </g>
     <g id="line2d_8">
      <g>
       <use xlink:href="#mbe0ad2d3d2" x="146.802199" y="152.589249" style="stroke: #000000; stroke-width: 0.5"/>
      </g>
     </g>
     <g id="line2d_9">
      <g>
       <use xlink:href="#m12921cf96e" x="146.802199" y="7.059249" style="stroke: #000000; stroke-width: 0.5"/>
      </g>
     </g>
     <g id="text_3">
      <!-- $\mathdefault{1000}$ -->
      <g transform="translate(136.839529 163.007748) scale(0.1 -0.1)">
       <defs>
        <path id="CMR17-31" d="M 1702 4058 
C 1702 4192 1696 4192 1606 4192 
C 1357 3916 979 3827 621 3827 
C 602 3827 570 3827 563 3808 
C 557 3795 557 3782 557 3648 
C 755 3648 1088 3686 1344 3839 
L 1344 461 
C 1344 236 1331 160 781 160 
L 589 160 
L 589 0 
C 896 0 1216 0 1523 0 
C 1830 0 2150 0 2458 0 
L 2458 160 
L 2266 160 
C 1715 160 1702 230 1702 458 
L 1702 4058 
z
" transform="scale(0.015625)"/>
       </defs>
       <use xlink:href="#CMR17-31" transform="scale(0.996264)"/>
       <use xlink:href="#CMR17-30" transform="translate(45.690477 0) scale(0.996264)"/>
       <use xlink:href="#CMR17-30" transform="translate(91.380954 0) scale(0.996264)"/>
       <use xlink:href="#CMR17-30" transform="translate(137.071431 0) scale(0.996264)"/>
      </g>
     </g>
    </g>
    <g id="xtick_4">
     <g id="line2d_10">
      <path d="M 198.196936 152.589249 
L 198.196936 7.059249 
" clip-path="url(#pa6b7d1af28)" style="fill: none; stroke-dasharray: 1.85,0.8; stroke-dashoffset: 0; stroke: #000000; stroke-opacity: 0.5; stroke-width: 0.5"/>
     </g>
     <g id="line2d_11">
      <g>
       <use xlink:href="#mbe0ad2d3d2" x="198.196936" y="152.589249" style="stroke: #000000; stroke-width: 0.5"/>
      </g>
     </g>
     <g id="line2d_12">
      <g>
       <use xlink:href="#m12921cf96e" x="198.196936" y="7.059249" style="stroke: #000000; stroke-width: 0.5"/>
      </g>
     </g>
     <g id="text_4">
      <!-- $\mathdefault{1500}$ -->
      <g transform="translate(188.234265 163.007748) scale(0.1 -0.1)">
       <use xlink:href="#CMR17-31" transform="scale(0.996264)"/>
       <use xlink:href="#CMR17-35" transform="translate(45.690477 0) scale(0.996264)"/>
       <use xlink:href="#CMR17-30" transform="translate(91.380954 0) scale(0.996264)"/>
       <use xlink:href="#CMR17-30" transform="translate(137.071431 0) scale(0.996264)"/>
      </g>
     </g>
    </g>
    <g id="xtick_5">
     <g id="line2d_13">
      <defs>
       <path id="m2876a6227e" d="M 0 0 
L 0 -1.5 
" style="stroke: #000000; stroke-width: 0.5"/>
      </defs>
      <g>
       <use xlink:href="#m2876a6227e" x="54.291673" y="152.589249" style="stroke: #000000; stroke-width: 0.5"/>
      </g>
     </g>
     <g id="line2d_14">
      <defs>
       <path id="m74c7378d7e" d="M 0 0 
L 0 1.5 
" style="stroke: #000000; stroke-width: 0.5"/>
      </defs>
      <g>
       <use xlink:href="#m74c7378d7e" x="54.291673" y="7.059249" style="stroke: #000000; stroke-width: 0.5"/>
      </g>
     </g>
    </g>
    <g id="xtick_6">
     <g id="line2d_15">
      <g>
       <use xlink:href="#m2876a6227e" x="64.57062" y="152.589249" style="stroke: #000000; stroke-width: 0.5"/>
      </g>
     </g>
     <g id="line2d_16">
      <g>
       <use xlink:href="#m74c7378d7e" x="64.57062" y="7.059249" style="stroke: #000000; stroke-width: 0.5"/>
      </g>
     </g>
    </g>
    <g id="xtick_7">
     <g id="line2d_17">
      <g>
       <use xlink:href="#m2876a6227e" x="74.849567" y="152.589249" style="stroke: #000000; stroke-width: 0.5"/>
      </g>
     </g>
     <g id="line2d_18">
      <g>
       <use xlink:href="#m74c7378d7e" x="74.849567" y="7.059249" style="stroke: #000000; stroke-width: 0.5"/>
      </g>
     </g>
    </g>
    <g id="xtick_8">
     <g id="line2d_19">
      <g>
       <use xlink:href="#m2876a6227e" x="85.128515" y="152.589249" style="stroke: #000000; stroke-width: 0.5"/>
      </g>
     </g>
     <g id="line2d_20">
      <g>
       <use xlink:href="#m74c7378d7e" x="85.128515" y="7.059249" style="stroke: #000000; stroke-width: 0.5"/>
      </g>
     </g>
    </g>
    <g id="xtick_9">
     <g id="line2d_21">
      <g>
       <use xlink:href="#m2876a6227e" x="105.68641" y="152.589249" style="stroke: #000000; stroke-width: 0.5"/>
      </g>
     </g>
     <g id="line2d_22">
      <g>
       <use xlink:href="#m74c7378d7e" x="105.68641" y="7.059249" style="stroke: #000000; stroke-width: 0.5"/>
      </g>
     </g>
    </g>
    <g id="xtick_10">
     <g id="line2d_23">
      <g>
       <use xlink:href="#m2876a6227e" x="115.965357" y="152.589249" style="stroke: #000000; stroke-width: 0.5"/>
      </g>
     </g>
     <g id="line2d_24">
      <g>
       <use xlink:href="#m74c7378d7e" x="115.965357" y="7.059249" style="stroke: #000000; stroke-width: 0.5"/>
      </g>
     </g>
    </g>
    <g id="xtick_11">
     <g id="line2d_25">
      <g>
       <use xlink:href="#m2876a6227e" x="126.244304" y="152.589249" style="stroke: #000000; stroke-width: 0.5"/>
      </g>
     </g>
     <g id="line2d_26">
      <g>
       <use xlink:href="#m74c7378d7e" x="126.244304" y="7.059249" style="stroke: #000000; stroke-width: 0.5"/>
      </g>
     </g>
    </g>
    <g id="xtick_12">
     <g id="line2d_27">
      <g>
       <use xlink:href="#m2876a6227e" x="136.523252" y="152.589249" style="stroke: #000000; stroke-width: 0.5"/>
      </g>
     </g>
     <g id="line2d_28">
      <g>
       <use xlink:href="#m74c7378d7e" x="136.523252" y="7.059249" style="stroke: #000000; stroke-width: 0.5"/>
      </g>
     </g>
    </g>
    <g id="xtick_13">
     <g id="line2d_29">
      <g>
       <use xlink:href="#m2876a6227e" x="157.081146" y="152.589249" style="stroke: #000000; stroke-width: 0.5"/>
      </g>
     </g>
     <g id="line2d_30">
      <g>
       <use xlink:href="#m74c7378d7e" x="157.081146" y="7.059249" style="stroke: #000000; stroke-width: 0.5"/>
      </g>
     </g>
    </g>
    <g id="xtick_14">
     <g id="line2d_31">
      <g>
       <use xlink:href="#m2876a6227e" x="167.360094" y="152.589249" style="stroke: #000000; stroke-width: 0.5"/>
      </g>
     </g>
     <g id="line2d_32">
      <g>
       <use xlink:href="#m74c7378d7e" x="167.360094" y="7.059249" style="stroke: #000000; stroke-width: 0.5"/>
      </g>
     </g>
    </g>
    <g id="xtick_15">
     <g id="line2d_33">
      <g>
       <use xlink:href="#m2876a6227e" x="177.639041" y="152.589249" style="stroke: #000000; stroke-width: 0.5"/>
      </g>
     </g>
     <g id="line2d_34">
      <g>
       <use xlink:href="#m74c7378d7e" x="177.639041" y="7.059249" style="stroke: #000000; stroke-width: 0.5"/>
      </g>
     </g>
    </g>
    <g id="xtick_16">
     <g id="line2d_35">
      <g>
       <use xlink:href="#m2876a6227e" x="187.917989" y="152.589249" style="stroke: #000000; stroke-width: 0.5"/>
      </g>
     </g>
     <g id="line2d_36">
      <g>
       <use xlink:href="#m74c7378d7e" x="187.917989" y="7.059249" style="stroke: #000000; stroke-width: 0.5"/>
      </g>
     </g>
    </g>
    <g id="xtick_17">
     <g id="line2d_37">
      <g>
       <use xlink:href="#m2876a6227e" x="208.475883" y="152.589249" style="stroke: #000000; stroke-width: 0.5"/>
      </g>
     </g>
     <g id="line2d_38">
      <g>
       <use xlink:href="#m74c7378d7e" x="208.475883" y="7.059249" style="stroke: #000000; stroke-width: 0.5"/>
      </g>
     </g>
    </g>
    <g id="xtick_18">
     <g id="line2d_39">
      <g>
       <use xlink:href="#m2876a6227e" x="218.754831" y="152.589249" style="stroke: #000000; stroke-width: 0.5"/>
      </g>
     </g>
     <g id="line2d_40">
      <g>
       <use xlink:href="#m74c7378d7e" x="218.754831" y="7.059249" style="stroke: #000000; stroke-width: 0.5"/>
      </g>
     </g>
    </g>
    <g id="xtick_19">
     <g id="line2d_41">
      <g>
       <use xlink:href="#m2876a6227e" x="229.033778" y="152.589249" style="stroke: #000000; stroke-width: 0.5"/>
      </g>
     </g>
     <g id="line2d_42">
      <g>
       <use xlink:href="#m74c7378d7e" x="229.033778" y="7.059249" style="stroke: #000000; stroke-width: 0.5"/>
      </g>
     </g>
    </g>
    <g id="xtick_20">
     <g id="line2d_43">
      <g>
       <use xlink:href="#m2876a6227e" x="239.312725" y="152.589249" style="stroke: #000000; stroke-width: 0.5"/>
      </g>
     </g>
     <g id="line2d_44">
      <g>
       <use xlink:href="#m74c7378d7e" x="239.312725" y="7.059249" style="stroke: #000000; stroke-width: 0.5"/>
      </g>
     </g>
    </g>
    <g id="text_5">
     <!-- $f$ [MHz] -->
     <g transform="translate(116.369118 179.704565) scale(0.144 -0.144)">
      <defs>
       <path id="CMMI12-66" d="M 2854 2566 
C 2982 2566 3034 2566 3034 2688 
C 3034 2752 2982 2752 2867 2752 
L 2349 2752 
C 2470 3429 2560 3897 2611 4107 
C 2650 4265 2784 4416 2950 4416 
C 3085 4416 3219 4358 3283 4298 
C 3034 4272 2957 4082 2957 3969 
C 2957 3837 3053 3759 3174 3759 
C 3302 3759 3494 3870 3494 4119 
C 3494 4393 3226 4544 2944 4544 
C 2669 4544 2400 4334 2272 4078 
C 2157 3848 2093 3611 1946 2752 
L 1517 2752 
C 1395 2752 1331 2752 1331 2637 
C 1331 2566 1370 2566 1498 2566 
L 1907 2566 
C 1792 1976 1530 542 1382 -137 
C 1274 -689 1178 -1152 858 -1152 
C 838 -1152 653 -1152 538 -1031 
C 864 -1005 864 -726 864 -720 
C 864 -593 768 -517 646 -517 
C 518 -517 326 -625 326 -867 
C 326 -1140 608 -1280 858 -1280 
C 1510 -1280 1779 -118 1850 199 
C 1965 688 2278 2376 2310 2566 
L 2854 2566 
z
" transform="scale(0.015625)"/>
       <path id="CMR17-5b" d="M 1504 -1600 
L 1504 -1377 
L 902 -1377 
L 902 4544 
L 1504 4544 
L 1504 4767 
L 678 4767 
L 678 -1600 
L 1504 -1600 
z
" transform="scale(0.015625)"/>
       <path id="CMR17-4d" d="M 1338 4224 
C 1299 4320 1293 4320 1158 4320 
L 339 4320 
L 339 4160 
C 781 4160 851 4160 851 3875 
L 851 610 
C 851 451 851 153 339 153 
L 339 -13 
C 486 0 755 0 915 0 
C 1075 0 1344 0 1491 -13 
L 1491 153 
C 979 153 979 451 979 610 
L 979 4135 
L 986 4135 
L 2490 89 
C 2515 25 2528 -13 2579 -13 
C 2630 -13 2643 25 2669 89 
L 4186 4166 
L 4192 4166 
L 4192 438 
C 4192 153 4122 153 3680 153 
L 3680 -13 
C 3853 0 4198 0 4384 0 
C 4570 0 4922 0 5094 -13 
L 5094 153 
C 4653 153 4582 153 4582 438 
L 4582 3875 
C 4582 4160 4653 4160 5094 4160 
L 5094 4320 
L 4282 4320 
C 4147 4320 4141 4314 4102 4218 
L 2720 502 
L 1338 4224 
z
" transform="scale(0.015625)"/>
       <path id="CMR17-48" d="M 3590 3905 
C 3590 4192 3661 4192 4102 4192 
L 4102 4352 
C 3917 4352 3578 4352 3379 4352 
C 3181 4352 2842 4352 2656 4352 
L 2656 4192 
C 3098 4192 3168 4192 3168 3904 
L 3168 2341 
L 1261 2341 
L 1261 3904 
C 1261 4192 1331 4192 1773 4192 
L 1773 4352 
C 1587 4352 1248 4352 1050 4352 
C 851 4352 512 4352 326 4352 
L 326 4192 
C 768 4192 838 4192 838 3905 
L 838 447 
C 838 160 768 160 326 160 
L 326 0 
C 512 0 851 0 1050 0 
C 1248 0 1587 0 1773 0 
L 1773 160 
C 1331 160 1261 160 1261 446 
L 1261 2176 
L 3168 2176 
L 3168 446 
C 3168 160 3098 160 2656 160 
L 2656 0 
C 2842 0 3181 0 3379 0 
C 3578 0 3917 0 4102 0 
L 4102 160 
C 3661 160 3590 160 3590 447 
L 3590 3905 
z
" transform="scale(0.015625)"/>
       <path id="CMR17-7a" d="M 2310 2605 
C 2362 2670 2362 2682 2362 2695 
C 2362 2752 2336 2752 2221 2752 
L 275 2752 
L 211 1760 
L 326 1760 
C 371 2381 442 2650 1178 2650 
L 1958 2650 
L 128 96 
C 128 0 134 0 269 0 
L 2291 0 
L 2381 1152 
L 2266 1152 
C 2214 442 2131 115 1350 115 
L 531 115 
L 2310 2605 
z
" transform="scale(0.015625)"/>
       <path id="CMR17-5d" d="M 915 4767 
L 90 4767 
L 90 4544 
L 691 4544 
L 691 -1377 
L 90 -1377 
L 90 -1600 
L 915 -1600 
L 915 4767 
z
" transform="scale(0.015625)"/>
      </defs>
      <use xlink:href="#CMMI12-66" transform="scale(0.996264)"/>
      <use xlink:href="#CMR17-5b" transform="translate(88.796271 0) scale(0.996264)"/>
      <use xlink:href="#CMR17-4d" transform="translate(113.66733 0) scale(0.996264)"/>
      <use xlink:href="#CMR17-48" transform="translate(198.35427 0) scale(0.996264)"/>
      <use xlink:href="#CMR17-7a" transform="translate(267.4267 0) scale(0.996264)"/>
      <use xlink:href="#CMR17-5d" transform="translate(307.912361 0) scale(0.996264)"/>
     </g>
    </g>
   </g>
   <g id="matplotlib.axis_2">
    <g id="ytick_1">
     <g id="line2d_45">
      <path d="M 44.012725 152.589249 
L 239.312725 152.589249 
" clip-path="url(#pa6b7d1af28)" style="fill: none; stroke-dasharray: 1.85,0.8; stroke-dashoffset: 0; stroke: #000000; stroke-opacity: 0.5; stroke-width: 0.5"/>
     </g>
     <g id="line2d_46">
      <defs>
       <path id="m5c879f556a" d="M 0 0 
L 3 0 
" style="stroke: #000000; stroke-width: 0.5"/>
      </defs>
      <g>
       <use xlink:href="#m5c879f556a" x="44.012725" y="152.589249" style="stroke: #000000; stroke-width: 0.5"/>
      </g>
     </g>
     <g id="line2d_47">
      <defs>
       <path id="mfa56d373b8" d="M 0 0 
L -3 0 
" style="stroke: #000000; stroke-width: 0.5"/>
      </defs>
      <g>
       <use xlink:href="#mfa56d373b8" x="239.312725" y="152.589249" style="stroke: #000000; stroke-width: 0.5"/>
      </g>
     </g>
     <g id="text_6">
      <!-- $\mathdefault{10^{-3}}$ -->
      <g transform="translate(20.352152 156.048498) scale(0.1 -0.1)">
       <defs>
        <path id="CMSY10-0" d="M 4218 1472 
C 4326 1472 4442 1472 4442 1600 
C 4442 1728 4326 1728 4218 1728 
L 755 1728 
C 646 1728 531 1728 531 1600 
C 531 1472 646 1472 755 1472 
L 4218 1472 
z
" transform="scale(0.015625)"/>
        <path id="CMR17-33" d="M 1414 2157 
C 1984 2157 2234 1662 2234 1090 
C 2234 320 1824 25 1453 25 
C 1114 25 563 194 390 693 
C 422 680 454 680 486 680 
C 640 680 755 782 755 948 
C 755 1133 614 1216 486 1216 
C 378 1216 211 1165 211 926 
C 211 335 787 -128 1466 -128 
C 2176 -128 2720 430 2720 1085 
C 2720 1707 2208 2157 1600 2227 
C 2086 2328 2554 2756 2554 3329 
C 2554 3820 2048 4179 1472 4179 
C 890 4179 378 3829 378 3329 
C 378 3110 544 3072 627 3072 
C 762 3072 877 3155 877 3321 
C 877 3486 762 3569 627 3569 
C 602 3569 570 3569 544 3557 
C 730 3959 1235 4032 1459 4032 
C 1683 4032 2106 3925 2106 3320 
C 2106 3143 2080 2828 1862 2550 
C 1670 2304 1453 2304 1242 2284 
C 1210 2284 1062 2269 1037 2269 
C 992 2263 966 2257 966 2208 
C 966 2163 973 2157 1101 2157 
L 1414 2157 
z
" transform="scale(0.015625)"/>
       </defs>
       <use xlink:href="#CMR17-31" transform="scale(0.996264)"/>
       <use xlink:href="#CMR17-30" transform="translate(45.690477 0) scale(0.996264)"/>
       <use xlink:href="#CMSY10-0" transform="translate(91.380954 36.153639) scale(0.697382)"/>
       <use xlink:href="#CMR17-33" transform="translate(145.621947 36.153639) scale(0.697382)"/>
      </g>
     </g>
    </g>
    <g id="ytick_2">
     <g id="line2d_48">
      <path d="M 44.012725 131.799249 
L 239.312725 131.799249 
" clip-path="url(#pa6b7d1af28)" style="fill: none; stroke-dasharray: 1.85,0.8; stroke-dashoffset: 0; stroke: #000000; stroke-opacity: 0.5; stroke-width: 0.5"/>
     </g>
     <g id="line2d_49">
      <g>
       <use xlink:href="#m5c879f556a" x="44.012725" y="131.799249" style="stroke: #000000; stroke-width: 0.5"/>
      </g>
     </g>
     <g id="line2d_50">
      <g>
       <use xlink:href="#mfa56d373b8" x="239.312725" y="131.799249" style="stroke: #000000; stroke-width: 0.5"/>
      </g>
     </g>
     <g id="text_7">
      <!-- $\mathdefault{10^{-2}}$ -->
      <g transform="translate(20.352152 135.258498) scale(0.1 -0.1)">
       <defs>
        <path id="CMR17-32" d="M 2669 989 
L 2554 989 
C 2490 536 2438 459 2413 420 
C 2381 369 1920 369 1830 369 
L 602 369 
C 832 619 1280 1072 1824 1597 
C 2214 1967 2669 2402 2669 3035 
C 2669 3790 2067 4224 1395 4224 
C 691 4224 262 3604 262 3030 
C 262 2780 448 2748 525 2748 
C 589 2748 781 2787 781 3010 
C 781 3207 614 3264 525 3264 
C 486 3264 448 3258 422 3245 
C 544 3790 915 4058 1306 4058 
C 1862 4058 2227 3617 2227 3035 
C 2227 2479 1901 2000 1536 1584 
L 262 146 
L 262 0 
L 2515 0 
L 2669 989 
z
" transform="scale(0.015625)"/>
       </defs>
       <use xlink:href="#CMR17-31" transform="scale(0.996264)"/>
       <use xlink:href="#CMR17-30" transform="translate(45.690477 0) scale(0.996264)"/>
       <use xlink:href="#CMSY10-0" transform="translate(91.380954 36.153639) scale(0.697382)"/>
       <use xlink:href="#CMR17-32" transform="translate(145.621947 36.153639) scale(0.697382)"/>
      </g>
     </g>
    </g>
    <g id="ytick_3">
     <g id="line2d_51">
      <path d="M 44.012725 111.009249 
L 239.312725 111.009249 
" clip-path="url(#pa6b7d1af28)" style="fill: none; stroke-dasharray: 1.85,0.8; stroke-dashoffset: 0; stroke: #000000; stroke-opacity: 0.5; stroke-width: 0.5"/>
     </g>
     <g id="line2d_52">
      <g>
       <use xlink:href="#m5c879f556a" x="44.012725" y="111.009249" style="stroke: #000000; stroke-width: 0.5"/>
      </g>
     </g>
     <g id="line2d_53">
      <g>
       <use xlink:href="#mfa56d373b8" x="239.312725" y="111.009249" style="stroke: #000000; stroke-width: 0.5"/>
      </g>
     </g>
     <g id="text_8">
      <!-- $\mathdefault{10^{-1}}$ -->
      <g transform="translate(20.352152 114.468498) scale(0.1 -0.1)">
       <use xlink:href="#CMR17-31" transform="scale(0.996264)"/>
       <use xlink:href="#CMR17-30" transform="translate(45.690477 0) scale(0.996264)"/>
       <use xlink:href="#CMSY10-0" transform="translate(91.380954 36.153639) scale(0.697382)"/>
       <use xlink:href="#CMR17-31" transform="translate(145.621947 36.153639) scale(0.697382)"/>
      </g>
     </g>
    </g>
    <g id="ytick_4">
     <g id="line2d_54">
      <path d="M 44.012725 90.219249 
L 239.312725 90.219249 
" clip-path="url(#pa6b7d1af28)" style="fill: none; stroke-dasharray: 1.85,0.8; stroke-dashoffset: 0; stroke: #000000; stroke-opacity: 0.5; stroke-width: 0.5"/>
     </g>
     <g id="line2d_55">
      <g>
       <use xlink:href="#m5c879f556a" x="44.012725" y="90.219249" style="stroke: #000000; stroke-width: 0.5"/>
      </g>
     </g>
     <g id="line2d_56">
      <g>
       <use xlink:href="#mfa56d373b8" x="239.312725" y="90.219249" style="stroke: #000000; stroke-width: 0.5"/>
      </g>
     </g>
     <g id="text_9">
      <!-- $\mathdefault{10^{0}}$ -->
      <g transform="translate(26.578817 93.678498) scale(0.1 -0.1)">
       <use xlink:href="#CMR17-31" transform="scale(0.996264)"/>
       <use xlink:href="#CMR17-30" transform="translate(45.690477 0) scale(0.996264)"/>
       <use xlink:href="#CMR17-30" transform="translate(91.380954 36.153639) scale(0.697382)"/>
      </g>
     </g>
    </g>
    <g id="ytick_5">
     <g id="line2d_57">
      <path d="M 44.012725 69.429249 
L 239.312725 69.429249 
" clip-path="url(#pa6b7d1af28)" style="fill: none; stroke-dasharray: 1.85,0.8; stroke-dashoffset: 0; stroke: #000000; stroke-opacity: 0.5; stroke-width: 0.5"/>
     </g>
     <g id="line2d_58">
      <g>
       <use xlink:href="#m5c879f556a" x="44.012725" y="69.429249" style="stroke: #000000; stroke-width: 0.5"/>
      </g>
     </g>
     <g id="line2d_59">
      <g>
       <use xlink:href="#mfa56d373b8" x="239.312725" y="69.429249" style="stroke: #000000; stroke-width: 0.5"/>
      </g>
     </g>
     <g id="text_10">
      <!-- $\mathdefault{10^{1}}$ -->
      <g transform="translate(26.578817 72.888498) scale(0.1 -0.1)">
       <use xlink:href="#CMR17-31" transform="scale(0.996264)"/>
       <use xlink:href="#CMR17-30" transform="translate(45.690477 0) scale(0.996264)"/>
       <use xlink:href="#CMR17-31" transform="translate(91.380954 36.153639) scale(0.697382)"/>
      </g>
     </g>
    </g>
    <g id="ytick_6">
     <g id="line2d_60">
      <path d="M 44.012725 48.639249 
L 239.312725 48.639249 
" clip-path="url(#pa6b7d1af28)" style="fill: none; stroke-dasharray: 1.85,0.8; stroke-dashoffset: 0; stroke: #000000; stroke-opacity: 0.5; stroke-width: 0.5"/>
     </g>
     <g id="line2d_61">
      <g>
       <use xlink:href="#m5c879f556a" x="44.012725" y="48.639249" style="stroke: #000000; stroke-width: 0.5"/>
      </g>
     </g>
     <g id="line2d_62">
      <g>
       <use xlink:href="#mfa56d373b8" x="239.312725" y="48.639249" style="stroke: #000000; stroke-width: 0.5"/>
      </g>
     </g>
     <g id="text_11">
      <!-- $\mathdefault{10^{2}}$ -->
      <g transform="translate(26.578817 52.098498) scale(0.1 -0.1)">
       <use xlink:href="#CMR17-31" transform="scale(0.996264)"/>
       <use xlink:href="#CMR17-30" transform="translate(45.690477 0) scale(0.996264)"/>
       <use xlink:href="#CMR17-32" transform="translate(91.380954 36.153639) scale(0.697382)"/>
      </g>
     </g>
    </g>
    <g id="ytick_7">
     <g id="line2d_63">
      <path d="M 44.012725 27.849249 
L 239.312725 27.849249 
" clip-path="url(#pa6b7d1af28)" style="fill: none; stroke-dasharray: 1.85,0.8; stroke-dashoffset: 0; stroke: #000000; stroke-opacity: 0.5; stroke-width: 0.5"/>
     </g>
     <g id="line2d_64">
      <g>
       <use xlink:href="#m5c879f556a" x="44.012725" y="27.849249" style="stroke: #000000; stroke-width: 0.5"/>
      </g>
     </g>
     <g id="line2d_65">
      <g>
       <use xlink:href="#mfa56d373b8" x="239.312725" y="27.849249" style="stroke: #000000; stroke-width: 0.5"/>
      </g>
     </g>
     <g id="text_12">
      <!-- $\mathdefault{10^{3}}$ -->
      <g transform="translate(26.578817 31.308498) scale(0.1 -0.1)">
       <use xlink:href="#CMR17-31" transform="scale(0.996264)"/>
       <use xlink:href="#CMR17-30" transform="translate(45.690477 0) scale(0.996264)"/>
       <use xlink:href="#CMR17-33" transform="translate(91.380954 36.153639) scale(0.697382)"/>
      </g>
     </g>
    </g>
    <g id="ytick_8">
     <g id="line2d_66">
      <path d="M 44.012725 7.059249 
L 239.312725 7.059249 
" clip-path="url(#pa6b7d1af28)" style="fill: none; stroke-dasharray: 1.85,0.8; stroke-dashoffset: 0; stroke: #000000; stroke-opacity: 0.5; stroke-width: 0.5"/>
     </g>
     <g id="line2d_67">
      <g>
       <use xlink:href="#m5c879f556a" x="44.012725" y="7.059249" style="stroke: #000000; stroke-width: 0.5"/>
      </g>
     </g>
     <g id="line2d_68">
      <g>
       <use xlink:href="#mfa56d373b8" x="239.312725" y="7.059249" style="stroke: #000000; stroke-width: 0.5"/>
      </g>
     </g>
     <g id="text_13">
      <!-- $\mathdefault{10^{4}}$ -->
      <g transform="translate(26.578817 10.518498) scale(0.1 -0.1)">
       <defs>
        <path id="CMR17-34" d="M 2150 4122 
C 2150 4256 2144 4256 2029 4256 
L 128 1254 
L 128 1088 
L 1779 1088 
L 1779 457 
C 1779 224 1766 160 1318 160 
L 1197 160 
L 1197 0 
C 1402 0 1747 0 1965 0 
C 2182 0 2528 0 2733 0 
L 2733 160 
L 2611 160 
C 2163 160 2150 224 2150 457 
L 2150 1088 
L 2803 1088 
L 2803 1254 
L 2150 1254 
L 2150 4122 
z
M 1798 3703 
L 1798 1254 
L 256 1254 
L 1798 3703 
z
" transform="scale(0.015625)"/>
       </defs>
       <use xlink:href="#CMR17-31" transform="scale(0.996264)"/>
       <use xlink:href="#CMR17-30" transform="translate(45.690477 0) scale(0.996264)"/>
       <use xlink:href="#CMR17-34" transform="translate(91.380954 36.153639) scale(0.697382)"/>
      </g>
     </g>
    </g>
    <g id="ytick_9">
     <g id="line2d_69">
      <defs>
       <path id="m5e180ffc6b" d="M 0 0 
L 1.5 0 
" style="stroke: #000000; stroke-width: 0.5"/>
      </defs>
      <g>
       <use xlink:href="#m5e180ffc6b" x="44.012725" y="146.330836" style="stroke: #000000; stroke-width: 0.5"/>
      </g>
     </g>
     <g id="line2d_70">
      <defs>
       <path id="m23a2d0c86e" d="M 0 0 
L -1.5 0 
" style="stroke: #000000; stroke-width: 0.5"/>
      </defs>
      <g>
       <use xlink:href="#m23a2d0c86e" x="239.312725" y="146.330836" style="stroke: #000000; stroke-width: 0.5"/>
      </g>
     </g>
    </g>
    <g id="ytick_10">
     <g id="line2d_71">
      <g>
       <use xlink:href="#m5e180ffc6b" x="44.012725" y="142.669898" style="stroke: #000000; stroke-width: 0.5"/>
      </g>
     </g>
     <g id="line2d_72">
      <g>
       <use xlink:href="#m23a2d0c86e" x="239.312725" y="142.669898" style="stroke: #000000; stroke-width: 0.5"/>
      </g>
     </g>
    </g>
    <g id="ytick_11">
     <g id="line2d_73">
      <g>
       <use xlink:href="#m5e180ffc6b" x="44.012725" y="140.072422" style="stroke: #000000; stroke-width: 0.5"/>
      </g>
     </g>
     <g id="line2d_74">
      <g>
       <use xlink:href="#m23a2d0c86e" x="239.312725" y="140.072422" style="stroke: #000000; stroke-width: 0.5"/>
      </g>
     </g>
    </g>
    <g id="ytick_12">
     <g id="line2d_75">
      <g>
       <use xlink:href="#m5e180ffc6b" x="44.012725" y="138.057663" style="stroke: #000000; stroke-width: 0.5"/>
      </g>
     </g>
     <g id="line2d_76">
      <g>
       <use xlink:href="#m23a2d0c86e" x="239.312725" y="138.057663" style="stroke: #000000; stroke-width: 0.5"/>
      </g>
     </g>
    </g>
    <g id="ytick_13">
     <g id="line2d_77">
      <g>
       <use xlink:href="#m5e180ffc6b" x="44.012725" y="136.411485" style="stroke: #000000; stroke-width: 0.5"/>
      </g>
     </g>
     <g id="line2d_78">
      <g>
       <use xlink:href="#m23a2d0c86e" x="239.312725" y="136.411485" style="stroke: #000000; stroke-width: 0.5"/>
      </g>
     </g>
    </g>
    <g id="ytick_14">
     <g id="line2d_79">
      <g>
       <use xlink:href="#m5e180ffc6b" x="44.012725" y="135.019661" style="stroke: #000000; stroke-width: 0.5"/>
      </g>
     </g>
     <g id="line2d_80">
      <g>
       <use xlink:href="#m23a2d0c86e" x="239.312725" y="135.019661" style="stroke: #000000; stroke-width: 0.5"/>
      </g>
     </g>
    </g>
    <g id="ytick_15">
     <g id="line2d_81">
      <g>
       <use xlink:href="#m5e180ffc6b" x="44.012725" y="133.814008" style="stroke: #000000; stroke-width: 0.5"/>
      </g>
     </g>
     <g id="line2d_82">
      <g>
       <use xlink:href="#m23a2d0c86e" x="239.312725" y="133.814008" style="stroke: #000000; stroke-width: 0.5"/>
      </g>
     </g>
    </g>
    <g id="ytick_16">
     <g id="line2d_83">
      <g>
       <use xlink:href="#m5e180ffc6b" x="44.012725" y="132.750547" style="stroke: #000000; stroke-width: 0.5"/>
      </g>
     </g>
     <g id="line2d_84">
      <g>
       <use xlink:href="#m23a2d0c86e" x="239.312725" y="132.750547" style="stroke: #000000; stroke-width: 0.5"/>
      </g>
     </g>
    </g>
    <g id="ytick_17">
     <g id="line2d_85">
      <g>
       <use xlink:href="#m5e180ffc6b" x="44.012725" y="125.540836" style="stroke: #000000; stroke-width: 0.5"/>
      </g>
     </g>
     <g id="line2d_86">
      <g>
       <use xlink:href="#m23a2d0c86e" x="239.312725" y="125.540836" style="stroke: #000000; stroke-width: 0.5"/>
      </g>
     </g>
    </g>
    <g id="ytick_18">
     <g id="line2d_87">
      <g>
       <use xlink:href="#m5e180ffc6b" x="44.012725" y="121.879898" style="stroke: #000000; stroke-width: 0.5"/>
      </g>
     </g>
     <g id="line2d_88">
      <g>
       <use xlink:href="#m23a2d0c86e" x="239.312725" y="121.879898" style="stroke: #000000; stroke-width: 0.5"/>
      </g>
     </g>
    </g>
    <g id="ytick_19">
     <g id="line2d_89">
      <g>
       <use xlink:href="#m5e180ffc6b" x="44.012725" y="119.282422" style="stroke: #000000; stroke-width: 0.5"/>
      </g>
     </g>
     <g id="line2d_90">
      <g>
       <use xlink:href="#m23a2d0c86e" x="239.312725" y="119.282422" style="stroke: #000000; stroke-width: 0.5"/>
      </g>
     </g>
    </g>
    <g id="ytick_20">
     <g id="line2d_91">
      <g>
       <use xlink:href="#m5e180ffc6b" x="44.012725" y="117.267663" style="stroke: #000000; stroke-width: 0.5"/>
      </g>
     </g>
     <g id="line2d_92">
      <g>
       <use xlink:href="#m23a2d0c86e" x="239.312725" y="117.267663" style="stroke: #000000; stroke-width: 0.5"/>
      </g>
     </g>
    </g>
    <g id="ytick_21">
     <g id="line2d_93">
      <g>
       <use xlink:href="#m5e180ffc6b" x="44.012725" y="115.621485" style="stroke: #000000; stroke-width: 0.5"/>
      </g>
     </g>
     <g id="line2d_94">
      <g>
       <use xlink:href="#m23a2d0c86e" x="239.312725" y="115.621485" style="stroke: #000000; stroke-width: 0.5"/>
      </g>
     </g>
    </g>
    <g id="ytick_22">
     <g id="line2d_95">
      <g>
       <use xlink:href="#m5e180ffc6b" x="44.012725" y="114.229661" style="stroke: #000000; stroke-width: 0.5"/>
      </g>
     </g>
     <g id="line2d_96">
      <g>
       <use xlink:href="#m23a2d0c86e" x="239.312725" y="114.229661" style="stroke: #000000; stroke-width: 0.5"/>
      </g>
     </g>
    </g>
    <g id="ytick_23">
     <g id="line2d_97">
      <g>
       <use xlink:href="#m5e180ffc6b" x="44.012725" y="113.024008" style="stroke: #000000; stroke-width: 0.5"/>
      </g>
     </g>
     <g id="line2d_98">
      <g>
       <use xlink:href="#m23a2d0c86e" x="239.312725" y="113.024008" style="stroke: #000000; stroke-width: 0.5"/>
      </g>
     </g>
    </g>
    <g id="ytick_24">
     <g id="line2d_99">
      <g>
       <use xlink:href="#m5e180ffc6b" x="44.012725" y="111.960547" style="stroke: #000000; stroke-width: 0.5"/>
      </g>
     </g>
     <g id="line2d_100">
      <g>
       <use xlink:href="#m23a2d0c86e" x="239.312725" y="111.960547" style="stroke: #000000; stroke-width: 0.5"/>
      </g>
     </g>
    </g>
    <g id="ytick_25">
     <g id="line2d_101">
      <g>
       <use xlink:href="#m5e180ffc6b" x="44.012725" y="104.750836" style="stroke: #000000; stroke-width: 0.5"/>
      </g>
     </g>
     <g id="line2d_102">
      <g>
       <use xlink:href="#m23a2d0c86e" x="239.312725" y="104.750836" style="stroke: #000000; stroke-width: 0.5"/>
      </g>
     </g>
    </g>
    <g id="ytick_26">
     <g id="line2d_103">
      <g>
       <use xlink:href="#m5e180ffc6b" x="44.012725" y="101.089898" style="stroke: #000000; stroke-width: 0.5"/>
      </g>
     </g>
     <g id="line2d_104">
      <g>
       <use xlink:href="#m23a2d0c86e" x="239.312725" y="101.089898" style="stroke: #000000; stroke-width: 0.5"/>
      </g>
     </g>
    </g>
    <g id="ytick_27">
     <g id="line2d_105">
      <g>
       <use xlink:href="#m5e180ffc6b" x="44.012725" y="98.492422" style="stroke: #000000; stroke-width: 0.5"/>
      </g>
     </g>
     <g id="line2d_106">
      <g>
       <use xlink:href="#m23a2d0c86e" x="239.312725" y="98.492422" style="stroke: #000000; stroke-width: 0.5"/>
      </g>
     </g>
    </g>
    <g id="ytick_28">
     <g id="line2d_107">
      <g>
       <use xlink:href="#m5e180ffc6b" x="44.012725" y="96.477663" style="stroke: #000000; stroke-width: 0.5"/>
      </g>
     </g>
     <g id="line2d_108">
      <g>
       <use xlink:href="#m23a2d0c86e" x="239.312725" y="96.477663" style="stroke: #000000; stroke-width: 0.5"/>
      </g>
     </g>
    </g>
    <g id="ytick_29">
     <g id="line2d_109">
      <g>
       <use xlink:href="#m5e180ffc6b" x="44.012725" y="94.831485" style="stroke: #000000; stroke-width: 0.5"/>
      </g>
     </g>
     <g id="line2d_110">
      <g>
       <use xlink:href="#m23a2d0c86e" x="239.312725" y="94.831485" style="stroke: #000000; stroke-width: 0.5"/>
      </g>
     </g>
    </g>
    <g id="ytick_30">
     <g id="line2d_111">
      <g>
       <use xlink:href="#m5e180ffc6b" x="44.012725" y="93.439661" style="stroke: #000000; stroke-width: 0.5"/>
      </g>
     </g>
     <g id="line2d_112">
      <g>
       <use xlink:href="#m23a2d0c86e" x="239.312725" y="93.439661" style="stroke: #000000; stroke-width: 0.5"/>
      </g>
     </g>
    </g>
    <g id="ytick_31">
     <g id="line2d_113">
      <g>
       <use xlink:href="#m5e180ffc6b" x="44.012725" y="92.234008" style="stroke: #000000; stroke-width: 0.5"/>
      </g>
     </g>
     <g id="line2d_114">
      <g>
       <use xlink:href="#m23a2d0c86e" x="239.312725" y="92.234008" style="stroke: #000000; stroke-width: 0.5"/>
      </g>
     </g>
    </g>
    <g id="ytick_32">
     <g id="line2d_115">
      <g>
       <use xlink:href="#m5e180ffc6b" x="44.012725" y="91.170547" style="stroke: #000000; stroke-width: 0.5"/>
      </g>
     </g>
     <g id="line2d_116">
      <g>
       <use xlink:href="#m23a2d0c86e" x="239.312725" y="91.170547" style="stroke: #000000; stroke-width: 0.5"/>
      </g>
     </g>
    </g>
    <g id="ytick_33">
     <g id="line2d_117">
      <g>
       <use xlink:href="#m5e180ffc6b" x="44.012725" y="83.960836" style="stroke: #000000; stroke-width: 0.5"/>
      </g>
     </g>
     <g id="line2d_118">
      <g>
       <use xlink:href="#m23a2d0c86e" x="239.312725" y="83.960836" style="stroke: #000000; stroke-width: 0.5"/>
      </g>
     </g>
    </g>
    <g id="ytick_34">
     <g id="line2d_119">
      <g>
       <use xlink:href="#m5e180ffc6b" x="44.012725" y="80.299898" style="stroke: #000000; stroke-width: 0.5"/>
      </g>
     </g>
     <g id="line2d_120">
      <g>
       <use xlink:href="#m23a2d0c86e" x="239.312725" y="80.299898" style="stroke: #000000; stroke-width: 0.5"/>
      </g>
     </g>
    </g>
    <g id="ytick_35">
     <g id="line2d_121">
      <g>
       <use xlink:href="#m5e180ffc6b" x="44.012725" y="77.702422" style="stroke: #000000; stroke-width: 0.5"/>
      </g>
     </g>
     <g id="line2d_122">
      <g>
       <use xlink:href="#m23a2d0c86e" x="239.312725" y="77.702422" style="stroke: #000000; stroke-width: 0.5"/>
      </g>
     </g>
    </g>
    <g id="ytick_36">
     <g id="line2d_123">
      <g>
       <use xlink:href="#m5e180ffc6b" x="44.012725" y="75.687663" style="stroke: #000000; stroke-width: 0.5"/>
      </g>
     </g>
     <g id="line2d_124">
      <g>
       <use xlink:href="#m23a2d0c86e" x="239.312725" y="75.687663" style="stroke: #000000; stroke-width: 0.5"/>
      </g>
     </g>
    </g>
    <g id="ytick_37">
     <g id="line2d_125">
      <g>
       <use xlink:href="#m5e180ffc6b" x="44.012725" y="74.041485" style="stroke: #000000; stroke-width: 0.5"/>
      </g>
     </g>
     <g id="line2d_126">
      <g>
       <use xlink:href="#m23a2d0c86e" x="239.312725" y="74.041485" style="stroke: #000000; stroke-width: 0.5"/>
      </g>
     </g>
    </g>
    <g id="ytick_38">
     <g id="line2d_127">
      <g>
       <use xlink:href="#m5e180ffc6b" x="44.012725" y="72.649661" style="stroke: #000000; stroke-width: 0.5"/>
      </g>
     </g>
     <g id="line2d_128">
      <g>
       <use xlink:href="#m23a2d0c86e" x="239.312725" y="72.649661" style="stroke: #000000; stroke-width: 0.5"/>
      </g>
     </g>
    </g>
    <g id="ytick_39">
     <g id="line2d_129">
      <g>
       <use xlink:href="#m5e180ffc6b" x="44.012725" y="71.444008" style="stroke: #000000; stroke-width: 0.5"/>
      </g>
     </g>
     <g id="line2d_130">
      <g>
       <use xlink:href="#m23a2d0c86e" x="239.312725" y="71.444008" style="stroke: #000000; stroke-width: 0.5"/>
      </g>
     </g>
    </g>
    <g id="ytick_40">
     <g id="line2d_131">
      <g>
       <use xlink:href="#m5e180ffc6b" x="44.012725" y="70.380547" style="stroke: #000000; stroke-width: 0.5"/>
      </g>
     </g>
     <g id="line2d_132">
      <g>
       <use xlink:href="#m23a2d0c86e" x="239.312725" y="70.380547" style="stroke: #000000; stroke-width: 0.5"/>
      </g>
     </g>
    </g>
    <g id="ytick_41">
     <g id="line2d_133">
      <g>
       <use xlink:href="#m5e180ffc6b" x="44.012725" y="63.170836" style="stroke: #000000; stroke-width: 0.5"/>
      </g>
     </g>
     <g id="line2d_134">
      <g>
       <use xlink:href="#m23a2d0c86e" x="239.312725" y="63.170836" style="stroke: #000000; stroke-width: 0.5"/>
      </g>
     </g>
    </g>
    <g id="ytick_42">
     <g id="line2d_135">
      <g>
       <use xlink:href="#m5e180ffc6b" x="44.012725" y="59.509898" style="stroke: #000000; stroke-width: 0.5"/>
      </g>
     </g>
     <g id="line2d_136">
      <g>
       <use xlink:href="#m23a2d0c86e" x="239.312725" y="59.509898" style="stroke: #000000; stroke-width: 0.5"/>
      </g>
     </g>
    </g>
    <g id="ytick_43">
     <g id="line2d_137">
      <g>
       <use xlink:href="#m5e180ffc6b" x="44.012725" y="56.912422" style="stroke: #000000; stroke-width: 0.5"/>
      </g>
     </g>
     <g id="line2d_138">
      <g>
       <use xlink:href="#m23a2d0c86e" x="239.312725" y="56.912422" style="stroke: #000000; stroke-width: 0.5"/>
      </g>
     </g>
    </g>
    <g id="ytick_44">
     <g id="line2d_139">
      <g>
       <use xlink:href="#m5e180ffc6b" x="44.012725" y="54.897663" style="stroke: #000000; stroke-width: 0.5"/>
      </g>
     </g>
     <g id="line2d_140">
      <g>
       <use xlink:href="#m23a2d0c86e" x="239.312725" y="54.897663" style="stroke: #000000; stroke-width: 0.5"/>
      </g>
     </g>
    </g>
    <g id="ytick_45">
     <g id="line2d_141">
      <g>
       <use xlink:href="#m5e180ffc6b" x="44.012725" y="53.251485" style="stroke: #000000; stroke-width: 0.5"/>
      </g>
     </g>
     <g id="line2d_142">
      <g>
       <use xlink:href="#m23a2d0c86e" x="239.312725" y="53.251485" style="stroke: #000000; stroke-width: 0.5"/>
      </g>
     </g>
    </g>
    <g id="ytick_46">
     <g id="line2d_143">
      <g>
       <use xlink:href="#m5e180ffc6b" x="44.012725" y="51.859661" style="stroke: #000000; stroke-width: 0.5"/>
      </g>
     </g>
     <g id="line2d_144">
      <g>
       <use xlink:href="#m23a2d0c86e" x="239.312725" y="51.859661" style="stroke: #000000; stroke-width: 0.5"/>
      </g>
     </g>
    </g>
    <g id="ytick_47">
     <g id="line2d_145">
      <g>
       <use xlink:href="#m5e180ffc6b" x="44.012725" y="50.654008" style="stroke: #000000; stroke-width: 0.5"/>
      </g>
     </g>
     <g id="line2d_146">
      <g>
       <use xlink:href="#m23a2d0c86e" x="239.312725" y="50.654008" style="stroke: #000000; stroke-width: 0.5"/>
      </g>
     </g>
    </g>
    <g id="ytick_48">
     <g id="line2d_147">
      <g>
       <use xlink:href="#m5e180ffc6b" x="44.012725" y="49.590547" style="stroke: #000000; stroke-width: 0.5"/>
      </g>
     </g>
     <g id="line2d_148">
      <g>
       <use xlink:href="#m23a2d0c86e" x="239.312725" y="49.590547" style="stroke: #000000; stroke-width: 0.5"/>
      </g>
     </g>
    </g>
    <g id="ytick_49">
     <g id="line2d_149">
      <g>
       <use xlink:href="#m5e180ffc6b" x="44.012725" y="42.380836" style="stroke: #000000; stroke-width: 0.5"/>
      </g>
     </g>
     <g id="line2d_150">
      <g>
       <use xlink:href="#m23a2d0c86e" x="239.312725" y="42.380836" style="stroke: #000000; stroke-width: 0.5"/>
      </g>
     </g>
    </g>
    <g id="ytick_50">
     <g id="line2d_151">
      <g>
       <use xlink:href="#m5e180ffc6b" x="44.012725" y="38.719898" style="stroke: #000000; stroke-width: 0.5"/>
      </g>
     </g>
     <g id="line2d_152">
      <g>
       <use xlink:href="#m23a2d0c86e" x="239.312725" y="38.719898" style="stroke: #000000; stroke-width: 0.5"/>
      </g>
     </g>
    </g>
    <g id="ytick_51">
     <g id="line2d_153">
      <g>
       <use xlink:href="#m5e180ffc6b" x="44.012725" y="36.122422" style="stroke: #000000; stroke-width: 0.5"/>
      </g>
     </g>
     <g id="line2d_154">
      <g>
       <use xlink:href="#m23a2d0c86e" x="239.312725" y="36.122422" style="stroke: #000000; stroke-width: 0.5"/>
      </g>
     </g>
    </g>
    <g id="ytick_52">
     <g id="line2d_155">
      <g>
       <use xlink:href="#m5e180ffc6b" x="44.012725" y="34.107663" style="stroke: #000000; stroke-width: 0.5"/>
      </g>
     </g>
     <g id="line2d_156">
      <g>
       <use xlink:href="#m23a2d0c86e" x="239.312725" y="34.107663" style="stroke: #000000; stroke-width: 0.5"/>
      </g>
     </g>
    </g>
    <g id="ytick_53">
     <g id="line2d_157">
      <g>
       <use xlink:href="#m5e180ffc6b" x="44.012725" y="32.461485" style="stroke: #000000; stroke-width: 0.5"/>
      </g>
     </g>
     <g id="line2d_158">
      <g>
       <use xlink:href="#m23a2d0c86e" x="239.312725" y="32.461485" style="stroke: #000000; stroke-width: 0.5"/>
      </g>
     </g>
    </g>
    <g id="ytick_54">
     <g id="line2d_159">
      <g>
       <use xlink:href="#m5e180ffc6b" x="44.012725" y="31.069661" style="stroke: #000000; stroke-width: 0.5"/>
      </g>
     </g>
     <g id="line2d_160">
      <g>
       <use xlink:href="#m23a2d0c86e" x="239.312725" y="31.069661" style="stroke: #000000; stroke-width: 0.5"/>
      </g>
     </g>
    </g>
    <g id="ytick_55">
     <g id="line2d_161">
      <g>
       <use xlink:href="#m5e180ffc6b" x="44.012725" y="29.864008" style="stroke: #000000; stroke-width: 0.5"/>
      </g>
     </g>
     <g id="line2d_162">
      <g>
       <use xlink:href="#m23a2d0c86e" x="239.312725" y="29.864008" style="stroke: #000000; stroke-width: 0.5"/>
      </g>
     </g>
    </g>
    <g id="ytick_56">
     <g id="line2d_163">
      <g>
       <use xlink:href="#m5e180ffc6b" x="44.012725" y="28.800547" style="stroke: #000000; stroke-width: 0.5"/>
      </g>
     </g>
     <g id="line2d_164">
      <g>
       <use xlink:href="#m23a2d0c86e" x="239.312725" y="28.800547" style="stroke: #000000; stroke-width: 0.5"/>
      </g>
     </g>
    </g>
    <g id="ytick_57">
     <g id="line2d_165">
      <g>
       <use xlink:href="#m5e180ffc6b" x="44.012725" y="21.590836" style="stroke: #000000; stroke-width: 0.5"/>
      </g>
     </g>
     <g id="line2d_166">
      <g>
       <use xlink:href="#m23a2d0c86e" x="239.312725" y="21.590836" style="stroke: #000000; stroke-width: 0.5"/>
      </g>
     </g>
    </g>
    <g id="ytick_58">
     <g id="line2d_167">
      <g>
       <use xlink:href="#m5e180ffc6b" x="44.012725" y="17.929898" style="stroke: #000000; stroke-width: 0.5"/>
      </g>
     </g>
     <g id="line2d_168">
      <g>
       <use xlink:href="#m23a2d0c86e" x="239.312725" y="17.929898" style="stroke: #000000; stroke-width: 0.5"/>
      </g>
     </g>
    </g>
    <g id="ytick_59">
     <g id="line2d_169">
      <g>
       <use xlink:href="#m5e180ffc6b" x="44.012725" y="15.332422" style="stroke: #000000; stroke-width: 0.5"/>
      </g>
     </g>
     <g id="line2d_170">
      <g>
       <use xlink:href="#m23a2d0c86e" x="239.312725" y="15.332422" style="stroke: #000000; stroke-width: 0.5"/>
      </g>
     </g>
    </g>
    <g id="ytick_60">
     <g id="line2d_171">
      <g>
       <use xlink:href="#m5e180ffc6b" x="44.012725" y="13.317663" style="stroke: #000000; stroke-width: 0.5"/>
      </g>
     </g>
     <g id="line2d_172">
      <g>
       <use xlink:href="#m23a2d0c86e" x="239.312725" y="13.317663" style="stroke: #000000; stroke-width: 0.5"/>
      </g>
     </g>
    </g>
    <g id="ytick_61">
     <g id="line2d_173">
      <g>
       <use xlink:href="#m5e180ffc6b" x="44.012725" y="11.671485" style="stroke: #000000; stroke-width: 0.5"/>
      </g>
     </g>
     <g id="line2d_174">
      <g>
       <use xlink:href="#m23a2d0c86e" x="239.312725" y="11.671485" style="stroke: #000000; stroke-width: 0.5"/>
      </g>
     </g>
    </g>
    <g id="ytick_62">
     <g id="line2d_175">
      <g>
       <use xlink:href="#m5e180ffc6b" x="44.012725" y="10.279661" style="stroke: #000000; stroke-width: 0.5"/>
      </g>
     </g>
     <g id="line2d_176">
      <g>
       <use xlink:href="#m23a2d0c86e" x="239.312725" y="10.279661" style="stroke: #000000; stroke-width: 0.5"/>
      </g>
     </g>
    </g>
    <g id="ytick_63">
     <g id="line2d_177">
      <g>
       <use xlink:href="#m5e180ffc6b" x="44.012725" y="9.074008" style="stroke: #000000; stroke-width: 0.5"/>
      </g>
     </g>
     <g id="line2d_178">
      <g>
       <use xlink:href="#m23a2d0c86e" x="239.312725" y="9.074008" style="stroke: #000000; stroke-width: 0.5"/>
      </g>
     </g>
    </g>
    <g id="ytick_64">
     <g id="line2d_179">
      <g>
       <use xlink:href="#m5e180ffc6b" x="44.012725" y="8.010547" style="stroke: #000000; stroke-width: 0.5"/>
      </g>
     </g>
     <g id="line2d_180">
      <g>
       <use xlink:href="#m23a2d0c86e" x="239.312725" y="8.010547" style="stroke: #000000; stroke-width: 0.5"/>
      </g>
     </g>
    </g>
    <g id="text_14">
     <!-- $FFT$ -->
     <g transform="translate(13.562625 94.985154) rotate(-90) scale(0.144 -0.144)">
      <defs>
       <path id="CMMI12-46" d="M 1901 2055 
L 2515 2055 
C 3002 2055 3040 1946 3040 1761 
C 3040 1678 3027 1589 2995 1448 
C 2982 1423 2976 1391 2976 1378 
C 2976 1333 3002 1308 3046 1308 
C 3098 1308 3104 1333 3130 1435 
L 3501 2935 
C 3501 2961 3482 2999 3437 2999 
C 3379 2999 3373 2974 3347 2863 
C 3213 2376 3085 2240 2528 2240 
L 1946 2240 
L 2362 3926 
C 2419 4154 2432 4154 2694 4154 
L 3552 4154 
C 4352 4154 4467 3918 4467 3464 
C 4467 3426 4467 3285 4448 3119 
C 4442 3094 4429 3011 4429 2985 
C 4429 2934 4461 2915 4499 2915 
C 4544 2915 4570 2941 4582 3055 
L 4717 4174 
C 4717 4195 4730 4263 4730 4277 
C 4730 4352 4672 4352 4557 4352 
L 1523 4352 
C 1402 4352 1338 4352 1338 4229 
C 1338 4154 1382 4154 1491 4154 
C 1888 4154 1888 4113 1888 4050 
C 1888 4018 1882 3992 1862 3922 
L 998 473 
C 941 249 928 185 480 185 
C 358 185 294 185 294 70 
C 294 0 352 0 390 0 
C 512 0 640 0 762 0 
L 1594 0 
C 1734 0 1888 0 2029 0 
C 2086 0 2163 0 2163 115 
C 2163 185 2125 185 1984 185 
C 1478 185 1466 229 1466 324 
C 1466 356 1478 406 1491 449 
L 1901 2055 
z
" transform="scale(0.015625)"/>
       <path id="CMMI12-54" d="M 2669 3910 
C 2707 4064 2720 4121 2816 4147 
C 2867 4160 3078 4160 3213 4160 
C 3853 4160 4154 4134 4154 3634 
C 4154 3537 4128 3295 4090 3057 
L 4083 2980 
C 4083 2954 4109 2916 4147 2916 
C 4211 2916 4211 2948 4230 3050 
L 4416 4184 
C 4429 4243 4429 4256 4429 4275 
C 4429 4345 4390 4345 4262 4345 
L 762 4345 
C 614 4345 608 4339 570 4224 
L 179 3070 
C 173 3056 154 2986 154 2980 
C 154 2948 179 2916 218 2916 
C 269 2916 282 2941 307 3024 
C 576 3801 710 4160 1562 4160 
L 1990 4160 
C 2144 4160 2208 4160 2208 4089 
C 2208 4069 2208 4057 2176 3941 
L 1318 499 
C 1254 249 1242 185 563 185 
C 403 185 358 185 358 64 
C 358 0 429 0 461 0 
C 621 0 787 0 947 0 
L 1946 0 
C 2106 0 2278 0 2438 0 
C 2509 0 2573 0 2573 121 
C 2573 185 2528 185 2362 185 
C 1786 185 1786 243 1786 339 
C 1786 346 1786 391 1811 494 
L 2669 3910 
z
" transform="scale(0.015625)"/>
      </defs>
      <use xlink:href="#CMMI12-46" transform="scale(0.996264)"/>
      <use xlink:href="#CMMI12-46" transform="translate(76.696793 0) scale(0.996264)"/>
      <use xlink:href="#CMMI12-54" transform="translate(153.393585 0) scale(0.996264)"/>
     </g>
    </g>
   </g>
   <g id="line2d_181">
    <path d="M 44.012725 118.712285 
L 44.251129 101.958037 
L 44.489532 97.228505 
L 44.608734 96.621709 
L 44.727935 97.22308 
L 44.966339 103.519011 
L 45.08554 101.318679 
L 45.323944 93.520035 
L 45.443145 92.335665 
L 45.562347 92.283677 
L 46.158355 94.939388 
L 46.396759 96.448402 
L 46.635162 100.929672 
L 46.873565 113.074744 
L 46.992767 119.942302 
L 47.23117 103.910723 
L 47.350372 102.469826 
L 47.469573 103.0934 
L 47.707977 107.161147 
L 48.423187 95.6935 
L 48.542388 95.228697 
L 48.66159 95.502136 
L 48.780792 96.678026 
L 49.019195 102.792426 
L 49.138397 107.999859 
L 49.257598 107.447411 
L 49.496002 102.001172 
L 49.615203 102.227671 
L 49.853607 104.411576 
L 49.972808 104.195133 
L 50.09201 104.788996 
L 50.211212 107.525501 
L 50.449615 116.594879 
L 50.568817 116.22807 
L 50.688018 120.032877 
L 50.80722 118.931468 
L 51.045623 111.774048 
L 51.284027 117.154446 
L 51.52243 110.188979 
L 51.760833 108.020638 
L 51.999237 106.00622 
L 52.23764 110.268489 
L 52.356842 110.021498 
L 52.714447 100.381242 
L 52.833648 106.174666 
L 52.95285 98.715613 
L 53.072052 99.440736 
L 53.548858 65.945281 
L 53.787261 63.007577 
L 53.906463 63.939968 
L 54.144866 71.231713 
L 54.264068 79.003401 
L 54.502471 97.227577 
L 54.621673 99.113224 
L 54.740875 105.934963 
L 54.860076 100.746063 
L 55.09848 103.733788 
L 55.217681 102.888788 
L 55.456085 105.862529 
L 55.575286 105.504911 
L 55.81369 104.79545 
L 55.932891 105.487999 
L 56.290496 110.738564 
L 56.5289 106.486877 
L 56.648101 107.254622 
L 56.886505 111.491675 
L 57.005706 111.664644 
L 57.24411 110.84772 
L 57.363311 111.540368 
L 57.601715 116.803952 
L 57.720916 119.355794 
L 57.840118 119.134329 
L 57.95932 120.850847 
L 58.078521 126.647419 
L 58.436126 112.22292 
L 59.270538 104.243978 
L 59.38974 105.100415 
L 59.866546 111.517421 
L 59.985748 111.426575 
L 60.104949 112.473626 
L 60.343353 119.645688 
L 60.700958 107.90263 
L 60.820159 107.650328 
L 61.058563 110.110031 
L 61.654571 117.931071 
L 61.773773 116.419877 
L 62.012176 109.411091 
L 62.131378 108.468238 
L 62.250579 109.465351 
L 62.369781 113.006203 
L 62.488983 120.600595 
L 62.846588 107.917267 
L 62.965789 107.461234 
L 63.084991 108.791626 
L 63.442596 117.900922 
L 63.561798 116.888085 
L 63.680999 117.951038 
L 63.919403 128.670133 
L 64.038604 127.899265 
L 64.277008 124.384152 
L 64.515411 118.273764 
L 64.634613 117.990783 
L 64.753814 116.804317 
L 65.111419 109.183148 
L 65.230621 109.755042 
L 65.469024 116.267287 
L 65.588226 123.689992 
L 65.707427 148.095753 
L 65.945831 125.499122 
L 66.065032 136.263795 
L 66.303436 113.873372 
L 66.541839 107.074511 
L 66.661041 106.077208 
L 66.780242 106.27416 
L 67.018646 110.377509 
L 67.257049 114.932458 
L 67.495452 114.022306 
L 67.733856 116.311092 
L 67.972259 122.349041 
L 68.091461 126.280678 
L 68.449066 115.958357 
L 68.806671 112.71818 
L 68.925872 113.437604 
L 69.045074 115.420843 
L 69.164276 115.315362 
L 69.521881 106.725156 
L 69.641082 106.538052 
L 69.760284 107.720021 
L 69.998687 114.854733 
L 70.117889 119.760942 
L 70.713897 108.276213 
L 70.833099 109.000097 
L 71.071502 114.500524 
L 71.309906 123.989179 
L 71.429107 122.925085 
L 71.786712 115.930198 
L 72.38272 113.478062 
L 72.501922 114.352512 
L 72.740325 121.625264 
L 72.859527 127.211223 
L 73.217132 112.214012 
L 73.455535 110.294361 
L 73.574737 111.633521 
L 73.932342 117.860913 
L 74.170745 115.475904 
L 74.289947 115.425583 
L 74.52835 117.059634 
L 74.766754 120.398939 
L 75.005157 124.038371 
L 75.362762 113.748575 
L 75.481964 113.13838 
L 75.601165 113.727748 
L 75.839569 117.786626 
L 76.077972 121.29902 
L 76.316375 118.444535 
L 76.435577 118.458007 
L 76.67398 121.479518 
L 76.793182 123.325143 
L 76.912384 123.323815 
L 77.269989 119.420742 
L 77.38919 120.350888 
L 77.627594 123.96725 
L 77.985198 120.461876 
L 78.1044 120.929588 
L 78.342803 122.980256 
L 78.462005 122.66446 
L 79.058013 115.106856 
L 79.177215 115.504693 
L 79.296417 117.036353 
L 79.53482 126.15371 
L 79.654022 139.365794 
L 80.011627 120.76263 
L 80.25003 116.563882 
L 80.369232 116.267235 
L 80.607635 116.865676 
L 80.726837 117.502018 
L 80.96524 121.334733 
L 81.322845 128.50543 
L 81.68045 116.052865 
L 81.799652 115.593973 
L 81.918853 116.627702 
L 82.276458 124.692636 
L 82.39566 122.527616 
L 82.753265 111.740004 
L 82.991668 110.359135 
L 83.11087 111.256227 
L 83.468475 119.017369 
L 83.587677 118.014014 
L 83.706878 116.68137 
L 83.82608 116.896416 
L 84.064483 122.700795 
L 84.302886 128.36894 
L 84.660491 116.469304 
L 84.779693 115.613769 
L 84.898895 116.571908 
L 85.018096 119.628563 
L 85.2565 129.260917 
L 85.494903 121.341504 
L 85.614105 120.604153 
L 85.733306 121.010187 
L 85.97171 123.730649 
L 86.329315 129.32177 
L 86.448516 129.119261 
L 86.806121 124.583742 
L 86.925323 125.989273 
L 87.044525 131.227634 
L 87.163726 143.346299 
L 87.40213 122.869299 
L 87.759735 117.142849 
L 87.998138 115.38201 
L 88.11734 115.284954 
L 88.236541 115.856338 
L 88.713348 120.353067 
L 88.83255 119.242936 
L 89.190155 114.244312 
L 89.309356 114.4654 
L 89.54776 118.445415 
L 89.786163 123.810183 
L 90.143768 119.458815 
L 90.262969 119.414623 
L 90.501373 121.034048 
L 91.097381 127.139003 
L 91.693389 118.460008 
L 91.812591 118.906677 
L 91.931793 120.800583 
L 92.170196 127.630364 
L 92.527801 116.102257 
L 92.647003 115.644587 
L 92.766204 116.560306 
L 93.123809 122.690767 
L 93.481414 120.606608 
L 93.719818 120.316773 
L 93.839019 120.649658 
L 94.315826 124.186011 
L 94.435028 124.185095 
L 94.554229 123.709232 
L 94.911834 118.636273 
L 95.031036 118.508614 
L 95.150238 119.610148 
L 95.507843 126.808795 
L 95.865448 120.291536 
L 96.103851 119.175674 
L 96.223052 119.215787 
L 96.461456 120.125727 
L 96.699859 121.347272 
L 97.057464 125.888102 
L 97.415069 122.025027 
L 97.653472 124.177728 
L 97.772674 124.014607 
L 98.011077 122.733605 
L 98.130279 122.717221 
L 98.368682 120.278965 
L 98.607086 118.968715 
L 98.726287 119.783588 
L 98.964691 124.870917 
L 99.203094 129.261664 
L 99.441497 127.97388 
L 99.799102 123.048613 
L 99.918304 124.905378 
L 100.156707 131.577423 
L 100.395111 124.525481 
L 100.514312 124.423686 
L 100.752716 128.614201 
L 100.991119 132.983804 
L 101.348724 129.14586 
L 101.467926 128.861333 
L 101.587127 129.479052 
L 101.825531 132.579917 
L 102.302337 126.697532 
L 102.421539 126.563581 
L 102.54074 126.735301 
L 102.659942 126.480983 
L 103.25595 117.94912 
L 103.375152 118.754645 
L 103.613555 123.361703 
L 103.851959 131.739586 
L 103.97116 138.460867 
L 104.090362 136.751346 
L 104.328765 126.649638 
L 104.447967 125.152803 
L 104.68637 125.13474 
L 105.163177 118.044948 
L 105.282379 118.894237 
L 105.520782 122.026905 
L 105.639984 121.63729 
L 105.878387 120.755096 
L 106.355194 123.034407 
L 106.474395 124.138566 
L 106.593597 126.664274 
L 106.832 135.079198 
L 107.070404 123.939706 
L 107.428009 119.084669 
L 107.54721 118.577735 
L 107.666412 119.352223 
L 107.785614 121.991222 
L 108.024017 133.653936 
L 108.26242 123.487553 
L 108.500823 121.813494 
L 108.620025 122.448931 
L 108.858428 125.982159 
L 109.096832 129.70605 
L 109.335235 123.961932 
L 109.454437 123.153859 
L 109.573638 123.458832 
L 109.812042 125.415492 
L 110.169647 129.684595 
L 110.288848 129.833953 
L 110.40805 130.802269 
L 110.527252 132.699026 
L 110.646453 130.633838 
L 110.884857 124.405294 
L 111.004058 124.136202 
L 111.242462 127.064579 
L 111.361663 126.581802 
L 111.600067 124.520857 
L 111.719268 125.242313 
L 112.076873 129.105204 
L 112.55368 121.621658 
L 112.672882 122.017888 
L 113.030487 126.497283 
L 113.26889 124.583533 
L 113.388092 124.49671 
L 113.507293 125.47814 
L 113.745697 132.25029 
L 113.864898 138.250425 
L 113.9841 138.1558 
L 114.580108 121.465468 
L 114.69931 122.483451 
L 114.937713 128.560938 
L 115.056915 128.213312 
L 115.176116 127.102028 
L 115.295318 127.736159 
L 115.652923 132.646438 
L 116.010528 126.623834 
L 116.12973 127.040267 
L 116.248931 129.469512 
L 116.487335 143.139399 
L 116.606536 150.091689 
L 116.84494 136.456087 
L 116.964141 138.926484 
L 117.083343 147.584925 
L 117.321746 130.721917 
L 117.440948 129.482986 
L 117.56015 130.72715 
L 117.679351 133.63633 
L 117.798553 133.65546 
L 118.036956 127.01851 
L 118.156158 125.847096 
L 118.27536 126.389672 
L 118.632965 133.526197 
L 118.871368 130.272093 
L 118.99057 130.49552 
L 119.109771 130.399901 
L 119.70578 121.905796 
L 119.824981 121.961725 
L 119.944183 122.805982 
L 120.063385 124.979761 
L 120.182586 129.490175 
L 120.42099 147.392031 
L 120.897796 122.584777 
L 121.016998 120.923251 
L 121.136199 120.83515 
L 121.493804 123.700649 
L 121.732208 123.686076 
L 121.851409 123.949203 
L 121.970611 124.874597 
L 122.209014 130.858323 
L 122.447418 151.195779 
L 122.685821 135.163246 
L 122.805023 133.335659 
L 123.043426 133.706778 
L 123.401031 123.702118 
L 123.520233 124.0239 
L 123.639434 126.712914 
L 123.758636 133.297652 
L 123.877838 157.956284 
L 123.997039 136.763257 
L 124.116241 136.216076 
L 124.235443 145.069241 
L 124.473846 130.491222 
L 124.593048 129.039622 
L 124.712249 130.683245 
L 124.831451 133.990853 
L 124.950653 133.434623 
L 125.069854 131.529716 
L 125.189056 131.491054 
L 125.546661 133.713582 
L 125.665863 133.267851 
L 126.023468 122.369697 
L 126.142669 121.16143 
L 126.261871 121.265224 
L 126.381073 122.788909 
L 126.619476 132.641331 
L 126.738677 139.333364 
L 126.977081 129.824178 
L 127.096282 129.866785 
L 127.215484 132.159189 
L 127.453887 139.687147 
L 128.049896 124.452755 
L 128.169097 124.203189 
L 128.407501 124.932165 
L 128.526702 124.512515 
L 129.003509 120.57667 
L 129.122711 121.350043 
L 129.480316 125.061605 
L 129.718719 123.878848 
L 129.837921 124.417077 
L 130.076324 126.266221 
L 130.195526 126.006222 
L 130.433929 125.075705 
L 130.553131 125.635776 
L 130.791534 129.575514 
L 131.029937 136.018269 
L 132.221954 118.387995 
L 132.341156 119.43446 
L 132.579559 125.921215 
L 132.817962 135.895359 
L 132.937164 135.802729 
L 133.294769 125.543445 
L 133.41397 125.075642 
L 133.533172 126.228737 
L 133.652374 129.447535 
L 133.890777 140.955527 
L 134.009979 137.928391 
L 134.12918 143.697026 
L 134.248382 139.666014 
L 134.486785 125.193212 
L 134.605987 123.677567 
L 134.725189 123.927803 
L 134.963592 127.901011 
L 135.201995 138.847036 
L 135.5596 127.021721 
L 135.678802 128.057992 
L 135.917205 141.820716 
L 136.155609 123.974951 
L 136.394012 121.246768 
L 136.513214 121.429843 
L 136.751617 123.603851 
L 137.109222 130.092061 
L 137.466827 135.203013 
L 137.586029 135.314509 
L 137.824432 131.223342 
L 138.062835 127.32113 
L 138.539642 125.415059 
L 138.658844 125.343058 
L 138.897247 127.713483 
L 139.254852 135.442784 
L 139.374053 139.38349 
L 139.493255 137.693236 
L 139.731658 130.561561 
L 139.970062 128.223191 
L 140.208465 127.6321 
L 140.327667 127.768879 
L 140.446868 128.296373 
L 140.56607 129.510136 
L 140.804473 136.101939 
L 140.923675 141.16754 
L 141.400482 129.582296 
L 141.519683 129.538503 
L 141.638885 130.900717 
L 141.99649 141.709181 
L 142.115692 139.556361 
L 142.473297 128.668884 
L 142.592498 128.331382 
L 142.7117 129.984091 
L 142.950103 139.590628 
L 143.069305 138.467043 
L 143.307708 133.968837 
L 143.42691 133.229876 
L 143.546112 133.460258 
L 143.665313 135.483676 
L 143.903717 151.277547 
L 144.14212 139.836842 
L 144.380523 148.99918 
L 144.618927 132.902271 
L 144.738128 131.666058 
L 144.85733 132.49375 
L 144.976532 135.579303 
L 145.095733 142.016765 
L 145.214935 139.911158 
L 145.453338 128.3276 
L 145.691741 123.321076 
L 145.810943 122.53757 
L 145.930145 123.061557 
L 146.049346 125.202277 
L 146.168548 129.839064 
L 146.28775 141.769978 
L 146.764556 124.125385 
L 146.883758 123.626294 
L 147.00296 124.213528 
L 147.598968 130.504448 
L 147.71817 130.911313 
L 147.956573 134.5246 
L 148.075775 137.038379 
L 148.194976 135.885944 
L 148.552581 128.420921 
L 148.790985 126.888946 
L 148.910186 127.013181 
L 149.506195 129.638207 
L 149.8638 132.093245 
L 149.983001 132.780777 
L 150.221405 137.461481 
L 150.340606 136.952462 
L 150.698211 123.962005 
L 150.936615 121.750024 
L 151.055816 122.456433 
L 151.175018 124.640344 
L 151.294219 128.923469 
L 151.532623 146.567138 
L 151.771026 134.807506 
L 151.890228 135.253388 
L 152.247833 141.538972 
L 152.843841 129.592801 
L 153.082244 129.023652 
L 153.201446 129.202978 
L 153.439849 131.918734 
L 153.559051 130.012006 
L 153.797454 123.671958 
L 153.916656 122.724811 
L 154.035858 123.348489 
L 154.274261 130.306258 
L 154.393463 134.592845 
L 154.631866 130.113639 
L 154.751068 131.432913 
L 154.989471 143.151412 
L 155.227874 132.47825 
L 155.347076 133.827638 
L 155.466278 137.209444 
L 155.823883 131.894299 
L 156.062286 134.760961 
L 156.300689 131.143061 
L 156.539093 132.510246 
L 156.777496 129.785472 
L 156.896698 129.870396 
L 157.015899 132.221093 
L 157.254302 147.918848 
L 157.492706 133.483866 
L 157.611907 133.088532 
L 157.850311 134.345621 
L 158.088714 139.462085 
L 158.207916 141.488304 
L 158.446319 137.063098 
L 158.565521 136.46198 
L 158.684722 136.90752 
L 158.923126 138.475943 
L 159.161529 136.789428 
L 159.280731 137.010442 
L 159.399932 136.019859 
L 159.876739 122.732227 
L 159.995941 121.752669 
L 160.115142 121.864219 
L 160.234344 123.15497 
L 160.472747 129.720285 
L 160.711151 136.166113 
L 160.949554 134.796852 
L 161.068756 135.325738 
L 161.426361 139.046741 
L 161.903167 129.10749 
L 162.022369 130.367604 
L 162.260772 138.273432 
L 162.379974 137.955983 
L 162.499176 137.763149 
L 162.618377 143.492737 
L 162.737579 140.612078 
L 162.975982 127.554429 
L 163.095184 126.22526 
L 163.214386 127.118708 
L 163.452789 135.229465 
L 163.57199 133.886802 
L 163.810394 129.70291 
L 164.167999 128.03415 
L 164.2872 127.841207 
L 164.406402 127.968037 
L 164.525604 128.62142 
L 164.764007 133.158241 
L 165.00241 148.752684 
L 165.121612 146.774715 
L 165.479217 133.975282 
L 165.836822 127.959003 
L 165.956024 128.128271 
L 166.194427 132.97529 
L 166.313629 136.099884 
L 166.43283 135.939906 
L 166.790435 130.040124 
L 166.909637 130.465774 
L 167.028839 132.595857 
L 167.267242 142.1362 
L 167.505645 137.629954 
L 167.624847 138.956488 
L 167.744049 147.394757 
L 167.86325 145.465583 
L 168.101654 136.883011 
L 168.220855 137.999892 
L 168.459259 133.239438 
L 168.57846 133.620972 
L 168.816864 139.317168 
L 169.055267 128.904392 
L 169.174469 128.307469 
L 169.532073 130.614756 
L 169.651275 129.984354 
L 170.00888 125.096348 
L 170.485687 123.489101 
L 170.604888 123.051749 
L 170.72409 123.498807 
L 170.962493 127.770177 
L 171.200897 139.435232 
L 171.320098 147.359249 
L 171.558502 134.275367 
L 171.796905 130.370823 
L 171.916107 129.49451 
L 172.035308 129.481777 
L 172.15451 130.8516 
L 172.273712 134.666952 
L 172.392913 145.150115 
L 172.512115 143.549696 
L 172.750518 136.226533 
L 172.86972 135.268448 
L 173.227325 127.477942 
L 173.346527 128.086581 
L 173.465728 130.780968 
L 173.704132 140.895473 
L 173.942535 132.468475 
L 174.061737 132.011923 
L 174.180938 132.188911 
L 174.30014 131.272588 
L 174.776947 124.712361 
L 174.896148 124.716517 
L 175.134552 125.371635 
L 175.492157 122.734646 
L 175.611358 123.453846 
L 175.849761 127.95949 
L 176.088165 133.012538 
L 176.44577 136.771215 
L 176.803375 129.827889 
L 176.922576 129.817978 
L 177.041778 130.075926 
L 177.16098 129.933233 
L 177.280181 129.539593 
L 177.399383 129.552946 
L 177.518585 130.551408 
L 177.637786 133.145835 
L 177.756988 138.685616 
L 177.87619 153.193372 
L 178.114593 139.915362 
L 178.233795 140.99806 
L 178.472198 150.491403 
L 178.5914 149.03951 
L 178.949005 135.684617 
L 179.30661 129.857151 
L 179.425811 130.709464 
L 179.664215 139.957024 
L 180.02182 133.602919 
L 180.141021 134.999623 
L 180.260223 138.964908 
L 180.379425 147.417528 
L 180.617828 129.237849 
L 180.856231 124.490266 
L 180.975433 124.344069 
L 181.213836 126.863797 
L 181.45224 128.427963 
L 181.690643 127.755764 
L 181.809844 128.800386 
L 182.286651 138.981075 
L 182.525054 134.030951 
L 182.882659 127.311162 
L 183.001861 127.067261 
L 183.121063 128.157978 
L 183.478668 136.871116 
L 183.597869 135.949752 
L 184.074676 130.101858 
L 184.193878 129.169017 
L 184.313079 129.124875 
L 184.551483 131.671487 
L 184.909088 136.041319 
L 185.028289 136.189464 
L 185.385894 131.533967 
L 185.505096 132.740945 
L 185.624298 136.905692 
L 185.743499 149.598743 
L 185.981903 139.807236 
L 186.101104 140.35267 
L 186.220306 143.396412 
L 186.339508 143.146138 
L 186.458709 142.052753 
L 186.577911 145.034888 
L 186.697113 162.699577 
L 186.935516 144.85806 
L 187.054718 152.955222 
L 187.412323 130.165826 
L 187.650726 127.731688 
L 187.769927 128.801899 
L 188.127532 136.990905 
L 188.485137 132.475463 
L 188.604339 132.341552 
L 188.961944 133.971591 
L 189.081146 133.393183 
L 189.557952 126.263166 
L 189.677154 126.566194 
L 189.915557 129.412014 
L 190.273162 135.520457 
L 190.630767 127.480611 
L 190.749969 127.620514 
L 190.988372 132.465695 
L 191.465179 147.705818 
L 191.584381 147.646236 
L 191.703582 148.320871 
L 191.822784 147.996437 
L 192.180389 140.411464 
L 192.299591 140.774293 
L 192.418792 143.942638 
L 192.537994 155.887983 
L 192.895599 136.992948 
L 193.134002 135.476385 
L 193.253204 134.836873 
L 193.610809 130.736934 
L 193.730011 131.39986 
L 193.968414 135.112182 
L 194.326019 130.422491 
L 194.44522 131.50417 
L 194.802825 138.538648 
L 195.041229 132.40915 
L 195.279632 131.176065 
L 195.87564 133.606417 
L 195.994842 133.296691 
L 196.233245 131.606312 
L 196.352447 132.420969 
L 196.948455 142.413666 
L 197.067657 143.628567 
L 197.30606 140.015951 
L 197.544464 145.171126 
L 197.782867 129.852269 
L 198.02127 126.307753 
L 198.140472 126.702154 
L 198.378875 131.271056 
L 198.617279 135.348608 
L 198.73648 136.879141 
L 198.855682 140.847889 
L 198.974884 139.43983 
L 199.213287 131.853737 
L 199.332489 132.38055 
L 199.570892 143.288651 
L 199.809295 133.556922 
L 199.928497 132.938532 
L 200.1669 136.93507 
L 200.286102 135.831812 
L 200.524505 131.918565 
L 200.643707 131.843144 
L 200.88211 133.482425 
L 201.001312 133.306844 
L 201.358917 129.393133 
L 201.478118 129.396962 
L 201.716522 131.321363 
L 201.835723 130.804429 
L 202.074127 129.483671 
L 202.193328 131.027832 
L 202.431732 140.5651 
L 202.550933 140.250323 
L 202.908538 132.995935 
L 203.266143 129.838146 
L 203.385345 129.872864 
L 203.74295 130.973422 
L 204.219757 127.955089 
L 204.338958 128.098908 
L 204.577362 130.396563 
L 204.934967 138.15374 
L 205.17337 148.322691 
L 205.650177 136.29325 
L 205.88858 133.722196 
L 206.007782 132.51937 
L 206.126983 132.856543 
L 206.246185 135.457309 
L 206.365386 141.610682 
L 206.484588 141.814652 
L 206.722991 133.248994 
L 206.842193 132.824915 
L 207.080596 133.957034 
L 207.557403 129.88543 
L 207.676605 130.777621 
L 207.915008 136.200679 
L 208.03421 139.570442 
L 208.153411 139.516876 
L 208.391815 136.870686 
L 208.511016 137.31256 
L 208.868621 141.069835 
L 209.345428 129.778183 
L 209.46463 129.547675 
L 209.583831 130.703339 
L 210.299041 146.438501 
L 210.775848 129.300479 
L 211.014251 126.836587 
L 211.133453 127.873329 
L 211.371856 130.98386 
L 211.729461 126.451019 
L 211.848663 126.788468 
L 212.087066 128.352436 
L 212.206268 128.199556 
L 212.563873 125.67581 
L 212.683074 126.043661 
L 212.802276 127.654595 
L 213.040679 136.947495 
L 213.159881 150.781353 
L 213.279083 149.117256 
L 213.517486 141.681845 
L 213.994293 132.002354 
L 214.471099 124.646273 
L 214.590301 125.082169 
L 214.709503 127.155029 
L 215.067108 140.99029 
L 215.186309 139.925121 
L 215.305511 142.076692 
L 215.543914 128.622254 
L 215.782318 125.259043 
L 215.901519 125.953314 
L 216.378326 133.53942 
L 216.497528 133.006834 
L 216.855133 129.926961 
L 216.974334 129.950209 
L 217.093536 131.149738 
L 217.331939 139.235975 
L 217.451141 145.285814 
L 217.808746 133.292213 
L 217.927948 132.900811 
L 218.047149 134.728948 
L 218.166351 139.923479 
L 218.285552 150.362963 
L 218.523956 137.371548 
L 219.119964 128.756809 
L 219.239166 128.409691 
L 219.358367 128.694162 
L 219.596771 130.399446 
L 219.835174 134.030829 
L 220.073577 142.19579 
L 220.431182 131.434272 
L 220.550384 131.279508 
L 220.669586 132.940702 
L 221.027191 143.524729 
L 221.265594 138.074325 
L 221.384796 137.844761 
L 221.503997 139.989219 
L 221.742401 153.354547 
L 221.980804 144.449667 
L 222.100006 148.643958 
L 222.219207 147.596681 
L 222.457611 138.399385 
L 222.576812 137.095244 
L 222.696014 137.06327 
L 222.815216 137.678964 
L 222.934417 136.908943 
L 223.411224 127.747285 
L 223.530426 127.191437 
L 223.649627 127.252813 
L 223.768829 127.978365 
L 223.888031 129.674124 
L 224.007232 133.07622 
L 224.245636 147.458656 
L 224.364837 140.854331 
L 224.484039 141.082015 
L 224.60324 149.945377 
L 224.722442 146.394389 
L 224.960845 137.192361 
L 225.080047 138.503731 
L 225.31845 145.895398 
L 225.437652 146.115455 
L 225.676055 149.906078 
L 226.03366 138.3012 
L 226.152862 138.334055 
L 226.272064 140.478328 
L 226.510467 149.743022 
L 226.868072 133.256926 
L 227.106475 130.075784 
L 227.225677 130.266607 
L 227.46408 134.259477 
L 227.702484 138.568813 
L 228.17929 129.885699 
L 228.298492 129.865172 
L 228.417694 131.13252 
L 228.536895 134.257181 
L 228.775299 143.182774 
L 229.013702 134.652148 
L 229.132904 134.467601 
L 229.252105 134.793289 
L 229.60971 131.097519 
L 229.728912 131.510346 
L 230.205719 138.276386 
L 230.682525 131.257081 
L 230.801727 131.847277 
L 231.04013 137.193064 
L 231.397735 155.700447 
L 231.636138 141.063462 
L 231.75534 140.002418 
L 232.112945 141.235266 
L 232.232147 143.16268 
L 232.351348 149.110966 
L 232.47055 148.938837 
L 232.708953 138.306297 
L 232.828155 137.336634 
L 232.947357 137.806013 
L 233.18576 142.532026 
L 233.304962 144.748265 
L 233.662567 130.492481 
L 233.781768 129.162168 
L 233.90097 129.295854 
L 234.020172 130.837558 
L 234.258575 138.760258 
L 234.61618 165.855591 
L 234.973785 138.465957 
L 235.212188 133.697728 
L 235.33139 133.137927 
L 235.450592 133.311194 
L 235.569793 133.724917 
L 235.688995 133.684202 
L 236.165802 129.727243 
L 236.285003 129.770878 
L 236.404205 130.5203 
L 236.642608 134.663487 
L 237.238616 151.080903 
L 237.357818 151.714618 
L 237.834625 134.124675 
L 238.073028 131.821408 
L 238.19223 133.007398 
L 238.430633 141.16927 
L 238.549835 140.565491 
L 238.788238 132.622675 
L 239.026641 130.106879 
L 239.145843 130.171467 
L 239.265045 129.984642 
L 239.384246 128.9895 
L 239.384246 128.9895 
" clip-path="url(#pa6b7d1af28)" style="fill: none; stroke: #4477aa; stroke-linecap: square"/>
   </g>
   <g id="patch_3">
    <path d="M 44.012725 152.589249 
L 44.012725 7.059249 
" style="fill: none; stroke: #000000; stroke-width: 0.5; stroke-linejoin: miter; stroke-linecap: square"/>
   </g>
   <g id="patch_4">
    <path d="M 239.312725 152.589249 
L 239.312725 7.059249 
" style="fill: none; stroke: #000000; stroke-width: 0.5; stroke-linejoin: miter; stroke-linecap: square"/>
   </g>
   <g id="patch_5">
    <path d="M 44.012725 152.589249 
L 239.312725 152.589249 
" style="fill: none; stroke: #000000; stroke-width: 0.5; stroke-linejoin: miter; stroke-linecap: square"/>
   </g>
   <g id="patch_6">
    <path d="M 44.012725 7.059249 
L 239.312725 7.059249 
" style="fill: none; stroke: #000000; stroke-width: 0.5; stroke-linejoin: miter; stroke-linecap: square"/>
   </g>
  </g>
 </g>
 <defs>
  <clipPath id="pa6b7d1af28">
   <rect x="44.012725" y="7.059249" width="195.3" height="145.53"/>
  </clipPath>
 </defs>
</svg>
