<?xml version="1.0" encoding="utf-8" standalone="no"?>
<!DOCTYPE svg PUBLIC "-//W3C//DTD SVG 1.1//EN"
  "http://www.w3.org/Graphics/SVG/1.1/DTD/svg11.dtd">
<svg xmlns:xlink="http://www.w3.org/1999/xlink" width="250.404133pt" height="179.048317pt" viewBox="0 0 250.404133 179.048317" xmlns="http://www.w3.org/2000/svg" version="1.1">
 <metadata>
  <rdf:RDF xmlns:dc="http://purl.org/dc/elements/1.1/" xmlns:cc="http://creativecommons.org/ns#" xmlns:rdf="http://www.w3.org/1999/02/22-rdf-syntax-ns#">
   <cc:Work>
    <dc:type rdf:resource="http://purl.org/dc/dcmitype/StillImage"/>
    <dc:date>2025-10-07T15:15:01.145206</dc:date>
    <dc:format>image/svg+xml</dc:format>
    <dc:creator>
     <cc:Agent>
      <dc:title>Matplotlib v3.10.1, https://matplotlib.org/</dc:title>
     </cc:Agent>
    </dc:creator>
   </cc:Work>
  </rdf:RDF>
 </metadata>
 <defs>
  <style type="text/css">*{stroke-linejoin: round; stroke-linecap: butt}</style>
 </defs>
 <g id="figure_1">
  <g id="patch_1">
   <path d="M 0 179.048317 
L 250.404133 179.048317 
L 250.404133 0 
L 0 0 
L 0 179.048317 
z
" style="fill: none"/>
  </g>
  <g id="axes_1">
   <g id="patch_2">
    <path d="M 51.504133 149.13 
L 246.804133 149.13 
L 246.804133 3.6 
L 51.504133 3.6 
L 51.504133 149.13 
z
" style="fill: none"/>
   </g>
   <g id="matplotlib.axis_1">
    <g id="xtick_1">
     <g id="line2d_1">
      <path d="M 60.381406 149.13 
L 60.381406 3.6 
" clip-path="url(#pecb0df9970)" style="fill: none; stroke-dasharray: 1.85,0.8; stroke-dashoffset: 0; stroke: #000000; stroke-opacity: 0.5; stroke-width: 0.5"/>
     </g>
     <g id="line2d_2">
      <defs>
       <path id="m7c13727f1b" d="M 0 0 
L 0 -3 
" style="stroke: #000000; stroke-width: 0.5"/>
      </defs>
      <g>
       <use xlink:href="#m7c13727f1b" x="60.381406" y="149.13" style="stroke: #000000; stroke-width: 0.5"/>
      </g>
     </g>
     <g id="line2d_3">
      <defs>
       <path id="m8eb5ccc6fa" d="M 0 0 
L 0 3 
" style="stroke: #000000; stroke-width: 0.5"/>
      </defs>
      <g>
       <use xlink:href="#m8eb5ccc6fa" x="60.381406" y="3.6" style="stroke: #000000; stroke-width: 0.5"/>
      </g>
     </g>
     <g id="text_1">
      <!-- $\mathdefault{−20}$ -->
      <g transform="translate(51.525699 159.548498) scale(0.1 -0.1)">
       <defs>
        <path id="CMSY10-0" d="M 4218 1472 
C 4326 1472 4442 1472 4442 1600 
C 4442 1728 4326 1728 4218 1728 
L 755 1728 
C 646 1728 531 1728 531 1600 
C 531 1472 646 1472 755 1472 
L 4218 1472 
z
" transform="scale(0.015625)"/>
        <path id="CMR17-32" d="M 2669 989 
L 2554 989 
C 2490 536 2438 459 2413 420 
C 2381 369 1920 369 1830 369 
L 602 369 
C 832 619 1280 1072 1824 1597 
C 2214 1967 2669 2402 2669 3035 
C 2669 3790 2067 4224 1395 4224 
C 691 4224 262 3604 262 3030 
C 262 2780 448 2748 525 2748 
C 589 2748 781 2787 781 3010 
C 781 3207 614 3264 525 3264 
C 486 3264 448 3258 422 3245 
C 544 3790 915 4058 1306 4058 
C 1862 4058 2227 3617 2227 3035 
C 2227 2479 1901 2000 1536 1584 
L 262 146 
L 262 0 
L 2515 0 
L 2669 989 
z
" transform="scale(0.015625)"/>
        <path id="CMR17-30" d="M 2688 2025 
C 2688 2416 2682 3080 2413 3591 
C 2176 4039 1798 4198 1466 4198 
C 1158 4198 768 4058 525 3597 
C 269 3118 243 2524 243 2025 
C 243 1661 250 1106 448 619 
C 723 -39 1216 -128 1466 -128 
C 1760 -128 2208 -7 2470 600 
C 2662 1042 2688 1559 2688 2025 
z
M 1466 -26 
C 1056 -26 813 325 723 812 
C 653 1188 653 1738 653 2096 
C 653 2588 653 2997 736 3387 
C 858 3929 1216 4096 1466 4096 
C 1728 4096 2067 3923 2189 3400 
C 2272 3036 2278 2607 2278 2096 
C 2278 1680 2278 1169 2202 792 
C 2067 95 1690 -26 1466 -26 
z
" transform="scale(0.015625)"/>
       </defs>
       <use xlink:href="#CMSY10-0" transform="scale(0.996264)"/>
       <use xlink:href="#CMR17-32" transform="translate(77.487468 0) scale(0.996264)"/>
       <use xlink:href="#CMR17-30" transform="translate(123.177945 0) scale(0.996264)"/>
      </g>
     </g>
    </g>
    <g id="xtick_2">
     <g id="line2d_4">
      <path d="M 104.76777 149.13 
L 104.76777 3.6 
" clip-path="url(#pecb0df9970)" style="fill: none; stroke-dasharray: 1.85,0.8; stroke-dashoffset: 0; stroke: #000000; stroke-opacity: 0.5; stroke-width: 0.5"/>
     </g>
     <g id="line2d_5">
      <g>
       <use xlink:href="#m7c13727f1b" x="104.76777" y="149.13" style="stroke: #000000; stroke-width: 0.5"/>
      </g>
     </g>
     <g id="line2d_6">
      <g>
       <use xlink:href="#m8eb5ccc6fa" x="104.76777" y="3.6" style="stroke: #000000; stroke-width: 0.5"/>
      </g>
     </g>
     <g id="text_2">
      <!-- $\mathdefault{−10}$ -->
      <g transform="translate(95.912063 159.548498) scale(0.1 -0.1)">
       <defs>
        <path id="CMR17-31" d="M 1702 4058 
C 1702 4192 1696 4192 1606 4192 
C 1357 3916 979 3827 621 3827 
C 602 3827 570 3827 563 3808 
C 557 3795 557 3782 557 3648 
C 755 3648 1088 3686 1344 3839 
L 1344 461 
C 1344 236 1331 160 781 160 
L 589 160 
L 589 0 
C 896 0 1216 0 1523 0 
C 1830 0 2150 0 2458 0 
L 2458 160 
L 2266 160 
C 1715 160 1702 230 1702 458 
L 1702 4058 
z
" transform="scale(0.015625)"/>
       </defs>
       <use xlink:href="#CMSY10-0" transform="scale(0.996264)"/>
       <use xlink:href="#CMR17-31" transform="translate(77.487468 0) scale(0.996264)"/>
       <use xlink:href="#CMR17-30" transform="translate(123.177945 0) scale(0.996264)"/>
      </g>
     </g>
    </g>
    <g id="xtick_3">
     <g id="line2d_7">
      <path d="M 149.154133 149.13 
L 149.154133 3.6 
" clip-path="url(#pecb0df9970)" style="fill: none; stroke-dasharray: 1.85,0.8; stroke-dashoffset: 0; stroke: #000000; stroke-opacity: 0.5; stroke-width: 0.5"/>
     </g>
     <g id="line2d_8">
      <g>
       <use xlink:href="#m7c13727f1b" x="149.154133" y="149.13" style="stroke: #000000; stroke-width: 0.5"/>
      </g>
     </g>
     <g id="line2d_9">
      <g>
       <use xlink:href="#m8eb5ccc6fa" x="149.154133" y="3.6" style="stroke: #000000; stroke-width: 0.5"/>
      </g>
     </g>
     <g id="text_3">
      <!-- $\mathdefault{0}$ -->
      <g transform="translate(146.663466 159.548498) scale(0.1 -0.1)">
       <use xlink:href="#CMR17-30" transform="scale(0.996264)"/>
      </g>
     </g>
    </g>
    <g id="xtick_4">
     <g id="line2d_10">
      <path d="M 193.540497 149.13 
L 193.540497 3.6 
" clip-path="url(#pecb0df9970)" style="fill: none; stroke-dasharray: 1.85,0.8; stroke-dashoffset: 0; stroke: #000000; stroke-opacity: 0.5; stroke-width: 0.5"/>
     </g>
     <g id="line2d_11">
      <g>
       <use xlink:href="#m7c13727f1b" x="193.540497" y="149.13" style="stroke: #000000; stroke-width: 0.5"/>
      </g>
     </g>
     <g id="line2d_12">
      <g>
       <use xlink:href="#m8eb5ccc6fa" x="193.540497" y="3.6" style="stroke: #000000; stroke-width: 0.5"/>
      </g>
     </g>
     <g id="text_4">
      <!-- $\mathdefault{10}$ -->
      <g transform="translate(188.559162 159.548498) scale(0.1 -0.1)">
       <use xlink:href="#CMR17-31" transform="scale(0.996264)"/>
       <use xlink:href="#CMR17-30" transform="translate(45.690477 0) scale(0.996264)"/>
      </g>
     </g>
    </g>
    <g id="xtick_5">
     <g id="line2d_13">
      <path d="M 237.926861 149.13 
L 237.926861 3.6 
" clip-path="url(#pecb0df9970)" style="fill: none; stroke-dasharray: 1.85,0.8; stroke-dashoffset: 0; stroke: #000000; stroke-opacity: 0.5; stroke-width: 0.5"/>
     </g>
     <g id="line2d_14">
      <g>
       <use xlink:href="#m7c13727f1b" x="237.926861" y="149.13" style="stroke: #000000; stroke-width: 0.5"/>
      </g>
     </g>
     <g id="line2d_15">
      <g>
       <use xlink:href="#m8eb5ccc6fa" x="237.926861" y="3.6" style="stroke: #000000; stroke-width: 0.5"/>
      </g>
     </g>
     <g id="text_5">
      <!-- $\mathdefault{20}$ -->
      <g transform="translate(232.945525 159.548498) scale(0.1 -0.1)">
       <use xlink:href="#CMR17-32" transform="scale(0.996264)"/>
       <use xlink:href="#CMR17-30" transform="translate(45.690477 0) scale(0.996264)"/>
      </g>
     </g>
    </g>
    <g id="xtick_6">
     <g id="line2d_16">
      <defs>
       <path id="md9348a7989" d="M 0 0 
L 0 -1.5 
" style="stroke: #000000; stroke-width: 0.5"/>
      </defs>
      <g>
       <use xlink:href="#md9348a7989" x="51.504133" y="149.13" style="stroke: #000000; stroke-width: 0.5"/>
      </g>
     </g>
     <g id="line2d_17">
      <defs>
       <path id="m7216c8003b" d="M 0 0 
L 0 1.5 
" style="stroke: #000000; stroke-width: 0.5"/>
      </defs>
      <g>
       <use xlink:href="#m7216c8003b" x="51.504133" y="3.6" style="stroke: #000000; stroke-width: 0.5"/>
      </g>
     </g>
    </g>
    <g id="xtick_7">
     <g id="line2d_18">
      <g>
       <use xlink:href="#md9348a7989" x="69.258679" y="149.13" style="stroke: #000000; stroke-width: 0.5"/>
      </g>
     </g>
     <g id="line2d_19">
      <g>
       <use xlink:href="#m7216c8003b" x="69.258679" y="3.6" style="stroke: #000000; stroke-width: 0.5"/>
      </g>
     </g>
    </g>
    <g id="xtick_8">
     <g id="line2d_20">
      <g>
       <use xlink:href="#md9348a7989" x="78.135951" y="149.13" style="stroke: #000000; stroke-width: 0.5"/>
      </g>
     </g>
     <g id="line2d_21">
      <g>
       <use xlink:href="#m7216c8003b" x="78.135951" y="3.6" style="stroke: #000000; stroke-width: 0.5"/>
      </g>
     </g>
    </g>
    <g id="xtick_9">
     <g id="line2d_22">
      <g>
       <use xlink:href="#md9348a7989" x="87.013224" y="149.13" style="stroke: #000000; stroke-width: 0.5"/>
      </g>
     </g>
     <g id="line2d_23">
      <g>
       <use xlink:href="#m7216c8003b" x="87.013224" y="3.6" style="stroke: #000000; stroke-width: 0.5"/>
      </g>
     </g>
    </g>
    <g id="xtick_10">
     <g id="line2d_24">
      <g>
       <use xlink:href="#md9348a7989" x="95.890497" y="149.13" style="stroke: #000000; stroke-width: 0.5"/>
      </g>
     </g>
     <g id="line2d_25">
      <g>
       <use xlink:href="#m7216c8003b" x="95.890497" y="3.6" style="stroke: #000000; stroke-width: 0.5"/>
      </g>
     </g>
    </g>
    <g id="xtick_11">
     <g id="line2d_26">
      <g>
       <use xlink:href="#md9348a7989" x="113.645042" y="149.13" style="stroke: #000000; stroke-width: 0.5"/>
      </g>
     </g>
     <g id="line2d_27">
      <g>
       <use xlink:href="#m7216c8003b" x="113.645042" y="3.6" style="stroke: #000000; stroke-width: 0.5"/>
      </g>
     </g>
    </g>
    <g id="xtick_12">
     <g id="line2d_28">
      <g>
       <use xlink:href="#md9348a7989" x="122.522315" y="149.13" style="stroke: #000000; stroke-width: 0.5"/>
      </g>
     </g>
     <g id="line2d_29">
      <g>
       <use xlink:href="#m7216c8003b" x="122.522315" y="3.6" style="stroke: #000000; stroke-width: 0.5"/>
      </g>
     </g>
    </g>
    <g id="xtick_13">
     <g id="line2d_30">
      <g>
       <use xlink:href="#md9348a7989" x="131.399588" y="149.13" style="stroke: #000000; stroke-width: 0.5"/>
      </g>
     </g>
     <g id="line2d_31">
      <g>
       <use xlink:href="#m7216c8003b" x="131.399588" y="3.6" style="stroke: #000000; stroke-width: 0.5"/>
      </g>
     </g>
    </g>
    <g id="xtick_14">
     <g id="line2d_32">
      <g>
       <use xlink:href="#md9348a7989" x="140.276861" y="149.13" style="stroke: #000000; stroke-width: 0.5"/>
      </g>
     </g>
     <g id="line2d_33">
      <g>
       <use xlink:href="#m7216c8003b" x="140.276861" y="3.6" style="stroke: #000000; stroke-width: 0.5"/>
      </g>
     </g>
    </g>
    <g id="xtick_15">
     <g id="line2d_34">
      <g>
       <use xlink:href="#md9348a7989" x="158.031406" y="149.13" style="stroke: #000000; stroke-width: 0.5"/>
      </g>
     </g>
     <g id="line2d_35">
      <g>
       <use xlink:href="#m7216c8003b" x="158.031406" y="3.6" style="stroke: #000000; stroke-width: 0.5"/>
      </g>
     </g>
    </g>
    <g id="xtick_16">
     <g id="line2d_36">
      <g>
       <use xlink:href="#md9348a7989" x="166.908679" y="149.13" style="stroke: #000000; stroke-width: 0.5"/>
      </g>
     </g>
     <g id="line2d_37">
      <g>
       <use xlink:href="#m7216c8003b" x="166.908679" y="3.6" style="stroke: #000000; stroke-width: 0.5"/>
      </g>
     </g>
    </g>
    <g id="xtick_17">
     <g id="line2d_38">
      <g>
       <use xlink:href="#md9348a7989" x="175.785951" y="149.13" style="stroke: #000000; stroke-width: 0.5"/>
      </g>
     </g>
     <g id="line2d_39">
      <g>
       <use xlink:href="#m7216c8003b" x="175.785951" y="3.6" style="stroke: #000000; stroke-width: 0.5"/>
      </g>
     </g>
    </g>
    <g id="xtick_18">
     <g id="line2d_40">
      <g>
       <use xlink:href="#md9348a7989" x="184.663224" y="149.13" style="stroke: #000000; stroke-width: 0.5"/>
      </g>
     </g>
     <g id="line2d_41">
      <g>
       <use xlink:href="#m7216c8003b" x="184.663224" y="3.6" style="stroke: #000000; stroke-width: 0.5"/>
      </g>
     </g>
    </g>
    <g id="xtick_19">
     <g id="line2d_42">
      <g>
       <use xlink:href="#md9348a7989" x="202.41777" y="149.13" style="stroke: #000000; stroke-width: 0.5"/>
      </g>
     </g>
     <g id="line2d_43">
      <g>
       <use xlink:href="#m7216c8003b" x="202.41777" y="3.6" style="stroke: #000000; stroke-width: 0.5"/>
      </g>
     </g>
    </g>
    <g id="xtick_20">
     <g id="line2d_44">
      <g>
       <use xlink:href="#md9348a7989" x="211.295042" y="149.13" style="stroke: #000000; stroke-width: 0.5"/>
      </g>
     </g>
     <g id="line2d_45">
      <g>
       <use xlink:href="#m7216c8003b" x="211.295042" y="3.6" style="stroke: #000000; stroke-width: 0.5"/>
      </g>
     </g>
    </g>
    <g id="xtick_21">
     <g id="line2d_46">
      <g>
       <use xlink:href="#md9348a7989" x="220.172315" y="149.13" style="stroke: #000000; stroke-width: 0.5"/>
      </g>
     </g>
     <g id="line2d_47">
      <g>
       <use xlink:href="#m7216c8003b" x="220.172315" y="3.6" style="stroke: #000000; stroke-width: 0.5"/>
      </g>
     </g>
    </g>
    <g id="xtick_22">
     <g id="line2d_48">
      <g>
       <use xlink:href="#md9348a7989" x="229.049588" y="149.13" style="stroke: #000000; stroke-width: 0.5"/>
      </g>
     </g>
     <g id="line2d_49">
      <g>
       <use xlink:href="#m7216c8003b" x="229.049588" y="3.6" style="stroke: #000000; stroke-width: 0.5"/>
      </g>
     </g>
    </g>
    <g id="xtick_23">
     <g id="line2d_50">
      <g>
       <use xlink:href="#md9348a7989" x="246.804133" y="149.13" style="stroke: #000000; stroke-width: 0.5"/>
      </g>
     </g>
     <g id="line2d_51">
      <g>
       <use xlink:href="#m7216c8003b" x="246.804133" y="3.6" style="stroke: #000000; stroke-width: 0.5"/>
      </g>
     </g>
    </g>
    <g id="text_6">
     <!-- $U$ [mV] -->
     <g transform="translate(132.894953 172.957657) scale(0.1 -0.1)">
      <defs>
       <path id="CMMI12-55" d="M 3238 1474 
C 3014 581 2272 57 1670 57 
C 1210 57 896 363 896 891 
C 896 916 896 1107 966 1387 
L 1594 3887 
C 1651 4103 1664 4167 2118 4167 
C 2234 4167 2298 4167 2298 4282 
C 2298 4352 2240 4352 2202 4352 
C 2086 4352 1952 4352 1830 4352 
L 1075 4352 
C 954 4352 819 4352 698 4352 
C 653 4352 576 4352 576 4231 
C 576 4167 621 4167 742 4167 
C 1126 4167 1126 4116 1126 4046 
C 1126 4008 1082 3824 1050 3715 
L 493 1488 
C 474 1418 435 1246 435 1075 
C 435 374 941 -128 1638 -128 
C 2285 -128 3002 384 3328 1197 
C 3373 1305 3430 1530 3469 1702 
C 3533 1933 3667 2496 3712 2662 
L 3955 3623 
C 4038 3956 4090 4167 4653 4167 
C 4704 4173 4730 4224 4730 4282 
C 4730 4352 4672 4352 4646 4352 
C 4557 4352 4442 4352 4352 4352 
L 4051 4352 
C 3654 4352 3450 4352 3443 4352 
C 3405 4352 3328 4352 3328 4231 
C 3328 4167 3379 4167 3424 4167 
C 3808 4167 3834 4020 3834 3905 
C 3834 3848 3834 3828 3808 3739 
L 3238 1474 
z
" transform="scale(0.015625)"/>
       <path id="CMR17-5b" d="M 1504 -1600 
L 1504 -1377 
L 902 -1377 
L 902 4544 
L 1504 4544 
L 1504 4767 
L 678 4767 
L 678 -1600 
L 1504 -1600 
z
" transform="scale(0.015625)"/>
       <path id="CMR17-6d" d="M 4326 1933 
C 4326 2252 4269 2790 3507 2790 
C 3072 2790 2771 2496 2656 2151 
L 2650 2151 
C 2573 2676 2195 2790 1837 2790 
C 1331 2790 1069 2400 973 2144 
L 966 2144 
L 966 2790 
L 211 2720 
L 211 2554 
C 589 2554 646 2515 646 2208 
L 646 428 
C 646 184 621 153 211 153 
L 211 -13 
C 365 0 646 0 813 0 
C 979 0 1267 0 1421 -13 
L 1421 153 
C 1011 153 986 178 986 428 
L 986 1658 
C 986 2247 1344 2688 1792 2688 
C 2266 2688 2317 2266 2317 1958 
L 2317 428 
C 2317 184 2291 153 1882 153 
L 1882 -13 
C 2035 0 2317 0 2483 0 
C 2650 0 2938 0 3091 -13 
L 3091 153 
C 2682 153 2656 178 2656 428 
L 2656 1658 
C 2656 2247 3014 2688 3462 2688 
C 3936 2688 3987 2266 3987 1958 
L 3987 428 
C 3987 184 3962 153 3552 153 
L 3552 -13 
C 3706 0 3987 0 4154 0 
C 4320 0 4608 0 4762 -13 
L 4762 153 
C 4352 153 4326 178 4326 428 
L 4326 1933 
z
" transform="scale(0.015625)"/>
       <path id="CMR17-56" d="M 3776 3745 
C 3834 3886 3936 4160 4365 4160 
L 4365 4332 
C 4218 4319 4051 4319 3891 4319 
C 3738 4319 3475 4319 3328 4332 
L 3328 4160 
C 3648 4160 3661 3936 3661 3898 
C 3661 3827 3642 3783 3622 3732 
L 2362 446 
L 1043 3886 
C 1024 3931 1011 3963 1011 3994 
C 1011 4160 1267 4160 1402 4160 
L 1402 4319 
C 1197 4319 896 4319 685 4319 
C 518 4319 218 4319 64 4332 
L 64 4160 
C 435 4160 506 4135 582 3931 
L 2106 -26 
C 2138 -115 2144 -128 2214 -128 
C 2285 -128 2291 -115 2323 -26 
L 3776 3745 
z
" transform="scale(0.015625)"/>
       <path id="CMR17-5d" d="M 915 4767 
L 90 4767 
L 90 4544 
L 691 4544 
L 691 -1377 
L 90 -1377 
L 90 -1600 
L 915 -1600 
L 915 4767 
z
" transform="scale(0.015625)"/>
      </defs>
      <use xlink:href="#CMMI12-55" transform="scale(0.996264)"/>
      <use xlink:href="#CMR17-5b" transform="translate(106.734739 0) scale(0.996264)"/>
      <use xlink:href="#CMR17-6d" transform="translate(131.605798 0) scale(0.996264)"/>
      <use xlink:href="#CMR17-56" transform="translate(208.525388 0) scale(0.996264)"/>
      <use xlink:href="#CMR17-5d" transform="translate(277.597817 0) scale(0.996264)"/>
     </g>
    </g>
   </g>
   <g id="matplotlib.axis_2">
    <g id="ytick_1">
     <g id="line2d_52">
      <path d="M 51.504133 132.591681 
L 246.804133 132.591681 
" clip-path="url(#pecb0df9970)" style="fill: none; stroke-dasharray: 1.85,0.8; stroke-dashoffset: 0; stroke: #000000; stroke-opacity: 0.5; stroke-width: 0.5"/>
     </g>
     <g id="line2d_53">
      <defs>
       <path id="m173b88a272" d="M 0 0 
L 3 0 
" style="stroke: #000000; stroke-width: 0.5"/>
      </defs>
      <g>
       <use xlink:href="#m173b88a272" x="51.504133" y="132.591681" style="stroke: #000000; stroke-width: 0.5"/>
      </g>
     </g>
     <g id="line2d_54">
      <defs>
       <path id="m5b8efc45b1" d="M 0 0 
L -3 0 
" style="stroke: #000000; stroke-width: 0.5"/>
      </defs>
      <g>
       <use xlink:href="#m5b8efc45b1" x="246.804133" y="132.591681" style="stroke: #000000; stroke-width: 0.5"/>
      </g>
     </g>
     <g id="text_7">
      <!-- $\mathdefault{−0.010}$ -->
      <g transform="translate(17.56264 136.05093) scale(0.1 -0.1)">
       <defs>
        <path id="CMMI12-3a" d="M 1178 307 
C 1178 492 1024 619 870 619 
C 685 619 557 466 557 313 
C 557 128 710 0 864 0 
C 1050 0 1178 153 1178 307 
z
" transform="scale(0.015625)"/>
       </defs>
       <use xlink:href="#CMSY10-0" transform="scale(0.996264)"/>
       <use xlink:href="#CMR17-30" transform="translate(77.487468 0) scale(0.996264)"/>
       <use xlink:href="#CMMI12-3a" transform="translate(123.177945 0) scale(0.996264)"/>
       <use xlink:href="#CMR17-30" transform="translate(150.275122 0) scale(0.996264)"/>
       <use xlink:href="#CMR17-31" transform="translate(195.965599 0) scale(0.996264)"/>
       <use xlink:href="#CMR17-30" transform="translate(241.656076 0) scale(0.996264)"/>
      </g>
     </g>
    </g>
    <g id="ytick_2">
     <g id="line2d_55">
      <path d="M 51.504133 106.516569 
L 246.804133 106.516569 
" clip-path="url(#pecb0df9970)" style="fill: none; stroke-dasharray: 1.85,0.8; stroke-dashoffset: 0; stroke: #000000; stroke-opacity: 0.5; stroke-width: 0.5"/>
     </g>
     <g id="line2d_56">
      <g>
       <use xlink:href="#m173b88a272" x="51.504133" y="106.516569" style="stroke: #000000; stroke-width: 0.5"/>
      </g>
     </g>
     <g id="line2d_57">
      <g>
       <use xlink:href="#m5b8efc45b1" x="246.804133" y="106.516569" style="stroke: #000000; stroke-width: 0.5"/>
      </g>
     </g>
     <g id="text_8">
      <!-- $\mathdefault{−0.005}$ -->
      <g transform="translate(17.56264 109.975818) scale(0.1 -0.1)">
       <defs>
        <path id="CMR17-35" d="M 730 3692 
C 794 3666 1056 3584 1325 3584 
C 1920 3584 2246 3911 2432 4100 
C 2432 4157 2432 4192 2394 4192 
C 2387 4192 2374 4192 2323 4163 
C 2099 4058 1837 3973 1517 3973 
C 1325 3973 1037 3999 723 4139 
C 653 4171 640 4171 634 4171 
C 602 4171 595 4164 595 4037 
L 595 2203 
C 595 2089 595 2057 659 2057 
C 691 2057 704 2070 736 2114 
C 941 2401 1222 2522 1542 2522 
C 1766 2522 2246 2382 2246 1289 
C 2246 1085 2246 715 2054 421 
C 1894 159 1645 25 1370 25 
C 947 25 518 320 403 814 
C 429 807 480 795 506 795 
C 589 795 749 840 749 1038 
C 749 1210 627 1280 506 1280 
C 358 1280 262 1190 262 1011 
C 262 454 704 -128 1382 -128 
C 2042 -128 2669 440 2669 1264 
C 2669 2030 2170 2624 1549 2624 
C 1222 2624 947 2503 730 2274 
L 730 3692 
z
" transform="scale(0.015625)"/>
       </defs>
       <use xlink:href="#CMSY10-0" transform="scale(0.996264)"/>
       <use xlink:href="#CMR17-30" transform="translate(77.487468 0) scale(0.996264)"/>
       <use xlink:href="#CMMI12-3a" transform="translate(123.177945 0) scale(0.996264)"/>
       <use xlink:href="#CMR17-30" transform="translate(150.275122 0) scale(0.996264)"/>
       <use xlink:href="#CMR17-30" transform="translate(195.965599 0) scale(0.996264)"/>
       <use xlink:href="#CMR17-35" transform="translate(241.656076 0) scale(0.996264)"/>
      </g>
     </g>
    </g>
    <g id="ytick_3">
     <g id="line2d_58">
      <path d="M 51.504133 80.441457 
L 246.804133 80.441457 
" clip-path="url(#pecb0df9970)" style="fill: none; stroke-dasharray: 1.85,0.8; stroke-dashoffset: 0; stroke: #000000; stroke-opacity: 0.5; stroke-width: 0.5"/>
     </g>
     <g id="line2d_59">
      <g>
       <use xlink:href="#m173b88a272" x="51.504133" y="80.441457" style="stroke: #000000; stroke-width: 0.5"/>
      </g>
     </g>
     <g id="line2d_60">
      <g>
       <use xlink:href="#m5b8efc45b1" x="246.804133" y="80.441457" style="stroke: #000000; stroke-width: 0.5"/>
      </g>
     </g>
     <g id="text_9">
      <!-- $\mathdefault{0.000}$ -->
      <g transform="translate(25.311384 83.900707) scale(0.1 -0.1)">
       <use xlink:href="#CMR17-30" transform="scale(0.996264)"/>
       <use xlink:href="#CMMI12-3a" transform="translate(45.690477 0) scale(0.996264)"/>
       <use xlink:href="#CMR17-30" transform="translate(72.787654 0) scale(0.996264)"/>
       <use xlink:href="#CMR17-30" transform="translate(118.478131 0) scale(0.996264)"/>
       <use xlink:href="#CMR17-30" transform="translate(164.168608 0) scale(0.996264)"/>
      </g>
     </g>
    </g>
    <g id="ytick_4">
     <g id="line2d_61">
      <path d="M 51.504133 54.366346 
L 246.804133 54.366346 
" clip-path="url(#pecb0df9970)" style="fill: none; stroke-dasharray: 1.85,0.8; stroke-dashoffset: 0; stroke: #000000; stroke-opacity: 0.5; stroke-width: 0.5"/>
     </g>
     <g id="line2d_62">
      <g>
       <use xlink:href="#m173b88a272" x="51.504133" y="54.366346" style="stroke: #000000; stroke-width: 0.5"/>
      </g>
     </g>
     <g id="line2d_63">
      <g>
       <use xlink:href="#m5b8efc45b1" x="246.804133" y="54.366346" style="stroke: #000000; stroke-width: 0.5"/>
      </g>
     </g>
     <g id="text_10">
      <!-- $\mathdefault{0.005}$ -->
      <g transform="translate(25.311384 57.825595) scale(0.1 -0.1)">
       <use xlink:href="#CMR17-30" transform="scale(0.996264)"/>
       <use xlink:href="#CMMI12-3a" transform="translate(45.690477 0) scale(0.996264)"/>
       <use xlink:href="#CMR17-30" transform="translate(72.787654 0) scale(0.996264)"/>
       <use xlink:href="#CMR17-30" transform="translate(118.478131 0) scale(0.996264)"/>
       <use xlink:href="#CMR17-35" transform="translate(164.168608 0) scale(0.996264)"/>
      </g>
     </g>
    </g>
    <g id="ytick_5">
     <g id="line2d_64">
      <path d="M 51.504133 28.291234 
L 246.804133 28.291234 
" clip-path="url(#pecb0df9970)" style="fill: none; stroke-dasharray: 1.85,0.8; stroke-dashoffset: 0; stroke: #000000; stroke-opacity: 0.5; stroke-width: 0.5"/>
     </g>
     <g id="line2d_65">
      <g>
       <use xlink:href="#m173b88a272" x="51.504133" y="28.291234" style="stroke: #000000; stroke-width: 0.5"/>
      </g>
     </g>
     <g id="line2d_66">
      <g>
       <use xlink:href="#m5b8efc45b1" x="246.804133" y="28.291234" style="stroke: #000000; stroke-width: 0.5"/>
      </g>
     </g>
     <g id="text_11">
      <!-- $\mathdefault{0.010}$ -->
      <g transform="translate(25.311384 31.750483) scale(0.1 -0.1)">
       <use xlink:href="#CMR17-30" transform="scale(0.996264)"/>
       <use xlink:href="#CMMI12-3a" transform="translate(45.690477 0) scale(0.996264)"/>
       <use xlink:href="#CMR17-30" transform="translate(72.787654 0) scale(0.996264)"/>
       <use xlink:href="#CMR17-31" transform="translate(118.478131 0) scale(0.996264)"/>
       <use xlink:href="#CMR17-30" transform="translate(164.168608 0) scale(0.996264)"/>
      </g>
     </g>
    </g>
    <g id="ytick_6">
     <g id="line2d_67">
      <defs>
       <path id="m517aef0b96" d="M 0 0 
L 1.5 0 
" style="stroke: #000000; stroke-width: 0.5"/>
      </defs>
      <g>
       <use xlink:href="#m517aef0b96" x="51.504133" y="148.236748" style="stroke: #000000; stroke-width: 0.5"/>
      </g>
     </g>
     <g id="line2d_68">
      <defs>
       <path id="m2f4091e4f8" d="M 0 0 
L -1.5 0 
" style="stroke: #000000; stroke-width: 0.5"/>
      </defs>
      <g>
       <use xlink:href="#m2f4091e4f8" x="246.804133" y="148.236748" style="stroke: #000000; stroke-width: 0.5"/>
      </g>
     </g>
    </g>
    <g id="ytick_7">
     <g id="line2d_69">
      <g>
       <use xlink:href="#m517aef0b96" x="51.504133" y="143.021725" style="stroke: #000000; stroke-width: 0.5"/>
      </g>
     </g>
     <g id="line2d_70">
      <g>
       <use xlink:href="#m2f4091e4f8" x="246.804133" y="143.021725" style="stroke: #000000; stroke-width: 0.5"/>
      </g>
     </g>
    </g>
    <g id="ytick_8">
     <g id="line2d_71">
      <g>
       <use xlink:href="#m517aef0b96" x="51.504133" y="137.806703" style="stroke: #000000; stroke-width: 0.5"/>
      </g>
     </g>
     <g id="line2d_72">
      <g>
       <use xlink:href="#m2f4091e4f8" x="246.804133" y="137.806703" style="stroke: #000000; stroke-width: 0.5"/>
      </g>
     </g>
    </g>
    <g id="ytick_9">
     <g id="line2d_73">
      <g>
       <use xlink:href="#m517aef0b96" x="51.504133" y="127.376658" style="stroke: #000000; stroke-width: 0.5"/>
      </g>
     </g>
     <g id="line2d_74">
      <g>
       <use xlink:href="#m2f4091e4f8" x="246.804133" y="127.376658" style="stroke: #000000; stroke-width: 0.5"/>
      </g>
     </g>
    </g>
    <g id="ytick_10">
     <g id="line2d_75">
      <g>
       <use xlink:href="#m517aef0b96" x="51.504133" y="122.161636" style="stroke: #000000; stroke-width: 0.5"/>
      </g>
     </g>
     <g id="line2d_76">
      <g>
       <use xlink:href="#m2f4091e4f8" x="246.804133" y="122.161636" style="stroke: #000000; stroke-width: 0.5"/>
      </g>
     </g>
    </g>
    <g id="ytick_11">
     <g id="line2d_77">
      <g>
       <use xlink:href="#m517aef0b96" x="51.504133" y="116.946614" style="stroke: #000000; stroke-width: 0.5"/>
      </g>
     </g>
     <g id="line2d_78">
      <g>
       <use xlink:href="#m2f4091e4f8" x="246.804133" y="116.946614" style="stroke: #000000; stroke-width: 0.5"/>
      </g>
     </g>
    </g>
    <g id="ytick_12">
     <g id="line2d_79">
      <g>
       <use xlink:href="#m517aef0b96" x="51.504133" y="111.731591" style="stroke: #000000; stroke-width: 0.5"/>
      </g>
     </g>
     <g id="line2d_80">
      <g>
       <use xlink:href="#m2f4091e4f8" x="246.804133" y="111.731591" style="stroke: #000000; stroke-width: 0.5"/>
      </g>
     </g>
    </g>
    <g id="ytick_13">
     <g id="line2d_81">
      <g>
       <use xlink:href="#m517aef0b96" x="51.504133" y="101.301547" style="stroke: #000000; stroke-width: 0.5"/>
      </g>
     </g>
     <g id="line2d_82">
      <g>
       <use xlink:href="#m2f4091e4f8" x="246.804133" y="101.301547" style="stroke: #000000; stroke-width: 0.5"/>
      </g>
     </g>
    </g>
    <g id="ytick_14">
     <g id="line2d_83">
      <g>
       <use xlink:href="#m517aef0b96" x="51.504133" y="96.086524" style="stroke: #000000; stroke-width: 0.5"/>
      </g>
     </g>
     <g id="line2d_84">
      <g>
       <use xlink:href="#m2f4091e4f8" x="246.804133" y="96.086524" style="stroke: #000000; stroke-width: 0.5"/>
      </g>
     </g>
    </g>
    <g id="ytick_15">
     <g id="line2d_85">
      <g>
       <use xlink:href="#m517aef0b96" x="51.504133" y="90.871502" style="stroke: #000000; stroke-width: 0.5"/>
      </g>
     </g>
     <g id="line2d_86">
      <g>
       <use xlink:href="#m2f4091e4f8" x="246.804133" y="90.871502" style="stroke: #000000; stroke-width: 0.5"/>
      </g>
     </g>
    </g>
    <g id="ytick_16">
     <g id="line2d_87">
      <g>
       <use xlink:href="#m517aef0b96" x="51.504133" y="85.65648" style="stroke: #000000; stroke-width: 0.5"/>
      </g>
     </g>
     <g id="line2d_88">
      <g>
       <use xlink:href="#m2f4091e4f8" x="246.804133" y="85.65648" style="stroke: #000000; stroke-width: 0.5"/>
      </g>
     </g>
    </g>
    <g id="ytick_17">
     <g id="line2d_89">
      <g>
       <use xlink:href="#m517aef0b96" x="51.504133" y="75.226435" style="stroke: #000000; stroke-width: 0.5"/>
      </g>
     </g>
     <g id="line2d_90">
      <g>
       <use xlink:href="#m2f4091e4f8" x="246.804133" y="75.226435" style="stroke: #000000; stroke-width: 0.5"/>
      </g>
     </g>
    </g>
    <g id="ytick_18">
     <g id="line2d_91">
      <g>
       <use xlink:href="#m517aef0b96" x="51.504133" y="70.011413" style="stroke: #000000; stroke-width: 0.5"/>
      </g>
     </g>
     <g id="line2d_92">
      <g>
       <use xlink:href="#m2f4091e4f8" x="246.804133" y="70.011413" style="stroke: #000000; stroke-width: 0.5"/>
      </g>
     </g>
    </g>
    <g id="ytick_19">
     <g id="line2d_93">
      <g>
       <use xlink:href="#m517aef0b96" x="51.504133" y="64.79639" style="stroke: #000000; stroke-width: 0.5"/>
      </g>
     </g>
     <g id="line2d_94">
      <g>
       <use xlink:href="#m2f4091e4f8" x="246.804133" y="64.79639" style="stroke: #000000; stroke-width: 0.5"/>
      </g>
     </g>
    </g>
    <g id="ytick_20">
     <g id="line2d_95">
      <g>
       <use xlink:href="#m517aef0b96" x="51.504133" y="59.581368" style="stroke: #000000; stroke-width: 0.5"/>
      </g>
     </g>
     <g id="line2d_96">
      <g>
       <use xlink:href="#m2f4091e4f8" x="246.804133" y="59.581368" style="stroke: #000000; stroke-width: 0.5"/>
      </g>
     </g>
    </g>
    <g id="ytick_21">
     <g id="line2d_97">
      <g>
       <use xlink:href="#m517aef0b96" x="51.504133" y="49.151323" style="stroke: #000000; stroke-width: 0.5"/>
      </g>
     </g>
     <g id="line2d_98">
      <g>
       <use xlink:href="#m2f4091e4f8" x="246.804133" y="49.151323" style="stroke: #000000; stroke-width: 0.5"/>
      </g>
     </g>
    </g>
    <g id="ytick_22">
     <g id="line2d_99">
      <g>
       <use xlink:href="#m517aef0b96" x="51.504133" y="43.936301" style="stroke: #000000; stroke-width: 0.5"/>
      </g>
     </g>
     <g id="line2d_100">
      <g>
       <use xlink:href="#m2f4091e4f8" x="246.804133" y="43.936301" style="stroke: #000000; stroke-width: 0.5"/>
      </g>
     </g>
    </g>
    <g id="ytick_23">
     <g id="line2d_101">
      <g>
       <use xlink:href="#m517aef0b96" x="51.504133" y="38.721279" style="stroke: #000000; stroke-width: 0.5"/>
      </g>
     </g>
     <g id="line2d_102">
      <g>
       <use xlink:href="#m2f4091e4f8" x="246.804133" y="38.721279" style="stroke: #000000; stroke-width: 0.5"/>
      </g>
     </g>
    </g>
    <g id="ytick_24">
     <g id="line2d_103">
      <g>
       <use xlink:href="#m517aef0b96" x="51.504133" y="33.506256" style="stroke: #000000; stroke-width: 0.5"/>
      </g>
     </g>
     <g id="line2d_104">
      <g>
       <use xlink:href="#m2f4091e4f8" x="246.804133" y="33.506256" style="stroke: #000000; stroke-width: 0.5"/>
      </g>
     </g>
    </g>
    <g id="ytick_25">
     <g id="line2d_105">
      <g>
       <use xlink:href="#m517aef0b96" x="51.504133" y="23.076212" style="stroke: #000000; stroke-width: 0.5"/>
      </g>
     </g>
     <g id="line2d_106">
      <g>
       <use xlink:href="#m2f4091e4f8" x="246.804133" y="23.076212" style="stroke: #000000; stroke-width: 0.5"/>
      </g>
     </g>
    </g>
    <g id="ytick_26">
     <g id="line2d_107">
      <g>
       <use xlink:href="#m517aef0b96" x="51.504133" y="17.861189" style="stroke: #000000; stroke-width: 0.5"/>
      </g>
     </g>
     <g id="line2d_108">
      <g>
       <use xlink:href="#m2f4091e4f8" x="246.804133" y="17.861189" style="stroke: #000000; stroke-width: 0.5"/>
      </g>
     </g>
    </g>
    <g id="ytick_27">
     <g id="line2d_109">
      <g>
       <use xlink:href="#m517aef0b96" x="51.504133" y="12.646167" style="stroke: #000000; stroke-width: 0.5"/>
      </g>
     </g>
     <g id="line2d_110">
      <g>
       <use xlink:href="#m2f4091e4f8" x="246.804133" y="12.646167" style="stroke: #000000; stroke-width: 0.5"/>
      </g>
     </g>
    </g>
    <g id="ytick_28">
     <g id="line2d_111">
      <g>
       <use xlink:href="#m517aef0b96" x="51.504133" y="7.431145" style="stroke: #000000; stroke-width: 0.5"/>
      </g>
     </g>
     <g id="line2d_112">
      <g>
       <use xlink:href="#m2f4091e4f8" x="246.804133" y="7.431145" style="stroke: #000000; stroke-width: 0.5"/>
      </g>
     </g>
    </g>
    <g id="text_12">
     <!-- $I$ [pA] -->
     <g transform="translate(11.07198 89.876846) rotate(-90) scale(0.1 -0.1)">
      <defs>
       <path id="CMMI12-49" d="M 2355 3880 
C 2413 4103 2426 4167 2893 4167 
C 3034 4167 3085 4167 3085 4288 
C 3085 4352 3014 4352 2995 4352 
C 2880 4352 2739 4352 2624 4352 
L 1837 4352 
C 1709 4352 1562 4352 1434 4352 
C 1382 4352 1312 4352 1312 4231 
C 1312 4167 1363 4167 1491 4167 
C 1888 4167 1888 4116 1888 4046 
C 1888 4002 1875 3963 1862 3906 
L 998 472 
C 941 249 928 185 461 185 
C 320 185 262 185 262 64 
C 262 0 326 0 358 0 
C 474 0 614 0 730 0 
L 1517 0 
C 1645 0 1786 0 1914 0 
C 1965 0 2042 0 2042 115 
C 2042 185 2003 185 1862 185 
C 1466 185 1466 236 1466 312 
C 1466 325 1466 357 1491 459 
L 2355 3880 
z
" transform="scale(0.015625)"/>
       <path id="CMR17-70" d="M 1408 -1063 
C 998 -1063 973 -1037 973 -789 
L 973 402 
C 1158 134 1427 -38 1766 -38 
C 2406 -38 3053 523 3053 1388 
C 3053 2191 2496 2802 1837 2802 
C 1453 2802 1139 2592 960 2338 
L 960 2802 
L 198 2732 
L 198 2567 
C 576 2567 634 2528 634 2223 
L 634 -789 
C 634 -1031 608 -1063 198 -1063 
L 198 -1228 
C 352 -1216 634 -1216 800 -1216 
C 966 -1216 1254 -1216 1408 -1228 
L 1408 -1063 
z
M 973 2012 
C 973 2102 973 2235 1222 2471 
C 1254 2497 1472 2688 1792 2688 
C 2259 2688 2643 2108 2643 1382 
C 2643 656 2234 64 1728 64 
C 1498 64 1248 172 1056 472 
C 973 612 973 650 973 752 
L 973 2012 
z
" transform="scale(0.015625)"/>
       <path id="CMR17-41" d="M 2323 4378 
C 2291 4461 2278 4480 2214 4480 
C 2150 4480 2138 4461 2106 4378 
L 749 566 
C 627 223 371 153 147 153 
L 147 -13 
C 262 0 518 0 640 0 
C 800 0 1056 0 1210 -13 
L 1210 153 
C 909 153 864 361 864 439 
C 864 497 877 530 890 569 
L 1229 1536 
L 2906 1536 
L 3290 442 
C 3322 365 3322 352 3322 327 
C 3322 153 3046 153 2925 153 
L 2925 0 
C 3110 0 3443 0 3642 0 
C 3808 0 4128 0 4282 -13 
L 4282 153 
C 3942 153 3827 153 3744 387 
L 2323 4378 
z
M 2067 3893 
L 2848 1702 
L 1286 1702 
L 2067 3893 
z
" transform="scale(0.015625)"/>
      </defs>
      <use xlink:href="#CMMI12-49" transform="scale(0.996264)"/>
      <use xlink:href="#CMR17-5b" transform="translate(80.93248 0) scale(0.996264)"/>
      <use xlink:href="#CMR17-70" transform="translate(105.803539 0) scale(0.996264)"/>
      <use xlink:href="#CMR17-41" transform="translate(156.698909 0) scale(0.996264)"/>
      <use xlink:href="#CMR17-5d" transform="translate(225.771338 0) scale(0.996264)"/>
     </g>
    </g>
   </g>
   <g id="line2d_113">
    <path d="M 149.154133 79.898823 
L 163.047065 78.02289 
L 176.584906 76.323182 
L 189.456951 74.561003 
L 201.352497 71.460453 
L 211.916451 67.923924 
L 220.97127 61.500411 
L 228.250633 54.290395 
L 233.576997 46.029078 
L 236.817201 34.81625 
L 237.926861 27.483183 
L 236.817201 29.455287 
L 233.576997 37.231111 
L 228.250633 44.92655 
L 220.97127 54.82358 
L 211.916451 65.343746 
L 201.352497 69.288292 
L 189.456951 72.71827 
L 176.584906 74.54986 
L 135.261201 80.028015 
L 108.851315 83.079256 
L 96.95577 86.017005 
L 86.391815 89.483322 
L 77.336997 98.522462 
L 70.057633 108.674407 
L 64.73127 118.412804 
L 61.491065 129.008806 
L 60.381406 136.412952 
L 61.491065 134.248741 
L 64.73127 126.588133 
L 70.057633 117.619595 
L 77.336997 105.598486 
L 86.391815 93.155225 
L 96.95577 88.100793 
L 108.851315 83.7164 
L 121.723361 81.553975 
L 135.261201 79.406749 
L 176.584906 73.937892 
L 189.456951 71.926253 
L 201.352497 68.927576 
L 211.916451 65.298155 
L 220.97127 58.718313 
L 228.250633 51.373272 
L 233.576997 43.128519 
L 236.817201 33.328959 
L 237.926861 24.305368 
L 236.817201 25.823358 
L 233.576997 34.139815 
L 228.250633 41.249096 
L 220.97127 51.390588 
L 211.916451 61.609083 
L 201.352497 66.577404 
L 189.456951 71.112215 
L 176.584906 73.818284 
L 163.047065 75.954369 
L 149.154133 77.630009 
L 135.261201 79.554625 
L 121.723361 81.280153 
L 108.851315 83.085583 
L 96.95577 85.929418 
L 86.391815 88.994181 
L 77.336997 96.096497 
L 70.057633 103.795743 
L 64.73127 111.510964 
L 61.491065 122.604723 
L 60.381406 130.978605 
L 61.491065 130.283649 
L 64.73127 123.37182 
L 77.336997 104.301315 
L 86.391815 92.726285 
L 96.95577 88.511766 
L 108.851315 84.735879 
L 121.723361 82.391182 
L 135.261201 80.404759 
L 176.584906 75.402056 
L 189.456951 73.344746 
L 201.352497 70.266513 
L 211.916451 69.432711 
L 220.97127 61.859307 
L 228.250633 53.576438 
L 233.576997 45.075817 
L 236.817201 35.008967 
L 237.926861 27.332181 
L 236.817201 28.351855 
L 233.576997 36.749217 
L 228.250633 43.995324 
L 220.97127 55.210495 
L 211.916451 66.887331 
L 201.352497 73.00159 
L 189.456951 76.696953 
L 176.584906 78.860494 
L 163.047065 80.485195 
L 121.723361 83.841991 
L 108.851315 85.085139 
L 96.95577 86.757002 
L 86.391815 89.218472 
L 77.336997 96.684061 
L 70.057633 105.28576 
L 64.73127 113.981712 
L 61.491065 124.587668 
L 60.381406 131.853427 
L 61.491065 129.453491 
L 64.73127 121.563453 
L 77.336997 102.975732 
L 86.391815 90.586003 
L 96.95577 86.170415 
L 108.851315 83.296259 
L 121.723361 81.97675 
L 135.261201 80.793017 
L 163.047065 78.945288 
L 176.584906 77.791873 
L 189.456951 76.514857 
L 201.352497 74.177404 
L 211.916451 71.295279 
L 220.97127 63.282741 
L 228.250633 53.870248 
L 233.576997 44.588833 
L 236.817201 32.072484 
L 237.926861 22.482316 
L 236.817201 24.588855 
L 233.576997 32.733582 
L 228.250633 42.418252 
L 220.97127 54.638159 
L 211.916451 66.531548 
L 201.352497 71.136591 
L 189.456951 75.326493 
L 176.584906 76.906356 
L 163.047065 78.100176 
L 121.723361 80.846041 
L 108.851315 81.974999 
L 96.95577 83.458774 
L 86.391815 85.438737 
L 77.336997 92.321059 
L 70.057633 99.94103 
L 64.73127 107.966426 
L 61.491065 118.110779 
L 60.381406 125.801725 
L 61.491065 124.413448 
L 64.73127 117.603941 
L 70.057633 110.111163 
L 77.336997 100.45954 
L 86.391815 89.838868 
L 96.95577 85.145926 
L 108.851315 81.428165 
L 121.723361 79.956683 
L 135.261201 78.568145 
L 163.047065 75.9841 
L 176.584906 74.61125 
L 189.456951 73.162628 
L 201.352497 70.422799 
L 211.916451 66.843044 
L 220.97127 58.94631 
L 228.250633 50.993981 
L 233.576997 42.284809 
L 236.817201 30.558724 
L 237.926861 23.653555 
L 236.817201 25.434979 
L 233.576997 32.275263 
L 228.250633 40.078305 
L 220.97127 51.491271 
L 211.916451 62.956399 
L 201.352497 68.218079 
L 189.456951 72.581383 
L 176.584906 74.2576 
L 163.047065 75.810211 
L 149.154133 77.267867 
L 135.261201 78.568145 
L 121.723361 79.956683 
L 108.851315 81.420319 
L 96.95577 84.257257 
L 86.391815 87.4452 
L 77.336997 94.723621 
L 70.057633 104.047119 
L 64.73127 115.11133 
L 61.491065 126.572563 
L 60.381406 135.180919 
L 61.491065 133.362585 
L 64.73127 124.437073 
L 70.057633 113.39656 
L 77.336997 101.539055 
L 86.391815 90.18279 
L 96.95577 85.394967 
L 108.851315 81.181915 
L 121.723361 79.648203 
L 163.047065 75.890217 
L 189.456951 73.741165 
L 201.352497 71.236651 
L 211.916451 68.162438 
L 220.97127 60.351949 
L 228.250633 51.412015 
L 233.576997 42.191467 
L 236.817201 30.253368 
L 237.926861 21.509984 
L 236.817201 22.339891 
L 233.576997 29.627448 
L 228.250633 38.278554 
L 220.97127 50.630742 
L 211.916451 62.642866 
L 201.352497 67.988971 
L 189.456951 72.541505 
L 176.584906 74.410418 
L 163.047065 76.017276 
L 108.851315 81.870004 
L 96.95577 84.38811 
L 86.391815 87.397175 
L 77.336997 94.265614 
L 70.057633 102.539326 
L 64.73127 112.230303 
L 61.491065 124.211043 
L 60.381406 133.085514 
L 61.491065 131.964406 
L 64.73127 122.913384 
L 70.057633 113.393358 
L 77.336997 102.204842 
L 86.391815 90.853668 
L 96.95577 86.778273 
L 108.851315 83.251732 
L 121.723361 81.08799 
L 135.261201 79.268598 
L 149.154133 77.792169 
L 163.047065 74.770006 
L 176.584906 72.414897 
L 189.456951 70.760256 
L 201.352497 67.528949 
L 211.916451 64.528098 
L 220.97127 58.363573 
L 228.250633 48.936034 
L 233.576997 38.78684 
L 236.817201 27.252453 
L 237.926861 18.942336 
L 236.817201 19.441684 
L 233.576997 26.639832 
L 228.250633 34.478849 
L 220.97127 47.011514 
L 211.916451 60.244733 
L 201.352497 66.203869 
L 189.456951 71.16941 
L 176.584906 73.360342 
L 163.047065 74.952282 
L 135.261201 77.168799 
L 121.723361 78.364756 
L 108.851315 79.668701 
L 96.95577 81.604755 
L 86.391815 83.895091 
L 77.336997 90.557626 
L 70.057633 98.798439 
L 64.73127 108.98283 
L 61.491065 121.210789 
L 60.381406 129.048902 
L 61.491065 127.315422 
L 64.73127 117.870354 
L 77.336997 99.924777 
L 86.391815 88.685276 
L 96.95577 84.855628 
L 108.851315 81.670554 
L 121.723361 80.01524 
L 135.261201 78.608591 
L 176.584906 75.217097 
L 189.456951 73.858515 
L 201.352497 71.138995 
L 211.916451 67.796375 
L 220.97127 60.319886 
L 228.250633 51.236233 
L 233.576997 41.92114 
L 236.817201 29.352473 
L 237.926861 21.94596 
L 236.817201 22.744525 
L 233.576997 29.452019 
L 228.250633 38.777174 
L 220.97127 50.509255 
L 211.916451 62.074153 
L 201.352497 66.937714 
L 189.456951 71.639468 
L 176.584906 73.547983 
L 163.047065 75.077766 
L 135.261201 77.661278 
L 121.723361 79.143437 
L 108.851315 80.710226 
L 96.95577 82.799538 
L 86.391815 85.536534 
L 77.336997 92.373316 
L 70.057633 100.121951 
L 64.73127 108.327156 
L 61.491065 120.516111 
L 60.381406 129.226953 
L 61.491065 127.947481 
L 64.73127 120.669282 
L 70.057633 112.405043 
L 77.336997 102.400554 
L 86.391815 91.243734 
L 96.95577 86.783171 
L 108.851315 83.270778 
L 121.723361 81.249974 
L 135.261201 79.642559 
L 149.154133 78.116929 
L 189.456951 74.189978 
L 201.352497 71.374236 
L 211.916451 67.583397 
L 220.97127 58.594736 
L 228.250633 47.877127 
L 233.576997 37.62942 
L 236.817201 26.464121 
L 237.926861 20.580752 
L 236.817201 21.874295 
L 233.576997 30.051473 
L 228.250633 38.658817 
L 220.97127 51.458164 
L 211.916451 64.692644 
L 201.352497 69.794507 
L 189.456951 74.165543 
L 176.584906 75.813147 
L 163.047065 77.245745 
L 108.851315 81.616238 
L 96.95577 83.875124 
L 86.391815 86.617383 
L 77.336997 94.487075 
L 70.057633 103.844508 
L 64.73127 114.723062 
L 61.491065 125.732592 
L 60.381406 133.186734 
L 61.491065 130.349187 
L 64.73127 120.982812 
L 70.057633 112.349557 
L 77.336997 100.92397 
L 86.391815 90.039883 
L 96.95577 86.486789 
L 108.851315 83.388668 
L 121.723361 81.949025 
L 135.261201 80.65436 
L 149.154133 79.551089 
L 189.456951 76.792042 
L 201.352497 74.901481 
L 211.916451 72.104154 
L 220.97127 64.001638 
L 228.250633 53.647045 
L 233.576997 42.909428 
L 236.817201 29.410457 
L 237.926861 21.835827 
L 236.817201 23.675417 
L 233.576997 32.147725 
L 228.250633 42.21866 
L 220.97127 55.029861 
L 211.916451 68.219248 
L 201.352497 72.551716 
L 189.456951 75.89451 
L 135.261201 79.329915 
L 108.851315 81.154565 
L 96.95577 83.307727 
L 86.391815 85.928847 
L 77.336997 92.841827 
L 70.057633 100.694075 
L 64.73127 108.556243 
L 61.491065 118.870594 
L 60.381406 125.433623 
L 61.491065 123.236977 
L 64.73127 115.336408 
L 70.057633 108.833836 
L 77.336997 99.103506 
L 86.391815 88.328199 
L 96.95577 85.0842 
L 108.851315 82.468525 
L 121.723361 81.194214 
L 135.261201 80.166823 
L 163.047065 78.298078 
L 176.584906 77.144115 
L 189.456951 76.228724 
L 201.352497 74.350985 
L 211.916451 71.604132 
L 220.97127 63.190445 
L 228.250633 52.492564 
L 233.576997 41.83569 
L 236.817201 28.511189 
L 237.926861 19.801645 
L 236.817201 20.949757 
L 233.576997 28.717108 
L 228.250633 38.964745 
L 220.97127 52.488891 
L 211.916451 65.119557 
L 201.352497 70.478206 
L 189.456951 74.574334 
L 176.584906 76.208943 
L 163.047065 77.484694 
L 121.723361 80.337964 
L 108.851315 81.399748 
L 96.95577 83.09794 
L 86.391815 85.423923 
L 77.336997 92.967137 
L 70.057633 101.853907 
L 64.73127 111.519036 
L 61.491065 123.221145 
L 60.381406 130.721745 
L 61.491065 129.438723 
L 64.73127 121.148113 
L 70.057633 113.449569 
L 86.391815 91.273208 
L 96.95577 86.20474 
L 108.851315 82.233392 
L 121.723361 80.76523 
L 135.261201 79.506072 
L 176.584906 76.117775 
L 189.456951 74.872866 
L 201.352497 72.603047 
L 211.916451 69.431852 
L 220.97127 60.463382 
L 228.250633 50.686964 
L 233.576997 41.306753 
L 236.817201 29.553035 
L 237.926861 20.872428 
L 236.817201 23.188662 
L 233.576997 31.286415 
L 228.250633 39.217692 
L 220.97127 50.753057 
L 211.916451 63.147552 
L 201.352497 68.654909 
L 189.456951 73.31714 
L 176.584906 75.468561 
L 163.047065 77.200783 
L 149.154133 78.671397 
L 135.261201 79.987136 
L 121.723361 79.90439 
L 108.851315 81.129452 
L 96.95577 83.09778 
L 86.391815 85.651394 
L 77.336997 93.461381 
L 70.057633 103.491967 
L 64.73127 112.90395 
L 61.491065 125.929001 
L 60.381406 133.02726 
L 61.491065 131.309643 
L 64.73127 123.23548 
L 70.057633 115.198504 
L 77.336997 103.090139 
L 86.391815 90.463694 
L 96.95577 85.803329 
L 108.851315 82.316391 
L 121.723361 80.84999 
L 135.261201 79.549047 
L 163.047065 77.334576 
L 176.584906 76.071942 
L 189.456951 74.650235 
L 201.352497 71.900462 
L 211.916451 67.922555 
L 220.97127 59.577034 
L 228.250633 50.449312 
L 233.576997 39.79055 
L 236.817201 25.465708 
L 237.926861 14.82577 
L 236.817201 15.095132 
L 233.576997 22.705712 
L 228.250633 33.484129 
L 220.97127 48.765872 
L 211.916451 64.41224 
L 201.352497 71.58268 
L 189.456951 75.516802 
L 176.584906 77.339471 
L 163.047065 78.632581 
L 108.851315 82.265629 
L 96.95577 83.896219 
L 86.391815 86.039279 
L 77.336997 92.96285 
L 70.057633 101.572997 
L 64.73127 112.103792 
L 61.491065 124.201658 
L 60.381406 132.170658 
L 61.491065 131.270108 
L 64.73127 124.034478 
L 70.057633 115.580293 
L 77.336997 103.589336 
L 86.391815 91.037457 
L 96.95577 86.702018 
L 108.851315 82.778847 
L 121.723361 81.216861 
L 149.154133 78.963729 
L 189.456951 75.699577 
L 201.352497 73.571655 
L 211.916451 70.313607 
L 220.97127 60.26309 
L 228.250633 49.440561 
L 233.576997 39.031395 
L 236.817201 25.254468 
L 237.926861 17.9031 
L 236.817201 20.396083 
L 233.576997 28.755018 
L 220.97127 51.306214 
L 211.916451 65.335567 
L 201.352497 70.475307 
L 189.456951 74.307562 
L 176.584906 75.792021 
L 163.047065 77.020125 
L 108.851315 81.386531 
L 96.95577 83.4735 
L 86.391815 86.215846 
L 77.336997 94.081261 
L 70.057633 102.957061 
L 64.73127 112.231625 
L 61.491065 126.5691 
L 60.381406 135.601747 
L 61.491065 134.471759 
L 64.73127 126.392265 
L 70.057633 117.056252 
L 77.336997 104.749053 
L 86.391815 92.271643 
L 96.95577 86.950975 
L 108.851315 82.50074 
L 121.723361 80.539854 
L 135.261201 78.92707 
L 176.584906 75.018529 
L 189.456951 73.616865 
L 201.352497 71.266441 
L 211.916451 67.978393 
L 220.97127 59.211229 
L 228.250633 49.138111 
L 233.576997 38.622263 
L 236.817201 25.244145 
L 237.926861 15.872569 
L 236.817201 18.166492 
L 233.576997 27.166728 
L 228.250633 37.051008 
L 220.97127 48.953894 
L 211.916451 61.96274 
L 201.352497 67.2126 
L 189.456951 71.841465 
L 176.584906 74.333531 
L 163.047065 77.565429 
L 149.154133 79.71321 
L 108.851315 84.748567 
L 96.95577 88.260225 
L 86.391815 92.427497 
L 77.336997 101.771899 
L 70.057633 111.403431 
L 64.73127 120.794704 
L 61.491065 132.442917 
L 60.381406 140.19334 
L 61.491065 140.009521 
L 64.73127 131.716413 
L 70.057633 122.757326 
L 77.336997 110.073425 
L 86.391815 97.116276 
L 96.95577 91.788251 
L 108.851315 86.946642 
L 121.723361 84.5662 
L 135.261201 82.7578 
L 149.154133 81.928566 
L 176.584906 79.289251 
L 189.456951 77.889505 
L 201.352497 75.779862 
L 211.916451 73.26954 
L 220.97127 66.073477 
L 228.250633 57.160459 
L 233.576997 46.540557 
L 236.817201 33.079201 
L 237.926861 25.092557 
L 236.817201 26.675992 
L 233.576997 34.949472 
L 228.250633 44.064392 
L 220.97127 56.270509 
L 211.916451 68.551913 
L 201.352497 73.238506 
L 189.456951 77.263408 
L 176.584906 79.095266 
L 163.047065 80.707154 
L 135.261201 83.661558 
L 121.723361 85.470053 
L 108.851315 87.687328 
L 96.95577 90.817343 
L 86.391815 94.133378 
L 77.336997 101.710856 
L 70.057633 110.81793 
L 64.73127 121.117687 
L 61.491065 133.783231 
L 60.381406 142.515 
L 61.491065 141.28228 
L 64.73127 132.160106 
L 70.057633 123.530937 
L 77.336997 111.039818 
L 86.391815 98.261983 
L 96.95577 93.193411 
L 108.851315 88.225137 
L 121.723361 86.064009 
L 135.261201 84.351301 
L 176.584906 80.416105 
L 189.456951 78.947958 
L 201.352497 75.982726 
L 211.916451 72.621644 
L 220.97127 64.849563 
L 228.250633 55.803445 
L 233.576997 46.050378 
L 236.817201 33.972458 
L 237.926861 25.576497 
L 236.817201 28.151492 
L 233.576997 36.217013 
L 228.250633 44.378455 
L 220.97127 55.257502 
L 211.916451 67.203719 
L 201.352497 72.099581 
L 189.456951 76.743585 
L 176.584906 78.998536 
L 163.047065 80.631183 
L 135.261201 83.223791 
L 121.723361 84.770956 
L 108.851315 86.432882 
L 96.95577 89.782941 
L 86.391815 93.238323 
L 77.336997 99.960677 
L 70.057633 107.94292 
L 64.73127 117.752215 
L 61.491065 129.26972 
L 60.381406 137.472935 
L 61.491065 134.238029 
L 64.73127 126.018115 
L 77.336997 108.044713 
L 86.391815 96.841895 
L 96.95577 91.720032 
L 108.851315 87.339194 
L 121.723361 85.768255 
L 135.261201 84.339589 
L 149.154133 83.05507 
L 163.047065 82.017676 
L 176.584906 80.609147 
L 189.456951 78.891282 
L 201.352497 75.831639 
L 211.916451 72.331068 
L 220.97127 63.918038 
L 228.250633 53.453546 
L 233.576997 42.499003 
L 236.817201 29.742703 
L 237.926861 21.580882 
L 233.576997 32.125869 
L 220.97127 52.535711 
L 211.916451 65.415549 
L 201.352497 71.876866 
L 189.456951 77.514733 
L 176.584906 79.931493 
L 163.047065 81.825408 
L 135.261201 84.78409 
L 121.723361 86.37106 
L 108.851315 87.994334 
L 96.95577 90.341403 
L 86.391815 93.110297 
L 77.336997 100.626682 
L 70.057633 109.246072 
L 64.73127 118.078228 
L 61.491065 130.83844 
L 60.381406 139.97224 
L 61.491065 137.857519 
L 64.73127 129.862806 
L 77.336997 109.940687 
L 86.391815 97.52184 
L 96.95577 92.929934 
L 108.851315 89.115589 
L 135.261201 85.281369 
L 149.154133 82.809611 
L 176.584906 79.760293 
L 189.456951 78.122136 
L 201.352497 74.982759 
L 211.916451 71.15097 
L 220.97127 60.48019 
L 228.250633 48.839703 
L 233.576997 36.725457 
L 236.817201 22.646371 
L 237.926861 14.996609 
L 236.817201 16.720839 
L 233.576997 26.235484 
L 228.250633 36.843968 
L 220.97127 50.921085 
L 211.916451 65.416038 
L 201.352497 71.186793 
L 189.456951 75.86361 
L 176.584906 78.469865 
L 163.047065 80.339663 
L 108.851315 85.476329 
L 96.95577 87.727311 
L 86.391815 90.644598 
L 77.336997 98.567508 
L 70.057633 106.982505 
L 64.73127 115.778344 
L 61.491065 128.201354 
L 60.381406 137.264947 
L 61.491065 136.387048 
L 64.73127 128.294607 
L 70.057633 119.6741 
L 77.336997 107.55543 
L 86.391815 94.746282 
L 96.95577 90.110501 
L 108.851315 86.345908 
L 121.723361 84.647182 
L 149.154133 81.624642 
L 176.584906 78.710728 
L 189.456951 77.181843 
L 201.352497 74.131387 
L 211.916451 70.28369 
L 220.97127 59.772466 
L 228.250633 46.503549 
L 233.576997 33.497116 
L 236.817201 19.149663 
L 237.926861 10.215 
L 236.817201 12.885318 
L 233.576997 23.571607 
L 228.250633 34.7197 
L 220.97127 49.065165 
L 211.916451 63.930631 
L 201.352497 70.617223 
L 189.456951 76.310665 
L 176.584906 78.148587 
L 163.047065 79.867236 
L 108.851315 85.694776 
L 96.95577 87.999697 
L 86.391815 91.338576 
L 77.336997 99.276947 
L 70.057633 108.101867 
L 64.73127 117.533489 
L 61.491065 129.64784 
L 60.381406 137.424811 
L 61.491065 135.613238 
L 64.73127 126.756936 
L 70.057633 118.207849 
L 77.336997 107.515927 
L 86.391815 96.337953 
L 96.95577 91.945016 
L 108.851315 87.814894 
L 121.723361 85.281888 
L 135.261201 83.26458 
L 135.261201 83.26458 
" clip-path="url(#pecb0df9970)" style="fill: none; stroke: #4477aa; stroke-linecap: square"/>
   </g>
   <g id="patch_3">
    <path d="M 51.504133 149.13 
L 51.504133 3.6 
" style="fill: none; stroke: #000000; stroke-width: 0.5; stroke-linejoin: miter; stroke-linecap: square"/>
   </g>
   <g id="patch_4">
    <path d="M 246.804133 149.13 
L 246.804133 3.6 
" style="fill: none; stroke: #000000; stroke-width: 0.5; stroke-linejoin: miter; stroke-linecap: square"/>
   </g>
   <g id="patch_5">
    <path d="M 51.504133 149.13 
L 246.804133 149.13 
" style="fill: none; stroke: #000000; stroke-width: 0.5; stroke-linejoin: miter; stroke-linecap: square"/>
   </g>
   <g id="patch_6">
    <path d="M 51.504133 3.6 
L 246.804133 3.6 
" style="fill: none; stroke: #000000; stroke-width: 0.5; stroke-linejoin: miter; stroke-linecap: square"/>
   </g>
  </g>
 </g>
 <defs>
  <clipPath id="pecb0df9970">
   <rect x="51.504133" y="3.6" width="195.3" height="145.53"/>
  </clipPath>
 </defs>
</svg>
