<?xml version="1.0" encoding="utf-8" standalone="no"?>
<!DOCTYPE svg PUBLIC "-//W3C//DTD SVG 1.1//EN"
  "http://www.w3.org/Graphics/SVG/1.1/DTD/svg11.dtd">
<svg xmlns:xlink="http://www.w3.org/1999/xlink" width="245.422798pt" height="179.048317pt" viewBox="0 0 245.422798 179.048317" xmlns="http://www.w3.org/2000/svg" version="1.1">
 <metadata>
  <rdf:RDF xmlns:dc="http://purl.org/dc/elements/1.1/" xmlns:cc="http://creativecommons.org/ns#" xmlns:rdf="http://www.w3.org/1999/02/22-rdf-syntax-ns#">
   <cc:Work>
    <dc:type rdf:resource="http://purl.org/dc/dcmitype/StillImage"/>
    <dc:date>2025-10-13T14:57:12.363156</dc:date>
    <dc:format>image/svg+xml</dc:format>
    <dc:creator>
     <cc:Agent>
      <dc:title>Matplotlib v3.9.2, https://matplotlib.org/</dc:title>
     </cc:Agent>
    </dc:creator>
   </cc:Work>
  </rdf:RDF>
 </metadata>
 <defs>
  <style type="text/css">*{stroke-linejoin: round; stroke-linecap: butt}</style>
 </defs>
 <g id="figure_1">
  <g id="patch_1">
   <path d="M -0 179.048317 
L 245.422798 179.048317 
L 245.422798 0 
L -0 0 
L -0 179.048317 
z
" style="fill: none"/>
  </g>
  <g id="axes_1">
   <g id="patch_2">
    <path d="M 46.522798 149.13 
L 241.822798 149.13 
L 241.822798 3.6 
L 46.522798 3.6 
L 46.522798 149.13 
z
" style="fill: none"/>
   </g>
   <g id="matplotlib.axis_1">
    <g id="xtick_1">
     <g id="line2d_1">
      <path d="M 55.400071 149.13 
L 55.400071 3.6 
" clip-path="url(#p57c0e57195)" style="fill: none; stroke-dasharray: 1.85,0.8; stroke-dashoffset: 0; stroke: #000000; stroke-opacity: 0.5; stroke-width: 0.5"/>
     </g>
     <g id="line2d_2">
      <defs>
       <path id="mfb2c5181d9" d="M 0 0 
L 0 -3 
" style="stroke: #000000; stroke-width: 0.5"/>
      </defs>
      <g>
       <use xlink:href="#mfb2c5181d9" x="55.400071" y="149.13" style="stroke: #000000; stroke-width: 0.5"/>
      </g>
     </g>
     <g id="line2d_3">
      <defs>
       <path id="mc30ea22ff7" d="M 0 0 
L 0 3 
" style="stroke: #000000; stroke-width: 0.5"/>
      </defs>
      <g>
       <use xlink:href="#mc30ea22ff7" x="55.400071" y="3.6" style="stroke: #000000; stroke-width: 0.5"/>
      </g>
     </g>
     <g id="text_1">
      <!-- $\mathdefault{−20}$ -->
      <g transform="translate(46.544364 159.548498) scale(0.1 -0.1)">
       <defs>
        <path id="CMSY10-0" d="M 4218 1472 
C 4326 1472 4442 1472 4442 1600 
C 4442 1728 4326 1728 4218 1728 
L 755 1728 
C 646 1728 531 1728 531 1600 
C 531 1472 646 1472 755 1472 
L 4218 1472 
z
" transform="scale(0.015625)"/>
        <path id="CMR17-32" d="M 2669 989 
L 2554 989 
C 2490 536 2438 459 2413 420 
C 2381 369 1920 369 1830 369 
L 602 369 
C 832 619 1280 1072 1824 1597 
C 2214 1967 2669 2402 2669 3035 
C 2669 3790 2067 4224 1395 4224 
C 691 4224 262 3604 262 3030 
C 262 2780 448 2748 525 2748 
C 589 2748 781 2787 781 3010 
C 781 3207 614 3264 525 3264 
C 486 3264 448 3258 422 3245 
C 544 3790 915 4058 1306 4058 
C 1862 4058 2227 3617 2227 3035 
C 2227 2479 1901 2000 1536 1584 
L 262 146 
L 262 0 
L 2515 0 
L 2669 989 
z
" transform="scale(0.015625)"/>
        <path id="CMR17-30" d="M 2688 2025 
C 2688 2416 2682 3080 2413 3591 
C 2176 4039 1798 4198 1466 4198 
C 1158 4198 768 4058 525 3597 
C 269 3118 243 2524 243 2025 
C 243 1661 250 1106 448 619 
C 723 -39 1216 -128 1466 -128 
C 1760 -128 2208 -7 2470 600 
C 2662 1042 2688 1559 2688 2025 
z
M 1466 -26 
C 1056 -26 813 325 723 812 
C 653 1188 653 1738 653 2096 
C 653 2588 653 2997 736 3387 
C 858 3929 1216 4096 1466 4096 
C 1728 4096 2067 3923 2189 3400 
C 2272 3036 2278 2607 2278 2096 
C 2278 1680 2278 1169 2202 792 
C 2067 95 1690 -26 1466 -26 
z
" transform="scale(0.015625)"/>
       </defs>
       <use xlink:href="#CMSY10-0" transform="scale(0.996264)"/>
       <use xlink:href="#CMR17-32" transform="translate(77.487468 0) scale(0.996264)"/>
       <use xlink:href="#CMR17-30" transform="translate(123.177945 0) scale(0.996264)"/>
      </g>
     </g>
    </g>
    <g id="xtick_2">
     <g id="line2d_4">
      <path d="M 99.786434 149.13 
L 99.786434 3.6 
" clip-path="url(#p57c0e57195)" style="fill: none; stroke-dasharray: 1.85,0.8; stroke-dashoffset: 0; stroke: #000000; stroke-opacity: 0.5; stroke-width: 0.5"/>
     </g>
     <g id="line2d_5">
      <g>
       <use xlink:href="#mfb2c5181d9" x="99.786434" y="149.13" style="stroke: #000000; stroke-width: 0.5"/>
      </g>
     </g>
     <g id="line2d_6">
      <g>
       <use xlink:href="#mc30ea22ff7" x="99.786434" y="3.6" style="stroke: #000000; stroke-width: 0.5"/>
      </g>
     </g>
     <g id="text_2">
      <!-- $\mathdefault{−10}$ -->
      <g transform="translate(90.930727 159.548498) scale(0.1 -0.1)">
       <defs>
        <path id="CMR17-31" d="M 1702 4058 
C 1702 4192 1696 4192 1606 4192 
C 1357 3916 979 3827 621 3827 
C 602 3827 570 3827 563 3808 
C 557 3795 557 3782 557 3648 
C 755 3648 1088 3686 1344 3839 
L 1344 461 
C 1344 236 1331 160 781 160 
L 589 160 
L 589 0 
C 896 0 1216 0 1523 0 
C 1830 0 2150 0 2458 0 
L 2458 160 
L 2266 160 
C 1715 160 1702 230 1702 458 
L 1702 4058 
z
" transform="scale(0.015625)"/>
       </defs>
       <use xlink:href="#CMSY10-0" transform="scale(0.996264)"/>
       <use xlink:href="#CMR17-31" transform="translate(77.487468 0) scale(0.996264)"/>
       <use xlink:href="#CMR17-30" transform="translate(123.177945 0) scale(0.996264)"/>
      </g>
     </g>
    </g>
    <g id="xtick_3">
     <g id="line2d_7">
      <path d="M 144.172798 149.13 
L 144.172798 3.6 
" clip-path="url(#p57c0e57195)" style="fill: none; stroke-dasharray: 1.85,0.8; stroke-dashoffset: 0; stroke: #000000; stroke-opacity: 0.5; stroke-width: 0.5"/>
     </g>
     <g id="line2d_8">
      <g>
       <use xlink:href="#mfb2c5181d9" x="144.172798" y="149.13" style="stroke: #000000; stroke-width: 0.5"/>
      </g>
     </g>
     <g id="line2d_9">
      <g>
       <use xlink:href="#mc30ea22ff7" x="144.172798" y="3.6" style="stroke: #000000; stroke-width: 0.5"/>
      </g>
     </g>
     <g id="text_3">
      <!-- $\mathdefault{0}$ -->
      <g transform="translate(141.68213 159.548498) scale(0.1 -0.1)">
       <use xlink:href="#CMR17-30" transform="scale(0.996264)"/>
      </g>
     </g>
    </g>
    <g id="xtick_4">
     <g id="line2d_10">
      <path d="M 188.559162 149.13 
L 188.559162 3.6 
" clip-path="url(#p57c0e57195)" style="fill: none; stroke-dasharray: 1.85,0.8; stroke-dashoffset: 0; stroke: #000000; stroke-opacity: 0.5; stroke-width: 0.5"/>
     </g>
     <g id="line2d_11">
      <g>
       <use xlink:href="#mfb2c5181d9" x="188.559162" y="149.13" style="stroke: #000000; stroke-width: 0.5"/>
      </g>
     </g>
     <g id="line2d_12">
      <g>
       <use xlink:href="#mc30ea22ff7" x="188.559162" y="3.6" style="stroke: #000000; stroke-width: 0.5"/>
      </g>
     </g>
     <g id="text_4">
      <!-- $\mathdefault{10}$ -->
      <g transform="translate(183.577826 159.548498) scale(0.1 -0.1)">
       <use xlink:href="#CMR17-31" transform="scale(0.996264)"/>
       <use xlink:href="#CMR17-30" transform="translate(45.690477 0) scale(0.996264)"/>
      </g>
     </g>
    </g>
    <g id="xtick_5">
     <g id="line2d_13">
      <path d="M 232.945525 149.13 
L 232.945525 3.6 
" clip-path="url(#p57c0e57195)" style="fill: none; stroke-dasharray: 1.85,0.8; stroke-dashoffset: 0; stroke: #000000; stroke-opacity: 0.5; stroke-width: 0.5"/>
     </g>
     <g id="line2d_14">
      <g>
       <use xlink:href="#mfb2c5181d9" x="232.945525" y="149.13" style="stroke: #000000; stroke-width: 0.5"/>
      </g>
     </g>
     <g id="line2d_15">
      <g>
       <use xlink:href="#mc30ea22ff7" x="232.945525" y="3.6" style="stroke: #000000; stroke-width: 0.5"/>
      </g>
     </g>
     <g id="text_5">
      <!-- $\mathdefault{20}$ -->
      <g transform="translate(227.96419 159.548498) scale(0.1 -0.1)">
       <use xlink:href="#CMR17-32" transform="scale(0.996264)"/>
       <use xlink:href="#CMR17-30" transform="translate(45.690477 0) scale(0.996264)"/>
      </g>
     </g>
    </g>
    <g id="xtick_6">
     <g id="line2d_16">
      <defs>
       <path id="m768163fd23" d="M 0 0 
L 0 -1.5 
" style="stroke: #000000; stroke-width: 0.5"/>
      </defs>
      <g>
       <use xlink:href="#m768163fd23" x="46.522798" y="149.13" style="stroke: #000000; stroke-width: 0.5"/>
      </g>
     </g>
     <g id="line2d_17">
      <defs>
       <path id="ma083ccabb4" d="M 0 0 
L 0 1.5 
" style="stroke: #000000; stroke-width: 0.5"/>
      </defs>
      <g>
       <use xlink:href="#ma083ccabb4" x="46.522798" y="3.6" style="stroke: #000000; stroke-width: 0.5"/>
      </g>
     </g>
    </g>
    <g id="xtick_7">
     <g id="line2d_18">
      <g>
       <use xlink:href="#m768163fd23" x="64.277344" y="149.13" style="stroke: #000000; stroke-width: 0.5"/>
      </g>
     </g>
     <g id="line2d_19">
      <g>
       <use xlink:href="#ma083ccabb4" x="64.277344" y="3.6" style="stroke: #000000; stroke-width: 0.5"/>
      </g>
     </g>
    </g>
    <g id="xtick_8">
     <g id="line2d_20">
      <g>
       <use xlink:href="#m768163fd23" x="73.154616" y="149.13" style="stroke: #000000; stroke-width: 0.5"/>
      </g>
     </g>
     <g id="line2d_21">
      <g>
       <use xlink:href="#ma083ccabb4" x="73.154616" y="3.6" style="stroke: #000000; stroke-width: 0.5"/>
      </g>
     </g>
    </g>
    <g id="xtick_9">
     <g id="line2d_22">
      <g>
       <use xlink:href="#m768163fd23" x="82.031889" y="149.13" style="stroke: #000000; stroke-width: 0.5"/>
      </g>
     </g>
     <g id="line2d_23">
      <g>
       <use xlink:href="#ma083ccabb4" x="82.031889" y="3.6" style="stroke: #000000; stroke-width: 0.5"/>
      </g>
     </g>
    </g>
    <g id="xtick_10">
     <g id="line2d_24">
      <g>
       <use xlink:href="#m768163fd23" x="90.909162" y="149.13" style="stroke: #000000; stroke-width: 0.5"/>
      </g>
     </g>
     <g id="line2d_25">
      <g>
       <use xlink:href="#ma083ccabb4" x="90.909162" y="3.6" style="stroke: #000000; stroke-width: 0.5"/>
      </g>
     </g>
    </g>
    <g id="xtick_11">
     <g id="line2d_26">
      <g>
       <use xlink:href="#m768163fd23" x="108.663707" y="149.13" style="stroke: #000000; stroke-width: 0.5"/>
      </g>
     </g>
     <g id="line2d_27">
      <g>
       <use xlink:href="#ma083ccabb4" x="108.663707" y="3.6" style="stroke: #000000; stroke-width: 0.5"/>
      </g>
     </g>
    </g>
    <g id="xtick_12">
     <g id="line2d_28">
      <g>
       <use xlink:href="#m768163fd23" x="117.54098" y="149.13" style="stroke: #000000; stroke-width: 0.5"/>
      </g>
     </g>
     <g id="line2d_29">
      <g>
       <use xlink:href="#ma083ccabb4" x="117.54098" y="3.6" style="stroke: #000000; stroke-width: 0.5"/>
      </g>
     </g>
    </g>
    <g id="xtick_13">
     <g id="line2d_30">
      <g>
       <use xlink:href="#m768163fd23" x="126.418253" y="149.13" style="stroke: #000000; stroke-width: 0.5"/>
      </g>
     </g>
     <g id="line2d_31">
      <g>
       <use xlink:href="#ma083ccabb4" x="126.418253" y="3.6" style="stroke: #000000; stroke-width: 0.5"/>
      </g>
     </g>
    </g>
    <g id="xtick_14">
     <g id="line2d_32">
      <g>
       <use xlink:href="#m768163fd23" x="135.295525" y="149.13" style="stroke: #000000; stroke-width: 0.5"/>
      </g>
     </g>
     <g id="line2d_33">
      <g>
       <use xlink:href="#ma083ccabb4" x="135.295525" y="3.6" style="stroke: #000000; stroke-width: 0.5"/>
      </g>
     </g>
    </g>
    <g id="xtick_15">
     <g id="line2d_34">
      <g>
       <use xlink:href="#m768163fd23" x="153.050071" y="149.13" style="stroke: #000000; stroke-width: 0.5"/>
      </g>
     </g>
     <g id="line2d_35">
      <g>
       <use xlink:href="#ma083ccabb4" x="153.050071" y="3.6" style="stroke: #000000; stroke-width: 0.5"/>
      </g>
     </g>
    </g>
    <g id="xtick_16">
     <g id="line2d_36">
      <g>
       <use xlink:href="#m768163fd23" x="161.927344" y="149.13" style="stroke: #000000; stroke-width: 0.5"/>
      </g>
     </g>
     <g id="line2d_37">
      <g>
       <use xlink:href="#ma083ccabb4" x="161.927344" y="3.6" style="stroke: #000000; stroke-width: 0.5"/>
      </g>
     </g>
    </g>
    <g id="xtick_17">
     <g id="line2d_38">
      <g>
       <use xlink:href="#m768163fd23" x="170.804616" y="149.13" style="stroke: #000000; stroke-width: 0.5"/>
      </g>
     </g>
     <g id="line2d_39">
      <g>
       <use xlink:href="#ma083ccabb4" x="170.804616" y="3.6" style="stroke: #000000; stroke-width: 0.5"/>
      </g>
     </g>
    </g>
    <g id="xtick_18">
     <g id="line2d_40">
      <g>
       <use xlink:href="#m768163fd23" x="179.681889" y="149.13" style="stroke: #000000; stroke-width: 0.5"/>
      </g>
     </g>
     <g id="line2d_41">
      <g>
       <use xlink:href="#ma083ccabb4" x="179.681889" y="3.6" style="stroke: #000000; stroke-width: 0.5"/>
      </g>
     </g>
    </g>
    <g id="xtick_19">
     <g id="line2d_42">
      <g>
       <use xlink:href="#m768163fd23" x="197.436434" y="149.13" style="stroke: #000000; stroke-width: 0.5"/>
      </g>
     </g>
     <g id="line2d_43">
      <g>
       <use xlink:href="#ma083ccabb4" x="197.436434" y="3.6" style="stroke: #000000; stroke-width: 0.5"/>
      </g>
     </g>
    </g>
    <g id="xtick_20">
     <g id="line2d_44">
      <g>
       <use xlink:href="#m768163fd23" x="206.313707" y="149.13" style="stroke: #000000; stroke-width: 0.5"/>
      </g>
     </g>
     <g id="line2d_45">
      <g>
       <use xlink:href="#ma083ccabb4" x="206.313707" y="3.6" style="stroke: #000000; stroke-width: 0.5"/>
      </g>
     </g>
    </g>
    <g id="xtick_21">
     <g id="line2d_46">
      <g>
       <use xlink:href="#m768163fd23" x="215.19098" y="149.13" style="stroke: #000000; stroke-width: 0.5"/>
      </g>
     </g>
     <g id="line2d_47">
      <g>
       <use xlink:href="#ma083ccabb4" x="215.19098" y="3.6" style="stroke: #000000; stroke-width: 0.5"/>
      </g>
     </g>
    </g>
    <g id="xtick_22">
     <g id="line2d_48">
      <g>
       <use xlink:href="#m768163fd23" x="224.068253" y="149.13" style="stroke: #000000; stroke-width: 0.5"/>
      </g>
     </g>
     <g id="line2d_49">
      <g>
       <use xlink:href="#ma083ccabb4" x="224.068253" y="3.6" style="stroke: #000000; stroke-width: 0.5"/>
      </g>
     </g>
    </g>
    <g id="xtick_23">
     <g id="line2d_50">
      <g>
       <use xlink:href="#m768163fd23" x="241.822798" y="149.13" style="stroke: #000000; stroke-width: 0.5"/>
      </g>
     </g>
     <g id="line2d_51">
      <g>
       <use xlink:href="#ma083ccabb4" x="241.822798" y="3.6" style="stroke: #000000; stroke-width: 0.5"/>
      </g>
     </g>
    </g>
    <g id="text_6">
     <!-- $U$ [mV] -->
     <g transform="translate(127.913618 172.957657) scale(0.1 -0.1)">
      <defs>
       <path id="CMMI12-55" d="M 3238 1474 
C 3014 581 2272 57 1670 57 
C 1210 57 896 363 896 891 
C 896 916 896 1107 966 1387 
L 1594 3887 
C 1651 4103 1664 4167 2118 4167 
C 2234 4167 2298 4167 2298 4282 
C 2298 4352 2240 4352 2202 4352 
C 2086 4352 1952 4352 1830 4352 
L 1075 4352 
C 954 4352 819 4352 698 4352 
C 653 4352 576 4352 576 4231 
C 576 4167 621 4167 742 4167 
C 1126 4167 1126 4116 1126 4046 
C 1126 4008 1082 3824 1050 3715 
L 493 1488 
C 474 1418 435 1246 435 1075 
C 435 374 941 -128 1638 -128 
C 2285 -128 3002 384 3328 1197 
C 3373 1305 3430 1530 3469 1702 
C 3533 1933 3667 2496 3712 2662 
L 3955 3623 
C 4038 3956 4090 4167 4653 4167 
C 4704 4173 4730 4224 4730 4282 
C 4730 4352 4672 4352 4646 4352 
C 4557 4352 4442 4352 4352 4352 
L 4051 4352 
C 3654 4352 3450 4352 3443 4352 
C 3405 4352 3328 4352 3328 4231 
C 3328 4167 3379 4167 3424 4167 
C 3808 4167 3834 4020 3834 3905 
C 3834 3848 3834 3828 3808 3739 
L 3238 1474 
z
" transform="scale(0.015625)"/>
       <path id="CMR17-5b" d="M 1504 -1600 
L 1504 -1377 
L 902 -1377 
L 902 4544 
L 1504 4544 
L 1504 4767 
L 678 4767 
L 678 -1600 
L 1504 -1600 
z
" transform="scale(0.015625)"/>
       <path id="CMR17-6d" d="M 4326 1933 
C 4326 2252 4269 2790 3507 2790 
C 3072 2790 2771 2496 2656 2151 
L 2650 2151 
C 2573 2676 2195 2790 1837 2790 
C 1331 2790 1069 2400 973 2144 
L 966 2144 
L 966 2790 
L 211 2720 
L 211 2554 
C 589 2554 646 2515 646 2208 
L 646 428 
C 646 184 621 153 211 153 
L 211 -13 
C 365 0 646 0 813 0 
C 979 0 1267 0 1421 -13 
L 1421 153 
C 1011 153 986 178 986 428 
L 986 1658 
C 986 2247 1344 2688 1792 2688 
C 2266 2688 2317 2266 2317 1958 
L 2317 428 
C 2317 184 2291 153 1882 153 
L 1882 -13 
C 2035 0 2317 0 2483 0 
C 2650 0 2938 0 3091 -13 
L 3091 153 
C 2682 153 2656 178 2656 428 
L 2656 1658 
C 2656 2247 3014 2688 3462 2688 
C 3936 2688 3987 2266 3987 1958 
L 3987 428 
C 3987 184 3962 153 3552 153 
L 3552 -13 
C 3706 0 3987 0 4154 0 
C 4320 0 4608 0 4762 -13 
L 4762 153 
C 4352 153 4326 178 4326 428 
L 4326 1933 
z
" transform="scale(0.015625)"/>
       <path id="CMR17-56" d="M 3776 3745 
C 3834 3886 3936 4160 4365 4160 
L 4365 4332 
C 4218 4319 4051 4319 3891 4319 
C 3738 4319 3475 4319 3328 4332 
L 3328 4160 
C 3648 4160 3661 3936 3661 3898 
C 3661 3827 3642 3783 3622 3732 
L 2362 446 
L 1043 3886 
C 1024 3931 1011 3963 1011 3994 
C 1011 4160 1267 4160 1402 4160 
L 1402 4319 
C 1197 4319 896 4319 685 4319 
C 518 4319 218 4319 64 4332 
L 64 4160 
C 435 4160 506 4135 582 3931 
L 2106 -26 
C 2138 -115 2144 -128 2214 -128 
C 2285 -128 2291 -115 2323 -26 
L 3776 3745 
z
" transform="scale(0.015625)"/>
       <path id="CMR17-5d" d="M 915 4767 
L 90 4767 
L 90 4544 
L 691 4544 
L 691 -1377 
L 90 -1377 
L 90 -1600 
L 915 -1600 
L 915 4767 
z
" transform="scale(0.015625)"/>
      </defs>
      <use xlink:href="#CMMI12-55" transform="scale(0.996264)"/>
      <use xlink:href="#CMR17-5b" transform="translate(106.734739 0) scale(0.996264)"/>
      <use xlink:href="#CMR17-6d" transform="translate(131.605798 0) scale(0.996264)"/>
      <use xlink:href="#CMR17-56" transform="translate(208.525388 0) scale(0.996264)"/>
      <use xlink:href="#CMR17-5d" transform="translate(277.597817 0) scale(0.996264)"/>
     </g>
    </g>
   </g>
   <g id="matplotlib.axis_2">
    <g id="ytick_1">
     <g id="line2d_52">
      <path d="M 46.522798 116.645113 
L 241.822798 116.645113 
" clip-path="url(#p57c0e57195)" style="fill: none; stroke-dasharray: 1.85,0.8; stroke-dashoffset: 0; stroke: #000000; stroke-opacity: 0.5; stroke-width: 0.5"/>
     </g>
     <g id="line2d_53">
      <defs>
       <path id="mbf8bcbdb28" d="M 0 0 
L 3 0 
" style="stroke: #000000; stroke-width: 0.5"/>
      </defs>
      <g>
       <use xlink:href="#mbf8bcbdb28" x="46.522798" y="116.645113" style="stroke: #000000; stroke-width: 0.5"/>
      </g>
     </g>
     <g id="line2d_54">
      <defs>
       <path id="m17198ac2f3" d="M 0 0 
L -3 0 
" style="stroke: #000000; stroke-width: 0.5"/>
      </defs>
      <g>
       <use xlink:href="#m17198ac2f3" x="241.822798" y="116.645113" style="stroke: #000000; stroke-width: 0.5"/>
      </g>
     </g>
     <g id="text_7">
      <!-- $\mathdefault{−0.05}$ -->
      <g transform="translate(17.56264 120.104362) scale(0.1 -0.1)">
       <defs>
        <path id="CMMI12-3a" d="M 1178 307 
C 1178 492 1024 619 870 619 
C 685 619 557 466 557 313 
C 557 128 710 0 864 0 
C 1050 0 1178 153 1178 307 
z
" transform="scale(0.015625)"/>
        <path id="CMR17-35" d="M 730 3692 
C 794 3666 1056 3584 1325 3584 
C 1920 3584 2246 3911 2432 4100 
C 2432 4157 2432 4192 2394 4192 
C 2387 4192 2374 4192 2323 4163 
C 2099 4058 1837 3973 1517 3973 
C 1325 3973 1037 3999 723 4139 
C 653 4171 640 4171 634 4171 
C 602 4171 595 4164 595 4037 
L 595 2203 
C 595 2089 595 2057 659 2057 
C 691 2057 704 2070 736 2114 
C 941 2401 1222 2522 1542 2522 
C 1766 2522 2246 2382 2246 1289 
C 2246 1085 2246 715 2054 421 
C 1894 159 1645 25 1370 25 
C 947 25 518 320 403 814 
C 429 807 480 795 506 795 
C 589 795 749 840 749 1038 
C 749 1210 627 1280 506 1280 
C 358 1280 262 1190 262 1011 
C 262 454 704 -128 1382 -128 
C 2042 -128 2669 440 2669 1264 
C 2669 2030 2170 2624 1549 2624 
C 1222 2624 947 2503 730 2274 
L 730 3692 
z
" transform="scale(0.015625)"/>
       </defs>
       <use xlink:href="#CMSY10-0" transform="scale(0.996264)"/>
       <use xlink:href="#CMR17-30" transform="translate(77.487468 0) scale(0.996264)"/>
       <use xlink:href="#CMMI12-3a" transform="translate(123.177945 0) scale(0.996264)"/>
       <use xlink:href="#CMR17-30" transform="translate(150.275122 0) scale(0.996264)"/>
       <use xlink:href="#CMR17-35" transform="translate(195.965599 0) scale(0.996264)"/>
      </g>
     </g>
    </g>
    <g id="ytick_2">
     <g id="line2d_55">
      <path d="M 46.522798 75.948577 
L 241.822798 75.948577 
" clip-path="url(#p57c0e57195)" style="fill: none; stroke-dasharray: 1.85,0.8; stroke-dashoffset: 0; stroke: #000000; stroke-opacity: 0.5; stroke-width: 0.5"/>
     </g>
     <g id="line2d_56">
      <g>
       <use xlink:href="#mbf8bcbdb28" x="46.522798" y="75.948577" style="stroke: #000000; stroke-width: 0.5"/>
      </g>
     </g>
     <g id="line2d_57">
      <g>
       <use xlink:href="#m17198ac2f3" x="241.822798" y="75.948577" style="stroke: #000000; stroke-width: 0.5"/>
      </g>
     </g>
     <g id="text_8">
      <!-- $\mathdefault{0.00}$ -->
      <g transform="translate(25.311384 79.407826) scale(0.1 -0.1)">
       <use xlink:href="#CMR17-30" transform="scale(0.996264)"/>
       <use xlink:href="#CMMI12-3a" transform="translate(45.690477 0) scale(0.996264)"/>
       <use xlink:href="#CMR17-30" transform="translate(72.787654 0) scale(0.996264)"/>
       <use xlink:href="#CMR17-30" transform="translate(118.478131 0) scale(0.996264)"/>
      </g>
     </g>
    </g>
    <g id="ytick_3">
     <g id="line2d_58">
      <path d="M 46.522798 35.252041 
L 241.822798 35.252041 
" clip-path="url(#p57c0e57195)" style="fill: none; stroke-dasharray: 1.85,0.8; stroke-dashoffset: 0; stroke: #000000; stroke-opacity: 0.5; stroke-width: 0.5"/>
     </g>
     <g id="line2d_59">
      <g>
       <use xlink:href="#mbf8bcbdb28" x="46.522798" y="35.252041" style="stroke: #000000; stroke-width: 0.5"/>
      </g>
     </g>
     <g id="line2d_60">
      <g>
       <use xlink:href="#m17198ac2f3" x="241.822798" y="35.252041" style="stroke: #000000; stroke-width: 0.5"/>
      </g>
     </g>
     <g id="text_9">
      <!-- $\mathdefault{0.05}$ -->
      <g transform="translate(25.311384 38.71129) scale(0.1 -0.1)">
       <use xlink:href="#CMR17-30" transform="scale(0.996264)"/>
       <use xlink:href="#CMMI12-3a" transform="translate(45.690477 0) scale(0.996264)"/>
       <use xlink:href="#CMR17-30" transform="translate(72.787654 0) scale(0.996264)"/>
       <use xlink:href="#CMR17-35" transform="translate(118.478131 0) scale(0.996264)"/>
      </g>
     </g>
    </g>
    <g id="ytick_4">
     <g id="line2d_61">
      <defs>
       <path id="mc6a1106a92" d="M 0 0 
L 1.5 0 
" style="stroke: #000000; stroke-width: 0.5"/>
      </defs>
      <g>
       <use xlink:href="#mc6a1106a92" x="46.522798" y="141.063034" style="stroke: #000000; stroke-width: 0.5"/>
      </g>
     </g>
     <g id="line2d_62">
      <defs>
       <path id="m4c0f30c0be" d="M 0 0 
L -1.5 0 
" style="stroke: #000000; stroke-width: 0.5"/>
      </defs>
      <g>
       <use xlink:href="#m4c0f30c0be" x="241.822798" y="141.063034" style="stroke: #000000; stroke-width: 0.5"/>
      </g>
     </g>
    </g>
    <g id="ytick_5">
     <g id="line2d_63">
      <g>
       <use xlink:href="#mc6a1106a92" x="46.522798" y="132.923727" style="stroke: #000000; stroke-width: 0.5"/>
      </g>
     </g>
     <g id="line2d_64">
      <g>
       <use xlink:href="#m4c0f30c0be" x="241.822798" y="132.923727" style="stroke: #000000; stroke-width: 0.5"/>
      </g>
     </g>
    </g>
    <g id="ytick_6">
     <g id="line2d_65">
      <g>
       <use xlink:href="#mc6a1106a92" x="46.522798" y="124.78442" style="stroke: #000000; stroke-width: 0.5"/>
      </g>
     </g>
     <g id="line2d_66">
      <g>
       <use xlink:href="#m4c0f30c0be" x="241.822798" y="124.78442" style="stroke: #000000; stroke-width: 0.5"/>
      </g>
     </g>
    </g>
    <g id="ytick_7">
     <g id="line2d_67">
      <g>
       <use xlink:href="#mc6a1106a92" x="46.522798" y="108.505805" style="stroke: #000000; stroke-width: 0.5"/>
      </g>
     </g>
     <g id="line2d_68">
      <g>
       <use xlink:href="#m4c0f30c0be" x="241.822798" y="108.505805" style="stroke: #000000; stroke-width: 0.5"/>
      </g>
     </g>
    </g>
    <g id="ytick_8">
     <g id="line2d_69">
      <g>
       <use xlink:href="#mc6a1106a92" x="46.522798" y="100.366498" style="stroke: #000000; stroke-width: 0.5"/>
      </g>
     </g>
     <g id="line2d_70">
      <g>
       <use xlink:href="#m4c0f30c0be" x="241.822798" y="100.366498" style="stroke: #000000; stroke-width: 0.5"/>
      </g>
     </g>
    </g>
    <g id="ytick_9">
     <g id="line2d_71">
      <g>
       <use xlink:href="#mc6a1106a92" x="46.522798" y="92.227191" style="stroke: #000000; stroke-width: 0.5"/>
      </g>
     </g>
     <g id="line2d_72">
      <g>
       <use xlink:href="#m4c0f30c0be" x="241.822798" y="92.227191" style="stroke: #000000; stroke-width: 0.5"/>
      </g>
     </g>
    </g>
    <g id="ytick_10">
     <g id="line2d_73">
      <g>
       <use xlink:href="#mc6a1106a92" x="46.522798" y="84.087884" style="stroke: #000000; stroke-width: 0.5"/>
      </g>
     </g>
     <g id="line2d_74">
      <g>
       <use xlink:href="#m4c0f30c0be" x="241.822798" y="84.087884" style="stroke: #000000; stroke-width: 0.5"/>
      </g>
     </g>
    </g>
    <g id="ytick_11">
     <g id="line2d_75">
      <g>
       <use xlink:href="#mc6a1106a92" x="46.522798" y="67.80927" style="stroke: #000000; stroke-width: 0.5"/>
      </g>
     </g>
     <g id="line2d_76">
      <g>
       <use xlink:href="#m4c0f30c0be" x="241.822798" y="67.80927" style="stroke: #000000; stroke-width: 0.5"/>
      </g>
     </g>
    </g>
    <g id="ytick_12">
     <g id="line2d_77">
      <g>
       <use xlink:href="#mc6a1106a92" x="46.522798" y="59.669963" style="stroke: #000000; stroke-width: 0.5"/>
      </g>
     </g>
     <g id="line2d_78">
      <g>
       <use xlink:href="#m4c0f30c0be" x="241.822798" y="59.669963" style="stroke: #000000; stroke-width: 0.5"/>
      </g>
     </g>
    </g>
    <g id="ytick_13">
     <g id="line2d_79">
      <g>
       <use xlink:href="#mc6a1106a92" x="46.522798" y="51.530656" style="stroke: #000000; stroke-width: 0.5"/>
      </g>
     </g>
     <g id="line2d_80">
      <g>
       <use xlink:href="#m4c0f30c0be" x="241.822798" y="51.530656" style="stroke: #000000; stroke-width: 0.5"/>
      </g>
     </g>
    </g>
    <g id="ytick_14">
     <g id="line2d_81">
      <g>
       <use xlink:href="#mc6a1106a92" x="46.522798" y="43.391348" style="stroke: #000000; stroke-width: 0.5"/>
      </g>
     </g>
     <g id="line2d_82">
      <g>
       <use xlink:href="#m4c0f30c0be" x="241.822798" y="43.391348" style="stroke: #000000; stroke-width: 0.5"/>
      </g>
     </g>
    </g>
    <g id="ytick_15">
     <g id="line2d_83">
      <g>
       <use xlink:href="#mc6a1106a92" x="46.522798" y="27.112734" style="stroke: #000000; stroke-width: 0.5"/>
      </g>
     </g>
     <g id="line2d_84">
      <g>
       <use xlink:href="#m4c0f30c0be" x="241.822798" y="27.112734" style="stroke: #000000; stroke-width: 0.5"/>
      </g>
     </g>
    </g>
    <g id="ytick_16">
     <g id="line2d_85">
      <g>
       <use xlink:href="#mc6a1106a92" x="46.522798" y="18.973427" style="stroke: #000000; stroke-width: 0.5"/>
      </g>
     </g>
     <g id="line2d_86">
      <g>
       <use xlink:href="#m4c0f30c0be" x="241.822798" y="18.973427" style="stroke: #000000; stroke-width: 0.5"/>
      </g>
     </g>
    </g>
    <g id="ytick_17">
     <g id="line2d_87">
      <g>
       <use xlink:href="#mc6a1106a92" x="46.522798" y="10.83412" style="stroke: #000000; stroke-width: 0.5"/>
      </g>
     </g>
     <g id="line2d_88">
      <g>
       <use xlink:href="#m4c0f30c0be" x="241.822798" y="10.83412" style="stroke: #000000; stroke-width: 0.5"/>
      </g>
     </g>
    </g>
    <g id="text_10">
     <!-- $I$ [pA] -->
     <g transform="translate(11.07198 89.876846) rotate(-90) scale(0.1 -0.1)">
      <defs>
       <path id="CMMI12-49" d="M 2355 3880 
C 2413 4103 2426 4167 2893 4167 
C 3034 4167 3085 4167 3085 4288 
C 3085 4352 3014 4352 2995 4352 
C 2880 4352 2739 4352 2624 4352 
L 1837 4352 
C 1709 4352 1562 4352 1434 4352 
C 1382 4352 1312 4352 1312 4231 
C 1312 4167 1363 4167 1491 4167 
C 1888 4167 1888 4116 1888 4046 
C 1888 4002 1875 3963 1862 3906 
L 998 472 
C 941 249 928 185 461 185 
C 320 185 262 185 262 64 
C 262 0 326 0 358 0 
C 474 0 614 0 730 0 
L 1517 0 
C 1645 0 1786 0 1914 0 
C 1965 0 2042 0 2042 115 
C 2042 185 2003 185 1862 185 
C 1466 185 1466 236 1466 312 
C 1466 325 1466 357 1491 459 
L 2355 3880 
z
" transform="scale(0.015625)"/>
       <path id="CMR17-70" d="M 1408 -1063 
C 998 -1063 973 -1037 973 -789 
L 973 402 
C 1158 134 1427 -38 1766 -38 
C 2406 -38 3053 523 3053 1388 
C 3053 2191 2496 2802 1837 2802 
C 1453 2802 1139 2592 960 2338 
L 960 2802 
L 198 2732 
L 198 2567 
C 576 2567 634 2528 634 2223 
L 634 -789 
C 634 -1031 608 -1063 198 -1063 
L 198 -1228 
C 352 -1216 634 -1216 800 -1216 
C 966 -1216 1254 -1216 1408 -1228 
L 1408 -1063 
z
M 973 2012 
C 973 2102 973 2235 1222 2471 
C 1254 2497 1472 2688 1792 2688 
C 2259 2688 2643 2108 2643 1382 
C 2643 656 2234 64 1728 64 
C 1498 64 1248 172 1056 472 
C 973 612 973 650 973 752 
L 973 2012 
z
" transform="scale(0.015625)"/>
       <path id="CMR17-41" d="M 2323 4378 
C 2291 4461 2278 4480 2214 4480 
C 2150 4480 2138 4461 2106 4378 
L 749 566 
C 627 223 371 153 147 153 
L 147 -13 
C 262 0 518 0 640 0 
C 800 0 1056 0 1210 -13 
L 1210 153 
C 909 153 864 361 864 439 
C 864 497 877 530 890 569 
L 1229 1536 
L 2906 1536 
L 3290 442 
C 3322 365 3322 352 3322 327 
C 3322 153 3046 153 2925 153 
L 2925 0 
C 3110 0 3443 0 3642 0 
C 3808 0 4128 0 4282 -13 
L 4282 153 
C 3942 153 3827 153 3744 387 
L 2323 4378 
z
M 2067 3893 
L 2848 1702 
L 1286 1702 
L 2067 3893 
z
" transform="scale(0.015625)"/>
      </defs>
      <use xlink:href="#CMMI12-49" transform="scale(0.996264)"/>
      <use xlink:href="#CMR17-5b" transform="translate(80.93248 0) scale(0.996264)"/>
      <use xlink:href="#CMR17-70" transform="translate(105.803539 0) scale(0.996264)"/>
      <use xlink:href="#CMR17-41" transform="translate(156.698909 0) scale(0.996264)"/>
      <use xlink:href="#CMR17-5d" transform="translate(225.771338 0) scale(0.996264)"/>
     </g>
    </g>
   </g>
   <g id="line2d_89">
    <path d="M 144.172798 69.979004 
L 171.603571 66.20404 
L 184.475616 65.021014 
L 196.371162 64.380557 
L 206.935116 62.698391 
L 215.989934 60.17617 
L 223.269298 56.437567 
L 228.595662 50.224824 
L 231.835866 37.563194 
L 232.945525 26.323308 
L 231.835866 15.577127 
L 228.595662 15.197886 
L 223.269298 16.045734 
L 215.989934 28.442995 
L 206.935116 47.989068 
L 196.371162 59.639109 
L 184.475616 68.871877 
L 171.603571 72.843311 
L 158.06573 74.957646 
L 130.279866 77.640529 
L 116.742025 79.321039 
L 103.86998 80.712482 
L 81.41048 83.413379 
L 72.355662 84.833016 
L 65.076298 87.862724 
L 59.749934 97.113254 
L 56.50973 112.965533 
L 55.400071 128.918956 
L 56.50973 138.029225 
L 59.749934 142.491183 
L 65.076298 140.737362 
L 72.355662 132.174584 
L 81.41048 116.798257 
L 91.974434 105.227506 
L 103.86998 94.078826 
L 116.742025 89.115004 
L 130.279866 86.316467 
L 144.172798 85.125477 
L 158.06573 82.388727 
L 171.603571 79.25755 
L 196.371162 77.86212 
L 206.935116 77.035749 
L 215.989934 75.221232 
L 223.269298 71.815655 
L 228.595662 64.540487 
L 231.835866 55.810327 
L 232.945525 42.497824 
L 231.835866 31.74854 
L 228.595662 29.655746 
L 223.269298 29.439955 
L 215.989934 39.430934 
L 206.935116 59.300916 
L 196.371162 68.66173 
L 184.475616 76.35943 
L 171.603571 78.188474 
L 158.06573 80.639141 
L 144.172798 82.857897 
L 116.742025 86.582108 
L 91.974434 91.432237 
L 81.41048 93.571018 
L 72.355662 96.693201 
L 65.076298 102.162216 
L 59.749934 108.480676 
L 56.50973 118.76894 
L 55.400071 134.500111 
L 56.50973 142.515 
L 59.749934 137.017762 
L 65.076298 134.972648 
L 72.355662 125.131886 
L 81.41048 105.123641 
L 91.974434 94.007605 
L 103.86998 86.076312 
L 116.742025 83.363497 
L 130.279866 81.111347 
L 144.172798 79.081453 
L 158.06573 76.501202 
L 171.603571 74.887313 
L 184.475616 73.933526 
L 196.371162 72.868258 
L 206.935116 70.765602 
L 215.989934 67.112767 
L 223.269298 62.337662 
L 228.595662 54.938744 
L 231.835866 43.83453 
L 232.945525 31.685779 
L 231.835866 22.89696 
L 228.595662 22.253124 
L 223.269298 26.364297 
L 215.989934 37.117087 
L 206.935116 52.18661 
L 196.371162 62.149688 
L 184.475616 70.320373 
L 171.603571 71.683198 
L 158.06573 74.351006 
L 144.172798 76.519265 
L 130.279866 78.802694 
L 116.742025 80.57466 
L 103.86998 82.987716 
L 91.974434 86.778154 
L 81.41048 87.283663 
L 72.355662 90.636718 
L 65.076298 94.949103 
L 59.749934 101.280192 
L 56.50973 110.616764 
L 55.400071 122.739523 
L 56.50973 132.846351 
L 59.749934 135.030646 
L 65.076298 134.158224 
L 72.355662 122.311334 
L 81.41048 103.140209 
L 91.974434 90.830845 
L 103.86998 83.281538 
L 116.742025 80.316857 
L 130.279866 78.421058 
L 144.172798 76.763505 
L 158.06573 74.831859 
L 184.475616 71.920515 
L 196.371162 70.288136 
L 206.935116 70.010702 
L 215.989934 68.305462 
L 223.269298 66.086666 
L 228.595662 60.961673 
L 231.835866 51.596523 
L 232.945525 39.507893 
L 231.835866 25.635478 
L 228.595662 20.435244 
L 223.269298 22.455256 
L 215.989934 32.447347 
L 206.935116 48.755793 
L 196.371162 57.533219 
L 184.475616 63.870607 
L 171.603571 67.104923 
L 158.06573 69.777393 
L 144.172798 71.929133 
L 130.279866 73.877226 
L 103.86998 77.842501 
L 91.974434 79.435115 
L 81.41048 81.053114 
L 72.355662 83.284108 
L 65.076298 86.801562 
L 59.749934 92.308504 
L 56.50973 101.943046 
L 55.400071 115.701097 
L 56.50973 127.123444 
L 59.749934 131.928435 
L 65.076298 130.711111 
L 72.355662 121.908727 
L 81.41048 105.45307 
L 91.974434 95.491052 
L 103.86998 85.604726 
L 116.742025 82.145711 
L 130.279866 81.054468 
L 144.172798 78.556832 
L 171.603571 73.176873 
L 184.475616 71.05606 
L 196.371162 69.488781 
L 206.935116 67.774035 
L 215.989934 65.464572 
L 223.269298 62.261262 
L 228.595662 56.615415 
L 231.835866 44.810808 
L 232.945525 31.453901 
L 231.835866 23.739843 
L 228.595662 19.865026 
L 223.269298 24.69902 
L 215.989934 33.369444 
L 206.935116 48.522448 
L 196.371162 59.050822 
L 184.475616 66.853216 
L 158.06573 74.952549 
L 144.172798 79.761864 
L 130.279866 82.230223 
L 116.742025 85.09271 
L 103.86998 89.197588 
L 81.41048 95.911189 
L 72.355662 97.767879 
L 65.076298 101.858935 
L 59.749934 109.335093 
L 56.50973 121.619085 
L 55.400071 132.289847 
L 56.50973 138.168964 
L 59.749934 140.418513 
L 65.076298 132.522811 
L 72.355662 123.079331 
L 81.41048 107.852866 
L 91.974434 98.114713 
L 103.86998 88.069682 
L 116.742025 82.514341 
L 130.279866 79.602403 
L 144.172798 76.78515 
L 158.06573 74.833889 
L 171.603571 72.654288 
L 184.475616 70.945001 
L 196.371162 68.51315 
L 206.935116 65.939977 
L 215.989934 62.528025 
L 223.269298 58.171147 
L 228.595662 52.895371 
L 231.835866 45.895877 
L 232.945525 34.739418 
L 231.835866 26.595678 
L 228.595662 22.27318 
L 223.269298 20.813847 
L 215.989934 31.168486 
L 206.935116 46.551041 
L 196.371162 54.581103 
L 184.475616 61.735551 
L 171.603571 65.52887 
L 158.06573 68.483991 
L 144.172798 70.336322 
L 116.742025 74.434986 
L 103.86998 77.201925 
L 91.974434 79.531062 
L 72.355662 83.724389 
L 65.076298 83.073382 
L 59.749934 87.790479 
L 56.50973 97.739531 
L 55.400071 109.987221 
L 56.50973 121.11687 
L 59.749934 124.355027 
L 65.076298 122.161369 
L 72.355662 113.182983 
L 81.41048 96.315087 
L 91.974434 88.418559 
L 103.86998 81.282533 
L 116.742025 77.704254 
L 130.279866 74.51659 
L 144.172798 72.245702 
L 158.06573 69.785373 
L 171.603571 67.708653 
L 184.475616 67.196526 
L 215.989934 60.775985 
L 223.269298 57.800717 
L 228.595662 52.991073 
L 231.835866 42.230121 
L 232.945525 26.701489 
L 231.835866 18.031913 
L 228.595662 15.395896 
L 223.269298 20.367269 
L 215.989934 32.207039 
L 206.935116 48.777366 
L 184.475616 64.288425 
L 171.603571 69.282652 
L 158.06573 73.530438 
L 116.742025 76.656093 
L 103.86998 78.235066 
L 81.41048 80.196122 
L 72.355662 82.030174 
L 65.076298 85.71958 
L 59.749934 92.063257 
L 56.50973 103.16293 
L 55.400071 118.581339 
L 56.50973 127.348686 
L 59.749934 131.709881 
L 65.076298 132.524055 
L 72.355662 122.908248 
L 81.41048 103.784137 
L 91.974434 93.495239 
L 103.86998 84.531577 
L 116.742025 80.749385 
L 130.279866 78.604419 
L 144.172798 76.925203 
L 158.06573 75.552785 
L 171.603571 72.318517 
L 184.475616 70.765196 
L 196.371162 69.688804 
L 206.935116 68.613297 
L 215.989934 66.462599 
L 223.269298 63.670238 
L 228.595662 58.513671 
L 231.835866 49.329958 
L 232.945525 38.284146 
L 231.835866 30.234842 
L 228.595662 27.63593 
L 223.269298 25.735418 
L 215.989934 37.200717 
L 206.935116 53.485669 
L 196.371162 60.905786 
L 184.475616 69.407416 
L 171.603571 72.541808 
L 158.06573 73.497976 
L 144.172798 75.833471 
L 130.279866 77.142739 
L 103.86998 77.636565 
L 91.974434 78.040222 
L 81.41048 78.561869 
L 72.355662 79.459259 
L 65.076298 82.439969 
L 59.749934 86.783698 
L 56.50973 93.207984 
L 55.400071 103.61529 
L 56.50973 111.325107 
L 59.749934 113.710919 
L 65.076298 113.031665 
L 72.355662 106.12302 
L 81.41048 92.346856 
L 91.974434 85.124383 
L 103.86998 79.065809 
L 116.742025 76.685337 
L 130.279866 75.080871 
L 144.172798 74.312942 
L 196.371162 72.360875 
L 206.935116 71.607047 
L 215.989934 70.415217 
L 223.269298 67.029837 
L 228.595662 59.869963 
L 231.835866 49.808978 
L 232.945525 36.954005 
L 231.835866 25.473304 
L 228.595662 20.630163 
L 223.269298 26.027945 
L 215.989934 37.496237 
L 206.935116 54.32752 
L 196.371162 61.96198 
L 184.475616 69.183992 
L 171.603571 71.953854 
L 158.06573 73.636667 
L 116.742025 75.43087 
L 103.86998 76.12251 
L 91.974434 76.568284 
L 81.41048 77.135853 
L 72.355662 78.473996 
L 65.076298 79.93582 
L 59.749934 86.172819 
L 56.50973 98.73147 
L 55.400071 111.908557 
L 56.50973 121.453764 
L 59.749934 124.114323 
L 65.076298 123.48464 
L 72.355662 113.071591 
L 81.41048 97.386752 
L 91.974434 89.883596 
L 103.86998 83.250936 
L 116.742025 80.649304 
L 130.279866 78.674411 
L 144.172798 77.395421 
L 184.475616 74.767648 
L 196.371162 73.49743 
L 206.935116 71.789451 
L 223.269298 67.220619 
L 228.595662 61.19808 
L 231.835866 50.851393 
L 232.945525 39.3289 
L 231.835866 28.305819 
L 228.595662 25.858812 
L 223.269298 27.160816 
L 215.989934 38.322557 
L 206.935116 54.365661 
L 196.371162 64.528004 
L 184.475616 71.402996 
L 171.603571 74.058359 
L 158.06573 76.040396 
L 144.172798 77.280686 
L 130.279866 78.976431 
L 116.742025 83.024295 
L 91.974434 86.378777 
L 81.41048 88.81667 
L 72.355662 92.036227 
L 65.076298 96.773782 
L 59.749934 102.533367 
L 56.50973 112.720457 
L 55.400071 120.707797 
L 56.50973 124.807116 
L 59.749934 128.828282 
L 65.076298 129.649089 
L 72.355662 120.671909 
L 81.41048 105.217869 
L 91.974434 96.579965 
L 103.86998 88.948983 
L 116.742025 85.648168 
L 130.279866 82.803882 
L 144.172798 80.732977 
L 171.603571 76.999026 
L 184.475616 75.570846 
L 206.935116 73.454348 
L 215.989934 71.702394 
L 223.269298 67.740381 
L 228.595662 60.895597 
L 231.835866 47.169943 
L 232.945525 35.420993 
L 231.835866 24.856083 
L 228.595662 21.757472 
L 223.269298 22.188341 
L 215.989934 32.368608 
L 206.935116 47.381277 
L 196.371162 56.785805 
L 184.475616 65.840356 
L 171.603571 70.286011 
L 158.06573 73.0536 
L 130.279866 77.511223 
L 116.742025 79.275286 
L 103.86998 79.229719 
L 91.974434 80.329638 
L 81.41048 82.082526 
L 72.355662 84.29522 
L 65.076298 86.959308 
L 59.749934 90.072855 
L 56.50973 100.32773 
L 55.400071 111.121316 
L 56.50973 121.314221 
L 59.749934 124.968443 
L 65.076298 125.385046 
L 72.355662 114.300579 
L 81.41048 96.879623 
L 91.974434 87.919436 
L 103.86998 80.926585 
L 116.742025 78.141738 
L 130.279866 76.285077 
L 158.06573 74.031799 
L 171.603571 73.062964 
L 184.475616 71.825932 
L 196.371162 71.003279 
L 206.935116 69.888855 
L 215.989934 68.001567 
L 223.269298 66.647741 
L 228.595662 66.272851 
L 231.835866 56.613678 
L 232.945525 42.705445 
L 231.835866 30.793951 
L 228.595662 25.569148 
L 223.269298 27.284114 
L 215.989934 36.886289 
L 206.935116 55.212138 
L 196.371162 63.888214 
L 184.475616 72.524324 
L 171.603571 77.246818 
L 158.06573 78.535297 
L 144.172798 78.914694 
L 130.279866 78.619439 
L 81.41048 79.547883 
L 72.355662 80.181605 
L 65.076298 82.125008 
L 59.749934 86.75589 
L 56.50973 97.167082 
L 55.400071 111.19644 
L 56.50973 120.120851 
L 59.749934 122.49857 
L 65.076298 123.583399 
L 72.355662 115.774888 
L 81.41048 101.014752 
L 91.974434 91.727963 
L 103.86998 83.690314 
L 116.742025 80.618179 
L 130.279866 78.935468 
L 144.172798 78.08464 
L 158.06573 76.962446 
L 171.603571 75.506084 
L 184.475616 74.650207 
L 196.371162 73.982913 
L 206.935116 74.135589 
L 215.989934 73.594898 
L 223.269298 71.448816 
L 228.595662 67.264956 
L 231.835866 57.60991 
L 232.945525 48.006104 
L 231.835866 41.421737 
L 228.595662 37.67236 
L 223.269298 39.094111 
L 215.989934 46.746397 
L 206.935116 60.201405 
L 196.371162 67.691711 
L 184.475616 74.307929 
L 171.603571 76.743187 
L 144.172798 80.347299 
L 130.279866 81.471625 
L 103.86998 83.067501 
L 91.974434 84.63151 
L 81.41048 85.711492 
L 72.355662 87.58265 
L 65.076298 91.114487 
L 59.749934 97.55002 
L 56.50973 108.234654 
L 55.400071 120.956573 
L 56.50973 128.524074 
L 59.749934 130.44912 
L 65.076298 128.202035 
L 72.355662 118.393695 
L 81.41048 102.335255 
L 91.974434 92.439571 
L 103.86998 84.422854 
L 116.742025 81.442524 
L 130.279866 78.718624 
L 144.172798 77.409694 
L 171.603571 75.086156 
L 184.475616 73.563811 
L 196.371162 71.848531 
L 206.935116 70.504539 
L 215.989934 68.55872 
L 223.269298 66.010797 
L 228.595662 61.312187 
L 231.835866 52.123216 
L 232.945525 38.653548 
L 231.835866 28.053209 
L 228.595662 31.356644 
L 223.269298 33.033426 
L 215.989934 43.473646 
L 206.935116 61.084716 
L 196.371162 68.788772 
L 184.475616 72.312027 
L 171.603571 74.345687 
L 158.06573 76.96858 
L 144.172798 79.390657 
L 130.279866 80.812716 
L 116.742025 82.957855 
L 81.41048 89.464042 
L 72.355662 92.308279 
L 65.076298 95.470531 
L 59.749934 99.213072 
L 56.50973 108.879877 
L 55.400071 116.387092 
L 56.50973 122.116336 
L 59.749934 126.141498 
L 65.076298 127.546435 
L 72.355662 117.537177 
L 81.41048 104.847962 
L 91.974434 96.634682 
L 103.86998 86.641149 
L 116.742025 80.848203 
L 130.279866 78.405391 
L 144.172798 74.494404 
L 171.603571 72.415991 
L 184.475616 72.989907 
L 206.935116 71.726289 
L 215.989934 69.958748 
L 223.269298 66.961508 
L 228.595662 60.013392 
L 231.835866 51.997683 
L 232.945525 40.916313 
L 231.835866 32.347049 
L 228.595662 33.759366 
L 223.269298 31.445988 
L 215.989934 38.037045 
L 206.935116 53.179035 
L 196.371162 62.183623 
L 184.475616 69.692032 
L 171.603571 72.215154 
L 158.06573 73.422861 
L 144.172798 73.957197 
L 130.279866 74.691183 
L 116.742025 75.719474 
L 103.86998 76.883506 
L 91.974434 77.62648 
L 81.41048 80.349205 
L 72.355662 83.004084 
L 65.076298 87.448564 
L 59.749934 92.624852 
L 56.50973 102.273706 
L 55.400071 112.088652 
L 56.50973 119.70129 
L 59.749934 123.328044 
L 65.076298 124.513327 
L 72.355662 115.175939 
L 81.41048 97.543593 
L 91.974434 91.062443 
L 103.86998 83.095613 
L 116.742025 80.988492 
L 130.279866 79.758307 
L 158.06573 78.595311 
L 171.603571 77.779811 
L 184.475616 77.28813 
L 196.371162 76.356277 
L 206.935116 75.105836 
L 215.989934 73.878385 
L 223.269298 71.108588 
L 228.595662 65.97204 
L 231.835866 58.078264 
L 232.945525 44.848237 
L 231.835866 34.257344 
L 228.595662 26.408771 
L 223.269298 26.67049 
L 215.989934 37.975534 
L 206.935116 56.154061 
L 196.371162 64.656744 
L 184.475616 72.825936 
L 171.603571 75.543085 
L 158.06573 78.033983 
L 144.172798 79.911015 
L 130.279866 81.01316 
L 116.742025 82.36689 
L 103.86998 83.339931 
L 91.974434 84.480896 
L 81.41048 84.637781 
L 72.355662 83.73738 
L 65.076298 85.648938 
L 59.749934 91.310162 
L 56.50973 100.687247 
L 55.400071 112.153151 
L 59.749934 118.293832 
L 65.076298 119.537917 
L 72.355662 112.110394 
L 81.41048 97.786166 
L 91.974434 89.158428 
L 103.86998 81.761286 
L 116.742025 78.678173 
L 130.279866 76.43117 
L 144.172798 74.948324 
L 158.06573 72.925123 
L 171.603571 71.365076 
L 184.475616 69.490123 
L 196.371162 68.256648 
L 206.935116 67.585423 
L 215.989934 67.665972 
L 223.269298 64.420144 
L 228.595662 60.368524 
L 231.835866 53.298357 
L 232.945525 41.814516 
L 231.835866 29.602657 
L 228.595662 25.341909 
L 223.269298 25.374536 
L 215.989934 35.85245 
L 206.935116 50.728579 
L 196.371162 60.19572 
L 184.475616 67.454665 
L 171.603571 69.500628 
L 158.06573 71.428871 
L 144.172798 73.897036 
L 130.279866 76.088205 
L 116.742025 77.171742 
L 103.86998 76.828083 
L 91.974434 79.099369 
L 81.41048 79.54179 
L 72.355662 78.633341 
L 65.076298 81.412619 
L 59.749934 86.809055 
L 56.50973 96.421309 
L 55.400071 107.269905 
L 56.50973 116.68048 
L 59.749934 122.386197 
L 65.076298 118.937037 
L 72.355662 109.434733 
L 81.41048 92.714987 
L 91.974434 83.09851 
L 103.86998 76.021435 
L 116.742025 73.078166 
L 130.279866 70.84615 
L 144.172798 68.93997 
L 158.06573 69.217304 
L 171.603571 69.617698 
L 184.475616 67.834188 
L 196.371162 66.030138 
L 206.935116 63.575281 
L 215.989934 60.82733 
L 223.269298 57.496229 
L 228.595662 51.747043 
L 231.835866 39.310022 
L 232.945525 23.265677 
L 231.835866 10.924875 
L 228.595662 10.215 
L 223.269298 13.935777 
L 215.989934 24.506415 
L 206.935116 42.234576 
L 196.371162 52.317591 
L 184.475616 61.123156 
L 158.06573 68.289652 
L 144.172798 70.404223 
L 130.279866 73.257182 
L 116.742025 74.607017 
L 103.86998 75.630218 
L 91.974434 76.892719 
L 81.41048 77.736473 
L 72.355662 79.793272 
L 65.076298 81.797422 
L 59.749934 85.752469 
L 56.50973 92.873911 
L 55.400071 104.887577 
L 56.50973 117.188295 
L 59.749934 124.68704 
L 65.076298 120.736687 
L 72.355662 110.0908 
L 81.41048 94.539644 
L 91.974434 86.032667 
L 103.86998 77.539818 
L 116.742025 75.371625 
L 130.279866 73.965698 
L 144.172798 72.132886 
L 158.06573 69.785189 
L 184.475616 66.711061 
L 196.371162 64.614707 
L 206.935116 64.138385 
L 215.989934 62.613464 
L 223.269298 59.108317 
L 228.595662 54.053101 
L 231.835866 46.988196 
L 232.945525 35.747521 
L 231.835866 23.427149 
L 228.595662 16.188046 
L 223.269298 16.826936 
L 215.989934 30.159924 
L 206.935116 47.908708 
L 196.371162 56.849466 
L 184.475616 66.558745 
L 171.603571 70.498759 
L 158.06573 73.207639 
L 130.279866 76.851792 
L 116.742025 78.934661 
L 91.974434 82.994332 
L 81.41048 82.365824 
L 72.355662 84.230166 
L 65.076298 87.722979 
L 59.749934 91.950202 
L 56.50973 98.699096 
L 55.400071 110.513268 
L 56.50973 116.108751 
L 59.749934 123.561737 
L 65.076298 124.771745 
L 72.355662 112.852276 
L 81.41048 97.591304 
L 91.974434 89.21552 
L 103.86998 82.321036 
L 116.742025 79.780265 
L 130.279866 75.365041 
L 158.06573 71.711805 
L 171.603571 70.438755 
L 184.475616 68.892835 
L 196.371162 67.321153 
L 206.935116 65.694827 
L 215.989934 62.563611 
L 223.269298 57.807291 
L 228.595662 49.392972 
L 231.835866 39.586038 
L 232.945525 26.473238 
L 231.835866 18.765553 
L 228.595662 12.376559 
L 223.269298 13.618907 
L 215.989934 25.886202 
L 206.935116 43.689368 
L 196.371162 57.051699 
L 184.475616 66.404116 
L 171.603571 69.533942 
L 158.06573 71.298107 
L 144.172798 72.087143 
L 130.279866 73.048369 
L 116.742025 75.787167 
L 103.86998 77.08002 
L 81.41048 77.977518 
L 72.355662 79.198315 
L 65.076298 80.929104 
L 59.749934 84.899638 
L 56.50973 92.768458 
L 55.400071 101.505208 
L 56.50973 111.911514 
L 59.749934 115.549474 
L 65.076298 117.556595 
L 72.355662 108.373802 
L 81.41048 91.577585 
L 91.974434 84.685651 
L 103.86998 78.172815 
L 116.742025 76.165365 
L 116.742025 76.165365 
" clip-path="url(#p57c0e57195)" style="fill: none; stroke: #4477aa; stroke-linecap: square"/>
   </g>
   <g id="patch_3">
    <path d="M 46.522798 149.13 
L 46.522798 3.6 
" style="fill: none; stroke: #000000; stroke-width: 0.5; stroke-linejoin: miter; stroke-linecap: square"/>
   </g>
   <g id="patch_4">
    <path d="M 241.822798 149.13 
L 241.822798 3.6 
" style="fill: none; stroke: #000000; stroke-width: 0.5; stroke-linejoin: miter; stroke-linecap: square"/>
   </g>
   <g id="patch_5">
    <path d="M 46.522798 149.13 
L 241.822798 149.13 
" style="fill: none; stroke: #000000; stroke-width: 0.5; stroke-linejoin: miter; stroke-linecap: square"/>
   </g>
   <g id="patch_6">
    <path d="M 46.522798 3.6 
L 241.822798 3.6 
" style="fill: none; stroke: #000000; stroke-width: 0.5; stroke-linejoin: miter; stroke-linecap: square"/>
   </g>
  </g>
 </g>
 <defs>
  <clipPath id="p57c0e57195">
   <rect x="46.522798" y="3.6" width="195.3" height="145.53"/>
  </clipPath>
 </defs>
</svg>
