<?xml version="1.0" encoding="utf-8" standalone="no"?>
<!DOCTYPE svg PUBLIC "-//W3C//DTD SVG 1.1//EN"
  "http://www.w3.org/Graphics/SVG/1.1/DTD/svg11.dtd">
<svg xmlns:xlink="http://www.w3.org/1999/xlink" width="229.925311pt" height="182.507566pt" viewBox="0 0 229.925311 182.507566" xmlns="http://www.w3.org/2000/svg" version="1.1">
 <metadata>
  <rdf:RDF xmlns:dc="http://purl.org/dc/elements/1.1/" xmlns:cc="http://creativecommons.org/ns#" xmlns:rdf="http://www.w3.org/1999/02/22-rdf-syntax-ns#">
   <cc:Work>
    <dc:type rdf:resource="http://purl.org/dc/dcmitype/StillImage"/>
    <dc:date>2024-05-11T15:50:03.474998</dc:date>
    <dc:format>image/svg+xml</dc:format>
    <dc:creator>
     <cc:Agent>
      <dc:title>Matplotlib v3.7.1, https://matplotlib.org/</dc:title>
     </cc:Agent>
    </dc:creator>
   </cc:Work>
  </rdf:RDF>
 </metadata>
 <defs>
  <style type="text/css">*{stroke-linejoin: round; stroke-linecap: butt}</style>
 </defs>
 <g id="figure_1">
  <g id="patch_1">
   <path d="M 0 182.507566 
L 229.925311 182.507566 
L 229.925311 0 
L 0 0 
L 0 182.507566 
z
" style="fill: none"/>
  </g>
  <g id="axes_1">
   <g id="patch_2">
    <path d="M 31.025311 152.589249 
L 226.325311 152.589249 
L 226.325311 7.059249 
L 31.025311 7.059249 
L 31.025311 152.589249 
z
" style="fill: none"/>
   </g>
   <g id="matplotlib.axis_1">
    <g id="xtick_1">
     <g id="line2d_1">
      <path d="M 39.902583 152.589249 
L 39.902583 7.059249 
" clip-path="url(#p5e5d7b9fc2)" style="fill: none; stroke-dasharray: 1.85,0.8; stroke-dashoffset: 0; stroke: #000000; stroke-opacity: 0.5; stroke-width: 0.5"/>
     </g>
     <g id="line2d_2">
      <defs>
       <path id="mb7e3a5f8f9" d="M 0 0 
L 0 -3 
" style="stroke: #000000; stroke-width: 0.5"/>
      </defs>
      <g>
       <use xlink:href="#mb7e3a5f8f9" x="39.902583" y="152.589249" style="stroke: #000000; stroke-width: 0.5"/>
      </g>
     </g>
     <g id="line2d_3">
      <defs>
       <path id="mf93ad8b68c" d="M 0 0 
L 0 3 
" style="stroke: #000000; stroke-width: 0.5"/>
      </defs>
      <g>
       <use xlink:href="#mf93ad8b68c" x="39.902583" y="7.059249" style="stroke: #000000; stroke-width: 0.5"/>
      </g>
     </g>
     <g id="text_1">
      <!-- $\mathdefault{0}$ -->
      <g transform="translate(37.411916 163.007748) scale(0.1 -0.1)">
       <defs>
        <path id="CMR17-30" d="M 2688 2025 
C 2688 2416 2682 3080 2413 3591 
C 2176 4039 1798 4198 1466 4198 
C 1158 4198 768 4058 525 3597 
C 269 3118 243 2524 243 2025 
C 243 1661 250 1106 448 619 
C 723 -39 1216 -128 1466 -128 
C 1760 -128 2208 -7 2470 600 
C 2662 1042 2688 1559 2688 2025 
z
M 1466 -26 
C 1056 -26 813 325 723 812 
C 653 1188 653 1738 653 2096 
C 653 2588 653 2997 736 3387 
C 858 3929 1216 4096 1466 4096 
C 1728 4096 2067 3923 2189 3400 
C 2272 3036 2278 2607 2278 2096 
C 2278 1680 2278 1169 2202 792 
C 2067 95 1690 -26 1466 -26 
z
" transform="scale(0.015625)"/>
       </defs>
       <use xlink:href="#CMR17-30" transform="scale(0.996264)"/>
      </g>
     </g>
    </g>
    <g id="xtick_2">
     <g id="line2d_4">
      <path d="M 81.677984 152.589249 
L 81.677984 7.059249 
" clip-path="url(#p5e5d7b9fc2)" style="fill: none; stroke-dasharray: 1.85,0.8; stroke-dashoffset: 0; stroke: #000000; stroke-opacity: 0.5; stroke-width: 0.5"/>
     </g>
     <g id="line2d_5">
      <g>
       <use xlink:href="#mb7e3a5f8f9" x="81.677984" y="152.589249" style="stroke: #000000; stroke-width: 0.5"/>
      </g>
     </g>
     <g id="line2d_6">
      <g>
       <use xlink:href="#mf93ad8b68c" x="81.677984" y="7.059249" style="stroke: #000000; stroke-width: 0.5"/>
      </g>
     </g>
     <g id="text_2">
      <!-- $\mathdefault{2}$ -->
      <g transform="translate(79.187317 163.007748) scale(0.1 -0.1)">
       <defs>
        <path id="CMR17-32" d="M 2669 989 
L 2554 989 
C 2490 536 2438 459 2413 420 
C 2381 369 1920 369 1830 369 
L 602 369 
C 832 619 1280 1072 1824 1597 
C 2214 1967 2669 2402 2669 3035 
C 2669 3790 2067 4224 1395 4224 
C 691 4224 262 3604 262 3030 
C 262 2780 448 2748 525 2748 
C 589 2748 781 2787 781 3010 
C 781 3207 614 3264 525 3264 
C 486 3264 448 3258 422 3245 
C 544 3790 915 4058 1306 4058 
C 1862 4058 2227 3617 2227 3035 
C 2227 2479 1901 2000 1536 1584 
L 262 146 
L 262 0 
L 2515 0 
L 2669 989 
z
" transform="scale(0.015625)"/>
       </defs>
       <use xlink:href="#CMR17-32" transform="scale(0.996264)"/>
      </g>
     </g>
    </g>
    <g id="xtick_3">
     <g id="line2d_7">
      <path d="M 123.453385 152.589249 
L 123.453385 7.059249 
" clip-path="url(#p5e5d7b9fc2)" style="fill: none; stroke-dasharray: 1.85,0.8; stroke-dashoffset: 0; stroke: #000000; stroke-opacity: 0.5; stroke-width: 0.5"/>
     </g>
     <g id="line2d_8">
      <g>
       <use xlink:href="#mb7e3a5f8f9" x="123.453385" y="152.589249" style="stroke: #000000; stroke-width: 0.5"/>
      </g>
     </g>
     <g id="line2d_9">
      <g>
       <use xlink:href="#mf93ad8b68c" x="123.453385" y="7.059249" style="stroke: #000000; stroke-width: 0.5"/>
      </g>
     </g>
     <g id="text_3">
      <!-- $\mathdefault{4}$ -->
      <g transform="translate(120.962718 163.007748) scale(0.1 -0.1)">
       <defs>
        <path id="CMR17-34" d="M 2150 4122 
C 2150 4256 2144 4256 2029 4256 
L 128 1254 
L 128 1088 
L 1779 1088 
L 1779 457 
C 1779 224 1766 160 1318 160 
L 1197 160 
L 1197 0 
C 1402 0 1747 0 1965 0 
C 2182 0 2528 0 2733 0 
L 2733 160 
L 2611 160 
C 2163 160 2150 224 2150 457 
L 2150 1088 
L 2803 1088 
L 2803 1254 
L 2150 1254 
L 2150 4122 
z
M 1798 3703 
L 1798 1254 
L 256 1254 
L 1798 3703 
z
" transform="scale(0.015625)"/>
       </defs>
       <use xlink:href="#CMR17-34" transform="scale(0.996264)"/>
      </g>
     </g>
    </g>
    <g id="xtick_4">
     <g id="line2d_10">
      <path d="M 165.228787 152.589249 
L 165.228787 7.059249 
" clip-path="url(#p5e5d7b9fc2)" style="fill: none; stroke-dasharray: 1.85,0.8; stroke-dashoffset: 0; stroke: #000000; stroke-opacity: 0.5; stroke-width: 0.5"/>
     </g>
     <g id="line2d_11">
      <g>
       <use xlink:href="#mb7e3a5f8f9" x="165.228787" y="152.589249" style="stroke: #000000; stroke-width: 0.5"/>
      </g>
     </g>
     <g id="line2d_12">
      <g>
       <use xlink:href="#mf93ad8b68c" x="165.228787" y="7.059249" style="stroke: #000000; stroke-width: 0.5"/>
      </g>
     </g>
     <g id="text_4">
      <!-- $\mathdefault{6}$ -->
      <g transform="translate(162.738119 163.007748) scale(0.1 -0.1)">
       <defs>
        <path id="CMR17-36" d="M 678 2176 
C 678 3690 1395 4032 1811 4032 
C 1946 4032 2272 4009 2400 3776 
C 2298 3776 2106 3776 2106 3553 
C 2106 3381 2246 3323 2336 3323 
C 2394 3323 2566 3348 2566 3560 
C 2566 3954 2246 4179 1805 4179 
C 1043 4179 243 3390 243 1984 
C 243 253 966 -128 1478 -128 
C 2099 -128 2688 427 2688 1283 
C 2688 2081 2170 2662 1517 2662 
C 1126 2662 838 2407 678 1960 
L 678 2176 
z
M 1478 25 
C 691 25 691 1200 691 1436 
C 691 1896 909 2560 1504 2560 
C 1613 2560 1926 2560 2138 2120 
C 2253 1870 2253 1609 2253 1289 
C 2253 944 2253 690 2118 434 
C 1978 171 1773 25 1478 25 
z
" transform="scale(0.015625)"/>
       </defs>
       <use xlink:href="#CMR17-36" transform="scale(0.996264)"/>
      </g>
     </g>
    </g>
    <g id="xtick_5">
     <g id="line2d_13">
      <path d="M 207.004188 152.589249 
L 207.004188 7.059249 
" clip-path="url(#p5e5d7b9fc2)" style="fill: none; stroke-dasharray: 1.85,0.8; stroke-dashoffset: 0; stroke: #000000; stroke-opacity: 0.5; stroke-width: 0.5"/>
     </g>
     <g id="line2d_14">
      <g>
       <use xlink:href="#mb7e3a5f8f9" x="207.004188" y="152.589249" style="stroke: #000000; stroke-width: 0.5"/>
      </g>
     </g>
     <g id="line2d_15">
      <g>
       <use xlink:href="#mf93ad8b68c" x="207.004188" y="7.059249" style="stroke: #000000; stroke-width: 0.5"/>
      </g>
     </g>
     <g id="text_5">
      <!-- $\mathdefault{8}$ -->
      <g transform="translate(204.51352 163.007748) scale(0.1 -0.1)">
       <defs>
        <path id="CMR17-38" d="M 1741 2264 
C 2144 2467 2554 2773 2554 3263 
C 2554 3841 1990 4179 1472 4179 
C 890 4179 378 3759 378 3180 
C 378 3021 416 2747 666 2505 
C 730 2442 998 2251 1171 2130 
C 883 1983 211 1634 211 934 
C 211 279 838 -128 1459 -128 
C 2144 -128 2720 362 2720 1010 
C 2720 1590 2330 1857 2074 2029 
L 1741 2264 
z
M 902 2822 
C 851 2854 595 3051 595 3351 
C 595 3739 998 4032 1459 4032 
C 1965 4032 2336 3676 2336 3262 
C 2336 2669 1670 2331 1638 2331 
C 1632 2331 1626 2331 1574 2370 
L 902 2822 
z
M 2080 1519 
C 2176 1449 2483 1240 2483 851 
C 2483 381 2010 25 1472 25 
C 890 25 448 438 448 940 
C 448 1443 838 1862 1280 2060 
L 2080 1519 
z
" transform="scale(0.015625)"/>
       </defs>
       <use xlink:href="#CMR17-38" transform="scale(0.996264)"/>
      </g>
     </g>
    </g>
    <g id="xtick_6">
     <g id="line2d_16">
      <defs>
       <path id="mc237da6abd" d="M 0 0 
L 0 -1.5 
" style="stroke: #000000; stroke-width: 0.5"/>
      </defs>
      <g>
       <use xlink:href="#mc237da6abd" x="50.346434" y="152.589249" style="stroke: #000000; stroke-width: 0.5"/>
      </g>
     </g>
     <g id="line2d_17">
      <defs>
       <path id="m2e81488cec" d="M 0 0 
L 0 1.5 
" style="stroke: #000000; stroke-width: 0.5"/>
      </defs>
      <g>
       <use xlink:href="#m2e81488cec" x="50.346434" y="7.059249" style="stroke: #000000; stroke-width: 0.5"/>
      </g>
     </g>
    </g>
    <g id="xtick_7">
     <g id="line2d_18">
      <g>
       <use xlink:href="#mc237da6abd" x="60.790284" y="152.589249" style="stroke: #000000; stroke-width: 0.5"/>
      </g>
     </g>
     <g id="line2d_19">
      <g>
       <use xlink:href="#m2e81488cec" x="60.790284" y="7.059249" style="stroke: #000000; stroke-width: 0.5"/>
      </g>
     </g>
    </g>
    <g id="xtick_8">
     <g id="line2d_20">
      <g>
       <use xlink:href="#mc237da6abd" x="71.234134" y="152.589249" style="stroke: #000000; stroke-width: 0.5"/>
      </g>
     </g>
     <g id="line2d_21">
      <g>
       <use xlink:href="#m2e81488cec" x="71.234134" y="7.059249" style="stroke: #000000; stroke-width: 0.5"/>
      </g>
     </g>
    </g>
    <g id="xtick_9">
     <g id="line2d_22">
      <g>
       <use xlink:href="#mc237da6abd" x="92.121835" y="152.589249" style="stroke: #000000; stroke-width: 0.5"/>
      </g>
     </g>
     <g id="line2d_23">
      <g>
       <use xlink:href="#m2e81488cec" x="92.121835" y="7.059249" style="stroke: #000000; stroke-width: 0.5"/>
      </g>
     </g>
    </g>
    <g id="xtick_10">
     <g id="line2d_24">
      <g>
       <use xlink:href="#mc237da6abd" x="102.565685" y="152.589249" style="stroke: #000000; stroke-width: 0.5"/>
      </g>
     </g>
     <g id="line2d_25">
      <g>
       <use xlink:href="#m2e81488cec" x="102.565685" y="7.059249" style="stroke: #000000; stroke-width: 0.5"/>
      </g>
     </g>
    </g>
    <g id="xtick_11">
     <g id="line2d_26">
      <g>
       <use xlink:href="#mc237da6abd" x="113.009535" y="152.589249" style="stroke: #000000; stroke-width: 0.5"/>
      </g>
     </g>
     <g id="line2d_27">
      <g>
       <use xlink:href="#m2e81488cec" x="113.009535" y="7.059249" style="stroke: #000000; stroke-width: 0.5"/>
      </g>
     </g>
    </g>
    <g id="xtick_12">
     <g id="line2d_28">
      <g>
       <use xlink:href="#mc237da6abd" x="133.897236" y="152.589249" style="stroke: #000000; stroke-width: 0.5"/>
      </g>
     </g>
     <g id="line2d_29">
      <g>
       <use xlink:href="#m2e81488cec" x="133.897236" y="7.059249" style="stroke: #000000; stroke-width: 0.5"/>
      </g>
     </g>
    </g>
    <g id="xtick_13">
     <g id="line2d_30">
      <g>
       <use xlink:href="#mc237da6abd" x="144.341086" y="152.589249" style="stroke: #000000; stroke-width: 0.5"/>
      </g>
     </g>
     <g id="line2d_31">
      <g>
       <use xlink:href="#m2e81488cec" x="144.341086" y="7.059249" style="stroke: #000000; stroke-width: 0.5"/>
      </g>
     </g>
    </g>
    <g id="xtick_14">
     <g id="line2d_32">
      <g>
       <use xlink:href="#mc237da6abd" x="154.784936" y="152.589249" style="stroke: #000000; stroke-width: 0.5"/>
      </g>
     </g>
     <g id="line2d_33">
      <g>
       <use xlink:href="#m2e81488cec" x="154.784936" y="7.059249" style="stroke: #000000; stroke-width: 0.5"/>
      </g>
     </g>
    </g>
    <g id="xtick_15">
     <g id="line2d_34">
      <g>
       <use xlink:href="#mc237da6abd" x="175.672637" y="152.589249" style="stroke: #000000; stroke-width: 0.5"/>
      </g>
     </g>
     <g id="line2d_35">
      <g>
       <use xlink:href="#m2e81488cec" x="175.672637" y="7.059249" style="stroke: #000000; stroke-width: 0.5"/>
      </g>
     </g>
    </g>
    <g id="xtick_16">
     <g id="line2d_36">
      <g>
       <use xlink:href="#mc237da6abd" x="186.116487" y="152.589249" style="stroke: #000000; stroke-width: 0.5"/>
      </g>
     </g>
     <g id="line2d_37">
      <g>
       <use xlink:href="#m2e81488cec" x="186.116487" y="7.059249" style="stroke: #000000; stroke-width: 0.5"/>
      </g>
     </g>
    </g>
    <g id="xtick_17">
     <g id="line2d_38">
      <g>
       <use xlink:href="#mc237da6abd" x="196.560337" y="152.589249" style="stroke: #000000; stroke-width: 0.5"/>
      </g>
     </g>
     <g id="line2d_39">
      <g>
       <use xlink:href="#m2e81488cec" x="196.560337" y="7.059249" style="stroke: #000000; stroke-width: 0.5"/>
      </g>
     </g>
    </g>
    <g id="xtick_18">
     <g id="line2d_40">
      <g>
       <use xlink:href="#mc237da6abd" x="217.448038" y="152.589249" style="stroke: #000000; stroke-width: 0.5"/>
      </g>
     </g>
     <g id="line2d_41">
      <g>
       <use xlink:href="#m2e81488cec" x="217.448038" y="7.059249" style="stroke: #000000; stroke-width: 0.5"/>
      </g>
     </g>
    </g>
    <g id="text_6">
     <!-- $d(U,NP)$ -->
     <g transform="translate(108.16822 176.416906) scale(0.1 -0.1)">
      <defs>
       <path id="CMMI12-64" d="M 3219 4257 
C 3226 4282 3238 4320 3238 4352 
C 3238 4416 3174 4416 3162 4416 
C 3155 4416 2842 4388 2810 4380 
C 2701 4373 2605 4358 2490 4358 
C 2330 4345 2285 4339 2285 4224 
C 2285 4160 2336 4160 2426 4160 
C 2739 4160 2746 4103 2746 4040 
C 2746 4002 2733 3952 2726 3933 
L 2336 2395 
C 2266 2561 2093 2816 1760 2816 
C 1037 2816 256 1884 256 939 
C 256 307 627 -64 1062 -64 
C 1414 -64 1715 211 1894 422 
C 1958 45 2259 -64 2451 -64 
C 2643 -64 2797 51 2912 281 
C 3014 498 3104 888 3104 913 
C 3104 945 3078 971 3040 971 
C 2982 971 2976 939 2950 843 
C 2854 466 2733 64 2470 64 
C 2285 64 2272 229 2272 357 
C 2272 382 2272 515 2317 694 
L 3219 4257 
z
M 1926 760 
C 1894 651 1894 639 1805 517 
C 1664 338 1382 64 1082 64 
C 819 64 672 300 672 677 
C 672 1028 870 1743 992 2012 
C 1210 2459 1510 2689 1760 2689 
C 2182 2689 2266 2165 2266 2114 
C 2266 2108 2246 2024 2240 2012 
L 1926 760 
z
" transform="scale(0.015625)"/>
       <path id="CMR17-28" d="M 1958 -1561 
C 1958 -1555 1958 -1542 1939 -1523 
C 1645 -1224 858 -407 858 1581 
C 858 3569 1632 4379 1946 4697 
C 1946 4704 1958 4717 1958 4736 
C 1958 4755 1939 4768 1914 4768 
C 1843 4768 1299 4296 986 3594 
C 666 2887 576 2199 576 1588 
C 576 1128 621 351 1005 -471 
C 1312 -1135 1837 -1600 1914 -1600 
C 1946 -1600 1958 -1587 1958 -1561 
z
" transform="scale(0.015625)"/>
       <path id="CMMI12-55" d="M 3238 1474 
C 3014 581 2272 57 1670 57 
C 1210 57 896 363 896 891 
C 896 916 896 1107 966 1387 
L 1594 3887 
C 1651 4103 1664 4167 2118 4167 
C 2234 4167 2298 4167 2298 4282 
C 2298 4352 2240 4352 2202 4352 
C 2086 4352 1952 4352 1830 4352 
L 1075 4352 
C 954 4352 819 4352 698 4352 
C 653 4352 576 4352 576 4231 
C 576 4167 621 4167 742 4167 
C 1126 4167 1126 4116 1126 4046 
C 1126 4008 1082 3824 1050 3715 
L 493 1488 
C 474 1418 435 1246 435 1075 
C 435 374 941 -128 1638 -128 
C 2285 -128 3002 384 3328 1197 
C 3373 1305 3430 1530 3469 1702 
C 3533 1933 3667 2496 3712 2662 
L 3955 3623 
C 4038 3956 4090 4167 4653 4167 
C 4704 4173 4730 4224 4730 4282 
C 4730 4352 4672 4352 4646 4352 
C 4557 4352 4442 4352 4352 4352 
L 4051 4352 
C 3654 4352 3450 4352 3443 4352 
C 3405 4352 3328 4352 3328 4231 
C 3328 4167 3379 4167 3424 4167 
C 3808 4167 3834 4020 3834 3905 
C 3834 3848 3834 3828 3808 3739 
L 3238 1474 
z
" transform="scale(0.015625)"/>
       <path id="CMMI12-3b" d="M 1248 -31 
C 1248 343 1126 619 864 619 
C 659 619 557 453 557 313 
C 557 172 653 0 870 0 
C 954 0 1024 26 1082 83 
C 1094 96 1101 96 1107 96 
C 1120 96 1120 5 1120 -27 
C 1120 -240 1082 -659 710 -1080 
C 640 -1157 640 -1170 640 -1183 
C 640 -1216 672 -1248 704 -1248 
C 755 -1248 1248 -771 1248 -31 
z
" transform="scale(0.015625)"/>
       <path id="CMMI12-4e" d="M 4736 3698 
C 4806 3974 4909 4166 5395 4166 
C 5414 4166 5491 4166 5491 4279 
C 5491 4352 5434 4352 5408 4352 
C 5280 4352 4954 4352 4826 4352 
L 4518 4352 
C 4429 4352 4314 4352 4224 4352 
C 4186 4352 4109 4352 4109 4230 
C 4109 4166 4160 4166 4205 4166 
C 4589 4166 4614 4019 4614 3903 
C 4614 3846 4608 3826 4589 3737 
L 3866 850 
L 2496 4249 
C 2451 4352 2445 4352 2304 4352 
L 1523 4352 
C 1395 4352 1338 4352 1338 4230 
C 1338 4166 1382 4166 1504 4166 
C 1536 4166 1914 4166 1914 4115 
C 1914 4102 1901 4051 1894 4032 
L 1043 635 
C 966 320 813 186 390 186 
C 358 186 294 186 294 67 
C 294 0 358 0 378 0 
C 506 0 832 0 960 0 
L 1267 0 
C 1357 0 1466 0 1555 0 
C 1600 0 1670 0 1670 122 
C 1670 180 1606 186 1581 186 
C 1370 186 1165 224 1165 454 
C 1165 505 1178 562 1190 613 
L 2054 4032 
C 2093 3968 2093 3956 2118 3898 
L 3642 115 
C 3674 38 3686 0 3744 0 
C 3808 0 3814 19 3840 128 
L 4736 3698 
z
" transform="scale(0.015625)"/>
       <path id="CMMI12-50" d="M 1894 2023 
L 2970 2023 
C 3853 2023 4736 2673 4736 3401 
C 4736 3898 4314 4352 3507 4352 
L 1530 4352 
C 1408 4352 1350 4352 1350 4231 
C 1350 4167 1408 4167 1504 4167 
C 1894 4167 1894 4116 1894 4046 
C 1894 4034 1894 3995 1869 3899 
L 1005 472 
C 947 249 934 185 486 185 
C 365 185 301 185 301 70 
C 301 0 358 0 397 0 
C 518 0 646 0 768 0 
L 1517 0 
C 1638 0 1773 0 1894 0 
C 1946 0 2016 0 2016 121 
C 2016 185 1958 185 1862 185 
C 1478 185 1472 230 1472 293 
C 1472 325 1478 369 1485 401 
L 1894 2023 
z
M 2355 3930 
C 2413 4167 2438 4167 2688 4167 
L 3322 4167 
C 3802 4167 4198 4013 4198 3535 
C 4198 3369 4115 2827 3821 2534 
C 3712 2419 3405 2176 2822 2176 
L 1920 2176 
L 2355 3930 
z
" transform="scale(0.015625)"/>
       <path id="CMR17-29" d="M 1683 1581 
C 1683 2040 1638 2817 1254 3639 
C 947 4303 422 4768 346 4768 
C 326 4768 301 4761 301 4729 
C 301 4717 307 4710 314 4697 
C 621 4378 1402 3568 1402 1584 
C 1402 -407 627 -1217 314 -1537 
C 307 -1549 301 -1556 301 -1568 
C 301 -1600 326 -1600 346 -1600 
C 416 -1600 960 -1128 1274 -426 
C 1594 281 1683 969 1683 1581 
z
" transform="scale(0.015625)"/>
      </defs>
      <use xlink:href="#CMMI12-64" transform="scale(0.996264)"/>
      <use xlink:href="#CMR17-28" transform="translate(50.689097 0) scale(0.996264)"/>
      <use xlink:href="#CMMI12-55" transform="translate(85.969865 0) scale(0.996264)"/>
      <use xlink:href="#CMMI12-3b" transform="translate(151.789767 0) scale(0.996264)"/>
      <use xlink:href="#CMMI12-4e" transform="translate(195.491349 0) scale(0.996264)"/>
      <use xlink:href="#CMMI12-50" transform="translate(284.013122 0) scale(0.996264)"/>
      <use xlink:href="#CMR17-29" transform="translate(360.438942 0) scale(0.996264)"/>
     </g>
    </g>
   </g>
   <g id="matplotlib.axis_2">
    <g id="ytick_1">
     <g id="line2d_42">
      <path d="M 31.025311 141.394634 
L 226.325311 141.394634 
" clip-path="url(#p5e5d7b9fc2)" style="fill: none; stroke-dasharray: 1.85,0.8; stroke-dashoffset: 0; stroke: #000000; stroke-opacity: 0.5; stroke-width: 0.5"/>
     </g>
     <g id="line2d_43">
      <defs>
       <path id="mccc5c4a37c" d="M 0 0 
L 3 0 
" style="stroke: #000000; stroke-width: 0.5"/>
      </defs>
      <g>
       <use xlink:href="#mccc5c4a37c" x="31.025311" y="141.394634" style="stroke: #000000; stroke-width: 0.5"/>
      </g>
     </g>
     <g id="line2d_44">
      <defs>
       <path id="mbbb46a4b26" d="M 0 0 
L -3 0 
" style="stroke: #000000; stroke-width: 0.5"/>
      </defs>
      <g>
       <use xlink:href="#mbbb46a4b26" x="226.325311" y="141.394634" style="stroke: #000000; stroke-width: 0.5"/>
      </g>
     </g>
     <g id="text_7">
      <!-- $\mathdefault{0}$ -->
      <g transform="translate(22.543975 144.853883) scale(0.1 -0.1)">
       <use xlink:href="#CMR17-30" transform="scale(0.996264)"/>
      </g>
     </g>
    </g>
    <g id="ytick_2">
     <g id="line2d_45">
      <path d="M 31.025311 119.005403 
L 226.325311 119.005403 
" clip-path="url(#p5e5d7b9fc2)" style="fill: none; stroke-dasharray: 1.85,0.8; stroke-dashoffset: 0; stroke: #000000; stroke-opacity: 0.5; stroke-width: 0.5"/>
     </g>
     <g id="line2d_46">
      <g>
       <use xlink:href="#mccc5c4a37c" x="31.025311" y="119.005403" style="stroke: #000000; stroke-width: 0.5"/>
      </g>
     </g>
     <g id="line2d_47">
      <g>
       <use xlink:href="#mbbb46a4b26" x="226.325311" y="119.005403" style="stroke: #000000; stroke-width: 0.5"/>
      </g>
     </g>
     <g id="text_8">
      <!-- $\mathdefault{2}$ -->
      <g transform="translate(22.543975 122.464652) scale(0.1 -0.1)">
       <use xlink:href="#CMR17-32" transform="scale(0.996264)"/>
      </g>
     </g>
    </g>
    <g id="ytick_3">
     <g id="line2d_48">
      <path d="M 31.025311 96.616172 
L 226.325311 96.616172 
" clip-path="url(#p5e5d7b9fc2)" style="fill: none; stroke-dasharray: 1.85,0.8; stroke-dashoffset: 0; stroke: #000000; stroke-opacity: 0.5; stroke-width: 0.5"/>
     </g>
     <g id="line2d_49">
      <g>
       <use xlink:href="#mccc5c4a37c" x="31.025311" y="96.616172" style="stroke: #000000; stroke-width: 0.5"/>
      </g>
     </g>
     <g id="line2d_50">
      <g>
       <use xlink:href="#mbbb46a4b26" x="226.325311" y="96.616172" style="stroke: #000000; stroke-width: 0.5"/>
      </g>
     </g>
     <g id="text_9">
      <!-- $\mathdefault{4}$ -->
      <g transform="translate(22.543975 100.075421) scale(0.1 -0.1)">
       <use xlink:href="#CMR17-34" transform="scale(0.996264)"/>
      </g>
     </g>
    </g>
    <g id="ytick_4">
     <g id="line2d_51">
      <path d="M 31.025311 74.226941 
L 226.325311 74.226941 
" clip-path="url(#p5e5d7b9fc2)" style="fill: none; stroke-dasharray: 1.85,0.8; stroke-dashoffset: 0; stroke: #000000; stroke-opacity: 0.5; stroke-width: 0.5"/>
     </g>
     <g id="line2d_52">
      <g>
       <use xlink:href="#mccc5c4a37c" x="31.025311" y="74.226941" style="stroke: #000000; stroke-width: 0.5"/>
      </g>
     </g>
     <g id="line2d_53">
      <g>
       <use xlink:href="#mbbb46a4b26" x="226.325311" y="74.226941" style="stroke: #000000; stroke-width: 0.5"/>
      </g>
     </g>
     <g id="text_10">
      <!-- $\mathdefault{6}$ -->
      <g transform="translate(22.543975 77.686191) scale(0.1 -0.1)">
       <use xlink:href="#CMR17-36" transform="scale(0.996264)"/>
      </g>
     </g>
    </g>
    <g id="ytick_5">
     <g id="line2d_54">
      <path d="M 31.025311 51.837711 
L 226.325311 51.837711 
" clip-path="url(#p5e5d7b9fc2)" style="fill: none; stroke-dasharray: 1.85,0.8; stroke-dashoffset: 0; stroke: #000000; stroke-opacity: 0.5; stroke-width: 0.5"/>
     </g>
     <g id="line2d_55">
      <g>
       <use xlink:href="#mccc5c4a37c" x="31.025311" y="51.837711" style="stroke: #000000; stroke-width: 0.5"/>
      </g>
     </g>
     <g id="line2d_56">
      <g>
       <use xlink:href="#mbbb46a4b26" x="226.325311" y="51.837711" style="stroke: #000000; stroke-width: 0.5"/>
      </g>
     </g>
     <g id="text_11">
      <!-- $\mathdefault{8}$ -->
      <g transform="translate(22.543975 55.29696) scale(0.1 -0.1)">
       <use xlink:href="#CMR17-38" transform="scale(0.996264)"/>
      </g>
     </g>
    </g>
    <g id="ytick_6">
     <g id="line2d_57">
      <path d="M 31.025311 29.44848 
L 226.325311 29.44848 
" clip-path="url(#p5e5d7b9fc2)" style="fill: none; stroke-dasharray: 1.85,0.8; stroke-dashoffset: 0; stroke: #000000; stroke-opacity: 0.5; stroke-width: 0.5"/>
     </g>
     <g id="line2d_58">
      <g>
       <use xlink:href="#mccc5c4a37c" x="31.025311" y="29.44848" style="stroke: #000000; stroke-width: 0.5"/>
      </g>
     </g>
     <g id="line2d_59">
      <g>
       <use xlink:href="#mbbb46a4b26" x="226.325311" y="29.44848" style="stroke: #000000; stroke-width: 0.5"/>
      </g>
     </g>
     <g id="text_12">
      <!-- $\mathdefault{10}$ -->
      <g transform="translate(17.56264 32.907729) scale(0.1 -0.1)">
       <defs>
        <path id="CMR17-31" d="M 1702 4058 
C 1702 4192 1696 4192 1606 4192 
C 1357 3916 979 3827 621 3827 
C 602 3827 570 3827 563 3808 
C 557 3795 557 3782 557 3648 
C 755 3648 1088 3686 1344 3839 
L 1344 461 
C 1344 236 1331 160 781 160 
L 589 160 
L 589 0 
C 896 0 1216 0 1523 0 
C 1830 0 2150 0 2458 0 
L 2458 160 
L 2266 160 
C 1715 160 1702 230 1702 458 
L 1702 4058 
z
" transform="scale(0.015625)"/>
       </defs>
       <use xlink:href="#CMR17-31" transform="scale(0.996264)"/>
       <use xlink:href="#CMR17-30" transform="translate(45.690477 0) scale(0.996264)"/>
      </g>
     </g>
    </g>
    <g id="ytick_7">
     <g id="line2d_60">
      <path d="M 31.025311 7.059249 
L 226.325311 7.059249 
" clip-path="url(#p5e5d7b9fc2)" style="fill: none; stroke-dasharray: 1.85,0.8; stroke-dashoffset: 0; stroke: #000000; stroke-opacity: 0.5; stroke-width: 0.5"/>
     </g>
     <g id="line2d_61">
      <g>
       <use xlink:href="#mccc5c4a37c" x="31.025311" y="7.059249" style="stroke: #000000; stroke-width: 0.5"/>
      </g>
     </g>
     <g id="line2d_62">
      <g>
       <use xlink:href="#mbbb46a4b26" x="226.325311" y="7.059249" style="stroke: #000000; stroke-width: 0.5"/>
      </g>
     </g>
     <g id="text_13">
      <!-- $\mathdefault{12}$ -->
      <g transform="translate(17.56264 10.518498) scale(0.1 -0.1)">
       <use xlink:href="#CMR17-31" transform="scale(0.996264)"/>
       <use xlink:href="#CMR17-32" transform="translate(45.690477 0) scale(0.996264)"/>
      </g>
     </g>
    </g>
    <g id="ytick_8">
     <g id="line2d_63">
      <defs>
       <path id="me4d8275008" d="M 0 0 
L 1.5 0 
" style="stroke: #000000; stroke-width: 0.5"/>
      </defs>
      <g>
       <use xlink:href="#me4d8275008" x="31.025311" y="146.991941" style="stroke: #000000; stroke-width: 0.5"/>
      </g>
     </g>
     <g id="line2d_64">
      <defs>
       <path id="m8d27177f16" d="M 0 0 
L -1.5 0 
" style="stroke: #000000; stroke-width: 0.5"/>
      </defs>
      <g>
       <use xlink:href="#m8d27177f16" x="226.325311" y="146.991941" style="stroke: #000000; stroke-width: 0.5"/>
      </g>
     </g>
    </g>
    <g id="ytick_9">
     <g id="line2d_65">
      <g>
       <use xlink:href="#me4d8275008" x="31.025311" y="135.797326" style="stroke: #000000; stroke-width: 0.5"/>
      </g>
     </g>
     <g id="line2d_66">
      <g>
       <use xlink:href="#m8d27177f16" x="226.325311" y="135.797326" style="stroke: #000000; stroke-width: 0.5"/>
      </g>
     </g>
    </g>
    <g id="ytick_10">
     <g id="line2d_67">
      <g>
       <use xlink:href="#me4d8275008" x="31.025311" y="130.200018" style="stroke: #000000; stroke-width: 0.5"/>
      </g>
     </g>
     <g id="line2d_68">
      <g>
       <use xlink:href="#m8d27177f16" x="226.325311" y="130.200018" style="stroke: #000000; stroke-width: 0.5"/>
      </g>
     </g>
    </g>
    <g id="ytick_11">
     <g id="line2d_69">
      <g>
       <use xlink:href="#me4d8275008" x="31.025311" y="124.602711" style="stroke: #000000; stroke-width: 0.5"/>
      </g>
     </g>
     <g id="line2d_70">
      <g>
       <use xlink:href="#m8d27177f16" x="226.325311" y="124.602711" style="stroke: #000000; stroke-width: 0.5"/>
      </g>
     </g>
    </g>
    <g id="ytick_12">
     <g id="line2d_71">
      <g>
       <use xlink:href="#me4d8275008" x="31.025311" y="113.408095" style="stroke: #000000; stroke-width: 0.5"/>
      </g>
     </g>
     <g id="line2d_72">
      <g>
       <use xlink:href="#m8d27177f16" x="226.325311" y="113.408095" style="stroke: #000000; stroke-width: 0.5"/>
      </g>
     </g>
    </g>
    <g id="ytick_13">
     <g id="line2d_73">
      <g>
       <use xlink:href="#me4d8275008" x="31.025311" y="107.810788" style="stroke: #000000; stroke-width: 0.5"/>
      </g>
     </g>
     <g id="line2d_74">
      <g>
       <use xlink:href="#m8d27177f16" x="226.325311" y="107.810788" style="stroke: #000000; stroke-width: 0.5"/>
      </g>
     </g>
    </g>
    <g id="ytick_14">
     <g id="line2d_75">
      <g>
       <use xlink:href="#me4d8275008" x="31.025311" y="102.21348" style="stroke: #000000; stroke-width: 0.5"/>
      </g>
     </g>
     <g id="line2d_76">
      <g>
       <use xlink:href="#m8d27177f16" x="226.325311" y="102.21348" style="stroke: #000000; stroke-width: 0.5"/>
      </g>
     </g>
    </g>
    <g id="ytick_15">
     <g id="line2d_77">
      <g>
       <use xlink:href="#me4d8275008" x="31.025311" y="91.018865" style="stroke: #000000; stroke-width: 0.5"/>
      </g>
     </g>
     <g id="line2d_78">
      <g>
       <use xlink:href="#m8d27177f16" x="226.325311" y="91.018865" style="stroke: #000000; stroke-width: 0.5"/>
      </g>
     </g>
    </g>
    <g id="ytick_16">
     <g id="line2d_79">
      <g>
       <use xlink:href="#me4d8275008" x="31.025311" y="85.421557" style="stroke: #000000; stroke-width: 0.5"/>
      </g>
     </g>
     <g id="line2d_80">
      <g>
       <use xlink:href="#m8d27177f16" x="226.325311" y="85.421557" style="stroke: #000000; stroke-width: 0.5"/>
      </g>
     </g>
    </g>
    <g id="ytick_17">
     <g id="line2d_81">
      <g>
       <use xlink:href="#me4d8275008" x="31.025311" y="79.824249" style="stroke: #000000; stroke-width: 0.5"/>
      </g>
     </g>
     <g id="line2d_82">
      <g>
       <use xlink:href="#m8d27177f16" x="226.325311" y="79.824249" style="stroke: #000000; stroke-width: 0.5"/>
      </g>
     </g>
    </g>
    <g id="ytick_18">
     <g id="line2d_83">
      <g>
       <use xlink:href="#me4d8275008" x="31.025311" y="68.629634" style="stroke: #000000; stroke-width: 0.5"/>
      </g>
     </g>
     <g id="line2d_84">
      <g>
       <use xlink:href="#m8d27177f16" x="226.325311" y="68.629634" style="stroke: #000000; stroke-width: 0.5"/>
      </g>
     </g>
    </g>
    <g id="ytick_19">
     <g id="line2d_85">
      <g>
       <use xlink:href="#me4d8275008" x="31.025311" y="63.032326" style="stroke: #000000; stroke-width: 0.5"/>
      </g>
     </g>
     <g id="line2d_86">
      <g>
       <use xlink:href="#m8d27177f16" x="226.325311" y="63.032326" style="stroke: #000000; stroke-width: 0.5"/>
      </g>
     </g>
    </g>
    <g id="ytick_20">
     <g id="line2d_87">
      <g>
       <use xlink:href="#me4d8275008" x="31.025311" y="57.435018" style="stroke: #000000; stroke-width: 0.5"/>
      </g>
     </g>
     <g id="line2d_88">
      <g>
       <use xlink:href="#m8d27177f16" x="226.325311" y="57.435018" style="stroke: #000000; stroke-width: 0.5"/>
      </g>
     </g>
    </g>
    <g id="ytick_21">
     <g id="line2d_89">
      <g>
       <use xlink:href="#me4d8275008" x="31.025311" y="46.240403" style="stroke: #000000; stroke-width: 0.5"/>
      </g>
     </g>
     <g id="line2d_90">
      <g>
       <use xlink:href="#m8d27177f16" x="226.325311" y="46.240403" style="stroke: #000000; stroke-width: 0.5"/>
      </g>
     </g>
    </g>
    <g id="ytick_22">
     <g id="line2d_91">
      <g>
       <use xlink:href="#me4d8275008" x="31.025311" y="40.643095" style="stroke: #000000; stroke-width: 0.5"/>
      </g>
     </g>
     <g id="line2d_92">
      <g>
       <use xlink:href="#m8d27177f16" x="226.325311" y="40.643095" style="stroke: #000000; stroke-width: 0.5"/>
      </g>
     </g>
    </g>
    <g id="ytick_23">
     <g id="line2d_93">
      <g>
       <use xlink:href="#me4d8275008" x="31.025311" y="35.045788" style="stroke: #000000; stroke-width: 0.5"/>
      </g>
     </g>
     <g id="line2d_94">
      <g>
       <use xlink:href="#m8d27177f16" x="226.325311" y="35.045788" style="stroke: #000000; stroke-width: 0.5"/>
      </g>
     </g>
    </g>
    <g id="ytick_24">
     <g id="line2d_95">
      <g>
       <use xlink:href="#me4d8275008" x="31.025311" y="23.851172" style="stroke: #000000; stroke-width: 0.5"/>
      </g>
     </g>
     <g id="line2d_96">
      <g>
       <use xlink:href="#m8d27177f16" x="226.325311" y="23.851172" style="stroke: #000000; stroke-width: 0.5"/>
      </g>
     </g>
    </g>
    <g id="ytick_25">
     <g id="line2d_97">
      <g>
       <use xlink:href="#me4d8275008" x="31.025311" y="18.253865" style="stroke: #000000; stroke-width: 0.5"/>
      </g>
     </g>
     <g id="line2d_98">
      <g>
       <use xlink:href="#m8d27177f16" x="226.325311" y="18.253865" style="stroke: #000000; stroke-width: 0.5"/>
      </g>
     </g>
    </g>
    <g id="ytick_26">
     <g id="line2d_99">
      <g>
       <use xlink:href="#me4d8275008" x="31.025311" y="12.656557" style="stroke: #000000; stroke-width: 0.5"/>
      </g>
     </g>
     <g id="line2d_100">
      <g>
       <use xlink:href="#m8d27177f16" x="226.325311" y="12.656557" style="stroke: #000000; stroke-width: 0.5"/>
      </g>
     </g>
    </g>
    <g id="text_14">
     <!-- $t_0$ $@$ $max[corr[U(t),q(t+t_0)]]$ [$ns$] -->
     <g transform="translate(11.07198 155.564713) rotate(-90) scale(0.1 -0.1)">
      <defs>
       <path id="CMMI12-74" d="M 1286 2566 
L 1875 2566 
C 1997 2566 2061 2566 2061 2681 
C 2061 2752 2022 2752 1894 2752 
L 1331 2752 
L 1568 3692 
C 1594 3781 1594 3794 1594 3840 
C 1594 3943 1510 4000 1427 4000 
C 1376 4000 1229 3981 1178 3775 
L 928 2752 
L 326 2752 
C 198 2752 141 2752 141 2630 
C 141 2566 186 2566 307 2566 
L 877 2566 
L 454 881 
C 403 658 384 594 384 511 
C 384 211 595 -64 954 -64 
C 1600 -64 1946 868 1946 912 
C 1946 951 1920 970 1882 970 
C 1869 970 1843 970 1830 944 
C 1824 938 1818 931 1773 829 
C 1638 511 1344 64 973 64 
C 781 64 768 224 768 364 
C 768 370 768 492 787 568 
L 1286 2566 
z
" transform="scale(0.015625)"/>
       <path id="CMR17-40" d="M 3501 2908 
C 3501 3029 3494 3029 3366 3029 
L 3187 3029 
C 3181 3029 3174 3035 3142 3081 
C 2874 3481 2541 3584 2298 3584 
C 1683 3584 1101 3023 1101 2208 
C 1101 1392 1690 832 2298 832 
C 2739 832 3040 1155 3155 1353 
C 3162 997 3456 832 3706 832 
C 4237 832 4307 1440 4307 2120 
C 4307 3712 3194 4454 2304 4454 
C 1229 4454 294 3493 294 2196 
C 294 980 1146 -64 2336 -64 
C 3379 -64 4301 373 4301 425 
C 4301 457 4294 457 4166 457 
C 4058 457 4045 457 4013 438 
C 3782 330 3162 38 2330 38 
C 1197 38 410 1063 410 2195 
C 410 3404 1280 4352 2298 4352 
C 2758 4352 3213 4168 3622 3744 
C 4032 3300 4192 2697 4192 2094 
C 4192 1619 4179 933 3731 933 
C 3526 933 3501 1195 3501 1367 
L 3501 2908 
z
M 3162 1723 
C 3162 1602 3162 1596 3085 1462 
C 2886 1099 2579 933 2304 933 
C 1830 933 1440 1500 1440 2208 
C 1440 2915 1830 3482 2304 3482 
C 2573 3482 2778 3329 2880 3233 
C 3034 3087 3162 2902 3162 2692 
L 3162 1723 
z
" transform="scale(0.015625)"/>
       <path id="CMMI12-6d" d="M 1318 1871 
C 1331 1910 1491 2229 1728 2433 
C 1894 2586 2112 2689 2362 2689 
C 2618 2689 2707 2497 2707 2242 
C 2707 2203 2707 2076 2630 1775 
L 2470 1118 
C 2419 926 2298 453 2285 383 
C 2259 287 2221 121 2221 96 
C 2221 6 2291 -64 2387 -64 
C 2579 -64 2611 83 2669 313 
L 3053 1839 
C 3066 1890 3398 2689 4102 2689 
C 4358 2689 4448 2497 4448 2242 
C 4448 1884 4198 1188 4058 805 
C 4000 651 3968 568 3968 453 
C 3968 166 4166 -64 4474 -64 
C 5069 -64 5293 875 5293 913 
C 5293 945 5267 971 5229 971 
C 5171 971 5165 952 5133 843 
C 4986 332 4749 64 4493 64 
C 4429 64 4326 64 4326 269 
C 4326 436 4403 640 4429 710 
C 4544 1018 4832 1773 4832 2145 
C 4832 2528 4608 2816 4122 2816 
C 3693 2816 3347 2574 3091 2197 
C 3072 2542 2861 2816 2381 2816 
C 1811 2816 1510 2415 1395 2255 
C 1376 2618 1114 2816 832 2816 
C 646 2816 499 2727 378 2484 
C 262 2254 173 1865 173 1839 
C 173 1814 198 1782 243 1782 
C 294 1782 301 1788 339 1935 
C 435 2312 557 2689 813 2689 
C 960 2689 1011 2586 1011 2395 
C 1011 2254 947 2005 902 1807 
L 723 1118 
C 698 996 627 709 595 594 
C 550 428 480 128 480 96 
C 480 6 550 -64 646 -64 
C 723 -64 813 -26 864 70 
C 877 102 934 326 966 453 
L 1107 1028 
L 1318 1871 
z
" transform="scale(0.015625)"/>
       <path id="CMMI12-61" d="M 1926 760 
C 1894 651 1894 639 1805 517 
C 1664 338 1382 64 1082 64 
C 819 64 672 300 672 677 
C 672 1028 870 1743 992 2012 
C 1210 2459 1510 2689 1760 2689 
C 2182 2689 2266 2165 2266 2114 
C 2266 2108 2246 2024 2240 2012 
L 1926 760 
z
M 2336 2395 
C 2266 2561 2093 2816 1760 2816 
C 1037 2816 256 1884 256 939 
C 256 307 627 -64 1062 -64 
C 1414 -64 1715 211 1894 422 
C 1958 45 2259 -64 2451 -64 
C 2643 -64 2797 51 2912 281 
C 3014 498 3104 888 3104 913 
C 3104 945 3078 971 3040 971 
C 2982 971 2976 939 2950 843 
C 2854 466 2733 64 2470 64 
C 2285 64 2272 230 2272 358 
C 2272 505 2291 575 2349 824 
C 2394 984 2426 1124 2477 1309 
C 2714 2267 2771 2497 2771 2535 
C 2771 2625 2701 2695 2605 2695 
C 2400 2695 2349 2472 2336 2395 
z
" transform="scale(0.015625)"/>
       <path id="CMMI12-78" d="M 3034 2606 
C 2829 2567 2752 2414 2752 2293 
C 2752 2139 2874 2088 2963 2088 
C 3155 2088 3290 2254 3290 2427 
C 3290 2695 2982 2816 2714 2816 
C 2323 2816 2106 2433 2048 2312 
C 1901 2816 1504 2816 1389 2816 
C 736 2816 390 1980 390 1839 
C 390 1814 416 1782 461 1782 
C 512 1782 525 1820 538 1846 
C 755 2555 1184 2689 1370 2689 
C 1658 2689 1715 2420 1715 2267 
C 1715 2127 1677 1980 1600 1673 
L 1382 798 
C 1286 415 1101 64 762 64 
C 730 64 570 64 435 147 
C 666 192 717 383 717 460 
C 717 588 621 664 499 664 
C 346 664 179 530 179 326 
C 179 57 480 -64 755 -64 
C 1062 -64 1280 179 1414 441 
C 1517 64 1837 -64 2074 -64 
C 2726 -64 3072 773 3072 913 
C 3072 945 3046 971 3008 971 
C 2950 971 2944 939 2925 888 
C 2752 326 2381 64 2093 64 
C 1869 64 1747 230 1747 492 
C 1747 632 1773 734 1875 1156 
L 2099 2024 
C 2195 2408 2413 2689 2707 2689 
C 2720 2689 2899 2689 3034 2606 
z
" transform="scale(0.015625)"/>
       <path id="CMR17-5b" d="M 1504 -1600 
L 1504 -1377 
L 902 -1377 
L 902 4544 
L 1504 4544 
L 1504 4767 
L 678 4767 
L 678 -1600 
L 1504 -1600 
z
" transform="scale(0.015625)"/>
       <path id="CMMI12-63" d="M 2502 2431 
C 2381 2431 2323 2431 2234 2355 
C 2195 2323 2125 2227 2125 2125 
C 2125 1997 2221 1920 2342 1920 
C 2496 1920 2669 2044 2669 2292 
C 2669 2588 2374 2816 1933 2816 
C 1094 2816 256 1903 256 996 
C 256 441 602 -64 1254 -64 
C 2125 -64 2675 622 2675 706 
C 2675 744 2637 776 2611 776 
C 2592 776 2586 770 2528 713 
C 2118 162 1510 64 1267 64 
C 826 64 685 446 685 764 
C 685 988 794 1605 1024 2039 
C 1190 2338 1536 2682 1939 2682 
C 2022 2682 2374 2682 2502 2431 
z
" transform="scale(0.015625)"/>
       <path id="CMMI12-6f" d="M 2918 1756 
C 2918 2363 2522 2816 1939 2816 
C 1094 2816 262 1897 262 996 
C 262 390 659 -64 1242 -64 
C 2093 -64 2918 856 2918 1756 
z
M 1248 64 
C 928 64 691 319 691 766 
C 691 1060 845 1712 1024 2031 
C 1312 2523 1670 2689 1933 2689 
C 2246 2689 2490 2433 2490 1986 
C 2490 1731 2355 1047 2112 658 
C 1850 230 1498 64 1248 64 
z
" transform="scale(0.015625)"/>
       <path id="CMMI12-72" d="M 2490 2612 
C 2291 2574 2189 2433 2189 2293 
C 2189 2139 2310 2088 2400 2088 
C 2579 2088 2726 2242 2726 2433 
C 2726 2638 2528 2816 2208 2816 
C 1952 2816 1658 2701 1389 2312 
C 1344 2650 1088 2816 832 2816 
C 582 2816 454 2625 378 2484 
C 269 2254 173 1871 173 1839 
C 173 1814 198 1782 243 1782 
C 294 1782 301 1788 339 1935 
C 435 2318 557 2689 813 2689 
C 966 2689 1011 2580 1011 2395 
C 1011 2254 947 2005 902 1807 
L 723 1118 
C 698 996 627 709 595 594 
C 550 428 480 128 480 96 
C 480 6 550 -64 646 -64 
C 717 -64 838 -19 877 109 
C 896 160 1133 1124 1171 1271 
C 1203 1411 1242 1546 1274 1686 
C 1299 1775 1325 1878 1344 1961 
C 1363 2018 1536 2331 1696 2472 
C 1773 2542 1939 2689 2202 2689 
C 2304 2689 2406 2670 2490 2612 
z
" transform="scale(0.015625)"/>
       <path id="CMMI12-71" d="M 2822 2759 
C 2822 2790 2797 2816 2765 2816 
C 2714 2816 2464 2585 2342 2362 
C 2227 2646 2029 2816 1754 2816 
C 1030 2816 250 1884 250 939 
C 250 307 621 -64 1056 -64 
C 1395 -64 1677 193 1811 339 
L 1818 333 
L 1574 -615 
L 1517 -842 
C 1459 -1031 1363 -1031 1062 -1031 
C 992 -1031 928 -1031 928 -1152 
C 928 -1197 966 -1216 1011 -1216 
C 1101 -1216 1216 -1216 1306 -1216 
L 1958 -1216 
C 2054 -1216 2163 -1216 2259 -1216 
C 2298 -1216 2374 -1216 2374 -1095 
C 2374 -1031 2323 -1031 2227 -1031 
C 1926 -1031 1907 -986 1907 -935 
C 1907 -904 1914 -898 1933 -815 
L 2822 2759 
z
M 1920 762 
C 1888 652 1888 640 1798 518 
C 1658 339 1376 64 1075 64 
C 813 64 666 301 666 678 
C 666 1030 864 1747 986 2016 
C 1203 2464 1504 2695 1754 2695 
C 2176 2695 2259 2170 2259 2119 
C 2259 2113 2240 2028 2234 2016 
L 1920 762 
z
" transform="scale(0.015625)"/>
       <path id="CMR17-2b" d="M 2413 1472 
L 4109 1472 
C 4198 1472 4307 1472 4307 1580 
C 4307 1695 4205 1695 4109 1695 
L 2413 1695 
L 2413 3386 
C 2413 3475 2413 3584 2304 3584 
C 2189 3584 2189 3482 2189 3386 
L 2189 1695 
L 493 1695 
C 403 1695 294 1695 294 1587 
C 294 1472 397 1472 493 1472 
L 2189 1472 
L 2189 -218 
C 2189 -307 2189 -416 2298 -416 
C 2413 -416 2413 -314 2413 -218 
L 2413 1472 
z
" transform="scale(0.015625)"/>
       <path id="CMR17-5d" d="M 915 4767 
L 90 4767 
L 90 4544 
L 691 4544 
L 691 -1377 
L 90 -1377 
L 90 -1600 
L 915 -1600 
L 915 4767 
z
" transform="scale(0.015625)"/>
       <path id="CMMI12-6e" d="M 1318 1871 
C 1331 1910 1491 2229 1728 2433 
C 1894 2586 2112 2689 2362 2689 
C 2618 2689 2707 2497 2707 2242 
C 2707 1878 2445 1150 2317 805 
C 2259 651 2227 568 2227 453 
C 2227 166 2426 -64 2733 -64 
C 3328 -64 3552 875 3552 913 
C 3552 945 3526 971 3488 971 
C 3430 971 3424 952 3392 843 
C 3245 319 3002 64 2752 64 
C 2688 64 2586 64 2586 269 
C 2586 429 2656 621 2694 710 
C 2822 1063 3091 1780 3091 2145 
C 3091 2528 2867 2816 2381 2816 
C 1811 2816 1510 2415 1395 2255 
C 1376 2618 1114 2816 832 2816 
C 627 2816 486 2695 378 2478 
C 262 2248 173 1865 173 1839 
C 173 1814 198 1782 243 1782 
C 294 1782 301 1788 339 1935 
C 442 2325 557 2689 813 2689 
C 960 2689 1011 2586 1011 2395 
C 1011 2254 947 2005 902 1807 
L 723 1118 
C 698 996 627 709 595 594 
C 550 428 480 128 480 96 
C 480 6 550 -64 646 -64 
C 723 -64 813 -26 864 70 
C 877 102 934 326 966 453 
L 1107 1028 
L 1318 1871 
z
" transform="scale(0.015625)"/>
       <path id="CMMI12-73" d="M 1459 1280 
C 1568 1261 1741 1223 1779 1216 
C 1862 1192 2150 1090 2150 783 
C 2150 586 1971 70 1229 70 
C 1094 70 614 70 486 436 
C 742 404 870 603 870 745 
C 870 880 781 950 653 950 
C 512 950 326 841 326 552 
C 326 173 710 -64 1222 -64 
C 2195 -64 2483 651 2483 984 
C 2483 1079 2483 1258 2278 1462 
C 2118 1616 1965 1648 1619 1718 
C 1446 1756 1171 1814 1171 2101 
C 1171 2229 1286 2689 1894 2689 
C 2163 2689 2426 2589 2490 2368 
C 2208 2368 2195 2125 2195 2119 
C 2195 1984 2317 1946 2374 1946 
C 2464 1946 2643 2015 2643 2281 
C 2643 2545 2400 2816 1901 2816 
C 1062 2816 838 2160 838 1899 
C 838 1414 1312 1312 1459 1280 
z
" transform="scale(0.015625)"/>
      </defs>
      <use xlink:href="#CMMI12-74" transform="scale(0.996264)"/>
      <use xlink:href="#CMR17-30" transform="translate(35.22633 -14.943915) scale(0.697382)"/>
      <use xlink:href="#CMR17-40" transform="translate(97.783611 0) scale(0.996264)"/>
      <use xlink:href="#CMMI12-6d" transform="translate(199.574365 0) scale(0.996264)"/>
      <use xlink:href="#CMMI12-61" transform="translate(284.90159 0) scale(0.996264)"/>
      <use xlink:href="#CMMI12-78" transform="translate(336.109447 0) scale(0.996264)"/>
      <use xlink:href="#CMR17-5b" transform="translate(391.543507 0) scale(0.996264)"/>
      <use xlink:href="#CMMI12-63" transform="translate(416.414565 0) scale(0.996264)"/>
      <use xlink:href="#CMMI12-6f" transform="translate(458.397799 0) scale(0.996264)"/>
      <use xlink:href="#CMMI12-72" transform="translate(505.293109 0) scale(0.996264)"/>
      <use xlink:href="#CMMI12-72" transform="translate(551.963721 0) scale(0.996264)"/>
      <use xlink:href="#CMR17-5b" transform="translate(598.634333 0) scale(0.996264)"/>
      <use xlink:href="#CMMI12-55" transform="translate(623.505391 0) scale(0.996264)"/>
      <use xlink:href="#CMR17-28" transform="translate(700.164164 0) scale(0.996264)"/>
      <use xlink:href="#CMMI12-74" transform="translate(735.444932 0) scale(0.996264)"/>
      <use xlink:href="#CMR17-29" transform="translate(770.671262 0) scale(0.996264)"/>
      <use xlink:href="#CMMI12-3b" transform="translate(805.95203 0) scale(0.996264)"/>
      <use xlink:href="#CMMI12-71" transform="translate(849.653612 0) scale(0.996264)"/>
      <use xlink:href="#CMR17-28" transform="translate(896.479936 0) scale(0.996264)"/>
      <use xlink:href="#CMMI12-74" transform="translate(931.760704 0) scale(0.996264)"/>
      <use xlink:href="#CMR17-2b" transform="translate(989.126241 0) scale(0.996264)"/>
      <use xlink:href="#CMMI12-74" transform="translate(1082.980236 0) scale(0.996264)"/>
      <use xlink:href="#CMR17-30" transform="translate(1118.206567 -14.943915) scale(0.697382)"/>
      <use xlink:href="#CMR17-29" transform="translate(1150.687881 0) scale(0.996264)"/>
      <use xlink:href="#CMR17-5d" transform="translate(1185.968648 0) scale(0.996264)"/>
      <use xlink:href="#CMR17-5d" transform="translate(1210.839707 0) scale(0.996264)"/>
      <use xlink:href="#CMR17-5b" transform="translate(1265.786732 0) scale(0.996264)"/>
      <use xlink:href="#CMMI12-6e" transform="translate(1290.65779 0) scale(0.996264)"/>
      <use xlink:href="#CMMI12-73" transform="translate(1348.887838 0) scale(0.996264)"/>
      <use xlink:href="#CMR17-5d" transform="translate(1394.837885 0) scale(0.996264)"/>
     </g>
    </g>
   </g>
   <g id="line2d_101">
    <path d="M 39.902583 139.155711 
L 60.790284 131.31948 
L 69.145364 121.244326 
L 81.677984 116.76648 
L 85.855525 112.288634 
L 98.388145 106.691326 
L 102.565685 110.049711 
L 106.743225 108.930249 
L 115.098305 109.48998 
L 123.453385 103.332941 
L 125.542156 99.974557 
L 127.630926 131.31948 
L 133.897236 90.459134 
L 144.341086 87.940345 
L 146.429856 107.251057 
L 152.696166 85.421557 
L 158.962476 88.779941 
L 161.051246 88.220211 
L 165.228787 57.994749 
L 167.317557 123.483249 
L 171.495097 106.131595 
L 173.583867 71.428288 
L 179.850177 83.742365 
L 188.205257 77.585326 
L 190.294027 71.428288 
L 202.826648 80.943711 
L 217.448038 65.271249 
" clip-path="url(#p5e5d7b9fc2)" style="fill: none; stroke: #cd5c5c; stroke-linecap: square"/>
    <defs>
     <path id="m5a78f4e3ae" d="M 0 3 
C 0.795609 3 1.55874 2.683901 2.12132 2.12132 
C 2.683901 1.55874 3 0.795609 3 0 
C 3 -0.795609 2.683901 -1.55874 2.12132 -2.12132 
C 1.55874 -2.683901 0.795609 -3 0 -3 
C -0.795609 -3 -1.55874 -2.683901 -2.12132 -2.12132 
C -2.683901 -1.55874 -3 -0.795609 -3 0 
C -3 0.795609 -2.683901 1.55874 -2.12132 2.12132 
C -1.55874 2.683901 -0.795609 3 0 3 
z
" style="stroke: #cd5c5c"/>
    </defs>
    <g clip-path="url(#p5e5d7b9fc2)">
     <use xlink:href="#m5a78f4e3ae" x="39.902583" y="139.155711" style="fill: #cd5c5c; stroke: #cd5c5c"/>
     <use xlink:href="#m5a78f4e3ae" x="60.790284" y="131.31948" style="fill: #cd5c5c; stroke: #cd5c5c"/>
     <use xlink:href="#m5a78f4e3ae" x="69.145364" y="121.244326" style="fill: #cd5c5c; stroke: #cd5c5c"/>
     <use xlink:href="#m5a78f4e3ae" x="81.677984" y="116.76648" style="fill: #cd5c5c; stroke: #cd5c5c"/>
     <use xlink:href="#m5a78f4e3ae" x="85.855525" y="112.288634" style="fill: #cd5c5c; stroke: #cd5c5c"/>
     <use xlink:href="#m5a78f4e3ae" x="98.388145" y="106.691326" style="fill: #cd5c5c; stroke: #cd5c5c"/>
     <use xlink:href="#m5a78f4e3ae" x="102.565685" y="110.049711" style="fill: #cd5c5c; stroke: #cd5c5c"/>
     <use xlink:href="#m5a78f4e3ae" x="106.743225" y="108.930249" style="fill: #cd5c5c; stroke: #cd5c5c"/>
     <use xlink:href="#m5a78f4e3ae" x="115.098305" y="109.48998" style="fill: #cd5c5c; stroke: #cd5c5c"/>
     <use xlink:href="#m5a78f4e3ae" x="123.453385" y="103.332941" style="fill: #cd5c5c; stroke: #cd5c5c"/>
     <use xlink:href="#m5a78f4e3ae" x="125.542156" y="99.974557" style="fill: #cd5c5c; stroke: #cd5c5c"/>
     <use xlink:href="#m5a78f4e3ae" x="127.630926" y="131.31948" style="fill: #cd5c5c; stroke: #cd5c5c"/>
     <use xlink:href="#m5a78f4e3ae" x="133.897236" y="90.459134" style="fill: #cd5c5c; stroke: #cd5c5c"/>
     <use xlink:href="#m5a78f4e3ae" x="144.341086" y="87.940345" style="fill: #cd5c5c; stroke: #cd5c5c"/>
     <use xlink:href="#m5a78f4e3ae" x="146.429856" y="107.251057" style="fill: #cd5c5c; stroke: #cd5c5c"/>
     <use xlink:href="#m5a78f4e3ae" x="152.696166" y="85.421557" style="fill: #cd5c5c; stroke: #cd5c5c"/>
     <use xlink:href="#m5a78f4e3ae" x="158.962476" y="88.779941" style="fill: #cd5c5c; stroke: #cd5c5c"/>
     <use xlink:href="#m5a78f4e3ae" x="161.051246" y="88.220211" style="fill: #cd5c5c; stroke: #cd5c5c"/>
     <use xlink:href="#m5a78f4e3ae" x="165.228787" y="57.994749" style="fill: #cd5c5c; stroke: #cd5c5c"/>
     <use xlink:href="#m5a78f4e3ae" x="167.317557" y="123.483249" style="fill: #cd5c5c; stroke: #cd5c5c"/>
     <use xlink:href="#m5a78f4e3ae" x="171.495097" y="106.131595" style="fill: #cd5c5c; stroke: #cd5c5c"/>
     <use xlink:href="#m5a78f4e3ae" x="173.583867" y="71.428288" style="fill: #cd5c5c; stroke: #cd5c5c"/>
     <use xlink:href="#m5a78f4e3ae" x="179.850177" y="83.742365" style="fill: #cd5c5c; stroke: #cd5c5c"/>
     <use xlink:href="#m5a78f4e3ae" x="188.205257" y="77.585326" style="fill: #cd5c5c; stroke: #cd5c5c"/>
     <use xlink:href="#m5a78f4e3ae" x="190.294027" y="71.428288" style="fill: #cd5c5c; stroke: #cd5c5c"/>
     <use xlink:href="#m5a78f4e3ae" x="202.826648" y="80.943711" style="fill: #cd5c5c; stroke: #cd5c5c"/>
     <use xlink:href="#m5a78f4e3ae" x="217.448038" y="65.271249" style="fill: #cd5c5c; stroke: #cd5c5c"/>
    </g>
   </g>
   <g id="line2d_102">
    <path d="M 39.902583 139.155711 
L 60.790284 129.080557 
L 69.145364 113.408095 
L 81.677984 113.408095 
L 85.855525 101.653749 
L 98.388145 78.704788 
L 102.565685 102.773211 
L 106.743225 83.742365 
L 115.098305 81.503441 
L 123.453385 84.302095 
L 125.542156 80.943711 
L 127.630926 71.988018 
L 133.897236 79.264518 
L 144.341086 80.38398 
L 146.429856 65.83098 
L 152.696166 66.390711 
L 158.962476 66.390711 
L 161.051246 60.233672 
L 165.228787 74.786672 
L 167.317557 55.755826 
L 171.495097 63.592057 
L 173.583867 65.83098 
L 179.850177 57.994749 
L 188.205257 64.151788 
L 190.294027 60.793403 
L 202.826648 55.196095 
L 217.448038 60.793403 
" clip-path="url(#p5e5d7b9fc2)" style="fill: none; stroke: #b22222; stroke-linecap: square"/>
    <defs>
     <path id="m32e7974c63" d="M 0 3 
C 0.795609 3 1.55874 2.683901 2.12132 2.12132 
C 2.683901 1.55874 3 0.795609 3 0 
C 3 -0.795609 2.683901 -1.55874 2.12132 -2.12132 
C 1.55874 -2.683901 0.795609 -3 0 -3 
C -0.795609 -3 -1.55874 -2.683901 -2.12132 -2.12132 
C -2.683901 -1.55874 -3 -0.795609 -3 0 
C -3 0.795609 -2.683901 1.55874 -2.12132 2.12132 
C -1.55874 2.683901 -0.795609 3 0 3 
z
" style="stroke: #b22222"/>
    </defs>
    <g clip-path="url(#p5e5d7b9fc2)">
     <use xlink:href="#m32e7974c63" x="39.902583" y="139.155711" style="fill: #b22222; stroke: #b22222"/>
     <use xlink:href="#m32e7974c63" x="60.790284" y="129.080557" style="fill: #b22222; stroke: #b22222"/>
     <use xlink:href="#m32e7974c63" x="69.145364" y="113.408095" style="fill: #b22222; stroke: #b22222"/>
     <use xlink:href="#m32e7974c63" x="81.677984" y="113.408095" style="fill: #b22222; stroke: #b22222"/>
     <use xlink:href="#m32e7974c63" x="85.855525" y="101.653749" style="fill: #b22222; stroke: #b22222"/>
     <use xlink:href="#m32e7974c63" x="98.388145" y="78.704788" style="fill: #b22222; stroke: #b22222"/>
     <use xlink:href="#m32e7974c63" x="102.565685" y="102.773211" style="fill: #b22222; stroke: #b22222"/>
     <use xlink:href="#m32e7974c63" x="106.743225" y="83.742365" style="fill: #b22222; stroke: #b22222"/>
     <use xlink:href="#m32e7974c63" x="115.098305" y="81.503441" style="fill: #b22222; stroke: #b22222"/>
     <use xlink:href="#m32e7974c63" x="123.453385" y="84.302095" style="fill: #b22222; stroke: #b22222"/>
     <use xlink:href="#m32e7974c63" x="125.542156" y="80.943711" style="fill: #b22222; stroke: #b22222"/>
     <use xlink:href="#m32e7974c63" x="127.630926" y="71.988018" style="fill: #b22222; stroke: #b22222"/>
     <use xlink:href="#m32e7974c63" x="133.897236" y="79.264518" style="fill: #b22222; stroke: #b22222"/>
     <use xlink:href="#m32e7974c63" x="144.341086" y="80.38398" style="fill: #b22222; stroke: #b22222"/>
     <use xlink:href="#m32e7974c63" x="146.429856" y="65.83098" style="fill: #b22222; stroke: #b22222"/>
     <use xlink:href="#m32e7974c63" x="152.696166" y="66.390711" style="fill: #b22222; stroke: #b22222"/>
     <use xlink:href="#m32e7974c63" x="158.962476" y="66.390711" style="fill: #b22222; stroke: #b22222"/>
     <use xlink:href="#m32e7974c63" x="161.051246" y="60.233672" style="fill: #b22222; stroke: #b22222"/>
     <use xlink:href="#m32e7974c63" x="165.228787" y="74.786672" style="fill: #b22222; stroke: #b22222"/>
     <use xlink:href="#m32e7974c63" x="167.317557" y="55.755826" style="fill: #b22222; stroke: #b22222"/>
     <use xlink:href="#m32e7974c63" x="171.495097" y="63.592057" style="fill: #b22222; stroke: #b22222"/>
     <use xlink:href="#m32e7974c63" x="173.583867" y="65.83098" style="fill: #b22222; stroke: #b22222"/>
     <use xlink:href="#m32e7974c63" x="179.850177" y="57.994749" style="fill: #b22222; stroke: #b22222"/>
     <use xlink:href="#m32e7974c63" x="188.205257" y="64.151788" style="fill: #b22222; stroke: #b22222"/>
     <use xlink:href="#m32e7974c63" x="190.294027" y="60.793403" style="fill: #b22222; stroke: #b22222"/>
     <use xlink:href="#m32e7974c63" x="202.826648" y="55.196095" style="fill: #b22222; stroke: #b22222"/>
     <use xlink:href="#m32e7974c63" x="217.448038" y="60.793403" style="fill: #b22222; stroke: #b22222"/>
    </g>
   </g>
   <g id="line2d_103">
    <path d="M 39.902583 139.155711 
L 60.790284 127.961095 
L 69.145364 107.810788 
L 81.677984 108.370518 
L 85.855525 94.377249 
L 98.388145 77.585326 
L 102.565685 85.421557 
L 106.743225 83.182634 
L 115.098305 69.749095 
L 123.453385 83.182634 
L 125.542156 60.793403 
L 127.630926 55.196095 
L 133.897236 65.271249 
L 144.341086 64.431653 
L 146.429856 51.837711 
L 152.696166 55.755826 
L 158.962476 58.55448 
L 161.051246 55.196095 
L 165.228787 65.271249 
L 167.317557 39.523634 
L 171.495097 43.441749 
L 173.583867 48.479326 
L 179.850177 51.837711 
L 188.205257 44.00148 
L 190.294027 38.404172 
L 202.826648 48.479326 
L 217.448038 46.240403 
" clip-path="url(#p5e5d7b9fc2)" style="fill: none; stroke: #8b0000; stroke-linecap: square"/>
    <defs>
     <path id="mea0b0d0b00" d="M 0 3 
C 0.795609 3 1.55874 2.683901 2.12132 2.12132 
C 2.683901 1.55874 3 0.795609 3 0 
C 3 -0.795609 2.683901 -1.55874 2.12132 -2.12132 
C 1.55874 -2.683901 0.795609 -3 0 -3 
C -0.795609 -3 -1.55874 -2.683901 -2.12132 -2.12132 
C -2.683901 -1.55874 -3 -0.795609 -3 0 
C -3 0.795609 -2.683901 1.55874 -2.12132 2.12132 
C -1.55874 2.683901 -0.795609 3 0 3 
z
" style="stroke: #8b0000"/>
    </defs>
    <g clip-path="url(#p5e5d7b9fc2)">
     <use xlink:href="#mea0b0d0b00" x="39.902583" y="139.155711" style="fill: #8b0000; stroke: #8b0000"/>
     <use xlink:href="#mea0b0d0b00" x="60.790284" y="127.961095" style="fill: #8b0000; stroke: #8b0000"/>
     <use xlink:href="#mea0b0d0b00" x="69.145364" y="107.810788" style="fill: #8b0000; stroke: #8b0000"/>
     <use xlink:href="#mea0b0d0b00" x="81.677984" y="108.370518" style="fill: #8b0000; stroke: #8b0000"/>
     <use xlink:href="#mea0b0d0b00" x="85.855525" y="94.377249" style="fill: #8b0000; stroke: #8b0000"/>
     <use xlink:href="#mea0b0d0b00" x="98.388145" y="77.585326" style="fill: #8b0000; stroke: #8b0000"/>
     <use xlink:href="#mea0b0d0b00" x="102.565685" y="85.421557" style="fill: #8b0000; stroke: #8b0000"/>
     <use xlink:href="#mea0b0d0b00" x="106.743225" y="83.182634" style="fill: #8b0000; stroke: #8b0000"/>
     <use xlink:href="#mea0b0d0b00" x="115.098305" y="69.749095" style="fill: #8b0000; stroke: #8b0000"/>
     <use xlink:href="#mea0b0d0b00" x="123.453385" y="83.182634" style="fill: #8b0000; stroke: #8b0000"/>
     <use xlink:href="#mea0b0d0b00" x="125.542156" y="60.793403" style="fill: #8b0000; stroke: #8b0000"/>
     <use xlink:href="#mea0b0d0b00" x="127.630926" y="55.196095" style="fill: #8b0000; stroke: #8b0000"/>
     <use xlink:href="#mea0b0d0b00" x="133.897236" y="65.271249" style="fill: #8b0000; stroke: #8b0000"/>
     <use xlink:href="#mea0b0d0b00" x="144.341086" y="64.431653" style="fill: #8b0000; stroke: #8b0000"/>
     <use xlink:href="#mea0b0d0b00" x="146.429856" y="51.837711" style="fill: #8b0000; stroke: #8b0000"/>
     <use xlink:href="#mea0b0d0b00" x="152.696166" y="55.755826" style="fill: #8b0000; stroke: #8b0000"/>
     <use xlink:href="#mea0b0d0b00" x="158.962476" y="58.55448" style="fill: #8b0000; stroke: #8b0000"/>
     <use xlink:href="#mea0b0d0b00" x="161.051246" y="55.196095" style="fill: #8b0000; stroke: #8b0000"/>
     <use xlink:href="#mea0b0d0b00" x="165.228787" y="65.271249" style="fill: #8b0000; stroke: #8b0000"/>
     <use xlink:href="#mea0b0d0b00" x="167.317557" y="39.523634" style="fill: #8b0000; stroke: #8b0000"/>
     <use xlink:href="#mea0b0d0b00" x="171.495097" y="43.441749" style="fill: #8b0000; stroke: #8b0000"/>
     <use xlink:href="#mea0b0d0b00" x="173.583867" y="48.479326" style="fill: #8b0000; stroke: #8b0000"/>
     <use xlink:href="#mea0b0d0b00" x="179.850177" y="51.837711" style="fill: #8b0000; stroke: #8b0000"/>
     <use xlink:href="#mea0b0d0b00" x="188.205257" y="44.00148" style="fill: #8b0000; stroke: #8b0000"/>
     <use xlink:href="#mea0b0d0b00" x="190.294027" y="38.404172" style="fill: #8b0000; stroke: #8b0000"/>
     <use xlink:href="#mea0b0d0b00" x="202.826648" y="48.479326" style="fill: #8b0000; stroke: #8b0000"/>
     <use xlink:href="#mea0b0d0b00" x="217.448038" y="46.240403" style="fill: #8b0000; stroke: #8b0000"/>
    </g>
   </g>
   <g id="patch_3">
    <path d="M 31.025311 152.589249 
L 31.025311 7.059249 
" style="fill: none; stroke: #000000; stroke-width: 0.5; stroke-linejoin: miter; stroke-linecap: square"/>
   </g>
   <g id="patch_4">
    <path d="M 226.325311 152.589249 
L 226.325311 7.059249 
" style="fill: none; stroke: #000000; stroke-width: 0.5; stroke-linejoin: miter; stroke-linecap: square"/>
   </g>
   <g id="patch_5">
    <path d="M 31.025311 152.589249 
L 226.325311 152.589249 
" style="fill: none; stroke: #000000; stroke-width: 0.5; stroke-linejoin: miter; stroke-linecap: square"/>
   </g>
   <g id="patch_6">
    <path d="M 31.025311 7.059249 
L 226.325311 7.059249 
" style="fill: none; stroke: #000000; stroke-width: 0.5; stroke-linejoin: miter; stroke-linecap: square"/>
   </g>
   <g id="line2d_104">
    <path d="M 39.902583 139.155711 
L 60.790284 130.200018 
L 69.145364 117.885941 
L 81.677984 117.885941 
L 85.855525 108.370518 
L 98.388145 95.496711 
L 102.565685 103.332941 
L 106.743225 96.056441 
L 115.098305 88.779941 
L 123.453385 91.578595 
L 125.542156 87.66048 
L 127.630926 83.182634 
L 133.897236 83.182634 
L 144.341086 80.663845 
L 146.429856 80.38398 
L 152.696166 82.063172 
L 158.962476 77.585326 
L 161.051246 79.824249 
L 165.228787 76.465865 
L 167.317557 73.667211 
L 171.495097 73.667211 
L 173.583867 77.025595 
L 179.850177 77.585326 
L 188.205257 66.390711 
L 190.294027 68.069903 
L 202.826648 71.988018 
L 217.448038 77.585326 
" clip-path="url(#p5e5d7b9fc2)" style="fill: none; stroke: #000000; stroke-linecap: square"/>
    <defs>
     <path id="m433e87088b" d="M 0 -3 
L -2.85317 -0.927051 
L -1.763356 2.427051 
L 1.763356 2.427051 
L 2.85317 -0.927051 
z
" style="stroke: #000000; stroke-linejoin: miter"/>
    </defs>
    <g clip-path="url(#p5e5d7b9fc2)">
     <use xlink:href="#m433e87088b" x="39.902583" y="139.155711" style="stroke: #000000; stroke-linejoin: miter"/>
     <use xlink:href="#m433e87088b" x="60.790284" y="130.200018" style="stroke: #000000; stroke-linejoin: miter"/>
     <use xlink:href="#m433e87088b" x="69.145364" y="117.885941" style="stroke: #000000; stroke-linejoin: miter"/>
     <use xlink:href="#m433e87088b" x="81.677984" y="117.885941" style="stroke: #000000; stroke-linejoin: miter"/>
     <use xlink:href="#m433e87088b" x="85.855525" y="108.370518" style="stroke: #000000; stroke-linejoin: miter"/>
     <use xlink:href="#m433e87088b" x="98.388145" y="95.496711" style="stroke: #000000; stroke-linejoin: miter"/>
     <use xlink:href="#m433e87088b" x="102.565685" y="103.332941" style="stroke: #000000; stroke-linejoin: miter"/>
     <use xlink:href="#m433e87088b" x="106.743225" y="96.056441" style="stroke: #000000; stroke-linejoin: miter"/>
     <use xlink:href="#m433e87088b" x="115.098305" y="88.779941" style="stroke: #000000; stroke-linejoin: miter"/>
     <use xlink:href="#m433e87088b" x="123.453385" y="91.578595" style="stroke: #000000; stroke-linejoin: miter"/>
     <use xlink:href="#m433e87088b" x="125.542156" y="87.66048" style="stroke: #000000; stroke-linejoin: miter"/>
     <use xlink:href="#m433e87088b" x="127.630926" y="83.182634" style="stroke: #000000; stroke-linejoin: miter"/>
     <use xlink:href="#m433e87088b" x="133.897236" y="83.182634" style="stroke: #000000; stroke-linejoin: miter"/>
     <use xlink:href="#m433e87088b" x="144.341086" y="80.663845" style="stroke: #000000; stroke-linejoin: miter"/>
     <use xlink:href="#m433e87088b" x="146.429856" y="80.38398" style="stroke: #000000; stroke-linejoin: miter"/>
     <use xlink:href="#m433e87088b" x="152.696166" y="82.063172" style="stroke: #000000; stroke-linejoin: miter"/>
     <use xlink:href="#m433e87088b" x="158.962476" y="77.585326" style="stroke: #000000; stroke-linejoin: miter"/>
     <use xlink:href="#m433e87088b" x="161.051246" y="79.824249" style="stroke: #000000; stroke-linejoin: miter"/>
     <use xlink:href="#m433e87088b" x="165.228787" y="76.465865" style="stroke: #000000; stroke-linejoin: miter"/>
     <use xlink:href="#m433e87088b" x="167.317557" y="73.667211" style="stroke: #000000; stroke-linejoin: miter"/>
     <use xlink:href="#m433e87088b" x="171.495097" y="73.667211" style="stroke: #000000; stroke-linejoin: miter"/>
     <use xlink:href="#m433e87088b" x="173.583867" y="77.025595" style="stroke: #000000; stroke-linejoin: miter"/>
     <use xlink:href="#m433e87088b" x="179.850177" y="77.585326" style="stroke: #000000; stroke-linejoin: miter"/>
     <use xlink:href="#m433e87088b" x="188.205257" y="66.390711" style="stroke: #000000; stroke-linejoin: miter"/>
     <use xlink:href="#m433e87088b" x="190.294027" y="68.069903" style="stroke: #000000; stroke-linejoin: miter"/>
     <use xlink:href="#m433e87088b" x="202.826648" y="71.988018" style="stroke: #000000; stroke-linejoin: miter"/>
     <use xlink:href="#m433e87088b" x="217.448038" y="77.585326" style="stroke: #000000; stroke-linejoin: miter"/>
    </g>
   </g>
   <g id="legend_1">
    <g id="patch_7">
     <path d="M 35.883311 51.300849 
L 97.913504 51.300849 
Q 99.301504 51.300849 99.301504 49.912849 
L 99.301504 11.917249 
Q 99.301504 10.529249 97.913504 10.529249 
L 35.883311 10.529249 
Q 34.495311 10.529249 34.495311 11.917249 
L 34.495311 49.912849 
Q 34.495311 51.300849 35.883311 51.300849 
z
" style="fill: #ffffff; stroke: #cccccc; stroke-linejoin: miter"/>
    </g>
    <g id="line2d_105">
     <path d="M 37.271311 15.734249 
L 44.211311 15.734249 
L 51.151311 15.734249 
" style="fill: none; stroke: #000000; stroke-linecap: square"/>
     <g>
      <use xlink:href="#m433e87088b" x="44.211311" y="15.734249" style="stroke: #000000; stroke-linejoin: miter"/>
     </g>
    </g>
    <g id="text_15">
     <!-- $uniform$ -->
     <g transform="translate(56.703311 18.163249) scale(0.0694 -0.0694)">
      <defs>
       <path id="CMMI12-75" d="M 2182 370 
C 2266 13 2573 -64 2726 -64 
C 2931 -64 3085 70 3187 287 
C 3296 517 3379 894 3379 913 
C 3379 945 3354 971 3315 971 
C 3258 971 3251 939 3226 843 
C 3110 402 2995 64 2739 64 
C 2547 64 2547 275 2547 358 
C 2547 505 2566 568 2630 837 
C 2675 1009 2720 1181 2758 1360 
L 3021 2401 
C 3066 2561 3066 2574 3066 2593 
C 3066 2689 2989 2753 2893 2753 
C 2707 2753 2662 2593 2624 2433 
C 2560 2184 2214 811 2170 588 
C 2163 588 1914 64 1446 64 
C 1114 64 1050 351 1050 588 
C 1050 952 1229 1462 1395 1890 
C 1472 2095 1504 2178 1504 2305 
C 1504 2580 1306 2816 998 2816 
C 410 2816 173 1890 173 1839 
C 173 1814 198 1782 243 1782 
C 301 1782 307 1807 333 1896 
C 486 2441 736 2682 979 2682 
C 1043 2682 1146 2682 1146 2478 
C 1146 2312 1075 2127 979 1884 
C 698 1124 666 881 666 690 
C 666 38 1158 -64 1421 -64 
C 1830 -64 2054 217 2182 370 
z
" transform="scale(0.015625)"/>
       <path id="CMMI12-69" d="M 1811 913 
C 1811 945 1786 971 1747 971 
C 1690 971 1683 952 1651 843 
C 1485 262 1222 64 1011 64 
C 934 64 845 83 845 275 
C 845 447 922 639 992 830 
L 1440 2018 
C 1459 2069 1504 2184 1504 2305 
C 1504 2574 1312 2816 998 2816 
C 410 2816 173 1890 173 1839 
C 173 1814 198 1782 243 1782 
C 301 1782 307 1807 333 1896 
C 486 2428 730 2682 979 2682 
C 1037 2682 1146 2682 1146 2478 
C 1146 2312 1062 2101 1011 1961 
L 563 773 
C 525 671 486 568 486 453 
C 486 166 685 -64 992 -64 
C 1581 -64 1811 869 1811 913 
z
M 1760 4013 
C 1760 4109 1683 4224 1542 4224 
C 1395 4224 1229 4083 1229 3917 
C 1229 3758 1363 3707 1440 3707 
C 1613 3707 1760 3873 1760 4013 
z
" transform="scale(0.015625)"/>
       <path id="CMMI12-66" d="M 2854 2566 
C 2982 2566 3034 2566 3034 2688 
C 3034 2752 2982 2752 2867 2752 
L 2349 2752 
C 2470 3429 2560 3897 2611 4107 
C 2650 4265 2784 4416 2950 4416 
C 3085 4416 3219 4358 3283 4298 
C 3034 4272 2957 4082 2957 3969 
C 2957 3837 3053 3759 3174 3759 
C 3302 3759 3494 3870 3494 4119 
C 3494 4393 3226 4544 2944 4544 
C 2669 4544 2400 4334 2272 4078 
C 2157 3848 2093 3611 1946 2752 
L 1517 2752 
C 1395 2752 1331 2752 1331 2637 
C 1331 2566 1370 2566 1498 2566 
L 1907 2566 
C 1792 1976 1530 542 1382 -137 
C 1274 -689 1178 -1152 858 -1152 
C 838 -1152 653 -1152 538 -1031 
C 864 -1005 864 -726 864 -720 
C 864 -593 768 -517 646 -517 
C 518 -517 326 -625 326 -867 
C 326 -1140 608 -1280 858 -1280 
C 1510 -1280 1779 -118 1850 199 
C 1965 688 2278 2376 2310 2566 
L 2854 2566 
z
" transform="scale(0.015625)"/>
      </defs>
      <use xlink:href="#CMMI12-75" transform="scale(0.996264)"/>
      <use xlink:href="#CMMI12-6e" transform="translate(55.52033 0) scale(0.996264)"/>
      <use xlink:href="#CMMI12-69" transform="translate(113.750377 0) scale(0.996264)"/>
      <use xlink:href="#CMMI12-66" transform="translate(147.028979 0) scale(0.996264)"/>
      <use xlink:href="#CMMI12-6f" transform="translate(205.749284 0) scale(0.996264)"/>
      <use xlink:href="#CMMI12-72" transform="translate(252.644593 0) scale(0.996264)"/>
      <use xlink:href="#CMMI12-6d" transform="translate(299.315205 0) scale(0.996264)"/>
     </g>
    </g>
    <g id="line2d_106">
     <path d="M 37.271311 25.406649 
L 44.211311 25.406649 
L 51.151311 25.406649 
" style="fill: none; stroke: #cd5c5c; stroke-linecap: square"/>
     <g>
      <use xlink:href="#m5a78f4e3ae" x="44.211311" y="25.406649" style="fill: #cd5c5c; stroke: #cd5c5c"/>
     </g>
    </g>
    <g id="text_16">
     <!-- $r = 5$ $nm$ -->
     <g transform="translate(56.703311 27.835649) scale(0.0694 -0.0694)">
      <defs>
       <path id="CMR17-3d" d="M 4115 2017 
C 4211 2017 4307 2017 4307 2125 
C 4307 2240 4198 2240 4090 2240 
L 512 2240 
C 403 2240 294 2240 294 2125 
C 294 2017 390 2017 486 2017 
L 4115 2017 
z
M 4090 896 
C 4198 896 4307 896 4307 1011 
C 4307 1119 4211 1119 4115 1119 
L 486 1119 
C 390 1119 294 1119 294 1011 
C 294 896 403 896 512 896 
L 4090 896 
z
" transform="scale(0.015625)"/>
       <path id="CMR17-35" d="M 730 3692 
C 794 3666 1056 3584 1325 3584 
C 1920 3584 2246 3911 2432 4100 
C 2432 4157 2432 4192 2394 4192 
C 2387 4192 2374 4192 2323 4163 
C 2099 4058 1837 3973 1517 3973 
C 1325 3973 1037 3999 723 4139 
C 653 4171 640 4171 634 4171 
C 602 4171 595 4164 595 4037 
L 595 2203 
C 595 2089 595 2057 659 2057 
C 691 2057 704 2070 736 2114 
C 941 2401 1222 2522 1542 2522 
C 1766 2522 2246 2382 2246 1289 
C 2246 1085 2246 715 2054 421 
C 1894 159 1645 25 1370 25 
C 947 25 518 320 403 814 
C 429 807 480 795 506 795 
C 589 795 749 840 749 1038 
C 749 1210 627 1280 506 1280 
C 358 1280 262 1190 262 1011 
C 262 454 704 -128 1382 -128 
C 2042 -128 2669 440 2669 1264 
C 2669 2030 2170 2624 1549 2624 
C 1222 2624 947 2503 730 2274 
L 730 3692 
z
" transform="scale(0.015625)"/>
      </defs>
      <use xlink:href="#CMMI12-72" transform="scale(0.996264)"/>
      <use xlink:href="#CMR17-3d" transform="translate(74.344621 0) scale(0.996264)"/>
      <use xlink:href="#CMR17-35" transform="translate(173.733418 0) scale(0.996264)"/>
      <use xlink:href="#CMMI12-6e" transform="translate(249.499861 0) scale(0.996264)"/>
      <use xlink:href="#CMMI12-6d" transform="translate(307.729909 0) scale(0.996264)"/>
     </g>
    </g>
    <g id="line2d_107">
     <path d="M 37.271311 35.079049 
L 44.211311 35.079049 
L 51.151311 35.079049 
" style="fill: none; stroke: #b22222; stroke-linecap: square"/>
     <g>
      <use xlink:href="#m32e7974c63" x="44.211311" y="35.079049" style="fill: #b22222; stroke: #b22222"/>
     </g>
    </g>
    <g id="text_17">
     <!-- $r = 20$ $nm$ -->
     <g transform="translate(56.703311 37.508049) scale(0.0694 -0.0694)">
      <use xlink:href="#CMMI12-72" transform="scale(0.996264)"/>
      <use xlink:href="#CMR17-3d" transform="translate(74.344621 0) scale(0.996264)"/>
      <use xlink:href="#CMR17-32" transform="translate(173.733418 0) scale(0.996264)"/>
      <use xlink:href="#CMR17-30" transform="translate(219.423895 0) scale(0.996264)"/>
      <use xlink:href="#CMMI12-6e" transform="translate(295.190338 0) scale(0.996264)"/>
      <use xlink:href="#CMMI12-6d" transform="translate(353.420386 0) scale(0.996264)"/>
     </g>
    </g>
    <g id="line2d_108">
     <path d="M 37.271311 44.751449 
L 44.211311 44.751449 
L 51.151311 44.751449 
" style="fill: none; stroke: #8b0000; stroke-linecap: square"/>
     <g>
      <use xlink:href="#mea0b0d0b00" x="44.211311" y="44.751449" style="fill: #8b0000; stroke: #8b0000"/>
     </g>
    </g>
    <g id="text_18">
     <!-- $r = 40$ $nm$ -->
     <g transform="translate(56.703311 47.180449) scale(0.0694 -0.0694)">
      <use xlink:href="#CMMI12-72" transform="scale(0.996264)"/>
      <use xlink:href="#CMR17-3d" transform="translate(74.344621 0) scale(0.996264)"/>
      <use xlink:href="#CMR17-34" transform="translate(173.733418 0) scale(0.996264)"/>
      <use xlink:href="#CMR17-30" transform="translate(219.423895 0) scale(0.996264)"/>
      <use xlink:href="#CMMI12-6e" transform="translate(295.190338 0) scale(0.996264)"/>
      <use xlink:href="#CMMI12-6d" transform="translate(353.420386 0) scale(0.996264)"/>
     </g>
    </g>
   </g>
  </g>
 </g>
 <defs>
  <clipPath id="p5e5d7b9fc2">
   <rect x="31.025311" y="7.059249" width="195.3" height="145.53"/>
  </clipPath>
 </defs>
</svg>
