<?xml version="1.0" encoding="utf-8" standalone="no"?>
<!DOCTYPE svg PUBLIC "-//W3C//DTD SVG 1.1//EN"
  "http://www.w3.org/Graphics/SVG/1.1/DTD/svg11.dtd">
<svg xmlns:xlink="http://www.w3.org/1999/xlink" width="229.925311pt" height="179.048317pt" viewBox="0 0 229.925311 179.048317" xmlns="http://www.w3.org/2000/svg" version="1.1">
 <metadata>
  <rdf:RDF xmlns:dc="http://purl.org/dc/elements/1.1/" xmlns:cc="http://creativecommons.org/ns#" xmlns:rdf="http://www.w3.org/1999/02/22-rdf-syntax-ns#">
   <cc:Work>
    <dc:type rdf:resource="http://purl.org/dc/dcmitype/StillImage"/>
    <dc:date>2025-05-06T14:30:25.463968</dc:date>
    <dc:format>image/svg+xml</dc:format>
    <dc:creator>
     <cc:Agent>
      <dc:title>Matplotlib v3.9.2, https://matplotlib.org/</dc:title>
     </cc:Agent>
    </dc:creator>
   </cc:Work>
  </rdf:RDF>
 </metadata>
 <defs>
  <style type="text/css">*{stroke-linejoin: round; stroke-linecap: butt}</style>
 </defs>
 <g id="figure_1">
  <g id="patch_1">
   <path d="M 0 179.048317 
L 229.925311 179.048317 
L 229.925311 0 
L 0 0 
L 0 179.048317 
z
" style="fill: none"/>
  </g>
  <g id="axes_1">
   <g id="patch_2">
    <path d="M 31.025311 149.13 
L 226.325311 149.13 
L 226.325311 3.6 
L 31.025311 3.6 
L 31.025311 149.13 
z
" style="fill: none"/>
   </g>
   <g id="matplotlib.axis_1">
    <g id="xtick_1">
     <g id="line2d_1">
      <path d="M 38.837311 149.13 
L 38.837311 3.6 
" clip-path="url(#pc012cadc9f)" style="fill: none; stroke-dasharray: 1.85,0.8; stroke-dashoffset: 0; stroke: #000000; stroke-opacity: 0.5; stroke-width: 0.5"/>
     </g>
     <g id="line2d_2">
      <defs>
       <path id="m10af7f92ff" d="M 0 0 
L 0 -3 
" style="stroke: #000000; stroke-width: 0.5"/>
      </defs>
      <g>
       <use xlink:href="#m10af7f92ff" x="38.837311" y="149.13" style="stroke: #000000; stroke-width: 0.5"/>
      </g>
     </g>
     <g id="line2d_3">
      <defs>
       <path id="m40ede46439" d="M 0 0 
L 0 3 
" style="stroke: #000000; stroke-width: 0.5"/>
      </defs>
      <g>
       <use xlink:href="#m40ede46439" x="38.837311" y="3.6" style="stroke: #000000; stroke-width: 0.5"/>
      </g>
     </g>
     <g id="text_1">
      <!-- $\mathdefault{0}$ -->
      <g transform="translate(36.346643 159.548498) scale(0.1 -0.1)">
       <defs>
        <path id="CMR17-30" d="M 2688 2025 
C 2688 2416 2682 3080 2413 3591 
C 2176 4039 1798 4198 1466 4198 
C 1158 4198 768 4058 525 3597 
C 269 3118 243 2524 243 2025 
C 243 1661 250 1106 448 619 
C 723 -39 1216 -128 1466 -128 
C 1760 -128 2208 -7 2470 600 
C 2662 1042 2688 1559 2688 2025 
z
M 1466 -26 
C 1056 -26 813 325 723 812 
C 653 1188 653 1738 653 2096 
C 653 2588 653 2997 736 3387 
C 858 3929 1216 4096 1466 4096 
C 1728 4096 2067 3923 2189 3400 
C 2272 3036 2278 2607 2278 2096 
C 2278 1680 2278 1169 2202 792 
C 2067 95 1690 -26 1466 -26 
z
" transform="scale(0.015625)"/>
       </defs>
       <use xlink:href="#CMR17-30" transform="scale(0.996264)"/>
      </g>
     </g>
    </g>
    <g id="xtick_2">
     <g id="line2d_4">
      <path d="M 77.897311 149.13 
L 77.897311 3.6 
" clip-path="url(#pc012cadc9f)" style="fill: none; stroke-dasharray: 1.85,0.8; stroke-dashoffset: 0; stroke: #000000; stroke-opacity: 0.5; stroke-width: 0.5"/>
     </g>
     <g id="line2d_5">
      <g>
       <use xlink:href="#m10af7f92ff" x="77.897311" y="149.13" style="stroke: #000000; stroke-width: 0.5"/>
      </g>
     </g>
     <g id="line2d_6">
      <g>
       <use xlink:href="#m40ede46439" x="77.897311" y="3.6" style="stroke: #000000; stroke-width: 0.5"/>
      </g>
     </g>
     <g id="text_2">
      <!-- $\mathdefault{2500}$ -->
      <g transform="translate(67.93464 159.548498) scale(0.1 -0.1)">
       <defs>
        <path id="CMR17-32" d="M 2669 989 
L 2554 989 
C 2490 536 2438 459 2413 420 
C 2381 369 1920 369 1830 369 
L 602 369 
C 832 619 1280 1072 1824 1597 
C 2214 1967 2669 2402 2669 3035 
C 2669 3790 2067 4224 1395 4224 
C 691 4224 262 3604 262 3030 
C 262 2780 448 2748 525 2748 
C 589 2748 781 2787 781 3010 
C 781 3207 614 3264 525 3264 
C 486 3264 448 3258 422 3245 
C 544 3790 915 4058 1306 4058 
C 1862 4058 2227 3617 2227 3035 
C 2227 2479 1901 2000 1536 1584 
L 262 146 
L 262 0 
L 2515 0 
L 2669 989 
z
" transform="scale(0.015625)"/>
        <path id="CMR17-35" d="M 730 3692 
C 794 3666 1056 3584 1325 3584 
C 1920 3584 2246 3911 2432 4100 
C 2432 4157 2432 4192 2394 4192 
C 2387 4192 2374 4192 2323 4163 
C 2099 4058 1837 3973 1517 3973 
C 1325 3973 1037 3999 723 4139 
C 653 4171 640 4171 634 4171 
C 602 4171 595 4164 595 4037 
L 595 2203 
C 595 2089 595 2057 659 2057 
C 691 2057 704 2070 736 2114 
C 941 2401 1222 2522 1542 2522 
C 1766 2522 2246 2382 2246 1289 
C 2246 1085 2246 715 2054 421 
C 1894 159 1645 25 1370 25 
C 947 25 518 320 403 814 
C 429 807 480 795 506 795 
C 589 795 749 840 749 1038 
C 749 1210 627 1280 506 1280 
C 358 1280 262 1190 262 1011 
C 262 454 704 -128 1382 -128 
C 2042 -128 2669 440 2669 1264 
C 2669 2030 2170 2624 1549 2624 
C 1222 2624 947 2503 730 2274 
L 730 3692 
z
" transform="scale(0.015625)"/>
       </defs>
       <use xlink:href="#CMR17-32" transform="scale(0.996264)"/>
       <use xlink:href="#CMR17-35" transform="translate(45.690477 0) scale(0.996264)"/>
       <use xlink:href="#CMR17-30" transform="translate(91.380954 0) scale(0.996264)"/>
       <use xlink:href="#CMR17-30" transform="translate(137.071431 0) scale(0.996264)"/>
      </g>
     </g>
    </g>
    <g id="xtick_3">
     <g id="line2d_7">
      <path d="M 116.957311 149.13 
L 116.957311 3.6 
" clip-path="url(#pc012cadc9f)" style="fill: none; stroke-dasharray: 1.85,0.8; stroke-dashoffset: 0; stroke: #000000; stroke-opacity: 0.5; stroke-width: 0.5"/>
     </g>
     <g id="line2d_8">
      <g>
       <use xlink:href="#m10af7f92ff" x="116.957311" y="149.13" style="stroke: #000000; stroke-width: 0.5"/>
      </g>
     </g>
     <g id="line2d_9">
      <g>
       <use xlink:href="#m40ede46439" x="116.957311" y="3.6" style="stroke: #000000; stroke-width: 0.5"/>
      </g>
     </g>
     <g id="text_3">
      <!-- $\mathdefault{5000}$ -->
      <g transform="translate(106.99464 159.548498) scale(0.1 -0.1)">
       <use xlink:href="#CMR17-35" transform="scale(0.996264)"/>
       <use xlink:href="#CMR17-30" transform="translate(45.690477 0) scale(0.996264)"/>
       <use xlink:href="#CMR17-30" transform="translate(91.380954 0) scale(0.996264)"/>
       <use xlink:href="#CMR17-30" transform="translate(137.071431 0) scale(0.996264)"/>
      </g>
     </g>
    </g>
    <g id="xtick_4">
     <g id="line2d_10">
      <path d="M 156.017311 149.13 
L 156.017311 3.6 
" clip-path="url(#pc012cadc9f)" style="fill: none; stroke-dasharray: 1.85,0.8; stroke-dashoffset: 0; stroke: #000000; stroke-opacity: 0.5; stroke-width: 0.5"/>
     </g>
     <g id="line2d_11">
      <g>
       <use xlink:href="#m10af7f92ff" x="156.017311" y="149.13" style="stroke: #000000; stroke-width: 0.5"/>
      </g>
     </g>
     <g id="line2d_12">
      <g>
       <use xlink:href="#m40ede46439" x="156.017311" y="3.6" style="stroke: #000000; stroke-width: 0.5"/>
      </g>
     </g>
     <g id="text_4">
      <!-- $\mathdefault{7500}$ -->
      <g transform="translate(146.05464 159.548498) scale(0.1 -0.1)">
       <defs>
        <path id="CMR17-37" d="M 2886 3941 
L 2886 4081 
L 1382 4081 
C 634 4081 621 4165 595 4288 
L 480 4288 
L 294 3094 
L 410 3094 
C 429 3215 474 3540 550 3661 
C 589 3712 1062 3712 1171 3712 
L 2579 3712 
L 1869 2661 
C 1395 1954 1069 999 1069 165 
C 1069 89 1069 -128 1299 -128 
C 1530 -128 1530 89 1530 171 
L 1530 465 
C 1530 1508 1709 2196 2003 2636 
L 2886 3941 
z
" transform="scale(0.015625)"/>
       </defs>
       <use xlink:href="#CMR17-37" transform="scale(0.996264)"/>
       <use xlink:href="#CMR17-35" transform="translate(45.690477 0) scale(0.996264)"/>
       <use xlink:href="#CMR17-30" transform="translate(91.380954 0) scale(0.996264)"/>
       <use xlink:href="#CMR17-30" transform="translate(137.071431 0) scale(0.996264)"/>
      </g>
     </g>
    </g>
    <g id="xtick_5">
     <g id="line2d_13">
      <path d="M 195.077311 149.13 
L 195.077311 3.6 
" clip-path="url(#pc012cadc9f)" style="fill: none; stroke-dasharray: 1.85,0.8; stroke-dashoffset: 0; stroke: #000000; stroke-opacity: 0.5; stroke-width: 0.5"/>
     </g>
     <g id="line2d_14">
      <g>
       <use xlink:href="#m10af7f92ff" x="195.077311" y="149.13" style="stroke: #000000; stroke-width: 0.5"/>
      </g>
     </g>
     <g id="line2d_15">
      <g>
       <use xlink:href="#m40ede46439" x="195.077311" y="3.6" style="stroke: #000000; stroke-width: 0.5"/>
      </g>
     </g>
     <g id="text_5">
      <!-- $\mathdefault{10000}$ -->
      <g transform="translate(182.623972 159.548498) scale(0.1 -0.1)">
       <defs>
        <path id="CMR17-31" d="M 1702 4058 
C 1702 4192 1696 4192 1606 4192 
C 1357 3916 979 3827 621 3827 
C 602 3827 570 3827 563 3808 
C 557 3795 557 3782 557 3648 
C 755 3648 1088 3686 1344 3839 
L 1344 461 
C 1344 236 1331 160 781 160 
L 589 160 
L 589 0 
C 896 0 1216 0 1523 0 
C 1830 0 2150 0 2458 0 
L 2458 160 
L 2266 160 
C 1715 160 1702 230 1702 458 
L 1702 4058 
z
" transform="scale(0.015625)"/>
       </defs>
       <use xlink:href="#CMR17-31" transform="scale(0.996264)"/>
       <use xlink:href="#CMR17-30" transform="translate(45.690477 0) scale(0.996264)"/>
       <use xlink:href="#CMR17-30" transform="translate(91.380954 0) scale(0.996264)"/>
       <use xlink:href="#CMR17-30" transform="translate(137.071431 0) scale(0.996264)"/>
       <use xlink:href="#CMR17-30" transform="translate(182.761908 0) scale(0.996264)"/>
      </g>
     </g>
    </g>
    <g id="xtick_6">
     <g id="line2d_16">
      <defs>
       <path id="m5292e8e60e" d="M 0 0 
L 0 -1.5 
" style="stroke: #000000; stroke-width: 0.5"/>
      </defs>
      <g>
       <use xlink:href="#m5292e8e60e" x="31.025311" y="149.13" style="stroke: #000000; stroke-width: 0.5"/>
      </g>
     </g>
     <g id="line2d_17">
      <defs>
       <path id="mec37aaa415" d="M 0 0 
L 0 1.5 
" style="stroke: #000000; stroke-width: 0.5"/>
      </defs>
      <g>
       <use xlink:href="#mec37aaa415" x="31.025311" y="3.6" style="stroke: #000000; stroke-width: 0.5"/>
      </g>
     </g>
    </g>
    <g id="xtick_7">
     <g id="line2d_18">
      <g>
       <use xlink:href="#m5292e8e60e" x="46.649311" y="149.13" style="stroke: #000000; stroke-width: 0.5"/>
      </g>
     </g>
     <g id="line2d_19">
      <g>
       <use xlink:href="#mec37aaa415" x="46.649311" y="3.6" style="stroke: #000000; stroke-width: 0.5"/>
      </g>
     </g>
    </g>
    <g id="xtick_8">
     <g id="line2d_20">
      <g>
       <use xlink:href="#m5292e8e60e" x="54.461311" y="149.13" style="stroke: #000000; stroke-width: 0.5"/>
      </g>
     </g>
     <g id="line2d_21">
      <g>
       <use xlink:href="#mec37aaa415" x="54.461311" y="3.6" style="stroke: #000000; stroke-width: 0.5"/>
      </g>
     </g>
    </g>
    <g id="xtick_9">
     <g id="line2d_22">
      <g>
       <use xlink:href="#m5292e8e60e" x="62.273311" y="149.13" style="stroke: #000000; stroke-width: 0.5"/>
      </g>
     </g>
     <g id="line2d_23">
      <g>
       <use xlink:href="#mec37aaa415" x="62.273311" y="3.6" style="stroke: #000000; stroke-width: 0.5"/>
      </g>
     </g>
    </g>
    <g id="xtick_10">
     <g id="line2d_24">
      <g>
       <use xlink:href="#m5292e8e60e" x="70.085311" y="149.13" style="stroke: #000000; stroke-width: 0.5"/>
      </g>
     </g>
     <g id="line2d_25">
      <g>
       <use xlink:href="#mec37aaa415" x="70.085311" y="3.6" style="stroke: #000000; stroke-width: 0.5"/>
      </g>
     </g>
    </g>
    <g id="xtick_11">
     <g id="line2d_26">
      <g>
       <use xlink:href="#m5292e8e60e" x="85.709311" y="149.13" style="stroke: #000000; stroke-width: 0.5"/>
      </g>
     </g>
     <g id="line2d_27">
      <g>
       <use xlink:href="#mec37aaa415" x="85.709311" y="3.6" style="stroke: #000000; stroke-width: 0.5"/>
      </g>
     </g>
    </g>
    <g id="xtick_12">
     <g id="line2d_28">
      <g>
       <use xlink:href="#m5292e8e60e" x="93.521311" y="149.13" style="stroke: #000000; stroke-width: 0.5"/>
      </g>
     </g>
     <g id="line2d_29">
      <g>
       <use xlink:href="#mec37aaa415" x="93.521311" y="3.6" style="stroke: #000000; stroke-width: 0.5"/>
      </g>
     </g>
    </g>
    <g id="xtick_13">
     <g id="line2d_30">
      <g>
       <use xlink:href="#m5292e8e60e" x="101.333311" y="149.13" style="stroke: #000000; stroke-width: 0.5"/>
      </g>
     </g>
     <g id="line2d_31">
      <g>
       <use xlink:href="#mec37aaa415" x="101.333311" y="3.6" style="stroke: #000000; stroke-width: 0.5"/>
      </g>
     </g>
    </g>
    <g id="xtick_14">
     <g id="line2d_32">
      <g>
       <use xlink:href="#m5292e8e60e" x="109.145311" y="149.13" style="stroke: #000000; stroke-width: 0.5"/>
      </g>
     </g>
     <g id="line2d_33">
      <g>
       <use xlink:href="#mec37aaa415" x="109.145311" y="3.6" style="stroke: #000000; stroke-width: 0.5"/>
      </g>
     </g>
    </g>
    <g id="xtick_15">
     <g id="line2d_34">
      <g>
       <use xlink:href="#m5292e8e60e" x="124.769311" y="149.13" style="stroke: #000000; stroke-width: 0.5"/>
      </g>
     </g>
     <g id="line2d_35">
      <g>
       <use xlink:href="#mec37aaa415" x="124.769311" y="3.6" style="stroke: #000000; stroke-width: 0.5"/>
      </g>
     </g>
    </g>
    <g id="xtick_16">
     <g id="line2d_36">
      <g>
       <use xlink:href="#m5292e8e60e" x="132.581311" y="149.13" style="stroke: #000000; stroke-width: 0.5"/>
      </g>
     </g>
     <g id="line2d_37">
      <g>
       <use xlink:href="#mec37aaa415" x="132.581311" y="3.6" style="stroke: #000000; stroke-width: 0.5"/>
      </g>
     </g>
    </g>
    <g id="xtick_17">
     <g id="line2d_38">
      <g>
       <use xlink:href="#m5292e8e60e" x="140.393311" y="149.13" style="stroke: #000000; stroke-width: 0.5"/>
      </g>
     </g>
     <g id="line2d_39">
      <g>
       <use xlink:href="#mec37aaa415" x="140.393311" y="3.6" style="stroke: #000000; stroke-width: 0.5"/>
      </g>
     </g>
    </g>
    <g id="xtick_18">
     <g id="line2d_40">
      <g>
       <use xlink:href="#m5292e8e60e" x="148.205311" y="149.13" style="stroke: #000000; stroke-width: 0.5"/>
      </g>
     </g>
     <g id="line2d_41">
      <g>
       <use xlink:href="#mec37aaa415" x="148.205311" y="3.6" style="stroke: #000000; stroke-width: 0.5"/>
      </g>
     </g>
    </g>
    <g id="xtick_19">
     <g id="line2d_42">
      <g>
       <use xlink:href="#m5292e8e60e" x="163.829311" y="149.13" style="stroke: #000000; stroke-width: 0.5"/>
      </g>
     </g>
     <g id="line2d_43">
      <g>
       <use xlink:href="#mec37aaa415" x="163.829311" y="3.6" style="stroke: #000000; stroke-width: 0.5"/>
      </g>
     </g>
    </g>
    <g id="xtick_20">
     <g id="line2d_44">
      <g>
       <use xlink:href="#m5292e8e60e" x="171.641311" y="149.13" style="stroke: #000000; stroke-width: 0.5"/>
      </g>
     </g>
     <g id="line2d_45">
      <g>
       <use xlink:href="#mec37aaa415" x="171.641311" y="3.6" style="stroke: #000000; stroke-width: 0.5"/>
      </g>
     </g>
    </g>
    <g id="xtick_21">
     <g id="line2d_46">
      <g>
       <use xlink:href="#m5292e8e60e" x="179.453311" y="149.13" style="stroke: #000000; stroke-width: 0.5"/>
      </g>
     </g>
     <g id="line2d_47">
      <g>
       <use xlink:href="#mec37aaa415" x="179.453311" y="3.6" style="stroke: #000000; stroke-width: 0.5"/>
      </g>
     </g>
    </g>
    <g id="xtick_22">
     <g id="line2d_48">
      <g>
       <use xlink:href="#m5292e8e60e" x="187.265311" y="149.13" style="stroke: #000000; stroke-width: 0.5"/>
      </g>
     </g>
     <g id="line2d_49">
      <g>
       <use xlink:href="#mec37aaa415" x="187.265311" y="3.6" style="stroke: #000000; stroke-width: 0.5"/>
      </g>
     </g>
    </g>
    <g id="xtick_23">
     <g id="line2d_50">
      <g>
       <use xlink:href="#m5292e8e60e" x="202.889311" y="149.13" style="stroke: #000000; stroke-width: 0.5"/>
      </g>
     </g>
     <g id="line2d_51">
      <g>
       <use xlink:href="#mec37aaa415" x="202.889311" y="3.6" style="stroke: #000000; stroke-width: 0.5"/>
      </g>
     </g>
    </g>
    <g id="xtick_24">
     <g id="line2d_52">
      <g>
       <use xlink:href="#m5292e8e60e" x="210.701311" y="149.13" style="stroke: #000000; stroke-width: 0.5"/>
      </g>
     </g>
     <g id="line2d_53">
      <g>
       <use xlink:href="#mec37aaa415" x="210.701311" y="3.6" style="stroke: #000000; stroke-width: 0.5"/>
      </g>
     </g>
    </g>
    <g id="xtick_25">
     <g id="line2d_54">
      <g>
       <use xlink:href="#m5292e8e60e" x="218.513311" y="149.13" style="stroke: #000000; stroke-width: 0.5"/>
      </g>
     </g>
     <g id="line2d_55">
      <g>
       <use xlink:href="#mec37aaa415" x="218.513311" y="3.6" style="stroke: #000000; stroke-width: 0.5"/>
      </g>
     </g>
    </g>
    <g id="xtick_26">
     <g id="line2d_56">
      <g>
       <use xlink:href="#m5292e8e60e" x="226.325311" y="149.13" style="stroke: #000000; stroke-width: 0.5"/>
      </g>
     </g>
     <g id="line2d_57">
      <g>
       <use xlink:href="#mec37aaa415" x="226.325311" y="3.6" style="stroke: #000000; stroke-width: 0.5"/>
      </g>
     </g>
    </g>
    <g id="text_6">
     <!-- $t$ [ns] -->
     <g transform="translate(117.716391 172.957657) scale(0.1 -0.1)">
      <defs>
       <path id="CMMI12-74" d="M 1286 2566 
L 1875 2566 
C 1997 2566 2061 2566 2061 2681 
C 2061 2752 2022 2752 1894 2752 
L 1331 2752 
L 1568 3692 
C 1594 3781 1594 3794 1594 3840 
C 1594 3943 1510 4000 1427 4000 
C 1376 4000 1229 3981 1178 3775 
L 928 2752 
L 326 2752 
C 198 2752 141 2752 141 2630 
C 141 2566 186 2566 307 2566 
L 877 2566 
L 454 881 
C 403 658 384 594 384 511 
C 384 211 595 -64 954 -64 
C 1600 -64 1946 868 1946 912 
C 1946 951 1920 970 1882 970 
C 1869 970 1843 970 1830 944 
C 1824 938 1818 931 1773 829 
C 1638 511 1344 64 973 64 
C 781 64 768 224 768 364 
C 768 370 768 492 787 568 
L 1286 2566 
z
" transform="scale(0.015625)"/>
       <path id="CMR17-5b" d="M 1504 -1600 
L 1504 -1377 
L 902 -1377 
L 902 4544 
L 1504 4544 
L 1504 4767 
L 678 4767 
L 678 -1600 
L 1504 -1600 
z
" transform="scale(0.015625)"/>
       <path id="CMR17-6e" d="M 2656 1933 
C 2656 2259 2592 2790 1837 2790 
C 1331 2790 1069 2400 973 2144 
L 966 2144 
L 966 2790 
L 211 2720 
L 211 2554 
C 589 2554 646 2515 646 2208 
L 646 428 
C 646 184 621 153 211 153 
L 211 -13 
C 365 0 646 0 813 0 
C 979 0 1267 0 1421 -13 
L 1421 153 
C 1011 153 986 178 986 428 
L 986 1658 
C 986 2247 1344 2688 1792 2688 
C 2266 2688 2317 2266 2317 1958 
L 2317 428 
C 2317 184 2291 153 1882 153 
L 1882 -13 
C 2035 0 2317 0 2483 0 
C 2650 0 2938 0 3091 -13 
L 3091 153 
C 2682 153 2656 178 2656 428 
L 2656 1933 
z
" transform="scale(0.015625)"/>
       <path id="CMR17-73" d="M 1978 2697 
C 1978 2813 1971 2819 1933 2819 
C 1907 2819 1901 2813 1824 2717 
C 1805 2691 1747 2626 1728 2601 
C 1523 2819 1235 2819 1126 2819 
C 416 2819 160 2447 160 2076 
C 160 1498 813 1365 998 1325 
C 1402 1243 1542 1217 1677 1101 
C 1760 1025 1901 884 1901 654 
C 1901 384 1747 38 1158 38 
C 602 38 403 460 288 1021 
C 269 1110 269 1117 218 1117 
C 166 1117 160 1110 160 983 
L 160 63 
C 160 -51 166 -58 205 -58 
C 237 -58 243 -51 275 0 
C 314 57 410 211 448 276 
C 576 103 800 -64 1158 -64 
C 1792 -64 2131 283 2131 784 
C 2131 1112 1958 1285 1875 1362 
C 1683 1561 1459 1606 1190 1657 
C 838 1735 390 1825 390 2217 
C 390 2383 480 2737 1126 2737 
C 1811 2737 1850 2094 1862 1888 
C 1869 1856 1901 1849 1920 1849 
C 1978 1849 1978 1869 1978 1978 
L 1978 2697 
z
" transform="scale(0.015625)"/>
       <path id="CMR17-5d" d="M 915 4767 
L 90 4767 
L 90 4544 
L 691 4544 
L 691 -1377 
L 90 -1377 
L 90 -1600 
L 915 -1600 
L 915 4767 
z
" transform="scale(0.015625)"/>
      </defs>
      <use xlink:href="#CMMI12-74" transform="scale(0.996264)"/>
      <use xlink:href="#CMR17-5b" transform="translate(65.302297 0) scale(0.996264)"/>
      <use xlink:href="#CMR17-6e" transform="translate(90.173355 0) scale(0.996264)"/>
      <use xlink:href="#CMR17-73" transform="translate(141.068725 0) scale(0.996264)"/>
      <use xlink:href="#CMR17-5d" transform="translate(176.870062 0) scale(0.996264)"/>
     </g>
    </g>
   </g>
   <g id="matplotlib.axis_2">
    <g id="ytick_1">
     <g id="line2d_58">
      <path d="M 31.025311 149.13 
L 226.325311 149.13 
" clip-path="url(#pc012cadc9f)" style="fill: none; stroke-dasharray: 1.85,0.8; stroke-dashoffset: 0; stroke: #000000; stroke-opacity: 0.5; stroke-width: 0.5"/>
     </g>
     <g id="line2d_59">
      <defs>
       <path id="mb1107dfb79" d="M 0 0 
L 3 0 
" style="stroke: #000000; stroke-width: 0.5"/>
      </defs>
      <g>
       <use xlink:href="#mb1107dfb79" x="31.025311" y="149.13" style="stroke: #000000; stroke-width: 0.5"/>
      </g>
     </g>
     <g id="line2d_60">
      <defs>
       <path id="mf630eaccb2" d="M 0 0 
L -3 0 
" style="stroke: #000000; stroke-width: 0.5"/>
      </defs>
      <g>
       <use xlink:href="#mf630eaccb2" x="226.325311" y="149.13" style="stroke: #000000; stroke-width: 0.5"/>
      </g>
     </g>
     <g id="text_7">
      <!-- $\mathdefault{0}$ -->
      <g transform="translate(22.543975 152.589249) scale(0.1 -0.1)">
       <use xlink:href="#CMR17-30" transform="scale(0.996264)"/>
      </g>
     </g>
    </g>
    <g id="ytick_2">
     <g id="line2d_61">
      <path d="M 31.025311 116.79 
L 226.325311 116.79 
" clip-path="url(#pc012cadc9f)" style="fill: none; stroke-dasharray: 1.85,0.8; stroke-dashoffset: 0; stroke: #000000; stroke-opacity: 0.5; stroke-width: 0.5"/>
     </g>
     <g id="line2d_62">
      <g>
       <use xlink:href="#mb1107dfb79" x="31.025311" y="116.79" style="stroke: #000000; stroke-width: 0.5"/>
      </g>
     </g>
     <g id="line2d_63">
      <g>
       <use xlink:href="#mf630eaccb2" x="226.325311" y="116.79" style="stroke: #000000; stroke-width: 0.5"/>
      </g>
     </g>
     <g id="text_8">
      <!-- $\mathdefault{20}$ -->
      <g transform="translate(17.56264 120.249249) scale(0.1 -0.1)">
       <use xlink:href="#CMR17-32" transform="scale(0.996264)"/>
       <use xlink:href="#CMR17-30" transform="translate(45.690477 0) scale(0.996264)"/>
      </g>
     </g>
    </g>
    <g id="ytick_3">
     <g id="line2d_64">
      <path d="M 31.025311 84.45 
L 226.325311 84.45 
" clip-path="url(#pc012cadc9f)" style="fill: none; stroke-dasharray: 1.85,0.8; stroke-dashoffset: 0; stroke: #000000; stroke-opacity: 0.5; stroke-width: 0.5"/>
     </g>
     <g id="line2d_65">
      <g>
       <use xlink:href="#mb1107dfb79" x="31.025311" y="84.45" style="stroke: #000000; stroke-width: 0.5"/>
      </g>
     </g>
     <g id="line2d_66">
      <g>
       <use xlink:href="#mf630eaccb2" x="226.325311" y="84.45" style="stroke: #000000; stroke-width: 0.5"/>
      </g>
     </g>
     <g id="text_9">
      <!-- $\mathdefault{40}$ -->
      <g transform="translate(17.56264 87.909249) scale(0.1 -0.1)">
       <defs>
        <path id="CMR17-34" d="M 2150 4122 
C 2150 4256 2144 4256 2029 4256 
L 128 1254 
L 128 1088 
L 1779 1088 
L 1779 457 
C 1779 224 1766 160 1318 160 
L 1197 160 
L 1197 0 
C 1402 0 1747 0 1965 0 
C 2182 0 2528 0 2733 0 
L 2733 160 
L 2611 160 
C 2163 160 2150 224 2150 457 
L 2150 1088 
L 2803 1088 
L 2803 1254 
L 2150 1254 
L 2150 4122 
z
M 1798 3703 
L 1798 1254 
L 256 1254 
L 1798 3703 
z
" transform="scale(0.015625)"/>
       </defs>
       <use xlink:href="#CMR17-34" transform="scale(0.996264)"/>
       <use xlink:href="#CMR17-30" transform="translate(45.690477 0) scale(0.996264)"/>
      </g>
     </g>
    </g>
    <g id="ytick_4">
     <g id="line2d_67">
      <path d="M 31.025311 52.11 
L 226.325311 52.11 
" clip-path="url(#pc012cadc9f)" style="fill: none; stroke-dasharray: 1.85,0.8; stroke-dashoffset: 0; stroke: #000000; stroke-opacity: 0.5; stroke-width: 0.5"/>
     </g>
     <g id="line2d_68">
      <g>
       <use xlink:href="#mb1107dfb79" x="31.025311" y="52.11" style="stroke: #000000; stroke-width: 0.5"/>
      </g>
     </g>
     <g id="line2d_69">
      <g>
       <use xlink:href="#mf630eaccb2" x="226.325311" y="52.11" style="stroke: #000000; stroke-width: 0.5"/>
      </g>
     </g>
     <g id="text_10">
      <!-- $\mathdefault{60}$ -->
      <g transform="translate(17.56264 55.569249) scale(0.1 -0.1)">
       <defs>
        <path id="CMR17-36" d="M 678 2176 
C 678 3690 1395 4032 1811 4032 
C 1946 4032 2272 4009 2400 3776 
C 2298 3776 2106 3776 2106 3553 
C 2106 3381 2246 3323 2336 3323 
C 2394 3323 2566 3348 2566 3560 
C 2566 3954 2246 4179 1805 4179 
C 1043 4179 243 3390 243 1984 
C 243 253 966 -128 1478 -128 
C 2099 -128 2688 427 2688 1283 
C 2688 2081 2170 2662 1517 2662 
C 1126 2662 838 2407 678 1960 
L 678 2176 
z
M 1478 25 
C 691 25 691 1200 691 1436 
C 691 1896 909 2560 1504 2560 
C 1613 2560 1926 2560 2138 2120 
C 2253 1870 2253 1609 2253 1289 
C 2253 944 2253 690 2118 434 
C 1978 171 1773 25 1478 25 
z
" transform="scale(0.015625)"/>
       </defs>
       <use xlink:href="#CMR17-36" transform="scale(0.996264)"/>
       <use xlink:href="#CMR17-30" transform="translate(45.690477 0) scale(0.996264)"/>
      </g>
     </g>
    </g>
    <g id="ytick_5">
     <g id="line2d_70">
      <path d="M 31.025311 19.77 
L 226.325311 19.77 
" clip-path="url(#pc012cadc9f)" style="fill: none; stroke-dasharray: 1.85,0.8; stroke-dashoffset: 0; stroke: #000000; stroke-opacity: 0.5; stroke-width: 0.5"/>
     </g>
     <g id="line2d_71">
      <g>
       <use xlink:href="#mb1107dfb79" x="31.025311" y="19.77" style="stroke: #000000; stroke-width: 0.5"/>
      </g>
     </g>
     <g id="line2d_72">
      <g>
       <use xlink:href="#mf630eaccb2" x="226.325311" y="19.77" style="stroke: #000000; stroke-width: 0.5"/>
      </g>
     </g>
     <g id="text_11">
      <!-- $\mathdefault{80}$ -->
      <g transform="translate(17.56264 23.229249) scale(0.1 -0.1)">
       <defs>
        <path id="CMR17-38" d="M 1741 2264 
C 2144 2467 2554 2773 2554 3263 
C 2554 3841 1990 4179 1472 4179 
C 890 4179 378 3759 378 3180 
C 378 3021 416 2747 666 2505 
C 730 2442 998 2251 1171 2130 
C 883 1983 211 1634 211 934 
C 211 279 838 -128 1459 -128 
C 2144 -128 2720 362 2720 1010 
C 2720 1590 2330 1857 2074 2029 
L 1741 2264 
z
M 902 2822 
C 851 2854 595 3051 595 3351 
C 595 3739 998 4032 1459 4032 
C 1965 4032 2336 3676 2336 3262 
C 2336 2669 1670 2331 1638 2331 
C 1632 2331 1626 2331 1574 2370 
L 902 2822 
z
M 2080 1519 
C 2176 1449 2483 1240 2483 851 
C 2483 381 2010 25 1472 25 
C 890 25 448 438 448 940 
C 448 1443 838 1862 1280 2060 
L 2080 1519 
z
" transform="scale(0.015625)"/>
       </defs>
       <use xlink:href="#CMR17-38" transform="scale(0.996264)"/>
       <use xlink:href="#CMR17-30" transform="translate(45.690477 0) scale(0.996264)"/>
      </g>
     </g>
    </g>
    <g id="ytick_6">
     <g id="line2d_73">
      <defs>
       <path id="m66e949b303" d="M 0 0 
L 1.5 0 
" style="stroke: #000000; stroke-width: 0.5"/>
      </defs>
      <g>
       <use xlink:href="#m66e949b303" x="31.025311" y="141.045" style="stroke: #000000; stroke-width: 0.5"/>
      </g>
     </g>
     <g id="line2d_74">
      <defs>
       <path id="m60aac43bc5" d="M 0 0 
L -1.5 0 
" style="stroke: #000000; stroke-width: 0.5"/>
      </defs>
      <g>
       <use xlink:href="#m60aac43bc5" x="226.325311" y="141.045" style="stroke: #000000; stroke-width: 0.5"/>
      </g>
     </g>
    </g>
    <g id="ytick_7">
     <g id="line2d_75">
      <g>
       <use xlink:href="#m66e949b303" x="31.025311" y="132.96" style="stroke: #000000; stroke-width: 0.5"/>
      </g>
     </g>
     <g id="line2d_76">
      <g>
       <use xlink:href="#m60aac43bc5" x="226.325311" y="132.96" style="stroke: #000000; stroke-width: 0.5"/>
      </g>
     </g>
    </g>
    <g id="ytick_8">
     <g id="line2d_77">
      <g>
       <use xlink:href="#m66e949b303" x="31.025311" y="124.875" style="stroke: #000000; stroke-width: 0.5"/>
      </g>
     </g>
     <g id="line2d_78">
      <g>
       <use xlink:href="#m60aac43bc5" x="226.325311" y="124.875" style="stroke: #000000; stroke-width: 0.5"/>
      </g>
     </g>
    </g>
    <g id="ytick_9">
     <g id="line2d_79">
      <g>
       <use xlink:href="#m66e949b303" x="31.025311" y="108.705" style="stroke: #000000; stroke-width: 0.5"/>
      </g>
     </g>
     <g id="line2d_80">
      <g>
       <use xlink:href="#m60aac43bc5" x="226.325311" y="108.705" style="stroke: #000000; stroke-width: 0.5"/>
      </g>
     </g>
    </g>
    <g id="ytick_10">
     <g id="line2d_81">
      <g>
       <use xlink:href="#m66e949b303" x="31.025311" y="100.62" style="stroke: #000000; stroke-width: 0.5"/>
      </g>
     </g>
     <g id="line2d_82">
      <g>
       <use xlink:href="#m60aac43bc5" x="226.325311" y="100.62" style="stroke: #000000; stroke-width: 0.5"/>
      </g>
     </g>
    </g>
    <g id="ytick_11">
     <g id="line2d_83">
      <g>
       <use xlink:href="#m66e949b303" x="31.025311" y="92.535" style="stroke: #000000; stroke-width: 0.5"/>
      </g>
     </g>
     <g id="line2d_84">
      <g>
       <use xlink:href="#m60aac43bc5" x="226.325311" y="92.535" style="stroke: #000000; stroke-width: 0.5"/>
      </g>
     </g>
    </g>
    <g id="ytick_12">
     <g id="line2d_85">
      <g>
       <use xlink:href="#m66e949b303" x="31.025311" y="76.365" style="stroke: #000000; stroke-width: 0.5"/>
      </g>
     </g>
     <g id="line2d_86">
      <g>
       <use xlink:href="#m60aac43bc5" x="226.325311" y="76.365" style="stroke: #000000; stroke-width: 0.5"/>
      </g>
     </g>
    </g>
    <g id="ytick_13">
     <g id="line2d_87">
      <g>
       <use xlink:href="#m66e949b303" x="31.025311" y="68.28" style="stroke: #000000; stroke-width: 0.5"/>
      </g>
     </g>
     <g id="line2d_88">
      <g>
       <use xlink:href="#m60aac43bc5" x="226.325311" y="68.28" style="stroke: #000000; stroke-width: 0.5"/>
      </g>
     </g>
    </g>
    <g id="ytick_14">
     <g id="line2d_89">
      <g>
       <use xlink:href="#m66e949b303" x="31.025311" y="60.195" style="stroke: #000000; stroke-width: 0.5"/>
      </g>
     </g>
     <g id="line2d_90">
      <g>
       <use xlink:href="#m60aac43bc5" x="226.325311" y="60.195" style="stroke: #000000; stroke-width: 0.5"/>
      </g>
     </g>
    </g>
    <g id="ytick_15">
     <g id="line2d_91">
      <g>
       <use xlink:href="#m66e949b303" x="31.025311" y="44.025" style="stroke: #000000; stroke-width: 0.5"/>
      </g>
     </g>
     <g id="line2d_92">
      <g>
       <use xlink:href="#m60aac43bc5" x="226.325311" y="44.025" style="stroke: #000000; stroke-width: 0.5"/>
      </g>
     </g>
    </g>
    <g id="ytick_16">
     <g id="line2d_93">
      <g>
       <use xlink:href="#m66e949b303" x="31.025311" y="35.94" style="stroke: #000000; stroke-width: 0.5"/>
      </g>
     </g>
     <g id="line2d_94">
      <g>
       <use xlink:href="#m60aac43bc5" x="226.325311" y="35.94" style="stroke: #000000; stroke-width: 0.5"/>
      </g>
     </g>
    </g>
    <g id="ytick_17">
     <g id="line2d_95">
      <g>
       <use xlink:href="#m66e949b303" x="31.025311" y="27.855" style="stroke: #000000; stroke-width: 0.5"/>
      </g>
     </g>
     <g id="line2d_96">
      <g>
       <use xlink:href="#m60aac43bc5" x="226.325311" y="27.855" style="stroke: #000000; stroke-width: 0.5"/>
      </g>
     </g>
    </g>
    <g id="ytick_18">
     <g id="line2d_97">
      <g>
       <use xlink:href="#m66e949b303" x="31.025311" y="11.685" style="stroke: #000000; stroke-width: 0.5"/>
      </g>
     </g>
     <g id="line2d_98">
      <g>
       <use xlink:href="#m60aac43bc5" x="226.325311" y="11.685" style="stroke: #000000; stroke-width: 0.5"/>
      </g>
     </g>
    </g>
    <g id="ytick_19">
     <g id="line2d_99">
      <g>
       <use xlink:href="#m66e949b303" x="31.025311" y="3.6" style="stroke: #000000; stroke-width: 0.5"/>
      </g>
     </g>
     <g id="line2d_100">
      <g>
       <use xlink:href="#m60aac43bc5" x="226.325311" y="3.6" style="stroke: #000000; stroke-width: 0.5"/>
      </g>
     </g>
    </g>
    <g id="text_12">
     <!-- $U_1$ [mV] -->
     <g transform="translate(11.07198 94.315774) rotate(-90) scale(0.1 -0.1)">
      <defs>
       <path id="CMMI12-55" d="M 3238 1474 
C 3014 581 2272 57 1670 57 
C 1210 57 896 363 896 891 
C 896 916 896 1107 966 1387 
L 1594 3887 
C 1651 4103 1664 4167 2118 4167 
C 2234 4167 2298 4167 2298 4282 
C 2298 4352 2240 4352 2202 4352 
C 2086 4352 1952 4352 1830 4352 
L 1075 4352 
C 954 4352 819 4352 698 4352 
C 653 4352 576 4352 576 4231 
C 576 4167 621 4167 742 4167 
C 1126 4167 1126 4116 1126 4046 
C 1126 4008 1082 3824 1050 3715 
L 493 1488 
C 474 1418 435 1246 435 1075 
C 435 374 941 -128 1638 -128 
C 2285 -128 3002 384 3328 1197 
C 3373 1305 3430 1530 3469 1702 
C 3533 1933 3667 2496 3712 2662 
L 3955 3623 
C 4038 3956 4090 4167 4653 4167 
C 4704 4173 4730 4224 4730 4282 
C 4730 4352 4672 4352 4646 4352 
C 4557 4352 4442 4352 4352 4352 
L 4051 4352 
C 3654 4352 3450 4352 3443 4352 
C 3405 4352 3328 4352 3328 4231 
C 3328 4167 3379 4167 3424 4167 
C 3808 4167 3834 4020 3834 3905 
C 3834 3848 3834 3828 3808 3739 
L 3238 1474 
z
" transform="scale(0.015625)"/>
       <path id="CMR17-6d" d="M 4326 1933 
C 4326 2252 4269 2790 3507 2790 
C 3072 2790 2771 2496 2656 2151 
L 2650 2151 
C 2573 2676 2195 2790 1837 2790 
C 1331 2790 1069 2400 973 2144 
L 966 2144 
L 966 2790 
L 211 2720 
L 211 2554 
C 589 2554 646 2515 646 2208 
L 646 428 
C 646 184 621 153 211 153 
L 211 -13 
C 365 0 646 0 813 0 
C 979 0 1267 0 1421 -13 
L 1421 153 
C 1011 153 986 178 986 428 
L 986 1658 
C 986 2247 1344 2688 1792 2688 
C 2266 2688 2317 2266 2317 1958 
L 2317 428 
C 2317 184 2291 153 1882 153 
L 1882 -13 
C 2035 0 2317 0 2483 0 
C 2650 0 2938 0 3091 -13 
L 3091 153 
C 2682 153 2656 178 2656 428 
L 2656 1658 
C 2656 2247 3014 2688 3462 2688 
C 3936 2688 3987 2266 3987 1958 
L 3987 428 
C 3987 184 3962 153 3552 153 
L 3552 -13 
C 3706 0 3987 0 4154 0 
C 4320 0 4608 0 4762 -13 
L 4762 153 
C 4352 153 4326 178 4326 428 
L 4326 1933 
z
" transform="scale(0.015625)"/>
       <path id="CMR17-56" d="M 3776 3745 
C 3834 3886 3936 4160 4365 4160 
L 4365 4332 
C 4218 4319 4051 4319 3891 4319 
C 3738 4319 3475 4319 3328 4332 
L 3328 4160 
C 3648 4160 3661 3936 3661 3898 
C 3661 3827 3642 3783 3622 3732 
L 2362 446 
L 1043 3886 
C 1024 3931 1011 3963 1011 3994 
C 1011 4160 1267 4160 1402 4160 
L 1402 4319 
C 1197 4319 896 4319 685 4319 
C 518 4319 218 4319 64 4332 
L 64 4160 
C 435 4160 506 4135 582 3931 
L 2106 -26 
C 2138 -115 2144 -128 2214 -128 
C 2285 -128 2291 -115 2323 -26 
L 3776 3745 
z
" transform="scale(0.015625)"/>
      </defs>
      <use xlink:href="#CMMI12-55" transform="scale(0.996264)"/>
      <use xlink:href="#CMR17-31" transform="translate(66.252119 -14.943915) scale(0.697382)"/>
      <use xlink:href="#CMR17-5b" transform="translate(128.809399 0) scale(0.996264)"/>
      <use xlink:href="#CMR17-6d" transform="translate(153.680458 0) scale(0.996264)"/>
      <use xlink:href="#CMR17-56" transform="translate(230.600048 0) scale(0.996264)"/>
      <use xlink:href="#CMR17-5d" transform="translate(299.672478 0) scale(0.996264)"/>
     </g>
    </g>
   </g>
   <g id="line2d_101">
    <path d="M 38.837311 149.127927 
L 38.991988 148.983886 
L 39.632572 147.1436 
L 39.743503 146.848799 
L 39.946615 146.297705 
L 41.190285 143.114074 
L 41.760561 141.869028 
L 41.830869 141.685289 
L 42.102727 141.087923 
L 42.20272 140.912683 
L 42.399583 140.533203 
L 42.888614 139.586276 
L 42.894863 139.588321 
L 42.95111 139.47716 
L 43.074539 139.260201 
L 43.249528 138.968093 
L 43.307337 138.851248 
L 43.572945 138.325338 
L 43.574507 138.326376 
L 44.829115 136.176224 
L 45.291585 135.462142 
L 45.296272 135.465494 
L 45.588441 135.027316 
L 45.647812 134.928067 
L 45.879047 134.638898 
L 45.963417 134.510593 
L 46.132156 134.299531 
L 46.133719 134.301011 
L 46.191527 134.206754 
L 46.19309 134.206321 
L 46.38214 133.929444 
L 46.383703 133.930028 
L 46.480571 133.812392 
L 46.62275 133.642958 
L 46.625875 133.646695 
L 46.677434 133.607273 
L 46.697745 133.562097 
L 46.864922 133.358671 
L 46.871171 133.363203 
L 46.924293 133.264839 
L 47.16959 132.968297 
L 47.510193 132.521829 
L 47.789863 132.141592 
L 47.799237 132.138078 
L 47.850796 132.052505 
L 47.853921 132.050802 
L 47.953915 131.913376 
L 49.813171 130.044552 
L 49.814733 130.046774 
L 49.913164 129.96892 
L 50.069404 129.779786 
L 50.408445 129.455204 
L 50.410007 129.458742 
L 50.510001 129.376213 
L 50.511563 129.368554 
L 51.57712 128.455781 
L 51.578683 128.459726 
L 51.581807 128.464575 
L 51.648991 128.388315 
L 51.66149 128.38476 
L 52.16302 127.915536 
L 52.164583 127.918598 
L 52.258327 127.880804 
L 52.264576 127.868509 
L 52.48175 127.711227 
L 52.537996 127.650917 
L 52.516123 127.658708 
L 52.555183 127.628362 
L 52.991092 127.338635 
L 52.992655 127.344769 
L 53.087961 127.292346 
L 52.995779 127.339993 
L 53.092648 127.285478 
L 53.259825 127.182577 
L 53.392629 127.110508 
L 54.189453 126.748275 
L 54.347255 126.667387 
L 54.35038 126.674769 
L 54.648799 126.478634 
L 54.939405 126.294288 
L 55.228449 126.132306 
L 55.339379 126.104564 
L 55.242511 126.139346 
L 55.351879 126.117117 
L 55.472183 126.091916 
L 55.828411 125.92298 
L 55.836223 125.928555 
L 55.881532 125.870983 
L 55.917467 125.857514 
L 56.084644 125.740023 
L 56.087769 125.74305 
L 56.219011 125.697427 
L 56.223698 125.686433 
L 56.383063 125.6091 
L 56.384625 125.610757 
L 56.579925 125.471166 
L 56.715854 125.417219 
L 56.718979 125.423339 
L 56.804911 125.406144 
L 56.742415 125.399126 
L 56.820535 125.381423 
L 56.970525 125.328853 
L 57.12989 125.269048 
L 57.143951 125.277925 
L 57.258007 125.25241 
L 57.284567 125.254578 
L 57.356438 125.202479 
L 57.620483 125.088825 
L 57.770474 125.014946 
L 57.884529 124.949332 
L 58.004834 124.923354 
L 58.014208 124.927342 
L 58.037644 124.947175 
L 58.103265 124.89168 
L 58.117327 124.889169 
L 60.526547 124.135421 
L 60.659351 124.06413 
L 60.773407 124.034817 
L 60.776531 124.028814 
L 61.321809 123.868358 
L 61.493673 123.841044 
L 61.584292 123.815067 
L 61.610853 123.834729 
L 61.695223 123.825166 
L 61.681161 123.811972 
L 61.718659 123.811676 
L 62.367055 123.696762 
L 62.370179 123.70684 
L 62.643599 123.860515 
L 62.67016 123.858374 
L 62.732656 123.912842 
L 62.743593 123.909518 
L 63.06076 123.925622 
L 63.174815 123.915617 
L 63.431049 123.819614 
L 64.145066 123.678271 
L 64.296619 123.642233 
L 64.51223 123.638079 
L 64.962201 123.555717 
L 65.041883 123.539851 
L 65.068444 123.519336 
L 65.223122 123.49606 
L 65.805897 123.375764 
L 65.816834 123.388235 
L 65.857456 123.346479 
L 65.909015 123.336331 
L 66.685528 123.283471 
L 66.883953 123.276969 
L 67.079253 123.260051 
L 67.087065 123.264238 
L 67.194871 123.263275 
L 67.522975 123.269283 
L 67.779208 123.267584 
L 67.883889 123.251985 
L 67.891701 123.243981 
L 68.844765 123.131239 
L 69.035378 123.137699 
L 69.179119 123.141779 
L 69.183806 123.147974 
L 69.294736 123.160004 
L 69.190055 123.144389 
L 69.299423 123.152486 
L 69.677524 123.088992 
L 69.775955 123.065537 
L 69.70096 123.054882 
L 69.788455 123.042787 
L 69.929071 123.015019 
L 69.94157 123.026385 
L 70.061875 123.033476 
L 71.797701 122.847071 
L 71.946129 122.86306 
L 72.674207 122.739168 
L 72.689831 122.748906 
L 72.783575 122.761223 
L 72.928879 122.777938 
L 73.096055 122.773152 
L 73.09918 122.768955 
L 73.26167 122.685227 
L 73.267919 122.696637 
L 73.444471 122.661836 
L 73.277294 122.707224 
L 73.446033 122.664368 
L 73.911628 122.596809 
L 74.033495 122.584221 
L 74.403784 122.58196 
L 74.522527 122.54871 
L 74.524089 122.549309 
L 74.733451 122.521192 
L 74.866255 122.516457 
L 75.099052 122.49221 
L 75.21467 122.500867 
L 75.217795 122.499099 
L 75.624019 122.44437 
L 75.738074 122.430575 
L 75.744323 122.424995 
L 75.908375 122.384376 
L 76.055241 122.400509 
L 76.058366 122.396767 
L 76.180233 122.410062 
L 76.186483 122.417524 
L 76.205231 122.403325 
L 76.319287 122.414513 
L 76.455215 122.376161 
L 76.625517 122.32983 
L 76.789569 122.310665 
L 76.916123 122.337827 
L 76.919248 122.330138 
L 77.036428 122.333961 
L 77.191106 122.323479 
L 77.336409 122.310083 
L 77.509835 122.317072 
L 77.511398 122.315237 
L 77.764507 122.23472 
L 77.766069 122.236848 
L 78.219165 122.152252 
L 78.334783 122.151072 
L 78.458212 122.128938 
L 78.466024 122.119519 
L 84.917174 121.823141 
L 85.056227 121.832097 
L 85.059352 121.825937 
L 85.201531 121.780335 
L 85.20778 121.78397 
L 85.537447 121.790216 
L 85.665563 121.757765 
L 85.670251 121.760447 
L 85.782743 121.788557 
L 85.79368 121.779946 
L 86.209279 121.913248 
L 86.37958 122.066661 
L 86.381143 122.064448 
L 86.578005 122.402653 
L 86.829551 122.808225 
L 86.832676 122.800209 
L 86.913921 122.954707 
L 87.017039 123.125115 
L 87.168592 123.408458 
L 87.388891 123.71023 
L 87.627938 124.026988 
L 87.6295 124.025726 
L 87.657623 124.033984 
L 87.704495 124.113997 
L 87.776366 124.188737 
L 87.777928 124.201855 
L 87.926356 124.481487 
L 87.927919 124.479218 
L 87.937293 124.480183 
L 87.995102 124.584564 
L 88.638811 125.346935 
L 88.640373 125.34541 
L 88.737242 125.454488 
L 88.907543 125.709452 
L 88.910668 125.704471 
L 89.701243 126.564779 
L 89.724679 126.572022 
L 89.768426 126.625083 
L 89.788737 126.626109 
L 89.932478 126.764023 
L 89.93404 126.757694 
L 90.019972 126.861399 
L 90.021535 126.861657 
L 90.318391 127.166983 
L 90.474631 127.313431 
L 90.648057 127.465114 
L 90.846482 127.622841 
L 91.010534 127.820936 
L 91.012096 127.819006 
L 91.088654 127.923651 
L 91.255831 128.075764 
L 91.257393 128.072545 
L 91.330826 128.145559 
L 91.333951 128.157293 
L 92.657303 129.294682 
L 92.658866 129.29236 
L 92.711987 129.349229 
L 92.747923 129.355517 
L 93.018218 129.583391 
L 93.088526 129.614179 
L 93.072902 129.623163 
L 93.113524 129.638944 
L 93.402568 129.836938 
L 93.640053 130.037749 
L 93.718173 130.076174 
L 93.666614 130.056699 
L 93.733797 130.096453 
L 94.00253 130.295247 
L 94.004092 130.293066 
L 94.029091 130.348917 
L 94.093149 130.369056 
L 94.216579 130.403522 
L 94.107211 130.355943 
L 94.218141 130.400882 
L 94.30876 130.429666 
L 94.321259 130.443761 
L 94.443127 130.501848 
L 94.444689 130.497232 
L 94.749357 130.710768 
L 94.914971 130.804595 
L 94.916534 130.802274 
L 94.966531 130.789553 
L 95.022777 130.831116 
L 95.193079 130.940666 
L 95.589928 131.235732 
L 95.611802 131.239553 
L 95.660236 131.29401 
L 95.686797 131.289996 
L 95.943031 131.399332 
L 100.40212 133.615068 
L 100.506801 133.624424 
L 100.5193 133.637569 
L 100.763035 133.745157 
L 100.844279 133.773397 
L 100.863028 133.791392 
L 101.069265 133.879778 
L 101.328623 134.023043 
L 101.381745 134.028621 
L 101.331748 134.02552 
L 101.428617 134.068572 
L 101.569233 134.142879 
L 101.903587 134.26045 
L 102.041078 134.285308 
L 102.04889 134.278953 
L 102.369182 134.387468 
L 102.494174 134.383883 
L 102.495736 134.381443 
L 102.597292 134.406464 
L 102.516047 134.394902 
L 102.605104 134.416184 
L 102.778531 134.486822 
L 102.934771 134.549869 
L 103.067575 134.590073 
L 103.197254 134.62 
L 103.420677 134.711524 
L 103.520671 134.736105 
L 103.528483 134.74934 
L 104.344055 134.965511 
L 104.469047 135.003553 
L 104.575291 135.004191 
L 104.58779 135.017582 
L 104.637787 134.998511 
L 104.700283 135.012758 
L 104.826837 135.045877 
L 104.706532 135.010266 
L 104.829962 135.043813 
L 104.967453 135.105533 
L 105.106507 135.12774 
L 105.109631 135.12532 
L 105.237748 135.124924 
L 105.240873 135.12737 
L 105.354928 135.145216 
L 105.364303 135.139006 
L 105.456484 135.180664 
L 105.393988 135.177998 
L 105.462734 135.189586 
L 105.625223 135.204996 
L 105.626786 135.202219 
L 105.728342 135.235696 
L 105.733029 135.240419 
L 105.864271 135.240585 
L 105.865833 135.23878 
L 106.018948 135.226336 
L 106.268932 135.325161 
L 106.279869 135.314065 
L 106.414235 135.346465 
L 106.437671 135.353052 
L 106.482981 135.403802 
L 106.503292 135.410728 
L 106.703279 135.474122 
L 106.81421 135.45938 
L 106.815772 135.459789 
L 107.025134 135.51474 
L 107.031383 135.508574 
L 107.151688 135.513672 
L 107.531351 135.621196 
L 107.570411 135.617829 
L 107.640719 135.644274 
L 107.821958 135.68667 
L 107.943825 135.760296 
L 108.079754 135.771775 
L 108.137563 135.771576 
L 108.087566 135.782227 
L 108.18131 135.817129 
L 108.301615 135.84873 
L 108.303177 135.846861 
L 108.481291 135.953994 
L 108.585971 135.986261 
L 108.60472 135.976873 
L 108.848455 136.084117 
L 108.953135 136.118636 
L 108.967197 136.105364 
L 110.267114 136.373013 
L 110.40148 136.355138 
L 110.406167 136.359785 
L 110.543659 136.377007 
L 110.548346 136.367348 
L 110.656151 136.394516 
L 110.55772 136.374619 
L 110.659276 136.399329 
L 111.263925 136.533909 
L 111.392042 136.571281 
L 111.532658 136.584557 
L 112.187303 136.700252 
L 112.301359 136.718477 
L 112.309171 136.712298 
L 113.279421 136.82372 
L 113.29817 136.814283 
L 113.401288 136.864134 
L 113.926255 136.972477 
L 114.041872 137.010785 
L 114.054371 136.999203 
L 114.515279 137.013869 
L 114.540278 137.023597 
L 114.632459 137.015839 
L 114.751202 137.028181 
L 114.757451 137.037088 
L 114.763701 137.030654 
L 114.874631 137.040079 
L 114.969938 137.04482 
L 114.991811 137.063964 
L 115.75895 137.223101 
L 115.819883 137.195375 
L 115.873005 137.225721 
L 115.879255 137.22101 
L 116.004247 137.225732 
L 116.282354 137.32625 
L 116.396409 137.326097 
L 116.3386 137.304743 
L 116.397971 137.323699 
L 116.499527 137.359633 
L 116.415158 137.342684 
L 116.50109 137.362065 
L 116.580772 137.366224 
L 116.516714 137.355937 
L 116.613583 137.348572 
L 116.719826 137.356632 
L 116.622957 137.338873 
L 116.738575 137.338104 
L 116.855755 137.334978 
L 116.744824 137.346006 
L 116.863567 137.348284 
L 116.979184 137.349612 
L 117.082303 137.39452 
L 117.218231 137.4229 
L 117.36041 137.413935 
L 117.363535 137.418622 
L 117.488527 137.454303 
L 117.493214 137.449408 
L 119.022803 137.584818 
L 119.15092 137.619215 
L 119.297786 137.595822 
L 121.65701 137.701467 
L 121.785127 137.710299 
L 121.789814 137.703151 
L 121.93043 137.680055 
L 121.933555 137.682429 
L 122.077295 137.722383 
L 121.936679 137.680586 
L 122.08042 137.720414 
L 122.39915 137.714996 
L 125.198971 137.811645 
L 125.217719 137.80035 
L 125.330212 137.825459 
L 126.784807 137.933866 
L 126.925423 137.932671 
L 127.039478 137.889461 
L 127.048852 137.908474 
L 128.550319 138.027974 
L 128.628439 138.028569 
L 128.661249 137.996747 
L 128.769055 137.97523 
L 128.786241 138.003121 
L 128.920607 137.999658 
L 128.803427 137.984977 
L 128.92217 137.994893 
L 129.056536 137.979922 
L 129.059661 137.984661 
L 129.07216 137.979826 
L 129.176841 137.987902 
L 130.026787 138.101329 
L 130.175215 138.134117 
L 130.176777 138.131801 
L 130.292395 138.134672 
L 130.298644 138.141855 
L 130.40645 138.157527 
L 130.415824 138.144863 
L 132.401635 138.234634 
L 132.507878 138.254185 
L 132.517252 138.247269 
L 132.698491 138.171975 
L 132.926601 138.208571 
L 133.057843 138.226491 
L 133.060967 138.221898 
L 133.304702 138.25039 
L 133.479691 138.327274 
L 133.48594 138.322586 
L 133.596871 138.314575 
L 133.601558 138.316332 
L 133.748423 138.290776 
L 133.868728 138.302033 
L 134.262453 138.295397 
L 134.417131 138.355938 
L 134.534311 138.386853 
L 134.54056 138.380423 
L 134.673364 138.380521 
L 135.410817 138.476987 
L 135.537371 138.477531 
L 135.417067 138.483496 
L 135.538934 138.479363 
L 135.677987 138.49299 
L 135.734234 138.441126 
L 135.792043 138.472245 
L 135.948283 138.491599 
L 135.951407 138.486925 
L 141.524488 138.588855 
L 141.643231 138.6225 
L 141.661979 138.627275 
L 141.757286 138.609242 
L 141.841655 138.617792 
L 141.769785 138.602478 
L 141.872903 138.605349 
L 145.596103 138.703118 
L 145.733594 138.714959 
L 145.850774 138.685417 
L 145.857023 138.690176 
L 145.971079 138.682071 
L 146.089821 138.679299 
L 146.200751 138.66144 
L 146.207001 138.657215 
L 151.122311 138.860183 
L 151.144185 138.844612 
L 151.242616 138.873119 
L 155.011125 138.982256 
L 155.123618 138.982611 
L 155.132992 138.965961 
L 155.265796 138.944688 
L 155.273608 138.953811 
L 155.393913 138.938959 
L 155.525155 138.939134 
L 156.892255 139.052563 
L 156.951626 139.056108 
L 157.003185 139.037676 
L 157.125052 139.047192 
L 157.128177 139.049602 
L 157.24067 139.077932 
L 157.248482 139.070874 
L 157.362537 139.053455 
L 157.364099 139.054894 
L 157.492216 139.066057 
L 157.646894 139.079902 
L 158.892127 139.19197 
L 159.034305 139.192682 
L 159.042117 139.20267 
L 159.204607 139.157316 
L 159.315537 139.184312 
L 159.320224 139.18216 
L 160.981055 139.292798 
L 161.116984 139.304417 
L 161.231039 139.305144 
L 161.232602 139.30753 
L 161.357594 139.301994 
L 161.238851 139.302803 
L 161.359156 139.299608 
L 161.49821 139.294155 
L 161.502897 139.301339 
L 164.099606 139.416815 
L 164.254283 139.455086 
L 164.327716 139.480577 
L 164.368339 139.459278 
L 164.491768 139.447639 
L 164.376151 139.452597 
L 164.494893 139.4381 
L 164.626135 139.424351 
L 164.804248 139.490431 
L 170.736681 139.565379 
L 170.91167 139.629904 
L 178.283073 139.776477 
L 178.436188 139.813595 
L 178.440875 139.8065 
L 178.504934 139.852567 
L 178.542431 139.844568 
L 181.932839 139.951416 
L 182.050019 140.015566 
L 182.067206 140.006593 
L 185.920084 140.111115 
L 186.0607 140.123566 
L 187.27781 140.25727 
L 187.39499 140.23348 
L 187.513732 140.242067 
L 187.518419 140.246711 
L 187.526231 140.239558 
L 187.654348 140.253448 
L 187.794964 140.232374 
L 187.66216 140.259433 
L 187.798089 140.236033 
L 191.775959 140.343296 
L 191.833768 140.369495 
L 191.891577 140.345105 
L 192.013444 140.328324 
L 195.080435 140.436697 
L 195.102309 140.454391 
L 195.192928 140.430796 
L 195.292922 140.444546 
L 195.303859 140.461839 
L 195.4351 140.507236 
L 195.571029 140.495963 
L 195.444475 140.516844 
L 195.572591 140.498349 
L 195.691334 140.522191 
L 195.70852 140.509193 
L 195.746018 140.490472 
L 195.819451 140.516836 
L 196.91938 140.406979 
L 197.038123 140.394888 
L 196.939691 140.415909 
L 197.039685 140.397274 
L 199.183298 140.290733 
L 199.266105 140.280403 
L 199.195797 140.294935 
L 199.295791 140.299944 
L 199.430157 140.304343 
L 199.586397 140.252481 
L 199.591084 140.257225 
L 199.625457 140.240627 
L 199.702015 140.246165 
L 199.734825 140.263079 
L 199.814507 140.249603 
L 206.52814 140.371384 
L 206.640633 140.395084 
L 206.643758 140.390977 
L 206.754688 140.377998 
L 206.774999 140.392775 
L 206.906241 140.392723 
L 207.046857 140.371835 
L 207.048419 140.376427 
L 207.185911 140.389932 
L 207.193723 140.37566 
L 207.220283 140.407135 
L 207.292154 140.419554 
L 210.248215 140.52831 
L 210.387268 140.54303 
L 210.388831 140.540652 
L 219.005467 140.480944 
L 219.135146 140.468365 
L 224.050456 140.45731 
L 224.159824 140.466124 
L 224.081704 140.471076 
L 224.161387 140.468513 
L 224.302003 140.498224 
L 224.308252 140.490514 
L 225.212882 140.386131 
L 225.223819 140.397475 
L 225.330062 140.402346 
L 225.380059 140.378083 
L 225.442555 140.394643 
L 225.578483 140.402197 
L 225.619106 140.381265 
L 225.690976 140.414387 
L 225.797219 140.390833 
L 225.801907 140.383696 
L 225.911275 140.408894 
L 225.912837 140.416125 
L 226.044079 140.416352 
L 225.919087 140.409456 
L 226.045641 140.414235 
L 226.128448 140.39077 
L 226.065952 140.394513 
L 226.148759 140.368829 
L 226.158134 140.380723 
L 226.280001 140.33295 
L 226.315936 140.335319 
L 226.326873 140.325252 
" clip-path="url(#pc012cadc9f)" style="fill: none; stroke: #4477aa; stroke-linecap: square"/>
   </g>
   <g id="LineCollection_1">
    <path d="M 38.837311 149.13 
L 38.837311 52.11 
" clip-path="url(#pc012cadc9f)" style="fill: none; stroke-dasharray: 3.7,1.6; stroke-dashoffset: 0; stroke: #000000"/>
    <path d="M 62.273311 149.13 
L 62.273311 52.11 
" clip-path="url(#pc012cadc9f)" style="fill: none; stroke-dasharray: 3.7,1.6; stroke-dashoffset: 0; stroke: #000000"/>
    <path d="M 62.585791 149.13 
L 62.585791 52.11 
" clip-path="url(#pc012cadc9f)" style="fill: none; stroke-dasharray: 3.7,1.6; stroke-dashoffset: 0; stroke: #000000"/>
    <path d="M 86.021791 149.13 
L 86.021791 52.11 
" clip-path="url(#pc012cadc9f)" style="fill: none; stroke-dasharray: 3.7,1.6; stroke-dashoffset: 0; stroke: #000000"/>
   </g>
   <g id="patch_3">
    <path d="M 31.025311 149.13 
L 31.025311 3.6 
" style="fill: none; stroke: #000000; stroke-width: 0.5; stroke-linejoin: miter; stroke-linecap: square"/>
   </g>
   <g id="patch_4">
    <path d="M 226.325311 149.13 
L 226.325311 3.6 
" style="fill: none; stroke: #000000; stroke-width: 0.5; stroke-linejoin: miter; stroke-linecap: square"/>
   </g>
   <g id="patch_5">
    <path d="M 31.025311 149.13 
L 226.325311 149.13 
" style="fill: none; stroke: #000000; stroke-width: 0.5; stroke-linejoin: miter; stroke-linecap: square"/>
   </g>
   <g id="patch_6">
    <path d="M 31.025311 3.6 
L 226.325311 3.6 
" style="fill: none; stroke: #000000; stroke-width: 0.5; stroke-linejoin: miter; stroke-linecap: square"/>
   </g>
  </g>
 </g>
 <defs>
  <clipPath id="pc012cadc9f">
   <rect x="31.025311" y="3.6" width="195.3" height="145.53"/>
  </clipPath>
 </defs>
</svg>
