<?xml version="1.0" encoding="utf-8" standalone="no"?>
<!DOCTYPE svg PUBLIC "-//W3C//DTD SVG 1.1//EN"
  "http://www.w3.org/Graphics/SVG/1.1/DTD/svg11.dtd">
<svg xmlns:xlink="http://www.w3.org/1999/xlink" width="229.925311pt" height="179.048317pt" viewBox="0 0 229.925311 179.048317" xmlns="http://www.w3.org/2000/svg" version="1.1">
 <metadata>
  <rdf:RDF xmlns:dc="http://purl.org/dc/elements/1.1/" xmlns:cc="http://creativecommons.org/ns#" xmlns:rdf="http://www.w3.org/1999/02/22-rdf-syntax-ns#">
   <cc:Work>
    <dc:type rdf:resource="http://purl.org/dc/dcmitype/StillImage"/>
    <dc:date>2025-04-25T13:10:34.328493</dc:date>
    <dc:format>image/svg+xml</dc:format>
    <dc:creator>
     <cc:Agent>
      <dc:title>Matplotlib v3.9.2, https://matplotlib.org/</dc:title>
     </cc:Agent>
    </dc:creator>
   </cc:Work>
  </rdf:RDF>
 </metadata>
 <defs>
  <style type="text/css">*{stroke-linejoin: round; stroke-linecap: butt}</style>
 </defs>
 <g id="figure_1">
  <g id="patch_1">
   <path d="M 0 179.048317 
L 229.925311 179.048317 
L 229.925311 0 
L 0 0 
L 0 179.048317 
z
" style="fill: none"/>
  </g>
  <g id="axes_1">
   <g id="patch_2">
    <path d="M 31.025311 149.13 
L 226.325311 149.13 
L 226.325311 3.6 
L 31.025311 3.6 
L 31.025311 149.13 
z
" style="fill: none"/>
   </g>
   <g id="matplotlib.axis_1">
    <g id="xtick_1">
     <g id="line2d_1">
      <path d="M 38.837311 149.13 
L 38.837311 3.6 
" clip-path="url(#pf42ea1a244)" style="fill: none; stroke-dasharray: 1.85,0.8; stroke-dashoffset: 0; stroke: #000000; stroke-opacity: 0.5; stroke-width: 0.5"/>
     </g>
     <g id="line2d_2">
      <defs>
       <path id="m0f2867f664" d="M 0 0 
L 0 -3 
" style="stroke: #000000; stroke-width: 0.5"/>
      </defs>
      <g>
       <use xlink:href="#m0f2867f664" x="38.837311" y="149.13" style="stroke: #000000; stroke-width: 0.5"/>
      </g>
     </g>
     <g id="line2d_3">
      <defs>
       <path id="m1b74a2fe3d" d="M 0 0 
L 0 3 
" style="stroke: #000000; stroke-width: 0.5"/>
      </defs>
      <g>
       <use xlink:href="#m1b74a2fe3d" x="38.837311" y="3.6" style="stroke: #000000; stroke-width: 0.5"/>
      </g>
     </g>
     <g id="text_1">
      <!-- $\mathdefault{0}$ -->
      <g transform="translate(36.346643 159.548498) scale(0.1 -0.1)">
       <defs>
        <path id="CMR17-30" d="M 2688 2025 
C 2688 2416 2682 3080 2413 3591 
C 2176 4039 1798 4198 1466 4198 
C 1158 4198 768 4058 525 3597 
C 269 3118 243 2524 243 2025 
C 243 1661 250 1106 448 619 
C 723 -39 1216 -128 1466 -128 
C 1760 -128 2208 -7 2470 600 
C 2662 1042 2688 1559 2688 2025 
z
M 1466 -26 
C 1056 -26 813 325 723 812 
C 653 1188 653 1738 653 2096 
C 653 2588 653 2997 736 3387 
C 858 3929 1216 4096 1466 4096 
C 1728 4096 2067 3923 2189 3400 
C 2272 3036 2278 2607 2278 2096 
C 2278 1680 2278 1169 2202 792 
C 2067 95 1690 -26 1466 -26 
z
" transform="scale(0.015625)"/>
       </defs>
       <use xlink:href="#CMR17-30" transform="scale(0.996264)"/>
      </g>
     </g>
    </g>
    <g id="xtick_2">
     <g id="line2d_4">
      <path d="M 77.897311 149.13 
L 77.897311 3.6 
" clip-path="url(#pf42ea1a244)" style="fill: none; stroke-dasharray: 1.85,0.8; stroke-dashoffset: 0; stroke: #000000; stroke-opacity: 0.5; stroke-width: 0.5"/>
     </g>
     <g id="line2d_5">
      <g>
       <use xlink:href="#m0f2867f664" x="77.897311" y="149.13" style="stroke: #000000; stroke-width: 0.5"/>
      </g>
     </g>
     <g id="line2d_6">
      <g>
       <use xlink:href="#m1b74a2fe3d" x="77.897311" y="3.6" style="stroke: #000000; stroke-width: 0.5"/>
      </g>
     </g>
     <g id="text_2">
      <!-- $\mathdefault{2500}$ -->
      <g transform="translate(67.93464 159.548498) scale(0.1 -0.1)">
       <defs>
        <path id="CMR17-32" d="M 2669 989 
L 2554 989 
C 2490 536 2438 459 2413 420 
C 2381 369 1920 369 1830 369 
L 602 369 
C 832 619 1280 1072 1824 1597 
C 2214 1967 2669 2402 2669 3035 
C 2669 3790 2067 4224 1395 4224 
C 691 4224 262 3604 262 3030 
C 262 2780 448 2748 525 2748 
C 589 2748 781 2787 781 3010 
C 781 3207 614 3264 525 3264 
C 486 3264 448 3258 422 3245 
C 544 3790 915 4058 1306 4058 
C 1862 4058 2227 3617 2227 3035 
C 2227 2479 1901 2000 1536 1584 
L 262 146 
L 262 0 
L 2515 0 
L 2669 989 
z
" transform="scale(0.015625)"/>
        <path id="CMR17-35" d="M 730 3692 
C 794 3666 1056 3584 1325 3584 
C 1920 3584 2246 3911 2432 4100 
C 2432 4157 2432 4192 2394 4192 
C 2387 4192 2374 4192 2323 4163 
C 2099 4058 1837 3973 1517 3973 
C 1325 3973 1037 3999 723 4139 
C 653 4171 640 4171 634 4171 
C 602 4171 595 4164 595 4037 
L 595 2203 
C 595 2089 595 2057 659 2057 
C 691 2057 704 2070 736 2114 
C 941 2401 1222 2522 1542 2522 
C 1766 2522 2246 2382 2246 1289 
C 2246 1085 2246 715 2054 421 
C 1894 159 1645 25 1370 25 
C 947 25 518 320 403 814 
C 429 807 480 795 506 795 
C 589 795 749 840 749 1038 
C 749 1210 627 1280 506 1280 
C 358 1280 262 1190 262 1011 
C 262 454 704 -128 1382 -128 
C 2042 -128 2669 440 2669 1264 
C 2669 2030 2170 2624 1549 2624 
C 1222 2624 947 2503 730 2274 
L 730 3692 
z
" transform="scale(0.015625)"/>
       </defs>
       <use xlink:href="#CMR17-32" transform="scale(0.996264)"/>
       <use xlink:href="#CMR17-35" transform="translate(45.690477 0) scale(0.996264)"/>
       <use xlink:href="#CMR17-30" transform="translate(91.380954 0) scale(0.996264)"/>
       <use xlink:href="#CMR17-30" transform="translate(137.071431 0) scale(0.996264)"/>
      </g>
     </g>
    </g>
    <g id="xtick_3">
     <g id="line2d_7">
      <path d="M 116.957311 149.13 
L 116.957311 3.6 
" clip-path="url(#pf42ea1a244)" style="fill: none; stroke-dasharray: 1.85,0.8; stroke-dashoffset: 0; stroke: #000000; stroke-opacity: 0.5; stroke-width: 0.5"/>
     </g>
     <g id="line2d_8">
      <g>
       <use xlink:href="#m0f2867f664" x="116.957311" y="149.13" style="stroke: #000000; stroke-width: 0.5"/>
      </g>
     </g>
     <g id="line2d_9">
      <g>
       <use xlink:href="#m1b74a2fe3d" x="116.957311" y="3.6" style="stroke: #000000; stroke-width: 0.5"/>
      </g>
     </g>
     <g id="text_3">
      <!-- $\mathdefault{5000}$ -->
      <g transform="translate(106.99464 159.548498) scale(0.1 -0.1)">
       <use xlink:href="#CMR17-35" transform="scale(0.996264)"/>
       <use xlink:href="#CMR17-30" transform="translate(45.690477 0) scale(0.996264)"/>
       <use xlink:href="#CMR17-30" transform="translate(91.380954 0) scale(0.996264)"/>
       <use xlink:href="#CMR17-30" transform="translate(137.071431 0) scale(0.996264)"/>
      </g>
     </g>
    </g>
    <g id="xtick_4">
     <g id="line2d_10">
      <path d="M 156.017311 149.13 
L 156.017311 3.6 
" clip-path="url(#pf42ea1a244)" style="fill: none; stroke-dasharray: 1.85,0.8; stroke-dashoffset: 0; stroke: #000000; stroke-opacity: 0.5; stroke-width: 0.5"/>
     </g>
     <g id="line2d_11">
      <g>
       <use xlink:href="#m0f2867f664" x="156.017311" y="149.13" style="stroke: #000000; stroke-width: 0.5"/>
      </g>
     </g>
     <g id="line2d_12">
      <g>
       <use xlink:href="#m1b74a2fe3d" x="156.017311" y="3.6" style="stroke: #000000; stroke-width: 0.5"/>
      </g>
     </g>
     <g id="text_4">
      <!-- $\mathdefault{7500}$ -->
      <g transform="translate(146.05464 159.548498) scale(0.1 -0.1)">
       <defs>
        <path id="CMR17-37" d="M 2886 3941 
L 2886 4081 
L 1382 4081 
C 634 4081 621 4165 595 4288 
L 480 4288 
L 294 3094 
L 410 3094 
C 429 3215 474 3540 550 3661 
C 589 3712 1062 3712 1171 3712 
L 2579 3712 
L 1869 2661 
C 1395 1954 1069 999 1069 165 
C 1069 89 1069 -128 1299 -128 
C 1530 -128 1530 89 1530 171 
L 1530 465 
C 1530 1508 1709 2196 2003 2636 
L 2886 3941 
z
" transform="scale(0.015625)"/>
       </defs>
       <use xlink:href="#CMR17-37" transform="scale(0.996264)"/>
       <use xlink:href="#CMR17-35" transform="translate(45.690477 0) scale(0.996264)"/>
       <use xlink:href="#CMR17-30" transform="translate(91.380954 0) scale(0.996264)"/>
       <use xlink:href="#CMR17-30" transform="translate(137.071431 0) scale(0.996264)"/>
      </g>
     </g>
    </g>
    <g id="xtick_5">
     <g id="line2d_13">
      <path d="M 195.077311 149.13 
L 195.077311 3.6 
" clip-path="url(#pf42ea1a244)" style="fill: none; stroke-dasharray: 1.85,0.8; stroke-dashoffset: 0; stroke: #000000; stroke-opacity: 0.5; stroke-width: 0.5"/>
     </g>
     <g id="line2d_14">
      <g>
       <use xlink:href="#m0f2867f664" x="195.077311" y="149.13" style="stroke: #000000; stroke-width: 0.5"/>
      </g>
     </g>
     <g id="line2d_15">
      <g>
       <use xlink:href="#m1b74a2fe3d" x="195.077311" y="3.6" style="stroke: #000000; stroke-width: 0.5"/>
      </g>
     </g>
     <g id="text_5">
      <!-- $\mathdefault{10000}$ -->
      <g transform="translate(182.623972 159.548498) scale(0.1 -0.1)">
       <defs>
        <path id="CMR17-31" d="M 1702 4058 
C 1702 4192 1696 4192 1606 4192 
C 1357 3916 979 3827 621 3827 
C 602 3827 570 3827 563 3808 
C 557 3795 557 3782 557 3648 
C 755 3648 1088 3686 1344 3839 
L 1344 461 
C 1344 236 1331 160 781 160 
L 589 160 
L 589 0 
C 896 0 1216 0 1523 0 
C 1830 0 2150 0 2458 0 
L 2458 160 
L 2266 160 
C 1715 160 1702 230 1702 458 
L 1702 4058 
z
" transform="scale(0.015625)"/>
       </defs>
       <use xlink:href="#CMR17-31" transform="scale(0.996264)"/>
       <use xlink:href="#CMR17-30" transform="translate(45.690477 0) scale(0.996264)"/>
       <use xlink:href="#CMR17-30" transform="translate(91.380954 0) scale(0.996264)"/>
       <use xlink:href="#CMR17-30" transform="translate(137.071431 0) scale(0.996264)"/>
       <use xlink:href="#CMR17-30" transform="translate(182.761908 0) scale(0.996264)"/>
      </g>
     </g>
    </g>
    <g id="xtick_6">
     <g id="line2d_16">
      <defs>
       <path id="mbc26cddab7" d="M 0 0 
L 0 -1.5 
" style="stroke: #000000; stroke-width: 0.5"/>
      </defs>
      <g>
       <use xlink:href="#mbc26cddab7" x="31.025311" y="149.13" style="stroke: #000000; stroke-width: 0.5"/>
      </g>
     </g>
     <g id="line2d_17">
      <defs>
       <path id="m3cc42ee8bc" d="M 0 0 
L 0 1.5 
" style="stroke: #000000; stroke-width: 0.5"/>
      </defs>
      <g>
       <use xlink:href="#m3cc42ee8bc" x="31.025311" y="3.6" style="stroke: #000000; stroke-width: 0.5"/>
      </g>
     </g>
    </g>
    <g id="xtick_7">
     <g id="line2d_18">
      <g>
       <use xlink:href="#mbc26cddab7" x="46.649311" y="149.13" style="stroke: #000000; stroke-width: 0.5"/>
      </g>
     </g>
     <g id="line2d_19">
      <g>
       <use xlink:href="#m3cc42ee8bc" x="46.649311" y="3.6" style="stroke: #000000; stroke-width: 0.5"/>
      </g>
     </g>
    </g>
    <g id="xtick_8">
     <g id="line2d_20">
      <g>
       <use xlink:href="#mbc26cddab7" x="54.461311" y="149.13" style="stroke: #000000; stroke-width: 0.5"/>
      </g>
     </g>
     <g id="line2d_21">
      <g>
       <use xlink:href="#m3cc42ee8bc" x="54.461311" y="3.6" style="stroke: #000000; stroke-width: 0.5"/>
      </g>
     </g>
    </g>
    <g id="xtick_9">
     <g id="line2d_22">
      <g>
       <use xlink:href="#mbc26cddab7" x="62.273311" y="149.13" style="stroke: #000000; stroke-width: 0.5"/>
      </g>
     </g>
     <g id="line2d_23">
      <g>
       <use xlink:href="#m3cc42ee8bc" x="62.273311" y="3.6" style="stroke: #000000; stroke-width: 0.5"/>
      </g>
     </g>
    </g>
    <g id="xtick_10">
     <g id="line2d_24">
      <g>
       <use xlink:href="#mbc26cddab7" x="70.085311" y="149.13" style="stroke: #000000; stroke-width: 0.5"/>
      </g>
     </g>
     <g id="line2d_25">
      <g>
       <use xlink:href="#m3cc42ee8bc" x="70.085311" y="3.6" style="stroke: #000000; stroke-width: 0.5"/>
      </g>
     </g>
    </g>
    <g id="xtick_11">
     <g id="line2d_26">
      <g>
       <use xlink:href="#mbc26cddab7" x="85.709311" y="149.13" style="stroke: #000000; stroke-width: 0.5"/>
      </g>
     </g>
     <g id="line2d_27">
      <g>
       <use xlink:href="#m3cc42ee8bc" x="85.709311" y="3.6" style="stroke: #000000; stroke-width: 0.5"/>
      </g>
     </g>
    </g>
    <g id="xtick_12">
     <g id="line2d_28">
      <g>
       <use xlink:href="#mbc26cddab7" x="93.521311" y="149.13" style="stroke: #000000; stroke-width: 0.5"/>
      </g>
     </g>
     <g id="line2d_29">
      <g>
       <use xlink:href="#m3cc42ee8bc" x="93.521311" y="3.6" style="stroke: #000000; stroke-width: 0.5"/>
      </g>
     </g>
    </g>
    <g id="xtick_13">
     <g id="line2d_30">
      <g>
       <use xlink:href="#mbc26cddab7" x="101.333311" y="149.13" style="stroke: #000000; stroke-width: 0.5"/>
      </g>
     </g>
     <g id="line2d_31">
      <g>
       <use xlink:href="#m3cc42ee8bc" x="101.333311" y="3.6" style="stroke: #000000; stroke-width: 0.5"/>
      </g>
     </g>
    </g>
    <g id="xtick_14">
     <g id="line2d_32">
      <g>
       <use xlink:href="#mbc26cddab7" x="109.145311" y="149.13" style="stroke: #000000; stroke-width: 0.5"/>
      </g>
     </g>
     <g id="line2d_33">
      <g>
       <use xlink:href="#m3cc42ee8bc" x="109.145311" y="3.6" style="stroke: #000000; stroke-width: 0.5"/>
      </g>
     </g>
    </g>
    <g id="xtick_15">
     <g id="line2d_34">
      <g>
       <use xlink:href="#mbc26cddab7" x="124.769311" y="149.13" style="stroke: #000000; stroke-width: 0.5"/>
      </g>
     </g>
     <g id="line2d_35">
      <g>
       <use xlink:href="#m3cc42ee8bc" x="124.769311" y="3.6" style="stroke: #000000; stroke-width: 0.5"/>
      </g>
     </g>
    </g>
    <g id="xtick_16">
     <g id="line2d_36">
      <g>
       <use xlink:href="#mbc26cddab7" x="132.581311" y="149.13" style="stroke: #000000; stroke-width: 0.5"/>
      </g>
     </g>
     <g id="line2d_37">
      <g>
       <use xlink:href="#m3cc42ee8bc" x="132.581311" y="3.6" style="stroke: #000000; stroke-width: 0.5"/>
      </g>
     </g>
    </g>
    <g id="xtick_17">
     <g id="line2d_38">
      <g>
       <use xlink:href="#mbc26cddab7" x="140.393311" y="149.13" style="stroke: #000000; stroke-width: 0.5"/>
      </g>
     </g>
     <g id="line2d_39">
      <g>
       <use xlink:href="#m3cc42ee8bc" x="140.393311" y="3.6" style="stroke: #000000; stroke-width: 0.5"/>
      </g>
     </g>
    </g>
    <g id="xtick_18">
     <g id="line2d_40">
      <g>
       <use xlink:href="#mbc26cddab7" x="148.205311" y="149.13" style="stroke: #000000; stroke-width: 0.5"/>
      </g>
     </g>
     <g id="line2d_41">
      <g>
       <use xlink:href="#m3cc42ee8bc" x="148.205311" y="3.6" style="stroke: #000000; stroke-width: 0.5"/>
      </g>
     </g>
    </g>
    <g id="xtick_19">
     <g id="line2d_42">
      <g>
       <use xlink:href="#mbc26cddab7" x="163.829311" y="149.13" style="stroke: #000000; stroke-width: 0.5"/>
      </g>
     </g>
     <g id="line2d_43">
      <g>
       <use xlink:href="#m3cc42ee8bc" x="163.829311" y="3.6" style="stroke: #000000; stroke-width: 0.5"/>
      </g>
     </g>
    </g>
    <g id="xtick_20">
     <g id="line2d_44">
      <g>
       <use xlink:href="#mbc26cddab7" x="171.641311" y="149.13" style="stroke: #000000; stroke-width: 0.5"/>
      </g>
     </g>
     <g id="line2d_45">
      <g>
       <use xlink:href="#m3cc42ee8bc" x="171.641311" y="3.6" style="stroke: #000000; stroke-width: 0.5"/>
      </g>
     </g>
    </g>
    <g id="xtick_21">
     <g id="line2d_46">
      <g>
       <use xlink:href="#mbc26cddab7" x="179.453311" y="149.13" style="stroke: #000000; stroke-width: 0.5"/>
      </g>
     </g>
     <g id="line2d_47">
      <g>
       <use xlink:href="#m3cc42ee8bc" x="179.453311" y="3.6" style="stroke: #000000; stroke-width: 0.5"/>
      </g>
     </g>
    </g>
    <g id="xtick_22">
     <g id="line2d_48">
      <g>
       <use xlink:href="#mbc26cddab7" x="187.265311" y="149.13" style="stroke: #000000; stroke-width: 0.5"/>
      </g>
     </g>
     <g id="line2d_49">
      <g>
       <use xlink:href="#m3cc42ee8bc" x="187.265311" y="3.6" style="stroke: #000000; stroke-width: 0.5"/>
      </g>
     </g>
    </g>
    <g id="xtick_23">
     <g id="line2d_50">
      <g>
       <use xlink:href="#mbc26cddab7" x="202.889311" y="149.13" style="stroke: #000000; stroke-width: 0.5"/>
      </g>
     </g>
     <g id="line2d_51">
      <g>
       <use xlink:href="#m3cc42ee8bc" x="202.889311" y="3.6" style="stroke: #000000; stroke-width: 0.5"/>
      </g>
     </g>
    </g>
    <g id="xtick_24">
     <g id="line2d_52">
      <g>
       <use xlink:href="#mbc26cddab7" x="210.701311" y="149.13" style="stroke: #000000; stroke-width: 0.5"/>
      </g>
     </g>
     <g id="line2d_53">
      <g>
       <use xlink:href="#m3cc42ee8bc" x="210.701311" y="3.6" style="stroke: #000000; stroke-width: 0.5"/>
      </g>
     </g>
    </g>
    <g id="xtick_25">
     <g id="line2d_54">
      <g>
       <use xlink:href="#mbc26cddab7" x="218.513311" y="149.13" style="stroke: #000000; stroke-width: 0.5"/>
      </g>
     </g>
     <g id="line2d_55">
      <g>
       <use xlink:href="#m3cc42ee8bc" x="218.513311" y="3.6" style="stroke: #000000; stroke-width: 0.5"/>
      </g>
     </g>
    </g>
    <g id="xtick_26">
     <g id="line2d_56">
      <g>
       <use xlink:href="#mbc26cddab7" x="226.325311" y="149.13" style="stroke: #000000; stroke-width: 0.5"/>
      </g>
     </g>
     <g id="line2d_57">
      <g>
       <use xlink:href="#m3cc42ee8bc" x="226.325311" y="3.6" style="stroke: #000000; stroke-width: 0.5"/>
      </g>
     </g>
    </g>
    <g id="text_6">
     <!-- $t$ [ns] -->
     <g transform="translate(117.716391 172.957657) scale(0.1 -0.1)">
      <defs>
       <path id="CMMI12-74" d="M 1286 2566 
L 1875 2566 
C 1997 2566 2061 2566 2061 2681 
C 2061 2752 2022 2752 1894 2752 
L 1331 2752 
L 1568 3692 
C 1594 3781 1594 3794 1594 3840 
C 1594 3943 1510 4000 1427 4000 
C 1376 4000 1229 3981 1178 3775 
L 928 2752 
L 326 2752 
C 198 2752 141 2752 141 2630 
C 141 2566 186 2566 307 2566 
L 877 2566 
L 454 881 
C 403 658 384 594 384 511 
C 384 211 595 -64 954 -64 
C 1600 -64 1946 868 1946 912 
C 1946 951 1920 970 1882 970 
C 1869 970 1843 970 1830 944 
C 1824 938 1818 931 1773 829 
C 1638 511 1344 64 973 64 
C 781 64 768 224 768 364 
C 768 370 768 492 787 568 
L 1286 2566 
z
" transform="scale(0.015625)"/>
       <path id="CMR17-5b" d="M 1504 -1600 
L 1504 -1377 
L 902 -1377 
L 902 4544 
L 1504 4544 
L 1504 4767 
L 678 4767 
L 678 -1600 
L 1504 -1600 
z
" transform="scale(0.015625)"/>
       <path id="CMR17-6e" d="M 2656 1933 
C 2656 2259 2592 2790 1837 2790 
C 1331 2790 1069 2400 973 2144 
L 966 2144 
L 966 2790 
L 211 2720 
L 211 2554 
C 589 2554 646 2515 646 2208 
L 646 428 
C 646 184 621 153 211 153 
L 211 -13 
C 365 0 646 0 813 0 
C 979 0 1267 0 1421 -13 
L 1421 153 
C 1011 153 986 178 986 428 
L 986 1658 
C 986 2247 1344 2688 1792 2688 
C 2266 2688 2317 2266 2317 1958 
L 2317 428 
C 2317 184 2291 153 1882 153 
L 1882 -13 
C 2035 0 2317 0 2483 0 
C 2650 0 2938 0 3091 -13 
L 3091 153 
C 2682 153 2656 178 2656 428 
L 2656 1933 
z
" transform="scale(0.015625)"/>
       <path id="CMR17-73" d="M 1978 2697 
C 1978 2813 1971 2819 1933 2819 
C 1907 2819 1901 2813 1824 2717 
C 1805 2691 1747 2626 1728 2601 
C 1523 2819 1235 2819 1126 2819 
C 416 2819 160 2447 160 2076 
C 160 1498 813 1365 998 1325 
C 1402 1243 1542 1217 1677 1101 
C 1760 1025 1901 884 1901 654 
C 1901 384 1747 38 1158 38 
C 602 38 403 460 288 1021 
C 269 1110 269 1117 218 1117 
C 166 1117 160 1110 160 983 
L 160 63 
C 160 -51 166 -58 205 -58 
C 237 -58 243 -51 275 0 
C 314 57 410 211 448 276 
C 576 103 800 -64 1158 -64 
C 1792 -64 2131 283 2131 784 
C 2131 1112 1958 1285 1875 1362 
C 1683 1561 1459 1606 1190 1657 
C 838 1735 390 1825 390 2217 
C 390 2383 480 2737 1126 2737 
C 1811 2737 1850 2094 1862 1888 
C 1869 1856 1901 1849 1920 1849 
C 1978 1849 1978 1869 1978 1978 
L 1978 2697 
z
" transform="scale(0.015625)"/>
       <path id="CMR17-5d" d="M 915 4767 
L 90 4767 
L 90 4544 
L 691 4544 
L 691 -1377 
L 90 -1377 
L 90 -1600 
L 915 -1600 
L 915 4767 
z
" transform="scale(0.015625)"/>
      </defs>
      <use xlink:href="#CMMI12-74" transform="scale(0.996264)"/>
      <use xlink:href="#CMR17-5b" transform="translate(65.302297 0) scale(0.996264)"/>
      <use xlink:href="#CMR17-6e" transform="translate(90.173355 0) scale(0.996264)"/>
      <use xlink:href="#CMR17-73" transform="translate(141.068725 0) scale(0.996264)"/>
      <use xlink:href="#CMR17-5d" transform="translate(176.870062 0) scale(0.996264)"/>
     </g>
    </g>
   </g>
   <g id="matplotlib.axis_2">
    <g id="ytick_1">
     <g id="line2d_58">
      <path d="M 31.025311 149.13 
L 226.325311 149.13 
" clip-path="url(#pf42ea1a244)" style="fill: none; stroke-dasharray: 1.85,0.8; stroke-dashoffset: 0; stroke: #000000; stroke-opacity: 0.5; stroke-width: 0.5"/>
     </g>
     <g id="line2d_59">
      <defs>
       <path id="mf089b1d430" d="M 0 0 
L 3 0 
" style="stroke: #000000; stroke-width: 0.5"/>
      </defs>
      <g>
       <use xlink:href="#mf089b1d430" x="31.025311" y="149.13" style="stroke: #000000; stroke-width: 0.5"/>
      </g>
     </g>
     <g id="line2d_60">
      <defs>
       <path id="m73c8dd6bf8" d="M 0 0 
L -3 0 
" style="stroke: #000000; stroke-width: 0.5"/>
      </defs>
      <g>
       <use xlink:href="#m73c8dd6bf8" x="226.325311" y="149.13" style="stroke: #000000; stroke-width: 0.5"/>
      </g>
     </g>
     <g id="text_7">
      <!-- $\mathdefault{0}$ -->
      <g transform="translate(22.543975 152.589249) scale(0.1 -0.1)">
       <use xlink:href="#CMR17-30" transform="scale(0.996264)"/>
      </g>
     </g>
    </g>
    <g id="ytick_2">
     <g id="line2d_61">
      <path d="M 31.025311 116.79 
L 226.325311 116.79 
" clip-path="url(#pf42ea1a244)" style="fill: none; stroke-dasharray: 1.85,0.8; stroke-dashoffset: 0; stroke: #000000; stroke-opacity: 0.5; stroke-width: 0.5"/>
     </g>
     <g id="line2d_62">
      <g>
       <use xlink:href="#mf089b1d430" x="31.025311" y="116.79" style="stroke: #000000; stroke-width: 0.5"/>
      </g>
     </g>
     <g id="line2d_63">
      <g>
       <use xlink:href="#m73c8dd6bf8" x="226.325311" y="116.79" style="stroke: #000000; stroke-width: 0.5"/>
      </g>
     </g>
     <g id="text_8">
      <!-- $\mathdefault{20}$ -->
      <g transform="translate(17.56264 120.249249) scale(0.1 -0.1)">
       <use xlink:href="#CMR17-32" transform="scale(0.996264)"/>
       <use xlink:href="#CMR17-30" transform="translate(45.690477 0) scale(0.996264)"/>
      </g>
     </g>
    </g>
    <g id="ytick_3">
     <g id="line2d_64">
      <path d="M 31.025311 84.45 
L 226.325311 84.45 
" clip-path="url(#pf42ea1a244)" style="fill: none; stroke-dasharray: 1.85,0.8; stroke-dashoffset: 0; stroke: #000000; stroke-opacity: 0.5; stroke-width: 0.5"/>
     </g>
     <g id="line2d_65">
      <g>
       <use xlink:href="#mf089b1d430" x="31.025311" y="84.45" style="stroke: #000000; stroke-width: 0.5"/>
      </g>
     </g>
     <g id="line2d_66">
      <g>
       <use xlink:href="#m73c8dd6bf8" x="226.325311" y="84.45" style="stroke: #000000; stroke-width: 0.5"/>
      </g>
     </g>
     <g id="text_9">
      <!-- $\mathdefault{40}$ -->
      <g transform="translate(17.56264 87.909249) scale(0.1 -0.1)">
       <defs>
        <path id="CMR17-34" d="M 2150 4122 
C 2150 4256 2144 4256 2029 4256 
L 128 1254 
L 128 1088 
L 1779 1088 
L 1779 457 
C 1779 224 1766 160 1318 160 
L 1197 160 
L 1197 0 
C 1402 0 1747 0 1965 0 
C 2182 0 2528 0 2733 0 
L 2733 160 
L 2611 160 
C 2163 160 2150 224 2150 457 
L 2150 1088 
L 2803 1088 
L 2803 1254 
L 2150 1254 
L 2150 4122 
z
M 1798 3703 
L 1798 1254 
L 256 1254 
L 1798 3703 
z
" transform="scale(0.015625)"/>
       </defs>
       <use xlink:href="#CMR17-34" transform="scale(0.996264)"/>
       <use xlink:href="#CMR17-30" transform="translate(45.690477 0) scale(0.996264)"/>
      </g>
     </g>
    </g>
    <g id="ytick_4">
     <g id="line2d_67">
      <path d="M 31.025311 52.11 
L 226.325311 52.11 
" clip-path="url(#pf42ea1a244)" style="fill: none; stroke-dasharray: 1.85,0.8; stroke-dashoffset: 0; stroke: #000000; stroke-opacity: 0.5; stroke-width: 0.5"/>
     </g>
     <g id="line2d_68">
      <g>
       <use xlink:href="#mf089b1d430" x="31.025311" y="52.11" style="stroke: #000000; stroke-width: 0.5"/>
      </g>
     </g>
     <g id="line2d_69">
      <g>
       <use xlink:href="#m73c8dd6bf8" x="226.325311" y="52.11" style="stroke: #000000; stroke-width: 0.5"/>
      </g>
     </g>
     <g id="text_10">
      <!-- $\mathdefault{60}$ -->
      <g transform="translate(17.56264 55.569249) scale(0.1 -0.1)">
       <defs>
        <path id="CMR17-36" d="M 678 2176 
C 678 3690 1395 4032 1811 4032 
C 1946 4032 2272 4009 2400 3776 
C 2298 3776 2106 3776 2106 3553 
C 2106 3381 2246 3323 2336 3323 
C 2394 3323 2566 3348 2566 3560 
C 2566 3954 2246 4179 1805 4179 
C 1043 4179 243 3390 243 1984 
C 243 253 966 -128 1478 -128 
C 2099 -128 2688 427 2688 1283 
C 2688 2081 2170 2662 1517 2662 
C 1126 2662 838 2407 678 1960 
L 678 2176 
z
M 1478 25 
C 691 25 691 1200 691 1436 
C 691 1896 909 2560 1504 2560 
C 1613 2560 1926 2560 2138 2120 
C 2253 1870 2253 1609 2253 1289 
C 2253 944 2253 690 2118 434 
C 1978 171 1773 25 1478 25 
z
" transform="scale(0.015625)"/>
       </defs>
       <use xlink:href="#CMR17-36" transform="scale(0.996264)"/>
       <use xlink:href="#CMR17-30" transform="translate(45.690477 0) scale(0.996264)"/>
      </g>
     </g>
    </g>
    <g id="ytick_5">
     <g id="line2d_70">
      <path d="M 31.025311 19.77 
L 226.325311 19.77 
" clip-path="url(#pf42ea1a244)" style="fill: none; stroke-dasharray: 1.85,0.8; stroke-dashoffset: 0; stroke: #000000; stroke-opacity: 0.5; stroke-width: 0.5"/>
     </g>
     <g id="line2d_71">
      <g>
       <use xlink:href="#mf089b1d430" x="31.025311" y="19.77" style="stroke: #000000; stroke-width: 0.5"/>
      </g>
     </g>
     <g id="line2d_72">
      <g>
       <use xlink:href="#m73c8dd6bf8" x="226.325311" y="19.77" style="stroke: #000000; stroke-width: 0.5"/>
      </g>
     </g>
     <g id="text_11">
      <!-- $\mathdefault{80}$ -->
      <g transform="translate(17.56264 23.229249) scale(0.1 -0.1)">
       <defs>
        <path id="CMR17-38" d="M 1741 2264 
C 2144 2467 2554 2773 2554 3263 
C 2554 3841 1990 4179 1472 4179 
C 890 4179 378 3759 378 3180 
C 378 3021 416 2747 666 2505 
C 730 2442 998 2251 1171 2130 
C 883 1983 211 1634 211 934 
C 211 279 838 -128 1459 -128 
C 2144 -128 2720 362 2720 1010 
C 2720 1590 2330 1857 2074 2029 
L 1741 2264 
z
M 902 2822 
C 851 2854 595 3051 595 3351 
C 595 3739 998 4032 1459 4032 
C 1965 4032 2336 3676 2336 3262 
C 2336 2669 1670 2331 1638 2331 
C 1632 2331 1626 2331 1574 2370 
L 902 2822 
z
M 2080 1519 
C 2176 1449 2483 1240 2483 851 
C 2483 381 2010 25 1472 25 
C 890 25 448 438 448 940 
C 448 1443 838 1862 1280 2060 
L 2080 1519 
z
" transform="scale(0.015625)"/>
       </defs>
       <use xlink:href="#CMR17-38" transform="scale(0.996264)"/>
       <use xlink:href="#CMR17-30" transform="translate(45.690477 0) scale(0.996264)"/>
      </g>
     </g>
    </g>
    <g id="ytick_6">
     <g id="line2d_73">
      <defs>
       <path id="m1d184efb84" d="M 0 0 
L 1.5 0 
" style="stroke: #000000; stroke-width: 0.5"/>
      </defs>
      <g>
       <use xlink:href="#m1d184efb84" x="31.025311" y="141.045" style="stroke: #000000; stroke-width: 0.5"/>
      </g>
     </g>
     <g id="line2d_74">
      <defs>
       <path id="m99a8f653d2" d="M 0 0 
L -1.5 0 
" style="stroke: #000000; stroke-width: 0.5"/>
      </defs>
      <g>
       <use xlink:href="#m99a8f653d2" x="226.325311" y="141.045" style="stroke: #000000; stroke-width: 0.5"/>
      </g>
     </g>
    </g>
    <g id="ytick_7">
     <g id="line2d_75">
      <g>
       <use xlink:href="#m1d184efb84" x="31.025311" y="132.96" style="stroke: #000000; stroke-width: 0.5"/>
      </g>
     </g>
     <g id="line2d_76">
      <g>
       <use xlink:href="#m99a8f653d2" x="226.325311" y="132.96" style="stroke: #000000; stroke-width: 0.5"/>
      </g>
     </g>
    </g>
    <g id="ytick_8">
     <g id="line2d_77">
      <g>
       <use xlink:href="#m1d184efb84" x="31.025311" y="124.875" style="stroke: #000000; stroke-width: 0.5"/>
      </g>
     </g>
     <g id="line2d_78">
      <g>
       <use xlink:href="#m99a8f653d2" x="226.325311" y="124.875" style="stroke: #000000; stroke-width: 0.5"/>
      </g>
     </g>
    </g>
    <g id="ytick_9">
     <g id="line2d_79">
      <g>
       <use xlink:href="#m1d184efb84" x="31.025311" y="108.705" style="stroke: #000000; stroke-width: 0.5"/>
      </g>
     </g>
     <g id="line2d_80">
      <g>
       <use xlink:href="#m99a8f653d2" x="226.325311" y="108.705" style="stroke: #000000; stroke-width: 0.5"/>
      </g>
     </g>
    </g>
    <g id="ytick_10">
     <g id="line2d_81">
      <g>
       <use xlink:href="#m1d184efb84" x="31.025311" y="100.62" style="stroke: #000000; stroke-width: 0.5"/>
      </g>
     </g>
     <g id="line2d_82">
      <g>
       <use xlink:href="#m99a8f653d2" x="226.325311" y="100.62" style="stroke: #000000; stroke-width: 0.5"/>
      </g>
     </g>
    </g>
    <g id="ytick_11">
     <g id="line2d_83">
      <g>
       <use xlink:href="#m1d184efb84" x="31.025311" y="92.535" style="stroke: #000000; stroke-width: 0.5"/>
      </g>
     </g>
     <g id="line2d_84">
      <g>
       <use xlink:href="#m99a8f653d2" x="226.325311" y="92.535" style="stroke: #000000; stroke-width: 0.5"/>
      </g>
     </g>
    </g>
    <g id="ytick_12">
     <g id="line2d_85">
      <g>
       <use xlink:href="#m1d184efb84" x="31.025311" y="76.365" style="stroke: #000000; stroke-width: 0.5"/>
      </g>
     </g>
     <g id="line2d_86">
      <g>
       <use xlink:href="#m99a8f653d2" x="226.325311" y="76.365" style="stroke: #000000; stroke-width: 0.5"/>
      </g>
     </g>
    </g>
    <g id="ytick_13">
     <g id="line2d_87">
      <g>
       <use xlink:href="#m1d184efb84" x="31.025311" y="68.28" style="stroke: #000000; stroke-width: 0.5"/>
      </g>
     </g>
     <g id="line2d_88">
      <g>
       <use xlink:href="#m99a8f653d2" x="226.325311" y="68.28" style="stroke: #000000; stroke-width: 0.5"/>
      </g>
     </g>
    </g>
    <g id="ytick_14">
     <g id="line2d_89">
      <g>
       <use xlink:href="#m1d184efb84" x="31.025311" y="60.195" style="stroke: #000000; stroke-width: 0.5"/>
      </g>
     </g>
     <g id="line2d_90">
      <g>
       <use xlink:href="#m99a8f653d2" x="226.325311" y="60.195" style="stroke: #000000; stroke-width: 0.5"/>
      </g>
     </g>
    </g>
    <g id="ytick_15">
     <g id="line2d_91">
      <g>
       <use xlink:href="#m1d184efb84" x="31.025311" y="44.025" style="stroke: #000000; stroke-width: 0.5"/>
      </g>
     </g>
     <g id="line2d_92">
      <g>
       <use xlink:href="#m99a8f653d2" x="226.325311" y="44.025" style="stroke: #000000; stroke-width: 0.5"/>
      </g>
     </g>
    </g>
    <g id="ytick_16">
     <g id="line2d_93">
      <g>
       <use xlink:href="#m1d184efb84" x="31.025311" y="35.94" style="stroke: #000000; stroke-width: 0.5"/>
      </g>
     </g>
     <g id="line2d_94">
      <g>
       <use xlink:href="#m99a8f653d2" x="226.325311" y="35.94" style="stroke: #000000; stroke-width: 0.5"/>
      </g>
     </g>
    </g>
    <g id="ytick_17">
     <g id="line2d_95">
      <g>
       <use xlink:href="#m1d184efb84" x="31.025311" y="27.855" style="stroke: #000000; stroke-width: 0.5"/>
      </g>
     </g>
     <g id="line2d_96">
      <g>
       <use xlink:href="#m99a8f653d2" x="226.325311" y="27.855" style="stroke: #000000; stroke-width: 0.5"/>
      </g>
     </g>
    </g>
    <g id="ytick_18">
     <g id="line2d_97">
      <g>
       <use xlink:href="#m1d184efb84" x="31.025311" y="11.685" style="stroke: #000000; stroke-width: 0.5"/>
      </g>
     </g>
     <g id="line2d_98">
      <g>
       <use xlink:href="#m99a8f653d2" x="226.325311" y="11.685" style="stroke: #000000; stroke-width: 0.5"/>
      </g>
     </g>
    </g>
    <g id="ytick_19">
     <g id="line2d_99">
      <g>
       <use xlink:href="#m1d184efb84" x="31.025311" y="3.6" style="stroke: #000000; stroke-width: 0.5"/>
      </g>
     </g>
     <g id="line2d_100">
      <g>
       <use xlink:href="#m99a8f653d2" x="226.325311" y="3.6" style="stroke: #000000; stroke-width: 0.5"/>
      </g>
     </g>
    </g>
    <g id="text_12">
     <!-- $U_1$ [mV] -->
     <g transform="translate(11.07198 94.315774) rotate(-90) scale(0.1 -0.1)">
      <defs>
       <path id="CMMI12-55" d="M 3238 1474 
C 3014 581 2272 57 1670 57 
C 1210 57 896 363 896 891 
C 896 916 896 1107 966 1387 
L 1594 3887 
C 1651 4103 1664 4167 2118 4167 
C 2234 4167 2298 4167 2298 4282 
C 2298 4352 2240 4352 2202 4352 
C 2086 4352 1952 4352 1830 4352 
L 1075 4352 
C 954 4352 819 4352 698 4352 
C 653 4352 576 4352 576 4231 
C 576 4167 621 4167 742 4167 
C 1126 4167 1126 4116 1126 4046 
C 1126 4008 1082 3824 1050 3715 
L 493 1488 
C 474 1418 435 1246 435 1075 
C 435 374 941 -128 1638 -128 
C 2285 -128 3002 384 3328 1197 
C 3373 1305 3430 1530 3469 1702 
C 3533 1933 3667 2496 3712 2662 
L 3955 3623 
C 4038 3956 4090 4167 4653 4167 
C 4704 4173 4730 4224 4730 4282 
C 4730 4352 4672 4352 4646 4352 
C 4557 4352 4442 4352 4352 4352 
L 4051 4352 
C 3654 4352 3450 4352 3443 4352 
C 3405 4352 3328 4352 3328 4231 
C 3328 4167 3379 4167 3424 4167 
C 3808 4167 3834 4020 3834 3905 
C 3834 3848 3834 3828 3808 3739 
L 3238 1474 
z
" transform="scale(0.015625)"/>
       <path id="CMR17-6d" d="M 4326 1933 
C 4326 2252 4269 2790 3507 2790 
C 3072 2790 2771 2496 2656 2151 
L 2650 2151 
C 2573 2676 2195 2790 1837 2790 
C 1331 2790 1069 2400 973 2144 
L 966 2144 
L 966 2790 
L 211 2720 
L 211 2554 
C 589 2554 646 2515 646 2208 
L 646 428 
C 646 184 621 153 211 153 
L 211 -13 
C 365 0 646 0 813 0 
C 979 0 1267 0 1421 -13 
L 1421 153 
C 1011 153 986 178 986 428 
L 986 1658 
C 986 2247 1344 2688 1792 2688 
C 2266 2688 2317 2266 2317 1958 
L 2317 428 
C 2317 184 2291 153 1882 153 
L 1882 -13 
C 2035 0 2317 0 2483 0 
C 2650 0 2938 0 3091 -13 
L 3091 153 
C 2682 153 2656 178 2656 428 
L 2656 1658 
C 2656 2247 3014 2688 3462 2688 
C 3936 2688 3987 2266 3987 1958 
L 3987 428 
C 3987 184 3962 153 3552 153 
L 3552 -13 
C 3706 0 3987 0 4154 0 
C 4320 0 4608 0 4762 -13 
L 4762 153 
C 4352 153 4326 178 4326 428 
L 4326 1933 
z
" transform="scale(0.015625)"/>
       <path id="CMR17-56" d="M 3776 3745 
C 3834 3886 3936 4160 4365 4160 
L 4365 4332 
C 4218 4319 4051 4319 3891 4319 
C 3738 4319 3475 4319 3328 4332 
L 3328 4160 
C 3648 4160 3661 3936 3661 3898 
C 3661 3827 3642 3783 3622 3732 
L 2362 446 
L 1043 3886 
C 1024 3931 1011 3963 1011 3994 
C 1011 4160 1267 4160 1402 4160 
L 1402 4319 
C 1197 4319 896 4319 685 4319 
C 518 4319 218 4319 64 4332 
L 64 4160 
C 435 4160 506 4135 582 3931 
L 2106 -26 
C 2138 -115 2144 -128 2214 -128 
C 2285 -128 2291 -115 2323 -26 
L 3776 3745 
z
" transform="scale(0.015625)"/>
      </defs>
      <use xlink:href="#CMMI12-55" transform="scale(0.996264)"/>
      <use xlink:href="#CMR17-31" transform="translate(66.252119 -14.943915) scale(0.697382)"/>
      <use xlink:href="#CMR17-5b" transform="translate(128.809399 0) scale(0.996264)"/>
      <use xlink:href="#CMR17-6d" transform="translate(153.680458 0) scale(0.996264)"/>
      <use xlink:href="#CMR17-56" transform="translate(230.600048 0) scale(0.996264)"/>
      <use xlink:href="#CMR17-5d" transform="translate(299.672478 0) scale(0.996264)"/>
     </g>
    </g>
   </g>
   <g id="line2d_101">
    <path d="M 38.837311 149.127613 
L 39.054484 148.600579 
L 39.27947 146.278662 
L 39.763814 139.63982 
L 40.193474 133.812868 
L 40.905928 125.053704 
L 41.766811 115.550825 
L 41.879303 114.374273 
L 42.413644 109.057141 
L 42.67144 106.672639 
L 43.090163 103.019529 
L 44.31821 93.497879 
L 44.569756 91.788789 
L 44.829115 90.078657 
L 45.102535 88.258271 
L 46.004039 82.727567 
L 46.066535 82.357436 
L 46.346205 80.793736 
L 46.438387 80.276599 
L 49.249144 66.50724 
L 49.288204 66.334819 
L 49.978785 63.348745 
L 50.185022 62.577691 
L 50.402195 61.730979 
L 51.447441 57.880367 
L 51.522436 57.619765 
L 51.716174 56.923793 
L 51.763046 56.748492 
L 52.056777 55.823395 
L 52.264576 55.16388 
L 52.266139 55.164919 
L 52.298949 55.055284 
L 52.384881 54.815176 
L 52.63799 54.011552 
L 52.764544 53.628649 
L 52.933283 53.125464 
L 53.122334 52.544438 
L 54.205077 49.551952 
L 54.731606 48.21745 
L 55.019087 47.45292 
L 55.445623 46.475018 
L 55.806537 45.622497 
L 55.972151 45.202735 
L 56.240884 44.651957 
L 56.245571 44.648092 
L 56.286194 44.555971 
L 56.584612 43.875996 
L 56.667419 43.727932 
L 56.920528 43.194637 
L 56.976775 43.06274 
L 57.287692 42.462392 
L 57.509553 42.009072 
L 58.520426 40.228445 
L 58.521988 40.230213 
L 58.523551 40.231716 
L 58.570423 40.152356 
L 58.584484 40.141164 
L 58.739162 39.899934 
L 58.973522 39.548817 
L 58.979771 39.553862 
L 59.040705 39.450853 
L 59.137574 39.275618 
L 59.392245 38.89735 
L 59.393807 38.903354 
L 59.414119 38.897006 
L 59.448491 38.812213 
L 59.628167 38.512099 
L 59.62973 38.513841 
L 59.654728 38.484432 
L 59.670352 38.413959 
L 59.671915 38.411199 
L 59.679727 38.417062 
L 60.140635 37.712142 
L 60.142197 37.71359 
L 60.190631 37.608783 
L 60.409367 37.262472 
L 60.420304 37.257775 
L 60.439053 37.208007 
L 60.476551 37.175314 
L 60.635915 36.919674 
L 62.068636 34.812648 
L 62.223314 34.587584 
L 62.398303 34.347507 
L 62.404552 34.356925 
L 62.476423 34.239997 
L 62.477985 34.239785 
L 62.870147 33.694124 
L 62.981078 33.577019 
L 63.182627 33.309596 
L 63.299807 33.181589 
L 64.296619 31.878962 
L 64.299743 31.880781 
L 64.362239 31.784856 
L 64.509105 31.546215 
L 64.670032 31.287822 
L 64.812211 31.085207 
L 64.968451 30.917168 
L 64.9747 30.922589 
L 65.034071 30.825962 
L 65.037196 30.827747 
L 65.210623 30.599549 
L 65.273119 30.506098 
L 65.466856 30.277621 
L 65.56685 30.156324 
L 68.254178 26.928188 
L 68.355734 26.79872 
L 68.8807 26.246006 
L 68.957258 26.214572 
L 68.977569 26.183773 
L 69.279112 25.857846 
L 69.282237 25.860057 
L 70.147807 24.976505 
L 70.197803 24.908629 
L 70.238426 24.912607 
L 71.368041 23.767282 
L 71.369603 23.771958 
L 71.557091 23.642656 
L 71.886758 23.276697 
L 71.891445 23.280966 
L 72.0055 23.201924 
L 72.146116 23.088012 
L 72.149241 23.089291 
L 72.150803 23.092229 
L 72.20705 23.017104 
L 72.233611 23.013697 
L 72.374227 22.905852 
L 72.650771 22.63809 
L 72.652334 22.641555 
L 72.725767 22.544912 
L 72.727329 22.544563 
L 72.950752 22.303098 
L 73.208548 22.121709 
L 73.369475 21.91737 
L 73.635083 21.696149 
L 73.810072 21.537351 
L 73.972562 21.359146 
L 74.241295 21.156618 
L 74.260043 21.133002 
L 74.338163 21.103879 
L 74.524089 20.946546 
L 74.525651 20.950803 
L 74.616271 20.875602 
L 74.813133 20.784551 
L 74.814695 20.786386 
L 74.874067 20.686191 
L 75.209983 20.372645 
L 75.295915 20.285138 
L 75.431843 20.178355 
L 75.445905 20.174821 
L 75.502151 20.101013 
L 75.509963 20.100733 
L 75.688077 19.928684 
L 75.691202 19.93472 
L 76.916123 18.992912 
L 77.109861 18.842704 
L 77.198918 18.728742 
L 77.878562 18.263102 
L 77.959807 18.193278 
L 77.926996 18.209951 
L 77.961369 18.191626 
L 78.228539 17.96806 
L 78.231664 17.972529 
L 78.312909 17.886803 
L 78.316034 17.886476 
L 78.561331 17.696766 
L 78.564455 17.70178 
L 78.72382 17.582189 
L 78.936307 17.406554 
L 79.128482 17.290615 
L 79.239412 17.280332 
L 79.242537 17.281247 
L 79.494083 17.075482 
L 79.247224 17.286675 
L 79.503458 17.086657 
L 79.825312 16.870884 
L 79.958116 16.753019 
L 79.959679 16.755227 
L 79.983115 16.75654 
L 80.006551 16.70998 
L 80.040923 16.684759 
L 80.183102 16.601536 
L 80.203413 16.606164 
L 80.265909 16.530806 
L 80.404963 16.450044 
L 80.569015 16.333519 
L 80.708068 16.225905 
L 80.751815 16.234098 
L 80.804937 16.166786 
L 80.806499 16.168786 
L 80.979926 16.059404 
L 81.150227 15.91463 
L 81.15179 15.916828 
L 81.168976 15.886256 
L 81.233035 15.843427 
L 81.387712 15.741833 
L 81.58145 15.617395 
L 81.603323 15.612001 
L 81.667382 15.541292 
L 81.861119 15.41143 
L 81.862682 15.413119 
L 82.139227 15.263911 
L 82.276718 15.178769 
L 82.373587 15.141663 
L 82.378274 15.127671 
L 82.5517 15.046473 
L 82.651694 14.964637 
L 82.662631 14.974292 
L 83.017295 14.69993 
L 83.112602 14.665462 
L 83.02667 14.688777 
L 83.117289 14.650879 
L 83.321963 14.548371 
L 83.453205 14.463196 
L 83.640693 14.363091 
L 83.784434 14.279367 
L 83.884427 14.239494 
L 83.887552 14.232903 
L 84.087539 14.124192 
L 84.190658 14.094049 
L 84.101601 14.101902 
L 84.195345 14.088328 
L 84.418768 13.989325 
L 84.423455 13.998184 
L 84.623443 13.898331 
L 84.771871 13.81189 
L 84.779683 13.827748 
L 84.871864 13.785174 
L 84.879676 13.787252 
L 85.115599 13.619832 
L 85.264027 13.503643 
L 85.414017 13.397745 
L 85.417142 13.401487 
L 85.498387 13.330819 
L 85.504636 13.332023 
L 85.932734 13.272073 
L 85.943671 13.314141 
L 86.37958 16.799567 
L 86.907671 22.467703 
L 89.448134 44.305592 
L 90.1684 49.373346 
L 90.718365 52.85358 
L 91.077717 54.9971 
L 91.079279 54.996023 
L 91.101153 55.109214 
L 91.649555 58.170521 
L 91.852667 59.255116 
L 92.102651 60.522294 
L 92.207332 61.057865 
L 92.476065 62.417022 
L 94.450939 70.979158 
L 94.733733 72.041011 
L 94.907159 72.646117 
L 94.991529 72.928276 
L 95.219639 73.702097 
L 95.300884 73.975961 
L 95.999277 76.226094 
L 96.224263 76.957149 
L 96.358629 77.373703 
L 96.553929 77.978753 
L 96.864847 78.925038 
L 97.132017 79.630987 
L 97.183576 79.791073 
L 97.430435 80.47821 
L 97.431998 80.47782 
L 97.43356 80.475193 
L 97.480432 80.610257 
L 97.697606 81.210608 
L 98.252258 82.582753 
L 98.25382 82.580849 
L 98.342877 82.80164 
L 98.549114 83.352724 
L 98.550676 83.35082 
L 98.628796 83.524193 
L 98.9569 84.207112 
L 102.772281 92.182663 
L 102.831652 92.264706 
L 102.833215 92.269294 
L 103.005079 92.618199 
L 103.519108 93.580598 
L 105.650222 97.289989 
L 105.665846 97.302816 
L 105.693969 97.363731 
L 105.712718 97.381026 
L 106.237684 98.248762 
L 106.487668 98.644299 
L 106.492355 98.641922 
L 106.551727 98.746177 
L 107.490729 100.261876 
L 107.646969 100.4594 
L 107.661031 100.46438 
L 107.720402 100.543512 
L 107.787585 100.650668 
L 108.084441 101.065336 
L 108.343799 101.416929 
L 108.512539 101.651952 
L 108.514101 101.64996 
L 108.556286 101.705859 
L 108.575035 101.739646 
L 108.714088 101.905133 
L 108.840643 102.058863 
L 109.003132 102.267021 
L 111.357669 105.320663 
L 111.359231 105.310336 
L 111.452975 105.424311 
L 113.054435 107.264568 
L 113.055998 107.261768 
L 113.059123 107.257532 
L 113.140367 107.349478 
L 113.863759 108.152684 
L 114.007499 108.303374 
L 113.882507 108.141268 
L 114.010624 108.29693 
L 114.027811 108.302992 
L 114.066871 108.387154 
L 114.074683 108.38614 
L 114.426223 108.826865 
L 114.529341 108.898918 
L 114.530903 108.907988 
L 114.666832 109.030949 
L 114.880881 109.26083 
L 114.923066 109.312236 
L 114.968375 109.325946 
L 115.137115 109.48769 
L 115.180862 109.515859 
L 115.213672 109.566288 
L 115.693329 110.099645 
L 115.694891 110.097169 
L 115.699579 110.093419 
L 115.765199 110.164846 
L 115.780823 110.16398 
L 116.45578 110.794445 
L 116.458905 110.791498 
L 116.532338 110.831925 
L 116.483903 110.819184 
L 116.547962 110.854049 
L 116.705764 110.986482 
L 116.758886 111.016616 
L 116.790134 111.056023 
L 116.791696 111.056095 
L 118.824379 113.156568 
L 119.008742 113.359863 
L 119.219666 113.542788 
L 119.530583 113.835031 
L 119.70401 113.943052 
L 119.886811 114.114876 
L 119.888373 114.10878 
L 120.128983 114.259025 
L 120.261787 114.389729 
L 120.266474 114.386291 
L 120.457087 114.511566 
L 120.744568 114.808896 
L 120.746131 114.80671 
L 120.849249 114.869925 
L 121.535143 115.55241 
L 121.53983 115.544357 
L 121.639823 115.627579 
L 123.255345 116.974834 
L 123.410023 117.091361 
L 123.491267 117.126215 
L 123.422522 117.100668 
L 123.506891 117.142753 
L 123.919365 117.478563 
L 123.920927 117.473782 
L 123.99436 117.570305 
L 124.005297 117.572921 
L 124.177161 117.690947 
L 124.178723 117.6887 
L 124.18966 117.684405 
L 124.263093 117.75975 
L 124.266218 117.755948 
L 124.458393 117.951458 
L 124.464643 117.946499 
L 124.683379 118.136941 
L 124.936487 118.349867 
L 124.942737 118.34499 
L 124.952111 118.34327 
L 125.023982 118.427835 
L 125.125538 118.520069 
L 125.292715 118.616691 
L 125.300527 118.607318 
L 125.330212 118.620135 
L 125.386459 118.675379 
L 125.389583 118.672522 
L 125.575509 118.758152 
L 125.578634 118.751702 
L 126.078602 119.073491 
L 126.280151 119.214212 
L 126.294213 119.209931 
L 126.370771 119.278592 
L 126.486388 119.322964 
L 126.498887 119.313267 
L 126.711374 119.433476 
L 126.81293 119.478984 
L 126.737935 119.477007 
L 126.814492 119.48303 
L 126.916048 119.544426 
L 127.072288 119.664345 
L 127.075413 119.660346 
L 127.348833 119.856412 
L 127.491011 119.941889 
L 127.492574 119.939719 
L 127.622253 119.991912 
L 127.758182 120.078611 
L 128.067537 120.2824 
L 128.156594 120.34573 
L 128.161281 120.354457 
L 128.309709 120.460644 
L 128.351894 120.491502 
L 128.41439 120.489085 
L 128.57063 120.596001 
L 128.572192 120.591736 
L 128.658124 120.676468 
L 128.92217 120.823228 
L 128.926857 120.81816 
L 128.928419 120.815822 
L 128.989353 120.893616 
L 129.008102 120.89624 
L 129.367454 121.097043 
L 129.370579 121.093073 
L 129.453386 121.165589 
L 129.458073 121.161321 
L 129.686183 121.311269 
L 129.706495 121.317287 
L 129.745555 121.363284 
L 129.77524 121.375154 
L 130.873607 122.145545 
L 131.011099 122.252998 
L 131.257958 122.414349 
L 131.354827 122.453256 
L 131.3767 122.444119 
L 131.386075 122.44367 
L 131.429822 122.500936 
L 131.464195 122.512305 
L 131.606373 122.633974 
L 131.861044 122.771499 
L 131.864169 122.768838 
L 132.037595 122.85767 
L 132.16415 122.941432 
L 136.263887 125.149421 
L 136.284199 125.138878 
L 136.362319 125.195457 
L 136.365443 125.193754 
L 136.576367 125.313701 
L 136.741982 125.431515 
L 136.973217 125.525058 
L 137.131019 125.640119 
L 137.132582 125.639394 
L 137.216951 125.702992 
L 137.135707 125.64921 
L 137.223201 125.721192 
L 137.388815 125.858268 
L 137.396627 125.841763 
L 137.493496 125.881062 
L 137.420063 125.857731 
L 137.496621 125.888353 
L 137.770041 126.060169 
L 137.771603 126.058763 
L 137.879409 126.085688 
L 137.776291 126.064939 
L 137.884096 126.09183 
L 137.998151 126.093942 
L 138.020025 126.114138 
L 138.099707 126.134282 
L 138.234074 126.244976 
L 138.235636 126.243537 
L 138.45281 126.3266 
L 138.555928 126.363341 
L 138.557491 126.367952 
L 138.679358 126.451572 
L 138.930904 126.566049 
L 139.065271 126.62551 
L 139.165264 126.642349 
L 139.176201 126.65629 
L 139.34494 126.73662 
L 139.483994 126.806416 
L 139.855845 126.956265 
L 140.269881 127.188773 
L 140.273006 127.183506 
L 141.257318 127.572305 
L 141.422932 127.624032 
L 141.530738 127.635474 
L 141.433869 127.635635 
L 141.536987 127.64837 
L 141.755723 127.738961 
L 141.777597 127.71918 
L 141.863529 127.768471 
L 142.161947 127.902498 
L 142.321312 127.945211 
L 142.541611 128.097794 
L 142.611919 128.097171 
L 142.630667 128.068932 
L 142.652541 128.08354 
L 142.690039 128.081333 
L 142.755659 128.120367 
L 142.897838 128.184078 
L 142.8994 128.179584 
L 143.107199 128.258457 
L 143.208755 128.313846 
L 143.229067 128.302434 
L 143.983706 128.624824 
L 144.121197 128.71797 
L 144.124322 128.716024 
L 144.129009 128.706699 
L 144.205567 128.762701 
L 144.224315 128.764065 
L 144.753969 128.940331 
L 144.769593 128.930908 
L 144.844588 129.006131 
L 144.846151 129.006156 
L 144.971143 129.030809 
L 144.980517 129.022918 
L 145.074261 129.040558 
L 144.988329 129.030078 
L 145.091447 129.053315 
L 145.257062 129.128038 
L 145.094572 129.049183 
L 145.260187 129.124094 
L 145.300809 129.108688 
L 145.275811 129.130478 
L 145.369555 129.14154 
L 145.624226 129.251877 
L 145.752343 129.339222 
L 145.885147 129.33637 
L 145.897646 129.349356 
L 146.467922 129.612086 
L 146.624162 129.651145 
L 146.475734 129.605076 
L 146.625724 129.649139 
L 146.689783 129.702919 
L 146.724155 129.700903 
L 147.214749 129.866343 
L 147.35224 129.946792 
L 147.356927 129.942006 
L 147.439735 129.968573 
L 147.370989 129.962307 
L 147.456921 129.982845 
L 147.561602 130.015814 
L 147.581913 130.008091 
L 148.044383 130.193358 
L 148.049071 130.178966 
L 148.128753 130.240507 
L 148.144377 130.237538 
L 148.352176 130.290743 
L 148.353739 130.288733 
L 148.613097 130.369005 
L 148.784961 130.465681 
L 148.888079 130.473403 
L 148.813084 130.486223 
L 148.894329 130.482715 
L 149.014634 130.500424 
L 149.016196 130.499326 
L 149.273992 130.565338 
L 149.619283 130.664702 
L 152.009755 131.303702 
L 152.11756 131.277147 
L 152.139434 131.29322 
L 152.345671 131.40754 
L 152.361295 131.407607 
L 152.408167 131.475628 
L 152.43004 131.478077 
L 152.580031 131.50446 
L 152.695648 131.564686 
L 152.697211 131.568104 
L 152.814391 131.587492 
L 152.82064 131.584729 
L 153.275299 131.680837 
L 153.448725 131.735385 
L 153.514346 131.717127 
L 153.56278 131.760889 
L 153.761205 131.800804 
L 153.762767 131.7984 
L 153.883072 131.812593 
L 153.978379 131.824766 
L 153.908071 131.799194 
L 153.997127 131.816674 
L 154.095559 131.829141 
L 154.042437 131.833967 
L 154.103371 131.842728 
L 154.133056 131.827767 
L 154.234612 131.882305 
L 154.325231 131.868466 
L 154.353355 131.907105 
L 154.465847 131.940104 
L 154.472097 131.934326 
L 154.479909 131.941475 
L 154.595527 131.948714 
L 154.992376 132.110622 
L 155.198613 132.152881 
L 155.200175 132.148141 
L 155.748578 132.263878 
L 155.865758 132.290005 
L 155.970439 132.276517 
L 155.979813 132.28885 
L 156.118867 132.351994 
L 156.120429 132.356576 
L 156.293855 132.440785 
L 156.446971 132.407617 
L 156.448533 132.410101 
L 156.636021 132.502688 
L 156.753201 132.514725 
L 156.895379 132.568101 
L 156.901629 132.559565 
L 156.961 132.569659 
L 156.923503 132.57842 
L 157.004747 132.596703 
L 157.175049 132.636369 
L 157.765636 132.799191 
L 157.884379 132.797386 
L 157.889066 132.793205 
L 157.892191 132.79029 
L 158.014058 132.788897 
L 158.126551 132.794379 
L 158.128113 132.79699 
L 158.25623 132.829683 
L 158.146862 132.781243 
L 158.270291 132.81393 
L 158.332787 132.824252 
L 158.36716 132.865781 
L 158.554648 132.955742 
L 158.556211 132.953475 
L 158.578084 132.97235 
L 158.684327 132.970716 
L 158.824943 133.015952 
L 158.829631 133.011991 
L 159.095239 133.124644 
L 159.110863 133.114128 
L 159.249916 133.195633 
L 159.290539 133.203131 
L 159.320224 133.233839 
L 159.353035 133.232549 
L 159.854565 133.393131 
L 159.856127 133.384651 
L 159.957683 133.43811 
L 159.959246 133.435819 
L 160.332659 133.548973 
L 161.059175 133.698794 
L 161.154482 133.688514 
L 161.173231 133.701554 
L 161.287286 133.714041 
L 161.29666 133.704064 
L 161.426339 133.706332 
L 161.546644 133.748203 
L 161.552894 133.740718 
L 161.704447 133.776954 
L 161.806003 133.818733 
L 161.924745 133.83575 
L 162.385653 133.941341 
L 162.502833 133.955638 
L 163.587139 134.12768 
L 163.71838 134.189601 
L 163.726192 134.176355 
L 163.865246 134.146509 
L 163.729317 134.182308 
L 163.891807 134.185071 
L 164.102731 134.268422 
L 164.104293 134.266422 
L 164.238659 134.250735 
L 164.448021 134.290955 
L 164.449583 134.288582 
L 164.476144 134.282313 
L 164.535515 134.340383 
L 164.546452 134.34118 
L 164.746439 134.3284 
L 165.87293 134.488194 
L 165.979173 134.464051 
L 165.98386 134.455139 
L 166.044794 134.513122 
L 166.085416 134.496661 
L 166.813495 134.631432 
L 166.929112 134.634279 
L 166.930675 134.631993 
L 167.125975 134.743812 
L 167.235343 134.782943 
L 167.250967 134.777786 
L 167.393145 134.762197 
L 167.530636 134.77046 
L 167.685314 134.80001 
L 167.693126 134.792929 
L 169.474262 134.889777 
L 169.625815 134.921094 
L 169.633627 134.926006 
L 169.749244 134.921103 
L 169.907047 134.936854 
L 169.999228 134.97099 
L 170.028914 134.957639 
L 170.164843 134.955398 
L 170.299209 135.011018 
L 171.375703 135.178761 
L 171.556941 135.247304 
L 175.39732 135.595193 
L 175.576996 135.649916 
L 175.578559 135.648585 
L 175.584808 135.659781 
L 175.694176 135.666816 
L 176.078527 135.744813 
L 176.206643 135.769454 
L 176.211331 135.767036 
L 176.345697 135.779086 
L 176.347259 135.776779 
L 176.41288 135.777101 
L 176.45194 135.809043 
L 177.323759 135.928342 
L 177.337821 135.937266 
L 177.448751 135.92404 
L 177.548745 135.979433 
L 177.581555 135.966106 
L 177.734671 136.006189 
L 177.736233 136.004291 
L 179.18614 136.085977 
L 179.190827 136.080661 
L 179.329881 136.084048 
L 179.384565 136.079477 
L 179.347067 136.096823 
L 179.436124 136.11506 
L 179.442374 136.108292 
L 179.562679 136.098575 
L 179.681421 136.090508 
L 179.81735 136.100486 
L 179.818912 136.098109 
L 182.045332 136.213237 
L 182.096891 136.212999 
L 182.1547 136.18887 
L 182.412496 136.297006 
L 182.520302 136.325049 
L 182.534363 136.309941 
L 182.976523 136.416774 
L 183.056205 136.422802 
L 183.004646 136.405668 
L 183.087453 136.407241 
L 183.192134 136.391918 
L 183.199946 136.379994 
L 183.359311 136.348551 
L 183.360873 136.35102 
L 184.506112 136.462275 
L 184.645166 136.487142 
L 184.648291 136.48281 
L 184.759221 136.500427 
L 184.762346 136.507467 
L 184.949834 136.614507 
L 184.957646 136.607851 
L 185.099824 136.570056 
L 185.106074 136.581286 
L 185.245127 136.603628 
L 185.24669 136.596457 
L 185.376369 136.606281 
L 185.438865 136.612317 
L 185.485737 136.584743 
L 186.032577 136.693179 
L 186.190379 136.729744 
L 186.266937 136.742365 
L 186.210691 136.742481 
L 186.293498 136.766367 
L 186.299747 136.761221 
L 186.441926 136.772606 
L 186.579417 136.760434 
L 186.584104 136.764278 
L 186.701284 136.75134 
L 186.816902 136.740548 
L 186.832526 136.752185 
L 186.970017 136.75997 
L 187.085635 136.79469 
L 187.087197 136.798368 
L 187.230938 136.817326 
L 187.615288 136.849257 
L 187.724656 136.828302 
L 187.66216 136.86278 
L 187.730906 136.833164 
L 187.843399 136.838327 
L 187.846523 136.831778 
L 188.015263 136.862721 
L 188.126193 136.845092 
L 188.026199 136.869178 
L 188.134005 136.854987 
L 192.124375 137.002498 
L 192.252491 137.045637 
L 193.125873 137.12206 
L 193.239928 137.140762 
L 193.257115 137.119922 
L 195.702271 137.369488 
L 195.816326 137.395661 
L 195.819451 137.391422 
L 201.655015 137.51275 
L 201.776882 137.531344 
L 203.234601 137.636234 
L 203.362718 137.671785 
L 203.506459 137.707188 
L 203.511146 137.694988 
L 203.679885 137.672032 
L 203.781441 137.662457 
L 203.72207 137.640795 
L 203.789253 137.659617 
L 203.914245 137.672614 
L 203.91737 137.676934 
L 204.036112 137.705543 
L 204.042362 137.700813 
L 207.234345 137.815331 
L 207.357775 137.836974 
L 207.359337 137.834622 
L 208.279591 137.94309 
L 208.401458 137.960444 
L 208.415519 137.950371 
L 208.429581 137.965286 
L 208.570197 137.916799 
L 209.876363 138.009217 
L 210.001355 138.002931 
L 210.120098 137.996539 
L 210.12166 137.998937 
L 210.259151 138.006853 
L 210.443515 138.003534 
L 210.554445 138.042723 
L 210.559132 138.035534 
L 210.680999 138.012235 
L 210.810679 138.036477 
L 210.693499 138.004982 
L 210.812241 138.034545 
L 210.815366 138.036947 
L 210.940358 138.037738 
L 211.071599 138.0363 
L 212.290271 138.138239 
L 212.421513 138.150023 
L 212.4262 138.145427 
L 213.908918 138.00378 
L 213.99485 137.972483 
L 214.02766 137.998667 
L 214.037035 137.979618 
L 214.152652 137.987246 
L 214.263583 137.978358 
L 214.266707 137.980617 
L 214.397949 137.988811 
L 214.280769 137.970289 
L 214.401074 137.986525 
L 217.899287 138.1396 
L 218.030529 138.185303 
L 218.963282 138.292858 
L 219.094523 138.328027 
L 220.664735 138.371018 
L 220.789727 138.374977 
L 220.795977 138.370133 
L 220.924094 138.369348 
L 220.927219 138.374132 
L 221.053773 138.367016 
L 221.17564 138.383401 
L 223.272381 138.530542 
L 223.281755 138.524039 
L 223.40831 138.538343 
L 223.561425 138.526385 
L 223.56455 138.530603 
L 225.266003 138.638102 
L 225.289439 138.643287 
L 225.317563 138.61782 
L 225.372247 138.608066 
L 226.326873 138.566835 
L 226.326873 138.566835 
" clip-path="url(#pf42ea1a244)" style="fill: none; stroke: #4477aa; stroke-linecap: square"/>
   </g>
   <g id="LineCollection_1">
    <path d="M 38.837311 149.13 
L 38.837311 52.11 
" clip-path="url(#pf42ea1a244)" style="fill: none; stroke-dasharray: 3.7,1.6; stroke-dashoffset: 0; stroke: #000000"/>
    <path d="M 62.273311 149.13 
L 62.273311 52.11 
" clip-path="url(#pf42ea1a244)" style="fill: none; stroke-dasharray: 3.7,1.6; stroke-dashoffset: 0; stroke: #000000"/>
    <path d="M 62.273311 149.13 
L 62.273311 52.11 
" clip-path="url(#pf42ea1a244)" style="fill: none; stroke-dasharray: 3.7,1.6; stroke-dashoffset: 0; stroke: #000000"/>
    <path d="M 85.709311 149.13 
L 85.709311 52.11 
" clip-path="url(#pf42ea1a244)" style="fill: none; stroke-dasharray: 3.7,1.6; stroke-dashoffset: 0; stroke: #000000"/>
   </g>
   <g id="patch_3">
    <path d="M 31.025311 149.13 
L 31.025311 3.6 
" style="fill: none; stroke: #000000; stroke-width: 0.5; stroke-linejoin: miter; stroke-linecap: square"/>
   </g>
   <g id="patch_4">
    <path d="M 226.325311 149.13 
L 226.325311 3.6 
" style="fill: none; stroke: #000000; stroke-width: 0.5; stroke-linejoin: miter; stroke-linecap: square"/>
   </g>
   <g id="patch_5">
    <path d="M 31.025311 149.13 
L 226.325311 149.13 
" style="fill: none; stroke: #000000; stroke-width: 0.5; stroke-linejoin: miter; stroke-linecap: square"/>
   </g>
   <g id="patch_6">
    <path d="M 31.025311 3.6 
L 226.325311 3.6 
" style="fill: none; stroke: #000000; stroke-width: 0.5; stroke-linejoin: miter; stroke-linecap: square"/>
   </g>
  </g>
 </g>
 <defs>
  <clipPath id="pf42ea1a244">
   <rect x="31.025311" y="3.6" width="195.3" height="145.53"/>
  </clipPath>
 </defs>
</svg>
