<?xml version="1.0" encoding="utf-8" standalone="no"?>
<!DOCTYPE svg PUBLIC "-//W3C//DTD SVG 1.1//EN"
  "http://www.w3.org/Graphics/SVG/1.1/DTD/svg11.dtd">
<svg xmlns:xlink="http://www.w3.org/1999/xlink" width="229.925311pt" height="179.048317pt" viewBox="0 0 229.925311 179.048317" xmlns="http://www.w3.org/2000/svg" version="1.1">
 <metadata>
  <rdf:RDF xmlns:dc="http://purl.org/dc/elements/1.1/" xmlns:cc="http://creativecommons.org/ns#" xmlns:rdf="http://www.w3.org/1999/02/22-rdf-syntax-ns#">
   <cc:Work>
    <dc:type rdf:resource="http://purl.org/dc/dcmitype/StillImage"/>
    <dc:date>2025-05-06T14:30:26.526932</dc:date>
    <dc:format>image/svg+xml</dc:format>
    <dc:creator>
     <cc:Agent>
      <dc:title>Matplotlib v3.9.2, https://matplotlib.org/</dc:title>
     </cc:Agent>
    </dc:creator>
   </cc:Work>
  </rdf:RDF>
 </metadata>
 <defs>
  <style type="text/css">*{stroke-linejoin: round; stroke-linecap: butt}</style>
 </defs>
 <g id="figure_1">
  <g id="patch_1">
   <path d="M 0 179.048317 
L 229.925311 179.048317 
L 229.925311 0 
L 0 0 
L 0 179.048317 
z
" style="fill: none"/>
  </g>
  <g id="axes_1">
   <g id="patch_2">
    <path d="M 31.025311 149.13 
L 226.325311 149.13 
L 226.325311 3.6 
L 31.025311 3.6 
L 31.025311 149.13 
z
" style="fill: none"/>
   </g>
   <g id="matplotlib.axis_1">
    <g id="xtick_1">
     <g id="line2d_1">
      <path d="M 38.837311 149.13 
L 38.837311 3.6 
" clip-path="url(#p44df9bab7c)" style="fill: none; stroke-dasharray: 1.85,0.8; stroke-dashoffset: 0; stroke: #000000; stroke-opacity: 0.5; stroke-width: 0.5"/>
     </g>
     <g id="line2d_2">
      <defs>
       <path id="m5c01230a0e" d="M 0 0 
L 0 -3 
" style="stroke: #000000; stroke-width: 0.5"/>
      </defs>
      <g>
       <use xlink:href="#m5c01230a0e" x="38.837311" y="149.13" style="stroke: #000000; stroke-width: 0.5"/>
      </g>
     </g>
     <g id="line2d_3">
      <defs>
       <path id="m1050a63a33" d="M 0 0 
L 0 3 
" style="stroke: #000000; stroke-width: 0.5"/>
      </defs>
      <g>
       <use xlink:href="#m1050a63a33" x="38.837311" y="3.6" style="stroke: #000000; stroke-width: 0.5"/>
      </g>
     </g>
     <g id="text_1">
      <!-- $\mathdefault{0}$ -->
      <g transform="translate(36.346643 159.548498) scale(0.1 -0.1)">
       <defs>
        <path id="CMR17-30" d="M 2688 2025 
C 2688 2416 2682 3080 2413 3591 
C 2176 4039 1798 4198 1466 4198 
C 1158 4198 768 4058 525 3597 
C 269 3118 243 2524 243 2025 
C 243 1661 250 1106 448 619 
C 723 -39 1216 -128 1466 -128 
C 1760 -128 2208 -7 2470 600 
C 2662 1042 2688 1559 2688 2025 
z
M 1466 -26 
C 1056 -26 813 325 723 812 
C 653 1188 653 1738 653 2096 
C 653 2588 653 2997 736 3387 
C 858 3929 1216 4096 1466 4096 
C 1728 4096 2067 3923 2189 3400 
C 2272 3036 2278 2607 2278 2096 
C 2278 1680 2278 1169 2202 792 
C 2067 95 1690 -26 1466 -26 
z
" transform="scale(0.015625)"/>
       </defs>
       <use xlink:href="#CMR17-30" transform="scale(0.996264)"/>
      </g>
     </g>
    </g>
    <g id="xtick_2">
     <g id="line2d_4">
      <path d="M 77.897311 149.13 
L 77.897311 3.6 
" clip-path="url(#p44df9bab7c)" style="fill: none; stroke-dasharray: 1.85,0.8; stroke-dashoffset: 0; stroke: #000000; stroke-opacity: 0.5; stroke-width: 0.5"/>
     </g>
     <g id="line2d_5">
      <g>
       <use xlink:href="#m5c01230a0e" x="77.897311" y="149.13" style="stroke: #000000; stroke-width: 0.5"/>
      </g>
     </g>
     <g id="line2d_6">
      <g>
       <use xlink:href="#m1050a63a33" x="77.897311" y="3.6" style="stroke: #000000; stroke-width: 0.5"/>
      </g>
     </g>
     <g id="text_2">
      <!-- $\mathdefault{2500}$ -->
      <g transform="translate(67.93464 159.548498) scale(0.1 -0.1)">
       <defs>
        <path id="CMR17-32" d="M 2669 989 
L 2554 989 
C 2490 536 2438 459 2413 420 
C 2381 369 1920 369 1830 369 
L 602 369 
C 832 619 1280 1072 1824 1597 
C 2214 1967 2669 2402 2669 3035 
C 2669 3790 2067 4224 1395 4224 
C 691 4224 262 3604 262 3030 
C 262 2780 448 2748 525 2748 
C 589 2748 781 2787 781 3010 
C 781 3207 614 3264 525 3264 
C 486 3264 448 3258 422 3245 
C 544 3790 915 4058 1306 4058 
C 1862 4058 2227 3617 2227 3035 
C 2227 2479 1901 2000 1536 1584 
L 262 146 
L 262 0 
L 2515 0 
L 2669 989 
z
" transform="scale(0.015625)"/>
        <path id="CMR17-35" d="M 730 3692 
C 794 3666 1056 3584 1325 3584 
C 1920 3584 2246 3911 2432 4100 
C 2432 4157 2432 4192 2394 4192 
C 2387 4192 2374 4192 2323 4163 
C 2099 4058 1837 3973 1517 3973 
C 1325 3973 1037 3999 723 4139 
C 653 4171 640 4171 634 4171 
C 602 4171 595 4164 595 4037 
L 595 2203 
C 595 2089 595 2057 659 2057 
C 691 2057 704 2070 736 2114 
C 941 2401 1222 2522 1542 2522 
C 1766 2522 2246 2382 2246 1289 
C 2246 1085 2246 715 2054 421 
C 1894 159 1645 25 1370 25 
C 947 25 518 320 403 814 
C 429 807 480 795 506 795 
C 589 795 749 840 749 1038 
C 749 1210 627 1280 506 1280 
C 358 1280 262 1190 262 1011 
C 262 454 704 -128 1382 -128 
C 2042 -128 2669 440 2669 1264 
C 2669 2030 2170 2624 1549 2624 
C 1222 2624 947 2503 730 2274 
L 730 3692 
z
" transform="scale(0.015625)"/>
       </defs>
       <use xlink:href="#CMR17-32" transform="scale(0.996264)"/>
       <use xlink:href="#CMR17-35" transform="translate(45.690477 0) scale(0.996264)"/>
       <use xlink:href="#CMR17-30" transform="translate(91.380954 0) scale(0.996264)"/>
       <use xlink:href="#CMR17-30" transform="translate(137.071431 0) scale(0.996264)"/>
      </g>
     </g>
    </g>
    <g id="xtick_3">
     <g id="line2d_7">
      <path d="M 116.957311 149.13 
L 116.957311 3.6 
" clip-path="url(#p44df9bab7c)" style="fill: none; stroke-dasharray: 1.85,0.8; stroke-dashoffset: 0; stroke: #000000; stroke-opacity: 0.5; stroke-width: 0.5"/>
     </g>
     <g id="line2d_8">
      <g>
       <use xlink:href="#m5c01230a0e" x="116.957311" y="149.13" style="stroke: #000000; stroke-width: 0.5"/>
      </g>
     </g>
     <g id="line2d_9">
      <g>
       <use xlink:href="#m1050a63a33" x="116.957311" y="3.6" style="stroke: #000000; stroke-width: 0.5"/>
      </g>
     </g>
     <g id="text_3">
      <!-- $\mathdefault{5000}$ -->
      <g transform="translate(106.99464 159.548498) scale(0.1 -0.1)">
       <use xlink:href="#CMR17-35" transform="scale(0.996264)"/>
       <use xlink:href="#CMR17-30" transform="translate(45.690477 0) scale(0.996264)"/>
       <use xlink:href="#CMR17-30" transform="translate(91.380954 0) scale(0.996264)"/>
       <use xlink:href="#CMR17-30" transform="translate(137.071431 0) scale(0.996264)"/>
      </g>
     </g>
    </g>
    <g id="xtick_4">
     <g id="line2d_10">
      <path d="M 156.017311 149.13 
L 156.017311 3.6 
" clip-path="url(#p44df9bab7c)" style="fill: none; stroke-dasharray: 1.85,0.8; stroke-dashoffset: 0; stroke: #000000; stroke-opacity: 0.5; stroke-width: 0.5"/>
     </g>
     <g id="line2d_11">
      <g>
       <use xlink:href="#m5c01230a0e" x="156.017311" y="149.13" style="stroke: #000000; stroke-width: 0.5"/>
      </g>
     </g>
     <g id="line2d_12">
      <g>
       <use xlink:href="#m1050a63a33" x="156.017311" y="3.6" style="stroke: #000000; stroke-width: 0.5"/>
      </g>
     </g>
     <g id="text_4">
      <!-- $\mathdefault{7500}$ -->
      <g transform="translate(146.05464 159.548498) scale(0.1 -0.1)">
       <defs>
        <path id="CMR17-37" d="M 2886 3941 
L 2886 4081 
L 1382 4081 
C 634 4081 621 4165 595 4288 
L 480 4288 
L 294 3094 
L 410 3094 
C 429 3215 474 3540 550 3661 
C 589 3712 1062 3712 1171 3712 
L 2579 3712 
L 1869 2661 
C 1395 1954 1069 999 1069 165 
C 1069 89 1069 -128 1299 -128 
C 1530 -128 1530 89 1530 171 
L 1530 465 
C 1530 1508 1709 2196 2003 2636 
L 2886 3941 
z
" transform="scale(0.015625)"/>
       </defs>
       <use xlink:href="#CMR17-37" transform="scale(0.996264)"/>
       <use xlink:href="#CMR17-35" transform="translate(45.690477 0) scale(0.996264)"/>
       <use xlink:href="#CMR17-30" transform="translate(91.380954 0) scale(0.996264)"/>
       <use xlink:href="#CMR17-30" transform="translate(137.071431 0) scale(0.996264)"/>
      </g>
     </g>
    </g>
    <g id="xtick_5">
     <g id="line2d_13">
      <path d="M 195.077311 149.13 
L 195.077311 3.6 
" clip-path="url(#p44df9bab7c)" style="fill: none; stroke-dasharray: 1.85,0.8; stroke-dashoffset: 0; stroke: #000000; stroke-opacity: 0.5; stroke-width: 0.5"/>
     </g>
     <g id="line2d_14">
      <g>
       <use xlink:href="#m5c01230a0e" x="195.077311" y="149.13" style="stroke: #000000; stroke-width: 0.5"/>
      </g>
     </g>
     <g id="line2d_15">
      <g>
       <use xlink:href="#m1050a63a33" x="195.077311" y="3.6" style="stroke: #000000; stroke-width: 0.5"/>
      </g>
     </g>
     <g id="text_5">
      <!-- $\mathdefault{10000}$ -->
      <g transform="translate(182.623972 159.548498) scale(0.1 -0.1)">
       <defs>
        <path id="CMR17-31" d="M 1702 4058 
C 1702 4192 1696 4192 1606 4192 
C 1357 3916 979 3827 621 3827 
C 602 3827 570 3827 563 3808 
C 557 3795 557 3782 557 3648 
C 755 3648 1088 3686 1344 3839 
L 1344 461 
C 1344 236 1331 160 781 160 
L 589 160 
L 589 0 
C 896 0 1216 0 1523 0 
C 1830 0 2150 0 2458 0 
L 2458 160 
L 2266 160 
C 1715 160 1702 230 1702 458 
L 1702 4058 
z
" transform="scale(0.015625)"/>
       </defs>
       <use xlink:href="#CMR17-31" transform="scale(0.996264)"/>
       <use xlink:href="#CMR17-30" transform="translate(45.690477 0) scale(0.996264)"/>
       <use xlink:href="#CMR17-30" transform="translate(91.380954 0) scale(0.996264)"/>
       <use xlink:href="#CMR17-30" transform="translate(137.071431 0) scale(0.996264)"/>
       <use xlink:href="#CMR17-30" transform="translate(182.761908 0) scale(0.996264)"/>
      </g>
     </g>
    </g>
    <g id="xtick_6">
     <g id="line2d_16">
      <defs>
       <path id="m1e783fa46e" d="M 0 0 
L 0 -1.5 
" style="stroke: #000000; stroke-width: 0.5"/>
      </defs>
      <g>
       <use xlink:href="#m1e783fa46e" x="31.025311" y="149.13" style="stroke: #000000; stroke-width: 0.5"/>
      </g>
     </g>
     <g id="line2d_17">
      <defs>
       <path id="m94963f5f08" d="M 0 0 
L 0 1.5 
" style="stroke: #000000; stroke-width: 0.5"/>
      </defs>
      <g>
       <use xlink:href="#m94963f5f08" x="31.025311" y="3.6" style="stroke: #000000; stroke-width: 0.5"/>
      </g>
     </g>
    </g>
    <g id="xtick_7">
     <g id="line2d_18">
      <g>
       <use xlink:href="#m1e783fa46e" x="46.649311" y="149.13" style="stroke: #000000; stroke-width: 0.5"/>
      </g>
     </g>
     <g id="line2d_19">
      <g>
       <use xlink:href="#m94963f5f08" x="46.649311" y="3.6" style="stroke: #000000; stroke-width: 0.5"/>
      </g>
     </g>
    </g>
    <g id="xtick_8">
     <g id="line2d_20">
      <g>
       <use xlink:href="#m1e783fa46e" x="54.461311" y="149.13" style="stroke: #000000; stroke-width: 0.5"/>
      </g>
     </g>
     <g id="line2d_21">
      <g>
       <use xlink:href="#m94963f5f08" x="54.461311" y="3.6" style="stroke: #000000; stroke-width: 0.5"/>
      </g>
     </g>
    </g>
    <g id="xtick_9">
     <g id="line2d_22">
      <g>
       <use xlink:href="#m1e783fa46e" x="62.273311" y="149.13" style="stroke: #000000; stroke-width: 0.5"/>
      </g>
     </g>
     <g id="line2d_23">
      <g>
       <use xlink:href="#m94963f5f08" x="62.273311" y="3.6" style="stroke: #000000; stroke-width: 0.5"/>
      </g>
     </g>
    </g>
    <g id="xtick_10">
     <g id="line2d_24">
      <g>
       <use xlink:href="#m1e783fa46e" x="70.085311" y="149.13" style="stroke: #000000; stroke-width: 0.5"/>
      </g>
     </g>
     <g id="line2d_25">
      <g>
       <use xlink:href="#m94963f5f08" x="70.085311" y="3.6" style="stroke: #000000; stroke-width: 0.5"/>
      </g>
     </g>
    </g>
    <g id="xtick_11">
     <g id="line2d_26">
      <g>
       <use xlink:href="#m1e783fa46e" x="85.709311" y="149.13" style="stroke: #000000; stroke-width: 0.5"/>
      </g>
     </g>
     <g id="line2d_27">
      <g>
       <use xlink:href="#m94963f5f08" x="85.709311" y="3.6" style="stroke: #000000; stroke-width: 0.5"/>
      </g>
     </g>
    </g>
    <g id="xtick_12">
     <g id="line2d_28">
      <g>
       <use xlink:href="#m1e783fa46e" x="93.521311" y="149.13" style="stroke: #000000; stroke-width: 0.5"/>
      </g>
     </g>
     <g id="line2d_29">
      <g>
       <use xlink:href="#m94963f5f08" x="93.521311" y="3.6" style="stroke: #000000; stroke-width: 0.5"/>
      </g>
     </g>
    </g>
    <g id="xtick_13">
     <g id="line2d_30">
      <g>
       <use xlink:href="#m1e783fa46e" x="101.333311" y="149.13" style="stroke: #000000; stroke-width: 0.5"/>
      </g>
     </g>
     <g id="line2d_31">
      <g>
       <use xlink:href="#m94963f5f08" x="101.333311" y="3.6" style="stroke: #000000; stroke-width: 0.5"/>
      </g>
     </g>
    </g>
    <g id="xtick_14">
     <g id="line2d_32">
      <g>
       <use xlink:href="#m1e783fa46e" x="109.145311" y="149.13" style="stroke: #000000; stroke-width: 0.5"/>
      </g>
     </g>
     <g id="line2d_33">
      <g>
       <use xlink:href="#m94963f5f08" x="109.145311" y="3.6" style="stroke: #000000; stroke-width: 0.5"/>
      </g>
     </g>
    </g>
    <g id="xtick_15">
     <g id="line2d_34">
      <g>
       <use xlink:href="#m1e783fa46e" x="124.769311" y="149.13" style="stroke: #000000; stroke-width: 0.5"/>
      </g>
     </g>
     <g id="line2d_35">
      <g>
       <use xlink:href="#m94963f5f08" x="124.769311" y="3.6" style="stroke: #000000; stroke-width: 0.5"/>
      </g>
     </g>
    </g>
    <g id="xtick_16">
     <g id="line2d_36">
      <g>
       <use xlink:href="#m1e783fa46e" x="132.581311" y="149.13" style="stroke: #000000; stroke-width: 0.5"/>
      </g>
     </g>
     <g id="line2d_37">
      <g>
       <use xlink:href="#m94963f5f08" x="132.581311" y="3.6" style="stroke: #000000; stroke-width: 0.5"/>
      </g>
     </g>
    </g>
    <g id="xtick_17">
     <g id="line2d_38">
      <g>
       <use xlink:href="#m1e783fa46e" x="140.393311" y="149.13" style="stroke: #000000; stroke-width: 0.5"/>
      </g>
     </g>
     <g id="line2d_39">
      <g>
       <use xlink:href="#m94963f5f08" x="140.393311" y="3.6" style="stroke: #000000; stroke-width: 0.5"/>
      </g>
     </g>
    </g>
    <g id="xtick_18">
     <g id="line2d_40">
      <g>
       <use xlink:href="#m1e783fa46e" x="148.205311" y="149.13" style="stroke: #000000; stroke-width: 0.5"/>
      </g>
     </g>
     <g id="line2d_41">
      <g>
       <use xlink:href="#m94963f5f08" x="148.205311" y="3.6" style="stroke: #000000; stroke-width: 0.5"/>
      </g>
     </g>
    </g>
    <g id="xtick_19">
     <g id="line2d_42">
      <g>
       <use xlink:href="#m1e783fa46e" x="163.829311" y="149.13" style="stroke: #000000; stroke-width: 0.5"/>
      </g>
     </g>
     <g id="line2d_43">
      <g>
       <use xlink:href="#m94963f5f08" x="163.829311" y="3.6" style="stroke: #000000; stroke-width: 0.5"/>
      </g>
     </g>
    </g>
    <g id="xtick_20">
     <g id="line2d_44">
      <g>
       <use xlink:href="#m1e783fa46e" x="171.641311" y="149.13" style="stroke: #000000; stroke-width: 0.5"/>
      </g>
     </g>
     <g id="line2d_45">
      <g>
       <use xlink:href="#m94963f5f08" x="171.641311" y="3.6" style="stroke: #000000; stroke-width: 0.5"/>
      </g>
     </g>
    </g>
    <g id="xtick_21">
     <g id="line2d_46">
      <g>
       <use xlink:href="#m1e783fa46e" x="179.453311" y="149.13" style="stroke: #000000; stroke-width: 0.5"/>
      </g>
     </g>
     <g id="line2d_47">
      <g>
       <use xlink:href="#m94963f5f08" x="179.453311" y="3.6" style="stroke: #000000; stroke-width: 0.5"/>
      </g>
     </g>
    </g>
    <g id="xtick_22">
     <g id="line2d_48">
      <g>
       <use xlink:href="#m1e783fa46e" x="187.265311" y="149.13" style="stroke: #000000; stroke-width: 0.5"/>
      </g>
     </g>
     <g id="line2d_49">
      <g>
       <use xlink:href="#m94963f5f08" x="187.265311" y="3.6" style="stroke: #000000; stroke-width: 0.5"/>
      </g>
     </g>
    </g>
    <g id="xtick_23">
     <g id="line2d_50">
      <g>
       <use xlink:href="#m1e783fa46e" x="202.889311" y="149.13" style="stroke: #000000; stroke-width: 0.5"/>
      </g>
     </g>
     <g id="line2d_51">
      <g>
       <use xlink:href="#m94963f5f08" x="202.889311" y="3.6" style="stroke: #000000; stroke-width: 0.5"/>
      </g>
     </g>
    </g>
    <g id="xtick_24">
     <g id="line2d_52">
      <g>
       <use xlink:href="#m1e783fa46e" x="210.701311" y="149.13" style="stroke: #000000; stroke-width: 0.5"/>
      </g>
     </g>
     <g id="line2d_53">
      <g>
       <use xlink:href="#m94963f5f08" x="210.701311" y="3.6" style="stroke: #000000; stroke-width: 0.5"/>
      </g>
     </g>
    </g>
    <g id="xtick_25">
     <g id="line2d_54">
      <g>
       <use xlink:href="#m1e783fa46e" x="218.513311" y="149.13" style="stroke: #000000; stroke-width: 0.5"/>
      </g>
     </g>
     <g id="line2d_55">
      <g>
       <use xlink:href="#m94963f5f08" x="218.513311" y="3.6" style="stroke: #000000; stroke-width: 0.5"/>
      </g>
     </g>
    </g>
    <g id="xtick_26">
     <g id="line2d_56">
      <g>
       <use xlink:href="#m1e783fa46e" x="226.325311" y="149.13" style="stroke: #000000; stroke-width: 0.5"/>
      </g>
     </g>
     <g id="line2d_57">
      <g>
       <use xlink:href="#m94963f5f08" x="226.325311" y="3.6" style="stroke: #000000; stroke-width: 0.5"/>
      </g>
     </g>
    </g>
    <g id="text_6">
     <!-- $t$ [ns] -->
     <g transform="translate(117.716391 172.957657) scale(0.1 -0.1)">
      <defs>
       <path id="CMMI12-74" d="M 1286 2566 
L 1875 2566 
C 1997 2566 2061 2566 2061 2681 
C 2061 2752 2022 2752 1894 2752 
L 1331 2752 
L 1568 3692 
C 1594 3781 1594 3794 1594 3840 
C 1594 3943 1510 4000 1427 4000 
C 1376 4000 1229 3981 1178 3775 
L 928 2752 
L 326 2752 
C 198 2752 141 2752 141 2630 
C 141 2566 186 2566 307 2566 
L 877 2566 
L 454 881 
C 403 658 384 594 384 511 
C 384 211 595 -64 954 -64 
C 1600 -64 1946 868 1946 912 
C 1946 951 1920 970 1882 970 
C 1869 970 1843 970 1830 944 
C 1824 938 1818 931 1773 829 
C 1638 511 1344 64 973 64 
C 781 64 768 224 768 364 
C 768 370 768 492 787 568 
L 1286 2566 
z
" transform="scale(0.015625)"/>
       <path id="CMR17-5b" d="M 1504 -1600 
L 1504 -1377 
L 902 -1377 
L 902 4544 
L 1504 4544 
L 1504 4767 
L 678 4767 
L 678 -1600 
L 1504 -1600 
z
" transform="scale(0.015625)"/>
       <path id="CMR17-6e" d="M 2656 1933 
C 2656 2259 2592 2790 1837 2790 
C 1331 2790 1069 2400 973 2144 
L 966 2144 
L 966 2790 
L 211 2720 
L 211 2554 
C 589 2554 646 2515 646 2208 
L 646 428 
C 646 184 621 153 211 153 
L 211 -13 
C 365 0 646 0 813 0 
C 979 0 1267 0 1421 -13 
L 1421 153 
C 1011 153 986 178 986 428 
L 986 1658 
C 986 2247 1344 2688 1792 2688 
C 2266 2688 2317 2266 2317 1958 
L 2317 428 
C 2317 184 2291 153 1882 153 
L 1882 -13 
C 2035 0 2317 0 2483 0 
C 2650 0 2938 0 3091 -13 
L 3091 153 
C 2682 153 2656 178 2656 428 
L 2656 1933 
z
" transform="scale(0.015625)"/>
       <path id="CMR17-73" d="M 1978 2697 
C 1978 2813 1971 2819 1933 2819 
C 1907 2819 1901 2813 1824 2717 
C 1805 2691 1747 2626 1728 2601 
C 1523 2819 1235 2819 1126 2819 
C 416 2819 160 2447 160 2076 
C 160 1498 813 1365 998 1325 
C 1402 1243 1542 1217 1677 1101 
C 1760 1025 1901 884 1901 654 
C 1901 384 1747 38 1158 38 
C 602 38 403 460 288 1021 
C 269 1110 269 1117 218 1117 
C 166 1117 160 1110 160 983 
L 160 63 
C 160 -51 166 -58 205 -58 
C 237 -58 243 -51 275 0 
C 314 57 410 211 448 276 
C 576 103 800 -64 1158 -64 
C 1792 -64 2131 283 2131 784 
C 2131 1112 1958 1285 1875 1362 
C 1683 1561 1459 1606 1190 1657 
C 838 1735 390 1825 390 2217 
C 390 2383 480 2737 1126 2737 
C 1811 2737 1850 2094 1862 1888 
C 1869 1856 1901 1849 1920 1849 
C 1978 1849 1978 1869 1978 1978 
L 1978 2697 
z
" transform="scale(0.015625)"/>
       <path id="CMR17-5d" d="M 915 4767 
L 90 4767 
L 90 4544 
L 691 4544 
L 691 -1377 
L 90 -1377 
L 90 -1600 
L 915 -1600 
L 915 4767 
z
" transform="scale(0.015625)"/>
      </defs>
      <use xlink:href="#CMMI12-74" transform="scale(0.996264)"/>
      <use xlink:href="#CMR17-5b" transform="translate(65.302297 0) scale(0.996264)"/>
      <use xlink:href="#CMR17-6e" transform="translate(90.173355 0) scale(0.996264)"/>
      <use xlink:href="#CMR17-73" transform="translate(141.068725 0) scale(0.996264)"/>
      <use xlink:href="#CMR17-5d" transform="translate(176.870062 0) scale(0.996264)"/>
     </g>
    </g>
   </g>
   <g id="matplotlib.axis_2">
    <g id="ytick_1">
     <g id="line2d_58">
      <path d="M 31.025311 149.13 
L 226.325311 149.13 
" clip-path="url(#p44df9bab7c)" style="fill: none; stroke-dasharray: 1.85,0.8; stroke-dashoffset: 0; stroke: #000000; stroke-opacity: 0.5; stroke-width: 0.5"/>
     </g>
     <g id="line2d_59">
      <defs>
       <path id="m7a1268cbb7" d="M 0 0 
L 3 0 
" style="stroke: #000000; stroke-width: 0.5"/>
      </defs>
      <g>
       <use xlink:href="#m7a1268cbb7" x="31.025311" y="149.13" style="stroke: #000000; stroke-width: 0.5"/>
      </g>
     </g>
     <g id="line2d_60">
      <defs>
       <path id="md1d2d01a10" d="M 0 0 
L -3 0 
" style="stroke: #000000; stroke-width: 0.5"/>
      </defs>
      <g>
       <use xlink:href="#md1d2d01a10" x="226.325311" y="149.13" style="stroke: #000000; stroke-width: 0.5"/>
      </g>
     </g>
     <g id="text_7">
      <!-- $\mathdefault{0}$ -->
      <g transform="translate(22.543975 152.589249) scale(0.1 -0.1)">
       <use xlink:href="#CMR17-30" transform="scale(0.996264)"/>
      </g>
     </g>
    </g>
    <g id="ytick_2">
     <g id="line2d_61">
      <path d="M 31.025311 116.79 
L 226.325311 116.79 
" clip-path="url(#p44df9bab7c)" style="fill: none; stroke-dasharray: 1.85,0.8; stroke-dashoffset: 0; stroke: #000000; stroke-opacity: 0.5; stroke-width: 0.5"/>
     </g>
     <g id="line2d_62">
      <g>
       <use xlink:href="#m7a1268cbb7" x="31.025311" y="116.79" style="stroke: #000000; stroke-width: 0.5"/>
      </g>
     </g>
     <g id="line2d_63">
      <g>
       <use xlink:href="#md1d2d01a10" x="226.325311" y="116.79" style="stroke: #000000; stroke-width: 0.5"/>
      </g>
     </g>
     <g id="text_8">
      <!-- $\mathdefault{20}$ -->
      <g transform="translate(17.56264 120.249249) scale(0.1 -0.1)">
       <use xlink:href="#CMR17-32" transform="scale(0.996264)"/>
       <use xlink:href="#CMR17-30" transform="translate(45.690477 0) scale(0.996264)"/>
      </g>
     </g>
    </g>
    <g id="ytick_3">
     <g id="line2d_64">
      <path d="M 31.025311 84.45 
L 226.325311 84.45 
" clip-path="url(#p44df9bab7c)" style="fill: none; stroke-dasharray: 1.85,0.8; stroke-dashoffset: 0; stroke: #000000; stroke-opacity: 0.5; stroke-width: 0.5"/>
     </g>
     <g id="line2d_65">
      <g>
       <use xlink:href="#m7a1268cbb7" x="31.025311" y="84.45" style="stroke: #000000; stroke-width: 0.5"/>
      </g>
     </g>
     <g id="line2d_66">
      <g>
       <use xlink:href="#md1d2d01a10" x="226.325311" y="84.45" style="stroke: #000000; stroke-width: 0.5"/>
      </g>
     </g>
     <g id="text_9">
      <!-- $\mathdefault{40}$ -->
      <g transform="translate(17.56264 87.909249) scale(0.1 -0.1)">
       <defs>
        <path id="CMR17-34" d="M 2150 4122 
C 2150 4256 2144 4256 2029 4256 
L 128 1254 
L 128 1088 
L 1779 1088 
L 1779 457 
C 1779 224 1766 160 1318 160 
L 1197 160 
L 1197 0 
C 1402 0 1747 0 1965 0 
C 2182 0 2528 0 2733 0 
L 2733 160 
L 2611 160 
C 2163 160 2150 224 2150 457 
L 2150 1088 
L 2803 1088 
L 2803 1254 
L 2150 1254 
L 2150 4122 
z
M 1798 3703 
L 1798 1254 
L 256 1254 
L 1798 3703 
z
" transform="scale(0.015625)"/>
       </defs>
       <use xlink:href="#CMR17-34" transform="scale(0.996264)"/>
       <use xlink:href="#CMR17-30" transform="translate(45.690477 0) scale(0.996264)"/>
      </g>
     </g>
    </g>
    <g id="ytick_4">
     <g id="line2d_67">
      <path d="M 31.025311 52.11 
L 226.325311 52.11 
" clip-path="url(#p44df9bab7c)" style="fill: none; stroke-dasharray: 1.85,0.8; stroke-dashoffset: 0; stroke: #000000; stroke-opacity: 0.5; stroke-width: 0.5"/>
     </g>
     <g id="line2d_68">
      <g>
       <use xlink:href="#m7a1268cbb7" x="31.025311" y="52.11" style="stroke: #000000; stroke-width: 0.5"/>
      </g>
     </g>
     <g id="line2d_69">
      <g>
       <use xlink:href="#md1d2d01a10" x="226.325311" y="52.11" style="stroke: #000000; stroke-width: 0.5"/>
      </g>
     </g>
     <g id="text_10">
      <!-- $\mathdefault{60}$ -->
      <g transform="translate(17.56264 55.569249) scale(0.1 -0.1)">
       <defs>
        <path id="CMR17-36" d="M 678 2176 
C 678 3690 1395 4032 1811 4032 
C 1946 4032 2272 4009 2400 3776 
C 2298 3776 2106 3776 2106 3553 
C 2106 3381 2246 3323 2336 3323 
C 2394 3323 2566 3348 2566 3560 
C 2566 3954 2246 4179 1805 4179 
C 1043 4179 243 3390 243 1984 
C 243 253 966 -128 1478 -128 
C 2099 -128 2688 427 2688 1283 
C 2688 2081 2170 2662 1517 2662 
C 1126 2662 838 2407 678 1960 
L 678 2176 
z
M 1478 25 
C 691 25 691 1200 691 1436 
C 691 1896 909 2560 1504 2560 
C 1613 2560 1926 2560 2138 2120 
C 2253 1870 2253 1609 2253 1289 
C 2253 944 2253 690 2118 434 
C 1978 171 1773 25 1478 25 
z
" transform="scale(0.015625)"/>
       </defs>
       <use xlink:href="#CMR17-36" transform="scale(0.996264)"/>
       <use xlink:href="#CMR17-30" transform="translate(45.690477 0) scale(0.996264)"/>
      </g>
     </g>
    </g>
    <g id="ytick_5">
     <g id="line2d_70">
      <path d="M 31.025311 19.77 
L 226.325311 19.77 
" clip-path="url(#p44df9bab7c)" style="fill: none; stroke-dasharray: 1.85,0.8; stroke-dashoffset: 0; stroke: #000000; stroke-opacity: 0.5; stroke-width: 0.5"/>
     </g>
     <g id="line2d_71">
      <g>
       <use xlink:href="#m7a1268cbb7" x="31.025311" y="19.77" style="stroke: #000000; stroke-width: 0.5"/>
      </g>
     </g>
     <g id="line2d_72">
      <g>
       <use xlink:href="#md1d2d01a10" x="226.325311" y="19.77" style="stroke: #000000; stroke-width: 0.5"/>
      </g>
     </g>
     <g id="text_11">
      <!-- $\mathdefault{80}$ -->
      <g transform="translate(17.56264 23.229249) scale(0.1 -0.1)">
       <defs>
        <path id="CMR17-38" d="M 1741 2264 
C 2144 2467 2554 2773 2554 3263 
C 2554 3841 1990 4179 1472 4179 
C 890 4179 378 3759 378 3180 
C 378 3021 416 2747 666 2505 
C 730 2442 998 2251 1171 2130 
C 883 1983 211 1634 211 934 
C 211 279 838 -128 1459 -128 
C 2144 -128 2720 362 2720 1010 
C 2720 1590 2330 1857 2074 2029 
L 1741 2264 
z
M 902 2822 
C 851 2854 595 3051 595 3351 
C 595 3739 998 4032 1459 4032 
C 1965 4032 2336 3676 2336 3262 
C 2336 2669 1670 2331 1638 2331 
C 1632 2331 1626 2331 1574 2370 
L 902 2822 
z
M 2080 1519 
C 2176 1449 2483 1240 2483 851 
C 2483 381 2010 25 1472 25 
C 890 25 448 438 448 940 
C 448 1443 838 1862 1280 2060 
L 2080 1519 
z
" transform="scale(0.015625)"/>
       </defs>
       <use xlink:href="#CMR17-38" transform="scale(0.996264)"/>
       <use xlink:href="#CMR17-30" transform="translate(45.690477 0) scale(0.996264)"/>
      </g>
     </g>
    </g>
    <g id="ytick_6">
     <g id="line2d_73">
      <defs>
       <path id="ma7bc624aee" d="M 0 0 
L 1.5 0 
" style="stroke: #000000; stroke-width: 0.5"/>
      </defs>
      <g>
       <use xlink:href="#ma7bc624aee" x="31.025311" y="141.045" style="stroke: #000000; stroke-width: 0.5"/>
      </g>
     </g>
     <g id="line2d_74">
      <defs>
       <path id="m06629983ee" d="M 0 0 
L -1.5 0 
" style="stroke: #000000; stroke-width: 0.5"/>
      </defs>
      <g>
       <use xlink:href="#m06629983ee" x="226.325311" y="141.045" style="stroke: #000000; stroke-width: 0.5"/>
      </g>
     </g>
    </g>
    <g id="ytick_7">
     <g id="line2d_75">
      <g>
       <use xlink:href="#ma7bc624aee" x="31.025311" y="132.96" style="stroke: #000000; stroke-width: 0.5"/>
      </g>
     </g>
     <g id="line2d_76">
      <g>
       <use xlink:href="#m06629983ee" x="226.325311" y="132.96" style="stroke: #000000; stroke-width: 0.5"/>
      </g>
     </g>
    </g>
    <g id="ytick_8">
     <g id="line2d_77">
      <g>
       <use xlink:href="#ma7bc624aee" x="31.025311" y="124.875" style="stroke: #000000; stroke-width: 0.5"/>
      </g>
     </g>
     <g id="line2d_78">
      <g>
       <use xlink:href="#m06629983ee" x="226.325311" y="124.875" style="stroke: #000000; stroke-width: 0.5"/>
      </g>
     </g>
    </g>
    <g id="ytick_9">
     <g id="line2d_79">
      <g>
       <use xlink:href="#ma7bc624aee" x="31.025311" y="108.705" style="stroke: #000000; stroke-width: 0.5"/>
      </g>
     </g>
     <g id="line2d_80">
      <g>
       <use xlink:href="#m06629983ee" x="226.325311" y="108.705" style="stroke: #000000; stroke-width: 0.5"/>
      </g>
     </g>
    </g>
    <g id="ytick_10">
     <g id="line2d_81">
      <g>
       <use xlink:href="#ma7bc624aee" x="31.025311" y="100.62" style="stroke: #000000; stroke-width: 0.5"/>
      </g>
     </g>
     <g id="line2d_82">
      <g>
       <use xlink:href="#m06629983ee" x="226.325311" y="100.62" style="stroke: #000000; stroke-width: 0.5"/>
      </g>
     </g>
    </g>
    <g id="ytick_11">
     <g id="line2d_83">
      <g>
       <use xlink:href="#ma7bc624aee" x="31.025311" y="92.535" style="stroke: #000000; stroke-width: 0.5"/>
      </g>
     </g>
     <g id="line2d_84">
      <g>
       <use xlink:href="#m06629983ee" x="226.325311" y="92.535" style="stroke: #000000; stroke-width: 0.5"/>
      </g>
     </g>
    </g>
    <g id="ytick_12">
     <g id="line2d_85">
      <g>
       <use xlink:href="#ma7bc624aee" x="31.025311" y="76.365" style="stroke: #000000; stroke-width: 0.5"/>
      </g>
     </g>
     <g id="line2d_86">
      <g>
       <use xlink:href="#m06629983ee" x="226.325311" y="76.365" style="stroke: #000000; stroke-width: 0.5"/>
      </g>
     </g>
    </g>
    <g id="ytick_13">
     <g id="line2d_87">
      <g>
       <use xlink:href="#ma7bc624aee" x="31.025311" y="68.28" style="stroke: #000000; stroke-width: 0.5"/>
      </g>
     </g>
     <g id="line2d_88">
      <g>
       <use xlink:href="#m06629983ee" x="226.325311" y="68.28" style="stroke: #000000; stroke-width: 0.5"/>
      </g>
     </g>
    </g>
    <g id="ytick_14">
     <g id="line2d_89">
      <g>
       <use xlink:href="#ma7bc624aee" x="31.025311" y="60.195" style="stroke: #000000; stroke-width: 0.5"/>
      </g>
     </g>
     <g id="line2d_90">
      <g>
       <use xlink:href="#m06629983ee" x="226.325311" y="60.195" style="stroke: #000000; stroke-width: 0.5"/>
      </g>
     </g>
    </g>
    <g id="ytick_15">
     <g id="line2d_91">
      <g>
       <use xlink:href="#ma7bc624aee" x="31.025311" y="44.025" style="stroke: #000000; stroke-width: 0.5"/>
      </g>
     </g>
     <g id="line2d_92">
      <g>
       <use xlink:href="#m06629983ee" x="226.325311" y="44.025" style="stroke: #000000; stroke-width: 0.5"/>
      </g>
     </g>
    </g>
    <g id="ytick_16">
     <g id="line2d_93">
      <g>
       <use xlink:href="#ma7bc624aee" x="31.025311" y="35.94" style="stroke: #000000; stroke-width: 0.5"/>
      </g>
     </g>
     <g id="line2d_94">
      <g>
       <use xlink:href="#m06629983ee" x="226.325311" y="35.94" style="stroke: #000000; stroke-width: 0.5"/>
      </g>
     </g>
    </g>
    <g id="ytick_17">
     <g id="line2d_95">
      <g>
       <use xlink:href="#ma7bc624aee" x="31.025311" y="27.855" style="stroke: #000000; stroke-width: 0.5"/>
      </g>
     </g>
     <g id="line2d_96">
      <g>
       <use xlink:href="#m06629983ee" x="226.325311" y="27.855" style="stroke: #000000; stroke-width: 0.5"/>
      </g>
     </g>
    </g>
    <g id="ytick_18">
     <g id="line2d_97">
      <g>
       <use xlink:href="#ma7bc624aee" x="31.025311" y="11.685" style="stroke: #000000; stroke-width: 0.5"/>
      </g>
     </g>
     <g id="line2d_98">
      <g>
       <use xlink:href="#m06629983ee" x="226.325311" y="11.685" style="stroke: #000000; stroke-width: 0.5"/>
      </g>
     </g>
    </g>
    <g id="ytick_19">
     <g id="line2d_99">
      <g>
       <use xlink:href="#ma7bc624aee" x="31.025311" y="3.6" style="stroke: #000000; stroke-width: 0.5"/>
      </g>
     </g>
     <g id="line2d_100">
      <g>
       <use xlink:href="#m06629983ee" x="226.325311" y="3.6" style="stroke: #000000; stroke-width: 0.5"/>
      </g>
     </g>
    </g>
    <g id="text_12">
     <!-- $U_1$ [mV] -->
     <g transform="translate(11.07198 94.315774) rotate(-90) scale(0.1 -0.1)">
      <defs>
       <path id="CMMI12-55" d="M 3238 1474 
C 3014 581 2272 57 1670 57 
C 1210 57 896 363 896 891 
C 896 916 896 1107 966 1387 
L 1594 3887 
C 1651 4103 1664 4167 2118 4167 
C 2234 4167 2298 4167 2298 4282 
C 2298 4352 2240 4352 2202 4352 
C 2086 4352 1952 4352 1830 4352 
L 1075 4352 
C 954 4352 819 4352 698 4352 
C 653 4352 576 4352 576 4231 
C 576 4167 621 4167 742 4167 
C 1126 4167 1126 4116 1126 4046 
C 1126 4008 1082 3824 1050 3715 
L 493 1488 
C 474 1418 435 1246 435 1075 
C 435 374 941 -128 1638 -128 
C 2285 -128 3002 384 3328 1197 
C 3373 1305 3430 1530 3469 1702 
C 3533 1933 3667 2496 3712 2662 
L 3955 3623 
C 4038 3956 4090 4167 4653 4167 
C 4704 4173 4730 4224 4730 4282 
C 4730 4352 4672 4352 4646 4352 
C 4557 4352 4442 4352 4352 4352 
L 4051 4352 
C 3654 4352 3450 4352 3443 4352 
C 3405 4352 3328 4352 3328 4231 
C 3328 4167 3379 4167 3424 4167 
C 3808 4167 3834 4020 3834 3905 
C 3834 3848 3834 3828 3808 3739 
L 3238 1474 
z
" transform="scale(0.015625)"/>
       <path id="CMR17-6d" d="M 4326 1933 
C 4326 2252 4269 2790 3507 2790 
C 3072 2790 2771 2496 2656 2151 
L 2650 2151 
C 2573 2676 2195 2790 1837 2790 
C 1331 2790 1069 2400 973 2144 
L 966 2144 
L 966 2790 
L 211 2720 
L 211 2554 
C 589 2554 646 2515 646 2208 
L 646 428 
C 646 184 621 153 211 153 
L 211 -13 
C 365 0 646 0 813 0 
C 979 0 1267 0 1421 -13 
L 1421 153 
C 1011 153 986 178 986 428 
L 986 1658 
C 986 2247 1344 2688 1792 2688 
C 2266 2688 2317 2266 2317 1958 
L 2317 428 
C 2317 184 2291 153 1882 153 
L 1882 -13 
C 2035 0 2317 0 2483 0 
C 2650 0 2938 0 3091 -13 
L 3091 153 
C 2682 153 2656 178 2656 428 
L 2656 1658 
C 2656 2247 3014 2688 3462 2688 
C 3936 2688 3987 2266 3987 1958 
L 3987 428 
C 3987 184 3962 153 3552 153 
L 3552 -13 
C 3706 0 3987 0 4154 0 
C 4320 0 4608 0 4762 -13 
L 4762 153 
C 4352 153 4326 178 4326 428 
L 4326 1933 
z
" transform="scale(0.015625)"/>
       <path id="CMR17-56" d="M 3776 3745 
C 3834 3886 3936 4160 4365 4160 
L 4365 4332 
C 4218 4319 4051 4319 3891 4319 
C 3738 4319 3475 4319 3328 4332 
L 3328 4160 
C 3648 4160 3661 3936 3661 3898 
C 3661 3827 3642 3783 3622 3732 
L 2362 446 
L 1043 3886 
C 1024 3931 1011 3963 1011 3994 
C 1011 4160 1267 4160 1402 4160 
L 1402 4319 
C 1197 4319 896 4319 685 4319 
C 518 4319 218 4319 64 4332 
L 64 4160 
C 435 4160 506 4135 582 3931 
L 2106 -26 
C 2138 -115 2144 -128 2214 -128 
C 2285 -128 2291 -115 2323 -26 
L 3776 3745 
z
" transform="scale(0.015625)"/>
      </defs>
      <use xlink:href="#CMMI12-55" transform="scale(0.996264)"/>
      <use xlink:href="#CMR17-31" transform="translate(66.252119 -14.943915) scale(0.697382)"/>
      <use xlink:href="#CMR17-5b" transform="translate(128.809399 0) scale(0.996264)"/>
      <use xlink:href="#CMR17-6d" transform="translate(153.680458 0) scale(0.996264)"/>
      <use xlink:href="#CMR17-56" transform="translate(230.600048 0) scale(0.996264)"/>
      <use xlink:href="#CMR17-5d" transform="translate(299.672478 0) scale(0.996264)"/>
     </g>
    </g>
   </g>
   <g id="line2d_101">
    <path d="M 38.837311 149.129395 
L 39.04511 148.929815 
L 39.307593 148.212543 
L 39.309155 148.214112 
L 39.340403 148.09325 
L 39.862245 146.434384 
L 39.863807 146.436045 
L 42.569884 140.087132 
L 43.871363 137.709162 
L 44.058851 137.333677 
L 44.061976 137.336991 
L 44.108848 137.236386 
L 44.111973 137.239152 
L 44.308835 136.913206 
L 44.422891 136.71337 
L 44.635377 136.370437 
L 44.636939 136.37094 
L 44.705685 136.262983 
L 44.899423 135.95584 
L 45.583754 134.882269 
L 45.808739 134.577336 
L 45.882172 134.478698 
L 46.183715 134.016568 
L 46.185278 134.019289 
L 46.257148 133.921514 
L 46.289959 133.893281 
L 46.324331 133.832208 
L 46.413388 133.701191 
L 46.797739 133.240946 
L 47.2024 132.770684 
L 47.371139 132.519931 
L 47.372702 132.520391 
L 47.469571 132.419655 
L 47.689869 132.16851 
L 48.883543 130.931907 
L 49.069468 130.752312 
L 49.071031 130.755256 
L 49.172587 130.689616 
L 49.441319 130.468257 
L 49.463193 130.43524 
L 49.524127 130.395637 
L 49.833482 130.141558 
L 49.836607 130.144902 
L 50.088153 129.993039 
L 50.089715 129.994355 
L 50.225644 129.873374 
L 50.699051 129.475737 
L 50.788108 129.399679 
L 51.117775 129.128872 
L 51.294326 128.962587 
L 52.277075 127.998142 
L 52.416129 127.896104 
L 52.706735 127.717377 
L 52.711423 127.721447 
L 52.848914 127.594871 
L 53.047339 127.486925 
L 53.048901 127.488408 
L 53.172331 127.407546 
L 53.414503 127.282239 
L 53.416065 127.285808 
L 53.792603 127.086166 
L 53.942594 126.99906 
L 53.944156 127.000629 
L 54.019151 126.975722 
L 54.045712 126.954638 
L 54.173829 126.872773 
L 54.184766 126.881968 
L 54.206639 126.863482 
L 54.294134 126.854846 
L 54.456623 126.705678 
L 54.553492 126.651293 
L 54.464435 126.695173 
L 54.556617 126.6465 
L 55.040961 126.395433 
L 55.206575 126.29297 
L 55.429999 126.196551 
L 55.597175 126.082658 
L 55.6003 126.085068 
L 55.67842 126.069488 
L 55.634673 126.065703 
L 55.703419 126.043866 
L 56.300255 125.826992 
L 56.467432 125.762525 
L 56.468995 125.763784 
L 56.531491 125.739301 
L 56.565863 125.707329 
L 56.695543 125.642297 
L 56.698667 125.643268 
L 57.104891 125.559476 
L 57.275193 125.448618 
L 57.278318 125.451662 
L 57.375187 125.451696 
L 57.393935 125.427082 
L 57.59861 125.305931 
L 57.615796 125.284175 
L 57.703291 125.266022 
L 57.853281 125.218486 
L 57.857968 125.222983 
L 57.979835 125.187676 
L 58.189197 125.089621 
L 58.236069 125.041264 
L 58.281379 125.027761 
L 58.650105 124.898243 
L 58.831343 124.888523 
L 59.175071 124.780167 
L 59.289127 124.734201 
L 59.460991 124.670496 
L 59.765659 124.609424 
L 59.843779 124.641257 
L 59.878151 124.617806 
L 60.989018 124.311248 
L 61.160882 124.292014 
L 61.288999 124.262311 
L 61.168694 124.298342 
L 61.301498 124.275558 
L 61.749907 124.163542 
L 61.753031 124.170356 
L 61.779592 124.16837 
L 61.832714 124.123141 
L 61.854587 124.124753 
L 61.946769 124.153405 
L 61.984267 124.116074 
L 62.184254 124.065703 
L 62.226439 124.069556 
L 62.199878 124.05666 
L 62.287372 124.026954 
L 62.421739 124.016906 
L 62.423301 124.020396 
L 62.568604 124.085449 
L 62.570167 124.082972 
L 62.596727 124.084607 
L 62.652974 124.160235 
L 62.884209 124.399834 
L 63.434174 125.120098 
L 63.463859 125.142389 
L 63.454485 125.149463 
L 63.509169 125.201712 
L 64.087257 125.926156 
L 64.096631 125.924018 
L 64.149753 126.014362 
L 64.159127 126.016794 
L 64.315367 126.135191 
L 64.438797 126.28496 
L 64.451296 126.271756 
L 64.484107 126.284647 
L 64.523167 126.350489 
L 64.679407 126.562865 
L 64.682531 126.560658 
L 64.751277 126.643692 
L 64.752839 126.64439 
L 64.926266 126.874846 
L 65.024697 126.978817 
L 65.355926 127.379343 
L 65.448107 127.487064 
L 65.588723 127.63667 
L 65.601223 127.630883 
L 65.787148 127.818932 
L 66.187123 128.151929 
L 66.349612 128.283576 
L 66.479291 128.409401 
L 66.649593 128.564603 
L 66.665217 128.571045 
L 66.727713 128.644171 
L 66.952699 128.89378 
L 67.082378 129.00855 
L 67.218307 129.118114 
L 67.351111 129.226154 
L 67.352673 129.221386 
L 67.485477 129.329911 
L 67.663591 129.45043 
L 67.682339 129.434836 
L 67.74796 129.50829 
L 67.760459 129.505179 
L 68.658839 130.109795 
L 68.774457 129.959799 
L 68.982256 129.740465 
L 69.165057 129.600653 
L 69.313485 129.436479 
L 69.419728 129.412405 
L 69.429103 129.399713 
L 69.586905 129.234436 
L 69.588467 129.235595 
L 69.596279 129.238324 
L 69.657213 129.151947 
L 69.6619 129.154892 
L 69.886886 128.976443 
L 69.888448 128.977878 
L 69.890011 128.981002 
L 69.954069 128.886868 
L 69.971255 128.895879 
L 70.074374 128.792958 
L 70.418102 128.572461 
L 70.438413 128.575219 
L 70.502471 128.504621 
L 70.650899 128.380465 
L 70.888384 128.194762 
L 70.894634 128.185507 
L 70.974316 128.123592 
L 72.377351 127.023099 
L 72.405475 127.016114 
L 72.421099 126.981282 
L 72.47422 126.970298 
L 72.724204 126.800644 
L 72.899193 126.74591 
L 73.113242 126.604979 
L 73.244483 126.482769 
L 73.266357 126.499655 
L 73.356976 126.45695 
L 73.297605 126.469973 
L 73.364788 126.449083 
L 74.717827 125.846881 
L 74.82407 125.794765 
L 74.836569 125.806396 
L 75.086553 125.677938 
L 75.089678 125.682327 
L 75.230294 125.601373 
L 75.384971 125.530708 
L 75.388096 125.534742 
L 75.464654 125.524714 
L 75.489652 125.489947 
L 76.023993 125.288027 
L 76.169296 125.226089 
L 77.477025 124.759139 
L 77.516085 124.756674 
L 77.481712 124.752053 
L 77.580143 124.721393 
L 77.722322 124.671945 
L 77.869187 124.631891 
L 77.876999 124.638318 
L 78.009803 124.623548 
L 78.011366 124.61904 
L 80.108107 123.912188 
L 80.245598 123.834467 
L 80.248723 123.835593 
L 80.561203 123.753719 
L 80.681507 123.776803 
L 80.893994 123.69069 
L 80.998675 123.682464 
L 81.008049 123.690909 
L 81.120542 123.685606 
L 81.037735 123.676889 
L 81.122104 123.683941 
L 81.256471 123.660418 
L 81.314279 123.668428 
L 81.358027 123.616278 
L 81.367401 123.633326 
L 81.515829 123.597268 
L 81.587699 123.59508 
L 81.618947 123.555808 
L 82.572011 123.39985 
L 82.775123 123.375556 
L 82.865743 123.38453 
L 82.889179 123.375092 
L 83.856304 123.240904 
L 83.970359 123.228921 
L 83.898489 123.257184 
L 83.975047 123.230568 
L 84.187533 123.249857 
L 84.500013 123.198605 
L 84.887488 123.153785 
L 85.001543 123.140854 
L 85.756183 123.120419 
L 85.857739 123.097438 
L 85.8718 123.106702 
L 86.012416 123.04902 
L 86.023353 123.055732 
L 86.270212 123.018502 
L 86.354582 123.054983 
L 86.387392 123.038179 
L 86.524883 122.997881 
L 86.531133 123.011823 
L 87.234213 122.892041 
L 87.413889 122.872453 
L 88.754428 122.851674 
L 88.895044 122.813836 
L 88.965352 122.825011 
L 89.012224 122.783752 
L 89.563751 122.726787 
L 89.860607 122.711281 
L 89.966851 122.69459 
L 89.97935 122.702676 
L 90.140277 122.692726 
L 90.648057 122.554183 
L 90.802735 122.51971 
L 90.890229 122.508211 
L 90.837107 122.49901 
L 90.908978 122.487384 
L 91.051156 122.468844 
L 91.430819 122.471635 
L 91.499565 122.465815 
L 91.441756 122.47947 
L 91.54175 122.488454 
L 91.693303 122.478814 
L 92.1214 122.489681 
L 92.122963 122.497462 
L 92.538561 122.914396 
L 92.541686 122.911011 
L 92.624493 123.040387 
L 93.568183 124.384694 
L 93.785356 124.661115 
L 93.982219 124.980244 
L 94.124397 125.139186 
L 94.318135 125.369705 
L 94.319697 125.358925 
L 94.415003 125.475557 
L 94.497811 125.558312 
L 94.683736 125.75998 
L 94.733733 125.77773 
L 94.704047 125.783077 
L 94.771231 125.828895 
L 95.141519 126.302608 
L 95.275886 126.453007 
L 95.416502 126.569679 
L 95.574304 126.770813 
L 95.575867 126.770369 
L 95.719607 126.881073 
L 95.736794 126.868979 
L 95.738356 126.866688 
L 95.802415 126.96775 
L 95.908658 127.114451 
L 96.080522 127.287331 
L 96.172703 127.400394 
L 96.610175 127.84736 
L 96.632049 127.852453 
L 96.674234 127.908636 
L 96.694545 127.916002 
L 96.867971 128.046371 
L 96.869534 128.044526 
L 96.978902 128.146678 
L 97.177327 128.338045 
L 97.255447 128.387936 
L 97.263259 128.409139 
L 97.411687 128.554526 
L 97.414811 128.551622 
L 97.531991 128.640634 
L 97.666358 128.76286 
L 98.113204 129.11975 
L 98.114767 129.115847 
L 98.183512 129.20903 
L 98.196011 129.210409 
L 98.744414 129.654594 
L 98.781911 129.690258 
L 98.836595 129.715925 
L 99.127202 129.925493 
L 99.463118 130.240218 
L 99.713102 130.455116 
L 99.866217 130.540076 
L 102.052015 131.78293 
L 102.066076 131.777943 
L 102.148883 131.842692 
L 102.264501 131.932719 
L 102.409804 132.019689 
L 102.522297 132.043524 
L 102.531671 132.067263 
L 103.111322 132.43168 
L 103.128508 132.41792 
L 103.201941 132.470598 
L 103.216003 132.46532 
L 103.395679 132.569981 
L 103.401928 132.56705 
L 103.434739 132.615688 
L 103.492547 132.623242 
L 103.628476 132.678766 
L 103.65035 132.664024 
L 103.948768 132.762885 
L 104.194065 132.927135 
L 104.276872 132.934129 
L 104.306558 132.963335 
L 105.779901 133.628893 
L 105.823648 133.629065 
L 105.856459 133.666034 
L 105.886144 133.659812 
L 106.229872 133.769436 
L 106.236122 133.76711 
L 106.361114 133.822085 
L 106.922015 133.959024 
L 107.109503 134.045032 
L 112.785703 135.524015 
L 112.929443 135.537836 
L 112.931006 135.539598 
L 113.116931 135.589581 
L 113.246611 135.58214 
L 113.251298 135.586343 
L 113.646585 135.690058 
L 113.774702 135.76257 
L 113.776264 135.755797 
L 113.880945 135.732783 
L 113.896569 135.739912 
L 113.915318 135.758161 
L 114.027811 135.739019 
L 114.227798 135.806667 
L 114.22936 135.804286 
L 114.373101 135.777293 
L 114.374663 135.77908 
L 114.434035 135.820013 
L 114.488719 135.791354 
L 114.601211 135.770544 
L 114.616835 135.79566 
L 114.65902 135.811007 
L 114.719954 135.754598 
L 114.734015 135.739003 
L 114.865257 135.752406 
L 114.871507 135.747587 
L 114.944939 135.797339 
L 114.966813 135.791551 
L 115.060557 135.812616 
L 115.080868 135.796813 
L 115.304291 135.833548 
L 115.48553 135.908257 
L 115.63552 135.881105 
L 116.171423 135.964521 
L 116.293291 135.999207 
L 116.296415 135.995448 
L 116.408908 135.97839 
L 116.415158 135.986878 
L 116.538587 136.014987 
L 116.54015 136.012843 
L 116.699515 136.046316 
L 117.75101 136.181 
L 117.871315 136.192008 
L 117.874439 136.188126 
L 117.983807 136.171083 
L 117.993182 136.175299 
L 118.479088 136.274272 
L 118.627516 136.291956 
L 118.490025 136.260922 
L 118.632203 136.284677 
L 119.063426 136.392083 
L 119.230603 136.446021 
L 119.813378 136.557887 
L 119.928995 136.56343 
L 119.930558 136.561051 
L 121.14923 136.790039 
L 121.589827 136.888827 
L 121.732005 136.906032 
L 121.741379 136.915658 
L 121.838248 136.951923 
L 121.967927 136.988416 
L 121.981989 136.970267 
L 122.981925 137.078629 
L 123.036609 137.12118 
L 123.099105 137.093984 
L 123.29128 137.149128 
L 124.103728 137.255473 
L 124.239657 137.303656 
L 124.395897 137.34012 
L 124.405271 137.329462 
L 124.447456 137.371952 
L 124.499015 137.376886 
L 124.644319 137.38598 
L 124.645881 137.384058 
L 125.573947 137.497797 
L 125.652067 137.540496 
L 125.691127 137.518931 
L 125.806744 137.53551 
L 125.808307 137.540859 
L 126.10985 137.618125 
L 126.184845 137.58752 
L 126.223905 137.608078 
L 126.372333 137.579318 
L 126.520761 137.608963 
L 126.645753 137.608942 
L 126.648878 137.611789 
L 126.764495 137.605232 
L 126.772307 137.598786 
L 127.759744 137.759927 
L 128.33002 137.866608 
L 128.444075 137.890662 
L 128.465949 137.872036 
L 129.545567 137.973317 
L 129.678371 138.002443 
L 129.686183 137.990481 
L 129.779927 138.015187 
L 129.797114 137.994313 
L 129.93148 138.016308 
L 129.93773 138.006692 
L 130.404887 138.115059 
L 130.551753 138.140092 
L 130.686119 138.135588 
L 130.7908 138.161196 
L 130.818923 138.140726 
L 130.925167 138.147343 
L 130.828298 138.146383 
L 130.929854 138.153537 
L 131.000162 138.172282 
L 131.043909 138.148864 
L 131.132966 138.129878 
L 131.161089 138.142486 
L 131.18765 138.153915 
L 131.267332 138.113807 
L 131.392324 138.10653 
L 131.397011 138.116079 
L 131.442321 138.095082 
L 131.507942 138.105229 
L 131.598561 138.090327 
L 131.632934 138.11735 
L 131.759488 138.151134 
L 133.974971 138.305463 
L 134.084339 138.288015 
L 134.090589 138.280786 
L 136.637301 138.389633 
L 136.682611 138.374395 
L 136.749794 138.384426 
L 136.882598 138.3999 
L 136.888847 138.395495 
L 136.991966 138.387803 
L 137.015402 138.405487 
L 137.701295 138.485801 
L 137.838787 138.476664 
L 137.955967 138.474011 
L 138.084083 138.478654 
L 138.087208 138.473951 
L 139.03246 138.583204 
L 139.105893 138.573758 
L 139.043397 138.575533 
L 139.140266 138.546552 
L 139.257446 138.532152 
L 139.359002 138.545226 
L 139.369939 138.533735 
L 139.493368 138.533633 
L 139.498055 138.538935 
L 139.623047 138.568054 
L 139.637109 138.581306 
L 139.732415 138.588341 
L 139.89803 138.641415 
L 139.958963 138.673843 
L 140.00896 138.658479 
L 140.693291 138.708252 
L 141.652605 138.819243 
L 141.788534 138.871894 
L 141.880715 138.827258 
L 141.918213 138.863816 
L 142.057267 138.874827 
L 142.069766 138.884909 
L 142.182259 138.882447 
L 142.311938 138.901314 
L 142.433805 138.860614 
L 142.438492 138.867842 
L 142.62598 138.87343 
L 142.700975 138.880115 
L 142.732223 138.902158 
L 143.247815 138.798927 
L 143.360308 138.786911 
L 143.361871 138.789297 
L 143.525923 138.846453 
L 143.529047 138.844068 
L 144.649288 138.892585 
L 144.786779 138.918368 
L 144.789904 138.906474 
L 145.385179 138.953904 
L 146.124194 139.063635 
L 146.142943 139.05615 
L 146.252311 139.104248 
L 146.378865 139.092261 
L 146.497607 139.116449 
L 146.552291 139.142153 
L 146.613225 139.115839 
L 146.741342 139.121171 
L 146.856959 139.14587 
L 146.863209 139.138867 
L 151.691025 139.264218 
L 151.81133 139.243431 
L 151.987881 139.3107 
L 154.043999 139.419861 
L 154.197115 139.465726 
L 154.201802 139.458496 
L 155.270483 139.351502 
L 155.389226 139.328453 
L 155.393913 139.330842 
L 156.556339 139.410273 
L 156.676643 139.419716 
L 156.686018 139.407808 
L 156.809447 139.410981 
L 156.81101 139.415752 
L 156.970375 139.466377 
L 156.973499 139.461608 
L 157.092242 139.48137 
L 160.204543 139.590414 
L 160.302974 139.59632 
L 160.317035 139.577223 
L 162.434087 139.728914 
L 162.554392 139.722355 
L 162.557517 139.717572 
L 162.698133 139.703212 
L 162.837187 139.732449 
L 162.843436 139.722898 
L 164.048047 139.830155 
L 164.141791 139.815362 
L 164.083982 139.804054 
L 164.158977 139.800429 
L 164.165227 139.802835 
L 164.280844 139.781937 
L 167.147848 139.888927 
L 167.266591 139.928279 
L 167.397832 139.916345 
L 167.402519 139.923503 
L 169.658625 140.034573 
L 169.81799 140.056891 
L 169.921108 140.095816 
L 169.828927 140.066236 
L 169.922671 140.098223 
L 170.372642 140.204952 
L 170.386703 140.209664 
L 170.427326 140.17151 
L 170.478885 140.173414 
L 170.582003 140.147682 
L 170.489822 140.163856 
L 170.588253 140.142927 
L 170.655436 140.142405 
L 170.59294 140.145313 
L 170.699183 140.158924 
L 173.730239 140.268793 
L 173.848982 140.281184 
L 173.861481 140.266997 
L 174.166149 140.276415 
L 174.280204 140.286781 
L 174.283329 140.282009 
L 174.452068 140.254453 
L 174.542687 140.269182 
L 174.575498 140.240129 
L 178.531495 140.348244 
L 178.620551 140.364211 
L 178.64555 140.350433 
L 179.843911 140.460078 
L 180.0064 140.514466 
L 180.009525 140.512081 
L 182.345313 140.622522 
L 182.462493 140.612281 
L 182.46718 140.607068 
L 182.571861 140.598651 
L 182.47343 140.6166 
L 182.579673 140.610024 
L 186.346619 140.502329 
L 186.352869 140.495164 
L 186.362243 140.515535 
L 186.452863 140.533314 
L 187.579353 140.643844 
L 187.718407 140.638537 
L 187.840274 140.615305 
L 187.843399 140.617668 
L 187.948079 140.627232 
L 187.959016 140.641566 
L 189.180813 140.753135 
L 189.279244 140.724054 
L 189.202687 140.735994 
L 189.287056 140.718004 
L 189.3808 140.71085 
L 189.399549 140.72702 
L 197.900567 140.836734 
L 198.025559 140.827656 
L 198.158363 140.825492 
L 198.342727 140.820584 
L 198.483343 140.808128 
L 199.720763 140.703411 
L 199.745762 140.696206 
L 199.827007 140.734581 
L 199.951999 140.717902 
L 199.953561 140.715516 
L 200.069179 140.724928 
L 199.964498 140.724522 
L 200.075428 140.729213 
L 200.212919 140.746427 
L 200.214482 140.73927 
L 200.337911 140.750696 
L 200.495714 140.789464 
L 203.508021 140.879338 
L 203.545519 140.856028 
L 203.617389 140.862283 
L 203.775191 140.80153 
L 203.886122 140.805155 
L 203.890809 140.797984 
L 204.023613 140.791663 
L 204.025175 140.794049 
L 204.282971 140.822717 
L 204.395464 140.81814 
L 204.286096 140.820357 
L 204.403276 140.807972 
L 204.520456 140.829579 
L 204.631387 140.808481 
L 204.547017 140.810475 
L 204.636074 140.803712 
L 209.06704 140.829611 
L 209.188907 140.849203 
L 210.23884 140.893862 
L 210.349771 140.946937 
L 210.365395 140.927859 
L 210.462263 140.93926 
L 210.396643 140.939602 
L 210.4732 140.954589 
L 210.645064 140.95152 
L 212.671497 140.841903 
L 212.774615 140.853724 
L 212.698058 140.865447 
L 212.787115 140.86801 
L 212.910544 140.856058 
L 217.022781 140.942047 
L 217.171209 140.972946 
L 217.172771 140.970561 
L 217.300888 140.9563 
L 217.302451 140.958686 
L 217.318075 140.946831 
L 217.424318 140.948851 
L 217.514937 140.933903 
L 217.538373 140.946312 
L 219.469499 141.05599 
L 219.588242 141.068084 
L 219.599179 141.05377 
L 219.692923 141.047188 
L 219.713234 141.061517 
L 219.860099 141.083002 
L 222.802099 141.19393 
L 222.914591 141.199791 
L 222.925528 141.190287 
L 223.069269 141.164112 
L 222.934903 141.196898 
L 223.072394 141.168885 
L 224.650418 141.264094 
L 224.694165 141.277348 
L 224.759786 141.249382 
L 224.873841 141.228412 
L 224.880091 141.232629 
L 225.011332 141.235673 
L 225.012895 141.233296 
L 225.128512 141.219005 
L 225.142574 141.204694 
L 225.261316 141.221329 
L 225.875339 141.332336 
L 225.978458 141.321019 
L 225.94721 141.309032 
L 225.984707 141.318633 
L 226.123761 141.297187 
L 226.125323 141.299572 
L 226.256565 141.350036 
L 226.319061 141.347575 
L 226.25969 141.352502 
L 226.326873 141.358308 
" clip-path="url(#p44df9bab7c)" style="fill: none; stroke: #4477aa; stroke-linecap: square"/>
   </g>
   <g id="LineCollection_1">
    <path d="M 38.837311 149.13 
L 38.837311 52.11 
" clip-path="url(#p44df9bab7c)" style="fill: none; stroke-dasharray: 3.7,1.6; stroke-dashoffset: 0; stroke: #000000"/>
    <path d="M 62.273311 149.13 
L 62.273311 52.11 
" clip-path="url(#p44df9bab7c)" style="fill: none; stroke-dasharray: 3.7,1.6; stroke-dashoffset: 0; stroke: #000000"/>
    <path d="M 68.522911 149.13 
L 68.522911 52.11 
" clip-path="url(#p44df9bab7c)" style="fill: none; stroke-dasharray: 3.7,1.6; stroke-dashoffset: 0; stroke: #000000"/>
    <path d="M 91.958911 149.13 
L 91.958911 52.11 
" clip-path="url(#p44df9bab7c)" style="fill: none; stroke-dasharray: 3.7,1.6; stroke-dashoffset: 0; stroke: #000000"/>
   </g>
   <g id="patch_3">
    <path d="M 31.025311 149.13 
L 31.025311 3.6 
" style="fill: none; stroke: #000000; stroke-width: 0.5; stroke-linejoin: miter; stroke-linecap: square"/>
   </g>
   <g id="patch_4">
    <path d="M 226.325311 149.13 
L 226.325311 3.6 
" style="fill: none; stroke: #000000; stroke-width: 0.5; stroke-linejoin: miter; stroke-linecap: square"/>
   </g>
   <g id="patch_5">
    <path d="M 31.025311 149.13 
L 226.325311 149.13 
" style="fill: none; stroke: #000000; stroke-width: 0.5; stroke-linejoin: miter; stroke-linecap: square"/>
   </g>
   <g id="patch_6">
    <path d="M 31.025311 3.6 
L 226.325311 3.6 
" style="fill: none; stroke: #000000; stroke-width: 0.5; stroke-linejoin: miter; stroke-linecap: square"/>
   </g>
  </g>
 </g>
 <defs>
  <clipPath id="p44df9bab7c">
   <rect x="31.025311" y="3.6" width="195.3" height="145.53"/>
  </clipPath>
 </defs>
</svg>
