<?xml version="1.0" encoding="utf-8" standalone="no"?>
<!DOCTYPE svg PUBLIC "-//W3C//DTD SVG 1.1//EN"
  "http://www.w3.org/Graphics/SVG/1.1/DTD/svg11.dtd">
<svg xmlns:xlink="http://www.w3.org/1999/xlink" width="229.925311pt" height="179.048317pt" viewBox="0 0 229.925311 179.048317" xmlns="http://www.w3.org/2000/svg" version="1.1">
 <metadata>
  <rdf:RDF xmlns:dc="http://purl.org/dc/elements/1.1/" xmlns:cc="http://creativecommons.org/ns#" xmlns:rdf="http://www.w3.org/1999/02/22-rdf-syntax-ns#">
   <cc:Work>
    <dc:type rdf:resource="http://purl.org/dc/dcmitype/StillImage"/>
    <dc:date>2025-05-06T14:30:25.977649</dc:date>
    <dc:format>image/svg+xml</dc:format>
    <dc:creator>
     <cc:Agent>
      <dc:title>Matplotlib v3.9.2, https://matplotlib.org/</dc:title>
     </cc:Agent>
    </dc:creator>
   </cc:Work>
  </rdf:RDF>
 </metadata>
 <defs>
  <style type="text/css">*{stroke-linejoin: round; stroke-linecap: butt}</style>
 </defs>
 <g id="figure_1">
  <g id="patch_1">
   <path d="M 0 179.048317 
L 229.925311 179.048317 
L 229.925311 0 
L 0 0 
L 0 179.048317 
z
" style="fill: none"/>
  </g>
  <g id="axes_1">
   <g id="patch_2">
    <path d="M 31.025311 149.13 
L 226.325311 149.13 
L 226.325311 3.6 
L 31.025311 3.6 
L 31.025311 149.13 
z
" style="fill: none"/>
   </g>
   <g id="matplotlib.axis_1">
    <g id="xtick_1">
     <g id="line2d_1">
      <path d="M 38.837311 149.13 
L 38.837311 3.6 
" clip-path="url(#p78cc61197e)" style="fill: none; stroke-dasharray: 1.85,0.8; stroke-dashoffset: 0; stroke: #000000; stroke-opacity: 0.5; stroke-width: 0.5"/>
     </g>
     <g id="line2d_2">
      <defs>
       <path id="m0c11e7d764" d="M 0 0 
L 0 -3 
" style="stroke: #000000; stroke-width: 0.5"/>
      </defs>
      <g>
       <use xlink:href="#m0c11e7d764" x="38.837311" y="149.13" style="stroke: #000000; stroke-width: 0.5"/>
      </g>
     </g>
     <g id="line2d_3">
      <defs>
       <path id="m86a05caf0d" d="M 0 0 
L 0 3 
" style="stroke: #000000; stroke-width: 0.5"/>
      </defs>
      <g>
       <use xlink:href="#m86a05caf0d" x="38.837311" y="3.6" style="stroke: #000000; stroke-width: 0.5"/>
      </g>
     </g>
     <g id="text_1">
      <!-- $\mathdefault{0}$ -->
      <g transform="translate(36.346643 159.548498) scale(0.1 -0.1)">
       <defs>
        <path id="CMR17-30" d="M 2688 2025 
C 2688 2416 2682 3080 2413 3591 
C 2176 4039 1798 4198 1466 4198 
C 1158 4198 768 4058 525 3597 
C 269 3118 243 2524 243 2025 
C 243 1661 250 1106 448 619 
C 723 -39 1216 -128 1466 -128 
C 1760 -128 2208 -7 2470 600 
C 2662 1042 2688 1559 2688 2025 
z
M 1466 -26 
C 1056 -26 813 325 723 812 
C 653 1188 653 1738 653 2096 
C 653 2588 653 2997 736 3387 
C 858 3929 1216 4096 1466 4096 
C 1728 4096 2067 3923 2189 3400 
C 2272 3036 2278 2607 2278 2096 
C 2278 1680 2278 1169 2202 792 
C 2067 95 1690 -26 1466 -26 
z
" transform="scale(0.015625)"/>
       </defs>
       <use xlink:href="#CMR17-30" transform="scale(0.996264)"/>
      </g>
     </g>
    </g>
    <g id="xtick_2">
     <g id="line2d_4">
      <path d="M 77.897311 149.13 
L 77.897311 3.6 
" clip-path="url(#p78cc61197e)" style="fill: none; stroke-dasharray: 1.85,0.8; stroke-dashoffset: 0; stroke: #000000; stroke-opacity: 0.5; stroke-width: 0.5"/>
     </g>
     <g id="line2d_5">
      <g>
       <use xlink:href="#m0c11e7d764" x="77.897311" y="149.13" style="stroke: #000000; stroke-width: 0.5"/>
      </g>
     </g>
     <g id="line2d_6">
      <g>
       <use xlink:href="#m86a05caf0d" x="77.897311" y="3.6" style="stroke: #000000; stroke-width: 0.5"/>
      </g>
     </g>
     <g id="text_2">
      <!-- $\mathdefault{2500}$ -->
      <g transform="translate(67.93464 159.548498) scale(0.1 -0.1)">
       <defs>
        <path id="CMR17-32" d="M 2669 989 
L 2554 989 
C 2490 536 2438 459 2413 420 
C 2381 369 1920 369 1830 369 
L 602 369 
C 832 619 1280 1072 1824 1597 
C 2214 1967 2669 2402 2669 3035 
C 2669 3790 2067 4224 1395 4224 
C 691 4224 262 3604 262 3030 
C 262 2780 448 2748 525 2748 
C 589 2748 781 2787 781 3010 
C 781 3207 614 3264 525 3264 
C 486 3264 448 3258 422 3245 
C 544 3790 915 4058 1306 4058 
C 1862 4058 2227 3617 2227 3035 
C 2227 2479 1901 2000 1536 1584 
L 262 146 
L 262 0 
L 2515 0 
L 2669 989 
z
" transform="scale(0.015625)"/>
        <path id="CMR17-35" d="M 730 3692 
C 794 3666 1056 3584 1325 3584 
C 1920 3584 2246 3911 2432 4100 
C 2432 4157 2432 4192 2394 4192 
C 2387 4192 2374 4192 2323 4163 
C 2099 4058 1837 3973 1517 3973 
C 1325 3973 1037 3999 723 4139 
C 653 4171 640 4171 634 4171 
C 602 4171 595 4164 595 4037 
L 595 2203 
C 595 2089 595 2057 659 2057 
C 691 2057 704 2070 736 2114 
C 941 2401 1222 2522 1542 2522 
C 1766 2522 2246 2382 2246 1289 
C 2246 1085 2246 715 2054 421 
C 1894 159 1645 25 1370 25 
C 947 25 518 320 403 814 
C 429 807 480 795 506 795 
C 589 795 749 840 749 1038 
C 749 1210 627 1280 506 1280 
C 358 1280 262 1190 262 1011 
C 262 454 704 -128 1382 -128 
C 2042 -128 2669 440 2669 1264 
C 2669 2030 2170 2624 1549 2624 
C 1222 2624 947 2503 730 2274 
L 730 3692 
z
" transform="scale(0.015625)"/>
       </defs>
       <use xlink:href="#CMR17-32" transform="scale(0.996264)"/>
       <use xlink:href="#CMR17-35" transform="translate(45.690477 0) scale(0.996264)"/>
       <use xlink:href="#CMR17-30" transform="translate(91.380954 0) scale(0.996264)"/>
       <use xlink:href="#CMR17-30" transform="translate(137.071431 0) scale(0.996264)"/>
      </g>
     </g>
    </g>
    <g id="xtick_3">
     <g id="line2d_7">
      <path d="M 116.957311 149.13 
L 116.957311 3.6 
" clip-path="url(#p78cc61197e)" style="fill: none; stroke-dasharray: 1.85,0.8; stroke-dashoffset: 0; stroke: #000000; stroke-opacity: 0.5; stroke-width: 0.5"/>
     </g>
     <g id="line2d_8">
      <g>
       <use xlink:href="#m0c11e7d764" x="116.957311" y="149.13" style="stroke: #000000; stroke-width: 0.5"/>
      </g>
     </g>
     <g id="line2d_9">
      <g>
       <use xlink:href="#m86a05caf0d" x="116.957311" y="3.6" style="stroke: #000000; stroke-width: 0.5"/>
      </g>
     </g>
     <g id="text_3">
      <!-- $\mathdefault{5000}$ -->
      <g transform="translate(106.99464 159.548498) scale(0.1 -0.1)">
       <use xlink:href="#CMR17-35" transform="scale(0.996264)"/>
       <use xlink:href="#CMR17-30" transform="translate(45.690477 0) scale(0.996264)"/>
       <use xlink:href="#CMR17-30" transform="translate(91.380954 0) scale(0.996264)"/>
       <use xlink:href="#CMR17-30" transform="translate(137.071431 0) scale(0.996264)"/>
      </g>
     </g>
    </g>
    <g id="xtick_4">
     <g id="line2d_10">
      <path d="M 156.017311 149.13 
L 156.017311 3.6 
" clip-path="url(#p78cc61197e)" style="fill: none; stroke-dasharray: 1.85,0.8; stroke-dashoffset: 0; stroke: #000000; stroke-opacity: 0.5; stroke-width: 0.5"/>
     </g>
     <g id="line2d_11">
      <g>
       <use xlink:href="#m0c11e7d764" x="156.017311" y="149.13" style="stroke: #000000; stroke-width: 0.5"/>
      </g>
     </g>
     <g id="line2d_12">
      <g>
       <use xlink:href="#m86a05caf0d" x="156.017311" y="3.6" style="stroke: #000000; stroke-width: 0.5"/>
      </g>
     </g>
     <g id="text_4">
      <!-- $\mathdefault{7500}$ -->
      <g transform="translate(146.05464 159.548498) scale(0.1 -0.1)">
       <defs>
        <path id="CMR17-37" d="M 2886 3941 
L 2886 4081 
L 1382 4081 
C 634 4081 621 4165 595 4288 
L 480 4288 
L 294 3094 
L 410 3094 
C 429 3215 474 3540 550 3661 
C 589 3712 1062 3712 1171 3712 
L 2579 3712 
L 1869 2661 
C 1395 1954 1069 999 1069 165 
C 1069 89 1069 -128 1299 -128 
C 1530 -128 1530 89 1530 171 
L 1530 465 
C 1530 1508 1709 2196 2003 2636 
L 2886 3941 
z
" transform="scale(0.015625)"/>
       </defs>
       <use xlink:href="#CMR17-37" transform="scale(0.996264)"/>
       <use xlink:href="#CMR17-35" transform="translate(45.690477 0) scale(0.996264)"/>
       <use xlink:href="#CMR17-30" transform="translate(91.380954 0) scale(0.996264)"/>
       <use xlink:href="#CMR17-30" transform="translate(137.071431 0) scale(0.996264)"/>
      </g>
     </g>
    </g>
    <g id="xtick_5">
     <g id="line2d_13">
      <path d="M 195.077311 149.13 
L 195.077311 3.6 
" clip-path="url(#p78cc61197e)" style="fill: none; stroke-dasharray: 1.85,0.8; stroke-dashoffset: 0; stroke: #000000; stroke-opacity: 0.5; stroke-width: 0.5"/>
     </g>
     <g id="line2d_14">
      <g>
       <use xlink:href="#m0c11e7d764" x="195.077311" y="149.13" style="stroke: #000000; stroke-width: 0.5"/>
      </g>
     </g>
     <g id="line2d_15">
      <g>
       <use xlink:href="#m86a05caf0d" x="195.077311" y="3.6" style="stroke: #000000; stroke-width: 0.5"/>
      </g>
     </g>
     <g id="text_5">
      <!-- $\mathdefault{10000}$ -->
      <g transform="translate(182.623972 159.548498) scale(0.1 -0.1)">
       <defs>
        <path id="CMR17-31" d="M 1702 4058 
C 1702 4192 1696 4192 1606 4192 
C 1357 3916 979 3827 621 3827 
C 602 3827 570 3827 563 3808 
C 557 3795 557 3782 557 3648 
C 755 3648 1088 3686 1344 3839 
L 1344 461 
C 1344 236 1331 160 781 160 
L 589 160 
L 589 0 
C 896 0 1216 0 1523 0 
C 1830 0 2150 0 2458 0 
L 2458 160 
L 2266 160 
C 1715 160 1702 230 1702 458 
L 1702 4058 
z
" transform="scale(0.015625)"/>
       </defs>
       <use xlink:href="#CMR17-31" transform="scale(0.996264)"/>
       <use xlink:href="#CMR17-30" transform="translate(45.690477 0) scale(0.996264)"/>
       <use xlink:href="#CMR17-30" transform="translate(91.380954 0) scale(0.996264)"/>
       <use xlink:href="#CMR17-30" transform="translate(137.071431 0) scale(0.996264)"/>
       <use xlink:href="#CMR17-30" transform="translate(182.761908 0) scale(0.996264)"/>
      </g>
     </g>
    </g>
    <g id="xtick_6">
     <g id="line2d_16">
      <defs>
       <path id="m54eed3df1c" d="M 0 0 
L 0 -1.5 
" style="stroke: #000000; stroke-width: 0.5"/>
      </defs>
      <g>
       <use xlink:href="#m54eed3df1c" x="31.025311" y="149.13" style="stroke: #000000; stroke-width: 0.5"/>
      </g>
     </g>
     <g id="line2d_17">
      <defs>
       <path id="m580ea0686a" d="M 0 0 
L 0 1.5 
" style="stroke: #000000; stroke-width: 0.5"/>
      </defs>
      <g>
       <use xlink:href="#m580ea0686a" x="31.025311" y="3.6" style="stroke: #000000; stroke-width: 0.5"/>
      </g>
     </g>
    </g>
    <g id="xtick_7">
     <g id="line2d_18">
      <g>
       <use xlink:href="#m54eed3df1c" x="46.649311" y="149.13" style="stroke: #000000; stroke-width: 0.5"/>
      </g>
     </g>
     <g id="line2d_19">
      <g>
       <use xlink:href="#m580ea0686a" x="46.649311" y="3.6" style="stroke: #000000; stroke-width: 0.5"/>
      </g>
     </g>
    </g>
    <g id="xtick_8">
     <g id="line2d_20">
      <g>
       <use xlink:href="#m54eed3df1c" x="54.461311" y="149.13" style="stroke: #000000; stroke-width: 0.5"/>
      </g>
     </g>
     <g id="line2d_21">
      <g>
       <use xlink:href="#m580ea0686a" x="54.461311" y="3.6" style="stroke: #000000; stroke-width: 0.5"/>
      </g>
     </g>
    </g>
    <g id="xtick_9">
     <g id="line2d_22">
      <g>
       <use xlink:href="#m54eed3df1c" x="62.273311" y="149.13" style="stroke: #000000; stroke-width: 0.5"/>
      </g>
     </g>
     <g id="line2d_23">
      <g>
       <use xlink:href="#m580ea0686a" x="62.273311" y="3.6" style="stroke: #000000; stroke-width: 0.5"/>
      </g>
     </g>
    </g>
    <g id="xtick_10">
     <g id="line2d_24">
      <g>
       <use xlink:href="#m54eed3df1c" x="70.085311" y="149.13" style="stroke: #000000; stroke-width: 0.5"/>
      </g>
     </g>
     <g id="line2d_25">
      <g>
       <use xlink:href="#m580ea0686a" x="70.085311" y="3.6" style="stroke: #000000; stroke-width: 0.5"/>
      </g>
     </g>
    </g>
    <g id="xtick_11">
     <g id="line2d_26">
      <g>
       <use xlink:href="#m54eed3df1c" x="85.709311" y="149.13" style="stroke: #000000; stroke-width: 0.5"/>
      </g>
     </g>
     <g id="line2d_27">
      <g>
       <use xlink:href="#m580ea0686a" x="85.709311" y="3.6" style="stroke: #000000; stroke-width: 0.5"/>
      </g>
     </g>
    </g>
    <g id="xtick_12">
     <g id="line2d_28">
      <g>
       <use xlink:href="#m54eed3df1c" x="93.521311" y="149.13" style="stroke: #000000; stroke-width: 0.5"/>
      </g>
     </g>
     <g id="line2d_29">
      <g>
       <use xlink:href="#m580ea0686a" x="93.521311" y="3.6" style="stroke: #000000; stroke-width: 0.5"/>
      </g>
     </g>
    </g>
    <g id="xtick_13">
     <g id="line2d_30">
      <g>
       <use xlink:href="#m54eed3df1c" x="101.333311" y="149.13" style="stroke: #000000; stroke-width: 0.5"/>
      </g>
     </g>
     <g id="line2d_31">
      <g>
       <use xlink:href="#m580ea0686a" x="101.333311" y="3.6" style="stroke: #000000; stroke-width: 0.5"/>
      </g>
     </g>
    </g>
    <g id="xtick_14">
     <g id="line2d_32">
      <g>
       <use xlink:href="#m54eed3df1c" x="109.145311" y="149.13" style="stroke: #000000; stroke-width: 0.5"/>
      </g>
     </g>
     <g id="line2d_33">
      <g>
       <use xlink:href="#m580ea0686a" x="109.145311" y="3.6" style="stroke: #000000; stroke-width: 0.5"/>
      </g>
     </g>
    </g>
    <g id="xtick_15">
     <g id="line2d_34">
      <g>
       <use xlink:href="#m54eed3df1c" x="124.769311" y="149.13" style="stroke: #000000; stroke-width: 0.5"/>
      </g>
     </g>
     <g id="line2d_35">
      <g>
       <use xlink:href="#m580ea0686a" x="124.769311" y="3.6" style="stroke: #000000; stroke-width: 0.5"/>
      </g>
     </g>
    </g>
    <g id="xtick_16">
     <g id="line2d_36">
      <g>
       <use xlink:href="#m54eed3df1c" x="132.581311" y="149.13" style="stroke: #000000; stroke-width: 0.5"/>
      </g>
     </g>
     <g id="line2d_37">
      <g>
       <use xlink:href="#m580ea0686a" x="132.581311" y="3.6" style="stroke: #000000; stroke-width: 0.5"/>
      </g>
     </g>
    </g>
    <g id="xtick_17">
     <g id="line2d_38">
      <g>
       <use xlink:href="#m54eed3df1c" x="140.393311" y="149.13" style="stroke: #000000; stroke-width: 0.5"/>
      </g>
     </g>
     <g id="line2d_39">
      <g>
       <use xlink:href="#m580ea0686a" x="140.393311" y="3.6" style="stroke: #000000; stroke-width: 0.5"/>
      </g>
     </g>
    </g>
    <g id="xtick_18">
     <g id="line2d_40">
      <g>
       <use xlink:href="#m54eed3df1c" x="148.205311" y="149.13" style="stroke: #000000; stroke-width: 0.5"/>
      </g>
     </g>
     <g id="line2d_41">
      <g>
       <use xlink:href="#m580ea0686a" x="148.205311" y="3.6" style="stroke: #000000; stroke-width: 0.5"/>
      </g>
     </g>
    </g>
    <g id="xtick_19">
     <g id="line2d_42">
      <g>
       <use xlink:href="#m54eed3df1c" x="163.829311" y="149.13" style="stroke: #000000; stroke-width: 0.5"/>
      </g>
     </g>
     <g id="line2d_43">
      <g>
       <use xlink:href="#m580ea0686a" x="163.829311" y="3.6" style="stroke: #000000; stroke-width: 0.5"/>
      </g>
     </g>
    </g>
    <g id="xtick_20">
     <g id="line2d_44">
      <g>
       <use xlink:href="#m54eed3df1c" x="171.641311" y="149.13" style="stroke: #000000; stroke-width: 0.5"/>
      </g>
     </g>
     <g id="line2d_45">
      <g>
       <use xlink:href="#m580ea0686a" x="171.641311" y="3.6" style="stroke: #000000; stroke-width: 0.5"/>
      </g>
     </g>
    </g>
    <g id="xtick_21">
     <g id="line2d_46">
      <g>
       <use xlink:href="#m54eed3df1c" x="179.453311" y="149.13" style="stroke: #000000; stroke-width: 0.5"/>
      </g>
     </g>
     <g id="line2d_47">
      <g>
       <use xlink:href="#m580ea0686a" x="179.453311" y="3.6" style="stroke: #000000; stroke-width: 0.5"/>
      </g>
     </g>
    </g>
    <g id="xtick_22">
     <g id="line2d_48">
      <g>
       <use xlink:href="#m54eed3df1c" x="187.265311" y="149.13" style="stroke: #000000; stroke-width: 0.5"/>
      </g>
     </g>
     <g id="line2d_49">
      <g>
       <use xlink:href="#m580ea0686a" x="187.265311" y="3.6" style="stroke: #000000; stroke-width: 0.5"/>
      </g>
     </g>
    </g>
    <g id="xtick_23">
     <g id="line2d_50">
      <g>
       <use xlink:href="#m54eed3df1c" x="202.889311" y="149.13" style="stroke: #000000; stroke-width: 0.5"/>
      </g>
     </g>
     <g id="line2d_51">
      <g>
       <use xlink:href="#m580ea0686a" x="202.889311" y="3.6" style="stroke: #000000; stroke-width: 0.5"/>
      </g>
     </g>
    </g>
    <g id="xtick_24">
     <g id="line2d_52">
      <g>
       <use xlink:href="#m54eed3df1c" x="210.701311" y="149.13" style="stroke: #000000; stroke-width: 0.5"/>
      </g>
     </g>
     <g id="line2d_53">
      <g>
       <use xlink:href="#m580ea0686a" x="210.701311" y="3.6" style="stroke: #000000; stroke-width: 0.5"/>
      </g>
     </g>
    </g>
    <g id="xtick_25">
     <g id="line2d_54">
      <g>
       <use xlink:href="#m54eed3df1c" x="218.513311" y="149.13" style="stroke: #000000; stroke-width: 0.5"/>
      </g>
     </g>
     <g id="line2d_55">
      <g>
       <use xlink:href="#m580ea0686a" x="218.513311" y="3.6" style="stroke: #000000; stroke-width: 0.5"/>
      </g>
     </g>
    </g>
    <g id="xtick_26">
     <g id="line2d_56">
      <g>
       <use xlink:href="#m54eed3df1c" x="226.325311" y="149.13" style="stroke: #000000; stroke-width: 0.5"/>
      </g>
     </g>
     <g id="line2d_57">
      <g>
       <use xlink:href="#m580ea0686a" x="226.325311" y="3.6" style="stroke: #000000; stroke-width: 0.5"/>
      </g>
     </g>
    </g>
    <g id="text_6">
     <!-- $t$ [ns] -->
     <g transform="translate(117.716391 172.957657) scale(0.1 -0.1)">
      <defs>
       <path id="CMMI12-74" d="M 1286 2566 
L 1875 2566 
C 1997 2566 2061 2566 2061 2681 
C 2061 2752 2022 2752 1894 2752 
L 1331 2752 
L 1568 3692 
C 1594 3781 1594 3794 1594 3840 
C 1594 3943 1510 4000 1427 4000 
C 1376 4000 1229 3981 1178 3775 
L 928 2752 
L 326 2752 
C 198 2752 141 2752 141 2630 
C 141 2566 186 2566 307 2566 
L 877 2566 
L 454 881 
C 403 658 384 594 384 511 
C 384 211 595 -64 954 -64 
C 1600 -64 1946 868 1946 912 
C 1946 951 1920 970 1882 970 
C 1869 970 1843 970 1830 944 
C 1824 938 1818 931 1773 829 
C 1638 511 1344 64 973 64 
C 781 64 768 224 768 364 
C 768 370 768 492 787 568 
L 1286 2566 
z
" transform="scale(0.015625)"/>
       <path id="CMR17-5b" d="M 1504 -1600 
L 1504 -1377 
L 902 -1377 
L 902 4544 
L 1504 4544 
L 1504 4767 
L 678 4767 
L 678 -1600 
L 1504 -1600 
z
" transform="scale(0.015625)"/>
       <path id="CMR17-6e" d="M 2656 1933 
C 2656 2259 2592 2790 1837 2790 
C 1331 2790 1069 2400 973 2144 
L 966 2144 
L 966 2790 
L 211 2720 
L 211 2554 
C 589 2554 646 2515 646 2208 
L 646 428 
C 646 184 621 153 211 153 
L 211 -13 
C 365 0 646 0 813 0 
C 979 0 1267 0 1421 -13 
L 1421 153 
C 1011 153 986 178 986 428 
L 986 1658 
C 986 2247 1344 2688 1792 2688 
C 2266 2688 2317 2266 2317 1958 
L 2317 428 
C 2317 184 2291 153 1882 153 
L 1882 -13 
C 2035 0 2317 0 2483 0 
C 2650 0 2938 0 3091 -13 
L 3091 153 
C 2682 153 2656 178 2656 428 
L 2656 1933 
z
" transform="scale(0.015625)"/>
       <path id="CMR17-73" d="M 1978 2697 
C 1978 2813 1971 2819 1933 2819 
C 1907 2819 1901 2813 1824 2717 
C 1805 2691 1747 2626 1728 2601 
C 1523 2819 1235 2819 1126 2819 
C 416 2819 160 2447 160 2076 
C 160 1498 813 1365 998 1325 
C 1402 1243 1542 1217 1677 1101 
C 1760 1025 1901 884 1901 654 
C 1901 384 1747 38 1158 38 
C 602 38 403 460 288 1021 
C 269 1110 269 1117 218 1117 
C 166 1117 160 1110 160 983 
L 160 63 
C 160 -51 166 -58 205 -58 
C 237 -58 243 -51 275 0 
C 314 57 410 211 448 276 
C 576 103 800 -64 1158 -64 
C 1792 -64 2131 283 2131 784 
C 2131 1112 1958 1285 1875 1362 
C 1683 1561 1459 1606 1190 1657 
C 838 1735 390 1825 390 2217 
C 390 2383 480 2737 1126 2737 
C 1811 2737 1850 2094 1862 1888 
C 1869 1856 1901 1849 1920 1849 
C 1978 1849 1978 1869 1978 1978 
L 1978 2697 
z
" transform="scale(0.015625)"/>
       <path id="CMR17-5d" d="M 915 4767 
L 90 4767 
L 90 4544 
L 691 4544 
L 691 -1377 
L 90 -1377 
L 90 -1600 
L 915 -1600 
L 915 4767 
z
" transform="scale(0.015625)"/>
      </defs>
      <use xlink:href="#CMMI12-74" transform="scale(0.996264)"/>
      <use xlink:href="#CMR17-5b" transform="translate(65.302297 0) scale(0.996264)"/>
      <use xlink:href="#CMR17-6e" transform="translate(90.173355 0) scale(0.996264)"/>
      <use xlink:href="#CMR17-73" transform="translate(141.068725 0) scale(0.996264)"/>
      <use xlink:href="#CMR17-5d" transform="translate(176.870062 0) scale(0.996264)"/>
     </g>
    </g>
   </g>
   <g id="matplotlib.axis_2">
    <g id="ytick_1">
     <g id="line2d_58">
      <path d="M 31.025311 149.13 
L 226.325311 149.13 
" clip-path="url(#p78cc61197e)" style="fill: none; stroke-dasharray: 1.85,0.8; stroke-dashoffset: 0; stroke: #000000; stroke-opacity: 0.5; stroke-width: 0.5"/>
     </g>
     <g id="line2d_59">
      <defs>
       <path id="mf69babef1d" d="M 0 0 
L 3 0 
" style="stroke: #000000; stroke-width: 0.5"/>
      </defs>
      <g>
       <use xlink:href="#mf69babef1d" x="31.025311" y="149.13" style="stroke: #000000; stroke-width: 0.5"/>
      </g>
     </g>
     <g id="line2d_60">
      <defs>
       <path id="m71b4945719" d="M 0 0 
L -3 0 
" style="stroke: #000000; stroke-width: 0.5"/>
      </defs>
      <g>
       <use xlink:href="#m71b4945719" x="226.325311" y="149.13" style="stroke: #000000; stroke-width: 0.5"/>
      </g>
     </g>
     <g id="text_7">
      <!-- $\mathdefault{0}$ -->
      <g transform="translate(22.543975 152.589249) scale(0.1 -0.1)">
       <use xlink:href="#CMR17-30" transform="scale(0.996264)"/>
      </g>
     </g>
    </g>
    <g id="ytick_2">
     <g id="line2d_61">
      <path d="M 31.025311 116.79 
L 226.325311 116.79 
" clip-path="url(#p78cc61197e)" style="fill: none; stroke-dasharray: 1.85,0.8; stroke-dashoffset: 0; stroke: #000000; stroke-opacity: 0.5; stroke-width: 0.5"/>
     </g>
     <g id="line2d_62">
      <g>
       <use xlink:href="#mf69babef1d" x="31.025311" y="116.79" style="stroke: #000000; stroke-width: 0.5"/>
      </g>
     </g>
     <g id="line2d_63">
      <g>
       <use xlink:href="#m71b4945719" x="226.325311" y="116.79" style="stroke: #000000; stroke-width: 0.5"/>
      </g>
     </g>
     <g id="text_8">
      <!-- $\mathdefault{20}$ -->
      <g transform="translate(17.56264 120.249249) scale(0.1 -0.1)">
       <use xlink:href="#CMR17-32" transform="scale(0.996264)"/>
       <use xlink:href="#CMR17-30" transform="translate(45.690477 0) scale(0.996264)"/>
      </g>
     </g>
    </g>
    <g id="ytick_3">
     <g id="line2d_64">
      <path d="M 31.025311 84.45 
L 226.325311 84.45 
" clip-path="url(#p78cc61197e)" style="fill: none; stroke-dasharray: 1.85,0.8; stroke-dashoffset: 0; stroke: #000000; stroke-opacity: 0.5; stroke-width: 0.5"/>
     </g>
     <g id="line2d_65">
      <g>
       <use xlink:href="#mf69babef1d" x="31.025311" y="84.45" style="stroke: #000000; stroke-width: 0.5"/>
      </g>
     </g>
     <g id="line2d_66">
      <g>
       <use xlink:href="#m71b4945719" x="226.325311" y="84.45" style="stroke: #000000; stroke-width: 0.5"/>
      </g>
     </g>
     <g id="text_9">
      <!-- $\mathdefault{40}$ -->
      <g transform="translate(17.56264 87.909249) scale(0.1 -0.1)">
       <defs>
        <path id="CMR17-34" d="M 2150 4122 
C 2150 4256 2144 4256 2029 4256 
L 128 1254 
L 128 1088 
L 1779 1088 
L 1779 457 
C 1779 224 1766 160 1318 160 
L 1197 160 
L 1197 0 
C 1402 0 1747 0 1965 0 
C 2182 0 2528 0 2733 0 
L 2733 160 
L 2611 160 
C 2163 160 2150 224 2150 457 
L 2150 1088 
L 2803 1088 
L 2803 1254 
L 2150 1254 
L 2150 4122 
z
M 1798 3703 
L 1798 1254 
L 256 1254 
L 1798 3703 
z
" transform="scale(0.015625)"/>
       </defs>
       <use xlink:href="#CMR17-34" transform="scale(0.996264)"/>
       <use xlink:href="#CMR17-30" transform="translate(45.690477 0) scale(0.996264)"/>
      </g>
     </g>
    </g>
    <g id="ytick_4">
     <g id="line2d_67">
      <path d="M 31.025311 52.11 
L 226.325311 52.11 
" clip-path="url(#p78cc61197e)" style="fill: none; stroke-dasharray: 1.85,0.8; stroke-dashoffset: 0; stroke: #000000; stroke-opacity: 0.5; stroke-width: 0.5"/>
     </g>
     <g id="line2d_68">
      <g>
       <use xlink:href="#mf69babef1d" x="31.025311" y="52.11" style="stroke: #000000; stroke-width: 0.5"/>
      </g>
     </g>
     <g id="line2d_69">
      <g>
       <use xlink:href="#m71b4945719" x="226.325311" y="52.11" style="stroke: #000000; stroke-width: 0.5"/>
      </g>
     </g>
     <g id="text_10">
      <!-- $\mathdefault{60}$ -->
      <g transform="translate(17.56264 55.569249) scale(0.1 -0.1)">
       <defs>
        <path id="CMR17-36" d="M 678 2176 
C 678 3690 1395 4032 1811 4032 
C 1946 4032 2272 4009 2400 3776 
C 2298 3776 2106 3776 2106 3553 
C 2106 3381 2246 3323 2336 3323 
C 2394 3323 2566 3348 2566 3560 
C 2566 3954 2246 4179 1805 4179 
C 1043 4179 243 3390 243 1984 
C 243 253 966 -128 1478 -128 
C 2099 -128 2688 427 2688 1283 
C 2688 2081 2170 2662 1517 2662 
C 1126 2662 838 2407 678 1960 
L 678 2176 
z
M 1478 25 
C 691 25 691 1200 691 1436 
C 691 1896 909 2560 1504 2560 
C 1613 2560 1926 2560 2138 2120 
C 2253 1870 2253 1609 2253 1289 
C 2253 944 2253 690 2118 434 
C 1978 171 1773 25 1478 25 
z
" transform="scale(0.015625)"/>
       </defs>
       <use xlink:href="#CMR17-36" transform="scale(0.996264)"/>
       <use xlink:href="#CMR17-30" transform="translate(45.690477 0) scale(0.996264)"/>
      </g>
     </g>
    </g>
    <g id="ytick_5">
     <g id="line2d_70">
      <path d="M 31.025311 19.77 
L 226.325311 19.77 
" clip-path="url(#p78cc61197e)" style="fill: none; stroke-dasharray: 1.85,0.8; stroke-dashoffset: 0; stroke: #000000; stroke-opacity: 0.5; stroke-width: 0.5"/>
     </g>
     <g id="line2d_71">
      <g>
       <use xlink:href="#mf69babef1d" x="31.025311" y="19.77" style="stroke: #000000; stroke-width: 0.5"/>
      </g>
     </g>
     <g id="line2d_72">
      <g>
       <use xlink:href="#m71b4945719" x="226.325311" y="19.77" style="stroke: #000000; stroke-width: 0.5"/>
      </g>
     </g>
     <g id="text_11">
      <!-- $\mathdefault{80}$ -->
      <g transform="translate(17.56264 23.229249) scale(0.1 -0.1)">
       <defs>
        <path id="CMR17-38" d="M 1741 2264 
C 2144 2467 2554 2773 2554 3263 
C 2554 3841 1990 4179 1472 4179 
C 890 4179 378 3759 378 3180 
C 378 3021 416 2747 666 2505 
C 730 2442 998 2251 1171 2130 
C 883 1983 211 1634 211 934 
C 211 279 838 -128 1459 -128 
C 2144 -128 2720 362 2720 1010 
C 2720 1590 2330 1857 2074 2029 
L 1741 2264 
z
M 902 2822 
C 851 2854 595 3051 595 3351 
C 595 3739 998 4032 1459 4032 
C 1965 4032 2336 3676 2336 3262 
C 2336 2669 1670 2331 1638 2331 
C 1632 2331 1626 2331 1574 2370 
L 902 2822 
z
M 2080 1519 
C 2176 1449 2483 1240 2483 851 
C 2483 381 2010 25 1472 25 
C 890 25 448 438 448 940 
C 448 1443 838 1862 1280 2060 
L 2080 1519 
z
" transform="scale(0.015625)"/>
       </defs>
       <use xlink:href="#CMR17-38" transform="scale(0.996264)"/>
       <use xlink:href="#CMR17-30" transform="translate(45.690477 0) scale(0.996264)"/>
      </g>
     </g>
    </g>
    <g id="ytick_6">
     <g id="line2d_73">
      <defs>
       <path id="m634b6b2015" d="M 0 0 
L 1.5 0 
" style="stroke: #000000; stroke-width: 0.5"/>
      </defs>
      <g>
       <use xlink:href="#m634b6b2015" x="31.025311" y="141.045" style="stroke: #000000; stroke-width: 0.5"/>
      </g>
     </g>
     <g id="line2d_74">
      <defs>
       <path id="m7e9e6ddc9f" d="M 0 0 
L -1.5 0 
" style="stroke: #000000; stroke-width: 0.5"/>
      </defs>
      <g>
       <use xlink:href="#m7e9e6ddc9f" x="226.325311" y="141.045" style="stroke: #000000; stroke-width: 0.5"/>
      </g>
     </g>
    </g>
    <g id="ytick_7">
     <g id="line2d_75">
      <g>
       <use xlink:href="#m634b6b2015" x="31.025311" y="132.96" style="stroke: #000000; stroke-width: 0.5"/>
      </g>
     </g>
     <g id="line2d_76">
      <g>
       <use xlink:href="#m7e9e6ddc9f" x="226.325311" y="132.96" style="stroke: #000000; stroke-width: 0.5"/>
      </g>
     </g>
    </g>
    <g id="ytick_8">
     <g id="line2d_77">
      <g>
       <use xlink:href="#m634b6b2015" x="31.025311" y="124.875" style="stroke: #000000; stroke-width: 0.5"/>
      </g>
     </g>
     <g id="line2d_78">
      <g>
       <use xlink:href="#m7e9e6ddc9f" x="226.325311" y="124.875" style="stroke: #000000; stroke-width: 0.5"/>
      </g>
     </g>
    </g>
    <g id="ytick_9">
     <g id="line2d_79">
      <g>
       <use xlink:href="#m634b6b2015" x="31.025311" y="108.705" style="stroke: #000000; stroke-width: 0.5"/>
      </g>
     </g>
     <g id="line2d_80">
      <g>
       <use xlink:href="#m7e9e6ddc9f" x="226.325311" y="108.705" style="stroke: #000000; stroke-width: 0.5"/>
      </g>
     </g>
    </g>
    <g id="ytick_10">
     <g id="line2d_81">
      <g>
       <use xlink:href="#m634b6b2015" x="31.025311" y="100.62" style="stroke: #000000; stroke-width: 0.5"/>
      </g>
     </g>
     <g id="line2d_82">
      <g>
       <use xlink:href="#m7e9e6ddc9f" x="226.325311" y="100.62" style="stroke: #000000; stroke-width: 0.5"/>
      </g>
     </g>
    </g>
    <g id="ytick_11">
     <g id="line2d_83">
      <g>
       <use xlink:href="#m634b6b2015" x="31.025311" y="92.535" style="stroke: #000000; stroke-width: 0.5"/>
      </g>
     </g>
     <g id="line2d_84">
      <g>
       <use xlink:href="#m7e9e6ddc9f" x="226.325311" y="92.535" style="stroke: #000000; stroke-width: 0.5"/>
      </g>
     </g>
    </g>
    <g id="ytick_12">
     <g id="line2d_85">
      <g>
       <use xlink:href="#m634b6b2015" x="31.025311" y="76.365" style="stroke: #000000; stroke-width: 0.5"/>
      </g>
     </g>
     <g id="line2d_86">
      <g>
       <use xlink:href="#m7e9e6ddc9f" x="226.325311" y="76.365" style="stroke: #000000; stroke-width: 0.5"/>
      </g>
     </g>
    </g>
    <g id="ytick_13">
     <g id="line2d_87">
      <g>
       <use xlink:href="#m634b6b2015" x="31.025311" y="68.28" style="stroke: #000000; stroke-width: 0.5"/>
      </g>
     </g>
     <g id="line2d_88">
      <g>
       <use xlink:href="#m7e9e6ddc9f" x="226.325311" y="68.28" style="stroke: #000000; stroke-width: 0.5"/>
      </g>
     </g>
    </g>
    <g id="ytick_14">
     <g id="line2d_89">
      <g>
       <use xlink:href="#m634b6b2015" x="31.025311" y="60.195" style="stroke: #000000; stroke-width: 0.5"/>
      </g>
     </g>
     <g id="line2d_90">
      <g>
       <use xlink:href="#m7e9e6ddc9f" x="226.325311" y="60.195" style="stroke: #000000; stroke-width: 0.5"/>
      </g>
     </g>
    </g>
    <g id="ytick_15">
     <g id="line2d_91">
      <g>
       <use xlink:href="#m634b6b2015" x="31.025311" y="44.025" style="stroke: #000000; stroke-width: 0.5"/>
      </g>
     </g>
     <g id="line2d_92">
      <g>
       <use xlink:href="#m7e9e6ddc9f" x="226.325311" y="44.025" style="stroke: #000000; stroke-width: 0.5"/>
      </g>
     </g>
    </g>
    <g id="ytick_16">
     <g id="line2d_93">
      <g>
       <use xlink:href="#m634b6b2015" x="31.025311" y="35.94" style="stroke: #000000; stroke-width: 0.5"/>
      </g>
     </g>
     <g id="line2d_94">
      <g>
       <use xlink:href="#m7e9e6ddc9f" x="226.325311" y="35.94" style="stroke: #000000; stroke-width: 0.5"/>
      </g>
     </g>
    </g>
    <g id="ytick_17">
     <g id="line2d_95">
      <g>
       <use xlink:href="#m634b6b2015" x="31.025311" y="27.855" style="stroke: #000000; stroke-width: 0.5"/>
      </g>
     </g>
     <g id="line2d_96">
      <g>
       <use xlink:href="#m7e9e6ddc9f" x="226.325311" y="27.855" style="stroke: #000000; stroke-width: 0.5"/>
      </g>
     </g>
    </g>
    <g id="ytick_18">
     <g id="line2d_97">
      <g>
       <use xlink:href="#m634b6b2015" x="31.025311" y="11.685" style="stroke: #000000; stroke-width: 0.5"/>
      </g>
     </g>
     <g id="line2d_98">
      <g>
       <use xlink:href="#m7e9e6ddc9f" x="226.325311" y="11.685" style="stroke: #000000; stroke-width: 0.5"/>
      </g>
     </g>
    </g>
    <g id="ytick_19">
     <g id="line2d_99">
      <g>
       <use xlink:href="#m634b6b2015" x="31.025311" y="3.6" style="stroke: #000000; stroke-width: 0.5"/>
      </g>
     </g>
     <g id="line2d_100">
      <g>
       <use xlink:href="#m7e9e6ddc9f" x="226.325311" y="3.6" style="stroke: #000000; stroke-width: 0.5"/>
      </g>
     </g>
    </g>
    <g id="text_12">
     <!-- $U_1$ [mV] -->
     <g transform="translate(11.07198 94.315774) rotate(-90) scale(0.1 -0.1)">
      <defs>
       <path id="CMMI12-55" d="M 3238 1474 
C 3014 581 2272 57 1670 57 
C 1210 57 896 363 896 891 
C 896 916 896 1107 966 1387 
L 1594 3887 
C 1651 4103 1664 4167 2118 4167 
C 2234 4167 2298 4167 2298 4282 
C 2298 4352 2240 4352 2202 4352 
C 2086 4352 1952 4352 1830 4352 
L 1075 4352 
C 954 4352 819 4352 698 4352 
C 653 4352 576 4352 576 4231 
C 576 4167 621 4167 742 4167 
C 1126 4167 1126 4116 1126 4046 
C 1126 4008 1082 3824 1050 3715 
L 493 1488 
C 474 1418 435 1246 435 1075 
C 435 374 941 -128 1638 -128 
C 2285 -128 3002 384 3328 1197 
C 3373 1305 3430 1530 3469 1702 
C 3533 1933 3667 2496 3712 2662 
L 3955 3623 
C 4038 3956 4090 4167 4653 4167 
C 4704 4173 4730 4224 4730 4282 
C 4730 4352 4672 4352 4646 4352 
C 4557 4352 4442 4352 4352 4352 
L 4051 4352 
C 3654 4352 3450 4352 3443 4352 
C 3405 4352 3328 4352 3328 4231 
C 3328 4167 3379 4167 3424 4167 
C 3808 4167 3834 4020 3834 3905 
C 3834 3848 3834 3828 3808 3739 
L 3238 1474 
z
" transform="scale(0.015625)"/>
       <path id="CMR17-6d" d="M 4326 1933 
C 4326 2252 4269 2790 3507 2790 
C 3072 2790 2771 2496 2656 2151 
L 2650 2151 
C 2573 2676 2195 2790 1837 2790 
C 1331 2790 1069 2400 973 2144 
L 966 2144 
L 966 2790 
L 211 2720 
L 211 2554 
C 589 2554 646 2515 646 2208 
L 646 428 
C 646 184 621 153 211 153 
L 211 -13 
C 365 0 646 0 813 0 
C 979 0 1267 0 1421 -13 
L 1421 153 
C 1011 153 986 178 986 428 
L 986 1658 
C 986 2247 1344 2688 1792 2688 
C 2266 2688 2317 2266 2317 1958 
L 2317 428 
C 2317 184 2291 153 1882 153 
L 1882 -13 
C 2035 0 2317 0 2483 0 
C 2650 0 2938 0 3091 -13 
L 3091 153 
C 2682 153 2656 178 2656 428 
L 2656 1658 
C 2656 2247 3014 2688 3462 2688 
C 3936 2688 3987 2266 3987 1958 
L 3987 428 
C 3987 184 3962 153 3552 153 
L 3552 -13 
C 3706 0 3987 0 4154 0 
C 4320 0 4608 0 4762 -13 
L 4762 153 
C 4352 153 4326 178 4326 428 
L 4326 1933 
z
" transform="scale(0.015625)"/>
       <path id="CMR17-56" d="M 3776 3745 
C 3834 3886 3936 4160 4365 4160 
L 4365 4332 
C 4218 4319 4051 4319 3891 4319 
C 3738 4319 3475 4319 3328 4332 
L 3328 4160 
C 3648 4160 3661 3936 3661 3898 
C 3661 3827 3642 3783 3622 3732 
L 2362 446 
L 1043 3886 
C 1024 3931 1011 3963 1011 3994 
C 1011 4160 1267 4160 1402 4160 
L 1402 4319 
C 1197 4319 896 4319 685 4319 
C 518 4319 218 4319 64 4332 
L 64 4160 
C 435 4160 506 4135 582 3931 
L 2106 -26 
C 2138 -115 2144 -128 2214 -128 
C 2285 -128 2291 -115 2323 -26 
L 3776 3745 
z
" transform="scale(0.015625)"/>
      </defs>
      <use xlink:href="#CMMI12-55" transform="scale(0.996264)"/>
      <use xlink:href="#CMR17-31" transform="translate(66.252119 -14.943915) scale(0.697382)"/>
      <use xlink:href="#CMR17-5b" transform="translate(128.809399 0) scale(0.996264)"/>
      <use xlink:href="#CMR17-6d" transform="translate(153.680458 0) scale(0.996264)"/>
      <use xlink:href="#CMR17-56" transform="translate(230.600048 0) scale(0.996264)"/>
      <use xlink:href="#CMR17-5d" transform="translate(299.672478 0) scale(0.996264)"/>
     </g>
    </g>
   </g>
   <g id="line2d_101">
    <path d="M 38.837311 149.129999 
L 39.049797 148.896747 
L 39.27322 148.265315 
L 39.404462 147.897181 
L 39.621635 147.280091 
L 39.887243 146.486515 
L 40.123166 145.825298 
L 40.395023 145.188771 
L 40.838745 144.140869 
L 40.84187 144.14292 
L 40.848119 144.138547 
L 40.879367 144.040863 
L 40.88093 144.040717 
L 41.404334 142.659429 
L 41.473079 142.502901 
L 41.713689 141.93802 
L 41.718376 141.938115 
L 41.748062 141.874474 
L 41.768373 141.843819 
L 41.944924 141.460319 
L 42.507388 140.275391 
L 43.074539 139.198166 
L 43.229217 138.967389 
L 43.291713 138.830564 
L 43.554196 138.370688 
L 43.626067 138.295754 
L 43.568258 138.341615 
L 43.627629 138.28812 
L 43.824491 137.995256 
L 43.826054 137.997304 
L 43.954171 137.753513 
L 44.113535 137.443291 
L 44.205717 137.307409 
L 44.511947 136.78772 
L 44.51351 136.790122 
L 44.518197 136.789753 
L 44.561944 136.689293 
L 44.691623 136.462391 
L 44.938483 136.028212 
L 44.940045 136.029547 
L 45.13222 135.72118 
L 45.32752 135.407403 
L 45.536882 135.097681 
L 45.785303 134.716811 
L 46.016539 134.402589 
L 46.30402 134.093366 
L 46.524319 133.821974 
L 46.752429 133.541484 
L 46.808675 133.453322 
L 46.761803 133.518165 
L 46.810238 133.44966 
L 46.938355 133.292341 
L 46.952416 133.301707 
L 47.139904 133.030625 
L 47.282083 132.864571 
L 48.024223 131.973465 
L 48.027347 131.976381 
L 48.094531 131.87489 
L 48.367951 131.532353 
L 48.538252 131.273371 
L 48.539815 131.275435 
L 48.60856 131.195536 
L 48.61481 131.19561 
L 48.822609 130.997928 
L 50.705301 129.197134 
L 50.708426 129.200324 
L 50.753735 129.126659 
L 50.786546 129.120834 
L 52.000531 128.12857 
L 52.002093 128.13216 
L 52.05209 128.116949 
L 52.095837 128.07401 
L 52.20833 127.971925 
L 52.377069 127.804202 
L 52.380194 127.80645 
L 52.402067 127.767918 
L 52.469251 127.743865 
L 52.605179 127.661234 
L 52.606742 127.662358 
L 52.770794 127.593152 
L 53.337945 127.183569 
L 53.492623 127.049437 
L 53.645738 126.983543 
L 53.839475 126.86254 
L 53.841038 126.866854 
L 53.853537 126.880534 
L 53.939469 126.814304 
L 54.144143 126.660744 
L 54.284759 126.576888 
L 54.373816 126.53865 
L 54.380066 126.5215 
L 54.78629 126.31443 
L 54.789415 126.321717 
L 54.889408 126.256455 
L 54.892533 126.248817 
L 57.864218 125.029966 
L 57.986085 125.002759 
L 57.987647 125.001125 
L 58.154824 124.935864 
L 58.156387 124.936953 
L 58.286066 124.920125 
L 58.290753 124.911891 
L 58.426682 124.800438 
L 58.428244 124.802793 
L 58.578235 124.701691 
L 58.748536 124.667899 
L 58.864154 124.647924 
L 58.870403 124.64008 
L 59.028206 124.554418 
L 59.167259 124.518226 
L 59.264128 124.474653 
L 59.173509 124.512027 
L 59.267253 124.468014 
L 59.443804 124.384943 
L 59.445367 124.387889 
L 59.678164 124.309647 
L 59.945335 124.177142 
L 59.946897 124.179301 
L 60.037516 124.181716 
L 60.060952 124.168085 
L 60.815591 123.883125 
L 60.817154 123.886241 
L 60.928084 123.85739 
L 61.046827 123.80764 
L 61.053076 123.810692 
L 61.89521 123.566521 
L 62.265499 123.49853 
L 62.327995 123.463854 
L 62.382679 123.49926 
L 62.551418 123.624152 
L 62.696721 123.765117 
L 62.698283 123.761484 
L 62.8264 123.913832 
L 62.990452 124.091555 
L 63.038887 124.128359 
L 63.059198 124.175995 
L 63.226375 124.420708 
L 63.227937 124.419985 
L 63.470109 124.762718 
L 63.720093 125.071179 
L 63.723218 125.06631 
L 63.790401 125.172533 
L 63.888832 125.281104 
L 64.041947 125.44707 
L 64.159127 125.548673 
L 64.305993 125.667954 
L 64.523167 125.590611 
L 64.640347 125.569798 
L 64.645034 125.553357 
L 64.784087 125.491079 
L 64.905955 125.45852 
L 65.218435 125.364308 
L 65.221559 125.371565 
L 65.260619 125.367006 
L 65.302804 125.32773 
L 65.321553 125.322834 
L 65.546539 125.285874 
L 65.673093 125.274879 
L 66.094941 125.159184 
L 66.216808 125.172883 
L 66.218371 125.170343 
L 66.371486 125.124441 
L 66.640219 124.965519 
L 66.765211 124.947687 
L 66.768335 124.943474 
L 66.890203 124.889738 
L 66.898015 124.895343 
L 67.133937 124.773287 
L 67.39642 124.68502 
L 67.512038 124.699415 
L 67.515163 124.68763 
L 67.660466 124.61096 
L 67.808894 124.552258 
L 67.951072 124.514589 
L 67.952635 124.516272 
L 67.974508 124.509269 
L 68.029192 124.452908 
L 68.049503 124.462183 
L 68.272927 124.386368 
L 68.274489 124.391163 
L 68.376045 124.343869 
L 68.513536 124.308883 
L 68.515099 124.306036 
L 68.854139 124.224755 
L 68.877575 124.25451 
L 68.968195 124.22701 
L 69.158807 124.181114 
L 69.288487 124.181163 
L 69.402542 124.158579 
L 69.408791 124.160474 
L 69.413479 124.167788 
L 69.615028 124.115305 
L 72.827323 123.405011 
L 72.941378 123.376663 
L 73.163239 123.382369 
L 73.452283 123.308798 
L 73.558526 123.286357 
L 73.577275 123.302032 
L 73.850695 123.253759 
L 74.006935 123.198472 
L 74.913127 123.015598 
L 75.089678 123.022216 
L 75.09124 123.017984 
L 75.261542 122.958923 
L 76.247416 122.903448 
L 76.413031 122.873004 
L 76.417718 122.879447 
L 76.85519 122.789331 
L 76.970807 122.823884 
L 77.025491 122.828017 
L 77.036428 122.799767 
L 77.073926 122.78865 
L 77.186419 122.777999 
L 77.192668 122.783542 
L 77.370782 122.722708 
L 77.381719 122.731031 
L 77.494211 122.708835 
L 77.637952 122.726356 
L 77.989492 122.667528 
L 78.101985 122.683854 
L 78.248851 122.665419 
L 78.250413 122.669501 
L 78.330095 122.68287 
L 78.362906 122.659203 
L 78.48946 122.640503 
L 78.494147 122.642873 
L 80.494019 122.495728 
L 80.594013 122.485526 
L 80.606512 122.501408 
L 80.72213 122.436538 
L 80.772127 122.436437 
L 80.809624 122.484215 
L 80.823686 122.476528 
L 80.947115 122.491992 
L 80.95024 122.48782 
L 81.231472 122.45227 
L 81.526766 122.428795 
L 81.528328 122.432822 
L 82.217347 122.396109 
L 82.426708 122.333002 
L 82.532951 122.329584 
L 82.542326 122.325578 
L 82.78606 122.298594 
L 83.173535 122.334805 
L 83.236031 122.341435 
L 83.282903 122.31494 
L 83.361023 122.304668 
L 83.393834 122.328381 
L 83.700064 122.310312 
L 83.851617 122.291192 
L 83.853179 122.29614 
L 84.207844 122.304599 
L 84.351585 122.25194 
L 84.364084 122.262332 
L 84.470327 122.270187 
L 84.479702 122.261802 
L 84.740623 122.190415 
L 84.74531 122.20053 
L 84.929673 122.20195 
L 85.328085 122.181163 
L 85.446827 122.148735 
L 85.449952 122.144095 
L 85.671813 122.086416 
L 85.795243 122.066967 
L 85.68275 122.07541 
L 85.798367 122.063213 
L 86.018666 122.040252 
L 86.198342 122.056151 
L 86.199904 122.05193 
L 86.453013 122.015827 
L 86.454575 122.01839 
L 87.51857 122.048697 
L 87.651374 122.018623 
L 88.252898 122.691026 
L 88.301332 122.788047 
L 88.470071 123.093913 
L 88.535692 123.19753 
L 88.748179 123.538184 
L 90.543376 125.808523 
L 90.666806 125.977224 
L 90.810547 126.133874 
L 90.899603 126.237614 
L 91.216771 126.608392 
L 91.218333 126.599307 
L 91.305827 126.675228 
L 91.316764 126.672738 
L 91.805795 127.201149 
L 91.962035 127.368874 
L 92.072966 127.479878 
L 92.276078 127.695267 
L 92.27764 127.685842 
L 92.308888 127.698238 
L 92.35576 127.763045 
L 92.7073 128.158204 
L 92.716675 128.158171 
L 92.740111 128.199451 
L 92.788545 128.230222 
L 92.927599 128.337532 
L 92.929161 128.335701 
L 92.930723 128.330833 
L 93.011968 128.40567 
L 93.022905 128.404688 
L 93.29945 128.670219 
L 93.302575 128.667842 
L 93.305699 128.66308 
L 93.346322 128.719756 
L 93.391631 128.734602 
L 94.519684 129.573158 
L 94.649363 129.63456 
L 94.81654 129.768771 
L 94.819665 129.766473 
L 94.882161 129.841312 
L 94.897785 129.846119 
L 95.302447 130.069172 
L 95.432126 130.147695 
L 96.249261 130.724282 
L 96.386752 130.767839 
L 96.388315 130.771973 
L 96.594551 130.900389 
L 96.755479 131.020844 
L 96.836723 131.065118 
L 96.84766 131.082469 
L 97.333567 131.381582 
L 97.567927 131.535274 
L 97.580426 131.531342 
L 97.650734 131.607134 
L 97.786663 131.681292 
L 97.79135 131.676708 
L 97.872595 131.729242 
L 97.83041 131.721538 
L 97.880407 131.741896 
L 98.016335 131.795946 
L 98.017898 131.795195 
L 98.439746 132.026553 
L 98.569425 132.099522 
L 98.575675 132.089655 
L 98.653795 132.108088 
L 98.681918 132.126982 
L 98.830346 132.241797 
L 100.811469 133.135204 
L 100.898963 133.163847 
L 100.914587 133.181004 
L 101.055203 133.230375 
L 101.059891 133.226233 
L 101.063015 133.22182 
L 101.230192 133.290613 
L 101.309875 133.329426 
L 101.325499 133.346907 
L 101.489551 133.422324 
L 101.672351 133.506982 
L 101.673914 133.501716 
L 101.731723 133.509156 
L 101.772345 133.550151 
L 101.773907 133.550581 
L 101.966083 133.638871 
L 101.97077 133.631379 
L 102.064514 133.69475 
L 102.148883 133.690108 
L 102.181694 133.714839 
L 102.189506 133.71223 
L 102.32231 133.796477 
L 102.323872 133.791223 
L 102.403555 133.859075 
L 102.420741 133.854189 
L 102.508235 133.854122 
L 102.537921 133.878725 
L 102.664475 133.955497 
L 102.809779 134.004564 
L 102.856651 133.993773 
L 102.822278 134.009966 
L 102.919147 134.02409 
L 103.06445 134.103039 
L 103.49411 134.291408 
L 103.628476 134.325936 
L 103.633163 134.311673 
L 103.72847 134.387674 
L 103.901896 134.431141 
L 103.903459 134.429397 
L 103.989391 134.462896 
L 104.00189 134.483305 
L 104.159692 134.503067 
L 104.161255 134.500684 
L 104.567479 134.645269 
L 104.676847 134.720254 
L 104.695595 134.712209 
L 104.803401 134.749882 
L 104.936205 134.791445 
L 105.308056 134.897467 
L 105.428361 134.946107 
L 105.431486 134.941416 
L 105.514293 134.966332 
L 105.534604 134.991285 
L 105.692407 135.013328 
L 105.693969 135.01075 
L 105.808024 134.994138 
L 105.825211 135.005586 
L 105.961139 135.019803 
L 105.962702 135.01265 
L 106.193937 135.099002 
L 106.340803 135.128144 
L 106.197062 135.096622 
L 106.342365 135.123418 
L 106.693905 135.233173 
L 106.69703 135.22842 
L 106.823584 135.231116 
L 106.923578 135.246391 
L 106.934515 135.25564 
L 107.050132 135.262489 
L 106.940764 135.250834 
L 107.051695 135.260547 
L 107.115753 135.290408 
L 107.079818 135.286822 
L 107.143876 135.319732 
L 107.293867 135.365186 
L 107.298554 135.3581 
L 107.554787 135.404064 
L 107.637595 135.464516 
L 107.682904 135.43085 
L 108.429731 135.546835 
L 108.540662 135.588309 
L 108.735962 135.624095 
L 108.737524 135.629853 
L 108.867203 135.66556 
L 108.871891 135.65967 
L 110.63584 136.015059 
L 110.738959 136.071463 
L 110.765519 136.056657 
L 110.959257 136.088255 
L 111.118622 136.135789 
L 111.120184 136.1334 
L 111.724833 136.247429 
L 111.849825 136.264045 
L 112.051375 136.371257 
L 112.123245 136.369856 
L 112.157618 136.397569 
L 112.196678 136.384172 
L 112.28261 136.425486 
L 112.385728 136.428566 
L 112.396665 136.439829 
L 112.527907 136.445148 
L 112.646649 136.420036 
L 113.099745 136.528294 
L 113.271609 136.564622 
L 113.377852 136.596485 
L 113.379415 136.59887 
L 113.513781 136.606926 
L 113.620024 136.635983 
L 113.52628 136.621346 
L 113.621587 136.643228 
L 114.002812 136.749721 
L 114.087182 136.782038 
L 114.119992 136.765953 
L 114.252796 136.776722 
L 114.934003 136.883001 
L 115.052745 136.879007 
L 114.952751 136.856873 
L 115.057432 136.871875 
L 115.180862 136.884971 
L 115.182424 136.892631 
L 115.291792 136.893176 
L 115.298042 136.890249 
L 115.832383 136.990588 
L 115.95425 137.012434 
L 116.082367 136.985651 
L 116.090179 137.006578 
L 116.144863 136.999935 
L 116.191735 136.960553 
L 116.196422 136.956624 
L 116.288603 137.008078 
L 116.291728 137.00811 
L 116.42297 137.02241 
L 116.429219 137.015349 
L 117.394783 137.12838 
L 117.536961 137.14725 
L 117.644767 137.166817 
L 117.546335 137.153974 
L 117.649454 137.177721 
L 117.708825 137.182149 
L 117.757259 137.151997 
L 117.865065 137.157073 
L 117.879127 137.169066 
L 118.011931 137.182581 
L 118.015055 137.178279 
L 118.124423 137.192346 
L 118.066615 137.195866 
L 118.125986 137.194714 
L 118.293163 137.24541 
L 118.865001 137.355372 
L 119.024366 137.372729 
L 119.152483 137.386077 
L 119.154045 137.38846 
L 120.938306 137.484803 
L 121.053923 137.482907 
L 121.483583 137.573244 
L 121.628887 137.631567 
L 121.642948 137.613708 
L 121.860122 137.605781 
L 123.831871 137.731826 
L 123.834995 137.729634 
L 123.970924 137.745408 
L 126.359834 137.865196 
L 126.520761 137.891544 
L 126.522323 137.886773 
L 127.575381 137.987358 
L 127.698811 138.001914 
L 127.808179 138.028369 
L 127.809741 138.030711 
L 127.934733 138.059002 
L 128.181592 138.161655 
L 128.320646 138.180543 
L 128.323771 138.175772 
L 128.412827 138.166732 
L 128.439388 138.176286 
L 128.594066 138.211703 
L 129.11747 138.312756 
L 129.23465 138.321775 
L 129.133094 138.300357 
L 129.237775 138.319834 
L 132.406322 138.427721 
L 132.526627 138.447078 
L 132.536001 138.452236 
L 132.640682 138.452763 
L 132.78286 138.477595 
L 132.784423 138.475766 
L 132.920351 138.465255 
L 133.028157 138.471464 
L 133.037531 138.467093 
L 133.171898 138.454935 
L 135.631115 138.55575 
L 135.767044 138.564008 
L 135.768607 138.562925 
L 135.890474 138.523278 
L 135.892036 138.528704 
L 136.07015 138.526295 
L 136.176393 138.538064 
L 136.081087 138.516465 
L 136.18733 138.530946 
L 138.416875 138.546401 
L 138.537179 138.539468 
L 138.544991 138.550802 
L 143.393119 138.652939 
L 143.521235 138.674282 
L 143.660289 138.661171 
L 143.785281 138.724986 
L 143.786843 138.720215 
L 146.472609 138.835049 
L 146.485108 138.825531 
L 146.581977 138.813735 
L 146.72728 138.78881 
L 146.728843 138.791198 
L 148.434983 138.902085 
L 148.605285 138.931367 
L 148.438108 138.899156 
L 148.606847 138.929048 
L 149.378673 139.006073 
L 149.531788 139.043723 
L 149.639594 139.016415 
L 149.648968 139.021302 
L 152.362857 139.13104 
L 152.515972 139.16596 
L 152.576906 139.143014 
L 152.630027 139.171356 
L 156.211048 139.299497 
L 156.270419 139.306723 
L 156.221985 139.295239 
L 156.321979 139.283512 
L 160.162358 139.367514 
L 160.176419 139.359406 
L 160.274851 139.361666 
L 160.363907 139.323962 
L 160.39828 139.338192 
L 160.87325 139.359695 
L 160.95137 139.346008 
L 160.899811 139.368723 
L 160.98418 139.367397 
L 167.633755 139.608989 
L 167.727499 139.591573 
L 167.655628 139.597671 
L 167.74156 139.582096 
L 169.280524 139.691407 
L 169.402391 139.677722 
L 169.543007 139.665233 
L 170.752305 139.613166 
L 170.87261 139.579637 
L 173.061532 139.686356 
L 173.169338 139.727159 
L 173.180275 139.71761 
L 173.305267 139.727837 
L 175.252017 139.612275 
L 175.366072 139.608483 
L 175.381696 139.619857 
L 175.492627 139.61543 
L 175.609807 139.626391 
L 175.619181 139.607749 
L 175.626993 139.612518 
L 175.741048 139.586322 
L 175.861353 139.596066 
L 175.87229 139.584144 
L 177.931533 139.649689 
L 178.042463 139.686805 
L 178.054963 139.679723 
L 178.119021 139.653225 
L 178.169018 139.668191 
L 179.464247 139.781988 
L 179.568928 139.815309 
L 179.603301 139.792124 
L 179.736105 139.789865 
L 179.884533 139.834651 
L 179.892345 139.827544 
L 180.011087 139.801794 
L 180.154828 139.830235 
L 180.159515 139.825643 
L 185.262314 139.720038 
L 185.376369 139.665726 
L 185.382619 139.672872 
L 185.399805 139.660368 
L 185.516985 139.676835 
L 187.859023 139.703965 
L 187.929331 139.65803 
L 187.982452 139.679449 
L 188.860521 139.789102 
L 189.002699 139.806486 
L 189.148003 139.786166 
L 192.858703 139.968557 
L 192.997756 139.985364 
L 192.999319 139.980592 
L 193.580531 140.089872 
L 193.694587 140.083296 
L 193.702399 140.076139 
L 193.83364 140.076026 
L 193.977381 140.097648 
L 193.978943 140.095262 
L 194.097686 140.080337 
L 194.110185 140.097548 
L 197.334979 140.207496 
L 197.413099 140.218887 
L 197.445909 140.19556 
L 197.455283 140.202716 
L 197.578713 140.189697 
L 197.703705 140.218271 
L 199.673891 140.328853 
L 199.783259 140.338422 
L 199.802008 140.323479 
L 199.89419 140.357616 
L 199.903564 140.374385 
L 200.016057 140.364868 
L 200.159798 140.347273 
L 200.745698 140.351618 
L 200.866003 140.344982 
L 200.873815 140.337825 
L 201.02068 140.378822 
L 201.162859 140.362457 
L 203.267411 140.47213 
L 203.40334 140.491199 
L 203.408027 140.484055 
L 203.562705 140.448458 
L 205.779751 140.555141 
L 205.910992 140.602802 
L 206.009423 140.586683 
L 206.037547 140.612398 
L 206.171913 140.61959 
L 206.048483 140.624878 
L 206.173475 140.621976 
L 206.303155 140.622488 
L 206.304717 140.620102 
L 206.431271 140.588624 
L 206.778124 140.584246 
L 206.915615 140.521165 
L 207.054669 140.531735 
L 207.179661 140.541342 
L 207.260906 140.571657 
L 207.299966 140.555602 
L 210.957544 140.662505 
L 211.079411 140.702855 
L 211.220027 140.726482 
L 211.223152 140.721708 
L 222.747415 140.61263 
L 222.866157 140.617578 
L 222.870844 140.624194 
L 223.352063 140.670005 
L 223.412997 140.669386 
L 223.370812 140.676099 
L 223.461431 140.686281 
L 223.592673 140.698233 
L 223.595798 140.693464 
L 223.723915 140.698681 
L 226.326873 140.791811 
L 226.326873 140.791811 
" clip-path="url(#p78cc61197e)" style="fill: none; stroke: #4477aa; stroke-linecap: square"/>
   </g>
   <g id="LineCollection_1">
    <path d="M 38.837311 149.13 
L 38.837311 52.11 
" clip-path="url(#p78cc61197e)" style="fill: none; stroke-dasharray: 3.7,1.6; stroke-dashoffset: 0; stroke: #000000"/>
    <path d="M 62.273311 149.13 
L 62.273311 52.11 
" clip-path="url(#p78cc61197e)" style="fill: none; stroke-dasharray: 3.7,1.6; stroke-dashoffset: 0; stroke: #000000"/>
    <path d="M 64.148191 149.13 
L 64.148191 52.11 
" clip-path="url(#p78cc61197e)" style="fill: none; stroke-dasharray: 3.7,1.6; stroke-dashoffset: 0; stroke: #000000"/>
    <path d="M 87.584191 149.13 
L 87.584191 52.11 
" clip-path="url(#p78cc61197e)" style="fill: none; stroke-dasharray: 3.7,1.6; stroke-dashoffset: 0; stroke: #000000"/>
   </g>
   <g id="patch_3">
    <path d="M 31.025311 149.13 
L 31.025311 3.6 
" style="fill: none; stroke: #000000; stroke-width: 0.5; stroke-linejoin: miter; stroke-linecap: square"/>
   </g>
   <g id="patch_4">
    <path d="M 226.325311 149.13 
L 226.325311 3.6 
" style="fill: none; stroke: #000000; stroke-width: 0.5; stroke-linejoin: miter; stroke-linecap: square"/>
   </g>
   <g id="patch_5">
    <path d="M 31.025311 149.13 
L 226.325311 149.13 
" style="fill: none; stroke: #000000; stroke-width: 0.5; stroke-linejoin: miter; stroke-linecap: square"/>
   </g>
   <g id="patch_6">
    <path d="M 31.025311 3.6 
L 226.325311 3.6 
" style="fill: none; stroke: #000000; stroke-width: 0.5; stroke-linejoin: miter; stroke-linecap: square"/>
   </g>
  </g>
 </g>
 <defs>
  <clipPath id="p78cc61197e">
   <rect x="31.025311" y="3.6" width="195.3" height="145.53"/>
  </clipPath>
 </defs>
</svg>
