<?xml version="1.0" encoding="utf-8" standalone="no"?>
<!DOCTYPE svg PUBLIC "-//W3C//DTD SVG 1.1//EN"
  "http://www.w3.org/Graphics/SVG/1.1/DTD/svg11.dtd">
<svg xmlns:xlink="http://www.w3.org/1999/xlink" width="229.925311pt" height="179.048317pt" viewBox="0 0 229.925311 179.048317" xmlns="http://www.w3.org/2000/svg" version="1.1">
 <metadata>
  <rdf:RDF xmlns:dc="http://purl.org/dc/elements/1.1/" xmlns:cc="http://creativecommons.org/ns#" xmlns:rdf="http://www.w3.org/1999/02/22-rdf-syntax-ns#">
   <cc:Work>
    <dc:type rdf:resource="http://purl.org/dc/dcmitype/StillImage"/>
    <dc:date>2025-04-25T13:10:35.163457</dc:date>
    <dc:format>image/svg+xml</dc:format>
    <dc:creator>
     <cc:Agent>
      <dc:title>Matplotlib v3.9.2, https://matplotlib.org/</dc:title>
     </cc:Agent>
    </dc:creator>
   </cc:Work>
  </rdf:RDF>
 </metadata>
 <defs>
  <style type="text/css">*{stroke-linejoin: round; stroke-linecap: butt}</style>
 </defs>
 <g id="figure_1">
  <g id="patch_1">
   <path d="M 0 179.048317 
L 229.925311 179.048317 
L 229.925311 0 
L 0 0 
L 0 179.048317 
z
" style="fill: none"/>
  </g>
  <g id="axes_1">
   <g id="patch_2">
    <path d="M 31.025311 149.13 
L 226.325311 149.13 
L 226.325311 3.6 
L 31.025311 3.6 
L 31.025311 149.13 
z
" style="fill: none"/>
   </g>
   <g id="matplotlib.axis_1">
    <g id="xtick_1">
     <g id="line2d_1">
      <path d="M 38.837311 149.13 
L 38.837311 3.6 
" clip-path="url(#pbf17575f18)" style="fill: none; stroke-dasharray: 1.85,0.8; stroke-dashoffset: 0; stroke: #000000; stroke-opacity: 0.5; stroke-width: 0.5"/>
     </g>
     <g id="line2d_2">
      <defs>
       <path id="maa4d14033e" d="M 0 0 
L 0 -3 
" style="stroke: #000000; stroke-width: 0.5"/>
      </defs>
      <g>
       <use xlink:href="#maa4d14033e" x="38.837311" y="149.13" style="stroke: #000000; stroke-width: 0.5"/>
      </g>
     </g>
     <g id="line2d_3">
      <defs>
       <path id="m0724eb649d" d="M 0 0 
L 0 3 
" style="stroke: #000000; stroke-width: 0.5"/>
      </defs>
      <g>
       <use xlink:href="#m0724eb649d" x="38.837311" y="3.6" style="stroke: #000000; stroke-width: 0.5"/>
      </g>
     </g>
     <g id="text_1">
      <!-- $\mathdefault{0}$ -->
      <g transform="translate(36.346643 159.548498) scale(0.1 -0.1)">
       <defs>
        <path id="CMR17-30" d="M 2688 2025 
C 2688 2416 2682 3080 2413 3591 
C 2176 4039 1798 4198 1466 4198 
C 1158 4198 768 4058 525 3597 
C 269 3118 243 2524 243 2025 
C 243 1661 250 1106 448 619 
C 723 -39 1216 -128 1466 -128 
C 1760 -128 2208 -7 2470 600 
C 2662 1042 2688 1559 2688 2025 
z
M 1466 -26 
C 1056 -26 813 325 723 812 
C 653 1188 653 1738 653 2096 
C 653 2588 653 2997 736 3387 
C 858 3929 1216 4096 1466 4096 
C 1728 4096 2067 3923 2189 3400 
C 2272 3036 2278 2607 2278 2096 
C 2278 1680 2278 1169 2202 792 
C 2067 95 1690 -26 1466 -26 
z
" transform="scale(0.015625)"/>
       </defs>
       <use xlink:href="#CMR17-30" transform="scale(0.996264)"/>
      </g>
     </g>
    </g>
    <g id="xtick_2">
     <g id="line2d_4">
      <path d="M 77.897311 149.13 
L 77.897311 3.6 
" clip-path="url(#pbf17575f18)" style="fill: none; stroke-dasharray: 1.85,0.8; stroke-dashoffset: 0; stroke: #000000; stroke-opacity: 0.5; stroke-width: 0.5"/>
     </g>
     <g id="line2d_5">
      <g>
       <use xlink:href="#maa4d14033e" x="77.897311" y="149.13" style="stroke: #000000; stroke-width: 0.5"/>
      </g>
     </g>
     <g id="line2d_6">
      <g>
       <use xlink:href="#m0724eb649d" x="77.897311" y="3.6" style="stroke: #000000; stroke-width: 0.5"/>
      </g>
     </g>
     <g id="text_2">
      <!-- $\mathdefault{2500}$ -->
      <g transform="translate(67.93464 159.548498) scale(0.1 -0.1)">
       <defs>
        <path id="CMR17-32" d="M 2669 989 
L 2554 989 
C 2490 536 2438 459 2413 420 
C 2381 369 1920 369 1830 369 
L 602 369 
C 832 619 1280 1072 1824 1597 
C 2214 1967 2669 2402 2669 3035 
C 2669 3790 2067 4224 1395 4224 
C 691 4224 262 3604 262 3030 
C 262 2780 448 2748 525 2748 
C 589 2748 781 2787 781 3010 
C 781 3207 614 3264 525 3264 
C 486 3264 448 3258 422 3245 
C 544 3790 915 4058 1306 4058 
C 1862 4058 2227 3617 2227 3035 
C 2227 2479 1901 2000 1536 1584 
L 262 146 
L 262 0 
L 2515 0 
L 2669 989 
z
" transform="scale(0.015625)"/>
        <path id="CMR17-35" d="M 730 3692 
C 794 3666 1056 3584 1325 3584 
C 1920 3584 2246 3911 2432 4100 
C 2432 4157 2432 4192 2394 4192 
C 2387 4192 2374 4192 2323 4163 
C 2099 4058 1837 3973 1517 3973 
C 1325 3973 1037 3999 723 4139 
C 653 4171 640 4171 634 4171 
C 602 4171 595 4164 595 4037 
L 595 2203 
C 595 2089 595 2057 659 2057 
C 691 2057 704 2070 736 2114 
C 941 2401 1222 2522 1542 2522 
C 1766 2522 2246 2382 2246 1289 
C 2246 1085 2246 715 2054 421 
C 1894 159 1645 25 1370 25 
C 947 25 518 320 403 814 
C 429 807 480 795 506 795 
C 589 795 749 840 749 1038 
C 749 1210 627 1280 506 1280 
C 358 1280 262 1190 262 1011 
C 262 454 704 -128 1382 -128 
C 2042 -128 2669 440 2669 1264 
C 2669 2030 2170 2624 1549 2624 
C 1222 2624 947 2503 730 2274 
L 730 3692 
z
" transform="scale(0.015625)"/>
       </defs>
       <use xlink:href="#CMR17-32" transform="scale(0.996264)"/>
       <use xlink:href="#CMR17-35" transform="translate(45.690477 0) scale(0.996264)"/>
       <use xlink:href="#CMR17-30" transform="translate(91.380954 0) scale(0.996264)"/>
       <use xlink:href="#CMR17-30" transform="translate(137.071431 0) scale(0.996264)"/>
      </g>
     </g>
    </g>
    <g id="xtick_3">
     <g id="line2d_7">
      <path d="M 116.957311 149.13 
L 116.957311 3.6 
" clip-path="url(#pbf17575f18)" style="fill: none; stroke-dasharray: 1.85,0.8; stroke-dashoffset: 0; stroke: #000000; stroke-opacity: 0.5; stroke-width: 0.5"/>
     </g>
     <g id="line2d_8">
      <g>
       <use xlink:href="#maa4d14033e" x="116.957311" y="149.13" style="stroke: #000000; stroke-width: 0.5"/>
      </g>
     </g>
     <g id="line2d_9">
      <g>
       <use xlink:href="#m0724eb649d" x="116.957311" y="3.6" style="stroke: #000000; stroke-width: 0.5"/>
      </g>
     </g>
     <g id="text_3">
      <!-- $\mathdefault{5000}$ -->
      <g transform="translate(106.99464 159.548498) scale(0.1 -0.1)">
       <use xlink:href="#CMR17-35" transform="scale(0.996264)"/>
       <use xlink:href="#CMR17-30" transform="translate(45.690477 0) scale(0.996264)"/>
       <use xlink:href="#CMR17-30" transform="translate(91.380954 0) scale(0.996264)"/>
       <use xlink:href="#CMR17-30" transform="translate(137.071431 0) scale(0.996264)"/>
      </g>
     </g>
    </g>
    <g id="xtick_4">
     <g id="line2d_10">
      <path d="M 156.017311 149.13 
L 156.017311 3.6 
" clip-path="url(#pbf17575f18)" style="fill: none; stroke-dasharray: 1.85,0.8; stroke-dashoffset: 0; stroke: #000000; stroke-opacity: 0.5; stroke-width: 0.5"/>
     </g>
     <g id="line2d_11">
      <g>
       <use xlink:href="#maa4d14033e" x="156.017311" y="149.13" style="stroke: #000000; stroke-width: 0.5"/>
      </g>
     </g>
     <g id="line2d_12">
      <g>
       <use xlink:href="#m0724eb649d" x="156.017311" y="3.6" style="stroke: #000000; stroke-width: 0.5"/>
      </g>
     </g>
     <g id="text_4">
      <!-- $\mathdefault{7500}$ -->
      <g transform="translate(146.05464 159.548498) scale(0.1 -0.1)">
       <defs>
        <path id="CMR17-37" d="M 2886 3941 
L 2886 4081 
L 1382 4081 
C 634 4081 621 4165 595 4288 
L 480 4288 
L 294 3094 
L 410 3094 
C 429 3215 474 3540 550 3661 
C 589 3712 1062 3712 1171 3712 
L 2579 3712 
L 1869 2661 
C 1395 1954 1069 999 1069 165 
C 1069 89 1069 -128 1299 -128 
C 1530 -128 1530 89 1530 171 
L 1530 465 
C 1530 1508 1709 2196 2003 2636 
L 2886 3941 
z
" transform="scale(0.015625)"/>
       </defs>
       <use xlink:href="#CMR17-37" transform="scale(0.996264)"/>
       <use xlink:href="#CMR17-35" transform="translate(45.690477 0) scale(0.996264)"/>
       <use xlink:href="#CMR17-30" transform="translate(91.380954 0) scale(0.996264)"/>
       <use xlink:href="#CMR17-30" transform="translate(137.071431 0) scale(0.996264)"/>
      </g>
     </g>
    </g>
    <g id="xtick_5">
     <g id="line2d_13">
      <path d="M 195.077311 149.13 
L 195.077311 3.6 
" clip-path="url(#pbf17575f18)" style="fill: none; stroke-dasharray: 1.85,0.8; stroke-dashoffset: 0; stroke: #000000; stroke-opacity: 0.5; stroke-width: 0.5"/>
     </g>
     <g id="line2d_14">
      <g>
       <use xlink:href="#maa4d14033e" x="195.077311" y="149.13" style="stroke: #000000; stroke-width: 0.5"/>
      </g>
     </g>
     <g id="line2d_15">
      <g>
       <use xlink:href="#m0724eb649d" x="195.077311" y="3.6" style="stroke: #000000; stroke-width: 0.5"/>
      </g>
     </g>
     <g id="text_5">
      <!-- $\mathdefault{10000}$ -->
      <g transform="translate(182.623972 159.548498) scale(0.1 -0.1)">
       <defs>
        <path id="CMR17-31" d="M 1702 4058 
C 1702 4192 1696 4192 1606 4192 
C 1357 3916 979 3827 621 3827 
C 602 3827 570 3827 563 3808 
C 557 3795 557 3782 557 3648 
C 755 3648 1088 3686 1344 3839 
L 1344 461 
C 1344 236 1331 160 781 160 
L 589 160 
L 589 0 
C 896 0 1216 0 1523 0 
C 1830 0 2150 0 2458 0 
L 2458 160 
L 2266 160 
C 1715 160 1702 230 1702 458 
L 1702 4058 
z
" transform="scale(0.015625)"/>
       </defs>
       <use xlink:href="#CMR17-31" transform="scale(0.996264)"/>
       <use xlink:href="#CMR17-30" transform="translate(45.690477 0) scale(0.996264)"/>
       <use xlink:href="#CMR17-30" transform="translate(91.380954 0) scale(0.996264)"/>
       <use xlink:href="#CMR17-30" transform="translate(137.071431 0) scale(0.996264)"/>
       <use xlink:href="#CMR17-30" transform="translate(182.761908 0) scale(0.996264)"/>
      </g>
     </g>
    </g>
    <g id="xtick_6">
     <g id="line2d_16">
      <defs>
       <path id="mf135871f82" d="M 0 0 
L 0 -1.5 
" style="stroke: #000000; stroke-width: 0.5"/>
      </defs>
      <g>
       <use xlink:href="#mf135871f82" x="31.025311" y="149.13" style="stroke: #000000; stroke-width: 0.5"/>
      </g>
     </g>
     <g id="line2d_17">
      <defs>
       <path id="mcbeafcaca2" d="M 0 0 
L 0 1.5 
" style="stroke: #000000; stroke-width: 0.5"/>
      </defs>
      <g>
       <use xlink:href="#mcbeafcaca2" x="31.025311" y="3.6" style="stroke: #000000; stroke-width: 0.5"/>
      </g>
     </g>
    </g>
    <g id="xtick_7">
     <g id="line2d_18">
      <g>
       <use xlink:href="#mf135871f82" x="46.649311" y="149.13" style="stroke: #000000; stroke-width: 0.5"/>
      </g>
     </g>
     <g id="line2d_19">
      <g>
       <use xlink:href="#mcbeafcaca2" x="46.649311" y="3.6" style="stroke: #000000; stroke-width: 0.5"/>
      </g>
     </g>
    </g>
    <g id="xtick_8">
     <g id="line2d_20">
      <g>
       <use xlink:href="#mf135871f82" x="54.461311" y="149.13" style="stroke: #000000; stroke-width: 0.5"/>
      </g>
     </g>
     <g id="line2d_21">
      <g>
       <use xlink:href="#mcbeafcaca2" x="54.461311" y="3.6" style="stroke: #000000; stroke-width: 0.5"/>
      </g>
     </g>
    </g>
    <g id="xtick_9">
     <g id="line2d_22">
      <g>
       <use xlink:href="#mf135871f82" x="62.273311" y="149.13" style="stroke: #000000; stroke-width: 0.5"/>
      </g>
     </g>
     <g id="line2d_23">
      <g>
       <use xlink:href="#mcbeafcaca2" x="62.273311" y="3.6" style="stroke: #000000; stroke-width: 0.5"/>
      </g>
     </g>
    </g>
    <g id="xtick_10">
     <g id="line2d_24">
      <g>
       <use xlink:href="#mf135871f82" x="70.085311" y="149.13" style="stroke: #000000; stroke-width: 0.5"/>
      </g>
     </g>
     <g id="line2d_25">
      <g>
       <use xlink:href="#mcbeafcaca2" x="70.085311" y="3.6" style="stroke: #000000; stroke-width: 0.5"/>
      </g>
     </g>
    </g>
    <g id="xtick_11">
     <g id="line2d_26">
      <g>
       <use xlink:href="#mf135871f82" x="85.709311" y="149.13" style="stroke: #000000; stroke-width: 0.5"/>
      </g>
     </g>
     <g id="line2d_27">
      <g>
       <use xlink:href="#mcbeafcaca2" x="85.709311" y="3.6" style="stroke: #000000; stroke-width: 0.5"/>
      </g>
     </g>
    </g>
    <g id="xtick_12">
     <g id="line2d_28">
      <g>
       <use xlink:href="#mf135871f82" x="93.521311" y="149.13" style="stroke: #000000; stroke-width: 0.5"/>
      </g>
     </g>
     <g id="line2d_29">
      <g>
       <use xlink:href="#mcbeafcaca2" x="93.521311" y="3.6" style="stroke: #000000; stroke-width: 0.5"/>
      </g>
     </g>
    </g>
    <g id="xtick_13">
     <g id="line2d_30">
      <g>
       <use xlink:href="#mf135871f82" x="101.333311" y="149.13" style="stroke: #000000; stroke-width: 0.5"/>
      </g>
     </g>
     <g id="line2d_31">
      <g>
       <use xlink:href="#mcbeafcaca2" x="101.333311" y="3.6" style="stroke: #000000; stroke-width: 0.5"/>
      </g>
     </g>
    </g>
    <g id="xtick_14">
     <g id="line2d_32">
      <g>
       <use xlink:href="#mf135871f82" x="109.145311" y="149.13" style="stroke: #000000; stroke-width: 0.5"/>
      </g>
     </g>
     <g id="line2d_33">
      <g>
       <use xlink:href="#mcbeafcaca2" x="109.145311" y="3.6" style="stroke: #000000; stroke-width: 0.5"/>
      </g>
     </g>
    </g>
    <g id="xtick_15">
     <g id="line2d_34">
      <g>
       <use xlink:href="#mf135871f82" x="124.769311" y="149.13" style="stroke: #000000; stroke-width: 0.5"/>
      </g>
     </g>
     <g id="line2d_35">
      <g>
       <use xlink:href="#mcbeafcaca2" x="124.769311" y="3.6" style="stroke: #000000; stroke-width: 0.5"/>
      </g>
     </g>
    </g>
    <g id="xtick_16">
     <g id="line2d_36">
      <g>
       <use xlink:href="#mf135871f82" x="132.581311" y="149.13" style="stroke: #000000; stroke-width: 0.5"/>
      </g>
     </g>
     <g id="line2d_37">
      <g>
       <use xlink:href="#mcbeafcaca2" x="132.581311" y="3.6" style="stroke: #000000; stroke-width: 0.5"/>
      </g>
     </g>
    </g>
    <g id="xtick_17">
     <g id="line2d_38">
      <g>
       <use xlink:href="#mf135871f82" x="140.393311" y="149.13" style="stroke: #000000; stroke-width: 0.5"/>
      </g>
     </g>
     <g id="line2d_39">
      <g>
       <use xlink:href="#mcbeafcaca2" x="140.393311" y="3.6" style="stroke: #000000; stroke-width: 0.5"/>
      </g>
     </g>
    </g>
    <g id="xtick_18">
     <g id="line2d_40">
      <g>
       <use xlink:href="#mf135871f82" x="148.205311" y="149.13" style="stroke: #000000; stroke-width: 0.5"/>
      </g>
     </g>
     <g id="line2d_41">
      <g>
       <use xlink:href="#mcbeafcaca2" x="148.205311" y="3.6" style="stroke: #000000; stroke-width: 0.5"/>
      </g>
     </g>
    </g>
    <g id="xtick_19">
     <g id="line2d_42">
      <g>
       <use xlink:href="#mf135871f82" x="163.829311" y="149.13" style="stroke: #000000; stroke-width: 0.5"/>
      </g>
     </g>
     <g id="line2d_43">
      <g>
       <use xlink:href="#mcbeafcaca2" x="163.829311" y="3.6" style="stroke: #000000; stroke-width: 0.5"/>
      </g>
     </g>
    </g>
    <g id="xtick_20">
     <g id="line2d_44">
      <g>
       <use xlink:href="#mf135871f82" x="171.641311" y="149.13" style="stroke: #000000; stroke-width: 0.5"/>
      </g>
     </g>
     <g id="line2d_45">
      <g>
       <use xlink:href="#mcbeafcaca2" x="171.641311" y="3.6" style="stroke: #000000; stroke-width: 0.5"/>
      </g>
     </g>
    </g>
    <g id="xtick_21">
     <g id="line2d_46">
      <g>
       <use xlink:href="#mf135871f82" x="179.453311" y="149.13" style="stroke: #000000; stroke-width: 0.5"/>
      </g>
     </g>
     <g id="line2d_47">
      <g>
       <use xlink:href="#mcbeafcaca2" x="179.453311" y="3.6" style="stroke: #000000; stroke-width: 0.5"/>
      </g>
     </g>
    </g>
    <g id="xtick_22">
     <g id="line2d_48">
      <g>
       <use xlink:href="#mf135871f82" x="187.265311" y="149.13" style="stroke: #000000; stroke-width: 0.5"/>
      </g>
     </g>
     <g id="line2d_49">
      <g>
       <use xlink:href="#mcbeafcaca2" x="187.265311" y="3.6" style="stroke: #000000; stroke-width: 0.5"/>
      </g>
     </g>
    </g>
    <g id="xtick_23">
     <g id="line2d_50">
      <g>
       <use xlink:href="#mf135871f82" x="202.889311" y="149.13" style="stroke: #000000; stroke-width: 0.5"/>
      </g>
     </g>
     <g id="line2d_51">
      <g>
       <use xlink:href="#mcbeafcaca2" x="202.889311" y="3.6" style="stroke: #000000; stroke-width: 0.5"/>
      </g>
     </g>
    </g>
    <g id="xtick_24">
     <g id="line2d_52">
      <g>
       <use xlink:href="#mf135871f82" x="210.701311" y="149.13" style="stroke: #000000; stroke-width: 0.5"/>
      </g>
     </g>
     <g id="line2d_53">
      <g>
       <use xlink:href="#mcbeafcaca2" x="210.701311" y="3.6" style="stroke: #000000; stroke-width: 0.5"/>
      </g>
     </g>
    </g>
    <g id="xtick_25">
     <g id="line2d_54">
      <g>
       <use xlink:href="#mf135871f82" x="218.513311" y="149.13" style="stroke: #000000; stroke-width: 0.5"/>
      </g>
     </g>
     <g id="line2d_55">
      <g>
       <use xlink:href="#mcbeafcaca2" x="218.513311" y="3.6" style="stroke: #000000; stroke-width: 0.5"/>
      </g>
     </g>
    </g>
    <g id="xtick_26">
     <g id="line2d_56">
      <g>
       <use xlink:href="#mf135871f82" x="226.325311" y="149.13" style="stroke: #000000; stroke-width: 0.5"/>
      </g>
     </g>
     <g id="line2d_57">
      <g>
       <use xlink:href="#mcbeafcaca2" x="226.325311" y="3.6" style="stroke: #000000; stroke-width: 0.5"/>
      </g>
     </g>
    </g>
    <g id="text_6">
     <!-- $t$ [ns] -->
     <g transform="translate(117.716391 172.957657) scale(0.1 -0.1)">
      <defs>
       <path id="CMMI12-74" d="M 1286 2566 
L 1875 2566 
C 1997 2566 2061 2566 2061 2681 
C 2061 2752 2022 2752 1894 2752 
L 1331 2752 
L 1568 3692 
C 1594 3781 1594 3794 1594 3840 
C 1594 3943 1510 4000 1427 4000 
C 1376 4000 1229 3981 1178 3775 
L 928 2752 
L 326 2752 
C 198 2752 141 2752 141 2630 
C 141 2566 186 2566 307 2566 
L 877 2566 
L 454 881 
C 403 658 384 594 384 511 
C 384 211 595 -64 954 -64 
C 1600 -64 1946 868 1946 912 
C 1946 951 1920 970 1882 970 
C 1869 970 1843 970 1830 944 
C 1824 938 1818 931 1773 829 
C 1638 511 1344 64 973 64 
C 781 64 768 224 768 364 
C 768 370 768 492 787 568 
L 1286 2566 
z
" transform="scale(0.015625)"/>
       <path id="CMR17-5b" d="M 1504 -1600 
L 1504 -1377 
L 902 -1377 
L 902 4544 
L 1504 4544 
L 1504 4767 
L 678 4767 
L 678 -1600 
L 1504 -1600 
z
" transform="scale(0.015625)"/>
       <path id="CMR17-6e" d="M 2656 1933 
C 2656 2259 2592 2790 1837 2790 
C 1331 2790 1069 2400 973 2144 
L 966 2144 
L 966 2790 
L 211 2720 
L 211 2554 
C 589 2554 646 2515 646 2208 
L 646 428 
C 646 184 621 153 211 153 
L 211 -13 
C 365 0 646 0 813 0 
C 979 0 1267 0 1421 -13 
L 1421 153 
C 1011 153 986 178 986 428 
L 986 1658 
C 986 2247 1344 2688 1792 2688 
C 2266 2688 2317 2266 2317 1958 
L 2317 428 
C 2317 184 2291 153 1882 153 
L 1882 -13 
C 2035 0 2317 0 2483 0 
C 2650 0 2938 0 3091 -13 
L 3091 153 
C 2682 153 2656 178 2656 428 
L 2656 1933 
z
" transform="scale(0.015625)"/>
       <path id="CMR17-73" d="M 1978 2697 
C 1978 2813 1971 2819 1933 2819 
C 1907 2819 1901 2813 1824 2717 
C 1805 2691 1747 2626 1728 2601 
C 1523 2819 1235 2819 1126 2819 
C 416 2819 160 2447 160 2076 
C 160 1498 813 1365 998 1325 
C 1402 1243 1542 1217 1677 1101 
C 1760 1025 1901 884 1901 654 
C 1901 384 1747 38 1158 38 
C 602 38 403 460 288 1021 
C 269 1110 269 1117 218 1117 
C 166 1117 160 1110 160 983 
L 160 63 
C 160 -51 166 -58 205 -58 
C 237 -58 243 -51 275 0 
C 314 57 410 211 448 276 
C 576 103 800 -64 1158 -64 
C 1792 -64 2131 283 2131 784 
C 2131 1112 1958 1285 1875 1362 
C 1683 1561 1459 1606 1190 1657 
C 838 1735 390 1825 390 2217 
C 390 2383 480 2737 1126 2737 
C 1811 2737 1850 2094 1862 1888 
C 1869 1856 1901 1849 1920 1849 
C 1978 1849 1978 1869 1978 1978 
L 1978 2697 
z
" transform="scale(0.015625)"/>
       <path id="CMR17-5d" d="M 915 4767 
L 90 4767 
L 90 4544 
L 691 4544 
L 691 -1377 
L 90 -1377 
L 90 -1600 
L 915 -1600 
L 915 4767 
z
" transform="scale(0.015625)"/>
      </defs>
      <use xlink:href="#CMMI12-74" transform="scale(0.996264)"/>
      <use xlink:href="#CMR17-5b" transform="translate(65.302297 0) scale(0.996264)"/>
      <use xlink:href="#CMR17-6e" transform="translate(90.173355 0) scale(0.996264)"/>
      <use xlink:href="#CMR17-73" transform="translate(141.068725 0) scale(0.996264)"/>
      <use xlink:href="#CMR17-5d" transform="translate(176.870062 0) scale(0.996264)"/>
     </g>
    </g>
   </g>
   <g id="matplotlib.axis_2">
    <g id="ytick_1">
     <g id="line2d_58">
      <path d="M 31.025311 149.13 
L 226.325311 149.13 
" clip-path="url(#pbf17575f18)" style="fill: none; stroke-dasharray: 1.85,0.8; stroke-dashoffset: 0; stroke: #000000; stroke-opacity: 0.5; stroke-width: 0.5"/>
     </g>
     <g id="line2d_59">
      <defs>
       <path id="me1f04e7916" d="M 0 0 
L 3 0 
" style="stroke: #000000; stroke-width: 0.5"/>
      </defs>
      <g>
       <use xlink:href="#me1f04e7916" x="31.025311" y="149.13" style="stroke: #000000; stroke-width: 0.5"/>
      </g>
     </g>
     <g id="line2d_60">
      <defs>
       <path id="m6a9e8dda81" d="M 0 0 
L -3 0 
" style="stroke: #000000; stroke-width: 0.5"/>
      </defs>
      <g>
       <use xlink:href="#m6a9e8dda81" x="226.325311" y="149.13" style="stroke: #000000; stroke-width: 0.5"/>
      </g>
     </g>
     <g id="text_7">
      <!-- $\mathdefault{0}$ -->
      <g transform="translate(22.543975 152.589249) scale(0.1 -0.1)">
       <use xlink:href="#CMR17-30" transform="scale(0.996264)"/>
      </g>
     </g>
    </g>
    <g id="ytick_2">
     <g id="line2d_61">
      <path d="M 31.025311 116.79 
L 226.325311 116.79 
" clip-path="url(#pbf17575f18)" style="fill: none; stroke-dasharray: 1.85,0.8; stroke-dashoffset: 0; stroke: #000000; stroke-opacity: 0.5; stroke-width: 0.5"/>
     </g>
     <g id="line2d_62">
      <g>
       <use xlink:href="#me1f04e7916" x="31.025311" y="116.79" style="stroke: #000000; stroke-width: 0.5"/>
      </g>
     </g>
     <g id="line2d_63">
      <g>
       <use xlink:href="#m6a9e8dda81" x="226.325311" y="116.79" style="stroke: #000000; stroke-width: 0.5"/>
      </g>
     </g>
     <g id="text_8">
      <!-- $\mathdefault{20}$ -->
      <g transform="translate(17.56264 120.249249) scale(0.1 -0.1)">
       <use xlink:href="#CMR17-32" transform="scale(0.996264)"/>
       <use xlink:href="#CMR17-30" transform="translate(45.690477 0) scale(0.996264)"/>
      </g>
     </g>
    </g>
    <g id="ytick_3">
     <g id="line2d_64">
      <path d="M 31.025311 84.45 
L 226.325311 84.45 
" clip-path="url(#pbf17575f18)" style="fill: none; stroke-dasharray: 1.85,0.8; stroke-dashoffset: 0; stroke: #000000; stroke-opacity: 0.5; stroke-width: 0.5"/>
     </g>
     <g id="line2d_65">
      <g>
       <use xlink:href="#me1f04e7916" x="31.025311" y="84.45" style="stroke: #000000; stroke-width: 0.5"/>
      </g>
     </g>
     <g id="line2d_66">
      <g>
       <use xlink:href="#m6a9e8dda81" x="226.325311" y="84.45" style="stroke: #000000; stroke-width: 0.5"/>
      </g>
     </g>
     <g id="text_9">
      <!-- $\mathdefault{40}$ -->
      <g transform="translate(17.56264 87.909249) scale(0.1 -0.1)">
       <defs>
        <path id="CMR17-34" d="M 2150 4122 
C 2150 4256 2144 4256 2029 4256 
L 128 1254 
L 128 1088 
L 1779 1088 
L 1779 457 
C 1779 224 1766 160 1318 160 
L 1197 160 
L 1197 0 
C 1402 0 1747 0 1965 0 
C 2182 0 2528 0 2733 0 
L 2733 160 
L 2611 160 
C 2163 160 2150 224 2150 457 
L 2150 1088 
L 2803 1088 
L 2803 1254 
L 2150 1254 
L 2150 4122 
z
M 1798 3703 
L 1798 1254 
L 256 1254 
L 1798 3703 
z
" transform="scale(0.015625)"/>
       </defs>
       <use xlink:href="#CMR17-34" transform="scale(0.996264)"/>
       <use xlink:href="#CMR17-30" transform="translate(45.690477 0) scale(0.996264)"/>
      </g>
     </g>
    </g>
    <g id="ytick_4">
     <g id="line2d_67">
      <path d="M 31.025311 52.11 
L 226.325311 52.11 
" clip-path="url(#pbf17575f18)" style="fill: none; stroke-dasharray: 1.85,0.8; stroke-dashoffset: 0; stroke: #000000; stroke-opacity: 0.5; stroke-width: 0.5"/>
     </g>
     <g id="line2d_68">
      <g>
       <use xlink:href="#me1f04e7916" x="31.025311" y="52.11" style="stroke: #000000; stroke-width: 0.5"/>
      </g>
     </g>
     <g id="line2d_69">
      <g>
       <use xlink:href="#m6a9e8dda81" x="226.325311" y="52.11" style="stroke: #000000; stroke-width: 0.5"/>
      </g>
     </g>
     <g id="text_10">
      <!-- $\mathdefault{60}$ -->
      <g transform="translate(17.56264 55.569249) scale(0.1 -0.1)">
       <defs>
        <path id="CMR17-36" d="M 678 2176 
C 678 3690 1395 4032 1811 4032 
C 1946 4032 2272 4009 2400 3776 
C 2298 3776 2106 3776 2106 3553 
C 2106 3381 2246 3323 2336 3323 
C 2394 3323 2566 3348 2566 3560 
C 2566 3954 2246 4179 1805 4179 
C 1043 4179 243 3390 243 1984 
C 243 253 966 -128 1478 -128 
C 2099 -128 2688 427 2688 1283 
C 2688 2081 2170 2662 1517 2662 
C 1126 2662 838 2407 678 1960 
L 678 2176 
z
M 1478 25 
C 691 25 691 1200 691 1436 
C 691 1896 909 2560 1504 2560 
C 1613 2560 1926 2560 2138 2120 
C 2253 1870 2253 1609 2253 1289 
C 2253 944 2253 690 2118 434 
C 1978 171 1773 25 1478 25 
z
" transform="scale(0.015625)"/>
       </defs>
       <use xlink:href="#CMR17-36" transform="scale(0.996264)"/>
       <use xlink:href="#CMR17-30" transform="translate(45.690477 0) scale(0.996264)"/>
      </g>
     </g>
    </g>
    <g id="ytick_5">
     <g id="line2d_70">
      <path d="M 31.025311 19.77 
L 226.325311 19.77 
" clip-path="url(#pbf17575f18)" style="fill: none; stroke-dasharray: 1.85,0.8; stroke-dashoffset: 0; stroke: #000000; stroke-opacity: 0.5; stroke-width: 0.5"/>
     </g>
     <g id="line2d_71">
      <g>
       <use xlink:href="#me1f04e7916" x="31.025311" y="19.77" style="stroke: #000000; stroke-width: 0.5"/>
      </g>
     </g>
     <g id="line2d_72">
      <g>
       <use xlink:href="#m6a9e8dda81" x="226.325311" y="19.77" style="stroke: #000000; stroke-width: 0.5"/>
      </g>
     </g>
     <g id="text_11">
      <!-- $\mathdefault{80}$ -->
      <g transform="translate(17.56264 23.229249) scale(0.1 -0.1)">
       <defs>
        <path id="CMR17-38" d="M 1741 2264 
C 2144 2467 2554 2773 2554 3263 
C 2554 3841 1990 4179 1472 4179 
C 890 4179 378 3759 378 3180 
C 378 3021 416 2747 666 2505 
C 730 2442 998 2251 1171 2130 
C 883 1983 211 1634 211 934 
C 211 279 838 -128 1459 -128 
C 2144 -128 2720 362 2720 1010 
C 2720 1590 2330 1857 2074 2029 
L 1741 2264 
z
M 902 2822 
C 851 2854 595 3051 595 3351 
C 595 3739 998 4032 1459 4032 
C 1965 4032 2336 3676 2336 3262 
C 2336 2669 1670 2331 1638 2331 
C 1632 2331 1626 2331 1574 2370 
L 902 2822 
z
M 2080 1519 
C 2176 1449 2483 1240 2483 851 
C 2483 381 2010 25 1472 25 
C 890 25 448 438 448 940 
C 448 1443 838 1862 1280 2060 
L 2080 1519 
z
" transform="scale(0.015625)"/>
       </defs>
       <use xlink:href="#CMR17-38" transform="scale(0.996264)"/>
       <use xlink:href="#CMR17-30" transform="translate(45.690477 0) scale(0.996264)"/>
      </g>
     </g>
    </g>
    <g id="ytick_6">
     <g id="line2d_73">
      <defs>
       <path id="m4123d96559" d="M 0 0 
L 1.5 0 
" style="stroke: #000000; stroke-width: 0.5"/>
      </defs>
      <g>
       <use xlink:href="#m4123d96559" x="31.025311" y="141.045" style="stroke: #000000; stroke-width: 0.5"/>
      </g>
     </g>
     <g id="line2d_74">
      <defs>
       <path id="maeead37ddb" d="M 0 0 
L -1.5 0 
" style="stroke: #000000; stroke-width: 0.5"/>
      </defs>
      <g>
       <use xlink:href="#maeead37ddb" x="226.325311" y="141.045" style="stroke: #000000; stroke-width: 0.5"/>
      </g>
     </g>
    </g>
    <g id="ytick_7">
     <g id="line2d_75">
      <g>
       <use xlink:href="#m4123d96559" x="31.025311" y="132.96" style="stroke: #000000; stroke-width: 0.5"/>
      </g>
     </g>
     <g id="line2d_76">
      <g>
       <use xlink:href="#maeead37ddb" x="226.325311" y="132.96" style="stroke: #000000; stroke-width: 0.5"/>
      </g>
     </g>
    </g>
    <g id="ytick_8">
     <g id="line2d_77">
      <g>
       <use xlink:href="#m4123d96559" x="31.025311" y="124.875" style="stroke: #000000; stroke-width: 0.5"/>
      </g>
     </g>
     <g id="line2d_78">
      <g>
       <use xlink:href="#maeead37ddb" x="226.325311" y="124.875" style="stroke: #000000; stroke-width: 0.5"/>
      </g>
     </g>
    </g>
    <g id="ytick_9">
     <g id="line2d_79">
      <g>
       <use xlink:href="#m4123d96559" x="31.025311" y="108.705" style="stroke: #000000; stroke-width: 0.5"/>
      </g>
     </g>
     <g id="line2d_80">
      <g>
       <use xlink:href="#maeead37ddb" x="226.325311" y="108.705" style="stroke: #000000; stroke-width: 0.5"/>
      </g>
     </g>
    </g>
    <g id="ytick_10">
     <g id="line2d_81">
      <g>
       <use xlink:href="#m4123d96559" x="31.025311" y="100.62" style="stroke: #000000; stroke-width: 0.5"/>
      </g>
     </g>
     <g id="line2d_82">
      <g>
       <use xlink:href="#maeead37ddb" x="226.325311" y="100.62" style="stroke: #000000; stroke-width: 0.5"/>
      </g>
     </g>
    </g>
    <g id="ytick_11">
     <g id="line2d_83">
      <g>
       <use xlink:href="#m4123d96559" x="31.025311" y="92.535" style="stroke: #000000; stroke-width: 0.5"/>
      </g>
     </g>
     <g id="line2d_84">
      <g>
       <use xlink:href="#maeead37ddb" x="226.325311" y="92.535" style="stroke: #000000; stroke-width: 0.5"/>
      </g>
     </g>
    </g>
    <g id="ytick_12">
     <g id="line2d_85">
      <g>
       <use xlink:href="#m4123d96559" x="31.025311" y="76.365" style="stroke: #000000; stroke-width: 0.5"/>
      </g>
     </g>
     <g id="line2d_86">
      <g>
       <use xlink:href="#maeead37ddb" x="226.325311" y="76.365" style="stroke: #000000; stroke-width: 0.5"/>
      </g>
     </g>
    </g>
    <g id="ytick_13">
     <g id="line2d_87">
      <g>
       <use xlink:href="#m4123d96559" x="31.025311" y="68.28" style="stroke: #000000; stroke-width: 0.5"/>
      </g>
     </g>
     <g id="line2d_88">
      <g>
       <use xlink:href="#maeead37ddb" x="226.325311" y="68.28" style="stroke: #000000; stroke-width: 0.5"/>
      </g>
     </g>
    </g>
    <g id="ytick_14">
     <g id="line2d_89">
      <g>
       <use xlink:href="#m4123d96559" x="31.025311" y="60.195" style="stroke: #000000; stroke-width: 0.5"/>
      </g>
     </g>
     <g id="line2d_90">
      <g>
       <use xlink:href="#maeead37ddb" x="226.325311" y="60.195" style="stroke: #000000; stroke-width: 0.5"/>
      </g>
     </g>
    </g>
    <g id="ytick_15">
     <g id="line2d_91">
      <g>
       <use xlink:href="#m4123d96559" x="31.025311" y="44.025" style="stroke: #000000; stroke-width: 0.5"/>
      </g>
     </g>
     <g id="line2d_92">
      <g>
       <use xlink:href="#maeead37ddb" x="226.325311" y="44.025" style="stroke: #000000; stroke-width: 0.5"/>
      </g>
     </g>
    </g>
    <g id="ytick_16">
     <g id="line2d_93">
      <g>
       <use xlink:href="#m4123d96559" x="31.025311" y="35.94" style="stroke: #000000; stroke-width: 0.5"/>
      </g>
     </g>
     <g id="line2d_94">
      <g>
       <use xlink:href="#maeead37ddb" x="226.325311" y="35.94" style="stroke: #000000; stroke-width: 0.5"/>
      </g>
     </g>
    </g>
    <g id="ytick_17">
     <g id="line2d_95">
      <g>
       <use xlink:href="#m4123d96559" x="31.025311" y="27.855" style="stroke: #000000; stroke-width: 0.5"/>
      </g>
     </g>
     <g id="line2d_96">
      <g>
       <use xlink:href="#maeead37ddb" x="226.325311" y="27.855" style="stroke: #000000; stroke-width: 0.5"/>
      </g>
     </g>
    </g>
    <g id="ytick_18">
     <g id="line2d_97">
      <g>
       <use xlink:href="#m4123d96559" x="31.025311" y="11.685" style="stroke: #000000; stroke-width: 0.5"/>
      </g>
     </g>
     <g id="line2d_98">
      <g>
       <use xlink:href="#maeead37ddb" x="226.325311" y="11.685" style="stroke: #000000; stroke-width: 0.5"/>
      </g>
     </g>
    </g>
    <g id="ytick_19">
     <g id="line2d_99">
      <g>
       <use xlink:href="#m4123d96559" x="31.025311" y="3.6" style="stroke: #000000; stroke-width: 0.5"/>
      </g>
     </g>
     <g id="line2d_100">
      <g>
       <use xlink:href="#maeead37ddb" x="226.325311" y="3.6" style="stroke: #000000; stroke-width: 0.5"/>
      </g>
     </g>
    </g>
    <g id="text_12">
     <!-- $U_1$ [mV] -->
     <g transform="translate(11.07198 94.315774) rotate(-90) scale(0.1 -0.1)">
      <defs>
       <path id="CMMI12-55" d="M 3238 1474 
C 3014 581 2272 57 1670 57 
C 1210 57 896 363 896 891 
C 896 916 896 1107 966 1387 
L 1594 3887 
C 1651 4103 1664 4167 2118 4167 
C 2234 4167 2298 4167 2298 4282 
C 2298 4352 2240 4352 2202 4352 
C 2086 4352 1952 4352 1830 4352 
L 1075 4352 
C 954 4352 819 4352 698 4352 
C 653 4352 576 4352 576 4231 
C 576 4167 621 4167 742 4167 
C 1126 4167 1126 4116 1126 4046 
C 1126 4008 1082 3824 1050 3715 
L 493 1488 
C 474 1418 435 1246 435 1075 
C 435 374 941 -128 1638 -128 
C 2285 -128 3002 384 3328 1197 
C 3373 1305 3430 1530 3469 1702 
C 3533 1933 3667 2496 3712 2662 
L 3955 3623 
C 4038 3956 4090 4167 4653 4167 
C 4704 4173 4730 4224 4730 4282 
C 4730 4352 4672 4352 4646 4352 
C 4557 4352 4442 4352 4352 4352 
L 4051 4352 
C 3654 4352 3450 4352 3443 4352 
C 3405 4352 3328 4352 3328 4231 
C 3328 4167 3379 4167 3424 4167 
C 3808 4167 3834 4020 3834 3905 
C 3834 3848 3834 3828 3808 3739 
L 3238 1474 
z
" transform="scale(0.015625)"/>
       <path id="CMR17-6d" d="M 4326 1933 
C 4326 2252 4269 2790 3507 2790 
C 3072 2790 2771 2496 2656 2151 
L 2650 2151 
C 2573 2676 2195 2790 1837 2790 
C 1331 2790 1069 2400 973 2144 
L 966 2144 
L 966 2790 
L 211 2720 
L 211 2554 
C 589 2554 646 2515 646 2208 
L 646 428 
C 646 184 621 153 211 153 
L 211 -13 
C 365 0 646 0 813 0 
C 979 0 1267 0 1421 -13 
L 1421 153 
C 1011 153 986 178 986 428 
L 986 1658 
C 986 2247 1344 2688 1792 2688 
C 2266 2688 2317 2266 2317 1958 
L 2317 428 
C 2317 184 2291 153 1882 153 
L 1882 -13 
C 2035 0 2317 0 2483 0 
C 2650 0 2938 0 3091 -13 
L 3091 153 
C 2682 153 2656 178 2656 428 
L 2656 1658 
C 2656 2247 3014 2688 3462 2688 
C 3936 2688 3987 2266 3987 1958 
L 3987 428 
C 3987 184 3962 153 3552 153 
L 3552 -13 
C 3706 0 3987 0 4154 0 
C 4320 0 4608 0 4762 -13 
L 4762 153 
C 4352 153 4326 178 4326 428 
L 4326 1933 
z
" transform="scale(0.015625)"/>
       <path id="CMR17-56" d="M 3776 3745 
C 3834 3886 3936 4160 4365 4160 
L 4365 4332 
C 4218 4319 4051 4319 3891 4319 
C 3738 4319 3475 4319 3328 4332 
L 3328 4160 
C 3648 4160 3661 3936 3661 3898 
C 3661 3827 3642 3783 3622 3732 
L 2362 446 
L 1043 3886 
C 1024 3931 1011 3963 1011 3994 
C 1011 4160 1267 4160 1402 4160 
L 1402 4319 
C 1197 4319 896 4319 685 4319 
C 518 4319 218 4319 64 4332 
L 64 4160 
C 435 4160 506 4135 582 3931 
L 2106 -26 
C 2138 -115 2144 -128 2214 -128 
C 2285 -128 2291 -115 2323 -26 
L 3776 3745 
z
" transform="scale(0.015625)"/>
      </defs>
      <use xlink:href="#CMMI12-55" transform="scale(0.996264)"/>
      <use xlink:href="#CMR17-31" transform="translate(66.252119 -14.943915) scale(0.697382)"/>
      <use xlink:href="#CMR17-5b" transform="translate(128.809399 0) scale(0.996264)"/>
      <use xlink:href="#CMR17-6d" transform="translate(153.680458 0) scale(0.996264)"/>
      <use xlink:href="#CMR17-56" transform="translate(230.600048 0) scale(0.996264)"/>
      <use xlink:href="#CMR17-5d" transform="translate(299.672478 0) scale(0.996264)"/>
     </g>
    </g>
   </g>
   <g id="line2d_101">
    <path d="M 38.837311 149.129999 
L 38.948241 149.102262 
L 38.956053 149.080477 
L 39.052922 148.704738 
L 39.415399 144.563868 
L 41.810558 115.110505 
L 42.010545 113.081239 
L 42.657379 106.952209 
L 44.70881 90.634355 
L 44.885361 89.409999 
L 45.344707 86.389257 
L 45.385329 86.136389 
L 46.782115 77.928304 
L 46.783677 77.930215 
L 46.810238 77.802044 
L 47.024287 76.61225 
L 47.096157 76.255084 
L 47.87267 72.409095 
L 47.94454 72.039534 
L 48.283581 70.378613 
L 48.602311 68.91585 
L 48.855419 67.800074 
L 48.956975 67.360375 
L 49.347575 65.585717 
L 50.158461 62.340403 
L 50.45063 61.199341 
L 50.495939 61.031486 
L 50.683427 60.379302 
L 50.928724 59.487748 
L 51.156835 58.643955 
L 52.055215 55.539584 
L 52.244265 54.967259 
L 53.745731 50.505023 
L 53.812915 50.328378 
L 53.962905 49.900021 
L 54.106646 49.522539 
L 54.337881 48.912917 
L 54.695671 48.059162 
L 55.003463 47.303223 
L 55.037836 47.199641 
L 55.283133 46.637219 
L 55.519055 46.089596 
L 56.019023 44.941995 
L 56.020586 44.942967 
L 56.087769 44.815993 
L 56.286194 44.411356 
L 56.290881 44.412716 
L 57.159575 42.541107 
L 57.1627 42.547768 
L 57.222071 42.427326 
L 57.223634 42.428219 
L 57.236133 42.437714 
L 58.400121 40.370628 
L 58.721975 39.826424 
L 58.790721 39.716652 
L 60.868713 36.533515 
L 60.870275 36.537185 
L 60.943708 36.431104 
L 61.27025 35.947411 
L 61.448363 35.690387 
L 61.449926 35.693165 
L 61.601479 35.487958 
L 61.603041 35.494278 
L 61.682723 35.370829 
L 61.687411 35.372818 
L 62.421739 34.300988 
L 62.437363 34.310663 
L 62.767029 35.299042 
L 64.776275 49.41061 
L 64.799711 49.565549 
L 65.135627 51.71575 
L 65.216872 52.239136 
L 65.619971 54.324056 
L 65.623096 54.320946 
L 65.785586 54.473852 
L 65.907453 54.432616 
L 66.057443 54.325106 
L 66.059006 54.327681 
L 66.069943 54.333468 
L 66.143375 54.237928 
L 66.494915 53.54864 
L 66.549599 53.451007 
L 66.824582 52.747698 
L 70.810264 43.13031 
L 70.811827 43.132436 
L 70.813389 43.136919 
L 70.880572 42.997602 
L 71.235237 42.295723 
L 71.236799 42.29834 
L 71.299295 42.200422 
L 71.305545 42.197353 
L 71.350855 42.097462 
L 71.521156 41.775708 
L 72.113306 40.712713 
L 72.180489 40.587124 
L 72.416411 40.165328 
L 72.417974 40.166702 
L 72.419536 40.168707 
L 72.478907 40.066179 
L 72.561715 39.910881 
L 72.738266 39.624089 
L 72.758577 39.609067 
L 72.769514 39.56651 
L 72.802324 39.535059 
L 73.230422 38.858863 
L 73.469469 38.416091 
L 73.471031 38.418142 
L 73.536652 38.334913 
L 73.542902 38.333373 
L 74.152238 37.429342 
L 74.1538 37.436348 
L 74.23817 37.312895 
L 74.239732 37.312615 
L 74.314727 37.200817 
L 74.531901 36.818305 
L 74.592835 36.73378 
L 74.594397 36.729841 
L 74.808446 36.40818 
L 74.835007 36.415904 
L 74.880316 36.327609 
L 75.113114 36.005787 
L 75.231856 35.838229 
L 75.470903 35.502919 
L 75.549023 35.358693 
L 76.136486 34.530256 
L 77.372344 32.840577 
L 77.511398 32.667337 
L 77.51296 32.669263 
L 77.712947 32.408242 
L 77.802004 32.294579 
L 77.950432 32.116414 
L 77.956682 32.117942 
L 78.050426 31.965601 
L 78.250413 31.692988 
L 78.569143 31.35952 
L 78.57383 31.36347 
L 78.650387 31.273573 
L 78.980054 30.836841 
L 79.037863 30.740411 
L 79.239412 30.483671 
L 79.242537 30.485189 
L 79.301908 30.392467 
L 79.492521 30.161895 
L 79.592515 30.063696 
L 79.959679 29.690296 
L 80.044048 29.642848 
L 80.05186 29.629024 
L 80.184664 29.477456 
L 80.322155 29.315867 
L 80.323718 29.317206 
L 80.464334 29.150609 
L 80.633073 28.927193 
L 80.862746 28.664019 
L 80.884619 28.662877 
L 80.933054 28.585089 
L 80.936179 28.58499 
L 81.104918 28.386465 
L 81.115855 28.394958 
L 81.187725 28.29107 
L 81.447083 27.992496 
L 81.828309 27.625282 
L 81.995486 27.488616 
L 82.042358 27.47406 
L 82.078293 27.422542 
L 82.08298 27.420964 
L 82.234533 27.286028 
L 82.648569 26.861195 
L 82.653256 26.864494 
L 82.793872 26.734131 
L 83.364148 26.129044 
L 83.395396 26.121394 
L 83.446955 26.052188 
L 83.448518 26.052157 
L 84.651566 24.800061 
L 84.653128 24.801545 
L 84.66094 24.814913 
L 84.70625 24.736125 
L 84.746872 24.737393 
L 84.926548 24.546552 
L 84.97342 24.507367 
L 84.957796 24.505862 
L 85.003106 24.467499 
L 85.618691 23.872446 
L 85.621816 23.875476 
L 85.657751 23.847963 
L 85.690562 23.789501 
L 85.692124 23.791798 
L 86.012416 23.499578 
L 86.153032 23.345368 
L 86.298335 23.163494 
L 86.299898 23.16411 
L 86.393642 23.067386 
L 86.587379 22.902521 
L 86.588942 22.904886 
L 86.662375 22.826883 
L 86.671749 22.830125 
L 86.807678 22.658343 
L 86.962355 22.537848 
L 88.481008 21.238423 
L 88.482571 21.242466 
L 88.57319 21.171545 
L 88.709119 21.101542 
L 88.820049 21.009408 
L 88.84036 21.024699 
L 89.037223 20.940668 
L 89.038785 20.94334 
L 89.35439 22.57919 
L 91.090216 38.039823 
L 91.169899 38.655061 
L 92.447942 47.891864 
L 92.505751 48.278479 
L 92.952597 51.121264 
L 93.094775 51.995366 
L 93.37757 53.762846 
L 93.76817 56.006336 
L 94.008779 57.307717 
L 94.479062 59.877253 
L 94.957156 62.409779 
L 95.928969 66.962714 
L 96.372691 68.878873 
L 96.397689 68.988738 
L 97.708543 74.028484 
L 97.710105 74.023503 
L 97.852283 74.467958 
L 98.461619 76.46361 
L 98.558488 76.730149 
L 98.902216 77.82484 
L 100.294315 81.683224 
L 100.434931 82.019089 
L 100.60367 82.421388 
L 101.400494 84.323192 
L 101.402056 84.321754 
L 101.405181 84.318975 
L 101.448928 84.423508 
L 101.45674 84.427827 
L 101.705162 85.002826 
L 101.927023 85.573413 
L 101.928585 85.572659 
L 101.930147 85.569288 
L 101.991081 85.698039 
L 102.4723 86.721877 
L 102.681662 87.215376 
L 102.708223 87.2465 
L 102.694161 87.23739 
L 102.737908 87.310073 
L 102.911335 87.644938 
L 102.912897 87.644046 
L 102.922271 87.67739 
L 102.961331 87.742975 
L 103.397241 88.62972 
L 103.595666 89.105073 
L 103.655037 89.217155 
L 104.300308 90.462945 
L 104.589352 91.042989 
L 104.686221 91.210346 
L 104.883083 91.536652 
L 104.958079 91.658725 
L 105.123693 91.957054 
L 106.381425 94.286905 
L 106.628284 94.738483 
L 106.776712 95.014467 
L 106.995448 95.407332 
L 106.997011 95.402048 
L 107.125127 95.617985 
L 107.346988 95.993927 
L 107.348551 95.993171 
L 107.350113 95.990264 
L 107.412609 96.1007 
L 107.58916 96.421392 
L 107.704778 96.618353 
L 108.001634 97.13472 
L 108.009446 97.128755 
L 108.017258 97.12712 
L 108.05788 97.217039 
L 108.073504 97.219817 
L 108.250055 97.474968 
L 108.987508 98.644369 
L 110.001506 100.231333 
L 110.240553 100.551544 
L 110.513973 100.829949 
L 111.22174 101.883297 
L 111.367043 102.069371 
L 111.368606 102.066489 
L 114.588712 106.074629 
L 114.590275 106.072602 
L 114.719954 106.199962 
L 115.060557 106.525184 
L 115.062119 106.522935 
L 115.374599 106.780634 
L 115.657394 107.080343 
L 116.337038 107.785163 
L 116.415158 107.879042 
L 117.733823 109.313764 
L 117.893188 109.455726 
L 117.894751 109.451445 
L 117.902563 109.449692 
L 117.974433 109.525667 
L 117.975995 109.525731 
L 117.997869 109.51909 
L 118.13536 109.672828 
L 118.25879 109.786087 
L 118.427529 110.018545 
L 118.522835 110.128339 
L 118.879063 110.56468 
L 118.897811 110.56481 
L 118.960307 110.639446 
L 118.96187 110.639813 
L 119.107173 110.817115 
L 119.125922 110.809721 
L 119.200917 110.883553 
L 119.830564 111.585332 
L 119.841501 111.598339 
L 119.913371 111.65426 
L 120.050863 111.790994 
L 120.260224 111.952265 
L 120.450837 112.154652 
L 124.492766 115.657289 
L 124.536513 115.668764 
L 124.588072 115.711918 
L 124.739625 115.871391 
L 125.056792 116.135612 
L 125.24428 116.287709 
L 125.245843 116.285844 
L 125.3224 116.298661 
L 125.309901 116.31227 
L 125.348961 116.324161 
L 125.677065 116.525922 
L 125.697376 116.530644 
L 125.739561 116.582136 
L 125.766122 116.589034 
L 125.912987 116.687149 
L 126.183283 116.883235 
L 126.34421 116.991877 
L 126.345772 116.990292 
L 126.386395 116.981711 
L 126.445766 117.040061 
L 126.594194 117.176307 
L 126.600443 117.170616 
L 126.673876 117.271982 
L 126.926985 117.474996 
L 128.033164 118.389647 
L 128.034727 118.383629 
L 128.105035 118.443912 
L 128.128471 118.43747 
L 128.262837 118.52351 
L 128.836238 118.894041 
L 128.8378 118.892228 
L 128.839363 118.887862 
L 128.926857 118.970628 
L 129.19559 119.186047 
L 129.247149 119.230747 
L 129.219026 119.217444 
L 129.27371 119.264093 
L 129.520569 119.441108 
L 129.522131 119.438215 
L 129.578378 119.458608 
L 129.542443 119.458884 
L 129.615875 119.493729 
L 129.743992 119.56516 
L 129.751804 119.554721 
L 130.065847 119.835837 
L 130.186151 119.901342 
L 130.189276 119.912617 
L 130.579876 120.226774 
L 131.250146 120.731536 
L 131.42201 120.835716 
L 131.548564 120.947537 
L 131.743864 121.080484 
L 131.750114 121.076143 
L 131.771987 121.061619 
L 131.839171 121.142153 
L 131.846983 121.14037 
L 132.090717 121.262057 
L 132.225083 121.342276 
L 132.226646 121.335118 
L 132.317265 121.440159 
L 132.457881 121.575122 
L 132.462568 121.571148 
L 132.640682 121.65721 
L 132.642244 121.653484 
L 132.735988 121.690714 
L 132.684429 121.682229 
L 132.7438 121.700775 
L 133.060967 121.901375 
L 133.265642 122.021193 
L 133.267204 122.016543 
L 133.357823 122.050058 
L 133.371885 122.067106 
L 133.596871 122.22001 
L 133.599995 122.215903 
L 133.87654 122.366271 
L 133.878103 122.361459 
L 133.965597 122.414359 
L 133.971847 122.420942 
L 134.243704 122.636926 
L 134.368696 122.710325 
L 134.509312 122.735302 
L 134.513999 122.731202 
L 134.768671 122.904704 
L 134.932723 123.034039 
L 135.099899 123.166066 
L 135.307699 123.314111 
L 135.934221 123.761575 
L 136.037339 123.809093 
L 136.040464 123.815996 
L 136.212328 123.931216 
L 136.221703 123.921123 
L 136.246701 123.919293 
L 136.301385 123.961897 
L 136.323259 123.965528 
L 136.423252 124.016165 
L 136.427939 124.025031 
L 136.563868 124.08751 
L 136.809165 124.193819 
L 136.92947 124.236785 
L 136.932595 124.23216 
L 136.999778 124.300233 
L 137.021651 124.30597 
L 137.301321 124.53535 
L 137.32007 124.530239 
L 137.39819 124.608727 
L 137.795039 124.722941 
L 137.805976 124.714729 
L 137.929406 124.770214 
L 138.254385 124.887885 
L 138.443435 124.975145 
L 138.444998 124.972766 
L 138.646547 125.053822 
L 138.64811 125.051445 
L 138.649672 125.04668 
L 138.738729 125.113224 
L 138.746541 125.10563 
L 138.874658 125.181567 
L 138.91528 125.191944 
L 138.95434 125.26103 
L 139.198075 125.388312 
L 139.376188 125.461869 
L 139.505867 125.486328 
L 140.187074 125.77891 
L 140.341751 125.884357 
L 140.885467 126.154041 
L 140.888591 126.151433 
L 141.090141 126.242207 
L 141.208883 126.271656 
L 141.429182 126.407761 
L 141.679166 126.515589 
L 141.813532 126.608167 
L 142.043205 126.690764 
L 142.044767 126.687849 
L 142.151011 126.709587 
L 142.15726 126.71899 
L 142.35256 126.792896 
L 142.357247 126.788064 
L 144.494611 127.491753 
L 144.633664 127.554415 
L 144.638351 127.550786 
L 144.908647 127.665847 
L 145.049263 127.735206 
L 145.050825 127.733003 
L 145.096135 127.730794 
L 145.150819 127.782307 
L 145.539856 127.922097 
L 145.682035 127.996683 
L 145.882022 128.106888 
L 146.011701 128.145559 
L 146.013263 128.144699 
L 146.233562 128.245644 
L 146.388239 128.300266 
L 146.45386 128.324272 
L 146.483546 128.35875 
L 146.602288 128.384731 
L 146.605413 128.389591 
L 146.855397 128.532457 
L 146.956953 128.576661 
L 146.960078 128.580029 
L 147.099131 128.659864 
L 147.100694 128.657628 
L 147.197563 128.712151 
L 147.324117 128.766965 
L 147.333491 128.761232 
L 147.389738 128.779583 
L 147.349115 128.773169 
L 147.43036 128.811717 
L 147.611599 128.944462 
L 147.433485 128.809416 
L 147.616286 128.940472 
L 147.713155 128.961304 
L 147.722529 128.978178 
L 147.888143 129.029587 
L 147.992824 129.074275 
L 147.995949 129.077579 
L 148.177187 129.171796 
L 148.180312 129.161063 
L 148.344364 129.212758 
L 148.463107 129.24454 
L 148.466231 129.242534 
L 148.653719 129.330063 
L 148.71934 129.387433 
L 148.659969 129.326383 
L 148.772462 129.359977 
L 148.852144 129.369307 
L 148.88183 129.397462 
L 149.072443 129.492758 
L 149.074005 129.490403 
L 149.178686 129.484461 
L 149.186498 129.488776 
L 149.309927 129.530182 
L 149.208371 129.474955 
L 149.316177 129.525996 
L 149.778647 129.624857 
L 149.783335 129.610585 
L 149.791147 129.603372 
L 149.856767 129.655266 
L 149.884891 129.658732 
L 150.059879 129.696191 
L 150.072379 129.681647 
L 150.16456 129.733149 
L 150.305176 129.796534 
L 150.433293 129.829631 
L 150.612969 129.926129 
L 150.947323 130.020513 
L 151.077002 130.047908 
L 151.080127 130.039462 
L 151.273864 130.135382 
L 151.487913 130.196047 
L 151.491038 130.193742 
L 151.656652 130.251082 
L 151.741022 130.26094 
L 151.762895 130.291907 
L 151.905074 130.371026 
L 154.678334 131.028086 
L 154.684583 131.039081 
L 154.825199 131.035536 
L 154.96894 131.043208 
L 155.045498 131.04313 
L 155.000188 131.05924 
L 155.079871 131.062495 
L 155.272046 131.117529 
L 155.948565 131.345586 
L 156.073557 131.409376 
L 156.356351 131.476053 
L 156.601648 131.536507 
L 156.686018 131.517784 
L 156.718828 131.531099 
L 157.731263 131.830529 
L 157.864067 131.843063 
L 157.868755 131.851788 
L 158.065617 131.944765 
L 158.421844 132.043808 
L 158.457779 132.031131 
L 158.542149 132.079464 
L 158.574959 132.097718 
L 158.659329 132.077582 
L 159.157735 132.223549 
L 159.174921 132.210824 
L 159.298351 132.236655 
L 159.309287 132.234401 
L 159.338973 132.282196 
L 159.399907 132.279557 
L 159.512399 132.270973 
L 159.513962 132.268646 
L 159.743635 132.369837 
L 159.895187 132.414139 
L 159.899875 132.409429 
L 160.023304 132.448769 
L 161.006054 132.647255 
L 161.132608 132.665775 
L 161.281036 132.711461 
L 161.141983 132.658759 
L 161.285723 132.704475 
L 161.387279 132.701964 
L 161.410715 132.723111 
L 161.565393 132.758504 
L 161.566955 132.76318 
L 161.723195 132.795631 
L 161.72632 132.790543 
L 166.143225 133.561189 
L 166.226032 133.558534 
L 166.168223 133.585668 
L 166.252593 133.584051 
L 166.449455 133.654006 
L 166.45258 133.647386 
L 166.991608 133.758264 
L 167.100976 133.781781 
L 167.111913 133.768839 
L 167.55251 133.876163 
L 167.652503 133.900579 
L 167.66969 133.878882 
L 168.641503 134.070767 
L 168.655564 134.080651 
L 168.743059 134.043908 
L 168.750871 134.053509 
L 168.903986 134.13041 
L 169.647688 134.238244 
L 169.744557 134.26011 
L 169.663312 134.230141 
L 169.766431 134.249731 
L 169.839863 134.252666 
L 169.878923 134.276997 
L 169.977355 134.323421 
L 170.008603 134.306348 
L 170.127345 134.291774 
L 170.128907 134.294168 
L 170.214839 134.328767 
L 170.147656 134.313144 
L 170.228901 134.345369 
L 170.689809 134.445949 
L 170.692934 134.442118 
L 170.819488 134.441597 
L 171.181965 134.449165 
L 171.18509 134.446112 
L 171.339767 134.465826 
L 171.45226 134.491518 
L 171.453823 134.493196 
L 171.750679 134.465087 
L 171.864734 134.465146 
L 171.866296 134.467457 
L 172.031911 134.500783 
L 172.035035 134.497028 
L 172.125655 134.498619 
L 172.147528 134.506822 
L 172.289707 134.544615 
L 172.295956 134.534995 
L 172.417823 134.537946 
L 173.513066 134.653282 
L 173.636495 134.67595 
L 173.747426 134.695529 
L 173.752113 134.699231 
L 174.263018 134.729599 
L 174.372386 134.736201 
L 174.30989 134.754504 
L 174.375511 134.741471 
L 174.392697 134.729748 
L 174.508315 134.752766 
L 174.662992 134.742537 
L 174.77861 134.76636 
L 174.784859 134.761571 
L 174.906727 134.778591 
L 175.062967 134.823659 
L 175.064529 134.822448 
L 175.155148 134.808757 
L 175.092652 134.828384 
L 175.175459 134.824683 
L 176.333198 135.020624 
L 176.353509 135.003787 
L 176.395694 135.039063 
L 176.441003 135.043288 
L 176.600368 135.088989 
L 176.836291 135.137229 
L 176.919098 135.130106 
L 176.936284 135.102251 
L 176.939409 135.101744 
L 177.048777 135.132226 
L 177.064401 135.124153 
L 177.183143 135.179071 
L 177.644051 135.168555 
L 177.806541 135.254475 
L 177.940907 135.25508 
L 177.944032 135.248025 
L 178.05965 135.250341 
L 178.172143 135.265801 
L 178.17683 135.25971 
L 178.295572 135.249013 
L 178.301822 135.238242 
L 178.403378 135.22622 
L 178.329945 135.256732 
L 178.420564 135.23551 
L 178.576804 135.290051 
L 178.579929 135.300181 
L 178.800227 135.332271 
L 178.936156 135.344162 
L 178.940843 135.338902 
L 179.050211 135.316724 
L 179.058023 135.337585 
L 180.229823 135.409907 
L 180.236073 135.402553 
L 180.361065 135.424255 
L 180.465746 135.466325 
L 180.954777 135.575849 
L 181.111017 135.636686 
L 181.120391 135.626403 
L 181.676606 135.739737 
L 181.804723 135.792631 
L 181.815659 135.784115 
L 181.957838 135.767211 
L 182.107828 135.797816 
L 182.204697 135.819745 
L 182.175011 135.823633 
L 182.214071 135.830151 
L 182.346875 135.867916 
L 182.225008 135.823628 
L 182.354687 135.861651 
L 185.923209 136.091025 
L 186.046639 136.135911 
L 186.729407 136.067819 
L 186.835651 136.048514 
L 186.732532 136.070266 
L 186.854399 136.074335 
L 186.985641 136.11828 
L 186.987203 136.113938 
L 187.148131 136.165064 
L 187.262186 136.150973 
L 187.176254 136.177536 
L 187.266873 136.158459 
L 187.773091 136.234761 
L 187.860585 136.274283 
L 187.888708 136.24927 
L 188.948015 136.334033 
L 188.985513 136.337835 
L 189.051134 136.294729 
L 189.052696 136.296655 
L 189.101131 136.26649 
L 189.168314 136.297653 
L 189.335491 136.350179 
L 189.344865 136.357644 
L 189.479231 136.340667 
L 189.5761 136.370956 
L 189.491731 136.331872 
L 189.610473 136.338874 
L 191.494727 136.443732 
L 191.593159 136.455511 
L 191.60722 136.440741 
L 192.407169 136.518952 
L 192.422793 136.527711 
L 192.489976 136.491069 
L 192.516537 136.502396 
L 192.62903 136.52323 
L 192.630592 136.525484 
L 192.763396 136.575263 
L 194.330483 136.505279 
L 194.444539 136.517147 
L 194.625777 136.527824 
L 194.763268 136.493492 
L 194.774205 136.503531 
L 194.913259 136.522207 
L 194.914821 136.518676 
L 194.988254 136.501438 
L 195.027314 136.519735 
L 195.150743 136.506563 
L 195.44135 136.574405 
L 195.442912 136.571983 
L 195.530407 136.5712 
L 195.555405 136.580801 
L 195.694459 136.611015 
L 195.700708 136.602945 
L 195.838199 136.587814 
L 195.841324 136.591969 
L 196.458472 136.709021 
L 196.586589 136.70665 
L 196.772515 136.715177 
L 196.775639 136.72642 
L 198.927064 136.86334 
L 199.020808 136.866454 
L 199.041119 136.858168 
L 201.836253 136.97644 
L 201.973744 136.969499 
L 202.111235 136.925991 
L 203.023677 137.03311 
L 203.115859 137.012342 
L 203.095547 137.003561 
L 203.12992 137.002916 
L 205.098544 137.046762 
L 205.307906 137.028616 
L 205.482895 137.069969 
L 205.484457 137.065687 
L 206.290655 137.169566 
L 206.435959 137.199977 
L 206.440646 137.195953 
L 208.229594 137.291822 
L 208.237406 137.303244 
L 208.360835 137.293048 
L 208.513951 137.327711 
L 208.603007 137.302699 
L 208.629568 137.326467 
L 208.815494 137.388684 
L 208.823306 137.376824 
L 208.963922 137.363606 
L 209.101413 137.371916 
L 209.26859 137.379598 
L 209.404519 137.407878 
L 209.413893 137.400341 
L 209.546697 137.407072 
L 209.670127 137.448216 
L 209.674814 137.439254 
L 209.802931 137.437758 
L 209.871676 137.437019 
L 209.901362 137.410442 
L 209.912299 137.417773 
L 210.035728 137.440408 
L 210.382581 137.436129 
L 210.868487 137.421285 
L 210.957544 137.429345 
L 210.984105 137.395527 
L 211.10441 137.377622 
L 211.107535 137.380489 
L 215.880667 137.306319 
L 215.918164 137.292484 
L 215.972848 137.327508 
L 215.990035 137.318379 
L 216.130651 137.338324 
L 216.132213 137.335878 
L 216.280641 137.327746 
L 217.39307 137.445752 
L 217.519624 137.501205 
L 217.635242 137.501651 
L 217.646179 137.492163 
L 217.73836 137.511079 
L 217.664927 137.508719 
L 217.752422 137.530374 
L 218.357071 137.561293 
L 218.516435 137.571715 
L 218.653927 137.575892 
L 218.658614 137.568789 
L 219.196079 137.679446 
L 219.352319 137.719647 
L 222.272445 137.798989 
L 222.363064 137.771254 
L 222.278695 137.794319 
L 222.377126 137.757618 
L 222.764601 137.778677 
L 222.880219 137.804591 
L 225.672227 137.914197 
L 225.78472 137.928279 
L 225.800344 137.916766 
L 225.983145 137.959628 
L 226.059703 137.971424 
L 226.095638 137.948598 
L 226.326873 137.990362 
L 226.326873 137.990362 
" clip-path="url(#pbf17575f18)" style="fill: none; stroke: #4477aa; stroke-linecap: square"/>
   </g>
   <g id="LineCollection_1">
    <path d="M 38.837311 149.13 
L 38.837311 52.11 
" clip-path="url(#pbf17575f18)" style="fill: none; stroke-dasharray: 3.7,1.6; stroke-dashoffset: 0; stroke: #000000"/>
    <path d="M 62.273311 149.13 
L 62.273311 52.11 
" clip-path="url(#pbf17575f18)" style="fill: none; stroke-dasharray: 3.7,1.6; stroke-dashoffset: 0; stroke: #000000"/>
    <path d="M 65.398111 149.13 
L 65.398111 52.11 
" clip-path="url(#pbf17575f18)" style="fill: none; stroke-dasharray: 3.7,1.6; stroke-dashoffset: 0; stroke: #000000"/>
    <path d="M 88.834111 149.13 
L 88.834111 52.11 
" clip-path="url(#pbf17575f18)" style="fill: none; stroke-dasharray: 3.7,1.6; stroke-dashoffset: 0; stroke: #000000"/>
   </g>
   <g id="patch_3">
    <path d="M 31.025311 149.13 
L 31.025311 3.6 
" style="fill: none; stroke: #000000; stroke-width: 0.5; stroke-linejoin: miter; stroke-linecap: square"/>
   </g>
   <g id="patch_4">
    <path d="M 226.325311 149.13 
L 226.325311 3.6 
" style="fill: none; stroke: #000000; stroke-width: 0.5; stroke-linejoin: miter; stroke-linecap: square"/>
   </g>
   <g id="patch_5">
    <path d="M 31.025311 149.13 
L 226.325311 149.13 
" style="fill: none; stroke: #000000; stroke-width: 0.5; stroke-linejoin: miter; stroke-linecap: square"/>
   </g>
   <g id="patch_6">
    <path d="M 31.025311 3.6 
L 226.325311 3.6 
" style="fill: none; stroke: #000000; stroke-width: 0.5; stroke-linejoin: miter; stroke-linecap: square"/>
   </g>
  </g>
 </g>
 <defs>
  <clipPath id="pbf17575f18">
   <rect x="31.025311" y="3.6" width="195.3" height="145.53"/>
  </clipPath>
 </defs>
</svg>
