<?xml version="1.0" encoding="utf-8" standalone="no"?>
<!DOCTYPE svg PUBLIC "-//W3C//DTD SVG 1.1//EN"
  "http://www.w3.org/Graphics/SVG/1.1/DTD/svg11.dtd">
<svg xmlns:xlink="http://www.w3.org/1999/xlink" width="229.925311pt" height="179.048317pt" viewBox="0 0 229.925311 179.048317" xmlns="http://www.w3.org/2000/svg" version="1.1">
 <metadata>
  <rdf:RDF xmlns:dc="http://purl.org/dc/elements/1.1/" xmlns:cc="http://creativecommons.org/ns#" xmlns:rdf="http://www.w3.org/1999/02/22-rdf-syntax-ns#">
   <cc:Work>
    <dc:type rdf:resource="http://purl.org/dc/dcmitype/StillImage"/>
    <dc:date>2025-04-25T13:10:34.946820</dc:date>
    <dc:format>image/svg+xml</dc:format>
    <dc:creator>
     <cc:Agent>
      <dc:title>Matplotlib v3.9.2, https://matplotlib.org/</dc:title>
     </cc:Agent>
    </dc:creator>
   </cc:Work>
  </rdf:RDF>
 </metadata>
 <defs>
  <style type="text/css">*{stroke-linejoin: round; stroke-linecap: butt}</style>
 </defs>
 <g id="figure_1">
  <g id="patch_1">
   <path d="M 0 179.048317 
L 229.925311 179.048317 
L 229.925311 0 
L 0 0 
L 0 179.048317 
z
" style="fill: none"/>
  </g>
  <g id="axes_1">
   <g id="patch_2">
    <path d="M 31.025311 149.13 
L 226.325311 149.13 
L 226.325311 3.6 
L 31.025311 3.6 
L 31.025311 149.13 
z
" style="fill: none"/>
   </g>
   <g id="matplotlib.axis_1">
    <g id="xtick_1">
     <g id="line2d_1">
      <path d="M 38.837311 149.13 
L 38.837311 3.6 
" clip-path="url(#p1af860b3fc)" style="fill: none; stroke-dasharray: 1.85,0.8; stroke-dashoffset: 0; stroke: #000000; stroke-opacity: 0.5; stroke-width: 0.5"/>
     </g>
     <g id="line2d_2">
      <defs>
       <path id="m0dd47bab27" d="M 0 0 
L 0 -3 
" style="stroke: #000000; stroke-width: 0.5"/>
      </defs>
      <g>
       <use xlink:href="#m0dd47bab27" x="38.837311" y="149.13" style="stroke: #000000; stroke-width: 0.5"/>
      </g>
     </g>
     <g id="line2d_3">
      <defs>
       <path id="md65c684400" d="M 0 0 
L 0 3 
" style="stroke: #000000; stroke-width: 0.5"/>
      </defs>
      <g>
       <use xlink:href="#md65c684400" x="38.837311" y="3.6" style="stroke: #000000; stroke-width: 0.5"/>
      </g>
     </g>
     <g id="text_1">
      <!-- $\mathdefault{0}$ -->
      <g transform="translate(36.346643 159.548498) scale(0.1 -0.1)">
       <defs>
        <path id="CMR17-30" d="M 2688 2025 
C 2688 2416 2682 3080 2413 3591 
C 2176 4039 1798 4198 1466 4198 
C 1158 4198 768 4058 525 3597 
C 269 3118 243 2524 243 2025 
C 243 1661 250 1106 448 619 
C 723 -39 1216 -128 1466 -128 
C 1760 -128 2208 -7 2470 600 
C 2662 1042 2688 1559 2688 2025 
z
M 1466 -26 
C 1056 -26 813 325 723 812 
C 653 1188 653 1738 653 2096 
C 653 2588 653 2997 736 3387 
C 858 3929 1216 4096 1466 4096 
C 1728 4096 2067 3923 2189 3400 
C 2272 3036 2278 2607 2278 2096 
C 2278 1680 2278 1169 2202 792 
C 2067 95 1690 -26 1466 -26 
z
" transform="scale(0.015625)"/>
       </defs>
       <use xlink:href="#CMR17-30" transform="scale(0.996264)"/>
      </g>
     </g>
    </g>
    <g id="xtick_2">
     <g id="line2d_4">
      <path d="M 77.897311 149.13 
L 77.897311 3.6 
" clip-path="url(#p1af860b3fc)" style="fill: none; stroke-dasharray: 1.85,0.8; stroke-dashoffset: 0; stroke: #000000; stroke-opacity: 0.5; stroke-width: 0.5"/>
     </g>
     <g id="line2d_5">
      <g>
       <use xlink:href="#m0dd47bab27" x="77.897311" y="149.13" style="stroke: #000000; stroke-width: 0.5"/>
      </g>
     </g>
     <g id="line2d_6">
      <g>
       <use xlink:href="#md65c684400" x="77.897311" y="3.6" style="stroke: #000000; stroke-width: 0.5"/>
      </g>
     </g>
     <g id="text_2">
      <!-- $\mathdefault{2500}$ -->
      <g transform="translate(67.93464 159.548498) scale(0.1 -0.1)">
       <defs>
        <path id="CMR17-32" d="M 2669 989 
L 2554 989 
C 2490 536 2438 459 2413 420 
C 2381 369 1920 369 1830 369 
L 602 369 
C 832 619 1280 1072 1824 1597 
C 2214 1967 2669 2402 2669 3035 
C 2669 3790 2067 4224 1395 4224 
C 691 4224 262 3604 262 3030 
C 262 2780 448 2748 525 2748 
C 589 2748 781 2787 781 3010 
C 781 3207 614 3264 525 3264 
C 486 3264 448 3258 422 3245 
C 544 3790 915 4058 1306 4058 
C 1862 4058 2227 3617 2227 3035 
C 2227 2479 1901 2000 1536 1584 
L 262 146 
L 262 0 
L 2515 0 
L 2669 989 
z
" transform="scale(0.015625)"/>
        <path id="CMR17-35" d="M 730 3692 
C 794 3666 1056 3584 1325 3584 
C 1920 3584 2246 3911 2432 4100 
C 2432 4157 2432 4192 2394 4192 
C 2387 4192 2374 4192 2323 4163 
C 2099 4058 1837 3973 1517 3973 
C 1325 3973 1037 3999 723 4139 
C 653 4171 640 4171 634 4171 
C 602 4171 595 4164 595 4037 
L 595 2203 
C 595 2089 595 2057 659 2057 
C 691 2057 704 2070 736 2114 
C 941 2401 1222 2522 1542 2522 
C 1766 2522 2246 2382 2246 1289 
C 2246 1085 2246 715 2054 421 
C 1894 159 1645 25 1370 25 
C 947 25 518 320 403 814 
C 429 807 480 795 506 795 
C 589 795 749 840 749 1038 
C 749 1210 627 1280 506 1280 
C 358 1280 262 1190 262 1011 
C 262 454 704 -128 1382 -128 
C 2042 -128 2669 440 2669 1264 
C 2669 2030 2170 2624 1549 2624 
C 1222 2624 947 2503 730 2274 
L 730 3692 
z
" transform="scale(0.015625)"/>
       </defs>
       <use xlink:href="#CMR17-32" transform="scale(0.996264)"/>
       <use xlink:href="#CMR17-35" transform="translate(45.690477 0) scale(0.996264)"/>
       <use xlink:href="#CMR17-30" transform="translate(91.380954 0) scale(0.996264)"/>
       <use xlink:href="#CMR17-30" transform="translate(137.071431 0) scale(0.996264)"/>
      </g>
     </g>
    </g>
    <g id="xtick_3">
     <g id="line2d_7">
      <path d="M 116.957311 149.13 
L 116.957311 3.6 
" clip-path="url(#p1af860b3fc)" style="fill: none; stroke-dasharray: 1.85,0.8; stroke-dashoffset: 0; stroke: #000000; stroke-opacity: 0.5; stroke-width: 0.5"/>
     </g>
     <g id="line2d_8">
      <g>
       <use xlink:href="#m0dd47bab27" x="116.957311" y="149.13" style="stroke: #000000; stroke-width: 0.5"/>
      </g>
     </g>
     <g id="line2d_9">
      <g>
       <use xlink:href="#md65c684400" x="116.957311" y="3.6" style="stroke: #000000; stroke-width: 0.5"/>
      </g>
     </g>
     <g id="text_3">
      <!-- $\mathdefault{5000}$ -->
      <g transform="translate(106.99464 159.548498) scale(0.1 -0.1)">
       <use xlink:href="#CMR17-35" transform="scale(0.996264)"/>
       <use xlink:href="#CMR17-30" transform="translate(45.690477 0) scale(0.996264)"/>
       <use xlink:href="#CMR17-30" transform="translate(91.380954 0) scale(0.996264)"/>
       <use xlink:href="#CMR17-30" transform="translate(137.071431 0) scale(0.996264)"/>
      </g>
     </g>
    </g>
    <g id="xtick_4">
     <g id="line2d_10">
      <path d="M 156.017311 149.13 
L 156.017311 3.6 
" clip-path="url(#p1af860b3fc)" style="fill: none; stroke-dasharray: 1.85,0.8; stroke-dashoffset: 0; stroke: #000000; stroke-opacity: 0.5; stroke-width: 0.5"/>
     </g>
     <g id="line2d_11">
      <g>
       <use xlink:href="#m0dd47bab27" x="156.017311" y="149.13" style="stroke: #000000; stroke-width: 0.5"/>
      </g>
     </g>
     <g id="line2d_12">
      <g>
       <use xlink:href="#md65c684400" x="156.017311" y="3.6" style="stroke: #000000; stroke-width: 0.5"/>
      </g>
     </g>
     <g id="text_4">
      <!-- $\mathdefault{7500}$ -->
      <g transform="translate(146.05464 159.548498) scale(0.1 -0.1)">
       <defs>
        <path id="CMR17-37" d="M 2886 3941 
L 2886 4081 
L 1382 4081 
C 634 4081 621 4165 595 4288 
L 480 4288 
L 294 3094 
L 410 3094 
C 429 3215 474 3540 550 3661 
C 589 3712 1062 3712 1171 3712 
L 2579 3712 
L 1869 2661 
C 1395 1954 1069 999 1069 165 
C 1069 89 1069 -128 1299 -128 
C 1530 -128 1530 89 1530 171 
L 1530 465 
C 1530 1508 1709 2196 2003 2636 
L 2886 3941 
z
" transform="scale(0.015625)"/>
       </defs>
       <use xlink:href="#CMR17-37" transform="scale(0.996264)"/>
       <use xlink:href="#CMR17-35" transform="translate(45.690477 0) scale(0.996264)"/>
       <use xlink:href="#CMR17-30" transform="translate(91.380954 0) scale(0.996264)"/>
       <use xlink:href="#CMR17-30" transform="translate(137.071431 0) scale(0.996264)"/>
      </g>
     </g>
    </g>
    <g id="xtick_5">
     <g id="line2d_13">
      <path d="M 195.077311 149.13 
L 195.077311 3.6 
" clip-path="url(#p1af860b3fc)" style="fill: none; stroke-dasharray: 1.85,0.8; stroke-dashoffset: 0; stroke: #000000; stroke-opacity: 0.5; stroke-width: 0.5"/>
     </g>
     <g id="line2d_14">
      <g>
       <use xlink:href="#m0dd47bab27" x="195.077311" y="149.13" style="stroke: #000000; stroke-width: 0.5"/>
      </g>
     </g>
     <g id="line2d_15">
      <g>
       <use xlink:href="#md65c684400" x="195.077311" y="3.6" style="stroke: #000000; stroke-width: 0.5"/>
      </g>
     </g>
     <g id="text_5">
      <!-- $\mathdefault{10000}$ -->
      <g transform="translate(182.623972 159.548498) scale(0.1 -0.1)">
       <defs>
        <path id="CMR17-31" d="M 1702 4058 
C 1702 4192 1696 4192 1606 4192 
C 1357 3916 979 3827 621 3827 
C 602 3827 570 3827 563 3808 
C 557 3795 557 3782 557 3648 
C 755 3648 1088 3686 1344 3839 
L 1344 461 
C 1344 236 1331 160 781 160 
L 589 160 
L 589 0 
C 896 0 1216 0 1523 0 
C 1830 0 2150 0 2458 0 
L 2458 160 
L 2266 160 
C 1715 160 1702 230 1702 458 
L 1702 4058 
z
" transform="scale(0.015625)"/>
       </defs>
       <use xlink:href="#CMR17-31" transform="scale(0.996264)"/>
       <use xlink:href="#CMR17-30" transform="translate(45.690477 0) scale(0.996264)"/>
       <use xlink:href="#CMR17-30" transform="translate(91.380954 0) scale(0.996264)"/>
       <use xlink:href="#CMR17-30" transform="translate(137.071431 0) scale(0.996264)"/>
       <use xlink:href="#CMR17-30" transform="translate(182.761908 0) scale(0.996264)"/>
      </g>
     </g>
    </g>
    <g id="xtick_6">
     <g id="line2d_16">
      <defs>
       <path id="m2cff2da6ab" d="M 0 0 
L 0 -1.5 
" style="stroke: #000000; stroke-width: 0.5"/>
      </defs>
      <g>
       <use xlink:href="#m2cff2da6ab" x="31.025311" y="149.13" style="stroke: #000000; stroke-width: 0.5"/>
      </g>
     </g>
     <g id="line2d_17">
      <defs>
       <path id="mb0d008cb87" d="M 0 0 
L 0 1.5 
" style="stroke: #000000; stroke-width: 0.5"/>
      </defs>
      <g>
       <use xlink:href="#mb0d008cb87" x="31.025311" y="3.6" style="stroke: #000000; stroke-width: 0.5"/>
      </g>
     </g>
    </g>
    <g id="xtick_7">
     <g id="line2d_18">
      <g>
       <use xlink:href="#m2cff2da6ab" x="46.649311" y="149.13" style="stroke: #000000; stroke-width: 0.5"/>
      </g>
     </g>
     <g id="line2d_19">
      <g>
       <use xlink:href="#mb0d008cb87" x="46.649311" y="3.6" style="stroke: #000000; stroke-width: 0.5"/>
      </g>
     </g>
    </g>
    <g id="xtick_8">
     <g id="line2d_20">
      <g>
       <use xlink:href="#m2cff2da6ab" x="54.461311" y="149.13" style="stroke: #000000; stroke-width: 0.5"/>
      </g>
     </g>
     <g id="line2d_21">
      <g>
       <use xlink:href="#mb0d008cb87" x="54.461311" y="3.6" style="stroke: #000000; stroke-width: 0.5"/>
      </g>
     </g>
    </g>
    <g id="xtick_9">
     <g id="line2d_22">
      <g>
       <use xlink:href="#m2cff2da6ab" x="62.273311" y="149.13" style="stroke: #000000; stroke-width: 0.5"/>
      </g>
     </g>
     <g id="line2d_23">
      <g>
       <use xlink:href="#mb0d008cb87" x="62.273311" y="3.6" style="stroke: #000000; stroke-width: 0.5"/>
      </g>
     </g>
    </g>
    <g id="xtick_10">
     <g id="line2d_24">
      <g>
       <use xlink:href="#m2cff2da6ab" x="70.085311" y="149.13" style="stroke: #000000; stroke-width: 0.5"/>
      </g>
     </g>
     <g id="line2d_25">
      <g>
       <use xlink:href="#mb0d008cb87" x="70.085311" y="3.6" style="stroke: #000000; stroke-width: 0.5"/>
      </g>
     </g>
    </g>
    <g id="xtick_11">
     <g id="line2d_26">
      <g>
       <use xlink:href="#m2cff2da6ab" x="85.709311" y="149.13" style="stroke: #000000; stroke-width: 0.5"/>
      </g>
     </g>
     <g id="line2d_27">
      <g>
       <use xlink:href="#mb0d008cb87" x="85.709311" y="3.6" style="stroke: #000000; stroke-width: 0.5"/>
      </g>
     </g>
    </g>
    <g id="xtick_12">
     <g id="line2d_28">
      <g>
       <use xlink:href="#m2cff2da6ab" x="93.521311" y="149.13" style="stroke: #000000; stroke-width: 0.5"/>
      </g>
     </g>
     <g id="line2d_29">
      <g>
       <use xlink:href="#mb0d008cb87" x="93.521311" y="3.6" style="stroke: #000000; stroke-width: 0.5"/>
      </g>
     </g>
    </g>
    <g id="xtick_13">
     <g id="line2d_30">
      <g>
       <use xlink:href="#m2cff2da6ab" x="101.333311" y="149.13" style="stroke: #000000; stroke-width: 0.5"/>
      </g>
     </g>
     <g id="line2d_31">
      <g>
       <use xlink:href="#mb0d008cb87" x="101.333311" y="3.6" style="stroke: #000000; stroke-width: 0.5"/>
      </g>
     </g>
    </g>
    <g id="xtick_14">
     <g id="line2d_32">
      <g>
       <use xlink:href="#m2cff2da6ab" x="109.145311" y="149.13" style="stroke: #000000; stroke-width: 0.5"/>
      </g>
     </g>
     <g id="line2d_33">
      <g>
       <use xlink:href="#mb0d008cb87" x="109.145311" y="3.6" style="stroke: #000000; stroke-width: 0.5"/>
      </g>
     </g>
    </g>
    <g id="xtick_15">
     <g id="line2d_34">
      <g>
       <use xlink:href="#m2cff2da6ab" x="124.769311" y="149.13" style="stroke: #000000; stroke-width: 0.5"/>
      </g>
     </g>
     <g id="line2d_35">
      <g>
       <use xlink:href="#mb0d008cb87" x="124.769311" y="3.6" style="stroke: #000000; stroke-width: 0.5"/>
      </g>
     </g>
    </g>
    <g id="xtick_16">
     <g id="line2d_36">
      <g>
       <use xlink:href="#m2cff2da6ab" x="132.581311" y="149.13" style="stroke: #000000; stroke-width: 0.5"/>
      </g>
     </g>
     <g id="line2d_37">
      <g>
       <use xlink:href="#mb0d008cb87" x="132.581311" y="3.6" style="stroke: #000000; stroke-width: 0.5"/>
      </g>
     </g>
    </g>
    <g id="xtick_17">
     <g id="line2d_38">
      <g>
       <use xlink:href="#m2cff2da6ab" x="140.393311" y="149.13" style="stroke: #000000; stroke-width: 0.5"/>
      </g>
     </g>
     <g id="line2d_39">
      <g>
       <use xlink:href="#mb0d008cb87" x="140.393311" y="3.6" style="stroke: #000000; stroke-width: 0.5"/>
      </g>
     </g>
    </g>
    <g id="xtick_18">
     <g id="line2d_40">
      <g>
       <use xlink:href="#m2cff2da6ab" x="148.205311" y="149.13" style="stroke: #000000; stroke-width: 0.5"/>
      </g>
     </g>
     <g id="line2d_41">
      <g>
       <use xlink:href="#mb0d008cb87" x="148.205311" y="3.6" style="stroke: #000000; stroke-width: 0.5"/>
      </g>
     </g>
    </g>
    <g id="xtick_19">
     <g id="line2d_42">
      <g>
       <use xlink:href="#m2cff2da6ab" x="163.829311" y="149.13" style="stroke: #000000; stroke-width: 0.5"/>
      </g>
     </g>
     <g id="line2d_43">
      <g>
       <use xlink:href="#mb0d008cb87" x="163.829311" y="3.6" style="stroke: #000000; stroke-width: 0.5"/>
      </g>
     </g>
    </g>
    <g id="xtick_20">
     <g id="line2d_44">
      <g>
       <use xlink:href="#m2cff2da6ab" x="171.641311" y="149.13" style="stroke: #000000; stroke-width: 0.5"/>
      </g>
     </g>
     <g id="line2d_45">
      <g>
       <use xlink:href="#mb0d008cb87" x="171.641311" y="3.6" style="stroke: #000000; stroke-width: 0.5"/>
      </g>
     </g>
    </g>
    <g id="xtick_21">
     <g id="line2d_46">
      <g>
       <use xlink:href="#m2cff2da6ab" x="179.453311" y="149.13" style="stroke: #000000; stroke-width: 0.5"/>
      </g>
     </g>
     <g id="line2d_47">
      <g>
       <use xlink:href="#mb0d008cb87" x="179.453311" y="3.6" style="stroke: #000000; stroke-width: 0.5"/>
      </g>
     </g>
    </g>
    <g id="xtick_22">
     <g id="line2d_48">
      <g>
       <use xlink:href="#m2cff2da6ab" x="187.265311" y="149.13" style="stroke: #000000; stroke-width: 0.5"/>
      </g>
     </g>
     <g id="line2d_49">
      <g>
       <use xlink:href="#mb0d008cb87" x="187.265311" y="3.6" style="stroke: #000000; stroke-width: 0.5"/>
      </g>
     </g>
    </g>
    <g id="xtick_23">
     <g id="line2d_50">
      <g>
       <use xlink:href="#m2cff2da6ab" x="202.889311" y="149.13" style="stroke: #000000; stroke-width: 0.5"/>
      </g>
     </g>
     <g id="line2d_51">
      <g>
       <use xlink:href="#mb0d008cb87" x="202.889311" y="3.6" style="stroke: #000000; stroke-width: 0.5"/>
      </g>
     </g>
    </g>
    <g id="xtick_24">
     <g id="line2d_52">
      <g>
       <use xlink:href="#m2cff2da6ab" x="210.701311" y="149.13" style="stroke: #000000; stroke-width: 0.5"/>
      </g>
     </g>
     <g id="line2d_53">
      <g>
       <use xlink:href="#mb0d008cb87" x="210.701311" y="3.6" style="stroke: #000000; stroke-width: 0.5"/>
      </g>
     </g>
    </g>
    <g id="xtick_25">
     <g id="line2d_54">
      <g>
       <use xlink:href="#m2cff2da6ab" x="218.513311" y="149.13" style="stroke: #000000; stroke-width: 0.5"/>
      </g>
     </g>
     <g id="line2d_55">
      <g>
       <use xlink:href="#mb0d008cb87" x="218.513311" y="3.6" style="stroke: #000000; stroke-width: 0.5"/>
      </g>
     </g>
    </g>
    <g id="xtick_26">
     <g id="line2d_56">
      <g>
       <use xlink:href="#m2cff2da6ab" x="226.325311" y="149.13" style="stroke: #000000; stroke-width: 0.5"/>
      </g>
     </g>
     <g id="line2d_57">
      <g>
       <use xlink:href="#mb0d008cb87" x="226.325311" y="3.6" style="stroke: #000000; stroke-width: 0.5"/>
      </g>
     </g>
    </g>
    <g id="text_6">
     <!-- $t$ [ns] -->
     <g transform="translate(117.716391 172.957657) scale(0.1 -0.1)">
      <defs>
       <path id="CMMI12-74" d="M 1286 2566 
L 1875 2566 
C 1997 2566 2061 2566 2061 2681 
C 2061 2752 2022 2752 1894 2752 
L 1331 2752 
L 1568 3692 
C 1594 3781 1594 3794 1594 3840 
C 1594 3943 1510 4000 1427 4000 
C 1376 4000 1229 3981 1178 3775 
L 928 2752 
L 326 2752 
C 198 2752 141 2752 141 2630 
C 141 2566 186 2566 307 2566 
L 877 2566 
L 454 881 
C 403 658 384 594 384 511 
C 384 211 595 -64 954 -64 
C 1600 -64 1946 868 1946 912 
C 1946 951 1920 970 1882 970 
C 1869 970 1843 970 1830 944 
C 1824 938 1818 931 1773 829 
C 1638 511 1344 64 973 64 
C 781 64 768 224 768 364 
C 768 370 768 492 787 568 
L 1286 2566 
z
" transform="scale(0.015625)"/>
       <path id="CMR17-5b" d="M 1504 -1600 
L 1504 -1377 
L 902 -1377 
L 902 4544 
L 1504 4544 
L 1504 4767 
L 678 4767 
L 678 -1600 
L 1504 -1600 
z
" transform="scale(0.015625)"/>
       <path id="CMR17-6e" d="M 2656 1933 
C 2656 2259 2592 2790 1837 2790 
C 1331 2790 1069 2400 973 2144 
L 966 2144 
L 966 2790 
L 211 2720 
L 211 2554 
C 589 2554 646 2515 646 2208 
L 646 428 
C 646 184 621 153 211 153 
L 211 -13 
C 365 0 646 0 813 0 
C 979 0 1267 0 1421 -13 
L 1421 153 
C 1011 153 986 178 986 428 
L 986 1658 
C 986 2247 1344 2688 1792 2688 
C 2266 2688 2317 2266 2317 1958 
L 2317 428 
C 2317 184 2291 153 1882 153 
L 1882 -13 
C 2035 0 2317 0 2483 0 
C 2650 0 2938 0 3091 -13 
L 3091 153 
C 2682 153 2656 178 2656 428 
L 2656 1933 
z
" transform="scale(0.015625)"/>
       <path id="CMR17-73" d="M 1978 2697 
C 1978 2813 1971 2819 1933 2819 
C 1907 2819 1901 2813 1824 2717 
C 1805 2691 1747 2626 1728 2601 
C 1523 2819 1235 2819 1126 2819 
C 416 2819 160 2447 160 2076 
C 160 1498 813 1365 998 1325 
C 1402 1243 1542 1217 1677 1101 
C 1760 1025 1901 884 1901 654 
C 1901 384 1747 38 1158 38 
C 602 38 403 460 288 1021 
C 269 1110 269 1117 218 1117 
C 166 1117 160 1110 160 983 
L 160 63 
C 160 -51 166 -58 205 -58 
C 237 -58 243 -51 275 0 
C 314 57 410 211 448 276 
C 576 103 800 -64 1158 -64 
C 1792 -64 2131 283 2131 784 
C 2131 1112 1958 1285 1875 1362 
C 1683 1561 1459 1606 1190 1657 
C 838 1735 390 1825 390 2217 
C 390 2383 480 2737 1126 2737 
C 1811 2737 1850 2094 1862 1888 
C 1869 1856 1901 1849 1920 1849 
C 1978 1849 1978 1869 1978 1978 
L 1978 2697 
z
" transform="scale(0.015625)"/>
       <path id="CMR17-5d" d="M 915 4767 
L 90 4767 
L 90 4544 
L 691 4544 
L 691 -1377 
L 90 -1377 
L 90 -1600 
L 915 -1600 
L 915 4767 
z
" transform="scale(0.015625)"/>
      </defs>
      <use xlink:href="#CMMI12-74" transform="scale(0.996264)"/>
      <use xlink:href="#CMR17-5b" transform="translate(65.302297 0) scale(0.996264)"/>
      <use xlink:href="#CMR17-6e" transform="translate(90.173355 0) scale(0.996264)"/>
      <use xlink:href="#CMR17-73" transform="translate(141.068725 0) scale(0.996264)"/>
      <use xlink:href="#CMR17-5d" transform="translate(176.870062 0) scale(0.996264)"/>
     </g>
    </g>
   </g>
   <g id="matplotlib.axis_2">
    <g id="ytick_1">
     <g id="line2d_58">
      <path d="M 31.025311 149.13 
L 226.325311 149.13 
" clip-path="url(#p1af860b3fc)" style="fill: none; stroke-dasharray: 1.85,0.8; stroke-dashoffset: 0; stroke: #000000; stroke-opacity: 0.5; stroke-width: 0.5"/>
     </g>
     <g id="line2d_59">
      <defs>
       <path id="mbad2179b26" d="M 0 0 
L 3 0 
" style="stroke: #000000; stroke-width: 0.5"/>
      </defs>
      <g>
       <use xlink:href="#mbad2179b26" x="31.025311" y="149.13" style="stroke: #000000; stroke-width: 0.5"/>
      </g>
     </g>
     <g id="line2d_60">
      <defs>
       <path id="me72f12e712" d="M 0 0 
L -3 0 
" style="stroke: #000000; stroke-width: 0.5"/>
      </defs>
      <g>
       <use xlink:href="#me72f12e712" x="226.325311" y="149.13" style="stroke: #000000; stroke-width: 0.5"/>
      </g>
     </g>
     <g id="text_7">
      <!-- $\mathdefault{0}$ -->
      <g transform="translate(22.543975 152.589249) scale(0.1 -0.1)">
       <use xlink:href="#CMR17-30" transform="scale(0.996264)"/>
      </g>
     </g>
    </g>
    <g id="ytick_2">
     <g id="line2d_61">
      <path d="M 31.025311 116.79 
L 226.325311 116.79 
" clip-path="url(#p1af860b3fc)" style="fill: none; stroke-dasharray: 1.85,0.8; stroke-dashoffset: 0; stroke: #000000; stroke-opacity: 0.5; stroke-width: 0.5"/>
     </g>
     <g id="line2d_62">
      <g>
       <use xlink:href="#mbad2179b26" x="31.025311" y="116.79" style="stroke: #000000; stroke-width: 0.5"/>
      </g>
     </g>
     <g id="line2d_63">
      <g>
       <use xlink:href="#me72f12e712" x="226.325311" y="116.79" style="stroke: #000000; stroke-width: 0.5"/>
      </g>
     </g>
     <g id="text_8">
      <!-- $\mathdefault{20}$ -->
      <g transform="translate(17.56264 120.249249) scale(0.1 -0.1)">
       <use xlink:href="#CMR17-32" transform="scale(0.996264)"/>
       <use xlink:href="#CMR17-30" transform="translate(45.690477 0) scale(0.996264)"/>
      </g>
     </g>
    </g>
    <g id="ytick_3">
     <g id="line2d_64">
      <path d="M 31.025311 84.45 
L 226.325311 84.45 
" clip-path="url(#p1af860b3fc)" style="fill: none; stroke-dasharray: 1.85,0.8; stroke-dashoffset: 0; stroke: #000000; stroke-opacity: 0.5; stroke-width: 0.5"/>
     </g>
     <g id="line2d_65">
      <g>
       <use xlink:href="#mbad2179b26" x="31.025311" y="84.45" style="stroke: #000000; stroke-width: 0.5"/>
      </g>
     </g>
     <g id="line2d_66">
      <g>
       <use xlink:href="#me72f12e712" x="226.325311" y="84.45" style="stroke: #000000; stroke-width: 0.5"/>
      </g>
     </g>
     <g id="text_9">
      <!-- $\mathdefault{40}$ -->
      <g transform="translate(17.56264 87.909249) scale(0.1 -0.1)">
       <defs>
        <path id="CMR17-34" d="M 2150 4122 
C 2150 4256 2144 4256 2029 4256 
L 128 1254 
L 128 1088 
L 1779 1088 
L 1779 457 
C 1779 224 1766 160 1318 160 
L 1197 160 
L 1197 0 
C 1402 0 1747 0 1965 0 
C 2182 0 2528 0 2733 0 
L 2733 160 
L 2611 160 
C 2163 160 2150 224 2150 457 
L 2150 1088 
L 2803 1088 
L 2803 1254 
L 2150 1254 
L 2150 4122 
z
M 1798 3703 
L 1798 1254 
L 256 1254 
L 1798 3703 
z
" transform="scale(0.015625)"/>
       </defs>
       <use xlink:href="#CMR17-34" transform="scale(0.996264)"/>
       <use xlink:href="#CMR17-30" transform="translate(45.690477 0) scale(0.996264)"/>
      </g>
     </g>
    </g>
    <g id="ytick_4">
     <g id="line2d_67">
      <path d="M 31.025311 52.11 
L 226.325311 52.11 
" clip-path="url(#p1af860b3fc)" style="fill: none; stroke-dasharray: 1.85,0.8; stroke-dashoffset: 0; stroke: #000000; stroke-opacity: 0.5; stroke-width: 0.5"/>
     </g>
     <g id="line2d_68">
      <g>
       <use xlink:href="#mbad2179b26" x="31.025311" y="52.11" style="stroke: #000000; stroke-width: 0.5"/>
      </g>
     </g>
     <g id="line2d_69">
      <g>
       <use xlink:href="#me72f12e712" x="226.325311" y="52.11" style="stroke: #000000; stroke-width: 0.5"/>
      </g>
     </g>
     <g id="text_10">
      <!-- $\mathdefault{60}$ -->
      <g transform="translate(17.56264 55.569249) scale(0.1 -0.1)">
       <defs>
        <path id="CMR17-36" d="M 678 2176 
C 678 3690 1395 4032 1811 4032 
C 1946 4032 2272 4009 2400 3776 
C 2298 3776 2106 3776 2106 3553 
C 2106 3381 2246 3323 2336 3323 
C 2394 3323 2566 3348 2566 3560 
C 2566 3954 2246 4179 1805 4179 
C 1043 4179 243 3390 243 1984 
C 243 253 966 -128 1478 -128 
C 2099 -128 2688 427 2688 1283 
C 2688 2081 2170 2662 1517 2662 
C 1126 2662 838 2407 678 1960 
L 678 2176 
z
M 1478 25 
C 691 25 691 1200 691 1436 
C 691 1896 909 2560 1504 2560 
C 1613 2560 1926 2560 2138 2120 
C 2253 1870 2253 1609 2253 1289 
C 2253 944 2253 690 2118 434 
C 1978 171 1773 25 1478 25 
z
" transform="scale(0.015625)"/>
       </defs>
       <use xlink:href="#CMR17-36" transform="scale(0.996264)"/>
       <use xlink:href="#CMR17-30" transform="translate(45.690477 0) scale(0.996264)"/>
      </g>
     </g>
    </g>
    <g id="ytick_5">
     <g id="line2d_70">
      <path d="M 31.025311 19.77 
L 226.325311 19.77 
" clip-path="url(#p1af860b3fc)" style="fill: none; stroke-dasharray: 1.85,0.8; stroke-dashoffset: 0; stroke: #000000; stroke-opacity: 0.5; stroke-width: 0.5"/>
     </g>
     <g id="line2d_71">
      <g>
       <use xlink:href="#mbad2179b26" x="31.025311" y="19.77" style="stroke: #000000; stroke-width: 0.5"/>
      </g>
     </g>
     <g id="line2d_72">
      <g>
       <use xlink:href="#me72f12e712" x="226.325311" y="19.77" style="stroke: #000000; stroke-width: 0.5"/>
      </g>
     </g>
     <g id="text_11">
      <!-- $\mathdefault{80}$ -->
      <g transform="translate(17.56264 23.229249) scale(0.1 -0.1)">
       <defs>
        <path id="CMR17-38" d="M 1741 2264 
C 2144 2467 2554 2773 2554 3263 
C 2554 3841 1990 4179 1472 4179 
C 890 4179 378 3759 378 3180 
C 378 3021 416 2747 666 2505 
C 730 2442 998 2251 1171 2130 
C 883 1983 211 1634 211 934 
C 211 279 838 -128 1459 -128 
C 2144 -128 2720 362 2720 1010 
C 2720 1590 2330 1857 2074 2029 
L 1741 2264 
z
M 902 2822 
C 851 2854 595 3051 595 3351 
C 595 3739 998 4032 1459 4032 
C 1965 4032 2336 3676 2336 3262 
C 2336 2669 1670 2331 1638 2331 
C 1632 2331 1626 2331 1574 2370 
L 902 2822 
z
M 2080 1519 
C 2176 1449 2483 1240 2483 851 
C 2483 381 2010 25 1472 25 
C 890 25 448 438 448 940 
C 448 1443 838 1862 1280 2060 
L 2080 1519 
z
" transform="scale(0.015625)"/>
       </defs>
       <use xlink:href="#CMR17-38" transform="scale(0.996264)"/>
       <use xlink:href="#CMR17-30" transform="translate(45.690477 0) scale(0.996264)"/>
      </g>
     </g>
    </g>
    <g id="ytick_6">
     <g id="line2d_73">
      <defs>
       <path id="mc51d1c6d61" d="M 0 0 
L 1.5 0 
" style="stroke: #000000; stroke-width: 0.5"/>
      </defs>
      <g>
       <use xlink:href="#mc51d1c6d61" x="31.025311" y="141.045" style="stroke: #000000; stroke-width: 0.5"/>
      </g>
     </g>
     <g id="line2d_74">
      <defs>
       <path id="mdc64fa268f" d="M 0 0 
L -1.5 0 
" style="stroke: #000000; stroke-width: 0.5"/>
      </defs>
      <g>
       <use xlink:href="#mdc64fa268f" x="226.325311" y="141.045" style="stroke: #000000; stroke-width: 0.5"/>
      </g>
     </g>
    </g>
    <g id="ytick_7">
     <g id="line2d_75">
      <g>
       <use xlink:href="#mc51d1c6d61" x="31.025311" y="132.96" style="stroke: #000000; stroke-width: 0.5"/>
      </g>
     </g>
     <g id="line2d_76">
      <g>
       <use xlink:href="#mdc64fa268f" x="226.325311" y="132.96" style="stroke: #000000; stroke-width: 0.5"/>
      </g>
     </g>
    </g>
    <g id="ytick_8">
     <g id="line2d_77">
      <g>
       <use xlink:href="#mc51d1c6d61" x="31.025311" y="124.875" style="stroke: #000000; stroke-width: 0.5"/>
      </g>
     </g>
     <g id="line2d_78">
      <g>
       <use xlink:href="#mdc64fa268f" x="226.325311" y="124.875" style="stroke: #000000; stroke-width: 0.5"/>
      </g>
     </g>
    </g>
    <g id="ytick_9">
     <g id="line2d_79">
      <g>
       <use xlink:href="#mc51d1c6d61" x="31.025311" y="108.705" style="stroke: #000000; stroke-width: 0.5"/>
      </g>
     </g>
     <g id="line2d_80">
      <g>
       <use xlink:href="#mdc64fa268f" x="226.325311" y="108.705" style="stroke: #000000; stroke-width: 0.5"/>
      </g>
     </g>
    </g>
    <g id="ytick_10">
     <g id="line2d_81">
      <g>
       <use xlink:href="#mc51d1c6d61" x="31.025311" y="100.62" style="stroke: #000000; stroke-width: 0.5"/>
      </g>
     </g>
     <g id="line2d_82">
      <g>
       <use xlink:href="#mdc64fa268f" x="226.325311" y="100.62" style="stroke: #000000; stroke-width: 0.5"/>
      </g>
     </g>
    </g>
    <g id="ytick_11">
     <g id="line2d_83">
      <g>
       <use xlink:href="#mc51d1c6d61" x="31.025311" y="92.535" style="stroke: #000000; stroke-width: 0.5"/>
      </g>
     </g>
     <g id="line2d_84">
      <g>
       <use xlink:href="#mdc64fa268f" x="226.325311" y="92.535" style="stroke: #000000; stroke-width: 0.5"/>
      </g>
     </g>
    </g>
    <g id="ytick_12">
     <g id="line2d_85">
      <g>
       <use xlink:href="#mc51d1c6d61" x="31.025311" y="76.365" style="stroke: #000000; stroke-width: 0.5"/>
      </g>
     </g>
     <g id="line2d_86">
      <g>
       <use xlink:href="#mdc64fa268f" x="226.325311" y="76.365" style="stroke: #000000; stroke-width: 0.5"/>
      </g>
     </g>
    </g>
    <g id="ytick_13">
     <g id="line2d_87">
      <g>
       <use xlink:href="#mc51d1c6d61" x="31.025311" y="68.28" style="stroke: #000000; stroke-width: 0.5"/>
      </g>
     </g>
     <g id="line2d_88">
      <g>
       <use xlink:href="#mdc64fa268f" x="226.325311" y="68.28" style="stroke: #000000; stroke-width: 0.5"/>
      </g>
     </g>
    </g>
    <g id="ytick_14">
     <g id="line2d_89">
      <g>
       <use xlink:href="#mc51d1c6d61" x="31.025311" y="60.195" style="stroke: #000000; stroke-width: 0.5"/>
      </g>
     </g>
     <g id="line2d_90">
      <g>
       <use xlink:href="#mdc64fa268f" x="226.325311" y="60.195" style="stroke: #000000; stroke-width: 0.5"/>
      </g>
     </g>
    </g>
    <g id="ytick_15">
     <g id="line2d_91">
      <g>
       <use xlink:href="#mc51d1c6d61" x="31.025311" y="44.025" style="stroke: #000000; stroke-width: 0.5"/>
      </g>
     </g>
     <g id="line2d_92">
      <g>
       <use xlink:href="#mdc64fa268f" x="226.325311" y="44.025" style="stroke: #000000; stroke-width: 0.5"/>
      </g>
     </g>
    </g>
    <g id="ytick_16">
     <g id="line2d_93">
      <g>
       <use xlink:href="#mc51d1c6d61" x="31.025311" y="35.94" style="stroke: #000000; stroke-width: 0.5"/>
      </g>
     </g>
     <g id="line2d_94">
      <g>
       <use xlink:href="#mdc64fa268f" x="226.325311" y="35.94" style="stroke: #000000; stroke-width: 0.5"/>
      </g>
     </g>
    </g>
    <g id="ytick_17">
     <g id="line2d_95">
      <g>
       <use xlink:href="#mc51d1c6d61" x="31.025311" y="27.855" style="stroke: #000000; stroke-width: 0.5"/>
      </g>
     </g>
     <g id="line2d_96">
      <g>
       <use xlink:href="#mdc64fa268f" x="226.325311" y="27.855" style="stroke: #000000; stroke-width: 0.5"/>
      </g>
     </g>
    </g>
    <g id="ytick_18">
     <g id="line2d_97">
      <g>
       <use xlink:href="#mc51d1c6d61" x="31.025311" y="11.685" style="stroke: #000000; stroke-width: 0.5"/>
      </g>
     </g>
     <g id="line2d_98">
      <g>
       <use xlink:href="#mdc64fa268f" x="226.325311" y="11.685" style="stroke: #000000; stroke-width: 0.5"/>
      </g>
     </g>
    </g>
    <g id="ytick_19">
     <g id="line2d_99">
      <g>
       <use xlink:href="#mc51d1c6d61" x="31.025311" y="3.6" style="stroke: #000000; stroke-width: 0.5"/>
      </g>
     </g>
     <g id="line2d_100">
      <g>
       <use xlink:href="#mdc64fa268f" x="226.325311" y="3.6" style="stroke: #000000; stroke-width: 0.5"/>
      </g>
     </g>
    </g>
    <g id="text_12">
     <!-- $U_1$ [mV] -->
     <g transform="translate(11.07198 94.315774) rotate(-90) scale(0.1 -0.1)">
      <defs>
       <path id="CMMI12-55" d="M 3238 1474 
C 3014 581 2272 57 1670 57 
C 1210 57 896 363 896 891 
C 896 916 896 1107 966 1387 
L 1594 3887 
C 1651 4103 1664 4167 2118 4167 
C 2234 4167 2298 4167 2298 4282 
C 2298 4352 2240 4352 2202 4352 
C 2086 4352 1952 4352 1830 4352 
L 1075 4352 
C 954 4352 819 4352 698 4352 
C 653 4352 576 4352 576 4231 
C 576 4167 621 4167 742 4167 
C 1126 4167 1126 4116 1126 4046 
C 1126 4008 1082 3824 1050 3715 
L 493 1488 
C 474 1418 435 1246 435 1075 
C 435 374 941 -128 1638 -128 
C 2285 -128 3002 384 3328 1197 
C 3373 1305 3430 1530 3469 1702 
C 3533 1933 3667 2496 3712 2662 
L 3955 3623 
C 4038 3956 4090 4167 4653 4167 
C 4704 4173 4730 4224 4730 4282 
C 4730 4352 4672 4352 4646 4352 
C 4557 4352 4442 4352 4352 4352 
L 4051 4352 
C 3654 4352 3450 4352 3443 4352 
C 3405 4352 3328 4352 3328 4231 
C 3328 4167 3379 4167 3424 4167 
C 3808 4167 3834 4020 3834 3905 
C 3834 3848 3834 3828 3808 3739 
L 3238 1474 
z
" transform="scale(0.015625)"/>
       <path id="CMR17-6d" d="M 4326 1933 
C 4326 2252 4269 2790 3507 2790 
C 3072 2790 2771 2496 2656 2151 
L 2650 2151 
C 2573 2676 2195 2790 1837 2790 
C 1331 2790 1069 2400 973 2144 
L 966 2144 
L 966 2790 
L 211 2720 
L 211 2554 
C 589 2554 646 2515 646 2208 
L 646 428 
C 646 184 621 153 211 153 
L 211 -13 
C 365 0 646 0 813 0 
C 979 0 1267 0 1421 -13 
L 1421 153 
C 1011 153 986 178 986 428 
L 986 1658 
C 986 2247 1344 2688 1792 2688 
C 2266 2688 2317 2266 2317 1958 
L 2317 428 
C 2317 184 2291 153 1882 153 
L 1882 -13 
C 2035 0 2317 0 2483 0 
C 2650 0 2938 0 3091 -13 
L 3091 153 
C 2682 153 2656 178 2656 428 
L 2656 1658 
C 2656 2247 3014 2688 3462 2688 
C 3936 2688 3987 2266 3987 1958 
L 3987 428 
C 3987 184 3962 153 3552 153 
L 3552 -13 
C 3706 0 3987 0 4154 0 
C 4320 0 4608 0 4762 -13 
L 4762 153 
C 4352 153 4326 178 4326 428 
L 4326 1933 
z
" transform="scale(0.015625)"/>
       <path id="CMR17-56" d="M 3776 3745 
C 3834 3886 3936 4160 4365 4160 
L 4365 4332 
C 4218 4319 4051 4319 3891 4319 
C 3738 4319 3475 4319 3328 4332 
L 3328 4160 
C 3648 4160 3661 3936 3661 3898 
C 3661 3827 3642 3783 3622 3732 
L 2362 446 
L 1043 3886 
C 1024 3931 1011 3963 1011 3994 
C 1011 4160 1267 4160 1402 4160 
L 1402 4319 
C 1197 4319 896 4319 685 4319 
C 518 4319 218 4319 64 4332 
L 64 4160 
C 435 4160 506 4135 582 3931 
L 2106 -26 
C 2138 -115 2144 -128 2214 -128 
C 2285 -128 2291 -115 2323 -26 
L 3776 3745 
z
" transform="scale(0.015625)"/>
      </defs>
      <use xlink:href="#CMMI12-55" transform="scale(0.996264)"/>
      <use xlink:href="#CMR17-31" transform="translate(66.252119 -14.943915) scale(0.697382)"/>
      <use xlink:href="#CMR17-5b" transform="translate(128.809399 0) scale(0.996264)"/>
      <use xlink:href="#CMR17-6d" transform="translate(153.680458 0) scale(0.996264)"/>
      <use xlink:href="#CMR17-56" transform="translate(230.600048 0) scale(0.996264)"/>
      <use xlink:href="#CMR17-5d" transform="translate(299.672478 0) scale(0.996264)"/>
     </g>
    </g>
   </g>
   <g id="line2d_101">
    <path d="M 38.837311 149.129999 
L 38.976364 149.022322 
L 39.076358 148.525542 
L 39.923179 137.32641 
L 41.579323 117.616496 
L 41.793371 115.363885 
L 42.494889 108.506197 
L 44.238527 94.23364 
L 44.446327 92.802624 
L 44.768181 90.540071 
L 45.760305 84.126009 
L 45.788428 83.959067 
L 46.194652 81.446591 
L 46.755554 78.317073 
L 47.088345 76.531099 
L 47.274271 75.557138 
L 47.597687 73.851384 
L 47.963289 72.079015 
L 48.219523 70.919405 
L 48.247646 70.802131 
L 48.885105 67.930378 
L 49.205397 66.56669 
L 49.253831 66.35838 
L 49.536626 65.214657 
L 49.719427 64.472617 
L 50.603745 60.934628 
L 50.661554 60.731033 
L 51.127149 59.127689 
L 51.333386 58.359074 
L 51.408381 58.084022 
L 53.49106 51.532814 
L 54.019151 50.082158 
L 54.46756 48.882258 
L 54.603489 48.491786 
L 54.789415 48.00291 
L 54.792539 48.004346 
L 54.842536 47.891005 
L 55.050335 47.374302 
L 55.051898 47.378516 
L 55.33313 46.714554 
L 55.405 46.553489 
L 55.587801 46.102142 
L 55.847159 45.527122 
L 55.906531 45.369579 
L 57.048645 42.82307 
L 57.05177 42.827222 
L 57.054895 42.83082 
L 57.101767 42.677892 
L 57.392373 42.07461 
L 57.393935 42.078445 
L 57.448619 41.924238 
L 57.645482 41.541561 
L 57.722039 41.395951 
L 57.912652 41.070165 
L 57.920464 41.076794 
L 57.970461 40.973469 
L 59.254754 38.612869 
L 59.307875 38.503095 
L 59.462553 38.197837 
L 59.639104 37.88093 
L 59.640667 37.883639 
L 59.684414 37.843126 
L 59.646916 37.863279 
L 59.703163 37.793704 
L 59.898463 37.488863 
L 60.000019 37.377269 
L 60.406243 36.675408 
L 60.571857 36.444752 
L 61.028078 35.840761 
L 61.214003 35.580039 
L 61.215566 35.581048 
L 61.217128 35.582881 
L 61.271812 35.478269 
L 61.273375 35.481147 
L 62.437363 33.911967 
L 62.596727 34.097031 
L 62.59829 34.096467 
L 62.663911 34.312443 
L 62.890459 35.546697 
L 63.038887 36.664557 
L 63.899769 43.163312 
L 64.343491 45.895201 
L 64.55129 46.124677 
L 65.065319 46.056166 
L 67.077691 42.386712 
L 67.290177 41.99783 
L 67.301114 41.996569 
L 67.349548 41.899448 
L 67.351111 41.898763 
L 67.532349 41.4892 
L 67.533911 41.493552 
L 67.572971 41.440574 
L 67.579221 41.411692 
L 67.583908 41.404455 
L 67.740148 41.110002 
L 70.563405 36.347314 
L 70.568092 36.356428 
L 70.654024 36.269595 
L 70.655587 36.271015 
L 70.713395 36.177937 
L 70.714958 36.177597 
L 70.977441 35.758147 
L 70.983691 35.763066 
L 71.047749 35.668466 
L 71.366479 35.21674 
L 71.646148 34.808465 
L 71.871134 34.549096 
L 71.877383 34.549396 
L 71.935192 34.455824 
L 72.650771 33.487206 
L 72.94919 33.061452 
L 72.950752 33.065615 
L 73.033559 32.97421 
L 74.978747 30.343239 
L 75.119363 30.202282 
L 75.195921 30.112005 
L 75.380284 29.834694 
L 75.691202 29.500536 
L 75.699014 29.509196 
L 75.769322 29.414846 
L 75.774009 29.418851 
L 75.952123 29.23806 
L 75.953685 29.239918 
L 76.006807 29.177931 
L 76.052116 29.189011 
L 76.714574 28.373893 
L 76.716136 28.375723 
L 76.717699 28.378996 
L 76.798943 28.297904 
L 76.802068 28.29835 
L 76.937997 28.146631 
L 77.081738 27.986563 
L 77.367657 27.628032 
L 78.048863 26.822733 
L 78.119171 26.748789 
L 78.122296 26.739073 
L 78.280099 26.620077 
L 78.386342 26.504356 
L 78.809752 26.045392 
L 78.811315 26.050113 
L 78.884747 25.953463 
L 78.894122 25.951217 
L 79.372216 25.415183 
L 79.517519 25.319015 
L 79.598764 25.230517 
L 79.737818 25.113995 
L 79.73938 25.115952 
L 79.933118 24.905308 
L 80.075296 24.744699 
L 80.265909 24.595268 
L 80.40965 24.468467 
L 80.843997 24.104463 
L 81.037735 23.916135 
L 81.042422 23.920491 
L 81.168976 23.800828 
L 81.34709 23.613586 
L 81.701755 23.27295 
L 81.828309 23.151936 
L 82.475143 22.542657 
L 82.476705 22.545004 
L 82.540763 22.524204 
L 82.504828 22.521609 
L 82.567324 22.481798 
L 82.729814 22.272246 
L 82.734501 22.274047 
L 82.775123 22.239952 
L 82.739188 22.264439 
L 82.800122 22.186673 
L 82.94855 22.00433 
L 83.076667 21.906075 
L 83.246968 21.729394 
L 83.267279 21.716663 
L 83.314151 21.644903 
L 83.445393 21.530741 
L 83.481328 21.53388 
L 83.532887 21.486393 
L 83.546949 21.490904 
L 83.686003 21.384673 
L 83.725063 21.372181 
L 83.770372 21.311093 
L 83.959423 21.217034 
L 84.256279 21.025202 
L 84.260966 21.029218 
L 84.345335 20.953836 
L 84.346898 20.960119 
L 84.507825 20.809778 
L 84.615631 20.691804 
L 84.824992 20.523119 
L 85.234341 20.195344 
L 85.243715 20.205471 
L 85.271839 20.196554 
L 85.312461 20.135453 
L 85.323398 20.129136 
L 85.44839 20.029369 
L 85.617129 19.870189 
L 85.762432 19.763051 
L 86.079599 19.451642 
L 86.113972 19.453488 
L 86.162407 19.389666 
L 86.173343 19.386232 
L 86.287399 19.275538 
L 86.504572 19.071878 
L 86.526446 19.077633 
L 86.588942 19.035417 
L 86.606128 19.030051 
L 86.798303 18.851144 
L 86.929545 18.721405 
L 86.937357 18.729458 
L 87.074848 18.601041 
L 87.234213 18.446318 
L 87.260774 18.432095 
L 87.301396 18.359356 
L 87.521695 18.211759 
L 87.526382 18.216194 
L 87.657623 18.152958 
L 87.763867 18.155335 
L 87.781053 18.179912 
L 87.871672 18.383553 
L 88.431011 23.151954 
L 90.21371 39.031676 
L 91.171461 46.072792 
L 91.243331 46.560248 
L 91.546437 48.560955 
L 91.901102 50.86622 
L 92.138587 52.348492 
L 92.435443 54.090599 
L 92.665115 55.407424 
L 92.855728 56.454432 
L 93.301012 59.008327 
L 93.397881 59.522665 
L 94.897785 66.823198 
L 95.036839 67.439818 
L 95.321195 68.612261 
L 95.322758 68.607688 
L 96.208639 72.176942 
L 96.432062 72.969256 
L 96.553929 73.421801 
L 96.746104 74.128284 
L 96.747667 74.12286 
L 96.788289 74.324529 
L 97.5898 76.890537 
L 97.641359 77.039687 
L 97.875719 77.749111 
L 97.919467 77.910512 
L 98.441308 79.346035 
L 100.241193 84.02309 
L 100.417744 84.432793 
L 100.664603 84.956512 
L 100.730224 85.103833 
L 100.900526 85.569225 
L 101.063015 85.857349 
L 101.145823 86.02654 
L 101.491113 86.777672 
L 101.548922 86.904826 
L 101.737972 87.276716 
L 101.977019 87.858174 
L 101.980144 87.852218 
L 102.409804 88.681809 
L 102.961331 89.817933 
L 103.150382 90.185676 
L 104.267498 92.325317 
L 104.475297 92.653249 
L 104.619038 92.912982 
L 106.545477 96.31292 
L 106.547039 96.311579 
L 106.61891 96.40644 
L 106.893892 96.811336 
L 106.992323 96.967792 
L 107.161063 97.208861 
L 108.745336 99.630745 
L 108.746899 99.626822 
L 108.764085 99.623415 
L 108.831268 99.720966 
L 109.071878 100.103252 
L 109.076565 100.102066 
L 109.124999 100.191961 
L 109.132811 100.194579 
L 109.278115 100.341309 
L 109.417168 100.54055 
L 109.567159 100.709837 
L 109.573408 100.703402 
L 109.609343 100.758483 
L 109.645279 100.786991 
L 109.865577 101.133163 
L 109.962446 101.257494 
L 110.160871 101.518711 
L 110.162433 101.51678 
L 110.223367 101.617191 
L 110.478038 101.947569 
L 110.543659 102.044379 
L 111.067063 102.659361 
L 111.068625 102.654425 
L 111.070187 102.645218 
L 111.156119 102.749977 
L 111.163931 102.749674 
L 111.582655 103.275201 
L 111.584217 103.273595 
L 111.593591 103.267906 
L 111.670149 103.364493 
L 111.887323 103.5895 
L 112.077935 103.86677 
L 112.434163 104.260319 
L 112.698208 104.567202 
L 112.731019 104.579489 
L 112.766954 104.649575 
L 112.773203 104.648308 
L 112.927881 104.813673 
L 112.929443 104.811302 
L 113.120056 105.065163 
L 113.535655 105.646759 
L 113.541904 105.642392 
L 113.548154 105.643201 
L 113.596588 105.719325 
L 113.61065 105.729503 
L 113.818449 105.988213 
L 114.084057 106.322503 
L 114.249671 106.494655 
L 114.418411 106.675397 
L 114.660583 107.019605 
L 114.662145 107.017343 
L 114.766826 107.170776 
L 114.952751 107.377966 
L 115.076181 107.483679 
L 115.260544 107.660738 
L 116.604208 109.138301 
L 116.835443 109.307099 
L 116.974497 109.409708 
L 116.976059 109.408109 
L 117.404157 109.771988 
L 117.405719 109.769972 
L 117.458841 109.838298 
L 117.480715 109.853127 
L 117.629143 110.015349 
L 118.896249 111.354931 
L 119.032178 111.52434 
L 119.830564 112.452176 
L 119.832127 112.446403 
L 119.833689 112.441387 
L 119.921183 112.532195 
L 120.093047 112.700196 
L 120.100859 112.687792 
L 120.189916 112.756921 
L 120.549268 113.079237 
L 120.553955 113.071981 
L 120.627388 113.160706 
L 120.632075 113.162623 
L 120.744568 113.278163 
L 120.916432 113.446528 
L 121.028925 113.579337 
L 121.14923 113.637073 
L 121.152355 113.63585 
L 121.349217 113.844826 
L 121.358591 113.833549 
L 121.364841 113.831246 
L 121.439836 113.909914 
L 121.441399 113.910441 
L 121.588264 114.026264 
L 125.203658 116.896852 
L 125.336462 116.993702 
L 125.338024 116.991773 
L 125.619256 117.20149 
L 125.844242 117.374628 
L 126.061415 117.561123 
L 126.194219 117.648016 
L 126.195782 117.64368 
L 127.658188 118.888668 
L 127.897235 119.084685 
L 127.898798 119.081932 
L 128.078474 119.195535 
L 128.25815 119.352698 
L 128.261275 119.350291 
L 128.445638 119.515102 
L 129.040912 119.875379 
L 129.042475 119.870743 
L 129.137781 119.934038 
L 129.140906 119.920843 
L 129.279959 120.011989 
L 129.286209 120.004152 
L 129.347143 119.993588 
L 129.394015 120.031408 
L 129.529943 120.098537 
L 129.400264 120.027012 
L 129.531506 120.096092 
L 129.692433 120.212575 
L 129.69712 120.207943 
L 129.700245 120.202918 
L 129.790864 120.275011 
L 129.965853 120.433049 
L 129.798676 120.270833 
L 129.973665 120.428631 
L 130.098657 120.450251 
L 130.229899 120.55481 
L 130.103344 120.444375 
L 130.251772 120.520577 
L 131.270457 121.212024 
L 131.426697 121.309923 
L 131.629809 121.415859 
L 131.750114 121.45819 
L 132.065719 121.678195 
L 132.684429 121.984723 
L 132.690679 121.978756 
L 132.7438 122.043598 
L 132.776611 122.045084 
L 132.982847 122.175217 
L 133.125026 122.278706 
L 133.493752 122.520864 
L 133.64843 122.662399 
L 133.656242 122.657646 
L 133.739049 122.70426 
L 133.718738 122.70632 
L 133.745299 122.721832 
L 133.9156 122.846695 
L 134.093714 122.96824 
L 134.214019 123.024549 
L 134.217143 123.021898 
L 134.348385 123.081401 
L 134.613993 123.233459 
L 134.615555 123.231529 
L 135.56237 123.761697 
L 135.652989 123.81062 
L 135.571744 123.77075 
L 135.660801 123.818347 
L 136.401379 124.241771 
L 136.459187 124.256992 
L 136.496685 124.298636 
L 136.61699 124.409316 
L 136.785729 124.48649 
L 136.80604 124.488419 
L 136.856037 124.53038 
L 136.879473 124.539158 
L 137.009152 124.605202 
L 137.12477 124.621359 
L 137.257574 124.696024 
L 137.379441 124.773833 
L 137.555992 124.873302 
L 137.385691 124.768585 
L 137.559117 124.869429 
L 137.565367 124.861123 
L 137.649736 124.918837 
L 137.657548 124.919384 
L 137.785665 124.977755 
L 137.790352 124.971034 
L 138.041899 125.098267 
L 138.145017 125.162001 
L 138.276259 125.28445 
L 138.288758 125.276441 
L 138.749666 125.468591 
L 138.959027 125.544875 
L 138.962152 125.536934 
L 139.015274 125.576064 
L 139.060583 125.586566 
L 139.209011 125.750077 
L 139.412123 125.865332 
L 139.419935 125.859359 
L 139.508992 125.921428 
L 139.638671 125.974039 
L 139.644921 125.969652 
L 139.73554 125.974924 
L 139.757414 125.995217 
L 139.921466 126.056266 
L 139.927715 126.049523 
L 140.012085 126.106602 
L 140.021459 126.101738 
L 140.168325 126.181048 
L 140.47768 126.283641 
L 140.568299 126.328825 
L 140.485492 126.279115 
L 140.597985 126.315405 
L 141.716663 126.812273 
L 141.869779 126.911996 
L 141.972897 126.961784 
L 142.086952 126.988238 
L 142.091639 126.981874 
L 142.290064 127.093428 
L 142.471303 127.168966 
L 142.71035 127.278929 
L 142.861903 127.382598 
L 142.865027 127.380754 
L 143.333747 127.575585 
L 143.468114 127.648415 
L 143.700911 127.758269 
L 143.863401 127.833549 
L 143.969644 127.850227 
L 143.972769 127.855711 
L 144.083699 127.896089 
L 144.094636 127.889483 
L 144.308685 127.98725 
L 144.46805 128.070215 
L 144.516484 128.057572 
L 144.575855 128.095069 
L 145.32112 128.361343 
L 145.328932 128.353873 
L 145.419551 128.415052 
L 145.421114 128.412773 
L 145.6336 128.510433 
L 145.775779 128.589022 
L 146.016388 128.712367 
L 146.127319 128.760078 
L 146.255435 128.834357 
L 146.480421 128.942463 
L 146.606975 129.040255 
L 146.6101 129.03415 
L 146.946016 129.144647 
L 147.072571 129.1773 
L 146.955391 129.138756 
L 147.07882 129.170034 
L 147.119443 129.170584 
L 147.088195 129.182705 
L 147.175689 129.224809 
L 147.196 129.210416 
L 147.322555 129.312383 
L 147.717842 129.500562 
L 147.835022 129.559317 
L 147.842834 129.55755 
L 148.549039 129.668062 
L 148.672468 129.712999 
L 149.092754 129.864225 
L 149.300553 129.986083 
L 149.653655 130.095891 
L 150.134875 130.312436 
L 150.28799 130.376915 
L 150.289552 130.375003 
L 150.436418 130.419493 
L 150.43798 130.417582 
L 150.744211 130.512086 
L 150.875452 130.531836 
L 151.042629 130.589529 
L 151.18012 130.654721 
L 151.183245 130.65002 
L 151.197307 130.649108 
L 151.236367 130.710262 
L 151.26449 130.725312 
L 151.445728 130.791978 
L 151.478539 130.818324 
L 151.555096 130.81903 
L 151.653527 130.880547 
L 151.676963 130.859995 
L 151.742584 130.859541 
L 151.783207 130.895917 
L 151.853515 130.958628 
L 151.911323 130.934496 
L 152.315985 131.064122 
L 152.445664 131.131393 
L 152.544095 131.178591 
L 152.461288 131.153067 
L 152.54722 131.187637 
L 152.658151 131.233016 
L 152.673775 131.218703 
L 153.062812 131.22557 
L 153.201866 131.21545 
L 153.823701 131.422672 
L 153.844012 131.444816 
L 153.934631 131.453093 
L 154.056499 131.464568 
L 159.287414 132.980906 
L 159.420218 133.031726 
L 159.431155 133.016698 
L 159.510837 133.070784 
L 159.528023 133.054928 
L 159.682701 133.069208 
L 161.662262 133.360758 
L 161.945056 133.403267 
L 162.063799 133.476715 
L 162.070048 133.471472 
L 162.230975 133.533829 
L 162.235663 133.526837 
L 162.332531 133.513412 
L 162.35128 133.536897 
L 165.324527 134.120535 
L 165.329215 134.115655 
L 165.444832 134.094783 
L 165.558887 134.096958 
L 165.568262 134.104517 
L 165.691691 134.150264 
L 165.697941 134.139972 
L 165.768249 134.142158 
L 165.712003 134.150725 
L 165.807309 134.159743 
L 166.802558 134.275998 
L 166.96661 134.307074 
L 167.082227 134.326151 
L 166.983796 134.325085 
L 167.08379 134.330952 
L 167.768121 134.466673 
L 167.910299 134.479223 
L 167.771246 134.46212 
L 167.916549 134.470375 
L 167.938423 134.473501 
L 168.005606 134.524881 
L 168.01498 134.516334 
L 168.146222 134.561904 
L 168.825866 134.658276 
L 168.949295 134.67189 
L 169.689873 134.765319 
L 169.985167 134.781788 
L 170.086723 134.812382 
L 170.042975 134.819478 
L 170.09141 134.814183 
L 170.660123 134.922898 
L 170.785115 134.942376 
L 170.814801 134.960467 
L 170.897608 134.964586 
L 171.844423 135.096859 
L 171.861609 135.118236 
L 171.970977 135.084137 
L 172.066283 135.110286 
L 172.088157 135.095741 
L 172.759989 135.158173 
L 173.078719 135.156742 
L 173.086531 135.163503 
L 173.192774 135.184834 
L 173.309954 135.15971 
L 173.438071 135.122693 
L 175.081715 135.229453 
L 175.209832 135.289702 
L 175.216082 135.282628 
L 175.547311 135.297766 
L 175.678552 135.299249 
L 175.784795 135.33276 
L 175.786358 135.335227 
L 178.344007 135.61753 
L 178.487747 135.659004 
L 179.112707 135.756788 
L 179.239262 135.754432 
L 179.240824 135.751687 
L 179.362691 135.719798 
L 179.247074 135.754097 
L 179.365816 135.726929 
L 180.367315 135.86799 
L 180.503243 135.903345 
L 180.511055 135.898743 
L 180.823535 136.003657 
L 180.945403 136.030164 
L 180.946965 136.027767 
L 181.075082 136.027884 
L 181.182887 136.036901 
L 181.195387 136.010278 
L 182.314065 136.119798 
L 182.453119 136.117558 
L 182.454681 136.113341 
L 183.151511 136.218882 
L 183.217132 136.239404 
L 183.159323 136.211152 
L 183.271816 136.200093 
L 183.437431 136.148553 
L 183.598358 136.167937 
L 184.315499 136.292867 
L 184.648291 136.29274 
L 184.807655 136.29077 
L 184.971707 136.305911 
L 185.073263 136.30519 
L 185.095137 136.320638 
L 187.348118 136.413083 
L 187.516857 136.470868 
L 187.641849 136.451711 
L 187.78559 136.436591 
L 188.041823 136.418755 
L 188.163691 136.429962 
L 188.304307 136.430413 
L 188.305869 136.423857 
L 188.75584 136.509703 
L 188.866771 136.54185 
L 188.871458 136.529909 
L 189.512042 136.623014 
L 189.626097 136.632383 
L 189.633909 136.62723 
L 190.263556 136.704471 
L 190.388548 136.68144 
L 190.593223 136.738686 
L 190.732276 136.755185 
L 190.733839 136.752838 
L 190.902578 136.782259 
L 191.022883 136.80248 
L 191.119751 136.815597 
L 191.135375 136.831168 
L 191.269742 136.898257 
L 191.296303 136.879253 
L 192.524349 136.98536 
L 192.630592 137.001364 
L 192.638404 136.99124 
L 196.200676 137.047765 
L 196.22255 137.038934 
L 196.314731 137.036322 
L 197.911504 137.144971 
L 198.016185 137.168835 
L 198.033371 137.150758 
L 198.191174 137.163705 
L 198.311479 137.181378 
L 198.789573 137.264315 
L 198.955187 137.324122 
L 198.95675 137.321656 
L 199.039557 137.311855 
L 199.06768 137.340737 
L 199.22392 137.371921 
L 199.366099 137.380304 
L 199.395784 137.400455 
L 199.483279 137.404357 
L 199.862942 137.388023 
L 199.983247 137.411786 
L 199.987934 137.402207 
L 200.878502 137.50673 
L 200.889439 137.522988 
L 200.98787 137.486407 
L 203.484585 137.58269 
L 203.508021 137.574919 
L 203.606452 137.600397 
L 203.739256 137.57979 
L 203.615827 137.607683 
L 203.748631 137.586866 
L 203.861123 137.585407 
L 203.87206 137.57633 
L 204.011114 137.550097 
L 204.015801 137.557274 
L 207.331214 137.691116 
L 207.456206 137.734785 
L 207.460893 137.732932 
L 207.590572 137.743754 
L 207.754624 137.747732 
L 207.909302 137.714322 
L 208.620194 137.801187 
L 208.723312 137.754993 
L 208.742061 137.761757 
L 208.882677 137.749692 
L 209.493575 137.849237 
L 209.599819 137.844008 
L 209.606068 137.839214 
L 209.843553 137.846404 
L 209.941984 137.832878 
L 209.959171 137.847099 
L 213.113656 137.972238 
L 213.323018 137.937694 
L 213.471446 137.976737 
L 213.473008 137.983312 
L 213.593313 137.963837 
L 213.71518 137.922407 
L 213.719867 137.929552 
L 215.749425 138.023123 
L 215.774423 138.015903 
L 215.86348 138.03653 
L 215.994722 138.042307 
L 215.996284 138.047064 
L 216.157211 138.08041 
L 216.161899 138.071349 
L 219.089836 138.127054 
L 219.227327 138.144383 
L 219.230452 138.14008 
L 219.263263 138.115973 
L 219.33982 138.151961 
L 219.447626 138.14755 
L 219.450751 138.136057 
L 219.560119 138.166002 
L 219.766355 138.245149 
L 219.76948 138.240831 
L 221.264697 138.377001 
L 221.272509 138.366171 
L 221.386564 138.363852 
L 221.506869 138.36584 
L 221.394376 138.370788 
L 221.509994 138.37023 
L 221.592801 138.384858 
L 221.534992 138.35455 
L 221.620924 138.36747 
L 221.809975 138.336646 
L 222.067771 138.377925 
L 222.199012 138.37958 
L 222.367751 138.354194 
L 222.375563 138.342998 
L 222.492743 138.340853 
L 222.511492 138.350004 
L 222.617735 138.314164 
L 223.905153 138.392133 
L 224.003584 138.42123 
L 224.022333 138.405133 
L 226.326873 138.425735 
L 226.326873 138.425735 
" clip-path="url(#p1af860b3fc)" style="fill: none; stroke: #4477aa; stroke-linecap: square"/>
   </g>
   <g id="LineCollection_1">
    <path d="M 38.837311 149.13 
L 38.837311 52.11 
" clip-path="url(#p1af860b3fc)" style="fill: none; stroke-dasharray: 3.7,1.6; stroke-dashoffset: 0; stroke: #000000"/>
    <path d="M 62.273311 149.13 
L 62.273311 52.11 
" clip-path="url(#p1af860b3fc)" style="fill: none; stroke-dasharray: 3.7,1.6; stroke-dashoffset: 0; stroke: #000000"/>
    <path d="M 64.148191 149.13 
L 64.148191 52.11 
" clip-path="url(#p1af860b3fc)" style="fill: none; stroke-dasharray: 3.7,1.6; stroke-dashoffset: 0; stroke: #000000"/>
    <path d="M 87.584191 149.13 
L 87.584191 52.11 
" clip-path="url(#p1af860b3fc)" style="fill: none; stroke-dasharray: 3.7,1.6; stroke-dashoffset: 0; stroke: #000000"/>
   </g>
   <g id="patch_3">
    <path d="M 31.025311 149.13 
L 31.025311 3.6 
" style="fill: none; stroke: #000000; stroke-width: 0.5; stroke-linejoin: miter; stroke-linecap: square"/>
   </g>
   <g id="patch_4">
    <path d="M 226.325311 149.13 
L 226.325311 3.6 
" style="fill: none; stroke: #000000; stroke-width: 0.5; stroke-linejoin: miter; stroke-linecap: square"/>
   </g>
   <g id="patch_5">
    <path d="M 31.025311 149.13 
L 226.325311 149.13 
" style="fill: none; stroke: #000000; stroke-width: 0.5; stroke-linejoin: miter; stroke-linecap: square"/>
   </g>
   <g id="patch_6">
    <path d="M 31.025311 3.6 
L 226.325311 3.6 
" style="fill: none; stroke: #000000; stroke-width: 0.5; stroke-linejoin: miter; stroke-linecap: square"/>
   </g>
  </g>
 </g>
 <defs>
  <clipPath id="p1af860b3fc">
   <rect x="31.025311" y="3.6" width="195.3" height="145.53"/>
  </clipPath>
 </defs>
</svg>
