<?xml version="1.0" encoding="utf-8" standalone="no"?>
<!DOCTYPE svg PUBLIC "-//W3C//DTD SVG 1.1//EN"
  "http://www.w3.org/Graphics/SVG/1.1/DTD/svg11.dtd">
<svg xmlns:xlink="http://www.w3.org/1999/xlink" width="229.925311pt" height="179.048317pt" viewBox="0 0 229.925311 179.048317" xmlns="http://www.w3.org/2000/svg" version="1.1">
 <metadata>
  <rdf:RDF xmlns:dc="http://purl.org/dc/elements/1.1/" xmlns:cc="http://creativecommons.org/ns#" xmlns:rdf="http://www.w3.org/1999/02/22-rdf-syntax-ns#">
   <cc:Work>
    <dc:type rdf:resource="http://purl.org/dc/dcmitype/StillImage"/>
    <dc:date>2025-04-25T13:10:34.659458</dc:date>
    <dc:format>image/svg+xml</dc:format>
    <dc:creator>
     <cc:Agent>
      <dc:title>Matplotlib v3.9.2, https://matplotlib.org/</dc:title>
     </cc:Agent>
    </dc:creator>
   </cc:Work>
  </rdf:RDF>
 </metadata>
 <defs>
  <style type="text/css">*{stroke-linejoin: round; stroke-linecap: butt}</style>
 </defs>
 <g id="figure_1">
  <g id="patch_1">
   <path d="M 0 179.048317 
L 229.925311 179.048317 
L 229.925311 0 
L 0 0 
L 0 179.048317 
z
" style="fill: none"/>
  </g>
  <g id="axes_1">
   <g id="patch_2">
    <path d="M 31.025311 149.13 
L 226.325311 149.13 
L 226.325311 3.6 
L 31.025311 3.6 
L 31.025311 149.13 
z
" style="fill: none"/>
   </g>
   <g id="matplotlib.axis_1">
    <g id="xtick_1">
     <g id="line2d_1">
      <path d="M 38.837311 149.13 
L 38.837311 3.6 
" clip-path="url(#pcac80771fe)" style="fill: none; stroke-dasharray: 1.85,0.8; stroke-dashoffset: 0; stroke: #000000; stroke-opacity: 0.5; stroke-width: 0.5"/>
     </g>
     <g id="line2d_2">
      <defs>
       <path id="mbfbbaf9084" d="M 0 0 
L 0 -3 
" style="stroke: #000000; stroke-width: 0.5"/>
      </defs>
      <g>
       <use xlink:href="#mbfbbaf9084" x="38.837311" y="149.13" style="stroke: #000000; stroke-width: 0.5"/>
      </g>
     </g>
     <g id="line2d_3">
      <defs>
       <path id="maaba5069ad" d="M 0 0 
L 0 3 
" style="stroke: #000000; stroke-width: 0.5"/>
      </defs>
      <g>
       <use xlink:href="#maaba5069ad" x="38.837311" y="3.6" style="stroke: #000000; stroke-width: 0.5"/>
      </g>
     </g>
     <g id="text_1">
      <!-- $\mathdefault{0}$ -->
      <g transform="translate(36.346643 159.548498) scale(0.1 -0.1)">
       <defs>
        <path id="CMR17-30" d="M 2688 2025 
C 2688 2416 2682 3080 2413 3591 
C 2176 4039 1798 4198 1466 4198 
C 1158 4198 768 4058 525 3597 
C 269 3118 243 2524 243 2025 
C 243 1661 250 1106 448 619 
C 723 -39 1216 -128 1466 -128 
C 1760 -128 2208 -7 2470 600 
C 2662 1042 2688 1559 2688 2025 
z
M 1466 -26 
C 1056 -26 813 325 723 812 
C 653 1188 653 1738 653 2096 
C 653 2588 653 2997 736 3387 
C 858 3929 1216 4096 1466 4096 
C 1728 4096 2067 3923 2189 3400 
C 2272 3036 2278 2607 2278 2096 
C 2278 1680 2278 1169 2202 792 
C 2067 95 1690 -26 1466 -26 
z
" transform="scale(0.015625)"/>
       </defs>
       <use xlink:href="#CMR17-30" transform="scale(0.996264)"/>
      </g>
     </g>
    </g>
    <g id="xtick_2">
     <g id="line2d_4">
      <path d="M 77.897311 149.13 
L 77.897311 3.6 
" clip-path="url(#pcac80771fe)" style="fill: none; stroke-dasharray: 1.85,0.8; stroke-dashoffset: 0; stroke: #000000; stroke-opacity: 0.5; stroke-width: 0.5"/>
     </g>
     <g id="line2d_5">
      <g>
       <use xlink:href="#mbfbbaf9084" x="77.897311" y="149.13" style="stroke: #000000; stroke-width: 0.5"/>
      </g>
     </g>
     <g id="line2d_6">
      <g>
       <use xlink:href="#maaba5069ad" x="77.897311" y="3.6" style="stroke: #000000; stroke-width: 0.5"/>
      </g>
     </g>
     <g id="text_2">
      <!-- $\mathdefault{2500}$ -->
      <g transform="translate(67.93464 159.548498) scale(0.1 -0.1)">
       <defs>
        <path id="CMR17-32" d="M 2669 989 
L 2554 989 
C 2490 536 2438 459 2413 420 
C 2381 369 1920 369 1830 369 
L 602 369 
C 832 619 1280 1072 1824 1597 
C 2214 1967 2669 2402 2669 3035 
C 2669 3790 2067 4224 1395 4224 
C 691 4224 262 3604 262 3030 
C 262 2780 448 2748 525 2748 
C 589 2748 781 2787 781 3010 
C 781 3207 614 3264 525 3264 
C 486 3264 448 3258 422 3245 
C 544 3790 915 4058 1306 4058 
C 1862 4058 2227 3617 2227 3035 
C 2227 2479 1901 2000 1536 1584 
L 262 146 
L 262 0 
L 2515 0 
L 2669 989 
z
" transform="scale(0.015625)"/>
        <path id="CMR17-35" d="M 730 3692 
C 794 3666 1056 3584 1325 3584 
C 1920 3584 2246 3911 2432 4100 
C 2432 4157 2432 4192 2394 4192 
C 2387 4192 2374 4192 2323 4163 
C 2099 4058 1837 3973 1517 3973 
C 1325 3973 1037 3999 723 4139 
C 653 4171 640 4171 634 4171 
C 602 4171 595 4164 595 4037 
L 595 2203 
C 595 2089 595 2057 659 2057 
C 691 2057 704 2070 736 2114 
C 941 2401 1222 2522 1542 2522 
C 1766 2522 2246 2382 2246 1289 
C 2246 1085 2246 715 2054 421 
C 1894 159 1645 25 1370 25 
C 947 25 518 320 403 814 
C 429 807 480 795 506 795 
C 589 795 749 840 749 1038 
C 749 1210 627 1280 506 1280 
C 358 1280 262 1190 262 1011 
C 262 454 704 -128 1382 -128 
C 2042 -128 2669 440 2669 1264 
C 2669 2030 2170 2624 1549 2624 
C 1222 2624 947 2503 730 2274 
L 730 3692 
z
" transform="scale(0.015625)"/>
       </defs>
       <use xlink:href="#CMR17-32" transform="scale(0.996264)"/>
       <use xlink:href="#CMR17-35" transform="translate(45.690477 0) scale(0.996264)"/>
       <use xlink:href="#CMR17-30" transform="translate(91.380954 0) scale(0.996264)"/>
       <use xlink:href="#CMR17-30" transform="translate(137.071431 0) scale(0.996264)"/>
      </g>
     </g>
    </g>
    <g id="xtick_3">
     <g id="line2d_7">
      <path d="M 116.957311 149.13 
L 116.957311 3.6 
" clip-path="url(#pcac80771fe)" style="fill: none; stroke-dasharray: 1.85,0.8; stroke-dashoffset: 0; stroke: #000000; stroke-opacity: 0.5; stroke-width: 0.5"/>
     </g>
     <g id="line2d_8">
      <g>
       <use xlink:href="#mbfbbaf9084" x="116.957311" y="149.13" style="stroke: #000000; stroke-width: 0.5"/>
      </g>
     </g>
     <g id="line2d_9">
      <g>
       <use xlink:href="#maaba5069ad" x="116.957311" y="3.6" style="stroke: #000000; stroke-width: 0.5"/>
      </g>
     </g>
     <g id="text_3">
      <!-- $\mathdefault{5000}$ -->
      <g transform="translate(106.99464 159.548498) scale(0.1 -0.1)">
       <use xlink:href="#CMR17-35" transform="scale(0.996264)"/>
       <use xlink:href="#CMR17-30" transform="translate(45.690477 0) scale(0.996264)"/>
       <use xlink:href="#CMR17-30" transform="translate(91.380954 0) scale(0.996264)"/>
       <use xlink:href="#CMR17-30" transform="translate(137.071431 0) scale(0.996264)"/>
      </g>
     </g>
    </g>
    <g id="xtick_4">
     <g id="line2d_10">
      <path d="M 156.017311 149.13 
L 156.017311 3.6 
" clip-path="url(#pcac80771fe)" style="fill: none; stroke-dasharray: 1.85,0.8; stroke-dashoffset: 0; stroke: #000000; stroke-opacity: 0.5; stroke-width: 0.5"/>
     </g>
     <g id="line2d_11">
      <g>
       <use xlink:href="#mbfbbaf9084" x="156.017311" y="149.13" style="stroke: #000000; stroke-width: 0.5"/>
      </g>
     </g>
     <g id="line2d_12">
      <g>
       <use xlink:href="#maaba5069ad" x="156.017311" y="3.6" style="stroke: #000000; stroke-width: 0.5"/>
      </g>
     </g>
     <g id="text_4">
      <!-- $\mathdefault{7500}$ -->
      <g transform="translate(146.05464 159.548498) scale(0.1 -0.1)">
       <defs>
        <path id="CMR17-37" d="M 2886 3941 
L 2886 4081 
L 1382 4081 
C 634 4081 621 4165 595 4288 
L 480 4288 
L 294 3094 
L 410 3094 
C 429 3215 474 3540 550 3661 
C 589 3712 1062 3712 1171 3712 
L 2579 3712 
L 1869 2661 
C 1395 1954 1069 999 1069 165 
C 1069 89 1069 -128 1299 -128 
C 1530 -128 1530 89 1530 171 
L 1530 465 
C 1530 1508 1709 2196 2003 2636 
L 2886 3941 
z
" transform="scale(0.015625)"/>
       </defs>
       <use xlink:href="#CMR17-37" transform="scale(0.996264)"/>
       <use xlink:href="#CMR17-35" transform="translate(45.690477 0) scale(0.996264)"/>
       <use xlink:href="#CMR17-30" transform="translate(91.380954 0) scale(0.996264)"/>
       <use xlink:href="#CMR17-30" transform="translate(137.071431 0) scale(0.996264)"/>
      </g>
     </g>
    </g>
    <g id="xtick_5">
     <g id="line2d_13">
      <path d="M 195.077311 149.13 
L 195.077311 3.6 
" clip-path="url(#pcac80771fe)" style="fill: none; stroke-dasharray: 1.85,0.8; stroke-dashoffset: 0; stroke: #000000; stroke-opacity: 0.5; stroke-width: 0.5"/>
     </g>
     <g id="line2d_14">
      <g>
       <use xlink:href="#mbfbbaf9084" x="195.077311" y="149.13" style="stroke: #000000; stroke-width: 0.5"/>
      </g>
     </g>
     <g id="line2d_15">
      <g>
       <use xlink:href="#maaba5069ad" x="195.077311" y="3.6" style="stroke: #000000; stroke-width: 0.5"/>
      </g>
     </g>
     <g id="text_5">
      <!-- $\mathdefault{10000}$ -->
      <g transform="translate(182.623972 159.548498) scale(0.1 -0.1)">
       <defs>
        <path id="CMR17-31" d="M 1702 4058 
C 1702 4192 1696 4192 1606 4192 
C 1357 3916 979 3827 621 3827 
C 602 3827 570 3827 563 3808 
C 557 3795 557 3782 557 3648 
C 755 3648 1088 3686 1344 3839 
L 1344 461 
C 1344 236 1331 160 781 160 
L 589 160 
L 589 0 
C 896 0 1216 0 1523 0 
C 1830 0 2150 0 2458 0 
L 2458 160 
L 2266 160 
C 1715 160 1702 230 1702 458 
L 1702 4058 
z
" transform="scale(0.015625)"/>
       </defs>
       <use xlink:href="#CMR17-31" transform="scale(0.996264)"/>
       <use xlink:href="#CMR17-30" transform="translate(45.690477 0) scale(0.996264)"/>
       <use xlink:href="#CMR17-30" transform="translate(91.380954 0) scale(0.996264)"/>
       <use xlink:href="#CMR17-30" transform="translate(137.071431 0) scale(0.996264)"/>
       <use xlink:href="#CMR17-30" transform="translate(182.761908 0) scale(0.996264)"/>
      </g>
     </g>
    </g>
    <g id="xtick_6">
     <g id="line2d_16">
      <defs>
       <path id="mbad76b994a" d="M 0 0 
L 0 -1.5 
" style="stroke: #000000; stroke-width: 0.5"/>
      </defs>
      <g>
       <use xlink:href="#mbad76b994a" x="31.025311" y="149.13" style="stroke: #000000; stroke-width: 0.5"/>
      </g>
     </g>
     <g id="line2d_17">
      <defs>
       <path id="md710512e60" d="M 0 0 
L 0 1.5 
" style="stroke: #000000; stroke-width: 0.5"/>
      </defs>
      <g>
       <use xlink:href="#md710512e60" x="31.025311" y="3.6" style="stroke: #000000; stroke-width: 0.5"/>
      </g>
     </g>
    </g>
    <g id="xtick_7">
     <g id="line2d_18">
      <g>
       <use xlink:href="#mbad76b994a" x="46.649311" y="149.13" style="stroke: #000000; stroke-width: 0.5"/>
      </g>
     </g>
     <g id="line2d_19">
      <g>
       <use xlink:href="#md710512e60" x="46.649311" y="3.6" style="stroke: #000000; stroke-width: 0.5"/>
      </g>
     </g>
    </g>
    <g id="xtick_8">
     <g id="line2d_20">
      <g>
       <use xlink:href="#mbad76b994a" x="54.461311" y="149.13" style="stroke: #000000; stroke-width: 0.5"/>
      </g>
     </g>
     <g id="line2d_21">
      <g>
       <use xlink:href="#md710512e60" x="54.461311" y="3.6" style="stroke: #000000; stroke-width: 0.5"/>
      </g>
     </g>
    </g>
    <g id="xtick_9">
     <g id="line2d_22">
      <g>
       <use xlink:href="#mbad76b994a" x="62.273311" y="149.13" style="stroke: #000000; stroke-width: 0.5"/>
      </g>
     </g>
     <g id="line2d_23">
      <g>
       <use xlink:href="#md710512e60" x="62.273311" y="3.6" style="stroke: #000000; stroke-width: 0.5"/>
      </g>
     </g>
    </g>
    <g id="xtick_10">
     <g id="line2d_24">
      <g>
       <use xlink:href="#mbad76b994a" x="70.085311" y="149.13" style="stroke: #000000; stroke-width: 0.5"/>
      </g>
     </g>
     <g id="line2d_25">
      <g>
       <use xlink:href="#md710512e60" x="70.085311" y="3.6" style="stroke: #000000; stroke-width: 0.5"/>
      </g>
     </g>
    </g>
    <g id="xtick_11">
     <g id="line2d_26">
      <g>
       <use xlink:href="#mbad76b994a" x="85.709311" y="149.13" style="stroke: #000000; stroke-width: 0.5"/>
      </g>
     </g>
     <g id="line2d_27">
      <g>
       <use xlink:href="#md710512e60" x="85.709311" y="3.6" style="stroke: #000000; stroke-width: 0.5"/>
      </g>
     </g>
    </g>
    <g id="xtick_12">
     <g id="line2d_28">
      <g>
       <use xlink:href="#mbad76b994a" x="93.521311" y="149.13" style="stroke: #000000; stroke-width: 0.5"/>
      </g>
     </g>
     <g id="line2d_29">
      <g>
       <use xlink:href="#md710512e60" x="93.521311" y="3.6" style="stroke: #000000; stroke-width: 0.5"/>
      </g>
     </g>
    </g>
    <g id="xtick_13">
     <g id="line2d_30">
      <g>
       <use xlink:href="#mbad76b994a" x="101.333311" y="149.13" style="stroke: #000000; stroke-width: 0.5"/>
      </g>
     </g>
     <g id="line2d_31">
      <g>
       <use xlink:href="#md710512e60" x="101.333311" y="3.6" style="stroke: #000000; stroke-width: 0.5"/>
      </g>
     </g>
    </g>
    <g id="xtick_14">
     <g id="line2d_32">
      <g>
       <use xlink:href="#mbad76b994a" x="109.145311" y="149.13" style="stroke: #000000; stroke-width: 0.5"/>
      </g>
     </g>
     <g id="line2d_33">
      <g>
       <use xlink:href="#md710512e60" x="109.145311" y="3.6" style="stroke: #000000; stroke-width: 0.5"/>
      </g>
     </g>
    </g>
    <g id="xtick_15">
     <g id="line2d_34">
      <g>
       <use xlink:href="#mbad76b994a" x="124.769311" y="149.13" style="stroke: #000000; stroke-width: 0.5"/>
      </g>
     </g>
     <g id="line2d_35">
      <g>
       <use xlink:href="#md710512e60" x="124.769311" y="3.6" style="stroke: #000000; stroke-width: 0.5"/>
      </g>
     </g>
    </g>
    <g id="xtick_16">
     <g id="line2d_36">
      <g>
       <use xlink:href="#mbad76b994a" x="132.581311" y="149.13" style="stroke: #000000; stroke-width: 0.5"/>
      </g>
     </g>
     <g id="line2d_37">
      <g>
       <use xlink:href="#md710512e60" x="132.581311" y="3.6" style="stroke: #000000; stroke-width: 0.5"/>
      </g>
     </g>
    </g>
    <g id="xtick_17">
     <g id="line2d_38">
      <g>
       <use xlink:href="#mbad76b994a" x="140.393311" y="149.13" style="stroke: #000000; stroke-width: 0.5"/>
      </g>
     </g>
     <g id="line2d_39">
      <g>
       <use xlink:href="#md710512e60" x="140.393311" y="3.6" style="stroke: #000000; stroke-width: 0.5"/>
      </g>
     </g>
    </g>
    <g id="xtick_18">
     <g id="line2d_40">
      <g>
       <use xlink:href="#mbad76b994a" x="148.205311" y="149.13" style="stroke: #000000; stroke-width: 0.5"/>
      </g>
     </g>
     <g id="line2d_41">
      <g>
       <use xlink:href="#md710512e60" x="148.205311" y="3.6" style="stroke: #000000; stroke-width: 0.5"/>
      </g>
     </g>
    </g>
    <g id="xtick_19">
     <g id="line2d_42">
      <g>
       <use xlink:href="#mbad76b994a" x="163.829311" y="149.13" style="stroke: #000000; stroke-width: 0.5"/>
      </g>
     </g>
     <g id="line2d_43">
      <g>
       <use xlink:href="#md710512e60" x="163.829311" y="3.6" style="stroke: #000000; stroke-width: 0.5"/>
      </g>
     </g>
    </g>
    <g id="xtick_20">
     <g id="line2d_44">
      <g>
       <use xlink:href="#mbad76b994a" x="171.641311" y="149.13" style="stroke: #000000; stroke-width: 0.5"/>
      </g>
     </g>
     <g id="line2d_45">
      <g>
       <use xlink:href="#md710512e60" x="171.641311" y="3.6" style="stroke: #000000; stroke-width: 0.5"/>
      </g>
     </g>
    </g>
    <g id="xtick_21">
     <g id="line2d_46">
      <g>
       <use xlink:href="#mbad76b994a" x="179.453311" y="149.13" style="stroke: #000000; stroke-width: 0.5"/>
      </g>
     </g>
     <g id="line2d_47">
      <g>
       <use xlink:href="#md710512e60" x="179.453311" y="3.6" style="stroke: #000000; stroke-width: 0.5"/>
      </g>
     </g>
    </g>
    <g id="xtick_22">
     <g id="line2d_48">
      <g>
       <use xlink:href="#mbad76b994a" x="187.265311" y="149.13" style="stroke: #000000; stroke-width: 0.5"/>
      </g>
     </g>
     <g id="line2d_49">
      <g>
       <use xlink:href="#md710512e60" x="187.265311" y="3.6" style="stroke: #000000; stroke-width: 0.5"/>
      </g>
     </g>
    </g>
    <g id="xtick_23">
     <g id="line2d_50">
      <g>
       <use xlink:href="#mbad76b994a" x="202.889311" y="149.13" style="stroke: #000000; stroke-width: 0.5"/>
      </g>
     </g>
     <g id="line2d_51">
      <g>
       <use xlink:href="#md710512e60" x="202.889311" y="3.6" style="stroke: #000000; stroke-width: 0.5"/>
      </g>
     </g>
    </g>
    <g id="xtick_24">
     <g id="line2d_52">
      <g>
       <use xlink:href="#mbad76b994a" x="210.701311" y="149.13" style="stroke: #000000; stroke-width: 0.5"/>
      </g>
     </g>
     <g id="line2d_53">
      <g>
       <use xlink:href="#md710512e60" x="210.701311" y="3.6" style="stroke: #000000; stroke-width: 0.5"/>
      </g>
     </g>
    </g>
    <g id="xtick_25">
     <g id="line2d_54">
      <g>
       <use xlink:href="#mbad76b994a" x="218.513311" y="149.13" style="stroke: #000000; stroke-width: 0.5"/>
      </g>
     </g>
     <g id="line2d_55">
      <g>
       <use xlink:href="#md710512e60" x="218.513311" y="3.6" style="stroke: #000000; stroke-width: 0.5"/>
      </g>
     </g>
    </g>
    <g id="xtick_26">
     <g id="line2d_56">
      <g>
       <use xlink:href="#mbad76b994a" x="226.325311" y="149.13" style="stroke: #000000; stroke-width: 0.5"/>
      </g>
     </g>
     <g id="line2d_57">
      <g>
       <use xlink:href="#md710512e60" x="226.325311" y="3.6" style="stroke: #000000; stroke-width: 0.5"/>
      </g>
     </g>
    </g>
    <g id="text_6">
     <!-- $t$ [ns] -->
     <g transform="translate(117.716391 172.957657) scale(0.1 -0.1)">
      <defs>
       <path id="CMMI12-74" d="M 1286 2566 
L 1875 2566 
C 1997 2566 2061 2566 2061 2681 
C 2061 2752 2022 2752 1894 2752 
L 1331 2752 
L 1568 3692 
C 1594 3781 1594 3794 1594 3840 
C 1594 3943 1510 4000 1427 4000 
C 1376 4000 1229 3981 1178 3775 
L 928 2752 
L 326 2752 
C 198 2752 141 2752 141 2630 
C 141 2566 186 2566 307 2566 
L 877 2566 
L 454 881 
C 403 658 384 594 384 511 
C 384 211 595 -64 954 -64 
C 1600 -64 1946 868 1946 912 
C 1946 951 1920 970 1882 970 
C 1869 970 1843 970 1830 944 
C 1824 938 1818 931 1773 829 
C 1638 511 1344 64 973 64 
C 781 64 768 224 768 364 
C 768 370 768 492 787 568 
L 1286 2566 
z
" transform="scale(0.015625)"/>
       <path id="CMR17-5b" d="M 1504 -1600 
L 1504 -1377 
L 902 -1377 
L 902 4544 
L 1504 4544 
L 1504 4767 
L 678 4767 
L 678 -1600 
L 1504 -1600 
z
" transform="scale(0.015625)"/>
       <path id="CMR17-6e" d="M 2656 1933 
C 2656 2259 2592 2790 1837 2790 
C 1331 2790 1069 2400 973 2144 
L 966 2144 
L 966 2790 
L 211 2720 
L 211 2554 
C 589 2554 646 2515 646 2208 
L 646 428 
C 646 184 621 153 211 153 
L 211 -13 
C 365 0 646 0 813 0 
C 979 0 1267 0 1421 -13 
L 1421 153 
C 1011 153 986 178 986 428 
L 986 1658 
C 986 2247 1344 2688 1792 2688 
C 2266 2688 2317 2266 2317 1958 
L 2317 428 
C 2317 184 2291 153 1882 153 
L 1882 -13 
C 2035 0 2317 0 2483 0 
C 2650 0 2938 0 3091 -13 
L 3091 153 
C 2682 153 2656 178 2656 428 
L 2656 1933 
z
" transform="scale(0.015625)"/>
       <path id="CMR17-73" d="M 1978 2697 
C 1978 2813 1971 2819 1933 2819 
C 1907 2819 1901 2813 1824 2717 
C 1805 2691 1747 2626 1728 2601 
C 1523 2819 1235 2819 1126 2819 
C 416 2819 160 2447 160 2076 
C 160 1498 813 1365 998 1325 
C 1402 1243 1542 1217 1677 1101 
C 1760 1025 1901 884 1901 654 
C 1901 384 1747 38 1158 38 
C 602 38 403 460 288 1021 
C 269 1110 269 1117 218 1117 
C 166 1117 160 1110 160 983 
L 160 63 
C 160 -51 166 -58 205 -58 
C 237 -58 243 -51 275 0 
C 314 57 410 211 448 276 
C 576 103 800 -64 1158 -64 
C 1792 -64 2131 283 2131 784 
C 2131 1112 1958 1285 1875 1362 
C 1683 1561 1459 1606 1190 1657 
C 838 1735 390 1825 390 2217 
C 390 2383 480 2737 1126 2737 
C 1811 2737 1850 2094 1862 1888 
C 1869 1856 1901 1849 1920 1849 
C 1978 1849 1978 1869 1978 1978 
L 1978 2697 
z
" transform="scale(0.015625)"/>
       <path id="CMR17-5d" d="M 915 4767 
L 90 4767 
L 90 4544 
L 691 4544 
L 691 -1377 
L 90 -1377 
L 90 -1600 
L 915 -1600 
L 915 4767 
z
" transform="scale(0.015625)"/>
      </defs>
      <use xlink:href="#CMMI12-74" transform="scale(0.996264)"/>
      <use xlink:href="#CMR17-5b" transform="translate(65.302297 0) scale(0.996264)"/>
      <use xlink:href="#CMR17-6e" transform="translate(90.173355 0) scale(0.996264)"/>
      <use xlink:href="#CMR17-73" transform="translate(141.068725 0) scale(0.996264)"/>
      <use xlink:href="#CMR17-5d" transform="translate(176.870062 0) scale(0.996264)"/>
     </g>
    </g>
   </g>
   <g id="matplotlib.axis_2">
    <g id="ytick_1">
     <g id="line2d_58">
      <path d="M 31.025311 149.13 
L 226.325311 149.13 
" clip-path="url(#pcac80771fe)" style="fill: none; stroke-dasharray: 1.85,0.8; stroke-dashoffset: 0; stroke: #000000; stroke-opacity: 0.5; stroke-width: 0.5"/>
     </g>
     <g id="line2d_59">
      <defs>
       <path id="mab0a377898" d="M 0 0 
L 3 0 
" style="stroke: #000000; stroke-width: 0.5"/>
      </defs>
      <g>
       <use xlink:href="#mab0a377898" x="31.025311" y="149.13" style="stroke: #000000; stroke-width: 0.5"/>
      </g>
     </g>
     <g id="line2d_60">
      <defs>
       <path id="mccd2505409" d="M 0 0 
L -3 0 
" style="stroke: #000000; stroke-width: 0.5"/>
      </defs>
      <g>
       <use xlink:href="#mccd2505409" x="226.325311" y="149.13" style="stroke: #000000; stroke-width: 0.5"/>
      </g>
     </g>
     <g id="text_7">
      <!-- $\mathdefault{0}$ -->
      <g transform="translate(22.543975 152.589249) scale(0.1 -0.1)">
       <use xlink:href="#CMR17-30" transform="scale(0.996264)"/>
      </g>
     </g>
    </g>
    <g id="ytick_2">
     <g id="line2d_61">
      <path d="M 31.025311 116.79 
L 226.325311 116.79 
" clip-path="url(#pcac80771fe)" style="fill: none; stroke-dasharray: 1.85,0.8; stroke-dashoffset: 0; stroke: #000000; stroke-opacity: 0.5; stroke-width: 0.5"/>
     </g>
     <g id="line2d_62">
      <g>
       <use xlink:href="#mab0a377898" x="31.025311" y="116.79" style="stroke: #000000; stroke-width: 0.5"/>
      </g>
     </g>
     <g id="line2d_63">
      <g>
       <use xlink:href="#mccd2505409" x="226.325311" y="116.79" style="stroke: #000000; stroke-width: 0.5"/>
      </g>
     </g>
     <g id="text_8">
      <!-- $\mathdefault{20}$ -->
      <g transform="translate(17.56264 120.249249) scale(0.1 -0.1)">
       <use xlink:href="#CMR17-32" transform="scale(0.996264)"/>
       <use xlink:href="#CMR17-30" transform="translate(45.690477 0) scale(0.996264)"/>
      </g>
     </g>
    </g>
    <g id="ytick_3">
     <g id="line2d_64">
      <path d="M 31.025311 84.45 
L 226.325311 84.45 
" clip-path="url(#pcac80771fe)" style="fill: none; stroke-dasharray: 1.85,0.8; stroke-dashoffset: 0; stroke: #000000; stroke-opacity: 0.5; stroke-width: 0.5"/>
     </g>
     <g id="line2d_65">
      <g>
       <use xlink:href="#mab0a377898" x="31.025311" y="84.45" style="stroke: #000000; stroke-width: 0.5"/>
      </g>
     </g>
     <g id="line2d_66">
      <g>
       <use xlink:href="#mccd2505409" x="226.325311" y="84.45" style="stroke: #000000; stroke-width: 0.5"/>
      </g>
     </g>
     <g id="text_9">
      <!-- $\mathdefault{40}$ -->
      <g transform="translate(17.56264 87.909249) scale(0.1 -0.1)">
       <defs>
        <path id="CMR17-34" d="M 2150 4122 
C 2150 4256 2144 4256 2029 4256 
L 128 1254 
L 128 1088 
L 1779 1088 
L 1779 457 
C 1779 224 1766 160 1318 160 
L 1197 160 
L 1197 0 
C 1402 0 1747 0 1965 0 
C 2182 0 2528 0 2733 0 
L 2733 160 
L 2611 160 
C 2163 160 2150 224 2150 457 
L 2150 1088 
L 2803 1088 
L 2803 1254 
L 2150 1254 
L 2150 4122 
z
M 1798 3703 
L 1798 1254 
L 256 1254 
L 1798 3703 
z
" transform="scale(0.015625)"/>
       </defs>
       <use xlink:href="#CMR17-34" transform="scale(0.996264)"/>
       <use xlink:href="#CMR17-30" transform="translate(45.690477 0) scale(0.996264)"/>
      </g>
     </g>
    </g>
    <g id="ytick_4">
     <g id="line2d_67">
      <path d="M 31.025311 52.11 
L 226.325311 52.11 
" clip-path="url(#pcac80771fe)" style="fill: none; stroke-dasharray: 1.85,0.8; stroke-dashoffset: 0; stroke: #000000; stroke-opacity: 0.5; stroke-width: 0.5"/>
     </g>
     <g id="line2d_68">
      <g>
       <use xlink:href="#mab0a377898" x="31.025311" y="52.11" style="stroke: #000000; stroke-width: 0.5"/>
      </g>
     </g>
     <g id="line2d_69">
      <g>
       <use xlink:href="#mccd2505409" x="226.325311" y="52.11" style="stroke: #000000; stroke-width: 0.5"/>
      </g>
     </g>
     <g id="text_10">
      <!-- $\mathdefault{60}$ -->
      <g transform="translate(17.56264 55.569249) scale(0.1 -0.1)">
       <defs>
        <path id="CMR17-36" d="M 678 2176 
C 678 3690 1395 4032 1811 4032 
C 1946 4032 2272 4009 2400 3776 
C 2298 3776 2106 3776 2106 3553 
C 2106 3381 2246 3323 2336 3323 
C 2394 3323 2566 3348 2566 3560 
C 2566 3954 2246 4179 1805 4179 
C 1043 4179 243 3390 243 1984 
C 243 253 966 -128 1478 -128 
C 2099 -128 2688 427 2688 1283 
C 2688 2081 2170 2662 1517 2662 
C 1126 2662 838 2407 678 1960 
L 678 2176 
z
M 1478 25 
C 691 25 691 1200 691 1436 
C 691 1896 909 2560 1504 2560 
C 1613 2560 1926 2560 2138 2120 
C 2253 1870 2253 1609 2253 1289 
C 2253 944 2253 690 2118 434 
C 1978 171 1773 25 1478 25 
z
" transform="scale(0.015625)"/>
       </defs>
       <use xlink:href="#CMR17-36" transform="scale(0.996264)"/>
       <use xlink:href="#CMR17-30" transform="translate(45.690477 0) scale(0.996264)"/>
      </g>
     </g>
    </g>
    <g id="ytick_5">
     <g id="line2d_70">
      <path d="M 31.025311 19.77 
L 226.325311 19.77 
" clip-path="url(#pcac80771fe)" style="fill: none; stroke-dasharray: 1.85,0.8; stroke-dashoffset: 0; stroke: #000000; stroke-opacity: 0.5; stroke-width: 0.5"/>
     </g>
     <g id="line2d_71">
      <g>
       <use xlink:href="#mab0a377898" x="31.025311" y="19.77" style="stroke: #000000; stroke-width: 0.5"/>
      </g>
     </g>
     <g id="line2d_72">
      <g>
       <use xlink:href="#mccd2505409" x="226.325311" y="19.77" style="stroke: #000000; stroke-width: 0.5"/>
      </g>
     </g>
     <g id="text_11">
      <!-- $\mathdefault{80}$ -->
      <g transform="translate(17.56264 23.229249) scale(0.1 -0.1)">
       <defs>
        <path id="CMR17-38" d="M 1741 2264 
C 2144 2467 2554 2773 2554 3263 
C 2554 3841 1990 4179 1472 4179 
C 890 4179 378 3759 378 3180 
C 378 3021 416 2747 666 2505 
C 730 2442 998 2251 1171 2130 
C 883 1983 211 1634 211 934 
C 211 279 838 -128 1459 -128 
C 2144 -128 2720 362 2720 1010 
C 2720 1590 2330 1857 2074 2029 
L 1741 2264 
z
M 902 2822 
C 851 2854 595 3051 595 3351 
C 595 3739 998 4032 1459 4032 
C 1965 4032 2336 3676 2336 3262 
C 2336 2669 1670 2331 1638 2331 
C 1632 2331 1626 2331 1574 2370 
L 902 2822 
z
M 2080 1519 
C 2176 1449 2483 1240 2483 851 
C 2483 381 2010 25 1472 25 
C 890 25 448 438 448 940 
C 448 1443 838 1862 1280 2060 
L 2080 1519 
z
" transform="scale(0.015625)"/>
       </defs>
       <use xlink:href="#CMR17-38" transform="scale(0.996264)"/>
       <use xlink:href="#CMR17-30" transform="translate(45.690477 0) scale(0.996264)"/>
      </g>
     </g>
    </g>
    <g id="ytick_6">
     <g id="line2d_73">
      <defs>
       <path id="m1bce4a9c6c" d="M 0 0 
L 1.5 0 
" style="stroke: #000000; stroke-width: 0.5"/>
      </defs>
      <g>
       <use xlink:href="#m1bce4a9c6c" x="31.025311" y="141.045" style="stroke: #000000; stroke-width: 0.5"/>
      </g>
     </g>
     <g id="line2d_74">
      <defs>
       <path id="m97322f7786" d="M 0 0 
L -1.5 0 
" style="stroke: #000000; stroke-width: 0.5"/>
      </defs>
      <g>
       <use xlink:href="#m97322f7786" x="226.325311" y="141.045" style="stroke: #000000; stroke-width: 0.5"/>
      </g>
     </g>
    </g>
    <g id="ytick_7">
     <g id="line2d_75">
      <g>
       <use xlink:href="#m1bce4a9c6c" x="31.025311" y="132.96" style="stroke: #000000; stroke-width: 0.5"/>
      </g>
     </g>
     <g id="line2d_76">
      <g>
       <use xlink:href="#m97322f7786" x="226.325311" y="132.96" style="stroke: #000000; stroke-width: 0.5"/>
      </g>
     </g>
    </g>
    <g id="ytick_8">
     <g id="line2d_77">
      <g>
       <use xlink:href="#m1bce4a9c6c" x="31.025311" y="124.875" style="stroke: #000000; stroke-width: 0.5"/>
      </g>
     </g>
     <g id="line2d_78">
      <g>
       <use xlink:href="#m97322f7786" x="226.325311" y="124.875" style="stroke: #000000; stroke-width: 0.5"/>
      </g>
     </g>
    </g>
    <g id="ytick_9">
     <g id="line2d_79">
      <g>
       <use xlink:href="#m1bce4a9c6c" x="31.025311" y="108.705" style="stroke: #000000; stroke-width: 0.5"/>
      </g>
     </g>
     <g id="line2d_80">
      <g>
       <use xlink:href="#m97322f7786" x="226.325311" y="108.705" style="stroke: #000000; stroke-width: 0.5"/>
      </g>
     </g>
    </g>
    <g id="ytick_10">
     <g id="line2d_81">
      <g>
       <use xlink:href="#m1bce4a9c6c" x="31.025311" y="100.62" style="stroke: #000000; stroke-width: 0.5"/>
      </g>
     </g>
     <g id="line2d_82">
      <g>
       <use xlink:href="#m97322f7786" x="226.325311" y="100.62" style="stroke: #000000; stroke-width: 0.5"/>
      </g>
     </g>
    </g>
    <g id="ytick_11">
     <g id="line2d_83">
      <g>
       <use xlink:href="#m1bce4a9c6c" x="31.025311" y="92.535" style="stroke: #000000; stroke-width: 0.5"/>
      </g>
     </g>
     <g id="line2d_84">
      <g>
       <use xlink:href="#m97322f7786" x="226.325311" y="92.535" style="stroke: #000000; stroke-width: 0.5"/>
      </g>
     </g>
    </g>
    <g id="ytick_12">
     <g id="line2d_85">
      <g>
       <use xlink:href="#m1bce4a9c6c" x="31.025311" y="76.365" style="stroke: #000000; stroke-width: 0.5"/>
      </g>
     </g>
     <g id="line2d_86">
      <g>
       <use xlink:href="#m97322f7786" x="226.325311" y="76.365" style="stroke: #000000; stroke-width: 0.5"/>
      </g>
     </g>
    </g>
    <g id="ytick_13">
     <g id="line2d_87">
      <g>
       <use xlink:href="#m1bce4a9c6c" x="31.025311" y="68.28" style="stroke: #000000; stroke-width: 0.5"/>
      </g>
     </g>
     <g id="line2d_88">
      <g>
       <use xlink:href="#m97322f7786" x="226.325311" y="68.28" style="stroke: #000000; stroke-width: 0.5"/>
      </g>
     </g>
    </g>
    <g id="ytick_14">
     <g id="line2d_89">
      <g>
       <use xlink:href="#m1bce4a9c6c" x="31.025311" y="60.195" style="stroke: #000000; stroke-width: 0.5"/>
      </g>
     </g>
     <g id="line2d_90">
      <g>
       <use xlink:href="#m97322f7786" x="226.325311" y="60.195" style="stroke: #000000; stroke-width: 0.5"/>
      </g>
     </g>
    </g>
    <g id="ytick_15">
     <g id="line2d_91">
      <g>
       <use xlink:href="#m1bce4a9c6c" x="31.025311" y="44.025" style="stroke: #000000; stroke-width: 0.5"/>
      </g>
     </g>
     <g id="line2d_92">
      <g>
       <use xlink:href="#m97322f7786" x="226.325311" y="44.025" style="stroke: #000000; stroke-width: 0.5"/>
      </g>
     </g>
    </g>
    <g id="ytick_16">
     <g id="line2d_93">
      <g>
       <use xlink:href="#m1bce4a9c6c" x="31.025311" y="35.94" style="stroke: #000000; stroke-width: 0.5"/>
      </g>
     </g>
     <g id="line2d_94">
      <g>
       <use xlink:href="#m97322f7786" x="226.325311" y="35.94" style="stroke: #000000; stroke-width: 0.5"/>
      </g>
     </g>
    </g>
    <g id="ytick_17">
     <g id="line2d_95">
      <g>
       <use xlink:href="#m1bce4a9c6c" x="31.025311" y="27.855" style="stroke: #000000; stroke-width: 0.5"/>
      </g>
     </g>
     <g id="line2d_96">
      <g>
       <use xlink:href="#m97322f7786" x="226.325311" y="27.855" style="stroke: #000000; stroke-width: 0.5"/>
      </g>
     </g>
    </g>
    <g id="ytick_18">
     <g id="line2d_97">
      <g>
       <use xlink:href="#m1bce4a9c6c" x="31.025311" y="11.685" style="stroke: #000000; stroke-width: 0.5"/>
      </g>
     </g>
     <g id="line2d_98">
      <g>
       <use xlink:href="#m97322f7786" x="226.325311" y="11.685" style="stroke: #000000; stroke-width: 0.5"/>
      </g>
     </g>
    </g>
    <g id="ytick_19">
     <g id="line2d_99">
      <g>
       <use xlink:href="#m1bce4a9c6c" x="31.025311" y="3.6" style="stroke: #000000; stroke-width: 0.5"/>
      </g>
     </g>
     <g id="line2d_100">
      <g>
       <use xlink:href="#m97322f7786" x="226.325311" y="3.6" style="stroke: #000000; stroke-width: 0.5"/>
      </g>
     </g>
    </g>
    <g id="text_12">
     <!-- $U_1$ [mV] -->
     <g transform="translate(11.07198 94.315774) rotate(-90) scale(0.1 -0.1)">
      <defs>
       <path id="CMMI12-55" d="M 3238 1474 
C 3014 581 2272 57 1670 57 
C 1210 57 896 363 896 891 
C 896 916 896 1107 966 1387 
L 1594 3887 
C 1651 4103 1664 4167 2118 4167 
C 2234 4167 2298 4167 2298 4282 
C 2298 4352 2240 4352 2202 4352 
C 2086 4352 1952 4352 1830 4352 
L 1075 4352 
C 954 4352 819 4352 698 4352 
C 653 4352 576 4352 576 4231 
C 576 4167 621 4167 742 4167 
C 1126 4167 1126 4116 1126 4046 
C 1126 4008 1082 3824 1050 3715 
L 493 1488 
C 474 1418 435 1246 435 1075 
C 435 374 941 -128 1638 -128 
C 2285 -128 3002 384 3328 1197 
C 3373 1305 3430 1530 3469 1702 
C 3533 1933 3667 2496 3712 2662 
L 3955 3623 
C 4038 3956 4090 4167 4653 4167 
C 4704 4173 4730 4224 4730 4282 
C 4730 4352 4672 4352 4646 4352 
C 4557 4352 4442 4352 4352 4352 
L 4051 4352 
C 3654 4352 3450 4352 3443 4352 
C 3405 4352 3328 4352 3328 4231 
C 3328 4167 3379 4167 3424 4167 
C 3808 4167 3834 4020 3834 3905 
C 3834 3848 3834 3828 3808 3739 
L 3238 1474 
z
" transform="scale(0.015625)"/>
       <path id="CMR17-6d" d="M 4326 1933 
C 4326 2252 4269 2790 3507 2790 
C 3072 2790 2771 2496 2656 2151 
L 2650 2151 
C 2573 2676 2195 2790 1837 2790 
C 1331 2790 1069 2400 973 2144 
L 966 2144 
L 966 2790 
L 211 2720 
L 211 2554 
C 589 2554 646 2515 646 2208 
L 646 428 
C 646 184 621 153 211 153 
L 211 -13 
C 365 0 646 0 813 0 
C 979 0 1267 0 1421 -13 
L 1421 153 
C 1011 153 986 178 986 428 
L 986 1658 
C 986 2247 1344 2688 1792 2688 
C 2266 2688 2317 2266 2317 1958 
L 2317 428 
C 2317 184 2291 153 1882 153 
L 1882 -13 
C 2035 0 2317 0 2483 0 
C 2650 0 2938 0 3091 -13 
L 3091 153 
C 2682 153 2656 178 2656 428 
L 2656 1658 
C 2656 2247 3014 2688 3462 2688 
C 3936 2688 3987 2266 3987 1958 
L 3987 428 
C 3987 184 3962 153 3552 153 
L 3552 -13 
C 3706 0 3987 0 4154 0 
C 4320 0 4608 0 4762 -13 
L 4762 153 
C 4352 153 4326 178 4326 428 
L 4326 1933 
z
" transform="scale(0.015625)"/>
       <path id="CMR17-56" d="M 3776 3745 
C 3834 3886 3936 4160 4365 4160 
L 4365 4332 
C 4218 4319 4051 4319 3891 4319 
C 3738 4319 3475 4319 3328 4332 
L 3328 4160 
C 3648 4160 3661 3936 3661 3898 
C 3661 3827 3642 3783 3622 3732 
L 2362 446 
L 1043 3886 
C 1024 3931 1011 3963 1011 3994 
C 1011 4160 1267 4160 1402 4160 
L 1402 4319 
C 1197 4319 896 4319 685 4319 
C 518 4319 218 4319 64 4332 
L 64 4160 
C 435 4160 506 4135 582 3931 
L 2106 -26 
C 2138 -115 2144 -128 2214 -128 
C 2285 -128 2291 -115 2323 -26 
L 3776 3745 
z
" transform="scale(0.015625)"/>
      </defs>
      <use xlink:href="#CMMI12-55" transform="scale(0.996264)"/>
      <use xlink:href="#CMR17-31" transform="translate(66.252119 -14.943915) scale(0.697382)"/>
      <use xlink:href="#CMR17-5b" transform="translate(128.809399 0) scale(0.996264)"/>
      <use xlink:href="#CMR17-6d" transform="translate(153.680458 0) scale(0.996264)"/>
      <use xlink:href="#CMR17-56" transform="translate(230.600048 0) scale(0.996264)"/>
      <use xlink:href="#CMR17-5d" transform="translate(299.672478 0) scale(0.996264)"/>
     </g>
    </g>
   </g>
   <g id="line2d_101">
    <path d="M 38.837311 149.129999 
L 38.9998 148.965168 
L 39.441959 144.14828 
L 40.938739 124.723442 
L 43.258903 101.657906 
L 43.99948 95.884551 
L 44.232278 94.214296 
L 47.077408 76.739136 
L 48.813235 68.193681 
L 48.914791 67.728905 
L 49.117903 66.866417 
L 49.221021 66.451003 
L 49.464755 65.449744 
L 49.831919 63.937259 
L 49.899103 63.700936 
L 51.92866 56.192245 
L 51.955221 56.114008 
L 51.961471 56.08604 
L 52.194268 55.323374 
L 53.545744 51.36575 
L 56.548677 44.035314 
L 56.61586 43.88437 
L 56.786162 43.549649 
L 57.093955 42.940259 
L 57.145514 42.797683 
L 57.293942 42.520918 
L 57.297067 42.527076 
L 57.626733 41.92407 
L 57.770474 41.709809 
L 57.778286 41.704954 
L 57.820471 41.61112 
L 58.011083 41.240281 
L 58.195447 40.903859 
L 58.521988 40.385365 
L 58.525113 40.38722 
L 59.489114 38.799287 
L 59.490676 38.801517 
L 59.543798 38.691758 
L 59.548485 38.693935 
L 59.926586 38.083197 
L 60.028142 37.920174 
L 60.17657 37.665442 
L 60.415617 37.296561 
L 60.484363 37.179609 
L 60.757783 36.70853 
L 60.851527 36.587888 
L 61.056201 36.268332 
L 61.159319 36.119015 
L 62.498296 34.396978 
L 62.509233 34.420011 
L 62.979515 36.6411 
L 63.185752 37.254358 
L 63.187315 37.253491 
L 63.357616 37.434509 
L 63.359179 37.432103 
L 63.513856 37.489274 
L 63.515419 37.487007 
L 63.638848 37.506707 
L 63.762278 37.468467 
L 64.006012 37.400997 
L 64.007575 37.403374 
L 64.101319 37.36322 
L 64.104443 37.357243 
L 64.229435 37.244008 
L 64.230998 37.245902 
L 64.240372 37.254768 
L 64.560664 36.877548 
L 64.582538 36.871334 
L 64.640347 36.793169 
L 65.060632 36.306738 
L 65.444983 35.784488 
L 65.446545 35.788287 
L 65.524665 35.691746 
L 65.526227 35.692031 
L 65.687155 35.463496 
L 65.921515 35.019711 
L 66.018383 34.908236 
L 66.352737 34.390966 
L 66.554287 34.102549 
L 66.794896 33.76685 
L 66.915201 33.650838 
L 67.096439 33.416824 
L 67.099564 33.418527 
L 67.101127 33.423277 
L 67.177684 33.324124 
L 67.183934 33.325245 
L 67.891701 32.384011 
L 68.052628 32.200024 
L 70.027502 29.616281 
L 70.029064 29.623023 
L 70.119683 29.527258 
L 70.571217 29.014508 
L 70.588403 29.003206 
L 70.635275 28.924256 
L 70.636838 28.923459 
L 70.861823 28.701545 
L 71.002439 28.527906 
L 71.236799 28.264552 
L 71.238362 28.267003 
L 71.303983 28.176854 
L 71.310232 28.174638 
L 73.671019 25.496677 
L 73.672581 25.498267 
L 73.766325 25.37549 
L 73.906941 25.235236 
L 73.908503 25.237201 
L 74.080367 25.067162 
L 74.086617 25.07081 
L 74.095991 25.069752 
L 74.125677 25.006075 
L 74.170987 25.001447 
L 74.561587 24.572473 
L 74.602209 24.554819 
L 74.645956 24.506019 
L 74.649081 24.505667 
L 74.786572 24.401679 
L 75.119363 24.090528 
L 75.120926 24.091992 
L 75.125613 24.096359 
L 75.20842 24.005299 
L 75.667766 23.545016 
L 75.841192 23.372814 
L 75.927124 23.252222 
L 76.155235 22.997122 
L 76.291163 22.870131 
L 76.538023 22.689191 
L 76.555209 22.683385 
L 76.623955 22.617246 
L 76.791131 22.494836 
L 76.792694 22.497114 
L 76.825504 22.443234 
L 76.873939 22.422036 
L 77.158295 22.172195 
L 77.159858 22.174042 
L 77.16767 22.174656 
L 77.217667 22.103566 
L 77.241103 22.098287 
L 77.769194 21.710654 
L 77.912935 21.608599 
L 77.914497 21.609158 
L 78.006679 21.569422 
L 77.956682 21.565823 
L 78.014491 21.560241 
L 78.319159 21.313846 
L 78.431651 21.184861 
L 78.562893 21.082229 
L 78.706634 20.945419 
L 79.069111 20.569449 
L 79.073798 20.575229 
L 79.07536 20.57951 
L 79.165979 20.506152 
L 79.325344 20.389352 
L 79.412839 20.348591 
L 79.340968 20.369131 
L 79.420651 20.333239 
L 81.384587 18.687744 
L 81.472082 18.632342 
L 81.408023 18.656861 
L 81.476769 18.625759 
L 81.664257 18.403535 
L 81.665819 18.404562 
L 81.773625 18.390503 
L 81.729878 18.373549 
L 81.775187 18.384364 
L 81.92674 18.275305 
L 82.057982 18.189644 
L 82.132977 18.102002 
L 82.28453 17.973351 
L 82.632945 17.769604 
L 82.768874 17.622196 
L 82.90949 17.48161 
L 82.956362 17.474013 
L 83.001671 17.418624 
L 83.357899 17.187858 
L 83.362586 17.196487 
L 83.446955 17.109153 
L 84.154723 16.682892 
L 84.303151 16.574882 
L 84.535948 16.463105 
L 84.537511 16.465418 
L 84.58282 16.46265 
L 84.553135 16.450265 
L 84.634379 16.409029 
L 84.781245 16.342945 
L 84.926548 16.206138 
L 85.020292 16.172809 
L 85.028104 16.161036 
L 85.173407 16.074294 
L 85.176532 16.076816 
L 85.589006 15.845333 
L 85.592131 15.849612 
L 85.610879 15.855905 
L 85.659314 15.799335 
L 85.685875 15.792974 
L 85.828053 15.701493 
L 85.696811 15.808342 
L 85.829615 15.705296 
L 85.879612 15.691437 
L 85.918672 15.655559 
L 85.928047 15.656385 
L 86.168656 15.590682 
L 86.318647 15.464002 
L 86.371768 15.456246 
L 86.407703 15.409687 
L 86.41864 15.415101 
L 86.495198 15.424778 
L 86.518634 15.46255 
L 86.582692 15.624848 
L 89.977787 44.874262 
L 90.099655 45.721106 
L 90.557438 48.881655 
L 90.582436 49.031716 
L 91.085529 52.186861 
L 92.419819 60.009994 
L 92.715112 61.474746 
L 93.396319 64.799202 
L 93.452565 65.060957 
L 94.054089 67.68986 
L 94.100961 67.881716 
L 94.769668 70.580177 
L 94.860287 70.947897 
L 95.09621 71.811178 
L 95.099335 71.808793 
L 95.133707 71.942784 
L 97.805411 80.495855 
L 97.881969 80.676687 
L 98.088206 81.22883 
L 98.236634 81.599684 
L 98.480368 82.257734 
L 98.481931 82.256412 
L 98.856907 83.227423 
L 99.066268 83.71674 
L 99.070955 83.711911 
L 99.086579 83.753658 
L 99.125639 83.809565 
L 99.27563 84.128774 
L 99.786535 85.299595 
L 100.013083 85.77138 
L 100.014645 85.769812 
L 100.055267 85.885305 
L 100.419307 86.657301 
L 100.627106 87.065853 
L 100.680227 87.192935 
L 100.87084 87.640193 
L 100.930211 87.773221 
L 101.3005 88.534867 
L 101.455178 88.850845 
L 101.508299 88.949118 
L 101.673914 89.299595 
L 101.770783 89.512533 
L 101.93171 89.810048 
L 101.933272 89.808273 
L 102.475425 90.934552 
L 102.525422 91.03515 
L 102.759782 91.457981 
L 107.04857 98.935772 
L 107.054819 98.932692 
L 107.117315 99.054828 
L 107.118878 99.054863 
L 107.326677 99.406811 
L 107.414171 99.511746 
L 107.557912 99.69574 
L 108.385984 100.825329 
L 108.387547 100.822816 
L 108.392234 100.817949 
L 108.467229 100.907197 
L 108.864079 101.472287 
L 108.953135 101.59746 
L 109.262491 102.052375 
L 109.264053 102.04625 
L 109.339048 102.193389 
L 109.517162 102.450964 
L 109.643716 102.615687 
L 109.848391 102.877796 
L 109.853078 102.87202 
L 110.098375 103.197974 
L 110.235866 103.348959 
L 110.438978 103.590054 
L 110.44054 103.586808 
L 110.509286 103.697788 
L 110.895199 104.173825 
L 110.912385 104.187772 
L 110.95457 104.266244 
L 110.957695 104.265014 
L 111.107685 104.461964 
L 111.112372 104.460554 
L 111.567031 105.043451 
L 111.727958 105.224663 
L 111.938882 105.532021 
L 112.568529 106.263727 
L 112.570091 106.260069 
L 112.657586 106.336647 
L 113.080996 106.857647 
L 113.151304 106.862212 
L 113.126306 106.878479 
L 113.188802 106.887042 
L 113.823136 107.600215 
L 113.834073 107.599575 
L 113.896569 107.686858 
L 113.899694 107.683257 
L 114.530903 108.466653 
L 114.616835 108.582298 
L 114.763701 108.719084 
L 114.9715 108.962097 
L 115.144927 109.138071 
L 115.152739 109.133335 
L 115.229296 109.237682 
L 115.457407 109.441577 
L 115.463656 109.451935 
L 115.549588 109.504234 
L 115.735514 109.715739 
L 115.83707 109.832557 
L 116.010496 110.079064 
L 116.127676 110.182448 
L 117.416656 111.432244 
L 117.421343 111.422954 
L 117.561959 111.537159 
L 117.719762 111.719407 
L 117.722887 111.71665 
L 117.997869 112.006983 
L 117.999431 112.004505 
L 118.066615 112.103517 
L 118.225979 112.276574 
L 118.382219 112.471164 
L 118.505649 112.574664 
L 118.650952 112.715471 
L 118.80563 112.829335 
L 118.974369 112.993833 
L 119.250914 113.208729 
L 119.414966 113.380052 
L 119.418091 113.377815 
L 119.485274 113.425938 
L 119.439964 113.403554 
L 119.505585 113.446382 
L 119.650888 113.584223 
L 119.824315 113.754004 
L 120.058675 113.92055 
L 119.829002 113.750361 
L 120.060237 113.9193 
L 120.066487 113.940163 
L 120.124295 114.015793 
L 120.319595 114.138186 
L 120.436775 114.254503 
L 120.583641 114.401084 
L 120.585203 114.399222 
L 120.697696 114.517162 
L 120.849249 114.680227 
L 121.310157 115.093219 
L 121.311719 115.090946 
L 121.360154 115.162821 
L 121.388277 115.175052 
L 121.577327 115.365539 
L 121.889807 115.648527 
L 121.892932 115.64457 
L 122.094482 115.793749 
L 122.235098 115.877047 
L 122.23666 115.874741 
L 122.253847 115.872329 
L 122.310093 115.945719 
L 122.319467 115.949176 
L 122.674132 116.233733 
L 123.030359 116.548371 
L 123.186599 116.708074 
L 123.416272 116.893556 
L 123.417835 116.886958 
L 123.506891 116.970099 
L 123.511579 116.965345 
L 123.939676 117.302066 
L 124.116227 117.428003 
L 124.256843 117.52187 
L 124.259968 117.520767 
L 125.255217 118.270945 
L 125.453642 118.394183 
L 125.456767 118.391916 
L 126.550447 119.194911 
L 126.692625 119.291266 
L 126.789494 119.325364 
L 126.703562 119.311331 
L 126.800431 119.33897 
L 126.803555 119.33356 
L 126.997293 119.406844 
L 127.051977 119.397296 
L 127.098849 119.451771 
L 127.291024 119.642025 
L 127.309773 119.635273 
L 127.369144 119.700132 
L 127.387893 119.695317 
L 127.539446 119.8271 
L 127.622253 119.864284 
L 127.634752 119.883045 
L 127.880049 119.990175 
L 128.003479 120.041108 
L 128.381579 120.252631 
L 128.389391 120.244051 
L 128.526883 120.329106 
L 128.68156 120.427105 
L 128.684685 120.422233 
L 129.001852 120.653112 
L 129.151843 120.793354 
L 129.154967 120.791604 
L 129.315895 120.92931 
L 129.322144 120.914181 
L 129.57994 121.102561 
L 129.747117 121.21226 
L 129.840861 121.224461 
L 129.858047 121.244861 
L 130.922042 121.980065 
L 130.928291 121.973046 
L 130.995475 122.04205 
L 131.017348 122.036307 
L 131.231397 122.117849 
L 131.543877 122.284543 
L 131.645433 122.301824 
L 131.657932 122.328824 
L 131.815735 122.399016 
L 131.668869 122.322894 
L 131.817297 122.397565 
L 132.003223 122.512577 
L 132.009472 122.507822 
L 132.148526 122.601271 
L 132.448507 122.866996 
L 132.490691 122.86307 
L 132.536001 122.931252 
L 132.539126 122.929077 
L 132.78286 123.095375 
L 132.790672 123.080956 
L 132.885979 123.081417 
L 132.90004 123.093724 
L 134.101526 123.648888 
L 134.203082 123.699119 
L 134.204644 123.701498 
L 134.401507 123.830248 
L 134.499938 123.86255 
L 134.440567 123.856599 
L 134.504625 123.871792 
L 134.648366 123.89474 
L 134.512437 123.866401 
L 134.649928 123.892484 
L 134.776483 123.924402 
L 134.934285 124.041523 
L 134.93741 124.039438 
L 135.476438 124.30934 
L 135.63424 124.443507 
L 135.637365 124.441035 
L 135.787355 124.522 
L 135.793605 124.517933 
L 136.076399 124.628013 
L 136.206079 124.694322 
L 136.212328 124.68845 
L 136.296698 124.749162 
L 136.256075 124.732161 
L 136.301385 124.754133 
L 136.456063 124.861839 
L 136.612303 124.955602 
L 136.756043 125.026646 
L 136.791979 125.042857 
L 136.8451 125.093141 
L 137.137269 125.215564 
L 137.265386 125.250393 
L 137.268511 125.248402 
L 137.459123 125.343581 
L 137.462248 125.338509 
L 137.635675 125.450399 
L 137.859098 125.5811 
L 137.890346 125.56964 
L 137.865347 125.586794 
L 137.955967 125.634455 
L 138.085646 125.716015 
L 138.090333 125.713792 
L 138.224699 125.722296 
L 138.227824 125.719963 
L 138.359066 125.760076 
L 138.360628 125.762889 
L 138.494995 125.840897 
L 138.699669 125.945849 
L 138.809037 126.011135 
L 138.829348 125.997663 
L 138.830911 125.990532 
L 138.916843 126.041792 
L 138.932467 126.04117 
L 139.066833 126.09697 
L 140.365187 126.800682 
L 140.369875 126.792824 
L 140.394873 126.830135 
L 140.468306 126.839253 
L 140.597985 126.90416 
L 141.685415 127.313199 
L 141.80572 127.338421 
L 141.807283 127.336476 
L 141.999458 127.388714 
L 142.00102 127.394029 
L 142.227568 127.47923 
L 142.31975 127.498966 
L 142.338499 127.515109 
L 142.465053 127.54209 
L 142.468178 127.539946 
L 142.735348 127.648681 
L 142.902525 127.729238 
L 142.90565 127.725903 
L 143.624354 128.045745 
L 143.750908 128.082055 
L 143.789968 128.078466 
L 143.857151 128.11545 
L 143.864963 128.10913 
L 144.052451 128.217539 
L 149.150563 130.034876 
L 149.153687 130.025903 
L 149.250556 130.081649 
L 149.253681 130.081711 
L 149.35055 130.120528 
L 149.275555 130.107232 
L 149.355237 130.125452 
L 149.689591 130.21606 
L 149.847393 130.265061 
L 149.69584 130.209382 
L 149.850518 130.260908 
L 149.864579 130.278645 
L 149.972385 130.278849 
L 150.436418 130.384313 
L 150.63328 130.474641 
L 150.634843 130.469853 
L 150.880139 130.498224 
L 150.881702 130.50308 
L 151.087939 130.64381 
L 151.092626 130.639019 
L 151.175433 130.650309 
L 151.114499 130.655229 
L 151.197307 130.681992 
L 151.350422 130.682032 
L 151.353547 130.677124 
L 151.434791 130.680613 
L 151.366046 130.690572 
L 151.461352 130.703327 
L 151.783207 130.753545 
L 151.886325 130.793391 
L 151.851952 130.800176 
L 151.887887 130.794782 
L 151.995693 130.796102 
L 151.919135 130.777693 
L 152.00038 130.788894 
L 152.173807 130.851701 
L 152.330047 130.924428 
L 152.345671 130.908114 
L 152.444102 130.956638 
L 152.350358 130.9138 
L 152.447227 130.964835 
L 152.609716 131.024744 
L 152.717522 131.029105 
L 152.659713 131.042139 
L 152.720647 131.035314 
L 152.725334 131.040522 
L 152.851888 131.06214 
L 153.319046 131.18167 
L 153.420602 131.210965 
L 153.436226 131.201308 
L 154.161179 131.392745 
L 154.281484 131.391952 
L 154.408039 131.385251 
L 154.867384 131.555249 
L 154.998626 131.58526 
L 158.317163 132.400659 
L 158.418719 132.416203 
L 158.3281 132.414245 
L 158.431219 132.42746 
L 158.756198 132.460209 
L 158.868691 132.483754 
L 158.87494 132.475664 
L 159.001495 132.512076 
L 159.404594 132.559786 
L 159.520211 132.648562 
L 159.535835 132.640862 
L 159.913936 132.751974 
L 160.040491 132.826838 
L 160.042053 132.823938 
L 160.156108 132.792201 
L 160.17017 132.80455 
L 160.292037 132.832731 
L 160.296724 132.828965 
L 160.415467 132.84458 
L 160.421716 132.851147 
L 160.620141 132.97523 
L 163.88087 133.691451 
L 163.885557 133.700124 
L 164.041797 133.721983 
L 164.160539 133.720338 
L 164.162102 133.717938 
L 165.374524 133.932128 
L 165.426083 133.876281 
L 165.497954 133.906713 
L 165.616696 133.910765 
L 165.618259 133.910059 
L 165.735439 133.908064 
L 165.746375 133.916979 
L 165.882304 133.943414 
L 165.883867 133.945756 
L 166.030732 133.975173 
L 165.893241 133.938046 
L 166.032295 133.970397 
L 166.696315 134.075584 
L 166.818182 134.095554 
L 167.043167 134.122643 
L 168.202468 134.295017 
L 168.322773 134.309908 
L 168.452452 134.317312 
L 168.454015 134.319701 
L 168.583694 134.344001 
L 168.588381 134.33478 
L 168.702436 134.321343 
L 168.707123 134.325521 
L 168.843052 134.361942 
L 169.588317 134.478147 
L 169.758619 134.540723 
L 169.771118 134.524985 
L 170.233588 134.631159 
L 170.349206 134.639602 
L 170.889796 134.777693 
L 171.030412 134.806367 
L 171.631936 134.827243 
L 171.813175 134.834836 
L 171.975664 134.788509 
L 172.124092 134.834801 
L 172.225648 134.848321 
L 172.160027 134.851465 
L 172.23346 134.854475 
L 172.636559 134.980654 
L 172.783425 135.003809 
L 173.620871 135.118667 
L 173.736489 135.151502 
L 173.886479 135.17859 
L 174.011471 135.178652 
L 174.014596 135.180825 
L 174.145838 135.191675 
L 174.150525 135.188679 
L 174.691115 135.271363 
L 174.77861 135.284549 
L 174.698927 135.266253 
L 174.81142 135.267601 
L 174.936412 135.274877 
L 174.942662 135.287151 
L 175.136399 135.359856 
L 175.139524 135.355616 
L 175.258267 135.328409 
L 175.264516 135.335644 
L 175.406695 135.354186 
L 175.462941 135.356649 
L 175.5145 135.382074 
L 175.651991 135.379169 
L 175.98947 135.381272 
L 176.13946 135.427336 
L 176.14571 135.423104 
L 176.239454 135.426293 
L 176.183207 135.435454 
L 176.255078 135.4407 
L 176.406631 135.468014 
L 176.411318 135.464149 
L 176.531623 135.456842 
L 176.422255 135.471305 
L 176.534747 135.468919 
L 176.950346 135.559177 
L 177.042527 135.572662 
L 177.065963 135.560073 
L 178.815851 135.652916 
L 178.928344 135.666456 
L 178.934594 135.673567 
L 181.311004 136.08487 
L 181.423497 136.052408 
L 181.432871 136.054889 
L 182.129702 136.163553 
L 182.231258 136.141415 
L 182.237507 136.129538 
L 182.292191 136.120691 
L 182.343751 136.16226 
L 183.64523 136.315793 
L 183.731162 136.337651 
L 183.649917 136.323029 
L 183.753035 136.359851 
L 183.829593 136.368099 
L 183.862403 136.336088 
L 184.093639 136.294482 
L 184.209256 136.278894 
L 184.213943 136.28822 
L 184.393619 136.326771 
L 184.517049 136.321538 
L 184.518611 136.316787 
L 185.087325 136.406338 
L 185.209192 136.430659 
L 185.210755 136.428223 
L 185.352933 136.414737 
L 185.4748 136.445002 
L 185.490424 136.427993 
L 185.760719 136.448051 
L 185.776343 136.432061 
L 185.881024 136.437238 
L 189.173001 136.537216 
L 189.312055 136.59114 
L 189.422985 136.60347 
L 189.430797 136.611993 
L 189.560476 136.624641 
L 189.563601 136.621116 
L 189.590162 136.629325 
L 189.680781 136.599165 
L 189.799523 136.612714 
L 189.919828 136.648645 
L 190.205747 136.657152 
L 190.346363 136.677549 
L 190.347926 136.675171 
L 190.471355 136.654579 
L 192.23843 136.633373 
L 192.35561 136.677582 
L 192.368109 136.668872 
L 192.496226 136.698813 
L 192.786832 136.727344 
L 192.855578 136.740504 
L 192.900887 136.710678 
L 193.010255 136.710799 
L 193.014943 136.717105 
L 193.127435 136.719646 
L 193.13056 136.717237 
L 194.047689 136.612934 
L 194.183618 136.642546 
L 194.974192 136.751147 
L 195.113246 136.767754 
L 195.114808 136.766211 
L 195.503846 136.802545 
L 195.596027 136.83099 
L 195.621026 136.812765 
L 195.727269 136.852863 
L 195.730394 136.860227 
L 195.90382 136.925309 
L 196.050686 136.883483 
L 196.058498 136.893059 
L 196.178803 136.914402 
L 196.194427 136.898922 
L 196.305357 136.916154 
L 196.202239 136.905962 
L 196.311607 136.922232 
L 196.517843 136.974123 
L 196.710019 136.944136 
L 198.002123 137.060224 
L 198.191174 137.069795 
L 198.306791 137.075654 
L 198.961437 137.138974 
L 199.11299 137.169932 
L 199.245794 137.152625 
L 199.250481 137.160324 
L 199.367661 137.156128 
L 199.373911 137.15183 
L 199.41922 137.17478 
L 199.483279 137.175129 
L 201.998743 137.328971 
L 202.019054 137.315688 
L 202.11436 137.351374 
L 202.629952 137.381478 
L 202.747132 137.37755 
L 202.898685 137.403757 
L 203.511146 137.461694 
L 203.772067 137.561075 
L 203.884559 137.571848 
L 203.951743 137.554158 
L 203.997052 137.574115 
L 204.129856 137.593293 
L 204.132981 137.588518 
L 204.232975 137.571743 
L 204.250161 137.59068 
L 204.365779 137.572989 
L 204.381403 137.596856 
L 204.53608 137.636148 
L 204.604826 137.640243 
L 204.543892 137.650928 
L 204.643886 137.659199 
L 205.990675 137.815257 
L 206.095355 137.860075 
L 206.112542 137.848755 
L 206.937489 137.931322 
L 207.065606 137.947954 
L 207.073418 137.938378 
L 210.198218 138.055721 
L 210.332584 138.058809 
L 210.451327 138.065024 
L 210.457576 138.0698 
L 210.55757 138.071343 
L 210.502886 138.049069 
L 210.570069 138.05675 
L 211.76843 138.223054 
L 211.874673 138.222768 
L 211.882485 138.230016 
L 211.888735 138.225519 
L 212.010602 138.227907 
L 212.094971 138.21162 
L 212.123095 138.224206 
L 212.268398 138.24379 
L 212.380891 138.257736 
L 212.385578 138.267174 
L 213.891731 138.377975 
L 214.090156 138.400652 
L 214.091719 138.397712 
L 214.224523 138.379952 
L 214.230772 138.387605 
L 214.435447 138.457194 
L 215.136964 138.538692 
L 215.415071 138.61918 
L 215.543188 138.580781 
L 215.544751 138.583165 
L 217.983657 138.629292 
L 218.108649 138.658751 
L 218.364883 138.70111 
L 218.488312 138.703132 
L 218.492999 138.695888 
L 218.614867 138.688351 
L 220.600677 138.799222 
L 220.620988 138.791976 
L 220.722544 138.820415 
L 220.733481 138.830058 
L 220.874097 138.791417 
L 221.76779 138.850599 
L 221.874033 138.841676 
L 221.775602 138.844454 
L 221.88497 138.830247 
L 221.980276 138.865342 
L 221.986526 138.877321 
L 223.189574 138.984556 
L 223.317691 138.99113 
L 223.202073 138.970473 
L 223.320815 138.983974 
L 223.467681 138.944096 
L 223.609859 138.966064 
L 223.612984 138.963987 
L 225.651916 138.795786 
L 225.761284 138.801161 
L 225.767534 138.810653 
L 225.914399 138.763318 
L 225.923774 138.769988 
L 226.044079 138.786862 
L 226.173758 138.781143 
L 226.17532 138.78352 
L 226.295625 138.801174 
L 226.297187 138.798713 
L 226.326873 138.810594 
L 226.326873 138.810594 
" clip-path="url(#pcac80771fe)" style="fill: none; stroke: #4477aa; stroke-linecap: square"/>
   </g>
   <g id="LineCollection_1">
    <path d="M 38.837311 149.13 
L 38.837311 52.11 
" clip-path="url(#pcac80771fe)" style="fill: none; stroke-dasharray: 3.7,1.6; stroke-dashoffset: 0; stroke: #000000"/>
    <path d="M 62.273311 149.13 
L 62.273311 52.11 
" clip-path="url(#pcac80771fe)" style="fill: none; stroke-dasharray: 3.7,1.6; stroke-dashoffset: 0; stroke: #000000"/>
    <path d="M 62.898271 149.13 
L 62.898271 52.11 
" clip-path="url(#pcac80771fe)" style="fill: none; stroke-dasharray: 3.7,1.6; stroke-dashoffset: 0; stroke: #000000"/>
    <path d="M 86.334271 149.13 
L 86.334271 52.11 
" clip-path="url(#pcac80771fe)" style="fill: none; stroke-dasharray: 3.7,1.6; stroke-dashoffset: 0; stroke: #000000"/>
   </g>
   <g id="patch_3">
    <path d="M 31.025311 149.13 
L 31.025311 3.6 
" style="fill: none; stroke: #000000; stroke-width: 0.5; stroke-linejoin: miter; stroke-linecap: square"/>
   </g>
   <g id="patch_4">
    <path d="M 226.325311 149.13 
L 226.325311 3.6 
" style="fill: none; stroke: #000000; stroke-width: 0.5; stroke-linejoin: miter; stroke-linecap: square"/>
   </g>
   <g id="patch_5">
    <path d="M 31.025311 149.13 
L 226.325311 149.13 
" style="fill: none; stroke: #000000; stroke-width: 0.5; stroke-linejoin: miter; stroke-linecap: square"/>
   </g>
   <g id="patch_6">
    <path d="M 31.025311 3.6 
L 226.325311 3.6 
" style="fill: none; stroke: #000000; stroke-width: 0.5; stroke-linejoin: miter; stroke-linecap: square"/>
   </g>
  </g>
 </g>
 <defs>
  <clipPath id="pcac80771fe">
   <rect x="31.025311" y="3.6" width="195.3" height="145.53"/>
  </clipPath>
 </defs>
</svg>
