<?xml version="1.0" encoding="utf-8" standalone="no"?>
<!DOCTYPE svg PUBLIC "-//W3C//DTD SVG 1.1//EN"
  "http://www.w3.org/Graphics/SVG/1.1/DTD/svg11.dtd">
<svg xmlns:xlink="http://www.w3.org/1999/xlink" width="229.925311pt" height="179.048317pt" viewBox="0 0 229.925311 179.048317" xmlns="http://www.w3.org/2000/svg" version="1.1">
 <metadata>
  <rdf:RDF xmlns:dc="http://purl.org/dc/elements/1.1/" xmlns:cc="http://creativecommons.org/ns#" xmlns:rdf="http://www.w3.org/1999/02/22-rdf-syntax-ns#">
   <cc:Work>
    <dc:type rdf:resource="http://purl.org/dc/dcmitype/StillImage"/>
    <dc:date>2025-04-25T13:10:34.517298</dc:date>
    <dc:format>image/svg+xml</dc:format>
    <dc:creator>
     <cc:Agent>
      <dc:title>Matplotlib v3.9.2, https://matplotlib.org/</dc:title>
     </cc:Agent>
    </dc:creator>
   </cc:Work>
  </rdf:RDF>
 </metadata>
 <defs>
  <style type="text/css">*{stroke-linejoin: round; stroke-linecap: butt}</style>
 </defs>
 <g id="figure_1">
  <g id="patch_1">
   <path d="M 0 179.048317 
L 229.925311 179.048317 
L 229.925311 0 
L 0 0 
L 0 179.048317 
z
" style="fill: none"/>
  </g>
  <g id="axes_1">
   <g id="patch_2">
    <path d="M 31.025311 149.13 
L 226.325311 149.13 
L 226.325311 3.6 
L 31.025311 3.6 
L 31.025311 149.13 
z
" style="fill: none"/>
   </g>
   <g id="matplotlib.axis_1">
    <g id="xtick_1">
     <g id="line2d_1">
      <path d="M 38.837311 149.13 
L 38.837311 3.6 
" clip-path="url(#p52d5c78bb6)" style="fill: none; stroke-dasharray: 1.85,0.8; stroke-dashoffset: 0; stroke: #000000; stroke-opacity: 0.5; stroke-width: 0.5"/>
     </g>
     <g id="line2d_2">
      <defs>
       <path id="m2e977c6e13" d="M 0 0 
L 0 -3 
" style="stroke: #000000; stroke-width: 0.5"/>
      </defs>
      <g>
       <use xlink:href="#m2e977c6e13" x="38.837311" y="149.13" style="stroke: #000000; stroke-width: 0.5"/>
      </g>
     </g>
     <g id="line2d_3">
      <defs>
       <path id="m42ecc9927c" d="M 0 0 
L 0 3 
" style="stroke: #000000; stroke-width: 0.5"/>
      </defs>
      <g>
       <use xlink:href="#m42ecc9927c" x="38.837311" y="3.6" style="stroke: #000000; stroke-width: 0.5"/>
      </g>
     </g>
     <g id="text_1">
      <!-- $\mathdefault{0}$ -->
      <g transform="translate(36.346643 159.548498) scale(0.1 -0.1)">
       <defs>
        <path id="CMR17-30" d="M 2688 2025 
C 2688 2416 2682 3080 2413 3591 
C 2176 4039 1798 4198 1466 4198 
C 1158 4198 768 4058 525 3597 
C 269 3118 243 2524 243 2025 
C 243 1661 250 1106 448 619 
C 723 -39 1216 -128 1466 -128 
C 1760 -128 2208 -7 2470 600 
C 2662 1042 2688 1559 2688 2025 
z
M 1466 -26 
C 1056 -26 813 325 723 812 
C 653 1188 653 1738 653 2096 
C 653 2588 653 2997 736 3387 
C 858 3929 1216 4096 1466 4096 
C 1728 4096 2067 3923 2189 3400 
C 2272 3036 2278 2607 2278 2096 
C 2278 1680 2278 1169 2202 792 
C 2067 95 1690 -26 1466 -26 
z
" transform="scale(0.015625)"/>
       </defs>
       <use xlink:href="#CMR17-30" transform="scale(0.996264)"/>
      </g>
     </g>
    </g>
    <g id="xtick_2">
     <g id="line2d_4">
      <path d="M 77.897311 149.13 
L 77.897311 3.6 
" clip-path="url(#p52d5c78bb6)" style="fill: none; stroke-dasharray: 1.85,0.8; stroke-dashoffset: 0; stroke: #000000; stroke-opacity: 0.5; stroke-width: 0.5"/>
     </g>
     <g id="line2d_5">
      <g>
       <use xlink:href="#m2e977c6e13" x="77.897311" y="149.13" style="stroke: #000000; stroke-width: 0.5"/>
      </g>
     </g>
     <g id="line2d_6">
      <g>
       <use xlink:href="#m42ecc9927c" x="77.897311" y="3.6" style="stroke: #000000; stroke-width: 0.5"/>
      </g>
     </g>
     <g id="text_2">
      <!-- $\mathdefault{2500}$ -->
      <g transform="translate(67.93464 159.548498) scale(0.1 -0.1)">
       <defs>
        <path id="CMR17-32" d="M 2669 989 
L 2554 989 
C 2490 536 2438 459 2413 420 
C 2381 369 1920 369 1830 369 
L 602 369 
C 832 619 1280 1072 1824 1597 
C 2214 1967 2669 2402 2669 3035 
C 2669 3790 2067 4224 1395 4224 
C 691 4224 262 3604 262 3030 
C 262 2780 448 2748 525 2748 
C 589 2748 781 2787 781 3010 
C 781 3207 614 3264 525 3264 
C 486 3264 448 3258 422 3245 
C 544 3790 915 4058 1306 4058 
C 1862 4058 2227 3617 2227 3035 
C 2227 2479 1901 2000 1536 1584 
L 262 146 
L 262 0 
L 2515 0 
L 2669 989 
z
" transform="scale(0.015625)"/>
        <path id="CMR17-35" d="M 730 3692 
C 794 3666 1056 3584 1325 3584 
C 1920 3584 2246 3911 2432 4100 
C 2432 4157 2432 4192 2394 4192 
C 2387 4192 2374 4192 2323 4163 
C 2099 4058 1837 3973 1517 3973 
C 1325 3973 1037 3999 723 4139 
C 653 4171 640 4171 634 4171 
C 602 4171 595 4164 595 4037 
L 595 2203 
C 595 2089 595 2057 659 2057 
C 691 2057 704 2070 736 2114 
C 941 2401 1222 2522 1542 2522 
C 1766 2522 2246 2382 2246 1289 
C 2246 1085 2246 715 2054 421 
C 1894 159 1645 25 1370 25 
C 947 25 518 320 403 814 
C 429 807 480 795 506 795 
C 589 795 749 840 749 1038 
C 749 1210 627 1280 506 1280 
C 358 1280 262 1190 262 1011 
C 262 454 704 -128 1382 -128 
C 2042 -128 2669 440 2669 1264 
C 2669 2030 2170 2624 1549 2624 
C 1222 2624 947 2503 730 2274 
L 730 3692 
z
" transform="scale(0.015625)"/>
       </defs>
       <use xlink:href="#CMR17-32" transform="scale(0.996264)"/>
       <use xlink:href="#CMR17-35" transform="translate(45.690477 0) scale(0.996264)"/>
       <use xlink:href="#CMR17-30" transform="translate(91.380954 0) scale(0.996264)"/>
       <use xlink:href="#CMR17-30" transform="translate(137.071431 0) scale(0.996264)"/>
      </g>
     </g>
    </g>
    <g id="xtick_3">
     <g id="line2d_7">
      <path d="M 116.957311 149.13 
L 116.957311 3.6 
" clip-path="url(#p52d5c78bb6)" style="fill: none; stroke-dasharray: 1.85,0.8; stroke-dashoffset: 0; stroke: #000000; stroke-opacity: 0.5; stroke-width: 0.5"/>
     </g>
     <g id="line2d_8">
      <g>
       <use xlink:href="#m2e977c6e13" x="116.957311" y="149.13" style="stroke: #000000; stroke-width: 0.5"/>
      </g>
     </g>
     <g id="line2d_9">
      <g>
       <use xlink:href="#m42ecc9927c" x="116.957311" y="3.6" style="stroke: #000000; stroke-width: 0.5"/>
      </g>
     </g>
     <g id="text_3">
      <!-- $\mathdefault{5000}$ -->
      <g transform="translate(106.99464 159.548498) scale(0.1 -0.1)">
       <use xlink:href="#CMR17-35" transform="scale(0.996264)"/>
       <use xlink:href="#CMR17-30" transform="translate(45.690477 0) scale(0.996264)"/>
       <use xlink:href="#CMR17-30" transform="translate(91.380954 0) scale(0.996264)"/>
       <use xlink:href="#CMR17-30" transform="translate(137.071431 0) scale(0.996264)"/>
      </g>
     </g>
    </g>
    <g id="xtick_4">
     <g id="line2d_10">
      <path d="M 156.017311 149.13 
L 156.017311 3.6 
" clip-path="url(#p52d5c78bb6)" style="fill: none; stroke-dasharray: 1.85,0.8; stroke-dashoffset: 0; stroke: #000000; stroke-opacity: 0.5; stroke-width: 0.5"/>
     </g>
     <g id="line2d_11">
      <g>
       <use xlink:href="#m2e977c6e13" x="156.017311" y="149.13" style="stroke: #000000; stroke-width: 0.5"/>
      </g>
     </g>
     <g id="line2d_12">
      <g>
       <use xlink:href="#m42ecc9927c" x="156.017311" y="3.6" style="stroke: #000000; stroke-width: 0.5"/>
      </g>
     </g>
     <g id="text_4">
      <!-- $\mathdefault{7500}$ -->
      <g transform="translate(146.05464 159.548498) scale(0.1 -0.1)">
       <defs>
        <path id="CMR17-37" d="M 2886 3941 
L 2886 4081 
L 1382 4081 
C 634 4081 621 4165 595 4288 
L 480 4288 
L 294 3094 
L 410 3094 
C 429 3215 474 3540 550 3661 
C 589 3712 1062 3712 1171 3712 
L 2579 3712 
L 1869 2661 
C 1395 1954 1069 999 1069 165 
C 1069 89 1069 -128 1299 -128 
C 1530 -128 1530 89 1530 171 
L 1530 465 
C 1530 1508 1709 2196 2003 2636 
L 2886 3941 
z
" transform="scale(0.015625)"/>
       </defs>
       <use xlink:href="#CMR17-37" transform="scale(0.996264)"/>
       <use xlink:href="#CMR17-35" transform="translate(45.690477 0) scale(0.996264)"/>
       <use xlink:href="#CMR17-30" transform="translate(91.380954 0) scale(0.996264)"/>
       <use xlink:href="#CMR17-30" transform="translate(137.071431 0) scale(0.996264)"/>
      </g>
     </g>
    </g>
    <g id="xtick_5">
     <g id="line2d_13">
      <path d="M 195.077311 149.13 
L 195.077311 3.6 
" clip-path="url(#p52d5c78bb6)" style="fill: none; stroke-dasharray: 1.85,0.8; stroke-dashoffset: 0; stroke: #000000; stroke-opacity: 0.5; stroke-width: 0.5"/>
     </g>
     <g id="line2d_14">
      <g>
       <use xlink:href="#m2e977c6e13" x="195.077311" y="149.13" style="stroke: #000000; stroke-width: 0.5"/>
      </g>
     </g>
     <g id="line2d_15">
      <g>
       <use xlink:href="#m42ecc9927c" x="195.077311" y="3.6" style="stroke: #000000; stroke-width: 0.5"/>
      </g>
     </g>
     <g id="text_5">
      <!-- $\mathdefault{10000}$ -->
      <g transform="translate(182.623972 159.548498) scale(0.1 -0.1)">
       <defs>
        <path id="CMR17-31" d="M 1702 4058 
C 1702 4192 1696 4192 1606 4192 
C 1357 3916 979 3827 621 3827 
C 602 3827 570 3827 563 3808 
C 557 3795 557 3782 557 3648 
C 755 3648 1088 3686 1344 3839 
L 1344 461 
C 1344 236 1331 160 781 160 
L 589 160 
L 589 0 
C 896 0 1216 0 1523 0 
C 1830 0 2150 0 2458 0 
L 2458 160 
L 2266 160 
C 1715 160 1702 230 1702 458 
L 1702 4058 
z
" transform="scale(0.015625)"/>
       </defs>
       <use xlink:href="#CMR17-31" transform="scale(0.996264)"/>
       <use xlink:href="#CMR17-30" transform="translate(45.690477 0) scale(0.996264)"/>
       <use xlink:href="#CMR17-30" transform="translate(91.380954 0) scale(0.996264)"/>
       <use xlink:href="#CMR17-30" transform="translate(137.071431 0) scale(0.996264)"/>
       <use xlink:href="#CMR17-30" transform="translate(182.761908 0) scale(0.996264)"/>
      </g>
     </g>
    </g>
    <g id="xtick_6">
     <g id="line2d_16">
      <defs>
       <path id="m833e72c5aa" d="M 0 0 
L 0 -1.5 
" style="stroke: #000000; stroke-width: 0.5"/>
      </defs>
      <g>
       <use xlink:href="#m833e72c5aa" x="31.025311" y="149.13" style="stroke: #000000; stroke-width: 0.5"/>
      </g>
     </g>
     <g id="line2d_17">
      <defs>
       <path id="mf6bd3c656a" d="M 0 0 
L 0 1.5 
" style="stroke: #000000; stroke-width: 0.5"/>
      </defs>
      <g>
       <use xlink:href="#mf6bd3c656a" x="31.025311" y="3.6" style="stroke: #000000; stroke-width: 0.5"/>
      </g>
     </g>
    </g>
    <g id="xtick_7">
     <g id="line2d_18">
      <g>
       <use xlink:href="#m833e72c5aa" x="46.649311" y="149.13" style="stroke: #000000; stroke-width: 0.5"/>
      </g>
     </g>
     <g id="line2d_19">
      <g>
       <use xlink:href="#mf6bd3c656a" x="46.649311" y="3.6" style="stroke: #000000; stroke-width: 0.5"/>
      </g>
     </g>
    </g>
    <g id="xtick_8">
     <g id="line2d_20">
      <g>
       <use xlink:href="#m833e72c5aa" x="54.461311" y="149.13" style="stroke: #000000; stroke-width: 0.5"/>
      </g>
     </g>
     <g id="line2d_21">
      <g>
       <use xlink:href="#mf6bd3c656a" x="54.461311" y="3.6" style="stroke: #000000; stroke-width: 0.5"/>
      </g>
     </g>
    </g>
    <g id="xtick_9">
     <g id="line2d_22">
      <g>
       <use xlink:href="#m833e72c5aa" x="62.273311" y="149.13" style="stroke: #000000; stroke-width: 0.5"/>
      </g>
     </g>
     <g id="line2d_23">
      <g>
       <use xlink:href="#mf6bd3c656a" x="62.273311" y="3.6" style="stroke: #000000; stroke-width: 0.5"/>
      </g>
     </g>
    </g>
    <g id="xtick_10">
     <g id="line2d_24">
      <g>
       <use xlink:href="#m833e72c5aa" x="70.085311" y="149.13" style="stroke: #000000; stroke-width: 0.5"/>
      </g>
     </g>
     <g id="line2d_25">
      <g>
       <use xlink:href="#mf6bd3c656a" x="70.085311" y="3.6" style="stroke: #000000; stroke-width: 0.5"/>
      </g>
     </g>
    </g>
    <g id="xtick_11">
     <g id="line2d_26">
      <g>
       <use xlink:href="#m833e72c5aa" x="85.709311" y="149.13" style="stroke: #000000; stroke-width: 0.5"/>
      </g>
     </g>
     <g id="line2d_27">
      <g>
       <use xlink:href="#mf6bd3c656a" x="85.709311" y="3.6" style="stroke: #000000; stroke-width: 0.5"/>
      </g>
     </g>
    </g>
    <g id="xtick_12">
     <g id="line2d_28">
      <g>
       <use xlink:href="#m833e72c5aa" x="93.521311" y="149.13" style="stroke: #000000; stroke-width: 0.5"/>
      </g>
     </g>
     <g id="line2d_29">
      <g>
       <use xlink:href="#mf6bd3c656a" x="93.521311" y="3.6" style="stroke: #000000; stroke-width: 0.5"/>
      </g>
     </g>
    </g>
    <g id="xtick_13">
     <g id="line2d_30">
      <g>
       <use xlink:href="#m833e72c5aa" x="101.333311" y="149.13" style="stroke: #000000; stroke-width: 0.5"/>
      </g>
     </g>
     <g id="line2d_31">
      <g>
       <use xlink:href="#mf6bd3c656a" x="101.333311" y="3.6" style="stroke: #000000; stroke-width: 0.5"/>
      </g>
     </g>
    </g>
    <g id="xtick_14">
     <g id="line2d_32">
      <g>
       <use xlink:href="#m833e72c5aa" x="109.145311" y="149.13" style="stroke: #000000; stroke-width: 0.5"/>
      </g>
     </g>
     <g id="line2d_33">
      <g>
       <use xlink:href="#mf6bd3c656a" x="109.145311" y="3.6" style="stroke: #000000; stroke-width: 0.5"/>
      </g>
     </g>
    </g>
    <g id="xtick_15">
     <g id="line2d_34">
      <g>
       <use xlink:href="#m833e72c5aa" x="124.769311" y="149.13" style="stroke: #000000; stroke-width: 0.5"/>
      </g>
     </g>
     <g id="line2d_35">
      <g>
       <use xlink:href="#mf6bd3c656a" x="124.769311" y="3.6" style="stroke: #000000; stroke-width: 0.5"/>
      </g>
     </g>
    </g>
    <g id="xtick_16">
     <g id="line2d_36">
      <g>
       <use xlink:href="#m833e72c5aa" x="132.581311" y="149.13" style="stroke: #000000; stroke-width: 0.5"/>
      </g>
     </g>
     <g id="line2d_37">
      <g>
       <use xlink:href="#mf6bd3c656a" x="132.581311" y="3.6" style="stroke: #000000; stroke-width: 0.5"/>
      </g>
     </g>
    </g>
    <g id="xtick_17">
     <g id="line2d_38">
      <g>
       <use xlink:href="#m833e72c5aa" x="140.393311" y="149.13" style="stroke: #000000; stroke-width: 0.5"/>
      </g>
     </g>
     <g id="line2d_39">
      <g>
       <use xlink:href="#mf6bd3c656a" x="140.393311" y="3.6" style="stroke: #000000; stroke-width: 0.5"/>
      </g>
     </g>
    </g>
    <g id="xtick_18">
     <g id="line2d_40">
      <g>
       <use xlink:href="#m833e72c5aa" x="148.205311" y="149.13" style="stroke: #000000; stroke-width: 0.5"/>
      </g>
     </g>
     <g id="line2d_41">
      <g>
       <use xlink:href="#mf6bd3c656a" x="148.205311" y="3.6" style="stroke: #000000; stroke-width: 0.5"/>
      </g>
     </g>
    </g>
    <g id="xtick_19">
     <g id="line2d_42">
      <g>
       <use xlink:href="#m833e72c5aa" x="163.829311" y="149.13" style="stroke: #000000; stroke-width: 0.5"/>
      </g>
     </g>
     <g id="line2d_43">
      <g>
       <use xlink:href="#mf6bd3c656a" x="163.829311" y="3.6" style="stroke: #000000; stroke-width: 0.5"/>
      </g>
     </g>
    </g>
    <g id="xtick_20">
     <g id="line2d_44">
      <g>
       <use xlink:href="#m833e72c5aa" x="171.641311" y="149.13" style="stroke: #000000; stroke-width: 0.5"/>
      </g>
     </g>
     <g id="line2d_45">
      <g>
       <use xlink:href="#mf6bd3c656a" x="171.641311" y="3.6" style="stroke: #000000; stroke-width: 0.5"/>
      </g>
     </g>
    </g>
    <g id="xtick_21">
     <g id="line2d_46">
      <g>
       <use xlink:href="#m833e72c5aa" x="179.453311" y="149.13" style="stroke: #000000; stroke-width: 0.5"/>
      </g>
     </g>
     <g id="line2d_47">
      <g>
       <use xlink:href="#mf6bd3c656a" x="179.453311" y="3.6" style="stroke: #000000; stroke-width: 0.5"/>
      </g>
     </g>
    </g>
    <g id="xtick_22">
     <g id="line2d_48">
      <g>
       <use xlink:href="#m833e72c5aa" x="187.265311" y="149.13" style="stroke: #000000; stroke-width: 0.5"/>
      </g>
     </g>
     <g id="line2d_49">
      <g>
       <use xlink:href="#mf6bd3c656a" x="187.265311" y="3.6" style="stroke: #000000; stroke-width: 0.5"/>
      </g>
     </g>
    </g>
    <g id="xtick_23">
     <g id="line2d_50">
      <g>
       <use xlink:href="#m833e72c5aa" x="202.889311" y="149.13" style="stroke: #000000; stroke-width: 0.5"/>
      </g>
     </g>
     <g id="line2d_51">
      <g>
       <use xlink:href="#mf6bd3c656a" x="202.889311" y="3.6" style="stroke: #000000; stroke-width: 0.5"/>
      </g>
     </g>
    </g>
    <g id="xtick_24">
     <g id="line2d_52">
      <g>
       <use xlink:href="#m833e72c5aa" x="210.701311" y="149.13" style="stroke: #000000; stroke-width: 0.5"/>
      </g>
     </g>
     <g id="line2d_53">
      <g>
       <use xlink:href="#mf6bd3c656a" x="210.701311" y="3.6" style="stroke: #000000; stroke-width: 0.5"/>
      </g>
     </g>
    </g>
    <g id="xtick_25">
     <g id="line2d_54">
      <g>
       <use xlink:href="#m833e72c5aa" x="218.513311" y="149.13" style="stroke: #000000; stroke-width: 0.5"/>
      </g>
     </g>
     <g id="line2d_55">
      <g>
       <use xlink:href="#mf6bd3c656a" x="218.513311" y="3.6" style="stroke: #000000; stroke-width: 0.5"/>
      </g>
     </g>
    </g>
    <g id="xtick_26">
     <g id="line2d_56">
      <g>
       <use xlink:href="#m833e72c5aa" x="226.325311" y="149.13" style="stroke: #000000; stroke-width: 0.5"/>
      </g>
     </g>
     <g id="line2d_57">
      <g>
       <use xlink:href="#mf6bd3c656a" x="226.325311" y="3.6" style="stroke: #000000; stroke-width: 0.5"/>
      </g>
     </g>
    </g>
    <g id="text_6">
     <!-- $t$ [ns] -->
     <g transform="translate(117.716391 172.957657) scale(0.1 -0.1)">
      <defs>
       <path id="CMMI12-74" d="M 1286 2566 
L 1875 2566 
C 1997 2566 2061 2566 2061 2681 
C 2061 2752 2022 2752 1894 2752 
L 1331 2752 
L 1568 3692 
C 1594 3781 1594 3794 1594 3840 
C 1594 3943 1510 4000 1427 4000 
C 1376 4000 1229 3981 1178 3775 
L 928 2752 
L 326 2752 
C 198 2752 141 2752 141 2630 
C 141 2566 186 2566 307 2566 
L 877 2566 
L 454 881 
C 403 658 384 594 384 511 
C 384 211 595 -64 954 -64 
C 1600 -64 1946 868 1946 912 
C 1946 951 1920 970 1882 970 
C 1869 970 1843 970 1830 944 
C 1824 938 1818 931 1773 829 
C 1638 511 1344 64 973 64 
C 781 64 768 224 768 364 
C 768 370 768 492 787 568 
L 1286 2566 
z
" transform="scale(0.015625)"/>
       <path id="CMR17-5b" d="M 1504 -1600 
L 1504 -1377 
L 902 -1377 
L 902 4544 
L 1504 4544 
L 1504 4767 
L 678 4767 
L 678 -1600 
L 1504 -1600 
z
" transform="scale(0.015625)"/>
       <path id="CMR17-6e" d="M 2656 1933 
C 2656 2259 2592 2790 1837 2790 
C 1331 2790 1069 2400 973 2144 
L 966 2144 
L 966 2790 
L 211 2720 
L 211 2554 
C 589 2554 646 2515 646 2208 
L 646 428 
C 646 184 621 153 211 153 
L 211 -13 
C 365 0 646 0 813 0 
C 979 0 1267 0 1421 -13 
L 1421 153 
C 1011 153 986 178 986 428 
L 986 1658 
C 986 2247 1344 2688 1792 2688 
C 2266 2688 2317 2266 2317 1958 
L 2317 428 
C 2317 184 2291 153 1882 153 
L 1882 -13 
C 2035 0 2317 0 2483 0 
C 2650 0 2938 0 3091 -13 
L 3091 153 
C 2682 153 2656 178 2656 428 
L 2656 1933 
z
" transform="scale(0.015625)"/>
       <path id="CMR17-73" d="M 1978 2697 
C 1978 2813 1971 2819 1933 2819 
C 1907 2819 1901 2813 1824 2717 
C 1805 2691 1747 2626 1728 2601 
C 1523 2819 1235 2819 1126 2819 
C 416 2819 160 2447 160 2076 
C 160 1498 813 1365 998 1325 
C 1402 1243 1542 1217 1677 1101 
C 1760 1025 1901 884 1901 654 
C 1901 384 1747 38 1158 38 
C 602 38 403 460 288 1021 
C 269 1110 269 1117 218 1117 
C 166 1117 160 1110 160 983 
L 160 63 
C 160 -51 166 -58 205 -58 
C 237 -58 243 -51 275 0 
C 314 57 410 211 448 276 
C 576 103 800 -64 1158 -64 
C 1792 -64 2131 283 2131 784 
C 2131 1112 1958 1285 1875 1362 
C 1683 1561 1459 1606 1190 1657 
C 838 1735 390 1825 390 2217 
C 390 2383 480 2737 1126 2737 
C 1811 2737 1850 2094 1862 1888 
C 1869 1856 1901 1849 1920 1849 
C 1978 1849 1978 1869 1978 1978 
L 1978 2697 
z
" transform="scale(0.015625)"/>
       <path id="CMR17-5d" d="M 915 4767 
L 90 4767 
L 90 4544 
L 691 4544 
L 691 -1377 
L 90 -1377 
L 90 -1600 
L 915 -1600 
L 915 4767 
z
" transform="scale(0.015625)"/>
      </defs>
      <use xlink:href="#CMMI12-74" transform="scale(0.996264)"/>
      <use xlink:href="#CMR17-5b" transform="translate(65.302297 0) scale(0.996264)"/>
      <use xlink:href="#CMR17-6e" transform="translate(90.173355 0) scale(0.996264)"/>
      <use xlink:href="#CMR17-73" transform="translate(141.068725 0) scale(0.996264)"/>
      <use xlink:href="#CMR17-5d" transform="translate(176.870062 0) scale(0.996264)"/>
     </g>
    </g>
   </g>
   <g id="matplotlib.axis_2">
    <g id="ytick_1">
     <g id="line2d_58">
      <path d="M 31.025311 149.13 
L 226.325311 149.13 
" clip-path="url(#p52d5c78bb6)" style="fill: none; stroke-dasharray: 1.85,0.8; stroke-dashoffset: 0; stroke: #000000; stroke-opacity: 0.5; stroke-width: 0.5"/>
     </g>
     <g id="line2d_59">
      <defs>
       <path id="mfb6727cb2a" d="M 0 0 
L 3 0 
" style="stroke: #000000; stroke-width: 0.5"/>
      </defs>
      <g>
       <use xlink:href="#mfb6727cb2a" x="31.025311" y="149.13" style="stroke: #000000; stroke-width: 0.5"/>
      </g>
     </g>
     <g id="line2d_60">
      <defs>
       <path id="md76a0b9b8b" d="M 0 0 
L -3 0 
" style="stroke: #000000; stroke-width: 0.5"/>
      </defs>
      <g>
       <use xlink:href="#md76a0b9b8b" x="226.325311" y="149.13" style="stroke: #000000; stroke-width: 0.5"/>
      </g>
     </g>
     <g id="text_7">
      <!-- $\mathdefault{0}$ -->
      <g transform="translate(22.543975 152.589249) scale(0.1 -0.1)">
       <use xlink:href="#CMR17-30" transform="scale(0.996264)"/>
      </g>
     </g>
    </g>
    <g id="ytick_2">
     <g id="line2d_61">
      <path d="M 31.025311 116.79 
L 226.325311 116.79 
" clip-path="url(#p52d5c78bb6)" style="fill: none; stroke-dasharray: 1.85,0.8; stroke-dashoffset: 0; stroke: #000000; stroke-opacity: 0.5; stroke-width: 0.5"/>
     </g>
     <g id="line2d_62">
      <g>
       <use xlink:href="#mfb6727cb2a" x="31.025311" y="116.79" style="stroke: #000000; stroke-width: 0.5"/>
      </g>
     </g>
     <g id="line2d_63">
      <g>
       <use xlink:href="#md76a0b9b8b" x="226.325311" y="116.79" style="stroke: #000000; stroke-width: 0.5"/>
      </g>
     </g>
     <g id="text_8">
      <!-- $\mathdefault{20}$ -->
      <g transform="translate(17.56264 120.249249) scale(0.1 -0.1)">
       <use xlink:href="#CMR17-32" transform="scale(0.996264)"/>
       <use xlink:href="#CMR17-30" transform="translate(45.690477 0) scale(0.996264)"/>
      </g>
     </g>
    </g>
    <g id="ytick_3">
     <g id="line2d_64">
      <path d="M 31.025311 84.45 
L 226.325311 84.45 
" clip-path="url(#p52d5c78bb6)" style="fill: none; stroke-dasharray: 1.85,0.8; stroke-dashoffset: 0; stroke: #000000; stroke-opacity: 0.5; stroke-width: 0.5"/>
     </g>
     <g id="line2d_65">
      <g>
       <use xlink:href="#mfb6727cb2a" x="31.025311" y="84.45" style="stroke: #000000; stroke-width: 0.5"/>
      </g>
     </g>
     <g id="line2d_66">
      <g>
       <use xlink:href="#md76a0b9b8b" x="226.325311" y="84.45" style="stroke: #000000; stroke-width: 0.5"/>
      </g>
     </g>
     <g id="text_9">
      <!-- $\mathdefault{40}$ -->
      <g transform="translate(17.56264 87.909249) scale(0.1 -0.1)">
       <defs>
        <path id="CMR17-34" d="M 2150 4122 
C 2150 4256 2144 4256 2029 4256 
L 128 1254 
L 128 1088 
L 1779 1088 
L 1779 457 
C 1779 224 1766 160 1318 160 
L 1197 160 
L 1197 0 
C 1402 0 1747 0 1965 0 
C 2182 0 2528 0 2733 0 
L 2733 160 
L 2611 160 
C 2163 160 2150 224 2150 457 
L 2150 1088 
L 2803 1088 
L 2803 1254 
L 2150 1254 
L 2150 4122 
z
M 1798 3703 
L 1798 1254 
L 256 1254 
L 1798 3703 
z
" transform="scale(0.015625)"/>
       </defs>
       <use xlink:href="#CMR17-34" transform="scale(0.996264)"/>
       <use xlink:href="#CMR17-30" transform="translate(45.690477 0) scale(0.996264)"/>
      </g>
     </g>
    </g>
    <g id="ytick_4">
     <g id="line2d_67">
      <path d="M 31.025311 52.11 
L 226.325311 52.11 
" clip-path="url(#p52d5c78bb6)" style="fill: none; stroke-dasharray: 1.85,0.8; stroke-dashoffset: 0; stroke: #000000; stroke-opacity: 0.5; stroke-width: 0.5"/>
     </g>
     <g id="line2d_68">
      <g>
       <use xlink:href="#mfb6727cb2a" x="31.025311" y="52.11" style="stroke: #000000; stroke-width: 0.5"/>
      </g>
     </g>
     <g id="line2d_69">
      <g>
       <use xlink:href="#md76a0b9b8b" x="226.325311" y="52.11" style="stroke: #000000; stroke-width: 0.5"/>
      </g>
     </g>
     <g id="text_10">
      <!-- $\mathdefault{60}$ -->
      <g transform="translate(17.56264 55.569249) scale(0.1 -0.1)">
       <defs>
        <path id="CMR17-36" d="M 678 2176 
C 678 3690 1395 4032 1811 4032 
C 1946 4032 2272 4009 2400 3776 
C 2298 3776 2106 3776 2106 3553 
C 2106 3381 2246 3323 2336 3323 
C 2394 3323 2566 3348 2566 3560 
C 2566 3954 2246 4179 1805 4179 
C 1043 4179 243 3390 243 1984 
C 243 253 966 -128 1478 -128 
C 2099 -128 2688 427 2688 1283 
C 2688 2081 2170 2662 1517 2662 
C 1126 2662 838 2407 678 1960 
L 678 2176 
z
M 1478 25 
C 691 25 691 1200 691 1436 
C 691 1896 909 2560 1504 2560 
C 1613 2560 1926 2560 2138 2120 
C 2253 1870 2253 1609 2253 1289 
C 2253 944 2253 690 2118 434 
C 1978 171 1773 25 1478 25 
z
" transform="scale(0.015625)"/>
       </defs>
       <use xlink:href="#CMR17-36" transform="scale(0.996264)"/>
       <use xlink:href="#CMR17-30" transform="translate(45.690477 0) scale(0.996264)"/>
      </g>
     </g>
    </g>
    <g id="ytick_5">
     <g id="line2d_70">
      <path d="M 31.025311 19.77 
L 226.325311 19.77 
" clip-path="url(#p52d5c78bb6)" style="fill: none; stroke-dasharray: 1.85,0.8; stroke-dashoffset: 0; stroke: #000000; stroke-opacity: 0.5; stroke-width: 0.5"/>
     </g>
     <g id="line2d_71">
      <g>
       <use xlink:href="#mfb6727cb2a" x="31.025311" y="19.77" style="stroke: #000000; stroke-width: 0.5"/>
      </g>
     </g>
     <g id="line2d_72">
      <g>
       <use xlink:href="#md76a0b9b8b" x="226.325311" y="19.77" style="stroke: #000000; stroke-width: 0.5"/>
      </g>
     </g>
     <g id="text_11">
      <!-- $\mathdefault{80}$ -->
      <g transform="translate(17.56264 23.229249) scale(0.1 -0.1)">
       <defs>
        <path id="CMR17-38" d="M 1741 2264 
C 2144 2467 2554 2773 2554 3263 
C 2554 3841 1990 4179 1472 4179 
C 890 4179 378 3759 378 3180 
C 378 3021 416 2747 666 2505 
C 730 2442 998 2251 1171 2130 
C 883 1983 211 1634 211 934 
C 211 279 838 -128 1459 -128 
C 2144 -128 2720 362 2720 1010 
C 2720 1590 2330 1857 2074 2029 
L 1741 2264 
z
M 902 2822 
C 851 2854 595 3051 595 3351 
C 595 3739 998 4032 1459 4032 
C 1965 4032 2336 3676 2336 3262 
C 2336 2669 1670 2331 1638 2331 
C 1632 2331 1626 2331 1574 2370 
L 902 2822 
z
M 2080 1519 
C 2176 1449 2483 1240 2483 851 
C 2483 381 2010 25 1472 25 
C 890 25 448 438 448 940 
C 448 1443 838 1862 1280 2060 
L 2080 1519 
z
" transform="scale(0.015625)"/>
       </defs>
       <use xlink:href="#CMR17-38" transform="scale(0.996264)"/>
       <use xlink:href="#CMR17-30" transform="translate(45.690477 0) scale(0.996264)"/>
      </g>
     </g>
    </g>
    <g id="ytick_6">
     <g id="line2d_73">
      <defs>
       <path id="m9a5c4587ee" d="M 0 0 
L 1.5 0 
" style="stroke: #000000; stroke-width: 0.5"/>
      </defs>
      <g>
       <use xlink:href="#m9a5c4587ee" x="31.025311" y="141.045" style="stroke: #000000; stroke-width: 0.5"/>
      </g>
     </g>
     <g id="line2d_74">
      <defs>
       <path id="mb9282ba08b" d="M 0 0 
L -1.5 0 
" style="stroke: #000000; stroke-width: 0.5"/>
      </defs>
      <g>
       <use xlink:href="#mb9282ba08b" x="226.325311" y="141.045" style="stroke: #000000; stroke-width: 0.5"/>
      </g>
     </g>
    </g>
    <g id="ytick_7">
     <g id="line2d_75">
      <g>
       <use xlink:href="#m9a5c4587ee" x="31.025311" y="132.96" style="stroke: #000000; stroke-width: 0.5"/>
      </g>
     </g>
     <g id="line2d_76">
      <g>
       <use xlink:href="#mb9282ba08b" x="226.325311" y="132.96" style="stroke: #000000; stroke-width: 0.5"/>
      </g>
     </g>
    </g>
    <g id="ytick_8">
     <g id="line2d_77">
      <g>
       <use xlink:href="#m9a5c4587ee" x="31.025311" y="124.875" style="stroke: #000000; stroke-width: 0.5"/>
      </g>
     </g>
     <g id="line2d_78">
      <g>
       <use xlink:href="#mb9282ba08b" x="226.325311" y="124.875" style="stroke: #000000; stroke-width: 0.5"/>
      </g>
     </g>
    </g>
    <g id="ytick_9">
     <g id="line2d_79">
      <g>
       <use xlink:href="#m9a5c4587ee" x="31.025311" y="108.705" style="stroke: #000000; stroke-width: 0.5"/>
      </g>
     </g>
     <g id="line2d_80">
      <g>
       <use xlink:href="#mb9282ba08b" x="226.325311" y="108.705" style="stroke: #000000; stroke-width: 0.5"/>
      </g>
     </g>
    </g>
    <g id="ytick_10">
     <g id="line2d_81">
      <g>
       <use xlink:href="#m9a5c4587ee" x="31.025311" y="100.62" style="stroke: #000000; stroke-width: 0.5"/>
      </g>
     </g>
     <g id="line2d_82">
      <g>
       <use xlink:href="#mb9282ba08b" x="226.325311" y="100.62" style="stroke: #000000; stroke-width: 0.5"/>
      </g>
     </g>
    </g>
    <g id="ytick_11">
     <g id="line2d_83">
      <g>
       <use xlink:href="#m9a5c4587ee" x="31.025311" y="92.535" style="stroke: #000000; stroke-width: 0.5"/>
      </g>
     </g>
     <g id="line2d_84">
      <g>
       <use xlink:href="#mb9282ba08b" x="226.325311" y="92.535" style="stroke: #000000; stroke-width: 0.5"/>
      </g>
     </g>
    </g>
    <g id="ytick_12">
     <g id="line2d_85">
      <g>
       <use xlink:href="#m9a5c4587ee" x="31.025311" y="76.365" style="stroke: #000000; stroke-width: 0.5"/>
      </g>
     </g>
     <g id="line2d_86">
      <g>
       <use xlink:href="#mb9282ba08b" x="226.325311" y="76.365" style="stroke: #000000; stroke-width: 0.5"/>
      </g>
     </g>
    </g>
    <g id="ytick_13">
     <g id="line2d_87">
      <g>
       <use xlink:href="#m9a5c4587ee" x="31.025311" y="68.28" style="stroke: #000000; stroke-width: 0.5"/>
      </g>
     </g>
     <g id="line2d_88">
      <g>
       <use xlink:href="#mb9282ba08b" x="226.325311" y="68.28" style="stroke: #000000; stroke-width: 0.5"/>
      </g>
     </g>
    </g>
    <g id="ytick_14">
     <g id="line2d_89">
      <g>
       <use xlink:href="#m9a5c4587ee" x="31.025311" y="60.195" style="stroke: #000000; stroke-width: 0.5"/>
      </g>
     </g>
     <g id="line2d_90">
      <g>
       <use xlink:href="#mb9282ba08b" x="226.325311" y="60.195" style="stroke: #000000; stroke-width: 0.5"/>
      </g>
     </g>
    </g>
    <g id="ytick_15">
     <g id="line2d_91">
      <g>
       <use xlink:href="#m9a5c4587ee" x="31.025311" y="44.025" style="stroke: #000000; stroke-width: 0.5"/>
      </g>
     </g>
     <g id="line2d_92">
      <g>
       <use xlink:href="#mb9282ba08b" x="226.325311" y="44.025" style="stroke: #000000; stroke-width: 0.5"/>
      </g>
     </g>
    </g>
    <g id="ytick_16">
     <g id="line2d_93">
      <g>
       <use xlink:href="#m9a5c4587ee" x="31.025311" y="35.94" style="stroke: #000000; stroke-width: 0.5"/>
      </g>
     </g>
     <g id="line2d_94">
      <g>
       <use xlink:href="#mb9282ba08b" x="226.325311" y="35.94" style="stroke: #000000; stroke-width: 0.5"/>
      </g>
     </g>
    </g>
    <g id="ytick_17">
     <g id="line2d_95">
      <g>
       <use xlink:href="#m9a5c4587ee" x="31.025311" y="27.855" style="stroke: #000000; stroke-width: 0.5"/>
      </g>
     </g>
     <g id="line2d_96">
      <g>
       <use xlink:href="#mb9282ba08b" x="226.325311" y="27.855" style="stroke: #000000; stroke-width: 0.5"/>
      </g>
     </g>
    </g>
    <g id="ytick_18">
     <g id="line2d_97">
      <g>
       <use xlink:href="#m9a5c4587ee" x="31.025311" y="11.685" style="stroke: #000000; stroke-width: 0.5"/>
      </g>
     </g>
     <g id="line2d_98">
      <g>
       <use xlink:href="#mb9282ba08b" x="226.325311" y="11.685" style="stroke: #000000; stroke-width: 0.5"/>
      </g>
     </g>
    </g>
    <g id="ytick_19">
     <g id="line2d_99">
      <g>
       <use xlink:href="#m9a5c4587ee" x="31.025311" y="3.6" style="stroke: #000000; stroke-width: 0.5"/>
      </g>
     </g>
     <g id="line2d_100">
      <g>
       <use xlink:href="#mb9282ba08b" x="226.325311" y="3.6" style="stroke: #000000; stroke-width: 0.5"/>
      </g>
     </g>
    </g>
    <g id="text_12">
     <!-- $U_1$ [mV] -->
     <g transform="translate(11.07198 94.315774) rotate(-90) scale(0.1 -0.1)">
      <defs>
       <path id="CMMI12-55" d="M 3238 1474 
C 3014 581 2272 57 1670 57 
C 1210 57 896 363 896 891 
C 896 916 896 1107 966 1387 
L 1594 3887 
C 1651 4103 1664 4167 2118 4167 
C 2234 4167 2298 4167 2298 4282 
C 2298 4352 2240 4352 2202 4352 
C 2086 4352 1952 4352 1830 4352 
L 1075 4352 
C 954 4352 819 4352 698 4352 
C 653 4352 576 4352 576 4231 
C 576 4167 621 4167 742 4167 
C 1126 4167 1126 4116 1126 4046 
C 1126 4008 1082 3824 1050 3715 
L 493 1488 
C 474 1418 435 1246 435 1075 
C 435 374 941 -128 1638 -128 
C 2285 -128 3002 384 3328 1197 
C 3373 1305 3430 1530 3469 1702 
C 3533 1933 3667 2496 3712 2662 
L 3955 3623 
C 4038 3956 4090 4167 4653 4167 
C 4704 4173 4730 4224 4730 4282 
C 4730 4352 4672 4352 4646 4352 
C 4557 4352 4442 4352 4352 4352 
L 4051 4352 
C 3654 4352 3450 4352 3443 4352 
C 3405 4352 3328 4352 3328 4231 
C 3328 4167 3379 4167 3424 4167 
C 3808 4167 3834 4020 3834 3905 
C 3834 3848 3834 3828 3808 3739 
L 3238 1474 
z
" transform="scale(0.015625)"/>
       <path id="CMR17-6d" d="M 4326 1933 
C 4326 2252 4269 2790 3507 2790 
C 3072 2790 2771 2496 2656 2151 
L 2650 2151 
C 2573 2676 2195 2790 1837 2790 
C 1331 2790 1069 2400 973 2144 
L 966 2144 
L 966 2790 
L 211 2720 
L 211 2554 
C 589 2554 646 2515 646 2208 
L 646 428 
C 646 184 621 153 211 153 
L 211 -13 
C 365 0 646 0 813 0 
C 979 0 1267 0 1421 -13 
L 1421 153 
C 1011 153 986 178 986 428 
L 986 1658 
C 986 2247 1344 2688 1792 2688 
C 2266 2688 2317 2266 2317 1958 
L 2317 428 
C 2317 184 2291 153 1882 153 
L 1882 -13 
C 2035 0 2317 0 2483 0 
C 2650 0 2938 0 3091 -13 
L 3091 153 
C 2682 153 2656 178 2656 428 
L 2656 1658 
C 2656 2247 3014 2688 3462 2688 
C 3936 2688 3987 2266 3987 1958 
L 3987 428 
C 3987 184 3962 153 3552 153 
L 3552 -13 
C 3706 0 3987 0 4154 0 
C 4320 0 4608 0 4762 -13 
L 4762 153 
C 4352 153 4326 178 4326 428 
L 4326 1933 
z
" transform="scale(0.015625)"/>
       <path id="CMR17-56" d="M 3776 3745 
C 3834 3886 3936 4160 4365 4160 
L 4365 4332 
C 4218 4319 4051 4319 3891 4319 
C 3738 4319 3475 4319 3328 4332 
L 3328 4160 
C 3648 4160 3661 3936 3661 3898 
C 3661 3827 3642 3783 3622 3732 
L 2362 446 
L 1043 3886 
C 1024 3931 1011 3963 1011 3994 
C 1011 4160 1267 4160 1402 4160 
L 1402 4319 
C 1197 4319 896 4319 685 4319 
C 518 4319 218 4319 64 4332 
L 64 4160 
C 435 4160 506 4135 582 3931 
L 2106 -26 
C 2138 -115 2144 -128 2214 -128 
C 2285 -128 2291 -115 2323 -26 
L 3776 3745 
z
" transform="scale(0.015625)"/>
      </defs>
      <use xlink:href="#CMMI12-55" transform="scale(0.996264)"/>
      <use xlink:href="#CMR17-31" transform="translate(66.252119 -14.943915) scale(0.697382)"/>
      <use xlink:href="#CMR17-5b" transform="translate(128.809399 0) scale(0.996264)"/>
      <use xlink:href="#CMR17-6d" transform="translate(153.680458 0) scale(0.996264)"/>
      <use xlink:href="#CMR17-56" transform="translate(230.600048 0) scale(0.996264)"/>
      <use xlink:href="#CMR17-5d" transform="translate(299.672478 0) scale(0.996264)"/>
     </g>
    </g>
   </g>
   <g id="line2d_101">
    <path d="M 38.837311 149.132385 
L 38.931055 149.109791 
L 38.945116 149.098903 
L 39.059171 148.681265 
L 39.252909 146.685075 
L 39.641947 141.291915 
L 40.218472 133.45383 
L 43.1011 103.044037 
L 44.393205 93.019295 
L 44.718184 90.767405 
L 45.144719 87.870444 
L 45.307209 86.814556 
L 45.599378 84.931724 
L 46.586815 79.189848 
L 46.636811 78.904787 
L 46.958666 77.237625 
L 47.249272 75.76744 
L 47.680495 73.601447 
L 48.083594 71.597377 
L 48.307017 70.57595 
L 48.485131 69.767646 
L 48.894479 67.940298 
L 49.216334 66.521753 
L 49.388198 65.837517 
L 49.713177 64.405734 
L 49.738175 64.30105 
L 50.049093 63.025366 
L 50.556873 60.966586 
L 50.752173 60.252878 
L 51.8896 56.265122 
L 51.964595 56.001615 
L 52.186456 55.308339 
L 54.787852 47.953832 
L 54.834724 47.857159 
L 55.13783 47.163501 
L 55.644047 45.991287 
L 55.704981 45.857441 
L 55.865908 45.510145 
L 56.187763 44.79335 
L 56.3815 44.336225 
L 56.515867 44.094464 
L 56.798661 43.53669 
L 56.800223 43.537365 
L 57.24082 42.686951 
L 57.242383 42.691491 
L 57.309566 42.549688 
L 57.609547 41.977654 
L 59.451616 38.674178 
L 59.453179 38.682719 
L 59.454741 38.685298 
L 59.518799 38.584885 
L 59.521924 38.585067 
L 59.743785 38.224878 
L 59.901587 37.937268 
L 60.090638 37.647969 
L 60.451552 37.062247 
L 61.007767 36.115065 
L 61.078075 36.037708 
L 61.017141 36.092644 
L 61.079637 36.031161 
L 61.288999 35.760683 
L 61.290561 35.763026 
L 62.032701 34.666799 
L 62.223314 34.331004 
L 62.224876 34.33573 
L 62.306121 34.229267 
L 62.465486 34.134238 
L 62.467048 34.136422 
L 62.976391 34.160373 
L 63.465422 34.051082 
L 63.604475 33.947518 
L 63.993513 33.501421 
L 64.038823 33.462106 
L 64.060696 33.414856 
L 64.260683 33.141905 
L 64.263808 33.144035 
L 64.330991 33.030966 
L 64.563789 32.700186 
L 64.663783 32.59162 
L 65.060632 32.049316 
L 65.074694 32.050121 
L 65.13094 31.971199 
L 65.145002 31.971302 
L 67.180809 29.460558 
L 67.268303 29.352032 
L 67.424543 29.169726 
L 67.527662 29.055618 
L 67.683902 28.873221 
L 67.87139 28.671402 
L 67.877639 28.67916 
L 67.969821 28.592528 
L 68.172933 28.382243 
L 68.369795 28.14474 
L 68.57447 27.902597 
L 69.836889 26.67083 
L 69.841576 26.675377 
L 69.844701 26.675561 
L 69.897823 26.584661 
L 69.90251 26.585596 
L 70.054063 26.399217 
L 70.425914 26.042249 
L 70.436851 26.045468 
L 70.461849 26.001593 
L 70.497784 25.966292 
L 70.627463 25.794828 
L 70.629026 25.797077 
L 70.869635 25.594901 
L 71.082122 25.397771 
L 71.241487 25.272852 
L 71.960191 24.616061 
L 71.961753 24.619388 
L 71.96644 24.627672 
L 72.052372 24.540955 
L 72.275795 24.349199 
L 72.292982 24.350341 
L 72.35704 24.271379 
L 72.538279 24.10133 
L 72.542966 24.104049 
L 72.586713 24.024297 
L 72.610149 24.010787 
L 73.064807 23.52269 
L 73.146052 23.433078 
L 73.408535 23.180566 
L 73.413223 23.187085 
L 73.531965 23.046388 
L 73.899129 22.748353 
L 73.902254 22.753032 
L 73.942876 22.734071 
L 73.952251 22.709034 
L 73.989748 22.684645 
L 74.683454 22.042668 
L 74.689703 22.056208 
L 74.691266 22.05779 
L 74.758449 21.968303 
L 75.034994 21.659723 
L 75.036556 21.661865 
L 75.041243 21.672076 
L 75.125613 21.580777 
L 75.128738 21.58486 
L 75.717763 21.022302 
L 75.781821 21.025033 
L 75.820881 20.978778 
L 76.202107 20.670263 
L 76.203669 20.672387 
L 78.211353 18.857251 
L 78.21604 18.858116 
L 78.280099 18.78174 
L 78.292598 18.77944 
L 78.57383 18.538953 
L 80.672133 16.996218 
L 80.892431 16.833756 
L 80.895556 16.843008 
L 80.978363 16.758548 
L 80.979926 16.758707 
L 81.120542 16.640313 
L 81.359589 16.484101 
L 81.365839 16.493415 
L 81.562701 16.381267 
L 81.69863 16.270166 
L 81.959551 16.063748 
L 82.048607 16.047109 
L 81.962675 16.058297 
L 82.070481 16.02335 
L 83.345399 15.01734 
L 83.367273 15.033916 
L 83.443831 14.960397 
L 83.770372 14.767628 
L 83.926612 14.667167 
L 83.948486 14.685296 
L 83.965672 14.684508 
L 84.015669 14.638662 
L 84.048479 14.636068 
L 84.050042 14.638411 
L 84.106288 14.55601 
L 84.128162 14.558124 
L 84.27659 14.456918 
L 84.437517 14.378892 
L 84.85624 14.080269 
L 85.009355 13.976881 
L 85.153096 13.880998 
L 85.190594 13.868799 
L 85.20778 13.835615 
L 85.242153 13.816697 
L 85.529635 13.640146 
L 85.648377 13.596793 
L 85.651502 13.604424 
L 86.098348 13.678527 
L 86.343645 15.21992 
L 89.146591 40.897349 
L 90.913665 52.797195 
L 91.016783 53.394296 
L 91.749549 57.640271 
L 92.044843 59.221857 
L 92.683864 62.595195 
L 93.233829 65.167016 
L 93.757233 67.44475 
L 93.891599 68.062822 
L 94.168144 69.250338 
L 95.827413 75.348421 
L 96.068023 76.160494 
L 96.271135 76.815939 
L 96.272697 76.813807 
L 96.274259 76.812492 
L 96.308632 76.915154 
L 96.311757 76.918646 
L 96.719543 78.102134 
L 96.8086 78.383558 
L 97.066396 79.089916 
L 97.224199 79.548319 
L 97.392938 80.039887 
L 97.727291 80.927972 
L 97.769476 81.039558 
L 98.335065 82.565991 
L 98.438183 82.832011 
L 98.636608 83.322521 
L 99.022521 84.23583 
L 99.027208 84.233331 
L 99.030333 84.233263 
L 99.072518 84.335501 
L 99.075643 84.337413 
L 99.3475 84.924501 
L 99.630295 85.638778 
L 99.697478 85.78723 
L 99.922463 86.248518 
L 101.216131 88.898599 
L 101.217693 88.896328 
L 101.269252 89.011124 
L 101.437991 89.31509 
L 101.933272 90.231335 
L 101.936397 90.228637 
L 101.987956 90.341884 
L 102.144196 90.668864 
L 103.751906 93.436725 
L 103.808152 93.551693 
L 104.08001 94.090765 
L 104.304995 94.511196 
L 104.489359 94.805437 
L 104.623725 95.069471 
L 104.909644 95.533766 
L 107.236058 99.434396 
L 107.239183 99.430757 
L 107.24387 99.422613 
L 107.32199 99.542506 
L 107.55635 99.849808 
L 107.707903 100.110581 
L 107.900078 100.34716 
L 107.970386 100.431955 
L 108.117251 100.600652 
L 108.126626 100.593843 
L 108.509414 101.081626 
L 108.525038 101.093197 
L 108.545349 101.146456 
L 108.573472 101.167839 
L 108.745336 101.39224 
L 108.803145 101.502005 
L 109.145311 102.069888 
L 109.154685 102.072247 
L 109.215619 102.154155 
L 109.217181 102.15463 
L 109.840579 102.907335 
L 110.007755 103.138995 
L 110.01088 103.134363 
L 110.668651 103.978386 
L 110.793643 104.097738 
L 110.960819 104.297319 
L 111.049876 104.403277 
L 111.865449 105.604135 
L 111.867011 105.602376 
L 111.902947 105.668436 
L 111.934195 105.688314 
L 112.127932 105.922607 
L 112.207615 106.01412 
L 112.576341 106.406541 
L 112.762267 106.597673 
L 113.374727 107.251327 
L 113.37629 107.245042 
L 113.457535 107.36144 
L 113.459097 107.36016 
L 113.598151 107.535134 
L 113.605963 107.532587 
L 113.791888 107.7229 
L 113.949691 107.845607 
L 114.212174 108.091752 
L 114.363727 108.270445 
L 115.430846 109.466571 
L 115.599585 109.58534 
L 115.735514 109.729757 
L 115.851131 109.840632 
L 116.118302 110.162547 
L 116.201109 110.244645 
L 116.202671 110.25139 
L 116.372973 110.440924 
L 116.38391 110.431722 
L 116.505777 110.534144 
L 118.647827 112.632737 
L 118.818129 112.794299 
L 119.205604 113.213581 
L 119.291536 113.277713 
L 119.23529 113.253004 
L 119.293099 113.28097 
L 119.560269 113.541964 
L 119.561831 113.539986 
L 119.696198 113.651206 
L 119.827439 113.77513 
L 119.947744 113.895308 
L 120.430526 114.295804 
L 120.432088 114.293933 
L 120.500834 114.325805 
L 120.441463 114.30483 
L 120.525832 114.351176 
L 120.746131 114.599049 
L 120.835187 114.664003 
L 120.839875 114.67249 
L 121.003927 114.797246 
L 121.178915 114.975351 
L 121.325781 115.124295 
L 121.549204 115.275398 
L 121.686695 115.402447 
L 121.792939 115.480886 
L 121.794501 115.487553 
L 121.947616 115.650958 
L 121.952303 115.646331 
L 121.96949 115.644414 
L 122.025736 115.727749 
L 122.036673 115.720745 
L 122.322592 115.963272 
L 122.346028 115.970695 
L 122.405399 116.037086 
L 123.038171 116.587834 
L 123.111604 116.613993 
L 123.138165 116.637861 
L 123.283468 116.745956 
L 123.442833 116.889371 
L 123.683443 117.102326 
L 123.68813 117.098866 
L 123.87718 117.205456 
L 124.105291 117.39076 
L 124.319339 117.606248 
L 124.478704 117.749429 
L 124.499015 117.724057 
L 124.841181 117.988992 
L 125.078666 118.101016 
L 125.228656 118.200393 
L 125.230219 118.193651 
L 125.469266 118.374366 
L 125.728624 118.612178 
L 125.777059 118.616469 
L 125.823931 118.669861 
L 125.987983 118.777026 
L 126.125474 118.859672 
L 126.130161 118.857406 
L 126.392644 119.061852 
L 126.477014 119.106817 
L 126.423892 119.086878 
L 126.486388 119.121316 
L 126.636379 119.227698 
L 126.697312 119.238487 
L 126.736372 119.274315 
L 126.873863 119.374282 
L 126.970732 119.454714 
L 127.117598 119.554467 
L 127.122285 119.547764 
L 127.12541 119.545316 
L 127.408204 119.776805 
L 127.617566 119.963495 
L 127.844114 120.092544 
L 128.020665 120.168533 
L 128.151907 120.302355 
L 128.162843 120.293087 
L 128.269087 120.363523 
L 128.467511 120.459079 
L 128.472199 120.449697 
L 128.559693 120.555167 
L 128.562818 120.55049 
L 128.623751 120.638695 
L 128.634688 120.640423 
L 129.03935 120.868268 
L 129.223713 121.030473 
L 129.884608 121.415977 
L 129.920543 121.40602 
L 129.978352 121.462284 
L 129.986164 121.463007 
L 130.075221 121.550897 
L 130.300207 121.67839 
L 130.301769 121.675358 
L 130.378327 121.681782 
L 130.323643 121.70168 
L 130.40645 121.714161 
L 130.553315 121.791132 
L 130.801737 121.936972 
L 130.967351 122.097623 
L 130.973601 122.086569 
L 131.395449 122.398294 
L 131.397011 122.396012 
L 131.414198 122.395456 
L 131.478256 122.467334 
L 131.479819 122.467493 
L 131.686055 122.586498 
L 131.7673 122.627833 
L 131.72824 122.637204 
L 131.782924 122.648298 
L 131.954788 122.707047 
L 131.976662 122.690767 
L 132.04072 122.744109 
L 132.057907 122.747467 
L 132.304766 122.856497 
L 132.445382 122.975085 
L 132.615683 123.09122 
L 132.742238 123.137354 
L 132.814108 123.148732 
L 132.848481 123.180365 
L 132.851606 123.177839 
L 133.110964 123.373819 
L 133.204708 123.421273 
L 133.210958 123.432458 
L 133.342199 123.513549 
L 133.514063 123.680712 
L 133.64843 123.758003 
L 133.801545 123.867491 
L 133.806232 123.864956 
L 133.937474 123.921566 
L 133.942161 123.919947 
L 133.992158 123.973134 
L 134.028093 123.981135 
L 134.168709 124.013178 
L 134.301513 124.125884 
L 134.604619 124.3066 
L 134.837416 124.422066 
L 134.992094 124.527625 
L 134.993656 124.525316 
L 135.134272 124.60728 
L 135.304574 124.707772 
L 135.306136 124.704837 
L 135.307699 124.702346 
L 135.379569 124.768764 
L 135.396755 124.758629 
L 135.526435 124.854107 
L 135.584243 124.866778 
L 135.548308 124.877025 
L 135.621741 124.90984 
L 135.746733 125.012341 
L 135.760795 125.002773 
L 136.106085 125.199549 
L 136.201391 125.206258 
L 136.140458 125.214542 
L 136.215453 125.223451 
L 136.359194 125.301336 
L 136.501372 125.400759 
L 136.510747 125.391887 
L 136.691985 125.438112 
L 136.818539 125.50491 
L 137.279447 125.647509 
L 137.412251 125.71832 
L 137.416939 125.710667 
L 137.513807 125.766528 
L 137.518495 125.773858 
L 137.695046 125.892383 
L 137.701295 125.887022 
L 137.738793 125.877436 
L 137.795039 125.942141 
L 137.990339 126.040339 
L 138.10127 126.124065 
L 138.734042 126.458052 
L 138.888719 126.522134 
L 138.979339 126.54102 
L 138.998087 126.556478 
L 139.148078 126.65421 
L 139.157452 126.644721 
L 139.238697 126.726436 
L 139.240259 126.724597 
L 139.610548 126.942153 
L 139.758976 127.054869 
L 139.854283 127.089616 
L 139.794911 127.075839 
L 139.85897 127.09703 
L 140.013647 127.185022 
L 140.019897 127.180261 
L 140.622983 127.447197 
L 140.754225 127.470304 
L 140.971399 127.555723 
L 141.077642 127.585307 
L 141.087016 127.57716 
L 141.30419 127.700558 
L 141.305752 127.698704 
L 141.37606 127.722925 
L 141.405746 127.746467 
L 141.722913 127.868438 
L 141.726038 127.861344 
L 141.7276 127.856662 
L 141.777597 127.891172 
L 141.826031 127.906254 
L 141.991646 127.940694 
L 141.993208 127.938549 
L 142.126012 128.052884 
L 142.130699 128.050149 
L 142.291627 128.160675 
L 142.315063 128.159531 
L 142.382246 128.224325 
L 142.386933 128.223991 
L 142.974395 128.508185 
L 143.116574 128.583719 
L 143.118136 128.582335 
L 143.196256 128.587483 
L 143.224379 128.628467 
L 143.616542 128.762201 
L 143.739971 128.807437 
L 143.741534 128.805298 
L 143.84309 128.811514 
L 143.860276 128.826007 
L 143.969644 128.849318 
L 143.991518 128.829525 
L 144.07745 128.871049 
L 144.035265 128.864544 
L 144.086824 128.879811 
L 144.164944 128.951379 
L 144.210254 128.938903 
L 144.336808 128.991976 
L 144.338371 128.996939 
L 144.475862 129.033592 
L 144.477424 129.030371 
L 144.599291 129.078704 
L 144.797716 129.185922 
L 144.924271 129.234271 
L 145.128945 129.355792 
L 145.141444 129.347518 
L 145.285185 129.404792 
L 145.386741 129.437333 
L 145.389866 129.442547 
L 145.524232 129.513666 
L 145.525795 129.513114 
L 145.744531 129.540624 
L 145.746093 129.546042 
L 145.924207 129.613197 
L 146.29762 129.724092 
L 146.433549 129.790325 
L 146.438236 129.786853 
L 146.677283 129.878625 
L 146.774152 129.920911 
L 146.799151 129.911881 
L 147.260059 130.088441 
L 147.363177 130.095893 
L 147.267871 130.083654 
L 147.372551 130.092048 
L 149.97551 130.839314 
L 150.089565 130.880359 
L 150.09269 130.885107 
L 152.359732 131.538042 
L 152.465975 131.608404 
L 152.478475 131.596496 
L 152.689399 131.652027 
L 152.880011 131.718587 
L 153.001879 131.717866 
L 152.886261 131.72395 
L 153.012815 131.728714 
L 154.593964 132.177813 
L 154.693958 132.203211 
L 154.70177 132.211762 
L 154.887695 132.298373 
L 154.979877 132.317972 
L 154.993939 132.337497 
L 155.489219 132.435144 
L 155.634523 132.516876 
L 155.501719 132.429724 
L 155.636085 132.51394 
L 155.826698 132.570211 
L 155.907943 132.552771 
L 155.942315 132.572035 
L 156.106367 132.619621 
L 156.192299 132.580278 
L 156.228235 132.615618 
L 156.840695 132.693437 
L 156.959438 132.6979 
L 157.092242 132.683414 
L 157.096929 132.690015 
L 157.426595 132.790952 
L 157.5469 132.813017 
L 157.551587 132.808915 
L 157.662518 132.817203 
L 157.671892 132.826334 
L 157.815633 132.868635 
L 157.825007 132.859191 
L 157.942187 132.862492 
L 157.945312 132.866542 
L 158.126551 132.943484 
L 158.131238 132.946383 
L 158.242168 132.962934 
L 158.889002 133.106988 
L 158.890564 133.101603 
L 159.009307 133.095779 
L 160.093612 133.214834 
L 160.220167 133.261187 
L 160.224854 133.259333 
L 160.317035 133.27626 
L 160.276413 133.294987 
L 160.331097 133.288568 
L 160.829503 133.380583 
L 160.831065 133.375804 
L 160.949807 133.394034 
L 160.95137 133.395853 
L 161.095111 133.42159 
L 161.168543 133.42412 
L 161.138858 133.444165 
L 161.202916 133.447407 
L 161.951306 133.572574 
L 162.063799 133.616111 
L 162.071611 133.613902 
L 162.504395 133.609609 
L 162.509083 133.603448 
L 162.588765 133.647541 
L 162.609076 133.642838 
L 162.771566 133.69405 
L 162.613763 133.63793 
L 162.773128 133.691767 
L 162.891871 133.695669 
L 162.896558 133.703447 
L 163.0153 133.729829 
L 163.024675 133.724033 
L 163.377777 133.828799 
L 163.380902 133.816821 
L 163.4059 133.839866 
L 163.485583 133.852448 
L 164.771438 134.134625 
L 165.28078 134.235445 
L 165.418271 134.253154 
L 165.419834 134.250767 
L 165.532327 134.238758 
L 165.535451 134.244818 
L 165.643257 134.268249 
L 165.647944 134.276138 
L 166.277591 134.386546 
L 166.397896 134.423701 
L 166.404146 134.416121 
L 166.880678 134.407199 
L 166.980671 134.445027 
L 166.996295 134.438147 
L 167.755622 134.544526 
L 167.855615 134.546126 
L 167.868115 134.534616 
L 168.338397 134.616658 
L 168.468076 134.655855 
L 168.577444 134.668497 
L 168.500887 134.689457 
L 168.582131 134.671371 
L 168.735247 134.686469 
L 168.746183 134.697518 
L 168.853989 134.705555 
L 169.002417 134.716202 
L 169.003979 134.713819 
L 169.794554 134.814715 
L 169.92892 134.895217 
L 170.092972 134.867157 
L 170.096097 134.871981 
L 170.228901 134.875796 
L 170.357018 134.872073 
L 170.2414 134.885785 
L 170.35858 134.876881 
L 170.51482 134.908744 
L 170.628875 134.910513 
L 170.561692 134.93205 
L 170.632 134.912917 
L 170.799177 134.952786 
L 170.800739 134.94947 
L 170.810114 134.944231 
L 170.888234 135.005038 
L 170.896046 135.00559 
L 171.036662 135.021037 
L 171.186652 135.0228 
L 171.30227 135.046848 
L 171.199151 135.035799 
L 171.303832 135.04935 
L 171.338205 135.065827 
L 171.4132 135.03909 
L 171.53038 135.050056 
L 171.533505 135.059627 
L 171.669434 135.066838 
L 172.344391 135.163601 
L 172.475632 135.216553 
L 172.477195 135.214233 
L 172.606874 135.215642 
L 173.172463 135.267503 
L 173.278706 135.27467 
L 173.206835 135.286743 
L 173.289643 135.283312 
L 173.598998 135.392925 
L 173.711491 135.412933 
L 173.617747 135.382589 
L 173.719303 135.409073 
L 173.813047 135.424321 
L 173.825546 135.443543 
L 173.945851 135.494821 
L 173.953663 135.48779 
L 175.144211 135.646551 
L 175.294202 135.691974 
L 175.40357 135.702793 
L 175.309826 135.710908 
L 175.406695 135.710986 
L 175.448879 135.759878 
L 175.523875 135.748006 
L 176.212893 135.808557 
L 176.350384 135.824481 
L 176.353509 135.821994 
L 176.481626 135.791658 
L 176.539435 135.811469 
L 176.576932 135.769157 
L 176.589431 135.770465 
L 177.184706 135.919173 
L 177.31751 135.958654 
L 177.762794 135.913697 
L 177.889348 135.964264 
L 177.895598 135.957276 
L 178.006528 135.952637 
L 178.009653 135.955427 
L 178.114334 135.933723 
L 178.136207 135.947678 
L 178.253387 135.943942 
L 178.761167 135.976466 
L 180.628235 136.09371 
L 183.809282 136.370786 
L 183.940523 136.399977 
L 183.95146 136.390028 
L 184.070203 136.369299 
L 184.071765 136.373508 
L 186.952831 136.580138 
L 187.055949 136.577799 
L 187.063761 136.586103 
L 187.176254 136.603937 
L 187.191878 136.589348 
L 187.507483 136.624325 
L 187.638724 136.623409 
L 188.038699 136.640389 
L 188.157441 136.646274 
L 188.162128 136.653025 
L 188.296495 136.656574 
L 188.341804 136.655801 
L 188.399613 136.70173 
L 192.071253 136.787311 
L 192.197807 136.818879 
L 192.325924 136.821146 
L 192.327487 136.822883 
L 192.461853 136.865557 
L 192.469665 136.859048 
L 192.585283 136.788575 
L 192.605594 136.80076 
L 193.611779 136.909885 
L 193.757083 136.952744 
L 193.758645 136.950311 
L 193.858639 136.93118 
L 193.76177 136.95274 
L 193.875825 136.947339 
L 194.652338 137.012933 
L 194.77733 137.055452 
L 194.782017 137.053171 
L 198.736451 137.245763 
L 198.844257 137.230605 
L 198.853631 137.235386 
L 199.447343 137.331869 
L 199.564523 137.337991 
L 199.650455 137.362365 
L 199.664517 137.381312 
L 199.780135 137.410726 
L 199.886378 137.422648 
L 199.811383 137.425846 
L 199.891065 137.424355 
L 200.026994 137.435496 
L 200.028556 137.433152 
L 200.261354 137.458901 
L 200.376971 137.48686 
L 200.517587 137.460411 
L 200.384783 137.493332 
L 200.520712 137.465831 
L 200.622268 137.49486 
L 200.639455 137.490125 
L 200.728511 137.510448 
L 200.756635 137.494948 
L 201.236291 137.495186 
L 201.270664 137.517252 
L 201.348784 137.489614 
L 203.734569 137.57741 
L 203.87206 137.589538 
L 203.737694 137.57495 
L 203.873623 137.584765 
L 204.123607 137.59523 
L 204.22985 137.604101 
L 204.164229 137.618568 
L 204.234537 137.605642 
L 204.409526 137.673076 
L 204.537643 137.678281 
L 206.007861 137.783185 
L 206.175038 137.837448 
L 210.730996 137.961824 
L 210.841927 137.979467 
L 210.843489 137.9771 
L 210.966919 137.988482 
L 211.113784 138.040282 
L 211.235651 138.036848 
L 211.240339 138.03179 
L 211.401266 138.003811 
L 211.499697 137.994779 
L 211.515321 138.008112 
L 213.588626 138.044119 
L 213.705806 138.097723 
L 213.718305 138.083444 
L 215.882229 138.195701 
L 216.007221 138.208201 
L 216.008783 138.206733 
L 216.171273 138.265988 
L 216.17596 138.261243 
L 218.005531 138.377502 
L 218.13521 138.397283 
L 218.138335 138.392479 
L 218.289887 138.43525 
L 218.294575 138.428729 
L 220.067899 138.480765 
L 220.113208 138.499257 
L 220.177267 138.457609 
L 222.264633 138.561937 
L 222.372439 138.541369 
L 222.284944 138.547884 
L 222.378688 138.536585 
L 224.000459 138.615452 
L 224.117639 138.613957 
L 225.326937 138.72382 
L 225.448804 138.743209 
L 226.326873 138.720599 
L 226.326873 138.720599 
" clip-path="url(#p52d5c78bb6)" style="fill: none; stroke: #4477aa; stroke-linecap: square"/>
   </g>
   <g id="LineCollection_1">
    <path d="M 38.837311 149.13 
L 38.837311 52.11 
" clip-path="url(#p52d5c78bb6)" style="fill: none; stroke-dasharray: 3.7,1.6; stroke-dashoffset: 0; stroke: #000000"/>
    <path d="M 62.273311 149.13 
L 62.273311 52.11 
" clip-path="url(#p52d5c78bb6)" style="fill: none; stroke-dasharray: 3.7,1.6; stroke-dashoffset: 0; stroke: #000000"/>
    <path d="M 62.429551 149.13 
L 62.429551 52.11 
" clip-path="url(#p52d5c78bb6)" style="fill: none; stroke-dasharray: 3.7,1.6; stroke-dashoffset: 0; stroke: #000000"/>
    <path d="M 85.865551 149.13 
L 85.865551 52.11 
" clip-path="url(#p52d5c78bb6)" style="fill: none; stroke-dasharray: 3.7,1.6; stroke-dashoffset: 0; stroke: #000000"/>
   </g>
   <g id="patch_3">
    <path d="M 31.025311 149.13 
L 31.025311 3.6 
" style="fill: none; stroke: #000000; stroke-width: 0.5; stroke-linejoin: miter; stroke-linecap: square"/>
   </g>
   <g id="patch_4">
    <path d="M 226.325311 149.13 
L 226.325311 3.6 
" style="fill: none; stroke: #000000; stroke-width: 0.5; stroke-linejoin: miter; stroke-linecap: square"/>
   </g>
   <g id="patch_5">
    <path d="M 31.025311 149.13 
L 226.325311 149.13 
" style="fill: none; stroke: #000000; stroke-width: 0.5; stroke-linejoin: miter; stroke-linecap: square"/>
   </g>
   <g id="patch_6">
    <path d="M 31.025311 3.6 
L 226.325311 3.6 
" style="fill: none; stroke: #000000; stroke-width: 0.5; stroke-linejoin: miter; stroke-linecap: square"/>
   </g>
  </g>
 </g>
 <defs>
  <clipPath id="p52d5c78bb6">
   <rect x="31.025311" y="3.6" width="195.3" height="145.53"/>
  </clipPath>
 </defs>
</svg>
