<?xml version="1.0" encoding="utf-8" standalone="no"?>
<!DOCTYPE svg PUBLIC "-//W3C//DTD SVG 1.1//EN"
  "http://www.w3.org/Graphics/SVG/1.1/DTD/svg11.dtd">
<svg xmlns:xlink="http://www.w3.org/1999/xlink" width="232.692719pt" height="195.730472pt" viewBox="0 0 232.692719 195.730472" xmlns="http://www.w3.org/2000/svg" version="1.1">
 <metadata>
  <rdf:RDF xmlns:dc="http://purl.org/dc/elements/1.1/" xmlns:cc="http://creativecommons.org/ns#" xmlns:rdf="http://www.w3.org/1999/02/22-rdf-syntax-ns#">
   <cc:Work>
    <dc:type rdf:resource="http://purl.org/dc/dcmitype/StillImage"/>
    <dc:date>2025-05-13T10:32:32.302814</dc:date>
    <dc:format>image/svg+xml</dc:format>
    <dc:creator>
     <cc:Agent>
      <dc:title>Matplotlib v3.9.2, https://matplotlib.org/</dc:title>
     </cc:Agent>
    </dc:creator>
   </cc:Work>
  </rdf:RDF>
 </metadata>
 <defs>
  <style type="text/css">*{stroke-linejoin: round; stroke-linecap: butt}</style>
 </defs>
 <g id="figure_1">
  <g id="patch_1">
   <path d="M 0 195.730472 
L 232.692719 195.730472 
L 232.692719 0 
L 0 0 
L 0 195.730472 
z
" style="fill: none"/>
  </g>
  <g id="axes_1">
   <g id="patch_2">
    <path d="M 33.792719 166.919119 
L 229.092719 166.919119 
L 229.092719 21.389119 
L 33.792719 21.389119 
L 33.792719 166.919119 
z
" style="fill: none"/>
   </g>
   <g id="matplotlib.axis_1">
    <g id="xtick_1">
     <g id="line2d_1">
      <path d="M 42.669992 166.919119 
L 42.669992 21.389119 
" clip-path="url(#peda0b70d0c)" style="fill: none; stroke-dasharray: 1.85,0.8; stroke-dashoffset: 0; stroke: #000000; stroke-opacity: 0.5; stroke-width: 0.5"/>
     </g>
     <g id="line2d_2">
      <defs>
       <path id="macf15c666d" d="M 0 0 
L 0 -3 
" style="stroke: #000000; stroke-width: 0.5"/>
      </defs>
      <g>
       <use xlink:href="#macf15c666d" x="42.669992" y="166.919119" style="stroke: #000000; stroke-width: 0.5"/>
      </g>
     </g>
     <g id="line2d_3">
      <defs>
       <path id="mbe4ab6ff8d" d="M 0 0 
L 0 3 
" style="stroke: #000000; stroke-width: 0.5"/>
      </defs>
      <g>
       <use xlink:href="#mbe4ab6ff8d" x="42.669992" y="21.389119" style="stroke: #000000; stroke-width: 0.5"/>
      </g>
     </g>
     <g id="text_1">
      <!-- $\mathdefault{0}$ -->
      <g transform="translate(40.179324 177.337617) scale(0.1 -0.1)">
       <defs>
        <path id="CMR17-30" d="M 2688 2025 
C 2688 2416 2682 3080 2413 3591 
C 2176 4039 1798 4198 1466 4198 
C 1158 4198 768 4058 525 3597 
C 269 3118 243 2524 243 2025 
C 243 1661 250 1106 448 619 
C 723 -39 1216 -128 1466 -128 
C 1760 -128 2208 -7 2470 600 
C 2662 1042 2688 1559 2688 2025 
z
M 1466 -26 
C 1056 -26 813 325 723 812 
C 653 1188 653 1738 653 2096 
C 653 2588 653 2997 736 3387 
C 858 3929 1216 4096 1466 4096 
C 1728 4096 2067 3923 2189 3400 
C 2272 3036 2278 2607 2278 2096 
C 2278 1680 2278 1169 2202 792 
C 2067 95 1690 -26 1466 -26 
z
" transform="scale(0.015625)"/>
       </defs>
       <use xlink:href="#CMR17-30" transform="scale(0.996264)"/>
      </g>
     </g>
    </g>
    <g id="xtick_2">
     <g id="line2d_4">
      <path d="M 82.124537 166.919119 
L 82.124537 21.389119 
" clip-path="url(#peda0b70d0c)" style="fill: none; stroke-dasharray: 1.85,0.8; stroke-dashoffset: 0; stroke: #000000; stroke-opacity: 0.5; stroke-width: 0.5"/>
     </g>
     <g id="line2d_5">
      <g>
       <use xlink:href="#macf15c666d" x="82.124537" y="166.919119" style="stroke: #000000; stroke-width: 0.5"/>
      </g>
     </g>
     <g id="line2d_6">
      <g>
       <use xlink:href="#mbe4ab6ff8d" x="82.124537" y="21.389119" style="stroke: #000000; stroke-width: 0.5"/>
      </g>
     </g>
     <g id="text_2">
      <!-- $\mathdefault{2}$ -->
      <g transform="translate(79.63387 177.337617) scale(0.1 -0.1)">
       <defs>
        <path id="CMR17-32" d="M 2669 989 
L 2554 989 
C 2490 536 2438 459 2413 420 
C 2381 369 1920 369 1830 369 
L 602 369 
C 832 619 1280 1072 1824 1597 
C 2214 1967 2669 2402 2669 3035 
C 2669 3790 2067 4224 1395 4224 
C 691 4224 262 3604 262 3030 
C 262 2780 448 2748 525 2748 
C 589 2748 781 2787 781 3010 
C 781 3207 614 3264 525 3264 
C 486 3264 448 3258 422 3245 
C 544 3790 915 4058 1306 4058 
C 1862 4058 2227 3617 2227 3035 
C 2227 2479 1901 2000 1536 1584 
L 262 146 
L 262 0 
L 2515 0 
L 2669 989 
z
" transform="scale(0.015625)"/>
       </defs>
       <use xlink:href="#CMR17-32" transform="scale(0.996264)"/>
      </g>
     </g>
    </g>
    <g id="xtick_3">
     <g id="line2d_7">
      <path d="M 121.579083 166.919119 
L 121.579083 21.389119 
" clip-path="url(#peda0b70d0c)" style="fill: none; stroke-dasharray: 1.85,0.8; stroke-dashoffset: 0; stroke: #000000; stroke-opacity: 0.5; stroke-width: 0.5"/>
     </g>
     <g id="line2d_8">
      <g>
       <use xlink:href="#macf15c666d" x="121.579083" y="166.919119" style="stroke: #000000; stroke-width: 0.5"/>
      </g>
     </g>
     <g id="line2d_9">
      <g>
       <use xlink:href="#mbe4ab6ff8d" x="121.579083" y="21.389119" style="stroke: #000000; stroke-width: 0.5"/>
      </g>
     </g>
     <g id="text_3">
      <!-- $\mathdefault{4}$ -->
      <g transform="translate(119.088415 177.337617) scale(0.1 -0.1)">
       <defs>
        <path id="CMR17-34" d="M 2150 4122 
C 2150 4256 2144 4256 2029 4256 
L 128 1254 
L 128 1088 
L 1779 1088 
L 1779 457 
C 1779 224 1766 160 1318 160 
L 1197 160 
L 1197 0 
C 1402 0 1747 0 1965 0 
C 2182 0 2528 0 2733 0 
L 2733 160 
L 2611 160 
C 2163 160 2150 224 2150 457 
L 2150 1088 
L 2803 1088 
L 2803 1254 
L 2150 1254 
L 2150 4122 
z
M 1798 3703 
L 1798 1254 
L 256 1254 
L 1798 3703 
z
" transform="scale(0.015625)"/>
       </defs>
       <use xlink:href="#CMR17-34" transform="scale(0.996264)"/>
      </g>
     </g>
    </g>
    <g id="xtick_4">
     <g id="line2d_10">
      <path d="M 161.033628 166.919119 
L 161.033628 21.389119 
" clip-path="url(#peda0b70d0c)" style="fill: none; stroke-dasharray: 1.85,0.8; stroke-dashoffset: 0; stroke: #000000; stroke-opacity: 0.5; stroke-width: 0.5"/>
     </g>
     <g id="line2d_11">
      <g>
       <use xlink:href="#macf15c666d" x="161.033628" y="166.919119" style="stroke: #000000; stroke-width: 0.5"/>
      </g>
     </g>
     <g id="line2d_12">
      <g>
       <use xlink:href="#mbe4ab6ff8d" x="161.033628" y="21.389119" style="stroke: #000000; stroke-width: 0.5"/>
      </g>
     </g>
     <g id="text_4">
      <!-- $\mathdefault{6}$ -->
      <g transform="translate(158.542961 177.337617) scale(0.1 -0.1)">
       <defs>
        <path id="CMR17-36" d="M 678 2176 
C 678 3690 1395 4032 1811 4032 
C 1946 4032 2272 4009 2400 3776 
C 2298 3776 2106 3776 2106 3553 
C 2106 3381 2246 3323 2336 3323 
C 2394 3323 2566 3348 2566 3560 
C 2566 3954 2246 4179 1805 4179 
C 1043 4179 243 3390 243 1984 
C 243 253 966 -128 1478 -128 
C 2099 -128 2688 427 2688 1283 
C 2688 2081 2170 2662 1517 2662 
C 1126 2662 838 2407 678 1960 
L 678 2176 
z
M 1478 25 
C 691 25 691 1200 691 1436 
C 691 1896 909 2560 1504 2560 
C 1613 2560 1926 2560 2138 2120 
C 2253 1870 2253 1609 2253 1289 
C 2253 944 2253 690 2118 434 
C 1978 171 1773 25 1478 25 
z
" transform="scale(0.015625)"/>
       </defs>
       <use xlink:href="#CMR17-36" transform="scale(0.996264)"/>
      </g>
     </g>
    </g>
    <g id="xtick_5">
     <g id="line2d_13">
      <path d="M 200.488174 166.919119 
L 200.488174 21.389119 
" clip-path="url(#peda0b70d0c)" style="fill: none; stroke-dasharray: 1.85,0.8; stroke-dashoffset: 0; stroke: #000000; stroke-opacity: 0.5; stroke-width: 0.5"/>
     </g>
     <g id="line2d_14">
      <g>
       <use xlink:href="#macf15c666d" x="200.488174" y="166.919119" style="stroke: #000000; stroke-width: 0.5"/>
      </g>
     </g>
     <g id="line2d_15">
      <g>
       <use xlink:href="#mbe4ab6ff8d" x="200.488174" y="21.389119" style="stroke: #000000; stroke-width: 0.5"/>
      </g>
     </g>
     <g id="text_5">
      <!-- $\mathdefault{8}$ -->
      <g transform="translate(197.997506 177.337617) scale(0.1 -0.1)">
       <defs>
        <path id="CMR17-38" d="M 1741 2264 
C 2144 2467 2554 2773 2554 3263 
C 2554 3841 1990 4179 1472 4179 
C 890 4179 378 3759 378 3180 
C 378 3021 416 2747 666 2505 
C 730 2442 998 2251 1171 2130 
C 883 1983 211 1634 211 934 
C 211 279 838 -128 1459 -128 
C 2144 -128 2720 362 2720 1010 
C 2720 1590 2330 1857 2074 2029 
L 1741 2264 
z
M 902 2822 
C 851 2854 595 3051 595 3351 
C 595 3739 998 4032 1459 4032 
C 1965 4032 2336 3676 2336 3262 
C 2336 2669 1670 2331 1638 2331 
C 1632 2331 1626 2331 1574 2370 
L 902 2822 
z
M 2080 1519 
C 2176 1449 2483 1240 2483 851 
C 2483 381 2010 25 1472 25 
C 890 25 448 438 448 940 
C 448 1443 838 1862 1280 2060 
L 2080 1519 
z
" transform="scale(0.015625)"/>
       </defs>
       <use xlink:href="#CMR17-38" transform="scale(0.996264)"/>
      </g>
     </g>
    </g>
    <g id="xtick_6">
     <g id="line2d_16">
      <defs>
       <path id="m7f0cea96a8" d="M 0 0 
L 0 -1.5 
" style="stroke: #000000; stroke-width: 0.5"/>
      </defs>
      <g>
       <use xlink:href="#m7f0cea96a8" x="52.533628" y="166.919119" style="stroke: #000000; stroke-width: 0.5"/>
      </g>
     </g>
     <g id="line2d_17">
      <defs>
       <path id="m4f247e46d5" d="M 0 0 
L 0 1.5 
" style="stroke: #000000; stroke-width: 0.5"/>
      </defs>
      <g>
       <use xlink:href="#m4f247e46d5" x="52.533628" y="21.389119" style="stroke: #000000; stroke-width: 0.5"/>
      </g>
     </g>
    </g>
    <g id="xtick_7">
     <g id="line2d_18">
      <g>
       <use xlink:href="#m7f0cea96a8" x="62.397265" y="166.919119" style="stroke: #000000; stroke-width: 0.5"/>
      </g>
     </g>
     <g id="line2d_19">
      <g>
       <use xlink:href="#m4f247e46d5" x="62.397265" y="21.389119" style="stroke: #000000; stroke-width: 0.5"/>
      </g>
     </g>
    </g>
    <g id="xtick_8">
     <g id="line2d_20">
      <g>
       <use xlink:href="#m7f0cea96a8" x="72.260901" y="166.919119" style="stroke: #000000; stroke-width: 0.5"/>
      </g>
     </g>
     <g id="line2d_21">
      <g>
       <use xlink:href="#m4f247e46d5" x="72.260901" y="21.389119" style="stroke: #000000; stroke-width: 0.5"/>
      </g>
     </g>
    </g>
    <g id="xtick_9">
     <g id="line2d_22">
      <g>
       <use xlink:href="#m7f0cea96a8" x="91.988174" y="166.919119" style="stroke: #000000; stroke-width: 0.5"/>
      </g>
     </g>
     <g id="line2d_23">
      <g>
       <use xlink:href="#m4f247e46d5" x="91.988174" y="21.389119" style="stroke: #000000; stroke-width: 0.5"/>
      </g>
     </g>
    </g>
    <g id="xtick_10">
     <g id="line2d_24">
      <g>
       <use xlink:href="#m7f0cea96a8" x="101.85181" y="166.919119" style="stroke: #000000; stroke-width: 0.5"/>
      </g>
     </g>
     <g id="line2d_25">
      <g>
       <use xlink:href="#m4f247e46d5" x="101.85181" y="21.389119" style="stroke: #000000; stroke-width: 0.5"/>
      </g>
     </g>
    </g>
    <g id="xtick_11">
     <g id="line2d_26">
      <g>
       <use xlink:href="#m7f0cea96a8" x="111.715446" y="166.919119" style="stroke: #000000; stroke-width: 0.5"/>
      </g>
     </g>
     <g id="line2d_27">
      <g>
       <use xlink:href="#m4f247e46d5" x="111.715446" y="21.389119" style="stroke: #000000; stroke-width: 0.5"/>
      </g>
     </g>
    </g>
    <g id="xtick_12">
     <g id="line2d_28">
      <g>
       <use xlink:href="#m7f0cea96a8" x="131.442719" y="166.919119" style="stroke: #000000; stroke-width: 0.5"/>
      </g>
     </g>
     <g id="line2d_29">
      <g>
       <use xlink:href="#m4f247e46d5" x="131.442719" y="21.389119" style="stroke: #000000; stroke-width: 0.5"/>
      </g>
     </g>
    </g>
    <g id="xtick_13">
     <g id="line2d_30">
      <g>
       <use xlink:href="#m7f0cea96a8" x="141.306355" y="166.919119" style="stroke: #000000; stroke-width: 0.5"/>
      </g>
     </g>
     <g id="line2d_31">
      <g>
       <use xlink:href="#m4f247e46d5" x="141.306355" y="21.389119" style="stroke: #000000; stroke-width: 0.5"/>
      </g>
     </g>
    </g>
    <g id="xtick_14">
     <g id="line2d_32">
      <g>
       <use xlink:href="#m7f0cea96a8" x="151.169992" y="166.919119" style="stroke: #000000; stroke-width: 0.5"/>
      </g>
     </g>
     <g id="line2d_33">
      <g>
       <use xlink:href="#m4f247e46d5" x="151.169992" y="21.389119" style="stroke: #000000; stroke-width: 0.5"/>
      </g>
     </g>
    </g>
    <g id="xtick_15">
     <g id="line2d_34">
      <g>
       <use xlink:href="#m7f0cea96a8" x="170.897265" y="166.919119" style="stroke: #000000; stroke-width: 0.5"/>
      </g>
     </g>
     <g id="line2d_35">
      <g>
       <use xlink:href="#m4f247e46d5" x="170.897265" y="21.389119" style="stroke: #000000; stroke-width: 0.5"/>
      </g>
     </g>
    </g>
    <g id="xtick_16">
     <g id="line2d_36">
      <g>
       <use xlink:href="#m7f0cea96a8" x="180.760901" y="166.919119" style="stroke: #000000; stroke-width: 0.5"/>
      </g>
     </g>
     <g id="line2d_37">
      <g>
       <use xlink:href="#m4f247e46d5" x="180.760901" y="21.389119" style="stroke: #000000; stroke-width: 0.5"/>
      </g>
     </g>
    </g>
    <g id="xtick_17">
     <g id="line2d_38">
      <g>
       <use xlink:href="#m7f0cea96a8" x="190.624537" y="166.919119" style="stroke: #000000; stroke-width: 0.5"/>
      </g>
     </g>
     <g id="line2d_39">
      <g>
       <use xlink:href="#m4f247e46d5" x="190.624537" y="21.389119" style="stroke: #000000; stroke-width: 0.5"/>
      </g>
     </g>
    </g>
    <g id="xtick_18">
     <g id="line2d_40">
      <g>
       <use xlink:href="#m7f0cea96a8" x="210.35181" y="166.919119" style="stroke: #000000; stroke-width: 0.5"/>
      </g>
     </g>
     <g id="line2d_41">
      <g>
       <use xlink:href="#m4f247e46d5" x="210.35181" y="21.389119" style="stroke: #000000; stroke-width: 0.5"/>
      </g>
     </g>
    </g>
    <g id="xtick_19">
     <g id="line2d_42">
      <g>
       <use xlink:href="#m7f0cea96a8" x="220.215446" y="166.919119" style="stroke: #000000; stroke-width: 0.5"/>
      </g>
     </g>
     <g id="line2d_43">
      <g>
       <use xlink:href="#m4f247e46d5" x="220.215446" y="21.389119" style="stroke: #000000; stroke-width: 0.5"/>
      </g>
     </g>
    </g>
    <g id="text_6">
     <!-- $i$ -->
     <g transform="translate(129.72659 190.193294) scale(0.1 -0.1)">
      <defs>
       <path id="CMMI12-69" d="M 1811 913 
C 1811 945 1786 971 1747 971 
C 1690 971 1683 952 1651 843 
C 1485 262 1222 64 1011 64 
C 934 64 845 83 845 275 
C 845 447 922 639 992 830 
L 1440 2018 
C 1459 2069 1504 2184 1504 2305 
C 1504 2574 1312 2816 998 2816 
C 410 2816 173 1890 173 1839 
C 173 1814 198 1782 243 1782 
C 301 1782 307 1807 333 1896 
C 486 2428 730 2682 979 2682 
C 1037 2682 1146 2682 1146 2478 
C 1146 2312 1062 2101 1011 1961 
L 563 773 
C 525 671 486 568 486 453 
C 486 166 685 -64 992 -64 
C 1581 -64 1811 869 1811 913 
z
M 1760 4013 
C 1760 4109 1683 4224 1542 4224 
C 1395 4224 1229 4083 1229 3917 
C 1229 3758 1363 3707 1440 3707 
C 1613 3707 1760 3873 1760 4013 
z
" transform="scale(0.015625)"/>
      </defs>
      <use xlink:href="#CMMI12-69" transform="scale(0.996264)"/>
     </g>
    </g>
   </g>
   <g id="matplotlib.axis_2">
    <g id="ytick_1">
     <g id="line2d_44">
      <path d="M 33.792719 160.32889 
L 229.092719 160.32889 
" clip-path="url(#peda0b70d0c)" style="fill: none; stroke-dasharray: 1.85,0.8; stroke-dashoffset: 0; stroke: #000000; stroke-opacity: 0.5; stroke-width: 0.5"/>
     </g>
     <g id="line2d_45">
      <defs>
       <path id="mebcbbc9c27" d="M 0 0 
L 3 0 
" style="stroke: #000000; stroke-width: 0.5"/>
      </defs>
      <g>
       <use xlink:href="#mebcbbc9c27" x="33.792719" y="160.32889" style="stroke: #000000; stroke-width: 0.5"/>
      </g>
     </g>
     <g id="line2d_46">
      <defs>
       <path id="mf47771242c" d="M 0 0 
L -3 0 
" style="stroke: #000000; stroke-width: 0.5"/>
      </defs>
      <g>
       <use xlink:href="#mf47771242c" x="229.092719" y="160.32889" style="stroke: #000000; stroke-width: 0.5"/>
      </g>
     </g>
     <g id="text_7">
      <!-- $\mathdefault{0.0}$ -->
      <g transform="translate(17.56264 163.78814) scale(0.1 -0.1)">
       <defs>
        <path id="CMMI12-3a" d="M 1178 307 
C 1178 492 1024 619 870 619 
C 685 619 557 466 557 313 
C 557 128 710 0 864 0 
C 1050 0 1178 153 1178 307 
z
" transform="scale(0.015625)"/>
       </defs>
       <use xlink:href="#CMR17-30" transform="scale(0.996264)"/>
       <use xlink:href="#CMMI12-3a" transform="translate(45.690477 0) scale(0.996264)"/>
       <use xlink:href="#CMR17-30" transform="translate(72.787654 0) scale(0.996264)"/>
      </g>
     </g>
    </g>
    <g id="ytick_2">
     <g id="line2d_47">
      <path d="M 33.792719 133.751251 
L 229.092719 133.751251 
" clip-path="url(#peda0b70d0c)" style="fill: none; stroke-dasharray: 1.85,0.8; stroke-dashoffset: 0; stroke: #000000; stroke-opacity: 0.5; stroke-width: 0.5"/>
     </g>
     <g id="line2d_48">
      <g>
       <use xlink:href="#mebcbbc9c27" x="33.792719" y="133.751251" style="stroke: #000000; stroke-width: 0.5"/>
      </g>
     </g>
     <g id="line2d_49">
      <g>
       <use xlink:href="#mf47771242c" x="229.092719" y="133.751251" style="stroke: #000000; stroke-width: 0.5"/>
      </g>
     </g>
     <g id="text_8">
      <!-- $\mathdefault{0.2}$ -->
      <g transform="translate(17.56264 137.2105) scale(0.1 -0.1)">
       <use xlink:href="#CMR17-30" transform="scale(0.996264)"/>
       <use xlink:href="#CMMI12-3a" transform="translate(45.690477 0) scale(0.996264)"/>
       <use xlink:href="#CMR17-32" transform="translate(72.787654 0) scale(0.996264)"/>
      </g>
     </g>
    </g>
    <g id="ytick_3">
     <g id="line2d_50">
      <path d="M 33.792719 107.173612 
L 229.092719 107.173612 
" clip-path="url(#peda0b70d0c)" style="fill: none; stroke-dasharray: 1.85,0.8; stroke-dashoffset: 0; stroke: #000000; stroke-opacity: 0.5; stroke-width: 0.5"/>
     </g>
     <g id="line2d_51">
      <g>
       <use xlink:href="#mebcbbc9c27" x="33.792719" y="107.173612" style="stroke: #000000; stroke-width: 0.5"/>
      </g>
     </g>
     <g id="line2d_52">
      <g>
       <use xlink:href="#mf47771242c" x="229.092719" y="107.173612" style="stroke: #000000; stroke-width: 0.5"/>
      </g>
     </g>
     <g id="text_9">
      <!-- $\mathdefault{0.4}$ -->
      <g transform="translate(17.56264 110.632861) scale(0.1 -0.1)">
       <use xlink:href="#CMR17-30" transform="scale(0.996264)"/>
       <use xlink:href="#CMMI12-3a" transform="translate(45.690477 0) scale(0.996264)"/>
       <use xlink:href="#CMR17-34" transform="translate(72.787654 0) scale(0.996264)"/>
      </g>
     </g>
    </g>
    <g id="ytick_4">
     <g id="line2d_53">
      <path d="M 33.792719 80.595972 
L 229.092719 80.595972 
" clip-path="url(#peda0b70d0c)" style="fill: none; stroke-dasharray: 1.85,0.8; stroke-dashoffset: 0; stroke: #000000; stroke-opacity: 0.5; stroke-width: 0.5"/>
     </g>
     <g id="line2d_54">
      <g>
       <use xlink:href="#mebcbbc9c27" x="33.792719" y="80.595972" style="stroke: #000000; stroke-width: 0.5"/>
      </g>
     </g>
     <g id="line2d_55">
      <g>
       <use xlink:href="#mf47771242c" x="229.092719" y="80.595972" style="stroke: #000000; stroke-width: 0.5"/>
      </g>
     </g>
     <g id="text_10">
      <!-- $\mathdefault{0.6}$ -->
      <g transform="translate(17.56264 84.055222) scale(0.1 -0.1)">
       <use xlink:href="#CMR17-30" transform="scale(0.996264)"/>
       <use xlink:href="#CMMI12-3a" transform="translate(45.690477 0) scale(0.996264)"/>
       <use xlink:href="#CMR17-36" transform="translate(72.787654 0) scale(0.996264)"/>
      </g>
     </g>
    </g>
    <g id="ytick_5">
     <g id="line2d_56">
      <path d="M 33.792719 54.018333 
L 229.092719 54.018333 
" clip-path="url(#peda0b70d0c)" style="fill: none; stroke-dasharray: 1.85,0.8; stroke-dashoffset: 0; stroke: #000000; stroke-opacity: 0.5; stroke-width: 0.5"/>
     </g>
     <g id="line2d_57">
      <g>
       <use xlink:href="#mebcbbc9c27" x="33.792719" y="54.018333" style="stroke: #000000; stroke-width: 0.5"/>
      </g>
     </g>
     <g id="line2d_58">
      <g>
       <use xlink:href="#mf47771242c" x="229.092719" y="54.018333" style="stroke: #000000; stroke-width: 0.5"/>
      </g>
     </g>
     <g id="text_11">
      <!-- $\mathdefault{0.8}$ -->
      <g transform="translate(17.56264 57.477582) scale(0.1 -0.1)">
       <use xlink:href="#CMR17-30" transform="scale(0.996264)"/>
       <use xlink:href="#CMMI12-3a" transform="translate(45.690477 0) scale(0.996264)"/>
       <use xlink:href="#CMR17-38" transform="translate(72.787654 0) scale(0.996264)"/>
      </g>
     </g>
    </g>
    <g id="ytick_6">
     <g id="line2d_59">
      <path d="M 33.792719 27.440694 
L 229.092719 27.440694 
" clip-path="url(#peda0b70d0c)" style="fill: none; stroke-dasharray: 1.85,0.8; stroke-dashoffset: 0; stroke: #000000; stroke-opacity: 0.5; stroke-width: 0.5"/>
     </g>
     <g id="line2d_60">
      <g>
       <use xlink:href="#mebcbbc9c27" x="33.792719" y="27.440694" style="stroke: #000000; stroke-width: 0.5"/>
      </g>
     </g>
     <g id="line2d_61">
      <g>
       <use xlink:href="#mf47771242c" x="229.092719" y="27.440694" style="stroke: #000000; stroke-width: 0.5"/>
      </g>
     </g>
     <g id="text_12">
      <!-- $\mathdefault{1.0}$ -->
      <g transform="translate(17.56264 30.899943) scale(0.1 -0.1)">
       <defs>
        <path id="CMR17-31" d="M 1702 4058 
C 1702 4192 1696 4192 1606 4192 
C 1357 3916 979 3827 621 3827 
C 602 3827 570 3827 563 3808 
C 557 3795 557 3782 557 3648 
C 755 3648 1088 3686 1344 3839 
L 1344 461 
C 1344 236 1331 160 781 160 
L 589 160 
L 589 0 
C 896 0 1216 0 1523 0 
C 1830 0 2150 0 2458 0 
L 2458 160 
L 2266 160 
C 1715 160 1702 230 1702 458 
L 1702 4058 
z
" transform="scale(0.015625)"/>
       </defs>
       <use xlink:href="#CMR17-31" transform="scale(0.996264)"/>
       <use xlink:href="#CMMI12-3a" transform="translate(45.690477 0) scale(0.996264)"/>
       <use xlink:href="#CMR17-30" transform="translate(72.787654 0) scale(0.996264)"/>
      </g>
     </g>
    </g>
    <g id="ytick_7">
     <g id="line2d_62">
      <defs>
       <path id="mccbc914fdc" d="M 0 0 
L 1.5 0 
" style="stroke: #000000; stroke-width: 0.5"/>
      </defs>
      <g>
       <use xlink:href="#mccbc914fdc" x="33.792719" y="153.684481" style="stroke: #000000; stroke-width: 0.5"/>
      </g>
     </g>
     <g id="line2d_63">
      <defs>
       <path id="me61efebcea" d="M 0 0 
L -1.5 0 
" style="stroke: #000000; stroke-width: 0.5"/>
      </defs>
      <g>
       <use xlink:href="#me61efebcea" x="229.092719" y="153.684481" style="stroke: #000000; stroke-width: 0.5"/>
      </g>
     </g>
    </g>
    <g id="ytick_8">
     <g id="line2d_64">
      <g>
       <use xlink:href="#mccbc914fdc" x="33.792719" y="147.040071" style="stroke: #000000; stroke-width: 0.5"/>
      </g>
     </g>
     <g id="line2d_65">
      <g>
       <use xlink:href="#me61efebcea" x="229.092719" y="147.040071" style="stroke: #000000; stroke-width: 0.5"/>
      </g>
     </g>
    </g>
    <g id="ytick_9">
     <g id="line2d_66">
      <g>
       <use xlink:href="#mccbc914fdc" x="33.792719" y="140.395661" style="stroke: #000000; stroke-width: 0.5"/>
      </g>
     </g>
     <g id="line2d_67">
      <g>
       <use xlink:href="#me61efebcea" x="229.092719" y="140.395661" style="stroke: #000000; stroke-width: 0.5"/>
      </g>
     </g>
    </g>
    <g id="ytick_10">
     <g id="line2d_68">
      <g>
       <use xlink:href="#mccbc914fdc" x="33.792719" y="127.106841" style="stroke: #000000; stroke-width: 0.5"/>
      </g>
     </g>
     <g id="line2d_69">
      <g>
       <use xlink:href="#me61efebcea" x="229.092719" y="127.106841" style="stroke: #000000; stroke-width: 0.5"/>
      </g>
     </g>
    </g>
    <g id="ytick_11">
     <g id="line2d_70">
      <g>
       <use xlink:href="#mccbc914fdc" x="33.792719" y="120.462431" style="stroke: #000000; stroke-width: 0.5"/>
      </g>
     </g>
     <g id="line2d_71">
      <g>
       <use xlink:href="#me61efebcea" x="229.092719" y="120.462431" style="stroke: #000000; stroke-width: 0.5"/>
      </g>
     </g>
    </g>
    <g id="ytick_12">
     <g id="line2d_72">
      <g>
       <use xlink:href="#mccbc914fdc" x="33.792719" y="113.818022" style="stroke: #000000; stroke-width: 0.5"/>
      </g>
     </g>
     <g id="line2d_73">
      <g>
       <use xlink:href="#me61efebcea" x="229.092719" y="113.818022" style="stroke: #000000; stroke-width: 0.5"/>
      </g>
     </g>
    </g>
    <g id="ytick_13">
     <g id="line2d_74">
      <g>
       <use xlink:href="#mccbc914fdc" x="33.792719" y="100.529202" style="stroke: #000000; stroke-width: 0.5"/>
      </g>
     </g>
     <g id="line2d_75">
      <g>
       <use xlink:href="#me61efebcea" x="229.092719" y="100.529202" style="stroke: #000000; stroke-width: 0.5"/>
      </g>
     </g>
    </g>
    <g id="ytick_14">
     <g id="line2d_76">
      <g>
       <use xlink:href="#mccbc914fdc" x="33.792719" y="93.884792" style="stroke: #000000; stroke-width: 0.5"/>
      </g>
     </g>
     <g id="line2d_77">
      <g>
       <use xlink:href="#me61efebcea" x="229.092719" y="93.884792" style="stroke: #000000; stroke-width: 0.5"/>
      </g>
     </g>
    </g>
    <g id="ytick_15">
     <g id="line2d_78">
      <g>
       <use xlink:href="#mccbc914fdc" x="33.792719" y="87.240382" style="stroke: #000000; stroke-width: 0.5"/>
      </g>
     </g>
     <g id="line2d_79">
      <g>
       <use xlink:href="#me61efebcea" x="229.092719" y="87.240382" style="stroke: #000000; stroke-width: 0.5"/>
      </g>
     </g>
    </g>
    <g id="ytick_16">
     <g id="line2d_80">
      <g>
       <use xlink:href="#mccbc914fdc" x="33.792719" y="73.951563" style="stroke: #000000; stroke-width: 0.5"/>
      </g>
     </g>
     <g id="line2d_81">
      <g>
       <use xlink:href="#me61efebcea" x="229.092719" y="73.951563" style="stroke: #000000; stroke-width: 0.5"/>
      </g>
     </g>
    </g>
    <g id="ytick_17">
     <g id="line2d_82">
      <g>
       <use xlink:href="#mccbc914fdc" x="33.792719" y="67.307153" style="stroke: #000000; stroke-width: 0.5"/>
      </g>
     </g>
     <g id="line2d_83">
      <g>
       <use xlink:href="#me61efebcea" x="229.092719" y="67.307153" style="stroke: #000000; stroke-width: 0.5"/>
      </g>
     </g>
    </g>
    <g id="ytick_18">
     <g id="line2d_84">
      <g>
       <use xlink:href="#mccbc914fdc" x="33.792719" y="60.662743" style="stroke: #000000; stroke-width: 0.5"/>
      </g>
     </g>
     <g id="line2d_85">
      <g>
       <use xlink:href="#me61efebcea" x="229.092719" y="60.662743" style="stroke: #000000; stroke-width: 0.5"/>
      </g>
     </g>
    </g>
    <g id="ytick_19">
     <g id="line2d_86">
      <g>
       <use xlink:href="#mccbc914fdc" x="33.792719" y="47.373923" style="stroke: #000000; stroke-width: 0.5"/>
      </g>
     </g>
     <g id="line2d_87">
      <g>
       <use xlink:href="#me61efebcea" x="229.092719" y="47.373923" style="stroke: #000000; stroke-width: 0.5"/>
      </g>
     </g>
    </g>
    <g id="ytick_20">
     <g id="line2d_88">
      <g>
       <use xlink:href="#mccbc914fdc" x="33.792719" y="40.729513" style="stroke: #000000; stroke-width: 0.5"/>
      </g>
     </g>
     <g id="line2d_89">
      <g>
       <use xlink:href="#me61efebcea" x="229.092719" y="40.729513" style="stroke: #000000; stroke-width: 0.5"/>
      </g>
     </g>
    </g>
    <g id="ytick_21">
     <g id="line2d_90">
      <g>
       <use xlink:href="#mccbc914fdc" x="33.792719" y="34.085104" style="stroke: #000000; stroke-width: 0.5"/>
      </g>
     </g>
     <g id="line2d_91">
      <g>
       <use xlink:href="#me61efebcea" x="229.092719" y="34.085104" style="stroke: #000000; stroke-width: 0.5"/>
      </g>
     </g>
    </g>
    <g id="text_13">
     <!-- $\varphi_i$ [$\pi$] -->
     <g transform="translate(11.07198 106.517212) rotate(-90) scale(0.1 -0.1)">
      <defs>
       <path id="CMMI12-27" d="M 1926 280 
C 1818 280 1722 280 1722 312 
C 1722 325 1830 926 1869 1067 
C 2074 1884 2560 2472 3117 2472 
C 3533 2472 3725 2159 3725 1808 
C 3725 1080 2906 280 1926 280 
z
M 1651 -51 
C 1690 -57 1754 -64 1869 -64 
C 2918 -64 3885 945 3885 1954 
C 3885 2344 3712 2816 3174 2816 
C 2253 2816 1862 1519 1504 318 
C 768 458 461 848 461 1276 
C 461 1449 595 2133 966 2592 
C 1037 2676 1037 2689 1037 2702 
C 1037 2753 986 2753 973 2753 
C 800 2753 314 1820 314 1213 
C 314 497 877 107 1395 -7 
L 1062 -1088 
C 1030 -1184 1030 -1196 1030 -1222 
C 1030 -1376 1184 -1376 1197 -1376 
C 1261 -1376 1376 -1351 1427 -1223 
C 1446 -1166 1626 -178 1651 -51 
z
" transform="scale(0.015625)"/>
       <path id="CMR17-5b" d="M 1504 -1600 
L 1504 -1377 
L 902 -1377 
L 902 4544 
L 1504 4544 
L 1504 4767 
L 678 4767 
L 678 -1600 
L 1504 -1600 
z
" transform="scale(0.015625)"/>
       <path id="CMMI12-19" d="M 1658 2408 
L 2381 2408 
C 2208 1692 2099 1226 2099 716 
C 2099 626 2099 -64 2362 -64 
C 2496 -64 2611 57 2611 166 
C 2611 197 2611 210 2566 306 
C 2394 747 2394 1296 2394 1341 
C 2394 1379 2394 1832 2528 2408 
L 3245 2408 
C 3328 2408 3539 2408 3539 2612 
C 3539 2752 3418 2752 3302 2752 
L 1197 2752 
C 1050 2752 832 2752 538 2440 
C 371 2254 166 1916 166 1878 
C 166 1840 198 1827 237 1827 
C 282 1827 288 1846 320 1884 
C 653 2408 986 2408 1146 2408 
L 1510 2408 
C 1370 1929 1210 1373 685 256 
C 634 154 634 140 634 102 
C 634 -32 749 -64 806 -64 
C 992 -64 1043 102 1120 370 
C 1222 696 1222 709 1286 964 
L 1658 2408 
z
" transform="scale(0.015625)"/>
       <path id="CMR17-5d" d="M 915 4767 
L 90 4767 
L 90 4544 
L 691 4544 
L 691 -1377 
L 90 -1377 
L 90 -1600 
L 915 -1600 
L 915 4767 
z
" transform="scale(0.015625)"/>
      </defs>
      <use xlink:href="#CMMI12-27" transform="scale(0.996264)"/>
      <use xlink:href="#CMMI12-69" transform="translate(63.903064 -14.943915) scale(0.697382)"/>
      <use xlink:href="#CMR17-5b" transform="translate(117.772069 0) scale(0.996264)"/>
      <use xlink:href="#CMMI12-19" transform="translate(142.643128 0) scale(0.996264)"/>
      <use xlink:href="#CMR17-5d" transform="translate(201.553729 0) scale(0.996264)"/>
     </g>
    </g>
   </g>
   <g id="line2d_92">
    <path d="M 42.669992 160.304119 
L 62.397265 160.261436 
L 82.124537 160.246018 
L 101.85181 160.238353 
L 121.579083 160.225773 
L 141.306355 160.223073 
L 161.033628 160.212914 
L 180.760901 160.207185 
L 200.488174 160.191595 
L 220.215446 160.153205 
" clip-path="url(#peda0b70d0c)" style="fill: none; stroke: #00224e; stroke-linecap: square"/>
    <defs>
     <path id="m1a7a3ceaef" d="M 0 1.5 
C 0.397805 1.5 0.77937 1.341951 1.06066 1.06066 
C 1.341951 0.77937 1.5 0.397805 1.5 0 
C 1.5 -0.397805 1.341951 -0.77937 1.06066 -1.06066 
C 0.77937 -1.341951 0.397805 -1.5 0 -1.5 
C -0.397805 -1.5 -0.77937 -1.341951 -1.06066 -1.06066 
C -1.341951 -0.77937 -1.5 -0.397805 -1.5 0 
C -1.5 0.397805 -1.341951 0.77937 -1.06066 1.06066 
C -0.77937 1.341951 -0.397805 1.5 0 1.5 
z
" style="stroke: #00224e"/>
    </defs>
    <g clip-path="url(#peda0b70d0c)">
     <use xlink:href="#m1a7a3ceaef" x="42.669992" y="160.304119" style="fill: #00224e; stroke: #00224e"/>
     <use xlink:href="#m1a7a3ceaef" x="62.397265" y="160.261436" style="fill: #00224e; stroke: #00224e"/>
     <use xlink:href="#m1a7a3ceaef" x="82.124537" y="160.246018" style="fill: #00224e; stroke: #00224e"/>
     <use xlink:href="#m1a7a3ceaef" x="101.85181" y="160.238353" style="fill: #00224e; stroke: #00224e"/>
     <use xlink:href="#m1a7a3ceaef" x="121.579083" y="160.225773" style="fill: #00224e; stroke: #00224e"/>
     <use xlink:href="#m1a7a3ceaef" x="141.306355" y="160.223073" style="fill: #00224e; stroke: #00224e"/>
     <use xlink:href="#m1a7a3ceaef" x="161.033628" y="160.212914" style="fill: #00224e; stroke: #00224e"/>
     <use xlink:href="#m1a7a3ceaef" x="180.760901" y="160.207185" style="fill: #00224e; stroke: #00224e"/>
     <use xlink:href="#m1a7a3ceaef" x="200.488174" y="160.191595" style="fill: #00224e; stroke: #00224e"/>
     <use xlink:href="#m1a7a3ceaef" x="220.215446" y="160.153205" style="fill: #00224e; stroke: #00224e"/>
    </g>
   </g>
   <g id="line2d_93">
    <path d="M 42.669992 160.273926 
L 62.397265 160.183626 
L 82.124537 160.155029 
L 101.85181 160.135993 
L 121.579083 160.115304 
L 141.306355 160.103333 
L 161.033628 160.089342 
L 180.760901 160.071911 
L 200.488174 160.046897 
L 220.215446 159.961133 
" clip-path="url(#peda0b70d0c)" style="fill: none; stroke: #002d68; stroke-linecap: square"/>
    <defs>
     <path id="med4fa5f71f" d="M 0 1.5 
C 0.397805 1.5 0.77937 1.341951 1.06066 1.06066 
C 1.341951 0.77937 1.5 0.397805 1.5 0 
C 1.5 -0.397805 1.341951 -0.77937 1.06066 -1.06066 
C 0.77937 -1.341951 0.397805 -1.5 0 -1.5 
C -0.397805 -1.5 -0.77937 -1.341951 -1.06066 -1.06066 
C -1.341951 -0.77937 -1.5 -0.397805 -1.5 0 
C -1.5 0.397805 -1.341951 0.77937 -1.06066 1.06066 
C -0.77937 1.341951 -0.397805 1.5 0 1.5 
z
" style="stroke: #002d68"/>
    </defs>
    <g clip-path="url(#peda0b70d0c)">
     <use xlink:href="#med4fa5f71f" x="42.669992" y="160.273926" style="fill: #002d68; stroke: #002d68"/>
     <use xlink:href="#med4fa5f71f" x="62.397265" y="160.183626" style="fill: #002d68; stroke: #002d68"/>
     <use xlink:href="#med4fa5f71f" x="82.124537" y="160.155029" style="fill: #002d68; stroke: #002d68"/>
     <use xlink:href="#med4fa5f71f" x="101.85181" y="160.135993" style="fill: #002d68; stroke: #002d68"/>
     <use xlink:href="#med4fa5f71f" x="121.579083" y="160.115304" style="fill: #002d68; stroke: #002d68"/>
     <use xlink:href="#med4fa5f71f" x="141.306355" y="160.103333" style="fill: #002d68; stroke: #002d68"/>
     <use xlink:href="#med4fa5f71f" x="161.033628" y="160.089342" style="fill: #002d68; stroke: #002d68"/>
     <use xlink:href="#med4fa5f71f" x="180.760901" y="160.071911" style="fill: #002d68; stroke: #002d68"/>
     <use xlink:href="#med4fa5f71f" x="200.488174" y="160.046897" style="fill: #002d68; stroke: #002d68"/>
     <use xlink:href="#med4fa5f71f" x="220.215446" y="159.961133" style="fill: #002d68; stroke: #002d68"/>
    </g>
   </g>
   <g id="line2d_94">
    <path d="M 42.669992 160.214561 
L 62.397265 160.029148 
L 82.124537 159.97513 
L 101.85181 159.936209 
L 121.579083 159.893839 
L 141.306355 159.870748 
L 161.033628 159.841648 
L 180.760901 159.805686 
L 200.488174 159.752096 
L 220.215446 159.576716 
" clip-path="url(#peda0b70d0c)" style="fill: none; stroke: #163770; stroke-linecap: square"/>
    <defs>
     <path id="m6b097b8f0b" d="M 0 1.5 
C 0.397805 1.5 0.77937 1.341951 1.06066 1.06066 
C 1.341951 0.77937 1.5 0.397805 1.5 0 
C 1.5 -0.397805 1.341951 -0.77937 1.06066 -1.06066 
C 0.77937 -1.341951 0.397805 -1.5 0 -1.5 
C -0.397805 -1.5 -0.77937 -1.341951 -1.06066 -1.06066 
C -1.341951 -0.77937 -1.5 -0.397805 -1.5 0 
C -1.5 0.397805 -1.341951 0.77937 -1.06066 1.06066 
C -0.77937 1.341951 -0.397805 1.5 0 1.5 
z
" style="stroke: #163770"/>
    </defs>
    <g clip-path="url(#peda0b70d0c)">
     <use xlink:href="#m6b097b8f0b" x="42.669992" y="160.214561" style="fill: #163770; stroke: #163770"/>
     <use xlink:href="#m6b097b8f0b" x="62.397265" y="160.029148" style="fill: #163770; stroke: #163770"/>
     <use xlink:href="#m6b097b8f0b" x="82.124537" y="159.97513" style="fill: #163770; stroke: #163770"/>
     <use xlink:href="#m6b097b8f0b" x="101.85181" y="159.936209" style="fill: #163770; stroke: #163770"/>
     <use xlink:href="#m6b097b8f0b" x="121.579083" y="159.893839" style="fill: #163770; stroke: #163770"/>
     <use xlink:href="#m6b097b8f0b" x="141.306355" y="159.870748" style="fill: #163770; stroke: #163770"/>
     <use xlink:href="#m6b097b8f0b" x="161.033628" y="159.841648" style="fill: #163770; stroke: #163770"/>
     <use xlink:href="#m6b097b8f0b" x="180.760901" y="159.805686" style="fill: #163770; stroke: #163770"/>
     <use xlink:href="#m6b097b8f0b" x="200.488174" y="159.752096" style="fill: #163770; stroke: #163770"/>
     <use xlink:href="#m6b097b8f0b" x="220.215446" y="159.576716" style="fill: #163770; stroke: #163770"/>
    </g>
   </g>
   <g id="line2d_95">
    <path d="M 42.669992 160.153001 
L 62.397265 159.871537 
L 82.124537 159.789468 
L 101.85181 159.731392 
L 121.579083 159.665959 
L 141.306355 159.632328 
L 161.033628 159.583971 
L 180.760901 159.538138 
L 200.488174 159.4483 
L 220.215446 159.189368 
" clip-path="url(#peda0b70d0c)" style="fill: none; stroke: #243c6e; stroke-linecap: square"/>
    <defs>
     <path id="me921e79fa0" d="M 0 1.5 
C 0.397805 1.5 0.77937 1.341951 1.06066 1.06066 
C 1.341951 0.77937 1.5 0.397805 1.5 0 
C 1.5 -0.397805 1.341951 -0.77937 1.06066 -1.06066 
C 0.77937 -1.341951 0.397805 -1.5 0 -1.5 
C -0.397805 -1.5 -0.77937 -1.341951 -1.06066 -1.06066 
C -1.341951 -0.77937 -1.5 -0.397805 -1.5 0 
C -1.5 0.397805 -1.341951 0.77937 -1.06066 1.06066 
C -0.77937 1.341951 -0.397805 1.5 0 1.5 
z
" style="stroke: #243c6e"/>
    </defs>
    <g clip-path="url(#peda0b70d0c)">
     <use xlink:href="#me921e79fa0" x="42.669992" y="160.153001" style="fill: #243c6e; stroke: #243c6e"/>
     <use xlink:href="#me921e79fa0" x="62.397265" y="159.871537" style="fill: #243c6e; stroke: #243c6e"/>
     <use xlink:href="#me921e79fa0" x="82.124537" y="159.789468" style="fill: #243c6e; stroke: #243c6e"/>
     <use xlink:href="#me921e79fa0" x="101.85181" y="159.731392" style="fill: #243c6e; stroke: #243c6e"/>
     <use xlink:href="#me921e79fa0" x="121.579083" y="159.665959" style="fill: #243c6e; stroke: #243c6e"/>
     <use xlink:href="#me921e79fa0" x="141.306355" y="159.632328" style="fill: #243c6e; stroke: #243c6e"/>
     <use xlink:href="#me921e79fa0" x="161.033628" y="159.583971" style="fill: #243c6e; stroke: #243c6e"/>
     <use xlink:href="#me921e79fa0" x="180.760901" y="159.538138" style="fill: #243c6e; stroke: #243c6e"/>
     <use xlink:href="#me921e79fa0" x="200.488174" y="159.4483" style="fill: #243c6e; stroke: #243c6e"/>
     <use xlink:href="#me921e79fa0" x="220.215446" y="159.189368" style="fill: #243c6e; stroke: #243c6e"/>
    </g>
   </g>
   <g id="line2d_96">
    <path d="M 42.669992 160.092159 
L 62.397265 159.726454 
L 82.124537 159.615009 
L 101.85181 159.540038 
L 121.579083 159.451583 
L 141.306355 159.411014 
L 161.033628 159.34761 
L 180.760901 159.285462 
L 200.488174 159.172929 
L 220.215446 158.831097 
" clip-path="url(#peda0b70d0c)" style="fill: none; stroke: #2e416d; stroke-linecap: square"/>
    <defs>
     <path id="m9f98338e90" d="M 0 1.5 
C 0.397805 1.5 0.77937 1.341951 1.06066 1.06066 
C 1.341951 0.77937 1.5 0.397805 1.5 0 
C 1.5 -0.397805 1.341951 -0.77937 1.06066 -1.06066 
C 0.77937 -1.341951 0.397805 -1.5 0 -1.5 
C -0.397805 -1.5 -0.77937 -1.341951 -1.06066 -1.06066 
C -1.341951 -0.77937 -1.5 -0.397805 -1.5 0 
C -1.5 0.397805 -1.341951 0.77937 -1.06066 1.06066 
C -0.77937 1.341951 -0.397805 1.5 0 1.5 
z
" style="stroke: #2e416d"/>
    </defs>
    <g clip-path="url(#peda0b70d0c)">
     <use xlink:href="#m9f98338e90" x="42.669992" y="160.092159" style="fill: #2e416d; stroke: #2e416d"/>
     <use xlink:href="#m9f98338e90" x="62.397265" y="159.726454" style="fill: #2e416d; stroke: #2e416d"/>
     <use xlink:href="#m9f98338e90" x="82.124537" y="159.615009" style="fill: #2e416d; stroke: #2e416d"/>
     <use xlink:href="#m9f98338e90" x="101.85181" y="159.540038" style="fill: #2e416d; stroke: #2e416d"/>
     <use xlink:href="#m9f98338e90" x="121.579083" y="159.451583" style="fill: #2e416d; stroke: #2e416d"/>
     <use xlink:href="#m9f98338e90" x="141.306355" y="159.411014" style="fill: #2e416d; stroke: #2e416d"/>
     <use xlink:href="#m9f98338e90" x="161.033628" y="159.34761" style="fill: #2e416d; stroke: #2e416d"/>
     <use xlink:href="#m9f98338e90" x="180.760901" y="159.285462" style="fill: #2e416d; stroke: #2e416d"/>
     <use xlink:href="#m9f98338e90" x="200.488174" y="159.172929" style="fill: #2e416d; stroke: #2e416d"/>
     <use xlink:href="#m9f98338e90" x="220.215446" y="158.831097" style="fill: #2e416d; stroke: #2e416d"/>
    </g>
   </g>
   <g id="line2d_97">
    <path d="M 42.669992 160.032311 
L 62.397265 159.594941 
L 82.124537 159.440778 
L 101.85181 159.3626 
L 121.579083 159.238012 
L 141.306355 159.2001 
L 161.033628 159.10777 
L 180.760901 159.042253 
L 200.488174 158.888932 
L 220.215446 158.47783 
" clip-path="url(#peda0b70d0c)" style="fill: none; stroke: #33446d; stroke-linecap: square"/>
    <defs>
     <path id="m6d0a9e252a" d="M 0 1.5 
C 0.397805 1.5 0.77937 1.341951 1.06066 1.06066 
C 1.341951 0.77937 1.5 0.397805 1.5 0 
C 1.5 -0.397805 1.341951 -0.77937 1.06066 -1.06066 
C 0.77937 -1.341951 0.397805 -1.5 0 -1.5 
C -0.397805 -1.5 -0.77937 -1.341951 -1.06066 -1.06066 
C -1.341951 -0.77937 -1.5 -0.397805 -1.5 0 
C -1.5 0.397805 -1.341951 0.77937 -1.06066 1.06066 
C -0.77937 1.341951 -0.397805 1.5 0 1.5 
z
" style="stroke: #33446d"/>
    </defs>
    <g clip-path="url(#peda0b70d0c)">
     <use xlink:href="#m6d0a9e252a" x="42.669992" y="160.032311" style="fill: #33446d; stroke: #33446d"/>
     <use xlink:href="#m6d0a9e252a" x="62.397265" y="159.594941" style="fill: #33446d; stroke: #33446d"/>
     <use xlink:href="#m6d0a9e252a" x="82.124537" y="159.440778" style="fill: #33446d; stroke: #33446d"/>
     <use xlink:href="#m6d0a9e252a" x="101.85181" y="159.3626" style="fill: #33446d; stroke: #33446d"/>
     <use xlink:href="#m6d0a9e252a" x="121.579083" y="159.238012" style="fill: #33446d; stroke: #33446d"/>
     <use xlink:href="#m6d0a9e252a" x="141.306355" y="159.2001" style="fill: #33446d; stroke: #33446d"/>
     <use xlink:href="#m6d0a9e252a" x="161.033628" y="159.10777" style="fill: #33446d; stroke: #33446d"/>
     <use xlink:href="#m6d0a9e252a" x="180.760901" y="159.042253" style="fill: #33446d; stroke: #33446d"/>
     <use xlink:href="#m6d0a9e252a" x="200.488174" y="158.888932" style="fill: #33446d; stroke: #33446d"/>
     <use xlink:href="#m6d0a9e252a" x="220.215446" y="158.47783" style="fill: #33446d; stroke: #33446d"/>
    </g>
   </g>
   <g id="line2d_98">
    <path d="M 42.669992 159.51568 
L 62.397265 158.451763 
L 82.124537 158.017374 
L 101.85181 157.823892 
L 121.579083 157.476615 
L 141.306355 157.367436 
L 161.033628 157.102221 
L 180.760901 156.922749 
L 200.488174 156.44872 
L 220.215446 155.678667 
" clip-path="url(#peda0b70d0c)" style="fill: none; stroke: #4c556c; stroke-linecap: square"/>
    <defs>
     <path id="md7688fd980" d="M 0 1.5 
C 0.397805 1.5 0.77937 1.341951 1.06066 1.06066 
C 1.341951 0.77937 1.5 0.397805 1.5 0 
C 1.5 -0.397805 1.341951 -0.77937 1.06066 -1.06066 
C 0.77937 -1.341951 0.397805 -1.5 0 -1.5 
C -0.397805 -1.5 -0.77937 -1.341951 -1.06066 -1.06066 
C -1.341951 -0.77937 -1.5 -0.397805 -1.5 0 
C -1.5 0.397805 -1.341951 0.77937 -1.06066 1.06066 
C -0.77937 1.341951 -0.397805 1.5 0 1.5 
z
" style="stroke: #4c556c"/>
    </defs>
    <g clip-path="url(#peda0b70d0c)">
     <use xlink:href="#md7688fd980" x="42.669992" y="159.51568" style="fill: #4c556c; stroke: #4c556c"/>
     <use xlink:href="#md7688fd980" x="62.397265" y="158.451763" style="fill: #4c556c; stroke: #4c556c"/>
     <use xlink:href="#md7688fd980" x="82.124537" y="158.017374" style="fill: #4c556c; stroke: #4c556c"/>
     <use xlink:href="#md7688fd980" x="101.85181" y="157.823892" style="fill: #4c556c; stroke: #4c556c"/>
     <use xlink:href="#md7688fd980" x="121.579083" y="157.476615" style="fill: #4c556c; stroke: #4c556c"/>
     <use xlink:href="#md7688fd980" x="141.306355" y="157.367436" style="fill: #4c556c; stroke: #4c556c"/>
     <use xlink:href="#md7688fd980" x="161.033628" y="157.102221" style="fill: #4c556c; stroke: #4c556c"/>
     <use xlink:href="#md7688fd980" x="180.760901" y="156.922749" style="fill: #4c556c; stroke: #4c556c"/>
     <use xlink:href="#md7688fd980" x="200.488174" y="156.44872" style="fill: #4c556c; stroke: #4c556c"/>
     <use xlink:href="#md7688fd980" x="220.215446" y="155.678667" style="fill: #4c556c; stroke: #4c556c"/>
    </g>
   </g>
   <g id="line2d_99">
    <path d="M 42.669992 158.952337 
L 62.397265 157.382564 
L 82.124537 156.617961 
L 101.85181 156.245735 
L 121.579083 155.697836 
L 141.306355 155.408962 
L 161.033628 154.984826 
L 180.760901 154.595889 
L 200.488174 153.725937 
L 220.215446 152.854757 
" clip-path="url(#peda0b70d0c)" style="fill: none; stroke: #5a5f6e; stroke-linecap: square"/>
    <defs>
     <path id="m6f4b8ffa1c" d="M 0 1.5 
C 0.397805 1.5 0.77937 1.341951 1.06066 1.06066 
C 1.341951 0.77937 1.5 0.397805 1.5 0 
C 1.5 -0.397805 1.341951 -0.77937 1.06066 -1.06066 
C 0.77937 -1.341951 0.397805 -1.5 0 -1.5 
C -0.397805 -1.5 -0.77937 -1.341951 -1.06066 -1.06066 
C -1.341951 -0.77937 -1.5 -0.397805 -1.5 0 
C -1.5 0.397805 -1.341951 0.77937 -1.06066 1.06066 
C -0.77937 1.341951 -0.397805 1.5 0 1.5 
z
" style="stroke: #5a5f6e"/>
    </defs>
    <g clip-path="url(#peda0b70d0c)">
     <use xlink:href="#m6f4b8ffa1c" x="42.669992" y="158.952337" style="fill: #5a5f6e; stroke: #5a5f6e"/>
     <use xlink:href="#m6f4b8ffa1c" x="62.397265" y="157.382564" style="fill: #5a5f6e; stroke: #5a5f6e"/>
     <use xlink:href="#m6f4b8ffa1c" x="82.124537" y="156.617961" style="fill: #5a5f6e; stroke: #5a5f6e"/>
     <use xlink:href="#m6f4b8ffa1c" x="101.85181" y="156.245735" style="fill: #5a5f6e; stroke: #5a5f6e"/>
     <use xlink:href="#m6f4b8ffa1c" x="121.579083" y="155.697836" style="fill: #5a5f6e; stroke: #5a5f6e"/>
     <use xlink:href="#m6f4b8ffa1c" x="141.306355" y="155.408962" style="fill: #5a5f6e; stroke: #5a5f6e"/>
     <use xlink:href="#m6f4b8ffa1c" x="161.033628" y="154.984826" style="fill: #5a5f6e; stroke: #5a5f6e"/>
     <use xlink:href="#m6f4b8ffa1c" x="180.760901" y="154.595889" style="fill: #5a5f6e; stroke: #5a5f6e"/>
     <use xlink:href="#m6f4b8ffa1c" x="200.488174" y="153.725937" style="fill: #5a5f6e; stroke: #5a5f6e"/>
     <use xlink:href="#m6f4b8ffa1c" x="220.215446" y="152.854757" style="fill: #5a5f6e; stroke: #5a5f6e"/>
    </g>
   </g>
   <g id="line2d_100">
    <path d="M 42.669992 158.295857 
L 62.397265 156.155317 
L 82.124537 154.993673 
L 101.85181 154.24943 
L 121.579083 153.460878 
L 141.306355 152.810512 
L 161.033628 152.15478 
L 180.760901 151.36031 
L 200.488174 149.937165 
L 220.215446 148.82037 
" clip-path="url(#peda0b70d0c)" style="fill: none; stroke: #676a71; stroke-linecap: square"/>
    <defs>
     <path id="mcc0d33f450" d="M 0 1.5 
C 0.397805 1.5 0.77937 1.341951 1.06066 1.06066 
C 1.341951 0.77937 1.5 0.397805 1.5 0 
C 1.5 -0.397805 1.341951 -0.77937 1.06066 -1.06066 
C 0.77937 -1.341951 0.397805 -1.5 0 -1.5 
C -0.397805 -1.5 -0.77937 -1.341951 -1.06066 -1.06066 
C -1.341951 -0.77937 -1.5 -0.397805 -1.5 0 
C -1.5 0.397805 -1.341951 0.77937 -1.06066 1.06066 
C -0.77937 1.341951 -0.397805 1.5 0 1.5 
z
" style="stroke: #676a71"/>
    </defs>
    <g clip-path="url(#peda0b70d0c)">
     <use xlink:href="#mcc0d33f450" x="42.669992" y="158.295857" style="fill: #676a71; stroke: #676a71"/>
     <use xlink:href="#mcc0d33f450" x="62.397265" y="156.155317" style="fill: #676a71; stroke: #676a71"/>
     <use xlink:href="#mcc0d33f450" x="82.124537" y="154.993673" style="fill: #676a71; stroke: #676a71"/>
     <use xlink:href="#mcc0d33f450" x="101.85181" y="154.24943" style="fill: #676a71; stroke: #676a71"/>
     <use xlink:href="#mcc0d33f450" x="121.579083" y="153.460878" style="fill: #676a71; stroke: #676a71"/>
     <use xlink:href="#mcc0d33f450" x="141.306355" y="152.810512" style="fill: #676a71; stroke: #676a71"/>
     <use xlink:href="#mcc0d33f450" x="161.033628" y="152.15478" style="fill: #676a71; stroke: #676a71"/>
     <use xlink:href="#mcc0d33f450" x="180.760901" y="151.36031" style="fill: #676a71; stroke: #676a71"/>
     <use xlink:href="#mcc0d33f450" x="200.488174" y="149.937165" style="fill: #676a71; stroke: #676a71"/>
     <use xlink:href="#mcc0d33f450" x="220.215446" y="148.82037" style="fill: #676a71; stroke: #676a71"/>
    </g>
   </g>
   <g id="line2d_101">
    <path d="M 42.669992 157.52021 
L 62.397265 154.720733 
L 82.124537 152.985889 
L 101.85181 151.649634 
L 121.579083 150.41872 
L 141.306355 149.196932 
L 161.033628 148.125889 
L 180.760901 146.704657 
L 200.488174 144.628397 
L 220.215446 142.714724 
" clip-path="url(#peda0b70d0c)" style="fill: none; stroke: #757575; stroke-linecap: square"/>
    <defs>
     <path id="mfa29f9fbdc" d="M 0 1.5 
C 0.397805 1.5 0.77937 1.341951 1.06066 1.06066 
C 1.341951 0.77937 1.5 0.397805 1.5 0 
C 1.5 -0.397805 1.341951 -0.77937 1.06066 -1.06066 
C 0.77937 -1.341951 0.397805 -1.5 0 -1.5 
C -0.397805 -1.5 -0.77937 -1.341951 -1.06066 -1.06066 
C -1.341951 -0.77937 -1.5 -0.397805 -1.5 0 
C -1.5 0.397805 -1.341951 0.77937 -1.06066 1.06066 
C -0.77937 1.341951 -0.397805 1.5 0 1.5 
z
" style="stroke: #757575"/>
    </defs>
    <g clip-path="url(#peda0b70d0c)">
     <use xlink:href="#mfa29f9fbdc" x="42.669992" y="157.52021" style="fill: #757575; stroke: #757575"/>
     <use xlink:href="#mfa29f9fbdc" x="62.397265" y="154.720733" style="fill: #757575; stroke: #757575"/>
     <use xlink:href="#mfa29f9fbdc" x="82.124537" y="152.985889" style="fill: #757575; stroke: #757575"/>
     <use xlink:href="#mfa29f9fbdc" x="101.85181" y="151.649634" style="fill: #757575; stroke: #757575"/>
     <use xlink:href="#mfa29f9fbdc" x="121.579083" y="150.41872" style="fill: #757575; stroke: #757575"/>
     <use xlink:href="#mfa29f9fbdc" x="141.306355" y="149.196932" style="fill: #757575; stroke: #757575"/>
     <use xlink:href="#mfa29f9fbdc" x="161.033628" y="148.125889" style="fill: #757575; stroke: #757575"/>
     <use xlink:href="#mfa29f9fbdc" x="180.760901" y="146.704657" style="fill: #757575; stroke: #757575"/>
     <use xlink:href="#mfa29f9fbdc" x="200.488174" y="144.628397" style="fill: #757575; stroke: #757575"/>
     <use xlink:href="#mfa29f9fbdc" x="220.215446" y="142.714724" style="fill: #757575; stroke: #757575"/>
    </g>
   </g>
   <g id="line2d_102">
    <path d="M 42.669992 156.55895 
L 62.397265 153.036657 
L 82.124537 150.4797 
L 101.85181 148.373026 
L 121.579083 146.425953 
L 141.306355 144.564335 
L 161.033628 142.808363 
L 180.760901 140.71053 
L 200.488174 137.948056 
L 220.215446 135.012408 
" clip-path="url(#peda0b70d0c)" style="fill: none; stroke: #828079; stroke-linecap: square"/>
    <defs>
     <path id="m48763cb96c" d="M 0 1.5 
C 0.397805 1.5 0.77937 1.341951 1.06066 1.06066 
C 1.341951 0.77937 1.5 0.397805 1.5 0 
C 1.5 -0.397805 1.341951 -0.77937 1.06066 -1.06066 
C 0.77937 -1.341951 0.397805 -1.5 0 -1.5 
C -0.397805 -1.5 -0.77937 -1.341951 -1.06066 -1.06066 
C -1.341951 -0.77937 -1.5 -0.397805 -1.5 0 
C -1.5 0.397805 -1.341951 0.77937 -1.06066 1.06066 
C -0.77937 1.341951 -0.397805 1.5 0 1.5 
z
" style="stroke: #828079"/>
    </defs>
    <g clip-path="url(#peda0b70d0c)">
     <use xlink:href="#m48763cb96c" x="42.669992" y="156.55895" style="fill: #828079; stroke: #828079"/>
     <use xlink:href="#m48763cb96c" x="62.397265" y="153.036657" style="fill: #828079; stroke: #828079"/>
     <use xlink:href="#m48763cb96c" x="82.124537" y="150.4797" style="fill: #828079; stroke: #828079"/>
     <use xlink:href="#m48763cb96c" x="101.85181" y="148.373026" style="fill: #828079; stroke: #828079"/>
     <use xlink:href="#m48763cb96c" x="121.579083" y="146.425953" style="fill: #828079; stroke: #828079"/>
     <use xlink:href="#m48763cb96c" x="141.306355" y="144.564335" style="fill: #828079; stroke: #828079"/>
     <use xlink:href="#m48763cb96c" x="161.033628" y="142.808363" style="fill: #828079; stroke: #828079"/>
     <use xlink:href="#m48763cb96c" x="180.760901" y="140.71053" style="fill: #828079; stroke: #828079"/>
     <use xlink:href="#m48763cb96c" x="200.488174" y="137.948056" style="fill: #828079; stroke: #828079"/>
     <use xlink:href="#m48763cb96c" x="220.215446" y="135.012408" style="fill: #828079; stroke: #828079"/>
    </g>
   </g>
   <g id="line2d_103">
    <path d="M 42.669992 155.408471 
L 62.397265 150.844914 
L 82.124537 147.236202 
L 101.85181 144.159982 
L 121.579083 141.305949 
L 141.306355 138.571816 
L 161.033628 135.880215 
L 180.760901 132.861458 
L 200.488174 128.973699 
L 220.215446 124.914984 
" clip-path="url(#peda0b70d0c)" style="fill: none; stroke: #918b78; stroke-linecap: square"/>
    <defs>
     <path id="m811c88f9dd" d="M 0 1.5 
C 0.397805 1.5 0.77937 1.341951 1.06066 1.06066 
C 1.341951 0.77937 1.5 0.397805 1.5 0 
C 1.5 -0.397805 1.341951 -0.77937 1.06066 -1.06066 
C 0.77937 -1.341951 0.397805 -1.5 0 -1.5 
C -0.397805 -1.5 -0.77937 -1.341951 -1.06066 -1.06066 
C -1.341951 -0.77937 -1.5 -0.397805 -1.5 0 
C -1.5 0.397805 -1.341951 0.77937 -1.06066 1.06066 
C -0.77937 1.341951 -0.397805 1.5 0 1.5 
z
" style="stroke: #918b78"/>
    </defs>
    <g clip-path="url(#peda0b70d0c)">
     <use xlink:href="#m811c88f9dd" x="42.669992" y="155.408471" style="fill: #918b78; stroke: #918b78"/>
     <use xlink:href="#m811c88f9dd" x="62.397265" y="150.844914" style="fill: #918b78; stroke: #918b78"/>
     <use xlink:href="#m811c88f9dd" x="82.124537" y="147.236202" style="fill: #918b78; stroke: #918b78"/>
     <use xlink:href="#m811c88f9dd" x="101.85181" y="144.159982" style="fill: #918b78; stroke: #918b78"/>
     <use xlink:href="#m811c88f9dd" x="121.579083" y="141.305949" style="fill: #918b78; stroke: #918b78"/>
     <use xlink:href="#m811c88f9dd" x="141.306355" y="138.571816" style="fill: #918b78; stroke: #918b78"/>
     <use xlink:href="#m811c88f9dd" x="161.033628" y="135.880215" style="fill: #918b78; stroke: #918b78"/>
     <use xlink:href="#m811c88f9dd" x="180.760901" y="132.861458" style="fill: #918b78; stroke: #918b78"/>
     <use xlink:href="#m811c88f9dd" x="200.488174" y="128.973699" style="fill: #918b78; stroke: #918b78"/>
     <use xlink:href="#m811c88f9dd" x="220.215446" y="124.914984" style="fill: #918b78; stroke: #918b78"/>
    </g>
   </g>
   <g id="line2d_104">
    <path d="M 42.669992 154.398212 
L 62.397265 148.7708 
L 82.124537 144.122211 
L 101.85181 139.896598 
L 121.579083 135.869232 
L 141.306355 131.914978 
L 161.033628 127.828389 
L 180.760901 123.166739 
L 200.488174 117.224984 
L 220.215446 110.117474 
" clip-path="url(#peda0b70d0c)" style="fill: none; stroke: #9f9775; stroke-linecap: square"/>
    <defs>
     <path id="m1462f86fb7" d="M 0 1.5 
C 0.397805 1.5 0.77937 1.341951 1.06066 1.06066 
C 1.341951 0.77937 1.5 0.397805 1.5 0 
C 1.5 -0.397805 1.341951 -0.77937 1.06066 -1.06066 
C 0.77937 -1.341951 0.397805 -1.5 0 -1.5 
C -0.397805 -1.5 -0.77937 -1.341951 -1.06066 -1.06066 
C -1.341951 -0.77937 -1.5 -0.397805 -1.5 0 
C -1.5 0.397805 -1.341951 0.77937 -1.06066 1.06066 
C -0.77937 1.341951 -0.397805 1.5 0 1.5 
z
" style="stroke: #9f9775"/>
    </defs>
    <g clip-path="url(#peda0b70d0c)">
     <use xlink:href="#m1462f86fb7" x="42.669992" y="154.398212" style="fill: #9f9775; stroke: #9f9775"/>
     <use xlink:href="#m1462f86fb7" x="62.397265" y="148.7708" style="fill: #9f9775; stroke: #9f9775"/>
     <use xlink:href="#m1462f86fb7" x="82.124537" y="144.122211" style="fill: #9f9775; stroke: #9f9775"/>
     <use xlink:href="#m1462f86fb7" x="101.85181" y="139.896598" style="fill: #9f9775; stroke: #9f9775"/>
     <use xlink:href="#m1462f86fb7" x="121.579083" y="135.869232" style="fill: #9f9775; stroke: #9f9775"/>
     <use xlink:href="#m1462f86fb7" x="141.306355" y="131.914978" style="fill: #9f9775; stroke: #9f9775"/>
     <use xlink:href="#m1462f86fb7" x="161.033628" y="127.828389" style="fill: #9f9775; stroke: #9f9775"/>
     <use xlink:href="#m1462f86fb7" x="180.760901" y="123.166739" style="fill: #9f9775; stroke: #9f9775"/>
     <use xlink:href="#m1462f86fb7" x="200.488174" y="117.224984" style="fill: #9f9775; stroke: #9f9775"/>
     <use xlink:href="#m1462f86fb7" x="220.215446" y="110.117474" style="fill: #9f9775; stroke: #9f9775"/>
    </g>
   </g>
   <g id="line2d_105">
    <path d="M 42.669992 153.43431 
L 62.397265 146.857649 
L 82.124537 140.906087 
L 101.85181 135.307633 
L 121.579083 129.776272 
L 141.306355 124.132022 
L 161.033628 118.086073 
L 180.760901 110.770201 
L 200.488174 100.108848 
L 220.215446 85.339678 
" clip-path="url(#peda0b70d0c)" style="fill: none; stroke: #b4a76f; stroke-linecap: square"/>
    <defs>
     <path id="m9fa5e17619" d="M 0 1.5 
C 0.397805 1.5 0.77937 1.341951 1.06066 1.06066 
C 1.341951 0.77937 1.5 0.397805 1.5 0 
C 1.5 -0.397805 1.341951 -0.77937 1.06066 -1.06066 
C 0.77937 -1.341951 0.397805 -1.5 0 -1.5 
C -0.397805 -1.5 -0.77937 -1.341951 -1.06066 -1.06066 
C -1.341951 -0.77937 -1.5 -0.397805 -1.5 0 
C -1.5 0.397805 -1.341951 0.77937 -1.06066 1.06066 
C -0.77937 1.341951 -0.397805 1.5 0 1.5 
z
" style="stroke: #b4a76f"/>
    </defs>
    <g clip-path="url(#peda0b70d0c)">
     <use xlink:href="#m9fa5e17619" x="42.669992" y="153.43431" style="fill: #b4a76f; stroke: #b4a76f"/>
     <use xlink:href="#m9fa5e17619" x="62.397265" y="146.857649" style="fill: #b4a76f; stroke: #b4a76f"/>
     <use xlink:href="#m9fa5e17619" x="82.124537" y="140.906087" style="fill: #b4a76f; stroke: #b4a76f"/>
     <use xlink:href="#m9fa5e17619" x="101.85181" y="135.307633" style="fill: #b4a76f; stroke: #b4a76f"/>
     <use xlink:href="#m9fa5e17619" x="121.579083" y="129.776272" style="fill: #b4a76f; stroke: #b4a76f"/>
     <use xlink:href="#m9fa5e17619" x="141.306355" y="124.132022" style="fill: #b4a76f; stroke: #b4a76f"/>
     <use xlink:href="#m9fa5e17619" x="161.033628" y="118.086073" style="fill: #b4a76f; stroke: #b4a76f"/>
     <use xlink:href="#m9fa5e17619" x="180.760901" y="110.770201" style="fill: #b4a76f; stroke: #b4a76f"/>
     <use xlink:href="#m9fa5e17619" x="200.488174" y="100.108848" style="fill: #b4a76f; stroke: #b4a76f"/>
     <use xlink:href="#m9fa5e17619" x="220.215446" y="85.339678" style="fill: #b4a76f; stroke: #b4a76f"/>
    </g>
   </g>
   <g id="line2d_106">
    <path d="M 42.669992 153.229486 
L 62.397265 146.439414 
L 82.124537 140.259365 
L 101.85181 134.432633 
L 121.579083 128.676151 
L 141.306355 122.850277 
L 161.033628 116.497681 
L 180.760901 108.463866 
L 200.488174 96.942698 
L 220.215446 79.165393 
" clip-path="url(#peda0b70d0c)" style="fill: none; stroke: #b8aa6e; stroke-linecap: square"/>
    <defs>
     <path id="m33a2f24805" d="M 0 1.5 
C 0.397805 1.5 0.77937 1.341951 1.06066 1.06066 
C 1.341951 0.77937 1.5 0.397805 1.5 0 
C 1.5 -0.397805 1.341951 -0.77937 1.06066 -1.06066 
C 0.77937 -1.341951 0.397805 -1.5 0 -1.5 
C -0.397805 -1.5 -0.77937 -1.341951 -1.06066 -1.06066 
C -1.341951 -0.77937 -1.5 -0.397805 -1.5 0 
C -1.5 0.397805 -1.341951 0.77937 -1.06066 1.06066 
C -0.77937 1.341951 -0.397805 1.5 0 1.5 
z
" style="stroke: #b8aa6e"/>
    </defs>
    <g clip-path="url(#peda0b70d0c)">
     <use xlink:href="#m33a2f24805" x="42.669992" y="153.229486" style="fill: #b8aa6e; stroke: #b8aa6e"/>
     <use xlink:href="#m33a2f24805" x="62.397265" y="146.439414" style="fill: #b8aa6e; stroke: #b8aa6e"/>
     <use xlink:href="#m33a2f24805" x="82.124537" y="140.259365" style="fill: #b8aa6e; stroke: #b8aa6e"/>
     <use xlink:href="#m33a2f24805" x="101.85181" y="134.432633" style="fill: #b8aa6e; stroke: #b8aa6e"/>
     <use xlink:href="#m33a2f24805" x="121.579083" y="128.676151" style="fill: #b8aa6e; stroke: #b8aa6e"/>
     <use xlink:href="#m33a2f24805" x="141.306355" y="122.850277" style="fill: #b8aa6e; stroke: #b8aa6e"/>
     <use xlink:href="#m33a2f24805" x="161.033628" y="116.497681" style="fill: #b8aa6e; stroke: #b8aa6e"/>
     <use xlink:href="#m33a2f24805" x="180.760901" y="108.463866" style="fill: #b8aa6e; stroke: #b8aa6e"/>
     <use xlink:href="#m33a2f24805" x="200.488174" y="96.942698" style="fill: #b8aa6e; stroke: #b8aa6e"/>
     <use xlink:href="#m33a2f24805" x="220.215446" y="79.165393" style="fill: #b8aa6e; stroke: #b8aa6e"/>
    </g>
   </g>
   <g id="line2d_107">
    <path d="M 42.669992 152.823036 
L 62.397265 145.546576 
L 82.124537 138.913491 
L 101.85181 132.622697 
L 121.579083 126.535644 
L 141.306355 120.362481 
L 161.033628 113.694568 
L 180.760901 105.059159 
L 200.488174 92.309563 
L 220.215446 68.604687 
" clip-path="url(#peda0b70d0c)" style="fill: none; stroke: #bfb06b; stroke-linecap: square"/>
    <defs>
     <path id="m6844d4d654" d="M 0 1.5 
C 0.397805 1.5 0.77937 1.341951 1.06066 1.06066 
C 1.341951 0.77937 1.5 0.397805 1.5 0 
C 1.5 -0.397805 1.341951 -0.77937 1.06066 -1.06066 
C 0.77937 -1.341951 0.397805 -1.5 0 -1.5 
C -0.397805 -1.5 -0.77937 -1.341951 -1.06066 -1.06066 
C -1.341951 -0.77937 -1.5 -0.397805 -1.5 0 
C -1.5 0.397805 -1.341951 0.77937 -1.06066 1.06066 
C -0.77937 1.341951 -0.397805 1.5 0 1.5 
z
" style="stroke: #bfb06b"/>
    </defs>
    <g clip-path="url(#peda0b70d0c)">
     <use xlink:href="#m6844d4d654" x="42.669992" y="152.823036" style="fill: #bfb06b; stroke: #bfb06b"/>
     <use xlink:href="#m6844d4d654" x="62.397265" y="145.546576" style="fill: #bfb06b; stroke: #bfb06b"/>
     <use xlink:href="#m6844d4d654" x="82.124537" y="138.913491" style="fill: #bfb06b; stroke: #bfb06b"/>
     <use xlink:href="#m6844d4d654" x="101.85181" y="132.622697" style="fill: #bfb06b; stroke: #bfb06b"/>
     <use xlink:href="#m6844d4d654" x="121.579083" y="126.535644" style="fill: #bfb06b; stroke: #bfb06b"/>
     <use xlink:href="#m6844d4d654" x="141.306355" y="120.362481" style="fill: #bfb06b; stroke: #bfb06b"/>
     <use xlink:href="#m6844d4d654" x="161.033628" y="113.694568" style="fill: #bfb06b; stroke: #bfb06b"/>
     <use xlink:href="#m6844d4d654" x="180.760901" y="105.059159" style="fill: #bfb06b; stroke: #bfb06b"/>
     <use xlink:href="#m6844d4d654" x="200.488174" y="92.309563" style="fill: #bfb06b; stroke: #bfb06b"/>
     <use xlink:href="#m6844d4d654" x="220.215446" y="68.604687" style="fill: #bfb06b; stroke: #bfb06b"/>
    </g>
   </g>
   <g id="line2d_108">
    <path d="M 42.669992 152.460477 
L 62.397265 144.718052 
L 82.124537 137.611869 
L 101.85181 130.849246 
L 121.579083 124.360231 
L 141.306355 117.775577 
L 161.033628 110.913762 
L 180.760901 102.251224 
L 200.488174 89.973784 
L 220.215446 59.462293 
" clip-path="url(#peda0b70d0c)" style="fill: none; stroke: #c3b369; stroke-linecap: square"/>
    <defs>
     <path id="m4b9f303355" d="M 0 1.5 
C 0.397805 1.5 0.77937 1.341951 1.06066 1.06066 
C 1.341951 0.77937 1.5 0.397805 1.5 0 
C 1.5 -0.397805 1.341951 -0.77937 1.06066 -1.06066 
C 0.77937 -1.341951 0.397805 -1.5 0 -1.5 
C -0.397805 -1.5 -0.77937 -1.341951 -1.06066 -1.06066 
C -1.341951 -0.77937 -1.5 -0.397805 -1.5 0 
C -1.5 0.397805 -1.341951 0.77937 -1.06066 1.06066 
C -0.77937 1.341951 -0.397805 1.5 0 1.5 
z
" style="stroke: #c3b369"/>
    </defs>
    <g clip-path="url(#peda0b70d0c)">
     <use xlink:href="#m4b9f303355" x="42.669992" y="152.460477" style="fill: #c3b369; stroke: #c3b369"/>
     <use xlink:href="#m4b9f303355" x="62.397265" y="144.718052" style="fill: #c3b369; stroke: #c3b369"/>
     <use xlink:href="#m4b9f303355" x="82.124537" y="137.611869" style="fill: #c3b369; stroke: #c3b369"/>
     <use xlink:href="#m4b9f303355" x="101.85181" y="130.849246" style="fill: #c3b369; stroke: #c3b369"/>
     <use xlink:href="#m4b9f303355" x="121.579083" y="124.360231" style="fill: #c3b369; stroke: #c3b369"/>
     <use xlink:href="#m4b9f303355" x="141.306355" y="117.775577" style="fill: #c3b369; stroke: #c3b369"/>
     <use xlink:href="#m4b9f303355" x="161.033628" y="110.913762" style="fill: #c3b369; stroke: #c3b369"/>
     <use xlink:href="#m4b9f303355" x="180.760901" y="102.251224" style="fill: #c3b369; stroke: #c3b369"/>
     <use xlink:href="#m4b9f303355" x="200.488174" y="89.973784" style="fill: #c3b369; stroke: #c3b369"/>
     <use xlink:href="#m4b9f303355" x="220.215446" y="59.462293" style="fill: #c3b369; stroke: #c3b369"/>
    </g>
   </g>
   <g id="line2d_109">
    <path d="M 42.669992 152.172571 
L 62.397265 144.010235 
L 82.124537 136.408925 
L 101.85181 129.154891 
L 121.579083 122.144849 
L 141.306355 115.117356 
L 161.033628 107.972779 
L 180.760901 99.741317 
L 200.488174 88.44902 
L 220.215446 51.367314 
" clip-path="url(#peda0b70d0c)" style="fill: none; stroke: #c7b767; stroke-linecap: square"/>
    <defs>
     <path id="m08b4b52f26" d="M 0 1.5 
C 0.397805 1.5 0.77937 1.341951 1.06066 1.06066 
C 1.341951 0.77937 1.5 0.397805 1.5 0 
C 1.5 -0.397805 1.341951 -0.77937 1.06066 -1.06066 
C 0.77937 -1.341951 0.397805 -1.5 0 -1.5 
C -0.397805 -1.5 -0.77937 -1.341951 -1.06066 -1.06066 
C -1.341951 -0.77937 -1.5 -0.397805 -1.5 0 
C -1.5 0.397805 -1.341951 0.77937 -1.06066 1.06066 
C -0.77937 1.341951 -0.397805 1.5 0 1.5 
z
" style="stroke: #c7b767"/>
    </defs>
    <g clip-path="url(#peda0b70d0c)">
     <use xlink:href="#m08b4b52f26" x="42.669992" y="152.172571" style="fill: #c7b767; stroke: #c7b767"/>
     <use xlink:href="#m08b4b52f26" x="62.397265" y="144.010235" style="fill: #c7b767; stroke: #c7b767"/>
     <use xlink:href="#m08b4b52f26" x="82.124537" y="136.408925" style="fill: #c7b767; stroke: #c7b767"/>
     <use xlink:href="#m08b4b52f26" x="101.85181" y="129.154891" style="fill: #c7b767; stroke: #c7b767"/>
     <use xlink:href="#m08b4b52f26" x="121.579083" y="122.144849" style="fill: #c7b767; stroke: #c7b767"/>
     <use xlink:href="#m08b4b52f26" x="141.306355" y="115.117356" style="fill: #c7b767; stroke: #c7b767"/>
     <use xlink:href="#m08b4b52f26" x="161.033628" y="107.972779" style="fill: #c7b767; stroke: #c7b767"/>
     <use xlink:href="#m08b4b52f26" x="180.760901" y="99.741317" style="fill: #c7b767; stroke: #c7b767"/>
     <use xlink:href="#m08b4b52f26" x="200.488174" y="88.44902" style="fill: #c7b767; stroke: #c7b767"/>
     <use xlink:href="#m08b4b52f26" x="220.215446" y="51.367314" style="fill: #c7b767; stroke: #c7b767"/>
    </g>
   </g>
   <g id="line2d_110">
    <path d="M 42.669992 151.90742 
L 62.397265 143.259227 
L 82.124537 135.025618 
L 101.85181 127.039174 
L 121.579083 119.134213 
L 141.306355 111.333383 
L 161.033628 103.498922 
L 180.760901 95.937605 
L 200.488174 86.102103 
L 220.215446 40.990149 
" clip-path="url(#peda0b70d0c)" style="fill: none; stroke: #cdbb63; stroke-linecap: square"/>
    <defs>
     <path id="ma115d85e6e" d="M 0 1.5 
C 0.397805 1.5 0.77937 1.341951 1.06066 1.06066 
C 1.341951 0.77937 1.5 0.397805 1.5 0 
C 1.5 -0.397805 1.341951 -0.77937 1.06066 -1.06066 
C 0.77937 -1.341951 0.397805 -1.5 0 -1.5 
C -0.397805 -1.5 -0.77937 -1.341951 -1.06066 -1.06066 
C -1.341951 -0.77937 -1.5 -0.397805 -1.5 0 
C -1.5 0.397805 -1.341951 0.77937 -1.06066 1.06066 
C -0.77937 1.341951 -0.397805 1.5 0 1.5 
z
" style="stroke: #cdbb63"/>
    </defs>
    <g clip-path="url(#peda0b70d0c)">
     <use xlink:href="#ma115d85e6e" x="42.669992" y="151.90742" style="fill: #cdbb63; stroke: #cdbb63"/>
     <use xlink:href="#ma115d85e6e" x="62.397265" y="143.259227" style="fill: #cdbb63; stroke: #cdbb63"/>
     <use xlink:href="#ma115d85e6e" x="82.124537" y="135.025618" style="fill: #cdbb63; stroke: #cdbb63"/>
     <use xlink:href="#ma115d85e6e" x="101.85181" y="127.039174" style="fill: #cdbb63; stroke: #cdbb63"/>
     <use xlink:href="#ma115d85e6e" x="121.579083" y="119.134213" style="fill: #cdbb63; stroke: #cdbb63"/>
     <use xlink:href="#ma115d85e6e" x="141.306355" y="111.333383" style="fill: #cdbb63; stroke: #cdbb63"/>
     <use xlink:href="#ma115d85e6e" x="161.033628" y="103.498922" style="fill: #cdbb63; stroke: #cdbb63"/>
     <use xlink:href="#ma115d85e6e" x="180.760901" y="95.937605" style="fill: #cdbb63; stroke: #cdbb63"/>
     <use xlink:href="#ma115d85e6e" x="200.488174" y="86.102103" style="fill: #cdbb63; stroke: #cdbb63"/>
     <use xlink:href="#ma115d85e6e" x="220.215446" y="40.990149" style="fill: #cdbb63; stroke: #cdbb63"/>
    </g>
   </g>
   <g id="line2d_111">
    <path d="M 42.669992 138.496238 
L 62.397265 129.543241 
L 82.124537 120.802232 
L 101.85181 112.133865 
L 121.579083 103.34421 
L 141.306355 94.676946 
L 161.033628 85.941986 
L 180.760901 78.431057 
L 200.488174 69.740772 
L 220.215446 35.493927 
" clip-path="url(#peda0b70d0c)" style="fill: none; stroke: #d1bf61; stroke-linecap: square"/>
    <defs>
     <path id="mc20769befd" d="M 0 1.5 
C 0.397805 1.5 0.77937 1.341951 1.06066 1.06066 
C 1.341951 0.77937 1.5 0.397805 1.5 0 
C 1.5 -0.397805 1.341951 -0.77937 1.06066 -1.06066 
C 0.77937 -1.341951 0.397805 -1.5 0 -1.5 
C -0.397805 -1.5 -0.77937 -1.341951 -1.06066 -1.06066 
C -1.341951 -0.77937 -1.5 -0.397805 -1.5 0 
C -1.5 0.397805 -1.341951 0.77937 -1.06066 1.06066 
C -0.77937 1.341951 -0.397805 1.5 0 1.5 
z
" style="stroke: #d1bf61"/>
    </defs>
    <g clip-path="url(#peda0b70d0c)">
     <use xlink:href="#mc20769befd" x="42.669992" y="138.496238" style="fill: #d1bf61; stroke: #d1bf61"/>
     <use xlink:href="#mc20769befd" x="62.397265" y="129.543241" style="fill: #d1bf61; stroke: #d1bf61"/>
     <use xlink:href="#mc20769befd" x="82.124537" y="120.802232" style="fill: #d1bf61; stroke: #d1bf61"/>
     <use xlink:href="#mc20769befd" x="101.85181" y="112.133865" style="fill: #d1bf61; stroke: #d1bf61"/>
     <use xlink:href="#mc20769befd" x="121.579083" y="103.34421" style="fill: #d1bf61; stroke: #d1bf61"/>
     <use xlink:href="#mc20769befd" x="141.306355" y="94.676946" style="fill: #d1bf61; stroke: #d1bf61"/>
     <use xlink:href="#mc20769befd" x="161.033628" y="85.941986" style="fill: #d1bf61; stroke: #d1bf61"/>
     <use xlink:href="#mc20769befd" x="180.760901" y="78.431057" style="fill: #d1bf61; stroke: #d1bf61"/>
     <use xlink:href="#mc20769befd" x="200.488174" y="69.740772" style="fill: #d1bf61; stroke: #d1bf61"/>
     <use xlink:href="#mc20769befd" x="220.215446" y="35.493927" style="fill: #d1bf61; stroke: #d1bf61"/>
    </g>
   </g>
   <g id="line2d_112">
    <path d="M 42.669992 151.703985 
L 62.397265 142.439549 
L 82.124537 133.114747 
L 101.85181 123.521019 
L 121.579083 113.482677 
L 141.306355 103.316306 
L 161.033628 93.105332 
L 180.760901 84.449261 
L 200.488174 76.564459 
L 220.215446 33.166278 
" clip-path="url(#peda0b70d0c)" style="fill: none; stroke: #d6c35d; stroke-linecap: square"/>
    <defs>
     <path id="mea5ab8e708" d="M 0 1.5 
C 0.397805 1.5 0.77937 1.341951 1.06066 1.06066 
C 1.341951 0.77937 1.5 0.397805 1.5 0 
C 1.5 -0.397805 1.341951 -0.77937 1.06066 -1.06066 
C 0.77937 -1.341951 0.397805 -1.5 0 -1.5 
C -0.397805 -1.5 -0.77937 -1.341951 -1.06066 -1.06066 
C -1.341951 -0.77937 -1.5 -0.397805 -1.5 0 
C -1.5 0.397805 -1.341951 0.77937 -1.06066 1.06066 
C -0.77937 1.341951 -0.397805 1.5 0 1.5 
z
" style="stroke: #d6c35d"/>
    </defs>
    <g clip-path="url(#peda0b70d0c)">
     <use xlink:href="#mea5ab8e708" x="42.669992" y="151.703985" style="fill: #d6c35d; stroke: #d6c35d"/>
     <use xlink:href="#mea5ab8e708" x="62.397265" y="142.439549" style="fill: #d6c35d; stroke: #d6c35d"/>
     <use xlink:href="#mea5ab8e708" x="82.124537" y="133.114747" style="fill: #d6c35d; stroke: #d6c35d"/>
     <use xlink:href="#mea5ab8e708" x="101.85181" y="123.521019" style="fill: #d6c35d; stroke: #d6c35d"/>
     <use xlink:href="#mea5ab8e708" x="121.579083" y="113.482677" style="fill: #d6c35d; stroke: #d6c35d"/>
     <use xlink:href="#mea5ab8e708" x="141.306355" y="103.316306" style="fill: #d6c35d; stroke: #d6c35d"/>
     <use xlink:href="#mea5ab8e708" x="161.033628" y="93.105332" style="fill: #d6c35d; stroke: #d6c35d"/>
     <use xlink:href="#mea5ab8e708" x="180.760901" y="84.449261" style="fill: #d6c35d; stroke: #d6c35d"/>
     <use xlink:href="#mea5ab8e708" x="200.488174" y="76.564459" style="fill: #d6c35d; stroke: #d6c35d"/>
     <use xlink:href="#mea5ab8e708" x="220.215446" y="33.166278" style="fill: #d6c35d; stroke: #d6c35d"/>
    </g>
   </g>
   <g id="line2d_113">
    <path d="M 42.669992 151.615124 
L 62.397265 142.079145 
L 82.124537 132.29081 
L 101.85181 122.001409 
L 121.579083 110.945669 
L 141.306355 99.629045 
L 161.033628 87.970737 
L 180.760901 77.91019 
L 200.488174 69.949258 
L 220.215446 42.118413 
" clip-path="url(#peda0b70d0c)" style="fill: none; stroke: #dcc859; stroke-linecap: square"/>
    <defs>
     <path id="m4a36535530" d="M 0 1.5 
C 0.397805 1.5 0.77937 1.341951 1.06066 1.06066 
C 1.341951 0.77937 1.5 0.397805 1.5 0 
C 1.5 -0.397805 1.341951 -0.77937 1.06066 -1.06066 
C 0.77937 -1.341951 0.397805 -1.5 0 -1.5 
C -0.397805 -1.5 -0.77937 -1.341951 -1.06066 -1.06066 
C -1.341951 -0.77937 -1.5 -0.397805 -1.5 0 
C -1.5 0.397805 -1.341951 0.77937 -1.06066 1.06066 
C -0.77937 1.341951 -0.397805 1.5 0 1.5 
z
" style="stroke: #dcc859"/>
    </defs>
    <g clip-path="url(#peda0b70d0c)">
     <use xlink:href="#m4a36535530" x="42.669992" y="151.615124" style="fill: #dcc859; stroke: #dcc859"/>
     <use xlink:href="#m4a36535530" x="62.397265" y="142.079145" style="fill: #dcc859; stroke: #dcc859"/>
     <use xlink:href="#m4a36535530" x="82.124537" y="132.29081" style="fill: #dcc859; stroke: #dcc859"/>
     <use xlink:href="#m4a36535530" x="101.85181" y="122.001409" style="fill: #dcc859; stroke: #dcc859"/>
     <use xlink:href="#m4a36535530" x="121.579083" y="110.945669" style="fill: #dcc859; stroke: #dcc859"/>
     <use xlink:href="#m4a36535530" x="141.306355" y="99.629045" style="fill: #dcc859; stroke: #dcc859"/>
     <use xlink:href="#m4a36535530" x="161.033628" y="87.970737" style="fill: #dcc859; stroke: #dcc859"/>
     <use xlink:href="#m4a36535530" x="180.760901" y="77.91019" style="fill: #dcc859; stroke: #dcc859"/>
     <use xlink:href="#m4a36535530" x="200.488174" y="69.949258" style="fill: #dcc859; stroke: #dcc859"/>
     <use xlink:href="#m4a36535530" x="220.215446" y="42.118413" style="fill: #dcc859; stroke: #dcc859"/>
    </g>
   </g>
   <g id="line2d_114">
    <path d="M 42.669992 138.167191 
L 62.397265 128.163532 
L 82.124537 117.70823 
L 101.85181 106.463948 
L 121.579083 94.219647 
L 141.306355 81.352886 
L 161.033628 67.680989 
L 180.760901 55.268082 
L 200.488174 47.381114 
L 220.215446 67.400857 
" clip-path="url(#peda0b70d0c)" style="fill: none; stroke: #e1cc55; stroke-linecap: square"/>
    <defs>
     <path id="m68ed8039f5" d="M 0 1.5 
C 0.397805 1.5 0.77937 1.341951 1.06066 1.06066 
C 1.341951 0.77937 1.5 0.397805 1.5 0 
C 1.5 -0.397805 1.341951 -0.77937 1.06066 -1.06066 
C 0.77937 -1.341951 0.397805 -1.5 0 -1.5 
C -0.397805 -1.5 -0.77937 -1.341951 -1.06066 -1.06066 
C -1.341951 -0.77937 -1.5 -0.397805 -1.5 0 
C -1.5 0.397805 -1.341951 0.77937 -1.06066 1.06066 
C -0.77937 1.341951 -0.397805 1.5 0 1.5 
z
" style="stroke: #e1cc55"/>
    </defs>
    <g clip-path="url(#peda0b70d0c)">
     <use xlink:href="#m68ed8039f5" x="42.669992" y="138.167191" style="fill: #e1cc55; stroke: #e1cc55"/>
     <use xlink:href="#m68ed8039f5" x="62.397265" y="128.163532" style="fill: #e1cc55; stroke: #e1cc55"/>
     <use xlink:href="#m68ed8039f5" x="82.124537" y="117.70823" style="fill: #e1cc55; stroke: #e1cc55"/>
     <use xlink:href="#m68ed8039f5" x="101.85181" y="106.463948" style="fill: #e1cc55; stroke: #e1cc55"/>
     <use xlink:href="#m68ed8039f5" x="121.579083" y="94.219647" style="fill: #e1cc55; stroke: #e1cc55"/>
     <use xlink:href="#m68ed8039f5" x="141.306355" y="81.352886" style="fill: #e1cc55; stroke: #e1cc55"/>
     <use xlink:href="#m68ed8039f5" x="161.033628" y="67.680989" style="fill: #e1cc55; stroke: #e1cc55"/>
     <use xlink:href="#m68ed8039f5" x="180.760901" y="55.268082" style="fill: #e1cc55; stroke: #e1cc55"/>
     <use xlink:href="#m68ed8039f5" x="200.488174" y="47.381114" style="fill: #e1cc55; stroke: #e1cc55"/>
     <use xlink:href="#m68ed8039f5" x="220.215446" y="67.400857" style="fill: #e1cc55; stroke: #e1cc55"/>
    </g>
   </g>
   <g id="line2d_115">
    <path d="M 42.669992 151.276229 
L 62.397265 140.797763 
L 82.124537 129.727152 
L 101.85181 117.654621 
L 121.579083 104.572829 
L 141.306355 90.397071 
L 161.033628 74.969187 
L 180.760901 59.750518 
L 200.488174 52.61503 
L 220.215446 63.977992 
" clip-path="url(#peda0b70d0c)" style="fill: none; stroke: #e6d051; stroke-linecap: square"/>
    <defs>
     <path id="mb3b75d5763" d="M 0 1.5 
C 0.397805 1.5 0.77937 1.341951 1.06066 1.06066 
C 1.341951 0.77937 1.5 0.397805 1.5 0 
C 1.5 -0.397805 1.341951 -0.77937 1.06066 -1.06066 
C 0.77937 -1.341951 0.397805 -1.5 0 -1.5 
C -0.397805 -1.5 -0.77937 -1.341951 -1.06066 -1.06066 
C -1.341951 -0.77937 -1.5 -0.397805 -1.5 0 
C -1.5 0.397805 -1.341951 0.77937 -1.06066 1.06066 
C -0.77937 1.341951 -0.397805 1.5 0 1.5 
z
" style="stroke: #e6d051"/>
    </defs>
    <g clip-path="url(#peda0b70d0c)">
     <use xlink:href="#mb3b75d5763" x="42.669992" y="151.276229" style="fill: #e6d051; stroke: #e6d051"/>
     <use xlink:href="#mb3b75d5763" x="62.397265" y="140.797763" style="fill: #e6d051; stroke: #e6d051"/>
     <use xlink:href="#mb3b75d5763" x="82.124537" y="129.727152" style="fill: #e6d051; stroke: #e6d051"/>
     <use xlink:href="#mb3b75d5763" x="101.85181" y="117.654621" style="fill: #e6d051; stroke: #e6d051"/>
     <use xlink:href="#mb3b75d5763" x="121.579083" y="104.572829" style="fill: #e6d051; stroke: #e6d051"/>
     <use xlink:href="#mb3b75d5763" x="141.306355" y="90.397071" style="fill: #e6d051; stroke: #e6d051"/>
     <use xlink:href="#mb3b75d5763" x="161.033628" y="74.969187" style="fill: #e6d051; stroke: #e6d051"/>
     <use xlink:href="#mb3b75d5763" x="180.760901" y="59.750518" style="fill: #e6d051; stroke: #e6d051"/>
     <use xlink:href="#mb3b75d5763" x="200.488174" y="52.61503" style="fill: #e6d051; stroke: #e6d051"/>
     <use xlink:href="#mb3b75d5763" x="220.215446" y="63.977992" style="fill: #e6d051; stroke: #e6d051"/>
    </g>
   </g>
   <g id="line2d_116">
    <path d="M 42.669992 151.059991 
L 62.397265 139.991874 
L 82.124537 128.126885 
L 101.85181 115.015079 
L 121.579083 100.830929 
L 141.306355 85.212128 
L 161.033628 67.72724 
L 180.760901 49.924743 
L 200.488174 43.401972 
L 220.215446 76.051568 
" clip-path="url(#peda0b70d0c)" style="fill: none; stroke: #ebd44b; stroke-linecap: square"/>
    <defs>
     <path id="ma91683ac7f" d="M 0 1.5 
C 0.397805 1.5 0.77937 1.341951 1.06066 1.06066 
C 1.341951 0.77937 1.5 0.397805 1.5 0 
C 1.5 -0.397805 1.341951 -0.77937 1.06066 -1.06066 
C 0.77937 -1.341951 0.397805 -1.5 0 -1.5 
C -0.397805 -1.5 -0.77937 -1.341951 -1.06066 -1.06066 
C -1.341951 -0.77937 -1.5 -0.397805 -1.5 0 
C -1.5 0.397805 -1.341951 0.77937 -1.06066 1.06066 
C -0.77937 1.341951 -0.397805 1.5 0 1.5 
z
" style="stroke: #ebd44b"/>
    </defs>
    <g clip-path="url(#peda0b70d0c)">
     <use xlink:href="#ma91683ac7f" x="42.669992" y="151.059991" style="fill: #ebd44b; stroke: #ebd44b"/>
     <use xlink:href="#ma91683ac7f" x="62.397265" y="139.991874" style="fill: #ebd44b; stroke: #ebd44b"/>
     <use xlink:href="#ma91683ac7f" x="82.124537" y="128.126885" style="fill: #ebd44b; stroke: #ebd44b"/>
     <use xlink:href="#ma91683ac7f" x="101.85181" y="115.015079" style="fill: #ebd44b; stroke: #ebd44b"/>
     <use xlink:href="#ma91683ac7f" x="121.579083" y="100.830929" style="fill: #ebd44b; stroke: #ebd44b"/>
     <use xlink:href="#ma91683ac7f" x="141.306355" y="85.212128" style="fill: #ebd44b; stroke: #ebd44b"/>
     <use xlink:href="#ma91683ac7f" x="161.033628" y="67.72724" style="fill: #ebd44b; stroke: #ebd44b"/>
     <use xlink:href="#ma91683ac7f" x="180.760901" y="49.924743" style="fill: #ebd44b; stroke: #ebd44b"/>
     <use xlink:href="#ma91683ac7f" x="200.488174" y="43.401972" style="fill: #ebd44b; stroke: #ebd44b"/>
     <use xlink:href="#ma91683ac7f" x="220.215446" y="76.051568" style="fill: #ebd44b; stroke: #ebd44b"/>
    </g>
   </g>
   <g id="line2d_117">
    <path d="M 42.669992 150.83185 
L 62.397265 139.126217 
L 82.124537 126.371137 
L 101.85181 112.150829 
L 121.579083 96.703007 
L 141.306355 79.566629 
L 161.033628 60.472991 
L 180.760901 41.519365 
L 200.488174 35.420522 
L 220.215446 86.936681 
" clip-path="url(#peda0b70d0c)" style="fill: none; stroke: #f1d945; stroke-linecap: square"/>
    <defs>
     <path id="m24ec603bbb" d="M 0 1.5 
C 0.397805 1.5 0.77937 1.341951 1.06066 1.06066 
C 1.341951 0.77937 1.5 0.397805 1.5 0 
C 1.5 -0.397805 1.341951 -0.77937 1.06066 -1.06066 
C 0.77937 -1.341951 0.397805 -1.5 0 -1.5 
C -0.397805 -1.5 -0.77937 -1.341951 -1.06066 -1.06066 
C -1.341951 -0.77937 -1.5 -0.397805 -1.5 0 
C -1.5 0.397805 -1.341951 0.77937 -1.06066 1.06066 
C -0.77937 1.341951 -0.397805 1.5 0 1.5 
z
" style="stroke: #f1d945"/>
    </defs>
    <g clip-path="url(#peda0b70d0c)">
     <use xlink:href="#m24ec603bbb" x="42.669992" y="150.83185" style="fill: #f1d945; stroke: #f1d945"/>
     <use xlink:href="#m24ec603bbb" x="62.397265" y="139.126217" style="fill: #f1d945; stroke: #f1d945"/>
     <use xlink:href="#m24ec603bbb" x="82.124537" y="126.371137" style="fill: #f1d945; stroke: #f1d945"/>
     <use xlink:href="#m24ec603bbb" x="101.85181" y="112.150829" style="fill: #f1d945; stroke: #f1d945"/>
     <use xlink:href="#m24ec603bbb" x="121.579083" y="96.703007" style="fill: #f1d945; stroke: #f1d945"/>
     <use xlink:href="#m24ec603bbb" x="141.306355" y="79.566629" style="fill: #f1d945; stroke: #f1d945"/>
     <use xlink:href="#m24ec603bbb" x="161.033628" y="60.472991" style="fill: #f1d945; stroke: #f1d945"/>
     <use xlink:href="#m24ec603bbb" x="180.760901" y="41.519365" style="fill: #f1d945; stroke: #f1d945"/>
     <use xlink:href="#m24ec603bbb" x="200.488174" y="35.420522" style="fill: #f1d945; stroke: #f1d945"/>
     <use xlink:href="#m24ec603bbb" x="220.215446" y="86.936681" style="fill: #f1d945; stroke: #f1d945"/>
    </g>
   </g>
   <g id="line2d_118">
    <path d="M 42.669992 150.534396 
L 62.397265 138.053515 
L 82.124537 124.2458 
L 101.85181 108.617661 
L 121.579083 91.56826 
L 141.306355 72.615266 
L 161.033628 52.521492 
L 180.760901 34.088903 
L 200.488174 28.004119 
L 220.215446 95.432994 
" clip-path="url(#peda0b70d0c)" style="fill: none; stroke: #f7de3e; stroke-linecap: square"/>
    <defs>
     <path id="m4991f6b953" d="M 0 1.5 
C 0.397805 1.5 0.77937 1.341951 1.06066 1.06066 
C 1.341951 0.77937 1.5 0.397805 1.5 0 
C 1.5 -0.397805 1.341951 -0.77937 1.06066 -1.06066 
C 0.77937 -1.341951 0.397805 -1.5 0 -1.5 
C -0.397805 -1.5 -0.77937 -1.341951 -1.06066 -1.06066 
C -1.341951 -0.77937 -1.5 -0.397805 -1.5 0 
C -1.5 0.397805 -1.341951 0.77937 -1.06066 1.06066 
C -0.77937 1.341951 -0.397805 1.5 0 1.5 
z
" style="stroke: #f7de3e"/>
    </defs>
    <g clip-path="url(#peda0b70d0c)">
     <use xlink:href="#m4991f6b953" x="42.669992" y="150.534396" style="fill: #f7de3e; stroke: #f7de3e"/>
     <use xlink:href="#m4991f6b953" x="62.397265" y="138.053515" style="fill: #f7de3e; stroke: #f7de3e"/>
     <use xlink:href="#m4991f6b953" x="82.124537" y="124.2458" style="fill: #f7de3e; stroke: #f7de3e"/>
     <use xlink:href="#m4991f6b953" x="101.85181" y="108.617661" style="fill: #f7de3e; stroke: #f7de3e"/>
     <use xlink:href="#m4991f6b953" x="121.579083" y="91.56826" style="fill: #f7de3e; stroke: #f7de3e"/>
     <use xlink:href="#m4991f6b953" x="141.306355" y="72.615266" style="fill: #f7de3e; stroke: #f7de3e"/>
     <use xlink:href="#m4991f6b953" x="161.033628" y="52.521492" style="fill: #f7de3e; stroke: #f7de3e"/>
     <use xlink:href="#m4991f6b953" x="180.760901" y="34.088903" style="fill: #f7de3e; stroke: #f7de3e"/>
     <use xlink:href="#m4991f6b953" x="200.488174" y="28.004119" style="fill: #f7de3e; stroke: #f7de3e"/>
     <use xlink:href="#m4991f6b953" x="220.215446" y="95.432994" style="fill: #f7de3e; stroke: #f7de3e"/>
    </g>
   </g>
   <g id="line2d_119">
    <path d="M 42.669992 150.203272 
L 62.397265 136.9953 
L 82.124537 122.167659 
L 101.85181 105.31435 
L 121.579083 86.76209 
L 141.306355 66.659238 
L 161.033628 47.103043 
L 180.760901 29.960242 
L 200.488174 31.231301 
L 220.215446 107.262668 
" clip-path="url(#peda0b70d0c)" style="fill: none; stroke: #fce236; stroke-linecap: square"/>
    <defs>
     <path id="m100123bbdc" d="M 0 1.5 
C 0.397805 1.5 0.77937 1.341951 1.06066 1.06066 
C 1.341951 0.77937 1.5 0.397805 1.5 0 
C 1.5 -0.397805 1.341951 -0.77937 1.06066 -1.06066 
C 0.77937 -1.341951 0.397805 -1.5 0 -1.5 
C -0.397805 -1.5 -0.77937 -1.341951 -1.06066 -1.06066 
C -1.341951 -0.77937 -1.5 -0.397805 -1.5 0 
C -1.5 0.397805 -1.341951 0.77937 -1.06066 1.06066 
C -0.77937 1.341951 -0.397805 1.5 0 1.5 
z
" style="stroke: #fce236"/>
    </defs>
    <g clip-path="url(#peda0b70d0c)">
     <use xlink:href="#m100123bbdc" x="42.669992" y="150.203272" style="fill: #fce236; stroke: #fce236"/>
     <use xlink:href="#m100123bbdc" x="62.397265" y="136.9953" style="fill: #fce236; stroke: #fce236"/>
     <use xlink:href="#m100123bbdc" x="82.124537" y="122.167659" style="fill: #fce236; stroke: #fce236"/>
     <use xlink:href="#m100123bbdc" x="101.85181" y="105.31435" style="fill: #fce236; stroke: #fce236"/>
     <use xlink:href="#m100123bbdc" x="121.579083" y="86.76209" style="fill: #fce236; stroke: #fce236"/>
     <use xlink:href="#m100123bbdc" x="141.306355" y="66.659238" style="fill: #fce236; stroke: #fce236"/>
     <use xlink:href="#m100123bbdc" x="161.033628" y="47.103043" style="fill: #fce236; stroke: #fce236"/>
     <use xlink:href="#m100123bbdc" x="180.760901" y="29.960242" style="fill: #fce236; stroke: #fce236"/>
     <use xlink:href="#m100123bbdc" x="200.488174" y="31.231301" style="fill: #fce236; stroke: #fce236"/>
     <use xlink:href="#m100123bbdc" x="220.215446" y="107.262668" style="fill: #fce236; stroke: #fce236"/>
    </g>
   </g>
   <g id="line2d_120">
    <path d="M 42.669992 149.720837 
L 62.397265 135.520263 
L 82.124537 119.352639 
L 101.85181 100.869706 
L 121.579083 80.609549 
L 141.306355 60.597244 
L 161.033628 43.288999 
L 180.760901 28.584761 
L 200.488174 31.42949 
L 220.215446 124.243831 
" clip-path="url(#peda0b70d0c)" style="fill: none; stroke: #fee838; stroke-linecap: square"/>
    <defs>
     <path id="me2c5153393" d="M 0 1.5 
C 0.397805 1.5 0.77937 1.341951 1.06066 1.06066 
C 1.341951 0.77937 1.5 0.397805 1.5 0 
C 1.5 -0.397805 1.341951 -0.77937 1.06066 -1.06066 
C 0.77937 -1.341951 0.397805 -1.5 0 -1.5 
C -0.397805 -1.5 -0.77937 -1.341951 -1.06066 -1.06066 
C -1.341951 -0.77937 -1.5 -0.397805 -1.5 0 
C -1.5 0.397805 -1.341951 0.77937 -1.06066 1.06066 
C -0.77937 1.341951 -0.397805 1.5 0 1.5 
z
" style="stroke: #fee838"/>
    </defs>
    <g clip-path="url(#peda0b70d0c)">
     <use xlink:href="#me2c5153393" x="42.669992" y="149.720837" style="fill: #fee838; stroke: #fee838"/>
     <use xlink:href="#me2c5153393" x="62.397265" y="135.520263" style="fill: #fee838; stroke: #fee838"/>
     <use xlink:href="#me2c5153393" x="82.124537" y="119.352639" style="fill: #fee838; stroke: #fee838"/>
     <use xlink:href="#me2c5153393" x="101.85181" y="100.869706" style="fill: #fee838; stroke: #fee838"/>
     <use xlink:href="#me2c5153393" x="121.579083" y="80.609549" style="fill: #fee838; stroke: #fee838"/>
     <use xlink:href="#me2c5153393" x="141.306355" y="60.597244" style="fill: #fee838; stroke: #fee838"/>
     <use xlink:href="#me2c5153393" x="161.033628" y="43.288999" style="fill: #fee838; stroke: #fee838"/>
     <use xlink:href="#me2c5153393" x="180.760901" y="28.584761" style="fill: #fee838; stroke: #fee838"/>
     <use xlink:href="#me2c5153393" x="200.488174" y="31.42949" style="fill: #fee838; stroke: #fee838"/>
     <use xlink:href="#me2c5153393" x="220.215446" y="124.243831" style="fill: #fee838; stroke: #fee838"/>
    </g>
   </g>
   <g id="patch_3">
    <path d="M 33.792719 166.919119 
L 33.792719 21.389119 
" style="fill: none; stroke: #000000; stroke-width: 0.5; stroke-linejoin: miter; stroke-linecap: square"/>
   </g>
   <g id="patch_4">
    <path d="M 229.092719 166.919119 
L 229.092719 21.389119 
" style="fill: none; stroke: #000000; stroke-width: 0.5; stroke-linejoin: miter; stroke-linecap: square"/>
   </g>
   <g id="patch_5">
    <path d="M 33.792719 166.919119 
L 229.092719 166.919119 
" style="fill: none; stroke: #000000; stroke-width: 0.5; stroke-linejoin: miter; stroke-linecap: square"/>
   </g>
   <g id="patch_6">
    <path d="M 33.792719 21.389119 
L 229.092719 21.389119 
" style="fill: none; stroke: #000000; stroke-width: 0.5; stroke-linejoin: miter; stroke-linecap: square"/>
   </g>
   <g id="text_14">
    <!-- $\phi_i(t) = \widetilde{\phi}_i\sin(2\pi f_0 \cdot t- \varphi_i)$ -->
    <g transform="translate(62.885858 15.389119) scale(0.12 -0.12)">
     <defs>
      <path id="CMMI12-1e" d="M 2752 4390 
C 2752 4448 2707 4448 2688 4448 
C 2630 4448 2624 4435 2598 4326 
L 2253 2939 
C 2234 2856 2227 2849 2221 2843 
C 2214 2830 2170 2824 2157 2824 
C 1107 2734 301 1864 301 1057 
C 301 361 832 -64 1498 -64 
C 1446 -261 1402 -463 1350 -659 
C 1261 -995 1210 -1204 1210 -1229 
C 1210 -1241 1210 -1280 1274 -1280 
C 1293 -1280 1318 -1280 1331 -1254 
C 1344 -1241 1382 -1089 1408 -1008 
L 1645 -64 
C 2739 -64 3571 854 3571 1680 
C 3571 2343 3085 2816 2374 2816 
L 2752 4390 
z
M 2336 2701 
C 2758 2701 3181 2463 3181 1828 
C 3181 1097 2675 128 1677 50 
L 2336 2701 
z
M 1530 50 
C 1216 50 691 220 691 938 
C 691 1761 1274 2676 2195 2676 
L 1530 50 
z
" transform="scale(0.015625)"/>
      <path id="CMR17-28" d="M 1958 -1561 
C 1958 -1555 1958 -1542 1939 -1523 
C 1645 -1224 858 -407 858 1581 
C 858 3569 1632 4379 1946 4697 
C 1946 4704 1958 4717 1958 4736 
C 1958 4755 1939 4768 1914 4768 
C 1843 4768 1299 4296 986 3594 
C 666 2887 576 2199 576 1588 
C 576 1128 621 351 1005 -471 
C 1312 -1135 1837 -1600 1914 -1600 
C 1946 -1600 1958 -1587 1958 -1561 
z
" transform="scale(0.015625)"/>
      <path id="CMMI12-74" d="M 1286 2566 
L 1875 2566 
C 1997 2566 2061 2566 2061 2681 
C 2061 2752 2022 2752 1894 2752 
L 1331 2752 
L 1568 3692 
C 1594 3781 1594 3794 1594 3840 
C 1594 3943 1510 4000 1427 4000 
C 1376 4000 1229 3981 1178 3775 
L 928 2752 
L 326 2752 
C 198 2752 141 2752 141 2630 
C 141 2566 186 2566 307 2566 
L 877 2566 
L 454 881 
C 403 658 384 594 384 511 
C 384 211 595 -64 954 -64 
C 1600 -64 1946 868 1946 912 
C 1946 951 1920 970 1882 970 
C 1869 970 1843 970 1830 944 
C 1824 938 1818 931 1773 829 
C 1638 511 1344 64 973 64 
C 781 64 768 224 768 364 
C 768 370 768 492 787 568 
L 1286 2566 
z
" transform="scale(0.015625)"/>
      <path id="CMR17-29" d="M 1683 1581 
C 1683 2040 1638 2817 1254 3639 
C 947 4303 422 4768 346 4768 
C 326 4768 301 4761 301 4729 
C 301 4717 307 4710 314 4697 
C 621 4378 1402 3568 1402 1584 
C 1402 -407 627 -1217 314 -1537 
C 307 -1549 301 -1556 301 -1568 
C 301 -1600 326 -1600 346 -1600 
C 416 -1600 960 -1128 1274 -426 
C 1594 281 1683 969 1683 1581 
z
" transform="scale(0.015625)"/>
      <path id="CMR17-3d" d="M 4115 2017 
C 4211 2017 4307 2017 4307 2125 
C 4307 2240 4198 2240 4090 2240 
L 512 2240 
C 403 2240 294 2240 294 2125 
C 294 2017 390 2017 486 2017 
L 4115 2017 
z
M 4090 896 
C 4198 896 4307 896 4307 1011 
C 4307 1119 4211 1119 4115 1119 
L 486 1119 
C 390 1119 294 1119 294 1011 
C 294 896 403 896 512 896 
L 4090 896 
z
" transform="scale(0.015625)"/>
      <path id="CMEX10-65" d="M 3462 4621 
C 3149 4358 2810 4166 2483 4166 
C 2227 4166 2042 4275 1818 4403 
C 1632 4512 1434 4621 1178 4621 
C 1018 4621 851 4570 710 4506 
C 582 4442 454 4371 346 4282 
L 0 4000 
L 90 3891 
C 403 4154 742 4346 1069 4346 
C 1325 4346 1510 4237 1734 4109 
C 1920 4000 2118 3891 2374 3891 
C 2534 3891 2701 3942 2842 4006 
C 2970 4070 3098 4141 3206 4230 
L 3552 4512 
L 3462 4621 
z
" transform="scale(0.015625)"/>
      <path id="CMR17-73" d="M 1978 2697 
C 1978 2813 1971 2819 1933 2819 
C 1907 2819 1901 2813 1824 2717 
C 1805 2691 1747 2626 1728 2601 
C 1523 2819 1235 2819 1126 2819 
C 416 2819 160 2447 160 2076 
C 160 1498 813 1365 998 1325 
C 1402 1243 1542 1217 1677 1101 
C 1760 1025 1901 884 1901 654 
C 1901 384 1747 38 1158 38 
C 602 38 403 460 288 1021 
C 269 1110 269 1117 218 1117 
C 166 1117 160 1110 160 983 
L 160 63 
C 160 -51 166 -58 205 -58 
C 237 -58 243 -51 275 0 
C 314 57 410 211 448 276 
C 576 103 800 -64 1158 -64 
C 1792 -64 2131 283 2131 784 
C 2131 1112 1958 1285 1875 1362 
C 1683 1561 1459 1606 1190 1657 
C 838 1735 390 1825 390 2217 
C 390 2383 480 2737 1126 2737 
C 1811 2737 1850 2094 1862 1888 
C 1869 1856 1901 1849 1920 1849 
C 1978 1849 1978 1869 1978 1978 
L 1978 2697 
z
" transform="scale(0.015625)"/>
      <path id="CMR17-69" d="M 992 3909 
C 992 4049 877 4170 730 4170 
C 589 4170 467 4056 467 3909 
C 467 3769 582 3648 730 3648 
C 870 3648 992 3763 992 3909 
z
M 243 2706 
L 243 2541 
C 602 2541 653 2502 653 2197 
L 653 427 
C 653 184 627 153 218 153 
L 218 -13 
C 371 0 646 0 806 0 
C 960 0 1222 0 1370 -13 
L 1370 153 
C 992 153 979 191 979 420 
L 979 2776 
L 243 2706 
z
" transform="scale(0.015625)"/>
      <path id="CMR17-6e" d="M 2656 1933 
C 2656 2259 2592 2790 1837 2790 
C 1331 2790 1069 2400 973 2144 
L 966 2144 
L 966 2790 
L 211 2720 
L 211 2554 
C 589 2554 646 2515 646 2208 
L 646 428 
C 646 184 621 153 211 153 
L 211 -13 
C 365 0 646 0 813 0 
C 979 0 1267 0 1421 -13 
L 1421 153 
C 1011 153 986 178 986 428 
L 986 1658 
C 986 2247 1344 2688 1792 2688 
C 2266 2688 2317 2266 2317 1958 
L 2317 428 
C 2317 184 2291 153 1882 153 
L 1882 -13 
C 2035 0 2317 0 2483 0 
C 2650 0 2938 0 3091 -13 
L 3091 153 
C 2682 153 2656 178 2656 428 
L 2656 1933 
z
" transform="scale(0.015625)"/>
      <path id="CMMI12-66" d="M 2854 2566 
C 2982 2566 3034 2566 3034 2688 
C 3034 2752 2982 2752 2867 2752 
L 2349 2752 
C 2470 3429 2560 3897 2611 4107 
C 2650 4265 2784 4416 2950 4416 
C 3085 4416 3219 4358 3283 4298 
C 3034 4272 2957 4082 2957 3969 
C 2957 3837 3053 3759 3174 3759 
C 3302 3759 3494 3870 3494 4119 
C 3494 4393 3226 4544 2944 4544 
C 2669 4544 2400 4334 2272 4078 
C 2157 3848 2093 3611 1946 2752 
L 1517 2752 
C 1395 2752 1331 2752 1331 2637 
C 1331 2566 1370 2566 1498 2566 
L 1907 2566 
C 1792 1976 1530 542 1382 -137 
C 1274 -689 1178 -1152 858 -1152 
C 838 -1152 653 -1152 538 -1031 
C 864 -1005 864 -726 864 -720 
C 864 -593 768 -517 646 -517 
C 518 -517 326 -625 326 -867 
C 326 -1140 608 -1280 858 -1280 
C 1510 -1280 1779 -118 1850 199 
C 1965 688 2278 2376 2310 2566 
L 2854 2566 
z
" transform="scale(0.015625)"/>
      <path id="CMSY10-1" d="M 1229 1619 
C 1229 1805 1075 1958 890 1958 
C 704 1958 550 1805 550 1619 
C 550 1433 704 1280 890 1280 
C 1075 1280 1229 1433 1229 1619 
z
" transform="scale(0.015625)"/>
      <path id="CMSY10-0" d="M 4218 1472 
C 4326 1472 4442 1472 4442 1600 
C 4442 1728 4326 1728 4218 1728 
L 755 1728 
C 646 1728 531 1728 531 1600 
C 531 1472 646 1472 755 1472 
L 4218 1472 
z
" transform="scale(0.015625)"/>
     </defs>
     <use xlink:href="#CMMI12-1e" transform="scale(0.996264)"/>
     <use xlink:href="#CMMI12-69" transform="translate(57.73418 -14.943915) scale(0.697382)"/>
     <use xlink:href="#CMR17-28" transform="translate(81.52722 0) scale(0.996264)"/>
     <use xlink:href="#CMMI12-74" transform="translate(116.807988 0) scale(0.996264)"/>
     <use xlink:href="#CMR17-29" transform="translate(152.034318 0) scale(0.996264)"/>
     <use xlink:href="#CMR17-3d" transform="translate(214.989094 0) scale(0.996264)"/>
     <use xlink:href="#CMEX10-65" transform="translate(323.70005 26.290251) scale(0.996264)"/>
     <use xlink:href="#CMMI12-1e" transform="translate(314.377891 0) scale(0.996264)"/>
     <use xlink:href="#CMMI12-69" transform="translate(372.112072 -14.943915) scale(0.697382)"/>
     <use xlink:href="#CMR17-73" transform="translate(412.509516 0) scale(0.996264)"/>
     <use xlink:href="#CMR17-69" transform="translate(448.310854 0) scale(0.996264)"/>
     <use xlink:href="#CMR17-6e" transform="translate(473.181912 0) scale(0.996264)"/>
     <use xlink:href="#CMR17-28" transform="translate(524.077282 0) scale(0.996264)"/>
     <use xlink:href="#CMR17-32" transform="translate(559.35805 0) scale(0.996264)"/>
     <use xlink:href="#CMMI12-19" transform="translate(605.048527 0) scale(0.996264)"/>
     <use xlink:href="#CMMI12-66" transform="translate(663.959128 0) scale(0.996264)"/>
     <use xlink:href="#CMR17-30" transform="translate(712.042366 -14.943915) scale(0.697382)"/>
     <use xlink:href="#CMSY10-1" transform="translate(766.662886 0) scale(0.996264)"/>
     <use xlink:href="#CMMI12-74" transform="translate(816.476178 0) scale(0.996264)"/>
     <use xlink:href="#CMSY10-0" transform="translate(873.841715 0) scale(0.996264)"/>
     <use xlink:href="#CMMI12-27" transform="translate(973.46839 0) scale(0.996264)"/>
     <use xlink:href="#CMMI12-69" transform="translate(1037.371454 -14.943915) scale(0.697382)"/>
     <use xlink:href="#CMR17-29" transform="translate(1061.164493 0) scale(0.996264)"/>
    </g>
   </g>
  </g>
 </g>
 <defs>
  <clipPath id="peda0b70d0c">
   <rect x="33.792719" y="21.389119" width="195.3" height="145.53"/>
  </clipPath>
 </defs>
</svg>
