<?xml version="1.0" encoding="utf-8" standalone="no"?>
<!DOCTYPE svg PUBLIC "-//W3C//DTD SVG 1.1//EN"
  "http://www.w3.org/Graphics/SVG/1.1/DTD/svg11.dtd">
<svg xmlns:xlink="http://www.w3.org/1999/xlink" width="237.674054pt" height="179.048317pt" viewBox="0 0 237.674054 179.048317" xmlns="http://www.w3.org/2000/svg" version="1.1">
 <metadata>
  <rdf:RDF xmlns:dc="http://purl.org/dc/elements/1.1/" xmlns:cc="http://creativecommons.org/ns#" xmlns:rdf="http://www.w3.org/1999/02/22-rdf-syntax-ns#">
   <cc:Work>
    <dc:type rdf:resource="http://purl.org/dc/dcmitype/StillImage"/>
    <dc:date>2025-10-08T09:14:45.546687</dc:date>
    <dc:format>image/svg+xml</dc:format>
    <dc:creator>
     <cc:Agent>
      <dc:title>Matplotlib v3.9.2, https://matplotlib.org/</dc:title>
     </cc:Agent>
    </dc:creator>
   </cc:Work>
  </rdf:RDF>
 </metadata>
 <defs>
  <style type="text/css">*{stroke-linejoin: round; stroke-linecap: butt}</style>
 </defs>
 <g id="figure_1">
  <g id="patch_1">
   <path d="M -0 179.048317 
L 237.674054 179.048317 
L 237.674054 0 
L -0 0 
L -0 179.048317 
z
" style="fill: none"/>
  </g>
  <g id="axes_1">
   <g id="patch_2">
    <path d="M 38.774054 149.13 
L 234.074054 149.13 
L 234.074054 3.6 
L 38.774054 3.6 
L 38.774054 149.13 
z
" style="fill: none"/>
   </g>
   <g id="matplotlib.axis_1">
    <g id="xtick_1">
     <g id="line2d_1">
      <path d="M 38.774054 149.13 
L 38.774054 3.6 
" clip-path="url(#p22f5c2f7d2)" style="fill: none; stroke-dasharray: 1.85,0.8; stroke-dashoffset: 0; stroke: #000000; stroke-opacity: 0.5; stroke-width: 0.5"/>
     </g>
     <g id="line2d_2">
      <defs>
       <path id="m5f3b81dfc8" d="M 0 0 
L 0 -3 
" style="stroke: #000000; stroke-width: 0.5"/>
      </defs>
      <g>
       <use xlink:href="#m5f3b81dfc8" x="38.774054" y="149.13" style="stroke: #000000; stroke-width: 0.5"/>
      </g>
     </g>
     <g id="line2d_3">
      <defs>
       <path id="m00f03b5a5a" d="M 0 0 
L 0 3 
" style="stroke: #000000; stroke-width: 0.5"/>
      </defs>
      <g>
       <use xlink:href="#m00f03b5a5a" x="38.774054" y="3.6" style="stroke: #000000; stroke-width: 0.5"/>
      </g>
     </g>
     <g id="text_1">
      <!-- $\mathdefault{0.00}$ -->
      <g transform="translate(29.918347 159.548498) scale(0.1 -0.1)">
       <defs>
        <path id="CMR17-30" d="M 2688 2025 
C 2688 2416 2682 3080 2413 3591 
C 2176 4039 1798 4198 1466 4198 
C 1158 4198 768 4058 525 3597 
C 269 3118 243 2524 243 2025 
C 243 1661 250 1106 448 619 
C 723 -39 1216 -128 1466 -128 
C 1760 -128 2208 -7 2470 600 
C 2662 1042 2688 1559 2688 2025 
z
M 1466 -26 
C 1056 -26 813 325 723 812 
C 653 1188 653 1738 653 2096 
C 653 2588 653 2997 736 3387 
C 858 3929 1216 4096 1466 4096 
C 1728 4096 2067 3923 2189 3400 
C 2272 3036 2278 2607 2278 2096 
C 2278 1680 2278 1169 2202 792 
C 2067 95 1690 -26 1466 -26 
z
" transform="scale(0.015625)"/>
        <path id="CMMI12-3a" d="M 1178 307 
C 1178 492 1024 619 870 619 
C 685 619 557 466 557 313 
C 557 128 710 0 864 0 
C 1050 0 1178 153 1178 307 
z
" transform="scale(0.015625)"/>
       </defs>
       <use xlink:href="#CMR17-30" transform="scale(0.996264)"/>
       <use xlink:href="#CMMI12-3a" transform="translate(45.690477 0) scale(0.996264)"/>
       <use xlink:href="#CMR17-30" transform="translate(72.787654 0) scale(0.996264)"/>
       <use xlink:href="#CMR17-30" transform="translate(118.478131 0) scale(0.996264)"/>
      </g>
     </g>
    </g>
    <g id="xtick_2">
     <g id="line2d_4">
      <path d="M 91.895654 149.13 
L 91.895654 3.6 
" clip-path="url(#p22f5c2f7d2)" style="fill: none; stroke-dasharray: 1.85,0.8; stroke-dashoffset: 0; stroke: #000000; stroke-opacity: 0.5; stroke-width: 0.5"/>
     </g>
     <g id="line2d_5">
      <g>
       <use xlink:href="#m5f3b81dfc8" x="91.895654" y="149.13" style="stroke: #000000; stroke-width: 0.5"/>
      </g>
     </g>
     <g id="line2d_6">
      <g>
       <use xlink:href="#m00f03b5a5a" x="91.895654" y="3.6" style="stroke: #000000; stroke-width: 0.5"/>
      </g>
     </g>
     <g id="text_2">
      <!-- $\mathdefault{0.02}$ -->
      <g transform="translate(83.039947 159.548498) scale(0.1 -0.1)">
       <defs>
        <path id="CMR17-32" d="M 2669 989 
L 2554 989 
C 2490 536 2438 459 2413 420 
C 2381 369 1920 369 1830 369 
L 602 369 
C 832 619 1280 1072 1824 1597 
C 2214 1967 2669 2402 2669 3035 
C 2669 3790 2067 4224 1395 4224 
C 691 4224 262 3604 262 3030 
C 262 2780 448 2748 525 2748 
C 589 2748 781 2787 781 3010 
C 781 3207 614 3264 525 3264 
C 486 3264 448 3258 422 3245 
C 544 3790 915 4058 1306 4058 
C 1862 4058 2227 3617 2227 3035 
C 2227 2479 1901 2000 1536 1584 
L 262 146 
L 262 0 
L 2515 0 
L 2669 989 
z
" transform="scale(0.015625)"/>
       </defs>
       <use xlink:href="#CMR17-30" transform="scale(0.996264)"/>
       <use xlink:href="#CMMI12-3a" transform="translate(45.690477 0) scale(0.996264)"/>
       <use xlink:href="#CMR17-30" transform="translate(72.787654 0) scale(0.996264)"/>
       <use xlink:href="#CMR17-32" transform="translate(118.478131 0) scale(0.996264)"/>
      </g>
     </g>
    </g>
    <g id="xtick_3">
     <g id="line2d_7">
      <path d="M 145.017254 149.13 
L 145.017254 3.6 
" clip-path="url(#p22f5c2f7d2)" style="fill: none; stroke-dasharray: 1.85,0.8; stroke-dashoffset: 0; stroke: #000000; stroke-opacity: 0.5; stroke-width: 0.5"/>
     </g>
     <g id="line2d_8">
      <g>
       <use xlink:href="#m5f3b81dfc8" x="145.017254" y="149.13" style="stroke: #000000; stroke-width: 0.5"/>
      </g>
     </g>
     <g id="line2d_9">
      <g>
       <use xlink:href="#m00f03b5a5a" x="145.017254" y="3.6" style="stroke: #000000; stroke-width: 0.5"/>
      </g>
     </g>
     <g id="text_3">
      <!-- $\mathdefault{0.04}$ -->
      <g transform="translate(136.161547 159.548498) scale(0.1 -0.1)">
       <defs>
        <path id="CMR17-34" d="M 2150 4122 
C 2150 4256 2144 4256 2029 4256 
L 128 1254 
L 128 1088 
L 1779 1088 
L 1779 457 
C 1779 224 1766 160 1318 160 
L 1197 160 
L 1197 0 
C 1402 0 1747 0 1965 0 
C 2182 0 2528 0 2733 0 
L 2733 160 
L 2611 160 
C 2163 160 2150 224 2150 457 
L 2150 1088 
L 2803 1088 
L 2803 1254 
L 2150 1254 
L 2150 4122 
z
M 1798 3703 
L 1798 1254 
L 256 1254 
L 1798 3703 
z
" transform="scale(0.015625)"/>
       </defs>
       <use xlink:href="#CMR17-30" transform="scale(0.996264)"/>
       <use xlink:href="#CMMI12-3a" transform="translate(45.690477 0) scale(0.996264)"/>
       <use xlink:href="#CMR17-30" transform="translate(72.787654 0) scale(0.996264)"/>
       <use xlink:href="#CMR17-34" transform="translate(118.478131 0) scale(0.996264)"/>
      </g>
     </g>
    </g>
    <g id="xtick_4">
     <g id="line2d_10">
      <path d="M 198.138854 149.13 
L 198.138854 3.6 
" clip-path="url(#p22f5c2f7d2)" style="fill: none; stroke-dasharray: 1.85,0.8; stroke-dashoffset: 0; stroke: #000000; stroke-opacity: 0.5; stroke-width: 0.5"/>
     </g>
     <g id="line2d_11">
      <g>
       <use xlink:href="#m5f3b81dfc8" x="198.138854" y="149.13" style="stroke: #000000; stroke-width: 0.5"/>
      </g>
     </g>
     <g id="line2d_12">
      <g>
       <use xlink:href="#m00f03b5a5a" x="198.138854" y="3.6" style="stroke: #000000; stroke-width: 0.5"/>
      </g>
     </g>
     <g id="text_4">
      <!-- $\mathdefault{0.06}$ -->
      <g transform="translate(189.283147 159.548498) scale(0.1 -0.1)">
       <defs>
        <path id="CMR17-36" d="M 678 2176 
C 678 3690 1395 4032 1811 4032 
C 1946 4032 2272 4009 2400 3776 
C 2298 3776 2106 3776 2106 3553 
C 2106 3381 2246 3323 2336 3323 
C 2394 3323 2566 3348 2566 3560 
C 2566 3954 2246 4179 1805 4179 
C 1043 4179 243 3390 243 1984 
C 243 253 966 -128 1478 -128 
C 2099 -128 2688 427 2688 1283 
C 2688 2081 2170 2662 1517 2662 
C 1126 2662 838 2407 678 1960 
L 678 2176 
z
M 1478 25 
C 691 25 691 1200 691 1436 
C 691 1896 909 2560 1504 2560 
C 1613 2560 1926 2560 2138 2120 
C 2253 1870 2253 1609 2253 1289 
C 2253 944 2253 690 2118 434 
C 1978 171 1773 25 1478 25 
z
" transform="scale(0.015625)"/>
       </defs>
       <use xlink:href="#CMR17-30" transform="scale(0.996264)"/>
       <use xlink:href="#CMMI12-3a" transform="translate(45.690477 0) scale(0.996264)"/>
       <use xlink:href="#CMR17-30" transform="translate(72.787654 0) scale(0.996264)"/>
       <use xlink:href="#CMR17-36" transform="translate(118.478131 0) scale(0.996264)"/>
      </g>
     </g>
    </g>
    <g id="xtick_5">
     <g id="line2d_13">
      <defs>
       <path id="m4585c72725" d="M 0 0 
L 0 -1.5 
" style="stroke: #000000; stroke-width: 0.5"/>
      </defs>
      <g>
       <use xlink:href="#m4585c72725" x="52.054454" y="149.13" style="stroke: #000000; stroke-width: 0.5"/>
      </g>
     </g>
     <g id="line2d_14">
      <defs>
       <path id="m2c77b21da0" d="M 0 0 
L 0 1.5 
" style="stroke: #000000; stroke-width: 0.5"/>
      </defs>
      <g>
       <use xlink:href="#m2c77b21da0" x="52.054454" y="3.6" style="stroke: #000000; stroke-width: 0.5"/>
      </g>
     </g>
    </g>
    <g id="xtick_6">
     <g id="line2d_15">
      <g>
       <use xlink:href="#m4585c72725" x="65.334854" y="149.13" style="stroke: #000000; stroke-width: 0.5"/>
      </g>
     </g>
     <g id="line2d_16">
      <g>
       <use xlink:href="#m2c77b21da0" x="65.334854" y="3.6" style="stroke: #000000; stroke-width: 0.5"/>
      </g>
     </g>
    </g>
    <g id="xtick_7">
     <g id="line2d_17">
      <g>
       <use xlink:href="#m4585c72725" x="78.615254" y="149.13" style="stroke: #000000; stroke-width: 0.5"/>
      </g>
     </g>
     <g id="line2d_18">
      <g>
       <use xlink:href="#m2c77b21da0" x="78.615254" y="3.6" style="stroke: #000000; stroke-width: 0.5"/>
      </g>
     </g>
    </g>
    <g id="xtick_8">
     <g id="line2d_19">
      <g>
       <use xlink:href="#m4585c72725" x="105.176054" y="149.13" style="stroke: #000000; stroke-width: 0.5"/>
      </g>
     </g>
     <g id="line2d_20">
      <g>
       <use xlink:href="#m2c77b21da0" x="105.176054" y="3.6" style="stroke: #000000; stroke-width: 0.5"/>
      </g>
     </g>
    </g>
    <g id="xtick_9">
     <g id="line2d_21">
      <g>
       <use xlink:href="#m4585c72725" x="118.456454" y="149.13" style="stroke: #000000; stroke-width: 0.5"/>
      </g>
     </g>
     <g id="line2d_22">
      <g>
       <use xlink:href="#m2c77b21da0" x="118.456454" y="3.6" style="stroke: #000000; stroke-width: 0.5"/>
      </g>
     </g>
    </g>
    <g id="xtick_10">
     <g id="line2d_23">
      <g>
       <use xlink:href="#m4585c72725" x="131.736854" y="149.13" style="stroke: #000000; stroke-width: 0.5"/>
      </g>
     </g>
     <g id="line2d_24">
      <g>
       <use xlink:href="#m2c77b21da0" x="131.736854" y="3.6" style="stroke: #000000; stroke-width: 0.5"/>
      </g>
     </g>
    </g>
    <g id="xtick_11">
     <g id="line2d_25">
      <g>
       <use xlink:href="#m4585c72725" x="158.297654" y="149.13" style="stroke: #000000; stroke-width: 0.5"/>
      </g>
     </g>
     <g id="line2d_26">
      <g>
       <use xlink:href="#m2c77b21da0" x="158.297654" y="3.6" style="stroke: #000000; stroke-width: 0.5"/>
      </g>
     </g>
    </g>
    <g id="xtick_12">
     <g id="line2d_27">
      <g>
       <use xlink:href="#m4585c72725" x="171.578054" y="149.13" style="stroke: #000000; stroke-width: 0.5"/>
      </g>
     </g>
     <g id="line2d_28">
      <g>
       <use xlink:href="#m2c77b21da0" x="171.578054" y="3.6" style="stroke: #000000; stroke-width: 0.5"/>
      </g>
     </g>
    </g>
    <g id="xtick_13">
     <g id="line2d_29">
      <g>
       <use xlink:href="#m4585c72725" x="184.858454" y="149.13" style="stroke: #000000; stroke-width: 0.5"/>
      </g>
     </g>
     <g id="line2d_30">
      <g>
       <use xlink:href="#m2c77b21da0" x="184.858454" y="3.6" style="stroke: #000000; stroke-width: 0.5"/>
      </g>
     </g>
    </g>
    <g id="xtick_14">
     <g id="line2d_31">
      <g>
       <use xlink:href="#m4585c72725" x="211.419254" y="149.13" style="stroke: #000000; stroke-width: 0.5"/>
      </g>
     </g>
     <g id="line2d_32">
      <g>
       <use xlink:href="#m2c77b21da0" x="211.419254" y="3.6" style="stroke: #000000; stroke-width: 0.5"/>
      </g>
     </g>
    </g>
    <g id="xtick_15">
     <g id="line2d_33">
      <g>
       <use xlink:href="#m4585c72725" x="224.699654" y="149.13" style="stroke: #000000; stroke-width: 0.5"/>
      </g>
     </g>
     <g id="line2d_34">
      <g>
       <use xlink:href="#m2c77b21da0" x="224.699654" y="3.6" style="stroke: #000000; stroke-width: 0.5"/>
      </g>
     </g>
    </g>
    <g id="text_5">
     <!-- $t$ [$\mu$s] -->
     <g transform="translate(125.231058 172.957657) scale(0.1 -0.1)">
      <defs>
       <path id="CMMI12-74" d="M 1286 2566 
L 1875 2566 
C 1997 2566 2061 2566 2061 2681 
C 2061 2752 2022 2752 1894 2752 
L 1331 2752 
L 1568 3692 
C 1594 3781 1594 3794 1594 3840 
C 1594 3943 1510 4000 1427 4000 
C 1376 4000 1229 3981 1178 3775 
L 928 2752 
L 326 2752 
C 198 2752 141 2752 141 2630 
C 141 2566 186 2566 307 2566 
L 877 2566 
L 454 881 
C 403 658 384 594 384 511 
C 384 211 595 -64 954 -64 
C 1600 -64 1946 868 1946 912 
C 1946 951 1920 970 1882 970 
C 1869 970 1843 970 1830 944 
C 1824 938 1818 931 1773 829 
C 1638 511 1344 64 973 64 
C 781 64 768 224 768 364 
C 768 370 768 492 787 568 
L 1286 2566 
z
" transform="scale(0.015625)"/>
       <path id="CMR17-5b" d="M 1504 -1600 
L 1504 -1377 
L 902 -1377 
L 902 4544 
L 1504 4544 
L 1504 4767 
L 678 4767 
L 678 -1600 
L 1504 -1600 
z
" transform="scale(0.015625)"/>
       <path id="CMMI12-16" d="M 922 140 
C 1082 -6 1318 -64 1536 -64 
C 1946 -64 2227 208 2374 405 
C 2438 69 2707 -64 2931 -64 
C 3123 -64 3277 50 3392 277 
C 3494 493 3584 879 3584 903 
C 3584 935 3558 960 3520 960 
C 3462 960 3456 928 3430 834 
C 3334 461 3213 64 2950 64 
C 2765 64 2752 229 2752 358 
C 2752 504 2810 735 2854 926 
L 3034 1615 
C 3059 1737 3130 2023 3162 2139 
C 3200 2292 3270 2567 3270 2592 
C 3270 2688 3194 2752 3098 2752 
C 3040 2752 2906 2726 2854 2535 
L 2406 760 
C 2374 632 2374 619 2291 517 
C 2214 409 1965 64 1562 64 
C 1203 64 1088 326 1088 625 
C 1088 811 1146 1034 1171 1143 
L 1459 2293 
C 1491 2414 1542 2618 1542 2657 
C 1542 2759 1459 2816 1376 2816 
C 1318 2816 1178 2797 1126 2592 
L 198 -1107 
C 192 -1139 179 -1177 179 -1216 
C 179 -1312 256 -1376 352 -1376 
C 538 -1376 576 -1228 621 -1050 
L 922 140 
z
" transform="scale(0.015625)"/>
       <path id="CMR17-73" d="M 1978 2697 
C 1978 2813 1971 2819 1933 2819 
C 1907 2819 1901 2813 1824 2717 
C 1805 2691 1747 2626 1728 2601 
C 1523 2819 1235 2819 1126 2819 
C 416 2819 160 2447 160 2076 
C 160 1498 813 1365 998 1325 
C 1402 1243 1542 1217 1677 1101 
C 1760 1025 1901 884 1901 654 
C 1901 384 1747 38 1158 38 
C 602 38 403 460 288 1021 
C 269 1110 269 1117 218 1117 
C 166 1117 160 1110 160 983 
L 160 63 
C 160 -51 166 -58 205 -58 
C 237 -58 243 -51 275 0 
C 314 57 410 211 448 276 
C 576 103 800 -64 1158 -64 
C 1792 -64 2131 283 2131 784 
C 2131 1112 1958 1285 1875 1362 
C 1683 1561 1459 1606 1190 1657 
C 838 1735 390 1825 390 2217 
C 390 2383 480 2737 1126 2737 
C 1811 2737 1850 2094 1862 1888 
C 1869 1856 1901 1849 1920 1849 
C 1978 1849 1978 1869 1978 1978 
L 1978 2697 
z
" transform="scale(0.015625)"/>
       <path id="CMR17-5d" d="M 915 4767 
L 90 4767 
L 90 4544 
L 691 4544 
L 691 -1377 
L 90 -1377 
L 90 -1600 
L 915 -1600 
L 915 4767 
z
" transform="scale(0.015625)"/>
      </defs>
      <use xlink:href="#CMMI12-74" transform="scale(0.996264)"/>
      <use xlink:href="#CMR17-5b" transform="translate(65.302297 0) scale(0.996264)"/>
      <use xlink:href="#CMMI12-16" transform="translate(90.173355 0) scale(0.996264)"/>
      <use xlink:href="#CMR17-73" transform="translate(148.864776 0) scale(0.996264)"/>
      <use xlink:href="#CMR17-5d" transform="translate(184.666114 0) scale(0.996264)"/>
     </g>
    </g>
   </g>
   <g id="matplotlib.axis_2">
    <g id="ytick_1">
     <g id="line2d_35">
      <path d="M 38.774054 126.115823 
L 234.074054 126.115823 
" clip-path="url(#p22f5c2f7d2)" style="fill: none; stroke-dasharray: 1.85,0.8; stroke-dashoffset: 0; stroke: #000000; stroke-opacity: 0.5; stroke-width: 0.5"/>
     </g>
     <g id="line2d_36">
      <defs>
       <path id="m648f94096f" d="M 0 0 
L 3 0 
" style="stroke: #000000; stroke-width: 0.5"/>
      </defs>
      <g>
       <use xlink:href="#m648f94096f" x="38.774054" y="126.115823" style="stroke: #000000; stroke-width: 0.5"/>
      </g>
     </g>
     <g id="line2d_37">
      <defs>
       <path id="ma2f2d015ed" d="M 0 0 
L -3 0 
" style="stroke: #000000; stroke-width: 0.5"/>
      </defs>
      <g>
       <use xlink:href="#ma2f2d015ed" x="234.074054" y="126.115823" style="stroke: #000000; stroke-width: 0.5"/>
      </g>
     </g>
     <g id="text_6">
      <!-- $\mathdefault{−50}$ -->
      <g transform="translate(17.56264 129.575072) scale(0.1 -0.1)">
       <defs>
        <path id="CMSY10-0" d="M 4218 1472 
C 4326 1472 4442 1472 4442 1600 
C 4442 1728 4326 1728 4218 1728 
L 755 1728 
C 646 1728 531 1728 531 1600 
C 531 1472 646 1472 755 1472 
L 4218 1472 
z
" transform="scale(0.015625)"/>
        <path id="CMR17-35" d="M 730 3692 
C 794 3666 1056 3584 1325 3584 
C 1920 3584 2246 3911 2432 4100 
C 2432 4157 2432 4192 2394 4192 
C 2387 4192 2374 4192 2323 4163 
C 2099 4058 1837 3973 1517 3973 
C 1325 3973 1037 3999 723 4139 
C 653 4171 640 4171 634 4171 
C 602 4171 595 4164 595 4037 
L 595 2203 
C 595 2089 595 2057 659 2057 
C 691 2057 704 2070 736 2114 
C 941 2401 1222 2522 1542 2522 
C 1766 2522 2246 2382 2246 1289 
C 2246 1085 2246 715 2054 421 
C 1894 159 1645 25 1370 25 
C 947 25 518 320 403 814 
C 429 807 480 795 506 795 
C 589 795 749 840 749 1038 
C 749 1210 627 1280 506 1280 
C 358 1280 262 1190 262 1011 
C 262 454 704 -128 1382 -128 
C 2042 -128 2669 440 2669 1264 
C 2669 2030 2170 2624 1549 2624 
C 1222 2624 947 2503 730 2274 
L 730 3692 
z
" transform="scale(0.015625)"/>
       </defs>
       <use xlink:href="#CMSY10-0" transform="scale(0.996264)"/>
       <use xlink:href="#CMR17-35" transform="translate(77.487468 0) scale(0.996264)"/>
       <use xlink:href="#CMR17-30" transform="translate(123.177945 0) scale(0.996264)"/>
      </g>
     </g>
    </g>
    <g id="ytick_2">
     <g id="line2d_38">
      <path d="M 38.774054 101.178494 
L 234.074054 101.178494 
" clip-path="url(#p22f5c2f7d2)" style="fill: none; stroke-dasharray: 1.85,0.8; stroke-dashoffset: 0; stroke: #000000; stroke-opacity: 0.5; stroke-width: 0.5"/>
     </g>
     <g id="line2d_39">
      <g>
       <use xlink:href="#m648f94096f" x="38.774054" y="101.178494" style="stroke: #000000; stroke-width: 0.5"/>
      </g>
     </g>
     <g id="line2d_40">
      <g>
       <use xlink:href="#ma2f2d015ed" x="234.074054" y="101.178494" style="stroke: #000000; stroke-width: 0.5"/>
      </g>
     </g>
     <g id="text_7">
      <!-- $\mathdefault{−25}$ -->
      <g transform="translate(17.56264 104.637743) scale(0.1 -0.1)">
       <use xlink:href="#CMSY10-0" transform="scale(0.996264)"/>
       <use xlink:href="#CMR17-32" transform="translate(77.487468 0) scale(0.996264)"/>
       <use xlink:href="#CMR17-35" transform="translate(123.177945 0) scale(0.996264)"/>
      </g>
     </g>
    </g>
    <g id="ytick_3">
     <g id="line2d_41">
      <path d="M 38.774054 76.241164 
L 234.074054 76.241164 
" clip-path="url(#p22f5c2f7d2)" style="fill: none; stroke-dasharray: 1.85,0.8; stroke-dashoffset: 0; stroke: #000000; stroke-opacity: 0.5; stroke-width: 0.5"/>
     </g>
     <g id="line2d_42">
      <g>
       <use xlink:href="#m648f94096f" x="38.774054" y="76.241164" style="stroke: #000000; stroke-width: 0.5"/>
      </g>
     </g>
     <g id="line2d_43">
      <g>
       <use xlink:href="#ma2f2d015ed" x="234.074054" y="76.241164" style="stroke: #000000; stroke-width: 0.5"/>
      </g>
     </g>
     <g id="text_8">
      <!-- $\mathdefault{0}$ -->
      <g transform="translate(30.292719 79.700413) scale(0.1 -0.1)">
       <use xlink:href="#CMR17-30" transform="scale(0.996264)"/>
      </g>
     </g>
    </g>
    <g id="ytick_4">
     <g id="line2d_44">
      <path d="M 38.774054 51.303835 
L 234.074054 51.303835 
" clip-path="url(#p22f5c2f7d2)" style="fill: none; stroke-dasharray: 1.85,0.8; stroke-dashoffset: 0; stroke: #000000; stroke-opacity: 0.5; stroke-width: 0.5"/>
     </g>
     <g id="line2d_45">
      <g>
       <use xlink:href="#m648f94096f" x="38.774054" y="51.303835" style="stroke: #000000; stroke-width: 0.5"/>
      </g>
     </g>
     <g id="line2d_46">
      <g>
       <use xlink:href="#ma2f2d015ed" x="234.074054" y="51.303835" style="stroke: #000000; stroke-width: 0.5"/>
      </g>
     </g>
     <g id="text_9">
      <!-- $\mathdefault{25}$ -->
      <g transform="translate(25.311384 54.763084) scale(0.1 -0.1)">
       <use xlink:href="#CMR17-32" transform="scale(0.996264)"/>
       <use xlink:href="#CMR17-35" transform="translate(45.690477 0) scale(0.996264)"/>
      </g>
     </g>
    </g>
    <g id="ytick_5">
     <g id="line2d_47">
      <path d="M 38.774054 26.366505 
L 234.074054 26.366505 
" clip-path="url(#p22f5c2f7d2)" style="fill: none; stroke-dasharray: 1.85,0.8; stroke-dashoffset: 0; stroke: #000000; stroke-opacity: 0.5; stroke-width: 0.5"/>
     </g>
     <g id="line2d_48">
      <g>
       <use xlink:href="#m648f94096f" x="38.774054" y="26.366505" style="stroke: #000000; stroke-width: 0.5"/>
      </g>
     </g>
     <g id="line2d_49">
      <g>
       <use xlink:href="#ma2f2d015ed" x="234.074054" y="26.366505" style="stroke: #000000; stroke-width: 0.5"/>
      </g>
     </g>
     <g id="text_10">
      <!-- $\mathdefault{50}$ -->
      <g transform="translate(25.311384 29.825754) scale(0.1 -0.1)">
       <use xlink:href="#CMR17-35" transform="scale(0.996264)"/>
       <use xlink:href="#CMR17-30" transform="translate(45.690477 0) scale(0.996264)"/>
      </g>
     </g>
    </g>
    <g id="ytick_6">
     <g id="line2d_50">
      <defs>
       <path id="mdf728c5c66" d="M 0 0 
L 1.5 0 
" style="stroke: #000000; stroke-width: 0.5"/>
      </defs>
      <g>
       <use xlink:href="#mdf728c5c66" x="38.774054" y="146.065687" style="stroke: #000000; stroke-width: 0.5"/>
      </g>
     </g>
     <g id="line2d_51">
      <defs>
       <path id="mc85ee0bb19" d="M 0 0 
L -1.5 0 
" style="stroke: #000000; stroke-width: 0.5"/>
      </defs>
      <g>
       <use xlink:href="#mc85ee0bb19" x="234.074054" y="146.065687" style="stroke: #000000; stroke-width: 0.5"/>
      </g>
     </g>
    </g>
    <g id="ytick_7">
     <g id="line2d_52">
      <g>
       <use xlink:href="#mdf728c5c66" x="38.774054" y="141.078221" style="stroke: #000000; stroke-width: 0.5"/>
      </g>
     </g>
     <g id="line2d_53">
      <g>
       <use xlink:href="#mc85ee0bb19" x="234.074054" y="141.078221" style="stroke: #000000; stroke-width: 0.5"/>
      </g>
     </g>
    </g>
    <g id="ytick_8">
     <g id="line2d_54">
      <g>
       <use xlink:href="#mdf728c5c66" x="38.774054" y="136.090755" style="stroke: #000000; stroke-width: 0.5"/>
      </g>
     </g>
     <g id="line2d_55">
      <g>
       <use xlink:href="#mc85ee0bb19" x="234.074054" y="136.090755" style="stroke: #000000; stroke-width: 0.5"/>
      </g>
     </g>
    </g>
    <g id="ytick_9">
     <g id="line2d_56">
      <g>
       <use xlink:href="#mdf728c5c66" x="38.774054" y="131.103289" style="stroke: #000000; stroke-width: 0.5"/>
      </g>
     </g>
     <g id="line2d_57">
      <g>
       <use xlink:href="#mc85ee0bb19" x="234.074054" y="131.103289" style="stroke: #000000; stroke-width: 0.5"/>
      </g>
     </g>
    </g>
    <g id="ytick_10">
     <g id="line2d_58">
      <g>
       <use xlink:href="#mdf728c5c66" x="38.774054" y="121.128357" style="stroke: #000000; stroke-width: 0.5"/>
      </g>
     </g>
     <g id="line2d_59">
      <g>
       <use xlink:href="#mc85ee0bb19" x="234.074054" y="121.128357" style="stroke: #000000; stroke-width: 0.5"/>
      </g>
     </g>
    </g>
    <g id="ytick_11">
     <g id="line2d_60">
      <g>
       <use xlink:href="#mdf728c5c66" x="38.774054" y="116.140891" style="stroke: #000000; stroke-width: 0.5"/>
      </g>
     </g>
     <g id="line2d_61">
      <g>
       <use xlink:href="#mc85ee0bb19" x="234.074054" y="116.140891" style="stroke: #000000; stroke-width: 0.5"/>
      </g>
     </g>
    </g>
    <g id="ytick_12">
     <g id="line2d_62">
      <g>
       <use xlink:href="#mdf728c5c66" x="38.774054" y="111.153426" style="stroke: #000000; stroke-width: 0.5"/>
      </g>
     </g>
     <g id="line2d_63">
      <g>
       <use xlink:href="#mc85ee0bb19" x="234.074054" y="111.153426" style="stroke: #000000; stroke-width: 0.5"/>
      </g>
     </g>
    </g>
    <g id="ytick_13">
     <g id="line2d_64">
      <g>
       <use xlink:href="#mdf728c5c66" x="38.774054" y="106.16596" style="stroke: #000000; stroke-width: 0.5"/>
      </g>
     </g>
     <g id="line2d_65">
      <g>
       <use xlink:href="#mc85ee0bb19" x="234.074054" y="106.16596" style="stroke: #000000; stroke-width: 0.5"/>
      </g>
     </g>
    </g>
    <g id="ytick_14">
     <g id="line2d_66">
      <g>
       <use xlink:href="#mdf728c5c66" x="38.774054" y="96.191028" style="stroke: #000000; stroke-width: 0.5"/>
      </g>
     </g>
     <g id="line2d_67">
      <g>
       <use xlink:href="#mc85ee0bb19" x="234.074054" y="96.191028" style="stroke: #000000; stroke-width: 0.5"/>
      </g>
     </g>
    </g>
    <g id="ytick_15">
     <g id="line2d_68">
      <g>
       <use xlink:href="#mdf728c5c66" x="38.774054" y="91.203562" style="stroke: #000000; stroke-width: 0.5"/>
      </g>
     </g>
     <g id="line2d_69">
      <g>
       <use xlink:href="#mc85ee0bb19" x="234.074054" y="91.203562" style="stroke: #000000; stroke-width: 0.5"/>
      </g>
     </g>
    </g>
    <g id="ytick_16">
     <g id="line2d_70">
      <g>
       <use xlink:href="#mdf728c5c66" x="38.774054" y="86.216096" style="stroke: #000000; stroke-width: 0.5"/>
      </g>
     </g>
     <g id="line2d_71">
      <g>
       <use xlink:href="#mc85ee0bb19" x="234.074054" y="86.216096" style="stroke: #000000; stroke-width: 0.5"/>
      </g>
     </g>
    </g>
    <g id="ytick_17">
     <g id="line2d_72">
      <g>
       <use xlink:href="#mdf728c5c66" x="38.774054" y="81.22863" style="stroke: #000000; stroke-width: 0.5"/>
      </g>
     </g>
     <g id="line2d_73">
      <g>
       <use xlink:href="#mc85ee0bb19" x="234.074054" y="81.22863" style="stroke: #000000; stroke-width: 0.5"/>
      </g>
     </g>
    </g>
    <g id="ytick_18">
     <g id="line2d_74">
      <g>
       <use xlink:href="#mdf728c5c66" x="38.774054" y="71.253698" style="stroke: #000000; stroke-width: 0.5"/>
      </g>
     </g>
     <g id="line2d_75">
      <g>
       <use xlink:href="#mc85ee0bb19" x="234.074054" y="71.253698" style="stroke: #000000; stroke-width: 0.5"/>
      </g>
     </g>
    </g>
    <g id="ytick_19">
     <g id="line2d_76">
      <g>
       <use xlink:href="#mdf728c5c66" x="38.774054" y="66.266232" style="stroke: #000000; stroke-width: 0.5"/>
      </g>
     </g>
     <g id="line2d_77">
      <g>
       <use xlink:href="#mc85ee0bb19" x="234.074054" y="66.266232" style="stroke: #000000; stroke-width: 0.5"/>
      </g>
     </g>
    </g>
    <g id="ytick_20">
     <g id="line2d_78">
      <g>
       <use xlink:href="#mdf728c5c66" x="38.774054" y="61.278766" style="stroke: #000000; stroke-width: 0.5"/>
      </g>
     </g>
     <g id="line2d_79">
      <g>
       <use xlink:href="#mc85ee0bb19" x="234.074054" y="61.278766" style="stroke: #000000; stroke-width: 0.5"/>
      </g>
     </g>
    </g>
    <g id="ytick_21">
     <g id="line2d_80">
      <g>
       <use xlink:href="#mdf728c5c66" x="38.774054" y="56.2913" style="stroke: #000000; stroke-width: 0.5"/>
      </g>
     </g>
     <g id="line2d_81">
      <g>
       <use xlink:href="#mc85ee0bb19" x="234.074054" y="56.2913" style="stroke: #000000; stroke-width: 0.5"/>
      </g>
     </g>
    </g>
    <g id="ytick_22">
     <g id="line2d_82">
      <g>
       <use xlink:href="#mdf728c5c66" x="38.774054" y="46.316369" style="stroke: #000000; stroke-width: 0.5"/>
      </g>
     </g>
     <g id="line2d_83">
      <g>
       <use xlink:href="#mc85ee0bb19" x="234.074054" y="46.316369" style="stroke: #000000; stroke-width: 0.5"/>
      </g>
     </g>
    </g>
    <g id="ytick_23">
     <g id="line2d_84">
      <g>
       <use xlink:href="#mdf728c5c66" x="38.774054" y="41.328903" style="stroke: #000000; stroke-width: 0.5"/>
      </g>
     </g>
     <g id="line2d_85">
      <g>
       <use xlink:href="#mc85ee0bb19" x="234.074054" y="41.328903" style="stroke: #000000; stroke-width: 0.5"/>
      </g>
     </g>
    </g>
    <g id="ytick_24">
     <g id="line2d_86">
      <g>
       <use xlink:href="#mdf728c5c66" x="38.774054" y="36.341437" style="stroke: #000000; stroke-width: 0.5"/>
      </g>
     </g>
     <g id="line2d_87">
      <g>
       <use xlink:href="#mc85ee0bb19" x="234.074054" y="36.341437" style="stroke: #000000; stroke-width: 0.5"/>
      </g>
     </g>
    </g>
    <g id="ytick_25">
     <g id="line2d_88">
      <g>
       <use xlink:href="#mdf728c5c66" x="38.774054" y="31.353971" style="stroke: #000000; stroke-width: 0.5"/>
      </g>
     </g>
     <g id="line2d_89">
      <g>
       <use xlink:href="#mc85ee0bb19" x="234.074054" y="31.353971" style="stroke: #000000; stroke-width: 0.5"/>
      </g>
     </g>
    </g>
    <g id="ytick_26">
     <g id="line2d_90">
      <g>
       <use xlink:href="#mdf728c5c66" x="38.774054" y="21.379039" style="stroke: #000000; stroke-width: 0.5"/>
      </g>
     </g>
     <g id="line2d_91">
      <g>
       <use xlink:href="#mc85ee0bb19" x="234.074054" y="21.379039" style="stroke: #000000; stroke-width: 0.5"/>
      </g>
     </g>
    </g>
    <g id="ytick_27">
     <g id="line2d_92">
      <g>
       <use xlink:href="#mdf728c5c66" x="38.774054" y="16.391573" style="stroke: #000000; stroke-width: 0.5"/>
      </g>
     </g>
     <g id="line2d_93">
      <g>
       <use xlink:href="#mc85ee0bb19" x="234.074054" y="16.391573" style="stroke: #000000; stroke-width: 0.5"/>
      </g>
     </g>
    </g>
    <g id="ytick_28">
     <g id="line2d_94">
      <g>
       <use xlink:href="#mdf728c5c66" x="38.774054" y="11.404107" style="stroke: #000000; stroke-width: 0.5"/>
      </g>
     </g>
     <g id="line2d_95">
      <g>
       <use xlink:href="#mc85ee0bb19" x="234.074054" y="11.404107" style="stroke: #000000; stroke-width: 0.5"/>
      </g>
     </g>
    </g>
    <g id="ytick_29">
     <g id="line2d_96">
      <g>
       <use xlink:href="#mdf728c5c66" x="38.774054" y="6.416641" style="stroke: #000000; stroke-width: 0.5"/>
      </g>
     </g>
     <g id="line2d_97">
      <g>
       <use xlink:href="#mc85ee0bb19" x="234.074054" y="6.416641" style="stroke: #000000; stroke-width: 0.5"/>
      </g>
     </g>
    </g>
    <g id="text_11">
     <!-- $I$ [pA] -->
     <g transform="translate(11.07198 89.876846) rotate(-90) scale(0.1 -0.1)">
      <defs>
       <path id="CMMI12-49" d="M 2355 3880 
C 2413 4103 2426 4167 2893 4167 
C 3034 4167 3085 4167 3085 4288 
C 3085 4352 3014 4352 2995 4352 
C 2880 4352 2739 4352 2624 4352 
L 1837 4352 
C 1709 4352 1562 4352 1434 4352 
C 1382 4352 1312 4352 1312 4231 
C 1312 4167 1363 4167 1491 4167 
C 1888 4167 1888 4116 1888 4046 
C 1888 4002 1875 3963 1862 3906 
L 998 472 
C 941 249 928 185 461 185 
C 320 185 262 185 262 64 
C 262 0 326 0 358 0 
C 474 0 614 0 730 0 
L 1517 0 
C 1645 0 1786 0 1914 0 
C 1965 0 2042 0 2042 115 
C 2042 185 2003 185 1862 185 
C 1466 185 1466 236 1466 312 
C 1466 325 1466 357 1491 459 
L 2355 3880 
z
" transform="scale(0.015625)"/>
       <path id="CMR17-70" d="M 1408 -1063 
C 998 -1063 973 -1037 973 -789 
L 973 402 
C 1158 134 1427 -38 1766 -38 
C 2406 -38 3053 523 3053 1388 
C 3053 2191 2496 2802 1837 2802 
C 1453 2802 1139 2592 960 2338 
L 960 2802 
L 198 2732 
L 198 2567 
C 576 2567 634 2528 634 2223 
L 634 -789 
C 634 -1031 608 -1063 198 -1063 
L 198 -1228 
C 352 -1216 634 -1216 800 -1216 
C 966 -1216 1254 -1216 1408 -1228 
L 1408 -1063 
z
M 973 2012 
C 973 2102 973 2235 1222 2471 
C 1254 2497 1472 2688 1792 2688 
C 2259 2688 2643 2108 2643 1382 
C 2643 656 2234 64 1728 64 
C 1498 64 1248 172 1056 472 
C 973 612 973 650 973 752 
L 973 2012 
z
" transform="scale(0.015625)"/>
       <path id="CMR17-41" d="M 2323 4378 
C 2291 4461 2278 4480 2214 4480 
C 2150 4480 2138 4461 2106 4378 
L 749 566 
C 627 223 371 153 147 153 
L 147 -13 
C 262 0 518 0 640 0 
C 800 0 1056 0 1210 -13 
L 1210 153 
C 909 153 864 361 864 439 
C 864 497 877 530 890 569 
L 1229 1536 
L 2906 1536 
L 3290 442 
C 3322 365 3322 352 3322 327 
C 3322 153 3046 153 2925 153 
L 2925 0 
C 3110 0 3443 0 3642 0 
C 3808 0 4128 0 4282 -13 
L 4282 153 
C 3942 153 3827 153 3744 387 
L 2323 4378 
z
M 2067 3893 
L 2848 1702 
L 1286 1702 
L 2067 3893 
z
" transform="scale(0.015625)"/>
      </defs>
      <use xlink:href="#CMMI12-49" transform="scale(0.996264)"/>
      <use xlink:href="#CMR17-5b" transform="translate(80.93248 0) scale(0.996264)"/>
      <use xlink:href="#CMR17-70" transform="translate(105.803539 0) scale(0.996264)"/>
      <use xlink:href="#CMR17-41" transform="translate(156.698909 0) scale(0.996264)"/>
      <use xlink:href="#CMR17-5d" transform="translate(225.771338 0) scale(0.996264)"/>
     </g>
    </g>
   </g>
   <g id="PolyCollection_1">
    <path d="M 38.774054 81.22677 
L 38.774054 82.052903 
L 39.750554 73.960753 
L 40.727054 63.410723 
L 41.703554 52.172801 
L 42.680054 44.786419 
L 43.656554 41.690827 
L 44.633054 40.557504 
L 45.609554 35.85171 
L 46.586054 27.270567 
L 47.562554 18.636217 
L 48.539054 15.277604 
L 49.515554 15.012831 
L 50.492054 18.378473 
L 51.468554 24.659716 
L 52.445054 31.786247 
L 53.421554 39.093882 
L 54.398054 45.599787 
L 55.374554 51.843689 
L 56.351054 57.766407 
L 57.327554 64.046396 
L 58.304054 70.818942 
L 59.280554 78.810112 
L 60.257054 89.636911 
L 61.233554 101.885299 
L 62.210054 110.595974 
L 63.186554 114.398518 
L 64.163054 115.228491 
L 65.139554 119.658942 
L 66.116054 129.152757 
L 67.092554 136.999639 
L 68.069054 140.925231 
L 69.045554 140.402088 
L 70.022054 137.088839 
L 70.998554 130.632299 
L 71.975054 124.333423 
L 72.951554 117.129707 
L 73.928054 110.321386 
L 74.904554 103.421969 
L 75.881054 96.32876 
L 76.857554 89.205606 
L 77.834054 82.2769 
L 78.810554 74.219418 
L 79.787054 63.397944 
L 80.763554 51.894011 
L 81.740054 43.985784 
L 82.716554 41.982024 
L 83.693054 41.415396 
L 84.669554 36.551166 
L 85.646054 27.060443 
L 86.622554 18.205319 
L 87.599054 14.250942 
L 88.575554 15.396818 
L 89.552054 20.268668 
L 90.528554 25.903151 
L 91.505054 31.831945 
L 92.481554 38.190226 
L 93.458054 44.564505 
L 94.434554 50.988092 
L 95.411054 57.511902 
L 96.387554 63.913778 
L 97.364054 70.925775 
L 98.340554 78.97285 
L 99.317054 89.889429 
L 100.293554 101.56206 
L 101.270054 110.085586 
L 102.246554 113.893373 
L 103.223054 115.720868 
L 104.199554 120.939446 
L 105.176054 129.543446 
L 106.152554 136.862704 
L 107.129054 140.622172 
L 108.105554 140.05285 
L 109.082054 135.646283 
L 110.058554 129.110601 
L 111.035054 121.990853 
L 112.011554 115.233679 
L 112.988054 109.081399 
L 113.964554 102.542907 
L 114.941054 95.927252 
L 115.917554 89.014096 
L 116.894054 82.206323 
L 117.870554 74.341965 
L 118.847054 63.548582 
L 119.823554 51.801943 
L 120.800054 44.001932 
L 121.776554 40.822351 
L 122.753054 39.972618 
L 123.729554 34.697272 
L 124.706054 26.185323 
L 125.682554 18.752033 
L 126.659054 15.305924 
L 127.635554 15.537768 
L 128.612054 19.589279 
L 129.588554 25.07604 
L 130.565054 31.773333 
L 131.541554 38.215408 
L 132.518054 46.049581 
L 133.494554 52.601164 
L 134.471054 58.678059 
L 135.447554 64.858748 
L 136.424054 71.294764 
L 137.400554 79.056277 
L 138.377054 90.069555 
L 139.353554 102.048013 
L 140.330054 110.604221 
L 141.306554 114.532076 
L 142.283054 115.585427 
L 143.259554 120.512885 
L 144.236054 128.658098 
L 145.212554 137.211923 
L 146.189054 141.705324 
L 147.165554 141.337372 
L 148.142054 136.782028 
L 149.118554 131.178452 
L 150.095054 124.067926 
L 151.071554 116.713382 
L 152.048054 110.31634 
L 153.024554 103.436203 
L 154.001054 96.521093 
L 154.977554 89.734773 
L 155.954054 82.373859 
L 156.930554 74.328568 
L 157.907054 63.927177 
L 158.883554 52.838683 
L 159.860054 44.759227 
L 160.836554 41.279618 
L 161.813054 39.7778 
L 162.789554 34.645332 
L 163.766054 26.205351 
L 164.742554 18.525371 
L 165.719054 14.410163 
L 166.695554 14.558578 
L 167.672054 19.345453 
L 168.648554 24.753567 
L 169.625054 31.258965 
L 170.601554 37.751894 
L 171.578054 44.308559 
L 172.554554 50.831607 
L 173.531054 57.424847 
L 174.507554 63.960874 
L 175.484054 70.939973 
L 176.460554 78.743123 
L 177.437054 89.735574 
L 178.413554 101.775422 
L 179.390054 110.896031 
L 180.366554 115.268385 
L 181.343054 116.62923 
L 182.319554 121.556652 
L 183.296054 129.655482 
L 184.272554 137.437264 
L 185.249054 141.454238 
L 186.225554 141.802786 
L 187.202054 137.568239 
L 188.178554 131.096278 
L 189.155054 123.635085 
L 190.131554 116.287598 
L 191.108054 109.530036 
L 192.084554 102.395331 
L 193.061054 95.953293 
L 194.037554 89.495957 
L 195.014054 82.358237 
L 195.990554 74.328829 
L 196.967054 63.469866 
L 197.943554 51.512092 
L 198.920054 43.198257 
L 199.896554 39.650576 
L 200.873054 38.478711 
L 201.849554 33.994552 
L 202.826054 26.182302 
L 203.802554 18.045931 
L 204.779054 14.50412 
L 205.755554 14.908213 
L 206.732054 18.921549 
L 207.708554 24.186261 
L 208.685054 30.104626 
L 209.661554 37.066113 
L 210.638054 44.07349 
L 211.614554 50.649599 
L 212.591054 56.829208 
L 213.567554 63.740463 
L 214.544054 70.809291 
L 215.520554 78.953497 
L 216.497054 90.076356 
L 217.473554 101.84898 
L 218.450054 110.364631 
L 219.426554 113.531836 
L 220.403054 114.512935 
L 221.379554 120.399468 
L 222.356054 129.886355 
L 223.332554 136.898168 
L 224.309054 140.795308 
L 225.285554 140.19415 
L 226.262054 135.887233 
L 227.238554 130.119846 
L 228.215054 123.99834 
L 229.191554 117.128384 
L 230.168054 110.353577 
L 231.144554 103.200603 
L 232.121054 96.42385 
L 233.097554 89.863992 
L 234.074054 82.840493 
L 235.050554 74.558972 
L 236.027054 64.015019 
L 237.003554 52.701399 
L 237.980054 44.83427 
L 238.956554 41.797776 
L 239.933054 41.367644 
L 240.909554 36.347374 
L 241.886054 27.520946 
L 242.862554 19.731219 
L 243.839054 15.779213 
L 244.815554 16.5063 
L 245.792054 20.054719 
L 246.768554 26.122048 
L 247.745054 32.203924 
L 248.721554 38.810043 
L 249.698054 45.229447 
L 250.674554 51.181033 
L 251.651054 57.627753 
L 252.627554 64.59026 
L 253.604054 71.27383 
L 254.580554 78.94909 
L 255.557054 90.048893 
L 256.533554 102.008905 
L 257.510054 110.85496 
L 258.486554 114.424062 
L 259.463054 116.430932 
L 260.439554 121.261019 
L 261.416054 130.666506 
L 262.392554 138.476008 
L 263.369054 142.515 
L 264.345554 140.900055 
L 265.322054 135.339092 
L 266.298554 129.670503 
L 267.275054 123.723631 
L 268.251554 117.134387 
L 269.228054 109.76138 
L 270.204554 103.337422 
L 271.181054 96.63927 
L 272.157554 89.688449 
L 273.134054 82.352893 
L 274.110554 74.328816 
L 275.087054 63.582087 
L 276.063554 51.771463 
L 277.040054 43.785592 
L 278.016554 40.340633 
L 278.993054 39.607542 
L 279.969554 34.777551 
L 280.946054 25.458382 
L 281.922554 18.097678 
L 282.899054 14.874375 
L 283.875554 15.780976 
L 284.852054 20.12747 
L 285.828554 25.769814 
L 286.805054 31.654169 
L 287.781554 38.110664 
L 288.758054 44.96348 
L 289.734554 50.876121 
L 290.711054 56.74039 
L 291.687554 63.417293 
L 292.664054 70.77708 
L 293.640554 78.6667 
L 294.617054 89.580277 
L 295.593554 101.593939 
L 296.570054 110.961329 
L 297.546554 114.880855 
L 298.523054 116.273796 
L 299.499554 120.610835 
L 300.476054 129.164156 
L 301.452554 137.28696 
L 302.429054 140.783935 
L 303.405554 140.360029 
L 304.382054 137.665964 
L 305.358554 132.547008 
L 306.335054 125.463969 
L 307.311554 117.978119 
L 308.288054 111.208245 
L 309.264554 103.97413 
L 310.241054 96.828123 
L 311.217554 90.057471 
L 312.194054 82.696882 
L 313.170554 74.399856 
L 314.147054 63.887781 
L 315.123554 52.408943 
L 316.100054 44.472817 
L 317.076554 41.508273 
L 318.053054 40.42525 
L 319.029554 35.543677 
L 320.006054 26.782188 
L 320.982554 19.150641 
L 321.959054 15.438276 
L 322.935554 16.45318 
L 323.912054 20.323665 
L 324.888554 25.59747 
L 325.865054 31.544163 
L 326.841554 38.101786 
L 327.818054 44.705059 
L 328.794554 51.538356 
L 329.771054 58.214618 
L 330.747554 64.262936 
L 331.724054 70.905921 
L 332.700554 78.832711 
L 333.677054 90.181958 
L 334.653554 102.177839 
L 335.630054 110.301321 
L 336.606554 114.08923 
L 337.583054 116.060548 
L 338.559554 121.162305 
L 339.536054 129.383564 
L 340.512554 136.26646 
L 341.489054 140.023724 
L 342.465554 140.933043 
L 343.442054 137.397565 
L 344.418554 131.414942 
L 345.395054 123.80072 
L 346.371554 117.861972 
L 347.348054 111.265307 
L 348.324554 104.17116 
L 349.301054 96.704479 
L 350.277554 89.831335 
L 351.254054 82.598859 
L 352.230554 74.548755 
L 353.207054 63.743167 
L 354.183554 52.39273 
L 355.160054 44.353743 
L 356.136554 40.782506 
L 357.113054 39.607451 
L 358.089554 35.01236 
L 359.066054 25.889066 
L 360.042554 18.60295 
L 361.019054 15.057613 
L 361.995554 15.935742 
L 362.972054 19.421511 
L 363.948554 25.608908 
L 364.925054 32.729233 
L 365.901554 39.402689 
L 366.878054 44.955914 
L 367.854554 51.116565 
L 368.831054 57.787725 
L 369.807554 64.248562 
L 370.784054 70.900976 
L 371.760554 78.92173 
L 372.737054 90.121301 
L 373.713554 102.713012 
L 374.690054 111.956054 
L 375.666554 115.993241 
L 376.643054 116.715396 
L 377.619554 121.717608 
L 378.596054 129.881559 
L 379.572554 137.408456 
L 380.549054 141.355567 
L 381.525554 140.333032 
L 382.502054 135.815392 
L 383.478554 129.924374 
L 384.455054 124.232511 
L 385.431554 117.148035 
L 386.408054 109.694426 
L 387.384554 103.403999 
L 388.361054 97.042036 
L 389.337554 89.918954 
L 390.314054 82.510443 
L 391.290554 74.225675 
L 392.267054 63.502638 
L 393.243554 52.419691 
L 394.220054 45.727368 
L 395.196554 42.543672 
L 396.173054 41.673057 
L 397.149554 36.167292 
L 398.126054 26.797516 
L 399.102554 18.441898 
L 400.079054 14.321248 
L 401.055554 15.130243 
L 402.032054 19.064171 
L 403.008554 24.09681 
L 403.985054 31.041237 
L 404.961554 38.701124 
L 405.938054 45.422459 
L 406.914554 51.979108 
L 407.891054 58.351259 
L 408.867554 64.329189 
L 409.844054 70.936543 
L 410.820554 78.920636 
L 411.797054 89.800441 
L 412.773554 101.504304 
L 413.750054 109.837134 
L 414.726554 113.648747 
L 415.703054 114.871395 
L 416.679554 119.633873 
L 417.656054 128.622945 
L 418.632554 137.32075 
L 419.609054 140.169665 
L 420.585554 139.481218 
L 421.562054 136.089765 
L 422.538554 129.994158 
L 423.515054 124.076698 
L 424.491554 117.153216 
L 425.468054 111.179464 
L 426.444554 104.421235 
L 427.421054 97.311283 
L 428.397554 90.192538 
L 429.374054 82.662095 
L 430.350554 74.273162 
L 431.327054 63.517056 
L 432.303554 51.798444 
L 433.280054 43.66787 
L 434.256554 40.266792 
L 435.233054 38.829371 
L 436.209554 33.869721 
L 437.186054 25.383268 
L 438.162554 18.126421 
L 439.139054 14.924311 
L 440.115554 15.432753 
L 441.092054 19.112667 
L 442.068554 24.868123 
L 443.045054 31.036143 
L 444.021554 38.008956 
L 444.998054 44.766241 
L 445.974554 51.603777 
L 446.951054 57.824656 
L 447.927554 64.205721 
L 448.904054 71.1785 
L 449.880554 79.239007 
L 450.857054 90.107527 
L 451.833554 101.878177 
L 452.810054 109.971243 
L 453.786554 113.688535 
L 454.763054 114.697833 
L 455.739554 119.555031 
L 456.716054 129.194759 
L 457.692554 136.816971 
L 458.669054 140.455256 
L 459.645554 139.689362 
L 460.622054 136.093814 
L 461.598554 130.715418 
L 462.575054 124.646987 
L 463.551554 118.339344 
L 464.528054 111.455469 
L 465.504554 104.156809 
L 466.481054 97.119424 
L 467.457554 89.932173 
L 468.434054 82.697036 
L 469.410554 74.489466 
L 470.387054 63.948231 
L 471.363554 52.912686 
L 472.340054 44.672599 
L 473.316554 40.881896 
L 474.293054 39.598315 
L 475.269554 34.452373 
L 476.246054 24.830529 
L 477.222554 16.908856 
L 478.199054 13.434818 
L 479.175554 13.445196 
L 480.152054 17.310047 
L 481.128554 22.87466 
L 482.105054 31.402505 
L 483.081554 38.806523 
L 484.058054 45.624826 
L 485.034554 51.682388 
L 486.011054 57.270791 
L 486.987554 63.510735 
L 487.964054 70.453776 
L 488.940554 78.435581 
L 489.917054 89.495235 
L 490.893554 101.309018 
L 491.870054 109.653081 
L 492.846554 113.680461 
L 493.823054 115.079811 
L 494.799554 120.025018 
L 495.776054 129.28365 
L 496.752554 136.634654 
L 497.729054 140.042043 
L 498.705554 140.469451 
L 499.682054 136.671735 
L 500.658554 131.504935 
L 501.635054 124.98376 
L 502.611554 117.980541 
L 503.588054 110.455426 
L 504.564554 103.699952 
L 505.541054 96.750626 
L 506.517554 90.014076 
L 507.494054 82.646026 
L 508.470554 74.455982 
L 509.447054 63.930889 
L 510.423554 52.518843 
L 511.400054 44.118762 
L 512.376554 40.737343 
L 513.353054 39.485839 
L 514.329554 35.189141 
L 515.306054 25.580162 
L 516.282554 16.860627 
L 517.259054 13.528887 
L 518.235554 13.71387 
L 519.212054 18.72679 
L 520.188554 24.869946 
L 521.165054 31.561239 
L 522.141554 38.772805 
L 523.118054 45.242325 
L 524.094554 51.719392 
L 525.071054 57.981515 
L 526.047554 64.332819 
L 527.024054 71.073058 
L 528.000554 78.704879 
L 528.977054 89.467255 
L 529.953554 101.32992 
L 530.930054 110.286852 
L 531.906554 114.126837 
L 532.883054 116.29351 
L 533.859554 121.671329 
L 534.836054 130.977753 
L 535.812554 138.567683 
L 536.789054 141.361486 
L 537.765554 140.644839 
L 538.742054 137.050603 
L 539.718554 130.739547 
L 540.695054 123.333455 
L 541.671554 116.537019 
L 542.648054 109.831378 
L 543.624554 103.235335 
L 544.601054 96.882325 
L 545.577554 89.755889 
L 546.554054 82.584768 
L 547.530554 74.470384 
L 548.507054 63.901934 
L 549.483554 52.498895 
L 550.460054 44.542395 
L 551.436554 41.071527 
L 552.413054 40.267735 
L 553.389554 36.039277 
L 554.366054 26.955623 
L 555.342554 18.600848 
L 556.319054 14.260282 
L 557.295554 14.948258 
L 558.272054 19.497367 
L 559.248554 25.950633 
L 560.225054 32.012855 
L 561.201554 38.820061 
L 562.178054 44.619568 
L 563.154554 51.033252 
L 564.131054 57.449089 
L 565.107554 63.988202 
L 566.084054 70.741052 
L 567.060554 78.673046 
L 568.037054 89.660681 
L 569.013554 101.488928 
L 569.990054 110.101873 
L 570.966554 113.814616 
L 571.943054 115.312979 
L 572.919554 121.616982 
L 573.896054 130.547229 
L 574.872554 138.007917 
L 575.849054 142.2484 
L 576.825554 140.96092 
L 577.802054 136.82961 
L 578.778554 130.284049 
L 579.755054 123.620115 
L 580.731554 117.493218 
L 581.708054 110.304345 
L 582.684554 103.41871 
L 583.661054 96.916142 
L 584.637554 89.877227 
L 585.614054 82.654448 
L 586.590554 74.416384 
L 587.567054 63.706962 
L 588.543554 52.58011 
L 589.520054 44.71278 
L 590.496554 41.060473 
L 591.473054 40.308636 
L 592.449554 36.03423 
L 593.426054 26.557745 
L 594.402554 17.969068 
L 595.379054 14.278531 
L 596.355554 15.062648 
L 597.332054 18.836694 
L 598.308554 24.616784 
L 599.285054 31.112796 
L 600.261554 38.190409 
L 601.238054 44.763009 
L 602.214554 50.992006 
L 603.191054 57.290552 
L 604.167554 63.879686 
L 605.144054 70.759981 
L 606.120554 78.700091 
L 607.097054 89.610056 
L 608.073554 101.345624 
L 609.050054 109.522489 
L 610.026554 112.855971 
L 611.003054 114.597306 
L 611.979554 119.421742 
L 612.956054 128.951801 
L 613.932554 137.247231 
L 614.909054 140.268831 
L 615.885554 139.844437 
L 616.862054 136.057679 
L 617.838554 130.872554 
L 618.815054 124.524887 
L 619.791554 117.733105 
L 620.768054 110.783071 
L 621.744554 103.601836 
L 622.721054 96.591149 
L 623.697554 89.558147 
L 624.674054 82.30835 
L 625.650554 74.395389 
L 626.627054 63.865996 
L 627.603554 52.579676 
L 628.580054 44.481831 
L 629.556554 41.513958 
L 630.533054 39.954485 
L 631.509554 35.173143 
L 632.486054 25.520181 
L 633.462554 17.081039 
L 634.439054 14.673309 
L 635.415554 14.855728 
L 636.392054 18.784729 
L 637.368554 24.806608 
L 638.345054 30.777853 
L 639.321554 38.125278 
L 640.298054 44.762342 
L 641.274554 51.241439 
L 642.251054 57.677781 
L 643.227554 64.312412 
L 644.204054 70.991251 
L 645.180554 78.737388 
L 646.157054 89.28036 
L 647.133554 100.944269 
L 648.110054 110.089234 
L 649.086554 113.926303 
L 650.063054 116.034894 
L 651.039554 121.266854 
L 652.016054 130.687999 
L 652.992554 138.223374 
L 653.969054 141.840626 
L 654.945554 141.45208 
L 655.922054 137.520356 
L 656.898554 130.894629 
L 657.875054 124.453937 
L 658.851554 116.753565 
L 659.828054 109.869188 
L 660.804554 103.477646 
L 661.781054 96.785793 
L 662.757554 89.757074 
L 663.734054 82.426032 
L 664.710554 74.380236 
L 665.687054 63.603508 
L 666.663554 52.136981 
L 667.640054 44.159423 
L 668.616554 41.566032 
L 669.593054 40.829801 
L 670.569554 36.04577 
L 671.546054 26.885917 
L 672.522554 18.659715 
L 673.499054 15.643288 
L 674.475554 16.481169 
L 675.452054 20.461638 
L 676.428554 26.193011 
L 677.405054 31.773004 
L 678.381554 38.448056 
L 679.358054 44.951015 
L 680.334554 51.048164 
L 681.311054 57.30873 
L 682.287554 64.132701 
L 683.264054 71.028373 
L 684.240554 79.029347 
L 685.217054 89.933697 
L 686.193554 101.817682 
L 687.170054 110.209031 
L 688.146554 114.061502 
L 689.123054 115.554469 
L 690.099554 121.053048 
L 691.076054 130.290925 
L 692.052554 137.335985 
L 693.029054 139.756333 
L 694.005554 139.168314 
L 694.982054 135.231193 
L 695.958554 129.682226 
L 696.935054 123.655058 
L 697.911554 117.684551 
L 698.888054 111.674817 
L 699.864554 104.430564 
L 700.841054 97.352317 
L 701.817554 90.415418 
L 702.794054 83.085943 
L 703.770554 74.900113 
L 704.747054 64.051338 
L 705.723554 52.548709 
L 706.700054 44.694915 
L 707.676554 41.944699 
L 708.653054 41.191915 
L 709.629554 35.549425 
L 710.606054 26.414344 
L 711.582554 17.970773 
L 712.559054 14.299185 
L 713.535554 14.873173 
L 714.512054 18.439292 
L 715.488554 24.044626 
L 716.465054 30.502726 
L 717.441554 37.539847 
L 718.418054 43.635209 
L 719.394554 50.569291 
L 720.371054 57.33457 
L 721.347554 63.872421 
L 722.324054 70.697758 
L 723.300554 78.720349 
L 724.277054 89.67785 
L 725.253554 101.327345 
L 726.230054 109.986352 
L 727.206554 114.156269 
L 728.183054 115.476483 
L 729.159554 120.045849 
L 730.136054 130.186451 
L 731.112554 138.601587 
L 732.089054 141.424434 
L 733.065554 140.732786 
L 734.042054 137.384232 
L 735.018554 130.37337 
L 735.995054 123.122702 
L 736.971554 116.843259 
L 737.948054 110.161624 
L 738.924554 102.929653 
L 739.901054 96.228117 
L 740.877554 89.330724 
L 741.854054 82.455228 
L 742.830554 74.261567 
L 743.807054 63.32046 
L 744.783554 51.602939 
L 745.760054 43.305398 
L 746.736554 40.25011 
L 747.713054 39.892078 
L 748.689554 34.129356 
L 749.666054 24.883213 
L 750.642554 16.984331 
L 751.619054 13.646771 
L 752.595554 15.431495 
L 753.572054 19.359386 
L 754.548554 25.011824 
L 755.525054 31.547944 
L 756.501554 38.832069 
L 757.478054 45.039454 
L 758.454554 51.09555 
L 759.431054 57.722999 
L 760.407554 64.141447 
L 761.384054 70.804862 
L 762.360554 78.729691 
L 763.337054 89.966534 
L 764.313554 102.148486 
L 765.290054 111.185688 
L 766.266554 114.67691 
L 767.243054 115.897268 
L 768.219554 120.360609 
L 769.196054 128.444179 
L 770.172554 136.171979 
L 771.149054 139.484519 
L 772.125554 139.525075 
L 773.102054 135.904413 
L 774.078554 130.551172 
L 775.055054 123.291249 
L 776.031554 116.018763 
L 777.008054 108.963787 
L 777.984554 102.594259 
L 778.961054 96.119345 
L 779.937554 89.236777 
L 780.914054 82.128644 
L 781.890554 74.267708 
L 782.867054 63.883215 
L 783.843554 52.374626 
L 784.820054 44.455181 
L 785.796554 41.601414 
L 786.773054 40.280083 
L 787.749554 34.900053 
L 788.726054 26.178937 
L 789.702554 17.998022 
L 790.679054 14.142133 
L 791.655554 14.735333 
L 792.632054 19.001608 
L 793.608554 24.590534 
L 794.585054 31.11974 
L 795.561554 38.183493 
L 796.538054 44.776904 
L 797.514554 51.028583 
L 798.491054 57.215317 
L 799.467554 63.753838 
L 800.444054 70.705462 
L 801.420554 78.874025 
L 802.397054 89.973763 
L 803.373554 101.925112 
L 804.350054 110.73136 
L 805.326554 114.635384 
L 806.303054 116.142884 
L 807.279554 121.282094 
L 808.256054 130.570016 
L 809.232554 138.113416 
L 810.209054 141.837054 
L 811.185554 140.716895 
L 812.162054 137.283815 
L 813.138554 131.825008 
L 814.115054 125.257401 
L 815.091554 118.215673 
L 816.068054 111.212347 
L 817.044554 104.698013 
L 818.021054 97.664978 
L 818.997554 90.431109 
L 818.997554 89.08927 
L 818.997554 89.08927 
L 818.021054 95.818865 
L 817.044554 102.398079 
L 816.068054 108.544573 
L 815.091554 115.238365 
L 814.115054 122.101205 
L 813.138554 128.534479 
L 812.162054 134.014162 
L 811.185554 137.552076 
L 810.209054 138.692461 
L 809.232554 134.965341 
L 808.256054 127.251042 
L 807.279554 117.779455 
L 806.303054 112.716184 
L 805.326554 111.62191 
L 804.350054 108.340967 
L 803.373554 100.221908 
L 802.397054 88.881977 
L 801.420554 78.174471 
L 800.444054 69.843988 
L 799.467554 62.416882 
L 798.491054 55.363834 
L 797.514554 48.735993 
L 796.538054 42.092072 
L 795.561554 35.162359 
L 794.585054 27.871721 
L 793.608554 21.260241 
L 792.632054 15.678813 
L 791.655554 11.539317 
L 790.679054 11.102286 
L 789.702554 14.950376 
L 788.726054 22.889516 
L 787.749554 31.413983 
L 786.773054 36.848253 
L 785.796554 38.594182 
L 784.820054 42.086388 
L 783.843554 50.686529 
L 782.867054 62.79206 
L 781.890554 73.566176 
L 780.914054 81.286861 
L 779.937554 87.925488 
L 778.961054 94.328746 
L 777.984554 100.343944 
L 777.008054 106.321706 
L 776.031554 113.075731 
L 775.055054 120.116121 
L 774.078554 127.280334 
L 773.102054 132.64161 
L 772.125554 136.332027 
L 771.149054 136.445327 
L 770.172554 133.144779 
L 769.196054 125.252766 
L 768.219554 116.926292 
L 767.243054 112.478622 
L 766.266554 111.67532 
L 765.290054 108.823815 
L 764.313554 100.464679 
L 763.337054 88.86709 
L 762.360554 77.972169 
L 761.384054 69.878414 
L 760.407554 62.777772 
L 759.431054 55.864116 
L 758.454554 48.79504 
L 757.478054 42.346283 
L 756.501554 35.829869 
L 755.525054 28.321979 
L 754.548554 21.715523 
L 753.572054 16.116323 
L 752.595554 12.310532 
L 751.619054 10.539022 
L 750.642554 13.822399 
L 749.666054 21.557617 
L 748.689554 30.608358 
L 747.713054 36.477993 
L 746.736554 37.234234 
L 745.760054 40.927164 
L 744.783554 49.91554 
L 743.807054 62.227812 
L 742.830554 73.528144 
L 741.854054 81.548751 
L 740.877554 87.991566 
L 739.901054 94.40385 
L 738.924554 100.658716 
L 737.948054 107.481146 
L 736.971554 113.868436 
L 735.995054 119.947171 
L 735.018554 127.069327 
L 734.042054 134.062499 
L 733.065554 137.531632 
L 732.089054 138.344204 
L 731.112554 135.466168 
L 730.136054 126.838447 
L 729.159554 116.567319 
L 728.183054 112.047651 
L 727.206554 111.126832 
L 726.230054 107.602473 
L 725.253554 99.642735 
L 724.277054 88.602912 
L 723.300554 78.043894 
L 722.324054 69.856607 
L 721.347554 62.565689 
L 720.371054 55.512143 
L 719.394554 48.27494 
L 718.418054 40.930817 
L 717.441554 34.553516 
L 716.465054 27.320375 
L 715.488554 20.772516 
L 714.512054 15.224957 
L 713.535554 11.809598 
L 712.559054 11.364604 
L 711.582554 14.93411 
L 710.606054 23.178969 
L 709.629554 32.096236 
L 708.653054 37.810476 
L 707.676554 38.978694 
L 706.700054 42.338746 
L 705.723554 50.872692 
L 704.747054 62.969283 
L 703.770554 74.162127 
L 702.794054 82.143902 
L 701.817554 89.006563 
L 700.841054 95.466282 
L 699.864554 102.082907 
L 698.888054 108.938952 
L 697.911554 114.662859 
L 696.935054 120.433603 
L 695.958554 126.395709 
L 694.982054 131.997183 
L 694.005554 136.040064 
L 693.029054 136.725829 
L 692.052554 134.215615 
L 691.076054 126.952418 
L 690.099554 117.559743 
L 689.123054 112.15957 
L 688.146554 111.061172 
L 687.170054 107.858569 
L 686.193554 100.131537 
L 685.217054 88.83708 
L 684.240554 78.323498 
L 683.264054 70.177145 
L 682.287554 62.826405 
L 681.311054 55.474266 
L 680.334554 48.761455 
L 679.358054 42.254326 
L 678.381554 35.459064 
L 677.405054 28.573748 
L 676.428554 22.92343 
L 675.452054 17.152733 
L 674.475554 13.35272 
L 673.499054 12.646329 
L 672.522554 15.602518 
L 671.546054 23.641881 
L 670.569554 32.607894 
L 669.593054 37.429583 
L 668.616554 38.567316 
L 667.640054 41.779134 
L 666.663554 50.446211 
L 665.687054 62.525541 
L 664.710554 73.707832 
L 663.734054 81.584052 
L 662.757554 88.436405 
L 661.781054 94.975961 
L 660.804554 101.216056 
L 659.828054 107.211574 
L 658.851554 113.779676 
L 657.875054 121.224232 
L 656.898554 127.542149 
L 655.922054 134.209426 
L 654.945554 138.223152 
L 653.969054 138.745858 
L 652.992554 135.084304 
L 652.016054 127.360819 
L 651.039554 117.758562 
L 650.063054 112.602606 
L 649.086554 110.936086 
L 648.110054 107.725974 
L 647.133554 99.292864 
L 646.157054 88.210804 
L 645.180554 78.048567 
L 644.204054 70.126624 
L 643.227554 62.985695 
L 642.251054 55.853227 
L 641.274554 48.906066 
L 640.298054 42.026309 
L 639.321554 35.096128 
L 638.345054 27.524099 
L 637.368554 21.499887 
L 636.392054 15.550564 
L 635.415554 11.737521 
L 634.439054 11.679357 
L 633.462554 14.038528 
L 632.486054 22.263433 
L 631.509554 31.711883 
L 630.533054 36.520108 
L 629.556554 38.496543 
L 628.580054 42.088661 
L 627.603554 50.898868 
L 626.627054 62.790494 
L 625.650554 73.711601 
L 624.674054 81.472616 
L 623.697554 88.258411 
L 622.721054 94.770892 
L 621.744554 101.331412 
L 620.768054 108.100533 
L 619.791554 114.705571 
L 618.815054 121.293485 
L 617.838554 127.58582 
L 616.862054 132.782609 
L 615.885554 136.696504 
L 614.909054 137.23489 
L 613.932554 134.135893 
L 612.956054 125.669648 
L 611.979554 115.992849 
L 611.003054 111.207977 
L 610.026554 109.888422 
L 609.050054 107.177251 
L 608.073554 99.66243 
L 607.097054 88.530067 
L 606.120554 77.983958 
L 605.144054 69.872713 
L 604.167554 62.511663 
L 603.191054 55.450504 
L 602.214554 48.68223 
L 601.238054 42.085882 
L 600.261554 35.220037 
L 599.285054 27.928418 
L 598.308554 21.354865 
L 597.332054 15.574806 
L 596.355554 11.892648 
L 595.379054 11.225841 
L 594.402554 14.894643 
L 593.426054 23.300463 
L 592.449554 32.573822 
L 591.473054 36.875565 
L 590.496554 38.044293 
L 589.520054 42.339697 
L 588.543554 50.900419 
L 587.567054 62.616392 
L 586.590554 73.712373 
L 585.614054 81.780523 
L 584.637554 88.539952 
L 583.661054 95.070792 
L 582.684554 101.136192 
L 581.708054 107.602761 
L 580.731554 114.479418 
L 579.755054 120.440358 
L 578.778554 127.013082 
L 577.802054 133.596306 
L 576.825554 137.854049 
L 575.849054 139.167535 
L 574.872554 134.928139 
L 573.896054 127.256146 
L 572.919554 118.099747 
L 571.943054 111.8848 
L 570.966554 110.805953 
L 569.990054 107.705587 
L 569.013554 99.799333 
L 568.037054 88.587754 
L 567.060554 77.963058 
L 566.084054 69.869725 
L 565.107554 62.663086 
L 564.131054 55.646561 
L 563.154554 48.749083 
L 562.178054 41.917948 
L 561.201554 35.825214 
L 560.225054 28.792784 
L 559.248554 22.658268 
L 558.272054 16.198872 
L 557.295554 11.748949 
L 556.319054 11.196527 
L 555.342554 15.525038 
L 554.366054 23.662358 
L 553.389554 32.575874 
L 552.413054 36.87484 
L 551.436554 38.06266 
L 550.460054 42.180554 
L 549.483554 50.82695 
L 548.507054 62.81859 
L 547.530554 73.7409 
L 546.554054 81.696493 
L 545.577554 88.407985 
L 544.601054 95.035971 
L 543.624554 100.950423 
L 542.648054 107.137881 
L 541.671554 113.523496 
L 540.695054 120.083494 
L 539.718554 127.3721 
L 538.742054 133.719353 
L 537.765554 137.450949 
L 536.789054 138.285619 
L 535.812554 135.430106 
L 534.836054 127.61345 
L 533.859554 118.151512 
L 532.883054 112.865218 
L 531.906554 111.119054 
L 530.930054 107.922794 
L 529.953554 99.652429 
L 528.977054 88.390888 
L 528.000554 78.013227 
L 527.024054 70.236022 
L 526.047554 63.00574 
L 525.071054 56.176376 
L 524.094554 49.473947 
L 523.118054 42.58333 
L 522.141554 35.813631 
L 521.165054 28.367122 
L 520.188554 21.56288 
L 519.212054 15.420378 
L 518.235554 10.503967 
L 517.259054 10.452443 
L 516.282554 13.713195 
L 515.306054 22.238866 
L 514.329554 31.673717 
L 513.353054 36.033653 
L 512.376554 37.70879 
L 511.400054 41.735774 
L 510.423554 50.848596 
L 509.447054 62.866938 
L 508.470554 73.769475 
L 507.494054 81.788208 
L 506.517554 88.689712 
L 505.541054 94.930815 
L 504.564554 101.42034 
L 503.588054 107.778071 
L 502.611554 114.991907 
L 501.635054 121.780943 
L 500.658554 128.205808 
L 499.682054 133.430399 
L 498.705554 137.340196 
L 497.729054 136.992784 
L 496.752554 133.614556 
L 495.776054 126.044829 
L 494.799554 116.584453 
L 493.823054 111.688429 
L 492.846554 110.677858 
L 491.870054 107.28974 
L 490.893554 99.631076 
L 489.917054 88.440604 
L 488.940554 77.753001 
L 487.964054 69.577624 
L 486.987554 62.144183 
L 486.011054 55.416665 
L 485.034554 49.396239 
L 484.058054 42.929403 
L 483.081554 35.804418 
L 482.105054 28.146325 
L 481.128554 19.476795 
L 480.152054 13.943659 
L 479.175554 10.215 
L 478.199054 10.334359 
L 477.222554 13.743933 
L 476.246054 21.488693 
L 475.269554 30.964158 
L 474.293054 36.184377 
L 473.316554 37.876055 
L 472.340054 42.308436 
L 471.363554 51.235139 
L 470.387054 62.859454 
L 469.410554 73.776548 
L 468.434054 81.807935 
L 467.457554 88.588731 
L 466.481054 95.277321 
L 465.504554 101.831463 
L 464.528054 108.737104 
L 463.551554 115.276763 
L 462.575054 121.411151 
L 461.598554 127.418593 
L 460.622054 132.877808 
L 459.645554 136.591044 
L 458.669054 137.433738 
L 457.692554 133.787597 
L 456.716054 125.938577 
L 455.739554 116.140896 
L 454.763054 111.323196 
L 453.786554 110.679363 
L 452.810054 107.606542 
L 451.833554 100.18225 
L 450.857054 89.013458 
L 449.880554 78.526202 
L 448.904054 70.337165 
L 447.927554 62.904648 
L 446.951054 56.043778 
L 445.974554 49.385608 
L 444.998054 42.133555 
L 444.021554 35.027357 
L 443.045054 27.819048 
L 442.068554 21.504557 
L 441.092054 15.815694 
L 440.115554 12.246109 
L 439.139054 11.903898 
L 438.162554 14.988821 
L 437.186054 22.015197 
L 436.209554 30.272488 
L 435.233054 35.32488 
L 434.256554 37.235247 
L 433.280054 41.285296 
L 432.303554 50.103825 
L 431.327054 62.413588 
L 430.350554 73.538154 
L 429.374054 81.76429 
L 428.397554 88.824385 
L 427.421054 95.440723 
L 426.444554 102.082538 
L 425.468054 108.473275 
L 424.491554 114.16738 
L 423.515054 120.87565 
L 422.538554 126.742405 
L 421.562054 132.822317 
L 420.585554 136.35301 
L 419.609054 137.205701 
L 418.632554 134.276719 
L 417.656054 125.424353 
L 416.679554 116.240266 
L 415.703054 111.509306 
L 414.726554 110.659197 
L 413.750054 107.484569 
L 412.773554 99.829976 
L 411.797054 88.725924 
L 410.820554 78.219802 
L 409.844054 70.06468 
L 408.867554 62.985862 
L 407.891054 56.563991 
L 406.914554 49.740189 
L 405.938054 42.77583 
L 404.961554 35.717807 
L 403.985054 27.861082 
L 403.008554 20.827316 
L 402.032054 15.801899 
L 401.055554 11.958907 
L 400.079054 11.26247 
L 399.102554 15.407825 
L 398.126054 23.579742 
L 397.149554 32.73928 
L 396.173054 38.314626 
L 395.196554 39.558053 
L 394.220054 43.38023 
L 393.243554 50.73206 
L 392.267054 62.425844 
L 391.290554 73.523236 
L 390.314054 81.652132 
L 389.337554 88.592703 
L 388.361054 95.211521 
L 387.384554 101.116305 
L 386.408054 107.013141 
L 385.431554 114.157687 
L 384.455054 121.028217 
L 383.478554 126.664568 
L 382.502054 132.571763 
L 381.525554 137.213239 
L 380.549054 138.350724 
L 379.572554 134.39464 
L 378.596054 126.656182 
L 377.619554 118.200094 
L 376.643054 113.274491 
L 375.666554 112.95436 
L 374.690054 109.568001 
L 373.713554 101.014367 
L 372.737054 89.036021 
L 371.760554 78.216671 
L 370.784054 70.042594 
L 369.807554 62.920415 
L 368.831054 55.971613 
L 367.854554 48.792333 
L 366.878054 42.248482 
L 365.901554 36.422768 
L 364.925054 29.574731 
L 363.948554 22.301119 
L 362.972054 16.107005 
L 361.995554 12.751401 
L 361.019054 12.063196 
L 360.042554 15.563842 
L 359.066054 22.622118 
L 358.089554 31.522271 
L 357.113054 36.157507 
L 356.136554 37.731053 
L 355.160054 41.964581 
L 354.183554 50.700166 
L 353.207054 62.645806 
L 352.230554 73.817064 
L 351.254054 81.713424 
L 350.277554 88.488822 
L 349.301054 94.862939 
L 348.324554 101.859833 
L 347.348054 108.525377 
L 346.371554 114.808894 
L 345.395054 120.590487 
L 344.418554 128.117367 
L 343.442054 134.127406 
L 342.465554 137.795105 
L 341.489054 137.032111 
L 340.512554 133.240992 
L 339.536054 126.100722 
L 338.559554 117.638669 
L 337.583054 112.606536 
L 336.606554 111.057925 
L 335.630054 107.92386 
L 334.653554 100.498963 
L 333.677054 89.093839 
L 332.700554 78.121585 
L 331.724054 70.030367 
L 330.747554 62.901944 
L 329.771054 56.373651 
L 328.794554 49.230938 
L 327.818054 41.977816 
L 326.841554 35.062749 
L 325.865054 28.342407 
L 324.888554 22.320751 
L 323.912054 17.103591 
L 322.935554 13.366691 
L 321.959054 12.430999 
L 320.982554 16.12103 
L 320.006054 23.54528 
L 319.029554 32.090541 
L 318.053054 37.020769 
L 317.076554 38.486912 
L 316.100054 42.095383 
L 315.123554 50.705668 
L 314.147054 62.779528 
L 313.170554 73.656848 
L 312.194054 81.785219 
L 311.217554 88.703122 
L 310.241054 95.011471 
L 309.264554 101.70225 
L 308.288054 108.539362 
L 307.311554 115.003788 
L 306.335054 122.260177 
L 305.358554 129.267344 
L 304.382054 134.424115 
L 303.405554 137.239382 
L 302.429054 137.706538 
L 301.452554 134.141198 
L 300.476054 125.844314 
L 299.499554 117.142101 
L 298.523054 112.853739 
L 297.546554 111.864523 
L 296.570054 108.591233 
L 295.593554 99.935437 
L 294.617054 88.51331 
L 293.640554 77.980597 
L 292.664054 69.906483 
L 291.687554 62.046462 
L 290.711054 54.858803 
L 289.734554 48.579332 
L 288.758054 42.275519 
L 287.781554 35.115651 
L 286.805054 28.469505 
L 285.828554 22.505621 
L 284.852054 16.87427 
L 283.875554 12.644319 
L 282.899054 11.841947 
L 281.922554 15.006926 
L 280.946054 22.124322 
L 279.969554 31.251566 
L 278.993054 36.129597 
L 278.016554 37.307857 
L 277.040054 41.400376 
L 276.063554 50.069463 
L 275.087054 62.489245 
L 274.110554 73.606987 
L 273.134054 81.480851 
L 272.157554 88.351004 
L 271.181054 94.814498 
L 270.204554 101.041378 
L 269.228054 107.077465 
L 268.251554 114.129593 
L 267.275054 120.537625 
L 266.298554 126.392252 
L 265.322054 132.035891 
L 264.345554 137.672554 
L 263.369054 139.342398 
L 262.392554 135.348143 
L 261.416054 127.360044 
L 260.439554 117.762131 
L 259.463054 112.992206 
L 258.486554 111.420866 
L 257.510054 108.478841 
L 256.533554 100.303695 
L 255.557054 88.939057 
L 254.580554 78.213785 
L 253.604054 70.40476 
L 252.627554 63.279081 
L 251.651054 55.827637 
L 250.674554 48.921519 
L 249.698054 42.594672 
L 248.721554 35.838363 
L 247.745054 29.038237 
L 246.768554 22.879274 
L 245.792054 16.830348 
L 244.815554 13.412604 
L 243.839054 12.789483 
L 242.862554 16.68737 
L 241.886054 24.271322 
L 240.909554 32.872923 
L 239.933054 37.994369 
L 238.956554 38.805652 
L 237.980054 42.474895 
L 237.003554 51.02992 
L 236.027054 62.922886 
L 235.050554 73.817752 
L 234.074054 81.924001 
L 233.097554 88.507839 
L 232.121054 94.599213 
L 231.144554 100.936608 
L 230.168054 107.673732 
L 229.191554 114.131838 
L 228.215054 120.776557 
L 227.238554 126.846304 
L 226.262054 132.671964 
L 225.285554 137.072695 
L 224.309054 137.817254 
L 223.332554 133.860865 
L 222.356054 126.621425 
L 221.379554 116.919658 
L 220.403054 111.133991 
L 219.426554 110.533165 
L 218.450054 107.976623 
L 217.473554 100.149048 
L 216.497054 88.968069 
L 215.520554 78.24257 
L 214.544054 69.950896 
L 213.567554 62.414056 
L 212.591054 54.998039 
L 211.614554 48.365536 
L 210.638054 41.416398 
L 209.661554 34.101021 
L 208.685054 26.907857 
L 207.708554 20.904822 
L 206.732054 15.671537 
L 205.755554 11.741353 
L 204.779054 11.407035 
L 203.802554 14.858581 
L 202.826054 22.836134 
L 201.849554 30.426685 
L 200.873054 34.97136 
L 199.896554 36.578081 
L 198.920054 40.794328 
L 197.943554 49.810862 
L 196.967054 62.394749 
L 195.990554 73.651157 
L 195.014054 81.529674 
L 194.037554 88.210101 
L 193.061054 94.172181 
L 192.084554 100.184289 
L 191.108054 106.86277 
L 190.131554 113.320344 
L 189.155054 120.467547 
L 188.178554 127.813249 
L 187.202054 134.28913 
L 186.225554 138.643822 
L 185.249054 138.418914 
L 184.272554 134.363935 
L 183.296054 126.353274 
L 182.319554 118.038422 
L 181.343054 113.175649 
L 180.366554 112.22021 
L 179.390054 108.508358 
L 178.413554 100.093557 
L 177.437054 88.665993 
L 176.460554 78.030496 
L 175.484054 70.044462 
L 174.507554 62.595872 
L 173.531054 55.563309 
L 172.554554 48.49121 
L 171.578054 41.571018 
L 170.601554 34.681957 
L 169.625054 28.015287 
L 168.648554 21.423393 
L 167.672054 16.097901 
L 166.695554 11.390204 
L 165.719054 11.297902 
L 164.742554 15.437726 
L 163.766054 22.906492 
L 162.789554 31.158353 
L 161.813054 36.358107 
L 160.836554 38.270182 
L 159.860054 42.382569 
L 158.883554 51.163696 
L 157.907054 62.834677 
L 156.930554 73.599661 
L 155.954054 81.503495 
L 154.977554 88.39238 
L 154.001054 94.692786 
L 153.024554 101.168346 
L 152.048054 107.62019 
L 151.071554 113.721153 
L 150.095054 120.867008 
L 149.118554 127.884533 
L 148.142054 133.497382 
L 147.165554 138.161499 
L 146.189054 138.666833 
L 145.212554 134.172779 
L 144.236054 125.423154 
L 143.259554 117.06842 
L 142.283054 112.177927 
L 141.306554 111.511364 
L 140.330054 108.227948 
L 139.353554 100.369554 
L 138.377054 88.98837 
L 137.400554 78.376044 
L 136.424054 70.466114 
L 135.447554 63.571726 
L 134.471054 56.905856 
L 133.494554 50.381647 
L 132.518054 43.443826 
L 131.541554 35.255901 
L 130.565054 28.596883 
L 129.588554 21.769563 
L 128.612054 16.317942 
L 127.635554 12.367162 
L 126.659054 12.232336 
L 125.682554 15.66765 
L 124.706054 22.897115 
L 123.729554 31.186979 
L 122.753054 36.572974 
L 121.776554 37.813394 
L 120.800054 41.638189 
L 119.823554 50.110596 
L 118.847054 62.469494 
L 117.870554 73.656492 
L 116.894054 81.359378 
L 115.917554 87.705904 
L 114.941054 94.122933 
L 113.964554 100.274631 
L 112.988054 106.42219 
L 112.011554 112.274192 
L 111.035054 118.811096 
L 110.058554 125.798294 
L 109.082054 132.363723 
L 108.105554 136.909589 
L 107.129054 137.600823 
L 106.152554 133.841177 
L 105.176054 126.287631 
L 104.199554 117.467737 
L 103.223054 112.298956 
L 102.246554 110.893601 
L 101.270054 107.710817 
L 100.293554 99.875327 
L 99.317054 88.802264 
L 98.340554 78.25916 
L 97.364054 70.072721 
L 96.387554 62.58475 
L 95.411054 55.697839 
L 94.434554 48.71093 
L 93.458054 41.909101 
L 92.481554 35.250118 
L 91.505054 28.735859 
L 90.528554 22.712197 
L 89.552054 17.070984 
L 88.575554 12.277943 
L 87.599054 11.206195 
L 86.622554 15.112674 
L 85.646054 23.825059 
L 84.669554 33.160828 
L 83.693054 38.062287 
L 82.716554 39.004851 
L 81.740054 41.612031 
L 80.763554 50.21272 
L 79.787054 62.32623 
L 78.810554 73.535168 
L 77.834054 81.424476 
L 76.857554 87.90014 
L 75.881054 94.510462 
L 74.904554 101.144865 
L 73.928054 107.638218 
L 72.951554 114.134535 
L 71.975054 121.122619 
L 70.998554 127.347389 
L 70.022054 133.834201 
L 69.045554 137.261345 
L 68.069054 137.876979 
L 67.092554 133.868339 
L 66.116054 125.84688 
L 65.139554 116.196803 
L 64.163054 111.844932 
L 63.186554 111.39752 
L 62.210054 108.228525 
L 61.233554 100.200992 
L 60.257054 88.565318 
L 59.280554 78.117298 
L 58.304054 69.940178 
L 57.327554 62.708557 
L 56.351054 55.93014 
L 55.374554 49.564441 
L 54.398054 42.938682 
L 53.421554 36.106665 
L 52.445054 28.573889 
L 51.468554 21.34984 
L 50.492054 15.117871 
L 49.515554 11.905344 
L 48.539054 12.303353 
L 47.562554 15.606675 
L 46.586054 24.037863 
L 45.609554 32.378452 
L 44.633054 37.135422 
L 43.656554 38.683032 
L 42.680054 42.411281 
L 41.703554 50.474146 
L 40.727054 62.315758 
L 39.750554 73.270448 
L 38.774054 81.22677 
z
" clip-path="url(#p22f5c2f7d2)" style="fill: #808080; fill-opacity: 0.5; stroke: #808080; stroke-opacity: 0.5"/>
   </g>
   <g id="line2d_98">
    <path d="M 38.774054 81.639837 
L 39.750554 73.615601 
L 41.703554 51.323474 
L 42.680054 43.59885 
L 43.656554 40.186929 
L 44.633054 38.846463 
L 45.609554 34.115081 
L 47.562554 17.121446 
L 48.539054 13.790478 
L 49.515554 13.459088 
L 50.492054 16.748172 
L 51.468554 23.004778 
L 54.398054 44.269235 
L 58.304054 70.37956 
L 59.280554 78.463705 
L 60.257054 89.101114 
L 61.233554 101.043146 
L 62.210054 109.412249 
L 63.186554 112.898019 
L 64.163054 113.536711 
L 65.139554 117.927873 
L 66.116054 127.499818 
L 67.092554 135.433989 
L 68.069054 139.401105 
L 69.045554 138.831716 
L 70.022054 135.46152 
L 73.928054 108.979802 
L 77.834054 81.850688 
L 78.810554 73.877293 
L 80.763554 51.053366 
L 81.740054 42.798908 
L 82.716554 40.493437 
L 83.693054 39.738842 
L 84.669554 34.855997 
L 86.622554 16.658996 
L 87.599054 12.728568 
L 88.575554 13.837381 
L 89.552054 18.669826 
L 91.505054 30.283902 
L 95.411054 56.604871 
L 97.364054 70.499248 
L 98.340554 78.616005 
L 100.293554 100.718694 
L 101.270054 108.898202 
L 102.246554 112.393487 
L 103.223054 114.009912 
L 104.199554 119.203591 
L 105.176054 127.915539 
L 106.152554 135.35194 
L 107.129054 139.111498 
L 108.105554 138.481219 
L 109.082054 134.005003 
L 116.894054 81.782851 
L 117.870554 73.999228 
L 119.823554 50.95627 
L 120.800054 42.82006 
L 121.776554 39.317873 
L 122.753054 38.272796 
L 123.729554 32.942126 
L 124.706054 24.541219 
L 125.682554 17.209841 
L 126.659054 13.76913 
L 127.635554 13.952465 
L 128.612054 17.953611 
L 129.588554 23.422802 
L 131.541554 36.735654 
L 132.518054 44.746704 
L 135.447554 64.215237 
L 136.424054 70.880439 
L 137.400554 78.716161 
L 139.353554 101.208784 
L 140.330054 109.416085 
L 141.306554 113.02172 
L 142.283054 113.881677 
L 143.259554 118.790653 
L 145.212554 135.692351 
L 146.189054 140.186079 
L 147.165554 139.749435 
L 148.142054 135.139705 
L 149.118554 129.531493 
L 152.048054 108.968265 
L 155.954054 81.938677 
L 156.930554 73.964115 
L 158.883554 52.001189 
L 159.860054 43.570898 
L 160.836554 39.7749 
L 161.813054 38.067954 
L 162.789554 32.901843 
L 164.742554 16.981548 
L 165.719054 12.854032 
L 166.695554 12.974391 
L 167.672054 17.721677 
L 168.648554 23.08848 
L 173.531054 56.494078 
L 175.484054 70.492218 
L 176.460554 78.38681 
L 179.390054 109.702195 
L 180.366554 113.744297 
L 181.343054 114.90244 
L 182.319554 119.797537 
L 184.272554 135.9006 
L 185.249054 139.936576 
L 186.225554 140.223304 
L 187.202054 135.928684 
L 188.178554 129.454763 
L 190.131554 114.803971 
L 195.014054 81.943956 
L 195.990554 73.989993 
L 198.920054 41.996292 
L 199.896554 38.114328 
L 200.873054 36.725035 
L 201.849554 32.210618 
L 203.802554 16.452256 
L 204.779054 12.955577 
L 205.755554 13.324783 
L 206.732054 17.296543 
L 207.708554 22.545542 
L 208.685054 28.506242 
L 211.614554 49.507568 
L 212.591054 55.913624 
L 214.544054 70.380093 
L 215.520554 78.598034 
L 217.473554 100.999014 
L 218.450054 109.170627 
L 219.426554 112.032501 
L 220.403054 112.823463 
L 221.379554 118.659563 
L 222.356054 128.25389 
L 223.332554 135.379516 
L 224.309054 139.306281 
L 225.285554 138.633422 
L 226.262054 134.279598 
L 228.215054 122.387449 
L 234.074054 82.382247 
L 235.050554 74.188362 
L 237.003554 51.86566 
L 237.980054 43.654582 
L 238.674054 41.271694 
L 238.674054 41.271694 
" clip-path="url(#p22f5c2f7d2)" style="fill: none; stroke: #4477aa; stroke-linecap: square"/>
   </g>
   <g id="patch_3">
    <path d="M 38.774054 149.13 
L 38.774054 3.6 
" style="fill: none; stroke: #000000; stroke-width: 0.5; stroke-linejoin: miter; stroke-linecap: square"/>
   </g>
   <g id="patch_4">
    <path d="M 234.074054 149.13 
L 234.074054 3.6 
" style="fill: none; stroke: #000000; stroke-width: 0.5; stroke-linejoin: miter; stroke-linecap: square"/>
   </g>
   <g id="patch_5">
    <path d="M 38.774054 149.13 
L 234.074054 149.13 
" style="fill: none; stroke: #000000; stroke-width: 0.5; stroke-linejoin: miter; stroke-linecap: square"/>
   </g>
   <g id="patch_6">
    <path d="M 38.774054 3.6 
L 234.074054 3.6 
" style="fill: none; stroke: #000000; stroke-width: 0.5; stroke-linejoin: miter; stroke-linecap: square"/>
   </g>
  </g>
 </g>
 <defs>
  <clipPath id="p22f5c2f7d2">
   <rect x="38.774054" y="3.6" width="195.3" height="145.53"/>
  </clipPath>
 </defs>
</svg>
