<?xml version="1.0" encoding="utf-8" standalone="no"?>
<!DOCTYPE svg PUBLIC "-//W3C//DTD SVG 1.1//EN"
  "http://www.w3.org/Graphics/SVG/1.1/DTD/svg11.dtd">
<svg xmlns:xlink="http://www.w3.org/1999/xlink" width="187.742091pt" height="145.494176pt" viewBox="0 0 187.742091 145.494176" xmlns="http://www.w3.org/2000/svg" version="1.1">
 <metadata>
  <rdf:RDF xmlns:dc="http://purl.org/dc/elements/1.1/" xmlns:cc="http://creativecommons.org/ns#" xmlns:rdf="http://www.w3.org/1999/02/22-rdf-syntax-ns#">
   <cc:Work>
    <dc:type rdf:resource="http://purl.org/dc/dcmitype/StillImage"/>
    <dc:date>2026-05-28T12:39:44.602206</dc:date>
    <dc:format>image/svg+xml</dc:format>
    <dc:creator>
     <cc:Agent>
      <dc:title>Matplotlib v3.9.2, https://matplotlib.org/</dc:title>
     </cc:Agent>
    </dc:creator>
   </cc:Work>
  </rdf:RDF>
 </metadata>
 <defs>
  <style type="text/css">*{stroke-linejoin: round; stroke-linecap: butt}</style>
 </defs>
 <g id="figure_1">
  <g id="patch_1">
   <path d="M 0 145.494176 
L 187.742091 145.494176 
L 187.742091 0 
L 0 0 
L 0 145.494176 
z
" style="fill: none"/>
  </g>
  <g id="axes_1">
   <g id="patch_2">
    <path d="M 37.667091 115.216124 
L 184.142091 115.216124 
L 184.142091 6.068624 
L 37.667091 6.068624 
L 37.667091 115.216124 
z
" style="fill: none"/>
   </g>
   <g id="matplotlib.axis_1">
    <g id="xtick_1">
     <g id="line2d_1">
      <path d="M 82.934224 115.216124 
L 82.934224 6.068624 
" clip-path="url(#p06e5db1486)" style="fill: none; stroke-dasharray: 1.85,0.8; stroke-dashoffset: 0; stroke: #000000; stroke-opacity: 0.5; stroke-width: 0.5"/>
     </g>
     <g id="line2d_2">
      <defs>
       <path id="mf7c47440a2" d="M 0 0 
L 0 -3 
" style="stroke: #000000; stroke-width: 0.5"/>
      </defs>
      <g>
       <use xlink:href="#mf7c47440a2" x="82.934224" y="115.216124" style="stroke: #000000; stroke-width: 0.5"/>
      </g>
     </g>
     <g id="line2d_3">
      <defs>
       <path id="meb20700a1c" d="M 0 0 
L 0 3 
" style="stroke: #000000; stroke-width: 0.5"/>
      </defs>
      <g>
       <use xlink:href="#meb20700a1c" x="82.934224" y="6.068624" style="stroke: #000000; stroke-width: 0.5"/>
      </g>
     </g>
     <g id="text_1">
      <!-- $\mathdefault{10^{-2}}$ -->
      <g transform="translate(72.853937 125.634622) scale(0.1 -0.1)">
       <defs>
        <path id="CMR17-31" d="M 1702 4058 
C 1702 4192 1696 4192 1606 4192 
C 1357 3916 979 3827 621 3827 
C 602 3827 570 3827 563 3808 
C 557 3795 557 3782 557 3648 
C 755 3648 1088 3686 1344 3839 
L 1344 461 
C 1344 236 1331 160 781 160 
L 589 160 
L 589 0 
C 896 0 1216 0 1523 0 
C 1830 0 2150 0 2458 0 
L 2458 160 
L 2266 160 
C 1715 160 1702 230 1702 458 
L 1702 4058 
z
" transform="scale(0.015625)"/>
        <path id="CMR17-30" d="M 2688 2025 
C 2688 2416 2682 3080 2413 3591 
C 2176 4039 1798 4198 1466 4198 
C 1158 4198 768 4058 525 3597 
C 269 3118 243 2524 243 2025 
C 243 1661 250 1106 448 619 
C 723 -39 1216 -128 1466 -128 
C 1760 -128 2208 -7 2470 600 
C 2662 1042 2688 1559 2688 2025 
z
M 1466 -26 
C 1056 -26 813 325 723 812 
C 653 1188 653 1738 653 2096 
C 653 2588 653 2997 736 3387 
C 858 3929 1216 4096 1466 4096 
C 1728 4096 2067 3923 2189 3400 
C 2272 3036 2278 2607 2278 2096 
C 2278 1680 2278 1169 2202 792 
C 2067 95 1690 -26 1466 -26 
z
" transform="scale(0.015625)"/>
        <path id="CMSY10-0" d="M 4218 1472 
C 4326 1472 4442 1472 4442 1600 
C 4442 1728 4326 1728 4218 1728 
L 755 1728 
C 646 1728 531 1728 531 1600 
C 531 1472 646 1472 755 1472 
L 4218 1472 
z
" transform="scale(0.015625)"/>
        <path id="CMR17-32" d="M 2669 989 
L 2554 989 
C 2490 536 2438 459 2413 420 
C 2381 369 1920 369 1830 369 
L 602 369 
C 832 619 1280 1072 1824 1597 
C 2214 1967 2669 2402 2669 3035 
C 2669 3790 2067 4224 1395 4224 
C 691 4224 262 3604 262 3030 
C 262 2780 448 2748 525 2748 
C 589 2748 781 2787 781 3010 
C 781 3207 614 3264 525 3264 
C 486 3264 448 3258 422 3245 
C 544 3790 915 4058 1306 4058 
C 1862 4058 2227 3617 2227 3035 
C 2227 2479 1901 2000 1536 1584 
L 262 146 
L 262 0 
L 2515 0 
L 2669 989 
z
" transform="scale(0.015625)"/>
       </defs>
       <use xlink:href="#CMR17-31" transform="scale(0.996264)"/>
       <use xlink:href="#CMR17-30" transform="translate(45.690477 0) scale(0.996264)"/>
       <use xlink:href="#CMSY10-0" transform="translate(91.380954 36.153639) scale(0.697382)"/>
       <use xlink:href="#CMR17-32" transform="translate(145.621947 36.153639) scale(0.697382)"/>
      </g>
     </g>
    </g>
    <g id="xtick_2">
     <g id="line2d_4">
      <path d="M 135.60195 115.216124 
L 135.60195 6.068624 
" clip-path="url(#p06e5db1486)" style="fill: none; stroke-dasharray: 1.85,0.8; stroke-dashoffset: 0; stroke: #000000; stroke-opacity: 0.5; stroke-width: 0.5"/>
     </g>
     <g id="line2d_5">
      <g>
       <use xlink:href="#mf7c47440a2" x="135.60195" y="115.216124" style="stroke: #000000; stroke-width: 0.5"/>
      </g>
     </g>
     <g id="line2d_6">
      <g>
       <use xlink:href="#meb20700a1c" x="135.60195" y="6.068624" style="stroke: #000000; stroke-width: 0.5"/>
      </g>
     </g>
     <g id="text_2">
      <!-- $\mathdefault{10^{0}}$ -->
      <g transform="translate(128.634996 125.634622) scale(0.1 -0.1)">
       <use xlink:href="#CMR17-31" transform="scale(0.996264)"/>
       <use xlink:href="#CMR17-30" transform="translate(45.690477 0) scale(0.996264)"/>
       <use xlink:href="#CMR17-30" transform="translate(91.380954 36.153639) scale(0.697382)"/>
      </g>
     </g>
    </g>
    <g id="text_3">
     <!-- $B_{i \to j}~[\mathrm{meV}]$ -->
     <g transform="translate(85.04867 139.043781) scale(0.1 -0.1)">
      <defs>
       <path id="CMMI12-42" d="M 2342 3921 
C 2400 4160 2426 4160 2675 4160 
L 3507 4160 
C 4230 4160 4230 3544 4230 3485 
C 4230 2966 3712 2304 2867 2304 
L 1946 2304 
L 2342 3921 
z
M 3424 2275 
C 4122 2402 4755 2886 4755 3473 
C 4755 3970 4314 4352 3590 4352 
L 1536 4352 
C 1414 4352 1357 4352 1357 4226 
C 1357 4160 1414 4160 1510 4160 
C 1901 4160 1901 4112 1901 4044 
C 1901 4032 1901 3993 1875 3897 
L 1011 472 
C 954 249 941 185 493 185 
C 371 185 307 185 307 70 
C 307 0 346 0 474 0 
L 2669 0 
C 3648 0 4403 739 4403 1383 
C 4403 1906 3942 2224 3424 2275 
z
M 2515 185 
L 1651 185 
C 1562 185 1549 185 1510 192 
C 1440 198 1434 211 1434 261 
C 1434 305 1446 343 1459 399 
L 1907 2176 
L 3110 2176 
C 3866 2176 3866 1483 3866 1433 
C 3866 828 3309 185 2515 185 
z
" transform="scale(0.015625)"/>
       <path id="CMMI12-69" d="M 1811 913 
C 1811 945 1786 971 1747 971 
C 1690 971 1683 952 1651 843 
C 1485 262 1222 64 1011 64 
C 934 64 845 83 845 275 
C 845 447 922 639 992 830 
L 1440 2018 
C 1459 2069 1504 2184 1504 2305 
C 1504 2574 1312 2816 998 2816 
C 410 2816 173 1890 173 1839 
C 173 1814 198 1782 243 1782 
C 301 1782 307 1807 333 1896 
C 486 2428 730 2682 979 2682 
C 1037 2682 1146 2682 1146 2478 
C 1146 2312 1062 2101 1011 1961 
L 563 773 
C 525 671 486 568 486 453 
C 486 166 685 -64 992 -64 
C 1581 -64 1811 869 1811 913 
z
M 1760 4013 
C 1760 4109 1683 4224 1542 4224 
C 1395 4224 1229 4083 1229 3917 
C 1229 3758 1363 3707 1440 3707 
C 1613 3707 1760 3873 1760 4013 
z
" transform="scale(0.015625)"/>
       <path id="CMSY10-21" d="M 5338 1472 
C 4986 1203 4813 941 4762 858 
C 4474 416 4422 13 4422 6 
C 4422 -70 4499 -70 4550 -70 
C 4659 -70 4666 -58 4691 58 
C 4838 685 5216 1222 5939 1517 
C 6016 1542 6035 1555 6035 1600 
C 6035 1645 5997 1664 5984 1670 
C 5702 1779 4928 2099 4685 3174 
C 4666 3251 4659 3270 4550 3270 
C 4499 3270 4422 3270 4422 3193 
C 4422 3180 4480 2777 4749 2349 
C 4877 2157 5062 1933 5338 1728 
L 582 1728 
C 467 1728 352 1728 352 1600 
C 352 1472 467 1472 582 1472 
L 5338 1472 
z
" transform="scale(0.015625)"/>
       <path id="CMMI12-6a" d="M 2240 2028 
C 2266 2131 2266 2219 2266 2245 
C 2266 2613 1990 2816 1702 2816 
C 1056 2816 710 1889 710 1845 
C 710 1813 736 1788 774 1788 
C 826 1788 832 1813 864 1876 
C 1120 2492 1440 2689 1683 2689 
C 1818 2689 1888 2618 1888 2397 
C 1888 2245 1869 2181 1843 2067 
L 1235 -327 
C 1114 -796 813 -1152 461 -1152 
C 435 -1152 301 -1152 179 -1088 
C 333 -1056 454 -936 454 -784 
C 454 -682 378 -580 237 -580 
C 70 -580 -83 -720 -83 -911 
C -83 -1171 198 -1280 461 -1280 
C 902 -1280 1485 -956 1645 -320 
L 2240 2028 
z
M 2502 4013 
C 2502 4173 2368 4224 2291 4224 
C 2118 4224 1971 4058 1971 3917 
C 1971 3822 2048 3707 2189 3707 
C 2336 3707 2502 3847 2502 4013 
z
" transform="scale(0.015625)"/>
       <path id="CMR17-5b" d="M 1504 -1600 
L 1504 -1377 
L 902 -1377 
L 902 4544 
L 1504 4544 
L 1504 4767 
L 678 4767 
L 678 -1600 
L 1504 -1600 
z
" transform="scale(0.015625)"/>
       <path id="CMR17-6d" d="M 4326 1933 
C 4326 2252 4269 2790 3507 2790 
C 3072 2790 2771 2496 2656 2151 
L 2650 2151 
C 2573 2676 2195 2790 1837 2790 
C 1331 2790 1069 2400 973 2144 
L 966 2144 
L 966 2790 
L 211 2720 
L 211 2554 
C 589 2554 646 2515 646 2208 
L 646 428 
C 646 184 621 153 211 153 
L 211 -13 
C 365 0 646 0 813 0 
C 979 0 1267 0 1421 -13 
L 1421 153 
C 1011 153 986 178 986 428 
L 986 1658 
C 986 2247 1344 2688 1792 2688 
C 2266 2688 2317 2266 2317 1958 
L 2317 428 
C 2317 184 2291 153 1882 153 
L 1882 -13 
C 2035 0 2317 0 2483 0 
C 2650 0 2938 0 3091 -13 
L 3091 153 
C 2682 153 2656 178 2656 428 
L 2656 1658 
C 2656 2247 3014 2688 3462 2688 
C 3936 2688 3987 2266 3987 1958 
L 3987 428 
C 3987 184 3962 153 3552 153 
L 3552 -13 
C 3706 0 3987 0 4154 0 
C 4320 0 4608 0 4762 -13 
L 4762 153 
C 4352 153 4326 178 4326 428 
L 4326 1933 
z
" transform="scale(0.015625)"/>
       <path id="CMR17-65" d="M 2438 1472 
C 2464 1498 2464 1511 2464 1576 
C 2464 2238 2118 2816 1389 2816 
C 710 2816 173 2169 173 1383 
C 173 551 781 -64 1459 -64 
C 2176 -64 2458 607 2458 740 
C 2458 784 2419 784 2406 784 
C 2362 784 2355 771 2330 696 
C 2189 265 1837 51 1504 51 
C 1229 51 954 203 781 480 
C 582 803 582 1176 582 1472 
L 2438 1472 
z
M 589 1568 
C 634 2505 1126 2714 1382 2714 
C 1818 2714 2112 2297 2118 1568 
L 589 1568 
z
" transform="scale(0.015625)"/>
       <path id="CMR17-56" d="M 3776 3745 
C 3834 3886 3936 4160 4365 4160 
L 4365 4332 
C 4218 4319 4051 4319 3891 4319 
C 3738 4319 3475 4319 3328 4332 
L 3328 4160 
C 3648 4160 3661 3936 3661 3898 
C 3661 3827 3642 3783 3622 3732 
L 2362 446 
L 1043 3886 
C 1024 3931 1011 3963 1011 3994 
C 1011 4160 1267 4160 1402 4160 
L 1402 4319 
C 1197 4319 896 4319 685 4319 
C 518 4319 218 4319 64 4332 
L 64 4160 
C 435 4160 506 4135 582 3931 
L 2106 -26 
C 2138 -115 2144 -128 2214 -128 
C 2285 -128 2291 -115 2323 -26 
L 3776 3745 
z
" transform="scale(0.015625)"/>
       <path id="CMR17-5d" d="M 915 4767 
L 90 4767 
L 90 4544 
L 691 4544 
L 691 -1377 
L 90 -1377 
L 90 -1600 
L 915 -1600 
L 915 4767 
z
" transform="scale(0.015625)"/>
      </defs>
      <use xlink:href="#CMMI12-42" transform="scale(0.996264)"/>
      <use xlink:href="#CMMI12-69" transform="translate(74.10802 -14.943915) scale(0.697382)"/>
      <use xlink:href="#CMSY10-21" transform="translate(97.402927 -14.943915) scale(0.697382)"/>
      <use xlink:href="#CMMI12-6a" transform="translate(167.141302 -14.943915) scale(0.697382)"/>
      <use xlink:href="#CMR17-5b" transform="translate(229.888984 0) scale(0.996264)"/>
      <use xlink:href="#CMR17-6d" transform="translate(254.760043 0) scale(0.996264)"/>
      <use xlink:href="#CMR17-65" transform="translate(331.679633 0) scale(0.996264)"/>
      <use xlink:href="#CMR17-56" transform="translate(372.165293 0) scale(0.996264)"/>
      <use xlink:href="#CMR17-5d" transform="translate(442.538889 0) scale(0.996264)"/>
     </g>
    </g>
   </g>
   <g id="matplotlib.axis_2">
    <g id="ytick_1">
     <g id="line2d_7">
      <path d="M 37.667091 115.216124 
L 184.142091 115.216124 
" clip-path="url(#p06e5db1486)" style="fill: none; stroke-dasharray: 1.85,0.8; stroke-dashoffset: 0; stroke: #000000; stroke-opacity: 0.5; stroke-width: 0.5"/>
     </g>
     <g id="line2d_8">
      <defs>
       <path id="mfe19f19831" d="M 0 0 
L 3 0 
" style="stroke: #000000; stroke-width: 0.5"/>
      </defs>
      <g>
       <use xlink:href="#mfe19f19831" x="37.667091" y="115.216124" style="stroke: #000000; stroke-width: 0.5"/>
      </g>
     </g>
     <g id="line2d_9">
      <defs>
       <path id="mf493b15b86" d="M 0 0 
L -3 0 
" style="stroke: #000000; stroke-width: 0.5"/>
      </defs>
      <g>
       <use xlink:href="#mf493b15b86" x="184.142091" y="115.216124" style="stroke: #000000; stroke-width: 0.5"/>
      </g>
     </g>
     <g id="text_4">
      <!-- $\mathdefault{0.00}$ -->
      <g transform="translate(16.455677 118.675373) scale(0.1 -0.1)">
       <defs>
        <path id="CMMI12-3a" d="M 1178 307 
C 1178 492 1024 619 870 619 
C 685 619 557 466 557 313 
C 557 128 710 0 864 0 
C 1050 0 1178 153 1178 307 
z
" transform="scale(0.015625)"/>
       </defs>
       <use xlink:href="#CMR17-30" transform="scale(0.996264)"/>
       <use xlink:href="#CMMI12-3a" transform="translate(45.690477 0) scale(0.996264)"/>
       <use xlink:href="#CMR17-30" transform="translate(72.787654 0) scale(0.996264)"/>
       <use xlink:href="#CMR17-30" transform="translate(118.478131 0) scale(0.996264)"/>
      </g>
     </g>
    </g>
    <g id="ytick_2">
     <g id="line2d_10">
      <path d="M 37.667091 88.176905 
L 184.142091 88.176905 
" clip-path="url(#p06e5db1486)" style="fill: none; stroke-dasharray: 1.85,0.8; stroke-dashoffset: 0; stroke: #000000; stroke-opacity: 0.5; stroke-width: 0.5"/>
     </g>
     <g id="line2d_11">
      <g>
       <use xlink:href="#mfe19f19831" x="37.667091" y="88.176905" style="stroke: #000000; stroke-width: 0.5"/>
      </g>
     </g>
     <g id="line2d_12">
      <g>
       <use xlink:href="#mf493b15b86" x="184.142091" y="88.176905" style="stroke: #000000; stroke-width: 0.5"/>
      </g>
     </g>
     <g id="text_5">
      <!-- $\mathdefault{0.25}$ -->
      <g transform="translate(16.455677 91.636155) scale(0.1 -0.1)">
       <defs>
        <path id="CMR17-35" d="M 730 3692 
C 794 3666 1056 3584 1325 3584 
C 1920 3584 2246 3911 2432 4100 
C 2432 4157 2432 4192 2394 4192 
C 2387 4192 2374 4192 2323 4163 
C 2099 4058 1837 3973 1517 3973 
C 1325 3973 1037 3999 723 4139 
C 653 4171 640 4171 634 4171 
C 602 4171 595 4164 595 4037 
L 595 2203 
C 595 2089 595 2057 659 2057 
C 691 2057 704 2070 736 2114 
C 941 2401 1222 2522 1542 2522 
C 1766 2522 2246 2382 2246 1289 
C 2246 1085 2246 715 2054 421 
C 1894 159 1645 25 1370 25 
C 947 25 518 320 403 814 
C 429 807 480 795 506 795 
C 589 795 749 840 749 1038 
C 749 1210 627 1280 506 1280 
C 358 1280 262 1190 262 1011 
C 262 454 704 -128 1382 -128 
C 2042 -128 2669 440 2669 1264 
C 2669 2030 2170 2624 1549 2624 
C 1222 2624 947 2503 730 2274 
L 730 3692 
z
" transform="scale(0.015625)"/>
       </defs>
       <use xlink:href="#CMR17-30" transform="scale(0.996264)"/>
       <use xlink:href="#CMMI12-3a" transform="translate(45.690477 0) scale(0.996264)"/>
       <use xlink:href="#CMR17-32" transform="translate(72.787654 0) scale(0.996264)"/>
       <use xlink:href="#CMR17-35" transform="translate(118.478131 0) scale(0.996264)"/>
      </g>
     </g>
    </g>
    <g id="ytick_3">
     <g id="line2d_13">
      <path d="M 37.667091 61.137687 
L 184.142091 61.137687 
" clip-path="url(#p06e5db1486)" style="fill: none; stroke-dasharray: 1.85,0.8; stroke-dashoffset: 0; stroke: #000000; stroke-opacity: 0.5; stroke-width: 0.5"/>
     </g>
     <g id="line2d_14">
      <g>
       <use xlink:href="#mfe19f19831" x="37.667091" y="61.137687" style="stroke: #000000; stroke-width: 0.5"/>
      </g>
     </g>
     <g id="line2d_15">
      <g>
       <use xlink:href="#mf493b15b86" x="184.142091" y="61.137687" style="stroke: #000000; stroke-width: 0.5"/>
      </g>
     </g>
     <g id="text_6">
      <!-- $\mathdefault{0.50}$ -->
      <g transform="translate(16.455677 64.596936) scale(0.1 -0.1)">
       <use xlink:href="#CMR17-30" transform="scale(0.996264)"/>
       <use xlink:href="#CMMI12-3a" transform="translate(45.690477 0) scale(0.996264)"/>
       <use xlink:href="#CMR17-35" transform="translate(72.787654 0) scale(0.996264)"/>
       <use xlink:href="#CMR17-30" transform="translate(118.478131 0) scale(0.996264)"/>
      </g>
     </g>
    </g>
    <g id="ytick_4">
     <g id="line2d_16">
      <path d="M 37.667091 34.098468 
L 184.142091 34.098468 
" clip-path="url(#p06e5db1486)" style="fill: none; stroke-dasharray: 1.85,0.8; stroke-dashoffset: 0; stroke: #000000; stroke-opacity: 0.5; stroke-width: 0.5"/>
     </g>
     <g id="line2d_17">
      <g>
       <use xlink:href="#mfe19f19831" x="37.667091" y="34.098468" style="stroke: #000000; stroke-width: 0.5"/>
      </g>
     </g>
     <g id="line2d_18">
      <g>
       <use xlink:href="#mf493b15b86" x="184.142091" y="34.098468" style="stroke: #000000; stroke-width: 0.5"/>
      </g>
     </g>
     <g id="text_7">
      <!-- $\mathdefault{0.75}$ -->
      <g transform="translate(16.455677 37.557717) scale(0.1 -0.1)">
       <defs>
        <path id="CMR17-37" d="M 2886 3941 
L 2886 4081 
L 1382 4081 
C 634 4081 621 4165 595 4288 
L 480 4288 
L 294 3094 
L 410 3094 
C 429 3215 474 3540 550 3661 
C 589 3712 1062 3712 1171 3712 
L 2579 3712 
L 1869 2661 
C 1395 1954 1069 999 1069 165 
C 1069 89 1069 -128 1299 -128 
C 1530 -128 1530 89 1530 171 
L 1530 465 
C 1530 1508 1709 2196 2003 2636 
L 2886 3941 
z
" transform="scale(0.015625)"/>
       </defs>
       <use xlink:href="#CMR17-30" transform="scale(0.996264)"/>
       <use xlink:href="#CMMI12-3a" transform="translate(45.690477 0) scale(0.996264)"/>
       <use xlink:href="#CMR17-37" transform="translate(72.787654 0) scale(0.996264)"/>
       <use xlink:href="#CMR17-35" transform="translate(118.478131 0) scale(0.996264)"/>
      </g>
     </g>
    </g>
    <g id="ytick_5">
     <g id="line2d_19">
      <path d="M 37.667091 7.059249 
L 184.142091 7.059249 
" clip-path="url(#p06e5db1486)" style="fill: none; stroke-dasharray: 1.85,0.8; stroke-dashoffset: 0; stroke: #000000; stroke-opacity: 0.5; stroke-width: 0.5"/>
     </g>
     <g id="line2d_20">
      <g>
       <use xlink:href="#mfe19f19831" x="37.667091" y="7.059249" style="stroke: #000000; stroke-width: 0.5"/>
      </g>
     </g>
     <g id="line2d_21">
      <g>
       <use xlink:href="#mf493b15b86" x="184.142091" y="7.059249" style="stroke: #000000; stroke-width: 0.5"/>
      </g>
     </g>
     <g id="text_8">
      <!-- $\mathdefault{1.00}$ -->
      <g transform="translate(16.455677 10.518498) scale(0.1 -0.1)">
       <use xlink:href="#CMR17-31" transform="scale(0.996264)"/>
       <use xlink:href="#CMMI12-3a" transform="translate(45.690477 0) scale(0.996264)"/>
       <use xlink:href="#CMR17-30" transform="translate(72.787654 0) scale(0.996264)"/>
       <use xlink:href="#CMR17-30" transform="translate(118.478131 0) scale(0.996264)"/>
      </g>
     </g>
    </g>
    <g id="ytick_6">
     <g id="line2d_22">
      <defs>
       <path id="m360440f71c" d="M 0 0 
L 1.5 0 
" style="stroke: #000000; stroke-width: 0.5"/>
      </defs>
      <g>
       <use xlink:href="#m360440f71c" x="37.667091" y="109.80828" style="stroke: #000000; stroke-width: 0.5"/>
      </g>
     </g>
     <g id="line2d_23">
      <defs>
       <path id="m7ae7ca7a07" d="M 0 0 
L -1.5 0 
" style="stroke: #000000; stroke-width: 0.5"/>
      </defs>
      <g>
       <use xlink:href="#m7ae7ca7a07" x="184.142091" y="109.80828" style="stroke: #000000; stroke-width: 0.5"/>
      </g>
     </g>
    </g>
    <g id="ytick_7">
     <g id="line2d_24">
      <g>
       <use xlink:href="#m360440f71c" x="37.667091" y="104.400437" style="stroke: #000000; stroke-width: 0.5"/>
      </g>
     </g>
     <g id="line2d_25">
      <g>
       <use xlink:href="#m7ae7ca7a07" x="184.142091" y="104.400437" style="stroke: #000000; stroke-width: 0.5"/>
      </g>
     </g>
    </g>
    <g id="ytick_8">
     <g id="line2d_26">
      <g>
       <use xlink:href="#m360440f71c" x="37.667091" y="98.992593" style="stroke: #000000; stroke-width: 0.5"/>
      </g>
     </g>
     <g id="line2d_27">
      <g>
       <use xlink:href="#m7ae7ca7a07" x="184.142091" y="98.992593" style="stroke: #000000; stroke-width: 0.5"/>
      </g>
     </g>
    </g>
    <g id="ytick_9">
     <g id="line2d_28">
      <g>
       <use xlink:href="#m360440f71c" x="37.667091" y="93.584749" style="stroke: #000000; stroke-width: 0.5"/>
      </g>
     </g>
     <g id="line2d_29">
      <g>
       <use xlink:href="#m7ae7ca7a07" x="184.142091" y="93.584749" style="stroke: #000000; stroke-width: 0.5"/>
      </g>
     </g>
    </g>
    <g id="ytick_10">
     <g id="line2d_30">
      <g>
       <use xlink:href="#m360440f71c" x="37.667091" y="82.769062" style="stroke: #000000; stroke-width: 0.5"/>
      </g>
     </g>
     <g id="line2d_31">
      <g>
       <use xlink:href="#m7ae7ca7a07" x="184.142091" y="82.769062" style="stroke: #000000; stroke-width: 0.5"/>
      </g>
     </g>
    </g>
    <g id="ytick_11">
     <g id="line2d_32">
      <g>
       <use xlink:href="#m360440f71c" x="37.667091" y="77.361218" style="stroke: #000000; stroke-width: 0.5"/>
      </g>
     </g>
     <g id="line2d_33">
      <g>
       <use xlink:href="#m7ae7ca7a07" x="184.142091" y="77.361218" style="stroke: #000000; stroke-width: 0.5"/>
      </g>
     </g>
    </g>
    <g id="ytick_12">
     <g id="line2d_34">
      <g>
       <use xlink:href="#m360440f71c" x="37.667091" y="71.953374" style="stroke: #000000; stroke-width: 0.5"/>
      </g>
     </g>
     <g id="line2d_35">
      <g>
       <use xlink:href="#m7ae7ca7a07" x="184.142091" y="71.953374" style="stroke: #000000; stroke-width: 0.5"/>
      </g>
     </g>
    </g>
    <g id="ytick_13">
     <g id="line2d_36">
      <g>
       <use xlink:href="#m360440f71c" x="37.667091" y="66.54553" style="stroke: #000000; stroke-width: 0.5"/>
      </g>
     </g>
     <g id="line2d_37">
      <g>
       <use xlink:href="#m7ae7ca7a07" x="184.142091" y="66.54553" style="stroke: #000000; stroke-width: 0.5"/>
      </g>
     </g>
    </g>
    <g id="ytick_14">
     <g id="line2d_38">
      <g>
       <use xlink:href="#m360440f71c" x="37.667091" y="55.729843" style="stroke: #000000; stroke-width: 0.5"/>
      </g>
     </g>
     <g id="line2d_39">
      <g>
       <use xlink:href="#m7ae7ca7a07" x="184.142091" y="55.729843" style="stroke: #000000; stroke-width: 0.5"/>
      </g>
     </g>
    </g>
    <g id="ytick_15">
     <g id="line2d_40">
      <g>
       <use xlink:href="#m360440f71c" x="37.667091" y="50.321999" style="stroke: #000000; stroke-width: 0.5"/>
      </g>
     </g>
     <g id="line2d_41">
      <g>
       <use xlink:href="#m7ae7ca7a07" x="184.142091" y="50.321999" style="stroke: #000000; stroke-width: 0.5"/>
      </g>
     </g>
    </g>
    <g id="ytick_16">
     <g id="line2d_42">
      <g>
       <use xlink:href="#m360440f71c" x="37.667091" y="44.914155" style="stroke: #000000; stroke-width: 0.5"/>
      </g>
     </g>
     <g id="line2d_43">
      <g>
       <use xlink:href="#m7ae7ca7a07" x="184.142091" y="44.914155" style="stroke: #000000; stroke-width: 0.5"/>
      </g>
     </g>
    </g>
    <g id="ytick_17">
     <g id="line2d_44">
      <g>
       <use xlink:href="#m360440f71c" x="37.667091" y="39.506312" style="stroke: #000000; stroke-width: 0.5"/>
      </g>
     </g>
     <g id="line2d_45">
      <g>
       <use xlink:href="#m7ae7ca7a07" x="184.142091" y="39.506312" style="stroke: #000000; stroke-width: 0.5"/>
      </g>
     </g>
    </g>
    <g id="ytick_18">
     <g id="line2d_46">
      <g>
       <use xlink:href="#m360440f71c" x="37.667091" y="28.690624" style="stroke: #000000; stroke-width: 0.5"/>
      </g>
     </g>
     <g id="line2d_47">
      <g>
       <use xlink:href="#m7ae7ca7a07" x="184.142091" y="28.690624" style="stroke: #000000; stroke-width: 0.5"/>
      </g>
     </g>
    </g>
    <g id="ytick_19">
     <g id="line2d_48">
      <g>
       <use xlink:href="#m360440f71c" x="37.667091" y="23.28278" style="stroke: #000000; stroke-width: 0.5"/>
      </g>
     </g>
     <g id="line2d_49">
      <g>
       <use xlink:href="#m7ae7ca7a07" x="184.142091" y="23.28278" style="stroke: #000000; stroke-width: 0.5"/>
      </g>
     </g>
    </g>
    <g id="ytick_20">
     <g id="line2d_50">
      <g>
       <use xlink:href="#m360440f71c" x="37.667091" y="17.874937" style="stroke: #000000; stroke-width: 0.5"/>
      </g>
     </g>
     <g id="line2d_51">
      <g>
       <use xlink:href="#m7ae7ca7a07" x="184.142091" y="17.874937" style="stroke: #000000; stroke-width: 0.5"/>
      </g>
     </g>
    </g>
    <g id="ytick_21">
     <g id="line2d_52">
      <g>
       <use xlink:href="#m360440f71c" x="37.667091" y="12.467093" style="stroke: #000000; stroke-width: 0.5"/>
      </g>
     </g>
     <g id="line2d_53">
      <g>
       <use xlink:href="#m7ae7ca7a07" x="184.142091" y="12.467093" style="stroke: #000000; stroke-width: 0.5"/>
      </g>
     </g>
    </g>
    <g id="text_9">
     <!-- Density -->
     <g transform="translate(10.518498 77.205294) rotate(-90) scale(0.1 -0.1)">
      <defs>
       <path id="CMR17-44" d="M 333 4352 
L 333 4186 
C 774 4186 845 4186 845 3900 
L 845 452 
C 845 166 774 166 333 166 
L 333 0 
L 2368 0 
C 3398 0 4224 943 4224 2141 
C 4224 3346 3411 4352 2368 4352 
L 333 4352 
z
M 1523 166 
C 1267 166 1254 197 1254 414 
L 1254 3938 
C 1254 4155 1267 4186 1523 4186 
L 2240 4186 
C 2771 4186 3750 3874 3750 2141 
C 3750 1242 3488 879 3366 707 
C 3213 510 2848 166 2240 166 
L 1523 166 
z
" transform="scale(0.015625)"/>
       <path id="CMR17-6e" d="M 2656 1933 
C 2656 2259 2592 2790 1837 2790 
C 1331 2790 1069 2400 973 2144 
L 966 2144 
L 966 2790 
L 211 2720 
L 211 2554 
C 589 2554 646 2515 646 2208 
L 646 428 
C 646 184 621 153 211 153 
L 211 -13 
C 365 0 646 0 813 0 
C 979 0 1267 0 1421 -13 
L 1421 153 
C 1011 153 986 178 986 428 
L 986 1658 
C 986 2247 1344 2688 1792 2688 
C 2266 2688 2317 2266 2317 1958 
L 2317 428 
C 2317 184 2291 153 1882 153 
L 1882 -13 
C 2035 0 2317 0 2483 0 
C 2650 0 2938 0 3091 -13 
L 3091 153 
C 2682 153 2656 178 2656 428 
L 2656 1933 
z
" transform="scale(0.015625)"/>
       <path id="CMR17-73" d="M 1978 2697 
C 1978 2813 1971 2819 1933 2819 
C 1907 2819 1901 2813 1824 2717 
C 1805 2691 1747 2626 1728 2601 
C 1523 2819 1235 2819 1126 2819 
C 416 2819 160 2447 160 2076 
C 160 1498 813 1365 998 1325 
C 1402 1243 1542 1217 1677 1101 
C 1760 1025 1901 884 1901 654 
C 1901 384 1747 38 1158 38 
C 602 38 403 460 288 1021 
C 269 1110 269 1117 218 1117 
C 166 1117 160 1110 160 983 
L 160 63 
C 160 -51 166 -58 205 -58 
C 237 -58 243 -51 275 0 
C 314 57 410 211 448 276 
C 576 103 800 -64 1158 -64 
C 1792 -64 2131 283 2131 784 
C 2131 1112 1958 1285 1875 1362 
C 1683 1561 1459 1606 1190 1657 
C 838 1735 390 1825 390 2217 
C 390 2383 480 2737 1126 2737 
C 1811 2737 1850 2094 1862 1888 
C 1869 1856 1901 1849 1920 1849 
C 1978 1849 1978 1869 1978 1978 
L 1978 2697 
z
" transform="scale(0.015625)"/>
       <path id="CMR17-69" d="M 992 3909 
C 992 4049 877 4170 730 4170 
C 589 4170 467 4056 467 3909 
C 467 3769 582 3648 730 3648 
C 870 3648 992 3763 992 3909 
z
M 243 2706 
L 243 2541 
C 602 2541 653 2502 653 2197 
L 653 427 
C 653 184 627 153 218 153 
L 218 -13 
C 371 0 646 0 806 0 
C 960 0 1222 0 1370 -13 
L 1370 153 
C 992 153 979 191 979 420 
L 979 2776 
L 243 2706 
z
" transform="scale(0.015625)"/>
       <path id="CMR17-74" d="M 966 2560 
L 1862 2560 
L 1862 2725 
L 966 2725 
L 966 3904 
L 851 3904 
C 838 3245 614 2668 70 2668 
L 70 2560 
L 627 2560 
L 627 771 
C 627 650 627 -64 1370 -64 
C 1747 -64 1965 306 1965 777 
L 1965 1140 
L 1850 1140 
L 1850 783 
C 1850 344 1677 51 1408 51 
C 1222 51 966 178 966 758 
L 966 2560 
z
" transform="scale(0.015625)"/>
       <path id="CMR17-79" d="M 2496 2197 
C 2656 2586 2944 2586 3034 2586 
L 3034 2752 
C 2912 2752 2752 2752 2630 2752 
C 2496 2752 2285 2752 2157 2758 
L 2157 2592 
C 2400 2573 2406 2394 2406 2343 
C 2406 2280 2394 2248 2362 2171 
L 1664 449 
L 902 2306 
C 870 2382 870 2426 870 2433 
C 870 2573 1018 2586 1171 2586 
L 1171 2758 
C 1018 2752 742 2752 582 2752 
C 410 2752 205 2752 64 2758 
L 64 2586 
C 410 2586 448 2554 531 2350 
L 1485 15 
C 1197 -738 1030 -1178 627 -1178 
C 557 -1178 397 -1159 282 -1044 
C 429 -1031 493 -942 493 -833 
C 493 -725 416 -629 288 -629 
C 147 -629 77 -725 77 -840 
C 77 -1095 339 -1280 627 -1280 
C 998 -1280 1229 -922 1357 -604 
L 2496 2197 
z
" transform="scale(0.015625)"/>
      </defs>
      <use xlink:href="#CMR17-44" transform="scale(0.996264)"/>
      <use xlink:href="#CMR17-65" transform="translate(70.393556 0) scale(0.996264)"/>
      <use xlink:href="#CMR17-6e" transform="translate(110.879216 0) scale(0.996264)"/>
      <use xlink:href="#CMR17-73" transform="translate(161.774586 0) scale(0.996264)"/>
      <use xlink:href="#CMR17-69" transform="translate(197.575924 0) scale(0.996264)"/>
      <use xlink:href="#CMR17-74" transform="translate(222.446982 0) scale(0.996264)"/>
      <use xlink:href="#CMR17-79" transform="translate(255.125296 0) scale(0.996264)"/>
     </g>
    </g>
   </g>
   <g id="PolyCollection_1">
    <defs>
     <path id="mb051316294" d="M 69.080815 -30.314003 
L 69.080815 -30.278052 
L 69.616975 -30.278052 
L 70.153135 -30.278052 
L 70.689295 -30.278052 
L 71.225455 -30.278052 
L 71.761615 -30.278052 
L 72.297775 -30.278052 
L 72.833935 -30.278052 
L 73.370095 -30.278052 
L 73.906255 -30.278052 
L 74.442415 -30.278052 
L 74.978575 -30.278052 
L 75.514735 -30.278052 
L 76.050895 -30.278052 
L 76.587055 -30.278052 
L 77.123215 -30.278052 
L 77.659375 -30.278052 
L 78.195535 -30.278052 
L 78.731696 -30.278052 
L 79.267856 -30.278052 
L 79.804016 -30.278052 
L 80.340176 -30.278052 
L 80.876336 -30.278052 
L 81.412496 -30.278052 
L 81.948656 -30.278052 
L 82.484816 -30.278052 
L 83.020976 -30.278052 
L 83.557136 -30.278052 
L 84.093296 -30.278052 
L 84.629456 -30.278052 
L 85.165616 -30.278052 
L 85.701776 -30.278052 
L 86.237936 -30.278052 
L 86.774096 -30.278052 
L 87.310256 -30.278052 
L 87.846416 -30.278052 
L 88.382576 -30.278052 
L 88.918736 -30.278052 
L 89.454896 -30.278052 
L 89.991056 -30.278052 
L 90.527216 -30.278052 
L 91.063376 -30.278052 
L 91.599536 -30.278052 
L 92.135696 -30.278052 
L 92.671856 -30.278052 
L 93.208016 -30.278052 
L 93.744176 -30.278052 
L 94.280336 -30.278052 
L 94.816496 -30.278052 
L 95.352656 -30.278052 
L 95.888816 -30.278052 
L 96.424976 -30.278052 
L 96.961136 -30.278052 
L 97.497296 -30.278052 
L 98.033456 -30.278052 
L 98.569616 -30.278052 
L 99.105776 -30.278052 
L 99.641936 -30.278052 
L 100.178096 -30.278052 
L 100.714256 -30.278052 
L 101.250416 -30.278052 
L 101.786576 -30.278052 
L 102.322736 -30.278052 
L 102.858896 -30.278052 
L 103.395056 -30.278052 
L 103.931216 -30.278052 
L 104.467376 -30.278052 
L 105.003536 -30.278052 
L 105.539697 -30.278052 
L 106.075857 -30.278052 
L 106.612017 -30.278052 
L 107.148177 -30.278052 
L 107.684337 -30.278052 
L 108.220497 -30.278052 
L 108.756657 -30.278052 
L 109.292817 -30.278052 
L 109.828977 -30.278052 
L 110.365137 -30.278052 
L 110.901297 -30.278052 
L 111.437457 -30.278052 
L 111.973617 -30.278052 
L 112.509777 -30.278052 
L 113.045937 -30.278052 
L 113.582097 -30.278052 
L 114.118257 -30.278052 
L 114.654417 -30.278052 
L 115.190577 -30.278052 
L 115.726737 -30.278052 
L 116.262897 -30.278052 
L 116.799057 -30.278052 
L 117.335217 -30.278052 
L 117.871377 -30.278052 
L 118.407537 -30.278052 
L 118.943697 -30.278052 
L 119.479857 -30.278052 
L 120.016017 -30.278052 
L 120.552177 -30.278052 
L 121.088337 -30.278052 
L 121.624497 -30.278052 
L 122.160657 -30.278052 
L 122.696817 -30.278052 
L 123.232977 -30.278052 
L 123.769137 -30.278052 
L 124.305297 -30.278052 
L 124.841457 -30.278052 
L 125.377617 -30.278052 
L 125.913777 -30.278052 
L 126.449937 -30.278052 
L 126.986097 -30.278052 
L 127.522257 -30.278052 
L 128.058417 -30.278052 
L 128.594577 -30.278052 
L 129.130737 -30.278052 
L 129.666897 -30.278052 
L 130.203057 -30.278052 
L 130.739217 -30.278052 
L 131.275377 -30.278052 
L 131.811537 -30.278052 
L 132.347697 -30.278052 
L 132.883858 -30.278052 
L 133.420018 -30.278052 
L 133.956178 -30.278052 
L 134.492338 -30.278052 
L 135.028498 -30.278052 
L 135.564658 -30.278052 
L 136.100818 -30.278052 
L 136.636978 -30.278052 
L 137.173138 -30.278052 
L 137.709298 -30.278052 
L 138.245458 -30.278052 
L 138.781618 -30.278052 
L 139.317778 -30.278052 
L 139.853938 -30.278052 
L 140.390098 -30.278052 
L 140.926258 -30.278052 
L 141.462418 -30.278052 
L 141.998578 -30.278052 
L 142.534738 -30.278052 
L 143.070898 -30.278052 
L 143.607058 -30.278052 
L 144.143218 -30.278052 
L 144.679378 -30.278052 
L 145.215538 -30.278052 
L 145.751698 -30.278052 
L 146.287858 -30.278052 
L 146.824018 -30.278052 
L 147.360178 -30.278052 
L 147.896338 -30.278052 
L 148.432498 -30.278052 
L 148.968658 -30.278052 
L 149.504818 -30.278052 
L 150.040978 -30.278052 
L 150.577138 -30.278052 
L 151.113298 -30.278052 
L 151.649458 -30.278052 
L 152.185618 -30.278052 
L 152.721778 -30.278052 
L 153.257938 -30.278052 
L 153.794098 -30.278052 
L 154.330258 -30.278052 
L 154.866418 -30.278052 
L 155.402578 -30.278052 
L 155.938738 -30.278052 
L 156.474898 -30.278052 
L 157.011058 -30.278052 
L 157.547218 -30.278052 
L 158.083378 -30.278052 
L 158.619538 -30.278052 
L 159.155698 -30.278052 
L 159.691858 -30.278052 
L 160.228019 -30.278052 
L 160.764179 -30.278052 
L 161.300339 -30.278052 
L 161.836499 -30.278052 
L 162.372659 -30.278052 
L 162.908819 -30.278052 
L 163.444979 -30.278052 
L 163.981139 -30.278052 
L 164.517299 -30.278052 
L 165.053459 -30.278052 
L 165.589619 -30.278052 
L 166.125779 -30.278052 
L 166.661939 -30.278052 
L 167.198099 -30.278052 
L 167.734259 -30.278052 
L 168.270419 -30.278052 
L 168.806579 -30.278052 
L 169.342739 -30.278052 
L 169.878899 -30.278052 
L 170.415059 -30.278052 
L 170.951219 -30.278052 
L 171.487379 -30.278052 
L 172.023539 -30.278052 
L 172.559699 -30.278052 
L 173.095859 -30.278052 
L 173.632019 -30.278052 
L 174.168179 -30.278052 
L 174.704339 -30.278052 
L 175.240499 -30.278052 
L 175.776659 -30.278052 
L 175.776659 -30.312296 
L 175.776659 -30.312296 
L 175.240499 -30.326074 
L 174.704339 -30.344609 
L 174.168179 -30.369227 
L 173.632019 -30.401499 
L 173.095859 -30.443261 
L 172.559699 -30.496604 
L 172.023539 -30.563853 
L 171.487379 -30.647531 
L 170.951219 -30.750294 
L 170.415059 -30.874849 
L 169.878899 -31.023849 
L 169.342739 -31.199774 
L 168.806579 -31.404801 
L 168.270419 -31.64068 
L 167.734259 -31.908615 
L 167.198099 -32.20918 
L 166.661939 -32.542274 
L 166.125779 -32.907128 
L 165.589619 -33.302373 
L 165.053459 -33.726185 
L 164.517299 -34.17649 
L 163.981139 -34.65123 
L 163.444979 -35.14867 
L 162.908819 -35.667735 
L 162.372659 -36.208332 
L 161.836499 -36.771636 
L 161.300339 -37.360321 
L 160.764179 -37.97868 
L 160.228019 -38.63265 
L 159.691858 -39.329693 
L 159.155698 -40.078571 
L 158.619538 -40.888992 
L 158.083378 -41.771178 
L 157.547218 -42.735371 
L 157.011058 -43.791326 
L 156.474898 -44.947831 
L 155.938738 -46.212292 
L 155.402578 -47.590434 
L 154.866418 -49.086119 
L 154.330258 -50.701323 
L 153.794098 -52.436247 
L 153.257938 -54.289572 
L 152.721778 -56.2588 
L 152.185618 -58.340676 
L 151.649458 -60.53161 
L 151.113298 -62.828079 
L 150.577138 -65.226941 
L 150.040978 -67.725628 
L 149.504818 -70.322196 
L 148.968658 -73.015192 
L 148.432498 -75.803371 
L 147.896338 -78.685246 
L 147.360178 -81.658532 
L 146.824018 -84.719501 
L 146.287858 -87.86233 
L 145.751698 -91.078465 
L 145.215538 -94.356093 
L 144.679378 -97.679745 
L 144.143218 -101.030077 
L 143.607058 -104.383868 
L 143.070898 -107.714226 
L 142.534738 -110.991013 
L 141.998578 -114.181461 
L 141.462418 -117.250951 
L 140.926258 -120.163913 
L 140.390098 -122.884804 
L 139.853938 -125.379106 
L 139.317778 -127.614313 
L 138.781618 -129.560854 
L 138.245458 -131.192927 
L 137.709298 -132.489204 
L 137.173138 -133.433404 
L 136.636978 -134.014714 
L 136.100818 -134.228052 
L 135.564658 -134.074162 
L 135.028498 -133.559558 
L 134.492338 -132.696302 
L 133.956178 -131.501621 
L 133.420018 -129.997368 
L 132.883858 -128.209345 
L 132.347697 -126.166475 
L 131.811537 -123.899878 
L 131.275377 -121.441848 
L 130.739217 -118.824801 
L 130.203057 -116.08023 
L 129.666897 -113.237733 
L 129.130737 -110.324164 
L 128.594577 -107.36299 
L 128.058417 -104.373877 
L 127.522257 -101.372557 
L 126.986097 -98.370982 
L 126.449937 -95.377748 
L 125.913777 -92.398761 
L 125.377617 -89.438079 
L 124.841457 -86.498848 
L 124.305297 -83.584252 
L 123.769137 -80.698388 
L 123.232977 -77.846978 
L 122.696817 -75.037864 
L 122.160657 -72.281238 
L 121.624497 -69.589593 
L 121.088337 -66.977411 
L 120.552177 -64.460608 
L 120.016017 -62.055813 
L 119.479857 -59.779518 
L 118.943697 -57.647204 
L 118.407537 -55.672487 
L 117.871377 -53.866365 
L 117.335217 -52.236613 
L 116.799057 -50.787371 
L 116.262897 -49.51893 
L 115.726737 -48.427746 
L 115.190577 -47.506646 
L 114.654417 -46.745214 
L 114.118257 -46.130318 
L 113.582097 -45.646737 
L 113.045937 -45.277836 
L 112.509777 -45.006243 
L 111.973617 -44.814489 
L 111.437457 -44.685565 
L 110.901297 -44.603376 
L 110.365137 -44.55307 
L 109.828977 -44.521234 
L 109.292817 -44.495974 
L 108.756657 -44.466886 
L 108.220497 -44.424944 
L 107.684337 -44.362344 
L 107.148177 -44.272325 
L 106.612017 -44.149015 
L 106.075857 -43.987304 
L 105.539697 -43.782791 
L 105.003536 -43.531792 
L 104.467376 -43.231412 
L 103.931216 -42.879682 
L 103.395056 -42.475723 
L 102.858896 -42.019923 
L 102.322736 -41.51409 
L 101.786576 -40.961567 
L 101.250416 -40.367267 
L 100.714256 -39.737627 
L 100.178096 -39.080473 
L 99.641936 -38.404793 
L 99.105776 -37.720431 
L 98.569616 -37.037732 
L 98.033456 -36.367156 
L 97.497296 -35.718886 
L 96.961136 -35.102468 
L 96.424976 -34.526493 
L 95.888816 -33.998346 
L 95.352656 -33.524036 
L 94.816496 -33.108088 
L 94.280336 -32.753517 
L 93.744176 -32.461855 
L 93.208016 -32.233221 
L 92.671856 -32.066421 
L 92.135696 -31.959062 
L 91.599536 -31.907667 
L 91.063376 -31.90778 
L 90.527216 -31.954075 
L 89.991056 -32.040448 
L 89.454896 -32.160125 
L 88.918736 -32.305769 
L 88.382576 -32.469612 
L 87.846416 -32.643618 
L 87.310256 -32.819669 
L 86.774096 -32.989786 
L 86.237936 -33.146371 
L 85.701776 -33.282464 
L 85.165616 -33.391993 
L 84.629456 -33.470006 
L 84.093296 -33.512862 
L 83.557136 -33.518368 
L 83.020976 -33.485846 
L 82.484816 -33.416117 
L 81.948656 -33.311417 
L 81.412496 -33.175232 
L 80.876336 -33.012071 
L 80.340176 -32.827195 
L 79.804016 -32.626322 
L 79.267856 -32.415321 
L 78.731696 -32.199927 
L 78.195535 -31.985487 
L 77.659375 -31.776755 
L 77.123215 -31.577737 
L 76.587055 -31.391608 
L 76.050895 -31.220671 
L 75.514735 -31.066387 
L 74.978575 -30.929434 
L 74.442415 -30.809806 
L 73.906255 -30.706932 
L 73.370095 -30.619804 
L 72.833935 -30.547104 
L 72.297775 -30.487324 
L 71.761615 -30.438871 
L 71.225455 -30.400151 
L 70.689295 -30.36964 
L 70.153135 -30.345927 
L 69.616975 -30.32775 
L 69.080815 -30.314003 
z
" style="stroke: #0f3455"/>
    </defs>
    <g clip-path="url(#p06e5db1486)">
     <use xlink:href="#mb051316294" x="0" y="145.494176" style="fill: #0f3455; fill-opacity: 0.25; stroke: #0f3455"/>
    </g>
   </g>
   <g id="PolyCollection_2">
    <defs>
     <path id="m653e13b993" d="M 80.963937 -30.322199 
L 80.963937 -30.278052 
L 81.437748 -30.278052 
L 81.91156 -30.278052 
L 82.385371 -30.278052 
L 82.859182 -30.278052 
L 83.332994 -30.278052 
L 83.806805 -30.278052 
L 84.280616 -30.278052 
L 84.754427 -30.278052 
L 85.228239 -30.278052 
L 85.70205 -30.278052 
L 86.175861 -30.278052 
L 86.649673 -30.278052 
L 87.123484 -30.278052 
L 87.597295 -30.278052 
L 88.071107 -30.278052 
L 88.544918 -30.278052 
L 89.018729 -30.278052 
L 89.49254 -30.278052 
L 89.966352 -30.278052 
L 90.440163 -30.278052 
L 90.913974 -30.278052 
L 91.387786 -30.278052 
L 91.861597 -30.278052 
L 92.335408 -30.278052 
L 92.809219 -30.278052 
L 93.283031 -30.278052 
L 93.756842 -30.278052 
L 94.230653 -30.278052 
L 94.704465 -30.278052 
L 95.178276 -30.278052 
L 95.652087 -30.278052 
L 96.125899 -30.278052 
L 96.59971 -30.278052 
L 97.073521 -30.278052 
L 97.547332 -30.278052 
L 98.021144 -30.278052 
L 98.494955 -30.278052 
L 98.968766 -30.278052 
L 99.442578 -30.278052 
L 99.916389 -30.278052 
L 100.3902 -30.278052 
L 100.864012 -30.278052 
L 101.337823 -30.278052 
L 101.811634 -30.278052 
L 102.285445 -30.278052 
L 102.759257 -30.278052 
L 103.233068 -30.278052 
L 103.706879 -30.278052 
L 104.180691 -30.278052 
L 104.654502 -30.278052 
L 105.128313 -30.278052 
L 105.602124 -30.278052 
L 106.075936 -30.278052 
L 106.549747 -30.278052 
L 107.023558 -30.278052 
L 107.49737 -30.278052 
L 107.971181 -30.278052 
L 108.444992 -30.278052 
L 108.918804 -30.278052 
L 109.392615 -30.278052 
L 109.866426 -30.278052 
L 110.340237 -30.278052 
L 110.814049 -30.278052 
L 111.28786 -30.278052 
L 111.761671 -30.278052 
L 112.235483 -30.278052 
L 112.709294 -30.278052 
L 113.183105 -30.278052 
L 113.656917 -30.278052 
L 114.130728 -30.278052 
L 114.604539 -30.278052 
L 115.07835 -30.278052 
L 115.552162 -30.278052 
L 116.025973 -30.278052 
L 116.499784 -30.278052 
L 116.973596 -30.278052 
L 117.447407 -30.278052 
L 117.921218 -30.278052 
L 118.395029 -30.278052 
L 118.868841 -30.278052 
L 119.342652 -30.278052 
L 119.816463 -30.278052 
L 120.290275 -30.278052 
L 120.764086 -30.278052 
L 121.237897 -30.278052 
L 121.711709 -30.278052 
L 122.18552 -30.278052 
L 122.659331 -30.278052 
L 123.133142 -30.278052 
L 123.606954 -30.278052 
L 124.080765 -30.278052 
L 124.554576 -30.278052 
L 125.028388 -30.278052 
L 125.502199 -30.278052 
L 125.97601 -30.278052 
L 126.449822 -30.278052 
L 126.923633 -30.278052 
L 127.397444 -30.278052 
L 127.871255 -30.278052 
L 128.345067 -30.278052 
L 128.818878 -30.278052 
L 129.292689 -30.278052 
L 129.766501 -30.278052 
L 130.240312 -30.278052 
L 130.714123 -30.278052 
L 131.187934 -30.278052 
L 131.661746 -30.278052 
L 132.135557 -30.278052 
L 132.609368 -30.278052 
L 133.08318 -30.278052 
L 133.556991 -30.278052 
L 134.030802 -30.278052 
L 134.504614 -30.278052 
L 134.978425 -30.278052 
L 135.452236 -30.278052 
L 135.926047 -30.278052 
L 136.399859 -30.278052 
L 136.87367 -30.278052 
L 137.347481 -30.278052 
L 137.821293 -30.278052 
L 138.295104 -30.278052 
L 138.768915 -30.278052 
L 139.242727 -30.278052 
L 139.716538 -30.278052 
L 140.190349 -30.278052 
L 140.66416 -30.278052 
L 141.137972 -30.278052 
L 141.611783 -30.278052 
L 142.085594 -30.278052 
L 142.559406 -30.278052 
L 143.033217 -30.278052 
L 143.507028 -30.278052 
L 143.980839 -30.278052 
L 144.454651 -30.278052 
L 144.928462 -30.278052 
L 145.402273 -30.278052 
L 145.876085 -30.278052 
L 146.349896 -30.278052 
L 146.823707 -30.278052 
L 147.297519 -30.278052 
L 147.77133 -30.278052 
L 148.245141 -30.278052 
L 148.718952 -30.278052 
L 149.192764 -30.278052 
L 149.666575 -30.278052 
L 150.140386 -30.278052 
L 150.614198 -30.278052 
L 151.088009 -30.278052 
L 151.56182 -30.278052 
L 152.035632 -30.278052 
L 152.509443 -30.278052 
L 152.983254 -30.278052 
L 153.457065 -30.278052 
L 153.930877 -30.278052 
L 154.404688 -30.278052 
L 154.878499 -30.278052 
L 155.352311 -30.278052 
L 155.826122 -30.278052 
L 156.299933 -30.278052 
L 156.773744 -30.278052 
L 157.247556 -30.278052 
L 157.721367 -30.278052 
L 158.195178 -30.278052 
L 158.66899 -30.278052 
L 159.142801 -30.278052 
L 159.616612 -30.278052 
L 160.090424 -30.278052 
L 160.564235 -30.278052 
L 161.038046 -30.278052 
L 161.511857 -30.278052 
L 161.985669 -30.278052 
L 162.45948 -30.278052 
L 162.933291 -30.278052 
L 163.407103 -30.278052 
L 163.880914 -30.278052 
L 164.354725 -30.278052 
L 164.828537 -30.278052 
L 165.302348 -30.278052 
L 165.776159 -30.278052 
L 166.24997 -30.278052 
L 166.723782 -30.278052 
L 167.197593 -30.278052 
L 167.671404 -30.278052 
L 168.145216 -30.278052 
L 168.619027 -30.278052 
L 169.092838 -30.278052 
L 169.566649 -30.278052 
L 170.040461 -30.278052 
L 170.514272 -30.278052 
L 170.988083 -30.278052 
L 171.461895 -30.278052 
L 171.935706 -30.278052 
L 172.409517 -30.278052 
L 172.883329 -30.278052 
L 173.35714 -30.278052 
L 173.830951 -30.278052 
L 174.304762 -30.278052 
L 174.778574 -30.278052 
L 175.252385 -30.278052 
L 175.252385 -30.311899 
L 175.252385 -30.311899 
L 174.778574 -30.323709 
L 174.304762 -30.339075 
L 173.830951 -30.358865 
L 173.35714 -30.384094 
L 172.883329 -30.415928 
L 172.409517 -30.455686 
L 171.935706 -30.504826 
L 171.461895 -30.564935 
L 170.988083 -30.637695 
L 170.514272 -30.724849 
L 170.040461 -30.828146 
L 169.566649 -30.949282 
L 169.092838 -31.089832 
L 168.619027 -31.251169 
L 168.145216 -31.434387 
L 167.671404 -31.640229 
L 167.197593 -31.869009 
L 166.723782 -32.120568 
L 166.24997 -32.394237 
L 165.776159 -32.688831 
L 165.302348 -33.002676 
L 164.828537 -33.333668 
L 164.354725 -33.679377 
L 163.880914 -34.037172 
L 163.407103 -34.404389 
L 162.933291 -34.778519 
L 162.45948 -35.157411 
L 161.985669 -35.53948 
L 161.511857 -35.923898 
L 161.038046 -36.310776 
L 160.564235 -36.701292 
L 160.090424 -37.09779 
L 159.616612 -37.503804 
L 159.142801 -37.92403 
L 158.66899 -38.364227 
L 158.195178 -38.831056 
L 157.721367 -39.331858 
L 157.247556 -39.874385 
L 156.773744 -40.466492 
L 156.299933 -41.11581 
L 155.826122 -41.829412 
L 155.352311 -42.613496 
L 154.878499 -43.473094 
L 154.404688 -44.411833 
L 153.930877 -45.431756 
L 153.457065 -46.533216 
L 152.983254 -47.714851 
L 152.509443 -48.973652 
L 152.035632 -50.305111 
L 151.56182 -51.703457 
L 151.088009 -53.161964 
L 150.614198 -54.67332 
L 150.140386 -56.230033 
L 149.666575 -57.824865 
L 149.192764 -59.451251 
L 148.718952 -61.103687 
L 148.245141 -62.77806 
L 147.77133 -64.471885 
L 147.297519 -66.184444 
L 146.823707 -67.916791 
L 146.349896 -69.671635 
L 145.876085 -71.453085 
L 145.402273 -73.266279 
L 144.928462 -75.116908 
L 144.454651 -77.010673 
L 143.980839 -78.952691 
L 143.507028 -80.946915 
L 143.033217 -82.99558 
L 142.559406 -85.098731 
L 142.085594 -87.253857 
L 141.611783 -89.455656 
L 141.137972 -91.695955 
L 140.66416 -93.963769 
L 140.190349 -96.245519 
L 139.716538 -98.525372 
L 139.242727 -100.785687 
L 138.768915 -103.007539 
L 138.295104 -105.171287 
L 137.821293 -107.25715 
L 137.347481 -109.245768 
L 136.87367 -111.118713 
L 136.399859 -112.858943 
L 135.926047 -114.451177 
L 135.452236 -115.88218 
L 134.978425 -117.140973 
L 134.504614 -118.218957 
L 134.030802 -119.109962 
L 133.556991 -119.810232 
L 133.08318 -120.318354 
L 132.609368 -120.635141 
L 132.135557 -120.763478 
L 131.661746 -120.708136 
L 131.187934 -120.475568 
L 130.714123 -120.073687 
L 130.240312 -119.511633 
L 129.766501 -118.799541 
L 129.292689 -117.948308 
L 128.818878 -116.969362 
L 128.345067 -115.874452 
L 127.871255 -114.675436 
L 127.397444 -113.384093 
L 126.923633 -112.01195 
L 126.449822 -110.570111 
L 125.97601 -109.069111 
L 125.502199 -107.518768 
L 125.028388 -105.928052 
L 124.554576 -104.304955 
L 124.080765 -102.656375 
L 123.606954 -100.988016 
L 123.133142 -99.304307 
L 122.659331 -97.608353 
L 122.18552 -95.901924 
L 121.711709 -94.185499 
L 121.237897 -92.458361 
L 120.764086 -90.718758 
L 120.290275 -88.964129 
L 119.816463 -87.191391 
L 119.342652 -85.39727 
L 118.868841 -83.57868 
L 118.395029 -81.733112 
L 117.921218 -79.85902 
L 117.447407 -77.956177 
L 116.973596 -76.025987 
L 116.499784 -74.071717 
L 116.025973 -72.098637 
L 115.552162 -70.114067 
L 115.07835 -68.127306 
L 114.604539 -66.149459 
L 114.130728 -64.193162 
L 113.656917 -62.272223 
L 113.183105 -60.401187 
L 112.709294 -58.594864 
L 112.235483 -56.867823 
L 111.761671 -55.233893 
L 111.28786 -53.705681 
L 110.814049 -52.294131 
L 110.340237 -51.008151 
L 109.866426 -49.8543 
L 109.392615 -48.836573 
L 108.918804 -47.956259 
L 108.444992 -47.211904 
L 107.971181 -46.599353 
L 107.49737 -46.111886 
L 107.023558 -45.740427 
L 106.549747 -45.473823 
L 106.075936 -45.299182 
L 105.602124 -45.202257 
L 105.128313 -45.167863 
L 104.654502 -45.180301 
L 104.180691 -45.223793 
L 103.706879 -45.282901 
L 103.233068 -45.342912 
L 102.759257 -45.390189 
L 102.285445 -45.412468 
L 101.811634 -45.399093 
L 101.337823 -45.341193 
L 100.864012 -45.231789 
L 100.3902 -45.065835 
L 99.916389 -44.840205 
L 99.442578 -44.55362 
L 98.968766 -44.206534 
L 98.494955 -43.80098 
L 98.021144 -43.34039 
L 97.547332 -42.8294 
L 97.073521 -42.27364 
L 96.59971 -41.679527 
L 96.125899 -41.054056 
L 95.652087 -40.404597 
L 95.178276 -39.738707 
L 94.704465 -39.063947 
L 94.230653 -38.38772 
L 93.756842 -37.717115 
L 93.283031 -37.058775 
L 92.809219 -36.418777 
L 92.335408 -35.802535 
L 91.861597 -35.214717 
L 91.387786 -34.659196 
L 90.913974 -34.139011 
L 90.440163 -33.656362 
L 89.966352 -33.212619 
L 89.49254 -32.808364 
L 89.018729 -32.443443 
L 88.544918 -32.117044 
L 88.071107 -31.82778 
L 87.597295 -31.573786 
L 87.123484 -31.352827 
L 86.649673 -31.162388 
L 86.175861 -30.999784 
L 85.70205 -30.862245 
L 85.228239 -30.746999 
L 84.754427 -30.65134 
L 84.280616 -30.57269 
L 83.806805 -30.508635 
L 83.332994 -30.456962 
L 82.859182 -30.415673 
L 82.385371 -30.382996 
L 81.91156 -30.357381 
L 81.437748 -30.337493 
L 80.963937 -30.322199 
z
" style="stroke: #cf695e"/>
    </defs>
    <g clip-path="url(#p06e5db1486)">
     <use xlink:href="#m653e13b993" x="0" y="145.494176" style="fill: #cf695e; fill-opacity: 0.25; stroke: #cf695e"/>
    </g>
   </g>
   <g id="PolyCollection_3">
    <defs>
     <path id="m688a8992df" d="M 44.325045 -30.306672 
L 44.325045 -30.278052 
L 44.994187 -30.278052 
L 45.663328 -30.278052 
L 46.332469 -30.278052 
L 47.00161 -30.278052 
L 47.670751 -30.278052 
L 48.339892 -30.278052 
L 49.009034 -30.278052 
L 49.678175 -30.278052 
L 50.347316 -30.278052 
L 51.016457 -30.278052 
L 51.685598 -30.278052 
L 52.354739 -30.278052 
L 53.023881 -30.278052 
L 53.693022 -30.278052 
L 54.362163 -30.278052 
L 55.031304 -30.278052 
L 55.700445 -30.278052 
L 56.369586 -30.278052 
L 57.038728 -30.278052 
L 57.707869 -30.278052 
L 58.37701 -30.278052 
L 59.046151 -30.278052 
L 59.715292 -30.278052 
L 60.384433 -30.278052 
L 61.053574 -30.278052 
L 61.722716 -30.278052 
L 62.391857 -30.278052 
L 63.060998 -30.278052 
L 63.730139 -30.278052 
L 64.39928 -30.278052 
L 65.068421 -30.278052 
L 65.737563 -30.278052 
L 66.406704 -30.278052 
L 67.075845 -30.278052 
L 67.744986 -30.278052 
L 68.414127 -30.278052 
L 69.083268 -30.278052 
L 69.75241 -30.278052 
L 70.421551 -30.278052 
L 71.090692 -30.278052 
L 71.759833 -30.278052 
L 72.428974 -30.278052 
L 73.098115 -30.278052 
L 73.767257 -30.278052 
L 74.436398 -30.278052 
L 75.105539 -30.278052 
L 75.77468 -30.278052 
L 76.443821 -30.278052 
L 77.112962 -30.278052 
L 77.782104 -30.278052 
L 78.451245 -30.278052 
L 79.120386 -30.278052 
L 79.789527 -30.278052 
L 80.458668 -30.278052 
L 81.127809 -30.278052 
L 81.79695 -30.278052 
L 82.466092 -30.278052 
L 83.135233 -30.278052 
L 83.804374 -30.278052 
L 84.473515 -30.278052 
L 85.142656 -30.278052 
L 85.811797 -30.278052 
L 86.480939 -30.278052 
L 87.15008 -30.278052 
L 87.819221 -30.278052 
L 88.488362 -30.278052 
L 89.157503 -30.278052 
L 89.826644 -30.278052 
L 90.495786 -30.278052 
L 91.164927 -30.278052 
L 91.834068 -30.278052 
L 92.503209 -30.278052 
L 93.17235 -30.278052 
L 93.841491 -30.278052 
L 94.510633 -30.278052 
L 95.179774 -30.278052 
L 95.848915 -30.278052 
L 96.518056 -30.278052 
L 97.187197 -30.278052 
L 97.856338 -30.278052 
L 98.525479 -30.278052 
L 99.194621 -30.278052 
L 99.863762 -30.278052 
L 100.532903 -30.278052 
L 101.202044 -30.278052 
L 101.871185 -30.278052 
L 102.540326 -30.278052 
L 103.209468 -30.278052 
L 103.878609 -30.278052 
L 104.54775 -30.278052 
L 105.216891 -30.278052 
L 105.886032 -30.278052 
L 106.555173 -30.278052 
L 107.224315 -30.278052 
L 107.893456 -30.278052 
L 108.562597 -30.278052 
L 109.231738 -30.278052 
L 109.900879 -30.278052 
L 110.57002 -30.278052 
L 111.239162 -30.278052 
L 111.908303 -30.278052 
L 112.577444 -30.278052 
L 113.246585 -30.278052 
L 113.915726 -30.278052 
L 114.584867 -30.278052 
L 115.254008 -30.278052 
L 115.92315 -30.278052 
L 116.592291 -30.278052 
L 117.261432 -30.278052 
L 117.930573 -30.278052 
L 118.599714 -30.278052 
L 119.268855 -30.278052 
L 119.937997 -30.278052 
L 120.607138 -30.278052 
L 121.276279 -30.278052 
L 121.94542 -30.278052 
L 122.614561 -30.278052 
L 123.283702 -30.278052 
L 123.952844 -30.278052 
L 124.621985 -30.278052 
L 125.291126 -30.278052 
L 125.960267 -30.278052 
L 126.629408 -30.278052 
L 127.298549 -30.278052 
L 127.967691 -30.278052 
L 128.636832 -30.278052 
L 129.305973 -30.278052 
L 129.975114 -30.278052 
L 130.644255 -30.278052 
L 131.313396 -30.278052 
L 131.982537 -30.278052 
L 132.651679 -30.278052 
L 133.32082 -30.278052 
L 133.989961 -30.278052 
L 134.659102 -30.278052 
L 135.328243 -30.278052 
L 135.997384 -30.278052 
L 136.666526 -30.278052 
L 137.335667 -30.278052 
L 138.004808 -30.278052 
L 138.673949 -30.278052 
L 139.34309 -30.278052 
L 140.012231 -30.278052 
L 140.681373 -30.278052 
L 141.350514 -30.278052 
L 142.019655 -30.278052 
L 142.688796 -30.278052 
L 143.357937 -30.278052 
L 144.027078 -30.278052 
L 144.69622 -30.278052 
L 145.365361 -30.278052 
L 146.034502 -30.278052 
L 146.703643 -30.278052 
L 147.372784 -30.278052 
L 148.041925 -30.278052 
L 148.711066 -30.278052 
L 149.380208 -30.278052 
L 150.049349 -30.278052 
L 150.71849 -30.278052 
L 151.387631 -30.278052 
L 152.056772 -30.278052 
L 152.725913 -30.278052 
L 153.395055 -30.278052 
L 154.064196 -30.278052 
L 154.733337 -30.278052 
L 155.402478 -30.278052 
L 156.071619 -30.278052 
L 156.74076 -30.278052 
L 157.409902 -30.278052 
L 158.079043 -30.278052 
L 158.748184 -30.278052 
L 159.417325 -30.278052 
L 160.086466 -30.278052 
L 160.755607 -30.278052 
L 161.424749 -30.278052 
L 162.09389 -30.278052 
L 162.763031 -30.278052 
L 163.432172 -30.278052 
L 164.101313 -30.278052 
L 164.770454 -30.278052 
L 165.439596 -30.278052 
L 166.108737 -30.278052 
L 166.777878 -30.278052 
L 167.447019 -30.278052 
L 168.11616 -30.278052 
L 168.785301 -30.278052 
L 169.454442 -30.278052 
L 170.123584 -30.278052 
L 170.792725 -30.278052 
L 171.461866 -30.278052 
L 172.131007 -30.278052 
L 172.800148 -30.278052 
L 173.469289 -30.278052 
L 174.138431 -30.278052 
L 174.807572 -30.278052 
L 175.476713 -30.278052 
L 176.145854 -30.278052 
L 176.814995 -30.278052 
L 177.484136 -30.278052 
L 177.484136 -30.308044 
L 177.484136 -30.308044 
L 176.814995 -30.31993 
L 176.145854 -30.335847 
L 175.476713 -30.356889 
L 174.807572 -30.384351 
L 174.138431 -30.419727 
L 173.469289 -30.46471 
L 172.800148 -30.521164 
L 172.131007 -30.591092 
L 171.461866 -30.676578 
L 170.792725 -30.779715 
L 170.123584 -30.902515 
L 169.454442 -31.046811 
L 168.785301 -31.214149 
L 168.11616 -31.405684 
L 167.447019 -31.622087 
L 166.777878 -31.863479 
L 166.108737 -32.129392 
L 165.439596 -32.418781 
L 164.770454 -32.730082 
L 164.101313 -33.061329 
L 163.432172 -33.410318 
L 162.763031 -33.77482 
L 162.09389 -34.152832 
L 161.424749 -34.542838 
L 160.755607 -34.944064 
L 160.086466 -35.356717 
L 159.417325 -35.782155 
L 158.748184 -36.223003 
L 158.079043 -36.683166 
L 157.409902 -37.167759 
L 156.74076 -37.682926 
L 156.071619 -38.235578 
L 155.402478 -38.83305 
L 154.733337 -39.482704 
L 154.064196 -40.191508 
L 153.395055 -40.965615 
L 152.725913 -41.809981 
L 152.056772 -42.728039 
L 151.387631 -43.721467 
L 150.71849 -44.790054 
L 150.049349 -45.931681 
L 149.380208 -47.142428 
L 148.711066 -48.41678 
L 148.041925 -49.747943 
L 147.372784 -51.128225 
L 146.703643 -52.549485 
L 146.034502 -54.003588 
L 145.365361 -55.482866 
L 144.69622 -56.980524 
L 144.027078 -58.490988 
L 143.357937 -60.01015 
L 142.688796 -61.535501 
L 142.019655 -63.066139 
L 141.350514 -64.602644 
L 140.681373 -66.146838 
L 140.012231 -67.701432 
L 139.34309 -69.269584 
L 138.673949 -70.854414 
L 138.004808 -72.458481 
L 137.335667 -74.083283 
L 136.666526 -75.728799 
L 135.997384 -77.393107 
L 135.328243 -79.072116 
L 134.659102 -80.759419 
L 133.989961 -82.446286 
L 133.32082 -84.121808 
L 132.651679 -85.773176 
L 131.982537 -87.386099 
L 131.313396 -88.945321 
L 130.644255 -90.435221 
L 129.975114 -91.840466 
L 129.305973 -93.146654 
L 128.636832 -94.340939 
L 127.967691 -95.412568 
L 127.298549 -96.353307 
L 126.629408 -97.157731 
L 125.960267 -97.823335 
L 125.291126 -98.350491 
L 124.621985 -98.742214 
L 123.952844 -99.003793 
L 123.283702 -99.142289 
L 122.614561 -99.165951 
L 121.94542 -99.083591 
L 121.276279 -98.903973 
L 120.607138 -98.635251 
L 119.937997 -98.284511 
L 119.268855 -97.857433 
L 118.599714 -97.3581 
L 117.930573 -96.788959 
L 117.261432 -96.150917 
L 116.592291 -95.44356 
L 115.92315 -94.665458 
L 115.254008 -93.814518 
L 114.584867 -92.888356 
L 113.915726 -91.88464 
L 113.246585 -90.801388 
L 112.577444 -89.63719 
L 111.908303 -88.391356 
L 111.239162 -87.063983 
L 110.57002 -85.655966 
L 109.900879 -84.168957 
L 109.231738 -82.60532 
L 108.562597 -80.968082 
L 107.893456 -79.260919 
L 107.224315 -77.488185 
L 106.555173 -75.654986 
L 105.886032 -73.767301 
L 105.216891 -71.832121 
L 104.54775 -69.857596 
L 103.878609 -67.853144 
L 103.209468 -65.829507 
L 102.540326 -63.798713 
L 101.871185 -61.773931 
L 101.202044 -59.76921 
L 100.532903 -57.799103 
L 99.863762 -55.878203 
L 99.194621 -54.02061 
L 98.525479 -52.239379 
L 97.856338 -50.545989 
L 97.187197 -48.949886 
L 96.518056 -47.458126 
L 95.848915 -46.075167 
L 95.179774 -44.802811 
L 94.510633 -43.640309 
L 93.841491 -42.58461 
L 93.17235 -41.630725 
L 92.503209 -40.772178 
L 91.834068 -40.001492 
L 91.164927 -39.310665 
L 90.495786 -38.691604 
L 89.826644 -38.136479 
L 89.157503 -37.637978 
L 88.488362 -37.189457 
L 87.819221 -36.784984 
L 87.15008 -36.419304 
L 86.480939 -36.087735 
L 85.811797 -35.786041 
L 85.142656 -35.510292 
L 84.473515 -35.256753 
L 83.804374 -35.021817 
L 83.135233 -34.801986 
L 82.466092 -34.593916 
L 81.79695 -34.394506 
L 81.127809 -34.201031 
L 80.458668 -34.011287 
L 79.789527 -33.823733 
L 79.120386 -33.637607 
L 78.451245 -33.453007 
L 77.782104 -33.270902 
L 77.112962 -33.093088 
L 76.443821 -32.92208 
L 75.77468 -32.760941 
L 75.105539 -32.613064 
L 74.436398 -32.481922 
L 73.767257 -32.370802 
L 73.098115 -32.282547 
L 72.428974 -32.21931 
L 71.759833 -32.182357 
L 71.090692 -32.171914 
L 70.421551 -32.187077 
L 69.75241 -32.225793 
L 69.083268 -32.284906 
L 68.414127 -32.360274 
L 67.744986 -32.446944 
L 67.075845 -32.539385 
L 66.406704 -32.631752 
L 65.737563 -32.718175 
L 65.068421 -32.793055 
L 64.39928 -32.851341 
L 63.730139 -32.88878 
L 63.060998 -32.90212 
L 62.391857 -32.889245 
L 61.722716 -32.849256 
L 61.053574 -32.782463 
L 60.384433 -32.690327 
L 59.715292 -32.575318 
L 59.046151 -32.44074 
L 58.37701 -32.290508 
L 57.707869 -32.128913 
L 57.038728 -31.960378 
L 56.369586 -31.789233 
L 55.700445 -31.619515 
L 55.031304 -31.454809 
L 54.362163 -31.29813 
L 53.693022 -31.151853 
L 53.023881 -31.017693 
L 52.354739 -30.896716 
L 51.685598 -30.789396 
L 51.016457 -30.695683 
L 50.347316 -30.615102 
L 49.678175 -30.546843 
L 49.009034 -30.489867 
L 48.339892 -30.442988 
L 47.670751 -30.404962 
L 47.00161 -30.374544 
L 46.332469 -30.350547 
L 45.663328 -30.331872 
L 44.994187 -30.317533 
L 44.325045 -30.306672 
z
" style="stroke: #eacda5"/>
    </defs>
    <g clip-path="url(#p06e5db1486)">
     <use xlink:href="#m688a8992df" x="0" y="145.494176" style="fill: #eacda5; fill-opacity: 0.25; stroke: #eacda5"/>
    </g>
   </g>
   <g id="patch_3">
    <path d="M 37.667091 115.216124 
L 37.667091 6.068624 
" style="fill: none; stroke: #000000; stroke-width: 0.5; stroke-linejoin: miter; stroke-linecap: square"/>
   </g>
   <g id="patch_4">
    <path d="M 184.142091 115.216124 
L 184.142091 6.068624 
" style="fill: none; stroke: #000000; stroke-width: 0.5; stroke-linejoin: miter; stroke-linecap: square"/>
   </g>
   <g id="patch_5">
    <path d="M 37.667091 115.216124 
L 184.142091 115.216124 
" style="fill: none; stroke: #000000; stroke-width: 0.5; stroke-linejoin: miter; stroke-linecap: square"/>
   </g>
   <g id="patch_6">
    <path d="M 37.667091 6.068624 
L 184.142091 6.068624 
" style="fill: none; stroke: #000000; stroke-width: 0.5; stroke-linejoin: miter; stroke-linecap: square"/>
   </g>
   <g id="legend_1">
    <g id="patch_7">
     <path d="M 43.498091 47.561632 
L 120.568689 47.561632 
Q 122.234689 47.561632 122.234689 45.895632 
L 122.234689 11.899624 
Q 122.234689 10.233624 120.568689 10.233624 
L 43.498091 10.233624 
Q 41.832091 10.233624 41.832091 11.899624 
L 41.832091 45.895632 
Q 41.832091 47.561632 43.498091 47.561632 
z
" style="fill: #ffffff; stroke: #cccccc; stroke-linejoin: miter"/>
    </g>
    <g id="patch_8">
     <path d="M 45.164091 19.396624 
L 61.824091 19.396624 
L 61.824091 13.565624 
L 45.164091 13.565624 
z
" style="fill: #0f3455; fill-opacity: 0.25; stroke: #0f3455; stroke-linejoin: miter"/>
    </g>
    <g id="text_10">
     <!-- $C_i = 0~\mathrm{aF}$ -->
     <g transform="translate(68.488091 19.396624) scale(0.0833 -0.0833)">
      <defs>
       <path id="CMMI12-43" d="M 4781 4423 
C 4781 4480 4736 4480 4723 4480 
C 4710 4480 4685 4480 4634 4416 
L 4192 3882 
C 3968 4264 3616 4480 3136 4480 
C 1754 4480 320 3088 320 1595 
C 320 533 1069 -128 2003 -128 
C 2515 -128 2963 88 3334 400 
C 3891 863 4058 1481 4058 1531 
C 4058 1588 4006 1588 3987 1588 
C 3930 1588 3923 1550 3910 1524 
C 3616 534 2752 57 2112 57 
C 1434 57 845 489 845 1391 
C 845 1595 909 2700 1632 3532 
C 1984 3939 2586 4295 3194 4295 
C 3898 4295 4211 3717 4211 3068 
C 4211 2903 4192 2764 4192 2738 
C 4192 2681 4256 2681 4275 2681 
C 4346 2681 4352 2687 4378 2801 
L 4781 4423 
z
" transform="scale(0.015625)"/>
       <path id="CMR17-3d" d="M 4115 2017 
C 4211 2017 4307 2017 4307 2125 
C 4307 2240 4198 2240 4090 2240 
L 512 2240 
C 403 2240 294 2240 294 2125 
C 294 2017 390 2017 486 2017 
L 4115 2017 
z
M 4090 896 
C 4198 896 4307 896 4307 1011 
C 4307 1119 4211 1119 4115 1119 
L 486 1119 
C 390 1119 294 1119 294 1011 
C 294 896 403 896 512 896 
L 4090 896 
z
" transform="scale(0.015625)"/>
       <path id="CMR17-61" d="M 2304 1653 
C 2304 2072 2304 2294 2035 2543 
C 1798 2752 1523 2816 1306 2816 
C 800 2816 435 2407 435 1971 
C 435 1728 627 1728 666 1728 
C 749 1728 896 1778 896 1954 
C 896 2112 774 2181 666 2181 
C 640 2181 608 2174 589 2168 
C 723 2592 1069 2714 1293 2714 
C 1613 2714 1965 2429 1965 1885 
L 1965 1600 
C 1587 1600 1133 1549 774 1357 
C 371 1133 256 813 256 570 
C 256 77 832 -64 1171 -64 
C 1523 -64 1850 139 1990 511 
C 2003 233 2182 -18 2464 -18 
C 2598 -18 2938 70 2938 567 
L 2938 920 
L 2822 920 
L 2822 562 
C 2822 178 2650 128 2566 128 
C 2304 128 2304 458 2304 738 
L 2304 1653 
z
M 1965 870 
C 1965 317 1568 38 1216 38 
C 896 38 646 275 646 570 
C 646 761 730 1100 1101 1305 
C 1408 1478 1760 1504 1965 1504 
L 1965 870 
z
" transform="scale(0.015625)"/>
       <path id="CMR17-46" d="M 3482 4325 
L 326 4325 
L 326 4160 
C 768 4160 838 4160 838 3874 
L 838 446 
C 838 160 768 160 326 160 
L 326 0 
C 512 0 870 0 1069 0 
C 1331 0 1638 0 1901 0 
L 1901 160 
L 1760 160 
C 1274 160 1261 223 1261 452 
L 1261 2075 
L 1837 2075 
C 2432 2075 2490 1865 2490 1332 
L 2605 1332 
L 2605 2987 
L 2490 2987 
C 2490 2450 2432 2240 1837 2240 
L 1261 2240 
L 1261 3911 
C 1261 4128 1274 4160 1530 4160 
L 2355 4160 
C 3322 4160 3430 3765 3520 2916 
L 3635 2916 
L 3482 4325 
z
" transform="scale(0.015625)"/>
      </defs>
      <use xlink:href="#CMMI12-43" transform="scale(0.996264)"/>
      <use xlink:href="#CMMI12-69" transform="translate(69.792037 -14.943915) scale(0.697382)"/>
      <use xlink:href="#CMR17-3d" transform="translate(121.259085 0) scale(0.996264)"/>
      <use xlink:href="#CMR17-30" transform="translate(220.647882 0) scale(0.996264)"/>
      <use xlink:href="#CMR17-61" transform="translate(296.414325 0) scale(0.996264)"/>
      <use xlink:href="#CMR17-46" transform="translate(342.104802 0) scale(0.996264)"/>
     </g>
    </g>
    <g id="patch_9">
     <path d="M 45.164091 31.006293 
L 61.824091 31.006293 
L 61.824091 25.175293 
L 45.164091 25.175293 
z
" style="fill: #cf695e; fill-opacity: 0.25; stroke: #cf695e; stroke-linejoin: miter"/>
    </g>
    <g id="text_11">
     <!-- $C_i = 0.07~\mathrm{aF}$ -->
     <g transform="translate(68.488091 31.006293) scale(0.0833 -0.0833)">
      <use xlink:href="#CMMI12-43" transform="scale(0.996264)"/>
      <use xlink:href="#CMMI12-69" transform="translate(69.792037 -14.943915) scale(0.697382)"/>
      <use xlink:href="#CMR17-3d" transform="translate(121.259085 0) scale(0.996264)"/>
      <use xlink:href="#CMR17-30" transform="translate(220.647882 0) scale(0.996264)"/>
      <use xlink:href="#CMMI12-3a" transform="translate(266.338359 0) scale(0.996264)"/>
      <use xlink:href="#CMR17-30" transform="translate(293.435536 0) scale(0.996264)"/>
      <use xlink:href="#CMR17-37" transform="translate(339.126013 0) scale(0.996264)"/>
      <use xlink:href="#CMR17-61" transform="translate(414.892457 0) scale(0.996264)"/>
      <use xlink:href="#CMR17-46" transform="translate(460.582934 0) scale(0.996264)"/>
     </g>
    </g>
    <g id="patch_10">
     <path d="M 45.164091 42.615962 
L 61.824091 42.615962 
L 61.824091 36.784962 
L 45.164091 36.784962 
z
" style="fill: #eacda5; fill-opacity: 0.25; stroke: #eacda5; stroke-linejoin: miter"/>
    </g>
    <g id="text_12">
     <!-- $C_i = 0.28~\mathrm{aF}$ -->
     <g transform="translate(68.488091 42.615962) scale(0.0833 -0.0833)">
      <defs>
       <path id="CMR17-38" d="M 1741 2264 
C 2144 2467 2554 2773 2554 3263 
C 2554 3841 1990 4179 1472 4179 
C 890 4179 378 3759 378 3180 
C 378 3021 416 2747 666 2505 
C 730 2442 998 2251 1171 2130 
C 883 1983 211 1634 211 934 
C 211 279 838 -128 1459 -128 
C 2144 -128 2720 362 2720 1010 
C 2720 1590 2330 1857 2074 2029 
L 1741 2264 
z
M 902 2822 
C 851 2854 595 3051 595 3351 
C 595 3739 998 4032 1459 4032 
C 1965 4032 2336 3676 2336 3262 
C 2336 2669 1670 2331 1638 2331 
C 1632 2331 1626 2331 1574 2370 
L 902 2822 
z
M 2080 1519 
C 2176 1449 2483 1240 2483 851 
C 2483 381 2010 25 1472 25 
C 890 25 448 438 448 940 
C 448 1443 838 1862 1280 2060 
L 2080 1519 
z
" transform="scale(0.015625)"/>
      </defs>
      <use xlink:href="#CMMI12-43" transform="scale(0.996264)"/>
      <use xlink:href="#CMMI12-69" transform="translate(69.792037 -14.943915) scale(0.697382)"/>
      <use xlink:href="#CMR17-3d" transform="translate(121.259085 0) scale(0.996264)"/>
      <use xlink:href="#CMR17-30" transform="translate(220.647882 0) scale(0.996264)"/>
      <use xlink:href="#CMMI12-3a" transform="translate(266.338359 0) scale(0.996264)"/>
      <use xlink:href="#CMR17-32" transform="translate(293.435536 0) scale(0.996264)"/>
      <use xlink:href="#CMR17-38" transform="translate(339.126013 0) scale(0.996264)"/>
      <use xlink:href="#CMR17-61" transform="translate(414.892457 0) scale(0.996264)"/>
      <use xlink:href="#CMR17-46" transform="translate(460.582934 0) scale(0.996264)"/>
     </g>
    </g>
   </g>
  </g>
 </g>
 <defs>
  <clipPath id="p06e5db1486">
   <rect x="37.667091" y="6.068624" width="146.475" height="109.1475"/>
  </clipPath>
 </defs>
</svg>
