<?xml version="1.0" encoding="utf-8" standalone="no"?>
<!DOCTYPE svg PUBLIC "-//W3C//DTD SVG 1.1//EN"
  "http://www.w3.org/Graphics/SVG/1.1/DTD/svg11.dtd">
<svg xmlns:xlink="http://www.w3.org/1999/xlink" width="237.674054pt" height="181.400603pt" viewBox="0 0 237.674054 181.400603" xmlns="http://www.w3.org/2000/svg" version="1.1">
 <metadata>
  <rdf:RDF xmlns:dc="http://purl.org/dc/elements/1.1/" xmlns:cc="http://creativecommons.org/ns#" xmlns:rdf="http://www.w3.org/1999/02/22-rdf-syntax-ns#">
   <cc:Work>
    <dc:type rdf:resource="http://purl.org/dc/dcmitype/StillImage"/>
    <dc:date>2025-11-14T15:44:56.438570</dc:date>
    <dc:format>image/svg+xml</dc:format>
    <dc:creator>
     <cc:Agent>
      <dc:title>Matplotlib v3.9.2, https://matplotlib.org/</dc:title>
     </cc:Agent>
    </dc:creator>
   </cc:Work>
  </rdf:RDF>
 </metadata>
 <defs>
  <style type="text/css">*{stroke-linejoin: round; stroke-linecap: butt}</style>
 </defs>
 <g id="figure_1">
  <g id="patch_1">
   <path d="M -0 181.400603 
L 237.674054 181.400603 
L 237.674054 0 
L -0 0 
L -0 181.400603 
z
" style="fill: none"/>
  </g>
  <g id="axes_1">
   <g id="patch_2">
    <path d="M 38.774054 152.589249 
L 234.074054 152.589249 
L 234.074054 7.059249 
L 38.774054 7.059249 
L 38.774054 152.589249 
z
" style="fill: none"/>
   </g>
   <g id="matplotlib.axis_1">
    <g id="xtick_1">
     <g id="line2d_1">
      <path d="M 47.651327 152.589249 
L 47.651327 7.059249 
" clip-path="url(#pf7b3a44354)" style="fill: none; stroke-dasharray: 1.85,0.8; stroke-dashoffset: 0; stroke: #000000; stroke-opacity: 0.5; stroke-width: 0.5"/>
     </g>
     <g id="line2d_2">
      <defs>
       <path id="m196bd358d1" d="M 0 0 
L 0 -3 
" style="stroke: #000000; stroke-width: 0.5"/>
      </defs>
      <g>
       <use xlink:href="#m196bd358d1" x="47.651327" y="152.589249" style="stroke: #000000; stroke-width: 0.5"/>
      </g>
     </g>
     <g id="line2d_3">
      <defs>
       <path id="mfe356826ea" d="M 0 0 
L 0 3 
" style="stroke: #000000; stroke-width: 0.5"/>
      </defs>
      <g>
       <use xlink:href="#mfe356826ea" x="47.651327" y="7.059249" style="stroke: #000000; stroke-width: 0.5"/>
      </g>
     </g>
     <g id="text_1">
      <!-- $\mathdefault{0.5}$ -->
      <g transform="translate(41.286288 163.007748) scale(0.1 -0.1)">
       <defs>
        <path id="CMR17-30" d="M 2688 2025 
C 2688 2416 2682 3080 2413 3591 
C 2176 4039 1798 4198 1466 4198 
C 1158 4198 768 4058 525 3597 
C 269 3118 243 2524 243 2025 
C 243 1661 250 1106 448 619 
C 723 -39 1216 -128 1466 -128 
C 1760 -128 2208 -7 2470 600 
C 2662 1042 2688 1559 2688 2025 
z
M 1466 -26 
C 1056 -26 813 325 723 812 
C 653 1188 653 1738 653 2096 
C 653 2588 653 2997 736 3387 
C 858 3929 1216 4096 1466 4096 
C 1728 4096 2067 3923 2189 3400 
C 2272 3036 2278 2607 2278 2096 
C 2278 1680 2278 1169 2202 792 
C 2067 95 1690 -26 1466 -26 
z
" transform="scale(0.015625)"/>
        <path id="CMMI12-3a" d="M 1178 307 
C 1178 492 1024 619 870 619 
C 685 619 557 466 557 313 
C 557 128 710 0 864 0 
C 1050 0 1178 153 1178 307 
z
" transform="scale(0.015625)"/>
        <path id="CMR17-35" d="M 730 3692 
C 794 3666 1056 3584 1325 3584 
C 1920 3584 2246 3911 2432 4100 
C 2432 4157 2432 4192 2394 4192 
C 2387 4192 2374 4192 2323 4163 
C 2099 4058 1837 3973 1517 3973 
C 1325 3973 1037 3999 723 4139 
C 653 4171 640 4171 634 4171 
C 602 4171 595 4164 595 4037 
L 595 2203 
C 595 2089 595 2057 659 2057 
C 691 2057 704 2070 736 2114 
C 941 2401 1222 2522 1542 2522 
C 1766 2522 2246 2382 2246 1289 
C 2246 1085 2246 715 2054 421 
C 1894 159 1645 25 1370 25 
C 947 25 518 320 403 814 
C 429 807 480 795 506 795 
C 589 795 749 840 749 1038 
C 749 1210 627 1280 506 1280 
C 358 1280 262 1190 262 1011 
C 262 454 704 -128 1382 -128 
C 2042 -128 2669 440 2669 1264 
C 2669 2030 2170 2624 1549 2624 
C 1222 2624 947 2503 730 2274 
L 730 3692 
z
" transform="scale(0.015625)"/>
       </defs>
       <use xlink:href="#CMR17-30" transform="scale(0.996264)"/>
       <use xlink:href="#CMMI12-3a" transform="translate(45.690477 0) scale(0.996264)"/>
       <use xlink:href="#CMR17-35" transform="translate(72.787654 0) scale(0.996264)"/>
      </g>
     </g>
    </g>
    <g id="xtick_2">
     <g id="line2d_4">
      <path d="M 83.160418 152.589249 
L 83.160418 7.059249 
" clip-path="url(#pf7b3a44354)" style="fill: none; stroke-dasharray: 1.85,0.8; stroke-dashoffset: 0; stroke: #000000; stroke-opacity: 0.5; stroke-width: 0.5"/>
     </g>
     <g id="line2d_5">
      <g>
       <use xlink:href="#m196bd358d1" x="83.160418" y="152.589249" style="stroke: #000000; stroke-width: 0.5"/>
      </g>
     </g>
     <g id="line2d_6">
      <g>
       <use xlink:href="#mfe356826ea" x="83.160418" y="7.059249" style="stroke: #000000; stroke-width: 0.5"/>
      </g>
     </g>
     <g id="text_2">
      <!-- $\mathdefault{0.6}$ -->
      <g transform="translate(76.795378 163.007748) scale(0.1 -0.1)">
       <defs>
        <path id="CMR17-36" d="M 678 2176 
C 678 3690 1395 4032 1811 4032 
C 1946 4032 2272 4009 2400 3776 
C 2298 3776 2106 3776 2106 3553 
C 2106 3381 2246 3323 2336 3323 
C 2394 3323 2566 3348 2566 3560 
C 2566 3954 2246 4179 1805 4179 
C 1043 4179 243 3390 243 1984 
C 243 253 966 -128 1478 -128 
C 2099 -128 2688 427 2688 1283 
C 2688 2081 2170 2662 1517 2662 
C 1126 2662 838 2407 678 1960 
L 678 2176 
z
M 1478 25 
C 691 25 691 1200 691 1436 
C 691 1896 909 2560 1504 2560 
C 1613 2560 1926 2560 2138 2120 
C 2253 1870 2253 1609 2253 1289 
C 2253 944 2253 690 2118 434 
C 1978 171 1773 25 1478 25 
z
" transform="scale(0.015625)"/>
       </defs>
       <use xlink:href="#CMR17-30" transform="scale(0.996264)"/>
       <use xlink:href="#CMMI12-3a" transform="translate(45.690477 0) scale(0.996264)"/>
       <use xlink:href="#CMR17-36" transform="translate(72.787654 0) scale(0.996264)"/>
      </g>
     </g>
    </g>
    <g id="xtick_3">
     <g id="line2d_7">
      <path d="M 118.669509 152.589249 
L 118.669509 7.059249 
" clip-path="url(#pf7b3a44354)" style="fill: none; stroke-dasharray: 1.85,0.8; stroke-dashoffset: 0; stroke: #000000; stroke-opacity: 0.5; stroke-width: 0.5"/>
     </g>
     <g id="line2d_8">
      <g>
       <use xlink:href="#m196bd358d1" x="118.669509" y="152.589249" style="stroke: #000000; stroke-width: 0.5"/>
      </g>
     </g>
     <g id="line2d_9">
      <g>
       <use xlink:href="#mfe356826ea" x="118.669509" y="7.059249" style="stroke: #000000; stroke-width: 0.5"/>
      </g>
     </g>
     <g id="text_3">
      <!-- $\mathdefault{0.7}$ -->
      <g transform="translate(112.304469 163.007748) scale(0.1 -0.1)">
       <defs>
        <path id="CMR17-37" d="M 2886 3941 
L 2886 4081 
L 1382 4081 
C 634 4081 621 4165 595 4288 
L 480 4288 
L 294 3094 
L 410 3094 
C 429 3215 474 3540 550 3661 
C 589 3712 1062 3712 1171 3712 
L 2579 3712 
L 1869 2661 
C 1395 1954 1069 999 1069 165 
C 1069 89 1069 -128 1299 -128 
C 1530 -128 1530 89 1530 171 
L 1530 465 
C 1530 1508 1709 2196 2003 2636 
L 2886 3941 
z
" transform="scale(0.015625)"/>
       </defs>
       <use xlink:href="#CMR17-30" transform="scale(0.996264)"/>
       <use xlink:href="#CMMI12-3a" transform="translate(45.690477 0) scale(0.996264)"/>
       <use xlink:href="#CMR17-37" transform="translate(72.787654 0) scale(0.996264)"/>
      </g>
     </g>
    </g>
    <g id="xtick_4">
     <g id="line2d_10">
      <path d="M 154.1786 152.589249 
L 154.1786 7.059249 
" clip-path="url(#pf7b3a44354)" style="fill: none; stroke-dasharray: 1.85,0.8; stroke-dashoffset: 0; stroke: #000000; stroke-opacity: 0.5; stroke-width: 0.5"/>
     </g>
     <g id="line2d_11">
      <g>
       <use xlink:href="#m196bd358d1" x="154.1786" y="152.589249" style="stroke: #000000; stroke-width: 0.5"/>
      </g>
     </g>
     <g id="line2d_12">
      <g>
       <use xlink:href="#mfe356826ea" x="154.1786" y="7.059249" style="stroke: #000000; stroke-width: 0.5"/>
      </g>
     </g>
     <g id="text_4">
      <!-- $\mathdefault{0.8}$ -->
      <g transform="translate(147.81356 163.007748) scale(0.1 -0.1)">
       <defs>
        <path id="CMR17-38" d="M 1741 2264 
C 2144 2467 2554 2773 2554 3263 
C 2554 3841 1990 4179 1472 4179 
C 890 4179 378 3759 378 3180 
C 378 3021 416 2747 666 2505 
C 730 2442 998 2251 1171 2130 
C 883 1983 211 1634 211 934 
C 211 279 838 -128 1459 -128 
C 2144 -128 2720 362 2720 1010 
C 2720 1590 2330 1857 2074 2029 
L 1741 2264 
z
M 902 2822 
C 851 2854 595 3051 595 3351 
C 595 3739 998 4032 1459 4032 
C 1965 4032 2336 3676 2336 3262 
C 2336 2669 1670 2331 1638 2331 
C 1632 2331 1626 2331 1574 2370 
L 902 2822 
z
M 2080 1519 
C 2176 1449 2483 1240 2483 851 
C 2483 381 2010 25 1472 25 
C 890 25 448 438 448 940 
C 448 1443 838 1862 1280 2060 
L 2080 1519 
z
" transform="scale(0.015625)"/>
       </defs>
       <use xlink:href="#CMR17-30" transform="scale(0.996264)"/>
       <use xlink:href="#CMMI12-3a" transform="translate(45.690477 0) scale(0.996264)"/>
       <use xlink:href="#CMR17-38" transform="translate(72.787654 0) scale(0.996264)"/>
      </g>
     </g>
    </g>
    <g id="xtick_5">
     <g id="line2d_13">
      <path d="M 189.687691 152.589249 
L 189.687691 7.059249 
" clip-path="url(#pf7b3a44354)" style="fill: none; stroke-dasharray: 1.85,0.8; stroke-dashoffset: 0; stroke: #000000; stroke-opacity: 0.5; stroke-width: 0.5"/>
     </g>
     <g id="line2d_14">
      <g>
       <use xlink:href="#m196bd358d1" x="189.687691" y="152.589249" style="stroke: #000000; stroke-width: 0.5"/>
      </g>
     </g>
     <g id="line2d_15">
      <g>
       <use xlink:href="#mfe356826ea" x="189.687691" y="7.059249" style="stroke: #000000; stroke-width: 0.5"/>
      </g>
     </g>
     <g id="text_5">
      <!-- $\mathdefault{0.9}$ -->
      <g transform="translate(183.322651 163.007748) scale(0.1 -0.1)">
       <defs>
        <path id="CMR17-39" d="M 2253 1864 
C 2253 464 1670 31 1190 31 
C 1043 31 685 31 538 294 
C 704 268 826 357 826 518 
C 826 692 685 749 595 749 
C 538 749 365 723 365 506 
C 365 71 742 -128 1203 -128 
C 1939 -128 2688 674 2688 2073 
C 2688 3817 1971 4179 1485 4179 
C 851 4179 243 3628 243 2778 
C 243 1991 762 1408 1414 1408 
C 1952 1408 2189 1903 2253 2112 
L 2253 1864 
z
M 1427 1510 
C 1254 1510 1011 1542 813 1922 
C 678 2169 678 2461 678 2771 
C 678 3146 678 3405 858 3684 
C 947 3817 1114 4032 1485 4032 
C 2240 4032 2240 2885 2240 2632 
C 2240 2182 2035 1510 1427 1510 
z
" transform="scale(0.015625)"/>
       </defs>
       <use xlink:href="#CMR17-30" transform="scale(0.996264)"/>
       <use xlink:href="#CMMI12-3a" transform="translate(45.690477 0) scale(0.996264)"/>
       <use xlink:href="#CMR17-39" transform="translate(72.787654 0) scale(0.996264)"/>
      </g>
     </g>
    </g>
    <g id="xtick_6">
     <g id="line2d_16">
      <path d="M 225.196782 152.589249 
L 225.196782 7.059249 
" clip-path="url(#pf7b3a44354)" style="fill: none; stroke-dasharray: 1.85,0.8; stroke-dashoffset: 0; stroke: #000000; stroke-opacity: 0.5; stroke-width: 0.5"/>
     </g>
     <g id="line2d_17">
      <g>
       <use xlink:href="#m196bd358d1" x="225.196782" y="152.589249" style="stroke: #000000; stroke-width: 0.5"/>
      </g>
     </g>
     <g id="line2d_18">
      <g>
       <use xlink:href="#mfe356826ea" x="225.196782" y="7.059249" style="stroke: #000000; stroke-width: 0.5"/>
      </g>
     </g>
     <g id="text_6">
      <!-- $\mathdefault{1.0}$ -->
      <g transform="translate(218.831742 163.007748) scale(0.1 -0.1)">
       <defs>
        <path id="CMR17-31" d="M 1702 4058 
C 1702 4192 1696 4192 1606 4192 
C 1357 3916 979 3827 621 3827 
C 602 3827 570 3827 563 3808 
C 557 3795 557 3782 557 3648 
C 755 3648 1088 3686 1344 3839 
L 1344 461 
C 1344 236 1331 160 781 160 
L 589 160 
L 589 0 
C 896 0 1216 0 1523 0 
C 1830 0 2150 0 2458 0 
L 2458 160 
L 2266 160 
C 1715 160 1702 230 1702 458 
L 1702 4058 
z
" transform="scale(0.015625)"/>
       </defs>
       <use xlink:href="#CMR17-31" transform="scale(0.996264)"/>
       <use xlink:href="#CMMI12-3a" transform="translate(45.690477 0) scale(0.996264)"/>
       <use xlink:href="#CMR17-30" transform="translate(72.787654 0) scale(0.996264)"/>
      </g>
     </g>
    </g>
    <g id="xtick_7">
     <g id="line2d_19">
      <defs>
       <path id="m921417e187" d="M 0 0 
L 0 -1.5 
" style="stroke: #000000; stroke-width: 0.5"/>
      </defs>
      <g>
       <use xlink:href="#m921417e187" x="40.549509" y="152.589249" style="stroke: #000000; stroke-width: 0.5"/>
      </g>
     </g>
     <g id="line2d_20">
      <defs>
       <path id="m1bc0bacbbd" d="M 0 0 
L 0 1.5 
" style="stroke: #000000; stroke-width: 0.5"/>
      </defs>
      <g>
       <use xlink:href="#m1bc0bacbbd" x="40.549509" y="7.059249" style="stroke: #000000; stroke-width: 0.5"/>
      </g>
     </g>
    </g>
    <g id="xtick_8">
     <g id="line2d_21">
      <g>
       <use xlink:href="#m921417e187" x="54.753145" y="152.589249" style="stroke: #000000; stroke-width: 0.5"/>
      </g>
     </g>
     <g id="line2d_22">
      <g>
       <use xlink:href="#m1bc0bacbbd" x="54.753145" y="7.059249" style="stroke: #000000; stroke-width: 0.5"/>
      </g>
     </g>
    </g>
    <g id="xtick_9">
     <g id="line2d_23">
      <g>
       <use xlink:href="#m921417e187" x="61.854963" y="152.589249" style="stroke: #000000; stroke-width: 0.5"/>
      </g>
     </g>
     <g id="line2d_24">
      <g>
       <use xlink:href="#m1bc0bacbbd" x="61.854963" y="7.059249" style="stroke: #000000; stroke-width: 0.5"/>
      </g>
     </g>
    </g>
    <g id="xtick_10">
     <g id="line2d_25">
      <g>
       <use xlink:href="#m921417e187" x="68.956782" y="152.589249" style="stroke: #000000; stroke-width: 0.5"/>
      </g>
     </g>
     <g id="line2d_26">
      <g>
       <use xlink:href="#m1bc0bacbbd" x="68.956782" y="7.059249" style="stroke: #000000; stroke-width: 0.5"/>
      </g>
     </g>
    </g>
    <g id="xtick_11">
     <g id="line2d_27">
      <g>
       <use xlink:href="#m921417e187" x="76.0586" y="152.589249" style="stroke: #000000; stroke-width: 0.5"/>
      </g>
     </g>
     <g id="line2d_28">
      <g>
       <use xlink:href="#m1bc0bacbbd" x="76.0586" y="7.059249" style="stroke: #000000; stroke-width: 0.5"/>
      </g>
     </g>
    </g>
    <g id="xtick_12">
     <g id="line2d_29">
      <g>
       <use xlink:href="#m921417e187" x="90.262236" y="152.589249" style="stroke: #000000; stroke-width: 0.5"/>
      </g>
     </g>
     <g id="line2d_30">
      <g>
       <use xlink:href="#m1bc0bacbbd" x="90.262236" y="7.059249" style="stroke: #000000; stroke-width: 0.5"/>
      </g>
     </g>
    </g>
    <g id="xtick_13">
     <g id="line2d_31">
      <g>
       <use xlink:href="#m921417e187" x="97.364054" y="152.589249" style="stroke: #000000; stroke-width: 0.5"/>
      </g>
     </g>
     <g id="line2d_32">
      <g>
       <use xlink:href="#m1bc0bacbbd" x="97.364054" y="7.059249" style="stroke: #000000; stroke-width: 0.5"/>
      </g>
     </g>
    </g>
    <g id="xtick_14">
     <g id="line2d_33">
      <g>
       <use xlink:href="#m921417e187" x="104.465873" y="152.589249" style="stroke: #000000; stroke-width: 0.5"/>
      </g>
     </g>
     <g id="line2d_34">
      <g>
       <use xlink:href="#m1bc0bacbbd" x="104.465873" y="7.059249" style="stroke: #000000; stroke-width: 0.5"/>
      </g>
     </g>
    </g>
    <g id="xtick_15">
     <g id="line2d_35">
      <g>
       <use xlink:href="#m921417e187" x="111.567691" y="152.589249" style="stroke: #000000; stroke-width: 0.5"/>
      </g>
     </g>
     <g id="line2d_36">
      <g>
       <use xlink:href="#m1bc0bacbbd" x="111.567691" y="7.059249" style="stroke: #000000; stroke-width: 0.5"/>
      </g>
     </g>
    </g>
    <g id="xtick_16">
     <g id="line2d_37">
      <g>
       <use xlink:href="#m921417e187" x="125.771327" y="152.589249" style="stroke: #000000; stroke-width: 0.5"/>
      </g>
     </g>
     <g id="line2d_38">
      <g>
       <use xlink:href="#m1bc0bacbbd" x="125.771327" y="7.059249" style="stroke: #000000; stroke-width: 0.5"/>
      </g>
     </g>
    </g>
    <g id="xtick_17">
     <g id="line2d_39">
      <g>
       <use xlink:href="#m921417e187" x="132.873145" y="152.589249" style="stroke: #000000; stroke-width: 0.5"/>
      </g>
     </g>
     <g id="line2d_40">
      <g>
       <use xlink:href="#m1bc0bacbbd" x="132.873145" y="7.059249" style="stroke: #000000; stroke-width: 0.5"/>
      </g>
     </g>
    </g>
    <g id="xtick_18">
     <g id="line2d_41">
      <g>
       <use xlink:href="#m921417e187" x="139.974963" y="152.589249" style="stroke: #000000; stroke-width: 0.5"/>
      </g>
     </g>
     <g id="line2d_42">
      <g>
       <use xlink:href="#m1bc0bacbbd" x="139.974963" y="7.059249" style="stroke: #000000; stroke-width: 0.5"/>
      </g>
     </g>
    </g>
    <g id="xtick_19">
     <g id="line2d_43">
      <g>
       <use xlink:href="#m921417e187" x="147.076782" y="152.589249" style="stroke: #000000; stroke-width: 0.5"/>
      </g>
     </g>
     <g id="line2d_44">
      <g>
       <use xlink:href="#m1bc0bacbbd" x="147.076782" y="7.059249" style="stroke: #000000; stroke-width: 0.5"/>
      </g>
     </g>
    </g>
    <g id="xtick_20">
     <g id="line2d_45">
      <g>
       <use xlink:href="#m921417e187" x="161.280418" y="152.589249" style="stroke: #000000; stroke-width: 0.5"/>
      </g>
     </g>
     <g id="line2d_46">
      <g>
       <use xlink:href="#m1bc0bacbbd" x="161.280418" y="7.059249" style="stroke: #000000; stroke-width: 0.5"/>
      </g>
     </g>
    </g>
    <g id="xtick_21">
     <g id="line2d_47">
      <g>
       <use xlink:href="#m921417e187" x="168.382236" y="152.589249" style="stroke: #000000; stroke-width: 0.5"/>
      </g>
     </g>
     <g id="line2d_48">
      <g>
       <use xlink:href="#m1bc0bacbbd" x="168.382236" y="7.059249" style="stroke: #000000; stroke-width: 0.5"/>
      </g>
     </g>
    </g>
    <g id="xtick_22">
     <g id="line2d_49">
      <g>
       <use xlink:href="#m921417e187" x="175.484054" y="152.589249" style="stroke: #000000; stroke-width: 0.5"/>
      </g>
     </g>
     <g id="line2d_50">
      <g>
       <use xlink:href="#m1bc0bacbbd" x="175.484054" y="7.059249" style="stroke: #000000; stroke-width: 0.5"/>
      </g>
     </g>
    </g>
    <g id="xtick_23">
     <g id="line2d_51">
      <g>
       <use xlink:href="#m921417e187" x="182.585873" y="152.589249" style="stroke: #000000; stroke-width: 0.5"/>
      </g>
     </g>
     <g id="line2d_52">
      <g>
       <use xlink:href="#m1bc0bacbbd" x="182.585873" y="7.059249" style="stroke: #000000; stroke-width: 0.5"/>
      </g>
     </g>
    </g>
    <g id="xtick_24">
     <g id="line2d_53">
      <g>
       <use xlink:href="#m921417e187" x="196.789509" y="152.589249" style="stroke: #000000; stroke-width: 0.5"/>
      </g>
     </g>
     <g id="line2d_54">
      <g>
       <use xlink:href="#m1bc0bacbbd" x="196.789509" y="7.059249" style="stroke: #000000; stroke-width: 0.5"/>
      </g>
     </g>
    </g>
    <g id="xtick_25">
     <g id="line2d_55">
      <g>
       <use xlink:href="#m921417e187" x="203.891327" y="152.589249" style="stroke: #000000; stroke-width: 0.5"/>
      </g>
     </g>
     <g id="line2d_56">
      <g>
       <use xlink:href="#m1bc0bacbbd" x="203.891327" y="7.059249" style="stroke: #000000; stroke-width: 0.5"/>
      </g>
     </g>
    </g>
    <g id="xtick_26">
     <g id="line2d_57">
      <g>
       <use xlink:href="#m921417e187" x="210.993145" y="152.589249" style="stroke: #000000; stroke-width: 0.5"/>
      </g>
     </g>
     <g id="line2d_58">
      <g>
       <use xlink:href="#m1bc0bacbbd" x="210.993145" y="7.059249" style="stroke: #000000; stroke-width: 0.5"/>
      </g>
     </g>
    </g>
    <g id="xtick_27">
     <g id="line2d_59">
      <g>
       <use xlink:href="#m921417e187" x="218.094963" y="152.589249" style="stroke: #000000; stroke-width: 0.5"/>
      </g>
     </g>
     <g id="line2d_60">
      <g>
       <use xlink:href="#m1bc0bacbbd" x="218.094963" y="7.059249" style="stroke: #000000; stroke-width: 0.5"/>
      </g>
     </g>
    </g>
    <g id="xtick_28">
     <g id="line2d_61">
      <g>
       <use xlink:href="#m921417e187" x="232.2986" y="152.589249" style="stroke: #000000; stroke-width: 0.5"/>
      </g>
     </g>
     <g id="line2d_62">
      <g>
       <use xlink:href="#m1bc0bacbbd" x="232.2986" y="7.059249" style="stroke: #000000; stroke-width: 0.5"/>
      </g>
     </g>
    </g>
    <g id="text_7">
     <!-- $p_{Peak}$ -->
     <g transform="translate(124.677151 175.863424) scale(0.1 -0.1)">
      <defs>
       <path id="CMMI12-70" d="M 275 -789 
C 230 -980 205 -1031 -58 -1031 
C -134 -1031 -198 -1031 -198 -1152 
C -198 -1165 -192 -1216 -122 -1216 
C -38 -1216 51 -1216 134 -1216 
L 410 -1216 
C 544 -1216 870 -1216 1005 -1216 
C 1043 -1216 1120 -1216 1120 -1101 
C 1120 -1031 1075 -1031 966 -1031 
C 672 -1031 653 -987 653 -937 
C 653 -861 941 219 979 364 
C 1050 185 1222 -64 1555 -64 
C 2278 -64 3059 875 3059 1814 
C 3059 2401 2726 2816 2246 2816 
C 1837 2816 1491 2420 1421 2331 
C 1370 2650 1120 2816 864 2816 
C 678 2816 531 2727 410 2484 
C 294 2254 205 1865 205 1839 
C 205 1814 230 1782 275 1782 
C 326 1782 333 1788 371 1935 
C 467 2312 589 2689 845 2689 
C 992 2689 1043 2587 1043 2397 
C 1043 2245 1024 2181 998 2067 
L 275 -789 
z
M 1382 1993 
C 1427 2171 1606 2357 1709 2446 
C 1779 2510 1990 2689 2234 2689 
C 2515 2689 2643 2408 2643 2076 
C 2643 1769 2464 1047 2304 715 
C 2144 370 1850 64 1555 64 
C 1120 64 1050 613 1050 639 
C 1050 658 1062 709 1069 741 
L 1382 1993 
z
" transform="scale(0.015625)"/>
       <path id="CMMI12-50" d="M 1894 2023 
L 2970 2023 
C 3853 2023 4736 2673 4736 3401 
C 4736 3898 4314 4352 3507 4352 
L 1530 4352 
C 1408 4352 1350 4352 1350 4231 
C 1350 4167 1408 4167 1504 4167 
C 1894 4167 1894 4116 1894 4046 
C 1894 4034 1894 3995 1869 3899 
L 1005 472 
C 947 249 934 185 486 185 
C 365 185 301 185 301 70 
C 301 0 358 0 397 0 
C 518 0 646 0 768 0 
L 1517 0 
C 1638 0 1773 0 1894 0 
C 1946 0 2016 0 2016 121 
C 2016 185 1958 185 1862 185 
C 1478 185 1472 230 1472 293 
C 1472 325 1478 369 1485 401 
L 1894 2023 
z
M 2355 3930 
C 2413 4167 2438 4167 2688 4167 
L 3322 4167 
C 3802 4167 4198 4013 4198 3535 
C 4198 3369 4115 2827 3821 2534 
C 3712 2419 3405 2176 2822 2176 
L 1920 2176 
L 2355 3930 
z
" transform="scale(0.015625)"/>
       <path id="CMMI12-65" d="M 1146 1479 
C 1318 1479 1754 1479 2061 1595 
C 2547 1783 2592 2158 2592 2274 
C 2592 2558 2349 2816 1926 2816 
C 1254 2816 288 2210 288 1073 
C 288 402 672 -64 1254 -64 
C 2125 -64 2675 609 2675 692 
C 2675 730 2637 762 2611 762 
C 2592 762 2586 756 2528 699 
C 2118 159 1510 64 1267 64 
C 902 64 710 350 710 822 
C 710 911 710 1071 806 1479 
L 1146 1479 
z
M 838 1600 
C 1114 2592 1722 2689 1926 2689 
C 2208 2689 2400 2522 2400 2277 
C 2400 1600 1376 1600 1107 1600 
L 838 1600 
z
" transform="scale(0.015625)"/>
       <path id="CMMI12-61" d="M 1926 760 
C 1894 651 1894 639 1805 517 
C 1664 338 1382 64 1082 64 
C 819 64 672 300 672 677 
C 672 1028 870 1743 992 2012 
C 1210 2459 1510 2689 1760 2689 
C 2182 2689 2266 2165 2266 2114 
C 2266 2108 2246 2024 2240 2012 
L 1926 760 
z
M 2336 2395 
C 2266 2561 2093 2816 1760 2816 
C 1037 2816 256 1884 256 939 
C 256 307 627 -64 1062 -64 
C 1414 -64 1715 211 1894 422 
C 1958 45 2259 -64 2451 -64 
C 2643 -64 2797 51 2912 281 
C 3014 498 3104 888 3104 913 
C 3104 945 3078 971 3040 971 
C 2982 971 2976 939 2950 843 
C 2854 466 2733 64 2470 64 
C 2285 64 2272 230 2272 358 
C 2272 505 2291 575 2349 824 
C 2394 984 2426 1124 2477 1309 
C 2714 2267 2771 2497 2771 2535 
C 2771 2625 2701 2695 2605 2695 
C 2400 2695 2349 2472 2336 2395 
z
" transform="scale(0.015625)"/>
       <path id="CMMI12-6b" d="M 1798 4257 
C 1805 4283 1818 4321 1818 4352 
C 1818 4416 1754 4416 1741 4416 
C 1734 4416 1504 4393 1389 4377 
C 1280 4377 1184 4358 1069 4358 
C 915 4345 870 4339 870 4224 
C 870 4160 934 4160 998 4160 
C 1325 4160 1325 4103 1325 4040 
C 1325 4015 1325 4002 1293 3888 
L 378 248 
C 352 152 352 140 352 101 
C 352 -38 461 -64 525 -64 
C 704 -64 742 77 794 275 
L 1094 1469 
C 1555 1418 1830 1226 1830 920 
C 1830 881 1830 856 1811 760 
C 1786 664 1786 588 1786 556 
C 1786 185 2029 -64 2355 -64 
C 2650 -64 2803 204 2854 294 
C 2989 530 3072 888 3072 913 
C 3072 945 3046 971 3008 971 
C 2950 971 2944 945 2918 843 
C 2829 511 2694 64 2368 64 
C 2240 64 2157 128 2157 370 
C 2157 492 2182 632 2208 728 
C 2234 843 2234 849 2234 926 
C 2234 1303 1894 1514 1306 1590 
C 1536 1731 1766 1980 1856 2076 
C 2221 2484 2470 2689 2765 2689 
C 2912 2689 2950 2650 2995 2612 
C 2758 2586 2669 2420 2669 2293 
C 2669 2139 2790 2088 2880 2088 
C 3053 2088 3206 2235 3206 2440 
C 3206 2625 3059 2816 2771 2816 
C 2419 2816 2131 2567 1677 2056 
C 1613 1980 1376 1737 1139 1648 
L 1798 4257 
z
" transform="scale(0.015625)"/>
      </defs>
      <use xlink:href="#CMMI12-70" transform="scale(0.996264)"/>
      <use xlink:href="#CMMI12-50" transform="translate(48.959514 -14.943915) scale(0.697382)"/>
      <use xlink:href="#CMMI12-65" transform="translate(102.457338 -14.943915) scale(0.697382)"/>
      <use xlink:href="#CMMI12-61" transform="translate(134.105594 -14.943915) scale(0.697382)"/>
      <use xlink:href="#CMMI12-6b" transform="translate(169.950941 -14.943915) scale(0.697382)"/>
     </g>
    </g>
   </g>
   <g id="matplotlib.axis_2">
    <g id="ytick_1">
     <g id="line2d_63">
      <path d="M 38.774054 152.589249 
L 234.074054 152.589249 
" clip-path="url(#pf7b3a44354)" style="fill: none; stroke-dasharray: 1.85,0.8; stroke-dashoffset: 0; stroke: #000000; stroke-opacity: 0.5; stroke-width: 0.5"/>
     </g>
     <g id="line2d_64">
      <defs>
       <path id="mc74f8a52cc" d="M 0 0 
L 3 0 
" style="stroke: #000000; stroke-width: 0.5"/>
      </defs>
      <g>
       <use xlink:href="#mc74f8a52cc" x="38.774054" y="152.589249" style="stroke: #000000; stroke-width: 0.5"/>
      </g>
     </g>
     <g id="line2d_65">
      <defs>
       <path id="m2c89fd8fc1" d="M 0 0 
L -3 0 
" style="stroke: #000000; stroke-width: 0.5"/>
      </defs>
      <g>
       <use xlink:href="#m2c89fd8fc1" x="234.074054" y="152.589249" style="stroke: #000000; stroke-width: 0.5"/>
      </g>
     </g>
     <g id="text_8">
      <!-- $\mathdefault{0.00}$ -->
      <g transform="translate(17.56264 156.048498) scale(0.1 -0.1)">
       <use xlink:href="#CMR17-30" transform="scale(0.996264)"/>
       <use xlink:href="#CMMI12-3a" transform="translate(45.690477 0) scale(0.996264)"/>
       <use xlink:href="#CMR17-30" transform="translate(72.787654 0) scale(0.996264)"/>
       <use xlink:href="#CMR17-30" transform="translate(118.478131 0) scale(0.996264)"/>
      </g>
     </g>
    </g>
    <g id="ytick_2">
     <g id="line2d_66">
      <path d="M 38.774054 123.483249 
L 234.074054 123.483249 
" clip-path="url(#pf7b3a44354)" style="fill: none; stroke-dasharray: 1.85,0.8; stroke-dashoffset: 0; stroke: #000000; stroke-opacity: 0.5; stroke-width: 0.5"/>
     </g>
     <g id="line2d_67">
      <g>
       <use xlink:href="#mc74f8a52cc" x="38.774054" y="123.483249" style="stroke: #000000; stroke-width: 0.5"/>
      </g>
     </g>
     <g id="line2d_68">
      <g>
       <use xlink:href="#m2c89fd8fc1" x="234.074054" y="123.483249" style="stroke: #000000; stroke-width: 0.5"/>
      </g>
     </g>
     <g id="text_9">
      <!-- $\mathdefault{0.05}$ -->
      <g transform="translate(17.56264 126.942498) scale(0.1 -0.1)">
       <use xlink:href="#CMR17-30" transform="scale(0.996264)"/>
       <use xlink:href="#CMMI12-3a" transform="translate(45.690477 0) scale(0.996264)"/>
       <use xlink:href="#CMR17-30" transform="translate(72.787654 0) scale(0.996264)"/>
       <use xlink:href="#CMR17-35" transform="translate(118.478131 0) scale(0.996264)"/>
      </g>
     </g>
    </g>
    <g id="ytick_3">
     <g id="line2d_69">
      <path d="M 38.774054 94.377249 
L 234.074054 94.377249 
" clip-path="url(#pf7b3a44354)" style="fill: none; stroke-dasharray: 1.85,0.8; stroke-dashoffset: 0; stroke: #000000; stroke-opacity: 0.5; stroke-width: 0.5"/>
     </g>
     <g id="line2d_70">
      <g>
       <use xlink:href="#mc74f8a52cc" x="38.774054" y="94.377249" style="stroke: #000000; stroke-width: 0.5"/>
      </g>
     </g>
     <g id="line2d_71">
      <g>
       <use xlink:href="#m2c89fd8fc1" x="234.074054" y="94.377249" style="stroke: #000000; stroke-width: 0.5"/>
      </g>
     </g>
     <g id="text_10">
      <!-- $\mathdefault{0.10}$ -->
      <g transform="translate(17.56264 97.836498) scale(0.1 -0.1)">
       <use xlink:href="#CMR17-30" transform="scale(0.996264)"/>
       <use xlink:href="#CMMI12-3a" transform="translate(45.690477 0) scale(0.996264)"/>
       <use xlink:href="#CMR17-31" transform="translate(72.787654 0) scale(0.996264)"/>
       <use xlink:href="#CMR17-30" transform="translate(118.478131 0) scale(0.996264)"/>
      </g>
     </g>
    </g>
    <g id="ytick_4">
     <g id="line2d_72">
      <path d="M 38.774054 65.271249 
L 234.074054 65.271249 
" clip-path="url(#pf7b3a44354)" style="fill: none; stroke-dasharray: 1.85,0.8; stroke-dashoffset: 0; stroke: #000000; stroke-opacity: 0.5; stroke-width: 0.5"/>
     </g>
     <g id="line2d_73">
      <g>
       <use xlink:href="#mc74f8a52cc" x="38.774054" y="65.271249" style="stroke: #000000; stroke-width: 0.5"/>
      </g>
     </g>
     <g id="line2d_74">
      <g>
       <use xlink:href="#m2c89fd8fc1" x="234.074054" y="65.271249" style="stroke: #000000; stroke-width: 0.5"/>
      </g>
     </g>
     <g id="text_11">
      <!-- $\mathdefault{0.15}$ -->
      <g transform="translate(17.56264 68.730498) scale(0.1 -0.1)">
       <use xlink:href="#CMR17-30" transform="scale(0.996264)"/>
       <use xlink:href="#CMMI12-3a" transform="translate(45.690477 0) scale(0.996264)"/>
       <use xlink:href="#CMR17-31" transform="translate(72.787654 0) scale(0.996264)"/>
       <use xlink:href="#CMR17-35" transform="translate(118.478131 0) scale(0.996264)"/>
      </g>
     </g>
    </g>
    <g id="ytick_5">
     <g id="line2d_75">
      <path d="M 38.774054 36.165249 
L 234.074054 36.165249 
" clip-path="url(#pf7b3a44354)" style="fill: none; stroke-dasharray: 1.85,0.8; stroke-dashoffset: 0; stroke: #000000; stroke-opacity: 0.5; stroke-width: 0.5"/>
     </g>
     <g id="line2d_76">
      <g>
       <use xlink:href="#mc74f8a52cc" x="38.774054" y="36.165249" style="stroke: #000000; stroke-width: 0.5"/>
      </g>
     </g>
     <g id="line2d_77">
      <g>
       <use xlink:href="#m2c89fd8fc1" x="234.074054" y="36.165249" style="stroke: #000000; stroke-width: 0.5"/>
      </g>
     </g>
     <g id="text_12">
      <!-- $\mathdefault{0.20}$ -->
      <g transform="translate(17.56264 39.624498) scale(0.1 -0.1)">
       <defs>
        <path id="CMR17-32" d="M 2669 989 
L 2554 989 
C 2490 536 2438 459 2413 420 
C 2381 369 1920 369 1830 369 
L 602 369 
C 832 619 1280 1072 1824 1597 
C 2214 1967 2669 2402 2669 3035 
C 2669 3790 2067 4224 1395 4224 
C 691 4224 262 3604 262 3030 
C 262 2780 448 2748 525 2748 
C 589 2748 781 2787 781 3010 
C 781 3207 614 3264 525 3264 
C 486 3264 448 3258 422 3245 
C 544 3790 915 4058 1306 4058 
C 1862 4058 2227 3617 2227 3035 
C 2227 2479 1901 2000 1536 1584 
L 262 146 
L 262 0 
L 2515 0 
L 2669 989 
z
" transform="scale(0.015625)"/>
       </defs>
       <use xlink:href="#CMR17-30" transform="scale(0.996264)"/>
       <use xlink:href="#CMMI12-3a" transform="translate(45.690477 0) scale(0.996264)"/>
       <use xlink:href="#CMR17-32" transform="translate(72.787654 0) scale(0.996264)"/>
       <use xlink:href="#CMR17-30" transform="translate(118.478131 0) scale(0.996264)"/>
      </g>
     </g>
    </g>
    <g id="ytick_6">
     <g id="line2d_78">
      <path d="M 38.774054 7.059249 
L 234.074054 7.059249 
" clip-path="url(#pf7b3a44354)" style="fill: none; stroke-dasharray: 1.85,0.8; stroke-dashoffset: 0; stroke: #000000; stroke-opacity: 0.5; stroke-width: 0.5"/>
     </g>
     <g id="line2d_79">
      <g>
       <use xlink:href="#mc74f8a52cc" x="38.774054" y="7.059249" style="stroke: #000000; stroke-width: 0.5"/>
      </g>
     </g>
     <g id="line2d_80">
      <g>
       <use xlink:href="#m2c89fd8fc1" x="234.074054" y="7.059249" style="stroke: #000000; stroke-width: 0.5"/>
      </g>
     </g>
     <g id="text_13">
      <!-- $\mathdefault{0.25}$ -->
      <g transform="translate(17.56264 10.518498) scale(0.1 -0.1)">
       <use xlink:href="#CMR17-30" transform="scale(0.996264)"/>
       <use xlink:href="#CMMI12-3a" transform="translate(45.690477 0) scale(0.996264)"/>
       <use xlink:href="#CMR17-32" transform="translate(72.787654 0) scale(0.996264)"/>
       <use xlink:href="#CMR17-35" transform="translate(118.478131 0) scale(0.996264)"/>
      </g>
     </g>
    </g>
    <g id="ytick_7">
     <g id="line2d_81">
      <defs>
       <path id="mec8819332b" d="M 0 0 
L 1.5 0 
" style="stroke: #000000; stroke-width: 0.5"/>
      </defs>
      <g>
       <use xlink:href="#mec8819332b" x="38.774054" y="146.768049" style="stroke: #000000; stroke-width: 0.5"/>
      </g>
     </g>
     <g id="line2d_82">
      <defs>
       <path id="m3b9448302a" d="M 0 0 
L -1.5 0 
" style="stroke: #000000; stroke-width: 0.5"/>
      </defs>
      <g>
       <use xlink:href="#m3b9448302a" x="234.074054" y="146.768049" style="stroke: #000000; stroke-width: 0.5"/>
      </g>
     </g>
    </g>
    <g id="ytick_8">
     <g id="line2d_83">
      <g>
       <use xlink:href="#mec8819332b" x="38.774054" y="140.946849" style="stroke: #000000; stroke-width: 0.5"/>
      </g>
     </g>
     <g id="line2d_84">
      <g>
       <use xlink:href="#m3b9448302a" x="234.074054" y="140.946849" style="stroke: #000000; stroke-width: 0.5"/>
      </g>
     </g>
    </g>
    <g id="ytick_9">
     <g id="line2d_85">
      <g>
       <use xlink:href="#mec8819332b" x="38.774054" y="135.125649" style="stroke: #000000; stroke-width: 0.5"/>
      </g>
     </g>
     <g id="line2d_86">
      <g>
       <use xlink:href="#m3b9448302a" x="234.074054" y="135.125649" style="stroke: #000000; stroke-width: 0.5"/>
      </g>
     </g>
    </g>
    <g id="ytick_10">
     <g id="line2d_87">
      <g>
       <use xlink:href="#mec8819332b" x="38.774054" y="129.304449" style="stroke: #000000; stroke-width: 0.5"/>
      </g>
     </g>
     <g id="line2d_88">
      <g>
       <use xlink:href="#m3b9448302a" x="234.074054" y="129.304449" style="stroke: #000000; stroke-width: 0.5"/>
      </g>
     </g>
    </g>
    <g id="ytick_11">
     <g id="line2d_89">
      <g>
       <use xlink:href="#mec8819332b" x="38.774054" y="117.662049" style="stroke: #000000; stroke-width: 0.5"/>
      </g>
     </g>
     <g id="line2d_90">
      <g>
       <use xlink:href="#m3b9448302a" x="234.074054" y="117.662049" style="stroke: #000000; stroke-width: 0.5"/>
      </g>
     </g>
    </g>
    <g id="ytick_12">
     <g id="line2d_91">
      <g>
       <use xlink:href="#mec8819332b" x="38.774054" y="111.840849" style="stroke: #000000; stroke-width: 0.5"/>
      </g>
     </g>
     <g id="line2d_92">
      <g>
       <use xlink:href="#m3b9448302a" x="234.074054" y="111.840849" style="stroke: #000000; stroke-width: 0.5"/>
      </g>
     </g>
    </g>
    <g id="ytick_13">
     <g id="line2d_93">
      <g>
       <use xlink:href="#mec8819332b" x="38.774054" y="106.019649" style="stroke: #000000; stroke-width: 0.5"/>
      </g>
     </g>
     <g id="line2d_94">
      <g>
       <use xlink:href="#m3b9448302a" x="234.074054" y="106.019649" style="stroke: #000000; stroke-width: 0.5"/>
      </g>
     </g>
    </g>
    <g id="ytick_14">
     <g id="line2d_95">
      <g>
       <use xlink:href="#mec8819332b" x="38.774054" y="100.198449" style="stroke: #000000; stroke-width: 0.5"/>
      </g>
     </g>
     <g id="line2d_96">
      <g>
       <use xlink:href="#m3b9448302a" x="234.074054" y="100.198449" style="stroke: #000000; stroke-width: 0.5"/>
      </g>
     </g>
    </g>
    <g id="ytick_15">
     <g id="line2d_97">
      <g>
       <use xlink:href="#mec8819332b" x="38.774054" y="88.556049" style="stroke: #000000; stroke-width: 0.5"/>
      </g>
     </g>
     <g id="line2d_98">
      <g>
       <use xlink:href="#m3b9448302a" x="234.074054" y="88.556049" style="stroke: #000000; stroke-width: 0.5"/>
      </g>
     </g>
    </g>
    <g id="ytick_16">
     <g id="line2d_99">
      <g>
       <use xlink:href="#mec8819332b" x="38.774054" y="82.734849" style="stroke: #000000; stroke-width: 0.5"/>
      </g>
     </g>
     <g id="line2d_100">
      <g>
       <use xlink:href="#m3b9448302a" x="234.074054" y="82.734849" style="stroke: #000000; stroke-width: 0.5"/>
      </g>
     </g>
    </g>
    <g id="ytick_17">
     <g id="line2d_101">
      <g>
       <use xlink:href="#mec8819332b" x="38.774054" y="76.913649" style="stroke: #000000; stroke-width: 0.5"/>
      </g>
     </g>
     <g id="line2d_102">
      <g>
       <use xlink:href="#m3b9448302a" x="234.074054" y="76.913649" style="stroke: #000000; stroke-width: 0.5"/>
      </g>
     </g>
    </g>
    <g id="ytick_18">
     <g id="line2d_103">
      <g>
       <use xlink:href="#mec8819332b" x="38.774054" y="71.092449" style="stroke: #000000; stroke-width: 0.5"/>
      </g>
     </g>
     <g id="line2d_104">
      <g>
       <use xlink:href="#m3b9448302a" x="234.074054" y="71.092449" style="stroke: #000000; stroke-width: 0.5"/>
      </g>
     </g>
    </g>
    <g id="ytick_19">
     <g id="line2d_105">
      <g>
       <use xlink:href="#mec8819332b" x="38.774054" y="59.450049" style="stroke: #000000; stroke-width: 0.5"/>
      </g>
     </g>
     <g id="line2d_106">
      <g>
       <use xlink:href="#m3b9448302a" x="234.074054" y="59.450049" style="stroke: #000000; stroke-width: 0.5"/>
      </g>
     </g>
    </g>
    <g id="ytick_20">
     <g id="line2d_107">
      <g>
       <use xlink:href="#mec8819332b" x="38.774054" y="53.628849" style="stroke: #000000; stroke-width: 0.5"/>
      </g>
     </g>
     <g id="line2d_108">
      <g>
       <use xlink:href="#m3b9448302a" x="234.074054" y="53.628849" style="stroke: #000000; stroke-width: 0.5"/>
      </g>
     </g>
    </g>
    <g id="ytick_21">
     <g id="line2d_109">
      <g>
       <use xlink:href="#mec8819332b" x="38.774054" y="47.807649" style="stroke: #000000; stroke-width: 0.5"/>
      </g>
     </g>
     <g id="line2d_110">
      <g>
       <use xlink:href="#m3b9448302a" x="234.074054" y="47.807649" style="stroke: #000000; stroke-width: 0.5"/>
      </g>
     </g>
    </g>
    <g id="ytick_22">
     <g id="line2d_111">
      <g>
       <use xlink:href="#mec8819332b" x="38.774054" y="41.986449" style="stroke: #000000; stroke-width: 0.5"/>
      </g>
     </g>
     <g id="line2d_112">
      <g>
       <use xlink:href="#m3b9448302a" x="234.074054" y="41.986449" style="stroke: #000000; stroke-width: 0.5"/>
      </g>
     </g>
    </g>
    <g id="ytick_23">
     <g id="line2d_113">
      <g>
       <use xlink:href="#mec8819332b" x="38.774054" y="30.344049" style="stroke: #000000; stroke-width: 0.5"/>
      </g>
     </g>
     <g id="line2d_114">
      <g>
       <use xlink:href="#m3b9448302a" x="234.074054" y="30.344049" style="stroke: #000000; stroke-width: 0.5"/>
      </g>
     </g>
    </g>
    <g id="ytick_24">
     <g id="line2d_115">
      <g>
       <use xlink:href="#mec8819332b" x="38.774054" y="24.522849" style="stroke: #000000; stroke-width: 0.5"/>
      </g>
     </g>
     <g id="line2d_116">
      <g>
       <use xlink:href="#m3b9448302a" x="234.074054" y="24.522849" style="stroke: #000000; stroke-width: 0.5"/>
      </g>
     </g>
    </g>
    <g id="ytick_25">
     <g id="line2d_117">
      <g>
       <use xlink:href="#mec8819332b" x="38.774054" y="18.701649" style="stroke: #000000; stroke-width: 0.5"/>
      </g>
     </g>
     <g id="line2d_118">
      <g>
       <use xlink:href="#m3b9448302a" x="234.074054" y="18.701649" style="stroke: #000000; stroke-width: 0.5"/>
      </g>
     </g>
    </g>
    <g id="ytick_26">
     <g id="line2d_119">
      <g>
       <use xlink:href="#mec8819332b" x="38.774054" y="12.880449" style="stroke: #000000; stroke-width: 0.5"/>
      </g>
     </g>
     <g id="line2d_120">
      <g>
       <use xlink:href="#m3b9448302a" x="234.074054" y="12.880449" style="stroke: #000000; stroke-width: 0.5"/>
      </g>
     </g>
    </g>
    <g id="text_14">
     <!-- $\overline{\tau}$ [ns] -->
     <g transform="translate(11.07198 91.725816) rotate(-90) scale(0.1 -0.1)">
      <defs>
       <path id="CMMI12-1c" d="M 1837 2408 
L 2899 2408 
C 2982 2408 3194 2408 3194 2612 
C 3194 2752 3072 2752 2957 2752 
L 1197 2752 
C 1050 2752 832 2752 538 2440 
C 371 2255 166 1917 166 1879 
C 166 1841 198 1828 237 1828 
C 282 1828 288 1847 320 1885 
C 653 2408 986 2408 1146 2408 
L 1677 2408 
L 1011 223 
C 979 127 979 114 979 95 
C 979 25 1024 -64 1152 -64 
C 1350 -64 1382 108 1402 203 
L 1837 2408 
z
" transform="scale(0.015625)"/>
       <path id="CMR17-5b" d="M 1504 -1600 
L 1504 -1377 
L 902 -1377 
L 902 4544 
L 1504 4544 
L 1504 4767 
L 678 4767 
L 678 -1600 
L 1504 -1600 
z
" transform="scale(0.015625)"/>
       <path id="CMR17-6e" d="M 2656 1933 
C 2656 2259 2592 2790 1837 2790 
C 1331 2790 1069 2400 973 2144 
L 966 2144 
L 966 2790 
L 211 2720 
L 211 2554 
C 589 2554 646 2515 646 2208 
L 646 428 
C 646 184 621 153 211 153 
L 211 -13 
C 365 0 646 0 813 0 
C 979 0 1267 0 1421 -13 
L 1421 153 
C 1011 153 986 178 986 428 
L 986 1658 
C 986 2247 1344 2688 1792 2688 
C 2266 2688 2317 2266 2317 1958 
L 2317 428 
C 2317 184 2291 153 1882 153 
L 1882 -13 
C 2035 0 2317 0 2483 0 
C 2650 0 2938 0 3091 -13 
L 3091 153 
C 2682 153 2656 178 2656 428 
L 2656 1933 
z
" transform="scale(0.015625)"/>
       <path id="CMR17-73" d="M 1978 2697 
C 1978 2813 1971 2819 1933 2819 
C 1907 2819 1901 2813 1824 2717 
C 1805 2691 1747 2626 1728 2601 
C 1523 2819 1235 2819 1126 2819 
C 416 2819 160 2447 160 2076 
C 160 1498 813 1365 998 1325 
C 1402 1243 1542 1217 1677 1101 
C 1760 1025 1901 884 1901 654 
C 1901 384 1747 38 1158 38 
C 602 38 403 460 288 1021 
C 269 1110 269 1117 218 1117 
C 166 1117 160 1110 160 983 
L 160 63 
C 160 -51 166 -58 205 -58 
C 237 -58 243 -51 275 0 
C 314 57 410 211 448 276 
C 576 103 800 -64 1158 -64 
C 1792 -64 2131 283 2131 784 
C 2131 1112 1958 1285 1875 1362 
C 1683 1561 1459 1606 1190 1657 
C 838 1735 390 1825 390 2217 
C 390 2383 480 2737 1126 2737 
C 1811 2737 1850 2094 1862 1888 
C 1869 1856 1901 1849 1920 1849 
C 1978 1849 1978 1869 1978 1978 
L 1978 2697 
z
" transform="scale(0.015625)"/>
       <path id="CMR17-5d" d="M 915 4767 
L 90 4767 
L 90 4544 
L 691 4544 
L 691 -1377 
L 90 -1377 
L 90 -1600 
L 915 -1600 
L 915 4767 
z
" transform="scale(0.015625)"/>
      </defs>
      <use xlink:href="#CMMI12-1c" transform="scale(0.996264)"/>
      <use xlink:href="#CMR17-5b" transform="translate(83.567132 0) scale(0.996264)"/>
      <use xlink:href="#CMR17-6e" transform="translate(108.43819 0) scale(0.996264)"/>
      <use xlink:href="#CMR17-73" transform="translate(159.33356 0) scale(0.996264)"/>
      <use xlink:href="#CMR17-5d" transform="translate(195.134898 0) scale(0.996264)"/>
      <path d="M 0 54.849612 
L 53.491165 54.849612 
L 53.491165 58.834561 
L 0 58.834561 
L 0 54.849612 
z
"/>
     </g>
    </g>
   </g>
   <g id="line2d_121">
    <path d="M 47.651327 111.039119 
L 56.5286 109.137827 
L 65.405873 106.385572 
L 74.283145 102.271543 
L 83.160418 100.799062 
L 92.037691 98.500266 
L 100.914963 96.219416 
L 109.792236 93.084222 
L 118.669509 89.82771 
L 127.546782 86.987381 
L 136.424054 86.438221 
L 145.301327 85.198246 
L 154.1786 83.192033 
L 163.055873 80.31825 
L 171.933145 76.89218 
L 180.810418 73.907314 
L 189.687691 71.355576 
L 198.564963 67.072745 
L 207.442236 65.937465 
L 216.319509 64.839053 
L 225.196782 53.926263 
" clip-path="url(#pf7b3a44354)" style="fill: none; stroke: #4477aa; stroke-linecap: square"/>
    <defs>
     <path id="m4e4a042a80" d="M 0 1.5 
C 0.397805 1.5 0.77937 1.341951 1.06066 1.06066 
C 1.341951 0.77937 1.5 0.397805 1.5 0 
C 1.5 -0.397805 1.341951 -0.77937 1.06066 -1.06066 
C 0.77937 -1.341951 0.397805 -1.5 0 -1.5 
C -0.397805 -1.5 -0.77937 -1.341951 -1.06066 -1.06066 
C -1.341951 -0.77937 -1.5 -0.397805 -1.5 0 
C -1.5 0.397805 -1.341951 0.77937 -1.06066 1.06066 
C -0.77937 1.341951 -0.397805 1.5 0 1.5 
z
" style="stroke: #4477aa"/>
    </defs>
    <g clip-path="url(#pf7b3a44354)">
     <use xlink:href="#m4e4a042a80" x="47.651327" y="111.039119" style="fill: #4477aa; stroke: #4477aa"/>
     <use xlink:href="#m4e4a042a80" x="56.5286" y="109.137827" style="fill: #4477aa; stroke: #4477aa"/>
     <use xlink:href="#m4e4a042a80" x="65.405873" y="106.385572" style="fill: #4477aa; stroke: #4477aa"/>
     <use xlink:href="#m4e4a042a80" x="74.283145" y="102.271543" style="fill: #4477aa; stroke: #4477aa"/>
     <use xlink:href="#m4e4a042a80" x="83.160418" y="100.799062" style="fill: #4477aa; stroke: #4477aa"/>
     <use xlink:href="#m4e4a042a80" x="92.037691" y="98.500266" style="fill: #4477aa; stroke: #4477aa"/>
     <use xlink:href="#m4e4a042a80" x="100.914963" y="96.219416" style="fill: #4477aa; stroke: #4477aa"/>
     <use xlink:href="#m4e4a042a80" x="109.792236" y="93.084222" style="fill: #4477aa; stroke: #4477aa"/>
     <use xlink:href="#m4e4a042a80" x="118.669509" y="89.82771" style="fill: #4477aa; stroke: #4477aa"/>
     <use xlink:href="#m4e4a042a80" x="127.546782" y="86.987381" style="fill: #4477aa; stroke: #4477aa"/>
     <use xlink:href="#m4e4a042a80" x="136.424054" y="86.438221" style="fill: #4477aa; stroke: #4477aa"/>
     <use xlink:href="#m4e4a042a80" x="145.301327" y="85.198246" style="fill: #4477aa; stroke: #4477aa"/>
     <use xlink:href="#m4e4a042a80" x="154.1786" y="83.192033" style="fill: #4477aa; stroke: #4477aa"/>
     <use xlink:href="#m4e4a042a80" x="163.055873" y="80.31825" style="fill: #4477aa; stroke: #4477aa"/>
     <use xlink:href="#m4e4a042a80" x="171.933145" y="76.89218" style="fill: #4477aa; stroke: #4477aa"/>
     <use xlink:href="#m4e4a042a80" x="180.810418" y="73.907314" style="fill: #4477aa; stroke: #4477aa"/>
     <use xlink:href="#m4e4a042a80" x="189.687691" y="71.355576" style="fill: #4477aa; stroke: #4477aa"/>
     <use xlink:href="#m4e4a042a80" x="198.564963" y="67.072745" style="fill: #4477aa; stroke: #4477aa"/>
     <use xlink:href="#m4e4a042a80" x="207.442236" y="65.937465" style="fill: #4477aa; stroke: #4477aa"/>
     <use xlink:href="#m4e4a042a80" x="216.319509" y="64.839053" style="fill: #4477aa; stroke: #4477aa"/>
     <use xlink:href="#m4e4a042a80" x="225.196782" y="53.926263" style="fill: #4477aa; stroke: #4477aa"/>
    </g>
   </g>
   <g id="line2d_122">
    <path d="M 47.651327 120.476163 
L 56.5286 118.090929 
L 65.405873 115.934642 
L 74.283145 113.32739 
L 83.160418 111.701112 
L 92.037691 108.881186 
L 100.914963 106.271203 
L 109.792236 104.681479 
L 118.669509 103.35147 
L 127.546782 101.609325 
L 136.424054 97.892478 
L 145.301327 92.382038 
L 154.1786 79.822963 
L 163.055873 74.176579 
L 171.933145 71.037461 
L 180.810418 69.472443 
L 189.687691 60.966652 
L 198.564963 56.264897 
L 207.442236 48.549049 
L 216.319509 45.026725 
L 225.196782 35.277452 
" clip-path="url(#pf7b3a44354)" style="fill: none; stroke: #ee6677; stroke-linecap: square"/>
    <defs>
     <path id="m59a2bbcf71" d="M 0 1.5 
C 0.397805 1.5 0.77937 1.341951 1.06066 1.06066 
C 1.341951 0.77937 1.5 0.397805 1.5 0 
C 1.5 -0.397805 1.341951 -0.77937 1.06066 -1.06066 
C 0.77937 -1.341951 0.397805 -1.5 0 -1.5 
C -0.397805 -1.5 -0.77937 -1.341951 -1.06066 -1.06066 
C -1.341951 -0.77937 -1.5 -0.397805 -1.5 0 
C -1.5 0.397805 -1.341951 0.77937 -1.06066 1.06066 
C -0.77937 1.341951 -0.397805 1.5 0 1.5 
z
" style="stroke: #ee6677"/>
    </defs>
    <g clip-path="url(#pf7b3a44354)">
     <use xlink:href="#m59a2bbcf71" x="47.651327" y="120.476163" style="fill: #ee6677; stroke: #ee6677"/>
     <use xlink:href="#m59a2bbcf71" x="56.5286" y="118.090929" style="fill: #ee6677; stroke: #ee6677"/>
     <use xlink:href="#m59a2bbcf71" x="65.405873" y="115.934642" style="fill: #ee6677; stroke: #ee6677"/>
     <use xlink:href="#m59a2bbcf71" x="74.283145" y="113.32739" style="fill: #ee6677; stroke: #ee6677"/>
     <use xlink:href="#m59a2bbcf71" x="83.160418" y="111.701112" style="fill: #ee6677; stroke: #ee6677"/>
     <use xlink:href="#m59a2bbcf71" x="92.037691" y="108.881186" style="fill: #ee6677; stroke: #ee6677"/>
     <use xlink:href="#m59a2bbcf71" x="100.914963" y="106.271203" style="fill: #ee6677; stroke: #ee6677"/>
     <use xlink:href="#m59a2bbcf71" x="109.792236" y="104.681479" style="fill: #ee6677; stroke: #ee6677"/>
     <use xlink:href="#m59a2bbcf71" x="118.669509" y="103.35147" style="fill: #ee6677; stroke: #ee6677"/>
     <use xlink:href="#m59a2bbcf71" x="127.546782" y="101.609325" style="fill: #ee6677; stroke: #ee6677"/>
     <use xlink:href="#m59a2bbcf71" x="136.424054" y="97.892478" style="fill: #ee6677; stroke: #ee6677"/>
     <use xlink:href="#m59a2bbcf71" x="145.301327" y="92.382038" style="fill: #ee6677; stroke: #ee6677"/>
     <use xlink:href="#m59a2bbcf71" x="154.1786" y="79.822963" style="fill: #ee6677; stroke: #ee6677"/>
     <use xlink:href="#m59a2bbcf71" x="163.055873" y="74.176579" style="fill: #ee6677; stroke: #ee6677"/>
     <use xlink:href="#m59a2bbcf71" x="171.933145" y="71.037461" style="fill: #ee6677; stroke: #ee6677"/>
     <use xlink:href="#m59a2bbcf71" x="180.810418" y="69.472443" style="fill: #ee6677; stroke: #ee6677"/>
     <use xlink:href="#m59a2bbcf71" x="189.687691" y="60.966652" style="fill: #ee6677; stroke: #ee6677"/>
     <use xlink:href="#m59a2bbcf71" x="198.564963" y="56.264897" style="fill: #ee6677; stroke: #ee6677"/>
     <use xlink:href="#m59a2bbcf71" x="207.442236" y="48.549049" style="fill: #ee6677; stroke: #ee6677"/>
     <use xlink:href="#m59a2bbcf71" x="216.319509" y="45.026725" style="fill: #ee6677; stroke: #ee6677"/>
     <use xlink:href="#m59a2bbcf71" x="225.196782" y="35.277452" style="fill: #ee6677; stroke: #ee6677"/>
    </g>
   </g>
   <g id="line2d_123">
    <path d="M 47.651327 123.530076 
L 56.5286 122.256891 
L 65.405873 120.796316 
L 74.283145 117.511569 
L 83.160418 115.262485 
L 92.037691 113.946052 
L 100.914963 112.680267 
L 109.792236 111.206491 
L 118.669509 109.084465 
L 127.546782 107.809598 
L 136.424054 106.451285 
L 145.301327 105.146364 
L 154.1786 102.278662 
L 163.055873 99.923755 
L 171.933145 98.049017 
L 180.810418 95.507188 
L 189.687691 92.448934 
L 198.564963 90.186415 
L 207.442236 88.874699 
L 216.319509 85.91255 
L 225.196782 82.944961 
" clip-path="url(#pf7b3a44354)" style="fill: none; stroke: #228833; stroke-linecap: square"/>
    <defs>
     <path id="m9e495fa90e" d="M 0 1.5 
C 0.397805 1.5 0.77937 1.341951 1.06066 1.06066 
C 1.341951 0.77937 1.5 0.397805 1.5 0 
C 1.5 -0.397805 1.341951 -0.77937 1.06066 -1.06066 
C 0.77937 -1.341951 0.397805 -1.5 0 -1.5 
C -0.397805 -1.5 -0.77937 -1.341951 -1.06066 -1.06066 
C -1.341951 -0.77937 -1.5 -0.397805 -1.5 0 
C -1.5 0.397805 -1.341951 0.77937 -1.06066 1.06066 
C -0.77937 1.341951 -0.397805 1.5 0 1.5 
z
" style="stroke: #228833"/>
    </defs>
    <g clip-path="url(#pf7b3a44354)">
     <use xlink:href="#m9e495fa90e" x="47.651327" y="123.530076" style="fill: #228833; stroke: #228833"/>
     <use xlink:href="#m9e495fa90e" x="56.5286" y="122.256891" style="fill: #228833; stroke: #228833"/>
     <use xlink:href="#m9e495fa90e" x="65.405873" y="120.796316" style="fill: #228833; stroke: #228833"/>
     <use xlink:href="#m9e495fa90e" x="74.283145" y="117.511569" style="fill: #228833; stroke: #228833"/>
     <use xlink:href="#m9e495fa90e" x="83.160418" y="115.262485" style="fill: #228833; stroke: #228833"/>
     <use xlink:href="#m9e495fa90e" x="92.037691" y="113.946052" style="fill: #228833; stroke: #228833"/>
     <use xlink:href="#m9e495fa90e" x="100.914963" y="112.680267" style="fill: #228833; stroke: #228833"/>
     <use xlink:href="#m9e495fa90e" x="109.792236" y="111.206491" style="fill: #228833; stroke: #228833"/>
     <use xlink:href="#m9e495fa90e" x="118.669509" y="109.084465" style="fill: #228833; stroke: #228833"/>
     <use xlink:href="#m9e495fa90e" x="127.546782" y="107.809598" style="fill: #228833; stroke: #228833"/>
     <use xlink:href="#m9e495fa90e" x="136.424054" y="106.451285" style="fill: #228833; stroke: #228833"/>
     <use xlink:href="#m9e495fa90e" x="145.301327" y="105.146364" style="fill: #228833; stroke: #228833"/>
     <use xlink:href="#m9e495fa90e" x="154.1786" y="102.278662" style="fill: #228833; stroke: #228833"/>
     <use xlink:href="#m9e495fa90e" x="163.055873" y="99.923755" style="fill: #228833; stroke: #228833"/>
     <use xlink:href="#m9e495fa90e" x="171.933145" y="98.049017" style="fill: #228833; stroke: #228833"/>
     <use xlink:href="#m9e495fa90e" x="180.810418" y="95.507188" style="fill: #228833; stroke: #228833"/>
     <use xlink:href="#m9e495fa90e" x="189.687691" y="92.448934" style="fill: #228833; stroke: #228833"/>
     <use xlink:href="#m9e495fa90e" x="198.564963" y="90.186415" style="fill: #228833; stroke: #228833"/>
     <use xlink:href="#m9e495fa90e" x="207.442236" y="88.874699" style="fill: #228833; stroke: #228833"/>
     <use xlink:href="#m9e495fa90e" x="216.319509" y="85.91255" style="fill: #228833; stroke: #228833"/>
     <use xlink:href="#m9e495fa90e" x="225.196782" y="82.944961" style="fill: #228833; stroke: #228833"/>
    </g>
   </g>
   <g id="line2d_124">
    <path d="M 47.651327 132.314062 
L 56.5286 130.997635 
L 65.405873 129.840915 
L 74.283145 128.557392 
L 83.160418 126.375645 
L 92.037691 124.528943 
L 100.914963 122.614434 
L 109.792236 121.749848 
L 118.669509 120.120126 
L 127.546782 118.465558 
L 136.424054 115.886861 
L 145.301327 113.714242 
L 154.1786 111.996659 
L 163.055873 110.440159 
L 171.933145 108.966458 
L 180.810418 107.893734 
L 189.687691 105.98515 
L 198.564963 103.764401 
L 207.442236 101.194326 
L 216.319509 99.138547 
L 225.196782 97.499522 
" clip-path="url(#pf7b3a44354)" style="fill: none; stroke: #ccbb44; stroke-linecap: square"/>
    <defs>
     <path id="mb7c7cbd64c" d="M 0 1.5 
C 0.397805 1.5 0.77937 1.341951 1.06066 1.06066 
C 1.341951 0.77937 1.5 0.397805 1.5 0 
C 1.5 -0.397805 1.341951 -0.77937 1.06066 -1.06066 
C 0.77937 -1.341951 0.397805 -1.5 0 -1.5 
C -0.397805 -1.5 -0.77937 -1.341951 -1.06066 -1.06066 
C -1.341951 -0.77937 -1.5 -0.397805 -1.5 0 
C -1.5 0.397805 -1.341951 0.77937 -1.06066 1.06066 
C -0.77937 1.341951 -0.397805 1.5 0 1.5 
z
" style="stroke: #ccbb44"/>
    </defs>
    <g clip-path="url(#pf7b3a44354)">
     <use xlink:href="#mb7c7cbd64c" x="47.651327" y="132.314062" style="fill: #ccbb44; stroke: #ccbb44"/>
     <use xlink:href="#mb7c7cbd64c" x="56.5286" y="130.997635" style="fill: #ccbb44; stroke: #ccbb44"/>
     <use xlink:href="#mb7c7cbd64c" x="65.405873" y="129.840915" style="fill: #ccbb44; stroke: #ccbb44"/>
     <use xlink:href="#mb7c7cbd64c" x="74.283145" y="128.557392" style="fill: #ccbb44; stroke: #ccbb44"/>
     <use xlink:href="#mb7c7cbd64c" x="83.160418" y="126.375645" style="fill: #ccbb44; stroke: #ccbb44"/>
     <use xlink:href="#mb7c7cbd64c" x="92.037691" y="124.528943" style="fill: #ccbb44; stroke: #ccbb44"/>
     <use xlink:href="#mb7c7cbd64c" x="100.914963" y="122.614434" style="fill: #ccbb44; stroke: #ccbb44"/>
     <use xlink:href="#mb7c7cbd64c" x="109.792236" y="121.749848" style="fill: #ccbb44; stroke: #ccbb44"/>
     <use xlink:href="#mb7c7cbd64c" x="118.669509" y="120.120126" style="fill: #ccbb44; stroke: #ccbb44"/>
     <use xlink:href="#mb7c7cbd64c" x="127.546782" y="118.465558" style="fill: #ccbb44; stroke: #ccbb44"/>
     <use xlink:href="#mb7c7cbd64c" x="136.424054" y="115.886861" style="fill: #ccbb44; stroke: #ccbb44"/>
     <use xlink:href="#mb7c7cbd64c" x="145.301327" y="113.714242" style="fill: #ccbb44; stroke: #ccbb44"/>
     <use xlink:href="#mb7c7cbd64c" x="154.1786" y="111.996659" style="fill: #ccbb44; stroke: #ccbb44"/>
     <use xlink:href="#mb7c7cbd64c" x="163.055873" y="110.440159" style="fill: #ccbb44; stroke: #ccbb44"/>
     <use xlink:href="#mb7c7cbd64c" x="171.933145" y="108.966458" style="fill: #ccbb44; stroke: #ccbb44"/>
     <use xlink:href="#mb7c7cbd64c" x="180.810418" y="107.893734" style="fill: #ccbb44; stroke: #ccbb44"/>
     <use xlink:href="#mb7c7cbd64c" x="189.687691" y="105.98515" style="fill: #ccbb44; stroke: #ccbb44"/>
     <use xlink:href="#mb7c7cbd64c" x="198.564963" y="103.764401" style="fill: #ccbb44; stroke: #ccbb44"/>
     <use xlink:href="#mb7c7cbd64c" x="207.442236" y="101.194326" style="fill: #ccbb44; stroke: #ccbb44"/>
     <use xlink:href="#mb7c7cbd64c" x="216.319509" y="99.138547" style="fill: #ccbb44; stroke: #ccbb44"/>
     <use xlink:href="#mb7c7cbd64c" x="225.196782" y="97.499522" style="fill: #ccbb44; stroke: #ccbb44"/>
    </g>
   </g>
   <g id="line2d_125">
    <path d="M 47.651327 137.155498 
L 56.5286 135.968729 
L 65.405873 134.78685 
L 74.283145 132.984079 
L 83.160418 131.064024 
L 92.037691 129.308112 
L 100.914963 127.77627 
L 109.792236 126.063133 
L 118.669509 124.384997 
L 127.546782 122.340833 
L 136.424054 121.034241 
L 145.301327 119.093563 
L 154.1786 117.711944 
L 163.055873 116.775502 
L 171.933145 115.46243 
L 180.810418 113.856318 
L 189.687691 112.030855 
L 198.564963 109.668706 
L 207.442236 107.75905 
L 216.319509 105.528815 
L 225.196782 104.255 
" clip-path="url(#pf7b3a44354)" style="fill: none; stroke: #66ccee; stroke-linecap: square"/>
    <defs>
     <path id="m9873cbb9bd" d="M 0 1.5 
C 0.397805 1.5 0.77937 1.341951 1.06066 1.06066 
C 1.341951 0.77937 1.5 0.397805 1.5 0 
C 1.5 -0.397805 1.341951 -0.77937 1.06066 -1.06066 
C 0.77937 -1.341951 0.397805 -1.5 0 -1.5 
C -0.397805 -1.5 -0.77937 -1.341951 -1.06066 -1.06066 
C -1.341951 -0.77937 -1.5 -0.397805 -1.5 0 
C -1.5 0.397805 -1.341951 0.77937 -1.06066 1.06066 
C -0.77937 1.341951 -0.397805 1.5 0 1.5 
z
" style="stroke: #66ccee"/>
    </defs>
    <g clip-path="url(#pf7b3a44354)">
     <use xlink:href="#m9873cbb9bd" x="47.651327" y="137.155498" style="fill: #66ccee; stroke: #66ccee"/>
     <use xlink:href="#m9873cbb9bd" x="56.5286" y="135.968729" style="fill: #66ccee; stroke: #66ccee"/>
     <use xlink:href="#m9873cbb9bd" x="65.405873" y="134.78685" style="fill: #66ccee; stroke: #66ccee"/>
     <use xlink:href="#m9873cbb9bd" x="74.283145" y="132.984079" style="fill: #66ccee; stroke: #66ccee"/>
     <use xlink:href="#m9873cbb9bd" x="83.160418" y="131.064024" style="fill: #66ccee; stroke: #66ccee"/>
     <use xlink:href="#m9873cbb9bd" x="92.037691" y="129.308112" style="fill: #66ccee; stroke: #66ccee"/>
     <use xlink:href="#m9873cbb9bd" x="100.914963" y="127.77627" style="fill: #66ccee; stroke: #66ccee"/>
     <use xlink:href="#m9873cbb9bd" x="109.792236" y="126.063133" style="fill: #66ccee; stroke: #66ccee"/>
     <use xlink:href="#m9873cbb9bd" x="118.669509" y="124.384997" style="fill: #66ccee; stroke: #66ccee"/>
     <use xlink:href="#m9873cbb9bd" x="127.546782" y="122.340833" style="fill: #66ccee; stroke: #66ccee"/>
     <use xlink:href="#m9873cbb9bd" x="136.424054" y="121.034241" style="fill: #66ccee; stroke: #66ccee"/>
     <use xlink:href="#m9873cbb9bd" x="145.301327" y="119.093563" style="fill: #66ccee; stroke: #66ccee"/>
     <use xlink:href="#m9873cbb9bd" x="154.1786" y="117.711944" style="fill: #66ccee; stroke: #66ccee"/>
     <use xlink:href="#m9873cbb9bd" x="163.055873" y="116.775502" style="fill: #66ccee; stroke: #66ccee"/>
     <use xlink:href="#m9873cbb9bd" x="171.933145" y="115.46243" style="fill: #66ccee; stroke: #66ccee"/>
     <use xlink:href="#m9873cbb9bd" x="180.810418" y="113.856318" style="fill: #66ccee; stroke: #66ccee"/>
     <use xlink:href="#m9873cbb9bd" x="189.687691" y="112.030855" style="fill: #66ccee; stroke: #66ccee"/>
     <use xlink:href="#m9873cbb9bd" x="198.564963" y="109.668706" style="fill: #66ccee; stroke: #66ccee"/>
     <use xlink:href="#m9873cbb9bd" x="207.442236" y="107.75905" style="fill: #66ccee; stroke: #66ccee"/>
     <use xlink:href="#m9873cbb9bd" x="216.319509" y="105.528815" style="fill: #66ccee; stroke: #66ccee"/>
     <use xlink:href="#m9873cbb9bd" x="225.196782" y="104.255" style="fill: #66ccee; stroke: #66ccee"/>
    </g>
   </g>
   <g id="patch_3">
    <path d="M 38.774054 152.589249 
L 38.774054 7.059249 
" style="fill: none; stroke: #000000; stroke-width: 0.5; stroke-linejoin: miter; stroke-linecap: square"/>
   </g>
   <g id="patch_4">
    <path d="M 234.074054 152.589249 
L 234.074054 7.059249 
" style="fill: none; stroke: #000000; stroke-width: 0.5; stroke-linejoin: miter; stroke-linecap: square"/>
   </g>
   <g id="patch_5">
    <path d="M 38.774054 152.589249 
L 234.074054 152.589249 
" style="fill: none; stroke: #000000; stroke-width: 0.5; stroke-linejoin: miter; stroke-linecap: square"/>
   </g>
   <g id="patch_6">
    <path d="M 38.774054 7.059249 
L 234.074054 7.059249 
" style="fill: none; stroke: #000000; stroke-width: 0.5; stroke-linejoin: miter; stroke-linecap: square"/>
   </g>
   <g id="legend_1">
    <g id="patch_7">
     <path d="M 44.605054 71.771595 
L 130.411448 71.771595 
Q 132.077448 71.771595 132.077448 70.105595 
L 132.077448 12.890249 
Q 132.077448 11.224249 130.411448 11.224249 
L 44.605054 11.224249 
Q 42.939054 11.224249 42.939054 12.890249 
L 42.939054 70.105595 
Q 42.939054 71.771595 44.605054 71.771595 
z
" style="fill: #ffffff; stroke: #cccccc; stroke-linejoin: miter"/>
    </g>
    <g id="line2d_126">
     <path d="M 46.271054 17.471749 
L 54.601054 17.471749 
L 62.931054 17.471749 
" style="fill: none; stroke: #4477aa; stroke-linecap: square"/>
     <g>
      <use xlink:href="#m4e4a042a80" x="54.601054" y="17.471749" style="fill: #4477aa; stroke: #4477aa"/>
     </g>
    </g>
    <g id="text_15">
     <!-- $U_0 = 10.0$ mV -->
     <g transform="translate(69.595054 20.387249) scale(0.0833 -0.0833)">
      <defs>
       <path id="CMMI12-55" d="M 3238 1474 
C 3014 581 2272 57 1670 57 
C 1210 57 896 363 896 891 
C 896 916 896 1107 966 1387 
L 1594 3887 
C 1651 4103 1664 4167 2118 4167 
C 2234 4167 2298 4167 2298 4282 
C 2298 4352 2240 4352 2202 4352 
C 2086 4352 1952 4352 1830 4352 
L 1075 4352 
C 954 4352 819 4352 698 4352 
C 653 4352 576 4352 576 4231 
C 576 4167 621 4167 742 4167 
C 1126 4167 1126 4116 1126 4046 
C 1126 4008 1082 3824 1050 3715 
L 493 1488 
C 474 1418 435 1246 435 1075 
C 435 374 941 -128 1638 -128 
C 2285 -128 3002 384 3328 1197 
C 3373 1305 3430 1530 3469 1702 
C 3533 1933 3667 2496 3712 2662 
L 3955 3623 
C 4038 3956 4090 4167 4653 4167 
C 4704 4173 4730 4224 4730 4282 
C 4730 4352 4672 4352 4646 4352 
C 4557 4352 4442 4352 4352 4352 
L 4051 4352 
C 3654 4352 3450 4352 3443 4352 
C 3405 4352 3328 4352 3328 4231 
C 3328 4167 3379 4167 3424 4167 
C 3808 4167 3834 4020 3834 3905 
C 3834 3848 3834 3828 3808 3739 
L 3238 1474 
z
" transform="scale(0.015625)"/>
       <path id="CMR17-3d" d="M 4115 2017 
C 4211 2017 4307 2017 4307 2125 
C 4307 2240 4198 2240 4090 2240 
L 512 2240 
C 403 2240 294 2240 294 2125 
C 294 2017 390 2017 486 2017 
L 4115 2017 
z
M 4090 896 
C 4198 896 4307 896 4307 1011 
C 4307 1119 4211 1119 4115 1119 
L 486 1119 
C 390 1119 294 1119 294 1011 
C 294 896 403 896 512 896 
L 4090 896 
z
" transform="scale(0.015625)"/>
       <path id="CMR17-6d" d="M 4326 1933 
C 4326 2252 4269 2790 3507 2790 
C 3072 2790 2771 2496 2656 2151 
L 2650 2151 
C 2573 2676 2195 2790 1837 2790 
C 1331 2790 1069 2400 973 2144 
L 966 2144 
L 966 2790 
L 211 2720 
L 211 2554 
C 589 2554 646 2515 646 2208 
L 646 428 
C 646 184 621 153 211 153 
L 211 -13 
C 365 0 646 0 813 0 
C 979 0 1267 0 1421 -13 
L 1421 153 
C 1011 153 986 178 986 428 
L 986 1658 
C 986 2247 1344 2688 1792 2688 
C 2266 2688 2317 2266 2317 1958 
L 2317 428 
C 2317 184 2291 153 1882 153 
L 1882 -13 
C 2035 0 2317 0 2483 0 
C 2650 0 2938 0 3091 -13 
L 3091 153 
C 2682 153 2656 178 2656 428 
L 2656 1658 
C 2656 2247 3014 2688 3462 2688 
C 3936 2688 3987 2266 3987 1958 
L 3987 428 
C 3987 184 3962 153 3552 153 
L 3552 -13 
C 3706 0 3987 0 4154 0 
C 4320 0 4608 0 4762 -13 
L 4762 153 
C 4352 153 4326 178 4326 428 
L 4326 1933 
z
" transform="scale(0.015625)"/>
       <path id="CMR17-56" d="M 3776 3745 
C 3834 3886 3936 4160 4365 4160 
L 4365 4332 
C 4218 4319 4051 4319 3891 4319 
C 3738 4319 3475 4319 3328 4332 
L 3328 4160 
C 3648 4160 3661 3936 3661 3898 
C 3661 3827 3642 3783 3622 3732 
L 2362 446 
L 1043 3886 
C 1024 3931 1011 3963 1011 3994 
C 1011 4160 1267 4160 1402 4160 
L 1402 4319 
C 1197 4319 896 4319 685 4319 
C 518 4319 218 4319 64 4332 
L 64 4160 
C 435 4160 506 4135 582 3931 
L 2106 -26 
C 2138 -115 2144 -128 2214 -128 
C 2285 -128 2291 -115 2323 -26 
L 3776 3745 
z
" transform="scale(0.015625)"/>
      </defs>
      <use xlink:href="#CMMI12-55" transform="scale(0.996264)"/>
      <use xlink:href="#CMR17-30" transform="translate(66.252119 -14.943915) scale(0.697382)"/>
      <use xlink:href="#CMR17-3d" transform="translate(126.407442 0) scale(0.996264)"/>
      <use xlink:href="#CMR17-31" transform="translate(225.796239 0) scale(0.996264)"/>
      <use xlink:href="#CMR17-30" transform="translate(271.486716 0) scale(0.996264)"/>
      <use xlink:href="#CMMI12-3a" transform="translate(317.177193 0) scale(0.996264)"/>
      <use xlink:href="#CMR17-30" transform="translate(344.27437 0) scale(0.996264)"/>
      <use xlink:href="#CMR17-6d" transform="translate(420.040814 0) scale(0.996264)"/>
      <use xlink:href="#CMR17-56" transform="translate(496.960404 0) scale(0.996264)"/>
     </g>
    </g>
    <g id="line2d_127">
     <path d="M 46.271054 29.081418 
L 54.601054 29.081418 
L 62.931054 29.081418 
" style="fill: none; stroke: #ee6677; stroke-linecap: square"/>
     <g>
      <use xlink:href="#m59a2bbcf71" x="54.601054" y="29.081418" style="fill: #ee6677; stroke: #ee6677"/>
     </g>
    </g>
    <g id="text_16">
     <!-- $U_0 = 16.25$ mV -->
     <g transform="translate(69.595054 31.996918) scale(0.0833 -0.0833)">
      <use xlink:href="#CMMI12-55" transform="scale(0.996264)"/>
      <use xlink:href="#CMR17-30" transform="translate(66.252119 -14.943915) scale(0.697382)"/>
      <use xlink:href="#CMR17-3d" transform="translate(126.407442 0) scale(0.996264)"/>
      <use xlink:href="#CMR17-31" transform="translate(225.796239 0) scale(0.996264)"/>
      <use xlink:href="#CMR17-36" transform="translate(271.486716 0) scale(0.996264)"/>
      <use xlink:href="#CMMI12-3a" transform="translate(317.177193 0) scale(0.996264)"/>
      <use xlink:href="#CMR17-32" transform="translate(344.27437 0) scale(0.996264)"/>
      <use xlink:href="#CMR17-35" transform="translate(389.964847 0) scale(0.996264)"/>
      <use xlink:href="#CMR17-6d" transform="translate(465.731291 0) scale(0.996264)"/>
      <use xlink:href="#CMR17-56" transform="translate(542.650881 0) scale(0.996264)"/>
     </g>
    </g>
    <g id="line2d_128">
     <path d="M 46.271054 40.691088 
L 54.601054 40.691088 
L 62.931054 40.691088 
" style="fill: none; stroke: #228833; stroke-linecap: square"/>
     <g>
      <use xlink:href="#m9e495fa90e" x="54.601054" y="40.691088" style="fill: #228833; stroke: #228833"/>
     </g>
    </g>
    <g id="text_17">
     <!-- $U_0 = 22.5$ mV -->
     <g transform="translate(69.595054 43.606588) scale(0.0833 -0.0833)">
      <use xlink:href="#CMMI12-55" transform="scale(0.996264)"/>
      <use xlink:href="#CMR17-30" transform="translate(66.252119 -14.943915) scale(0.697382)"/>
      <use xlink:href="#CMR17-3d" transform="translate(126.407442 0) scale(0.996264)"/>
      <use xlink:href="#CMR17-32" transform="translate(225.796239 0) scale(0.996264)"/>
      <use xlink:href="#CMR17-32" transform="translate(271.486716 0) scale(0.996264)"/>
      <use xlink:href="#CMMI12-3a" transform="translate(317.177193 0) scale(0.996264)"/>
      <use xlink:href="#CMR17-35" transform="translate(344.27437 0) scale(0.996264)"/>
      <use xlink:href="#CMR17-6d" transform="translate(420.040814 0) scale(0.996264)"/>
      <use xlink:href="#CMR17-56" transform="translate(496.960404 0) scale(0.996264)"/>
     </g>
    </g>
    <g id="line2d_129">
     <path d="M 46.271054 52.300757 
L 54.601054 52.300757 
L 62.931054 52.300757 
" style="fill: none; stroke: #ccbb44; stroke-linecap: square"/>
     <g>
      <use xlink:href="#mb7c7cbd64c" x="54.601054" y="52.300757" style="fill: #ccbb44; stroke: #ccbb44"/>
     </g>
    </g>
    <g id="text_18">
     <!-- $U_0 = 28.75$ mV -->
     <g transform="translate(69.595054 55.216257) scale(0.0833 -0.0833)">
      <use xlink:href="#CMMI12-55" transform="scale(0.996264)"/>
      <use xlink:href="#CMR17-30" transform="translate(66.252119 -14.943915) scale(0.697382)"/>
      <use xlink:href="#CMR17-3d" transform="translate(126.407442 0) scale(0.996264)"/>
      <use xlink:href="#CMR17-32" transform="translate(225.796239 0) scale(0.996264)"/>
      <use xlink:href="#CMR17-38" transform="translate(271.486716 0) scale(0.996264)"/>
      <use xlink:href="#CMMI12-3a" transform="translate(317.177193 0) scale(0.996264)"/>
      <use xlink:href="#CMR17-37" transform="translate(344.27437 0) scale(0.996264)"/>
      <use xlink:href="#CMR17-35" transform="translate(389.964847 0) scale(0.996264)"/>
      <use xlink:href="#CMR17-6d" transform="translate(465.731291 0) scale(0.996264)"/>
      <use xlink:href="#CMR17-56" transform="translate(542.650881 0) scale(0.996264)"/>
     </g>
    </g>
    <g id="line2d_130">
     <path d="M 46.271054 63.910426 
L 54.601054 63.910426 
L 62.931054 63.910426 
" style="fill: none; stroke: #66ccee; stroke-linecap: square"/>
     <g>
      <use xlink:href="#m9873cbb9bd" x="54.601054" y="63.910426" style="fill: #66ccee; stroke: #66ccee"/>
     </g>
    </g>
    <g id="text_19">
     <!-- $U_0 = 35.0$ mV -->
     <g transform="translate(69.595054 66.825926) scale(0.0833 -0.0833)">
      <defs>
       <path id="CMR17-33" d="M 1414 2157 
C 1984 2157 2234 1662 2234 1090 
C 2234 320 1824 25 1453 25 
C 1114 25 563 194 390 693 
C 422 680 454 680 486 680 
C 640 680 755 782 755 948 
C 755 1133 614 1216 486 1216 
C 378 1216 211 1165 211 926 
C 211 335 787 -128 1466 -128 
C 2176 -128 2720 430 2720 1085 
C 2720 1707 2208 2157 1600 2227 
C 2086 2328 2554 2756 2554 3329 
C 2554 3820 2048 4179 1472 4179 
C 890 4179 378 3829 378 3329 
C 378 3110 544 3072 627 3072 
C 762 3072 877 3155 877 3321 
C 877 3486 762 3569 627 3569 
C 602 3569 570 3569 544 3557 
C 730 3959 1235 4032 1459 4032 
C 1683 4032 2106 3925 2106 3320 
C 2106 3143 2080 2828 1862 2550 
C 1670 2304 1453 2304 1242 2284 
C 1210 2284 1062 2269 1037 2269 
C 992 2263 966 2257 966 2208 
C 966 2163 973 2157 1101 2157 
L 1414 2157 
z
" transform="scale(0.015625)"/>
      </defs>
      <use xlink:href="#CMMI12-55" transform="scale(0.996264)"/>
      <use xlink:href="#CMR17-30" transform="translate(66.252119 -14.943915) scale(0.697382)"/>
      <use xlink:href="#CMR17-3d" transform="translate(126.407442 0) scale(0.996264)"/>
      <use xlink:href="#CMR17-33" transform="translate(225.796239 0) scale(0.996264)"/>
      <use xlink:href="#CMR17-35" transform="translate(271.486716 0) scale(0.996264)"/>
      <use xlink:href="#CMMI12-3a" transform="translate(317.177193 0) scale(0.996264)"/>
      <use xlink:href="#CMR17-30" transform="translate(344.27437 0) scale(0.996264)"/>
      <use xlink:href="#CMR17-6d" transform="translate(420.040814 0) scale(0.996264)"/>
      <use xlink:href="#CMR17-56" transform="translate(496.960404 0) scale(0.996264)"/>
     </g>
    </g>
   </g>
  </g>
 </g>
 <defs>
  <clipPath id="pf7b3a44354">
   <rect x="38.774054" y="7.059249" width="195.3" height="145.53"/>
  </clipPath>
 </defs>
</svg>
